<?xml version="1.0" encoding="UTF-8" standalone="no"?>
<!DOCTYPE svg PUBLIC "-//W3C//DTD SVG 1.1//EN"
 "http://www.w3.org/Graphics/SVG/1.1/DTD/svg11.dtd">
<!-- Generated by graphviz version 10.0.1 (20240210.2158)
 -->
<!-- Title: GEU::GuiUtilities::DragDropIDs Pages: 1 -->
<svg width="200pt" height="189pt"
 viewBox="0.00 0.00 200.12 189.00" xmlns="http://www.w3.org/2000/svg" xmlns:xlink="http://www.w3.org/1999/xlink">
<g id="graph0" class="graph" transform="scale(1 1) rotate(0) translate(4 185)">
<title>GEU::GuiUtilities::DragDropIDs</title>
<!-- Node1 -->
<g id="Node000001" class="node">
<title>Node1</title>
<g id="a_Node000001"><a xlink:title=" ">
<polygon fill="#999999" stroke="#666666" points="96.25,-32 0,-32 0,0 96.25,0 96.25,-32"/>
<text text-anchor="start" x="8" y="-18.5" font-family="Helvetica,sans-Serif" font-size="10.00">GEU::GuiUtilities::</text>
<text text-anchor="middle" x="48.12" y="-6.5" font-family="Helvetica,sans-Serif" font-size="10.00">DragDropIDs</text>
</a>
</g>
</g>
<!-- Node2 -->
<g id="Node000002" class="node">
<title>Node2</title>
<g id="a_Node000002"><a xlink:title=" ">
<polygon fill="white" stroke="#666666" points="77.88,-112 18.37,-112 18.37,-92 77.88,-92 77.88,-112"/>
<text text-anchor="middle" x="48.12" y="-98.5" font-family="Helvetica,sans-Serif" font-size="10.00">std::string</text>
</a>
</g>
</g>
<!-- Node2&#45;&gt;Node1 -->
<g id="edge1_Node000001_Node000002" class="edge">
<title>Node2&#45;&gt;Node1</title>
<g id="a_edge1_Node000001_Node000002"><a xlink:title=" ">
<path fill="none" stroke="#9a32cd" stroke-dasharray="5,2" d="M48.12,-80.61C48.12,-65.72 48.12,-45.86 48.12,-32.32"/>
<polygon fill="#9a32cd" stroke="#9a32cd" points="44.63,-80.18 48.13,-90.18 51.63,-80.18 44.63,-80.18"/>
</a>
</g>
<text text-anchor="middle" x="120.12" y="-64.5" font-family="Helvetica,sans-Serif" font-size="10.00" fill="grey"> INSPECTORDETAILS_HEADER</text>
<text text-anchor="middle" x="120.12" y="-52.5" font-family="Helvetica,sans-Serif" font-size="10.00" fill="grey">INSPECTORLIST_IMAGE</text>
</g>
<!-- Node3 -->
<g id="Node000003" class="node">
<title>Node3</title>
<g id="a_Node000003"><a xlink:title=" ">
<polygon fill="white" stroke="#666666" points="95.12,-181 1.12,-181 1.12,-149 95.12,-149 95.12,-181"/>
<text text-anchor="start" x="9.12" y="-167.5" font-family="Helvetica,sans-Serif" font-size="10.00">std::basic_string&lt;</text>
<text text-anchor="middle" x="48.12" y="-155.5" font-family="Helvetica,sans-Serif" font-size="10.00"> Char &gt;</text>
</a>
</g>
</g>
<!-- Node3&#45;&gt;Node2 -->
<g id="edge2_Node000002_Node000003" class="edge">
<title>Node3&#45;&gt;Node2</title>
<g id="a_edge2_Node000002_Node000003"><a xlink:title=" ">
<path fill="none" stroke="#63b8ff" d="M48.12,-137.36C48.12,-128.41 48.12,-119.01 48.12,-112.31"/>
<polygon fill="#63b8ff" stroke="#63b8ff" points="44.63,-137.09 48.13,-147.09 51.63,-137.09 44.63,-137.09"/>
</a>
</g>
</g>
</g>
</svg>
