<?xml version="1.0" encoding="UTF-8" standalone="no"?>
<!DOCTYPE svg PUBLIC "-//W3C//DTD SVG 1.1//EN"
 "http://www.w3.org/Graphics/SVG/1.1/DTD/svg11.dtd">
<!-- Generated by graphviz version 10.0.1 (20240210.2158)
 -->
<!-- Title: C:/GitHub/GEU/GEU/Source/UI/InspectorWindow.cpp Pages: 1 -->
<svg width="4230pt" height="220pt"
 viewBox="0.00 0.00 4229.75 220.00" xmlns="http://www.w3.org/2000/svg" xmlns:xlink="http://www.w3.org/1999/xlink">
<g id="graph0" class="graph" transform="scale(1 1) rotate(0) translate(4 216)">
<title>C:/GitHub/GEU/GEU/Source/UI/InspectorWindow.cpp</title>
<!-- Node1 -->
<g id="Node000001" class="node">
<title>Node1</title>
<g id="a_Node000001"><a xlink:title=" ">
<polygon fill="#999999" stroke="#666666" points="3870.88,-212 3730.38,-212 3730.38,-180 3870.88,-180 3870.88,-212"/>
<text text-anchor="start" x="3738.38" y="-198.5" font-family="Helvetica,sans-Serif" font-size="10.00">C:/GitHub/GEU/GEU/Source</text>
<text text-anchor="middle" x="3800.62" y="-186.5" font-family="Helvetica,sans-Serif" font-size="10.00">/UI/InspectorWindow.cpp</text>
</a>
</g>
</g>
<!-- Node2 -->
<g id="Node000002" class="node">
<title>Node2</title>
<g id="a_Node000002"><a xlink:href="../../d3/d07/a00305.html" target="_top" xlink:title=" ">
<polygon fill="#fff0f0" stroke="red" points="1454.88,-144 1404.38,-144 1404.38,-124 1454.88,-124 1454.88,-144"/>
<text text-anchor="middle" x="1429.62" y="-130.5" font-family="Helvetica,sans-Serif" font-size="10.00">stdafx.h</text>
</a>
</g>
</g>
<!-- Node1&#45;&gt;Node2 -->
<g id="edge1_Node000001_Node000002" class="edge">
<title>Node1&#45;&gt;Node2</title>
<g id="a_edge1_Node000001_Node000002"><a xlink:title=" ">
<path fill="none" stroke="#63b8ff" d="M3729.99,-193.21C3368.67,-184.07 1733.78,-142.7 1466.6,-135.94"/>
<polygon fill="#63b8ff" stroke="#63b8ff" points="1466.86,-132.44 1456.77,-135.69 1466.68,-139.44 1466.86,-132.44"/>
</a>
</g>
</g>
<!-- Node46 -->
<g id="Node000046" class="node">
<title>Node46</title>
<g id="a_Node000046"><a xlink:href="../../da/d06/a00383.html" target="_top" xlink:title=" ">
<polygon fill="#fff0f0" stroke="red" points="3598.88,-144 3500.38,-144 3500.38,-124 3598.88,-124 3598.88,-144"/>
<text text-anchor="middle" x="3549.62" y="-130.5" font-family="Helvetica,sans-Serif" font-size="10.00">InspectorWindow.h</text>
</a>
</g>
</g>
<!-- Node1&#45;&gt;Node46 -->
<g id="edge42_Node000001_Node000046" class="edge">
<title>Node1&#45;&gt;Node46</title>
<g id="a_edge42_Node000001_Node000046"><a xlink:title=" ">
<path fill="none" stroke="#63b8ff" d="M3735.99,-179.55C3693.81,-169.47 3639.54,-156.49 3600.46,-147.15"/>
<polygon fill="#63b8ff" stroke="#63b8ff" points="3601.36,-143.77 3590.82,-144.85 3599.74,-150.58 3601.36,-143.77"/>
</a>
</g>
</g>
<!-- Node48 -->
<g id="Node000048" class="node">
<title>Node48</title>
<g id="a_Node000048"><a xlink:href="../../d1/d00/a00407.html" target="_top" xlink:title=" ">
<polygon fill="#fff0f0" stroke="red" points="3734.62,-144 3616.62,-144 3616.62,-124 3734.62,-124 3734.62,-144"/>
<text text-anchor="middle" x="3675.62" y="-130.5" font-family="Helvetica,sans-Serif" font-size="10.00">PCloudClassifyPopup.h</text>
</a>
</g>
</g>
<!-- Node1&#45;&gt;Node48 -->
<g id="edge43_Node000001_Node000048" class="edge">
<title>Node1&#45;&gt;Node48</title>
<g id="a_edge43_Node000001_Node000048"><a xlink:title=" ">
<path fill="none" stroke="#63b8ff" d="M3768.43,-179.55C3748.99,-170.22 3724.39,-158.41 3705.4,-149.29"/>
<polygon fill="#63b8ff" stroke="#63b8ff" points="3707.12,-146.23 3696.59,-145.06 3704.09,-152.55 3707.12,-146.23"/>
</a>
</g>
</g>
<!-- Node78 -->
<g id="Node000078" class="node">
<title>Node78</title>
<g id="a_Node000078"><a xlink:href="../../d5/d07/a00461.html" target="_top" xlink:title=" ">
<polygon fill="white" stroke="#666666" points="3773,-82 3660.25,-82 3660.25,-62 3773,-62 3773,-82"/>
<text text-anchor="middle" x="3716.62" y="-68.5" font-family="Helvetica,sans-Serif" font-size="10.00">Utilities/FileManager.h</text>
</a>
</g>
</g>
<!-- Node1&#45;&gt;Node78 -->
<g id="edge47_Node000001_Node000078" class="edge">
<title>Node1&#45;&gt;Node78</title>
<g id="a_edge47_Node000001_Node000078"><a xlink:title=" ">
<path fill="none" stroke="#63b8ff" d="M3789.99,-179.55C3774.6,-157.21 3746.18,-115.93 3729.59,-91.83"/>
<polygon fill="#63b8ff" stroke="#63b8ff" points="3732.5,-89.88 3723.94,-83.63 3726.73,-93.85 3732.5,-89.88"/>
</a>
</g>
</g>
<!-- Node71 -->
<g id="Node000071" class="node">
<title>Node71</title>
<g id="a_Node000071"><a xlink:href="../../d4/d02/a00101.html" target="_top" xlink:title=" ">
<polygon fill="#fff0f0" stroke="red" points="3794.38,-20 3722.88,-20 3722.88,0 3794.38,0 3794.38,-20"/>
<text text-anchor="middle" x="3758.62" y="-6.5" font-family="Helvetica,sans-Serif" font-size="10.00">PointCloud.h</text>
</a>
</g>
</g>
<!-- Node1&#45;&gt;Node71 -->
<g id="edge49_Node000001_Node000071" class="edge">
<title>Node1&#45;&gt;Node71</title>
<g id="a_edge49_Node000001_Node000071"><a xlink:title=" ">
<path fill="none" stroke="#63b8ff" d="M3800.2,-179.62C3799.12,-153.59 3795.27,-99.46 3781.62,-56 3778.84,-47.12 3774.41,-37.88 3770.19,-30.1"/>
<polygon fill="#63b8ff" stroke="#63b8ff" points="3773.31,-28.5 3765.29,-21.57 3767.24,-31.98 3773.31,-28.5"/>
</a>
</g>
</g>
<!-- Node67 -->
<g id="Node000067" class="node">
<title>Node67</title>
<g id="a_Node000067"><a xlink:href="../../d1/d03/a00452.html" target="_top" xlink:title=" ">
<polygon fill="#fff0f0" stroke="red" points="3968.88,-144 3828.38,-144 3828.38,-124 3968.88,-124 3968.88,-144"/>
<text text-anchor="middle" x="3898.62" y="-130.5" font-family="Helvetica,sans-Serif" font-size="10.00">Utilities/FileDialogRegex.hpp</text>
</a>
</g>
</g>
<!-- Node1&#45;&gt;Node67 -->
<g id="edge46_Node000001_Node000067" class="edge">
<title>Node1&#45;&gt;Node67</title>
<g id="a_edge46_Node000001_Node000067"><a xlink:title=" ">
<path fill="none" stroke="#63b8ff" d="M3825.86,-179.55C3840.61,-170.52 3859.14,-159.17 3873.81,-150.19"/>
<polygon fill="#63b8ff" stroke="#63b8ff" points="3875.27,-153.4 3881.97,-145.2 3871.61,-147.43 3875.27,-153.4"/>
</a>
</g>
</g>
<!-- Node79 -->
<g id="Node000079" class="node">
<title>Node79</title>
<g id="a_Node000079"><a xlink:href="../../df/d00/a00107.html" target="_top" xlink:title=" ">
<polygon fill="#fff0f0" stroke="red" points="4073.88,-144 3987.38,-144 3987.38,-124 4073.88,-124 4073.88,-144"/>
<text text-anchor="middle" x="4030.62" y="-130.5" font-family="Helvetica,sans-Serif" font-size="10.00">Core/Renderer.h</text>
</a>
</g>
</g>
<!-- Node1&#45;&gt;Node79 -->
<g id="edge48_Node000001_Node000079" class="edge">
<title>Node1&#45;&gt;Node79</title>
<g id="a_edge48_Node000001_Node000079"><a xlink:title=" ">
<path fill="none" stroke="#63b8ff" d="M3859.86,-179.55C3898.17,-169.55 3947.38,-156.72 3983.12,-147.39"/>
<polygon fill="#63b8ff" stroke="#63b8ff" points="3983.97,-150.79 3992.76,-144.88 3982.2,-144.02 3983.97,-150.79"/>
</a>
</g>
</g>
<!-- Node92 -->
<g id="Node000092" class="node">
<title>Node92</title>
<g id="a_Node000092"><a xlink:href="../../d6/d00/a00158.html" target="_top" xlink:title=" ">
<polygon fill="#fff0f0" stroke="red" points="4197.25,-144 4092,-144 4092,-124 4197.25,-124 4197.25,-144"/>
<text text-anchor="middle" x="4144.62" y="-130.5" font-family="Helvetica,sans-Serif" font-size="10.00">Core/TriangleMesh.h</text>
</a>
</g>
</g>
<!-- Node1&#45;&gt;Node92 -->
<g id="edge50_Node000001_Node000092" class="edge">
<title>Node1&#45;&gt;Node92</title>
<g id="a_edge50_Node000001_Node000092"><a xlink:title=" ">
<path fill="none" stroke="#63b8ff" d="M3871.07,-182.71C3932.56,-171.99 4021.04,-156.56 4080.56,-146.17"/>
<polygon fill="#63b8ff" stroke="#63b8ff" points="4080.96,-149.66 4090.21,-144.49 4079.75,-142.76 4080.96,-149.66"/>
</a>
</g>
</g>
<!-- Node94 -->
<g id="Node000094" class="node">
<title>Node94</title>
<g id="a_Node000094"><a xlink:href="../../d7/d02/a00152.html" target="_top" xlink:title=" ">
<polygon fill="#fff0f0" stroke="red" points="4221.75,-82 4149.5,-82 4149.5,-62 4221.75,-62 4221.75,-82"/>
<text text-anchor="middle" x="4185.62" y="-68.5" font-family="Helvetica,sans-Serif" font-size="10.00">TextureList.h</text>
</a>
</g>
</g>
<!-- Node1&#45;&gt;Node94 -->
<g id="edge52_Node000001_Node000094" class="edge">
<title>Node1&#45;&gt;Node94</title>
<g id="a_edge52_Node000001_Node000094"><a xlink:title=" ">
<path fill="none" stroke="#63b8ff" d="M3871.08,-191.15C3981.45,-184.38 4184.83,-168.7 4206.62,-144 4219.46,-129.45 4209.86,-107.38 4199.82,-91.71"/>
<polygon fill="#63b8ff" stroke="#63b8ff" points="4202.84,-89.93 4194.25,-83.72 4197.1,-93.93 4202.84,-89.93"/>
</a>
</g>
</g>
<!-- Node3 -->
<g id="Node000003" class="node">
<title>Node3</title>
<g id="a_Node000003"><a xlink:title=" ">
<polygon fill="#e0e0e0" stroke="#999999" points="45.25,-82 0,-82 0,-62 45.25,-62 45.25,-82"/>
<text text-anchor="middle" x="22.62" y="-68.5" font-family="Helvetica,sans-Serif" font-size="10.00">cstdint</text>
</a>
</g>
</g>
<!-- Node2&#45;&gt;Node3 -->
<g id="edge2_Node000002_Node000003" class="edge">
<title>Node2&#45;&gt;Node3</title>
<g id="a_edge2_Node000002_Node000003"><a xlink:title=" ">
<path fill="none" stroke="#63b8ff" d="M1403.92,-132.78C1226.8,-131.2 190.49,-120.61 54.62,-88 53.02,-87.62 51.4,-87.15 49.79,-86.61"/>
<polygon fill="#63b8ff" stroke="#63b8ff" points="51.42,-83.5 40.83,-83 48.79,-89.99 51.42,-83.5"/>
</a>
</g>
</g>
<!-- Node4 -->
<g id="Node000004" class="node">
<title>Node4</title>
<g id="a_Node000004"><a xlink:title=" ">
<polygon fill="#e0e0e0" stroke="#999999" points="107.88,-82 63.38,-82 63.38,-62 107.88,-62 107.88,-82"/>
<text text-anchor="middle" x="85.62" y="-68.5" font-family="Helvetica,sans-Serif" font-size="10.00">cstdlib</text>
</a>
</g>
</g>
<!-- Node2&#45;&gt;Node4 -->
<g id="edge3_Node000002_Node000004" class="edge">
<title>Node2&#45;&gt;Node4</title>
<g id="a_edge3_Node000002_Node000004"><a xlink:title=" ">
<path fill="none" stroke="#63b8ff" d="M1403.98,-132.76C1231.69,-131.06 245.88,-119.97 116.62,-88 115.22,-87.65 113.81,-87.24 112.39,-86.77"/>
<polygon fill="#63b8ff" stroke="#63b8ff" points="113.85,-83.59 103.28,-83 111.18,-90.06 113.85,-83.59"/>
</a>
</g>
</g>
<!-- Node5 -->
<g id="Node000005" class="node">
<title>Node5</title>
<g id="a_Node000005"><a xlink:title=" ">
<polygon fill="#e0e0e0" stroke="#999999" points="183.62,-82 125.62,-82 125.62,-62 183.62,-62 183.62,-82"/>
<text text-anchor="middle" x="154.62" y="-68.5" font-family="Helvetica,sans-Serif" font-size="10.00">execution</text>
</a>
</g>
</g>
<!-- Node2&#45;&gt;Node5 -->
<g id="edge4_Node000002_Node000005" class="edge">
<title>Node2&#45;&gt;Node5</title>
<g id="a_edge4_Node000002_Node000005"><a xlink:title=" ">
<path fill="none" stroke="#63b8ff" d="M1403.99,-133.25C1249.03,-134.55 435.84,-138.86 192.62,-88 190.29,-87.51 187.92,-86.89 185.55,-86.19"/>
<polygon fill="#63b8ff" stroke="#63b8ff" points="186.77,-82.9 176.17,-82.91 184.45,-89.51 186.77,-82.9"/>
</a>
</g>
</g>
<!-- Node6 -->
<g id="Node000006" class="node">
<title>Node6</title>
<g id="a_Node000006"><a xlink:title=" ">
<polygon fill="#e0e0e0" stroke="#999999" points="255.38,-82 201.88,-82 201.88,-62 255.38,-62 255.38,-82"/>
<text text-anchor="middle" x="228.62" y="-68.5" font-family="Helvetica,sans-Serif" font-size="10.00">iostream</text>
</a>
</g>
</g>
<!-- Node2&#45;&gt;Node6 -->
<g id="edge5_Node000002_Node000006" class="edge">
<title>Node2&#45;&gt;Node6</title>
<g id="a_edge5_Node000002_Node000006"><a xlink:title=" ">
<path fill="none" stroke="#63b8ff" d="M1404.03,-133.24C1254.48,-134.47 492.44,-138.16 264.62,-88 262.58,-87.55 260.51,-86.99 258.44,-86.35"/>
<polygon fill="#63b8ff" stroke="#63b8ff" points="259.66,-83.07 249.06,-82.92 257.25,-89.65 259.66,-83.07"/>
</a>
</g>
</g>
<!-- Node7 -->
<g id="Node000007" class="node">
<title>Node7</title>
<g id="a_Node000007"><a xlink:title=" ">
<polygon fill="#e0e0e0" stroke="#999999" points="333.75,-82 273.5,-82 273.5,-62 333.75,-62 333.75,-82"/>
<text text-anchor="middle" x="303.62" y="-68.5" font-family="Helvetica,sans-Serif" font-size="10.00">filesystem</text>
</a>
</g>
</g>
<!-- Node2&#45;&gt;Node7 -->
<g id="edge6_Node000002_Node000007" class="edge">
<title>Node2&#45;&gt;Node7</title>
<g id="a_edge6_Node000002_Node000007"><a xlink:title=" ">
<path fill="none" stroke="#63b8ff" d="M1403.92,-133.07C1260.17,-133.27 554.85,-131.97 342.62,-88 340.14,-87.49 337.61,-86.83 335.09,-86.09"/>
<polygon fill="#63b8ff" stroke="#63b8ff" points="336.32,-82.81 325.73,-82.88 334.05,-89.43 336.32,-82.81"/>
</a>
</g>
</g>
<!-- Node8 -->
<g id="Node000008" class="node">
<title>Node8</title>
<g id="a_Node000008"><a xlink:title=" ">
<polygon fill="#e0e0e0" stroke="#999999" points="395.12,-82 352.12,-82 352.12,-62 395.12,-62 395.12,-82"/>
<text text-anchor="middle" x="373.62" y="-68.5" font-family="Helvetica,sans-Serif" font-size="10.00">format</text>
</a>
</g>
</g>
<!-- Node2&#45;&gt;Node8 -->
<g id="edge7_Node000002_Node000008" class="edge">
<title>Node2&#45;&gt;Node8</title>
<g id="a_edge7_Node000002_Node000008"><a xlink:title=" ">
<path fill="none" stroke="#63b8ff" d="M1403.97,-133.27C1265.08,-134.55 602.16,-137.86 404.62,-88 403.22,-87.65 401.81,-87.23 400.4,-86.75"/>
<polygon fill="#63b8ff" stroke="#63b8ff" points="401.86,-83.57 391.28,-82.97 399.18,-90.04 401.86,-83.57"/>
</a>
</g>
</g>
<!-- Node9 -->
<g id="Node000009" class="node">
<title>Node9</title>
<g id="a_Node000009"><a xlink:title=" ">
<polygon fill="#e0e0e0" stroke="#999999" points="461.75,-82 413.5,-82 413.5,-62 461.75,-62 461.75,-82"/>
<text text-anchor="middle" x="437.62" y="-68.5" font-family="Helvetica,sans-Serif" font-size="10.00">fstream</text>
</a>
</g>
</g>
<!-- Node2&#45;&gt;Node9 -->
<g id="edge8_Node000002_Node000009" class="edge">
<title>Node2&#45;&gt;Node9</title>
<g id="a_edge8_Node000002_Node000009"><a xlink:title=" ">
<path fill="none" stroke="#63b8ff" d="M1403.91,-133.1C1270.37,-133.44 655.13,-132.52 470.62,-88 468.98,-87.6 467.32,-87.12 465.66,-86.59"/>
<polygon fill="#63b8ff" stroke="#63b8ff" points="466.99,-83.35 456.4,-82.93 464.42,-89.86 466.99,-83.35"/>
</a>
</g>
</g>
<!-- Node10 -->
<g id="Node000010" class="node">
<title>Node10</title>
<g id="a_Node000010"><a xlink:title=" ">
<polygon fill="#e0e0e0" stroke="#999999" points="537.25,-82 480,-82 480,-62 537.25,-62 537.25,-82"/>
<text text-anchor="middle" x="508.62" y="-68.5" font-family="Helvetica,sans-Serif" font-size="10.00">functional</text>
</a>
</g>
</g>
<!-- Node2&#45;&gt;Node10 -->
<g id="edge9_Node000002_Node000010" class="edge">
<title>Node2&#45;&gt;Node10</title>
<g id="a_edge9_Node000002_Node000010"><a xlink:title=" ">
<path fill="none" stroke="#63b8ff" d="M1403.88,-132.84C1276.79,-131.9 715.54,-125.64 545.62,-88 543.44,-87.52 541.22,-86.92 539.01,-86.24"/>
<polygon fill="#63b8ff" stroke="#63b8ff" points="540.22,-82.95 529.63,-82.87 537.85,-89.54 540.22,-82.95"/>
</a>
</g>
</g>
<!-- Node11 -->
<g id="Node000011" class="node">
<title>Node11</title>
<g id="a_Node000011"><a xlink:title=" ">
<polygon fill="#e0e0e0" stroke="#999999" points="606.25,-82 555,-82 555,-62 606.25,-62 606.25,-82"/>
<text text-anchor="middle" x="580.62" y="-68.5" font-family="Helvetica,sans-Serif" font-size="10.00">memory</text>
</a>
</g>
</g>
<!-- Node2&#45;&gt;Node11 -->
<g id="edge10_Node000002_Node000011" class="edge">
<title>Node2&#45;&gt;Node11</title>
<g id="a_edge10_Node000002_Node000011"><a xlink:title=" ">
<path fill="none" stroke="#63b8ff" d="M1403.89,-132.82C1282.88,-131.78 769.83,-125.21 614.62,-88 612.85,-87.58 611.06,-87.06 609.27,-86.49"/>
<polygon fill="#63b8ff" stroke="#63b8ff" points="610.56,-83.23 599.97,-82.89 608.03,-89.76 610.56,-83.23"/>
</a>
</g>
</g>
<!-- Node12 -->
<g id="Node000012" class="node">
<title>Node12</title>
<g id="a_Node000012"><a xlink:title=" ">
<polygon fill="#e0e0e0" stroke="#999999" points="675.25,-82 624,-82 624,-62 675.25,-62 675.25,-82"/>
<text text-anchor="middle" x="649.62" y="-68.5" font-family="Helvetica,sans-Serif" font-size="10.00">sstream</text>
</a>
</g>
</g>
<!-- Node2&#45;&gt;Node12 -->
<g id="edge11_Node000002_Node000012" class="edge">
<title>Node2&#45;&gt;Node12</title>
<g id="a_edge11_Node000002_Node000012"><a xlink:title=" ">
<path fill="none" stroke="#63b8ff" d="M1404.23,-132.63C1290.32,-130.82 825.84,-121.45 684.62,-88 682.85,-87.58 681.05,-87.08 679.26,-86.51"/>
<polygon fill="#63b8ff" stroke="#63b8ff" points="680.49,-83.23 669.89,-83.01 678.03,-89.79 680.49,-83.23"/>
</a>
</g>
</g>
<!-- Node13 -->
<g id="Node000013" class="node">
<title>Node13</title>
<g id="a_Node000013"><a xlink:title=" ">
<polygon fill="#e0e0e0" stroke="#999999" points="735.75,-82 693.5,-82 693.5,-62 735.75,-62 735.75,-82"/>
<text text-anchor="middle" x="714.62" y="-68.5" font-family="Helvetica,sans-Serif" font-size="10.00">cstdio</text>
</a>
</g>
</g>
<!-- Node2&#45;&gt;Node13 -->
<g id="edge12_Node000002_Node000013" class="edge">
<title>Node2&#45;&gt;Node13</title>
<g id="a_edge12_Node000002_Node000013"><a xlink:title=" ">
<path fill="none" stroke="#63b8ff" d="M1404.08,-132.67C1295.57,-131.07 872.6,-122.68 744.62,-88 743.44,-87.68 742.26,-87.31 741.07,-86.91"/>
<polygon fill="#63b8ff" stroke="#63b8ff" points="742.63,-83.76 732.05,-83.07 739.89,-90.21 742.63,-83.76"/>
</a>
</g>
</g>
<!-- Node14 -->
<g id="Node000014" class="node">
<title>Node14</title>
<g id="a_Node000014"><a xlink:title=" ">
<polygon fill="#e0e0e0" stroke="#999999" points="797.12,-82 754.12,-82 754.12,-62 797.12,-62 797.12,-82"/>
<text text-anchor="middle" x="775.62" y="-68.5" font-family="Helvetica,sans-Serif" font-size="10.00">thread</text>
</a>
</g>
</g>
<!-- Node2&#45;&gt;Node14 -->
<g id="edge13_Node000002_Node000014" class="edge">
<title>Node2&#45;&gt;Node14</title>
<g id="a_edge13_Node000002_Node000014"><a xlink:title=" ">
<path fill="none" stroke="#63b8ff" d="M1404.02,-132.43C1301.71,-129.98 922.25,-118.93 806.62,-88 805.26,-87.63 803.88,-87.21 802.51,-86.74"/>
<polygon fill="#63b8ff" stroke="#63b8ff" points="804.21,-83.65 793.63,-83.04 801.51,-90.12 804.21,-83.65"/>
</a>
</g>
</g>
<!-- Node15 -->
<g id="Node000015" class="node">
<title>Node15</title>
<g id="a_Node000015"><a xlink:title=" ">
<polygon fill="#e0e0e0" stroke="#999999" points="898,-82 815.25,-82 815.25,-62 898,-62 898,-82"/>
<text text-anchor="middle" x="856.62" y="-68.5" font-family="Helvetica,sans-Serif" font-size="10.00">unordered_map</text>
</a>
</g>
</g>
<!-- Node2&#45;&gt;Node15 -->
<g id="edge14_Node000002_Node000015" class="edge">
<title>Node2&#45;&gt;Node15</title>
<g id="a_edge14_Node000002_Node000015"><a xlink:title=" ">
<path fill="none" stroke="#63b8ff" d="M1404.06,-132.66C1327.77,-131.23 1095.28,-124.02 906.62,-88 902.98,-87.3 899.21,-86.44 895.47,-85.49"/>
<polygon fill="#63b8ff" stroke="#63b8ff" points="896.43,-82.13 885.86,-82.84 894.57,-88.88 896.43,-82.13"/>
</a>
</g>
</g>
<!-- Node16 -->
<g id="Node000016" class="node">
<title>Node16</title>
<g id="a_Node000016"><a xlink:title=" ">
<polygon fill="#e0e0e0" stroke="#999999" points="993.38,-82 915.88,-82 915.88,-62 993.38,-62 993.38,-82"/>
<text text-anchor="middle" x="954.62" y="-68.5" font-family="Helvetica,sans-Serif" font-size="10.00">unordered_set</text>
</a>
</g>
</g>
<!-- Node2&#45;&gt;Node16 -->
<g id="edge15_Node000002_Node000016" class="edge">
<title>Node2&#45;&gt;Node16</title>
<g id="a_edge15_Node000002_Node000016"><a xlink:title=" ">
<path fill="none" stroke="#63b8ff" d="M1404.33,-132.08C1337.86,-129.29 1153,-119.1 1002.62,-88 999.27,-87.31 995.82,-86.47 992.37,-85.56"/>
<polygon fill="#63b8ff" stroke="#63b8ff" points="993.57,-82.26 983,-82.86 991.64,-88.99 993.57,-82.26"/>
</a>
</g>
</g>
<!-- Node17 -->
<g id="Node000017" class="node">
<title>Node17</title>
<g id="a_Node000017"><a xlink:title=" ">
<polygon fill="#e0e0e0" stroke="#999999" points="1053.38,-82 1011.88,-82 1011.88,-62 1053.38,-62 1053.38,-82"/>
<text text-anchor="middle" x="1032.62" y="-68.5" font-family="Helvetica,sans-Serif" font-size="10.00">vector</text>
</a>
</g>
</g>
<!-- Node2&#45;&gt;Node17 -->
<g id="edge16_Node000002_Node000017" class="edge">
<title>Node2&#45;&gt;Node17</title>
<g id="a_edge16_Node000002_Node000017"><a xlink:title=" ">
<path fill="none" stroke="#63b8ff" d="M1404.1,-132.83C1343.5,-131.81 1186.77,-125.43 1062.62,-88 1061.48,-87.66 1060.33,-87.27 1059.18,-86.85"/>
<polygon fill="#63b8ff" stroke="#63b8ff" points="1060.98,-83.82 1050.42,-83.06 1058.2,-90.24 1060.98,-83.82"/>
</a>
</g>
</g>
<!-- Node18 -->
<g id="Node000018" class="node">
<title>Node18</title>
<g id="a_Node000018"><a xlink:title=" ">
<polygon fill="#e0e0e0" stroke="#999999" points="1111.62,-82 1071.62,-82 1071.62,-62 1111.62,-62 1111.62,-82"/>
<text text-anchor="middle" x="1091.62" y="-68.5" font-family="Helvetica,sans-Serif" font-size="10.00">future</text>
</a>
</g>
</g>
<!-- Node2&#45;&gt;Node18 -->
<g id="edge17_Node000002_Node000018" class="edge">
<title>Node2&#45;&gt;Node18</title>
<g id="a_edge17_Node000002_Node000018"><a xlink:title=" ">
<path fill="none" stroke="#63b8ff" d="M1404.15,-132.14C1350.47,-129.71 1222.3,-120.68 1120.62,-88 1119.66,-87.69 1118.68,-87.35 1117.71,-86.98"/>
<polygon fill="#63b8ff" stroke="#63b8ff" points="1119.41,-83.91 1108.85,-83.02 1116.55,-90.3 1119.41,-83.91"/>
</a>
</g>
</g>
<!-- Node19 -->
<g id="Node000019" class="node">
<title>Node19</title>
<g id="a_Node000019"><a xlink:title=" ">
<polygon fill="#e0e0e0" stroke="#999999" points="1169.25,-82 1130,-82 1130,-62 1169.25,-62 1169.25,-82"/>
<text text-anchor="middle" x="1149.62" y="-68.5" font-family="Helvetica,sans-Serif" font-size="10.00">utility</text>
</a>
</g>
</g>
<!-- Node2&#45;&gt;Node19 -->
<g id="edge18_Node000002_Node000019" class="edge">
<title>Node2&#45;&gt;Node19</title>
<g id="a_edge18_Node000002_Node000019"><a xlink:title=" ">
<path fill="none" stroke="#63b8ff" d="M1404.06,-130.96C1357.95,-126.73 1258.27,-115.05 1178.62,-88 1177.82,-87.73 1177.01,-87.43 1176.2,-87.12"/>
<polygon fill="#63b8ff" stroke="#63b8ff" points="1177.75,-83.98 1167.19,-83.07 1174.88,-90.37 1177.75,-83.98"/>
</a>
</g>
</g>
<!-- Node20 -->
<g id="Node000020" class="node">
<title>Node20</title>
<g id="a_Node000020"><a xlink:title=" ">
<polygon fill="#e0e0e0" stroke="#999999" points="1235.75,-82 1187.5,-82 1187.5,-62 1235.75,-62 1235.75,-82"/>
<text text-anchor="middle" x="1211.62" y="-68.5" font-family="Helvetica,sans-Serif" font-size="10.00">random</text>
</a>
</g>
</g>
<!-- Node2&#45;&gt;Node20 -->
<g id="edge19_Node000002_Node000020" class="edge">
<title>Node2&#45;&gt;Node20</title>
<g id="a_edge19_Node000002_Node000020"><a xlink:title=" ">
<path fill="none" stroke="#63b8ff" d="M1404.06,-128.36C1367.95,-121.46 1300.24,-107.21 1244.62,-88 1243.47,-87.6 1242.29,-87.17 1241.11,-86.73"/>
<polygon fill="#63b8ff" stroke="#63b8ff" points="1242.55,-83.53 1231.97,-82.93 1239.86,-90 1242.55,-83.53"/>
</a>
</g>
</g>
<!-- Node21 -->
<g id="Node000021" class="node">
<title>Node21</title>
<g id="a_Node000021"><a xlink:title=" ">
<polygon fill="#e0e0e0" stroke="#999999" points="1293.62,-82 1253.62,-82 1253.62,-62 1293.62,-62 1293.62,-82"/>
<text text-anchor="middle" x="1273.62" y="-68.5" font-family="Helvetica,sans-Serif" font-size="10.00">regex</text>
</a>
</g>
</g>
<!-- Node2&#45;&gt;Node21 -->
<g id="edge20_Node000002_Node000021" class="edge">
<title>Node2&#45;&gt;Node21</title>
<g id="a_edge20_Node000002_Node000021"><a xlink:title=" ">
<path fill="none" stroke="#63b8ff" d="M1403.93,-125.04C1377.99,-116.74 1336.97,-102.88 1302.62,-88 1302.14,-87.79 1301.66,-87.58 1301.17,-87.36"/>
<polygon fill="#63b8ff" stroke="#63b8ff" points="1302.81,-84.27 1292.28,-83.09 1299.78,-90.58 1302.81,-84.27"/>
</a>
</g>
</g>
<!-- Node22 -->
<g id="Node000022" class="node">
<title>Node22</title>
<g id="a_Node000022"><a xlink:title=" ">
<polygon fill="#e0e0e0" stroke="#999999" points="1381.25,-82 1312,-82 1312,-62 1381.25,-62 1381.25,-82"/>
<text text-anchor="middle" x="1346.62" y="-68.5" font-family="Helvetica,sans-Serif" font-size="10.00">WinSock2.h</text>
</a>
</g>
</g>
<!-- Node2&#45;&gt;Node22 -->
<g id="edge21_Node000002_Node000022" class="edge">
<title>Node2&#45;&gt;Node22</title>
<g id="a_edge21_Node000002_Node000022"><a xlink:title=" ">
<path fill="none" stroke="#63b8ff" d="M1416.66,-123.62C1403.87,-114.38 1384.07,-100.07 1368.78,-89.01"/>
<polygon fill="#63b8ff" stroke="#63b8ff" points="1370.88,-86.22 1360.73,-83.2 1366.78,-91.89 1370.88,-86.22"/>
</a>
</g>
</g>
<!-- Node23 -->
<g id="Node000023" class="node">
<title>Node23</title>
<g id="a_Node000023"><a xlink:title=" ">
<polygon fill="#e0e0e0" stroke="#999999" points="1460.12,-82 1399.12,-82 1399.12,-62 1460.12,-62 1460.12,-82"/>
<text text-anchor="middle" x="1429.62" y="-68.5" font-family="Helvetica,sans-Serif" font-size="10.00">windows.h</text>
</a>
</g>
</g>
<!-- Node2&#45;&gt;Node23 -->
<g id="edge22_Node000002_Node000023" class="edge">
<title>Node2&#45;&gt;Node23</title>
<g id="a_edge22_Node000002_Node000023"><a xlink:title=" ">
<path fill="none" stroke="#63b8ff" d="M1429.62,-123.62C1429.62,-115.56 1429.62,-103.65 1429.62,-93.41"/>
<polygon fill="#63b8ff" stroke="#63b8ff" points="1433.13,-93.63 1429.63,-83.63 1426.13,-93.63 1433.13,-93.63"/>
</a>
</g>
</g>
<!-- Node24 -->
<g id="Node000024" class="node">
<title>Node24</title>
<g id="a_Node000024"><a xlink:href="../../de/d01/a00197.html" target="_top" xlink:title=" ">
<polygon fill="white" stroke="#666666" points="1562.75,-82 1478.5,-82 1478.5,-62 1562.75,-62 1562.75,-82"/>
<text text-anchor="middle" x="1520.62" y="-68.5" font-family="Helvetica,sans-Serif" font-size="10.00">locale_strings.h</text>
</a>
</g>
</g>
<!-- Node2&#45;&gt;Node24 -->
<g id="edge23_Node000002_Node000024" class="edge">
<title>Node2&#45;&gt;Node24</title>
<g id="a_edge23_Node000002_Node000024"><a xlink:title=" ">
<path fill="none" stroke="#63b8ff" d="M1443.84,-123.62C1458.13,-114.2 1480.41,-99.52 1497.29,-88.39"/>
<polygon fill="#63b8ff" stroke="#63b8ff" points="1498.82,-91.57 1505.24,-83.14 1494.97,-85.72 1498.82,-91.57"/>
</a>
</g>
</g>
<!-- Node25 -->
<g id="Node000025" class="node">
<title>Node25</title>
<g id="a_Node000025"><a xlink:title=" ">
<polygon fill="#e0e0e0" stroke="#999999" points="1640.38,-82 1580.88,-82 1580.88,-62 1640.38,-62 1640.38,-82"/>
<text text-anchor="middle" x="1610.62" y="-68.5" font-family="Helvetica,sans-Serif" font-size="10.00">GL/glew.h</text>
</a>
</g>
</g>
<!-- Node2&#45;&gt;Node25 -->
<g id="edge24_Node000002_Node000025" class="edge">
<title>Node2&#45;&gt;Node25</title>
<g id="a_edge24_Node000002_Node000025"><a xlink:title=" ">
<path fill="none" stroke="#63b8ff" d="M1455.17,-125.41C1483.72,-116.81 1531.23,-102.15 1571.62,-88 1573.17,-87.46 1574.74,-86.9 1576.32,-86.33"/>
<polygon fill="#63b8ff" stroke="#63b8ff" points="1577.21,-89.73 1585.37,-82.96 1574.77,-83.17 1577.21,-89.73"/>
</a>
</g>
</g>
<!-- Node26 -->
<g id="Node000026" class="node">
<title>Node26</title>
<g id="a_Node000026"><a xlink:title=" ">
<polygon fill="#e0e0e0" stroke="#999999" points="1736.38,-82 1658.88,-82 1658.88,-62 1736.38,-62 1736.38,-82"/>
<text text-anchor="middle" x="1697.62" y="-68.5" font-family="Helvetica,sans-Serif" font-size="10.00">GLFW/glfw3.h</text>
</a>
</g>
</g>
<!-- Node2&#45;&gt;Node26 -->
<g id="edge25_Node000002_Node000026" class="edge">
<title>Node2&#45;&gt;Node26</title>
<g id="a_edge25_Node000002_Node000026"><a xlink:title=" ">
<path fill="none" stroke="#63b8ff" d="M1455.22,-128.63C1496.45,-121.4 1579.97,-105.96 1649.62,-88 1652.4,-87.28 1655.25,-86.51 1658.11,-85.69"/>
<polygon fill="#63b8ff" stroke="#63b8ff" points="1659.04,-89.07 1667.63,-82.87 1657.05,-82.36 1659.04,-89.07"/>
</a>
</g>
</g>
<!-- Node27 -->
<g id="Node000027" class="node">
<title>Node27</title>
<g id="a_Node000027"><a xlink:title=" ">
<polygon fill="#e0e0e0" stroke="#999999" points="1823.25,-82 1754,-82 1754,-62 1823.25,-62 1823.25,-82"/>
<text text-anchor="middle" x="1788.62" y="-68.5" font-family="Helvetica,sans-Serif" font-size="10.00">glm/glm.hpp</text>
</a>
</g>
</g>
<!-- Node2&#45;&gt;Node27 -->
<g id="edge26_Node000002_Node000027" class="edge">
<title>Node2&#45;&gt;Node27</title>
<g id="a_edge26_Node000002_Node000027"><a xlink:title=" ">
<path fill="none" stroke="#63b8ff" d="M1455.34,-131.04C1509.6,-126.54 1639.55,-113.8 1745.62,-88 1748.22,-87.37 1750.87,-86.64 1753.53,-85.86"/>
<polygon fill="#63b8ff" stroke="#63b8ff" points="1754.42,-89.25 1762.87,-82.86 1752.28,-82.59 1754.42,-89.25"/>
</a>
</g>
</g>
<!-- Node28 -->
<g id="Node000028" class="node">
<title>Node28</title>
<g id="a_Node000028"><a xlink:title=" ">
<polygon fill="#e0e0e0" stroke="#999999" points="1954,-82 1841.25,-82 1841.25,-62 1954,-62 1954,-82"/>
<text text-anchor="middle" x="1897.62" y="-68.5" font-family="Helvetica,sans-Serif" font-size="10.00">glm/gtc/constants.hpp</text>
</a>
</g>
</g>
<!-- Node2&#45;&gt;Node28 -->
<g id="edge27_Node000002_Node000028" class="edge">
<title>Node2&#45;&gt;Node28</title>
<g id="a_edge27_Node000002_Node000028"><a xlink:title=" ">
<path fill="none" stroke="#63b8ff" d="M1455.23,-131.17C1519.2,-126.39 1691.05,-112.16 1832.62,-88 1837.91,-87.1 1843.41,-86.03 1848.88,-84.89"/>
<polygon fill="#63b8ff" stroke="#63b8ff" points="1849.46,-88.34 1858.49,-82.79 1847.97,-81.51 1849.46,-88.34"/>
</a>
</g>
</g>
<!-- Node29 -->
<g id="Node000029" class="node">
<title>Node29</title>
<g id="a_Node000029"><a xlink:title=" ">
<polygon fill="#e0e0e0" stroke="#999999" points="2115,-82 1972.25,-82 1972.25,-62 2115,-62 2115,-82"/>
<text text-anchor="middle" x="2043.62" y="-68.5" font-family="Helvetica,sans-Serif" font-size="10.00">glm/gtc/matrix_transform.hpp</text>
</a>
</g>
</g>
<!-- Node2&#45;&gt;Node29 -->
<g id="edge28_Node000002_Node000029" class="edge">
<title>Node2&#45;&gt;Node29</title>
<g id="a_edge28_Node000002_Node000029"><a xlink:title=" ">
<path fill="none" stroke="#63b8ff" d="M1455.24,-131.74C1532.27,-127.75 1768.43,-114.11 1962.62,-88 1970.15,-86.99 1978.03,-85.75 1985.81,-84.43"/>
<polygon fill="#63b8ff" stroke="#63b8ff" points="1986.34,-87.89 1995.57,-82.7 1985.12,-80.99 1986.34,-87.89"/>
</a>
</g>
</g>
<!-- Node30 -->
<g id="Node000030" class="node">
<title>Node30</title>
<g id="a_Node000030"><a xlink:title=" ">
<polygon fill="#e0e0e0" stroke="#999999" points="2272.5,-82 2132.75,-82 2132.75,-62 2272.5,-62 2272.5,-82"/>
<text text-anchor="middle" x="2202.62" y="-68.5" font-family="Helvetica,sans-Serif" font-size="10.00">glm/ext/vector_relational.hpp</text>
</a>
</g>
</g>
<!-- Node2&#45;&gt;Node30 -->
<g id="edge29_Node000002_Node000030" class="edge">
<title>Node2&#45;&gt;Node30</title>
<g id="a_edge29_Node000002_Node000030"><a xlink:title=" ">
<path fill="none" stroke="#63b8ff" d="M1455.26,-132.47C1546.51,-130.36 1864,-120.94 2123.62,-88 2131.16,-87.04 2139.06,-85.82 2146.84,-84.48"/>
<polygon fill="#63b8ff" stroke="#63b8ff" points="2147.36,-87.94 2156.58,-82.72 2146.12,-81.05 2147.36,-87.94"/>
</a>
</g>
</g>
<!-- Node31 -->
<g id="Node000031" class="node">
<title>Node31</title>
<g id="a_Node000031"><a xlink:title=" ">
<polygon fill="#e0e0e0" stroke="#999999" points="2391,-82 2290.25,-82 2290.25,-62 2391,-62 2391,-82"/>
<text text-anchor="middle" x="2340.62" y="-68.5" font-family="Helvetica,sans-Serif" font-size="10.00">glm/gtc/epsilon.hpp</text>
</a>
</g>
</g>
<!-- Node2&#45;&gt;Node31 -->
<g id="edge30_Node000002_Node000031" class="edge">
<title>Node2&#45;&gt;Node31</title>
<g id="a_edge30_Node000002_Node000031"><a xlink:title=" ">
<path fill="none" stroke="#63b8ff" d="M1455.17,-132.33C1578.83,-128.97 2116.15,-113.16 2281.62,-88 2286.64,-87.24 2291.85,-86.23 2297,-85.11"/>
<polygon fill="#63b8ff" stroke="#63b8ff" points="2297.69,-88.54 2306.62,-82.83 2296.08,-81.73 2297.69,-88.54"/>
</a>
</g>
</g>
<!-- Node32 -->
<g id="Node000032" class="node">
<title>Node32</title>
<g id="a_Node000032"><a xlink:title=" ">
<polygon fill="#e0e0e0" stroke="#999999" points="2534,-82 2409.25,-82 2409.25,-62 2534,-62 2534,-82"/>
<text text-anchor="middle" x="2471.62" y="-68.5" font-family="Helvetica,sans-Serif" font-size="10.00">glm/gtx/euler_angles.hpp</text>
</a>
</g>
</g>
<!-- Node2&#45;&gt;Node32 -->
<g id="edge31_Node000002_Node000032" class="edge">
<title>Node2&#45;&gt;Node32</title>
<g id="a_edge31_Node000002_Node000032"><a xlink:title=" ">
<path fill="none" stroke="#63b8ff" d="M1455.23,-133.3C1567.43,-134.31 2026.66,-135.2 2399.62,-88 2406.44,-87.14 2413.58,-85.97 2420.59,-84.68"/>
<polygon fill="#63b8ff" stroke="#63b8ff" points="2421.2,-88.12 2430.34,-82.76 2419.86,-81.25 2421.2,-88.12"/>
</a>
</g>
</g>
<!-- Node33 -->
<g id="Node000033" class="node">
<title>Node33</title>
<g id="a_Node000033"><a xlink:title=" ">
<polygon fill="#e0e0e0" stroke="#999999" points="2599.38,-82 2551.88,-82 2551.88,-62 2599.38,-62 2599.38,-82"/>
<text text-anchor="middle" x="2575.62" y="-68.5" font-family="Helvetica,sans-Serif" font-size="10.00">imgui.h</text>
</a>
</g>
</g>
<!-- Node2&#45;&gt;Node33 -->
<g id="edge32_Node000002_Node000033" class="edge">
<title>Node2&#45;&gt;Node33</title>
<g id="a_edge32_Node000002_Node000033"><a xlink:title=" ">
<path fill="none" stroke="#63b8ff" d="M1455.26,-132.55C1611.62,-129.76 2433.74,-113.9 2542.62,-88 2544.27,-87.61 2545.93,-87.13 2547.59,-86.6"/>
<polygon fill="#63b8ff" stroke="#63b8ff" points="2548.83,-89.87 2556.85,-82.96 2546.27,-83.36 2548.83,-89.87"/>
</a>
</g>
</g>
<!-- Node34 -->
<g id="Node000034" class="node">
<title>Node34</title>
<g id="a_Node000034"><a xlink:title=" ">
<polygon fill="#e0e0e0" stroke="#999999" points="2725.38,-88 2617.88,-88 2617.88,-56 2725.38,-56 2725.38,-88"/>
<text text-anchor="start" x="2625.88" y="-74.5" font-family="Helvetica,sans-Serif" font-size="10.00">backends/imgui_impl</text>
<text text-anchor="middle" x="2671.62" y="-62.5" font-family="Helvetica,sans-Serif" font-size="10.00">_glfw.h</text>
</a>
</g>
</g>
<!-- Node2&#45;&gt;Node34 -->
<g id="edge33_Node000002_Node000034" class="edge">
<title>Node2&#45;&gt;Node34</title>
<g id="a_edge33_Node000002_Node000034"><a xlink:title=" ">
<path fill="none" stroke="#63b8ff" d="M1454.94,-132.71C1602.28,-130.91 2351.31,-120.36 2606.06,-88.11"/>
<polygon fill="#63b8ff" stroke="#63b8ff" points="2606.5,-91.58 2615.96,-86.81 2605.58,-84.64 2606.5,-91.58"/>
</a>
</g>
</g>
<!-- Node35 -->
<g id="Node000035" class="node">
<title>Node35</title>
<g id="a_Node000035"><a xlink:title=" ">
<polygon fill="#e0e0e0" stroke="#999999" points="2851.38,-88 2743.88,-88 2743.88,-56 2851.38,-56 2851.38,-88"/>
<text text-anchor="start" x="2751.88" y="-74.5" font-family="Helvetica,sans-Serif" font-size="10.00">backends/imgui_impl</text>
<text text-anchor="middle" x="2797.62" y="-62.5" font-family="Helvetica,sans-Serif" font-size="10.00">_opengl3.h</text>
</a>
</g>
</g>
<!-- Node2&#45;&gt;Node35 -->
<g id="edge34_Node000002_Node000035" class="edge">
<title>Node2&#45;&gt;Node35</title>
<g id="a_edge34_Node000002_Node000035"><a xlink:title=" ">
<path fill="none" stroke="#63b8ff" d="M1455.27,-132.81C1612.72,-131.56 2450.79,-123.37 2732.08,-88.1"/>
<polygon fill="#63b8ff" stroke="#63b8ff" points="2732.49,-91.58 2741.96,-86.82 2731.59,-84.64 2732.49,-91.58"/>
</a>
</g>
</g>
<!-- Node36 -->
<g id="Node000036" class="node">
<title>Node36</title>
<g id="a_Node000036"><a xlink:title=" ">
<polygon fill="#e0e0e0" stroke="#999999" points="2988,-82 2869.25,-82 2869.25,-62 2988,-62 2988,-82"/>
<text text-anchor="middle" x="2928.62" y="-68.5" font-family="Helvetica,sans-Serif" font-size="10.00">misc/cpp/imgui_stdlib.h</text>
</a>
</g>
</g>
<!-- Node2&#45;&gt;Node36 -->
<g id="edge35_Node000002_Node000036" class="edge">
<title>Node2&#45;&gt;Node36</title>
<g id="a_edge35_Node000002_Node000036"><a xlink:title=" ">
<path fill="none" stroke="#63b8ff" d="M1455.24,-132.84C1623.58,-131.73 2573.29,-123.89 2860.62,-88 2867.16,-87.18 2873.99,-86.04 2880.69,-84.74"/>
<polygon fill="#63b8ff" stroke="#63b8ff" points="2881.22,-88.2 2890.3,-82.74 2879.8,-81.35 2881.22,-88.2"/>
</a>
</g>
</g>
<!-- Node37 -->
<g id="Node000037" class="node">
<title>Node37</title>
<g id="a_Node000037"><a xlink:title=" ">
<polygon fill="#e0e0e0" stroke="#999999" points="3090.75,-82 3006.5,-82 3006.5,-62 3090.75,-62 3090.75,-82"/>
<text text-anchor="middle" x="3048.62" y="-68.5" font-family="Helvetica,sans-Serif" font-size="10.00">imgui_internal.h</text>
</a>
</g>
</g>
<!-- Node2&#45;&gt;Node37 -->
<g id="edge36_Node000002_Node000037" class="edge">
<title>Node2&#45;&gt;Node37</title>
<g id="a_edge36_Node000002_Node000037"><a xlink:title=" ">
<path fill="none" stroke="#63b8ff" d="M1455.1,-133.15C1632.18,-134.03 2681.84,-137.11 2996.62,-88 3000.94,-87.33 3005.4,-86.4 3009.82,-85.34"/>
<polygon fill="#63b8ff" stroke="#63b8ff" points="3010.35,-88.82 3019.12,-82.88 3008.55,-82.06 3010.35,-88.82"/>
</a>
</g>
</g>
<!-- Node38 -->
<g id="Node000038" class="node">
<title>Node38</title>
<g id="a_Node000038"><a xlink:title=" ">
<polygon fill="#e0e0e0" stroke="#999999" points="3194.12,-82 3109.12,-82 3109.12,-62 3194.12,-62 3194.12,-82"/>
<text text-anchor="middle" x="3151.62" y="-68.5" font-family="Helvetica,sans-Serif" font-size="10.00">ImGuiNotify.hpp</text>
</a>
</g>
</g>
<!-- Node2&#45;&gt;Node38 -->
<g id="edge37_Node000002_Node000038" class="edge">
<title>Node2&#45;&gt;Node38</title>
<g id="a_edge37_Node000002_Node000038"><a xlink:title=" ">
<path fill="none" stroke="#63b8ff" d="M1455.2,-132.7C1652.6,-130.36 2930.44,-114.24 3099.62,-88 3103.94,-87.33 3108.4,-86.41 3112.82,-85.35"/>
<polygon fill="#63b8ff" stroke="#63b8ff" points="3113.35,-88.83 3122.12,-82.89 3111.55,-82.06 3113.35,-88.83"/>
</a>
</g>
</g>
<!-- Node39 -->
<g id="Node000039" class="node">
<title>Node39</title>
<g id="a_Node000039"><a xlink:title=" ">
<polygon fill="#e0e0e0" stroke="#999999" points="3347.25,-82 3212,-82 3212,-62 3347.25,-62 3347.25,-82"/>
<text text-anchor="middle" x="3279.62" y="-68.5" font-family="Helvetica,sans-Serif" font-size="10.00">addons/imguidatechooser.h</text>
</a>
</g>
</g>
<!-- Node2&#45;&gt;Node39 -->
<g id="edge38_Node000002_Node000039" class="edge">
<title>Node2&#45;&gt;Node39</title>
<g id="a_edge38_Node000002_Node000039"><a xlink:title=" ">
<path fill="none" stroke="#63b8ff" d="M1455.28,-132.94C1645.76,-132.39 2842.4,-127.38 3202.62,-88 3210.45,-87.14 3218.66,-85.91 3226.69,-84.51"/>
<polygon fill="#63b8ff" stroke="#63b8ff" points="3227.17,-87.99 3236.37,-82.73 3225.9,-81.1 3227.17,-87.99"/>
</a>
</g>
</g>
<!-- Node40 -->
<g id="Node000040" class="node">
<title>Node40</title>
<g id="a_Node000040"><a xlink:title=" ">
<polygon fill="#e0e0e0" stroke="#999999" points="3449.75,-82 3365.5,-82 3365.5,-62 3449.75,-62 3449.75,-82"/>
<text text-anchor="middle" x="3407.62" y="-68.5" font-family="Helvetica,sans-Serif" font-size="10.00">spdlog/spdlog.h</text>
</a>
</g>
</g>
<!-- Node2&#45;&gt;Node40 -->
<g id="edge39_Node000002_Node000040" class="edge">
<title>Node2&#45;&gt;Node40</title>
<g id="a_edge39_Node000002_Node000040"><a xlink:title=" ">
<path fill="none" stroke="#63b8ff" d="M1455.29,-132.81C1669.7,-131.16 3160.31,-118.62 3356.62,-88 3360.79,-87.35 3365.09,-86.45 3369.35,-85.42"/>
<polygon fill="#63b8ff" stroke="#63b8ff" points="3370.2,-88.82 3378.94,-82.84 3368.37,-82.06 3370.2,-88.82"/>
</a>
</g>
</g>
<!-- Node41 -->
<g id="Node000041" class="node">
<title>Node41</title>
<g id="a_Node000041"><a xlink:title=" ">
<polygon fill="#e0e0e0" stroke="#999999" points="3565.12,-88 3468.12,-88 3468.12,-56 3565.12,-56 3565.12,-88"/>
<text text-anchor="start" x="3476.12" y="-74.5" font-family="Helvetica,sans-Serif" font-size="10.00">spdlog/sinks/basic</text>
<text text-anchor="middle" x="3516.62" y="-62.5" font-family="Helvetica,sans-Serif" font-size="10.00">_file_sink.h</text>
</a>
</g>
</g>
<!-- Node2&#45;&gt;Node41 -->
<g id="edge40_Node000002_Node000041" class="edge">
<title>Node2&#45;&gt;Node41</title>
<g id="a_edge40_Node000002_Node000041"><a xlink:title=" ">
<path fill="none" stroke="#63b8ff" d="M1455.23,-132.79C1672.27,-130.97 3202.07,-117.2 3456.59,-87.9"/>
<polygon fill="#63b8ff" stroke="#63b8ff" points="3456.75,-91.4 3466.24,-86.68 3455.88,-84.46 3456.75,-91.4"/>
</a>
</g>
</g>
<!-- Node42 -->
<g id="Node000042" class="node">
<title>Node42</title>
<g id="a_Node000042"><a xlink:title=" ">
<polygon fill="#e0e0e0" stroke="#999999" points="3642.38,-82 3582.88,-82 3582.88,-62 3642.38,-62 3642.38,-82"/>
<text text-anchor="middle" x="3612.62" y="-68.5" font-family="Helvetica,sans-Serif" font-size="10.00">fmt/core.h</text>
</a>
</g>
</g>
<!-- Node2&#45;&gt;Node42 -->
<g id="edge41_Node000002_Node000042" class="edge">
<title>Node2&#45;&gt;Node42</title>
<g id="a_edge41_Node000002_Node000042"><a xlink:title=" ">
<path fill="none" stroke="#63b8ff" d="M1455.26,-133C1682.95,-132.91 3355.81,-130.81 3573.62,-88 3576.11,-87.51 3578.65,-86.88 3581.17,-86.14"/>
<polygon fill="#63b8ff" stroke="#63b8ff" points="3582.2,-89.49 3590.54,-82.95 3579.94,-82.86 3582.2,-89.49"/>
</a>
</g>
</g>
<!-- Node48&#45;&gt;Node78 -->
<g id="edge44_Node000048_Node000078" class="edge">
<title>Node48&#45;&gt;Node78</title>
<g id="a_edge44_Node000048_Node000078"><a xlink:title=" ">
<path fill="none" stroke="#63b8ff" d="M3682.03,-123.62C3687.9,-115.03 3696.76,-102.07 3704.05,-91.41"/>
<polygon fill="#63b8ff" stroke="#63b8ff" points="3706.79,-93.59 3709.54,-83.36 3701.01,-89.64 3706.79,-93.59"/>
</a>
</g>
</g>
<!-- Node78&#45;&gt;Node71 -->
<g id="edge45_Node000078_Node000071" class="edge">
<title>Node78&#45;&gt;Node71</title>
<g id="a_edge45_Node000078_Node000071"><a xlink:title=" ">
<path fill="none" stroke="#63b8ff" d="M3723.19,-61.62C3729.2,-53.03 3738.28,-40.07 3745.74,-29.41"/>
<polygon fill="#63b8ff" stroke="#63b8ff" points="3748.51,-31.55 3751.38,-21.35 3742.78,-27.54 3748.51,-31.55"/>
</a>
</g>
</g>
<!-- Node92&#45;&gt;Node94 -->
<g id="edge51_Node000092_Node000094" class="edge">
<title>Node92&#45;&gt;Node94</title>
<g id="a_edge51_Node000092_Node000094"><a xlink:title=" ">
<path fill="none" stroke="#63b8ff" d="M4151.03,-123.62C4156.9,-115.03 4165.76,-102.07 4173.05,-91.41"/>
<polygon fill="#63b8ff" stroke="#63b8ff" points="4175.79,-93.59 4178.54,-83.36 4170.01,-89.64 4175.79,-93.59"/>
</a>
</g>
</g>
</g>
</svg>
