<?xml version="1.0" encoding="UTF-8" standalone="no"?>
<!DOCTYPE svg PUBLIC "-//W3C//DTD SVG 1.1//EN"
 "http://www.w3.org/Graphics/SVG/1.1/DTD/svg11.dtd">
<!-- Generated by graphviz version 10.0.1 (20240210.2158)
 -->
<!-- Title: json::jobject::proxy::operator= Pages: 1 -->
<svg width="368pt" height="78pt"
 viewBox="0.00 0.00 368.00 78.00" xmlns="http://www.w3.org/2000/svg" xmlns:xlink="http://www.w3.org/1999/xlink">
<g id="graph0" class="graph" transform="scale(1 1) rotate(0) translate(4 74)">
<title>json::jobject::proxy::operator=</title>
<!-- Node1 -->
<g id="Node000001" class="node">
<title>Node1</title>
<g id="a_Node000001"><a xlink:title="Assigns an floating&#45;point integer">
<polygon fill="#999999" stroke="#666666" points="98.5,-48 0,-48 0,-16 98.5,-16 98.5,-48"/>
<text text-anchor="start" x="8" y="-34.5" font-family="Helvetica,sans-Serif" font-size="10.00">json::jobject::proxy</text>
<text text-anchor="middle" x="49.25" y="-22.5" font-family="Helvetica,sans-Serif" font-size="10.00">::operator=</text>
</a>
</g>
</g>
<!-- Node2 -->
<g id="Node000002" class="node">
<title>Node2</title>
<g id="a_Node000002"><a xlink:href="../../de/d00/classjson_1_1jobject_1_1proxy.html#a6a5641a5fae3480531d41ac19d42cc29" target="_top" xlink:title="Sets a number value in the parent object.">
<polygon fill="white" stroke="#666666" points="233,-48 134.5,-48 134.5,-16 233,-16 233,-48"/>
<text text-anchor="start" x="142.5" y="-34.5" font-family="Helvetica,sans-Serif" font-size="10.00">json::jobject::proxy</text>
<text text-anchor="middle" x="183.75" y="-22.5" font-family="Helvetica,sans-Serif" font-size="10.00">::set_number</text>
</a>
</g>
</g>
<!-- Node1&#45;&gt;Node2 -->
<g id="edge1_Node000001_Node000002" class="edge">
<title>Node1&#45;&gt;Node2</title>
<g id="a_edge1_Node000001_Node000002"><a xlink:title=" ">
<path fill="none" stroke="#63b8ff" d="M98.84,-32C106.67,-32 114.85,-32 122.91,-32"/>
<polygon fill="#63b8ff" stroke="#63b8ff" points="122.66,-35.5 132.66,-32 122.66,-28.5 122.66,-35.5"/>
</a>
</g>
</g>
<!-- Node3 -->
<g id="Node000003" class="node">
<title>Node3</title>
<g id="a_Node000003"><a xlink:href="../../d5/d07/namespacejson_1_1parsing.html#a948ba79c724a7f8ee43498aad8ce1a9c" target="_top" xlink:title="Converts a number to a string.">
<polygon fill="white" stroke="#666666" points="360,-70 269,-70 269,-38 360,-38 360,-70"/>
<text text-anchor="start" x="277" y="-56.5" font-family="Helvetica,sans-Serif" font-size="10.00">json::parsing::get</text>
<text text-anchor="middle" x="314.5" y="-44.5" font-family="Helvetica,sans-Serif" font-size="10.00">_number_string</text>
</a>
</g>
</g>
<!-- Node2&#45;&gt;Node3 -->
<g id="edge2_Node000002_Node000003" class="edge">
<title>Node2&#45;&gt;Node3</title>
<g id="a_edge2_Node000002_Node000003"><a xlink:title=" ">
<path fill="none" stroke="#63b8ff" d="M233.42,-40.32C241.27,-41.66 249.44,-43.05 257.44,-44.42"/>
<polygon fill="#63b8ff" stroke="#63b8ff" points="256.64,-47.83 267.08,-46.07 257.81,-40.93 256.64,-47.83"/>
</a>
</g>
</g>
<!-- Node4 -->
<g id="Node000004" class="node">
<title>Node4</title>
<g id="a_Node000004"><a xlink:href="../../d8/d07/classjson_1_1jobject.html#a0f46648e98ac477819d189c2a150ce1e" target="_top" xlink:title="Sets the value assocaited with the key.">
<polygon fill="white" stroke="#666666" points="358.5,-20 270.5,-20 270.5,0 358.5,0 358.5,-20"/>
<text text-anchor="middle" x="314.5" y="-6.5" font-family="Helvetica,sans-Serif" font-size="10.00">json::jobject::set</text>
</a>
</g>
</g>
<!-- Node2&#45;&gt;Node4 -->
<g id="edge3_Node000002_Node000004" class="edge">
<title>Node2&#45;&gt;Node4</title>
<g id="a_edge3_Node000002_Node000004"><a xlink:title=" ">
<path fill="none" stroke="#63b8ff" d="M233.42,-23.68C241.75,-22.26 250.44,-20.77 258.91,-19.33"/>
<polygon fill="#63b8ff" stroke="#63b8ff" points="259.49,-22.78 268.76,-17.65 258.31,-15.88 259.49,-22.78"/>
</a>
</g>
</g>
</g>
</svg>
