<?xml version="1.0" encoding="UTF-8" standalone="no"?>
<!DOCTYPE svg PUBLIC "-//W3C//DTD SVG 1.1//EN"
 "http://www.w3.org/Graphics/SVG/1.1/DTD/svg11.dtd">
<!-- Generated by graphviz version 10.0.1 (20240210.2158)
 -->
<!-- Title: GEU::Scene::load Pages: 1 -->
<svg width="297pt" height="78pt"
 viewBox="0.00 0.00 296.50 78.00" xmlns="http://www.w3.org/2000/svg" xmlns:xlink="http://www.w3.org/1999/xlink">
<g id="graph0" class="graph" transform="scale(1 1) rotate(0) translate(4 74)">
<title>GEU::Scene::load</title>
<!-- Node1 -->
<g id="Node000001" class="node">
<title>Node1</title>
<g id="a_Node000001"><a xlink:title=" ">
<polygon fill="#999999" stroke="#666666" points="94.75,-48 0,-48 0,-28 94.75,-28 94.75,-48"/>
<text text-anchor="middle" x="47.38" y="-34.5" font-family="Helvetica,sans-Serif" font-size="10.00">GEU::Scene::load</text>
</a>
</g>
</g>
<!-- Node2 -->
<g id="Node000002" class="node">
<title>Node2</title>
<g id="a_Node000002"><a xlink:href="../../db/d06/a01509.html#add958587322ada7fe41aa36de8f327f4" target="_top" xlink:title=" ">
<polygon fill="white" stroke="#666666" points="288.5,-70 130.75,-70 130.75,-50 288.5,-50 288.5,-70"/>
<text text-anchor="middle" x="209.62" y="-56.5" font-family="Helvetica,sans-Serif" font-size="10.00">GEU::PointCloud::loadBinaryFile</text>
</a>
</g>
</g>
<!-- Node1&#45;&gt;Node2 -->
<g id="edge1_Node000001_Node000002" class="edge">
<title>Node1&#45;&gt;Node2</title>
<g id="a_edge1_Node000001_Node000002"><a xlink:title=" ">
<path fill="none" stroke="#63b8ff" d="M95.16,-44.42C103.34,-45.55 112.09,-46.75 120.96,-47.97"/>
<polygon fill="#63b8ff" stroke="#63b8ff" points="120.36,-51.41 130.74,-49.31 121.31,-44.48 120.36,-51.41"/>
</a>
</g>
</g>
<!-- Node3 -->
<g id="Node000003" class="node">
<title>Node3</title>
<g id="a_Node000003"><a xlink:href="../../d9/d02/a01569.html#ac6657aea63eb8b47265b06d88dcefb4a" target="_top" xlink:title=" ">
<polygon fill="white" stroke="#666666" points="263,-32 156.25,-32 156.25,0 263,0 263,-32"/>
<text text-anchor="start" x="164.25" y="-18.5" font-family="Helvetica,sans-Serif" font-size="10.00">GEU::TriangleMesh::</text>
<text text-anchor="middle" x="209.62" y="-6.5" font-family="Helvetica,sans-Serif" font-size="10.00">loadBinaryFile</text>
</a>
</g>
</g>
<!-- Node1&#45;&gt;Node3 -->
<g id="edge2_Node000001_Node000003" class="edge">
<title>Node1&#45;&gt;Node3</title>
<g id="a_edge2_Node000001_Node000003"><a xlink:title=" ">
<path fill="none" stroke="#63b8ff" d="M95.16,-31.58C110.62,-29.45 128.1,-27.06 144.62,-24.79"/>
<polygon fill="#63b8ff" stroke="#63b8ff" points="144.94,-28.28 154.37,-23.45 143.99,-21.34 144.94,-28.28"/>
</a>
</g>
</g>
</g>
</svg>
