<?xml version="1.0" encoding="UTF-8" standalone="no"?>
<!DOCTYPE svg PUBLIC "-//W3C//DTD SVG 1.1//EN"
 "http://www.w3.org/Graphics/SVG/1.1/DTD/svg11.dtd">
<!-- Generated by graphviz version 10.0.1 (20240210.2158)
 -->
<!-- Title: GEU::InterfaceAdapter::getWindowName Pages: 1 -->
<svg width="418pt" height="40pt"
 viewBox="0.00 0.00 417.50 40.00" xmlns="http://www.w3.org/2000/svg" xmlns:xlink="http://www.w3.org/1999/xlink">
<g id="graph0" class="graph" transform="scale(1 1) rotate(0) translate(4 36)">
<title>GEU::InterfaceAdapter::getWindowName</title>
<!-- Node1 -->
<g id="Node000001" class="node">
<title>Node1</title>
<g id="a_Node000001"><a xlink:title=" ">
<polygon fill="#999999" stroke="#666666" points="409.5,-32 296,-32 296,0 409.5,0 409.5,-32"/>
<text text-anchor="start" x="304" y="-18.5" font-family="Helvetica,sans-Serif" font-size="10.00">GEU::InterfaceAdapter</text>
<text text-anchor="middle" x="352.75" y="-6.5" font-family="Helvetica,sans-Serif" font-size="10.00">::getWindowName</text>
</a>
</g>
</g>
<!-- Node2 -->
<g id="Node000002" class="node">
<title>Node2</title>
<g id="a_Node000002"><a xlink:href="../../d4/d01/a01520.html#a212616bf2b2202e3372bd4c6a2cf03fb" target="_top" xlink:title="Adds basic modules to GUI.">
<polygon fill="white" stroke="#666666" points="260,-32 148,-32 148,0 260,0 260,-32"/>
<text text-anchor="start" x="156" y="-18.5" font-family="Helvetica,sans-Serif" font-size="10.00">GEU::ModuleManager</text>
<text text-anchor="middle" x="204" y="-6.5" font-family="Helvetica,sans-Serif" font-size="10.00">::addMainModules</text>
</a>
</g>
</g>
<!-- Node1&#45;&gt;Node2 -->
<g id="edge1_Node000001_Node000002" class="edge">
<title>Node1&#45;&gt;Node2</title>
<g id="a_edge1_Node000001_Node000002"><a xlink:title=" ">
<path fill="none" stroke="#63b8ff" d="M284.49,-16C276.38,-16 268.17,-16 260.26,-16"/>
<polygon fill="#63b8ff" stroke="#63b8ff" points="284.34,-19.5 294.34,-16 284.34,-12.5 284.34,-19.5"/>
</a>
</g>
</g>
<!-- Node3 -->
<g id="Node000003" class="node">
<title>Node3</title>
<g id="a_Node000003"><a xlink:href="../../d4/d01/a01520.html#a9b9df20e2ea81acbc88fa8706f1588e2" target="_top" xlink:title=" ">
<polygon fill="white" stroke="#666666" points="112,-32 0,-32 0,0 112,0 112,-32"/>
<text text-anchor="start" x="8" y="-18.5" font-family="Helvetica,sans-Serif" font-size="10.00">GEU::ModuleManager</text>
<text text-anchor="middle" x="56" y="-6.5" font-family="Helvetica,sans-Serif" font-size="10.00">::ModuleManager</text>
</a>
</g>
</g>
<!-- Node2&#45;&gt;Node3 -->
<g id="edge2_Node000002_Node000003" class="edge">
<title>Node2&#45;&gt;Node3</title>
<g id="a_edge2_Node000002_Node000003"><a xlink:title=" ">
<path fill="none" stroke="#63b8ff" d="M136.47,-16C128.38,-16 120.18,-16 112.27,-16"/>
<polygon fill="#63b8ff" stroke="#63b8ff" points="136.29,-19.5 146.29,-16 136.29,-12.5 136.29,-19.5"/>
</a>
</g>
</g>
</g>
</svg>
