<?xml version="1.0" encoding="UTF-8" standalone="no"?>
<!DOCTYPE svg PUBLIC "-//W3C//DTD SVG 1.1//EN"
 "http://www.w3.org/Graphics/SVG/1.1/DTD/svg11.dtd">
<!-- Generated by graphviz version 10.0.1 (20240210.2158)
 -->
<!-- Title: GEU::TriangleMesh::processMesh Pages: 1 -->
<svg width="485pt" height="265pt"
 viewBox="0.00 0.00 485.00 265.00" xmlns="http://www.w3.org/2000/svg" xmlns:xlink="http://www.w3.org/1999/xlink">
<g id="graph0" class="graph" transform="scale(1 1) rotate(0) translate(4 261)">
<title>GEU::TriangleMesh::processMesh</title>
<!-- Node1 -->
<g id="Node000001" class="node">
<title>Node1</title>
<g id="a_Node000001"><a xlink:title=" ">
<polygon fill="#999999" stroke="#666666" points="106.75,-157 0,-157 0,-125 106.75,-125 106.75,-157"/>
<text text-anchor="start" x="8" y="-143.5" font-family="Helvetica,sans-Serif" font-size="10.00">GEU::TriangleMesh::</text>
<text text-anchor="middle" x="53.38" y="-131.5" font-family="Helvetica,sans-Serif" font-size="10.00">processMesh</text>
</a>
</g>
</g>
<!-- Node2 -->
<g id="Node000002" class="node">
<title>Node2</title>
<g id="a_Node000002"><a xlink:href="../../d5/d01/a01945.html#a47c7e7c2110f4cc59c9ff1f5594c366e" target="_top" xlink:title=" ">
<polygon fill="white" stroke="#666666" points="272,-257 145,-257 145,-225 272,-225 272,-257"/>
<text text-anchor="start" x="153" y="-243.5" font-family="Helvetica,sans-Serif" font-size="10.00">GEU::Singleton&lt; Material</text>
<text text-anchor="middle" x="208.5" y="-231.5" font-family="Helvetica,sans-Serif" font-size="10.00">List &gt;::getInstance</text>
</a>
</g>
</g>
<!-- Node1&#45;&gt;Node2 -->
<g id="edge1_Node000001_Node000002" class="edge">
<title>Node1&#45;&gt;Node2</title>
<g id="a_edge1_Node000001_Node000002"><a xlink:title=" ">
<path fill="none" stroke="#63b8ff" d="M70.35,-157.48C87.12,-174.05 114.9,-199.45 142.75,-216 144.9,-217.28 147.12,-218.51 149.39,-219.7"/>
<polygon fill="#63b8ff" stroke="#63b8ff" points="147.71,-222.77 158.24,-223.96 150.75,-216.47 147.71,-222.77"/>
</a>
</g>
</g>
<!-- Node3 -->
<g id="Node000003" class="node">
<title>Node3</title>
<g id="a_Node000003"><a xlink:href="../../d4/d01/a01485.html#ae63560152f939d7649c6d70d33e1fada" target="_top" xlink:title=" ">
<polygon fill="white" stroke="#666666" points="274.25,-207 142.75,-207 142.75,-175 274.25,-175 274.25,-207"/>
<text text-anchor="start" x="150.75" y="-193.5" font-family="Helvetica,sans-Serif" font-size="10.00">GEU::Material::getMaterial</text>
<text text-anchor="middle" x="208.5" y="-181.5" font-family="Helvetica,sans-Serif" font-size="10.00">Description</text>
</a>
</g>
</g>
<!-- Node1&#45;&gt;Node3 -->
<g id="edge2_Node000001_Node000003" class="edge">
<title>Node1&#45;&gt;Node3</title>
<g id="a_edge2_Node000001_Node000003"><a xlink:title=" ">
<path fill="none" stroke="#63b8ff" d="M104.51,-157.37C117.8,-161.71 132.29,-166.44 146.1,-170.95"/>
<polygon fill="#63b8ff" stroke="#63b8ff" points="144.96,-174.26 155.55,-174.04 147.13,-167.6 144.96,-174.26"/>
</a>
</g>
</g>
<!-- Node5 -->
<g id="Node000005" class="node">
<title>Node5</title>
<g id="a_Node000005"><a xlink:href="../../d2/d01/a01493.html#aa2cc4ef7782808bbcb396356b17265c8" target="_top" xlink:title=" ">
<polygon fill="white" stroke="#666666" points="258.12,-157 158.88,-157 158.88,-125 258.12,-125 258.12,-157"/>
<text text-anchor="start" x="166.88" y="-143.5" font-family="Helvetica,sans-Serif" font-size="10.00">GEU::MaterialList::</text>
<text text-anchor="middle" x="208.5" y="-131.5" font-family="Helvetica,sans-Serif" font-size="10.00">isMaterialAvailable</text>
</a>
</g>
</g>
<!-- Node1&#45;&gt;Node5 -->
<g id="edge4_Node000001_Node000005" class="edge">
<title>Node1&#45;&gt;Node5</title>
<g id="a_edge4_Node000001_Node000005"><a xlink:title=" ">
<path fill="none" stroke="#63b8ff" d="M107.07,-141C119.99,-141 133.91,-141 147.15,-141"/>
<polygon fill="#63b8ff" stroke="#63b8ff" points="147.05,-144.5 157.05,-141 147.05,-137.5 147.05,-144.5"/>
</a>
</g>
</g>
<!-- Node6 -->
<g id="Node000006" class="node">
<title>Node6</title>
<g id="a_Node000006"><a xlink:href="../../d2/d01/a01493.html#acc957c934384d13e5ccc65e5f536ad56" target="_top" xlink:title=" ">
<polygon fill="white" stroke="#666666" points="258.12,-107 158.88,-107 158.88,-75 258.12,-75 258.12,-107"/>
<text text-anchor="start" x="166.88" y="-93.5" font-family="Helvetica,sans-Serif" font-size="10.00">GEU::MaterialList::</text>
<text text-anchor="middle" x="208.5" y="-81.5" font-family="Helvetica,sans-Serif" font-size="10.00">saveMaterial</text>
</a>
</g>
</g>
<!-- Node1&#45;&gt;Node6 -->
<g id="edge5_Node000001_Node000006" class="edge">
<title>Node1&#45;&gt;Node6</title>
<g id="a_edge5_Node000001_Node000006"><a xlink:title=" ">
<path fill="none" stroke="#63b8ff" d="M104.51,-124.63C118.35,-120.11 133.49,-115.17 147.8,-110.49"/>
<polygon fill="#63b8ff" stroke="#63b8ff" points="148.7,-113.88 157.11,-107.45 146.52,-107.23 148.7,-113.88"/>
</a>
</g>
</g>
<!-- Node7 -->
<g id="Node000007" class="node">
<title>Node7</title>
<g id="a_Node000007"><a xlink:href="../../db/d05/a01637.html#ac7df26fada02a660519ce8829eec1bf2" target="_top" xlink:title=" ">
<polygon fill="white" stroke="#666666" points="247.62,-39 169.38,-39 169.38,-19 247.62,-19 247.62,-39"/>
<text text-anchor="middle" x="208.5" y="-25.5" font-family="Helvetica,sans-Serif" font-size="10.00">AABB::update</text>
</a>
</g>
</g>
<!-- Node1&#45;&gt;Node7 -->
<g id="edge6_Node000001_Node000007" class="edge">
<title>Node1&#45;&gt;Node7</title>
<g id="a_edge6_Node000001_Node000007"><a xlink:title=" ">
<path fill="none" stroke="#63b8ff" d="M71.54,-124.77C88.8,-108.85 116.55,-84.37 142.75,-66 153.52,-58.45 165.93,-51.07 176.99,-44.91"/>
<polygon fill="#63b8ff" stroke="#63b8ff" points="178.64,-48 185.75,-40.14 175.29,-41.85 178.64,-48"/>
</a>
</g>
</g>
<!-- Node4 -->
<g id="Node000004" class="node">
<title>Node4</title>
<g id="a_Node000004"><a xlink:href="../../d2/d04/a01489.html#a18b2a043d7bb76bb7e2e4d12e13b35c2" target="_top" xlink:title=" ">
<polygon fill="white" stroke="#666666" points="477,-207 310.25,-207 310.25,-175 477,-175 477,-207"/>
<text text-anchor="start" x="318.25" y="-193.5" font-family="Helvetica,sans-Serif" font-size="10.00">GEU::Material::MaterialDescription</text>
<text text-anchor="middle" x="393.62" y="-181.5" font-family="Helvetica,sans-Serif" font-size="10.00">::setRootFolder</text>
</a>
</g>
</g>
<!-- Node3&#45;&gt;Node4 -->
<g id="edge3_Node000003_Node000004" class="edge">
<title>Node3&#45;&gt;Node4</title>
<g id="a_edge3_Node000003_Node000004"><a xlink:title=" ">
<path fill="none" stroke="#63b8ff" d="M274.58,-191C282.33,-191 290.37,-191 298.43,-191"/>
<polygon fill="#63b8ff" stroke="#63b8ff" points="298.3,-194.5 308.3,-191 298.3,-187.5 298.3,-194.5"/>
</a>
</g>
</g>
<!-- Node7&#45;&gt;Node7 -->
<g id="edge9_Node000007_Node000007" class="edge">
<title>Node7&#45;&gt;Node7</title>
<g id="a_edge9_Node000007_Node000007"><a xlink:title=" ">
<path fill="none" stroke="#63b8ff" d="M183.85,-39.34C173.32,-47.98 181.53,-57 208.5,-57 223.25,-57 232.39,-54.3 235.92,-50.44"/>
<polygon fill="#63b8ff" stroke="#63b8ff" points="239.33,-49.66 233.51,-40.81 232.54,-51.36 239.33,-49.66"/>
</a>
</g>
</g>
<!-- Node8 -->
<g id="Node000008" class="node">
<title>Node8</title>
<g id="a_Node000008"><a xlink:href="../../db/d05/a01637.html#aa80c2fc1bbc932572311ba94a8f76530" target="_top" xlink:title=" ">
<polygon fill="white" stroke="#666666" points="427.5,-58 359.75,-58 359.75,-38 427.5,-38 427.5,-58"/>
<text text-anchor="middle" x="393.62" y="-44.5" font-family="Helvetica,sans-Serif" font-size="10.00">AABB::max</text>
</a>
</g>
</g>
<!-- Node7&#45;&gt;Node8 -->
<g id="edge7_Node000007_Node000008" class="edge">
<title>Node7&#45;&gt;Node8</title>
<g id="a_edge7_Node000007_Node000008"><a xlink:title=" ">
<path fill="none" stroke="#63b8ff" d="M247.89,-32.98C277.18,-36.02 317.59,-40.21 348.27,-43.4"/>
<polygon fill="#63b8ff" stroke="#63b8ff" points="347.69,-46.86 358,-44.41 348.41,-39.89 347.69,-46.86"/>
</a>
</g>
</g>
<!-- Node9 -->
<g id="Node000009" class="node">
<title>Node9</title>
<g id="a_Node000009"><a xlink:href="../../db/d05/a01637.html#a29073914f600f7657f4a44937702a471" target="_top" xlink:title=" ">
<polygon fill="white" stroke="#666666" points="426,-20 361.25,-20 361.25,0 426,0 426,-20"/>
<text text-anchor="middle" x="393.62" y="-6.5" font-family="Helvetica,sans-Serif" font-size="10.00">AABB::min</text>
</a>
</g>
</g>
<!-- Node7&#45;&gt;Node9 -->
<g id="edge8_Node000007_Node000009" class="edge">
<title>Node7&#45;&gt;Node9</title>
<g id="a_edge8_Node000007_Node000009"><a xlink:title=" ">
<path fill="none" stroke="#63b8ff" d="M247.89,-25.02C277.65,-21.93 318.88,-17.65 349.72,-14.45"/>
<polygon fill="#63b8ff" stroke="#63b8ff" points="349.9,-17.95 359.48,-13.44 349.18,-10.99 349.9,-17.95"/>
</a>
</g>
</g>
</g>
</svg>
