<?xml version="1.0" encoding="UTF-8" standalone="no"?>
<!DOCTYPE svg PUBLIC "-//W3C//DTD SVG 1.1//EN"
 "http://www.w3.org/Graphics/SVG/1.1/DTD/svg11.dtd">
<!-- Generated by graphviz version 10.0.1 (20240210.2158)
 -->
<!-- Title: GEU::TriangleMesh::TriangleMesh Pages: 1 -->
<svg width="278pt" height="90pt"
 viewBox="0.00 0.00 277.75 90.00" xmlns="http://www.w3.org/2000/svg" xmlns:xlink="http://www.w3.org/1999/xlink">
<g id="graph0" class="graph" transform="scale(1 1) rotate(0) translate(4 86)">
<title>GEU::TriangleMesh::TriangleMesh</title>
<!-- Node1 -->
<g id="Node000001" class="node">
<title>Node1</title>
<g id="a_Node000001"><a xlink:title=" ">
<polygon fill="#999999" stroke="#666666" points="106.75,-57 0,-57 0,-25 106.75,-25 106.75,-57"/>
<text text-anchor="start" x="8" y="-43.5" font-family="Helvetica,sans-Serif" font-size="10.00">GEU::TriangleMesh::</text>
<text text-anchor="middle" x="53.38" y="-31.5" font-family="Helvetica,sans-Serif" font-size="10.00">TriangleMesh</text>
</a>
</g>
</g>
<!-- Node2 -->
<g id="Node000002" class="node">
<title>Node2</title>
<g id="a_Node000002"><a xlink:href="../../d5/d01/a01945.html#a47c7e7c2110f4cc59c9ff1f5594c366e" target="_top" xlink:title=" ">
<polygon fill="white" stroke="#666666" points="269.75,-82 142.75,-82 142.75,-50 269.75,-50 269.75,-82"/>
<text text-anchor="start" x="150.75" y="-68.5" font-family="Helvetica,sans-Serif" font-size="10.00">GEU::Singleton&lt; Material</text>
<text text-anchor="middle" x="206.25" y="-56.5" font-family="Helvetica,sans-Serif" font-size="10.00">List &gt;::getInstance</text>
</a>
</g>
</g>
<!-- Node1&#45;&gt;Node2 -->
<g id="edge1_Node000001_Node000002" class="edge">
<title>Node1&#45;&gt;Node2</title>
<g id="a_edge1_Node000001_Node000002"><a xlink:title=" ">
<path fill="none" stroke="#63b8ff" d="M107.14,-49.74C114.97,-51.04 123.16,-52.4 131.32,-53.75"/>
<polygon fill="#63b8ff" stroke="#63b8ff" points="130.47,-57.16 140.91,-55.34 131.62,-50.25 130.47,-57.16"/>
</a>
</g>
</g>
<!-- Node3 -->
<g id="Node000003" class="node">
<title>Node3</title>
<g id="a_Node000003"><a xlink:href="../../d2/d01/a01493.html#aa2cc4ef7782808bbcb396356b17265c8" target="_top" xlink:title=" ">
<polygon fill="white" stroke="#666666" points="255.88,-32 156.62,-32 156.62,0 255.88,0 255.88,-32"/>
<text text-anchor="start" x="164.62" y="-18.5" font-family="Helvetica,sans-Serif" font-size="10.00">GEU::MaterialList::</text>
<text text-anchor="middle" x="206.25" y="-6.5" font-family="Helvetica,sans-Serif" font-size="10.00">isMaterialAvailable</text>
</a>
</g>
</g>
<!-- Node1&#45;&gt;Node3 -->
<g id="edge2_Node000001_Node000003" class="edge">
<title>Node1&#45;&gt;Node3</title>
<g id="a_edge2_Node000001_Node000003"><a xlink:title=" ">
<path fill="none" stroke="#63b8ff" d="M107.14,-32.26C119.38,-30.23 132.48,-28.06 145.01,-25.98"/>
<polygon fill="#63b8ff" stroke="#63b8ff" points="145.52,-29.45 154.81,-24.36 144.37,-22.54 145.52,-29.45"/>
</a>
</g>
</g>
</g>
</svg>
