<?xml version="1.0" encoding="UTF-8" standalone="no"?>
<!DOCTYPE svg PUBLIC "-//W3C//DTD SVG 1.1//EN"
 "http://www.w3.org/Graphics/SVG/1.1/DTD/svg11.dtd">
<!-- Generated by graphviz version 10.0.1 (20240210.2158)
 -->
<!-- Title: GEU::ThermalAugment::ThermalImageParams Pages: 1 -->
<svg width="297pt" height="177pt"
 viewBox="0.00 0.00 296.50 177.00" xmlns="http://www.w3.org/2000/svg" xmlns:xlink="http://www.w3.org/1999/xlink">

<svg id="main" version="1.1" xmlns="http://www.w3.org/2000/svg" xmlns:xlink="http://www.w3.org/1999/xlink" xml:space="preserve" onload="init(evt)">
<style type="text/css"><![CDATA[
.node, .edge {opacity: 0.7;}
.node.selected, .edge.selected {opacity: 1;}
.edge:hover path { stroke: red; }
.edge:hover polygon { stroke: red; fill: red; }
]]></style>
<script type="application/ecmascript" xlink:href="../../svg.min.js"/>
<svg id="graph" class="graph">
<g id="graph0" class="graph" transform="scale(1 1) rotate(0) translate(4 173)">
<title>GEU::ThermalAugment::ThermalImageParams</title>
<!-- Node1 -->
<g id="Node000001" class="node">
<title>Node1</title>
<g id="a_Node000001"><a xlink:title=" ">
<polygon fill="#999999" stroke="#666666" points="201.25,-32 84.75,-32 84.75,0 201.25,0 201.25,-32"/>
<text text-anchor="start" x="92.75" y="-18.5" font-family="Helvetica,sans-Serif" font-size="10.00">GEU::ThermalAugment</text>
<text text-anchor="middle" x="143" y="-6.5" font-family="Helvetica,sans-Serif" font-size="10.00">::ThermalImageParams</text>
</a>
</g>
</g>
<!-- Node1&#45;&gt;Node1 -->
<g id="edge5_Node000001_Node000001" class="edge">
<title>Node1&#45;&gt;Node1</title>
<g id="a_edge5_Node000001_Node000001"><a xlink:title=" ">
<path fill="none" stroke="#9a32cd" stroke-dasharray="5,2" d="M212.73,-21.13C216.81,-19.9 219.25,-18.19 219.25,-16 219.25,-12.21 211.95,-9.86 201.5,-8.94"/>
<polygon fill="#9a32cd" stroke="#9a32cd" points="212.26,-17.66 203,-22.8 213.44,-24.56 212.26,-17.66"/>
</a>
</g>
<text text-anchor="middle" x="251.88" y="-12.5" font-family="Helvetica,sans-Serif" font-size="10.00" fill="grey"> _alignedImage</text>
</g>
<!-- Node2 -->
<g id="Node000002" class="node">
<title>Node2</title>
<g id="a_Node000002"><a xlink:title=" ">
<polygon fill="white" stroke="#666666" points="76.75,-100 17.25,-100 17.25,-80 76.75,-80 76.75,-100"/>
<text text-anchor="middle" x="47" y="-86.5" font-family="Helvetica,sans-Serif" font-size="10.00">std::string</text>
</a>
</g>
</g>
<!-- Node2&#45;&gt;Node1 -->
<g id="edge1_Node000001_Node000002" class="edge">
<title>Node2&#45;&gt;Node1</title>
<g id="a_edge1_Node000001_Node000002"><a xlink:title=" ">
<path fill="none" stroke="#9a32cd" stroke-dasharray="5,2" d="M59.46,-70.78C64.89,-63.71 71.7,-55.91 79,-50 87.36,-43.24 97.33,-37.3 106.88,-32.39"/>
<polygon fill="#9a32cd" stroke="#9a32cd" points="56.9,-68.35 53.86,-78.5 62.56,-72.46 56.9,-68.35"/>
</a>
</g>
<text text-anchor="middle" x="109" y="-52.5" font-family="Helvetica,sans-Serif" font-size="10.00" fill="grey"> _imageName</text>
</g>
<!-- Node3 -->
<g id="Node000003" class="node">
<title>Node3</title>
<g id="a_Node000003"><a xlink:title=" ">
<polygon fill="white" stroke="#666666" points="94,-169 0,-169 0,-137 94,-137 94,-169"/>
<text text-anchor="start" x="8" y="-155.5" font-family="Helvetica,sans-Serif" font-size="10.00">std::basic_string&lt;</text>
<text text-anchor="middle" x="47" y="-143.5" font-family="Helvetica,sans-Serif" font-size="10.00"> Char &gt;</text>
</a>
</g>
</g>
<!-- Node3&#45;&gt;Node2 -->
<g id="edge2_Node000002_Node000003" class="edge">
<title>Node3&#45;&gt;Node2</title>
<g id="a_edge2_Node000002_Node000003"><a xlink:title=" ">
<path fill="none" stroke="#63b8ff" d="M47,-125.36C47,-116.41 47,-107.01 47,-100.31"/>
<polygon fill="#63b8ff" stroke="#63b8ff" points="43.5,-125.09 47,-135.09 50.5,-125.09 43.5,-125.09"/>
</a>
</g>
</g>
<!-- Node4 -->
<g id="Node000004" class="node">
<title>Node4</title>
<g id="a_Node000004"><a xlink:title=" ">
<polygon fill="white" stroke="#666666" points="191.5,-100 94.5,-100 94.5,-80 191.5,-80 191.5,-100"/>
<text text-anchor="middle" x="143" y="-86.5" font-family="Helvetica,sans-Serif" font-size="10.00">std::vector&lt; float &gt;</text>
</a>
</g>
</g>
<!-- Node4&#45;&gt;Node1 -->
<g id="edge3_Node000001_Node000004" class="edge">
<title>Node4&#45;&gt;Node1</title>
<g id="a_edge3_Node000001_Node000004"><a xlink:title=" ">
<path fill="none" stroke="#9a32cd" stroke-dasharray="5,2" d="M143,-68.1C143,-56.71 143,-42.87 143,-32.47"/>
<polygon fill="#9a32cd" stroke="#9a32cd" points="139.5,-68.07 143,-78.07 146.5,-68.07 139.5,-68.07"/>
</a>
</g>
<text text-anchor="middle" x="173" y="-52.5" font-family="Helvetica,sans-Serif" font-size="10.00" fill="grey"> _temperature</text>
</g>
<!-- Node5 -->
<g id="Node000005" class="node">
<title>Node5</title>
<g id="a_Node000005"><a xlink:href="../../d0/da8/class_open_c_v_image.html" target="_top" xlink:title=" ">
<polygon fill="white" stroke="#666666" points="288.5,-100 209.5,-100 209.5,-80 288.5,-80 288.5,-100"/>
<text text-anchor="middle" x="249" y="-86.5" font-family="Helvetica,sans-Serif" font-size="10.00">OpenCVImage</text>
</a>
</g>
</g>
<!-- Node5&#45;&gt;Node1 -->
<g id="edge4_Node000001_Node000005" class="edge">
<title>Node5&#45;&gt;Node1</title>
<g id="a_edge4_Node000001_Node000005"><a xlink:title=" ">
<path fill="none" stroke="#9a32cd" stroke-dasharray="5,2" d="M232.48,-71.69C225.08,-64.48 216.01,-56.33 207,-50 197.79,-43.53 187.15,-37.54 177.22,-32.48"/>
<polygon fill="#9a32cd" stroke="#9a32cd" points="229.69,-73.84 239.22,-78.48 234.66,-68.92 229.69,-73.84"/>
</a>
</g>
<text text-anchor="middle" x="245.75" y="-52.5" font-family="Helvetica,sans-Serif" font-size="10.00" fill="grey"> _rawImage</text>
</g>
</g>
</svg>
</svg>

<style type='text/css'>
<![CDATA[
[data-mouse-over-selected='false'] { opacity: 0.7; }
[data-mouse-over-selected='true']  { opacity: 1.0; }
]]>
</style>
<script type="application/ecmascript"><![CDATA[
document.addEventListener('DOMContentLoaded', (event) => {
  highlightEdges();
  highlightAdjacentNodes();
});
]]></script>
</svg>
