<?xml version="1.0" encoding="UTF-8" standalone="no"?>
<!DOCTYPE svg PUBLIC "-//W3C//DTD SVG 1.1//EN"
 "http://www.w3.org/Graphics/SVG/1.1/DTD/svg11.dtd">
<!-- Generated by graphviz version 10.0.1 (20240210.2158)
 -->
<!-- Title: GEU::Model3D::getName Pages: 1 -->
<svg width="451pt" height="246pt"
 viewBox="0.00 0.00 450.50 246.00" xmlns="http://www.w3.org/2000/svg" xmlns:xlink="http://www.w3.org/1999/xlink">
<g id="graph0" class="graph" transform="scale(1 1) rotate(0) translate(4 242)">
<title>GEU::Model3D::getName</title>
<!-- Node1 -->
<g id="Node000001" class="node">
<title>Node1</title>
<g id="a_Node000001"><a xlink:title=" ">
<polygon fill="#999999" stroke="#666666" points="442.5,-138 316.25,-138 316.25,-118 442.5,-118 442.5,-138"/>
<text text-anchor="middle" x="379.38" y="-124.5" font-family="Helvetica,sans-Serif" font-size="10.00">GEU::Model3D::getName</text>
</a>
</g>
</g>
<!-- Node2 -->
<g id="Node000002" class="node">
<title>Node2</title>
<g id="a_Node000002"><a xlink:href="../../dc/d51/class_g_e_u_1_1_image_cloud_proj.html#aecd54797c6b0e0d2ee800d5b923b9645" target="_top" xlink:title=" ">
<polygon fill="white" stroke="#666666" points="280.25,-238 143.5,-238 143.5,-206 280.25,-206 280.25,-238"/>
<text text-anchor="start" x="151.5" y="-224.5" font-family="Helvetica,sans-Serif" font-size="10.00">GEU::ImageCloudProj</text>
<text text-anchor="middle" x="211.88" y="-212.5" font-family="Helvetica,sans-Serif" font-size="10.00">::colorRegularMeshByClass</text>
</a>
</g>
</g>
<!-- Node1&#45;&gt;Node2 -->
<g id="edge1_Node000001_Node000002" class="edge">
<title>Node1&#45;&gt;Node2</title>
<g id="a_edge1_Node000001_Node000002"><a xlink:title=" ">
<path fill="none" stroke="#63b8ff" d="M357.25,-145.28C338.04,-160.38 308.48,-182.16 280.25,-197 274.4,-200.08 268.08,-202.95 261.74,-205.58"/>
<polygon fill="#63b8ff" stroke="#63b8ff" points="359.22,-148.18 364.86,-139.21 354.86,-142.71 359.22,-148.18"/>
</a>
</g>
</g>
<!-- Node3 -->
<g id="Node000003" class="node">
<title>Node3</title>
<g id="a_Node000003"><a xlink:href="../../dc/d51/class_g_e_u_1_1_image_cloud_proj.html#a5b25ca28287f8c088a55152666fffacc" target="_top" xlink:title=" ">
<polygon fill="white" stroke="#666666" points="279.88,-188 143.88,-188 143.88,-156 279.88,-156 279.88,-188"/>
<text text-anchor="start" x="151.88" y="-174.5" font-family="Helvetica,sans-Serif" font-size="10.00">GEU::ImageCloudProj</text>
<text text-anchor="middle" x="211.88" y="-162.5" font-family="Helvetica,sans-Serif" font-size="10.00">::colorRegularMeshByMean</text>
</a>
</g>
</g>
<!-- Node1&#45;&gt;Node3 -->
<g id="edge2_Node000001_Node000003" class="edge">
<title>Node1&#45;&gt;Node3</title>
<g id="a_edge2_Node000001_Node000003"><a xlink:title=" ">
<path fill="none" stroke="#63b8ff" d="M328.41,-141.28C311.53,-145.77 292.48,-150.84 274.78,-155.54"/>
<polygon fill="#63b8ff" stroke="#63b8ff" points="328.93,-144.77 337.69,-138.82 327.13,-138 328.93,-144.77"/>
</a>
</g>
</g>
<!-- Node4 -->
<g id="Node000004" class="node">
<title>Node4</title>
<g id="a_Node000004"><a xlink:href="../../db/db3/class_projection.html#a67d1978e8e05988f84b45075c63894a5" target="_top" xlink:title=" ">
<polygon fill="white" stroke="#666666" points="255.12,-138 168.62,-138 168.62,-118 255.12,-118 255.12,-138"/>
<text text-anchor="middle" x="211.88" y="-124.5" font-family="Helvetica,sans-Serif" font-size="10.00">Projection::getId</text>
</a>
</g>
</g>
<!-- Node1&#45;&gt;Node4 -->
<g id="edge3_Node000001_Node000004" class="edge">
<title>Node1&#45;&gt;Node4</title>
<g id="a_edge3_Node000001_Node000004"><a xlink:title=" ">
<path fill="none" stroke="#63b8ff" d="M304.33,-128C287.6,-128 270.39,-128 255.48,-128"/>
<polygon fill="#63b8ff" stroke="#63b8ff" points="304.29,-131.5 314.29,-128 304.29,-124.5 304.29,-131.5"/>
</a>
</g>
</g>
<!-- Node5 -->
<g id="Node000005" class="node">
<title>Node5</title>
<g id="a_Node000005"><a xlink:href="../../d3/dd7/namespace_g_e_u_1_1_gui_utilities.html#a55126fb89c2cd5e8675c2632a94fd92e" target="_top" xlink:title=" ">
<polygon fill="white" stroke="#666666" points="262.25,-100 161.5,-100 161.5,-68 262.25,-68 262.25,-100"/>
<text text-anchor="start" x="169.5" y="-86.5" font-family="Helvetica,sans-Serif" font-size="10.00">GEU::GuiUtilities::</text>
<text text-anchor="middle" x="211.88" y="-74.5" font-family="Helvetica,sans-Serif" font-size="10.00">makeCloudSelector</text>
</a>
</g>
</g>
<!-- Node1&#45;&gt;Node5 -->
<g id="edge4_Node000001_Node000005" class="edge">
<title>Node1&#45;&gt;Node5</title>
<g id="a_edge4_Node000001_Node000005"><a xlink:title=" ">
<path fill="none" stroke="#63b8ff" d="M328.27,-114.68C307.43,-109.14 283.3,-102.72 262.5,-97.19"/>
<polygon fill="#63b8ff" stroke="#63b8ff" points="327.13,-118 337.69,-117.18 328.93,-111.23 327.13,-118"/>
</a>
</g>
</g>
<!-- Node6 -->
<g id="Node000006" class="node">
<title>Node6</title>
<g id="a_Node000006"><a xlink:href="../../d4/d3f/class_normales_g_u_i_adapter.html#a5f2b290d502274f01fc3e9bdadfca50e" target="_top" xlink:title=" ">
<polygon fill="white" stroke="#666666" points="265.62,-32 158.12,-32 158.12,0 265.62,0 265.62,-32"/>
<text text-anchor="start" x="166.12" y="-18.5" font-family="Helvetica,sans-Serif" font-size="10.00">NormalesGUIAdapter</text>
<text text-anchor="middle" x="211.88" y="-6.5" font-family="Helvetica,sans-Serif" font-size="10.00">::normalComparison</text>
</a>
</g>
</g>
<!-- Node1&#45;&gt;Node6 -->
<g id="edge5_Node000001_Node000006" class="edge">
<title>Node1&#45;&gt;Node6</title>
<g id="a_edge5_Node000001_Node000006"><a xlink:title=" ">
<path fill="none" stroke="#63b8ff" d="M354.73,-110.93C334.98,-96.78 306,-76.26 280.25,-59 266.88,-50.04 251.79,-40.37 239.29,-32.47"/>
<polygon fill="#63b8ff" stroke="#63b8ff" points="352.49,-113.63 362.66,-116.62 356.58,-107.95 352.49,-113.63"/>
</a>
</g>
</g>
<!-- Node6&#45;&gt;Node6 -->
<g id="edge6_Node000006_Node000006" class="edge">
<title>Node6&#45;&gt;Node6</title>
<g id="a_edge6_Node000006_Node000006"><a xlink:title=" ">
<path fill="none" stroke="#63b8ff" d="M238.23,-43.71C233.83,-47.48 225.05,-50 211.88,-50 187.79,-50 178.38,-41.58 183.65,-32.44"/>
<polygon fill="#63b8ff" stroke="#63b8ff" points="241.66,-44.38 239.86,-33.94 234.76,-43.22 241.66,-44.38"/>
</a>
</g>
</g>
<!-- Node7 -->
<g id="Node000007" class="node">
<title>Node7</title>
<g id="a_Node000007"><a xlink:href="../../d4/d3f/class_normales_g_u_i_adapter.html#ad27c678722407ed6f3d2bb41ccc2b640" target="_top" xlink:title="Custom module GUI window contents.">
<polygon fill="white" stroke="#666666" points="107.5,-32 0,-32 0,0 107.5,0 107.5,-32"/>
<text text-anchor="start" x="8" y="-18.5" font-family="Helvetica,sans-Serif" font-size="10.00">NormalesGUIAdapter</text>
<text text-anchor="middle" x="53.75" y="-6.5" font-family="Helvetica,sans-Serif" font-size="10.00">::renderGuiObject</text>
</a>
</g>
</g>
<!-- Node6&#45;&gt;Node7 -->
<g id="edge7_Node000006_Node000007" class="edge">
<title>Node6&#45;&gt;Node7</title>
<g id="a_edge7_Node000006_Node000007"><a xlink:title=" ">
<path fill="none" stroke="#63b8ff" d="M146.8,-16C133.84,-16 120.35,-16 107.82,-16"/>
<polygon fill="#63b8ff" stroke="#63b8ff" points="146.5,-19.5 156.5,-16 146.5,-12.5 146.5,-19.5"/>
</a>
</g>
</g>
</g>
</svg>
