<?xml version="1.0" encoding="UTF-8" standalone="no"?>
<!DOCTYPE svg PUBLIC "-//W3C//DTD SVG 1.1//EN"
 "http://www.w3.org/Graphics/SVG/1.1/DTD/svg11.dtd">
<!-- Generated by graphviz version 10.0.1 (20240210.2158)
 -->
<!-- Title: GEU::DatabaseNewZonaPopup::renderPopup Pages: 1 -->
<svg width="843pt" height="709pt"
 viewBox="0.00 0.00 842.50 709.00" xmlns="http://www.w3.org/2000/svg" xmlns:xlink="http://www.w3.org/1999/xlink">
<g id="graph0" class="graph" transform="scale(1 1) rotate(0) translate(4 705)">
<title>GEU::DatabaseNewZonaPopup::renderPopup</title>
<!-- Node1 -->
<g id="Node000001" class="node">
<title>Node1</title>
<g id="a_Node000001"><a xlink:title="Renders the popup and its contents.">
<polygon fill="#999999" stroke="#666666" points="151.75,-292 0,-292 0,-260 151.75,-260 151.75,-292"/>
<text text-anchor="start" x="8" y="-278.5" font-family="Helvetica,sans-Serif" font-size="10.00">GEU::DatabaseNewZonaPopup</text>
<text text-anchor="middle" x="75.88" y="-266.5" font-family="Helvetica,sans-Serif" font-size="10.00">::renderPopup</text>
</a>
</g>
</g>
<!-- Node2 -->
<g id="Node000002" class="node">
<title>Node2</title>
<g id="a_Node000002"><a xlink:href="../../d3/d07/namespace_g_e_u_1_1_gui_utilities.html#a4a9fd6dae16881311edd3998ece123bf" target="_top" xlink:title=" ">
<polygon fill="white" stroke="#666666" points="311.75,-701 215.5,-701 215.5,-669 311.75,-669 311.75,-701"/>
<text text-anchor="start" x="223.5" y="-687.5" font-family="Helvetica,sans-Serif" font-size="10.00">GEU::GuiUtilities::</text>
<text text-anchor="middle" x="263.62" y="-675.5" font-family="Helvetica,sans-Serif" font-size="10.00">Button</text>
</a>
</g>
</g>
<!-- Node1&#45;&gt;Node2 -->
<g id="edge1_Node000001_Node000002" class="edge">
<title>Node1&#45;&gt;Node2</title>
<g id="a_edge1_Node000001_Node000002"><a xlink:title=" ">
<path fill="none" stroke="#63b8ff" d="M76.55,-292.46C76.32,-350.99 83.49,-551.36 187.75,-660 192.61,-665.06 198.52,-669.1 204.86,-672.32"/>
<polygon fill="#63b8ff" stroke="#63b8ff" points="203.14,-675.39 213.71,-676.14 205.92,-668.96 203.14,-675.39"/>
</a>
</g>
</g>
<!-- Node3 -->
<g id="Node000003" class="node">
<title>Node3</title>
<g id="a_Node000003"><a xlink:href="../../df/d05/class_g_e_u_1_1_i___g_u_i_popup.html#abdcc20870710b60595e8777b9fd796ed" target="_top" xlink:title=" ">
<polygon fill="white" stroke="#666666" points="333.5,-651 193.75,-651 193.75,-631 333.5,-631 333.5,-651"/>
<text text-anchor="middle" x="263.62" y="-637.5" font-family="Helvetica,sans-Serif" font-size="10.00">GEU::I_GUIPopup::getIdTitle</text>
</a>
</g>
</g>
<!-- Node1&#45;&gt;Node3 -->
<g id="edge2_Node000001_Node000003" class="edge">
<title>Node1&#45;&gt;Node3</title>
<g id="a_edge2_Node000001_Node000003"><a xlink:title=" ">
<path fill="none" stroke="#63b8ff" d="M77.2,-292.17C79.17,-346.23 92.91,-522.56 187.75,-617 190.92,-620.16 194.51,-622.91 198.36,-625.29"/>
<polygon fill="#63b8ff" stroke="#63b8ff" points="196.54,-628.29 207.02,-629.8 199.77,-622.08 196.54,-628.29"/>
</a>
</g>
</g>
<!-- Node4 -->
<g id="Node000004" class="node">
<title>Node4</title>
<g id="a_Node000004"><a xlink:href="../../d1/d01/class_g_e_u_1_1_singleton.html#a47c7e7c2110f4cc59c9ff1f5594c366e" target="_top" xlink:title=" ">
<polygon fill="white" stroke="#666666" points="834.5,-475 682.75,-475 682.75,-443 834.5,-443 834.5,-475"/>
<text text-anchor="start" x="690.75" y="-461.5" font-family="Helvetica,sans-Serif" font-size="10.00">GEU::Singleton&lt; LocaleStrings</text>
<text text-anchor="middle" x="758.62" y="-449.5" font-family="Helvetica,sans-Serif" font-size="10.00"> &gt;::getInstance</text>
</a>
</g>
</g>
<!-- Node1&#45;&gt;Node4 -->
<g id="edge5_Node000001_Node000004" class="edge">
<title>Node1&#45;&gt;Node4</title>
<g id="a_edge5_Node000001_Node000004"><a xlink:title=" ">
<path fill="none" stroke="#63b8ff" d="M85.31,-292.42C115.3,-348.58 223.16,-532.31 375.5,-584 506.27,-628.38 663.14,-529.5 727.67,-482.29"/>
<polygon fill="#63b8ff" stroke="#63b8ff" points="729.71,-485.14 735.65,-476.36 725.53,-479.52 729.71,-485.14"/>
</a>
</g>
</g>
<!-- Node6 -->
<g id="Node000006" class="node">
<title>Node6</title>
<g id="a_Node000006"><a xlink:href="../../df/d01/class_g_e_u_1_1_database_new_zona_popup.html#ac75ed971c74258a7c79ac85f58874852" target="_top" xlink:title=" ">
<polygon fill="white" stroke="#666666" points="339.5,-431 187.75,-431 187.75,-399 339.5,-399 339.5,-431"/>
<text text-anchor="start" x="195.75" y="-417.5" font-family="Helvetica,sans-Serif" font-size="10.00">GEU::DatabaseNewZonaPopup</text>
<text text-anchor="middle" x="263.62" y="-405.5" font-family="Helvetica,sans-Serif" font-size="10.00">::handleMunicipioPopup</text>
</a>
</g>
</g>
<!-- Node1&#45;&gt;Node6 -->
<g id="edge6_Node000001_Node000006" class="edge">
<title>Node1&#45;&gt;Node6</title>
<g id="a_edge6_Node000001_Node000006"><a xlink:title=" ">
<path fill="none" stroke="#63b8ff" d="M98.91,-292.49C131.87,-317.15 194.12,-363.74 231.64,-391.82"/>
<polygon fill="#63b8ff" stroke="#63b8ff" points="229.3,-394.43 239.4,-397.62 233.49,-388.83 229.3,-394.43"/>
</a>
</g>
</g>
<!-- Node16 -->
<g id="Node000016" class="node">
<title>Node16</title>
<g id="a_Node000016"><a xlink:href="../../d3/d07/namespace_g_e_u_1_1_gui_utilities.html#a776427878fe3898a385f3ee794bdc183" target="_top" xlink:title=" ">
<polygon fill="white" stroke="#666666" points="483.75,-287 387.5,-287 387.5,-255 483.75,-255 483.75,-287"/>
<text text-anchor="start" x="395.5" y="-273.5" font-family="Helvetica,sans-Serif" font-size="10.00">GEU::GuiUtilities::</text>
<text text-anchor="middle" x="435.62" y="-261.5" font-family="Helvetica,sans-Serif" font-size="10.00">InputInt</text>
</a>
</g>
</g>
<!-- Node1&#45;&gt;Node16 -->
<g id="edge18_Node000001_Node000016" class="edge">
<title>Node1&#45;&gt;Node16</title>
<g id="a_edge18_Node000001_Node000016"><a xlink:title=" ">
<path fill="none" stroke="#63b8ff" d="M117.19,-292.47C137.9,-300.06 163.76,-308.2 187.75,-312 254.37,-322.54 273.52,-326 339.5,-312 356.63,-308.37 359.44,-302.97 375.5,-296 378.62,-294.65 381.84,-293.26 385.08,-291.87"/>
<polygon fill="#63b8ff" stroke="#63b8ff" points="386.25,-295.18 394.07,-288.03 383.5,-288.74 386.25,-295.18"/>
</a>
</g>
</g>
<!-- Node17 -->
<g id="Node000017" class="node">
<title>Node17</title>
<g id="a_Node000017"><a xlink:href="../../d3/d07/namespace_g_e_u_1_1_gui_utilities.html#ad749c1df3827da1b6a17b2fb5645e1a1" target="_top" xlink:title=" ">
<polygon fill="white" stroke="#666666" points="483.75,-237 387.5,-237 387.5,-205 483.75,-205 483.75,-237"/>
<text text-anchor="start" x="395.5" y="-223.5" font-family="Helvetica,sans-Serif" font-size="10.00">GEU::GuiUtilities::</text>
<text text-anchor="middle" x="435.62" y="-211.5" font-family="Helvetica,sans-Serif" font-size="10.00">InputScalar</text>
</a>
</g>
</g>
<!-- Node1&#45;&gt;Node17 -->
<g id="edge20_Node000001_Node000017" class="edge">
<title>Node1&#45;&gt;Node17</title>
<g id="a_edge20_Node000001_Node000017"><a xlink:title=" ">
<path fill="none" stroke="#63b8ff" d="M151.98,-291.38C206,-299.03 279.58,-302.31 339.5,-279 359.73,-271.13 357.24,-257.73 375.5,-246 377.33,-244.83 379.22,-243.68 381.16,-242.58"/>
<polygon fill="#63b8ff" stroke="#63b8ff" points="382.55,-245.8 389.78,-238.06 379.29,-239.61 382.55,-245.8"/>
</a>
</g>
</g>
<!-- Node18 -->
<g id="Node000018" class="node">
<title>Node18</title>
<g id="a_Node000018"><a xlink:href="../../d3/d07/namespace_g_e_u_1_1_gui_utilities.html#a0c8f0f5af8119c36fa703bc2ed301bde" target="_top" xlink:title=" ">
<polygon fill="white" stroke="#666666" points="311.75,-270 215.5,-270 215.5,-238 311.75,-238 311.75,-270"/>
<text text-anchor="start" x="223.5" y="-256.5" font-family="Helvetica,sans-Serif" font-size="10.00">GEU::GuiUtilities::</text>
<text text-anchor="middle" x="263.62" y="-244.5" font-family="Helvetica,sans-Serif" font-size="10.00">InputText</text>
</a>
</g>
</g>
<!-- Node1&#45;&gt;Node18 -->
<g id="edge22_Node000001_Node000018" class="edge">
<title>Node1&#45;&gt;Node18</title>
<g id="a_edge22_Node000001_Node000018"><a xlink:title=" ">
<path fill="none" stroke="#63b8ff" d="M152.16,-267.08C169.48,-265.03 187.65,-262.88 204.14,-260.93"/>
<polygon fill="#63b8ff" stroke="#63b8ff" points="204.23,-264.44 213.75,-259.79 203.41,-257.49 204.23,-264.44"/>
</a>
</g>
</g>
<!-- Node19 -->
<g id="Node000019" class="node">
<title>Node19</title>
<g id="a_Node000019"><a xlink:href="../../d3/d07/namespace_g_e_u_1_1_gui_utilities.html#aac1ea4f7d9f0ad6e7301fe369e9c489c" target="_top" xlink:title=" ">
<polygon fill="white" stroke="#666666" points="311.75,-220 215.5,-220 215.5,-188 311.75,-188 311.75,-220"/>
<text text-anchor="start" x="223.5" y="-206.5" font-family="Helvetica,sans-Serif" font-size="10.00">GEU::GuiUtilities::</text>
<text text-anchor="middle" x="263.62" y="-194.5" font-family="Helvetica,sans-Serif" font-size="10.00">InputTextMultiline</text>
</a>
</g>
</g>
<!-- Node1&#45;&gt;Node19 -->
<g id="edge24_Node000001_Node000019" class="edge">
<title>Node1&#45;&gt;Node19</title>
<g id="a_edge24_Node000001_Node000019"><a xlink:title=" ">
<path fill="none" stroke="#63b8ff" d="M113.54,-259.6C135,-250.22 162.72,-238.47 187.75,-229 193.14,-226.96 198.78,-224.92 204.44,-222.93"/>
<polygon fill="#63b8ff" stroke="#63b8ff" points="205.56,-226.24 213.86,-219.67 203.27,-219.63 205.56,-226.24"/>
</a>
</g>
</g>
<!-- Node20 -->
<g id="Node000020" class="node">
<title>Node20</title>
<g id="a_Node000020"><a xlink:href="../../d1/d01/class_database_connector.html#a953d13da784dceb73bb44a6c8d23a4b1" target="_top" xlink:title="Inserta un producto en la base de datos.">
<polygon fill="white" stroke="#666666" points="317.38,-170 209.88,-170 209.88,-138 317.38,-138 317.38,-170"/>
<text text-anchor="start" x="217.88" y="-156.5" font-family="Helvetica,sans-Serif" font-size="10.00">DatabaseConnector::</text>
<text text-anchor="middle" x="263.62" y="-144.5" font-family="Helvetica,sans-Serif" font-size="10.00">insert</text>
</a>
</g>
</g>
<!-- Node1&#45;&gt;Node20 -->
<g id="edge26_Node000001_Node000020" class="edge">
<title>Node1&#45;&gt;Node20</title>
<g id="a_edge26_Node000001_Node000020"><a xlink:title=" ">
<path fill="none" stroke="#63b8ff" d="M91.49,-259.7C111.37,-238.41 148.92,-201.26 187.75,-179 191.35,-176.94 195.15,-175.01 199.04,-173.22"/>
<polygon fill="#63b8ff" stroke="#63b8ff" points="200.28,-176.5 208.12,-169.38 197.55,-170.05 200.28,-176.5"/>
</a>
</g>
</g>
<!-- Node21 -->
<g id="Node000021" class="node">
<title>Node21</title>
<g id="a_Node000021"><a xlink:href="../../d3/d07/namespace_g_e_u_1_1_gui_utilities.html#a84bb8e77631e925660765d1e2e9104c2" target="_top" xlink:title=" ">
<polygon fill="white" stroke="#666666" points="311.75,-120 215.5,-120 215.5,-88 311.75,-88 311.75,-120"/>
<text text-anchor="start" x="223.5" y="-106.5" font-family="Helvetica,sans-Serif" font-size="10.00">GEU::GuiUtilities::</text>
<text text-anchor="middle" x="263.62" y="-94.5" font-family="Helvetica,sans-Serif" font-size="10.00">InsertToast</text>
</a>
</g>
</g>
<!-- Node1&#45;&gt;Node21 -->
<g id="edge27_Node000001_Node000021" class="edge">
<title>Node1&#45;&gt;Node21</title>
<g id="a_edge27_Node000001_Node000021"><a xlink:title=" ">
<path fill="none" stroke="#63b8ff" d="M84.86,-259.75C100.47,-229.6 137.92,-164.83 187.75,-129 193.02,-125.21 198.91,-121.96 205.01,-119.19"/>
<polygon fill="#63b8ff" stroke="#63b8ff" points="206.04,-122.55 213.99,-115.53 203.4,-116.07 206.04,-122.55"/>
</a>
</g>
</g>
<!-- Node23 -->
<g id="Node000023" class="node">
<title>Node23</title>
<g id="a_Node000023"><a xlink:href="../../d3/d07/namespace_g_e_u_1_1_gui_utilities.html#a9d556eae715f588368323e6205cac7ba" target="_top" xlink:title=" ">
<polygon fill="white" stroke="#666666" points="637.38,-135 541.12,-135 541.12,-103 637.38,-103 637.38,-135"/>
<text text-anchor="start" x="549.12" y="-121.5" font-family="Helvetica,sans-Serif" font-size="10.00">GEU::GuiUtilities::</text>
<text text-anchor="middle" x="589.25" y="-109.5" font-family="Helvetica,sans-Serif" font-size="10.00">makeHelpMarker</text>
</a>
</g>
</g>
<!-- Node1&#45;&gt;Node23 -->
<g id="edge29_Node000001_Node000023" class="edge">
<title>Node1&#45;&gt;Node23</title>
<g id="a_edge29_Node000001_Node000023"><a xlink:title=" ">
<path fill="none" stroke="#63b8ff" d="M80.25,-259.63C89.41,-220.02 118.8,-119.31 187.75,-79 301.25,-12.64 464.25,-65.43 542.68,-98.08"/>
<polygon fill="#63b8ff" stroke="#63b8ff" points="541.21,-101.25 551.78,-101.94 543.95,-94.81 541.21,-101.25"/>
</a>
</g>
</g>
<!-- Node24 -->
<g id="Node000024" class="node">
<title>Node24</title>
<g id="a_Node000024"><a xlink:href="../../d3/d07/namespace_g_e_u_1_1_gui_utilities.html#ae4d14264e67621c5997464e18c781ea0" target="_top" xlink:title=" ">
<polygon fill="white" stroke="#666666" points="311.75,-32 215.5,-32 215.5,0 311.75,0 311.75,-32"/>
<text text-anchor="start" x="223.5" y="-18.5" font-family="Helvetica,sans-Serif" font-size="10.00">GEU::GuiUtilities::</text>
<text text-anchor="middle" x="263.62" y="-6.5" font-family="Helvetica,sans-Serif" font-size="10.00">SeparatorText</text>
</a>
</g>
</g>
<!-- Node1&#45;&gt;Node24 -->
<g id="edge31_Node000001_Node000024" class="edge">
<title>Node1&#45;&gt;Node24</title>
<g id="a_edge31_Node000001_Node000024"><a xlink:title=" ">
<path fill="none" stroke="#63b8ff" d="M80.42,-259.64C90.19,-218.2 121.34,-108.03 187.75,-46 192.85,-41.23 198.81,-37.18 205.1,-33.75"/>
<polygon fill="#63b8ff" stroke="#63b8ff" points="206.34,-37.04 213.8,-29.52 203.28,-30.75 206.34,-37.04"/>
</a>
</g>
</g>
<!-- Node3&#45;&gt;Node4 -->
<g id="edge3_Node000003_Node000004" class="edge">
<title>Node3&#45;&gt;Node4</title>
<g id="a_edge3_Node000003_Node000004"><a xlink:title=" ">
<path fill="none" stroke="#63b8ff" d="M333.85,-643.7C429.17,-646.23 594.92,-646.04 646.75,-617 698.81,-587.83 732.09,-522.79 747.53,-485.9"/>
<polygon fill="#63b8ff" stroke="#63b8ff" points="750.69,-487.41 751.18,-476.82 744.2,-484.79 750.69,-487.41"/>
</a>
</g>
</g>
<!-- Node5 -->
<g id="Node000005" class="node">
<title>Node5</title>
<g id="a_Node000005"><a xlink:href="../../d2/d04/class_locale_strings.html#ac66087ac25e72051ea7b5bf3d00dd71f" target="_top" xlink:title=" ">
<polygon fill="white" stroke="#666666" points="495.75,-689 375.5,-689 375.5,-669 495.75,-669 495.75,-689"/>
<text text-anchor="middle" x="435.62" y="-675.5" font-family="Helvetica,sans-Serif" font-size="10.00">LocaleStrings::getString</text>
</a>
</g>
</g>
<!-- Node3&#45;&gt;Node5 -->
<g id="edge4_Node000003_Node000005" class="edge">
<title>Node3&#45;&gt;Node5</title>
<g id="a_edge4_Node000003_Node000005"><a xlink:title=" ">
<path fill="none" stroke="#63b8ff" d="M311.53,-651.48C331.69,-655.99 355.45,-661.3 376.7,-666.05"/>
<polygon fill="#63b8ff" stroke="#63b8ff" points="375.88,-669.45 386.4,-668.22 377.4,-662.62 375.88,-669.45"/>
</a>
</g>
</g>
<!-- Node6&#45;&gt;Node4 -->
<g id="edge11_Node000006_Node000004" class="edge">
<title>Node6&#45;&gt;Node4</title>
<g id="a_edge11_Node000006_Node000004"><a xlink:title=" ">
<path fill="none" stroke="#63b8ff" d="M339.66,-414.93C416.97,-415.75 540.79,-419.53 646.75,-434 658.23,-435.57 670.28,-437.73 682.03,-440.14"/>
<polygon fill="#63b8ff" stroke="#63b8ff" points="681.19,-443.54 691.7,-442.19 682.65,-436.69 681.19,-443.54"/>
</a>
</g>
</g>
<!-- Node7 -->
<g id="Node000007" class="node">
<title>Node7</title>
<g id="a_Node000007"><a xlink:href="../../d3/d07/namespace_g_e_u_1_1_gui_utilities.html#a95d5f616a34dd70aca4886e546720966" target="_top" xlink:title=" ">
<polygon fill="white" stroke="#666666" points="483.75,-337 387.5,-337 387.5,-305 483.75,-305 483.75,-337"/>
<text text-anchor="start" x="395.5" y="-323.5" font-family="Helvetica,sans-Serif" font-size="10.00">GEU::GuiUtilities::</text>
<text text-anchor="middle" x="435.62" y="-311.5" font-family="Helvetica,sans-Serif" font-size="10.00">BeginCombo</text>
</a>
</g>
</g>
<!-- Node6&#45;&gt;Node7 -->
<g id="edge7_Node000006_Node000007" class="edge">
<title>Node6&#45;&gt;Node7</title>
<g id="a_edge7_Node000006_Node000007"><a xlink:title=" ">
<path fill="none" stroke="#63b8ff" d="M288.64,-398.52C310.68,-383.78 344.5,-362.07 375.5,-346 378.01,-344.7 380.6,-343.41 383.24,-342.14"/>
<polygon fill="#63b8ff" stroke="#63b8ff" points="384.54,-345.4 392.15,-338.03 381.61,-339.04 384.54,-345.4"/>
</a>
</g>
</g>
<!-- Node9 -->
<g id="Node000009" class="node">
<title>Node9</title>
<g id="a_Node000009"><a xlink:href="../../d3/d07/namespace_g_e_u_1_1_gui_utilities.html#a15f9ea36c082c71e09e7275ca63bd2e1" target="_top" xlink:title=" ">
<polygon fill="white" stroke="#666666" points="483.75,-387 387.5,-387 387.5,-355 483.75,-355 483.75,-387"/>
<text text-anchor="start" x="395.5" y="-373.5" font-family="Helvetica,sans-Serif" font-size="10.00">GEU::GuiUtilities::</text>
<text text-anchor="middle" x="435.62" y="-361.5" font-family="Helvetica,sans-Serif" font-size="10.00">ComboItem</text>
</a>
</g>
</g>
<!-- Node6&#45;&gt;Node9 -->
<g id="edge9_Node000006_Node000009" class="edge">
<title>Node6&#45;&gt;Node9</title>
<g id="a_edge9_Node000006_Node000009"><a xlink:title=" ">
<path fill="none" stroke="#63b8ff" d="M327.93,-398.62C343.73,-394.53 360.6,-390.16 376.15,-386.13"/>
<polygon fill="#63b8ff" stroke="#63b8ff" points="376.94,-389.54 385.75,-383.65 375.19,-382.77 376.94,-389.54"/>
</a>
</g>
</g>
<!-- Node11 -->
<g id="Node000011" class="node">
<title>Node11</title>
<g id="a_Node000011"><a xlink:href="../../d1/d01/class_database_connector.html#a8307c2ab71cb7da47fcbb8a88c5a6c54" target="_top" xlink:title=" ">
<polygon fill="white" stroke="#666666" points="489.38,-575 381.88,-575 381.88,-543 489.38,-543 489.38,-575"/>
<text text-anchor="start" x="389.88" y="-561.5" font-family="Helvetica,sans-Serif" font-size="10.00">DatabaseConnector::</text>
<text text-anchor="middle" x="435.62" y="-549.5" font-family="Helvetica,sans-Serif" font-size="10.00">getMunicipiosAsync</text>
</a>
</g>
</g>
<!-- Node6&#45;&gt;Node11 -->
<g id="edge12_Node000006_Node000011" class="edge">
<title>Node6&#45;&gt;Node11</title>
<g id="a_edge12_Node000006_Node000011"><a xlink:title=" ">
<path fill="none" stroke="#63b8ff" d="M276.2,-431.29C294.69,-456.3 333.16,-504.38 375.5,-534 377.04,-535.08 378.63,-536.12 380.26,-537.13"/>
<polygon fill="#63b8ff" stroke="#63b8ff" points="378.19,-539.98 388.62,-541.8 381.6,-533.87 378.19,-539.98"/>
</a>
</g>
</g>
<!-- Node12 -->
<g id="Node000012" class="node">
<title>Node12</title>
<g id="a_Node000012"><a xlink:href="../../d1/d01/class_database_connector.html#ae58a02574d3c2ab4c4596a7495d3d1ab" target="_top" xlink:title=" ">
<polygon fill="white" stroke="#666666" points="489.38,-525 381.88,-525 381.88,-493 489.38,-493 489.38,-525"/>
<text text-anchor="start" x="389.88" y="-511.5" font-family="Helvetica,sans-Serif" font-size="10.00">DatabaseConnector::</text>
<text text-anchor="middle" x="435.62" y="-499.5" font-family="Helvetica,sans-Serif" font-size="10.00">getProvinciasAsync</text>
</a>
</g>
</g>
<!-- Node6&#45;&gt;Node12 -->
<g id="edge13_Node000006_Node000012" class="edge">
<title>Node6&#45;&gt;Node12</title>
<g id="a_edge13_Node000006_Node000012"><a xlink:title=" ">
<path fill="none" stroke="#63b8ff" d="M288.64,-431.48C310.68,-446.22 344.5,-467.93 375.5,-484 378.01,-485.3 380.6,-486.59 383.24,-487.86"/>
<polygon fill="#63b8ff" stroke="#63b8ff" points="381.61,-490.96 392.15,-491.97 384.54,-484.6 381.61,-490.96"/>
</a>
</g>
</g>
<!-- Node13 -->
<g id="Node000013" class="node">
<title>Node13</title>
<g id="a_Node000013"><a xlink:href="../../d3/d07/namespace_g_e_u_1_1_gui_utilities.html#a4453728eb6a181d72fb1be2d7d26f73d" target="_top" xlink:title=" ">
<polygon fill="white" stroke="#666666" points="489.38,-475 381.88,-475 381.88,-443 489.38,-443 489.38,-475"/>
<text text-anchor="start" x="389.88" y="-461.5" font-family="Helvetica,sans-Serif" font-size="10.00">GEU::GuiUtilities::</text>
<text text-anchor="middle" x="435.62" y="-449.5" font-family="Helvetica,sans-Serif" font-size="10.00">makeDBQueryingInfo</text>
</a>
</g>
</g>
<!-- Node6&#45;&gt;Node13 -->
<g id="edge14_Node000006_Node000013" class="edge">
<title>Node6&#45;&gt;Node13</title>
<g id="a_edge14_Node000006_Node000013"><a xlink:title=" ">
<path fill="none" stroke="#63b8ff" d="M327.93,-431.38C341.86,-434.99 356.62,-438.81 370.58,-442.42"/>
<polygon fill="#63b8ff" stroke="#63b8ff" points="369.54,-445.77 380.1,-444.89 371.3,-438.99 369.54,-445.77"/>
</a>
</g>
</g>
<!-- Node8 -->
<g id="Node000008" class="node">
<title>Node8</title>
<g id="a_Node000008"><a xlink:href="../../d3/d07/namespace_g_e_u_1_1_gui_utilities.html#a76a49056660c5a9246a94564afbb676a" target="_top" xlink:title=" ">
<polygon fill="white" stroke="#666666" points="646.75,-231 531.75,-231 531.75,-211 646.75,-211 646.75,-231"/>
<text text-anchor="middle" x="589.25" y="-217.5" font-family="Helvetica,sans-Serif" font-size="10.00">GEU::GuiUtilities::Text</text>
</a>
</g>
</g>
<!-- Node7&#45;&gt;Node8 -->
<g id="edge8_Node000007_Node000008" class="edge">
<title>Node7&#45;&gt;Node8</title>
<g id="a_edge8_Node000007_Node000008"><a xlink:title=" ">
<path fill="none" stroke="#63b8ff" d="M479.64,-304.51C485.18,-301.89 490.69,-299.04 495.75,-296 523.22,-279.51 551.33,-255.5 569.24,-239.11"/>
<polygon fill="#63b8ff" stroke="#63b8ff" points="571.57,-241.73 576.51,-232.35 566.8,-236.6 571.57,-241.73"/>
</a>
</g>
</g>
<!-- Node10 -->
<g id="Node000010" class="node">
<title>Node10</title>
<g id="a_Node000010"><a xlink:href="../../d3/d07/namespace_g_e_u_1_1_gui_utilities.html#ab5bd8ee6ec7674dc502b5330d41beadf" target="_top" xlink:title=" ">
<polygon fill="white" stroke="#666666" points="637.38,-387 541.12,-387 541.12,-355 637.38,-355 637.38,-387"/>
<text text-anchor="start" x="549.12" y="-373.5" font-family="Helvetica,sans-Serif" font-size="10.00">GEU::GuiUtilities::</text>
<text text-anchor="middle" x="589.25" y="-361.5" font-family="Helvetica,sans-Serif" font-size="10.00">Selectable</text>
</a>
</g>
</g>
<!-- Node9&#45;&gt;Node10 -->
<g id="edge10_Node000009_Node000010" class="edge">
<title>Node9&#45;&gt;Node10</title>
<g id="a_edge10_Node000009_Node000010"><a xlink:title=" ">
<path fill="none" stroke="#63b8ff" d="M484.18,-371C498.58,-371 514.56,-371 529.59,-371"/>
<polygon fill="#63b8ff" stroke="#63b8ff" points="529.35,-374.5 539.35,-371 529.35,-367.5 529.35,-374.5"/>
</a>
</g>
</g>
<!-- Node14 -->
<g id="Node000014" class="node">
<title>Node14</title>
<g id="a_Node000014"><a xlink:href="../../d3/d07/namespace_g_e_u_1_1_gui_utilities.html#aa4e9186189a097316ffd71424d4a7259" target="_top" xlink:title=" ">
<polygon fill="white" stroke="#666666" points="637.38,-525 541.12,-525 541.12,-493 637.38,-493 637.38,-525"/>
<text text-anchor="start" x="549.12" y="-511.5" font-family="Helvetica,sans-Serif" font-size="10.00">GEU::GuiUtilities::</text>
<text text-anchor="middle" x="589.25" y="-499.5" font-family="Helvetica,sans-Serif" font-size="10.00">loadingIcon</text>
</a>
</g>
</g>
<!-- Node13&#45;&gt;Node14 -->
<g id="edge15_Node000013_Node000014" class="edge">
<title>Node13&#45;&gt;Node14</title>
<g id="a_edge15_Node000013_Node000014"><a xlink:title=" ">
<path fill="none" stroke="#63b8ff" d="M486.27,-475.37C500.24,-479.98 515.57,-485.03 529.99,-489.79"/>
<polygon fill="#63b8ff" stroke="#63b8ff" points="528.78,-493.07 539.37,-492.88 530.97,-486.43 528.78,-493.07"/>
</a>
</g>
</g>
<!-- Node15 -->
<g id="Node000015" class="node">
<title>Node15</title>
<g id="a_Node000015"><a xlink:href="../../d3/d07/namespace_g_e_u_1_1_gui_utilities.html#a7b24395f0bd0bd368bde0935682746ce" target="_top" xlink:title=" ">
<polygon fill="white" stroke="#666666" points="637.38,-475 541.12,-475 541.12,-443 637.38,-443 637.38,-475"/>
<text text-anchor="start" x="549.12" y="-461.5" font-family="Helvetica,sans-Serif" font-size="10.00">GEU::GuiUtilities::</text>
<text text-anchor="middle" x="589.25" y="-449.5" font-family="Helvetica,sans-Serif" font-size="10.00">makeLocText</text>
</a>
</g>
</g>
<!-- Node13&#45;&gt;Node15 -->
<g id="edge16_Node000013_Node000015" class="edge">
<title>Node13&#45;&gt;Node15</title>
<g id="a_edge16_Node000013_Node000015"><a xlink:title=" ">
<path fill="none" stroke="#63b8ff" d="M489.66,-459C502.6,-459 516.53,-459 529.71,-459"/>
<polygon fill="#63b8ff" stroke="#63b8ff" points="529.55,-462.5 539.55,-459 529.55,-455.5 529.55,-462.5"/>
</a>
</g>
</g>
<!-- Node15&#45;&gt;Node4 -->
<g id="edge17_Node000015_Node000004" class="edge">
<title>Node15&#45;&gt;Node4</title>
<g id="a_edge17_Node000015_Node000004"><a xlink:title=" ">
<path fill="none" stroke="#63b8ff" d="M637.77,-459C648.2,-459 659.57,-459 671.01,-459"/>
<polygon fill="#63b8ff" stroke="#63b8ff" points="670.93,-462.5 680.93,-459 670.93,-455.5 670.93,-462.5"/>
</a>
</g>
</g>
<!-- Node16&#45;&gt;Node8 -->
<g id="edge19_Node000016_Node000008" class="edge">
<title>Node16&#45;&gt;Node8</title>
<g id="a_edge19_Node000016_Node000008"><a xlink:title=" ">
<path fill="none" stroke="#63b8ff" d="M484.18,-255.32C503.93,-248.8 526.66,-241.31 545.83,-234.99"/>
<polygon fill="#63b8ff" stroke="#63b8ff" points="546.82,-238.35 555.22,-231.89 544.63,-231.7 546.82,-238.35"/>
</a>
</g>
</g>
<!-- Node17&#45;&gt;Node8 -->
<g id="edge21_Node000017_Node000008" class="edge">
<title>Node17&#45;&gt;Node8</title>
<g id="a_edge21_Node000017_Node000008"><a xlink:title=" ">
<path fill="none" stroke="#63b8ff" d="M484.18,-221C495.5,-221 507.81,-221 519.85,-221"/>
<polygon fill="#63b8ff" stroke="#63b8ff" points="519.77,-224.5 529.77,-221 519.77,-217.5 519.77,-224.5"/>
</a>
</g>
</g>
<!-- Node18&#45;&gt;Node8 -->
<g id="edge23_Node000018_Node000008" class="edge">
<title>Node18&#45;&gt;Node8</title>
<g id="a_edge23_Node000018_Node000008"><a xlink:title=" ">
<path fill="none" stroke="#63b8ff" d="M311.89,-241.58C321.35,-238.17 331,-234.01 339.5,-229 358.2,-217.99 355.27,-203.87 375.5,-196 434.49,-173.06 509.07,-191.67 552.44,-206.72"/>
<polygon fill="#63b8ff" stroke="#63b8ff" points="551.01,-209.93 561.61,-210.03 553.39,-203.34 551.01,-209.93"/>
</a>
</g>
</g>
<!-- Node19&#45;&gt;Node8 -->
<g id="edge25_Node000019_Node000008" class="edge">
<title>Node19&#45;&gt;Node8</title>
<g id="a_edge25_Node000019_Node000008"><a xlink:title=" ">
<path fill="none" stroke="#63b8ff" d="M312,-188.95C321.18,-185.81 330.68,-182.42 339.5,-179 355.82,-172.66 358.37,-166.63 375.5,-163 427.78,-151.91 444.39,-148.23 495.75,-163 523.11,-170.87 550.2,-189.47 567.93,-203.5"/>
<polygon fill="#63b8ff" stroke="#63b8ff" points="565.63,-206.14 575.58,-209.77 570.06,-200.72 565.63,-206.14"/>
</a>
</g>
</g>
<!-- Node22 -->
<g id="Node000022" class="node">
<title>Node22</title>
<g id="a_Node000022"><a xlink:href="../../df/d03/namespace_im_gui.html#accd100b531b171ee1a63232f9f5916fc" target="_top" xlink:title=" ">
<polygon fill="white" stroke="#666666" points="495.38,-111 375.88,-111 375.88,-91 495.38,-91 495.38,-111"/>
<text text-anchor="middle" x="435.62" y="-97.5" font-family="Helvetica,sans-Serif" font-size="10.00">ImGui::InsertNotification</text>
</a>
</g>
</g>
<!-- Node21&#45;&gt;Node22 -->
<g id="edge28_Node000021_Node000022" class="edge">
<title>Node21&#45;&gt;Node22</title>
<g id="a_edge28_Node000021_Node000022"><a xlink:title=" ">
<path fill="none" stroke="#63b8ff" d="M311.98,-103.16C328.1,-102.88 346.48,-102.56 364.02,-102.25"/>
<polygon fill="#63b8ff" stroke="#63b8ff" points="363.94,-105.75 373.88,-102.07 363.82,-98.75 363.94,-105.75"/>
</a>
</g>
</g>
<!-- Node23&#45;&gt;Node4 -->
<g id="edge30_Node000023_Node000004" class="edge">
<title>Node23&#45;&gt;Node4</title>
<g id="a_edge30_Node000023_Node000004"><a xlink:title=" ">
<path fill="none" stroke="#63b8ff" d="M602.69,-135.26C614.84,-151.57 633.4,-177.71 646.75,-202 690.96,-282.46 730.3,-384.13 747.88,-431.88"/>
<polygon fill="#63b8ff" stroke="#63b8ff" points="744.54,-432.94 751.26,-441.13 751.12,-430.54 744.54,-432.94"/>
</a>
</g>
</g>
</g>
</svg>
