<?xml version="1.0" encoding="UTF-8" standalone="no"?>
<!DOCTYPE svg PUBLIC "-//W3C//DTD SVG 1.1//EN"
 "http://www.w3.org/Graphics/SVG/1.1/DTD/svg11.dtd">
<!-- Generated by graphviz version 10.0.1 (20240210.2158)
 -->
<!-- Title: GEU::GuiUtilities::makeImageZoomable Pages: 1 -->
<svg width="324pt" height="90pt"
 viewBox="0.00 0.00 324.25 90.00" xmlns="http://www.w3.org/2000/svg" xmlns:xlink="http://www.w3.org/1999/xlink">
<g id="graph0" class="graph" transform="scale(1 1) rotate(0) translate(4 86)">
<title>GEU::GuiUtilities::makeImageZoomable</title>
<!-- Node1 -->
<g id="Node000001" class="node">
<title>Node1</title>
<g id="a_Node000001"><a xlink:title=" ">
<polygon fill="#999999" stroke="#666666" points="316.25,-57 208,-57 208,-25 316.25,-25 316.25,-57"/>
<text text-anchor="start" x="216" y="-43.5" font-family="Helvetica,sans-Serif" font-size="10.00">GEU::GuiUtilities::</text>
<text text-anchor="middle" x="262.12" y="-31.5" font-family="Helvetica,sans-Serif" font-size="10.00">makeImageZoomable</text>
</a>
</g>
</g>
<!-- Node2 -->
<g id="Node000002" class="node">
<title>Node2</title>
<g id="a_Node000002"><a xlink:href="../../da/d01/a02101.html#a8a98d9eb2b3e72fe0a3bb1f7720c5099" target="_top" xlink:title="Draw input image with segment rectangles.">
<polygon fill="white" stroke="#666666" points="172,-82 0,-82 0,-50 172,-50 172,-82"/>
<text text-anchor="start" x="8" y="-68.5" font-family="Helvetica,sans-Serif" font-size="10.00">GEU::TreeSegmentationGUIAdapter</text>
<text text-anchor="middle" x="86" y="-56.5" font-family="Helvetica,sans-Serif" font-size="10.00">::makeImageWithRects</text>
</a>
</g>
</g>
<!-- Node1&#45;&gt;Node2 -->
<g id="edge1_Node000001_Node000002" class="edge">
<title>Node1&#45;&gt;Node2</title>
<g id="a_edge1_Node000001_Node000002"><a xlink:title=" ">
<path fill="none" stroke="#63b8ff" d="M196.55,-50.27C188.63,-51.41 180.44,-52.58 172.27,-53.76"/>
<polygon fill="#63b8ff" stroke="#63b8ff" points="197.04,-53.74 206.44,-48.85 196.04,-46.81 197.04,-53.74"/>
</a>
</g>
</g>
<!-- Node3 -->
<g id="Node000003" class="node">
<title>Node3</title>
<g id="a_Node000003"><a xlink:href="../../da/d01/a02101.html#a7e53f2d5e62b2c5fd15e718d87751c7a" target="_top" xlink:title="Draw Input tab to load an image and apply segmentation.">
<polygon fill="white" stroke="#666666" points="172,-32 0,-32 0,0 172,0 172,-32"/>
<text text-anchor="start" x="8" y="-18.5" font-family="Helvetica,sans-Serif" font-size="10.00">GEU::TreeSegmentationGUIAdapter</text>
<text text-anchor="middle" x="86" y="-6.5" font-family="Helvetica,sans-Serif" font-size="10.00">::makeSegmentInputGUI</text>
</a>
</g>
</g>
<!-- Node1&#45;&gt;Node3 -->
<g id="edge2_Node000001_Node000003" class="edge">
<title>Node1&#45;&gt;Node3</title>
<g id="a_edge2_Node000001_Node000003"><a xlink:title=" ">
<path fill="none" stroke="#63b8ff" d="M196.55,-31.73C188.63,-30.59 180.44,-29.42 172.27,-28.24"/>
<polygon fill="#63b8ff" stroke="#63b8ff" points="196.04,-35.19 206.44,-33.15 197.04,-28.26 196.04,-35.19"/>
</a>
</g>
</g>
</g>
</svg>
