<?xml version="1.0" encoding="UTF-8" standalone="no"?>
<!DOCTYPE svg PUBLIC "-//W3C//DTD SVG 1.1//EN"
 "http://www.w3.org/Graphics/SVG/1.1/DTD/svg11.dtd">
<!-- Generated by graphviz version 10.0.1 (20240210.2158)
 -->
<!-- Title: GEU::GuiUtilities::BeginCombo Pages: 1 -->
<svg width="442pt" height="340pt"
 viewBox="0.00 0.00 442.25 340.00" xmlns="http://www.w3.org/2000/svg" xmlns:xlink="http://www.w3.org/1999/xlink">
<g id="graph0" class="graph" transform="scale(1 1) rotate(0) translate(4 336)">
<title>GEU::GuiUtilities::BeginCombo</title>
<!-- Node1 -->
<g id="Node000001" class="node">
<title>Node1</title>
<g id="a_Node000001"><a xlink:title=" ">
<polygon fill="#999999" stroke="#666666" points="434.25,-182 338,-182 338,-150 434.25,-150 434.25,-182"/>
<text text-anchor="start" x="346" y="-168.5" font-family="Helvetica,sans-Serif" font-size="10.00">GEU::GuiUtilities::</text>
<text text-anchor="middle" x="386.12" y="-156.5" font-family="Helvetica,sans-Serif" font-size="10.00">BeginCombo</text>
</a>
</g>
</g>
<!-- Node2 -->
<g id="Node000002" class="node">
<title>Node2</title>
<g id="a_Node000002"><a xlink:href="../../d2/d01/a01493.html#a241455ad0e5a659831aa86d3182b9551" target="_top" xlink:title="Renders inspector details for camera items.">
<polygon fill="white" stroke="#666666" points="291.88,-332 153.62,-332 153.62,-300 291.88,-300 291.88,-332"/>
<text text-anchor="start" x="161.62" y="-318.5" font-family="Helvetica,sans-Serif" font-size="10.00">GEU::DetailsWindow</text>
<text text-anchor="middle" x="222.75" y="-306.5" font-family="Helvetica,sans-Serif" font-size="10.00">::makeCameraItemInspector</text>
</a>
</g>
</g>
<!-- Node1&#45;&gt;Node2 -->
<g id="edge1_Node000001_Node000002" class="edge">
<title>Node1&#45;&gt;Node2</title>
<g id="a_edge1_Node000001_Node000002"><a xlink:title=" ">
<path fill="none" stroke="#63b8ff" d="M373.9,-192.75C360.69,-221.08 336.16,-265.22 302,-291 297.67,-294.27 292.91,-297.11 287.93,-299.59"/>
<polygon fill="#63b8ff" stroke="#63b8ff" points="377.03,-194.31 377.94,-183.76 370.65,-191.45 377.03,-194.31"/>
</a>
</g>
</g>
<!-- Node4 -->
<g id="Node000004" class="node">
<title>Node4</title>
<g id="a_Node000004"><a xlink:href="../../d2/d01/a01493.html#addd0dc775ee807e26a5936815ad411b8" target="_top" xlink:title=" ">
<polygon fill="white" stroke="#666666" points="292.25,-282 153.25,-282 153.25,-250 292.25,-250 292.25,-282"/>
<text text-anchor="start" x="161.25" y="-268.5" font-family="Helvetica,sans-Serif" font-size="10.00">GEU::DetailsWindow</text>
<text text-anchor="middle" x="222.75" y="-256.5" font-family="Helvetica,sans-Serif" font-size="10.00">::makeMaterialItemInspector</text>
</a>
</g>
</g>
<!-- Node1&#45;&gt;Node4 -->
<g id="edge3_Node000001_Node000004" class="edge">
<title>Node1&#45;&gt;Node4</title>
<g id="a_edge3_Node000001_Node000004"><a xlink:title=" ">
<path fill="none" stroke="#63b8ff" d="M363.52,-190.31C347.85,-206.64 325.39,-227.56 302,-241 296.44,-244.2 290.41,-247.04 284.26,-249.56"/>
<polygon fill="#63b8ff" stroke="#63b8ff" points="365.75,-193.05 370.03,-183.36 360.64,-188.27 365.75,-193.05"/>
</a>
</g>
</g>
<!-- Node5 -->
<g id="Node000005" class="node">
<title>Node5</title>
<g id="a_Node000005"><a xlink:href="../../d2/d01/a01493.html#a9edcfff4507d107037e9f7500a3d6717" target="_top" xlink:title="Renders inspector details for point cloud items.">
<polygon fill="white" stroke="#666666" points="290.75,-232 154.75,-232 154.75,-200 290.75,-200 290.75,-232"/>
<text text-anchor="start" x="162.75" y="-218.5" font-family="Helvetica,sans-Serif" font-size="10.00">GEU::DetailsWindow</text>
<text text-anchor="middle" x="222.75" y="-206.5" font-family="Helvetica,sans-Serif" font-size="10.00">::makePCloudItemInspector</text>
</a>
</g>
</g>
<!-- Node1&#45;&gt;Node5 -->
<g id="edge5_Node000001_Node000005" class="edge">
<title>Node1&#45;&gt;Node5</title>
<g id="a_edge5_Node000001_Node000005"><a xlink:title=" ">
<path fill="none" stroke="#63b8ff" d="M327.05,-183.99C310.68,-189.07 292.96,-194.56 276.89,-199.54"/>
<polygon fill="#63b8ff" stroke="#63b8ff" points="327.62,-187.48 336.13,-181.18 325.55,-180.8 327.62,-187.48"/>
</a>
</g>
</g>
<!-- Node6 -->
<g id="Node000006" class="node">
<title>Node6</title>
<g id="a_Node000006"><a xlink:href="../../d4/d01/a01485.html#a6b45f3f4957a46091ab0d75b9600a56d" target="_top" xlink:title="Renders the popup and its contents.">
<polygon fill="white" stroke="#666666" points="302,-182 143.5,-182 143.5,-150 302,-150 302,-182"/>
<text text-anchor="start" x="151.5" y="-168.5" font-family="Helvetica,sans-Serif" font-size="10.00">GEU::DatabaseQueryDatoPopup</text>
<text text-anchor="middle" x="222.75" y="-156.5" font-family="Helvetica,sans-Serif" font-size="10.00">::renderPopup</text>
</a>
</g>
</g>
<!-- Node1&#45;&gt;Node6 -->
<g id="edge7_Node000001_Node000006" class="edge">
<title>Node1&#45;&gt;Node6</title>
<g id="a_edge7_Node000001_Node000006"><a xlink:title=" ">
<path fill="none" stroke="#63b8ff" d="M326.13,-166C318.41,-166 310.41,-166 302.44,-166"/>
<polygon fill="#63b8ff" stroke="#63b8ff" points="326.07,-169.5 336.07,-166 326.07,-162.5 326.07,-169.5"/>
</a>
</g>
</g>
<!-- Node7 -->
<g id="Node000007" class="node">
<title>Node7</title>
<g id="a_Node000007"><a xlink:href="../../d1/d04/a01481.html#ae07f0a25c9ecb584624ce7bf67bc48cb" target="_top" xlink:title="Renders the window and contents.">
<polygon fill="white" stroke="#666666" points="301.62,-132 143.88,-132 143.88,-100 301.62,-100 301.62,-132"/>
<text text-anchor="start" x="151.88" y="-118.5" font-family="Helvetica,sans-Serif" font-size="10.00">GEU::DatabaseNewDatoWindow</text>
<text text-anchor="middle" x="222.75" y="-106.5" font-family="Helvetica,sans-Serif" font-size="10.00">::renderWindow</text>
</a>
</g>
</g>
<!-- Node1&#45;&gt;Node7 -->
<g id="edge8_Node000001_Node000007" class="edge">
<title>Node1&#45;&gt;Node7</title>
<g id="a_edge8_Node000001_Node000007"><a xlink:title=" ">
<path fill="none" stroke="#63b8ff" d="M327.05,-148.01C310.68,-142.93 292.96,-137.44 276.89,-132.46"/>
<polygon fill="#63b8ff" stroke="#63b8ff" points="325.55,-151.2 336.13,-150.82 327.62,-144.52 325.55,-151.2"/>
</a>
</g>
</g>
<!-- Node8 -->
<g id="Node000008" class="node">
<title>Node8</title>
<g id="a_Node000008"><a xlink:href="../../dc/d06/a01505.html#a56f55b34996a68d41418a2df8ea008db" target="_top" xlink:title="Renders the window and contents.">
<polygon fill="white" stroke="#666666" points="277.62,-82 167.88,-82 167.88,-50 277.62,-50 277.62,-82"/>
<text text-anchor="start" x="175.88" y="-68.5" font-family="Helvetica,sans-Serif" font-size="10.00">GEU::PickingWindow</text>
<text text-anchor="middle" x="222.75" y="-56.5" font-family="Helvetica,sans-Serif" font-size="10.00">::renderWindow</text>
</a>
</g>
</g>
<!-- Node1&#45;&gt;Node8 -->
<g id="edge9_Node000001_Node000008" class="edge">
<title>Node1&#45;&gt;Node8</title>
<g id="a_edge9_Node000001_Node000008"><a xlink:title=" ">
<path fill="none" stroke="#63b8ff" d="M363.52,-141.69C347.85,-125.36 325.39,-104.44 302,-91 294.58,-86.74 286.34,-83.1 278.07,-80.03"/>
<polygon fill="#63b8ff" stroke="#63b8ff" points="360.64,-143.73 370.03,-148.64 365.75,-138.95 360.64,-143.73"/>
</a>
</g>
</g>
<!-- Node9 -->
<g id="Node000009" class="node">
<title>Node9</title>
<g id="a_Node000009"><a xlink:href="../../db/d06/a01509.html#a7af9db6d6ad56c4c4fc336251024472f" target="_top" xlink:title="Renders the window and contents.">
<polygon fill="white" stroke="#666666" points="279.5,-32 166,-32 166,0 279.5,0 279.5,-32"/>
<text text-anchor="start" x="174" y="-18.5" font-family="Helvetica,sans-Serif" font-size="10.00">GEU::SettingsWindow</text>
<text text-anchor="middle" x="222.75" y="-6.5" font-family="Helvetica,sans-Serif" font-size="10.00">::renderWindow</text>
</a>
</g>
</g>
<!-- Node1&#45;&gt;Node9 -->
<g id="edge10_Node000001_Node000009" class="edge">
<title>Node1&#45;&gt;Node9</title>
<g id="a_edge10_Node000001_Node000009"><a xlink:title=" ">
<path fill="none" stroke="#63b8ff" d="M373.9,-139.25C360.69,-110.92 336.16,-66.78 302,-41 295.4,-36.02 287.77,-32.01 279.92,-28.79"/>
<polygon fill="#63b8ff" stroke="#63b8ff" points="370.65,-140.55 377.94,-148.24 377.03,-137.69 370.65,-140.55"/>
</a>
</g>
</g>
<!-- Node3 -->
<g id="Node000003" class="node">
<title>Node3</title>
<g id="a_Node000003"><a xlink:href="../../d2/d01/a01493.html#a6666ec761cc5cd8a57220823b8e7daa6" target="_top" xlink:title="Renders the window and contents.">
<polygon fill="white" stroke="#666666" points="107.5,-282 0,-282 0,-250 107.5,-250 107.5,-282"/>
<text text-anchor="start" x="8" y="-268.5" font-family="Helvetica,sans-Serif" font-size="10.00">GEU::DetailsWindow</text>
<text text-anchor="middle" x="53.75" y="-256.5" font-family="Helvetica,sans-Serif" font-size="10.00">::renderWindow</text>
</a>
</g>
</g>
<!-- Node2&#45;&gt;Node3 -->
<g id="edge2_Node000002_Node000003" class="edge">
<title>Node2&#45;&gt;Node3</title>
<g id="a_edge2_Node000002_Node000003"><a xlink:title=" ">
<path fill="none" stroke="#63b8ff" d="M156.16,-296.36C140.14,-291.57 123.2,-286.49 107.85,-281.9"/>
<polygon fill="#63b8ff" stroke="#63b8ff" points="155.03,-299.68 165.62,-299.19 157.04,-292.97 155.03,-299.68"/>
</a>
</g>
</g>
<!-- Node4&#45;&gt;Node3 -->
<g id="edge4_Node000004_Node000003" class="edge">
<title>Node4&#45;&gt;Node3</title>
<g id="a_edge4_Node000004_Node000003"><a xlink:title=" ">
<path fill="none" stroke="#63b8ff" d="M141.52,-266C130.11,-266 118.63,-266 107.92,-266"/>
<polygon fill="#63b8ff" stroke="#63b8ff" points="141.35,-269.5 151.35,-266 141.35,-262.5 141.35,-269.5"/>
</a>
</g>
</g>
<!-- Node5&#45;&gt;Node3 -->
<g id="edge6_Node000005_Node000003" class="edge">
<title>Node5&#45;&gt;Node3</title>
<g id="a_edge6_Node000005_Node000003"><a xlink:title=" ">
<path fill="none" stroke="#63b8ff" d="M156.16,-235.64C140.14,-240.43 123.2,-245.51 107.85,-250.1"/>
<polygon fill="#63b8ff" stroke="#63b8ff" points="157.04,-239.03 165.62,-232.81 155.03,-232.32 157.04,-239.03"/>
</a>
</g>
</g>
</g>
</svg>
