<?xml version="1.0" encoding="UTF-8" standalone="no"?>
<!DOCTYPE svg PUBLIC "-//W3C//DTD SVG 1.1//EN"
 "http://www.w3.org/Graphics/SVG/1.1/DTD/svg11.dtd">
<!-- Generated by graphviz version 10.0.1 (20240210.2158)
 -->
<!-- Title: GEU::GuiUtilities::makeDBQueryingInfo Pages: 1 -->
<svg width="307pt" height="490pt"
 viewBox="0.00 0.00 307.00 490.00" xmlns="http://www.w3.org/2000/svg" xmlns:xlink="http://www.w3.org/1999/xlink">
<g id="graph0" class="graph" transform="scale(1 1) rotate(0) translate(4 486)">
<title>GEU::GuiUtilities::makeDBQueryingInfo</title>
<!-- Node1 -->
<g id="Node000001" class="node">
<title>Node1</title>
<g id="a_Node000001"><a xlink:title=" ">
<polygon fill="#999999" stroke="#666666" points="299,-257 191.5,-257 191.5,-225 299,-225 299,-257"/>
<text text-anchor="start" x="199.5" y="-243.5" font-family="Helvetica,sans-Serif" font-size="10.00">GEU::GuiUtilities::</text>
<text text-anchor="middle" x="245.25" y="-231.5" font-family="Helvetica,sans-Serif" font-size="10.00">makeDBQueryingInfo</text>
</a>
</g>
</g>
<!-- Node2 -->
<g id="Node000002" class="node">
<title>Node2</title>
<g id="a_Node000002"><a xlink:href="../../d1/d02/a01533.html#ab95b74bfc7395d03f358cecc811ed215" target="_top" xlink:title=" ">
<polygon fill="white" stroke="#666666" points="155.5,-482 0,-482 0,-450 155.5,-450 155.5,-482"/>
<text text-anchor="start" x="8" y="-468.5" font-family="Helvetica,sans-Serif" font-size="10.00">GEU::DatabaseNewVueloPopup</text>
<text text-anchor="middle" x="77.75" y="-456.5" font-family="Helvetica,sans-Serif" font-size="10.00">::handleDronPopup</text>
</a>
</g>
</g>
<!-- Node1&#45;&gt;Node2 -->
<g id="edge1_Node000001_Node000002" class="edge">
<title>Node1&#45;&gt;Node2</title>
<g id="a_edge1_Node000001_Node000002"><a xlink:title=" ">
<path fill="none" stroke="#63b8ff" d="M239.42,-268.6C230.49,-311.53 207.34,-394.23 155.5,-441 151.86,-444.29 147.78,-447.14 143.45,-449.62"/>
<polygon fill="#63b8ff" stroke="#63b8ff" points="242.85,-269.33 241.33,-258.85 235.98,-267.99 242.85,-269.33"/>
</a>
</g>
</g>
<!-- Node3 -->
<g id="Node000003" class="node">
<title>Node3</title>
<g id="a_Node000003"><a xlink:href="../../d1/d02/a01533.html#a3939a10ac14ff4dbfd34f341fc52db79" target="_top" xlink:title=" ">
<polygon fill="white" stroke="#666666" points="155.5,-432 0,-432 0,-400 155.5,-400 155.5,-432"/>
<text text-anchor="start" x="8" y="-418.5" font-family="Helvetica,sans-Serif" font-size="10.00">GEU::DatabaseNewVueloPopup</text>
<text text-anchor="middle" x="77.75" y="-406.5" font-family="Helvetica,sans-Serif" font-size="10.00">::handleZonaPopup</text>
</a>
</g>
</g>
<!-- Node1&#45;&gt;Node3 -->
<g id="edge2_Node000001_Node000003" class="edge">
<title>Node1&#45;&gt;Node3</title>
<g id="a_edge2_Node000001_Node000003"><a xlink:title=" ">
<path fill="none" stroke="#63b8ff" d="M235.11,-267.96C222.41,-301.5 196.26,-358.33 155.5,-391 151.45,-394.24 146.97,-397.07 142.27,-399.54"/>
<polygon fill="#63b8ff" stroke="#63b8ff" points="238.4,-269.16 238.53,-258.57 231.82,-266.77 238.4,-269.16"/>
</a>
</g>
</g>
<!-- Node4 -->
<g id="Node000004" class="node">
<title>Node4</title>
<g id="a_Node000004"><a xlink:href="../../df/d07/a01537.html#adb90287e5ae55991c17a08e912aff67c" target="_top" xlink:title=" ">
<polygon fill="white" stroke="#666666" points="146.88,-382 8.62,-382 8.62,-350 146.88,-350 146.88,-382"/>
<text text-anchor="start" x="16.62" y="-368.5" font-family="Helvetica,sans-Serif" font-size="10.00">GEU::DatabaseQueryPopup</text>
<text text-anchor="middle" x="77.75" y="-356.5" font-family="Helvetica,sans-Serif" font-size="10.00">::makeFormCamara</text>
</a>
</g>
</g>
<!-- Node1&#45;&gt;Node4 -->
<g id="edge3_Node000001_Node000004" class="edge">
<title>Node1&#45;&gt;Node4</title>
<g id="a_edge3_Node000001_Node000004"><a xlink:title=" ">
<path fill="none" stroke="#63b8ff" d="M227.51,-266.57C211.51,-289.13 185.44,-321.39 155.5,-341 150.58,-344.23 145.2,-347.06 139.66,-349.56"/>
<polygon fill="#63b8ff" stroke="#63b8ff" points="230.27,-268.72 233.07,-258.51 224.51,-264.75 230.27,-268.72"/>
</a>
</g>
</g>
<!-- Node5 -->
<g id="Node000005" class="node">
<title>Node5</title>
<g id="a_Node000005"><a xlink:href="../../df/d07/a01537.html#a83023007463bdd6e6a4b40c55146b825" target="_top" xlink:title=" ">
<polygon fill="white" stroke="#666666" points="146.88,-332 8.62,-332 8.62,-300 146.88,-300 146.88,-332"/>
<text text-anchor="start" x="16.62" y="-318.5" font-family="Helvetica,sans-Serif" font-size="10.00">GEU::DatabaseQueryPopup</text>
<text text-anchor="middle" x="77.75" y="-306.5" font-family="Helvetica,sans-Serif" font-size="10.00">::makeFormDatoCrudo</text>
</a>
</g>
</g>
<!-- Node1&#45;&gt;Node5 -->
<g id="edge4_Node000001_Node000005" class="edge">
<title>Node1&#45;&gt;Node5</title>
<g id="a_edge4_Node000001_Node000005"><a xlink:title=" ">
<path fill="none" stroke="#63b8ff" d="M209.08,-262.94C193.1,-272.35 173.74,-282.99 155.5,-291 148.57,-294.04 141.15,-296.92 133.75,-299.55"/>
<polygon fill="#63b8ff" stroke="#63b8ff" points="210.46,-266.2 217.25,-258.06 206.87,-260.19 210.46,-266.2"/>
</a>
</g>
</g>
<!-- Node6 -->
<g id="Node000006" class="node">
<title>Node6</title>
<g id="a_Node000006"><a xlink:href="../../df/d07/a01537.html#a1946c8c9ce8e263ceda1d7cc6da23e9e" target="_top" xlink:title=" ">
<polygon fill="white" stroke="#666666" points="146.88,-282 8.62,-282 8.62,-250 146.88,-250 146.88,-282"/>
<text text-anchor="start" x="16.62" y="-268.5" font-family="Helvetica,sans-Serif" font-size="10.00">GEU::DatabaseQueryPopup</text>
<text text-anchor="middle" x="77.75" y="-256.5" font-family="Helvetica,sans-Serif" font-size="10.00">::makeFormDron</text>
</a>
</g>
</g>
<!-- Node1&#45;&gt;Node6 -->
<g id="edge5_Node000001_Node000006" class="edge">
<title>Node1&#45;&gt;Node6</title>
<g id="a_edge5_Node000001_Node000006"><a xlink:title=" ">
<path fill="none" stroke="#63b8ff" d="M180.29,-250.66C169.42,-252.3 158.08,-254.02 147.1,-255.68"/>
<polygon fill="#63b8ff" stroke="#63b8ff" points="180.57,-254.16 189.93,-249.2 179.52,-247.24 180.57,-254.16"/>
</a>
</g>
</g>
<!-- Node7 -->
<g id="Node000007" class="node">
<title>Node7</title>
<g id="a_Node000007"><a xlink:href="../../df/d07/a01537.html#a7e928a635f870efcaf7dc0826c039858" target="_top" xlink:title=" ">
<polygon fill="white" stroke="#666666" points="146.88,-232 8.62,-232 8.62,-200 146.88,-200 146.88,-232"/>
<text text-anchor="start" x="16.62" y="-218.5" font-family="Helvetica,sans-Serif" font-size="10.00">GEU::DatabaseQueryPopup</text>
<text text-anchor="middle" x="77.75" y="-206.5" font-family="Helvetica,sans-Serif" font-size="10.00">::makeFormFinca</text>
</a>
</g>
</g>
<!-- Node1&#45;&gt;Node7 -->
<g id="edge6_Node000001_Node000007" class="edge">
<title>Node1&#45;&gt;Node7</title>
<g id="a_edge6_Node000001_Node000007"><a xlink:title=" ">
<path fill="none" stroke="#63b8ff" d="M180.29,-231.34C169.42,-229.7 158.08,-227.98 147.1,-226.32"/>
<polygon fill="#63b8ff" stroke="#63b8ff" points="179.52,-234.76 189.93,-232.8 180.57,-227.84 179.52,-234.76"/>
</a>
</g>
</g>
<!-- Node8 -->
<g id="Node000008" class="node">
<title>Node8</title>
<g id="a_Node000008"><a xlink:href="../../df/d07/a01537.html#aee96f5bdc802183d992461ccf7af7606" target="_top" xlink:title=" ">
<polygon fill="white" stroke="#666666" points="146.88,-182 8.62,-182 8.62,-150 146.88,-150 146.88,-182"/>
<text text-anchor="start" x="16.62" y="-168.5" font-family="Helvetica,sans-Serif" font-size="10.00">GEU::DatabaseQueryPopup</text>
<text text-anchor="middle" x="77.75" y="-156.5" font-family="Helvetica,sans-Serif" font-size="10.00">::makeFormObjeto</text>
</a>
</g>
</g>
<!-- Node1&#45;&gt;Node8 -->
<g id="edge7_Node000001_Node000008" class="edge">
<title>Node1&#45;&gt;Node8</title>
<g id="a_edge7_Node000001_Node000008"><a xlink:title=" ">
<path fill="none" stroke="#63b8ff" d="M209.08,-219.06C193.1,-209.65 173.74,-199.01 155.5,-191 148.57,-187.96 141.15,-185.08 133.75,-182.45"/>
<polygon fill="#63b8ff" stroke="#63b8ff" points="206.87,-221.81 217.25,-223.94 210.46,-215.8 206.87,-221.81"/>
</a>
</g>
</g>
<!-- Node9 -->
<g id="Node000009" class="node">
<title>Node9</title>
<g id="a_Node000009"><a xlink:href="../../df/d07/a01537.html#a6799cf756f5e2cb191268e786a8df4ba" target="_top" xlink:title=" ">
<polygon fill="white" stroke="#666666" points="146.88,-132 8.62,-132 8.62,-100 146.88,-100 146.88,-132"/>
<text text-anchor="start" x="16.62" y="-118.5" font-family="Helvetica,sans-Serif" font-size="10.00">GEU::DatabaseQueryPopup</text>
<text text-anchor="middle" x="77.75" y="-106.5" font-family="Helvetica,sans-Serif" font-size="10.00">::makeFormVuelos</text>
</a>
</g>
</g>
<!-- Node1&#45;&gt;Node9 -->
<g id="edge8_Node000001_Node000009" class="edge">
<title>Node1&#45;&gt;Node9</title>
<g id="a_edge8_Node000001_Node000009"><a xlink:title=" ">
<path fill="none" stroke="#63b8ff" d="M227.51,-215.43C211.51,-192.87 185.44,-160.61 155.5,-141 150.58,-137.77 145.2,-134.94 139.66,-132.44"/>
<polygon fill="#63b8ff" stroke="#63b8ff" points="224.51,-217.25 233.07,-223.49 230.27,-213.28 224.51,-217.25"/>
</a>
</g>
</g>
<!-- Node10 -->
<g id="Node000010" class="node">
<title>Node10</title>
<g id="a_Node000010"><a xlink:href="../../df/d07/a01537.html#ad5e45356898c5dfc51d7ef890f7a5b41" target="_top" xlink:title=" ">
<polygon fill="white" stroke="#666666" points="146.88,-82 8.62,-82 8.62,-50 146.88,-50 146.88,-82"/>
<text text-anchor="start" x="16.62" y="-68.5" font-family="Helvetica,sans-Serif" font-size="10.00">GEU::DatabaseQueryPopup</text>
<text text-anchor="middle" x="77.75" y="-56.5" font-family="Helvetica,sans-Serif" font-size="10.00">::makeFormZona</text>
</a>
</g>
</g>
<!-- Node1&#45;&gt;Node10 -->
<g id="edge9_Node000001_Node000010" class="edge">
<title>Node1&#45;&gt;Node10</title>
<g id="a_edge9_Node000001_Node000010"><a xlink:title=" ">
<path fill="none" stroke="#63b8ff" d="M235.11,-214.04C222.41,-180.5 196.26,-123.67 155.5,-91 151.45,-87.76 146.97,-84.93 142.27,-82.46"/>
<polygon fill="#63b8ff" stroke="#63b8ff" points="231.82,-215.23 238.53,-223.43 238.4,-212.84 231.82,-215.23"/>
</a>
</g>
</g>
<!-- Node11 -->
<g id="Node000011" class="node">
<title>Node11</title>
<g id="a_Node000011"><a xlink:href="../../df/d07/a01537.html#afc8c81955f8b810c699753b511f61031" target="_top" xlink:title=" ">
<polygon fill="white" stroke="#666666" points="146.88,-32 8.62,-32 8.62,0 146.88,0 146.88,-32"/>
<text text-anchor="start" x="16.62" y="-18.5" font-family="Helvetica,sans-Serif" font-size="10.00">GEU::DatabaseQueryPopup</text>
<text text-anchor="middle" x="77.75" y="-6.5" font-family="Helvetica,sans-Serif" font-size="10.00">::makeZonaSelectorTable</text>
</a>
</g>
</g>
<!-- Node1&#45;&gt;Node11 -->
<g id="edge10_Node000001_Node000011" class="edge">
<title>Node1&#45;&gt;Node11</title>
<g id="a_edge10_Node000001_Node000011"><a xlink:title=" ">
<path fill="none" stroke="#63b8ff" d="M239.42,-213.4C230.49,-170.47 207.34,-87.77 155.5,-41 151.86,-37.71 147.78,-34.86 143.45,-32.38"/>
<polygon fill="#63b8ff" stroke="#63b8ff" points="235.98,-214.01 241.33,-223.15 242.85,-212.67 235.98,-214.01"/>
</a>
</g>
</g>
</g>
</svg>
