<?xml version="1.0" encoding="UTF-8" standalone="no"?>
<!DOCTYPE svg PUBLIC "-//W3C//DTD SVG 1.1//EN"
 "http://www.w3.org/Graphics/SVG/1.1/DTD/svg11.dtd">
<!-- Generated by graphviz version 10.0.1 (20240210.2158)
 -->
<!-- Title: GEU::InterfaceAdapter Pages: 1 -->
<svg width="122pt" height="177pt"
 viewBox="0.00 0.00 121.50 177.00" xmlns="http://www.w3.org/2000/svg" xmlns:xlink="http://www.w3.org/1999/xlink">
<g id="graph0" class="graph" transform="scale(1 1) rotate(0) translate(4 173)">
<title>GEU::InterfaceAdapter</title>
<!-- Node1 -->
<g id="Node000001" class="node">
<title>Node1</title>
<g id="a_Node000001"><a xlink:title="Adapter pattern for GUI windows and functionality.">
<polygon fill="#999999" stroke="#666666" points="113.5,-20 0,-20 0,0 113.5,0 113.5,-20"/>
<text text-anchor="middle" x="56.75" y="-6.5" font-family="Helvetica,sans-Serif" font-size="10.00">GEU::InterfaceAdapter</text>
</a>
</g>
</g>
<!-- Node2 -->
<g id="Node000002" class="node">
<title>Node2</title>
<g id="a_Node000002"><a xlink:title=" ">
<polygon fill="white" stroke="#666666" points="86.5,-100 27,-100 27,-80 86.5,-80 86.5,-100"/>
<text text-anchor="middle" x="56.75" y="-86.5" font-family="Helvetica,sans-Serif" font-size="10.00">std::string</text>
</a>
</g>
</g>
<!-- Node2&#45;&gt;Node1 -->
<g id="edge1_Node000001_Node000002" class="edge">
<title>Node2&#45;&gt;Node1</title>
<g id="a_edge1_Node000001_Node000002"><a xlink:title=" ">
<path fill="none" stroke="#9a32cd" stroke-dasharray="5,2" d="M56.75,-68.59C56.75,-52.94 56.75,-32.08 56.75,-20.24"/>
<polygon fill="#9a32cd" stroke="#9a32cd" points="53.25,-68.23 56.75,-78.23 60.25,-68.23 53.25,-68.23"/>
</a>
</g>
<text text-anchor="middle" x="79.25" y="-52.5" font-family="Helvetica,sans-Serif" font-size="10.00" fill="grey"> _icon</text>
<text text-anchor="middle" x="79.25" y="-40.5" font-family="Helvetica,sans-Serif" font-size="10.00" fill="grey">_methodId</text>
</g>
<!-- Node3 -->
<g id="Node000003" class="node">
<title>Node3</title>
<g id="a_Node000003"><a xlink:title=" ">
<polygon fill="white" stroke="#666666" points="103.75,-169 9.75,-169 9.75,-137 103.75,-137 103.75,-169"/>
<text text-anchor="start" x="17.75" y="-155.5" font-family="Helvetica,sans-Serif" font-size="10.00">std::basic_string&lt;</text>
<text text-anchor="middle" x="56.75" y="-143.5" font-family="Helvetica,sans-Serif" font-size="10.00"> Char &gt;</text>
</a>
</g>
</g>
<!-- Node3&#45;&gt;Node2 -->
<g id="edge2_Node000002_Node000003" class="edge">
<title>Node3&#45;&gt;Node2</title>
<g id="a_edge2_Node000002_Node000003"><a xlink:title=" ">
<path fill="none" stroke="#63b8ff" d="M56.75,-125.36C56.75,-116.41 56.75,-107.01 56.75,-100.31"/>
<polygon fill="#63b8ff" stroke="#63b8ff" points="53.25,-125.09 56.75,-135.09 60.25,-125.09 53.25,-125.09"/>
</a>
</g>
</g>
</g>
</svg>
