<?xml version="1.0" encoding="UTF-8" standalone="no"?>
<!DOCTYPE svg PUBLIC "-//W3C//DTD SVG 1.1//EN"
 "http://www.w3.org/Graphics/SVG/1.1/DTD/svg11.dtd">
<!-- Generated by graphviz version 10.0.1 (20240210.2158)
 -->
<!-- Title: GEU::DetailsWindow::makeMaterialItemInspector Pages: 1 -->
<svg width="476pt" height="516pt"
 viewBox="0.00 0.00 476.00 516.00" xmlns="http://www.w3.org/2000/svg" xmlns:xlink="http://www.w3.org/1999/xlink">
<g id="graph0" class="graph" transform="scale(1 1) rotate(0) translate(4 512)">
<title>GEU::DetailsWindow::makeMaterialItemInspector</title>
<!-- Node1 -->
<g id="Node000001" class="node">
<title>Node1</title>
<g id="a_Node000001"><a xlink:title=" ">
<polygon fill="#999999" stroke="#666666" points="139,-248 0,-248 0,-216 139,-216 139,-248"/>
<text text-anchor="start" x="8" y="-234.5" font-family="Helvetica,sans-Serif" font-size="10.00">GEU::DetailsWindow</text>
<text text-anchor="middle" x="69.5" y="-222.5" font-family="Helvetica,sans-Serif" font-size="10.00">::makeMaterialItemInspector</text>
</a>
</g>
</g>
<!-- Node2 -->
<g id="Node000002" class="node">
<title>Node2</title>
<g id="a_Node000002"><a xlink:href="../../d7/d04/a00634.html#a95d5f616a34dd70aca4886e546720966" target="_top" xlink:title=" ">
<polygon fill="white" stroke="#666666" points="294.12,-358 197.88,-358 197.88,-326 294.12,-326 294.12,-358"/>
<text text-anchor="start" x="205.88" y="-344.5" font-family="Helvetica,sans-Serif" font-size="10.00">GEU::GuiUtilities::</text>
<text text-anchor="middle" x="246" y="-332.5" font-family="Helvetica,sans-Serif" font-size="10.00">BeginCombo</text>
</a>
</g>
</g>
<!-- Node1&#45;&gt;Node2 -->
<g id="edge1_Node000001_Node000002" class="edge">
<title>Node1&#45;&gt;Node2</title>
<g id="a_edge1_Node000001_Node000002"><a xlink:title=" ">
<path fill="none" stroke="#63b8ff" d="M88.76,-248.24C108.86,-265.57 142.65,-293.08 175,-312 180.28,-315.09 185.94,-318.04 191.66,-320.8"/>
<polygon fill="#63b8ff" stroke="#63b8ff" points="190.05,-323.91 200.6,-324.93 192.99,-317.56 190.05,-323.91"/>
</a>
</g>
</g>
<!-- Node4 -->
<g id="Node000004" class="node">
<title>Node4</title>
<g id="a_Node000004"><a xlink:href="../../d7/d04/a00634.html#a4ca438ae0623d75ff22b4b17dfd3a820" target="_top" xlink:title=" ">
<polygon fill="white" stroke="#666666" points="468,-402 353,-402 353,-382 468,-382 468,-402"/>
<text text-anchor="middle" x="410.5" y="-388.5" font-family="Helvetica,sans-Serif" font-size="10.00">GEU::GuiUtilities::Text</text>
</a>
</g>
</g>
<!-- Node1&#45;&gt;Node4 -->
<g id="edge20_Node000001_Node000004" class="edge">
<title>Node1&#45;&gt;Node4</title>
<g id="a_edge20_Node000001_Node000004"><a xlink:title=" ">
<path fill="none" stroke="#63b8ff" d="M103.35,-248.42C123.66,-258.16 150.45,-270.26 175,-279 236.55,-300.91 258.79,-287.33 317,-317 345.86,-331.71 374.05,-356.51 391.57,-373.54"/>
<polygon fill="#63b8ff" stroke="#63b8ff" points="389.08,-376 398.64,-380.57 394.02,-371.04 389.08,-376"/>
</a>
</g>
</g>
<!-- Node5 -->
<g id="Node000005" class="node">
<title>Node5</title>
<g id="a_Node000005"><a xlink:href="../../d7/d04/a00634.html#a7e5f58fc1e47794679b999cd5778b7aa" target="_top" xlink:title=" ">
<polygon fill="white" stroke="#666666" points="294.12,-270 197.88,-270 197.88,-238 294.12,-238 294.12,-270"/>
<text text-anchor="start" x="205.88" y="-256.5" font-family="Helvetica,sans-Serif" font-size="10.00">GEU::GuiUtilities::</text>
<text text-anchor="middle" x="246" y="-244.5" font-family="Helvetica,sans-Serif" font-size="10.00">CollapsingHeader</text>
</a>
</g>
</g>
<!-- Node1&#45;&gt;Node5 -->
<g id="edge4_Node000001_Node000005" class="edge">
<title>Node1&#45;&gt;Node5</title>
<g id="a_edge4_Node000001_Node000005"><a xlink:title=" ">
<path fill="none" stroke="#63b8ff" d="M139.47,-240.69C154.95,-242.65 171.24,-244.7 186.27,-246.6"/>
<polygon fill="#63b8ff" stroke="#63b8ff" points="185.61,-250.04 195.97,-247.82 186.49,-243.1 185.61,-250.04"/>
</a>
</g>
</g>
<!-- Node6 -->
<g id="Node000006" class="node">
<title>Node6</title>
<g id="a_Node000006"><a xlink:href="../../d7/d04/a00634.html#ae128381ddcd82162c730d91f06492621" target="_top" xlink:title=" ">
<polygon fill="white" stroke="#666666" points="294.12,-508 197.88,-508 197.88,-476 294.12,-476 294.12,-508"/>
<text text-anchor="start" x="205.88" y="-494.5" font-family="Helvetica,sans-Serif" font-size="10.00">GEU::GuiUtilities::</text>
<text text-anchor="middle" x="246" y="-482.5" font-family="Helvetica,sans-Serif" font-size="10.00">DragFloat</text>
</a>
</g>
</g>
<!-- Node1&#45;&gt;Node6 -->
<g id="edge5_Node000001_Node000006" class="edge">
<title>Node1&#45;&gt;Node6</title>
<g id="a_edge5_Node000001_Node000006"><a xlink:title=" ">
<path fill="none" stroke="#63b8ff" d="M73.18,-248.23C80.99,-290.4 107.56,-404.46 175,-467 178.72,-470.45 182.95,-473.43 187.44,-476"/>
<polygon fill="#63b8ff" stroke="#63b8ff" points="185.73,-479.06 196.25,-480.34 188.82,-472.78 185.73,-479.06"/>
</a>
</g>
</g>
<!-- Node7 -->
<g id="Node000007" class="node">
<title>Node7</title>
<g id="a_Node000007"><a xlink:href="../../de/d05/a01732.html#acf876917d24a55f8ac66a9476c309406" target="_top" xlink:title=" ">
<polygon fill="white" stroke="#666666" points="317,-220 175,-220 175,-200 317,-200 317,-220"/>
<text text-anchor="middle" x="246" y="-206.5" font-family="Helvetica,sans-Serif" font-size="10.00">GEU::Renderer::getAppState</text>
</a>
</g>
</g>
<!-- Node1&#45;&gt;Node7 -->
<g id="edge8_Node000001_Node000007" class="edge">
<title>Node1&#45;&gt;Node7</title>
<g id="a_edge8_Node000001_Node000007"><a xlink:title=" ">
<path fill="none" stroke="#63b8ff" d="M139.47,-223.31C147.3,-222.32 155.34,-221.3 163.32,-220.3"/>
<polygon fill="#63b8ff" stroke="#63b8ff" points="163.55,-223.8 173.03,-219.07 162.67,-216.85 163.55,-223.8"/>
</a>
</g>
</g>
<!-- Node8 -->
<g id="Node000008" class="node">
<title>Node8</title>
<g id="a_Node000008"><a xlink:href="../../d1/d01/a02032.html#a47c7e7c2110f4cc59c9ff1f5594c366e" target="_top" xlink:title=" ">
<polygon fill="white" stroke="#666666" points="311.75,-182 180.25,-182 180.25,-150 311.75,-150 311.75,-182"/>
<text text-anchor="start" x="188.25" y="-168.5" font-family="Helvetica,sans-Serif" font-size="10.00">GEU::Singleton&lt; Renderer</text>
<text text-anchor="middle" x="246" y="-156.5" font-family="Helvetica,sans-Serif" font-size="10.00"> &gt;::getInstance</text>
</a>
</g>
</g>
<!-- Node1&#45;&gt;Node8 -->
<g id="edge9_Node000001_Node000008" class="edge">
<title>Node1&#45;&gt;Node8</title>
<g id="a_edge9_Node000001_Node000008"><a xlink:title=" ">
<path fill="none" stroke="#63b8ff" d="M93.66,-215.63C112.48,-206.37 140,-195.28 169.02,-184.27"/>
<polygon fill="#63b8ff" stroke="#63b8ff" points="170.23,-187.56 178.35,-180.76 167.76,-181.01 170.23,-187.56"/>
</a>
</g>
</g>
<!-- Node1&#45;&gt;Node8 -->
<g id="edge10_Node000001_Node000008" class="edge">
<title>Node1&#45;&gt;Node8</title>
<g id="a_edge10_Node000001_Node000008"><a xlink:title=" ">
<path fill="none" stroke="#63b8ff" d="M133.93,-215.54C147.46,-210.47 161.68,-204.99 175,-200 186.45,-195.71 199.01,-191.17 210.29,-186.7"/>
<polygon fill="#63b8ff" stroke="#63b8ff" points="211.32,-190.06 219.24,-183.02 208.66,-183.59 211.32,-190.06"/>
</a>
</g>
</g>
<!-- Node9 -->
<g id="Node000009" class="node">
<title>Node9</title>
<g id="a_Node000009"><a xlink:href="../../d7/d04/a00634.html#a0c8f0f5af8119c36fa703bc2ed301bde" target="_top" xlink:title=" ">
<polygon fill="white" stroke="#666666" points="294.12,-458 197.88,-458 197.88,-426 294.12,-426 294.12,-458"/>
<text text-anchor="start" x="205.88" y="-444.5" font-family="Helvetica,sans-Serif" font-size="10.00">GEU::GuiUtilities::</text>
<text text-anchor="middle" x="246" y="-432.5" font-family="Helvetica,sans-Serif" font-size="10.00">InputText</text>
</a>
</g>
</g>
<!-- Node1&#45;&gt;Node9 -->
<g id="edge11_Node000001_Node000009" class="edge">
<title>Node1&#45;&gt;Node9</title>
<g id="a_edge11_Node000001_Node000009"><a xlink:title=" ">
<path fill="none" stroke="#63b8ff" d="M75.38,-248.4C86.85,-284.16 118.85,-369.72 175,-417 178.82,-420.22 183.09,-423.04 187.59,-425.5"/>
<polygon fill="#63b8ff" stroke="#63b8ff" points="185.79,-428.52 196.32,-429.69 188.82,-422.21 185.79,-428.52"/>
</a>
</g>
</g>
<!-- Node10 -->
<g id="Node000010" class="node">
<title>Node10</title>
<g id="a_Node000010"><a xlink:href="../../df/d00/a01728.html#aa2cc4ef7782808bbcb396356b17265c8" target="_top" xlink:title=" ">
<polygon fill="white" stroke="#666666" points="295.62,-132 196.38,-132 196.38,-100 295.62,-100 295.62,-132"/>
<text text-anchor="start" x="204.38" y="-118.5" font-family="Helvetica,sans-Serif" font-size="10.00">GEU::MaterialList::</text>
<text text-anchor="middle" x="246" y="-106.5" font-family="Helvetica,sans-Serif" font-size="10.00">isMaterialAvailable</text>
</a>
</g>
</g>
<!-- Node1&#45;&gt;Node10 -->
<g id="edge14_Node000001_Node000010" class="edge">
<title>Node1&#45;&gt;Node10</title>
<g id="a_edge14_Node000001_Node000010"><a xlink:title=" ">
<path fill="none" stroke="#63b8ff" d="M85.34,-215.79C104.39,-195.8 139.29,-161.91 175,-141 178.39,-139.02 181.96,-137.15 185.62,-135.4"/>
<polygon fill="#63b8ff" stroke="#63b8ff" points="186.98,-138.63 194.73,-131.4 184.16,-132.22 186.98,-138.63"/>
</a>
</g>
</g>
<!-- Node11 -->
<g id="Node000011" class="node">
<title>Node11</title>
<g id="a_Node000011"><a xlink:href="../../d7/d04/a00634.html#a9e9d1bf63c5c0e2c1eee6a30dc2dc83d" target="_top" xlink:title=" ">
<polygon fill="white" stroke="#666666" points="294.12,-82 197.88,-82 197.88,-50 294.12,-50 294.12,-82"/>
<text text-anchor="start" x="205.88" y="-68.5" font-family="Helvetica,sans-Serif" font-size="10.00">GEU::GuiUtilities::</text>
<text text-anchor="middle" x="246" y="-56.5" font-family="Helvetica,sans-Serif" font-size="10.00">Selectable</text>
</a>
</g>
</g>
<!-- Node1&#45;&gt;Node11 -->
<g id="edge15_Node000001_Node000011" class="edge">
<title>Node1&#45;&gt;Node11</title>
<g id="a_edge15_Node000001_Node000011"><a xlink:title=" ">
<path fill="none" stroke="#63b8ff" d="M78.48,-215.59C93.46,-186.45 128.5,-125.48 175,-91 178.79,-88.19 182.93,-85.67 187.23,-83.42"/>
<polygon fill="#63b8ff" stroke="#63b8ff" points="188.54,-86.67 196.13,-79.28 185.58,-80.33 188.54,-86.67"/>
</a>
</g>
</g>
<!-- Node12 -->
<g id="Node000012" class="node">
<title>Node12</title>
<g id="a_Node000012"><a xlink:href="../../d7/d04/a00634.html#a6f3cbc6ade0d6aac130d1179806fa56c" target="_top" xlink:title=" ">
<polygon fill="white" stroke="#666666" points="294.12,-408 197.88,-408 197.88,-376 294.12,-376 294.12,-408"/>
<text text-anchor="start" x="205.88" y="-394.5" font-family="Helvetica,sans-Serif" font-size="10.00">GEU::GuiUtilities::</text>
<text text-anchor="middle" x="246" y="-382.5" font-family="Helvetica,sans-Serif" font-size="10.00">SliderInt</text>
</a>
</g>
</g>
<!-- Node1&#45;&gt;Node12 -->
<g id="edge16_Node000001_Node000012" class="edge">
<title>Node1&#45;&gt;Node12</title>
<g id="a_edge16_Node000001_Node000012"><a xlink:title=" ">
<path fill="none" stroke="#63b8ff" d="M78.91,-248.14C94.31,-276.2 129.66,-334.11 175,-367 178.82,-369.77 182.98,-372.26 187.29,-374.49"/>
<polygon fill="#63b8ff" stroke="#63b8ff" points="185.67,-377.59 196.21,-378.61 188.6,-371.24 185.67,-377.59"/>
</a>
</g>
</g>
<!-- Node13 -->
<g id="Node000013" class="node">
<title>Node13</title>
<g id="a_Node000013"><a xlink:href="../../d9/d05/a01748.html#aa19ebcf32b24d74a3754e7d2747fc22e" target="_top" xlink:title=" ">
<polygon fill="white" stroke="#666666" points="304.62,-32 187.38,-32 187.38,0 304.62,0 304.62,-32"/>
<text text-anchor="start" x="195.38" y="-18.5" font-family="Helvetica,sans-Serif" font-size="10.00">GEU::RenderingShader</text>
<text text-anchor="middle" x="246" y="-6.5" font-family="Helvetica,sans-Serif" font-size="10.00">::support</text>
</a>
</g>
</g>
<!-- Node1&#45;&gt;Node13 -->
<g id="edge19_Node000001_Node000013" class="edge">
<title>Node1&#45;&gt;Node13</title>
<g id="a_edge19_Node000001_Node000013"><a xlink:title=" ">
<path fill="none" stroke="#63b8ff" d="M75.06,-215.63C86.06,-179.05 117.5,-90.08 175,-41 175.96,-40.18 176.94,-39.39 177.95,-38.63"/>
<polygon fill="#63b8ff" stroke="#63b8ff" points="179.85,-41.57 186.36,-33.21 176.06,-35.69 179.85,-41.57"/>
</a>
</g>
</g>
<!-- Node3 -->
<g id="Node000003" class="node">
<title>Node3</title>
<g id="a_Node000003"><a xlink:href="../../d7/d04/a00634.html#a93d270e10057bb4a04b130a9e20301e2" target="_top" xlink:title=" ">
<polygon fill="white" stroke="#666666" points="460.88,-455 360.12,-455 360.12,-423 460.88,-423 460.88,-455"/>
<text text-anchor="start" x="368.12" y="-441.5" font-family="Helvetica,sans-Serif" font-size="10.00">GEU::GuiUtilities::</text>
<text text-anchor="middle" x="410.5" y="-429.5" font-family="Helvetica,sans-Serif" font-size="10.00">NextItemFillColumn</text>
</a>
</g>
</g>
<!-- Node2&#45;&gt;Node3 -->
<g id="edge2_Node000002_Node000003" class="edge">
<title>Node2&#45;&gt;Node3</title>
<g id="a_edge2_Node000002_Node000003"><a xlink:title=" ">
<path fill="none" stroke="#63b8ff" d="M294.3,-354.91C302.26,-358.18 310.14,-362.17 317,-367 337.65,-381.56 333.24,-395.26 353,-411 355.53,-413.01 358.23,-414.94 361.02,-416.76"/>
<polygon fill="#63b8ff" stroke="#63b8ff" points="359.1,-419.69 369.48,-421.8 362.68,-413.68 359.1,-419.69"/>
</a>
</g>
</g>
<!-- Node2&#45;&gt;Node4 -->
<g id="edge3_Node000002_Node000004" class="edge">
<title>Node2&#45;&gt;Node4</title>
<g id="a_edge3_Node000002_Node000004"><a xlink:title=" ">
<path fill="none" stroke="#63b8ff" d="M294.44,-356.6C316.54,-363.4 342.69,-371.44 364.48,-378.15"/>
<polygon fill="#63b8ff" stroke="#63b8ff" points="363.4,-381.48 373.99,-381.07 365.46,-374.79 363.4,-381.48"/>
</a>
</g>
</g>
<!-- Node6&#45;&gt;Node3 -->
<g id="edge6_Node000006_Node000003" class="edge">
<title>Node6&#45;&gt;Node3</title>
<g id="a_edge6_Node000006_Node000003"><a xlink:title=" ">
<path fill="none" stroke="#63b8ff" d="M294.44,-476.53C311.51,-470.96 331,-464.6 349.03,-458.72"/>
<polygon fill="#63b8ff" stroke="#63b8ff" points="349.88,-462.13 358.3,-455.7 347.71,-455.47 349.88,-462.13"/>
</a>
</g>
</g>
<!-- Node6&#45;&gt;Node4 -->
<g id="edge7_Node000006_Node000004" class="edge">
<title>Node6&#45;&gt;Node4</title>
<g id="a_edge7_Node000006_Node000004"><a xlink:title=" ">
<path fill="none" stroke="#63b8ff" d="M294.31,-479.74C302.35,-476.4 310.26,-472.21 317,-467 339.52,-449.57 330.73,-431.74 353,-414 356.06,-411.56 359.41,-409.37 362.92,-407.41"/>
<polygon fill="#63b8ff" stroke="#63b8ff" points="364.27,-410.64 371.72,-403.1 361.2,-404.35 364.27,-410.64"/>
</a>
</g>
</g>
<!-- Node9&#45;&gt;Node3 -->
<g id="edge12_Node000009_Node000003" class="edge">
<title>Node9&#45;&gt;Node3</title>
<g id="a_edge12_Node000009_Node000003"><a xlink:title=" ">
<path fill="none" stroke="#63b8ff" d="M294.44,-441.12C311.27,-440.81 330.45,-440.46 348.27,-440.13"/>
<polygon fill="#63b8ff" stroke="#63b8ff" points="348.29,-443.63 358.23,-439.95 348.16,-436.63 348.29,-443.63"/>
</a>
</g>
</g>
<!-- Node9&#45;&gt;Node4 -->
<g id="edge13_Node000009_Node000004" class="edge">
<title>Node9&#45;&gt;Node4</title>
<g id="a_edge13_Node000009_Node000004"><a xlink:title=" ">
<path fill="none" stroke="#63b8ff" d="M294.44,-427.4C316.54,-420.6 342.69,-412.56 364.48,-405.85"/>
<polygon fill="#63b8ff" stroke="#63b8ff" points="365.46,-409.21 373.99,-402.93 363.4,-402.52 365.46,-409.21"/>
</a>
</g>
</g>
<!-- Node12&#45;&gt;Node3 -->
<g id="edge17_Node000012_Node000003" class="edge">
<title>Node12&#45;&gt;Node3</title>
<g id="a_edge17_Node000012_Node000003"><a xlink:title=" ">
<path fill="none" stroke="#63b8ff" d="M294.44,-405.72C311.43,-410.63 330.82,-416.24 348.78,-421.44"/>
<polygon fill="#63b8ff" stroke="#63b8ff" points="347.71,-424.77 358.29,-424.19 349.65,-418.05 347.71,-424.77"/>
</a>
</g>
</g>
<!-- Node12&#45;&gt;Node4 -->
<g id="edge18_Node000012_Node000004" class="edge">
<title>Node12&#45;&gt;Node4</title>
<g id="a_edge18_Node000012_Node000004"><a xlink:title=" ">
<path fill="none" stroke="#63b8ff" d="M294.44,-392C309.06,-392 325.47,-392 341.2,-392"/>
<polygon fill="#63b8ff" stroke="#63b8ff" points="341,-395.5 351,-392 341,-388.5 341,-395.5"/>
</a>
</g>
</g>
</g>
</svg>
