<?xml version="1.0" encoding="UTF-8" standalone="no"?>
<!DOCTYPE svg PUBLIC "-//W3C//DTD SVG 1.1//EN"
 "http://www.w3.org/Graphics/SVG/1.1/DTD/svg11.dtd">
<!-- Generated by graphviz version 10.0.1 (20240210.2158)
 -->
<!-- Title: ProceduralVoxel::internalDistribution Pages: 1 -->
<svg width="306pt" height="116pt"
 viewBox="0.00 0.00 306.25 116.00" xmlns="http://www.w3.org/2000/svg" xmlns:xlink="http://www.w3.org/1999/xlink">
<g id="graph0" class="graph" transform="scale(1 1) rotate(0) translate(4 112)">
<title>ProceduralVoxel::internalDistribution</title>
<!-- Node1 -->
<g id="Node000001" class="node">
<title>Node1</title>
<g id="a_Node000001"><a xlink:title=" ">
<polygon fill="#999999" stroke="#666666" points="124.75,-64 0,-64 0,-32 124.75,-32 124.75,-64"/>
<text text-anchor="start" x="8" y="-50.5" font-family="Helvetica,sans-Serif" font-size="10.00">ProceduralVoxel::internal</text>
<text text-anchor="middle" x="62.38" y="-38.5" font-family="Helvetica,sans-Serif" font-size="10.00">Distribution</text>
</a>
</g>
</g>
<!-- Node2 -->
<g id="Node000002" class="node">
<title>Node2</title>
<g id="a_Node000002"><a xlink:href="../../db/d05/a01637.html#a52698b429492303948167bed5da1a0d9" target="_top" xlink:title=" ">
<polygon fill="white" stroke="#666666" points="298.25,-108 160.75,-108 160.75,-76 298.25,-76 298.25,-108"/>
<text text-anchor="start" x="168.75" y="-94.5" font-family="Helvetica,sans-Serif" font-size="10.00">GEU::PointCloud::getPoints</text>
<text text-anchor="middle" x="229.5" y="-82.5" font-family="Helvetica,sans-Serif" font-size="10.00">Position</text>
</a>
</g>
</g>
<!-- Node1&#45;&gt;Node2 -->
<g id="edge1_Node000001_Node000002" class="edge">
<title>Node1&#45;&gt;Node2</title>
<g id="a_edge1_Node000001_Node000002"><a xlink:title=" ">
<path fill="none" stroke="#63b8ff" d="M124.86,-64.38C134.89,-67.06 145.37,-69.85 155.65,-72.59"/>
<polygon fill="#63b8ff" stroke="#63b8ff" points="154.66,-75.95 165.22,-75.14 156.46,-69.18 154.66,-75.95"/>
</a>
</g>
</g>
<!-- Node3 -->
<g id="Node000003" class="node">
<title>Node3</title>
<g id="a_Node000003"><a xlink:href="../../d6/d05/a01617.html#a29073914f600f7657f4a44937702a471" target="_top" xlink:title=" ">
<polygon fill="white" stroke="#666666" points="261.88,-58 197.12,-58 197.12,-38 261.88,-38 261.88,-58"/>
<text text-anchor="middle" x="229.5" y="-44.5" font-family="Helvetica,sans-Serif" font-size="10.00">AABB::min</text>
</a>
</g>
</g>
<!-- Node1&#45;&gt;Node3 -->
<g id="edge2_Node000001_Node000003" class="edge">
<title>Node1&#45;&gt;Node3</title>
<g id="a_edge2_Node000001_Node000003"><a xlink:title=" ">
<path fill="none" stroke="#63b8ff" d="M124.86,-48C145.12,-48 167.18,-48 185.73,-48"/>
<polygon fill="#63b8ff" stroke="#63b8ff" points="185.55,-51.5 195.55,-48 185.55,-44.5 185.55,-51.5"/>
</a>
</g>
</g>
<!-- Node4 -->
<g id="Node000004" class="node">
<title>Node4</title>
<g id="a_Node000004"><a xlink:href="../../d6/d05/a01617.html#a4c89f6c79185419d041bcf67f0921b25" target="_top" xlink:title=" ">
<polygon fill="white" stroke="#666666" points="263,-20 196,-20 196,0 263,0 263,-20"/>
<text text-anchor="middle" x="229.5" y="-6.5" font-family="Helvetica,sans-Serif" font-size="10.00">AABB::size</text>
</a>
</g>
</g>
<!-- Node1&#45;&gt;Node4 -->
<g id="edge3_Node000001_Node000004" class="edge">
<title>Node1&#45;&gt;Node4</title>
<g id="a_edge3_Node000001_Node000004"><a xlink:title=" ">
<path fill="none" stroke="#63b8ff" d="M124.86,-33.85C144.66,-29.29 166.2,-24.34 184.48,-20.13"/>
<polygon fill="#63b8ff" stroke="#63b8ff" points="185.25,-23.54 194.21,-17.89 183.68,-16.72 185.25,-23.54"/>
</a>
</g>
</g>
</g>
</svg>
