<?xml version="1.0" encoding="UTF-8" standalone="no"?>
<!DOCTYPE svg PUBLIC "-//W3C//DTD SVG 1.1//EN"
 "http://www.w3.org/Graphics/SVG/1.1/DTD/svg11.dtd">
<!-- Generated by graphviz version 10.0.1 (20240210.2158)
 -->
<!-- Title: EnvPointCloud Pages: 1 -->
<svg width="2182pt" height="550pt"
 viewBox="0.00 0.00 2182.25 550.00" xmlns="http://www.w3.org/2000/svg" xmlns:xlink="http://www.w3.org/1999/xlink">
<g id="graph0" class="graph" transform="scale(1 1) rotate(0) translate(4 546)">
<title>EnvPointCloud</title>
<!-- Node1 -->
<g id="Node000001" class="node">
<title>Node1</title>
<g id="a_Node000001"><a xlink:title=" ">
<polygon fill="#999999" stroke="#666666" points="1925.38,-422 1846.38,-422 1846.38,-402 1925.38,-402 1925.38,-422"/>
<text text-anchor="middle" x="1885.88" y="-408.5" font-family="Helvetica,sans-Serif" font-size="10.00">EnvPointCloud</text>
</a>
</g>
</g>
<!-- Node2 -->
<g id="Node000002" class="node">
<title>Node2</title>
<g id="a_Node000002"><a xlink:title=" ">
<polygon fill="white" stroke="#666666" points="382,-542 274.5,-542 274.5,-522 382,-522 382,-542"/>
<text text-anchor="middle" x="328.25" y="-528.5" font-family="Helvetica,sans-Serif" font-size="10.00">std::vector&lt; GLuint &gt;</text>
</a>
</g>
</g>
<!-- Node2&#45;&gt;Node1 -->
<g id="edge1_Node000001_Node000002" class="edge">
<title>Node2&#45;&gt;Node1</title>
<g id="a_edge1_Node000001_Node000002"><a xlink:title=" ">
<path fill="none" stroke="#9a32cd" stroke-dasharray="5,2" d="M393.72,-530.51C448.57,-529.37 529.45,-528 600,-528 600,-528 600,-528 1638,-528 1736.97,-528 1838.89,-450.68 1872.97,-422.29"/>
<polygon fill="#9a32cd" stroke="#9a32cd" points="393.86,-527.01 383.93,-530.72 394,-534.01 393.86,-527.01"/>
</a>
</g>
<text text-anchor="middle" x="1094.25" y="-530.5" font-family="Helvetica,sans-Serif" font-size="10.00" fill="grey"> _pointClass</text>
</g>
<!-- Node10 -->
<g id="Node000010" class="node">
<title>Node10</title>
<g id="a_Node000010"><a xlink:href="../../da/db2/class_g_e_u_1_1_shader_program.html" target="_top" xlink:title=" ">
<polygon fill="white" stroke="#666666" points="656.25,-404 545.75,-404 545.75,-384 656.25,-384 656.25,-404"/>
<text text-anchor="middle" x="601" y="-390.5" font-family="Helvetica,sans-Serif" font-size="10.00">GEU::ShaderProgram</text>
</a>
</g>
</g>
<!-- Node2&#45;&gt;Node10 -->
<g id="edge14_Node000010_Node000002" class="edge">
<title>Node2&#45;&gt;Node10</title>
<g id="a_edge14_Node000010_Node000002"><a xlink:title=" ">
<path fill="none" stroke="#9a32cd" stroke-dasharray="5,2" d="M376.27,-517.64C380.03,-516.18 383.73,-514.63 387.25,-513 395.76,-509.07 396.55,-505.5 405.25,-502 456.97,-481.18 479.64,-503.17 527.75,-475 558.32,-457.1 582.96,-421.81 593.89,-404.32"/>
<polygon fill="#9a32cd" stroke="#9a32cd" points="375.26,-514.28 367.06,-521 377.66,-520.86 375.26,-514.28"/>
</a>
</g>
<text text-anchor="middle" x="466.5" y="-504.5" font-family="Helvetica,sans-Serif" font-size="10.00" fill="grey"> _activeSubroutineUniform</text>
</g>
<!-- Node3 -->
<g id="Node000003" class="node">
<title>Node3</title>
<g id="a_Node000003"><a xlink:href="../../d4/dbf/class_g_e_u_1_1_point_cloud.html" target="_top" xlink:title=" ">
<polygon fill="white" stroke="#666666" points="1682.12,-273 1591.88,-273 1591.88,-253 1682.12,-253 1682.12,-273"/>
<text text-anchor="middle" x="1637" y="-259.5" font-family="Helvetica,sans-Serif" font-size="10.00">GEU::PointCloud</text>
</a>
</g>
</g>
<!-- Node3&#45;&gt;Node1 -->
<g id="edge2_Node000001_Node000003" class="edge">
<title>Node3&#45;&gt;Node1</title>
<g id="a_edge2_Node000001_Node000003"><a xlink:title=" ">
<path fill="none" stroke="#9a32cd" stroke-dasharray="5,2" d="M1665.03,-279.32C1716.04,-310.1 1825.15,-375.95 1867.53,-401.53"/>
<polygon fill="#9a32cd" stroke="#9a32cd" points="1667.03,-276.43 1656.66,-274.26 1663.41,-282.42 1667.03,-276.43"/>
</a>
</g>
<text text-anchor="middle" x="1762.38" y="-361.5" font-family="Helvetica,sans-Serif" font-size="10.00" fill="grey"> _targetPointCloud</text>
</g>
<!-- Node25 -->
<g id="Node000025" class="node">
<title>Node25</title>
<g id="a_Node000025"><a xlink:href="../../dd/dcf/struct_g_e_u_1_1_point_cloud_1_1_meshlet.html" target="_top" xlink:title=" ">
<polygon fill="white" stroke="#666666" points="1951.25,-130 1820.5,-130 1820.5,-110 1951.25,-110 1951.25,-130"/>
<text text-anchor="middle" x="1885.88" y="-116.5" font-family="Helvetica,sans-Serif" font-size="10.00">GEU::PointCloud::Meshlet</text>
</a>
</g>
</g>
<!-- Node3&#45;&gt;Node25 -->
<g id="edge35_Node000025_Node000003" class="edge">
<title>Node3&#45;&gt;Node25</title>
<g id="a_edge35_Node000025_Node000003"><a xlink:title=" ">
<path fill="none" stroke="#9a32cd" stroke-dasharray="5,2" d="M1648.41,-242.49C1661.97,-217.94 1688.05,-177.48 1722.25,-156 1751.39,-137.7 1788.58,-128.63 1820.04,-124.17"/>
<polygon fill="#9a32cd" stroke="#9a32cd" points="1645.39,-240.71 1643.79,-251.18 1651.57,-244 1645.39,-240.71"/>
</a>
</g>
<text text-anchor="middle" x="1762.38" y="-158.5" font-family="Helvetica,sans-Serif" font-size="10.00" fill="grey"> parent</text>
</g>
<!-- Node34 -->
<g id="Node000034" class="node">
<title>Node34</title>
<g id="a_Node000034"><a xlink:title=" ">
<polygon fill="white" stroke="#666666" points="1941.12,-246 1830.62,-246 1830.62,-214 1941.12,-214 1941.12,-246"/>
<text text-anchor="start" x="1838.62" y="-232.5" font-family="Helvetica,sans-Serif" font-size="10.00">std::unique_ptr&lt; GEU</text>
<text text-anchor="middle" x="1885.88" y="-220.5" font-family="Helvetica,sans-Serif" font-size="10.00">::PointCloud &gt;</text>
</a>
</g>
</g>
<!-- Node3&#45;&gt;Node34 -->
<g id="edge45_Node000034_Node000003" class="edge">
<title>Node3&#45;&gt;Node34</title>
<g id="a_edge45_Node000034_Node000003"><a xlink:title=" ">
<path fill="none" stroke="#9a32cd" stroke-dasharray="5,2" d="M1693.82,-255.54C1734.7,-250.07 1789.91,-242.69 1830.46,-237.27"/>
<polygon fill="#9a32cd" stroke="#9a32cd" points="1693.37,-252.07 1683.92,-256.86 1694.3,-259.01 1693.37,-252.07"/>
</a>
</g>
<text text-anchor="middle" x="1762.38" y="-253.5" font-family="Helvetica,sans-Serif" font-size="10.00" fill="grey"> ptr</text>
</g>
<!-- Node4 -->
<g id="Node000004" class="node">
<title>Node4</title>
<g id="a_Node000004"><a xlink:href="../../db/d6c/class_g_e_u_1_1_model3_d.html" target="_top" xlink:title=" ">
<polygon fill="white" stroke="#666666" points="1398.75,-164 1317.5,-164 1317.5,-144 1398.75,-144 1398.75,-164"/>
<text text-anchor="middle" x="1358.12" y="-150.5" font-family="Helvetica,sans-Serif" font-size="10.00">GEU::Model3D</text>
</a>
</g>
</g>
<!-- Node4&#45;&gt;Node3 -->
<g id="edge3_Node000003_Node000004" class="edge">
<title>Node4&#45;&gt;Node3</title>
<g id="a_edge3_Node000003_Node000004"><a xlink:title=" ">
<path fill="none" stroke="#63b8ff" d="M1403.73,-167.92C1417.13,-172.27 1431.84,-177.18 1445.25,-182 1493.13,-199.21 1504.98,-203.97 1551.75,-224 1573.23,-233.2 1597.41,-244.49 1614.33,-252.55"/>
<polygon fill="#63b8ff" stroke="#63b8ff" points="1404.86,-164.61 1394.27,-164.89 1402.72,-171.28 1404.86,-164.61"/>
</a>
</g>
</g>
<!-- Node5 -->
<g id="Node000005" class="node">
<title>Node5</title>
<g id="a_Node000005"><a xlink:title=" ">
<polygon fill="white" stroke="#666666" points="190.5,-230 131,-230 131,-210 190.5,-210 190.5,-230"/>
<text text-anchor="middle" x="160.75" y="-216.5" font-family="Helvetica,sans-Serif" font-size="10.00">std::string</text>
</a>
</g>
</g>
<!-- Node5&#45;&gt;Node3 -->
<g id="edge26_Node000003_Node000005" class="edge">
<title>Node5&#45;&gt;Node3</title>
<g id="a_edge26_Node000003_Node000005"><a xlink:title=" ">
<path fill="none" stroke="#9a32cd" stroke-dasharray="5,2" d="M168.46,-198.76C175.78,-178.14 189.11,-146.83 208.5,-125 250.28,-77.98 264.35,-48 327.25,-48 327.25,-48 327.25,-48 1359.12,-48 1447.92,-48 1482.7,-45.18 1551.75,-101 1603.27,-142.65 1626.82,-224.27 1633.73,-252.84"/>
<polygon fill="#9a32cd" stroke="#9a32cd" points="165.2,-197.49 165.33,-208.08 171.83,-199.72 165.2,-197.49"/>
</a>
</g>
<text text-anchor="middle" x="855.88" y="-62.5" font-family="Helvetica,sans-Serif" font-size="10.00" fill="grey"> _prevViewMode</text>
<text text-anchor="middle" x="855.88" y="-50.5" font-family="Helvetica,sans-Serif" font-size="10.00" fill="grey">_viewMode</text>
</g>
<!-- Node5&#45;&gt;Node4 -->
<g id="edge4_Node000004_Node000005" class="edge">
<title>Node5&#45;&gt;Node4</title>
<g id="a_edge4_Node000004_Node000005"><a xlink:title=" ">
<path fill="none" stroke="#9a32cd" stroke-dasharray="5,2" d="M171.4,-199.51C179.39,-184.61 192.09,-165.02 208.5,-153 279.8,-100.76 317.05,-129.75 405.25,-124 467.66,-119.93 483.26,-118.75 545.75,-116 602.83,-113.49 617.12,-112.89 674.25,-112 720.91,-111.27 732.61,-110.31 779.25,-112 981.81,-119.35 1223.51,-141.15 1317.25,-150.1"/>
<polygon fill="#9a32cd" stroke="#9a32cd" points="168.28,-197.92 166.9,-208.43 174.53,-201.07 168.28,-197.92"/>
</a>
</g>
<text text-anchor="middle" x="726.75" y="-114.5" font-family="Helvetica,sans-Serif" font-size="10.00" fill="grey"> _name</text>
</g>
<!-- Node8 -->
<g id="Node000008" class="node">
<title>Node8</title>
<g id="a_Node000008"><a xlink:href="../../d5/def/class_g_e_u_1_1_material.html" target="_top" xlink:title=" ">
<polygon fill="white" stroke="#666666" points="1133,-188 1055.5,-188 1055.5,-168 1133,-168 1133,-188"/>
<text text-anchor="middle" x="1094.25" y="-174.5" font-family="Helvetica,sans-Serif" font-size="10.00">GEU::Material</text>
</a>
</g>
</g>
<!-- Node5&#45;&gt;Node8 -->
<g id="edge8_Node000008_Node000005" class="edge">
<title>Node5&#45;&gt;Node8</title>
<g id="a_edge8_Node000008_Node000005"><a xlink:title=" ">
<path fill="none" stroke="#9a32cd" stroke-dasharray="5,2" d="M181.8,-202.44C211.44,-178.34 269.67,-138 327.25,-138 327.25,-138 327.25,-138 856.88,-138 927.84,-138 1009.13,-155.74 1055.51,-167.59"/>
<polygon fill="#9a32cd" stroke="#9a32cd" points="179.81,-199.54 174.38,-208.64 184.3,-204.91 179.81,-199.54"/>
</a>
</g>
<text text-anchor="middle" x="601" y="-140.5" font-family="Helvetica,sans-Serif" font-size="10.00" fill="grey"> _name</text>
</g>
<!-- Node5&#45;&gt;Node10 -->
<g id="edge11_Node000010_Node000005" class="edge">
<title>Node5&#45;&gt;Node10</title>
<g id="a_edge11_Node000010_Node000005"><a xlink:title=" ">
<path fill="none" stroke="#9a32cd" stroke-dasharray="5,2" d="M165.17,-241.51C170.34,-267.57 182.44,-311.4 208.5,-339 228.91,-360.62 240.55,-359.25 269.25,-367 363.95,-392.56 478.97,-396.06 545.41,-395.54"/>
<polygon fill="#9a32cd" stroke="#9a32cd" points="168.64,-241.01 163.43,-231.78 161.75,-242.24 168.64,-241.01"/>
</a>
</g>
<text text-anchor="middle" x="328.25" y="-437.5" font-family="Helvetica,sans-Serif" font-size="10.00" fill="grey"> MODULE_FILE_CHAR_1</text>
<text text-anchor="middle" x="328.25" y="-425.5" font-family="Helvetica,sans-Serif" font-size="10.00" fill="grey">MODULE_FILE_CHAR_2</text>
<text text-anchor="middle" x="328.25" y="-413.5" font-family="Helvetica,sans-Serif" font-size="10.00" fill="grey">MODULE_HEADER</text>
<text text-anchor="middle" x="328.25" y="-401.5" font-family="Helvetica,sans-Serif" font-size="10.00" fill="grey">_logString</text>
<text text-anchor="middle" x="328.25" y="-389.5" font-family="Helvetica,sans-Serif" font-size="10.00" fill="grey">shaderPath</text>
</g>
<!-- Node11 -->
<g id="Node000011" class="node">
<title>Node11</title>
<g id="a_Node000011"><a xlink:title=" ">
<polygon fill="white" stroke="#666666" points="379.38,-358 277.12,-358 277.12,-314 379.38,-314 379.38,-358"/>
<text text-anchor="start" x="285.12" y="-344.5" font-family="Helvetica,sans-Serif" font-size="10.00">std::unordered_map</text>
<text text-anchor="start" x="285.12" y="-332.5" font-family="Helvetica,sans-Serif" font-size="10.00">&lt; std::string, std::</text>
<text text-anchor="middle" x="328.25" y="-320.5" font-family="Helvetica,sans-Serif" font-size="10.00">string &gt;</text>
</a>
</g>
</g>
<!-- Node5&#45;&gt;Node11 -->
<g id="edge13_Node000011_Node000005" class="edge">
<title>Node5&#45;&gt;Node11</title>
<g id="a_edge13_Node000011_Node000005"><a xlink:title=" ">
<path fill="none" stroke="#9a32cd" stroke-dasharray="5,2" d="M172.08,-240.23C180.3,-254.62 192.97,-273.53 208.5,-286 228.47,-302.04 254.33,-313.73 276.82,-321.76"/>
<polygon fill="#9a32cd" stroke="#9a32cd" points="175.26,-238.75 167.42,-231.62 169.11,-242.08 175.26,-238.75"/>
</a>
</g>
<text text-anchor="middle" x="229.88" y="-325.5" font-family="Helvetica,sans-Serif" font-size="10.00" fill="grey"> elements</text>
<text text-anchor="middle" x="229.88" y="-313.5" font-family="Helvetica,sans-Serif" font-size="10.00" fill="grey">keys</text>
</g>
<!-- Node12 -->
<g id="Node000012" class="node">
<title>Node12</title>
<g id="a_Node000012"><a xlink:title=" ">
<polygon fill="white" stroke="#666666" points="381.62,-504 274.88,-504 274.88,-472 381.62,-472 381.62,-504"/>
<text text-anchor="start" x="282.88" y="-490.5" font-family="Helvetica,sans-Serif" font-size="10.00">std::unordered_map</text>
<text text-anchor="middle" x="328.25" y="-478.5" font-family="Helvetica,sans-Serif" font-size="10.00">&lt; std::string, GLint &gt;</text>
</a>
</g>
</g>
<!-- Node5&#45;&gt;Node12 -->
<g id="edge16_Node000012_Node000005" class="edge">
<title>Node5&#45;&gt;Node12</title>
<g id="a_edge16_Node000012_Node000005"><a xlink:title=" ">
<path fill="none" stroke="#9a32cd" stroke-dasharray="5,2" d="M162.76,-241.52C165.38,-278.32 174.78,-354.57 208.5,-408 227.01,-437.33 260.61,-458.45 287.35,-471.6"/>
<polygon fill="#9a32cd" stroke="#9a32cd" points="166.26,-241.53 162.17,-231.75 159.28,-241.94 166.26,-241.53"/>
</a>
</g>
<text text-anchor="middle" x="229.88" y="-451.5" font-family="Helvetica,sans-Serif" font-size="10.00" fill="grey"> keys</text>
</g>
<!-- Node14 -->
<g id="Node000014" class="node">
<title>Node14</title>
<g id="a_Node000014"><a xlink:href="../../dc/d36/class_g_e_u_1_1_texture.html" target="_top" xlink:title=" ">
<polygon fill="white" stroke="#666666" points="638.62,-234 563.38,-234 563.38,-214 638.62,-214 638.62,-234"/>
<text text-anchor="middle" x="601" y="-220.5" font-family="Helvetica,sans-Serif" font-size="10.00">GEU::Texture</text>
</a>
</g>
</g>
<!-- Node5&#45;&gt;Node14 -->
<g id="edge19_Node000014_Node000005" class="edge">
<title>Node5&#45;&gt;Node14</title>
<g id="a_edge19_Node000014_Node000005"><a xlink:title=" ">
<path fill="none" stroke="#9a32cd" stroke-dasharray="5,2" d="M200.56,-233.88C203.23,-234.65 205.9,-235.37 208.5,-236 235.02,-242.45 242.03,-242.99 269.25,-245 383.87,-253.44 413.65,-251.83 527.75,-238 539.29,-236.6 551.76,-234.43 563.03,-232.21"/>
<polygon fill="#9a32cd" stroke="#9a32cd" points="201.72,-230.58 191.13,-230.94 199.64,-237.26 201.72,-230.58"/>
</a>
</g>
<text text-anchor="middle" x="328.25" y="-264.5" font-family="Helvetica,sans-Serif" font-size="10.00" fill="grey"> TEXTURE_LAYER_IDS</text>
<text text-anchor="middle" x="328.25" y="-252.5" font-family="Helvetica,sans-Serif" font-size="10.00" fill="grey">_filename</text>
</g>
<!-- Node15 -->
<g id="Node000015" class="node">
<title>Node15</title>
<g id="a_Node000015"><a xlink:title=" ">
<polygon fill="white" stroke="#666666" points="387.25,-236 269.25,-236 269.25,-204 387.25,-204 387.25,-236"/>
<text text-anchor="start" x="277.25" y="-222.5" font-family="Helvetica,sans-Serif" font-size="10.00">std::unordered_map</text>
<text text-anchor="middle" x="328.25" y="-210.5" font-family="Helvetica,sans-Serif" font-size="10.00">&lt; uint16_t, std::string &gt;</text>
</a>
</g>
</g>
<!-- Node5&#45;&gt;Node15 -->
<g id="edge21_Node000015_Node000005" class="edge">
<title>Node5&#45;&gt;Node15</title>
<g id="a_edge21_Node000015_Node000005"><a xlink:title=" ">
<path fill="none" stroke="#9a32cd" stroke-dasharray="5,2" d="M202.47,-220C222.46,-220 246.92,-220 268.86,-220"/>
<polygon fill="#9a32cd" stroke="#9a32cd" points="202.47,-216.5 192.47,-220 202.47,-223.5 202.47,-216.5"/>
</a>
</g>
<text text-anchor="middle" x="229.88" y="-222.5" font-family="Helvetica,sans-Serif" font-size="10.00" fill="grey"> elements</text>
</g>
<!-- Node16 -->
<g id="Node000016" class="node">
<title>Node16</title>
<g id="a_Node000016"><a xlink:title=" ">
<polygon fill="white" stroke="#666666" points="527.75,-187 405.25,-187 405.25,-167 527.75,-167 527.75,-187"/>
<text text-anchor="middle" x="466.5" y="-173.5" font-family="Helvetica,sans-Serif" font-size="10.00">std::vector&lt; std::string &gt;</text>
</a>
</g>
</g>
<!-- Node5&#45;&gt;Node16 -->
<g id="edge23_Node000016_Node000005" class="edge">
<title>Node5&#45;&gt;Node16</title>
<g id="a_edge23_Node000016_Node000005"><a xlink:title=" ">
<path fill="none" stroke="#9a32cd" stroke-dasharray="5,2" d="M200.56,-206.12C203.23,-205.35 205.9,-204.63 208.5,-204 274.55,-187.95 352.43,-181.44 405.01,-178.8"/>
<polygon fill="#9a32cd" stroke="#9a32cd" points="199.64,-202.74 191.13,-209.06 201.72,-209.42 199.64,-202.74"/>
</a>
</g>
<text text-anchor="middle" x="229.88" y="-206.5" font-family="Helvetica,sans-Serif" font-size="10.00" fill="grey"> elements</text>
</g>
<!-- Node6 -->
<g id="Node000006" class="node">
<title>Node6</title>
<g id="a_Node000006"><a xlink:title=" ">
<polygon fill="white" stroke="#666666" points="94,-236 0,-236 0,-204 94,-204 94,-236"/>
<text text-anchor="start" x="8" y="-222.5" font-family="Helvetica,sans-Serif" font-size="10.00">std::basic_string&lt;</text>
<text text-anchor="middle" x="47" y="-210.5" font-family="Helvetica,sans-Serif" font-size="10.00"> Char &gt;</text>
</a>
</g>
</g>
<!-- Node6&#45;&gt;Node5 -->
<g id="edge5_Node000005_Node000006" class="edge">
<title>Node6&#45;&gt;Node5</title>
<g id="a_edge5_Node000005_Node000006"><a xlink:title=" ">
<path fill="none" stroke="#63b8ff" d="M105.71,-220C114.32,-220 122.87,-220 130.55,-220"/>
<polygon fill="#63b8ff" stroke="#63b8ff" points="105.93,-216.5 95.93,-220 105.93,-223.5 105.93,-216.5"/>
</a>
</g>
</g>
<!-- Node7 -->
<g id="Node000007" class="node">
<title>Node7</title>
<g id="a_Node000007"><a xlink:href="../../dc/d47/class_a_a_b_b.html" target="_top" xlink:title=" ">
<polygon fill="white" stroke="#666666" points="1115.75,-100 1072.75,-100 1072.75,-80 1115.75,-80 1115.75,-100"/>
<text text-anchor="middle" x="1094.25" y="-86.5" font-family="Helvetica,sans-Serif" font-size="10.00">AABB</text>
</a>
</g>
</g>
<!-- Node7&#45;&gt;Node4 -->
<g id="edge6_Node000004_Node000007" class="edge">
<title>Node7&#45;&gt;Node4</title>
<g id="a_edge6_Node000004_Node000007"><a xlink:title=" ">
<path fill="none" stroke="#9a32cd" stroke-dasharray="5,2" d="M1127.47,-94.55C1159.56,-99.4 1210.09,-107.9 1253,-119 1279.4,-125.83 1308.8,-135.95 1329.61,-143.55"/>
<polygon fill="#9a32cd" stroke="#9a32cd" points="1128.03,-91.09 1117.62,-93.09 1127,-98.02 1128.03,-91.09"/>
</a>
</g>
<text text-anchor="middle" x="1211.38" y="-121.5" font-family="Helvetica,sans-Serif" font-size="10.00" fill="grey"> _aabb</text>
</g>
<!-- Node7&#45;&gt;Node25 -->
<g id="edge34_Node000025_Node000007" class="edge">
<title>Node7&#45;&gt;Node25</title>
<g id="a_edge34_Node000025_Node000007"><a xlink:title=" ">
<path fill="none" stroke="#9a32cd" stroke-dasharray="5,2" d="M1127.41,-91.22C1245.85,-95.72 1659.24,-111.43 1820.11,-117.54"/>
<polygon fill="#9a32cd" stroke="#9a32cd" points="1127.6,-87.73 1117.48,-90.84 1127.34,-94.72 1127.6,-87.73"/>
</a>
</g>
<text text-anchor="middle" x="1507.5" y="-110.5" font-family="Helvetica,sans-Serif" font-size="10.00" fill="grey"> aabb</text>
</g>
<!-- Node8&#45;&gt;Node4 -->
<g id="edge7_Node000004_Node000008" class="edge">
<title>Node8&#45;&gt;Node4</title>
<g id="a_edge7_Node000004_Node000008"><a xlink:title=" ">
<path fill="none" stroke="#9a32cd" stroke-dasharray="5,2" d="M1144.5,-173.49C1194.51,-168.9 1270.97,-161.9 1317.28,-157.65"/>
<polygon fill="#9a32cd" stroke="#9a32cd" points="1144.47,-169.97 1134.84,-174.37 1145.11,-176.94 1144.47,-169.97"/>
</a>
</g>
<text text-anchor="middle" x="1211.38" y="-172.5" font-family="Helvetica,sans-Serif" font-size="10.00" fill="grey"> _material</text>
</g>
<!-- Node9 -->
<g id="Node000009" class="node">
<title>Node9</title>
<g id="a_Node000009"><a xlink:href="../../d0/def/class_g_e_u_1_1_rendering_shader.html" target="_top" xlink:title=" ">
<polygon fill="white" stroke="#666666" points="914.5,-274 797.25,-274 797.25,-254 914.5,-254 914.5,-274"/>
<text text-anchor="middle" x="855.88" y="-260.5" font-family="Helvetica,sans-Serif" font-size="10.00">GEU::RenderingShader</text>
</a>
</g>
</g>
<!-- Node9&#45;&gt;Node8 -->
<g id="edge9_Node000008_Node000009" class="edge">
<title>Node9&#45;&gt;Node8</title>
<g id="a_edge9_Node000008_Node000009"><a xlink:title=" ">
<path fill="none" stroke="#9a32cd" stroke-dasharray="5,2" d="M926.02,-259.46C963.15,-255.76 1004.21,-249.24 1018.75,-238 1034.49,-225.83 1022.06,-210.43 1036.75,-197 1042.02,-192.18 1048.55,-188.58 1055.29,-185.89"/>
<polygon fill="#9a32cd" stroke="#9a32cd" points="925.8,-255.96 916.16,-260.37 926.45,-262.93 925.8,-255.96"/>
</a>
</g>
<text text-anchor="middle" x="975.62" y="-260.5" font-family="Helvetica,sans-Serif" font-size="10.00" fill="grey"> _associatedShader</text>
</g>
<!-- Node10&#45;&gt;Node9 -->
<g id="edge10_Node000009_Node000010" class="edge">
<title>Node10&#45;&gt;Node9</title>
<g id="a_edge10_Node000009_Node000010"><a xlink:title=" ">
<path fill="none" stroke="#63b8ff" d="M627.24,-377.48C663.65,-354.16 733.56,-311.27 797.25,-283 804.28,-279.88 811.98,-276.99 819.41,-274.46"/>
<polygon fill="#63b8ff" stroke="#63b8ff" points="625.66,-374.33 619.16,-382.69 629.46,-380.21 625.66,-374.33"/>
</a>
</g>
</g>
<!-- Node11&#45;&gt;Node10 -->
<g id="edge12_Node000010_Node000011" class="edge">
<title>Node11&#45;&gt;Node10</title>
<g id="a_edge12_Node000010_Node000011"><a xlink:title=" ">
<path fill="none" stroke="#9a32cd" stroke-dasharray="5,2" d="M390.85,-342.93C430.36,-348.11 482.53,-356.33 527.75,-368 543.63,-372.1 560.93,-378.26 574.62,-383.56"/>
<polygon fill="#9a32cd" stroke="#9a32cd" points="391.41,-339.48 381.04,-341.68 390.52,-346.42 391.41,-339.48"/>
</a>
</g>
<text text-anchor="middle" x="466.5" y="-370.5" font-family="Helvetica,sans-Serif" font-size="10.00" fill="grey"> _moduleCode</text>
</g>
<!-- Node12&#45;&gt;Node10 -->
<g id="edge15_Node000010_Node000012" class="edge">
<title>Node12&#45;&gt;Node10</title>
<g id="a_edge15_Node000010_Node000012"><a xlink:title=" ">
<path fill="none" stroke="#9a32cd" stroke-dasharray="5,2" d="M369.81,-466.69C381.11,-461.19 393.51,-455.54 405.25,-451 456.18,-431.31 516.83,-414.57 556.76,-404.42"/>
<polygon fill="#9a32cd" stroke="#9a32cd" points="368.54,-463.42 361.14,-471 371.65,-469.68 368.54,-463.42"/>
</a>
</g>
<text text-anchor="middle" x="466.5" y="-465.5" font-family="Helvetica,sans-Serif" font-size="10.00" fill="grey"> subroutineLocation</text>
<text text-anchor="middle" x="466.5" y="-453.5" font-family="Helvetica,sans-Serif" font-size="10.00" fill="grey">uniformLocation</text>
</g>
<!-- Node13 -->
<g id="Node000013" class="node">
<title>Node13</title>
<g id="a_Node000013"><a xlink:title=" ">
<polygon fill="white" stroke="#666666" points="649.5,-274 552.5,-274 552.5,-254 649.5,-254 649.5,-274"/>
<text text-anchor="middle" x="601" y="-260.5" font-family="Helvetica,sans-Serif" font-size="10.00">std::vector&lt; bool &gt;</text>
</a>
</g>
</g>
<!-- Node13&#45;&gt;Node9 -->
<g id="edge17_Node000009_Node000013" class="edge">
<title>Node13&#45;&gt;Node9</title>
<g id="a_edge17_Node000009_Node000013"><a xlink:title=" ">
<path fill="none" stroke="#9a32cd" stroke-dasharray="5,2" d="M661.3,-264C702.23,-264 756.39,-264 797.01,-264"/>
<polygon fill="#9a32cd" stroke="#9a32cd" points="661.37,-260.5 651.37,-264 661.37,-267.5 661.37,-260.5"/>
</a>
</g>
<text text-anchor="middle" x="726.75" y="-266.5" font-family="Helvetica,sans-Serif" font-size="10.00" fill="grey"> _implementsSubroutine</text>
</g>
<!-- Node14&#45;&gt;Node8 -->
<g id="edge18_Node000008_Node000014" class="edge">
<title>Node14&#45;&gt;Node8</title>
<g id="a_edge18_Node000008_Node000014"><a xlink:title=" ">
<path fill="none" stroke="#9a32cd" stroke-dasharray="5,2" d="M650.27,-222.01C728.09,-218.41 886,-209.52 1018.75,-192 1030.62,-190.43 1043.47,-188.21 1055.1,-186"/>
<polygon fill="#9a32cd" stroke="#9a32cd" points="650.28,-218.5 640.45,-222.45 650.59,-225.49 650.28,-218.5"/>
</a>
</g>
<text text-anchor="middle" x="855.88" y="-215.5" font-family="Helvetica,sans-Serif" font-size="10.00" fill="grey"> _texture</text>
</g>
<!-- Node15&#45;&gt;Node14 -->
<g id="edge20_Node000014_Node000015" class="edge">
<title>Node15&#45;&gt;Node14</title>
<g id="a_edge20_Node000014_Node000015"><a xlink:title=" ">
<path fill="none" stroke="#9a32cd" stroke-dasharray="5,2" d="M398.88,-221.03C451.19,-221.8 520.8,-222.83 562.9,-223.45"/>
<polygon fill="#9a32cd" stroke="#9a32cd" points="399.23,-217.53 389.18,-220.89 399.13,-224.53 399.23,-217.53"/>
</a>
</g>
<text text-anchor="middle" x="466.5" y="-224.5" font-family="Helvetica,sans-Serif" font-size="10.00" fill="grey"> SHADER_VARIABLE</text>
</g>
<!-- Node16&#45;&gt;Node8 -->
<g id="edge22_Node000008_Node000016" class="edge">
<title>Node16&#45;&gt;Node8</title>
<g id="a_edge22_Node000008_Node000016"><a xlink:title=" ">
<path fill="none" stroke="#9a32cd" stroke-dasharray="5,2" d="M539.33,-177.11C672.5,-177.33 953.41,-177.78 1055.31,-177.94"/>
<polygon fill="#9a32cd" stroke="#9a32cd" points="539.59,-173.62 529.58,-177.1 539.58,-180.62 539.59,-173.62"/>
</a>
</g>
<text text-anchor="middle" x="726.75" y="-179.5" font-family="Helvetica,sans-Serif" font-size="10.00" fill="grey"> _enabledSubroutines</text>
</g>
<!-- Node17 -->
<g id="Node000017" class="node">
<title>Node17</title>
<g id="a_Node000017"><a xlink:title=" ">
<polygon fill="white" stroke="#666666" points="1398.38,-361 1317.88,-361 1317.88,-341 1398.38,-341 1398.38,-361"/>
<text text-anchor="middle" x="1358.12" y="-347.5" font-family="Helvetica,sans-Serif" font-size="10.00">std::array&lt; T &gt;</text>
</a>
</g>
</g>
<!-- Node17&#45;&gt;Node3 -->
<g id="edge24_Node000003_Node000017" class="edge">
<title>Node17&#45;&gt;Node3</title>
<g id="a_edge24_Node000003_Node000017"><a xlink:title=" ">
<path fill="none" stroke="#9a32cd" stroke-dasharray="5,2" d="M1410.05,-344.41C1449.58,-338.3 1505.28,-327.45 1551.75,-310 1577.15,-300.46 1604.14,-284.17 1620.54,-273.5"/>
<polygon fill="#9a32cd" stroke="#9a32cd" points="1409.71,-340.92 1400.34,-345.86 1410.74,-347.85 1409.71,-340.92"/>
</a>
</g>
<text text-anchor="middle" x="1507.5" y="-336.5" font-family="Helvetica,sans-Serif" font-size="10.00" fill="grey"> _viewModes</text>
</g>
<!-- Node18 -->
<g id="Node000018" class="node">
<title>Node18</title>
<g id="a_Node000018"><a xlink:title=" ">
<polygon fill="white" stroke="#666666" points="1108.65,-438 1079.85,-438 1079.85,-418 1108.65,-418 1108.65,-438"/>
<text text-anchor="middle" x="1094.25" y="-424.5" font-family="Helvetica,sans-Serif" font-size="10.00">T</text>
</a>
</g>
</g>
<!-- Node18&#45;&gt;Node17 -->
<g id="edge25_Node000017_Node000018" class="edge">
<title>Node18&#45;&gt;Node17</title>
<g id="a_edge25_Node000017_Node000018"><a xlink:title=" ">
<path fill="none" stroke="#9a32cd" stroke-dasharray="5,2" d="M1119.7,-419.78C1164.4,-404.77 1256.1,-374.09 1271,-370 1286.06,-365.87 1302.79,-362.01 1317.47,-358.87"/>
<polygon fill="#9a32cd" stroke="#9a32cd" points="1118.73,-416.41 1110.37,-422.91 1120.96,-423.05 1118.73,-416.41"/>
</a>
</g>
<text text-anchor="middle" x="1211.38" y="-404.5" font-family="Helvetica,sans-Serif" font-size="10.00" fill="grey"> elements</text>
</g>
<!-- Node19 -->
<g id="Node000019" class="node">
<title>Node19</title>
<g id="a_Node000019"><a xlink:href="../../d2/d21/struct_g_e_u_1_1_g_p_u_resources.html" target="_top" xlink:title=" ">
<polygon fill="white" stroke="#666666" points="1413.38,-323 1302.88,-323 1302.88,-303 1413.38,-303 1413.38,-323"/>
<text text-anchor="middle" x="1358.12" y="-309.5" font-family="Helvetica,sans-Serif" font-size="10.00">GEU::GPUResources</text>
</a>
</g>
</g>
<!-- Node19&#45;&gt;Node3 -->
<g id="edge27_Node000003_Node000019" class="edge">
<title>Node19&#45;&gt;Node3</title>
<g id="a_edge27_Node000003_Node000019"><a xlink:title=" ">
<path fill="none" stroke="#9a32cd" stroke-dasharray="5,2" d="M1424.76,-301.63C1462.02,-295.12 1509.52,-286.74 1551.75,-279 1564.64,-276.64 1578.62,-274.01 1591.42,-271.58"/>
<polygon fill="#9a32cd" stroke="#9a32cd" points="1424.28,-298.16 1415.03,-303.33 1425.49,-305.06 1424.28,-298.16"/>
</a>
</g>
<text text-anchor="middle" x="1507.5" y="-296.5" font-family="Helvetica,sans-Serif" font-size="10.00" fill="grey"> _GPUResources</text>
</g>
<!-- Node20 -->
<g id="Node000020" class="node">
<title>Node20</title>
<g id="a_Node000020"><a xlink:title=" ">
<polygon fill="white" stroke="#666666" points="1146.5,-338 1042,-338 1042,-294 1146.5,-294 1146.5,-338"/>
<text text-anchor="start" x="1050" y="-324.5" font-family="Helvetica,sans-Serif" font-size="10.00">std::array&lt; size_t,</text>
<text text-anchor="start" x="1050" y="-312.5" font-family="Helvetica,sans-Serif" font-size="10.00">(uint8_t) SSBOSlots</text>
<text text-anchor="middle" x="1094.25" y="-300.5" font-family="Helvetica,sans-Serif" font-size="10.00">::Total &gt;</text>
</a>
</g>
</g>
<!-- Node20&#45;&gt;Node19 -->
<g id="edge28_Node000019_Node000020" class="edge">
<title>Node20&#45;&gt;Node19</title>
<g id="a_edge28_Node000019_Node000020"><a xlink:title=" ">
<path fill="none" stroke="#9a32cd" stroke-dasharray="5,2" d="M1158.45,-315.28C1202.54,-314.77 1260.78,-314.1 1302.79,-313.62"/>
<polygon fill="#9a32cd" stroke="#9a32cd" points="1158.46,-311.78 1148.5,-315.39 1158.54,-318.78 1158.46,-311.78"/>
</a>
</g>
<text text-anchor="middle" x="1211.38" y="-317.5" font-family="Helvetica,sans-Serif" font-size="10.00" fill="grey"> _memoryReserved</text>
</g>
<!-- Node21 -->
<g id="Node000021" class="node">
<title>Node21</title>
<g id="a_Node000021"><a xlink:title=" ">
<polygon fill="white" stroke="#666666" points="1146.5,-400 1042,-400 1042,-356 1146.5,-356 1146.5,-400"/>
<text text-anchor="start" x="1050" y="-386.5" font-family="Helvetica,sans-Serif" font-size="10.00">std::array&lt; GLuint,</text>
<text text-anchor="start" x="1050" y="-374.5" font-family="Helvetica,sans-Serif" font-size="10.00">(uint8_t) SSBOSlots</text>
<text text-anchor="middle" x="1094.25" y="-362.5" font-family="Helvetica,sans-Serif" font-size="10.00">::Total &gt;</text>
</a>
</g>
</g>
<!-- Node21&#45;&gt;Node19 -->
<g id="edge29_Node000019_Node000021" class="edge">
<title>Node21&#45;&gt;Node19</title>
<g id="a_edge29_Node000019_Node000021"><a xlink:title=" ">
<path fill="none" stroke="#9a32cd" stroke-dasharray="5,2" d="M1157.66,-361.03C1191.18,-352.08 1233.26,-341.1 1271,-332 1283.06,-329.09 1296.11,-326.12 1308.31,-323.42"/>
<polygon fill="#9a32cd" stroke="#9a32cd" points="1156.86,-357.63 1148.1,-363.59 1158.67,-364.39 1156.86,-357.63"/>
</a>
</g>
<text text-anchor="middle" x="1211.38" y="-359.5" font-family="Helvetica,sans-Serif" font-size="10.00" fill="grey"> _ssboIds</text>
</g>
<!-- Node22 -->
<g id="Node000022" class="node">
<title>Node22</title>
<g id="a_Node000022"><a xlink:title=" ">
<polygon fill="white" stroke="#666666" points="1407.38,-437 1308.88,-437 1308.88,-417 1407.38,-417 1407.38,-437"/>
<text text-anchor="middle" x="1358.12" y="-423.5" font-family="Helvetica,sans-Serif" font-size="10.00">std::vector&lt; vec3 &gt;</text>
</a>
</g>
</g>
<!-- Node22&#45;&gt;Node3 -->
<g id="edge30_Node000003_Node000022" class="edge">
<title>Node22&#45;&gt;Node3</title>
<g id="a_edge30_Node000003_Node000022"><a xlink:title=" ">
<path fill="none" stroke="#9a32cd" stroke-dasharray="5,2" d="M1419.13,-429.31C1459.65,-428.09 1512.66,-420.82 1551.75,-395 1598.03,-364.44 1624.05,-298.76 1632.71,-273.34"/>
<polygon fill="#9a32cd" stroke="#9a32cd" points="1419.24,-425.81 1409.3,-429.48 1419.36,-432.81 1419.24,-425.81"/>
</a>
</g>
<text text-anchor="middle" x="1507.5" y="-438.5" font-family="Helvetica,sans-Serif" font-size="10.00" fill="grey"> _normals</text>
<text text-anchor="middle" x="1507.5" y="-426.5" font-family="Helvetica,sans-Serif" font-size="10.00" fill="grey">_position</text>
</g>
<!-- Node23 -->
<g id="Node000023" class="node">
<title>Node23</title>
<g id="a_Node000023"><a xlink:title=" ">
<polygon fill="white" stroke="#666666" points="1417.12,-399 1299.12,-399 1299.12,-379 1417.12,-379 1417.12,-399"/>
<text text-anchor="middle" x="1358.12" y="-385.5" font-family="Helvetica,sans-Serif" font-size="10.00">std::vector&lt; unsigned &gt;</text>
</a>
</g>
</g>
<!-- Node23&#45;&gt;Node3 -->
<g id="edge31_Node000003_Node000023" class="edge">
<title>Node23&#45;&gt;Node3</title>
<g id="a_edge31_Node000003_Node000023"><a xlink:title=" ">
<path fill="none" stroke="#9a32cd" stroke-dasharray="5,2" d="M1428.47,-385.01C1466.74,-380.41 1514.02,-370.64 1551.75,-350 1586.98,-330.73 1616.54,-291.78 1629.28,-273.25"/>
<polygon fill="#9a32cd" stroke="#9a32cd" points="1428.47,-381.49 1418.92,-386.06 1429.24,-388.45 1428.47,-381.49"/>
</a>
</g>
<text text-anchor="middle" x="1507.5" y="-381.5" font-family="Helvetica,sans-Serif" font-size="10.00" fill="grey"> _rgbColor</text>
</g>
<!-- Node24 -->
<g id="Node000024" class="node">
<title>Node24</title>
<g id="a_Node000024"><a xlink:title=" ">
<polygon fill="white" stroke="#666666" points="2174.25,-196 2030,-196 2030,-164 2174.25,-164 2174.25,-196"/>
<text text-anchor="start" x="2038" y="-182.5" font-family="Helvetica,sans-Serif" font-size="10.00">std::vector&lt; GEU::PointCloud</text>
<text text-anchor="middle" x="2102.12" y="-170.5" font-family="Helvetica,sans-Serif" font-size="10.00">::Meshlet &gt;</text>
</a>
</g>
</g>
<!-- Node24&#45;&gt;Node3 -->
<g id="edge32_Node000003_Node000024" class="edge">
<title>Node24&#45;&gt;Node3</title>
<g id="a_edge32_Node000003_Node000024"><a xlink:title=" ">
<path fill="none" stroke="#9a32cd" stroke-dasharray="5,2" d="M2018.34,-176.95C1961.99,-176.54 1886.04,-179.29 1820.5,-193 1759.38,-205.79 1691.84,-236.36 1658.68,-252.54"/>
<polygon fill="#9a32cd" stroke="#9a32cd" points="2018.15,-180.44 2028.18,-177.06 2018.22,-173.45 2018.15,-180.44"/>
</a>
</g>
<text text-anchor="middle" x="1885.88" y="-195.5" font-family="Helvetica,sans-Serif" font-size="10.00" fill="grey"> _meshlets</text>
</g>
<!-- Node25&#45;&gt;Node24 -->
<g id="edge33_Node000024_Node000025" class="edge">
<title>Node25&#45;&gt;Node24</title>
<g id="a_edge33_Node000024_Node000025"><a xlink:title=" ">
<path fill="none" stroke="#9a32cd" stroke-dasharray="5,2" d="M1934.99,-133.48C1966.79,-142.38 2008.68,-154.11 2042.44,-163.57"/>
<polygon fill="#9a32cd" stroke="#9a32cd" points="1936.23,-130.19 1925.65,-130.86 1934.34,-136.93 1936.23,-130.19"/>
</a>
</g>
<text text-anchor="middle" x="1990.62" y="-155.5" font-family="Helvetica,sans-Serif" font-size="10.00" fill="grey"> elements</text>
</g>
<!-- Node26 -->
<g id="Node000026" class="node">
<title>Node26</title>
<g id="a_Node000026"><a xlink:title=" ">
<polygon fill="white" stroke="#666666" points="1704.25,-45 1569.75,-45 1569.75,-1 1704.25,-1 1704.25,-45"/>
<text text-anchor="start" x="1577.75" y="-31.5" font-family="Helvetica,sans-Serif" font-size="10.00">std::array&lt; std::vector</text>
<text text-anchor="start" x="1577.75" y="-19.5" font-family="Helvetica,sans-Serif" font-size="10.00">&lt; dataState &gt;, NUM_DATA</text>
<text text-anchor="middle" x="1637" y="-7.5" font-family="Helvetica,sans-Serif" font-size="10.00">_SOURCES &gt;</text>
</a>
</g>
</g>
<!-- Node26&#45;&gt;Node25 -->
<g id="edge36_Node000025_Node000026" class="edge">
<title>Node26&#45;&gt;Node25</title>
<g id="a_edge36_Node000025_Node000026"><a xlink:title=" ">
<path fill="none" stroke="#9a32cd" stroke-dasharray="5,2" d="M1715.47,-33.69C1743.69,-39.31 1775.31,-47.68 1802.5,-60 1830.7,-72.78 1858.84,-96.12 1873.82,-109.62"/>
<polygon fill="#9a32cd" stroke="#9a32cd" points="1716.4,-30.3 1705.92,-31.88 1715.09,-37.18 1716.4,-30.3"/>
</a>
</g>
<text text-anchor="middle" x="1762.38" y="-62.5" font-family="Helvetica,sans-Serif" font-size="10.00" fill="grey"> fusionDataState</text>
</g>
<!-- Node27 -->
<g id="Node000027" class="node">
<title>Node27</title>
<g id="a_Node000027"><a xlink:title=" ">
<polygon fill="white" stroke="#666666" points="1418.62,-20 1297.62,-20 1297.62,0 1418.62,0 1418.62,-20"/>
<text text-anchor="middle" x="1358.12" y="-6.5" font-family="Helvetica,sans-Serif" font-size="10.00">std::vector&lt; dataState &gt;</text>
</a>
</g>
</g>
<!-- Node27&#45;&gt;Node26 -->
<g id="edge37_Node000026_Node000027" class="edge">
<title>Node27&#45;&gt;Node26</title>
<g id="a_edge37_Node000026_Node000027"><a xlink:title=" ">
<path fill="none" stroke="#9a32cd" stroke-dasharray="5,2" d="M1430.36,-13.34C1473.27,-15.36 1527.56,-17.91 1569.58,-19.88"/>
<polygon fill="#9a32cd" stroke="#9a32cd" points="1430.53,-9.85 1420.37,-12.88 1430.2,-16.84 1430.53,-9.85"/>
</a>
</g>
<text text-anchor="middle" x="1507.5" y="-21.5" font-family="Helvetica,sans-Serif" font-size="10.00" fill="grey"> elements</text>
</g>
<!-- Node28 -->
<g id="Node000028" class="node">
<title>Node28</title>
<g id="a_Node000028"><a xlink:title=" ">
<polygon fill="white" stroke="#666666" points="1431,-285 1285.25,-285 1285.25,-241 1431,-241 1431,-285"/>
<text text-anchor="start" x="1293.25" y="-271.5" font-family="Helvetica,sans-Serif" font-size="10.00">std::array&lt; std::vector</text>
<text text-anchor="start" x="1293.25" y="-259.5" font-family="Helvetica,sans-Serif" font-size="10.00">&lt; std::vector&lt; float &gt;</text>
<text text-anchor="middle" x="1358.12" y="-247.5" font-family="Helvetica,sans-Serif" font-size="10.00"> &gt;, NUM_DATA_SOURCES &gt;</text>
</a>
</g>
</g>
<!-- Node28&#45;&gt;Node3 -->
<g id="edge38_Node000003_Node000028" class="edge">
<title>Node28&#45;&gt;Node3</title>
<g id="a_edge38_Node000003_Node000028"><a xlink:title=" ">
<path fill="none" stroke="#9a32cd" stroke-dasharray="5,2" d="M1442.39,-263C1491.42,-263 1551.49,-263 1591.59,-263"/>
<polygon fill="#9a32cd" stroke="#9a32cd" points="1442.66,-259.5 1432.66,-263 1442.66,-266.5 1442.66,-259.5"/>
</a>
</g>
<text text-anchor="middle" x="1507.5" y="-265.5" font-family="Helvetica,sans-Serif" font-size="10.00" fill="grey"> _fusionData</text>
</g>
<!-- Node29 -->
<g id="Node000029" class="node">
<title>Node29</title>
<g id="a_Node000029"><a xlink:title=" ">
<polygon fill="white" stroke="#666666" points="1151.75,-276 1036.75,-276 1036.75,-244 1151.75,-244 1151.75,-276"/>
<text text-anchor="start" x="1044.75" y="-262.5" font-family="Helvetica,sans-Serif" font-size="10.00">std::vector&lt; std::vector</text>
<text text-anchor="middle" x="1094.25" y="-250.5" font-family="Helvetica,sans-Serif" font-size="10.00">&lt; float &gt; &gt;</text>
</a>
</g>
</g>
<!-- Node29&#45;&gt;Node28 -->
<g id="edge39_Node000028_Node000029" class="edge">
<title>Node29&#45;&gt;Node28</title>
<g id="a_edge39_Node000028_Node000029"><a xlink:title=" ">
<path fill="none" stroke="#9a32cd" stroke-dasharray="5,2" d="M1163.36,-260.78C1200.7,-261.21 1246.98,-261.74 1284.94,-262.17"/>
<polygon fill="#9a32cd" stroke="#9a32cd" points="1163.63,-257.28 1153.59,-260.67 1163.55,-264.28 1163.63,-257.28"/>
</a>
</g>
<text text-anchor="middle" x="1211.38" y="-263.5" font-family="Helvetica,sans-Serif" font-size="10.00" fill="grey"> elements</text>
</g>
<!-- Node30 -->
<g id="Node000030" class="node">
<title>Node30</title>
<g id="a_Node000030"><a xlink:title=" ">
<polygon fill="white" stroke="#666666" points="904.38,-312 807.38,-312 807.38,-292 904.38,-292 904.38,-312"/>
<text text-anchor="middle" x="855.88" y="-298.5" font-family="Helvetica,sans-Serif" font-size="10.00">std::vector&lt; float &gt;</text>
</a>
</g>
</g>
<!-- Node30&#45;&gt;Node29 -->
<g id="edge40_Node000029_Node000030" class="edge">
<title>Node30&#45;&gt;Node29</title>
<g id="a_edge40_Node000029_Node000030"><a xlink:title=" ">
<path fill="none" stroke="#9a32cd" stroke-dasharray="5,2" d="M916.22,-293.87C946.92,-289.4 984.94,-283.46 1018.75,-277 1024.48,-275.9 1030.45,-274.68 1036.39,-273.41"/>
<polygon fill="#9a32cd" stroke="#9a32cd" points="915.74,-290.4 906.34,-295.29 916.73,-297.33 915.74,-290.4"/>
</a>
</g>
<text text-anchor="middle" x="975.62" y="-293.5" font-family="Helvetica,sans-Serif" font-size="10.00" fill="grey"> elements</text>
</g>
<!-- Node31 -->
<g id="Node000031" class="node">
<title>Node31</title>
<g id="a_Node000031"><a xlink:title=" ">
<polygon fill="white" stroke="#666666" points="1445.25,-223 1271,-223 1271,-191 1445.25,-191 1445.25,-223"/>
<text text-anchor="start" x="1279" y="-209.5" font-family="Helvetica,sans-Serif" font-size="10.00">std::array&lt; std::vector</text>
<text text-anchor="middle" x="1358.12" y="-197.5" font-family="Helvetica,sans-Serif" font-size="10.00">&lt; vec2 &gt;, NUM_DATA_SOURCES &gt;</text>
</a>
</g>
</g>
<!-- Node31&#45;&gt;Node3 -->
<g id="edge41_Node000003_Node000031" class="edge">
<title>Node31&#45;&gt;Node3</title>
<g id="a_edge41_Node000003_Node000031"><a xlink:title=" ">
<path fill="none" stroke="#9a32cd" stroke-dasharray="5,2" d="M1451.85,-225.75C1498.92,-235.27 1553.93,-246.4 1591.49,-254"/>
<polygon fill="#9a32cd" stroke="#9a32cd" points="1452.68,-222.35 1442.18,-223.8 1451.29,-229.21 1452.68,-222.35"/>
</a>
</g>
<text text-anchor="middle" x="1507.5" y="-246.5" font-family="Helvetica,sans-Serif" font-size="10.00" fill="grey"> _fusionDataMinMax</text>
</g>
<!-- Node32 -->
<g id="Node000032" class="node">
<title>Node32</title>
<g id="a_Node000032"><a xlink:title=" ">
<polygon fill="white" stroke="#666666" points="1143.5,-226 1045,-226 1045,-206 1143.5,-206 1143.5,-226"/>
<text text-anchor="middle" x="1094.25" y="-212.5" font-family="Helvetica,sans-Serif" font-size="10.00">std::vector&lt; vec2 &gt;</text>
</a>
</g>
</g>
<!-- Node32&#45;&gt;Node31 -->
<g id="edge42_Node000031_Node000032" class="edge">
<title>Node32&#45;&gt;Node31</title>
<g id="a_edge42_Node000031_Node000032"><a xlink:title=" ">
<path fill="none" stroke="#9a32cd" stroke-dasharray="5,2" d="M1155.11,-213.94C1189.29,-212.77 1232.74,-211.27 1270.58,-209.97"/>
<polygon fill="#9a32cd" stroke="#9a32cd" points="1155.28,-210.43 1145.41,-214.28 1155.52,-217.43 1155.28,-210.43"/>
</a>
</g>
<text text-anchor="middle" x="1211.38" y="-215.5" font-family="Helvetica,sans-Serif" font-size="10.00" fill="grey"> elements</text>
</g>
<!-- Node33 -->
<g id="Node000033" class="node">
<title>Node33</title>
<g id="a_Node000033"><a xlink:title=" ">
<polygon fill="white" stroke="#666666" points="2169,-257 2035.25,-257 2035.25,-225 2169,-225 2169,-257"/>
<text text-anchor="start" x="2043.25" y="-243.5" font-family="Helvetica,sans-Serif" font-size="10.00">std::vector&lt; std::unique</text>
<text text-anchor="middle" x="2102.12" y="-231.5" font-family="Helvetica,sans-Serif" font-size="10.00">_ptr&lt; GEU::PointCloud &gt; &gt;</text>
</a>
</g>
</g>
<!-- Node33&#45;&gt;Node3 -->
<g id="edge43_Node000003_Node000033" class="edge">
<title>Node33&#45;&gt;Node3</title>
<g id="a_edge43_Node000003_Node000033"><a xlink:title=" ">
<path fill="none" stroke="#9a32cd" stroke-dasharray="5,2" d="M2023.74,-250.8C2019.77,-251.22 2015.84,-251.63 2012,-252 1883.66,-264.51 1851.16,-270.06 1722.25,-267 1709.37,-266.69 1695.39,-266.13 1682.58,-265.51"/>
<polygon fill="#9a32cd" stroke="#9a32cd" points="2023.92,-254.3 2033.47,-249.71 2023.15,-247.34 2023.92,-254.3"/>
</a>
</g>
<text text-anchor="middle" x="1885.88" y="-269.5" font-family="Helvetica,sans-Serif" font-size="10.00" fill="grey"> _subClouds</text>
</g>
<!-- Node34&#45;&gt;Node33 -->
<g id="edge44_Node000033_Node000034" class="edge">
<title>Node34&#45;&gt;Node33</title>
<g id="a_edge44_Node000033_Node000034"><a xlink:title=" ">
<path fill="none" stroke="#9a32cd" stroke-dasharray="5,2" d="M1952.77,-233.38C1978.81,-234.72 2008.67,-236.25 2034.75,-237.59"/>
<polygon fill="#9a32cd" stroke="#9a32cd" points="1953.17,-229.9 1943.01,-232.88 1952.81,-236.89 1953.17,-229.9"/>
</a>
</g>
<text text-anchor="middle" x="1990.62" y="-238.5" font-family="Helvetica,sans-Serif" font-size="10.00" fill="grey"> elements</text>
</g>
</g>
</svg>
