<?xml version="1.0" encoding="UTF-8" standalone="no"?>
<!DOCTYPE svg PUBLIC "-//W3C//DTD SVG 1.1//EN"
 "http://www.w3.org/Graphics/SVG/1.1/DTD/svg11.dtd">
<!-- Generated by graphviz version 10.0.1 (20240210.2158)
 -->
<!-- Title: EnvPointCloud Pages: 1 -->
<!--zoomable 526 -->

<svg id="main" version="1.1" xmlns="http://www.w3.org/2000/svg" xmlns:xlink="http://www.w3.org/1999/xlink" xml:space="preserve" onload="init(evt)">
<style type="text/css"><![CDATA[
.node, .edge {opacity: 0.7;}
.node.selected, .edge.selected {opacity: 1;}
.edge:hover path { stroke: red; }
.edge:hover polygon { stroke: red; fill: red; }
]]></style>

<defs>
  <circle id="rim" cx="0" cy="0" r="7"/>
  <circle id="rim2" cx="0" cy="0" r="3.5"/>
  <g id="zoomPlus">
    <use xlink:href="#rim" fill="#404040"><set attributeName="fill" to="#808080" begin="zoomplus.mouseover" end="zoomplus.mouseout"/></use>
    <path d="M-4,0h8M0,-4v8" fill="none" stroke="white" stroke-width="1.5" pointer-events="none"/>
  </g>
  <g id="zoomMin">
    <use xlink:href="#rim" fill="#404040"><set attributeName="fill" to="#808080" begin="zoomminus.mouseover" end="zoomminus.mouseout"/></use>
    <path d="M-4,0h8" fill="none" stroke="white" stroke-width="1.5" pointer-events="none"/>
  </g>
  <g id="arrowUp" transform="translate(30 24)">
    <use xlink:href="#rim"/>
    <path pointer-events="none" fill="none" stroke="white" stroke-width="1.5" d="M0,-3.0v7 M-2.5,-0.5L0,-3.0L2.5,-0.5"/>
  </g>
  <g id="arrowRight" transform="rotate(90) translate(36 -43)">
    <use xlink:href="#rim"/>
    <path pointer-events="none" fill="none" stroke="white" stroke-width="1.5" d="M0,-3.0v7 M-2.5,-0.5L0,-3.0L2.5,-0.5"/>
  </g>
  <g id="arrowDown" transform="rotate(180) translate(-30 -48)">
    <use xlink:href="#rim"/>
    <path pointer-events="none" fill="none" stroke="white" stroke-width="1.5" d="M0,-3.0v7 M-2.5,-0.5L0,-3.0L2.5,-0.5"/>
  </g>
  <g id="arrowLeft" transform="rotate(270) translate(-36 17)">
    <use xlink:href="#rim"/>
    <path pointer-events="none" fill="none" stroke="white" stroke-width="1.5" d="M0,-3.0v7 M-2.5,-0.5L0,-3.0L2.5,-0.5"/>
  </g>
  <g id="resetDef">
    <use xlink:href="#rim2" fill="#404040"><set attributeName="fill" to="#808080" begin="reset.mouseover" end="reset.mouseout"/></use>
  </g>
</defs>
<script type="application/ecmascript">
var viewWidth = 2171;
var viewHeight = 526;
var sectionId = 'dynsection-0';
</script>
<script type="application/ecmascript" xlink:href="../../svg.min.js"/>
<svg id="graph" class="graph">
<g id="viewport">
<title>EnvPointCloud</title>
<!-- Node1 -->
<g id="Node000001" class="node">
<title>Node1</title>
<g id="a_Node000001"><a xlink:title=" ">
<polygon fill="#999999" stroke="#666666" points="1914.12,-398 1835.12,-398 1835.12,-378 1914.12,-378 1914.12,-398"/>
<text text-anchor="middle" x="1874.62" y="-384.5" font-family="Helvetica,sans-Serif" font-size="10.00">EnvPointCloud</text>
</a>
</g>
</g>
<!-- Node2 -->
<g id="Node000002" class="node">
<title>Node2</title>
<g id="a_Node000002"><a xlink:title=" ">
<polygon fill="white" stroke="#666666" points="382,-440 274.5,-440 274.5,-420 382,-420 382,-440"/>
<text text-anchor="middle" x="328.25" y="-426.5" font-family="Helvetica,sans-Serif" font-size="10.00">std::vector&lt; GLuint &gt;</text>
</a>
</g>
</g>
<!-- Node2&#45;&gt;Node1 -->
<g id="edge1_Node000001_Node000002" class="edge">
<title>Node2&#45;&gt;Node1</title>
<g id="a_edge1_Node000001_Node000002"><a xlink:title=" ">
<path fill="none" stroke="#9a32cd" stroke-dasharray="5,2" d="M374.59,-444.13C378.9,-445.69 383.18,-447.33 387.25,-449 395.52,-452.4 396.62,-455.63 405.25,-458 488.94,-480.95 513.22,-472 600,-472 600,-472 600,-472 1626.75,-472 1717.07,-472 1816.55,-420.99 1856.06,-398.47"/>
<polygon fill="#9a32cd" stroke="#9a32cd" points="375.93,-440.9 365.33,-440.92 373.63,-447.51 375.93,-440.9"/>
</a>
</g>
<text text-anchor="middle" x="1083" y="-474.5" font-family="Helvetica,sans-Serif" font-size="10.00" fill="grey"> _pointClass</text>
</g>
<!-- Node10 -->
<g id="Node000010" class="node">
<title>Node10</title>
<g id="a_Node000010"><a xlink:href="../../da/db2/class_g_e_u_1_1_shader_program.html" target="_top" xlink:title=" ">
<polygon fill="white" stroke="#666666" points="656.25,-274 545.75,-274 545.75,-254 656.25,-254 656.25,-274"/>
<text text-anchor="middle" x="601" y="-260.5" font-family="Helvetica,sans-Serif" font-size="10.00">GEU::ShaderProgram</text>
</a>
</g>
</g>
<!-- Node2&#45;&gt;Node10 -->
<g id="edge14_Node000010_Node000002" class="edge">
<title>Node2&#45;&gt;Node10</title>
<g id="a_edge14_Node000010_Node000002"><a xlink:title=" ">
<path fill="none" stroke="#9a32cd" stroke-dasharray="5,2" d="M366.66,-415.22C373.57,-412.3 380.67,-409.15 387.25,-406 451.47,-375.23 469.67,-370.2 527.75,-329 551.97,-311.82 577.04,-287.54 590.34,-274.04"/>
<polygon fill="#9a32cd" stroke="#9a32cd" points="365.38,-411.97 357.48,-419.03 368.06,-418.43 365.38,-411.97"/>
</a>
</g>
<text text-anchor="middle" x="466.5" y="-397.5" font-family="Helvetica,sans-Serif" font-size="10.00" fill="grey"> _activeSubroutineUniform</text>
</g>
<!-- Node3 -->
<g id="Node000003" class="node">
<title>Node3</title>
<g id="a_Node000003"><a xlink:href="../../d4/dbf/class_g_e_u_1_1_point_cloud.html" target="_top" xlink:title=" ">
<polygon fill="white" stroke="#666666" points="1670.88,-264 1580.62,-264 1580.62,-244 1670.88,-244 1670.88,-264"/>
<text text-anchor="middle" x="1625.75" y="-250.5" font-family="Helvetica,sans-Serif" font-size="10.00">GEU::PointCloud</text>
</a>
</g>
</g>
<!-- Node3&#45;&gt;Node1 -->
<g id="edge2_Node000001_Node000003" class="edge">
<title>Node3&#45;&gt;Node1</title>
<g id="a_edge2_Node000001_Node000003"><a xlink:title=" ">
<path fill="none" stroke="#9a32cd" stroke-dasharray="5,2" d="M1655.76,-269.75C1706.88,-297.49 1811.63,-354.35 1854.6,-377.67"/>
<polygon fill="#9a32cd" stroke="#9a32cd" points="1657.5,-266.71 1647.04,-265.01 1654.16,-272.86 1657.5,-266.71"/>
</a>
</g>
<text text-anchor="middle" x="1751.12" y="-342.5" font-family="Helvetica,sans-Serif" font-size="10.00" fill="grey"> _targetPointCloud</text>
</g>
<!-- Node24 -->
<g id="Node000024" class="node">
<title>Node24</title>
<g id="a_Node000024"><a xlink:href="../../dd/dcf/struct_g_e_u_1_1_point_cloud_1_1_meshlet.html" target="_top" xlink:title=" ">
<polygon fill="white" stroke="#666666" points="1940,-111 1809.25,-111 1809.25,-91 1940,-91 1940,-111"/>
<text text-anchor="middle" x="1874.62" y="-97.5" font-family="Helvetica,sans-Serif" font-size="10.00">GEU::PointCloud::Meshlet</text>
</a>
</g>
</g>
<!-- Node3&#45;&gt;Node24 -->
<g id="edge34_Node000024_Node000003" class="edge">
<title>Node3&#45;&gt;Node24</title>
<g id="a_edge34_Node000024_Node000003"><a xlink:title=" ">
<path fill="none" stroke="#9a32cd" stroke-dasharray="5,2" d="M1637.3,-233.59C1651.01,-209.11 1677.22,-168.57 1711,-146 1740.11,-126.55 1777.47,-115.45 1809.05,-109.15"/>
<polygon fill="#9a32cd" stroke="#9a32cd" points="1634.3,-231.79 1632.63,-242.25 1640.46,-235.12 1634.3,-231.79"/>
</a>
</g>
<text text-anchor="middle" x="1751.12" y="-148.5" font-family="Helvetica,sans-Serif" font-size="10.00" fill="grey"> parent</text>
</g>
<!-- Node33 -->
<g id="Node000033" class="node">
<title>Node33</title>
<g id="a_Node000033"><a xlink:title=" ">
<polygon fill="white" stroke="#666666" points="1929.88,-236 1819.38,-236 1819.38,-204 1929.88,-204 1929.88,-236"/>
<text text-anchor="start" x="1827.38" y="-222.5" font-family="Helvetica,sans-Serif" font-size="10.00">std::unique_ptr&lt; GEU</text>
<text text-anchor="middle" x="1874.62" y="-210.5" font-family="Helvetica,sans-Serif" font-size="10.00">::PointCloud &gt;</text>
</a>
</g>
</g>
<!-- Node3&#45;&gt;Node33 -->
<g id="edge44_Node000033_Node000003" class="edge">
<title>Node3&#45;&gt;Node33</title>
<g id="a_edge44_Node000033_Node000003"><a xlink:title=" ">
<path fill="none" stroke="#9a32cd" stroke-dasharray="5,2" d="M1682.57,-246.31C1723.45,-240.68 1778.66,-233.08 1819.21,-227.49"/>
<polygon fill="#9a32cd" stroke="#9a32cd" points="1682.1,-242.84 1672.67,-247.68 1683.05,-249.78 1682.1,-242.84"/>
</a>
</g>
<text text-anchor="middle" x="1751.12" y="-244.5" font-family="Helvetica,sans-Serif" font-size="10.00" fill="grey"> ptr</text>
</g>
<!-- Node4 -->
<g id="Node000004" class="node">
<title>Node4</title>
<g id="a_Node000004"><a xlink:href="../../db/d6c/class_g_e_u_1_1_model3_d.html" target="_top" xlink:title=" ">
<polygon fill="white" stroke="#666666" points="1387.5,-166 1306.25,-166 1306.25,-146 1387.5,-146 1387.5,-166"/>
<text text-anchor="middle" x="1346.88" y="-152.5" font-family="Helvetica,sans-Serif" font-size="10.00">GEU::Model3D</text>
</a>
</g>
</g>
<!-- Node4&#45;&gt;Node3 -->
<g id="edge3_Node000003_Node000004" class="edge">
<title>Node4&#45;&gt;Node3</title>
<g id="a_edge3_Node000003_Node000004"><a xlink:title=" ">
<path fill="none" stroke="#63b8ff" d="M1392.28,-169.88C1431.49,-182.34 1490.12,-201.48 1540.5,-220 1560.78,-227.45 1583.49,-236.67 1600.21,-243.62"/>
<polygon fill="#63b8ff" stroke="#63b8ff" points="1393.54,-166.61 1382.95,-166.92 1391.42,-173.28 1393.54,-166.61"/>
</a>
</g>
</g>
<!-- Node5 -->
<g id="Node000005" class="node">
<title>Node5</title>
<g id="a_Node000005"><a xlink:title=" ">
<polygon fill="white" stroke="#666666" points="190.5,-274 131,-274 131,-254 190.5,-254 190.5,-274"/>
<text text-anchor="middle" x="160.75" y="-260.5" font-family="Helvetica,sans-Serif" font-size="10.00">std::string</text>
</a>
</g>
</g>
<!-- Node5&#45;&gt;Node3 -->
<g id="edge25_Node000003_Node000005" class="edge">
<title>Node5&#45;&gt;Node3</title>
<g id="a_edge25_Node000003_Node000005"><a xlink:title=" ">
<path fill="none" stroke="#9a32cd" stroke-dasharray="5,2" d="M162.57,-242.51C164.93,-209.11 173.99,-144.38 208.5,-104 246.41,-59.64 268.9,-48 327.25,-48 327.25,-48 327.25,-48 1347.88,-48 1435.5,-48 1471.04,-36.59 1540.5,-90 1593.54,-130.78 1616.13,-214.28 1622.64,-243.57"/>
<polygon fill="#9a32cd" stroke="#9a32cd" points="159.1,-241.97 162.04,-252.15 166.09,-242.36 159.1,-241.97"/>
</a>
</g>
<text text-anchor="middle" x="844.62" y="-62.5" font-family="Helvetica,sans-Serif" font-size="10.00" fill="grey"> _prevViewMode</text>
<text text-anchor="middle" x="844.62" y="-50.5" font-family="Helvetica,sans-Serif" font-size="10.00" fill="grey">_viewMode</text>
</g>
<!-- Node5&#45;&gt;Node4 -->
<g id="edge4_Node000004_Node000005" class="edge">
<title>Node5&#45;&gt;Node4</title>
<g id="a_edge4_Node000004_Node000005"><a xlink:title=" ">
<path fill="none" stroke="#9a32cd" stroke-dasharray="5,2" d="M162.27,-242.32C164.28,-210.53 172.91,-151.59 208.5,-120 229.08,-101.73 241.86,-110.68 269.25,-108 672.86,-68.52 1164.81,-130.3 1306.17,-150.18"/>
<polygon fill="#9a32cd" stroke="#9a32cd" points="158.78,-242.12 161.84,-252.27 165.77,-242.43 158.78,-242.12"/>
</a>
</g>
<text text-anchor="middle" x="721.12" y="-102.5" font-family="Helvetica,sans-Serif" font-size="10.00" fill="grey"> _name</text>
</g>
<!-- Node8 -->
<g id="Node000008" class="node">
<title>Node8</title>
<g id="a_Node000008"><a xlink:href="../../d5/def/class_g_e_u_1_1_material.html" target="_top" xlink:title=" ">
<polygon fill="white" stroke="#666666" points="1121.75,-186 1044.25,-186 1044.25,-166 1121.75,-166 1121.75,-186"/>
<text text-anchor="middle" x="1083" y="-172.5" font-family="Helvetica,sans-Serif" font-size="10.00">GEU::Material</text>
</a>
</g>
</g>
<!-- Node5&#45;&gt;Node8 -->
<g id="edge8_Node000008_Node000005" class="edge">
<title>Node5&#45;&gt;Node8</title>
<g id="a_edge8_Node000008_Node000005"><a xlink:title=" ">
<path fill="none" stroke="#9a32cd" stroke-dasharray="5,2" d="M162.59,-285.63C164.95,-322.6 173.98,-399.08 208.5,-452 227.15,-480.59 236.95,-487.96 269.25,-499 378.11,-536.19 415.94,-513.04 527.75,-486 702.59,-443.71 748.34,-426.43 903.25,-335 954.73,-304.61 973.67,-299.29 1007.5,-250 1022.06,-228.79 1007.39,-213.26 1025.5,-195 1030.6,-189.86 1037.14,-186.11 1043.94,-183.37"/>
<polygon fill="#9a32cd" stroke="#9a32cd" points="166.09,-285.62 162.08,-275.81 159.1,-285.98 166.09,-285.62"/>
</a>
</g>
<text text-anchor="middle" x="601" y="-483.5" font-family="Helvetica,sans-Serif" font-size="10.00" fill="grey"> _name</text>
</g>
<!-- Node5&#45;&gt;Node10 -->
<g id="edge11_Node000010_Node000005" class="edge">
<title>Node5&#45;&gt;Node10</title>
<g id="a_edge11_Node000010_Node000005"><a xlink:title=" ">
<path fill="none" stroke="#9a32cd" stroke-dasharray="5,2" d="M178,-245.15C197.3,-224.34 231.66,-192.06 269.25,-179 387.97,-137.73 536.89,-223.11 584.57,-253.67"/>
<polygon fill="#9a32cd" stroke="#9a32cd" points="175.55,-242.63 171.47,-252.41 180.76,-247.31 175.55,-242.63"/>
</a>
</g>
<text text-anchor="middle" x="328.25" y="-229.5" font-family="Helvetica,sans-Serif" font-size="10.00" fill="grey"> MODULE_FILE_CHAR_1</text>
<text text-anchor="middle" x="328.25" y="-217.5" font-family="Helvetica,sans-Serif" font-size="10.00" fill="grey">MODULE_FILE_CHAR_2</text>
<text text-anchor="middle" x="328.25" y="-205.5" font-family="Helvetica,sans-Serif" font-size="10.00" fill="grey">MODULE_HEADER</text>
<text text-anchor="middle" x="328.25" y="-193.5" font-family="Helvetica,sans-Serif" font-size="10.00" fill="grey">_logString</text>
<text text-anchor="middle" x="328.25" y="-181.5" font-family="Helvetica,sans-Serif" font-size="10.00" fill="grey">shaderPath</text>
</g>
<!-- Node11 -->
<g id="Node000011" class="node">
<title>Node11</title>
<g id="a_Node000011"><a xlink:title=" ">
<polygon fill="white" stroke="#666666" points="379.38,-342 277.12,-342 277.12,-298 379.38,-298 379.38,-342"/>
<text text-anchor="start" x="285.12" y="-328.5" font-family="Helvetica,sans-Serif" font-size="10.00">std::unordered_map</text>
<text text-anchor="start" x="285.12" y="-316.5" font-family="Helvetica,sans-Serif" font-size="10.00">&lt; std::string, std::</text>
<text text-anchor="middle" x="328.25" y="-304.5" font-family="Helvetica,sans-Serif" font-size="10.00">string &gt;</text>
</a>
</g>
</g>
<!-- Node5&#45;&gt;Node11 -->
<g id="edge13_Node000011_Node000005" class="edge">
<title>Node5&#45;&gt;Node11</title>
<g id="a_edge13_Node000011_Node000005"><a xlink:title=" ">
<path fill="none" stroke="#9a32cd" stroke-dasharray="5,2" d="M201.7,-277.69C204,-278.47 206.28,-279.25 208.5,-280 230.85,-287.59 255.59,-295.93 276.67,-303.02"/>
<polygon fill="#9a32cd" stroke="#9a32cd" points="202.95,-274.41 192.35,-274.5 200.69,-281.04 202.95,-274.41"/>
</a>
</g>
<text text-anchor="middle" x="229.88" y="-308.5" font-family="Helvetica,sans-Serif" font-size="10.00" fill="grey"> elements</text>
<text text-anchor="middle" x="229.88" y="-296.5" font-family="Helvetica,sans-Serif" font-size="10.00" fill="grey">keys</text>
</g>
<!-- Node12 -->
<g id="Node000012" class="node">
<title>Node12</title>
<g id="a_Node000012"><a xlink:title=" ">
<polygon fill="white" stroke="#666666" points="381.62,-280 274.88,-280 274.88,-248 381.62,-248 381.62,-280"/>
<text text-anchor="start" x="282.88" y="-266.5" font-family="Helvetica,sans-Serif" font-size="10.00">std::unordered_map</text>
<text text-anchor="middle" x="328.25" y="-254.5" font-family="Helvetica,sans-Serif" font-size="10.00">&lt; std::string, GLint &gt;</text>
</a>
</g>
</g>
<!-- Node5&#45;&gt;Node12 -->
<g id="edge16_Node000012_Node000005" class="edge">
<title>Node5&#45;&gt;Node12</title>
<g id="a_edge16_Node000012_Node000005"><a xlink:title=" ">
<path fill="none" stroke="#9a32cd" stroke-dasharray="5,2" d="M202.45,-264C224.21,-264 251.25,-264 274.6,-264"/>
<polygon fill="#9a32cd" stroke="#9a32cd" points="202.47,-260.5 192.47,-264 202.47,-267.5 202.47,-260.5"/>
</a>
</g>
<text text-anchor="middle" x="229.88" y="-266.5" font-family="Helvetica,sans-Serif" font-size="10.00" fill="grey"> keys</text>
</g>
<!-- Node13 -->
<g id="Node000013" class="node">
<title>Node13</title>
<g id="a_Node000013"><a xlink:href="../../dc/d36/class_g_e_u_1_1_texture.html" target="_top" xlink:title=" ">
<polygon fill="white" stroke="#666666" points="638.62,-387 563.38,-387 563.38,-367 638.62,-367 638.62,-387"/>
<text text-anchor="middle" x="601" y="-373.5" font-family="Helvetica,sans-Serif" font-size="10.00">GEU::Texture</text>
</a>
</g>
</g>
<!-- Node5&#45;&gt;Node13 -->
<g id="edge18_Node000013_Node000005" class="edge">
<title>Node5&#45;&gt;Node13</title>
<g id="a_edge18_Node000013_Node000005"><a xlink:title=" ">
<path fill="none" stroke="#9a32cd" stroke-dasharray="5,2" d="M174.15,-283.54C182.66,-295.78 194.87,-311.22 208.5,-322 231.97,-340.55 240.35,-343.25 269.25,-351 373.01,-378.81 501.13,-379.9 563.05,-378.44"/>
<polygon fill="#9a32cd" stroke="#9a32cd" points="177.21,-281.82 168.75,-275.44 171.38,-285.7 177.21,-281.82"/>
</a>
</g>
<text text-anchor="middle" x="328.25" y="-385.5" font-family="Helvetica,sans-Serif" font-size="10.00" fill="grey"> TEXTURE_LAYER_IDS</text>
<text text-anchor="middle" x="328.25" y="-373.5" font-family="Helvetica,sans-Serif" font-size="10.00" fill="grey">_filename</text>
</g>
<!-- Node14 -->
<g id="Node000014" class="node">
<title>Node14</title>
<g id="a_Node000014"><a xlink:title=" ">
<polygon fill="white" stroke="#666666" points="387.25,-490 269.25,-490 269.25,-458 387.25,-458 387.25,-490"/>
<text text-anchor="start" x="277.25" y="-476.5" font-family="Helvetica,sans-Serif" font-size="10.00">std::unordered_map</text>
<text text-anchor="middle" x="328.25" y="-464.5" font-family="Helvetica,sans-Serif" font-size="10.00">&lt; uint16_t, std::string &gt;</text>
</a>
</g>
</g>
<!-- Node5&#45;&gt;Node14 -->
<g id="edge20_Node000014_Node000005" class="edge">
<title>Node5&#45;&gt;Node14</title>
<g id="a_edge20_Node000014_Node000005"><a xlink:title=" ">
<path fill="none" stroke="#9a32cd" stroke-dasharray="5,2" d="M166.33,-285.43C172.71,-312.05 186.1,-358.09 208.5,-392 228.9,-422.89 238.29,-428.7 269.25,-449 274.02,-452.13 279.24,-455.01 284.54,-457.63"/>
<polygon fill="#9a32cd" stroke="#9a32cd" points="169.78,-284.82 164.15,-275.84 162.95,-286.37 169.78,-284.82"/>
</a>
</g>
<text text-anchor="middle" x="229.88" y="-438.5" font-family="Helvetica,sans-Serif" font-size="10.00" fill="grey"> elements</text>
</g>
<!-- Node15 -->
<g id="Node000015" class="node">
<title>Node15</title>
<g id="a_Node000015"><a xlink:title=" ">
<polygon fill="white" stroke="#666666" points="527.75,-146 405.25,-146 405.25,-126 527.75,-126 527.75,-146"/>
<text text-anchor="middle" x="466.5" y="-132.5" font-family="Helvetica,sans-Serif" font-size="10.00">std::vector&lt; std::string &gt;</text>
</a>
</g>
</g>
<!-- Node5&#45;&gt;Node15 -->
<g id="edge22_Node000015_Node000005" class="edge">
<title>Node5&#45;&gt;Node15</title>
<g id="a_edge22_Node000015_Node000005"><a xlink:title=" ">
<path fill="none" stroke="#9a32cd" stroke-dasharray="5,2" d="M163.22,-242.43C166.41,-214.46 176.52,-166.6 208.5,-144 274.3,-97.5 375.08,-112.59 428.79,-125.54"/>
<polygon fill="#9a32cd" stroke="#9a32cd" points="159.75,-241.93 162.33,-252.21 166.72,-242.57 159.75,-241.93"/>
</a>
</g>
<text text-anchor="middle" x="229.88" y="-146.5" font-family="Helvetica,sans-Serif" font-size="10.00" fill="grey"> elements</text>
</g>
<!-- Node6 -->
<g id="Node000006" class="node">
<title>Node6</title>
<g id="a_Node000006"><a xlink:title=" ">
<polygon fill="white" stroke="#666666" points="94,-280 0,-280 0,-248 94,-248 94,-280"/>
<text text-anchor="start" x="8" y="-266.5" font-family="Helvetica,sans-Serif" font-size="10.00">std::basic_string&lt;</text>
<text text-anchor="middle" x="47" y="-254.5" font-family="Helvetica,sans-Serif" font-size="10.00"> Char &gt;</text>
</a>
</g>
</g>
<!-- Node6&#45;&gt;Node5 -->
<g id="edge5_Node000005_Node000006" class="edge">
<title>Node6&#45;&gt;Node5</title>
<g id="a_edge5_Node000005_Node000006"><a xlink:title=" ">
<path fill="none" stroke="#63b8ff" d="M105.71,-264C114.32,-264 122.87,-264 130.55,-264"/>
<polygon fill="#63b8ff" stroke="#63b8ff" points="105.93,-260.5 95.93,-264 105.93,-267.5 105.93,-260.5"/>
</a>
</g>
</g>
<!-- Node7 -->
<g id="Node000007" class="node">
<title>Node7</title>
<g id="a_Node000007"><a xlink:href="../../dc/d47/class_a_a_b_b.html" target="_top" xlink:title=" ">
<polygon fill="white" stroke="#666666" points="1104.5,-99 1061.5,-99 1061.5,-79 1104.5,-79 1104.5,-99"/>
<text text-anchor="middle" x="1083" y="-85.5" font-family="Helvetica,sans-Serif" font-size="10.00">AABB</text>
</a>
</g>
</g>
<!-- Node7&#45;&gt;Node4 -->
<g id="edge6_Node000004_Node000007" class="edge">
<title>Node7&#45;&gt;Node4</title>
<g id="a_edge6_Node000004_Node000007"><a xlink:title=" ">
<path fill="none" stroke="#9a32cd" stroke-dasharray="5,2" d="M1116.25,-93.65C1148.37,-98.62 1198.92,-107.39 1241.75,-119 1268.97,-126.38 1299.26,-137.48 1320.12,-145.6"/>
<polygon fill="#9a32cd" stroke="#9a32cd" points="1116.81,-90.19 1106.4,-92.16 1115.76,-97.11 1116.81,-90.19"/>
</a>
</g>
<text text-anchor="middle" x="1200.12" y="-121.5" font-family="Helvetica,sans-Serif" font-size="10.00" fill="grey"> _aabb</text>
</g>
<!-- Node7&#45;&gt;Node24 -->
<g id="edge33_Node000024_Node000007" class="edge">
<title>Node7&#45;&gt;Node24</title>
<g id="a_edge33_Node000024_Node000007"><a xlink:title=" ">
<path fill="none" stroke="#9a32cd" stroke-dasharray="5,2" d="M1116.16,-89.49C1234.6,-91.29 1647.99,-97.57 1808.86,-100.02"/>
<polygon fill="#9a32cd" stroke="#9a32cd" points="1116.28,-85.99 1106.23,-89.34 1116.17,-92.99 1116.28,-85.99"/>
</a>
</g>
<text text-anchor="middle" x="1496.25" y="-97.5" font-family="Helvetica,sans-Serif" font-size="10.00" fill="grey"> aabb</text>
</g>
<!-- Node8&#45;&gt;Node4 -->
<g id="edge7_Node000004_Node000008" class="edge">
<title>Node8&#45;&gt;Node4</title>
<g id="a_edge7_Node000004_Node000008"><a xlink:title=" ">
<path fill="none" stroke="#9a32cd" stroke-dasharray="5,2" d="M1133.25,-172.24C1183.26,-168.42 1259.72,-162.58 1306.03,-159.04"/>
<polygon fill="#9a32cd" stroke="#9a32cd" points="1133.29,-168.73 1123.59,-172.98 1133.83,-175.7 1133.29,-168.73"/>
</a>
</g>
<text text-anchor="middle" x="1200.12" y="-172.5" font-family="Helvetica,sans-Serif" font-size="10.00" fill="grey"> _material</text>
</g>
<!-- Node9 -->
<g id="Node000009" class="node">
<title>Node9</title>
<g id="a_Node000009"><a xlink:href="../../d0/def/class_g_e_u_1_1_rendering_shader.html" target="_top" xlink:title=" ">
<polygon fill="white" stroke="#666666" points="903.25,-218 786,-218 786,-198 903.25,-198 903.25,-218"/>
<text text-anchor="middle" x="844.62" y="-204.5" font-family="Helvetica,sans-Serif" font-size="10.00">GEU::RenderingShader</text>
</a>
</g>
</g>
<!-- Node9&#45;&gt;Node8 -->
<g id="edge9_Node000008_Node000009" class="edge">
<title>Node9&#45;&gt;Node8</title>
<g id="a_edge9_Node000008_Node000009"><a xlink:title=" ">
<path fill="none" stroke="#9a32cd" stroke-dasharray="5,2" d="M914.77,-198.64C956.92,-192.93 1009.19,-185.86 1043.96,-181.15"/>
<polygon fill="#9a32cd" stroke="#9a32cd" points="914.39,-195.16 904.95,-199.97 915.33,-202.1 914.39,-195.16"/>
</a>
</g>
<text text-anchor="middle" x="964.38" y="-199.5" font-family="Helvetica,sans-Serif" font-size="10.00" fill="grey"> _associatedShader</text>
</g>
<!-- Node10&#45;&gt;Node9 -->
<g id="edge10_Node000009_Node000010" class="edge">
<title>Node10&#45;&gt;Node9</title>
<g id="a_edge10_Node000009_Node000010"><a xlink:title=" ">
<path fill="none" stroke="#63b8ff" d="M658.23,-250.97C700.98,-241.06 759,-227.61 798.68,-218.42"/>
<polygon fill="#63b8ff" stroke="#63b8ff" points="657.59,-247.52 648.64,-253.19 659.17,-254.34 657.59,-247.52"/>
</a>
</g>
</g>
<!-- Node11&#45;&gt;Node10 -->
<g id="edge12_Node000010_Node000011" class="edge">
<title>Node11&#45;&gt;Node10</title>
<g id="a_edge12_Node000010_Node000011"><a xlink:title=" ">
<path fill="none" stroke="#9a32cd" stroke-dasharray="5,2" d="M390.96,-314.98C430.51,-310.86 482.69,-303.74 527.75,-292 544.67,-287.59 563.04,-280.44 577.02,-274.47"/>
<polygon fill="#9a32cd" stroke="#9a32cd" points="390.75,-311.48 381.14,-315.96 391.44,-318.45 390.75,-311.48"/>
</a>
</g>
<text text-anchor="middle" x="466.5" y="-315.5" font-family="Helvetica,sans-Serif" font-size="10.00" fill="grey"> _moduleCode</text>
</g>
<!-- Node12&#45;&gt;Node10 -->
<g id="edge15_Node000010_Node000012" class="edge">
<title>Node12&#45;&gt;Node10</title>
<g id="a_edge15_Node000010_Node000012"><a xlink:title=" ">
<path fill="none" stroke="#9a32cd" stroke-dasharray="5,2" d="M393.51,-264C439.78,-264 501.54,-264 545.43,-264"/>
<polygon fill="#9a32cd" stroke="#9a32cd" points="393.61,-260.5 383.61,-264 393.61,-267.5 393.61,-260.5"/>
</a>
</g>
<text text-anchor="middle" x="466.5" y="-278.5" font-family="Helvetica,sans-Serif" font-size="10.00" fill="grey"> subroutineLocation</text>
<text text-anchor="middle" x="466.5" y="-266.5" font-family="Helvetica,sans-Serif" font-size="10.00" fill="grey">uniformLocation</text>
</g>
<!-- Node13&#45;&gt;Node8 -->
<g id="edge17_Node000008_Node000013" class="edge">
<title>Node13&#45;&gt;Node8</title>
<g id="a_edge17_Node000008_Node000013"><a xlink:title=" ">
<path fill="none" stroke="#9a32cd" stroke-dasharray="5,2" d="M650.14,-364.36C729.28,-342.14 889.82,-290.92 1007.5,-213 1016.93,-206.75 1015.88,-200.96 1025.5,-195 1031.13,-191.51 1037.48,-188.58 1043.83,-186.14"/>
<polygon fill="#9a32cd" stroke="#9a32cd" points="649.23,-360.98 640.53,-367.02 651.1,-367.73 649.23,-360.98"/>
</a>
</g>
<text text-anchor="middle" x="844.62" y="-321.5" font-family="Helvetica,sans-Serif" font-size="10.00" fill="grey"> _texture</text>
</g>
<!-- Node14&#45;&gt;Node13 -->
<g id="edge19_Node000013_Node000014" class="edge">
<title>Node14&#45;&gt;Node13</title>
<g id="a_edge19_Node000013_Node000014"><a xlink:title=" ">
<path fill="none" stroke="#9a32cd" stroke-dasharray="5,2" d="M398.95,-461.71C437.85,-453.48 486.6,-440.85 527.75,-423 549.71,-413.47 572.63,-397.74 586.61,-387.37"/>
<polygon fill="#9a32cd" stroke="#9a32cd" points="398.31,-458.27 389.22,-463.72 399.72,-465.13 398.31,-458.27"/>
</a>
</g>
<text text-anchor="middle" x="466.5" y="-462.5" font-family="Helvetica,sans-Serif" font-size="10.00" fill="grey"> SHADER_VARIABLE</text>
</g>
<!-- Node15&#45;&gt;Node8 -->
<g id="edge21_Node000008_Node000015" class="edge">
<title>Node15&#45;&gt;Node8</title>
<g id="a_edge21_Node000008_Node000015"><a xlink:title=" ">
<path fill="none" stroke="#9a32cd" stroke-dasharray="5,2" d="M539.56,-140.69C670.54,-149.22 943.34,-166.97 1043.8,-173.51"/>
<polygon fill="#9a32cd" stroke="#9a32cd" points="539.82,-137.2 529.61,-140.04 539.36,-144.19 539.82,-137.2"/>
</a>
</g>
<text text-anchor="middle" x="721.12" y="-157.5" font-family="Helvetica,sans-Serif" font-size="10.00" fill="grey"> _enabledSubroutines</text>
</g>
<!-- Node16 -->
<g id="Node000016" class="node">
<title>Node16</title>
<g id="a_Node000016"><a xlink:title=" ">
<polygon fill="white" stroke="#666666" points="1387.12,-264 1306.62,-264 1306.62,-244 1387.12,-244 1387.12,-264"/>
<text text-anchor="middle" x="1346.88" y="-250.5" font-family="Helvetica,sans-Serif" font-size="10.00">std::array&lt; T &gt;</text>
</a>
</g>
</g>
<!-- Node16&#45;&gt;Node3 -->
<g id="edge23_Node000003_Node000016" class="edge">
<title>Node16&#45;&gt;Node3</title>
<g id="a_edge23_Node000003_Node000016"><a xlink:title=" ">
<path fill="none" stroke="#9a32cd" stroke-dasharray="5,2" d="M1398.86,-254C1450.98,-254 1531.08,-254 1580.58,-254"/>
<polygon fill="#9a32cd" stroke="#9a32cd" points="1399.06,-250.5 1389.06,-254 1399.06,-257.5 1399.06,-250.5"/>
</a>
</g>
<text text-anchor="middle" x="1496.25" y="-256.5" font-family="Helvetica,sans-Serif" font-size="10.00" fill="grey"> _viewModes</text>
</g>
<!-- Node17 -->
<g id="Node000017" class="node">
<title>Node17</title>
<g id="a_Node000017"><a xlink:title=" ">
<polygon fill="white" stroke="#666666" points="1097.4,-262 1068.6,-262 1068.6,-242 1097.4,-242 1097.4,-262"/>
<text text-anchor="middle" x="1083" y="-248.5" font-family="Helvetica,sans-Serif" font-size="10.00">T</text>
</a>
</g>
</g>
<!-- Node17&#45;&gt;Node16 -->
<g id="edge24_Node000016_Node000017" class="edge">
<title>Node17&#45;&gt;Node16</title>
<g id="a_edge24_Node000016_Node000017"><a xlink:title=" ">
<path fill="none" stroke="#9a32cd" stroke-dasharray="5,2" d="M1109.15,-252.19C1154.81,-252.54 1251.63,-253.28 1306.24,-253.7"/>
<polygon fill="#9a32cd" stroke="#9a32cd" points="1109.25,-248.69 1099.22,-252.12 1109.2,-255.69 1109.25,-248.69"/>
</a>
</g>
<text text-anchor="middle" x="1200.12" y="-255.5" font-family="Helvetica,sans-Serif" font-size="10.00" fill="grey"> elements</text>
</g>
<!-- Node18 -->
<g id="Node000018" class="node">
<title>Node18</title>
<g id="a_Node000018"><a xlink:href="../../d2/d21/struct_g_e_u_1_1_g_p_u_resources.html" target="_top" xlink:title=" ">
<polygon fill="white" stroke="#666666" points="1402.12,-302 1291.62,-302 1291.62,-282 1402.12,-282 1402.12,-302"/>
<text text-anchor="middle" x="1346.88" y="-288.5" font-family="Helvetica,sans-Serif" font-size="10.00">GEU::GPUResources</text>
</a>
</g>
</g>
<!-- Node18&#45;&gt;Node3 -->
<g id="edge26_Node000003_Node000018" class="edge">
<title>Node18&#45;&gt;Node3</title>
<g id="a_edge26_Node000003_Node000018"><a xlink:title=" ">
<path fill="none" stroke="#9a32cd" stroke-dasharray="5,2" d="M1413.56,-284.49C1450.84,-280.06 1498.34,-274.13 1540.5,-268 1553.41,-266.12 1567.4,-263.88 1580.2,-261.75"/>
<polygon fill="#9a32cd" stroke="#9a32cd" points="1413.36,-280.99 1403.84,-285.64 1414.18,-287.94 1413.36,-280.99"/>
</a>
</g>
<text text-anchor="middle" x="1496.25" y="-281.5" font-family="Helvetica,sans-Serif" font-size="10.00" fill="grey"> _GPUResources</text>
</g>
<!-- Node19 -->
<g id="Node000019" class="node">
<title>Node19</title>
<g id="a_Node000019"><a xlink:title=" ">
<polygon fill="white" stroke="#666666" points="1135.25,-324 1030.75,-324 1030.75,-280 1135.25,-280 1135.25,-324"/>
<text text-anchor="start" x="1038.75" y="-310.5" font-family="Helvetica,sans-Serif" font-size="10.00">std::array&lt; size_t,</text>
<text text-anchor="start" x="1038.75" y="-298.5" font-family="Helvetica,sans-Serif" font-size="10.00">(uint8_t) SSBOSlots</text>
<text text-anchor="middle" x="1083" y="-286.5" font-family="Helvetica,sans-Serif" font-size="10.00">::Total &gt;</text>
</a>
</g>
</g>
<!-- Node19&#45;&gt;Node18 -->
<g id="edge27_Node000018_Node000019" class="edge">
<title>Node19&#45;&gt;Node18</title>
<g id="a_edge27_Node000018_Node000019"><a xlink:title=" ">
<path fill="none" stroke="#9a32cd" stroke-dasharray="5,2" d="M1147.2,-299.59C1191.29,-297.9 1249.53,-295.68 1291.54,-294.07"/>
<polygon fill="#9a32cd" stroke="#9a32cd" points="1147.11,-296.09 1137.25,-299.97 1147.38,-303.08 1147.11,-296.09"/>
</a>
</g>
<text text-anchor="middle" x="1200.12" y="-301.5" font-family="Helvetica,sans-Serif" font-size="10.00" fill="grey"> _memoryReserved</text>
</g>
<!-- Node20 -->
<g id="Node000020" class="node">
<title>Node20</title>
<g id="a_Node000020"><a xlink:title=" ">
<polygon fill="white" stroke="#666666" points="1135.25,-386 1030.75,-386 1030.75,-342 1135.25,-342 1135.25,-386"/>
<text text-anchor="start" x="1038.75" y="-372.5" font-family="Helvetica,sans-Serif" font-size="10.00">std::array&lt; GLuint,</text>
<text text-anchor="start" x="1038.75" y="-360.5" font-family="Helvetica,sans-Serif" font-size="10.00">(uint8_t) SSBOSlots</text>
<text text-anchor="middle" x="1083" y="-348.5" font-family="Helvetica,sans-Serif" font-size="10.00">::Total &gt;</text>
</a>
</g>
</g>
<!-- Node20&#45;&gt;Node18 -->
<g id="edge28_Node000018_Node000020" class="edge">
<title>Node20&#45;&gt;Node18</title>
<g id="a_edge28_Node000018_Node000020"><a xlink:title=" ">
<path fill="none" stroke="#9a32cd" stroke-dasharray="5,2" d="M1146.17,-344C1179.65,-333.54 1221.77,-320.9 1259.75,-311 1271.31,-307.99 1283.82,-305.05 1295.63,-302.41"/>
<polygon fill="#9a32cd" stroke="#9a32cd" points="1145.55,-340.52 1137.06,-346.86 1147.65,-347.2 1145.55,-340.52"/>
</a>
</g>
<text text-anchor="middle" x="1200.12" y="-341.5" font-family="Helvetica,sans-Serif" font-size="10.00" fill="grey"> _ssboIds</text>
</g>
<!-- Node21 -->
<g id="Node000021" class="node">
<title>Node21</title>
<g id="a_Node000021"><a xlink:title=" ">
<polygon fill="white" stroke="#666666" points="1396.12,-378 1297.62,-378 1297.62,-358 1396.12,-358 1396.12,-378"/>
<text text-anchor="middle" x="1346.88" y="-364.5" font-family="Helvetica,sans-Serif" font-size="10.00">std::vector&lt; vec3 &gt;</text>
</a>
</g>
</g>
<!-- Node21&#45;&gt;Node3 -->
<g id="edge29_Node000003_Node000021" class="edge">
<title>Node21&#45;&gt;Node3</title>
<g id="a_edge29_Node000003_Node000021"><a xlink:title=" ">
<path fill="none" stroke="#9a32cd" stroke-dasharray="5,2" d="M1407.86,-365.39C1447.33,-361.65 1499.14,-352.79 1540.5,-332 1573.8,-315.26 1603.41,-281.36 1616.95,-264.3"/>
<polygon fill="#9a32cd" stroke="#9a32cd" points="1407.73,-361.89 1398.06,-366.23 1408.32,-368.86 1407.73,-361.89"/>
</a>
</g>
<text text-anchor="middle" x="1496.25" y="-373.5" font-family="Helvetica,sans-Serif" font-size="10.00" fill="grey"> _normals</text>
<text text-anchor="middle" x="1496.25" y="-361.5" font-family="Helvetica,sans-Serif" font-size="10.00" fill="grey">_position</text>
</g>
<!-- Node22 -->
<g id="Node000022" class="node">
<title>Node22</title>
<g id="a_Node000022"><a xlink:title=" ">
<polygon fill="white" stroke="#666666" points="1405.88,-340 1287.88,-340 1287.88,-320 1405.88,-320 1405.88,-340"/>
<text text-anchor="middle" x="1346.88" y="-326.5" font-family="Helvetica,sans-Serif" font-size="10.00">std::vector&lt; unsigned &gt;</text>
</a>
</g>
</g>
<!-- Node22&#45;&gt;Node3 -->
<g id="edge30_Node000003_Node000022" class="edge">
<title>Node22&#45;&gt;Node3</title>
<g id="a_edge30_Node000003_Node000022"><a xlink:title=" ">
<path fill="none" stroke="#9a32cd" stroke-dasharray="5,2" d="M1417.43,-322.04C1454.56,-316.63 1500.69,-308.03 1540.5,-295 1564.46,-287.16 1590.29,-273.78 1606.95,-264.45"/>
<polygon fill="#9a32cd" stroke="#9a32cd" points="1417.12,-318.55 1407.71,-323.41 1418.1,-325.48 1417.12,-318.55"/>
</a>
</g>
<text text-anchor="middle" x="1496.25" y="-318.5" font-family="Helvetica,sans-Serif" font-size="10.00" fill="grey"> _rgbColor</text>
</g>
<!-- Node23 -->
<g id="Node000023" class="node">
<title>Node23</title>
<g id="a_Node000023"><a xlink:title=" ">
<polygon fill="white" stroke="#666666" points="2163,-186 2018.75,-186 2018.75,-154 2163,-154 2163,-186"/>
<text text-anchor="start" x="2026.75" y="-172.5" font-family="Helvetica,sans-Serif" font-size="10.00">std::vector&lt; GEU::PointCloud</text>
<text text-anchor="middle" x="2090.88" y="-160.5" font-family="Helvetica,sans-Serif" font-size="10.00">::Meshlet &gt;</text>
</a>
</g>
</g>
<!-- Node23&#45;&gt;Node3 -->
<g id="edge31_Node000003_Node000023" class="edge">
<title>Node23&#45;&gt;Node3</title>
<g id="a_edge31_Node000003_Node000023"><a xlink:title=" ">
<path fill="none" stroke="#9a32cd" stroke-dasharray="5,2" d="M2007.07,-166.85C1950.71,-166.4 1874.76,-169.13 1809.25,-183 1747.89,-195.99 1680.18,-227.14 1647.15,-243.52"/>
<polygon fill="#9a32cd" stroke="#9a32cd" points="2006.87,-170.34 2016.92,-166.96 2006.96,-163.34 2006.87,-170.34"/>
</a>
</g>
<text text-anchor="middle" x="1874.62" y="-185.5" font-family="Helvetica,sans-Serif" font-size="10.00" fill="grey"> _meshlets</text>
</g>
<!-- Node24&#45;&gt;Node23 -->
<g id="edge32_Node000023_Node000024" class="edge">
<title>Node24&#45;&gt;Node23</title>
<g id="a_edge32_Node000023_Node000024"><a xlink:title=" ">
<path fill="none" stroke="#9a32cd" stroke-dasharray="5,2" d="M1918.87,-114.93C1953.48,-126.07 2002.09,-141.73 2038.64,-153.5"/>
<polygon fill="#9a32cd" stroke="#9a32cd" points="1920.2,-111.68 1909.61,-111.94 1918.05,-118.34 1920.2,-111.68"/>
</a>
</g>
<text text-anchor="middle" x="1979.38" y="-141.5" font-family="Helvetica,sans-Serif" font-size="10.00" fill="grey"> elements</text>
</g>
<!-- Node25 -->
<g id="Node000025" class="node">
<title>Node25</title>
<g id="a_Node000025"><a xlink:title=" ">
<polygon fill="white" stroke="#666666" points="1693,-45 1558.5,-45 1558.5,-1 1693,-1 1693,-45"/>
<text text-anchor="start" x="1566.5" y="-31.5" font-family="Helvetica,sans-Serif" font-size="10.00">std::array&lt; std::vector</text>
<text text-anchor="start" x="1566.5" y="-19.5" font-family="Helvetica,sans-Serif" font-size="10.00">&lt; dataState &gt;, NUM_DATA</text>
<text text-anchor="middle" x="1625.75" y="-7.5" font-family="Helvetica,sans-Serif" font-size="10.00">_SOURCES &gt;</text>
</a>
</g>
</g>
<!-- Node25&#45;&gt;Node24 -->
<g id="edge35_Node000024_Node000025" class="edge">
<title>Node25&#45;&gt;Node24</title>
<g id="a_edge35_Node000024_Node000025"><a xlink:title=" ">
<path fill="none" stroke="#9a32cd" stroke-dasharray="5,2" d="M1704.67,-36.52C1732.41,-42.37 1763.61,-50.18 1791.25,-60 1814.43,-68.24 1839.53,-81.4 1855.85,-90.58"/>
<polygon fill="#9a32cd" stroke="#9a32cd" points="1705.4,-33.09 1694.9,-34.51 1703.99,-39.95 1705.4,-33.09"/>
</a>
</g>
<text text-anchor="middle" x="1751.12" y="-62.5" font-family="Helvetica,sans-Serif" font-size="10.00" fill="grey"> fusionDataState</text>
</g>
<!-- Node26 -->
<g id="Node000026" class="node">
<title>Node26</title>
<g id="a_Node000026"><a xlink:title=" ">
<polygon fill="white" stroke="#666666" points="1407.38,-20 1286.38,-20 1286.38,0 1407.38,0 1407.38,-20"/>
<text text-anchor="middle" x="1346.88" y="-6.5" font-family="Helvetica,sans-Serif" font-size="10.00">std::vector&lt; dataState &gt;</text>
</a>
</g>
</g>
<!-- Node26&#45;&gt;Node25 -->
<g id="edge36_Node000025_Node000026" class="edge">
<title>Node26&#45;&gt;Node25</title>
<g id="a_edge36_Node000025_Node000026"><a xlink:title=" ">
<path fill="none" stroke="#9a32cd" stroke-dasharray="5,2" d="M1419.11,-13.34C1462.02,-15.36 1516.31,-17.91 1558.33,-19.88"/>
<polygon fill="#9a32cd" stroke="#9a32cd" points="1419.28,-9.85 1409.12,-12.88 1418.95,-16.84 1419.28,-9.85"/>
</a>
</g>
<text text-anchor="middle" x="1496.25" y="-21.5" font-family="Helvetica,sans-Serif" font-size="10.00" fill="grey"> elements</text>
</g>
<!-- Node27 -->
<g id="Node000027" class="node">
<title>Node27</title>
<g id="a_Node000027"><a xlink:title=" ">
<polygon fill="white" stroke="#666666" points="1419.75,-441 1274,-441 1274,-397 1419.75,-397 1419.75,-441"/>
<text text-anchor="start" x="1282" y="-427.5" font-family="Helvetica,sans-Serif" font-size="10.00">std::array&lt; std::vector</text>
<text text-anchor="start" x="1282" y="-415.5" font-family="Helvetica,sans-Serif" font-size="10.00">&lt; std::vector&lt; float &gt;</text>
<text text-anchor="middle" x="1346.88" y="-403.5" font-family="Helvetica,sans-Serif" font-size="10.00"> &gt;, NUM_DATA_SOURCES &gt;</text>
</a>
</g>
</g>
<!-- Node27&#45;&gt;Node3 -->
<g id="edge37_Node000003_Node000027" class="edge">
<title>Node27&#45;&gt;Node3</title>
<g id="a_edge37_Node000003_Node000027"><a xlink:title=" ">
<path fill="none" stroke="#9a32cd" stroke-dasharray="5,2" d="M1430.88,-420.04C1467.09,-416.92 1508.49,-408.22 1540.5,-387 1586.98,-356.19 1612.88,-290.03 1621.49,-264.42"/>
<polygon fill="#9a32cd" stroke="#9a32cd" points="1431.06,-416.51 1421.34,-420.72 1431.56,-423.5 1431.06,-416.51"/>
</a>
</g>
<text text-anchor="middle" x="1496.25" y="-418.5" font-family="Helvetica,sans-Serif" font-size="10.00" fill="grey"> _fusionData</text>
</g>
<!-- Node28 -->
<g id="Node000028" class="node">
<title>Node28</title>
<g id="a_Node000028"><a xlink:title=" ">
<polygon fill="white" stroke="#666666" points="1140.5,-436 1025.5,-436 1025.5,-404 1140.5,-404 1140.5,-436"/>
<text text-anchor="start" x="1033.5" y="-422.5" font-family="Helvetica,sans-Serif" font-size="10.00">std::vector&lt; std::vector</text>
<text text-anchor="middle" x="1083" y="-410.5" font-family="Helvetica,sans-Serif" font-size="10.00">&lt; float &gt; &gt;</text>
</a>
</g>
</g>
<!-- Node28&#45;&gt;Node27 -->
<g id="edge38_Node000027_Node000028" class="edge">
<title>Node28&#45;&gt;Node27</title>
<g id="a_edge38_Node000027_Node000028"><a xlink:title=" ">
<path fill="none" stroke="#9a32cd" stroke-dasharray="5,2" d="M1152.11,-419.74C1189.45,-419.6 1235.73,-419.42 1273.69,-419.28"/>
<polygon fill="#9a32cd" stroke="#9a32cd" points="1152.32,-416.24 1142.34,-419.78 1152.35,-423.24 1152.32,-416.24"/>
</a>
</g>
<text text-anchor="middle" x="1200.12" y="-421.5" font-family="Helvetica,sans-Serif" font-size="10.00" fill="grey"> elements</text>
</g>
<!-- Node29 -->
<g id="Node000029" class="node">
<title>Node29</title>
<g id="a_Node000029"><a xlink:title=" ">
<polygon fill="white" stroke="#666666" points="893.12,-444 796.12,-444 796.12,-424 893.12,-424 893.12,-444"/>
<text text-anchor="middle" x="844.62" y="-430.5" font-family="Helvetica,sans-Serif" font-size="10.00">std::vector&lt; float &gt;</text>
</a>
</g>
</g>
<!-- Node29&#45;&gt;Node28 -->
<g id="edge39_Node000028_Node000029" class="edge">
<title>Node29&#45;&gt;Node28</title>
<g id="a_edge39_Node000028_Node000029"><a xlink:title=" ">
<path fill="none" stroke="#9a32cd" stroke-dasharray="5,2" d="M904.54,-430.51C941.39,-428.33 988.61,-425.53 1025.07,-423.37"/>
<polygon fill="#9a32cd" stroke="#9a32cd" points="904.75,-426.99 894.97,-431.08 905.16,-433.98 904.75,-426.99"/>
</a>
</g>
<text text-anchor="middle" x="964.38" y="-431.5" font-family="Helvetica,sans-Serif" font-size="10.00" fill="grey"> elements</text>
</g>
<!-- Node30 -->
<g id="Node000030" class="node">
<title>Node30</title>
<g id="a_Node000030"><a xlink:title=" ">
<polygon fill="white" stroke="#666666" points="1434,-226 1259.75,-226 1259.75,-194 1434,-194 1434,-226"/>
<text text-anchor="start" x="1267.75" y="-212.5" font-family="Helvetica,sans-Serif" font-size="10.00">std::array&lt; std::vector</text>
<text text-anchor="middle" x="1346.88" y="-200.5" font-family="Helvetica,sans-Serif" font-size="10.00">&lt; vec2 &gt;, NUM_DATA_SOURCES &gt;</text>
</a>
</g>
</g>
<!-- Node30&#45;&gt;Node3 -->
<g id="edge40_Node000003_Node000030" class="edge">
<title>Node30&#45;&gt;Node3</title>
<g id="a_edge40_Node000003_Node000030"><a xlink:title=" ">
<path fill="none" stroke="#9a32cd" stroke-dasharray="5,2" d="M1445.38,-223.34C1475.88,-227.73 1509.63,-232.83 1540.5,-238 1553.42,-240.17 1567.41,-242.73 1580.22,-245.17"/>
<polygon fill="#9a32cd" stroke="#9a32cd" points="1446.19,-219.92 1435.8,-221.96 1445.2,-226.85 1446.19,-219.92"/>
</a>
</g>
<text text-anchor="middle" x="1496.25" y="-240.5" font-family="Helvetica,sans-Serif" font-size="10.00" fill="grey"> _fusionDataMinMax</text>
</g>
<!-- Node31 -->
<g id="Node000031" class="node">
<title>Node31</title>
<g id="a_Node000031"><a xlink:title=" ">
<polygon fill="white" stroke="#666666" points="1132.25,-224 1033.75,-224 1033.75,-204 1132.25,-204 1132.25,-224"/>
<text text-anchor="middle" x="1083" y="-210.5" font-family="Helvetica,sans-Serif" font-size="10.00">std::vector&lt; vec2 &gt;</text>
</a>
</g>
</g>
<!-- Node31&#45;&gt;Node30 -->
<g id="edge41_Node000030_Node000031" class="edge">
<title>Node31&#45;&gt;Node30</title>
<g id="a_edge41_Node000030_Node000031"><a xlink:title=" ">
<path fill="none" stroke="#9a32cd" stroke-dasharray="5,2" d="M1143.86,-213.09C1178.04,-212.56 1221.49,-211.9 1259.33,-211.32"/>
<polygon fill="#9a32cd" stroke="#9a32cd" points="1144.1,-209.58 1134.16,-213.23 1144.21,-216.58 1144.1,-209.58"/>
</a>
</g>
<text text-anchor="middle" x="1200.12" y="-214.5" font-family="Helvetica,sans-Serif" font-size="10.00" fill="grey"> elements</text>
</g>
<!-- Node32 -->
<g id="Node000032" class="node">
<title>Node32</title>
<g id="a_Node000032"><a xlink:title=" ">
<polygon fill="white" stroke="#666666" points="2157.75,-247 2024,-247 2024,-215 2157.75,-215 2157.75,-247"/>
<text text-anchor="start" x="2032" y="-233.5" font-family="Helvetica,sans-Serif" font-size="10.00">std::vector&lt; std::unique</text>
<text text-anchor="middle" x="2090.88" y="-221.5" font-family="Helvetica,sans-Serif" font-size="10.00">_ptr&lt; GEU::PointCloud &gt; &gt;</text>
</a>
</g>
</g>
<!-- Node32&#45;&gt;Node3 -->
<g id="edge42_Node000003_Node000032" class="edge">
<title>Node32&#45;&gt;Node3</title>
<g id="a_edge42_Node000003_Node000032"><a xlink:title=" ">
<path fill="none" stroke="#9a32cd" stroke-dasharray="5,2" d="M2012.49,-240.77C2008.52,-241.2 2004.59,-241.62 2000.75,-242 1872.41,-254.81 1839.94,-261.06 1711,-258 1698.12,-257.69 1684.14,-257.13 1671.33,-256.51"/>
<polygon fill="#9a32cd" stroke="#9a32cd" points="2012.67,-244.27 2022.22,-239.68 2011.89,-237.32 2012.67,-244.27"/>
</a>
</g>
<text text-anchor="middle" x="1874.62" y="-260.5" font-family="Helvetica,sans-Serif" font-size="10.00" fill="grey"> _subClouds</text>
</g>
<!-- Node33&#45;&gt;Node32 -->
<g id="edge43_Node000032_Node000033" class="edge">
<title>Node33&#45;&gt;Node32</title>
<g id="a_edge43_Node000032_Node000033"><a xlink:title=" ">
<path fill="none" stroke="#9a32cd" stroke-dasharray="5,2" d="M1941.52,-223.38C1967.56,-224.72 1997.42,-226.25 2023.5,-227.59"/>
<polygon fill="#9a32cd" stroke="#9a32cd" points="1941.92,-219.9 1931.76,-222.88 1941.56,-226.89 1941.92,-219.9"/>
</a>
</g>
<text text-anchor="middle" x="1979.38" y="-228.5" font-family="Helvetica,sans-Serif" font-size="10.00" fill="grey"> elements</text>
</g>
</g>
</svg>

<g id="navigator" transform="translate(0 0)" fill="#404254">
  <rect fill="#f2f5e9" fill-opacity="0.5" stroke="#606060" stroke-width=".5" x="0" y="0" width="60" height="60"/>
  <use id="zoomplus" xlink:href="#zoomPlus" x="17" y="9" onmousedown="handleZoom(evt,'in')"/>
  <use id="zoomminus" xlink:href="#zoomMin" x="42" y="9" onmousedown="handleZoom(evt,'out')"/>
  <use id="reset" xlink:href="#resetDef" x="30" y="36" onmousedown="handleReset()"/>
   <use id="arrowup" xlink:href="#arrowUp" x="0" y="0" onmousedown="handlePan(0,-1)"/>
  <use id="arrowright" xlink:href="#arrowRight" x="0" y="0" onmousedown="handlePan(1,0)"/>
  <use id="arrowdown" xlink:href="#arrowDown" x="0" y="0" onmousedown="handlePan(0,1)"/>
  <use id="arrowleft" xlink:href="#arrowLeft" x="0" y="0" onmousedown="handlePan(-1,0)"/>
</g>
<svg viewBox="0 0 15 15" width="100%" height="30px" preserveAspectRatio="xMaxYMin meet">
 <g id="arrow_out" transform="scale(0.3 0.3)">
  <a xlink:href="class_env_point_cloud__coll__graph_org.svg" target="_base">
   <rect id="button" ry="5" rx="5" y="6" x="6" height="38" width="38"
        fill="#f2f5e9" fill-opacity="0.5" stroke="#606060" stroke-width="1.0"/>
   <path id="arrow"
     d="M 11.500037,31.436501 C 11.940474,20.09759 22.043105,11.32322 32.158766,21.979434 L 37.068811,17.246167 C 37.068811,17.246167 37.088388,32 37.088388,32 L 22.160133,31.978069 C 22.160133,31.978069 26.997745,27.140456 26.997745,27.140456 C 18.528582,18.264221 13.291696,25.230495 11.500037,31.436501 z"
     style="fill:#404040;"/>
  </a>
 </g>
</svg>

<style type='text/css'>
<![CDATA[
[data-mouse-over-selected='false'] { opacity: 0.7; }
[data-mouse-over-selected='true']  { opacity: 1.0; }
]]>
</style>
<script type="application/ecmascript"><![CDATA[
document.addEventListener('DOMContentLoaded', (event) => {
  highlightEdges();
  highlightAdjacentNodes();
});
]]></script>
</svg>
