<?xml version="1.0" encoding="UTF-8" standalone="no"?>
<!DOCTYPE svg PUBLIC "-//W3C//DTD SVG 1.1//EN"
 "http://www.w3.org/Graphics/SVG/1.1/DTD/svg11.dtd">
<!-- Generated by graphviz version 10.0.1 (20240210.2158)
 -->
<!-- Title: C:/GitHub/GEU/GEU/Source/UI/GUI.h Pages: 1 -->
<!--zoomable 656 -->

<svg id="main" version="1.1" xmlns="http://www.w3.org/2000/svg" xmlns:xlink="http://www.w3.org/1999/xlink" xml:space="preserve" onload="init(evt)">
<style type="text/css"><![CDATA[
.node, .edge {opacity: 0.7;}
.node.selected, .edge.selected {opacity: 1;}
.edge:hover path { stroke: red; }
.edge:hover polygon { stroke: red; fill: red; }
]]></style>

<defs>
  <circle id="rim" cx="0" cy="0" r="7"/>
  <circle id="rim2" cx="0" cy="0" r="3.5"/>
  <g id="zoomPlus">
    <use xlink:href="#rim" fill="#404040"><set attributeName="fill" to="#808080" begin="zoomplus.mouseover" end="zoomplus.mouseout"/></use>
    <path d="M-4,0h8M0,-4v8" fill="none" stroke="white" stroke-width="1.5" pointer-events="none"/>
  </g>
  <g id="zoomMin">
    <use xlink:href="#rim" fill="#404040"><set attributeName="fill" to="#808080" begin="zoomminus.mouseover" end="zoomminus.mouseout"/></use>
    <path d="M-4,0h8" fill="none" stroke="white" stroke-width="1.5" pointer-events="none"/>
  </g>
  <g id="arrowUp" transform="translate(30 24)">
    <use xlink:href="#rim"/>
    <path pointer-events="none" fill="none" stroke="white" stroke-width="1.5" d="M0,-3.0v7 M-2.5,-0.5L0,-3.0L2.5,-0.5"/>
  </g>
  <g id="arrowRight" transform="rotate(90) translate(36 -43)">
    <use xlink:href="#rim"/>
    <path pointer-events="none" fill="none" stroke="white" stroke-width="1.5" d="M0,-3.0v7 M-2.5,-0.5L0,-3.0L2.5,-0.5"/>
  </g>
  <g id="arrowDown" transform="rotate(180) translate(-30 -48)">
    <use xlink:href="#rim"/>
    <path pointer-events="none" fill="none" stroke="white" stroke-width="1.5" d="M0,-3.0v7 M-2.5,-0.5L0,-3.0L2.5,-0.5"/>
  </g>
  <g id="arrowLeft" transform="rotate(270) translate(-36 17)">
    <use xlink:href="#rim"/>
    <path pointer-events="none" fill="none" stroke="white" stroke-width="1.5" d="M0,-3.0v7 M-2.5,-0.5L0,-3.0L2.5,-0.5"/>
  </g>
  <g id="resetDef">
    <use xlink:href="#rim2" fill="#404040"><set attributeName="fill" to="#808080" begin="reset.mouseover" end="reset.mouseout"/></use>
  </g>
</defs>
<script type="application/ecmascript">
var viewWidth = 1033;
var viewHeight = 656;
var sectionId = 'dynsection-0';
</script>
<script type="application/ecmascript" xlink:href="../../svg.min.js"/>
<svg id="graph" class="graph">
<g id="viewport">
<title>C:/GitHub/GEU/GEU/Source/UI/GUI.h</title>
<!-- Node1 -->
<g id="Node000001" class="node">
<title>Node1</title>
<g id="a_Node000001"><a xlink:title=" ">
<polygon fill="#999999" stroke="#666666" points="697.12,-648 556.62,-648 556.62,-616 697.12,-616 697.12,-648"/>
<text text-anchor="start" x="564.62" y="-634.5" font-family="Helvetica,sans-Serif" font-size="10.00">C:/GitHub/GEU/GEU/Source</text>
<text text-anchor="middle" x="626.88" y="-622.5" font-family="Helvetica,sans-Serif" font-size="10.00">/UI/GUI.h</text>
</a>
</g>
</g>
<!-- Node2 -->
<g id="Node000002" class="node">
<title>Node2</title>
<g id="a_Node000002"><a xlink:href="../../de/d72/_picking_window_8h.html" target="_top" xlink:title=" ">
<polygon fill="white" stroke="#666666" points="388.38,-580 297.38,-580 297.38,-560 388.38,-560 388.38,-580"/>
<text text-anchor="middle" x="342.88" y="-566.5" font-family="Helvetica,sans-Serif" font-size="10.00">PickingWindow.h</text>
</a>
</g>
</g>
<!-- Node1&#45;&gt;Node2 -->
<g id="edge1_Node000001_Node000002" class="edge">
<title>Node1&#45;&gt;Node2</title>
<g id="a_edge1_Node000001_Node000002"><a xlink:title=" ">
<path fill="none" stroke="#63b8ff" d="M556.31,-616.09C507.69,-605.82 443.98,-592.36 398.86,-582.83"/>
<polygon fill="#63b8ff" stroke="#63b8ff" points="399.79,-579.45 389.29,-580.81 398.35,-586.3 399.79,-579.45"/>
</a>
</g>
</g>
<!-- Node4 -->
<g id="Node000004" class="node">
<title>Node4</title>
<g id="a_Node000004"><a xlink:href="../../de/d6f/_i___g_u_i_window_8h.html" target="_top" xlink:title=" ">
<polygon fill="white" stroke="#666666" points="221.25,-524 138.5,-524 138.5,-504 221.25,-504 221.25,-524"/>
<text text-anchor="middle" x="179.88" y="-510.5" font-family="Helvetica,sans-Serif" font-size="10.00">I_GUIWindow.h</text>
</a>
</g>
</g>
<!-- Node1&#45;&gt;Node4 -->
<g id="edge58_Node000001_Node000004" class="edge">
<title>Node1&#45;&gt;Node4</title>
<g id="a_edge58_Node000001_Node000004"><a xlink:title=" ">
<path fill="none" stroke="#63b8ff" d="M556.43,-628.41C486.46,-624 377.05,-612.1 287.88,-580 255.32,-568.28 221.77,-546.24 200.89,-531.1"/>
<polygon fill="#63b8ff" stroke="#63b8ff" points="203.04,-528.34 192.92,-525.2 198.87,-533.96 203.04,-528.34"/>
</a>
</g>
</g>
<!-- Node23 -->
<g id="Node000023" class="node">
<title>Node23</title>
<g id="a_Node000023"><a xlink:href="../../da/dde/_f_b_o_render_8h.html" target="_top" xlink:title=" ">
<polygon fill="white" stroke="#666666" points="580.12,-580 481.62,-580 481.62,-560 580.12,-560 580.12,-580"/>
<text text-anchor="middle" x="530.88" y="-566.5" font-family="Helvetica,sans-Serif" font-size="10.00">Core/FBORender.h</text>
</a>
</g>
</g>
<!-- Node1&#45;&gt;Node23 -->
<g id="edge28_Node000001_Node000023" class="edge">
<title>Node1&#45;&gt;Node23</title>
<g id="a_edge28_Node000001_Node000023"><a xlink:title=" ">
<path fill="none" stroke="#63b8ff" d="M602.15,-615.55C587.85,-606.61 569.9,-595.39 555.6,-586.45"/>
<polygon fill="#63b8ff" stroke="#63b8ff" points="557.55,-583.54 547.21,-581.21 553.84,-589.48 557.55,-583.54"/>
</a>
</g>
</g>
<!-- Node25 -->
<g id="Node000025" class="node">
<title>Node25</title>
<g id="a_Node000025"><a xlink:href="../../de/d56/_scene_8h.html" target="_top" xlink:title=" ">
<polygon fill="white" stroke="#666666" points="655.5,-468 580.25,-468 580.25,-448 655.5,-448 655.5,-468"/>
<text text-anchor="middle" x="617.88" y="-454.5" font-family="Helvetica,sans-Serif" font-size="10.00">Core/Scene.h</text>
</a>
</g>
</g>
<!-- Node1&#45;&gt;Node25 -->
<g id="edge31_Node000001_Node000025" class="edge">
<title>Node1&#45;&gt;Node25</title>
<g id="a_edge31_Node000001_Node000025"><a xlink:title=" ">
<path fill="none" stroke="#63b8ff" d="M626.08,-615.74C624.45,-584.69 620.76,-514.18 618.94,-479.31"/>
<polygon fill="#63b8ff" stroke="#63b8ff" points="622.45,-479.52 618.44,-469.72 615.46,-479.89 622.45,-479.52"/>
</a>
</g>
</g>
<!-- Node30 -->
<g id="Node000030" class="node">
<title>Node30</title>
<g id="a_Node000030"><a xlink:href="../../de/dec/_singleton_8h.html" target="_top" xlink:title=" ">
<polygon fill="white" stroke="#666666" points="983.25,-356 918.5,-356 918.5,-336 983.25,-336 983.25,-356"/>
<text text-anchor="middle" x="950.88" y="-342.5" font-family="Helvetica,sans-Serif" font-size="10.00">Singleton.h</text>
</a>
</g>
</g>
<!-- Node1&#45;&gt;Node30 -->
<g id="edge50_Node000001_Node000030" class="edge">
<title>Node1&#45;&gt;Node30</title>
<g id="a_edge50_Node000001_Node000030"><a xlink:title=" ">
<path fill="none" stroke="#63b8ff" d="M697.57,-627.64C787.28,-622.24 935.91,-609.11 981.88,-580 1011.14,-561.47 1024.88,-549.64 1024.88,-515 1024.88,-515 1024.88,-515 1024.88,-457 1024.88,-418.74 993.67,-383.78 971.78,-363.97"/>
<polygon fill="#63b8ff" stroke="#63b8ff" points="974.09,-361.34 964.24,-357.44 969.51,-366.63 974.09,-361.34"/>
</a>
</g>
</g>
<!-- Node32 -->
<g id="Node000032" class="node">
<title>Node32</title>
<g id="a_Node000032"><a xlink:href="../../d7/dd1/_module_manager_8h.html" target="_top" xlink:title=" ">
<polygon fill="white" stroke="#666666" points="972.38,-580 839.38,-580 839.38,-560 972.38,-560 972.38,-580"/>
<text text-anchor="middle" x="905.88" y="-566.5" font-family="Helvetica,sans-Serif" font-size="10.00">Modules/ModuleManager.h</text>
</a>
</g>
</g>
<!-- Node1&#45;&gt;Node32 -->
<g id="edge41_Node000001_Node000032" class="edge">
<title>Node1&#45;&gt;Node32</title>
<g id="a_edge41_Node000001_Node000032"><a xlink:title=" ">
<path fill="none" stroke="#63b8ff" d="M697.28,-615.86C744.95,-605.61 807.02,-592.26 851.02,-582.8"/>
<polygon fill="#63b8ff" stroke="#63b8ff" points="851.56,-586.26 860.6,-580.74 850.09,-579.42 851.56,-586.26"/>
</a>
</g>
</g>
<!-- Node37 -->
<g id="Node000037" class="node">
<title>Node37</title>
<g id="a_Node000037"><a xlink:href="../../de/df3/_i___g_u_i_popup_8h.html" target="_top" xlink:title=" ">
<polygon fill="white" stroke="#666666" points="723.88,-524 635.88,-524 635.88,-504 723.88,-504 723.88,-524"/>
<text text-anchor="middle" x="679.88" y="-510.5" font-family="Helvetica,sans-Serif" font-size="10.00">UI/I_GUIPopup.h</text>
</a>
</g>
</g>
<!-- Node1&#45;&gt;Node37 -->
<g id="edge51_Node000001_Node000037" class="edge">
<title>Node1&#45;&gt;Node37</title>
<g id="a_edge51_Node000001_Node000037"><a xlink:title=" ">
<path fill="none" stroke="#63b8ff" d="M633.8,-615.84C643.31,-595.03 660.41,-557.61 670.89,-534.67"/>
<polygon fill="#63b8ff" stroke="#63b8ff" points="673.96,-536.36 674.93,-525.81 667.59,-533.46 673.96,-536.36"/>
</a>
</g>
</g>
<!-- Node38 -->
<g id="Node000038" class="node">
<title>Node38</title>
<g id="a_Node000038"><a xlink:href="../../dc/dc5/_file_dialog_popup_8h.html" target="_top" xlink:title=" ">
<polygon fill="white" stroke="#666666" points="780.25,-580 673.5,-580 673.5,-560 780.25,-560 780.25,-580"/>
<text text-anchor="middle" x="726.88" y="-566.5" font-family="Helvetica,sans-Serif" font-size="10.00">UI/FileDialogPopup.h</text>
</a>
</g>
</g>
<!-- Node1&#45;&gt;Node38 -->
<g id="edge55_Node000001_Node000038" class="edge">
<title>Node1&#45;&gt;Node38</title>
<g id="a_edge55_Node000001_Node000038"><a xlink:title=" ">
<path fill="none" stroke="#63b8ff" d="M652.63,-615.55C667.67,-606.52 686.58,-595.17 701.56,-586.19"/>
<polygon fill="#63b8ff" stroke="#63b8ff" points="703.12,-589.33 709.9,-581.19 699.52,-583.33 703.12,-589.33"/>
</a>
</g>
</g>
<!-- Node3 -->
<g id="Node000003" class="node">
<title>Node3</title>
<g id="a_Node000003"><a xlink:title=" ">
<polygon fill="#e0e0e0" stroke="#999999" points="408.62,-524 277.12,-524 277.12,-504 408.62,-504 408.62,-524"/>
<text text-anchor="middle" x="342.88" y="-510.5" font-family="Helvetica,sans-Serif" font-size="10.00">pcl/octree/octree_search.h</text>
</a>
</g>
</g>
<!-- Node2&#45;&gt;Node3 -->
<g id="edge2_Node000002_Node000003" class="edge">
<title>Node2&#45;&gt;Node3</title>
<g id="a_edge2_Node000002_Node000003"><a xlink:title=" ">
<path fill="none" stroke="#63b8ff" d="M342.88,-559.59C342.88,-553.01 342.88,-543.96 342.88,-535.73"/>
<polygon fill="#63b8ff" stroke="#63b8ff" points="346.38,-535.81 342.88,-525.81 339.38,-535.81 346.38,-535.81"/>
</a>
</g>
</g>
<!-- Node2&#45;&gt;Node4 -->
<g id="edge3_Node000002_Node000004" class="edge">
<title>Node2&#45;&gt;Node4</title>
<g id="a_edge3_Node000002_Node000004"><a xlink:title=" ">
<path fill="none" stroke="#63b8ff" d="M314.48,-559.59C288.12,-550.86 248.61,-537.77 219.21,-528.03"/>
<polygon fill="#63b8ff" stroke="#63b8ff" points="220.52,-524.78 209.93,-524.96 218.32,-531.42 220.52,-524.78"/>
</a>
</g>
</g>
<!-- Node5 -->
<g id="Node000005" class="node">
<title>Node5</title>
<g id="a_Node000005"><a xlink:href="../../dc/d05/_point_cloud_8h.html" target="_top" xlink:title=" ">
<polygon fill="white" stroke="#666666" points="294.25,-412 199.5,-412 199.5,-392 294.25,-392 294.25,-412"/>
<text text-anchor="middle" x="246.88" y="-398.5" font-family="Helvetica,sans-Serif" font-size="10.00">Core/PointCloud.h</text>
</a>
</g>
</g>
<!-- Node2&#45;&gt;Node5 -->
<g id="edge4_Node000002_Node000005" class="edge">
<title>Node2&#45;&gt;Node5</title>
<g id="a_edge4_Node000002_Node000005"><a xlink:title=" ">
<path fill="none" stroke="#63b8ff" d="M315.85,-559.51C299.39,-552.32 279.38,-540.78 267.88,-524 247.14,-493.77 244.79,-449.56 245.47,-423.79"/>
<polygon fill="#63b8ff" stroke="#63b8ff" points="248.96,-424.13 245.94,-413.97 241.97,-423.8 248.96,-424.13"/>
</a>
</g>
</g>
<!-- Node21 -->
<g id="Node000021" class="node">
<title>Node21</title>
<g id="a_Node000021"><a xlink:href="../../d5/d91/_camera_8h.html" target="_top" xlink:title=" ">
<polygon fill="white" stroke="#666666" points="449.88,-412 331.88,-412 331.88,-392 449.88,-392 449.88,-412"/>
<text text-anchor="middle" x="390.88" y="-398.5" font-family="Helvetica,sans-Serif" font-size="10.00">Core/Camera/Camera.h</text>
</a>
</g>
</g>
<!-- Node2&#45;&gt;Node21 -->
<g id="edge25_Node000002_Node000021" class="edge">
<title>Node2&#45;&gt;Node21</title>
<g id="a_edge25_Node000002_Node000021"><a xlink:title=" ">
<path fill="none" stroke="#63b8ff" d="M372.43,-559.51C388.96,-552.51 408.15,-541.18 417.88,-524 436.35,-491.37 417.17,-447.11 403.04,-422.17"/>
<polygon fill="#63b8ff" stroke="#63b8ff" points="406.15,-420.54 398.01,-413.76 400.14,-424.14 406.15,-420.54"/>
</a>
</g>
</g>
<!-- Node6 -->
<g id="Node000006" class="node">
<title>Node6</title>
<g id="a_Node000006"><a xlink:title=" ">
<polygon fill="#e0e0e0" stroke="#999999" points="291.62,-356 202.12,-356 202.12,-336 291.62,-336 291.62,-356"/>
<text text-anchor="middle" x="246.88" y="-342.5" font-family="Helvetica,sans-Serif" font-size="10.00">pcl/point_cloud.h</text>
</a>
</g>
</g>
<!-- Node5&#45;&gt;Node6 -->
<g id="edge5_Node000005_Node000006" class="edge">
<title>Node5&#45;&gt;Node6</title>
<g id="a_edge5_Node000005_Node000006"><a xlink:title=" ">
<path fill="none" stroke="#63b8ff" d="M246.88,-391.59C246.88,-385.01 246.88,-375.96 246.88,-367.73"/>
<polygon fill="#63b8ff" stroke="#63b8ff" points="250.38,-367.81 246.88,-357.81 243.38,-367.81 250.38,-367.81"/>
</a>
</g>
</g>
<!-- Node7 -->
<g id="Node000007" class="node">
<title>Node7</title>
<g id="a_Node000007"><a xlink:href="../../d1/dfb/_lines_model_8h.html" target="_top" xlink:title=" ">
<polygon fill="white" stroke="#666666" points="183.75,-356 110,-356 110,-336 183.75,-336 183.75,-356"/>
<text text-anchor="middle" x="146.88" y="-342.5" font-family="Helvetica,sans-Serif" font-size="10.00">LinesModel.h</text>
</a>
</g>
</g>
<!-- Node5&#45;&gt;Node7 -->
<g id="edge6_Node000005_Node000007" class="edge">
<title>Node5&#45;&gt;Node7</title>
<g id="a_edge6_Node000005_Node000007"><a xlink:title=" ">
<path fill="none" stroke="#63b8ff" d="M229.46,-391.59C214.21,-383.36 191.8,-371.26 174.17,-361.74"/>
<polygon fill="#63b8ff" stroke="#63b8ff" points="176.22,-358.87 165.76,-357.2 172.9,-365.03 176.22,-358.87"/>
</a>
</g>
</g>
<!-- Node19 -->
<g id="Node000019" class="node">
<title>Node19</title>
<g id="a_Node000019"><a xlink:href="../../dd/db7/_g_p_u_resources_8h.html" target="_top" xlink:title=" ">
<polygon fill="white" stroke="#666666" points="91.75,-356 0,-356 0,-336 91.75,-336 91.75,-356"/>
<text text-anchor="middle" x="45.88" y="-342.5" font-family="Helvetica,sans-Serif" font-size="10.00">GPUResources.h</text>
</a>
</g>
</g>
<!-- Node5&#45;&gt;Node19 -->
<g id="edge22_Node000005_Node000019" class="edge">
<title>Node5&#45;&gt;Node19</title>
<g id="a_edge22_Node000005_Node000019"><a xlink:title=" ">
<path fill="none" stroke="#63b8ff" d="M211.86,-391.59C178.63,-382.67 128.49,-369.19 92.01,-359.39"/>
<polygon fill="#63b8ff" stroke="#63b8ff" points="93.19,-356.09 82.62,-356.87 91.37,-362.85 93.19,-356.09"/>
</a>
</g>
</g>
<!-- Node8 -->
<g id="Node000008" class="node">
<title>Node8</title>
<g id="a_Node000008"><a xlink:href="../../d0/d8e/_model3_d_8h.html" target="_top" xlink:title=" ">
<polygon fill="white" stroke="#666666" points="441.12,-300 378.62,-300 378.62,-280 441.12,-280 441.12,-300"/>
<text text-anchor="middle" x="409.88" y="-286.5" font-family="Helvetica,sans-Serif" font-size="10.00">Model3D.h</text>
</a>
</g>
</g>
<!-- Node7&#45;&gt;Node8 -->
<g id="edge7_Node000007_Node000008" class="edge">
<title>Node7&#45;&gt;Node8</title>
<g id="a_edge7_Node000007_Node000008"><a xlink:title=" ">
<path fill="none" stroke="#63b8ff" d="M184,-337.38C232.21,-327.48 316.19,-310.24 367.04,-299.79"/>
<polygon fill="#63b8ff" stroke="#63b8ff" points="367.72,-303.23 376.81,-297.79 366.31,-296.37 367.72,-303.23"/>
</a>
</g>
</g>
<!-- Node18 -->
<g id="Node000018" class="node">
<title>Node18</title>
<g id="a_Node000018"><a xlink:href="../../d9/dd4/_v_a_o_8h.html" target="_top" xlink:title=" ">
<polygon fill="white" stroke="#666666" points="205.5,-244 160.25,-244 160.25,-224 205.5,-224 205.5,-244"/>
<text text-anchor="middle" x="182.88" y="-230.5" font-family="Helvetica,sans-Serif" font-size="10.00">VAO.h</text>
</a>
</g>
</g>
<!-- Node7&#45;&gt;Node18 -->
<g id="edge20_Node000007_Node000018" class="edge">
<title>Node7&#45;&gt;Node18</title>
<g id="a_edge20_Node000007_Node000018"><a xlink:title=" ">
<path fill="none" stroke="#63b8ff" d="M149.94,-335.62C155.76,-317.84 168.51,-278.88 176.33,-255"/>
<polygon fill="#63b8ff" stroke="#63b8ff" points="179.56,-256.39 179.34,-245.79 172.91,-254.21 179.56,-256.39"/>
</a>
</g>
</g>
<!-- Node9 -->
<g id="Node000009" class="node">
<title>Node9</title>
<g id="a_Node000009"><a xlink:href="../../d3/d09/_material_8h.html" target="_top" xlink:title=" ">
<polygon fill="white" stroke="#666666" points="564.25,-244 505.5,-244 505.5,-224 564.25,-224 564.25,-244"/>
<text text-anchor="middle" x="534.88" y="-230.5" font-family="Helvetica,sans-Serif" font-size="10.00">Material.h</text>
</a>
</g>
</g>
<!-- Node8&#45;&gt;Node9 -->
<g id="edge8_Node000008_Node000009" class="edge">
<title>Node8&#45;&gt;Node9</title>
<g id="a_edge8_Node000008_Node000009"><a xlink:title=" ">
<path fill="none" stroke="#63b8ff" d="M431.65,-279.59C451.24,-271.13 480.3,-258.58 502.6,-248.94"/>
<polygon fill="#63b8ff" stroke="#63b8ff" points="503.75,-252.26 511.54,-245.08 500.97,-245.83 503.75,-252.26"/>
</a>
</g>
</g>
<!-- Node17 -->
<g id="Node000017" class="node">
<title>Node17</title>
<g id="a_Node000017"><a xlink:href="../../d2/d00/_a_a_b_b_8h.html" target="_top" xlink:title=" ">
<polygon fill="white" stroke="#666666" points="449.38,-244 352.38,-244 352.38,-224 449.38,-224 449.38,-244"/>
<text text-anchor="middle" x="400.88" y="-230.5" font-family="Helvetica,sans-Serif" font-size="10.00">Geometry/AABB.h</text>
</a>
</g>
</g>
<!-- Node8&#45;&gt;Node17 -->
<g id="edge19_Node000008_Node000017" class="edge">
<title>Node8&#45;&gt;Node17</title>
<g id="a_edge19_Node000008_Node000017"><a xlink:title=" ">
<path fill="none" stroke="#63b8ff" d="M408.31,-279.59C407.2,-272.93 405.67,-263.75 404.28,-255.44"/>
<polygon fill="#63b8ff" stroke="#63b8ff" points="407.77,-255.08 402.67,-245.79 400.87,-256.23 407.77,-255.08"/>
</a>
</g>
</g>
<!-- Node10 -->
<g id="Node000010" class="node">
<title>Node10</title>
<g id="a_Node000010"><a xlink:title=" ">
<polygon fill="#e0e0e0" stroke="#999999" points="458.38,-132 373.38,-132 373.38,-112 458.38,-112 458.38,-132"/>
<text text-anchor="middle" x="415.88" y="-118.5" font-family="Helvetica,sans-Serif" font-size="10.00">assimp/scene.h</text>
</a>
</g>
</g>
<!-- Node9&#45;&gt;Node10 -->
<g id="edge9_Node000009_Node000010" class="edge">
<title>Node9&#45;&gt;Node10</title>
<g id="a_edge9_Node000009_Node000010"><a xlink:title=" ">
<path fill="none" stroke="#63b8ff" d="M524.73,-223.62C504.71,-205.11 459.85,-163.65 434.41,-140.13"/>
<polygon fill="#63b8ff" stroke="#63b8ff" points="436.83,-137.6 427.11,-133.38 432.07,-142.74 436.83,-137.6"/>
</a>
</g>
</g>
<!-- Node11 -->
<g id="Node000011" class="node">
<title>Node11</title>
<g id="a_Node000011"><a xlink:href="../../d1/d4f/_rendering_shader_8h.html" target="_top" xlink:title=" ">
<polygon fill="white" stroke="#666666" points="668.25,-188 507.5,-188 507.5,-168 668.25,-168 668.25,-188"/>
<text text-anchor="middle" x="587.88" y="-174.5" font-family="Helvetica,sans-Serif" font-size="10.00">Core/Shaders/RenderingShader.h</text>
</a>
</g>
</g>
<!-- Node9&#45;&gt;Node11 -->
<g id="edge10_Node000009_Node000011" class="edge">
<title>Node9&#45;&gt;Node11</title>
<g id="a_edge10_Node000009_Node000011"><a xlink:title=" ">
<path fill="none" stroke="#63b8ff" d="M544.11,-223.59C551.48,-216.08 562.01,-205.35 570.89,-196.3"/>
<polygon fill="#63b8ff" stroke="#63b8ff" points="573.18,-198.97 577.69,-189.38 568.19,-194.06 573.18,-198.97"/>
</a>
</g>
</g>
<!-- Node15 -->
<g id="Node000015" class="node">
<title>Node15</title>
<g id="a_Node000015"><a xlink:href="../../de/dbf/_texture_8h.html" target="_top" xlink:title=" ">
<polygon fill="white" stroke="#666666" points="452.12,-188 395.62,-188 395.62,-168 452.12,-168 452.12,-188"/>
<text text-anchor="middle" x="423.88" y="-174.5" font-family="Helvetica,sans-Serif" font-size="10.00">Texture.h</text>
</a>
</g>
</g>
<!-- Node9&#45;&gt;Node15 -->
<g id="edge15_Node000009_Node000015" class="edge">
<title>Node9&#45;&gt;Node15</title>
<g id="a_edge15_Node000009_Node000015"><a xlink:title=" ">
<path fill="none" stroke="#63b8ff" d="M515.54,-223.59C498.46,-215.28 473.27,-203.03 453.62,-193.47"/>
<polygon fill="#63b8ff" stroke="#63b8ff" points="455.25,-190.37 444.72,-189.14 452.18,-196.66 455.25,-190.37"/>
</a>
</g>
</g>
<!-- Node12 -->
<g id="Node000012" class="node">
<title>Node12</title>
<g id="a_Node000012"><a xlink:href="../../d0/dbe/_shader_program_8h.html" target="_top" xlink:title=" ">
<polygon fill="white" stroke="#666666" points="567.75,-132 476,-132 476,-112 567.75,-112 567.75,-132"/>
<text text-anchor="middle" x="521.88" y="-118.5" font-family="Helvetica,sans-Serif" font-size="10.00">ShaderProgram.h</text>
</a>
</g>
</g>
<!-- Node11&#45;&gt;Node12 -->
<g id="edge11_Node000011_Node000012" class="edge">
<title>Node11&#45;&gt;Node12</title>
<g id="a_edge11_Node000011_Node000012"><a xlink:title=" ">
<path fill="none" stroke="#63b8ff" d="M576.38,-167.59C566.91,-159.85 553.27,-148.69 542,-139.47"/>
<polygon fill="#63b8ff" stroke="#63b8ff" points="544.37,-136.88 534.41,-133.26 539.93,-142.3 544.37,-136.88"/>
</a>
</g>
</g>
<!-- Node13 -->
<g id="Node000013" class="node">
<title>Node13</title>
<g id="a_Node000013"><a xlink:href="../../df/d2e/_shader_enums_8h.html" target="_top" xlink:title=" ">
<polygon fill="white" stroke="#666666" points="412.75,-76 327,-76 327,-56 412.75,-56 412.75,-76"/>
<text text-anchor="middle" x="369.88" y="-62.5" font-family="Helvetica,sans-Serif" font-size="10.00">ShaderEnums.h</text>
</a>
</g>
</g>
<!-- Node11&#45;&gt;Node13 -->
<g id="edge14_Node000011_Node000013" class="edge">
<title>Node11&#45;&gt;Node13</title>
<g id="a_edge14_Node000011_Node000013"><a xlink:title=" ">
<path fill="none" stroke="#63b8ff" d="M589.25,-167.62C590.75,-153.56 591.26,-127.07 576.88,-112 556.25,-90.39 478.45,-78.09 424.34,-71.98"/>
<polygon fill="#63b8ff" stroke="#63b8ff" points="425.01,-68.53 414.69,-70.93 424.25,-75.49 425.01,-68.53"/>
</a>
</g>
</g>
<!-- Node12&#45;&gt;Node13 -->
<g id="edge12_Node000012_Node000013" class="edge">
<title>Node12&#45;&gt;Node13</title>
<g id="a_edge12_Node000012_Node000013"><a xlink:title=" ">
<path fill="none" stroke="#63b8ff" d="M495.4,-111.59C471.03,-102.94 434.62,-90 407.29,-80.29"/>
<polygon fill="#63b8ff" stroke="#63b8ff" points="408.58,-77.04 397.98,-76.99 406.24,-83.63 408.58,-77.04"/>
</a>
</g>
</g>
<!-- Node14 -->
<g id="Node000014" class="node">
<title>Node14</title>
<g id="a_Node000014"><a xlink:title=" ">
<polygon fill="#e0e0e0" stroke="#999999" points="150.62,-20 91.12,-20 91.12,0 150.62,0 150.62,-20"/>
<text text-anchor="middle" x="120.88" y="-6.5" font-family="Helvetica,sans-Serif" font-size="10.00">GL/glew.h</text>
</a>
</g>
</g>
<!-- Node13&#45;&gt;Node14 -->
<g id="edge13_Node000013_Node000014" class="edge">
<title>Node13&#45;&gt;Node14</title>
<g id="a_edge13_Node000013_Node000014"><a xlink:title=" ">
<path fill="none" stroke="#63b8ff" d="M326.5,-55.59C280.23,-45.56 207.48,-29.78 162.06,-19.93"/>
<polygon fill="#63b8ff" stroke="#63b8ff" points="162.85,-16.52 152.34,-17.82 161.37,-23.36 162.85,-16.52"/>
</a>
</g>
</g>
<!-- Node15&#45;&gt;Node10 -->
<g id="edge16_Node000015_Node000010" class="edge">
<title>Node15&#45;&gt;Node10</title>
<g id="a_edge16_Node000015_Node000010"><a xlink:title=" ">
<path fill="none" stroke="#63b8ff" d="M422.48,-167.59C421.49,-160.93 420.13,-151.75 418.9,-143.44"/>
<polygon fill="#63b8ff" stroke="#63b8ff" points="422.4,-143.17 417.47,-133.8 415.48,-144.2 422.4,-143.17"/>
</a>
</g>
</g>
<!-- Node15&#45;&gt;Node12 -->
<g id="edge18_Node000015_Node000012" class="edge">
<title>Node15&#45;&gt;Node12</title>
<g id="a_edge18_Node000015_Node000012"><a xlink:title=" ">
<path fill="none" stroke="#63b8ff" d="M440.95,-167.59C455.75,-159.44 477.44,-147.48 494.64,-138"/>
<polygon fill="#63b8ff" stroke="#63b8ff" points="496.28,-141.1 503.35,-133.21 492.9,-134.97 496.28,-141.1"/>
</a>
</g>
</g>
<!-- Node16 -->
<g id="Node000016" class="node">
<title>Node16</title>
<g id="a_Node000016"><a xlink:href="../../d9/de5/_image_8h.html" target="_top" xlink:title=" ">
<polygon fill="white" stroke="#666666" points="355.75,-132 270,-132 270,-112 355.75,-112 355.75,-132"/>
<text text-anchor="middle" x="312.88" y="-118.5" font-family="Helvetica,sans-Serif" font-size="10.00">Utilities/Image.h</text>
</a>
</g>
</g>
<!-- Node15&#45;&gt;Node16 -->
<g id="edge17_Node000015_Node000016" class="edge">
<title>Node15&#45;&gt;Node16</title>
<g id="a_edge17_Node000015_Node000016"><a xlink:title=" ">
<path fill="none" stroke="#63b8ff" d="M404.54,-167.59C387.46,-159.28 362.27,-147.03 342.62,-137.47"/>
<polygon fill="#63b8ff" stroke="#63b8ff" points="344.25,-134.37 333.72,-133.14 341.18,-140.66 344.25,-134.37"/>
</a>
</g>
</g>
<!-- Node18&#45;&gt;Node13 -->
<g id="edge21_Node000018_Node000013" class="edge">
<title>Node18&#45;&gt;Node13</title>
<g id="a_edge21_Node000018_Node000013"><a xlink:title=" ">
<path fill="none" stroke="#63b8ff" d="M186.51,-223.77C195.69,-201.54 221.9,-144.49 260.88,-112 278.26,-97.51 300.95,-87.14 321.13,-80.04"/>
<polygon fill="#63b8ff" stroke="#63b8ff" points="322.2,-83.37 330.59,-76.9 320,-76.73 322.2,-83.37"/>
</a>
</g>
</g>
<!-- Node19&#45;&gt;Node14 -->
<g id="edge24_Node000019_Node000014" class="edge">
<title>Node19&#45;&gt;Node14</title>
<g id="a_edge24_Node000019_Node000014"><a xlink:title=" ">
<path fill="none" stroke="#63b8ff" d="M45.88,-335.58C45.88,-316.57 45.88,-272.24 45.88,-235 45.88,-235 45.88,-235 45.88,-121 45.88,-82.4 77.79,-47.35 99.98,-27.65"/>
<polygon fill="#63b8ff" stroke="#63b8ff" points="101.99,-30.53 107.34,-21.39 97.45,-25.2 101.99,-30.53"/>
</a>
</g>
</g>
<!-- Node20 -->
<g id="Node000020" class="node">
<title>Node20</title>
<g id="a_Node000020"><a xlink:title=" ">
<polygon fill="#e0e0e0" stroke="#999999" points="119.5,-300 74.25,-300 74.25,-280 119.5,-280 119.5,-300"/>
<text text-anchor="middle" x="96.88" y="-286.5" font-family="Helvetica,sans-Serif" font-size="10.00">cstdint</text>
</a>
</g>
</g>
<!-- Node19&#45;&gt;Node20 -->
<g id="edge23_Node000019_Node000020" class="edge">
<title>Node19&#45;&gt;Node20</title>
<g id="a_edge23_Node000019_Node000020"><a xlink:title=" ">
<path fill="none" stroke="#63b8ff" d="M54.76,-335.59C61.78,-328.16 71.78,-317.58 80.27,-308.58"/>
<polygon fill="#63b8ff" stroke="#63b8ff" points="82.73,-311.07 87.05,-301.4 77.64,-306.27 82.73,-311.07"/>
</a>
</g>
</g>
<!-- Node21&#45;&gt;Node8 -->
<g id="edge27_Node000021_Node000008" class="edge">
<title>Node21&#45;&gt;Node8</title>
<g id="a_edge27_Node000021_Node000008"><a xlink:title=" ">
<path fill="none" stroke="#63b8ff" d="M399.66,-391.52C406.94,-382.96 416.74,-369.66 420.88,-356 425.34,-341.24 422.06,-324.01 417.95,-311"/>
<polygon fill="#63b8ff" stroke="#63b8ff" points="421.33,-310.07 414.65,-301.85 414.75,-312.45 421.33,-310.07"/>
</a>
</g>
</g>
<!-- Node22 -->
<g id="Node000022" class="node">
<title>Node22</title>
<g id="a_Node000022"><a xlink:href="../../dd/dbb/_camera_projection_8h.html" target="_top" xlink:title=" ">
<polygon fill="white" stroke="#666666" points="411.62,-356 310.12,-356 310.12,-336 411.62,-336 411.62,-356"/>
<text text-anchor="middle" x="360.88" y="-342.5" font-family="Helvetica,sans-Serif" font-size="10.00">CameraProjection.h</text>
</a>
</g>
</g>
<!-- Node21&#45;&gt;Node22 -->
<g id="edge26_Node000021_Node000022" class="edge">
<title>Node21&#45;&gt;Node22</title>
<g id="a_edge26_Node000021_Node000022"><a xlink:title=" ">
<path fill="none" stroke="#63b8ff" d="M385.65,-391.59C381.78,-384.63 376.37,-374.89 371.59,-366.29"/>
<polygon fill="#63b8ff" stroke="#63b8ff" points="374.69,-364.66 366.78,-357.62 368.57,-368.06 374.69,-364.66"/>
</a>
</g>
</g>
<!-- Node23&#45;&gt;Node15 -->
<g id="edge30_Node000023_Node000015" class="edge">
<title>Node23&#45;&gt;Node15</title>
<g id="a_edge30_Node000023_Node000015"><a xlink:title=" ">
<path fill="none" stroke="#63b8ff" d="M520.71,-559.73C512.21,-551.31 500.59,-538.09 494.88,-524 465.18,-450.76 477.88,-426.03 477.88,-347 477.88,-347 477.88,-347 477.88,-289 477.88,-258.77 471.64,-250.91 457.88,-224 452.99,-214.46 446.07,-204.84 439.74,-196.97"/>
<polygon fill="#63b8ff" stroke="#63b8ff" points="442.58,-194.91 433.47,-189.5 437.22,-199.41 442.58,-194.91"/>
</a>
</g>
</g>
<!-- Node24 -->
<g id="Node000024" class="node">
<title>Node24</title>
<g id="a_Node000024"><a xlink:href="../../d2/dae/_framebuffer_8h.html" target="_top" xlink:title=" ">
<polygon fill="white" stroke="#666666" points="579.5,-524 504.25,-524 504.25,-504 579.5,-504 579.5,-524"/>
<text text-anchor="middle" x="541.88" y="-510.5" font-family="Helvetica,sans-Serif" font-size="10.00">Framebuffer.h</text>
</a>
</g>
</g>
<!-- Node23&#45;&gt;Node24 -->
<g id="edge29_Node000023_Node000024" class="edge">
<title>Node23&#45;&gt;Node24</title>
<g id="a_edge29_Node000023_Node000024"><a xlink:title=" ">
<path fill="none" stroke="#63b8ff" d="M532.79,-559.59C534.15,-552.93 536.02,-543.75 537.71,-535.44"/>
<polygon fill="#63b8ff" stroke="#63b8ff" points="541.11,-536.28 539.68,-525.78 534.25,-534.88 541.11,-536.28"/>
</a>
</g>
</g>
<!-- Node25&#45;&gt;Node21 -->
<g id="edge32_Node000025_Node000021" class="edge">
<title>Node25&#45;&gt;Node21</title>
<g id="a_edge32_Node000025_Node000021"><a xlink:title=" ">
<path fill="none" stroke="#63b8ff" d="M579.88,-447.96C541.96,-438.94 483.46,-425.02 441.59,-415.06"/>
<polygon fill="#63b8ff" stroke="#63b8ff" points="442.53,-411.69 431.99,-412.78 440.91,-418.5 442.53,-411.69"/>
</a>
</g>
</g>
<!-- Node26 -->
<g id="Node000026" class="node">
<title>Node26</title>
<g id="a_Node000026"><a xlink:href="../../d2/d46/_light_8h.html" target="_top" xlink:title=" ">
<polygon fill="white" stroke="#666666" points="599.12,-412 524.62,-412 524.62,-392 599.12,-392 599.12,-412"/>
<text text-anchor="middle" x="561.88" y="-398.5" font-family="Helvetica,sans-Serif" font-size="10.00">Lights/Light.h</text>
</a>
</g>
</g>
<!-- Node25&#45;&gt;Node26 -->
<g id="edge33_Node000025_Node000026" class="edge">
<title>Node25&#45;&gt;Node26</title>
<g id="a_edge33_Node000025_Node000026"><a xlink:title=" ">
<path fill="none" stroke="#63b8ff" d="M608.12,-447.59C600.25,-440.01 588.98,-429.13 579.53,-420.02"/>
<polygon fill="#63b8ff" stroke="#63b8ff" points="582.24,-417.77 572.61,-413.35 577.38,-422.81 582.24,-417.77"/>
</a>
</g>
</g>
<!-- Node29 -->
<g id="Node000029" class="node">
<title>Node29</title>
<g id="a_Node000029"><a xlink:href="../../d7/d92/_database_connector_8h.html" target="_top" xlink:title=" ">
<polygon fill="white" stroke="#666666" points="762.38,-412 617.38,-412 617.38,-392 762.38,-392 762.38,-412"/>
<text text-anchor="middle" x="689.88" y="-398.5" font-family="Helvetica,sans-Serif" font-size="10.00">Utilities/DatabaseConnector.h</text>
</a>
</g>
</g>
<!-- Node25&#45;&gt;Node29 -->
<g id="edge38_Node000025_Node000029" class="edge">
<title>Node25&#45;&gt;Node29</title>
<g id="a_edge38_Node000025_Node000029"><a xlink:title=" ">
<path fill="none" stroke="#63b8ff" d="M630.42,-447.59C640.84,-439.77 655.92,-428.46 668.29,-419.19"/>
<polygon fill="#63b8ff" stroke="#63b8ff" points="670.37,-422.01 676.27,-413.21 666.17,-416.41 670.37,-422.01"/>
</a>
</g>
</g>
<!-- Node27 -->
<g id="Node000027" class="node">
<title>Node27</title>
<g id="a_Node000027"><a xlink:href="../../d7/d9c/_light_attenuation_8h.html" target="_top" xlink:title=" ">
<polygon fill="white" stroke="#666666" points="600.25,-356 505.5,-356 505.5,-336 600.25,-336 600.25,-356"/>
<text text-anchor="middle" x="552.88" y="-342.5" font-family="Helvetica,sans-Serif" font-size="10.00">LightAttenuation.h</text>
</a>
</g>
</g>
<!-- Node26&#45;&gt;Node27 -->
<g id="edge34_Node000026_Node000027" class="edge">
<title>Node26&#45;&gt;Node27</title>
<g id="a_edge34_Node000026_Node000027"><a xlink:title=" ">
<path fill="none" stroke="#63b8ff" d="M560.31,-391.59C559.2,-384.93 557.67,-375.75 556.28,-367.44"/>
<polygon fill="#63b8ff" stroke="#63b8ff" points="559.77,-367.08 554.67,-357.79 552.87,-368.23 559.77,-367.08"/>
</a>
</g>
</g>
<!-- Node28 -->
<g id="Node000028" class="node">
<title>Node28</title>
<g id="a_Node000028"><a xlink:href="../../d1/db9/_light_model_8h.html" target="_top" xlink:title=" ">
<polygon fill="white" stroke="#666666" points="588.62,-300 517.12,-300 517.12,-280 588.62,-280 588.62,-300"/>
<text text-anchor="middle" x="552.88" y="-286.5" font-family="Helvetica,sans-Serif" font-size="10.00">LightModel.h</text>
</a>
</g>
</g>
<!-- Node26&#45;&gt;Node28 -->
<g id="edge37_Node000026_Node000028" class="edge">
<title>Node26&#45;&gt;Node28</title>
<g id="a_edge37_Node000026_Node000028"><a xlink:title=" ">
<path fill="none" stroke="#63b8ff" d="M577.08,-391.57C594.45,-379.52 619.23,-357.6 608.88,-336 603.06,-323.86 592.19,-313.95 581.56,-306.56"/>
<polygon fill="#63b8ff" stroke="#63b8ff" points="583.61,-303.72 573.3,-301.3 579.85,-309.62 583.61,-303.72"/>
</a>
</g>
</g>
<!-- Node27&#45;&gt;Node28 -->
<g id="edge35_Node000027_Node000028" class="edge">
<title>Node27&#45;&gt;Node28</title>
<g id="a_edge35_Node000027_Node000028"><a xlink:title=" ">
<path fill="none" stroke="#63b8ff" d="M552.88,-335.59C552.88,-329.01 552.88,-319.96 552.88,-311.73"/>
<polygon fill="#63b8ff" stroke="#63b8ff" points="556.38,-311.81 552.88,-301.81 549.38,-311.81 556.38,-311.81"/>
</a>
</g>
</g>
<!-- Node28&#45;&gt;Node9 -->
<g id="edge36_Node000028_Node000009" class="edge">
<title>Node28&#45;&gt;Node9</title>
<g id="a_edge36_Node000028_Node000009"><a xlink:title=" ">
<path fill="none" stroke="#63b8ff" d="M549.74,-279.59C547.49,-272.86 544.39,-263.53 541.59,-255.15"/>
<polygon fill="#63b8ff" stroke="#63b8ff" points="544.94,-254.11 538.45,-245.73 538.3,-256.33 544.94,-254.11"/>
</a>
</g>
</g>
<!-- Node29&#45;&gt;Node30 -->
<g id="edge39_Node000029_Node000030" class="edge">
<title>Node29&#45;&gt;Node30</title>
<g id="a_edge39_Node000029_Node000030"><a xlink:title=" ">
<path fill="none" stroke="#63b8ff" d="M735.64,-391.53C783.99,-381.53 859.68,-365.87 907.22,-356.03"/>
<polygon fill="#63b8ff" stroke="#63b8ff" points="907.81,-359.48 916.89,-354.03 906.39,-352.63 907.81,-359.48"/>
</a>
</g>
</g>
<!-- Node31 -->
<g id="Node000031" class="node">
<title>Node31</title>
<g id="a_Node000031"><a xlink:title=" ">
<polygon fill="#e0e0e0" stroke="#999999" points="711,-356 668.75,-356 668.75,-336 711,-336 711,-356"/>
<text text-anchor="middle" x="689.88" y="-342.5" font-family="Helvetica,sans-Serif" font-size="10.00">occi.h</text>
</a>
</g>
</g>
<!-- Node29&#45;&gt;Node31 -->
<g id="edge40_Node000029_Node000031" class="edge">
<title>Node29&#45;&gt;Node31</title>
<g id="a_edge40_Node000029_Node000031"><a xlink:title=" ">
<path fill="none" stroke="#63b8ff" d="M689.88,-391.59C689.88,-385.01 689.88,-375.96 689.88,-367.73"/>
<polygon fill="#63b8ff" stroke="#63b8ff" points="693.38,-367.81 689.88,-357.81 686.38,-367.81 693.38,-367.81"/>
</a>
</g>
</g>
<!-- Node32&#45;&gt;Node30 -->
<g id="edge49_Node000032_Node000030" class="edge">
<title>Node32&#45;&gt;Node30</title>
<g id="a_edge49_Node000032_Node000030"><a xlink:title=" ">
<path fill="none" stroke="#63b8ff" d="M927.94,-559.55C942.17,-552.15 959.54,-540.35 967.88,-524 994.21,-472.34 972.74,-401.19 959.45,-366.97"/>
<polygon fill="#63b8ff" stroke="#63b8ff" points="962.77,-365.84 955.75,-357.9 956.28,-368.48 962.77,-365.84"/>
</a>
</g>
</g>
<!-- Node33 -->
<g id="Node000033" class="node">
<title>Node33</title>
<g id="a_Node000033"><a xlink:href="../../d0/d38/_interface_adapter_8h.html" target="_top" xlink:title=" ">
<polygon fill="white" stroke="#666666" points="959.25,-524 852.5,-524 852.5,-504 959.25,-504 959.25,-524"/>
<text text-anchor="middle" x="905.88" y="-510.5" font-family="Helvetica,sans-Serif" font-size="10.00">UI/InterfaceAdapter.h</text>
</a>
</g>
</g>
<!-- Node32&#45;&gt;Node33 -->
<g id="edge42_Node000032_Node000033" class="edge">
<title>Node32&#45;&gt;Node33</title>
<g id="a_edge42_Node000032_Node000033"><a xlink:title=" ">
<path fill="none" stroke="#63b8ff" d="M905.88,-559.59C905.88,-553.01 905.88,-543.96 905.88,-535.73"/>
<polygon fill="#63b8ff" stroke="#63b8ff" points="909.38,-535.81 905.88,-525.81 902.38,-535.81 909.38,-535.81"/>
</a>
</g>
</g>
<!-- Node33&#45;&gt;Node25 -->
<g id="edge46_Node000033_Node000025" class="edge">
<title>Node33&#45;&gt;Node25</title>
<g id="a_edge46_Node000033_Node000025"><a xlink:title=" ">
<path fill="none" stroke="#63b8ff" d="M855.38,-503.53C802.33,-493.58 719.44,-478.04 666.93,-468.2"/>
<polygon fill="#63b8ff" stroke="#63b8ff" points="667.85,-464.81 657.38,-466.41 666.56,-471.69 667.85,-464.81"/>
</a>
</g>
</g>
<!-- Node34 -->
<g id="Node000034" class="node">
<title>Node34</title>
<g id="a_Node000034"><a xlink:href="../../dd/d9b/_application_state_8h.html" target="_top" xlink:title=" ">
<polygon fill="white" stroke="#666666" points="812.25,-468 693.5,-468 693.5,-448 812.25,-448 812.25,-468"/>
<text text-anchor="middle" x="752.88" y="-454.5" font-family="Helvetica,sans-Serif" font-size="10.00">Core/ApplicationState.h</text>
</a>
</g>
</g>
<!-- Node33&#45;&gt;Node34 -->
<g id="edge43_Node000033_Node000034" class="edge">
<title>Node33&#45;&gt;Node34</title>
<g id="a_edge43_Node000033_Node000034"><a xlink:title=" ">
<path fill="none" stroke="#63b8ff" d="M879.22,-503.59C854.69,-494.94 818.05,-482 790.53,-472.29"/>
<polygon fill="#63b8ff" stroke="#63b8ff" points="791.76,-469.01 781.16,-468.98 789.43,-475.61 791.76,-469.01"/>
</a>
</g>
</g>
<!-- Node36 -->
<g id="Node000036" class="node">
<title>Node36</title>
<g id="a_Node000036"><a xlink:href="../../d6/d20/_locale_strings_8h.html" target="_top" xlink:title=" ">
<polygon fill="white" stroke="#666666" points="959.25,-468 840.5,-468 840.5,-448 959.25,-448 959.25,-468"/>
<text text-anchor="middle" x="899.88" y="-454.5" font-family="Helvetica,sans-Serif" font-size="10.00">Utilities/LocaleStrings.h</text>
</a>
</g>
</g>
<!-- Node33&#45;&gt;Node36 -->
<g id="edge47_Node000033_Node000036" class="edge">
<title>Node33&#45;&gt;Node36</title>
<g id="a_edge47_Node000033_Node000036"><a xlink:title=" ">
<path fill="none" stroke="#63b8ff" d="M904.83,-503.59C904.1,-497.01 903.09,-487.96 902.18,-479.73"/>
<polygon fill="#63b8ff" stroke="#63b8ff" points="905.66,-479.35 901.08,-469.8 898.7,-480.13 905.66,-479.35"/>
</a>
</g>
</g>
<!-- Node34&#45;&gt;Node5 -->
<g id="edge45_Node000034_Node000005" class="edge">
<title>Node34&#45;&gt;Node5</title>
<g id="a_edge45_Node000034_Node000005"><a xlink:title=" ">
<path fill="none" stroke="#63b8ff" d="M693.22,-450.86C592.56,-440.48 393.09,-419.83 322.88,-412 317.32,-411.38 311.54,-410.72 305.76,-410.05"/>
<polygon fill="#63b8ff" stroke="#63b8ff" points="306.54,-406.62 296.21,-408.94 305.73,-413.57 306.54,-406.62"/>
</a>
</g>
</g>
<!-- Node35 -->
<g id="Node000035" class="node">
<title>Node35</title>
<g id="a_Node000035"><a xlink:title=" ">
<polygon fill="#e0e0e0" stroke="#999999" points="893.62,-412 780.12,-412 780.12,-392 893.62,-392 893.62,-412"/>
<text text-anchor="middle" x="836.88" y="-398.5" font-family="Helvetica,sans-Serif" font-size="10.00">imgui_color_gradient.h</text>
</a>
</g>
</g>
<!-- Node34&#45;&gt;Node35 -->
<g id="edge44_Node000034_Node000035" class="edge">
<title>Node34&#45;&gt;Node35</title>
<g id="a_edge44_Node000034_Node000035"><a xlink:title=" ">
<path fill="none" stroke="#63b8ff" d="M767.51,-447.59C779.96,-439.59 798.09,-427.93 812.7,-418.54"/>
<polygon fill="#63b8ff" stroke="#63b8ff" points="814.34,-421.65 820.86,-413.3 810.55,-415.76 814.34,-421.65"/>
</a>
</g>
</g>
<!-- Node36&#45;&gt;Node30 -->
<g id="edge48_Node000036_Node000030" class="edge">
<title>Node36&#45;&gt;Node30</title>
<g id="a_edge48_Node000036_Node000030"><a xlink:title=" ">
<path fill="none" stroke="#63b8ff" d="M904.22,-447.62C912.5,-429.76 930.69,-390.53 941.76,-366.67"/>
<polygon fill="#63b8ff" stroke="#63b8ff" points="944.87,-368.27 945.9,-357.73 938.52,-365.33 944.87,-368.27"/>
</a>
</g>
</g>
<!-- Node37&#45;&gt;Node25 -->
<g id="edge52_Node000037_Node000025" class="edge">
<title>Node37&#45;&gt;Node25</title>
<g id="a_edge52_Node000037_Node000025"><a xlink:title=" ">
<path fill="none" stroke="#63b8ff" d="M669.08,-503.59C660.27,-495.93 647.62,-484.91 637.1,-475.75"/>
<polygon fill="#63b8ff" stroke="#63b8ff" points="639.53,-473.22 629.69,-469.29 634.93,-478.5 639.53,-473.22"/>
</a>
</g>
</g>
<!-- Node37&#45;&gt;Node34 -->
<g id="edge53_Node000037_Node000034" class="edge">
<title>Node37&#45;&gt;Node34</title>
<g id="a_edge53_Node000037_Node000034"><a xlink:title=" ">
<path fill="none" stroke="#63b8ff" d="M692.59,-503.59C703.27,-495.7 718.75,-484.24 731.36,-474.92"/>
<polygon fill="#63b8ff" stroke="#63b8ff" points="733.13,-477.96 739.09,-469.2 728.97,-472.33 733.13,-477.96"/>
</a>
</g>
</g>
<!-- Node37&#45;&gt;Node36 -->
<g id="edge54_Node000037_Node000036" class="edge">
<title>Node37&#45;&gt;Node36</title>
<g id="a_edge54_Node000037_Node000036"><a xlink:title=" ">
<path fill="none" stroke="#63b8ff" d="M718.45,-503.53C755.09,-494.54 810.36,-480.97 850.27,-471.18"/>
<polygon fill="#63b8ff" stroke="#63b8ff" points="851,-474.6 859.88,-468.82 849.33,-467.8 851,-474.6"/>
</a>
</g>
</g>
<!-- Node38&#45;&gt;Node37 -->
<g id="edge57_Node000038_Node000037" class="edge">
<title>Node38&#45;&gt;Node37</title>
<g id="a_edge57_Node000038_Node000037"><a xlink:title=" ">
<path fill="none" stroke="#63b8ff" d="M718.69,-559.59C712.29,-552.24 703.2,-541.8 695.42,-532.87"/>
<polygon fill="#63b8ff" stroke="#63b8ff" points="698.17,-530.69 688.96,-525.44 692.89,-535.28 698.17,-530.69"/>
</a>
</g>
</g>
<!-- Node39 -->
<g id="Node000039" class="node">
<title>Node39</title>
<g id="a_Node000039"><a xlink:title=" ">
<polygon fill="#e0e0e0" stroke="#999999" points="834.12,-524 741.62,-524 741.62,-504 834.12,-504 834.12,-524"/>
<text text-anchor="middle" x="787.88" y="-510.5" font-family="Helvetica,sans-Serif" font-size="10.00">ImGuiFileDialog.h</text>
</a>
</g>
</g>
<!-- Node38&#45;&gt;Node39 -->
<g id="edge56_Node000038_Node000039" class="edge">
<title>Node38&#45;&gt;Node39</title>
<g id="a_edge56_Node000038_Node000039"><a xlink:title=" ">
<path fill="none" stroke="#63b8ff" d="M737.5,-559.59C746.16,-551.93 758.61,-540.91 768.96,-531.75"/>
<polygon fill="#63b8ff" stroke="#63b8ff" points="771.07,-534.55 776.24,-525.3 766.43,-529.31 771.07,-534.55"/>
</a>
</g>
</g>
</g>
</svg>

<g id="navigator" transform="translate(0 0)" fill="#404254">
  <rect fill="#f2f5e9" fill-opacity="0.5" stroke="#606060" stroke-width=".5" x="0" y="0" width="60" height="60"/>
  <use id="zoomplus" xlink:href="#zoomPlus" x="17" y="9" onmousedown="handleZoom(evt,'in')"/>
  <use id="zoomminus" xlink:href="#zoomMin" x="42" y="9" onmousedown="handleZoom(evt,'out')"/>
  <use id="reset" xlink:href="#resetDef" x="30" y="36" onmousedown="handleReset()"/>
   <use id="arrowup" xlink:href="#arrowUp" x="0" y="0" onmousedown="handlePan(0,-1)"/>
  <use id="arrowright" xlink:href="#arrowRight" x="0" y="0" onmousedown="handlePan(1,0)"/>
  <use id="arrowdown" xlink:href="#arrowDown" x="0" y="0" onmousedown="handlePan(0,1)"/>
  <use id="arrowleft" xlink:href="#arrowLeft" x="0" y="0" onmousedown="handlePan(-1,0)"/>
</g>
<svg viewBox="0 0 15 15" width="100%" height="30px" preserveAspectRatio="xMaxYMin meet">
 <g id="arrow_out" transform="scale(0.3 0.3)">
  <a xlink:href="_g_u_i_8h__incl_org.svg" target="_base">
   <rect id="button" ry="5" rx="5" y="6" x="6" height="38" width="38"
        fill="#f2f5e9" fill-opacity="0.5" stroke="#606060" stroke-width="1.0"/>
   <path id="arrow"
     d="M 11.500037,31.436501 C 11.940474,20.09759 22.043105,11.32322 32.158766,21.979434 L 37.068811,17.246167 C 37.068811,17.246167 37.088388,32 37.088388,32 L 22.160133,31.978069 C 22.160133,31.978069 26.997745,27.140456 26.997745,27.140456 C 18.528582,18.264221 13.291696,25.230495 11.500037,31.436501 z"
     style="fill:#404040;"/>
  </a>
 </g>
</svg>

<style type='text/css'>
<![CDATA[
[data-mouse-over-selected='false'] { opacity: 0.7; }
[data-mouse-over-selected='true']  { opacity: 1.0; }
]]>
</style>
<script type="application/ecmascript"><![CDATA[
document.addEventListener('DOMContentLoaded', (event) => {
  highlightEdges();
  highlightAdjacentNodes();
});
]]></script>
</svg>
