<?xml version="1.0" encoding="UTF-8" standalone="no"?>
<!DOCTYPE svg PUBLIC "-//W3C//DTD SVG 1.1//EN"
 "http://www.w3.org/Graphics/SVG/1.1/DTD/svg11.dtd">
<!-- Generated by graphviz version 10.0.1 (20240210.2158)
 -->
<!-- Title: GEU::ProceduralGenerator Pages: 1 -->
<svg width="2176pt" height="657pt"
 viewBox="0.00 0.00 2175.50 657.10" xmlns="http://www.w3.org/2000/svg" xmlns:xlink="http://www.w3.org/1999/xlink">
<g id="graph0" class="graph" transform="scale(1 1) rotate(0) translate(4 653.1)">
<title>GEU::ProceduralGenerator</title>
<!-- Node1 -->
<g id="Node000001" class="node">
<title>Node1</title>
<g id="a_Node000001"><a xlink:title=" ">
<polygon fill="#999999" stroke="#666666" points="1944.5,-368 1812.25,-368 1812.25,-348 1944.5,-348 1944.5,-368"/>
<text text-anchor="middle" x="1878.38" y="-354.5" font-family="Helvetica,sans-Serif" font-size="10.00">GEU::ProceduralGenerator</text>
</a>
</g>
</g>
<!-- Node2 -->
<g id="Node000002" class="node">
<title>Node2</title>
<g id="a_Node000002"><a xlink:href="../../d4/dbf/class_g_e_u_1_1_point_cloud.html" target="_top" xlink:title=" ">
<polygon fill="white" stroke="#666666" points="1682.12,-221 1591.88,-221 1591.88,-201 1682.12,-201 1682.12,-221"/>
<text text-anchor="middle" x="1637" y="-207.5" font-family="Helvetica,sans-Serif" font-size="10.00">GEU::PointCloud</text>
</a>
</g>
</g>
<!-- Node2&#45;&gt;Node1 -->
<g id="edge1_Node000001_Node000002" class="edge">
<title>Node2&#45;&gt;Node1</title>
<g id="a_edge1_Node000001_Node000002"><a xlink:title=" ">
<path fill="none" stroke="#9a32cd" stroke-dasharray="5,2" d="M1659.58,-228.61C1676.22,-241.82 1700.05,-259.97 1722.25,-274 1752.83,-293.34 1762.42,-294.79 1794.25,-312 1816.6,-324.08 1842.14,-338.27 1858.94,-347.66"/>
<polygon fill="#9a32cd" stroke="#9a32cd" points="1661.85,-225.95 1651.86,-222.42 1657.47,-231.41 1661.85,-225.95"/>
</a>
</g>
<text text-anchor="middle" x="1758.25" y="-314.5" font-family="Helvetica,sans-Serif" font-size="10.00" fill="grey"> terrainCloud</text>
</g>
<!-- Node25 -->
<g id="Node000025" class="node">
<title>Node25</title>
<g id="a_Node000025"><a xlink:href="../../dd/dcf/struct_g_e_u_1_1_point_cloud_1_1_meshlet.html" target="_top" xlink:title=" ">
<polygon fill="white" stroke="#666666" points="1943.75,-460 1813,-460 1813,-440 1943.75,-440 1943.75,-460"/>
<text text-anchor="middle" x="1878.38" y="-446.5" font-family="Helvetica,sans-Serif" font-size="10.00">GEU::PointCloud::Meshlet</text>
</a>
</g>
</g>
<!-- Node2&#45;&gt;Node25 -->
<g id="edge34_Node000025_Node000002" class="edge">
<title>Node2&#45;&gt;Node25</title>
<g id="a_edge34_Node000025_Node000002"><a xlink:title=" ">
<path fill="none" stroke="#9a32cd" stroke-dasharray="5,2" d="M1653,-230.45C1667.13,-249.22 1688.43,-278.73 1704.25,-306 1713.63,-322.16 1707.95,-331.97 1722.25,-344 1747.66,-365.39 1765.71,-347.02 1794.25,-364 1811.74,-374.4 1851.17,-419.29 1868.7,-439.76"/>
<polygon fill="#9a32cd" stroke="#9a32cd" points="1655.91,-228.49 1647.07,-222.65 1650.34,-232.73 1655.91,-228.49"/>
</a>
</g>
<text text-anchor="middle" x="1758.25" y="-366.5" font-family="Helvetica,sans-Serif" font-size="10.00" fill="grey"> parent</text>
</g>
<!-- Node34 -->
<g id="Node000034" class="node">
<title>Node34</title>
<g id="a_Node000034"><a xlink:title=" ">
<polygon fill="white" stroke="#666666" points="1933.62,-227 1823.12,-227 1823.12,-195 1933.62,-195 1933.62,-227"/>
<text text-anchor="start" x="1831.12" y="-213.5" font-family="Helvetica,sans-Serif" font-size="10.00">std::unique_ptr&lt; GEU</text>
<text text-anchor="middle" x="1878.38" y="-201.5" font-family="Helvetica,sans-Serif" font-size="10.00">::PointCloud &gt;</text>
</a>
</g>
</g>
<!-- Node2&#45;&gt;Node34 -->
<g id="edge44_Node000034_Node000002" class="edge">
<title>Node2&#45;&gt;Node34</title>
<g id="a_edge44_Node000034_Node000002"><a xlink:title=" ">
<path fill="none" stroke="#9a32cd" stroke-dasharray="5,2" d="M1693.56,-211C1732.39,-211 1784,-211 1822.64,-211"/>
<polygon fill="#9a32cd" stroke="#9a32cd" points="1693.98,-207.5 1683.98,-211 1693.98,-214.5 1693.98,-207.5"/>
</a>
</g>
<text text-anchor="middle" x="1758.25" y="-213.5" font-family="Helvetica,sans-Serif" font-size="10.00" fill="grey"> ptr</text>
</g>
<!-- Node3 -->
<g id="Node000003" class="node">
<title>Node3</title>
<g id="a_Node000003"><a xlink:href="../../db/d6c/class_g_e_u_1_1_model3_d.html" target="_top" xlink:title=" ">
<polygon fill="white" stroke="#666666" points="1398.75,-341 1317.5,-341 1317.5,-321 1398.75,-321 1398.75,-341"/>
<text text-anchor="middle" x="1358.12" y="-327.5" font-family="Helvetica,sans-Serif" font-size="10.00">GEU::Model3D</text>
</a>
</g>
</g>
<!-- Node3&#45;&gt;Node2 -->
<g id="edge2_Node000002_Node000003" class="edge">
<title>Node3&#45;&gt;Node2</title>
<g id="a_edge2_Node000002_Node000003"><a xlink:title=" ">
<path fill="none" stroke="#63b8ff" d="M1393.5,-316.1C1450.48,-291.41 1563.07,-242.61 1612.17,-221.33"/>
<polygon fill="#63b8ff" stroke="#63b8ff" points="1392.38,-312.77 1384.6,-319.96 1395.17,-319.19 1392.38,-312.77"/>
</a>
</g>
</g>
<!-- Node4 -->
<g id="Node000004" class="node">
<title>Node4</title>
<g id="a_Node000004"><a xlink:title=" ">
<polygon fill="white" stroke="#666666" points="190.5,-378 131,-378 131,-358 190.5,-358 190.5,-378"/>
<text text-anchor="middle" x="160.75" y="-364.5" font-family="Helvetica,sans-Serif" font-size="10.00">std::string</text>
</a>
</g>
</g>
<!-- Node4&#45;&gt;Node2 -->
<g id="edge25_Node000002_Node000004" class="edge">
<title>Node4&#45;&gt;Node2</title>
<g id="a_edge25_Node000002_Node000004"><a xlink:title=" ">
<path fill="none" stroke="#9a32cd" stroke-dasharray="5,2" d="M166.51,-346.63C172.71,-323.01 185.56,-285 208.5,-260 249.04,-215.83 267.3,-196 327.25,-196 327.25,-196 327.25,-196 727.75,-196 865.16,-196 899.38,-202.97 1036.75,-206 1226.27,-210.18 1273.68,-209.89 1463.25,-211 1506.89,-211.26 1556.72,-211.22 1591.62,-211.14"/>
<polygon fill="#9a32cd" stroke="#9a32cd" points="163.18,-345.51 164.22,-356.06 169.98,-347.17 163.18,-345.51"/>
</a>
</g>
<text text-anchor="middle" x="855.88" y="-216.5" font-family="Helvetica,sans-Serif" font-size="10.00" fill="grey"> _prevViewMode</text>
<text text-anchor="middle" x="855.88" y="-204.5" font-family="Helvetica,sans-Serif" font-size="10.00" fill="grey">_viewMode</text>
</g>
<!-- Node4&#45;&gt;Node3 -->
<g id="edge3_Node000003_Node000004" class="edge">
<title>Node4&#45;&gt;Node3</title>
<g id="a_edge3_Node000003_Node000004"><a xlink:title=" ">
<path fill="none" stroke="#9a32cd" stroke-dasharray="5,2" d="M161.59,-389.77C162.56,-446.41 174.24,-597.46 269.25,-647 278.04,-651.58 516.27,-647.04 527.75,-645 707.14,-613.06 750.26,-587.9 914.5,-509 963.72,-485.36 984.57,-486.58 1018.75,-444 1033.79,-425.25 1019.07,-409.29 1036.75,-393 1081.71,-351.59 1109.85,-370.16 1169.75,-358 1220.16,-347.77 1278.96,-339.96 1317.06,-335.43"/>
<polygon fill="#9a32cd" stroke="#9a32cd" points="165.09,-389.83 161.54,-379.85 158.09,-389.87 165.09,-389.83"/>
</a>
</g>
<text text-anchor="middle" x="726.75" y="-614.5" font-family="Helvetica,sans-Serif" font-size="10.00" fill="grey"> _name</text>
</g>
<!-- Node7 -->
<g id="Node000007" class="node">
<title>Node7</title>
<g id="a_Node000007"><a xlink:href="../../d5/def/class_g_e_u_1_1_material.html" target="_top" xlink:title=" ">
<polygon fill="white" stroke="#666666" points="1133,-327 1055.5,-327 1055.5,-307 1133,-307 1133,-327"/>
<text text-anchor="middle" x="1094.25" y="-313.5" font-family="Helvetica,sans-Serif" font-size="10.00">GEU::Material</text>
</a>
</g>
</g>
<!-- Node4&#45;&gt;Node7 -->
<g id="edge7_Node000007_Node000004" class="edge">
<title>Node4&#45;&gt;Node7</title>
<g id="a_edge7_Node000007_Node000004"><a xlink:title=" ">
<path fill="none" stroke="#9a32cd" stroke-dasharray="5,2" d="M169.49,-347.31C177.01,-329.82 190.01,-305.24 208.5,-290 276.77,-233.75 316.83,-262.6 405.25,-260 678.5,-251.97 747.9,-266.97 1018.75,-304 1030.59,-305.62 1043.42,-307.73 1055.05,-309.78"/>
<polygon fill="#9a32cd" stroke="#9a32cd" points="166.4,-345.63 165.91,-356.21 172.89,-348.24 166.4,-345.63"/>
</a>
</g>
<text text-anchor="middle" x="601" y="-264.5" font-family="Helvetica,sans-Serif" font-size="10.00" fill="grey"> _name</text>
</g>
<!-- Node9 -->
<g id="Node000009" class="node">
<title>Node9</title>
<g id="a_Node000009"><a xlink:href="../../da/db2/class_g_e_u_1_1_shader_program.html" target="_top" xlink:title=" ">
<polygon fill="white" stroke="#666666" points="656.25,-500 545.75,-500 545.75,-480 656.25,-480 656.25,-500"/>
<text text-anchor="middle" x="601" y="-486.5" font-family="Helvetica,sans-Serif" font-size="10.00">GEU::ShaderProgram</text>
</a>
</g>
</g>
<!-- Node4&#45;&gt;Node9 -->
<g id="edge10_Node000009_Node000004" class="edge">
<title>Node4&#45;&gt;Node9</title>
<g id="a_edge10_Node000009_Node000004"><a xlink:title=" ">
<path fill="none" stroke="#9a32cd" stroke-dasharray="5,2" d="M173.65,-387.45C182.21,-400.33 194.65,-417.01 208.5,-429 231.89,-449.25 239.72,-453.77 269.25,-463 363.01,-492.29 478.59,-494.54 545.34,-492.78"/>
<polygon fill="#9a32cd" stroke="#9a32cd" points="176.82,-385.9 168.48,-379.36 170.92,-389.67 176.82,-385.9"/>
</a>
</g>
<text text-anchor="middle" x="328.25" y="-536.5" font-family="Helvetica,sans-Serif" font-size="10.00" fill="grey"> MODULE_FILE_CHAR_1</text>
<text text-anchor="middle" x="328.25" y="-524.5" font-family="Helvetica,sans-Serif" font-size="10.00" fill="grey">MODULE_FILE_CHAR_2</text>
<text text-anchor="middle" x="328.25" y="-512.5" font-family="Helvetica,sans-Serif" font-size="10.00" fill="grey">MODULE_HEADER</text>
<text text-anchor="middle" x="328.25" y="-500.5" font-family="Helvetica,sans-Serif" font-size="10.00" fill="grey">_logString</text>
<text text-anchor="middle" x="328.25" y="-488.5" font-family="Helvetica,sans-Serif" font-size="10.00" fill="grey">shaderPath</text>
</g>
<!-- Node10 -->
<g id="Node000010" class="node">
<title>Node10</title>
<g id="a_Node000010"><a xlink:title=" ">
<polygon fill="white" stroke="#666666" points="379.38,-454 277.12,-454 277.12,-410 379.38,-410 379.38,-454"/>
<text text-anchor="start" x="285.12" y="-440.5" font-family="Helvetica,sans-Serif" font-size="10.00">std::unordered_map</text>
<text text-anchor="start" x="285.12" y="-428.5" font-family="Helvetica,sans-Serif" font-size="10.00">&lt; std::string, std::</text>
<text text-anchor="middle" x="328.25" y="-416.5" font-family="Helvetica,sans-Serif" font-size="10.00">string &gt;</text>
</a>
</g>
</g>
<!-- Node4&#45;&gt;Node10 -->
<g id="edge12_Node000010_Node000004" class="edge">
<title>Node4&#45;&gt;Node10</title>
<g id="a_edge12_Node000010_Node000004"><a xlink:title=" ">
<path fill="none" stroke="#9a32cd" stroke-dasharray="5,2" d="M199.39,-382.56C222.34,-391.43 251.96,-402.88 276.91,-412.53"/>
<polygon fill="#9a32cd" stroke="#9a32cd" points="200.71,-379.31 190.12,-378.97 198.18,-385.84 200.71,-379.31"/>
</a>
</g>
<text text-anchor="middle" x="229.88" y="-415.5" font-family="Helvetica,sans-Serif" font-size="10.00" fill="grey"> elements</text>
<text text-anchor="middle" x="229.88" y="-403.5" font-family="Helvetica,sans-Serif" font-size="10.00" fill="grey">keys</text>
</g>
<!-- Node12 -->
<g id="Node000012" class="node">
<title>Node12</title>
<g id="a_Node000012"><a xlink:title=" ">
<polygon fill="white" stroke="#666666" points="381.62,-600 274.88,-600 274.88,-568 381.62,-568 381.62,-600"/>
<text text-anchor="start" x="282.88" y="-586.5" font-family="Helvetica,sans-Serif" font-size="10.00">std::unordered_map</text>
<text text-anchor="middle" x="328.25" y="-574.5" font-family="Helvetica,sans-Serif" font-size="10.00">&lt; std::string, GLint &gt;</text>
</a>
</g>
</g>
<!-- Node4&#45;&gt;Node12 -->
<g id="edge15_Node000012_Node000004" class="edge">
<title>Node4&#45;&gt;Node12</title>
<g id="a_edge15_Node000012_Node000004"><a xlink:title=" ">
<path fill="none" stroke="#9a32cd" stroke-dasharray="5,2" d="M165.34,-389.41C170.88,-417.68 183.58,-468.08 208.5,-504 228.48,-532.8 262.48,-554.14 288.99,-567.51"/>
<polygon fill="#9a32cd" stroke="#9a32cd" points="168.85,-389.12 163.61,-379.91 161.96,-390.38 168.85,-389.12"/>
</a>
</g>
<text text-anchor="middle" x="229.88" y="-546.5" font-family="Helvetica,sans-Serif" font-size="10.00" fill="grey"> keys</text>
</g>
<!-- Node14 -->
<g id="Node000014" class="node">
<title>Node14</title>
<g id="a_Node000014"><a xlink:href="../../dc/d36/class_g_e_u_1_1_texture.html" target="_top" xlink:title=" ">
<polygon fill="white" stroke="#666666" points="638.62,-342 563.38,-342 563.38,-322 638.62,-322 638.62,-342"/>
<text text-anchor="middle" x="601" y="-328.5" font-family="Helvetica,sans-Serif" font-size="10.00">GEU::Texture</text>
</a>
</g>
</g>
<!-- Node4&#45;&gt;Node14 -->
<g id="edge18_Node000014_Node000004" class="edge">
<title>Node4&#45;&gt;Node14</title>
<g id="a_edge18_Node000014_Node000004"><a xlink:title=" ">
<path fill="none" stroke="#9a32cd" stroke-dasharray="5,2" d="M202.15,-366.66C269.73,-364.13 409.89,-357.62 527.75,-344 539.24,-342.67 551.7,-340.77 562.97,-338.87"/>
<polygon fill="#9a32cd" stroke="#9a32cd" points="202.16,-363.16 192.29,-367.02 202.41,-370.15 202.16,-363.16"/>
</a>
</g>
<text text-anchor="middle" x="328.25" y="-377.5" font-family="Helvetica,sans-Serif" font-size="10.00" fill="grey"> TEXTURE_LAYER_IDS</text>
<text text-anchor="middle" x="328.25" y="-365.5" font-family="Helvetica,sans-Serif" font-size="10.00" fill="grey">_filename</text>
</g>
<!-- Node15 -->
<g id="Node000015" class="node">
<title>Node15</title>
<g id="a_Node000015"><a xlink:title=" ">
<polygon fill="white" stroke="#666666" points="387.25,-332 269.25,-332 269.25,-300 387.25,-300 387.25,-332"/>
<text text-anchor="start" x="277.25" y="-318.5" font-family="Helvetica,sans-Serif" font-size="10.00">std::unordered_map</text>
<text text-anchor="middle" x="328.25" y="-306.5" font-family="Helvetica,sans-Serif" font-size="10.00">&lt; uint16_t, std::string &gt;</text>
</a>
</g>
</g>
<!-- Node4&#45;&gt;Node15 -->
<g id="edge20_Node000015_Node000004" class="edge">
<title>Node4&#45;&gt;Node15</title>
<g id="a_edge20_Node000015_Node000004"><a xlink:title=" ">
<path fill="none" stroke="#9a32cd" stroke-dasharray="5,2" d="M187.46,-351.94C194.13,-348.27 201.43,-344.67 208.5,-342 227.65,-334.76 249.33,-329.27 268.89,-325.25"/>
<polygon fill="#9a32cd" stroke="#9a32cd" points="185.84,-348.84 178.94,-356.88 189.35,-354.9 185.84,-348.84"/>
</a>
</g>
<text text-anchor="middle" x="229.88" y="-344.5" font-family="Helvetica,sans-Serif" font-size="10.00" fill="grey"> elements</text>
</g>
<!-- Node16 -->
<g id="Node000016" class="node">
<title>Node16</title>
<g id="a_Node000016"><a xlink:title=" ">
<polygon fill="white" stroke="#666666" points="527.75,-289 405.25,-289 405.25,-269 527.75,-269 527.75,-289"/>
<text text-anchor="middle" x="466.5" y="-275.5" font-family="Helvetica,sans-Serif" font-size="10.00">std::vector&lt; std::string &gt;</text>
</a>
</g>
</g>
<!-- Node4&#45;&gt;Node16 -->
<g id="edge22_Node000016_Node000004" class="edge">
<title>Node4&#45;&gt;Node16</title>
<g id="a_edge22_Node000016_Node000004"><a xlink:title=" ">
<path fill="none" stroke="#9a32cd" stroke-dasharray="5,2" d="M174.68,-348.73C183.16,-337.33 195.13,-323.33 208.5,-314 266.09,-273.78 348.93,-269.58 404.86,-272.44"/>
<polygon fill="#9a32cd" stroke="#9a32cd" points="171.99,-346.48 169.06,-356.66 177.7,-350.53 171.99,-346.48"/>
</a>
</g>
<text text-anchor="middle" x="229.88" y="-316.5" font-family="Helvetica,sans-Serif" font-size="10.00" fill="grey"> elements</text>
</g>
<!-- Node5 -->
<g id="Node000005" class="node">
<title>Node5</title>
<g id="a_Node000005"><a xlink:title=" ">
<polygon fill="white" stroke="#666666" points="94,-384 0,-384 0,-352 94,-352 94,-384"/>
<text text-anchor="start" x="8" y="-370.5" font-family="Helvetica,sans-Serif" font-size="10.00">std::basic_string&lt;</text>
<text text-anchor="middle" x="47" y="-358.5" font-family="Helvetica,sans-Serif" font-size="10.00"> Char &gt;</text>
</a>
</g>
</g>
<!-- Node5&#45;&gt;Node4 -->
<g id="edge4_Node000004_Node000005" class="edge">
<title>Node5&#45;&gt;Node4</title>
<g id="a_edge4_Node000004_Node000005"><a xlink:title=" ">
<path fill="none" stroke="#63b8ff" d="M105.71,-368C114.32,-368 122.87,-368 130.55,-368"/>
<polygon fill="#63b8ff" stroke="#63b8ff" points="105.93,-364.5 95.93,-368 105.93,-371.5 105.93,-364.5"/>
</a>
</g>
</g>
<!-- Node6 -->
<g id="Node000006" class="node">
<title>Node6</title>
<g id="a_Node000006"><a xlink:href="../../dc/d47/class_a_a_b_b.html" target="_top" xlink:title=" ">
<polygon fill="white" stroke="#666666" points="1115.75,-460 1072.75,-460 1072.75,-440 1115.75,-440 1115.75,-460"/>
<text text-anchor="middle" x="1094.25" y="-446.5" font-family="Helvetica,sans-Serif" font-size="10.00">AABB</text>
</a>
</g>
</g>
<!-- Node6&#45;&gt;Node1 -->
<g id="edge45_Node000001_Node000006" class="edge">
<title>Node6&#45;&gt;Node1</title>
<g id="a_edge45_Node000001_Node000006"><a xlink:title=" ">
<path fill="none" stroke="#9a32cd" stroke-dasharray="5,2" d="M1127.48,-449.6C1218.39,-448.23 1484.51,-442.44 1704.25,-420 1744.52,-415.89 1756.07,-419.46 1794.25,-406 1820.18,-396.86 1847.22,-379.56 1863.16,-368.42"/>
<polygon fill="#9a32cd" stroke="#9a32cd" points="1127.54,-446.1 1117.59,-449.74 1127.64,-453.1 1127.54,-446.1"/>
</a>
</g>
<text text-anchor="middle" x="1507.5" y="-439.5" font-family="Helvetica,sans-Serif" font-size="10.00" fill="grey"> aabb</text>
</g>
<!-- Node6&#45;&gt;Node3 -->
<g id="edge5_Node000003_Node000006" class="edge">
<title>Node6&#45;&gt;Node3</title>
<g id="a_edge5_Node000003_Node000006"><a xlink:title=" ">
<path fill="none" stroke="#9a32cd" stroke-dasharray="5,2" d="M1127.13,-444.71C1136.02,-441.89 1145.06,-437.59 1151.75,-431 1168.87,-414.13 1152.06,-396.27 1169.75,-380 1175.26,-374.94 1263.69,-353.22 1317.07,-340.46"/>
<polygon fill="#9a32cd" stroke="#9a32cd" points="1126.43,-441.27 1117.61,-447.15 1128.17,-448.05 1126.43,-441.27"/>
</a>
</g>
<text text-anchor="middle" x="1211.38" y="-382.5" font-family="Helvetica,sans-Serif" font-size="10.00" fill="grey"> _aabb</text>
</g>
<!-- Node6&#45;&gt;Node25 -->
<g id="edge33_Node000025_Node000006" class="edge">
<title>Node6&#45;&gt;Node25</title>
<g id="a_edge33_Node000025_Node000006"><a xlink:title=" ">
<path fill="none" stroke="#9a32cd" stroke-dasharray="5,2" d="M1127.44,-451.53C1140.56,-452.09 1155.88,-452.67 1169.75,-453 1447.23,-459.53 1516.76,-459.15 1794.25,-453 1800.31,-452.87 1806.63,-452.69 1812.94,-452.5"/>
<polygon fill="#9a32cd" stroke="#9a32cd" points="1127.78,-448.04 1117.63,-451.09 1127.46,-455.04 1127.78,-448.04"/>
</a>
</g>
<text text-anchor="middle" x="1507.5" y="-459.5" font-family="Helvetica,sans-Serif" font-size="10.00" fill="grey"> aabb</text>
</g>
<!-- Node7&#45;&gt;Node3 -->
<g id="edge6_Node000003_Node000007" class="edge">
<title>Node7&#45;&gt;Node3</title>
<g id="a_edge6_Node000003_Node000007"><a xlink:title=" ">
<path fill="none" stroke="#9a32cd" stroke-dasharray="5,2" d="M1144.64,-315.82C1175.76,-315.45 1216.77,-315.63 1253,-318 1274.27,-319.39 1297.85,-322.23 1317.18,-324.89"/>
<polygon fill="#9a32cd" stroke="#9a32cd" points="1144.69,-312.32 1134.74,-315.97 1144.79,-319.32 1144.69,-312.32"/>
</a>
</g>
<text text-anchor="middle" x="1211.38" y="-320.5" font-family="Helvetica,sans-Serif" font-size="10.00" fill="grey"> _material</text>
</g>
<!-- Node8 -->
<g id="Node000008" class="node">
<title>Node8</title>
<g id="a_Node000008"><a xlink:href="../../d0/def/class_g_e_u_1_1_rendering_shader.html" target="_top" xlink:title=" ">
<polygon fill="white" stroke="#666666" points="914.5,-500 797.25,-500 797.25,-480 914.5,-480 914.5,-500"/>
<text text-anchor="middle" x="855.88" y="-486.5" font-family="Helvetica,sans-Serif" font-size="10.00">GEU::RenderingShader</text>
</a>
</g>
</g>
<!-- Node8&#45;&gt;Node7 -->
<g id="edge8_Node000007_Node000008" class="edge">
<title>Node8&#45;&gt;Node7</title>
<g id="a_edge8_Node000007_Node000008"><a xlink:title=" ">
<path fill="none" stroke="#9a32cd" stroke-dasharray="5,2" d="M877.9,-472.46C910.88,-445.25 977.15,-391.76 1036.75,-351 1049.03,-342.6 1063.41,-333.96 1074.59,-327.5"/>
<polygon fill="#9a32cd" stroke="#9a32cd" points="875.78,-469.67 870.31,-478.74 880.25,-475.06 875.78,-469.67"/>
</a>
</g>
<text text-anchor="middle" x="975.62" y="-430.5" font-family="Helvetica,sans-Serif" font-size="10.00" fill="grey"> _associatedShader</text>
</g>
<!-- Node9&#45;&gt;Node8 -->
<g id="edge9_Node000008_Node000009" class="edge">
<title>Node9&#45;&gt;Node8</title>
<g id="a_edge9_Node000008_Node000009"><a xlink:title=" ">
<path fill="none" stroke="#63b8ff" d="M668.06,-490C708.02,-490 758.49,-490 796.9,-490"/>
<polygon fill="#63b8ff" stroke="#63b8ff" points="668.07,-486.5 658.07,-490 668.07,-493.5 668.07,-486.5"/>
</a>
</g>
</g>
<!-- Node10&#45;&gt;Node9 -->
<g id="edge11_Node000009_Node000010" class="edge">
<title>Node10&#45;&gt;Node9</title>
<g id="a_edge11_Node000009_Node000010"><a xlink:title=" ">
<path fill="none" stroke="#9a32cd" stroke-dasharray="5,2" d="M390.85,-438.93C430.36,-444.11 482.53,-452.33 527.75,-464 543.63,-468.1 560.93,-474.26 574.62,-479.56"/>
<polygon fill="#9a32cd" stroke="#9a32cd" points="391.41,-435.48 381.04,-437.68 390.52,-442.42 391.41,-435.48"/>
</a>
</g>
<text text-anchor="middle" x="466.5" y="-466.5" font-family="Helvetica,sans-Serif" font-size="10.00" fill="grey"> _moduleCode</text>
</g>
<!-- Node11 -->
<g id="Node000011" class="node">
<title>Node11</title>
<g id="a_Node000011"><a xlink:title=" ">
<polygon fill="white" stroke="#666666" points="382,-638 274.5,-638 274.5,-618 382,-618 382,-638"/>
<text text-anchor="middle" x="328.25" y="-624.5" font-family="Helvetica,sans-Serif" font-size="10.00">std::vector&lt; GLuint &gt;</text>
</a>
</g>
</g>
<!-- Node11&#45;&gt;Node9 -->
<g id="edge13_Node000009_Node000011" class="edge">
<title>Node11&#45;&gt;Node9</title>
<g id="a_edge13_Node000009_Node000011"><a xlink:title=" ">
<path fill="none" stroke="#9a32cd" stroke-dasharray="5,2" d="M393.74,-630.38C437.18,-628.42 492.74,-618.41 527.75,-584 552.2,-559.97 522.77,-534.44 545.75,-509 548.89,-505.52 552.71,-502.68 556.85,-500.35"/>
<polygon fill="#9a32cd" stroke="#9a32cd" points="393.81,-626.88 383.92,-630.68 394.02,-633.88 393.81,-626.88"/>
</a>
</g>
<text text-anchor="middle" x="466.5" y="-631.5" font-family="Helvetica,sans-Serif" font-size="10.00" fill="grey"> _activeSubroutineUniform</text>
</g>
<!-- Node12&#45;&gt;Node9 -->
<g id="edge14_Node000009_Node000012" class="edge">
<title>Node12&#45;&gt;Node9</title>
<g id="a_edge14_Node000009_Node000012"><a xlink:title=" ">
<path fill="none" stroke="#9a32cd" stroke-dasharray="5,2" d="M387.55,-563.76C443.53,-544.32 525.89,-515.73 569.81,-500.48"/>
<polygon fill="#9a32cd" stroke="#9a32cd" points="386.45,-560.44 378.15,-567.02 388.75,-567.05 386.45,-560.44"/>
</a>
</g>
<text text-anchor="middle" x="466.5" y="-570.5" font-family="Helvetica,sans-Serif" font-size="10.00" fill="grey"> subroutineLocation</text>
<text text-anchor="middle" x="466.5" y="-558.5" font-family="Helvetica,sans-Serif" font-size="10.00" fill="grey">uniformLocation</text>
</g>
<!-- Node13 -->
<g id="Node000013" class="node">
<title>Node13</title>
<g id="a_Node000013"><a xlink:title=" ">
<polygon fill="white" stroke="#666666" points="649.5,-538 552.5,-538 552.5,-518 649.5,-518 649.5,-538"/>
<text text-anchor="middle" x="601" y="-524.5" font-family="Helvetica,sans-Serif" font-size="10.00">std::vector&lt; bool &gt;</text>
</a>
</g>
</g>
<!-- Node13&#45;&gt;Node8 -->
<g id="edge16_Node000008_Node000013" class="edge">
<title>Node13&#45;&gt;Node8</title>
<g id="a_edge16_Node000008_Node000013"><a xlink:title=" ">
<path fill="none" stroke="#9a32cd" stroke-dasharray="5,2" d="M661.17,-520.72C695.67,-516.29 739.99,-510.29 779.25,-504 785.97,-502.92 793.02,-501.72 799.99,-500.48"/>
<polygon fill="#9a32cd" stroke="#9a32cd" points="660.84,-517.23 651.36,-521.97 661.73,-524.17 660.84,-517.23"/>
</a>
</g>
<text text-anchor="middle" x="726.75" y="-520.5" font-family="Helvetica,sans-Serif" font-size="10.00" fill="grey"> _implementsSubroutine</text>
</g>
<!-- Node14&#45;&gt;Node7 -->
<g id="edge17_Node000007_Node000014" class="edge">
<title>Node14&#45;&gt;Node7</title>
<g id="a_edge17_Node000007_Node000014"><a xlink:title=" ">
<path fill="none" stroke="#9a32cd" stroke-dasharray="5,2" d="M650.2,-330.53C747.77,-327.55 966.85,-320.86 1055.22,-318.16"/>
<polygon fill="#9a32cd" stroke="#9a32cd" points="650.32,-327.02 640.44,-330.83 650.54,-334.02 650.32,-327.02"/>
</a>
</g>
<text text-anchor="middle" x="855.88" y="-328.5" font-family="Helvetica,sans-Serif" font-size="10.00" fill="grey"> _texture</text>
</g>
<!-- Node15&#45;&gt;Node14 -->
<g id="edge19_Node000014_Node000015" class="edge">
<title>Node15&#45;&gt;Node14</title>
<g id="a_edge19_Node000014_Node000015"><a xlink:title=" ">
<path fill="none" stroke="#9a32cd" stroke-dasharray="5,2" d="M398.88,-320.11C451.19,-323.21 520.8,-327.32 562.9,-329.81"/>
<polygon fill="#9a32cd" stroke="#9a32cd" points="399.37,-316.64 389.18,-319.54 398.95,-323.63 399.37,-316.64"/>
</a>
</g>
<text text-anchor="middle" x="466.5" y="-330.5" font-family="Helvetica,sans-Serif" font-size="10.00" fill="grey"> SHADER_VARIABLE</text>
</g>
<!-- Node16&#45;&gt;Node7 -->
<g id="edge21_Node000007_Node000016" class="edge">
<title>Node16&#45;&gt;Node7</title>
<g id="a_edge21_Node000007_Node000016"><a xlink:title=" ">
<path fill="none" stroke="#9a32cd" stroke-dasharray="5,2" d="M539.33,-283.36C672.5,-291.45 953.41,-308.51 1055.31,-314.7"/>
<polygon fill="#9a32cd" stroke="#9a32cd" points="539.77,-279.88 529.58,-282.77 539.35,-286.87 539.77,-279.88"/>
</a>
</g>
<text text-anchor="middle" x="726.75" y="-300.5" font-family="Helvetica,sans-Serif" font-size="10.00" fill="grey"> _enabledSubroutines</text>
</g>
<!-- Node17 -->
<g id="Node000017" class="node">
<title>Node17</title>
<g id="a_Node000017"><a xlink:title=" ">
<polygon fill="white" stroke="#666666" points="1398.38,-197 1317.88,-197 1317.88,-177 1398.38,-177 1398.38,-197"/>
<text text-anchor="middle" x="1358.12" y="-183.5" font-family="Helvetica,sans-Serif" font-size="10.00">std::array&lt; T &gt;</text>
</a>
</g>
</g>
<!-- Node17&#45;&gt;Node2 -->
<g id="edge23_Node000002_Node000017" class="edge">
<title>Node17&#45;&gt;Node2</title>
<g id="a_edge23_Node000002_Node000017"><a xlink:title=" ">
<path fill="none" stroke="#9a32cd" stroke-dasharray="5,2" d="M1409.95,-189.07C1448.84,-190.91 1503.77,-194.1 1551.75,-199 1564.68,-200.32 1578.68,-202.15 1591.48,-203.99"/>
<polygon fill="#9a32cd" stroke="#9a32cd" points="1410.34,-185.58 1400.19,-188.62 1410.01,-192.57 1410.34,-185.58"/>
</a>
</g>
<text text-anchor="middle" x="1507.5" y="-201.5" font-family="Helvetica,sans-Serif" font-size="10.00" fill="grey"> _viewModes</text>
</g>
<!-- Node18 -->
<g id="Node000018" class="node">
<title>Node18</title>
<g id="a_Node000018"><a xlink:title=" ">
<polygon fill="white" stroke="#666666" points="1108.65,-197 1079.85,-197 1079.85,-177 1108.65,-177 1108.65,-197"/>
<text text-anchor="middle" x="1094.25" y="-183.5" font-family="Helvetica,sans-Serif" font-size="10.00">T</text>
</a>
</g>
</g>
<!-- Node18&#45;&gt;Node17 -->
<g id="edge24_Node000017_Node000018" class="edge">
<title>Node18&#45;&gt;Node17</title>
<g id="a_edge24_Node000017_Node000018"><a xlink:title=" ">
<path fill="none" stroke="#9a32cd" stroke-dasharray="5,2" d="M1120.4,-187C1166.06,-187 1262.88,-187 1317.49,-187"/>
<polygon fill="#9a32cd" stroke="#9a32cd" points="1120.47,-183.5 1110.47,-187 1120.47,-190.5 1120.47,-183.5"/>
</a>
</g>
<text text-anchor="middle" x="1211.38" y="-189.5" font-family="Helvetica,sans-Serif" font-size="10.00" fill="grey"> elements</text>
</g>
<!-- Node19 -->
<g id="Node000019" class="node">
<title>Node19</title>
<g id="a_Node000019"><a xlink:href="../../d2/d21/struct_g_e_u_1_1_g_p_u_resources.html" target="_top" xlink:title=" ">
<polygon fill="white" stroke="#666666" points="1413.38,-83 1302.88,-83 1302.88,-63 1413.38,-63 1413.38,-83"/>
<text text-anchor="middle" x="1358.12" y="-69.5" font-family="Helvetica,sans-Serif" font-size="10.00">GEU::GPUResources</text>
</a>
</g>
</g>
<!-- Node19&#45;&gt;Node2 -->
<g id="edge26_Node000002_Node000019" class="edge">
<title>Node19&#45;&gt;Node2</title>
<g id="a_edge26_Node000002_Node000019"><a xlink:title=" ">
<path fill="none" stroke="#9a32cd" stroke-dasharray="5,2" d="M1425.16,-68.18C1464.4,-68.28 1513.77,-73.81 1551.75,-96 1594.71,-121.09 1622.15,-177.68 1631.95,-200.83"/>
<polygon fill="#9a32cd" stroke="#9a32cd" points="1425.33,-64.68 1415.36,-68.28 1425.4,-71.68 1425.33,-64.68"/>
</a>
</g>
<text text-anchor="middle" x="1507.5" y="-98.5" font-family="Helvetica,sans-Serif" font-size="10.00" fill="grey"> _GPUResources</text>
</g>
<!-- Node20 -->
<g id="Node000020" class="node">
<title>Node20</title>
<g id="a_Node000020"><a xlink:title=" ">
<polygon fill="white" stroke="#666666" points="1146.5,-157 1042,-157 1042,-113 1146.5,-113 1146.5,-157"/>
<text text-anchor="start" x="1050" y="-143.5" font-family="Helvetica,sans-Serif" font-size="10.00">std::array&lt; size_t,</text>
<text text-anchor="start" x="1050" y="-131.5" font-family="Helvetica,sans-Serif" font-size="10.00">(uint8_t) SSBOSlots</text>
<text text-anchor="middle" x="1094.25" y="-119.5" font-family="Helvetica,sans-Serif" font-size="10.00">::Total &gt;</text>
</a>
</g>
</g>
<!-- Node20&#45;&gt;Node19 -->
<g id="edge27_Node000019_Node000020" class="edge">
<title>Node20&#45;&gt;Node19</title>
<g id="a_edge27_Node000019_Node000020"><a xlink:title=" ">
<path fill="none" stroke="#9a32cd" stroke-dasharray="5,2" d="M1157.73,-119.35C1191.27,-111.04 1233.34,-100.76 1271,-92 1283.23,-89.16 1296.46,-86.18 1308.8,-83.46"/>
<polygon fill="#9a32cd" stroke="#9a32cd" points="1157.03,-115.91 1148.17,-121.72 1158.72,-122.71 1157.03,-115.91"/>
</a>
</g>
<text text-anchor="middle" x="1211.38" y="-119.5" font-family="Helvetica,sans-Serif" font-size="10.00" fill="grey"> _memoryReserved</text>
</g>
<!-- Node21 -->
<g id="Node000021" class="node">
<title>Node21</title>
<g id="a_Node000021"><a xlink:title=" ">
<polygon fill="white" stroke="#666666" points="1146.5,-95 1042,-95 1042,-51 1146.5,-51 1146.5,-95"/>
<text text-anchor="start" x="1050" y="-81.5" font-family="Helvetica,sans-Serif" font-size="10.00">std::array&lt; GLuint,</text>
<text text-anchor="start" x="1050" y="-69.5" font-family="Helvetica,sans-Serif" font-size="10.00">(uint8_t) SSBOSlots</text>
<text text-anchor="middle" x="1094.25" y="-57.5" font-family="Helvetica,sans-Serif" font-size="10.00">::Total &gt;</text>
</a>
</g>
</g>
<!-- Node21&#45;&gt;Node19 -->
<g id="edge28_Node000019_Node000021" class="edge">
<title>Node21&#45;&gt;Node19</title>
<g id="a_edge28_Node000019_Node000021"><a xlink:title=" ">
<path fill="none" stroke="#9a32cd" stroke-dasharray="5,2" d="M1158.45,-73C1202.54,-73 1260.78,-73 1302.79,-73"/>
<polygon fill="#9a32cd" stroke="#9a32cd" points="1158.5,-69.5 1148.5,-73 1158.5,-76.5 1158.5,-69.5"/>
</a>
</g>
<text text-anchor="middle" x="1211.38" y="-75.5" font-family="Helvetica,sans-Serif" font-size="10.00" fill="grey"> _ssboIds</text>
</g>
<!-- Node22 -->
<g id="Node000022" class="node">
<title>Node22</title>
<g id="a_Node000022"><a xlink:title=" ">
<polygon fill="white" stroke="#666666" points="1407.38,-159 1308.88,-159 1308.88,-139 1407.38,-139 1407.38,-159"/>
<text text-anchor="middle" x="1358.12" y="-145.5" font-family="Helvetica,sans-Serif" font-size="10.00">std::vector&lt; vec3 &gt;</text>
</a>
</g>
</g>
<!-- Node22&#45;&gt;Node2 -->
<g id="edge29_Node000002_Node000022" class="edge">
<title>Node22&#45;&gt;Node2</title>
<g id="a_edge29_Node000002_Node000022"><a xlink:title=" ">
<path fill="none" stroke="#9a32cd" stroke-dasharray="5,2" d="M1418.72,-147.63C1457.39,-148.27 1508.45,-152.02 1551.75,-165 1578.09,-172.9 1605.47,-189.72 1621.62,-200.69"/>
<polygon fill="#9a32cd" stroke="#9a32cd" points="1419.19,-144.13 1409.16,-147.54 1419.13,-151.13 1419.19,-144.13"/>
</a>
</g>
<text text-anchor="middle" x="1507.5" y="-179.5" font-family="Helvetica,sans-Serif" font-size="10.00" fill="grey"> _normals</text>
<text text-anchor="middle" x="1507.5" y="-167.5" font-family="Helvetica,sans-Serif" font-size="10.00" fill="grey">_position</text>
</g>
<!-- Node23 -->
<g id="Node000023" class="node">
<title>Node23</title>
<g id="a_Node000023"><a xlink:title=" ">
<polygon fill="white" stroke="#666666" points="1417.12,-121 1299.12,-121 1299.12,-101 1417.12,-101 1417.12,-121"/>
<text text-anchor="middle" x="1358.12" y="-107.5" font-family="Helvetica,sans-Serif" font-size="10.00">std::vector&lt; unsigned &gt;</text>
</a>
</g>
</g>
<!-- Node23&#45;&gt;Node2 -->
<g id="edge30_Node000002_Node000023" class="edge">
<title>Node23&#45;&gt;Node2</title>
<g id="a_edge30_Node000002_Node000023"><a xlink:title=" ">
<path fill="none" stroke="#9a32cd" stroke-dasharray="5,2" d="M1428.7,-109.13C1466.61,-110.56 1513.46,-116.45 1551.75,-134 1585.44,-149.44 1614.86,-183.41 1628.28,-200.6"/>
<polygon fill="#9a32cd" stroke="#9a32cd" points="1428.85,-105.63 1418.76,-108.86 1428.66,-112.63 1428.85,-105.63"/>
</a>
</g>
<text text-anchor="middle" x="1507.5" y="-136.5" font-family="Helvetica,sans-Serif" font-size="10.00" fill="grey"> _rgbColor</text>
</g>
<!-- Node24 -->
<g id="Node000024" class="node">
<title>Node24</title>
<g id="a_Node000024"><a xlink:title=" ">
<polygon fill="white" stroke="#666666" points="2167.5,-295 2023.25,-295 2023.25,-263 2167.5,-263 2167.5,-295"/>
<text text-anchor="start" x="2031.25" y="-281.5" font-family="Helvetica,sans-Serif" font-size="10.00">std::vector&lt; GEU::PointCloud</text>
<text text-anchor="middle" x="2095.38" y="-269.5" font-family="Helvetica,sans-Serif" font-size="10.00">::Meshlet &gt;</text>
</a>
</g>
</g>
<!-- Node24&#45;&gt;Node2 -->
<g id="edge31_Node000002_Node000024" class="edge">
<title>Node24&#45;&gt;Node2</title>
<g id="a_edge31_Node000002_Node000024"><a xlink:title=" ">
<path fill="none" stroke="#9a32cd" stroke-dasharray="5,2" d="M2011.56,-268.61C1936.04,-258.85 1821.43,-243.34 1722.25,-227 1709.32,-224.87 1695.33,-222.31 1682.53,-219.88"/>
<polygon fill="#9a32cd" stroke="#9a32cd" points="2011.01,-272.06 2021.38,-269.87 2011.91,-265.12 2011.01,-272.06"/>
</a>
</g>
<text text-anchor="middle" x="1878.38" y="-262.5" font-family="Helvetica,sans-Serif" font-size="10.00" fill="grey"> _meshlets</text>
</g>
<!-- Node25&#45;&gt;Node24 -->
<g id="edge32_Node000024_Node000025" class="edge">
<title>Node25&#45;&gt;Node24</title>
<g id="a_edge32_Node000024_Node000025"><a xlink:title=" ">
<path fill="none" stroke="#9a32cd" stroke-dasharray="5,2" d="M1901.32,-432.54C1943.06,-399.35 2033.29,-327.58 2073.87,-295.3"/>
<polygon fill="#9a32cd" stroke="#9a32cd" points="1899.33,-429.65 1893.69,-438.62 1903.69,-435.13 1899.33,-429.65"/>
</a>
</g>
<text text-anchor="middle" x="1983.88" y="-381.5" font-family="Helvetica,sans-Serif" font-size="10.00" fill="grey"> elements</text>
</g>
<!-- Node26 -->
<g id="Node000026" class="node">
<title>Node26</title>
<g id="a_Node000026"><a xlink:title=" ">
<polygon fill="white" stroke="#666666" points="1704.25,-549 1569.75,-549 1569.75,-505 1704.25,-505 1704.25,-549"/>
<text text-anchor="start" x="1577.75" y="-535.5" font-family="Helvetica,sans-Serif" font-size="10.00">std::array&lt; std::vector</text>
<text text-anchor="start" x="1577.75" y="-523.5" font-family="Helvetica,sans-Serif" font-size="10.00">&lt; dataState &gt;, NUM_DATA</text>
<text text-anchor="middle" x="1637" y="-511.5" font-family="Helvetica,sans-Serif" font-size="10.00">_SOURCES &gt;</text>
</a>
</g>
</g>
<!-- Node26&#45;&gt;Node25 -->
<g id="edge35_Node000025_Node000026" class="edge">
<title>Node26&#45;&gt;Node25</title>
<g id="a_edge35_Node000025_Node000026"><a xlink:title=" ">
<path fill="none" stroke="#9a32cd" stroke-dasharray="5,2" d="M1715.8,-512.79C1741.17,-507.18 1769.24,-499.91 1794.25,-491 1817.59,-482.68 1842.93,-469.53 1859.42,-460.38"/>
<polygon fill="#9a32cd" stroke="#9a32cd" points="1715.25,-509.33 1706.21,-514.86 1716.73,-516.18 1715.25,-509.33"/>
</a>
</g>
<text text-anchor="middle" x="1758.25" y="-513.5" font-family="Helvetica,sans-Serif" font-size="10.00" fill="grey"> fusionDataState</text>
</g>
<!-- Node27 -->
<g id="Node000027" class="node">
<title>Node27</title>
<g id="a_Node000027"><a xlink:title=" ">
<polygon fill="white" stroke="#666666" points="1418.62,-537 1297.62,-537 1297.62,-517 1418.62,-517 1418.62,-537"/>
<text text-anchor="middle" x="1358.12" y="-523.5" font-family="Helvetica,sans-Serif" font-size="10.00">std::vector&lt; dataState &gt;</text>
</a>
</g>
</g>
<!-- Node27&#45;&gt;Node26 -->
<g id="edge36_Node000026_Node000027" class="edge">
<title>Node27&#45;&gt;Node26</title>
<g id="a_edge36_Node000026_Node000027"><a xlink:title=" ">
<path fill="none" stroke="#9a32cd" stroke-dasharray="5,2" d="M1430.36,-527C1473.27,-527 1527.56,-527 1569.58,-527"/>
<polygon fill="#9a32cd" stroke="#9a32cd" points="1430.38,-523.5 1420.38,-527 1430.38,-530.5 1430.38,-523.5"/>
</a>
</g>
<text text-anchor="middle" x="1507.5" y="-529.5" font-family="Helvetica,sans-Serif" font-size="10.00" fill="grey"> elements</text>
</g>
<!-- Node28 -->
<g id="Node000028" class="node">
<title>Node28</title>
<g id="a_Node000028"><a xlink:title=" ">
<polygon fill="white" stroke="#666666" points="1431,-44 1285.25,-44 1285.25,0 1431,0 1431,-44"/>
<text text-anchor="start" x="1293.25" y="-30.5" font-family="Helvetica,sans-Serif" font-size="10.00">std::array&lt; std::vector</text>
<text text-anchor="start" x="1293.25" y="-18.5" font-family="Helvetica,sans-Serif" font-size="10.00">&lt; std::vector&lt; float &gt;</text>
<text text-anchor="middle" x="1358.12" y="-6.5" font-family="Helvetica,sans-Serif" font-size="10.00"> &gt;, NUM_DATA_SOURCES &gt;</text>
</a>
</g>
</g>
<!-- Node28&#45;&gt;Node2 -->
<g id="edge37_Node000002_Node000028" class="edge">
<title>Node28&#45;&gt;Node2</title>
<g id="a_edge37_Node000002_Node000028"><a xlink:title=" ">
<path fill="none" stroke="#9a32cd" stroke-dasharray="5,2" d="M1442.43,-20.4C1478.89,-23.47 1520.4,-32.5 1551.75,-55 1603.76,-92.34 1626.87,-171.99 1633.71,-200.54"/>
<polygon fill="#9a32cd" stroke="#9a32cd" points="1443.02,-16.93 1432.8,-19.73 1442.54,-23.91 1443.02,-16.93"/>
</a>
</g>
<text text-anchor="middle" x="1507.5" y="-57.5" font-family="Helvetica,sans-Serif" font-size="10.00" fill="grey"> _fusionData</text>
</g>
<!-- Node29 -->
<g id="Node000029" class="node">
<title>Node29</title>
<g id="a_Node000029"><a xlink:title=" ">
<polygon fill="white" stroke="#666666" points="1151.75,-33 1036.75,-33 1036.75,-1 1151.75,-1 1151.75,-33"/>
<text text-anchor="start" x="1044.75" y="-19.5" font-family="Helvetica,sans-Serif" font-size="10.00">std::vector&lt; std::vector</text>
<text text-anchor="middle" x="1094.25" y="-7.5" font-family="Helvetica,sans-Serif" font-size="10.00">&lt; float &gt; &gt;</text>
</a>
</g>
</g>
<!-- Node29&#45;&gt;Node28 -->
<g id="edge38_Node000028_Node000029" class="edge">
<title>Node29&#45;&gt;Node28</title>
<g id="a_edge38_Node000028_Node000029"><a xlink:title=" ">
<path fill="none" stroke="#9a32cd" stroke-dasharray="5,2" d="M1163.36,-18.3C1200.7,-19.01 1246.98,-19.9 1284.94,-20.62"/>
<polygon fill="#9a32cd" stroke="#9a32cd" points="1163.65,-14.81 1153.59,-18.11 1163.52,-21.8 1163.65,-14.81"/>
</a>
</g>
<text text-anchor="middle" x="1211.38" y="-22.5" font-family="Helvetica,sans-Serif" font-size="10.00" fill="grey"> elements</text>
</g>
<!-- Node30 -->
<g id="Node000030" class="node">
<title>Node30</title>
<g id="a_Node000030"><a xlink:title=" ">
<polygon fill="white" stroke="#666666" points="904.38,-27 807.38,-27 807.38,-7 904.38,-7 904.38,-27"/>
<text text-anchor="middle" x="855.88" y="-13.5" font-family="Helvetica,sans-Serif" font-size="10.00">std::vector&lt; float &gt;</text>
</a>
</g>
</g>
<!-- Node30&#45;&gt;Node29 -->
<g id="edge39_Node000029_Node000030" class="edge">
<title>Node30&#45;&gt;Node29</title>
<g id="a_edge39_Node000029_Node000030"><a xlink:title=" ">
<path fill="none" stroke="#9a32cd" stroke-dasharray="5,2" d="M915.79,-17C952.64,-17 999.86,-17 1036.32,-17"/>
<polygon fill="#9a32cd" stroke="#9a32cd" points="916.22,-13.5 906.22,-17 916.22,-20.5 916.22,-13.5"/>
</a>
</g>
<text text-anchor="middle" x="975.62" y="-19.5" font-family="Helvetica,sans-Serif" font-size="10.00" fill="grey"> elements</text>
</g>
<!-- Node31 -->
<g id="Node000031" class="node">
<title>Node31</title>
<g id="a_Node000031"><a xlink:title=" ">
<polygon fill="white" stroke="#666666" points="1445.25,-401 1271,-401 1271,-369 1445.25,-369 1445.25,-401"/>
<text text-anchor="start" x="1279" y="-387.5" font-family="Helvetica,sans-Serif" font-size="10.00">std::array&lt; std::vector</text>
<text text-anchor="middle" x="1358.12" y="-375.5" font-family="Helvetica,sans-Serif" font-size="10.00">&lt; vec2 &gt;, NUM_DATA_SOURCES &gt;</text>
</a>
</g>
</g>
<!-- Node31&#45;&gt;Node2 -->
<g id="edge40_Node000002_Node000031" class="edge">
<title>Node31&#45;&gt;Node2</title>
<g id="a_edge40_Node000002_Node000031"><a xlink:title=" ">
<path fill="none" stroke="#9a32cd" stroke-dasharray="5,2" d="M1414.69,-364.16C1425,-359.81 1435.57,-355.01 1445.25,-350 1495.14,-324.21 1506.51,-315.28 1551.75,-282 1579.02,-261.94 1608.86,-235.68 1624.67,-221.38"/>
<polygon fill="#9a32cd" stroke="#9a32cd" points="1413.39,-360.91 1405.48,-367.95 1416.06,-367.38 1413.39,-360.91"/>
</a>
</g>
<text text-anchor="middle" x="1507.5" y="-343.5" font-family="Helvetica,sans-Serif" font-size="10.00" fill="grey"> _fusionDataMinMax</text>
</g>
<!-- Node32 -->
<g id="Node000032" class="node">
<title>Node32</title>
<g id="a_Node000032"><a xlink:title=" ">
<polygon fill="white" stroke="#666666" points="1143.5,-422 1045,-422 1045,-402 1143.5,-402 1143.5,-422"/>
<text text-anchor="middle" x="1094.25" y="-408.5" font-family="Helvetica,sans-Serif" font-size="10.00">std::vector&lt; vec2 &gt;</text>
</a>
</g>
</g>
<!-- Node32&#45;&gt;Node31 -->
<g id="edge41_Node000031_Node000032" class="edge">
<title>Node32&#45;&gt;Node31</title>
<g id="a_edge41_Node000031_Node000032"><a xlink:title=" ">
<path fill="none" stroke="#9a32cd" stroke-dasharray="5,2" d="M1155.11,-405.83C1189.29,-402.3 1232.74,-397.82 1270.58,-393.92"/>
<polygon fill="#9a32cd" stroke="#9a32cd" points="1154.99,-402.32 1145.4,-406.83 1155.7,-409.29 1154.99,-402.32"/>
</a>
</g>
<text text-anchor="middle" x="1211.38" y="-406.5" font-family="Helvetica,sans-Serif" font-size="10.00" fill="grey"> elements</text>
</g>
<!-- Node33 -->
<g id="Node000033" class="node">
<title>Node33</title>
<g id="a_Node000033"><a xlink:title=" ">
<polygon fill="white" stroke="#666666" points="2162.25,-198 2028.5,-198 2028.5,-166 2162.25,-166 2162.25,-198"/>
<text text-anchor="start" x="2036.5" y="-184.5" font-family="Helvetica,sans-Serif" font-size="10.00">std::vector&lt; std::unique</text>
<text text-anchor="middle" x="2095.38" y="-172.5" font-family="Helvetica,sans-Serif" font-size="10.00">_ptr&lt; GEU::PointCloud &gt; &gt;</text>
</a>
</g>
</g>
<!-- Node33&#45;&gt;Node2 -->
<g id="edge42_Node000002_Node000033" class="edge">
<title>Node33&#45;&gt;Node2</title>
<g id="a_edge42_Node000002_Node000033"><a xlink:title=" ">
<path fill="none" stroke="#9a32cd" stroke-dasharray="5,2" d="M2016.8,-177.07C1993.56,-175.81 1968,-174.63 1944.5,-174 1885.74,-172.43 1870.71,-167.86 1812.25,-174 1764.73,-178.99 1711.1,-191.43 1676.04,-200.52"/>
<polygon fill="#9a32cd" stroke="#9a32cd" points="2016.31,-180.55 2026.49,-177.61 2016.7,-173.56 2016.31,-180.55"/>
</a>
</g>
<text text-anchor="middle" x="1878.38" y="-176.5" font-family="Helvetica,sans-Serif" font-size="10.00" fill="grey"> _subClouds</text>
</g>
<!-- Node34&#45;&gt;Node33 -->
<g id="edge43_Node000033_Node000034" class="edge">
<title>Node34&#45;&gt;Node33</title>
<g id="a_edge43_Node000033_Node000034"><a xlink:title=" ">
<path fill="none" stroke="#9a32cd" stroke-dasharray="5,2" d="M1945.28,-202.11C1971.53,-198.57 2001.7,-194.5 2028,-190.95"/>
<polygon fill="#9a32cd" stroke="#9a32cd" points="1944.85,-198.64 1935.41,-203.44 1945.78,-205.57 1944.85,-198.64"/>
</a>
</g>
<text text-anchor="middle" x="1983.88" y="-202.5" font-family="Helvetica,sans-Serif" font-size="10.00" fill="grey"> elements</text>
</g>
<!-- Node35 -->
<g id="Node000035" class="node">
<title>Node35</title>
<g id="a_Node000035"><a xlink:title=" ">
<polygon fill="white" stroke="#666666" points="1697.5,-347 1576.5,-347 1576.5,-315 1697.5,-315 1697.5,-347"/>
<text text-anchor="start" x="1584.5" y="-333.5" font-family="Helvetica,sans-Serif" font-size="10.00">std::vector&lt; std::vector</text>
<text text-anchor="middle" x="1637" y="-321.5" font-family="Helvetica,sans-Serif" font-size="10.00">&lt; ProceduralVoxel * &gt; &gt;</text>
</a>
</g>
</g>
<!-- Node35&#45;&gt;Node1 -->
<g id="edge46_Node000001_Node000035" class="edge">
<title>Node35&#45;&gt;Node1</title>
<g id="a_edge46_Node000001_Node000035"><a xlink:title=" ">
<path fill="none" stroke="#9a32cd" stroke-dasharray="5,2" d="M1708.94,-327.03C1735.81,-326.68 1766.58,-327.68 1794.25,-332 1813.67,-335.03 1834.8,-341.69 1850.9,-347.51"/>
<polygon fill="#9a32cd" stroke="#9a32cd" points="1709.13,-323.53 1699.2,-327.23 1709.27,-330.53 1709.13,-323.53"/>
</a>
</g>
<text text-anchor="middle" x="1758.25" y="-334.5" font-family="Helvetica,sans-Serif" font-size="10.00" fill="grey"> voxelGrid</text>
</g>
<!-- Node36 -->
<g id="Node000036" class="node">
<title>Node36</title>
<g id="a_Node000036"><a xlink:title=" ">
<polygon fill="white" stroke="#666666" points="1687.38,-411 1586.62,-411 1586.62,-391 1687.38,-391 1687.38,-411"/>
<text text-anchor="middle" x="1637" y="-397.5" font-family="Helvetica,sans-Serif" font-size="10.00">std::atomic&lt; float &gt;</text>
</a>
</g>
</g>
<!-- Node36&#45;&gt;Node1 -->
<g id="edge47_Node000001_Node000036" class="edge">
<title>Node36&#45;&gt;Node1</title>
<g id="a_edge47_Node000001_Node000036"><a xlink:title=" ">
<path fill="none" stroke="#9a32cd" stroke-dasharray="5,2" d="M1699.03,-393.95C1728.01,-390.21 1763.04,-385.12 1794.25,-379 1809.15,-376.08 1825.37,-372.15 1839.5,-368.48"/>
<polygon fill="#9a32cd" stroke="#9a32cd" points="1698.82,-390.45 1689.34,-395.18 1699.7,-397.4 1698.82,-390.45"/>
</a>
</g>
<text text-anchor="middle" x="1758.25" y="-392.5" font-family="Helvetica,sans-Serif" font-size="10.00" fill="grey"> progress</text>
</g>
</g>
</svg>
