<?xml version="1.0" encoding="UTF-8" standalone="no"?>
<!DOCTYPE svg PUBLIC "-//W3C//DTD SVG 1.1//EN"
 "http://www.w3.org/Graphics/SVG/1.1/DTD/svg11.dtd">
<!-- Generated by graphviz version 10.0.1 (20240210.2158)
 -->
<!-- Title: ImGui::GradientEditor Pages: 1 -->
<svg width="624pt" height="218pt"
 viewBox="0.00 0.00 624.00 218.00" xmlns="http://www.w3.org/2000/svg" xmlns:xlink="http://www.w3.org/1999/xlink">
<g id="graph0" class="graph" transform="scale(1 1) rotate(0) translate(4 214)">
<title>ImGui::GradientEditor</title>
<!-- Node1 -->
<g id="Node000001" class="node">
<title>Node1</title>
<g id="a_Node000001"><a xlink:title=" ">
<polygon fill="#999999" stroke="#666666" points="109.75,-115 0,-115 0,-95 109.75,-95 109.75,-115"/>
<text text-anchor="middle" x="54.88" y="-101.5" font-family="Helvetica,sans-Serif" font-size="10.00">ImGui::GradientEditor</text>
</a>
</g>
</g>
<!-- Node2 -->
<g id="Node000002" class="node">
<title>Node2</title>
<g id="a_Node000002"><a xlink:href="../../d9/d01/a01976.html#a089dcb45e26c59a2b9a1f5962bea099c" target="_top" xlink:title=" ">
<polygon fill="white" stroke="#666666" points="265.62,-210 158.88,-210 158.88,-190 265.62,-190 265.62,-210"/>
<text text-anchor="middle" x="212.25" y="-196.5" font-family="Helvetica,sans-Serif" font-size="10.00">ImGradient::addMark</text>
</a>
</g>
</g>
<!-- Node1&#45;&gt;Node2 -->
<g id="edge1_Node000001_Node000002" class="edge">
<title>Node1&#45;&gt;Node2</title>
<g id="a_edge1_Node000001_Node000002"><a xlink:title=" ">
<path fill="none" stroke="#63b8ff" d="M66.68,-115.44C82.77,-130.53 114.51,-158.53 145.75,-176 151.99,-179.49 158.84,-182.65 165.68,-185.44"/>
<polygon fill="#63b8ff" stroke="#63b8ff" points="164.34,-188.67 174.93,-188.98 166.84,-182.14 164.34,-188.67"/>
</a>
</g>
</g>
<!-- Node3 -->
<g id="Node000003" class="node">
<title>Node3</title>
<g id="a_Node000003"><a xlink:href="../../d9/d01/a01976.html#a32f20a54fa5def0464929570ec03c7d4" target="_top" xlink:title=" ">
<polygon fill="white" stroke="#666666" points="441,-191 314.75,-191 314.75,-171 441,-171 441,-191"/>
<text text-anchor="middle" x="377.88" y="-177.5" font-family="Helvetica,sans-Serif" font-size="10.00">ImGradient::refreshCache</text>
</a>
</g>
</g>
<!-- Node1&#45;&gt;Node3 -->
<g id="edge10_Node000001_Node000003" class="edge">
<title>Node1&#45;&gt;Node3</title>
<g id="a_edge10_Node000001_Node000003"><a xlink:title=" ">
<path fill="none" stroke="#63b8ff" d="M76.43,-115.35C94.32,-123.95 121.18,-135.89 145.75,-143 197.43,-157.94 257.41,-167.59 303.32,-173.42"/>
<polygon fill="#63b8ff" stroke="#63b8ff" points="302.82,-176.89 313.18,-174.64 303.68,-169.94 302.82,-176.89"/>
</a>
</g>
</g>
<!-- Node5 -->
<g id="Node000005" class="node">
<title>Node5</title>
<g id="a_Node000005"><a xlink:href="../../d9/d05/a00633.html#abfe978df1447fa5bdfa023e53f9aff26" target="_top" xlink:title=" ">
<polygon fill="white" stroke="#666666" points="272.75,-134 151.75,-134 151.75,-114 272.75,-114 272.75,-134"/>
<text text-anchor="middle" x="212.25" y="-120.5" font-family="Helvetica,sans-Serif" font-size="10.00">ImGui::DrawGradientBar</text>
</a>
</g>
</g>
<!-- Node1&#45;&gt;Node5 -->
<g id="edge4_Node000001_Node000005" class="edge">
<title>Node1&#45;&gt;Node5</title>
<g id="a_edge4_Node000001_Node000005"><a xlink:title=" ">
<path fill="none" stroke="#63b8ff" d="M110.22,-111.65C119.88,-112.83 130.08,-114.07 140.13,-115.3"/>
<polygon fill="#63b8ff" stroke="#63b8ff" points="139.52,-118.75 149.87,-116.49 140.37,-111.81 139.52,-118.75"/>
</a>
</g>
</g>
<!-- Node6 -->
<g id="Node000006" class="node">
<title>Node6</title>
<g id="a_Node000006"><a xlink:href="../../d9/d01/a01976.html#a91ab111bfaafb3bf899ec98e34b4b0e7" target="_top" xlink:title=" ">
<polygon fill="white" stroke="#666666" points="432.75,-96 323,-96 323,-76 432.75,-76 432.75,-96"/>
<text text-anchor="middle" x="377.88" y="-82.5" font-family="Helvetica,sans-Serif" font-size="10.00">ImGradient::getMarks</text>
</a>
</g>
</g>
<!-- Node1&#45;&gt;Node6 -->
<g id="edge9_Node000001_Node000006" class="edge">
<title>Node1&#45;&gt;Node6</title>
<g id="a_edge9_Node000001_Node000006"><a xlink:title=" ">
<path fill="none" stroke="#63b8ff" d="M109.97,-101.8C165.53,-98.51 252.05,-93.39 311.44,-89.87"/>
<polygon fill="#63b8ff" stroke="#63b8ff" points="311.28,-93.39 321.05,-89.3 310.86,-86.4 311.28,-93.39"/>
</a>
</g>
</g>
<!-- Node7 -->
<g id="Node000007" class="node">
<title>Node7</title>
<g id="a_Node000007"><a xlink:href="../../d9/d05/a00633.html#aa0d27807ad0fd2ee092de14e2ccba2f7" target="_top" xlink:title=" ">
<polygon fill="white" stroke="#666666" points="278.75,-58 145.75,-58 145.75,-38 278.75,-38 278.75,-58"/>
<text text-anchor="middle" x="212.25" y="-44.5" font-family="Helvetica,sans-Serif" font-size="10.00">ImGui::DrawGradientMarks</text>
</a>
</g>
</g>
<!-- Node1&#45;&gt;Node7 -->
<g id="edge6_Node000001_Node000007" class="edge">
<title>Node1&#45;&gt;Node7</title>
<g id="a_edge6_Node000001_Node000007"><a xlink:title=" ">
<path fill="none" stroke="#63b8ff" d="M84.21,-94.59C101.9,-88.09 125.15,-79.56 145.75,-72 154.3,-68.86 163.49,-65.5 172.19,-62.31"/>
<polygon fill="#63b8ff" stroke="#63b8ff" points="173.27,-65.64 181.46,-58.91 170.86,-59.07 173.27,-65.64"/>
</a>
</g>
</g>
<!-- Node8 -->
<g id="Node000008" class="node">
<title>Node8</title>
<g id="a_Node000008"><a xlink:href="../../d9/d01/a01976.html#a15733f02f002e8f93ad6d872a75a821c" target="_top" xlink:title=" ">
<polygon fill="white" stroke="#666666" points="269.75,-20 154.75,-20 154.75,0 269.75,0 269.75,-20"/>
<text text-anchor="middle" x="212.25" y="-6.5" font-family="Helvetica,sans-Serif" font-size="10.00">ImGradient::getColorAt</text>
</a>
</g>
</g>
<!-- Node1&#45;&gt;Node8 -->
<g id="edge8_Node000001_Node000008" class="edge">
<title>Node1&#45;&gt;Node8</title>
<g id="a_edge8_Node000001_Node000008"><a xlink:title=" ">
<path fill="none" stroke="#63b8ff" d="M65.34,-94.56C80.68,-78.26 112.61,-46.77 145.75,-29 148.78,-27.37 151.97,-25.87 155.24,-24.49"/>
<polygon fill="#63b8ff" stroke="#63b8ff" points="156.35,-27.81 164.45,-20.99 153.86,-21.27 156.35,-27.81"/>
</a>
</g>
</g>
<!-- Node2&#45;&gt;Node3 -->
<g id="edge2_Node000002_Node000003" class="edge">
<title>Node2&#45;&gt;Node3</title>
<g id="a_edge2_Node000002_Node000003"><a xlink:title=" ">
<path fill="none" stroke="#63b8ff" d="M265.92,-193.88C277.72,-192.51 290.46,-191.03 302.94,-189.58"/>
<polygon fill="#63b8ff" stroke="#63b8ff" points="303.27,-193.07 312.8,-188.44 302.47,-186.12 303.27,-193.07"/>
</a>
</g>
</g>
<!-- Node4 -->
<g id="Node000004" class="node">
<title>Node4</title>
<g id="a_Node000004"><a xlink:href="../../d9/d01/a01976.html#af413353d9a687b91f7347dad83554609" target="_top" xlink:title=" ">
<polygon fill="white" stroke="#666666" points="616,-191 477,-191 477,-171 616,-171 616,-191"/>
<text text-anchor="middle" x="546.5" y="-177.5" font-family="Helvetica,sans-Serif" font-size="10.00">ImGradient::computeColorAt</text>
</a>
</g>
</g>
<!-- Node3&#45;&gt;Node4 -->
<g id="edge3_Node000003_Node000004" class="edge">
<title>Node3&#45;&gt;Node4</title>
<g id="a_edge3_Node000003_Node000004"><a xlink:title=" ">
<path fill="none" stroke="#63b8ff" d="M441.39,-181C449.24,-181 457.35,-181 465.42,-181"/>
<polygon fill="#63b8ff" stroke="#63b8ff" points="465.25,-184.5 475.25,-181 465.25,-177.5 465.25,-184.5"/>
</a>
</g>
</g>
<!-- Node5&#45;&gt;Node6 -->
<g id="edge5_Node000005_Node000006" class="edge">
<title>Node5&#45;&gt;Node6</title>
<g id="a_edge5_Node000005_Node000006"><a xlink:title=" ">
<path fill="none" stroke="#63b8ff" d="M258.39,-113.52C277.71,-109.03 300.46,-103.75 320.84,-99.01"/>
<polygon fill="#63b8ff" stroke="#63b8ff" points="321.45,-102.46 330.4,-96.79 319.87,-95.65 321.45,-102.46"/>
</a>
</g>
</g>
<!-- Node7&#45;&gt;Node6 -->
<g id="edge7_Node000007_Node000006" class="edge">
<title>Node7&#45;&gt;Node6</title>
<g id="a_edge7_Node000007_Node000006"><a xlink:title=" ">
<path fill="none" stroke="#63b8ff" d="M258.39,-58.48C277.71,-62.97 300.46,-68.25 320.84,-72.99"/>
<polygon fill="#63b8ff" stroke="#63b8ff" points="319.87,-76.35 330.4,-75.21 321.45,-69.54 319.87,-76.35"/>
</a>
</g>
</g>
</g>
</svg>
