<?xml version="1.0" encoding="UTF-8" standalone="no"?>
<!DOCTYPE svg PUBLIC "-//W3C//DTD SVG 1.1//EN"
 "http://www.w3.org/Graphics/SVG/1.1/DTD/svg11.dtd">
<!-- Generated by graphviz version 10.0.1 (20240210.2158)
 -->
<!-- Title: GEU::GPUResources::~GPUResources Pages: 1 -->
<svg width="430pt" height="40pt"
 viewBox="0.00 0.00 429.50 40.00" xmlns="http://www.w3.org/2000/svg" xmlns:xlink="http://www.w3.org/1999/xlink">
<g id="graph0" class="graph" transform="scale(1 1) rotate(0) translate(4 36)">
<title>GEU::GPUResources::~GPUResources</title>
<!-- Node1 -->
<g id="Node000001" class="node">
<title>Node1</title>
<g id="a_Node000001"><a xlink:title=" ">
<polygon fill="#999999" stroke="#666666" points="116.5,-32 0,-32 0,0 116.5,0 116.5,-32"/>
<text text-anchor="start" x="8" y="-18.5" font-family="Helvetica,sans-Serif" font-size="10.00">GEU::GPUResources::</text>
<text text-anchor="middle" x="58.25" y="-6.5" font-family="Helvetica,sans-Serif" font-size="10.00">~GPUResources</text>
</a>
</g>
</g>
<!-- Node2 -->
<g id="Node000002" class="node">
<title>Node2</title>
<g id="a_Node000002"><a xlink:href="../../d9/d05/a01665.html#a18c1afd138520510cedf3a5a7709b31b" target="_top" xlink:title=" ">
<polygon fill="white" stroke="#666666" points="269,-32 152.5,-32 152.5,0 269,0 269,-32"/>
<text text-anchor="start" x="160.5" y="-18.5" font-family="Helvetica,sans-Serif" font-size="10.00">GEU::GPUResources::</text>
<text text-anchor="middle" x="210.75" y="-6.5" font-family="Helvetica,sans-Serif" font-size="10.00">clearResources</text>
</a>
</g>
</g>
<!-- Node1&#45;&gt;Node2 -->
<g id="edge1_Node000001_Node000002" class="edge">
<title>Node1&#45;&gt;Node2</title>
<g id="a_edge1_Node000001_Node000002"><a xlink:title=" ">
<path fill="none" stroke="#63b8ff" d="M116.58,-16C124.48,-16 132.67,-16 140.75,-16"/>
<polygon fill="#63b8ff" stroke="#63b8ff" points="140.57,-19.5 150.57,-16 140.57,-12.5 140.57,-19.5"/>
</a>
</g>
</g>
<!-- Node3 -->
<g id="Node000003" class="node">
<title>Node3</title>
<g id="a_Node000003"><a xlink:href="../../d9/d05/a01665.html#ac68e27aa4ccefc5c42bc6a5186a5b292" target="_top" xlink:title=" ">
<polygon fill="white" stroke="#666666" points="421.5,-32 305,-32 305,0 421.5,0 421.5,-32"/>
<text text-anchor="start" x="313" y="-18.5" font-family="Helvetica,sans-Serif" font-size="10.00">GEU::GPUResources::</text>
<text text-anchor="middle" x="363.25" y="-6.5" font-family="Helvetica,sans-Serif" font-size="10.00">clearResource</text>
</a>
</g>
</g>
<!-- Node2&#45;&gt;Node3 -->
<g id="edge2_Node000002_Node000003" class="edge">
<title>Node2&#45;&gt;Node3</title>
<g id="a_edge2_Node000002_Node000003"><a xlink:title=" ">
<path fill="none" stroke="#63b8ff" d="M269.08,-16C276.98,-16 285.17,-16 293.25,-16"/>
<polygon fill="#63b8ff" stroke="#63b8ff" points="293.07,-19.5 303.07,-16 293.07,-12.5 293.07,-19.5"/>
</a>
</g>
</g>
</g>
</svg>
