<?xml version="1.0" encoding="UTF-8" standalone="no"?>
<!DOCTYPE svg PUBLIC "-//W3C//DTD SVG 1.1//EN"
 "http://www.w3.org/Graphics/SVG/1.1/DTD/svg11.dtd">
<!-- Generated by graphviz version 10.0.1 (20240210.2158)
 -->
<!-- Title: GEU::NASSession::getRemoteFileAsFileStream Pages: 1 -->
<svg width="348pt" height="116pt"
 viewBox="0.00 0.00 347.50 116.00" xmlns="http://www.w3.org/2000/svg" xmlns:xlink="http://www.w3.org/1999/xlink">
<g id="graph0" class="graph" transform="scale(1 1) rotate(0) translate(4 112)">
<title>GEU::NASSession::getRemoteFileAsFileStream</title>
<!-- Node1 -->
<g id="Node000001" class="node">
<title>Node1</title>
<g id="a_Node000001"><a xlink:title="Downloads remote file to a string.">
<polygon fill="#999999" stroke="#666666" points="151.75,-64 0,-64 0,-32 151.75,-32 151.75,-64"/>
<text text-anchor="start" x="8" y="-50.5" font-family="Helvetica,sans-Serif" font-size="10.00">GEU::NASSession::getRemote</text>
<text text-anchor="middle" x="75.88" y="-38.5" font-family="Helvetica,sans-Serif" font-size="10.00">FileAsFileStream</text>
</a>
</g>
</g>
<!-- Node2 -->
<g id="Node000002" class="node">
<title>Node2</title>
<g id="a_Node000002"><a xlink:href="../../d1/d01/a02032.html#a47c7e7c2110f4cc59c9ff1f5594c366e" target="_top" xlink:title=" ">
<polygon fill="white" stroke="#666666" points="339.5,-108 187.75,-108 187.75,-76 339.5,-76 339.5,-108"/>
<text text-anchor="start" x="195.75" y="-94.5" font-family="Helvetica,sans-Serif" font-size="10.00">GEU::Singleton&lt; LocaleStrings</text>
<text text-anchor="middle" x="263.62" y="-82.5" font-family="Helvetica,sans-Serif" font-size="10.00"> &gt;::getInstance</text>
</a>
</g>
</g>
<!-- Node1&#45;&gt;Node2 -->
<g id="edge1_Node000001_Node000002" class="edge">
<title>Node1&#45;&gt;Node2</title>
<g id="a_edge1_Node000001_Node000002"><a xlink:title=" ">
<path fill="none" stroke="#63b8ff" d="M146.31,-64.45C157.98,-67.21 170.19,-70.1 182.12,-72.93"/>
<polygon fill="#63b8ff" stroke="#63b8ff" points="180.96,-76.25 191.5,-75.15 182.57,-69.44 180.96,-76.25"/>
</a>
</g>
</g>
<!-- Node3 -->
<g id="Node000003" class="node">
<title>Node3</title>
<g id="a_Node000003"><a xlink:href="../../dc/d02/a02020.html#ac66087ac25e72051ea7b5bf3d00dd71f" target="_top" xlink:title=" ">
<polygon fill="white" stroke="#666666" points="323.75,-58 203.5,-58 203.5,-38 323.75,-38 323.75,-58"/>
<text text-anchor="middle" x="263.62" y="-44.5" font-family="Helvetica,sans-Serif" font-size="10.00">LocaleStrings::getString</text>
</a>
</g>
</g>
<!-- Node1&#45;&gt;Node3 -->
<g id="edge2_Node000001_Node000003" class="edge">
<title>Node1&#45;&gt;Node3</title>
<g id="a_edge2_Node000001_Node000003"><a xlink:title=" ">
<path fill="none" stroke="#63b8ff" d="M152.16,-48C165.3,-48 178.94,-48 191.95,-48"/>
<polygon fill="#63b8ff" stroke="#63b8ff" points="191.69,-51.5 201.69,-48 191.69,-44.5 191.69,-51.5"/>
</a>
</g>
</g>
<!-- Node4 -->
<g id="Node000004" class="node">
<title>Node4</title>
<g id="a_Node000004"><a xlink:href="../../d9/d05/a00633.html#accd100b531b171ee1a63232f9f5916fc" target="_top" xlink:title=" ">
<polygon fill="white" stroke="#666666" points="323.38,-20 203.88,-20 203.88,0 323.38,0 323.38,-20"/>
<text text-anchor="middle" x="263.62" y="-6.5" font-family="Helvetica,sans-Serif" font-size="10.00">ImGui::InsertNotification</text>
</a>
</g>
</g>
<!-- Node1&#45;&gt;Node4 -->
<g id="edge3_Node000001_Node000004" class="edge">
<title>Node1&#45;&gt;Node4</title>
<g id="a_edge3_Node000001_Node000004"><a xlink:title=" ">
<path fill="none" stroke="#63b8ff" d="M152.16,-32.6C168.18,-29.32 184.93,-25.89 200.4,-22.73"/>
<polygon fill="#63b8ff" stroke="#63b8ff" points="200.83,-26.21 209.93,-20.78 199.43,-19.36 200.83,-26.21"/>
</a>
</g>
</g>
</g>
</svg>
