<?xml version="1.0" encoding="UTF-8" standalone="no"?>
<!DOCTYPE svg PUBLIC "-//W3C//DTD SVG 1.1//EN"
 "http://www.w3.org/Graphics/SVG/1.1/DTD/svg11.dtd">
<!-- Generated by graphviz version 10.0.1 (20240210.2158)
 -->
<!-- Title: GEU::InputManager::getApplicationState Pages: 1 -->
<svg width="450pt" height="606pt"
 viewBox="0.00 0.00 449.75 606.00" xmlns="http://www.w3.org/2000/svg" xmlns:xlink="http://www.w3.org/1999/xlink">
<g id="graph0" class="graph" transform="scale(1 1) rotate(0) translate(4 602)">
<title>GEU::InputManager::getApplicationState</title>
<!-- Node1 -->
<g id="Node000001" class="node">
<title>Node1</title>
<g id="a_Node000001"><a xlink:title=" ">
<polygon fill="#999999" stroke="#666666" points="441.75,-330 334.25,-330 334.25,-298 441.75,-298 441.75,-330"/>
<text text-anchor="start" x="342.25" y="-316.5" font-family="Helvetica,sans-Serif" font-size="10.00">GEU::InputManager::</text>
<text text-anchor="middle" x="388" y="-304.5" font-family="Helvetica,sans-Serif" font-size="10.00">getApplicationState</text>
</a>
</g>
</g>
<!-- Node2 -->
<g id="Node000002" class="node">
<title>Node2</title>
<g id="a_Node000002"><a xlink:href="../../de/d06/class_g_e_u_1_1_g_u_i.html#a25741966b2b13947cc190ade25df565b" target="_top" xlink:title="Renders and handles next popup window in queue.">
<polygon fill="white" stroke="#666666" points="294.88,-598 152.88,-598 152.88,-578 294.88,-578 294.88,-598"/>
<text text-anchor="middle" x="223.88" y="-584.5" font-family="Helvetica,sans-Serif" font-size="10.00">GEU::GUI::handleNextPopup</text>
</a>
</g>
</g>
<!-- Node1&#45;&gt;Node2 -->
<g id="edge1_Node000001_Node000002" class="edge">
<title>Node1&#45;&gt;Node2</title>
<g id="a_edge1_Node000001_Node000002"><a xlink:title=" ">
<path fill="none" stroke="#63b8ff" d="M385.61,-341.57C381.44,-393.86 364.79,-507.68 298.25,-569 294.57,-572.39 290.37,-575.19 285.88,-577.5"/>
<polygon fill="#63b8ff" stroke="#63b8ff" points="389.09,-341.97 386.29,-331.75 382.11,-341.48 389.09,-341.97"/>
</a>
</g>
</g>
<!-- Node3 -->
<g id="Node000003" class="node">
<title>Node3</title>
<g id="a_Node000003"><a xlink:href="../../de/d04/class_g_e_u_1_1_application.html#a79b0c21bffd692c1552ebd9e4c90d984" target="_top" xlink:title=" ">
<polygon fill="white" stroke="#666666" points="278.75,-560 169,-560 169,-540 278.75,-540 278.75,-560"/>
<text text-anchor="middle" x="223.88" y="-546.5" font-family="Helvetica,sans-Serif" font-size="10.00">GEU::Application::init</text>
</a>
</g>
</g>
<!-- Node1&#45;&gt;Node3 -->
<g id="edge2_Node000001_Node000003" class="edge">
<title>Node1&#45;&gt;Node3</title>
<g id="a_edge2_Node000001_Node000003"><a xlink:title=" ">
<path fill="none" stroke="#63b8ff" d="M383.66,-341.69C376.57,-387.96 355.66,-480.86 298.25,-531 292.7,-535.85 286.07,-539.48 279.09,-542.21"/>
<polygon fill="#63b8ff" stroke="#63b8ff" points="387.1,-342.35 385.03,-331.96 380.17,-341.37 387.1,-342.35"/>
</a>
</g>
</g>
<!-- Node5 -->
<g id="Node000005" class="node">
<title>Node5</title>
<g id="a_Node000005"><a xlink:href="../../de/d04/class_g_e_u_1_1_application.html#ace52a4bd41f167ea4a62c32afe85d61e" target="_top" xlink:title=" ">
<polygon fill="white" stroke="#666666" points="281.38,-522 166.38,-522 166.38,-502 281.38,-502 281.38,-522"/>
<text text-anchor="middle" x="223.88" y="-508.5" font-family="Helvetica,sans-Serif" font-size="10.00">GEU::Application::loop</text>
</a>
</g>
</g>
<!-- Node1&#45;&gt;Node5 -->
<g id="edge4_Node000001_Node000005" class="edge">
<title>Node1&#45;&gt;Node5</title>
<g id="a_edge4_Node000001_Node000005"><a xlink:title=" ">
<path fill="none" stroke="#63b8ff" d="M380.98,-341.63C370.88,-381.23 346.69,-453.67 298.25,-493 293.35,-496.98 287.7,-500.14 281.77,-502.64"/>
<polygon fill="#63b8ff" stroke="#63b8ff" points="384.37,-342.48 383.31,-331.94 377.57,-340.84 384.37,-342.48"/>
</a>
</g>
</g>
<!-- Node6 -->
<g id="Node000006" class="node">
<title>Node6</title>
<g id="a_Node000006"><a xlink:href="../../d9/d01/class_g_e_u_1_1_picking_window.html#aa79adb8858d14ebc644f9d7ff70e4610" target="_top" xlink:title=" ">
<polygon fill="white" stroke="#666666" points="278.75,-484 169,-484 169,-452 278.75,-452 278.75,-484"/>
<text text-anchor="start" x="177" y="-470.5" font-family="Helvetica,sans-Serif" font-size="10.00">GEU::PickingWindow</text>
<text text-anchor="middle" x="223.88" y="-458.5" font-family="Helvetica,sans-Serif" font-size="10.00">::mouseButtonEvent</text>
</a>
</g>
</g>
<!-- Node1&#45;&gt;Node6 -->
<g id="edge6_Node000001_Node000006" class="edge">
<title>Node1&#45;&gt;Node6</title>
<g id="a_edge6_Node000001_Node000006"><a xlink:title=" ">
<path fill="none" stroke="#63b8ff" d="M375.1,-340.61C360.8,-369.7 334.18,-415.78 298.25,-443 292.46,-447.39 285.84,-451.04 279.01,-454.06"/>
<polygon fill="#63b8ff" stroke="#63b8ff" points="378.18,-342.27 379.31,-331.74 371.86,-339.27 378.18,-342.27"/>
</a>
</g>
</g>
<!-- Node7 -->
<g id="Node000007" class="node">
<title>Node7</title>
<g id="a_Node000007"><a xlink:href="../../d9/d01/class_g_e_u_1_1_picking_window.html#a4598c75b063cc7198e8512d7b2c5acb1" target="_top" xlink:title=" ">
<polygon fill="white" stroke="#666666" points="278.75,-434 169,-434 169,-402 278.75,-402 278.75,-434"/>
<text text-anchor="start" x="177" y="-420.5" font-family="Helvetica,sans-Serif" font-size="10.00">GEU::PickingWindow</text>
<text text-anchor="middle" x="223.88" y="-408.5" font-family="Helvetica,sans-Serif" font-size="10.00">::mouseMoveEvent</text>
</a>
</g>
</g>
<!-- Node1&#45;&gt;Node7 -->
<g id="edge7_Node000001_Node000007" class="edge">
<title>Node1&#45;&gt;Node7</title>
<g id="a_edge7_Node000001_Node000007"><a xlink:title=" ">
<path fill="none" stroke="#63b8ff" d="M364.86,-338.34C348.02,-355.62 323.52,-378.27 298.25,-393 292.2,-396.52 285.59,-399.65 278.88,-402.39"/>
<polygon fill="#63b8ff" stroke="#63b8ff" points="367.06,-341.1 371.43,-331.45 362,-336.27 367.06,-341.1"/>
</a>
</g>
</g>
<!-- Node8 -->
<g id="Node000008" class="node">
<title>Node8</title>
<g id="a_Node000008"><a xlink:href="../../d4/d07/class_g_e_u_1_1_point_cloud.html#ad0d66dab502b16db6ae689d74d0f3fc4" target="_top" xlink:title=" ">
<polygon fill="white" stroke="#666666" points="298.25,-384 149.5,-384 149.5,-364 298.25,-364 298.25,-384"/>
<text text-anchor="middle" x="223.88" y="-370.5" font-family="Helvetica,sans-Serif" font-size="10.00">GEU::PointCloud::pickMeshlet</text>
</a>
</g>
</g>
<!-- Node1&#45;&gt;Node8 -->
<g id="edge8_Node000001_Node000008" class="edge">
<title>Node1&#45;&gt;Node8</title>
<g id="a_edge8_Node000001_Node000008"><a xlink:title=" ">
<path fill="none" stroke="#63b8ff" d="M344.93,-335.31C330.38,-342.18 313.81,-349.44 298.25,-355 289.33,-358.19 279.62,-361.08 270.27,-363.6"/>
<polygon fill="#63b8ff" stroke="#63b8ff" points="346.26,-338.56 353.76,-331.07 343.23,-332.25 346.26,-338.56"/>
</a>
</g>
</g>
<!-- Node9 -->
<g id="Node000009" class="node">
<title>Node9</title>
<g id="a_Node000009"><a xlink:href="../../d4/d07/class_g_e_u_1_1_point_cloud.html#addcd1b3699e287118af2daa2ff7a4bbb" target="_top" xlink:title=" ">
<polygon fill="white" stroke="#666666" points="292.25,-346 155.5,-346 155.5,-326 292.25,-326 292.25,-346"/>
<text text-anchor="middle" x="223.88" y="-332.5" font-family="Helvetica,sans-Serif" font-size="10.00">GEU::PointCloud::pickPoint</text>
</a>
</g>
</g>
<!-- Node1&#45;&gt;Node9 -->
<g id="edge9_Node000001_Node000009" class="edge">
<title>Node1&#45;&gt;Node9</title>
<g id="a_edge9_Node000001_Node000009"><a xlink:title=" ">
<path fill="none" stroke="#63b8ff" d="M322.54,-322.75C312.69,-324.08 302.49,-325.47 292.57,-326.81"/>
<polygon fill="#63b8ff" stroke="#63b8ff" points="322.98,-326.22 332.41,-321.41 322.03,-319.28 322.98,-326.22"/>
</a>
</g>
</g>
<!-- Node10 -->
<g id="Node000010" class="node">
<title>Node10</title>
<g id="a_Node000010"><a xlink:href="../../da/d04/class_g_e_u_1_1_settings_window.html#af66b0c3a7422d7add8d58b73949feea5" target="_top" xlink:title="imgui.ini userdata header read start">
<polygon fill="white" stroke="#666666" points="280.62,-308 167.12,-308 167.12,-276 280.62,-276 280.62,-308"/>
<text text-anchor="start" x="175.12" y="-294.5" font-family="Helvetica,sans-Serif" font-size="10.00">GEU::SettingsWindow</text>
<text text-anchor="middle" x="223.88" y="-282.5" font-family="Helvetica,sans-Serif" font-size="10.00">::readFn</text>
</a>
</g>
</g>
<!-- Node1&#45;&gt;Node10 -->
<g id="edge10_Node000001_Node000010" class="edge">
<title>Node1&#45;&gt;Node10</title>
<g id="a_edge10_Node000001_Node000010"><a xlink:title=" ">
<path fill="none" stroke="#63b8ff" d="M322.53,-305.25C308.75,-303.38 294.3,-301.42 280.87,-299.6"/>
<polygon fill="#63b8ff" stroke="#63b8ff" points="322.03,-308.72 332.41,-306.59 322.98,-301.78 322.03,-308.72"/>
</a>
</g>
</g>
<!-- Node12 -->
<g id="Node000012" class="node">
<title>Node12</title>
<g id="a_Node000012"><a xlink:href="../../de/d06/class_g_e_u_1_1_g_u_i.html#af7ebc89aa431e3a9e86bb1424b819d47" target="_top" xlink:title="Draws ImGUI elements.">
<polygon fill="white" stroke="#666666" points="270.12,-258 177.62,-258 177.62,-238 270.12,-238 270.12,-258"/>
<text text-anchor="middle" x="223.88" y="-244.5" font-family="Helvetica,sans-Serif" font-size="10.00">GEU::GUI::render</text>
</a>
</g>
</g>
<!-- Node1&#45;&gt;Node12 -->
<g id="edge12_Node000001_Node000012" class="edge">
<title>Node1&#45;&gt;Node12</title>
<g id="a_edge12_Node000001_Node000012"><a xlink:title=" ">
<path fill="none" stroke="#63b8ff" d="M350.39,-292.13C334.72,-283.43 315.98,-273.88 298.25,-267 289.42,-263.57 279.75,-260.57 270.41,-258.02"/>
<polygon fill="#63b8ff" stroke="#63b8ff" points="348.45,-295.06 358.88,-296.94 351.9,-288.97 348.45,-295.06"/>
</a>
</g>
</g>
<!-- Node13 -->
<g id="Node000013" class="node">
<title>Node13</title>
<g id="a_Node000013"><a xlink:href="../../d9/d01/class_g_e_u_1_1_picking_window.html#a56f55b34996a68d41418a2df8ea008db" target="_top" xlink:title="Renders the window and contents.">
<polygon fill="white" stroke="#666666" points="278.75,-220 169,-220 169,-188 278.75,-188 278.75,-220"/>
<text text-anchor="start" x="177" y="-206.5" font-family="Helvetica,sans-Serif" font-size="10.00">GEU::PickingWindow</text>
<text text-anchor="middle" x="223.88" y="-194.5" font-family="Helvetica,sans-Serif" font-size="10.00">::renderWindow</text>
</a>
</g>
</g>
<!-- Node1&#45;&gt;Node13 -->
<g id="edge13_Node000001_Node000013" class="edge">
<title>Node1&#45;&gt;Node13</title>
<g id="a_edge13_Node000001_Node000013"><a xlink:title=" ">
<path fill="none" stroke="#63b8ff" d="M366.4,-289.07C349.73,-270.28 324.73,-245.09 298.25,-229 292.27,-225.37 285.69,-222.18 279.01,-219.4"/>
<polygon fill="#63b8ff" stroke="#63b8ff" points="363.71,-291.3 372.9,-296.57 369,-286.72 363.71,-291.3"/>
</a>
</g>
</g>
<!-- Node14 -->
<g id="Node000014" class="node">
<title>Node14</title>
<g id="a_Node000014"><a xlink:href="../../da/d04/class_g_e_u_1_1_settings_window.html#a7af9db6d6ad56c4c4fc336251024472f" target="_top" xlink:title="Renders the window and contents.">
<polygon fill="white" stroke="#666666" points="280.62,-170 167.12,-170 167.12,-138 280.62,-138 280.62,-170"/>
<text text-anchor="start" x="175.12" y="-156.5" font-family="Helvetica,sans-Serif" font-size="10.00">GEU::SettingsWindow</text>
<text text-anchor="middle" x="223.88" y="-144.5" font-family="Helvetica,sans-Serif" font-size="10.00">::renderWindow</text>
</a>
</g>
</g>
<!-- Node1&#45;&gt;Node14 -->
<g id="edge14_Node000001_Node000014" class="edge">
<title>Node1&#45;&gt;Node14</title>
<g id="a_edge14_Node000001_Node000014"><a xlink:title=" ">
<path fill="none" stroke="#63b8ff" d="M376.04,-287.51C362.19,-257.16 335.58,-207.9 298.25,-179 293.04,-174.96 287.13,-171.56 280.99,-168.68"/>
<polygon fill="#63b8ff" stroke="#63b8ff" points="372.71,-288.64 379.95,-296.38 379.12,-285.82 372.71,-288.64"/>
</a>
</g>
</g>
<!-- Node15 -->
<g id="Node000015" class="node">
<title>Node15</title>
<g id="a_Node000015"><a xlink:href="../../d9/d01/class_g_e_u_1_1_picking_window.html#a68d06c7f59e73da0e86399b6796bad01" target="_top" xlink:title=" ">
<polygon fill="white" stroke="#666666" points="278.75,-120 169,-120 169,-88 278.75,-88 278.75,-120"/>
<text text-anchor="start" x="177" y="-106.5" font-family="Helvetica,sans-Serif" font-size="10.00">GEU::PickingWindow</text>
<text text-anchor="middle" x="223.88" y="-94.5" font-family="Helvetica,sans-Serif" font-size="10.00">::resetPicking</text>
</a>
</g>
</g>
<!-- Node1&#45;&gt;Node15 -->
<g id="edge15_Node000001_Node000015" class="edge">
<title>Node1&#45;&gt;Node15</title>
<g id="a_edge15_Node000001_Node000015"><a xlink:title=" ">
<path fill="none" stroke="#63b8ff" d="M380.98,-286.51C370.8,-246.34 346.4,-171.74 298.25,-129 292.61,-124 285.93,-119.99 278.93,-116.77"/>
<polygon fill="#63b8ff" stroke="#63b8ff" points="377.55,-287.19 383.29,-296.1 384.35,-285.56 377.55,-287.19"/>
</a>
</g>
</g>
<!-- Node16 -->
<g id="Node000016" class="node">
<title>Node16</title>
<g id="a_Node000016"><a xlink:href="../../de/d06/class_g_e_u_1_1_g_u_i.html#ad6b6b3fd7a0e1413c7e15d5cdab4b871" target="_top" xlink:title=" ">
<polygon fill="white" stroke="#666666" points="283.62,-70 164.12,-70 164.12,-50 283.62,-50 283.62,-70"/>
<text text-anchor="middle" x="223.88" y="-56.5" font-family="Helvetica,sans-Serif" font-size="10.00">GEU::GUI::resetPicking</text>
</a>
</g>
</g>
<!-- Node1&#45;&gt;Node16 -->
<g id="edge16_Node000001_Node000016" class="edge">
<title>Node1&#45;&gt;Node16</title>
<g id="a_edge16_Node000001_Node000016"><a xlink:title=" ">
<path fill="none" stroke="#63b8ff" d="M384.67,-286.52C379,-237.39 360.03,-134.46 298.25,-79 294.04,-75.22 289.17,-72.17 283.99,-69.72"/>
<polygon fill="#63b8ff" stroke="#63b8ff" points="381.17,-286.7 385.69,-296.28 388.14,-285.97 381.17,-286.7"/>
</a>
</g>
</g>
<!-- Node17 -->
<g id="Node000017" class="node">
<title>Node17</title>
<g id="a_Node000017"><a xlink:href="../../da/d04/class_g_e_u_1_1_settings_window.html#ab715922065c19d5071d9f67f1ec5bfb4" target="_top" xlink:title="imgui.ini userdata writer function">
<polygon fill="white" stroke="#666666" points="280.62,-32 167.12,-32 167.12,0 280.62,0 280.62,-32"/>
<text text-anchor="start" x="175.12" y="-18.5" font-family="Helvetica,sans-Serif" font-size="10.00">GEU::SettingsWindow</text>
<text text-anchor="middle" x="223.88" y="-6.5" font-family="Helvetica,sans-Serif" font-size="10.00">::writeFn</text>
</a>
</g>
</g>
<!-- Node1&#45;&gt;Node17 -->
<g id="edge17_Node000001_Node000017" class="edge">
<title>Node1&#45;&gt;Node17</title>
<g id="a_edge17_Node000001_Node000017"><a xlink:title=" ">
<path fill="none" stroke="#63b8ff" d="M385.87,-286.14C382.16,-231.58 366.26,-109.97 298.25,-41 293.34,-36.02 287.39,-32.03 281.04,-28.83"/>
<polygon fill="#63b8ff" stroke="#63b8ff" points="382.38,-286.32 386.45,-296.1 389.36,-285.91 382.38,-286.32"/>
</a>
</g>
</g>
<!-- Node4 -->
<g id="Node000004" class="node">
<title>Node4</title>
<g id="a_Node000004"><a xlink:href="../../df/d02/main_8cpp.html#a3c04138a5bfe5d72780bb7e82a18e627" target="_top" xlink:title=" ">
<polygon fill="white" stroke="#666666" points="75.25,-541 38.25,-541 38.25,-521 75.25,-521 75.25,-541"/>
<text text-anchor="middle" x="56.75" y="-527.5" font-family="Helvetica,sans-Serif" font-size="10.00">main</text>
</a>
</g>
</g>
<!-- Node3&#45;&gt;Node4 -->
<g id="edge3_Node000003_Node000004" class="edge">
<title>Node3&#45;&gt;Node4</title>
<g id="a_edge3_Node000003_Node000004"><a xlink:title=" ">
<path fill="none" stroke="#63b8ff" d="M157.66,-542.5C128.07,-539.09 95.38,-535.33 75.71,-533.07"/>
<polygon fill="#63b8ff" stroke="#63b8ff" points="156.97,-545.94 167.3,-543.61 157.77,-538.99 156.97,-545.94"/>
</a>
</g>
</g>
<!-- Node5&#45;&gt;Node4 -->
<g id="edge5_Node000005_Node000004" class="edge">
<title>Node5&#45;&gt;Node4</title>
<g id="a_edge5_Node000005_Node000004"><a xlink:title=" ">
<path fill="none" stroke="#63b8ff" d="M154.7,-519.84C125.79,-523.17 94.46,-526.78 75.47,-528.96"/>
<polygon fill="#63b8ff" stroke="#63b8ff" points="155.01,-523.33 164.54,-518.71 154.21,-516.38 155.01,-523.33"/>
</a>
</g>
</g>
<!-- Node11 -->
<g id="Node000011" class="node">
<title>Node11</title>
<g id="a_Node000011"><a xlink:href="../../da/d04/class_g_e_u_1_1_settings_window.html#ae1442302648ca9774e30fe6ba0456548" target="_top" xlink:title=" ">
<polygon fill="white" stroke="#666666" points="113.5,-170 0,-170 0,-138 113.5,-138 113.5,-170"/>
<text text-anchor="start" x="8" y="-156.5" font-family="Helvetica,sans-Serif" font-size="10.00">GEU::SettingsWindow</text>
<text text-anchor="middle" x="56.75" y="-144.5" font-family="Helvetica,sans-Serif" font-size="10.00">::SettingsWindow</text>
</a>
</g>
</g>
<!-- Node10&#45;&gt;Node11 -->
<g id="edge11_Node000010_Node000011" class="edge">
<title>Node10&#45;&gt;Node11</title>
<g id="a_edge11_Node000010_Node000011"><a xlink:title=" ">
<path fill="none" stroke="#63b8ff" d="M156.76,-271.56C154.25,-270.13 151.82,-268.62 149.5,-267 111.77,-240.71 81.31,-194.68 66.86,-170.28"/>
<polygon fill="#63b8ff" stroke="#63b8ff" points="154.91,-274.55 165.42,-275.94 158.07,-268.3 154.91,-274.55"/>
</a>
</g>
</g>
<!-- Node17&#45;&gt;Node11 -->
<g id="edge18_Node000017_Node000011" class="edge">
<title>Node17&#45;&gt;Node11</title>
<g id="a_edge18_Node000017_Node000011"><a xlink:title=" ">
<path fill="none" stroke="#63b8ff" d="M156.76,-36.44C154.25,-37.87 151.82,-39.38 149.5,-41 111.77,-67.29 81.31,-113.32 66.86,-137.72"/>
<polygon fill="#63b8ff" stroke="#63b8ff" points="158.07,-39.7 165.42,-32.06 154.91,-33.45 158.07,-39.7"/>
</a>
</g>
</g>
</g>
</svg>
