<?xml version="1.0" encoding="UTF-8" standalone="no"?>
<!DOCTYPE svg PUBLIC "-//W3C//DTD SVG 1.1//EN"
 "http://www.w3.org/Graphics/SVG/1.1/DTD/svg11.dtd">
<!-- Generated by graphviz version 10.0.1 (20240210.2158)
 -->
<!-- Title: GEU::InputManager::mouseCursorCallback Pages: 1 -->
<svg width="434pt" height="306pt"
 viewBox="0.00 0.00 434.00 306.00" xmlns="http://www.w3.org/2000/svg" xmlns:xlink="http://www.w3.org/1999/xlink">
<g id="graph0" class="graph" transform="scale(1 1) rotate(0) translate(4 302)">
<title>GEU::InputManager::mouseCursorCallback</title>
<!-- Node1 -->
<g id="Node000001" class="node">
<title>Node1</title>
<g id="a_Node000001"><a xlink:title=" ">
<polygon fill="#999999" stroke="#666666" points="111.25,-159 0,-159 0,-127 111.25,-127 111.25,-159"/>
<text text-anchor="start" x="8" y="-145.5" font-family="Helvetica,sans-Serif" font-size="10.00">GEU::InputManager::</text>
<text text-anchor="middle" x="55.62" y="-133.5" font-family="Helvetica,sans-Serif" font-size="10.00">mouseCursorCallback</text>
</a>
</g>
</g>
<!-- Node2 -->
<g id="Node000002" class="node">
<title>Node2</title>
<g id="a_Node000002"><a xlink:href="../../d9/d05/class_g_e_u_1_1_input_manager.html#a9d27150ccccbfe0d72c6e54a053de886" target="_top" xlink:title=" ">
<polygon fill="white" stroke="#666666" points="254.75,-159 147.25,-159 147.25,-127 254.75,-127 254.75,-159"/>
<text text-anchor="start" x="155.25" y="-145.5" font-family="Helvetica,sans-Serif" font-size="10.00">GEU::InputManager::</text>
<text text-anchor="middle" x="201" y="-133.5" font-family="Helvetica,sans-Serif" font-size="10.00">mouseMovement</text>
</a>
</g>
</g>
<!-- Node1&#45;&gt;Node2 -->
<g id="edge1_Node000001_Node000002" class="edge">
<title>Node1&#45;&gt;Node2</title>
<g id="a_edge1_Node000001_Node000002"><a xlink:title=" ">
<path fill="none" stroke="#63b8ff" d="M111.65,-143C119.39,-143 127.42,-143 135.32,-143"/>
<polygon fill="#63b8ff" stroke="#63b8ff" points="135.26,-146.5 145.26,-143 135.26,-139.5 135.26,-146.5"/>
</a>
</g>
</g>
<!-- Node3 -->
<g id="Node000003" class="node">
<title>Node3</title>
<g id="a_Node000003"><a xlink:href="../../dd/d04/class_g_e_u_1_1_camera.html#a3d018ff85d4d30cc3eb2ab5f995d9630" target="_top" xlink:title=" ">
<polygon fill="white" stroke="#666666" points="411.75,-298 305,-298 305,-278 411.75,-278 411.75,-298"/>
<text text-anchor="middle" x="358.38" y="-284.5" font-family="Helvetica,sans-Serif" font-size="10.00">GEU::Camera::boom</text>
</a>
</g>
</g>
<!-- Node2&#45;&gt;Node3 -->
<g id="edge2_Node000002_Node000003" class="edge">
<title>Node2&#45;&gt;Node3</title>
<g id="a_edge2_Node000002_Node000003"><a xlink:title=" ">
<path fill="none" stroke="#63b8ff" d="M208.98,-159.21C221.4,-186.15 249.95,-240.03 290.75,-269 292.55,-270.28 294.44,-271.47 296.39,-272.59"/>
<polygon fill="#63b8ff" stroke="#63b8ff" points="294.68,-275.65 305.2,-276.86 297.73,-269.35 294.68,-275.65"/>
</a>
</g>
</g>
<!-- Node4 -->
<g id="Node000004" class="node">
<title>Node4</title>
<g id="a_Node000004"><a xlink:href="../../de/d04/class_g_e_u_1_1_renderer.html#aab42a61060bb126a7f7eff0417abe72a" target="_top" xlink:title=" ">
<polygon fill="white" stroke="#666666" points="426,-260 290.75,-260 290.75,-240 426,-240 426,-260"/>
<text text-anchor="middle" x="358.38" y="-246.5" font-family="Helvetica,sans-Serif" font-size="10.00">GEU::Renderer::getCamera</text>
</a>
</g>
</g>
<!-- Node2&#45;&gt;Node4 -->
<g id="edge3_Node000002_Node000004" class="edge">
<title>Node2&#45;&gt;Node4</title>
<g id="a_edge3_Node000002_Node000004"><a xlink:title=" ">
<path fill="none" stroke="#63b8ff" d="M214.26,-159.46C229.89,-179.29 258.73,-212.26 290.75,-231 293.38,-232.54 296.15,-233.96 299,-235.28"/>
<polygon fill="#63b8ff" stroke="#63b8ff" points="297.58,-238.48 308.16,-238.99 300.21,-231.99 297.58,-238.48"/>
</a>
</g>
</g>
<!-- Node5 -->
<g id="Node000005" class="node">
<title>Node5</title>
<g id="a_Node000005"><a xlink:href="../../d1/d01/class_g_e_u_1_1_singleton.html#a47c7e7c2110f4cc59c9ff1f5594c366e" target="_top" xlink:title=" ">
<polygon fill="white" stroke="#666666" points="424.12,-222 292.62,-222 292.62,-190 424.12,-190 424.12,-222"/>
<text text-anchor="start" x="300.62" y="-208.5" font-family="Helvetica,sans-Serif" font-size="10.00">GEU::Singleton&lt; Renderer</text>
<text text-anchor="middle" x="358.38" y="-196.5" font-family="Helvetica,sans-Serif" font-size="10.00"> &gt;::getInstance</text>
</a>
</g>
</g>
<!-- Node2&#45;&gt;Node5 -->
<g id="edge4_Node000002_Node000005" class="edge">
<title>Node2&#45;&gt;Node5</title>
<g id="a_edge4_Node000002_Node000005"><a xlink:title=" ">
<path fill="none" stroke="#63b8ff" d="M239.41,-159.47C255.19,-166.29 273.8,-174.19 290.75,-181 294.53,-182.52 298.43,-184.06 302.38,-185.59"/>
<polygon fill="#63b8ff" stroke="#63b8ff" points="300.82,-188.74 311.41,-189.06 303.34,-182.21 300.82,-188.74"/>
</a>
</g>
</g>
<!-- Node6 -->
<g id="Node000006" class="node">
<title>Node6</title>
<g id="a_Node000006"><a xlink:href="../../dd/d04/class_g_e_u_1_1_camera.html#aeb635da2341a0665bcc77e3a6a18dfa3" target="_top" xlink:title=" ">
<polygon fill="white" stroke="#666666" points="414.38,-172 302.38,-172 302.38,-152 414.38,-152 414.38,-172"/>
<text text-anchor="middle" x="358.38" y="-158.5" font-family="Helvetica,sans-Serif" font-size="10.00">GEU::Camera::orbitXZ</text>
</a>
</g>
</g>
<!-- Node2&#45;&gt;Node6 -->
<g id="edge5_Node000002_Node000006" class="edge">
<title>Node2&#45;&gt;Node6</title>
<g id="a_edge5_Node000002_Node000006"><a xlink:title=" ">
<path fill="none" stroke="#63b8ff" d="M255.04,-149.49C266.5,-150.89 278.75,-152.39 290.66,-153.84"/>
<polygon fill="#63b8ff" stroke="#63b8ff" points="290.08,-157.3 300.43,-155.04 290.93,-150.35 290.08,-157.3"/>
</a>
</g>
</g>
<!-- Node7 -->
<g id="Node000007" class="node">
<title>Node7</title>
<g id="a_Node000007"><a xlink:href="../../dd/d04/class_g_e_u_1_1_camera.html#adcb84236ed659a0a01ff9d146c10af8a" target="_top" xlink:title=" ">
<polygon fill="white" stroke="#666666" points="412.5,-134 304.25,-134 304.25,-114 412.5,-114 412.5,-134"/>
<text text-anchor="middle" x="358.38" y="-120.5" font-family="Helvetica,sans-Serif" font-size="10.00">GEU::Camera::orbitY</text>
</a>
</g>
</g>
<!-- Node2&#45;&gt;Node7 -->
<g id="edge6_Node000002_Node000007" class="edge">
<title>Node2&#45;&gt;Node7</title>
<g id="a_edge6_Node000002_Node000007"><a xlink:title=" ">
<path fill="none" stroke="#63b8ff" d="M255.04,-136.51C267.08,-135.04 280.02,-133.46 292.49,-131.93"/>
<polygon fill="#63b8ff" stroke="#63b8ff" points="292.78,-135.42 302.28,-130.74 291.93,-128.48 292.78,-135.42"/>
</a>
</g>
</g>
<!-- Node8 -->
<g id="Node000008" class="node">
<title>Node8</title>
<g id="a_Node000008"><a xlink:href="../../dd/d04/class_g_e_u_1_1_camera.html#a85cbd1db438eee7b53e63c98910dce6c" target="_top" xlink:title=" ">
<polygon fill="white" stroke="#666666" points="407.62,-96 309.12,-96 309.12,-76 407.62,-76 407.62,-96"/>
<text text-anchor="middle" x="358.38" y="-82.5" font-family="Helvetica,sans-Serif" font-size="10.00">GEU::Camera::pan</text>
</a>
</g>
</g>
<!-- Node2&#45;&gt;Node8 -->
<g id="edge7_Node000002_Node000008" class="edge">
<title>Node2&#45;&gt;Node8</title>
<g id="a_edge7_Node000002_Node000008"><a xlink:title=" ">
<path fill="none" stroke="#63b8ff" d="M237.43,-126.61C253.52,-119.48 272.9,-111.34 290.75,-105 295.86,-103.18 301.25,-101.42 306.64,-99.74"/>
<polygon fill="#63b8ff" stroke="#63b8ff" points="307.63,-103.1 316.21,-96.87 305.62,-96.39 307.63,-103.1"/>
</a>
</g>
</g>
<!-- Node9 -->
<g id="Node000009" class="node">
<title>Node9</title>
<g id="a_Node000009"><a xlink:href="../../dd/d04/class_g_e_u_1_1_camera.html#aa3dcf376210deb9856bb5ebcf2d420d0" target="_top" xlink:title=" ">
<polygon fill="white" stroke="#666666" points="405,-58 311.75,-58 311.75,-38 405,-38 405,-58"/>
<text text-anchor="middle" x="358.38" y="-44.5" font-family="Helvetica,sans-Serif" font-size="10.00">GEU::Camera::tilt</text>
</a>
</g>
</g>
<!-- Node2&#45;&gt;Node9 -->
<g id="edge8_Node000002_Node000009" class="edge">
<title>Node2&#45;&gt;Node9</title>
<g id="a_edge8_Node000002_Node000009"><a xlink:title=" ">
<path fill="none" stroke="#63b8ff" d="M216.79,-126.71C233.26,-109.51 261.44,-82.74 290.75,-67 293.98,-65.26 297.39,-63.67 300.88,-62.21"/>
<polygon fill="#63b8ff" stroke="#63b8ff" points="301.98,-65.54 310.13,-58.76 299.54,-58.98 301.98,-65.54"/>
</a>
</g>
</g>
<!-- Node10 -->
<g id="Node000010" class="node">
<title>Node10</title>
<g id="a_Node000010"><a xlink:href="../../dd/d04/class_g_e_u_1_1_camera.html#a1fd7c9e61fb63f0e7ab4571113e43612" target="_top" xlink:title=" ">
<polygon fill="white" stroke="#666666" points="410.62,-20 306.12,-20 306.12,0 410.62,0 410.62,-20"/>
<text text-anchor="middle" x="358.38" y="-6.5" font-family="Helvetica,sans-Serif" font-size="10.00">GEU::Camera::truck</text>
</a>
</g>
</g>
<!-- Node2&#45;&gt;Node10 -->
<g id="edge9_Node000002_Node000010" class="edge">
<title>Node2&#45;&gt;Node10</title>
<g id="a_edge9_Node000002_Node000010"><a xlink:title=" ">
<path fill="none" stroke="#63b8ff" d="M210.25,-126.74C223.7,-101.9 252.7,-54.67 290.75,-29 292.74,-27.66 294.82,-26.41 296.97,-25.25"/>
<polygon fill="#63b8ff" stroke="#63b8ff" points="298.42,-28.44 306.04,-21.07 295.49,-22.08 298.42,-28.44"/>
</a>
</g>
</g>
</g>
</svg>
