<?xml version="1.0" encoding="UTF-8" standalone="no"?>
<!DOCTYPE svg PUBLIC "-//W3C//DTD SVG 1.1//EN"
 "http://www.w3.org/Graphics/SVG/1.1/DTD/svg11.dtd">
<!-- Generated by graphviz version 10.0.1 (20240210.2158)
 -->
<!-- Title: GEU::InputManager::keyCallback Pages: 1 -->
<svg width="471pt" height="306pt"
 viewBox="0.00 0.00 470.75 306.00" xmlns="http://www.w3.org/2000/svg" xmlns:xlink="http://www.w3.org/1999/xlink">
<g id="graph0" class="graph" transform="scale(1 1) rotate(0) translate(4 302)">
<title>GEU::InputManager::keyCallback</title>
<!-- Node1 -->
<g id="Node000001" class="node">
<title>Node1</title>
<g id="a_Node000001"><a xlink:title=" ">
<polygon fill="#999999" stroke="#666666" points="107.5,-178 0,-178 0,-146 107.5,-146 107.5,-178"/>
<text text-anchor="start" x="8" y="-164.5" font-family="Helvetica,sans-Serif" font-size="10.00">GEU::InputManager::</text>
<text text-anchor="middle" x="53.75" y="-152.5" font-family="Helvetica,sans-Serif" font-size="10.00">keyCallback</text>
</a>
</g>
</g>
<!-- Node2 -->
<g id="Node000002" class="node">
<title>Node2</title>
<g id="a_Node000002"><a xlink:href="../../d1/d01/class_g_e_u_1_1_singleton.html#a47c7e7c2110f4cc59c9ff1f5594c366e" target="_top" xlink:title=" ">
<polygon fill="white" stroke="#666666" points="462.75,-298 311.75,-298 311.75,-266 462.75,-266 462.75,-298"/>
<text text-anchor="start" x="319.75" y="-284.5" font-family="Helvetica,sans-Serif" font-size="10.00">GEU::Singleton&lt; InputManager</text>
<text text-anchor="middle" x="387.25" y="-272.5" font-family="Helvetica,sans-Serif" font-size="10.00"> &gt;::getInstance</text>
</a>
</g>
</g>
<!-- Node1&#45;&gt;Node2 -->
<g id="edge1_Node000001_Node000002" class="edge">
<title>Node1&#45;&gt;Node2</title>
<g id="a_edge1_Node000001_Node000002"><a xlink:title=" ">
<path fill="none" stroke="#63b8ff" d="M97.8,-178.37C148.73,-197.63 236.16,-230.35 311.75,-257 316.36,-258.63 321.14,-260.29 325.96,-261.94"/>
<polygon fill="#63b8ff" stroke="#63b8ff" points="324.46,-265.13 335.05,-265.04 326.72,-258.5 324.46,-265.13"/>
</a>
</g>
</g>
<!-- Node3 -->
<g id="Node000003" class="node">
<title>Node3</title>
<g id="a_Node000003"><a xlink:href="../../d9/d05/class_g_e_u_1_1_input_manager.html#a900ad1b7091126235ffafa69c15651cd" target="_top" xlink:title=" ">
<polygon fill="white" stroke="#666666" points="273.5,-178 145.75,-178 145.75,-146 273.5,-146 273.5,-178"/>
<text text-anchor="start" x="153.75" y="-164.5" font-family="Helvetica,sans-Serif" font-size="10.00">GEU::InputManager::</text>
<text text-anchor="middle" x="209.62" y="-152.5" font-family="Helvetica,sans-Serif" font-size="10.00">processPressedKeyEvent</text>
</a>
</g>
</g>
<!-- Node1&#45;&gt;Node3 -->
<g id="edge2_Node000001_Node000003" class="edge">
<title>Node1&#45;&gt;Node3</title>
<g id="a_edge2_Node000001_Node000003"><a xlink:title=" ">
<path fill="none" stroke="#63b8ff" d="M107.71,-162C116.26,-162 125.26,-162 134.21,-162"/>
<polygon fill="#63b8ff" stroke="#63b8ff" points="133.98,-165.5 143.98,-162 133.98,-158.5 133.98,-165.5"/>
</a>
</g>
</g>
<!-- Node11 -->
<g id="Node000011" class="node">
<title>Node11</title>
<g id="a_Node000011"><a xlink:href="../../d9/d05/class_g_e_u_1_1_input_manager.html#a57386b36124a6783004d467dbfdf0b74" target="_top" xlink:title=" ">
<polygon fill="white" stroke="#666666" points="275.75,-128 143.5,-128 143.5,-96 275.75,-96 275.75,-128"/>
<text text-anchor="start" x="151.5" y="-114.5" font-family="Helvetica,sans-Serif" font-size="10.00">GEU::InputManager::</text>
<text text-anchor="middle" x="209.62" y="-102.5" font-family="Helvetica,sans-Serif" font-size="10.00">processReleasedKeyEvent</text>
</a>
</g>
</g>
<!-- Node1&#45;&gt;Node11 -->
<g id="edge11_Node000001_Node000011" class="edge">
<title>Node1&#45;&gt;Node11</title>
<g id="a_edge11_Node000001_Node000011"><a xlink:title=" ">
<path fill="none" stroke="#63b8ff" d="M105.13,-145.63C118.48,-141.29 133.05,-136.56 146.92,-132.05"/>
<polygon fill="#63b8ff" stroke="#63b8ff" points="148,-135.38 156.42,-128.96 145.83,-128.72 148,-135.38"/>
</a>
</g>
</g>
<!-- Node3&#45;&gt;Node2 -->
<g id="edge7_Node000003_Node000002" class="edge">
<title>Node3&#45;&gt;Node2</title>
<g id="a_edge7_Node000003_Node000002"><a xlink:title=" ">
<path fill="none" stroke="#63b8ff" d="M226.37,-178.4C249.76,-202.48 292.94,-245.75 311.75,-257 314.02,-258.36 316.38,-259.66 318.79,-260.89"/>
<polygon fill="#63b8ff" stroke="#63b8ff" points="317.06,-263.95 327.6,-264.99 320.02,-257.6 317.06,-263.95"/>
</a>
</g>
</g>
<!-- Node4 -->
<g id="Node000004" class="node">
<title>Node4</title>
<g id="a_Node000004"><a xlink:href="../../dd/d04/class_g_e_u_1_1_camera.html#a3d018ff85d4d30cc3eb2ab5f995d9630" target="_top" xlink:title=" ">
<polygon fill="white" stroke="#666666" points="440.62,-248 333.88,-248 333.88,-228 440.62,-228 440.62,-248"/>
<text text-anchor="middle" x="387.25" y="-234.5" font-family="Helvetica,sans-Serif" font-size="10.00">GEU::Camera::boom</text>
</a>
</g>
</g>
<!-- Node3&#45;&gt;Node4 -->
<g id="edge3_Node000003_Node000004" class="edge">
<title>Node3&#45;&gt;Node4</title>
<g id="a_edge3_Node000003_Node000004"><a xlink:title=" ">
<path fill="none" stroke="#63b8ff" d="M235.47,-178.46C255.39,-191.05 284.44,-208.05 311.75,-219 316.6,-220.95 321.72,-222.74 326.9,-224.39"/>
<polygon fill="#63b8ff" stroke="#63b8ff" points="325.53,-227.63 336.11,-227.13 327.52,-220.92 325.53,-227.63"/>
</a>
</g>
</g>
<!-- Node5 -->
<g id="Node000005" class="node">
<title>Node5</title>
<g id="a_Node000005"><a xlink:href="../../dd/d04/class_g_e_u_1_1_camera.html#a723f3075e261eb3bcc10739235903e9c" target="_top" xlink:title=" ">
<polygon fill="white" stroke="#666666" points="440.62,-210 333.88,-210 333.88,-190 440.62,-190 440.62,-210"/>
<text text-anchor="middle" x="387.25" y="-196.5" font-family="Helvetica,sans-Serif" font-size="10.00">GEU::Camera::crane</text>
</a>
</g>
</g>
<!-- Node3&#45;&gt;Node5 -->
<g id="edge4_Node000003_Node000005" class="edge">
<title>Node3&#45;&gt;Node5</title>
<g id="a_edge4_Node000003_Node000005"><a xlink:title=" ">
<path fill="none" stroke="#63b8ff" d="M273.53,-175.61C290.89,-179.37 309.67,-183.43 326.82,-187.14"/>
<polygon fill="#63b8ff" stroke="#63b8ff" points="325.84,-190.51 336.35,-189.2 327.32,-183.67 325.84,-190.51"/>
</a>
</g>
</g>
<!-- Node6 -->
<g id="Node000006" class="node">
<title>Node6</title>
<g id="a_Node000006"><a xlink:href="../../dd/d04/class_g_e_u_1_1_camera.html#adbcddad15d0634fd9623e97506a6102b" target="_top" xlink:title=" ">
<polygon fill="white" stroke="#666666" points="438.75,-172 335.75,-172 335.75,-152 438.75,-152 438.75,-172"/>
<text text-anchor="middle" x="387.25" y="-158.5" font-family="Helvetica,sans-Serif" font-size="10.00">GEU::Camera::dolly</text>
</a>
</g>
</g>
<!-- Node3&#45;&gt;Node6 -->
<g id="edge5_Node000003_Node000006" class="edge">
<title>Node3&#45;&gt;Node6</title>
<g id="a_edge5_Node000003_Node000006"><a xlink:title=" ">
<path fill="none" stroke="#63b8ff" d="M273.53,-162C290.01,-162 307.76,-162 324.19,-162"/>
<polygon fill="#63b8ff" stroke="#63b8ff" points="323.8,-165.5 333.8,-162 323.8,-158.5 323.8,-165.5"/>
</a>
</g>
</g>
<!-- Node7 -->
<g id="Node000007" class="node">
<title>Node7</title>
<g id="a_Node000007"><a xlink:href="../../de/d04/class_g_e_u_1_1_renderer.html#aab42a61060bb126a7f7eff0417abe72a" target="_top" xlink:title=" ">
<polygon fill="white" stroke="#666666" points="454.88,-134 319.62,-134 319.62,-114 454.88,-114 454.88,-134"/>
<text text-anchor="middle" x="387.25" y="-120.5" font-family="Helvetica,sans-Serif" font-size="10.00">GEU::Renderer::getCamera</text>
</a>
</g>
</g>
<!-- Node3&#45;&gt;Node7 -->
<g id="edge6_Node000003_Node000007" class="edge">
<title>Node3&#45;&gt;Node7</title>
<g id="a_edge6_Node000003_Node000007"><a xlink:title=" ">
<path fill="none" stroke="#63b8ff" d="M273.53,-148.39C290.89,-144.63 309.67,-140.57 326.82,-136.86"/>
<polygon fill="#63b8ff" stroke="#63b8ff" points="327.32,-140.33 336.35,-134.8 325.84,-133.49 327.32,-140.33"/>
</a>
</g>
</g>
<!-- Node8 -->
<g id="Node000008" class="node">
<title>Node8</title>
<g id="a_Node000008"><a xlink:href="../../dd/d04/class_g_e_u_1_1_camera.html#a1584bc2d149c6fdf987c08e476e9b662" target="_top" xlink:title=" ">
<polygon fill="white" stroke="#666666" points="439.5,-96 335,-96 335,-76 439.5,-76 439.5,-96"/>
<text text-anchor="middle" x="387.25" y="-82.5" font-family="Helvetica,sans-Serif" font-size="10.00">GEU::Camera::reset</text>
</a>
</g>
</g>
<!-- Node3&#45;&gt;Node8 -->
<g id="edge8_Node000003_Node000008" class="edge">
<title>Node3&#45;&gt;Node8</title>
<g id="a_edge8_Node000003_Node000008"><a xlink:title=" ">
<path fill="none" stroke="#63b8ff" d="M259.22,-145.6C264.94,-143.02 270.58,-140.15 275.75,-137 294.04,-125.87 292.84,-115.04 311.75,-105 315.62,-102.95 319.72,-101.11 323.93,-99.46"/>
<polygon fill="#63b8ff" stroke="#63b8ff" points="324.83,-102.85 333.12,-96.25 322.52,-96.24 324.83,-102.85"/>
</a>
</g>
</g>
<!-- Node9 -->
<g id="Node000009" class="node">
<title>Node9</title>
<g id="a_Node000009"><a xlink:href="../../dd/d04/class_g_e_u_1_1_camera.html#a996bb70a45430ac529d10b88b535a75b" target="_top" xlink:title=" ">
<polygon fill="white" stroke="#666666" points="441,-58 333.5,-58 333.5,-38 441,-38 441,-58"/>
<text text-anchor="middle" x="387.25" y="-44.5" font-family="Helvetica,sans-Serif" font-size="10.00">GEU::Camera::rotate</text>
</a>
</g>
</g>
<!-- Node3&#45;&gt;Node9 -->
<g id="edge9_Node000003_Node000009" class="edge">
<title>Node3&#45;&gt;Node9</title>
<g id="a_edge9_Node000003_Node000009"><a xlink:title=" ">
<path fill="none" stroke="#63b8ff" d="M263.78,-145.55C268.07,-143.07 272.14,-140.23 275.75,-137 301.79,-113.64 284.39,-88.8 311.75,-67 315.08,-64.35 318.73,-62.06 322.58,-60.09"/>
<polygon fill="#63b8ff" stroke="#63b8ff" points="323.92,-63.33 331.73,-56.18 321.16,-56.89 323.92,-63.33"/>
</a>
</g>
</g>
<!-- Node10 -->
<g id="Node000010" class="node">
<title>Node10</title>
<g id="a_Node000010"><a xlink:href="../../dd/d04/class_g_e_u_1_1_camera.html#a1fd7c9e61fb63f0e7ab4571113e43612" target="_top" xlink:title=" ">
<polygon fill="white" stroke="#666666" points="439.5,-20 335,-20 335,0 439.5,0 439.5,-20"/>
<text text-anchor="middle" x="387.25" y="-6.5" font-family="Helvetica,sans-Serif" font-size="10.00">GEU::Camera::truck</text>
</a>
</g>
</g>
<!-- Node3&#45;&gt;Node10 -->
<g id="edge10_Node000003_Node000010" class="edge">
<title>Node3&#45;&gt;Node10</title>
<g id="a_edge10_Node000003_Node000010"><a xlink:title=" ">
<path fill="none" stroke="#63b8ff" d="M265.26,-145.53C269.09,-143.06 272.65,-140.24 275.75,-137 310.72,-100.43 274.71,-63.47 311.75,-29 315.48,-25.53 319.75,-22.67 324.32,-20.32"/>
<polygon fill="#63b8ff" stroke="#63b8ff" points="325.46,-23.64 333.32,-16.53 322.74,-17.19 325.46,-23.64"/>
</a>
</g>
</g>
</g>
</svg>
