<?xml version="1.0" encoding="UTF-8" standalone="no"?>
<!DOCTYPE svg PUBLIC "-//W3C//DTD SVG 1.1//EN"
 "http://www.w3.org/Graphics/SVG/1.1/DTD/svg11.dtd">
<!-- Generated by graphviz version 10.0.1 (20240210.2158)
 -->
<!-- Title: GEU::TriangleMesh Pages: 1 -->
<svg width="2002pt" height="651pt"
 viewBox="0.00 0.00 2002.00 651.00" xmlns="http://www.w3.org/2000/svg" xmlns:xlink="http://www.w3.org/1999/xlink">
<g id="graph0" class="graph" transform="scale(1 1) rotate(0) translate(4 647)">
<title>GEU::TriangleMesh</title>
<!-- Node1 -->
<g id="Node000001" class="node">
<title>Node1</title>
<g id="a_Node000001"><a xlink:title=" ">
<polygon fill="#999999" stroke="#666666" points="1994,-342 1893.25,-342 1893.25,-322 1994,-322 1994,-342"/>
<text text-anchor="middle" x="1943.62" y="-328.5" font-family="Helvetica,sans-Serif" font-size="10.00">GEU::TriangleMesh</text>
</a>
</g>
</g>
<!-- Node2 -->
<g id="Node000002" class="node">
<title>Node2</title>
<g id="a_Node000002"><a xlink:href="../../db/d04/a01501.html" target="_top" xlink:title=" ">
<polygon fill="white" stroke="#666666" points="1383.5,-369 1302.25,-369 1302.25,-349 1383.5,-349 1383.5,-369"/>
<text text-anchor="middle" x="1342.88" y="-355.5" font-family="Helvetica,sans-Serif" font-size="10.00">GEU::Model3D</text>
</a>
</g>
</g>
<!-- Node2&#45;&gt;Node1 -->
<g id="edge1_Node000001_Node000002" class="edge">
<title>Node2&#45;&gt;Node1</title>
<g id="a_edge1_Node000001_Node000002"><a xlink:title=" ">
<path fill="none" stroke="#63b8ff" d="M1395.17,-357.81C1490.02,-355.43 1699.24,-349.31 1875.25,-338 1880.99,-337.63 1887,-337.18 1892.97,-336.7"/>
<polygon fill="#63b8ff" stroke="#63b8ff" points="1395.33,-354.31 1385.42,-358.05 1395.5,-361.31 1395.33,-354.31"/>
</a>
</g>
</g>
<!-- Node3 -->
<g id="Node000003" class="node">
<title>Node3</title>
<g id="a_Node000003"><a xlink:title=" ">
<polygon fill="white" stroke="#666666" points="190.5,-370 131,-370 131,-350 190.5,-350 190.5,-370"/>
<text text-anchor="middle" x="160.75" y="-356.5" font-family="Helvetica,sans-Serif" font-size="10.00">std::string</text>
</a>
</g>
</g>
<!-- Node3&#45;&gt;Node2 -->
<g id="edge2_Node000002_Node000003" class="edge">
<title>Node3&#45;&gt;Node2</title>
<g id="a_edge2_Node000002_Node000003"><a xlink:title=" ">
<path fill="none" stroke="#9a32cd" stroke-dasharray="5,2" d="M163.36,-381.5C166.85,-417.02 177.47,-489.17 208.5,-541 242.93,-598.51 262.48,-631 329.5,-631 329.5,-631 329.5,-631 1152.75,-631 1282.73,-631 1330.61,-419.01 1340.05,-369.33"/>
<polygon fill="#9a32cd" stroke="#9a32cd" points="166.86,-381.34 162.51,-371.69 159.89,-381.95 166.86,-381.34"/>
</a>
</g>
<text text-anchor="middle" x="777.5" y="-633.5" font-family="Helvetica,sans-Serif" font-size="10.00" fill="grey"> _name</text>
</g>
<!-- Node6 -->
<g id="Node000006" class="node">
<title>Node6</title>
<g id="a_Node000006"><a xlink:href="../../d4/d01/a01485.html" target="_top" xlink:title=" ">
<polygon fill="white" stroke="#666666" points="1190.5,-334 1113,-334 1113,-314 1190.5,-314 1190.5,-334"/>
<text text-anchor="middle" x="1151.75" y="-320.5" font-family="Helvetica,sans-Serif" font-size="10.00">GEU::Material</text>
</a>
</g>
</g>
<!-- Node3&#45;&gt;Node6 -->
<g id="edge6_Node000006_Node000003" class="edge">
<title>Node3&#45;&gt;Node6</title>
<g id="a_edge6_Node000006_Node000003"><a xlink:title=" ">
<path fill="none" stroke="#9a32cd" stroke-dasharray="5,2" d="M166.31,-381.14C180,-438.18 226.3,-591 329.5,-591 329.5,-591 329.5,-591 907.62,-591 1039.54,-591 993.59,-446 1092.75,-359 1103.8,-349.3 1117.89,-340.73 1129.41,-334.5"/>
<polygon fill="#9a32cd" stroke="#9a32cd" points="169.8,-380.67 164.16,-371.7 162.97,-382.23 169.8,-380.67"/>
</a>
</g>
<text text-anchor="middle" x="623.62" y="-593.5" font-family="Helvetica,sans-Serif" font-size="10.00" fill="grey"> _name</text>
</g>
<!-- Node8 -->
<g id="Node000008" class="node">
<title>Node8</title>
<g id="a_Node000008"><a xlink:href="../../dd/d02/a01545.html" target="_top" xlink:title=" ">
<polygon fill="white" stroke="#666666" points="678.88,-411 568.38,-411 568.38,-391 678.88,-391 678.88,-411"/>
<text text-anchor="middle" x="623.62" y="-397.5" font-family="Helvetica,sans-Serif" font-size="10.00">GEU::ShaderProgram</text>
</a>
</g>
</g>
<!-- Node3&#45;&gt;Node8 -->
<g id="edge9_Node000008_Node000003" class="edge">
<title>Node3&#45;&gt;Node8</title>
<g id="a_edge9_Node000008_Node000003"><a xlink:title=" ">
<path fill="none" stroke="#9a32cd" stroke-dasharray="5,2" d="M170.26,-380.66C178.2,-398.05 191.38,-422.78 208.5,-440 230.62,-462.26 238.98,-467.71 269.25,-476 378.27,-505.88 415.15,-486.14 522.25,-450 552.38,-439.83 585.1,-422.58 604.73,-411.5"/>
<polygon fill="#9a32cd" stroke="#9a32cd" points="173.62,-379.6 166.42,-371.83 167.2,-382.4 173.62,-379.6"/>
</a>
</g>
<text text-anchor="middle" x="330.5" y="-540.5" font-family="Helvetica,sans-Serif" font-size="10.00" fill="grey"> MODULE_FILE_CHAR_1</text>
<text text-anchor="middle" x="330.5" y="-528.5" font-family="Helvetica,sans-Serif" font-size="10.00" fill="grey">MODULE_FILE_CHAR_2</text>
<text text-anchor="middle" x="330.5" y="-516.5" font-family="Helvetica,sans-Serif" font-size="10.00" fill="grey">MODULE_HEADER</text>
<text text-anchor="middle" x="330.5" y="-504.5" font-family="Helvetica,sans-Serif" font-size="10.00" fill="grey">_logString</text>
<text text-anchor="middle" x="330.5" y="-492.5" font-family="Helvetica,sans-Serif" font-size="10.00" fill="grey">shaderPath</text>
</g>
<!-- Node9 -->
<g id="Node000009" class="node">
<title>Node9</title>
<g id="a_Node000009"><a xlink:title=" ">
<polygon fill="white" stroke="#666666" points="381.62,-467 279.38,-467 279.38,-423 381.62,-423 381.62,-467"/>
<text text-anchor="start" x="287.38" y="-453.5" font-family="Helvetica,sans-Serif" font-size="10.00">std::unordered_map</text>
<text text-anchor="start" x="287.38" y="-441.5" font-family="Helvetica,sans-Serif" font-size="10.00">&lt; std::string, std::</text>
<text text-anchor="middle" x="330.5" y="-429.5" font-family="Helvetica,sans-Serif" font-size="10.00">string &gt;</text>
</a>
</g>
</g>
<!-- Node3&#45;&gt;Node9 -->
<g id="edge11_Node000009_Node000003" class="edge">
<title>Node3&#45;&gt;Node9</title>
<g id="a_edge11_Node000009_Node000003"><a xlink:title=" ">
<path fill="none" stroke="#9a32cd" stroke-dasharray="5,2" d="M185.36,-376.75C192.63,-381.61 200.76,-386.74 208.5,-391 231.08,-403.41 257.06,-415.3 279.15,-424.75"/>
<polygon fill="#9a32cd" stroke="#9a32cd" points="187.58,-374.03 177.35,-371.27 183.62,-379.81 187.58,-374.03"/>
</a>
</g>
<text text-anchor="middle" x="229.88" y="-426.5" font-family="Helvetica,sans-Serif" font-size="10.00" fill="grey"> elements</text>
<text text-anchor="middle" x="229.88" y="-414.5" font-family="Helvetica,sans-Serif" font-size="10.00" fill="grey">keys</text>
</g>
<!-- Node11 -->
<g id="Node000011" class="node">
<title>Node11</title>
<g id="a_Node000011"><a xlink:title=" ">
<polygon fill="white" stroke="#666666" points="383.88,-405 277.12,-405 277.12,-373 383.88,-373 383.88,-405"/>
<text text-anchor="start" x="285.12" y="-391.5" font-family="Helvetica,sans-Serif" font-size="10.00">std::unordered_map</text>
<text text-anchor="middle" x="330.5" y="-379.5" font-family="Helvetica,sans-Serif" font-size="10.00">&lt; std::string, GLint &gt;</text>
</a>
</g>
</g>
<!-- Node3&#45;&gt;Node11 -->
<g id="edge14_Node000011_Node000003" class="edge">
<title>Node3&#45;&gt;Node11</title>
<g id="a_edge14_Node000011_Node000003"><a xlink:title=" ">
<path fill="none" stroke="#9a32cd" stroke-dasharray="5,2" d="M202.13,-366.98C224.57,-370.86 252.76,-375.73 276.91,-379.91"/>
<polygon fill="#9a32cd" stroke="#9a32cd" points="202.91,-363.56 192.46,-365.31 201.72,-370.46 202.91,-363.56"/>
</a>
</g>
<text text-anchor="middle" x="229.88" y="-377.5" font-family="Helvetica,sans-Serif" font-size="10.00" fill="grey"> keys</text>
</g>
<!-- Node13 -->
<g id="Node000013" class="node">
<title>Node13</title>
<g id="a_Node000013"><a xlink:href="../../d3/d03/a01549.html" target="_top" xlink:title=" ">
<polygon fill="white" stroke="#666666" points="661.25,-334 586,-334 586,-314 661.25,-314 661.25,-334"/>
<text text-anchor="middle" x="623.62" y="-320.5" font-family="Helvetica,sans-Serif" font-size="10.00">GEU::Texture</text>
</a>
</g>
</g>
<!-- Node3&#45;&gt;Node13 -->
<g id="edge17_Node000013_Node000003" class="edge">
<title>Node3&#45;&gt;Node13</title>
<g id="a_edge17_Node000013_Node000003"><a xlink:title=" ">
<path fill="none" stroke="#9a32cd" stroke-dasharray="5,2" d="M202.01,-351C222.11,-346.9 246.85,-342.42 269.25,-340 381.1,-327.9 409.92,-338.25 522.25,-332 543.37,-330.83 566.95,-328.97 585.94,-327.35"/>
<polygon fill="#9a32cd" stroke="#9a32cd" points="201.32,-347.57 192.25,-353.05 202.76,-354.42 201.32,-347.57"/>
</a>
</g>
<text text-anchor="middle" x="330.5" y="-354.5" font-family="Helvetica,sans-Serif" font-size="10.00" fill="grey"> TEXTURE_LAYER_IDS</text>
<text text-anchor="middle" x="330.5" y="-342.5" font-family="Helvetica,sans-Serif" font-size="10.00" fill="grey">_filename</text>
</g>
<!-- Node14 -->
<g id="Node000014" class="node">
<title>Node14</title>
<g id="a_Node000014"><a xlink:title=" ">
<polygon fill="white" stroke="#666666" points="389.5,-295 271.5,-295 271.5,-263 389.5,-263 389.5,-295"/>
<text text-anchor="start" x="279.5" y="-281.5" font-family="Helvetica,sans-Serif" font-size="10.00">std::unordered_map</text>
<text text-anchor="middle" x="330.5" y="-269.5" font-family="Helvetica,sans-Serif" font-size="10.00">&lt; uint16_t, std::string &gt;</text>
</a>
</g>
</g>
<!-- Node3&#45;&gt;Node14 -->
<g id="edge19_Node000014_Node000003" class="edge">
<title>Node3&#45;&gt;Node14</title>
<g id="a_edge19_Node000014_Node000003"><a xlink:title=" ">
<path fill="none" stroke="#9a32cd" stroke-dasharray="5,2" d="M173.84,-340.04C182.13,-328.07 194.19,-313.56 208.5,-305 227.31,-293.75 250.34,-287.34 271.24,-283.69"/>
<polygon fill="#9a32cd" stroke="#9a32cd" points="170.91,-338.13 168.4,-348.43 176.78,-341.95 170.91,-338.13"/>
</a>
</g>
<text text-anchor="middle" x="229.88" y="-307.5" font-family="Helvetica,sans-Serif" font-size="10.00" fill="grey"> elements</text>
</g>
<!-- Node15 -->
<g id="Node000015" class="node">
<title>Node15</title>
<g id="a_Node000015"><a xlink:title=" ">
<polygon fill="white" stroke="#666666" points="391.75,-180 269.25,-180 269.25,-160 391.75,-160 391.75,-180"/>
<text text-anchor="middle" x="330.5" y="-166.5" font-family="Helvetica,sans-Serif" font-size="10.00">std::vector&lt; std::string &gt;</text>
</a>
</g>
</g>
<!-- Node3&#45;&gt;Node15 -->
<g id="edge21_Node000015_Node000003" class="edge">
<title>Node3&#45;&gt;Node15</title>
<g id="a_edge21_Node000015_Node000003"><a xlink:title=" ">
<path fill="none" stroke="#9a32cd" stroke-dasharray="5,2" d="M170.55,-339.29C178.88,-320.92 192.48,-293.84 208.5,-273 231.06,-243.64 241,-239.93 269.25,-216 284.51,-203.07 302.89,-189.28 315.31,-180.21"/>
<polygon fill="#9a32cd" stroke="#9a32cd" points="167.4,-337.77 166.58,-348.33 173.81,-340.59 167.4,-337.77"/>
</a>
</g>
<text text-anchor="middle" x="229.88" y="-275.5" font-family="Helvetica,sans-Serif" font-size="10.00" fill="grey"> elements</text>
</g>
<!-- Node18 -->
<g id="Node000018" class="node">
<title>Node18</title>
<g id="a_Node000018"><a xlink:href="../../d6/d05/a01573.html" target="_top" xlink:title=" ">
<polygon fill="white" stroke="#666666" points="1396.25,-233 1289.5,-233 1289.5,-201 1396.25,-201 1396.25,-233"/>
<text text-anchor="start" x="1297.5" y="-219.5" font-family="Helvetica,sans-Serif" font-size="10.00">GEU::TriangleMesh::</text>
<text text-anchor="middle" x="1342.88" y="-207.5" font-family="Helvetica,sans-Serif" font-size="10.00">Component</text>
</a>
</g>
</g>
<!-- Node3&#45;&gt;Node18 -->
<g id="edge25_Node000018_Node000003" class="edge">
<title>Node3&#45;&gt;Node18</title>
<g id="a_edge25_Node000018_Node000003"><a xlink:title=" ">
<path fill="none" stroke="#9a32cd" stroke-dasharray="5,2" d="M165.71,-338.74C175.06,-295.17 202.89,-196.07 269.25,-151 456.92,-23.53 549.64,-94 776.5,-94 776.5,-94 776.5,-94 1152.75,-94 1230.11,-94 1300.67,-167.21 1328.88,-200.67"/>
<polygon fill="#9a32cd" stroke="#9a32cd" points="162.3,-337.94 163.76,-348.43 169.16,-339.32 162.3,-337.94"/>
</a>
</g>
<text text-anchor="middle" x="777.5" y="-96.5" font-family="Helvetica,sans-Serif" font-size="10.00" fill="grey"> _name</text>
</g>
<!-- Node22 -->
<g id="Node000022" class="node">
<title>Node22</title>
<g id="a_Node000022"><a xlink:href="../../d2/d04/a01489.html" target="_top" xlink:title=" ">
<polygon fill="white" stroke="#666666" points="707,-66 540.25,-66 540.25,-46 707,-46 707,-66"/>
<text text-anchor="middle" x="623.62" y="-52.5" font-family="Helvetica,sans-Serif" font-size="10.00">GEU::Material::MaterialDescription</text>
</a>
</g>
</g>
<!-- Node3&#45;&gt;Node22 -->
<g id="edge34_Node000022_Node000003" class="edge">
<title>Node3&#45;&gt;Node22</title>
<g id="a_edge34_Node000022_Node000003"><a xlink:title=" ">
<path fill="none" stroke="#9a32cd" stroke-dasharray="5,2" d="M162.32,-338.38C164.32,-279.55 172.99,-118.54 208.5,-82 252.75,-36.48 432.36,-41.31 539.98,-48.74"/>
<polygon fill="#9a32cd" stroke="#9a32cd" points="158.83,-337.98 162.02,-348.08 165.82,-338.19 158.83,-337.98"/>
</a>
</g>
<text text-anchor="middle" x="330.5" y="-57.5" font-family="Helvetica,sans-Serif" font-size="10.00" fill="grey"> _rootFolder</text>
</g>
<!-- Node4 -->
<g id="Node000004" class="node">
<title>Node4</title>
<g id="a_Node000004"><a xlink:title=" ">
<polygon fill="white" stroke="#666666" points="94,-376 0,-376 0,-344 94,-344 94,-376"/>
<text text-anchor="start" x="8" y="-362.5" font-family="Helvetica,sans-Serif" font-size="10.00">std::basic_string&lt;</text>
<text text-anchor="middle" x="47" y="-350.5" font-family="Helvetica,sans-Serif" font-size="10.00"> Char &gt;</text>
</a>
</g>
</g>
<!-- Node4&#45;&gt;Node3 -->
<g id="edge3_Node000003_Node000004" class="edge">
<title>Node4&#45;&gt;Node3</title>
<g id="a_edge3_Node000003_Node000004"><a xlink:title=" ">
<path fill="none" stroke="#63b8ff" d="M105.71,-360C114.32,-360 122.87,-360 130.55,-360"/>
<polygon fill="#63b8ff" stroke="#63b8ff" points="105.93,-356.5 95.93,-360 105.93,-363.5 105.93,-356.5"/>
</a>
</g>
</g>
<!-- Node5 -->
<g id="Node000005" class="node">
<title>Node5</title>
<g id="a_Node000005"><a xlink:href="../../db/d05/a01637.html" target="_top" xlink:title=" ">
<polygon fill="white" stroke="#666666" points="1173.25,-388 1130.25,-388 1130.25,-368 1173.25,-368 1173.25,-388"/>
<text text-anchor="middle" x="1151.75" y="-374.5" font-family="Helvetica,sans-Serif" font-size="10.00">AABB</text>
</a>
</g>
</g>
<!-- Node5&#45;&gt;Node2 -->
<g id="edge4_Node000002_Node000005" class="edge">
<title>Node5&#45;&gt;Node2</title>
<g id="a_edge4_Node000002_Node000005"><a xlink:title=" ">
<path fill="none" stroke="#9a32cd" stroke-dasharray="5,2" d="M1184.67,-377.53C1208.63,-376.9 1242.21,-375.43 1271.5,-372 1281.37,-370.84 1291.95,-369.14 1301.82,-367.35"/>
<polygon fill="#9a32cd" stroke="#9a32cd" points="1184.85,-374.03 1174.93,-377.75 1185,-381.02 1184.85,-374.03"/>
</a>
</g>
<text text-anchor="middle" x="1250.12" y="-377.5" font-family="Helvetica,sans-Serif" font-size="10.00" fill="grey"> _aabb</text>
</g>
<!-- Node5&#45;&gt;Node18 -->
<g id="edge31_Node000018_Node000005" class="edge">
<title>Node5&#45;&gt;Node18</title>
<g id="a_edge31_Node000018_Node000005"><a xlink:title=" ">
<path fill="none" stroke="#9a32cd" stroke-dasharray="5,2" d="M1184.35,-369.77C1214.72,-361.39 1257.96,-348.09 1271.5,-337 1305.87,-308.84 1327.19,-259.17 1336.46,-233.45"/>
<polygon fill="#9a32cd" stroke="#9a32cd" points="1183.62,-366.34 1174.88,-372.33 1185.45,-373.1 1183.62,-366.34"/>
</a>
</g>
<text text-anchor="middle" x="1250.12" y="-357.5" font-family="Helvetica,sans-Serif" font-size="10.00" fill="grey"> _aabb</text>
</g>
<!-- Node6&#45;&gt;Node2 -->
<g id="edge5_Node000002_Node000006" class="edge">
<title>Node6&#45;&gt;Node2</title>
<g id="a_edge5_Node000002_Node000006"><a xlink:title=" ">
<path fill="none" stroke="#9a32cd" stroke-dasharray="5,2" d="M1202.16,-319.6C1223.72,-318.91 1249.12,-319.78 1271.5,-325 1291.19,-329.59 1311.8,-340.36 1325.59,-348.55"/>
<polygon fill="#9a32cd" stroke="#9a32cd" points="1202.3,-316.09 1192.47,-320.04 1202.62,-323.09 1202.3,-316.09"/>
</a>
</g>
<text text-anchor="middle" x="1250.12" y="-327.5" font-family="Helvetica,sans-Serif" font-size="10.00" fill="grey"> _material</text>
</g>
<!-- Node6&#45;&gt;Node18 -->
<g id="edge32_Node000018_Node000006" class="edge">
<title>Node6&#45;&gt;Node18</title>
<g id="a_edge32_Node000018_Node000006"><a xlink:title=" ">
<path fill="none" stroke="#9a32cd" stroke-dasharray="5,2" d="M1187.91,-309.02C1211.98,-298.31 1244.34,-283.01 1271.5,-267 1288.8,-256.8 1307.27,-243.58 1320.95,-233.3"/>
<polygon fill="#9a32cd" stroke="#9a32cd" points="1186.62,-305.77 1178.87,-312.99 1189.43,-312.17 1186.62,-305.77"/>
</a>
</g>
<text text-anchor="middle" x="1250.12" y="-292.5" font-family="Helvetica,sans-Serif" font-size="10.00" fill="grey"> _material</text>
</g>
<!-- Node7 -->
<g id="Node000007" class="node">
<title>Node7</title>
<g id="a_Node000007"><a xlink:href="../../d1/d02/a01533.html" target="_top" xlink:title=" ">
<polygon fill="white" stroke="#666666" points="965.25,-374 848,-374 848,-354 965.25,-354 965.25,-374"/>
<text text-anchor="middle" x="906.62" y="-360.5" font-family="Helvetica,sans-Serif" font-size="10.00">GEU::RenderingShader</text>
</a>
</g>
</g>
<!-- Node7&#45;&gt;Node6 -->
<g id="edge7_Node000006_Node000007" class="edge">
<title>Node7&#45;&gt;Node6</title>
<g id="a_edge7_Node000006_Node000007"><a xlink:title=" ">
<path fill="none" stroke="#9a32cd" stroke-dasharray="5,2" d="M976.94,-353.66C1007.03,-349.05 1042.66,-343.45 1074.75,-338 1087.05,-335.91 1100.44,-333.49 1112.51,-331.26"/>
<polygon fill="#9a32cd" stroke="#9a32cd" points="976.55,-350.18 967.19,-355.14 977.61,-357.1 976.55,-350.18"/>
</a>
</g>
<text text-anchor="middle" x="1029" y="-354.5" font-family="Helvetica,sans-Serif" font-size="10.00" fill="grey"> _associatedShader</text>
</g>
<!-- Node8&#45;&gt;Node7 -->
<g id="edge8_Node000007_Node000008" class="edge">
<title>Node8&#45;&gt;Node7</title>
<g id="a_edge8_Node000007_Node000008"><a xlink:title=" ">
<path fill="none" stroke="#63b8ff" d="M690.59,-395.44C730.96,-391.66 783.6,-386.07 830,-379 838.47,-377.71 847.43,-376.13 856.11,-374.48"/>
<polygon fill="#63b8ff" stroke="#63b8ff" points="690.42,-391.94 680.79,-396.34 691.06,-398.91 690.42,-391.94"/>
</a>
</g>
</g>
<!-- Node9&#45;&gt;Node8 -->
<g id="edge10_Node000008_Node000009" class="edge">
<title>Node9&#45;&gt;Node8</title>
<g id="a_edge10_Node000008_Node000009"><a xlink:title=" ">
<path fill="none" stroke="#9a32cd" stroke-dasharray="5,2" d="M393.02,-437.28C430.44,-432.42 479.17,-425.8 522.25,-419 537.11,-416.66 553.17,-413.88 568,-411.23"/>
<polygon fill="#9a32cd" stroke="#9a32cd" points="392.76,-433.79 383.29,-438.54 393.65,-440.73 392.76,-433.79"/>
</a>
</g>
<text text-anchor="middle" x="466" y="-436.5" font-family="Helvetica,sans-Serif" font-size="10.00" fill="grey"> _moduleCode</text>
</g>
<!-- Node10 -->
<g id="Node000010" class="node">
<title>Node10</title>
<g id="a_Node000010"><a xlink:title=" ">
<polygon fill="white" stroke="#666666" points="384.25,-245 276.75,-245 276.75,-225 384.25,-225 384.25,-245"/>
<text text-anchor="middle" x="330.5" y="-231.5" font-family="Helvetica,sans-Serif" font-size="10.00">std::vector&lt; GLuint &gt;</text>
</a>
</g>
</g>
<!-- Node10&#45;&gt;Node8 -->
<g id="edge12_Node000008_Node000010" class="edge">
<title>Node10&#45;&gt;Node8</title>
<g id="a_edge12_Node000008_Node000010"><a xlink:title=" ">
<path fill="none" stroke="#9a32cd" stroke-dasharray="5,2" d="M380.92,-249.32C384.63,-250.78 388.28,-252.34 391.75,-254 400.42,-258.15 400.83,-262.42 409.75,-266 456.87,-284.93 486.17,-250.26 522.25,-286 553.09,-316.55 510.2,-350.68 540.25,-382 547.67,-389.73 557.55,-394.6 567.9,-397.61"/>
<polygon fill="#9a32cd" stroke="#9a32cd" points="382.39,-246.13 371.8,-245.99 379.99,-252.7 382.39,-246.13"/>
</a>
</g>
<text text-anchor="middle" x="466" y="-288.5" font-family="Helvetica,sans-Serif" font-size="10.00" fill="grey"> _activeSubroutineUniform</text>
</g>
<!-- Node10&#45;&gt;Node18 -->
<g id="edge28_Node000018_Node000010" class="edge">
<title>Node10&#45;&gt;Node18</title>
<g id="a_edge28_Node000018_Node000010"><a xlink:title=" ">
<path fill="none" stroke="#9a32cd" stroke-dasharray="5,2" d="M395.66,-232.42C400.43,-232.27 405.16,-232.12 409.75,-232 744.45,-222.89 1146.91,-218.71 1289.05,-217.44"/>
<polygon fill="#9a32cd" stroke="#9a32cd" points="395.92,-228.91 386.04,-232.76 396.16,-235.91 395.92,-228.91"/>
</a>
</g>
<text text-anchor="middle" x="906.62" y="-225.5" font-family="Helvetica,sans-Serif" font-size="10.00" fill="grey"> _indices</text>
</g>
<!-- Node21 -->
<g id="Node000021" class="node">
<title>Node21</title>
<g id="a_Node000021"><a xlink:href="../../d3/d02/a01577.html" target="_top" xlink:title=" ">
<polygon fill="white" stroke="#666666" points="809.5,-261 745.5,-261 745.5,-241 809.5,-241 809.5,-261"/>
<text text-anchor="middle" x="777.5" y="-247.5" font-family="Helvetica,sans-Serif" font-size="10.00">GEU::VAO</text>
</a>
</g>
</g>
<!-- Node10&#45;&gt;Node21 -->
<g id="edge30_Node000021_Node000010" class="edge">
<title>Node10&#45;&gt;Node21</title>
<g id="a_edge30_Node000021_Node000010"><a xlink:title=" ">
<path fill="none" stroke="#9a32cd" stroke-dasharray="5,2" d="M395.68,-235.44C432.69,-235.84 480.1,-236.59 522.25,-238 602.65,-240.69 697.24,-246.12 745.2,-249.04"/>
<polygon fill="#9a32cd" stroke="#9a32cd" points="396.1,-231.95 386.06,-235.35 396.02,-238.95 396.1,-231.95"/>
</a>
</g>
<text text-anchor="middle" x="466" y="-252.5" font-family="Helvetica,sans-Serif" font-size="10.00" fill="grey"> _ibos</text>
<text text-anchor="middle" x="466" y="-240.5" font-family="Helvetica,sans-Serif" font-size="10.00" fill="grey">_vbos</text>
</g>
<!-- Node11&#45;&gt;Node8 -->
<g id="edge13_Node000008_Node000011" class="edge">
<title>Node11&#45;&gt;Node8</title>
<g id="a_edge13_Node000008_Node000011"><a xlink:title=" ">
<path fill="none" stroke="#9a32cd" stroke-dasharray="5,2" d="M395.29,-390.56C432.36,-391.57 479.96,-393.07 522.25,-395 537.07,-395.68 553.12,-396.56 567.94,-397.45"/>
<polygon fill="#9a32cd" stroke="#9a32cd" points="395.75,-387.07 385.66,-390.3 395.56,-394.06 395.75,-387.07"/>
</a>
</g>
<text text-anchor="middle" x="466" y="-409.5" font-family="Helvetica,sans-Serif" font-size="10.00" fill="grey"> subroutineLocation</text>
<text text-anchor="middle" x="466" y="-397.5" font-family="Helvetica,sans-Serif" font-size="10.00" fill="grey">uniformLocation</text>
</g>
<!-- Node12 -->
<g id="Node000012" class="node">
<title>Node12</title>
<g id="a_Node000012"><a xlink:title=" ">
<polygon fill="white" stroke="#666666" points="672.12,-373 575.12,-373 575.12,-353 672.12,-353 672.12,-373"/>
<text text-anchor="middle" x="623.62" y="-359.5" font-family="Helvetica,sans-Serif" font-size="10.00">std::vector&lt; bool &gt;</text>
</a>
</g>
</g>
<!-- Node12&#45;&gt;Node7 -->
<g id="edge15_Node000007_Node000012" class="edge">
<title>Node12&#45;&gt;Node7</title>
<g id="a_edge15_Node000007_Node000012"><a xlink:title=" ">
<path fill="none" stroke="#9a32cd" stroke-dasharray="5,2" d="M684.12,-363.21C732.32,-363.38 799.83,-363.62 847.62,-363.79"/>
<polygon fill="#9a32cd" stroke="#9a32cd" points="684.14,-359.71 674.12,-363.18 684.11,-366.71 684.14,-359.71"/>
</a>
</g>
<text text-anchor="middle" x="777.5" y="-365.5" font-family="Helvetica,sans-Serif" font-size="10.00" fill="grey"> _implementsSubroutine</text>
</g>
<!-- Node13&#45;&gt;Node6 -->
<g id="edge16_Node000006_Node000013" class="edge">
<title>Node13&#45;&gt;Node6</title>
<g id="a_edge16_Node000006_Node000013"><a xlink:title=" ">
<path fill="none" stroke="#9a32cd" stroke-dasharray="5,2" d="M672.99,-324C776.76,-324 1018.97,-324 1112.74,-324"/>
<polygon fill="#9a32cd" stroke="#9a32cd" points="673.13,-320.5 663.13,-324 673.13,-327.5 673.13,-320.5"/>
</a>
</g>
<text text-anchor="middle" x="906.62" y="-326.5" font-family="Helvetica,sans-Serif" font-size="10.00" fill="grey"> _texture</text>
</g>
<!-- Node14&#45;&gt;Node13 -->
<g id="edge18_Node000013_Node000014" class="edge">
<title>Node14&#45;&gt;Node13</title>
<g id="a_edge18_Node000013_Node000014"><a xlink:title=" ">
<path fill="none" stroke="#9a32cd" stroke-dasharray="5,2" d="M396.56,-298.17C401,-299.21 405.43,-300.17 409.75,-301 470.88,-312.81 543.15,-319.01 585.81,-321.89"/>
<polygon fill="#9a32cd" stroke="#9a32cd" points="397.54,-294.81 386.99,-295.81 395.86,-301.6 397.54,-294.81"/>
</a>
</g>
<text text-anchor="middle" x="466" y="-318.5" font-family="Helvetica,sans-Serif" font-size="10.00" fill="grey"> SHADER_VARIABLE</text>
</g>
<!-- Node15&#45;&gt;Node6 -->
<g id="edge20_Node000006_Node000015" class="edge">
<title>Node15&#45;&gt;Node6</title>
<g id="a_edge20_Node000006_Node000015"><a xlink:title=" ">
<path fill="none" stroke="#9a32cd" stroke-dasharray="5,2" d="M403.44,-163.63C522.3,-155.11 766.34,-146.14 965.25,-194 1016.91,-206.43 1031.45,-211.2 1074.75,-242 1104.17,-262.93 1130.96,-296.73 1143.41,-313.65"/>
<polygon fill="#9a32cd" stroke="#9a32cd" points="403.21,-160.14 393.49,-164.37 403.73,-167.12 403.21,-160.14"/>
</a>
</g>
<text text-anchor="middle" x="777.5" y="-172.5" font-family="Helvetica,sans-Serif" font-size="10.00" fill="grey"> _enabledSubroutines</text>
</g>
<!-- Node15&#45;&gt;Node22 -->
<g id="edge35_Node000022_Node000015" class="edge">
<title>Node15&#45;&gt;Node22</title>
<g id="a_edge35_Node000022_Node000015"><a xlink:title=" ">
<path fill="none" stroke="#9a32cd" stroke-dasharray="5,2" d="M368.56,-155.49C428.23,-132.12 544.13,-86.74 596.18,-66.35"/>
<polygon fill="#9a32cd" stroke="#9a32cd" points="367.55,-152.12 359.52,-159.03 370.1,-158.64 367.55,-152.12"/>
</a>
</g>
<text text-anchor="middle" x="466" y="-139.5" font-family="Helvetica,sans-Serif" font-size="10.00" fill="grey"> _textureImage</text>
</g>
<!-- Node16 -->
<g id="Node000016" class="node">
<title>Node16</title>
<g id="a_Node000016"><a xlink:title=" ">
<polygon fill="white" stroke="#666666" points="1795.75,-325 1669.5,-325 1669.5,-281 1795.75,-281 1795.75,-325"/>
<text text-anchor="start" x="1677.5" y="-311.5" font-family="Helvetica,sans-Serif" font-size="10.00">std::vector&lt; std::unique</text>
<text text-anchor="start" x="1677.5" y="-299.5" font-family="Helvetica,sans-Serif" font-size="10.00">_ptr&lt; GEU::TriangleMesh</text>
<text text-anchor="middle" x="1732.62" y="-287.5" font-family="Helvetica,sans-Serif" font-size="10.00">::Component &gt; &gt;</text>
</a>
</g>
</g>
<!-- Node16&#45;&gt;Node1 -->
<g id="edge22_Node000001_Node000016" class="edge">
<title>Node16&#45;&gt;Node1</title>
<g id="a_edge22_Node000001_Node000016"><a xlink:title=" ">
<path fill="none" stroke="#9a32cd" stroke-dasharray="5,2" d="M1807.14,-313.2C1835.48,-317.13 1867.17,-321.53 1892.77,-325.08"/>
<polygon fill="#9a32cd" stroke="#9a32cd" points="1807.93,-309.78 1797.55,-311.87 1806.97,-316.71 1807.93,-309.78"/>
</a>
</g>
<text text-anchor="middle" x="1844.5" y="-324.5" font-family="Helvetica,sans-Serif" font-size="10.00" fill="grey"> _components</text>
</g>
<!-- Node17 -->
<g id="Node000017" class="node">
<title>Node17</title>
<g id="a_Node000017"><a xlink:title=" ">
<polygon fill="white" stroke="#666666" points="1590.75,-298 1446.5,-298 1446.5,-266 1590.75,-266 1590.75,-298"/>
<text text-anchor="start" x="1454.5" y="-284.5" font-family="Helvetica,sans-Serif" font-size="10.00">std::unique_ptr&lt; GEU</text>
<text text-anchor="middle" x="1518.62" y="-272.5" font-family="Helvetica,sans-Serif" font-size="10.00">::TriangleMesh::Component &gt;</text>
</a>
</g>
</g>
<!-- Node17&#45;&gt;Node16 -->
<g id="edge23_Node000016_Node000017" class="edge">
<title>Node17&#45;&gt;Node16</title>
<g id="a_edge23_Node000016_Node000017"><a xlink:title=" ">
<path fill="none" stroke="#9a32cd" stroke-dasharray="5,2" d="M1602.27,-290.19C1624.57,-292.4 1648.34,-294.75 1669.33,-296.83"/>
<polygon fill="#9a32cd" stroke="#9a32cd" points="1602.91,-286.73 1592.61,-289.23 1602.22,-293.7 1602.91,-286.73"/>
</a>
</g>
<text text-anchor="middle" x="1630.12" y="-297.5" font-family="Helvetica,sans-Serif" font-size="10.00" fill="grey"> elements</text>
</g>
<!-- Node18&#45;&gt;Node17 -->
<g id="edge24_Node000017_Node000018" class="edge">
<title>Node18&#45;&gt;Node17</title>
<g id="a_edge24_Node000017_Node000018"><a xlink:title=" ">
<path fill="none" stroke="#9a32cd" stroke-dasharray="5,2" d="M1398.23,-237.33C1422.55,-246.43 1450.85,-257.02 1473.79,-265.6"/>
<polygon fill="#9a32cd" stroke="#9a32cd" points="1399.73,-234.16 1389.14,-233.93 1397.28,-240.71 1399.73,-234.16"/>
</a>
</g>
<text text-anchor="middle" x="1421.38" y="-250.5" font-family="Helvetica,sans-Serif" font-size="10.00" fill="grey"> ptr</text>
</g>
<!-- Node19 -->
<g id="Node000019" class="node">
<title>Node19</title>
<g id="a_Node000019"><a xlink:title=" ">
<polygon fill="white" stroke="#666666" points="1210.75,-167 1092.75,-167 1092.75,-135 1210.75,-135 1210.75,-167"/>
<text text-anchor="start" x="1100.75" y="-153.5" font-family="Helvetica,sans-Serif" font-size="10.00">std::vector&lt; GEU::VAO</text>
<text text-anchor="middle" x="1151.75" y="-141.5" font-family="Helvetica,sans-Serif" font-size="10.00">::Vertex &gt;</text>
</a>
</g>
</g>
<!-- Node19&#45;&gt;Node18 -->
<g id="edge26_Node000018_Node000019" class="edge">
<title>Node19&#45;&gt;Node18</title>
<g id="a_edge26_Node000018_Node000019"><a xlink:title=" ">
<path fill="none" stroke="#9a32cd" stroke-dasharray="5,2" d="M1215.43,-170.95C1233.58,-176.9 1253.38,-183.55 1271.5,-190 1280.75,-193.29 1290.62,-196.97 1299.95,-200.53"/>
<polygon fill="#9a32cd" stroke="#9a32cd" points="1216.7,-167.68 1206.11,-167.91 1214.53,-174.34 1216.7,-167.68"/>
</a>
</g>
<text text-anchor="middle" x="1250.12" y="-192.5" font-family="Helvetica,sans-Serif" font-size="10.00" fill="grey"> _vertices</text>
</g>
<!-- Node20 -->
<g id="Node000020" class="node">
<title>Node20</title>
<g id="a_Node000020"><a xlink:href="../../da/d02/a01585.html" target="_top" xlink:title=" ">
<polygon fill="white" stroke="#666666" points="955.88,-142 857.38,-142 857.38,-122 955.88,-122 955.88,-142"/>
<text text-anchor="middle" x="906.62" y="-128.5" font-family="Helvetica,sans-Serif" font-size="10.00">GEU::VAO::Vertex</text>
</a>
</g>
</g>
<!-- Node20&#45;&gt;Node19 -->
<g id="edge27_Node000019_Node000020" class="edge">
<title>Node20&#45;&gt;Node19</title>
<g id="a_edge27_Node000019_Node000020"><a xlink:title=" ">
<path fill="none" stroke="#9a32cd" stroke-dasharray="5,2" d="M967.63,-136.01C999.47,-138.22 1039.25,-141.09 1074.75,-144 1080.43,-144.47 1086.34,-144.97 1092.26,-145.49"/>
<polygon fill="#9a32cd" stroke="#9a32cd" points="968,-132.53 957.79,-135.34 967.52,-139.52 968,-132.53"/>
</a>
</g>
<text text-anchor="middle" x="1029" y="-146.5" font-family="Helvetica,sans-Serif" font-size="10.00" fill="grey"> elements</text>
</g>
<!-- Node21&#45;&gt;Node18 -->
<g id="edge29_Node000018_Node000021" class="edge">
<title>Node21&#45;&gt;Node18</title>
<g id="a_edge29_Node000018_Node000021"><a xlink:title=" ">
<path fill="none" stroke="#9a32cd" stroke-dasharray="5,2" d="M821.08,-251.19C906.68,-251.13 1105.65,-248.76 1271.5,-230 1277.3,-229.34 1283.35,-228.49 1289.35,-227.53"/>
<polygon fill="#9a32cd" stroke="#9a32cd" points="821.28,-247.69 811.28,-251.18 821.28,-254.69 821.28,-247.69"/>
</a>
</g>
<text text-anchor="middle" x="1029" y="-251.5" font-family="Helvetica,sans-Serif" font-size="10.00" fill="grey"> _vao</text>
</g>
<!-- Node22&#45;&gt;Node18 -->
<g id="edge33_Node000018_Node000022" class="edge">
<title>Node22&#45;&gt;Node18</title>
<g id="a_edge33_Node000018_Node000022"><a xlink:title=" ">
<path fill="none" stroke="#9a32cd" stroke-dasharray="5,2" d="M671.72,-42.63C785.58,-13.27 1080.47,44.77 1271.5,-80 1314.48,-108.07 1332.58,-171.1 1338.94,-200.86"/>
<polygon fill="#9a32cd" stroke="#9a32cd" points="670.88,-39.23 662.1,-45.16 672.66,-46 670.88,-39.23"/>
</a>
</g>
<text text-anchor="middle" x="1029" y="-13.5" font-family="Helvetica,sans-Serif" font-size="10.00" fill="grey"> _materialDescription</text>
</g>
<!-- Node23 -->
<g id="Node000023" class="node">
<title>Node23</title>
<g id="a_Node000023"><a xlink:title=" ">
<polygon fill="white" stroke="#666666" points="379.75,-20 281.25,-20 281.25,0 379.75,0 379.75,-20"/>
<text text-anchor="middle" x="330.5" y="-6.5" font-family="Helvetica,sans-Serif" font-size="10.00">std::vector&lt; vec4 &gt;</text>
</a>
</g>
</g>
<!-- Node23&#45;&gt;Node22 -->
<g id="edge36_Node000022_Node000023" class="edge">
<title>Node23&#45;&gt;Node22</title>
<g id="a_edge36_Node000022_Node000023"><a xlink:title=" ">
<path fill="none" stroke="#9a32cd" stroke-dasharray="5,2" d="M391.31,-13.97C429.06,-17.04 478.75,-22.13 522.25,-30 544.22,-33.97 568.45,-40.2 587.61,-45.56"/>
<polygon fill="#9a32cd" stroke="#9a32cd" points="391.75,-10.49 381.5,-13.2 391.2,-17.47 391.75,-10.49"/>
</a>
</g>
<text text-anchor="middle" x="466" y="-32.5" font-family="Helvetica,sans-Serif" font-size="10.00" fill="grey"> _textureColor</text>
</g>
</g>
</svg>
