<?xml version="1.0" encoding="UTF-8" standalone="no"?>
<!DOCTYPE svg PUBLIC "-//W3C//DTD SVG 1.1//EN"
 "http://www.w3.org/Graphics/SVG/1.1/DTD/svg11.dtd">
<!-- Generated by graphviz version 10.0.1 (20240210.2158)
 -->
<!-- Title: GEU::GPUResources::clearResource Pages: 1 -->
<svg width="430pt" height="140pt"
 viewBox="0.00 0.00 429.50 140.00" xmlns="http://www.w3.org/2000/svg" xmlns:xlink="http://www.w3.org/1999/xlink">
<g id="graph0" class="graph" transform="scale(1 1) rotate(0) translate(4 136)">
<title>GEU::GPUResources::clearResource</title>
<!-- Node1 -->
<g id="Node000001" class="node">
<title>Node1</title>
<g id="a_Node000001"><a xlink:title=" ">
<polygon fill="#999999" stroke="#666666" points="421.5,-82 305,-82 305,-50 421.5,-50 421.5,-82"/>
<text text-anchor="start" x="313" y="-68.5" font-family="Helvetica,sans-Serif" font-size="10.00">GEU::GPUResources::</text>
<text text-anchor="middle" x="363.25" y="-56.5" font-family="Helvetica,sans-Serif" font-size="10.00">clearResource</text>
</a>
</g>
</g>
<!-- Node2 -->
<g id="Node000002" class="node">
<title>Node2</title>
<g id="a_Node000002"><a xlink:href="../../d7/d07/a01668.html#a18c1afd138520510cedf3a5a7709b31b" target="_top" xlink:title=" ">
<polygon fill="white" stroke="#666666" points="269,-132 152.5,-132 152.5,-100 269,-100 269,-132"/>
<text text-anchor="start" x="160.5" y="-118.5" font-family="Helvetica,sans-Serif" font-size="10.00">GEU::GPUResources::</text>
<text text-anchor="middle" x="210.75" y="-106.5" font-family="Helvetica,sans-Serif" font-size="10.00">clearResources</text>
</a>
</g>
</g>
<!-- Node1&#45;&gt;Node2 -->
<g id="edge1_Node000001_Node000002" class="edge">
<title>Node1&#45;&gt;Node2</title>
<g id="a_edge1_Node000001_Node000002"><a xlink:title=" ">
<path fill="none" stroke="#63b8ff" d="M302.28,-85.92C288.72,-90.43 274.47,-95.16 261.4,-99.51"/>
<polygon fill="#63b8ff" stroke="#63b8ff" points="303.15,-89.32 311.53,-82.85 300.94,-82.68 303.15,-89.32"/>
</a>
</g>
</g>
<!-- Node4 -->
<g id="Node000004" class="node">
<title>Node4</title>
<g id="a_Node000004"><a xlink:href="../../d7/d07/a01668.html#add637910eeb07649f3331aa3d5933129" target="_top" xlink:title=" ">
<polygon fill="white" stroke="#666666" points="269,-82 152.5,-82 152.5,-50 269,-50 269,-82"/>
<text text-anchor="start" x="160.5" y="-68.5" font-family="Helvetica,sans-Serif" font-size="10.00">GEU::GPUResources::</text>
<text text-anchor="middle" x="210.75" y="-56.5" font-family="Helvetica,sans-Serif" font-size="10.00">reserveGPUMemory</text>
</a>
</g>
</g>
<!-- Node1&#45;&gt;Node4 -->
<g id="edge3_Node000001_Node000004" class="edge">
<title>Node1&#45;&gt;Node4</title>
<g id="a_edge3_Node000001_Node000004"><a xlink:title=" ">
<path fill="none" stroke="#63b8ff" d="M293.6,-66C285.52,-66 277.33,-66 269.42,-66"/>
<polygon fill="#63b8ff" stroke="#63b8ff" points="293.41,-69.5 303.41,-66 293.41,-62.5 293.41,-69.5"/>
</a>
</g>
</g>
<!-- Node5 -->
<g id="Node000005" class="node">
<title>Node5</title>
<g id="a_Node000005"><a xlink:href="../../d7/d07/a01668.html#ab7dc4af355df812aaddbc32ff6678026" target="_top" xlink:title=" ">
<polygon fill="white" stroke="#666666" points="269,-32 152.5,-32 152.5,0 269,0 269,-32"/>
<text text-anchor="start" x="160.5" y="-18.5" font-family="Helvetica,sans-Serif" font-size="10.00">GEU::GPUResources::</text>
<text text-anchor="middle" x="210.75" y="-6.5" font-family="Helvetica,sans-Serif" font-size="10.00">uploadToGPU</text>
</a>
</g>
</g>
<!-- Node1&#45;&gt;Node5 -->
<g id="edge4_Node000001_Node000005" class="edge">
<title>Node1&#45;&gt;Node5</title>
<g id="a_edge4_Node000001_Node000005"><a xlink:title=" ">
<path fill="none" stroke="#63b8ff" d="M302.28,-46.08C288.72,-41.57 274.47,-36.84 261.4,-32.49"/>
<polygon fill="#63b8ff" stroke="#63b8ff" points="300.94,-49.32 311.53,-49.15 303.15,-42.68 300.94,-49.32"/>
</a>
</g>
</g>
<!-- Node3 -->
<g id="Node000003" class="node">
<title>Node3</title>
<g id="a_Node000003"><a xlink:href="../../d7/d07/a01668.html#aca2e5597a6ab11f5349e160c508077cf" target="_top" xlink:title=" ">
<polygon fill="white" stroke="#666666" points="116.5,-132 0,-132 0,-100 116.5,-100 116.5,-132"/>
<text text-anchor="start" x="8" y="-118.5" font-family="Helvetica,sans-Serif" font-size="10.00">GEU::GPUResources::</text>
<text text-anchor="middle" x="58.25" y="-106.5" font-family="Helvetica,sans-Serif" font-size="10.00">~GPUResources</text>
</a>
</g>
</g>
<!-- Node2&#45;&gt;Node3 -->
<g id="edge2_Node000002_Node000003" class="edge">
<title>Node2&#45;&gt;Node3</title>
<g id="a_edge2_Node000002_Node000003"><a xlink:title=" ">
<path fill="none" stroke="#63b8ff" d="M141.1,-116C133.02,-116 124.83,-116 116.92,-116"/>
<polygon fill="#63b8ff" stroke="#63b8ff" points="140.91,-119.5 150.91,-116 140.91,-112.5 140.91,-119.5"/>
</a>
</g>
</g>
</g>
</svg>
