<?xml version="1.0" encoding="UTF-8" standalone="no"?>
<!DOCTYPE svg PUBLIC "-//W3C//DTD SVG 1.1//EN"
 "http://www.w3.org/Graphics/SVG/1.1/DTD/svg11.dtd">
<!-- Generated by graphviz version 10.0.1 (20240210.2158)
 -->
<!-- Title: GEU::ThermalAugment::augmentCloud Pages: 1 -->
<svg width="311pt" height="104pt"
 viewBox="0.00 0.00 310.75 104.00" xmlns="http://www.w3.org/2000/svg" xmlns:xlink="http://www.w3.org/1999/xlink">
<g id="graph0" class="graph" transform="scale(1 1) rotate(0) translate(4 100)">
<title>GEU::ThermalAugment::augmentCloud</title>
<!-- Node1 -->
<g id="Node000001" class="node">
<title>Node1</title>
<g id="a_Node000001"><a xlink:title=" ">
<polygon fill="#999999" stroke="#666666" points="116.5,-64 0,-64 0,-32 116.5,-32 116.5,-64"/>
<text text-anchor="start" x="8" y="-50.5" font-family="Helvetica,sans-Serif" font-size="10.00">GEU::ThermalAugment</text>
<text text-anchor="middle" x="58.25" y="-38.5" font-family="Helvetica,sans-Serif" font-size="10.00">::augmentCloud</text>
</a>
</g>
</g>
<!-- Node2 -->
<g id="Node000002" class="node">
<title>Node2</title>
<g id="a_Node000002"><a xlink:href="../../dc/d07/class_a_a_b_b.html#ae60d0132c0c5d96ddb455024a40b6bde" target="_top" xlink:title=" ">
<polygon fill="white" stroke="#666666" points="265.62,-96 189.62,-96 189.62,-76 265.62,-76 265.62,-96"/>
<text text-anchor="middle" x="227.62" y="-82.5" font-family="Helvetica,sans-Serif" font-size="10.00">AABB::center</text>
</a>
</g>
</g>
<!-- Node1&#45;&gt;Node2 -->
<g id="edge1_Node000001_Node000002" class="edge">
<title>Node1&#45;&gt;Node2</title>
<g id="a_edge1_Node000001_Node000002"><a xlink:title=" ">
<path fill="none" stroke="#63b8ff" d="M116.85,-61.08C136.76,-65.6 158.85,-70.61 177.97,-74.95"/>
<polygon fill="#63b8ff" stroke="#63b8ff" points="177.14,-78.35 187.66,-77.15 178.69,-71.53 177.14,-78.35"/>
</a>
</g>
</g>
<!-- Node3 -->
<g id="Node000003" class="node">
<title>Node3</title>
<g id="a_Node000003"><a xlink:href="../../d0/d07/class_env_point_cloud.html#ad0139c1cd01f5c17a2ceccb7a44c7d23" target="_top" xlink:title=" ">
<polygon fill="white" stroke="#666666" points="289.25,-58 166,-58 166,-38 289.25,-38 289.25,-58"/>
<text text-anchor="middle" x="227.62" y="-44.5" font-family="Helvetica,sans-Serif" font-size="10.00">EnvPointCloud::getCloud</text>
</a>
</g>
</g>
<!-- Node1&#45;&gt;Node3 -->
<g id="edge2_Node000001_Node000003" class="edge">
<title>Node1&#45;&gt;Node3</title>
<g id="a_edge2_Node000001_Node000003"><a xlink:title=" ">
<path fill="none" stroke="#63b8ff" d="M116.85,-48C128.94,-48 141.84,-48 154.39,-48"/>
<polygon fill="#63b8ff" stroke="#63b8ff" points="154.27,-51.5 164.27,-48 154.27,-44.5 154.27,-51.5"/>
</a>
</g>
</g>
<!-- Node4 -->
<g id="Node000004" class="node">
<title>Node4</title>
<g id="a_Node000004"><a xlink:href="../../d2/d03/classunibn_1_1_octree.html#ad61d132971077431a0cb78fca6fd6c82" target="_top" xlink:title="radius neighbor queries where radius determines the maximal radius of reported indices of points in r...">
<polygon fill="white" stroke="#666666" points="302.75,-20 152.5,-20 152.5,0 302.75,0 302.75,-20"/>
<text text-anchor="middle" x="227.62" y="-6.5" font-family="Helvetica,sans-Serif" font-size="10.00">unibn::Octree::radiusNeighbors</text>
</a>
</g>
</g>
<!-- Node1&#45;&gt;Node4 -->
<g id="edge3_Node000001_Node000004" class="edge">
<title>Node1&#45;&gt;Node4</title>
<g id="a_edge3_Node000001_Node000004"><a xlink:title=" ">
<path fill="none" stroke="#63b8ff" d="M116.85,-34.92C133.92,-31.05 152.59,-26.81 169.62,-22.94"/>
<polygon fill="#63b8ff" stroke="#63b8ff" points="170.08,-26.43 179.06,-20.8 168.53,-19.6 170.08,-26.43"/>
</a>
</g>
</g>
</g>
</svg>
