<?xml version="1.0" encoding="UTF-8" standalone="no"?>
<!DOCTYPE svg PUBLIC "-//W3C//DTD SVG 1.1//EN"
 "http://www.w3.org/Graphics/SVG/1.1/DTD/svg11.dtd">
<!-- Generated by graphviz version 10.0.1 (20240210.2158)
 -->
<!-- Title: GEU::ThermalAugment::readCameraExternalCalibratedParameters Pages: 1 -->
<svg width="345pt" height="66pt"
 viewBox="0.00 0.00 344.50 66.00" xmlns="http://www.w3.org/2000/svg" xmlns:xlink="http://www.w3.org/1999/xlink">
<g id="graph0" class="graph" transform="scale(1 1) rotate(0) translate(4 62)">
<title>GEU::ThermalAugment::readCameraExternalCalibratedParameters</title>
<!-- Node1 -->
<g id="Node000001" class="node">
<title>Node1</title>
<g id="a_Node000001"><a xlink:title=" ">
<polygon fill="#999999" stroke="#666666" points="154,-51 0,-51 0,-7 154,-7 154,-51"/>
<text text-anchor="start" x="8" y="-37.5" font-family="Helvetica,sans-Serif" font-size="10.00">GEU::ThermalAugment</text>
<text text-anchor="start" x="8" y="-25.5" font-family="Helvetica,sans-Serif" font-size="10.00">::readCameraExternalCalibrated</text>
<text text-anchor="middle" x="77" y="-13.5" font-family="Helvetica,sans-Serif" font-size="10.00">Parameters</text>
</a>
</g>
</g>
<!-- Node2 -->
<g id="Node000002" class="node">
<title>Node2</title>
<g id="a_Node000002"><a xlink:href="../../d2/d05/namespace_file_management.html#a6dffc87f3fe241244259c8d0a1d3823e" target="_top" xlink:title=" ">
<polygon fill="white" stroke="#666666" points="336.5,-58 190,-58 190,-38 336.5,-38 336.5,-58"/>
<text text-anchor="middle" x="263.25" y="-44.5" font-family="Helvetica,sans-Serif" font-size="10.00">FileManagement::clearTokens</text>
</a>
</g>
</g>
<!-- Node1&#45;&gt;Node2 -->
<g id="edge1_Node000001_Node000002" class="edge">
<title>Node1&#45;&gt;Node2</title>
<g id="a_edge1_Node000001_Node000002"><a xlink:title=" ">
<path fill="none" stroke="#63b8ff" d="M154.27,-36.87C162.21,-37.68 170.31,-38.52 178.33,-39.35"/>
<polygon fill="#63b8ff" stroke="#63b8ff" points="177.78,-42.81 188.08,-40.35 178.49,-35.84 177.78,-42.81"/>
</a>
</g>
</g>
<!-- Node3 -->
<g id="Node000003" class="node">
<title>Node3</title>
<g id="a_Node000003"><a xlink:href="../../d2/d05/namespace_file_management.html#a638abbc3d621b188f3d8aacc9f218353" target="_top" xlink:title=" ">
<polygon fill="white" stroke="#666666" points="335.38,-20 191.12,-20 191.12,0 335.38,0 335.38,-20"/>
<text text-anchor="middle" x="263.25" y="-6.5" font-family="Helvetica,sans-Serif" font-size="10.00">FileManagement::readTokens</text>
</a>
</g>
</g>
<!-- Node1&#45;&gt;Node3 -->
<g id="edge2_Node000001_Node000003" class="edge">
<title>Node1&#45;&gt;Node3</title>
<g id="a_edge2_Node000001_Node000003"><a xlink:title=" ">
<path fill="none" stroke="#63b8ff" d="M154.27,-21.13C162.58,-20.28 171.06,-19.4 179.43,-18.54"/>
<polygon fill="#63b8ff" stroke="#63b8ff" points="179.67,-22.03 189.26,-17.53 178.95,-15.07 179.67,-22.03"/>
</a>
</g>
</g>
</g>
</svg>
