<?xml version="1.0" encoding="UTF-8" standalone="no"?>
<!DOCTYPE svg PUBLIC "-//W3C//DTD SVG 1.1//EN"
 "http://www.w3.org/Graphics/SVG/1.1/DTD/svg11.dtd">
<!-- Generated by graphviz version 10.0.1 (20240210.2158)
 -->
<!-- Title: GEU::ThermalAugment::readCameraOffset Pages: 1 -->
<svg width="307pt" height="66pt"
 viewBox="0.00 0.00 307.00 66.00" xmlns="http://www.w3.org/2000/svg" xmlns:xlink="http://www.w3.org/1999/xlink">
<g id="graph0" class="graph" transform="scale(1 1) rotate(0) translate(4 62)">
<title>GEU::ThermalAugment::readCameraOffset</title>
<!-- Node1 -->
<g id="Node000001" class="node">
<title>Node1</title>
<g id="a_Node000001"><a xlink:title=" ">
<polygon fill="#999999" stroke="#666666" points="116.5,-45 0,-45 0,-13 116.5,-13 116.5,-45"/>
<text text-anchor="start" x="8" y="-31.5" font-family="Helvetica,sans-Serif" font-size="10.00">GEU::ThermalAugment</text>
<text text-anchor="middle" x="58.25" y="-19.5" font-family="Helvetica,sans-Serif" font-size="10.00">::readCameraOffset</text>
</a>
</g>
</g>
<!-- Node2 -->
<g id="Node000002" class="node">
<title>Node2</title>
<g id="a_Node000002"><a xlink:href="../../d2/d05/namespace_file_management.html#a6dffc87f3fe241244259c8d0a1d3823e" target="_top" xlink:title=" ">
<polygon fill="white" stroke="#666666" points="299,-58 152.5,-58 152.5,-38 299,-38 299,-58"/>
<text text-anchor="middle" x="225.75" y="-44.5" font-family="Helvetica,sans-Serif" font-size="10.00">FileManagement::clearTokens</text>
</a>
</g>
</g>
<!-- Node1&#45;&gt;Node2 -->
<g id="edge1_Node000001_Node000002" class="edge">
<title>Node1&#45;&gt;Node2</title>
<g id="a_edge1_Node000001_Node000002"><a xlink:title=" ">
<path fill="none" stroke="#63b8ff" d="M116.67,-35.59C124.56,-36.5 132.8,-37.44 141.05,-38.39"/>
<polygon fill="#63b8ff" stroke="#63b8ff" points="140.43,-41.84 150.77,-39.51 141.23,-34.89 140.43,-41.84"/>
</a>
</g>
</g>
<!-- Node3 -->
<g id="Node000003" class="node">
<title>Node3</title>
<g id="a_Node000003"><a xlink:href="../../d2/d05/namespace_file_management.html#a638abbc3d621b188f3d8aacc9f218353" target="_top" xlink:title=" ">
<polygon fill="white" stroke="#666666" points="297.88,-20 153.62,-20 153.62,0 297.88,0 297.88,-20"/>
<text text-anchor="middle" x="225.75" y="-6.5" font-family="Helvetica,sans-Serif" font-size="10.00">FileManagement::readTokens</text>
</a>
</g>
</g>
<!-- Node1&#45;&gt;Node3 -->
<g id="edge2_Node000001_Node000003" class="edge">
<title>Node1&#45;&gt;Node3</title>
<g id="a_edge2_Node000001_Node000003"><a xlink:title=" ">
<path fill="none" stroke="#63b8ff" d="M116.67,-22.41C124.85,-21.47 133.39,-20.49 141.94,-19.51"/>
<polygon fill="#63b8ff" stroke="#63b8ff" points="142.1,-23.01 151.64,-18.39 141.3,-16.06 142.1,-23.01"/>
</a>
</g>
</g>
</g>
</svg>
