<?xml version="1.0" encoding="UTF-8" standalone="no"?>
<!DOCTYPE svg PUBLIC "-//W3C//DTD SVG 1.1//EN"
 "http://www.w3.org/Graphics/SVG/1.1/DTD/svg11.dtd">
<!-- Generated by graphviz version 10.0.1 (20240210.2158)
 -->
<!-- Title: AutoUpdater::checkForUpdate Pages: 1 -->
<svg width="527pt" height="172pt"
 viewBox="0.00 0.00 527.00 172.00" xmlns="http://www.w3.org/2000/svg" xmlns:xlink="http://www.w3.org/1999/xlink">
<g id="graph0" class="graph" transform="scale(1 1) rotate(0) translate(4 168)">
<title>AutoUpdater::checkForUpdate</title>
<!-- Node1 -->
<g id="Node000001" class="node">
<title>Node1</title>
<g id="a_Node000001"><a xlink:title=" ">
<polygon fill="#999999" stroke="#666666" points="147.25,-117 0,-117 0,-97 147.25,-97 147.25,-117"/>
<text text-anchor="middle" x="73.62" y="-103.5" font-family="Helvetica,sans-Serif" font-size="10.00">AutoUpdater::checkForUpdate</text>
</a>
</g>
</g>
<!-- Node2 -->
<g id="Node000002" class="node">
<title>Node2</title>
<g id="a_Node000002"><a xlink:href="../../de/de6/class_g_e_u_1_1_g_u_i.html#a7b3101bbac98cc31f1d02eea41cda857" target="_top" xlink:title="Inserts new popup window to queue.">
<polygon fill="white" stroke="#666666" points="313.62,-164 204.62,-164 204.62,-144 313.62,-144 313.62,-164"/>
<text text-anchor="middle" x="259.12" y="-150.5" font-family="Helvetica,sans-Serif" font-size="10.00">GEU::GUI::addPopup</text>
</a>
</g>
</g>
<!-- Node1&#45;&gt;Node2 -->
<g id="edge1_Node000001_Node000002" class="edge">
<title>Node1&#45;&gt;Node2</title>
<g id="a_edge1_Node000001_Node000002"><a xlink:title=" ">
<path fill="none" stroke="#63b8ff" d="M115.35,-117.43C142.1,-124.28 177.34,-133.31 206.12,-140.68"/>
<polygon fill="#63b8ff" stroke="#63b8ff" points="205.18,-144.05 215.73,-143.14 206.91,-137.27 205.18,-144.05"/>
</a>
</g>
</g>
<!-- Node3 -->
<g id="Node000003" class="node">
<title>Node3</title>
<g id="a_Node000003"><a xlink:href="../../d1/df9/class_g_e_u_1_1_singleton.html#a47c7e7c2110f4cc59c9ff1f5594c366e" target="_top" xlink:title=" ">
<polygon fill="white" stroke="#666666" points="519,-123 371,-123 371,-91 519,-91 519,-123"/>
<text text-anchor="start" x="379" y="-109.5" font-family="Helvetica,sans-Serif" font-size="10.00">GEU::Singleton&lt; NASSession</text>
<text text-anchor="middle" x="445" y="-97.5" font-family="Helvetica,sans-Serif" font-size="10.00"> &gt;::getInstance</text>
</a>
</g>
</g>
<!-- Node1&#45;&gt;Node3 -->
<g id="edge2_Node000001_Node000003" class="edge">
<title>Node1&#45;&gt;Node3</title>
<g id="a_edge2_Node000001_Node000003"><a xlink:title=" ">
<path fill="none" stroke="#63b8ff" d="M147.6,-101.5C208.49,-99.93 295.33,-99.84 359.28,-101.22"/>
<polygon fill="#63b8ff" stroke="#63b8ff" points="358.95,-104.71 369.03,-101.45 359.12,-97.71 358.95,-104.71"/>
</a>
</g>
</g>
<!-- Node1&#45;&gt;Node3 -->
<g id="edge3_Node000001_Node000003" class="edge">
<title>Node1&#45;&gt;Node3</title>
<g id="a_edge3_Node000001_Node000003"><a xlink:title=" ">
<path fill="none" stroke="#63b8ff" d="M147.6,-112.5C208.49,-114.07 295.33,-114.16 359.28,-112.78"/>
<polygon fill="#63b8ff" stroke="#63b8ff" points="359.12,-116.29 369.03,-112.55 358.95,-109.29 359.12,-116.29"/>
</a>
</g>
</g>
<!-- Node4 -->
<g id="Node000004" class="node">
<title>Node4</title>
<g id="a_Node000004"><a xlink:href="../../d2/dfb/class_g_e_u_1_1_n_a_s_session.html#aab7e02581d64801797d4e1799c0a4137" target="_top" xlink:title="Downloads remote file to a string.">
<polygon fill="white" stroke="#666666" points="335,-70 183.25,-70 183.25,-38 335,-38 335,-70"/>
<text text-anchor="start" x="191.25" y="-56.5" font-family="Helvetica,sans-Serif" font-size="10.00">GEU::NASSession::getRemote</text>
<text text-anchor="middle" x="259.12" y="-44.5" font-family="Helvetica,sans-Serif" font-size="10.00">FileAsFileStream</text>
</a>
</g>
</g>
<!-- Node1&#45;&gt;Node4 -->
<g id="edge4_Node000001_Node000004" class="edge">
<title>Node1&#45;&gt;Node4</title>
<g id="a_edge4_Node000001_Node000004"><a xlink:title=" ">
<path fill="none" stroke="#63b8ff" d="M110.88,-96.53C133.55,-89.98 163.47,-81.34 190.41,-73.56"/>
<polygon fill="#63b8ff" stroke="#63b8ff" points="191.26,-76.95 199.9,-70.82 189.32,-70.23 191.26,-76.95"/>
</a>
</g>
</g>
<!-- Node6 -->
<g id="Node000006" class="node">
<title>Node6</title>
<g id="a_Node000006"><a xlink:href="../../d2/dfb/class_g_e_u_1_1_n_a_s_session.html#a865fbe49cfb77213703237ce479c33f6" target="_top" xlink:title="Handles NAS login API request.">
<polygon fill="white" stroke="#666666" points="321.5,-20 196.75,-20 196.75,0 321.5,0 321.5,-20"/>
<text text-anchor="middle" x="259.12" y="-6.5" font-family="Helvetica,sans-Serif" font-size="10.00">GEU::NASSession::logIn</text>
</a>
</g>
</g>
<!-- Node1&#45;&gt;Node6 -->
<g id="edge7_Node000001_Node000006" class="edge">
<title>Node1&#45;&gt;Node6</title>
<g id="a_edge7_Node000001_Node000006"><a xlink:title=" ">
<path fill="none" stroke="#63b8ff" d="M86.07,-96.51C104.92,-79.79 144.31,-47.12 183.25,-29 187.24,-27.14 191.44,-25.45 195.72,-23.91"/>
<polygon fill="#63b8ff" stroke="#63b8ff" points="196.64,-27.29 205.05,-20.86 194.46,-20.64 196.64,-27.29"/>
</a>
</g>
</g>
<!-- Node4&#45;&gt;Node3 -->
<g id="edge5_Node000004_Node000003" class="edge">
<title>Node4&#45;&gt;Node3</title>
<g id="a_edge5_Node000004_Node000003"><a xlink:title=" ">
<path fill="none" stroke="#63b8ff" d="M317.3,-70.48C335.89,-75.84 356.71,-81.84 376.01,-87.4"/>
<polygon fill="#63b8ff" stroke="#63b8ff" points="374.83,-90.71 385.41,-90.11 376.77,-83.98 374.83,-90.71"/>
</a>
</g>
</g>
<!-- Node5 -->
<g id="Node000005" class="node">
<title>Node5</title>
<g id="a_Node000005"><a xlink:href="../../d2/d0c/class_locale_strings.html#a90f2903c439af79e6af28892f8f9c139" target="_top" xlink:title=" ">
<polygon fill="white" stroke="#666666" points="505.12,-64 384.88,-64 384.88,-44 505.12,-44 505.12,-64"/>
<text text-anchor="middle" x="445" y="-50.5" font-family="Helvetica,sans-Serif" font-size="10.00">LocaleStrings::getString</text>
</a>
</g>
</g>
<!-- Node4&#45;&gt;Node5 -->
<g id="edge6_Node000004_Node000005" class="edge">
<title>Node4&#45;&gt;Node5</title>
<g id="a_edge6_Node000004_Node000005"><a xlink:title=" ">
<path fill="none" stroke="#63b8ff" d="M335.44,-54C347.97,-54 360.93,-54 373.34,-54"/>
<polygon fill="#63b8ff" stroke="#63b8ff" points="373.04,-57.5 383.04,-54 373.04,-50.5 373.04,-57.5"/>
</a>
</g>
</g>
</g>
</svg>
