<?xml version="1.0" encoding="UTF-8" standalone="no"?>
<!DOCTYPE svg PUBLIC "-//W3C//DTD SVG 1.1//EN"
 "http://www.w3.org/Graphics/SVG/1.1/DTD/svg11.dtd">
<!-- Generated by graphviz version 10.0.1 (20240210.2158)
 -->
<!-- Title: GEU::VAO::Point::get8BitRGBColor Pages: 1 -->
<svg width="484pt" height="290pt"
 viewBox="0.00 0.00 484.25 290.00" xmlns="http://www.w3.org/2000/svg" xmlns:xlink="http://www.w3.org/1999/xlink">
<g id="graph0" class="graph" transform="scale(1 1) rotate(0) translate(4 286)">
<title>GEU::VAO::Point::get8BitRGBColor</title>
<!-- Node1 -->
<g id="Node000001" class="node">
<title>Node1</title>
<g id="a_Node000001"><a xlink:title=" ">
<polygon fill="#999999" stroke="#666666" points="476.25,-138 347,-138 347,-106 476.25,-106 476.25,-138"/>
<text text-anchor="start" x="355" y="-124.5" font-family="Helvetica,sans-Serif" font-size="10.00">GEU::VAO::Point::get8Bit</text>
<text text-anchor="middle" x="411.62" y="-112.5" font-family="Helvetica,sans-Serif" font-size="10.00">RGBColor</text>
</a>
</g>
</g>
<!-- Node2 -->
<g id="Node000002" class="node">
<title>Node2</title>
<g id="a_Node000002"><a xlink:href="../../dd/d07/a01868.html#ad9c308882e7e55a84874880c56515c92" target="_top" xlink:title=" ">
<polygon fill="white" stroke="#666666" points="308.75,-189 174.25,-189 174.25,-169 308.75,-169 308.75,-189"/>
<text text-anchor="middle" x="241.5" y="-175.5" font-family="Helvetica,sans-Serif" font-size="10.00">GEU::FileManager::loadPly</text>
</a>
</g>
</g>
<!-- Node1&#45;&gt;Node2 -->
<g id="edge1_Node000001_Node000002" class="edge">
<title>Node1&#45;&gt;Node2</title>
<g id="a_edge1_Node000001_Node000002"><a xlink:title=" ">
<path fill="none" stroke="#63b8ff" d="M359.76,-142.46C344.22,-148.42 327,-154.74 311,-160 301.85,-163.01 291.92,-165.94 282.53,-168.58"/>
<polygon fill="#63b8ff" stroke="#63b8ff" points="360.75,-145.83 368.81,-138.95 358.22,-139.3 360.75,-145.83"/>
</a>
</g>
</g>
<!-- Node3 -->
<g id="Node000003" class="node">
<title>Node3</title>
<g id="a_Node000003"><a xlink:href="../../d3/d02/a01796.html#a4234196f8be419dba1c3ca4468adaa02" target="_top" xlink:title="Packs an RGB color into an unsigned value.">
<polygon fill="white" stroke="#666666" points="311,-151 172,-151 172,-131 311,-131 311,-151"/>
<text text-anchor="middle" x="241.5" y="-137.5" font-family="Helvetica,sans-Serif" font-size="10.00">GEU::VAO::Point::saveRGB</text>
</a>
</g>
</g>
<!-- Node1&#45;&gt;Node3 -->
<g id="edge2_Node000001_Node000003" class="edge">
<title>Node1&#45;&gt;Node3</title>
<g id="a_edge2_Node000001_Node000003"><a xlink:title=" ">
<path fill="none" stroke="#63b8ff" d="M335.39,-130.5C327.41,-131.4 319.31,-132.32 311.4,-133.21"/>
<polygon fill="#63b8ff" stroke="#63b8ff" points="335.54,-134.01 345.08,-129.41 334.75,-127.05 335.54,-134.01"/>
</a>
</g>
</g>
<!-- Node10 -->
<g id="Node000010" class="node">
<title>Node10</title>
<g id="a_Node000010"><a xlink:href="../../de/d04/a01640.html#a1a270d2f19a07085ce98eca86d30869a" target="_top" xlink:title="Sustituye el vector actual del color indicado por el nuevo.">
<polygon fill="white" stroke="#666666" points="307.62,-113 175.38,-113 175.38,-93 307.62,-93 307.62,-113"/>
<text text-anchor="middle" x="241.5" y="-99.5" font-family="Helvetica,sans-Serif" font-size="10.00">GEU::PointCloud::setColor</text>
</a>
</g>
</g>
<!-- Node1&#45;&gt;Node10 -->
<g id="edge9_Node000001_Node000010" class="edge">
<title>Node1&#45;&gt;Node10</title>
<g id="a_edge9_Node000001_Node000010"><a xlink:title=" ">
<path fill="none" stroke="#63b8ff" d="M335.21,-113.48C326.14,-112.45 316.94,-111.41 308.04,-110.41"/>
<polygon fill="#63b8ff" stroke="#63b8ff" points="334.75,-116.95 345.08,-114.59 335.54,-109.99 334.75,-116.95"/>
</a>
</g>
</g>
<!-- Node11 -->
<g id="Node000011" class="node">
<title>Node11</title>
<g id="a_Node000011"><a xlink:href="../../de/d04/a01640.html#a555018876cbe1c71475f0e940491878f" target="_top" xlink:title="Sustituye el vector actual del color indicado por el nuevo.">
<polygon fill="white" stroke="#666666" points="307.62,-75 175.38,-75 175.38,-55 307.62,-55 307.62,-75"/>
<text text-anchor="middle" x="241.5" y="-61.5" font-family="Helvetica,sans-Serif" font-size="10.00">GEU::PointCloud::setColor</text>
</a>
</g>
</g>
<!-- Node1&#45;&gt;Node11 -->
<g id="edge10_Node000001_Node000011" class="edge">
<title>Node1&#45;&gt;Node11</title>
<g id="a_edge10_Node000001_Node000011"><a xlink:title=" ">
<path fill="none" stroke="#63b8ff" d="M359.76,-101.54C344.22,-95.58 327,-89.26 311,-84 301.85,-80.99 291.92,-78.06 282.53,-75.42"/>
<polygon fill="#63b8ff" stroke="#63b8ff" points="358.22,-104.7 368.81,-105.05 360.75,-98.17 358.22,-104.7"/>
</a>
</g>
</g>
<!-- Node4 -->
<g id="Node000004" class="node">
<title>Node4</title>
<g id="a_Node000004"><a xlink:href="../../de/d05/a02072.html#a02559507d7f291afc43075aa49bbdbfe" target="_top" xlink:title=" ">
<polygon fill="white" stroke="#666666" points="136,-282 0,-282 0,-250 136,-250 136,-282"/>
<text text-anchor="start" x="8" y="-268.5" font-family="Helvetica,sans-Serif" font-size="10.00">GEU::ImageCloudProj</text>
<text text-anchor="middle" x="68" y="-256.5" font-family="Helvetica,sans-Serif" font-size="10.00">::colorRegularMeshByMean</text>
</a>
</g>
</g>
<!-- Node3&#45;&gt;Node4 -->
<g id="edge3_Node000003_Node000004" class="edge">
<title>Node3&#45;&gt;Node4</title>
<g id="a_edge3_Node000003_Node000004"><a xlink:title=" ">
<path fill="none" stroke="#63b8ff" d="M175.93,-156.93C174.57,-157.9 173.26,-158.92 172,-160 142.16,-185.73 164.69,-214.01 136,-241 132.56,-244.23 128.67,-247.06 124.53,-249.52"/>
<polygon fill="#63b8ff" stroke="#63b8ff" points="177.3,-160.18 184.19,-152.13 173.78,-154.13 177.3,-160.18"/>
</a>
</g>
</g>
<!-- Node5 -->
<g id="Node000005" class="node">
<title>Node5</title>
<g id="a_Node000005"><a xlink:href="../../de/d05/a02072.html#a50053abf8153350b563d06d390254608" target="_top" xlink:title="Compare Rasters.">
<polygon fill="white" stroke="#666666" points="123.62,-232 12.38,-232 12.38,-200 123.62,-200 123.62,-232"/>
<text text-anchor="start" x="20.38" y="-218.5" font-family="Helvetica,sans-Serif" font-size="10.00">GEU::ImageCloudProj</text>
<text text-anchor="middle" x="68" y="-206.5" font-family="Helvetica,sans-Serif" font-size="10.00">::compareRasters</text>
</a>
</g>
</g>
<!-- Node3&#45;&gt;Node5 -->
<g id="edge4_Node000003_Node000005" class="edge">
<title>Node3&#45;&gt;Node5</title>
<g id="a_edge4_Node000003_Node000005"><a xlink:title=" ">
<path fill="none" stroke="#63b8ff" d="M181.56,-155.48C178.27,-156.86 175.06,-158.37 172,-160 153.38,-169.95 154.17,-180.25 136,-191 130.66,-194.16 124.84,-197.04 118.95,-199.63"/>
<polygon fill="#63b8ff" stroke="#63b8ff" points="182.73,-158.78 190.87,-151.99 180.28,-152.22 182.73,-158.78"/>
</a>
</g>
</g>
<!-- Node6 -->
<g id="Node000006" class="node">
<title>Node6</title>
<g id="a_Node000006"><a xlink:href="../../da/d06/a02084.html#a5e5a6ec203139618f54a6479cc12dd56" target="_top" xlink:title=" ">
<polygon fill="white" stroke="#666666" points="134.12,-182 1.88,-182 1.88,-150 134.12,-150 134.12,-182"/>
<text text-anchor="start" x="9.88" y="-168.5" font-family="Helvetica,sans-Serif" font-size="10.00">GEU::ProceduralGenerator</text>
<text text-anchor="middle" x="68" y="-156.5" font-family="Helvetica,sans-Serif" font-size="10.00">::computeNURBS</text>
</a>
</g>
</g>
<!-- Node3&#45;&gt;Node6 -->
<g id="edge5_Node000003_Node000006" class="edge">
<title>Node3&#45;&gt;Node6</title>
<g id="a_edge5_Node000003_Node000006"><a xlink:title=" ">
<path fill="none" stroke="#63b8ff" d="M160.38,-152.68C151.69,-153.95 142.93,-155.22 134.44,-156.46"/>
<polygon fill="#63b8ff" stroke="#63b8ff" points="160.84,-156.15 170.23,-151.24 159.83,-149.22 160.84,-156.15"/>
</a>
</g>
</g>
<!-- Node7 -->
<g id="Node000007" class="node">
<title>Node7</title>
<g id="a_Node000007"><a xlink:href="../../de/d05/a02072.html#a814dfe726ba7f67eb06dea61174d4fb1" target="_top" xlink:title="Reconstruction Cloud MDT.">
<polygon fill="white" stroke="#666666" points="132.25,-132 3.75,-132 3.75,-100 132.25,-100 132.25,-132"/>
<text text-anchor="start" x="11.75" y="-118.5" font-family="Helvetica,sans-Serif" font-size="10.00">GEU::ImageCloudProj</text>
<text text-anchor="middle" x="68" y="-106.5" font-family="Helvetica,sans-Serif" font-size="10.00">::reconstructionCloudMDT</text>
</a>
</g>
</g>
<!-- Node3&#45;&gt;Node7 -->
<g id="edge6_Node000003_Node000007" class="edge">
<title>Node3&#45;&gt;Node7</title>
<g id="a_edge6_Node000003_Node000007"><a xlink:title=" ">
<path fill="none" stroke="#63b8ff" d="M160.39,-129.32C151.04,-127.96 141.59,-126.58 132.5,-125.26"/>
<polygon fill="#63b8ff" stroke="#63b8ff" points="159.83,-132.78 170.23,-130.76 160.84,-125.85 159.83,-132.78"/>
</a>
</g>
</g>
<!-- Node8 -->
<g id="Node000008" class="node">
<title>Node8</title>
<g id="a_Node000008"><a xlink:href="../../da/d06/a02084.html#a0b38aef5c1b02e9cdf3cff49bd708297" target="_top" xlink:title=" ">
<polygon fill="white" stroke="#666666" points="134.5,-82 1.5,-82 1.5,-50 134.5,-50 134.5,-82"/>
<text text-anchor="start" x="9.5" y="-68.5" font-family="Helvetica,sans-Serif" font-size="10.00">GEU::ProceduralGenerator</text>
<text text-anchor="middle" x="68" y="-56.5" font-family="Helvetica,sans-Serif" font-size="10.00">::RegionRGBSegmentation</text>
</a>
</g>
</g>
<!-- Node3&#45;&gt;Node8 -->
<g id="edge7_Node000003_Node000008" class="edge">
<title>Node3&#45;&gt;Node8</title>
<g id="a_edge7_Node000003_Node000008"><a xlink:title=" ">
<path fill="none" stroke="#63b8ff" d="M181.56,-126.52C178.27,-125.14 175.06,-123.63 172,-122 153.38,-112.05 154.17,-101.75 136,-91 130.66,-87.84 124.84,-84.96 118.95,-82.37"/>
<polygon fill="#63b8ff" stroke="#63b8ff" points="180.28,-129.78 190.87,-130.01 182.73,-123.22 180.28,-129.78"/>
</a>
</g>
</g>
<!-- Node9 -->
<g id="Node000009" class="node">
<title>Node9</title>
<g id="a_Node000009"><a xlink:href="../../db/d00/a02028.html#a2399bf0a76b1d2882c78b0503a2d8720" target="_top" xlink:title=" ">
<polygon fill="white" stroke="#666666" points="123.62,-32 12.38,-32 12.38,0 123.62,0 123.62,-32"/>
<text text-anchor="start" x="20.38" y="-18.5" font-family="Helvetica,sans-Serif" font-size="10.00">GEU::pclConversor::</text>
<text text-anchor="middle" x="68" y="-6.5" font-family="Helvetica,sans-Serif" font-size="10.00">updateFromPCLCloud</text>
</a>
</g>
</g>
<!-- Node3&#45;&gt;Node9 -->
<g id="edge8_Node000003_Node000009" class="edge">
<title>Node3&#45;&gt;Node9</title>
<g id="a_edge8_Node000003_Node000009"><a xlink:title=" ">
<path fill="none" stroke="#63b8ff" d="M175.93,-125.07C174.57,-124.1 173.26,-123.08 172,-122 142.16,-96.27 164.69,-67.99 136,-41 132.38,-37.6 128.26,-34.65 123.88,-32.09"/>
<polygon fill="#63b8ff" stroke="#63b8ff" points="173.78,-127.87 184.19,-129.87 177.3,-121.82 173.78,-127.87"/>
</a>
</g>
</g>
</g>
</svg>
