<?xml version="1.0" encoding="UTF-8" standalone="no"?>
<!DOCTYPE svg PUBLIC "-//W3C//DTD SVG 1.1//EN"
 "http://www.w3.org/Graphics/SVG/1.1/DTD/svg11.dtd">
<!-- Generated by graphviz version 10.0.1 (20240210.2158)
 -->
<!-- Title: GEU::I_GUIWindow Pages: 1 -->
<svg width="303pt" height="332pt"
 viewBox="0.00 0.00 303.25 332.00" xmlns="http://www.w3.org/2000/svg" xmlns:xlink="http://www.w3.org/1999/xlink">
<g id="graph0" class="graph" transform="scale(1 1) rotate(0) translate(4 328)">
<title>GEU::I_GUIWindow</title>
<!-- Node1 -->
<g id="Node000001" class="node">
<title>Node1</title>
<g id="a_Node000001"><a xlink:title="ImGUI window interface adapter class.">
<polygon fill="#999999" stroke="#666666" points="101.5,-172 0,-172 0,-152 101.5,-152 101.5,-172"/>
<text text-anchor="middle" x="50.75" y="-158.5" font-family="Helvetica,sans-Serif" font-size="10.00">GEU::I_GUIWindow</text>
</a>
</g>
</g>
<!-- Node2 -->
<g id="Node000002" class="node">
<title>Node2</title>
<g id="a_Node000002"><a xlink:href="../../d2/d00/a01729.html" target="_top" xlink:title="Camera&#45;based axis window: shows world axis relative to camera movements.">
<polygon fill="white" stroke="#666666" points="281.75,-324 151,-324 151,-304 281.75,-304 281.75,-324"/>
<text text-anchor="middle" x="216.38" y="-310.5" font-family="Helvetica,sans-Serif" font-size="10.00">GEU::CameraAxisWindow</text>
</a>
</g>
</g>
<!-- Node1&#45;&gt;Node2 -->
<g id="edge1_Node000001_Node000002" class="edge">
<title>Node1&#45;&gt;Node2</title>
<g id="a_edge1_Node000001_Node000002"><a xlink:title=" ">
<path fill="none" stroke="#63b8ff" d="M59.27,-182.58C71.16,-212.16 97.19,-266.3 137.5,-295 142.37,-298.47 147.81,-301.31 153.48,-303.64"/>
<polygon fill="#63b8ff" stroke="#63b8ff" points="62.68,-181.7 55.82,-173.62 56.14,-184.21 62.68,-181.7"/>
</a>
</g>
</g>
<!-- Node3 -->
<g id="Node000003" class="node">
<title>Node3</title>
<g id="a_Node000003"><a xlink:href="../../d0/d00/a01745.html" target="_top" xlink:title=" ">
<polygon fill="white" stroke="#666666" points="295.25,-286 137.5,-286 137.5,-266 295.25,-266 295.25,-286"/>
<text text-anchor="middle" x="216.38" y="-272.5" font-family="Helvetica,sans-Serif" font-size="10.00">GEU::DatabaseNewDatoWindow</text>
</a>
</g>
</g>
<!-- Node1&#45;&gt;Node3 -->
<g id="edge2_Node000001_Node000003" class="edge">
<title>Node1&#45;&gt;Node3</title>
<g id="a_edge2_Node000001_Node000003"><a xlink:title=" ">
<path fill="none" stroke="#63b8ff" d="M64.39,-182.02C79.22,-203.83 105.85,-238.12 137.5,-257 143.24,-260.42 149.56,-263.23 156.05,-265.53"/>
<polygon fill="#63b8ff" stroke="#63b8ff" points="67.34,-180.13 58.91,-173.7 61.49,-183.98 67.34,-180.13"/>
</a>
</g>
</g>
<!-- Node4 -->
<g id="Node000004" class="node">
<title>Node4</title>
<g id="a_Node000004"><a xlink:href="../../db/d00/a01761.html" target="_top" xlink:title=" ">
<polygon fill="white" stroke="#666666" points="269,-248 163.75,-248 163.75,-228 269,-228 269,-248"/>
<text text-anchor="middle" x="216.38" y="-234.5" font-family="Helvetica,sans-Serif" font-size="10.00">GEU::DebugWindow</text>
</a>
</g>
</g>
<!-- Node1&#45;&gt;Node4 -->
<g id="edge3_Node000001_Node000004" class="edge">
<title>Node1&#45;&gt;Node4</title>
<g id="a_edge3_Node000001_Node000004"><a xlink:title=" ">
<path fill="none" stroke="#63b8ff" d="M73.17,-179.31C89.81,-191.98 113.96,-208.68 137.5,-219 145.66,-222.57 154.6,-225.55 163.43,-228"/>
<polygon fill="#63b8ff" stroke="#63b8ff" points="75.53,-176.71 65.49,-173.33 71.22,-182.23 75.53,-176.71"/>
</a>
</g>
</g>
<!-- Node5 -->
<g id="Node000005" class="node">
<title>Node5</title>
<g id="a_Node000005"><a xlink:href="../../df/d03/a01765.html" target="_top" xlink:title="Inspector selection details window: allow to manipulate scene contents properties.">
<polygon fill="white" stroke="#666666" points="270.12,-210 162.62,-210 162.62,-190 270.12,-190 270.12,-210"/>
<text text-anchor="middle" x="216.38" y="-196.5" font-family="Helvetica,sans-Serif" font-size="10.00">GEU::DetailsWindow</text>
</a>
</g>
</g>
<!-- Node1&#45;&gt;Node5 -->
<g id="edge4_Node000001_Node000005" class="edge">
<title>Node1&#45;&gt;Node5</title>
<g id="a_edge4_Node000001_Node000005"><a xlink:title=" ">
<path fill="none" stroke="#63b8ff" d="M107.94,-175.05C128.33,-179.78 151.08,-185.07 170.38,-189.55"/>
<polygon fill="#63b8ff" stroke="#63b8ff" points="108.9,-171.68 98.37,-172.83 107.32,-178.5 108.9,-171.68"/>
</a>
</g>
</g>
<!-- Node6 -->
<g id="Node000006" class="node">
<title>Node6</title>
<g id="a_Node000006"><a xlink:href="../../d7/d02/a01805.html" target="_top" xlink:title="Scene inspector window: lists scene contents.">
<polygon fill="white" stroke="#666666" points="275,-172 157.75,-172 157.75,-152 275,-152 275,-172"/>
<text text-anchor="middle" x="216.38" y="-158.5" font-family="Helvetica,sans-Serif" font-size="10.00">GEU::InspectorWindow</text>
</a>
</g>
</g>
<!-- Node1&#45;&gt;Node6 -->
<g id="edge5_Node000001_Node000006" class="edge">
<title>Node1&#45;&gt;Node6</title>
<g id="a_edge5_Node000001_Node000006"><a xlink:title=" ">
<path fill="none" stroke="#63b8ff" d="M113.13,-162C127.62,-162 143.04,-162 157.38,-162"/>
<polygon fill="#63b8ff" stroke="#63b8ff" points="113.25,-158.5 103.25,-162 113.25,-165.5 113.25,-158.5"/>
</a>
</g>
</g>
<!-- Node7 -->
<g id="Node000007" class="node">
<title>Node7</title>
<g id="a_Node000007"><a xlink:href="../../d1/d00/a01813.html" target="_top" xlink:title="Application materials list window: allow material selection for details window.">
<polygon fill="white" stroke="#666666" points="275,-134 157.75,-134 157.75,-114 275,-114 275,-134"/>
<text text-anchor="middle" x="216.38" y="-120.5" font-family="Helvetica,sans-Serif" font-size="10.00">GEU::MaterialsWindow</text>
</a>
</g>
</g>
<!-- Node1&#45;&gt;Node7 -->
<g id="edge6_Node000001_Node000007" class="edge">
<title>Node1&#45;&gt;Node7</title>
<g id="a_edge6_Node000001_Node000007"><a xlink:title=" ">
<path fill="none" stroke="#63b8ff" d="M107.94,-148.95C128.33,-144.22 151.08,-138.93 170.38,-134.45"/>
<polygon fill="#63b8ff" stroke="#63b8ff" points="107.32,-145.5 98.37,-151.17 108.9,-152.32 107.32,-145.5"/>
</a>
</g>
</g>
<!-- Node8 -->
<g id="Node000008" class="node">
<title>Node8</title>
<g id="a_Node000008"><a xlink:href="../../de/d05/a01821.html" target="_top" xlink:title=" ">
<polygon fill="white" stroke="#666666" points="271.25,-96 161.5,-96 161.5,-76 271.25,-76 271.25,-96"/>
<text text-anchor="middle" x="216.38" y="-82.5" font-family="Helvetica,sans-Serif" font-size="10.00">GEU::PickingWindow</text>
</a>
</g>
</g>
<!-- Node1&#45;&gt;Node8 -->
<g id="edge7_Node000001_Node000008" class="edge">
<title>Node1&#45;&gt;Node8</title>
<g id="a_edge7_Node000001_Node000008"><a xlink:title=" ">
<path fill="none" stroke="#63b8ff" d="M73.17,-144.69C89.81,-132.02 113.96,-115.32 137.5,-105 145.15,-101.65 153.49,-98.82 161.78,-96.46"/>
<polygon fill="#63b8ff" stroke="#63b8ff" points="71.22,-141.77 65.49,-150.67 75.53,-147.29 71.22,-141.77"/>
</a>
</g>
</g>
<!-- Node9 -->
<g id="Node000009" class="node">
<title>Node9</title>
<g id="a_Node000009"><a xlink:href="../../df/d06/a01825.html" target="_top" xlink:title="Application settings window: handles application&#45;wide parameters and behaviours.">
<polygon fill="white" stroke="#666666" points="273.12,-58 159.62,-58 159.62,-38 273.12,-38 273.12,-58"/>
<text text-anchor="middle" x="216.38" y="-44.5" font-family="Helvetica,sans-Serif" font-size="10.00">GEU::SettingsWindow</text>
</a>
</g>
</g>
<!-- Node1&#45;&gt;Node9 -->
<g id="edge8_Node000001_Node000009" class="edge">
<title>Node1&#45;&gt;Node9</title>
<g id="a_edge8_Node000001_Node000009"><a xlink:title=" ">
<path fill="none" stroke="#63b8ff" d="M64.39,-141.98C79.22,-120.17 105.85,-85.88 137.5,-67 144.19,-63.01 151.68,-59.85 159.3,-57.36"/>
<polygon fill="#63b8ff" stroke="#63b8ff" points="61.49,-140.02 58.91,-150.3 67.34,-143.87 61.49,-140.02"/>
</a>
</g>
</g>
<!-- Node10 -->
<g id="Node000010" class="node">
<title>Node10</title>
<g id="a_Node000010"><a xlink:href="../../d6/d05/a01829.html" target="_top" xlink:title="Application performance windows: shows graphs and values for current and recent performance.">
<polygon fill="white" stroke="#666666" points="266.75,-20 166,-20 166,0 266.75,0 266.75,-20"/>
<text text-anchor="middle" x="216.38" y="-6.5" font-family="Helvetica,sans-Serif" font-size="10.00">GEU::StatsWindow</text>
</a>
</g>
</g>
<!-- Node1&#45;&gt;Node10 -->
<g id="edge9_Node000001_Node000010" class="edge">
<title>Node1&#45;&gt;Node10</title>
<g id="a_edge9_Node000001_Node000010"><a xlink:title=" ">
<path fill="none" stroke="#63b8ff" d="M59.27,-141.42C71.16,-111.84 97.19,-57.7 137.5,-29 145.78,-23.11 155.66,-19.03 165.57,-16.21"/>
<polygon fill="#63b8ff" stroke="#63b8ff" points="56.14,-139.79 55.82,-150.38 62.68,-142.3 56.14,-139.79"/>
</a>
</g>
</g>
</g>
</svg>
