<?xml version="1.0" encoding="UTF-8" standalone="no"?>
<!DOCTYPE svg PUBLIC "-//W3C//DTD SVG 1.1//EN"
 "http://www.w3.org/Graphics/SVG/1.1/DTD/svg11.dtd">
<!-- Generated by graphviz version 10.0.1 (20240210.2158)
 -->
<!-- Title: C:/GitHub/GEU/GEU/Source/Modules/Multiespectral/MultiespectralGUIAdapter.h Pages: 1 -->
<!--zoomable 612 -->

<svg id="main" version="1.1" xmlns="http://www.w3.org/2000/svg" xmlns:xlink="http://www.w3.org/1999/xlink" xml:space="preserve" onload="init(evt)">
<style type="text/css"><![CDATA[
.node, .edge {opacity: 0.7;}
.node.selected, .edge.selected {opacity: 1;}
.edge:hover path { stroke: red; }
.edge:hover polygon { stroke: red; fill: red; }
]]></style>

<defs>
  <circle id="rim" cx="0" cy="0" r="7"/>
  <circle id="rim2" cx="0" cy="0" r="3.5"/>
  <g id="zoomPlus">
    <use xlink:href="#rim" fill="#404040"><set attributeName="fill" to="#808080" begin="zoomplus.mouseover" end="zoomplus.mouseout"/></use>
    <path d="M-4,0h8M0,-4v8" fill="none" stroke="white" stroke-width="1.5" pointer-events="none"/>
  </g>
  <g id="zoomMin">
    <use xlink:href="#rim" fill="#404040"><set attributeName="fill" to="#808080" begin="zoomminus.mouseover" end="zoomminus.mouseout"/></use>
    <path d="M-4,0h8" fill="none" stroke="white" stroke-width="1.5" pointer-events="none"/>
  </g>
  <g id="arrowUp" transform="translate(30 24)">
    <use xlink:href="#rim"/>
    <path pointer-events="none" fill="none" stroke="white" stroke-width="1.5" d="M0,-3.0v7 M-2.5,-0.5L0,-3.0L2.5,-0.5"/>
  </g>
  <g id="arrowRight" transform="rotate(90) translate(36 -43)">
    <use xlink:href="#rim"/>
    <path pointer-events="none" fill="none" stroke="white" stroke-width="1.5" d="M0,-3.0v7 M-2.5,-0.5L0,-3.0L2.5,-0.5"/>
  </g>
  <g id="arrowDown" transform="rotate(180) translate(-30 -48)">
    <use xlink:href="#rim"/>
    <path pointer-events="none" fill="none" stroke="white" stroke-width="1.5" d="M0,-3.0v7 M-2.5,-0.5L0,-3.0L2.5,-0.5"/>
  </g>
  <g id="arrowLeft" transform="rotate(270) translate(-36 17)">
    <use xlink:href="#rim"/>
    <path pointer-events="none" fill="none" stroke="white" stroke-width="1.5" d="M0,-3.0v7 M-2.5,-0.5L0,-3.0L2.5,-0.5"/>
  </g>
  <g id="resetDef">
    <use xlink:href="#rim2" fill="#404040"><set attributeName="fill" to="#808080" begin="reset.mouseover" end="reset.mouseout"/></use>
  </g>
</defs>
<script type="application/ecmascript">
var viewWidth = 943;
var viewHeight = 612;
var sectionId = 'dynsection-0';
</script>
<script type="application/ecmascript" xlink:href="../../svg.min.js"/>
<svg id="graph" class="graph">
<g id="viewport">
<title>C:/GitHub/GEU/GEU/Source/Modules/Multiespectral/MultiespectralGUIAdapter.h</title>
<!-- Node1 -->
<g id="Node000001" class="node">
<title>Node1</title>
<g id="a_Node000001"><a xlink:title=" ">
<polygon fill="#999999" stroke="#666666" points="383.5,-604 243,-604 243,-560 383.5,-560 383.5,-604"/>
<text text-anchor="start" x="251" y="-590.5" font-family="Helvetica,sans-Serif" font-size="10.00">C:/GitHub/GEU/GEU/Source</text>
<text text-anchor="start" x="251" y="-578.5" font-family="Helvetica,sans-Serif" font-size="10.00">/Modules/Multiespectral</text>
<text text-anchor="middle" x="313.25" y="-566.5" font-family="Helvetica,sans-Serif" font-size="10.00">/MultiespectralGUIAdapter.h</text>
</a>
</g>
</g>
<!-- Node2 -->
<g id="Node000002" class="node">
<title>Node2</title>
<g id="a_Node000002"><a xlink:href="../../d0/d38/_interface_adapter_8h.html" target="_top" xlink:title=" ">
<polygon fill="white" stroke="#666666" points="566.62,-524 459.88,-524 459.88,-504 566.62,-504 566.62,-524"/>
<text text-anchor="middle" x="513.25" y="-510.5" font-family="Helvetica,sans-Serif" font-size="10.00">UI/InterfaceAdapter.h</text>
</a>
</g>
</g>
<!-- Node1&#45;&gt;Node2 -->
<g id="edge1_Node000001_Node000002" class="edge">
<title>Node1&#45;&gt;Node2</title>
<g id="a_edge1_Node000001_Node000002"><a xlink:title=" ">
<path fill="none" stroke="#63b8ff" d="M378.18,-559.57C409.76,-549.15 446.68,-536.97 473.93,-527.97"/>
<polygon fill="#63b8ff" stroke="#63b8ff" points="474.77,-531.38 483.17,-524.93 472.58,-524.74 474.77,-531.38"/>
</a>
</g>
</g>
<!-- Node31 -->
<g id="Node000031" class="node">
<title>Node31</title>
<g id="a_Node000031"><a xlink:href="../../dd/d31/_projection_8h.html" target="_top" xlink:title=" ">
<polygon fill="white" stroke="#666666" points="260.12,-524 192.38,-524 192.38,-504 260.12,-504 260.12,-524"/>
<text text-anchor="middle" x="226.25" y="-510.5" font-family="Helvetica,sans-Serif" font-size="10.00">Projection.h</text>
</a>
</g>
</g>
<!-- Node1&#45;&gt;Node31 -->
<g id="edge39_Node000001_Node000031" class="edge">
<title>Node1&#45;&gt;Node31</title>
<g id="a_edge39_Node000001_Node000031"><a xlink:title=" ">
<path fill="none" stroke="#63b8ff" d="M285.24,-559.75C273.1,-550.54 259.11,-539.93 247.8,-531.35"/>
<polygon fill="#63b8ff" stroke="#63b8ff" points="249.95,-528.59 239.87,-525.33 245.72,-534.17 249.95,-528.59"/>
</a>
</g>
</g>
<!-- Node3 -->
<g id="Node000003" class="node">
<title>Node3</title>
<g id="a_Node000003"><a xlink:href="../../dd/d9b/_application_state_8h.html" target="_top" xlink:title=" ">
<polygon fill="white" stroke="#666666" points="511.62,-468 392.88,-468 392.88,-448 511.62,-448 511.62,-468"/>
<text text-anchor="middle" x="452.25" y="-454.5" font-family="Helvetica,sans-Serif" font-size="10.00">Core/ApplicationState.h</text>
</a>
</g>
</g>
<!-- Node2&#45;&gt;Node3 -->
<g id="edge2_Node000002_Node000003" class="edge">
<title>Node2&#45;&gt;Node3</title>
<g id="a_edge2_Node000002_Node000003"><a xlink:title=" ">
<path fill="none" stroke="#63b8ff" d="M502.62,-503.59C493.97,-495.93 481.52,-484.91 471.17,-475.75"/>
<polygon fill="#63b8ff" stroke="#63b8ff" points="473.69,-473.31 463.89,-469.3 469.05,-478.55 473.69,-473.31"/>
</a>
</g>
</g>
<!-- Node21 -->
<g id="Node000021" class="node">
<title>Node21</title>
<g id="a_Node000021"><a xlink:href="../../de/d56/_scene_8h.html" target="_top" xlink:title=" ">
<polygon fill="white" stroke="#666666" points="662.88,-468 587.62,-468 587.62,-448 662.88,-448 662.88,-468"/>
<text text-anchor="middle" x="625.25" y="-454.5" font-family="Helvetica,sans-Serif" font-size="10.00">Core/Scene.h</text>
</a>
</g>
</g>
<!-- Node2&#45;&gt;Node21 -->
<g id="edge25_Node000002_Node000021" class="edge">
<title>Node2&#45;&gt;Node21</title>
<g id="a_edge25_Node000002_Node000021"><a xlink:title=" ">
<path fill="none" stroke="#63b8ff" d="M532.76,-503.59C550,-495.28 575.41,-483.03 595.24,-473.47"/>
<polygon fill="#63b8ff" stroke="#63b8ff" points="596.74,-476.63 604.23,-469.14 593.7,-470.33 596.74,-476.63"/>
</a>
</g>
</g>
<!-- Node30 -->
<g id="Node000030" class="node">
<title>Node30</title>
<g id="a_Node000030"><a xlink:href="../../d6/d20/_locale_strings_8h.html" target="_top" xlink:title=" ">
<polygon fill="white" stroke="#666666" points="907.62,-468 788.88,-468 788.88,-448 907.62,-448 907.62,-468"/>
<text text-anchor="middle" x="848.25" y="-454.5" font-family="Helvetica,sans-Serif" font-size="10.00">Utilities/LocaleStrings.h</text>
</a>
</g>
</g>
<!-- Node2&#45;&gt;Node30 -->
<g id="edge37_Node000002_Node000030" class="edge">
<title>Node2&#45;&gt;Node30</title>
<g id="a_edge37_Node000002_Node000030"><a xlink:title=" ">
<path fill="none" stroke="#63b8ff" d="M567.07,-504.32C624.48,-495.07 715.61,-480.38 778.48,-470.25"/>
<polygon fill="#63b8ff" stroke="#63b8ff" points="778.68,-473.76 787.99,-468.71 777.56,-466.85 778.68,-473.76"/>
</a>
</g>
</g>
<!-- Node4 -->
<g id="Node000004" class="node">
<title>Node4</title>
<g id="a_Node000004"><a xlink:title=" ">
<polygon fill="#e0e0e0" stroke="#999999" points="509,-412 395.5,-412 395.5,-392 509,-392 509,-412"/>
<text text-anchor="middle" x="452.25" y="-398.5" font-family="Helvetica,sans-Serif" font-size="10.00">imgui_color_gradient.h</text>
</a>
</g>
</g>
<!-- Node3&#45;&gt;Node4 -->
<g id="edge3_Node000003_Node000004" class="edge">
<title>Node3&#45;&gt;Node4</title>
<g id="a_edge3_Node000003_Node000004"><a xlink:title=" ">
<path fill="none" stroke="#63b8ff" d="M452.25,-447.59C452.25,-441.01 452.25,-431.96 452.25,-423.73"/>
<polygon fill="#63b8ff" stroke="#63b8ff" points="455.75,-423.81 452.25,-413.81 448.75,-423.81 455.75,-423.81"/>
</a>
</g>
</g>
<!-- Node5 -->
<g id="Node000005" class="node">
<title>Node5</title>
<g id="a_Node000005"><a xlink:href="../../dc/d05/_point_cloud_8h.html" target="_top" xlink:title=" ">
<polygon fill="white" stroke="#666666" points="377,-412 305.5,-412 305.5,-392 377,-392 377,-412"/>
<text text-anchor="middle" x="341.25" y="-398.5" font-family="Helvetica,sans-Serif" font-size="10.00">PointCloud.h</text>
</a>
</g>
</g>
<!-- Node3&#45;&gt;Node5 -->
<g id="edge4_Node000003_Node000005" class="edge">
<title>Node3&#45;&gt;Node5</title>
<g id="a_edge4_Node000003_Node000005"><a xlink:title=" ">
<path fill="none" stroke="#63b8ff" d="M432.92,-447.59C415.83,-439.28 390.65,-427.03 371,-417.47"/>
<polygon fill="#63b8ff" stroke="#63b8ff" points="372.62,-414.37 362.1,-413.14 369.56,-420.66 372.62,-414.37"/>
</a>
</g>
</g>
<!-- Node6 -->
<g id="Node000006" class="node">
<title>Node6</title>
<g id="a_Node000006"><a xlink:title=" ">
<polygon fill="#e0e0e0" stroke="#999999" points="277,-356 187.5,-356 187.5,-336 277,-336 277,-356"/>
<text text-anchor="middle" x="232.25" y="-342.5" font-family="Helvetica,sans-Serif" font-size="10.00">pcl/point_cloud.h</text>
</a>
</g>
</g>
<!-- Node5&#45;&gt;Node6 -->
<g id="edge5_Node000005_Node000006" class="edge">
<title>Node5&#45;&gt;Node6</title>
<g id="a_edge5_Node000005_Node000006"><a xlink:title=" ">
<path fill="none" stroke="#63b8ff" d="M322.26,-391.59C305.49,-383.28 280.76,-371.03 261.46,-361.47"/>
<polygon fill="#63b8ff" stroke="#63b8ff" points="263.26,-358.45 252.74,-357.15 260.15,-364.73 263.26,-358.45"/>
</a>
</g>
</g>
<!-- Node7 -->
<g id="Node000007" class="node">
<title>Node7</title>
<g id="a_Node000007"><a xlink:href="../../d1/dfb/_lines_model_8h.html" target="_top" xlink:title=" ">
<polygon fill="white" stroke="#666666" points="479.12,-356 405.38,-356 405.38,-336 479.12,-336 479.12,-356"/>
<text text-anchor="middle" x="442.25" y="-342.5" font-family="Helvetica,sans-Serif" font-size="10.00">LinesModel.h</text>
</a>
</g>
</g>
<!-- Node5&#45;&gt;Node7 -->
<g id="edge6_Node000005_Node000007" class="edge">
<title>Node5&#45;&gt;Node7</title>
<g id="a_edge6_Node000005_Node000007"><a xlink:title=" ">
<path fill="none" stroke="#63b8ff" d="M358.84,-391.59C374.17,-383.4 396.67,-371.37 414.44,-361.87"/>
<polygon fill="#63b8ff" stroke="#63b8ff" points="416.02,-364.99 423.19,-357.19 412.72,-358.82 416.02,-364.99"/>
</a>
</g>
</g>
<!-- Node19 -->
<g id="Node000019" class="node">
<title>Node19</title>
<g id="a_Node000019"><a xlink:href="../../dd/db7/_g_p_u_resources_8h.html" target="_top" xlink:title=" ">
<polygon fill="white" stroke="#666666" points="387.12,-356 295.38,-356 295.38,-336 387.12,-336 387.12,-356"/>
<text text-anchor="middle" x="341.25" y="-342.5" font-family="Helvetica,sans-Serif" font-size="10.00">GPUResources.h</text>
</a>
</g>
</g>
<!-- Node5&#45;&gt;Node19 -->
<g id="edge22_Node000005_Node000019" class="edge">
<title>Node5&#45;&gt;Node19</title>
<g id="a_edge22_Node000005_Node000019"><a xlink:title=" ">
<path fill="none" stroke="#63b8ff" d="M341.25,-391.59C341.25,-385.01 341.25,-375.96 341.25,-367.73"/>
<polygon fill="#63b8ff" stroke="#63b8ff" points="344.75,-367.81 341.25,-357.81 337.75,-367.81 344.75,-367.81"/>
</a>
</g>
</g>
<!-- Node8 -->
<g id="Node000008" class="node">
<title>Node8</title>
<g id="a_Node000008"><a xlink:href="../../d0/d8e/_model3_d_8h.html" target="_top" xlink:title=" ">
<polygon fill="white" stroke="#666666" points="596.5,-300 534,-300 534,-280 596.5,-280 596.5,-300"/>
<text text-anchor="middle" x="565.25" y="-286.5" font-family="Helvetica,sans-Serif" font-size="10.00">Model3D.h</text>
</a>
</g>
</g>
<!-- Node7&#45;&gt;Node8 -->
<g id="edge7_Node000007_Node000008" class="edge">
<title>Node7&#45;&gt;Node8</title>
<g id="a_edge7_Node000007_Node000008"><a xlink:title=" ">
<path fill="none" stroke="#63b8ff" d="M463.67,-335.59C482.87,-327.17 511.29,-314.69 533.19,-305.07"/>
<polygon fill="#63b8ff" stroke="#63b8ff" points="534.52,-308.31 542.27,-301.09 531.71,-301.9 534.52,-308.31"/>
</a>
</g>
</g>
<!-- Node18 -->
<g id="Node000018" class="node">
<title>Node18</title>
<g id="a_Node000018"><a xlink:href="../../d9/dd4/_v_a_o_8h.html" target="_top" xlink:title=" ">
<polygon fill="white" stroke="#666666" points="465.88,-244 420.62,-244 420.62,-224 465.88,-224 465.88,-244"/>
<text text-anchor="middle" x="443.25" y="-230.5" font-family="Helvetica,sans-Serif" font-size="10.00">VAO.h</text>
</a>
</g>
</g>
<!-- Node7&#45;&gt;Node18 -->
<g id="edge20_Node000007_Node000018" class="edge">
<title>Node7&#45;&gt;Node18</title>
<g id="a_edge20_Node000007_Node000018"><a xlink:title=" ">
<path fill="none" stroke="#63b8ff" d="M442.34,-335.62C442.5,-318.01 442.84,-279.59 443.06,-255.65"/>
<polygon fill="#63b8ff" stroke="#63b8ff" points="446.56,-255.9 443.15,-245.87 439.56,-255.84 446.56,-255.9"/>
</a>
</g>
</g>
<!-- Node9 -->
<g id="Node000009" class="node">
<title>Node9</title>
<g id="a_Node000009"><a xlink:href="../../d3/d09/_material_8h.html" target="_top" xlink:title=" ">
<polygon fill="white" stroke="#666666" points="675.62,-244 616.88,-244 616.88,-224 675.62,-224 675.62,-244"/>
<text text-anchor="middle" x="646.25" y="-230.5" font-family="Helvetica,sans-Serif" font-size="10.00">Material.h</text>
</a>
</g>
</g>
<!-- Node8&#45;&gt;Node9 -->
<g id="edge8_Node000008_Node000009" class="edge">
<title>Node8&#45;&gt;Node9</title>
<g id="a_edge8_Node000008_Node000009"><a xlink:title=" ">
<path fill="none" stroke="#63b8ff" d="M579.36,-279.59C591.25,-271.67 608.52,-260.16 622.53,-250.82"/>
<polygon fill="#63b8ff" stroke="#63b8ff" points="624.39,-253.78 630.77,-245.32 620.51,-247.95 624.39,-253.78"/>
</a>
</g>
</g>
<!-- Node17 -->
<g id="Node000017" class="node">
<title>Node17</title>
<g id="a_Node000017"><a xlink:href="../../d2/d00/_a_a_b_b_8h.html" target="_top" xlink:title=" ">
<polygon fill="white" stroke="#666666" points="598.75,-244 501.75,-244 501.75,-224 598.75,-224 598.75,-244"/>
<text text-anchor="middle" x="550.25" y="-230.5" font-family="Helvetica,sans-Serif" font-size="10.00">Geometry/AABB.h</text>
</a>
</g>
</g>
<!-- Node8&#45;&gt;Node17 -->
<g id="edge19_Node000008_Node000017" class="edge">
<title>Node8&#45;&gt;Node17</title>
<g id="a_edge19_Node000008_Node000017"><a xlink:title=" ">
<path fill="none" stroke="#63b8ff" d="M562.64,-279.59C560.77,-272.86 558.18,-263.53 555.85,-255.15"/>
<polygon fill="#63b8ff" stroke="#63b8ff" points="559.29,-254.46 553.24,-245.76 552.54,-256.33 559.29,-254.46"/>
</a>
</g>
</g>
<!-- Node10 -->
<g id="Node000010" class="node">
<title>Node10</title>
<g id="a_Node000010"><a xlink:title=" ">
<polygon fill="#e0e0e0" stroke="#999999" points="556.75,-132 471.75,-132 471.75,-112 556.75,-112 556.75,-132"/>
<text text-anchor="middle" x="514.25" y="-118.5" font-family="Helvetica,sans-Serif" font-size="10.00">assimp/scene.h</text>
</a>
</g>
</g>
<!-- Node9&#45;&gt;Node10 -->
<g id="edge9_Node000009_Node000010" class="edge">
<title>Node9&#45;&gt;Node10</title>
<g id="a_edge9_Node000009_Node000010"><a xlink:title=" ">
<path fill="none" stroke="#63b8ff" d="M630.75,-223.55C617.01,-214.92 596.64,-201.48 580.25,-188 562.11,-173.09 543.19,-154.04 530.28,-140.43"/>
<polygon fill="#63b8ff" stroke="#63b8ff" points="533.16,-138.38 523.77,-133.47 528.05,-143.16 533.16,-138.38"/>
</a>
</g>
</g>
<!-- Node11 -->
<g id="Node000011" class="node">
<title>Node11</title>
<g id="a_Node000011"><a xlink:href="../../d1/d4f/_rendering_shader_8h.html" target="_top" xlink:title=" ">
<polygon fill="white" stroke="#666666" points="824.62,-188 663.88,-188 663.88,-168 824.62,-168 824.62,-188"/>
<text text-anchor="middle" x="744.25" y="-174.5" font-family="Helvetica,sans-Serif" font-size="10.00">Core/Shaders/RenderingShader.h</text>
</a>
</g>
</g>
<!-- Node9&#45;&gt;Node11 -->
<g id="edge10_Node000009_Node000011" class="edge">
<title>Node9&#45;&gt;Node11</title>
<g id="a_edge10_Node000009_Node000011"><a xlink:title=" ">
<path fill="none" stroke="#63b8ff" d="M663.32,-223.59C678.13,-215.44 699.82,-203.48 717.02,-194"/>
<polygon fill="#63b8ff" stroke="#63b8ff" points="718.65,-197.1 725.72,-189.21 715.27,-190.97 718.65,-197.1"/>
</a>
</g>
</g>
<!-- Node15 -->
<g id="Node000015" class="node">
<title>Node15</title>
<g id="a_Node000015"><a xlink:href="../../de/dbf/_texture_8h.html" target="_top" xlink:title=" ">
<polygon fill="white" stroke="#666666" points="645.5,-188 589,-188 589,-168 645.5,-168 645.5,-188"/>
<text text-anchor="middle" x="617.25" y="-174.5" font-family="Helvetica,sans-Serif" font-size="10.00">Texture.h</text>
</a>
</g>
</g>
<!-- Node9&#45;&gt;Node15 -->
<g id="edge15_Node000009_Node000015" class="edge">
<title>Node9&#45;&gt;Node15</title>
<g id="a_edge15_Node000009_Node000015"><a xlink:title=" ">
<path fill="none" stroke="#63b8ff" d="M641.2,-223.59C637.46,-216.63 632.23,-206.89 627.61,-198.29"/>
<polygon fill="#63b8ff" stroke="#63b8ff" points="630.77,-196.79 622.96,-189.63 624.61,-200.1 630.77,-196.79"/>
</a>
</g>
</g>
<!-- Node12 -->
<g id="Node000012" class="node">
<title>Node12</title>
<g id="a_Node000012"><a xlink:href="../../d0/dbe/_shader_program_8h.html" target="_top" xlink:title=" ">
<polygon fill="white" stroke="#666666" points="770.12,-132 678.38,-132 678.38,-112 770.12,-112 770.12,-132"/>
<text text-anchor="middle" x="724.25" y="-118.5" font-family="Helvetica,sans-Serif" font-size="10.00">ShaderProgram.h</text>
</a>
</g>
</g>
<!-- Node11&#45;&gt;Node12 -->
<g id="edge11_Node000011_Node000012" class="edge">
<title>Node11&#45;&gt;Node12</title>
<g id="a_edge11_Node000011_Node000012"><a xlink:title=" ">
<path fill="none" stroke="#63b8ff" d="M740.77,-167.59C738.24,-160.78 734.74,-151.32 731.61,-142.86"/>
<polygon fill="#63b8ff" stroke="#63b8ff" points="734.97,-141.88 728.22,-133.72 728.41,-144.31 734.97,-141.88"/>
</a>
</g>
</g>
<!-- Node13 -->
<g id="Node000013" class="node">
<title>Node13</title>
<g id="a_Node000013"><a xlink:href="../../df/d2e/_shader_enums_8h.html" target="_top" xlink:title=" ">
<polygon fill="white" stroke="#666666" points="626.12,-76 540.38,-76 540.38,-56 626.12,-56 626.12,-76"/>
<text text-anchor="middle" x="583.25" y="-62.5" font-family="Helvetica,sans-Serif" font-size="10.00">ShaderEnums.h</text>
</a>
</g>
</g>
<!-- Node11&#45;&gt;Node13 -->
<g id="edge14_Node000011_Node000013" class="edge">
<title>Node11&#45;&gt;Node13</title>
<g id="a_edge14_Node000011_Node000013"><a xlink:title=" ">
<path fill="none" stroke="#63b8ff" d="M755.98,-167.54C770.99,-154.3 793.46,-129.85 779.25,-112 761.81,-90.1 689.3,-77.98 637.57,-71.98"/>
<polygon fill="#63b8ff" stroke="#63b8ff" points="638.05,-68.51 627.72,-70.89 637.27,-75.47 638.05,-68.51"/>
</a>
</g>
</g>
<!-- Node12&#45;&gt;Node13 -->
<g id="edge12_Node000012_Node000013" class="edge">
<title>Node12&#45;&gt;Node13</title>
<g id="a_edge12_Node000012_Node000013"><a xlink:title=" ">
<path fill="none" stroke="#63b8ff" d="M699.69,-111.59C677.28,-103.01 643.91,-90.23 618.63,-80.55"/>
<polygon fill="#63b8ff" stroke="#63b8ff" points="620.01,-77.33 609.42,-77.02 617.5,-83.87 620.01,-77.33"/>
</a>
</g>
</g>
<!-- Node14 -->
<g id="Node000014" class="node">
<title>Node14</title>
<g id="a_Node000014"><a xlink:title=" ">
<polygon fill="#e0e0e0" stroke="#999999" points="422,-20 362.5,-20 362.5,0 422,0 422,-20"/>
<text text-anchor="middle" x="392.25" y="-6.5" font-family="Helvetica,sans-Serif" font-size="10.00">GL/glew.h</text>
</a>
</g>
</g>
<!-- Node13&#45;&gt;Node14 -->
<g id="edge13_Node000013_Node000014" class="edge">
<title>Node13&#45;&gt;Node14</title>
<g id="a_edge13_Node000013_Node000014"><a xlink:title=" ">
<path fill="none" stroke="#63b8ff" d="M549.98,-55.59C517.48,-46.41 467.95,-32.4 433.08,-22.54"/>
<polygon fill="#63b8ff" stroke="#63b8ff" points="434.34,-19.26 423.77,-19.91 432.44,-26 434.34,-19.26"/>
</a>
</g>
</g>
<!-- Node15&#45;&gt;Node10 -->
<g id="edge16_Node000015_Node000010" class="edge">
<title>Node15&#45;&gt;Node10</title>
<g id="a_edge16_Node000015_Node000010"><a xlink:title=" ">
<path fill="none" stroke="#63b8ff" d="M599.31,-167.59C583.6,-159.36 560.52,-147.26 542.36,-137.74"/>
<polygon fill="#63b8ff" stroke="#63b8ff" points="544.15,-134.73 533.67,-133.18 540.9,-140.93 544.15,-134.73"/>
</a>
</g>
</g>
<!-- Node15&#45;&gt;Node12 -->
<g id="edge18_Node000015_Node000012" class="edge">
<title>Node15&#45;&gt;Node12</title>
<g id="a_edge18_Node000015_Node000012"><a xlink:title=" ">
<path fill="none" stroke="#63b8ff" d="M635.89,-167.59C652.28,-159.32 676.41,-147.14 695.31,-137.6"/>
<polygon fill="#63b8ff" stroke="#63b8ff" points="696.76,-140.79 704.12,-133.16 693.61,-134.54 696.76,-140.79"/>
</a>
</g>
</g>
<!-- Node16 -->
<g id="Node000016" class="node">
<title>Node16</title>
<g id="a_Node000016"><a xlink:href="../../d9/de5/_image_8h.html" target="_top" xlink:title=" ">
<polygon fill="white" stroke="#666666" points="660.12,-132 574.38,-132 574.38,-112 660.12,-112 660.12,-132"/>
<text text-anchor="middle" x="617.25" y="-118.5" font-family="Helvetica,sans-Serif" font-size="10.00">Utilities/Image.h</text>
</a>
</g>
</g>
<!-- Node15&#45;&gt;Node16 -->
<g id="edge17_Node000015_Node000016" class="edge">
<title>Node15&#45;&gt;Node16</title>
<g id="a_edge17_Node000015_Node000016"><a xlink:title=" ">
<path fill="none" stroke="#63b8ff" d="M617.25,-167.59C617.25,-161.01 617.25,-151.96 617.25,-143.73"/>
<polygon fill="#63b8ff" stroke="#63b8ff" points="620.75,-143.81 617.25,-133.81 613.75,-143.81 620.75,-143.81"/>
</a>
</g>
</g>
<!-- Node18&#45;&gt;Node13 -->
<g id="edge21_Node000018_Node000013" class="edge">
<title>Node18&#45;&gt;Node13</title>
<g id="a_edge21_Node000018_Node000013"><a xlink:title=" ">
<path fill="none" stroke="#63b8ff" d="M441.8,-223.56C438.95,-201.37 435.07,-145.26 462.25,-112 478.66,-91.93 504.94,-80.81 528.83,-74.65"/>
<polygon fill="#63b8ff" stroke="#63b8ff" points="529.52,-78.08 538.48,-72.42 527.94,-71.26 529.52,-78.08"/>
</a>
</g>
</g>
<!-- Node19&#45;&gt;Node14 -->
<g id="edge24_Node000019_Node000014" class="edge">
<title>Node19&#45;&gt;Node14</title>
<g id="a_edge24_Node000019_Node000014"><a xlink:title=" ">
<path fill="none" stroke="#63b8ff" d="M341.25,-335.58C341.25,-316.57 341.25,-272.24 341.25,-235 341.25,-235 341.25,-235 341.25,-121 341.25,-86.09 362.66,-50.24 377.73,-29.32"/>
<polygon fill="#63b8ff" stroke="#63b8ff" points="380.38,-31.63 383.59,-21.53 374.79,-27.42 380.38,-31.63"/>
</a>
</g>
</g>
<!-- Node20 -->
<g id="Node000020" class="node">
<title>Node20</title>
<g id="a_Node000020"><a xlink:title=" ">
<polygon fill="#e0e0e0" stroke="#999999" points="414.88,-300 369.62,-300 369.62,-280 414.88,-280 414.88,-300"/>
<text text-anchor="middle" x="392.25" y="-286.5" font-family="Helvetica,sans-Serif" font-size="10.00">cstdint</text>
</a>
</g>
</g>
<!-- Node19&#45;&gt;Node20 -->
<g id="edge23_Node000019_Node000020" class="edge">
<title>Node19&#45;&gt;Node20</title>
<g id="a_edge23_Node000019_Node000020"><a xlink:title=" ">
<path fill="none" stroke="#63b8ff" d="M350.13,-335.59C357.15,-328.16 367.15,-317.58 375.64,-308.58"/>
<polygon fill="#63b8ff" stroke="#63b8ff" points="378.11,-311.07 382.43,-301.4 373.02,-306.27 378.11,-311.07"/>
</a>
</g>
</g>
<!-- Node22 -->
<g id="Node000022" class="node">
<title>Node22</title>
<g id="a_Node000022"><a xlink:href="../../d5/d91/_camera_8h.html" target="_top" xlink:title=" ">
<polygon fill="white" stroke="#666666" points="621.62,-412 526.88,-412 526.88,-392 621.62,-392 621.62,-412"/>
<text text-anchor="middle" x="574.25" y="-398.5" font-family="Helvetica,sans-Serif" font-size="10.00">Camera/Camera.h</text>
</a>
</g>
</g>
<!-- Node21&#45;&gt;Node22 -->
<g id="edge26_Node000021_Node000022" class="edge">
<title>Node21&#45;&gt;Node22</title>
<g id="a_edge26_Node000021_Node000022"><a xlink:title=" ">
<path fill="none" stroke="#63b8ff" d="M616.37,-447.59C609.35,-440.16 599.35,-429.58 590.86,-420.58"/>
<polygon fill="#63b8ff" stroke="#63b8ff" points="593.48,-418.27 584.07,-413.4 588.39,-423.07 593.48,-418.27"/>
</a>
</g>
</g>
<!-- Node24 -->
<g id="Node000024" class="node">
<title>Node24</title>
<g id="a_Node000024"><a xlink:href="../../d2/d46/_light_8h.html" target="_top" xlink:title=" ">
<polygon fill="white" stroke="#666666" points="714.5,-412 640,-412 640,-392 714.5,-392 714.5,-412"/>
<text text-anchor="middle" x="677.25" y="-398.5" font-family="Helvetica,sans-Serif" font-size="10.00">Lights/Light.h</text>
</a>
</g>
</g>
<!-- Node21&#45;&gt;Node24 -->
<g id="edge29_Node000021_Node000024" class="edge">
<title>Node21&#45;&gt;Node24</title>
<g id="a_edge29_Node000021_Node000024"><a xlink:title=" ">
<path fill="none" stroke="#63b8ff" d="M634.31,-447.59C641.47,-440.16 651.66,-429.58 660.32,-420.58"/>
<polygon fill="#63b8ff" stroke="#63b8ff" points="662.83,-423.02 667.25,-413.39 657.79,-418.16 662.83,-423.02"/>
</a>
</g>
</g>
<!-- Node27 -->
<g id="Node000027" class="node">
<title>Node27</title>
<g id="a_Node000027"><a xlink:href="../../d7/d92/_database_connector_8h.html" target="_top" xlink:title=" ">
<polygon fill="white" stroke="#666666" points="877.75,-412 732.75,-412 732.75,-392 877.75,-392 877.75,-412"/>
<text text-anchor="middle" x="805.25" y="-398.5" font-family="Helvetica,sans-Serif" font-size="10.00">Utilities/DatabaseConnector.h</text>
</a>
</g>
</g>
<!-- Node21&#45;&gt;Node27 -->
<g id="edge34_Node000021_Node000027" class="edge">
<title>Node21&#45;&gt;Node27</title>
<g id="a_edge34_Node000021_Node000027"><a xlink:title=" ">
<path fill="none" stroke="#63b8ff" d="M656.6,-447.59C685.98,-438.78 730.11,-425.54 762.66,-415.78"/>
<polygon fill="#63b8ff" stroke="#63b8ff" points="763.63,-419.14 772.2,-412.91 761.62,-412.44 763.63,-419.14"/>
</a>
</g>
</g>
<!-- Node22&#45;&gt;Node8 -->
<g id="edge28_Node000022_Node000008" class="edge">
<title>Node22&#45;&gt;Node8</title>
<g id="a_edge28_Node000022_Node000008"><a xlink:title=" ">
<path fill="none" stroke="#63b8ff" d="M585.02,-391.6C597.83,-379.2 616.5,-356.57 608.25,-336 603.88,-325.1 595.47,-315.34 587.24,-307.72"/>
<polygon fill="#63b8ff" stroke="#63b8ff" points="589.61,-305.15 579.73,-301.33 585.07,-310.47 589.61,-305.15"/>
</a>
</g>
</g>
<!-- Node23 -->
<g id="Node000023" class="node">
<title>Node23</title>
<g id="a_Node000023"><a xlink:href="../../dd/dbb/_camera_projection_8h.html" target="_top" xlink:title=" ">
<polygon fill="white" stroke="#666666" points="599,-356 497.5,-356 497.5,-336 599,-336 599,-356"/>
<text text-anchor="middle" x="548.25" y="-342.5" font-family="Helvetica,sans-Serif" font-size="10.00">CameraProjection.h</text>
</a>
</g>
</g>
<!-- Node22&#45;&gt;Node23 -->
<g id="edge27_Node000022_Node000023" class="edge">
<title>Node22&#45;&gt;Node23</title>
<g id="a_edge27_Node000022_Node000023"><a xlink:title=" ">
<path fill="none" stroke="#63b8ff" d="M569.72,-391.59C566.4,-384.7 561.78,-375.1 557.67,-366.57"/>
<polygon fill="#63b8ff" stroke="#63b8ff" points="560.88,-365.15 553.38,-357.66 554.57,-368.19 560.88,-365.15"/>
</a>
</g>
</g>
<!-- Node25 -->
<g id="Node000025" class="node">
<title>Node25</title>
<g id="a_Node000025"><a xlink:href="../../d7/d9c/_light_attenuation_8h.html" target="_top" xlink:title=" ">
<polygon fill="white" stroke="#666666" points="787.62,-356 692.88,-356 692.88,-336 787.62,-336 787.62,-356"/>
<text text-anchor="middle" x="740.25" y="-342.5" font-family="Helvetica,sans-Serif" font-size="10.00">LightAttenuation.h</text>
</a>
</g>
</g>
<!-- Node24&#45;&gt;Node25 -->
<g id="edge30_Node000024_Node000025" class="edge">
<title>Node24&#45;&gt;Node25</title>
<g id="a_edge30_Node000024_Node000025"><a xlink:title=" ">
<path fill="none" stroke="#63b8ff" d="M688.22,-391.59C697.17,-383.93 710.02,-372.91 720.71,-363.75"/>
<polygon fill="#63b8ff" stroke="#63b8ff" points="722.94,-366.45 728.25,-357.28 718.38,-361.13 722.94,-366.45"/>
</a>
</g>
</g>
<!-- Node26 -->
<g id="Node000026" class="node">
<title>Node26</title>
<g id="a_Node000026"><a xlink:href="../../d1/db9/_light_model_8h.html" target="_top" xlink:title=" ">
<polygon fill="white" stroke="#666666" points="701,-300 629.5,-300 629.5,-280 701,-280 701,-300"/>
<text text-anchor="middle" x="665.25" y="-286.5" font-family="Helvetica,sans-Serif" font-size="10.00">LightModel.h</text>
</a>
</g>
</g>
<!-- Node24&#45;&gt;Node26 -->
<g id="edge33_Node000024_Node000026" class="edge">
<title>Node24&#45;&gt;Node26</title>
<g id="a_edge33_Node000024_Node000026"><a xlink:title=" ">
<path fill="none" stroke="#63b8ff" d="M676.23,-391.62C674.31,-374.01 670.11,-335.59 667.5,-311.65"/>
<polygon fill="#63b8ff" stroke="#63b8ff" points="671,-311.42 666.43,-301.86 664.04,-312.18 671,-311.42"/>
</a>
</g>
</g>
<!-- Node25&#45;&gt;Node26 -->
<g id="edge31_Node000025_Node000026" class="edge">
<title>Node25&#45;&gt;Node26</title>
<g id="a_edge31_Node000025_Node000026"><a xlink:title=" ">
<path fill="none" stroke="#63b8ff" d="M727.19,-335.59C716.28,-327.74 700.5,-316.38 687.59,-307.09"/>
<polygon fill="#63b8ff" stroke="#63b8ff" points="689.8,-304.37 679.64,-301.36 685.71,-310.05 689.8,-304.37"/>
</a>
</g>
</g>
<!-- Node26&#45;&gt;Node9 -->
<g id="edge32_Node000026_Node000009" class="edge">
<title>Node26&#45;&gt;Node9</title>
<g id="a_edge32_Node000026_Node000009"><a xlink:title=" ">
<path fill="none" stroke="#63b8ff" d="M661.94,-279.59C659.57,-272.86 656.29,-263.53 653.34,-255.15"/>
<polygon fill="#63b8ff" stroke="#63b8ff" points="656.64,-254 650.02,-245.73 650.04,-256.32 656.64,-254"/>
</a>
</g>
</g>
<!-- Node28 -->
<g id="Node000028" class="node">
<title>Node28</title>
<g id="a_Node000028"><a xlink:href="../../de/dec/_singleton_8h.html" target="_top" xlink:title=" ">
<polygon fill="white" stroke="#666666" points="934.62,-356 869.88,-356 869.88,-336 934.62,-336 934.62,-356"/>
<text text-anchor="middle" x="902.25" y="-342.5" font-family="Helvetica,sans-Serif" font-size="10.00">Singleton.h</text>
</a>
</g>
</g>
<!-- Node27&#45;&gt;Node28 -->
<g id="edge35_Node000027_Node000028" class="edge">
<title>Node27&#45;&gt;Node28</title>
<g id="a_edge35_Node000027_Node000028"><a xlink:title=" ">
<path fill="none" stroke="#63b8ff" d="M822.15,-391.59C836.8,-383.44 858.27,-371.48 875.3,-362"/>
<polygon fill="#63b8ff" stroke="#63b8ff" points="876.86,-365.14 883.9,-357.22 873.46,-359.02 876.86,-365.14"/>
</a>
</g>
</g>
<!-- Node29 -->
<g id="Node000029" class="node">
<title>Node29</title>
<g id="a_Node000029"><a xlink:title=" ">
<polygon fill="#e0e0e0" stroke="#999999" points="848.38,-356 806.12,-356 806.12,-336 848.38,-336 848.38,-356"/>
<text text-anchor="middle" x="827.25" y="-342.5" font-family="Helvetica,sans-Serif" font-size="10.00">occi.h</text>
</a>
</g>
</g>
<!-- Node27&#45;&gt;Node29 -->
<g id="edge36_Node000027_Node000029" class="edge">
<title>Node27&#45;&gt;Node29</title>
<g id="a_edge36_Node000027_Node000029"><a xlink:title=" ">
<path fill="none" stroke="#63b8ff" d="M809.08,-391.59C811.86,-384.78 815.71,-375.32 819.16,-366.86"/>
<polygon fill="#63b8ff" stroke="#63b8ff" points="822.36,-368.28 822.89,-357.7 815.88,-365.64 822.36,-368.28"/>
</a>
</g>
</g>
<!-- Node30&#45;&gt;Node28 -->
<g id="edge38_Node000030_Node000028" class="edge">
<title>Node30&#45;&gt;Node28</title>
<g id="a_edge38_Node000030_Node000028"><a xlink:title=" ">
<path fill="none" stroke="#63b8ff" d="M858.47,-447.61C867.12,-439.12 879.19,-425.85 886.25,-412 893.37,-398.03 897.43,-380.74 899.67,-367.5"/>
<polygon fill="#63b8ff" stroke="#63b8ff" points="903.11,-368.19 901.1,-357.79 896.18,-367.18 903.11,-368.19"/>
</a>
</g>
</g>
<!-- Node31&#45;&gt;Node6 -->
<g id="edge41_Node000031_Node000006" class="edge">
<title>Node31&#45;&gt;Node6</title>
<g id="a_edge41_Node000031_Node000006"><a xlink:title=" ">
<path fill="none" stroke="#63b8ff" d="M228.92,-503.79C231.38,-494.76 234.87,-480.57 236.25,-468 240.1,-432.93 237.18,-391.84 234.72,-367.69"/>
<polygon fill="#63b8ff" stroke="#63b8ff" points="238.22,-367.51 233.64,-357.95 231.26,-368.28 238.22,-367.51"/>
</a>
</g>
</g>
<!-- Node32 -->
<g id="Node000032" class="node">
<title>Node32</title>
<g id="a_Node000032"><a xlink:href="../../d9/d77/_register_8h.html" target="_top" xlink:title=" ">
<polygon fill="white" stroke="#666666" points="227.38,-468 167.12,-468 167.12,-448 227.38,-448 227.38,-468"/>
<text text-anchor="middle" x="197.25" y="-454.5" font-family="Helvetica,sans-Serif" font-size="10.00">Register.h</text>
</a>
</g>
</g>
<!-- Node31&#45;&gt;Node32 -->
<g id="edge40_Node000031_Node000032" class="edge">
<title>Node31&#45;&gt;Node32</title>
<g id="a_edge40_Node000031_Node000032"><a xlink:title=" ">
<path fill="none" stroke="#63b8ff" d="M221.2,-503.59C217.46,-496.63 212.23,-486.89 207.61,-478.29"/>
<polygon fill="#63b8ff" stroke="#63b8ff" points="210.77,-476.79 202.96,-469.63 204.61,-480.1 210.77,-476.79"/>
</a>
</g>
</g>
<!-- Node33 -->
<g id="Node000033" class="node">
<title>Node33</title>
<g id="a_Node000033"><a xlink:href="../../d4/d43/_metadata_reader_8h.html" target="_top" xlink:title=" ">
<polygon fill="white" stroke="#666666" points="148.62,-468 17.88,-468 17.88,-448 148.62,-448 148.62,-468"/>
<text text-anchor="middle" x="83.25" y="-454.5" font-family="Helvetica,sans-Serif" font-size="10.00">Utilities/MetadataReader.h</text>
</a>
</g>
</g>
<!-- Node31&#45;&gt;Node33 -->
<g id="edge42_Node000031_Node000033" class="edge">
<title>Node31&#45;&gt;Node33</title>
<g id="a_edge42_Node000031_Node000033"><a xlink:title=" ">
<path fill="none" stroke="#63b8ff" d="M201.34,-503.59C178.52,-494.97 144.47,-482.12 118.79,-472.42"/>
<polygon fill="#63b8ff" stroke="#63b8ff" points="120.36,-469.27 109.77,-469.01 117.89,-475.82 120.36,-469.27"/>
</a>
</g>
</g>
<!-- Node34 -->
<g id="Node000034" class="node">
<title>Node34</title>
<g id="a_Node000034"><a xlink:title=" ">
<polygon fill="#e0e0e0" stroke="#999999" points="68.5,-412 0,-412 0,-392 68.5,-392 68.5,-412"/>
<text text-anchor="middle" x="34.25" y="-398.5" font-family="Helvetica,sans-Serif" font-size="10.00">Eigen/Eigen</text>
</a>
</g>
</g>
<!-- Node33&#45;&gt;Node34 -->
<g id="edge43_Node000033_Node000034" class="edge">
<title>Node33&#45;&gt;Node34</title>
<g id="a_edge43_Node000033_Node000034"><a xlink:title=" ">
<path fill="none" stroke="#63b8ff" d="M74.71,-447.59C67.97,-440.16 58.36,-429.58 50.21,-420.58"/>
<polygon fill="#63b8ff" stroke="#63b8ff" points="53.02,-418.47 43.7,-413.42 47.83,-423.18 53.02,-418.47"/>
</a>
</g>
</g>
<!-- Node35 -->
<g id="Node000035" class="node">
<title>Node35</title>
<g id="a_Node000035"><a xlink:title=" ">
<polygon fill="#e0e0e0" stroke="#999999" points="178.12,-412 86.38,-412 86.38,-392 178.12,-392 178.12,-412"/>
<text text-anchor="middle" x="132.25" y="-398.5" font-family="Helvetica,sans-Serif" font-size="10.00">opencv2/core.hpp</text>
</a>
</g>
</g>
<!-- Node33&#45;&gt;Node35 -->
<g id="edge44_Node000033_Node000035" class="edge">
<title>Node33&#45;&gt;Node35</title>
<g id="a_edge44_Node000033_Node000035"><a xlink:title=" ">
<path fill="none" stroke="#63b8ff" d="M91.79,-447.59C98.53,-440.16 108.14,-429.58 116.29,-420.58"/>
<polygon fill="#63b8ff" stroke="#63b8ff" points="118.67,-423.18 122.8,-413.42 113.48,-418.47 118.67,-423.18"/>
</a>
</g>
</g>
</g>
</svg>

<g id="navigator" transform="translate(0 0)" fill="#404254">
  <rect fill="#f2f5e9" fill-opacity="0.5" stroke="#606060" stroke-width=".5" x="0" y="0" width="60" height="60"/>
  <use id="zoomplus" xlink:href="#zoomPlus" x="17" y="9" onmousedown="handleZoom(evt,'in')"/>
  <use id="zoomminus" xlink:href="#zoomMin" x="42" y="9" onmousedown="handleZoom(evt,'out')"/>
  <use id="reset" xlink:href="#resetDef" x="30" y="36" onmousedown="handleReset()"/>
   <use id="arrowup" xlink:href="#arrowUp" x="0" y="0" onmousedown="handlePan(0,-1)"/>
  <use id="arrowright" xlink:href="#arrowRight" x="0" y="0" onmousedown="handlePan(1,0)"/>
  <use id="arrowdown" xlink:href="#arrowDown" x="0" y="0" onmousedown="handlePan(0,1)"/>
  <use id="arrowleft" xlink:href="#arrowLeft" x="0" y="0" onmousedown="handlePan(-1,0)"/>
</g>
<svg viewBox="0 0 15 15" width="100%" height="30px" preserveAspectRatio="xMaxYMin meet">
 <g id="arrow_out" transform="scale(0.3 0.3)">
  <a xlink:href="_multiespectral_g_u_i_adapter_8h__incl_org.svg" target="_base">
   <rect id="button" ry="5" rx="5" y="6" x="6" height="38" width="38"
        fill="#f2f5e9" fill-opacity="0.5" stroke="#606060" stroke-width="1.0"/>
   <path id="arrow"
     d="M 11.500037,31.436501 C 11.940474,20.09759 22.043105,11.32322 32.158766,21.979434 L 37.068811,17.246167 C 37.068811,17.246167 37.088388,32 37.088388,32 L 22.160133,31.978069 C 22.160133,31.978069 26.997745,27.140456 26.997745,27.140456 C 18.528582,18.264221 13.291696,25.230495 11.500037,31.436501 z"
     style="fill:#404040;"/>
  </a>
 </g>
</svg>

<style type='text/css'>
<![CDATA[
[data-mouse-over-selected='false'] { opacity: 0.7; }
[data-mouse-over-selected='true']  { opacity: 1.0; }
]]>
</style>
<script type="application/ecmascript"><![CDATA[
document.addEventListener('DOMContentLoaded', (event) => {
  highlightEdges();
  highlightAdjacentNodes();
});
]]></script>
</svg>
