<?xml version="1.0" encoding="UTF-8" standalone="no"?>
<!DOCTYPE svg PUBLIC "-//W3C//DTD SVG 1.1//EN"
 "http://www.w3.org/Graphics/SVG/1.1/DTD/svg11.dtd">
<!-- Generated by graphviz version 10.0.1 (20240210.2158)
 -->
<!-- Title: LocaleStrings Pages: 1 -->
<svg width="1209pt" height="82pt"
 viewBox="0.00 0.00 1209.25 82.00" xmlns="http://www.w3.org/2000/svg" xmlns:xlink="http://www.w3.org/1999/xlink">
<g id="graph0" class="graph" transform="scale(1 1) rotate(0) translate(4 78)">
<title>LocaleStrings</title>
<!-- Node1 -->
<g id="Node000001" class="node">
<title>Node1</title>
<g id="a_Node000001"><a xlink:title="Manages localized strings application&#45;wide.">
<polygon fill="#999999" stroke="#666666" points="751.5,-52 676.25,-52 676.25,-32 751.5,-32 751.5,-52"/>
<text text-anchor="middle" x="713.88" y="-38.5" font-family="Helvetica,sans-Serif" font-size="10.00">LocaleStrings</text>
</a>
</g>
</g>
<!-- Node3 -->
<g id="Node000003" class="node">
<title>Node3</title>
<g id="a_Node000003"><a xlink:title=" ">
<polygon fill="white" stroke="#666666" points="959.5,-74 801.75,-74 801.75,-54 959.5,-54 959.5,-74"/>
<text text-anchor="middle" x="880.62" y="-60.5" font-family="Helvetica,sans-Serif" font-size="10.00">std::unique_ptr&lt; LocaleStrings &gt;</text>
</a>
</g>
</g>
<!-- Node1&#45;&gt;Node3 -->
<g id="edge3_Node000003_Node000001" class="edge">
<title>Node1&#45;&gt;Node3</title>
<g id="a_edge3_Node000003_Node000001"><a xlink:title=" ">
<path fill="none" stroke="#9a32cd" stroke-dasharray="5,2" d="M762.98,-48.42C775.02,-50.03 788.25,-51.8 801.34,-53.55"/>
<polygon fill="#9a32cd" stroke="#9a32cd" points="763.72,-44.99 753.35,-47.14 762.8,-51.93 763.72,-44.99"/>
</a>
</g>
<text text-anchor="middle" x="776.62" y="-53.5" font-family="Helvetica,sans-Serif" font-size="10.00" fill="grey"> ptr</text>
</g>
<!-- Node2 -->
<g id="Node000002" class="node">
<title>Node2</title>
<g id="a_Node000002"><a xlink:href="../../d1/df9/class_g_e_u_1_1_singleton.html" target="_top" xlink:title=" ">
<polygon fill="white" stroke="#666666" points="1201.25,-52 1040.5,-52 1040.5,-32 1201.25,-32 1201.25,-52"/>
<text text-anchor="middle" x="1120.88" y="-38.5" font-family="Helvetica,sans-Serif" font-size="10.00">GEU::Singleton&lt; LocaleStrings &gt;</text>
</a>
</g>
</g>
<!-- Node2&#45;&gt;Node1 -->
<g id="edge1_Node000001_Node000002" class="edge">
<title>Node2&#45;&gt;Node1</title>
<g id="a_edge1_Node000001_Node000002"><a xlink:title=" ">
<path fill="none" stroke="#63b8ff" d="M1028.73,-42C941.45,-42 814.12,-42 751.89,-42"/>
<polygon fill="#63b8ff" stroke="#63b8ff" points="1028.72,-45.5 1038.72,-42 1028.72,-38.5 1028.72,-45.5"/>
</a>
</g>
</g>
<!-- Node3&#45;&gt;Node2 -->
<g id="edge2_Node000002_Node000003" class="edge">
<title>Node3&#45;&gt;Node2</title>
<g id="a_edge2_Node000002_Node000003"><a xlink:title=" ">
<path fill="none" stroke="#9a32cd" stroke-dasharray="5,2" d="M971.3,-55.72C993.96,-53.63 1018.14,-51.39 1040.26,-49.35"/>
<polygon fill="#9a32cd" stroke="#9a32cd" points="971.11,-52.22 961.47,-56.63 971.75,-59.19 971.11,-52.22"/>
</a>
</g>
<text text-anchor="middle" x="1000" y="-56.5" font-family="Helvetica,sans-Serif" font-size="10.00" fill="grey"> _instance</text>
</g>
<!-- Node4 -->
<g id="Node000004" class="node">
<title>Node4</title>
<g id="a_Node000004"><a xlink:title=" ">
<polygon fill="white" stroke="#666666" points="585.5,-32 470.5,-32 470.5,0 585.5,0 585.5,-32"/>
<text text-anchor="start" x="478.5" y="-18.5" font-family="Helvetica,sans-Serif" font-size="10.00">std::vector&lt; std::vector</text>
<text text-anchor="middle" x="528" y="-6.5" font-family="Helvetica,sans-Serif" font-size="10.00">&lt; std::string &gt; &gt;</text>
</a>
</g>
</g>
<!-- Node4&#45;&gt;Node1 -->
<g id="edge4_Node000001_Node000004" class="edge">
<title>Node4&#45;&gt;Node1</title>
<g id="a_edge4_Node000001_Node000004"><a xlink:title=" ">
<path fill="none" stroke="#9a32cd" stroke-dasharray="5,2" d="M597.15,-25.64C623.83,-29.41 653.37,-33.59 675.93,-36.78"/>
<polygon fill="#9a32cd" stroke="#9a32cd" points="597.81,-22.2 587.42,-24.26 596.83,-29.13 597.81,-22.2"/>
</a>
</g>
<text text-anchor="middle" x="630.88" y="-36.5" font-family="Helvetica,sans-Serif" font-size="10.00" fill="grey"> _appStrings</text>
</g>
<!-- Node5 -->
<g id="Node000005" class="node">
<title>Node5</title>
<g id="a_Node000005"><a xlink:title=" ">
<polygon fill="white" stroke="#666666" points="391.75,-52 269.25,-52 269.25,-32 391.75,-32 391.75,-52"/>
<text text-anchor="middle" x="330.5" y="-38.5" font-family="Helvetica,sans-Serif" font-size="10.00">std::vector&lt; std::string &gt;</text>
</a>
</g>
</g>
<!-- Node5&#45;&gt;Node1 -->
<g id="edge8_Node000001_Node000005" class="edge">
<title>Node5&#45;&gt;Node1</title>
<g id="a_edge8_Node000001_Node000005"><a xlink:title=" ">
<path fill="none" stroke="#9a32cd" stroke-dasharray="5,2" d="M403.51,-47.7C405.61,-47.81 407.7,-47.91 409.75,-48 520.09,-52.79 548.09,-58.02 658.25,-50 663.99,-49.58 670.03,-48.92 675.93,-48.15"/>
<polygon fill="#9a32cd" stroke="#9a32cd" points="403.83,-44.22 393.65,-47.13 403.43,-51.2 403.83,-44.22"/>
</a>
</g>
<text text-anchor="middle" x="528" y="-56.5" font-family="Helvetica,sans-Serif" font-size="10.00" fill="grey"> _availableLocales</text>
</g>
<!-- Node5&#45;&gt;Node4 -->
<g id="edge5_Node000004_Node000005" class="edge">
<title>Node5&#45;&gt;Node4</title>
<g id="a_edge5_Node000004_Node000005"><a xlink:title=" ">
<path fill="none" stroke="#9a32cd" stroke-dasharray="5,2" d="M403.33,-32.45C425.34,-29.52 449.23,-26.34 470.1,-23.57"/>
<polygon fill="#9a32cd" stroke="#9a32cd" points="402.97,-28.96 393.52,-33.75 403.89,-35.9 402.97,-28.96"/>
</a>
</g>
<text text-anchor="middle" x="431.12" y="-34.5" font-family="Helvetica,sans-Serif" font-size="10.00" fill="grey"> elements</text>
</g>
<!-- Node6 -->
<g id="Node000006" class="node">
<title>Node6</title>
<g id="a_Node000006"><a xlink:title=" ">
<polygon fill="white" stroke="#666666" points="190.5,-52 131,-52 131,-32 190.5,-32 190.5,-52"/>
<text text-anchor="middle" x="160.75" y="-38.5" font-family="Helvetica,sans-Serif" font-size="10.00">std::string</text>
</a>
</g>
</g>
<!-- Node6&#45;&gt;Node5 -->
<g id="edge6_Node000005_Node000006" class="edge">
<title>Node6&#45;&gt;Node5</title>
<g id="a_edge6_Node000005_Node000006"><a xlink:title=" ">
<path fill="none" stroke="#9a32cd" stroke-dasharray="5,2" d="M202.46,-42C222.44,-42 246.91,-42 269.02,-42"/>
<polygon fill="#9a32cd" stroke="#9a32cd" points="202.48,-38.5 192.48,-42 202.48,-45.5 202.48,-38.5"/>
</a>
</g>
<text text-anchor="middle" x="229.88" y="-44.5" font-family="Helvetica,sans-Serif" font-size="10.00" fill="grey"> elements</text>
</g>
<!-- Node7 -->
<g id="Node000007" class="node">
<title>Node7</title>
<g id="a_Node000007"><a xlink:title=" ">
<polygon fill="white" stroke="#666666" points="94,-58 0,-58 0,-26 94,-26 94,-58"/>
<text text-anchor="start" x="8" y="-44.5" font-family="Helvetica,sans-Serif" font-size="10.00">std::basic_string&lt;</text>
<text text-anchor="middle" x="47" y="-32.5" font-family="Helvetica,sans-Serif" font-size="10.00"> Char &gt;</text>
</a>
</g>
</g>
<!-- Node7&#45;&gt;Node6 -->
<g id="edge7_Node000006_Node000007" class="edge">
<title>Node7&#45;&gt;Node6</title>
<g id="a_edge7_Node000006_Node000007"><a xlink:title=" ">
<path fill="none" stroke="#63b8ff" d="M105.71,-42C114.32,-42 122.87,-42 130.55,-42"/>
<polygon fill="#63b8ff" stroke="#63b8ff" points="105.93,-38.5 95.93,-42 105.93,-45.5 105.93,-38.5"/>
</a>
</g>
</g>
</g>
</svg>
