<?xml version="1.0" encoding="UTF-8" standalone="no"?>
<!DOCTYPE svg PUBLIC "-//W3C//DTD SVG 1.1//EN"
 "http://www.w3.org/Graphics/SVG/1.1/DTD/svg11.dtd">
<!-- Generated by graphviz version 10.0.1 (20240210.2158)
 -->
<!-- Title: Database::Dato Pages: 1 -->
<!--zoomable 219 -->

<svg id="main" version="1.1" xmlns="http://www.w3.org/2000/svg" xmlns:xlink="http://www.w3.org/1999/xlink" xml:space="preserve" onload="init(evt)">
<style type="text/css"><![CDATA[
.node, .edge {opacity: 0.7;}
.node.selected, .edge.selected {opacity: 1;}
.edge:hover path { stroke: red; }
.edge:hover polygon { stroke: red; fill: red; }
]]></style>

<defs>
  <circle id="rim" cx="0" cy="0" r="7"/>
  <circle id="rim2" cx="0" cy="0" r="3.5"/>
  <g id="zoomPlus">
    <use xlink:href="#rim" fill="#404040"><set attributeName="fill" to="#808080" begin="zoomplus.mouseover" end="zoomplus.mouseout"/></use>
    <path d="M-4,0h8M0,-4v8" fill="none" stroke="white" stroke-width="1.5" pointer-events="none"/>
  </g>
  <g id="zoomMin">
    <use xlink:href="#rim" fill="#404040"><set attributeName="fill" to="#808080" begin="zoomminus.mouseover" end="zoomminus.mouseout"/></use>
    <path d="M-4,0h8" fill="none" stroke="white" stroke-width="1.5" pointer-events="none"/>
  </g>
  <g id="arrowUp" transform="translate(30 24)">
    <use xlink:href="#rim"/>
    <path pointer-events="none" fill="none" stroke="white" stroke-width="1.5" d="M0,-3.0v7 M-2.5,-0.5L0,-3.0L2.5,-0.5"/>
  </g>
  <g id="arrowRight" transform="rotate(90) translate(36 -43)">
    <use xlink:href="#rim"/>
    <path pointer-events="none" fill="none" stroke="white" stroke-width="1.5" d="M0,-3.0v7 M-2.5,-0.5L0,-3.0L2.5,-0.5"/>
  </g>
  <g id="arrowDown" transform="rotate(180) translate(-30 -48)">
    <use xlink:href="#rim"/>
    <path pointer-events="none" fill="none" stroke="white" stroke-width="1.5" d="M0,-3.0v7 M-2.5,-0.5L0,-3.0L2.5,-0.5"/>
  </g>
  <g id="arrowLeft" transform="rotate(270) translate(-36 17)">
    <use xlink:href="#rim"/>
    <path pointer-events="none" fill="none" stroke="white" stroke-width="1.5" d="M0,-3.0v7 M-2.5,-0.5L0,-3.0L2.5,-0.5"/>
  </g>
  <g id="resetDef">
    <use xlink:href="#rim2" fill="#404040"><set attributeName="fill" to="#808080" begin="reset.mouseover" end="reset.mouseout"/></use>
  </g>
</defs>
<script type="application/ecmascript">
var viewWidth = 618;
var viewHeight = 219;
var sectionId = 'dynsection-0';
</script>
<script type="application/ecmascript" xlink:href="../../svg.min.js"/>
<svg id="graph" class="graph">
<g id="viewport">
<title>Database::Dato</title>
<!-- Node1 -->
<g id="Node000001" class="node">
<title>Node1</title>
<g id="a_Node000001"><a xlink:title=" ">
<polygon fill="#999999" stroke="#666666" points="610.25,-81 526.75,-81 526.75,-61 610.25,-61 610.25,-81"/>
<text text-anchor="middle" x="568.5" y="-67.5" font-family="Helvetica,sans-Serif" font-size="10.00">Database::Dato</text>
</a>
</g>
</g>
<!-- Node2 -->
<g id="Node000002" class="node">
<title>Node2</title>
<g id="a_Node000002"><a xlink:title=" ">
<polygon fill="white" stroke="#666666" points="190.5,-77 131,-77 131,-57 190.5,-57 190.5,-77"/>
<text text-anchor="middle" x="160.75" y="-63.5" font-family="Helvetica,sans-Serif" font-size="10.00">std::string</text>
</a>
</g>
</g>
<!-- Node2&#45;&gt;Node1 -->
<g id="edge1_Node000001_Node000002" class="edge">
<title>Node2&#45;&gt;Node1</title>
<g id="a_edge1_Node000001_Node000002"><a xlink:title=" ">
<path fill="none" stroke="#9a32cd" stroke-dasharray="5,2" d="M187.46,-83.08C194.12,-86.75 201.42,-90.34 208.5,-93 234.35,-102.71 241.79,-103.09 269.25,-106 375.2,-117.21 405.44,-122.02 508.75,-96 522.08,-92.64 536.28,-86.67 547.38,-81.41"/>
<polygon fill="#9a32cd" stroke="#9a32cd" points="189.34,-80.13 178.93,-78.14 185.83,-86.18 189.34,-80.13"/>
</a>
</g>
<text text-anchor="middle" x="334.25" y="-201.5" font-family="Helvetica,sans-Serif" font-size="10.00" fill="grey"> SELECT_QUERY</text>
<text text-anchor="middle" x="334.25" y="-189.5" font-family="Helvetica,sans-Serif" font-size="10.00" fill="grey">descripcion</text>
<text text-anchor="middle" x="334.25" y="-177.5" font-family="Helvetica,sans-Serif" font-size="10.00" fill="grey">distintivo</text>
<text text-anchor="middle" x="334.25" y="-165.5" font-family="Helvetica,sans-Serif" font-size="10.00" fill="grey">nombre</text>
<text text-anchor="middle" x="334.25" y="-153.5" font-family="Helvetica,sans-Serif" font-size="10.00" fill="grey">rutaNAS</text>
<text text-anchor="middle" x="334.25" y="-141.5" font-family="Helvetica,sans-Serif" font-size="10.00" fill="grey">software</text>
<text text-anchor="middle" x="334.25" y="-129.5" font-family="Helvetica,sans-Serif" font-size="10.00" fill="grey">tipo</text>
<text text-anchor="middle" x="334.25" y="-117.5" font-family="Helvetica,sans-Serif" font-size="10.00" fill="grey">ubicacion</text>
</g>
<!-- Node4 -->
<g id="Node000004" class="node">
<title>Node4</title>
<g id="a_Node000004"><a xlink:title=" ">
<polygon fill="white" stroke="#666666" points="399.25,-97 269.25,-97 269.25,-77 399.25,-77 399.25,-97"/>
<text text-anchor="middle" x="334.25" y="-83.5" font-family="Helvetica,sans-Serif" font-size="10.00">std::array&lt; std::string, 4 &gt;</text>
</a>
</g>
</g>
<!-- Node2&#45;&gt;Node4 -->
<g id="edge4_Node000004_Node000002" class="edge">
<title>Node2&#45;&gt;Node4</title>
<g id="a_edge4_Node000004_Node000002"><a xlink:title=" ">
<path fill="none" stroke="#9a32cd" stroke-dasharray="5,2" d="M202.02,-71.7C221.99,-74.03 246.6,-76.89 269.08,-79.52"/>
<polygon fill="#9a32cd" stroke="#9a32cd" points="202.68,-68.25 192.35,-70.57 201.87,-75.2 202.68,-68.25"/>
</a>
</g>
<text text-anchor="middle" x="229.88" y="-79.5" font-family="Helvetica,sans-Serif" font-size="10.00" fill="grey"> elements</text>
</g>
<!-- Node5 -->
<g id="Node000005" class="node">
<title>Node5</title>
<g id="a_Node000005"><a xlink:title=" ">
<polygon fill="white" stroke="#666666" points="399.25,-59 269.25,-59 269.25,-39 399.25,-39 399.25,-59"/>
<text text-anchor="middle" x="334.25" y="-45.5" font-family="Helvetica,sans-Serif" font-size="10.00">std::array&lt; std::string, 8 &gt;</text>
</a>
</g>
</g>
<!-- Node2&#45;&gt;Node5 -->
<g id="edge6_Node000005_Node000002" class="edge">
<title>Node2&#45;&gt;Node5</title>
<g id="a_edge6_Node000005_Node000002"><a xlink:title=" ">
<path fill="none" stroke="#9a32cd" stroke-dasharray="5,2" d="M200.51,-53.64C203.2,-53 205.88,-52.44 208.5,-52 227.94,-48.72 249.32,-47.39 268.81,-47.04"/>
<polygon fill="#9a32cd" stroke="#9a32cd" points="199.79,-50.21 191.07,-56.23 201.64,-56.96 199.79,-50.21"/>
</a>
</g>
<text text-anchor="middle" x="229.88" y="-54.5" font-family="Helvetica,sans-Serif" font-size="10.00" fill="grey"> elements</text>
</g>
<!-- Node6 -->
<g id="Node000006" class="node">
<title>Node6</title>
<g id="a_Node000006"><a xlink:title=" ">
<polygon fill="white" stroke="#666666" points="399.25,-20 269.25,-20 269.25,0 399.25,0 399.25,-20"/>
<text text-anchor="middle" x="334.25" y="-6.5" font-family="Helvetica,sans-Serif" font-size="10.00">std::array&lt; std::string, 7 &gt;</text>
</a>
</g>
</g>
<!-- Node2&#45;&gt;Node6 -->
<g id="edge8_Node000006_Node000002" class="edge">
<title>Node2&#45;&gt;Node6</title>
<g id="a_edge8_Node000006_Node000002"><a xlink:title=" ">
<path fill="none" stroke="#9a32cd" stroke-dasharray="5,2" d="M180.85,-49.5C188.86,-43.05 198.6,-36.29 208.5,-32 227.27,-23.87 248.86,-18.75 268.76,-15.52"/>
<polygon fill="#9a32cd" stroke="#9a32cd" points="178.83,-46.62 173.49,-55.77 183.37,-51.95 178.83,-46.62"/>
</a>
</g>
<text text-anchor="middle" x="229.88" y="-34.5" font-family="Helvetica,sans-Serif" font-size="10.00" fill="grey"> elements</text>
</g>
<!-- Node3 -->
<g id="Node000003" class="node">
<title>Node3</title>
<g id="a_Node000003"><a xlink:title=" ">
<polygon fill="white" stroke="#666666" points="94,-83 0,-83 0,-51 94,-51 94,-83"/>
<text text-anchor="start" x="8" y="-69.5" font-family="Helvetica,sans-Serif" font-size="10.00">std::basic_string&lt;</text>
<text text-anchor="middle" x="47" y="-57.5" font-family="Helvetica,sans-Serif" font-size="10.00"> Char &gt;</text>
</a>
</g>
</g>
<!-- Node3&#45;&gt;Node2 -->
<g id="edge2_Node000002_Node000003" class="edge">
<title>Node3&#45;&gt;Node2</title>
<g id="a_edge2_Node000002_Node000003"><a xlink:title=" ">
<path fill="none" stroke="#63b8ff" d="M105.71,-67C114.32,-67 122.87,-67 130.55,-67"/>
<polygon fill="#63b8ff" stroke="#63b8ff" points="105.93,-63.5 95.93,-67 105.93,-70.5 105.93,-63.5"/>
</a>
</g>
</g>
<!-- Node4&#45;&gt;Node1 -->
<g id="edge3_Node000001_Node000004" class="edge">
<title>Node4&#45;&gt;Node1</title>
<g id="a_edge3_Node000001_Node000004"><a xlink:title=" ">
<path fill="none" stroke="#9a32cd" stroke-dasharray="5,2" d="M410.8,-81.8C449.23,-79.15 494.45,-76.03 526.41,-73.83"/>
<polygon fill="#9a32cd" stroke="#9a32cd" points="410.88,-78.28 401.15,-82.46 411.36,-85.26 410.88,-78.28"/>
</a>
</g>
<text text-anchor="middle" x="463" y="-82.5" font-family="Helvetica,sans-Serif" font-size="10.00" fill="grey"> DISTINTIVOS</text>
</g>
<!-- Node5&#45;&gt;Node1 -->
<g id="edge5_Node000001_Node000005" class="edge">
<title>Node5&#45;&gt;Node1</title>
<g id="a_edge5_Node000001_Node000005"><a xlink:title=" ">
<path fill="none" stroke="#9a32cd" stroke-dasharray="5,2" d="M411.13,-51.01C441.57,-52.43 476.91,-54.85 508.75,-59 514.53,-59.75 520.59,-60.75 526.54,-61.85"/>
<polygon fill="#9a32cd" stroke="#9a32cd" points="411.38,-47.51 401.24,-50.57 411.07,-54.51 411.38,-47.51"/>
</a>
</g>
<text text-anchor="middle" x="463" y="-61.5" font-family="Helvetica,sans-Serif" font-size="10.00" fill="grey"> TIPOS</text>
</g>
<!-- Node6&#45;&gt;Node1 -->
<g id="edge7_Node000001_Node000006" class="edge">
<title>Node6&#45;&gt;Node1</title>
<g id="a_edge7_Node000001_Node000006"><a xlink:title=" ">
<path fill="none" stroke="#9a32cd" stroke-dasharray="5,2" d="M410.8,-6.53C442.07,-7.51 478.1,-11.84 508.75,-24 528.91,-31.99 547.62,-49.38 558.3,-60.62"/>
<polygon fill="#9a32cd" stroke="#9a32cd" points="411.09,-3.04 401.03,-6.34 410.96,-10.03 411.09,-3.04"/>
</a>
</g>
<text text-anchor="middle" x="463" y="-38.5" font-family="Helvetica,sans-Serif" font-size="10.00" fill="grey"> TIPOS_FORMATOS</text>
<text text-anchor="middle" x="463" y="-26.5" font-family="Helvetica,sans-Serif" font-size="10.00" fill="grey">TIPOS_MANUAL</text>
</g>
</g>
</svg>

<g id="navigator" transform="translate(0 0)" fill="#404254">
  <rect fill="#f2f5e9" fill-opacity="0.5" stroke="#606060" stroke-width=".5" x="0" y="0" width="60" height="60"/>
  <use id="zoomplus" xlink:href="#zoomPlus" x="17" y="9" onmousedown="handleZoom(evt,'in')"/>
  <use id="zoomminus" xlink:href="#zoomMin" x="42" y="9" onmousedown="handleZoom(evt,'out')"/>
  <use id="reset" xlink:href="#resetDef" x="30" y="36" onmousedown="handleReset()"/>
   <use id="arrowup" xlink:href="#arrowUp" x="0" y="0" onmousedown="handlePan(0,-1)"/>
  <use id="arrowright" xlink:href="#arrowRight" x="0" y="0" onmousedown="handlePan(1,0)"/>
  <use id="arrowdown" xlink:href="#arrowDown" x="0" y="0" onmousedown="handlePan(0,1)"/>
  <use id="arrowleft" xlink:href="#arrowLeft" x="0" y="0" onmousedown="handlePan(-1,0)"/>
</g>
<svg viewBox="0 0 15 15" width="100%" height="30px" preserveAspectRatio="xMaxYMin meet">
 <g id="arrow_out" transform="scale(0.3 0.3)">
  <a xlink:href="struct_database_1_1_dato__coll__graph_org.svg" target="_base">
   <rect id="button" ry="5" rx="5" y="6" x="6" height="38" width="38"
        fill="#f2f5e9" fill-opacity="0.5" stroke="#606060" stroke-width="1.0"/>
   <path id="arrow"
     d="M 11.500037,31.436501 C 11.940474,20.09759 22.043105,11.32322 32.158766,21.979434 L 37.068811,17.246167 C 37.068811,17.246167 37.088388,32 37.088388,32 L 22.160133,31.978069 C 22.160133,31.978069 26.997745,27.140456 26.997745,27.140456 C 18.528582,18.264221 13.291696,25.230495 11.500037,31.436501 z"
     style="fill:#404040;"/>
  </a>
 </g>
</svg>

<style type='text/css'>
<![CDATA[
[data-mouse-over-selected='false'] { opacity: 0.7; }
[data-mouse-over-selected='true']  { opacity: 1.0; }
]]>
</style>
<script type="application/ecmascript"><![CDATA[
document.addEventListener('DOMContentLoaded', (event) => {
  highlightEdges();
  highlightAdjacentNodes();
});
]]></script>
</svg>
