<?xml version="1.0" encoding="UTF-8" standalone="no"?>
<!DOCTYPE svg PUBLIC "-//W3C//DTD SVG 1.1//EN"
 "http://www.w3.org/Graphics/SVG/1.1/DTD/svg11.dtd">
<!-- Generated by graphviz version 10.0.1 (20240210.2158)
 -->
<!-- Title: C:/GitHub/GEU/GEU/Source/UI/MaterialsWindow.cpp Pages: 1 -->
<svg width="3981pt" height="220pt"
 viewBox="0.00 0.00 3981.25 220.00" xmlns="http://www.w3.org/2000/svg" xmlns:xlink="http://www.w3.org/1999/xlink">
<g id="graph0" class="graph" transform="scale(1 1) rotate(0) translate(4 216)">
<title>C:/GitHub/GEU/GEU/Source/UI/MaterialsWindow.cpp</title>
<!-- Node1 -->
<g id="Node000001" class="node">
<title>Node1</title>
<g id="a_Node000001"><a xlink:title=" ">
<polygon fill="#999999" stroke="#666666" points="1876.5,-212 1736,-212 1736,-180 1876.5,-180 1876.5,-212"/>
<text text-anchor="start" x="1744" y="-198.5" font-family="Helvetica,sans-Serif" font-size="10.00">C:/GitHub/GEU/GEU/Source</text>
<text text-anchor="middle" x="1806.25" y="-186.5" font-family="Helvetica,sans-Serif" font-size="10.00">/UI/MaterialsWindow.cpp</text>
</a>
</g>
</g>
<!-- Node2 -->
<g id="Node000002" class="node">
<title>Node2</title>
<g id="a_Node000002"><a xlink:href="../../db/d06/stdafx_8h.html" target="_top" xlink:title=" ">
<polygon fill="white" stroke="#666666" points="1615.5,-88 1565,-88 1565,-68 1615.5,-68 1615.5,-88"/>
<text text-anchor="middle" x="1590.25" y="-74.5" font-family="Helvetica,sans-Serif" font-size="10.00">stdafx.h</text>
</a>
</g>
</g>
<!-- Node1&#45;&gt;Node2 -->
<g id="edge1_Node000001_Node000002" class="edge">
<title>Node1&#45;&gt;Node2</title>
<g id="a_edge1_Node000001_Node000002"><a xlink:title=" ">
<path fill="none" stroke="#63b8ff" d="M1798.27,-179.61C1789.07,-163.4 1772.47,-138.27 1751.25,-124 1713.39,-98.53 1661.3,-87.37 1626.75,-82.55"/>
<polygon fill="#63b8ff" stroke="#63b8ff" points="1627.61,-79.14 1617.25,-81.34 1626.73,-86.08 1627.61,-79.14"/>
</a>
</g>
</g>
<!-- Node46 -->
<g id="Node000046" class="node">
<title>Node46</title>
<g id="a_Node000046"><a xlink:href="../../db/dea/_materials_window_8h.html" target="_top" xlink:title=" ">
<polygon fill="#fff0f0" stroke="red" points="1742.5,-144 1644,-144 1644,-124 1742.5,-124 1742.5,-144"/>
<text text-anchor="middle" x="1693.25" y="-130.5" font-family="Helvetica,sans-Serif" font-size="10.00">MaterialsWindow.h</text>
</a>
</g>
</g>
<!-- Node1&#45;&gt;Node46 -->
<g id="edge45_Node000001_Node000046" class="edge">
<title>Node1&#45;&gt;Node46</title>
<g id="a_edge45_Node000001_Node000046"><a xlink:title=" ">
<path fill="none" stroke="#63b8ff" d="M1777.15,-179.55C1759.82,-170.35 1737.95,-158.74 1720.89,-149.68"/>
<polygon fill="#63b8ff" stroke="#63b8ff" points="1722.78,-146.72 1712.31,-145.12 1719.5,-152.9 1722.78,-146.72"/>
</a>
</g>
</g>
<!-- Node48 -->
<g id="Node000048" class="node">
<title>Node48</title>
<g id="a_Node000048"><a xlink:href="../../dc/de5/_material_list_8h.html" target="_top" xlink:title=" ">
<polygon fill="#fff0f0" stroke="red" points="2967.12,-88 2869.38,-88 2869.38,-68 2967.12,-68 2967.12,-88"/>
<text text-anchor="middle" x="2918.25" y="-74.5" font-family="Helvetica,sans-Serif" font-size="10.00">Core/MaterialList.h</text>
</a>
</g>
</g>
<!-- Node1&#45;&gt;Node48 -->
<g id="edge46_Node000001_Node000048" class="edge">
<title>Node1&#45;&gt;Node48</title>
<g id="a_edge46_Node000001_Node000048"><a xlink:title=" ">
<path fill="none" stroke="#63b8ff" d="M1832.93,-179.67C1868.56,-159.26 1927.84,-125.54 1933.25,-124 2021.77,-98.76 2656.88,-84.17 2857.61,-80.15"/>
<polygon fill="#63b8ff" stroke="#63b8ff" points="2857.64,-83.65 2867.57,-79.95 2857.5,-76.65 2857.64,-83.65"/>
</a>
</g>
</g>
<!-- Node56 -->
<g id="Node000056" class="node">
<title>Node56</title>
<g id="a_Node000056"><a xlink:href="../../d1/dfc/_details_window_8h.html" target="_top" xlink:title=" ">
<polygon fill="#fff0f0" stroke="red" points="1886.62,-144 1797.88,-144 1797.88,-124 1886.62,-124 1886.62,-144"/>
<text text-anchor="middle" x="1842.25" y="-130.5" font-family="Helvetica,sans-Serif" font-size="10.00">DetailsWindow.h</text>
</a>
</g>
</g>
<!-- Node1&#45;&gt;Node56 -->
<g id="edge48_Node000001_Node000056" class="edge">
<title>Node1&#45;&gt;Node56</title>
<g id="a_edge48_Node000001_Node000056"><a xlink:title=" ">
<path fill="none" stroke="#63b8ff" d="M1815.52,-179.55C1820.16,-171.82 1825.81,-162.4 1830.72,-154.21"/>
<polygon fill="#63b8ff" stroke="#63b8ff" points="1833.68,-156.08 1835.83,-145.71 1827.68,-152.48 1833.68,-156.08"/>
</a>
</g>
</g>
<!-- Node89 -->
<g id="Node000089" class="node">
<title>Node89</title>
<g id="a_Node000089"><a xlink:href="../../d4/d87/_gui_utilities_8h.html" target="_top" xlink:title=" ">
<polygon fill="#fff0f0" stroke="red" points="1626,-144 1554.5,-144 1554.5,-124 1626,-124 1626,-144"/>
<text text-anchor="middle" x="1590.25" y="-130.5" font-family="Helvetica,sans-Serif" font-size="10.00">GuiUtilities.h</text>
</a>
</g>
</g>
<!-- Node1&#45;&gt;Node89 -->
<g id="edge49_Node000001_Node000089" class="edge">
<title>Node1&#45;&gt;Node89</title>
<g id="a_edge49_Node000001_Node000089"><a xlink:title=" ">
<path fill="none" stroke="#63b8ff" d="M1750.62,-179.55C1714.8,-169.6 1668.83,-156.83 1635.3,-147.51"/>
<polygon fill="#63b8ff" stroke="#63b8ff" points="1636.47,-144.21 1625.9,-144.9 1634.59,-150.95 1636.47,-144.21"/>
</a>
</g>
</g>
<!-- Node90 -->
<g id="Node000090" class="node">
<title>Node90</title>
<g id="a_Node000090"><a xlink:href="../../d5/de9/_inspector_window_8h.html" target="_top" xlink:title=" ">
<polygon fill="#fff0f0" stroke="red" points="2040.5,-144 1942,-144 1942,-124 2040.5,-124 2040.5,-144"/>
<text text-anchor="middle" x="1991.25" y="-130.5" font-family="Helvetica,sans-Serif" font-size="10.00">InspectorWindow.h</text>
</a>
</g>
</g>
<!-- Node1&#45;&gt;Node90 -->
<g id="edge51_Node000001_Node000090" class="edge">
<title>Node1&#45;&gt;Node90</title>
<g id="a_edge51_Node000001_Node000090"><a xlink:title=" ">
<path fill="none" stroke="#63b8ff" d="M1853.89,-179.55C1884.04,-169.77 1922.58,-157.27 1951.16,-148"/>
<polygon fill="#63b8ff" stroke="#63b8ff" points="1952.1,-151.38 1960.53,-144.96 1949.94,-144.72 1952.1,-151.38"/>
</a>
</g>
</g>
<!-- Node3 -->
<g id="Node000003" class="node">
<title>Node3</title>
<g id="a_Node000003"><a xlink:title=" ">
<polygon fill="#e0e0e0" stroke="#999999" points="3854.88,-26 3809.62,-26 3809.62,-6 3854.88,-6 3854.88,-26"/>
<text text-anchor="middle" x="3832.25" y="-12.5" font-family="Helvetica,sans-Serif" font-size="10.00">cstdint</text>
</a>
</g>
</g>
<!-- Node2&#45;&gt;Node3 -->
<g id="edge2_Node000002_Node000003" class="edge">
<title>Node2&#45;&gt;Node3</title>
<g id="a_edge2_Node000002_Node000003"><a xlink:title=" ">
<path fill="none" stroke="#63b8ff" d="M1615.96,-76.78C1855.36,-74.72 3688.49,-58.09 3800.25,-32 3801.86,-31.63 3803.48,-31.16 3805.09,-30.64"/>
<polygon fill="#63b8ff" stroke="#63b8ff" points="3806.08,-34.01 3814.05,-27.04 3803.47,-27.52 3806.08,-34.01"/>
</a>
</g>
</g>
<!-- Node4 -->
<g id="Node000004" class="node">
<title>Node4</title>
<g id="a_Node000004"><a xlink:title=" ">
<polygon fill="#e0e0e0" stroke="#999999" points="44.5,-26 0,-26 0,-6 44.5,-6 44.5,-26"/>
<text text-anchor="middle" x="22.25" y="-12.5" font-family="Helvetica,sans-Serif" font-size="10.00">cstdlib</text>
</a>
</g>
</g>
<!-- Node2&#45;&gt;Node4 -->
<g id="edge3_Node000002_Node000004" class="edge">
<title>Node2&#45;&gt;Node4</title>
<g id="a_edge3_Node000002_Node000004"><a xlink:title=" ">
<path fill="none" stroke="#63b8ff" d="M1564.6,-76.9C1375.91,-76.05 205.75,-69.31 53.25,-32 51.85,-31.66 50.43,-31.24 49.02,-30.78"/>
<polygon fill="#63b8ff" stroke="#63b8ff" points="50.48,-27.59 39.9,-27.02 47.81,-34.07 50.48,-27.59"/>
</a>
</g>
</g>
<!-- Node5 -->
<g id="Node000005" class="node">
<title>Node5</title>
<g id="a_Node000005"><a xlink:title=" ">
<polygon fill="#e0e0e0" stroke="#999999" points="120.25,-26 62.25,-26 62.25,-6 120.25,-6 120.25,-26"/>
<text text-anchor="middle" x="91.25" y="-12.5" font-family="Helvetica,sans-Serif" font-size="10.00">execution</text>
</a>
</g>
</g>
<!-- Node2&#45;&gt;Node5 -->
<g id="edge4_Node000002_Node000005" class="edge">
<title>Node2&#45;&gt;Node5</title>
<g id="a_edge4_Node000002_Node000005"><a xlink:title=" ">
<path fill="none" stroke="#63b8ff" d="M1564.74,-76.74C1381.98,-74.83 275.11,-62.08 129.25,-32 126.92,-31.52 124.54,-30.91 122.17,-30.2"/>
<polygon fill="#63b8ff" stroke="#63b8ff" points="123.39,-26.92 112.79,-26.93 121.08,-33.53 123.39,-26.92"/>
</a>
</g>
</g>
<!-- Node6 -->
<g id="Node000006" class="node">
<title>Node6</title>
<g id="a_Node000006"><a xlink:title=" ">
<polygon fill="#e0e0e0" stroke="#999999" points="192,-26 138.5,-26 138.5,-6 192,-6 192,-26"/>
<text text-anchor="middle" x="165.25" y="-12.5" font-family="Helvetica,sans-Serif" font-size="10.00">iostream</text>
</a>
</g>
</g>
<!-- Node2&#45;&gt;Node6 -->
<g id="edge5_Node000002_Node000006" class="edge">
<title>Node2&#45;&gt;Node6</title>
<g id="a_edge5_Node000002_Node000006"><a xlink:title=" ">
<path fill="none" stroke="#63b8ff" d="M1564.58,-76.73C1386.6,-74.75 339.26,-61.93 201.25,-32 199.2,-31.56 197.13,-31 195.06,-30.37"/>
<polygon fill="#63b8ff" stroke="#63b8ff" points="196.28,-27.09 185.68,-26.95 193.88,-33.66 196.28,-27.09"/>
</a>
</g>
</g>
<!-- Node7 -->
<g id="Node000007" class="node">
<title>Node7</title>
<g id="a_Node000007"><a xlink:title=" ">
<polygon fill="#e0e0e0" stroke="#999999" points="270.38,-26 210.12,-26 210.12,-6 270.38,-6 270.38,-26"/>
<text text-anchor="middle" x="240.25" y="-12.5" font-family="Helvetica,sans-Serif" font-size="10.00">filesystem</text>
</a>
</g>
</g>
<!-- Node2&#45;&gt;Node7 -->
<g id="edge6_Node000002_Node000007" class="edge">
<title>Node2&#45;&gt;Node7</title>
<g id="a_edge6_Node000002_Node000007"><a xlink:title=" ">
<path fill="none" stroke="#63b8ff" d="M1564.67,-76.63C1392.83,-74.1 409.52,-58.51 279.25,-32 276.77,-31.49 274.23,-30.85 271.71,-30.11"/>
<polygon fill="#63b8ff" stroke="#63b8ff" points="272.94,-26.83 262.35,-26.9 270.68,-33.45 272.94,-26.83"/>
</a>
</g>
</g>
<!-- Node8 -->
<g id="Node000008" class="node">
<title>Node8</title>
<g id="a_Node000008"><a xlink:title=" ">
<polygon fill="#e0e0e0" stroke="#999999" points="331.75,-26 288.75,-26 288.75,-6 331.75,-6 331.75,-26"/>
<text text-anchor="middle" x="310.25" y="-12.5" font-family="Helvetica,sans-Serif" font-size="10.00">format</text>
</a>
</g>
</g>
<!-- Node2&#45;&gt;Node8 -->
<g id="edge7_Node000002_Node000008" class="edge">
<title>Node2&#45;&gt;Node8</title>
<g id="a_edge7_Node000002_Node000008"><a xlink:title=" ">
<path fill="none" stroke="#63b8ff" d="M1564.52,-76.71C1396.94,-74.74 463.85,-62.44 341.25,-32 339.85,-31.65 338.43,-31.24 337.02,-30.77"/>
<polygon fill="#63b8ff" stroke="#63b8ff" points="338.48,-27.58 327.9,-27 335.81,-34.05 338.48,-27.58"/>
</a>
</g>
</g>
<!-- Node9 -->
<g id="Node000009" class="node">
<title>Node9</title>
<g id="a_Node000009"><a xlink:title=" ">
<polygon fill="#e0e0e0" stroke="#999999" points="398.38,-26 350.12,-26 350.12,-6 398.38,-6 398.38,-26"/>
<text text-anchor="middle" x="374.25" y="-12.5" font-family="Helvetica,sans-Serif" font-size="10.00">fstream</text>
</a>
</g>
</g>
<!-- Node2&#45;&gt;Node9 -->
<g id="edge8_Node000002_Node000009" class="edge">
<title>Node2&#45;&gt;Node9</title>
<g id="a_edge8_Node000002_Node000009"><a xlink:title=" ">
<path fill="none" stroke="#63b8ff" d="M1564.59,-76.62C1402.48,-74.14 523.38,-59.48 407.25,-32 405.6,-31.61 403.94,-31.14 402.28,-30.6"/>
<polygon fill="#63b8ff" stroke="#63b8ff" points="403.61,-27.36 393.02,-26.96 401.05,-33.88 403.61,-27.36"/>
</a>
</g>
</g>
<!-- Node10 -->
<g id="Node000010" class="node">
<title>Node10</title>
<g id="a_Node000010"><a xlink:title=" ">
<polygon fill="#e0e0e0" stroke="#999999" points="473.88,-26 416.62,-26 416.62,-6 473.88,-6 473.88,-26"/>
<text text-anchor="middle" x="445.25" y="-12.5" font-family="Helvetica,sans-Serif" font-size="10.00">functional</text>
</a>
</g>
</g>
<!-- Node2&#45;&gt;Node10 -->
<g id="edge9_Node000002_Node000010" class="edge">
<title>Node2&#45;&gt;Node10</title>
<g id="a_edge9_Node000002_Node000010"><a xlink:title=" ">
<path fill="none" stroke="#63b8ff" d="M1564.51,-77.15C1419,-77.83 698.41,-78.72 482.25,-32 480.07,-31.53 477.84,-30.94 475.63,-30.26"/>
<polygon fill="#63b8ff" stroke="#63b8ff" points="476.84,-26.98 466.25,-26.9 474.48,-33.57 476.84,-26.98"/>
</a>
</g>
</g>
<!-- Node11 -->
<g id="Node000011" class="node">
<title>Node11</title>
<g id="a_Node000011"><a xlink:title=" ">
<polygon fill="#e0e0e0" stroke="#999999" points="542.88,-26 491.62,-26 491.62,-6 542.88,-6 542.88,-26"/>
<text text-anchor="middle" x="517.25" y="-12.5" font-family="Helvetica,sans-Serif" font-size="10.00">memory</text>
</a>
</g>
</g>
<!-- Node2&#45;&gt;Node11 -->
<g id="edge10_Node000002_Node000011" class="edge">
<title>Node2&#45;&gt;Node11</title>
<g id="a_edge10_Node000002_Node000011"><a xlink:title=" ">
<path fill="none" stroke="#63b8ff" d="M1564.73,-77.17C1425.11,-77.92 752.57,-79.01 551.25,-32 549.48,-31.59 547.68,-31.08 545.89,-30.51"/>
<polygon fill="#63b8ff" stroke="#63b8ff" points="547.17,-27.25 536.58,-26.93 544.66,-33.79 547.17,-27.25"/>
</a>
</g>
</g>
<!-- Node12 -->
<g id="Node000012" class="node">
<title>Node12</title>
<g id="a_Node000012"><a xlink:title=" ">
<polygon fill="#e0e0e0" stroke="#999999" points="611.88,-26 560.62,-26 560.62,-6 611.88,-6 611.88,-26"/>
<text text-anchor="middle" x="586.25" y="-12.5" font-family="Helvetica,sans-Serif" font-size="10.00">sstream</text>
</a>
</g>
</g>
<!-- Node2&#45;&gt;Node12 -->
<g id="edge11_Node000002_Node000012" class="edge">
<title>Node2&#45;&gt;Node12</title>
<g id="a_edge11_Node000002_Node000012"><a xlink:title=" ">
<path fill="none" stroke="#63b8ff" d="M1564.73,-77.04C1430.81,-77.09 808.37,-74.96 621.25,-32 619.35,-31.56 617.41,-31.03 615.49,-30.42"/>
<polygon fill="#63b8ff" stroke="#63b8ff" points="616.73,-27.15 606.14,-26.91 614.27,-33.7 616.73,-27.15"/>
</a>
</g>
</g>
<!-- Node13 -->
<g id="Node000013" class="node">
<title>Node13</title>
<g id="a_Node000013"><a xlink:title=" ">
<polygon fill="#e0e0e0" stroke="#999999" points="672.38,-26 630.12,-26 630.12,-6 672.38,-6 672.38,-26"/>
<text text-anchor="middle" x="651.25" y="-12.5" font-family="Helvetica,sans-Serif" font-size="10.00">cstdio</text>
</a>
</g>
</g>
<!-- Node2&#45;&gt;Node13 -->
<g id="edge12_Node000002_Node000013" class="edge">
<title>Node2&#45;&gt;Node13</title>
<g id="a_edge12_Node000002_Node000013"><a xlink:title=" ">
<path fill="none" stroke="#63b8ff" d="M1564.58,-77.15C1435.27,-77.69 854.72,-77.51 681.25,-32 679.89,-31.64 678.51,-31.22 677.15,-30.74"/>
<polygon fill="#63b8ff" stroke="#63b8ff" points="678.92,-27.7 668.35,-26.97 676.16,-34.13 678.92,-27.7"/>
</a>
</g>
</g>
<!-- Node14 -->
<g id="Node000014" class="node">
<title>Node14</title>
<g id="a_Node000014"><a xlink:title=" ">
<polygon fill="#e0e0e0" stroke="#999999" points="733.75,-26 690.75,-26 690.75,-6 733.75,-6 733.75,-26"/>
<text text-anchor="middle" x="712.25" y="-12.5" font-family="Helvetica,sans-Serif" font-size="10.00">thread</text>
</a>
</g>
</g>
<!-- Node2&#45;&gt;Node14 -->
<g id="edge13_Node000002_Node000014" class="edge">
<title>Node2&#45;&gt;Node14</title>
<g id="a_edge13_Node000002_Node000014"><a xlink:title=" ">
<path fill="none" stroke="#63b8ff" d="M1564.72,-77C1441.14,-76.79 904.4,-73.47 743.25,-32 741.85,-31.64 740.44,-31.21 739.03,-30.74"/>
<polygon fill="#63b8ff" stroke="#63b8ff" points="740.49,-27.56 729.91,-26.95 737.8,-34.02 740.49,-27.56"/>
</a>
</g>
</g>
<!-- Node15 -->
<g id="Node000015" class="node">
<title>Node15</title>
<g id="a_Node000015"><a xlink:title=" ">
<polygon fill="#e0e0e0" stroke="#999999" points="834.62,-26 751.88,-26 751.88,-6 834.62,-6 834.62,-26"/>
<text text-anchor="middle" x="793.25" y="-12.5" font-family="Helvetica,sans-Serif" font-size="10.00">unordered_map</text>
</a>
</g>
</g>
<!-- Node2&#45;&gt;Node15 -->
<g id="edge14_Node000002_Node000015" class="edge">
<title>Node2&#45;&gt;Node15</title>
<g id="a_edge14_Node000002_Node000015"><a xlink:title=" ">
<path fill="none" stroke="#63b8ff" d="M1564.87,-76.26C1450.99,-72.82 986.52,-57.45 843.25,-32 839.43,-31.32 835.49,-30.45 831.58,-29.47"/>
<polygon fill="#63b8ff" stroke="#63b8ff" points="832.77,-26.17 822.2,-26.89 830.92,-32.92 832.77,-26.17"/>
</a>
</g>
</g>
<!-- Node16 -->
<g id="Node000016" class="node">
<title>Node16</title>
<g id="a_Node000016"><a xlink:title=" ">
<polygon fill="#e0e0e0" stroke="#999999" points="930,-26 852.5,-26 852.5,-6 930,-6 930,-26"/>
<text text-anchor="middle" x="891.25" y="-12.5" font-family="Helvetica,sans-Serif" font-size="10.00">unordered_set</text>
</a>
</g>
</g>
<!-- Node2&#45;&gt;Node16 -->
<g id="edge15_Node000002_Node000016" class="edge">
<title>Node2&#45;&gt;Node16</title>
<g id="a_edge15_Node000002_Node000016"><a xlink:title=" ">
<path fill="none" stroke="#63b8ff" d="M1564.54,-77.37C1476.48,-78.17 1179.18,-77.14 939.25,-32 935.69,-31.33 932.02,-30.48 928.38,-29.53"/>
<polygon fill="#63b8ff" stroke="#63b8ff" points="929.66,-26.26 919.08,-26.87 927.73,-32.99 929.66,-26.26"/>
</a>
</g>
</g>
<!-- Node17 -->
<g id="Node000017" class="node">
<title>Node17</title>
<g id="a_Node000017"><a xlink:title=" ">
<polygon fill="#e0e0e0" stroke="#999999" points="990,-26 948.5,-26 948.5,-6 990,-6 990,-26"/>
<text text-anchor="middle" x="969.25" y="-12.5" font-family="Helvetica,sans-Serif" font-size="10.00">vector</text>
</a>
</g>
</g>
<!-- Node2&#45;&gt;Node17 -->
<g id="edge16_Node000002_Node000017" class="edge">
<title>Node2&#45;&gt;Node17</title>
<g id="a_edge16_Node000002_Node000017"><a xlink:title=" ">
<path fill="none" stroke="#63b8ff" d="M1564.61,-76.36C1465.59,-73.69 1108.22,-62.14 999.25,-32 998.07,-31.67 996.88,-31.3 995.7,-30.89"/>
<polygon fill="#63b8ff" stroke="#63b8ff" points="997.26,-27.75 986.69,-27.04 994.51,-34.19 997.26,-27.75"/>
</a>
</g>
</g>
<!-- Node18 -->
<g id="Node000018" class="node">
<title>Node18</title>
<g id="a_Node000018"><a xlink:title=" ">
<polygon fill="#e0e0e0" stroke="#999999" points="1048.25,-26 1008.25,-26 1008.25,-6 1048.25,-6 1048.25,-26"/>
<text text-anchor="middle" x="1028.25" y="-12.5" font-family="Helvetica,sans-Serif" font-size="10.00">future</text>
</a>
</g>
</g>
<!-- Node2&#45;&gt;Node18 -->
<g id="edge17_Node000002_Node000018" class="edge">
<title>Node2&#45;&gt;Node18</title>
<g id="a_edge17_Node000002_Node000018"><a xlink:title=" ">
<path fill="none" stroke="#63b8ff" d="M1564.62,-76.16C1471.9,-72.93 1154.4,-60.02 1057.25,-32 1056.25,-31.71 1055.24,-31.39 1054.24,-31.03"/>
<polygon fill="#63b8ff" stroke="#63b8ff" points="1055.69,-27.85 1045.12,-27.04 1052.87,-34.26 1055.69,-27.85"/>
</a>
</g>
</g>
<!-- Node19 -->
<g id="Node000019" class="node">
<title>Node19</title>
<g id="a_Node000019"><a xlink:title=" ">
<polygon fill="#e0e0e0" stroke="#999999" points="1105.88,-26 1066.62,-26 1066.62,-6 1105.88,-6 1105.88,-26"/>
<text text-anchor="middle" x="1086.25" y="-12.5" font-family="Helvetica,sans-Serif" font-size="10.00">utility</text>
</a>
</g>
</g>
<!-- Node2&#45;&gt;Node19 -->
<g id="edge18_Node000002_Node000019" class="edge">
<title>Node2&#45;&gt;Node19</title>
<g id="a_edge18_Node000002_Node000019"><a xlink:title=" ">
<path fill="none" stroke="#63b8ff" d="M1564.78,-75.87C1478.94,-71.85 1200.88,-57.17 1115.25,-32 1114.25,-31.71 1113.25,-31.38 1112.24,-31.02"/>
<polygon fill="#63b8ff" stroke="#63b8ff" points="1113.69,-27.84 1103.13,-27.01 1110.87,-34.24 1113.69,-27.84"/>
</a>
</g>
</g>
<!-- Node20 -->
<g id="Node000020" class="node">
<title>Node20</title>
<g id="a_Node000020"><a xlink:title=" ">
<polygon fill="#e0e0e0" stroke="#999999" points="1172.38,-26 1124.12,-26 1124.12,-6 1172.38,-6 1172.38,-26"/>
<text text-anchor="middle" x="1148.25" y="-12.5" font-family="Helvetica,sans-Serif" font-size="10.00">random</text>
</a>
</g>
</g>
<!-- Node2&#45;&gt;Node20 -->
<g id="edge19_Node000002_Node000020" class="edge">
<title>Node2&#45;&gt;Node20</title>
<g id="a_edge19_Node000002_Node000020"><a xlink:title=" ">
<path fill="none" stroke="#63b8ff" d="M1564.83,-76.97C1499.79,-76.31 1322.46,-70.79 1181.25,-32 1179.85,-31.62 1178.44,-31.18 1177.02,-30.7"/>
<polygon fill="#63b8ff" stroke="#63b8ff" points="1178.36,-27.47 1167.77,-27.03 1175.78,-33.97 1178.36,-27.47"/>
</a>
</g>
</g>
<!-- Node21 -->
<g id="Node000021" class="node">
<title>Node21</title>
<g id="a_Node000021"><a xlink:title=" ">
<polygon fill="#e0e0e0" stroke="#999999" points="1230.25,-26 1190.25,-26 1190.25,-6 1230.25,-6 1230.25,-26"/>
<text text-anchor="middle" x="1210.25" y="-12.5" font-family="Helvetica,sans-Serif" font-size="10.00">regex</text>
</a>
</g>
</g>
<!-- Node2&#45;&gt;Node21 -->
<g id="edge20_Node000002_Node000021" class="edge">
<title>Node2&#45;&gt;Node21</title>
<g id="a_edge20_Node000002_Node000021"><a xlink:title=" ">
<path fill="none" stroke="#63b8ff" d="M1564.93,-76.75C1506.28,-75.54 1357.13,-68.78 1239.25,-32 1238.28,-31.7 1237.3,-31.36 1236.32,-31"/>
<polygon fill="#63b8ff" stroke="#63b8ff" points="1238.02,-27.93 1227.46,-27.07 1235.18,-34.33 1238.02,-27.93"/>
</a>
</g>
</g>
<!-- Node22 -->
<g id="Node000022" class="node">
<title>Node22</title>
<g id="a_Node000022"><a xlink:title=" ">
<polygon fill="#e0e0e0" stroke="#999999" points="1317.88,-26 1248.62,-26 1248.62,-6 1317.88,-6 1317.88,-26"/>
<text text-anchor="middle" x="1283.25" y="-12.5" font-family="Helvetica,sans-Serif" font-size="10.00">WinSock2.h</text>
</a>
</g>
</g>
<!-- Node2&#45;&gt;Node22 -->
<g id="edge21_Node000002_Node000022" class="edge">
<title>Node2&#45;&gt;Node22</title>
<g id="a_edge21_Node000002_Node000022"><a xlink:title=" ">
<path fill="none" stroke="#63b8ff" d="M1564.84,-74.1C1517.42,-68.38 1412.47,-54.22 1326.25,-32 1323.82,-31.37 1321.34,-30.67 1318.85,-29.93"/>
<polygon fill="#63b8ff" stroke="#63b8ff" points="1320.08,-26.65 1309.49,-26.9 1317.93,-33.31 1320.08,-26.65"/>
</a>
</g>
</g>
<!-- Node23 -->
<g id="Node000023" class="node">
<title>Node23</title>
<g id="a_Node000023"><a xlink:title=" ">
<polygon fill="#e0e0e0" stroke="#999999" points="1396.75,-26 1335.75,-26 1335.75,-6 1396.75,-6 1396.75,-26"/>
<text text-anchor="middle" x="1366.25" y="-12.5" font-family="Helvetica,sans-Serif" font-size="10.00">windows.h</text>
</a>
</g>
</g>
<!-- Node2&#45;&gt;Node23 -->
<g id="edge22_Node000002_Node000023" class="edge">
<title>Node2&#45;&gt;Node23</title>
<g id="a_edge22_Node000002_Node000023"><a xlink:title=" ">
<path fill="none" stroke="#63b8ff" d="M1564.69,-71.76C1528.91,-64.19 1462.03,-49.21 1406.25,-32 1404.4,-31.43 1402.51,-30.82 1400.61,-30.18"/>
<polygon fill="#63b8ff" stroke="#63b8ff" points="1401.8,-26.89 1391.21,-26.86 1399.47,-33.49 1401.8,-26.89"/>
</a>
</g>
</g>
<!-- Node24 -->
<g id="Node000024" class="node">
<title>Node24</title>
<g id="a_Node000024"><a xlink:href="../../de/dbf/locale__strings_8h.html" target="_top" xlink:title=" ">
<polygon fill="white" stroke="#666666" points="1499.38,-26 1415.12,-26 1415.12,-6 1499.38,-6 1499.38,-26"/>
<text text-anchor="middle" x="1457.25" y="-12.5" font-family="Helvetica,sans-Serif" font-size="10.00">locale_strings.h</text>
</a>
</g>
</g>
<!-- Node2&#45;&gt;Node24 -->
<g id="edge23_Node000002_Node000024" class="edge">
<title>Node2&#45;&gt;Node24</title>
<g id="a_edge23_Node000002_Node000024"><a xlink:title=" ">
<path fill="none" stroke="#63b8ff" d="M1569.47,-67.62C1547.7,-57.81 1513.27,-42.27 1488.29,-31"/>
<polygon fill="#63b8ff" stroke="#63b8ff" points="1489.82,-27.85 1479.26,-26.93 1486.94,-34.23 1489.82,-27.85"/>
</a>
</g>
</g>
<!-- Node25 -->
<g id="Node000025" class="node">
<title>Node25</title>
<g id="a_Node000025"><a xlink:title=" ">
<polygon fill="#e0e0e0" stroke="#999999" points="1577,-26 1517.5,-26 1517.5,-6 1577,-6 1577,-26"/>
<text text-anchor="middle" x="1547.25" y="-12.5" font-family="Helvetica,sans-Serif" font-size="10.00">GL/glew.h</text>
</a>
</g>
</g>
<!-- Node2&#45;&gt;Node25 -->
<g id="edge24_Node000002_Node000025" class="edge">
<title>Node2&#45;&gt;Node25</title>
<g id="a_edge24_Node000002_Node000025"><a xlink:title=" ">
<path fill="none" stroke="#63b8ff" d="M1583.53,-67.62C1577.37,-59.03 1568.08,-46.07 1560.44,-35.41"/>
<polygon fill="#63b8ff" stroke="#63b8ff" points="1563.33,-33.43 1554.66,-27.34 1557.64,-37.51 1563.33,-33.43"/>
</a>
</g>
</g>
<!-- Node26 -->
<g id="Node000026" class="node">
<title>Node26</title>
<g id="a_Node000026"><a xlink:title=" ">
<polygon fill="#e0e0e0" stroke="#999999" points="1673,-26 1595.5,-26 1595.5,-6 1673,-6 1673,-26"/>
<text text-anchor="middle" x="1634.25" y="-12.5" font-family="Helvetica,sans-Serif" font-size="10.00">GLFW/glfw3.h</text>
</a>
</g>
</g>
<!-- Node2&#45;&gt;Node26 -->
<g id="edge25_Node000002_Node000026" class="edge">
<title>Node2&#45;&gt;Node26</title>
<g id="a_edge25_Node000002_Node000026"><a xlink:title=" ">
<path fill="none" stroke="#63b8ff" d="M1597.12,-67.62C1603.49,-58.94 1613.13,-45.8 1620.99,-35.08"/>
<polygon fill="#63b8ff" stroke="#63b8ff" points="1623.58,-37.47 1626.67,-27.33 1617.94,-33.33 1623.58,-37.47"/>
</a>
</g>
</g>
<!-- Node27 -->
<g id="Node000027" class="node">
<title>Node27</title>
<g id="a_Node000027"><a xlink:title=" ">
<polygon fill="#e0e0e0" stroke="#999999" points="1759.88,-26 1690.62,-26 1690.62,-6 1759.88,-6 1759.88,-26"/>
<text text-anchor="middle" x="1725.25" y="-12.5" font-family="Helvetica,sans-Serif" font-size="10.00">glm/glm.hpp</text>
</a>
</g>
</g>
<!-- Node2&#45;&gt;Node27 -->
<g id="edge26_Node000002_Node000027" class="edge">
<title>Node2&#45;&gt;Node27</title>
<g id="a_edge26_Node000002_Node000027"><a xlink:title=" ">
<path fill="none" stroke="#63b8ff" d="M1611.34,-67.62C1633.54,-57.76 1668.7,-42.13 1694.09,-30.85"/>
<polygon fill="#63b8ff" stroke="#63b8ff" points="1695.2,-34.18 1702.92,-26.92 1692.36,-27.79 1695.2,-34.18"/>
</a>
</g>
</g>
<!-- Node28 -->
<g id="Node000028" class="node">
<title>Node28</title>
<g id="a_Node000028"><a xlink:title=" ">
<polygon fill="#e0e0e0" stroke="#999999" points="1890.62,-26 1777.88,-26 1777.88,-6 1890.62,-6 1890.62,-26"/>
<text text-anchor="middle" x="1834.25" y="-12.5" font-family="Helvetica,sans-Serif" font-size="10.00">glm/gtc/constants.hpp</text>
</a>
</g>
</g>
<!-- Node2&#45;&gt;Node28 -->
<g id="edge27_Node000002_Node000028" class="edge">
<title>Node2&#45;&gt;Node28</title>
<g id="a_edge27_Node000002_Node000028"><a xlink:title=" ">
<path fill="none" stroke="#63b8ff" d="M1615.9,-70.69C1655.83,-60.87 1733.56,-41.76 1784.68,-29.19"/>
<polygon fill="#63b8ff" stroke="#63b8ff" points="1785.45,-32.6 1794.33,-26.82 1783.78,-25.81 1785.45,-32.6"/>
</a>
</g>
</g>
<!-- Node29 -->
<g id="Node000029" class="node">
<title>Node29</title>
<g id="a_Node000029"><a xlink:title=" ">
<polygon fill="#e0e0e0" stroke="#999999" points="2051.62,-26 1908.88,-26 1908.88,-6 2051.62,-6 2051.62,-26"/>
<text text-anchor="middle" x="1980.25" y="-12.5" font-family="Helvetica,sans-Serif" font-size="10.00">glm/gtc/matrix_transform.hpp</text>
</a>
</g>
</g>
<!-- Node2&#45;&gt;Node29 -->
<g id="edge28_Node000002_Node000029" class="edge">
<title>Node2&#45;&gt;Node29</title>
<g id="a_edge28_Node000002_Node000029"><a xlink:title=" ">
<path fill="none" stroke="#63b8ff" d="M1615.94,-73.6C1668.98,-66.5 1794.42,-49.33 1899.25,-32 1905.93,-30.9 1912.91,-29.69 1919.85,-28.45"/>
<polygon fill="#63b8ff" stroke="#63b8ff" points="1920.34,-31.92 1929.55,-26.69 1919.09,-25.03 1920.34,-31.92"/>
</a>
</g>
</g>
<!-- Node30 -->
<g id="Node000030" class="node">
<title>Node30</title>
<g id="a_Node000030"><a xlink:title=" ">
<polygon fill="#e0e0e0" stroke="#999999" points="2209.12,-26 2069.38,-26 2069.38,-6 2209.12,-6 2209.12,-26"/>
<text text-anchor="middle" x="2139.25" y="-12.5" font-family="Helvetica,sans-Serif" font-size="10.00">glm/ext/vector_relational.hpp</text>
</a>
</g>
</g>
<!-- Node2&#45;&gt;Node30 -->
<g id="edge29_Node000002_Node000030" class="edge">
<title>Node2&#45;&gt;Node30</title>
<g id="a_edge29_Node000002_Node000030"><a xlink:title=" ">
<path fill="none" stroke="#63b8ff" d="M1615.82,-75.38C1686.68,-70.73 1891.46,-56.05 2060.25,-32 2067.41,-30.98 2074.9,-29.76 2082.31,-28.46"/>
<polygon fill="#63b8ff" stroke="#63b8ff" points="2082.71,-31.94 2091.93,-26.71 2081.46,-25.06 2082.71,-31.94"/>
</a>
</g>
</g>
<!-- Node31 -->
<g id="Node000031" class="node">
<title>Node31</title>
<g id="a_Node000031"><a xlink:title=" ">
<polygon fill="#e0e0e0" stroke="#999999" points="2327.62,-26 2226.88,-26 2226.88,-6 2327.62,-6 2327.62,-26"/>
<text text-anchor="middle" x="2277.25" y="-12.5" font-family="Helvetica,sans-Serif" font-size="10.00">glm/gtc/epsilon.hpp</text>
</a>
</g>
</g>
<!-- Node2&#45;&gt;Node31 -->
<g id="edge30_Node000002_Node000031" class="edge">
<title>Node2&#45;&gt;Node31</title>
<g id="a_edge30_Node000002_Node000031"><a xlink:title=" ">
<path fill="none" stroke="#63b8ff" d="M1615.86,-76.79C1701.65,-75.74 1986.52,-69.46 2218.25,-32 2223.2,-31.2 2228.33,-30.18 2233.42,-29.06"/>
<polygon fill="#63b8ff" stroke="#63b8ff" points="2234,-32.52 2242.92,-26.8 2232.38,-25.71 2234,-32.52"/>
</a>
</g>
</g>
<!-- Node32 -->
<g id="Node000032" class="node">
<title>Node32</title>
<g id="a_Node000032"><a xlink:title=" ">
<polygon fill="#e0e0e0" stroke="#999999" points="2470.62,-26 2345.88,-26 2345.88,-6 2470.62,-6 2470.62,-26"/>
<text text-anchor="middle" x="2408.25" y="-12.5" font-family="Helvetica,sans-Serif" font-size="10.00">glm/gtx/euler_angles.hpp</text>
</a>
</g>
</g>
<!-- Node2&#45;&gt;Node32 -->
<g id="edge31_Node000002_Node000032" class="edge">
<title>Node2&#45;&gt;Node32</title>
<g id="a_edge31_Node000002_Node000032"><a xlink:title=" ">
<path fill="none" stroke="#63b8ff" d="M1615.82,-76.8C1711.26,-75.77 2055.57,-69.5 2336.25,-32 2342.98,-31.1 2350.02,-29.93 2356.95,-28.63"/>
<polygon fill="#63b8ff" stroke="#63b8ff" points="2357.44,-32.11 2366.58,-26.74 2356.09,-25.24 2357.44,-32.11"/>
</a>
</g>
</g>
<!-- Node33 -->
<g id="Node000033" class="node">
<title>Node33</title>
<g id="a_Node000033"><a xlink:title=" ">
<polygon fill="#e0e0e0" stroke="#999999" points="2536,-26 2488.5,-26 2488.5,-6 2536,-6 2536,-26"/>
<text text-anchor="middle" x="2512.25" y="-12.5" font-family="Helvetica,sans-Serif" font-size="10.00">imgui.h</text>
</a>
</g>
</g>
<!-- Node2&#45;&gt;Node33 -->
<g id="edge32_Node000002_Node000033" class="edge">
<title>Node2&#45;&gt;Node33</title>
<g id="a_edge32_Node000002_Node000033"><a xlink:title=" ">
<path fill="none" stroke="#63b8ff" d="M1615.75,-76.99C1742.89,-76.77 2309.01,-73.41 2479.25,-32 2480.89,-31.6 2482.56,-31.12 2484.21,-30.58"/>
<polygon fill="#63b8ff" stroke="#63b8ff" points="2485.45,-33.85 2493.47,-26.92 2482.88,-27.34 2485.45,-33.85"/>
</a>
</g>
</g>
<!-- Node34 -->
<g id="Node000034" class="node">
<title>Node34</title>
<g id="a_Node000034"><a xlink:title=" ">
<polygon fill="#e0e0e0" stroke="#999999" points="2662,-32 2554.5,-32 2554.5,0 2662,0 2662,-32"/>
<text text-anchor="start" x="2562.5" y="-18.5" font-family="Helvetica,sans-Serif" font-size="10.00">backends/imgui_impl</text>
<text text-anchor="middle" x="2608.25" y="-6.5" font-family="Helvetica,sans-Serif" font-size="10.00">_glfw.h</text>
</a>
</g>
</g>
<!-- Node2&#45;&gt;Node34 -->
<g id="edge33_Node000002_Node000034" class="edge">
<title>Node2&#45;&gt;Node34</title>
<g id="a_edge33_Node000002_Node000034"><a xlink:title=" ">
<path fill="none" stroke="#63b8ff" d="M1615.73,-76.44C1745.63,-73.51 2335.62,-59.01 2542.75,-32.11"/>
<polygon fill="#63b8ff" stroke="#63b8ff" points="2543.14,-35.59 2552.58,-30.78 2542.2,-28.66 2543.14,-35.59"/>
</a>
</g>
</g>
<!-- Node35 -->
<g id="Node000035" class="node">
<title>Node35</title>
<g id="a_Node000035"><a xlink:title=" ">
<polygon fill="#e0e0e0" stroke="#999999" points="2788,-32 2680.5,-32 2680.5,0 2788,0 2788,-32"/>
<text text-anchor="start" x="2688.5" y="-18.5" font-family="Helvetica,sans-Serif" font-size="10.00">backends/imgui_impl</text>
<text text-anchor="middle" x="2734.25" y="-6.5" font-family="Helvetica,sans-Serif" font-size="10.00">_opengl3.h</text>
</a>
</g>
</g>
<!-- Node2&#45;&gt;Node35 -->
<g id="edge34_Node000002_Node000035" class="edge">
<title>Node2&#45;&gt;Node35</title>
<g id="a_edge34_Node000002_Node000035"><a xlink:title=" ">
<path fill="none" stroke="#63b8ff" d="M1615.74,-76.6C1755.97,-74.33 2435.35,-61.99 2668.96,-32.08"/>
<polygon fill="#63b8ff" stroke="#63b8ff" points="2669.13,-35.59 2678.58,-30.8 2668.2,-28.65 2669.13,-35.59"/>
</a>
</g>
</g>
<!-- Node36 -->
<g id="Node000036" class="node">
<title>Node36</title>
<g id="a_Node000036"><a xlink:title=" ">
<polygon fill="#e0e0e0" stroke="#999999" points="2924.62,-26 2805.88,-26 2805.88,-6 2924.62,-6 2924.62,-26"/>
<text text-anchor="middle" x="2865.25" y="-12.5" font-family="Helvetica,sans-Serif" font-size="10.00">misc/cpp/imgui_stdlib.h</text>
</a>
</g>
</g>
<!-- Node2&#45;&gt;Node36 -->
<g id="edge35_Node000002_Node000036" class="edge">
<title>Node2&#45;&gt;Node36</title>
<g id="a_edge35_Node000002_Node000036"><a xlink:title=" ">
<path fill="none" stroke="#63b8ff" d="M1615.66,-76.68C1767.56,-74.64 2557.01,-62.72 2797.25,-32 2803.7,-31.17 2810.45,-30.03 2817.08,-28.75"/>
<polygon fill="#63b8ff" stroke="#63b8ff" points="2817.49,-32.24 2826.57,-26.78 2816.07,-25.38 2817.49,-32.24"/>
</a>
</g>
</g>
<!-- Node37 -->
<g id="Node000037" class="node">
<title>Node37</title>
<g id="a_Node000037"><a xlink:title=" ">
<polygon fill="#e0e0e0" stroke="#999999" points="3027.38,-26 2943.12,-26 2943.12,-6 3027.38,-6 3027.38,-26"/>
<text text-anchor="middle" x="2985.25" y="-12.5" font-family="Helvetica,sans-Serif" font-size="10.00">imgui_internal.h</text>
</a>
</g>
</g>
<!-- Node2&#45;&gt;Node37 -->
<g id="edge36_Node000002_Node000037" class="edge">
<title>Node2&#45;&gt;Node37</title>
<g id="a_edge36_Node000002_Node000037"><a xlink:title=" ">
<path fill="none" stroke="#63b8ff" d="M1615.87,-77C1778.23,-76.91 2665.68,-74.4 2933.25,-32 2937.56,-31.32 2942.03,-30.39 2946.44,-29.32"/>
<polygon fill="#63b8ff" stroke="#63b8ff" points="2946.97,-32.8 2955.74,-26.85 2945.17,-26.04 2946.97,-32.8"/>
</a>
</g>
</g>
<!-- Node38 -->
<g id="Node000038" class="node">
<title>Node38</title>
<g id="a_Node000038"><a xlink:title=" ">
<polygon fill="#e0e0e0" stroke="#999999" points="3130.75,-26 3045.75,-26 3045.75,-6 3130.75,-6 3130.75,-26"/>
<text text-anchor="middle" x="3088.25" y="-12.5" font-family="Helvetica,sans-Serif" font-size="10.00">ImGuiNotify.hpp</text>
</a>
</g>
</g>
<!-- Node2&#45;&gt;Node38 -->
<g id="edge37_Node000002_Node000038" class="edge">
<title>Node2&#45;&gt;Node38</title>
<g id="a_edge37_Node000002_Node000038"><a xlink:title=" ">
<path fill="none" stroke="#63b8ff" d="M1615.9,-77.08C1785.44,-77.44 2747.04,-77.48 3036.25,-32 3040.56,-31.32 3045.03,-30.39 3049.44,-29.33"/>
<polygon fill="#63b8ff" stroke="#63b8ff" points="3049.97,-32.81 3058.74,-26.86 3048.18,-26.05 3049.97,-32.81"/>
</a>
</g>
</g>
<!-- Node39 -->
<g id="Node000039" class="node">
<title>Node39</title>
<g id="a_Node000039"><a xlink:title=" ">
<polygon fill="#e0e0e0" stroke="#999999" points="3283.88,-26 3148.62,-26 3148.62,-6 3283.88,-6 3283.88,-26"/>
<text text-anchor="middle" x="3216.25" y="-12.5" font-family="Helvetica,sans-Serif" font-size="10.00">addons/imguidatechooser.h</text>
</a>
</g>
</g>
<!-- Node2&#45;&gt;Node39 -->
<g id="edge38_Node000002_Node000039" class="edge">
<title>Node2&#45;&gt;Node39</title>
<g id="a_edge38_Node000002_Node000039"><a xlink:title=" ">
<path fill="none" stroke="#63b8ff" d="M1615.97,-76.84C1792.52,-75.64 2827.41,-67.17 3140.25,-32 3147.88,-31.14 3155.89,-29.92 3163.73,-28.54"/>
<polygon fill="#63b8ff" stroke="#63b8ff" points="3164.35,-31.98 3173.54,-26.71 3163.07,-25.1 3164.35,-31.98"/>
</a>
</g>
</g>
<!-- Node40 -->
<g id="Node000040" class="node">
<title>Node40</title>
<g id="a_Node000040"><a xlink:title=" ">
<polygon fill="#e0e0e0" stroke="#999999" points="3386.38,-26 3302.12,-26 3302.12,-6 3386.38,-6 3386.38,-26"/>
<text text-anchor="middle" x="3344.25" y="-12.5" font-family="Helvetica,sans-Serif" font-size="10.00">spdlog/spdlog.h</text>
</a>
</g>
</g>
<!-- Node2&#45;&gt;Node40 -->
<g id="edge39_Node000002_Node000040" class="edge">
<title>Node2&#45;&gt;Node40</title>
<g id="a_edge39_Node000002_Node000040"><a xlink:title=" ">
<path fill="none" stroke="#63b8ff" d="M1615.7,-76.73C1814.88,-74.53 3120.6,-59.2 3293.25,-32 3297.42,-31.34 3301.72,-30.44 3305.98,-29.41"/>
<polygon fill="#63b8ff" stroke="#63b8ff" points="3306.82,-32.81 3315.56,-26.82 3304.99,-26.05 3306.82,-32.81"/>
</a>
</g>
</g>
<!-- Node41 -->
<g id="Node000041" class="node">
<title>Node41</title>
<g id="a_Node000041"><a xlink:title=" ">
<polygon fill="#e0e0e0" stroke="#999999" points="3501.75,-32 3404.75,-32 3404.75,0 3501.75,0 3501.75,-32"/>
<text text-anchor="start" x="3412.75" y="-18.5" font-family="Helvetica,sans-Serif" font-size="10.00">spdlog/sinks/basic</text>
<text text-anchor="middle" x="3453.25" y="-6.5" font-family="Helvetica,sans-Serif" font-size="10.00">_file_sink.h</text>
</a>
</g>
</g>
<!-- Node2&#45;&gt;Node41 -->
<g id="edge40_Node000002_Node000041" class="edge">
<title>Node2&#45;&gt;Node41</title>
<g id="a_edge40_Node000002_Node000041"><a xlink:title=" ">
<path fill="none" stroke="#63b8ff" d="M1615.78,-77.16C1806.04,-78.26 3005.75,-83.07 3393.14,-32.01"/>
<polygon fill="#63b8ff" stroke="#63b8ff" points="3393.42,-35.5 3402.86,-30.68 3392.48,-28.56 3393.42,-35.5"/>
</a>
</g>
</g>
<!-- Node42 -->
<g id="Node000042" class="node">
<title>Node42</title>
<g id="a_Node000042"><a xlink:title=" ">
<polygon fill="#e0e0e0" stroke="#999999" points="3579,-26 3519.5,-26 3519.5,-6 3579,-6 3579,-26"/>
<text text-anchor="middle" x="3549.25" y="-12.5" font-family="Helvetica,sans-Serif" font-size="10.00">fmt/core.h</text>
</a>
</g>
</g>
<!-- Node2&#45;&gt;Node42 -->
<g id="edge41_Node000002_Node000042" class="edge">
<title>Node2&#45;&gt;Node42</title>
<g id="a_edge41_Node000002_Node000042"><a xlink:title=" ">
<path fill="none" stroke="#63b8ff" d="M1615.85,-76.94C1829.8,-76.41 3317.11,-71.29 3511.25,-32 3513.59,-31.53 3515.96,-30.92 3518.33,-30.22"/>
<polygon fill="#63b8ff" stroke="#63b8ff" points="3519.42,-33.55 3527.71,-26.96 3517.12,-26.94 3519.42,-33.55"/>
</a>
</g>
</g>
<!-- Node43 -->
<g id="Node000043" class="node">
<title>Node43</title>
<g id="a_Node000043"><a xlink:title=" ">
<polygon fill="#e0e0e0" stroke="#999999" points="3659.12,-26 3597.38,-26 3597.38,-6 3659.12,-6 3659.12,-26"/>
<text text-anchor="middle" x="3628.25" y="-12.5" font-family="Helvetica,sans-Serif" font-size="10.00">fmt/color.h</text>
</a>
</g>
</g>
<!-- Node2&#45;&gt;Node43 -->
<g id="edge42_Node000002_Node000043" class="edge">
<title>Node2&#45;&gt;Node43</title>
<g id="a_edge42_Node000002_Node000043"><a xlink:title=" ">
<path fill="none" stroke="#63b8ff" d="M1615.83,-76.94C1834.47,-76.39 3385.65,-71.1 3588.25,-32 3590.89,-31.49 3593.59,-30.82 3596.27,-30.05"/>
<polygon fill="#63b8ff" stroke="#63b8ff" points="3597.23,-33.42 3605.61,-26.94 3595.02,-26.78 3597.23,-33.42"/>
</a>
</g>
</g>
<!-- Node44 -->
<g id="Node000044" class="node">
<title>Node44</title>
<g id="a_Node000044"><a xlink:href="../../de/dec/_singleton_8h.html" target="_top" xlink:title=" ">
<polygon fill="white" stroke="#666666" points="3973.25,-26 3873.25,-26 3873.25,-6 3973.25,-6 3973.25,-26"/>
<text text-anchor="middle" x="3923.25" y="-12.5" font-family="Helvetica,sans-Serif" font-size="10.00">Utilities/Singleton.h</text>
</a>
</g>
</g>
<!-- Node2&#45;&gt;Node44 -->
<g id="edge43_Node000002_Node000044" class="edge">
<title>Node2&#45;&gt;Node44</title>
<g id="a_edge43_Node000002_Node000044"><a xlink:title=" ">
<path fill="none" stroke="#63b8ff" d="M1615.91,-76.85C1851.19,-75.42 3630.44,-63.61 3864.25,-32 3869.6,-31.28 3875.16,-30.25 3880.64,-29.06"/>
<polygon fill="#63b8ff" stroke="#63b8ff" points="3881.27,-32.5 3890.19,-26.8 3879.66,-25.69 3881.27,-32.5"/>
</a>
</g>
</g>
<!-- Node45 -->
<g id="Node000045" class="node">
<title>Node45</title>
<g id="a_Node000045"><a xlink:title=" ">
<polygon fill="#e0e0e0" stroke="#999999" points="3791.38,-26 3677.12,-26 3677.12,-6 3791.38,-6 3791.38,-26"/>
<text text-anchor="middle" x="3734.25" y="-12.5" font-family="Helvetica,sans-Serif" font-size="10.00">simpleson&#45;1.1.0/json.h</text>
</a>
</g>
</g>
<!-- Node2&#45;&gt;Node45 -->
<g id="edge44_Node000002_Node000045" class="edge">
<title>Node2&#45;&gt;Node45</title>
<g id="a_edge44_Node000002_Node000045"><a xlink:title=" ">
<path fill="none" stroke="#63b8ff" d="M1615.76,-76.76C1838.84,-74.62 3454.93,-58.28 3668.25,-32 3674.68,-31.21 3681.39,-30.06 3687.98,-28.75"/>
<polygon fill="#63b8ff" stroke="#63b8ff" points="3688.33,-32.26 3697.38,-26.74 3686.87,-25.41 3688.33,-32.26"/>
</a>
</g>
</g>
<!-- Node48&#45;&gt;Node44 -->
<g id="edge47_Node000048_Node000044" class="edge">
<title>Node48&#45;&gt;Node44</title>
<g id="a_edge47_Node000048_Node000044"><a xlink:title=" ">
<path fill="none" stroke="#63b8ff" d="M2967.46,-75.97C3135.9,-72.23 3688.62,-58.23 3864.25,-32 3869.46,-31.22 3874.88,-30.18 3880.24,-29"/>
<polygon fill="#63b8ff" stroke="#63b8ff" points="3880.63,-32.5 3889.56,-26.79 3879.02,-25.69 3880.63,-32.5"/>
</a>
</g>
</g>
<!-- Node89&#45;&gt;Node2 -->
<g id="edge50_Node000089_Node000002" class="edge">
<title>Node89&#45;&gt;Node2</title>
<g id="a_edge50_Node000089_Node000002"><a xlink:title=" ">
<path fill="none" stroke="#63b8ff" d="M1590.25,-123.59C1590.25,-117.01 1590.25,-107.96 1590.25,-99.73"/>
<polygon fill="#63b8ff" stroke="#63b8ff" points="1593.75,-99.81 1590.25,-89.81 1586.75,-99.81 1593.75,-99.81"/>
</a>
</g>
</g>
</g>
</svg>
