<?xml version="1.0" encoding="UTF-8" standalone="no"?>
<!DOCTYPE svg PUBLIC "-//W3C//DTD SVG 1.1//EN"
 "http://www.w3.org/Graphics/SVG/1.1/DTD/svg11.dtd">
<!-- Generated by graphviz version 10.0.1 (20240210.2158)
 -->
<!-- Title: GEU::DatabaseQueryPopup::makeFormDron Pages: 1 -->
<svg width="679pt" height="416pt"
 viewBox="0.00 0.00 678.75 416.00" xmlns="http://www.w3.org/2000/svg" xmlns:xlink="http://www.w3.org/1999/xlink">
<g id="graph0" class="graph" transform="scale(1 1) rotate(0) translate(4 412)">
<title>GEU::DatabaseQueryPopup::makeFormDron</title>
<!-- Node1 -->
<g id="Node000001" class="node">
<title>Node1</title>
<g id="a_Node000001"><a xlink:title=" ">
<polygon fill="#999999" stroke="#666666" points="138.25,-220 0,-220 0,-188 138.25,-188 138.25,-220"/>
<text text-anchor="start" x="8" y="-206.5" font-family="Helvetica,sans-Serif" font-size="10.00">GEU::DatabaseQueryPopup</text>
<text text-anchor="middle" x="69.12" y="-194.5" font-family="Helvetica,sans-Serif" font-size="10.00">::makeFormDron</text>
</a>
</g>
</g>
<!-- Node2 -->
<g id="Node000002" class="node">
<title>Node2</title>
<g id="a_Node000002"><a xlink:href="../../de/d07/a00550.html#a606d575ab734f2d72d1201131ab573ea" target="_top" xlink:title=" ">
<polygon fill="white" stroke="#666666" points="291.5,-408 195.25,-408 195.25,-376 291.5,-376 291.5,-408"/>
<text text-anchor="start" x="203.25" y="-394.5" font-family="Helvetica,sans-Serif" font-size="10.00">GEU::GuiUtilities::</text>
<text text-anchor="middle" x="243.38" y="-382.5" font-family="Helvetica,sans-Serif" font-size="10.00">beginDronTable</text>
</a>
</g>
</g>
<!-- Node1&#45;&gt;Node2 -->
<g id="edge1_Node000001_Node000002" class="edge">
<title>Node1&#45;&gt;Node2</title>
<g id="a_edge1_Node000001_Node000002"><a xlink:title=" ">
<path fill="none" stroke="#63b8ff" d="M76.92,-220.08C90.87,-251.34 125.57,-320.87 174.25,-362 177.65,-364.87 181.37,-367.52 185.26,-369.94"/>
<polygon fill="#63b8ff" stroke="#63b8ff" points="183.45,-372.94 193.88,-374.77 186.87,-366.83 183.45,-372.94"/>
</a>
</g>
</g>
<!-- Node4 -->
<g id="Node000004" class="node">
<title>Node4</title>
<g id="a_Node000004"><a xlink:href="../../d5/d01/a01945.html#a47c7e7c2110f4cc59c9ff1f5594c366e" target="_top" xlink:title=" ">
<polygon fill="white" stroke="#666666" points="500.25,-288 348.5,-288 348.5,-256 500.25,-256 500.25,-288"/>
<text text-anchor="start" x="356.5" y="-274.5" font-family="Helvetica,sans-Serif" font-size="10.00">GEU::Singleton&lt; LocaleStrings</text>
<text text-anchor="middle" x="424.38" y="-262.5" font-family="Helvetica,sans-Serif" font-size="10.00"> &gt;::getInstance</text>
</a>
</g>
</g>
<!-- Node1&#45;&gt;Node4 -->
<g id="edge4_Node000001_Node000004" class="edge">
<title>Node1&#45;&gt;Node4</title>
<g id="a_edge4_Node000001_Node000004"><a xlink:title=" ">
<path fill="none" stroke="#63b8ff" d="M77.63,-220.1C91.84,-248.41 125.65,-306.23 174.25,-329 229.89,-355.07 252.78,-343.45 312.5,-329 340.29,-322.28 368.91,-307.32 390.12,-294.41"/>
<polygon fill="#63b8ff" stroke="#63b8ff" points="391.7,-297.55 398.32,-289.28 387.99,-291.62 391.7,-297.55"/>
</a>
</g>
</g>
<!-- Node5 -->
<g id="Node000005" class="node">
<title>Node5</title>
<g id="a_Node000005"><a xlink:href="../../da/d04/a01921.html#a90f2903c439af79e6af28892f8f9c139" target="_top" xlink:title=" ">
<polygon fill="white" stroke="#666666" points="303.5,-70 183.25,-70 183.25,-50 303.5,-50 303.5,-70"/>
<text text-anchor="middle" x="243.38" y="-56.5" font-family="Helvetica,sans-Serif" font-size="10.00">LocaleStrings::getString</text>
</a>
</g>
</g>
<!-- Node1&#45;&gt;Node5 -->
<g id="edge5_Node000001_Node000005" class="edge">
<title>Node1&#45;&gt;Node5</title>
<g id="a_edge5_Node000001_Node000005"><a xlink:title=" ">
<path fill="none" stroke="#63b8ff" d="M79.08,-187.9C94.78,-161.16 129.9,-107.68 174.25,-79 176.39,-77.62 178.62,-76.34 180.93,-75.15"/>
<polygon fill="#63b8ff" stroke="#63b8ff" points="182.3,-78.37 190.02,-71.11 179.46,-71.97 182.3,-78.37"/>
</a>
</g>
</g>
<!-- Node6 -->
<g id="Node000006" class="node">
<title>Node6</title>
<g id="a_Node000006"><a xlink:href="../../de/d07/a00550.html#a4453728eb6a181d72fb1be2d7d26f73d" target="_top" xlink:title=" ">
<polygon fill="white" stroke="#666666" points="297.12,-32 189.62,-32 189.62,0 297.12,0 297.12,-32"/>
<text text-anchor="start" x="197.62" y="-18.5" font-family="Helvetica,sans-Serif" font-size="10.00">GEU::GuiUtilities::</text>
<text text-anchor="middle" x="243.38" y="-6.5" font-family="Helvetica,sans-Serif" font-size="10.00">makeDBQueryingInfo</text>
</a>
</g>
</g>
<!-- Node1&#45;&gt;Node6 -->
<g id="edge6_Node000001_Node000006" class="edge">
<title>Node1&#45;&gt;Node6</title>
<g id="a_edge6_Node000001_Node000006"><a xlink:title=" ">
<path fill="none" stroke="#63b8ff" d="M76.35,-187.63C89.51,-155.12 123.21,-82.02 174.25,-41 175.94,-39.64 177.72,-38.35 179.56,-37.12"/>
<polygon fill="#63b8ff" stroke="#63b8ff" points="180.98,-40.35 187.87,-32.3 177.46,-34.29 180.98,-40.35"/>
</a>
</g>
</g>
<!-- Node7 -->
<g id="Node000007" class="node">
<title>Node7</title>
<g id="a_Node000007"><a xlink:href="../../de/d07/a00550.html#a9d556eae715f588368323e6205cac7ba" target="_top" xlink:title=" ">
<polygon fill="white" stroke="#666666" points="291.5,-320 195.25,-320 195.25,-288 291.5,-288 291.5,-320"/>
<text text-anchor="start" x="203.25" y="-306.5" font-family="Helvetica,sans-Serif" font-size="10.00">GEU::GuiUtilities::</text>
<text text-anchor="middle" x="243.38" y="-294.5" font-family="Helvetica,sans-Serif" font-size="10.00">makeHelpMarker</text>
</a>
</g>
</g>
<!-- Node1&#45;&gt;Node7 -->
<g id="edge7_Node000001_Node000007" class="edge">
<title>Node1&#45;&gt;Node7</title>
<g id="a_edge7_Node000001_Node000007"><a xlink:title=" ">
<path fill="none" stroke="#63b8ff" d="M89.41,-220.37C109.55,-236.86 142.57,-262.18 174.25,-279 177.64,-280.8 181.18,-282.52 184.79,-284.16"/>
<polygon fill="#63b8ff" stroke="#63b8ff" points="183.14,-287.26 193.71,-287.97 185.89,-280.82 183.14,-287.26"/>
</a>
</g>
</g>
<!-- Node8 -->
<g id="Node000008" class="node">
<title>Node8</title>
<g id="a_Node000008"><a xlink:href="../../de/d07/a00550.html#a51f7b03162a92f79594e82e1aca62133" target="_top" xlink:title=" ">
<polygon fill="white" stroke="#666666" points="291.5,-220 195.25,-220 195.25,-188 291.5,-188 291.5,-220"/>
<text text-anchor="start" x="203.25" y="-206.5" font-family="Helvetica,sans-Serif" font-size="10.00">GEU::GuiUtilities::</text>
<text text-anchor="middle" x="243.38" y="-194.5" font-family="Helvetica,sans-Serif" font-size="10.00">makeLocButton</text>
</a>
</g>
</g>
<!-- Node1&#45;&gt;Node8 -->
<g id="edge9_Node000001_Node000008" class="edge">
<title>Node1&#45;&gt;Node8</title>
<g id="a_edge9_Node000001_Node000008"><a xlink:title=" ">
<path fill="none" stroke="#63b8ff" d="M138.7,-204C153.58,-204 169.19,-204 183.65,-204"/>
<polygon fill="#63b8ff" stroke="#63b8ff" points="183.45,-207.5 193.45,-204 183.45,-200.5 183.45,-207.5"/>
</a>
</g>
</g>
<!-- Node10 -->
<g id="Node000010" class="node">
<title>Node10</title>
<g id="a_Node000010"><a xlink:href="../../de/d07/a00550.html#a791a299165fdb530f39adcf8b5637638" target="_top" xlink:title=" ">
<polygon fill="white" stroke="#666666" points="291.5,-270 195.25,-270 195.25,-238 291.5,-238 291.5,-270"/>
<text text-anchor="start" x="203.25" y="-256.5" font-family="Helvetica,sans-Serif" font-size="10.00">GEU::GuiUtilities::</text>
<text text-anchor="middle" x="243.38" y="-244.5" font-family="Helvetica,sans-Serif" font-size="10.00">makeLocSepText</text>
</a>
</g>
</g>
<!-- Node1&#45;&gt;Node10 -->
<g id="edge13_Node000001_Node000010" class="edge">
<title>Node1&#45;&gt;Node10</title>
<g id="a_edge13_Node000001_Node000010"><a xlink:title=" ">
<path fill="none" stroke="#63b8ff" d="M126.53,-220.37C144.89,-225.7 165.32,-231.63 183.84,-237.01"/>
<polygon fill="#63b8ff" stroke="#63b8ff" points="182.76,-240.34 193.34,-239.77 184.71,-233.62 182.76,-240.34"/>
</a>
</g>
</g>
<!-- Node11 -->
<g id="Node000011" class="node">
<title>Node11</title>
<g id="a_Node000011"><a xlink:href="../../db/d00/a01757.html#ae89ab2cd1b3a99f5d1b32f244d1b71cf" target="_top" xlink:title=" ">
<polygon fill="white" stroke="#666666" points="312.5,-170 174.25,-170 174.25,-138 312.5,-138 312.5,-170"/>
<text text-anchor="start" x="182.25" y="-156.5" font-family="Helvetica,sans-Serif" font-size="10.00">GEU::DatabaseQueryPopup</text>
<text text-anchor="middle" x="243.38" y="-144.5" font-family="Helvetica,sans-Serif" font-size="10.00">::queryDronFabricantes</text>
</a>
</g>
</g>
<!-- Node1&#45;&gt;Node11 -->
<g id="edge15_Node000001_Node000011" class="edge">
<title>Node1&#45;&gt;Node11</title>
<g id="a_edge15_Node000001_Node000011"><a xlink:title=" ">
<path fill="none" stroke="#63b8ff" d="M126.53,-187.63C141.91,-183.16 158.74,-178.28 174.68,-173.65"/>
<polygon fill="#63b8ff" stroke="#63b8ff" points="175.47,-177.07 184.1,-170.92 173.52,-170.34 175.47,-177.07"/>
</a>
</g>
</g>
<!-- Node13 -->
<g id="Node000013" class="node">
<title>Node13</title>
<g id="a_Node000013"><a xlink:href="../../db/d00/a01757.html#a48787a9dba1727fd7ed58caedba8392e" target="_top" xlink:title=" ">
<polygon fill="white" stroke="#666666" points="312.5,-120 174.25,-120 174.25,-88 312.5,-88 312.5,-120"/>
<text text-anchor="start" x="182.25" y="-106.5" font-family="Helvetica,sans-Serif" font-size="10.00">GEU::DatabaseQueryPopup</text>
<text text-anchor="middle" x="243.38" y="-94.5" font-family="Helvetica,sans-Serif" font-size="10.00">::queryFilterDron</text>
</a>
</g>
</g>
<!-- Node1&#45;&gt;Node13 -->
<g id="edge18_Node000001_Node000013" class="edge">
<title>Node1&#45;&gt;Node13</title>
<g id="a_edge18_Node000001_Node000013"><a xlink:title=" ">
<path fill="none" stroke="#63b8ff" d="M89.41,-187.63C109.55,-171.14 142.57,-145.82 174.25,-129 176.78,-127.66 179.4,-126.35 182.07,-125.1"/>
<polygon fill="#63b8ff" stroke="#63b8ff" points="183.44,-128.32 191.18,-121.08 180.62,-121.91 183.44,-128.32"/>
</a>
</g>
</g>
<!-- Node3 -->
<g id="Node000003" class="node">
<title>Node3</title>
<g id="a_Node000003"><a xlink:href="../../de/d07/a00550.html#aca2c75691a6162a3ee60274a84118740" target="_top" xlink:title=" ">
<polygon fill="white" stroke="#666666" points="489.75,-408 359,-408 359,-376 489.75,-376 489.75,-408"/>
<text text-anchor="start" x="367" y="-394.5" font-family="Helvetica,sans-Serif" font-size="10.00">GEU::GuiUtilities::</text>
<text text-anchor="middle" x="424.38" y="-382.5" font-family="Helvetica,sans-Serif" font-size="10.00">calcSingleRowTableHeight</text>
</a>
</g>
</g>
<!-- Node2&#45;&gt;Node3 -->
<g id="edge2_Node000002_Node000003" class="edge">
<title>Node2&#45;&gt;Node3</title>
<g id="a_edge2_Node000002_Node000003"><a xlink:title=" ">
<path fill="none" stroke="#63b8ff" d="M291.87,-392C308.94,-392 328.63,-392 347.5,-392"/>
<polygon fill="#63b8ff" stroke="#63b8ff" points="347.29,-395.5 357.29,-392 347.29,-388.5 347.29,-395.5"/>
</a>
</g>
</g>
<!-- Node2&#45;&gt;Node4 -->
<g id="edge3_Node000002_Node000004" class="edge">
<title>Node2&#45;&gt;Node4</title>
<g id="a_edge3_Node000002_Node000004"><a xlink:title=" ">
<path fill="none" stroke="#63b8ff" d="M286.34,-375.63C295.2,-371.59 304.34,-366.98 312.5,-362 344.11,-342.69 376.59,-315.26 398.16,-295.77"/>
<polygon fill="#63b8ff" stroke="#63b8ff" points="400.29,-298.56 405.3,-289.23 395.57,-293.4 400.29,-298.56"/>
</a>
</g>
</g>
<!-- Node7&#45;&gt;Node4 -->
<g id="edge8_Node000007_Node000004" class="edge">
<title>Node7&#45;&gt;Node4</title>
<g id="a_edge8_Node000007_Node000004"><a xlink:title=" ">
<path fill="none" stroke="#63b8ff" d="M291.87,-295.51C305.79,-293.02 321.46,-290.22 337.01,-287.44"/>
<polygon fill="#63b8ff" stroke="#63b8ff" points="337.56,-290.9 346.79,-285.69 336.33,-284.01 337.56,-290.9"/>
</a>
</g>
</g>
<!-- Node8&#45;&gt;Node4 -->
<g id="edge10_Node000008_Node000004" class="edge">
<title>Node8&#45;&gt;Node4</title>
<g id="a_edge10_Node000008_Node000004"><a xlink:title=" ">
<path fill="none" stroke="#63b8ff" d="M291.19,-220.39C298.38,-223.14 305.68,-226.05 312.5,-229 328.92,-236.09 331.97,-240.15 348.5,-247 352.33,-248.59 356.31,-250.15 360.34,-251.67"/>
<polygon fill="#63b8ff" stroke="#63b8ff" points="359.05,-254.93 369.64,-255.07 361.45,-248.35 359.05,-254.93"/>
</a>
</g>
</g>
<!-- Node9 -->
<g id="Node000009" class="node">
<title>Node9</title>
<g id="a_Node000009"><a xlink:href="../../de/d07/a00550.html#a4a4cc2d3f5e9444384aa7e7eb062dbf0" target="_top" xlink:title=" ">
<polygon fill="white" stroke="#666666" points="472.5,-220 376.25,-220 376.25,-188 472.5,-188 472.5,-220"/>
<text text-anchor="start" x="384.25" y="-206.5" font-family="Helvetica,sans-Serif" font-size="10.00">GEU::GuiUtilities::</text>
<text text-anchor="middle" x="424.38" y="-194.5" font-family="Helvetica,sans-Serif" font-size="10.00">makeButton</text>
</a>
</g>
</g>
<!-- Node8&#45;&gt;Node9 -->
<g id="edge11_Node000008_Node000009" class="edge">
<title>Node8&#45;&gt;Node9</title>
<g id="a_edge11_Node000008_Node000009"><a xlink:title=" ">
<path fill="none" stroke="#63b8ff" d="M291.87,-204C314.21,-204 341.07,-204 364.67,-204"/>
<polygon fill="#63b8ff" stroke="#63b8ff" points="364.45,-207.5 374.45,-204 364.45,-200.5 364.45,-207.5"/>
</a>
</g>
</g>
<!-- Node9&#45;&gt;Node9 -->
<g id="edge12_Node000009_Node000009" class="edge">
<title>Node9&#45;&gt;Node9</title>
<g id="a_edge12_Node000009_Node000009"><a xlink:title=" ">
<path fill="none" stroke="#63b8ff" d="M392.4,-220.44C386.43,-229.58 397.09,-238 424.38,-238 439.3,-238 449.25,-235.48 454.23,-231.71"/>
<polygon fill="#63b8ff" stroke="#63b8ff" points="457.66,-232.41 456.07,-221.93 450.78,-231.11 457.66,-232.41"/>
</a>
</g>
</g>
<!-- Node10&#45;&gt;Node4 -->
<g id="edge14_Node000010_Node000004" class="edge">
<title>Node10&#45;&gt;Node4</title>
<g id="a_edge14_Node000010_Node000004"><a xlink:title=" ">
<path fill="none" stroke="#63b8ff" d="M291.87,-258.78C305.79,-260.18 321.46,-261.75 337.01,-263.32"/>
<polygon fill="#63b8ff" stroke="#63b8ff" points="336.47,-266.78 346.77,-264.3 337.17,-259.81 336.47,-266.78"/>
</a>
</g>
</g>
<!-- Node11&#45;&gt;Node4 -->
<g id="edge17_Node000011_Node000004" class="edge">
<title>Node11&#45;&gt;Node4</title>
<g id="a_edge17_Node000011_Node000004"><a xlink:title=" ">
<path fill="none" stroke="#63b8ff" d="M300.26,-170.47C304.64,-172.94 308.8,-175.77 312.5,-179 338.26,-201.49 322.41,-224.89 348.5,-247 349.59,-247.92 350.71,-248.81 351.86,-249.67"/>
<polygon fill="#63b8ff" stroke="#63b8ff" points="349.64,-252.4 359.95,-254.8 353.39,-246.49 349.64,-252.4"/>
</a>
</g>
</g>
<!-- Node12 -->
<g id="Node000012" class="node">
<title>Node12</title>
<g id="a_Node000012"><a xlink:href="../../d5/d01/a01901.html#a44fc08fcf45a9b8710793768fd852f1d" target="_top" xlink:title=" ">
<polygon fill="white" stroke="#666666" points="478.12,-170 370.62,-170 370.62,-138 478.12,-138 478.12,-170"/>
<text text-anchor="start" x="378.62" y="-156.5" font-family="Helvetica,sans-Serif" font-size="10.00">DatabaseConnector::</text>
<text text-anchor="middle" x="424.38" y="-144.5" font-family="Helvetica,sans-Serif" font-size="10.00">getDronFabricantes</text>
</a>
</g>
</g>
<!-- Node11&#45;&gt;Node12 -->
<g id="edge16_Node000011_Node000012" class="edge">
<title>Node11&#45;&gt;Node12</title>
<g id="a_edge16_Node000011_Node000012"><a xlink:title=" ">
<path fill="none" stroke="#63b8ff" d="M312.81,-154C327.99,-154 344.03,-154 359.04,-154"/>
<polygon fill="#63b8ff" stroke="#63b8ff" points="358.77,-157.5 368.77,-154 358.77,-150.5 358.77,-157.5"/>
</a>
</g>
</g>
<!-- Node13&#45;&gt;Node4 -->
<g id="edge19_Node000013_Node000004" class="edge">
<title>Node13&#45;&gt;Node4</title>
<g id="a_edge19_Node000013_Node000004"><a xlink:title=" ">
<path fill="none" stroke="#63b8ff" d="M301.93,-120.36C305.8,-122.84 309.38,-125.71 312.5,-129 350.18,-168.83 310.24,-207.73 348.5,-247 348.99,-247.51 349.5,-248 350.01,-248.49"/>
<polygon fill="#63b8ff" stroke="#63b8ff" points="347.85,-251.24 357.9,-254.59 352.13,-245.7 347.85,-251.24"/>
</a>
</g>
</g>
<!-- Node14 -->
<g id="Node000014" class="node">
<title>Node14</title>
<g id="a_Node000014"><a xlink:href="../../d5/d01/a01901.html#ac90222fa0a3af98aea6a087b90ac0c38" target="_top" xlink:title=" ">
<polygon fill="white" stroke="#666666" points="478.12,-120 370.62,-120 370.62,-88 478.12,-88 478.12,-120"/>
<text text-anchor="start" x="378.62" y="-106.5" font-family="Helvetica,sans-Serif" font-size="10.00">DatabaseConnector::</text>
<text text-anchor="middle" x="424.38" y="-94.5" font-family="Helvetica,sans-Serif" font-size="10.00">queryDron</text>
</a>
</g>
</g>
<!-- Node13&#45;&gt;Node14 -->
<g id="edge20_Node000013_Node000014" class="edge">
<title>Node13&#45;&gt;Node14</title>
<g id="a_edge20_Node000013_Node000014"><a xlink:title=" ">
<path fill="none" stroke="#63b8ff" d="M312.81,-104C327.99,-104 344.03,-104 359.04,-104"/>
<polygon fill="#63b8ff" stroke="#63b8ff" points="358.77,-107.5 368.77,-104 358.77,-100.5 358.77,-107.5"/>
</a>
</g>
</g>
<!-- Node15 -->
<g id="Node000015" class="node">
<title>Node15</title>
<g id="a_Node000015"><a xlink:href="../../de/d07/a01881.html#a22c42fcba00cfed433b63571d8c9a6ec" target="_top" xlink:title=" ">
<polygon fill="white" stroke="#666666" points="670.75,-114 536.25,-114 536.25,-94 670.75,-94 670.75,-114"/>
<text text-anchor="middle" x="603.5" y="-100.5" font-family="Helvetica,sans-Serif" font-size="10.00">Database::Dron::fromQuery</text>
</a>
</g>
</g>
<!-- Node14&#45;&gt;Node15 -->
<g id="edge21_Node000014_Node000015" class="edge">
<title>Node14&#45;&gt;Node15</title>
<g id="a_edge21_Node000014_Node000015"><a xlink:title=" ">
<path fill="none" stroke="#63b8ff" d="M478.52,-104C493.03,-104 509.07,-104 524.65,-104"/>
<polygon fill="#63b8ff" stroke="#63b8ff" points="524.38,-107.5 534.38,-104 524.38,-100.5 524.38,-107.5"/>
</a>
</g>
</g>
</g>
</svg>
