<?xml version="1.0" encoding="UTF-8" standalone="no"?>
<!DOCTYPE svg PUBLIC "-//W3C//DTD SVG 1.1//EN"
 "http://www.w3.org/Graphics/SVG/1.1/DTD/svg11.dtd">
<!-- Generated by graphviz version 10.0.1 (20240210.2158)
 -->
<!-- Title: GEU::DatabaseQueryPopup::makeFormDatoCrudo Pages: 1 -->
<svg width="683pt" height="366pt"
 viewBox="0.00 0.00 683.25 366.00" xmlns="http://www.w3.org/2000/svg" xmlns:xlink="http://www.w3.org/1999/xlink">
<g id="graph0" class="graph" transform="scale(1 1) rotate(0) translate(4 362)">
<title>GEU::DatabaseQueryPopup::makeFormDatoCrudo</title>
<!-- Node1 -->
<g id="Node000001" class="node">
<title>Node1</title>
<g id="a_Node000001"><a xlink:title=" ">
<polygon fill="#999999" stroke="#666666" points="138.25,-195 0,-195 0,-163 138.25,-163 138.25,-195"/>
<text text-anchor="start" x="8" y="-181.5" font-family="Helvetica,sans-Serif" font-size="10.00">GEU::DatabaseQueryPopup</text>
<text text-anchor="middle" x="69.12" y="-169.5" font-family="Helvetica,sans-Serif" font-size="10.00">::makeFormDatoCrudo</text>
</a>
</g>
</g>
<!-- Node2 -->
<g id="Node000002" class="node">
<title>Node2</title>
<g id="a_Node000002"><a xlink:href="../../de/d07/a00550.html#adaabda63297ba1a7732d1dfdb993fdb2" target="_top" xlink:title=" ">
<polygon fill="white" stroke="#666666" points="297.5,-358 189.25,-358 189.25,-326 297.5,-326 297.5,-358"/>
<text text-anchor="start" x="197.25" y="-344.5" font-family="Helvetica,sans-Serif" font-size="10.00">GEU::GuiUtilities::</text>
<text text-anchor="middle" x="243.38" y="-332.5" font-family="Helvetica,sans-Serif" font-size="10.00">beginDatoCrudoTable</text>
</a>
</g>
</g>
<!-- Node1&#45;&gt;Node2 -->
<g id="edge1_Node000001_Node000002" class="edge">
<title>Node1&#45;&gt;Node2</title>
<g id="a_edge1_Node000001_Node000002"><a xlink:title=" ">
<path fill="none" stroke="#63b8ff" d="M79.3,-195.44C95.35,-222.89 130.95,-278.35 174.25,-312 178.14,-315.03 182.39,-317.82 186.8,-320.37"/>
<polygon fill="#63b8ff" stroke="#63b8ff" points="184.82,-323.29 195.29,-324.89 188.11,-317.11 184.82,-323.29"/>
</a>
</g>
</g>
<!-- Node4 -->
<g id="Node000004" class="node">
<title>Node4</title>
<g id="a_Node000004"><a xlink:href="../../d5/d01/a01945.html#a47c7e7c2110f4cc59c9ff1f5594c366e" target="_top" xlink:title=" ">
<polygon fill="white" stroke="#666666" points="500.25,-254 348.5,-254 348.5,-222 500.25,-222 500.25,-254"/>
<text text-anchor="start" x="356.5" y="-240.5" font-family="Helvetica,sans-Serif" font-size="10.00">GEU::Singleton&lt; LocaleStrings</text>
<text text-anchor="middle" x="424.38" y="-228.5" font-family="Helvetica,sans-Serif" font-size="10.00"> &gt;::getInstance</text>
</a>
</g>
</g>
<!-- Node1&#45;&gt;Node4 -->
<g id="edge4_Node000001_Node000004" class="edge">
<title>Node1&#45;&gt;Node4</title>
<g id="a_edge4_Node000001_Node000004"><a xlink:title=" ">
<path fill="none" stroke="#63b8ff" d="M80.86,-195.36C97.54,-219.09 132.16,-262.06 174.25,-279 242.58,-306.5 328.55,-280.23 379.56,-258.93"/>
<polygon fill="#63b8ff" stroke="#63b8ff" points="380.7,-262.25 388.5,-255.08 377.94,-255.82 380.7,-262.25"/>
</a>
</g>
</g>
<!-- Node5 -->
<g id="Node000005" class="node">
<title>Node5</title>
<g id="a_Node000005"><a xlink:href="../../da/d04/a01921.html#a90f2903c439af79e6af28892f8f9c139" target="_top" xlink:title=" ">
<polygon fill="white" stroke="#666666" points="303.5,-70 183.25,-70 183.25,-50 303.5,-50 303.5,-70"/>
<text text-anchor="middle" x="243.38" y="-56.5" font-family="Helvetica,sans-Serif" font-size="10.00">LocaleStrings::getString</text>
</a>
</g>
</g>
<!-- Node1&#45;&gt;Node5 -->
<g id="edge5_Node000001_Node000005" class="edge">
<title>Node1&#45;&gt;Node5</title>
<g id="a_edge5_Node000001_Node000005"><a xlink:title=" ">
<path fill="none" stroke="#63b8ff" d="M82.74,-162.59C100.69,-140.38 135.72,-100.99 174.25,-79 177.05,-77.4 179.99,-75.93 183.02,-74.58"/>
<polygon fill="#63b8ff" stroke="#63b8ff" points="184.11,-77.91 192.13,-70.99 181.54,-71.4 184.11,-77.91"/>
</a>
</g>
</g>
<!-- Node6 -->
<g id="Node000006" class="node">
<title>Node6</title>
<g id="a_Node000006"><a xlink:href="../../de/d07/a00550.html#a4453728eb6a181d72fb1be2d7d26f73d" target="_top" xlink:title=" ">
<polygon fill="white" stroke="#666666" points="297.12,-32 189.62,-32 189.62,0 297.12,0 297.12,-32"/>
<text text-anchor="start" x="197.62" y="-18.5" font-family="Helvetica,sans-Serif" font-size="10.00">GEU::GuiUtilities::</text>
<text text-anchor="middle" x="243.38" y="-6.5" font-family="Helvetica,sans-Serif" font-size="10.00">makeDBQueryingInfo</text>
</a>
</g>
</g>
<!-- Node1&#45;&gt;Node6 -->
<g id="edge6_Node000001_Node000006" class="edge">
<title>Node1&#45;&gt;Node6</title>
<g id="a_edge6_Node000001_Node000006"><a xlink:title=" ">
<path fill="none" stroke="#63b8ff" d="M78.43,-162.53C93.65,-133.9 128.69,-74.79 174.25,-41 176,-39.71 177.82,-38.47 179.69,-37.3"/>
<polygon fill="#63b8ff" stroke="#63b8ff" points="181.07,-40.53 188.13,-32.63 177.69,-34.41 181.07,-40.53"/>
</a>
</g>
</g>
<!-- Node7 -->
<g id="Node000007" class="node">
<title>Node7</title>
<g id="a_Node000007"><a xlink:href="../../de/d07/a00550.html#a51f7b03162a92f79594e82e1aca62133" target="_top" xlink:title=" ">
<polygon fill="white" stroke="#666666" points="291.5,-170 195.25,-170 195.25,-138 291.5,-138 291.5,-170"/>
<text text-anchor="start" x="203.25" y="-156.5" font-family="Helvetica,sans-Serif" font-size="10.00">GEU::GuiUtilities::</text>
<text text-anchor="middle" x="243.38" y="-144.5" font-family="Helvetica,sans-Serif" font-size="10.00">makeLocButton</text>
</a>
</g>
</g>
<!-- Node1&#45;&gt;Node7 -->
<g id="edge7_Node000001_Node000007" class="edge">
<title>Node1&#45;&gt;Node7</title>
<g id="a_edge7_Node000001_Node000007"><a xlink:title=" ">
<path fill="none" stroke="#63b8ff" d="M138.7,-169.05C153.58,-166.89 169.19,-164.62 183.65,-162.52"/>
<polygon fill="#63b8ff" stroke="#63b8ff" points="184.07,-166 193.46,-161.1 183.06,-159.07 184.07,-166"/>
</a>
</g>
</g>
<!-- Node9 -->
<g id="Node000009" class="node">
<title>Node9</title>
<g id="a_Node000009"><a xlink:href="../../de/d07/a00550.html#a791a299165fdb530f39adcf8b5637638" target="_top" xlink:title=" ">
<polygon fill="white" stroke="#666666" points="291.5,-270 195.25,-270 195.25,-238 291.5,-238 291.5,-270"/>
<text text-anchor="start" x="203.25" y="-256.5" font-family="Helvetica,sans-Serif" font-size="10.00">GEU::GuiUtilities::</text>
<text text-anchor="middle" x="243.38" y="-244.5" font-family="Helvetica,sans-Serif" font-size="10.00">makeLocSepText</text>
</a>
</g>
</g>
<!-- Node1&#45;&gt;Node9 -->
<g id="edge11_Node000001_Node000009" class="edge">
<title>Node1&#45;&gt;Node9</title>
<g id="a_edge11_Node000001_Node000009"><a xlink:title=" ">
<path fill="none" stroke="#63b8ff" d="M102.12,-195.35C122.54,-205.53 149.68,-218.62 174.25,-229 177.78,-230.49 181.43,-231.98 185.13,-233.45"/>
<polygon fill="#63b8ff" stroke="#63b8ff" points="183.6,-236.61 194.19,-236.96 186.13,-230.08 183.6,-236.61"/>
</a>
</g>
</g>
<!-- Node10 -->
<g id="Node000010" class="node">
<title>Node10</title>
<g id="a_Node000010"><a xlink:href="../../de/d07/a00550.html#a7b24395f0bd0bd368bde0935682746ce" target="_top" xlink:title=" ">
<polygon fill="white" stroke="#666666" points="291.5,-220 195.25,-220 195.25,-188 291.5,-188 291.5,-220"/>
<text text-anchor="start" x="203.25" y="-206.5" font-family="Helvetica,sans-Serif" font-size="10.00">GEU::GuiUtilities::</text>
<text text-anchor="middle" x="243.38" y="-194.5" font-family="Helvetica,sans-Serif" font-size="10.00">makeLocText</text>
</a>
</g>
</g>
<!-- Node1&#45;&gt;Node10 -->
<g id="edge13_Node000001_Node000010" class="edge">
<title>Node1&#45;&gt;Node10</title>
<g id="a_edge13_Node000001_Node000010"><a xlink:title=" ">
<path fill="none" stroke="#63b8ff" d="M138.7,-188.95C153.58,-191.11 169.19,-193.38 183.65,-195.48"/>
<polygon fill="#63b8ff" stroke="#63b8ff" points="183.06,-198.93 193.46,-196.9 184.07,-192 183.06,-198.93"/>
</a>
</g>
</g>
<!-- Node11 -->
<g id="Node000011" class="node">
<title>Node11</title>
<g id="a_Node000011"><a xlink:href="../../db/d00/a01757.html#a095cd13fc65fee6dfe8adcb986e185b7" target="_top" xlink:title=" ">
<polygon fill="white" stroke="#666666" points="312.5,-120 174.25,-120 174.25,-88 312.5,-88 312.5,-120"/>
<text text-anchor="start" x="182.25" y="-106.5" font-family="Helvetica,sans-Serif" font-size="10.00">GEU::DatabaseQueryPopup</text>
<text text-anchor="middle" x="243.38" y="-94.5" font-family="Helvetica,sans-Serif" font-size="10.00">::queryFilterDatoCrudo</text>
</a>
</g>
</g>
<!-- Node1&#45;&gt;Node11 -->
<g id="edge15_Node000001_Node000011" class="edge">
<title>Node1&#45;&gt;Node11</title>
<g id="a_edge15_Node000001_Node000011"><a xlink:title=" ">
<path fill="none" stroke="#63b8ff" d="M102.12,-162.65C122.54,-152.47 149.68,-139.38 174.25,-129 177.78,-127.51 181.43,-126.02 185.13,-124.55"/>
<polygon fill="#63b8ff" stroke="#63b8ff" points="186.13,-127.92 194.19,-121.04 183.6,-121.39 186.13,-127.92"/>
</a>
</g>
</g>
<!-- Node3 -->
<g id="Node000003" class="node">
<title>Node3</title>
<g id="a_Node000003"><a xlink:href="../../de/d07/a00550.html#aca2c75691a6162a3ee60274a84118740" target="_top" xlink:title=" ">
<polygon fill="white" stroke="#666666" points="489.75,-358 359,-358 359,-326 489.75,-326 489.75,-358"/>
<text text-anchor="start" x="367" y="-344.5" font-family="Helvetica,sans-Serif" font-size="10.00">GEU::GuiUtilities::</text>
<text text-anchor="middle" x="424.38" y="-332.5" font-family="Helvetica,sans-Serif" font-size="10.00">calcSingleRowTableHeight</text>
</a>
</g>
</g>
<!-- Node2&#45;&gt;Node3 -->
<g id="edge2_Node000002_Node000003" class="edge">
<title>Node2&#45;&gt;Node3</title>
<g id="a_edge2_Node000002_Node000003"><a xlink:title=" ">
<path fill="none" stroke="#63b8ff" d="M297.6,-342C313.17,-342 330.51,-342 347.21,-342"/>
<polygon fill="#63b8ff" stroke="#63b8ff" points="347.13,-345.5 357.13,-342 347.13,-338.5 347.13,-345.5"/>
</a>
</g>
</g>
<!-- Node2&#45;&gt;Node4 -->
<g id="edge3_Node000002_Node000004" class="edge">
<title>Node2&#45;&gt;Node4</title>
<g id="a_edge3_Node000002_Node000004"><a xlink:title=" ">
<path fill="none" stroke="#63b8ff" d="M284.92,-325.53C294.14,-321.41 303.78,-316.79 312.5,-312 340.43,-296.68 370.37,-276.45 392.1,-261.01"/>
<polygon fill="#63b8ff" stroke="#63b8ff" points="393.85,-264.06 399.94,-255.38 389.77,-258.37 393.85,-264.06"/>
</a>
</g>
</g>
<!-- Node7&#45;&gt;Node4 -->
<g id="edge8_Node000007_Node000004" class="edge">
<title>Node7&#45;&gt;Node4</title>
<g id="a_edge8_Node000007_Node000004"><a xlink:title=" ">
<path fill="none" stroke="#63b8ff" d="M291.62,-170.38C298.68,-173.1 305.83,-176.02 312.5,-179 326.34,-185.19 357.85,-202.06 383.76,-216.18"/>
<polygon fill="#63b8ff" stroke="#63b8ff" points="381.94,-219.18 392.4,-220.9 385.3,-213.04 381.94,-219.18"/>
</a>
</g>
</g>
<!-- Node8 -->
<g id="Node000008" class="node">
<title>Node8</title>
<g id="a_Node000008"><a xlink:href="../../de/d07/a00550.html#a4a4cc2d3f5e9444384aa7e7eb062dbf0" target="_top" xlink:title=" ">
<polygon fill="white" stroke="#666666" points="472.5,-170 376.25,-170 376.25,-138 472.5,-138 472.5,-170"/>
<text text-anchor="start" x="384.25" y="-156.5" font-family="Helvetica,sans-Serif" font-size="10.00">GEU::GuiUtilities::</text>
<text text-anchor="middle" x="424.38" y="-144.5" font-family="Helvetica,sans-Serif" font-size="10.00">makeButton</text>
</a>
</g>
</g>
<!-- Node7&#45;&gt;Node8 -->
<g id="edge9_Node000007_Node000008" class="edge">
<title>Node7&#45;&gt;Node8</title>
<g id="a_edge9_Node000007_Node000008"><a xlink:title=" ">
<path fill="none" stroke="#63b8ff" d="M291.87,-154C314.21,-154 341.07,-154 364.67,-154"/>
<polygon fill="#63b8ff" stroke="#63b8ff" points="364.45,-157.5 374.45,-154 364.45,-150.5 364.45,-157.5"/>
</a>
</g>
</g>
<!-- Node8&#45;&gt;Node8 -->
<g id="edge10_Node000008_Node000008" class="edge">
<title>Node8&#45;&gt;Node8</title>
<g id="a_edge10_Node000008_Node000008"><a xlink:title=" ">
<path fill="none" stroke="#63b8ff" d="M392.06,-170.44C386.03,-179.58 396.8,-188 424.38,-188 439.45,-188 449.51,-185.48 454.54,-181.71"/>
<polygon fill="#63b8ff" stroke="#63b8ff" points="457.97,-182.41 456.4,-171.93 451.09,-181.1 457.97,-182.41"/>
</a>
</g>
</g>
<!-- Node9&#45;&gt;Node4 -->
<g id="edge12_Node000009_Node000004" class="edge">
<title>Node9&#45;&gt;Node4</title>
<g id="a_edge12_Node000009_Node000004"><a xlink:title=" ">
<path fill="none" stroke="#63b8ff" d="M291.87,-249.75C305.79,-248.51 321.46,-247.11 337.01,-245.72"/>
<polygon fill="#63b8ff" stroke="#63b8ff" points="337.12,-249.22 346.77,-244.85 336.5,-242.25 337.12,-249.22"/>
</a>
</g>
</g>
<!-- Node10&#45;&gt;Node4 -->
<g id="edge14_Node000010_Node000004" class="edge">
<title>Node10&#45;&gt;Node4</title>
<g id="a_edge14_Node000010_Node000004"><a xlink:title=" ">
<path fill="none" stroke="#63b8ff" d="M291.87,-213.02C305.79,-215.67 321.46,-218.64 337.01,-221.6"/>
<polygon fill="#63b8ff" stroke="#63b8ff" points="336.31,-225.03 346.79,-223.45 337.62,-218.15 336.31,-225.03"/>
</a>
</g>
</g>
<!-- Node11&#45;&gt;Node4 -->
<g id="edge16_Node000011_Node000004" class="edge">
<title>Node11&#45;&gt;Node4</title>
<g id="a_edge16_Node000011_Node000004"><a xlink:title=" ">
<path fill="none" stroke="#63b8ff" d="M300.26,-120.47C304.64,-122.94 308.8,-125.77 312.5,-129 338.26,-151.49 324.49,-172.65 348.5,-197 355.76,-204.36 364.62,-210.76 373.68,-216.16"/>
<polygon fill="#63b8ff" stroke="#63b8ff" points="371.75,-219.1 382.19,-220.91 375.16,-212.98 371.75,-219.1"/>
</a>
</g>
</g>
<!-- Node12 -->
<g id="Node000012" class="node">
<title>Node12</title>
<g id="a_Node000012"><a xlink:href="../../d5/d01/a01901.html#aeee119a6965ec81ad1bad291f2291453" target="_top" xlink:title=" ">
<polygon fill="white" stroke="#666666" points="478.12,-70 370.62,-70 370.62,-38 478.12,-38 478.12,-70"/>
<text text-anchor="start" x="378.62" y="-56.5" font-family="Helvetica,sans-Serif" font-size="10.00">DatabaseConnector::</text>
<text text-anchor="middle" x="424.38" y="-44.5" font-family="Helvetica,sans-Serif" font-size="10.00">queryDatoCrudo</text>
</a>
</g>
</g>
<!-- Node11&#45;&gt;Node12 -->
<g id="edge17_Node000011_Node000012" class="edge">
<title>Node11&#45;&gt;Node12</title>
<g id="a_edge17_Node000011_Node000012"><a xlink:title=" ">
<path fill="none" stroke="#63b8ff" d="M302.99,-87.63C321.06,-82.58 341.04,-77 359.45,-71.86"/>
<polygon fill="#63b8ff" stroke="#63b8ff" points="360.23,-75.27 368.92,-69.21 358.35,-68.53 360.23,-75.27"/>
</a>
</g>
</g>
<!-- Node14 -->
<g id="Node000014" class="node">
<title>Node14</title>
<g id="a_Node000014"><a xlink:href="../../d5/d01/a01901.html#a2b4f98699f6e9dba0728ccc4f695e147" target="_top" xlink:title=" ">
<polygon fill="white" stroke="#666666" points="478.12,-120 370.62,-120 370.62,-88 478.12,-88 478.12,-120"/>
<text text-anchor="start" x="378.62" y="-106.5" font-family="Helvetica,sans-Serif" font-size="10.00">DatabaseConnector::</text>
<text text-anchor="middle" x="424.38" y="-94.5" font-family="Helvetica,sans-Serif" font-size="10.00">queryVuelo</text>
</a>
</g>
</g>
<!-- Node11&#45;&gt;Node14 -->
<g id="edge19_Node000011_Node000014" class="edge">
<title>Node11&#45;&gt;Node14</title>
<g id="a_edge19_Node000011_Node000014"><a xlink:title=" ">
<path fill="none" stroke="#63b8ff" d="M312.81,-104C327.99,-104 344.03,-104 359.04,-104"/>
<polygon fill="#63b8ff" stroke="#63b8ff" points="358.77,-107.5 368.77,-104 358.77,-100.5 358.77,-107.5"/>
</a>
</g>
</g>
<!-- Node13 -->
<g id="Node000013" class="node">
<title>Node13</title>
<g id="a_Node000013"><a xlink:href="../../d2/d03/a01841.html#a4db5e25377b69d8034530f936c70ae61" target="_top" xlink:title=" ">
<polygon fill="white" stroke="#666666" points="673,-64 538.5,-64 538.5,-44 673,-44 673,-64"/>
<text text-anchor="middle" x="605.75" y="-50.5" font-family="Helvetica,sans-Serif" font-size="10.00">Database::Dato::fromQuery</text>
</a>
</g>
</g>
<!-- Node12&#45;&gt;Node13 -->
<g id="edge18_Node000012_Node000013" class="edge">
<title>Node12&#45;&gt;Node13</title>
<g id="a_edge18_Node000012_Node000013"><a xlink:title=" ">
<path fill="none" stroke="#63b8ff" d="M478.22,-54C493.5,-54 510.51,-54 526.98,-54"/>
<polygon fill="#63b8ff" stroke="#63b8ff" points="526.75,-57.5 536.75,-54 526.75,-50.5 526.75,-57.5"/>
</a>
</g>
</g>
<!-- Node15 -->
<g id="Node000015" class="node">
<title>Node15</title>
<g id="a_Node000015"><a xlink:href="../../db/d03/a01853.html#af2b86fd4bbe70ce92931ba82c3f0974b" target="_top" xlink:title=" ">
<polygon fill="white" stroke="#666666" points="675.25,-114 536.25,-114 536.25,-94 675.25,-94 675.25,-114"/>
<text text-anchor="middle" x="605.75" y="-100.5" font-family="Helvetica,sans-Serif" font-size="10.00">Database::Vuelo::fromQuery</text>
</a>
</g>
</g>
<!-- Node14&#45;&gt;Node15 -->
<g id="edge20_Node000014_Node000015" class="edge">
<title>Node14&#45;&gt;Node15</title>
<g id="a_edge20_Node000014_Node000015"><a xlink:title=" ">
<path fill="none" stroke="#63b8ff" d="M478.22,-104C492.78,-104 508.89,-104 524.62,-104"/>
<polygon fill="#63b8ff" stroke="#63b8ff" points="524.45,-107.5 534.45,-104 524.45,-100.5 524.45,-107.5"/>
</a>
</g>
</g>
</g>
</svg>
