<?xml version="1.0" encoding="UTF-8" standalone="no"?>
<!DOCTYPE svg PUBLIC "-//W3C//DTD SVG 1.1//EN"
 "http://www.w3.org/Graphics/SVG/1.1/DTD/svg11.dtd">
<!-- Generated by graphviz version 10.0.1 (20240210.2158)
 -->
<!-- Title: GEU::DatabaseQueryPopup::DatabaseQueryPopup Pages: 1 -->
<svg width="671pt" height="240pt"
 viewBox="0.00 0.00 671.25 240.00" xmlns="http://www.w3.org/2000/svg" xmlns:xlink="http://www.w3.org/1999/xlink">
<g id="graph0" class="graph" transform="scale(1 1) rotate(0) translate(4 236)">
<title>GEU::DatabaseQueryPopup::DatabaseQueryPopup</title>
<!-- Node1 -->
<g id="Node000001" class="node">
<title>Node1</title>
<g id="a_Node000001"><a xlink:title=" ">
<polygon fill="#999999" stroke="#666666" points="138.25,-132 0,-132 0,-100 138.25,-100 138.25,-132"/>
<text text-anchor="start" x="8" y="-118.5" font-family="Helvetica,sans-Serif" font-size="10.00">GEU::DatabaseQueryPopup</text>
<text text-anchor="middle" x="69.12" y="-106.5" font-family="Helvetica,sans-Serif" font-size="10.00">::DatabaseQueryPopup</text>
</a>
</g>
</g>
<!-- Node2 -->
<g id="Node000002" class="node">
<title>Node2</title>
<g id="a_Node000002"><a xlink:href="../../db/d00/a01757.html#a8827644d6033b8081d587aaebbcadbff" target="_top" xlink:title=" ">
<polygon fill="white" stroke="#666666" points="312.5,-107 174.25,-107 174.25,-75 312.5,-75 312.5,-107"/>
<text text-anchor="start" x="182.25" y="-93.5" font-family="Helvetica,sans-Serif" font-size="10.00">GEU::DatabaseQueryPopup</text>
<text text-anchor="middle" x="243.38" y="-81.5" font-family="Helvetica,sans-Serif" font-size="10.00">::queryAvailFincas</text>
</a>
</g>
</g>
<!-- Node1&#45;&gt;Node2 -->
<g id="edge1_Node000001_Node000002" class="edge">
<title>Node1&#45;&gt;Node2</title>
<g id="a_edge1_Node000001_Node000002"><a xlink:title=" ">
<path fill="none" stroke="#63b8ff" d="M138.7,-106.05C146.54,-104.91 154.59,-103.74 162.56,-102.58"/>
<polygon fill="#63b8ff" stroke="#63b8ff" points="162.87,-106.08 172.26,-101.18 161.86,-99.15 162.87,-106.08"/>
</a>
</g>
</g>
<!-- Node6 -->
<g id="Node000006" class="node">
<title>Node6</title>
<g id="a_Node000006"><a xlink:href="../../db/d00/a01757.html#a8f2ace5e5ae23093e7944e17e8f46c0f" target="_top" xlink:title=" ">
<polygon fill="white" stroke="#666666" points="312.5,-207 174.25,-207 174.25,-175 312.5,-175 312.5,-207"/>
<text text-anchor="start" x="182.25" y="-193.5" font-family="Helvetica,sans-Serif" font-size="10.00">GEU::DatabaseQueryPopup</text>
<text text-anchor="middle" x="243.38" y="-181.5" font-family="Helvetica,sans-Serif" font-size="10.00">::queryAvailProvincias</text>
</a>
</g>
</g>
<!-- Node1&#45;&gt;Node6 -->
<g id="edge5_Node000001_Node000006" class="edge">
<title>Node1&#45;&gt;Node6</title>
<g id="a_edge5_Node000001_Node000006"><a xlink:title=" ">
<path fill="none" stroke="#63b8ff" d="M102.12,-132.35C122.54,-142.53 149.68,-155.62 174.25,-166 177.78,-167.49 181.43,-168.98 185.13,-170.45"/>
<polygon fill="#63b8ff" stroke="#63b8ff" points="183.6,-173.61 194.19,-173.96 186.13,-167.08 183.6,-173.61"/>
</a>
</g>
</g>
<!-- Node9 -->
<g id="Node000009" class="node">
<title>Node9</title>
<g id="a_Node000009"><a xlink:href="../../db/d00/a01757.html#a4ac63c4a2007126af889bc2da3985860" target="_top" xlink:title=" ">
<polygon fill="white" stroke="#666666" points="312.5,-157 174.25,-157 174.25,-125 312.5,-125 312.5,-157"/>
<text text-anchor="start" x="182.25" y="-143.5" font-family="Helvetica,sans-Serif" font-size="10.00">GEU::DatabaseQueryPopup</text>
<text text-anchor="middle" x="243.38" y="-131.5" font-family="Helvetica,sans-Serif" font-size="10.00">::queryAvailSensorTipo</text>
</a>
</g>
</g>
<!-- Node1&#45;&gt;Node9 -->
<g id="edge9_Node000001_Node000009" class="edge">
<title>Node1&#45;&gt;Node9</title>
<g id="a_edge9_Node000001_Node000009"><a xlink:title=" ">
<path fill="none" stroke="#63b8ff" d="M138.7,-125.95C146.54,-127.09 154.59,-128.26 162.56,-129.42"/>
<polygon fill="#63b8ff" stroke="#63b8ff" points="161.86,-132.85 172.26,-130.82 162.87,-125.92 161.86,-132.85"/>
</a>
</g>
</g>
<!-- Node12 -->
<g id="Node000012" class="node">
<title>Node12</title>
<g id="a_Node000012"><a xlink:href="../../db/d00/a01757.html#ae89ab2cd1b3a99f5d1b32f244d1b71cf" target="_top" xlink:title=" ">
<polygon fill="white" stroke="#666666" points="312.5,-57 174.25,-57 174.25,-25 312.5,-25 312.5,-57"/>
<text text-anchor="start" x="182.25" y="-43.5" font-family="Helvetica,sans-Serif" font-size="10.00">GEU::DatabaseQueryPopup</text>
<text text-anchor="middle" x="243.38" y="-31.5" font-family="Helvetica,sans-Serif" font-size="10.00">::queryDronFabricantes</text>
</a>
</g>
</g>
<!-- Node1&#45;&gt;Node12 -->
<g id="edge13_Node000001_Node000012" class="edge">
<title>Node1&#45;&gt;Node12</title>
<g id="a_edge13_Node000001_Node000012"><a xlink:title=" ">
<path fill="none" stroke="#63b8ff" d="M102.12,-99.65C122.54,-89.47 149.68,-76.38 174.25,-66 177.78,-64.51 181.43,-63.02 185.13,-61.55"/>
<polygon fill="#63b8ff" stroke="#63b8ff" points="186.13,-64.92 194.19,-58.04 183.6,-58.39 186.13,-64.92"/>
</a>
</g>
</g>
<!-- Node3 -->
<g id="Node000003" class="node">
<title>Node3</title>
<g id="a_Node000003"><a xlink:href="../../d5/d01/a01945.html#a47c7e7c2110f4cc59c9ff1f5594c366e" target="_top" xlink:title=" ">
<polygon fill="white" stroke="#666666" points="482.25,-132 348.5,-132 348.5,-100 482.25,-100 482.25,-132"/>
<text text-anchor="start" x="356.5" y="-118.5" font-family="Helvetica,sans-Serif" font-size="10.00">GEU::Singleton&lt; Database</text>
<text text-anchor="middle" x="415.38" y="-106.5" font-family="Helvetica,sans-Serif" font-size="10.00">Connector &gt;::getInstance</text>
</a>
</g>
</g>
<!-- Node2&#45;&gt;Node3 -->
<g id="edge2_Node000002_Node000003" class="edge">
<title>Node2&#45;&gt;Node3</title>
<g id="a_edge2_Node000002_Node000003"><a xlink:title=" ">
<path fill="none" stroke="#63b8ff" d="M312.54,-101.02C320.51,-102.2 328.69,-103.4 336.78,-104.59"/>
<polygon fill="#63b8ff" stroke="#63b8ff" points="336.23,-108.05 346.63,-106.04 337.25,-101.12 336.23,-108.05"/>
</a>
</g>
</g>
<!-- Node4 -->
<g id="Node000004" class="node">
<title>Node4</title>
<g id="a_Node000004"><a xlink:href="../../d5/d01/a01901.html#accbb812e6fe35bbaf04a62958a60e196" target="_top" xlink:title=" ">
<polygon fill="white" stroke="#666666" points="469.12,-82 361.62,-82 361.62,-50 469.12,-50 469.12,-82"/>
<text text-anchor="start" x="369.62" y="-68.5" font-family="Helvetica,sans-Serif" font-size="10.00">DatabaseConnector::</text>
<text text-anchor="middle" x="415.38" y="-56.5" font-family="Helvetica,sans-Serif" font-size="10.00">queryFinca</text>
</a>
</g>
</g>
<!-- Node2&#45;&gt;Node4 -->
<g id="edge3_Node000002_Node000004" class="edge">
<title>Node2&#45;&gt;Node4</title>
<g id="a_edge3_Node000002_Node000004"><a xlink:title=" ">
<path fill="none" stroke="#63b8ff" d="M312.54,-80.98C324.99,-79.15 337.94,-77.24 350.26,-75.43"/>
<polygon fill="#63b8ff" stroke="#63b8ff" points="350.49,-78.93 359.88,-74.01 349.47,-72.01 350.49,-78.93"/>
</a>
</g>
</g>
<!-- Node5 -->
<g id="Node000005" class="node">
<title>Node5</title>
<g id="a_Node000005"><a xlink:href="../../d6/d06/a01861.html#a12d9ef226bb2acab7174108a5f7d054c" target="_top" xlink:title=" ">
<polygon fill="white" stroke="#666666" points="659.88,-76 521.62,-76 521.62,-56 659.88,-56 659.88,-76"/>
<text text-anchor="middle" x="590.75" y="-62.5" font-family="Helvetica,sans-Serif" font-size="10.00">Database::Finca::fromQuery</text>
</a>
</g>
</g>
<!-- Node4&#45;&gt;Node5 -->
<g id="edge4_Node000004_Node000005" class="edge">
<title>Node4&#45;&gt;Node5</title>
<g id="a_edge4_Node000004_Node000005"><a xlink:title=" ">
<path fill="none" stroke="#63b8ff" d="M469.34,-66C482.17,-66 496.18,-66 509.95,-66"/>
<polygon fill="#63b8ff" stroke="#63b8ff" points="509.92,-69.5 519.92,-66 509.92,-62.5 509.92,-69.5"/>
</a>
</g>
</g>
<!-- Node6&#45;&gt;Node3 -->
<g id="edge6_Node000006_Node000003" class="edge">
<title>Node6&#45;&gt;Node3</title>
<g id="a_edge6_Node000006_Node000003"><a xlink:title=" ">
<path fill="none" stroke="#63b8ff" d="M293.77,-174.58C300.18,-171.96 306.58,-169.08 312.5,-166 329.78,-157.02 331.27,-150.08 348.5,-141 351.15,-139.6 353.89,-138.25 356.69,-136.94"/>
<polygon fill="#63b8ff" stroke="#63b8ff" points="357.86,-140.24 365.59,-132.99 355.03,-133.84 357.86,-140.24"/>
</a>
</g>
</g>
<!-- Node7 -->
<g id="Node000007" class="node">
<title>Node7</title>
<g id="a_Node000007"><a xlink:href="../../d5/d01/a01901.html#a4136453cf00807b524cc62a56223f82d" target="_top" xlink:title=" ">
<polygon fill="white" stroke="#666666" points="469.12,-232 361.62,-232 361.62,-200 469.12,-200 469.12,-232"/>
<text text-anchor="start" x="369.62" y="-218.5" font-family="Helvetica,sans-Serif" font-size="10.00">DatabaseConnector::</text>
<text text-anchor="middle" x="415.38" y="-206.5" font-family="Helvetica,sans-Serif" font-size="10.00">queryProvincia</text>
</a>
</g>
</g>
<!-- Node6&#45;&gt;Node7 -->
<g id="edge7_Node000006_Node000007" class="edge">
<title>Node6&#45;&gt;Node7</title>
<g id="a_edge7_Node000006_Node000007"><a xlink:title=" ">
<path fill="none" stroke="#63b8ff" d="M312.54,-201.02C324.99,-202.85 337.94,-204.76 350.26,-206.57"/>
<polygon fill="#63b8ff" stroke="#63b8ff" points="349.47,-209.99 359.88,-207.99 350.49,-203.07 349.47,-209.99"/>
</a>
</g>
</g>
<!-- Node8 -->
<g id="Node000008" class="node">
<title>Node8</title>
<g id="a_Node000008"><a xlink:href="../../d9/d03/a01877.html#a0d3df7eb17c59497696598f435a9a4cd" target="_top" xlink:title=" ">
<polygon fill="white" stroke="#666666" points="641.88,-232 539.62,-232 539.62,-200 641.88,-200 641.88,-232"/>
<text text-anchor="start" x="547.62" y="-218.5" font-family="Helvetica,sans-Serif" font-size="10.00">Database::Provincia</text>
<text text-anchor="middle" x="590.75" y="-206.5" font-family="Helvetica,sans-Serif" font-size="10.00">::fromQuery</text>
</a>
</g>
</g>
<!-- Node7&#45;&gt;Node8 -->
<g id="edge8_Node000007_Node000008" class="edge">
<title>Node7&#45;&gt;Node8</title>
<g id="a_edge8_Node000007_Node000008"><a xlink:title=" ">
<path fill="none" stroke="#63b8ff" d="M469.34,-216C487.81,-216 508.71,-216 527.85,-216"/>
<polygon fill="#63b8ff" stroke="#63b8ff" points="527.68,-219.5 537.68,-216 527.68,-212.5 527.68,-219.5"/>
</a>
</g>
</g>
<!-- Node9&#45;&gt;Node3 -->
<g id="edge10_Node000009_Node000003" class="edge">
<title>Node9&#45;&gt;Node3</title>
<g id="a_edge10_Node000009_Node000003"><a xlink:title=" ">
<path fill="none" stroke="#63b8ff" d="M312.54,-130.98C320.51,-129.8 328.69,-128.6 336.78,-127.41"/>
<polygon fill="#63b8ff" stroke="#63b8ff" points="337.25,-130.88 346.63,-125.96 336.23,-123.95 337.25,-130.88"/>
</a>
</g>
</g>
<!-- Node10 -->
<g id="Node000010" class="node">
<title>Node10</title>
<g id="a_Node000010"><a xlink:href="../../d5/d01/a01901.html#a65a59fd6110558b507ba789eb1f2a0dd" target="_top" xlink:title=" ">
<polygon fill="white" stroke="#666666" points="469.12,-182 361.62,-182 361.62,-150 469.12,-150 469.12,-182"/>
<text text-anchor="start" x="369.62" y="-168.5" font-family="Helvetica,sans-Serif" font-size="10.00">DatabaseConnector::</text>
<text text-anchor="middle" x="415.38" y="-156.5" font-family="Helvetica,sans-Serif" font-size="10.00">querySensor</text>
</a>
</g>
</g>
<!-- Node9&#45;&gt;Node10 -->
<g id="edge11_Node000009_Node000010" class="edge">
<title>Node9&#45;&gt;Node10</title>
<g id="a_edge11_Node000009_Node000010"><a xlink:title=" ">
<path fill="none" stroke="#63b8ff" d="M312.54,-151.02C324.99,-152.85 337.94,-154.76 350.26,-156.57"/>
<polygon fill="#63b8ff" stroke="#63b8ff" points="349.47,-159.99 359.88,-157.99 350.49,-153.07 349.47,-159.99"/>
</a>
</g>
</g>
<!-- Node11 -->
<g id="Node000011" class="node">
<title>Node11</title>
<g id="a_Node000011"><a xlink:href="../../d8/d02/a01869.html#a7ebe6720bf618743d5ae9196a888e1e0" target="_top" xlink:title=" ">
<polygon fill="white" stroke="#666666" points="663.25,-176 518.25,-176 518.25,-156 663.25,-156 663.25,-176"/>
<text text-anchor="middle" x="590.75" y="-162.5" font-family="Helvetica,sans-Serif" font-size="10.00">Database::Sensor::fromQuery</text>
</a>
</g>
</g>
<!-- Node10&#45;&gt;Node11 -->
<g id="edge12_Node000010_Node000011" class="edge">
<title>Node10&#45;&gt;Node11</title>
<g id="a_edge12_Node000010_Node000011"><a xlink:title=" ">
<path fill="none" stroke="#63b8ff" d="M469.34,-166C481.2,-166 494.06,-166 506.81,-166"/>
<polygon fill="#63b8ff" stroke="#63b8ff" points="506.44,-169.5 516.44,-166 506.44,-162.5 506.44,-169.5"/>
</a>
</g>
</g>
<!-- Node12&#45;&gt;Node3 -->
<g id="edge15_Node000012_Node000003" class="edge">
<title>Node12&#45;&gt;Node3</title>
<g id="a_edge15_Node000012_Node000003"><a xlink:title=" ">
<path fill="none" stroke="#63b8ff" d="M293.77,-57.42C300.18,-60.04 306.58,-62.92 312.5,-66 329.78,-74.98 331.27,-81.92 348.5,-91 351.15,-92.4 353.89,-93.75 356.69,-95.06"/>
<polygon fill="#63b8ff" stroke="#63b8ff" points="355.03,-98.16 365.59,-99.01 357.86,-91.76 355.03,-98.16"/>
</a>
</g>
</g>
<!-- Node13 -->
<g id="Node000013" class="node">
<title>Node13</title>
<g id="a_Node000013"><a xlink:href="../../d5/d01/a01901.html#a44fc08fcf45a9b8710793768fd852f1d" target="_top" xlink:title=" ">
<polygon fill="white" stroke="#666666" points="469.12,-32 361.62,-32 361.62,0 469.12,0 469.12,-32"/>
<text text-anchor="start" x="369.62" y="-18.5" font-family="Helvetica,sans-Serif" font-size="10.00">DatabaseConnector::</text>
<text text-anchor="middle" x="415.38" y="-6.5" font-family="Helvetica,sans-Serif" font-size="10.00">getDronFabricantes</text>
</a>
</g>
</g>
<!-- Node12&#45;&gt;Node13 -->
<g id="edge14_Node000012_Node000013" class="edge">
<title>Node12&#45;&gt;Node13</title>
<g id="a_edge14_Node000012_Node000013"><a xlink:title=" ">
<path fill="none" stroke="#63b8ff" d="M312.54,-30.98C324.99,-29.15 337.94,-27.24 350.26,-25.43"/>
<polygon fill="#63b8ff" stroke="#63b8ff" points="350.49,-28.93 359.88,-24.01 349.47,-22.01 350.49,-28.93"/>
</a>
</g>
</g>
</g>
</svg>
