<?xml version="1.0" encoding="UTF-8" standalone="no"?>
<!DOCTYPE svg PUBLIC "-//W3C//DTD SVG 1.1//EN"
 "http://www.w3.org/Graphics/SVG/1.1/DTD/svg11.dtd">
<!-- Generated by graphviz version 10.0.1 (20240210.2158)
 -->
<!-- Title: GEU::DatabaseQueryPopup::makeFormZona Pages: 1 -->
<svg width="680pt" height="366pt"
 viewBox="0.00 0.00 679.50 366.00" xmlns="http://www.w3.org/2000/svg" xmlns:xlink="http://www.w3.org/1999/xlink">
<g id="graph0" class="graph" transform="scale(1 1) rotate(0) translate(4 362)">
<title>GEU::DatabaseQueryPopup::makeFormZona</title>
<!-- Node1 -->
<g id="Node000001" class="node">
<title>Node1</title>
<g id="a_Node000001"><a xlink:title=" ">
<polygon fill="#999999" stroke="#666666" points="138.25,-195 0,-195 0,-163 138.25,-163 138.25,-195"/>
<text text-anchor="start" x="8" y="-181.5" font-family="Helvetica,sans-Serif" font-size="10.00">GEU::DatabaseQueryPopup</text>
<text text-anchor="middle" x="69.12" y="-169.5" font-family="Helvetica,sans-Serif" font-size="10.00">::makeFormZona</text>
</a>
</g>
</g>
<!-- Node2 -->
<g id="Node000002" class="node">
<title>Node2</title>
<g id="a_Node000002"><a xlink:href="../../de/d07/a00550.html#a2dd1eeaa62f943136289f104f6898fac" target="_top" xlink:title=" ">
<polygon fill="white" stroke="#666666" points="291.5,-358 195.25,-358 195.25,-326 291.5,-326 291.5,-358"/>
<text text-anchor="start" x="203.25" y="-344.5" font-family="Helvetica,sans-Serif" font-size="10.00">GEU::GuiUtilities::</text>
<text text-anchor="middle" x="243.38" y="-332.5" font-family="Helvetica,sans-Serif" font-size="10.00">beginZonaTable</text>
</a>
</g>
</g>
<!-- Node1&#45;&gt;Node2 -->
<g id="edge1_Node000001_Node000002" class="edge">
<title>Node1&#45;&gt;Node2</title>
<g id="a_edge1_Node000001_Node000002"><a xlink:title=" ">
<path fill="none" stroke="#63b8ff" d="M79.3,-195.44C95.35,-222.89 130.95,-278.35 174.25,-312 178.14,-315.03 182.39,-317.82 186.8,-320.37"/>
<polygon fill="#63b8ff" stroke="#63b8ff" points="184.82,-323.29 195.29,-324.89 188.11,-317.11 184.82,-323.29"/>
</a>
</g>
</g>
<!-- Node4 -->
<g id="Node000004" class="node">
<title>Node4</title>
<g id="a_Node000004"><a xlink:href="../../d5/d01/a01945.html#a47c7e7c2110f4cc59c9ff1f5594c366e" target="_top" xlink:title=" ">
<polygon fill="white" stroke="#666666" points="500.25,-288 348.5,-288 348.5,-256 500.25,-256 500.25,-288"/>
<text text-anchor="start" x="356.5" y="-274.5" font-family="Helvetica,sans-Serif" font-size="10.00">GEU::Singleton&lt; LocaleStrings</text>
<text text-anchor="middle" x="424.38" y="-262.5" font-family="Helvetica,sans-Serif" font-size="10.00"> &gt;::getInstance</text>
</a>
</g>
</g>
<!-- Node1&#45;&gt;Node4 -->
<g id="edge4_Node000001_Node000004" class="edge">
<title>Node1&#45;&gt;Node4</title>
<g id="a_edge4_Node000001_Node000004"><a xlink:title=" ">
<path fill="none" stroke="#63b8ff" d="M80.86,-195.36C97.54,-219.09 132.16,-262.06 174.25,-279 227.43,-300.4 292.28,-297.78 342.49,-290.26"/>
<polygon fill="#63b8ff" stroke="#63b8ff" points="342.8,-293.76 352.12,-288.72 341.7,-286.84 342.8,-293.76"/>
</a>
</g>
</g>
<!-- Node5 -->
<g id="Node000005" class="node">
<title>Node5</title>
<g id="a_Node000005"><a xlink:href="../../da/d04/a01921.html#a90f2903c439af79e6af28892f8f9c139" target="_top" xlink:title=" ">
<polygon fill="white" stroke="#666666" points="303.5,-70 183.25,-70 183.25,-50 303.5,-50 303.5,-70"/>
<text text-anchor="middle" x="243.38" y="-56.5" font-family="Helvetica,sans-Serif" font-size="10.00">LocaleStrings::getString</text>
</a>
</g>
</g>
<!-- Node1&#45;&gt;Node5 -->
<g id="edge5_Node000001_Node000005" class="edge">
<title>Node1&#45;&gt;Node5</title>
<g id="a_edge5_Node000001_Node000005"><a xlink:title=" ">
<path fill="none" stroke="#63b8ff" d="M82.74,-162.59C100.69,-140.38 135.72,-100.99 174.25,-79 177.05,-77.4 179.99,-75.93 183.02,-74.58"/>
<polygon fill="#63b8ff" stroke="#63b8ff" points="184.11,-77.91 192.13,-70.99 181.54,-71.4 184.11,-77.91"/>
</a>
</g>
</g>
<!-- Node6 -->
<g id="Node000006" class="node">
<title>Node6</title>
<g id="a_Node000006"><a xlink:href="../../de/d07/a00550.html#a4453728eb6a181d72fb1be2d7d26f73d" target="_top" xlink:title=" ">
<polygon fill="white" stroke="#666666" points="297.12,-32 189.62,-32 189.62,0 297.12,0 297.12,-32"/>
<text text-anchor="start" x="197.62" y="-18.5" font-family="Helvetica,sans-Serif" font-size="10.00">GEU::GuiUtilities::</text>
<text text-anchor="middle" x="243.38" y="-6.5" font-family="Helvetica,sans-Serif" font-size="10.00">makeDBQueryingInfo</text>
</a>
</g>
</g>
<!-- Node1&#45;&gt;Node6 -->
<g id="edge6_Node000001_Node000006" class="edge">
<title>Node1&#45;&gt;Node6</title>
<g id="a_edge6_Node000001_Node000006"><a xlink:title=" ">
<path fill="none" stroke="#63b8ff" d="M78.43,-162.53C93.65,-133.9 128.69,-74.79 174.25,-41 176,-39.71 177.82,-38.47 179.69,-37.3"/>
<polygon fill="#63b8ff" stroke="#63b8ff" points="181.07,-40.53 188.13,-32.63 177.69,-34.41 181.07,-40.53"/>
</a>
</g>
</g>
<!-- Node7 -->
<g id="Node000007" class="node">
<title>Node7</title>
<g id="a_Node000007"><a xlink:href="../../de/d07/a00550.html#a51f7b03162a92f79594e82e1aca62133" target="_top" xlink:title=" ">
<polygon fill="white" stroke="#666666" points="291.5,-220 195.25,-220 195.25,-188 291.5,-188 291.5,-220"/>
<text text-anchor="start" x="203.25" y="-206.5" font-family="Helvetica,sans-Serif" font-size="10.00">GEU::GuiUtilities::</text>
<text text-anchor="middle" x="243.38" y="-194.5" font-family="Helvetica,sans-Serif" font-size="10.00">makeLocButton</text>
</a>
</g>
</g>
<!-- Node1&#45;&gt;Node7 -->
<g id="edge7_Node000001_Node000007" class="edge">
<title>Node1&#45;&gt;Node7</title>
<g id="a_edge7_Node000001_Node000007"><a xlink:title=" ">
<path fill="none" stroke="#63b8ff" d="M138.7,-188.95C153.58,-191.11 169.19,-193.38 183.65,-195.48"/>
<polygon fill="#63b8ff" stroke="#63b8ff" points="183.06,-198.93 193.46,-196.9 184.07,-192 183.06,-198.93"/>
</a>
</g>
</g>
<!-- Node9 -->
<g id="Node000009" class="node">
<title>Node9</title>
<g id="a_Node000009"><a xlink:href="../../de/d07/a00550.html#a7b24395f0bd0bd368bde0935682746ce" target="_top" xlink:title=" ">
<polygon fill="white" stroke="#666666" points="291.5,-270 195.25,-270 195.25,-238 291.5,-238 291.5,-270"/>
<text text-anchor="start" x="203.25" y="-256.5" font-family="Helvetica,sans-Serif" font-size="10.00">GEU::GuiUtilities::</text>
<text text-anchor="middle" x="243.38" y="-244.5" font-family="Helvetica,sans-Serif" font-size="10.00">makeLocText</text>
</a>
</g>
</g>
<!-- Node1&#45;&gt;Node9 -->
<g id="edge11_Node000001_Node000009" class="edge">
<title>Node1&#45;&gt;Node9</title>
<g id="a_edge11_Node000001_Node000009"><a xlink:title=" ">
<path fill="none" stroke="#63b8ff" d="M102.12,-195.35C122.54,-205.53 149.68,-218.62 174.25,-229 177.78,-230.49 181.43,-231.98 185.13,-233.45"/>
<polygon fill="#63b8ff" stroke="#63b8ff" points="183.6,-236.61 194.19,-236.96 186.13,-230.08 183.6,-236.61"/>
</a>
</g>
</g>
<!-- Node10 -->
<g id="Node000010" class="node">
<title>Node10</title>
<g id="a_Node000010"><a xlink:href="../../db/d00/a01757.html#a31276fe1d19084222ee5d8220382ed3d" target="_top" xlink:title=" ">
<polygon fill="white" stroke="#666666" points="312.5,-170 174.25,-170 174.25,-138 312.5,-138 312.5,-170"/>
<text text-anchor="start" x="182.25" y="-156.5" font-family="Helvetica,sans-Serif" font-size="10.00">GEU::DatabaseQueryPopup</text>
<text text-anchor="middle" x="243.38" y="-144.5" font-family="Helvetica,sans-Serif" font-size="10.00">::queryAvailMunicipios</text>
</a>
</g>
</g>
<!-- Node1&#45;&gt;Node10 -->
<g id="edge13_Node000001_Node000010" class="edge">
<title>Node1&#45;&gt;Node10</title>
<g id="a_edge13_Node000001_Node000010"><a xlink:title=" ">
<path fill="none" stroke="#63b8ff" d="M138.7,-169.05C146.54,-167.91 154.59,-166.74 162.56,-165.58"/>
<polygon fill="#63b8ff" stroke="#63b8ff" points="162.87,-169.08 172.26,-164.18 161.86,-162.15 162.87,-169.08"/>
</a>
</g>
</g>
<!-- Node13 -->
<g id="Node000013" class="node">
<title>Node13</title>
<g id="a_Node000013"><a xlink:href="../../db/d00/a01757.html#afef45bcc74cf0edca75cd3f386f9e09b" target="_top" xlink:title=" ">
<polygon fill="white" stroke="#666666" points="312.5,-120 174.25,-120 174.25,-88 312.5,-88 312.5,-120"/>
<text text-anchor="start" x="182.25" y="-106.5" font-family="Helvetica,sans-Serif" font-size="10.00">GEU::DatabaseQueryPopup</text>
<text text-anchor="middle" x="243.38" y="-94.5" font-family="Helvetica,sans-Serif" font-size="10.00">::queryFilterZonas</text>
</a>
</g>
</g>
<!-- Node1&#45;&gt;Node13 -->
<g id="edge17_Node000001_Node000013" class="edge">
<title>Node1&#45;&gt;Node13</title>
<g id="a_edge17_Node000001_Node000013"><a xlink:title=" ">
<path fill="none" stroke="#63b8ff" d="M102.12,-162.65C122.54,-152.47 149.68,-139.38 174.25,-129 177.78,-127.51 181.43,-126.02 185.13,-124.55"/>
<polygon fill="#63b8ff" stroke="#63b8ff" points="186.13,-127.92 194.19,-121.04 183.6,-121.39 186.13,-127.92"/>
</a>
</g>
</g>
<!-- Node3 -->
<g id="Node000003" class="node">
<title>Node3</title>
<g id="a_Node000003"><a xlink:href="../../de/d07/a00550.html#aca2c75691a6162a3ee60274a84118740" target="_top" xlink:title=" ">
<polygon fill="white" stroke="#666666" points="489.75,-358 359,-358 359,-326 489.75,-326 489.75,-358"/>
<text text-anchor="start" x="367" y="-344.5" font-family="Helvetica,sans-Serif" font-size="10.00">GEU::GuiUtilities::</text>
<text text-anchor="middle" x="424.38" y="-332.5" font-family="Helvetica,sans-Serif" font-size="10.00">calcSingleRowTableHeight</text>
</a>
</g>
</g>
<!-- Node2&#45;&gt;Node3 -->
<g id="edge2_Node000002_Node000003" class="edge">
<title>Node2&#45;&gt;Node3</title>
<g id="a_edge2_Node000002_Node000003"><a xlink:title=" ">
<path fill="none" stroke="#63b8ff" d="M291.87,-342C308.94,-342 328.63,-342 347.5,-342"/>
<polygon fill="#63b8ff" stroke="#63b8ff" points="347.29,-345.5 357.29,-342 347.29,-338.5 347.29,-345.5"/>
</a>
</g>
</g>
<!-- Node2&#45;&gt;Node4 -->
<g id="edge3_Node000002_Node000004" class="edge">
<title>Node2&#45;&gt;Node4</title>
<g id="a_edge3_Node000002_Node000004"><a xlink:title=" ">
<path fill="none" stroke="#63b8ff" d="M286.34,-325.59C311.61,-315.71 344,-303.04 370.95,-292.5"/>
<polygon fill="#63b8ff" stroke="#63b8ff" points="371.91,-295.88 379.95,-288.98 369.36,-289.36 371.91,-295.88"/>
</a>
</g>
</g>
<!-- Node7&#45;&gt;Node4 -->
<g id="edge8_Node000007_Node000004" class="edge">
<title>Node7&#45;&gt;Node4</title>
<g id="a_edge8_Node000007_Node000004"><a xlink:title=" ">
<path fill="none" stroke="#63b8ff" d="M291.19,-220.39C298.38,-223.14 305.68,-226.05 312.5,-229 328.92,-236.09 331.97,-240.15 348.5,-247 352.33,-248.59 356.31,-250.15 360.34,-251.67"/>
<polygon fill="#63b8ff" stroke="#63b8ff" points="359.05,-254.93 369.64,-255.07 361.45,-248.35 359.05,-254.93"/>
</a>
</g>
</g>
<!-- Node8 -->
<g id="Node000008" class="node">
<title>Node8</title>
<g id="a_Node000008"><a xlink:href="../../de/d07/a00550.html#a4a4cc2d3f5e9444384aa7e7eb062dbf0" target="_top" xlink:title=" ">
<polygon fill="white" stroke="#666666" points="472.5,-220 376.25,-220 376.25,-188 472.5,-188 472.5,-220"/>
<text text-anchor="start" x="384.25" y="-206.5" font-family="Helvetica,sans-Serif" font-size="10.00">GEU::GuiUtilities::</text>
<text text-anchor="middle" x="424.38" y="-194.5" font-family="Helvetica,sans-Serif" font-size="10.00">makeButton</text>
</a>
</g>
</g>
<!-- Node7&#45;&gt;Node8 -->
<g id="edge9_Node000007_Node000008" class="edge">
<title>Node7&#45;&gt;Node8</title>
<g id="a_edge9_Node000007_Node000008"><a xlink:title=" ">
<path fill="none" stroke="#63b8ff" d="M291.87,-204C314.21,-204 341.07,-204 364.67,-204"/>
<polygon fill="#63b8ff" stroke="#63b8ff" points="364.45,-207.5 374.45,-204 364.45,-200.5 364.45,-207.5"/>
</a>
</g>
</g>
<!-- Node8&#45;&gt;Node8 -->
<g id="edge10_Node000008_Node000008" class="edge">
<title>Node8&#45;&gt;Node8</title>
<g id="a_edge10_Node000008_Node000008"><a xlink:title=" ">
<path fill="none" stroke="#63b8ff" d="M392.33,-220.44C386.35,-229.58 397.03,-238 424.38,-238 439.33,-238 449.3,-235.48 454.29,-231.71"/>
<polygon fill="#63b8ff" stroke="#63b8ff" points="457.72,-232.41 456.14,-221.93 450.84,-231.1 457.72,-232.41"/>
</a>
</g>
</g>
<!-- Node9&#45;&gt;Node4 -->
<g id="edge12_Node000009_Node000004" class="edge">
<title>Node9&#45;&gt;Node4</title>
<g id="a_edge12_Node000009_Node000004"><a xlink:title=" ">
<path fill="none" stroke="#63b8ff" d="M291.87,-258.78C305.79,-260.18 321.46,-261.75 337.01,-263.32"/>
<polygon fill="#63b8ff" stroke="#63b8ff" points="336.47,-266.78 346.77,-264.3 337.17,-259.81 336.47,-266.78"/>
</a>
</g>
</g>
<!-- Node10&#45;&gt;Node4 -->
<g id="edge14_Node000010_Node000004" class="edge">
<title>Node10&#45;&gt;Node4</title>
<g id="a_edge14_Node000010_Node000004"><a xlink:title=" ">
<path fill="none" stroke="#63b8ff" d="M300.26,-170.47C304.64,-172.94 308.8,-175.77 312.5,-179 338.26,-201.49 322.41,-224.89 348.5,-247 349.59,-247.92 350.71,-248.81 351.86,-249.67"/>
<polygon fill="#63b8ff" stroke="#63b8ff" points="349.64,-252.4 359.95,-254.8 353.39,-246.49 349.64,-252.4"/>
</a>
</g>
</g>
<!-- Node11 -->
<g id="Node000011" class="node">
<title>Node11</title>
<g id="a_Node000011"><a xlink:href="../../d5/d01/a01901.html#a09c3a9c872f5fde0b0c548da64bbd2f6" target="_top" xlink:title=" ">
<polygon fill="white" stroke="#666666" points="478.12,-170 370.62,-170 370.62,-138 478.12,-138 478.12,-170"/>
<text text-anchor="start" x="378.62" y="-156.5" font-family="Helvetica,sans-Serif" font-size="10.00">DatabaseConnector::</text>
<text text-anchor="middle" x="424.38" y="-144.5" font-family="Helvetica,sans-Serif" font-size="10.00">queryMunicipio</text>
</a>
</g>
</g>
<!-- Node10&#45;&gt;Node11 -->
<g id="edge15_Node000010_Node000011" class="edge">
<title>Node10&#45;&gt;Node11</title>
<g id="a_edge15_Node000010_Node000011"><a xlink:title=" ">
<path fill="none" stroke="#63b8ff" d="M312.81,-154C327.99,-154 344.03,-154 359.04,-154"/>
<polygon fill="#63b8ff" stroke="#63b8ff" points="358.77,-157.5 368.77,-154 358.77,-150.5 358.77,-157.5"/>
</a>
</g>
</g>
<!-- Node12 -->
<g id="Node000012" class="node">
<title>Node12</title>
<g id="a_Node000012"><a xlink:href="../../de/d03/a01873.html#a2e135076ae26141775579dfbca4da214" target="_top" xlink:title=" ">
<polygon fill="white" stroke="#666666" points="656.12,-170 551.62,-170 551.62,-138 656.12,-138 656.12,-170"/>
<text text-anchor="start" x="559.62" y="-156.5" font-family="Helvetica,sans-Serif" font-size="10.00">Database::Municipio</text>
<text text-anchor="middle" x="603.88" y="-144.5" font-family="Helvetica,sans-Serif" font-size="10.00">::fromQuery</text>
</a>
</g>
</g>
<!-- Node11&#45;&gt;Node12 -->
<g id="edge16_Node000011_Node000012" class="edge">
<title>Node11&#45;&gt;Node12</title>
<g id="a_edge16_Node000011_Node000012"><a xlink:title=" ">
<path fill="none" stroke="#63b8ff" d="M478.15,-154C497.55,-154 519.7,-154 539.91,-154"/>
<polygon fill="#63b8ff" stroke="#63b8ff" points="539.71,-157.5 549.71,-154 539.71,-150.5 539.71,-157.5"/>
</a>
</g>
</g>
<!-- Node13&#45;&gt;Node4 -->
<g id="edge18_Node000013_Node000004" class="edge">
<title>Node13&#45;&gt;Node4</title>
<g id="a_edge18_Node000013_Node000004"><a xlink:title=" ">
<path fill="none" stroke="#63b8ff" d="M301.93,-120.36C305.8,-122.84 309.38,-125.71 312.5,-129 350.18,-168.83 310.24,-207.73 348.5,-247 348.99,-247.51 349.5,-248 350.01,-248.49"/>
<polygon fill="#63b8ff" stroke="#63b8ff" points="347.85,-251.24 357.9,-254.59 352.13,-245.7 347.85,-251.24"/>
</a>
</g>
</g>
<!-- Node14 -->
<g id="Node000014" class="node">
<title>Node14</title>
<g id="a_Node000014"><a xlink:href="../../d5/d01/a01901.html#aafa175f116074af1e83d841ca7e07f3d" target="_top" xlink:title=" ">
<polygon fill="white" stroke="#666666" points="478.12,-120 370.62,-120 370.62,-88 478.12,-88 478.12,-120"/>
<text text-anchor="start" x="378.62" y="-106.5" font-family="Helvetica,sans-Serif" font-size="10.00">DatabaseConnector::</text>
<text text-anchor="middle" x="424.38" y="-94.5" font-family="Helvetica,sans-Serif" font-size="10.00">queryZona</text>
</a>
</g>
</g>
<!-- Node13&#45;&gt;Node14 -->
<g id="edge19_Node000013_Node000014" class="edge">
<title>Node13&#45;&gt;Node14</title>
<g id="a_edge19_Node000013_Node000014"><a xlink:title=" ">
<path fill="none" stroke="#63b8ff" d="M312.81,-104C327.99,-104 344.03,-104 359.04,-104"/>
<polygon fill="#63b8ff" stroke="#63b8ff" points="358.77,-107.5 368.77,-104 358.77,-100.5 358.77,-107.5"/>
</a>
</g>
</g>
<!-- Node15 -->
<g id="Node000015" class="node">
<title>Node15</title>
<g id="a_Node000015"><a xlink:href="../../de/d01/a01857.html#a4300badc9d2aa42bc623c65c79cf6c86" target="_top" xlink:title=" ">
<polygon fill="white" stroke="#666666" points="671.5,-114 536.25,-114 536.25,-94 671.5,-94 671.5,-114"/>
<text text-anchor="middle" x="603.88" y="-100.5" font-family="Helvetica,sans-Serif" font-size="10.00">Database::Zona::fromQuery</text>
</a>
</g>
</g>
<!-- Node14&#45;&gt;Node15 -->
<g id="edge20_Node000014_Node000015" class="edge">
<title>Node14&#45;&gt;Node15</title>
<g id="a_edge20_Node000014_Node000015"><a xlink:title=" ">
<path fill="none" stroke="#63b8ff" d="M478.15,-104C492.71,-104 508.81,-104 524.49,-104"/>
<polygon fill="#63b8ff" stroke="#63b8ff" points="524.28,-107.5 534.28,-104 524.28,-100.5 524.28,-107.5"/>
</a>
</g>
</g>
</g>
</svg>
