<?xml version="1.0" encoding="UTF-8" standalone="no"?>
<!DOCTYPE svg PUBLIC "-//W3C//DTD SVG 1.1//EN"
 "http://www.w3.org/Graphics/SVG/1.1/DTD/svg11.dtd">
<!-- Generated by graphviz version 10.0.1 (20240210.2158)
 -->
<!-- Title: GEU::DetailsWindow::makePCloudItemInspector Pages: 1 -->
<svg width="529pt" height="852pt"
 viewBox="0.00 0.00 529.25 852.16" xmlns="http://www.w3.org/2000/svg" xmlns:xlink="http://www.w3.org/1999/xlink">
<g id="graph0" class="graph" transform="scale(1 1) rotate(0) translate(4 848.16)">
<title>GEU::DetailsWindow::makePCloudItemInspector</title>
<!-- Node1 -->
<g id="Node000001" class="node">
<title>Node1</title>
<g id="a_Node000001"><a xlink:title="Renders inspector details for point cloud items.">
<polygon fill="#999999" stroke="#666666" points="136,-506 0,-506 0,-474 136,-474 136,-506"/>
<text text-anchor="start" x="8" y="-492.5" font-family="Helvetica,sans-Serif" font-size="10.00">GEU::DetailsWindow</text>
<text text-anchor="middle" x="68" y="-480.5" font-family="Helvetica,sans-Serif" font-size="10.00">::makePCloudItemInspector</text>
</a>
</g>
</g>
<!-- Node2 -->
<g id="Node000002" class="node">
<title>Node2</title>
<g id="a_Node000002"><a xlink:href="../../d9/d03/class_g_e_u_1_1_popup_system.html#ae812e21e62615fd347d33ee0ddb0cc82" target="_top" xlink:title=" ">
<polygon fill="white" stroke="#666666" points="326,-794 172,-794 172,-774 326,-774 326,-794"/>
<text text-anchor="middle" x="249" y="-780.5" font-family="Helvetica,sans-Serif" font-size="10.00">GEU::PopupSystem::addPopup</text>
</a>
</g>
</g>
<!-- Node1&#45;&gt;Node2 -->
<g id="edge1_Node000001_Node000002" class="edge">
<title>Node1&#45;&gt;Node2</title>
<g id="a_edge1_Node000001_Node000002"><a xlink:title=" ">
<path fill="none" stroke="#63b8ff" d="M70.02,-506.2C73.9,-553.66 91.94,-693.54 172,-765 173.08,-765.97 174.21,-766.89 175.37,-767.76"/>
<polygon fill="#63b8ff" stroke="#63b8ff" points="173.27,-770.58 183.62,-772.83 176.93,-764.61 173.27,-770.58"/>
</a>
</g>
</g>
<!-- Node3 -->
<g id="Node000003" class="node">
<title>Node3</title>
<g id="a_Node000003"><a xlink:href="../../d1/d01/class_g_e_u_1_1_singleton.html#a47c7e7c2110f4cc59c9ff1f5594c366e" target="_top" xlink:title=" ">
<polygon fill="white" stroke="#666666" points="518.62,-823 364.62,-823 364.62,-791 518.62,-791 518.62,-823"/>
<text text-anchor="start" x="372.62" y="-809.5" font-family="Helvetica,sans-Serif" font-size="10.00">GEU::Singleton&lt; PopupSystem</text>
<text text-anchor="middle" x="441.62" y="-797.5" font-family="Helvetica,sans-Serif" font-size="10.00"> &gt;::getInstance</text>
</a>
</g>
</g>
<!-- Node1&#45;&gt;Node3 -->
<g id="edge14_Node000001_Node000003" class="edge">
<title>Node1&#45;&gt;Node3</title>
<g id="a_edge14_Node000001_Node000003"><a xlink:title=" ">
<path fill="none" stroke="#63b8ff" d="M68.4,-506.14C67.94,-558.59 75.43,-723.02 172,-794 223.26,-831.68 296.16,-830.34 353.09,-822.23"/>
<polygon fill="#63b8ff" stroke="#63b8ff" points="353.39,-825.72 362.75,-820.75 352.34,-818.8 353.39,-825.72"/>
</a>
</g>
</g>
<!-- Node1&#45;&gt;Node3 -->
<g id="edge15_Node000001_Node000003" class="edge">
<title>Node1&#45;&gt;Node3</title>
<g id="a_edge15_Node000001_Node000003"><a xlink:title=" ">
<path fill="none" stroke="#63b8ff" d="M68.51,-506.44C67.44,-561.49 71.06,-737.8 172,-812 237.49,-860.14 338.3,-844.59 395.99,-826.92"/>
<polygon fill="#63b8ff" stroke="#63b8ff" points="396.71,-830.37 405.15,-823.96 394.56,-823.7 396.71,-830.37"/>
</a>
</g>
</g>
<!-- Node4 -->
<g id="Node000004" class="node">
<title>Node4</title>
<g id="a_Node000004"><a xlink:href="../../d3/d07/namespace_g_e_u_1_1_gui_utilities.html#a95d5f616a34dd70aca4886e546720966" target="_top" xlink:title=" ">
<polygon fill="white" stroke="#666666" points="297.12,-606 200.88,-606 200.88,-574 297.12,-574 297.12,-606"/>
<text text-anchor="start" x="208.88" y="-592.5" font-family="Helvetica,sans-Serif" font-size="10.00">GEU::GuiUtilities::</text>
<text text-anchor="middle" x="249" y="-580.5" font-family="Helvetica,sans-Serif" font-size="10.00">BeginCombo</text>
</a>
</g>
</g>
<!-- Node1&#45;&gt;Node4 -->
<g id="edge3_Node000001_Node000004" class="edge">
<title>Node1&#45;&gt;Node4</title>
<g id="a_edge3_Node000001_Node000004"><a xlink:title=" ">
<path fill="none" stroke="#63b8ff" d="M87.56,-506.3C107.33,-522.96 140.11,-548.66 172,-565 177.7,-567.92 183.82,-570.6 190.01,-573.03"/>
<polygon fill="#63b8ff" stroke="#63b8ff" points="188.43,-576.18 199.03,-576.36 190.86,-569.62 188.43,-576.18"/>
</a>
</g>
</g>
<!-- Node6 -->
<g id="Node000006" class="node">
<title>Node6</title>
<g id="a_Node000006"><a xlink:href="../../d3/d07/namespace_g_e_u_1_1_gui_utilities.html#a76a49056660c5a9246a94564afbb676a" target="_top" xlink:title=" ">
<polygon fill="white" stroke="#666666" points="499.12,-553 384.12,-553 384.12,-533 499.12,-533 499.12,-553"/>
<text text-anchor="middle" x="441.62" y="-539.5" font-family="Helvetica,sans-Serif" font-size="10.00">GEU::GuiUtilities::Text</text>
</a>
</g>
</g>
<!-- Node1&#45;&gt;Node6 -->
<g id="edge38_Node000001_Node000006" class="edge">
<title>Node1&#45;&gt;Node6</title>
<g id="a_edge38_Node000001_Node000006"><a xlink:title=" ">
<path fill="none" stroke="#63b8ff" d="M119.92,-473.58C172.64,-459.22 256.81,-443.69 326,-465 363.87,-476.66 400.44,-505.59 421.72,-524.74"/>
<polygon fill="#63b8ff" stroke="#63b8ff" points="419.29,-527.26 429,-531.49 424.05,-522.13 419.29,-527.26"/>
</a>
</g>
</g>
<!-- Node7 -->
<g id="Node000007" class="node">
<title>Node7</title>
<g id="a_Node000007"><a xlink:href="../../d3/d07/namespace_g_e_u_1_1_gui_utilities.html#a4a9fd6dae16881311edd3998ece123bf" target="_top" xlink:title=" ">
<polygon fill="white" stroke="#666666" points="297.12,-380 200.88,-380 200.88,-348 297.12,-348 297.12,-380"/>
<text text-anchor="start" x="208.88" y="-366.5" font-family="Helvetica,sans-Serif" font-size="10.00">GEU::GuiUtilities::</text>
<text text-anchor="middle" x="249" y="-354.5" font-family="Helvetica,sans-Serif" font-size="10.00">Button</text>
</a>
</g>
</g>
<!-- Node1&#45;&gt;Node7 -->
<g id="edge6_Node000001_Node000007" class="edge">
<title>Node1&#45;&gt;Node7</title>
<g id="a_edge6_Node000001_Node000007"><a xlink:title=" ">
<path fill="none" stroke="#63b8ff" d="M82.86,-473.75C101.38,-452.89 136.03,-416.7 172,-394 177.61,-390.46 183.71,-387.21 189.92,-384.27"/>
<polygon fill="#63b8ff" stroke="#63b8ff" points="191.33,-387.47 199.06,-380.21 188.5,-381.07 191.33,-387.47"/>
</a>
</g>
</g>
<!-- Node8 -->
<g id="Node000008" class="node">
<title>Node8</title>
<g id="a_Node000008"><a xlink:href="../../d3/d07/namespace_g_e_u_1_1_gui_utilities.html#a8cd6e1ec53dc192ed4c4d3867e35edc7" target="_top" xlink:title=" ">
<polygon fill="white" stroke="#666666" points="297.12,-330 200.88,-330 200.88,-298 297.12,-298 297.12,-330"/>
<text text-anchor="start" x="208.88" y="-316.5" font-family="Helvetica,sans-Serif" font-size="10.00">GEU::GuiUtilities::</text>
<text text-anchor="middle" x="249" y="-304.5" font-family="Helvetica,sans-Serif" font-size="10.00">Checkbox</text>
</a>
</g>
</g>
<!-- Node1&#45;&gt;Node8 -->
<g id="edge7_Node000001_Node000008" class="edge">
<title>Node1&#45;&gt;Node8</title>
<g id="a_edge7_Node000001_Node000008"><a xlink:title=" ">
<path fill="none" stroke="#63b8ff" d="M75.75,-473.76C89.37,-442.95 123.06,-375.82 172,-339 177.54,-334.84 183.8,-331.34 190.3,-328.42"/>
<polygon fill="#63b8ff" stroke="#63b8ff" points="191.24,-331.81 199.22,-324.85 188.64,-325.32 191.24,-331.81"/>
</a>
</g>
</g>
<!-- Node9 -->
<g id="Node000009" class="node">
<title>Node9</title>
<g id="a_Node000009"><a xlink:href="../../d3/d07/namespace_g_e_u_1_1_gui_utilities.html#a7e5f58fc1e47794679b999cd5778b7aa" target="_top" xlink:title=" ">
<polygon fill="white" stroke="#666666" points="297.12,-280 200.88,-280 200.88,-248 297.12,-248 297.12,-280"/>
<text text-anchor="start" x="208.88" y="-266.5" font-family="Helvetica,sans-Serif" font-size="10.00">GEU::GuiUtilities::</text>
<text text-anchor="middle" x="249" y="-254.5" font-family="Helvetica,sans-Serif" font-size="10.00">CollapsingHeader</text>
</a>
</g>
</g>
<!-- Node1&#45;&gt;Node9 -->
<g id="edge8_Node000001_Node000009" class="edge">
<title>Node1&#45;&gt;Node9</title>
<g id="a_edge8_Node000001_Node000009"><a xlink:title=" ">
<path fill="none" stroke="#63b8ff" d="M72.85,-473.53C82.62,-435.39 111.95,-340.35 172,-289 177.33,-284.44 183.52,-280.7 190.02,-277.65"/>
<polygon fill="#63b8ff" stroke="#63b8ff" points="191.09,-280.99 199.01,-273.95 188.43,-274.52 191.09,-280.99"/>
</a>
</g>
</g>
<!-- Node10 -->
<g id="Node000010" class="node">
<title>Node10</title>
<g id="a_Node000010"><a xlink:href="../../d3/d07/namespace_g_e_u_1_1_gui_utilities.html#a4f9aba226510ff3f6ddea45d86ae482d" target="_top" xlink:title=" ">
<polygon fill="white" stroke="#666666" points="297.12,-506 200.88,-506 200.88,-474 297.12,-474 297.12,-506"/>
<text text-anchor="start" x="208.88" y="-492.5" font-family="Helvetica,sans-Serif" font-size="10.00">GEU::GuiUtilities::</text>
<text text-anchor="middle" x="249" y="-480.5" font-family="Helvetica,sans-Serif" font-size="10.00">Combo</text>
</a>
</g>
</g>
<!-- Node1&#45;&gt;Node10 -->
<g id="edge9_Node000001_Node000010" class="edge">
<title>Node1&#45;&gt;Node10</title>
<g id="a_edge9_Node000001_Node000010"><a xlink:title=" ">
<path fill="none" stroke="#63b8ff" d="M136.42,-490C153.73,-490 172.22,-490 189.06,-490"/>
<polygon fill="#63b8ff" stroke="#63b8ff" points="188.92,-493.5 198.92,-490 188.92,-486.5 188.92,-493.5"/>
</a>
</g>
</g>
<!-- Node11 -->
<g id="Node000011" class="node">
<title>Node11</title>
<g id="a_Node000011"><a xlink:href="../../d3/d07/namespace_g_e_u_1_1_gui_utilities.html#ab5bd8ee6ec7674dc502b5330d41beadf" target="_top" xlink:title=" ">
<polygon fill="white" stroke="#666666" points="489.75,-465 393.5,-465 393.5,-433 489.75,-433 489.75,-465"/>
<text text-anchor="start" x="401.5" y="-451.5" font-family="Helvetica,sans-Serif" font-size="10.00">GEU::GuiUtilities::</text>
<text text-anchor="middle" x="441.62" y="-439.5" font-family="Helvetica,sans-Serif" font-size="10.00">Selectable</text>
</a>
</g>
</g>
<!-- Node1&#45;&gt;Node11 -->
<g id="edge31_Node000001_Node000011" class="edge">
<title>Node1&#45;&gt;Node11</title>
<g id="a_edge31_Node000001_Node000011"><a xlink:title=" ">
<path fill="none" stroke="#63b8ff" d="M90.46,-473.53C110.37,-459.38 141.43,-440.02 172,-432 242.62,-413.48 327.1,-423.9 382.21,-434.83"/>
<polygon fill="#63b8ff" stroke="#63b8ff" points="381.19,-438.19 391.69,-436.78 382.6,-431.34 381.19,-438.19"/>
</a>
</g>
</g>
<!-- Node12 -->
<g id="Node000012" class="node">
<title>Node12</title>
<g id="a_Node000012"><a xlink:href="../../de/d04/class_g_e_u_1_1_renderer.html#af5f4307b5eba7c09888765c183a75213" target="_top" xlink:title=" ">
<polygon fill="white" stroke="#666666" points="312.88,-230 185.12,-230 185.12,-198 312.88,-198 312.88,-230"/>
<text text-anchor="start" x="193.12" y="-216.5" font-family="Helvetica,sans-Serif" font-size="10.00">GEU::Renderer::getActive</text>
<text text-anchor="middle" x="249" y="-204.5" font-family="Helvetica,sans-Serif" font-size="10.00">Scene</text>
</a>
</g>
</g>
<!-- Node1&#45;&gt;Node12 -->
<g id="edge13_Node000001_Node000012" class="edge">
<title>Node1&#45;&gt;Node12</title>
<g id="a_edge13_Node000001_Node000012"><a xlink:title=" ">
<path fill="none" stroke="#63b8ff" d="M70.99,-473.56C77.22,-429.14 100.46,-305.59 172,-239 173.09,-237.99 174.21,-237.02 175.38,-236.09"/>
<polygon fill="#63b8ff" stroke="#63b8ff" points="177.31,-239 183.67,-230.53 173.42,-233.19 177.31,-239"/>
</a>
</g>
</g>
<!-- Node13 -->
<g id="Node000013" class="node">
<title>Node13</title>
<g id="a_Node000013"><a xlink:href="../../d3/d07/namespace_g_e_u_1_1_gui_utilities.html#a776427878fe3898a385f3ee794bdc183" target="_top" xlink:title=" ">
<polygon fill="white" stroke="#666666" points="297.12,-556 200.88,-556 200.88,-524 297.12,-524 297.12,-556"/>
<text text-anchor="start" x="208.88" y="-542.5" font-family="Helvetica,sans-Serif" font-size="10.00">GEU::GuiUtilities::</text>
<text text-anchor="middle" x="249" y="-530.5" font-family="Helvetica,sans-Serif" font-size="10.00">InputInt</text>
</a>
</g>
</g>
<!-- Node1&#45;&gt;Node13 -->
<g id="edge16_Node000001_Node000013" class="edge">
<title>Node1&#45;&gt;Node13</title>
<g id="a_edge16_Node000001_Node000013"><a xlink:title=" ">
<path fill="none" stroke="#63b8ff" d="M127.61,-506.37C147.48,-511.92 169.66,-518.12 189.52,-523.66"/>
<polygon fill="#63b8ff" stroke="#63b8ff" points="188.56,-527.03 199.13,-526.35 190.44,-520.29 188.56,-527.03"/>
</a>
</g>
</g>
<!-- Node14 -->
<g id="Node000014" class="node">
<title>Node14</title>
<g id="a_Node000014"><a xlink:href="../../d3/d07/namespace_g_e_u_1_1_gui_utilities.html#a0c8f0f5af8119c36fa703bc2ed301bde" target="_top" xlink:title=" ">
<polygon fill="white" stroke="#666666" points="297.12,-706 200.88,-706 200.88,-674 297.12,-674 297.12,-706"/>
<text text-anchor="start" x="208.88" y="-692.5" font-family="Helvetica,sans-Serif" font-size="10.00">GEU::GuiUtilities::</text>
<text text-anchor="middle" x="249" y="-680.5" font-family="Helvetica,sans-Serif" font-size="10.00">InputText</text>
</a>
</g>
</g>
<!-- Node1&#45;&gt;Node14 -->
<g id="edge19_Node000001_Node000014" class="edge">
<title>Node1&#45;&gt;Node14</title>
<g id="a_edge19_Node000001_Node000014"><a xlink:title=" ">
<path fill="none" stroke="#63b8ff" d="M74.18,-506.39C85.92,-540.87 117.79,-621.31 172,-665 177.47,-669.4 183.73,-673.04 190.28,-676.05"/>
<polygon fill="#63b8ff" stroke="#63b8ff" points="188.72,-679.19 199.3,-679.7 191.34,-672.71 188.72,-679.19"/>
</a>
</g>
</g>
<!-- Node15 -->
<g id="Node000015" class="node">
<title>Node15</title>
<g id="a_Node000015"><a xlink:href="../../dd/d01/class_g_e_u_1_1_file_manager.html#aeffefc58937066d086f5ee5e86a05ef9" target="_top" xlink:title=" ">
<polygon fill="white" stroke="#666666" points="321.12,-180 176.88,-180 176.88,-148 321.12,-148 321.12,-180"/>
<text text-anchor="start" x="184.88" y="-166.5" font-family="Helvetica,sans-Serif" font-size="10.00">GEU::FileManager::savePoint</text>
<text text-anchor="middle" x="249" y="-154.5" font-family="Helvetica,sans-Serif" font-size="10.00">Cloud</text>
</a>
</g>
</g>
<!-- Node1&#45;&gt;Node15 -->
<g id="edge22_Node000001_Node000015" class="edge">
<title>Node1&#45;&gt;Node15</title>
<g id="a_edge22_Node000001_Node000015"><a xlink:title=" ">
<path fill="none" stroke="#63b8ff" d="M69.7,-473.67C72.73,-423.71 88.71,-271.3 172,-189 172.73,-188.27 173.49,-187.57 174.27,-186.88"/>
<polygon fill="#63b8ff" stroke="#63b8ff" points="176.03,-189.93 182.02,-181.2 171.89,-184.29 176.03,-189.93"/>
</a>
</g>
</g>
<!-- Node24 -->
<g id="Node000024" class="node">
<title>Node24</title>
<g id="a_Node000024"><a xlink:href="../../d3/d07/namespace_g_e_u_1_1_gui_utilities.html#a53c90c750a8eb5e46a4bfe151918078e" target="_top" xlink:title=" ">
<polygon fill="white" stroke="#666666" points="305.75,-756 192.25,-756 192.25,-724 305.75,-724 305.75,-756"/>
<text text-anchor="start" x="200.25" y="-742.5" font-family="Helvetica,sans-Serif" font-size="10.00">GEU::GuiUtilities::</text>
<text text-anchor="middle" x="249" y="-730.5" font-family="Helvetica,sans-Serif" font-size="10.00">setNextTableItemAlign</text>
</a>
</g>
</g>
<!-- Node1&#45;&gt;Node24 -->
<g id="edge32_Node000001_Node000024" class="edge">
<title>Node1&#45;&gt;Node24</title>
<g id="a_edge32_Node000001_Node000024"><a xlink:title=" ">
<path fill="none" stroke="#63b8ff" d="M71.82,-506.24C79.79,-547.33 106.35,-656.29 172,-715 175.08,-717.75 178.47,-720.21 182.06,-722.39"/>
<polygon fill="#63b8ff" stroke="#63b8ff" points="180.11,-725.32 190.59,-726.86 183.36,-719.12 180.11,-725.32"/>
</a>
</g>
</g>
<!-- Node25 -->
<g id="Node000025" class="node">
<title>Node25</title>
<g id="a_Node000025"><a xlink:href="../../de/d06/class_g_e_u_1_1_g_u_i.html#a0c291604f18b399dac7ad8388ce99c2c" target="_top" xlink:title=" ">
<polygon fill="white" stroke="#666666" points="318.12,-130 179.88,-130 179.88,-110 318.12,-110 318.12,-130"/>
<text text-anchor="middle" x="249" y="-116.5" font-family="Helvetica,sans-Serif" font-size="10.00">GEU::GUI::setPickingTarget</text>
</a>
</g>
</g>
<!-- Node1&#45;&gt;Node25 -->
<g id="edge34_Node000001_Node000025" class="edge">
<title>Node1&#45;&gt;Node25</title>
<g id="a_edge34_Node000001_Node000025"><a xlink:title=" ">
<path fill="none" stroke="#63b8ff" d="M68.51,-473.54C67.78,-417.72 73.29,-233.8 172,-139 172.77,-138.26 173.57,-137.54 174.39,-136.86"/>
<polygon fill="#63b8ff" stroke="#63b8ff" points="176.3,-139.79 182.65,-131.31 172.4,-133.98 176.3,-139.79"/>
</a>
</g>
</g>
<!-- Node26 -->
<g id="Node000026" class="node">
<title>Node26</title>
<g id="a_Node000026"><a xlink:href="../../d3/d07/namespace_g_e_u_1_1_gui_utilities.html#a6f3cbc6ade0d6aac130d1179806fa56c" target="_top" xlink:title=" ">
<polygon fill="white" stroke="#666666" points="297.12,-656 200.88,-656 200.88,-624 297.12,-624 297.12,-656"/>
<text text-anchor="start" x="208.88" y="-642.5" font-family="Helvetica,sans-Serif" font-size="10.00">GEU::GuiUtilities::</text>
<text text-anchor="middle" x="249" y="-630.5" font-family="Helvetica,sans-Serif" font-size="10.00">SliderInt</text>
</a>
</g>
</g>
<!-- Node1&#45;&gt;Node26 -->
<g id="edge35_Node000001_Node000026" class="edge">
<title>Node1&#45;&gt;Node26</title>
<g id="a_edge35_Node000001_Node000026"><a xlink:title=" ">
<path fill="none" stroke="#63b8ff" d="M78.21,-506.31C94.02,-532.87 128.82,-585.48 172,-615 177.64,-618.86 183.93,-622.16 190.39,-624.97"/>
<polygon fill="#63b8ff" stroke="#63b8ff" points="188.65,-628.04 199.24,-628.44 191.21,-621.53 188.65,-628.04"/>
</a>
</g>
</g>
<!-- Node2&#45;&gt;Node3 -->
<g id="edge2_Node000002_Node000003" class="edge">
<title>Node2&#45;&gt;Node3</title>
<g id="a_edge2_Node000002_Node000003"><a xlink:title=" ">
<path fill="none" stroke="#63b8ff" d="M326.44,-793.22C335.18,-794.28 344.14,-795.36 353.01,-796.43"/>
<polygon fill="#63b8ff" stroke="#63b8ff" points="352.32,-799.87 362.67,-797.59 353.16,-792.92 352.32,-799.87"/>
</a>
</g>
</g>
<!-- Node5 -->
<g id="Node000005" class="node">
<title>Node5</title>
<g id="a_Node000005"><a xlink:href="../../d3/d07/namespace_g_e_u_1_1_gui_utilities.html#a93d270e10057bb4a04b130a9e20301e2" target="_top" xlink:title=" ">
<polygon fill="white" stroke="#666666" points="492,-606 391.25,-606 391.25,-574 492,-574 492,-606"/>
<text text-anchor="start" x="399.25" y="-592.5" font-family="Helvetica,sans-Serif" font-size="10.00">GEU::GuiUtilities::</text>
<text text-anchor="middle" x="441.62" y="-580.5" font-family="Helvetica,sans-Serif" font-size="10.00">NextItemFillColumn</text>
</a>
</g>
</g>
<!-- Node4&#45;&gt;Node5 -->
<g id="edge4_Node000004_Node000005" class="edge">
<title>Node4&#45;&gt;Node5</title>
<g id="a_edge4_Node000004_Node000005"><a xlink:title=" ">
<path fill="none" stroke="#63b8ff" d="M297.61,-590C322.39,-590 352.98,-590 379.49,-590"/>
<polygon fill="#63b8ff" stroke="#63b8ff" points="379.45,-593.5 389.45,-590 379.45,-586.5 379.45,-593.5"/>
</a>
</g>
</g>
<!-- Node4&#45;&gt;Node6 -->
<g id="edge5_Node000004_Node000006" class="edge">
<title>Node4&#45;&gt;Node6</title>
<g id="a_edge5_Node000004_Node000006"><a xlink:title=" ">
<path fill="none" stroke="#63b8ff" d="M297.61,-578.26C324.87,-571.54 359.14,-563.09 387.3,-556.15"/>
<polygon fill="#63b8ff" stroke="#63b8ff" points="387.82,-559.62 396.69,-553.83 386.15,-552.83 387.82,-559.62"/>
</a>
</g>
</g>
<!-- Node10&#45;&gt;Node5 -->
<g id="edge10_Node000010_Node000005" class="edge">
<title>Node10&#45;&gt;Node5</title>
<g id="a_edge10_Node000010_Node000005"><a xlink:title=" ">
<path fill="none" stroke="#63b8ff" d="M297.51,-500.77C307.47,-504.33 317.51,-508.97 326,-515 347.45,-530.23 340.73,-546.51 362,-562 367.69,-566.14 374.05,-569.72 380.62,-572.8"/>
<polygon fill="#63b8ff" stroke="#63b8ff" points="379.09,-575.95 389.66,-576.65 381.83,-569.51 379.09,-575.95"/>
</a>
</g>
</g>
<!-- Node10&#45;&gt;Node6 -->
<g id="edge12_Node000010_Node000006" class="edge">
<title>Node10&#45;&gt;Node6</title>
<g id="a_edge12_Node000010_Node000006"><a xlink:title=" ">
<path fill="none" stroke="#63b8ff" d="M297.61,-503.24C326.33,-511.22 362.83,-521.37 391.77,-529.42"/>
<polygon fill="#63b8ff" stroke="#63b8ff" points="390.83,-532.79 401.4,-532.1 392.71,-526.04 390.83,-532.79"/>
</a>
</g>
</g>
<!-- Node10&#45;&gt;Node11 -->
<g id="edge11_Node000010_Node000011" class="edge">
<title>Node10&#45;&gt;Node11</title>
<g id="a_edge11_Node000010_Node000011"><a xlink:title=" ">
<path fill="none" stroke="#63b8ff" d="M297.61,-479.76C323.3,-474.24 355.21,-467.37 382.37,-461.53"/>
<polygon fill="#63b8ff" stroke="#63b8ff" points="382.77,-465.02 391.81,-459.5 381.3,-458.18 382.77,-465.02"/>
</a>
</g>
</g>
<!-- Node13&#45;&gt;Node5 -->
<g id="edge17_Node000013_Node000005" class="edge">
<title>Node13&#45;&gt;Node5</title>
<g id="a_edge17_Node000013_Node000005"><a xlink:title=" ">
<path fill="none" stroke="#63b8ff" d="M297.61,-552.49C322.51,-559.02 353.25,-567.08 379.85,-574.06"/>
<polygon fill="#63b8ff" stroke="#63b8ff" points="378.94,-577.44 389.5,-576.59 380.71,-570.67 378.94,-577.44"/>
</a>
</g>
</g>
<!-- Node13&#45;&gt;Node6 -->
<g id="edge18_Node000013_Node000006" class="edge">
<title>Node13&#45;&gt;Node6</title>
<g id="a_edge18_Node000013_Node000006"><a xlink:title=" ">
<path fill="none" stroke="#63b8ff" d="M297.61,-540.75C320.28,-541.11 347.79,-541.54 372.61,-541.93"/>
<polygon fill="#63b8ff" stroke="#63b8ff" points="372.22,-545.42 382.28,-542.08 372.33,-538.42 372.22,-545.42"/>
</a>
</g>
</g>
<!-- Node14&#45;&gt;Node5 -->
<g id="edge20_Node000014_Node000005" class="edge">
<title>Node14&#45;&gt;Node5</title>
<g id="a_edge20_Node000014_Node000005"><a xlink:title=" ">
<path fill="none" stroke="#63b8ff" d="M297.38,-676.54C307.03,-673.21 316.99,-669.34 326,-665 356.19,-650.47 387.86,-629.22 410.25,-613.05"/>
<polygon fill="#63b8ff" stroke="#63b8ff" points="412.02,-616.09 418.02,-607.35 407.88,-610.44 412.02,-616.09"/>
</a>
</g>
</g>
<!-- Node14&#45;&gt;Node6 -->
<g id="edge21_Node000014_Node000006" class="edge">
<title>Node14&#45;&gt;Node6</title>
<g id="a_edge21_Node000014_Node000006"><a xlink:title=" ">
<path fill="none" stroke="#63b8ff" d="M297.47,-681.64C307.89,-677.96 318.13,-672.65 326,-665 359.86,-632.07 327.41,-597.17 362,-565 365.5,-561.74 369.45,-558.96 373.66,-556.59"/>
<polygon fill="#63b8ff" stroke="#63b8ff" points="374.97,-559.84 382.52,-552.4 371.98,-553.51 374.97,-559.84"/>
</a>
</g>
</g>
<!-- Node16 -->
<g id="Node000016" class="node">
<title>Node16</title>
<g id="a_Node000016"><a xlink:href="../../d4/d07/class_g_e_u_1_1_point_cloud.html#a26d29dd70f64699d185d8a414af193af" target="_top" xlink:title=" ">
<polygon fill="white" stroke="#666666" points="515.25,-158 368,-158 368,-126 515.25,-126 515.25,-158"/>
<text text-anchor="start" x="376" y="-144.5" font-family="Helvetica,sans-Serif" font-size="10.00">GEU::PointCloud::DataSource</text>
<text text-anchor="middle" x="441.62" y="-132.5" font-family="Helvetica,sans-Serif" font-size="10.00">ToString</text>
</a>
</g>
</g>
<!-- Node15&#45;&gt;Node16 -->
<g id="edge23_Node000015_Node000016" class="edge">
<title>Node15&#45;&gt;Node16</title>
<g id="a_edge23_Node000015_Node000016"><a xlink:title=" ">
<path fill="none" stroke="#63b8ff" d="M321.52,-155.75C332.97,-154.42 344.91,-153.05 356.62,-151.7"/>
<polygon fill="#63b8ff" stroke="#63b8ff" points="356.71,-155.21 366.24,-150.58 355.91,-148.25 356.71,-155.21"/>
</a>
</g>
</g>
<!-- Node17 -->
<g id="Node000017" class="node">
<title>Node17</title>
<g id="a_Node000017"><a xlink:href="../../d4/d07/class_g_e_u_1_1_point_cloud.html#a43ffde28d37969acf958dd4cd10e28ca" target="_top" xlink:title=" ">
<polygon fill="white" stroke="#666666" points="521.25,-108 362,-108 362,-88 521.25,-88 521.25,-108"/>
<text text-anchor="middle" x="441.62" y="-94.5" font-family="Helvetica,sans-Serif" font-size="10.00">GEU::PointCloud::getFusionData</text>
</a>
</g>
</g>
<!-- Node15&#45;&gt;Node17 -->
<g id="edge24_Node000015_Node000017" class="edge">
<title>Node15&#45;&gt;Node17</title>
<g id="a_edge24_Node000015_Node000017"><a xlink:title=" ">
<path fill="none" stroke="#63b8ff" d="M304.97,-147.6C312.15,-144.97 319.32,-142.09 326,-139 343.02,-131.13 344.68,-124.18 362,-117 366.65,-115.07 371.54,-113.31 376.51,-111.71"/>
<polygon fill="#63b8ff" stroke="#63b8ff" points="377.42,-115.09 386.01,-108.89 375.43,-108.38 377.42,-115.09"/>
</a>
</g>
</g>
<!-- Node18 -->
<g id="Node000018" class="node">
<title>Node18</title>
<g id="a_Node000018"><a xlink:href="../../d4/d07/class_g_e_u_1_1_point_cloud.html#af0b00f0dfca52b32562dd5f82b483933" target="_top" xlink:title=" ">
<polygon fill="white" stroke="#666666" points="514.5,-70 368.75,-70 368.75,-50 514.5,-50 514.5,-70"/>
<text text-anchor="middle" x="441.62" y="-56.5" font-family="Helvetica,sans-Serif" font-size="10.00">GEU::PointCloud::getNormals</text>
</a>
</g>
</g>
<!-- Node15&#45;&gt;Node18 -->
<g id="edge25_Node000015_Node000018" class="edge">
<title>Node15&#45;&gt;Node18</title>
<g id="a_edge25_Node000015_Node000018"><a xlink:title=" ">
<path fill="none" stroke="#63b8ff" d="M312.5,-147.66C317.3,-145.16 321.88,-142.29 326,-139 350.3,-119.59 336.94,-97.42 362,-79 363.59,-77.83 365.25,-76.73 366.96,-75.69"/>
<polygon fill="#63b8ff" stroke="#63b8ff" points="368.54,-78.82 375.87,-71.17 365.37,-72.58 368.54,-78.82"/>
</a>
</g>
</g>
<!-- Node19 -->
<g id="Node000019" class="node">
<title>Node19</title>
<g id="a_Node000019"><a xlink:href="../../d4/d07/class_g_e_u_1_1_point_cloud.html#a625fb08a6c25d83a989e9404c1ba905a" target="_top" xlink:title=" ">
<polygon fill="white" stroke="#666666" points="513.38,-32 369.88,-32 369.88,0 513.38,0 513.38,-32"/>
<text text-anchor="start" x="377.88" y="-18.5" font-family="Helvetica,sans-Serif" font-size="10.00">GEU::PointCloud::getNumber</text>
<text text-anchor="middle" x="441.62" y="-6.5" font-family="Helvetica,sans-Serif" font-size="10.00">OfPoints</text>
</a>
</g>
</g>
<!-- Node15&#45;&gt;Node19 -->
<g id="edge26_Node000015_Node000019" class="edge">
<title>Node15&#45;&gt;Node19</title>
<g id="a_edge26_Node000015_Node000019"><a xlink:title=" ">
<path fill="none" stroke="#63b8ff" d="M314.67,-147.61C318.77,-145.13 322.6,-142.28 326,-139 359.37,-106.76 328.47,-73.08 362,-41 362.75,-40.29 363.51,-39.59 364.3,-38.92"/>
<polygon fill="#63b8ff" stroke="#63b8ff" points="366.04,-41.98 372.13,-33.3 361.96,-36.29 366.04,-41.98"/>
</a>
</g>
</g>
<!-- Node20 -->
<g id="Node000020" class="node">
<title>Node20</title>
<g id="a_Node000020"><a xlink:href="../../d4/d07/class_g_e_u_1_1_point_cloud.html#a51c362a48e58352238cd5d47f3e801c6" target="_top" xlink:title=" ">
<polygon fill="white" stroke="#666666" points="510.38,-334 372.88,-334 372.88,-302 510.38,-302 510.38,-334"/>
<text text-anchor="start" x="380.88" y="-320.5" font-family="Helvetica,sans-Serif" font-size="10.00">GEU::PointCloud::getPoints</text>
<text text-anchor="middle" x="441.62" y="-308.5" font-family="Helvetica,sans-Serif" font-size="10.00">Color</text>
</a>
</g>
</g>
<!-- Node15&#45;&gt;Node20 -->
<g id="edge27_Node000015_Node000020" class="edge">
<title>Node15&#45;&gt;Node20</title>
<g id="a_edge27_Node000015_Node000020"><a xlink:title=" ">
<path fill="none" stroke="#63b8ff" d="M314.74,-180.32C318.82,-182.81 322.63,-185.69 326,-189 360.85,-223.32 326.98,-258.86 362,-293 362.74,-293.72 363.5,-294.42 364.28,-295.1"/>
<polygon fill="#63b8ff" stroke="#63b8ff" points="361.92,-297.71 372.06,-300.76 366.03,-292.05 361.92,-297.71"/>
</a>
</g>
</g>
<!-- Node21 -->
<g id="Node000021" class="node">
<title>Node21</title>
<g id="a_Node000021"><a xlink:href="../../d4/d07/class_g_e_u_1_1_point_cloud.html#a52698b429492303948167bed5da1a0d9" target="_top" xlink:title=" ">
<polygon fill="white" stroke="#666666" points="510.38,-284 372.88,-284 372.88,-252 510.38,-252 510.38,-284"/>
<text text-anchor="start" x="380.88" y="-270.5" font-family="Helvetica,sans-Serif" font-size="10.00">GEU::PointCloud::getPoints</text>
<text text-anchor="middle" x="441.62" y="-258.5" font-family="Helvetica,sans-Serif" font-size="10.00">Position</text>
</a>
</g>
</g>
<!-- Node15&#45;&gt;Node21 -->
<g id="edge28_Node000015_Node000021" class="edge">
<title>Node15&#45;&gt;Node21</title>
<g id="a_edge28_Node000015_Node000021"><a xlink:title=" ">
<path fill="none" stroke="#63b8ff" d="M311.95,-180.37C316.93,-182.86 321.69,-185.72 326,-189 348.96,-206.46 338.96,-225.65 362,-243 363.36,-244.02 364.76,-245 366.2,-245.95"/>
<polygon fill="#63b8ff" stroke="#63b8ff" points="364.41,-248.95 374.83,-250.86 367.87,-242.87 364.41,-248.95"/>
</a>
</g>
</g>
<!-- Node22 -->
<g id="Node000022" class="node">
<title>Node22</title>
<g id="a_Node000022"><a xlink:href="../../d8/d02/struct_g_e_u_1_1_v_a_o_1_1_point.html#a869b1c796dc79a8c17f4f2ffd6e6ea02" target="_top" xlink:title=" ">
<polygon fill="white" stroke="#666666" points="519.38,-234 363.88,-234 363.88,-214 519.38,-214 519.38,-234"/>
<text text-anchor="middle" x="441.62" y="-220.5" font-family="Helvetica,sans-Serif" font-size="10.00">GEU::VAO::Point::getRGBVec4</text>
</a>
</g>
</g>
<!-- Node15&#45;&gt;Node22 -->
<g id="edge29_Node000015_Node000022" class="edge">
<title>Node15&#45;&gt;Node22</title>
<g id="a_edge29_Node000015_Node000022"><a xlink:title=" ">
<path fill="none" stroke="#63b8ff" d="M302.17,-180.39C310.19,-183.13 318.35,-186.05 326,-189 342.34,-195.3 345.42,-199.36 362,-205 368.05,-207.06 374.43,-208.98 380.83,-210.76"/>
<polygon fill="#63b8ff" stroke="#63b8ff" points="379.55,-214.04 390.12,-213.21 381.34,-207.27 379.55,-214.04"/>
</a>
</g>
</g>
<!-- Node23 -->
<g id="Node000023" class="node">
<title>Node23</title>
<g id="a_Node000023"><a xlink:href="../../d4/d07/class_g_e_u_1_1_point_cloud.html#a8102776c28f1c0a601d41f59d38c03f7" target="_top" xlink:title=" ">
<polygon fill="white" stroke="#666666" points="517.5,-196 365.75,-196 365.75,-176 517.5,-176 517.5,-196"/>
<text text-anchor="middle" x="441.62" y="-182.5" font-family="Helvetica,sans-Serif" font-size="10.00">GEU::PointCloud::haveNormals</text>
</a>
</g>
</g>
<!-- Node15&#45;&gt;Node23 -->
<g id="edge30_Node000015_Node000023" class="edge">
<title>Node15&#45;&gt;Node23</title>
<g id="a_edge30_Node000015_Node000023"><a xlink:title=" ">
<path fill="none" stroke="#63b8ff" d="M321.52,-172.25C332.19,-173.49 343.28,-174.76 354.21,-176.03"/>
<polygon fill="#63b8ff" stroke="#63b8ff" points="353.68,-179.49 364.01,-177.16 354.48,-172.53 353.68,-179.49"/>
</a>
</g>
</g>
<!-- Node24&#45;&gt;Node3 -->
<g id="edge33_Node000024_Node000003" class="edge">
<title>Node24&#45;&gt;Node3</title>
<g id="a_edge33_Node000024_Node000003"><a xlink:title=" ">
<path fill="none" stroke="#63b8ff" d="M300.77,-756.44C309.21,-759.25 317.87,-762.17 326,-765 345.76,-771.87 367.31,-779.68 386.35,-786.69"/>
<polygon fill="#63b8ff" stroke="#63b8ff" points="384.92,-789.89 395.51,-790.08 387.34,-783.33 384.92,-789.89"/>
</a>
</g>
</g>
<!-- Node26&#45;&gt;Node5 -->
<g id="edge36_Node000026_Node000005" class="edge">
<title>Node26&#45;&gt;Node5</title>
<g id="a_edge36_Node000026_Node000005"><a xlink:title=" ">
<path fill="none" stroke="#63b8ff" d="M297.61,-627.51C322.51,-620.98 353.25,-612.92 379.85,-605.94"/>
<polygon fill="#63b8ff" stroke="#63b8ff" points="380.71,-609.33 389.5,-603.41 378.94,-602.56 380.71,-609.33"/>
</a>
</g>
</g>
<!-- Node26&#45;&gt;Node6 -->
<g id="edge37_Node000026_Node000006" class="edge">
<title>Node26&#45;&gt;Node6</title>
<g id="a_edge37_Node000026_Node000006"><a xlink:title=" ">
<path fill="none" stroke="#63b8ff" d="M297.25,-629.55C307.33,-625.98 317.48,-621.24 326,-615 348.09,-598.82 339.55,-580.68 362,-565 365.92,-562.26 370.18,-559.86 374.61,-557.76"/>
<polygon fill="#63b8ff" stroke="#63b8ff" points="375.89,-561.01 383.79,-553.95 373.22,-554.55 375.89,-561.01"/>
</a>
</g>
</g>
</g>
</svg>
