<?xml version="1.0" encoding="UTF-8" standalone="no"?>
<!DOCTYPE svg PUBLIC "-//W3C//DTD SVG 1.1//EN"
 "http://www.w3.org/Graphics/SVG/1.1/DTD/svg11.dtd">
<!-- Generated by graphviz version 10.0.1 (20240210.2158)
 -->
<!-- Title: GEU::DetailsWindow::makeModelItemInspector Pages: 1 -->
<svg width="470pt" height="596pt"
 viewBox="0.00 0.00 470.00 596.00" xmlns="http://www.w3.org/2000/svg" xmlns:xlink="http://www.w3.org/1999/xlink">
<g id="graph0" class="graph" transform="scale(1 1) rotate(0) translate(4 592)">
<title>GEU::DetailsWindow::makeModelItemInspector</title>
<!-- Node1 -->
<g id="Node000001" class="node">
<title>Node1</title>
<g id="a_Node000001"><a xlink:title="Renders inspector details for 3D model items.">
<polygon fill="#999999" stroke="#666666" points="130.75,-288 0,-288 0,-256 130.75,-256 130.75,-288"/>
<text text-anchor="start" x="8" y="-274.5" font-family="Helvetica,sans-Serif" font-size="10.00">GEU::DetailsWindow</text>
<text text-anchor="middle" x="65.38" y="-262.5" font-family="Helvetica,sans-Serif" font-size="10.00">::makeModelItemInspector</text>
</a>
</g>
</g>
<!-- Node2 -->
<g id="Node000002" class="node">
<title>Node2</title>
<g id="a_Node000002"><a xlink:href="../../d3/d07/namespace_g_e_u_1_1_gui_utilities.html#a4a9fd6dae16881311edd3998ece123bf" target="_top" xlink:title=" ">
<polygon fill="white" stroke="#666666" points="278.75,-588 182.5,-588 182.5,-556 278.75,-556 278.75,-588"/>
<text text-anchor="start" x="190.5" y="-574.5" font-family="Helvetica,sans-Serif" font-size="10.00">GEU::GuiUtilities::</text>
<text text-anchor="middle" x="230.62" y="-562.5" font-family="Helvetica,sans-Serif" font-size="10.00">Button</text>
</a>
</g>
</g>
<!-- Node1&#45;&gt;Node2 -->
<g id="edge1_Node000001_Node000002" class="edge">
<title>Node1&#45;&gt;Node2</title>
<g id="a_edge1_Node000001_Node000002"><a xlink:title=" ">
<path fill="none" stroke="#63b8ff" d="M67.76,-288.37C72.57,-335.09 92.54,-470.65 166.75,-547 168.55,-548.85 170.5,-550.56 172.56,-552.15"/>
<polygon fill="#63b8ff" stroke="#63b8ff" points="170.64,-555.08 180.95,-557.55 174.43,-549.19 170.64,-555.08"/>
</a>
</g>
</g>
<!-- Node3 -->
<g id="Node000003" class="node">
<title>Node3</title>
<g id="a_Node000003"><a xlink:href="../../d3/d07/namespace_g_e_u_1_1_gui_utilities.html#a8cd6e1ec53dc192ed4c4d3867e35edc7" target="_top" xlink:title=" ">
<polygon fill="white" stroke="#666666" points="278.75,-538 182.5,-538 182.5,-506 278.75,-506 278.75,-538"/>
<text text-anchor="start" x="190.5" y="-524.5" font-family="Helvetica,sans-Serif" font-size="10.00">GEU::GuiUtilities::</text>
<text text-anchor="middle" x="230.62" y="-512.5" font-family="Helvetica,sans-Serif" font-size="10.00">Checkbox</text>
</a>
</g>
</g>
<!-- Node1&#45;&gt;Node3 -->
<g id="edge2_Node000001_Node000003" class="edge">
<title>Node1&#45;&gt;Node3</title>
<g id="a_edge2_Node000001_Node000003"><a xlink:title=" ">
<path fill="none" stroke="#63b8ff" d="M69.26,-288.3C77.31,-329.05 103.64,-436.43 166.75,-497 168.57,-498.75 170.54,-500.38 172.6,-501.91"/>
<polygon fill="#63b8ff" stroke="#63b8ff" points="170.57,-504.77 180.91,-507.1 174.28,-498.83 170.57,-504.77"/>
</a>
</g>
</g>
<!-- Node4 -->
<g id="Node000004" class="node">
<title>Node4</title>
<g id="a_Node000004"><a xlink:href="../../d3/d07/namespace_g_e_u_1_1_gui_utilities.html#a7e5f58fc1e47794679b999cd5778b7aa" target="_top" xlink:title=" ">
<polygon fill="white" stroke="#666666" points="278.75,-488 182.5,-488 182.5,-456 278.75,-456 278.75,-488"/>
<text text-anchor="start" x="190.5" y="-474.5" font-family="Helvetica,sans-Serif" font-size="10.00">GEU::GuiUtilities::</text>
<text text-anchor="middle" x="230.62" y="-462.5" font-family="Helvetica,sans-Serif" font-size="10.00">CollapsingHeader</text>
</a>
</g>
</g>
<!-- Node1&#45;&gt;Node4 -->
<g id="edge3_Node000001_Node000004" class="edge">
<title>Node1&#45;&gt;Node4</title>
<g id="a_edge3_Node000001_Node000004"><a xlink:title=" ">
<path fill="none" stroke="#63b8ff" d="M71.6,-288.4C83.28,-322.54 114.62,-401.8 166.75,-447 168.63,-448.63 170.62,-450.15 172.7,-451.59"/>
<polygon fill="#63b8ff" stroke="#63b8ff" points="170.59,-454.41 180.97,-456.52 174.18,-448.39 170.59,-454.41"/>
</a>
</g>
</g>
<!-- Node5 -->
<g id="Node000005" class="node">
<title>Node5</title>
<g id="a_Node000005"><a xlink:href="../../d3/d07/namespace_g_e_u_1_1_gui_utilities.html#a4f9aba226510ff3f6ddea45d86ae482d" target="_top" xlink:title=" ">
<polygon fill="white" stroke="#666666" points="278.75,-438 182.5,-438 182.5,-406 278.75,-406 278.75,-438"/>
<text text-anchor="start" x="190.5" y="-424.5" font-family="Helvetica,sans-Serif" font-size="10.00">GEU::GuiUtilities::</text>
<text text-anchor="middle" x="230.62" y="-412.5" font-family="Helvetica,sans-Serif" font-size="10.00">Combo</text>
</a>
</g>
</g>
<!-- Node1&#45;&gt;Node5 -->
<g id="edge4_Node000001_Node000005" class="edge">
<title>Node1&#45;&gt;Node5</title>
<g id="a_edge4_Node000001_Node000005"><a xlink:title=" ">
<path fill="none" stroke="#63b8ff" d="M75.7,-288.45C91.36,-314.75 125.34,-366.4 166.75,-397 168.52,-398.31 170.37,-399.56 172.28,-400.76"/>
<polygon fill="#63b8ff" stroke="#63b8ff" points="170.42,-403.73 180.86,-405.53 173.83,-397.61 170.42,-403.73"/>
</a>
</g>
</g>
<!-- Node9 -->
<g id="Node000009" class="node">
<title>Node9</title>
<g id="a_Node000009"><a xlink:href="../../de/d04/class_g_e_u_1_1_renderer.html#af5f4307b5eba7c09888765c183a75213" target="_top" xlink:title=" ">
<polygon fill="white" stroke="#666666" points="294.5,-388 166.75,-388 166.75,-356 294.5,-356 294.5,-388"/>
<text text-anchor="start" x="174.75" y="-374.5" font-family="Helvetica,sans-Serif" font-size="10.00">GEU::Renderer::getActive</text>
<text text-anchor="middle" x="230.62" y="-362.5" font-family="Helvetica,sans-Serif" font-size="10.00">Scene</text>
</a>
</g>
</g>
<!-- Node1&#45;&gt;Node9 -->
<g id="edge8_Node000001_Node000009" class="edge">
<title>Node1&#45;&gt;Node9</title>
<g id="a_edge8_Node000001_Node000009"><a xlink:title=" ">
<path fill="none" stroke="#63b8ff" d="M84.96,-288.25C104.36,-304.64 136.19,-329.9 166.75,-347 168.96,-348.23 171.24,-349.44 173.56,-350.61"/>
<polygon fill="#63b8ff" stroke="#63b8ff" points="172.06,-353.77 182.6,-354.86 175.04,-347.44 172.06,-353.77"/>
</a>
</g>
</g>
<!-- Node10 -->
<g id="Node000010" class="node">
<title>Node10</title>
<g id="a_Node000010"><a xlink:href="../../d8/d05/class_g_e_u_1_1_material_list.html#ad6d2a1664119ab7e1e93caa28f69c170" target="_top" xlink:title=" ">
<polygon fill="white" stroke="#666666" points="280.25,-338 181,-338 181,-306 280.25,-306 280.25,-338"/>
<text text-anchor="start" x="189" y="-324.5" font-family="Helvetica,sans-Serif" font-size="10.00">GEU::MaterialList::</text>
<text text-anchor="middle" x="230.62" y="-312.5" font-family="Helvetica,sans-Serif" font-size="10.00">getBegin</text>
</a>
</g>
</g>
<!-- Node1&#45;&gt;Node10 -->
<g id="edge9_Node000001_Node000010" class="edge">
<title>Node1&#45;&gt;Node10</title>
<g id="a_edge9_Node000001_Node000010"><a xlink:title=" ">
<path fill="none" stroke="#63b8ff" d="M119.83,-288.37C135.92,-293.3 153.69,-298.74 170.15,-303.78"/>
<polygon fill="#63b8ff" stroke="#63b8ff" points="168.71,-307 179.3,-306.59 170.76,-300.31 168.71,-307"/>
</a>
</g>
</g>
<!-- Node11 -->
<g id="Node000011" class="node">
<title>Node11</title>
<g id="a_Node000011"><a xlink:href="../../d8/d05/class_g_e_u_1_1_material_list.html#a046fac4bb0e03659ab2a9e29bb15f490" target="_top" xlink:title=" ">
<polygon fill="white" stroke="#666666" points="280.25,-288 181,-288 181,-256 280.25,-256 280.25,-288"/>
<text text-anchor="start" x="189" y="-274.5" font-family="Helvetica,sans-Serif" font-size="10.00">GEU::MaterialList::</text>
<text text-anchor="middle" x="230.62" y="-262.5" font-family="Helvetica,sans-Serif" font-size="10.00">getEnd</text>
</a>
</g>
</g>
<!-- Node1&#45;&gt;Node11 -->
<g id="edge10_Node000001_Node000011" class="edge">
<title>Node1&#45;&gt;Node11</title>
<g id="a_edge10_Node000001_Node000011"><a xlink:title=" ">
<path fill="none" stroke="#63b8ff" d="M130.9,-272C143.59,-272 156.86,-272 169.4,-272"/>
<polygon fill="#63b8ff" stroke="#63b8ff" points="169.17,-275.5 179.17,-272 169.17,-268.5 169.17,-275.5"/>
</a>
</g>
</g>
<!-- Node12 -->
<g id="Node000012" class="node">
<title>Node12</title>
<g id="a_Node000012"><a xlink:href="../../d1/d01/class_g_e_u_1_1_singleton.html#a47c7e7c2110f4cc59c9ff1f5594c366e" target="_top" xlink:title=" ">
<polygon fill="white" stroke="#666666" points="462,-135 330.5,-135 330.5,-103 462,-103 462,-135"/>
<text text-anchor="start" x="338.5" y="-121.5" font-family="Helvetica,sans-Serif" font-size="10.00">GEU::Singleton&lt; Renderer</text>
<text text-anchor="middle" x="396.25" y="-109.5" font-family="Helvetica,sans-Serif" font-size="10.00"> &gt;::getInstance</text>
</a>
</g>
</g>
<!-- Node1&#45;&gt;Node12 -->
<g id="edge11_Node000001_Node000012" class="edge">
<title>Node1&#45;&gt;Node12</title>
<g id="a_edge11_Node000001_Node000012"><a xlink:title=" ">
<path fill="none" stroke="#63b8ff" d="M71.7,-255.85C84.21,-226.14 118.12,-165.08 166.75,-138 212.88,-112.31 272.25,-105.68 318.91,-106.51"/>
<polygon fill="#63b8ff" stroke="#63b8ff" points="318.56,-110.01 328.67,-106.82 318.78,-103.01 318.56,-110.01"/>
</a>
</g>
</g>
<!-- Node1&#45;&gt;Node12 -->
<g id="edge12_Node000001_Node000012" class="edge">
<title>Node1&#45;&gt;Node12</title>
<g id="a_edge12_Node000001_Node000012"><a xlink:title=" ">
<path fill="none" stroke="#63b8ff" d="M77.38,-255.62C92.92,-229.41 124.2,-179.7 166.75,-156 212.88,-130.31 272.25,-123.68 318.91,-122.04"/>
<polygon fill="#63b8ff" stroke="#63b8ff" points="318.77,-125.55 328.66,-121.77 318.57,-118.55 318.77,-125.55"/>
</a>
</g>
</g>
<!-- Node13 -->
<g id="Node000013" class="node">
<title>Node13</title>
<g id="a_Node000013"><a xlink:href="../../d3/d07/namespace_g_e_u_1_1_gui_utilities.html#a776427878fe3898a385f3ee794bdc183" target="_top" xlink:title=" ">
<polygon fill="white" stroke="#666666" points="278.75,-238 182.5,-238 182.5,-206 278.75,-206 278.75,-238"/>
<text text-anchor="start" x="190.5" y="-224.5" font-family="Helvetica,sans-Serif" font-size="10.00">GEU::GuiUtilities::</text>
<text text-anchor="middle" x="230.62" y="-212.5" font-family="Helvetica,sans-Serif" font-size="10.00">InputInt</text>
</a>
</g>
</g>
<!-- Node1&#45;&gt;Node13 -->
<g id="edge13_Node000001_Node000013" class="edge">
<title>Node1&#45;&gt;Node13</title>
<g id="a_edge13_Node000001_Node000013"><a xlink:title=" ">
<path fill="none" stroke="#63b8ff" d="M119.83,-255.63C136.31,-250.58 154.53,-245 171.31,-239.86"/>
<polygon fill="#63b8ff" stroke="#63b8ff" points="172.12,-243.27 180.66,-237 170.07,-236.58 172.12,-243.27"/>
</a>
</g>
</g>
<!-- Node14 -->
<g id="Node000014" class="node">
<title>Node14</title>
<g id="a_Node000014"><a xlink:href="../../d3/d07/namespace_g_e_u_1_1_gui_utilities.html#a0c8f0f5af8119c36fa703bc2ed301bde" target="_top" xlink:title=" ">
<polygon fill="white" stroke="#666666" points="278.75,-188 182.5,-188 182.5,-156 278.75,-156 278.75,-188"/>
<text text-anchor="start" x="190.5" y="-174.5" font-family="Helvetica,sans-Serif" font-size="10.00">GEU::GuiUtilities::</text>
<text text-anchor="middle" x="230.62" y="-162.5" font-family="Helvetica,sans-Serif" font-size="10.00">InputText</text>
</a>
</g>
</g>
<!-- Node1&#45;&gt;Node14 -->
<g id="edge15_Node000001_Node000014" class="edge">
<title>Node1&#45;&gt;Node14</title>
<g id="a_edge15_Node000001_Node000014"><a xlink:title=" ">
<path fill="none" stroke="#63b8ff" d="M84.96,-255.75C104.36,-239.36 136.19,-214.1 166.75,-197 168.96,-195.77 171.24,-194.56 173.56,-193.39"/>
<polygon fill="#63b8ff" stroke="#63b8ff" points="175.04,-196.56 182.6,-189.14 172.06,-190.23 175.04,-196.56"/>
</a>
</g>
</g>
<!-- Node15 -->
<g id="Node000015" class="node">
<title>Node15</title>
<g id="a_Node000015"><a xlink:href="../../da/d01/class_g_e_u_1_1_inspector_window.html#ae13b1a6e82ca486e2ed63f92de060e18" target="_top" xlink:title="Updates inspector selection status.">
<polygon fill="white" stroke="#666666" points="289.25,-82 172,-82 172,-50 289.25,-50 289.25,-82"/>
<text text-anchor="start" x="180" y="-68.5" font-family="Helvetica,sans-Serif" font-size="10.00">GEU::InspectorWindow</text>
<text text-anchor="middle" x="230.62" y="-56.5" font-family="Helvetica,sans-Serif" font-size="10.00">::setInspectorItem</text>
</a>
</g>
</g>
<!-- Node1&#45;&gt;Node15 -->
<g id="edge17_Node000001_Node000015" class="edge">
<title>Node1&#45;&gt;Node15</title>
<g id="a_edge17_Node000001_Node000015"><a xlink:title=" ">
<path fill="none" stroke="#63b8ff" d="M71.92,-255.52C84.08,-221.57 116.12,-143.06 166.75,-96 169.76,-93.2 173.08,-90.62 176.58,-88.24"/>
<polygon fill="#63b8ff" stroke="#63b8ff" points="178.12,-91.39 184.85,-83.21 174.49,-85.41 178.12,-91.39"/>
</a>
</g>
</g>
<!-- Node16 -->
<g id="Node000016" class="node">
<title>Node16</title>
<g id="a_Node000016"><a xlink:href="../../d3/d07/namespace_g_e_u_1_1_gui_utilities.html#a53c90c750a8eb5e46a4bfe151918078e" target="_top" xlink:title=" ">
<polygon fill="white" stroke="#666666" points="287.38,-32 173.88,-32 173.88,0 287.38,0 287.38,-32"/>
<text text-anchor="start" x="181.88" y="-18.5" font-family="Helvetica,sans-Serif" font-size="10.00">GEU::GuiUtilities::</text>
<text text-anchor="middle" x="230.62" y="-6.5" font-family="Helvetica,sans-Serif" font-size="10.00">setNextTableItemAlign</text>
</a>
</g>
</g>
<!-- Node1&#45;&gt;Node16 -->
<g id="edge18_Node000001_Node000016" class="edge">
<title>Node1&#45;&gt;Node16</title>
<g id="a_edge18_Node000001_Node000016"><a xlink:title=" ">
<path fill="none" stroke="#63b8ff" d="M69.07,-255.58C76.74,-213.98 102.38,-103.38 166.75,-41 167.49,-40.28 168.25,-39.59 169.03,-38.91"/>
<polygon fill="#63b8ff" stroke="#63b8ff" points="170.8,-41.95 176.86,-33.26 166.7,-36.28 170.8,-41.95"/>
</a>
</g>
</g>
<!-- Node6 -->
<g id="Node000006" class="node">
<title>Node6</title>
<g id="a_Node000006"><a xlink:href="../../d3/d07/namespace_g_e_u_1_1_gui_utilities.html#a93d270e10057bb4a04b130a9e20301e2" target="_top" xlink:title=" ">
<polygon fill="white" stroke="#666666" points="446.62,-463 345.88,-463 345.88,-431 446.62,-431 446.62,-463"/>
<text text-anchor="start" x="353.88" y="-449.5" font-family="Helvetica,sans-Serif" font-size="10.00">GEU::GuiUtilities::</text>
<text text-anchor="middle" x="396.25" y="-437.5" font-family="Helvetica,sans-Serif" font-size="10.00">NextItemFillColumn</text>
</a>
</g>
</g>
<!-- Node5&#45;&gt;Node6 -->
<g id="edge5_Node000005_Node000006" class="edge">
<title>Node5&#45;&gt;Node6</title>
<g id="a_edge5_Node000005_Node000006"><a xlink:title=" ">
<path fill="none" stroke="#63b8ff" d="M278.95,-429.23C296.23,-431.87 316.01,-434.89 334.3,-437.69"/>
<polygon fill="#63b8ff" stroke="#63b8ff" points="333.55,-441.11 343.97,-439.16 334.61,-434.19 333.55,-441.11"/>
</a>
</g>
</g>
<!-- Node7 -->
<g id="Node000007" class="node">
<title>Node7</title>
<g id="a_Node000007"><a xlink:href="../../d3/d07/namespace_g_e_u_1_1_gui_utilities.html#ab5bd8ee6ec7674dc502b5330d41beadf" target="_top" xlink:title=" ">
<polygon fill="white" stroke="#666666" points="444.38,-413 348.12,-413 348.12,-381 444.38,-381 444.38,-413"/>
<text text-anchor="start" x="356.12" y="-399.5" font-family="Helvetica,sans-Serif" font-size="10.00">GEU::GuiUtilities::</text>
<text text-anchor="middle" x="396.25" y="-387.5" font-family="Helvetica,sans-Serif" font-size="10.00">Selectable</text>
</a>
</g>
</g>
<!-- Node5&#45;&gt;Node7 -->
<g id="edge6_Node000005_Node000007" class="edge">
<title>Node5&#45;&gt;Node7</title>
<g id="a_edge6_Node000005_Node000007"><a xlink:title=" ">
<path fill="none" stroke="#63b8ff" d="M278.95,-414.77C296.94,-412.02 317.64,-408.86 336.55,-405.97"/>
<polygon fill="#63b8ff" stroke="#63b8ff" points="336.89,-409.46 346.25,-404.49 335.84,-402.54 336.89,-409.46"/>
</a>
</g>
</g>
<!-- Node8 -->
<g id="Node000008" class="node">
<title>Node8</title>
<g id="a_Node000008"><a xlink:href="../../d3/d07/namespace_g_e_u_1_1_gui_utilities.html#a76a49056660c5a9246a94564afbb676a" target="_top" xlink:title=" ">
<polygon fill="white" stroke="#666666" points="453.75,-232 338.75,-232 338.75,-212 453.75,-212 453.75,-232"/>
<text text-anchor="middle" x="396.25" y="-218.5" font-family="Helvetica,sans-Serif" font-size="10.00">GEU::GuiUtilities::Text</text>
</a>
</g>
</g>
<!-- Node5&#45;&gt;Node8 -->
<g id="edge7_Node000005_Node000008" class="edge">
<title>Node5&#45;&gt;Node8</title>
<g id="a_edge7_Node000005_Node000008"><a xlink:title=" ">
<path fill="none" stroke="#63b8ff" d="M278.97,-407.29C284.54,-404.4 289.88,-401 294.5,-397 344.51,-353.71 375.53,-279.18 388.39,-242.96"/>
<polygon fill="#63b8ff" stroke="#63b8ff" points="391.64,-244.28 391.56,-233.69 385.01,-242.01 391.64,-244.28"/>
</a>
</g>
</g>
<!-- Node13&#45;&gt;Node8 -->
<g id="edge14_Node000013_Node000008" class="edge">
<title>Node13&#45;&gt;Node8</title>
<g id="a_edge14_Node000013_Node000008"><a xlink:title=" ">
<path fill="none" stroke="#63b8ff" d="M278.95,-222C294.06,-222 311.09,-222 327.36,-222"/>
<polygon fill="#63b8ff" stroke="#63b8ff" points="326.96,-225.5 336.96,-222 326.96,-218.5 326.96,-225.5"/>
</a>
</g>
</g>
<!-- Node14&#45;&gt;Node8 -->
<g id="edge16_Node000014_Node000008" class="edge">
<title>Node14&#45;&gt;Node8</title>
<g id="a_edge16_Node000014_Node000008"><a xlink:title=" ">
<path fill="none" stroke="#63b8ff" d="M278.95,-186.46C301.4,-193.32 328.08,-201.48 350.23,-208.24"/>
<polygon fill="#63b8ff" stroke="#63b8ff" points="348.99,-211.52 359.57,-211.1 351.03,-204.83 348.99,-211.52"/>
</a>
</g>
</g>
<!-- Node16&#45;&gt;Node12 -->
<g id="edge19_Node000016_Node000012" class="edge">
<title>Node16&#45;&gt;Node12</title>
<g id="a_edge19_Node000016_Node000012"><a xlink:title=" ">
<path fill="none" stroke="#63b8ff" d="M277.33,-32.41C283.23,-35.03 289.09,-37.91 294.5,-41 321.53,-56.43 349.29,-78.46 368.8,-95.18"/>
<polygon fill="#63b8ff" stroke="#63b8ff" points="366.44,-97.76 376.28,-101.68 371.03,-92.48 366.44,-97.76"/>
</a>
</g>
</g>
</g>
</svg>
