<?xml version="1.0" encoding="UTF-8" standalone="no"?>
<!DOCTYPE svg PUBLIC "-//W3C//DTD SVG 1.1//EN"
 "http://www.w3.org/Graphics/SVG/1.1/DTD/svg11.dtd">
<!-- Generated by graphviz version 10.0.1 (20240210.2158)
 -->
<!-- Title: GEU::DetailsWindow::makeLightItemInspector Pages: 1 -->
<svg width="472pt" height="340pt"
 viewBox="0.00 0.00 472.25 340.00" xmlns="http://www.w3.org/2000/svg" xmlns:xlink="http://www.w3.org/1999/xlink">
<g id="graph0" class="graph" transform="scale(1 1) rotate(0) translate(4 336)">
<title>GEU::DetailsWindow::makeLightItemInspector</title>
<!-- Node1 -->
<g id="Node000001" class="node">
<title>Node1</title>
<g id="a_Node000001"><a xlink:title="Renders inspector details for light items.">
<polygon fill="#999999" stroke="#666666" points="125.5,-157 0,-157 0,-125 125.5,-125 125.5,-157"/>
<text text-anchor="start" x="8" y="-143.5" font-family="Helvetica,sans-Serif" font-size="10.00">GEU::DetailsWindow</text>
<text text-anchor="middle" x="62.75" y="-131.5" font-family="Helvetica,sans-Serif" font-size="10.00">::makeLightItemInspector</text>
</a>
</g>
</g>
<!-- Node2 -->
<g id="Node000002" class="node">
<title>Node2</title>
<g id="a_Node000002"><a xlink:href="../../d3/d07/namespace_g_e_u_1_1_gui_utilities.html#a7e5f58fc1e47794679b999cd5778b7aa" target="_top" xlink:title=" ">
<polygon fill="white" stroke="#666666" points="285.5,-332 189.25,-332 189.25,-300 285.5,-300 285.5,-332"/>
<text text-anchor="start" x="197.25" y="-318.5" font-family="Helvetica,sans-Serif" font-size="10.00">GEU::GuiUtilities::</text>
<text text-anchor="middle" x="237.38" y="-306.5" font-family="Helvetica,sans-Serif" font-size="10.00">CollapsingHeader</text>
</a>
</g>
</g>
<!-- Node1&#45;&gt;Node2 -->
<g id="edge1_Node000001_Node000002" class="edge">
<title>Node1&#45;&gt;Node2</title>
<g id="a_edge1_Node000001_Node000002"><a xlink:title=" ">
<path fill="none" stroke="#63b8ff" d="M69.97,-157.12C82.57,-187.69 114.03,-254.33 161.5,-291 166.64,-294.97 172.45,-298.33 178.49,-301.17"/>
<polygon fill="#63b8ff" stroke="#63b8ff" points="176.85,-304.27 187.42,-304.88 179.53,-297.81 176.85,-304.27"/>
</a>
</g>
</g>
<!-- Node3 -->
<g id="Node000003" class="node">
<title>Node3</title>
<g id="a_Node000003"><a xlink:href="../../d3/d07/namespace_g_e_u_1_1_gui_utilities.html#a095bc8e3566d9060ef630e0f15ad27bc" target="_top" xlink:title=" ">
<polygon fill="white" stroke="#666666" points="285.5,-132 189.25,-132 189.25,-100 285.5,-100 285.5,-132"/>
<text text-anchor="start" x="197.25" y="-118.5" font-family="Helvetica,sans-Serif" font-size="10.00">GEU::GuiUtilities::</text>
<text text-anchor="middle" x="237.38" y="-106.5" font-family="Helvetica,sans-Serif" font-size="10.00">ColorPicker</text>
</a>
</g>
</g>
<!-- Node1&#45;&gt;Node3 -->
<g id="edge2_Node000001_Node000003" class="edge">
<title>Node1&#45;&gt;Node3</title>
<g id="a_edge2_Node000001_Node000003"><a xlink:title=" ">
<path fill="none" stroke="#63b8ff" d="M125.58,-132.05C142.48,-129.6 160.75,-126.95 177.48,-124.53"/>
<polygon fill="#63b8ff" stroke="#63b8ff" points="177.89,-128.01 187.28,-123.11 176.89,-121.08 177.89,-128.01"/>
</a>
</g>
</g>
<!-- Node6 -->
<g id="Node000006" class="node">
<title>Node6</title>
<g id="a_Node000006"><a xlink:href="../../d3/d07/namespace_g_e_u_1_1_gui_utilities.html#a4f9aba226510ff3f6ddea45d86ae482d" target="_top" xlink:title=" ">
<polygon fill="white" stroke="#666666" points="285.5,-282 189.25,-282 189.25,-250 285.5,-250 285.5,-282"/>
<text text-anchor="start" x="197.25" y="-268.5" font-family="Helvetica,sans-Serif" font-size="10.00">GEU::GuiUtilities::</text>
<text text-anchor="middle" x="237.38" y="-256.5" font-family="Helvetica,sans-Serif" font-size="10.00">Combo</text>
</a>
</g>
</g>
<!-- Node1&#45;&gt;Node6 -->
<g id="edge5_Node000001_Node000006" class="edge">
<title>Node1&#45;&gt;Node6</title>
<g id="a_edge5_Node000001_Node000006"><a xlink:title=" ">
<path fill="none" stroke="#63b8ff" d="M75.53,-157.18C92.29,-179.12 125.08,-218.19 161.5,-241 166.73,-244.27 172.43,-247.17 178.28,-249.72"/>
<polygon fill="#63b8ff" stroke="#63b8ff" points="176.9,-252.94 187.49,-253.38 179.49,-246.43 176.9,-252.94"/>
</a>
</g>
</g>
<!-- Node7 -->
<g id="Node000007" class="node">
<title>Node7</title>
<g id="a_Node000007"><a xlink:href="../../d3/d07/namespace_g_e_u_1_1_gui_utilities.html#ae128381ddcd82162c730d91f06492621" target="_top" xlink:title=" ">
<polygon fill="white" stroke="#666666" points="285.5,-232 189.25,-232 189.25,-200 285.5,-200 285.5,-232"/>
<text text-anchor="start" x="197.25" y="-218.5" font-family="Helvetica,sans-Serif" font-size="10.00">GEU::GuiUtilities::</text>
<text text-anchor="middle" x="237.38" y="-206.5" font-family="Helvetica,sans-Serif" font-size="10.00">DragFloat</text>
</a>
</g>
</g>
<!-- Node1&#45;&gt;Node7 -->
<g id="edge8_Node000001_Node000007" class="edge">
<title>Node1&#45;&gt;Node7</title>
<g id="a_edge8_Node000001_Node000007"><a xlink:title=" ">
<path fill="none" stroke="#63b8ff" d="M92.72,-157.27C111.89,-167.68 137.77,-181.04 161.5,-191 166.81,-193.23 172.4,-195.4 178.03,-197.48"/>
<polygon fill="#63b8ff" stroke="#63b8ff" points="176.82,-200.76 187.42,-200.82 179.17,-194.17 176.82,-200.76"/>
</a>
</g>
</g>
<!-- Node8 -->
<g id="Node000008" class="node">
<title>Node8</title>
<g id="a_Node000008"><a xlink:href="../../d3/d07/namespace_g_e_u_1_1_gui_utilities.html#a62a678ec43a2444af22deed95d5a67bd" target="_top" xlink:title=" ">
<polygon fill="white" stroke="#666666" points="285.5,-182 189.25,-182 189.25,-150 285.5,-150 285.5,-182"/>
<text text-anchor="start" x="197.25" y="-168.5" font-family="Helvetica,sans-Serif" font-size="10.00">GEU::GuiUtilities::</text>
<text text-anchor="middle" x="237.38" y="-156.5" font-family="Helvetica,sans-Serif" font-size="10.00">DragFloatV</text>
</a>
</g>
</g>
<!-- Node1&#45;&gt;Node8 -->
<g id="edge11_Node000001_Node000008" class="edge">
<title>Node1&#45;&gt;Node8</title>
<g id="a_edge11_Node000001_Node000008"><a xlink:title=" ">
<path fill="none" stroke="#63b8ff" d="M125.58,-149.95C142.48,-152.4 160.75,-155.05 177.48,-157.47"/>
<polygon fill="#63b8ff" stroke="#63b8ff" points="176.89,-160.92 187.28,-158.89 177.89,-153.99 176.89,-160.92"/>
</a>
</g>
</g>
<!-- Node9 -->
<g id="Node000009" class="node">
<title>Node9</title>
<g id="a_Node000009"><a xlink:href="../../de/d04/class_g_e_u_1_1_renderer.html#af5f4307b5eba7c09888765c183a75213" target="_top" xlink:title=" ">
<polygon fill="white" stroke="#666666" points="301.25,-82 173.5,-82 173.5,-50 301.25,-50 301.25,-82"/>
<text text-anchor="start" x="181.5" y="-68.5" font-family="Helvetica,sans-Serif" font-size="10.00">GEU::Renderer::getActive</text>
<text text-anchor="middle" x="237.38" y="-56.5" font-family="Helvetica,sans-Serif" font-size="10.00">Scene</text>
</a>
</g>
</g>
<!-- Node1&#45;&gt;Node9 -->
<g id="edge14_Node000001_Node000009" class="edge">
<title>Node1&#45;&gt;Node9</title>
<g id="a_edge14_Node000001_Node000009"><a xlink:title=" ">
<path fill="none" stroke="#63b8ff" d="M92.72,-124.73C111.89,-114.32 137.77,-100.96 161.5,-91 165.26,-89.42 169.16,-87.87 173.11,-86.37"/>
<polygon fill="#63b8ff" stroke="#63b8ff" points="174.04,-89.75 182.22,-83.02 171.62,-83.18 174.04,-89.75"/>
</a>
</g>
</g>
<!-- Node10 -->
<g id="Node000010" class="node">
<title>Node10</title>
<g id="a_Node000010"><a xlink:href="../../d1/d01/class_g_e_u_1_1_singleton.html#a47c7e7c2110f4cc59c9ff1f5594c366e" target="_top" xlink:title=" ">
<polygon fill="white" stroke="#666666" points="313.25,-32 161.5,-32 161.5,0 313.25,0 313.25,-32"/>
<text text-anchor="start" x="169.5" y="-18.5" font-family="Helvetica,sans-Serif" font-size="10.00">GEU::Singleton&lt; LocaleStrings</text>
<text text-anchor="middle" x="237.38" y="-6.5" font-family="Helvetica,sans-Serif" font-size="10.00"> &gt;::getInstance</text>
</a>
</g>
</g>
<!-- Node1&#45;&gt;Node10 -->
<g id="edge15_Node000001_Node000010" class="edge">
<title>Node1&#45;&gt;Node10</title>
<g id="a_edge15_Node000001_Node000010"><a xlink:title=" ">
<path fill="none" stroke="#63b8ff" d="M71.62,-124.81C85.53,-102.6 116.37,-63.78 151.91,-38.43"/>
<polygon fill="#63b8ff" stroke="#63b8ff" points="153.44,-41.62 159.78,-33.14 149.53,-35.81 153.44,-41.62"/>
</a>
</g>
</g>
<!-- Node1&#45;&gt;Node10 -->
<g id="edge16_Node000001_Node000010" class="edge">
<title>Node1&#45;&gt;Node10</title>
<g id="a_edge16_Node000001_Node000010"><a xlink:title=" ">
<path fill="none" stroke="#63b8ff" d="M80.79,-124.86C98.63,-104.53 128.58,-70.62 161.5,-50 170.37,-44.44 180.61,-39.98 190.62,-36.21"/>
<polygon fill="#63b8ff" stroke="#63b8ff" points="191.65,-39.56 199.88,-32.88 189.29,-32.97 191.65,-39.56"/>
</a>
</g>
</g>
<!-- Node4 -->
<g id="Node000004" class="node">
<title>Node4</title>
<g id="a_Node000004"><a xlink:href="../../d3/d07/namespace_g_e_u_1_1_gui_utilities.html#a93d270e10057bb4a04b130a9e20301e2" target="_top" xlink:title=" ">
<polygon fill="white" stroke="#666666" points="457.12,-230 356.38,-230 356.38,-198 457.12,-198 457.12,-230"/>
<text text-anchor="start" x="364.38" y="-216.5" font-family="Helvetica,sans-Serif" font-size="10.00">GEU::GuiUtilities::</text>
<text text-anchor="middle" x="406.75" y="-204.5" font-family="Helvetica,sans-Serif" font-size="10.00">NextItemFillColumn</text>
</a>
</g>
</g>
<!-- Node3&#45;&gt;Node4 -->
<g id="edge3_Node000003_Node000004" class="edge">
<title>Node3&#45;&gt;Node4</title>
<g id="a_edge3_Node000003_Node000004"><a xlink:title=" ">
<path fill="none" stroke="#63b8ff" d="M285.97,-127.15C295.52,-130.66 305.11,-135.19 313.25,-141 334.67,-156.28 328.69,-171.57 349.25,-188 350.93,-189.34 352.68,-190.63 354.5,-191.87"/>
<polygon fill="#63b8ff" stroke="#63b8ff" points="352.29,-194.62 362.65,-196.83 355.93,-188.64 352.29,-194.62"/>
</a>
</g>
</g>
<!-- Node5 -->
<g id="Node000005" class="node">
<title>Node5</title>
<g id="a_Node000005"><a xlink:href="../../d3/d07/namespace_g_e_u_1_1_gui_utilities.html#a4ca438ae0623d75ff22b4b17dfd3a820" target="_top" xlink:title=" ">
<polygon fill="white" stroke="#666666" points="464.25,-179 349.25,-179 349.25,-159 464.25,-159 464.25,-179"/>
<text text-anchor="middle" x="406.75" y="-165.5" font-family="Helvetica,sans-Serif" font-size="10.00">GEU::GuiUtilities::Text</text>
</a>
</g>
</g>
<!-- Node3&#45;&gt;Node5 -->
<g id="edge4_Node000003_Node000005" class="edge">
<title>Node3&#45;&gt;Node5</title>
<g id="a_edge4_Node000003_Node000005"><a xlink:title=" ">
<path fill="none" stroke="#63b8ff" d="M285.89,-131.05C309.84,-138.63 338.67,-147.76 362.06,-155.17"/>
<polygon fill="#63b8ff" stroke="#63b8ff" points="360.69,-158.4 371.28,-158.08 362.8,-151.73 360.69,-158.4"/>
</a>
</g>
</g>
<!-- Node6&#45;&gt;Node4 -->
<g id="edge6_Node000006_Node000004" class="edge">
<title>Node6&#45;&gt;Node4</title>
<g id="a_edge6_Node000006_Node000004"><a xlink:title=" ">
<path fill="none" stroke="#63b8ff" d="M285.89,-251.24C304.32,-245.51 325.64,-238.89 345.14,-232.83"/>
<polygon fill="#63b8ff" stroke="#63b8ff" points="346.12,-236.19 354.63,-229.88 344.04,-229.51 346.12,-236.19"/>
</a>
</g>
</g>
<!-- Node6&#45;&gt;Node5 -->
<g id="edge7_Node000006_Node000005" class="edge">
<title>Node6&#45;&gt;Node5</title>
<g id="a_edge7_Node000006_Node000005"><a xlink:title=" ">
<path fill="none" stroke="#63b8ff" d="M285.8,-255.29C295.46,-251.74 305.14,-247.09 313.25,-241 335.73,-224.13 326.92,-206.07 349.25,-189 351.38,-187.37 353.65,-185.87 356.01,-184.49"/>
<polygon fill="#63b8ff" stroke="#63b8ff" points="357.39,-187.71 364.77,-180.1 354.26,-181.45 357.39,-187.71"/>
</a>
</g>
</g>
<!-- Node7&#45;&gt;Node4 -->
<g id="edge9_Node000007_Node000004" class="edge">
<title>Node7&#45;&gt;Node4</title>
<g id="a_edge9_Node000007_Node000004"><a xlink:title=" ">
<path fill="none" stroke="#63b8ff" d="M285.89,-215.43C304.14,-215.21 325.24,-214.96 344.6,-214.73"/>
<polygon fill="#63b8ff" stroke="#63b8ff" points="344.6,-218.23 354.56,-214.61 344.52,-211.23 344.6,-218.23"/>
</a>
</g>
</g>
<!-- Node7&#45;&gt;Node5 -->
<g id="edge10_Node000007_Node000005" class="edge">
<title>Node7&#45;&gt;Node5</title>
<g id="a_edge10_Node000007_Node000005"><a xlink:title=" ">
<path fill="none" stroke="#63b8ff" d="M285.89,-202.66C308.3,-196.37 334.99,-188.87 357.49,-182.55"/>
<polygon fill="#63b8ff" stroke="#63b8ff" points="358.35,-185.95 367.03,-179.87 356.46,-179.21 358.35,-185.95"/>
</a>
</g>
</g>
<!-- Node8&#45;&gt;Node4 -->
<g id="edge12_Node000008_Node000004" class="edge">
<title>Node8&#45;&gt;Node4</title>
<g id="a_edge12_Node000008_Node000004"><a xlink:title=" ">
<path fill="none" stroke="#63b8ff" d="M285.89,-179.63C304.32,-184.91 325.64,-191.03 345.14,-196.62"/>
<polygon fill="#63b8ff" stroke="#63b8ff" points="344.04,-199.94 354.62,-199.34 345.97,-193.22 344.04,-199.94"/>
</a>
</g>
</g>
<!-- Node8&#45;&gt;Node5 -->
<g id="edge13_Node000008_Node000005" class="edge">
<title>Node8&#45;&gt;Node5</title>
<g id="a_edge13_Node000008_Node000005"><a xlink:title=" ">
<path fill="none" stroke="#63b8ff" d="M285.89,-166.85C301.98,-167.14 320.29,-167.47 337.66,-167.78"/>
<polygon fill="#63b8ff" stroke="#63b8ff" points="337.34,-171.27 347.4,-167.95 337.46,-164.28 337.34,-171.27"/>
</a>
</g>
</g>
</g>
</svg>
