<?xml version="1.0" encoding="UTF-8" standalone="no"?>
<!DOCTYPE svg PUBLIC "-//W3C//DTD SVG 1.1//EN"
 "http://www.w3.org/Graphics/SVG/1.1/DTD/svg11.dtd">
<!-- Generated by graphviz version 10.0.1 (20240210.2158)
 -->
<!-- Title: GEU::Material::MaterialDescription Pages: 1 -->
<svg width="348pt" height="233pt"
 viewBox="0.00 0.00 348.25 233.00" xmlns="http://www.w3.org/2000/svg" xmlns:xlink="http://www.w3.org/1999/xlink">
<g id="graph0" class="graph" transform="scale(1 1) rotate(0) translate(4 229)">
<title>GEU::Material::MaterialDescription</title>
<!-- Node1 -->
<g id="Node000001" class="node">
<title>Node1</title>
<g id="a_Node000001"><a xlink:title=" ">
<polygon fill="#999999" stroke="#666666" points="245.38,-20 78.62,-20 78.62,0 245.38,0 245.38,-20"/>
<text text-anchor="middle" x="162" y="-6.5" font-family="Helvetica,sans-Serif" font-size="10.00">GEU::Material::MaterialDescription</text>
</a>
</g>
</g>
<!-- Node2 -->
<g id="Node000002" class="node">
<title>Node2</title>
<g id="a_Node000002"><a xlink:title=" ">
<polygon fill="white" stroke="#666666" points="76.75,-156 17.25,-156 17.25,-136 76.75,-136 76.75,-156"/>
<text text-anchor="middle" x="47" y="-142.5" font-family="Helvetica,sans-Serif" font-size="10.00">std::string</text>
</a>
</g>
</g>
<!-- Node2&#45;&gt;Node1 -->
<g id="edge1_Node000001_Node000002" class="edge">
<title>Node2&#45;&gt;Node1</title>
<g id="a_edge1_Node000001_Node000002"><a xlink:title=" ">
<path fill="none" stroke="#9a32cd" stroke-dasharray="5,2" d="M38.9,-124.96C33.6,-108.4 29.47,-84.95 40.25,-68 56.41,-42.6 87.2,-28.32 113.77,-20.41"/>
<polygon fill="#9a32cd" stroke="#9a32cd" points="35.54,-125.97 42.24,-134.18 42.12,-123.58 35.54,-125.97"/>
</a>
</g>
<text text-anchor="middle" x="66.88" y="-74.5" font-family="Helvetica,sans-Serif" font-size="10.00" fill="grey"> _rootFolder</text>
</g>
<!-- Node4 -->
<g id="Node000004" class="node">
<title>Node4</title>
<g id="a_Node000004"><a xlink:title=" ">
<polygon fill="white" stroke="#666666" points="223.25,-88 100.75,-88 100.75,-68 223.25,-68 223.25,-88"/>
<text text-anchor="middle" x="162" y="-74.5" font-family="Helvetica,sans-Serif" font-size="10.00">std::vector&lt; std::string &gt;</text>
</a>
</g>
</g>
<!-- Node2&#45;&gt;Node4 -->
<g id="edge4_Node000004_Node000002" class="edge">
<title>Node2&#45;&gt;Node4</title>
<g id="a_edge4_Node000004_Node000002"><a xlink:title=" ">
<path fill="none" stroke="#9a32cd" stroke-dasharray="5,2" d="M73.28,-129.91C95.52,-117.15 126.69,-99.26 145.55,-88.44"/>
<polygon fill="#9a32cd" stroke="#9a32cd" points="71.72,-126.78 64.79,-134.79 75.2,-132.85 71.72,-126.78"/>
</a>
</g>
<text text-anchor="middle" x="136.38" y="-108.5" font-family="Helvetica,sans-Serif" font-size="10.00" fill="grey"> elements</text>
</g>
<!-- Node3 -->
<g id="Node000003" class="node">
<title>Node3</title>
<g id="a_Node000003"><a xlink:title=" ">
<polygon fill="white" stroke="#666666" points="94,-225 0,-225 0,-193 94,-193 94,-225"/>
<text text-anchor="start" x="8" y="-211.5" font-family="Helvetica,sans-Serif" font-size="10.00">std::basic_string&lt;</text>
<text text-anchor="middle" x="47" y="-199.5" font-family="Helvetica,sans-Serif" font-size="10.00"> Char &gt;</text>
</a>
</g>
</g>
<!-- Node3&#45;&gt;Node2 -->
<g id="edge2_Node000002_Node000003" class="edge">
<title>Node3&#45;&gt;Node2</title>
<g id="a_edge2_Node000002_Node000003"><a xlink:title=" ">
<path fill="none" stroke="#63b8ff" d="M47,-181.36C47,-172.41 47,-163.01 47,-156.31"/>
<polygon fill="#63b8ff" stroke="#63b8ff" points="43.5,-181.09 47,-191.09 50.5,-181.09 43.5,-181.09"/>
</a>
</g>
</g>
<!-- Node4&#45;&gt;Node1 -->
<g id="edge3_Node000001_Node000004" class="edge">
<title>Node4&#45;&gt;Node1</title>
<g id="a_edge3_Node000001_Node000004"><a xlink:title=" ">
<path fill="none" stroke="#9a32cd" stroke-dasharray="5,2" d="M162,-56.28C162,-44.27 162,-29.74 162,-20.44"/>
<polygon fill="#9a32cd" stroke="#9a32cd" points="158.5,-56.03 162,-66.03 165.5,-56.03 158.5,-56.03"/>
</a>
</g>
<text text-anchor="middle" x="194.25" y="-40.5" font-family="Helvetica,sans-Serif" font-size="10.00" fill="grey"> _textureImage</text>
</g>
<!-- Node5 -->
<g id="Node000005" class="node">
<title>Node5</title>
<g id="a_Node000005"><a xlink:title=" ">
<polygon fill="white" stroke="#666666" points="340.25,-88 241.75,-88 241.75,-68 340.25,-68 340.25,-88"/>
<text text-anchor="middle" x="291" y="-74.5" font-family="Helvetica,sans-Serif" font-size="10.00">std::vector&lt; vec4 &gt;</text>
</a>
</g>
</g>
<!-- Node5&#45;&gt;Node1 -->
<g id="edge5_Node000001_Node000005" class="edge">
<title>Node5&#45;&gt;Node1</title>
<g id="a_edge5_Node000001_Node000005"><a xlink:title=" ">
<path fill="none" stroke="#9a32cd" stroke-dasharray="5,2" d="M268.83,-61.04C257.78,-53.5 244.03,-44.7 231,-38 217.84,-31.24 202.58,-25.1 189.76,-20.4"/>
<polygon fill="#9a32cd" stroke="#9a32cd" points="266.67,-63.81 276.88,-66.66 270.68,-58.06 266.67,-63.81"/>
</a>
</g>
<text text-anchor="middle" x="281.38" y="-40.5" font-family="Helvetica,sans-Serif" font-size="10.00" fill="grey"> _textureColor</text>
</g>
</g>
</svg>
