<?xml version="1.0" encoding="UTF-8" standalone="no"?>
<!DOCTYPE svg PUBLIC "-//W3C//DTD SVG 1.1//EN"
 "http://www.w3.org/Graphics/SVG/1.1/DTD/svg11.dtd">
<!-- Generated by graphviz version 10.0.1 (20240210.2158)
 -->
<!-- Title: GEU::VAO::Point::saveRGB Pages: 1 -->
<svg width="331pt" height="290pt"
 viewBox="0.00 0.00 331.00 290.00" xmlns="http://www.w3.org/2000/svg" xmlns:xlink="http://www.w3.org/1999/xlink">

<svg id="main" version="1.1" xmlns="http://www.w3.org/2000/svg" xmlns:xlink="http://www.w3.org/1999/xlink" xml:space="preserve" onload="init(evt)">
<style type="text/css"><![CDATA[
.node, .edge {opacity: 0.7;}
.node.selected, .edge.selected {opacity: 1;}
.edge:hover path { stroke: red; }
.edge:hover polygon { stroke: red; fill: red; }
]]></style>
<script type="application/ecmascript" xlink:href="../../svg.min.js"/>
<svg id="graph" class="graph">
<g id="graph0" class="graph" transform="scale(1 1) rotate(0) translate(4 286)">
<title>GEU::VAO::Point::saveRGB</title>
<!-- Node1 -->
<g id="Node000001" class="node">
<title>Node1</title>
<g id="a_Node000001"><a xlink:title="Packs an RGB color into an unsigned value.">
<polygon fill="#999999" stroke="#666666" points="323,-151 184,-151 184,-131 323,-131 323,-151"/>
<text text-anchor="middle" x="253.5" y="-137.5" font-family="Helvetica,sans-Serif" font-size="10.00">GEU::VAO::Point::saveRGB</text>
</a>
</g>
</g>
<!-- Node2 -->
<g id="Node000002" class="node">
<title>Node2</title>
<g id="a_Node000002"><a xlink:href="../../dc/d51/class_g_e_u_1_1_image_cloud_proj.html#a5b25ca28287f8c088a55152666fffacc" target="_top" xlink:title=" ">
<polygon fill="white" stroke="#666666" points="142,-282 6,-282 6,-250 142,-250 142,-282"/>
<text text-anchor="start" x="14" y="-268.5" font-family="Helvetica,sans-Serif" font-size="10.00">GEU::ImageCloudProj</text>
<text text-anchor="middle" x="74" y="-256.5" font-family="Helvetica,sans-Serif" font-size="10.00">::colorRegularMeshByMean</text>
</a>
</g>
</g>
<!-- Node1&#45;&gt;Node2 -->
<g id="edge1_Node000001_Node000002" class="edge">
<title>Node1&#45;&gt;Node2</title>
<g id="a_edge1_Node000001_Node000002"><a xlink:title=" ">
<path fill="none" stroke="#63b8ff" d="M237.05,-160.16C218.18,-182.43 184.25,-218.94 148,-241 142.74,-244.2 137.01,-247.06 131.15,-249.6"/>
<polygon fill="#63b8ff" stroke="#63b8ff" points="239.75,-162.39 243.44,-152.46 234.36,-157.93 239.75,-162.39"/>
</a>
</g>
</g>
<!-- Node3 -->
<g id="Node000003" class="node">
<title>Node3</title>
<g id="a_Node000003"><a xlink:href="../../dc/d51/class_g_e_u_1_1_image_cloud_proj.html#a50053abf8153350b563d06d390254608" target="_top" xlink:title="Compare Rasters.">
<polygon fill="white" stroke="#666666" points="129.62,-232 18.38,-232 18.38,-200 129.62,-200 129.62,-232"/>
<text text-anchor="start" x="26.38" y="-218.5" font-family="Helvetica,sans-Serif" font-size="10.00">GEU::ImageCloudProj</text>
<text text-anchor="middle" x="74" y="-206.5" font-family="Helvetica,sans-Serif" font-size="10.00">::compareRasters</text>
</a>
</g>
</g>
<!-- Node1&#45;&gt;Node3 -->
<g id="edge2_Node000001_Node000003" class="edge">
<title>Node1&#45;&gt;Node3</title>
<g id="a_edge2_Node000001_Node000003"><a xlink:title=" ">
<path fill="none" stroke="#63b8ff" d="M222.33,-156.59C201.68,-166.97 173.52,-180.56 148,-191 140.81,-193.94 133.13,-196.83 125.55,-199.55"/>
<polygon fill="#63b8ff" stroke="#63b8ff" points="223.7,-159.81 231.04,-152.17 220.54,-153.57 223.7,-159.81"/>
</a>
</g>
</g>
<!-- Node4 -->
<g id="Node000004" class="node">
<title>Node4</title>
<g id="a_Node000004"><a xlink:href="../../dd/dcb/class_g_e_u_1_1_procedural_generator.html#ab0c3b30380c1fd538c92fcea0e1e04d2" target="_top" xlink:title=" ">
<polygon fill="white" stroke="#666666" points="140.12,-182 7.88,-182 7.88,-150 140.12,-150 140.12,-182"/>
<text text-anchor="start" x="15.88" y="-168.5" font-family="Helvetica,sans-Serif" font-size="10.00">GEU::ProceduralGenerator</text>
<text text-anchor="middle" x="74" y="-156.5" font-family="Helvetica,sans-Serif" font-size="10.00">::computeNURBS</text>
</a>
</g>
</g>
<!-- Node1&#45;&gt;Node4 -->
<g id="edge3_Node000001_Node000004" class="edge">
<title>Node1&#45;&gt;Node4</title>
<g id="a_edge3_Node000001_Node000004"><a xlink:title=" ">
<path fill="none" stroke="#63b8ff" d="M172.5,-152.27C161.74,-153.78 150.81,-155.32 140.35,-156.8"/>
<polygon fill="#63b8ff" stroke="#63b8ff" points="172.71,-155.77 182.12,-150.91 171.73,-148.84 172.71,-155.77"/>
</a>
</g>
</g>
<!-- Node5 -->
<g id="Node000005" class="node">
<title>Node5</title>
<g id="a_Node000005"><a xlink:href="../../dc/d51/class_g_e_u_1_1_image_cloud_proj.html#a848fc707da91041591987216223e1b93" target="_top" xlink:title="Reconstruction Cloud MDT.">
<polygon fill="white" stroke="#666666" points="138.25,-132 9.75,-132 9.75,-100 138.25,-100 138.25,-132"/>
<text text-anchor="start" x="17.75" y="-118.5" font-family="Helvetica,sans-Serif" font-size="10.00">GEU::ImageCloudProj</text>
<text text-anchor="middle" x="74" y="-106.5" font-family="Helvetica,sans-Serif" font-size="10.00">::reconstructionCloudMDT</text>
</a>
</g>
</g>
<!-- Node1&#45;&gt;Node5 -->
<g id="edge4_Node000001_Node000005" class="edge">
<title>Node1&#45;&gt;Node5</title>
<g id="a_edge4_Node000001_Node000005"><a xlink:title=" ">
<path fill="none" stroke="#63b8ff" d="M172.39,-129.72C161.07,-128.12 149.57,-126.5 138.62,-124.96"/>
<polygon fill="#63b8ff" stroke="#63b8ff" points="171.73,-133.16 182.12,-131.09 172.71,-126.23 171.73,-133.16"/>
</a>
</g>
</g>
<!-- Node6 -->
<g id="Node000006" class="node">
<title>Node6</title>
<g id="a_Node000006"><a xlink:href="../../dd/dcb/class_g_e_u_1_1_procedural_generator.html#a91e7c3b5466deff7022c4e9ed8e6687c" target="_top" xlink:title=" ">
<polygon fill="white" stroke="#666666" points="140.5,-82 7.5,-82 7.5,-50 140.5,-50 140.5,-82"/>
<text text-anchor="start" x="15.5" y="-68.5" font-family="Helvetica,sans-Serif" font-size="10.00">GEU::ProceduralGenerator</text>
<text text-anchor="middle" x="74" y="-56.5" font-family="Helvetica,sans-Serif" font-size="10.00">::RegionRGBSegmentation</text>
</a>
</g>
</g>
<!-- Node1&#45;&gt;Node6 -->
<g id="edge5_Node000001_Node000006" class="edge">
<title>Node1&#45;&gt;Node6</title>
<g id="a_edge5_Node000001_Node000006"><a xlink:title=" ">
<path fill="none" stroke="#63b8ff" d="M222.33,-125.41C201.68,-115.03 173.52,-101.44 148,-91 140.81,-88.06 133.13,-85.17 125.55,-82.45"/>
<polygon fill="#63b8ff" stroke="#63b8ff" points="220.54,-128.43 231.04,-129.83 223.7,-122.19 220.54,-128.43"/>
</a>
</g>
</g>
<!-- Node7 -->
<g id="Node000007" class="node">
<title>Node7</title>
<g id="a_Node000007"><a xlink:href="../../d4/dbf/class_g_e_u_1_1_point_cloud.html#a392fef4e156fe3823ce2b8333743ffa4" target="_top" xlink:title=" ">
<polygon fill="white" stroke="#666666" points="148,-32 0,-32 0,0 148,0 148,-32"/>
<text text-anchor="start" x="8" y="-18.5" font-family="Helvetica,sans-Serif" font-size="10.00">GEU::PointCloud::updateFrom</text>
<text text-anchor="middle" x="74" y="-6.5" font-family="Helvetica,sans-Serif" font-size="10.00">PCLCloud</text>
</a>
</g>
</g>
<!-- Node1&#45;&gt;Node7 -->
<g id="edge6_Node000001_Node000007" class="edge">
<title>Node1&#45;&gt;Node7</title>
<g id="a_edge6_Node000001_Node000007"><a xlink:title=" ">
<path fill="none" stroke="#63b8ff" d="M237.05,-121.84C218.18,-99.57 184.25,-63.06 148,-41 142.74,-37.8 137.01,-34.94 131.15,-32.4"/>
<polygon fill="#63b8ff" stroke="#63b8ff" points="234.36,-124.07 243.44,-129.54 239.75,-119.61 234.36,-124.07"/>
</a>
</g>
</g>
</g>
</svg>
</svg>

<style type='text/css'>
<![CDATA[
[data-mouse-over-selected='false'] { opacity: 0.7; }
[data-mouse-over-selected='true']  { opacity: 1.0; }
]]>
</style>
<script type="application/ecmascript"><![CDATA[
document.addEventListener('DOMContentLoaded', (event) => {
  highlightEdges();
  highlightAdjacentNodes();
});
]]></script>
</svg>
