<?xml version="1.0" encoding="UTF-8" standalone="no"?>
<!DOCTYPE svg PUBLIC "-//W3C//DTD SVG 1.1//EN"
 "http://www.w3.org/Graphics/SVG/1.1/DTD/svg11.dtd">
<!-- Generated by graphviz version 10.0.1 (20240210.2158)
 -->
<!-- Title: GEU::VAO::Point::getRGBVec4 Pages: 1 -->
<!--zoomable 140 -->

<svg id="main" version="1.1" xmlns="http://www.w3.org/2000/svg" xmlns:xlink="http://www.w3.org/1999/xlink" xml:space="preserve" onload="init(evt)">
<style type="text/css"><![CDATA[
.node, .edge {opacity: 0.7;}
.node.selected, .edge.selected {opacity: 1;}
.edge:hover path { stroke: red; }
.edge:hover polygon { stroke: red; fill: red; }
]]></style>

<defs>
  <circle id="rim" cx="0" cy="0" r="7"/>
  <circle id="rim2" cx="0" cy="0" r="3.5"/>
  <g id="zoomPlus">
    <use xlink:href="#rim" fill="#404040"><set attributeName="fill" to="#808080" begin="zoomplus.mouseover" end="zoomplus.mouseout"/></use>
    <path d="M-4,0h8M0,-4v8" fill="none" stroke="white" stroke-width="1.5" pointer-events="none"/>
  </g>
  <g id="zoomMin">
    <use xlink:href="#rim" fill="#404040"><set attributeName="fill" to="#808080" begin="zoomminus.mouseover" end="zoomminus.mouseout"/></use>
    <path d="M-4,0h8" fill="none" stroke="white" stroke-width="1.5" pointer-events="none"/>
  </g>
  <g id="arrowUp" transform="translate(30 24)">
    <use xlink:href="#rim"/>
    <path pointer-events="none" fill="none" stroke="white" stroke-width="1.5" d="M0,-3.0v7 M-2.5,-0.5L0,-3.0L2.5,-0.5"/>
  </g>
  <g id="arrowRight" transform="rotate(90) translate(36 -43)">
    <use xlink:href="#rim"/>
    <path pointer-events="none" fill="none" stroke="white" stroke-width="1.5" d="M0,-3.0v7 M-2.5,-0.5L0,-3.0L2.5,-0.5"/>
  </g>
  <g id="arrowDown" transform="rotate(180) translate(-30 -48)">
    <use xlink:href="#rim"/>
    <path pointer-events="none" fill="none" stroke="white" stroke-width="1.5" d="M0,-3.0v7 M-2.5,-0.5L0,-3.0L2.5,-0.5"/>
  </g>
  <g id="arrowLeft" transform="rotate(270) translate(-36 17)">
    <use xlink:href="#rim"/>
    <path pointer-events="none" fill="none" stroke="white" stroke-width="1.5" d="M0,-3.0v7 M-2.5,-0.5L0,-3.0L2.5,-0.5"/>
  </g>
  <g id="resetDef">
    <use xlink:href="#rim2" fill="#404040"><set attributeName="fill" to="#808080" begin="reset.mouseover" end="reset.mouseout"/></use>
  </g>
</defs>
<script type="application/ecmascript">
var viewWidth = 671;
var viewHeight = 140;
var sectionId = 'dynsection-3';
</script>
<script type="application/ecmascript" xlink:href="../../svg.min.js"/>
<svg id="graph" class="graph">
<g id="viewport">
<title>GEU::VAO::Point::getRGBVec4</title>
<!-- Node1 -->
<g id="Node000001" class="node">
<title>Node1</title>
<g id="a_Node000001"><a xlink:title=" ">
<polygon fill="#999999" stroke="#666666" points="662.5,-76 507,-76 507,-56 662.5,-56 662.5,-76"/>
<text text-anchor="middle" x="584.75" y="-62.5" font-family="Helvetica,sans-Serif" font-size="10.00">GEU::VAO::Point::getRGBVec4</text>
</a>
</g>
</g>
<!-- Node2 -->
<g id="Node000002" class="node">
<title>Node2</title>
<g id="a_Node000002"><a xlink:href="../../d4/dbf/class_g_e_u_1_1_point_cloud.html#a2ae9681e4dda937bb5b0218ead067e5e" target="_top" xlink:title=" ">
<polygon fill="white" stroke="#666666" points="456.75,-129 329.75,-129 329.75,-97 456.75,-97 456.75,-129"/>
<text text-anchor="start" x="337.75" y="-115.5" font-family="Helvetica,sans-Serif" font-size="10.00">GEU::PointCloud::convert</text>
<text text-anchor="middle" x="393.25" y="-103.5" font-family="Helvetica,sans-Serif" font-size="10.00">ToPCLPointCloud</text>
</a>
</g>
</g>
<!-- Node1&#45;&gt;Node2 -->
<g id="edge1_Node000001_Node000002" class="edge">
<title>Node1&#45;&gt;Node2</title>
<g id="a_edge1_Node000001_Node000002"><a xlink:title=" ">
<path fill="none" stroke="#63b8ff" d="M530.82,-79.13C507.93,-84.81 480.97,-91.49 457.07,-97.42"/>
<polygon fill="#63b8ff" stroke="#63b8ff" points="531.36,-82.6 540.22,-76.8 529.68,-75.81 531.36,-82.6"/>
</a>
</g>
</g>
<!-- Node5 -->
<g id="Node000005" class="node">
<title>Node5</title>
<g id="a_Node000005"><a xlink:href="../../d8/d4a/struct_g_e_u_1_1_v_a_o_1_1_point.html#a46afe38741009cb8a18c1701b174e91f" target="_top" xlink:title=" ">
<polygon fill="white" stroke="#666666" points="471,-76 315.5,-76 315.5,-56 471,-56 471,-76"/>
<text text-anchor="middle" x="393.25" y="-62.5" font-family="Helvetica,sans-Serif" font-size="10.00">GEU::VAO::Point::getRGBVec3</text>
</a>
</g>
</g>
<!-- Node1&#45;&gt;Node5 -->
<g id="edge4_Node000001_Node000005" class="edge">
<title>Node1&#45;&gt;Node5</title>
<g id="a_edge4_Node000001_Node000005"><a xlink:title=" ">
<path fill="none" stroke="#63b8ff" d="M495.36,-66C487.31,-66 479.2,-66 471.26,-66"/>
<polygon fill="#63b8ff" stroke="#63b8ff" points="495.16,-69.5 505.16,-66 495.16,-62.5 495.16,-69.5"/>
</a>
</g>
</g>
<!-- Node7 -->
<g id="Node000007" class="node">
<title>Node7</title>
<g id="a_Node000007"><a xlink:href="../../dd/db9/class_g_e_u_1_1_file_manager.html#aeffefc58937066d086f5ee5e86a05ef9" target="_top" xlink:title=" ">
<polygon fill="white" stroke="#666666" points="465.38,-35 321.12,-35 321.12,-3 465.38,-3 465.38,-35"/>
<text text-anchor="start" x="329.12" y="-21.5" font-family="Helvetica,sans-Serif" font-size="10.00">GEU::FileManager::savePoint</text>
<text text-anchor="middle" x="393.25" y="-9.5" font-family="Helvetica,sans-Serif" font-size="10.00">Cloud</text>
</a>
</g>
</g>
<!-- Node1&#45;&gt;Node7 -->
<g id="edge6_Node000001_Node000007" class="edge">
<title>Node1&#45;&gt;Node7</title>
<g id="a_edge6_Node000001_Node000007"><a xlink:title=" ">
<path fill="none" stroke="#63b8ff" d="M530.71,-52.85C509.01,-47.46 483.67,-41.18 460.75,-35.49"/>
<polygon fill="#63b8ff" stroke="#63b8ff" points="529.68,-56.19 540.22,-55.2 531.36,-49.4 529.68,-56.19"/>
</a>
</g>
</g>
<!-- Node3 -->
<g id="Node000003" class="node">
<title>Node3</title>
<g id="a_Node000003"><a xlink:href="../../d4/d3f/class_normales_g_u_i_adapter.html#a32cec8b0ea288f27e15946d5a4ea3728" target="_top" xlink:title=" ">
<polygon fill="white" stroke="#666666" points="265.25,-132 157.75,-132 157.75,-100 265.25,-100 265.25,-132"/>
<text text-anchor="start" x="165.75" y="-118.5" font-family="Helvetica,sans-Serif" font-size="10.00">NormalesGUIAdapter</text>
<text text-anchor="middle" x="211.5" y="-106.5" font-family="Helvetica,sans-Serif" font-size="10.00">::offsetMethod</text>
</a>
</g>
</g>
<!-- Node2&#45;&gt;Node3 -->
<g id="edge2_Node000002_Node000003" class="edge">
<title>Node2&#45;&gt;Node3</title>
<g id="a_edge2_Node000002_Node000003"><a xlink:title=" ">
<path fill="none" stroke="#63b8ff" d="M317.96,-114.24C300.36,-114.53 281.93,-114.84 265.5,-115.12"/>
<polygon fill="#63b8ff" stroke="#63b8ff" points="317.93,-117.74 327.87,-114.07 317.81,-110.74 317.93,-117.74"/>
</a>
</g>
</g>
<!-- Node4 -->
<g id="Node000004" class="node">
<title>Node4</title>
<g id="a_Node000004"><a xlink:href="../../d4/d3f/class_normales_g_u_i_adapter.html#ad27c678722407ed6f3d2bb41ccc2b640" target="_top" xlink:title="Custom module GUI window contents.">
<polygon fill="white" stroke="#666666" points="107.5,-132 0,-132 0,-100 107.5,-100 107.5,-132"/>
<text text-anchor="start" x="8" y="-118.5" font-family="Helvetica,sans-Serif" font-size="10.00">NormalesGUIAdapter</text>
<text text-anchor="middle" x="53.75" y="-106.5" font-family="Helvetica,sans-Serif" font-size="10.00">::renderGuiObject</text>
</a>
</g>
</g>
<!-- Node3&#45;&gt;Node4 -->
<g id="edge3_Node000003_Node000004" class="edge">
<title>Node3&#45;&gt;Node4</title>
<g id="a_edge3_Node000003_Node000004"><a xlink:title=" ">
<path fill="none" stroke="#63b8ff" d="M145.91,-116C133.27,-116 120.15,-116 107.94,-116"/>
<polygon fill="#63b8ff" stroke="#63b8ff" points="145.82,-119.5 155.82,-116 145.82,-112.5 145.82,-119.5"/>
</a>
</g>
</g>
<!-- Node6 -->
<g id="Node000006" class="node">
<title>Node6</title>
<g id="a_Node000006"><a xlink:href="../../dc/d51/class_g_e_u_1_1_image_cloud_proj.html#a6e7cb35807c450b23ab3917338910e97" target="_top" xlink:title=" ">
<polygon fill="white" stroke="#666666" points="269.38,-82 153.62,-82 153.62,-50 269.38,-50 269.38,-82"/>
<text text-anchor="start" x="161.62" y="-68.5" font-family="Helvetica,sans-Serif" font-size="10.00">GEU::ImageCloudProj</text>
<text text-anchor="middle" x="211.5" y="-56.5" font-family="Helvetica,sans-Serif" font-size="10.00">::applyVegetationMask</text>
</a>
</g>
</g>
<!-- Node5&#45;&gt;Node6 -->
<g id="edge5_Node000005_Node000006" class="edge">
<title>Node5&#45;&gt;Node6</title>
<g id="a_edge5_Node000005_Node000006"><a xlink:title=" ">
<path fill="none" stroke="#63b8ff" d="M303.74,-66C292.2,-66 280.63,-66 269.79,-66"/>
<polygon fill="#63b8ff" stroke="#63b8ff" points="303.72,-69.5 313.72,-66 303.72,-62.5 303.72,-69.5"/>
</a>
</g>
</g>
<!-- Node8 -->
<g id="Node000008" class="node">
<title>Node8</title>
<g id="a_Node000008"><a xlink:href="../../db/d50/class_g_e_u_1_1_details_window.html#a9edcfff4507d107037e9f7500a3d6717" target="_top" xlink:title="Renders inspector details for point cloud items.">
<polygon fill="white" stroke="#666666" points="279.5,-32 143.5,-32 143.5,0 279.5,0 279.5,-32"/>
<text text-anchor="start" x="151.5" y="-18.5" font-family="Helvetica,sans-Serif" font-size="10.00">GEU::DetailsWindow</text>
<text text-anchor="middle" x="211.5" y="-6.5" font-family="Helvetica,sans-Serif" font-size="10.00">::makePCloudItemInspector</text>
</a>
</g>
</g>
<!-- Node7&#45;&gt;Node8 -->
<g id="edge7_Node000007_Node000008" class="edge">
<title>Node7&#45;&gt;Node8</title>
<g id="a_edge7_Node000007_Node000008"><a xlink:title=" ">
<path fill="none" stroke="#63b8ff" d="M309.18,-17.61C299.31,-17.45 289.33,-17.28 279.72,-17.12"/>
<polygon fill="#63b8ff" stroke="#63b8ff" points="309.12,-21.11 319.18,-17.78 309.24,-14.11 309.12,-21.11"/>
</a>
</g>
</g>
<!-- Node9 -->
<g id="Node000009" class="node">
<title>Node9</title>
<g id="a_Node000009"><a xlink:href="../../db/d50/class_g_e_u_1_1_details_window.html#a6666ec761cc5cd8a57220823b8e7daa6" target="_top" xlink:title="Renders the window and contents.">
<polygon fill="white" stroke="#666666" points="107.5,-32 0,-32 0,0 107.5,0 107.5,-32"/>
<text text-anchor="start" x="8" y="-18.5" font-family="Helvetica,sans-Serif" font-size="10.00">GEU::DetailsWindow</text>
<text text-anchor="middle" x="53.75" y="-6.5" font-family="Helvetica,sans-Serif" font-size="10.00">::renderWindow</text>
</a>
</g>
</g>
<!-- Node8&#45;&gt;Node9 -->
<g id="edge8_Node000008_Node000009" class="edge">
<title>Node8&#45;&gt;Node9</title>
<g id="a_edge8_Node000008_Node000009"><a xlink:title=" ">
<path fill="none" stroke="#63b8ff" d="M131.65,-16C123.54,-16 115.44,-16 107.71,-16"/>
<polygon fill="#63b8ff" stroke="#63b8ff" points="131.58,-19.5 141.58,-16 131.58,-12.5 131.58,-19.5"/>
</a>
</g>
</g>
</g>
</svg>

<g id="navigator" transform="translate(0 0)" fill="#404254">
  <rect fill="#f2f5e9" fill-opacity="0.5" stroke="#606060" stroke-width=".5" x="0" y="0" width="60" height="60"/>
  <use id="zoomplus" xlink:href="#zoomPlus" x="17" y="9" onmousedown="handleZoom(evt,'in')"/>
  <use id="zoomminus" xlink:href="#zoomMin" x="42" y="9" onmousedown="handleZoom(evt,'out')"/>
  <use id="reset" xlink:href="#resetDef" x="30" y="36" onmousedown="handleReset()"/>
   <use id="arrowup" xlink:href="#arrowUp" x="0" y="0" onmousedown="handlePan(0,-1)"/>
  <use id="arrowright" xlink:href="#arrowRight" x="0" y="0" onmousedown="handlePan(1,0)"/>
  <use id="arrowdown" xlink:href="#arrowDown" x="0" y="0" onmousedown="handlePan(0,1)"/>
  <use id="arrowleft" xlink:href="#arrowLeft" x="0" y="0" onmousedown="handlePan(-1,0)"/>
</g>
<svg viewBox="0 0 15 15" width="100%" height="30px" preserveAspectRatio="xMaxYMin meet">
 <g id="arrow_out" transform="scale(0.3 0.3)">
  <a xlink:href="struct_g_e_u_1_1_v_a_o_1_1_point_a869b1c796dc79a8c17f4f2ffd6e6ea02_icgraph_org.svg" target="_base">
   <rect id="button" ry="5" rx="5" y="6" x="6" height="38" width="38"
        fill="#f2f5e9" fill-opacity="0.5" stroke="#606060" stroke-width="1.0"/>
   <path id="arrow"
     d="M 11.500037,31.436501 C 11.940474,20.09759 22.043105,11.32322 32.158766,21.979434 L 37.068811,17.246167 C 37.068811,17.246167 37.088388,32 37.088388,32 L 22.160133,31.978069 C 22.160133,31.978069 26.997745,27.140456 26.997745,27.140456 C 18.528582,18.264221 13.291696,25.230495 11.500037,31.436501 z"
     style="fill:#404040;"/>
  </a>
 </g>
</svg>

<style type='text/css'>
<![CDATA[
[data-mouse-over-selected='false'] { opacity: 0.7; }
[data-mouse-over-selected='true']  { opacity: 1.0; }
]]>
</style>
<script type="application/ecmascript"><![CDATA[
document.addEventListener('DOMContentLoaded', (event) => {
  highlightEdges();
  highlightAdjacentNodes();
});
]]></script>
</svg>
