<?xml version="1.0" encoding="UTF-8" standalone="no"?>
<!DOCTYPE svg PUBLIC "-//W3C//DTD SVG 1.1//EN"
 "http://www.w3.org/Graphics/SVG/1.1/DTD/svg11.dtd">
<!-- Generated by graphviz version 10.0.1 (20240210.2158)
 -->
<!-- Title: GEU::InfoPopup::openPopup Pages: 1 -->
<svg width="512pt" height="78pt"
 viewBox="0.00 0.00 512.00 78.00" xmlns="http://www.w3.org/2000/svg" xmlns:xlink="http://www.w3.org/1999/xlink">
<g id="graph0" class="graph" transform="scale(1 1) rotate(0) translate(4 74)">
<title>GEU::InfoPopup::openPopup</title>
<!-- Node1 -->
<g id="Node000001" class="node">
<title>Node1</title>
<g id="a_Node000001"><a xlink:title="Sets up ImGUI to open a popup window.">
<polygon fill="#999999" stroke="#666666" points="140.5,-42 0,-42 0,-22 140.5,-22 140.5,-42"/>
<text text-anchor="middle" x="70.25" y="-28.5" font-family="Helvetica,sans-Serif" font-size="10.00">GEU::InfoPopup::openPopup</text>
</a>
</g>
</g>
<!-- Node2 -->
<g id="Node000002" class="node">
<title>Node2</title>
<g id="a_Node000002"><a xlink:href="../../dd/d00/a01936.html#abdcc20870710b60595e8777b9fd796ed" target="_top" xlink:title=" ">
<polygon fill="white" stroke="#666666" points="316.25,-42 176.5,-42 176.5,-22 316.25,-22 316.25,-42"/>
<text text-anchor="middle" x="246.38" y="-28.5" font-family="Helvetica,sans-Serif" font-size="10.00">GEU::I_GUIPopup::getIdTitle</text>
</a>
</g>
</g>
<!-- Node1&#45;&gt;Node2 -->
<g id="edge1_Node000001_Node000002" class="edge">
<title>Node1&#45;&gt;Node2</title>
<g id="a_edge1_Node000001_Node000002"><a xlink:title=" ">
<path fill="none" stroke="#63b8ff" d="M140.82,-32C148.74,-32 156.86,-32 164.9,-32"/>
<polygon fill="#63b8ff" stroke="#63b8ff" points="164.69,-35.5 174.69,-32 164.69,-28.5 164.69,-35.5"/>
</a>
</g>
</g>
<!-- Node3 -->
<g id="Node000003" class="node">
<title>Node3</title>
<g id="a_Node000003"><a xlink:href="../../d1/d01/a02032.html#a47c7e7c2110f4cc59c9ff1f5594c366e" target="_top" xlink:title=" ">
<polygon fill="white" stroke="#666666" points="504,-70 352.25,-70 352.25,-38 504,-38 504,-70"/>
<text text-anchor="start" x="360.25" y="-56.5" font-family="Helvetica,sans-Serif" font-size="10.00">GEU::Singleton&lt; LocaleStrings</text>
<text text-anchor="middle" x="428.12" y="-44.5" font-family="Helvetica,sans-Serif" font-size="10.00"> &gt;::getInstance</text>
</a>
</g>
</g>
<!-- Node2&#45;&gt;Node3 -->
<g id="edge2_Node000002_Node000003" class="edge">
<title>Node2&#45;&gt;Node3</title>
<g id="a_edge2_Node000002_Node000003"><a xlink:title=" ">
<path fill="none" stroke="#63b8ff" d="M316.61,-40.47C324.48,-41.44 332.57,-42.43 340.62,-43.41"/>
<polygon fill="#63b8ff" stroke="#63b8ff" points="340.1,-46.87 350.45,-44.62 340.95,-39.93 340.1,-46.87"/>
</a>
</g>
</g>
<!-- Node4 -->
<g id="Node000004" class="node">
<title>Node4</title>
<g id="a_Node000004"><a xlink:href="../../dc/d02/a02020.html#ac66087ac25e72051ea7b5bf3d00dd71f" target="_top" xlink:title=" ">
<polygon fill="white" stroke="#666666" points="488.25,-20 368,-20 368,0 488.25,0 488.25,-20"/>
<text text-anchor="middle" x="428.12" y="-6.5" font-family="Helvetica,sans-Serif" font-size="10.00">LocaleStrings::getString</text>
</a>
</g>
</g>
<!-- Node2&#45;&gt;Node4 -->
<g id="edge3_Node000002_Node000004" class="edge">
<title>Node2&#45;&gt;Node4</title>
<g id="a_edge3_Node000002_Node000004"><a xlink:title=" ">
<path fill="none" stroke="#63b8ff" d="M316.61,-23.53C329.62,-21.93 343.23,-20.27 356.28,-18.67"/>
<polygon fill="#63b8ff" stroke="#63b8ff" points="356.57,-22.16 366.08,-17.47 355.72,-15.21 356.57,-22.16"/>
</a>
</g>
</g>
</g>
</svg>
