<?xml version="1.0" encoding="UTF-8" standalone="no"?>
<!DOCTYPE svg PUBLIC "-//W3C//DTD SVG 1.1//EN"
 "http://www.w3.org/Graphics/SVG/1.1/DTD/svg11.dtd">
<!-- Generated by graphviz version 10.0.1 (20240210.2158)
 -->
<!-- Title: C:/GitHub/GEU/GEU/Source/Modules/Reconstruccion/ImageCloudProj.cpp Pages: 1 -->
<!--zoomable 176 -->

<svg id="main" version="1.1" xmlns="http://www.w3.org/2000/svg" xmlns:xlink="http://www.w3.org/1999/xlink" xml:space="preserve" onload="init(evt)">
<style type="text/css"><![CDATA[
.node, .edge {opacity: 0.7;}
.node.selected, .edge.selected {opacity: 1;}
.edge:hover path { stroke: red; }
.edge:hover polygon { stroke: red; fill: red; }
]]></style>

<defs>
  <circle id="rim" cx="0" cy="0" r="7"/>
  <circle id="rim2" cx="0" cy="0" r="3.5"/>
  <g id="zoomPlus">
    <use xlink:href="#rim" fill="#404040"><set attributeName="fill" to="#808080" begin="zoomplus.mouseover" end="zoomplus.mouseout"/></use>
    <path d="M-4,0h8M0,-4v8" fill="none" stroke="white" stroke-width="1.5" pointer-events="none"/>
  </g>
  <g id="zoomMin">
    <use xlink:href="#rim" fill="#404040"><set attributeName="fill" to="#808080" begin="zoomminus.mouseover" end="zoomminus.mouseout"/></use>
    <path d="M-4,0h8" fill="none" stroke="white" stroke-width="1.5" pointer-events="none"/>
  </g>
  <g id="arrowUp" transform="translate(30 24)">
    <use xlink:href="#rim"/>
    <path pointer-events="none" fill="none" stroke="white" stroke-width="1.5" d="M0,-3.0v7 M-2.5,-0.5L0,-3.0L2.5,-0.5"/>
  </g>
  <g id="arrowRight" transform="rotate(90) translate(36 -43)">
    <use xlink:href="#rim"/>
    <path pointer-events="none" fill="none" stroke="white" stroke-width="1.5" d="M0,-3.0v7 M-2.5,-0.5L0,-3.0L2.5,-0.5"/>
  </g>
  <g id="arrowDown" transform="rotate(180) translate(-30 -48)">
    <use xlink:href="#rim"/>
    <path pointer-events="none" fill="none" stroke="white" stroke-width="1.5" d="M0,-3.0v7 M-2.5,-0.5L0,-3.0L2.5,-0.5"/>
  </g>
  <g id="arrowLeft" transform="rotate(270) translate(-36 17)">
    <use xlink:href="#rim"/>
    <path pointer-events="none" fill="none" stroke="white" stroke-width="1.5" d="M0,-3.0v7 M-2.5,-0.5L0,-3.0L2.5,-0.5"/>
  </g>
  <g id="resetDef">
    <use xlink:href="#rim2" fill="#404040"><set attributeName="fill" to="#808080" begin="reset.mouseover" end="reset.mouseout"/></use>
  </g>
</defs>
<script type="application/ecmascript">
var viewWidth = 3760;
var viewHeight = 176;
var sectionId = 'dynsection-0';
</script>
<script type="application/ecmascript" xlink:href="../../svg.min.js"/>
<svg id="graph" class="graph">
<g id="viewport">
<title>C:/GitHub/GEU/GEU/Source/Modules/Reconstruccion/ImageCloudProj.cpp</title>
<!-- Node1 -->
<g id="Node000001" class="node">
<title>Node1</title>
<g id="a_Node000001"><a xlink:title=" ">
<polygon fill="#999999" stroke="#666666" points="2974.38,-168 2833.88,-168 2833.88,-124 2974.38,-124 2974.38,-168"/>
<text text-anchor="start" x="2841.88" y="-154.5" font-family="Helvetica,sans-Serif" font-size="10.00">C:/GitHub/GEU/GEU/Source</text>
<text text-anchor="start" x="2841.88" y="-142.5" font-family="Helvetica,sans-Serif" font-size="10.00">/Modules/Reconstruccion</text>
<text text-anchor="middle" x="2904.12" y="-130.5" font-family="Helvetica,sans-Serif" font-size="10.00">/ImageCloudProj.cpp</text>
</a>
</g>
</g>
<!-- Node2 -->
<g id="Node000002" class="node">
<title>Node2</title>
<g id="a_Node000002"><a xlink:href="../../db/d06/stdafx_8h.html" target="_top" xlink:title=" ">
<polygon fill="#fff0f0" stroke="red" points="1881.38,-88 1830.88,-88 1830.88,-68 1881.38,-68 1881.38,-88"/>
<text text-anchor="middle" x="1856.12" y="-74.5" font-family="Helvetica,sans-Serif" font-size="10.00">stdafx.h</text>
</a>
</g>
</g>
<!-- Node1&#45;&gt;Node2 -->
<g id="edge1_Node000001_Node000002" class="edge">
<title>Node1&#45;&gt;Node2</title>
<g id="a_edge1_Node000001_Node000002"><a xlink:title=" ">
<path fill="none" stroke="#63b8ff" d="M2833.74,-140.57C2630.2,-127.75 2045.78,-90.94 1893.02,-81.32"/>
<polygon fill="#63b8ff" stroke="#63b8ff" points="1893.29,-77.83 1883.09,-80.7 1892.85,-84.82 1893.29,-77.83"/>
</a>
</g>
</g>
<!-- Node7 -->
<g id="Node000007" class="node">
<title>Node7</title>
<g id="a_Node000007"><a xlink:title=" ">
<polygon fill="#e0e0e0" stroke="#999999" points="60.25,-26 0,-26 0,-6 60.25,-6 60.25,-26"/>
<text text-anchor="middle" x="30.12" y="-12.5" font-family="Helvetica,sans-Serif" font-size="10.00">filesystem</text>
</a>
</g>
</g>
<!-- Node1&#45;&gt;Node7 -->
<g id="edge52_Node000001_Node000007" class="edge">
<title>Node1&#45;&gt;Node7</title>
<g id="a_edge52_Node000001_Node000007"><a xlink:title=" ">
<path fill="none" stroke="#63b8ff" d="M2833.54,-144.21C2490.93,-140.25 998.94,-121.37 535.12,-88 327.06,-73.03 271.58,-82.27 69.12,-32 66.96,-31.46 64.75,-30.84 62.54,-30.15"/>
<polygon fill="#63b8ff" stroke="#63b8ff" points="63.71,-26.85 53.11,-26.88 61.41,-33.47 63.71,-26.85"/>
</a>
</g>
</g>
<!-- Node20 -->
<g id="Node000020" class="node">
<title>Node20</title>
<g id="a_Node000020"><a xlink:title=" ">
<polygon fill="#e0e0e0" stroke="#999999" points="126.25,-26 78,-26 78,-6 126.25,-6 126.25,-26"/>
<text text-anchor="middle" x="102.12" y="-12.5" font-family="Helvetica,sans-Serif" font-size="10.00">random</text>
</a>
</g>
</g>
<!-- Node1&#45;&gt;Node20 -->
<g id="edge51_Node000001_Node000020" class="edge">
<title>Node1&#45;&gt;Node20</title>
<g id="a_edge51_Node000001_Node000020"><a xlink:title=" ">
<path fill="none" stroke="#63b8ff" d="M2833.56,-143.74C2428.2,-136.29 404.47,-96.12 135.12,-32 133.48,-31.61 131.82,-31.13 130.16,-30.6"/>
<polygon fill="#63b8ff" stroke="#63b8ff" points="131.48,-27.36 120.9,-26.95 128.92,-33.87 131.48,-27.36"/>
</a>
</g>
</g>
<!-- Node46 -->
<g id="Node000046" class="node">
<title>Node46</title>
<g id="a_Node000046"><a xlink:href="../../db/ddb/_image_cloud_proj_8h.html" target="_top" xlink:title=" ">
<polygon fill="#fff0f0" stroke="red" points="2829.38,-88 2736.88,-88 2736.88,-68 2829.38,-68 2829.38,-88"/>
<text text-anchor="middle" x="2783.12" y="-74.5" font-family="Helvetica,sans-Serif" font-size="10.00">ImageCloudProj.h</text>
</a>
</g>
</g>
<!-- Node1&#45;&gt;Node46 -->
<g id="edge42_Node000001_Node000046" class="edge">
<title>Node1&#45;&gt;Node46</title>
<g id="a_edge42_Node000001_Node000046"><a xlink:title=" ">
<path fill="none" stroke="#63b8ff" d="M2864.84,-123.57C2846.95,-113.81 2826.23,-102.51 2810.13,-93.73"/>
<polygon fill="#63b8ff" stroke="#63b8ff" points="2812.08,-90.81 2801.62,-89.09 2808.73,-96.95 2812.08,-90.81"/>
</a>
</g>
</g>
<!-- Node49 -->
<g id="Node000049" class="node">
<title>Node49</title>
<g id="a_Node000049"><a xlink:href="../../dc/d05/_point_cloud_8h.html" target="_top" xlink:title=" ">
<polygon fill="#fff0f0" stroke="red" points="3751.75,-26 3658.5,-26 3658.5,-6 3751.75,-6 3751.75,-26"/>
<text text-anchor="middle" x="3705.12" y="-12.5" font-family="Helvetica,sans-Serif" font-size="10.00">Core/pointCloud.h</text>
</a>
</g>
</g>
<!-- Node1&#45;&gt;Node49 -->
<g id="edge44_Node000001_Node000049" class="edge">
<title>Node1&#45;&gt;Node49</title>
<g id="a_edge44_Node000001_Node000049"><a xlink:title=" ">
<path fill="none" stroke="#63b8ff" d="M2833.43,-136.96C2769.62,-127.05 2691.02,-106.58 2728.12,-68 2763.66,-31.05 3599.46,-39.79 3650.12,-32 3654.8,-31.28 3659.65,-30.31 3664.44,-29.2"/>
<polygon fill="#63b8ff" stroke="#63b8ff" points="3665.11,-32.64 3673.95,-26.8 3663.4,-25.85 3665.11,-32.64"/>
</a>
</g>
</g>
<!-- Node65 -->
<g id="Node000065" class="node">
<title>Node65</title>
<g id="a_Node000065"><a xlink:href="../../d3/da0/_renderer_8h.html" target="_top" xlink:title=" ">
<polygon fill="#fff0f0" stroke="red" points="3065.38,-88 2978.88,-88 2978.88,-68 3065.38,-68 3065.38,-88"/>
<text text-anchor="middle" x="3022.12" y="-74.5" font-family="Helvetica,sans-Serif" font-size="10.00">Core/Renderer.h</text>
</a>
</g>
</g>
<!-- Node1&#45;&gt;Node65 -->
<g id="edge45_Node000001_Node000065" class="edge">
<title>Node1&#45;&gt;Node65</title>
<g id="a_edge45_Node000001_Node000065"><a xlink:title=" ">
<path fill="none" stroke="#63b8ff" d="M2942.44,-123.57C2959.71,-113.91 2979.7,-102.73 2995.34,-93.98"/>
<polygon fill="#63b8ff" stroke="#63b8ff" points="2997.04,-97.04 3004.06,-89.1 2993.62,-90.93 2997.04,-97.04"/>
</a>
</g>
</g>
<!-- Node91 -->
<g id="Node000091" class="node">
<title>Node91</title>
<g id="a_Node000091"><a xlink:href="../../d3/df1/_file_manager_8h.html" target="_top" xlink:title=" ">
<polygon fill="white" stroke="#666666" points="2960.5,-88 2847.75,-88 2847.75,-68 2960.5,-68 2960.5,-88"/>
<text text-anchor="middle" x="2904.12" y="-74.5" font-family="Helvetica,sans-Serif" font-size="10.00">Utilities/FileManager.h</text>
</a>
</g>
</g>
<!-- Node1&#45;&gt;Node91 -->
<g id="edge46_Node000001_Node000091" class="edge">
<title>Node1&#45;&gt;Node91</title>
<g id="a_edge46_Node000001_Node000091"><a xlink:title=" ">
<path fill="none" stroke="#63b8ff" d="M2904.12,-123.75C2904.12,-116.13 2904.12,-107.53 2904.12,-99.93"/>
<polygon fill="#63b8ff" stroke="#63b8ff" points="2907.63,-99.93 2904.13,-89.93 2900.63,-99.93 2907.63,-99.93"/>
</a>
</g>
</g>
<!-- Node92 -->
<g id="Node000092" class="node">
<title>Node92</title>
<g id="a_Node000092"><a xlink:title=" ">
<polygon fill="#e0e0e0" stroke="#999999" points="3145,-88 3083.25,-88 3083.25,-68 3145,-68 3145,-88"/>
<text text-anchor="middle" x="3114.12" y="-74.5" font-family="Helvetica,sans-Serif" font-size="10.00">gdal_priv.h</text>
</a>
</g>
</g>
<!-- Node1&#45;&gt;Node92 -->
<g id="edge48_Node000001_Node000092" class="edge">
<title>Node1&#45;&gt;Node92</title>
<g id="a_edge48_Node000001_Node000092"><a xlink:title=" ">
<path fill="none" stroke="#63b8ff" d="M2972.31,-123.57C3005.61,-113.1 3044.57,-100.86 3073.22,-91.85"/>
<polygon fill="#63b8ff" stroke="#63b8ff" points="3074.12,-95.24 3082.61,-88.91 3072.02,-88.57 3074.12,-95.24"/>
</a>
</g>
</g>
<!-- Node93 -->
<g id="Node000093" class="node">
<title>Node93</title>
<g id="a_Node000093"><a xlink:title=" ">
<polygon fill="#e0e0e0" stroke="#999999" points="3283.25,-88 3163,-88 3163,-68 3283.25,-68 3283.25,-88"/>
<text text-anchor="middle" x="3223.12" y="-74.5" font-family="Helvetica,sans-Serif" font-size="10.00">opencv2/imgcodecs.hpp</text>
</a>
</g>
</g>
<!-- Node1&#45;&gt;Node93 -->
<g id="edge49_Node000001_Node000093" class="edge">
<title>Node1&#45;&gt;Node93</title>
<g id="a_edge49_Node000001_Node000093"><a xlink:title=" ">
<path fill="none" stroke="#63b8ff" d="M2974.53,-130.43C3032.25,-118.49 3112.91,-101.8 3166.51,-90.71"/>
<polygon fill="#63b8ff" stroke="#63b8ff" points="3166.96,-94.2 3176.04,-88.74 3165.54,-87.34 3166.96,-94.2"/>
</a>
</g>
</g>
<!-- Node94 -->
<g id="Node000094" class="node">
<title>Node94</title>
<g id="a_Node000094"><a xlink:title=" ">
<polygon fill="#e0e0e0" stroke="#999999" points="3405,-88 3301.25,-88 3301.25,-68 3405,-68 3405,-88"/>
<text text-anchor="middle" x="3353.12" y="-74.5" font-family="Helvetica,sans-Serif" font-size="10.00">opencv2/highgui.hpp</text>
</a>
</g>
</g>
<!-- Node1&#45;&gt;Node94 -->
<g id="edge50_Node000001_Node000094" class="edge">
<title>Node1&#45;&gt;Node94</title>
<g id="a_edge50_Node000001_Node000094"><a xlink:title=" ">
<path fill="none" stroke="#63b8ff" d="M2974.57,-134.66C3049.89,-123.61 3173.15,-105.51 3289.63,-88.37"/>
<polygon fill="#63b8ff" stroke="#63b8ff" points="3290,-91.85 3299.38,-86.93 3288.98,-84.92 3290,-91.85"/>
</a>
</g>
</g>
<!-- Node95 -->
<g id="Node000095" class="node">
<title>Node95</title>
<g id="a_Node000095"><a xlink:title=" ">
<polygon fill="#e0e0e0" stroke="#999999" points="3469.12,-88 3423.12,-88 3423.12,-68 3469.12,-68 3469.12,-88"/>
<text text-anchor="middle" x="3446.12" y="-74.5" font-family="Helvetica,sans-Serif" font-size="10.00">errno.h</text>
</a>
</g>
</g>
<!-- Node1&#45;&gt;Node95 -->
<g id="edge53_Node000001_Node000095" class="edge">
<title>Node1&#45;&gt;Node95</title>
<g id="a_edge53_Node000001_Node000095"><a xlink:title=" ">
<path fill="none" stroke="#63b8ff" d="M2974.8,-140.75C3071.53,-134.13 3250.64,-118.99 3411.74,-88.18"/>
<polygon fill="#63b8ff" stroke="#63b8ff" points="3412.18,-91.66 3421.33,-86.32 3410.84,-84.79 3412.18,-91.66"/>
</a>
</g>
</g>
<!-- Node3 -->
<g id="Node000003" class="node">
<title>Node3</title>
<g id="a_Node000003"><a xlink:title=" ">
<polygon fill="#e0e0e0" stroke="#999999" points="3089.75,-26 3044.5,-26 3044.5,-6 3089.75,-6 3089.75,-26"/>
<text text-anchor="middle" x="3067.12" y="-12.5" font-family="Helvetica,sans-Serif" font-size="10.00">cstdint</text>
</a>
</g>
</g>
<!-- Node2&#45;&gt;Node3 -->
<g id="edge2_Node000002_Node000003" class="edge">
<title>Node2&#45;&gt;Node3</title>
<g id="a_edge2_Node000002_Node000003"><a xlink:title=" ">
<path fill="none" stroke="#63b8ff" d="M1881.73,-76.65C2043.48,-74.38 2920.63,-60.8 3036.12,-32 3037.53,-31.65 3038.94,-31.23 3040.35,-30.76"/>
<polygon fill="#63b8ff" stroke="#63b8ff" points="3041.57,-34.05 3049.47,-26.99 3038.89,-27.58 3041.57,-34.05"/>
</a>
</g>
</g>
<!-- Node4 -->
<g id="Node000004" class="node">
<title>Node4</title>
<g id="a_Node000004"><a xlink:title=" ">
<polygon fill="#e0e0e0" stroke="#999999" points="3152.38,-26 3107.88,-26 3107.88,-6 3152.38,-6 3152.38,-26"/>
<text text-anchor="middle" x="3130.12" y="-12.5" font-family="Helvetica,sans-Serif" font-size="10.00">cstdlib</text>
</a>
</g>
</g>
<!-- Node2&#45;&gt;Node4 -->
<g id="edge3_Node000002_Node000004" class="edge">
<title>Node2&#45;&gt;Node4</title>
<g id="a_edge3_Node000002_Node000004"><a xlink:title=" ">
<path fill="none" stroke="#63b8ff" d="M1881.73,-76.71C2048.5,-74.71 2977.11,-62.3 3099.12,-32 3100.53,-31.65 3101.94,-31.23 3103.36,-30.77"/>
<polygon fill="#63b8ff" stroke="#63b8ff" points="3104.57,-34.05 3112.47,-27 3101.89,-27.58 3104.57,-34.05"/>
</a>
</g>
</g>
<!-- Node5 -->
<g id="Node000005" class="node">
<title>Node5</title>
<g id="a_Node000005"><a xlink:title=" ">
<polygon fill="#e0e0e0" stroke="#999999" points="3228.12,-26 3170.12,-26 3170.12,-6 3228.12,-6 3228.12,-26"/>
<text text-anchor="middle" x="3199.12" y="-12.5" font-family="Helvetica,sans-Serif" font-size="10.00">execution</text>
</a>
</g>
</g>
<!-- Node2&#45;&gt;Node5 -->
<g id="edge4_Node000002_Node000005" class="edge">
<title>Node2&#45;&gt;Node5</title>
<g id="a_edge4_Node000002_Node000005"><a xlink:title=" ">
<path fill="none" stroke="#63b8ff" d="M1881.87,-76.64C2053.71,-74.16 3031.64,-58.95 3161.12,-32 3163.46,-31.51 3165.83,-30.9 3168.2,-30.19"/>
<polygon fill="#63b8ff" stroke="#63b8ff" points="3169.3,-33.52 3177.58,-26.91 3166.99,-26.91 3169.3,-33.52"/>
</a>
</g>
</g>
<!-- Node6 -->
<g id="Node000006" class="node">
<title>Node6</title>
<g id="a_Node000006"><a xlink:title=" ">
<polygon fill="#e0e0e0" stroke="#999999" points="3299.88,-26 3246.38,-26 3246.38,-6 3299.88,-6 3299.88,-26"/>
<text text-anchor="middle" x="3273.12" y="-12.5" font-family="Helvetica,sans-Serif" font-size="10.00">iostream</text>
</a>
</g>
</g>
<!-- Node2&#45;&gt;Node6 -->
<g id="edge5_Node000002_Node000006" class="edge">
<title>Node2&#45;&gt;Node6</title>
<g id="a_edge5_Node000002_Node000006"><a xlink:title=" ">
<path fill="none" stroke="#63b8ff" d="M1881.65,-76.72C2058.6,-74.73 3099.91,-61.77 3237.12,-32 3239.17,-31.56 3241.25,-31 3243.32,-30.37"/>
<polygon fill="#63b8ff" stroke="#63b8ff" points="3244.5,-33.66 3252.69,-26.94 3242.1,-27.09 3244.5,-33.66"/>
</a>
</g>
</g>
<!-- Node2&#45;&gt;Node7 -->
<g id="edge6_Node000002_Node000007" class="edge">
<title>Node2&#45;&gt;Node7</title>
<g id="a_edge6_Node000002_Node000007"><a xlink:title=" ">
<path fill="none" stroke="#63b8ff" d="M1830.39,-76.88C1624.58,-75.87 249.29,-67.8 69.12,-32 66.64,-31.51 64.11,-30.87 61.58,-30.13"/>
<polygon fill="#63b8ff" stroke="#63b8ff" points="62.81,-26.85 52.22,-26.94 60.55,-33.48 62.81,-26.85"/>
</a>
</g>
</g>
<!-- Node8 -->
<g id="Node000008" class="node">
<title>Node8</title>
<g id="a_Node000008"><a xlink:title=" ">
<polygon fill="#e0e0e0" stroke="#999999" points="3360.62,-26 3317.62,-26 3317.62,-6 3360.62,-6 3360.62,-26"/>
<text text-anchor="middle" x="3339.12" y="-12.5" font-family="Helvetica,sans-Serif" font-size="10.00">format</text>
</a>
</g>
</g>
<!-- Node2&#45;&gt;Node8 -->
<g id="edge7_Node000002_Node000008" class="edge">
<title>Node2&#45;&gt;Node8</title>
<g id="a_edge7_Node000002_Node000008"><a xlink:title=" ">
<path fill="none" stroke="#63b8ff" d="M1881.82,-76.87C2064.67,-75.85 3165.59,-68.24 3309.12,-32 3310.49,-31.66 3311.87,-31.24 3313.24,-30.78"/>
<polygon fill="#63b8ff" stroke="#63b8ff" points="3314.21,-34.17 3322.04,-27.03 3311.47,-27.73 3314.21,-34.17"/>
</a>
</g>
</g>
<!-- Node9 -->
<g id="Node000009" class="node">
<title>Node9</title>
<g id="a_Node000009"><a xlink:title=" ">
<polygon fill="#e0e0e0" stroke="#999999" points="3427.25,-26 3379,-26 3379,-6 3427.25,-6 3427.25,-26"/>
<text text-anchor="middle" x="3403.12" y="-12.5" font-family="Helvetica,sans-Serif" font-size="10.00">fstream</text>
</a>
</g>
</g>
<!-- Node2&#45;&gt;Node9 -->
<g id="edge8_Node000002_Node000009" class="edge">
<title>Node2&#45;&gt;Node9</title>
<g id="a_edge8_Node000002_Node000009"><a xlink:title=" ">
<path fill="none" stroke="#63b8ff" d="M1881.68,-76.85C2068.41,-75.66 3219.56,-66.96 3370.12,-32 3371.77,-31.62 3373.44,-31.15 3375.1,-30.62"/>
<polygon fill="#63b8ff" stroke="#63b8ff" points="3376.33,-33.9 3384.36,-26.99 3373.77,-27.38 3376.33,-33.9"/>
</a>
</g>
</g>
<!-- Node10 -->
<g id="Node000010" class="node">
<title>Node10</title>
<g id="a_Node000010"><a xlink:title=" ">
<polygon fill="#e0e0e0" stroke="#999999" points="3502.75,-26 3445.5,-26 3445.5,-6 3502.75,-6 3502.75,-26"/>
<text text-anchor="middle" x="3474.12" y="-12.5" font-family="Helvetica,sans-Serif" font-size="10.00">functional</text>
</a>
</g>
</g>
<!-- Node2&#45;&gt;Node10 -->
<g id="edge9_Node000002_Node000010" class="edge">
<title>Node2&#45;&gt;Node10</title>
<g id="a_edge9_Node000002_Node000010"><a xlink:title=" ">
<path fill="none" stroke="#63b8ff" d="M1881.85,-76.8C2073.69,-75.28 3277.85,-64.45 3436.12,-32 3438.46,-31.52 3440.84,-30.91 3443.2,-30.21"/>
<polygon fill="#63b8ff" stroke="#63b8ff" points="3444.3,-33.53 3452.58,-26.94 3441.99,-26.93 3444.3,-33.53"/>
</a>
</g>
</g>
<!-- Node11 -->
<g id="Node000011" class="node">
<title>Node11</title>
<g id="a_Node000011"><a xlink:title=" ">
<polygon fill="#e0e0e0" stroke="#999999" points="3571.75,-26 3520.5,-26 3520.5,-6 3571.75,-6 3571.75,-26"/>
<text text-anchor="middle" x="3546.12" y="-12.5" font-family="Helvetica,sans-Serif" font-size="10.00">memory</text>
</a>
</g>
</g>
<!-- Node2&#45;&gt;Node11 -->
<g id="edge10_Node000002_Node000011" class="edge">
<title>Node2&#45;&gt;Node11</title>
<g id="a_edge10_Node000002_Node000011"><a xlink:title=" ">
<path fill="none" stroke="#63b8ff" d="M1881.72,-76.59C2084.74,-73.27 3429.13,-50.67 3512.12,-32 3513.9,-31.6 3515.7,-31.11 3517.49,-30.54"/>
<polygon fill="#63b8ff" stroke="#63b8ff" points="3518.71,-33.82 3526.81,-26.99 3516.21,-27.29 3518.71,-33.82"/>
</a>
</g>
</g>
<!-- Node12 -->
<g id="Node000012" class="node">
<title>Node12</title>
<g id="a_Node000012"><a xlink:title=" ">
<polygon fill="#e0e0e0" stroke="#999999" points="3640.75,-26 3589.5,-26 3589.5,-6 3640.75,-6 3640.75,-26"/>
<text text-anchor="middle" x="3615.12" y="-12.5" font-family="Helvetica,sans-Serif" font-size="10.00">sstream</text>
</a>
</g>
</g>
<!-- Node2&#45;&gt;Node12 -->
<g id="edge11_Node000002_Node000012" class="edge">
<title>Node2&#45;&gt;Node12</title>
<g id="a_edge11_Node000002_Node000012"><a xlink:title=" ">
<path fill="none" stroke="#63b8ff" d="M1881.79,-76.61C2089.82,-73.45 3494.53,-51.44 3581.12,-32 3582.9,-31.6 3584.7,-31.11 3586.49,-30.55"/>
<polygon fill="#63b8ff" stroke="#63b8ff" points="3587.71,-33.83 3595.81,-26.99 3585.22,-27.29 3587.71,-33.83"/>
</a>
</g>
</g>
<!-- Node13 -->
<g id="Node000013" class="node">
<title>Node13</title>
<g id="a_Node000013"><a xlink:title=" ">
<polygon fill="#e0e0e0" stroke="#999999" points="186.25,-26 144,-26 144,-6 186.25,-6 186.25,-26"/>
<text text-anchor="middle" x="165.12" y="-12.5" font-family="Helvetica,sans-Serif" font-size="10.00">cstdio</text>
</a>
</g>
</g>
<!-- Node2&#45;&gt;Node13 -->
<g id="edge12_Node000002_Node000013" class="edge">
<title>Node2&#45;&gt;Node13</title>
<g id="a_edge12_Node000002_Node000013"><a xlink:title=" ">
<path fill="none" stroke="#63b8ff" d="M1830.39,-76.46C1623.41,-72.08 236.55,-42.37 195.12,-32 193.76,-31.66 192.38,-31.25 191.01,-30.78"/>
<polygon fill="#63b8ff" stroke="#63b8ff" points="192.78,-27.73 182.21,-27.04 190.04,-34.17 192.78,-27.73"/>
</a>
</g>
</g>
<!-- Node14 -->
<g id="Node000014" class="node">
<title>Node14</title>
<g id="a_Node000014"><a xlink:title=" ">
<polygon fill="#e0e0e0" stroke="#999999" points="247.62,-26 204.62,-26 204.62,-6 247.62,-6 247.62,-26"/>
<text text-anchor="middle" x="226.12" y="-12.5" font-family="Helvetica,sans-Serif" font-size="10.00">thread</text>
</a>
</g>
</g>
<!-- Node2&#45;&gt;Node14 -->
<g id="edge13_Node000002_Node000014" class="edge">
<title>Node2&#45;&gt;Node14</title>
<g id="a_edge13_Node000002_Node000014"><a xlink:title=" ">
<path fill="none" stroke="#63b8ff" d="M1830.4,-76.43C1627.88,-71.89 297,-41.73 257.12,-32 255.72,-31.66 254.3,-31.25 252.89,-30.78"/>
<polygon fill="#63b8ff" stroke="#63b8ff" points="254.35,-27.6 243.77,-27.02 251.68,-34.07 254.35,-27.6"/>
</a>
</g>
</g>
<!-- Node15 -->
<g id="Node000015" class="node">
<title>Node15</title>
<g id="a_Node000015"><a xlink:title=" ">
<polygon fill="#e0e0e0" stroke="#999999" points="348.5,-26 265.75,-26 265.75,-6 348.5,-6 348.5,-26"/>
<text text-anchor="middle" x="307.12" y="-12.5" font-family="Helvetica,sans-Serif" font-size="10.00">unordered_map</text>
</a>
</g>
</g>
<!-- Node2&#45;&gt;Node15 -->
<g id="edge14_Node000002_Node000015" class="edge">
<title>Node2&#45;&gt;Node15</title>
<g id="a_edge14_Node000002_Node000015"><a xlink:title=" ">
<path fill="none" stroke="#63b8ff" d="M1830.59,-76.42C1639.06,-72.08 432.82,-44.27 357.12,-32 353.2,-31.36 349.16,-30.51 345.15,-29.52"/>
<polygon fill="#63b8ff" stroke="#63b8ff" points="346.1,-26.15 335.53,-26.89 344.25,-32.9 346.1,-26.15"/>
</a>
</g>
</g>
<!-- Node16 -->
<g id="Node000016" class="node">
<title>Node16</title>
<g id="a_Node000016"><a xlink:title=" ">
<polygon fill="#e0e0e0" stroke="#999999" points="443.88,-26 366.38,-26 366.38,-6 443.88,-6 443.88,-26"/>
<text text-anchor="middle" x="405.12" y="-12.5" font-family="Helvetica,sans-Serif" font-size="10.00">unordered_set</text>
</a>
</g>
</g>
<!-- Node2&#45;&gt;Node16 -->
<g id="edge15_Node000002_Node000016" class="edge">
<title>Node2&#45;&gt;Node16</title>
<g id="a_edge15_Node000002_Node000016"><a xlink:title=" ">
<path fill="none" stroke="#63b8ff" d="M1830.48,-76.37C1645.77,-71.85 523.67,-43.93 453.12,-32 449.47,-31.38 445.7,-30.55 441.96,-29.61"/>
<polygon fill="#63b8ff" stroke="#63b8ff" points="443,-26.26 432.43,-26.9 441.09,-33 443,-26.26"/>
</a>
</g>
</g>
<!-- Node17 -->
<g id="Node000017" class="node">
<title>Node17</title>
<g id="a_Node000017"><a xlink:title=" ">
<polygon fill="#e0e0e0" stroke="#999999" points="503.88,-26 462.38,-26 462.38,-6 503.88,-6 503.88,-26"/>
<text text-anchor="middle" x="483.12" y="-12.5" font-family="Helvetica,sans-Serif" font-size="10.00">vector</text>
</a>
</g>
</g>
<!-- Node2&#45;&gt;Node17 -->
<g id="edge16_Node000002_Node000017" class="edge">
<title>Node2&#45;&gt;Node17</title>
<g id="a_edge16_Node000002_Node000017"><a xlink:title=" ">
<path fill="none" stroke="#63b8ff" d="M1830.41,-76.45C1650.01,-72.56 579.37,-48.81 513.12,-32 511.76,-31.65 510.38,-31.24 509.01,-30.77"/>
<polygon fill="#63b8ff" stroke="#63b8ff" points="510.79,-27.72 500.21,-27.02 508.04,-34.16 510.79,-27.72"/>
</a>
</g>
</g>
<!-- Node18 -->
<g id="Node000018" class="node">
<title>Node18</title>
<g id="a_Node000018"><a xlink:title=" ">
<polygon fill="#e0e0e0" stroke="#999999" points="562.12,-26 522.12,-26 522.12,-6 562.12,-6 562.12,-26"/>
<text text-anchor="middle" x="542.12" y="-12.5" font-family="Helvetica,sans-Serif" font-size="10.00">future</text>
</a>
</g>
</g>
<!-- Node2&#45;&gt;Node18 -->
<g id="edge17_Node000002_Node000018" class="edge">
<title>Node2&#45;&gt;Node18</title>
<g id="a_edge17_Node000002_Node000018"><a xlink:title=" ">
<path fill="none" stroke="#63b8ff" d="M1830.4,-76.42C1654.52,-72.42 634.25,-48.54 571.12,-32 569.95,-31.69 568.76,-31.33 567.58,-30.92"/>
<polygon fill="#63b8ff" stroke="#63b8ff" points="569.22,-27.82 558.65,-27.03 566.42,-34.24 569.22,-27.82"/>
</a>
</g>
</g>
<!-- Node19 -->
<g id="Node000019" class="node">
<title>Node19</title>
<g id="a_Node000019"><a xlink:title=" ">
<polygon fill="#e0e0e0" stroke="#999999" points="619.75,-26 580.5,-26 580.5,-6 619.75,-6 619.75,-26"/>
<text text-anchor="middle" x="600.12" y="-12.5" font-family="Helvetica,sans-Serif" font-size="10.00">utility</text>
</a>
</g>
</g>
<!-- Node2&#45;&gt;Node19 -->
<g id="edge18_Node000002_Node000019" class="edge">
<title>Node2&#45;&gt;Node19</title>
<g id="a_edge18_Node000002_Node000019"><a xlink:title=" ">
<path fill="none" stroke="#63b8ff" d="M1830.48,-76.38C1659.46,-72.19 689.27,-47.81 629.12,-32 627.95,-31.69 626.76,-31.33 625.58,-30.92"/>
<polygon fill="#63b8ff" stroke="#63b8ff" points="627.22,-27.82 616.66,-27.03 624.42,-34.23 627.22,-27.82"/>
</a>
</g>
</g>
<!-- Node2&#45;&gt;Node20 -->
<g id="edge19_Node000002_Node000020" class="edge">
<title>Node2&#45;&gt;Node20</title>
<g id="a_edge19_Node000002_Node000020"><a xlink:title=" ">
<path fill="none" stroke="#63b8ff" d="M1830.48,-76.47C1619.58,-72.11 178.31,-41.95 135.12,-32 133.48,-31.62 131.81,-31.16 130.15,-30.63"/>
<polygon fill="#63b8ff" stroke="#63b8ff" points="131.47,-27.39 120.89,-27 128.92,-33.91 131.47,-27.39"/>
</a>
</g>
</g>
<!-- Node21 -->
<g id="Node000021" class="node">
<title>Node21</title>
<g id="a_Node000021"><a xlink:title=" ">
<polygon fill="#e0e0e0" stroke="#999999" points="678.12,-26 638.12,-26 638.12,-6 678.12,-6 678.12,-26"/>
<text text-anchor="middle" x="658.12" y="-12.5" font-family="Helvetica,sans-Serif" font-size="10.00">regex</text>
</a>
</g>
</g>
<!-- Node2&#45;&gt;Node21 -->
<g id="edge20_Node000002_Node000021" class="edge">
<title>Node2&#45;&gt;Node21</title>
<g id="a_edge20_Node000002_Node000021"><a xlink:title=" ">
<path fill="none" stroke="#63b8ff" d="M1830.63,-76.33C1664.8,-71.96 744.29,-47.08 687.12,-32 685.95,-31.69 684.76,-31.32 683.58,-30.92"/>
<polygon fill="#63b8ff" stroke="#63b8ff" points="685.22,-27.82 674.66,-27.02 682.42,-34.23 685.22,-27.82"/>
</a>
</g>
</g>
<!-- Node22 -->
<g id="Node000022" class="node">
<title>Node22</title>
<g id="a_Node000022"><a xlink:title=" ">
<polygon fill="#e0e0e0" stroke="#999999" points="765.75,-26 696.5,-26 696.5,-6 765.75,-6 765.75,-26"/>
<text text-anchor="middle" x="731.12" y="-12.5" font-family="Helvetica,sans-Serif" font-size="10.00">WinSock2.h</text>
</a>
</g>
</g>
<!-- Node2&#45;&gt;Node22 -->
<g id="edge21_Node000002_Node000022" class="edge">
<title>Node2&#45;&gt;Node22</title>
<g id="a_edge21_Node000002_Node000022"><a xlink:title=" ">
<path fill="none" stroke="#63b8ff" d="M1830.73,-76.39C1677.67,-72.66 880.89,-52.38 774.12,-32 771.1,-31.42 768,-30.67 764.91,-29.82"/>
<polygon fill="#63b8ff" stroke="#63b8ff" points="766.02,-26.5 755.43,-26.83 763.92,-33.17 766.02,-26.5"/>
</a>
</g>
</g>
<!-- Node23 -->
<g id="Node000023" class="node">
<title>Node23</title>
<g id="a_Node000023"><a xlink:title=" ">
<polygon fill="#e0e0e0" stroke="#999999" points="844.62,-26 783.62,-26 783.62,-6 844.62,-6 844.62,-26"/>
<text text-anchor="middle" x="814.12" y="-12.5" font-family="Helvetica,sans-Serif" font-size="10.00">windows.h</text>
</a>
</g>
</g>
<!-- Node2&#45;&gt;Node23 -->
<g id="edge22_Node000002_Node000023" class="edge">
<title>Node2&#45;&gt;Node23</title>
<g id="a_edge22_Node000002_Node000023"><a xlink:title=" ">
<path fill="none" stroke="#63b8ff" d="M1830.73,-76.34C1684.44,-72.44 952.33,-52.09 854.12,-32 851.49,-31.46 848.8,-30.77 846.12,-29.99"/>
<polygon fill="#63b8ff" stroke="#63b8ff" points="847.38,-26.72 836.78,-26.85 845.15,-33.36 847.38,-26.72"/>
</a>
</g>
</g>
<!-- Node24 -->
<g id="Node000024" class="node">
<title>Node24</title>
<g id="a_Node000024"><a xlink:href="../../de/dbf/locale__strings_8h.html" target="_top" xlink:title=" ">
<polygon fill="white" stroke="#666666" points="947.25,-26 863,-26 863,-6 947.25,-6 947.25,-26"/>
<text text-anchor="middle" x="905.12" y="-12.5" font-family="Helvetica,sans-Serif" font-size="10.00">locale_strings.h</text>
</a>
</g>
</g>
<!-- Node2&#45;&gt;Node24 -->
<g id="edge23_Node000002_Node000024" class="edge">
<title>Node2&#45;&gt;Node24</title>
<g id="a_edge23_Node000002_Node000024"><a xlink:title=" ">
<path fill="none" stroke="#63b8ff" d="M1830.41,-76.53C1702.17,-74.08 1131,-61.66 956.12,-32 952.06,-31.31 947.87,-30.41 943.71,-29.38"/>
<polygon fill="#63b8ff" stroke="#63b8ff" points="944.93,-26.09 934.37,-26.85 943.1,-32.84 944.93,-26.09"/>
</a>
</g>
</g>
<!-- Node25 -->
<g id="Node000025" class="node">
<title>Node25</title>
<g id="a_Node000025"><a xlink:title=" ">
<polygon fill="#e0e0e0" stroke="#999999" points="1024.88,-26 965.38,-26 965.38,-6 1024.88,-6 1024.88,-26"/>
<text text-anchor="middle" x="995.12" y="-12.5" font-family="Helvetica,sans-Serif" font-size="10.00">GL/glew.h</text>
</a>
</g>
</g>
<!-- Node2&#45;&gt;Node25 -->
<g id="edge24_Node000002_Node000025" class="edge">
<title>Node2&#45;&gt;Node25</title>
<g id="a_edge24_Node000002_Node000025"><a xlink:title=" ">
<path fill="none" stroke="#63b8ff" d="M1830.61,-76.67C1709.47,-74.96 1191.7,-65.74 1034.12,-32 1031.8,-31.5 1029.43,-30.88 1027.06,-30.19"/>
<polygon fill="#63b8ff" stroke="#63b8ff" points="1028.24,-26.89 1017.65,-26.98 1025.98,-33.52 1028.24,-26.89"/>
</a>
</g>
</g>
<!-- Node26 -->
<g id="Node000026" class="node">
<title>Node26</title>
<g id="a_Node000026"><a xlink:title=" ">
<polygon fill="#e0e0e0" stroke="#999999" points="1120.88,-26 1043.38,-26 1043.38,-6 1120.88,-6 1120.88,-26"/>
<text text-anchor="middle" x="1082.12" y="-12.5" font-family="Helvetica,sans-Serif" font-size="10.00">GLFW/glfw3.h</text>
</a>
</g>
</g>
<!-- Node2&#45;&gt;Node26 -->
<g id="edge25_Node000002_Node000026" class="edge">
<title>Node2&#45;&gt;Node26</title>
<g id="a_edge25_Node000002_Node000026"><a xlink:title=" ">
<path fill="none" stroke="#63b8ff" d="M1830.66,-76.27C1718.52,-72.91 1268.02,-58.05 1129.12,-32 1125.7,-31.36 1122.18,-30.54 1118.67,-29.62"/>
<polygon fill="#63b8ff" stroke="#63b8ff" points="1119.72,-26.28 1109.14,-26.84 1117.76,-33 1119.72,-26.28"/>
</a>
</g>
</g>
<!-- Node27 -->
<g id="Node000027" class="node">
<title>Node27</title>
<g id="a_Node000027"><a xlink:title=" ">
<polygon fill="#e0e0e0" stroke="#999999" points="1207.75,-26 1138.5,-26 1138.5,-6 1207.75,-6 1207.75,-26"/>
<text text-anchor="middle" x="1173.12" y="-12.5" font-family="Helvetica,sans-Serif" font-size="10.00">glm/glm.hpp</text>
</a>
</g>
</g>
<!-- Node2&#45;&gt;Node27 -->
<g id="edge26_Node000002_Node000027" class="edge">
<title>Node2&#45;&gt;Node27</title>
<g id="a_edge26_Node000002_Node000027"><a xlink:title=" ">
<path fill="none" stroke="#63b8ff" d="M1830.54,-77.55C1743.58,-78.91 1451.76,-79.42 1217.12,-32 1214.11,-31.39 1211.03,-30.63 1207.95,-29.78"/>
<polygon fill="#63b8ff" stroke="#63b8ff" points="1209.06,-26.46 1198.47,-26.84 1206.99,-33.15 1209.06,-26.46"/>
</a>
</g>
</g>
<!-- Node28 -->
<g id="Node000028" class="node">
<title>Node28</title>
<g id="a_Node000028"><a xlink:title=" ">
<polygon fill="#e0e0e0" stroke="#999999" points="1338.5,-26 1225.75,-26 1225.75,-6 1338.5,-6 1338.5,-26"/>
<text text-anchor="middle" x="1282.12" y="-12.5" font-family="Helvetica,sans-Serif" font-size="10.00">glm/gtc/constants.hpp</text>
</a>
</g>
</g>
<!-- Node2&#45;&gt;Node28 -->
<g id="edge27_Node000002_Node000028" class="edge">
<title>Node2&#45;&gt;Node28</title>
<g id="a_edge27_Node000002_Node000028"><a xlink:title=" ">
<path fill="none" stroke="#63b8ff" d="M1830.6,-75.96C1755.97,-72.66 1531.8,-60.87 1348.12,-32 1342.47,-31.11 1336.57,-30.02 1330.73,-28.83"/>
<polygon fill="#63b8ff" stroke="#63b8ff" points="1331.64,-25.44 1321.13,-26.77 1330.17,-32.29 1331.64,-25.44"/>
</a>
</g>
</g>
<!-- Node29 -->
<g id="Node000029" class="node">
<title>Node29</title>
<g id="a_Node000029"><a xlink:title=" ">
<polygon fill="#e0e0e0" stroke="#999999" points="1499.5,-26 1356.75,-26 1356.75,-6 1499.5,-6 1499.5,-26"/>
<text text-anchor="middle" x="1428.12" y="-12.5" font-family="Helvetica,sans-Serif" font-size="10.00">glm/gtc/matrix_transform.hpp</text>
</a>
</g>
</g>
<!-- Node2&#45;&gt;Node29 -->
<g id="edge28_Node000002_Node000029" class="edge">
<title>Node2&#45;&gt;Node29</title>
<g id="a_edge28_Node000002_Node000029"><a xlink:title=" ">
<path fill="none" stroke="#63b8ff" d="M1830.73,-74.22C1773.18,-67.8 1628.47,-51.05 1508.12,-32 1501.43,-30.94 1494.43,-29.75 1487.48,-28.52"/>
<polygon fill="#63b8ff" stroke="#63b8ff" points="1488.23,-25.1 1477.76,-26.76 1486.98,-31.98 1488.23,-25.1"/>
</a>
</g>
</g>
<!-- Node30 -->
<g id="Node000030" class="node">
<title>Node30</title>
<g id="a_Node000030"><a xlink:title=" ">
<polygon fill="#e0e0e0" stroke="#999999" points="1657,-26 1517.25,-26 1517.25,-6 1657,-6 1657,-26"/>
<text text-anchor="middle" x="1587.12" y="-12.5" font-family="Helvetica,sans-Serif" font-size="10.00">glm/ext/vector_relational.hpp</text>
</a>
</g>
</g>
<!-- Node2&#45;&gt;Node30 -->
<g id="edge29_Node000002_Node000030" class="edge">
<title>Node2&#45;&gt;Node30</title>
<g id="a_edge29_Node000002_Node000030"><a xlink:title=" ">
<path fill="none" stroke="#63b8ff" d="M1830.82,-71.36C1787.54,-61.7 1698.39,-41.82 1640.76,-28.96"/>
<polygon fill="#63b8ff" stroke="#63b8ff" points="1641.68,-25.58 1631.15,-26.82 1640.15,-32.41 1641.68,-25.58"/>
</a>
</g>
</g>
<!-- Node31 -->
<g id="Node000031" class="node">
<title>Node31</title>
<g id="a_Node000031"><a xlink:title=" ">
<polygon fill="#e0e0e0" stroke="#999999" points="1775.5,-26 1674.75,-26 1674.75,-6 1775.5,-6 1775.5,-26"/>
<text text-anchor="middle" x="1725.12" y="-12.5" font-family="Helvetica,sans-Serif" font-size="10.00">glm/gtc/epsilon.hpp</text>
</a>
</g>
</g>
<!-- Node2&#45;&gt;Node31 -->
<g id="edge30_Node000002_Node000031" class="edge">
<title>Node2&#45;&gt;Node31</title>
<g id="a_edge30_Node000002_Node000031"><a xlink:title=" ">
<path fill="none" stroke="#63b8ff" d="M1835.66,-67.62C1814.22,-57.81 1780.31,-42.27 1755.69,-31"/>
<polygon fill="#63b8ff" stroke="#63b8ff" points="1757.38,-27.92 1746.83,-26.94 1754.46,-34.29 1757.38,-27.92"/>
</a>
</g>
</g>
<!-- Node32 -->
<g id="Node000032" class="node">
<title>Node32</title>
<g id="a_Node000032"><a xlink:title=" ">
<polygon fill="#e0e0e0" stroke="#999999" points="1918.5,-26 1793.75,-26 1793.75,-6 1918.5,-6 1918.5,-26"/>
<text text-anchor="middle" x="1856.12" y="-12.5" font-family="Helvetica,sans-Serif" font-size="10.00">glm/gtx/euler_angles.hpp</text>
</a>
</g>
</g>
<!-- Node2&#45;&gt;Node32 -->
<g id="edge31_Node000002_Node000032" class="edge">
<title>Node2&#45;&gt;Node32</title>
<g id="a_edge31_Node000002_Node000032"><a xlink:title=" ">
<path fill="none" stroke="#63b8ff" d="M1856.12,-67.62C1856.12,-59.56 1856.12,-47.65 1856.12,-37.41"/>
<polygon fill="#63b8ff" stroke="#63b8ff" points="1859.63,-37.63 1856.13,-27.63 1852.63,-37.63 1859.63,-37.63"/>
</a>
</g>
</g>
<!-- Node33 -->
<g id="Node000033" class="node">
<title>Node33</title>
<g id="a_Node000033"><a xlink:title=" ">
<polygon fill="#e0e0e0" stroke="#999999" points="1983.88,-26 1936.38,-26 1936.38,-6 1983.88,-6 1983.88,-26"/>
<text text-anchor="middle" x="1960.12" y="-12.5" font-family="Helvetica,sans-Serif" font-size="10.00">imgui.h</text>
</a>
</g>
</g>
<!-- Node2&#45;&gt;Node33 -->
<g id="edge32_Node000002_Node000033" class="edge">
<title>Node2&#45;&gt;Node33</title>
<g id="a_edge32_Node000002_Node000033"><a xlink:title=" ">
<path fill="none" stroke="#63b8ff" d="M1872.38,-67.62C1888.94,-58.07 1914.88,-43.11 1934.26,-31.92"/>
<polygon fill="#63b8ff" stroke="#63b8ff" points="1935.77,-35.09 1942.68,-27.07 1932.27,-29.03 1935.77,-35.09"/>
</a>
</g>
</g>
<!-- Node34 -->
<g id="Node000034" class="node">
<title>Node34</title>
<g id="a_Node000034"><a xlink:title=" ">
<polygon fill="#e0e0e0" stroke="#999999" points="2109.88,-32 2002.38,-32 2002.38,0 2109.88,0 2109.88,-32"/>
<text text-anchor="start" x="2010.38" y="-18.5" font-family="Helvetica,sans-Serif" font-size="10.00">backends/imgui_impl</text>
<text text-anchor="middle" x="2056.12" y="-6.5" font-family="Helvetica,sans-Serif" font-size="10.00">_glfw.h</text>
</a>
</g>
</g>
<!-- Node2&#45;&gt;Node34 -->
<g id="edge33_Node000002_Node000034" class="edge">
<title>Node2&#45;&gt;Node34</title>
<g id="a_edge33_Node000002_Node000034"><a xlink:title=" ">
<path fill="none" stroke="#63b8ff" d="M1881.86,-69.28C1910,-60.84 1956.1,-47.01 1993.82,-35.69"/>
<polygon fill="#63b8ff" stroke="#63b8ff" points="1994.7,-39.08 2003.27,-32.86 1992.68,-32.38 1994.7,-39.08"/>
</a>
</g>
</g>
<!-- Node35 -->
<g id="Node000035" class="node">
<title>Node35</title>
<g id="a_Node000035"><a xlink:title=" ">
<polygon fill="#e0e0e0" stroke="#999999" points="2235.88,-32 2128.38,-32 2128.38,0 2235.88,0 2235.88,-32"/>
<text text-anchor="start" x="2136.38" y="-18.5" font-family="Helvetica,sans-Serif" font-size="10.00">backends/imgui_impl</text>
<text text-anchor="middle" x="2182.12" y="-6.5" font-family="Helvetica,sans-Serif" font-size="10.00">_opengl3.h</text>
</a>
</g>
</g>
<!-- Node2&#45;&gt;Node35 -->
<g id="edge34_Node000002_Node000035" class="edge">
<title>Node2&#45;&gt;Node35</title>
<g id="a_edge34_Node000002_Node000035"><a xlink:title=" ">
<path fill="none" stroke="#63b8ff" d="M1881.62,-73.2C1926.87,-66.33 2024.42,-50.98 2116.66,-32.43"/>
<polygon fill="#63b8ff" stroke="#63b8ff" points="2117.29,-35.87 2126.39,-30.45 2115.9,-29.01 2117.29,-35.87"/>
</a>
</g>
</g>
<!-- Node36 -->
<g id="Node000036" class="node">
<title>Node36</title>
<g id="a_Node000036"><a xlink:title=" ">
<polygon fill="#e0e0e0" stroke="#999999" points="2372.5,-26 2253.75,-26 2253.75,-6 2372.5,-6 2372.5,-26"/>
<text text-anchor="middle" x="2313.12" y="-12.5" font-family="Helvetica,sans-Serif" font-size="10.00">misc/cpp/imgui_stdlib.h</text>
</a>
</g>
</g>
<!-- Node2&#45;&gt;Node36 -->
<g id="edge35_Node000002_Node000036" class="edge">
<title>Node2&#45;&gt;Node36</title>
<g id="a_edge35_Node000002_Node000036"><a xlink:title=" ">
<path fill="none" stroke="#63b8ff" d="M1881.74,-74.95C1944.16,-69.75 2109.02,-54.82 2245.12,-32 2250.72,-31.06 2256.55,-29.96 2262.34,-28.8"/>
<polygon fill="#63b8ff" stroke="#63b8ff" points="2262.8,-32.28 2271.86,-26.8 2261.36,-25.42 2262.8,-32.28"/>
</a>
</g>
</g>
<!-- Node37 -->
<g id="Node000037" class="node">
<title>Node37</title>
<g id="a_Node000037"><a xlink:title=" ">
<polygon fill="#e0e0e0" stroke="#999999" points="2475.25,-26 2391,-26 2391,-6 2475.25,-6 2475.25,-26"/>
<text text-anchor="middle" x="2433.12" y="-12.5" font-family="Helvetica,sans-Serif" font-size="10.00">imgui_internal.h</text>
</a>
</g>
</g>
<!-- Node2&#45;&gt;Node37 -->
<g id="edge36_Node000002_Node000037" class="edge">
<title>Node2&#45;&gt;Node37</title>
<g id="a_edge36_Node000002_Node000037"><a xlink:title=" ">
<path fill="none" stroke="#63b8ff" d="M1881.77,-76.57C1958.3,-74.91 2191.56,-67.12 2381.12,-32 2385.15,-31.25 2389.31,-30.33 2393.44,-29.3"/>
<polygon fill="#63b8ff" stroke="#63b8ff" points="2393.99,-32.78 2402.75,-26.82 2392.19,-26.02 2393.99,-32.78"/>
</a>
</g>
</g>
<!-- Node38 -->
<g id="Node000038" class="node">
<title>Node38</title>
<g id="a_Node000038"><a xlink:title=" ">
<polygon fill="#e0e0e0" stroke="#999999" points="2578.62,-26 2493.62,-26 2493.62,-6 2578.62,-6 2578.62,-26"/>
<text text-anchor="middle" x="2536.12" y="-12.5" font-family="Helvetica,sans-Serif" font-size="10.00">ImGuiNotify.hpp</text>
</a>
</g>
</g>
<!-- Node2&#45;&gt;Node38 -->
<g id="edge37_Node000002_Node000038" class="edge">
<title>Node2&#45;&gt;Node38</title>
<g id="a_edge37_Node000002_Node000038"><a xlink:title=" ">
<path fill="none" stroke="#63b8ff" d="M1881.79,-77.08C1967.73,-76.93 2253.02,-73.14 2484.12,-32 2488.15,-31.28 2492.32,-30.37 2496.45,-29.36"/>
<polygon fill="#63b8ff" stroke="#63b8ff" points="2497,-32.84 2505.76,-26.89 2495.2,-26.08 2497,-32.84"/>
</a>
</g>
</g>
<!-- Node39 -->
<g id="Node000039" class="node">
<title>Node39</title>
<g id="a_Node000039"><a xlink:title=" ">
<polygon fill="#e0e0e0" stroke="#999999" points="2731.75,-26 2596.5,-26 2596.5,-6 2731.75,-6 2731.75,-26"/>
<text text-anchor="middle" x="2664.12" y="-12.5" font-family="Helvetica,sans-Serif" font-size="10.00">addons/imguidatechooser.h</text>
</a>
</g>
</g>
<!-- Node2&#45;&gt;Node39 -->
<g id="edge38_Node000002_Node000039" class="edge">
<title>Node2&#45;&gt;Node39</title>
<g id="a_edge38_Node000002_Node000039"><a xlink:title=" ">
<path fill="none" stroke="#63b8ff" d="M1881.81,-76.63C1976.18,-75.03 2312.48,-67.05 2587.12,-32 2594.39,-31.07 2602,-29.87 2609.5,-28.56"/>
<polygon fill="#63b8ff" stroke="#63b8ff" points="2610.03,-32.02 2619.23,-26.76 2608.76,-25.13 2610.03,-32.02"/>
</a>
</g>
</g>
<!-- Node40 -->
<g id="Node000040" class="node">
<title>Node40</title>
<g id="a_Node000040"><a xlink:title=" ">
<polygon fill="#e0e0e0" stroke="#999999" points="2834.25,-26 2750,-26 2750,-6 2834.25,-6 2834.25,-26"/>
<text text-anchor="middle" x="2792.12" y="-12.5" font-family="Helvetica,sans-Serif" font-size="10.00">spdlog/spdlog.h</text>
</a>
</g>
</g>
<!-- Node2&#45;&gt;Node40 -->
<g id="edge39_Node000002_Node000040" class="edge">
<title>Node2&#45;&gt;Node40</title>
<g id="a_edge39_Node000002_Node000040"><a xlink:title=" ">
<path fill="none" stroke="#63b8ff" d="M1881.83,-76.51C2008.75,-73.96 2569.36,-61.21 2741.12,-32 2745.19,-31.31 2749.38,-30.4 2753.54,-29.38"/>
<polygon fill="#63b8ff" stroke="#63b8ff" points="2754.15,-32.84 2762.88,-26.85 2752.32,-26.08 2754.15,-32.84"/>
</a>
</g>
</g>
<!-- Node41 -->
<g id="Node000041" class="node">
<title>Node41</title>
<g id="a_Node000041"><a xlink:title=" ">
<polygon fill="#e0e0e0" stroke="#999999" points="2949.62,-32 2852.62,-32 2852.62,0 2949.62,0 2949.62,-32"/>
<text text-anchor="start" x="2860.62" y="-18.5" font-family="Helvetica,sans-Serif" font-size="10.00">spdlog/sinks/basic</text>
<text text-anchor="middle" x="2901.12" y="-6.5" font-family="Helvetica,sans-Serif" font-size="10.00">_file_sink.h</text>
</a>
</g>
</g>
<!-- Node2&#45;&gt;Node41 -->
<g id="edge40_Node000002_Node000041" class="edge">
<title>Node2&#45;&gt;Node41</title>
<g id="a_edge40_Node000002_Node000041"><a xlink:title=" ">
<path fill="none" stroke="#63b8ff" d="M1881.58,-76.55C2014.17,-74.13 2627.44,-61.57 2841.14,-32.01"/>
<polygon fill="#63b8ff" stroke="#63b8ff" points="2841.33,-35.52 2850.73,-30.62 2840.33,-28.59 2841.33,-35.52"/>
</a>
</g>
</g>
<!-- Node42 -->
<g id="Node000042" class="node">
<title>Node42</title>
<g id="a_Node000042"><a xlink:title=" ">
<polygon fill="#e0e0e0" stroke="#999999" points="3026.88,-26 2967.38,-26 2967.38,-6 3026.88,-6 3026.88,-26"/>
<text text-anchor="middle" x="2997.12" y="-12.5" font-family="Helvetica,sans-Serif" font-size="10.00">fmt/core.h</text>
</a>
</g>
</g>
<!-- Node2&#45;&gt;Node42 -->
<g id="edge41_Node000002_Node000042" class="edge">
<title>Node2&#45;&gt;Node42</title>
<g id="a_edge41_Node000002_Node000042"><a xlink:title=" ">
<path fill="none" stroke="#63b8ff" d="M1881.74,-77.11C2026.56,-77.58 2743.73,-77.54 2959.12,-32 2961.46,-31.51 2963.83,-30.89 2966.19,-30.18"/>
<polygon fill="#63b8ff" stroke="#63b8ff" points="2967.3,-33.5 2975.58,-26.89 2964.98,-26.89 2967.3,-33.5"/>
</a>
</g>
</g>
<!-- Node46&#45;&gt;Node49 -->
<g id="edge43_Node000046_Node000049" class="edge">
<title>Node46&#45;&gt;Node49</title>
<g id="a_edge43_Node000046_Node000049"><a xlink:title=" ">
<path fill="none" stroke="#63b8ff" d="M2829.82,-69.08C2832.97,-68.68 2836.09,-68.31 2839.12,-68 3198.05,-31.31 3293.67,-87.81 3650.12,-32 3654.75,-31.28 3659.53,-30.31 3664.27,-29.21"/>
<polygon fill="#63b8ff" stroke="#63b8ff" points="3664.82,-32.68 3673.66,-26.84 3663.11,-25.9 3664.82,-32.68"/>
</a>
</g>
</g>
<!-- Node91&#45;&gt;Node49 -->
<g id="edge47_Node000091_Node000049" class="edge">
<title>Node91&#45;&gt;Node49</title>
<g id="a_edge47_Node000091_Node000049"><a xlink:title=" ">
<path fill="none" stroke="#63b8ff" d="M2960.97,-68.94C2964.07,-68.6 2967.13,-68.28 2970.12,-68 3271.43,-39.53 3351.32,-80.09 3650.12,-32 3654.74,-31.26 3659.53,-30.28 3664.26,-29.17"/>
<polygon fill="#63b8ff" stroke="#63b8ff" points="3664.82,-32.64 3673.65,-26.8 3663.1,-25.86 3664.82,-32.64"/>
</a>
</g>
</g>
</g>
</svg>

<g id="navigator" transform="translate(0 0)" fill="#404254">
  <rect fill="#f2f5e9" fill-opacity="0.5" stroke="#606060" stroke-width=".5" x="0" y="0" width="60" height="60"/>
  <use id="zoomplus" xlink:href="#zoomPlus" x="17" y="9" onmousedown="handleZoom(evt,'in')"/>
  <use id="zoomminus" xlink:href="#zoomMin" x="42" y="9" onmousedown="handleZoom(evt,'out')"/>
  <use id="reset" xlink:href="#resetDef" x="30" y="36" onmousedown="handleReset()"/>
   <use id="arrowup" xlink:href="#arrowUp" x="0" y="0" onmousedown="handlePan(0,-1)"/>
  <use id="arrowright" xlink:href="#arrowRight" x="0" y="0" onmousedown="handlePan(1,0)"/>
  <use id="arrowdown" xlink:href="#arrowDown" x="0" y="0" onmousedown="handlePan(0,1)"/>
  <use id="arrowleft" xlink:href="#arrowLeft" x="0" y="0" onmousedown="handlePan(-1,0)"/>
</g>
<svg viewBox="0 0 15 15" width="100%" height="30px" preserveAspectRatio="xMaxYMin meet">
 <g id="arrow_out" transform="scale(0.3 0.3)">
  <a xlink:href="_image_cloud_proj_8cpp__incl_org.svg" target="_base">
   <rect id="button" ry="5" rx="5" y="6" x="6" height="38" width="38"
        fill="#f2f5e9" fill-opacity="0.5" stroke="#606060" stroke-width="1.0"/>
   <path id="arrow"
     d="M 11.500037,31.436501 C 11.940474,20.09759 22.043105,11.32322 32.158766,21.979434 L 37.068811,17.246167 C 37.068811,17.246167 37.088388,32 37.088388,32 L 22.160133,31.978069 C 22.160133,31.978069 26.997745,27.140456 26.997745,27.140456 C 18.528582,18.264221 13.291696,25.230495 11.500037,31.436501 z"
     style="fill:#404040;"/>
  </a>
 </g>
</svg>

<style type='text/css'>
<![CDATA[
[data-mouse-over-selected='false'] { opacity: 0.7; }
[data-mouse-over-selected='true']  { opacity: 1.0; }
]]>
</style>
<script type="application/ecmascript"><![CDATA[
document.addEventListener('DOMContentLoaded', (event) => {
  highlightEdges();
  highlightAdjacentNodes();
});
]]></script>
</svg>
