<?xml version="1.0" encoding="UTF-8" standalone="no"?>
<!DOCTYPE svg PUBLIC "-//W3C//DTD SVG 1.1//EN"
 "http://www.w3.org/Graphics/SVG/1.1/DTD/svg11.dtd">
<!-- Generated by graphviz version 10.0.1 (20240210.2158)
 -->
<!-- Title: GEU::Camera::truck Pages: 1 -->
<svg width="424pt" height="90pt"
 viewBox="0.00 0.00 423.50 90.00" xmlns="http://www.w3.org/2000/svg" xmlns:xlink="http://www.w3.org/1999/xlink">
<g id="graph0" class="graph" transform="scale(1 1) rotate(0) translate(4 86)">
<title>GEU::Camera::truck</title>
<!-- Node1 -->
<g id="Node000001" class="node">
<title>Node1</title>
<g id="a_Node000001"><a xlink:title=" ">
<polygon fill="#999999" stroke="#666666" points="415.5,-51 311,-51 311,-31 415.5,-31 415.5,-51"/>
<text text-anchor="middle" x="363.25" y="-37.5" font-family="Helvetica,sans-Serif" font-size="10.00">GEU::Camera::truck</text>
</a>
</g>
</g>
<!-- Node2 -->
<g id="Node000002" class="node">
<title>Node2</title>
<g id="a_Node000002"><a xlink:href="../../dd/d00/a01893.html#a9d27150ccccbfe0d72c6e54a053de886" target="_top" xlink:title=" ">
<polygon fill="white" stroke="#666666" points="264.88,-82 157.38,-82 157.38,-50 264.88,-50 264.88,-82"/>
<text text-anchor="start" x="165.38" y="-68.5" font-family="Helvetica,sans-Serif" font-size="10.00">GEU::InputManager::</text>
<text text-anchor="middle" x="211.12" y="-56.5" font-family="Helvetica,sans-Serif" font-size="10.00">mouseMovement</text>
</a>
</g>
</g>
<!-- Node1&#45;&gt;Node2 -->
<g id="edge1_Node000001_Node000002" class="edge">
<title>Node1&#45;&gt;Node2</title>
<g id="a_edge1_Node000001_Node000002"><a xlink:title=" ">
<path fill="none" stroke="#63b8ff" d="M299.37,-51.47C287.99,-53.37 276.23,-55.33 265.16,-57.17"/>
<polygon fill="#63b8ff" stroke="#63b8ff" points="299.8,-54.95 309.09,-49.85 298.65,-48.04 299.8,-54.95"/>
</a>
</g>
</g>
<!-- Node4 -->
<g id="Node000004" class="node">
<title>Node4</title>
<g id="a_Node000004"><a xlink:href="../../dd/d00/a01893.html#a900ad1b7091126235ffafa69c15651cd" target="_top" xlink:title=" ">
<polygon fill="white" stroke="#666666" points="275,-32 147.25,-32 147.25,0 275,0 275,-32"/>
<text text-anchor="start" x="155.25" y="-18.5" font-family="Helvetica,sans-Serif" font-size="10.00">GEU::InputManager::</text>
<text text-anchor="middle" x="211.12" y="-6.5" font-family="Helvetica,sans-Serif" font-size="10.00">processPressedKeyEvent</text>
</a>
</g>
</g>
<!-- Node1&#45;&gt;Node4 -->
<g id="edge3_Node000001_Node000004" class="edge">
<title>Node1&#45;&gt;Node4</title>
<g id="a_edge3_Node000001_Node000004"><a xlink:title=" ">
<path fill="none" stroke="#63b8ff" d="M299.46,-30.54C291.47,-29.21 283.29,-27.85 275.3,-26.52"/>
<polygon fill="#63b8ff" stroke="#63b8ff" points="298.65,-33.96 309.09,-32.15 299.8,-27.05 298.65,-33.96"/>
</a>
</g>
</g>
<!-- Node3 -->
<g id="Node000003" class="node">
<title>Node3</title>
<g id="a_Node000003"><a xlink:href="../../dd/d00/a01893.html#a2445fc0e06eaeb6dbc889088b8ab6c99" target="_top" xlink:title=" ">
<polygon fill="white" stroke="#666666" points="111.25,-82 0,-82 0,-50 111.25,-50 111.25,-82"/>
<text text-anchor="start" x="8" y="-68.5" font-family="Helvetica,sans-Serif" font-size="10.00">GEU::InputManager::</text>
<text text-anchor="middle" x="55.62" y="-56.5" font-family="Helvetica,sans-Serif" font-size="10.00">mouseCursorCallback</text>
</a>
</g>
</g>
<!-- Node2&#45;&gt;Node3 -->
<g id="edge2_Node000002_Node000003" class="edge">
<title>Node2&#45;&gt;Node3</title>
<g id="a_edge2_Node000002_Node000003"><a xlink:title=" ">
<path fill="none" stroke="#63b8ff" d="M146.04,-66C134.6,-66 122.79,-66 111.64,-66"/>
<polygon fill="#63b8ff" stroke="#63b8ff" points="145.79,-69.5 155.79,-66 145.79,-62.5 145.79,-69.5"/>
</a>
</g>
</g>
<!-- Node5 -->
<g id="Node000005" class="node">
<title>Node5</title>
<g id="a_Node000005"><a xlink:href="../../dd/d00/a01893.html#a361d92766a2cb0f62fcabb1c3b12763a" target="_top" xlink:title=" ">
<polygon fill="white" stroke="#666666" points="109.38,-32 1.88,-32 1.88,0 109.38,0 109.38,-32"/>
<text text-anchor="start" x="9.88" y="-18.5" font-family="Helvetica,sans-Serif" font-size="10.00">GEU::InputManager::</text>
<text text-anchor="middle" x="55.62" y="-6.5" font-family="Helvetica,sans-Serif" font-size="10.00">keyCallback</text>
</a>
</g>
</g>
<!-- Node4&#45;&gt;Node5 -->
<g id="edge4_Node000004_Node000005" class="edge">
<title>Node4&#45;&gt;Node5</title>
<g id="a_edge4_Node000004_Node000005"><a xlink:title=" ">
<path fill="none" stroke="#63b8ff" d="M135.39,-16C126.65,-16 117.89,-16 109.54,-16"/>
<polygon fill="#63b8ff" stroke="#63b8ff" points="135.29,-19.5 145.29,-16 135.29,-12.5 135.29,-19.5"/>
</a>
</g>
</g>
</g>
</svg>
