<?xml version="1.0" encoding="UTF-8" standalone="no"?>
<!DOCTYPE svg PUBLIC "-//W3C//DTD SVG 1.1//EN"
 "http://www.w3.org/Graphics/SVG/1.1/DTD/svg11.dtd">
<!-- Generated by graphviz version 10.0.1 (20240210.2158)
 -->
<!-- Title: ImGradient::refreshCache Pages: 1 -->
<svg width="634pt" height="148pt"
 viewBox="0.00 0.00 633.75 148.00" xmlns="http://www.w3.org/2000/svg" xmlns:xlink="http://www.w3.org/1999/xlink">
<g id="graph0" class="graph" transform="scale(1 1) rotate(0) translate(4 144)">
<title>ImGradient::refreshCache</title>
<!-- Node1 -->
<g id="Node000001" class="node">
<title>Node1</title>
<g id="a_Node000001"><a xlink:title=" ">
<polygon fill="#999999" stroke="#666666" points="625.75,-96 499.5,-96 499.5,-76 625.75,-76 625.75,-96"/>
<text text-anchor="middle" x="562.62" y="-82.5" font-family="Helvetica,sans-Serif" font-size="10.00">ImGradient::refreshCache</text>
</a>
</g>
</g>
<!-- Node2 -->
<g id="Node000002" class="node">
<title>Node2</title>
<g id="a_Node000002"><a xlink:href="../../d9/d01/a01976.html#a089dcb45e26c59a2b9a1f5962bea099c" target="_top" xlink:title=" ">
<polygon fill="white" stroke="#666666" points="456,-96 349.25,-96 349.25,-76 456,-76 456,-96"/>
<text text-anchor="middle" x="402.62" y="-82.5" font-family="Helvetica,sans-Serif" font-size="10.00">ImGradient::addMark</text>
</a>
</g>
</g>
<!-- Node1&#45;&gt;Node2 -->
<g id="edge1_Node000001_Node000002" class="edge">
<title>Node1&#45;&gt;Node2</title>
<g id="a_edge1_Node000001_Node000002"><a xlink:title=" ">
<path fill="none" stroke="#63b8ff" d="M487.79,-86C477.21,-86 466.51,-86 456.44,-86"/>
<polygon fill="#63b8ff" stroke="#63b8ff" points="487.67,-89.5 497.67,-86 487.67,-82.5 487.67,-89.5"/>
</a>
</g>
</g>
<!-- Node3 -->
<g id="Node000003" class="node">
<title>Node3</title>
<g id="a_Node000003"><a xlink:href="../../d9/d05/a00633.html#a3add9205f87d8efffa815d6e8db4864c" target="_top" xlink:title=" ">
<polygon fill="white" stroke="#666666" points="282.5,-134 172.75,-134 172.75,-114 282.5,-114 282.5,-134"/>
<text text-anchor="middle" x="227.62" y="-120.5" font-family="Helvetica,sans-Serif" font-size="10.00">ImGui::GradientEditor</text>
</a>
</g>
</g>
<!-- Node1&#45;&gt;Node3 -->
<g id="edge7_Node000001_Node000003" class="edge">
<title>Node1&#45;&gt;Node3</title>
<g id="a_edge7_Node000001_Node000003"><a xlink:title=" ">
<path fill="none" stroke="#63b8ff" d="M502.17,-98.6C489.45,-100.99 476.07,-103.28 463.5,-105 401.89,-113.43 330.64,-118.55 282.92,-121.31"/>
<polygon fill="#63b8ff" stroke="#63b8ff" points="502.5,-102.11 511.65,-96.78 501.17,-95.23 502.5,-102.11"/>
</a>
</g>
</g>
<!-- Node8 -->
<g id="Node000008" class="node">
<title>Node8</title>
<g id="a_Node000008"><a xlink:href="../../d9/d01/a01976.html#a3537f99a6ea98791f48479f68fc7f759" target="_top" xlink:title=" ">
<polygon fill="white" stroke="#666666" points="463.5,-58 341.75,-58 341.75,-38 463.5,-38 463.5,-58"/>
<text text-anchor="middle" x="402.62" y="-44.5" font-family="Helvetica,sans-Serif" font-size="10.00">ImGradient::removeMark</text>
</a>
</g>
</g>
<!-- Node1&#45;&gt;Node8 -->
<g id="edge8_Node000001_Node000008" class="edge">
<title>Node1&#45;&gt;Node8</title>
<g id="a_edge8_Node000001_Node000008"><a xlink:title=" ">
<path fill="none" stroke="#63b8ff" d="M507.09,-72.88C487.47,-68.17 465.62,-62.91 447.08,-58.45"/>
<polygon fill="#63b8ff" stroke="#63b8ff" points="506.02,-76.23 516.56,-75.16 507.66,-69.42 506.02,-76.23"/>
</a>
</g>
</g>
<!-- Node2&#45;&gt;Node3 -->
<g id="edge2_Node000002_Node000003" class="edge">
<title>Node2&#45;&gt;Node3</title>
<g id="a_edge2_Node000002_Node000003"><a xlink:title=" ">
<path fill="none" stroke="#63b8ff" d="M342.81,-98.92C321.1,-103.69 296.79,-109.03 276.2,-113.55"/>
<polygon fill="#63b8ff" stroke="#63b8ff" points="343.4,-102.37 352.42,-96.81 341.9,-95.54 343.4,-102.37"/>
</a>
</g>
</g>
<!-- Node5 -->
<g id="Node000005" class="node">
<title>Node5</title>
<g id="a_Node000005"><a xlink:href="../../d9/d01/a01976.html#a0b00e4de9dd1549299a6772e4fa10508" target="_top" xlink:title=" ">
<polygon fill="white" stroke="#666666" points="285.88,-96 169.38,-96 169.38,-76 285.88,-76 285.88,-96"/>
<text text-anchor="middle" x="227.62" y="-82.5" font-family="Helvetica,sans-Serif" font-size="10.00">ImGradient::ImGradient</text>
</a>
</g>
</g>
<!-- Node2&#45;&gt;Node5 -->
<g id="edge4_Node000002_Node000005" class="edge">
<title>Node2&#45;&gt;Node5</title>
<g id="a_edge4_Node000002_Node000005"><a xlink:title=" ">
<path fill="none" stroke="#63b8ff" d="M337.4,-86C320.63,-86 302.67,-86 286.27,-86"/>
<polygon fill="#63b8ff" stroke="#63b8ff" points="337.27,-89.5 347.27,-86 337.27,-82.5 337.27,-89.5"/>
</a>
</g>
</g>
<!-- Node6 -->
<g id="Node000006" class="node">
<title>Node6</title>
<g id="a_Node000006"><a xlink:href="../../d9/d01/a01976.html#a56c19b073629bc5ad08fbc965994f684" target="_top" xlink:title=" ">
<polygon fill="white" stroke="#666666" points="285.88,-58 169.38,-58 169.38,-38 285.88,-38 285.88,-58"/>
<text text-anchor="middle" x="227.62" y="-44.5" font-family="Helvetica,sans-Serif" font-size="10.00">ImGradient::ImGradient</text>
</a>
</g>
</g>
<!-- Node2&#45;&gt;Node6 -->
<g id="edge5_Node000002_Node000006" class="edge">
<title>Node2&#45;&gt;Node6</title>
<g id="a_edge5_Node000002_Node000006"><a xlink:title=" ">
<path fill="none" stroke="#63b8ff" d="M342.81,-73.08C321.1,-68.31 296.79,-62.97 276.2,-58.45"/>
<polygon fill="#63b8ff" stroke="#63b8ff" points="341.9,-76.46 352.42,-75.19 343.4,-69.63 341.9,-76.46"/>
</a>
</g>
</g>
<!-- Node7 -->
<g id="Node000007" class="node">
<title>Node7</title>
<g id="a_Node000007"><a xlink:href="../../de/d05/a01732.html#a06ba326c97a0c7b854d66b528f8a4e45" target="_top" xlink:title=" ">
<polygon fill="white" stroke="#666666" points="305.75,-20 149.5,-20 149.5,0 305.75,0 305.75,-20"/>
<text text-anchor="middle" x="227.62" y="-6.5" font-family="Helvetica,sans-Serif" font-size="10.00">GEU::Renderer::prepareOpenGL</text>
</a>
</g>
</g>
<!-- Node2&#45;&gt;Node7 -->
<g id="edge6_Node000002_Node000007" class="edge">
<title>Node2&#45;&gt;Node7</title>
<g id="a_edge6_Node000002_Node000007"><a xlink:title=" ">
<path fill="none" stroke="#63b8ff" d="M348.84,-70.97C346.39,-69.74 344.01,-68.42 341.75,-67 322.04,-54.65 325.86,-40.7 305.75,-29 299.79,-25.53 293.22,-22.69 286.5,-20.37"/>
<polygon fill="#63b8ff" stroke="#63b8ff" points="347.25,-74.09 357.81,-74.9 350.06,-67.68 347.25,-74.09"/>
</a>
</g>
</g>
<!-- Node4 -->
<g id="Node000004" class="node">
<title>Node4</title>
<g id="a_Node000004"><a xlink:href="../../dc/d07/a01512.html#a7af9db6d6ad56c4c4fc336251024472f" target="_top" xlink:title="Renders the window and contents.">
<polygon fill="white" stroke="#666666" points="113.5,-140 0,-140 0,-108 113.5,-108 113.5,-140"/>
<text text-anchor="start" x="8" y="-126.5" font-family="Helvetica,sans-Serif" font-size="10.00">GEU::SettingsWindow</text>
<text text-anchor="middle" x="56.75" y="-114.5" font-family="Helvetica,sans-Serif" font-size="10.00">::renderWindow</text>
</a>
</g>
</g>
<!-- Node3&#45;&gt;Node4 -->
<g id="edge3_Node000003_Node000004" class="edge">
<title>Node3&#45;&gt;Node4</title>
<g id="a_edge3_Node000003_Node000004"><a xlink:title=" ">
<path fill="none" stroke="#63b8ff" d="M161.08,-124C145.45,-124 128.91,-124 113.75,-124"/>
<polygon fill="#63b8ff" stroke="#63b8ff" points="160.75,-127.5 170.75,-124 160.75,-120.5 160.75,-127.5"/>
</a>
</g>
</g>
</g>
</svg>
