<?xml version="1.0" encoding="UTF-8" standalone="no"?>
<!DOCTYPE svg PUBLIC "-//W3C//DTD SVG 1.1//EN"
 "http://www.w3.org/Graphics/SVG/1.1/DTD/svg11.dtd">
<!-- Generated by graphviz version 10.0.1 (20240210.2158)
 -->
<!-- Title: GEU::PickingWindow::renderWindow Pages: 1 -->
<svg width="436pt" height="608pt"
 viewBox="0.00 0.00 436.25 608.11" xmlns="http://www.w3.org/2000/svg" xmlns:xlink="http://www.w3.org/1999/xlink">
<g id="graph0" class="graph" transform="scale(1 1) rotate(0) translate(4 604.11)">
<title>GEU::PickingWindow::renderWindow</title>
<!-- Node1 -->
<g id="Node000001" class="node">
<title>Node1</title>
<g id="a_Node000001"><a xlink:title="Renders the window and contents.">
<polygon fill="#999999" stroke="#666666" points="109.75,-295 0,-295 0,-263 109.75,-263 109.75,-295"/>
<text text-anchor="start" x="8" y="-281.5" font-family="Helvetica,sans-Serif" font-size="10.00">GEU::PickingWindow</text>
<text text-anchor="middle" x="54.88" y="-269.5" font-family="Helvetica,sans-Serif" font-size="10.00">::renderWindow</text>
</a>
</g>
</g>
<!-- Node2 -->
<g id="Node000002" class="node">
<title>Node2</title>
<g id="a_Node000002"><a xlink:href="../../d3/d07/namespace_g_e_u_1_1_gui_utilities.html#a95d5f616a34dd70aca4886e546720966" target="_top" xlink:title=" ">
<polygon fill="white" stroke="#666666" points="259.62,-32 163.38,-32 163.38,0 259.62,0 259.62,-32"/>
<text text-anchor="start" x="171.38" y="-18.5" font-family="Helvetica,sans-Serif" font-size="10.00">GEU::GuiUtilities::</text>
<text text-anchor="middle" x="211.5" y="-6.5" font-family="Helvetica,sans-Serif" font-size="10.00">BeginCombo</text>
</a>
</g>
</g>
<!-- Node1&#45;&gt;Node2 -->
<g id="edge1_Node000001_Node000002" class="edge">
<title>Node1&#45;&gt;Node2</title>
<g id="a_edge1_Node000001_Node000002"><a xlink:title=" ">
<path fill="none" stroke="#63b8ff" d="M57.49,-262.7C62.52,-220.33 81.65,-105.57 145.75,-41 148.06,-38.67 150.61,-36.56 153.32,-34.64"/>
<polygon fill="#63b8ff" stroke="#63b8ff" points="154.96,-37.74 161.75,-29.61 151.37,-31.73 154.96,-37.74"/>
</a>
</g>
</g>
<!-- Node4 -->
<g id="Node000004" class="node">
<title>Node4</title>
<g id="a_Node000004"><a xlink:href="../../d3/d07/namespace_g_e_u_1_1_gui_utilities.html#a4a9fd6dae16881311edd3998ece123bf" target="_top" xlink:title=" ">
<polygon fill="white" stroke="#666666" points="259.62,-570 163.38,-570 163.38,-538 259.62,-538 259.62,-570"/>
<text text-anchor="start" x="171.38" y="-556.5" font-family="Helvetica,sans-Serif" font-size="10.00">GEU::GuiUtilities::</text>
<text text-anchor="middle" x="211.5" y="-544.5" font-family="Helvetica,sans-Serif" font-size="10.00">Button</text>
</a>
</g>
</g>
<!-- Node1&#45;&gt;Node4 -->
<g id="edge3_Node000001_Node000004" class="edge">
<title>Node1&#45;&gt;Node4</title>
<g id="a_edge3_Node000001_Node000004"><a xlink:title=" ">
<path fill="none" stroke="#63b8ff" d="M57.16,-295.46C61.45,-339.4 79.03,-460.71 145.75,-529 148.04,-531.34 150.57,-533.47 153.27,-535.4"/>
<polygon fill="#63b8ff" stroke="#63b8ff" points="151.31,-538.31 161.68,-540.46 154.92,-532.31 151.31,-538.31"/>
</a>
</g>
</g>
<!-- Node5 -->
<g id="Node000005" class="node">
<title>Node5</title>
<g id="a_Node000005"><a xlink:href="../../d3/d07/namespace_g_e_u_1_1_gui_utilities.html#a8cd6e1ec53dc192ed4c4d3867e35edc7" target="_top" xlink:title=" ">
<polygon fill="white" stroke="#666666" points="259.62,-520 163.38,-520 163.38,-488 259.62,-488 259.62,-520"/>
<text text-anchor="start" x="171.38" y="-506.5" font-family="Helvetica,sans-Serif" font-size="10.00">GEU::GuiUtilities::</text>
<text text-anchor="middle" x="211.5" y="-494.5" font-family="Helvetica,sans-Serif" font-size="10.00">Checkbox</text>
</a>
</g>
</g>
<!-- Node1&#45;&gt;Node5 -->
<g id="edge4_Node000001_Node000005" class="edge">
<title>Node1&#45;&gt;Node5</title>
<g id="a_edge4_Node000001_Node000005"><a xlink:title=" ">
<path fill="none" stroke="#63b8ff" d="M58.85,-295.44C66.48,-333.09 90.21,-426.37 145.75,-479 148.01,-481.14 150.47,-483.1 153.07,-484.9"/>
<polygon fill="#63b8ff" stroke="#63b8ff" points="151.29,-487.91 161.68,-489.96 154.84,-481.88 151.29,-487.91"/>
</a>
</g>
</g>
<!-- Node6 -->
<g id="Node000006" class="node">
<title>Node6</title>
<g id="a_Node000006"><a xlink:href="../../d3/d07/namespace_g_e_u_1_1_gui_utilities.html#a7e5f58fc1e47794679b999cd5778b7aa" target="_top" xlink:title=" ">
<polygon fill="white" stroke="#666666" points="259.62,-470 163.38,-470 163.38,-438 259.62,-438 259.62,-470"/>
<text text-anchor="start" x="171.38" y="-456.5" font-family="Helvetica,sans-Serif" font-size="10.00">GEU::GuiUtilities::</text>
<text text-anchor="middle" x="211.5" y="-444.5" font-family="Helvetica,sans-Serif" font-size="10.00">CollapsingHeader</text>
</a>
</g>
</g>
<!-- Node1&#45;&gt;Node6 -->
<g id="edge5_Node000001_Node000006" class="edge">
<title>Node1&#45;&gt;Node6</title>
<g id="a_edge5_Node000001_Node000006"><a xlink:title=" ">
<path fill="none" stroke="#63b8ff" d="M61.56,-295.4C72.9,-325.86 101.16,-391.46 145.75,-429 148.09,-430.97 150.6,-432.79 153.23,-434.48"/>
<polygon fill="#63b8ff" stroke="#63b8ff" points="151.38,-437.46 161.82,-439.28 154.8,-431.35 151.38,-437.46"/>
</a>
</g>
</g>
<!-- Node7 -->
<g id="Node000007" class="node">
<title>Node7</title>
<g id="a_Node000007"><a xlink:href="../../d3/d07/namespace_g_e_u_1_1_gui_utilities.html#a095bc8e3566d9060ef630e0f15ad27bc" target="_top" xlink:title=" ">
<polygon fill="white" stroke="#666666" points="259.62,-132 163.38,-132 163.38,-100 259.62,-100 259.62,-132"/>
<text text-anchor="start" x="171.38" y="-118.5" font-family="Helvetica,sans-Serif" font-size="10.00">GEU::GuiUtilities::</text>
<text text-anchor="middle" x="211.5" y="-106.5" font-family="Helvetica,sans-Serif" font-size="10.00">ColorPicker</text>
</a>
</g>
</g>
<!-- Node1&#45;&gt;Node7 -->
<g id="edge6_Node000001_Node000007" class="edge">
<title>Node1&#45;&gt;Node7</title>
<g id="a_edge6_Node000001_Node000007"><a xlink:title=" ">
<path fill="none" stroke="#63b8ff" d="M62.49,-262.58C74.79,-234.03 103.77,-175.02 145.75,-141 148,-139.17 150.4,-137.47 152.91,-135.88"/>
<polygon fill="#63b8ff" stroke="#63b8ff" points="154.58,-138.96 161.63,-131.05 151.19,-132.83 154.58,-138.96"/>
</a>
</g>
</g>
<!-- Node8 -->
<g id="Node000008" class="node">
<title>Node8</title>
<g id="a_Node000008"><a xlink:href="../../d3/d07/namespace_g_e_u_1_1_gui_utilities.html#a15f9ea36c082c71e09e7275ca63bd2e1" target="_top" xlink:title=" ">
<polygon fill="white" stroke="#666666" points="259.62,-420 163.38,-420 163.38,-388 259.62,-388 259.62,-420"/>
<text text-anchor="start" x="171.38" y="-406.5" font-family="Helvetica,sans-Serif" font-size="10.00">GEU::GuiUtilities::</text>
<text text-anchor="middle" x="211.5" y="-394.5" font-family="Helvetica,sans-Serif" font-size="10.00">ComboItem</text>
</a>
</g>
</g>
<!-- Node1&#45;&gt;Node8 -->
<g id="edge8_Node000001_Node000008" class="edge">
<title>Node1&#45;&gt;Node8</title>
<g id="a_edge8_Node000001_Node000008"><a xlink:title=" ">
<path fill="none" stroke="#63b8ff" d="M66.81,-295.36C82.13,-317.16 111.93,-355.68 145.75,-379 148.09,-380.62 150.56,-382.15 153.1,-383.59"/>
<polygon fill="#63b8ff" stroke="#63b8ff" points="151.34,-386.63 161.84,-388.08 154.54,-380.4 151.34,-386.63"/>
</a>
</g>
</g>
<!-- Node9 -->
<g id="Node000009" class="node">
<title>Node9</title>
<g id="a_Node000009"><a xlink:href="../../d3/d07/namespace_g_e_u_1_1_gui_utilities.html#ab5bd8ee6ec7674dc502b5330d41beadf" target="_top" xlink:title=" ">
<polygon fill="white" stroke="#666666" points="418.88,-517 322.62,-517 322.62,-485 418.88,-485 418.88,-517"/>
<text text-anchor="start" x="330.62" y="-503.5" font-family="Helvetica,sans-Serif" font-size="10.00">GEU::GuiUtilities::</text>
<text text-anchor="middle" x="370.75" y="-491.5" font-family="Helvetica,sans-Serif" font-size="10.00">Selectable</text>
</a>
</g>
</g>
<!-- Node1&#45;&gt;Node9 -->
<g id="edge17_Node000001_Node000009" class="edge">
<title>Node1&#45;&gt;Node9</title>
<g id="a_edge17_Node000001_Node000009"><a xlink:title=" ">
<path fill="none" stroke="#63b8ff" d="M58.2,-295.31C66.75,-352.71 98.43,-543.78 145.75,-579 192.63,-613.9 222.35,-599.06 277.25,-579 306.08,-568.47 332.13,-544.55 349.18,-525.96"/>
<polygon fill="#63b8ff" stroke="#63b8ff" points="351.8,-528.29 355.8,-518.48 346.55,-523.65 351.8,-528.29"/>
</a>
</g>
</g>
<!-- Node10 -->
<g id="Node000010" class="node">
<title>Node10</title>
<g id="a_Node000010"><a xlink:href="../../d9/d05/class_g_e_u_1_1_input_manager.html#af2ea72a4bd53eb6f69a5c873e4c22017" target="_top" xlink:title=" ">
<polygon fill="white" stroke="#666666" points="265.25,-270 157.75,-270 157.75,-238 265.25,-238 265.25,-270"/>
<text text-anchor="start" x="165.75" y="-256.5" font-family="Helvetica,sans-Serif" font-size="10.00">GEU::InputManager::</text>
<text text-anchor="middle" x="211.5" y="-244.5" font-family="Helvetica,sans-Serif" font-size="10.00">getApplicationState</text>
</a>
</g>
</g>
<!-- Node1&#45;&gt;Node10 -->
<g id="edge10_Node000001_Node000010" class="edge">
<title>Node1&#45;&gt;Node10</title>
<g id="a_edge10_Node000001_Node000010"><a xlink:title=" ">
<path fill="none" stroke="#63b8ff" d="M109.96,-270.26C121.64,-268.37 134.1,-266.35 146.13,-264.41"/>
<polygon fill="#63b8ff" stroke="#63b8ff" points="146.69,-267.86 156,-262.81 145.57,-260.95 146.69,-267.86"/>
</a>
</g>
</g>
<!-- Node11 -->
<g id="Node000011" class="node">
<title>Node11</title>
<g id="a_Node000011"><a xlink:href="../../d1/d01/class_g_e_u_1_1_singleton.html#a47c7e7c2110f4cc59c9ff1f5594c366e" target="_top" xlink:title=" ">
<polygon fill="white" stroke="#666666" points="277.25,-220 145.75,-220 145.75,-188 277.25,-188 277.25,-220"/>
<text text-anchor="start" x="153.75" y="-206.5" font-family="Helvetica,sans-Serif" font-size="10.00">GEU::Singleton&lt; Renderer</text>
<text text-anchor="middle" x="211.5" y="-194.5" font-family="Helvetica,sans-Serif" font-size="10.00"> &gt;::getInstance</text>
</a>
</g>
</g>
<!-- Node1&#45;&gt;Node11 -->
<g id="edge11_Node000001_Node000011" class="edge">
<title>Node1&#45;&gt;Node11</title>
<g id="a_edge11_Node000001_Node000011"><a xlink:title=" ">
<path fill="none" stroke="#63b8ff" d="M71.76,-262.69C87.18,-251.33 111.66,-236.84 135.36,-225.03"/>
<polygon fill="#63b8ff" stroke="#63b8ff" points="136.6,-228.31 144.07,-220.81 133.55,-222.01 136.6,-228.31"/>
</a>
</g>
</g>
<!-- Node1&#45;&gt;Node11 -->
<g id="edge12_Node000001_Node000011" class="edge">
<title>Node1&#45;&gt;Node11</title>
<g id="a_edge12_Node000001_Node000011"><a xlink:title=" ">
<path fill="none" stroke="#63b8ff" d="M97.76,-262.59C112.67,-254.67 129.74,-245.5 145.75,-238 155.45,-233.46 166.21,-229.06 176.14,-224.87"/>
<polygon fill="#63b8ff" stroke="#63b8ff" points="177.3,-228.18 185.1,-221.01 174.53,-221.75 177.3,-228.18"/>
</a>
</g>
</g>
<!-- Node12 -->
<g id="Node000012" class="node">
<title>Node12</title>
<g id="a_Node000012"><a xlink:href="../../d2/d04/class_locale_strings.html#ac66087ac25e72051ea7b5bf3d00dd71f" target="_top" xlink:title=" ">
<polygon fill="white" stroke="#666666" points="271.62,-170 151.38,-170 151.38,-150 271.62,-150 271.62,-170"/>
<text text-anchor="middle" x="211.5" y="-156.5" font-family="Helvetica,sans-Serif" font-size="10.00">LocaleStrings::getString</text>
</a>
</g>
</g>
<!-- Node1&#45;&gt;Node12 -->
<g id="edge13_Node000001_Node000012" class="edge">
<title>Node1&#45;&gt;Node12</title>
<g id="a_edge13_Node000001_Node000012"><a xlink:title=" ">
<path fill="none" stroke="#63b8ff" d="M66.28,-262.6C81.21,-240.39 110.79,-201.02 145.75,-179 148.05,-177.55 150.47,-176.21 152.96,-174.97"/>
<polygon fill="#63b8ff" stroke="#63b8ff" points="154.34,-178.18 162.13,-171 151.56,-171.76 154.34,-178.18"/>
</a>
</g>
</g>
<!-- Node13 -->
<g id="Node000013" class="node">
<title>Node13</title>
<g id="a_Node000013"><a xlink:href="../../d3/d07/namespace_g_e_u_1_1_gui_utilities.html#a0c8f0f5af8119c36fa703bc2ed301bde" target="_top" xlink:title=" ">
<polygon fill="white" stroke="#666666" points="259.62,-370 163.38,-370 163.38,-338 259.62,-338 259.62,-370"/>
<text text-anchor="start" x="171.38" y="-356.5" font-family="Helvetica,sans-Serif" font-size="10.00">GEU::GuiUtilities::</text>
<text text-anchor="middle" x="211.5" y="-344.5" font-family="Helvetica,sans-Serif" font-size="10.00">InputText</text>
</a>
</g>
</g>
<!-- Node1&#45;&gt;Node13 -->
<g id="edge14_Node000001_Node000013" class="edge">
<title>Node1&#45;&gt;Node13</title>
<g id="a_edge14_Node000001_Node000013"><a xlink:title=" ">
<path fill="none" stroke="#63b8ff" d="M82.89,-295.33C100.47,-305.63 124.08,-318.85 145.75,-329 148.82,-330.44 151.99,-331.86 155.21,-333.25"/>
<polygon fill="#63b8ff" stroke="#63b8ff" points="153.6,-336.37 164.18,-337 156.3,-329.92 153.6,-336.37"/>
</a>
</g>
</g>
<!-- Node14 -->
<g id="Node000014" class="node">
<title>Node14</title>
<g id="a_Node000014"><a xlink:href="../../d3/d07/namespace_g_e_u_1_1_gui_utilities.html#a40a766f4b8d640943eadd1735f02128e" target="_top" xlink:title=" ">
<polygon fill="white" stroke="#666666" points="261.88,-82 161.12,-82 161.12,-50 261.88,-50 261.88,-82"/>
<text text-anchor="start" x="169.12" y="-68.5" font-family="Helvetica,sans-Serif" font-size="10.00">GEU::GuiUtilities::</text>
<text text-anchor="middle" x="211.5" y="-56.5" font-family="Helvetica,sans-Serif" font-size="10.00">NextTableItemRight</text>
</a>
</g>
</g>
<!-- Node1&#45;&gt;Node14 -->
<g id="edge16_Node000001_Node000014" class="edge">
<title>Node1&#45;&gt;Node14</title>
<g id="a_edge16_Node000001_Node000014"><a xlink:title=" ">
<path fill="none" stroke="#63b8ff" d="M59.34,-262.73C67.79,-226.81 92.78,-140.02 145.75,-91 147.55,-89.34 149.47,-87.78 151.48,-86.33"/>
<polygon fill="#63b8ff" stroke="#63b8ff" points="152.84,-89.6 159.5,-81.36 149.15,-83.65 152.84,-89.6"/>
</a>
</g>
</g>
<!-- Node15 -->
<g id="Node000015" class="node">
<title>Node15</title>
<g id="a_Node000015"><a xlink:href="../../d3/d07/namespace_g_e_u_1_1_gui_utilities.html#a88ea28e34fa36a83a0935d82fc4a75ac" target="_top" xlink:title=" ">
<polygon fill="white" stroke="#666666" points="259.62,-320 163.38,-320 163.38,-288 259.62,-288 259.62,-320"/>
<text text-anchor="start" x="171.38" y="-306.5" font-family="Helvetica,sans-Serif" font-size="10.00">GEU::GuiUtilities::</text>
<text text-anchor="middle" x="211.5" y="-294.5" font-family="Helvetica,sans-Serif" font-size="10.00">SliderFloat</text>
</a>
</g>
</g>
<!-- Node1&#45;&gt;Node15 -->
<g id="edge18_Node000001_Node000015" class="edge">
<title>Node1&#45;&gt;Node15</title>
<g id="a_edge18_Node000001_Node000015"><a xlink:title=" ">
<path fill="none" stroke="#63b8ff" d="M109.96,-287.74C123.43,-289.92 137.94,-292.27 151.63,-294.48"/>
<polygon fill="#63b8ff" stroke="#63b8ff" points="150.97,-297.92 161.4,-296.06 152.08,-291.01 150.97,-297.92"/>
</a>
</g>
</g>
<!-- Node3 -->
<g id="Node000003" class="node">
<title>Node3</title>
<g id="a_Node000003"><a xlink:href="../../d3/d07/namespace_g_e_u_1_1_gui_utilities.html#a76a49056660c5a9246a94564afbb676a" target="_top" xlink:title=" ">
<polygon fill="white" stroke="#666666" points="428.25,-220 313.25,-220 313.25,-200 428.25,-200 428.25,-220"/>
<text text-anchor="middle" x="370.75" y="-206.5" font-family="Helvetica,sans-Serif" font-size="10.00">GEU::GuiUtilities::Text</text>
</a>
</g>
</g>
<!-- Node2&#45;&gt;Node3 -->
<g id="edge2_Node000002_Node000003" class="edge">
<title>Node2&#45;&gt;Node3</title>
<g id="a_edge2_Node000002_Node000003"><a xlink:title=" ">
<path fill="none" stroke="#63b8ff" d="M260.01,-29.79C266.22,-32.86 272.17,-36.55 277.25,-41 324.29,-82.2 351.96,-153.36 363.46,-188.74"/>
<polygon fill="#63b8ff" stroke="#63b8ff" points="360.09,-189.71 366.41,-198.21 366.78,-187.63 360.09,-189.71"/>
</a>
</g>
</g>
<!-- Node7&#45;&gt;Node3 -->
<g id="edge7_Node000007_Node000003" class="edge">
<title>Node7&#45;&gt;Node3</title>
<g id="a_edge7_Node000007_Node000003"><a xlink:title=" ">
<path fill="none" stroke="#63b8ff" d="M259.53,-132.4C265.61,-135.03 271.66,-137.91 277.25,-141 303.98,-155.77 331.67,-177.41 349.71,-192.51"/>
<polygon fill="#63b8ff" stroke="#63b8ff" points="347.16,-194.94 357.05,-198.75 351.7,-189.61 347.16,-194.94"/>
</a>
</g>
</g>
<!-- Node8&#45;&gt;Node9 -->
<g id="edge9_Node000008_Node000009" class="edge">
<title>Node8&#45;&gt;Node9</title>
<g id="a_edge9_Node000008_Node000009"><a xlink:title=" ">
<path fill="none" stroke="#63b8ff" d="M259.93,-420.45C265.89,-423.05 271.8,-425.91 277.25,-429 301.23,-442.57 325.72,-461.93 343.47,-477.15"/>
<polygon fill="#63b8ff" stroke="#63b8ff" points="341.13,-479.75 350.96,-483.69 345.73,-474.48 341.13,-479.75"/>
</a>
</g>
</g>
<!-- Node13&#45;&gt;Node3 -->
<g id="edge15_Node000013_Node000003" class="edge">
<title>Node13&#45;&gt;Node3</title>
<g id="a_edge15_Node000013_Node000003"><a xlink:title=" ">
<path fill="none" stroke="#63b8ff" d="M260.07,-339.12C266.13,-336.24 272.03,-332.88 277.25,-329 313.82,-301.82 343.43,-256.56 358.64,-230.39"/>
<polygon fill="#63b8ff" stroke="#63b8ff" points="361.64,-232.2 363.51,-221.77 355.54,-228.76 361.64,-232.2"/>
</a>
</g>
</g>
<!-- Node15&#45;&gt;Node3 -->
<g id="edge19_Node000015_Node000003" class="edge">
<title>Node15&#45;&gt;Node3</title>
<g id="a_edge19_Node000015_Node000003"><a xlink:title=" ">
<path fill="none" stroke="#63b8ff" d="M259.53,-287.6C265.61,-284.97 271.66,-282.09 277.25,-279 303.98,-264.23 331.67,-242.59 349.71,-227.49"/>
<polygon fill="#63b8ff" stroke="#63b8ff" points="351.7,-230.39 357.05,-221.25 347.16,-225.06 351.7,-230.39"/>
</a>
</g>
</g>
</g>
</svg>
