<?xml version="1.0" encoding="UTF-8" standalone="no"?>
<!DOCTYPE svg PUBLIC "-//W3C//DTD SVG 1.1//EN"
 "http://www.w3.org/Graphics/SVG/1.1/DTD/svg11.dtd">
<!-- Generated by graphviz version 10.0.1 (20240210.2158)
 -->
<!-- Title: GEU::PickingWindow::PickingWindow Pages: 1 -->
<svg width="305pt" height="140pt"
 viewBox="0.00 0.00 304.75 140.00" xmlns="http://www.w3.org/2000/svg" xmlns:xlink="http://www.w3.org/1999/xlink">
<g id="graph0" class="graph" transform="scale(1 1) rotate(0) translate(4 136)">
<title>GEU::PickingWindow::PickingWindow</title>
<!-- Node1 -->
<g id="Node000001" class="node">
<title>Node1</title>
<g id="a_Node000001"><a xlink:title=" ">
<polygon fill="#999999" stroke="#666666" points="109.75,-82 0,-82 0,-50 109.75,-50 109.75,-82"/>
<text text-anchor="start" x="8" y="-68.5" font-family="Helvetica,sans-Serif" font-size="10.00">GEU::PickingWindow</text>
<text text-anchor="middle" x="54.88" y="-56.5" font-family="Helvetica,sans-Serif" font-size="10.00">::PickingWindow</text>
</a>
</g>
</g>
<!-- Node2 -->
<g id="Node000002" class="node">
<title>Node2</title>
<g id="a_Node000002"><a xlink:href="../../d1/d01/class_g_e_u_1_1_singleton.html#a47c7e7c2110f4cc59c9ff1f5594c366e" target="_top" xlink:title=" ">
<polygon fill="white" stroke="#666666" points="296.75,-132 145.75,-132 145.75,-100 296.75,-100 296.75,-132"/>
<text text-anchor="start" x="153.75" y="-118.5" font-family="Helvetica,sans-Serif" font-size="10.00">GEU::Singleton&lt; InputManager</text>
<text text-anchor="middle" x="221.25" y="-106.5" font-family="Helvetica,sans-Serif" font-size="10.00"> &gt;::getInstance</text>
</a>
</g>
</g>
<!-- Node1&#45;&gt;Node2 -->
<g id="edge1_Node000001_Node000002" class="edge">
<title>Node1&#45;&gt;Node2</title>
<g id="a_edge1_Node000001_Node000002"><a xlink:title=" ">
<path fill="none" stroke="#63b8ff" d="M109.7,-82.37C124.24,-86.8 140.13,-91.63 155.21,-96.22"/>
<polygon fill="#63b8ff" stroke="#63b8ff" points="153.99,-99.5 164.58,-99.07 156.03,-92.81 153.99,-99.5"/>
</a>
</g>
</g>
<!-- Node3 -->
<g id="Node000003" class="node">
<title>Node3</title>
<g id="a_Node000003"><a xlink:href="../../d9/d05/class_g_e_u_1_1_input_manager.html#ae44277b845d209a2a741598cf19badfc" target="_top" xlink:title=" ">
<polygon fill="white" stroke="#666666" points="276.5,-82 166,-82 166,-50 276.5,-50 276.5,-82"/>
<text text-anchor="start" x="174" y="-68.5" font-family="Helvetica,sans-Serif" font-size="10.00">GEU::InputManager::</text>
<text text-anchor="middle" x="221.25" y="-56.5" font-family="Helvetica,sans-Serif" font-size="10.00">suscribeMouseButton</text>
</a>
</g>
</g>
<!-- Node1&#45;&gt;Node3 -->
<g id="edge2_Node000001_Node000003" class="edge">
<title>Node1&#45;&gt;Node3</title>
<g id="a_edge2_Node000001_Node000003"><a xlink:title=" ">
<path fill="none" stroke="#63b8ff" d="M110.15,-66C124.39,-66 139.89,-66 154.64,-66"/>
<polygon fill="#63b8ff" stroke="#63b8ff" points="154.23,-69.5 164.23,-66 154.23,-62.5 154.23,-69.5"/>
</a>
</g>
</g>
<!-- Node4 -->
<g id="Node000004" class="node">
<title>Node4</title>
<g id="a_Node000004"><a xlink:href="../../d9/d05/class_g_e_u_1_1_input_manager.html#a7458046b064729ef2179be6bf5018bdd" target="_top" xlink:title=" ">
<polygon fill="white" stroke="#666666" points="275,-32 167.5,-32 167.5,0 275,0 275,-32"/>
<text text-anchor="start" x="175.5" y="-18.5" font-family="Helvetica,sans-Serif" font-size="10.00">GEU::InputManager::</text>
<text text-anchor="middle" x="221.25" y="-6.5" font-family="Helvetica,sans-Serif" font-size="10.00">suscribeMouseMove</text>
</a>
</g>
</g>
<!-- Node1&#45;&gt;Node4 -->
<g id="edge3_Node000001_Node000004" class="edge">
<title>Node1&#45;&gt;Node4</title>
<g id="a_edge3_Node000001_Node000004"><a xlink:title=" ">
<path fill="none" stroke="#63b8ff" d="M109.7,-49.63C124.54,-45.11 140.79,-40.17 156.15,-35.5"/>
<polygon fill="#63b8ff" stroke="#63b8ff" points="157.15,-38.85 165.7,-32.59 155.11,-32.15 157.15,-38.85"/>
</a>
</g>
</g>
</g>
</svg>
