<?xml version="1.0" encoding="UTF-8" standalone="no"?>
<!DOCTYPE svg PUBLIC "-//W3C//DTD SVG 1.1//EN"
 "http://www.w3.org/Graphics/SVG/1.1/DTD/svg11.dtd">
<!-- Generated by graphviz version 10.0.1 (20240210.2158)
 -->
<!-- Title: GEU::ProceduralGenerator::computeNURBS Pages: 1 -->
<svg width="500pt" height="242pt"
 viewBox="0.00 0.00 500.00 242.00" xmlns="http://www.w3.org/2000/svg" xmlns:xlink="http://www.w3.org/1999/xlink">
<g id="graph0" class="graph" transform="scale(1 1) rotate(0) translate(4 238)">
<title>GEU::ProceduralGenerator::computeNURBS</title>
<!-- Node1 -->
<g id="Node000001" class="node">
<title>Node1</title>
<g id="a_Node000001"><a xlink:title=" ">
<polygon fill="#999999" stroke="#666666" points="132.25,-136 0,-136 0,-104 132.25,-104 132.25,-136"/>
<text text-anchor="start" x="8" y="-122.5" font-family="Helvetica,sans-Serif" font-size="10.00">GEU::ProceduralGenerator</text>
<text text-anchor="middle" x="66.12" y="-110.5" font-family="Helvetica,sans-Serif" font-size="10.00">::computeNURBS</text>
</a>
</g>
</g>
<!-- Node2 -->
<g id="Node000002" class="node">
<title>Node2</title>
<g id="a_Node000002"><a xlink:href="../../db/d06/a01509.html#ac42fd10eb6ef9fb6df2b04907027f0e8" target="_top" xlink:title=" ">
<polygon fill="white" stroke="#666666" points="326.75,-234 168.25,-234 168.25,-214 326.75,-214 326.75,-234"/>
<text text-anchor="middle" x="247.5" y="-220.5" font-family="Helvetica,sans-Serif" font-size="10.00">GEU::PointCloud::addNewPoints</text>
</a>
</g>
</g>
<!-- Node1&#45;&gt;Node2 -->
<g id="edge1_Node000001_Node000002" class="edge">
<title>Node1&#45;&gt;Node2</title>
<g id="a_edge1_Node000001_Node000002"><a xlink:title=" ">
<path fill="none" stroke="#63b8ff" d="M81.92,-136.37C100.28,-155.69 133.46,-187.39 168.25,-205 171.72,-206.76 175.37,-208.36 179.1,-209.81"/>
<polygon fill="#63b8ff" stroke="#63b8ff" points="177.78,-213.06 188.38,-213.05 180.09,-206.45 177.78,-213.06"/>
</a>
</g>
</g>
<!-- Node3 -->
<g id="Node000003" class="node">
<title>Node3</title>
<g id="a_Node000003"><a xlink:href="../../db/d04/a01501.html#ab5fdc7a938aa8ae8f6697cb4bf3e94b4" target="_top" xlink:title=" ">
<polygon fill="white" stroke="#666666" points="311.38,-196 183.62,-196 183.62,-176 311.38,-176 311.38,-196"/>
<text text-anchor="middle" x="247.5" y="-182.5" font-family="Helvetica,sans-Serif" font-size="10.00">GEU::Model3D::getAABB</text>
</a>
</g>
</g>
<!-- Node1&#45;&gt;Node3 -->
<g id="edge2_Node000001_Node000003" class="edge">
<title>Node1&#45;&gt;Node3</title>
<g id="a_edge2_Node000001_Node000003"><a xlink:title=" ">
<path fill="none" stroke="#63b8ff" d="M104.25,-136.42C123.23,-144.56 146.79,-154.27 168.25,-162 178.17,-165.57 188.91,-169.09 199.16,-172.28"/>
<polygon fill="#63b8ff" stroke="#63b8ff" points="198,-175.59 208.58,-175.16 200.04,-168.89 198,-175.59"/>
</a>
</g>
</g>
<!-- Node5 -->
<g id="Node000005" class="node">
<title>Node5</title>
<g id="a_Node000005"><a xlink:href="../../db/d05/a01637.html#aa80c2fc1bbc932572311ba94a8f76530" target="_top" xlink:title=" ">
<polygon fill="white" stroke="#666666" points="461.25,-141 393.5,-141 393.5,-121 461.25,-121 461.25,-141"/>
<text text-anchor="middle" x="427.38" y="-127.5" font-family="Helvetica,sans-Serif" font-size="10.00">AABB::max</text>
</a>
</g>
</g>
<!-- Node1&#45;&gt;Node5 -->
<g id="edge4_Node000001_Node000005" class="edge">
<title>Node1&#45;&gt;Node5</title>
<g id="a_edge4_Node000001_Node000005"><a xlink:title=" ">
<path fill="none" stroke="#63b8ff" d="M132.62,-126.61C144.47,-127.58 156.72,-128.44 168.25,-129 243.21,-132.62 330.55,-132.36 382,-131.75"/>
<polygon fill="#63b8ff" stroke="#63b8ff" points="381.88,-135.25 391.83,-131.62 381.79,-128.25 381.88,-135.25"/>
</a>
</g>
</g>
<!-- Node6 -->
<g id="Node000006" class="node">
<title>Node6</title>
<g id="a_Node000006"><a xlink:href="../../db/d05/a01637.html#a29073914f600f7657f4a44937702a471" target="_top" xlink:title=" ">
<polygon fill="white" stroke="#666666" points="459.75,-86 395,-86 395,-66 459.75,-66 459.75,-86"/>
<text text-anchor="middle" x="427.38" y="-72.5" font-family="Helvetica,sans-Serif" font-size="10.00">AABB::min</text>
</a>
</g>
</g>
<!-- Node1&#45;&gt;Node6 -->
<g id="edge5_Node000001_Node000006" class="edge">
<title>Node1&#45;&gt;Node6</title>
<g id="a_edge5_Node000001_Node000006"><a xlink:title=" ">
<path fill="none" stroke="#63b8ff" d="M93.87,-103.63C113.63,-92.55 141.6,-78.89 168.25,-73 242.34,-56.62 331.34,-63.22 383.11,-69.57"/>
<polygon fill="#63b8ff" stroke="#63b8ff" points="382.64,-73.04 393.01,-70.84 383.54,-66.09 382.64,-73.04"/>
</a>
</g>
</g>
<!-- Node7 -->
<g id="Node000007" class="node">
<title>Node7</title>
<g id="a_Node000007"><a xlink:href="../../d7/d01/a01589.html#a4234196f8be419dba1c3ca4468adaa02" target="_top" xlink:title="Packs an RGB color into an unsigned value.">
<polygon fill="white" stroke="#666666" points="317,-26 178,-26 178,-6 317,-6 317,-26"/>
<text text-anchor="middle" x="247.5" y="-12.5" font-family="Helvetica,sans-Serif" font-size="10.00">GEU::VAO::Point::saveRGB</text>
</a>
</g>
</g>
<!-- Node1&#45;&gt;Node7 -->
<g id="edge6_Node000001_Node000007" class="edge">
<title>Node1&#45;&gt;Node7</title>
<g id="a_edge6_Node000001_Node000007"><a xlink:title=" ">
<path fill="none" stroke="#63b8ff" d="M83.63,-103.69C102.6,-85.78 135.35,-57.27 168.25,-40 175.52,-36.19 183.49,-32.87 191.47,-30.02"/>
<polygon fill="#63b8ff" stroke="#63b8ff" points="192.48,-33.38 200.87,-26.91 190.28,-26.73 192.48,-33.38"/>
</a>
</g>
</g>
<!-- Node9 -->
<g id="Node000009" class="node">
<title>Node9</title>
<g id="a_Node000009"><a xlink:href="../../db/d05/a01637.html#ac7df26fada02a660519ce8829eec1bf2" target="_top" xlink:title=" ">
<polygon fill="white" stroke="#666666" points="286.62,-102 208.38,-102 208.38,-82 286.62,-82 286.62,-102"/>
<text text-anchor="middle" x="247.5" y="-88.5" font-family="Helvetica,sans-Serif" font-size="10.00">AABB::update</text>
</a>
</g>
</g>
<!-- Node1&#45;&gt;Node9 -->
<g id="edge8_Node000001_Node000009" class="edge">
<title>Node1&#45;&gt;Node9</title>
<g id="a_edge8_Node000001_Node000009"><a xlink:title=" ">
<path fill="none" stroke="#63b8ff" d="M132.64,-109.77C153.81,-106.47 176.92,-102.86 196.75,-99.77"/>
<polygon fill="#63b8ff" stroke="#63b8ff" points="197.17,-103.24 206.51,-98.24 196.09,-96.33 197.17,-103.24"/>
</a>
</g>
</g>
<!-- Node4 -->
<g id="Node000004" class="node">
<title>Node4</title>
<g id="a_Node000004"><a xlink:href="../../db/d05/a01637.html#ab4dad925a3cb42ad2f00c7d5053369e1" target="_top" xlink:title=" ">
<polygon fill="white" stroke="#666666" points="458.62,-196 396.12,-196 396.12,-176 458.62,-176 458.62,-196"/>
<text text-anchor="middle" x="427.38" y="-182.5" font-family="Helvetica,sans-Serif" font-size="10.00">AABB::dot</text>
</a>
</g>
</g>
<!-- Node3&#45;&gt;Node4 -->
<g id="edge3_Node000003_Node000004" class="edge">
<title>Node3&#45;&gt;Node4</title>
<g id="a_edge3_Node000003_Node000004"><a xlink:title=" ">
<path fill="none" stroke="#63b8ff" d="M311.71,-186C335.81,-186 362.66,-186 384.32,-186"/>
<polygon fill="#63b8ff" stroke="#63b8ff" points="384.26,-189.5 394.26,-186 384.26,-182.5 384.26,-189.5"/>
</a>
</g>
</g>
<!-- Node8 -->
<g id="Node000008" class="node">
<title>Node8</title>
<g id="a_Node000008"><a xlink:href="../../d7/d01/a01589.html#a08369eb10ee0a897e2126bab74bce5ac" target="_top" xlink:title=" ">
<polygon fill="white" stroke="#666666" points="492,-32 362.75,-32 362.75,0 492,0 492,-32"/>
<text text-anchor="start" x="370.75" y="-18.5" font-family="Helvetica,sans-Serif" font-size="10.00">GEU::VAO::Point::get8Bit</text>
<text text-anchor="middle" x="427.38" y="-6.5" font-family="Helvetica,sans-Serif" font-size="10.00">RGBColor</text>
</a>
</g>
</g>
<!-- Node7&#45;&gt;Node8 -->
<g id="edge7_Node000007_Node000008" class="edge">
<title>Node7&#45;&gt;Node8</title>
<g id="a_edge7_Node000007_Node000008"><a xlink:title=" ">
<path fill="none" stroke="#63b8ff" d="M317.27,-16C328.3,-16 339.77,-16 350.94,-16"/>
<polygon fill="#63b8ff" stroke="#63b8ff" points="350.94,-19.5 360.94,-16 350.94,-12.5 350.94,-19.5"/>
</a>
</g>
</g>
<!-- Node9&#45;&gt;Node5 -->
<g id="edge9_Node000009_Node000005" class="edge">
<title>Node9&#45;&gt;Node5</title>
<g id="a_edge9_Node000009_Node000005"><a xlink:title=" ">
<path fill="none" stroke="#63b8ff" d="M287.1,-100.46C315.06,-106.59 352.92,-114.89 382.11,-121.3"/>
<polygon fill="#63b8ff" stroke="#63b8ff" points="381.24,-124.69 391.76,-123.41 382.74,-117.85 381.24,-124.69"/>
</a>
</g>
</g>
<!-- Node9&#45;&gt;Node6 -->
<g id="edge10_Node000009_Node000006" class="edge">
<title>Node9&#45;&gt;Node6</title>
<g id="a_edge10_Node000009_Node000006"><a xlink:title=" ">
<path fill="none" stroke="#63b8ff" d="M287.1,-88.53C315.51,-85.97 354.15,-82.5 383.52,-79.86"/>
<polygon fill="#63b8ff" stroke="#63b8ff" points="383.53,-83.37 393.17,-78.99 382.9,-76.4 383.53,-83.37"/>
</a>
</g>
</g>
<!-- Node9&#45;&gt;Node9 -->
<g id="edge11_Node000009_Node000009" class="edge">
<title>Node9&#45;&gt;Node9</title>
<g id="a_edge11_Node000009_Node000009"><a xlink:title=" ">
<path fill="none" stroke="#63b8ff" d="M218.92,-102.34C206.71,-110.98 216.23,-120 247.5,-120 265.09,-120 275.8,-117.14 279.63,-113.11"/>
<polygon fill="#63b8ff" stroke="#63b8ff" points="283.01,-112.18 276.55,-103.78 276.36,-114.37 283.01,-112.18"/>
</a>
</g>
</g>
</g>
</svg>
