<?xml version="1.0" encoding="UTF-8" standalone="no"?>
<!DOCTYPE svg PUBLIC "-//W3C//DTD SVG 1.1//EN"
 "http://www.w3.org/Graphics/SVG/1.1/DTD/svg11.dtd">
<!-- Generated by graphviz version 10.0.1 (20240210.2158)
 -->
<!-- Title: GEU::ProceduralGenerator::RegionRGBSegmentation Pages: 1 -->
<svg width="491pt" height="160pt"
 viewBox="0.00 0.00 491.00 160.00" xmlns="http://www.w3.org/2000/svg" xmlns:xlink="http://www.w3.org/1999/xlink">
<g id="graph0" class="graph" transform="scale(1 1) rotate(0) translate(4 156)">
<title>GEU::ProceduralGenerator::RegionRGBSegmentation</title>
<!-- Node1 -->
<g id="Node000001" class="node">
<title>Node1</title>
<g id="a_Node000001"><a xlink:title=" ">
<polygon fill="#999999" stroke="#666666" points="133,-114 0,-114 0,-82 133,-82 133,-114"/>
<text text-anchor="start" x="8" y="-100.5" font-family="Helvetica,sans-Serif" font-size="10.00">GEU::ProceduralGenerator</text>
<text text-anchor="middle" x="66.5" y="-88.5" font-family="Helvetica,sans-Serif" font-size="10.00">::RegionRGBSegmentation</text>
</a>
</g>
</g>
<!-- Node2 -->
<g id="Node000002" class="node">
<title>Node2</title>
<g id="a_Node000002"><a xlink:href="../../dc/d06/a01517.html#a101eed167bec92e041e4b0e04f6cce58" target="_top" xlink:title="Inserts 3D model to current scene.">
<polygon fill="white" stroke="#666666" points="308.38,-152 178.38,-152 178.38,-132 308.38,-132 308.38,-152"/>
<text text-anchor="middle" x="243.38" y="-138.5" font-family="Helvetica,sans-Serif" font-size="10.00">GEU::Renderer::addModel</text>
</a>
</g>
</g>
<!-- Node1&#45;&gt;Node2 -->
<g id="edge1_Node000001_Node000002" class="edge">
<title>Node1&#45;&gt;Node2</title>
<g id="a_edge1_Node000001_Node000002"><a xlink:title=" ">
<path fill="none" stroke="#63b8ff" d="M132.62,-114.38C151.43,-119.12 171.71,-124.22 189.67,-128.74"/>
<polygon fill="#63b8ff" stroke="#63b8ff" points="188.78,-132.12 199.33,-131.17 190.49,-125.33 188.78,-132.12"/>
</a>
</g>
</g>
<!-- Node3 -->
<g id="Node000003" class="node">
<title>Node3</title>
<g id="a_Node000003"><a xlink:href="../../d5/d01/a01945.html#a47c7e7c2110f4cc59c9ff1f5594c366e" target="_top" xlink:title=" ">
<polygon fill="white" stroke="#666666" points="309.12,-114 177.62,-114 177.62,-82 309.12,-82 309.12,-114"/>
<text text-anchor="start" x="185.62" y="-100.5" font-family="Helvetica,sans-Serif" font-size="10.00">GEU::Singleton&lt; Renderer</text>
<text text-anchor="middle" x="243.38" y="-88.5" font-family="Helvetica,sans-Serif" font-size="10.00"> &gt;::getInstance</text>
</a>
</g>
</g>
<!-- Node1&#45;&gt;Node3 -->
<g id="edge2_Node000001_Node000003" class="edge">
<title>Node1&#45;&gt;Node3</title>
<g id="a_edge2_Node000001_Node000003"><a xlink:title=" ">
<path fill="none" stroke="#63b8ff" d="M133.11,-91.44C143.83,-91.25 155.02,-91.2 165.97,-91.3"/>
<polygon fill="#63b8ff" stroke="#63b8ff" points="165.71,-94.79 175.75,-91.43 165.8,-87.8 165.71,-94.79"/>
</a>
</g>
</g>
<!-- Node1&#45;&gt;Node3 -->
<g id="edge3_Node000001_Node000003" class="edge">
<title>Node1&#45;&gt;Node3</title>
<g id="a_edge3_Node000001_Node000003"><a xlink:title=" ">
<path fill="none" stroke="#63b8ff" d="M133.11,-104.56C143.83,-104.75 155.02,-104.8 165.97,-104.7"/>
<polygon fill="#63b8ff" stroke="#63b8ff" points="165.8,-108.2 175.75,-104.57 165.71,-101.21 165.8,-108.2"/>
</a>
</g>
</g>
<!-- Node4 -->
<g id="Node000004" class="node">
<title>Node4</title>
<g id="a_Node000004"><a xlink:href="../../dc/d06/a01517.html#ae941cdb83d15bb05ac73cf19173a1f84" target="_top" xlink:title="get the cloud with the cloud name specified if it exists in the current active scene.">
<polygon fill="white" stroke="#666666" points="317.75,-64 169,-64 169,-44 317.75,-44 317.75,-64"/>
<text text-anchor="middle" x="243.38" y="-50.5" font-family="Helvetica,sans-Serif" font-size="10.00">GEU::Renderer::getPointCloud</text>
</a>
</g>
</g>
<!-- Node1&#45;&gt;Node4 -->
<g id="edge4_Node000001_Node000004" class="edge">
<title>Node1&#45;&gt;Node4</title>
<g id="a_edge4_Node000001_Node000004"><a xlink:title=" ">
<path fill="none" stroke="#63b8ff" d="M132.62,-81.62C151.43,-76.88 171.71,-71.78 189.67,-67.26"/>
<polygon fill="#63b8ff" stroke="#63b8ff" points="190.49,-70.67 199.33,-64.83 188.78,-63.88 190.49,-70.67"/>
</a>
</g>
</g>
<!-- Node5 -->
<g id="Node000005" class="node">
<title>Node5</title>
<g id="a_Node000005"><a xlink:href="../../d7/d01/a01589.html#a4234196f8be419dba1c3ca4468adaa02" target="_top" xlink:title="Packs an RGB color into an unsigned value.">
<polygon fill="white" stroke="#666666" points="312.88,-26 173.88,-26 173.88,-6 312.88,-6 312.88,-26"/>
<text text-anchor="middle" x="243.38" y="-12.5" font-family="Helvetica,sans-Serif" font-size="10.00">GEU::VAO::Point::saveRGB</text>
</a>
</g>
</g>
<!-- Node1&#45;&gt;Node5 -->
<g id="edge5_Node000001_Node000005" class="edge">
<title>Node1&#45;&gt;Node5</title>
<g id="a_edge5_Node000001_Node000005"><a xlink:title=" ">
<path fill="none" stroke="#63b8ff" d="M89.4,-81.68C109.27,-67.55 139.83,-47.49 169,-35 173.36,-33.14 177.94,-31.42 182.59,-29.85"/>
<polygon fill="#63b8ff" stroke="#63b8ff" points="183.58,-33.21 192.08,-26.89 181.5,-26.52 183.58,-33.21"/>
</a>
</g>
</g>
<!-- Node6 -->
<g id="Node000006" class="node">
<title>Node6</title>
<g id="a_Node000006"><a xlink:href="../../d7/d01/a01589.html#a08369eb10ee0a897e2126bab74bce5ac" target="_top" xlink:title=" ">
<polygon fill="white" stroke="#666666" points="483,-32 353.75,-32 353.75,0 483,0 483,-32"/>
<text text-anchor="start" x="361.75" y="-18.5" font-family="Helvetica,sans-Serif" font-size="10.00">GEU::VAO::Point::get8Bit</text>
<text text-anchor="middle" x="418.38" y="-6.5" font-family="Helvetica,sans-Serif" font-size="10.00">RGBColor</text>
</a>
</g>
</g>
<!-- Node5&#45;&gt;Node6 -->
<g id="edge6_Node000005_Node000006" class="edge">
<title>Node5&#45;&gt;Node6</title>
<g id="a_edge6_Node000005_Node000006"><a xlink:title=" ">
<path fill="none" stroke="#63b8ff" d="M313.25,-16C322.8,-16 332.64,-16 342.3,-16"/>
<polygon fill="#63b8ff" stroke="#63b8ff" points="342,-19.5 352,-16 342,-12.5 342,-19.5"/>
</a>
</g>
</g>
</g>
</svg>
