<?xml version="1.0" encoding="UTF-8" standalone="no"?>
<!DOCTYPE svg PUBLIC "-//W3C//DTD SVG 1.1//EN"
 "http://www.w3.org/Graphics/SVG/1.1/DTD/svg11.dtd">
<!-- Generated by graphviz version 10.0.1 (20240210.2158)
 -->
<!-- Title: json::parsing_error Pages: 1 -->
<svg width="116pt" height="196pt"
 viewBox="0.00 0.00 115.50 196.00" xmlns="http://www.w3.org/2000/svg" xmlns:xlink="http://www.w3.org/1999/xlink">
<g id="graph0" class="graph" transform="scale(1 1) rotate(0) translate(4 192)">
<title>json::parsing_error</title>
<!-- Node1 -->
<g id="Node000001" class="node">
<title>Node1</title>
<g id="a_Node000001"><a xlink:title="Exception used when invalid JSON is encountered.">
<polygon fill="#999999" stroke="#666666" points="101.88,-20 5.62,-20 5.62,0 101.88,0 101.88,-20"/>
<text text-anchor="middle" x="53.75" y="-6.5" font-family="Helvetica,sans-Serif" font-size="10.00">json::parsing_error</text>
</a>
</g>
</g>
<!-- Node2 -->
<g id="Node000002" class="node">
<title>Node2</title>
<g id="a_Node000002"><a xlink:title=" ">
<polygon fill="white" stroke="#666666" points="107.5,-76 0,-76 0,-56 107.5,-56 107.5,-76"/>
<text text-anchor="middle" x="53.75" y="-62.5" font-family="Helvetica,sans-Serif" font-size="10.00">std::invalid_argument</text>
</a>
</g>
</g>
<!-- Node2&#45;&gt;Node1 -->
<g id="edge1_Node000001_Node000002" class="edge">
<title>Node2&#45;&gt;Node1</title>
<g id="a_edge1_Node000001_Node000002"><a xlink:title=" ">
<path fill="none" stroke="#63b8ff" d="M53.75,-44.13C53.75,-35.9 53.75,-26.85 53.75,-20.3"/>
<polygon fill="#63b8ff" stroke="#63b8ff" points="50.25,-44.08 53.75,-54.08 57.25,-44.08 50.25,-44.08"/>
</a>
</g>
</g>
<!-- Node3 -->
<g id="Node000003" class="node">
<title>Node3</title>
<g id="a_Node000003"><a xlink:title=" ">
<polygon fill="white" stroke="#666666" points="94,-132 13.5,-132 13.5,-112 94,-112 94,-132"/>
<text text-anchor="middle" x="53.75" y="-118.5" font-family="Helvetica,sans-Serif" font-size="10.00">std::logic_error</text>
</a>
</g>
</g>
<!-- Node3&#45;&gt;Node2 -->
<g id="edge2_Node000002_Node000003" class="edge">
<title>Node3&#45;&gt;Node2</title>
<g id="a_edge2_Node000002_Node000003"><a xlink:title=" ">
<path fill="none" stroke="#63b8ff" d="M53.75,-100.13C53.75,-91.9 53.75,-82.85 53.75,-76.3"/>
<polygon fill="#63b8ff" stroke="#63b8ff" points="50.25,-100.08 53.75,-110.08 57.25,-100.08 50.25,-100.08"/>
</a>
</g>
</g>
<!-- Node4 -->
<g id="Node000004" class="node">
<title>Node4</title>
<g id="a_Node000004"><a xlink:title=" ">
<polygon fill="white" stroke="#666666" points="92.5,-188 15,-188 15,-168 92.5,-168 92.5,-188"/>
<text text-anchor="middle" x="53.75" y="-174.5" font-family="Helvetica,sans-Serif" font-size="10.00">std::exception</text>
</a>
</g>
</g>
<!-- Node4&#45;&gt;Node3 -->
<g id="edge3_Node000003_Node000004" class="edge">
<title>Node4&#45;&gt;Node3</title>
<g id="a_edge3_Node000003_Node000004"><a xlink:title=" ">
<path fill="none" stroke="#63b8ff" d="M53.75,-156.13C53.75,-147.9 53.75,-138.85 53.75,-132.3"/>
<polygon fill="#63b8ff" stroke="#63b8ff" points="50.25,-156.08 53.75,-166.08 57.25,-156.08 50.25,-156.08"/>
</a>
</g>
</g>
</g>
</svg>
