<?xml version="1.0" encoding="UTF-8" standalone="no"?>
<!DOCTYPE svg PUBLIC "-//W3C//DTD SVG 1.1//EN"
 "http://www.w3.org/Graphics/SVG/1.1/DTD/svg11.dtd">
<!-- Generated by graphviz version 10.0.1 (20240210.2158)
 -->
<!-- Title: DatabaseConnector::getVuelos Pages: 1 -->
<svg width="487pt" height="90pt"
 viewBox="0.00 0.00 486.50 90.00" xmlns="http://www.w3.org/2000/svg" xmlns:xlink="http://www.w3.org/1999/xlink">
<g id="graph0" class="graph" transform="scale(1 1) rotate(0) translate(4 86)">
<title>DatabaseConnector::getVuelos</title>
<!-- Node1 -->
<g id="Node000001" class="node">
<title>Node1</title>
<g id="a_Node000001"><a xlink:title="Obtiene un listado de todos los vuelos de la base de datos.">
<polygon fill="#999999" stroke="#666666" points="478.5,-57 371,-57 371,-25 478.5,-25 478.5,-57"/>
<text text-anchor="start" x="379" y="-43.5" font-family="Helvetica,sans-Serif" font-size="10.00">DatabaseConnector::</text>
<text text-anchor="middle" x="424.75" y="-31.5" font-family="Helvetica,sans-Serif" font-size="10.00">getVuelos</text>
</a>
</g>
</g>
<!-- Node2 -->
<g id="Node000002" class="node">
<title>Node2</title>
<g id="a_Node000002"><a xlink:href="../../d2/da0/class_g_e_u_1_1_database_new_raw_popup.html#a0ab8ef55837c3a0c64ae56593e807128" target="_top" xlink:title=" ">
<polygon fill="white" stroke="#666666" points="335,-82 185.5,-82 185.5,-50 335,-50 335,-82"/>
<text text-anchor="start" x="193.5" y="-68.5" font-family="Helvetica,sans-Serif" font-size="10.00">GEU::DatabaseNewRawPopup</text>
<text text-anchor="middle" x="260.25" y="-56.5" font-family="Helvetica,sans-Serif" font-size="10.00">::autofill</text>
</a>
</g>
</g>
<!-- Node1&#45;&gt;Node2 -->
<g id="edge1_Node000001_Node000002" class="edge">
<title>Node1&#45;&gt;Node2</title>
<g id="a_edge1_Node000001_Node000002"><a xlink:title=" ">
<path fill="none" stroke="#63b8ff" d="M359.2,-50.93C351.32,-52.14 343.23,-53.39 335.23,-54.62"/>
<polygon fill="#63b8ff" stroke="#63b8ff" points="359.69,-54.4 369.05,-49.42 358.63,-47.48 359.69,-54.4"/>
</a>
</g>
</g>
<!-- Node3 -->
<g id="Node000003" class="node">
<title>Node3</title>
<g id="a_Node000003"><a xlink:href="../../d1/d09/class_database_connector.html#a00e40c8a8c699d22f2201c54a6092586" target="_top" xlink:title=" ">
<polygon fill="white" stroke="#666666" points="314,-32 206.5,-32 206.5,0 314,0 314,-32"/>
<text text-anchor="start" x="214.5" y="-18.5" font-family="Helvetica,sans-Serif" font-size="10.00">DatabaseConnector::</text>
<text text-anchor="middle" x="260.25" y="-6.5" font-family="Helvetica,sans-Serif" font-size="10.00">getVuelosAsync</text>
</a>
</g>
</g>
<!-- Node1&#45;&gt;Node3 -->
<g id="edge2_Node000001_Node000003" class="edge">
<title>Node1&#45;&gt;Node3</title>
<g id="a_edge2_Node000001_Node000003"><a xlink:title=" ">
<path fill="none" stroke="#63b8ff" d="M359.32,-31.09C344.39,-28.79 328.67,-26.37 314.3,-24.16"/>
<polygon fill="#63b8ff" stroke="#63b8ff" points="358.63,-34.52 369.05,-32.58 359.69,-27.6 358.63,-34.52"/>
</a>
</g>
</g>
<!-- Node4 -->
<g id="Node000004" class="node">
<title>Node4</title>
<g id="a_Node000004"><a xlink:href="../../d2/da0/class_g_e_u_1_1_database_new_raw_popup.html#ad085501a66eeb639c40519d7cf608b2e" target="_top" xlink:title=" ">
<polygon fill="white" stroke="#666666" points="149.5,-32 0,-32 0,0 149.5,0 149.5,-32"/>
<text text-anchor="start" x="8" y="-18.5" font-family="Helvetica,sans-Serif" font-size="10.00">GEU::DatabaseNewRawPopup</text>
<text text-anchor="middle" x="74.75" y="-6.5" font-family="Helvetica,sans-Serif" font-size="10.00">::DatabaseNewRawPopup</text>
</a>
</g>
</g>
<!-- Node3&#45;&gt;Node4 -->
<g id="edge3_Node000003_Node000004" class="edge">
<title>Node3&#45;&gt;Node4</title>
<g id="a_edge3_Node000003_Node000004"><a xlink:title=" ">
<path fill="none" stroke="#63b8ff" d="M194.78,-16C180.26,-16 164.74,-16 149.86,-16"/>
<polygon fill="#63b8ff" stroke="#63b8ff" points="194.66,-19.5 204.66,-16 194.66,-12.5 194.66,-19.5"/>
</a>
</g>
</g>
</g>
</svg>
