<?xml version="1.0" encoding="UTF-8" standalone="no"?>
<!DOCTYPE svg PUBLIC "-//W3C//DTD SVG 1.1//EN"
 "http://www.w3.org/Graphics/SVG/1.1/DTD/svg11.dtd">
<!-- Generated by graphviz version 10.0.1 (20240210.2158)
 -->
<!-- Title: DatabaseConnector::getMunicipios Pages: 1 -->
<svg width="400pt" height="40pt"
 viewBox="0.00 0.00 399.50 40.00" xmlns="http://www.w3.org/2000/svg" xmlns:xlink="http://www.w3.org/1999/xlink">
<g id="graph0" class="graph" transform="scale(1 1) rotate(0) translate(4 36)">
<title>DatabaseConnector::getMunicipios</title>
<!-- Node1 -->
<g id="Node000001" class="node">
<title>Node1</title>
<g id="a_Node000001"><a xlink:title=" ">
<polygon fill="#999999" stroke="#666666" points="107.5,-32 0,-32 0,0 107.5,0 107.5,-32"/>
<text text-anchor="start" x="8" y="-18.5" font-family="Helvetica,sans-Serif" font-size="10.00">DatabaseConnector::</text>
<text text-anchor="middle" x="53.75" y="-6.5" font-family="Helvetica,sans-Serif" font-size="10.00">getMunicipios</text>
</a>
</g>
</g>
<!-- Node2 -->
<g id="Node000002" class="node">
<title>Node2</title>
<g id="a_Node000002"><a xlink:href="../../d1/d09/class_database_connector.html#a09c3a9c872f5fde0b0c548da64bbd2f6" target="_top" xlink:title=" ">
<polygon fill="white" stroke="#666666" points="251,-32 143.5,-32 143.5,0 251,0 251,-32"/>
<text text-anchor="start" x="151.5" y="-18.5" font-family="Helvetica,sans-Serif" font-size="10.00">DatabaseConnector::</text>
<text text-anchor="middle" x="197.25" y="-6.5" font-family="Helvetica,sans-Serif" font-size="10.00">queryMunicipio</text>
</a>
</g>
</g>
<!-- Node1&#45;&gt;Node2 -->
<g id="edge1_Node000001_Node000002" class="edge">
<title>Node1&#45;&gt;Node2</title>
<g id="a_edge1_Node000001_Node000002"><a xlink:title=" ">
<path fill="none" stroke="#63b8ff" d="M107.84,-16C115.73,-16 123.93,-16 132.02,-16"/>
<polygon fill="#63b8ff" stroke="#63b8ff" points="131.82,-19.5 141.82,-16 131.82,-12.5 131.82,-19.5"/>
</a>
</g>
</g>
<!-- Node3 -->
<g id="Node000003" class="node">
<title>Node3</title>
<g id="a_Node000003"><a xlink:href="../../d4/dd7/struct_database_1_1_municipio.html#a2e135076ae26141775579dfbca4da214" target="_top" xlink:title=" ">
<polygon fill="white" stroke="#666666" points="391.5,-32 287,-32 287,0 391.5,0 391.5,-32"/>
<text text-anchor="start" x="295" y="-18.5" font-family="Helvetica,sans-Serif" font-size="10.00">Database::Municipio</text>
<text text-anchor="middle" x="339.25" y="-6.5" font-family="Helvetica,sans-Serif" font-size="10.00">::fromQuery</text>
</a>
</g>
</g>
<!-- Node2&#45;&gt;Node3 -->
<g id="edge2_Node000002_Node000003" class="edge">
<title>Node2&#45;&gt;Node3</title>
<g id="a_edge2_Node000002_Node000003"><a xlink:title=" ">
<path fill="none" stroke="#63b8ff" d="M251.18,-16C259.07,-16 267.28,-16 275.35,-16"/>
<polygon fill="#63b8ff" stroke="#63b8ff" points="275.12,-19.5 285.12,-16 275.12,-12.5 275.12,-19.5"/>
</a>
</g>
</g>
</g>
</svg>
