<?xml version="1.0" encoding="UTF-8" standalone="no"?>
<!DOCTYPE svg PUBLIC "-//W3C//DTD SVG 1.1//EN"
 "http://www.w3.org/Graphics/SVG/1.1/DTD/svg11.dtd">
<!-- Generated by graphviz version 10.0.1 (20240210.2158)
 -->
<!-- Title: DatabaseConnector::queryProvincia Pages: 1 -->
<svg width="588pt" height="90pt"
 viewBox="0.00 0.00 588.00 90.00" xmlns="http://www.w3.org/2000/svg" xmlns:xlink="http://www.w3.org/1999/xlink">
<g id="graph0" class="graph" transform="scale(1 1) rotate(0) translate(4 86)">
<title>DatabaseConnector::queryProvincia</title>
<!-- Node1 -->
<g id="Node000001" class="node">
<title>Node1</title>
<g id="a_Node000001"><a xlink:title=" ">
<polygon fill="#999999" stroke="#666666" points="580,-57 472.5,-57 472.5,-25 580,-25 580,-57"/>
<text text-anchor="start" x="480.5" y="-43.5" font-family="Helvetica,sans-Serif" font-size="10.00">DatabaseConnector::</text>
<text text-anchor="middle" x="526.25" y="-31.5" font-family="Helvetica,sans-Serif" font-size="10.00">queryProvincia</text>
</a>
</g>
</g>
<!-- Node2 -->
<g id="Node000002" class="node">
<title>Node2</title>
<g id="a_Node000002"><a xlink:href="../../d1/d09/class_database_connector.html#a928cf21531bb7ba19eceeb348cca1c7f" target="_top" xlink:title=" ">
<polygon fill="white" stroke="#666666" points="436.5,-82 329,-82 329,-50 436.5,-50 436.5,-82"/>
<text text-anchor="start" x="337" y="-68.5" font-family="Helvetica,sans-Serif" font-size="10.00">DatabaseConnector::</text>
<text text-anchor="middle" x="382.75" y="-56.5" font-family="Helvetica,sans-Serif" font-size="10.00">getProvincia</text>
</a>
</g>
</g>
<!-- Node1&#45;&gt;Node2 -->
<g id="edge1_Node000001_Node000002" class="edge">
<title>Node1&#45;&gt;Node2</title>
<g id="a_edge1_Node000001_Node000002"><a xlink:title=" ">
<path fill="none" stroke="#63b8ff" d="M460.84,-52.38C452.75,-53.81 444.55,-55.26 436.67,-56.65"/>
<polygon fill="#63b8ff" stroke="#63b8ff" points="461.43,-55.83 470.67,-50.64 460.21,-48.94 461.43,-55.83"/>
</a>
</g>
</g>
<!-- Node3 -->
<g id="Node000003" class="node">
<title>Node3</title>
<g id="a_Node000003"><a xlink:href="../../d1/d09/class_database_connector.html#a1e3a0181ff074b1e79850d33b9b8ab42" target="_top" xlink:title=" ">
<polygon fill="white" stroke="#666666" points="436.5,-32 329,-32 329,0 436.5,0 436.5,-32"/>
<text text-anchor="start" x="337" y="-18.5" font-family="Helvetica,sans-Serif" font-size="10.00">DatabaseConnector::</text>
<text text-anchor="middle" x="382.75" y="-6.5" font-family="Helvetica,sans-Serif" font-size="10.00">getProvincias</text>
</a>
</g>
</g>
<!-- Node1&#45;&gt;Node3 -->
<g id="edge2_Node000001_Node000003" class="edge">
<title>Node1&#45;&gt;Node3</title>
<g id="a_edge2_Node000001_Node000003"><a xlink:title=" ">
<path fill="none" stroke="#63b8ff" d="M460.84,-29.62C452.75,-28.19 444.55,-26.74 436.67,-25.35"/>
<polygon fill="#63b8ff" stroke="#63b8ff" points="460.21,-33.06 470.67,-31.36 461.43,-26.17 460.21,-33.06"/>
</a>
</g>
</g>
<!-- Node4 -->
<g id="Node000004" class="node">
<title>Node4</title>
<g id="a_Node000004"><a xlink:href="../../d1/d09/class_database_connector.html#ae58a02574d3c2ab4c4596a7495d3d1ab" target="_top" xlink:title=" ">
<polygon fill="white" stroke="#666666" points="293,-32 185.5,-32 185.5,0 293,0 293,-32"/>
<text text-anchor="start" x="193.5" y="-18.5" font-family="Helvetica,sans-Serif" font-size="10.00">DatabaseConnector::</text>
<text text-anchor="middle" x="239.25" y="-6.5" font-family="Helvetica,sans-Serif" font-size="10.00">getProvinciasAsync</text>
</a>
</g>
</g>
<!-- Node3&#45;&gt;Node4 -->
<g id="edge3_Node000003_Node000004" class="edge">
<title>Node3&#45;&gt;Node4</title>
<g id="a_edge3_Node000003_Node000004"><a xlink:title=" ">
<path fill="none" stroke="#63b8ff" d="M317.34,-16C309.25,-16 301.05,-16 293.17,-16"/>
<polygon fill="#63b8ff" stroke="#63b8ff" points="317.14,-19.5 327.14,-16 317.14,-12.5 317.14,-19.5"/>
</a>
</g>
</g>
<!-- Node5 -->
<g id="Node000005" class="node">
<title>Node5</title>
<g id="a_Node000005"><a xlink:href="../../d2/da0/class_g_e_u_1_1_database_new_raw_popup.html#ad085501a66eeb639c40519d7cf608b2e" target="_top" xlink:title=" ">
<polygon fill="white" stroke="#666666" points="149.5,-32 0,-32 0,0 149.5,0 149.5,-32"/>
<text text-anchor="start" x="8" y="-18.5" font-family="Helvetica,sans-Serif" font-size="10.00">GEU::DatabaseNewRawPopup</text>
<text text-anchor="middle" x="74.75" y="-6.5" font-family="Helvetica,sans-Serif" font-size="10.00">::DatabaseNewRawPopup</text>
</a>
</g>
</g>
<!-- Node4&#45;&gt;Node5 -->
<g id="edge4_Node000004_Node000005" class="edge">
<title>Node4&#45;&gt;Node5</title>
<g id="a_edge4_Node000004_Node000005"><a xlink:title=" ">
<path fill="none" stroke="#63b8ff" d="M173.7,-16C165.82,-16 157.73,-16 149.73,-16"/>
<polygon fill="#63b8ff" stroke="#63b8ff" points="173.53,-19.5 183.53,-16 173.53,-12.5 173.53,-19.5"/>
</a>
</g>
</g>
</g>
</svg>
