<?xml version="1.0" encoding="UTF-8" standalone="no"?>
<!DOCTYPE svg PUBLIC "-//W3C//DTD SVG 1.1//EN"
 "http://www.w3.org/Graphics/SVG/1.1/DTD/svg11.dtd">
<!-- Generated by graphviz version 10.0.1 (20240210.2158)
 -->
<!-- Title: GEU::MultiespectralGUIAdapter::renderGuiObject Pages: 1 -->
<svg width="672pt" height="276pt"
 viewBox="0.00 0.00 672.00 275.93" xmlns="http://www.w3.org/2000/svg" xmlns:xlink="http://www.w3.org/1999/xlink">
<g id="graph0" class="graph" transform="scale(1 1) rotate(0) translate(4 271.93)">
<title>GEU::MultiespectralGUIAdapter::renderGuiObject</title>
<!-- Node1 -->
<g id="Node000001" class="node">
<title>Node1</title>
<g id="a_Node000001"><a xlink:title="Custom module GUI window contents.">
<polygon fill="#999999" stroke="#666666" points="154,-170 0,-170 0,-138 154,-138 154,-170"/>
<text text-anchor="start" x="8" y="-156.5" font-family="Helvetica,sans-Serif" font-size="10.00">GEU::MultiespectralGUIAdapter</text>
<text text-anchor="middle" x="77" y="-144.5" font-family="Helvetica,sans-Serif" font-size="10.00">::renderGuiObject</text>
</a>
</g>
</g>
<!-- Node2 -->
<g id="Node000002" class="node">
<title>Node2</title>
<g id="a_Node000002"><a xlink:href="../../d1/df9/class_g_e_u_1_1_singleton.html#a47c7e7c2110f4cc59c9ff1f5594c366e" target="_top" xlink:title=" ">
<polygon fill="white" stroke="#666666" points="664,-148 512.25,-148 512.25,-116 664,-116 664,-148"/>
<text text-anchor="start" x="520.25" y="-134.5" font-family="Helvetica,sans-Serif" font-size="10.00">GEU::Singleton&lt; LocaleStrings</text>
<text text-anchor="middle" x="588.12" y="-122.5" font-family="Helvetica,sans-Serif" font-size="10.00"> &gt;::getInstance</text>
</a>
</g>
</g>
<!-- Node1&#45;&gt;Node2 -->
<g id="edge1_Node000001_Node000002" class="edge">
<title>Node1&#45;&gt;Node2</title>
<g id="a_edge1_Node000001_Node000002"><a xlink:title=" ">
<path fill="none" stroke="#63b8ff" d="M113.58,-170.48C184.73,-206.63 348.69,-284.2 476.25,-232 513.91,-216.59 545.66,-181.53 565.41,-157.15"/>
<polygon fill="#63b8ff" stroke="#63b8ff" points="567.95,-159.58 571.43,-149.57 562.47,-155.22 567.95,-159.58"/>
</a>
</g>
</g>
<!-- Node1&#45;&gt;Node2 -->
<g id="edge2_Node000001_Node000002" class="edge">
<title>Node1&#45;&gt;Node2</title>
<g id="a_edge2_Node000001_Node000002"><a xlink:title=" ">
<path fill="none" stroke="#63b8ff" d="M97.78,-170.32C157.12,-210.78 338.05,-306.56 476.25,-250 520.27,-231.98 556.23,-187.12 574.36,-157.97"/>
<polygon fill="#63b8ff" stroke="#63b8ff" points="577.18,-160.08 579.25,-149.69 571.15,-156.53 577.18,-160.08"/>
</a>
</g>
</g>
<!-- Node3 -->
<g id="Node000003" class="node">
<title>Node3</title>
<g id="a_Node000003"><a xlink:href="../../d3/dd7/namespace_g_e_u_1_1_gui_utilities.html#a4a4cc2d3f5e9444384aa7e7eb062dbf0" target="_top" xlink:title=" ">
<polygon fill="white" stroke="#666666" points="476.25,-214 380,-214 380,-182 476.25,-182 476.25,-214"/>
<text text-anchor="start" x="388" y="-200.5" font-family="Helvetica,sans-Serif" font-size="10.00">GEU::GuiUtilities::</text>
<text text-anchor="middle" x="428.12" y="-188.5" font-family="Helvetica,sans-Serif" font-size="10.00">makeButton</text>
</a>
</g>
</g>
<!-- Node1&#45;&gt;Node3 -->
<g id="edge3_Node000001_Node000003" class="edge">
<title>Node1&#45;&gt;Node3</title>
<g id="a_edge3_Node000001_Node000003"><a xlink:title=" ">
<path fill="none" stroke="#63b8ff" d="M144.64,-170.48C159.49,-173.7 175.23,-176.77 190,-179 250.36,-188.11 320.07,-193.03 368.21,-195.57"/>
<polygon fill="#63b8ff" stroke="#63b8ff" points="367.99,-199.06 378.15,-196.07 368.34,-192.07 367.99,-199.06"/>
</a>
</g>
</g>
<!-- Node4 -->
<g id="Node000004" class="node">
<title>Node4</title>
<g id="a_Node000004"><a xlink:href="../../d3/dd7/namespace_g_e_u_1_1_gui_utilities.html#a51f7b03162a92f79594e82e1aca62133" target="_top" xlink:title=" ">
<polygon fill="white" stroke="#666666" points="315.12,-170 218.88,-170 218.88,-138 315.12,-138 315.12,-170"/>
<text text-anchor="start" x="226.88" y="-156.5" font-family="Helvetica,sans-Serif" font-size="10.00">GEU::GuiUtilities::</text>
<text text-anchor="middle" x="267" y="-144.5" font-family="Helvetica,sans-Serif" font-size="10.00">makeLocButton</text>
</a>
</g>
</g>
<!-- Node1&#45;&gt;Node4 -->
<g id="edge5_Node000001_Node000004" class="edge">
<title>Node1&#45;&gt;Node4</title>
<g id="a_edge5_Node000001_Node000004"><a xlink:title=" ">
<path fill="none" stroke="#63b8ff" d="M154.47,-154C172.06,-154 190.5,-154 207.21,-154"/>
<polygon fill="#63b8ff" stroke="#63b8ff" points="206.96,-157.5 216.96,-154 206.95,-150.5 206.96,-157.5"/>
</a>
</g>
</g>
<!-- Node5 -->
<g id="Node000005" class="node">
<title>Node5</title>
<g id="a_Node000005"><a xlink:href="../../d3/dd7/namespace_g_e_u_1_1_gui_utilities.html#a791a299165fdb530f39adcf8b5637638" target="_top" xlink:title=" ">
<polygon fill="white" stroke="#666666" points="476.25,-126 380,-126 380,-94 476.25,-94 476.25,-126"/>
<text text-anchor="start" x="388" y="-112.5" font-family="Helvetica,sans-Serif" font-size="10.00">GEU::GuiUtilities::</text>
<text text-anchor="middle" x="428.12" y="-100.5" font-family="Helvetica,sans-Serif" font-size="10.00">makeLocSepText</text>
</a>
</g>
</g>
<!-- Node1&#45;&gt;Node5 -->
<g id="edge8_Node000001_Node000005" class="edge">
<title>Node1&#45;&gt;Node5</title>
<g id="a_edge8_Node000001_Node000005"><a xlink:title=" ">
<path fill="none" stroke="#63b8ff" d="M144.64,-137.52C159.49,-134.3 175.23,-131.23 190,-129 250.36,-119.89 320.07,-114.97 368.21,-112.43"/>
<polygon fill="#63b8ff" stroke="#63b8ff" points="368.34,-115.93 378.15,-111.93 367.99,-108.94 368.34,-115.93"/>
</a>
</g>
</g>
<!-- Node6 -->
<g id="Node000006" class="node">
<title>Node6</title>
<g id="a_Node000006"><a xlink:href="../../d3/dd7/namespace_g_e_u_1_1_gui_utilities.html#ae63312c9c8d5d514d8411e73e83a14ce" target="_top" xlink:title=" ">
<polygon fill="white" stroke="#666666" points="327.88,-82 206.12,-82 206.12,-50 327.88,-50 327.88,-82"/>
<text text-anchor="start" x="214.12" y="-68.5" font-family="Helvetica,sans-Serif" font-size="10.00">GEU::GuiUtilities::</text>
<text text-anchor="middle" x="267" y="-56.5" font-family="Helvetica,sans-Serif" font-size="10.00">makeSelectableTextBox</text>
</a>
</g>
</g>
<!-- Node1&#45;&gt;Node6 -->
<g id="edge10_Node000001_Node000006" class="edge">
<title>Node1&#45;&gt;Node6</title>
<g id="a_edge10_Node000001_Node000006"><a xlink:title=" ">
<path fill="none" stroke="#63b8ff" d="M107.54,-137.65C129.89,-125.54 161.5,-108.96 190,-96 196.94,-92.84 204.32,-89.69 211.64,-86.68"/>
<polygon fill="#63b8ff" stroke="#63b8ff" points="212.91,-89.94 220.87,-82.95 210.29,-83.45 212.91,-89.94"/>
</a>
</g>
</g>
<!-- Node8 -->
<g id="Node000008" class="node">
<title>Node8</title>
<g id="a_Node000008"><a xlink:href="../../de/d4a/class_g_e_u_1_1_multiespectral_g_u_i_adapter.html#afafb062e54a135be4bc20d2eaee39862" target="_top" xlink:title=" ">
<polygon fill="white" stroke="#666666" points="344,-32 190,-32 190,0 344,0 344,-32"/>
<text text-anchor="start" x="198" y="-18.5" font-family="Helvetica,sans-Serif" font-size="10.00">GEU::MultiespectralGUIAdapter</text>
<text text-anchor="middle" x="267" y="-6.5" font-family="Helvetica,sans-Serif" font-size="10.00">::mapping</text>
</a>
</g>
</g>
<!-- Node1&#45;&gt;Node8 -->
<g id="edge13_Node000001_Node000008" class="edge">
<title>Node1&#45;&gt;Node8</title>
<g id="a_edge13_Node000001_Node000008"><a xlink:title=" ">
<path fill="none" stroke="#63b8ff" d="M89.95,-137.76C108.67,-113.4 147.24,-67.44 190,-41 192.03,-39.74 194.13,-38.54 196.28,-37.4"/>
<polygon fill="#63b8ff" stroke="#63b8ff" points="197.79,-40.56 205.29,-33.08 194.76,-34.25 197.79,-40.56"/>
</a>
</g>
</g>
<!-- Node3&#45;&gt;Node3 -->
<g id="edge4_Node000003_Node000003" class="edge">
<title>Node3&#45;&gt;Node3</title>
<g id="a_edge4_Node000003_Node000003"><a xlink:title=" ">
<path fill="none" stroke="#63b8ff" d="M399.56,-214.44C394.23,-223.58 403.75,-232 428.12,-232 441.46,-232 450.34,-229.48 454.79,-225.71"/>
<polygon fill="#63b8ff" stroke="#63b8ff" points="458.22,-226.38 456.44,-215.94 451.32,-225.21 458.22,-226.38"/>
</a>
</g>
</g>
<!-- Node4&#45;&gt;Node2 -->
<g id="edge6_Node000004_Node000002" class="edge">
<title>Node4&#45;&gt;Node2</title>
<g id="a_edge6_Node000004_Node000002"><a xlink:title=" ">
<path fill="none" stroke="#63b8ff" d="M315.43,-150.73C364.12,-147.37 440.98,-142.08 500.54,-137.97"/>
<polygon fill="#63b8ff" stroke="#63b8ff" points="500.59,-141.47 510.32,-137.29 500.11,-134.49 500.59,-141.47"/>
</a>
</g>
</g>
<!-- Node4&#45;&gt;Node3 -->
<g id="edge7_Node000004_Node000003" class="edge">
<title>Node4&#45;&gt;Node3</title>
<g id="a_edge7_Node000004_Node000003"><a xlink:title=" ">
<path fill="none" stroke="#63b8ff" d="M315.31,-167.08C332.15,-171.74 351.32,-177.04 368.96,-181.92"/>
<polygon fill="#63b8ff" stroke="#63b8ff" points="367.69,-185.2 378.26,-184.49 369.56,-178.45 367.69,-185.2"/>
</a>
</g>
</g>
<!-- Node5&#45;&gt;Node2 -->
<g id="edge9_Node000005_Node000002" class="edge">
<title>Node5&#45;&gt;Node2</title>
<g id="a_edge9_Node000005_Node000002"><a xlink:title=" ">
<path fill="none" stroke="#63b8ff" d="M476.53,-116.6C484.22,-117.67 492.38,-118.81 500.66,-119.96"/>
<polygon fill="#63b8ff" stroke="#63b8ff" points="500.09,-123.41 510.47,-121.33 501.05,-116.48 500.09,-123.41"/>
</a>
</g>
</g>
<!-- Node7 -->
<g id="Node000007" class="node">
<title>Node7</title>
<g id="a_Node000007"><a xlink:href="../../d3/dd7/namespace_g_e_u_1_1_gui_utilities.html#a7b24395f0bd0bd368bde0935682746ce" target="_top" xlink:title=" ">
<polygon fill="white" stroke="#666666" points="476.25,-76 380,-76 380,-44 476.25,-44 476.25,-76"/>
<text text-anchor="start" x="388" y="-62.5" font-family="Helvetica,sans-Serif" font-size="10.00">GEU::GuiUtilities::</text>
<text text-anchor="middle" x="428.12" y="-50.5" font-family="Helvetica,sans-Serif" font-size="10.00">makeLocText</text>
</a>
</g>
</g>
<!-- Node6&#45;&gt;Node7 -->
<g id="edge11_Node000006_Node000007" class="edge">
<title>Node6&#45;&gt;Node7</title>
<g id="a_edge11_Node000006_Node000007"><a xlink:title=" ">
<path fill="none" stroke="#63b8ff" d="M328.16,-63.73C341.3,-63.24 355.19,-62.71 368.27,-62.22"/>
<polygon fill="#63b8ff" stroke="#63b8ff" points="368.15,-65.73 378.01,-61.85 367.89,-58.73 368.15,-65.73"/>
</a>
</g>
</g>
<!-- Node7&#45;&gt;Node2 -->
<g id="edge12_Node000007_Node000002" class="edge">
<title>Node7&#45;&gt;Node2</title>
<g id="a_edge12_Node000007_Node000002"><a xlink:title=" ">
<path fill="none" stroke="#63b8ff" d="M464.98,-76.34C487.42,-86.57 516.57,-99.85 540.76,-110.87"/>
<polygon fill="#63b8ff" stroke="#63b8ff" points="539.21,-114.01 549.76,-114.97 542.12,-107.64 539.21,-114.01"/>
</a>
</g>
</g>
<!-- Node8&#45;&gt;Node2 -->
<g id="edge14_Node000008_Node000002" class="edge">
<title>Node8&#45;&gt;Node2</title>
<g id="a_edge14_Node000008_Node000002"><a xlink:title=" ">
<path fill="none" stroke="#63b8ff" d="M344.49,-11.81C385.12,-12.3 435.04,-17.34 476.25,-35 513.4,-50.92 546.93,-84.15 567.16,-107.25"/>
<polygon fill="#63b8ff" stroke="#63b8ff" points="564.36,-109.35 573.51,-114.69 569.68,-104.81 564.36,-109.35"/>
</a>
</g>
</g>
</g>
</svg>
