<?xml version="1.0" encoding="UTF-8" standalone="no"?>
<!DOCTYPE svg PUBLIC "-//W3C//DTD SVG 1.1//EN"
 "http://www.w3.org/Graphics/SVG/1.1/DTD/svg11.dtd">
<!-- Generated by graphviz version 10.0.1 (20240210.2158)
 -->
<!-- Title: Database::Vuelo::fromQuery Pages: 1 -->
<svg width="836pt" height="215pt"
 viewBox="0.00 0.00 835.75 215.00" xmlns="http://www.w3.org/2000/svg" xmlns:xlink="http://www.w3.org/1999/xlink">
<g id="graph0" class="graph" transform="scale(1 1) rotate(0) translate(4 211)">
<title>Database::Vuelo::fromQuery</title>
<!-- Node1 -->
<g id="Node000001" class="node">
<title>Node1</title>
<g id="a_Node000001"><a xlink:title=" ">
<polygon fill="#999999" stroke="#666666" points="827.75,-101 688.75,-101 688.75,-81 827.75,-81 827.75,-101"/>
<text text-anchor="middle" x="758.25" y="-87.5" font-family="Helvetica,sans-Serif" font-size="10.00">Database::Vuelo::fromQuery</text>
</a>
</g>
</g>
<!-- Node2 -->
<g id="Node000002" class="node">
<title>Node2</title>
<g id="a_Node000002"><a xlink:href="../../d5/d01/a01901.html#a2b4f98699f6e9dba0728ccc4f695e147" target="_top" xlink:title=" ">
<polygon fill="white" stroke="#666666" points="652.75,-107 545.25,-107 545.25,-75 652.75,-75 652.75,-107"/>
<text text-anchor="start" x="553.25" y="-93.5" font-family="Helvetica,sans-Serif" font-size="10.00">DatabaseConnector::</text>
<text text-anchor="middle" x="599" y="-81.5" font-family="Helvetica,sans-Serif" font-size="10.00">queryVuelo</text>
</a>
</g>
</g>
<!-- Node1&#45;&gt;Node2 -->
<g id="edge1_Node000001_Node000002" class="edge">
<title>Node1&#45;&gt;Node2</title>
<g id="a_edge1_Node000001_Node000002"><a xlink:title=" ">
<path fill="none" stroke="#63b8ff" d="M676.8,-91C668.67,-91 660.57,-91 652.84,-91"/>
<polygon fill="#63b8ff" stroke="#63b8ff" points="676.76,-94.5 686.76,-91 676.76,-87.5 676.76,-94.5"/>
</a>
</g>
</g>
<!-- Node3 -->
<g id="Node000003" class="node">
<title>Node3</title>
<g id="a_Node000003"><a xlink:href="../../d5/d01/a01901.html#aa501d9be228c74946830759e8f350bb2" target="_top" xlink:title="Obtiene un listado de todos los vuelos de la base de datos.">
<polygon fill="white" stroke="#666666" points="493.88,-182 386.38,-182 386.38,-150 493.88,-150 493.88,-182"/>
<text text-anchor="start" x="394.38" y="-168.5" font-family="Helvetica,sans-Serif" font-size="10.00">DatabaseConnector::</text>
<text text-anchor="middle" x="440.12" y="-156.5" font-family="Helvetica,sans-Serif" font-size="10.00">getVuelos</text>
</a>
</g>
</g>
<!-- Node2&#45;&gt;Node3 -->
<g id="edge2_Node000002_Node000003" class="edge">
<title>Node2&#45;&gt;Node3</title>
<g id="a_edge2_Node000002_Node000003"><a xlink:title=" ">
<path fill="none" stroke="#63b8ff" d="M561.53,-113.3C545.76,-122.49 526.9,-132.85 509.25,-141 502.73,-144.01 495.74,-146.92 488.8,-149.62"/>
<polygon fill="#63b8ff" stroke="#63b8ff" points="563.27,-116.34 570.1,-108.25 559.71,-110.31 563.27,-116.34"/>
</a>
</g>
</g>
<!-- Node7 -->
<g id="Node000007" class="node">
<title>Node7</title>
<g id="a_Node000007"><a xlink:href="../../d5/d01/a01901.html#a6318696fa147d8bfb49b387960b9dbbc" target="_top" xlink:title=" ">
<polygon fill="white" stroke="#666666" points="493.88,-132 386.38,-132 386.38,-100 493.88,-100 493.88,-132"/>
<text text-anchor="start" x="394.38" y="-118.5" font-family="Helvetica,sans-Serif" font-size="10.00">DatabaseConnector::</text>
<text text-anchor="middle" x="440.12" y="-106.5" font-family="Helvetica,sans-Serif" font-size="10.00">queryAsyncVuelo</text>
</a>
</g>
</g>
<!-- Node2&#45;&gt;Node7 -->
<g id="edge6_Node000002_Node000007" class="edge">
<title>Node2&#45;&gt;Node7</title>
<g id="a_edge6_Node000002_Node000007"><a xlink:title=" ">
<path fill="none" stroke="#63b8ff" d="M533.56,-101.27C520.46,-103.36 506.83,-105.53 494.18,-107.54"/>
<polygon fill="#63b8ff" stroke="#63b8ff" points="534.07,-104.73 543.39,-99.7 532.97,-97.82 534.07,-104.73"/>
</a>
</g>
</g>
<!-- Node8 -->
<g id="Node000008" class="node">
<title>Node8</title>
<g id="a_Node000008"><a xlink:href="../../db/d00/a01757.html#a095cd13fc65fee6dfe8adcb986e185b7" target="_top" xlink:title=" ">
<polygon fill="white" stroke="#666666" points="509.25,-82 371,-82 371,-50 509.25,-50 509.25,-82"/>
<text text-anchor="start" x="379" y="-68.5" font-family="Helvetica,sans-Serif" font-size="10.00">GEU::DatabaseQueryPopup</text>
<text text-anchor="middle" x="440.12" y="-56.5" font-family="Helvetica,sans-Serif" font-size="10.00">::queryFilterDatoCrudo</text>
</a>
</g>
</g>
<!-- Node2&#45;&gt;Node8 -->
<g id="edge7_Node000002_Node000008" class="edge">
<title>Node2&#45;&gt;Node8</title>
<g id="a_edge7_Node000002_Node000008"><a xlink:title=" ">
<path fill="none" stroke="#63b8ff" d="M533.75,-80.76C525.74,-79.49 517.54,-78.18 509.48,-76.89"/>
<polygon fill="#63b8ff" stroke="#63b8ff" points="532.97,-84.18 543.39,-82.3 534.07,-77.27 532.97,-84.18"/>
</a>
</g>
</g>
<!-- Node10 -->
<g id="Node000010" class="node">
<title>Node10</title>
<g id="a_Node000010"><a xlink:href="../../db/d00/a01757.html#ad84110548dc0b8959e81cd9a219dc77b" target="_top" xlink:title=" ">
<polygon fill="white" stroke="#666666" points="509.25,-32 371,-32 371,0 509.25,0 509.25,-32"/>
<text text-anchor="start" x="379" y="-18.5" font-family="Helvetica,sans-Serif" font-size="10.00">GEU::DatabaseQueryPopup</text>
<text text-anchor="middle" x="440.12" y="-6.5" font-family="Helvetica,sans-Serif" font-size="10.00">::queryFilterVuelos</text>
</a>
</g>
</g>
<!-- Node2&#45;&gt;Node10 -->
<g id="edge9_Node000002_Node000010" class="edge">
<title>Node2&#45;&gt;Node10</title>
<g id="a_edge9_Node000002_Node000010"><a xlink:title=" ">
<path fill="none" stroke="#63b8ff" d="M561.53,-68.7C545.76,-59.51 526.9,-49.15 509.25,-41 502.73,-37.99 495.74,-35.08 488.8,-32.38"/>
<polygon fill="#63b8ff" stroke="#63b8ff" points="559.71,-71.69 570.1,-73.75 563.27,-65.66 559.71,-71.69"/>
</a>
</g>
</g>
<!-- Node4 -->
<g id="Node000004" class="node">
<title>Node4</title>
<g id="a_Node000004"><a xlink:href="../../d5/d07/a01749.html#a0ab8ef55837c3a0c64ae56593e807128" target="_top" xlink:title=" ">
<polygon fill="white" stroke="#666666" points="335,-207 185.5,-207 185.5,-175 335,-175 335,-207"/>
<text text-anchor="start" x="193.5" y="-193.5" font-family="Helvetica,sans-Serif" font-size="10.00">GEU::DatabaseNewRawPopup</text>
<text text-anchor="middle" x="260.25" y="-181.5" font-family="Helvetica,sans-Serif" font-size="10.00">::autofill</text>
</a>
</g>
</g>
<!-- Node3&#45;&gt;Node4 -->
<g id="edge3_Node000003_Node000004" class="edge">
<title>Node3&#45;&gt;Node4</title>
<g id="a_edge3_Node000003_Node000004"><a xlink:title=" ">
<path fill="none" stroke="#63b8ff" d="M375.12,-175C362.22,-176.81 348.55,-178.73 335.33,-180.59"/>
<polygon fill="#63b8ff" stroke="#63b8ff" points="375.32,-178.5 384.74,-173.64 374.35,-171.57 375.32,-178.5"/>
</a>
</g>
</g>
<!-- Node5 -->
<g id="Node000005" class="node">
<title>Node5</title>
<g id="a_Node000005"><a xlink:href="../../d5/d01/a01901.html#a00e40c8a8c699d22f2201c54a6092586" target="_top" xlink:title=" ">
<polygon fill="white" stroke="#666666" points="314,-157 206.5,-157 206.5,-125 314,-125 314,-157"/>
<text text-anchor="start" x="214.5" y="-143.5" font-family="Helvetica,sans-Serif" font-size="10.00">DatabaseConnector::</text>
<text text-anchor="middle" x="260.25" y="-131.5" font-family="Helvetica,sans-Serif" font-size="10.00">getVuelosAsync</text>
</a>
</g>
</g>
<!-- Node3&#45;&gt;Node5 -->
<g id="edge4_Node000003_Node000005" class="edge">
<title>Node3&#45;&gt;Node5</title>
<g id="a_edge4_Node000003_Node000005"><a xlink:title=" ">
<path fill="none" stroke="#63b8ff" d="M375.05,-157C355.11,-154.19 333.34,-151.13 314.24,-148.45"/>
<polygon fill="#63b8ff" stroke="#63b8ff" points="374.35,-160.43 384.74,-158.36 375.32,-153.5 374.35,-160.43"/>
</a>
</g>
</g>
<!-- Node6 -->
<g id="Node000006" class="node">
<title>Node6</title>
<g id="a_Node000006"><a xlink:href="../../d5/d07/a01749.html#ad085501a66eeb639c40519d7cf608b2e" target="_top" xlink:title=" ">
<polygon fill="white" stroke="#666666" points="149.5,-157 0,-157 0,-125 149.5,-125 149.5,-157"/>
<text text-anchor="start" x="8" y="-143.5" font-family="Helvetica,sans-Serif" font-size="10.00">GEU::DatabaseNewRawPopup</text>
<text text-anchor="middle" x="74.75" y="-131.5" font-family="Helvetica,sans-Serif" font-size="10.00">::DatabaseNewRawPopup</text>
</a>
</g>
</g>
<!-- Node5&#45;&gt;Node6 -->
<g id="edge5_Node000005_Node000006" class="edge">
<title>Node5&#45;&gt;Node6</title>
<g id="a_edge5_Node000005_Node000006"><a xlink:title=" ">
<path fill="none" stroke="#63b8ff" d="M194.78,-141C180.26,-141 164.74,-141 149.86,-141"/>
<polygon fill="#63b8ff" stroke="#63b8ff" points="194.66,-144.5 204.66,-141 194.66,-137.5 194.66,-144.5"/>
</a>
</g>
</g>
<!-- Node9 -->
<g id="Node000009" class="node">
<title>Node9</title>
<g id="a_Node000009"><a xlink:href="../../db/d00/a01757.html#a83023007463bdd6e6a4b40c55146b825" target="_top" xlink:title=" ">
<polygon fill="white" stroke="#666666" points="329.38,-82 191.12,-82 191.12,-50 329.38,-50 329.38,-82"/>
<text text-anchor="start" x="199.12" y="-68.5" font-family="Helvetica,sans-Serif" font-size="10.00">GEU::DatabaseQueryPopup</text>
<text text-anchor="middle" x="260.25" y="-56.5" font-family="Helvetica,sans-Serif" font-size="10.00">::makeFormDatoCrudo</text>
</a>
</g>
</g>
<!-- Node8&#45;&gt;Node9 -->
<g id="edge8_Node000008_Node000009" class="edge">
<title>Node8&#45;&gt;Node9</title>
<g id="a_edge8_Node000008_Node000009"><a xlink:title=" ">
<path fill="none" stroke="#63b8ff" d="M359.17,-66C349.34,-66 339.37,-66 329.73,-66"/>
<polygon fill="#63b8ff" stroke="#63b8ff" points="359.09,-69.5 369.09,-66 359.09,-62.5 359.09,-69.5"/>
</a>
</g>
</g>
<!-- Node11 -->
<g id="Node000011" class="node">
<title>Node11</title>
<g id="a_Node000011"><a xlink:href="../../db/d00/a01757.html#a6799cf756f5e2cb191268e786a8df4ba" target="_top" xlink:title=" ">
<polygon fill="white" stroke="#666666" points="329.38,-32 191.12,-32 191.12,0 329.38,0 329.38,-32"/>
<text text-anchor="start" x="199.12" y="-18.5" font-family="Helvetica,sans-Serif" font-size="10.00">GEU::DatabaseQueryPopup</text>
<text text-anchor="middle" x="260.25" y="-6.5" font-family="Helvetica,sans-Serif" font-size="10.00">::makeFormVuelos</text>
</a>
</g>
</g>
<!-- Node10&#45;&gt;Node11 -->
<g id="edge10_Node000010_Node000011" class="edge">
<title>Node10&#45;&gt;Node11</title>
<g id="a_edge10_Node000010_Node000011"><a xlink:title=" ">
<path fill="none" stroke="#63b8ff" d="M359.17,-16C349.34,-16 339.37,-16 329.73,-16"/>
<polygon fill="#63b8ff" stroke="#63b8ff" points="359.09,-19.5 369.09,-16 359.09,-12.5 359.09,-19.5"/>
</a>
</g>
</g>
</g>
</svg>
