<?xml version="1.0" encoding="UTF-8" standalone="no"?>
<!DOCTYPE svg PUBLIC "-//W3C//DTD SVG 1.1//EN"
 "http://www.w3.org/Graphics/SVG/1.1/DTD/svg11.dtd">
<!-- Generated by graphviz version 10.0.1 (20240210.2158)
 -->
<!-- Title: Projection::setIntrinsicParametersFromSFM Pages: 1 -->
<svg width="252pt" height="52pt"
 viewBox="0.00 0.00 251.50 52.00" xmlns="http://www.w3.org/2000/svg" xmlns:xlink="http://www.w3.org/1999/xlink">
<g id="graph0" class="graph" transform="scale(1 1) rotate(0) translate(4 48)">
<title>Projection::setIntrinsicParametersFromSFM</title>
<!-- Node1 -->
<g id="Node000001" class="node">
<title>Node1</title>
<g id="a_Node000001"><a xlink:title=" ">
<polygon fill="#999999" stroke="#666666" points="243.5,-32 130.75,-32 130.75,0 243.5,0 243.5,-32"/>
<text text-anchor="start" x="138.75" y="-18.5" font-family="Helvetica,sans-Serif" font-size="10.00">Projection::setIntrinsic</text>
<text text-anchor="middle" x="187.12" y="-6.5" font-family="Helvetica,sans-Serif" font-size="10.00">ParametersFromSFM</text>
</a>
</g>
</g>
<!-- Node2 -->
<g id="Node000002" class="node">
<title>Node2</title>
<g id="a_Node000002"><a xlink:href="../../db/d03/class_projection.html#a584d57729038ca4bc1087ec575c750c5" target="_top" xlink:title=" ">
<polygon fill="white" stroke="#666666" points="94.75,-26 0,-26 0,-6 94.75,-6 94.75,-26"/>
<text text-anchor="middle" x="47.38" y="-12.5" font-family="Helvetica,sans-Serif" font-size="10.00">Projection::project</text>
</a>
</g>
</g>
<!-- Node1&#45;&gt;Node2 -->
<g id="edge1_Node000001_Node000002" class="edge">
<title>Node1&#45;&gt;Node2</title>
<g id="a_edge1_Node000001_Node000002"><a xlink:title=" ">
<path fill="none" stroke="#63b8ff" d="M119.04,-16C110.89,-16 102.7,-16 94.94,-16"/>
<polygon fill="#63b8ff" stroke="#63b8ff" points="118.98,-19.5 128.98,-16 118.98,-12.5 118.98,-19.5"/>
</a>
</g>
</g>
<!-- Node2&#45;&gt;Node2 -->
<g id="edge2_Node000002_Node000002" class="edge">
<title>Node2&#45;&gt;Node2</title>
<g id="a_edge2_Node000002_Node000002"><a xlink:title=" ">
<path fill="none" stroke="#63b8ff" d="M72.08,-37.44C68.89,-41.3 60.66,-44 47.38,-44 23.08,-44 15.68,-34.98 25.17,-26.34"/>
<polygon fill="#63b8ff" stroke="#63b8ff" points="75.52,-36.8 69.91,-27.82 68.69,-38.34 75.52,-36.8"/>
</a>
</g>
</g>
</g>
</svg>
