<?xml version="1.0" encoding="UTF-8" standalone="no"?>
<!DOCTYPE svg PUBLIC "-//W3C//DTD SVG 1.1//EN"
 "http://www.w3.org/Graphics/SVG/1.1/DTD/svg11.dtd">
<!-- Generated by graphviz version 10.0.1 (20240210.2158)
 -->
<!-- Title: Projection::project Pages: 1 -->
<svg width="808pt" height="292pt"
 viewBox="0.00 0.00 808.00 292.00" xmlns="http://www.w3.org/2000/svg" xmlns:xlink="http://www.w3.org/1999/xlink">
<g id="graph0" class="graph" transform="scale(1 1) rotate(0) translate(4 288)">
<title>Projection::project</title>
<!-- Node1 -->
<g id="Node000001" class="node">
<title>Node1</title>
<g id="a_Node000001"><a xlink:title=" ">
<polygon fill="#999999" stroke="#666666" points="94.75,-164 0,-164 0,-144 94.75,-144 94.75,-164"/>
<text text-anchor="middle" x="47.38" y="-150.5" font-family="Helvetica,sans-Serif" font-size="10.00">Projection::project</text>
</a>
</g>
</g>
<!-- Node1&#45;&gt;Node1 -->
<g id="edge15_Node000001_Node000001" class="edge">
<title>Node1&#45;&gt;Node1</title>
<g id="a_edge15_Node000001_Node000001"><a xlink:title=" ">
<path fill="none" stroke="#63b8ff" d="M20.7,-164.34C9.3,-172.98 18.19,-182 47.38,-182 63.33,-182 73.22,-179.3 77.05,-175.44"/>
<polygon fill="#63b8ff" stroke="#63b8ff" points="80.43,-174.54 74.44,-165.8 73.67,-176.37 80.43,-174.54"/>
</a>
</g>
</g>
<!-- Node2 -->
<g id="Node000002" class="node">
<title>Node2</title>
<g id="a_Node000002"><a xlink:href="../../d9/d02/_projection_8cpp.html#ad57d0f4d6133c77c61eecc3471a09f20" target="_top" xlink:title=" ">
<polygon fill="white" stroke="#666666" points="265.25,-284 165.25,-284 165.25,-264 265.25,-264 265.25,-284"/>
<text text-anchor="middle" x="215.25" y="-270.5" font-family="Helvetica,sans-Serif" font-size="10.00">fisheyeProjectPoint</text>
</a>
</g>
</g>
<!-- Node1&#45;&gt;Node2 -->
<g id="edge1_Node000001_Node000002" class="edge">
<title>Node1&#45;&gt;Node2</title>
<g id="a_edge1_Node000001_Node000002"><a xlink:title=" ">
<path fill="none" stroke="#63b8ff" d="M53.62,-164.19C64.8,-184.84 93.06,-231.62 130.75,-255 137.79,-259.36 145.71,-262.73 153.81,-265.32"/>
<polygon fill="#63b8ff" stroke="#63b8ff" points="152.85,-268.69 163.43,-268 154.73,-261.95 152.85,-268.69"/>
</a>
</g>
</g>
<!-- Node3 -->
<g id="Node000003" class="node">
<title>Node3</title>
<g id="a_Node000003"><a xlink:href="../../d4/d07/class_g_e_u_1_1_point_cloud.html#a00a0faeacb66351453a63b2577a9cbc0" target="_top" xlink:title=" ">
<polygon fill="white" stroke="#666666" points="290,-246 140.5,-246 140.5,-226 290,-226 290,-246"/>
<text text-anchor="middle" x="215.25" y="-232.5" font-family="Helvetica,sans-Serif" font-size="10.00">GEU::PointCloud::getMeshlets</text>
</a>
</g>
</g>
<!-- Node1&#45;&gt;Node3 -->
<g id="edge2_Node000001_Node000003" class="edge">
<title>Node1&#45;&gt;Node3</title>
<g id="a_edge2_Node000001_Node000003"><a xlink:title=" ">
<path fill="none" stroke="#63b8ff" d="M58.58,-164.19C73.24,-178.25 101.73,-203.4 130.75,-217 134.73,-218.86 138.89,-220.55 143.16,-222.07"/>
<polygon fill="#63b8ff" stroke="#63b8ff" points="141.87,-225.34 152.47,-225.08 144.02,-218.68 141.87,-225.34"/>
</a>
</g>
</g>
<!-- Node4 -->
<g id="Node000004" class="node">
<title>Node4</title>
<g id="a_Node000004"><a xlink:href="../../d4/d07/class_g_e_u_1_1_point_cloud.html#abef9699b363088a8123b5bebb1733595" target="_top" xlink:title=" ">
<polygon fill="white" stroke="#666666" points="297.12,-208 133.38,-208 133.38,-188 297.12,-188 297.12,-208"/>
<text text-anchor="middle" x="215.25" y="-194.5" font-family="Helvetica,sans-Serif" font-size="10.00">GEU::PointCloud::getMeshletSize</text>
</a>
</g>
</g>
<!-- Node1&#45;&gt;Node4 -->
<g id="edge3_Node000001_Node000004" class="edge">
<title>Node1&#45;&gt;Node4</title>
<g id="a_edge3_Node000001_Node000004"><a xlink:title=" ">
<path fill="none" stroke="#63b8ff" d="M80.7,-164.39C95.83,-169.1 114.14,-174.59 130.75,-179 138.37,-181.02 146.41,-183.02 154.38,-184.92"/>
<polygon fill="#63b8ff" stroke="#63b8ff" points="153.53,-188.31 164.06,-187.18 155.12,-181.5 153.53,-188.31"/>
</a>
</g>
</g>
<!-- Node5 -->
<g id="Node000005" class="node">
<title>Node5</title>
<g id="a_Node000005"><a xlink:href="../../d4/d07/class_g_e_u_1_1_point_cloud.html#a3e01cb77a356f6d7d0f1974cb18dc9d6" target="_top" xlink:title=" ">
<polygon fill="white" stroke="#666666" points="287,-170 143.5,-170 143.5,-138 287,-138 287,-170"/>
<text text-anchor="start" x="151.5" y="-156.5" font-family="Helvetica,sans-Serif" font-size="10.00">GEU::PointCloud::getNumber</text>
<text text-anchor="middle" x="215.25" y="-144.5" font-family="Helvetica,sans-Serif" font-size="10.00">OfPoints</text>
</a>
</g>
</g>
<!-- Node1&#45;&gt;Node5 -->
<g id="edge4_Node000001_Node000005" class="edge">
<title>Node1&#45;&gt;Node5</title>
<g id="a_edge4_Node000001_Node000005"><a xlink:title=" ">
<path fill="none" stroke="#63b8ff" d="M95.02,-154C106.58,-154 119.32,-154 132.03,-154"/>
<polygon fill="#63b8ff" stroke="#63b8ff" points="131.65,-157.5 141.65,-154 131.65,-150.5 131.65,-157.5"/>
</a>
</g>
</g>
<!-- Node6 -->
<g id="Node000006" class="node">
<title>Node6</title>
<g id="a_Node000006"><a xlink:href="../../d7/d07/class_metadata_reader.html#ab174c31148099bf46c0d65fd995ae863" target="_top" xlink:title=" ">
<polygon fill="white" stroke="#666666" points="285.5,-120 145,-120 145,-88 285.5,-88 285.5,-120"/>
<text text-anchor="start" x="153" y="-106.5" font-family="Helvetica,sans-Serif" font-size="10.00">MetadataReader::micasense</text>
<text text-anchor="middle" x="215.25" y="-94.5" font-family="Helvetica,sans-Serif" font-size="10.00">ReflectanceCalculation</text>
</a>
</g>
</g>
<!-- Node1&#45;&gt;Node6 -->
<g id="edge5_Node000001_Node000006" class="edge">
<title>Node1&#45;&gt;Node6</title>
<g id="a_edge5_Node000001_Node000006"><a xlink:title=" ">
<path fill="none" stroke="#63b8ff" d="M82.83,-143.51C97.59,-139.03 115.01,-133.74 130.75,-129 136.55,-127.25 142.57,-125.44 148.61,-123.63"/>
<polygon fill="#63b8ff" stroke="#63b8ff" points="149.42,-127.04 157.99,-120.81 147.41,-120.33 149.42,-127.04"/>
</a>
</g>
</g>
<!-- Node12 -->
<g id="Node000012" class="node">
<title>Node12</title>
<g id="a_Node000012"><a xlink:href="../../d7/d07/class_metadata_reader.html#aa944c36f63b44549e0a7e7f7ca249ebf" target="_top" xlink:title=" ">
<polygon fill="white" stroke="#666666" points="299.75,-70 130.75,-70 130.75,-38 299.75,-38 299.75,-70"/>
<text text-anchor="start" x="138.75" y="-56.5" font-family="Helvetica,sans-Serif" font-size="10.00">MetadataReader::parrotReflectance</text>
<text text-anchor="middle" x="215.25" y="-44.5" font-family="Helvetica,sans-Serif" font-size="10.00">Calculation</text>
</a>
</g>
</g>
<!-- Node1&#45;&gt;Node12 -->
<g id="edge12_Node000001_Node000012" class="edge">
<title>Node1&#45;&gt;Node12</title>
<g id="a_edge12_Node000001_Node000012"><a xlink:title=" ">
<path fill="none" stroke="#63b8ff" d="M56.91,-143.7C70.77,-127.6 99.77,-96.52 130.75,-79 133.23,-77.6 135.79,-76.27 138.42,-75.01"/>
<polygon fill="#63b8ff" stroke="#63b8ff" points="139.64,-78.29 147.4,-71.07 136.84,-71.88 139.64,-78.29"/>
</a>
</g>
</g>
<!-- Node14 -->
<g id="Node000014" class="node">
<title>Node14</title>
<g id="a_Node000014"><a xlink:href="../../d9/d02/_projection_8cpp.html#a8996f8ab6a0d917d49c31b3d9db03ed7" target="_top" xlink:title=" ">
<polygon fill="white" stroke="#666666" points="274.25,-20 156.25,-20 156.25,0 274.25,0 274.25,-20"/>
<text text-anchor="middle" x="215.25" y="-6.5" font-family="Helvetica,sans-Serif" font-size="10.00">perspectiveProjectPoint</text>
</a>
</g>
</g>
<!-- Node1&#45;&gt;Node14 -->
<g id="edge14_Node000001_Node000014" class="edge">
<title>Node1&#45;&gt;Node14</title>
<g id="a_edge14_Node000001_Node000014"><a xlink:title=" ">
<path fill="none" stroke="#63b8ff" d="M52.06,-143.65C61.26,-119.44 87.6,-58.9 130.75,-29 135.25,-25.88 140.18,-23.27 145.33,-21.08"/>
<polygon fill="#63b8ff" stroke="#63b8ff" points="146.5,-24.38 154.7,-17.67 144.11,-17.8 146.5,-24.38"/>
</a>
</g>
</g>
<!-- Node7 -->
<g id="Node000007" class="node">
<title>Node7</title>
<g id="a_Node000007"><a xlink:href="../../d0/d00/class_open_c_v_image.html#ad6e832d101f29ff7ed29344593dd5880" target="_top" xlink:title="[Public static methods]">
<polygon fill="white" stroke="#666666" points="468.38,-177 343.62,-177 343.62,-157 468.38,-157 468.38,-177"/>
<text text-anchor="middle" x="406" y="-163.5" font-family="Helvetica,sans-Serif" font-size="10.00">OpenCVImage::getImage</text>
</a>
</g>
</g>
<!-- Node6&#45;&gt;Node7 -->
<g id="edge6_Node000006_Node000007" class="edge">
<title>Node6&#45;&gt;Node7</title>
<g id="a_edge6_Node000006_Node000007"><a xlink:title=" ">
<path fill="none" stroke="#63b8ff" d="M276.04,-120.35C284.1,-123.01 292.19,-125.91 299.75,-129 316.5,-135.85 318.93,-141.34 335.75,-148 340.44,-149.86 345.38,-151.6 350.37,-153.22"/>
<polygon fill="#63b8ff" stroke="#63b8ff" points="349.27,-156.54 359.86,-156.13 351.32,-149.85 349.27,-156.54"/>
</a>
</g>
</g>
<!-- Node8 -->
<g id="Node000008" class="node">
<title>Node8</title>
<g id="a_Node000008"><a xlink:href="../../d7/d07/class_metadata_reader.html#a97ebc513416a67a04a1350e5ddc4e9fb" target="_top" xlink:title=" ">
<polygon fill="white" stroke="#666666" points="476.25,-139 335.75,-139 335.75,-107 476.25,-107 476.25,-139"/>
<text text-anchor="start" x="343.75" y="-125.5" font-family="Helvetica,sans-Serif" font-size="10.00">MetadataReader::Micasense</text>
<text text-anchor="middle" x="406" y="-113.5" font-family="Helvetica,sans-Serif" font-size="10.00">RadiometricCalibration</text>
</a>
</g>
</g>
<!-- Node6&#45;&gt;Node8 -->
<g id="edge7_Node000006_Node000008" class="edge">
<title>Node6&#45;&gt;Node8</title>
<g id="a_edge7_Node000006_Node000008"><a xlink:title=" ">
<path fill="none" stroke="#63b8ff" d="M286,-111.02C298.51,-112.28 311.63,-113.6 324.42,-114.89"/>
<polygon fill="#63b8ff" stroke="#63b8ff" points="323.73,-118.34 334.03,-115.86 324.43,-111.37 323.73,-118.34"/>
</a>
</g>
</g>
<!-- Node9 -->
<g id="Node000009" class="node">
<title>Node9</title>
<g id="a_Node000009"><a xlink:href="../../d0/d00/class_open_c_v_image.html#a93cc7000e2f6ab3558ce7dc984351beb" target="_top" xlink:title=" ">
<polygon fill="white" stroke="#666666" points="467.25,-89 344.75,-89 344.75,-69 467.25,-69 467.25,-89"/>
<text text-anchor="middle" x="406" y="-75.5" font-family="Helvetica,sans-Serif" font-size="10.00">OpenCVImage::undistort</text>
</a>
</g>
</g>
<!-- Node6&#45;&gt;Node9 -->
<g id="edge8_Node000006_Node000009" class="edge">
<title>Node6&#45;&gt;Node9</title>
<g id="a_edge8_Node000006_Node000009"><a xlink:title=" ">
<path fill="none" stroke="#63b8ff" d="M286,-94.76C301.46,-92.71 317.87,-90.54 333.41,-88.48"/>
<polygon fill="#63b8ff" stroke="#63b8ff" points="333.59,-91.99 343.04,-87.21 332.67,-85.05 333.59,-91.99"/>
</a>
</g>
</g>
<!-- Node10 -->
<g id="Node000010" class="node">
<title>Node10</title>
<g id="a_Node000010"><a xlink:href="../../d0/d00/class_open_c_v_image.html#aca2db1ad767ecd0ca9ce59ee2ce9f5e5" target="_top" xlink:title=" ">
<polygon fill="white" stroke="#666666" points="616,-108 512.25,-108 512.25,-88 616,-88 616,-108"/>
<text text-anchor="middle" x="564.12" y="-94.5" font-family="Helvetica,sans-Serif" font-size="10.00">OpenCVImage::crop</text>
</a>
</g>
</g>
<!-- Node9&#45;&gt;Node10 -->
<g id="edge9_Node000009_Node000010" class="edge">
<title>Node9&#45;&gt;Node10</title>
<g id="a_edge9_Node000009_Node000010"><a xlink:title=" ">
<path fill="none" stroke="#63b8ff" d="M467.36,-86.35C478.32,-87.68 489.76,-89.07 500.77,-90.41"/>
<polygon fill="#63b8ff" stroke="#63b8ff" points="500.2,-93.87 510.55,-91.6 501.04,-86.92 500.2,-93.87"/>
</a>
</g>
</g>
<!-- Node11 -->
<g id="Node000011" class="node">
<title>Node11</title>
<g id="a_Node000011"><a xlink:href="../../d0/d00/class_open_c_v_image.html#ae6e4f0bc433f713ddd69dc4825f5eaba" target="_top" xlink:title="[Public methods]">
<polygon fill="white" stroke="#666666" points="800,-89 652,-89 652,-69 800,-69 800,-89"/>
<text text-anchor="middle" x="726" y="-75.5" font-family="Helvetica,sans-Serif" font-size="10.00">OpenCVImage::OpenCVImage</text>
</a>
</g>
</g>
<!-- Node9&#45;&gt;Node11 -->
<g id="edge11_Node000009_Node000011" class="edge">
<title>Node9&#45;&gt;Node11</title>
<g id="a_edge11_Node000009_Node000011"><a xlink:title=" ">
<path fill="none" stroke="#63b8ff" d="M467.56,-79C516.44,-79 585.77,-79 640.17,-79"/>
<polygon fill="#63b8ff" stroke="#63b8ff" points="640.02,-82.5 650.02,-79 640.02,-75.5 640.02,-82.5"/>
</a>
</g>
</g>
<!-- Node10&#45;&gt;Node11 -->
<g id="edge10_Node000010_Node000011" class="edge">
<title>Node10&#45;&gt;Node11</title>
<g id="a_edge10_Node000010_Node000011"><a xlink:title=" ">
<path fill="none" stroke="#63b8ff" d="M616.15,-91.94C623.94,-91.01 632.15,-90.03 640.43,-89.05"/>
<polygon fill="#63b8ff" stroke="#63b8ff" points="640.71,-92.54 650.23,-87.89 639.89,-85.59 640.71,-92.54"/>
</a>
</g>
</g>
<!-- Node13 -->
<g id="Node000013" class="node">
<title>Node13</title>
<g id="a_Node000013"><a xlink:href="../../d7/d07/class_metadata_reader.html#a4091d36a5336e388b4ebae3375cec01f" target="_top" xlink:title=" ">
<polygon fill="white" stroke="#666666" points="472.5,-51 339.5,-51 339.5,-19 472.5,-19 472.5,-51"/>
<text text-anchor="start" x="347.5" y="-37.5" font-family="Helvetica,sans-Serif" font-size="10.00">MetadataReader::getParrot</text>
<text text-anchor="middle" x="406" y="-25.5" font-family="Helvetica,sans-Serif" font-size="10.00">Reflectance</text>
</a>
</g>
</g>
<!-- Node12&#45;&gt;Node13 -->
<g id="edge13_Node000012_Node000013" class="edge">
<title>Node12&#45;&gt;Node13</title>
<g id="a_edge13_Node000012_Node000013"><a xlink:title=" ">
<path fill="none" stroke="#63b8ff" d="M300.14,-45.56C309.35,-44.63 318.69,-43.69 327.81,-42.77"/>
<polygon fill="#63b8ff" stroke="#63b8ff" points="328.11,-46.26 337.71,-41.77 327.41,-39.29 328.11,-46.26"/>
</a>
</g>
</g>
</g>
</svg>
