<?xml version="1.0" encoding="UTF-8" standalone="no"?>
<!DOCTYPE svg PUBLIC "-//W3C//DTD SVG 1.1//EN"
 "http://www.w3.org/Graphics/SVG/1.1/DTD/svg11.dtd">
<!-- Generated by graphviz version 10.0.1 (20240210.2158)
 -->
<!-- Title: C:/GitHub/GEU/GEU/Source/Core/Lights/LightApplicators.h Pages: 1 -->
<svg width="351pt" height="376pt"
 viewBox="0.00 0.00 350.88 376.00" xmlns="http://www.w3.org/2000/svg" xmlns:xlink="http://www.w3.org/1999/xlink">
<g id="graph0" class="graph" transform="scale(1 1) rotate(0) translate(4 372)">
<title>C:/GitHub/GEU/GEU/Source/Core/Lights/LightApplicators.h</title>
<!-- Node1 -->
<g id="Node000001" class="node">
<title>Node1</title>
<g id="a_Node000001"><a xlink:title=" ">
<polygon fill="#999999" stroke="#666666" points="210.25,-368 60.75,-368 60.75,-336 210.25,-336 210.25,-368"/>
<text text-anchor="start" x="68.75" y="-354.5" font-family="Helvetica,sans-Serif" font-size="10.00">C:/GitHub/GEU/GEU/Source</text>
<text text-anchor="middle" x="135.5" y="-342.5" font-family="Helvetica,sans-Serif" font-size="10.00">/Core/Lights/LightApplicators.h</text>
</a>
</g>
</g>
<!-- Node2 -->
<g id="Node000002" class="node">
<title>Node2</title>
<g id="a_Node000002"><a xlink:href="../../de/d01/a00065.html" target="_top" xlink:title=" ">
<polygon fill="white" stroke="#666666" points="171.25,-300 99.75,-300 99.75,-280 171.25,-280 171.25,-300"/>
<text text-anchor="middle" x="135.5" y="-286.5" font-family="Helvetica,sans-Serif" font-size="10.00">LightModel.h</text>
</a>
</g>
</g>
<!-- Node1&#45;&gt;Node2 -->
<g id="edge1_Node000001_Node000002" class="edge">
<title>Node1&#45;&gt;Node2</title>
<g id="a_edge1_Node000001_Node000002"><a xlink:title=" ">
<path fill="none" stroke="#63b8ff" d="M135.5,-335.55C135.5,-328.34 135.5,-319.66 135.5,-311.88"/>
<polygon fill="#63b8ff" stroke="#63b8ff" points="139,-311.92 135.5,-301.92 132,-311.92 139,-311.92"/>
</a>
</g>
</g>
<!-- Node3 -->
<g id="Node000003" class="node">
<title>Node3</title>
<g id="a_Node000003"><a xlink:href="../../d1/d01/a00077.html" target="_top" xlink:title=" ">
<polygon fill="white" stroke="#666666" points="176.5,-244 94.5,-244 94.5,-224 176.5,-224 176.5,-244"/>
<text text-anchor="middle" x="135.5" y="-230.5" font-family="Helvetica,sans-Serif" font-size="10.00">Core\Material.h</text>
</a>
</g>
</g>
<!-- Node2&#45;&gt;Node3 -->
<g id="edge2_Node000002_Node000003" class="edge">
<title>Node2&#45;&gt;Node3</title>
<g id="a_edge2_Node000002_Node000003"><a xlink:title=" ">
<path fill="none" stroke="#63b8ff" d="M135.5,-279.59C135.5,-273.01 135.5,-263.96 135.5,-255.73"/>
<polygon fill="#63b8ff" stroke="#63b8ff" points="139,-255.81 135.5,-245.81 132,-255.81 139,-255.81"/>
</a>
</g>
</g>
<!-- Node4 -->
<g id="Node000004" class="node">
<title>Node4</title>
<g id="a_Node000004"><a xlink:title=" ">
<polygon fill="#e0e0e0" stroke="#999999" points="85,-132 0,-132 0,-112 85,-112 85,-132"/>
<text text-anchor="middle" x="42.5" y="-118.5" font-family="Helvetica,sans-Serif" font-size="10.00">assimp/scene.h</text>
</a>
</g>
</g>
<!-- Node3&#45;&gt;Node4 -->
<g id="edge3_Node000003_Node000004" class="edge">
<title>Node3&#45;&gt;Node4</title>
<g id="a_edge3_Node000003_Node000004"><a xlink:title=" ">
<path fill="none" stroke="#63b8ff" d="M127.57,-223.62C112.13,-205.36 77.78,-164.73 57.78,-141.07"/>
<polygon fill="#63b8ff" stroke="#63b8ff" points="60.52,-138.89 51.39,-133.51 55.17,-143.41 60.52,-138.89"/>
</a>
</g>
</g>
<!-- Node5 -->
<g id="Node000005" class="node">
<title>Node5</title>
<g id="a_Node000005"><a xlink:href="../../dc/d06/a00125.html" target="_top" xlink:title=" ">
<polygon fill="white" stroke="#666666" points="342.88,-188 182.12,-188 182.12,-168 342.88,-168 342.88,-188"/>
<text text-anchor="middle" x="262.5" y="-174.5" font-family="Helvetica,sans-Serif" font-size="10.00">Core/Shaders/RenderingShader.h</text>
</a>
</g>
</g>
<!-- Node3&#45;&gt;Node5 -->
<g id="edge4_Node000003_Node000005" class="edge">
<title>Node3&#45;&gt;Node5</title>
<g id="a_edge4_Node000003_Node000005"><a xlink:title=" ">
<path fill="none" stroke="#63b8ff" d="M157.62,-223.59C177.53,-215.13 207.05,-202.58 229.71,-192.94"/>
<polygon fill="#63b8ff" stroke="#63b8ff" points="230.98,-196.21 238.81,-189.07 228.24,-189.76 230.98,-196.21"/>
</a>
</g>
</g>
<!-- Node9 -->
<g id="Node000009" class="node">
<title>Node9</title>
<g id="a_Node000009"><a xlink:href="../../d9/d06/a00146.html" target="_top" xlink:title=" ">
<polygon fill="white" stroke="#666666" points="163.75,-188 107.25,-188 107.25,-168 163.75,-168 163.75,-188"/>
<text text-anchor="middle" x="135.5" y="-174.5" font-family="Helvetica,sans-Serif" font-size="10.00">Texture.h</text>
</a>
</g>
</g>
<!-- Node3&#45;&gt;Node9 -->
<g id="edge9_Node000003_Node000009" class="edge">
<title>Node3&#45;&gt;Node9</title>
<g id="a_edge9_Node000003_Node000009"><a xlink:title=" ">
<path fill="none" stroke="#63b8ff" d="M135.5,-223.59C135.5,-217.01 135.5,-207.96 135.5,-199.73"/>
<polygon fill="#63b8ff" stroke="#63b8ff" points="139,-199.81 135.5,-189.81 132,-199.81 139,-199.81"/>
</a>
</g>
</g>
<!-- Node6 -->
<g id="Node000006" class="node">
<title>Node6</title>
<g id="a_Node000006"><a xlink:href="../../d5/d01/a00140.html" target="_top" xlink:title=" ">
<polygon fill="white" stroke="#666666" points="298.38,-132 206.62,-132 206.62,-112 298.38,-112 298.38,-132"/>
<text text-anchor="middle" x="252.5" y="-118.5" font-family="Helvetica,sans-Serif" font-size="10.00">ShaderProgram.h</text>
</a>
</g>
</g>
<!-- Node5&#45;&gt;Node6 -->
<g id="edge5_Node000005_Node000006" class="edge">
<title>Node5&#45;&gt;Node6</title>
<g id="a_edge5_Node000005_Node000006"><a xlink:title=" ">
<path fill="none" stroke="#63b8ff" d="M260.76,-167.59C259.52,-160.93 257.82,-151.75 256.29,-143.44"/>
<polygon fill="#63b8ff" stroke="#63b8ff" points="259.76,-142.98 254.5,-133.79 252.88,-144.26 259.76,-142.98"/>
</a>
</g>
</g>
<!-- Node7 -->
<g id="Node000007" class="node">
<title>Node7</title>
<g id="a_Node000007"><a xlink:href="../../d1/d00/a00128.html" target="_top" xlink:title=" ">
<polygon fill="white" stroke="#666666" points="332.38,-76 246.62,-76 246.62,-56 332.38,-56 332.38,-76"/>
<text text-anchor="middle" x="289.5" y="-62.5" font-family="Helvetica,sans-Serif" font-size="10.00">ShaderEnums.h</text>
</a>
</g>
</g>
<!-- Node5&#45;&gt;Node7 -->
<g id="edge8_Node000005_Node000007" class="edge">
<title>Node5&#45;&gt;Node7</title>
<g id="a_edge8_Node000005_Node000007"><a xlink:title=" ">
<path fill="none" stroke="#63b8ff" d="M276.43,-167.8C287.18,-159.79 301.24,-147.11 307.5,-132 313.66,-117.13 308.01,-99.48 301.46,-86.33"/>
<polygon fill="#63b8ff" stroke="#63b8ff" points="304.65,-84.85 296.72,-77.82 298.53,-88.26 304.65,-84.85"/>
</a>
</g>
</g>
<!-- Node6&#45;&gt;Node7 -->
<g id="edge6_Node000006_Node000007" class="edge">
<title>Node6&#45;&gt;Node7</title>
<g id="a_edge6_Node000006_Node000007"><a xlink:title=" ">
<path fill="none" stroke="#63b8ff" d="M258.94,-111.59C263.83,-104.47 270.69,-94.45 276.68,-85.72"/>
<polygon fill="#63b8ff" stroke="#63b8ff" points="279.51,-87.77 282.27,-77.55 273.73,-83.82 279.51,-87.77"/>
</a>
</g>
</g>
<!-- Node8 -->
<g id="Node000008" class="node">
<title>Node8</title>
<g id="a_Node000008"><a xlink:title=" ">
<polygon fill="#e0e0e0" stroke="#999999" points="319.25,-20 259.75,-20 259.75,0 319.25,0 319.25,-20"/>
<text text-anchor="middle" x="289.5" y="-6.5" font-family="Helvetica,sans-Serif" font-size="10.00">GL/glew.h</text>
</a>
</g>
</g>
<!-- Node7&#45;&gt;Node8 -->
<g id="edge7_Node000007_Node000008" class="edge">
<title>Node7&#45;&gt;Node8</title>
<g id="a_edge7_Node000007_Node000008"><a xlink:title=" ">
<path fill="none" stroke="#63b8ff" d="M289.5,-55.59C289.5,-49.01 289.5,-39.96 289.5,-31.73"/>
<polygon fill="#63b8ff" stroke="#63b8ff" points="293,-31.81 289.5,-21.81 286,-31.81 293,-31.81"/>
</a>
</g>
</g>
<!-- Node9&#45;&gt;Node4 -->
<g id="edge10_Node000009_Node000004" class="edge">
<title>Node9&#45;&gt;Node4</title>
<g id="a_edge10_Node000009_Node000004"><a xlink:title=" ">
<path fill="none" stroke="#63b8ff" d="M119.3,-167.59C105.25,-159.44 84.67,-147.48 68.34,-138"/>
<polygon fill="#63b8ff" stroke="#63b8ff" points="70.54,-135.23 60.13,-133.24 67.03,-141.29 70.54,-135.23"/>
</a>
</g>
</g>
<!-- Node9&#45;&gt;Node6 -->
<g id="edge12_Node000009_Node000006" class="edge">
<title>Node9&#45;&gt;Node6</title>
<g id="a_edge12_Node000009_Node000006"><a xlink:title=" ">
<path fill="none" stroke="#63b8ff" d="M155.88,-167.59C174.06,-159.21 200.93,-146.8 221.72,-137.21"/>
<polygon fill="#63b8ff" stroke="#63b8ff" points="222.97,-140.48 230.59,-133.11 220.04,-134.13 222.97,-140.48"/>
</a>
</g>
</g>
<!-- Node10 -->
<g id="Node000010" class="node">
<title>Node10</title>
<g id="a_Node000010"><a xlink:href="../../d9/d02/a00479.html" target="_top" xlink:title=" ">
<polygon fill="white" stroke="#666666" points="188.38,-132 102.62,-132 102.62,-112 188.38,-112 188.38,-132"/>
<text text-anchor="middle" x="145.5" y="-118.5" font-family="Helvetica,sans-Serif" font-size="10.00">Utilities/Image.h</text>
</a>
</g>
</g>
<!-- Node9&#45;&gt;Node10 -->
<g id="edge11_Node000009_Node000010" class="edge">
<title>Node9&#45;&gt;Node10</title>
<g id="a_edge11_Node000009_Node000010"><a xlink:title=" ">
<path fill="none" stroke="#63b8ff" d="M137.24,-167.59C138.48,-160.93 140.18,-151.75 141.71,-143.44"/>
<polygon fill="#63b8ff" stroke="#63b8ff" points="145.12,-144.26 143.5,-133.79 138.24,-142.98 145.12,-144.26"/>
</a>
</g>
</g>
</g>
</svg>
