<?xml version="1.0" encoding="UTF-8" standalone="no"?>
<!DOCTYPE svg PUBLIC "-//W3C//DTD SVG 1.1//EN"
 "http://www.w3.org/Graphics/SVG/1.1/DTD/svg11.dtd">
<!-- Generated by graphviz version 10.0.1 (20240210.2158)
 -->
<!-- Title: AABB::size Pages: 1 -->
<svg width="264pt" height="278pt"
 viewBox="0.00 0.00 264.25 278.00" xmlns="http://www.w3.org/2000/svg" xmlns:xlink="http://www.w3.org/1999/xlink">

<svg id="main" version="1.1" xmlns="http://www.w3.org/2000/svg" xmlns:xlink="http://www.w3.org/1999/xlink" xml:space="preserve" onload="init(evt)">
<style type="text/css"><![CDATA[
.node, .edge {opacity: 0.7;}
.node.selected, .edge.selected {opacity: 1;}
.edge:hover path { stroke: red; }
.edge:hover polygon { stroke: red; fill: red; }
]]></style>
<script type="application/ecmascript" xlink:href="../../svg.min.js"/>
<svg id="graph" class="graph">
<g id="graph0" class="graph" transform="scale(1 1) rotate(0) translate(4 274)">
<title>AABB::size</title>
<!-- Node1 -->
<g id="Node000001" class="node">
<title>Node1</title>
<g id="a_Node000001"><a xlink:title=" ">
<polygon fill="#999999" stroke="#666666" points="256.25,-151 189.25,-151 189.25,-131 256.25,-131 256.25,-151"/>
<text text-anchor="middle" x="222.75" y="-137.5" font-family="Helvetica,sans-Serif" font-size="10.00">AABB::size</text>
</a>
</g>
</g>
<!-- Node2 -->
<g id="Node000002" class="node">
<title>Node2</title>
<g id="a_Node000002"><a xlink:href="../../dd/dcb/class_g_e_u_1_1_procedural_generator.html#a5fb6272591570506c14b2e194a9b3805" target="_top" xlink:title="Initialize the voxel grid.">
<polygon fill="white" stroke="#666666" points="142.75,-270 10.5,-270 10.5,-238 142.75,-238 142.75,-270"/>
<text text-anchor="start" x="18.5" y="-256.5" font-family="Helvetica,sans-Serif" font-size="10.00">GEU::ProceduralGenerator</text>
<text text-anchor="middle" x="76.62" y="-244.5" font-family="Helvetica,sans-Serif" font-size="10.00">::createVoxelGrid</text>
</a>
</g>
</g>
<!-- Node1&#45;&gt;Node2 -->
<g id="edge1_Node000001_Node000002" class="edge">
<title>Node1&#45;&gt;Node2</title>
<g id="a_edge1_Node000001_Node000002"><a xlink:title=" ">
<path fill="none" stroke="#63b8ff" d="M210.82,-161.19C199.07,-181.12 178.61,-211.11 153.25,-229 148.62,-232.27 143.53,-235.13 138.25,-237.63"/>
<polygon fill="#63b8ff" stroke="#63b8ff" points="213.8,-163.05 215.69,-152.62 207.71,-159.59 213.8,-163.05"/>
</a>
</g>
</g>
<!-- Node3 -->
<g id="Node000003" class="node">
<title>Node3</title>
<g id="a_Node000003"><a xlink:href="../../dd/d40/class_procedural_voxel.html#a0859652c3cb5e0a3f5a8ea2915b5bf2f" target="_top" xlink:title=" ">
<polygon fill="white" stroke="#666666" points="146.5,-220 6.75,-220 6.75,-200 146.5,-200 146.5,-220"/>
<text text-anchor="middle" x="76.62" y="-206.5" font-family="Helvetica,sans-Serif" font-size="10.00">ProceduralVoxel::getDensity</text>
</a>
</g>
</g>
<!-- Node1&#45;&gt;Node3 -->
<g id="edge2_Node000001_Node000003" class="edge">
<title>Node1&#45;&gt;Node3</title>
<g id="a_edge2_Node000001_Node000003"><a xlink:title=" ">
<path fill="none" stroke="#63b8ff" d="M201.95,-158.64C188.93,-169.4 171.06,-182.65 153.25,-191 146.02,-194.39 138.1,-197.23 130.2,-199.58"/>
<polygon fill="#63b8ff" stroke="#63b8ff" points="204.02,-161.48 209.36,-152.33 199.48,-156.15 204.02,-161.48"/>
</a>
</g>
</g>
<!-- Node4 -->
<g id="Node000004" class="node">
<title>Node4</title>
<g id="a_Node000004"><a xlink:href="../../dd/d40/class_procedural_voxel.html#a47404fa7e0f5a450f4675f058b8e6780" target="_top" xlink:title=" ">
<polygon fill="white" stroke="#666666" points="139,-182 14.25,-182 14.25,-150 139,-150 139,-182"/>
<text text-anchor="start" x="22.25" y="-168.5" font-family="Helvetica,sans-Serif" font-size="10.00">ProceduralVoxel::internal</text>
<text text-anchor="middle" x="76.62" y="-156.5" font-family="Helvetica,sans-Serif" font-size="10.00">Distribution</text>
</a>
</g>
</g>
<!-- Node1&#45;&gt;Node4 -->
<g id="edge3_Node000001_Node000004" class="edge">
<title>Node1&#45;&gt;Node4</title>
<g id="a_edge3_Node000001_Node000004"><a xlink:title=" ">
<path fill="none" stroke="#63b8ff" d="M177.87,-148.61C165.74,-150.71 152.36,-153.04 139.42,-155.28"/>
<polygon fill="#63b8ff" stroke="#63b8ff" points="178.3,-152.09 187.55,-146.93 177.1,-145.19 178.3,-152.09"/>
</a>
</g>
</g>
<!-- Node5 -->
<g id="Node000005" class="node">
<title>Node5</title>
<g id="a_Node000005"><a xlink:href="../../dd/d40/class_procedural_voxel.html#adbf03535a497f92cee03cf6d7d575094" target="_top" xlink:title=" ">
<polygon fill="white" stroke="#666666" points="153.25,-132 0,-132 0,-100 153.25,-100 153.25,-132"/>
<text text-anchor="start" x="8" y="-118.5" font-family="Helvetica,sans-Serif" font-size="10.00">ProceduralVoxel::numberPoints</text>
<text text-anchor="middle" x="76.62" y="-106.5" font-family="Helvetica,sans-Serif" font-size="10.00">ToDensity</text>
</a>
</g>
</g>
<!-- Node1&#45;&gt;Node5 -->
<g id="edge4_Node000001_Node000005" class="edge">
<title>Node1&#45;&gt;Node5</title>
<g id="a_edge4_Node000001_Node000005"><a xlink:title=" ">
<path fill="none" stroke="#63b8ff" d="M177.83,-133.38C170.15,-132.05 161.96,-130.63 153.7,-129.2"/>
<polygon fill="#63b8ff" stroke="#63b8ff" points="177.1,-136.81 187.55,-135.07 178.3,-129.91 177.1,-136.81"/>
</a>
</g>
</g>
<!-- Node6 -->
<g id="Node000006" class="node">
<title>Node6</title>
<g id="a_Node000006"><a xlink:href="../../d4/dbf/class_g_e_u_1_1_point_cloud.html#a2cb34ca60b228ed4e5472a8fa5590841" target="_top" xlink:title="Optimiza el orden de los puntos en la estructura de datos para mejorar la eficiencia del renderizado.">
<polygon fill="white" stroke="#666666" points="139,-82 14.25,-82 14.25,-50 139,-50 139,-82"/>
<text text-anchor="start" x="22.25" y="-68.5" font-family="Helvetica,sans-Serif" font-size="10.00">GEU::PointCloud::spatial</text>
<text text-anchor="middle" x="76.62" y="-56.5" font-family="Helvetica,sans-Serif" font-size="10.00">Ordering</text>
</a>
</g>
</g>
<!-- Node1&#45;&gt;Node6 -->
<g id="edge5_Node000001_Node000006" class="edge">
<title>Node1&#45;&gt;Node6</title>
<g id="a_edge5_Node000001_Node000006"><a xlink:title=" ">
<path fill="none" stroke="#63b8ff" d="M201.26,-123.42C188.2,-112.9 170.53,-99.88 153.25,-91 147.1,-87.84 140.47,-84.96 133.78,-82.37"/>
<polygon fill="#63b8ff" stroke="#63b8ff" points="198.78,-125.91 208.72,-129.58 203.24,-120.52 198.78,-125.91"/>
</a>
</g>
</g>
<!-- Node7 -->
<g id="Node000007" class="node">
<title>Node7</title>
<g id="a_Node000007"><a xlink:href="../../dd/dcb/class_g_e_u_1_1_procedural_generator.html#ab8413581fb4ba7ab9709a72bca03ce64" target="_top" xlink:title="Assign each point of the PointCloud to the corresponding voxel in the voxel grid and computes the cor...">
<polygon fill="white" stroke="#666666" points="142.75,-32 10.5,-32 10.5,0 142.75,0 142.75,-32"/>
<text text-anchor="start" x="18.5" y="-18.5" font-family="Helvetica,sans-Serif" font-size="10.00">GEU::ProceduralGenerator</text>
<text text-anchor="middle" x="76.62" y="-6.5" font-family="Helvetica,sans-Serif" font-size="10.00">::subdivideCloud</text>
</a>
</g>
</g>
<!-- Node1&#45;&gt;Node7 -->
<g id="edge6_Node000001_Node000007" class="edge">
<title>Node1&#45;&gt;Node7</title>
<g id="a_edge6_Node000001_Node000007"><a xlink:title=" ">
<path fill="none" stroke="#63b8ff" d="M212.65,-120.38C201.67,-97.79 181.16,-61.99 153.25,-41 148.94,-37.76 144.19,-34.93 139.23,-32.45"/>
<polygon fill="#63b8ff" stroke="#63b8ff" points="209.36,-121.6 216.75,-129.19 215.7,-118.65 209.36,-121.6"/>
</a>
</g>
</g>
</g>
</svg>
</svg>

<style type='text/css'>
<![CDATA[
[data-mouse-over-selected='false'] { opacity: 0.7; }
[data-mouse-over-selected='true']  { opacity: 1.0; }
]]>
</style>
<script type="application/ecmascript"><![CDATA[
document.addEventListener('DOMContentLoaded', (event) => {
  highlightEdges();
  highlightAdjacentNodes();
});
]]></script>
</svg>
