<?xml version="1.0" encoding="UTF-8" standalone="no"?>
<!DOCTYPE svg PUBLIC "-//W3C//DTD SVG 1.1//EN"
 "http://www.w3.org/Graphics/SVG/1.1/DTD/svg11.dtd">
<!-- Generated by graphviz version 10.0.1 (20240210.2158)
 -->
<!-- Title: AABB::min Pages: 1 -->
<!--zoomable 465 -->

<svg id="main" version="1.1" xmlns="http://www.w3.org/2000/svg" xmlns:xlink="http://www.w3.org/1999/xlink" xml:space="preserve" onload="init(evt)">
<style type="text/css"><![CDATA[
.node, .edge {opacity: 0.7;}
.node.selected, .edge.selected {opacity: 1;}
.edge:hover path { stroke: red; }
.edge:hover polygon { stroke: red; fill: red; }
]]></style>

<defs>
  <circle id="rim" cx="0" cy="0" r="7"/>
  <circle id="rim2" cx="0" cy="0" r="3.5"/>
  <g id="zoomPlus">
    <use xlink:href="#rim" fill="#404040"><set attributeName="fill" to="#808080" begin="zoomplus.mouseover" end="zoomplus.mouseout"/></use>
    <path d="M-4,0h8M0,-4v8" fill="none" stroke="white" stroke-width="1.5" pointer-events="none"/>
  </g>
  <g id="zoomMin">
    <use xlink:href="#rim" fill="#404040"><set attributeName="fill" to="#808080" begin="zoomminus.mouseover" end="zoomminus.mouseout"/></use>
    <path d="M-4,0h8" fill="none" stroke="white" stroke-width="1.5" pointer-events="none"/>
  </g>
  <g id="arrowUp" transform="translate(30 24)">
    <use xlink:href="#rim"/>
    <path pointer-events="none" fill="none" stroke="white" stroke-width="1.5" d="M0,-3.0v7 M-2.5,-0.5L0,-3.0L2.5,-0.5"/>
  </g>
  <g id="arrowRight" transform="rotate(90) translate(36 -43)">
    <use xlink:href="#rim"/>
    <path pointer-events="none" fill="none" stroke="white" stroke-width="1.5" d="M0,-3.0v7 M-2.5,-0.5L0,-3.0L2.5,-0.5"/>
  </g>
  <g id="arrowDown" transform="rotate(180) translate(-30 -48)">
    <use xlink:href="#rim"/>
    <path pointer-events="none" fill="none" stroke="white" stroke-width="1.5" d="M0,-3.0v7 M-2.5,-0.5L0,-3.0L2.5,-0.5"/>
  </g>
  <g id="arrowLeft" transform="rotate(270) translate(-36 17)">
    <use xlink:href="#rim"/>
    <path pointer-events="none" fill="none" stroke="white" stroke-width="1.5" d="M0,-3.0v7 M-2.5,-0.5L0,-3.0L2.5,-0.5"/>
  </g>
  <g id="resetDef">
    <use xlink:href="#rim2" fill="#404040"><set attributeName="fill" to="#808080" begin="reset.mouseover" end="reset.mouseout"/></use>
  </g>
</defs>
<script type="application/ecmascript">
var viewWidth = 448;
var viewHeight = 465;
var sectionId = 'dynsection-8';
</script>
<script type="application/ecmascript" xlink:href="../../svg.min.js"/>
<svg id="graph" class="graph">
<g id="viewport">
<title>AABB::min</title>
<!-- Node1 -->
<g id="Node000001" class="node">
<title>Node1</title>
<g id="a_Node000001"><a xlink:title=" ">
<polygon fill="#999999" stroke="#666666" points="439.5,-263 374.75,-263 374.75,-243 439.5,-243 439.5,-263"/>
<text text-anchor="middle" x="407.12" y="-249.5" font-family="Helvetica,sans-Serif" font-size="10.00">AABB::min</text>
</a>
</g>
</g>
<!-- Node2 -->
<g id="Node000002" class="node">
<title>Node2</title>
<g id="a_Node000002"><a xlink:href="../../dc/d51/class_g_e_u_1_1_image_cloud_proj.html#a866aada3b1653f447d9293e8065ad9df" target="_top" xlink:title=" ">
<polygon fill="white" stroke="#666666" points="309.12,-457 197.88,-457 197.88,-425 309.12,-425 309.12,-457"/>
<text text-anchor="start" x="205.88" y="-443.5" font-family="Helvetica,sans-Serif" font-size="10.00">GEU::ImageCloudProj</text>
<text text-anchor="middle" x="253.5" y="-431.5" font-family="Helvetica,sans-Serif" font-size="10.00">::applyStructureMask</text>
</a>
</g>
</g>
<!-- Node1&#45;&gt;Node2 -->
<g id="edge1_Node000001_Node000002" class="edge">
<title>Node1&#45;&gt;Node2</title>
<g id="a_edge1_Node000001_Node000002"><a xlink:title=" ">
<path fill="none" stroke="#63b8ff" d="M403.27,-274.26C397.48,-308.99 381.08,-377.84 338.75,-416 330.48,-423.46 320.07,-428.69 309.42,-432.37"/>
<polygon fill="#63b8ff" stroke="#63b8ff" points="406.69,-275.04 404.73,-264.63 399.77,-273.99 406.69,-275.04"/>
</a>
</g>
</g>
<!-- Node3 -->
<g id="Node000003" class="node">
<title>Node3</title>
<g id="a_Node000003"><a xlink:href="../../dc/d51/class_g_e_u_1_1_image_cloud_proj.html#a6e7cb35807c450b23ab3917338910e97" target="_top" xlink:title=" ">
<polygon fill="white" stroke="#666666" points="311.38,-407 195.62,-407 195.62,-375 311.38,-375 311.38,-407"/>
<text text-anchor="start" x="203.62" y="-393.5" font-family="Helvetica,sans-Serif" font-size="10.00">GEU::ImageCloudProj</text>
<text text-anchor="middle" x="253.5" y="-381.5" font-family="Helvetica,sans-Serif" font-size="10.00">::applyVegetationMask</text>
</a>
</g>
</g>
<!-- Node1&#45;&gt;Node3 -->
<g id="edge2_Node000001_Node000003" class="edge">
<title>Node1&#45;&gt;Node3</title>
<g id="a_edge2_Node000001_Node000003"><a xlink:title=" ">
<path fill="none" stroke="#63b8ff" d="M398.21,-273.7C387.96,-297.88 367.9,-337.55 338.75,-361 330.77,-367.42 321.3,-372.53 311.64,-376.57"/>
<polygon fill="#63b8ff" stroke="#63b8ff" points="401.37,-275.2 401.88,-264.62 394.88,-272.58 401.37,-275.2"/>
</a>
</g>
</g>
<!-- Node4 -->
<g id="Node000004" class="node">
<title>Node4</title>
<g id="a_Node000004"><a xlink:href="../../dd/dcb/class_g_e_u_1_1_procedural_generator.html#ab0c3b30380c1fd538c92fcea0e1e04d2" target="_top" xlink:title=" ">
<polygon fill="white" stroke="#666666" points="132.25,-247 0,-247 0,-215 132.25,-215 132.25,-247"/>
<text text-anchor="start" x="8" y="-233.5" font-family="Helvetica,sans-Serif" font-size="10.00">GEU::ProceduralGenerator</text>
<text text-anchor="middle" x="66.12" y="-221.5" font-family="Helvetica,sans-Serif" font-size="10.00">::computeNURBS</text>
</a>
</g>
</g>
<!-- Node1&#45;&gt;Node4 -->
<g id="edge3_Node000001_Node000004" class="edge">
<title>Node1&#45;&gt;Node4</title>
<g id="a_edge3_Node000001_Node000004"><a xlink:title=" ">
<path fill="none" stroke="#63b8ff" d="M394.98,-272.9C383.54,-291.08 363.87,-316.8 338.75,-328 269.54,-358.86 238.56,-356.27 168.25,-328 127.62,-311.66 94.13,-270.35 77.83,-247.25"/>
<polygon fill="#63b8ff" stroke="#63b8ff" points="397.86,-274.91 399.98,-264.53 391.85,-271.32 397.86,-274.91"/>
</a>
</g>
</g>
<!-- Node5 -->
<g id="Node000005" class="node">
<title>Node5</title>
<g id="a_Node000005"><a xlink:href="../../dd/dcb/class_g_e_u_1_1_procedural_generator.html#a5fb6272591570506c14b2e194a9b3805" target="_top" xlink:title="Initialize the voxel grid.">
<polygon fill="white" stroke="#666666" points="319.62,-319 187.38,-319 187.38,-287 319.62,-287 319.62,-319"/>
<text text-anchor="start" x="195.38" y="-305.5" font-family="Helvetica,sans-Serif" font-size="10.00">GEU::ProceduralGenerator</text>
<text text-anchor="middle" x="253.5" y="-293.5" font-family="Helvetica,sans-Serif" font-size="10.00">::createVoxelGrid</text>
</a>
</g>
</g>
<!-- Node1&#45;&gt;Node5 -->
<g id="edge4_Node000001_Node000005" class="edge">
<title>Node1&#45;&gt;Node5</title>
<g id="a_edge4_Node000001_Node000005"><a xlink:title=" ">
<path fill="none" stroke="#63b8ff" d="M368.8,-267.35C359.07,-270.96 348.55,-274.73 338.75,-278 330.07,-280.9 320.82,-283.81 311.76,-286.57"/>
<polygon fill="#63b8ff" stroke="#63b8ff" points="369.83,-270.71 377.97,-263.92 367.38,-264.15 369.83,-270.71"/>
</a>
</g>
</g>
<!-- Node6 -->
<g id="Node000006" class="node">
<title>Node6</title>
<g id="a_Node000006"><a xlink:href="../../dd/d40/class_procedural_voxel.html#a9aaf6de90f83739a93fa50ba8758c593" target="_top" xlink:title=" ">
<polygon fill="white" stroke="#666666" points="338.75,-269 168.25,-269 168.25,-237 338.75,-237 338.75,-269"/>
<text text-anchor="start" x="176.25" y="-255.5" font-family="Helvetica,sans-Serif" font-size="10.00">ProceduralVoxel::getRepresentative</text>
<text text-anchor="middle" x="253.5" y="-243.5" font-family="Helvetica,sans-Serif" font-size="10.00">Point</text>
</a>
</g>
</g>
<!-- Node1&#45;&gt;Node6 -->
<g id="edge5_Node000001_Node000006" class="edge">
<title>Node1&#45;&gt;Node6</title>
<g id="a_edge5_Node000001_Node000006"><a xlink:title=" ">
<path fill="none" stroke="#63b8ff" d="M362.95,-253C355.38,-253 347.28,-253 339.04,-253"/>
<polygon fill="#63b8ff" stroke="#63b8ff" points="362.83,-256.5 372.83,-253 362.83,-249.5 362.83,-256.5"/>
</a>
</g>
</g>
<!-- Node7 -->
<g id="Node000007" class="node">
<title>Node7</title>
<g id="a_Node000007"><a xlink:href="../../dd/d40/class_procedural_voxel.html#a47404fa7e0f5a450f4675f058b8e6780" target="_top" xlink:title=" ">
<polygon fill="white" stroke="#666666" points="315.88,-219 191.12,-219 191.12,-187 315.88,-187 315.88,-219"/>
<text text-anchor="start" x="199.12" y="-205.5" font-family="Helvetica,sans-Serif" font-size="10.00">ProceduralVoxel::internal</text>
<text text-anchor="middle" x="253.5" y="-193.5" font-family="Helvetica,sans-Serif" font-size="10.00">Distribution</text>
</a>
</g>
</g>
<!-- Node1&#45;&gt;Node7 -->
<g id="edge6_Node000001_Node000007" class="edge">
<title>Node1&#45;&gt;Node7</title>
<g id="a_edge6_Node000001_Node000007"><a xlink:title=" ">
<path fill="none" stroke="#63b8ff" d="M368.8,-238.65C359.07,-235.04 348.55,-231.27 338.75,-228 330.07,-225.1 320.82,-222.19 311.76,-219.43"/>
<polygon fill="#63b8ff" stroke="#63b8ff" points="367.38,-241.85 377.97,-242.08 369.83,-235.29 367.38,-241.85"/>
</a>
</g>
</g>
<!-- Node8 -->
<g id="Node000008" class="node">
<title>Node8</title>
<g id="a_Node000008"><a xlink:href="../../db/d50/class_g_e_u_1_1_details_window.html#ad35f61717358ebd11631e5b8c5ed9ff9" target="_top" xlink:title="Makes and handles basic enabled and POS/ROT/SCL edit controls.">
<polygon fill="white" stroke="#666666" points="328.25,-169 178.75,-169 178.75,-137 328.25,-137 328.25,-169"/>
<text text-anchor="start" x="186.75" y="-155.5" font-family="Helvetica,sans-Serif" font-size="10.00">GEU::DetailsWindow</text>
<text text-anchor="middle" x="253.5" y="-143.5" font-family="Helvetica,sans-Serif" font-size="10.00">::makeBasicTransformControls</text>
</a>
</g>
</g>
<!-- Node1&#45;&gt;Node8 -->
<g id="edge7_Node000001_Node000008" class="edge">
<title>Node1&#45;&gt;Node8</title>
<g id="a_edge7_Node000001_Node000008"><a xlink:title=" ">
<path fill="none" stroke="#63b8ff" d="M393.37,-233.57C381.24,-216.56 361.51,-192.38 338.75,-178 333.59,-174.74 327.99,-171.89 322.2,-169.4"/>
<polygon fill="#63b8ff" stroke="#63b8ff" points="390.19,-235.12 398.74,-241.38 395.96,-231.15 390.19,-235.12"/>
</a>
</g>
</g>
<!-- Node9 -->
<g id="Node000009" class="node">
<title>Node9</title>
<g id="a_Node000009"><a xlink:href="../../dd/dcb/class_g_e_u_1_1_procedural_generator.html#ab8413581fb4ba7ab9709a72bca03ce64" target="_top" xlink:title="Assign each point of the PointCloud to the corresponding voxel in the voxel grid and computes the cor...">
<polygon fill="white" stroke="#666666" points="319.62,-119 187.38,-119 187.38,-87 319.62,-87 319.62,-119"/>
<text text-anchor="start" x="195.38" y="-105.5" font-family="Helvetica,sans-Serif" font-size="10.00">GEU::ProceduralGenerator</text>
<text text-anchor="middle" x="253.5" y="-93.5" font-family="Helvetica,sans-Serif" font-size="10.00">::subdivideCloud</text>
</a>
</g>
</g>
<!-- Node1&#45;&gt;Node9 -->
<g id="edge8_Node000001_Node000009" class="edge">
<title>Node1&#45;&gt;Node9</title>
<g id="a_edge8_Node000001_Node000009"><a xlink:title=" ">
<path fill="none" stroke="#63b8ff" d="M400.36,-232.01C391.63,-204.16 372.41,-155.36 338.75,-128 333.07,-123.38 326.55,-119.62 319.72,-116.55"/>
<polygon fill="#63b8ff" stroke="#63b8ff" points="396.94,-232.8 403.13,-241.4 403.66,-230.82 396.94,-232.8"/>
</a>
</g>
</g>
<!-- Node10 -->
<g id="Node000010" class="node">
<title>Node10</title>
<g id="a_Node000010"><a xlink:href="../../dc/d47/class_a_a_b_b.html#ac7df26fada02a660519ce8829eec1bf2" target="_top" xlink:title=" ">
<polygon fill="white" stroke="#666666" points="292.62,-51 214.38,-51 214.38,-31 292.62,-31 292.62,-51"/>
<text text-anchor="middle" x="253.5" y="-37.5" font-family="Helvetica,sans-Serif" font-size="10.00">AABB::update</text>
</a>
</g>
</g>
<!-- Node1&#45;&gt;Node10 -->
<g id="edge9_Node000001_Node000010" class="edge">
<title>Node1&#45;&gt;Node10</title>
<g id="a_edge9_Node000001_Node000010"><a xlink:title=" ">
<path fill="none" stroke="#63b8ff" d="M403.32,-231.8C397.51,-195.78 380.98,-122.23 338.75,-78 326.39,-65.06 308.72,-56.36 292.75,-50.67"/>
<polygon fill="#63b8ff" stroke="#63b8ff" points="399.81,-231.99 404.73,-241.37 406.74,-230.97 399.81,-231.99"/>
</a>
</g>
</g>
<!-- Node10&#45;&gt;Node4 -->
<g id="edge10_Node000010_Node000004" class="edge">
<title>Node10&#45;&gt;Node4</title>
<g id="a_edge10_Node000010_Node000004"><a xlink:title=" ">
<path fill="none" stroke="#63b8ff" d="M206.7,-55.52C193.39,-61.16 179.43,-68.58 168.25,-78 121.26,-117.6 87.65,-184.45 73.95,-214.96"/>
<polygon fill="#63b8ff" stroke="#63b8ff" points="207.76,-58.87 215.77,-51.94 205.19,-52.36 207.76,-58.87"/>
</a>
</g>
</g>
<!-- Node10&#45;&gt;Node10 -->
<g id="edge13_Node000010_Node000010" class="edge">
<title>Node10&#45;&gt;Node10</title>
<g id="a_edge13_Node000010_Node000010"><a xlink:title=" ">
<path fill="none" stroke="#63b8ff" d="M280.65,-62.44C277.15,-66.3 268.1,-69 253.5,-69 226.8,-69 218.66,-59.98 229.09,-51.34"/>
<polygon fill="#63b8ff" stroke="#63b8ff" points="284.07,-61.68 278.27,-52.81 277.27,-63.36 284.07,-61.68"/>
</a>
</g>
</g>
<!-- Node11 -->
<g id="Node000011" class="node">
<title>Node11</title>
<g id="a_Node000011"><a xlink:href="../../d9/db1/class_g_e_u_1_1_picking_window.html#a898e5f19fa3ef08a325e02d15e15532f" target="_top" xlink:title=" ">
<polygon fill="white" stroke="#666666" points="121,-82 11.25,-82 11.25,-50 121,-50 121,-82"/>
<text text-anchor="start" x="19.25" y="-68.5" font-family="Helvetica,sans-Serif" font-size="10.00">GEU::PickingWindow</text>
<text text-anchor="middle" x="66.12" y="-56.5" font-family="Helvetica,sans-Serif" font-size="10.00">::endPicking</text>
</a>
</g>
</g>
<!-- Node10&#45;&gt;Node11 -->
<g id="edge11_Node000010_Node000011" class="edge">
<title>Node10&#45;&gt;Node11</title>
<g id="a_edge11_Node000010_Node000011"><a xlink:title=" ">
<path fill="none" stroke="#63b8ff" d="M202.94,-47.68C177.76,-51.08 147.11,-55.21 121.3,-58.69"/>
<polygon fill="#63b8ff" stroke="#63b8ff" points="203.15,-51.19 212.59,-46.38 202.21,-44.25 203.15,-51.19"/>
</a>
</g>
</g>
<!-- Node12 -->
<g id="Node000012" class="node">
<title>Node12</title>
<g id="a_Node000012"><a xlink:href="../../d4/dbf/class_g_e_u_1_1_point_cloud.html#a2cb34ca60b228ed4e5472a8fa5590841" target="_top" xlink:title="Optimiza el orden de los puntos en la estructura de datos para mejorar la eficiencia del renderizado.">
<polygon fill="white" stroke="#666666" points="128.5,-32 3.75,-32 3.75,0 128.5,0 128.5,-32"/>
<text text-anchor="start" x="11.75" y="-18.5" font-family="Helvetica,sans-Serif" font-size="10.00">GEU::PointCloud::spatial</text>
<text text-anchor="middle" x="66.12" y="-6.5" font-family="Helvetica,sans-Serif" font-size="10.00">Ordering</text>
</a>
</g>
</g>
<!-- Node10&#45;&gt;Node12 -->
<g id="edge12_Node000010_Node000012" class="edge">
<title>Node10&#45;&gt;Node12</title>
<g id="a_edge12_Node000010_Node000012"><a xlink:title=" ">
<path fill="none" stroke="#63b8ff" d="M202.97,-34.32C180.19,-31.25 152.93,-27.57 128.84,-24.32"/>
<polygon fill="#63b8ff" stroke="#63b8ff" points="202.21,-37.75 212.59,-35.62 203.15,-30.81 202.21,-37.75"/>
</a>
</g>
</g>
</g>
</svg>

<g id="navigator" transform="translate(0 0)" fill="#404254">
  <rect fill="#f2f5e9" fill-opacity="0.5" stroke="#606060" stroke-width=".5" x="0" y="0" width="60" height="60"/>
  <use id="zoomplus" xlink:href="#zoomPlus" x="17" y="9" onmousedown="handleZoom(evt,'in')"/>
  <use id="zoomminus" xlink:href="#zoomMin" x="42" y="9" onmousedown="handleZoom(evt,'out')"/>
  <use id="reset" xlink:href="#resetDef" x="30" y="36" onmousedown="handleReset()"/>
   <use id="arrowup" xlink:href="#arrowUp" x="0" y="0" onmousedown="handlePan(0,-1)"/>
  <use id="arrowright" xlink:href="#arrowRight" x="0" y="0" onmousedown="handlePan(1,0)"/>
  <use id="arrowdown" xlink:href="#arrowDown" x="0" y="0" onmousedown="handlePan(0,1)"/>
  <use id="arrowleft" xlink:href="#arrowLeft" x="0" y="0" onmousedown="handlePan(-1,0)"/>
</g>
<svg viewBox="0 0 15 15" width="100%" height="30px" preserveAspectRatio="xMaxYMin meet">
 <g id="arrow_out" transform="scale(0.3 0.3)">
  <a xlink:href="class_a_a_b_b_a29073914f600f7657f4a44937702a471_icgraph_org.svg" target="_base">
   <rect id="button" ry="5" rx="5" y="6" x="6" height="38" width="38"
        fill="#f2f5e9" fill-opacity="0.5" stroke="#606060" stroke-width="1.0"/>
   <path id="arrow"
     d="M 11.500037,31.436501 C 11.940474,20.09759 22.043105,11.32322 32.158766,21.979434 L 37.068811,17.246167 C 37.068811,17.246167 37.088388,32 37.088388,32 L 22.160133,31.978069 C 22.160133,31.978069 26.997745,27.140456 26.997745,27.140456 C 18.528582,18.264221 13.291696,25.230495 11.500037,31.436501 z"
     style="fill:#404040;"/>
  </a>
 </g>
</svg>

<style type='text/css'>
<![CDATA[
[data-mouse-over-selected='false'] { opacity: 0.7; }
[data-mouse-over-selected='true']  { opacity: 1.0; }
]]>
</style>
<script type="application/ecmascript"><![CDATA[
document.addEventListener('DOMContentLoaded', (event) => {
  highlightEdges();
  highlightAdjacentNodes();
});
]]></script>
</svg>
