<?xml version="1.0" encoding="UTF-8" standalone="no"?>
<!DOCTYPE svg PUBLIC "-//W3C//DTD SVG 1.1//EN"
 "http://www.w3.org/Graphics/SVG/1.1/DTD/svg11.dtd">
<!-- Generated by graphviz version 10.0.1 (20240210.2158)
 -->
<!-- Title: AABB::min Pages: 1 -->
<svg width="419pt" height="127pt"
 viewBox="0.00 0.00 419.00 127.00" xmlns="http://www.w3.org/2000/svg" xmlns:xlink="http://www.w3.org/1999/xlink">
<g id="graph0" class="graph" transform="scale(1 1) rotate(0) translate(4 123)">
<title>AABB::min</title>
<!-- Node1 -->
<g id="Node000001" class="node">
<title>Node1</title>
<g id="a_Node000001"><a xlink:title=" ">
<polygon fill="#999999" stroke="#666666" points="411,-82 346.25,-82 346.25,-62 411,-62 411,-82"/>
<text text-anchor="middle" x="378.62" y="-68.5" font-family="Helvetica,sans-Serif" font-size="10.00">AABB::min</text>
</a>
</g>
</g>
<!-- Node2 -->
<g id="Node000002" class="node">
<title>Node2</title>
<g id="a_Node000002"><a xlink:href="../../db/d50/class_g_e_u_1_1_details_window.html#ad35f61717358ebd11631e5b8c5ed9ff9" target="_top" xlink:title="Makes and handles basic enabled and POS/ROT/SCL edit controls.">
<polygon fill="white" stroke="#666666" points="310.25,-119 160.75,-119 160.75,-87 310.25,-87 310.25,-119"/>
<text text-anchor="start" x="168.75" y="-105.5" font-family="Helvetica,sans-Serif" font-size="10.00">GEU::DetailsWindow</text>
<text text-anchor="middle" x="235.5" y="-93.5" font-family="Helvetica,sans-Serif" font-size="10.00">::makeBasicTransformControls</text>
</a>
</g>
</g>
<!-- Node1&#45;&gt;Node2 -->
<g id="edge1_Node000001_Node000002" class="edge">
<title>Node1&#45;&gt;Node2</title>
<g id="a_edge1_Node000001_Node000002"><a xlink:title=" ">
<path fill="none" stroke="#63b8ff" d="M334.79,-81.41C327.14,-83.09 318.96,-84.89 310.73,-86.7"/>
<polygon fill="#63b8ff" stroke="#63b8ff" points="335.46,-84.85 344.48,-79.28 333.96,-78.01 335.46,-84.85"/>
</a>
</g>
</g>
<!-- Node3 -->
<g id="Node000003" class="node">
<title>Node3</title>
<g id="a_Node000003"><a xlink:href="../../dc/d47/class_a_a_b_b.html#ac7df26fada02a660519ce8829eec1bf2" target="_top" xlink:title=" ">
<polygon fill="white" stroke="#666666" points="274.62,-51 196.38,-51 196.38,-31 274.62,-31 274.62,-51"/>
<text text-anchor="middle" x="235.5" y="-37.5" font-family="Helvetica,sans-Serif" font-size="10.00">AABB::update</text>
</a>
</g>
</g>
<!-- Node1&#45;&gt;Node3 -->
<g id="edge2_Node000001_Node000003" class="edge">
<title>Node1&#45;&gt;Node3</title>
<g id="a_edge2_Node000001_Node000003"><a xlink:title=" ">
<path fill="none" stroke="#63b8ff" d="M334.88,-62.61C315.86,-58.43 293.62,-53.55 275.11,-49.48"/>
<polygon fill="#63b8ff" stroke="#63b8ff" points="333.96,-65.99 344.48,-64.72 335.46,-59.15 333.96,-65.99"/>
</a>
</g>
</g>
<!-- Node3&#45;&gt;Node3 -->
<g id="edge5_Node000003_Node000003" class="edge">
<title>Node3&#45;&gt;Node3</title>
<g id="a_edge5_Node000003_Node000003"><a xlink:title=" ">
<path fill="none" stroke="#63b8ff" d="M260.8,-62.44C257.54,-66.3 249.11,-69 235.5,-69 210.62,-69 203.04,-59.98 212.76,-51.34"/>
<polygon fill="#63b8ff" stroke="#63b8ff" points="264.23,-61.77 258.58,-52.81 257.41,-63.34 264.23,-61.77"/>
</a>
</g>
</g>
<!-- Node4 -->
<g id="Node000004" class="node">
<title>Node4</title>
<g id="a_Node000004"><a xlink:href="../../d9/db1/class_g_e_u_1_1_picking_window.html#a898e5f19fa3ef08a325e02d15e15532f" target="_top" xlink:title=" ">
<polygon fill="white" stroke="#666666" points="117.25,-82 7.5,-82 7.5,-50 117.25,-50 117.25,-82"/>
<text text-anchor="start" x="15.5" y="-68.5" font-family="Helvetica,sans-Serif" font-size="10.00">GEU::PickingWindow</text>
<text text-anchor="middle" x="62.38" y="-56.5" font-family="Helvetica,sans-Serif" font-size="10.00">::endPicking</text>
</a>
</g>
</g>
<!-- Node3&#45;&gt;Node4 -->
<g id="edge3_Node000003_Node000004" class="edge">
<title>Node3&#45;&gt;Node4</title>
<g id="a_edge3_Node000003_Node000004"><a xlink:title=" ">
<path fill="none" stroke="#63b8ff" d="M184.79,-48.26C163.71,-51.34 139.09,-54.94 117.55,-58.09"/>
<polygon fill="#63b8ff" stroke="#63b8ff" points="185.21,-51.74 194.6,-46.83 184.2,-44.81 185.21,-51.74"/>
</a>
</g>
</g>
<!-- Node5 -->
<g id="Node000005" class="node">
<title>Node5</title>
<g id="a_Node000005"><a xlink:href="../../d4/dbf/class_g_e_u_1_1_point_cloud.html#a2cb34ca60b228ed4e5472a8fa5590841" target="_top" xlink:title="Optimiza el orden de los puntos en la estructura de datos para mejorar la eficiencia del renderizado.">
<polygon fill="white" stroke="#666666" points="124.75,-32 0,-32 0,0 124.75,0 124.75,-32"/>
<text text-anchor="start" x="8" y="-18.5" font-family="Helvetica,sans-Serif" font-size="10.00">GEU::PointCloud::spatial</text>
<text text-anchor="middle" x="62.38" y="-6.5" font-family="Helvetica,sans-Serif" font-size="10.00">Ordering</text>
</a>
</g>
</g>
<!-- Node3&#45;&gt;Node5 -->
<g id="edge4_Node000003_Node000005" class="edge">
<title>Node3&#45;&gt;Node5</title>
<g id="a_edge4_Node000003_Node000005"><a xlink:title=" ">
<path fill="none" stroke="#63b8ff" d="M184.88,-33.75C166.23,-31.03 144.79,-27.89 125.16,-25.03"/>
<polygon fill="#63b8ff" stroke="#63b8ff" points="184.2,-37.19 194.6,-35.17 185.21,-30.26 184.2,-37.19"/>
</a>
</g>
</g>
</g>
</svg>
