<?xml version="1.0" encoding="UTF-8" standalone="no"?>
<!DOCTYPE svg PUBLIC "-//W3C//DTD SVG 1.1//EN"
 "http://www.w3.org/Graphics/SVG/1.1/DTD/svg11.dtd">
<!-- Generated by graphviz version 10.0.1 (20240210.2158)
 -->
<!-- Title: AABB::extent Pages: 1 -->
<svg width="270pt" height="90pt"
 viewBox="0.00 0.00 269.50 90.00" xmlns="http://www.w3.org/2000/svg" xmlns:xlink="http://www.w3.org/1999/xlink">
<g id="graph0" class="graph" transform="scale(1 1) rotate(0) translate(4 86)">
<title>AABB::extent</title>
<!-- Node1 -->
<g id="Node000001" class="node">
<title>Node1</title>
<g id="a_Node000001"><a xlink:title=" ">
<polygon fill="#999999" stroke="#666666" points="261.5,-51 185.5,-51 185.5,-31 261.5,-31 261.5,-51"/>
<text text-anchor="middle" x="223.5" y="-37.5" font-family="Helvetica,sans-Serif" font-size="10.00">AABB::extent</text>
</a>
</g>
</g>
<!-- Node2 -->
<g id="Node000002" class="node">
<title>Node2</title>
<g id="a_Node000002"><a xlink:href="../../db/d50/class_g_e_u_1_1_details_window.html#ad35f61717358ebd11631e5b8c5ed9ff9" target="_top" xlink:title="Makes and handles basic enabled and POS/ROT/SCL edit controls.">
<polygon fill="white" stroke="#666666" points="149.5,-82 0,-82 0,-50 149.5,-50 149.5,-82"/>
<text text-anchor="start" x="8" y="-68.5" font-family="Helvetica,sans-Serif" font-size="10.00">GEU::DetailsWindow</text>
<text text-anchor="middle" x="74.75" y="-56.5" font-family="Helvetica,sans-Serif" font-size="10.00">::makeBasicTransformControls</text>
</a>
</g>
</g>
<!-- Node1&#45;&gt;Node2 -->
<g id="edge1_Node000001_Node000002" class="edge">
<title>Node1&#45;&gt;Node2</title>
<g id="a_edge1_Node000001_Node000002"><a xlink:title=" ">
<path fill="none" stroke="#63b8ff" d="M173.8,-49.3C166.13,-50.6 158.05,-51.98 149.95,-53.36"/>
<polygon fill="#63b8ff" stroke="#63b8ff" points="174.33,-52.76 183.6,-47.63 173.15,-45.86 174.33,-52.76"/>
</a>
</g>
</g>
<!-- Node3 -->
<g id="Node000003" class="node">
<title>Node3</title>
<g id="a_Node000003"><a xlink:href="../../dc/d51/class_g_e_u_1_1_image_cloud_proj.html#a8f674a27c95698f1132dacf9e7a15ab4" target="_top" xlink:title=" ">
<polygon fill="white" stroke="#666666" points="130.38,-32 19.12,-32 19.12,0 130.38,0 130.38,-32"/>
<text text-anchor="start" x="27.12" y="-18.5" font-family="Helvetica,sans-Serif" font-size="10.00">GEU::ImageCloudProj</text>
<text text-anchor="middle" x="74.75" y="-6.5" font-family="Helvetica,sans-Serif" font-size="10.00">::validation</text>
</a>
</g>
</g>
<!-- Node1&#45;&gt;Node3 -->
<g id="edge2_Node000001_Node000003" class="edge">
<title>Node1&#45;&gt;Node3</title>
<g id="a_edge2_Node000001_Node000003"><a xlink:title=" ">
<path fill="none" stroke="#63b8ff" d="M173.87,-32.71C160.08,-30.37 144.97,-27.79 130.83,-25.38"/>
<polygon fill="#63b8ff" stroke="#63b8ff" points="173.15,-36.14 183.6,-34.37 174.33,-29.24 173.15,-36.14"/>
</a>
</g>
</g>
</g>
</svg>
