<?xml version="1.0" encoding="UTF-8" standalone="no"?>
<!DOCTYPE svg PUBLIC "-//W3C//DTD SVG 1.1//EN"
 "http://www.w3.org/Graphics/SVG/1.1/DTD/svg11.dtd">
<!-- Generated by graphviz version 10.0.1 (20240210.2158)
 -->
<!-- Title: GEU::Model3D::getModelMatrix Pages: 1 -->
<svg width="701pt" height="140pt"
 viewBox="0.00 0.00 701.25 140.00" xmlns="http://www.w3.org/2000/svg" xmlns:xlink="http://www.w3.org/1999/xlink">
<g id="graph0" class="graph" transform="scale(1 1) rotate(0) translate(4 136)">
<title>GEU::Model3D::getModelMatrix</title>
<!-- Node1 -->
<g id="Node000001" class="node">
<title>Node1</title>
<g id="a_Node000001"><a xlink:title=" ">
<polygon fill="#999999" stroke="#666666" points="693.25,-76 539.25,-76 539.25,-56 693.25,-56 693.25,-76"/>
<text text-anchor="middle" x="616.25" y="-62.5" font-family="Helvetica,sans-Serif" font-size="10.00">GEU::Model3D::getModelMatrix</text>
</a>
</g>
</g>
<!-- Node2 -->
<g id="Node000002" class="node">
<title>Node2</title>
<g id="a_Node000002"><a xlink:href="../../dc/d01/class_g_e_u_1_1_image_cloud_proj.html#a8cfce2a37af19646fd0c06ee3fb077ca" target="_top" xlink:title=" ">
<polygon fill="white" stroke="#666666" points="497.25,-132 386,-132 386,-100 497.25,-100 497.25,-132"/>
<text text-anchor="start" x="394" y="-118.5" font-family="Helvetica,sans-Serif" font-size="10.00">GEU::ImageCloudProj</text>
<text text-anchor="middle" x="441.62" y="-106.5" font-family="Helvetica,sans-Serif" font-size="10.00">::applyStructureMask</text>
</a>
</g>
</g>
<!-- Node1&#45;&gt;Node2 -->
<g id="edge1_Node000001_Node000002" class="edge">
<title>Node1&#45;&gt;Node2</title>
<g id="a_edge1_Node000001_Node000002"><a xlink:title=" ">
<path fill="none" stroke="#63b8ff" d="M568.07,-79.66C546.24,-85.99 520.18,-93.54 497.48,-100.11"/>
<polygon fill="#63b8ff" stroke="#63b8ff" points="568.98,-83.05 577.61,-76.9 567.03,-76.32 568.98,-83.05"/>
</a>
</g>
</g>
<!-- Node3 -->
<g id="Node000003" class="node">
<title>Node3</title>
<g id="a_Node000003"><a xlink:href="../../d0/d01/class_g_e_u_1_1pcl_conversor.html#a232e707ee942a8c3df89dc341e96323a" target="_top" xlink:title=" ">
<polygon fill="white" stroke="#666666" points="503.25,-82 380,-82 380,-50 503.25,-50 503.25,-82"/>
<text text-anchor="start" x="388" y="-68.5" font-family="Helvetica,sans-Serif" font-size="10.00">GEU::pclConversor::</text>
<text text-anchor="middle" x="441.62" y="-56.5" font-family="Helvetica,sans-Serif" font-size="10.00">convertToPCLPointCloud</text>
</a>
</g>
</g>
<!-- Node1&#45;&gt;Node3 -->
<g id="edge2_Node000001_Node000003" class="edge">
<title>Node1&#45;&gt;Node3</title>
<g id="a_edge2_Node000001_Node000003"><a xlink:title=" ">
<path fill="none" stroke="#63b8ff" d="M527.38,-66C519.31,-66 511.25,-66 503.49,-66"/>
<polygon fill="#63b8ff" stroke="#63b8ff" points="527.27,-69.5 537.27,-66 527.27,-62.5 527.27,-69.5"/>
</a>
</g>
</g>
<!-- Node6 -->
<g id="Node000006" class="node">
<title>Node6</title>
<g id="a_Node000006"><a xlink:href="../../d9/d02/class_g_e_u_1_1_triangle_mesh.html#a3d0a52044599f2686b42aed5b4630095" target="_top" xlink:title=" ">
<polygon fill="white" stroke="#666666" points="495,-32 388.25,-32 388.25,0 495,0 495,-32"/>
<text text-anchor="start" x="396.25" y="-18.5" font-family="Helvetica,sans-Serif" font-size="10.00">GEU::TriangleMesh::</text>
<text text-anchor="middle" x="441.62" y="-6.5" font-family="Helvetica,sans-Serif" font-size="10.00">getAABB</text>
</a>
</g>
</g>
<!-- Node1&#45;&gt;Node6 -->
<g id="edge5_Node000001_Node000006" class="edge">
<title>Node1&#45;&gt;Node6</title>
<g id="a_edge5_Node000001_Node000006"><a xlink:title=" ">
<path fill="none" stroke="#63b8ff" d="M568.09,-52.34C545.62,-45.83 518.64,-38.02 495.48,-31.31"/>
<polygon fill="#63b8ff" stroke="#63b8ff" points="567.03,-55.68 577.61,-55.1 568.98,-48.95 567.03,-55.68"/>
</a>
</g>
</g>
<!-- Node4 -->
<g id="Node000004" class="node">
<title>Node4</title>
<g id="a_Node000004"><a xlink:href="../../de/d02/class_g_e_u_1_1_multiespectral_g_u_i_adapter.html#afafb062e54a135be4bc20d2eaee39862" target="_top" xlink:title=" ">
<polygon fill="white" stroke="#666666" points="344,-82 190,-82 190,-50 344,-50 344,-82"/>
<text text-anchor="start" x="198" y="-68.5" font-family="Helvetica,sans-Serif" font-size="10.00">GEU::MultiespectralGUIAdapter</text>
<text text-anchor="middle" x="267" y="-56.5" font-family="Helvetica,sans-Serif" font-size="10.00">::mapping</text>
</a>
</g>
</g>
<!-- Node3&#45;&gt;Node4 -->
<g id="edge3_Node000003_Node000004" class="edge">
<title>Node3&#45;&gt;Node4</title>
<g id="a_edge3_Node000003_Node000004"><a xlink:title=" ">
<path fill="none" stroke="#63b8ff" d="M368.31,-66C360.39,-66 352.31,-66 344.34,-66"/>
<polygon fill="#63b8ff" stroke="#63b8ff" points="368.25,-69.5 378.25,-66 368.25,-62.5 368.25,-69.5"/>
</a>
</g>
</g>
<!-- Node5 -->
<g id="Node000005" class="node">
<title>Node5</title>
<g id="a_Node000005"><a xlink:href="../../de/d02/class_g_e_u_1_1_multiespectral_g_u_i_adapter.html#a30cdb8738563252a05b2da154c3f864d" target="_top" xlink:title="Custom module GUI window contents.">
<polygon fill="white" stroke="#666666" points="154,-82 0,-82 0,-50 154,-50 154,-82"/>
<text text-anchor="start" x="8" y="-68.5" font-family="Helvetica,sans-Serif" font-size="10.00">GEU::MultiespectralGUIAdapter</text>
<text text-anchor="middle" x="77" y="-56.5" font-family="Helvetica,sans-Serif" font-size="10.00">::renderGuiObject</text>
</a>
</g>
</g>
<!-- Node4&#45;&gt;Node5 -->
<g id="edge4_Node000004_Node000005" class="edge">
<title>Node4&#45;&gt;Node5</title>
<g id="a_edge4_Node000004_Node000005"><a xlink:title=" ">
<path fill="none" stroke="#63b8ff" d="M178.03,-66C170.14,-66 162.18,-66 154.4,-66"/>
<polygon fill="#63b8ff" stroke="#63b8ff" points="178.02,-69.5 188.02,-66 178.02,-62.5 178.02,-69.5"/>
</a>
</g>
</g>
</g>
</svg>
