<?xml version="1.0" encoding="UTF-8" standalone="no"?>
<!DOCTYPE svg PUBLIC "-//W3C//DTD SVG 1.1//EN"
 "http://www.w3.org/Graphics/SVG/1.1/DTD/svg11.dtd">
<!-- Generated by graphviz version 10.0.1 (20240210.2158)
 -->
<!-- Title: GEU::Model3D::getAABB Pages: 1 -->
<svg width="518pt" height="478pt"
 viewBox="0.00 0.00 518.00 478.00" xmlns="http://www.w3.org/2000/svg" xmlns:xlink="http://www.w3.org/1999/xlink">
<g id="graph0" class="graph" transform="scale(1 1) rotate(0) translate(4 474)">
<title>GEU::Model3D::getAABB</title>
<!-- Node1 -->
<g id="Node000001" class="node">
<title>Node1</title>
<g id="a_Node000001"><a xlink:title=" ">
<polygon fill="#999999" stroke="#666666" points="510,-248 382.25,-248 382.25,-228 510,-228 510,-248"/>
<text text-anchor="middle" x="446.12" y="-234.5" font-family="Helvetica,sans-Serif" font-size="10.00">GEU::Model3D::getAABB</text>
</a>
</g>
</g>
<!-- Node2 -->
<g id="Node000002" class="node">
<title>Node2</title>
<g id="a_Node000002"><a xlink:href="../../dc/d01/class_g_e_u_1_1_image_cloud_proj.html#a8cfce2a37af19646fd0c06ee3fb077ca" target="_top" xlink:title=" ">
<polygon fill="white" stroke="#666666" points="327.12,-470 215.88,-470 215.88,-438 327.12,-438 327.12,-470"/>
<text text-anchor="start" x="223.88" y="-456.5" font-family="Helvetica,sans-Serif" font-size="10.00">GEU::ImageCloudProj</text>
<text text-anchor="middle" x="271.5" y="-444.5" font-family="Helvetica,sans-Serif" font-size="10.00">::applyStructureMask</text>
</a>
</g>
</g>
<!-- Node1&#45;&gt;Node2 -->
<g id="edge1_Node000001_Node000002" class="edge">
<title>Node1&#45;&gt;Node2</title>
<g id="a_edge1_Node000001_Node000002"><a xlink:title=" ">
<path fill="none" stroke="#63b8ff" d="M439.75,-259.51C428.84,-298.81 400.42,-382.44 346.25,-429 340.71,-433.76 334.23,-437.62 327.45,-440.76"/>
<polygon fill="#63b8ff" stroke="#63b8ff" points="443.13,-260.44 442.3,-249.88 436.36,-258.65 443.13,-260.44"/>
</a>
</g>
</g>
<!-- Node3 -->
<g id="Node000003" class="node">
<title>Node3</title>
<g id="a_Node000003"><a xlink:href="../../dc/d01/class_g_e_u_1_1_image_cloud_proj.html#a1931d245c0168a9e7866bc8dd7904a07" target="_top" xlink:title=" ">
<polygon fill="white" stroke="#666666" points="329.38,-420 213.62,-420 213.62,-388 329.38,-388 329.38,-420"/>
<text text-anchor="start" x="221.62" y="-406.5" font-family="Helvetica,sans-Serif" font-size="10.00">GEU::ImageCloudProj</text>
<text text-anchor="middle" x="271.5" y="-394.5" font-family="Helvetica,sans-Serif" font-size="10.00">::applyVegetationMask</text>
</a>
</g>
</g>
<!-- Node1&#45;&gt;Node3 -->
<g id="edge2_Node000001_Node000003" class="edge">
<title>Node1&#45;&gt;Node3</title>
<g id="a_edge2_Node000001_Node000003"><a xlink:title=" ">
<path fill="none" stroke="#63b8ff" d="M435.98,-258.47C421.32,-289.01 389.74,-346.41 346.25,-379 341.16,-382.81 335.46,-386.06 329.54,-388.84"/>
<polygon fill="#63b8ff" stroke="#63b8ff" points="439.08,-260.1 440.12,-249.56 432.73,-257.15 439.08,-260.1"/>
</a>
</g>
</g>
<!-- Node4 -->
<g id="Node000004" class="node">
<title>Node4</title>
<g id="a_Node000004"><a xlink:href="../../dd/d03/class_g_e_u_1_1_procedural_generator.html#a5e5a6ec203139618f54a6479cc12dd56" target="_top" xlink:title=" ">
<polygon fill="white" stroke="#666666" points="337.62,-370 205.38,-370 205.38,-338 337.62,-338 337.62,-370"/>
<text text-anchor="start" x="213.38" y="-356.5" font-family="Helvetica,sans-Serif" font-size="10.00">GEU::ProceduralGenerator</text>
<text text-anchor="middle" x="271.5" y="-344.5" font-family="Helvetica,sans-Serif" font-size="10.00">::computeNURBS</text>
</a>
</g>
</g>
<!-- Node1&#45;&gt;Node4 -->
<g id="edge3_Node000001_Node000004" class="edge">
<title>Node1&#45;&gt;Node4</title>
<g id="a_edge3_Node000001_Node000004"><a xlink:title=" ">
<path fill="none" stroke="#63b8ff" d="M429.29,-256.64C411.1,-276.99 379.48,-309.29 346.25,-329 340.9,-332.17 335.09,-335.01 329.16,-337.54"/>
<polygon fill="#63b8ff" stroke="#63b8ff" points="431.7,-259.19 435.65,-249.36 426.44,-254.58 431.7,-259.19"/>
</a>
</g>
</g>
<!-- Node5 -->
<g id="Node000005" class="node">
<title>Node5</title>
<g id="a_Node000005"><a xlink:href="../../dd/d03/class_g_e_u_1_1_procedural_generator.html#a5fb6272591570506c14b2e194a9b3805" target="_top" xlink:title="Initialize the voxel grid.">
<polygon fill="white" stroke="#666666" points="337.62,-320 205.38,-320 205.38,-288 337.62,-288 337.62,-320"/>
<text text-anchor="start" x="213.38" y="-306.5" font-family="Helvetica,sans-Serif" font-size="10.00">GEU::ProceduralGenerator</text>
<text text-anchor="middle" x="271.5" y="-294.5" font-family="Helvetica,sans-Serif" font-size="10.00">::createVoxelGrid</text>
</a>
</g>
</g>
<!-- Node1&#45;&gt;Node5 -->
<g id="edge4_Node000001_Node000005" class="edge">
<title>Node1&#45;&gt;Node5</title>
<g id="a_edge4_Node000001_Node000005"><a xlink:title=" ">
<path fill="none" stroke="#63b8ff" d="M410.83,-252.88C391.9,-260.92 367.91,-270.85 346.25,-279 338.66,-281.86 330.57,-284.75 322.64,-287.5"/>
<polygon fill="#63b8ff" stroke="#63b8ff" points="412.12,-256.13 419.93,-248.98 409.36,-249.7 412.12,-256.13"/>
</a>
</g>
</g>
<!-- Node6 -->
<g id="Node000006" class="node">
<title>Node6</title>
<g id="a_Node000006"><a xlink:href="../../dd/d04/class_g_e_u_1_1_camera.html#a40576296046dd7cbeb67cfcd7bdbcba8" target="_top" xlink:title=" ">
<polygon fill="white" stroke="#666666" points="335,-270 208,-270 208,-250 335,-250 335,-270"/>
<text text-anchor="middle" x="271.5" y="-256.5" font-family="Helvetica,sans-Serif" font-size="10.00">GEU::Camera::lookModel</text>
</a>
</g>
</g>
<!-- Node1&#45;&gt;Node6 -->
<g id="edge5_Node000001_Node000006" class="edge">
<title>Node1&#45;&gt;Node6</title>
<g id="a_edge5_Node000001_Node000006"><a xlink:title=" ">
<path fill="none" stroke="#63b8ff" d="M370.63,-247.49C358.82,-249 346.72,-250.54 335.21,-252.01"/>
<polygon fill="#63b8ff" stroke="#63b8ff" points="370.85,-250.99 380.32,-246.26 369.96,-244.05 370.85,-250.99"/>
</a>
</g>
</g>
<!-- Node8 -->
<g id="Node000008" class="node">
<title>Node8</title>
<g id="a_Node000008"><a xlink:href="../../db/d00/class_g_e_u_1_1_details_window.html#ad35f61717358ebd11631e5b8c5ed9ff9" target="_top" xlink:title="Makes and handles basic enabled and POS/ROT/SCL edit controls.">
<polygon fill="white" stroke="#666666" points="346.25,-232 196.75,-232 196.75,-200 346.25,-200 346.25,-232"/>
<text text-anchor="start" x="204.75" y="-218.5" font-family="Helvetica,sans-Serif" font-size="10.00">GEU::DetailsWindow</text>
<text text-anchor="middle" x="271.5" y="-206.5" font-family="Helvetica,sans-Serif" font-size="10.00">::makeBasicTransformControls</text>
</a>
</g>
</g>
<!-- Node1&#45;&gt;Node8 -->
<g id="edge7_Node000001_Node000008" class="edge">
<title>Node1&#45;&gt;Node8</title>
<g id="a_edge7_Node000001_Node000008"><a xlink:title=" ">
<path fill="none" stroke="#63b8ff" d="M370.67,-228.51C362.7,-227.5 354.59,-226.46 346.61,-225.45"/>
<polygon fill="#63b8ff" stroke="#63b8ff" points="369.96,-231.95 380.32,-229.74 370.85,-225.01 369.96,-231.95"/>
</a>
</g>
</g>
<!-- Node9 -->
<g id="Node000009" class="node">
<title>Node9</title>
<g id="a_Node000009"><a xlink:href="../../dd/d01/class_g_e_u_1_1_file_manager.html#a7bcb4c4a764ee9419f0d924477566f60" target="_top" xlink:title=" ">
<polygon fill="white" stroke="#666666" points="345.12,-182 197.88,-182 197.88,-150 345.12,-150 345.12,-182"/>
<text text-anchor="start" x="205.88" y="-168.5" font-family="Helvetica,sans-Serif" font-size="10.00">GEU::FileManager::mergeGeu</text>
<text text-anchor="middle" x="271.5" y="-156.5" font-family="Helvetica,sans-Serif" font-size="10.00">Clouds</text>
</a>
</g>
</g>
<!-- Node1&#45;&gt;Node9 -->
<g id="edge8_Node000001_Node000009" class="edge">
<title>Node1&#45;&gt;Node9</title>
<g id="a_edge8_Node000001_Node000009"><a xlink:title=" ">
<path fill="none" stroke="#63b8ff" d="M414.94,-222.52C395.57,-212.87 369.73,-200.52 346.25,-191 338.98,-188.05 331.22,-185.16 323.57,-182.44"/>
<polygon fill="#63b8ff" stroke="#63b8ff" points="413.13,-225.53 423.63,-226.89 416.27,-219.27 413.13,-225.53"/>
</a>
</g>
</g>
<!-- Node10 -->
<g id="Node000010" class="node">
<title>Node10</title>
<g id="a_Node000010"><a xlink:href="../../d4/d07/class_normales_g_u_i_adapter.html#a32cec8b0ea288f27e15946d5a4ea3728" target="_top" xlink:title=" ">
<polygon fill="white" stroke="#666666" points="325.25,-132 217.75,-132 217.75,-100 325.25,-100 325.25,-132"/>
<text text-anchor="start" x="225.75" y="-118.5" font-family="Helvetica,sans-Serif" font-size="10.00">NormalesGUIAdapter</text>
<text text-anchor="middle" x="271.5" y="-106.5" font-family="Helvetica,sans-Serif" font-size="10.00">::offsetMethod</text>
</a>
</g>
</g>
<!-- Node1&#45;&gt;Node10 -->
<g id="edge9_Node000001_Node000010" class="edge">
<title>Node1&#45;&gt;Node10</title>
<g id="a_edge9_Node000001_Node000010"><a xlink:title=" ">
<path fill="none" stroke="#63b8ff" d="M430.1,-218.75C412.25,-197.06 380.53,-162.08 346.25,-141 339.8,-137.03 332.64,-133.61 325.4,-130.67"/>
<polygon fill="#63b8ff" stroke="#63b8ff" points="427.35,-220.91 436.34,-226.51 432.8,-216.52 427.35,-220.91"/>
</a>
</g>
</g>
<!-- Node12 -->
<g id="Node000012" class="node">
<title>Node12</title>
<g id="a_Node000012"><a xlink:href="../../dd/d03/class_g_e_u_1_1_procedural_generator.html#ab8413581fb4ba7ab9709a72bca03ce64" target="_top" xlink:title="Assign each point of the PointCloud to the corresponding voxel in the voxel grid and computes the cor...">
<polygon fill="white" stroke="#666666" points="337.62,-82 205.38,-82 205.38,-50 337.62,-50 337.62,-82"/>
<text text-anchor="start" x="213.38" y="-68.5" font-family="Helvetica,sans-Serif" font-size="10.00">GEU::ProceduralGenerator</text>
<text text-anchor="middle" x="271.5" y="-56.5" font-family="Helvetica,sans-Serif" font-size="10.00">::subdivideCloud</text>
</a>
</g>
</g>
<!-- Node1&#45;&gt;Node12 -->
<g id="edge11_Node000001_Node000012" class="edge">
<title>Node1&#45;&gt;Node12</title>
<g id="a_edge11_Node000001_Node000012"><a xlink:title=" ">
<path fill="none" stroke="#63b8ff" d="M436.61,-217.54C422.44,-185.92 391.08,-125.27 346.25,-91 341.95,-87.72 337.2,-84.85 332.24,-82.34"/>
<polygon fill="#63b8ff" stroke="#63b8ff" points="433.25,-218.6 440.44,-226.38 439.67,-215.82 433.25,-218.6"/>
</a>
</g>
</g>
<!-- Node13 -->
<g id="Node000013" class="node">
<title>Node13</title>
<g id="a_Node000013"><a xlink:href="../../dc/d01/class_g_e_u_1_1_image_cloud_proj.html#a9113b9f785ba6dd50b0af47a3a5a1ecb" target="_top" xlink:title=" ">
<polygon fill="white" stroke="#666666" points="327.12,-32 215.88,-32 215.88,0 327.12,0 327.12,-32"/>
<text text-anchor="start" x="223.88" y="-18.5" font-family="Helvetica,sans-Serif" font-size="10.00">GEU::ImageCloudProj</text>
<text text-anchor="middle" x="271.5" y="-6.5" font-family="Helvetica,sans-Serif" font-size="10.00">::validation</text>
</a>
</g>
</g>
<!-- Node1&#45;&gt;Node13 -->
<g id="edge12_Node000001_Node000013" class="edge">
<title>Node1&#45;&gt;Node13</title>
<g id="a_edge12_Node000001_Node000013"><a xlink:title=" ">
<path fill="none" stroke="#63b8ff" d="M440.17,-216.65C429.76,-176.49 401.85,-89.39 346.25,-41 340.74,-36.21 334.28,-32.32 327.5,-29.18"/>
<polygon fill="#63b8ff" stroke="#63b8ff" points="436.74,-217.38 442.53,-226.25 443.54,-215.71 436.74,-217.38"/>
</a>
</g>
</g>
<!-- Node7 -->
<g id="Node000007" class="node">
<title>Node7</title>
<g id="a_Node000007"><a xlink:href="../../da/d01/class_g_e_u_1_1_inspector_window.html#a63b0402d61dd34944da9280a89fa9f74" target="_top" xlink:title="Renders the window and contents.">
<polygon fill="white" stroke="#666666" points="139,-276 21.75,-276 21.75,-244 139,-244 139,-276"/>
<text text-anchor="start" x="29.75" y="-262.5" font-family="Helvetica,sans-Serif" font-size="10.00">GEU::InspectorWindow</text>
<text text-anchor="middle" x="80.38" y="-250.5" font-family="Helvetica,sans-Serif" font-size="10.00">::renderWindow</text>
</a>
</g>
</g>
<!-- Node6&#45;&gt;Node7 -->
<g id="edge6_Node000006_Node000007" class="edge">
<title>Node6&#45;&gt;Node7</title>
<g id="a_edge6_Node000006_Node000007"><a xlink:title=" ">
<path fill="none" stroke="#63b8ff" d="M196.23,-260C177.31,-260 157.26,-260 139.29,-260"/>
<polygon fill="#63b8ff" stroke="#63b8ff" points="196.01,-263.5 206.01,-260 196.01,-256.5 196.01,-263.5"/>
</a>
</g>
</g>
<!-- Node11 -->
<g id="Node000011" class="node">
<title>Node11</title>
<g id="a_Node000011"><a xlink:href="../../d4/d07/class_normales_g_u_i_adapter.html#ad27c678722407ed6f3d2bb41ccc2b640" target="_top" xlink:title="Custom module GUI window contents.">
<polygon fill="white" stroke="#666666" points="134.12,-132 26.62,-132 26.62,-100 134.12,-100 134.12,-132"/>
<text text-anchor="start" x="34.62" y="-118.5" font-family="Helvetica,sans-Serif" font-size="10.00">NormalesGUIAdapter</text>
<text text-anchor="middle" x="80.38" y="-106.5" font-family="Helvetica,sans-Serif" font-size="10.00">::renderGuiObject</text>
</a>
</g>
</g>
<!-- Node10&#45;&gt;Node11 -->
<g id="edge10_Node000010_Node000011" class="edge">
<title>Node10&#45;&gt;Node11</title>
<g id="a_edge10_Node000010_Node000011"><a xlink:title=" ">
<path fill="none" stroke="#63b8ff" d="M206.11,-116C182.79,-116 156.73,-116 134.49,-116"/>
<polygon fill="#63b8ff" stroke="#63b8ff" points="205.8,-119.5 215.8,-116 205.8,-112.5 205.8,-119.5"/>
</a>
</g>
</g>
<!-- Node14 -->
<g id="Node000014" class="node">
<title>Node14</title>
<g id="a_Node000014"><a xlink:href="../../d5/d03/class_g_e_u_1_1_reconstruccion_g_u_i_adapter.html#a2918ca118794a47873dbc1df297d68d7" target="_top" xlink:title="Custom module GUI window contents.">
<polygon fill="white" stroke="#666666" points="160.75,-32 0,-32 0,0 160.75,0 160.75,-32"/>
<text text-anchor="start" x="8" y="-18.5" font-family="Helvetica,sans-Serif" font-size="10.00">GEU::ReconstruccionGUIAdapter</text>
<text text-anchor="middle" x="80.38" y="-6.5" font-family="Helvetica,sans-Serif" font-size="10.00">::renderGuiObject</text>
</a>
</g>
</g>
<!-- Node13&#45;&gt;Node14 -->
<g id="edge13_Node000013_Node000014" class="edge">
<title>Node13&#45;&gt;Node14</title>
<g id="a_edge13_Node000013_Node000014"><a xlink:title=" ">
<path fill="none" stroke="#63b8ff" d="M204.11,-16C190.21,-16 175.42,-16 161.09,-16"/>
<polygon fill="#63b8ff" stroke="#63b8ff" points="204.03,-19.5 214.03,-16 204.03,-12.5 204.03,-19.5"/>
</a>
</g>
</g>
</g>
</svg>
