<?xml version="1.0" encoding="UTF-8" standalone="no"?>
<!DOCTYPE svg PUBLIC "-//W3C//DTD SVG 1.1//EN"
 "http://www.w3.org/Graphics/SVG/1.1/DTD/svg11.dtd">
<!-- Generated by graphviz version 10.0.1 (20240210.2158)
 -->
<!-- Title: C:/GitHub/GEU/GEU/Source/UI/DatabaseNewDatoWindow.h Pages: 1 -->
<svg width="307pt" height="152pt"
 viewBox="0.00 0.00 306.88 152.00" xmlns="http://www.w3.org/2000/svg" xmlns:xlink="http://www.w3.org/1999/xlink">
<g id="graph0" class="graph" transform="scale(1 1) rotate(0) translate(4 148)">
<title>C:/GitHub/GEU/GEU/Source/UI/DatabaseNewDatoWindow.h</title>
<!-- Node1 -->
<g id="Node000001" class="node">
<title>Node1</title>
<g id="a_Node000001"><a xlink:title=" ">
<polygon fill="#999999" stroke="#666666" points="171.38,-144 17.38,-144 17.38,-112 171.38,-112 171.38,-144"/>
<text text-anchor="start" x="25.38" y="-130.5" font-family="Helvetica,sans-Serif" font-size="10.00">C:/GitHub/GEU/GEU/Source</text>
<text text-anchor="middle" x="94.38" y="-118.5" font-family="Helvetica,sans-Serif" font-size="10.00">/UI/DatabaseNewDatoWindow.h</text>
</a>
</g>
</g>
<!-- Node2 -->
<g id="Node000002" class="node">
<title>Node2</title>
<g id="a_Node000002"><a xlink:title=" ">
<polygon fill="#e0e0e0" stroke="#999999" points="34.75,-76 0,-76 0,-56 34.75,-56 34.75,-76"/>
<text text-anchor="middle" x="17.38" y="-62.5" font-family="Helvetica,sans-Serif" font-size="10.00">map</text>
</a>
</g>
</g>
<!-- Node1&#45;&gt;Node2 -->
<g id="edge1_Node000001_Node000002" class="edge">
<title>Node1&#45;&gt;Node2</title>
<g id="a_edge1_Node000001_Node000002"><a xlink:title=" ">
<path fill="none" stroke="#63b8ff" d="M74.55,-111.55C63.41,-102.87 49.51,-92.04 38.21,-83.24"/>
<polygon fill="#63b8ff" stroke="#63b8ff" points="40.68,-80.72 30.64,-77.34 36.38,-86.25 40.68,-80.72"/>
</a>
</g>
</g>
<!-- Node3 -->
<g id="Node000003" class="node">
<title>Node3</title>
<g id="a_Node000003"><a xlink:href="../../de/d6f/_i___g_u_i_window_8h.html" target="_top" xlink:title=" ">
<polygon fill="white" stroke="#666666" points="135.75,-76 53,-76 53,-56 135.75,-56 135.75,-76"/>
<text text-anchor="middle" x="94.38" y="-62.5" font-family="Helvetica,sans-Serif" font-size="10.00">I_GUIWindow.h</text>
</a>
</g>
</g>
<!-- Node1&#45;&gt;Node3 -->
<g id="edge2_Node000001_Node000003" class="edge">
<title>Node1&#45;&gt;Node3</title>
<g id="a_edge2_Node000001_Node000003"><a xlink:title=" ">
<path fill="none" stroke="#63b8ff" d="M94.38,-111.55C94.38,-104.34 94.38,-95.66 94.38,-87.88"/>
<polygon fill="#63b8ff" stroke="#63b8ff" points="97.88,-87.92 94.38,-77.92 90.88,-87.92 97.88,-87.92"/>
</a>
</g>
</g>
<!-- Node4 -->
<g id="Node000004" class="node">
<title>Node4</title>
<g id="a_Node000004"><a xlink:href="../../d7/d92/_database_connector_8h.html" target="_top" xlink:title=" ">
<polygon fill="white" stroke="#666666" points="298.88,-76 153.88,-76 153.88,-56 298.88,-56 298.88,-76"/>
<text text-anchor="middle" x="226.38" y="-62.5" font-family="Helvetica,sans-Serif" font-size="10.00">Utilities/DatabaseConnector.h</text>
</a>
</g>
</g>
<!-- Node1&#45;&gt;Node4 -->
<g id="edge3_Node000001_Node000004" class="edge">
<title>Node1&#45;&gt;Node4</title>
<g id="a_edge3_Node000001_Node000004"><a xlink:title=" ">
<path fill="none" stroke="#63b8ff" d="M128.37,-111.55C148.99,-102.17 175.12,-90.3 195.21,-81.17"/>
<polygon fill="#63b8ff" stroke="#63b8ff" points="196.64,-84.36 204.3,-77.03 193.75,-77.99 196.64,-84.36"/>
</a>
</g>
</g>
<!-- Node5 -->
<g id="Node000005" class="node">
<title>Node5</title>
<g id="a_Node000005"><a xlink:href="../../de/dec/_singleton_8h.html" target="_top" xlink:title=" ">
<polygon fill="white" stroke="#666666" points="222.75,-20 158,-20 158,0 222.75,0 222.75,-20"/>
<text text-anchor="middle" x="190.38" y="-6.5" font-family="Helvetica,sans-Serif" font-size="10.00">Singleton.h</text>
</a>
</g>
</g>
<!-- Node4&#45;&gt;Node5 -->
<g id="edge4_Node000004_Node000005" class="edge">
<title>Node4&#45;&gt;Node5</title>
<g id="a_edge4_Node000004_Node000005"><a xlink:title=" ">
<path fill="none" stroke="#63b8ff" d="M220.1,-55.59C215.36,-48.47 208.68,-38.45 202.85,-29.72"/>
<polygon fill="#63b8ff" stroke="#63b8ff" points="205.87,-27.94 197.41,-21.56 200.05,-31.82 205.87,-27.94"/>
</a>
</g>
</g>
<!-- Node6 -->
<g id="Node000006" class="node">
<title>Node6</title>
<g id="a_Node000006"><a xlink:title=" ">
<polygon fill="#e0e0e0" stroke="#999999" points="283.5,-20 241.25,-20 241.25,0 283.5,0 283.5,-20"/>
<text text-anchor="middle" x="262.38" y="-6.5" font-family="Helvetica,sans-Serif" font-size="10.00">occi.h</text>
</a>
</g>
</g>
<!-- Node4&#45;&gt;Node6 -->
<g id="edge5_Node000004_Node000006" class="edge">
<title>Node4&#45;&gt;Node6</title>
<g id="a_edge5_Node000004_Node000006"><a xlink:title=" ">
<path fill="none" stroke="#63b8ff" d="M232.65,-55.59C237.39,-48.47 244.07,-38.45 249.9,-29.72"/>
<polygon fill="#63b8ff" stroke="#63b8ff" points="252.7,-31.82 255.34,-21.56 246.88,-27.94 252.7,-31.82"/>
</a>
</g>
</g>
</g>
</svg>
