<?xml version="1.0" encoding="UTF-8" standalone="no"?>
<!DOCTYPE svg PUBLIC "-//W3C//DTD SVG 1.1//EN"
 "http://www.w3.org/Graphics/SVG/1.1/DTD/svg11.dtd">
<!-- Generated by graphviz version 10.0.1 (20240210.2158)
 -->
<!-- Title: json::jobject::get Pages: 1 -->
<svg width="225pt" height="66pt"
 viewBox="0.00 0.00 224.50 66.00" xmlns="http://www.w3.org/2000/svg" xmlns:xlink="http://www.w3.org/1999/xlink">
<g id="graph0" class="graph" transform="scale(1 1) rotate(0) translate(4 62)">
<title>json::jobject::get</title>
<!-- Node1 -->
<g id="Node000001" class="node">
<title>Node1</title>
<g id="a_Node000001"><a xlink:title="Returns the serialized value associated with a key.">
<polygon fill="#999999" stroke="#666666" points="88,-39 0,-39 0,-19 88,-19 88,-39"/>
<text text-anchor="middle" x="44" y="-25.5" font-family="Helvetica,sans-Serif" font-size="10.00">json::jobject::get</text>
</a>
</g>
</g>
<!-- Node2 -->
<g id="Node000002" class="node">
<title>Node2</title>
<g id="a_Node000002"><a xlink:href="../../d0/d03/a01997.html#a5d541972aaacc9ff77dc7d4f9988369b" target="_top" xlink:title="Returns the serialized value at a given index.">
<polygon fill="white" stroke="#666666" points="214.25,-58 126.25,-58 126.25,-38 214.25,-38 214.25,-58"/>
<text text-anchor="middle" x="170.25" y="-44.5" font-family="Helvetica,sans-Serif" font-size="10.00">json::jobject::get</text>
</a>
</g>
</g>
<!-- Node1&#45;&gt;Node2 -->
<g id="edge1_Node000001_Node000002" class="edge">
<title>Node1&#45;&gt;Node2</title>
<g id="a_edge1_Node000001_Node000002"><a xlink:title=" ">
<path fill="none" stroke="#63b8ff" d="M88.46,-35.65C96.92,-36.94 105.9,-38.31 114.67,-39.65"/>
<polygon fill="#63b8ff" stroke="#63b8ff" points="114.12,-43.11 124.53,-41.16 115.18,-36.19 114.12,-43.11"/>
</a>
</g>
</g>
<!-- Node3 -->
<g id="Node000003" class="node">
<title>Node3</title>
<g id="a_Node000003"><a xlink:href="../../d0/d03/a01997.html#a4879f57bf3cd03d94ed33afca1541e9b" target="_top" xlink:title="Returns the number of entries in the JSON object or array.">
<polygon fill="white" stroke="#666666" points="216.5,-20 124,-20 124,0 216.5,0 216.5,-20"/>
<text text-anchor="middle" x="170.25" y="-6.5" font-family="Helvetica,sans-Serif" font-size="10.00">json::jobject::size</text>
</a>
</g>
</g>
<!-- Node1&#45;&gt;Node3 -->
<g id="edge2_Node000001_Node000003" class="edge">
<title>Node1&#45;&gt;Node3</title>
<g id="a_edge2_Node000001_Node000003"><a xlink:title=" ">
<path fill="none" stroke="#63b8ff" d="M88.46,-22.35C96.26,-21.16 104.49,-19.9 112.6,-18.66"/>
<polygon fill="#63b8ff" stroke="#63b8ff" points="113.07,-22.13 122.42,-17.16 112.01,-15.21 113.07,-22.13"/>
</a>
</g>
</g>
</g>
</svg>
