<?xml version="1.0" encoding="UTF-8" standalone="no"?>
<!DOCTYPE svg PUBLIC "-//W3C//DTD SVG 1.1//EN"
 "http://www.w3.org/Graphics/SVG/1.1/DTD/svg11.dtd">
<!-- Generated by graphviz version 10.0.1 (20240210.2158)
 -->
<!-- Title: json::jobject::pretty Pages: 1 -->
<svg width="652pt" height="256pt"
 viewBox="0.00 0.00 652.00 256.17" xmlns="http://www.w3.org/2000/svg" xmlns:xlink="http://www.w3.org/1999/xlink">
<g id="graph0" class="graph" transform="scale(1 1) rotate(0) translate(4 252.17)">
<title>json::jobject::pretty</title>
<!-- Node1 -->
<g id="Node000001" class="node">
<title>Node1</title>
<g id="a_Node000001"><a xlink:title="Returns a pretty (multi&#45;line indented) serialzed representation of the object or array.">
<polygon fill="#999999" stroke="#666666" points="99.25,-27.17 0,-27.17 0,-7.17 99.25,-7.17 99.25,-27.17"/>
<text text-anchor="middle" x="49.62" y="-13.67" font-family="Helvetica,sans-Serif" font-size="10.00">json::jobject::pretty</text>
</a>
</g>
</g>
<!-- Node1&#45;&gt;Node1 -->
<g id="edge14_Node000001_Node000001" class="edge">
<title>Node1&#45;&gt;Node1</title>
<g id="a_edge14_Node000001_Node000001"><a xlink:title=" ">
<path fill="none" stroke="#63b8ff" d="M28.19,-27.51C19.04,-36.14 26.18,-45.17 49.62,-45.17 62.45,-45.17 70.39,-42.47 73.46,-38.61"/>
<polygon fill="#63b8ff" stroke="#63b8ff" points="76.92,-38.02 71.38,-28.99 70.08,-39.5 76.92,-38.02"/>
</a>
</g>
</g>
<!-- Node2 -->
<g id="Node000002" class="node">
<title>Node2</title>
<g id="a_Node000002"><a xlink:href="../../d0/d03/a01997.html#a07e29a2948df56e3eb332fcebe6ab9d5" target="_top" xlink:title="Parses a serialized JSON string.">
<polygon fill="white" stroke="#666666" points="233.75,-109.17 135.25,-109.17 135.25,-89.17 233.75,-89.17 233.75,-109.17"/>
<text text-anchor="middle" x="184.5" y="-95.67" font-family="Helvetica,sans-Serif" font-size="10.00">json::jobject::parse</text>
</a>
</g>
</g>
<!-- Node1&#45;&gt;Node2 -->
<g id="edge1_Node000001_Node000002" class="edge">
<title>Node1&#45;&gt;Node2</title>
<g id="a_edge1_Node000001_Node000002"><a xlink:title=" ">
<path fill="none" stroke="#63b8ff" d="M67.45,-27.55C90.12,-41.54 130.68,-66.57 157.34,-83.02"/>
<polygon fill="#63b8ff" stroke="#63b8ff" points="155.17,-85.8 165.52,-88.07 158.85,-79.84 155.17,-85.8"/>
</a>
</g>
</g>
<!-- Node8 -->
<g id="Node000008" class="node">
<title>Node8</title>
<g id="a_Node000008"><a xlink:href="../../d1/d02/a00638.html#a41134b9f4ec1ec6b8db4f8027536b762" target="_top" xlink:title=" ">
<polygon fill="white" stroke="#666666" points="644,-134.17 556,-134.17 556,-114.17 644,-114.17 644,-134.17"/>
<text text-anchor="middle" x="600" y="-120.67" font-family="Helvetica,sans-Serif" font-size="10.00">json::jtype::peek</text>
</a>
</g>
</g>
<!-- Node1&#45;&gt;Node8 -->
<g id="edge13_Node000001_Node000008" class="edge">
<title>Node1&#45;&gt;Node8</title>
<g id="a_edge13_Node000001_Node000008"><a xlink:title=" ">
<path fill="none" stroke="#63b8ff" d="M99.61,-9.88C164.29,-1.74 281.37,7.87 378.75,-12.17 444.74,-25.74 460.82,-34.98 520,-67.17 540.92,-78.54 562.72,-94.65 578.11,-106.84"/>
<polygon fill="#63b8ff" stroke="#63b8ff" points="575.64,-109.34 585.62,-112.89 580.03,-103.89 575.64,-109.34"/>
</a>
</g>
</g>
<!-- Node10 -->
<g id="Node000010" class="node">
<title>Node10</title>
<g id="a_Node000010"><a xlink:href="../../dd/d06/a00639.html#a0ead22b90b3354cc09a0a21e517e9385" target="_top" xlink:title="(t)rims (l)eading (w)hite (s)pace">
<polygon fill="white" stroke="#666666" points="514.75,-96.17 420,-96.17 420,-76.17 514.75,-76.17 514.75,-96.17"/>
<text text-anchor="middle" x="467.38" y="-82.67" font-family="Helvetica,sans-Serif" font-size="10.00">json::parsing::tlws</text>
</a>
</g>
</g>
<!-- Node1&#45;&gt;Node10 -->
<g id="edge15_Node000001_Node000010" class="edge">
<title>Node1&#45;&gt;Node10</title>
<g id="a_edge15_Node000001_Node000010"><a xlink:title=" ">
<path fill="none" stroke="#63b8ff" d="M99.63,-13.15C164.83,-9.33 283.01,-7.79 378.75,-36.17 402.47,-43.2 426.7,-57.7 443.65,-69.28"/>
<polygon fill="#63b8ff" stroke="#63b8ff" points="441.3,-71.91 451.49,-74.81 445.33,-66.19 441.3,-71.91"/>
</a>
</g>
</g>
<!-- Node3 -->
<g id="Node000003" class="node">
<title>Node3</title>
<g id="a_Node000003"><a xlink:href="../../dd/d06/a00639.html#a38da988d5211eacc7d4b76da2236e51a" target="_top" xlink:title="Decodes a string in JSON format.">
<polygon fill="white" stroke="#666666" points="378.75,-115.17 269.75,-115.17 269.75,-83.17 378.75,-83.17 378.75,-115.17"/>
<text text-anchor="start" x="277.75" y="-101.67" font-family="Helvetica,sans-Serif" font-size="10.00">json::parsing::decode</text>
<text text-anchor="middle" x="324.25" y="-89.67" font-family="Helvetica,sans-Serif" font-size="10.00">_string</text>
</a>
</g>
</g>
<!-- Node2&#45;&gt;Node3 -->
<g id="edge2_Node000002_Node000003" class="edge">
<title>Node2&#45;&gt;Node3</title>
<g id="a_edge2_Node000002_Node000003"><a xlink:title=" ">
<path fill="none" stroke="#63b8ff" d="M234.07,-99.17C241.86,-99.17 250.03,-99.17 258.13,-99.17"/>
<polygon fill="#63b8ff" stroke="#63b8ff" points="257.98,-102.67 267.98,-99.17 257.98,-95.67 257.98,-102.67"/>
</a>
</g>
</g>
<!-- Node4 -->
<g id="Node000004" class="node">
<title>Node4</title>
<g id="a_Node000004"><a xlink:href="../../d0/d03/a01997.html#a24ec98b78f9e603359f71f805a152739" target="_top" xlink:title="Flag for differentiating objects and arrays.">
<polygon fill="white" stroke="#666666" points="378.75,-65.17 269.75,-65.17 269.75,-45.17 378.75,-45.17 378.75,-65.17"/>
<text text-anchor="middle" x="324.25" y="-51.67" font-family="Helvetica,sans-Serif" font-size="10.00">json::jobject::is_array</text>
</a>
</g>
</g>
<!-- Node2&#45;&gt;Node4 -->
<g id="edge3_Node000002_Node000004" class="edge">
<title>Node2&#45;&gt;Node4</title>
<g id="a_edge3_Node000002_Node000004"><a xlink:title=" ">
<path fill="none" stroke="#63b8ff" d="M218.14,-88.74C236.67,-82.82 260.09,-75.34 280.12,-68.95"/>
<polygon fill="#63b8ff" stroke="#63b8ff" points="280.94,-72.36 289.4,-65.98 278.81,-65.69 280.94,-72.36"/>
</a>
</g>
</g>
<!-- Node5 -->
<g id="Node000005" class="node">
<title>Node5</title>
<g id="a_Node000005"><a xlink:href="../../dd/d06/a00639.html#a2b8591533a42f229d2070223a6c48aa7" target="_top" xlink:title="Parses the first value encountered in a JSON string.">
<polygon fill="white" stroke="#666666" points="375,-191.17 273.5,-191.17 273.5,-171.17 375,-171.17 375,-191.17"/>
<text text-anchor="middle" x="324.25" y="-177.67" font-family="Helvetica,sans-Serif" font-size="10.00">json::parsing::parse</text>
</a>
</g>
</g>
<!-- Node2&#45;&gt;Node5 -->
<g id="edge4_Node000002_Node000005" class="edge">
<title>Node2&#45;&gt;Node5</title>
<g id="a_edge4_Node000002_Node000005"><a xlink:title=" ">
<path fill="none" stroke="#63b8ff" d="M199.01,-109.61C215.25,-121.89 243.59,-142.46 269.75,-157.17 275.24,-160.26 281.2,-163.25 287.09,-166.02"/>
<polygon fill="#63b8ff" stroke="#63b8ff" points="285.55,-169.17 296.1,-170.11 288.44,-162.79 285.55,-169.17"/>
</a>
</g>
</g>
<!-- Node2&#45;&gt;Node10 -->
<g id="edge12_Node000002_Node000010" class="edge">
<title>Node2&#45;&gt;Node10</title>
<g id="a_edge12_Node000002_Node000010"><a xlink:title=" ">
<path fill="none" stroke="#63b8ff" d="M213.13,-109.56C229.36,-115.11 250.42,-121.36 269.75,-124.17 317.69,-131.13 331.73,-135.82 378.75,-124.17 396.31,-119.82 398.22,-112.53 414.75,-105.17 418.11,-103.67 421.62,-102.2 425.17,-100.77"/>
<polygon fill="#63b8ff" stroke="#63b8ff" points="426.33,-104.07 434.39,-97.2 423.8,-97.55 426.33,-104.07"/>
</a>
</g>
</g>
<!-- Node6 -->
<g id="Node000006" class="node">
<title>Node6</title>
<g id="a_Node000006"><a xlink:href="../../d3/d07/a01985.html#afefb8447a7db13bc4f6f7dc5f12a22c2" target="_top" xlink:title="Checks if the stored value is valid.">
<polygon fill="white" stroke="#666666" points="519.62,-172.17 415.12,-172.17 415.12,-152.17 519.62,-152.17 519.62,-172.17"/>
<text text-anchor="middle" x="467.38" y="-158.67" font-family="Helvetica,sans-Serif" font-size="10.00">json::reader::is_valid</text>
</a>
</g>
</g>
<!-- Node5&#45;&gt;Node6 -->
<g id="edge5_Node000005_Node000006" class="edge">
<title>Node5&#45;&gt;Node6</title>
<g id="a_edge5_Node000005_Node000006"><a xlink:title=" ">
<path fill="none" stroke="#63b8ff" d="M375.4,-174.42C384.53,-173.19 394.15,-171.89 403.59,-170.62"/>
<polygon fill="#63b8ff" stroke="#63b8ff" points="404.01,-174.1 413.45,-169.29 403.08,-167.16 404.01,-174.1"/>
</a>
</g>
</g>
<!-- Node7 -->
<g id="Node000007" class="node">
<title>Node7</title>
<g id="a_Node000007"><a xlink:href="../../d3/d07/a01985.html#aa1d0e99cecf438761764c16fa39134d1" target="_top" xlink:title=" ">
<polygon fill="white" stroke="#666666" points="514.38,-134.17 420.38,-134.17 420.38,-114.17 514.38,-114.17 514.38,-134.17"/>
<text text-anchor="middle" x="467.38" y="-120.67" font-family="Helvetica,sans-Serif" font-size="10.00">json::reader::push</text>
</a>
</g>
</g>
<!-- Node5&#45;&gt;Node7 -->
<g id="edge6_Node000005_Node000007" class="edge">
<title>Node5&#45;&gt;Node7</title>
<g id="a_edge6_Node000005_Node000007"><a xlink:title=" ">
<path fill="none" stroke="#63b8ff" d="M349.05,-170.69C367.01,-162.87 392.31,-152.06 414.75,-143.17 418.62,-141.64 422.66,-140.07 426.72,-138.54"/>
<polygon fill="#63b8ff" stroke="#63b8ff" points="427.78,-141.88 435.92,-135.1 425.33,-135.32 427.78,-141.88"/>
</a>
</g>
</g>
<!-- Node9 -->
<g id="Node000009" class="node">
<title>Node9</title>
<g id="a_Node000009"><a xlink:href="../../d3/d07/a01985.html#ae1cfe678a10a9d0a4b04ad5ff64c43c9" target="_top" xlink:title="Returns the stored value.">
<polygon fill="white" stroke="#666666" points="520,-248.17 414.75,-248.17 414.75,-228.17 520,-228.17 520,-248.17"/>
<text text-anchor="middle" x="467.38" y="-234.67" font-family="Helvetica,sans-Serif" font-size="10.00">json::reader::readout</text>
</a>
</g>
</g>
<!-- Node5&#45;&gt;Node9 -->
<g id="edge8_Node000005_Node000009" class="edge">
<title>Node5&#45;&gt;Node9</title>
<g id="a_edge8_Node000005_Node000009"><a xlink:title=" ">
<path fill="none" stroke="#63b8ff" d="M349.05,-191.65C367.01,-199.46 392.31,-210.28 414.75,-219.17 418.62,-220.7 422.66,-222.26 426.72,-223.8"/>
<polygon fill="#63b8ff" stroke="#63b8ff" points="425.33,-227.01 435.92,-227.23 427.78,-220.46 425.33,-227.01"/>
</a>
</g>
</g>
<!-- Node5&#45;&gt;Node10 -->
<g id="edge9_Node000005_Node000010" class="edge">
<title>Node5&#45;&gt;Node10</title>
<g id="a_edge9_Node000005_Node000010"><a xlink:title=" ">
<path fill="none" stroke="#63b8ff" d="M356.07,-170.75C363.96,-167.2 372.1,-162.7 378.75,-157.17 400.37,-139.2 392.53,-122.38 414.75,-105.17 416.26,-104 417.84,-102.9 419.48,-101.87"/>
<polygon fill="#63b8ff" stroke="#63b8ff" points="420.85,-105.1 428.02,-97.31 417.55,-98.93 420.85,-105.1"/>
</a>
</g>
</g>
<!-- Node11 -->
<g id="Node000011" class="node">
<title>Node11</title>
<g id="a_Node000011"><a xlink:href="../../d3/d07/a01985.html#aec12648e76c0f529f892d89d4fabfe4c" target="_top" xlink:title="Checks the value.">
<polygon fill="white" stroke="#666666" points="513.25,-210.17 421.5,-210.17 421.5,-190.17 513.25,-190.17 513.25,-210.17"/>
<text text-anchor="middle" x="467.38" y="-196.67" font-family="Helvetica,sans-Serif" font-size="10.00">json::reader::type</text>
</a>
</g>
</g>
<!-- Node5&#45;&gt;Node11 -->
<g id="edge10_Node000005_Node000011" class="edge">
<title>Node5&#45;&gt;Node11</title>
<g id="a_edge10_Node000005_Node000011"><a xlink:title=" ">
<path fill="none" stroke="#63b8ff" d="M375.4,-187.92C386.57,-189.42 398.49,-191.03 409.9,-192.56"/>
<polygon fill="#63b8ff" stroke="#63b8ff" points="409.21,-196 419.59,-193.87 410.14,-189.07 409.21,-196"/>
</a>
</g>
</g>
<!-- Node7&#45;&gt;Node8 -->
<g id="edge7_Node000007_Node000008" class="edge">
<title>Node7&#45;&gt;Node8</title>
<g id="a_edge7_Node000007_Node000008"><a xlink:title=" ">
<path fill="none" stroke="#63b8ff" d="M514.8,-124.17C524.39,-124.17 534.58,-124.17 544.43,-124.17"/>
<polygon fill="#63b8ff" stroke="#63b8ff" points="544.27,-127.67 554.27,-124.17 544.27,-120.67 544.27,-127.67"/>
</a>
</g>
</g>
<!-- Node11&#45;&gt;Node8 -->
<g id="edge11_Node000011_Node000008" class="edge">
<title>Node11&#45;&gt;Node8</title>
<g id="a_edge11_Node000011_Node000008"><a xlink:title=" ">
<path fill="none" stroke="#63b8ff" d="M500.91,-189.73C507.38,-187.23 514.01,-184.35 520,-181.17 541.02,-169.99 562.81,-153.87 578.17,-141.62"/>
<polygon fill="#63b8ff" stroke="#63b8ff" points="580.11,-144.55 585.66,-135.53 575.7,-139.12 580.11,-144.55"/>
</a>
</g>
</g>
</g>
</svg>
