<?xml version="1.0" encoding="UTF-8" standalone="no"?>
<!DOCTYPE svg PUBLIC "-//W3C//DTD SVG 1.1//EN"
 "http://www.w3.org/Graphics/SVG/1.1/DTD/svg11.dtd">
<!-- Generated by graphviz version 10.0.1 (20240210.2158)
 -->
<!-- Title: C:/GitHub/GEU/GEU/Source/Core/FBORender.h Pages: 1 -->
<svg width="2746pt" height="336pt"
 viewBox="0.00 0.00 2746.32 336.00" xmlns="http://www.w3.org/2000/svg" xmlns:xlink="http://www.w3.org/1999/xlink">
<g id="graph0" class="graph" transform="scale(1 1) rotate(0) translate(4 332)">
<title>C:/GitHub/GEU/GEU/Source/Core/FBORender.h</title>
<!-- Node1 -->
<g id="Node000001" class="node">
<title>Node1</title>
<g id="a_Node000001"><a xlink:title=" ">
<polygon fill="#999999" stroke="#666666" points="618.32,-328 477.82,-328 477.82,-296 618.32,-296 618.32,-328"/>
<text text-anchor="start" x="485.82" y="-314.5" font-family="Helvetica,sans-Serif" font-size="10.00">C:/GitHub/GEU/GEU/Source</text>
<text text-anchor="middle" x="548.07" y="-302.5" font-family="Helvetica,sans-Serif" font-size="10.00">/Core/FBORender.h</text>
</a>
</g>
</g>
<!-- Node2 -->
<g id="Node000002" class="node">
<title>Node2</title>
<g id="a_Node000002"><a xlink:href="../../d6/da1/_f_b_o_render_8cpp.html" target="_top" xlink:title=" ">
<polygon fill="white" stroke="#666666" points="471.32,-260 330.82,-260 330.82,-228 471.32,-228 471.32,-260"/>
<text text-anchor="start" x="338.82" y="-246.5" font-family="Helvetica,sans-Serif" font-size="10.00">C:/GitHub/GEU/GEU/Source</text>
<text text-anchor="middle" x="401.07" y="-234.5" font-family="Helvetica,sans-Serif" font-size="10.00">/Core/FBORender.cpp</text>
</a>
</g>
</g>
<!-- Node1&#45;&gt;Node2 -->
<g id="edge1_Node000001_Node000002" class="edge">
<title>Node1&#45;&gt;Node2</title>
<g id="a_edge1_Node000001_Node000002"><a xlink:title=" ">
<path fill="none" stroke="#63b8ff" d="M503.29,-290.89C481.53,-281.12 455.79,-269.56 435.58,-260.49"/>
<polygon fill="#63b8ff" stroke="#63b8ff" points="501.67,-294 512.23,-294.91 504.54,-287.62 501.67,-294"/>
</a>
</g>
</g>
<!-- Node3 -->
<g id="Node000003" class="node">
<title>Node3</title>
<g id="a_Node000003"><a xlink:href="../../d3/da0/_renderer_8h.html" target="_top" xlink:title=" ">
<polygon fill="white" stroke="#666666" points="1288.32,-186 1147.82,-186 1147.82,-154 1288.32,-154 1288.32,-186"/>
<text text-anchor="start" x="1155.82" y="-172.5" font-family="Helvetica,sans-Serif" font-size="10.00">C:/GitHub/GEU/GEU/Source</text>
<text text-anchor="middle" x="1218.07" y="-160.5" font-family="Helvetica,sans-Serif" font-size="10.00">/Core/Renderer.h</text>
</a>
</g>
</g>
<!-- Node1&#45;&gt;Node3 -->
<g id="edge2_Node000001_Node000003" class="edge">
<title>Node1&#45;&gt;Node3</title>
<g id="a_edge2_Node000001_Node000003"><a xlink:title=" ">
<path fill="none" stroke="#63b8ff" d="M629.77,-293.93C762.36,-266.22 1022.15,-211.94 1147.33,-185.78"/>
<polygon fill="#63b8ff" stroke="#63b8ff" points="629.06,-290.5 619.99,-295.97 630.5,-297.35 629.06,-290.5"/>
</a>
</g>
</g>
<!-- Node25 -->
<g id="Node000025" class="node">
<title>Node25</title>
<g id="a_Node000025"><a xlink:href="../../d7/d00/_debug_window_8h.html" target="_top" xlink:title=" ">
<polygon fill="white" stroke="#666666" points="157.32,-186 16.82,-186 16.82,-154 157.32,-154 157.32,-186"/>
<text text-anchor="start" x="24.82" y="-172.5" font-family="Helvetica,sans-Serif" font-size="10.00">C:/GitHub/GEU/GEU/Source</text>
<text text-anchor="middle" x="87.07" y="-160.5" font-family="Helvetica,sans-Serif" font-size="10.00">/UI/DebugWindow.h</text>
</a>
</g>
</g>
<!-- Node1&#45;&gt;Node25 -->
<g id="edge26_Node000001_Node000025" class="edge">
<title>Node1&#45;&gt;Node25</title>
<g id="a_edge26_Node000001_Node000025"><a xlink:title=" ">
<path fill="none" stroke="#63b8ff" d="M534.61,-285.74C522.91,-266.49 504.07,-241.12 480.07,-228 358.75,-161.69 307.09,-216.82 171.07,-192 162.5,-190.43 153.5,-188.5 144.7,-186.45"/>
<polygon fill="#63b8ff" stroke="#63b8ff" points="531.57,-287.48 539.61,-294.38 537.63,-283.97 531.57,-287.48"/>
</a>
</g>
</g>
<!-- Node26 -->
<g id="Node000026" class="node">
<title>Node26</title>
<g id="a_Node000026"><a xlink:href="../../da/d5d/_g_u_i_8h.html" target="_top" xlink:title=" ">
<polygon fill="white" stroke="#666666" points="667.32,-260 526.82,-260 526.82,-228 667.32,-228 667.32,-260"/>
<text text-anchor="start" x="534.82" y="-246.5" font-family="Helvetica,sans-Serif" font-size="10.00">C:/GitHub/GEU/GEU/Source</text>
<text text-anchor="middle" x="597.07" y="-234.5" font-family="Helvetica,sans-Serif" font-size="10.00">/UI/GUI.h</text>
</a>
</g>
</g>
<!-- Node1&#45;&gt;Node26 -->
<g id="edge29_Node000001_Node000026" class="edge">
<title>Node1&#45;&gt;Node26</title>
<g id="a_edge29_Node000001_Node000026"><a xlink:title=" ">
<path fill="none" stroke="#63b8ff" d="M566.2,-286.59C572.76,-277.75 579.97,-268.04 585.77,-260.22"/>
<polygon fill="#63b8ff" stroke="#63b8ff" points="563.49,-284.36 560.34,-294.48 569.11,-288.53 563.49,-284.36"/>
</a>
</g>
</g>
<!-- Node4 -->
<g id="Node000004" class="node">
<title>Node4</title>
<g id="a_Node000004"><a xlink:href="../../d3/dee/_input_manager_8cpp.html" target="_top" xlink:title=" ">
<polygon fill="white" stroke="#666666" points="2163.32,-106 2022.82,-106 2022.82,-74 2163.32,-74 2163.32,-106"/>
<text text-anchor="start" x="2030.82" y="-92.5" font-family="Helvetica,sans-Serif" font-size="10.00">C:/GitHub/GEU/GEU/Source</text>
<text text-anchor="middle" x="2093.07" y="-80.5" font-family="Helvetica,sans-Serif" font-size="10.00">/Core/InputManager.cpp</text>
</a>
</g>
</g>
<!-- Node3&#45;&gt;Node4 -->
<g id="edge3_Node000003_Node000004" class="edge">
<title>Node3&#45;&gt;Node4</title>
<g id="a_edge3_Node000003_Node000004"><a xlink:title=" ">
<path fill="none" stroke="#63b8ff" d="M1300.18,-168.11C1445.08,-165.42 1755.22,-154.71 2013.07,-112 2021.72,-110.57 2030.78,-108.63 2039.58,-106.5"/>
<polygon fill="#63b8ff" stroke="#63b8ff" points="1300.23,-164.61 1290.29,-168.28 1300.35,-171.6 1300.23,-164.61"/>
</a>
</g>
</g>
<!-- Node5 -->
<g id="Node000005" class="node">
<title>Node5</title>
<g id="a_Node000005"><a xlink:href="../../d0/d00/_point_cloud_8cpp.html" target="_top" xlink:title=" ">
<polygon fill="white" stroke="#666666" points="2322.32,-106 2181.82,-106 2181.82,-74 2322.32,-74 2322.32,-106"/>
<text text-anchor="start" x="2189.82" y="-92.5" font-family="Helvetica,sans-Serif" font-size="10.00">C:/GitHub/GEU/GEU/Source</text>
<text text-anchor="middle" x="2252.07" y="-80.5" font-family="Helvetica,sans-Serif" font-size="10.00">/Core/PointCloud.cpp</text>
</a>
</g>
</g>
<!-- Node3&#45;&gt;Node5 -->
<g id="edge4_Node000003_Node000005" class="edge">
<title>Node3&#45;&gt;Node5</title>
<g id="a_edge4_Node000003_Node000005"><a xlink:title=" ">
<path fill="none" stroke="#63b8ff" d="M1299.67,-169.52C1465.24,-169.38 1852.14,-163.04 2172.07,-112 2180.87,-110.6 2190.09,-108.64 2199.03,-106.49"/>
<polygon fill="#63b8ff" stroke="#63b8ff" points="1300.12,-166.02 1290.12,-169.52 1300.12,-173.02 1300.12,-166.02"/>
</a>
</g>
</g>
<!-- Node6 -->
<g id="Node000006" class="node">
<title>Node6</title>
<g id="a_Node000006"><a xlink:href="../../da/d84/_renderer_8cpp.html" target="_top" xlink:title=" ">
<polygon fill="white" stroke="#666666" points="2481.32,-106 2340.82,-106 2340.82,-74 2481.32,-74 2481.32,-106"/>
<text text-anchor="start" x="2348.82" y="-92.5" font-family="Helvetica,sans-Serif" font-size="10.00">C:/GitHub/GEU/GEU/Source</text>
<text text-anchor="middle" x="2411.07" y="-80.5" font-family="Helvetica,sans-Serif" font-size="10.00">/Core/Renderer.cpp</text>
</a>
</g>
</g>
<!-- Node3&#45;&gt;Node6 -->
<g id="edge5_Node000003_Node000006" class="edge">
<title>Node3&#45;&gt;Node6</title>
<g id="a_edge5_Node000003_Node000006"><a xlink:title=" ">
<path fill="none" stroke="#63b8ff" d="M1299.79,-166.99C1521.71,-161.2 2132.22,-142.85 2331.07,-112 2340.01,-110.61 2349.4,-108.64 2358.47,-106.45"/>
<polygon fill="#63b8ff" stroke="#63b8ff" points="1299.99,-163.49 1290.08,-167.25 1300.17,-170.49 1299.99,-163.49"/>
</a>
</g>
</g>
<!-- Node7 -->
<g id="Node000007" class="node">
<title>Node7</title>
<g id="a_Node000007"><a xlink:href="../../de/d42/_window_8h.html" target="_top" xlink:title=" ">
<polygon fill="white" stroke="#666666" points="2677.32,-106 2536.82,-106 2536.82,-74 2677.32,-74 2677.32,-106"/>
<text text-anchor="start" x="2544.82" y="-92.5" font-family="Helvetica,sans-Serif" font-size="10.00">C:/GitHub/GEU/GEU/Source</text>
<text text-anchor="middle" x="2607.07" y="-80.5" font-family="Helvetica,sans-Serif" font-size="10.00">/Core/Window.h</text>
</a>
</g>
</g>
<!-- Node3&#45;&gt;Node7 -->
<g id="edge6_Node000003_Node000007" class="edge">
<title>Node3&#45;&gt;Node7</title>
<g id="a_edge6_Node000003_Node000007"><a xlink:title=" ">
<path fill="none" stroke="#63b8ff" d="M1300.22,-167.58C1547.99,-162.94 2285.45,-146.53 2523.07,-112 2532.45,-110.64 2542.29,-108.67 2551.81,-106.49"/>
<polygon fill="#63b8ff" stroke="#63b8ff" points="1300.24,-164.07 1290.31,-167.76 1300.37,-171.07 1300.24,-164.07"/>
</a>
</g>
</g>
<!-- Node9 -->
<g id="Node000009" class="node">
<title>Node9</title>
<g id="a_Node000009"><a xlink:href="../../df/d0a/main_8cpp.html" target="_top" xlink:title=" ">
<polygon fill="white" stroke="#666666" points="2579.32,-32 2438.82,-32 2438.82,0 2579.32,0 2579.32,-32"/>
<text text-anchor="start" x="2446.82" y="-18.5" font-family="Helvetica,sans-Serif" font-size="10.00">C:/GitHub/GEU/GEU/Source</text>
<text text-anchor="middle" x="2509.07" y="-6.5" font-family="Helvetica,sans-Serif" font-size="10.00">/main.cpp</text>
</a>
</g>
</g>
<!-- Node3&#45;&gt;Node9 -->
<g id="edge25_Node000003_Node000009" class="edge">
<title>Node3&#45;&gt;Node9</title>
<g id="a_edge25_Node000003_Node000009"><a xlink:title=" ">
<path fill="none" stroke="#63b8ff" d="M1300,-168.08C1574.17,-164.66 2444.88,-150.78 2490.07,-112 2512.92,-92.4 2513.11,-53.76 2511.15,-32.29"/>
<polygon fill="#63b8ff" stroke="#63b8ff" points="1300.03,-164.58 1290.08,-168.21 1300.12,-171.58 1300.03,-164.58"/>
</a>
</g>
</g>
<!-- Node10 -->
<g id="Node000010" class="node">
<title>Node10</title>
<g id="a_Node000010"><a xlink:href="../../d7/d4d/_normales_g_u_i_adapter_8cpp.html" target="_top" xlink:title=" ">
<polygon fill="white" stroke="#666666" points="724.57,-112 567.57,-112 567.57,-68 724.57,-68 724.57,-112"/>
<text text-anchor="start" x="575.57" y="-98.5" font-family="Helvetica,sans-Serif" font-size="10.00">C:/GitHub/GEU/GEU/Source</text>
<text text-anchor="start" x="575.57" y="-86.5" font-family="Helvetica,sans-Serif" font-size="10.00">/Modules/ComparacionNormales</text>
<text text-anchor="middle" x="646.07" y="-74.5" font-family="Helvetica,sans-Serif" font-size="10.00">/NormalesGUIAdapter.cpp</text>
</a>
</g>
</g>
<!-- Node3&#45;&gt;Node10 -->
<g id="edge9_Node000003_Node000010" class="edge">
<title>Node3&#45;&gt;Node10</title>
<g id="a_edge9_Node000003_Node000010"><a xlink:title=" ">
<path fill="none" stroke="#63b8ff" d="M1136.13,-162.3C1039.53,-153.71 874.36,-136.91 734.07,-112 730.98,-111.45 727.84,-110.86 724.66,-110.24"/>
<polygon fill="#63b8ff" stroke="#63b8ff" points="1135.79,-165.78 1146.06,-163.17 1136.4,-158.81 1135.79,-165.78"/>
</a>
</g>
</g>
<!-- Node11 -->
<g id="Node000011" class="node">
<title>Node11</title>
<g id="a_Node000011"><a xlink:href="../../d8/dd0/_multiespectral_g_u_i_adapter_8cpp.html" target="_top" xlink:title=" ">
<polygon fill="white" stroke="#666666" points="891.45,-112 742.7,-112 742.7,-68 891.45,-68 891.45,-112"/>
<text text-anchor="start" x="750.7" y="-98.5" font-family="Helvetica,sans-Serif" font-size="10.00">C:/GitHub/GEU/GEU/Source</text>
<text text-anchor="start" x="750.7" y="-86.5" font-family="Helvetica,sans-Serif" font-size="10.00">/Modules/Multiespectral</text>
<text text-anchor="middle" x="817.07" y="-74.5" font-family="Helvetica,sans-Serif" font-size="10.00">/MultiespectralGUIAdapter.cpp</text>
</a>
</g>
</g>
<!-- Node3&#45;&gt;Node11 -->
<g id="edge10_Node000003_Node000011" class="edge">
<title>Node3&#45;&gt;Node11</title>
<g id="a_edge10_Node000003_Node000011"><a xlink:title=" ">
<path fill="none" stroke="#63b8ff" d="M1136.36,-155.86C1072.16,-145.16 980.63,-129.08 901.07,-112 897.99,-111.34 894.84,-110.64 891.67,-109.92"/>
<polygon fill="#63b8ff" stroke="#63b8ff" points="1135.68,-159.29 1146.12,-157.48 1136.83,-152.39 1135.68,-159.29"/>
</a>
</g>
</g>
<!-- Node12 -->
<g id="Node000012" class="node">
<title>Node12</title>
<g id="a_Node000012"><a xlink:href="../../d2/dd0/_image_cloud_proj_8cpp.html" target="_top" xlink:title=" ">
<polygon fill="white" stroke="#666666" points="1050.32,-112 909.82,-112 909.82,-68 1050.32,-68 1050.32,-112"/>
<text text-anchor="start" x="917.82" y="-98.5" font-family="Helvetica,sans-Serif" font-size="10.00">C:/GitHub/GEU/GEU/Source</text>
<text text-anchor="start" x="917.82" y="-86.5" font-family="Helvetica,sans-Serif" font-size="10.00">/Modules/Reconstruccion</text>
<text text-anchor="middle" x="980.07" y="-74.5" font-family="Helvetica,sans-Serif" font-size="10.00">/ImageCloudProj.cpp</text>
</a>
</g>
</g>
<!-- Node3&#45;&gt;Node12 -->
<g id="edge11_Node000003_Node000012" class="edge">
<title>Node3&#45;&gt;Node12</title>
<g id="a_edge11_Node000003_Node000012"><a xlink:title=" ">
<path fill="none" stroke="#63b8ff" d="M1160.16,-150.02C1125.5,-138.66 1081.37,-124.2 1045.47,-112.43"/>
<polygon fill="#63b8ff" stroke="#63b8ff" points="1159.02,-153.33 1169.62,-153.12 1161.2,-146.68 1159.02,-153.33"/>
</a>
</g>
</g>
<!-- Node13 -->
<g id="Node000013" class="node">
<title>Node13</title>
<g id="a_Node000013"><a xlink:href="../../d5/d7a/_procedural_generator_8cpp.html" target="_top" xlink:title=" ">
<polygon fill="white" stroke="#666666" points="1209.32,-112 1068.82,-112 1068.82,-68 1209.32,-68 1209.32,-112"/>
<text text-anchor="start" x="1076.82" y="-98.5" font-family="Helvetica,sans-Serif" font-size="10.00">C:/GitHub/GEU/GEU/Source</text>
<text text-anchor="start" x="1076.82" y="-86.5" font-family="Helvetica,sans-Serif" font-size="10.00">/Modules/Reconstruccion</text>
<text text-anchor="middle" x="1139.07" y="-74.5" font-family="Helvetica,sans-Serif" font-size="10.00">/ProceduralGenerator.cpp</text>
</a>
</g>
</g>
<!-- Node3&#45;&gt;Node13 -->
<g id="edge12_Node000003_Node000013" class="edge">
<title>Node3&#45;&gt;Node13</title>
<g id="a_edge12_Node000003_Node000013"><a xlink:title=" ">
<path fill="none" stroke="#63b8ff" d="M1194.35,-145.57C1183.64,-135 1171.07,-122.59 1160.63,-112.28"/>
<polygon fill="#63b8ff" stroke="#63b8ff" points="1191.81,-147.99 1201.39,-152.53 1196.73,-143.01 1191.81,-147.99"/>
</a>
</g>
</g>
<!-- Node14 -->
<g id="Node000014" class="node">
<title>Node14</title>
<g id="a_Node000014"><a xlink:href="../../d3/d58/_camera_axis_window_8cpp.html" target="_top" xlink:title=" ">
<polygon fill="white" stroke="#666666" points="1368.32,-106 1227.82,-106 1227.82,-74 1368.32,-74 1368.32,-106"/>
<text text-anchor="start" x="1235.82" y="-92.5" font-family="Helvetica,sans-Serif" font-size="10.00">C:/GitHub/GEU/GEU/Source</text>
<text text-anchor="middle" x="1298.07" y="-80.5" font-family="Helvetica,sans-Serif" font-size="10.00">/UI/CameraAxisWindow.cpp</text>
</a>
</g>
</g>
<!-- Node3&#45;&gt;Node14 -->
<g id="edge13_Node000003_Node000014" class="edge">
<title>Node3&#45;&gt;Node14</title>
<g id="a_edge13_Node000003_Node000014"><a xlink:title=" ">
<path fill="none" stroke="#63b8ff" d="M1241.98,-145.69C1255.02,-132.97 1270.81,-117.59 1282.3,-106.38"/>
<polygon fill="#63b8ff" stroke="#63b8ff" points="1239.68,-143.05 1234.96,-152.53 1244.57,-148.06 1239.68,-143.05"/>
</a>
</g>
</g>
<!-- Node15 -->
<g id="Node000015" class="node">
<title>Node15</title>
<g id="a_Node000015"><a xlink:href="../../d0/d1c/_debug_window_8cpp.html" target="_top" xlink:title=" ">
<polygon fill="white" stroke="#666666" points="157.32,-106 16.82,-106 16.82,-74 157.32,-74 157.32,-106"/>
<text text-anchor="start" x="24.82" y="-92.5" font-family="Helvetica,sans-Serif" font-size="10.00">C:/GitHub/GEU/GEU/Source</text>
<text text-anchor="middle" x="87.07" y="-80.5" font-family="Helvetica,sans-Serif" font-size="10.00">/UI/DebugWindow.cpp</text>
</a>
</g>
</g>
<!-- Node3&#45;&gt;Node15 -->
<g id="edge14_Node000003_Node000015" class="edge">
<title>Node3&#45;&gt;Node15</title>
<g id="a_edge14_Node000003_Node000015"><a xlink:title=" ">
<path fill="none" stroke="#63b8ff" d="M1136.13,-164.97C911.29,-153.82 295.41,-122.72 204.07,-112 189.01,-110.23 172.95,-107.75 157.71,-105.1"/>
<polygon fill="#63b8ff" stroke="#63b8ff" points="1135.82,-168.46 1145.98,-165.46 1136.17,-161.47 1135.82,-168.46"/>
</a>
</g>
</g>
<!-- Node16 -->
<g id="Node000016" class="node">
<title>Node16</title>
<g id="a_Node000016"><a xlink:href="../../d1/dfc/_details_window_8h.html" target="_top" xlink:title=" ">
<polygon fill="white" stroke="#666666" points="549.32,-106 408.82,-106 408.82,-74 549.32,-74 549.32,-106"/>
<text text-anchor="start" x="416.82" y="-92.5" font-family="Helvetica,sans-Serif" font-size="10.00">C:/GitHub/GEU/GEU/Source</text>
<text text-anchor="middle" x="479.07" y="-80.5" font-family="Helvetica,sans-Serif" font-size="10.00">/UI/DetailsWindow.h</text>
</a>
</g>
</g>
<!-- Node3&#45;&gt;Node16 -->
<g id="edge15_Node000003_Node000016" class="edge">
<title>Node3&#45;&gt;Node16</title>
<g id="a_edge15_Node000003_Node000016"><a xlink:title=" ">
<path fill="none" stroke="#63b8ff" d="M1135.98,-166.39C1010.74,-161.4 764.81,-147.63 559.07,-112 550.59,-110.53 541.68,-108.6 533.02,-106.49"/>
<polygon fill="#63b8ff" stroke="#63b8ff" points="1135.71,-169.88 1145.83,-166.77 1135.98,-162.89 1135.71,-169.88"/>
</a>
</g>
</g>
<!-- Node18 -->
<g id="Node000018" class="node">
<title>Node18</title>
<g id="a_Node000018"><a xlink:href="../../d3/d27/_g_u_i_8cpp.html" target="_top" xlink:title=" ">
<polygon fill="white" stroke="#666666" points="289.32,-32 148.82,-32 148.82,0 289.32,0 289.32,-32"/>
<text text-anchor="start" x="156.82" y="-18.5" font-family="Helvetica,sans-Serif" font-size="10.00">C:/GitHub/GEU/GEU/Source</text>
<text text-anchor="middle" x="219.07" y="-6.5" font-family="Helvetica,sans-Serif" font-size="10.00">/UI/GUI.cpp</text>
</a>
</g>
</g>
<!-- Node3&#45;&gt;Node18 -->
<g id="edge19_Node000003_Node000018" class="edge">
<title>Node3&#45;&gt;Node18</title>
<g id="a_edge19_Node000003_Node000018"><a xlink:title=" ">
<path fill="none" stroke="#63b8ff" d="M1136.12,-164.99C935.3,-154.93 432.62,-128.29 400.07,-112 376.97,-100.44 383.39,-82.6 362.07,-68 338.7,-51.99 309.74,-40.43 284.01,-32.41"/>
<polygon fill="#63b8ff" stroke="#63b8ff" points="1135.79,-168.48 1145.96,-165.48 1136.14,-161.49 1135.79,-168.48"/>
</a>
</g>
</g>
<!-- Node20 -->
<g id="Node000020" class="node">
<title>Node20</title>
<g id="a_Node000020"><a xlink:href="../../df/da0/_inspector_window_8cpp.html" target="_top" xlink:title=" ">
<polygon fill="white" stroke="#666666" points="1527.32,-106 1386.82,-106 1386.82,-74 1527.32,-74 1527.32,-106"/>
<text text-anchor="start" x="1394.82" y="-92.5" font-family="Helvetica,sans-Serif" font-size="10.00">C:/GitHub/GEU/GEU/Source</text>
<text text-anchor="middle" x="1457.07" y="-80.5" font-family="Helvetica,sans-Serif" font-size="10.00">/UI/InspectorWindow.cpp</text>
</a>
</g>
</g>
<!-- Node3&#45;&gt;Node20 -->
<g id="edge20_Node000003_Node000020" class="edge">
<title>Node3&#45;&gt;Node20</title>
<g id="a_edge20_Node000003_Node000020"><a xlink:title=" ">
<path fill="none" stroke="#63b8ff" d="M1276.23,-150.02C1317.29,-136.62 1371.6,-118.9 1409.95,-106.38"/>
<polygon fill="#63b8ff" stroke="#63b8ff" points="1275.15,-146.69 1266.73,-153.12 1277.32,-153.34 1275.15,-146.69"/>
</a>
</g>
</g>
<!-- Node21 -->
<g id="Node000021" class="node">
<title>Node21</title>
<g id="a_Node000021"><a xlink:href="../../dc/d71/_picking_window_8cpp.html" target="_top" xlink:title=" ">
<polygon fill="white" stroke="#666666" points="1686.32,-106 1545.82,-106 1545.82,-74 1686.32,-74 1686.32,-106"/>
<text text-anchor="start" x="1553.82" y="-92.5" font-family="Helvetica,sans-Serif" font-size="10.00">C:/GitHub/GEU/GEU/Source</text>
<text text-anchor="middle" x="1616.07" y="-80.5" font-family="Helvetica,sans-Serif" font-size="10.00">/UI/PickingWindow.cpp</text>
</a>
</g>
</g>
<!-- Node3&#45;&gt;Node21 -->
<g id="edge21_Node000003_Node000021" class="edge">
<title>Node3&#45;&gt;Node21</title>
<g id="a_edge21_Node000003_Node000021"><a xlink:title=" ">
<path fill="none" stroke="#63b8ff" d="M1300.11,-156.13C1364.54,-145.59 1456.37,-129.57 1536.07,-112 1543.65,-110.33 1551.58,-108.43 1559.4,-106.47"/>
<polygon fill="#63b8ff" stroke="#63b8ff" points="1299.61,-152.67 1290.3,-157.73 1300.74,-159.58 1299.61,-152.67"/>
</a>
</g>
</g>
<!-- Node22 -->
<g id="Node000022" class="node">
<title>Node22</title>
<g id="a_Node000022"><a xlink:href="../../d5/dbd/_stats_window_8cpp.html" target="_top" xlink:title=" ">
<polygon fill="white" stroke="#666666" points="1845.32,-106 1704.82,-106 1704.82,-74 1845.32,-74 1845.32,-106"/>
<text text-anchor="start" x="1712.82" y="-92.5" font-family="Helvetica,sans-Serif" font-size="10.00">C:/GitHub/GEU/GEU/Source</text>
<text text-anchor="middle" x="1775.07" y="-80.5" font-family="Helvetica,sans-Serif" font-size="10.00">/UI/StatsWindow.cpp</text>
</a>
</g>
</g>
<!-- Node3&#45;&gt;Node22 -->
<g id="edge22_Node000003_Node000022" class="edge">
<title>Node3&#45;&gt;Node22</title>
<g id="a_edge22_Node000003_Node000022"><a xlink:title=" ">
<path fill="none" stroke="#63b8ff" d="M1299.75,-162.69C1395.16,-154.52 1557.49,-138.15 1695.07,-112 1703.26,-110.44 1711.84,-108.52 1720.22,-106.46"/>
<polygon fill="#63b8ff" stroke="#63b8ff" points="1299.63,-159.19 1289.96,-163.52 1300.22,-166.16 1299.63,-159.19"/>
</a>
</g>
</g>
<!-- Node23 -->
<g id="Node000023" class="node">
<title>Node23</title>
<g id="a_Node000023"><a xlink:href="../../d5/d1f/_auto_updater_8cpp.html" target="_top" xlink:title=" ">
<polygon fill="white" stroke="#666666" points="353.32,-106 212.82,-106 212.82,-74 353.32,-74 353.32,-106"/>
<text text-anchor="start" x="220.82" y="-92.5" font-family="Helvetica,sans-Serif" font-size="10.00">C:/GitHub/GEU/GEU/Source</text>
<text text-anchor="middle" x="283.07" y="-80.5" font-family="Helvetica,sans-Serif" font-size="10.00">/Utilities/AutoUpdater.cpp</text>
</a>
</g>
</g>
<!-- Node3&#45;&gt;Node23 -->
<g id="edge23_Node000003_Node000023" class="edge">
<title>Node3&#45;&gt;Node23</title>
<g id="a_edge23_Node000003_Node000023"><a xlink:title=" ">
<path fill="none" stroke="#63b8ff" d="M1136.35,-164.36C937.97,-152.97 441.69,-123.73 367.07,-112 357.87,-110.55 348.19,-108.57 338.82,-106.41"/>
<polygon fill="#63b8ff" stroke="#63b8ff" points="1135.87,-167.84 1146.05,-164.91 1136.27,-160.85 1135.87,-167.84"/>
</a>
</g>
</g>
<!-- Node24 -->
<g id="Node000024" class="node">
<title>Node24</title>
<g id="a_Node000024"><a xlink:href="../../d3/d93/_file_manager_8cpp.html" target="_top" xlink:title=" ">
<polygon fill="white" stroke="#666666" points="2004.32,-106 1863.82,-106 1863.82,-74 2004.32,-74 2004.32,-106"/>
<text text-anchor="start" x="1871.82" y="-92.5" font-family="Helvetica,sans-Serif" font-size="10.00">C:/GitHub/GEU/GEU/Source</text>
<text text-anchor="middle" x="1934.07" y="-80.5" font-family="Helvetica,sans-Serif" font-size="10.00">/Utilities/FileManager.cpp</text>
</a>
</g>
</g>
<!-- Node3&#45;&gt;Node24 -->
<g id="edge24_Node000003_Node000024" class="edge">
<title>Node3&#45;&gt;Node24</title>
<g id="a_edge24_Node000003_Node000024"><a xlink:title=" ">
<path fill="none" stroke="#63b8ff" d="M1300.11,-166.03C1421.81,-160.65 1657.04,-146.44 1854.07,-112 1862.56,-110.52 1871.47,-108.57 1880.12,-106.47"/>
<polygon fill="#63b8ff" stroke="#63b8ff" points="1300.04,-162.53 1290.2,-166.46 1300.35,-169.53 1300.04,-162.53"/>
</a>
</g>
</g>
<!-- Node8 -->
<g id="Node000008" class="node">
<title>Node8</title>
<g id="a_Node000008"><a xlink:href="../../d3/db8/_window_8cpp.html" target="_top" xlink:title=" ">
<polygon fill="white" stroke="#666666" points="2738.32,-32 2597.82,-32 2597.82,0 2738.32,0 2738.32,-32"/>
<text text-anchor="start" x="2605.82" y="-18.5" font-family="Helvetica,sans-Serif" font-size="10.00">C:/GitHub/GEU/GEU/Source</text>
<text text-anchor="middle" x="2668.07" y="-6.5" font-family="Helvetica,sans-Serif" font-size="10.00">/Core/Window.cpp</text>
</a>
</g>
</g>
<!-- Node7&#45;&gt;Node8 -->
<g id="edge7_Node000007_Node000008" class="edge">
<title>Node7&#45;&gt;Node8</title>
<g id="a_edge7_Node000007_Node000008"><a xlink:title=" ">
<path fill="none" stroke="#63b8ff" d="M2627.31,-65.12C2636.49,-54.28 2647.07,-41.79 2655.16,-32.25"/>
<polygon fill="#63b8ff" stroke="#63b8ff" points="2624.78,-62.68 2620.99,-72.58 2630.12,-67.21 2624.78,-62.68"/>
</a>
</g>
</g>
<!-- Node7&#45;&gt;Node9 -->
<g id="edge8_Node000007_Node000009" class="edge">
<title>Node7&#45;&gt;Node9</title>
<g id="a_edge8_Node000007_Node000009"><a xlink:title=" ">
<path fill="none" stroke="#63b8ff" d="M2577.26,-67.1C2562.05,-55.92 2543.91,-42.59 2530.17,-32.5"/>
<polygon fill="#63b8ff" stroke="#63b8ff" points="2574.94,-69.73 2585.07,-72.83 2579.09,-64.09 2574.94,-69.73"/>
</a>
</g>
</g>
<!-- Node17 -->
<g id="Node000017" class="node">
<title>Node17</title>
<g id="a_Node000017"><a xlink:href="../../df/d72/_details_window_8cpp.html" target="_top" xlink:title=" ">
<polygon fill="white" stroke="#666666" points="641.32,-32 500.82,-32 500.82,0 641.32,0 641.32,-32"/>
<text text-anchor="start" x="508.82" y="-18.5" font-family="Helvetica,sans-Serif" font-size="10.00">C:/GitHub/GEU/GEU/Source</text>
<text text-anchor="middle" x="571.07" y="-6.5" font-family="Helvetica,sans-Serif" font-size="10.00">/UI/DetailsWindow.cpp</text>
</a>
</g>
</g>
<!-- Node16&#45;&gt;Node17 -->
<g id="edge16_Node000016_Node000017" class="edge">
<title>Node16&#45;&gt;Node17</title>
<g id="a_edge16_Node000016_Node000017"><a xlink:title=" ">
<path fill="none" stroke="#63b8ff" d="M507.46,-66.78C521.66,-55.67 538.49,-42.5 551.28,-32.5"/>
<polygon fill="#63b8ff" stroke="#63b8ff" points="505.5,-63.88 499.78,-72.8 509.81,-69.39 505.5,-63.88"/>
</a>
</g>
</g>
<!-- Node16&#45;&gt;Node18 -->
<g id="edge17_Node000016_Node000018" class="edge">
<title>Node16&#45;&gt;Node18</title>
<g id="a_edge17_Node000016_Node000018"><a xlink:title=" ">
<path fill="none" stroke="#63b8ff" d="M412.45,-70.55C369.8,-58.74 315.09,-43.59 274.76,-32.42"/>
<polygon fill="#63b8ff" stroke="#63b8ff" points="411.27,-73.85 421.84,-73.15 413.14,-67.11 411.27,-73.85"/>
</a>
</g>
</g>
<!-- Node19 -->
<g id="Node000019" class="node">
<title>Node19</title>
<g id="a_Node000019"><a xlink:href="../../de/d32/_materials_window_8cpp.html" target="_top" xlink:title=" ">
<polygon fill="white" stroke="#666666" points="482.32,-32 341.82,-32 341.82,0 482.32,0 482.32,-32"/>
<text text-anchor="start" x="349.82" y="-18.5" font-family="Helvetica,sans-Serif" font-size="10.00">C:/GitHub/GEU/GEU/Source</text>
<text text-anchor="middle" x="412.07" y="-6.5" font-family="Helvetica,sans-Serif" font-size="10.00">/UI/MaterialsWindow.cpp</text>
</a>
</g>
</g>
<!-- Node16&#45;&gt;Node19 -->
<g id="edge18_Node000016_Node000019" class="edge">
<title>Node16&#45;&gt;Node19</title>
<g id="a_edge18_Node000016_Node000019"><a xlink:title=" ">
<path fill="none" stroke="#63b8ff" d="M457.15,-65.44C447,-54.53 435.23,-41.88 426.26,-32.25"/>
<polygon fill="#63b8ff" stroke="#63b8ff" points="454.46,-67.69 463.83,-72.62 459.58,-62.92 454.46,-67.69"/>
</a>
</g>
</g>
<!-- Node25&#45;&gt;Node15 -->
<g id="edge27_Node000025_Node000015" class="edge">
<title>Node25&#45;&gt;Node15</title>
<g id="a_edge27_Node000025_Node000015"><a xlink:title=" ">
<path fill="none" stroke="#63b8ff" d="M87.07,-142.37C87.07,-130.37 87.07,-116.63 87.07,-106.38"/>
<polygon fill="#63b8ff" stroke="#63b8ff" points="83.57,-142.08 87.07,-152.08 90.57,-142.08 83.57,-142.08"/>
</a>
</g>
</g>
<!-- Node25&#45;&gt;Node18 -->
<g id="edge28_Node000025_Node000018" class="edge">
<title>Node25&#45;&gt;Node18</title>
<g id="a_edge28_Node000025_Node000018"><a xlink:title=" ">
<path fill="none" stroke="#63b8ff" d="M43.04,-147.83C29.28,-138.84 15.71,-126.92 8.07,-112 -0.83,-94.59 -4.02,-83.37 8.07,-68 25.44,-45.94 94.07,-32.28 148.41,-24.72"/>
<polygon fill="#63b8ff" stroke="#63b8ff" points="40.87,-150.61 51.23,-152.81 44.5,-144.63 40.87,-150.61"/>
</a>
</g>
</g>
<!-- Node26&#45;&gt;Node3 -->
<g id="edge30_Node000026_Node000003" class="edge">
<title>Node26&#45;&gt;Node3</title>
<g id="a_edge30_Node000026_Node000003"><a xlink:title=" ">
<path fill="none" stroke="#63b8ff" d="M678.89,-233.51C801.7,-219.27 1031.64,-192.62 1147.51,-179.18"/>
<polygon fill="#63b8ff" stroke="#63b8ff" points="678.74,-230.01 669.21,-234.64 679.55,-236.96 678.74,-230.01"/>
</a>
</g>
</g>
<!-- Node26&#45;&gt;Node18 -->
<g id="edge34_Node000026_Node000018" class="edge">
<title>Node26&#45;&gt;Node18</title>
<g id="a_edge34_Node000026_Node000018"><a xlink:title=" ">
<path fill="none" stroke="#63b8ff" d="M515.41,-228.64C513.96,-228.42 512.51,-228.21 511.07,-228 443.1,-218.09 249.73,-243.32 204.07,-192 163.74,-146.66 195.18,-66.06 211.18,-32.42"/>
<polygon fill="#63b8ff" stroke="#63b8ff" points="514.81,-232.09 525.23,-230.17 515.89,-225.17 514.81,-232.09"/>
</a>
</g>
</g>
<!-- Node26&#45;&gt;Node23 -->
<g id="edge35_Node000026_Node000023" class="edge">
<title>Node26&#45;&gt;Node23</title>
<g id="a_edge35_Node000026_Node000023"><a xlink:title=" ">
<path fill="none" stroke="#63b8ff" d="M678.76,-231.27C724.2,-222.89 774.31,-209.92 788.07,-192 799.99,-176.49 801.3,-162.4 788.07,-148 756.32,-113.42 413.38,-119.72 367.07,-112 358.18,-110.52 348.84,-108.58 339.75,-106.47"/>
<polygon fill="#63b8ff" stroke="#63b8ff" points="678.36,-227.79 669.12,-232.99 679.58,-234.68 678.36,-227.79"/>
</a>
</g>
</g>
<!-- Node27 -->
<g id="Node000027" class="node">
<title>Node27</title>
<g id="a_Node000027"><a xlink:href="../../dc/d52/_tree_segmentation_g_u_i_adapter_8cpp.html" target="_top" xlink:title=" ">
<polygon fill="white" stroke="#666666" points="379.45,-192 212.7,-192 212.7,-148 379.45,-148 379.45,-192"/>
<text text-anchor="start" x="220.7" y="-178.5" font-family="Helvetica,sans-Serif" font-size="10.00">C:/GitHub/GEU/GEU/Source</text>
<text text-anchor="start" x="220.7" y="-166.5" font-family="Helvetica,sans-Serif" font-size="10.00">/Modules/SegmentacionIndiv</text>
<text text-anchor="middle" x="296.07" y="-154.5" font-family="Helvetica,sans-Serif" font-size="10.00">/TreeSegmentationGUIAdapter.cpp</text>
</a>
</g>
</g>
<!-- Node26&#45;&gt;Node27 -->
<g id="edge31_Node000026_Node000027" class="edge">
<title>Node26&#45;&gt;Node27</title>
<g id="a_edge31_Node000026_Node000027"><a xlink:title=" ">
<path fill="none" stroke="#63b8ff" d="M521.5,-224.92C478.34,-214.6 424.15,-201.64 379.72,-191.01"/>
<polygon fill="#63b8ff" stroke="#63b8ff" points="520.49,-228.28 531.03,-227.2 522.12,-221.47 520.49,-228.28"/>
</a>
</g>
</g>
<!-- Node28 -->
<g id="Node000028" class="node">
<title>Node28</title>
<g id="a_Node000028"><a xlink:href="../../d0/df8/_thermal_g_u_i_adapter_8cpp.html" target="_top" xlink:title=" ">
<polygon fill="white" stroke="#666666" points="596.95,-186 397.2,-186 397.2,-154 596.95,-154 596.95,-186"/>
<text text-anchor="start" x="405.2" y="-172.5" font-family="Helvetica,sans-Serif" font-size="10.00">C:/GitHub/GEU/GEU/Source</text>
<text text-anchor="middle" x="497.07" y="-160.5" font-family="Helvetica,sans-Serif" font-size="10.00">/Modules/Termica/ThermalGUIAdapter.cpp</text>
</a>
</g>
</g>
<!-- Node26&#45;&gt;Node28 -->
<g id="edge32_Node000026_Node000028" class="edge">
<title>Node26&#45;&gt;Node28</title>
<g id="a_edge32_Node000026_Node000028"><a xlink:title=" ">
<path fill="none" stroke="#63b8ff" d="M566.66,-221.1C551.13,-209.92 532.62,-196.59 518.6,-186.5"/>
<polygon fill="#63b8ff" stroke="#63b8ff" points="564.48,-223.84 574.64,-226.85 568.57,-218.16 564.48,-223.84"/>
</a>
</g>
</g>
<!-- Node29 -->
<g id="Node000029" class="node">
<title>Node29</title>
<g id="a_Node000029"><a xlink:href="../../d3/d62/_database_new_dato_window_8cpp.html" target="_top" xlink:title=" ">
<polygon fill="white" stroke="#666666" points="779.32,-186 614.82,-186 614.82,-154 779.32,-154 779.32,-186"/>
<text text-anchor="start" x="622.82" y="-172.5" font-family="Helvetica,sans-Serif" font-size="10.00">C:/GitHub/GEU/GEU/Source</text>
<text text-anchor="middle" x="697.07" y="-160.5" font-family="Helvetica,sans-Serif" font-size="10.00">/UI/DatabaseNewDatoWindow.cpp</text>
</a>
</g>
</g>
<!-- Node26&#45;&gt;Node29 -->
<g id="edge33_Node000026_Node000029" class="edge">
<title>Node26&#45;&gt;Node29</title>
<g id="a_edge33_Node000026_Node000029"><a xlink:title=" ">
<path fill="none" stroke="#63b8ff" d="M627.49,-221.1C643.02,-209.92 661.53,-196.59 675.55,-186.5"/>
<polygon fill="#63b8ff" stroke="#63b8ff" points="625.58,-218.16 619.51,-226.85 629.67,-223.84 625.58,-218.16"/>
</a>
</g>
</g>
</g>
</svg>
