<?xml version="1.0" encoding="UTF-8" standalone="no"?>
<!DOCTYPE svg PUBLIC "-//W3C//DTD SVG 1.1//EN"
 "http://www.w3.org/Graphics/SVG/1.1/DTD/svg11.dtd">
<!-- Generated by graphviz version 10.0.1 (20240210.2158)
 -->
<!-- Title: GEU::MultiespectralGUIAdapter Pages: 1 -->
<svg width="162pt" height="234pt"
 viewBox="0.00 0.00 162.00 234.00" xmlns="http://www.w3.org/2000/svg" xmlns:xlink="http://www.w3.org/1999/xlink">
<g id="graph0" class="graph" transform="scale(1 1) rotate(0) translate(4 230)">
<title>GEU::MultiespectralGUIAdapter</title>
<!-- Node1 -->
<g id="Node000001" class="node">
<title>Node1</title>
<g id="a_Node000001"><a xlink:title=" ">
<polygon fill="#999999" stroke="#666666" points="154,-20 0,-20 0,0 154,0 154,-20"/>
<text text-anchor="middle" x="77" y="-6.5" font-family="Helvetica,sans-Serif" font-size="10.00">GEU::MultiespectralGUIAdapter</text>
</a>
</g>
</g>
<!-- Node2 -->
<g id="Node000002" class="node">
<title>Node2</title>
<g id="a_Node000002"><a xlink:href="../../d8/d88/class_g_e_u_1_1_interface_adapter.html" target="_top" xlink:title="Adapter pattern for GUI windows and functionality.">
<polygon fill="white" stroke="#666666" points="133.75,-77 20.25,-77 20.25,-57 133.75,-57 133.75,-77"/>
<text text-anchor="middle" x="77" y="-63.5" font-family="Helvetica,sans-Serif" font-size="10.00">GEU::InterfaceAdapter</text>
</a>
</g>
</g>
<!-- Node2&#45;&gt;Node1 -->
<g id="edge1_Node000001_Node000002" class="edge">
<title>Node2&#45;&gt;Node1</title>
<g id="a_edge1_Node000001_Node000002"><a xlink:title=" ">
<path fill="none" stroke="#63b8ff" d="M77,-45.69C77,-36.97 77,-27.22 77,-20.28"/>
<polygon fill="#63b8ff" stroke="#63b8ff" points="73.5,-45.4 77,-55.4 80.5,-45.4 73.5,-45.4"/>
</a>
</g>
</g>
<!-- Node3 -->
<g id="Node000003" class="node">
<title>Node3</title>
<g id="a_Node000003"><a xlink:title=" ">
<polygon fill="white" stroke="#666666" points="106.75,-157 47.25,-157 47.25,-137 106.75,-137 106.75,-157"/>
<text text-anchor="middle" x="77" y="-143.5" font-family="Helvetica,sans-Serif" font-size="10.00">std::string</text>
</a>
</g>
</g>
<!-- Node3&#45;&gt;Node2 -->
<g id="edge2_Node000002_Node000003" class="edge">
<title>Node3&#45;&gt;Node2</title>
<g id="a_edge2_Node000002_Node000003"><a xlink:title=" ">
<path fill="none" stroke="#9a32cd" stroke-dasharray="5,2" d="M77,-125.59C77,-109.94 77,-89.08 77,-77.24"/>
<polygon fill="#9a32cd" stroke="#9a32cd" points="73.5,-125.23 77,-135.23 80.5,-125.23 73.5,-125.23"/>
</a>
</g>
<text text-anchor="middle" x="99.5" y="-109.5" font-family="Helvetica,sans-Serif" font-size="10.00" fill="grey"> _icon</text>
<text text-anchor="middle" x="99.5" y="-97.5" font-family="Helvetica,sans-Serif" font-size="10.00" fill="grey">_methodId</text>
</g>
<!-- Node4 -->
<g id="Node000004" class="node">
<title>Node4</title>
<g id="a_Node000004"><a xlink:title=" ">
<polygon fill="white" stroke="#666666" points="124,-226 30,-226 30,-194 124,-194 124,-226"/>
<text text-anchor="start" x="38" y="-212.5" font-family="Helvetica,sans-Serif" font-size="10.00">std::basic_string&lt;</text>
<text text-anchor="middle" x="77" y="-200.5" font-family="Helvetica,sans-Serif" font-size="10.00"> Char &gt;</text>
</a>
</g>
</g>
<!-- Node4&#45;&gt;Node3 -->
<g id="edge3_Node000003_Node000004" class="edge">
<title>Node4&#45;&gt;Node3</title>
<g id="a_edge3_Node000003_Node000004"><a xlink:title=" ">
<path fill="none" stroke="#63b8ff" d="M77,-182.36C77,-173.41 77,-164.01 77,-157.31"/>
<polygon fill="#63b8ff" stroke="#63b8ff" points="73.5,-182.09 77,-192.09 80.5,-182.09 73.5,-182.09"/>
</a>
</g>
</g>
</g>
</svg>
