<?xml version="1.0" encoding="UTF-8" standalone="no"?>
<!DOCTYPE svg PUBLIC "-//W3C//DTD SVG 1.1//EN"
 "http://www.w3.org/Graphics/SVG/1.1/DTD/svg11.dtd">
<!-- Generated by graphviz version 10.0.1 (20240210.2158)
 -->
<!-- Title: GEU::InspectorWindow::renderWindow Pages: 1 -->
<svg width="605pt" height="960pt"
 viewBox="0.00 0.00 605.25 960.00" xmlns="http://www.w3.org/2000/svg" xmlns:xlink="http://www.w3.org/1999/xlink">
<g id="graph0" class="graph" transform="scale(1 1) rotate(0) translate(4 956)">
<title>GEU::InspectorWindow::renderWindow</title>
<!-- Node1 -->
<g id="Node000001" class="node">
<title>Node1</title>
<g id="a_Node000001"><a xlink:title="Renders the window and contents.">
<polygon fill="#999999" stroke="#666666" points="117.25,-448 0,-448 0,-416 117.25,-416 117.25,-448"/>
<text text-anchor="start" x="8" y="-434.5" font-family="Helvetica,sans-Serif" font-size="10.00">GEU::InspectorWindow</text>
<text text-anchor="middle" x="58.62" y="-422.5" font-family="Helvetica,sans-Serif" font-size="10.00">::renderWindow</text>
</a>
</g>
</g>
<!-- Node2 -->
<g id="Node000002" class="node">
<title>Node2</title>
<g id="a_Node000002"><a xlink:href="../../dc/d06/a01517.html#a145cba04d26c27bbf9a685fc443e8bd9" target="_top" xlink:title="Inserts new simple camera to current scene.">
<polygon fill="white" stroke="#666666" points="311,-952 173.5,-952 173.5,-932 311,-932 311,-952"/>
<text text-anchor="middle" x="242.25" y="-938.5" font-family="Helvetica,sans-Serif" font-size="10.00">GEU::Renderer::addCamera</text>
</a>
</g>
</g>
<!-- Node1&#45;&gt;Node2 -->
<g id="edge1_Node000001_Node000002" class="edge">
<title>Node1&#45;&gt;Node2</title>
<g id="a_edge1_Node000001_Node000002"><a xlink:title=" ">
<path fill="none" stroke="#63b8ff" d="M60.38,-448.27C64.32,-525.34 84.91,-852.98 153.25,-923 156.21,-926.03 159.53,-928.63 163.09,-930.86"/>
<polygon fill="#63b8ff" stroke="#63b8ff" points="161.2,-933.83 171.7,-935.25 164.38,-927.59 161.2,-933.83"/>
</a>
</g>
</g>
<!-- Node3 -->
<g id="Node000003" class="node">
<title>Node3</title>
<g id="a_Node000003"><a xlink:href="../../dc/d06/a01517.html#aeba2d231789d19e3a4ccbee34d1af251" target="_top" xlink:title="Inserts new simple light to current scene.">
<polygon fill="white" stroke="#666666" points="304.62,-914 179.88,-914 179.88,-894 304.62,-894 304.62,-914"/>
<text text-anchor="middle" x="242.25" y="-900.5" font-family="Helvetica,sans-Serif" font-size="10.00">GEU::Renderer::addLight</text>
</a>
</g>
</g>
<!-- Node1&#45;&gt;Node3 -->
<g id="edge2_Node000001_Node000003" class="edge">
<title>Node1&#45;&gt;Node3</title>
<g id="a_edge2_Node000001_Node000003"><a xlink:title=" ">
<path fill="none" stroke="#63b8ff" d="M60.68,-448.47C65.74,-522.2 89.93,-821.12 153.25,-885 157.9,-889.69 163.42,-893.35 169.39,-896.2"/>
<polygon fill="#63b8ff" stroke="#63b8ff" points="167.78,-899.33 178.37,-899.7 170.32,-892.81 167.78,-899.33"/>
</a>
</g>
</g>
<!-- Node4 -->
<g id="Node000004" class="node">
<title>Node4</title>
<g id="a_Node000004"><a xlink:href="../../d5/d06/a01773.html#a7b3101bbac98cc31f1d02eea41cda857" target="_top" xlink:title="Inserts new popup window to queue.">
<polygon fill="white" stroke="#666666" points="296.75,-876 187.75,-876 187.75,-856 296.75,-856 296.75,-876"/>
<text text-anchor="middle" x="242.25" y="-862.5" font-family="Helvetica,sans-Serif" font-size="10.00">GEU::GUI::addPopup</text>
</a>
</g>
</g>
<!-- Node1&#45;&gt;Node4 -->
<g id="edge3_Node000001_Node000004" class="edge">
<title>Node1&#45;&gt;Node4</title>
<g id="a_edge3_Node000001_Node000004"><a xlink:title=" ">
<path fill="none" stroke="#63b8ff" d="M61.02,-448.49C67.25,-518.37 94.88,-789.17 153.25,-847 159.8,-853.49 168.01,-858 176.76,-861.09"/>
<polygon fill="#63b8ff" stroke="#63b8ff" points="175.6,-864.4 186.17,-863.79 177.52,-857.67 175.6,-864.4"/>
</a>
</g>
</g>
<!-- Node5 -->
<g id="Node000005" class="node">
<title>Node5</title>
<g id="a_Node000005"><a xlink:href="../../de/d07/a00550.html#a7e5f58fc1e47794679b999cd5778b7aa" target="_top" xlink:title=" ">
<polygon fill="white" stroke="#666666" points="290.38,-838 194.12,-838 194.12,-806 290.38,-806 290.38,-838"/>
<text text-anchor="start" x="202.12" y="-824.5" font-family="Helvetica,sans-Serif" font-size="10.00">GEU::GuiUtilities::</text>
<text text-anchor="middle" x="242.25" y="-812.5" font-family="Helvetica,sans-Serif" font-size="10.00">CollapsingHeader</text>
</a>
</g>
</g>
<!-- Node1&#45;&gt;Node5 -->
<g id="edge4_Node000001_Node000005" class="edge">
<title>Node1&#45;&gt;Node5</title>
<g id="a_edge4_Node000001_Node000005"><a xlink:title=" ">
<path fill="none" stroke="#63b8ff" d="M61.62,-448.13C69.83,-511.89 102.91,-745.35 153.25,-797 161.4,-805.36 172.12,-810.98 183.27,-814.75"/>
<polygon fill="#63b8ff" stroke="#63b8ff" points="181.99,-818.02 192.57,-817.4 183.91,-811.29 181.99,-818.02"/>
</a>
</g>
</g>
<!-- Node6 -->
<g id="Node000006" class="node">
<title>Node6</title>
<g id="a_Node000006"><a xlink:href="../../dc/d06/a01517.html#a241159e4de052747142eccbe067f3247" target="_top" xlink:title=" ">
<polygon fill="white" stroke="#666666" points="316.25,-788 168.25,-788 168.25,-768 316.25,-768 316.25,-788"/>
<text text-anchor="middle" x="242.25" y="-774.5" font-family="Helvetica,sans-Serif" font-size="10.00">GEU::Renderer::deleteCamera</text>
</a>
</g>
</g>
<!-- Node1&#45;&gt;Node6 -->
<g id="edge5_Node000001_Node000006" class="edge">
<title>Node1&#45;&gt;Node6</title>
<g id="a_edge5_Node000001_Node000006"><a xlink:title=" ">
<path fill="none" stroke="#63b8ff" d="M58.92,-448.17C57.54,-501.36 60.77,-672.45 153.25,-759 154.88,-760.52 156.59,-761.93 158.39,-763.24"/>
<polygon fill="#63b8ff" stroke="#63b8ff" points="156.25,-766.04 166.63,-768.18 159.85,-760.04 156.25,-766.04"/>
</a>
</g>
</g>
<!-- Node7 -->
<g id="Node000007" class="node">
<title>Node7</title>
<g id="a_Node000007"><a xlink:href="../../dc/d06/a01517.html#abad0228c13d3b72c38de89cafa4f36dd" target="_top" xlink:title=" ">
<polygon fill="white" stroke="#666666" points="309.88,-750 174.62,-750 174.62,-730 309.88,-730 309.88,-750"/>
<text text-anchor="middle" x="242.25" y="-736.5" font-family="Helvetica,sans-Serif" font-size="10.00">GEU::Renderer::deleteLight</text>
</a>
</g>
</g>
<!-- Node1&#45;&gt;Node7 -->
<g id="edge6_Node000001_Node000007" class="edge">
<title>Node1&#45;&gt;Node7</title>
<g id="a_edge6_Node000001_Node000007"><a xlink:title=" ">
<path fill="none" stroke="#63b8ff" d="M59.63,-448.38C60.58,-497.73 70.51,-646.19 153.25,-721 156.45,-723.9 159.99,-726.39 163.75,-728.53"/>
<polygon fill="#63b8ff" stroke="#63b8ff" points="162.24,-731.69 172.78,-732.77 165.22,-725.35 162.24,-731.69"/>
</a>
</g>
</g>
<!-- Node8 -->
<g id="Node000008" class="node">
<title>Node8</title>
<g id="a_Node000008"><a xlink:href="../../dc/d06/a01517.html#a8bae5f04f9f547fa63897d83090a3098" target="_top" xlink:title=" ">
<polygon fill="white" stroke="#666666" points="310.62,-712 173.88,-712 173.88,-680 310.62,-680 310.62,-712"/>
<text text-anchor="start" x="181.88" y="-698.5" font-family="Helvetica,sans-Serif" font-size="10.00">GEU::Renderer::deletePoint</text>
<text text-anchor="middle" x="242.25" y="-686.5" font-family="Helvetica,sans-Serif" font-size="10.00">Cloud</text>
</a>
</g>
</g>
<!-- Node1&#45;&gt;Node8 -->
<g id="edge7_Node000001_Node000008" class="edge">
<title>Node1&#45;&gt;Node8</title>
<g id="a_edge7_Node000001_Node000008"><a xlink:title=" ">
<path fill="none" stroke="#63b8ff" d="M61.13,-448.41C65.98,-491.57 85.12,-609.15 153.25,-671 156.37,-673.84 159.8,-676.35 163.42,-678.58"/>
<polygon fill="#63b8ff" stroke="#63b8ff" points="161.61,-681.59 172.09,-683.15 164.88,-675.39 161.61,-681.59"/>
</a>
</g>
</g>
<!-- Node9 -->
<g id="Node000009" class="node">
<title>Node9</title>
<g id="a_Node000009"><a xlink:href="../../dc/d06/a01517.html#acfa677c487a1da25c992a991e0986a1b" target="_top" xlink:title=" ">
<polygon fill="white" stroke="#666666" points="328.25,-662 156.25,-662 156.25,-642 328.25,-642 328.25,-662"/>
<text text-anchor="middle" x="242.25" y="-648.5" font-family="Helvetica,sans-Serif" font-size="10.00">GEU::Renderer::deleteTriangleMesh</text>
</a>
</g>
</g>
<!-- Node1&#45;&gt;Node9 -->
<g id="edge8_Node000001_Node000009" class="edge">
<title>Node1&#45;&gt;Node9</title>
<g id="a_edge8_Node000001_Node000009"><a xlink:title=" ">
<path fill="none" stroke="#63b8ff" d="M62.2,-448.29C69.21,-486.9 92.33,-584.36 153.25,-633 154.59,-634.07 155.97,-635.08 157.39,-636.03"/>
<polygon fill="#63b8ff" stroke="#63b8ff" points="155.54,-639.01 165.97,-640.86 158.97,-632.91 155.54,-639.01"/>
</a>
</g>
</g>
<!-- Node10 -->
<g id="Node000010" class="node">
<title>Node10</title>
<g id="a_Node000010"><a xlink:href="../../db/d01/a01525.html#a32e6f62d221dd01bac85a6e4201d9418" target="_top" xlink:title=" ">
<polygon fill="white" stroke="#666666" points="317.38,-624 167.12,-624 167.12,-604 317.38,-604 317.38,-624"/>
<text text-anchor="middle" x="242.25" y="-610.5" font-family="Helvetica,sans-Serif" font-size="10.00">GEU::Scene::getActiveCamera</text>
</a>
</g>
</g>
<!-- Node1&#45;&gt;Node10 -->
<g id="edge9_Node000001_Node000010" class="edge">
<title>Node1&#45;&gt;Node10</title>
<g id="a_edge9_Node000001_Node000010"><a xlink:title=" ">
<path fill="none" stroke="#63b8ff" d="M64.13,-448.45C74.16,-481.76 101.6,-557.26 153.25,-595 155,-596.28 156.82,-597.48 158.7,-598.59"/>
<polygon fill="#63b8ff" stroke="#63b8ff" points="156.63,-601.47 167.14,-602.88 159.8,-595.23 156.63,-601.47"/>
</a>
</g>
</g>
<!-- Node11 -->
<g id="Node000011" class="node">
<title>Node11</title>
<g id="a_Node000011"><a xlink:href="../../dc/d06/a01517.html#af5f4307b5eba7c09888765c183a75213" target="_top" xlink:title=" ">
<polygon fill="white" stroke="#666666" points="306.12,-586 178.38,-586 178.38,-554 306.12,-554 306.12,-586"/>
<text text-anchor="start" x="186.38" y="-572.5" font-family="Helvetica,sans-Serif" font-size="10.00">GEU::Renderer::getActive</text>
<text text-anchor="middle" x="242.25" y="-560.5" font-family="Helvetica,sans-Serif" font-size="10.00">Scene</text>
</a>
</g>
</g>
<!-- Node1&#45;&gt;Node11 -->
<g id="edge10_Node000001_Node000011" class="edge">
<title>Node1&#45;&gt;Node11</title>
<g id="a_edge10_Node000001_Node000011"><a xlink:title=" ">
<path fill="none" stroke="#63b8ff" d="M68.6,-448.11C83.14,-472.73 114.2,-519.53 153.25,-545 157.75,-547.94 162.6,-550.53 167.63,-552.83"/>
<polygon fill="#63b8ff" stroke="#63b8ff" points="166.16,-556.01 176.74,-556.56 168.81,-549.53 166.16,-556.01"/>
</a>
</g>
</g>
<!-- Node12 -->
<g id="Node000012" class="node">
<title>Node12</title>
<g id="a_Node000012"><a xlink:href="../../d9/d04/a01557.html#a5036b22700741e0e40da40c5f41044d0" target="_top" xlink:title=" ">
<polygon fill="white" stroke="#666666" points="310.62,-536 173.88,-536 173.88,-516 310.62,-516 310.62,-536"/>
<text text-anchor="middle" x="242.25" y="-522.5" font-family="Helvetica,sans-Serif" font-size="10.00">TextureList::getAllImageTex</text>
</a>
</g>
</g>
<!-- Node1&#45;&gt;Node12 -->
<g id="edge11_Node000001_Node000012" class="edge">
<title>Node1&#45;&gt;Node12</title>
<g id="a_edge11_Node000001_Node000012"><a xlink:title=" ">
<path fill="none" stroke="#63b8ff" d="M75.26,-448.41C92.66,-465.67 122.41,-492.33 153.25,-507 157.19,-508.87 161.31,-510.56 165.53,-512.09"/>
<polygon fill="#63b8ff" stroke="#63b8ff" points="164.15,-515.32 174.74,-515.08 166.32,-508.66 164.15,-515.32"/>
</a>
</g>
</g>
<!-- Node13 -->
<g id="Node000013" class="node">
<title>Node13</title>
<g id="a_Node000013"><a xlink:href="../../dc/d06/a01517.html#aab42a61060bb126a7f7eff0417abe72a" target="_top" xlink:title=" ">
<polygon fill="white" stroke="#666666" points="309.88,-498 174.62,-498 174.62,-478 309.88,-478 309.88,-498"/>
<text text-anchor="middle" x="242.25" y="-484.5" font-family="Helvetica,sans-Serif" font-size="10.00">GEU::Renderer::getCamera</text>
</a>
</g>
</g>
<!-- Node1&#45;&gt;Node13 -->
<g id="edge12_Node000001_Node000013" class="edge">
<title>Node1&#45;&gt;Node13</title>
<g id="a_edge12_Node000001_Node000013"><a xlink:title=" ">
<path fill="none" stroke="#63b8ff" d="M105.63,-448.37C120.73,-453.57 137.65,-459.21 153.25,-464 165.07,-467.63 177.87,-471.28 189.95,-474.59"/>
<polygon fill="#63b8ff" stroke="#63b8ff" points="188.76,-477.9 199.33,-477.14 190.6,-471.14 188.76,-477.9"/>
</a>
</g>
</g>
<!-- Node14 -->
<g id="Node000014" class="node">
<title>Node14</title>
<g id="a_Node000014"><a xlink:href="../../d5/d01/a01945.html#a47c7e7c2110f4cc59c9ff1f5594c366e" target="_top" xlink:title=" ">
<polygon fill="white" stroke="#666666" points="498.75,-448 367.25,-448 367.25,-416 498.75,-416 498.75,-448"/>
<text text-anchor="start" x="375.25" y="-434.5" font-family="Helvetica,sans-Serif" font-size="10.00">GEU::Singleton&lt; Renderer</text>
<text text-anchor="middle" x="433" y="-422.5" font-family="Helvetica,sans-Serif" font-size="10.00"> &gt;::getInstance</text>
</a>
</g>
</g>
<!-- Node1&#45;&gt;Node14 -->
<g id="edge13_Node000001_Node000014" class="edge">
<title>Node1&#45;&gt;Node14</title>
<g id="a_edge13_Node000001_Node000014"><a xlink:title=" ">
<path fill="none" stroke="#63b8ff" d="M117.4,-421.9C181.36,-417.75 284.72,-417.4 355.39,-420.84"/>
<polygon fill="#63b8ff" stroke="#63b8ff" points="355.2,-424.34 365.37,-421.37 355.57,-417.35 355.2,-424.34"/>
</a>
</g>
</g>
<!-- Node1&#45;&gt;Node14 -->
<g id="edge14_Node000001_Node000014" class="edge">
<title>Node1&#45;&gt;Node14</title>
<g id="a_edge14_Node000001_Node000014"><a xlink:title=" ">
<path fill="none" stroke="#63b8ff" d="M117.4,-432C181.36,-432 284.72,-432 355.39,-432"/>
<polygon fill="#63b8ff" stroke="#63b8ff" points="355.37,-435.5 365.37,-432 355.37,-428.5 355.37,-435.5"/>
</a>
</g>
</g>
<!-- Node1&#45;&gt;Node14 -->
<g id="edge15_Node000001_Node000014" class="edge">
<title>Node1&#45;&gt;Node14</title>
<g id="a_edge15_Node000001_Node000014"><a xlink:title=" ">
<path fill="none" stroke="#63b8ff" d="M117.4,-442.1C181.36,-446.25 284.72,-446.6 355.39,-443.16"/>
<polygon fill="#63b8ff" stroke="#63b8ff" points="355.57,-446.65 365.37,-442.63 355.2,-439.66 355.57,-446.65"/>
</a>
</g>
</g>
<!-- Node15 -->
<g id="Node000015" class="node">
<title>Node15</title>
<g id="a_Node000015"><a xlink:href="../../df/d00/a01385.html#a693eac09b56c9ed573d8496ca563300b" target="_top" xlink:title=" ">
<polygon fill="white" stroke="#666666" points="303.12,-386 181.38,-386 181.38,-366 303.12,-366 303.12,-386"/>
<text text-anchor="middle" x="242.25" y="-372.5" font-family="Helvetica,sans-Serif" font-size="10.00">GEU::Camera::getName</text>
</a>
</g>
</g>
<!-- Node1&#45;&gt;Node15 -->
<g id="edge16_Node000001_Node000015" class="edge">
<title>Node1&#45;&gt;Node15</title>
<g id="a_edge16_Node000001_Node000015"><a xlink:title=" ">
<path fill="none" stroke="#63b8ff" d="M105.63,-415.63C120.73,-410.43 137.65,-404.79 153.25,-400 165.07,-396.37 177.87,-392.72 189.95,-389.41"/>
<polygon fill="#63b8ff" stroke="#63b8ff" points="190.6,-392.86 199.33,-386.86 188.76,-386.1 190.6,-392.86"/>
</a>
</g>
</g>
<!-- Node16 -->
<g id="Node000016" class="node">
<title>Node16</title>
<g id="a_Node000016"><a xlink:href="../../d2/d03/a01433.html#a8c316597ef87815dc4902bfb370a812a" target="_top" xlink:title=" ">
<polygon fill="white" stroke="#666666" points="296.75,-348 187.75,-348 187.75,-328 296.75,-328 296.75,-348"/>
<text text-anchor="middle" x="242.25" y="-334.5" font-family="Helvetica,sans-Serif" font-size="10.00">GEU::Light::getName</text>
</a>
</g>
</g>
<!-- Node1&#45;&gt;Node16 -->
<g id="edge17_Node000001_Node000016" class="edge">
<title>Node1&#45;&gt;Node16</title>
<g id="a_edge17_Node000001_Node000016"><a xlink:title=" ">
<path fill="none" stroke="#63b8ff" d="M75.26,-415.59C92.66,-398.33 122.41,-371.67 153.25,-357 160.53,-353.54 168.44,-350.7 176.45,-348.37"/>
<polygon fill="#63b8ff" stroke="#63b8ff" points="177.11,-351.82 185.89,-345.9 175.33,-345.05 177.11,-351.82"/>
</a>
</g>
</g>
<!-- Node17 -->
<g id="Node000017" class="node">
<title>Node17</title>
<g id="a_Node000017"><a xlink:href="../../d2/d03/a01433.html#a8b250ac7406d45a789a328cec3210d7f" target="_top" xlink:title=" ">
<polygon fill="white" stroke="#666666" points="306.12,-310 178.38,-310 178.38,-290 306.12,-290 306.12,-310"/>
<text text-anchor="middle" x="242.25" y="-296.5" font-family="Helvetica,sans-Serif" font-size="10.00">GEU::Light::getProperties</text>
</a>
</g>
</g>
<!-- Node1&#45;&gt;Node17 -->
<g id="edge18_Node000001_Node000017" class="edge">
<title>Node1&#45;&gt;Node17</title>
<g id="a_edge18_Node000001_Node000017"><a xlink:title=" ">
<path fill="none" stroke="#63b8ff" d="M68.4,-415.58C82.68,-390.55 113.4,-343.2 153.25,-319 157.77,-316.25 162.64,-313.9 167.67,-311.89"/>
<polygon fill="#63b8ff" stroke="#63b8ff" points="168.48,-315.31 176.77,-308.71 166.18,-308.7 168.48,-315.31"/>
</a>
</g>
</g>
<!-- Node18 -->
<g id="Node000018" class="node">
<title>Node18</title>
<g id="a_Node000018"><a xlink:href="../../d9/d00/a01909.html#a221f7bdde6217593a27b991bae1cb246" target="_top" xlink:title="Carga la nube de puntos especificada.">
<polygon fill="white" stroke="#666666" points="313.62,-272 170.88,-272 170.88,-240 313.62,-240 313.62,-272"/>
<text text-anchor="start" x="178.88" y="-258.5" font-family="Helvetica,sans-Serif" font-size="10.00">GEU::FileManager::loadPoint</text>
<text text-anchor="middle" x="242.25" y="-246.5" font-family="Helvetica,sans-Serif" font-size="10.00">Cloud</text>
</a>
</g>
</g>
<!-- Node1&#45;&gt;Node18 -->
<g id="edge19_Node000001_Node000018" class="edge">
<title>Node1&#45;&gt;Node18</title>
<g id="a_edge19_Node000001_Node000018"><a xlink:title=" ">
<path fill="none" stroke="#63b8ff" d="M65.21,-415.58C76.64,-384.47 105.72,-316.85 153.25,-281 155.58,-279.24 158.03,-277.61 160.57,-276.09"/>
<polygon fill="#63b8ff" stroke="#63b8ff" points="162.15,-279.21 169.4,-271.48 158.92,-273 162.15,-279.21"/>
</a>
</g>
</g>
<!-- Node19 -->
<g id="Node000019" class="node">
<title>Node19</title>
<g id="a_Node000019"><a xlink:href="../../d9/d00/a01909.html#ad604f08d090bb872c17b17b93c04b1c0" target="_top" xlink:title="Carga la malla de triangulos de la ruta especificada.">
<polygon fill="white" stroke="#666666" points="331.25,-222 153.25,-222 153.25,-202 331.25,-202 331.25,-222"/>
<text text-anchor="middle" x="242.25" y="-208.5" font-family="Helvetica,sans-Serif" font-size="10.00">GEU::FileManager::loadTriangleMesh</text>
</a>
</g>
</g>
<!-- Node1&#45;&gt;Node19 -->
<g id="edge20_Node000001_Node000019" class="edge">
<title>Node1&#45;&gt;Node19</title>
<g id="a_edge20_Node000001_Node000019"><a xlink:title=" ">
<path fill="none" stroke="#63b8ff" d="M62.2,-415.71C69.21,-377.1 92.33,-279.64 153.25,-231 154.59,-229.93 155.97,-228.92 157.39,-227.97"/>
<polygon fill="#63b8ff" stroke="#63b8ff" points="158.97,-231.09 165.97,-223.14 155.54,-224.99 158.97,-231.09"/>
</a>
</g>
</g>
<!-- Node22 -->
<g id="Node000022" class="node">
<title>Node22</title>
<g id="a_Node000022"><a xlink:href="../../df/d00/a01385.html#a40576296046dd7cbeb67cfcd7bdbcba8" target="_top" xlink:title=" ">
<polygon fill="white" stroke="#666666" points="305.75,-184 178.75,-184 178.75,-164 305.75,-164 305.75,-184"/>
<text text-anchor="middle" x="242.25" y="-170.5" font-family="Helvetica,sans-Serif" font-size="10.00">GEU::Camera::lookModel</text>
</a>
</g>
</g>
<!-- Node1&#45;&gt;Node22 -->
<g id="edge25_Node000001_Node000022" class="edge">
<title>Node1&#45;&gt;Node22</title>
<g id="a_edge25_Node000001_Node000022"><a xlink:title=" ">
<path fill="none" stroke="#63b8ff" d="M60.88,-415.65C65.14,-372.15 83,-252.78 153.25,-193 157.67,-189.23 162.67,-186.16 167.98,-183.66"/>
<polygon fill="#63b8ff" stroke="#63b8ff" points="169.06,-186.99 177.09,-180.08 166.5,-180.48 169.06,-186.99"/>
</a>
</g>
</g>
<!-- Node27 -->
<g id="Node000027" class="node">
<title>Node27</title>
<g id="a_Node000027"><a xlink:href="../../df/d00/a01385.html#a9179a5b14d3a728bbec48b0582aa520a" target="_top" xlink:title=" ">
<polygon fill="white" stroke="#666666" points="310.25,-146 174.25,-146 174.25,-126 310.25,-126 310.25,-146"/>
<text text-anchor="middle" x="242.25" y="-132.5" font-family="Helvetica,sans-Serif" font-size="10.00">GEU::Camera::lookPosition</text>
</a>
</g>
</g>
<!-- Node1&#45;&gt;Node27 -->
<g id="edge30_Node000001_Node000027" class="edge">
<title>Node1&#45;&gt;Node27</title>
<g id="a_edge30_Node000001_Node000027"><a xlink:title=" ">
<path fill="none" stroke="#63b8ff" d="M59.89,-415.6C61.61,-367.58 73.53,-226.16 153.25,-155 156.41,-152.18 159.89,-149.74 163.58,-147.64"/>
<polygon fill="#63b8ff" stroke="#63b8ff" points="164.86,-150.91 172.41,-143.47 161.87,-144.58 164.86,-150.91"/>
</a>
</g>
</g>
<!-- Node28 -->
<g id="Node000028" class="node">
<title>Node28</title>
<g id="a_Node000028"><a xlink:href="../../de/d07/a00550.html#a9e9d1bf63c5c0e2c1eee6a30dc2dc83d" target="_top" xlink:title=" ">
<polygon fill="white" stroke="#666666" points="290.38,-108 194.12,-108 194.12,-76 290.38,-76 290.38,-108"/>
<text text-anchor="start" x="202.12" y="-94.5" font-family="Helvetica,sans-Serif" font-size="10.00">GEU::GuiUtilities::</text>
<text text-anchor="middle" x="242.25" y="-82.5" font-family="Helvetica,sans-Serif" font-size="10.00">Selectable</text>
</a>
</g>
</g>
<!-- Node1&#45;&gt;Node28 -->
<g id="edge31_Node000001_Node000028" class="edge">
<title>Node1&#45;&gt;Node28</title>
<g id="a_edge31_Node000001_Node000028"><a xlink:title=" ">
<path fill="none" stroke="#63b8ff" d="M59.35,-415.55C59.39,-363.76 66.8,-202.41 153.25,-117 161.38,-108.96 171.9,-103.47 182.82,-99.72"/>
<polygon fill="#63b8ff" stroke="#63b8ff" points="183.73,-103.11 192.35,-96.95 181.77,-96.39 183.73,-103.11"/>
</a>
</g>
</g>
<!-- Node29 -->
<g id="Node000029" class="node">
<title>Node29</title>
<g id="a_Node000029"><a xlink:href="../../df/d00/a01385.html#a6d507d6e5fbff5dec2abae7adde2b149" target="_top" xlink:title=" ">
<polygon fill="white" stroke="#666666" points="307.62,-58 176.88,-58 176.88,-38 307.62,-38 307.62,-58"/>
<text text-anchor="middle" x="242.25" y="-44.5" font-family="Helvetica,sans-Serif" font-size="10.00">GEU::Camera::trackModel</text>
</a>
</g>
</g>
<!-- Node1&#45;&gt;Node29 -->
<g id="edge32_Node000001_Node000029" class="edge">
<title>Node1&#45;&gt;Node29</title>
<g id="a_edge32_Node000001_Node000029"><a xlink:title=" ">
<path fill="none" stroke="#63b8ff" d="M61.53,-415.77C69.38,-351.66 101.28,-117.01 153.25,-67 157.13,-63.27 161.56,-60.2 166.31,-57.67"/>
<polygon fill="#63b8ff" stroke="#63b8ff" points="167.33,-61.05 175.09,-53.84 164.53,-54.64 167.33,-61.05"/>
</a>
</g>
</g>
<!-- Node30 -->
<g id="Node000030" class="node">
<title>Node30</title>
<g id="a_Node000030"><a xlink:href="../../df/d00/a01385.html#aa25f65e222b34563faff40b14ae1ae03" target="_top" xlink:title=" ">
<polygon fill="white" stroke="#666666" points="312.88,-20 171.62,-20 171.62,0 312.88,0 312.88,-20"/>
<text text-anchor="middle" x="242.25" y="-6.5" font-family="Helvetica,sans-Serif" font-size="10.00">GEU::Camera::untrackModel</text>
</a>
</g>
</g>
<!-- Node1&#45;&gt;Node30 -->
<g id="edge33_Node000001_Node000030" class="edge">
<title>Node1&#45;&gt;Node30</title>
<g id="a_edge33_Node000001_Node000030"><a xlink:title=" ">
<path fill="none" stroke="#63b8ff" d="M61.13,-415.52C67.75,-346.92 96.43,-84.94 153.25,-29 155.79,-26.5 158.57,-24.3 161.53,-22.36"/>
<polygon fill="#63b8ff" stroke="#63b8ff" points="163.03,-25.53 170.19,-17.72 159.72,-19.36 163.03,-25.53"/>
</a>
</g>
</g>
<!-- Node19&#45;&gt;Node14 -->
<g id="edge22_Node000019_Node000014" class="edge">
<title>Node19&#45;&gt;Node14</title>
<g id="a_edge22_Node000019_Node000014"><a xlink:title=" ">
<path fill="none" stroke="#63b8ff" d="M331.71,-222.37C362.34,-246.85 405.76,-354 423.73,-405.09"/>
<polygon fill="#63b8ff" stroke="#63b8ff" points="420.31,-405.9 426.86,-414.22 426.93,-403.63 420.31,-405.9"/>
</a>
</g>
</g>
<!-- Node19&#45;&gt;Node14 -->
<g id="edge23_Node000019_Node000014" class="edge">
<title>Node19&#45;&gt;Node14</title>
<g id="a_edge23_Node000019_Node000014"><a xlink:title=" ">
<path fill="none" stroke="#63b8ff" d="M288.15,-222.46C303.09,-225.53 319.02,-230.52 331.25,-240 359.88,-262.19 399.96,-357.88 419.83,-405.38"/>
<polygon fill="#63b8ff" stroke="#63b8ff" points="416.53,-406.55 423.62,-414.42 422.98,-403.84 416.53,-406.55"/>
</a>
</g>
</g>
<!-- Node20 -->
<g id="Node000020" class="node">
<title>Node20</title>
<g id="a_Node000020"><a xlink:href="../../dc/d06/a01517.html#a101eed167bec92e041e4b0e04f6cce58" target="_top" xlink:title="Inserts 3D model to current scene.">
<polygon fill="white" stroke="#666666" points="498,-260 368,-260 368,-240 498,-240 498,-260"/>
<text text-anchor="middle" x="433" y="-246.5" font-family="Helvetica,sans-Serif" font-size="10.00">GEU::Renderer::addModel</text>
</a>
</g>
</g>
<!-- Node19&#45;&gt;Node20 -->
<g id="edge21_Node000019_Node000020" class="edge">
<title>Node19&#45;&gt;Node20</title>
<g id="a_edge21_Node000019_Node000020"><a xlink:title=" ">
<path fill="none" stroke="#63b8ff" d="M295.33,-222.48C318.12,-227.07 345.07,-232.5 368.99,-237.31"/>
<polygon fill="#63b8ff" stroke="#63b8ff" points="368.12,-240.71 378.61,-239.25 369.5,-233.85 368.12,-240.71"/>
</a>
</g>
</g>
<!-- Node21 -->
<g id="Node000021" class="node">
<title>Node21</title>
<g id="a_Node000021"><a xlink:href="../../da/d04/a01921.html#a90f2903c439af79e6af28892f8f9c139" target="_top" xlink:title=" ">
<polygon fill="white" stroke="#666666" points="493.12,-222 372.88,-222 372.88,-202 493.12,-202 493.12,-222"/>
<text text-anchor="middle" x="433" y="-208.5" font-family="Helvetica,sans-Serif" font-size="10.00">LocaleStrings::getString</text>
</a>
</g>
</g>
<!-- Node19&#45;&gt;Node21 -->
<g id="edge24_Node000019_Node000021" class="edge">
<title>Node19&#45;&gt;Node21</title>
<g id="a_edge24_Node000019_Node000021"><a xlink:title=" ">
<path fill="none" stroke="#63b8ff" d="M331.55,-212C341.55,-212 351.64,-212 361.37,-212"/>
<polygon fill="#63b8ff" stroke="#63b8ff" points="361.08,-215.5 371.08,-212 361.08,-208.5 361.08,-215.5"/>
</a>
</g>
</g>
<!-- Node23 -->
<g id="Node000023" class="node">
<title>Node23</title>
<g id="a_Node000023"><a xlink:href="../../db/d05/a01637.html#a37fe03c1375a2b98345fe219cd59d3bd" target="_top" xlink:title=" ">
<polygon fill="white" stroke="#666666" points="471,-184 395,-184 395,-164 471,-164 471,-184"/>
<text text-anchor="middle" x="433" y="-170.5" font-family="Helvetica,sans-Serif" font-size="10.00">AABB::center</text>
</a>
</g>
</g>
<!-- Node22&#45;&gt;Node23 -->
<g id="edge26_Node000022_Node000023" class="edge">
<title>Node22&#45;&gt;Node23</title>
<g id="a_edge26_Node000022_Node000023"><a xlink:title=" ">
<path fill="none" stroke="#63b8ff" d="M306.1,-174C331.24,-174 359.75,-174 383.27,-174"/>
<polygon fill="#63b8ff" stroke="#63b8ff" points="383.21,-177.5 393.21,-174 383.21,-170.5 383.21,-177.5"/>
</a>
</g>
</g>
<!-- Node24 -->
<g id="Node000024" class="node">
<title>Node24</title>
<g id="a_Node000024"><a xlink:href="../../db/d04/a01501.html#ab5fdc7a938aa8ae8f6697cb4bf3e94b4" target="_top" xlink:title=" ">
<polygon fill="white" stroke="#666666" points="496.88,-146 369.12,-146 369.12,-126 496.88,-126 496.88,-146"/>
<text text-anchor="middle" x="433" y="-132.5" font-family="Helvetica,sans-Serif" font-size="10.00">GEU::Model3D::getAABB</text>
</a>
</g>
</g>
<!-- Node22&#45;&gt;Node24 -->
<g id="edge27_Node000022_Node000024" class="edge">
<title>Node22&#45;&gt;Node24</title>
<g id="a_edge27_Node000022_Node000024"><a xlink:title=" ">
<path fill="none" stroke="#63b8ff" d="M295.33,-163.52C318.12,-158.93 345.07,-153.5 368.99,-148.69"/>
<polygon fill="#63b8ff" stroke="#63b8ff" points="369.5,-152.15 378.61,-146.75 368.12,-145.29 369.5,-152.15"/>
</a>
</g>
</g>
<!-- Node26 -->
<g id="Node000026" class="node">
<title>Node26</title>
<g id="a_Node000026"><a xlink:href="../../db/d05/a01637.html#aa80c2fc1bbc932572311ba94a8f76530" target="_top" xlink:title=" ">
<polygon fill="white" stroke="#666666" points="466.88,-108 399.12,-108 399.12,-88 466.88,-88 466.88,-108"/>
<text text-anchor="middle" x="433" y="-94.5" font-family="Helvetica,sans-Serif" font-size="10.00">AABB::max</text>
</a>
</g>
</g>
<!-- Node22&#45;&gt;Node26 -->
<g id="edge29_Node000022_Node000026" class="edge">
<title>Node22&#45;&gt;Node26</title>
<g id="a_edge29_Node000022_Node000026"><a xlink:title=" ">
<path fill="none" stroke="#63b8ff" d="M306.03,-165.33C314.82,-162.73 323.49,-159.37 331.25,-155 351.53,-143.59 347.4,-129.14 367.25,-117 373.55,-113.14 380.68,-110.03 387.85,-107.54"/>
<polygon fill="#63b8ff" stroke="#63b8ff" points="388.68,-110.94 397.2,-104.65 386.61,-104.26 388.68,-110.94"/>
</a>
</g>
</g>
<!-- Node25 -->
<g id="Node000025" class="node">
<title>Node25</title>
<g id="a_Node000025"><a xlink:href="../../db/d05/a01637.html#ab4dad925a3cb42ad2f00c7d5053369e1" target="_top" xlink:title=" ">
<polygon fill="white" stroke="#666666" points="597.25,-146 534.75,-146 534.75,-126 597.25,-126 597.25,-146"/>
<text text-anchor="middle" x="566" y="-132.5" font-family="Helvetica,sans-Serif" font-size="10.00">AABB::dot</text>
</a>
</g>
</g>
<!-- Node24&#45;&gt;Node25 -->
<g id="edge28_Node000024_Node000025" class="edge">
<title>Node24&#45;&gt;Node25</title>
<g id="a_edge28_Node000024_Node000025"><a xlink:title=" ">
<path fill="none" stroke="#63b8ff" d="M497.2,-136C506,-136 514.86,-136 523.14,-136"/>
<polygon fill="#63b8ff" stroke="#63b8ff" points="522.88,-139.5 532.88,-136 522.88,-132.5 522.88,-139.5"/>
</a>
</g>
</g>
</g>
</svg>
