<?xml version="1.0" encoding="UTF-8" standalone="no"?>
<!DOCTYPE svg PUBLIC "-//W3C//DTD SVG 1.1//EN"
 "http://www.w3.org/Graphics/SVG/1.1/DTD/svg11.dtd">
<!-- Generated by graphviz version 10.0.1 (20240210.2158)
 -->
<!-- Title: Database::RelacionDato Pages: 1 -->
<svg width="143pt" height="177pt"
 viewBox="0.00 0.00 142.75 177.00" xmlns="http://www.w3.org/2000/svg" xmlns:xlink="http://www.w3.org/1999/xlink">
<g id="graph0" class="graph" transform="scale(1 1) rotate(0) translate(4 173)">
<title>Database::RelacionDato</title>
<!-- Node1 -->
<g id="Node000001" class="node">
<title>Node1</title>
<g id="a_Node000001"><a xlink:title=" ">
<polygon fill="#999999" stroke="#666666" points="121,-20 0,-20 0,0 121,0 121,-20"/>
<text text-anchor="middle" x="60.5" y="-6.5" font-family="Helvetica,sans-Serif" font-size="10.00">Database::RelacionDato</text>
</a>
</g>
</g>
<!-- Node2 -->
<g id="Node000002" class="node">
<title>Node2</title>
<g id="a_Node000002"><a xlink:title=" ">
<polygon fill="white" stroke="#666666" points="90.25,-100 30.75,-100 30.75,-80 90.25,-80 90.25,-100"/>
<text text-anchor="middle" x="60.5" y="-86.5" font-family="Helvetica,sans-Serif" font-size="10.00">std::string</text>
</a>
</g>
</g>
<!-- Node2&#45;&gt;Node1 -->
<g id="edge1_Node000001_Node000002" class="edge">
<title>Node2&#45;&gt;Node1</title>
<g id="a_edge1_Node000001_Node000002"><a xlink:title=" ">
<path fill="none" stroke="#9a32cd" stroke-dasharray="5,2" d="M60.5,-68.59C60.5,-52.94 60.5,-32.08 60.5,-20.24"/>
<polygon fill="#9a32cd" stroke="#9a32cd" points="57,-68.23 60.5,-78.23 64,-68.23 57,-68.23"/>
</a>
</g>
<text text-anchor="middle" x="97.62" y="-52.5" font-family="Helvetica,sans-Serif" font-size="10.00" fill="grey"> idDatoFuente</text>
<text text-anchor="middle" x="97.62" y="-40.5" font-family="Helvetica,sans-Serif" font-size="10.00" fill="grey">idDatoProcesado</text>
</g>
<!-- Node3 -->
<g id="Node000003" class="node">
<title>Node3</title>
<g id="a_Node000003"><a xlink:title=" ">
<polygon fill="white" stroke="#666666" points="107.5,-169 13.5,-169 13.5,-137 107.5,-137 107.5,-169"/>
<text text-anchor="start" x="21.5" y="-155.5" font-family="Helvetica,sans-Serif" font-size="10.00">std::basic_string&lt;</text>
<text text-anchor="middle" x="60.5" y="-143.5" font-family="Helvetica,sans-Serif" font-size="10.00"> Char &gt;</text>
</a>
</g>
</g>
<!-- Node3&#45;&gt;Node2 -->
<g id="edge2_Node000002_Node000003" class="edge">
<title>Node3&#45;&gt;Node2</title>
<g id="a_edge2_Node000002_Node000003"><a xlink:title=" ">
<path fill="none" stroke="#63b8ff" d="M60.5,-125.36C60.5,-116.41 60.5,-107.01 60.5,-100.31"/>
<polygon fill="#63b8ff" stroke="#63b8ff" points="57,-125.09 60.5,-135.09 64,-125.09 57,-125.09"/>
</a>
</g>
</g>
</g>
</svg>
