<?xml version="1.0" encoding="UTF-8" standalone="no"?>
<!DOCTYPE svg PUBLIC "-//W3C//DTD SVG 1.1//EN"
 "http://www.w3.org/Graphics/SVG/1.1/DTD/svg11.dtd">
<!-- Generated by graphviz version 10.0.1 (20240210.2158)
 -->
<!-- Title: Database::SDO_GEOMETRY::fromJSON Pages: 1 -->
<svg width="858pt" height="90pt"
 viewBox="0.00 0.00 857.50 90.00" xmlns="http://www.w3.org/2000/svg" xmlns:xlink="http://www.w3.org/1999/xlink">
<g id="graph0" class="graph" transform="scale(1 1) rotate(0) translate(4 86)">
<title>Database::SDO_GEOMETRY::fromJSON</title>
<!-- Node1 -->
<g id="Node000001" class="node">
<title>Node1</title>
<g id="a_Node000001"><a xlink:title=" ">
<polygon fill="#999999" stroke="#666666" points="849.5,-57 704.5,-57 704.5,-25 849.5,-25 849.5,-57"/>
<text text-anchor="start" x="712.5" y="-43.5" font-family="Helvetica,sans-Serif" font-size="10.00">Database::SDO_GEOMETRY</text>
<text text-anchor="middle" x="777" y="-31.5" font-family="Helvetica,sans-Serif" font-size="10.00">::fromJSON</text>
</a>
</g>
</g>
<!-- Node2 -->
<g id="Node000002" class="node">
<title>Node2</title>
<g id="a_Node000002"><a xlink:href="../../db/d04/a01849.html#a23779e9f38a1d1ed6ff784d1e7969953" target="_top" xlink:title=" ">
<polygon fill="white" stroke="#666666" points="668.5,-51 525.75,-51 525.75,-31 668.5,-31 668.5,-51"/>
<text text-anchor="middle" x="597.12" y="-37.5" font-family="Helvetica,sans-Serif" font-size="10.00">Database::Objeto::fromQuery</text>
</a>
</g>
</g>
<!-- Node1&#45;&gt;Node2 -->
<g id="edge1_Node000001_Node000002" class="edge">
<title>Node1&#45;&gt;Node2</title>
<g id="a_edge1_Node000001_Node000002"><a xlink:title=" ">
<path fill="none" stroke="#63b8ff" d="M692.86,-41C684.81,-41 676.69,-41 668.78,-41"/>
<polygon fill="#63b8ff" stroke="#63b8ff" points="692.65,-44.5 702.65,-41 692.65,-37.5 692.65,-44.5"/>
</a>
</g>
</g>
<!-- Node3 -->
<g id="Node000003" class="node">
<title>Node3</title>
<g id="a_Node000003"><a xlink:href="../../de/d01/a01857.html#a5ebff79b9221572c5cc1372f375a9644" target="_top" xlink:title=" ">
<polygon fill="white" stroke="#666666" points="489.75,-57 382.25,-57 382.25,-25 489.75,-25 489.75,-57"/>
<text text-anchor="start" x="390.25" y="-43.5" font-family="Helvetica,sans-Serif" font-size="10.00">DatabaseConnector::</text>
<text text-anchor="middle" x="436" y="-31.5" font-family="Helvetica,sans-Serif" font-size="10.00">queryObjeto</text>
</a>
</g>
</g>
<!-- Node2&#45;&gt;Node3 -->
<g id="edge2_Node000002_Node000003" class="edge">
<title>Node2&#45;&gt;Node3</title>
<g id="a_edge2_Node000002_Node000003"><a xlink:title=" ">
<path fill="none" stroke="#63b8ff" d="M514.15,-41C505.89,-41 497.67,-41 489.83,-41"/>
<polygon fill="#63b8ff" stroke="#63b8ff" points="513.89,-44.5 523.89,-41 513.89,-37.5 513.89,-44.5"/>
</a>
</g>
</g>
<!-- Node4 -->
<g id="Node000004" class="node">
<title>Node4</title>
<g id="a_Node000004"><a xlink:href="../../da/d01/a02101.html#a220f4253fbaddc522c033e939717f015" target="_top" xlink:title="Draw Export to Database tab to handle remote conection and upload.">
<polygon fill="white" stroke="#666666" points="346.25,-82 174.25,-82 174.25,-50 346.25,-50 346.25,-82"/>
<text text-anchor="start" x="182.25" y="-68.5" font-family="Helvetica,sans-Serif" font-size="10.00">GEU::TreeSegmentationGUIAdapter</text>
<text text-anchor="middle" x="260.25" y="-56.5" font-family="Helvetica,sans-Serif" font-size="10.00">::makeSegmentDatabaseGUI</text>
</a>
</g>
</g>
<!-- Node3&#45;&gt;Node4 -->
<g id="edge3_Node000003_Node000004" class="edge">
<title>Node3&#45;&gt;Node4</title>
<g id="a_edge3_Node000003_Node000004"><a xlink:title=" ">
<path fill="none" stroke="#63b8ff" d="M370.67,-50.26C362.84,-51.38 354.74,-52.55 346.66,-53.71"/>
<polygon fill="#63b8ff" stroke="#63b8ff" points="371.03,-53.74 380.43,-48.85 370.03,-46.81 371.03,-53.74"/>
</a>
</g>
</g>
<!-- Node5 -->
<g id="Node000005" class="node">
<title>Node5</title>
<g id="a_Node000005"><a xlink:href="../../df/d07/a01537.html#a66a3af3a767847d263899d0d0e287b78" target="_top" xlink:title=" ">
<polygon fill="white" stroke="#666666" points="329.38,-32 191.12,-32 191.12,0 329.38,0 329.38,-32"/>
<text text-anchor="start" x="199.12" y="-18.5" font-family="Helvetica,sans-Serif" font-size="10.00">GEU::DatabaseQueryPopup</text>
<text text-anchor="middle" x="260.25" y="-6.5" font-family="Helvetica,sans-Serif" font-size="10.00">::queryFilterObjeto</text>
</a>
</g>
</g>
<!-- Node3&#45;&gt;Node5 -->
<g id="edge4_Node000003_Node000005" class="edge">
<title>Node3&#45;&gt;Node5</title>
<g id="a_edge4_Node000003_Node000005"><a xlink:title=" ">
<path fill="none" stroke="#63b8ff" d="M370.87,-31.77C357.46,-29.84 343.28,-27.8 329.71,-25.85"/>
<polygon fill="#63b8ff" stroke="#63b8ff" points="370.03,-35.19 380.43,-33.15 371.03,-28.26 370.03,-35.19"/>
</a>
</g>
</g>
<!-- Node6 -->
<g id="Node000006" class="node">
<title>Node6</title>
<g id="a_Node000006"><a xlink:href="../../df/d07/a01537.html#aee96f5bdc802183d992461ccf7af7606" target="_top" xlink:title=" ">
<polygon fill="white" stroke="#666666" points="138.25,-32 0,-32 0,0 138.25,0 138.25,-32"/>
<text text-anchor="start" x="8" y="-18.5" font-family="Helvetica,sans-Serif" font-size="10.00">GEU::DatabaseQueryPopup</text>
<text text-anchor="middle" x="69.12" y="-6.5" font-family="Helvetica,sans-Serif" font-size="10.00">::makeFormObjeto</text>
</a>
</g>
</g>
<!-- Node5&#45;&gt;Node6 -->
<g id="edge5_Node000005_Node000006" class="edge">
<title>Node5&#45;&gt;Node6</title>
<g id="a_edge5_Node000005_Node000006"><a xlink:title=" ">
<path fill="none" stroke="#63b8ff" d="M179.39,-16C165.76,-16 151.73,-16 138.44,-16"/>
<polygon fill="#63b8ff" stroke="#63b8ff" points="179.19,-19.5 189.19,-16 179.19,-12.5 179.19,-19.5"/>
</a>
</g>
</g>
</g>
</svg>
