<?xml version="1.0" encoding="UTF-8" standalone="no"?>
<!DOCTYPE svg PUBLIC "-//W3C//DTD SVG 1.1//EN"
 "http://www.w3.org/Graphics/SVG/1.1/DTD/svg11.dtd">
<!-- Generated by graphviz version 10.0.1 (20240210.2158)
 -->
<!-- Title: GEU::NASSession::getFileInfo Pages: 1 -->
<svg width="345pt" height="116pt"
 viewBox="0.00 0.00 344.50 116.00" xmlns="http://www.w3.org/2000/svg" xmlns:xlink="http://www.w3.org/1999/xlink">
<g id="graph0" class="graph" transform="scale(1 1) rotate(0) translate(4 112)">
<title>GEU::NASSession::getFileInfo</title>
<!-- Node1 -->
<g id="Node000001" class="node">
<title>Node1</title>
<g id="a_Node000001"><a xlink:title="Get file information from FTP file.">
<polygon fill="#999999" stroke="#666666" points="148.75,-58 0,-58 0,-38 148.75,-38 148.75,-58"/>
<text text-anchor="middle" x="74.38" y="-44.5" font-family="Helvetica,sans-Serif" font-size="10.00">GEU::NASSession::getFileInfo</text>
</a>
</g>
</g>
<!-- Node2 -->
<g id="Node000002" class="node">
<title>Node2</title>
<g id="a_Node000002"><a xlink:href="../../d1/d01/class_g_e_u_1_1_singleton.html#a47c7e7c2110f4cc59c9ff1f5594c366e" target="_top" xlink:title=" ">
<polygon fill="white" stroke="#666666" points="336.5,-108 184.75,-108 184.75,-76 336.5,-76 336.5,-108"/>
<text text-anchor="start" x="192.75" y="-94.5" font-family="Helvetica,sans-Serif" font-size="10.00">GEU::Singleton&lt; LocaleStrings</text>
<text text-anchor="middle" x="260.62" y="-82.5" font-family="Helvetica,sans-Serif" font-size="10.00"> &gt;::getInstance</text>
</a>
</g>
</g>
<!-- Node1&#45;&gt;Node2 -->
<g id="edge1_Node000001_Node000002" class="edge">
<title>Node1&#45;&gt;Node2</title>
<g id="a_edge1_Node000001_Node000002"><a xlink:title=" ">
<path fill="none" stroke="#63b8ff" d="M119.04,-58.43C137.17,-62.76 158.8,-67.92 179.6,-72.89"/>
<polygon fill="#63b8ff" stroke="#63b8ff" points="178.69,-76.27 189.23,-75.19 180.32,-69.46 178.69,-76.27"/>
</a>
</g>
</g>
<!-- Node3 -->
<g id="Node000003" class="node">
<title>Node3</title>
<g id="a_Node000003"><a xlink:href="../../d2/d04/class_locale_strings.html#ac66087ac25e72051ea7b5bf3d00dd71f" target="_top" xlink:title=" ">
<polygon fill="white" stroke="#666666" points="320.75,-58 200.5,-58 200.5,-38 320.75,-38 320.75,-58"/>
<text text-anchor="middle" x="260.62" y="-44.5" font-family="Helvetica,sans-Serif" font-size="10.00">LocaleStrings::getString</text>
</a>
</g>
</g>
<!-- Node1&#45;&gt;Node3 -->
<g id="edge2_Node000001_Node000003" class="edge">
<title>Node1&#45;&gt;Node3</title>
<g id="a_edge2_Node000001_Node000003"><a xlink:title=" ">
<path fill="none" stroke="#63b8ff" d="M148.99,-48C162.09,-48 175.71,-48 188.74,-48"/>
<polygon fill="#63b8ff" stroke="#63b8ff" points="188.49,-51.5 198.49,-48 188.49,-44.5 188.49,-51.5"/>
</a>
</g>
</g>
<!-- Node4 -->
<g id="Node000004" class="node">
<title>Node4</title>
<g id="a_Node000004"><a xlink:href="../../df/d03/namespace_im_gui.html#accd100b531b171ee1a63232f9f5916fc" target="_top" xlink:title=" ">
<polygon fill="white" stroke="#666666" points="320.38,-20 200.88,-20 200.88,0 320.38,0 320.38,-20"/>
<text text-anchor="middle" x="260.62" y="-6.5" font-family="Helvetica,sans-Serif" font-size="10.00">ImGui::InsertNotification</text>
</a>
</g>
</g>
<!-- Node1&#45;&gt;Node4 -->
<g id="edge3_Node000001_Node000004" class="edge">
<title>Node1&#45;&gt;Node4</title>
<g id="a_edge3_Node000001_Node000004"><a xlink:title=" ">
<path fill="none" stroke="#63b8ff" d="M126.21,-37.52C148.36,-32.95 174.53,-27.55 197.8,-22.75"/>
<polygon fill="#63b8ff" stroke="#63b8ff" points="198.39,-26.2 207.47,-20.76 196.97,-19.35 198.39,-26.2"/>
</a>
</g>
</g>
</g>
</svg>
