<?xml version="1.0" encoding="UTF-8" standalone="no"?>
<!DOCTYPE svg PUBLIC "-//W3C//DTD SVG 1.1//EN"
 "http://www.w3.org/Graphics/SVG/1.1/DTD/svg11.dtd">
<!-- Generated by graphviz version 10.0.1 (20240210.2158)
 -->
<!-- Title: MultispectralImg Pages: 1 -->
<svg width="197pt" height="140pt"
 viewBox="0.00 0.00 196.50 140.00" xmlns="http://www.w3.org/2000/svg" xmlns:xlink="http://www.w3.org/1999/xlink">
<g id="graph0" class="graph" transform="scale(1 1) rotate(0) translate(4 136)">
<title>MultispectralImg</title>
<!-- Node1 -->
<g id="Node000001" class="node">
<title>Node1</title>
<g id="a_Node000001"><a xlink:title=" ">
<polygon fill="#999999" stroke="#666666" points="112.62,-132 25.38,-132 25.38,-112 112.62,-112 112.62,-132"/>
<text text-anchor="middle" x="69" y="-118.5" font-family="Helvetica,sans-Serif" font-size="10.00">MultispectralImg</text>
</a>
</g>
</g>
<!-- Node2 -->
<g id="Node000002" class="node">
<title>Node2</title>
<g id="a_Node000002"><a xlink:href="../../d7/d07/class_parrot_img.html" target="_top" xlink:title=" ">
<polygon fill="white" stroke="#666666" points="58,-76 0,-76 0,-56 58,-56 58,-76"/>
<text text-anchor="middle" x="29" y="-62.5" font-family="Helvetica,sans-Serif" font-size="10.00">ParrotImg</text>
</a>
</g>
</g>
<!-- Node1&#45;&gt;Node2 -->
<g id="edge1_Node000001_Node000002" class="edge">
<title>Node1&#45;&gt;Node2</title>
<g id="a_edge1_Node000001_Node000002"><a xlink:title=" ">
<path fill="none" stroke="#63b8ff" d="M55.25,-102.44C48.72,-93.62 41.2,-83.47 35.89,-76.3"/>
<polygon fill="#63b8ff" stroke="#63b8ff" points="52.37,-104.43 61.13,-110.38 57.99,-100.26 52.37,-104.43"/>
</a>
</g>
</g>
<!-- Node3 -->
<g id="Node000003" class="node">
<title>Node3</title>
<g id="a_Node000003"><a xlink:href="../../dc/d03/class_pin_hole_img.html" target="_top" xlink:title=" ">
<polygon fill="white" stroke="#666666" points="141.75,-76 76.25,-76 76.25,-56 141.75,-56 141.75,-76"/>
<text text-anchor="middle" x="109" y="-62.5" font-family="Helvetica,sans-Serif" font-size="10.00">PinHoleImg</text>
</a>
</g>
</g>
<!-- Node1&#45;&gt;Node3 -->
<g id="edge2_Node000001_Node000003" class="edge">
<title>Node1&#45;&gt;Node3</title>
<g id="a_edge2_Node000001_Node000003"><a xlink:title=" ">
<path fill="none" stroke="#63b8ff" d="M82.75,-102.44C89.28,-93.62 96.8,-83.47 102.11,-76.3"/>
<polygon fill="#63b8ff" stroke="#63b8ff" points="80.01,-100.26 76.87,-110.38 85.63,-104.43 80.01,-100.26"/>
</a>
</g>
</g>
<!-- Node4 -->
<g id="Node000004" class="node">
<title>Node4</title>
<g id="a_Node000004"><a xlink:href="../../d1/d00/class_d_j_i_img.html" target="_top" xlink:title=" ">
<polygon fill="white" stroke="#666666" points="91.62,-20 46.38,-20 46.38,0 91.62,0 91.62,-20"/>
<text text-anchor="middle" x="69" y="-6.5" font-family="Helvetica,sans-Serif" font-size="10.00">DJIImg</text>
</a>
</g>
</g>
<!-- Node3&#45;&gt;Node4 -->
<g id="edge3_Node000003_Node000004" class="edge">
<title>Node3&#45;&gt;Node4</title>
<g id="a_edge3_Node000003_Node000004"><a xlink:title=" ">
<path fill="none" stroke="#63b8ff" d="M95.25,-46.44C88.72,-37.62 81.2,-27.47 75.89,-20.3"/>
<polygon fill="#63b8ff" stroke="#63b8ff" points="92.37,-48.43 101.13,-54.38 97.99,-44.26 92.37,-48.43"/>
</a>
</g>
</g>
<!-- Node5 -->
<g id="Node000005" class="node">
<title>Node5</title>
<g id="a_Node000005"><a xlink:href="../../d6/d01/class_micasense_img.html" target="_top" xlink:title=" ">
<polygon fill="white" stroke="#666666" points="188.5,-20 109.5,-20 109.5,0 188.5,0 188.5,-20"/>
<text text-anchor="middle" x="149" y="-6.5" font-family="Helvetica,sans-Serif" font-size="10.00">MicasenseImg</text>
</a>
</g>
</g>
<!-- Node3&#45;&gt;Node5 -->
<g id="edge4_Node000003_Node000005" class="edge">
<title>Node3&#45;&gt;Node5</title>
<g id="a_edge4_Node000003_Node000005"><a xlink:title=" ">
<path fill="none" stroke="#63b8ff" d="M122.75,-46.44C129.28,-37.62 136.8,-27.47 142.11,-20.3"/>
<polygon fill="#63b8ff" stroke="#63b8ff" points="120.01,-44.26 116.87,-54.38 125.63,-48.43 120.01,-44.26"/>
</a>
</g>
</g>
</g>
</svg>
