<?xml version="1.0" encoding="UTF-8" standalone="no"?>
<!DOCTYPE svg PUBLIC "-//W3C//DTD SVG 1.1//EN"
 "http://www.w3.org/Graphics/SVG/1.1/DTD/svg11.dtd">
<!-- Generated by graphviz version 10.0.1 (20240210.2158)
 -->
<!-- Title: GEU::Window Pages: 1 -->
<svg width="191pt" height="164pt"
 viewBox="0.00 0.00 190.50 164.00" xmlns="http://www.w3.org/2000/svg" xmlns:xlink="http://www.w3.org/1999/xlink">
<g id="graph0" class="graph" transform="scale(1 1) rotate(0) translate(4 160)">
<title>GEU::Window</title>
<!-- Node1 -->
<g id="Node000001" class="node">
<title>Node1</title>
<g id="a_Node000001"><a xlink:title=" ">
<polygon fill="#999999" stroke="#666666" points="152.25,-156 74.75,-156 74.75,-136 152.25,-136 152.25,-156"/>
<text text-anchor="middle" x="113.5" y="-142.5" font-family="Helvetica,sans-Serif" font-size="10.00">GEU::Window</text>
</a>
</g>
</g>
<!-- Node3 -->
<g id="Node000003" class="node">
<title>Node3</title>
<g id="a_Node000003"><a xlink:title=" ">
<polygon fill="white" stroke="#666666" points="133,-88 0,-88 0,-68 133,-68 133,-88"/>
<text text-anchor="middle" x="66.5" y="-74.5" font-family="Helvetica,sans-Serif" font-size="10.00">std::unique_ptr&lt; Window &gt;</text>
</a>
</g>
</g>
<!-- Node1&#45;&gt;Node3 -->
<g id="edge3_Node000003_Node000001" class="edge">
<title>Node1&#45;&gt;Node3</title>
<g id="a_edge3_Node000003_Node000001"><a xlink:title=" ">
<path fill="none" stroke="#9a32cd" stroke-dasharray="5,2" d="M100.34,-126.52C91.52,-114.13 80.27,-98.33 73.22,-88.44"/>
<polygon fill="#9a32cd" stroke="#9a32cd" points="97.24,-128.2 105.89,-134.31 102.94,-124.13 97.24,-128.2"/>
</a>
</g>
<text text-anchor="middle" x="101.62" y="-108.5" font-family="Helvetica,sans-Serif" font-size="10.00" fill="grey"> ptr</text>
</g>
<!-- Node2 -->
<g id="Node000002" class="node">
<title>Node2</title>
<g id="a_Node000002"><a xlink:href="../../d1/df9/class_g_e_u_1_1_singleton.html" target="_top" xlink:title=" ">
<polygon fill="white" stroke="#666666" points="182.5,-20 46.5,-20 46.5,0 182.5,0 182.5,-20"/>
<text text-anchor="middle" x="114.5" y="-6.5" font-family="Helvetica,sans-Serif" font-size="10.00">GEU::Singleton&lt; Window &gt;</text>
</a>
</g>
</g>
<!-- Node2&#45;&gt;Node1 -->
<g id="edge1_Node000001_Node000002" class="edge">
<title>Node2&#45;&gt;Node1</title>
<g id="a_edge1_Node000001_Node000002"><a xlink:title=" ">
<path fill="none" stroke="#63b8ff" d="M137.8,-28.01C140.51,-31.02 142.88,-34.37 144.5,-38 159.84,-72.45 133.83,-116.5 120.56,-135.54"/>
<polygon fill="#63b8ff" stroke="#63b8ff" points="140.43,-25.68 130.7,-21.48 135.69,-30.83 140.43,-25.68"/>
</a>
</g>
</g>
<!-- Node3&#45;&gt;Node2 -->
<g id="edge2_Node000002_Node000003" class="edge">
<title>Node3&#45;&gt;Node2</title>
<g id="a_edge2_Node000002_Node000003"><a xlink:title=" ">
<path fill="none" stroke="#9a32cd" stroke-dasharray="5,2" d="M79.94,-58.52C88.95,-46.13 100.44,-30.33 107.64,-20.44"/>
<polygon fill="#9a32cd" stroke="#9a32cd" points="77.32,-56.17 74.27,-66.32 82.98,-60.29 77.32,-56.17"/>
</a>
</g>
<text text-anchor="middle" x="118" y="-40.5" font-family="Helvetica,sans-Serif" font-size="10.00" fill="grey"> _instance</text>
</g>
</g>
</svg>
