<?xml version="1.0" encoding="UTF-8" standalone="no"?>
<!DOCTYPE svg PUBLIC "-//W3C//DTD SVG 1.1//EN"
 "http://www.w3.org/Graphics/SVG/1.1/DTD/svg11.dtd">
<!-- Generated by graphviz version 10.0.1 (20240210.2158)
 -->
<!-- Title: C:/GitHub/GEU/GEU/Source/Core/TriangleMesh.h Pages: 1 -->
<svg width="575pt" height="376pt"
 viewBox="0.00 0.00 574.88 376.00" xmlns="http://www.w3.org/2000/svg" xmlns:xlink="http://www.w3.org/1999/xlink">
<g id="graph0" class="graph" transform="scale(1 1) rotate(0) translate(4 372)">
<title>C:/GitHub/GEU/GEU/Source/Core/TriangleMesh.h</title>
<!-- Node1 -->
<g id="Node000001" class="node">
<title>Node1</title>
<g id="a_Node000001"><a xlink:title=" ">
<polygon fill="#999999" stroke="#666666" points="341.5,-368 201,-368 201,-336 341.5,-336 341.5,-368"/>
<text text-anchor="start" x="209" y="-354.5" font-family="Helvetica,sans-Serif" font-size="10.00">C:/GitHub/GEU/GEU/Source</text>
<text text-anchor="middle" x="271.25" y="-342.5" font-family="Helvetica,sans-Serif" font-size="10.00">/Core/TriangleMesh.h</text>
</a>
</g>
</g>
<!-- Node2 -->
<g id="Node000002" class="node">
<title>Node2</title>
<g id="a_Node000002"><a xlink:title=" ">
<polygon fill="#e0e0e0" stroke="#999999" points="104.5,-300 0,-300 0,-280 104.5,-280 104.5,-300"/>
<text text-anchor="middle" x="52.25" y="-286.5" font-family="Helvetica,sans-Serif" font-size="10.00">assimp/Importer.hpp</text>
</a>
</g>
</g>
<!-- Node1&#45;&gt;Node2 -->
<g id="edge1_Node000001_Node000002" class="edge">
<title>Node1&#45;&gt;Node2</title>
<g id="a_edge1_Node000001_Node000002"><a xlink:title=" ">
<path fill="none" stroke="#63b8ff" d="M214.85,-335.55C178.53,-325.6 131.92,-312.83 97.92,-303.51"/>
<polygon fill="#63b8ff" stroke="#63b8ff" points="98.94,-300.16 88.37,-300.9 97.09,-306.91 98.94,-300.16"/>
</a>
</g>
</g>
<!-- Node3 -->
<g id="Node000003" class="node">
<title>Node3</title>
<g id="a_Node000003"><a xlink:title=" ">
<polygon fill="#e0e0e0" stroke="#999999" points="245.75,-132 160.75,-132 160.75,-112 245.75,-112 245.75,-132"/>
<text text-anchor="middle" x="203.25" y="-118.5" font-family="Helvetica,sans-Serif" font-size="10.00">assimp/scene.h</text>
</a>
</g>
</g>
<!-- Node1&#45;&gt;Node3 -->
<g id="edge2_Node000001_Node000003" class="edge">
<title>Node1&#45;&gt;Node3</title>
<g id="a_edge2_Node000001_Node000003"><a xlink:title=" ">
<path fill="none" stroke="#63b8ff" d="M241.47,-335.53C211.56,-318.01 167.62,-286.3 151.25,-244 136.89,-206.89 166.08,-164.32 186.25,-140.86"/>
<polygon fill="#63b8ff" stroke="#63b8ff" points="188.84,-143.22 192.92,-133.44 183.63,-138.54 188.84,-143.22"/>
</a>
</g>
</g>
<!-- Node4 -->
<g id="Node000004" class="node">
<title>Node4</title>
<g id="a_Node000004"><a xlink:href="../../d3/d09/_material_8h.html" target="_top" xlink:title=" ">
<polygon fill="white" stroke="#666666" points="334.62,-244 275.88,-244 275.88,-224 334.62,-224 334.62,-244"/>
<text text-anchor="middle" x="305.25" y="-230.5" font-family="Helvetica,sans-Serif" font-size="10.00">Material.h</text>
</a>
</g>
</g>
<!-- Node1&#45;&gt;Node4 -->
<g id="edge3_Node000001_Node000004" class="edge">
<title>Node1&#45;&gt;Node4</title>
<g id="a_edge3_Node000001_Node000004"><a xlink:title=" ">
<path fill="none" stroke="#63b8ff" d="M275.69,-335.84C281.74,-315.22 292.56,-278.29 299.3,-255.31"/>
<polygon fill="#63b8ff" stroke="#63b8ff" points="302.6,-256.47 302.06,-245.89 295.89,-254.5 302.6,-256.47"/>
</a>
</g>
</g>
<!-- Node11 -->
<g id="Node000011" class="node">
<title>Node11</title>
<g id="a_Node000011"><a xlink:href="../../d7/d42/_texture_list_8h.html" target="_top" xlink:title=" ">
<polygon fill="white" stroke="#666666" points="401.38,-300 329.12,-300 329.12,-280 401.38,-280 401.38,-300"/>
<text text-anchor="middle" x="365.25" y="-286.5" font-family="Helvetica,sans-Serif" font-size="10.00">TextureList.h</text>
</a>
</g>
</g>
<!-- Node1&#45;&gt;Node11 -->
<g id="edge14_Node000001_Node000011" class="edge">
<title>Node1&#45;&gt;Node11</title>
<g id="a_edge14_Node000001_Node000011"><a xlink:title=" ">
<path fill="none" stroke="#63b8ff" d="M295.46,-335.55C309.46,-326.61 327.04,-315.39 341.04,-306.45"/>
<polygon fill="#63b8ff" stroke="#63b8ff" points="342.69,-309.55 349.24,-301.22 338.92,-303.65 342.69,-309.55"/>
</a>
</g>
</g>
<!-- Node13 -->
<g id="Node000013" class="node">
<title>Node13</title>
<g id="a_Node000013"><a xlink:href="../../d0/d8e/_model3_d_8h.html" target="_top" xlink:title=" ">
<polygon fill="white" stroke="#666666" points="273.5,-300 211,-300 211,-280 273.5,-280 273.5,-300"/>
<text text-anchor="middle" x="242.25" y="-286.5" font-family="Helvetica,sans-Serif" font-size="10.00">Model3D.h</text>
</a>
</g>
</g>
<!-- Node1&#45;&gt;Node13 -->
<g id="edge17_Node000001_Node000013" class="edge">
<title>Node1&#45;&gt;Node13</title>
<g id="a_edge17_Node000001_Node000013"><a xlink:title=" ">
<path fill="none" stroke="#63b8ff" d="M263.78,-335.55C260.13,-328 255.7,-318.82 251.8,-310.77"/>
<polygon fill="#63b8ff" stroke="#63b8ff" points="254.96,-309.25 247.46,-301.77 248.66,-312.3 254.96,-309.25"/>
</a>
</g>
</g>
<!-- Node15 -->
<g id="Node000015" class="node">
<title>Node15</title>
<g id="a_Node000015"><a xlink:href="../../d9/dd4/_v_a_o_8h.html" target="_top" xlink:title=" ">
<polygon fill="white" stroke="#666666" points="566.88,-188 521.62,-188 521.62,-168 566.88,-168 566.88,-188"/>
<text text-anchor="middle" x="544.25" y="-174.5" font-family="Helvetica,sans-Serif" font-size="10.00">VAO.h</text>
</a>
</g>
</g>
<!-- Node1&#45;&gt;Node15 -->
<g id="edge20_Node000001_Node000015" class="edge">
<title>Node1&#45;&gt;Node15</title>
<g id="a_edge20_Node000001_Node000015"><a xlink:title=" ">
<path fill="none" stroke="#63b8ff" d="M328.31,-335.59C378.45,-319.63 450.76,-290.41 499.25,-244 513.33,-230.52 525.64,-211.99 533.81,-198.16"/>
<polygon fill="#63b8ff" stroke="#63b8ff" points="536.79,-200.01 538.68,-189.58 530.7,-196.55 536.79,-200.01"/>
</a>
</g>
</g>
<!-- Node4&#45;&gt;Node3 -->
<g id="edge4_Node000004_Node000003" class="edge">
<title>Node4&#45;&gt;Node3</title>
<g id="a_edge4_Node000004_Node000003"><a xlink:title=" ">
<path fill="none" stroke="#63b8ff" d="M295.14,-223.58C285.65,-214.64 271.18,-200.71 259.25,-188 244.81,-172.62 229.21,-154.36 218.15,-141.12"/>
<polygon fill="#63b8ff" stroke="#63b8ff" points="221.03,-139.1 211.95,-133.64 215.64,-143.57 221.03,-139.1"/>
</a>
</g>
</g>
<!-- Node5 -->
<g id="Node000005" class="node">
<title>Node5</title>
<g id="a_Node000005"><a xlink:href="../../d1/d4f/_rendering_shader_8h.html" target="_top" xlink:title=" ">
<polygon fill="white" stroke="#666666" points="503.62,-188 342.88,-188 342.88,-168 503.62,-168 503.62,-188"/>
<text text-anchor="middle" x="423.25" y="-174.5" font-family="Helvetica,sans-Serif" font-size="10.00">Core/Shaders/RenderingShader.h</text>
</a>
</g>
</g>
<!-- Node4&#45;&gt;Node5 -->
<g id="edge5_Node000004_Node000005" class="edge">
<title>Node4&#45;&gt;Node5</title>
<g id="a_edge5_Node000004_Node000005"><a xlink:title=" ">
<path fill="none" stroke="#63b8ff" d="M325.8,-223.59C344.13,-215.21 371.24,-202.8 392.21,-193.21"/>
<polygon fill="#63b8ff" stroke="#63b8ff" points="393.52,-196.45 401.16,-189.11 390.61,-190.09 393.52,-196.45"/>
</a>
</g>
</g>
<!-- Node9 -->
<g id="Node000009" class="node">
<title>Node9</title>
<g id="a_Node000009"><a xlink:href="../../de/dbf/_texture_8h.html" target="_top" xlink:title=" ">
<polygon fill="white" stroke="#666666" points="324.5,-188 268,-188 268,-168 324.5,-168 324.5,-188"/>
<text text-anchor="middle" x="296.25" y="-174.5" font-family="Helvetica,sans-Serif" font-size="10.00">Texture.h</text>
</a>
</g>
</g>
<!-- Node4&#45;&gt;Node9 -->
<g id="edge10_Node000004_Node000009" class="edge">
<title>Node4&#45;&gt;Node9</title>
<g id="a_edge10_Node000004_Node000009"><a xlink:title=" ">
<path fill="none" stroke="#63b8ff" d="M303.68,-223.59C302.57,-216.93 301.04,-207.75 299.66,-199.44"/>
<polygon fill="#63b8ff" stroke="#63b8ff" points="303.14,-199.08 298.05,-189.79 296.24,-200.23 303.14,-199.08"/>
</a>
</g>
</g>
<!-- Node6 -->
<g id="Node000006" class="node">
<title>Node6</title>
<g id="a_Node000006"><a xlink:href="../../d0/dbe/_shader_program_8h.html" target="_top" xlink:title=" ">
<polygon fill="white" stroke="#666666" points="464.12,-132 372.38,-132 372.38,-112 464.12,-112 464.12,-132"/>
<text text-anchor="middle" x="418.25" y="-118.5" font-family="Helvetica,sans-Serif" font-size="10.00">ShaderProgram.h</text>
</a>
</g>
</g>
<!-- Node5&#45;&gt;Node6 -->
<g id="edge6_Node000005_Node000006" class="edge">
<title>Node5&#45;&gt;Node6</title>
<g id="a_edge6_Node000005_Node000006"><a xlink:title=" ">
<path fill="none" stroke="#63b8ff" d="M422.38,-167.59C421.77,-161.01 420.93,-151.96 420.17,-143.73"/>
<polygon fill="#63b8ff" stroke="#63b8ff" points="423.66,-143.44 419.25,-133.81 416.69,-144.09 423.66,-143.44"/>
</a>
</g>
</g>
<!-- Node7 -->
<g id="Node000007" class="node">
<title>Node7</title>
<g id="a_Node000007"><a xlink:href="../../df/d2e/_shader_enums_8h.html" target="_top" xlink:title=" ">
<polygon fill="white" stroke="#666666" points="535.12,-76 449.38,-76 449.38,-56 535.12,-56 535.12,-76"/>
<text text-anchor="middle" x="492.25" y="-62.5" font-family="Helvetica,sans-Serif" font-size="10.00">ShaderEnums.h</text>
</a>
</g>
</g>
<!-- Node5&#45;&gt;Node7 -->
<g id="edge9_Node000005_Node000007" class="edge">
<title>Node5&#45;&gt;Node7</title>
<g id="a_edge9_Node000005_Node000007"><a xlink:title=" ">
<path fill="none" stroke="#63b8ff" d="M437.53,-167.54C448.78,-159.39 464.05,-146.63 473.25,-132 481.78,-118.43 486.61,-100.89 489.27,-87.45"/>
<polygon fill="#63b8ff" stroke="#63b8ff" points="492.65,-88.43 490.88,-77.98 485.75,-87.25 492.65,-88.43"/>
</a>
</g>
</g>
<!-- Node6&#45;&gt;Node7 -->
<g id="edge7_Node000006_Node000007" class="edge">
<title>Node6&#45;&gt;Node7</title>
<g id="a_edge7_Node000006_Node000007"><a xlink:title=" ">
<path fill="none" stroke="#63b8ff" d="M431.14,-111.59C441.96,-103.7 457.66,-92.24 470.44,-82.92"/>
<polygon fill="#63b8ff" stroke="#63b8ff" points="472.27,-85.91 478.29,-77.19 468.14,-80.26 472.27,-85.91"/>
</a>
</g>
</g>
<!-- Node8 -->
<g id="Node000008" class="node">
<title>Node8</title>
<g id="a_Node000008"><a xlink:title=" ">
<polygon fill="#e0e0e0" stroke="#999999" points="522,-20 462.5,-20 462.5,0 522,0 522,-20"/>
<text text-anchor="middle" x="492.25" y="-6.5" font-family="Helvetica,sans-Serif" font-size="10.00">GL/glew.h</text>
</a>
</g>
</g>
<!-- Node7&#45;&gt;Node8 -->
<g id="edge8_Node000007_Node000008" class="edge">
<title>Node7&#45;&gt;Node8</title>
<g id="a_edge8_Node000007_Node000008"><a xlink:title=" ">
<path fill="none" stroke="#63b8ff" d="M492.25,-55.59C492.25,-49.01 492.25,-39.96 492.25,-31.73"/>
<polygon fill="#63b8ff" stroke="#63b8ff" points="495.75,-31.81 492.25,-21.81 488.75,-31.81 495.75,-31.81"/>
</a>
</g>
</g>
<!-- Node9&#45;&gt;Node3 -->
<g id="edge11_Node000009_Node000003" class="edge">
<title>Node9&#45;&gt;Node3</title>
<g id="a_edge11_Node000009_Node000003"><a xlink:title=" ">
<path fill="none" stroke="#63b8ff" d="M280.05,-167.59C266,-159.44 245.42,-147.48 229.09,-138"/>
<polygon fill="#63b8ff" stroke="#63b8ff" points="231.29,-135.23 220.88,-133.24 227.78,-141.29 231.29,-135.23"/>
</a>
</g>
</g>
<!-- Node9&#45;&gt;Node6 -->
<g id="edge13_Node000009_Node000006" class="edge">
<title>Node9&#45;&gt;Node6</title>
<g id="a_edge13_Node000009_Node000006"><a xlink:title=" ">
<path fill="none" stroke="#63b8ff" d="M317.5,-167.59C336.54,-159.17 364.73,-146.69 386.45,-137.07"/>
<polygon fill="#63b8ff" stroke="#63b8ff" points="387.72,-140.34 395.45,-133.09 384.89,-133.94 387.72,-140.34"/>
</a>
</g>
</g>
<!-- Node10 -->
<g id="Node000010" class="node">
<title>Node10</title>
<g id="a_Node000010"><a xlink:href="../../d9/de5/_image_8h.html" target="_top" xlink:title=" ">
<polygon fill="white" stroke="#666666" points="349.12,-132 263.38,-132 263.38,-112 349.12,-112 349.12,-132"/>
<text text-anchor="middle" x="306.25" y="-118.5" font-family="Helvetica,sans-Serif" font-size="10.00">Utilities/Image.h</text>
</a>
</g>
</g>
<!-- Node9&#45;&gt;Node10 -->
<g id="edge12_Node000009_Node000010" class="edge">
<title>Node9&#45;&gt;Node10</title>
<g id="a_edge12_Node000009_Node000010"><a xlink:title=" ">
<path fill="none" stroke="#63b8ff" d="M297.99,-167.59C299.23,-160.93 300.93,-151.75 302.46,-143.44"/>
<polygon fill="#63b8ff" stroke="#63b8ff" points="305.87,-144.26 304.25,-133.79 298.99,-142.98 305.87,-144.26"/>
</a>
</g>
</g>
<!-- Node11&#45;&gt;Node9 -->
<g id="edge15_Node000011_Node000009" class="edge">
<title>Node11&#45;&gt;Node9</title>
<g id="a_edge15_Node000011_Node000009"><a xlink:title=" ">
<path fill="none" stroke="#63b8ff" d="M363.54,-279.56C360.82,-266.33 354.64,-241.89 343.25,-224 336.5,-213.39 326.73,-203.5 317.85,-195.71"/>
<polygon fill="#63b8ff" stroke="#63b8ff" points="320.16,-193.08 310.24,-189.37 315.68,-198.46 320.16,-193.08"/>
</a>
</g>
</g>
<!-- Node12 -->
<g id="Node000012" class="node">
<title>Node12</title>
<g id="a_Node000012"><a xlink:href="../../de/dec/_singleton_8h.html" target="_top" xlink:title=" ">
<polygon fill="white" stroke="#666666" points="490.25,-244 390.25,-244 390.25,-224 490.25,-224 490.25,-244"/>
<text text-anchor="middle" x="440.25" y="-230.5" font-family="Helvetica,sans-Serif" font-size="10.00">Utilities/Singleton.h</text>
</a>
</g>
</g>
<!-- Node11&#45;&gt;Node12 -->
<g id="edge16_Node000011_Node000012" class="edge">
<title>Node11&#45;&gt;Node12</title>
<g id="a_edge16_Node000011_Node000012"><a xlink:title=" ">
<path fill="none" stroke="#63b8ff" d="M378.31,-279.59C389.22,-271.74 405,-260.38 417.91,-251.09"/>
<polygon fill="#63b8ff" stroke="#63b8ff" points="419.79,-254.05 425.86,-245.36 415.7,-248.37 419.79,-254.05"/>
</a>
</g>
</g>
<!-- Node13&#45;&gt;Node4 -->
<g id="edge18_Node000013_Node000004" class="edge">
<title>Node13&#45;&gt;Node4</title>
<g id="a_edge18_Node000013_Node000004"><a xlink:title=" ">
<path fill="none" stroke="#63b8ff" d="M253.22,-279.59C262.17,-271.93 275.02,-260.91 285.71,-251.75"/>
<polygon fill="#63b8ff" stroke="#63b8ff" points="287.94,-254.45 293.25,-245.28 283.38,-249.13 287.94,-254.45"/>
</a>
</g>
</g>
<!-- Node14 -->
<g id="Node000014" class="node">
<title>Node14</title>
<g id="a_Node000014"><a xlink:href="../../d2/d00/_a_a_b_b_8h.html" target="_top" xlink:title=" ">
<polygon fill="white" stroke="#666666" points="257.75,-244 160.75,-244 160.75,-224 257.75,-224 257.75,-244"/>
<text text-anchor="middle" x="209.25" y="-230.5" font-family="Helvetica,sans-Serif" font-size="10.00">Geometry/AABB.h</text>
</a>
</g>
</g>
<!-- Node13&#45;&gt;Node14 -->
<g id="edge19_Node000013_Node000014" class="edge">
<title>Node13&#45;&gt;Node14</title>
<g id="a_edge19_Node000013_Node000014"><a xlink:title=" ">
<path fill="none" stroke="#63b8ff" d="M236.5,-279.59C232.2,-272.55 226.16,-262.67 220.86,-254"/>
<polygon fill="#63b8ff" stroke="#63b8ff" points="223.92,-252.3 215.72,-245.59 217.95,-255.95 223.92,-252.3"/>
</a>
</g>
</g>
<!-- Node15&#45;&gt;Node7 -->
<g id="edge21_Node000015_Node000007" class="edge">
<title>Node15&#45;&gt;Node7</title>
<g id="a_edge21_Node000015_Node000007"><a xlink:title=" ">
<path fill="none" stroke="#63b8ff" d="M539.82,-167.62C531.37,-149.76 512.83,-110.53 501.55,-86.67"/>
<polygon fill="#63b8ff" stroke="#63b8ff" points="504.76,-85.27 497.32,-77.72 498.43,-88.26 504.76,-85.27"/>
</a>
</g>
</g>
</g>
</svg>
