<?xml version="1.0" encoding="UTF-8" standalone="no"?>
<!DOCTYPE svg PUBLIC "-//W3C//DTD SVG 1.1//EN"
 "http://www.w3.org/Graphics/SVG/1.1/DTD/svg11.dtd">
<!-- Generated by graphviz version 10.0.1 (20240210.2158)
 -->
<!-- Title: unibn::Octree&lt; PointT, ContainerT &gt;::Octant Pages: 1 -->
<svg width="164pt" height="120pt"
 viewBox="0.00 0.00 163.50 120.00" xmlns="http://www.w3.org/2000/svg" xmlns:xlink="http://www.w3.org/1999/xlink">
<g id="graph0" class="graph" transform="scale(1 1) rotate(0) translate(4 116)">
<title>unibn::Octree&lt; PointT, ContainerT &gt;::Octant</title>
<!-- Node1 -->
<g id="Node000001" class="node">
<title>Node1</title>
<g id="a_Node000001"><a xlink:title=" ">
<polygon fill="#999999" stroke="#666666" points="114.25,-32 0,-32 0,0 114.25,0 114.25,-32"/>
<text text-anchor="start" x="8" y="-18.5" font-family="Helvetica,sans-Serif" font-size="10.00">unibn::Octree&lt; PointT,</text>
<text text-anchor="middle" x="57.13" y="-6.5" font-family="Helvetica,sans-Serif" font-size="10.00"> ContainerT &gt;::Octant</text>
</a>
</g>
</g>
<!-- Node2 -->
<g id="Node000002" class="node">
<title>Node2</title>
<g id="a_Node000002"><a xlink:href="../../d6/d06/a01633.html" target="_top" xlink:title=" ">
<polygon fill="white" stroke="#666666" points="114.25,-112 0,-112 0,-80 114.25,-80 114.25,-112"/>
<text text-anchor="start" x="8" y="-98.5" font-family="Helvetica,sans-Serif" font-size="10.00">unibn::Octree&lt; PointT,</text>
<text text-anchor="middle" x="57.13" y="-86.5" font-family="Helvetica,sans-Serif" font-size="10.00"> ContainerT &gt;::Octant</text>
</a>
</g>
</g>
<!-- Node2&#45;&gt;Node1 -->
<g id="edge1_Node000001_Node000002" class="edge">
<title>Node2&#45;&gt;Node1</title>
<g id="a_edge1_Node000001_Node000002"><a xlink:title=" ">
<path fill="none" stroke="#9a32cd" stroke-dasharray="5,2" d="M57.13,-68.37C57.13,-56.37 57.13,-42.63 57.13,-32.38"/>
<polygon fill="#9a32cd" stroke="#9a32cd" points="53.63,-68.08 57.13,-78.08 60.63,-68.08 53.63,-68.08"/>
</a>
</g>
<text text-anchor="middle" x="68.75" y="-52.5" font-family="Helvetica,sans-Serif" font-size="10.00" fill="grey"> child</text>
</g>
<!-- Node2&#45;&gt;Node2 -->
<g id="edge2_Node000002_Node000002" class="edge">
<title>Node2&#45;&gt;Node2</title>
<g id="a_edge2_Node000002_Node000002"><a xlink:title=" ">
<path fill="none" stroke="#9a32cd" stroke-dasharray="5,2" d="M125.71,-101.17C129.8,-99.94 132.25,-98.21 132.25,-96 132.25,-92.17 124.91,-89.81 114.45,-88.91"/>
<polygon fill="#9a32cd" stroke="#9a32cd" points="125.21,-97.7 115.94,-102.83 126.38,-104.6 125.21,-97.7"/>
</a>
</g>
<text text-anchor="middle" x="143.88" y="-92.5" font-family="Helvetica,sans-Serif" font-size="10.00" fill="grey"> child</text>
</g>
</g>
</svg>
