<?xml version="1.0" encoding="UTF-8" standalone="no"?>
<!DOCTYPE svg PUBLIC "-//W3C//DTD SVG 1.1//EN"
 "http://www.w3.org/Graphics/SVG/1.1/DTD/svg11.dtd">
<!-- Generated by graphviz version 10.0.1 (20240210.2158)
 -->
<!-- Title: GEU::ImageTreeSegmentation Pages: 1 -->
<svg width="1075pt" height="258pt"
 viewBox="0.00 0.00 1074.75 258.00" xmlns="http://www.w3.org/2000/svg" xmlns:xlink="http://www.w3.org/1999/xlink">
<g id="graph0" class="graph" transform="scale(1 1) rotate(0) translate(4 254)">
<title>GEU::ImageTreeSegmentation</title>
<!-- Node1 -->
<g id="Node000001" class="node">
<title>Node1</title>
<g id="a_Node000001"><a xlink:title=" ">
<polygon fill="#999999" stroke="#666666" points="1066.75,-125 918.75,-125 918.75,-105 1066.75,-105 1066.75,-125"/>
<text text-anchor="middle" x="992.75" y="-111.5" font-family="Helvetica,sans-Serif" font-size="10.00">GEU::ImageTreeSegmentation</text>
</a>
</g>
</g>
<!-- Node2 -->
<g id="Node000002" class="node">
<title>Node2</title>
<g id="a_Node000002"><a xlink:title=" ">
<polygon fill="white" stroke="#666666" points="593.75,-247 435.25,-247 435.25,-215 593.75,-215 593.75,-247"/>
<text text-anchor="start" x="443.25" y="-233.5" font-family="Helvetica,sans-Serif" font-size="10.00">std::map&lt; SEGMENTATION</text>
<text text-anchor="middle" x="514.5" y="-221.5" font-family="Helvetica,sans-Serif" font-size="10.00">_INPUT_CHANNEL, std::string &gt;</text>
</a>
</g>
</g>
<!-- Node2&#45;&gt;Node1 -->
<g id="edge1_Node000001_Node000002" class="edge">
<title>Node2&#45;&gt;Node1</title>
<g id="a_edge1_Node000001_Node000002"><a xlink:title=" ">
<path fill="none" stroke="#9a32cd" stroke-dasharray="5,2" d="M605.19,-237.73C685.96,-240.26 806.17,-235.05 900.75,-193 936.31,-177.19 968.47,-142.86 983.23,-125.5"/>
<polygon fill="#9a32cd" stroke="#9a32cd" points="605.69,-234.25 595.57,-237.39 605.44,-241.25 605.69,-234.25"/>
</a>
</g>
<text text-anchor="middle" x="690.25" y="-240.5" font-family="Helvetica,sans-Serif" font-size="10.00" fill="grey"> INPUT_CHANNELS</text>
</g>
<!-- Node3 -->
<g id="Node000003" class="node">
<title>Node3</title>
<g id="a_Node000003"><a xlink:title=" ">
<polygon fill="white" stroke="#666666" points="190.5,-173 131,-173 131,-153 190.5,-153 190.5,-173"/>
<text text-anchor="middle" x="160.75" y="-159.5" font-family="Helvetica,sans-Serif" font-size="10.00">std::string</text>
</a>
</g>
</g>
<!-- Node3&#45;&gt;Node2 -->
<g id="edge2_Node000002_Node000003" class="edge">
<title>Node3&#45;&gt;Node2</title>
<g id="a_edge2_Node000002_Node000003"><a xlink:title=" ">
<path fill="none" stroke="#9a32cd" stroke-dasharray="5,2" d="M190.41,-178.08C196.27,-180.7 202.49,-183.18 208.5,-185 283.57,-207.79 372.6,-219.56 435.03,-225.46"/>
<polygon fill="#9a32cd" stroke="#9a32cd" points="192.26,-175.08 181.73,-173.93 189.24,-181.4 192.26,-175.08"/>
</a>
</g>
<text text-anchor="middle" x="229.88" y="-197.5" font-family="Helvetica,sans-Serif" font-size="10.00" fill="grey"> elements</text>
</g>
<!-- Node5 -->
<g id="Node000005" class="node">
<title>Node5</title>
<g id="a_Node000005"><a xlink:title=" ">
<polygon fill="white" stroke="#666666" points="567.12,-203 461.88,-203 461.88,-171 567.12,-171 567.12,-203"/>
<text text-anchor="start" x="469.88" y="-189.5" font-family="Helvetica,sans-Serif" font-size="10.00">std::map&lt; unsigned,</text>
<text text-anchor="middle" x="514.5" y="-177.5" font-family="Helvetica,sans-Serif" font-size="10.00"> std::string &gt;</text>
</a>
</g>
</g>
<!-- Node3&#45;&gt;Node5 -->
<g id="edge5_Node000005_Node000003" class="edge">
<title>Node3&#45;&gt;Node5</title>
<g id="a_edge5_Node000005_Node000003"><a xlink:title=" ">
<path fill="none" stroke="#9a32cd" stroke-dasharray="5,2" d="M202.06,-165.75C266.1,-170.12 391.06,-178.65 461.68,-183.46"/>
<polygon fill="#9a32cd" stroke="#9a32cd" points="202.56,-162.28 192.34,-165.09 202.08,-169.26 202.56,-162.28"/>
</a>
</g>
<text text-anchor="middle" x="229.88" y="-171.5" font-family="Helvetica,sans-Serif" font-size="10.00" fill="grey"> elements</text>
</g>
<!-- Node6 -->
<g id="Node000006" class="node">
<title>Node6</title>
<g id="a_Node000006"><a xlink:href="../../d3/d03/a01549.html" target="_top" xlink:title=" ">
<polygon fill="white" stroke="#666666" points="727.88,-146 652.62,-146 652.62,-126 727.88,-126 727.88,-146"/>
<text text-anchor="middle" x="690.25" y="-132.5" font-family="Helvetica,sans-Serif" font-size="10.00">GEU::Texture</text>
</a>
</g>
</g>
<!-- Node3&#45;&gt;Node6 -->
<g id="edge7_Node000006_Node000003" class="edge">
<title>Node3&#45;&gt;Node6</title>
<g id="a_edge7_Node000006_Node000003"><a xlink:title=" ">
<path fill="none" stroke="#9a32cd" stroke-dasharray="5,2" d="M201.97,-153.37C222.05,-149.02 246.8,-144.33 269.25,-142 410.15,-127.35 579.04,-131.48 652.32,-134.32"/>
<polygon fill="#9a32cd" stroke="#9a32cd" points="201.21,-149.96 192.22,-155.55 202.74,-156.79 201.21,-149.96"/>
</a>
</g>
<text text-anchor="middle" x="343.25" y="-156.5" font-family="Helvetica,sans-Serif" font-size="10.00" fill="grey"> TEXTURE_LAYER_IDS</text>
<text text-anchor="middle" x="343.25" y="-144.5" font-family="Helvetica,sans-Serif" font-size="10.00" fill="grey">_filename</text>
</g>
<!-- Node7 -->
<g id="Node000007" class="node">
<title>Node7</title>
<g id="a_Node000007"><a xlink:title=" ">
<polygon fill="white" stroke="#666666" points="402.25,-101 284.25,-101 284.25,-69 402.25,-69 402.25,-101"/>
<text text-anchor="start" x="292.25" y="-87.5" font-family="Helvetica,sans-Serif" font-size="10.00">std::unordered_map</text>
<text text-anchor="middle" x="343.25" y="-75.5" font-family="Helvetica,sans-Serif" font-size="10.00">&lt; uint16_t, std::string &gt;</text>
</a>
</g>
</g>
<!-- Node3&#45;&gt;Node7 -->
<g id="edge9_Node000007_Node000003" class="edge">
<title>Node3&#45;&gt;Node7</title>
<g id="a_edge9_Node000007_Node000003"><a xlink:title=" ">
<path fill="none" stroke="#9a32cd" stroke-dasharray="5,2" d="M174.31,-143.64C182.66,-132.37 194.61,-118.87 208.5,-111 231.25,-98.12 259.27,-91.51 283.79,-88.17"/>
<polygon fill="#9a32cd" stroke="#9a32cd" points="171.66,-141.33 168.82,-151.54 177.4,-145.33 171.66,-141.33"/>
</a>
</g>
<text text-anchor="middle" x="229.88" y="-113.5" font-family="Helvetica,sans-Serif" font-size="10.00" fill="grey"> elements</text>
</g>
<!-- Node4 -->
<g id="Node000004" class="node">
<title>Node4</title>
<g id="a_Node000004"><a xlink:title=" ">
<polygon fill="white" stroke="#666666" points="94,-179 0,-179 0,-147 94,-147 94,-179"/>
<text text-anchor="start" x="8" y="-165.5" font-family="Helvetica,sans-Serif" font-size="10.00">std::basic_string&lt;</text>
<text text-anchor="middle" x="47" y="-153.5" font-family="Helvetica,sans-Serif" font-size="10.00"> Char &gt;</text>
</a>
</g>
</g>
<!-- Node4&#45;&gt;Node3 -->
<g id="edge3_Node000003_Node000004" class="edge">
<title>Node4&#45;&gt;Node3</title>
<g id="a_edge3_Node000003_Node000004"><a xlink:title=" ">
<path fill="none" stroke="#63b8ff" d="M105.71,-163C114.32,-163 122.87,-163 130.55,-163"/>
<polygon fill="#63b8ff" stroke="#63b8ff" points="105.93,-159.5 95.93,-163 105.93,-166.5 105.93,-159.5"/>
</a>
</g>
</g>
<!-- Node5&#45;&gt;Node1 -->
<g id="edge4_Node000001_Node000005" class="edge">
<title>Node5&#45;&gt;Node1</title>
<g id="a_edge4_Node000001_Node000005"><a xlink:title=" ">
<path fill="none" stroke="#9a32cd" stroke-dasharray="5,2" d="M578.64,-193.25C656.27,-198.86 791.17,-201.83 900.75,-169 931.19,-159.88 962.05,-138.42 978.86,-125.47"/>
<polygon fill="#9a32cd" stroke="#9a32cd" points="579.36,-189.79 569.13,-192.52 578.83,-196.77 579.36,-189.79"/>
</a>
</g>
<text text-anchor="middle" x="690.25" y="-198.5" font-family="Helvetica,sans-Serif" font-size="10.00" fill="grey"> CONTOUR_APPROX_MODES</text>
</g>
<!-- Node6&#45;&gt;Node1 -->
<g id="edge6_Node000001_Node000006" class="edge">
<title>Node6&#45;&gt;Node1</title>
<g id="a_edge6_Node000001_Node000006"><a xlink:title=" ">
<path fill="none" stroke="#9a32cd" stroke-dasharray="5,2" d="M739.47,-132.63C787.76,-129.26 862.69,-124.02 918.36,-120.13"/>
<polygon fill="#9a32cd" stroke="#9a32cd" points="739.34,-129.13 729.61,-133.32 739.83,-136.11 739.34,-129.13"/>
</a>
</g>
<text text-anchor="middle" x="843.75" y="-155.5" font-family="Helvetica,sans-Serif" font-size="10.00" fill="grey"> _dilatedImageTexture</text>
<text text-anchor="middle" x="843.75" y="-143.5" font-family="Helvetica,sans-Serif" font-size="10.00" fill="grey">_inputImageTexture</text>
<text text-anchor="middle" x="843.75" y="-131.5" font-family="Helvetica,sans-Serif" font-size="10.00" fill="grey">_thresholdedImageTexture</text>
</g>
<!-- Node7&#45;&gt;Node6 -->
<g id="edge8_Node000006_Node000007" class="edge">
<title>Node7&#45;&gt;Node6</title>
<g id="a_edge8_Node000006_Node000007"><a xlink:title=" ">
<path fill="none" stroke="#9a32cd" stroke-dasharray="5,2" d="M413.96,-88.19C464.35,-91.48 533.82,-98.05 593.75,-111 601.99,-112.78 603.65,-114.66 611.75,-117 624.93,-120.8 639.5,-124.51 652.42,-127.62"/>
<polygon fill="#9a32cd" stroke="#9a32cd" points="414.25,-84.7 404.05,-87.57 413.81,-91.69 414.25,-84.7"/>
</a>
</g>
<text text-anchor="middle" x="514.5" y="-113.5" font-family="Helvetica,sans-Serif" font-size="10.00" fill="grey"> SHADER_VARIABLE</text>
</g>
<!-- Node8 -->
<g id="Node000008" class="node">
<title>Node8</title>
<g id="a_Node000008"><a xlink:title=" ">
<polygon fill="white" stroke="#666666" points="735,-108 645.5,-108 645.5,-88 735,-88 735,-108"/>
<text text-anchor="middle" x="690.25" y="-94.5" font-family="Helvetica,sans-Serif" font-size="10.00">std::vector&lt; int &gt;</text>
</a>
</g>
</g>
<!-- Node8&#45;&gt;Node1 -->
<g id="edge10_Node000001_Node000008" class="edge">
<title>Node8&#45;&gt;Node1</title>
<g id="a_edge10_Node000001_Node000008"><a xlink:title=" ">
<path fill="none" stroke="#9a32cd" stroke-dasharray="5,2" d="M746.94,-95.71C789.23,-94.59 848.76,-94.34 900.75,-99 913.85,-100.17 927.9,-102.24 940.94,-104.5"/>
<polygon fill="#9a32cd" stroke="#9a32cd" points="746.9,-92.21 737.01,-96 747.1,-99.21 746.9,-92.21"/>
</a>
</g>
<text text-anchor="middle" x="843.75" y="-101.5" font-family="Helvetica,sans-Serif" font-size="10.00" fill="grey"> _kernelDilation</text>
</g>
<!-- Node9 -->
<g id="Node000009" class="node">
<title>Node9</title>
<g id="a_Node000009"><a xlink:title=" ">
<polygon fill="white" stroke="#666666" points="721.5,-70 659,-70 659,-50 721.5,-50 721.5,-70"/>
<text text-anchor="middle" x="690.25" y="-56.5" font-family="Helvetica,sans-Serif" font-size="10.00">std::thread</text>
</a>
</g>
</g>
<!-- Node9&#45;&gt;Node1 -->
<g id="edge11_Node000001_Node000009" class="edge">
<title>Node9&#45;&gt;Node1</title>
<g id="a_edge11_Node000001_Node000009"><a xlink:title=" ">
<path fill="none" stroke="#9a32cd" stroke-dasharray="5,2" d="M733.22,-60.3C775.93,-61.41 843.76,-65.44 900.75,-79 925.54,-84.9 952.52,-96.24 970.62,-104.63"/>
<polygon fill="#9a32cd" stroke="#9a32cd" points="733.46,-56.8 723.38,-60.09 733.31,-63.8 733.46,-56.8"/>
</a>
</g>
<text text-anchor="middle" x="843.75" y="-81.5" font-family="Helvetica,sans-Serif" font-size="10.00" fill="grey"> _segmentationThread</text>
</g>
<!-- Node10 -->
<g id="Node000010" class="node">
<title>Node10</title>
<g id="a_Node000010"><a xlink:title=" ">
<polygon fill="white" stroke="#666666" points="768.75,-32 611.75,-32 611.75,0 768.75,0 768.75,-32"/>
<text text-anchor="start" x="619.75" y="-18.5" font-family="Helvetica,sans-Serif" font-size="10.00">std::vector&lt; GEU::ImageTree</text>
<text text-anchor="middle" x="690.25" y="-6.5" font-family="Helvetica,sans-Serif" font-size="10.00">Segmentation::SegmentAABB &gt;</text>
</a>
</g>
</g>
<!-- Node10&#45;&gt;Node1 -->
<g id="edge12_Node000001_Node000010" class="edge">
<title>Node10&#45;&gt;Node1</title>
<g id="a_edge12_Node000001_Node000010"><a xlink:title=" ">
<path fill="none" stroke="#9a32cd" stroke-dasharray="5,2" d="M779.97,-19.43C818.28,-23.34 862.9,-31.25 900.75,-47 933.89,-60.79 965.9,-89.34 981.64,-104.7"/>
<polygon fill="#9a32cd" stroke="#9a32cd" points="780.61,-15.97 770.33,-18.52 779.96,-22.94 780.61,-15.97"/>
</a>
</g>
<text text-anchor="middle" x="843.75" y="-49.5" font-family="Helvetica,sans-Serif" font-size="10.00" fill="grey"> _segmentationResult</text>
</g>
<!-- Node11 -->
<g id="Node000011" class="node">
<title>Node11</title>
<g id="a_Node000011"><a xlink:href="../../d6/d05/a01697.html" target="_top" xlink:title=" ">
<polygon fill="white" stroke="#666666" points="417.25,-32 269.25,-32 269.25,0 417.25,0 417.25,-32"/>
<text text-anchor="start" x="277.25" y="-18.5" font-family="Helvetica,sans-Serif" font-size="10.00">GEU::ImageTreeSegmentation</text>
<text text-anchor="middle" x="343.25" y="-6.5" font-family="Helvetica,sans-Serif" font-size="10.00">::SegmentAABB</text>
</a>
</g>
</g>
<!-- Node11&#45;&gt;Node10 -->
<g id="edge13_Node000010_Node000011" class="edge">
<title>Node11&#45;&gt;Node10</title>
<g id="a_edge13_Node000010_Node000011"><a xlink:title=" ">
<path fill="none" stroke="#9a32cd" stroke-dasharray="5,2" d="M428.69,-16C484.46,-16 557.02,-16 611.4,-16"/>
<polygon fill="#9a32cd" stroke="#9a32cd" points="428.93,-12.5 418.93,-16 428.93,-19.5 428.93,-12.5"/>
</a>
</g>
<text text-anchor="middle" x="514.5" y="-18.5" font-family="Helvetica,sans-Serif" font-size="10.00" fill="grey"> elements</text>
</g>
</g>
</svg>
