<?xml version="1.0" encoding="UTF-8" standalone="no"?>
<!DOCTYPE svg PUBLIC "-//W3C//DTD SVG 1.1//EN"
 "http://www.w3.org/Graphics/SVG/1.1/DTD/svg11.dtd">
<!-- Generated by graphviz version 10.0.1 (20240210.2158)
 -->
<!-- Title: GEU::Application::init Pages: 1 -->
<svg width="308pt" height="298pt"
 viewBox="0.00 0.00 307.75 298.00" xmlns="http://www.w3.org/2000/svg" xmlns:xlink="http://www.w3.org/1999/xlink">
<g id="graph0" class="graph" transform="scale(1 1) rotate(0) translate(4 294)">
<title>GEU::Application::init</title>
<!-- Node1 -->
<g id="Node000001" class="node">
<title>Node1</title>
<g id="a_Node000001"><a xlink:title=" ">
<polygon fill="#999999" stroke="#666666" points="109.75,-146 0,-146 0,-126 109.75,-126 109.75,-146"/>
<text text-anchor="middle" x="54.88" y="-132.5" font-family="Helvetica,sans-Serif" font-size="10.00">GEU::Application::init</text>
</a>
</g>
</g>
<!-- Node2 -->
<g id="Node000002" class="node">
<title>Node2</title>
<g id="a_Node000002"><a xlink:href="../../d6/d02/a01965.html#ad8c64d59af4fc9469b001a38f6d1cca9" target="_top" xlink:title=" ">
<polygon fill="white" stroke="#666666" points="268.25,-290 177.25,-290 177.25,-270 268.25,-270 268.25,-290"/>
<text text-anchor="middle" x="222.75" y="-276.5" font-family="Helvetica,sans-Serif" font-size="10.00">GEU::Image::bits</text>
</a>
</g>
</g>
<!-- Node1&#45;&gt;Node2 -->
<g id="edge1_Node000001_Node000002" class="edge">
<title>Node1&#45;&gt;Node2</title>
<g id="a_edge1_Node000001_Node000002"><a xlink:title=" ">
<path fill="none" stroke="#63b8ff" d="M60.22,-146.29C70.94,-170.38 101.07,-230.68 145.75,-261 151.88,-265.16 158.84,-268.41 166,-270.95"/>
<polygon fill="#63b8ff" stroke="#63b8ff" points="164.9,-274.27 175.49,-273.84 166.94,-267.57 164.9,-274.27"/>
</a>
</g>
</g>
<!-- Node3 -->
<g id="Node000003" class="node">
<title>Node3</title>
<g id="a_Node000003"><a xlink:href="../../d6/d02/a01965.html#a11d5e92ff1b87f268284ba8dde4d35e6" target="_top" xlink:title=" ">
<polygon fill="white" stroke="#666666" points="299.75,-234 145.75,-234 145.75,-214 299.75,-214 299.75,-234"/>
<text text-anchor="middle" x="222.75" y="-220.5" font-family="Helvetica,sans-Serif" font-size="10.00">GEU::Image::flipImageVertically</text>
</a>
</g>
</g>
<!-- Node1&#45;&gt;Node3 -->
<g id="edge2_Node000001_Node000003" class="edge">
<title>Node1&#45;&gt;Node3</title>
<g id="a_edge2_Node000001_Node000003"><a xlink:title=" ">
<path fill="none" stroke="#63b8ff" d="M66.24,-146.31C82.04,-161.44 113.69,-189.52 145.75,-205 149.46,-206.79 153.35,-208.42 157.34,-209.91"/>
<polygon fill="#63b8ff" stroke="#63b8ff" points="156,-213.15 166.6,-213.03 158.24,-206.52 156,-213.15"/>
</a>
</g>
</g>
<!-- Node4 -->
<g id="Node000004" class="node">
<title>Node4</title>
<g id="a_Node000004"><a xlink:href="../../dd/d00/a01893.html#af2ea72a4bd53eb6f69a5c873e4c22017" target="_top" xlink:title=" ">
<polygon fill="white" stroke="#666666" points="276.5,-196 169,-196 169,-164 276.5,-164 276.5,-196"/>
<text text-anchor="start" x="177" y="-182.5" font-family="Helvetica,sans-Serif" font-size="10.00">GEU::InputManager::</text>
<text text-anchor="middle" x="222.75" y="-170.5" font-family="Helvetica,sans-Serif" font-size="10.00">getApplicationState</text>
</a>
</g>
</g>
<!-- Node1&#45;&gt;Node4 -->
<g id="edge4_Node000001_Node000004" class="edge">
<title>Node1&#45;&gt;Node4</title>
<g id="a_edge4_Node000001_Node000004"><a xlink:title=" ">
<path fill="none" stroke="#63b8ff" d="M95.19,-146.43C113.78,-151.36 136.47,-157.38 157.47,-162.95"/>
<polygon fill="#63b8ff" stroke="#63b8ff" points="156.58,-166.33 167.14,-165.51 158.37,-159.57 156.58,-166.33"/>
</a>
</g>
</g>
<!-- Node5 -->
<g id="Node000005" class="node">
<title>Node5</title>
<g id="a_Node000005"><a xlink:href="../../d6/d02/a01965.html#a382c634b44f2871503f3e46d6e622010" target="_top" xlink:title=" ">
<polygon fill="white" stroke="#666666" points="281,-146 164.5,-146 164.5,-126 281,-126 281,-146"/>
<text text-anchor="middle" x="222.75" y="-132.5" font-family="Helvetica,sans-Serif" font-size="10.00">GEU::Image::getHeight</text>
</a>
</g>
</g>
<!-- Node1&#45;&gt;Node5 -->
<g id="edge5_Node000001_Node000005" class="edge">
<title>Node1&#45;&gt;Node5</title>
<g id="a_edge5_Node000001_Node000005"><a xlink:title=" ">
<path fill="none" stroke="#63b8ff" d="M110.19,-136C123.83,-136 138.65,-136 152.9,-136"/>
<polygon fill="#63b8ff" stroke="#63b8ff" points="152.66,-139.5 162.66,-136 152.66,-132.5 152.66,-139.5"/>
</a>
</g>
</g>
<!-- Node6 -->
<g id="Node000006" class="node">
<title>Node6</title>
<g id="a_Node000006"><a xlink:href="../../d6/d01/a02029.html#a47c7e7c2110f4cc59c9ff1f5594c366e" target="_top" xlink:title=" ">
<polygon fill="white" stroke="#666666" points="298.25,-108 147.25,-108 147.25,-76 298.25,-76 298.25,-108"/>
<text text-anchor="start" x="155.25" y="-94.5" font-family="Helvetica,sans-Serif" font-size="10.00">GEU::Singleton&lt; InputManager</text>
<text text-anchor="middle" x="222.75" y="-82.5" font-family="Helvetica,sans-Serif" font-size="10.00"> &gt;::getInstance</text>
</a>
</g>
</g>
<!-- Node1&#45;&gt;Node6 -->
<g id="edge6_Node000001_Node000006" class="edge">
<title>Node1&#45;&gt;Node6</title>
<g id="a_edge6_Node000001_Node000006"><a xlink:title=" ">
<path fill="none" stroke="#63b8ff" d="M95.19,-125.57C111.21,-121.32 130.27,-116.27 148.67,-111.39"/>
<polygon fill="#63b8ff" stroke="#63b8ff" points="149.47,-114.79 158.24,-108.85 147.68,-108.03 149.47,-114.79"/>
</a>
</g>
</g>
<!-- Node7 -->
<g id="Node000007" class="node">
<title>Node7</title>
<g id="a_Node000007"><a xlink:href="../../d6/d02/a01965.html#a32f6f1c2cf20229da85e05a4ff2d272d" target="_top" xlink:title=" ">
<polygon fill="white" stroke="#666666" points="279.88,-58 165.62,-58 165.62,-38 279.88,-38 279.88,-58"/>
<text text-anchor="middle" x="222.75" y="-44.5" font-family="Helvetica,sans-Serif" font-size="10.00">GEU::Image::getWidth</text>
</a>
</g>
</g>
<!-- Node1&#45;&gt;Node7 -->
<g id="edge7_Node000001_Node000007" class="edge">
<title>Node1&#45;&gt;Node7</title>
<g id="a_edge7_Node000001_Node000007"><a xlink:title=" ">
<path fill="none" stroke="#63b8ff" d="M66.24,-125.69C82.04,-110.56 113.69,-82.48 145.75,-67 149.46,-65.21 153.35,-63.58 157.34,-62.09"/>
<polygon fill="#63b8ff" stroke="#63b8ff" points="158.24,-65.48 166.6,-58.97 156,-58.85 158.24,-65.48"/>
</a>
</g>
</g>
<!-- Node8 -->
<g id="Node000008" class="node">
<title>Node8</title>
<g id="a_Node000008"><a xlink:href="../../dd/d00/a01893.html#acddb82f6e1cd4654b4e708f24f8be001" target="_top" xlink:title=" ">
<polygon fill="white" stroke="#666666" points="282.88,-20 162.62,-20 162.62,0 282.88,0 282.88,-20"/>
<text text-anchor="middle" x="222.75" y="-6.5" font-family="Helvetica,sans-Serif" font-size="10.00">GEU::InputManager::init</text>
</a>
</g>
</g>
<!-- Node1&#45;&gt;Node8 -->
<g id="edge8_Node000001_Node000008" class="edge">
<title>Node1&#45;&gt;Node8</title>
<g id="a_edge8_Node000001_Node000008"><a xlink:title=" ">
<path fill="none" stroke="#63b8ff" d="M61.54,-125.61C73.85,-104.04 105.22,-54.33 145.75,-29 148.17,-27.49 150.71,-26.09 153.32,-24.81"/>
<polygon fill="#63b8ff" stroke="#63b8ff" points="154.5,-28.11 162.33,-20.99 151.76,-21.67 154.5,-28.11"/>
</a>
</g>
</g>
<!-- Node3&#45;&gt;Node3 -->
<g id="edge3_Node000003_Node000003" class="edge">
<title>Node3&#45;&gt;Node3</title>
<g id="a_edge3_Node000003_Node000003"><a xlink:title=" ">
<path fill="none" stroke="#63b8ff" d="M196.08,-234.34C184.68,-242.98 193.57,-252 222.75,-252 238.71,-252 248.6,-249.3 252.42,-245.44"/>
<polygon fill="#63b8ff" stroke="#63b8ff" points="255.8,-244.54 249.82,-235.8 249.05,-246.37 255.8,-244.54"/>
</a>
</g>
</g>
</g>
</svg>
