<?xml version="1.0" encoding="UTF-8" standalone="no"?>
<!DOCTYPE svg PUBLIC "-//W3C//DTD SVG 1.1//EN"
 "http://www.w3.org/Graphics/SVG/1.1/DTD/svg11.dtd">
<!-- Generated by graphviz version 10.0.1 (20240210.2158)
 -->
<!-- Title: GEU::InputManager::suscribeResize Pages: 1 -->
<svg width="513pt" height="40pt"
 viewBox="0.00 0.00 513.00 40.00" xmlns="http://www.w3.org/2000/svg" xmlns:xlink="http://www.w3.org/1999/xlink">
<g id="graph0" class="graph" transform="scale(1 1) rotate(0) translate(4 36)">
<title>GEU::InputManager::suscribeResize</title>
<!-- Node1 -->
<g id="Node000001" class="node">
<title>Node1</title>
<g id="a_Node000001"><a xlink:title=" ">
<polygon fill="#999999" stroke="#666666" points="505,-32 397.5,-32 397.5,0 505,0 505,-32"/>
<text text-anchor="start" x="405.5" y="-18.5" font-family="Helvetica,sans-Serif" font-size="10.00">GEU::InputManager::</text>
<text text-anchor="middle" x="451.25" y="-6.5" font-family="Helvetica,sans-Serif" font-size="10.00">suscribeResize</text>
</a>
</g>
</g>
<!-- Node2 -->
<g id="Node000002" class="node">
<title>Node2</title>
<g id="a_Node000002"><a xlink:href="../../de/dac/class_g_e_u_1_1_renderer.html#a06ba326c97a0c7b854d66b528f8a4e45" target="_top" xlink:title=" ">
<polygon fill="white" stroke="#666666" points="361.5,-26 205.25,-26 205.25,-6 361.5,-6 361.5,-26"/>
<text text-anchor="middle" x="283.38" y="-12.5" font-family="Helvetica,sans-Serif" font-size="10.00">GEU::Renderer::prepareOpenGL</text>
</a>
</g>
</g>
<!-- Node1&#45;&gt;Node2 -->
<g id="edge1_Node000001_Node000002" class="edge">
<title>Node1&#45;&gt;Node2</title>
<g id="a_edge1_Node000001_Node000002"><a xlink:title=" ">
<path fill="none" stroke="#63b8ff" d="M385.96,-16C378.08,-16 369.96,-16 361.9,-16"/>
<polygon fill="#63b8ff" stroke="#63b8ff" points="385.8,-19.5 395.8,-16 385.8,-12.5 385.8,-19.5"/>
</a>
</g>
</g>
<!-- Node3 -->
<g id="Node000003" class="node">
<title>Node3</title>
<g id="a_Node000003"><a xlink:href="../../d8/d78/class_g_e_u_1_1_window.html#a3fbeee11584ea7083a050199f25777f0" target="_top" xlink:title=" ">
<polygon fill="white" stroke="#666666" points="169.25,-26 73,-26 73,-6 169.25,-6 169.25,-26"/>
<text text-anchor="middle" x="121.12" y="-12.5" font-family="Helvetica,sans-Serif" font-size="10.00">GEU::Window::init</text>
</a>
</g>
</g>
<!-- Node2&#45;&gt;Node3 -->
<g id="edge2_Node000002_Node000003" class="edge">
<title>Node2&#45;&gt;Node3</title>
<g id="a_edge2_Node000002_Node000003"><a xlink:title=" ">
<path fill="none" stroke="#63b8ff" d="M193.67,-16C185.34,-16 177.14,-16 169.43,-16"/>
<polygon fill="#63b8ff" stroke="#63b8ff" points="193.55,-19.5 203.55,-16 193.55,-12.5 193.55,-19.5"/>
</a>
</g>
</g>
<!-- Node4 -->
<g id="Node000004" class="node">
<title>Node4</title>
<g id="a_Node000004"><a xlink:href="../../df/d0a/main_8cpp.html#a3c04138a5bfe5d72780bb7e82a18e627" target="_top" xlink:title=" ">
<polygon fill="white" stroke="#666666" points="37,-26 0,-26 0,-6 37,-6 37,-26"/>
<text text-anchor="middle" x="18.5" y="-12.5" font-family="Helvetica,sans-Serif" font-size="10.00">main</text>
</a>
</g>
</g>
<!-- Node3&#45;&gt;Node4 -->
<g id="edge3_Node000003_Node000004" class="edge">
<title>Node3&#45;&gt;Node4</title>
<g id="a_edge3_Node000003_Node000004"><a xlink:title=" ">
<path fill="none" stroke="#63b8ff" d="M61.52,-16C52.72,-16 44.28,-16 37.29,-16"/>
<polygon fill="#63b8ff" stroke="#63b8ff" points="61.25,-19.5 71.25,-16 61.25,-12.5 61.25,-19.5"/>
</a>
</g>
</g>
</g>
</svg>
