<?xml version="1.0" encoding="UTF-8" standalone="no"?>
<!DOCTYPE svg PUBLIC "-//W3C//DTD SVG 1.1//EN"
 "http://www.w3.org/Graphics/SVG/1.1/DTD/svg11.dtd">
<!-- Generated by graphviz version 10.0.1 (20240210.2158)
 -->
<!-- Title: ImGui::InsertNotification Pages: 1 -->
<svg width="616pt" height="668pt"
 viewBox="0.00 0.00 615.75 668.00" xmlns="http://www.w3.org/2000/svg" xmlns:xlink="http://www.w3.org/1999/xlink">
<g id="graph0" class="graph" transform="scale(1 1) rotate(0) translate(4 664)">
<title>ImGui::InsertNotification</title>
<!-- Node1 -->
<g id="Node000001" class="node">
<title>Node1</title>
<g id="a_Node000001"><a xlink:title=" ">
<polygon fill="#999999" stroke="#666666" points="607.75,-328 488.25,-328 488.25,-308 607.75,-308 607.75,-328"/>
<text text-anchor="middle" x="548" y="-314.5" font-family="Helvetica,sans-Serif" font-size="10.00">ImGui::InsertNotification</text>
</a>
</g>
</g>
<!-- Node2 -->
<g id="Node000002" class="node">
<title>Node2</title>
<g id="a_Node000002"><a xlink:href="../../d9/d01/class_g_e_u_1_1_picking_window.html#a898e5f19fa3ef08a325e02d15e15532f" target="_top" xlink:title=" ">
<polygon fill="white" stroke="#666666" points="421.12,-660 311.38,-660 311.38,-628 421.12,-628 421.12,-660"/>
<text text-anchor="start" x="319.38" y="-646.5" font-family="Helvetica,sans-Serif" font-size="10.00">GEU::PickingWindow</text>
<text text-anchor="middle" x="366.25" y="-634.5" font-family="Helvetica,sans-Serif" font-size="10.00">::endPicking</text>
</a>
</g>
</g>
<!-- Node1&#45;&gt;Node2 -->
<g id="edge1_Node000001_Node000002" class="edge">
<title>Node1&#45;&gt;Node2</title>
<g id="a_edge1_Node000001_Node000002"><a xlink:title=" ">
<path fill="none" stroke="#63b8ff" d="M546.76,-339.66C544.96,-394.56 532.44,-540.32 452.25,-619 443.8,-627.3 432.74,-632.86 421.41,-636.59"/>
<polygon fill="#63b8ff" stroke="#63b8ff" points="550.26,-339.89 546.99,-329.81 543.26,-339.73 550.26,-339.89"/>
</a>
</g>
</g>
<!-- Node3 -->
<g id="Node000003" class="node">
<title>Node3</title>
<g id="a_Node000003"><a xlink:href="../../dd/d03/class_g_e_u_1_1_procedural_generator.html#a82fe07b0265c5eadc11266fdc2b6828d" target="_top" xlink:title=" ">
<polygon fill="white" stroke="#666666" points="432.38,-610 300.12,-610 300.12,-578 432.38,-578 432.38,-610"/>
<text text-anchor="start" x="308.12" y="-596.5" font-family="Helvetica,sans-Serif" font-size="10.00">GEU::ProceduralGenerator</text>
<text text-anchor="middle" x="366.25" y="-584.5" font-family="Helvetica,sans-Serif" font-size="10.00">::generateVoxelGrid</text>
</a>
</g>
</g>
<!-- Node1&#45;&gt;Node3 -->
<g id="edge2_Node000001_Node000003" class="edge">
<title>Node1&#45;&gt;Node3</title>
<g id="a_edge2_Node000001_Node000003"><a xlink:title=" ">
<path fill="none" stroke="#63b8ff" d="M545.19,-339.6C539.98,-387.94 520.58,-505.6 452.25,-569 446.61,-574.23 439.93,-578.37 432.84,-581.65"/>
<polygon fill="#63b8ff" stroke="#63b8ff" points="548.65,-340.18 546.13,-329.89 541.69,-339.51 548.65,-340.18"/>
</a>
</g>
</g>
<!-- Node4 -->
<g id="Node000004" class="node">
<title>Node4</title>
<g id="a_Node000004"><a xlink:href="../../d2/d03/class_g_e_u_1_1_n_a_s_session.html#a1fe25df4d2b4f620117bfb339e7d8ee4" target="_top" xlink:title="Get file information from FTP file.">
<polygon fill="white" stroke="#666666" points="440.62,-560 291.88,-560 291.88,-540 440.62,-540 440.62,-560"/>
<text text-anchor="middle" x="366.25" y="-546.5" font-family="Helvetica,sans-Serif" font-size="10.00">GEU::NASSession::getFileInfo</text>
</a>
</g>
</g>
<!-- Node1&#45;&gt;Node4 -->
<g id="edge3_Node000001_Node000004" class="edge">
<title>Node1&#45;&gt;Node4</title>
<g id="a_edge3_Node000001_Node000004"><a xlink:title=" ">
<path fill="none" stroke="#63b8ff" d="M543.9,-339.54C536.49,-382.9 513.53,-480.83 452.25,-531 448.04,-534.45 443.33,-537.3 438.35,-539.66"/>
<polygon fill="#63b8ff" stroke="#63b8ff" points="547.33,-340.32 545.43,-329.89 540.41,-339.22 547.33,-340.32"/>
</a>
</g>
</g>
<!-- Node5 -->
<g id="Node000005" class="node">
<title>Node5</title>
<g id="a_Node000005"><a xlink:href="../../d2/d03/class_g_e_u_1_1_n_a_s_session.html#ae92eabdf53aa53955bde7249ee78ae0b" target="_top" xlink:title="Downloads remote file to local file system.">
<polygon fill="white" stroke="#666666" points="450,-522 282.5,-522 282.5,-502 450,-502 450,-522"/>
<text text-anchor="middle" x="366.25" y="-508.5" font-family="Helvetica,sans-Serif" font-size="10.00">GEU::NASSession::getRemoteFile</text>
</a>
</g>
</g>
<!-- Node1&#45;&gt;Node5 -->
<g id="edge4_Node000001_Node000005" class="edge">
<title>Node1&#45;&gt;Node5</title>
<g id="a_edge4_Node000001_Node000005"><a xlink:title=" ">
<path fill="none" stroke="#63b8ff" d="M541.73,-339.26C531.32,-376.54 504.5,-453.51 452.25,-493 447.67,-496.46 442.57,-499.32 437.22,-501.67"/>
<polygon fill="#63b8ff" stroke="#63b8ff" points="545.08,-340.27 544.25,-329.71 538.31,-338.48 545.08,-340.27"/>
</a>
</g>
</g>
<!-- Node6 -->
<g id="Node000006" class="node">
<title>Node6</title>
<g id="a_Node000006"><a xlink:href="../../d2/d03/class_g_e_u_1_1_n_a_s_session.html#aab7e02581d64801797d4e1799c0a4137" target="_top" xlink:title="Downloads remote file to a string.">
<polygon fill="white" stroke="#666666" points="442.12,-484 290.38,-484 290.38,-452 442.12,-452 442.12,-484"/>
<text text-anchor="start" x="298.38" y="-470.5" font-family="Helvetica,sans-Serif" font-size="10.00">GEU::NASSession::getRemote</text>
<text text-anchor="middle" x="366.25" y="-458.5" font-family="Helvetica,sans-Serif" font-size="10.00">FileAsFileStream</text>
</a>
</g>
</g>
<!-- Node1&#45;&gt;Node6 -->
<g id="edge5_Node000001_Node000006" class="edge">
<title>Node1&#45;&gt;Node6</title>
<g id="a_edge5_Node000001_Node000006"><a xlink:title=" ">
<path fill="none" stroke="#63b8ff" d="M536.97,-338.29C522.21,-366.05 492.04,-415.54 452.25,-443 447.57,-446.23 442.46,-449.05 437.15,-451.51"/>
<polygon fill="#63b8ff" stroke="#63b8ff" points="540.02,-340.01 541.48,-329.51 533.79,-336.81 540.02,-340.01"/>
</a>
</g>
</g>
<!-- Node9 -->
<g id="Node000009" class="node">
<title>Node9</title>
<g id="a_Node000009"><a xlink:href="../../d2/d03/class_g_e_u_1_1_n_a_s_session.html#a45f35a0eea1be47d162b6e8eaee7136a" target="_top" xlink:title="Downloads remote directory to local file system.">
<polygon fill="white" stroke="#666666" points="442.12,-434 290.38,-434 290.38,-402 442.12,-402 442.12,-434"/>
<text text-anchor="start" x="298.38" y="-420.5" font-family="Helvetica,sans-Serif" font-size="10.00">GEU::NASSession::getRemote</text>
<text text-anchor="middle" x="366.25" y="-408.5" font-family="Helvetica,sans-Serif" font-size="10.00">Folder</text>
</a>
</g>
</g>
<!-- Node1&#45;&gt;Node9 -->
<g id="edge8_Node000001_Node000009" class="edge">
<title>Node1&#45;&gt;Node9</title>
<g id="a_edge8_Node000001_Node000009"><a xlink:title=" ">
<path fill="none" stroke="#63b8ff" d="M528.96,-335.82C510.92,-352.72 481.71,-377.75 452.25,-393 446.1,-396.18 439.49,-399.02 432.77,-401.53"/>
<polygon fill="#63b8ff" stroke="#63b8ff" points="530.97,-338.74 535.77,-329.3 526.13,-333.68 530.97,-338.74"/>
</a>
</g>
</g>
<!-- Node10 -->
<g id="Node000010" class="node">
<title>Node10</title>
<g id="a_Node000010"><a xlink:href="../../d2/d03/class_g_e_u_1_1_n_a_s_session.html#a8ba33518127084da74a31f3d97903cf1" target="_top" xlink:title=" ">
<polygon fill="white" stroke="#666666" points="440.62,-384 291.88,-384 291.88,-352 440.62,-352 440.62,-384"/>
<text text-anchor="start" x="299.88" y="-370.5" font-family="Helvetica,sans-Serif" font-size="10.00">GEU::NASSession::getShared</text>
<text text-anchor="middle" x="366.25" y="-358.5" font-family="Helvetica,sans-Serif" font-size="10.00">Listings</text>
</a>
</g>
</g>
<!-- Node1&#45;&gt;Node10 -->
<g id="edge9_Node000001_Node000010" class="edge">
<title>Node1&#45;&gt;Node10</title>
<g id="a_edge9_Node000001_Node000010"><a xlink:title=" ">
<path fill="none" stroke="#63b8ff" d="M498.48,-331.5C476.29,-337.67 449.81,-345.03 426.46,-351.53"/>
<polygon fill="#63b8ff" stroke="#63b8ff" points="499.16,-334.94 507.86,-328.89 497.29,-328.2 499.16,-334.94"/>
</a>
</g>
</g>
<!-- Node11 -->
<g id="Node000011" class="node">
<title>Node11</title>
<g id="a_Node000011"><a xlink:href="../../d3/d07/namespace_g_e_u_1_1_gui_utilities.html#a84bb8e77631e925660765d1e2e9104c2" target="_top" xlink:title=" ">
<polygon fill="white" stroke="#666666" points="414.38,-334 318.12,-334 318.12,-302 414.38,-302 414.38,-334"/>
<text text-anchor="start" x="326.12" y="-320.5" font-family="Helvetica,sans-Serif" font-size="10.00">GEU::GuiUtilities::</text>
<text text-anchor="middle" x="366.25" y="-308.5" font-family="Helvetica,sans-Serif" font-size="10.00">InsertToast</text>
</a>
</g>
</g>
<!-- Node1&#45;&gt;Node11 -->
<g id="edge10_Node000001_Node000011" class="edge">
<title>Node1&#45;&gt;Node11</title>
<g id="a_edge10_Node000001_Node000011"><a xlink:title=" ">
<path fill="none" stroke="#63b8ff" d="M476.8,-318C456.05,-318 433.83,-318 414.86,-318"/>
<polygon fill="#63b8ff" stroke="#63b8ff" points="476.63,-321.5 486.63,-318 476.63,-314.5 476.63,-321.5"/>
</a>
</g>
</g>
<!-- Node15 -->
<g id="Node000015" class="node">
<title>Node15</title>
<g id="a_Node000015"><a xlink:href="../../d3/d07/namespace_g_e_u_1_1_gui_utilities.html#ae19de031d1878518f739c269fde6a4ae" target="_top" xlink:title=" ">
<polygon fill="white" stroke="#666666" points="414.38,-284 318.12,-284 318.12,-252 414.38,-252 414.38,-284"/>
<text text-anchor="start" x="326.12" y="-270.5" font-family="Helvetica,sans-Serif" font-size="10.00">GEU::GuiUtilities::</text>
<text text-anchor="middle" x="366.25" y="-258.5" font-family="Helvetica,sans-Serif" font-size="10.00">InsertToast</text>
</a>
</g>
</g>
<!-- Node1&#45;&gt;Node15 -->
<g id="edge14_Node000001_Node000015" class="edge">
<title>Node1&#45;&gt;Node15</title>
<g id="a_edge14_Node000001_Node000015"><a xlink:title=" ">
<path fill="none" stroke="#63b8ff" d="M498.23,-304.43C472.31,-297.22 440.57,-288.39 414.83,-281.23"/>
<polygon fill="#63b8ff" stroke="#63b8ff" points="497.29,-307.8 507.86,-307.11 499.16,-301.06 497.29,-307.8"/>
</a>
</g>
</g>
<!-- Node16 -->
<g id="Node000016" class="node">
<title>Node16</title>
<g id="a_Node000016"><a xlink:href="../../dd/d01/class_g_e_u_1_1_file_manager.html#aebeb11b59981efb0536a7e57fe284120" target="_top" xlink:title=" ">
<polygon fill="white" stroke="#666666" points="434.25,-234 298.25,-234 298.25,-214 434.25,-214 434.25,-234"/>
<text text-anchor="middle" x="366.25" y="-220.5" font-family="Helvetica,sans-Serif" font-size="10.00">GEU::FileManager::loadLas</text>
</a>
</g>
</g>
<!-- Node1&#45;&gt;Node16 -->
<g id="edge15_Node000001_Node000016" class="edge">
<title>Node1&#45;&gt;Node16</title>
<g id="a_edge15_Node000001_Node000016"><a xlink:title=" ">
<path fill="none" stroke="#63b8ff" d="M529.46,-300.03C511.61,-282.8 482.36,-257.35 452.25,-243 445.02,-239.55 437.13,-236.72 429.18,-234.39"/>
<polygon fill="#63b8ff" stroke="#63b8ff" points="526.62,-302.14 536.19,-306.68 531.54,-297.16 526.62,-302.14"/>
</a>
</g>
</g>
<!-- Node17 -->
<g id="Node000017" class="node">
<title>Node17</title>
<g id="a_Node000017"><a xlink:href="../../dd/d01/class_g_e_u_1_1_file_manager.html#ad9c308882e7e55a84874880c56515c92" target="_top" xlink:title=" ">
<polygon fill="white" stroke="#666666" points="433.5,-196 299,-196 299,-176 433.5,-176 433.5,-196"/>
<text text-anchor="middle" x="366.25" y="-182.5" font-family="Helvetica,sans-Serif" font-size="10.00">GEU::FileManager::loadPly</text>
</a>
</g>
</g>
<!-- Node1&#45;&gt;Node17 -->
<g id="edge16_Node000001_Node000017" class="edge">
<title>Node1&#45;&gt;Node17</title>
<g id="a_edge16_Node000001_Node000017"><a xlink:title=" ">
<path fill="none" stroke="#63b8ff" d="M535.81,-297.83C520.45,-272.1 490.34,-228.17 452.25,-205 446.57,-201.54 440.32,-198.71 433.89,-196.4"/>
<polygon fill="#63b8ff" stroke="#63b8ff" points="532.68,-299.41 540.72,-306.32 538.74,-295.91 532.68,-299.41"/>
</a>
</g>
</g>
<!-- Node18 -->
<g id="Node000018" class="node">
<title>Node18</title>
<g id="a_Node000018"><a xlink:href="../../d6/d00/class_g_e_u_1_1_tree_segmentation_g_u_i_adapter.html#a220f4253fbaddc522c033e939717f015" target="_top" xlink:title="Draw Export to Database tab to handle remote conection and upload.">
<polygon fill="white" stroke="#666666" points="452.25,-158 280.25,-158 280.25,-126 452.25,-126 452.25,-158"/>
<text text-anchor="start" x="288.25" y="-144.5" font-family="Helvetica,sans-Serif" font-size="10.00">GEU::TreeSegmentationGUIAdapter</text>
<text text-anchor="middle" x="366.25" y="-132.5" font-family="Helvetica,sans-Serif" font-size="10.00">::makeSegmentDatabaseGUI</text>
</a>
</g>
</g>
<!-- Node1&#45;&gt;Node18 -->
<g id="edge17_Node000001_Node000018" class="edge">
<title>Node1&#45;&gt;Node18</title>
<g id="a_edge17_Node000001_Node000018"><a xlink:title=" ">
<path fill="none" stroke="#63b8ff" d="M539.58,-297.24C526.85,-264.59 497.73,-201.45 452.25,-167 447.96,-163.75 443.25,-160.92 438.32,-158.46"/>
<polygon fill="#63b8ff" stroke="#63b8ff" points="536.21,-298.22 543,-306.36 542.76,-295.76 536.21,-298.22"/>
</a>
</g>
</g>
<!-- Node19 -->
<g id="Node000019" class="node">
<title>Node19</title>
<g id="a_Node000019"><a xlink:href="../../dd/d03/class_g_e_u_1_1_procedural_generator.html#a0b38aef5c1b02e9cdf3cff49bd708297" target="_top" xlink:title=" ">
<polygon fill="white" stroke="#666666" points="432.75,-108 299.75,-108 299.75,-76 432.75,-76 432.75,-108"/>
<text text-anchor="start" x="307.75" y="-94.5" font-family="Helvetica,sans-Serif" font-size="10.00">GEU::ProceduralGenerator</text>
<text text-anchor="middle" x="366.25" y="-82.5" font-family="Helvetica,sans-Serif" font-size="10.00">::RegionRGBSegmentation</text>
</a>
</g>
</g>
<!-- Node1&#45;&gt;Node19 -->
<g id="edge18_Node000001_Node000019" class="edge">
<title>Node1&#45;&gt;Node19</title>
<g id="a_edge18_Node000001_Node000019"><a xlink:title=" ">
<path fill="none" stroke="#63b8ff" d="M542.96,-296.6C534.07,-255.56 508.96,-165.56 452.25,-117 446.53,-112.1 439.88,-108.16 432.87,-104.99"/>
<polygon fill="#63b8ff" stroke="#63b8ff" points="539.53,-297.3 544.95,-306.4 546.39,-295.9 539.53,-297.3"/>
</a>
</g>
</g>
<!-- Node20 -->
<g id="Node000020" class="node">
<title>Node20</title>
<g id="a_Node000020"><a xlink:href="../../d2/d03/class_g_e_u_1_1_n_a_s_session.html#aded81e48475f28cd507f6b7136974645" target="_top" xlink:title="Uploads local file to remote directory.">
<polygon fill="white" stroke="#666666" points="440.62,-58 291.88,-58 291.88,-38 440.62,-38 440.62,-58"/>
<text text-anchor="middle" x="366.25" y="-44.5" font-family="Helvetica,sans-Serif" font-size="10.00">GEU::NASSession::uploadFile</text>
</a>
</g>
</g>
<!-- Node1&#45;&gt;Node20 -->
<g id="edge19_Node000001_Node000020" class="edge">
<title>Node1&#45;&gt;Node20</title>
<g id="a_edge19_Node000001_Node000020"><a xlink:title=" ">
<path fill="none" stroke="#63b8ff" d="M545.52,-296.41C540.96,-247.6 522.8,-128.24 452.25,-67 448.37,-63.63 444.02,-60.82 439.39,-58.48"/>
<polygon fill="#63b8ff" stroke="#63b8ff" points="542.02,-296.52 546.32,-306.21 548.99,-295.95 542.02,-296.52"/>
</a>
</g>
</g>
<!-- Node21 -->
<g id="Node000021" class="node">
<title>Node21</title>
<g id="a_Node000021"><a xlink:href="../../d2/d03/class_g_e_u_1_1_n_a_s_session.html#a238b6550585c243c3926b773225bd63d" target="_top" xlink:title="Uploads local folder to remote directory.">
<polygon fill="white" stroke="#666666" points="446.25,-20 286.25,-20 286.25,0 446.25,0 446.25,-20"/>
<text text-anchor="middle" x="366.25" y="-6.5" font-family="Helvetica,sans-Serif" font-size="10.00">GEU::NASSession::uploadFolder</text>
</a>
</g>
</g>
<!-- Node1&#45;&gt;Node21 -->
<g id="edge21_Node000001_Node000021" class="edge">
<title>Node1&#45;&gt;Node21</title>
<g id="a_edge21_Node000001_Node000021"><a xlink:title=" ">
<path fill="none" stroke="#63b8ff" d="M546.74,-296.16C544.84,-242.15 532.08,-101.45 452.25,-29 448.44,-25.54 444.15,-22.67 439.56,-20.29"/>
<polygon fill="#63b8ff" stroke="#63b8ff" points="543.24,-296.24 546.98,-306.16 550.24,-296.07 543.24,-296.24"/>
</a>
</g>
</g>
<!-- Node7 -->
<g id="Node000007" class="node">
<title>Node7</title>
<g id="a_Node000007"><a xlink:href="../../da/d03/class_auto_updater.html#addbef684fb89817493a5bbc81c8ef36a" target="_top" xlink:title=" ">
<polygon fill="white" stroke="#666666" points="232.25,-478 85,-478 85,-458 232.25,-458 232.25,-478"/>
<text text-anchor="middle" x="158.62" y="-464.5" font-family="Helvetica,sans-Serif" font-size="10.00">AutoUpdater::checkForUpdate</text>
</a>
</g>
</g>
<!-- Node6&#45;&gt;Node7 -->
<g id="edge6_Node000006_Node000007" class="edge">
<title>Node6&#45;&gt;Node7</title>
<g id="a_edge6_Node000006_Node000007"><a xlink:title=" ">
<path fill="none" stroke="#63b8ff" d="M278.99,-468C263.51,-468 247.52,-468 232.47,-468"/>
<polygon fill="#63b8ff" stroke="#63b8ff" points="278.63,-471.5 288.63,-468 278.63,-464.5 278.63,-471.5"/>
</a>
</g>
</g>
<!-- Node8 -->
<g id="Node000008" class="node">
<title>Node8</title>
<g id="a_Node000008"><a xlink:href="../../df/d02/main_8cpp.html#a3c04138a5bfe5d72780bb7e82a18e627" target="_top" xlink:title=" ">
<polygon fill="white" stroke="#666666" points="37,-478 0,-478 0,-458 37,-458 37,-478"/>
<text text-anchor="middle" x="18.5" y="-464.5" font-family="Helvetica,sans-Serif" font-size="10.00">main</text>
</a>
</g>
</g>
<!-- Node7&#45;&gt;Node8 -->
<g id="edge7_Node000007_Node000008" class="edge">
<title>Node7&#45;&gt;Node8</title>
<g id="a_edge7_Node000007_Node000008"><a xlink:title=" ">
<path fill="none" stroke="#63b8ff" d="M73.07,-468C59.61,-468 46.98,-468 37.36,-468"/>
<polygon fill="#63b8ff" stroke="#63b8ff" points="73,-471.5 83,-468 73,-464.5 73,-471.5"/>
</a>
</g>
</g>
<!-- Node12 -->
<g id="Node000012" class="node">
<title>Node12</title>
<g id="a_Node000012"><a xlink:href="../../de/d06/class_g_e_u_1_1_g_u_i.html#af7ebc89aa431e3a9e86bb1424b819d47" target="_top" xlink:title="Draws ImGUI elements.">
<polygon fill="white" stroke="#666666" points="204.88,-350 112.38,-350 112.38,-330 204.88,-330 204.88,-350"/>
<text text-anchor="middle" x="158.62" y="-336.5" font-family="Helvetica,sans-Serif" font-size="10.00">GEU::GUI::render</text>
</a>
</g>
</g>
<!-- Node11&#45;&gt;Node12 -->
<g id="edge11_Node000011_Node000012" class="edge">
<title>Node11&#45;&gt;Node12</title>
<g id="a_edge11_Node000011_Node000012"><a xlink:title=" ">
<path fill="none" stroke="#63b8ff" d="M306.73,-324.26C274.46,-327.71 234.98,-331.94 205.05,-335.14"/>
<polygon fill="#63b8ff" stroke="#63b8ff" points="306.74,-327.78 316.31,-323.24 306,-320.82 306.74,-327.78"/>
</a>
</g>
</g>
<!-- Node13 -->
<g id="Node000013" class="node">
<title>Node13</title>
<g id="a_Node000013"><a xlink:href="../../d6/d04/class_g_e_u_1_1_database_downloaded_manage_window.html#a1ce8f4dd45e914ab6fa4580d1c481947" target="_top" xlink:title="Renders the window and contents.">
<polygon fill="white" stroke="#666666" points="244.25,-312 73,-312 73,-280 244.25,-280 244.25,-312"/>
<text text-anchor="start" x="81" y="-298.5" font-family="Helvetica,sans-Serif" font-size="10.00">GEU::DatabaseDownloadedManage</text>
<text text-anchor="middle" x="158.62" y="-286.5" font-family="Helvetica,sans-Serif" font-size="10.00">Window::renderWindow</text>
</a>
</g>
</g>
<!-- Node11&#45;&gt;Node13 -->
<g id="edge12_Node000011_Node000013" class="edge">
<title>Node11&#45;&gt;Node13</title>
<g id="a_edge12_Node000011_Node000013"><a xlink:title=" ">
<path fill="none" stroke="#63b8ff" d="M306.45,-311.71C287.11,-309.64 265.21,-307.3 244.34,-305.06"/>
<polygon fill="#63b8ff" stroke="#63b8ff" points="306,-315.18 316.31,-312.76 306.74,-308.22 306,-315.18"/>
</a>
</g>
</g>
<!-- Node14 -->
<g id="Node000014" class="node">
<title>Node14</title>
<g id="a_Node000014"><a xlink:href="../../d2/d05/class_g_e_u_1_1_database_new_dato_window.html#a8719af7640d1a32dcd4cdf5d305aa342" target="_top" xlink:title=" ">
<polygon fill="white" stroke="#666666" points="237.5,-152 79.75,-152 79.75,-120 237.5,-120 237.5,-152"/>
<text text-anchor="start" x="87.75" y="-138.5" font-family="Helvetica,sans-Serif" font-size="10.00">GEU::DatabaseNewDatoWindow</text>
<text text-anchor="middle" x="158.62" y="-126.5" font-family="Helvetica,sans-Serif" font-size="10.00">::uploadNewDato</text>
</a>
</g>
</g>
<!-- Node11&#45;&gt;Node14 -->
<g id="edge13_Node000011_Node000014" class="edge">
<title>Node11&#45;&gt;Node14</title>
<g id="a_edge13_Node000011_Node000014"><a xlink:title=" ">
<path fill="none" stroke="#63b8ff" d="M307.21,-306.29C297.72,-302.9 288.36,-298.56 280.25,-293 224.96,-255.11 183.91,-183.85 167.49,-152.04"/>
<polygon fill="#63b8ff" stroke="#63b8ff" points="305.87,-309.54 316.46,-309.26 308.01,-302.87 305.87,-309.54"/>
</a>
</g>
</g>
<!-- Node20&#45;&gt;Node14 -->
<g id="edge20_Node000020_Node000014" class="edge">
<title>Node20&#45;&gt;Node14</title>
<g id="a_edge20_Node000020_Node000014"><a xlink:title=" ">
<path fill="none" stroke="#63b8ff" d="M296.59,-61.46C291,-63.13 285.49,-64.97 280.25,-67 244.48,-80.86 206.61,-104.12 183.05,-119.76"/>
<polygon fill="#63b8ff" stroke="#63b8ff" points="297.23,-64.92 305.94,-58.88 295.37,-58.17 297.23,-64.92"/>
</a>
</g>
</g>
</g>
</svg>
