<?xml version="1.0" encoding="UTF-8" standalone="no"?>
<!DOCTYPE svg PUBLIC "-//W3C//DTD SVG 1.1//EN"
 "http://www.w3.org/Graphics/SVG/1.1/DTD/svg11.dtd">
<!-- Generated by graphviz version 10.0.1 (20240210.2158)
 -->
<!-- Title: GEU::PointCloud::pickMeshlet Pages: 1 -->
<svg width="367pt" height="216pt"
 viewBox="0.00 0.00 367.00 216.00" xmlns="http://www.w3.org/2000/svg" xmlns:xlink="http://www.w3.org/1999/xlink">
<g id="graph0" class="graph" transform="scale(1 1) rotate(0) translate(4 212)">
<title>GEU::PointCloud::pickMeshlet</title>
<!-- Node1 -->
<g id="Node000001" class="node">
<title>Node1</title>
<g id="a_Node000001"><a xlink:title=" ">
<polygon fill="#999999" stroke="#666666" points="148.75,-126 0,-126 0,-106 148.75,-106 148.75,-126"/>
<text text-anchor="middle" x="74.38" y="-112.5" font-family="Helvetica,sans-Serif" font-size="10.00">GEU::PointCloud::pickMeshlet</text>
</a>
</g>
</g>
<!-- Node2 -->
<g id="Node000002" class="node">
<title>Node2</title>
<g id="a_Node000002"><a xlink:href="../../da/d02/namespace_g_e_u_1_1_operators3_d.html#a0a99a48e076892312a722187ee14028d" target="_top" xlink:title="Check intersection between AABB and ray. Adapted from https://github.com/erich666/GraphicsGems/blob/m...">
<polygon fill="white" stroke="#666666" points="359,-208 184.75,-208 184.75,-188 359,-188 359,-208"/>
<text text-anchor="middle" x="271.88" y="-194.5" font-family="Helvetica,sans-Serif" font-size="10.00">GEU::Operators3D::checkRayAABB</text>
</a>
</g>
</g>
<!-- Node1&#45;&gt;Node2 -->
<g id="edge1_Node000001_Node000002" class="edge">
<title>Node1&#45;&gt;Node2</title>
<g id="a_edge1_Node000001_Node000002"><a xlink:title=" ">
<path fill="none" stroke="#63b8ff" d="M89.86,-126.29C110.14,-140.23 148.59,-164.98 184.75,-179 190.06,-181.06 195.64,-182.92 201.3,-184.6"/>
<polygon fill="#63b8ff" stroke="#63b8ff" points="200.22,-187.93 210.79,-187.2 202.07,-181.18 200.22,-187.93"/>
</a>
</g>
</g>
<!-- Node3 -->
<g id="Node000003" class="node">
<title>Node3</title>
<g id="a_Node000003"><a xlink:href="../../d5/d02/class_g_e_u_1_1_scene.html#a32e6f62d221dd01bac85a6e4201d9418" target="_top" xlink:title=" ">
<polygon fill="white" stroke="#666666" points="347,-170 196.75,-170 196.75,-150 347,-150 347,-170"/>
<text text-anchor="middle" x="271.88" y="-156.5" font-family="Helvetica,sans-Serif" font-size="10.00">GEU::Scene::getActiveCamera</text>
</a>
</g>
</g>
<!-- Node1&#45;&gt;Node3 -->
<g id="edge2_Node000001_Node000003" class="edge">
<title>Node1&#45;&gt;Node3</title>
<g id="a_edge2_Node000001_Node000003"><a xlink:title=" ">
<path fill="none" stroke="#63b8ff" d="M120.86,-126.48C140.5,-130.98 163.75,-136.28 184.75,-141 193.57,-142.98 202.89,-145.06 212.03,-147.08"/>
<polygon fill="#63b8ff" stroke="#63b8ff" points="211.03,-150.44 221.55,-149.19 212.54,-143.61 211.03,-150.44"/>
</a>
</g>
</g>
<!-- Node4 -->
<g id="Node000004" class="node">
<title>Node4</title>
<g id="a_Node000004"><a xlink:href="../../de/d04/class_g_e_u_1_1_renderer.html#af5f4307b5eba7c09888765c183a75213" target="_top" xlink:title=" ">
<polygon fill="white" stroke="#666666" points="335.75,-132 208,-132 208,-100 335.75,-100 335.75,-132"/>
<text text-anchor="start" x="216" y="-118.5" font-family="Helvetica,sans-Serif" font-size="10.00">GEU::Renderer::getActive</text>
<text text-anchor="middle" x="271.88" y="-106.5" font-family="Helvetica,sans-Serif" font-size="10.00">Scene</text>
</a>
</g>
</g>
<!-- Node1&#45;&gt;Node4 -->
<g id="edge3_Node000001_Node000004" class="edge">
<title>Node1&#45;&gt;Node4</title>
<g id="a_edge3_Node000001_Node000004"><a xlink:title=" ">
<path fill="none" stroke="#63b8ff" d="M149.01,-116C164.51,-116 180.88,-116 196.41,-116"/>
<polygon fill="#63b8ff" stroke="#63b8ff" points="196.04,-119.5 206.04,-116 196.04,-112.5 196.04,-119.5"/>
</a>
</g>
</g>
<!-- Node5 -->
<g id="Node000005" class="node">
<title>Node5</title>
<g id="a_Node000005"><a xlink:href="../../d9/d05/class_g_e_u_1_1_input_manager.html#af2ea72a4bd53eb6f69a5c873e4c22017" target="_top" xlink:title=" ">
<polygon fill="white" stroke="#666666" points="325.62,-82 218.12,-82 218.12,-50 325.62,-50 325.62,-82"/>
<text text-anchor="start" x="226.12" y="-68.5" font-family="Helvetica,sans-Serif" font-size="10.00">GEU::InputManager::</text>
<text text-anchor="middle" x="271.88" y="-56.5" font-family="Helvetica,sans-Serif" font-size="10.00">getApplicationState</text>
</a>
</g>
</g>
<!-- Node1&#45;&gt;Node5 -->
<g id="edge4_Node000001_Node000005" class="edge">
<title>Node1&#45;&gt;Node5</title>
<g id="a_edge4_Node000001_Node000005"><a xlink:title=" ">
<path fill="none" stroke="#63b8ff" d="M116.36,-105.52C142.47,-98.84 176.85,-90.05 206.55,-82.45"/>
<polygon fill="#63b8ff" stroke="#63b8ff" points="207.39,-85.85 216.21,-79.98 205.66,-79.07 207.39,-85.85"/>
</a>
</g>
</g>
<!-- Node6 -->
<g id="Node000006" class="node">
<title>Node6</title>
<g id="a_Node000006"><a xlink:href="../../d1/d01/class_g_e_u_1_1_singleton.html#a47c7e7c2110f4cc59c9ff1f5594c366e" target="_top" xlink:title=" ">
<polygon fill="white" stroke="#666666" points="337.62,-32 206.12,-32 206.12,0 337.62,0 337.62,-32"/>
<text text-anchor="start" x="214.12" y="-18.5" font-family="Helvetica,sans-Serif" font-size="10.00">GEU::Singleton&lt; Renderer</text>
<text text-anchor="middle" x="271.88" y="-6.5" font-family="Helvetica,sans-Serif" font-size="10.00"> &gt;::getInstance</text>
</a>
</g>
</g>
<!-- Node1&#45;&gt;Node6 -->
<g id="edge5_Node000001_Node000006" class="edge">
<title>Node1&#45;&gt;Node6</title>
<g id="a_edge5_Node000001_Node000006"><a xlink:title=" ">
<path fill="none" stroke="#63b8ff" d="M87.69,-105.58C107.14,-89.6 146.66,-59.01 184.75,-41 188.23,-39.35 191.85,-37.79 195.54,-36.31"/>
<polygon fill="#63b8ff" stroke="#63b8ff" points="196.52,-39.68 204.66,-32.9 194.07,-33.12 196.52,-39.68"/>
</a>
</g>
</g>
</g>
</svg>
