<?xml version="1.0" encoding="UTF-8" standalone="no"?>
<!DOCTYPE svg PUBLIC "-//W3C//DTD SVG 1.1//EN"
 "http://www.w3.org/Graphics/SVG/1.1/DTD/svg11.dtd">
<!-- Generated by graphviz version 10.0.1 (20240210.2158)
 -->
<!-- Title: GEU::PointCloud::getPointsPosition Pages: 1 -->
<svg width="709pt" height="846pt"
 viewBox="0.00 0.00 708.75 846.00" xmlns="http://www.w3.org/2000/svg" xmlns:xlink="http://www.w3.org/1999/xlink">
<g id="graph0" class="graph" transform="scale(1 1) rotate(0) translate(4 842)">
<title>GEU::PointCloud::getPointsPosition</title>
<!-- Node1 -->
<g id="Node000001" class="node">
<title>Node1</title>
<g id="a_Node000001"><a xlink:title=" ">
<polygon fill="#999999" stroke="#666666" points="700.75,-450 563.25,-450 563.25,-418 700.75,-418 700.75,-450"/>
<text text-anchor="start" x="571.25" y="-436.5" font-family="Helvetica,sans-Serif" font-size="10.00">GEU::PointCloud::getPoints</text>
<text text-anchor="middle" x="632" y="-424.5" font-family="Helvetica,sans-Serif" font-size="10.00">Position</text>
</a>
</g>
</g>
<!-- Node2 -->
<g id="Node000002" class="node">
<title>Node2</title>
<g id="a_Node000002"><a xlink:href="../../dc/d01/class_g_e_u_1_1_image_cloud_proj.html#ae42b8d4b792c9f055792632d5009b309" target="_top" xlink:title="Analiza puntos.">
<polygon fill="white" stroke="#666666" points="509.25,-838 398,-838 398,-806 509.25,-806 509.25,-838"/>
<text text-anchor="start" x="406" y="-824.5" font-family="Helvetica,sans-Serif" font-size="10.00">GEU::ImageCloudProj</text>
<text text-anchor="middle" x="453.62" y="-812.5" font-family="Helvetica,sans-Serif" font-size="10.00">::analyzePoints</text>
</a>
</g>
</g>
<!-- Node1&#45;&gt;Node2 -->
<g id="edge1_Node000001_Node000002" class="edge">
<title>Node1&#45;&gt;Node2</title>
<g id="a_edge1_Node000001_Node000002"><a xlink:title=" ">
<path fill="none" stroke="#63b8ff" d="M631.28,-461.48C630.44,-528.19 618.96,-700.29 527.25,-797 522.3,-802.23 516.2,-806.36 509.66,-809.63"/>
<polygon fill="#63b8ff" stroke="#63b8ff" points="634.78,-461.82 631.32,-451.81 627.78,-461.79 634.78,-461.82"/>
</a>
</g>
</g>
<!-- Node3 -->
<g id="Node000003" class="node">
<title>Node3</title>
<g id="a_Node000003"><a xlink:href="../../dc/d01/class_g_e_u_1_1_image_cloud_proj.html#a8cfce2a37af19646fd0c06ee3fb077ca" target="_top" xlink:title=" ">
<polygon fill="white" stroke="#666666" points="509.25,-788 398,-788 398,-756 509.25,-756 509.25,-788"/>
<text text-anchor="start" x="406" y="-774.5" font-family="Helvetica,sans-Serif" font-size="10.00">GEU::ImageCloudProj</text>
<text text-anchor="middle" x="453.62" y="-762.5" font-family="Helvetica,sans-Serif" font-size="10.00">::applyStructureMask</text>
</a>
</g>
</g>
<!-- Node1&#45;&gt;Node3 -->
<g id="edge2_Node000001_Node000003" class="edge">
<title>Node1&#45;&gt;Node3</title>
<g id="a_edge2_Node000001_Node000003"><a xlink:title=" ">
<path fill="none" stroke="#63b8ff" d="M629.79,-461.35C625.66,-521.39 607.45,-665.87 527.25,-747 522.19,-752.12 516.03,-756.19 509.46,-759.43"/>
<polygon fill="#63b8ff" stroke="#63b8ff" points="633.26,-461.89 630.37,-451.7 626.28,-461.47 633.26,-461.89"/>
</a>
</g>
</g>
<!-- Node4 -->
<g id="Node000004" class="node">
<title>Node4</title>
<g id="a_Node000004"><a xlink:href="../../dc/d01/class_g_e_u_1_1_image_cloud_proj.html#a1931d245c0168a9e7866bc8dd7904a07" target="_top" xlink:title=" ">
<polygon fill="white" stroke="#666666" points="511.5,-738 395.75,-738 395.75,-706 511.5,-706 511.5,-738"/>
<text text-anchor="start" x="403.75" y="-724.5" font-family="Helvetica,sans-Serif" font-size="10.00">GEU::ImageCloudProj</text>
<text text-anchor="middle" x="453.62" y="-712.5" font-family="Helvetica,sans-Serif" font-size="10.00">::applyVegetationMask</text>
</a>
</g>
</g>
<!-- Node1&#45;&gt;Node4 -->
<g id="edge3_Node000001_Node000004" class="edge">
<title>Node1&#45;&gt;Node4</title>
<g id="a_edge3_Node000001_Node000004"><a xlink:title=" ">
<path fill="none" stroke="#63b8ff" d="M627.73,-461.69C620.02,-514.76 595.85,-631.36 527.25,-697 522.72,-701.33 517.41,-704.92 511.75,-707.88"/>
<polygon fill="#63b8ff" stroke="#63b8ff" points="631.17,-462.38 629.04,-452 624.23,-461.44 631.17,-462.38"/>
</a>
</g>
</g>
<!-- Node5 -->
<g id="Node000005" class="node">
<title>Node5</title>
<g id="a_Node000005"><a xlink:href="../../dd/d00/class_procedural_voxel.html#aad5b840b3cf059c4ef6036ca01a1ff70" target="_top" xlink:title=" ">
<polygon fill="white" stroke="#666666" points="527.25,-688 380,-688 380,-668 527.25,-668 527.25,-688"/>
<text text-anchor="middle" x="453.62" y="-674.5" font-family="Helvetica,sans-Serif" font-size="10.00">ProceduralVoxel::checkPoints</text>
</a>
</g>
</g>
<!-- Node1&#45;&gt;Node5 -->
<g id="edge4_Node000001_Node000005" class="edge">
<title>Node1&#45;&gt;Node5</title>
<g id="a_edge4_Node000001_Node000005"><a xlink:title=" ">
<path fill="none" stroke="#63b8ff" d="M626.14,-461.76C616.3,-509.46 589.43,-606.91 527.25,-659 523.15,-662.43 518.51,-665.25 513.59,-667.57"/>
<polygon fill="#63b8ff" stroke="#63b8ff" points="629.57,-462.46 628.05,-451.97 622.7,-461.12 629.57,-462.46"/>
</a>
</g>
</g>
<!-- Node6 -->
<g id="Node000006" class="node">
<title>Node6</title>
<g id="a_Node000006"><a xlink:href="../../dc/d01/class_g_e_u_1_1_image_cloud_proj.html#a6205379d7cd99b2ec3774a73dc83fe0c" target="_top" xlink:title=" ">
<polygon fill="white" stroke="#666666" points="509.25,-650 398,-650 398,-618 509.25,-618 509.25,-650"/>
<text text-anchor="start" x="406" y="-636.5" font-family="Helvetica,sans-Serif" font-size="10.00">GEU::ImageCloudProj</text>
<text text-anchor="middle" x="453.62" y="-624.5" font-family="Helvetica,sans-Serif" font-size="10.00">::classifyGroundTruth</text>
</a>
</g>
</g>
<!-- Node1&#45;&gt;Node6 -->
<g id="edge5_Node000001_Node000006" class="edge">
<title>Node1&#45;&gt;Node6</title>
<g id="a_edge5_Node000001_Node000006"><a xlink:title=" ">
<path fill="none" stroke="#63b8ff" d="M621.79,-461.15C607.46,-499.43 576.26,-569.07 527.25,-609 521.98,-613.3 515.92,-616.87 509.61,-619.84"/>
<polygon fill="#63b8ff" stroke="#63b8ff" points="625.07,-462.35 625.18,-451.76 618.49,-459.97 625.07,-462.35"/>
</a>
</g>
</g>
<!-- Node7 -->
<g id="Node000007" class="node">
<title>Node7</title>
<g id="a_Node000007"><a xlink:href="../../dc/d01/class_g_e_u_1_1_image_cloud_proj.html#a10eaed81344e07a7594cdfaf8dd35320" target="_top" xlink:title=" ">
<polygon fill="white" stroke="#666666" points="522,-600 385.25,-600 385.25,-568 522,-568 522,-600"/>
<text text-anchor="start" x="393.25" y="-586.5" font-family="Helvetica,sans-Serif" font-size="10.00">GEU::ImageCloudProj</text>
<text text-anchor="middle" x="453.62" y="-574.5" font-family="Helvetica,sans-Serif" font-size="10.00">::colorRegularMeshByClass</text>
</a>
</g>
</g>
<!-- Node1&#45;&gt;Node7 -->
<g id="edge6_Node000001_Node000007" class="edge">
<title>Node1&#45;&gt;Node7</title>
<g id="a_edge6_Node000001_Node000007"><a xlink:title=" ">
<path fill="none" stroke="#63b8ff" d="M615.72,-459.79C597.82,-487.91 565.68,-532.44 527.25,-559 522.53,-562.26 517.35,-565.13 512,-567.65"/>
<polygon fill="#63b8ff" stroke="#63b8ff" points="618.55,-461.86 620.85,-451.52 612.6,-458.17 618.55,-461.86"/>
</a>
</g>
</g>
<!-- Node8 -->
<g id="Node000008" class="node">
<title>Node8</title>
<g id="a_Node000008"><a xlink:href="../../dc/d01/class_g_e_u_1_1_image_cloud_proj.html#a02559507d7f291afc43075aa49bbdbfe" target="_top" xlink:title=" ">
<polygon fill="white" stroke="#666666" points="521.62,-550 385.62,-550 385.62,-518 521.62,-518 521.62,-550"/>
<text text-anchor="start" x="393.62" y="-536.5" font-family="Helvetica,sans-Serif" font-size="10.00">GEU::ImageCloudProj</text>
<text text-anchor="middle" x="453.62" y="-524.5" font-family="Helvetica,sans-Serif" font-size="10.00">::colorRegularMeshByMean</text>
</a>
</g>
</g>
<!-- Node1&#45;&gt;Node8 -->
<g id="edge7_Node000001_Node000008" class="edge">
<title>Node1&#45;&gt;Node8</title>
<g id="a_edge7_Node000001_Node000008"><a xlink:title=" ">
<path fill="none" stroke="#63b8ff" d="M603.35,-457.46C583.25,-473.62 554.84,-494.68 527.25,-509 521.21,-512.13 514.7,-515.01 508.14,-517.61"/>
<polygon fill="#63b8ff" stroke="#63b8ff" points="605.53,-460.2 611.06,-451.16 601.1,-454.78 605.53,-460.2"/>
</a>
</g>
</g>
<!-- Node9 -->
<g id="Node000009" class="node">
<title>Node9</title>
<g id="a_Node000009"><a xlink:href="../../dd/d00/class_procedural_voxel.html#a3be1e09302a6d5c64c74edbde63925f8" target="_top" xlink:title=" ">
<polygon fill="white" stroke="#666666" points="519,-500 388.25,-500 388.25,-468 519,-468 519,-500"/>
<text text-anchor="start" x="396.25" y="-486.5" font-family="Helvetica,sans-Serif" font-size="10.00">ProceduralVoxel::compute</text>
<text text-anchor="middle" x="453.62" y="-474.5" font-family="Helvetica,sans-Serif" font-size="10.00">Height</text>
</a>
</g>
</g>
<!-- Node1&#45;&gt;Node9 -->
<g id="edge8_Node000001_Node000009" class="edge">
<title>Node1&#45;&gt;Node9</title>
<g id="a_edge8_Node000001_Node000009"><a xlink:title=" ">
<path fill="none" stroke="#63b8ff" d="M562.6,-453.39C546.16,-458.05 528.74,-462.99 512.81,-467.51"/>
<polygon fill="#63b8ff" stroke="#63b8ff" points="563.13,-456.88 571.79,-450.78 561.22,-450.14 563.13,-456.88"/>
</a>
</g>
</g>
<!-- Node10 -->
<g id="Node000010" class="node">
<title>Node10</title>
<g id="a_Node000010"><a xlink:href="../../d0/d01/class_g_e_u_1_1pcl_conversor.html#adc2f8b28918ebe56bfdc1bc9cad8b16f" target="_top" xlink:title=" ">
<polygon fill="white" stroke="#666666" points="515.25,-450 392,-450 392,-418 515.25,-418 515.25,-450"/>
<text text-anchor="start" x="400" y="-436.5" font-family="Helvetica,sans-Serif" font-size="10.00">GEU::pclConversor::</text>
<text text-anchor="middle" x="453.62" y="-424.5" font-family="Helvetica,sans-Serif" font-size="10.00">convertToPCLPointCloud</text>
</a>
</g>
</g>
<!-- Node1&#45;&gt;Node10 -->
<g id="edge9_Node000001_Node000010" class="edge">
<title>Node1&#45;&gt;Node10</title>
<g id="a_edge9_Node000001_Node000010"><a xlink:title=" ">
<path fill="none" stroke="#63b8ff" d="M551.42,-434C539.43,-434 527.24,-434 515.72,-434"/>
<polygon fill="#63b8ff" stroke="#63b8ff" points="551.3,-437.5 561.3,-434 551.3,-430.5 551.3,-437.5"/>
</a>
</g>
</g>
<!-- Node13 -->
<g id="Node000013" class="node">
<title>Node13</title>
<g id="a_Node000013"><a xlink:href="../../dd/d00/class_procedural_voxel.html#a1d4e756ee058170262222d52628f850b" target="_top" xlink:title=" ">
<polygon fill="white" stroke="#666666" points="516,-400 391.25,-400 391.25,-368 516,-368 516,-400"/>
<text text-anchor="start" x="399.25" y="-386.5" font-family="Helvetica,sans-Serif" font-size="10.00">ProceduralVoxel::internal</text>
<text text-anchor="middle" x="453.62" y="-374.5" font-family="Helvetica,sans-Serif" font-size="10.00">Distribution</text>
</a>
</g>
</g>
<!-- Node1&#45;&gt;Node13 -->
<g id="edge12_Node000001_Node000013" class="edge">
<title>Node1&#45;&gt;Node13</title>
<g id="a_edge12_Node000001_Node000013"><a xlink:title=" ">
<path fill="none" stroke="#63b8ff" d="M562.6,-414.61C546.16,-409.95 528.74,-405.01 512.81,-400.49"/>
<polygon fill="#63b8ff" stroke="#63b8ff" points="561.22,-417.86 571.79,-417.22 563.13,-411.12 561.22,-417.86"/>
</a>
</g>
</g>
<!-- Node14 -->
<g id="Node000014" class="node">
<title>Node14</title>
<g id="a_Node000014"><a xlink:href="../../d4/d07/class_normales_g_u_i_adapter.html#a5f2b290d502274f01fc3e9bdadfca50e" target="_top" xlink:title=" ">
<polygon fill="white" stroke="#666666" points="507.38,-332 399.88,-332 399.88,-300 507.38,-300 507.38,-332"/>
<text text-anchor="start" x="407.88" y="-318.5" font-family="Helvetica,sans-Serif" font-size="10.00">NormalesGUIAdapter</text>
<text text-anchor="middle" x="453.62" y="-306.5" font-family="Helvetica,sans-Serif" font-size="10.00">::normalComparison</text>
</a>
</g>
</g>
<!-- Node1&#45;&gt;Node14 -->
<g id="edge13_Node000001_Node000014" class="edge">
<title>Node1&#45;&gt;Node14</title>
<g id="a_edge13_Node000001_Node000014"><a xlink:title=" ">
<path fill="none" stroke="#63b8ff" d="M600.44,-410.78C580.04,-395.57 552.44,-375.51 527.25,-359 513.16,-349.76 497.07,-340.15 483.62,-332.36"/>
<polygon fill="#63b8ff" stroke="#63b8ff" points="598.23,-413.5 608.33,-416.7 602.43,-407.9 598.23,-413.5"/>
</a>
</g>
</g>
<!-- Node16 -->
<g id="Node000016" class="node">
<title>Node16</title>
<g id="a_Node000016"><a xlink:href="../../d4/d07/class_normales_g_u_i_adapter.html#a32cec8b0ea288f27e15946d5a4ea3728" target="_top" xlink:title=" ">
<polygon fill="white" stroke="#666666" points="507.38,-282 399.88,-282 399.88,-250 507.38,-250 507.38,-282"/>
<text text-anchor="start" x="407.88" y="-268.5" font-family="Helvetica,sans-Serif" font-size="10.00">NormalesGUIAdapter</text>
<text text-anchor="middle" x="453.62" y="-256.5" font-family="Helvetica,sans-Serif" font-size="10.00">::offsetMethod</text>
</a>
</g>
</g>
<!-- Node1&#45;&gt;Node16 -->
<g id="edge16_Node000001_Node000016" class="edge">
<title>Node1&#45;&gt;Node16</title>
<g id="a_edge16_Node000001_Node000016"><a xlink:title=" ">
<path fill="none" stroke="#63b8ff" d="M618.4,-407.83C601.76,-375.91 569.55,-322.32 527.25,-291 521.36,-286.64 514.64,-282.99 507.73,-279.96"/>
<polygon fill="#63b8ff" stroke="#63b8ff" points="615.11,-409.08 622.75,-416.42 621.35,-405.92 615.11,-409.08"/>
</a>
</g>
</g>
<!-- Node17 -->
<g id="Node000017" class="node">
<title>Node17</title>
<g id="a_Node000017"><a xlink:href="../../dc/d01/class_g_e_u_1_1_image_cloud_proj.html#a484fe62f28ca22a853facc52b75a297e" target="_top" xlink:title=" ">
<polygon fill="white" stroke="#666666" points="509.25,-232 398,-232 398,-200 509.25,-200 509.25,-232"/>
<text text-anchor="start" x="406" y="-218.5" font-family="Helvetica,sans-Serif" font-size="10.00">GEU::ImageCloudProj</text>
<text text-anchor="middle" x="453.62" y="-206.5" font-family="Helvetica,sans-Serif" font-size="10.00">::rasterize</text>
</a>
</g>
</g>
<!-- Node1&#45;&gt;Node17 -->
<g id="edge18_Node000001_Node000017" class="edge">
<title>Node1&#45;&gt;Node17</title>
<g id="a_edge18_Node000001_Node000017"><a xlink:title=" ">
<path fill="none" stroke="#63b8ff" d="M623.42,-406.79C610.48,-365.23 580.26,-286.06 527.25,-241 521.97,-236.51 515.83,-232.81 509.41,-229.77"/>
<polygon fill="#63b8ff" stroke="#63b8ff" points="620.02,-407.66 626.25,-416.24 626.73,-405.65 620.02,-407.66"/>
</a>
</g>
</g>
<!-- Node18 -->
<g id="Node000018" class="node">
<title>Node18</title>
<g id="a_Node000018"><a xlink:href="../../dd/d03/class_g_e_u_1_1_procedural_generator.html#ab8f82fb76364670dd7e6dc7b32535694" target="_top" xlink:title=" ">
<polygon fill="white" stroke="#666666" points="520.12,-182 387.12,-182 387.12,-150 520.12,-150 520.12,-182"/>
<text text-anchor="start" x="395.12" y="-168.5" font-family="Helvetica,sans-Serif" font-size="10.00">GEU::ProceduralGenerator</text>
<text text-anchor="middle" x="453.62" y="-156.5" font-family="Helvetica,sans-Serif" font-size="10.00">::RegionRGBSegmentation</text>
</a>
</g>
</g>
<!-- Node1&#45;&gt;Node18 -->
<g id="edge19_Node000001_Node000018" class="edge">
<title>Node1&#45;&gt;Node18</title>
<g id="a_edge19_Node000001_Node000018"><a xlink:title=" ">
<path fill="none" stroke="#63b8ff" d="M626.77,-406.68C617.64,-356.83 591.47,-250.76 527.25,-191 523.74,-187.73 519.77,-184.89 515.56,-182.41"/>
<polygon fill="#63b8ff" stroke="#63b8ff" points="623.28,-407.06 628.43,-416.32 630.18,-405.87 623.28,-407.06"/>
</a>
</g>
</g>
<!-- Node19 -->
<g id="Node000019" class="node">
<title>Node19</title>
<g id="a_Node000019"><a xlink:href="../../dd/d01/class_g_e_u_1_1_file_manager.html#a5207794330ae3a16542e22120c985aac" target="_top" xlink:title=" ">
<polygon fill="white" stroke="#666666" points="525.75,-132 381.5,-132 381.5,-100 525.75,-100 525.75,-132"/>
<text text-anchor="start" x="389.5" y="-118.5" font-family="Helvetica,sans-Serif" font-size="10.00">GEU::FileManager::savePoint</text>
<text text-anchor="middle" x="453.62" y="-106.5" font-family="Helvetica,sans-Serif" font-size="10.00">Cloud</text>
</a>
</g>
</g>
<!-- Node1&#45;&gt;Node19 -->
<g id="edge20_Node000001_Node000019" class="edge">
<title>Node1&#45;&gt;Node19</title>
<g id="a_edge20_Node000001_Node000019"><a xlink:title=" ">
<path fill="none" stroke="#63b8ff" d="M629.04,-406.45C623.5,-349.06 602.77,-215.86 527.25,-141 523.94,-137.71 520.17,-134.86 516.14,-132.38"/>
<polygon fill="#63b8ff" stroke="#63b8ff" points="625.55,-406.64 629.9,-416.29 632.52,-406.03 625.55,-406.64"/>
</a>
</g>
</g>
<!-- Node22 -->
<g id="Node000022" class="node">
<title>Node22</title>
<g id="a_Node000022"><a xlink:href="../../d3/d00/class_g_e_u_1_1_thermal_augment.html#a7d44bfe00e67702d5af13b627f6500f6" target="_top" xlink:title=" ">
<polygon fill="white" stroke="#666666" points="511.88,-82 395.38,-82 395.38,-50 511.88,-50 511.88,-82"/>
<text text-anchor="start" x="403.38" y="-68.5" font-family="Helvetica,sans-Serif" font-size="10.00">GEU::ThermalAugment</text>
<text text-anchor="middle" x="453.62" y="-56.5" font-family="Helvetica,sans-Serif" font-size="10.00">::setUpCloud</text>
</a>
</g>
</g>
<!-- Node1&#45;&gt;Node22 -->
<g id="edge23_Node000001_Node000022" class="edge">
<title>Node1&#45;&gt;Node22</title>
<g id="a_edge23_Node000001_Node000022"><a xlink:title=" ">
<path fill="none" stroke="#63b8ff" d="M630.73,-406.72C628.62,-342.72 614.41,-181.52 527.25,-91 522.9,-86.49 517.7,-82.79 512.11,-79.75"/>
<polygon fill="#63b8ff" stroke="#63b8ff" points="627.22,-406.41 630.97,-416.33 634.22,-406.24 627.22,-406.41"/>
</a>
</g>
</g>
<!-- Node23 -->
<g id="Node000023" class="node">
<title>Node23</title>
<g id="a_Node000023"><a xlink:href="../../dd/d03/class_g_e_u_1_1_procedural_generator.html#ab8413581fb4ba7ab9709a72bca03ce64" target="_top" xlink:title="Assign each point of the PointCloud to the corresponding voxel in the voxel grid and computes the cor...">
<polygon fill="white" stroke="#666666" points="519.75,-32 387.5,-32 387.5,0 519.75,0 519.75,-32"/>
<text text-anchor="start" x="395.5" y="-18.5" font-family="Helvetica,sans-Serif" font-size="10.00">GEU::ProceduralGenerator</text>
<text text-anchor="middle" x="453.62" y="-6.5" font-family="Helvetica,sans-Serif" font-size="10.00">::subdivideCloud</text>
</a>
</g>
</g>
<!-- Node1&#45;&gt;Node23 -->
<g id="edge24_Node000001_Node000023" class="edge">
<title>Node1&#45;&gt;Node23</title>
<g id="a_edge24_Node000001_Node000023"><a xlink:title=" ">
<path fill="none" stroke="#63b8ff" d="M627.15,-406.54C615.43,-326.46 577.85,-95.46 527.25,-41 524.16,-37.68 520.62,-34.8 516.78,-32.3"/>
<polygon fill="#63b8ff" stroke="#63b8ff" points="623.65,-406.73 628.54,-416.13 630.58,-405.74 623.65,-406.73"/>
</a>
</g>
</g>
<!-- Node11 -->
<g id="Node000011" class="node">
<title>Node11</title>
<g id="a_Node000011"><a xlink:href="../../de/d02/class_g_e_u_1_1_multiespectral_g_u_i_adapter.html#afafb062e54a135be4bc20d2eaee39862" target="_top" xlink:title=" ">
<polygon fill="white" stroke="#666666" points="344,-450 190,-450 190,-418 344,-418 344,-450"/>
<text text-anchor="start" x="198" y="-436.5" font-family="Helvetica,sans-Serif" font-size="10.00">GEU::MultiespectralGUIAdapter</text>
<text text-anchor="middle" x="267" y="-424.5" font-family="Helvetica,sans-Serif" font-size="10.00">::mapping</text>
</a>
</g>
</g>
<!-- Node10&#45;&gt;Node11 -->
<g id="edge10_Node000010_Node000011" class="edge">
<title>Node10&#45;&gt;Node11</title>
<g id="a_edge10_Node000010_Node000011"><a xlink:title=" ">
<path fill="none" stroke="#63b8ff" d="M380.47,-434C368.63,-434 356.32,-434 344.38,-434"/>
<polygon fill="#63b8ff" stroke="#63b8ff" points="380.15,-437.5 390.15,-434 380.15,-430.5 380.15,-437.5"/>
</a>
</g>
</g>
<!-- Node12 -->
<g id="Node000012" class="node">
<title>Node12</title>
<g id="a_Node000012"><a xlink:href="../../de/d02/class_g_e_u_1_1_multiespectral_g_u_i_adapter.html#a30cdb8738563252a05b2da154c3f864d" target="_top" xlink:title="Custom module GUI window contents.">
<polygon fill="white" stroke="#666666" points="154,-450 0,-450 0,-418 154,-418 154,-450"/>
<text text-anchor="start" x="8" y="-436.5" font-family="Helvetica,sans-Serif" font-size="10.00">GEU::MultiespectralGUIAdapter</text>
<text text-anchor="middle" x="77" y="-424.5" font-family="Helvetica,sans-Serif" font-size="10.00">::renderGuiObject</text>
</a>
</g>
</g>
<!-- Node11&#45;&gt;Node12 -->
<g id="edge11_Node000011_Node000012" class="edge">
<title>Node11&#45;&gt;Node12</title>
<g id="a_edge11_Node000011_Node000012"><a xlink:title=" ">
<path fill="none" stroke="#63b8ff" d="M178.03,-434C170.14,-434 162.18,-434 154.4,-434"/>
<polygon fill="#63b8ff" stroke="#63b8ff" points="178.02,-437.5 188.02,-434 178.02,-430.5 178.02,-437.5"/>
</a>
</g>
</g>
<!-- Node14&#45;&gt;Node14 -->
<g id="edge14_Node000014_Node000014" class="edge">
<title>Node14&#45;&gt;Node14</title>
<g id="a_edge14_Node000014_Node000014"><a xlink:title=" ">
<path fill="none" stroke="#63b8ff" d="M483.35,-343.71C478.39,-347.48 468.49,-350 453.62,-350 426.45,-350 415.84,-341.58 421.78,-332.44"/>
<polygon fill="#63b8ff" stroke="#63b8ff" points="486.78,-344.4 485.19,-333.93 479.9,-343.11 486.78,-344.4"/>
</a>
</g>
</g>
<!-- Node15 -->
<g id="Node000015" class="node">
<title>Node15</title>
<g id="a_Node000015"><a xlink:href="../../d4/d07/class_normales_g_u_i_adapter.html#ad27c678722407ed6f3d2bb41ccc2b640" target="_top" xlink:title="Custom module GUI window contents.">
<polygon fill="white" stroke="#666666" points="320.75,-307 213.25,-307 213.25,-275 320.75,-275 320.75,-307"/>
<text text-anchor="start" x="221.25" y="-293.5" font-family="Helvetica,sans-Serif" font-size="10.00">NormalesGUIAdapter</text>
<text text-anchor="middle" x="267" y="-281.5" font-family="Helvetica,sans-Serif" font-size="10.00">::renderGuiObject</text>
</a>
</g>
</g>
<!-- Node14&#45;&gt;Node15 -->
<g id="edge15_Node000014_Node000015" class="edge">
<title>Node14&#45;&gt;Node15</title>
<g id="a_edge15_Node000014_Node000015"><a xlink:title=" ">
<path fill="none" stroke="#63b8ff" d="M388.48,-307.31C366.53,-304.34 342.23,-301.05 321.23,-298.21"/>
<polygon fill="#63b8ff" stroke="#63b8ff" points="387.84,-310.76 398.22,-308.63 388.78,-303.82 387.84,-310.76"/>
</a>
</g>
</g>
<!-- Node16&#45;&gt;Node15 -->
<g id="edge17_Node000016_Node000015" class="edge">
<title>Node16&#45;&gt;Node15</title>
<g id="a_edge17_Node000016_Node000015"><a xlink:title=" ">
<path fill="none" stroke="#63b8ff" d="M388.48,-274.69C366.53,-277.66 342.23,-280.95 321.23,-283.79"/>
<polygon fill="#63b8ff" stroke="#63b8ff" points="388.78,-278.18 398.22,-273.37 387.84,-271.24 388.78,-278.18"/>
</a>
</g>
</g>
<!-- Node20 -->
<g id="Node000020" class="node">
<title>Node20</title>
<g id="a_Node000020"><a xlink:href="../../db/d00/class_g_e_u_1_1_details_window.html#a696b110218746e301559da2c93e6cd60" target="_top" xlink:title="Renders inspector details for point cloud items.">
<polygon fill="white" stroke="#666666" points="335,-132 199,-132 199,-100 335,-100 335,-132"/>
<text text-anchor="start" x="207" y="-118.5" font-family="Helvetica,sans-Serif" font-size="10.00">GEU::DetailsWindow</text>
<text text-anchor="middle" x="267" y="-106.5" font-family="Helvetica,sans-Serif" font-size="10.00">::makePCloudItemInspector</text>
</a>
</g>
</g>
<!-- Node19&#45;&gt;Node20 -->
<g id="edge21_Node000019_Node000020" class="edge">
<title>Node19&#45;&gt;Node20</title>
<g id="a_edge21_Node000019_Node000020"><a xlink:title=" ">
<path fill="none" stroke="#63b8ff" d="M369.78,-116C358.23,-116 346.47,-116 335.25,-116"/>
<polygon fill="#63b8ff" stroke="#63b8ff" points="369.73,-119.5 379.73,-116 369.73,-112.5 369.73,-119.5"/>
</a>
</g>
</g>
<!-- Node21 -->
<g id="Node000021" class="node">
<title>Node21</title>
<g id="a_Node000021"><a xlink:href="../../db/d00/class_g_e_u_1_1_details_window.html#a6666ec761cc5cd8a57220823b8e7daa6" target="_top" xlink:title="Renders the window and contents.">
<polygon fill="white" stroke="#666666" points="130.75,-132 23.25,-132 23.25,-100 130.75,-100 130.75,-132"/>
<text text-anchor="start" x="31.25" y="-118.5" font-family="Helvetica,sans-Serif" font-size="10.00">GEU::DetailsWindow</text>
<text text-anchor="middle" x="77" y="-106.5" font-family="Helvetica,sans-Serif" font-size="10.00">::renderWindow</text>
</a>
</g>
</g>
<!-- Node20&#45;&gt;Node21 -->
<g id="edge22_Node000020_Node000021" class="edge">
<title>Node20&#45;&gt;Node21</title>
<g id="a_edge22_Node000020_Node000021"><a xlink:title=" ">
<path fill="none" stroke="#63b8ff" d="M187.3,-116C168.33,-116 148.5,-116 131.02,-116"/>
<polygon fill="#63b8ff" stroke="#63b8ff" points="187.15,-119.5 197.15,-116 187.15,-112.5 187.15,-119.5"/>
</a>
</g>
</g>
</g>
</svg>
