<?xml version="1.0" encoding="UTF-8" standalone="no"?>
<!DOCTYPE svg PUBLIC "-//W3C//DTD SVG 1.1//EN"
 "http://www.w3.org/Graphics/SVG/1.1/DTD/svg11.dtd">
<!-- Generated by graphviz version 10.0.1 (20240210.2158)
 -->
<!-- Title: GEU::PointCloud::getPointsPosition Pages: 1 -->
<svg width="669pt" height="896pt"
 viewBox="0.00 0.00 669.00 896.00" xmlns="http://www.w3.org/2000/svg" xmlns:xlink="http://www.w3.org/1999/xlink">
<g id="graph0" class="graph" transform="scale(1 1) rotate(0) translate(4 892)">
<title>GEU::PointCloud::getPointsPosition</title>
<!-- Node1 -->
<g id="Node000001" class="node">
<title>Node1</title>
<g id="a_Node000001"><a xlink:title=" ">
<polygon fill="#999999" stroke="#666666" points="661,-475 523.5,-475 523.5,-443 661,-443 661,-475"/>
<text text-anchor="start" x="531.5" y="-461.5" font-family="Helvetica,sans-Serif" font-size="10.00">GEU::PointCloud::getPoints</text>
<text text-anchor="middle" x="592.25" y="-449.5" font-family="Helvetica,sans-Serif" font-size="10.00">Position</text>
</a>
</g>
</g>
<!-- Node2 -->
<g id="Node000002" class="node">
<title>Node2</title>
<g id="a_Node000002"><a xlink:href="../../dc/d01/class_g_e_u_1_1_image_cloud_proj.html#ae42b8d4b792c9f055792632d5009b309" target="_top" xlink:title="Analiza puntos.">
<polygon fill="white" stroke="#666666" points="466.12,-888 354.88,-888 354.88,-856 466.12,-856 466.12,-888"/>
<text text-anchor="start" x="362.88" y="-874.5" font-family="Helvetica,sans-Serif" font-size="10.00">GEU::ImageCloudProj</text>
<text text-anchor="middle" x="410.5" y="-862.5" font-family="Helvetica,sans-Serif" font-size="10.00">::analyzePoints</text>
</a>
</g>
</g>
<!-- Node1&#45;&gt;Node2 -->
<g id="edge1_Node000001_Node000002" class="edge">
<title>Node1&#45;&gt;Node2</title>
<g id="a_edge1_Node000001_Node000002"><a xlink:title=" ">
<path fill="none" stroke="#63b8ff" d="M587.39,-486.15C575.63,-565.3 537.95,-793.61 487.5,-847 481.68,-853.16 474.32,-857.8 466.48,-861.3"/>
<polygon fill="#63b8ff" stroke="#63b8ff" points="590.79,-487.08 588.78,-476.68 583.87,-486.07 590.79,-487.08"/>
</a>
</g>
</g>
<!-- Node3 -->
<g id="Node000003" class="node">
<title>Node3</title>
<g id="a_Node000003"><a xlink:href="../../dc/d01/class_g_e_u_1_1_image_cloud_proj.html#a8cfce2a37af19646fd0c06ee3fb077ca" target="_top" xlink:title=" ">
<polygon fill="white" stroke="#666666" points="466.12,-838 354.88,-838 354.88,-806 466.12,-806 466.12,-838"/>
<text text-anchor="start" x="362.88" y="-824.5" font-family="Helvetica,sans-Serif" font-size="10.00">GEU::ImageCloudProj</text>
<text text-anchor="middle" x="410.5" y="-812.5" font-family="Helvetica,sans-Serif" font-size="10.00">::applyStructureMask</text>
</a>
</g>
</g>
<!-- Node1&#45;&gt;Node3 -->
<g id="edge2_Node000001_Node000003" class="edge">
<title>Node1&#45;&gt;Node3</title>
<g id="a_edge2_Node000001_Node000003"><a xlink:title=" ">
<path fill="none" stroke="#63b8ff" d="M590.9,-486.81C588.58,-550.63 573.91,-708.85 487.5,-797 481.57,-803.05 474.15,-807.64 466.29,-811.11"/>
<polygon fill="#63b8ff" stroke="#63b8ff" points="594.4,-486.96 591.18,-476.87 587.4,-486.77 594.4,-486.96"/>
</a>
</g>
</g>
<!-- Node4 -->
<g id="Node000004" class="node">
<title>Node4</title>
<g id="a_Node000004"><a xlink:href="../../dc/d01/class_g_e_u_1_1_image_cloud_proj.html#a1931d245c0168a9e7866bc8dd7904a07" target="_top" xlink:title=" ">
<polygon fill="white" stroke="#666666" points="468.38,-788 352.62,-788 352.62,-756 468.38,-756 468.38,-788"/>
<text text-anchor="start" x="360.62" y="-774.5" font-family="Helvetica,sans-Serif" font-size="10.00">GEU::ImageCloudProj</text>
<text text-anchor="middle" x="410.5" y="-762.5" font-family="Helvetica,sans-Serif" font-size="10.00">::applyVegetationMask</text>
</a>
</g>
</g>
<!-- Node1&#45;&gt;Node4 -->
<g id="edge3_Node000001_Node000004" class="edge">
<title>Node1&#45;&gt;Node4</title>
<g id="a_edge3_Node000001_Node000004"><a xlink:title=" ">
<path fill="none" stroke="#63b8ff" d="M589.18,-486.58C583.45,-543.37 562.4,-674.17 487.5,-747 482.12,-752.23 475.63,-756.36 468.74,-759.63"/>
<polygon fill="#63b8ff" stroke="#63b8ff" points="592.65,-487.11 590.07,-476.83 585.68,-486.47 592.65,-487.11"/>
</a>
</g>
</g>
<!-- Node5 -->
<g id="Node000005" class="node">
<title>Node5</title>
<g id="a_Node000005"><a xlink:href="../../dd/d00/class_procedural_voxel.html#aad5b840b3cf059c4ef6036ca01a1ff70" target="_top" xlink:title=" ">
<polygon fill="white" stroke="#666666" points="484.12,-738 336.88,-738 336.88,-718 484.12,-718 484.12,-738"/>
<text text-anchor="middle" x="410.5" y="-724.5" font-family="Helvetica,sans-Serif" font-size="10.00">ProceduralVoxel::checkPoints</text>
</a>
</g>
</g>
<!-- Node1&#45;&gt;Node5 -->
<g id="edge4_Node000001_Node000005" class="edge">
<title>Node1&#45;&gt;Node5</title>
<g id="a_edge4_Node000001_Node000005"><a xlink:title=" ">
<path fill="none" stroke="#63b8ff" d="M587.92,-486.57C580.18,-538.28 556.05,-649.93 487.5,-709 483.48,-712.46 478.92,-715.31 474.08,-717.65"/>
<polygon fill="#63b8ff" stroke="#63b8ff" points="591.36,-487.23 589.28,-476.84 584.43,-486.26 591.36,-487.23"/>
</a>
</g>
</g>
<!-- Node6 -->
<g id="Node000006" class="node">
<title>Node6</title>
<g id="a_Node000006"><a xlink:href="../../dc/d01/class_g_e_u_1_1_image_cloud_proj.html#a6205379d7cd99b2ec3774a73dc83fe0c" target="_top" xlink:title=" ">
<polygon fill="white" stroke="#666666" points="466.12,-700 354.88,-700 354.88,-668 466.12,-668 466.12,-700"/>
<text text-anchor="start" x="362.88" y="-686.5" font-family="Helvetica,sans-Serif" font-size="10.00">GEU::ImageCloudProj</text>
<text text-anchor="middle" x="410.5" y="-674.5" font-family="Helvetica,sans-Serif" font-size="10.00">::classifyGroundTruth</text>
</a>
</g>
</g>
<!-- Node1&#45;&gt;Node6 -->
<g id="edge5_Node000001_Node000006" class="edge">
<title>Node1&#45;&gt;Node6</title>
<g id="a_edge5_Node000001_Node000006"><a xlink:title=" ">
<path fill="none" stroke="#63b8ff" d="M584.29,-486.36C571.99,-529.28 542.37,-612.31 487.5,-659 481.36,-664.22 474.11,-668.36 466.55,-671.64"/>
<polygon fill="#63b8ff" stroke="#63b8ff" points="587.63,-487.42 586.91,-476.85 580.88,-485.56 587.63,-487.42"/>
</a>
</g>
</g>
<!-- Node7 -->
<g id="Node000007" class="node">
<title>Node7</title>
<g id="a_Node000007"><a xlink:href="../../dc/d01/class_g_e_u_1_1_image_cloud_proj.html#a10eaed81344e07a7594cdfaf8dd35320" target="_top" xlink:title=" ">
<polygon fill="white" stroke="#666666" points="478.88,-650 342.12,-650 342.12,-618 478.88,-618 478.88,-650"/>
<text text-anchor="start" x="350.12" y="-636.5" font-family="Helvetica,sans-Serif" font-size="10.00">GEU::ImageCloudProj</text>
<text text-anchor="middle" x="410.5" y="-624.5" font-family="Helvetica,sans-Serif" font-size="10.00">::colorRegularMeshByClass</text>
</a>
</g>
</g>
<!-- Node1&#45;&gt;Node7 -->
<g id="edge6_Node000001_Node000007" class="edge">
<title>Node1&#45;&gt;Node7</title>
<g id="a_edge6_Node000001_Node000007"><a xlink:title=" ">
<path fill="none" stroke="#63b8ff" d="M579.55,-485.51C563.48,-518.97 531.48,-576.13 487.5,-609 483.16,-612.24 478.38,-615.08 473.39,-617.55"/>
<polygon fill="#63b8ff" stroke="#63b8ff" points="582.7,-487.05 583.75,-476.51 576.35,-484.09 582.7,-487.05"/>
</a>
</g>
</g>
<!-- Node8 -->
<g id="Node000008" class="node">
<title>Node8</title>
<g id="a_Node000008"><a xlink:href="../../dc/d01/class_g_e_u_1_1_image_cloud_proj.html#a02559507d7f291afc43075aa49bbdbfe" target="_top" xlink:title=" ">
<polygon fill="white" stroke="#666666" points="478.5,-600 342.5,-600 342.5,-568 478.5,-568 478.5,-600"/>
<text text-anchor="start" x="350.5" y="-586.5" font-family="Helvetica,sans-Serif" font-size="10.00">GEU::ImageCloudProj</text>
<text text-anchor="middle" x="410.5" y="-574.5" font-family="Helvetica,sans-Serif" font-size="10.00">::colorRegularMeshByMean</text>
</a>
</g>
</g>
<!-- Node1&#45;&gt;Node8 -->
<g id="edge7_Node000001_Node000008" class="edge">
<title>Node1&#45;&gt;Node8</title>
<g id="a_edge7_Node000001_Node000008"><a xlink:title=" ">
<path fill="none" stroke="#63b8ff" d="M571.26,-483.82C551.97,-506.31 520.83,-538.91 487.5,-559 482.15,-562.23 476.33,-565.09 470.37,-567.62"/>
<polygon fill="#63b8ff" stroke="#63b8ff" points="573.81,-486.23 577.57,-476.32 568.46,-481.72 573.81,-486.23"/>
</a>
</g>
</g>
<!-- Node9 -->
<g id="Node000009" class="node">
<title>Node9</title>
<g id="a_Node000009"><a xlink:href="../../dd/d00/class_procedural_voxel.html#a3be1e09302a6d5c64c74edbde63925f8" target="_top" xlink:title=" ">
<polygon fill="white" stroke="#666666" points="475.88,-550 345.12,-550 345.12,-518 475.88,-518 475.88,-550"/>
<text text-anchor="start" x="353.12" y="-536.5" font-family="Helvetica,sans-Serif" font-size="10.00">ProceduralVoxel::compute</text>
<text text-anchor="middle" x="410.5" y="-524.5" font-family="Helvetica,sans-Serif" font-size="10.00">Height</text>
</a>
</g>
</g>
<!-- Node1&#45;&gt;Node9 -->
<g id="edge8_Node000001_Node000009" class="edge">
<title>Node1&#45;&gt;Node9</title>
<g id="a_edge8_Node000001_Node000009"><a xlink:title=" ">
<path fill="none" stroke="#63b8ff" d="M549.68,-480.58C530.94,-489.9 508.37,-500.58 487.5,-509 480.16,-511.96 472.32,-514.84 464.56,-517.54"/>
<polygon fill="#63b8ff" stroke="#63b8ff" points="551.24,-483.71 558.6,-476.09 548.09,-477.46 551.24,-483.71"/>
</a>
</g>
</g>
<!-- Node10 -->
<g id="Node000010" class="node">
<title>Node10</title>
<g id="a_Node000010"><a xlink:href="../../d0/d01/class_g_e_u_1_1pcl_conversor.html#a6253923a8a327a9835a3df5324c12fe2" target="_top" xlink:title=" ">
<polygon fill="white" stroke="#666666" points="482.62,-500 338.38,-500 338.38,-468 482.62,-468 482.62,-500"/>
<text text-anchor="start" x="346.38" y="-486.5" font-family="Helvetica,sans-Serif" font-size="10.00">GEU::pclConversor::</text>
<text text-anchor="middle" x="410.5" y="-474.5" font-family="Helvetica,sans-Serif" font-size="10.00">convertToRGBPCLPointCloud</text>
</a>
</g>
</g>
<!-- Node1&#45;&gt;Node10 -->
<g id="edge9_Node000001_Node000010" class="edge">
<title>Node1&#45;&gt;Node10</title>
<g id="a_edge9_Node000001_Node000010"><a xlink:title=" ">
<path fill="none" stroke="#63b8ff" d="M511.85,-470.04C502.23,-471.38 492.45,-472.74 482.96,-474.06"/>
<polygon fill="#63b8ff" stroke="#63b8ff" points="512.12,-473.54 521.54,-468.7 511.15,-466.61 512.12,-473.54"/>
</a>
</g>
</g>
<!-- Node11 -->
<g id="Node000011" class="node">
<title>Node11</title>
<g id="a_Node000011"><a xlink:href="../../dd/d00/class_procedural_voxel.html#a1d4e756ee058170262222d52628f850b" target="_top" xlink:title=" ">
<polygon fill="white" stroke="#666666" points="472.88,-450 348.12,-450 348.12,-418 472.88,-418 472.88,-450"/>
<text text-anchor="start" x="356.12" y="-436.5" font-family="Helvetica,sans-Serif" font-size="10.00">ProceduralVoxel::internal</text>
<text text-anchor="middle" x="410.5" y="-424.5" font-family="Helvetica,sans-Serif" font-size="10.00">Distribution</text>
</a>
</g>
</g>
<!-- Node1&#45;&gt;Node11 -->
<g id="edge10_Node000001_Node000011" class="edge">
<title>Node1&#45;&gt;Node11</title>
<g id="a_edge10_Node000001_Node000011"><a xlink:title=" ">
<path fill="none" stroke="#63b8ff" d="M511.77,-447.95C498.83,-446.15 485.6,-444.31 473.17,-442.58"/>
<polygon fill="#63b8ff" stroke="#63b8ff" points="511.15,-451.39 521.54,-449.3 512.12,-444.46 511.15,-451.39"/>
</a>
</g>
</g>
<!-- Node12 -->
<g id="Node000012" class="node">
<title>Node12</title>
<g id="a_Node000012"><a xlink:href="../../de/d02/class_g_e_u_1_1_multiespectral_g_u_i_adapter.html#a7b73a6f101cc9e18dadb15797dcdf8f9" target="_top" xlink:title=" ">
<polygon fill="white" stroke="#666666" points="487.5,-400 333.5,-400 333.5,-368 487.5,-368 487.5,-400"/>
<text text-anchor="start" x="341.5" y="-386.5" font-family="Helvetica,sans-Serif" font-size="10.00">GEU::MultiespectralGUIAdapter</text>
<text text-anchor="middle" x="410.5" y="-374.5" font-family="Helvetica,sans-Serif" font-size="10.00">::mapping</text>
</a>
</g>
</g>
<!-- Node1&#45;&gt;Node12 -->
<g id="edge11_Node000001_Node000012" class="edge">
<title>Node1&#45;&gt;Node12</title>
<g id="a_edge11_Node000001_Node000012"><a xlink:title=" ">
<path fill="none" stroke="#63b8ff" d="M549.68,-437.42C530.94,-428.1 508.37,-417.42 487.5,-409 480.16,-406.04 472.32,-403.16 464.56,-400.46"/>
<polygon fill="#63b8ff" stroke="#63b8ff" points="548.09,-440.54 558.6,-441.91 551.24,-434.29 548.09,-440.54"/>
</a>
</g>
</g>
<!-- Node14 -->
<g id="Node000014" class="node">
<title>Node14</title>
<g id="a_Node000014"><a xlink:href="../../d4/d07/class_normales_g_u_i_adapter.html#a5f2b290d502274f01fc3e9bdadfca50e" target="_top" xlink:title=" ">
<polygon fill="white" stroke="#666666" points="464.25,-332 356.75,-332 356.75,-300 464.25,-300 464.25,-332"/>
<text text-anchor="start" x="364.75" y="-318.5" font-family="Helvetica,sans-Serif" font-size="10.00">NormalesGUIAdapter</text>
<text text-anchor="middle" x="410.5" y="-306.5" font-family="Helvetica,sans-Serif" font-size="10.00">::normalComparison</text>
</a>
</g>
</g>
<!-- Node1&#45;&gt;Node14 -->
<g id="edge13_Node000001_Node000014" class="edge">
<title>Node1&#45;&gt;Node14</title>
<g id="a_edge13_Node000001_Node000014"><a xlink:title=" ">
<path fill="none" stroke="#63b8ff" d="M569.25,-434.55C549.22,-413.11 518.17,-381.88 487.5,-359 474.26,-349.12 458.51,-339.86 444.8,-332.48"/>
<polygon fill="#63b8ff" stroke="#63b8ff" points="566.49,-436.72 575.85,-441.69 571.64,-431.97 566.49,-436.72"/>
</a>
</g>
</g>
<!-- Node16 -->
<g id="Node000016" class="node">
<title>Node16</title>
<g id="a_Node000016"><a xlink:href="../../d4/d07/class_normales_g_u_i_adapter.html#a32cec8b0ea288f27e15946d5a4ea3728" target="_top" xlink:title=" ">
<polygon fill="white" stroke="#666666" points="464.25,-282 356.75,-282 356.75,-250 464.25,-250 464.25,-282"/>
<text text-anchor="start" x="364.75" y="-268.5" font-family="Helvetica,sans-Serif" font-size="10.00">NormalesGUIAdapter</text>
<text text-anchor="middle" x="410.5" y="-256.5" font-family="Helvetica,sans-Serif" font-size="10.00">::offsetMethod</text>
</a>
</g>
</g>
<!-- Node1&#45;&gt;Node16 -->
<g id="edge16_Node000001_Node000016" class="edge">
<title>Node1&#45;&gt;Node16</title>
<g id="a_edge16_Node000001_Node000016"><a xlink:title=" ">
<path fill="none" stroke="#63b8ff" d="M581.59,-432.29C566.89,-395.3 535.44,-328.8 487.5,-291 480.74,-285.67 472.79,-281.45 464.64,-278.12"/>
<polygon fill="#63b8ff" stroke="#63b8ff" points="578.21,-433.26 585.07,-441.34 584.75,-430.75 578.21,-433.26"/>
</a>
</g>
</g>
<!-- Node17 -->
<g id="Node000017" class="node">
<title>Node17</title>
<g id="a_Node000017"><a xlink:href="../../dc/d01/class_g_e_u_1_1_image_cloud_proj.html#a484fe62f28ca22a853facc52b75a297e" target="_top" xlink:title=" ">
<polygon fill="white" stroke="#666666" points="466.12,-232 354.88,-232 354.88,-200 466.12,-200 466.12,-232"/>
<text text-anchor="start" x="362.88" y="-218.5" font-family="Helvetica,sans-Serif" font-size="10.00">GEU::ImageCloudProj</text>
<text text-anchor="middle" x="410.5" y="-206.5" font-family="Helvetica,sans-Serif" font-size="10.00">::rasterize</text>
</a>
</g>
</g>
<!-- Node1&#45;&gt;Node17 -->
<g id="edge18_Node000001_Node000017" class="edge">
<title>Node1&#45;&gt;Node17</title>
<g id="a_edge18_Node000001_Node000017"><a xlink:title=" ">
<path fill="none" stroke="#63b8ff" d="M585.57,-431.51C574.64,-385.51 546.4,-292.89 487.5,-241 481.35,-235.58 474,-231.33 466.33,-228"/>
<polygon fill="#63b8ff" stroke="#63b8ff" points="582.13,-432.21 587.75,-441.19 588.96,-430.66 582.13,-432.21"/>
</a>
</g>
</g>
<!-- Node18 -->
<g id="Node000018" class="node">
<title>Node18</title>
<g id="a_Node000018"><a xlink:href="../../dd/d03/class_g_e_u_1_1_procedural_generator.html#ab8f82fb76364670dd7e6dc7b32535694" target="_top" xlink:title=" ">
<polygon fill="white" stroke="#666666" points="477,-182 344,-182 344,-150 477,-150 477,-182"/>
<text text-anchor="start" x="352" y="-168.5" font-family="Helvetica,sans-Serif" font-size="10.00">GEU::ProceduralGenerator</text>
<text text-anchor="middle" x="410.5" y="-156.5" font-family="Helvetica,sans-Serif" font-size="10.00">::RegionRGBSegmentation</text>
</a>
</g>
</g>
<!-- Node1&#45;&gt;Node18 -->
<g id="edge19_Node000001_Node000018" class="edge">
<title>Node1&#45;&gt;Node18</title>
<g id="a_edge19_Node000001_Node000018"><a xlink:title=" ">
<path fill="none" stroke="#63b8ff" d="M588.33,-431.48C581.16,-377.64 557.81,-257.78 487.5,-191 484.08,-187.75 480.22,-184.92 476.11,-182.46"/>
<polygon fill="#63b8ff" stroke="#63b8ff" points="584.84,-431.81 589.54,-441.31 591.79,-430.96 584.84,-431.81"/>
</a>
</g>
</g>
<!-- Node19 -->
<g id="Node000019" class="node">
<title>Node19</title>
<g id="a_Node000019"><a xlink:href="../../dd/d01/class_g_e_u_1_1_file_manager.html#a5207794330ae3a16542e22120c985aac" target="_top" xlink:title=" ">
<polygon fill="white" stroke="#666666" points="482.62,-132 338.38,-132 338.38,-100 482.62,-100 482.62,-132"/>
<text text-anchor="start" x="346.38" y="-118.5" font-family="Helvetica,sans-Serif" font-size="10.00">GEU::FileManager::savePoint</text>
<text text-anchor="middle" x="410.5" y="-106.5" font-family="Helvetica,sans-Serif" font-size="10.00">Cloud</text>
</a>
</g>
</g>
<!-- Node1&#45;&gt;Node19 -->
<g id="edge20_Node000001_Node000019" class="edge">
<title>Node1&#45;&gt;Node19</title>
<g id="a_edge20_Node000001_Node000019"><a xlink:title=" ">
<path fill="none" stroke="#63b8ff" d="M590.26,-431.14C586.58,-369.99 569.23,-222.93 487.5,-141 484.26,-137.75 480.6,-134.93 476.67,-132.47"/>
<polygon fill="#63b8ff" stroke="#63b8ff" points="586.76,-431.19 590.77,-441 593.75,-430.83 586.76,-431.19"/>
</a>
</g>
</g>
<!-- Node22 -->
<g id="Node000022" class="node">
<title>Node22</title>
<g id="a_Node000022"><a xlink:href="../../d3/d00/class_g_e_u_1_1_thermal_augment.html#a7d44bfe00e67702d5af13b627f6500f6" target="_top" xlink:title=" ">
<polygon fill="white" stroke="#666666" points="468.75,-82 352.25,-82 352.25,-50 468.75,-50 468.75,-82"/>
<text text-anchor="start" x="360.25" y="-68.5" font-family="Helvetica,sans-Serif" font-size="10.00">GEU::ThermalAugment</text>
<text text-anchor="middle" x="410.5" y="-56.5" font-family="Helvetica,sans-Serif" font-size="10.00">::setUpCloud</text>
</a>
</g>
</g>
<!-- Node1&#45;&gt;Node22 -->
<g id="edge23_Node000001_Node000022" class="edge">
<title>Node1&#45;&gt;Node22</title>
<g id="a_edge23_Node000001_Node000022"><a xlink:title=" ">
<path fill="none" stroke="#63b8ff" d="M591.74,-431.54C591.42,-364.09 581.09,-188.7 487.5,-91 482.31,-85.58 475.93,-81.34 469.09,-78.01"/>
<polygon fill="#63b8ff" stroke="#63b8ff" points="588.24,-431.31 591.71,-441.32 595.24,-431.33 588.24,-431.31"/>
</a>
</g>
</g>
<!-- Node23 -->
<g id="Node000023" class="node">
<title>Node23</title>
<g id="a_Node000023"><a xlink:href="../../dd/d03/class_g_e_u_1_1_procedural_generator.html#ab8413581fb4ba7ab9709a72bca03ce64" target="_top" xlink:title="Assign each point of the PointCloud to the corresponding voxel in the voxel grid and computes the cor...">
<polygon fill="white" stroke="#666666" points="476.62,-32 344.38,-32 344.38,0 476.62,0 476.62,-32"/>
<text text-anchor="start" x="352.38" y="-18.5" font-family="Helvetica,sans-Serif" font-size="10.00">GEU::ProceduralGenerator</text>
<text text-anchor="middle" x="410.5" y="-6.5" font-family="Helvetica,sans-Serif" font-size="10.00">::subdivideCloud</text>
</a>
</g>
</g>
<!-- Node1&#45;&gt;Node23 -->
<g id="edge24_Node000001_Node000023" class="edge">
<title>Node1&#45;&gt;Node23</title>
<g id="a_edge24_Node000001_Node000023"><a xlink:title=" ">
<path fill="none" stroke="#63b8ff" d="M587.86,-431.17C577.14,-347.29 541.38,-99.05 487.5,-41 484.38,-37.64 480.8,-34.73 476.94,-32.21"/>
<polygon fill="#63b8ff" stroke="#63b8ff" points="584.38,-431.54 589.1,-441.03 591.33,-430.67 584.38,-431.54"/>
</a>
</g>
</g>
<!-- Node13 -->
<g id="Node000013" class="node">
<title>Node13</title>
<g id="a_Node000013"><a xlink:href="../../de/d02/class_g_e_u_1_1_multiespectral_g_u_i_adapter.html#a30cdb8738563252a05b2da154c3f864d" target="_top" xlink:title="Custom module GUI window contents.">
<polygon fill="white" stroke="#666666" points="297.5,-400 143.5,-400 143.5,-368 297.5,-368 297.5,-400"/>
<text text-anchor="start" x="151.5" y="-386.5" font-family="Helvetica,sans-Serif" font-size="10.00">GEU::MultiespectralGUIAdapter</text>
<text text-anchor="middle" x="220.5" y="-374.5" font-family="Helvetica,sans-Serif" font-size="10.00">::renderGuiObject</text>
</a>
</g>
</g>
<!-- Node12&#45;&gt;Node13 -->
<g id="edge12_Node000012_Node000013" class="edge">
<title>Node12&#45;&gt;Node13</title>
<g id="a_edge12_Node000012_Node000013"><a xlink:title=" ">
<path fill="none" stroke="#63b8ff" d="M321.53,-384C313.64,-384 305.68,-384 297.9,-384"/>
<polygon fill="#63b8ff" stroke="#63b8ff" points="321.52,-387.5 331.52,-384 321.52,-380.5 321.52,-387.5"/>
</a>
</g>
</g>
<!-- Node14&#45;&gt;Node14 -->
<g id="edge14_Node000014_Node000014" class="edge">
<title>Node14&#45;&gt;Node14</title>
<g id="a_edge14_Node000014_Node000014"><a xlink:title=" ">
<path fill="none" stroke="#63b8ff" d="M440.79,-343.71C435.74,-347.48 425.64,-350 410.5,-350 382.81,-350 372,-341.58 378.05,-332.44"/>
<polygon fill="#63b8ff" stroke="#63b8ff" points="444.22,-344.41 442.66,-333.93 437.34,-343.09 444.22,-344.41"/>
</a>
</g>
</g>
<!-- Node15 -->
<g id="Node000015" class="node">
<title>Node15</title>
<g id="a_Node000015"><a xlink:href="../../d4/d07/class_normales_g_u_i_adapter.html#ad27c678722407ed6f3d2bb41ccc2b640" target="_top" xlink:title="Custom module GUI window contents.">
<polygon fill="white" stroke="#666666" points="274.25,-307 166.75,-307 166.75,-275 274.25,-275 274.25,-307"/>
<text text-anchor="start" x="174.75" y="-293.5" font-family="Helvetica,sans-Serif" font-size="10.00">NormalesGUIAdapter</text>
<text text-anchor="middle" x="220.5" y="-281.5" font-family="Helvetica,sans-Serif" font-size="10.00">::renderGuiObject</text>
</a>
</g>
</g>
<!-- Node14&#45;&gt;Node15 -->
<g id="edge15_Node000014_Node000015" class="edge">
<title>Node14&#45;&gt;Node15</title>
<g id="a_edge15_Node000014_Node000015"><a xlink:title=" ">
<path fill="none" stroke="#63b8ff" d="M344.98,-307.42C322,-304.36 296.4,-300.96 274.49,-298.05"/>
<polygon fill="#63b8ff" stroke="#63b8ff" points="344.51,-310.89 354.88,-308.74 345.43,-303.95 344.51,-310.89"/>
</a>
</g>
</g>
<!-- Node16&#45;&gt;Node15 -->
<g id="edge17_Node000016_Node000015" class="edge">
<title>Node16&#45;&gt;Node15</title>
<g id="a_edge17_Node000016_Node000015"><a xlink:title=" ">
<path fill="none" stroke="#63b8ff" d="M344.98,-274.58C322,-277.64 296.4,-281.04 274.49,-283.95"/>
<polygon fill="#63b8ff" stroke="#63b8ff" points="345.43,-278.05 354.88,-273.26 344.51,-271.11 345.43,-278.05"/>
</a>
</g>
</g>
<!-- Node20 -->
<g id="Node000020" class="node">
<title>Node20</title>
<g id="a_Node000020"><a xlink:href="../../db/d00/class_g_e_u_1_1_details_window.html#a696b110218746e301559da2c93e6cd60" target="_top" xlink:title="Renders inspector details for point cloud items.">
<polygon fill="white" stroke="#666666" points="288.5,-132 152.5,-132 152.5,-100 288.5,-100 288.5,-132"/>
<text text-anchor="start" x="160.5" y="-118.5" font-family="Helvetica,sans-Serif" font-size="10.00">GEU::DetailsWindow</text>
<text text-anchor="middle" x="220.5" y="-106.5" font-family="Helvetica,sans-Serif" font-size="10.00">::makePCloudItemInspector</text>
</a>
</g>
</g>
<!-- Node19&#45;&gt;Node20 -->
<g id="edge21_Node000019_Node000020" class="edge">
<title>Node19&#45;&gt;Node20</title>
<g id="a_edge21_Node000019_Node000020"><a xlink:title=" ">
<path fill="none" stroke="#63b8ff" d="M326.45,-116C313.89,-116 301.06,-116 288.89,-116"/>
<polygon fill="#63b8ff" stroke="#63b8ff" points="326.38,-119.5 336.38,-116 326.38,-112.5 326.38,-119.5"/>
</a>
</g>
</g>
<!-- Node21 -->
<g id="Node000021" class="node">
<title>Node21</title>
<g id="a_Node000021"><a xlink:href="../../db/d00/class_g_e_u_1_1_details_window.html#a6666ec761cc5cd8a57220823b8e7daa6" target="_top" xlink:title="Renders the window and contents.">
<polygon fill="white" stroke="#666666" points="107.5,-132 0,-132 0,-100 107.5,-100 107.5,-132"/>
<text text-anchor="start" x="8" y="-118.5" font-family="Helvetica,sans-Serif" font-size="10.00">GEU::DetailsWindow</text>
<text text-anchor="middle" x="53.75" y="-106.5" font-family="Helvetica,sans-Serif" font-size="10.00">::renderWindow</text>
</a>
</g>
</g>
<!-- Node20&#45;&gt;Node21 -->
<g id="edge22_Node000020_Node000021" class="edge">
<title>Node20&#45;&gt;Node21</title>
<g id="a_edge22_Node000020_Node000021"><a xlink:title=" ">
<path fill="none" stroke="#63b8ff" d="M140.51,-116C129.4,-116 118.22,-116 107.76,-116"/>
<polygon fill="#63b8ff" stroke="#63b8ff" points="140.5,-119.5 150.5,-116 140.5,-112.5 140.5,-119.5"/>
</a>
</g>
</g>
</g>
</svg>
