<?xml version="1.0" encoding="UTF-8" standalone="no"?>
<!DOCTYPE svg PUBLIC "-//W3C//DTD SVG 1.1//EN"
 "http://www.w3.org/Graphics/SVG/1.1/DTD/svg11.dtd">
<!-- Generated by graphviz version 10.0.1 (20240210.2158)
 -->
<!-- Title: GEU::PointCloud::hilbertSorting Pages: 1 -->
<svg width="379pt" height="104pt"
 viewBox="0.00 0.00 379.25 104.00" xmlns="http://www.w3.org/2000/svg" xmlns:xlink="http://www.w3.org/1999/xlink">
<g id="graph0" class="graph" transform="scale(1 1) rotate(0) translate(4 100)">
<title>GEU::PointCloud::hilbertSorting</title>
<!-- Node1 -->
<g id="Node000001" class="node">
<title>Node1</title>
<g id="a_Node000001"><a xlink:title="Performs sorting of the points in the point cloud using Hilbert Encoding.">
<polygon fill="#999999" stroke="#666666" points="122.5,-64 0,-64 0,-32 122.5,-32 122.5,-64"/>
<text text-anchor="start" x="8" y="-50.5" font-family="Helvetica,sans-Serif" font-size="10.00">GEU::PointCloud::hilbert</text>
<text text-anchor="middle" x="61.25" y="-38.5" font-family="Helvetica,sans-Serif" font-size="10.00">Sorting</text>
</a>
</g>
</g>
<!-- Node2 -->
<g id="Node000002" class="node">
<title>Node2</title>
<g id="a_Node000002"><a xlink:href="../../d0/d00/_point_cloud_8cpp.html#a7410c0c33621f3ecada6be82d3e0bc44" target="_top" xlink:title=" ">
<polygon fill="white" stroke="#666666" points="252.12,-96 161.12,-96 161.12,-76 252.12,-76 252.12,-96"/>
<text text-anchor="middle" x="206.62" y="-82.5" font-family="Helvetica,sans-Serif" font-size="10.00">compareFunction</text>
</a>
</g>
</g>
<!-- Node1&#45;&gt;Node2 -->
<g id="edge1_Node000001_Node000002" class="edge">
<title>Node1&#45;&gt;Node2</title>
<g id="a_edge1_Node000001_Node000002"><a xlink:title=" ">
<path fill="none" stroke="#63b8ff" d="M122.64,-64.01C133.43,-66.87 144.57,-69.82 155.05,-72.6"/>
<polygon fill="#63b8ff" stroke="#63b8ff" points="154.09,-75.96 164.65,-75.14 155.88,-69.2 154.09,-75.96"/>
</a>
</g>
</g>
<!-- Node3 -->
<g id="Node000003" class="node">
<title>Node3</title>
<g id="a_Node000003"><a xlink:href="../../d0/d00/_point_cloud_8cpp.html#acb1f00c5cfca4e810959cdbce621e2ef" target="_top" xlink:title=" ">
<polygon fill="white" stroke="#666666" points="235.62,-58 177.62,-58 177.62,-38 235.62,-38 235.62,-58"/>
<text text-anchor="middle" x="206.62" y="-44.5" font-family="Helvetica,sans-Serif" font-size="10.00">morton3D</text>
</a>
</g>
</g>
<!-- Node1&#45;&gt;Node3 -->
<g id="edge2_Node000001_Node000003" class="edge">
<title>Node1&#45;&gt;Node3</title>
<g id="a_edge2_Node000001_Node000003"><a xlink:title=" ">
<path fill="none" stroke="#63b8ff" d="M122.64,-48C137.32,-48 152.65,-48 166.08,-48"/>
<polygon fill="#63b8ff" stroke="#63b8ff" points="165.81,-51.5 175.81,-48 165.81,-44.5 165.81,-51.5"/>
</a>
</g>
</g>
<!-- Node5 -->
<g id="Node000005" class="node">
<title>Node5</title>
<g id="a_Node000005"><a xlink:href="../../d0/d00/_point_cloud_8cpp.html#a1deefca192e15b16f140bee909eab381" target="_top" xlink:title=" ">
<polygon fill="white" stroke="#666666" points="254.75,-20 158.5,-20 158.5,0 254.75,0 254.75,-20"/>
<text text-anchor="middle" x="206.62" y="-6.5" font-family="Helvetica,sans-Serif" font-size="10.00">mortonToHilbert3D</text>
</a>
</g>
</g>
<!-- Node1&#45;&gt;Node5 -->
<g id="edge4_Node000001_Node000005" class="edge">
<title>Node1&#45;&gt;Node5</title>
<g id="a_edge4_Node000001_Node000005"><a xlink:title=" ">
<path fill="none" stroke="#63b8ff" d="M122.64,-31.99C133.43,-29.13 144.57,-26.18 155.05,-23.4"/>
<polygon fill="#63b8ff" stroke="#63b8ff" points="155.88,-26.8 164.65,-20.86 154.09,-20.04 155.88,-26.8"/>
</a>
</g>
</g>
<!-- Node4 -->
<g id="Node000004" class="node">
<title>Node4</title>
<g id="a_Node000004"><a xlink:href="../../d0/d00/_point_cloud_8cpp.html#a76f344626b561a61f27f53facc526868" target="_top" xlink:title=" ">
<polygon fill="white" stroke="#666666" points="363.38,-58 298.62,-58 298.62,-38 363.38,-38 363.38,-58"/>
<text text-anchor="middle" x="331" y="-44.5" font-family="Helvetica,sans-Serif" font-size="10.00">expandBits</text>
</a>
</g>
</g>
<!-- Node3&#45;&gt;Node4 -->
<g id="edge3_Node000003_Node000004" class="edge">
<title>Node3&#45;&gt;Node4</title>
<g id="a_edge3_Node000003_Node000004"><a xlink:title=" ">
<path fill="none" stroke="#63b8ff" d="M236.01,-48C251.15,-48 270.11,-48 287.02,-48"/>
<polygon fill="#63b8ff" stroke="#63b8ff" points="286.81,-51.5 296.81,-48 286.81,-44.5 286.81,-51.5"/>
</a>
</g>
</g>
<!-- Node6 -->
<g id="Node000006" class="node">
<title>Node6</title>
<g id="a_Node000006"><a xlink:href="../../d0/d00/_point_cloud_8cpp.html#a0c82c97328257f65e0aee8d371d0a187" target="_top" xlink:title=" ">
<polygon fill="white" stroke="#666666" points="371.25,-20 290.75,-20 290.75,0 371.25,0 371.25,-20"/>
<text text-anchor="middle" x="331" y="-6.5" font-family="Helvetica,sans-Serif" font-size="10.00">transformCurve</text>
</a>
</g>
</g>
<!-- Node5&#45;&gt;Node6 -->
<g id="edge5_Node000005_Node000006" class="edge">
<title>Node5&#45;&gt;Node6</title>
<g id="a_edge5_Node000005_Node000006"><a xlink:title=" ">
<path fill="none" stroke="#63b8ff" d="M254.94,-10C262.8,-10 270.99,-10 278.94,-10"/>
<polygon fill="#63b8ff" stroke="#63b8ff" points="278.84,-13.5 288.84,-10 278.84,-6.5 278.84,-13.5"/>
</a>
</g>
</g>
</g>
</svg>
