<?xml version="1.0" encoding="UTF-8" standalone="no"?>
<!DOCTYPE svg PUBLIC "-//W3C//DTD SVG 1.1//EN"
 "http://www.w3.org/Graphics/SVG/1.1/DTD/svg11.dtd">
<!-- Generated by graphviz version 10.0.1 (20240210.2158)
 -->
<!-- Title: GEU::PointCloud::pickPoint Pages: 1 -->
<svg width="331pt" height="228pt"
 viewBox="0.00 0.00 331.00 228.00" xmlns="http://www.w3.org/2000/svg" xmlns:xlink="http://www.w3.org/1999/xlink">
<g id="graph0" class="graph" transform="scale(1 1) rotate(0) translate(4 224)">
<title>GEU::PointCloud::pickPoint</title>
<!-- Node1 -->
<g id="Node000001" class="node">
<title>Node1</title>
<g id="a_Node000001"><a xlink:title=" ">
<polygon fill="#999999" stroke="#666666" points="136.75,-126 0,-126 0,-106 136.75,-106 136.75,-126"/>
<text text-anchor="middle" x="68.38" y="-112.5" font-family="Helvetica,sans-Serif" font-size="10.00">GEU::PointCloud::pickPoint</text>
</a>
</g>
</g>
<!-- Node2 -->
<g id="Node000002" class="node">
<title>Node2</title>
<g id="a_Node000002"><a xlink:href="../../d5/d02/class_g_e_u_1_1_scene.html#a32e6f62d221dd01bac85a6e4201d9418" target="_top" xlink:title=" ">
<polygon fill="white" stroke="#666666" points="323,-220 172.75,-220 172.75,-200 323,-200 323,-220"/>
<text text-anchor="middle" x="247.88" y="-206.5" font-family="Helvetica,sans-Serif" font-size="10.00">GEU::Scene::getActiveCamera</text>
</a>
</g>
</g>
<!-- Node1&#45;&gt;Node2 -->
<g id="edge1_Node000001_Node000002" class="edge">
<title>Node1&#45;&gt;Node2</title>
<g id="a_edge1_Node000001_Node000002"><a xlink:title=" ">
<path fill="none" stroke="#63b8ff" d="M80.54,-126.34C98.58,-142.49 135.83,-173.65 172.75,-191 176.7,-192.85 180.85,-194.54 185.09,-196.08"/>
<polygon fill="#63b8ff" stroke="#63b8ff" points="183.71,-199.32 194.31,-199.13 185.91,-192.67 183.71,-199.32"/>
</a>
</g>
</g>
<!-- Node3 -->
<g id="Node000003" class="node">
<title>Node3</title>
<g id="a_Node000003"><a xlink:href="../../de/d04/class_g_e_u_1_1_renderer.html#af5f4307b5eba7c09888765c183a75213" target="_top" xlink:title=" ">
<polygon fill="white" stroke="#666666" points="311.75,-182 184,-182 184,-150 311.75,-150 311.75,-182"/>
<text text-anchor="start" x="192" y="-168.5" font-family="Helvetica,sans-Serif" font-size="10.00">GEU::Renderer::getActive</text>
<text text-anchor="middle" x="247.88" y="-156.5" font-family="Helvetica,sans-Serif" font-size="10.00">Scene</text>
</a>
</g>
</g>
<!-- Node1&#45;&gt;Node3 -->
<g id="edge2_Node000001_Node000003" class="edge">
<title>Node1&#45;&gt;Node3</title>
<g id="a_edge2_Node000001_Node000003"><a xlink:title=" ">
<path fill="none" stroke="#63b8ff" d="M106.58,-126.48C127.13,-132.27 153.3,-139.64 177.47,-146.45"/>
<polygon fill="#63b8ff" stroke="#63b8ff" points="176.37,-149.78 186.95,-149.12 178.27,-143.04 176.37,-149.78"/>
</a>
</g>
</g>
<!-- Node4 -->
<g id="Node000004" class="node">
<title>Node4</title>
<g id="a_Node000004"><a xlink:href="../../d9/d05/class_g_e_u_1_1_input_manager.html#af2ea72a4bd53eb6f69a5c873e4c22017" target="_top" xlink:title=" ">
<polygon fill="white" stroke="#666666" points="301.62,-132 194.12,-132 194.12,-100 301.62,-100 301.62,-132"/>
<text text-anchor="start" x="202.12" y="-118.5" font-family="Helvetica,sans-Serif" font-size="10.00">GEU::InputManager::</text>
<text text-anchor="middle" x="247.88" y="-106.5" font-family="Helvetica,sans-Serif" font-size="10.00">getApplicationState</text>
</a>
</g>
</g>
<!-- Node1&#45;&gt;Node4 -->
<g id="edge3_Node000001_Node000004" class="edge">
<title>Node1&#45;&gt;Node4</title>
<g id="a_edge3_Node000001_Node000004"><a xlink:title=" ">
<path fill="none" stroke="#63b8ff" d="M137.24,-116C151.99,-116 167.56,-116 182.18,-116"/>
<polygon fill="#63b8ff" stroke="#63b8ff" points="182.16,-119.5 192.16,-116 182.16,-112.5 182.16,-119.5"/>
</a>
</g>
</g>
<!-- Node5 -->
<g id="Node000005" class="node">
<title>Node5</title>
<g id="a_Node000005"><a xlink:href="../../d1/d01/class_g_e_u_1_1_singleton.html#a47c7e7c2110f4cc59c9ff1f5594c366e" target="_top" xlink:title=" ">
<polygon fill="white" stroke="#666666" points="313.62,-82 182.12,-82 182.12,-50 313.62,-50 313.62,-82"/>
<text text-anchor="start" x="190.12" y="-68.5" font-family="Helvetica,sans-Serif" font-size="10.00">GEU::Singleton&lt; Renderer</text>
<text text-anchor="middle" x="247.88" y="-56.5" font-family="Helvetica,sans-Serif" font-size="10.00"> &gt;::getInstance</text>
</a>
</g>
</g>
<!-- Node1&#45;&gt;Node5 -->
<g id="edge4_Node000001_Node000005" class="edge">
<title>Node1&#45;&gt;Node5</title>
<g id="a_edge4_Node000001_Node000005"><a xlink:title=" ">
<path fill="none" stroke="#63b8ff" d="M106.58,-105.52C127.13,-99.73 153.3,-92.36 177.47,-85.55"/>
<polygon fill="#63b8ff" stroke="#63b8ff" points="178.27,-88.96 186.95,-82.88 176.37,-82.22 178.27,-88.96"/>
</a>
</g>
</g>
<!-- Node6 -->
<g id="Node000006" class="node">
<title>Node6</title>
<g id="a_Node000006"><a xlink:href="../../da/d02/namespace_g_e_u_1_1_operators3_d.html#afbbf1de4b5457d1743c7d68c5307b600" target="_top" xlink:title=" ">
<polygon fill="white" stroke="#666666" points="315.5,-32 180.25,-32 180.25,0 315.5,0 315.5,-32"/>
<text text-anchor="start" x="188.25" y="-18.5" font-family="Helvetica,sans-Serif" font-size="10.00">GEU::Operators3D::pointTo</text>
<text text-anchor="middle" x="247.88" y="-6.5" font-family="Helvetica,sans-Serif" font-size="10.00">LineDistance</text>
</a>
</g>
</g>
<!-- Node1&#45;&gt;Node6 -->
<g id="edge5_Node000001_Node000006" class="edge">
<title>Node1&#45;&gt;Node6</title>
<g id="a_edge5_Node000001_Node000006"><a xlink:title=" ">
<path fill="none" stroke="#63b8ff" d="M81,-105.72C99.36,-89.94 136.69,-59.61 172.75,-41 175.58,-39.54 178.51,-38.14 181.5,-36.8"/>
<polygon fill="#63b8ff" stroke="#63b8ff" points="182.58,-40.14 190.45,-33.05 179.88,-33.68 182.58,-40.14"/>
</a>
</g>
</g>
</g>
</svg>
