<?xml version="1.0" encoding="UTF-8" standalone="no"?>
<!DOCTYPE svg PUBLIC "-//W3C//DTD SVG 1.1//EN"
 "http://www.w3.org/Graphics/SVG/1.1/DTD/svg11.dtd">
<!-- Generated by graphviz version 10.0.1 (20240210.2158)
 -->
<!-- Title: GEU::PointCloud::pickPointsArea Pages: 1 -->
<svg width="374pt" height="228pt"
 viewBox="0.00 0.00 373.75 228.00" xmlns="http://www.w3.org/2000/svg" xmlns:xlink="http://www.w3.org/1999/xlink">
<g id="graph0" class="graph" transform="scale(1 1) rotate(0) translate(4 224)">
<title>GEU::PointCloud::pickPointsArea</title>
<!-- Node1 -->
<g id="Node000001" class="node">
<title>Node1</title>
<g id="a_Node000001"><a xlink:title=" ">
<polygon fill="#999999" stroke="#666666" points="162.25,-120 0,-120 0,-100 162.25,-100 162.25,-120"/>
<text text-anchor="middle" x="81.12" y="-106.5" font-family="Helvetica,sans-Serif" font-size="10.00">GEU::PointCloud::pickPointsArea</text>
</a>
</g>
</g>
<!-- Node2 -->
<g id="Node000002" class="node">
<title>Node2</title>
<g id="a_Node000002"><a xlink:href="../../d0/d01/namespace_g_e_u_1_1_operators2_d.html#a831379f52f30464a7858df166cf74e42" target="_top" xlink:title=" ">
<polygon fill="white" stroke="#666666" points="365.75,-220 198.25,-220 198.25,-188 365.75,-188 365.75,-220"/>
<text text-anchor="start" x="206.25" y="-206.5" font-family="Helvetica,sans-Serif" font-size="10.00">GEU::Operators2D::checkAABBox</text>
<text text-anchor="middle" x="282" y="-194.5" font-family="Helvetica,sans-Serif" font-size="10.00">ToAABBox</text>
</a>
</g>
</g>
<!-- Node1&#45;&gt;Node2 -->
<g id="edge1_Node000001_Node000002" class="edge">
<title>Node1&#45;&gt;Node2</title>
<g id="a_edge1_Node000001_Node000002"><a xlink:title=" ">
<path fill="none" stroke="#63b8ff" d="M96.9,-120.38C118.36,-135.09 159.83,-162.08 198.25,-179 201.97,-180.64 205.83,-182.21 209.76,-183.71"/>
<polygon fill="#63b8ff" stroke="#63b8ff" points="208.25,-186.89 218.85,-187 210.63,-180.31 208.25,-186.89"/>
</a>
</g>
</g>
<!-- Node3 -->
<g id="Node000003" class="node">
<title>Node3</title>
<g id="a_Node000003"><a xlink:href="../../d0/d01/namespace_g_e_u_1_1_operators2_d.html#aaf3dacd9dfcce47766ba3ce825b01625" target="_top" xlink:title="Checks if given point is inside given rectangle.">
<polygon fill="white" stroke="#666666" points="358.25,-170 205.75,-170 205.75,-138 358.25,-138 358.25,-170"/>
<text text-anchor="start" x="213.75" y="-156.5" font-family="Helvetica,sans-Serif" font-size="10.00">GEU::Operators2D::checkPoint</text>
<text text-anchor="middle" x="282" y="-144.5" font-family="Helvetica,sans-Serif" font-size="10.00">InRect</text>
</a>
</g>
</g>
<!-- Node1&#45;&gt;Node3 -->
<g id="edge2_Node000001_Node000003" class="edge">
<title>Node1&#45;&gt;Node3</title>
<g id="a_edge2_Node000001_Node000003"><a xlink:title=" ">
<path fill="none" stroke="#63b8ff" d="M129.51,-120.48C149.35,-124.87 173.05,-130.12 195.74,-135.14"/>
<polygon fill="#63b8ff" stroke="#63b8ff" points="194.78,-138.51 205.3,-137.25 196.29,-131.67 194.78,-138.51"/>
</a>
</g>
</g>
<!-- Node4 -->
<g id="Node000004" class="node">
<title>Node4</title>
<g id="a_Node000004"><a xlink:href="../../d5/d02/class_g_e_u_1_1_scene.html#a32e6f62d221dd01bac85a6e4201d9418" target="_top" xlink:title=" ">
<polygon fill="white" stroke="#666666" points="357.12,-120 206.88,-120 206.88,-100 357.12,-100 357.12,-120"/>
<text text-anchor="middle" x="282" y="-106.5" font-family="Helvetica,sans-Serif" font-size="10.00">GEU::Scene::getActiveCamera</text>
</a>
</g>
</g>
<!-- Node1&#45;&gt;Node4 -->
<g id="edge3_Node000001_Node000004" class="edge">
<title>Node1&#45;&gt;Node4</title>
<g id="a_edge3_Node000001_Node000004"><a xlink:title=" ">
<path fill="none" stroke="#63b8ff" d="M162.73,-110C173.32,-110 184.22,-110 194.9,-110"/>
<polygon fill="#63b8ff" stroke="#63b8ff" points="194.87,-113.5 204.87,-110 194.87,-106.5 194.87,-113.5"/>
</a>
</g>
</g>
<!-- Node5 -->
<g id="Node000005" class="node">
<title>Node5</title>
<g id="a_Node000005"><a xlink:href="../../de/d04/class_g_e_u_1_1_renderer.html#af5f4307b5eba7c09888765c183a75213" target="_top" xlink:title=" ">
<polygon fill="white" stroke="#666666" points="345.88,-82 218.12,-82 218.12,-50 345.88,-50 345.88,-82"/>
<text text-anchor="start" x="226.12" y="-68.5" font-family="Helvetica,sans-Serif" font-size="10.00">GEU::Renderer::getActive</text>
<text text-anchor="middle" x="282" y="-56.5" font-family="Helvetica,sans-Serif" font-size="10.00">Scene</text>
</a>
</g>
</g>
<!-- Node1&#45;&gt;Node5 -->
<g id="edge4_Node000001_Node000005" class="edge">
<title>Node1&#45;&gt;Node5</title>
<g id="a_edge4_Node000001_Node000005"><a xlink:title=" ">
<path fill="none" stroke="#63b8ff" d="M129.51,-99.52C152.63,-94.4 180.98,-88.13 206.88,-82.4"/>
<polygon fill="#63b8ff" stroke="#63b8ff" points="207.32,-85.89 216.32,-80.31 205.8,-79.05 207.32,-85.89"/>
</a>
</g>
</g>
<!-- Node6 -->
<g id="Node000006" class="node">
<title>Node6</title>
<g id="a_Node000006"><a xlink:href="../../d1/d01/class_g_e_u_1_1_singleton.html#a47c7e7c2110f4cc59c9ff1f5594c366e" target="_top" xlink:title=" ">
<polygon fill="white" stroke="#666666" points="347.75,-32 216.25,-32 216.25,0 347.75,0 347.75,-32"/>
<text text-anchor="start" x="224.25" y="-18.5" font-family="Helvetica,sans-Serif" font-size="10.00">GEU::Singleton&lt; Renderer</text>
<text text-anchor="middle" x="282" y="-6.5" font-family="Helvetica,sans-Serif" font-size="10.00"> &gt;::getInstance</text>
</a>
</g>
</g>
<!-- Node1&#45;&gt;Node6 -->
<g id="edge5_Node000001_Node000006" class="edge">
<title>Node1&#45;&gt;Node6</title>
<g id="a_edge5_Node000001_Node000006"><a xlink:title=" ">
<path fill="none" stroke="#63b8ff" d="M96.9,-99.62C118.36,-84.91 159.83,-57.92 198.25,-41 201.97,-39.36 205.83,-37.79 209.76,-36.29"/>
<polygon fill="#63b8ff" stroke="#63b8ff" points="210.63,-39.69 218.85,-33 208.25,-33.11 210.63,-39.69"/>
</a>
</g>
</g>
</g>
</svg>
