<?xml version="1.0" encoding="UTF-8" standalone="no"?>
<!DOCTYPE svg PUBLIC "-//W3C//DTD SVG 1.1//EN"
 "http://www.w3.org/Graphics/SVG/1.1/DTD/svg11.dtd">
<!-- Generated by graphviz version 10.0.1 (20240210.2158)
 -->
<!-- Title: GEU::PointCloud::pickMeshletsArea Pages: 1 -->
<svg width="386pt" height="178pt"
 viewBox="0.00 0.00 385.75 178.00" xmlns="http://www.w3.org/2000/svg" xmlns:xlink="http://www.w3.org/1999/xlink">
<g id="graph0" class="graph" transform="scale(1 1) rotate(0) translate(4 174)">
<title>GEU::PointCloud::pickMeshletsArea</title>
<!-- Node1 -->
<g id="Node000001" class="node">
<title>Node1</title>
<g id="a_Node000001"><a xlink:title=" ">
<polygon fill="#999999" stroke="#666666" points="174.25,-98 0,-98 0,-78 174.25,-78 174.25,-98"/>
<text text-anchor="middle" x="87.12" y="-84.5" font-family="Helvetica,sans-Serif" font-size="10.00">GEU::PointCloud::pickMeshletsArea</text>
</a>
</g>
</g>
<!-- Node2 -->
<g id="Node000002" class="node">
<title>Node2</title>
<g id="a_Node000002"><a xlink:href="../../d0/d01/namespace_g_e_u_1_1_operators2_d.html#a831379f52f30464a7858df166cf74e42" target="_top" xlink:title=" ">
<polygon fill="white" stroke="#666666" points="377.75,-170 210.25,-170 210.25,-138 377.75,-138 377.75,-170"/>
<text text-anchor="start" x="218.25" y="-156.5" font-family="Helvetica,sans-Serif" font-size="10.00">GEU::Operators2D::checkAABBox</text>
<text text-anchor="middle" x="294" y="-144.5" font-family="Helvetica,sans-Serif" font-size="10.00">ToAABBox</text>
</a>
</g>
</g>
<!-- Node1&#45;&gt;Node2 -->
<g id="edge1_Node000001_Node000002" class="edge">
<title>Node1&#45;&gt;Node2</title>
<g id="a_edge1_Node000001_Node000002"><a xlink:title=" ">
<path fill="none" stroke="#63b8ff" d="M118.4,-98.45C143.07,-106.89 178.82,-118.98 210.25,-129 215.65,-130.72 221.26,-132.48 226.9,-134.23"/>
<polygon fill="#63b8ff" stroke="#63b8ff" points="225.7,-137.52 236.29,-137.11 227.76,-130.83 225.7,-137.52"/>
</a>
</g>
</g>
<!-- Node3 -->
<g id="Node000003" class="node">
<title>Node3</title>
<g id="a_Node000003"><a xlink:href="../../d5/d02/class_g_e_u_1_1_scene.html#a32e6f62d221dd01bac85a6e4201d9418" target="_top" xlink:title=" ">
<polygon fill="white" stroke="#666666" points="369.12,-120 218.88,-120 218.88,-100 369.12,-100 369.12,-120"/>
<text text-anchor="middle" x="294" y="-106.5" font-family="Helvetica,sans-Serif" font-size="10.00">GEU::Scene::getActiveCamera</text>
</a>
</g>
</g>
<!-- Node1&#45;&gt;Node3 -->
<g id="edge2_Node000001_Node000003" class="edge">
<title>Node1&#45;&gt;Node3</title>
<g id="a_edge2_Node000001_Node000003"><a xlink:title=" ">
<path fill="none" stroke="#63b8ff" d="M174.71,-97.3C185.49,-98.46 196.51,-99.64 207.28,-100.8"/>
<polygon fill="#63b8ff" stroke="#63b8ff" points="206.57,-104.24 216.88,-101.83 207.31,-97.28 206.57,-104.24"/>
</a>
</g>
</g>
<!-- Node4 -->
<g id="Node000004" class="node">
<title>Node4</title>
<g id="a_Node000004"><a xlink:href="../../de/d04/class_g_e_u_1_1_renderer.html#af5f4307b5eba7c09888765c183a75213" target="_top" xlink:title=" ">
<polygon fill="white" stroke="#666666" points="357.88,-82 230.12,-82 230.12,-50 357.88,-50 357.88,-82"/>
<text text-anchor="start" x="238.12" y="-68.5" font-family="Helvetica,sans-Serif" font-size="10.00">GEU::Renderer::getActive</text>
<text text-anchor="middle" x="294" y="-56.5" font-family="Helvetica,sans-Serif" font-size="10.00">Scene</text>
</a>
</g>
</g>
<!-- Node1&#45;&gt;Node4 -->
<g id="edge3_Node000001_Node000004" class="edge">
<title>Node1&#45;&gt;Node4</title>
<g id="a_edge3_Node000001_Node000004"><a xlink:title=" ">
<path fill="none" stroke="#63b8ff" d="M174.71,-78.7C189.28,-77.14 204.28,-75.53 218.5,-74"/>
<polygon fill="#63b8ff" stroke="#63b8ff" points="218.64,-77.5 228.21,-72.96 217.9,-70.54 218.64,-77.5"/>
</a>
</g>
</g>
<!-- Node5 -->
<g id="Node000005" class="node">
<title>Node5</title>
<g id="a_Node000005"><a xlink:href="../../d1/d01/class_g_e_u_1_1_singleton.html#a47c7e7c2110f4cc59c9ff1f5594c366e" target="_top" xlink:title=" ">
<polygon fill="white" stroke="#666666" points="359.75,-32 228.25,-32 228.25,0 359.75,0 359.75,-32"/>
<text text-anchor="start" x="236.25" y="-18.5" font-family="Helvetica,sans-Serif" font-size="10.00">GEU::Singleton&lt; Renderer</text>
<text text-anchor="middle" x="294" y="-6.5" font-family="Helvetica,sans-Serif" font-size="10.00"> &gt;::getInstance</text>
</a>
</g>
</g>
<!-- Node1&#45;&gt;Node5 -->
<g id="edge4_Node000001_Node000005" class="edge">
<title>Node1&#45;&gt;Node5</title>
<g id="a_edge4_Node000001_Node000005"><a xlink:title=" ">
<path fill="none" stroke="#63b8ff" d="M113.65,-77.54C138.22,-67.63 176.51,-52.57 210.25,-41 215.31,-39.27 220.56,-37.53 225.85,-35.83"/>
<polygon fill="#63b8ff" stroke="#63b8ff" points="226.81,-39.19 235.29,-32.84 224.7,-32.52 226.81,-39.19"/>
</a>
</g>
</g>
</g>
</svg>
