<?xml version="1.0" encoding="UTF-8" standalone="no"?>
<!DOCTYPE svg PUBLIC "-//W3C//DTD SVG 1.1//EN"
 "http://www.w3.org/Graphics/SVG/1.1/DTD/svg11.dtd">
<!-- Generated by graphviz version 10.0.1 (20240210.2158)
 -->
<!-- Title: GEU::PointCloud::pickPoint Pages: 1 -->
<svg width="355pt" height="266pt"
 viewBox="0.00 0.00 355.00 266.00" xmlns="http://www.w3.org/2000/svg" xmlns:xlink="http://www.w3.org/1999/xlink">
<g id="graph0" class="graph" transform="scale(1 1) rotate(0) translate(4 262)">
<title>GEU::PointCloud::pickPoint</title>
<!-- Node1 -->
<g id="Node000001" class="node">
<title>Node1</title>
<g id="a_Node000001"><a xlink:title=" ">
<polygon fill="#999999" stroke="#666666" points="136.75,-151 0,-151 0,-131 136.75,-131 136.75,-151"/>
<text text-anchor="middle" x="68.38" y="-137.5" font-family="Helvetica,sans-Serif" font-size="10.00">GEU::PointCloud::pickPoint</text>
</a>
</g>
</g>
<!-- Node2 -->
<g id="Node000002" class="node">
<title>Node2</title>
<g id="a_Node000002"><a xlink:href="../../da/d02/namespace_g_e_u_1_1_operators3_d.html#a0a99a48e076892312a722187ee14028d" target="_top" xlink:title="Check intersection between AABB and ray. Adapted from https://github.com/erich666/GraphicsGems/blob/m...">
<polygon fill="white" stroke="#666666" points="347,-258 172.75,-258 172.75,-238 347,-238 347,-258"/>
<text text-anchor="middle" x="259.88" y="-244.5" font-family="Helvetica,sans-Serif" font-size="10.00">GEU::Operators3D::checkRayAABB</text>
</a>
</g>
</g>
<!-- Node1&#45;&gt;Node2 -->
<g id="edge1_Node000001_Node000002" class="edge">
<title>Node1&#45;&gt;Node2</title>
<g id="a_edge1_Node000001_Node000002"><a xlink:title=" ">
<path fill="none" stroke="#63b8ff" d="M78.19,-151.26C94.73,-169.84 132.44,-208.97 172.75,-229 176.29,-230.76 179.98,-232.35 183.77,-233.8"/>
<polygon fill="#63b8ff" stroke="#63b8ff" points="182.61,-237.1 193.21,-237.02 184.87,-230.48 182.61,-237.1"/>
</a>
</g>
</g>
<!-- Node3 -->
<g id="Node000003" class="node">
<title>Node3</title>
<g id="a_Node000003"><a xlink:href="../../d5/d02/class_g_e_u_1_1_scene.html#a32e6f62d221dd01bac85a6e4201d9418" target="_top" xlink:title=" ">
<polygon fill="white" stroke="#666666" points="335,-220 184.75,-220 184.75,-200 335,-200 335,-220"/>
<text text-anchor="middle" x="259.88" y="-206.5" font-family="Helvetica,sans-Serif" font-size="10.00">GEU::Scene::getActiveCamera</text>
</a>
</g>
</g>
<!-- Node1&#45;&gt;Node3 -->
<g id="edge2_Node000001_Node000003" class="edge">
<title>Node1&#45;&gt;Node3</title>
<g id="a_edge2_Node000001_Node000003"><a xlink:title=" ">
<path fill="none" stroke="#63b8ff" d="M87.49,-151.38C107.71,-162.57 141.67,-180.22 172.75,-191 178.87,-193.12 185.31,-195.06 191.81,-196.82"/>
<polygon fill="#63b8ff" stroke="#63b8ff" points="190.73,-200.15 201.28,-199.24 192.46,-193.37 190.73,-200.15"/>
</a>
</g>
</g>
<!-- Node4 -->
<g id="Node000004" class="node">
<title>Node4</title>
<g id="a_Node000004"><a xlink:href="../../de/d04/class_g_e_u_1_1_renderer.html#af5f4307b5eba7c09888765c183a75213" target="_top" xlink:title=" ">
<polygon fill="white" stroke="#666666" points="323.75,-182 196,-182 196,-150 323.75,-150 323.75,-182"/>
<text text-anchor="start" x="204" y="-168.5" font-family="Helvetica,sans-Serif" font-size="10.00">GEU::Renderer::getActive</text>
<text text-anchor="middle" x="259.88" y="-156.5" font-family="Helvetica,sans-Serif" font-size="10.00">Scene</text>
</a>
</g>
</g>
<!-- Node1&#45;&gt;Node4 -->
<g id="edge3_Node000001_Node000004" class="edge">
<title>Node1&#45;&gt;Node4</title>
<g id="a_edge3_Node000001_Node000004"><a xlink:title=" ">
<path fill="none" stroke="#63b8ff" d="M136.99,-149.92C152.38,-151.95 168.82,-154.12 184.48,-156.19"/>
<polygon fill="#63b8ff" stroke="#63b8ff" points="183.85,-159.63 194.22,-157.47 184.77,-152.69 183.85,-159.63"/>
</a>
</g>
</g>
<!-- Node5 -->
<g id="Node000005" class="node">
<title>Node5</title>
<g id="a_Node000005"><a xlink:href="../../d9/d05/class_g_e_u_1_1_input_manager.html#af2ea72a4bd53eb6f69a5c873e4c22017" target="_top" xlink:title=" ">
<polygon fill="white" stroke="#666666" points="313.62,-132 206.12,-132 206.12,-100 313.62,-100 313.62,-132"/>
<text text-anchor="start" x="214.12" y="-118.5" font-family="Helvetica,sans-Serif" font-size="10.00">GEU::InputManager::</text>
<text text-anchor="middle" x="259.88" y="-106.5" font-family="Helvetica,sans-Serif" font-size="10.00">getApplicationState</text>
</a>
</g>
</g>
<!-- Node1&#45;&gt;Node5 -->
<g id="edge4_Node000001_Node000005" class="edge">
<title>Node1&#45;&gt;Node5</title>
<g id="a_edge4_Node000001_Node000005"><a xlink:title=" ">
<path fill="none" stroke="#63b8ff" d="M136.99,-132.08C155.74,-129.61 176.03,-126.93 194.59,-124.48"/>
<polygon fill="#63b8ff" stroke="#63b8ff" points="194.93,-127.97 204.38,-123.19 194.01,-121.03 194.93,-127.97"/>
</a>
</g>
</g>
<!-- Node6 -->
<g id="Node000006" class="node">
<title>Node6</title>
<g id="a_Node000006"><a xlink:href="../../d1/d01/class_g_e_u_1_1_singleton.html#a47c7e7c2110f4cc59c9ff1f5594c366e" target="_top" xlink:title=" ">
<polygon fill="white" stroke="#666666" points="325.62,-82 194.12,-82 194.12,-50 325.62,-50 325.62,-82"/>
<text text-anchor="start" x="202.12" y="-68.5" font-family="Helvetica,sans-Serif" font-size="10.00">GEU::Singleton&lt; Renderer</text>
<text text-anchor="middle" x="259.88" y="-56.5" font-family="Helvetica,sans-Serif" font-size="10.00"> &gt;::getInstance</text>
</a>
</g>
</g>
<!-- Node1&#45;&gt;Node6 -->
<g id="edge5_Node000001_Node000006" class="edge">
<title>Node1&#45;&gt;Node6</title>
<g id="a_edge5_Node000001_Node000006"><a xlink:title=" ">
<path fill="none" stroke="#63b8ff" d="M88.38,-130.61C108.8,-119.73 142.41,-102.65 172.75,-91 177.37,-89.23 182.17,-87.51 187.04,-85.86"/>
<polygon fill="#63b8ff" stroke="#63b8ff" points="187.89,-89.26 196.31,-82.83 185.72,-82.61 187.89,-89.26"/>
</a>
</g>
</g>
<!-- Node7 -->
<g id="Node000007" class="node">
<title>Node7</title>
<g id="a_Node000007"><a xlink:href="../../da/d02/namespace_g_e_u_1_1_operators3_d.html#afbbf1de4b5457d1743c7d68c5307b600" target="_top" xlink:title=" ">
<polygon fill="white" stroke="#666666" points="327.5,-32 192.25,-32 192.25,0 327.5,0 327.5,-32"/>
<text text-anchor="start" x="200.25" y="-18.5" font-family="Helvetica,sans-Serif" font-size="10.00">GEU::Operators3D::pointTo</text>
<text text-anchor="middle" x="259.88" y="-6.5" font-family="Helvetica,sans-Serif" font-size="10.00">LineDistance</text>
</a>
</g>
</g>
<!-- Node1&#45;&gt;Node7 -->
<g id="edge6_Node000001_Node000007" class="edge">
<title>Node1&#45;&gt;Node7</title>
<g id="a_edge6_Node000001_Node000007"><a xlink:title=" ">
<path fill="none" stroke="#63b8ff" d="M77.26,-130.52C93.09,-110.2 130.85,-65.31 172.75,-41 175.59,-39.35 178.55,-37.81 181.58,-36.36"/>
<polygon fill="#63b8ff" stroke="#63b8ff" points="182.97,-39.57 190.76,-32.39 180.19,-33.14 182.97,-39.57"/>
</a>
</g>
</g>
</g>
</svg>
