<?xml version="1.0" encoding="UTF-8" standalone="no"?>
<!DOCTYPE svg PUBLIC "-//W3C//DTD SVG 1.1//EN"
 "http://www.w3.org/Graphics/SVG/1.1/DTD/svg11.dtd">
<!-- Generated by graphviz version 10.0.1 (20240210.2158)
 -->
<!-- Title: C:/GitHub/GEU/GEU/Source/Modules/Termica/EnvPointCloud.cpp Pages: 1 -->
<!--zoomable 220 -->

<svg id="main" version="1.1" xmlns="http://www.w3.org/2000/svg" xmlns:xlink="http://www.w3.org/1999/xlink" xml:space="preserve" onload="init(evt)">
<style type="text/css"><![CDATA[
.node, .edge {opacity: 0.7;}
.node.selected, .edge.selected {opacity: 1;}
.edge:hover path { stroke: red; }
.edge:hover polygon { stroke: red; fill: red; }
]]></style>

<defs>
  <circle id="rim" cx="0" cy="0" r="7"/>
  <circle id="rim2" cx="0" cy="0" r="3.5"/>
  <g id="zoomPlus">
    <use xlink:href="#rim" fill="#404040"><set attributeName="fill" to="#808080" begin="zoomplus.mouseover" end="zoomplus.mouseout"/></use>
    <path d="M-4,0h8M0,-4v8" fill="none" stroke="white" stroke-width="1.5" pointer-events="none"/>
  </g>
  <g id="zoomMin">
    <use xlink:href="#rim" fill="#404040"><set attributeName="fill" to="#808080" begin="zoomminus.mouseover" end="zoomminus.mouseout"/></use>
    <path d="M-4,0h8" fill="none" stroke="white" stroke-width="1.5" pointer-events="none"/>
  </g>
  <g id="arrowUp" transform="translate(30 24)">
    <use xlink:href="#rim"/>
    <path pointer-events="none" fill="none" stroke="white" stroke-width="1.5" d="M0,-3.0v7 M-2.5,-0.5L0,-3.0L2.5,-0.5"/>
  </g>
  <g id="arrowRight" transform="rotate(90) translate(36 -43)">
    <use xlink:href="#rim"/>
    <path pointer-events="none" fill="none" stroke="white" stroke-width="1.5" d="M0,-3.0v7 M-2.5,-0.5L0,-3.0L2.5,-0.5"/>
  </g>
  <g id="arrowDown" transform="rotate(180) translate(-30 -48)">
    <use xlink:href="#rim"/>
    <path pointer-events="none" fill="none" stroke="white" stroke-width="1.5" d="M0,-3.0v7 M-2.5,-0.5L0,-3.0L2.5,-0.5"/>
  </g>
  <g id="arrowLeft" transform="rotate(270) translate(-36 17)">
    <use xlink:href="#rim"/>
    <path pointer-events="none" fill="none" stroke="white" stroke-width="1.5" d="M0,-3.0v7 M-2.5,-0.5L0,-3.0L2.5,-0.5"/>
  </g>
  <g id="resetDef">
    <use xlink:href="#rim2" fill="#404040"><set attributeName="fill" to="#808080" begin="reset.mouseover" end="reset.mouseout"/></use>
  </g>
</defs>
<script type="application/ecmascript">
var viewWidth = 4132;
var viewHeight = 220;
var sectionId = 'dynsection-0';
</script>
<script type="application/ecmascript" xlink:href="../../svg.min.js"/>
<svg id="graph" class="graph">
<g id="viewport">
<title>C:/GitHub/GEU/GEU/Source/Modules/Termica/EnvPointCloud.cpp</title>
<!-- Node1 -->
<g id="Node000001" class="node">
<title>Node1</title>
<g id="a_Node000001"><a xlink:title=" ">
<polygon fill="#999999" stroke="#666666" points="4021.5,-212 3843.5,-212 3843.5,-180 4021.5,-180 4021.5,-212"/>
<text text-anchor="start" x="3851.5" y="-198.5" font-family="Helvetica,sans-Serif" font-size="10.00">C:/GitHub/GEU/GEU/Source</text>
<text text-anchor="middle" x="3932.5" y="-186.5" font-family="Helvetica,sans-Serif" font-size="10.00">/Modules/Termica/EnvPointCloud.cpp</text>
</a>
</g>
</g>
<!-- Node2 -->
<g id="Node000002" class="node">
<title>Node2</title>
<g id="a_Node000002"><a xlink:href="../../db/d06/stdafx_8h.html" target="_top" xlink:title=" ">
<polygon fill="white" stroke="#666666" points="1866.75,-88 1816.25,-88 1816.25,-68 1866.75,-68 1866.75,-88"/>
<text text-anchor="middle" x="1841.5" y="-74.5" font-family="Helvetica,sans-Serif" font-size="10.00">stdafx.h</text>
</a>
</g>
</g>
<!-- Node1&#45;&gt;Node2 -->
<g id="edge1_Node000001_Node000002" class="edge">
<title>Node1&#45;&gt;Node2</title>
<g id="a_edge1_Node000001_Node000002"><a xlink:title=" ">
<path fill="none" stroke="#63b8ff" d="M3843.32,-190.05C3480.16,-169.91 2120.44,-94.47 1878.45,-81.05"/>
<polygon fill="#63b8ff" stroke="#63b8ff" points="1878.85,-77.57 1868.68,-80.51 1878.47,-84.56 1878.85,-77.57"/>
</a>
</g>
</g>
<!-- Node46 -->
<g id="Node000046" class="node">
<title>Node46</title>
<g id="a_Node000046"><a xlink:href="../../df/dbd/_env_point_cloud_8h.html" target="_top" xlink:title=" ">
<polygon fill="white" stroke="#666666" points="4085.12,-144 3997.88,-144 3997.88,-124 4085.12,-124 4085.12,-144"/>
<text text-anchor="middle" x="4041.5" y="-130.5" font-family="Helvetica,sans-Serif" font-size="10.00">EnvPointCloud.h</text>
</a>
</g>
</g>
<!-- Node1&#45;&gt;Node46 -->
<g id="edge45_Node000001_Node000046" class="edge">
<title>Node1&#45;&gt;Node46</title>
<g id="a_edge45_Node000001_Node000046"><a xlink:title=" ">
<path fill="none" stroke="#63b8ff" d="M3960.57,-179.55C3977.13,-170.43 3997.98,-158.96 4014.37,-149.93"/>
<polygon fill="#63b8ff" stroke="#63b8ff" points="4016.01,-153.03 4023.08,-145.14 4012.63,-146.89 4016.01,-153.03"/>
</a>
</g>
</g>
<!-- Node47 -->
<g id="Node000047" class="node">
<title>Node47</title>
<g id="a_Node000047"><a xlink:href="../../dc/d05/_point_cloud_8h.html" target="_top" xlink:title=" ">
<polygon fill="white" stroke="#666666" points="3979.88,-144 3885.12,-144 3885.12,-124 3979.88,-124 3979.88,-144"/>
<text text-anchor="middle" x="3932.5" y="-130.5" font-family="Helvetica,sans-Serif" font-size="10.00">Core/PointCloud.h</text>
</a>
</g>
</g>
<!-- Node1&#45;&gt;Node47 -->
<g id="edge46_Node000001_Node000047" class="edge">
<title>Node1&#45;&gt;Node47</title>
<g id="a_edge46_Node000001_Node000047"><a xlink:title=" ">
<path fill="none" stroke="#63b8ff" d="M3932.5,-179.55C3932.5,-172.34 3932.5,-163.66 3932.5,-155.88"/>
<polygon fill="#63b8ff" stroke="#63b8ff" points="3936,-155.92 3932.5,-145.92 3929,-155.92 3936,-155.92"/>
</a>
</g>
</g>
<!-- Node3 -->
<g id="Node000003" class="node">
<title>Node3</title>
<g id="a_Node000003"><a xlink:title=" ">
<polygon fill="#e0e0e0" stroke="#999999" points="3971.12,-26 3925.88,-26 3925.88,-6 3971.12,-6 3971.12,-26"/>
<text text-anchor="middle" x="3948.5" y="-12.5" font-family="Helvetica,sans-Serif" font-size="10.00">cstdint</text>
</a>
</g>
</g>
<!-- Node2&#45;&gt;Node3 -->
<g id="edge2_Node000002_Node000003" class="edge">
<title>Node2&#45;&gt;Node3</title>
<g id="a_edge2_Node000002_Node000003"><a xlink:title=" ">
<path fill="none" stroke="#63b8ff" d="M1867.05,-77.11C2090.45,-77.94 3708.74,-82.24 3917.5,-32 3918.91,-31.66 3920.32,-31.25 3921.74,-30.79"/>
<polygon fill="#63b8ff" stroke="#63b8ff" points="3922.94,-34.08 3930.86,-27.04 3920.28,-27.61 3922.94,-34.08"/>
</a>
</g>
</g>
<!-- Node4 -->
<g id="Node000004" class="node">
<title>Node4</title>
<g id="a_Node000004"><a xlink:title=" ">
<polygon fill="#e0e0e0" stroke="#999999" points="3604.75,-26 3560.25,-26 3560.25,-6 3604.75,-6 3604.75,-26"/>
<text text-anchor="middle" x="3582.5" y="-12.5" font-family="Helvetica,sans-Serif" font-size="10.00">cstdlib</text>
</a>
</g>
</g>
<!-- Node2&#45;&gt;Node4 -->
<g id="edge3_Node000002_Node000004" class="edge">
<title>Node2&#45;&gt;Node4</title>
<g id="a_edge3_Node000002_Node000004"><a xlink:title=" ">
<path fill="none" stroke="#63b8ff" d="M1867.1,-76.98C2067.48,-76.72 3380.97,-73.46 3551.5,-32 3552.91,-31.66 3554.32,-31.25 3555.73,-30.78"/>
<polygon fill="#63b8ff" stroke="#63b8ff" points="3556.94,-34.07 3564.86,-27.03 3554.28,-27.6 3556.94,-34.07"/>
</a>
</g>
</g>
<!-- Node5 -->
<g id="Node000005" class="node">
<title>Node5</title>
<g id="a_Node000005"><a xlink:title=" ">
<polygon fill="#e0e0e0" stroke="#999999" points="3680.5,-26 3622.5,-26 3622.5,-6 3680.5,-6 3680.5,-26"/>
<text text-anchor="middle" x="3651.5" y="-12.5" font-family="Helvetica,sans-Serif" font-size="10.00">execution</text>
</a>
</g>
</g>
<!-- Node2&#45;&gt;Node5 -->
<g id="edge4_Node000002_Node000005" class="edge">
<title>Node2&#45;&gt;Node5</title>
<g id="a_edge4_Node000002_Node000005"><a xlink:title=" ">
<path fill="none" stroke="#63b8ff" d="M1867.02,-76.89C2071.13,-75.95 3435.01,-68.31 3613.5,-32 3615.83,-31.53 3618.21,-30.92 3620.58,-30.22"/>
<polygon fill="#63b8ff" stroke="#63b8ff" points="3621.67,-33.54 3629.96,-26.95 3619.37,-26.93 3621.67,-33.54"/>
</a>
</g>
</g>
<!-- Node6 -->
<g id="Node000006" class="node">
<title>Node6</title>
<g id="a_Node000006"><a xlink:title=" ">
<polygon fill="#e0e0e0" stroke="#999999" points="3752.25,-26 3698.75,-26 3698.75,-6 3752.25,-6 3752.25,-26"/>
<text text-anchor="middle" x="3725.5" y="-12.5" font-family="Helvetica,sans-Serif" font-size="10.00">iostream</text>
</a>
</g>
</g>
<!-- Node2&#45;&gt;Node6 -->
<g id="edge5_Node000002_Node000006" class="edge">
<title>Node2&#45;&gt;Node6</title>
<g id="a_edge5_Node000002_Node000006"><a xlink:title=" ">
<path fill="none" stroke="#63b8ff" d="M1867.12,-76.95C2076.52,-76.45 3503.41,-71.58 3689.5,-32 3691.55,-31.56 3693.62,-31.02 3695.69,-30.39"/>
<polygon fill="#63b8ff" stroke="#63b8ff" points="3696.87,-33.68 3705.07,-26.97 3694.48,-27.11 3696.87,-33.68"/>
</a>
</g>
</g>
<!-- Node7 -->
<g id="Node000007" class="node">
<title>Node7</title>
<g id="a_Node000007"><a xlink:title=" ">
<polygon fill="#e0e0e0" stroke="#999999" points="3830.62,-26 3770.38,-26 3770.38,-6 3830.62,-6 3830.62,-26"/>
<text text-anchor="middle" x="3800.5" y="-12.5" font-family="Helvetica,sans-Serif" font-size="10.00">filesystem</text>
</a>
</g>
</g>
<!-- Node2&#45;&gt;Node7 -->
<g id="edge6_Node000002_Node000007" class="edge">
<title>Node2&#45;&gt;Node7</title>
<g id="a_edge6_Node000002_Node000007"><a xlink:title=" ">
<path fill="none" stroke="#63b8ff" d="M1867.09,-76.93C2080.9,-76.28 3567.29,-70.42 3761.5,-32 3763.99,-31.51 3766.52,-30.87 3769.04,-30.14"/>
<polygon fill="#63b8ff" stroke="#63b8ff" points="3770.07,-33.48 3778.41,-26.95 3767.82,-26.86 3770.07,-33.48"/>
</a>
</g>
</g>
<!-- Node8 -->
<g id="Node000008" class="node">
<title>Node8</title>
<g id="a_Node000008"><a xlink:title=" ">
<polygon fill="#e0e0e0" stroke="#999999" points="43,-26 0,-26 0,-6 43,-6 43,-26"/>
<text text-anchor="middle" x="21.5" y="-12.5" font-family="Helvetica,sans-Serif" font-size="10.00">format</text>
</a>
</g>
</g>
<!-- Node2&#45;&gt;Node8 -->
<g id="edge7_Node000002_Node000008" class="edge">
<title>Node2&#45;&gt;Node8</title>
<g id="a_edge7_Node000002_Node000008"><a xlink:title=" ">
<path fill="none" stroke="#63b8ff" d="M1816.03,-77.01C1610.9,-77.01 231.3,-75.36 52.5,-32 51.09,-31.66 49.68,-31.25 48.26,-30.79"/>
<polygon fill="#63b8ff" stroke="#63b8ff" points="49.72,-27.6 39.14,-27.03 47.06,-34.07 49.72,-27.6"/>
</a>
</g>
</g>
<!-- Node9 -->
<g id="Node000009" class="node">
<title>Node9</title>
<g id="a_Node000009"><a xlink:title=" ">
<polygon fill="#e0e0e0" stroke="#999999" points="109.62,-26 61.38,-26 61.38,-6 109.62,-6 109.62,-26"/>
<text text-anchor="middle" x="85.5" y="-12.5" font-family="Helvetica,sans-Serif" font-size="10.00">fstream</text>
</a>
</g>
</g>
<!-- Node2&#45;&gt;Node9 -->
<g id="edge8_Node000002_Node000009" class="edge">
<title>Node2&#45;&gt;Node9</title>
<g id="a_edge8_Node000002_Node000009"><a xlink:title=" ">
<path fill="none" stroke="#63b8ff" d="M1816.03,-76.95C1615.27,-76.45 290.91,-71.71 118.5,-32 116.85,-31.62 115.19,-31.16 113.52,-30.63"/>
<polygon fill="#63b8ff" stroke="#63b8ff" points="114.85,-27.39 104.26,-27 112.3,-33.91 114.85,-27.39"/>
</a>
</g>
</g>
<!-- Node10 -->
<g id="Node000010" class="node">
<title>Node10</title>
<g id="a_Node000010"><a xlink:title=" ">
<polygon fill="#e0e0e0" stroke="#999999" points="185.12,-26 127.88,-26 127.88,-6 185.12,-6 185.12,-26"/>
<text text-anchor="middle" x="156.5" y="-12.5" font-family="Helvetica,sans-Serif" font-size="10.00">functional</text>
</a>
</g>
</g>
<!-- Node2&#45;&gt;Node10 -->
<g id="edge9_Node000002_Node000010" class="edge">
<title>Node2&#45;&gt;Node10</title>
<g id="a_edge9_Node000002_Node000010"><a xlink:title=" ">
<path fill="none" stroke="#63b8ff" d="M1815.92,-76.85C1619.89,-75.65 358.79,-66.58 193.5,-32 191.31,-31.54 189.09,-30.96 186.87,-30.3"/>
<polygon fill="#63b8ff" stroke="#63b8ff" points="188.08,-27.01 177.49,-26.95 185.73,-33.61 188.08,-27.01"/>
</a>
</g>
</g>
<!-- Node11 -->
<g id="Node000011" class="node">
<title>Node11</title>
<g id="a_Node000011"><a xlink:title=" ">
<polygon fill="#e0e0e0" stroke="#999999" points="254.12,-26 202.88,-26 202.88,-6 254.12,-6 254.12,-26"/>
<text text-anchor="middle" x="228.5" y="-12.5" font-family="Helvetica,sans-Serif" font-size="10.00">memory</text>
</a>
</g>
</g>
<!-- Node2&#45;&gt;Node11 -->
<g id="edge10_Node000002_Node000011" class="edge">
<title>Node2&#45;&gt;Node11</title>
<g id="a_edge10_Node000002_Node000011"><a xlink:title=" ">
<path fill="none" stroke="#63b8ff" d="M1815.78,-76.86C1623.96,-75.77 420,-67.55 262.5,-32 260.72,-31.6 258.93,-31.1 257.13,-30.54"/>
<polygon fill="#63b8ff" stroke="#63b8ff" points="258.41,-27.28 247.82,-26.98 255.91,-33.82 258.41,-27.28"/>
</a>
</g>
</g>
<!-- Node12 -->
<g id="Node000012" class="node">
<title>Node12</title>
<g id="a_Node000012"><a xlink:title=" ">
<polygon fill="#e0e0e0" stroke="#999999" points="323.12,-26 271.88,-26 271.88,-6 323.12,-6 323.12,-26"/>
<text text-anchor="middle" x="297.5" y="-12.5" font-family="Helvetica,sans-Serif" font-size="10.00">sstream</text>
</a>
</g>
</g>
<!-- Node2&#45;&gt;Node12 -->
<g id="edge11_Node000002_Node000012" class="edge">
<title>Node2&#45;&gt;Node12</title>
<g id="a_edge11_Node000002_Node000012"><a xlink:title=" ">
<path fill="none" stroke="#63b8ff" d="M1816.04,-76.81C1629.97,-75.38 482.94,-65.22 332.5,-32 330.59,-31.58 328.66,-31.05 326.73,-30.46"/>
<polygon fill="#63b8ff" stroke="#63b8ff" points="327.97,-27.18 317.38,-26.97 325.52,-33.74 327.97,-27.18"/>
</a>
</g>
</g>
<!-- Node13 -->
<g id="Node000013" class="node">
<title>Node13</title>
<g id="a_Node000013"><a xlink:title=" ">
<polygon fill="#e0e0e0" stroke="#999999" points="383.62,-26 341.38,-26 341.38,-6 383.62,-6 383.62,-26"/>
<text text-anchor="middle" x="362.5" y="-12.5" font-family="Helvetica,sans-Serif" font-size="10.00">cstdio</text>
</a>
</g>
</g>
<!-- Node2&#45;&gt;Node13 -->
<g id="edge12_Node000002_Node000013" class="edge">
<title>Node2&#45;&gt;Node13</title>
<g id="a_edge12_Node000002_Node000013"><a xlink:title=" ">
<path fill="none" stroke="#63b8ff" d="M1815.88,-76.87C1633.53,-75.83 535.64,-68.14 392.5,-32 391.13,-31.66 389.76,-31.24 388.39,-30.78"/>
<polygon fill="#63b8ff" stroke="#63b8ff" points="390.16,-27.73 379.59,-27.03 387.42,-34.17 390.16,-27.73"/>
</a>
</g>
</g>
<!-- Node14 -->
<g id="Node000014" class="node">
<title>Node14</title>
<g id="a_Node000014"><a xlink:title=" ">
<polygon fill="#e0e0e0" stroke="#999999" points="445,-26 402,-26 402,-6 445,-6 445,-26"/>
<text text-anchor="middle" x="423.5" y="-12.5" font-family="Helvetica,sans-Serif" font-size="10.00">thread</text>
</a>
</g>
</g>
<!-- Node2&#45;&gt;Node14 -->
<g id="edge13_Node000002_Node000014" class="edge">
<title>Node2&#45;&gt;Node14</title>
<g id="a_edge13_Node000002_Node000014"><a xlink:title=" ">
<path fill="none" stroke="#63b8ff" d="M1815.85,-76.81C1637.99,-75.4 591.42,-65.73 454.5,-32 453.1,-31.65 451.68,-31.24 450.27,-30.77"/>
<polygon fill="#63b8ff" stroke="#63b8ff" points="451.73,-27.59 441.15,-27.01 449.06,-34.06 451.73,-27.59"/>
</a>
</g>
</g>
<!-- Node15 -->
<g id="Node000015" class="node">
<title>Node15</title>
<g id="a_Node000015"><a xlink:title=" ">
<polygon fill="#e0e0e0" stroke="#999999" points="545.88,-26 463.12,-26 463.12,-6 545.88,-6 545.88,-26"/>
<text text-anchor="middle" x="504.5" y="-12.5" font-family="Helvetica,sans-Serif" font-size="10.00">unordered_map</text>
</a>
</g>
</g>
<!-- Node2&#45;&gt;Node15 -->
<g id="edge14_Node000002_Node000015" class="edge">
<title>Node2&#45;&gt;Node15</title>
<g id="a_edge14_Node000002_Node000015"><a xlink:title=" ">
<path fill="none" stroke="#63b8ff" d="M1815.92,-77C1657.65,-76.85 810.12,-74.09 554.5,-32 550.58,-31.35 546.54,-30.49 542.53,-29.5"/>
<polygon fill="#63b8ff" stroke="#63b8ff" points="543.48,-26.13 532.91,-26.86 541.63,-32.88 543.48,-26.13"/>
</a>
</g>
</g>
<!-- Node16 -->
<g id="Node000016" class="node">
<title>Node16</title>
<g id="a_Node000016"><a xlink:title=" ">
<polygon fill="#e0e0e0" stroke="#999999" points="641.25,-26 563.75,-26 563.75,-6 641.25,-6 641.25,-26"/>
<text text-anchor="middle" x="602.5" y="-12.5" font-family="Helvetica,sans-Serif" font-size="10.00">unordered_set</text>
</a>
</g>
</g>
<!-- Node2&#45;&gt;Node16 -->
<g id="edge15_Node000002_Node000016" class="edge">
<title>Node2&#45;&gt;Node16</title>
<g id="a_edge15_Node000002_Node000016"><a xlink:title=" ">
<path fill="none" stroke="#63b8ff" d="M1815.89,-76.95C1664.56,-76.54 885.78,-72.47 650.5,-32 646.84,-31.37 643.08,-30.54 639.34,-29.58"/>
<polygon fill="#63b8ff" stroke="#63b8ff" points="640.38,-26.24 629.8,-26.87 638.46,-32.97 640.38,-26.24"/>
</a>
</g>
</g>
<!-- Node17 -->
<g id="Node000017" class="node">
<title>Node17</title>
<g id="a_Node000017"><a xlink:title=" ">
<polygon fill="#e0e0e0" stroke="#999999" points="701.25,-26 659.75,-26 659.75,-6 701.25,-6 701.25,-26"/>
<text text-anchor="middle" x="680.5" y="-12.5" font-family="Helvetica,sans-Serif" font-size="10.00">vector</text>
</a>
</g>
</g>
<!-- Node2&#45;&gt;Node17 -->
<g id="edge16_Node000002_Node000017" class="edge">
<title>Node2&#45;&gt;Node17</title>
<g id="a_edge16_Node000002_Node000017"><a xlink:title=" ">
<path fill="none" stroke="#63b8ff" d="M1815.95,-76.63C1658.27,-74.25 820.77,-60.36 710.5,-32 709.14,-31.65 707.76,-31.23 706.39,-30.76"/>
<polygon fill="#63b8ff" stroke="#63b8ff" points="708.16,-27.71 697.59,-27 705.42,-34.15 708.16,-27.71"/>
</a>
</g>
</g>
<!-- Node18 -->
<g id="Node000018" class="node">
<title>Node18</title>
<g id="a_Node000018"><a xlink:title=" ">
<polygon fill="#e0e0e0" stroke="#999999" points="759.5,-26 719.5,-26 719.5,-6 759.5,-6 759.5,-26"/>
<text text-anchor="middle" x="739.5" y="-12.5" font-family="Helvetica,sans-Serif" font-size="10.00">future</text>
</a>
</g>
</g>
<!-- Node2&#45;&gt;Node18 -->
<g id="edge17_Node000002_Node000018" class="edge">
<title>Node2&#45;&gt;Node18</title>
<g id="a_edge17_Node000002_Node000018"><a xlink:title=" ">
<path fill="none" stroke="#63b8ff" d="M1815.78,-76.59C1662.49,-74.04 872.57,-59.64 768.5,-32 767.32,-31.69 766.14,-31.32 764.96,-30.91"/>
<polygon fill="#63b8ff" stroke="#63b8ff" points="766.6,-27.81 756.03,-27.01 763.79,-34.22 766.6,-27.81"/>
</a>
</g>
</g>
<!-- Node19 -->
<g id="Node000019" class="node">
<title>Node19</title>
<g id="a_Node000019"><a xlink:title=" ">
<polygon fill="#e0e0e0" stroke="#999999" points="817.12,-26 777.88,-26 777.88,-6 817.12,-6 817.12,-26"/>
<text text-anchor="middle" x="797.5" y="-12.5" font-family="Helvetica,sans-Serif" font-size="10.00">utility</text>
</a>
</g>
</g>
<!-- Node2&#45;&gt;Node19 -->
<g id="edge18_Node000002_Node000019" class="edge">
<title>Node2&#45;&gt;Node19</title>
<g id="a_edge18_Node000002_Node000019"><a xlink:title=" ">
<path fill="none" stroke="#63b8ff" d="M1816.22,-76.53C1668.93,-73.7 924.71,-58.21 826.5,-32 825.32,-31.69 824.14,-31.32 822.96,-30.91"/>
<polygon fill="#63b8ff" stroke="#63b8ff" points="824.6,-27.81 814.04,-27 821.79,-34.22 824.6,-27.81"/>
</a>
</g>
</g>
<!-- Node20 -->
<g id="Node000020" class="node">
<title>Node20</title>
<g id="a_Node000020"><a xlink:title=" ">
<polygon fill="#e0e0e0" stroke="#999999" points="883.62,-26 835.38,-26 835.38,-6 883.62,-6 883.62,-26"/>
<text text-anchor="middle" x="859.5" y="-12.5" font-family="Helvetica,sans-Serif" font-size="10.00">random</text>
</a>
</g>
</g>
<!-- Node2&#45;&gt;Node20 -->
<g id="edge19_Node000002_Node000020" class="edge">
<title>Node2&#45;&gt;Node20</title>
<g id="a_edge19_Node000002_Node000020"><a xlink:title=" ">
<path fill="none" stroke="#63b8ff" d="M1816.05,-77.09C1683.9,-77.35 1075.08,-76.1 892.5,-32 890.86,-31.6 889.19,-31.12 887.53,-30.58"/>
<polygon fill="#63b8ff" stroke="#63b8ff" points="888.86,-27.35 878.28,-26.93 886.3,-33.86 888.86,-27.35"/>
</a>
</g>
</g>
<!-- Node21 -->
<g id="Node000021" class="node">
<title>Node21</title>
<g id="a_Node000021"><a xlink:title=" ">
<polygon fill="#e0e0e0" stroke="#999999" points="941.5,-26 901.5,-26 901.5,-6 941.5,-6 941.5,-26"/>
<text text-anchor="middle" x="921.5" y="-12.5" font-family="Helvetica,sans-Serif" font-size="10.00">regex</text>
</a>
</g>
</g>
<!-- Node2&#45;&gt;Node21 -->
<g id="edge20_Node000002_Node000021" class="edge">
<title>Node2&#45;&gt;Node21</title>
<g id="a_edge20_Node000002_Node000021"><a xlink:title=" ">
<path fill="none" stroke="#63b8ff" d="M1815.9,-77.17C1688.26,-77.77 1120.02,-77.81 950.5,-32 949.32,-31.68 948.14,-31.31 946.96,-30.9"/>
<polygon fill="#63b8ff" stroke="#63b8ff" points="948.6,-27.8 938.04,-26.99 945.79,-34.21 948.6,-27.8"/>
</a>
</g>
</g>
<!-- Node22 -->
<g id="Node000022" class="node">
<title>Node22</title>
<g id="a_Node000022"><a xlink:title=" ">
<polygon fill="#e0e0e0" stroke="#999999" points="1029.12,-26 959.88,-26 959.88,-6 1029.12,-6 1029.12,-26"/>
<text text-anchor="middle" x="994.5" y="-12.5" font-family="Helvetica,sans-Serif" font-size="10.00">WinSock2.h</text>
</a>
</g>
</g>
<!-- Node2&#45;&gt;Node22 -->
<g id="edge21_Node000002_Node000022" class="edge">
<title>Node2&#45;&gt;Node22</title>
<g id="a_edge21_Node000002_Node000022"><a xlink:title=" ">
<path fill="none" stroke="#63b8ff" d="M1815.77,-76.53C1695.93,-74.17 1191.77,-62.59 1037.5,-32 1034.55,-31.41 1031.52,-30.67 1028.51,-29.83"/>
<polygon fill="#63b8ff" stroke="#63b8ff" points="1029.86,-26.59 1019.27,-26.92 1027.76,-33.26 1029.86,-26.59"/>
</a>
</g>
</g>
<!-- Node23 -->
<g id="Node000023" class="node">
<title>Node23</title>
<g id="a_Node000023"><a xlink:title=" ">
<polygon fill="#e0e0e0" stroke="#999999" points="1108,-26 1047,-26 1047,-6 1108,-6 1108,-26"/>
<text text-anchor="middle" x="1077.5" y="-12.5" font-family="Helvetica,sans-Serif" font-size="10.00">windows.h</text>
</a>
</g>
</g>
<!-- Node2&#45;&gt;Node23 -->
<g id="edge22_Node000002_Node000023" class="edge">
<title>Node2&#45;&gt;Node23</title>
<g id="a_edge22_Node000002_Node000023"><a xlink:title=" ">
<path fill="none" stroke="#63b8ff" d="M1816.11,-76.43C1704.29,-73.76 1255.13,-61.4 1117.5,-32 1115.02,-31.47 1112.5,-30.82 1109.98,-30.08"/>
<polygon fill="#63b8ff" stroke="#63b8ff" points="1111.18,-26.79 1100.59,-26.93 1108.96,-33.43 1111.18,-26.79"/>
</a>
</g>
</g>
<!-- Node24 -->
<g id="Node000024" class="node">
<title>Node24</title>
<g id="a_Node000024"><a xlink:href="../../de/dbf/locale__strings_8h.html" target="_top" xlink:title=" ">
<polygon fill="white" stroke="#666666" points="1210.62,-26 1126.38,-26 1126.38,-6 1210.62,-6 1210.62,-26"/>
<text text-anchor="middle" x="1168.5" y="-12.5" font-family="Helvetica,sans-Serif" font-size="10.00">locale_strings.h</text>
</a>
</g>
</g>
<!-- Node2&#45;&gt;Node24 -->
<g id="edge23_Node000002_Node000024" class="edge">
<title>Node2&#45;&gt;Node24</title>
<g id="a_edge23_Node000002_Node000024"><a xlink:title=" ">
<path fill="none" stroke="#63b8ff" d="M1815.78,-77.1C1730.27,-77.01 1448.02,-73.38 1219.5,-32 1215.61,-31.3 1211.6,-30.41 1207.61,-29.42"/>
<polygon fill="#63b8ff" stroke="#63b8ff" points="1208.59,-26.06 1198.03,-26.82 1206.76,-32.81 1208.59,-26.06"/>
</a>
</g>
</g>
<!-- Node25 -->
<g id="Node000025" class="node">
<title>Node25</title>
<g id="a_Node000025"><a xlink:title=" ">
<polygon fill="#e0e0e0" stroke="#999999" points="3908.25,-26 3848.75,-26 3848.75,-6 3908.25,-6 3908.25,-26"/>
<text text-anchor="middle" x="3878.5" y="-12.5" font-family="Helvetica,sans-Serif" font-size="10.00">GL/glew.h</text>
</a>
</g>
</g>
<!-- Node2&#45;&gt;Node25 -->
<g id="edge24_Node000002_Node000025" class="edge">
<title>Node2&#45;&gt;Node25</title>
<g id="a_edge24_Node000002_Node000025"><a xlink:title=" ">
<path fill="none" stroke="#63b8ff" d="M1867.08,-76.96C2085.74,-76.51 3637.07,-71.95 3839.5,-32 3841.99,-31.51 3844.52,-30.87 3847.04,-30.14"/>
<polygon fill="#63b8ff" stroke="#63b8ff" points="3848.07,-33.49 3856.41,-26.95 3845.82,-26.86 3848.07,-33.49"/>
</a>
</g>
</g>
<!-- Node26 -->
<g id="Node000026" class="node">
<title>Node26</title>
<g id="a_Node000026"><a xlink:title=" ">
<polygon fill="#e0e0e0" stroke="#999999" points="1306.25,-26 1228.75,-26 1228.75,-6 1306.25,-6 1306.25,-26"/>
<text text-anchor="middle" x="1267.5" y="-12.5" font-family="Helvetica,sans-Serif" font-size="10.00">GLFW/glfw3.h</text>
</a>
</g>
</g>
<!-- Node2&#45;&gt;Node26 -->
<g id="edge25_Node000002_Node000026" class="edge">
<title>Node2&#45;&gt;Node26</title>
<g id="a_edge25_Node000002_Node000026"><a xlink:title=" ">
<path fill="none" stroke="#63b8ff" d="M1815.99,-76.83C1739.31,-75.91 1504.5,-69.93 1314.5,-32 1311.16,-31.33 1307.73,-30.51 1304.31,-29.6"/>
<polygon fill="#63b8ff" stroke="#63b8ff" points="1305.61,-26.34 1295.03,-26.89 1303.65,-33.05 1305.61,-26.34"/>
</a>
</g>
</g>
<!-- Node27 -->
<g id="Node000027" class="node">
<title>Node27</title>
<g id="a_Node000027"><a xlink:title=" ">
<polygon fill="#e0e0e0" stroke="#999999" points="1393.12,-26 1323.88,-26 1323.88,-6 1393.12,-6 1393.12,-26"/>
<text text-anchor="middle" x="1358.5" y="-12.5" font-family="Helvetica,sans-Serif" font-size="10.00">glm/glm.hpp</text>
</a>
</g>
</g>
<!-- Node2&#45;&gt;Node27 -->
<g id="edge26_Node000002_Node000027" class="edge">
<title>Node2&#45;&gt;Node27</title>
<g id="a_edge26_Node000002_Node000027"><a xlink:title=" ">
<path fill="none" stroke="#63b8ff" d="M1815.94,-76.4C1747.91,-74.35 1557.05,-65.81 1402.5,-32 1399.67,-31.38 1396.77,-30.64 1393.88,-29.83"/>
<polygon fill="#63b8ff" stroke="#63b8ff" points="1394.92,-26.49 1384.33,-26.86 1392.84,-33.17 1394.92,-26.49"/>
</a>
</g>
</g>
<!-- Node28 -->
<g id="Node000028" class="node">
<title>Node28</title>
<g id="a_Node000028"><a xlink:title=" ">
<polygon fill="#e0e0e0" stroke="#999999" points="1523.88,-26 1411.12,-26 1411.12,-6 1523.88,-6 1523.88,-26"/>
<text text-anchor="middle" x="1467.5" y="-12.5" font-family="Helvetica,sans-Serif" font-size="10.00">glm/gtc/constants.hpp</text>
</a>
</g>
</g>
<!-- Node2&#45;&gt;Node28 -->
<g id="edge27_Node000002_Node000028" class="edge">
<title>Node2&#45;&gt;Node28</title>
<g id="a_edge27_Node000002_Node000028"><a xlink:title=" ">
<path fill="none" stroke="#63b8ff" d="M1815.83,-73.94C1762.85,-67.48 1637.62,-51.41 1533.5,-32 1528.36,-31.04 1523,-29.96 1517.67,-28.83"/>
<polygon fill="#63b8ff" stroke="#63b8ff" points="1518.83,-25.5 1508.31,-26.79 1517.34,-32.34 1518.83,-25.5"/>
</a>
</g>
</g>
<!-- Node29 -->
<g id="Node000029" class="node">
<title>Node29</title>
<g id="a_Node000029"><a xlink:title=" ">
<polygon fill="#e0e0e0" stroke="#999999" points="1684.88,-26 1542.12,-26 1542.12,-6 1684.88,-6 1684.88,-26"/>
<text text-anchor="middle" x="1613.5" y="-12.5" font-family="Helvetica,sans-Serif" font-size="10.00">glm/gtc/matrix_transform.hpp</text>
</a>
</g>
</g>
<!-- Node2&#45;&gt;Node29 -->
<g id="edge28_Node000002_Node000029" class="edge">
<title>Node2&#45;&gt;Node29</title>
<g id="a_edge28_Node000002_Node000029"><a xlink:title=" ">
<path fill="none" stroke="#63b8ff" d="M1815.79,-70.23C1778.24,-60.35 1707.76,-41.81 1660.72,-29.43"/>
<polygon fill="#63b8ff" stroke="#63b8ff" points="1661.62,-26.04 1651.06,-26.88 1659.84,-32.81 1661.62,-26.04"/>
</a>
</g>
</g>
<!-- Node30 -->
<g id="Node000030" class="node">
<title>Node30</title>
<g id="a_Node000030"><a xlink:title=" ">
<polygon fill="#e0e0e0" stroke="#999999" points="1842.38,-26 1702.62,-26 1702.62,-6 1842.38,-6 1842.38,-26"/>
<text text-anchor="middle" x="1772.5" y="-12.5" font-family="Helvetica,sans-Serif" font-size="10.00">glm/ext/vector_relational.hpp</text>
</a>
</g>
</g>
<!-- Node2&#45;&gt;Node30 -->
<g id="edge29_Node000002_Node000030" class="edge">
<title>Node2&#45;&gt;Node30</title>
<g id="a_edge29_Node000002_Node000030"><a xlink:title=" ">
<path fill="none" stroke="#63b8ff" d="M1830.72,-67.62C1820.23,-58.5 1804.06,-44.45 1791.43,-33.46"/>
<polygon fill="#63b8ff" stroke="#63b8ff" points="1793.96,-31.03 1784.12,-27.11 1789.37,-36.31 1793.96,-31.03"/>
</a>
</g>
</g>
<!-- Node31 -->
<g id="Node000031" class="node">
<title>Node31</title>
<g id="a_Node000031"><a xlink:title=" ">
<polygon fill="#e0e0e0" stroke="#999999" points="1960.88,-26 1860.12,-26 1860.12,-6 1960.88,-6 1960.88,-26"/>
<text text-anchor="middle" x="1910.5" y="-12.5" font-family="Helvetica,sans-Serif" font-size="10.00">glm/gtc/epsilon.hpp</text>
</a>
</g>
</g>
<!-- Node2&#45;&gt;Node31 -->
<g id="edge30_Node000002_Node000031" class="edge">
<title>Node2&#45;&gt;Node31</title>
<g id="a_edge30_Node000002_Node000031"><a xlink:title=" ">
<path fill="none" stroke="#63b8ff" d="M1852.28,-67.62C1862.77,-58.5 1878.94,-44.45 1891.57,-33.46"/>
<polygon fill="#63b8ff" stroke="#63b8ff" points="1893.63,-36.31 1898.88,-27.11 1889.04,-31.03 1893.63,-36.31"/>
</a>
</g>
</g>
<!-- Node32 -->
<g id="Node000032" class="node">
<title>Node32</title>
<g id="a_Node000032"><a xlink:title=" ">
<polygon fill="#e0e0e0" stroke="#999999" points="2103.88,-26 1979.12,-26 1979.12,-6 2103.88,-6 2103.88,-26"/>
<text text-anchor="middle" x="2041.5" y="-12.5" font-family="Helvetica,sans-Serif" font-size="10.00">glm/gtx/euler_angles.hpp</text>
</a>
</g>
</g>
<!-- Node2&#45;&gt;Node32 -->
<g id="edge31_Node000002_Node000032" class="edge">
<title>Node2&#45;&gt;Node32</title>
<g id="a_edge31_Node000002_Node000032"><a xlink:title=" ">
<path fill="none" stroke="#63b8ff" d="M1867.24,-69.28C1900.53,-59.29 1958.99,-41.75 1998.94,-29.77"/>
<polygon fill="#63b8ff" stroke="#63b8ff" points="1999.91,-33.13 2008.49,-26.9 1997.9,-26.43 1999.91,-33.13"/>
</a>
</g>
</g>
<!-- Node33 -->
<g id="Node000033" class="node">
<title>Node33</title>
<g id="a_Node000033"><a xlink:title=" ">
<polygon fill="#e0e0e0" stroke="#999999" points="2169.25,-26 2121.75,-26 2121.75,-6 2169.25,-6 2169.25,-26"/>
<text text-anchor="middle" x="2145.5" y="-12.5" font-family="Helvetica,sans-Serif" font-size="10.00">imgui.h</text>
</a>
</g>
</g>
<!-- Node2&#45;&gt;Node33 -->
<g id="edge32_Node000002_Node000033" class="edge">
<title>Node2&#45;&gt;Node33</title>
<g id="a_edge32_Node000002_Node000033"><a xlink:title=" ">
<path fill="none" stroke="#63b8ff" d="M1867.04,-75C1915.7,-70.71 2024.67,-58.74 2112.5,-32 2113.85,-31.59 2115.23,-31.13 2116.6,-30.64"/>
<polygon fill="#63b8ff" stroke="#63b8ff" points="2117.62,-34.01 2125.58,-27.01 2115,-27.52 2117.62,-34.01"/>
</a>
</g>
</g>
<!-- Node34 -->
<g id="Node000034" class="node">
<title>Node34</title>
<g id="a_Node000034"><a xlink:title=" ">
<polygon fill="#e0e0e0" stroke="#999999" points="2295.25,-32 2187.75,-32 2187.75,0 2295.25,0 2295.25,-32"/>
<text text-anchor="start" x="2195.75" y="-18.5" font-family="Helvetica,sans-Serif" font-size="10.00">backends/imgui_impl</text>
<text text-anchor="middle" x="2241.5" y="-6.5" font-family="Helvetica,sans-Serif" font-size="10.00">_glfw.h</text>
</a>
</g>
</g>
<!-- Node2&#45;&gt;Node34 -->
<g id="edge33_Node000002_Node000034" class="edge">
<title>Node2&#45;&gt;Node34</title>
<g id="a_edge33_Node000002_Node000034"><a xlink:title=" ">
<path fill="none" stroke="#63b8ff" d="M1867,-74.48C1921.78,-68.89 2054.9,-54.29 2176.32,-32.29"/>
<polygon fill="#63b8ff" stroke="#63b8ff" points="2176.59,-35.8 2185.79,-30.55 2175.32,-28.91 2176.59,-35.8"/>
</a>
</g>
</g>
<!-- Node35 -->
<g id="Node000035" class="node">
<title>Node35</title>
<g id="a_Node000035"><a xlink:title=" ">
<polygon fill="#e0e0e0" stroke="#999999" points="2421.25,-32 2313.75,-32 2313.75,0 2421.25,0 2421.25,-32"/>
<text text-anchor="start" x="2321.75" y="-18.5" font-family="Helvetica,sans-Serif" font-size="10.00">backends/imgui_impl</text>
<text text-anchor="middle" x="2367.5" y="-6.5" font-family="Helvetica,sans-Serif" font-size="10.00">_opengl3.h</text>
</a>
</g>
</g>
<!-- Node2&#45;&gt;Node35 -->
<g id="edge34_Node000002_Node000035" class="edge">
<title>Node2&#45;&gt;Node35</title>
<g id="a_edge34_Node000002_Node000035"><a xlink:title=" ">
<path fill="none" stroke="#63b8ff" d="M1867.01,-75.75C1935.69,-72.12 2130.4,-60.14 2302.03,-32.26"/>
<polygon fill="#63b8ff" stroke="#63b8ff" points="2302.51,-35.73 2311.81,-30.65 2301.37,-28.82 2302.51,-35.73"/>
</a>
</g>
</g>
<!-- Node36 -->
<g id="Node000036" class="node">
<title>Node36</title>
<g id="a_Node000036"><a xlink:title=" ">
<polygon fill="#e0e0e0" stroke="#999999" points="2557.88,-26 2439.12,-26 2439.12,-6 2557.88,-6 2557.88,-26"/>
<text text-anchor="middle" x="2498.5" y="-12.5" font-family="Helvetica,sans-Serif" font-size="10.00">misc/cpp/imgui_stdlib.h</text>
</a>
</g>
</g>
<!-- Node2&#45;&gt;Node36 -->
<g id="edge35_Node000002_Node000036" class="edge">
<title>Node2&#45;&gt;Node36</title>
<g id="a_edge35_Node000002_Node000036"><a xlink:title=" ">
<path fill="none" stroke="#63b8ff" d="M1867.19,-76.33C1949.53,-73.9 2214.15,-63.96 2430.5,-32 2436.55,-31.11 2442.87,-29.98 2449.12,-28.75"/>
<polygon fill="#63b8ff" stroke="#63b8ff" points="2449.64,-32.21 2458.71,-26.75 2448.21,-25.36 2449.64,-32.21"/>
</a>
</g>
</g>
<!-- Node37 -->
<g id="Node000037" class="node">
<title>Node37</title>
<g id="a_Node000037"><a xlink:title=" ">
<polygon fill="#e0e0e0" stroke="#999999" points="2660.62,-26 2576.38,-26 2576.38,-6 2660.62,-6 2660.62,-26"/>
<text text-anchor="middle" x="2618.5" y="-12.5" font-family="Helvetica,sans-Serif" font-size="10.00">imgui_internal.h</text>
</a>
</g>
</g>
<!-- Node2&#45;&gt;Node37 -->
<g id="edge36_Node000002_Node000037" class="edge">
<title>Node2&#45;&gt;Node37</title>
<g id="a_edge36_Node000002_Node000037"><a xlink:title=" ">
<path fill="none" stroke="#63b8ff" d="M1867.1,-77.42C1961.11,-78.55 2295.92,-78.84 2566.5,-32 2570.58,-31.29 2574.8,-30.39 2578.99,-29.37"/>
<polygon fill="#63b8ff" stroke="#63b8ff" points="2579.65,-32.81 2588.42,-26.86 2577.86,-26.05 2579.65,-32.81"/>
</a>
</g>
</g>
<!-- Node38 -->
<g id="Node000038" class="node">
<title>Node38</title>
<g id="a_Node000038"><a xlink:title=" ">
<polygon fill="#e0e0e0" stroke="#999999" points="2764,-26 2679,-26 2679,-6 2764,-6 2764,-26"/>
<text text-anchor="middle" x="2721.5" y="-12.5" font-family="Helvetica,sans-Serif" font-size="10.00">ImGuiNotify.hpp</text>
</a>
</g>
</g>
<!-- Node2&#45;&gt;Node38 -->
<g id="edge37_Node000002_Node000038" class="edge">
<title>Node2&#45;&gt;Node38</title>
<g id="a_edge37_Node000002_Node000038"><a xlink:title=" ">
<path fill="none" stroke="#63b8ff" d="M1867.14,-76.39C1988.91,-73.37 2509.46,-59.07 2669.5,-32 2673.63,-31.3 2677.91,-30.39 2682.14,-29.36"/>
<polygon fill="#63b8ff" stroke="#63b8ff" points="2682.93,-32.77 2691.7,-26.82 2681.13,-26.01 2682.93,-32.77"/>
</a>
</g>
</g>
<!-- Node39 -->
<g id="Node000039" class="node">
<title>Node39</title>
<g id="a_Node000039"><a xlink:title=" ">
<polygon fill="#e0e0e0" stroke="#999999" points="2917.12,-26 2781.88,-26 2781.88,-6 2917.12,-6 2917.12,-26"/>
<text text-anchor="middle" x="2849.5" y="-12.5" font-family="Helvetica,sans-Serif" font-size="10.00">addons/imguidatechooser.h</text>
</a>
</g>
</g>
<!-- Node2&#45;&gt;Node39 -->
<g id="edge38_Node000002_Node000039" class="edge">
<title>Node2&#45;&gt;Node39</title>
<g id="a_edge38_Node000002_Node000039"><a xlink:title=" ">
<path fill="none" stroke="#63b8ff" d="M1867.16,-77.11C1976.65,-77.3 2415.45,-75.18 2772.5,-32 2780.04,-31.09 2787.95,-29.86 2795.71,-28.5"/>
<polygon fill="#63b8ff" stroke="#63b8ff" points="2796.22,-31.97 2805.42,-26.71 2794.95,-25.08 2796.22,-31.97"/>
</a>
</g>
</g>
<!-- Node40 -->
<g id="Node000040" class="node">
<title>Node40</title>
<g id="a_Node000040"><a xlink:title=" ">
<polygon fill="#e0e0e0" stroke="#999999" points="3019.62,-26 2935.38,-26 2935.38,-6 3019.62,-6 3019.62,-26"/>
<text text-anchor="middle" x="2977.5" y="-12.5" font-family="Helvetica,sans-Serif" font-size="10.00">spdlog/spdlog.h</text>
</a>
</g>
</g>
<!-- Node2&#45;&gt;Node40 -->
<g id="edge39_Node000002_Node000040" class="edge">
<title>Node2&#45;&gt;Node40</title>
<g id="a_edge39_Node000002_Node000040"><a xlink:title=" ">
<path fill="none" stroke="#63b8ff" d="M1867.11,-76.79C2010.31,-75.47 2713.06,-67.27 2926.5,-32 2930.61,-31.32 2934.86,-30.41 2939.07,-29.38"/>
<polygon fill="#63b8ff" stroke="#63b8ff" points="2939.79,-32.81 2948.53,-26.82 2937.97,-26.05 2939.79,-32.81"/>
</a>
</g>
</g>
<!-- Node41 -->
<g id="Node000041" class="node">
<title>Node41</title>
<g id="a_Node000041"><a xlink:title=" ">
<polygon fill="#e0e0e0" stroke="#999999" points="3135,-32 3038,-32 3038,0 3135,0 3135,-32"/>
<text text-anchor="start" x="3046" y="-18.5" font-family="Helvetica,sans-Serif" font-size="10.00">spdlog/sinks/basic</text>
<text text-anchor="middle" x="3086.5" y="-6.5" font-family="Helvetica,sans-Serif" font-size="10.00">_file_sink.h</text>
</a>
</g>
</g>
<!-- Node2&#45;&gt;Node41 -->
<g id="edge40_Node000002_Node000041" class="edge">
<title>Node2&#45;&gt;Node41</title>
<g id="a_edge40_Node000002_Node000041"><a xlink:title=" ">
<path fill="none" stroke="#63b8ff" d="M1866.99,-76.78C2015.46,-75.39 2770.5,-66.75 3026.52,-32"/>
<polygon fill="#63b8ff" stroke="#63b8ff" points="3026.69,-35.51 3036.11,-30.65 3025.71,-28.58 3026.69,-35.51"/>
</a>
</g>
</g>
<!-- Node42 -->
<g id="Node000042" class="node">
<title>Node42</title>
<g id="a_Node000042"><a xlink:title=" ">
<polygon fill="#e0e0e0" stroke="#999999" points="3212.25,-26 3152.75,-26 3152.75,-6 3212.25,-6 3212.25,-26"/>
<text text-anchor="middle" x="3182.5" y="-12.5" font-family="Helvetica,sans-Serif" font-size="10.00">fmt/core.h</text>
</a>
</g>
</g>
<!-- Node2&#45;&gt;Node42 -->
<g id="edge41_Node000002_Node000042" class="edge">
<title>Node2&#45;&gt;Node42</title>
<g id="a_edge41_Node000002_Node000042"><a xlink:title=" ">
<path fill="none" stroke="#63b8ff" d="M1867.18,-76.62C2038.61,-74.05 3014.19,-58.33 3143.5,-32 3145.98,-31.49 3148.52,-30.85 3151.04,-30.11"/>
<polygon fill="#63b8ff" stroke="#63b8ff" points="3152.07,-33.45 3160.4,-26.9 3149.81,-26.83 3152.07,-33.45"/>
</a>
</g>
</g>
<!-- Node43 -->
<g id="Node000043" class="node">
<title>Node43</title>
<g id="a_Node000043"><a xlink:title=" ">
<polygon fill="#e0e0e0" stroke="#999999" points="3292.38,-26 3230.62,-26 3230.62,-6 3292.38,-6 3292.38,-26"/>
<text text-anchor="middle" x="3261.5" y="-12.5" font-family="Helvetica,sans-Serif" font-size="10.00">fmt/color.h</text>
</a>
</g>
</g>
<!-- Node2&#45;&gt;Node43 -->
<g id="edge42_Node000002_Node000043" class="edge">
<title>Node2&#45;&gt;Node43</title>
<g id="a_edge42_Node000002_Node000043"><a xlink:title=" ">
<path fill="none" stroke="#63b8ff" d="M1866.99,-76.67C2043.74,-74.3 3083.87,-59.28 3221.5,-32 3224.14,-31.48 3226.83,-30.8 3229.52,-30.03"/>
<polygon fill="#63b8ff" stroke="#63b8ff" points="3230.48,-33.39 3238.85,-26.9 3228.26,-26.76 3230.48,-33.39"/>
</a>
</g>
</g>
<!-- Node44 -->
<g id="Node000044" class="node">
<title>Node44</title>
<g id="a_Node000044"><a xlink:href="../../de/dec/_singleton_8h.html" target="_top" xlink:title=" ">
<polygon fill="white" stroke="#666666" points="3410.5,-26 3310.5,-26 3310.5,-6 3410.5,-6 3410.5,-26"/>
<text text-anchor="middle" x="3360.5" y="-12.5" font-family="Helvetica,sans-Serif" font-size="10.00">Utilities/Singleton.h</text>
</a>
</g>
</g>
<!-- Node2&#45;&gt;Node44 -->
<g id="edge43_Node000002_Node000044" class="edge">
<title>Node2&#45;&gt;Node44</title>
<g id="a_edge43_Node000002_Node000044"><a xlink:title=" ">
<path fill="none" stroke="#63b8ff" d="M1867.1,-76.97C2037.41,-76.69 3008.64,-73.24 3301.5,-32 3306.78,-31.26 3312.27,-30.22 3317.69,-29.04"/>
<polygon fill="#63b8ff" stroke="#63b8ff" points="3318.2,-32.52 3327.13,-26.81 3316.59,-25.71 3318.2,-32.52"/>
</a>
</g>
</g>
<!-- Node45 -->
<g id="Node000045" class="node">
<title>Node45</title>
<g id="a_Node000045"><a xlink:title=" ">
<polygon fill="#e0e0e0" stroke="#999999" points="3542.62,-26 3428.38,-26 3428.38,-6 3542.62,-6 3542.62,-26"/>
<text text-anchor="middle" x="3485.5" y="-12.5" font-family="Helvetica,sans-Serif" font-size="10.00">simpleson&#45;1.1.0/json.h</text>
</a>
</g>
</g>
<!-- Node2&#45;&gt;Node45 -->
<g id="edge44_Node000002_Node000045" class="edge">
<title>Node2&#45;&gt;Node45</title>
<g id="a_edge44_Node000002_Node000045"><a xlink:title=" ">
<path fill="none" stroke="#63b8ff" d="M1867.12,-76.95C2045.26,-76.53 3101.21,-72.32 3419.5,-32 3425.69,-31.22 3432.16,-30.11 3438.52,-28.85"/>
<polygon fill="#63b8ff" stroke="#63b8ff" points="3439.23,-32.28 3448.28,-26.77 3437.77,-25.43 3439.23,-32.28"/>
</a>
</g>
</g>
<!-- Node48 -->
<g id="Node000048" class="node">
<title>Node48</title>
<g id="a_Node000048"><a xlink:title=" ">
<polygon fill="#e0e0e0" stroke="#999999" points="4032.25,-88 3942.75,-88 3942.75,-68 4032.25,-68 4032.25,-88"/>
<text text-anchor="middle" x="3987.5" y="-74.5" font-family="Helvetica,sans-Serif" font-size="10.00">pcl/point_cloud.h</text>
</a>
</g>
</g>
<!-- Node47&#45;&gt;Node48 -->
<g id="edge47_Node000047_Node000048" class="edge">
<title>Node47&#45;&gt;Node48</title>
<g id="a_edge47_Node000047_Node000048"><a xlink:title=" ">
<path fill="none" stroke="#63b8ff" d="M3942.08,-123.59C3949.73,-116.08 3960.66,-105.35 3969.88,-96.3"/>
<polygon fill="#63b8ff" stroke="#63b8ff" points="3972.27,-98.86 3976.95,-89.36 3967.36,-93.87 3972.27,-98.86"/>
</a>
</g>
</g>
<!-- Node49 -->
<g id="Node000049" class="node">
<title>Node49</title>
<g id="a_Node000049"><a xlink:href="../../d1/dfb/_lines_model_8h.html" target="_top" xlink:title=" ">
<polygon fill="#fff0f0" stroke="red" points="4124.38,-88 4050.62,-88 4050.62,-68 4124.38,-68 4124.38,-88"/>
<text text-anchor="middle" x="4087.5" y="-74.5" font-family="Helvetica,sans-Serif" font-size="10.00">LinesModel.h</text>
</a>
</g>
</g>
<!-- Node47&#45;&gt;Node49 -->
<g id="edge48_Node000047_Node000049" class="edge">
<title>Node47&#45;&gt;Node49</title>
<g id="a_edge48_Node000047_Node000049"><a xlink:title=" ">
<path fill="none" stroke="#63b8ff" d="M3959.5,-123.59C3984.46,-114.9 4021.8,-101.89 4049.72,-92.16"/>
<polygon fill="#63b8ff" stroke="#63b8ff" points="4050.57,-95.57 4058.86,-88.98 4048.27,-88.96 4050.57,-95.57"/>
</a>
</g>
</g>
<!-- Node60 -->
<g id="Node000060" class="node">
<title>Node60</title>
<g id="a_Node000060"><a xlink:href="../../dd/db7/_g_p_u_resources_8h.html" target="_top" xlink:title=" ">
<polygon fill="white" stroke="#666666" points="3924.38,-88 3832.62,-88 3832.62,-68 3924.38,-68 3924.38,-88"/>
<text text-anchor="middle" x="3878.5" y="-74.5" font-family="Helvetica,sans-Serif" font-size="10.00">GPUResources.h</text>
</a>
</g>
</g>
<!-- Node47&#45;&gt;Node60 -->
<g id="edge49_Node000047_Node000060" class="edge">
<title>Node47&#45;&gt;Node60</title>
<g id="a_edge49_Node000047_Node000060"><a xlink:title=" ">
<path fill="none" stroke="#63b8ff" d="M3923.09,-123.59C3915.58,-116.08 3904.85,-105.35 3895.8,-96.3"/>
<polygon fill="#63b8ff" stroke="#63b8ff" points="3898.41,-93.96 3888.87,-89.37 3893.46,-98.91 3898.41,-93.96"/>
</a>
</g>
</g>
<!-- Node60&#45;&gt;Node3 -->
<g id="edge50_Node000060_Node000003" class="edge">
<title>Node60&#45;&gt;Node3</title>
<g id="a_edge50_Node000060_Node000003"><a xlink:title=" ">
<path fill="none" stroke="#63b8ff" d="M3889.44,-67.62C3900.08,-58.5 3916.48,-44.45 3929.3,-33.46"/>
<polygon fill="#63b8ff" stroke="#63b8ff" points="3931.4,-36.26 3936.72,-27.1 3926.85,-30.95 3931.4,-36.26"/>
</a>
</g>
</g>
<!-- Node60&#45;&gt;Node25 -->
<g id="edge51_Node000060_Node000025" class="edge">
<title>Node60&#45;&gt;Node25</title>
<g id="a_edge51_Node000060_Node000025"><a xlink:title=" ">
<path fill="none" stroke="#63b8ff" d="M3878.5,-67.62C3878.5,-59.56 3878.5,-47.65 3878.5,-37.41"/>
<polygon fill="#63b8ff" stroke="#63b8ff" points="3882,-37.63 3878.5,-27.63 3875,-37.63 3882,-37.63"/>
</a>
</g>
</g>
</g>
</svg>

<g id="navigator" transform="translate(0 0)" fill="#404254">
  <rect fill="#f2f5e9" fill-opacity="0.5" stroke="#606060" stroke-width=".5" x="0" y="0" width="60" height="60"/>
  <use id="zoomplus" xlink:href="#zoomPlus" x="17" y="9" onmousedown="handleZoom(evt,'in')"/>
  <use id="zoomminus" xlink:href="#zoomMin" x="42" y="9" onmousedown="handleZoom(evt,'out')"/>
  <use id="reset" xlink:href="#resetDef" x="30" y="36" onmousedown="handleReset()"/>
   <use id="arrowup" xlink:href="#arrowUp" x="0" y="0" onmousedown="handlePan(0,-1)"/>
  <use id="arrowright" xlink:href="#arrowRight" x="0" y="0" onmousedown="handlePan(1,0)"/>
  <use id="arrowdown" xlink:href="#arrowDown" x="0" y="0" onmousedown="handlePan(0,1)"/>
  <use id="arrowleft" xlink:href="#arrowLeft" x="0" y="0" onmousedown="handlePan(-1,0)"/>
</g>
<svg viewBox="0 0 15 15" width="100%" height="30px" preserveAspectRatio="xMaxYMin meet">
 <g id="arrow_out" transform="scale(0.3 0.3)">
  <a xlink:href="_env_point_cloud_8cpp__incl_org.svg" target="_base">
   <rect id="button" ry="5" rx="5" y="6" x="6" height="38" width="38"
        fill="#f2f5e9" fill-opacity="0.5" stroke="#606060" stroke-width="1.0"/>
   <path id="arrow"
     d="M 11.500037,31.436501 C 11.940474,20.09759 22.043105,11.32322 32.158766,21.979434 L 37.068811,17.246167 C 37.068811,17.246167 37.088388,32 37.088388,32 L 22.160133,31.978069 C 22.160133,31.978069 26.997745,27.140456 26.997745,27.140456 C 18.528582,18.264221 13.291696,25.230495 11.500037,31.436501 z"
     style="fill:#404040;"/>
  </a>
 </g>
</svg>

<style type='text/css'>
<![CDATA[
[data-mouse-over-selected='false'] { opacity: 0.7; }
[data-mouse-over-selected='true']  { opacity: 1.0; }
]]>
</style>
<script type="application/ecmascript"><![CDATA[
document.addEventListener('DOMContentLoaded', (event) => {
  highlightEdges();
  highlightAdjacentNodes();
});
]]></script>
</svg>
