<?xml version="1.0" encoding="UTF-8" standalone="no"?>
<!DOCTYPE svg PUBLIC "-//W3C//DTD SVG 1.1//EN"
 "http://www.w3.org/Graphics/SVG/1.1/DTD/svg11.dtd">
<!-- Generated by graphviz version 10.0.1 (20240210.2158)
 -->
<!-- Title: GEU::ApplicationState Pages: 1 -->
<svg width="144pt" height="245pt"
 viewBox="0.00 0.00 143.88 245.00" xmlns="http://www.w3.org/2000/svg" xmlns:xlink="http://www.w3.org/1999/xlink">
<g id="graph0" class="graph" transform="scale(1 1) rotate(0) translate(4 241)">
<title>GEU::ApplicationState</title>
<!-- Node1 -->
<g id="Node000001" class="node">
<title>Node1</title>
<g id="a_Node000001"><a xlink:title=" ">
<polygon fill="#999999" stroke="#666666" points="122.5,-20 8.25,-20 8.25,0 122.5,0 122.5,-20"/>
<text text-anchor="middle" x="65.38" y="-6.5" font-family="Helvetica,sans-Serif" font-size="10.00">GEU::ApplicationState</text>
</a>
</g>
</g>
<!-- Node2 -->
<g id="Node000002" class="node">
<title>Node2</title>
<g id="a_Node000002"><a xlink:title=" ">
<polygon fill="white" stroke="#666666" points="130.75,-100 0,-100 0,-68 130.75,-68 130.75,-100"/>
<text text-anchor="start" x="8" y="-86.5" font-family="Helvetica,sans-Serif" font-size="10.00">std::unordered_map</text>
<text text-anchor="middle" x="65.38" y="-74.5" font-family="Helvetica,sans-Serif" font-size="10.00">&lt; std::string, ImGradient &gt;</text>
</a>
</g>
</g>
<!-- Node2&#45;&gt;Node1 -->
<g id="edge1_Node000001_Node000002" class="edge">
<title>Node2&#45;&gt;Node1</title>
<g id="a_edge1_Node000001_Node000002"><a xlink:title=" ">
<path fill="none" stroke="#9a32cd" stroke-dasharray="5,2" d="M65.38,-56.34C65.38,-43.7 65.38,-29.41 65.38,-20.31"/>
<polygon fill="#9a32cd" stroke="#9a32cd" points="61.88,-56.22 65.38,-66.22 68.88,-56.22 61.88,-56.22"/>
</a>
</g>
<text text-anchor="middle" x="100.62" y="-40.5" font-family="Helvetica,sans-Serif" font-size="10.00" fill="grey"> _fusionGradient</text>
</g>
<!-- Node3 -->
<g id="Node000003" class="node">
<title>Node3</title>
<g id="a_Node000003"><a xlink:title=" ">
<polygon fill="white" stroke="#666666" points="95.12,-168 35.62,-168 35.62,-148 95.12,-148 95.12,-168"/>
<text text-anchor="middle" x="65.38" y="-154.5" font-family="Helvetica,sans-Serif" font-size="10.00">std::string</text>
</a>
</g>
</g>
<!-- Node3&#45;&gt;Node2 -->
<g id="edge2_Node000002_Node000003" class="edge">
<title>Node3&#45;&gt;Node2</title>
<g id="a_edge2_Node000002_Node000003"><a xlink:title=" ">
<path fill="none" stroke="#9a32cd" stroke-dasharray="5,2" d="M65.38,-136.1C65.38,-124.71 65.38,-110.87 65.38,-100.47"/>
<polygon fill="#9a32cd" stroke="#9a32cd" points="61.88,-136.07 65.38,-146.07 68.88,-136.07 61.88,-136.07"/>
</a>
</g>
<text text-anchor="middle" x="77.38" y="-120.5" font-family="Helvetica,sans-Serif" font-size="10.00" fill="grey"> keys</text>
</g>
<!-- Node4 -->
<g id="Node000004" class="node">
<title>Node4</title>
<g id="a_Node000004"><a xlink:title=" ">
<polygon fill="white" stroke="#666666" points="112.38,-237 18.37,-237 18.37,-205 112.38,-205 112.38,-237"/>
<text text-anchor="start" x="26.38" y="-223.5" font-family="Helvetica,sans-Serif" font-size="10.00">std::basic_string&lt;</text>
<text text-anchor="middle" x="65.38" y="-211.5" font-family="Helvetica,sans-Serif" font-size="10.00"> Char &gt;</text>
</a>
</g>
</g>
<!-- Node4&#45;&gt;Node3 -->
<g id="edge3_Node000003_Node000004" class="edge">
<title>Node4&#45;&gt;Node3</title>
<g id="a_edge3_Node000003_Node000004"><a xlink:title=" ">
<path fill="none" stroke="#63b8ff" d="M65.38,-193.36C65.38,-184.41 65.38,-175.01 65.38,-168.31"/>
<polygon fill="#63b8ff" stroke="#63b8ff" points="61.88,-193.09 65.38,-203.09 68.88,-193.09 61.88,-193.09"/>
</a>
</g>
</g>
</g>
</svg>
