<?xml version="1.0" encoding="UTF-8" standalone="no"?>
<!DOCTYPE svg PUBLIC "-//W3C//DTD SVG 1.1//EN"
 "http://www.w3.org/Graphics/SVG/1.1/DTD/svg11.dtd">
<!-- Generated by graphviz version 10.0.1 (20240210.2158)
 -->
<!-- Title: GEU::DatabaseQueryPopup Pages: 1 -->
<svg width="146pt" height="84pt"
 viewBox="0.00 0.00 146.25 84.00" xmlns="http://www.w3.org/2000/svg" xmlns:xlink="http://www.w3.org/1999/xlink">
<g id="graph0" class="graph" transform="scale(1 1) rotate(0) translate(4 80)">
<title>GEU::DatabaseQueryPopup</title>
<!-- Node1 -->
<g id="Node000001" class="node">
<title>Node1</title>
<g id="a_Node000001"><a xlink:title=" ">
<polygon fill="#999999" stroke="#666666" points="138.25,-20 0,-20 0,0 138.25,0 138.25,-20"/>
<text text-anchor="middle" x="69.12" y="-6.5" font-family="Helvetica,sans-Serif" font-size="10.00">GEU::DatabaseQueryPopup</text>
</a>
</g>
</g>
<!-- Node2 -->
<g id="Node000002" class="node">
<title>Node2</title>
<g id="a_Node000002"><a xlink:href="../../dc/d07/a01933.html" target="_top" xlink:title="ImGUI popups interface adapter class.">
<polygon fill="white" stroke="#666666" points="116.5,-76 21.75,-76 21.75,-56 116.5,-56 116.5,-76"/>
<text text-anchor="middle" x="69.12" y="-62.5" font-family="Helvetica,sans-Serif" font-size="10.00">GEU::I_GUIPopup</text>
</a>
</g>
</g>
<!-- Node2&#45;&gt;Node1 -->
<g id="edge1_Node000001_Node000002" class="edge">
<title>Node2&#45;&gt;Node1</title>
<g id="a_edge1_Node000001_Node000002"><a xlink:title=" ">
<path fill="none" stroke="#63b8ff" d="M62.55,-44.43C62.09,-36.11 62.54,-26.93 63.88,-20.3"/>
<polygon fill="#63b8ff" stroke="#63b8ff" points="59.04,-44.57 63.68,-54.09 65.99,-43.75 59.04,-44.57"/>
</a>
</g>
</g>
<!-- Node2&#45;&gt;Node1 -->
<g id="edge2_Node000001_Node000002" class="edge">
<title>Node2&#45;&gt;Node1</title>
<g id="a_edge2_Node000001_Node000002"><a xlink:title=" ">
<path fill="none" stroke="#63b8ff" d="M75.7,-44.43C76.16,-36.11 75.71,-26.93 74.37,-20.3"/>
<polygon fill="#63b8ff" stroke="#63b8ff" points="72.26,-43.75 74.57,-54.09 79.21,-44.57 72.26,-43.75"/>
</a>
</g>
</g>
</g>
</svg>
