<?xml version="1.0" encoding="UTF-8" standalone="no"?>
<!DOCTYPE svg PUBLIC "-//W3C//DTD SVG 1.1//EN"
 "http://www.w3.org/Graphics/SVG/1.1/DTD/svg11.dtd">
<!-- Generated by graphviz version 10.0.1 (20240210.2158)
 -->
<!-- Title: GEU::SettingsWindow::renderWindow Pages: 1 -->
<svg width="460pt" height="516pt"
 viewBox="0.00 0.00 460.25 516.00" xmlns="http://www.w3.org/2000/svg" xmlns:xlink="http://www.w3.org/1999/xlink">
<g id="graph0" class="graph" transform="scale(1 1) rotate(0) translate(4 512)">
<title>GEU::SettingsWindow::renderWindow</title>
<!-- Node1 -->
<g id="Node000001" class="node">
<title>Node1</title>
<g id="a_Node000001"><a xlink:title="Renders the window and contents.">
<polygon fill="#999999" stroke="#666666" points="113.5,-258 0,-258 0,-226 113.5,-226 113.5,-258"/>
<text text-anchor="start" x="8" y="-244.5" font-family="Helvetica,sans-Serif" font-size="10.00">GEU::SettingsWindow</text>
<text text-anchor="middle" x="56.75" y="-232.5" font-family="Helvetica,sans-Serif" font-size="10.00">::renderWindow</text>
</a>
</g>
</g>
<!-- Node2 -->
<g id="Node000002" class="node">
<title>Node2</title>
<g id="a_Node000002"><a xlink:href="../../d3/dd7/namespace_g_e_u_1_1_gui_utilities.html#a95d5f616a34dd70aca4886e546720966" target="_top" xlink:title=" ">
<polygon fill="white" stroke="#666666" points="273.5,-508 177.25,-508 177.25,-476 273.5,-476 273.5,-508"/>
<text text-anchor="start" x="185.25" y="-494.5" font-family="Helvetica,sans-Serif" font-size="10.00">GEU::GuiUtilities::</text>
<text text-anchor="middle" x="225.38" y="-482.5" font-family="Helvetica,sans-Serif" font-size="10.00">BeginCombo</text>
</a>
</g>
</g>
<!-- Node1&#45;&gt;Node2 -->
<g id="edge1_Node000001_Node000002" class="edge">
<title>Node1&#45;&gt;Node2</title>
<g id="a_edge1_Node000001_Node000002"><a xlink:title=" ">
<path fill="none" stroke="#63b8ff" d="M59.75,-258.49C65.62,-299.69 86.55,-408.01 149.5,-467 154.55,-471.74 160.53,-475.58 166.87,-478.69"/>
<polygon fill="#63b8ff" stroke="#63b8ff" points="165.07,-481.73 175.65,-482.42 167.81,-475.29 165.07,-481.73"/>
</a>
</g>
</g>
<!-- Node5 -->
<g id="Node000005" class="node">
<title>Node5</title>
<g id="a_Node000005"><a xlink:href="../../d3/dd7/namespace_g_e_u_1_1_gui_utilities.html#a8cd6e1ec53dc192ed4c4d3867e35edc7" target="_top" xlink:title=" ">
<polygon fill="white" stroke="#666666" points="273.5,-358 177.25,-358 177.25,-326 273.5,-326 273.5,-358"/>
<text text-anchor="start" x="185.25" y="-344.5" font-family="Helvetica,sans-Serif" font-size="10.00">GEU::GuiUtilities::</text>
<text text-anchor="middle" x="225.38" y="-332.5" font-family="Helvetica,sans-Serif" font-size="10.00">Checkbox</text>
</a>
</g>
</g>
<!-- Node1&#45;&gt;Node5 -->
<g id="edge4_Node000001_Node000005" class="edge">
<title>Node1&#45;&gt;Node5</title>
<g id="a_edge4_Node000001_Node000005"><a xlink:title=" ">
<path fill="none" stroke="#63b8ff" d="M73.97,-258.4C91.32,-275.15 120.31,-300.91 149.5,-317 154.83,-319.94 160.56,-322.6 166.39,-325.01"/>
<polygon fill="#63b8ff" stroke="#63b8ff" points="164.93,-328.2 175.52,-328.52 167.44,-321.67 164.93,-328.2"/>
</a>
</g>
</g>
<!-- Node6 -->
<g id="Node000006" class="node">
<title>Node6</title>
<g id="a_Node000006"><a xlink:href="../../d3/dd7/namespace_g_e_u_1_1_gui_utilities.html#a7e5f58fc1e47794679b999cd5778b7aa" target="_top" xlink:title=" ">
<polygon fill="white" stroke="#666666" points="273.5,-308 177.25,-308 177.25,-276 273.5,-276 273.5,-308"/>
<text text-anchor="start" x="185.25" y="-294.5" font-family="Helvetica,sans-Serif" font-size="10.00">GEU::GuiUtilities::</text>
<text text-anchor="middle" x="225.38" y="-282.5" font-family="Helvetica,sans-Serif" font-size="10.00">CollapsingHeader</text>
</a>
</g>
</g>
<!-- Node1&#45;&gt;Node6 -->
<g id="edge5_Node000001_Node000006" class="edge">
<title>Node1&#45;&gt;Node6</title>
<g id="a_edge5_Node000001_Node000006"><a xlink:title=" ">
<path fill="none" stroke="#63b8ff" d="M112.31,-258.37C129.6,-263.56 148.78,-269.31 166.31,-274.57"/>
<polygon fill="#63b8ff" stroke="#63b8ff" points="164.94,-277.82 175.53,-277.34 166.95,-271.11 164.94,-277.82"/>
</a>
</g>
</g>
<!-- Node7 -->
<g id="Node000007" class="node">
<title>Node7</title>
<g id="a_Node000007"><a xlink:href="../../d3/dd7/namespace_g_e_u_1_1_gui_utilities.html#a095bc8e3566d9060ef630e0f15ad27bc" target="_top" xlink:title=" ">
<polygon fill="white" stroke="#666666" points="273.5,-458 177.25,-458 177.25,-426 273.5,-426 273.5,-458"/>
<text text-anchor="start" x="185.25" y="-444.5" font-family="Helvetica,sans-Serif" font-size="10.00">GEU::GuiUtilities::</text>
<text text-anchor="middle" x="225.38" y="-432.5" font-family="Helvetica,sans-Serif" font-size="10.00">ColorPicker</text>
</a>
</g>
</g>
<!-- Node1&#45;&gt;Node7 -->
<g id="edge6_Node000001_Node000007" class="edge">
<title>Node1&#45;&gt;Node7</title>
<g id="a_edge6_Node000001_Node000007"><a xlink:title=" ">
<path fill="none" stroke="#63b8ff" d="M61.85,-258.36C71.31,-292.77 97.9,-373.09 149.5,-417 154.51,-421.27 160.28,-424.81 166.35,-427.76"/>
<polygon fill="#63b8ff" stroke="#63b8ff" points="164.79,-430.9 175.36,-431.58 167.52,-424.45 164.79,-430.9"/>
</a>
</g>
</g>
<!-- Node8 -->
<g id="Node000008" class="node">
<title>Node8</title>
<g id="a_Node000008"><a xlink:href="../../d3/dd7/namespace_g_e_u_1_1_gui_utilities.html#a15f9ea36c082c71e09e7275ca63bd2e1" target="_top" xlink:title=" ">
<polygon fill="white" stroke="#666666" points="273.5,-258 177.25,-258 177.25,-226 273.5,-226 273.5,-258"/>
<text text-anchor="start" x="185.25" y="-244.5" font-family="Helvetica,sans-Serif" font-size="10.00">GEU::GuiUtilities::</text>
<text text-anchor="middle" x="225.38" y="-232.5" font-family="Helvetica,sans-Serif" font-size="10.00">ComboItem</text>
</a>
</g>
</g>
<!-- Node1&#45;&gt;Node8 -->
<g id="edge9_Node000001_Node000008" class="edge">
<title>Node1&#45;&gt;Node8</title>
<g id="a_edge9_Node000001_Node000008"><a xlink:title=" ">
<path fill="none" stroke="#63b8ff" d="M113.7,-242C130.37,-242 148.68,-242 165.53,-242"/>
<polygon fill="#63b8ff" stroke="#63b8ff" points="165.41,-245.5 175.41,-242 165.41,-238.5 165.41,-245.5"/>
</a>
</g>
</g>
<!-- Node9 -->
<g id="Node000009" class="node">
<title>Node9</title>
<g id="a_Node000009"><a xlink:href="../../d3/dd7/namespace_g_e_u_1_1_gui_utilities.html#ae128381ddcd82162c730d91f06492621" target="_top" xlink:title=" ">
<polygon fill="white" stroke="#666666" points="273.5,-408 177.25,-408 177.25,-376 273.5,-376 273.5,-408"/>
<text text-anchor="start" x="185.25" y="-394.5" font-family="Helvetica,sans-Serif" font-size="10.00">GEU::GuiUtilities::</text>
<text text-anchor="middle" x="225.38" y="-382.5" font-family="Helvetica,sans-Serif" font-size="10.00">DragFloat</text>
</a>
</g>
</g>
<!-- Node1&#45;&gt;Node9 -->
<g id="edge10_Node000001_Node000009" class="edge">
<title>Node1&#45;&gt;Node9</title>
<g id="a_edge10_Node000001_Node000009"><a xlink:title=" ">
<path fill="none" stroke="#63b8ff" d="M65.5,-258.31C78.94,-284.88 109.04,-337.5 149.5,-367 154.75,-370.83 160.62,-374.09 166.71,-376.88"/>
<polygon fill="#63b8ff" stroke="#63b8ff" points="165.1,-380 175.68,-380.54 167.75,-373.52 165.1,-380"/>
</a>
</g>
</g>
<!-- Node10 -->
<g id="Node000010" class="node">
<title>Node10</title>
<g id="a_Node000010"><a xlink:href="../../d9/dad/class_g_e_u_1_1_input_manager.html#af2ea72a4bd53eb6f69a5c873e4c22017" target="_top" xlink:title=" ">
<polygon fill="white" stroke="#666666" points="279.12,-208 171.62,-208 171.62,-176 279.12,-176 279.12,-208"/>
<text text-anchor="start" x="179.62" y="-194.5" font-family="Helvetica,sans-Serif" font-size="10.00">GEU::InputManager::</text>
<text text-anchor="middle" x="225.38" y="-182.5" font-family="Helvetica,sans-Serif" font-size="10.00">getApplicationState</text>
</a>
</g>
</g>
<!-- Node1&#45;&gt;Node10 -->
<g id="edge13_Node000001_Node000010" class="edge">
<title>Node1&#45;&gt;Node10</title>
<g id="a_edge13_Node000001_Node000010"><a xlink:title=" ">
<path fill="none" stroke="#63b8ff" d="M112.31,-225.63C127.73,-221 144.65,-215.92 160.57,-211.15"/>
<polygon fill="#63b8ff" stroke="#63b8ff" points="161.37,-214.56 169.95,-208.33 159.36,-207.85 161.37,-214.56"/>
</a>
</g>
</g>
<!-- Node11 -->
<g id="Node000011" class="node">
<title>Node11</title>
<g id="a_Node000011"><a xlink:href="../../d2/d0c/class_locale_strings.html#a5f44d0f2142861902bd0fdbbefc1b2db" target="_top" xlink:title=" ">
<polygon fill="white" stroke="#666666" points="288.5,-158 162.25,-158 162.25,-126 288.5,-126 288.5,-158"/>
<text text-anchor="start" x="170.25" y="-144.5" font-family="Helvetica,sans-Serif" font-size="10.00">LocaleStrings::getCurrent</text>
<text text-anchor="middle" x="225.38" y="-132.5" font-family="Helvetica,sans-Serif" font-size="10.00">LocaleIdx</text>
</a>
</g>
</g>
<!-- Node1&#45;&gt;Node11 -->
<g id="edge14_Node000001_Node000011" class="edge">
<title>Node1&#45;&gt;Node11</title>
<g id="a_edge14_Node000001_Node000011"><a xlink:title=" ">
<path fill="none" stroke="#63b8ff" d="M73.97,-225.6C91.32,-208.85 120.31,-183.09 149.5,-167 152.02,-165.61 154.63,-164.28 157.3,-163.01"/>
<polygon fill="#63b8ff" stroke="#63b8ff" points="158.68,-166.23 166.43,-159.01 155.87,-159.82 158.68,-166.23"/>
</a>
</g>
</g>
<!-- Node12 -->
<g id="Node000012" class="node">
<title>Node12</title>
<g id="a_Node000012"><a xlink:href="../../d1/df9/class_g_e_u_1_1_singleton.html#a47c7e7c2110f4cc59c9ff1f5594c366e" target="_top" xlink:title=" ">
<polygon fill="white" stroke="#666666" points="301.25,-108 149.5,-108 149.5,-76 301.25,-76 301.25,-108"/>
<text text-anchor="start" x="157.5" y="-94.5" font-family="Helvetica,sans-Serif" font-size="10.00">GEU::Singleton&lt; LocaleStrings</text>
<text text-anchor="middle" x="225.38" y="-82.5" font-family="Helvetica,sans-Serif" font-size="10.00"> &gt;::getInstance</text>
</a>
</g>
</g>
<!-- Node1&#45;&gt;Node12 -->
<g id="edge15_Node000001_Node000012" class="edge">
<title>Node1&#45;&gt;Node12</title>
<g id="a_edge15_Node000001_Node000012"><a xlink:title=" ">
<path fill="none" stroke="#63b8ff" d="M65.5,-225.69C78.94,-199.12 109.04,-146.5 149.5,-117 151.02,-115.89 152.6,-114.83 154.22,-113.81"/>
<polygon fill="#63b8ff" stroke="#63b8ff" points="155.5,-117.1 162.55,-109.2 152.11,-110.98 155.5,-117.1"/>
</a>
</g>
</g>
<!-- Node13 -->
<g id="Node000013" class="node">
<title>Node13</title>
<g id="a_Node000013"><a xlink:href="../../d2/d0c/class_locale_strings.html#af6d33586ffd4ba771303a4e30076506e" target="_top" xlink:title=" ">
<polygon fill="white" stroke="#666666" points="289.62,-58 161.12,-58 161.12,-38 289.62,-38 289.62,-58"/>
<text text-anchor="middle" x="225.38" y="-44.5" font-family="Helvetica,sans-Serif" font-size="10.00">LocaleStrings::getLocales</text>
</a>
</g>
</g>
<!-- Node1&#45;&gt;Node13 -->
<g id="edge16_Node000001_Node000013" class="edge">
<title>Node1&#45;&gt;Node13</title>
<g id="a_edge16_Node000001_Node000013"><a xlink:title=" ">
<path fill="none" stroke="#63b8ff" d="M61.53,-225.6C70.46,-190.76 96.19,-109.08 149.5,-67 150.85,-65.94 152.25,-64.93 153.7,-63.98"/>
<polygon fill="#63b8ff" stroke="#63b8ff" points="155.34,-67.07 162.45,-59.21 151.99,-60.92 155.34,-67.07"/>
</a>
</g>
</g>
<!-- Node14 -->
<g id="Node000014" class="node">
<title>Node14</title>
<g id="a_Node000014"><a xlink:href="../../d2/d0c/class_locale_strings.html#a4fb8cad81efcd4de1a351ea2c3cd5727" target="_top" xlink:title="Changes active locale.">
<polygon fill="white" stroke="#666666" points="287,-20 163.75,-20 163.75,0 287,0 287,-20"/>
<text text-anchor="middle" x="225.38" y="-6.5" font-family="Helvetica,sans-Serif" font-size="10.00">LocaleStrings::setLocale</text>
</a>
</g>
</g>
<!-- Node1&#45;&gt;Node14 -->
<g id="edge17_Node000001_Node000014" class="edge">
<title>Node1&#45;&gt;Node14</title>
<g id="a_edge17_Node000001_Node000014"><a xlink:title=" ">
<path fill="none" stroke="#63b8ff" d="M59.88,-225.51C65.96,-185.41 87.16,-82.18 149.5,-29 150.81,-27.88 152.17,-26.83 153.58,-25.84"/>
<polygon fill="#63b8ff" stroke="#63b8ff" points="155.26,-28.92 162.19,-20.9 151.77,-22.85 155.26,-28.92"/>
</a>
</g>
</g>
<!-- Node3 -->
<g id="Node000003" class="node">
<title>Node3</title>
<g id="a_Node000003"><a xlink:href="../../d3/dd7/namespace_g_e_u_1_1_gui_utilities.html#a93d270e10057bb4a04b130a9e20301e2" target="_top" xlink:title=" ">
<polygon fill="white" stroke="#666666" points="445.12,-480 344.38,-480 344.38,-448 445.12,-448 445.12,-480"/>
<text text-anchor="start" x="352.38" y="-466.5" font-family="Helvetica,sans-Serif" font-size="10.00">GEU::GuiUtilities::</text>
<text text-anchor="middle" x="394.75" y="-454.5" font-family="Helvetica,sans-Serif" font-size="10.00">NextItemFillColumn</text>
</a>
</g>
</g>
<!-- Node2&#45;&gt;Node3 -->
<g id="edge2_Node000002_Node000003" class="edge">
<title>Node2&#45;&gt;Node3</title>
<g id="a_edge2_Node000002_Node000003"><a xlink:title=" ">
<path fill="none" stroke="#63b8ff" d="M273.89,-484.05C292.23,-480.98 313.44,-477.44 332.87,-474.18"/>
<polygon fill="#63b8ff" stroke="#63b8ff" points="333.3,-477.66 342.58,-472.56 332.14,-470.76 333.3,-477.66"/>
</a>
</g>
</g>
<!-- Node4 -->
<g id="Node000004" class="node">
<title>Node4</title>
<g id="a_Node000004"><a xlink:href="../../d3/dd7/namespace_g_e_u_1_1_gui_utilities.html#a4ca438ae0623d75ff22b4b17dfd3a820" target="_top" xlink:title=" ">
<polygon fill="white" stroke="#666666" points="452.25,-430 337.25,-430 337.25,-410 452.25,-410 452.25,-430"/>
<text text-anchor="middle" x="394.75" y="-416.5" font-family="Helvetica,sans-Serif" font-size="10.00">GEU::GuiUtilities::Text</text>
</a>
</g>
</g>
<!-- Node2&#45;&gt;Node4 -->
<g id="edge3_Node000002_Node000004" class="edge">
<title>Node2&#45;&gt;Node4</title>
<g id="a_edge3_Node000002_Node000004"><a xlink:title=" ">
<path fill="none" stroke="#63b8ff" d="M273.73,-478.9C283.09,-475.56 292.67,-471.59 301.25,-467 319.12,-457.43 319.39,-448.59 337.25,-439 340.11,-437.46 343.12,-436.02 346.2,-434.66"/>
<polygon fill="#63b8ff" stroke="#63b8ff" points="347.43,-437.94 355.42,-430.98 344.83,-431.44 347.43,-437.94"/>
</a>
</g>
</g>
<!-- Node7&#45;&gt;Node3 -->
<g id="edge7_Node000007_Node000003" class="edge">
<title>Node7&#45;&gt;Node3</title>
<g id="a_edge7_Node000007_Node000003"><a xlink:title=" ">
<path fill="none" stroke="#63b8ff" d="M273.89,-448.25C292.23,-450.66 313.44,-453.44 332.87,-456"/>
<polygon fill="#63b8ff" stroke="#63b8ff" points="332.2,-459.44 342.57,-457.27 333.11,-452.5 332.2,-459.44"/>
</a>
</g>
</g>
<!-- Node7&#45;&gt;Node4 -->
<g id="edge8_Node000007_Node000004" class="edge">
<title>Node7&#45;&gt;Node4</title>
<g id="a_edge8_Node000007_Node000004"><a xlink:title=" ">
<path fill="none" stroke="#63b8ff" d="M273.89,-435.75C289.98,-433.64 308.29,-431.23 325.66,-428.95"/>
<polygon fill="#63b8ff" stroke="#63b8ff" points="325.95,-432.44 335.41,-427.67 325.04,-425.5 325.95,-432.44"/>
</a>
</g>
</g>
<!-- Node9&#45;&gt;Node3 -->
<g id="edge11_Node000009_Node000003" class="edge">
<title>Node9&#45;&gt;Node3</title>
<g id="a_edge11_Node000009_Node000003"><a xlink:title=" ">
<path fill="none" stroke="#63b8ff" d="M273.74,-406.01C283.01,-409.25 292.55,-412.95 301.25,-417 318.25,-424.91 320.64,-430.3 337.25,-439 339.61,-440.24 342.05,-441.47 344.53,-442.69"/>
<polygon fill="#63b8ff" stroke="#63b8ff" points="342.93,-445.81 353.46,-446.94 345.93,-439.48 342.93,-445.81"/>
</a>
</g>
</g>
<!-- Node9&#45;&gt;Node4 -->
<g id="edge12_Node000009_Node000004" class="edge">
<title>Node9&#45;&gt;Node4</title>
<g id="a_edge12_Node000009_Node000004"><a xlink:title=" ">
<path fill="none" stroke="#63b8ff" d="M273.89,-399.95C289.98,-402.64 308.29,-405.7 325.66,-408.61"/>
<polygon fill="#63b8ff" stroke="#63b8ff" points="324.98,-412.04 335.42,-410.24 326.13,-405.14 324.98,-412.04"/>
</a>
</g>
</g>
</g>
</svg>
