<?xml version="1.0" encoding="UTF-8" standalone="no"?>
<!DOCTYPE svg PUBLIC "-//W3C//DTD SVG 1.1//EN"
 "http://www.w3.org/Graphics/SVG/1.1/DTD/svg11.dtd">
<!-- Generated by graphviz version 10.0.1 (20240210.2158)
 -->
<!-- Title: GEU::TriangleMesh::Component Pages: 1 -->
<!--zoomable 598 -->

<svg id="main" version="1.1" xmlns="http://www.w3.org/2000/svg" xmlns:xlink="http://www.w3.org/1999/xlink" xml:space="preserve" onload="init(evt)">
<style type="text/css"><![CDATA[
.node, .edge {opacity: 0.7;}
.node.selected, .edge.selected {opacity: 1;}
.edge:hover path { stroke: red; }
.edge:hover polygon { stroke: red; fill: red; }
]]></style>

<defs>
  <circle id="rim" cx="0" cy="0" r="7"/>
  <circle id="rim2" cx="0" cy="0" r="3.5"/>
  <g id="zoomPlus">
    <use xlink:href="#rim" fill="#404040"><set attributeName="fill" to="#808080" begin="zoomplus.mouseover" end="zoomplus.mouseout"/></use>
    <path d="M-4,0h8M0,-4v8" fill="none" stroke="white" stroke-width="1.5" pointer-events="none"/>
  </g>
  <g id="zoomMin">
    <use xlink:href="#rim" fill="#404040"><set attributeName="fill" to="#808080" begin="zoomminus.mouseover" end="zoomminus.mouseout"/></use>
    <path d="M-4,0h8" fill="none" stroke="white" stroke-width="1.5" pointer-events="none"/>
  </g>
  <g id="arrowUp" transform="translate(30 24)">
    <use xlink:href="#rim"/>
    <path pointer-events="none" fill="none" stroke="white" stroke-width="1.5" d="M0,-3.0v7 M-2.5,-0.5L0,-3.0L2.5,-0.5"/>
  </g>
  <g id="arrowRight" transform="rotate(90) translate(36 -43)">
    <use xlink:href="#rim"/>
    <path pointer-events="none" fill="none" stroke="white" stroke-width="1.5" d="M0,-3.0v7 M-2.5,-0.5L0,-3.0L2.5,-0.5"/>
  </g>
  <g id="arrowDown" transform="rotate(180) translate(-30 -48)">
    <use xlink:href="#rim"/>
    <path pointer-events="none" fill="none" stroke="white" stroke-width="1.5" d="M0,-3.0v7 M-2.5,-0.5L0,-3.0L2.5,-0.5"/>
  </g>
  <g id="arrowLeft" transform="rotate(270) translate(-36 17)">
    <use xlink:href="#rim"/>
    <path pointer-events="none" fill="none" stroke="white" stroke-width="1.5" d="M0,-3.0v7 M-2.5,-0.5L0,-3.0L2.5,-0.5"/>
  </g>
  <g id="resetDef">
    <use xlink:href="#rim2" fill="#404040"><set attributeName="fill" to="#808080" begin="reset.mouseover" end="reset.mouseout"/></use>
  </g>
</defs>
<script type="application/ecmascript">
var viewWidth = 1393;
var viewHeight = 598;
var sectionId = 'dynsection-0';
</script>
<script type="application/ecmascript" xlink:href="../../svg.min.js"/>
<svg id="graph" class="graph">
<g id="viewport">
<title>GEU::TriangleMesh::Component</title>
<!-- Node1 -->
<g id="Node000001" class="node">
<title>Node1</title>
<g id="a_Node000001"><a xlink:title=" ">
<polygon fill="#999999" stroke="#666666" points="1385,-468 1278.25,-468 1278.25,-436 1385,-436 1385,-468"/>
<text text-anchor="start" x="1286.25" y="-454.5" font-family="Helvetica,sans-Serif" font-size="10.00">GEU::TriangleMesh::</text>
<text text-anchor="middle" x="1331.62" y="-442.5" font-family="Helvetica,sans-Serif" font-size="10.00">Component</text>
</a>
</g>
</g>
<!-- Node2 -->
<g id="Node000002" class="node">
<title>Node2</title>
<g id="a_Node000002"><a xlink:title=" ">
<polygon fill="white" stroke="#666666" points="190.5,-260 131,-260 131,-240 190.5,-240 190.5,-260"/>
<text text-anchor="middle" x="160.75" y="-246.5" font-family="Helvetica,sans-Serif" font-size="10.00">std::string</text>
</a>
</g>
</g>
<!-- Node2&#45;&gt;Node1 -->
<g id="edge1_Node000001_Node000002" class="edge">
<title>Node2&#45;&gt;Node1</title>
<g id="a_edge1_Node000001_Node000002"><a xlink:title=" ">
<path fill="none" stroke="#9a32cd" stroke-dasharray="5,2" d="M162.64,-271.49C166.9,-344.43 191.33,-578 329.5,-578 329.5,-578 329.5,-578 1141.5,-578 1197.78,-578 1214.64,-566.98 1260.25,-534 1285.64,-515.64 1307.85,-486.34 1320.23,-468.19"/>
<polygon fill="#9a32cd" stroke="#9a32cd" points="166.14,-271.5 162.14,-261.69 159.15,-271.85 166.14,-271.5"/>
</a>
</g>
<text text-anchor="middle" x="771.88" y="-580.5" font-family="Helvetica,sans-Serif" font-size="10.00" fill="grey"> _name</text>
</g>
<!-- Node9 -->
<g id="Node000009" class="node">
<title>Node9</title>
<g id="a_Node000009"><a xlink:href="../../d5/def/class_g_e_u_1_1_material.html" target="_top" xlink:title=" ">
<polygon fill="white" stroke="#666666" points="1179.25,-353 1101.75,-353 1101.75,-333 1179.25,-333 1179.25,-353"/>
<text text-anchor="middle" x="1140.5" y="-339.5" font-family="Helvetica,sans-Serif" font-size="10.00">GEU::Material</text>
</a>
</g>
</g>
<!-- Node2&#45;&gt;Node9 -->
<g id="edge9_Node000009_Node000002" class="edge">
<title>Node2&#45;&gt;Node9</title>
<g id="a_edge9_Node000009_Node000002"><a xlink:title=" ">
<path fill="none" stroke="#9a32cd" stroke-dasharray="5,2" d="M167.53,-271.13C179.28,-309.33 210.01,-388.74 269.25,-419 313.79,-441.75 508.91,-441.85 1063.5,-359 1075.9,-357.15 1089.32,-354.53 1101.39,-351.95"/>
<polygon fill="#9a32cd" stroke="#9a32cd" points="170.95,-270.36 164.79,-261.74 164.23,-272.32 170.95,-270.36"/>
</a>
</g>
<text text-anchor="middle" x="623.62" y="-425.5" font-family="Helvetica,sans-Serif" font-size="10.00" fill="grey"> _name</text>
</g>
<!-- Node11 -->
<g id="Node000011" class="node">
<title>Node11</title>
<g id="a_Node000011"><a xlink:href="../../da/db2/class_g_e_u_1_1_shader_program.html" target="_top" xlink:title=" ">
<polygon fill="white" stroke="#666666" points="678.88,-353 568.38,-353 568.38,-333 678.88,-333 678.88,-353"/>
<text text-anchor="middle" x="623.62" y="-339.5" font-family="Helvetica,sans-Serif" font-size="10.00">GEU::ShaderProgram</text>
</a>
</g>
</g>
<!-- Node2&#45;&gt;Node11 -->
<g id="edge12_Node000011_Node000002" class="edge">
<title>Node2&#45;&gt;Node11</title>
<g id="a_edge12_Node000011_Node000002"><a xlink:title=" ">
<path fill="none" stroke="#9a32cd" stroke-dasharray="5,2" d="M174.15,-269.54C182.66,-281.78 194.87,-297.22 208.5,-308 231.97,-326.55 240.3,-329.46 269.25,-337 372.13,-363.78 497.6,-357.06 567.97,-349.92"/>
<polygon fill="#9a32cd" stroke="#9a32cd" points="177.21,-267.82 168.75,-261.44 171.38,-271.7 177.21,-267.82"/>
</a>
</g>
<text text-anchor="middle" x="330.5" y="-405.5" font-family="Helvetica,sans-Serif" font-size="10.00" fill="grey"> MODULE_FILE_CHAR_1</text>
<text text-anchor="middle" x="330.5" y="-393.5" font-family="Helvetica,sans-Serif" font-size="10.00" fill="grey">MODULE_FILE_CHAR_2</text>
<text text-anchor="middle" x="330.5" y="-381.5" font-family="Helvetica,sans-Serif" font-size="10.00" fill="grey">MODULE_HEADER</text>
<text text-anchor="middle" x="330.5" y="-369.5" font-family="Helvetica,sans-Serif" font-size="10.00" fill="grey">_logString</text>
<text text-anchor="middle" x="330.5" y="-357.5" font-family="Helvetica,sans-Serif" font-size="10.00" fill="grey">shaderPath</text>
</g>
<!-- Node12 -->
<g id="Node000012" class="node">
<title>Node12</title>
<g id="a_Node000012"><a xlink:title=" ">
<polygon fill="white" stroke="#666666" points="381.62,-328 279.38,-328 279.38,-284 381.62,-284 381.62,-328"/>
<text text-anchor="start" x="287.38" y="-314.5" font-family="Helvetica,sans-Serif" font-size="10.00">std::unordered_map</text>
<text text-anchor="start" x="287.38" y="-302.5" font-family="Helvetica,sans-Serif" font-size="10.00">&lt; std::string, std::</text>
<text text-anchor="middle" x="330.5" y="-290.5" font-family="Helvetica,sans-Serif" font-size="10.00">string &gt;</text>
</a>
</g>
</g>
<!-- Node2&#45;&gt;Node12 -->
<g id="edge14_Node000012_Node000002" class="edge">
<title>Node2&#45;&gt;Node12</title>
<g id="a_edge14_Node000012_Node000002"><a xlink:title=" ">
<path fill="none" stroke="#9a32cd" stroke-dasharray="5,2" d="M201.69,-263.7C204,-264.48 206.28,-265.25 208.5,-266 231.67,-273.8 257.38,-282.31 279.13,-289.48"/>
<polygon fill="#9a32cd" stroke="#9a32cd" points="202.94,-260.43 192.34,-260.52 200.68,-267.06 202.94,-260.43"/>
</a>
</g>
<text text-anchor="middle" x="229.88" y="-294.5" font-family="Helvetica,sans-Serif" font-size="10.00" fill="grey"> elements</text>
<text text-anchor="middle" x="229.88" y="-282.5" font-family="Helvetica,sans-Serif" font-size="10.00" fill="grey">keys</text>
</g>
<!-- Node13 -->
<g id="Node000013" class="node">
<title>Node13</title>
<g id="a_Node000013"><a xlink:title=" ">
<polygon fill="white" stroke="#666666" points="383.88,-266 277.12,-266 277.12,-234 383.88,-234 383.88,-266"/>
<text text-anchor="start" x="285.12" y="-252.5" font-family="Helvetica,sans-Serif" font-size="10.00">std::unordered_map</text>
<text text-anchor="middle" x="330.5" y="-240.5" font-family="Helvetica,sans-Serif" font-size="10.00">&lt; std::string, GLint &gt;</text>
</a>
</g>
</g>
<!-- Node2&#45;&gt;Node13 -->
<g id="edge17_Node000013_Node000002" class="edge">
<title>Node2&#45;&gt;Node13</title>
<g id="a_edge17_Node000013_Node000002"><a xlink:title=" ">
<path fill="none" stroke="#9a32cd" stroke-dasharray="5,2" d="M202.44,-250C224.83,-250 252.87,-250 276.91,-250"/>
<polygon fill="#9a32cd" stroke="#9a32cd" points="202.48,-246.5 192.48,-250 202.48,-253.5 202.48,-246.5"/>
</a>
</g>
<text text-anchor="middle" x="229.88" y="-252.5" font-family="Helvetica,sans-Serif" font-size="10.00" fill="grey"> keys</text>
</g>
<!-- Node14 -->
<g id="Node000014" class="node">
<title>Node14</title>
<g id="a_Node000014"><a xlink:href="../../dc/d36/class_g_e_u_1_1_texture.html" target="_top" xlink:title=" ">
<polygon fill="white" stroke="#666666" points="661.25,-210 586,-210 586,-190 661.25,-190 661.25,-210"/>
<text text-anchor="middle" x="623.62" y="-196.5" font-family="Helvetica,sans-Serif" font-size="10.00">GEU::Texture</text>
</a>
</g>
</g>
<!-- Node2&#45;&gt;Node14 -->
<g id="edge19_Node000014_Node000002" class="edge">
<title>Node2&#45;&gt;Node14</title>
<g id="a_edge19_Node000014_Node000002"><a xlink:title=" ">
<path fill="none" stroke="#9a32cd" stroke-dasharray="5,2" d="M175.63,-230.3C193.89,-206.27 228.51,-166.9 269.25,-151 387.82,-104.72 543.74,-164.32 600.64,-189.63"/>
<polygon fill="#9a32cd" stroke="#9a32cd" points="172.83,-228.2 169.73,-238.33 178.47,-232.34 172.83,-228.2"/>
</a>
</g>
<text text-anchor="middle" x="330.5" y="-165.5" font-family="Helvetica,sans-Serif" font-size="10.00" fill="grey"> TEXTURE_LAYER_IDS</text>
<text text-anchor="middle" x="330.5" y="-153.5" font-family="Helvetica,sans-Serif" font-size="10.00" fill="grey">_filename</text>
</g>
<!-- Node15 -->
<g id="Node000015" class="node">
<title>Node15</title>
<g id="a_Node000015"><a xlink:title=" ">
<polygon fill="white" stroke="#666666" points="389.5,-216 271.5,-216 271.5,-184 389.5,-184 389.5,-216"/>
<text text-anchor="start" x="279.5" y="-202.5" font-family="Helvetica,sans-Serif" font-size="10.00">std::unordered_map</text>
<text text-anchor="middle" x="330.5" y="-190.5" font-family="Helvetica,sans-Serif" font-size="10.00">&lt; uint16_t, std::string &gt;</text>
</a>
</g>
</g>
<!-- Node2&#45;&gt;Node15 -->
<g id="edge21_Node000015_Node000002" class="edge">
<title>Node2&#45;&gt;Node15</title>
<g id="a_edge21_Node000015_Node000002"><a xlink:title=" ">
<path fill="none" stroke="#9a32cd" stroke-dasharray="5,2" d="M201.65,-236.18C203.97,-235.43 206.26,-234.7 208.5,-234 228.81,-227.68 251.2,-221.24 271.15,-215.69"/>
<polygon fill="#9a32cd" stroke="#9a32cd" points="200.67,-232.82 192.28,-239.29 202.88,-239.46 200.67,-232.82"/>
</a>
</g>
<text text-anchor="middle" x="229.88" y="-236.5" font-family="Helvetica,sans-Serif" font-size="10.00" fill="grey"> elements</text>
</g>
<!-- Node16 -->
<g id="Node000016" class="node">
<title>Node16</title>
<g id="a_Node000016"><a xlink:title=" ">
<polygon fill="white" stroke="#666666" points="391.75,-106 269.25,-106 269.25,-86 391.75,-86 391.75,-106"/>
<text text-anchor="middle" x="330.5" y="-92.5" font-family="Helvetica,sans-Serif" font-size="10.00">std::vector&lt; std::string &gt;</text>
</a>
</g>
</g>
<!-- Node2&#45;&gt;Node16 -->
<g id="edge23_Node000016_Node000002" class="edge">
<title>Node2&#45;&gt;Node16</title>
<g id="a_edge23_Node000016_Node000002"><a xlink:title=" ">
<path fill="none" stroke="#9a32cd" stroke-dasharray="5,2" d="M162.76,-228.38C165.39,-198.29 174.85,-144.32 208.5,-116 225.12,-102.02 247.7,-96 268.86,-93.83"/>
<polygon fill="#9a32cd" stroke="#9a32cd" points="159.28,-227.94 162.09,-238.16 166.26,-228.41 159.28,-227.94"/>
</a>
</g>
<text text-anchor="middle" x="229.88" y="-118.5" font-family="Helvetica,sans-Serif" font-size="10.00" fill="grey"> elements</text>
</g>
<!-- Node17 -->
<g id="Node000017" class="node">
<title>Node17</title>
<g id="a_Node000017"><a xlink:href="../../db/d08/struct_g_e_u_1_1_material_1_1_material_description.html" target="_top" xlink:title=" ">
<polygon fill="white" stroke="#666666" points="707,-72 540.25,-72 540.25,-52 707,-52 707,-72"/>
<text text-anchor="middle" x="623.62" y="-58.5" font-family="Helvetica,sans-Serif" font-size="10.00">GEU::Material::MaterialDescription</text>
</a>
</g>
</g>
<!-- Node2&#45;&gt;Node17 -->
<g id="edge25_Node000017_Node000002" class="edge">
<title>Node2&#45;&gt;Node17</title>
<g id="a_edge25_Node000017_Node000002"><a xlink:title=" ">
<path fill="none" stroke="#9a32cd" stroke-dasharray="5,2" d="M162.68,-228.44C165.2,-195.48 174.46,-132.27 208.5,-93 227.97,-70.53 240.24,-71.49 269.25,-65 360.25,-44.63 467.77,-47.39 540.11,-53"/>
<polygon fill="#9a32cd" stroke="#9a32cd" points="159.19,-228.13 162.09,-238.32 166.18,-228.55 159.19,-228.13"/>
</a>
</g>
<text text-anchor="middle" x="330.5" y="-67.5" font-family="Helvetica,sans-Serif" font-size="10.00" fill="grey"> _rootFolder</text>
</g>
<!-- Node3 -->
<g id="Node000003" class="node">
<title>Node3</title>
<g id="a_Node000003"><a xlink:title=" ">
<polygon fill="white" stroke="#666666" points="94,-266 0,-266 0,-234 94,-234 94,-266"/>
<text text-anchor="start" x="8" y="-252.5" font-family="Helvetica,sans-Serif" font-size="10.00">std::basic_string&lt;</text>
<text text-anchor="middle" x="47" y="-240.5" font-family="Helvetica,sans-Serif" font-size="10.00"> Char &gt;</text>
</a>
</g>
</g>
<!-- Node3&#45;&gt;Node2 -->
<g id="edge2_Node000002_Node000003" class="edge">
<title>Node3&#45;&gt;Node2</title>
<g id="a_edge2_Node000002_Node000003"><a xlink:title=" ">
<path fill="none" stroke="#63b8ff" d="M105.71,-250C114.32,-250 122.87,-250 130.55,-250"/>
<polygon fill="#63b8ff" stroke="#63b8ff" points="105.93,-246.5 95.93,-250 105.93,-253.5 105.93,-246.5"/>
</a>
</g>
</g>
<!-- Node4 -->
<g id="Node000004" class="node">
<title>Node4</title>
<g id="a_Node000004"><a xlink:title=" ">
<polygon fill="white" stroke="#666666" points="1199.5,-550 1081.5,-550 1081.5,-518 1199.5,-518 1199.5,-550"/>
<text text-anchor="start" x="1089.5" y="-536.5" font-family="Helvetica,sans-Serif" font-size="10.00">std::vector&lt; GEU::VAO</text>
<text text-anchor="middle" x="1140.5" y="-524.5" font-family="Helvetica,sans-Serif" font-size="10.00">::Vertex &gt;</text>
</a>
</g>
</g>
<!-- Node4&#45;&gt;Node1 -->
<g id="edge3_Node000001_Node000004" class="edge">
<title>Node4&#45;&gt;Node1</title>
<g id="a_edge3_Node000001_Node000004"><a xlink:title=" ">
<path fill="none" stroke="#9a32cd" stroke-dasharray="5,2" d="M1210.66,-521.34C1227.34,-516.99 1244.8,-511.31 1260.25,-504 1279.75,-494.77 1299.27,-479.78 1312.79,-468.26"/>
<polygon fill="#9a32cd" stroke="#9a32cd" points="1210.18,-517.85 1201.31,-523.64 1211.86,-524.65 1210.18,-517.85"/>
</a>
</g>
<text text-anchor="middle" x="1238.88" y="-520.5" font-family="Helvetica,sans-Serif" font-size="10.00" fill="grey"> _vertices</text>
</g>
<!-- Node5 -->
<g id="Node000005" class="node">
<title>Node5</title>
<g id="a_Node000005"><a xlink:href="../../df/d86/struct_g_e_u_1_1_v_a_o_1_1_vertex.html" target="_top" xlink:title=" ">
<polygon fill="white" stroke="#666666" points="944.62,-544 846.12,-544 846.12,-524 944.62,-524 944.62,-544"/>
<text text-anchor="middle" x="895.38" y="-530.5" font-family="Helvetica,sans-Serif" font-size="10.00">GEU::VAO::Vertex</text>
</a>
</g>
</g>
<!-- Node5&#45;&gt;Node4 -->
<g id="edge4_Node000004_Node000005" class="edge">
<title>Node5&#45;&gt;Node4</title>
<g id="a_edge4_Node000004_Node000005"><a xlink:title=" ">
<path fill="none" stroke="#9a32cd" stroke-dasharray="5,2" d="M956.42,-534C994.45,-534 1043.4,-534 1081.11,-534"/>
<polygon fill="#9a32cd" stroke="#9a32cd" points="956.5,-530.5 946.5,-534 956.5,-537.5 956.5,-530.5"/>
</a>
</g>
<text text-anchor="middle" x="1017.75" y="-536.5" font-family="Helvetica,sans-Serif" font-size="10.00" fill="grey"> elements</text>
</g>
<!-- Node6 -->
<g id="Node000006" class="node">
<title>Node6</title>
<g id="a_Node000006"><a xlink:title=" ">
<polygon fill="white" stroke="#666666" points="384.25,-500 276.75,-500 276.75,-480 384.25,-480 384.25,-500"/>
<text text-anchor="middle" x="330.5" y="-486.5" font-family="Helvetica,sans-Serif" font-size="10.00">std::vector&lt; GLuint &gt;</text>
</a>
</g>
</g>
<!-- Node6&#45;&gt;Node1 -->
<g id="edge5_Node000001_Node000006" class="edge">
<title>Node6&#45;&gt;Node1</title>
<g id="a_edge5_Node000001_Node000006"><a xlink:title=" ">
<path fill="none" stroke="#9a32cd" stroke-dasharray="5,2" d="M396,-490C454.99,-490 544.68,-490 622.62,-490 622.62,-490 622.62,-490 1141.5,-490 1188.22,-490 1240.18,-478.72 1277.8,-468.45"/>
<polygon fill="#9a32cd" stroke="#9a32cd" points="396.14,-486.5 386.14,-490 396.14,-493.5 396.14,-486.5"/>
</a>
</g>
<text text-anchor="middle" x="895.38" y="-492.5" font-family="Helvetica,sans-Serif" font-size="10.00" fill="grey"> _indices</text>
</g>
<!-- Node6&#45;&gt;Node11 -->
<g id="edge15_Node000011_Node000006" class="edge">
<title>Node6&#45;&gt;Node11</title>
<g id="a_edge15_Node000011_Node000006"><a xlink:title=" ">
<path fill="none" stroke="#9a32cd" stroke-dasharray="5,2" d="M361.89,-474.66C421.37,-444.62 551.77,-378.77 602.18,-353.33"/>
<polygon fill="#9a32cd" stroke="#9a32cd" points="360.67,-471.35 353.32,-478.98 363.83,-477.6 360.67,-471.35"/>
</a>
</g>
<text text-anchor="middle" x="466" y="-448.5" font-family="Helvetica,sans-Serif" font-size="10.00" fill="grey"> _activeSubroutineUniform</text>
</g>
<!-- Node7 -->
<g id="Node000007" class="node">
<title>Node7</title>
<g id="a_Node000007"><a xlink:href="../../de/d53/class_g_e_u_1_1_v_a_o.html" target="_top" xlink:title=" ">
<polygon fill="white" stroke="#666666" points="1172.5,-462 1108.5,-462 1108.5,-442 1172.5,-442 1172.5,-462"/>
<text text-anchor="middle" x="1140.5" y="-448.5" font-family="Helvetica,sans-Serif" font-size="10.00">GEU::VAO</text>
</a>
</g>
</g>
<!-- Node7&#45;&gt;Node1 -->
<g id="edge6_Node000001_Node000007" class="edge">
<title>Node7&#45;&gt;Node1</title>
<g id="a_edge6_Node000001_Node000007"><a xlink:title=" ">
<path fill="none" stroke="#9a32cd" stroke-dasharray="5,2" d="M1184.05,-452C1211.82,-452 1248.28,-452 1277.88,-452"/>
<polygon fill="#9a32cd" stroke="#9a32cd" points="1184.24,-448.5 1174.24,-452 1184.24,-455.5 1184.24,-448.5"/>
</a>
</g>
<text text-anchor="middle" x="1238.88" y="-454.5" font-family="Helvetica,sans-Serif" font-size="10.00" fill="grey"> _vao</text>
</g>
<!-- Node8 -->
<g id="Node000008" class="node">
<title>Node8</title>
<g id="a_Node000008"><a xlink:href="../../dc/d47/class_a_a_b_b.html" target="_top" xlink:title=" ">
<polygon fill="white" stroke="#666666" points="1162,-424 1119,-424 1119,-404 1162,-404 1162,-424"/>
<text text-anchor="middle" x="1140.5" y="-410.5" font-family="Helvetica,sans-Serif" font-size="10.00">AABB</text>
</a>
</g>
</g>
<!-- Node8&#45;&gt;Node1 -->
<g id="edge7_Node000001_Node000008" class="edge">
<title>Node8&#45;&gt;Node1</title>
<g id="a_edge7_Node000001_Node000008"><a xlink:title=" ">
<path fill="none" stroke="#9a32cd" stroke-dasharray="5,2" d="M1173.39,-419.55C1197.34,-423.8 1230.91,-429.95 1260.25,-436 1266.02,-437.19 1272.04,-438.48 1278.03,-439.8"/>
<polygon fill="#9a32cd" stroke="#9a32cd" points="1174.09,-416.12 1163.63,-417.83 1172.87,-423.01 1174.09,-416.12"/>
</a>
</g>
<text text-anchor="middle" x="1238.88" y="-438.5" font-family="Helvetica,sans-Serif" font-size="10.00" fill="grey"> _aabb</text>
</g>
<!-- Node9&#45;&gt;Node1 -->
<g id="edge8_Node000001_Node000009" class="edge">
<title>Node9&#45;&gt;Node1</title>
<g id="a_edge8_Node000001_Node000009"><a xlink:title=" ">
<path fill="none" stroke="#9a32cd" stroke-dasharray="5,2" d="M1169.51,-358.96C1193.6,-372.7 1229.25,-393.09 1260.25,-411 1274.21,-419.06 1289.69,-428.07 1302.57,-435.59"/>
<polygon fill="#9a32cd" stroke="#9a32cd" points="1171.37,-355.99 1160.95,-354.08 1167.9,-362.07 1171.37,-355.99"/>
</a>
</g>
<text text-anchor="middle" x="1238.88" y="-413.5" font-family="Helvetica,sans-Serif" font-size="10.00" fill="grey"> _material</text>
</g>
<!-- Node10 -->
<g id="Node000010" class="node">
<title>Node10</title>
<g id="a_Node000010"><a xlink:href="../../d0/def/class_g_e_u_1_1_rendering_shader.html" target="_top" xlink:title=" ">
<polygon fill="white" stroke="#666666" points="954,-353 836.75,-353 836.75,-333 954,-333 954,-353"/>
<text text-anchor="middle" x="895.38" y="-339.5" font-family="Helvetica,sans-Serif" font-size="10.00">GEU::RenderingShader</text>
</a>
</g>
</g>
<!-- Node10&#45;&gt;Node9 -->
<g id="edge10_Node000009_Node000010" class="edge">
<title>Node10&#45;&gt;Node9</title>
<g id="a_edge10_Node000009_Node000010"><a xlink:title=" ">
<path fill="none" stroke="#9a32cd" stroke-dasharray="5,2" d="M965.81,-343C1009.84,-343 1065.12,-343 1101.33,-343"/>
<polygon fill="#9a32cd" stroke="#9a32cd" points="965.81,-339.5 955.81,-343 965.81,-346.5 965.81,-339.5"/>
</a>
</g>
<text text-anchor="middle" x="1017.75" y="-345.5" font-family="Helvetica,sans-Serif" font-size="10.00" fill="grey"> _associatedShader</text>
</g>
<!-- Node11&#45;&gt;Node10 -->
<g id="edge11_Node000010_Node000011" class="edge">
<title>Node11&#45;&gt;Node10</title>
<g id="a_edge11_Node000010_Node000011"><a xlink:title=" ">
<path fill="none" stroke="#63b8ff" d="M690.55,-343C735.24,-343 793.74,-343 836.61,-343"/>
<polygon fill="#63b8ff" stroke="#63b8ff" points="690.73,-339.5 680.73,-343 690.73,-346.5 690.73,-339.5"/>
</a>
</g>
</g>
<!-- Node12&#45;&gt;Node11 -->
<g id="edge13_Node000011_Node000012" class="edge">
<title>Node12&#45;&gt;Node11</title>
<g id="a_edge13_Node000011_Node000012"><a xlink:title=" ">
<path fill="none" stroke="#9a32cd" stroke-dasharray="5,2" d="M393.24,-313.85C445,-320.43 518.23,-329.73 567.92,-336.05"/>
<polygon fill="#9a32cd" stroke="#9a32cd" points="393.74,-310.38 383.38,-312.59 392.86,-317.33 393.74,-310.38"/>
</a>
</g>
<text text-anchor="middle" x="466" y="-332.5" font-family="Helvetica,sans-Serif" font-size="10.00" fill="grey"> _moduleCode</text>
</g>
<!-- Node13&#45;&gt;Node11 -->
<g id="edge16_Node000011_Node000013" class="edge">
<title>Node13&#45;&gt;Node11</title>
<g id="a_edge16_Node000011_Node000013"><a xlink:title=" ">
<path fill="none" stroke="#9a32cd" stroke-dasharray="5,2" d="M395.37,-258.28C433.03,-264.34 481.21,-274.13 522.25,-289 553.88,-300.46 587.76,-320.51 606.96,-332.69"/>
<polygon fill="#9a32cd" stroke="#9a32cd" points="395.95,-254.83 385.53,-256.76 394.87,-261.75 395.95,-254.83"/>
</a>
</g>
<text text-anchor="middle" x="466" y="-303.5" font-family="Helvetica,sans-Serif" font-size="10.00" fill="grey"> subroutineLocation</text>
<text text-anchor="middle" x="466" y="-291.5" font-family="Helvetica,sans-Serif" font-size="10.00" fill="grey">uniformLocation</text>
</g>
<!-- Node14&#45;&gt;Node9 -->
<g id="edge18_Node000009_Node000014" class="edge">
<title>Node14&#45;&gt;Node9</title>
<g id="a_edge18_Node000009_Node000014"><a xlink:title=" ">
<path fill="none" stroke="#9a32cd" stroke-dasharray="5,2" d="M672.51,-213.3C774.17,-241.54 1009.8,-306.98 1101.77,-332.52"/>
<polygon fill="#9a32cd" stroke="#9a32cd" points="673.68,-209.99 663.11,-210.69 671.81,-216.74 673.68,-209.99"/>
</a>
</g>
<text text-anchor="middle" x="895.38" y="-293.5" font-family="Helvetica,sans-Serif" font-size="10.00" fill="grey"> _texture</text>
</g>
<!-- Node15&#45;&gt;Node14 -->
<g id="edge20_Node000014_Node000015" class="edge">
<title>Node15&#45;&gt;Node14</title>
<g id="a_edge20_Node000014_Node000015"><a xlink:title=" ">
<path fill="none" stroke="#9a32cd" stroke-dasharray="5,2" d="M401,-200C458.99,-200 539.39,-200 585.72,-200"/>
<polygon fill="#9a32cd" stroke="#9a32cd" points="401.23,-196.5 391.23,-200 401.23,-203.5 401.23,-196.5"/>
</a>
</g>
<text text-anchor="middle" x="466" y="-202.5" font-family="Helvetica,sans-Serif" font-size="10.00" fill="grey"> SHADER_VARIABLE</text>
</g>
<!-- Node16&#45;&gt;Node9 -->
<g id="edge22_Node000009_Node000016" class="edge">
<title>Node16&#45;&gt;Node9</title>
<g id="a_edge22_Node000009_Node000016"><a xlink:title=" ">
<path fill="none" stroke="#9a32cd" stroke-dasharray="5,2" d="M401.49,-108.49C437.66,-115.22 482.45,-123.98 522.25,-133 716.84,-177.1 764.66,-193.06 954,-256 1002.88,-272.25 1017.19,-271.44 1063.5,-294 1086.36,-305.14 1110.72,-321.8 1125.53,-332.54"/>
<polygon fill="#9a32cd" stroke="#9a32cd" points="402.52,-105.12 392.05,-106.75 401.25,-112 402.52,-105.12"/>
</a>
</g>
<text text-anchor="middle" x="771.88" y="-213.5" font-family="Helvetica,sans-Serif" font-size="10.00" fill="grey"> _enabledSubroutines</text>
</g>
<!-- Node16&#45;&gt;Node17 -->
<g id="edge26_Node000017_Node000016" class="edge">
<title>Node16&#45;&gt;Node17</title>
<g id="a_edge26_Node000017_Node000016"><a xlink:title=" ">
<path fill="none" stroke="#9a32cd" stroke-dasharray="5,2" d="M403.53,-87.59C444.87,-82.76 496.94,-76.68 539.94,-71.66"/>
<polygon fill="#9a32cd" stroke="#9a32cd" points="403.2,-84.1 393.68,-88.74 404.02,-91.05 403.2,-84.1"/>
</a>
</g>
<text text-anchor="middle" x="466" y="-88.5" font-family="Helvetica,sans-Serif" font-size="10.00" fill="grey"> _textureImage</text>
</g>
<!-- Node17&#45;&gt;Node1 -->
<g id="edge24_Node000001_Node000017" class="edge">
<title>Node17&#45;&gt;Node1</title>
<g id="a_edge24_Node000001_Node000017"><a xlink:title=" ">
<path fill="none" stroke="#9a32cd" stroke-dasharray="5,2" d="M671.82,-75.74C775.01,-107.36 1025.36,-192.78 1199.5,-324 1246.25,-359.23 1293.54,-409.94 1316.44,-435.68"/>
<polygon fill="#9a32cd" stroke="#9a32cd" points="672.88,-72.41 662.3,-72.85 670.85,-79.11 672.88,-72.41"/>
</a>
</g>
<text text-anchor="middle" x="1017.75" y="-238.5" font-family="Helvetica,sans-Serif" font-size="10.00" fill="grey"> _materialDescription</text>
</g>
<!-- Node18 -->
<g id="Node000018" class="node">
<title>Node18</title>
<g id="a_Node000018"><a xlink:title=" ">
<polygon fill="white" stroke="#666666" points="379.75,-20 281.25,-20 281.25,0 379.75,0 379.75,-20"/>
<text text-anchor="middle" x="330.5" y="-6.5" font-family="Helvetica,sans-Serif" font-size="10.00">std::vector&lt; vec4 &gt;</text>
</a>
</g>
</g>
<!-- Node18&#45;&gt;Node17 -->
<g id="edge27_Node000017_Node000018" class="edge">
<title>Node18&#45;&gt;Node17</title>
<g id="a_edge27_Node000017_Node000018"><a xlink:title=" ">
<path fill="none" stroke="#9a32cd" stroke-dasharray="5,2" d="M391.47,-13.14C429.29,-15.89 478.98,-20.93 522.25,-30 547.49,-35.29 575.38,-44.46 595.34,-51.63"/>
<polygon fill="#9a32cd" stroke="#9a32cd" points="391.86,-9.66 381.65,-12.46 391.38,-16.64 391.86,-9.66"/>
</a>
</g>
<text text-anchor="middle" x="466" y="-32.5" font-family="Helvetica,sans-Serif" font-size="10.00" fill="grey"> _textureColor</text>
</g>
</g>
</svg>

<g id="navigator" transform="translate(0 0)" fill="#404254">
  <rect fill="#f2f5e9" fill-opacity="0.5" stroke="#606060" stroke-width=".5" x="0" y="0" width="60" height="60"/>
  <use id="zoomplus" xlink:href="#zoomPlus" x="17" y="9" onmousedown="handleZoom(evt,'in')"/>
  <use id="zoomminus" xlink:href="#zoomMin" x="42" y="9" onmousedown="handleZoom(evt,'out')"/>
  <use id="reset" xlink:href="#resetDef" x="30" y="36" onmousedown="handleReset()"/>
   <use id="arrowup" xlink:href="#arrowUp" x="0" y="0" onmousedown="handlePan(0,-1)"/>
  <use id="arrowright" xlink:href="#arrowRight" x="0" y="0" onmousedown="handlePan(1,0)"/>
  <use id="arrowdown" xlink:href="#arrowDown" x="0" y="0" onmousedown="handlePan(0,1)"/>
  <use id="arrowleft" xlink:href="#arrowLeft" x="0" y="0" onmousedown="handlePan(-1,0)"/>
</g>
<svg viewBox="0 0 15 15" width="100%" height="30px" preserveAspectRatio="xMaxYMin meet">
 <g id="arrow_out" transform="scale(0.3 0.3)">
  <a xlink:href="struct_g_e_u_1_1_triangle_mesh_1_1_component__coll__graph_org.svg" target="_base">
   <rect id="button" ry="5" rx="5" y="6" x="6" height="38" width="38"
        fill="#f2f5e9" fill-opacity="0.5" stroke="#606060" stroke-width="1.0"/>
   <path id="arrow"
     d="M 11.500037,31.436501 C 11.940474,20.09759 22.043105,11.32322 32.158766,21.979434 L 37.068811,17.246167 C 37.068811,17.246167 37.088388,32 37.088388,32 L 22.160133,31.978069 C 22.160133,31.978069 26.997745,27.140456 26.997745,27.140456 C 18.528582,18.264221 13.291696,25.230495 11.500037,31.436501 z"
     style="fill:#404040;"/>
  </a>
 </g>
</svg>

<style type='text/css'>
<![CDATA[
[data-mouse-over-selected='false'] { opacity: 0.7; }
[data-mouse-over-selected='true']  { opacity: 1.0; }
]]>
</style>
<script type="application/ecmascript"><![CDATA[
document.addEventListener('DOMContentLoaded', (event) => {
  highlightEdges();
  highlightAdjacentNodes();
});
]]></script>
</svg>
