<?xml version="1.0" encoding="UTF-8" standalone="no"?>
<!DOCTYPE svg PUBLIC "-//W3C//DTD SVG 1.1//EN"
 "http://www.w3.org/Graphics/SVG/1.1/DTD/svg11.dtd">
<!-- Generated by graphviz version 10.0.1 (20240210.2158)
 -->
<!-- Title: GEU::Renderer::addModel Pages: 1 -->
<svg width="505pt" height="78pt"
 viewBox="0.00 0.00 505.25 78.00" xmlns="http://www.w3.org/2000/svg" xmlns:xlink="http://www.w3.org/1999/xlink">
<g id="graph0" class="graph" transform="scale(1 1) rotate(0) translate(4 74)">
<title>GEU::Renderer::addModel</title>
<!-- Node1 -->
<g id="Node000001" class="node">
<title>Node1</title>
<g id="a_Node000001"><a xlink:title="Inserts 3D model to current scene.">
<polygon fill="#999999" stroke="#666666" points="497.25,-48 367.25,-48 367.25,-28 497.25,-28 497.25,-48"/>
<text text-anchor="middle" x="432.25" y="-34.5" font-family="Helvetica,sans-Serif" font-size="10.00">GEU::Renderer::addModel</text>
</a>
</g>
</g>
<!-- Node2 -->
<g id="Node000002" class="node">
<title>Node2</title>
<g id="a_Node000002"><a xlink:href="../../dd/db9/class_g_e_u_1_1_file_manager.html#ad604f08d090bb872c17b17b93c04b1c0" target="_top" xlink:title="Carga la malla de triangulos de la ruta especificada.">
<polygon fill="white" stroke="#666666" points="331.25,-48 153.25,-48 153.25,-28 331.25,-28 331.25,-48"/>
<text text-anchor="middle" x="242.25" y="-34.5" font-family="Helvetica,sans-Serif" font-size="10.00">GEU::FileManager::loadTriangleMesh</text>
</a>
</g>
</g>
<!-- Node1&#45;&gt;Node2 -->
<g id="edge1_Node000001_Node000002" class="edge">
<title>Node1&#45;&gt;Node2</title>
<g id="a_edge1_Node000001_Node000002"><a xlink:title=" ">
<path fill="none" stroke="#63b8ff" d="M355.44,-38C347.57,-38 339.52,-38 331.53,-38"/>
<polygon fill="#63b8ff" stroke="#63b8ff" points="355.3,-41.5 365.3,-38 355.3,-34.5 355.3,-41.5"/>
</a>
</g>
</g>
<!-- Node3 -->
<g id="Node000003" class="node">
<title>Node3</title>
<g id="a_Node000003"><a xlink:href="../../de/de6/class_g_e_u_1_1_g_u_i.html#af7ebc89aa431e3a9e86bb1424b819d47" target="_top" xlink:title="Draws ImGUI elements.">
<polygon fill="white" stroke="#666666" points="104.88,-70 12.38,-70 12.38,-50 104.88,-50 104.88,-70"/>
<text text-anchor="middle" x="58.62" y="-56.5" font-family="Helvetica,sans-Serif" font-size="10.00">GEU::GUI::render</text>
</a>
</g>
</g>
<!-- Node2&#45;&gt;Node3 -->
<g id="edge2_Node000002_Node000003" class="edge">
<title>Node2&#45;&gt;Node3</title>
<g id="a_edge2_Node000002_Node000003"><a xlink:title=" ">
<path fill="none" stroke="#63b8ff" d="M143.42,-49.85C130.02,-51.47 116.83,-53.07 105.02,-54.5"/>
<polygon fill="#63b8ff" stroke="#63b8ff" points="143.68,-53.34 153.19,-48.67 142.84,-46.39 143.68,-53.34"/>
</a>
</g>
</g>
<!-- Node4 -->
<g id="Node000004" class="node">
<title>Node4</title>
<g id="a_Node000004"><a xlink:href="../../da/d81/class_g_e_u_1_1_inspector_window.html#a63b0402d61dd34944da9280a89fa9f74" target="_top" xlink:title="Renders the window and contents.">
<polygon fill="white" stroke="#666666" points="117.25,-32 0,-32 0,0 117.25,0 117.25,-32"/>
<text text-anchor="start" x="8" y="-18.5" font-family="Helvetica,sans-Serif" font-size="10.00">GEU::InspectorWindow</text>
<text text-anchor="middle" x="58.62" y="-6.5" font-family="Helvetica,sans-Serif" font-size="10.00">::renderWindow</text>
</a>
</g>
</g>
<!-- Node2&#45;&gt;Node4 -->
<g id="edge3_Node000002_Node000004" class="edge">
<title>Node2&#45;&gt;Node4</title>
<g id="a_edge3_Node000002_Node000004"><a xlink:title=" ">
<path fill="none" stroke="#63b8ff" d="M143.46,-26.15C134.61,-25.08 125.85,-24.02 117.51,-23.01"/>
<polygon fill="#63b8ff" stroke="#63b8ff" points="142.84,-29.61 153.19,-27.33 143.68,-22.66 142.84,-29.61"/>
</a>
</g>
</g>
</g>
</svg>
