<?xml version="1.0" encoding="UTF-8" standalone="no"?>
<!DOCTYPE svg PUBLIC "-//W3C//DTD SVG 1.1//EN"
 "http://www.w3.org/Graphics/SVG/1.1/DTD/svg11.dtd">
<!-- Generated by graphviz version 10.0.1 (20240210.2158)
 -->
<!-- Title: GEU::Renderer Pages: 1 -->
<svg width="260pt" height="221pt"
 viewBox="0.00 0.00 260.25 221.00" xmlns="http://www.w3.org/2000/svg" xmlns:xlink="http://www.w3.org/1999/xlink">
<g id="graph0" class="graph" transform="scale(1 1) rotate(0) translate(4 217)">
<title>GEU::Renderer</title>
<!-- Node1 -->
<g id="Node000001" class="node">
<title>Node1</title>
<g id="a_Node000001"><a xlink:title=" ">
<polygon fill="#999999" stroke="#666666" points="161.75,-156 79.75,-156 79.75,-136 161.75,-136 161.75,-156"/>
<text text-anchor="middle" x="120.75" y="-142.5" font-family="Helvetica,sans-Serif" font-size="10.00">GEU::Renderer</text>
</a>
</g>
</g>
<!-- Node3 -->
<g id="Node000003" class="node">
<title>Node3</title>
<g id="a_Node000003"><a xlink:title=" ">
<polygon fill="white" stroke="#666666" points="141.5,-88 4,-88 4,-68 141.5,-68 141.5,-88"/>
<text text-anchor="middle" x="72.75" y="-74.5" font-family="Helvetica,sans-Serif" font-size="10.00">std::unique_ptr&lt; Renderer &gt;</text>
</a>
</g>
</g>
<!-- Node1&#45;&gt;Node3 -->
<g id="edge3_Node000003_Node000001" class="edge">
<title>Node1&#45;&gt;Node3</title>
<g id="a_edge3_Node000003_Node000001"><a xlink:title=" ">
<path fill="none" stroke="#9a32cd" stroke-dasharray="5,2" d="M107.31,-126.52C98.3,-114.13 86.81,-98.33 79.61,-88.44"/>
<polygon fill="#9a32cd" stroke="#9a32cd" points="104.27,-128.29 112.98,-134.32 109.93,-124.17 104.27,-128.29"/>
</a>
</g>
<text text-anchor="middle" x="108.88" y="-108.5" font-family="Helvetica,sans-Serif" font-size="10.00" fill="grey"> ptr</text>
</g>
<!-- Node2 -->
<g id="Node000002" class="node">
<title>Node2</title>
<g id="a_Node000002"><a xlink:href="../../d1/df9/class_g_e_u_1_1_singleton.html" target="_top" xlink:title=" ">
<polygon fill="white" stroke="#666666" points="192,-20 51.5,-20 51.5,0 192,0 192,-20"/>
<text text-anchor="middle" x="121.75" y="-6.5" font-family="Helvetica,sans-Serif" font-size="10.00">GEU::Singleton&lt; Renderer &gt;</text>
</a>
</g>
</g>
<!-- Node2&#45;&gt;Node1 -->
<g id="edge1_Node000001_Node000002" class="edge">
<title>Node2&#45;&gt;Node1</title>
<g id="a_edge1_Node000001_Node000002"><a xlink:title=" ">
<path fill="none" stroke="#63b8ff" d="M144.38,-28.22C146.96,-31.19 149.21,-34.47 150.75,-38 159.62,-58.38 156.08,-66.43 150.75,-88 146.3,-106.02 135,-124.64 127.62,-135.5"/>
<polygon fill="#63b8ff" stroke="#63b8ff" points="146.8,-25.69 137.13,-21.35 141.98,-30.77 146.8,-25.69"/>
</a>
</g>
</g>
<!-- Node3&#45;&gt;Node2 -->
<g id="edge2_Node000002_Node000003" class="edge">
<title>Node3&#45;&gt;Node2</title>
<g id="a_edge2_Node000002_Node000003"><a xlink:title=" ">
<path fill="none" stroke="#9a32cd" stroke-dasharray="5,2" d="M86.47,-58.52C95.67,-46.13 107.4,-30.33 114.74,-20.44"/>
<polygon fill="#9a32cd" stroke="#9a32cd" points="83.82,-56.21 80.67,-66.33 89.44,-60.39 83.82,-56.21"/>
</a>
</g>
<text text-anchor="middle" x="124.25" y="-40.5" font-family="Helvetica,sans-Serif" font-size="10.00" fill="grey"> _instance</text>
</g>
<!-- Node4 -->
<g id="Node000004" class="node">
<title>Node4</title>
<g id="a_Node000004"><a xlink:href="../../dc/dda/class_g_e_u_1_1_resize_listener.html" target="_top" xlink:title=" ">
<polygon fill="white" stroke="#666666" points="107.5,-213 0,-213 0,-193 107.5,-193 107.5,-213"/>
<text text-anchor="middle" x="53.75" y="-199.5" font-family="Helvetica,sans-Serif" font-size="10.00">GEU::ResizeListener</text>
</a>
</g>
</g>
<!-- Node4&#45;&gt;Node1 -->
<g id="edge4_Node000001_Node000004" class="edge">
<title>Node4&#45;&gt;Node1</title>
<g id="a_edge4_Node000001_Node000004"><a xlink:title=" ">
<path fill="none" stroke="#63b8ff" d="M73.8,-185.54C85.5,-175.94 99.82,-164.18 109.55,-156.19"/>
<polygon fill="#63b8ff" stroke="#63b8ff" points="71.79,-182.66 66.29,-191.71 76.24,-188.07 71.79,-182.66"/>
</a>
</g>
</g>
<!-- Node5 -->
<g id="Node000005" class="node">
<title>Node5</title>
<g id="a_Node000005"><a xlink:href="../../d9/db3/class_g_e_u_1_1_screenshot_listener.html" target="_top" xlink:title=" ">
<polygon fill="white" stroke="#666666" points="252.25,-213 125.25,-213 125.25,-193 252.25,-193 252.25,-213"/>
<text text-anchor="middle" x="188.75" y="-199.5" font-family="Helvetica,sans-Serif" font-size="10.00">GEU::ScreenshotListener</text>
</a>
</g>
</g>
<!-- Node5&#45;&gt;Node1 -->
<g id="edge5_Node000001_Node000005" class="edge">
<title>Node5&#45;&gt;Node1</title>
<g id="a_edge5_Node000001_Node000005"><a xlink:title=" ">
<path fill="none" stroke="#63b8ff" d="M168.4,-185.54C156.53,-175.94 141.99,-164.18 132.11,-156.19"/>
<polygon fill="#63b8ff" stroke="#63b8ff" points="166.06,-188.15 176.04,-191.72 170.46,-182.71 166.06,-188.15"/>
</a>
</g>
</g>
</g>
</svg>
