<?xml version="1.0" encoding="UTF-8" standalone="no"?>
<!DOCTYPE svg PUBLIC "-//W3C//DTD SVG 1.1//EN"
 "http://www.w3.org/Graphics/SVG/1.1/DTD/svg11.dtd">
<!-- Generated by graphviz version 10.0.1 (20240210.2158)
 -->
<!-- Title: C:/GitHub/GEU/GEU/Source/UI/InterfaceAdapter.h Pages: 1 -->
<svg width="2887pt" height="416pt"
 viewBox="0.00 0.00 2887.38 416.00" xmlns="http://www.w3.org/2000/svg" xmlns:xlink="http://www.w3.org/1999/xlink">
<g id="graph0" class="graph" transform="scale(1 1) rotate(0) translate(4 412)">
<title>C:/GitHub/GEU/GEU/Source/UI/InterfaceAdapter.h</title>
<!-- Node1 -->
<g id="Node000001" class="node">
<title>Node1</title>
<g id="a_Node000001"><a xlink:title=" ">
<polygon fill="#999999" stroke="#666666" points="1401.75,-408 1261.25,-408 1261.25,-376 1401.75,-376 1401.75,-408"/>
<text text-anchor="start" x="1269.25" y="-394.5" font-family="Helvetica,sans-Serif" font-size="10.00">C:/GitHub/GEU/GEU/Source</text>
<text text-anchor="middle" x="1331.5" y="-382.5" font-family="Helvetica,sans-Serif" font-size="10.00">/UI/InterfaceAdapter.h</text>
</a>
</g>
</g>
<!-- Node2 -->
<g id="Node000002" class="node">
<title>Node2</title>
<g id="a_Node000002"><a xlink:href="../../df/dea/_normales_g_u_i_adapter_8h.html" target="_top" xlink:title=" ">
<polygon fill="white" stroke="#666666" points="1084,-340 927,-340 927,-296 1084,-296 1084,-340"/>
<text text-anchor="start" x="935" y="-326.5" font-family="Helvetica,sans-Serif" font-size="10.00">C:/GitHub/GEU/GEU/Source</text>
<text text-anchor="start" x="935" y="-314.5" font-family="Helvetica,sans-Serif" font-size="10.00">/Modules/ComparacionNormales</text>
<text text-anchor="middle" x="1005.5" y="-302.5" font-family="Helvetica,sans-Serif" font-size="10.00">/NormalesGUIAdapter.h</text>
</a>
</g>
</g>
<!-- Node1&#45;&gt;Node2 -->
<g id="edge1_Node000001_Node000002" class="edge">
<title>Node1&#45;&gt;Node2</title>
<g id="a_edge1_Node000001_Node000002"><a xlink:title=" ">
<path fill="none" stroke="#63b8ff" d="M1249.74,-373.97C1203.78,-364.27 1145.38,-351.75 1093.5,-340 1090.44,-339.31 1087.31,-338.59 1084.16,-337.87"/>
<polygon fill="#63b8ff" stroke="#63b8ff" points="1248.86,-377.36 1259.37,-376 1250.31,-370.51 1248.86,-377.36"/>
</a>
</g>
</g>
<!-- Node5 -->
<g id="Node000005" class="node">
<title>Node5</title>
<g id="a_Node000005"><a xlink:href="../../d7/dd1/_module_manager_8h.html" target="_top" xlink:title=" ">
<polygon fill="white" stroke="#666666" points="1401.75,-334 1261.25,-334 1261.25,-302 1401.75,-302 1401.75,-334"/>
<text text-anchor="start" x="1269.25" y="-320.5" font-family="Helvetica,sans-Serif" font-size="10.00">C:/GitHub/GEU/GEU/Source</text>
<text text-anchor="middle" x="1331.5" y="-308.5" font-family="Helvetica,sans-Serif" font-size="10.00">/Modules/ModuleManager.h</text>
</a>
</g>
</g>
<!-- Node1&#45;&gt;Node5 -->
<g id="edge4_Node000001_Node000005" class="edge">
<title>Node1&#45;&gt;Node5</title>
<g id="a_edge4_Node000001_Node000005"><a xlink:title=" ">
<path fill="none" stroke="#63b8ff" d="M1331.5,-364.49C1331.5,-354.3 1331.5,-343.03 1331.5,-334.25"/>
<polygon fill="#63b8ff" stroke="#63b8ff" points="1328,-364.22 1331.5,-374.22 1335,-364.22 1328,-364.22"/>
</a>
</g>
</g>
<!-- Node31 -->
<g id="Node000031" class="node">
<title>Node31</title>
<g id="a_Node000031"><a xlink:href="../../d8/d7c/_multiespectral_g_u_i_adapter_8h.html" target="_top" xlink:title=" ">
<polygon fill="white" stroke="#666666" points="1242.75,-340 1102.25,-340 1102.25,-296 1242.75,-296 1242.75,-340"/>
<text text-anchor="start" x="1110.25" y="-326.5" font-family="Helvetica,sans-Serif" font-size="10.00">C:/GitHub/GEU/GEU/Source</text>
<text text-anchor="start" x="1110.25" y="-314.5" font-family="Helvetica,sans-Serif" font-size="10.00">/Modules/Multiespectral</text>
<text text-anchor="middle" x="1172.5" y="-302.5" font-family="Helvetica,sans-Serif" font-size="10.00">/MultiespectralGUIAdapter.h</text>
</a>
</g>
</g>
<!-- Node1&#45;&gt;Node31 -->
<g id="edge36_Node000001_Node000031" class="edge">
<title>Node1&#45;&gt;Node31</title>
<g id="a_edge36_Node000001_Node000031"><a xlink:title=" ">
<path fill="none" stroke="#63b8ff" d="M1287.15,-370.92C1266.19,-361.43 1241.15,-350.09 1219.82,-340.43"/>
<polygon fill="#63b8ff" stroke="#63b8ff" points="1285.46,-373.99 1296.01,-374.93 1288.35,-367.62 1285.46,-373.99"/>
</a>
</g>
</g>
<!-- Node32 -->
<g id="Node000032" class="node">
<title>Node32</title>
<g id="a_Node000032"><a xlink:href="../../dc/db4/_thermal_g_u_i_adapter_8h.html" target="_top" xlink:title=" ">
<polygon fill="white" stroke="#666666" points="1609.12,-334 1419.88,-334 1419.88,-302 1609.12,-302 1609.12,-334"/>
<text text-anchor="start" x="1427.88" y="-320.5" font-family="Helvetica,sans-Serif" font-size="10.00">C:/GitHub/GEU/GEU/Source</text>
<text text-anchor="middle" x="1514.5" y="-308.5" font-family="Helvetica,sans-Serif" font-size="10.00">/Modules/Termica/ThermalGUIAdapter.h</text>
</a>
</g>
</g>
<!-- Node1&#45;&gt;Node32 -->
<g id="edge39_Node000001_Node000032" class="edge">
<title>Node1&#45;&gt;Node32</title>
<g id="a_edge39_Node000001_Node000032"><a xlink:title=" ">
<path fill="none" stroke="#63b8ff" d="M1381.29,-371.41C1410.86,-359.78 1447.82,-345.23 1475.31,-334.42"/>
<polygon fill="#63b8ff" stroke="#63b8ff" points="1380.19,-368.08 1372.17,-375 1382.75,-374.6 1380.19,-368.08"/>
</a>
</g>
</g>
<!-- Node33 -->
<g id="Node000033" class="node">
<title>Node33</title>
<g id="a_Node000033"><a xlink:href="../../d7/df5/_interface_adapter_8cpp.html" target="_top" xlink:title=" ">
<polygon fill="white" stroke="#666666" points="1767.75,-334 1627.25,-334 1627.25,-302 1767.75,-302 1767.75,-334"/>
<text text-anchor="start" x="1635.25" y="-320.5" font-family="Helvetica,sans-Serif" font-size="10.00">C:/GitHub/GEU/GEU/Source</text>
<text text-anchor="middle" x="1697.5" y="-308.5" font-family="Helvetica,sans-Serif" font-size="10.00">/UI/InterfaceAdapter.cpp</text>
</a>
</g>
</g>
<!-- Node1&#45;&gt;Node33 -->
<g id="edge42_Node000001_Node000033" class="edge">
<title>Node1&#45;&gt;Node33</title>
<g id="a_edge42_Node000001_Node000033"><a xlink:title=" ">
<path fill="none" stroke="#63b8ff" d="M1413.24,-378.35C1470.86,-368.98 1549.71,-355.23 1618.5,-340 1625.98,-338.34 1633.82,-336.45 1641.54,-334.5"/>
<polygon fill="#63b8ff" stroke="#63b8ff" points="1412.81,-374.87 1403.5,-379.92 1413.93,-381.78 1412.81,-374.87"/>
</a>
</g>
</g>
<!-- Node3 -->
<g id="Node000003" class="node">
<title>Node3</title>
<g id="a_Node000003"><a xlink:href="../../d7/d4d/_normales_g_u_i_adapter_8cpp.html" target="_top" xlink:title=" ">
<polygon fill="white" stroke="#666666" points="157,-112 0,-112 0,-68 157,-68 157,-112"/>
<text text-anchor="start" x="8" y="-98.5" font-family="Helvetica,sans-Serif" font-size="10.00">C:/GitHub/GEU/GEU/Source</text>
<text text-anchor="start" x="8" y="-86.5" font-family="Helvetica,sans-Serif" font-size="10.00">/Modules/ComparacionNormales</text>
<text text-anchor="middle" x="78.5" y="-74.5" font-family="Helvetica,sans-Serif" font-size="10.00">/NormalesGUIAdapter.cpp</text>
</a>
</g>
</g>
<!-- Node2&#45;&gt;Node3 -->
<g id="edge2_Node000002_Node000003" class="edge">
<title>Node2&#45;&gt;Node3</title>
<g id="a_edge2_Node000002_Node000003"><a xlink:title=" ">
<path fill="none" stroke="#63b8ff" d="M915.66,-295.76C811.59,-271.09 635.03,-229.04 483.5,-192 369.99,-164.26 238.79,-131.39 157.22,-110.86"/>
<polygon fill="#63b8ff" stroke="#63b8ff" points="914.73,-299.13 925.27,-298.03 916.34,-292.32 914.73,-299.13"/>
</a>
</g>
</g>
<!-- Node4 -->
<g id="Node000004" class="node">
<title>Node4</title>
<g id="a_Node000004"><a xlink:href="../../d6/da6/_module_manager_8cpp.html" target="_top" xlink:title=" ">
<polygon fill="white" stroke="#666666" points="1324.75,-260 1178.25,-260 1178.25,-228 1324.75,-228 1324.75,-260"/>
<text text-anchor="start" x="1186.25" y="-246.5" font-family="Helvetica,sans-Serif" font-size="10.00">C:/GitHub/GEU/GEU/Source</text>
<text text-anchor="middle" x="1251.5" y="-234.5" font-family="Helvetica,sans-Serif" font-size="10.00">/Modules/ModuleManager.cpp</text>
</a>
</g>
</g>
<!-- Node2&#45;&gt;Node4 -->
<g id="edge3_Node000002_Node000004" class="edge">
<title>Node2&#45;&gt;Node4</title>
<g id="a_edge3_Node000002_Node000004"><a xlink:title=" ">
<path fill="none" stroke="#63b8ff" d="M1089.67,-292.37C1125.76,-281.8 1166.83,-269.78 1198.56,-260.5"/>
<polygon fill="#63b8ff" stroke="#63b8ff" points="1088.71,-289 1080.09,-295.17 1090.68,-295.72 1088.71,-289"/>
</a>
</g>
</g>
<!-- Node5&#45;&gt;Node4 -->
<g id="edge5_Node000005_Node000004" class="edge">
<title>Node5&#45;&gt;Node4</title>
<g id="a_edge5_Node000005_Node000004"><a xlink:title=" ">
<path fill="none" stroke="#63b8ff" d="M1306.11,-294.14C1293.91,-283.17 1279.62,-270.31 1268.72,-260.5"/>
<polygon fill="#63b8ff" stroke="#63b8ff" points="1303.63,-296.63 1313.41,-300.72 1308.32,-291.43 1303.63,-296.63"/>
</a>
</g>
</g>
<!-- Node6 -->
<g id="Node000006" class="node">
<title>Node6</title>
<g id="a_Node000006"><a xlink:href="../../da/d5d/_g_u_i_8h.html" target="_top" xlink:title=" ">
<polygon fill="white" stroke="#666666" points="1644.75,-260 1504.25,-260 1504.25,-228 1644.75,-228 1644.75,-260"/>
<text text-anchor="start" x="1512.25" y="-246.5" font-family="Helvetica,sans-Serif" font-size="10.00">C:/GitHub/GEU/GEU/Source</text>
<text text-anchor="middle" x="1574.5" y="-234.5" font-family="Helvetica,sans-Serif" font-size="10.00">/UI/GUI.h</text>
</a>
</g>
</g>
<!-- Node5&#45;&gt;Node6 -->
<g id="edge6_Node000005_Node000006" class="edge">
<title>Node5&#45;&gt;Node6</title>
<g id="a_edge6_Node000005_Node000006"><a xlink:title=" ">
<path fill="none" stroke="#63b8ff" d="M1394.53,-298.32C1434.28,-286.55 1485,-271.52 1522.46,-260.42"/>
<polygon fill="#63b8ff" stroke="#63b8ff" points="1393.67,-294.93 1385.08,-301.12 1395.66,-301.64 1393.67,-294.93"/>
</a>
</g>
</g>
<!-- Node7 -->
<g id="Node000007" class="node">
<title>Node7</title>
<g id="a_Node000007"><a xlink:href="../../d3/da0/_renderer_8h.html" target="_top" xlink:title=" ">
<polygon fill="white" stroke="#666666" points="1644.75,-186 1504.25,-186 1504.25,-154 1644.75,-154 1644.75,-186"/>
<text text-anchor="start" x="1512.25" y="-172.5" font-family="Helvetica,sans-Serif" font-size="10.00">C:/GitHub/GEU/GEU/Source</text>
<text text-anchor="middle" x="1574.5" y="-160.5" font-family="Helvetica,sans-Serif" font-size="10.00">/Core/Renderer.h</text>
</a>
</g>
</g>
<!-- Node6&#45;&gt;Node7 -->
<g id="edge7_Node000006_Node000007" class="edge">
<title>Node6&#45;&gt;Node7</title>
<g id="a_edge7_Node000006_Node000007"><a xlink:title=" ">
<path fill="none" stroke="#63b8ff" d="M1574.5,-216.49C1574.5,-206.3 1574.5,-195.03 1574.5,-186.25"/>
<polygon fill="#63b8ff" stroke="#63b8ff" points="1571,-216.22 1574.5,-226.22 1578,-216.22 1571,-216.22"/>
</a>
</g>
</g>
<!-- Node21 -->
<g id="Node000021" class="node">
<title>Node21</title>
<g id="a_Node000021"><a xlink:href="../../d3/d27/_g_u_i_8cpp.html" target="_top" xlink:title=" ">
<polygon fill="white" stroke="#666666" points="2525.75,-32 2385.25,-32 2385.25,0 2525.75,0 2525.75,-32"/>
<text text-anchor="start" x="2393.25" y="-18.5" font-family="Helvetica,sans-Serif" font-size="10.00">C:/GitHub/GEU/GEU/Source</text>
<text text-anchor="middle" x="2455.5" y="-6.5" font-family="Helvetica,sans-Serif" font-size="10.00">/UI/GUI.cpp</text>
</a>
</g>
</g>
<!-- Node6&#45;&gt;Node21 -->
<g id="edge34_Node000006_Node000021" class="edge">
<title>Node6&#45;&gt;Node21</title>
<g id="a_edge34_Node000006_Node000021"><a xlink:title=" ">
<path fill="none" stroke="#63b8ff" d="M1656.3,-239.1C1893.55,-226.96 2569.16,-186.1 2632.5,-112 2645.21,-97.14 2644.26,-83.63 2632.5,-68 2619.33,-50.5 2569.56,-37.12 2526.14,-28.47"/>
<polygon fill="#63b8ff" stroke="#63b8ff" points="1656.32,-235.6 1646.51,-239.6 1656.67,-242.59 1656.32,-235.6"/>
</a>
</g>
</g>
<!-- Node26 -->
<g id="Node000026" class="node">
<title>Node26</title>
<g id="a_Node000026"><a xlink:href="../../d5/d1f/_auto_updater_8cpp.html" target="_top" xlink:title=" ">
<polygon fill="white" stroke="#666666" points="2623.75,-106 2483.25,-106 2483.25,-74 2623.75,-74 2623.75,-106"/>
<text text-anchor="start" x="2491.25" y="-92.5" font-family="Helvetica,sans-Serif" font-size="10.00">C:/GitHub/GEU/GEU/Source</text>
<text text-anchor="middle" x="2553.5" y="-80.5" font-family="Helvetica,sans-Serif" font-size="10.00">/Utilities/AutoUpdater.cpp</text>
</a>
</g>
</g>
<!-- Node6&#45;&gt;Node26 -->
<g id="edge35_Node000006_Node000026" class="edge">
<title>Node6&#45;&gt;Node26</title>
<g id="a_edge35_Node000006_Node000026"><a xlink:title=" ">
<path fill="none" stroke="#63b8ff" d="M1656.55,-232.97C1813.35,-213.33 2166.17,-166.91 2460.5,-112 2469.37,-110.35 2478.68,-108.44 2487.83,-106.48"/>
<polygon fill="#63b8ff" stroke="#63b8ff" points="1656.14,-229.49 1646.65,-234.2 1657.01,-236.44 1656.14,-229.49"/>
</a>
</g>
</g>
<!-- Node28 -->
<g id="Node000028" class="node">
<title>Node28</title>
<g id="a_Node000028"><a xlink:href="../../dc/d52/_tree_segmentation_g_u_i_adapter_8cpp.html" target="_top" xlink:title=" ">
<polygon fill="white" stroke="#666666" points="1302.88,-192 1136.12,-192 1136.12,-148 1302.88,-148 1302.88,-192"/>
<text text-anchor="start" x="1144.12" y="-178.5" font-family="Helvetica,sans-Serif" font-size="10.00">C:/GitHub/GEU/GEU/Source</text>
<text text-anchor="start" x="1144.12" y="-166.5" font-family="Helvetica,sans-Serif" font-size="10.00">/Modules/SegmentacionIndiv</text>
<text text-anchor="middle" x="1219.5" y="-154.5" font-family="Helvetica,sans-Serif" font-size="10.00">/TreeSegmentationGUIAdapter.cpp</text>
</a>
</g>
</g>
<!-- Node6&#45;&gt;Node28 -->
<g id="edge31_Node000006_Node000028" class="edge">
<title>Node6&#45;&gt;Node28</title>
<g id="a_edge31_Node000006_Node000028"><a xlink:title=" ">
<path fill="none" stroke="#63b8ff" d="M1492.66,-227.72C1440.93,-217.9 1372.7,-204.65 1312.5,-192 1309.42,-191.35 1306.29,-190.69 1303.13,-190.01"/>
<polygon fill="#63b8ff" stroke="#63b8ff" points="1491.81,-231.12 1502.29,-229.54 1493.11,-224.24 1491.81,-231.12"/>
</a>
</g>
</g>
<!-- Node29 -->
<g id="Node000029" class="node">
<title>Node29</title>
<g id="a_Node000029"><a xlink:href="../../d0/df8/_thermal_g_u_i_adapter_8cpp.html" target="_top" xlink:title=" ">
<polygon fill="white" stroke="#666666" points="2879.38,-186 2679.62,-186 2679.62,-154 2879.38,-154 2879.38,-186"/>
<text text-anchor="start" x="2687.62" y="-172.5" font-family="Helvetica,sans-Serif" font-size="10.00">C:/GitHub/GEU/GEU/Source</text>
<text text-anchor="middle" x="2779.5" y="-160.5" font-family="Helvetica,sans-Serif" font-size="10.00">/Modules/Termica/ThermalGUIAdapter.cpp</text>
</a>
</g>
</g>
<!-- Node6&#45;&gt;Node29 -->
<g id="edge32_Node000006_Node000029" class="edge">
<title>Node6&#45;&gt;Node29</title>
<g id="a_edge32_Node000006_Node000029"><a xlink:title=" ">
<path fill="none" stroke="#63b8ff" d="M1656.49,-232.18C1670.81,-230.58 1685.57,-229.09 1699.5,-228 2127.81,-194.38 2238.45,-239.04 2665.5,-192 2678,-190.62 2691.19,-188.67 2704,-186.5"/>
<polygon fill="#63b8ff" stroke="#63b8ff" points="1656.17,-228.7 1646.64,-233.32 1656.97,-235.65 1656.17,-228.7"/>
</a>
</g>
</g>
<!-- Node30 -->
<g id="Node000030" class="node">
<title>Node30</title>
<g id="a_Node000030"><a xlink:href="../../d3/d62/_database_new_dato_window_8cpp.html" target="_top" xlink:title=" ">
<polygon fill="white" stroke="#666666" points="1485.75,-186 1321.25,-186 1321.25,-154 1485.75,-154 1485.75,-186"/>
<text text-anchor="start" x="1329.25" y="-172.5" font-family="Helvetica,sans-Serif" font-size="10.00">C:/GitHub/GEU/GEU/Source</text>
<text text-anchor="middle" x="1403.5" y="-160.5" font-family="Helvetica,sans-Serif" font-size="10.00">/UI/DatabaseNewDatoWindow.cpp</text>
</a>
</g>
</g>
<!-- Node6&#45;&gt;Node30 -->
<g id="edge33_Node000006_Node000030" class="edge">
<title>Node6&#45;&gt;Node30</title>
<g id="a_edge33_Node000006_Node000030"><a xlink:title=" ">
<path fill="none" stroke="#63b8ff" d="M1527.25,-223.11C1499.74,-211.52 1465.58,-197.14 1440.12,-186.42"/>
<polygon fill="#63b8ff" stroke="#63b8ff" points="1525.85,-226.31 1536.42,-226.97 1528.56,-219.86 1525.85,-226.31"/>
</a>
</g>
</g>
<!-- Node7&#45;&gt;Node3 -->
<g id="edge14_Node000007_Node000003" class="edge">
<title>Node7&#45;&gt;Node3</title>
<g id="a_edge14_Node000007_Node000003"><a xlink:title=" ">
<path fill="none" stroke="#63b8ff" d="M1511.72,-151.08C1505.93,-149.86 1500.13,-148.8 1494.5,-148 910,-64.49 751.9,-188.94 166.5,-112 163.39,-111.59 160.22,-111.12 157.03,-110.59"/>
<polygon fill="#63b8ff" stroke="#63b8ff" points="1510.78,-154.45 1521.31,-153.24 1512.33,-147.62 1510.78,-154.45"/>
</a>
</g>
</g>
<!-- Node8 -->
<g id="Node000008" class="node">
<title>Node8</title>
<g id="a_Node000008"><a xlink:href="../../d3/dee/_input_manager_8cpp.html" target="_top" xlink:title=" ">
<polygon fill="white" stroke="#666666" points="1118.75,-106 978.25,-106 978.25,-74 1118.75,-74 1118.75,-106"/>
<text text-anchor="start" x="986.25" y="-92.5" font-family="Helvetica,sans-Serif" font-size="10.00">C:/GitHub/GEU/GEU/Source</text>
<text text-anchor="middle" x="1048.5" y="-80.5" font-family="Helvetica,sans-Serif" font-size="10.00">/Core/InputManager.cpp</text>
</a>
</g>
</g>
<!-- Node7&#45;&gt;Node8 -->
<g id="edge8_Node000007_Node000008" class="edge">
<title>Node7&#45;&gt;Node8</title>
<g id="a_edge8_Node000007_Node000008"><a xlink:title=" ">
<path fill="none" stroke="#63b8ff" d="M1509.5,-151.02C1504.45,-149.91 1499.4,-148.88 1494.5,-148 1333.61,-119.16 1289.39,-140.84 1128.5,-112 1120.02,-110.48 1111.12,-108.52 1102.46,-106.41"/>
<polygon fill="#63b8ff" stroke="#63b8ff" points="1508.53,-154.39 1519.06,-153.25 1510.12,-147.57 1508.53,-154.39"/>
</a>
</g>
</g>
<!-- Node9 -->
<g id="Node000009" class="node">
<title>Node9</title>
<g id="a_Node000009"><a xlink:href="../../d0/d00/_point_cloud_8cpp.html" target="_top" xlink:title=" ">
<polygon fill="white" stroke="#666666" points="1277.75,-106 1137.25,-106 1137.25,-74 1277.75,-74 1277.75,-106"/>
<text text-anchor="start" x="1145.25" y="-92.5" font-family="Helvetica,sans-Serif" font-size="10.00">C:/GitHub/GEU/GEU/Source</text>
<text text-anchor="middle" x="1207.5" y="-80.5" font-family="Helvetica,sans-Serif" font-size="10.00">/Core/PointCloud.cpp</text>
</a>
</g>
</g>
<!-- Node7&#45;&gt;Node9 -->
<g id="edge9_Node000007_Node000009" class="edge">
<title>Node7&#45;&gt;Node9</title>
<g id="a_edge9_Node000007_Node000009"><a xlink:title=" ">
<path fill="none" stroke="#63b8ff" d="M1507.41,-150.95C1503.05,-149.91 1498.72,-148.92 1494.5,-148 1403.26,-128.13 1378.74,-131.87 1287.5,-112 1279.78,-110.32 1271.69,-108.39 1263.74,-106.4"/>
<polygon fill="#63b8ff" stroke="#63b8ff" points="1506.25,-154.27 1516.79,-153.24 1507.91,-147.47 1506.25,-154.27"/>
</a>
</g>
</g>
<!-- Node10 -->
<g id="Node000010" class="node">
<title>Node10</title>
<g id="a_Node000010"><a xlink:href="../../da/d84/_renderer_8cpp.html" target="_top" xlink:title=" ">
<polygon fill="white" stroke="#666666" points="1436.75,-106 1296.25,-106 1296.25,-74 1436.75,-74 1436.75,-106"/>
<text text-anchor="start" x="1304.25" y="-92.5" font-family="Helvetica,sans-Serif" font-size="10.00">C:/GitHub/GEU/GEU/Source</text>
<text text-anchor="middle" x="1366.5" y="-80.5" font-family="Helvetica,sans-Serif" font-size="10.00">/Core/Renderer.cpp</text>
</a>
</g>
</g>
<!-- Node7&#45;&gt;Node10 -->
<g id="edge10_Node000007_Node000010" class="edge">
<title>Node7&#45;&gt;Node10</title>
<g id="a_edge10_Node000007_Node000010"><a xlink:title=" ">
<path fill="none" stroke="#63b8ff" d="M1522.74,-149.59C1487.15,-136.24 1440.53,-118.76 1407.51,-106.38"/>
<polygon fill="#63b8ff" stroke="#63b8ff" points="1521.4,-152.82 1531.99,-153.06 1523.85,-146.27 1521.4,-152.82"/>
</a>
</g>
</g>
<!-- Node11 -->
<g id="Node000011" class="node">
<title>Node11</title>
<g id="a_Node000011"><a xlink:href="../../de/d42/_window_8h.html" target="_top" xlink:title=" ">
<polygon fill="white" stroke="#666666" points="1595.75,-106 1455.25,-106 1455.25,-74 1595.75,-74 1595.75,-106"/>
<text text-anchor="start" x="1463.25" y="-92.5" font-family="Helvetica,sans-Serif" font-size="10.00">C:/GitHub/GEU/GEU/Source</text>
<text text-anchor="middle" x="1525.5" y="-80.5" font-family="Helvetica,sans-Serif" font-size="10.00">/Core/Window.h</text>
</a>
</g>
</g>
<!-- Node7&#45;&gt;Node11 -->
<g id="edge11_Node000007_Node000011" class="edge">
<title>Node7&#45;&gt;Node11</title>
<g id="a_edge11_Node000007_Node000011"><a xlink:title=" ">
<path fill="none" stroke="#63b8ff" d="M1558.7,-143.86C1550.95,-131.52 1541.87,-117.05 1535.16,-106.38"/>
<polygon fill="#63b8ff" stroke="#63b8ff" points="1555.73,-145.7 1564.01,-152.31 1561.66,-141.98 1555.73,-145.7"/>
</a>
</g>
</g>
<!-- Node13 -->
<g id="Node000013" class="node">
<title>Node13</title>
<g id="a_Node000013"><a xlink:href="../../df/d0a/main_8cpp.html" target="_top" xlink:title=" ">
<polygon fill="white" stroke="#666666" points="1632.75,-32 1492.25,-32 1492.25,0 1632.75,0 1632.75,-32"/>
<text text-anchor="start" x="1500.25" y="-18.5" font-family="Helvetica,sans-Serif" font-size="10.00">C:/GitHub/GEU/GEU/Source</text>
<text text-anchor="middle" x="1562.5" y="-6.5" font-family="Helvetica,sans-Serif" font-size="10.00">/main.cpp</text>
</a>
</g>
</g>
<!-- Node7&#45;&gt;Node13 -->
<g id="edge30_Node000007_Node000013" class="edge">
<title>Node7&#45;&gt;Node13</title>
<g id="a_edge30_Node000007_Node000013"><a xlink:title=" ">
<path fill="none" stroke="#63b8ff" d="M1590.91,-144.19C1596.36,-134.55 1601.74,-123.16 1604.5,-112 1609.19,-93.02 1611.1,-86.41 1604.5,-68 1599.54,-54.18 1589.04,-41.43 1579.78,-32.14"/>
<polygon fill="#63b8ff" stroke="#63b8ff" points="1588.02,-142.19 1585.86,-152.56 1594.02,-145.8 1588.02,-142.19"/>
</a>
</g>
</g>
<!-- Node14 -->
<g id="Node000014" class="node">
<title>Node14</title>
<g id="a_Node000014"><a xlink:href="../../d8/dd0/_multiespectral_g_u_i_adapter_8cpp.html" target="_top" xlink:title=" ">
<polygon fill="white" stroke="#666666" points="323.88,-112 175.12,-112 175.12,-68 323.88,-68 323.88,-112"/>
<text text-anchor="start" x="183.12" y="-98.5" font-family="Helvetica,sans-Serif" font-size="10.00">C:/GitHub/GEU/GEU/Source</text>
<text text-anchor="start" x="183.12" y="-86.5" font-family="Helvetica,sans-Serif" font-size="10.00">/Modules/Multiespectral</text>
<text text-anchor="middle" x="249.5" y="-74.5" font-family="Helvetica,sans-Serif" font-size="10.00">/MultiespectralGUIAdapter.cpp</text>
</a>
</g>
</g>
<!-- Node7&#45;&gt;Node14 -->
<g id="edge15_Node000007_Node000014" class="edge">
<title>Node7&#45;&gt;Node14</title>
<g id="a_edge15_Node000007_Node000014"><a xlink:title=" ">
<path fill="none" stroke="#63b8ff" d="M1511.45,-151.04C1505.75,-149.85 1500.04,-148.8 1494.5,-148 983.58,-73.99 844.84,-183.01 333.5,-112 330.37,-111.57 327.19,-111.06 323.99,-110.5"/>
<polygon fill="#63b8ff" stroke="#63b8ff" points="1510.35,-154.38 1520.87,-153.17 1511.89,-147.55 1510.35,-154.38"/>
</a>
</g>
</g>
<!-- Node15 -->
<g id="Node000015" class="node">
<title>Node15</title>
<g id="a_Node000015"><a xlink:href="../../d2/dd0/_image_cloud_proj_8cpp.html" target="_top" xlink:title=" ">
<polygon fill="white" stroke="#666666" points="1950.75,-112 1810.25,-112 1810.25,-68 1950.75,-68 1950.75,-112"/>
<text text-anchor="start" x="1818.25" y="-98.5" font-family="Helvetica,sans-Serif" font-size="10.00">C:/GitHub/GEU/GEU/Source</text>
<text text-anchor="start" x="1818.25" y="-86.5" font-family="Helvetica,sans-Serif" font-size="10.00">/Modules/Reconstruccion</text>
<text text-anchor="middle" x="1880.5" y="-74.5" font-family="Helvetica,sans-Serif" font-size="10.00">/ImageCloudProj.cpp</text>
</a>
</g>
</g>
<!-- Node7&#45;&gt;Node15 -->
<g id="edge16_Node000007_Node000015" class="edge">
<title>Node7&#45;&gt;Node15</title>
<g id="a_edge16_Node000007_Node000015"><a xlink:title=" ">
<path fill="none" stroke="#63b8ff" d="M1647.37,-150.81C1691.68,-139.7 1749.38,-125.16 1800.5,-112 1803.56,-111.21 1806.68,-110.41 1809.84,-109.59"/>
<polygon fill="#63b8ff" stroke="#63b8ff" points="1646.73,-147.36 1637.88,-153.19 1648.43,-154.15 1646.73,-147.36"/>
</a>
</g>
</g>
<!-- Node16 -->
<g id="Node000016" class="node">
<title>Node16</title>
<g id="a_Node000016"><a xlink:href="../../d5/d7a/_procedural_generator_8cpp.html" target="_top" xlink:title=" ">
<polygon fill="white" stroke="#666666" points="2109.75,-112 1969.25,-112 1969.25,-68 2109.75,-68 2109.75,-112"/>
<text text-anchor="start" x="1977.25" y="-98.5" font-family="Helvetica,sans-Serif" font-size="10.00">C:/GitHub/GEU/GEU/Source</text>
<text text-anchor="start" x="1977.25" y="-86.5" font-family="Helvetica,sans-Serif" font-size="10.00">/Modules/Reconstruccion</text>
<text text-anchor="middle" x="2039.5" y="-74.5" font-family="Helvetica,sans-Serif" font-size="10.00">/ProceduralGenerator.cpp</text>
</a>
</g>
</g>
<!-- Node7&#45;&gt;Node16 -->
<g id="edge17_Node000007_Node000016" class="edge">
<title>Node7&#45;&gt;Node16</title>
<g id="a_edge17_Node000007_Node000016"><a xlink:title=" ">
<path fill="none" stroke="#63b8ff" d="M1656.39,-159.52C1734.64,-149.84 1855.71,-133.24 1959.5,-112 1962.59,-111.37 1965.75,-110.69 1968.93,-109.97"/>
<polygon fill="#63b8ff" stroke="#63b8ff" points="1656.16,-156.02 1646.66,-160.72 1657.01,-162.97 1656.16,-156.02"/>
</a>
</g>
</g>
<!-- Node17 -->
<g id="Node000017" class="node">
<title>Node17</title>
<g id="a_Node000017"><a xlink:href="../../d3/d58/_camera_axis_window_8cpp.html" target="_top" xlink:title=" ">
<polygon fill="white" stroke="#666666" points="2268.75,-106 2128.25,-106 2128.25,-74 2268.75,-74 2268.75,-106"/>
<text text-anchor="start" x="2136.25" y="-92.5" font-family="Helvetica,sans-Serif" font-size="10.00">C:/GitHub/GEU/GEU/Source</text>
<text text-anchor="middle" x="2198.5" y="-80.5" font-family="Helvetica,sans-Serif" font-size="10.00">/UI/CameraAxisWindow.cpp</text>
</a>
</g>
</g>
<!-- Node7&#45;&gt;Node17 -->
<g id="edge18_Node000007_Node000017" class="edge">
<title>Node7&#45;&gt;Node17</title>
<g id="a_edge18_Node000007_Node000017"><a xlink:title=" ">
<path fill="none" stroke="#63b8ff" d="M1656.32,-164.32C1763.25,-157.33 1956.03,-141.66 2118.5,-112 2126.83,-110.48 2135.58,-108.54 2144.1,-106.47"/>
<polygon fill="#63b8ff" stroke="#63b8ff" points="1656.24,-160.82 1646.48,-164.96 1656.69,-167.81 1656.24,-160.82"/>
</a>
</g>
</g>
<!-- Node18 -->
<g id="Node000018" class="node">
<title>Node18</title>
<g id="a_Node000018"><a xlink:href="../../d0/d1c/_debug_window_8cpp.html" target="_top" xlink:title=" ">
<polygon fill="white" stroke="#666666" points="2427.75,-106 2287.25,-106 2287.25,-74 2427.75,-74 2427.75,-106"/>
<text text-anchor="start" x="2295.25" y="-92.5" font-family="Helvetica,sans-Serif" font-size="10.00">C:/GitHub/GEU/GEU/Source</text>
<text text-anchor="middle" x="2357.5" y="-80.5" font-family="Helvetica,sans-Serif" font-size="10.00">/UI/DebugWindow.cpp</text>
</a>
</g>
</g>
<!-- Node7&#45;&gt;Node18 -->
<g id="edge19_Node000007_Node000018" class="edge">
<title>Node7&#45;&gt;Node18</title>
<g id="a_edge19_Node000007_Node000018"><a xlink:title=" ">
<path fill="none" stroke="#63b8ff" d="M1656.27,-167.03C1787.96,-162.81 2054.8,-149.96 2277.5,-112 2286.13,-110.53 2295.2,-108.57 2303.99,-106.43"/>
<polygon fill="#63b8ff" stroke="#63b8ff" points="1656.5,-163.52 1646.62,-167.33 1656.72,-170.51 1656.5,-163.52"/>
</a>
</g>
</g>
<!-- Node19 -->
<g id="Node000019" class="node">
<title>Node19</title>
<g id="a_Node000019"><a xlink:href="../../d1/dfc/_details_window_8h.html" target="_top" xlink:title=" ">
<polygon fill="white" stroke="#666666" points="1791.75,-106 1651.25,-106 1651.25,-74 1791.75,-74 1791.75,-106"/>
<text text-anchor="start" x="1659.25" y="-92.5" font-family="Helvetica,sans-Serif" font-size="10.00">C:/GitHub/GEU/GEU/Source</text>
<text text-anchor="middle" x="1721.5" y="-80.5" font-family="Helvetica,sans-Serif" font-size="10.00">/UI/DetailsWindow.h</text>
</a>
</g>
</g>
<!-- Node7&#45;&gt;Node19 -->
<g id="edge20_Node000007_Node000019" class="edge">
<title>Node7&#45;&gt;Node19</title>
<g id="a_edge20_Node000007_Node000019"><a xlink:title=" ">
<path fill="none" stroke="#63b8ff" d="M1613.71,-148.2C1638.49,-135.04 1669.98,-118.33 1692.52,-106.38"/>
<polygon fill="#63b8ff" stroke="#63b8ff" points="1612.07,-145.1 1604.88,-152.88 1615.35,-151.28 1612.07,-145.1"/>
</a>
</g>
</g>
<!-- Node7&#45;&gt;Node21 -->
<g id="edge24_Node000007_Node000021" class="edge">
<title>Node7&#45;&gt;Node21</title>
<g id="a_edge24_Node000007_Node000021"><a xlink:title=" ">
<path fill="none" stroke="#63b8ff" d="M1656.48,-164.89C1868.94,-154.08 2421.93,-124.77 2436.5,-112 2459.14,-92.15 2459.41,-53.62 2457.52,-32.23"/>
<polygon fill="#63b8ff" stroke="#63b8ff" points="1656.43,-161.39 1646.62,-165.39 1656.78,-168.38 1656.43,-161.39"/>
</a>
</g>
</g>
<!-- Node23 -->
<g id="Node000023" class="node">
<title>Node23</title>
<g id="a_Node000023"><a xlink:href="../../df/da0/_inspector_window_8cpp.html" target="_top" xlink:title=" ">
<polygon fill="white" stroke="#666666" points="482.75,-106 342.25,-106 342.25,-74 482.75,-74 482.75,-106"/>
<text text-anchor="start" x="350.25" y="-92.5" font-family="Helvetica,sans-Serif" font-size="10.00">C:/GitHub/GEU/GEU/Source</text>
<text text-anchor="middle" x="412.5" y="-80.5" font-family="Helvetica,sans-Serif" font-size="10.00">/UI/InspectorWindow.cpp</text>
</a>
</g>
</g>
<!-- Node7&#45;&gt;Node23 -->
<g id="edge25_Node000007_Node000023" class="edge">
<title>Node7&#45;&gt;Node23</title>
<g id="a_edge25_Node000007_Node000023"><a xlink:title=" ">
<path fill="none" stroke="#63b8ff" d="M1511.45,-151.07C1505.75,-149.87 1500.04,-148.82 1494.5,-148 1053.64,-83.03 933.36,-176.97 492.5,-112 483.41,-110.66 473.86,-108.68 464.66,-106.46"/>
<polygon fill="#63b8ff" stroke="#63b8ff" points="1510.34,-154.41 1520.87,-153.21 1511.89,-147.58 1510.34,-154.41"/>
</a>
</g>
</g>
<!-- Node24 -->
<g id="Node000024" class="node">
<title>Node24</title>
<g id="a_Node000024"><a xlink:href="../../dc/d71/_picking_window_8cpp.html" target="_top" xlink:title=" ">
<polygon fill="white" stroke="#666666" points="641.75,-106 501.25,-106 501.25,-74 641.75,-74 641.75,-106"/>
<text text-anchor="start" x="509.25" y="-92.5" font-family="Helvetica,sans-Serif" font-size="10.00">C:/GitHub/GEU/GEU/Source</text>
<text text-anchor="middle" x="571.5" y="-80.5" font-family="Helvetica,sans-Serif" font-size="10.00">/UI/PickingWindow.cpp</text>
</a>
</g>
</g>
<!-- Node7&#45;&gt;Node24 -->
<g id="edge26_Node000007_Node000024" class="edge">
<title>Node7&#45;&gt;Node24</title>
<g id="a_edge26_Node000007_Node000024"><a xlink:title=" ">
<path fill="none" stroke="#63b8ff" d="M1511.44,-151.11C1505.74,-149.9 1500.04,-148.84 1494.5,-148 1123.69,-92.07 1022.31,-167.93 651.5,-112 642.41,-110.63 632.87,-108.63 623.67,-106.41"/>
<polygon fill="#63b8ff" stroke="#63b8ff" points="1510.33,-154.45 1520.86,-153.26 1511.89,-147.63 1510.33,-154.45"/>
</a>
</g>
</g>
<!-- Node25 -->
<g id="Node000025" class="node">
<title>Node25</title>
<g id="a_Node000025"><a xlink:href="../../d5/dbd/_stats_window_8cpp.html" target="_top" xlink:title=" ">
<polygon fill="white" stroke="#666666" points="800.75,-106 660.25,-106 660.25,-74 800.75,-74 800.75,-106"/>
<text text-anchor="start" x="668.25" y="-92.5" font-family="Helvetica,sans-Serif" font-size="10.00">C:/GitHub/GEU/GEU/Source</text>
<text text-anchor="middle" x="730.5" y="-80.5" font-family="Helvetica,sans-Serif" font-size="10.00">/UI/StatsWindow.cpp</text>
</a>
</g>
</g>
<!-- Node7&#45;&gt;Node25 -->
<g id="edge27_Node000007_Node000025" class="edge">
<title>Node7&#45;&gt;Node25</title>
<g id="a_edge27_Node000007_Node000025"><a xlink:title=" ">
<path fill="none" stroke="#63b8ff" d="M1510.73,-151.02C1505.27,-149.86 1499.81,-148.83 1494.5,-148 1193.71,-101.11 1111.29,-158.89 810.5,-112 801.56,-110.61 792.18,-108.63 783.11,-106.43"/>
<polygon fill="#63b8ff" stroke="#63b8ff" points="1509.89,-154.42 1520.42,-153.23 1511.44,-147.6 1509.89,-154.42"/>
</a>
</g>
</g>
<!-- Node7&#45;&gt;Node26 -->
<g id="edge28_Node000007_Node000026" class="edge">
<title>Node7&#45;&gt;Node26</title>
<g id="a_edge28_Node000007_Node000026"><a xlink:title=" ">
<path fill="none" stroke="#63b8ff" d="M1656.43,-165.69C1846.71,-157.68 2314.12,-136.17 2469.5,-112 2478.71,-110.57 2488.38,-108.6 2497.76,-106.43"/>
<polygon fill="#63b8ff" stroke="#63b8ff" points="1656.48,-162.18 1646.63,-166.1 1656.77,-169.18 1656.48,-162.18"/>
</a>
</g>
</g>
<!-- Node27 -->
<g id="Node000027" class="node">
<title>Node27</title>
<g id="a_Node000027"><a xlink:href="../../d3/d93/_file_manager_8cpp.html" target="_top" xlink:title=" ">
<polygon fill="white" stroke="#666666" points="959.75,-106 819.25,-106 819.25,-74 959.75,-74 959.75,-106"/>
<text text-anchor="start" x="827.25" y="-92.5" font-family="Helvetica,sans-Serif" font-size="10.00">C:/GitHub/GEU/GEU/Source</text>
<text text-anchor="middle" x="889.5" y="-80.5" font-family="Helvetica,sans-Serif" font-size="10.00">/Utilities/FileManager.cpp</text>
</a>
</g>
</g>
<!-- Node7&#45;&gt;Node27 -->
<g id="edge29_Node000007_Node000027" class="edge">
<title>Node7&#45;&gt;Node27</title>
<g id="a_edge29_Node000007_Node000027"><a xlink:title=" ">
<path fill="none" stroke="#63b8ff" d="M1510.46,-151.06C1505.09,-149.9 1499.72,-148.86 1494.5,-148 1263.7,-110.14 1200.3,-149.86 969.5,-112 960.71,-110.56 951.49,-108.58 942.56,-106.42"/>
<polygon fill="#63b8ff" stroke="#63b8ff" points="1509.44,-154.42 1519.97,-153.24 1511,-147.59 1509.44,-154.42"/>
</a>
</g>
</g>
<!-- Node12 -->
<g id="Node000012" class="node">
<title>Node12</title>
<g id="a_Node000012"><a xlink:href="../../d3/db8/_window_8cpp.html" target="_top" xlink:title=" ">
<polygon fill="white" stroke="#666666" points="1473.75,-32 1333.25,-32 1333.25,0 1473.75,0 1473.75,-32"/>
<text text-anchor="start" x="1341.25" y="-18.5" font-family="Helvetica,sans-Serif" font-size="10.00">C:/GitHub/GEU/GEU/Source</text>
<text text-anchor="middle" x="1403.5" y="-6.5" font-family="Helvetica,sans-Serif" font-size="10.00">/Core/Window.cpp</text>
</a>
</g>
</g>
<!-- Node11&#45;&gt;Node12 -->
<g id="edge12_Node000011_Node000012" class="edge">
<title>Node11&#45;&gt;Node12</title>
<g id="a_edge12_Node000011_Node000012"><a xlink:title=" ">
<path fill="none" stroke="#63b8ff" d="M1489.42,-67.71C1470.23,-56.38 1447.07,-42.71 1429.63,-32.42"/>
<polygon fill="#63b8ff" stroke="#63b8ff" points="1487.63,-70.72 1498.02,-72.78 1491.19,-64.69 1487.63,-70.72"/>
</a>
</g>
</g>
<!-- Node11&#45;&gt;Node13 -->
<g id="edge13_Node000011_Node000013" class="edge">
<title>Node11&#45;&gt;Node13</title>
<g id="a_edge13_Node000011_Node000013"><a xlink:title=" ">
<path fill="none" stroke="#63b8ff" d="M1538.44,-63.81C1543.85,-53.29 1549.96,-41.41 1554.66,-32.25"/>
<polygon fill="#63b8ff" stroke="#63b8ff" points="1535.5,-61.89 1534.04,-72.38 1541.72,-65.09 1535.5,-61.89"/>
</a>
</g>
</g>
<!-- Node20 -->
<g id="Node000020" class="node">
<title>Node20</title>
<g id="a_Node000020"><a xlink:href="../../df/d72/_details_window_8cpp.html" target="_top" xlink:title=" ">
<polygon fill="white" stroke="#666666" points="1950.75,-32 1810.25,-32 1810.25,0 1950.75,0 1950.75,-32"/>
<text text-anchor="start" x="1818.25" y="-18.5" font-family="Helvetica,sans-Serif" font-size="10.00">C:/GitHub/GEU/GEU/Source</text>
<text text-anchor="middle" x="1880.5" y="-6.5" font-family="Helvetica,sans-Serif" font-size="10.00">/UI/DetailsWindow.cpp</text>
</a>
</g>
</g>
<!-- Node19&#45;&gt;Node20 -->
<g id="edge21_Node000019_Node000020" class="edge">
<title>Node19&#45;&gt;Node20</title>
<g id="a_edge21_Node000019_Node000020"><a xlink:title=" ">
<path fill="none" stroke="#63b8ff" d="M1765.77,-68.95C1791.29,-57.4 1822.88,-43.09 1846.45,-32.42"/>
<polygon fill="#63b8ff" stroke="#63b8ff" points="1764.65,-65.62 1756.99,-72.93 1767.54,-71.99 1764.65,-65.62"/>
</a>
</g>
</g>
<!-- Node19&#45;&gt;Node21 -->
<g id="edge22_Node000019_Node000021" class="edge">
<title>Node19&#45;&gt;Node21</title>
<g id="a_edge22_Node000019_Node000021"><a xlink:title=" ">
<path fill="none" stroke="#63b8ff" d="M1785.81,-71.06C1791.09,-69.91 1796.37,-68.87 1801.5,-68 2011.78,-32.5 2264.34,-21.64 2384.83,-18.38"/>
<polygon fill="#63b8ff" stroke="#63b8ff" points="1785.44,-67.55 1776.48,-73.21 1787.01,-74.37 1785.44,-67.55"/>
</a>
</g>
</g>
<!-- Node22 -->
<g id="Node000022" class="node">
<title>Node22</title>
<g id="a_Node000022"><a xlink:href="../../de/d32/_materials_window_8cpp.html" target="_top" xlink:title=" ">
<polygon fill="white" stroke="#666666" points="1791.75,-32 1651.25,-32 1651.25,0 1791.75,0 1791.75,-32"/>
<text text-anchor="start" x="1659.25" y="-18.5" font-family="Helvetica,sans-Serif" font-size="10.00">C:/GitHub/GEU/GEU/Source</text>
<text text-anchor="middle" x="1721.5" y="-6.5" font-family="Helvetica,sans-Serif" font-size="10.00">/UI/MaterialsWindow.cpp</text>
</a>
</g>
</g>
<!-- Node19&#45;&gt;Node22 -->
<g id="edge23_Node000019_Node000022" class="edge">
<title>Node19&#45;&gt;Node22</title>
<g id="a_edge23_Node000019_Node000022"><a xlink:title=" ">
<path fill="none" stroke="#63b8ff" d="M1721.5,-62.49C1721.5,-52.3 1721.5,-41.03 1721.5,-32.25"/>
<polygon fill="#63b8ff" stroke="#63b8ff" points="1718,-62.22 1721.5,-72.22 1725,-62.22 1718,-62.22"/>
</a>
</g>
</g>
<!-- Node31&#45;&gt;Node4 -->
<g id="edge37_Node000031_Node000004" class="edge">
<title>Node31&#45;&gt;Node4</title>
<g id="a_edge37_Node000031_Node000004"><a xlink:title=" ">
<path fill="none" stroke="#63b8ff" d="M1204.02,-288.28C1214.58,-278.65 1225.94,-268.29 1234.9,-260.13"/>
<polygon fill="#63b8ff" stroke="#63b8ff" points="1201.93,-285.44 1196.89,-294.77 1206.64,-290.62 1201.93,-285.44"/>
</a>
</g>
</g>
<!-- Node31&#45;&gt;Node14 -->
<g id="edge38_Node000031_Node000014" class="edge">
<title>Node31&#45;&gt;Node14</title>
<g id="a_edge38_Node000031_Node000014"><a xlink:title=" ">
<path fill="none" stroke="#63b8ff" d="M1090.79,-295.59C754.09,-210.69 666.92,-194.09 333.5,-112 330.43,-111.25 327.31,-110.47 324.15,-109.69"/>
<polygon fill="#63b8ff" stroke="#63b8ff" points="1089.83,-298.95 1100.38,-298.01 1091.54,-292.17 1089.83,-298.95"/>
</a>
</g>
</g>
<!-- Node32&#45;&gt;Node4 -->
<g id="edge40_Node000032_Node000004" class="edge">
<title>Node32&#45;&gt;Node4</title>
<g id="a_edge40_Node000032_Node000004"><a xlink:title=" ">
<path fill="none" stroke="#63b8ff" d="M1447.11,-298.55C1403.96,-286.74 1348.63,-271.59 1307.83,-260.42"/>
<polygon fill="#63b8ff" stroke="#63b8ff" points="1446.05,-301.89 1456.62,-301.15 1447.9,-295.14 1446.05,-301.89"/>
</a>
</g>
</g>
<!-- Node32&#45;&gt;Node29 -->
<g id="edge41_Node000032_Node000029" class="edge">
<title>Node32&#45;&gt;Node29</title>
<g id="a_edge41_Node000032_Node000029"><a xlink:title=" ">
<path fill="none" stroke="#63b8ff" d="M1597.4,-299.49C1604.52,-298.22 1611.63,-297.03 1618.5,-296 2080.93,-226.52 2202.49,-257.53 2665.5,-192 2676.76,-190.41 2688.6,-188.49 2700.22,-186.48"/>
<polygon fill="#63b8ff" stroke="#63b8ff" points="1596.92,-296.02 1587.71,-301.27 1598.18,-302.9 1596.92,-296.02"/>
</a>
</g>
</g>
</g>
</svg>
