<?xml version="1.0" encoding="UTF-8" standalone="no"?>
<!DOCTYPE svg PUBLIC "-//W3C//DTD SVG 1.1//EN"
 "http://www.w3.org/Graphics/SVG/1.1/DTD/svg11.dtd">
<!-- Generated by graphviz version 10.0.1 (20240210.2158)
 -->
<!-- Title: C:/GitHub/GEU/GEU/Source/Core/Shaders/ComputeShader.h Pages: 1 -->
<svg width="2977pt" height="256pt"
 viewBox="0.00 0.00 2976.50 256.00" xmlns="http://www.w3.org/2000/svg" xmlns:xlink="http://www.w3.org/1999/xlink">
<g id="graph0" class="graph" transform="scale(1 1) rotate(0) translate(4 252)">
<title>C:/GitHub/GEU/GEU/Source/Core/Shaders/ComputeShader.h</title>
<!-- Node1 -->
<g id="Node000001" class="node">
<title>Node1</title>
<g id="a_Node000001"><a xlink:title=" ">
<polygon fill="#999999" stroke="#666666" points="2566.88,-248 2407.62,-248 2407.62,-216 2566.88,-216 2566.88,-248"/>
<text text-anchor="start" x="2415.62" y="-234.5" font-family="Helvetica,sans-Serif" font-size="10.00">C:/GitHub/GEU/GEU/Source</text>
<text text-anchor="middle" x="2487.25" y="-222.5" font-family="Helvetica,sans-Serif" font-size="10.00">/Core/Shaders/ComputeShader.h</text>
</a>
</g>
</g>
<!-- Node2 -->
<g id="Node000002" class="node">
<title>Node2</title>
<g id="a_Node000002"><a xlink:href="../../d0/d02/a00104.html" target="_top" xlink:title=" ">
<polygon fill="white" stroke="#666666" points="2624.5,-106 2484,-106 2484,-74 2624.5,-74 2624.5,-106"/>
<text text-anchor="start" x="2492" y="-92.5" font-family="Helvetica,sans-Serif" font-size="10.00">C:/GitHub/GEU/GEU/Source</text>
<text text-anchor="middle" x="2554.25" y="-80.5" font-family="Helvetica,sans-Serif" font-size="10.00">/Core/Renderer.cpp</text>
</a>
</g>
</g>
<!-- Node1&#45;&gt;Node2 -->
<g id="edge1_Node000001_Node000002" class="edge">
<title>Node1&#45;&gt;Node2</title>
<g id="a_edge1_Node000001_Node000002"><a xlink:title=" ">
<path fill="none" stroke="#63b8ff" d="M2464.43,-207.05C2451.13,-190.07 2438.99,-167.01 2450.25,-148 2461.79,-128.51 2482.62,-115.25 2502.62,-106.46"/>
<polygon fill="#63b8ff" stroke="#63b8ff" points="2461.7,-209.24 2470.82,-214.64 2467.06,-204.73 2461.7,-209.24"/>
</a>
</g>
</g>
<!-- Node3 -->
<g id="Node000003" class="node">
<title>Node3</title>
<g id="a_Node000003"><a xlink:href="../../df/d00/a00107.html" target="_top" xlink:title=" ">
<polygon fill="white" stroke="#666666" points="1474.5,-180 1334,-180 1334,-148 1474.5,-148 1474.5,-180"/>
<text text-anchor="start" x="1342" y="-166.5" font-family="Helvetica,sans-Serif" font-size="10.00">C:/GitHub/GEU/GEU/Source</text>
<text text-anchor="middle" x="1404.25" y="-154.5" font-family="Helvetica,sans-Serif" font-size="10.00">/Core/Renderer.h</text>
</a>
</g>
</g>
<!-- Node1&#45;&gt;Node3 -->
<g id="edge2_Node000001_Node000003" class="edge">
<title>Node1&#45;&gt;Node3</title>
<g id="a_edge2_Node000001_Node000003"><a xlink:title=" ">
<path fill="none" stroke="#63b8ff" d="M2395.81,-225.43C2184.25,-212.53 1664.62,-180.87 1474.99,-169.31"/>
<polygon fill="#63b8ff" stroke="#63b8ff" points="2395.47,-228.91 2405.66,-226.03 2395.9,-221.93 2395.47,-228.91"/>
</a>
</g>
</g>
<!-- Node24 -->
<g id="Node000024" class="node">
<title>Node24</title>
<g id="a_Node000024"><a xlink:href="../../d4/d06/a00116.html" target="_top" xlink:title=" ">
<polygon fill="white" stroke="#666666" points="2629.12,-180 2459.38,-180 2459.38,-148 2629.12,-148 2629.12,-180"/>
<text text-anchor="start" x="2467.38" y="-166.5" font-family="Helvetica,sans-Serif" font-size="10.00">C:/GitHub/GEU/GEU/Source</text>
<text text-anchor="middle" x="2544.25" y="-154.5" font-family="Helvetica,sans-Serif" font-size="10.00">/Core/Shaders/ComputeShader.cpp</text>
</a>
</g>
</g>
<!-- Node1&#45;&gt;Node24 -->
<g id="edge26_Node000001_Node000024" class="edge">
<title>Node1&#45;&gt;Node24</title>
<g id="a_edge26_Node000001_Node000024"><a xlink:title=" ">
<path fill="none" stroke="#63b8ff" d="M2507.85,-207.15C2515.6,-198.17 2524.21,-188.21 2531.1,-180.22"/>
<polygon fill="#63b8ff" stroke="#63b8ff" points="2505.35,-204.69 2501.46,-214.55 2510.64,-209.27 2505.35,-204.69"/>
</a>
</g>
</g>
<!-- Node25 -->
<g id="Node000025" class="node">
<title>Node25</title>
<g id="a_Node000025"><a xlink:href="../../de/d06/a00134.html" target="_top" xlink:title=" ">
<polygon fill="white" stroke="#666666" points="2805.12,-180 2647.38,-180 2647.38,-148 2805.12,-148 2805.12,-180"/>
<text text-anchor="start" x="2655.38" y="-166.5" font-family="Helvetica,sans-Serif" font-size="10.00">C:/GitHub/GEU/GEU/Source</text>
<text text-anchor="middle" x="2726.25" y="-154.5" font-family="Helvetica,sans-Serif" font-size="10.00">/Core/Shaders/ShaderManager.h</text>
</a>
</g>
</g>
<!-- Node1&#45;&gt;Node25 -->
<g id="edge27_Node000001_Node000025" class="edge">
<title>Node1&#45;&gt;Node25</title>
<g id="a_edge27_Node000001_Node000025"><a xlink:title=" ">
<path fill="none" stroke="#63b8ff" d="M2554.34,-212.47C2590.85,-202.39 2635.51,-190.06 2670.15,-180.49"/>
<polygon fill="#63b8ff" stroke="#63b8ff" points="2553.45,-209.09 2544.74,-215.12 2555.31,-215.83 2553.45,-209.09"/>
</a>
</g>
</g>
<!-- Node3&#45;&gt;Node2 -->
<g id="edge5_Node000003_Node000002" class="edge">
<title>Node3&#45;&gt;Node2</title>
<g id="a_edge5_Node000003_Node000002"><a xlink:title=" ">
<path fill="none" stroke="#63b8ff" d="M1486.18,-161.31C1702.26,-156.5 2284.06,-141.17 2474.25,-112 2483.19,-110.63 2492.58,-108.66 2501.65,-106.47"/>
<polygon fill="#63b8ff" stroke="#63b8ff" points="1486.37,-157.81 1476.45,-161.53 1486.52,-164.8 1486.37,-157.81"/>
</a>
</g>
</g>
<!-- Node4 -->
<g id="Node000004" class="node">
<title>Node4</title>
<g id="a_Node000004"><a xlink:href="../../d8/d01/a00038.html" target="_top" xlink:title=" ">
<polygon fill="white" stroke="#666666" points="2465.5,-106 2325,-106 2325,-74 2465.5,-74 2465.5,-106"/>
<text text-anchor="start" x="2333" y="-92.5" font-family="Helvetica,sans-Serif" font-size="10.00">C:/GitHub/GEU/GEU/Source</text>
<text text-anchor="middle" x="2395.25" y="-80.5" font-family="Helvetica,sans-Serif" font-size="10.00">/Core/InputManager.cpp</text>
</a>
</g>
</g>
<!-- Node3&#45;&gt;Node4 -->
<g id="edge3_Node000003_Node000004" class="edge">
<title>Node3&#45;&gt;Node4</title>
<g id="a_edge3_Node000003_Node000004"><a xlink:title=" ">
<path fill="none" stroke="#63b8ff" d="M1485.93,-163.9C1646.08,-164.45 2012.12,-159.77 2315.25,-112 2324.19,-110.59 2333.57,-108.6 2342.64,-106.41"/>
<polygon fill="#63b8ff" stroke="#63b8ff" points="1486.29,-160.4 1476.28,-163.85 1486.26,-167.4 1486.29,-160.4"/>
</a>
</g>
</g>
<!-- Node5 -->
<g id="Node000005" class="node">
<title>Node5</title>
<g id="a_Node000005"><a xlink:href="../../d1/d04/a00098.html" target="_top" xlink:title=" ">
<polygon fill="white" stroke="#666666" points="140.5,-106 0,-106 0,-74 140.5,-74 140.5,-106"/>
<text text-anchor="start" x="8" y="-92.5" font-family="Helvetica,sans-Serif" font-size="10.00">C:/GitHub/GEU/GEU/Source</text>
<text text-anchor="middle" x="70.25" y="-80.5" font-family="Helvetica,sans-Serif" font-size="10.00">/Core/PointCloud.cpp</text>
</a>
</g>
</g>
<!-- Node3&#45;&gt;Node5 -->
<g id="edge4_Node000003_Node000005" class="edge">
<title>Node3&#45;&gt;Node5</title>
<g id="a_edge4_Node000003_Node000005"><a xlink:title=" ">
<path fill="none" stroke="#63b8ff" d="M1322.43,-161.98C1081.53,-158.61 377.5,-146.04 150.25,-112 141.16,-110.64 131.62,-108.65 122.41,-106.42"/>
<polygon fill="#63b8ff" stroke="#63b8ff" points="1322.33,-165.48 1332.38,-162.12 1322.43,-158.48 1322.33,-165.48"/>
</a>
</g>
</g>
<!-- Node6 -->
<g id="Node000006" class="node">
<title>Node6</title>
<g id="a_Node000006"><a xlink:href="../../d5/d03/a00170.html" target="_top" xlink:title=" ">
<polygon fill="white" stroke="#666666" points="299.5,-106 159,-106 159,-74 299.5,-74 299.5,-106"/>
<text text-anchor="start" x="167" y="-92.5" font-family="Helvetica,sans-Serif" font-size="10.00">C:/GitHub/GEU/GEU/Source</text>
<text text-anchor="middle" x="229.25" y="-80.5" font-family="Helvetica,sans-Serif" font-size="10.00">/Core/Window.h</text>
</a>
</g>
</g>
<!-- Node3&#45;&gt;Node6 -->
<g id="edge6_Node000003_Node000006" class="edge">
<title>Node3&#45;&gt;Node6</title>
<g id="a_edge6_Node000003_Node000006"><a xlink:title=" ">
<path fill="none" stroke="#63b8ff" d="M1322.3,-161.27C1103.28,-156.33 507.81,-140.58 313.25,-112 303.88,-110.62 294.04,-108.65 284.52,-106.46"/>
<polygon fill="#63b8ff" stroke="#63b8ff" points="1322.1,-164.77 1332.17,-161.5 1322.26,-157.77 1322.1,-164.77"/>
</a>
</g>
</g>
<!-- Node8 -->
<g id="Node000008" class="node">
<title>Node8</title>
<g id="a_Node000008"><a xlink:href="../../d3/d01/a00200.html" target="_top" xlink:title=" ">
<polygon fill="white" stroke="#666666" points="397.5,-32 257,-32 257,0 397.5,0 397.5,-32"/>
<text text-anchor="start" x="265" y="-18.5" font-family="Helvetica,sans-Serif" font-size="10.00">C:/GitHub/GEU/GEU/Source</text>
<text text-anchor="middle" x="327.25" y="-6.5" font-family="Helvetica,sans-Serif" font-size="10.00">/main.cpp</text>
</a>
</g>
</g>
<!-- Node3&#45;&gt;Node8 -->
<g id="edge25_Node000003_Node000008" class="edge">
<title>Node3&#45;&gt;Node8</title>
<g id="a_edge25_Node000003_Node000008"><a xlink:title=" ">
<path fill="none" stroke="#63b8ff" d="M1322.44,-161.78C1080.51,-157.82 383.08,-143.7 346.25,-112 323.43,-92.36 323.24,-53.74 325.18,-32.28"/>
<polygon fill="#63b8ff" stroke="#63b8ff" points="1322.04,-165.28 1332.09,-161.94 1322.15,-158.28 1322.04,-165.28"/>
</a>
</g>
</g>
<!-- Node9 -->
<g id="Node000009" class="node">
<title>Node9</title>
<g id="a_Node000009"><a xlink:href="../../de/d01/a00203.html" target="_top" xlink:title=" ">
<polygon fill="white" stroke="#666666" points="512.75,-112 355.75,-112 355.75,-68 512.75,-68 512.75,-112"/>
<text text-anchor="start" x="363.75" y="-98.5" font-family="Helvetica,sans-Serif" font-size="10.00">C:/GitHub/GEU/GEU/Source</text>
<text text-anchor="start" x="363.75" y="-86.5" font-family="Helvetica,sans-Serif" font-size="10.00">/Modules/ComparacionNormales</text>
<text text-anchor="middle" x="434.25" y="-74.5" font-family="Helvetica,sans-Serif" font-size="10.00">/NormalesGUIAdapter.cpp</text>
</a>
</g>
</g>
<!-- Node3&#45;&gt;Node9 -->
<g id="edge9_Node000003_Node000009" class="edge">
<title>Node3&#45;&gt;Node9</title>
<g id="a_edge9_Node000003_Node000009"><a xlink:title=" ">
<path fill="none" stroke="#63b8ff" d="M1322.13,-163.07C1165.64,-162.14 814.27,-154.94 522.25,-112 519.14,-111.54 515.98,-111.03 512.8,-110.47"/>
<polygon fill="#63b8ff" stroke="#63b8ff" points="1321.98,-166.57 1331.99,-163.12 1322.01,-159.57 1321.98,-166.57"/>
</a>
</g>
</g>
<!-- Node10 -->
<g id="Node000010" class="node">
<title>Node10</title>
<g id="a_Node000010"><a xlink:href="../../d9/d01/a00227.html" target="_top" xlink:title=" ">
<polygon fill="white" stroke="#666666" points="679.62,-112 530.88,-112 530.88,-68 679.62,-68 679.62,-112"/>
<text text-anchor="start" x="538.88" y="-98.5" font-family="Helvetica,sans-Serif" font-size="10.00">C:/GitHub/GEU/GEU/Source</text>
<text text-anchor="start" x="538.88" y="-86.5" font-family="Helvetica,sans-Serif" font-size="10.00">/Modules/Multiespectral</text>
<text text-anchor="middle" x="605.25" y="-74.5" font-family="Helvetica,sans-Serif" font-size="10.00">/MultiespectralGUIAdapter.cpp</text>
</a>
</g>
</g>
<!-- Node3&#45;&gt;Node10 -->
<g id="edge10_Node000003_Node000010" class="edge">
<title>Node3&#45;&gt;Node10</title>
<g id="a_edge10_Node000003_Node000010"><a xlink:title=" ">
<path fill="none" stroke="#63b8ff" d="M1322.19,-161.77C1188.71,-158.74 916.59,-148.24 689.25,-112 686.13,-111.5 682.96,-110.95 679.77,-110.34"/>
<polygon fill="#63b8ff" stroke="#63b8ff" points="1321.92,-165.27 1331.99,-161.98 1322.07,-158.27 1321.92,-165.27"/>
</a>
</g>
</g>
<!-- Node11 -->
<g id="Node000011" class="node">
<title>Node11</title>
<g id="a_Node000011"><a xlink:href="../../d6/d02/a00245.html" target="_top" xlink:title=" ">
<polygon fill="white" stroke="#666666" points="838.5,-112 698,-112 698,-68 838.5,-68 838.5,-112"/>
<text text-anchor="start" x="706" y="-98.5" font-family="Helvetica,sans-Serif" font-size="10.00">C:/GitHub/GEU/GEU/Source</text>
<text text-anchor="start" x="706" y="-86.5" font-family="Helvetica,sans-Serif" font-size="10.00">/Modules/Reconstruccion</text>
<text text-anchor="middle" x="768.25" y="-74.5" font-family="Helvetica,sans-Serif" font-size="10.00">/ImageCloudProj.cpp</text>
</a>
</g>
</g>
<!-- Node3&#45;&gt;Node11 -->
<g id="edge11_Node000003_Node000011" class="edge">
<title>Node3&#45;&gt;Node11</title>
<g id="a_edge11_Node000003_Node000011"><a xlink:title=" ">
<path fill="none" stroke="#63b8ff" d="M1322.31,-159.72C1213.37,-154.4 1015.14,-141.35 848.25,-112 845.14,-111.45 841.97,-110.84 838.78,-110.19"/>
<polygon fill="#63b8ff" stroke="#63b8ff" points="1321.87,-163.2 1332.03,-160.19 1322.21,-156.21 1321.87,-163.2"/>
</a>
</g>
</g>
<!-- Node12 -->
<g id="Node000012" class="node">
<title>Node12</title>
<g id="a_Node000012"><a xlink:href="../../d3/d02/a00251.html" target="_top" xlink:title=" ">
<polygon fill="white" stroke="#666666" points="997.5,-112 857,-112 857,-68 997.5,-68 997.5,-112"/>
<text text-anchor="start" x="865" y="-98.5" font-family="Helvetica,sans-Serif" font-size="10.00">C:/GitHub/GEU/GEU/Source</text>
<text text-anchor="start" x="865" y="-86.5" font-family="Helvetica,sans-Serif" font-size="10.00">/Modules/Reconstruccion</text>
<text text-anchor="middle" x="927.25" y="-74.5" font-family="Helvetica,sans-Serif" font-size="10.00">/ProceduralGenerator.cpp</text>
</a>
</g>
</g>
<!-- Node3&#45;&gt;Node12 -->
<g id="edge12_Node000003_Node000012" class="edge">
<title>Node3&#45;&gt;Node12</title>
<g id="a_edge12_Node000003_Node000012"><a xlink:title=" ">
<path fill="none" stroke="#63b8ff" d="M1322.47,-155.61C1241.85,-147.59 1115.39,-133.05 1007.25,-112 1004.15,-111.4 1000.99,-110.74 997.81,-110.05"/>
<polygon fill="#63b8ff" stroke="#63b8ff" points="1321.73,-159.05 1332.03,-156.55 1322.42,-152.08 1321.73,-159.05"/>
</a>
</g>
</g>
<!-- Node13 -->
<g id="Node000013" class="node">
<title>Node13</title>
<g id="a_Node000013"><a xlink:href="../../dd/d02/a00320.html" target="_top" xlink:title=" ">
<polygon fill="white" stroke="#666666" points="1156.5,-106 1016,-106 1016,-74 1156.5,-74 1156.5,-106"/>
<text text-anchor="start" x="1024" y="-92.5" font-family="Helvetica,sans-Serif" font-size="10.00">C:/GitHub/GEU/GEU/Source</text>
<text text-anchor="middle" x="1086.25" y="-80.5" font-family="Helvetica,sans-Serif" font-size="10.00">/UI/CameraAxisWindow.cpp</text>
</a>
</g>
</g>
<!-- Node3&#45;&gt;Node13 -->
<g id="edge13_Node000003_Node000013" class="edge">
<title>Node3&#45;&gt;Node13</title>
<g id="a_edge13_Node000003_Node000013"><a xlink:title=" ">
<path fill="none" stroke="#63b8ff" d="M1322.39,-146.42C1276.39,-136.86 1217.99,-124.33 1166.25,-112 1158.99,-110.27 1151.37,-108.38 1143.85,-106.46"/>
<polygon fill="#63b8ff" stroke="#63b8ff" points="1321.52,-149.81 1332.02,-148.41 1322.94,-142.96 1321.52,-149.81"/>
</a>
</g>
</g>
<!-- Node14 -->
<g id="Node000014" class="node">
<title>Node14</title>
<g id="a_Node000014"><a xlink:href="../../db/d00/a00350.html" target="_top" xlink:title=" ">
<polygon fill="white" stroke="#666666" points="1315.5,-106 1175,-106 1175,-74 1315.5,-74 1315.5,-106"/>
<text text-anchor="start" x="1183" y="-92.5" font-family="Helvetica,sans-Serif" font-size="10.00">C:/GitHub/GEU/GEU/Source</text>
<text text-anchor="middle" x="1245.25" y="-80.5" font-family="Helvetica,sans-Serif" font-size="10.00">/UI/DebugWindow.cpp</text>
</a>
</g>
</g>
<!-- Node3&#45;&gt;Node14 -->
<g id="edge14_Node000003_Node000014" class="edge">
<title>Node3&#45;&gt;Node14</title>
<g id="a_edge14_Node000003_Node000014"><a xlink:title=" ">
<path fill="none" stroke="#63b8ff" d="M1359.98,-142.95C1334.46,-131.4 1302.87,-117.09 1279.3,-106.42"/>
<polygon fill="#63b8ff" stroke="#63b8ff" points="1358.21,-145.99 1368.76,-146.93 1361.1,-139.62 1358.21,-145.99"/>
</a>
</g>
</g>
<!-- Node15 -->
<g id="Node000015" class="node">
<title>Node15</title>
<g id="a_Node000015"><a xlink:href="../../d4/d07/a00359.html" target="_top" xlink:title=" ">
<polygon fill="white" stroke="#666666" points="1474.5,-106 1334,-106 1334,-74 1474.5,-74 1474.5,-106"/>
<text text-anchor="start" x="1342" y="-92.5" font-family="Helvetica,sans-Serif" font-size="10.00">C:/GitHub/GEU/GEU/Source</text>
<text text-anchor="middle" x="1404.25" y="-80.5" font-family="Helvetica,sans-Serif" font-size="10.00">/UI/DetailsWindow.h</text>
</a>
</g>
</g>
<!-- Node3&#45;&gt;Node15 -->
<g id="edge15_Node000003_Node000015" class="edge">
<title>Node3&#45;&gt;Node15</title>
<g id="a_edge15_Node000003_Node000015"><a xlink:title=" ">
<path fill="none" stroke="#63b8ff" d="M1404.25,-136.49C1404.25,-126.3 1404.25,-115.03 1404.25,-106.25"/>
<polygon fill="#63b8ff" stroke="#63b8ff" points="1400.75,-136.22 1404.25,-146.22 1407.75,-136.22 1400.75,-136.22"/>
</a>
</g>
</g>
<!-- Node17 -->
<g id="Node000017" class="node">
<title>Node17</title>
<g id="a_Node000017"><a xlink:href="../../dd/d05/a00365.html" target="_top" xlink:title=" ">
<polygon fill="white" stroke="#666666" points="1602.5,-32 1462,-32 1462,0 1602.5,0 1602.5,-32"/>
<text text-anchor="start" x="1470" y="-18.5" font-family="Helvetica,sans-Serif" font-size="10.00">C:/GitHub/GEU/GEU/Source</text>
<text text-anchor="middle" x="1532.25" y="-6.5" font-family="Helvetica,sans-Serif" font-size="10.00">/UI/GUI.cpp</text>
</a>
</g>
</g>
<!-- Node3&#45;&gt;Node17 -->
<g id="edge19_Node000003_Node000017" class="edge">
<title>Node3&#45;&gt;Node17</title>
<g id="a_edge19_Node000003_Node000017"><a xlink:title=" ">
<path fill="none" stroke="#63b8ff" d="M1445.74,-141.84C1458.86,-133.77 1472.67,-123.66 1483.25,-112 1505.07,-87.95 1519.96,-52.39 1527.19,-32.29"/>
<polygon fill="#63b8ff" stroke="#63b8ff" points="1444.07,-138.77 1437.22,-146.85 1447.61,-144.8 1444.07,-138.77"/>
</a>
</g>
</g>
<!-- Node19 -->
<g id="Node000019" class="node">
<title>Node19</title>
<g id="a_Node000019"><a xlink:href="../../d8/d05/a00380.html" target="_top" xlink:title=" ">
<polygon fill="white" stroke="#666666" points="1670.5,-106 1530,-106 1530,-74 1670.5,-74 1670.5,-106"/>
<text text-anchor="start" x="1538" y="-92.5" font-family="Helvetica,sans-Serif" font-size="10.00">C:/GitHub/GEU/GEU/Source</text>
<text text-anchor="middle" x="1600.25" y="-80.5" font-family="Helvetica,sans-Serif" font-size="10.00">/UI/InspectorWindow.cpp</text>
</a>
</g>
</g>
<!-- Node3&#45;&gt;Node19 -->
<g id="edge20_Node000003_Node000019" class="edge">
<title>Node3&#45;&gt;Node19</title>
<g id="a_edge20_Node000003_Node000019"><a xlink:title=" ">
<path fill="none" stroke="#63b8ff" d="M1456.74,-143.72C1488.55,-132.03 1528.58,-117.33 1558.27,-106.42"/>
<polygon fill="#63b8ff" stroke="#63b8ff" points="1455.9,-140.3 1447.72,-147.03 1458.31,-146.87 1455.9,-140.3"/>
</a>
</g>
</g>
<!-- Node20 -->
<g id="Node000020" class="node">
<title>Node20</title>
<g id="a_Node000020"><a xlink:href="../../d8/d01/a00410.html" target="_top" xlink:title=" ">
<polygon fill="white" stroke="#666666" points="1829.5,-106 1689,-106 1689,-74 1829.5,-74 1829.5,-106"/>
<text text-anchor="start" x="1697" y="-92.5" font-family="Helvetica,sans-Serif" font-size="10.00">C:/GitHub/GEU/GEU/Source</text>
<text text-anchor="middle" x="1759.25" y="-80.5" font-family="Helvetica,sans-Serif" font-size="10.00">/UI/PickingWindow.cpp</text>
</a>
</g>
</g>
<!-- Node3&#45;&gt;Node20 -->
<g id="edge21_Node000003_Node000020" class="edge">
<title>Node3&#45;&gt;Node20</title>
<g id="a_edge21_Node000003_Node000020"><a xlink:title=" ">
<path fill="none" stroke="#63b8ff" d="M1485.96,-149.46C1540.83,-139.98 1614.64,-126.45 1679.25,-112 1686.82,-110.31 1694.75,-108.39 1702.56,-106.43"/>
<polygon fill="#63b8ff" stroke="#63b8ff" points="1485.66,-145.96 1476.39,-151.11 1486.84,-152.86 1485.66,-145.96"/>
</a>
</g>
</g>
<!-- Node21 -->
<g id="Node000021" class="node">
<title>Node21</title>
<g id="a_Node000021"><a xlink:href="../../db/d03/a00422.html" target="_top" xlink:title=" ">
<polygon fill="white" stroke="#666666" points="1988.5,-106 1848,-106 1848,-74 1988.5,-74 1988.5,-106"/>
<text text-anchor="start" x="1856" y="-92.5" font-family="Helvetica,sans-Serif" font-size="10.00">C:/GitHub/GEU/GEU/Source</text>
<text text-anchor="middle" x="1918.25" y="-80.5" font-family="Helvetica,sans-Serif" font-size="10.00">/UI/StatsWindow.cpp</text>
</a>
</g>
</g>
<!-- Node3&#45;&gt;Node21 -->
<g id="edge22_Node000003_Node000021" class="edge">
<title>Node3&#45;&gt;Node21</title>
<g id="a_edge22_Node000003_Node000021"><a xlink:title=" ">
<path fill="none" stroke="#63b8ff" d="M1486.46,-156.78C1574.13,-149.35 1716.79,-134.96 1838.25,-112 1846.43,-110.45 1855.02,-108.53 1863.39,-106.48"/>
<polygon fill="#63b8ff" stroke="#63b8ff" points="1486.17,-153.3 1476.5,-157.62 1486.76,-160.27 1486.17,-153.3"/>
</a>
</g>
</g>
<!-- Node22 -->
<g id="Node000022" class="node">
<title>Node22</title>
<g id="a_Node000022"><a xlink:href="../../d4/d03/a00428.html" target="_top" xlink:title=" ">
<polygon fill="white" stroke="#666666" points="2147.5,-106 2007,-106 2007,-74 2147.5,-74 2147.5,-106"/>
<text text-anchor="start" x="2015" y="-92.5" font-family="Helvetica,sans-Serif" font-size="10.00">C:/GitHub/GEU/GEU/Source</text>
<text text-anchor="middle" x="2077.25" y="-80.5" font-family="Helvetica,sans-Serif" font-size="10.00">/Utilities/AutoUpdater.cpp</text>
</a>
</g>
</g>
<!-- Node3&#45;&gt;Node22 -->
<g id="edge23_Node000003_Node000022" class="edge">
<title>Node3&#45;&gt;Node22</title>
<g id="a_edge23_Node000003_Node000022"><a xlink:title=" ">
<path fill="none" stroke="#63b8ff" d="M1486.06,-160.38C1600.97,-155.71 1816.37,-143.28 1997.25,-112 2005.74,-110.53 2014.64,-108.6 2023.3,-106.5"/>
<polygon fill="#63b8ff" stroke="#63b8ff" points="1485.95,-156.88 1476.09,-160.78 1486.23,-163.88 1485.95,-156.88"/>
</a>
</g>
</g>
<!-- Node23 -->
<g id="Node000023" class="node">
<title>Node23</title>
<g id="a_Node000023"><a xlink:href="../../da/d05/a00458.html" target="_top" xlink:title=" ">
<polygon fill="white" stroke="#666666" points="2306.5,-106 2166,-106 2166,-74 2306.5,-74 2306.5,-106"/>
<text text-anchor="start" x="2174" y="-92.5" font-family="Helvetica,sans-Serif" font-size="10.00">C:/GitHub/GEU/GEU/Source</text>
<text text-anchor="middle" x="2236.25" y="-80.5" font-family="Helvetica,sans-Serif" font-size="10.00">/Utilities/FileManager.cpp</text>
</a>
</g>
</g>
<!-- Node3&#45;&gt;Node23 -->
<g id="edge24_Node000003_Node000023" class="edge">
<title>Node3&#45;&gt;Node23</title>
<g id="a_edge24_Node000003_Node000023"><a xlink:title=" ">
<path fill="none" stroke="#63b8ff" d="M1486.35,-162.49C1625.22,-160.5 1914.93,-151.49 2156.25,-112 2165.04,-110.56 2174.26,-108.59 2183.19,-106.42"/>
<polygon fill="#63b8ff" stroke="#63b8ff" points="1486.46,-158.99 1476.51,-162.62 1486.56,-165.99 1486.46,-158.99"/>
</a>
</g>
</g>
<!-- Node7 -->
<g id="Node000007" class="node">
<title>Node7</title>
<g id="a_Node000007"><a xlink:href="../../dc/d06/a00167.html" target="_top" xlink:title=" ">
<polygon fill="white" stroke="#666666" points="238.5,-32 98,-32 98,0 238.5,0 238.5,-32"/>
<text text-anchor="start" x="106" y="-18.5" font-family="Helvetica,sans-Serif" font-size="10.00">C:/GitHub/GEU/GEU/Source</text>
<text text-anchor="middle" x="168.25" y="-6.5" font-family="Helvetica,sans-Serif" font-size="10.00">/Core/Window.cpp</text>
</a>
</g>
</g>
<!-- Node6&#45;&gt;Node7 -->
<g id="edge7_Node000006_Node000007" class="edge">
<title>Node6&#45;&gt;Node7</title>
<g id="a_edge7_Node000006_Node000007"><a xlink:title=" ">
<path fill="none" stroke="#63b8ff" d="M209.02,-65.12C199.84,-54.28 189.25,-41.79 181.17,-32.25"/>
<polygon fill="#63b8ff" stroke="#63b8ff" points="206.2,-67.21 215.34,-72.58 211.54,-62.68 206.2,-67.21"/>
</a>
</g>
</g>
<!-- Node6&#45;&gt;Node8 -->
<g id="edge8_Node000006_Node000008" class="edge">
<title>Node6&#45;&gt;Node8</title>
<g id="a_edge8_Node000006_Node000008"><a xlink:title=" ">
<path fill="none" stroke="#63b8ff" d="M259.06,-67.1C274.27,-55.92 292.41,-42.59 306.16,-32.5"/>
<polygon fill="#63b8ff" stroke="#63b8ff" points="257.24,-64.09 251.25,-72.83 261.38,-69.73 257.24,-64.09"/>
</a>
</g>
</g>
<!-- Node16 -->
<g id="Node000016" class="node">
<title>Node16</title>
<g id="a_Node000016"><a xlink:href="../../d6/d01/a00356.html" target="_top" xlink:title=" ">
<polygon fill="white" stroke="#666666" points="1443.5,-32 1303,-32 1303,0 1443.5,0 1443.5,-32"/>
<text text-anchor="start" x="1311" y="-18.5" font-family="Helvetica,sans-Serif" font-size="10.00">C:/GitHub/GEU/GEU/Source</text>
<text text-anchor="middle" x="1373.25" y="-6.5" font-family="Helvetica,sans-Serif" font-size="10.00">/UI/DetailsWindow.cpp</text>
</a>
</g>
</g>
<!-- Node15&#45;&gt;Node16 -->
<g id="edge16_Node000015_Node000016" class="edge">
<title>Node15&#45;&gt;Node16</title>
<g id="a_edge16_Node000015_Node000016"><a xlink:title=" ">
<path fill="none" stroke="#63b8ff" d="M1393.26,-63.48C1388.77,-53.04 1383.72,-41.31 1379.81,-32.25"/>
<polygon fill="#63b8ff" stroke="#63b8ff" points="1389.91,-64.54 1397.08,-72.34 1396.34,-61.77 1389.91,-64.54"/>
</a>
</g>
</g>
<!-- Node15&#45;&gt;Node17 -->
<g id="edge17_Node000015_Node000017" class="edge">
<title>Node15&#45;&gt;Node17</title>
<g id="a_edge17_Node000015_Node000017"><a xlink:title=" ">
<path fill="none" stroke="#63b8ff" d="M1441.55,-68.02C1461.79,-56.64 1486.37,-42.81 1504.84,-32.42"/>
<polygon fill="#63b8ff" stroke="#63b8ff" points="1440.03,-64.86 1433.03,-72.81 1443.46,-70.96 1440.03,-64.86"/>
</a>
</g>
</g>
<!-- Node18 -->
<g id="Node000018" class="node">
<title>Node18</title>
<g id="a_Node000018"><a xlink:href="../../d7/d00/a00401.html" target="_top" xlink:title=" ">
<polygon fill="white" stroke="#666666" points="1284.5,-32 1144,-32 1144,0 1284.5,0 1284.5,-32"/>
<text text-anchor="start" x="1152" y="-18.5" font-family="Helvetica,sans-Serif" font-size="10.00">C:/GitHub/GEU/GEU/Source</text>
<text text-anchor="middle" x="1214.25" y="-6.5" font-family="Helvetica,sans-Serif" font-size="10.00">/UI/MaterialsWindow.cpp</text>
</a>
</g>
</g>
<!-- Node15&#45;&gt;Node18 -->
<g id="edge18_Node000015_Node000018" class="edge">
<title>Node15&#45;&gt;Node18</title>
<g id="a_edge18_Node000015_Node000018"><a xlink:title=" ">
<path fill="none" stroke="#63b8ff" d="M1352.96,-69.56C1322.19,-57.91 1283.6,-43.28 1254.94,-32.42"/>
<polygon fill="#63b8ff" stroke="#63b8ff" points="1351.48,-72.75 1362.07,-73.02 1353.96,-66.2 1351.48,-72.75"/>
</a>
</g>
</g>
<!-- Node25&#45;&gt;Node2 -->
<g id="edge28_Node000025_Node000002" class="edge">
<title>Node25&#45;&gt;Node2</title>
<g id="a_edge28_Node000025_Node000002"><a xlink:title=" ">
<path fill="none" stroke="#63b8ff" d="M2679.09,-143.26C2651.36,-131.65 2616.81,-117.19 2591.09,-106.42"/>
<polygon fill="#63b8ff" stroke="#63b8ff" points="2677.38,-146.34 2687.96,-146.97 2680.08,-139.88 2677.38,-146.34"/>
</a>
</g>
</g>
<!-- Node26 -->
<g id="Node000026" class="node">
<title>Node26</title>
<g id="a_Node000026"><a xlink:href="../../d7/d06/a00131.html" target="_top" xlink:title=" ">
<polygon fill="white" stroke="#666666" points="2810.38,-106 2642.12,-106 2642.12,-74 2810.38,-74 2810.38,-106"/>
<text text-anchor="start" x="2650.12" y="-92.5" font-family="Helvetica,sans-Serif" font-size="10.00">C:/GitHub/GEU/GEU/Source</text>
<text text-anchor="middle" x="2726.25" y="-80.5" font-family="Helvetica,sans-Serif" font-size="10.00">/Core/Shaders/ShaderManager.cpp</text>
</a>
</g>
</g>
<!-- Node25&#45;&gt;Node26 -->
<g id="edge29_Node000025_Node000026" class="edge">
<title>Node25&#45;&gt;Node26</title>
<g id="a_edge29_Node000025_Node000026"><a xlink:title=" ">
<path fill="none" stroke="#63b8ff" d="M2726.25,-136.49C2726.25,-126.3 2726.25,-115.03 2726.25,-106.25"/>
<polygon fill="#63b8ff" stroke="#63b8ff" points="2722.75,-136.22 2726.25,-146.22 2729.75,-136.22 2722.75,-136.22"/>
</a>
</g>
</g>
<!-- Node27 -->
<g id="Node000027" class="node">
<title>Node27</title>
<g id="a_Node000027"><a xlink:href="../../d3/d00/a00155.html" target="_top" xlink:title=" ">
<polygon fill="white" stroke="#666666" points="2968.5,-106 2828,-106 2828,-74 2968.5,-74 2968.5,-106"/>
<text text-anchor="start" x="2836" y="-92.5" font-family="Helvetica,sans-Serif" font-size="10.00">C:/GitHub/GEU/GEU/Source</text>
<text text-anchor="middle" x="2898.25" y="-80.5" font-family="Helvetica,sans-Serif" font-size="10.00">/Core/TriangleMesh.cpp</text>
</a>
</g>
</g>
<!-- Node25&#45;&gt;Node27 -->
<g id="edge30_Node000025_Node000027" class="edge">
<title>Node25&#45;&gt;Node27</title>
<g id="a_edge30_Node000025_Node000027"><a xlink:title=" ">
<path fill="none" stroke="#63b8ff" d="M2773.41,-143.26C2801.14,-131.65 2835.69,-117.19 2861.41,-106.42"/>
<polygon fill="#63b8ff" stroke="#63b8ff" points="2772.42,-139.88 2764.54,-146.97 2775.12,-146.34 2772.42,-139.88"/>
</a>
</g>
</g>
</g>
</svg>
