<?xml version="1.0" encoding="UTF-8" standalone="no"?>
<!DOCTYPE svg PUBLIC "-//W3C//DTD SVG 1.1//EN"
 "http://www.w3.org/Graphics/SVG/1.1/DTD/svg11.dtd">
<!-- Generated by graphviz version 10.0.1 (20240210.2158)
 -->
<!-- Title: GEU::VAO::Point::getRGBVec4 Pages: 1 -->
<svg width="735pt" height="140pt"
 viewBox="0.00 0.00 735.00 140.00" xmlns="http://www.w3.org/2000/svg" xmlns:xlink="http://www.w3.org/1999/xlink">
<g id="graph0" class="graph" transform="scale(1 1) rotate(0) translate(4 136)">
<title>GEU::VAO::Point::getRGBVec4</title>
<!-- Node1 -->
<g id="Node000001" class="node">
<title>Node1</title>
<g id="a_Node000001"><a xlink:title=" ">
<polygon fill="#999999" stroke="#666666" points="727,-76 571.5,-76 571.5,-56 727,-56 727,-76"/>
<text text-anchor="middle" x="649.25" y="-62.5" font-family="Helvetica,sans-Serif" font-size="10.00">GEU::VAO::Point::getRGBVec4</text>
</a>
</g>
</g>
<!-- Node2 -->
<g id="Node000002" class="node">
<title>Node2</title>
<g id="a_Node000002"><a xlink:href="../../d0/d01/class_g_e_u_1_1pcl_conversor.html#adc2f8b28918ebe56bfdc1bc9cad8b16f" target="_top" xlink:title=" ">
<polygon fill="white" stroke="#666666" points="519.38,-129 396.12,-129 396.12,-97 519.38,-97 519.38,-129"/>
<text text-anchor="start" x="404.12" y="-115.5" font-family="Helvetica,sans-Serif" font-size="10.00">GEU::pclConversor::</text>
<text text-anchor="middle" x="457.75" y="-103.5" font-family="Helvetica,sans-Serif" font-size="10.00">convertToPCLPointCloud</text>
</a>
</g>
</g>
<!-- Node1&#45;&gt;Node2 -->
<g id="edge1_Node000001_Node000002" class="edge">
<title>Node1&#45;&gt;Node2</title>
<g id="a_edge1_Node000001_Node000002"><a xlink:title=" ">
<path fill="none" stroke="#63b8ff" d="M595.07,-79.19C571.65,-85 544,-91.86 519.75,-97.87"/>
<polygon fill="#63b8ff" stroke="#63b8ff" points="595.86,-82.6 604.72,-76.8 594.18,-75.81 595.86,-82.6"/>
</a>
</g>
</g>
<!-- Node5 -->
<g id="Node000005" class="node">
<title>Node5</title>
<g id="a_Node000005"><a xlink:href="../../d8/d02/struct_g_e_u_1_1_v_a_o_1_1_point.html#a46afe38741009cb8a18c1701b174e91f" target="_top" xlink:title=" ">
<polygon fill="white" stroke="#666666" points="535.5,-76 380,-76 380,-56 535.5,-56 535.5,-76"/>
<text text-anchor="middle" x="457.75" y="-62.5" font-family="Helvetica,sans-Serif" font-size="10.00">GEU::VAO::Point::getRGBVec3</text>
</a>
</g>
</g>
<!-- Node1&#45;&gt;Node5 -->
<g id="edge4_Node000001_Node000005" class="edge">
<title>Node1&#45;&gt;Node5</title>
<g id="a_edge4_Node000001_Node000005"><a xlink:title=" ">
<path fill="none" stroke="#63b8ff" d="M559.86,-66C551.81,-66 543.7,-66 535.76,-66"/>
<polygon fill="#63b8ff" stroke="#63b8ff" points="559.66,-69.5 569.66,-66 559.66,-62.5 559.66,-69.5"/>
</a>
</g>
</g>
<!-- Node7 -->
<g id="Node000007" class="node">
<title>Node7</title>
<g id="a_Node000007"><a xlink:href="../../dd/d01/class_g_e_u_1_1_file_manager.html#a5207794330ae3a16542e22120c985aac" target="_top" xlink:title=" ">
<polygon fill="white" stroke="#666666" points="529.88,-35 385.62,-35 385.62,-3 529.88,-3 529.88,-35"/>
<text text-anchor="start" x="393.62" y="-21.5" font-family="Helvetica,sans-Serif" font-size="10.00">GEU::FileManager::savePoint</text>
<text text-anchor="middle" x="457.75" y="-9.5" font-family="Helvetica,sans-Serif" font-size="10.00">Cloud</text>
</a>
</g>
</g>
<!-- Node1&#45;&gt;Node7 -->
<g id="edge6_Node000001_Node000007" class="edge">
<title>Node1&#45;&gt;Node7</title>
<g id="a_edge6_Node000001_Node000007"><a xlink:title=" ">
<path fill="none" stroke="#63b8ff" d="M595.21,-52.85C573.51,-47.46 548.17,-41.18 525.25,-35.49"/>
<polygon fill="#63b8ff" stroke="#63b8ff" points="594.18,-56.19 604.72,-55.2 595.86,-49.4 594.18,-56.19"/>
</a>
</g>
</g>
<!-- Node3 -->
<g id="Node000003" class="node">
<title>Node3</title>
<g id="a_Node000003"><a xlink:href="../../de/d02/class_g_e_u_1_1_multiespectral_g_u_i_adapter.html#afafb062e54a135be4bc20d2eaee39862" target="_top" xlink:title=" ">
<polygon fill="white" stroke="#666666" points="344,-132 190,-132 190,-100 344,-100 344,-132"/>
<text text-anchor="start" x="198" y="-118.5" font-family="Helvetica,sans-Serif" font-size="10.00">GEU::MultiespectralGUIAdapter</text>
<text text-anchor="middle" x="267" y="-106.5" font-family="Helvetica,sans-Serif" font-size="10.00">::mapping</text>
</a>
</g>
</g>
<!-- Node2&#45;&gt;Node3 -->
<g id="edge2_Node000002_Node000003" class="edge">
<title>Node2&#45;&gt;Node3</title>
<g id="a_edge2_Node000002_Node000003"><a xlink:title=" ">
<path fill="none" stroke="#63b8ff" d="M384.39,-114.15C371.28,-114.36 357.58,-114.58 344.36,-114.79"/>
<polygon fill="#63b8ff" stroke="#63b8ff" points="384.27,-117.65 394.22,-113.99 384.16,-110.65 384.27,-117.65"/>
</a>
</g>
</g>
<!-- Node4 -->
<g id="Node000004" class="node">
<title>Node4</title>
<g id="a_Node000004"><a xlink:href="../../de/d02/class_g_e_u_1_1_multiespectral_g_u_i_adapter.html#a30cdb8738563252a05b2da154c3f864d" target="_top" xlink:title="Custom module GUI window contents.">
<polygon fill="white" stroke="#666666" points="154,-132 0,-132 0,-100 154,-100 154,-132"/>
<text text-anchor="start" x="8" y="-118.5" font-family="Helvetica,sans-Serif" font-size="10.00">GEU::MultiespectralGUIAdapter</text>
<text text-anchor="middle" x="77" y="-106.5" font-family="Helvetica,sans-Serif" font-size="10.00">::renderGuiObject</text>
</a>
</g>
</g>
<!-- Node3&#45;&gt;Node4 -->
<g id="edge3_Node000003_Node000004" class="edge">
<title>Node3&#45;&gt;Node4</title>
<g id="a_edge3_Node000003_Node000004"><a xlink:title=" ">
<path fill="none" stroke="#63b8ff" d="M178.03,-116C170.14,-116 162.18,-116 154.4,-116"/>
<polygon fill="#63b8ff" stroke="#63b8ff" points="178.02,-119.5 188.02,-116 178.02,-112.5 178.02,-119.5"/>
</a>
</g>
</g>
<!-- Node6 -->
<g id="Node000006" class="node">
<title>Node6</title>
<g id="a_Node000006"><a xlink:href="../../dc/d01/class_g_e_u_1_1_image_cloud_proj.html#a1931d245c0168a9e7866bc8dd7904a07" target="_top" xlink:title=" ">
<polygon fill="white" stroke="#666666" points="324.88,-82 209.12,-82 209.12,-50 324.88,-50 324.88,-82"/>
<text text-anchor="start" x="217.12" y="-68.5" font-family="Helvetica,sans-Serif" font-size="10.00">GEU::ImageCloudProj</text>
<text text-anchor="middle" x="267" y="-56.5" font-family="Helvetica,sans-Serif" font-size="10.00">::applyVegetationMask</text>
</a>
</g>
</g>
<!-- Node5&#45;&gt;Node6 -->
<g id="edge5_Node000005_Node000006" class="edge">
<title>Node5&#45;&gt;Node6</title>
<g id="a_edge5_Node000005_Node000006"><a xlink:title=" ">
<path fill="none" stroke="#63b8ff" d="M368.5,-66C353.76,-66 338.83,-66 325.14,-66"/>
<polygon fill="#63b8ff" stroke="#63b8ff" points="368.19,-69.5 378.19,-66 368.19,-62.5 368.19,-69.5"/>
</a>
</g>
</g>
<!-- Node8 -->
<g id="Node000008" class="node">
<title>Node8</title>
<g id="a_Node000008"><a xlink:href="../../db/d00/class_g_e_u_1_1_details_window.html#a696b110218746e301559da2c93e6cd60" target="_top" xlink:title="Renders inspector details for point cloud items.">
<polygon fill="white" stroke="#666666" points="335,-32 199,-32 199,0 335,0 335,-32"/>
<text text-anchor="start" x="207" y="-18.5" font-family="Helvetica,sans-Serif" font-size="10.00">GEU::DetailsWindow</text>
<text text-anchor="middle" x="267" y="-6.5" font-family="Helvetica,sans-Serif" font-size="10.00">::makePCloudItemInspector</text>
</a>
</g>
</g>
<!-- Node7&#45;&gt;Node8 -->
<g id="edge7_Node000007_Node000008" class="edge">
<title>Node7&#45;&gt;Node8</title>
<g id="a_edge7_Node000007_Node000008"><a xlink:title=" ">
<path fill="none" stroke="#63b8ff" d="M374.12,-17.69C361.19,-17.48 347.95,-17.27 335.41,-17.07"/>
<polygon fill="#63b8ff" stroke="#63b8ff" points="373.82,-21.18 383.88,-17.84 373.94,-14.18 373.82,-21.18"/>
</a>
</g>
</g>
<!-- Node9 -->
<g id="Node000009" class="node">
<title>Node9</title>
<g id="a_Node000009"><a xlink:href="../../db/d00/class_g_e_u_1_1_details_window.html#a6666ec761cc5cd8a57220823b8e7daa6" target="_top" xlink:title="Renders the window and contents.">
<polygon fill="white" stroke="#666666" points="130.75,-32 23.25,-32 23.25,0 130.75,0 130.75,-32"/>
<text text-anchor="start" x="31.25" y="-18.5" font-family="Helvetica,sans-Serif" font-size="10.00">GEU::DetailsWindow</text>
<text text-anchor="middle" x="77" y="-6.5" font-family="Helvetica,sans-Serif" font-size="10.00">::renderWindow</text>
</a>
</g>
</g>
<!-- Node8&#45;&gt;Node9 -->
<g id="edge8_Node000008_Node000009" class="edge">
<title>Node8&#45;&gt;Node9</title>
<g id="a_edge8_Node000008_Node000009"><a xlink:title=" ">
<path fill="none" stroke="#63b8ff" d="M187.3,-16C168.33,-16 148.5,-16 131.02,-16"/>
<polygon fill="#63b8ff" stroke="#63b8ff" points="187.15,-19.5 197.15,-16 187.15,-12.5 187.15,-19.5"/>
</a>
</g>
</g>
</g>
</svg>
