<?xml version="1.0" encoding="UTF-8" standalone="no"?>
<!DOCTYPE svg PUBLIC "-//W3C//DTD SVG 1.1//EN"
 "http://www.w3.org/Graphics/SVG/1.1/DTD/svg11.dtd">
<!-- Generated by graphviz version 10.0.1 (20240210.2158)
 -->
<!-- Title: GEU::DatabaseNewDatoWindow Pages: 1 -->
<svg width="931pt" height="477pt"
 viewBox="0.00 0.00 930.75 477.00" xmlns="http://www.w3.org/2000/svg" xmlns:xlink="http://www.w3.org/1999/xlink">
<g id="graph0" class="graph" transform="scale(1 1) rotate(0) translate(4 473)">
<title>GEU::DatabaseNewDatoWindow</title>
<!-- Node1 -->
<g id="Node000001" class="node">
<title>Node1</title>
<g id="a_Node000001"><a xlink:title=" ">
<polygon fill="#999999" stroke="#666666" points="922.75,-324 765,-324 765,-304 922.75,-304 922.75,-324"/>
<text text-anchor="middle" x="843.88" y="-310.5" font-family="Helvetica,sans-Serif" font-size="10.00">GEU::DatabaseNewDatoWindow</text>
</a>
</g>
</g>
<!-- Node2 -->
<g id="Node000002" class="node">
<title>Node2</title>
<g id="a_Node000002"><a xlink:href="../../d4/d01/a01797.html" target="_top" xlink:title="ImGUI window interface adapter class.">
<polygon fill="white" stroke="#666666" points="567.12,-444 465.62,-444 465.62,-424 567.12,-424 567.12,-444"/>
<text text-anchor="middle" x="516.38" y="-430.5" font-family="Helvetica,sans-Serif" font-size="10.00">GEU::I_GUIWindow</text>
</a>
</g>
</g>
<!-- Node2&#45;&gt;Node1 -->
<g id="edge1_Node000001_Node000002" class="edge">
<title>Node2&#45;&gt;Node1</title>
<g id="a_edge1_Node000001_Node000002"><a xlink:title=" ">
<path fill="none" stroke="#63b8ff" d="M570.76,-420.65C602.12,-412.31 642.34,-400.75 677.25,-388 730.65,-368.5 791.08,-339.71 822.09,-324.43"/>
<polygon fill="#63b8ff" stroke="#63b8ff" points="569.88,-417.26 561.1,-423.19 571.66,-424.03 569.88,-417.26"/>
</a>
</g>
</g>
<!-- Node3 -->
<g id="Node000003" class="node">
<title>Node3</title>
<g id="a_Node000003"><a xlink:title=" ">
<polygon fill="white" stroke="#666666" points="190.5,-278 131,-278 131,-258 190.5,-258 190.5,-278"/>
<text text-anchor="middle" x="160.75" y="-264.5" font-family="Helvetica,sans-Serif" font-size="10.00">std::string</text>
</a>
</g>
</g>
<!-- Node3&#45;&gt;Node2 -->
<g id="edge2_Node000002_Node000003" class="edge">
<title>Node3&#45;&gt;Node2</title>
<g id="a_edge2_Node000002_Node000003"><a xlink:title=" ">
<path fill="none" stroke="#9a32cd" stroke-dasharray="5,2" d="M161.04,-289.19C161.17,-323.62 167.07,-391.06 208.5,-423 288.93,-485.02 419.59,-460.83 481.18,-444.39"/>
<polygon fill="#9a32cd" stroke="#9a32cd" points="164.53,-289.69 161.17,-279.64 157.53,-289.59 164.53,-289.69"/>
</a>
</g>
<text text-anchor="middle" x="248.62" y="-459.5" font-family="Helvetica,sans-Serif" font-size="10.00" fill="grey"> _windowID</text>
</g>
<!-- Node5 -->
<g id="Node000005" class="node">
<title>Node5</title>
<g id="a_Node000005"><a xlink:href="../../de/d01/a01857.html" target="_top" xlink:title=" ">
<polygon fill="white" stroke="#666666" points="558.5,-400 474.25,-400 474.25,-380 558.5,-380 558.5,-400"/>
<text text-anchor="middle" x="516.38" y="-386.5" font-family="Helvetica,sans-Serif" font-size="10.00">Database::Zona</text>
</a>
</g>
</g>
<!-- Node3&#45;&gt;Node5 -->
<g id="edge5_Node000005_Node000003" class="edge">
<title>Node3&#45;&gt;Node5</title>
<g id="a_edge5_Node000005_Node000003"><a xlink:title=" ">
<path fill="none" stroke="#9a32cd" stroke-dasharray="5,2" d="M174.47,-287.7C183.12,-300.15 195.35,-316.09 208.5,-328 246.77,-362.66 257.15,-375.66 306.75,-390 362.94,-406.25 431.27,-402 474.05,-396.64"/>
<polygon fill="#9a32cd" stroke="#9a32cd" points="177.43,-285.83 168.95,-279.48 171.62,-289.73 177.43,-285.83"/>
</a>
</g>
<text text-anchor="middle" x="248.62" y="-409.5" font-family="Helvetica,sans-Serif" font-size="10.00" fill="grey"> SELECT_QUERY</text>
<text text-anchor="middle" x="248.62" y="-397.5" font-family="Helvetica,sans-Serif" font-size="10.00" fill="grey">descripcion</text>
<text text-anchor="middle" x="248.62" y="-385.5" font-family="Helvetica,sans-Serif" font-size="10.00" fill="grey">ubicacion</text>
</g>
<!-- Node6 -->
<g id="Node000006" class="node">
<title>Node6</title>
<g id="a_Node000006"><a xlink:href="../../db/d03/a01853.html" target="_top" xlink:title=" ">
<polygon fill="white" stroke="#666666" points="677.25,-324 589.25,-324 589.25,-304 677.25,-304 677.25,-324"/>
<text text-anchor="middle" x="633.25" y="-310.5" font-family="Helvetica,sans-Serif" font-size="10.00">Database::Vuelo</text>
</a>
</g>
</g>
<!-- Node3&#45;&gt;Node6 -->
<g id="edge7_Node000006_Node000003" class="edge">
<title>Node3&#45;&gt;Node6</title>
<g id="a_edge7_Node000006_Node000003"><a xlink:title=" ">
<path fill="none" stroke="#9a32cd" stroke-dasharray="5,2" d="M184.36,-284.61C191.7,-289.15 200.12,-293.49 208.5,-296 244.17,-306.69 487.97,-311.72 588.77,-313.37"/>
<polygon fill="#9a32cd" stroke="#9a32cd" points="186.33,-281.73 176.07,-279.1 182.46,-287.55 186.33,-281.73"/>
</a>
</g>
<text text-anchor="middle" x="375.12" y="-372.5" font-family="Helvetica,sans-Serif" font-size="10.00" fill="grey"> SELECT_QUERY</text>
<text text-anchor="middle" x="375.12" y="-360.5" font-family="Helvetica,sans-Serif" font-size="10.00" fill="grey">emailPersonal</text>
<text text-anchor="middle" x="375.12" y="-348.5" font-family="Helvetica,sans-Serif" font-size="10.00" fill="grey">horaFin</text>
<text text-anchor="middle" x="375.12" y="-336.5" font-family="Helvetica,sans-Serif" font-size="10.00" fill="grey">horaInicio</text>
<text text-anchor="middle" x="375.12" y="-324.5" font-family="Helvetica,sans-Serif" font-size="10.00" fill="grey">incidencias</text>
<text text-anchor="middle" x="375.12" y="-312.5" font-family="Helvetica,sans-Serif" font-size="10.00" fill="grey">ubicacion</text>
</g>
<!-- Node7 -->
<g id="Node000007" class="node">
<title>Node7</title>
<g id="a_Node000007"><a xlink:title=" ">
<polygon fill="white" stroke="#666666" points="571.25,-285 461.5,-285 461.5,-253 571.25,-253 571.25,-285"/>
<text text-anchor="start" x="469.5" y="-271.5" font-family="Helvetica,sans-Serif" font-size="10.00">std::map&lt; std::string,</text>
<text text-anchor="middle" x="516.38" y="-259.5" font-family="Helvetica,sans-Serif" font-size="10.00"> std::string &gt;</text>
</a>
</g>
</g>
<!-- Node3&#45;&gt;Node7 -->
<g id="edge9_Node000007_Node000003" class="edge">
<title>Node3&#45;&gt;Node7</title>
<g id="a_edge9_Node000007_Node000003"><a xlink:title=" ">
<path fill="none" stroke="#9a32cd" stroke-dasharray="5,2" d="M202.16,-268.12C265.85,-268.3 389.66,-268.65 461.07,-268.85"/>
<polygon fill="#9a32cd" stroke="#9a32cd" points="202.51,-264.62 192.5,-268.09 202.49,-271.62 202.51,-264.62"/>
</a>
</g>
<text text-anchor="middle" x="248.62" y="-282.5" font-family="Helvetica,sans-Serif" font-size="10.00" fill="grey"> elements</text>
<text text-anchor="middle" x="248.62" y="-270.5" font-family="Helvetica,sans-Serif" font-size="10.00" fill="grey">keys</text>
</g>
<!-- Node8 -->
<g id="Node000008" class="node">
<title>Node8</title>
<g id="a_Node000008"><a xlink:href="../../d2/d03/a01841.html" target="_top" xlink:title=" ">
<polygon fill="white" stroke="#666666" points="675,-190 591.5,-190 591.5,-170 675,-170 675,-190"/>
<text text-anchor="middle" x="633.25" y="-176.5" font-family="Helvetica,sans-Serif" font-size="10.00">Database::Dato</text>
</a>
</g>
</g>
<!-- Node3&#45;&gt;Node8 -->
<g id="edge11_Node000008_Node000003" class="edge">
<title>Node3&#45;&gt;Node8</title>
<g id="a_edge11_Node000008_Node000003"><a xlink:title=" ">
<path fill="none" stroke="#9a32cd" stroke-dasharray="5,2" d="M169.18,-246.76C185.81,-202.97 230.65,-103.57 306.75,-65 423.56,-5.8 578.1,-131.44 620.86,-169.51"/>
<polygon fill="#9a32cd" stroke="#9a32cd" points="165.91,-245.52 165.76,-256.11 172.48,-247.93 165.91,-245.52"/>
</a>
</g>
<text text-anchor="middle" x="375.12" y="-151.5" font-family="Helvetica,sans-Serif" font-size="10.00" fill="grey"> SELECT_QUERY</text>
<text text-anchor="middle" x="375.12" y="-139.5" font-family="Helvetica,sans-Serif" font-size="10.00" fill="grey">descripcion</text>
<text text-anchor="middle" x="375.12" y="-127.5" font-family="Helvetica,sans-Serif" font-size="10.00" fill="grey">distintivo</text>
<text text-anchor="middle" x="375.12" y="-115.5" font-family="Helvetica,sans-Serif" font-size="10.00" fill="grey">nombre</text>
<text text-anchor="middle" x="375.12" y="-103.5" font-family="Helvetica,sans-Serif" font-size="10.00" fill="grey">rutaNAS</text>
<text text-anchor="middle" x="375.12" y="-91.5" font-family="Helvetica,sans-Serif" font-size="10.00" fill="grey">software</text>
<text text-anchor="middle" x="375.12" y="-79.5" font-family="Helvetica,sans-Serif" font-size="10.00" fill="grey">tipo</text>
<text text-anchor="middle" x="375.12" y="-67.5" font-family="Helvetica,sans-Serif" font-size="10.00" fill="grey">ubicacion</text>
</g>
<!-- Node9 -->
<g id="Node000009" class="node">
<title>Node9</title>
<g id="a_Node000009"><a xlink:title=" ">
<polygon fill="white" stroke="#666666" points="440.12,-20 310.12,-20 310.12,0 440.12,0 440.12,-20"/>
<text text-anchor="middle" x="375.12" y="-6.5" font-family="Helvetica,sans-Serif" font-size="10.00">std::array&lt; std::string, 4 &gt;</text>
</a>
</g>
</g>
<!-- Node3&#45;&gt;Node9 -->
<g id="edge13_Node000009_Node000003" class="edge">
<title>Node3&#45;&gt;Node9</title>
<g id="a_edge13_Node000009_Node000003"><a xlink:title=" ">
<path fill="none" stroke="#9a32cd" stroke-dasharray="5,2" d="M162.85,-246.28C166.01,-193.23 177,-59.26 208.5,-30 235.13,-5.27 275.46,0.02 309.65,-1.01"/>
<polygon fill="#9a32cd" stroke="#9a32cd" points="159.36,-245.96 162.3,-256.14 166.35,-246.35 159.36,-245.96"/>
</a>
</g>
<text text-anchor="middle" x="248.62" y="-32.5" font-family="Helvetica,sans-Serif" font-size="10.00" fill="grey"> elements</text>
</g>
<!-- Node10 -->
<g id="Node000010" class="node">
<title>Node10</title>
<g id="a_Node000010"><a xlink:title=" ">
<polygon fill="white" stroke="#666666" points="440.12,-190 310.12,-190 310.12,-170 440.12,-170 440.12,-190"/>
<text text-anchor="middle" x="375.12" y="-176.5" font-family="Helvetica,sans-Serif" font-size="10.00">std::array&lt; std::string, 8 &gt;</text>
</a>
</g>
</g>
<!-- Node3&#45;&gt;Node10 -->
<g id="edge15_Node000010_Node000003" class="edge">
<title>Node3&#45;&gt;Node10</title>
<g id="a_edge15_Node000010_Node000003"><a xlink:title=" ">
<path fill="none" stroke="#9a32cd" stroke-dasharray="5,2" d="M182.82,-250.7C190.58,-244.88 199.64,-238.68 208.5,-234 246.75,-213.82 293.95,-199.34 328.16,-190.48"/>
<polygon fill="#9a32cd" stroke="#9a32cd" points="180.73,-247.89 175,-256.81 185.04,-253.41 180.73,-247.89"/>
</a>
</g>
<text text-anchor="middle" x="248.62" y="-236.5" font-family="Helvetica,sans-Serif" font-size="10.00" fill="grey"> elements</text>
</g>
<!-- Node4 -->
<g id="Node000004" class="node">
<title>Node4</title>
<g id="a_Node000004"><a xlink:title=" ">
<polygon fill="white" stroke="#666666" points="94,-284 0,-284 0,-252 94,-252 94,-284"/>
<text text-anchor="start" x="8" y="-270.5" font-family="Helvetica,sans-Serif" font-size="10.00">std::basic_string&lt;</text>
<text text-anchor="middle" x="47" y="-258.5" font-family="Helvetica,sans-Serif" font-size="10.00"> Char &gt;</text>
</a>
</g>
</g>
<!-- Node4&#45;&gt;Node3 -->
<g id="edge3_Node000003_Node000004" class="edge">
<title>Node4&#45;&gt;Node3</title>
<g id="a_edge3_Node000003_Node000004"><a xlink:title=" ">
<path fill="none" stroke="#63b8ff" d="M105.71,-268C114.32,-268 122.87,-268 130.55,-268"/>
<polygon fill="#63b8ff" stroke="#63b8ff" points="105.93,-264.5 95.93,-268 105.93,-271.5 105.93,-264.5"/>
</a>
</g>
</g>
<!-- Node5&#45;&gt;Node1 -->
<g id="edge4_Node000001_Node000005" class="edge">
<title>Node5&#45;&gt;Node1</title>
<g id="a_edge4_Node000001_Node000005"><a xlink:title=" ">
<path fill="none" stroke="#9a32cd" stroke-dasharray="5,2" d="M569.85,-377.75C633.08,-362.99 738.25,-338.43 797.92,-324.5"/>
<polygon fill="#9a32cd" stroke="#9a32cd" points="569.35,-374.27 560.4,-379.96 570.94,-381.09 569.35,-374.27"/>
</a>
</g>
<text text-anchor="middle" x="633.25" y="-374.5" font-family="Helvetica,sans-Serif" font-size="10.00" fill="grey"> _datoZona</text>
</g>
<!-- Node6&#45;&gt;Node1 -->
<g id="edge6_Node000001_Node000006" class="edge">
<title>Node6&#45;&gt;Node1</title>
<g id="a_edge6_Node000001_Node000006"><a xlink:title=" ">
<path fill="none" stroke="#9a32cd" stroke-dasharray="5,2" d="M689.08,-314C712.25,-314 739.66,-314 764.88,-314"/>
<polygon fill="#9a32cd" stroke="#9a32cd" points="689.24,-310.5 679.24,-314 689.24,-317.5 689.24,-310.5"/>
</a>
</g>
<text text-anchor="middle" x="721.12" y="-316.5" font-family="Helvetica,sans-Serif" font-size="10.00" fill="grey"> _datoVuelo</text>
</g>
<!-- Node7&#45;&gt;Node1 -->
<g id="edge8_Node000001_Node000007" class="edge">
<title>Node7&#45;&gt;Node1</title>
<g id="a_edge8_Node000001_Node000007"><a xlink:title=" ">
<path fill="none" stroke="#9a32cd" stroke-dasharray="5,2" d="M582.78,-273.28C611.8,-275.55 646.3,-278.76 677.25,-283 716.67,-288.4 760.95,-296.82 793.8,-303.51"/>
<polygon fill="#9a32cd" stroke="#9a32cd" points="583.29,-269.81 573.05,-272.54 582.76,-276.79 583.29,-269.81"/>
</a>
</g>
<text text-anchor="middle" x="633.25" y="-285.5" font-family="Helvetica,sans-Serif" font-size="10.00" fill="grey"> _files</text>
</g>
<!-- Node8&#45;&gt;Node1 -->
<g id="edge10_Node000001_Node000008" class="edge">
<title>Node8&#45;&gt;Node1</title>
<g id="a_edge10_Node000001_Node000008"><a xlink:title=" ">
<path fill="none" stroke="#9a32cd" stroke-dasharray="5,2" d="M663.61,-195.86C686.65,-208.56 719.35,-227.15 747,-245 777.32,-264.58 811.27,-289.85 829.52,-303.74"/>
<polygon fill="#9a32cd" stroke="#9a32cd" points="665.53,-192.93 655.08,-191.19 662.17,-199.07 665.53,-192.93"/>
</a>
</g>
<text text-anchor="middle" x="721.12" y="-247.5" font-family="Helvetica,sans-Serif" font-size="10.00" fill="grey"> _newDato</text>
</g>
<!-- Node9&#45;&gt;Node8 -->
<g id="edge12_Node000008_Node000009" class="edge">
<title>Node9&#45;&gt;Node8</title>
<g id="a_edge12_Node000008_Node000009"><a xlink:title=" ">
<path fill="none" stroke="#9a32cd" stroke-dasharray="5,2" d="M451.95,-0.25C491.14,0.75 537.65,-4.81 571.25,-30 618.03,-65.08 629.06,-142.18 631.55,-169.86"/>
<polygon fill="#9a32cd" stroke="#9a32cd" points="451.94,3.25 442.1,-0.66 452.23,-3.74 451.94,3.25"/>
</a>
</g>
<text text-anchor="middle" x="516.38" y="-32.5" font-family="Helvetica,sans-Serif" font-size="10.00" fill="grey"> DISTINTIVOS</text>
</g>
<!-- Node10&#45;&gt;Node8 -->
<g id="edge14_Node000008_Node000010" class="edge">
<title>Node10&#45;&gt;Node8</title>
<g id="a_edge14_Node000008_Node000010"><a xlink:title=" ">
<path fill="none" stroke="#9a32cd" stroke-dasharray="5,2" d="M451.77,-180C497.38,-180 553.7,-180 591.18,-180"/>
<polygon fill="#9a32cd" stroke="#9a32cd" points="451.94,-176.5 441.94,-180 451.94,-183.5 451.94,-176.5"/>
</a>
</g>
<text text-anchor="middle" x="516.38" y="-182.5" font-family="Helvetica,sans-Serif" font-size="10.00" fill="grey"> TIPOS</text>
</g>
<!-- Node11 -->
<g id="Node000011" class="node">
<title>Node11</title>
<g id="a_Node000011"><a xlink:title=" ">
<polygon fill="white" stroke="#666666" points="443.5,-240 306.75,-240 306.75,-208 443.5,-208 443.5,-240"/>
<text text-anchor="start" x="314.75" y="-226.5" font-family="Helvetica,sans-Serif" font-size="10.00">std::array&lt; FileDialogRegex</text>
<text text-anchor="middle" x="375.12" y="-214.5" font-family="Helvetica,sans-Serif" font-size="10.00">::FileDialogType, 8 &gt;</text>
</a>
</g>
</g>
<!-- Node11&#45;&gt;Node8 -->
<g id="edge16_Node000008_Node000011" class="edge">
<title>Node11&#45;&gt;Node8</title>
<g id="a_edge16_Node000008_Node000011"><a xlink:title=" ">
<path fill="none" stroke="#9a32cd" stroke-dasharray="5,2" d="M455.05,-214.76C490.7,-210.05 533.26,-203.68 571.25,-196 578.98,-194.44 587.18,-192.49 594.99,-190.5"/>
<polygon fill="#9a32cd" stroke="#9a32cd" points="454.69,-211.27 445.23,-216.03 455.6,-218.22 454.69,-211.27"/>
</a>
</g>
<text text-anchor="middle" x="516.38" y="-216.5" font-family="Helvetica,sans-Serif" font-size="10.00" fill="grey"> TIPOS_FORMATOS</text>
</g>
</g>
</svg>
