<?xml version="1.0" encoding="UTF-8" standalone="no"?>
<!DOCTYPE svg PUBLIC "-//W3C//DTD SVG 1.1//EN"
 "http://www.w3.org/Graphics/SVG/1.1/DTD/svg11.dtd">
<!-- Generated by graphviz version 10.0.1 (20240210.2158)
 -->
<!-- Title: GEU::DatabaseQueryDatoPopup::renderPopup Pages: 1 -->
<svg width="737pt" height="715pt"
 viewBox="0.00 0.00 736.50 715.00" xmlns="http://www.w3.org/2000/svg" xmlns:xlink="http://www.w3.org/1999/xlink">
<g id="graph0" class="graph" transform="scale(1 1) rotate(0) translate(4 711)">
<title>GEU::DatabaseQueryDatoPopup::renderPopup</title>
<!-- Node1 -->
<g id="Node000001" class="node">
<title>Node1</title>
<g id="a_Node000001"><a xlink:title="Renders the popup and its contents.">
<polygon fill="#999999" stroke="#666666" points="158.5,-364 0,-364 0,-332 158.5,-332 158.5,-364"/>
<text text-anchor="start" x="8" y="-350.5" font-family="Helvetica,sans-Serif" font-size="10.00">GEU::DatabaseQueryDatoPopup</text>
<text text-anchor="middle" x="79.25" y="-338.5" font-family="Helvetica,sans-Serif" font-size="10.00">::renderPopup</text>
</a>
</g>
</g>
<!-- Node2 -->
<g id="Node000002" class="node">
<title>Node2</title>
<g id="a_Node000002"><a xlink:href="../../d5/d03/a00631.html#a95d5f616a34dd70aca4886e546720966" target="_top" xlink:title=" ">
<polygon fill="white" stroke="#666666" points="321.88,-593 225.62,-593 225.62,-561 321.88,-561 321.88,-593"/>
<text text-anchor="start" x="233.62" y="-579.5" font-family="Helvetica,sans-Serif" font-size="10.00">GEU::GuiUtilities::</text>
<text text-anchor="middle" x="273.75" y="-567.5" font-family="Helvetica,sans-Serif" font-size="10.00">BeginCombo</text>
</a>
</g>
</g>
<!-- Node1&#45;&gt;Node2 -->
<g id="edge1_Node000001_Node000002" class="edge">
<title>Node1&#45;&gt;Node2</title>
<g id="a_edge1_Node000001_Node000002"><a xlink:title=" ">
<path fill="none" stroke="#63b8ff" d="M84.88,-364.48C96.57,-403.11 130.99,-500.14 194.5,-552 200.44,-556.85 207.33,-560.76 214.52,-563.92"/>
<polygon fill="#63b8ff" stroke="#63b8ff" points="213.18,-567.16 223.77,-567.49 215.69,-560.62 213.18,-567.16"/>
</a>
</g>
</g>
<!-- Node5 -->
<g id="Node000005" class="node">
<title>Node5</title>
<g id="a_Node000005"><a xlink:href="../../d5/d03/a00631.html#ada3ff320fe0e01b53fb7543b923b45a8" target="_top" xlink:title=" ">
<polygon fill="white" stroke="#666666" points="506.25,-437 410,-437 410,-405 506.25,-405 506.25,-437"/>
<text text-anchor="start" x="418" y="-423.5" font-family="Helvetica,sans-Serif" font-size="10.00">GEU::GuiUtilities::</text>
<text text-anchor="middle" x="458.12" y="-411.5" font-family="Helvetica,sans-Serif" font-size="10.00">BeginTableDato</text>
</a>
</g>
</g>
<!-- Node1&#45;&gt;Node5 -->
<g id="edge4_Node000001_Node000005" class="edge">
<title>Node1&#45;&gt;Node5</title>
<g id="a_edge4_Node000001_Node000005"><a xlink:title=" ">
<path fill="none" stroke="#63b8ff" d="M128.17,-364.48C148.45,-370.98 172.44,-378.05 194.5,-383 263.81,-398.53 344.9,-409.14 398.44,-415.12"/>
<polygon fill="#63b8ff" stroke="#63b8ff" points="397.93,-418.59 408.26,-416.2 398.7,-411.63 397.93,-418.59"/>
</a>
</g>
</g>
<!-- Node6 -->
<g id="Node000006" class="node">
<title>Node6</title>
<g id="a_Node000006"><a xlink:href="../../d6/d01/a02029.html#a47c7e7c2110f4cc59c9ff1f5594c366e" target="_top" xlink:title=" ">
<polygon fill="white" stroke="#666666" points="721.75,-464 570,-464 570,-432 721.75,-432 721.75,-464"/>
<text text-anchor="start" x="578" y="-450.5" font-family="Helvetica,sans-Serif" font-size="10.00">GEU::Singleton&lt; LocaleStrings</text>
<text text-anchor="middle" x="645.88" y="-438.5" font-family="Helvetica,sans-Serif" font-size="10.00"> &gt;::getInstance</text>
</a>
</g>
</g>
<!-- Node1&#45;&gt;Node6 -->
<g id="edge24_Node000001_Node000006" class="edge">
<title>Node1&#45;&gt;Node6</title>
<g id="a_edge24_Node000001_Node000006"><a xlink:title=" ">
<path fill="none" stroke="#63b8ff" d="M117.98,-364.46C139.6,-376.35 167.69,-391.51 194.5,-401 315.4,-443.78 465.49,-447.43 558.23,-446.81"/>
<polygon fill="#63b8ff" stroke="#63b8ff" points="558.04,-450.31 568.01,-446.73 557.98,-443.31 558.04,-450.31"/>
</a>
</g>
</g>
<!-- Node1&#45;&gt;Node6 -->
<g id="edge25_Node000001_Node000006" class="edge">
<title>Node1&#45;&gt;Node6</title>
<g id="a_edge25_Node000001_Node000006"><a xlink:title=" ">
<path fill="none" stroke="#63b8ff" d="M95.42,-364.29C116.64,-381.14 156.84,-405.67 194.5,-419 315.4,-461.78 465.49,-465.43 558.23,-460.13"/>
<polygon fill="#63b8ff" stroke="#63b8ff" points="558.25,-463.63 568.01,-459.51 557.81,-456.65 558.25,-463.63"/>
</a>
</g>
</g>
<!-- Node7 -->
<g id="Node000007" class="node">
<title>Node7</title>
<g id="a_Node000007"><a xlink:href="../../d5/d03/a00631.html#af94965eb0ce2f4e1e5ee22fd33bf4574" target="_top" xlink:title=" ">
<polygon fill="white" stroke="#666666" points="506.25,-387 410,-387 410,-355 506.25,-355 506.25,-387"/>
<text text-anchor="start" x="418" y="-373.5" font-family="Helvetica,sans-Serif" font-size="10.00">GEU::GuiUtilities::</text>
<text text-anchor="middle" x="458.12" y="-361.5" font-family="Helvetica,sans-Serif" font-size="10.00">BeginTableZona</text>
</a>
</g>
</g>
<!-- Node1&#45;&gt;Node7 -->
<g id="edge6_Node000001_Node000007" class="edge">
<title>Node1&#45;&gt;Node7</title>
<g id="a_edge6_Node000001_Node000007"><a xlink:title=" ">
<path fill="none" stroke="#63b8ff" d="M158.72,-362.63C170.67,-364.4 182.88,-365.95 194.5,-367 264.31,-373.3 344.98,-373.48 398.29,-372.61"/>
<polygon fill="#63b8ff" stroke="#63b8ff" points="398.12,-376.12 408.06,-372.43 397.99,-369.12 398.12,-376.12"/>
</a>
</g>
</g>
<!-- Node8 -->
<g id="Node000008" class="node">
<title>Node8</title>
<g id="a_Node000008"><a xlink:href="../../d5/d03/a00631.html#a4a9fd6dae16881311edd3998ece123bf" target="_top" xlink:title=" ">
<polygon fill="white" stroke="#666666" points="321.88,-282 225.62,-282 225.62,-250 321.88,-250 321.88,-282"/>
<text text-anchor="start" x="233.62" y="-268.5" font-family="Helvetica,sans-Serif" font-size="10.00">GEU::GuiUtilities::</text>
<text text-anchor="middle" x="273.75" y="-256.5" font-family="Helvetica,sans-Serif" font-size="10.00">Button</text>
</a>
</g>
</g>
<!-- Node1&#45;&gt;Node8 -->
<g id="edge8_Node000001_Node000008" class="edge">
<title>Node1&#45;&gt;Node8</title>
<g id="a_edge8_Node000001_Node000008"><a xlink:title=" ">
<path fill="none" stroke="#63b8ff" d="M115.01,-331.51C137.52,-321 167.56,-307.28 194.5,-296 202.07,-292.83 210.09,-289.6 218.01,-286.5"/>
<polygon fill="#63b8ff" stroke="#63b8ff" points="219.23,-289.78 227.28,-282.9 216.69,-283.25 219.23,-289.78"/>
</a>
</g>
</g>
<!-- Node9 -->
<g id="Node000009" class="node">
<title>Node9</title>
<g id="a_Node000009"><a xlink:href="../../d5/d03/a00631.html#a8cd6e1ec53dc192ed4c4d3867e35edc7" target="_top" xlink:title=" ">
<polygon fill="white" stroke="#666666" points="321.88,-232 225.62,-232 225.62,-200 321.88,-200 321.88,-232"/>
<text text-anchor="start" x="233.62" y="-218.5" font-family="Helvetica,sans-Serif" font-size="10.00">GEU::GuiUtilities::</text>
<text text-anchor="middle" x="273.75" y="-206.5" font-family="Helvetica,sans-Serif" font-size="10.00">Checkbox</text>
</a>
</g>
</g>
<!-- Node1&#45;&gt;Node9 -->
<g id="edge9_Node000001_Node000009" class="edge">
<title>Node1&#45;&gt;Node9</title>
<g id="a_edge9_Node000001_Node000009"><a xlink:title=" ">
<path fill="none" stroke="#63b8ff" d="M93.33,-331.86C112.97,-308.61 152.32,-265.77 194.5,-241 200.86,-237.26 207.85,-234.02 214.95,-231.21"/>
<polygon fill="#63b8ff" stroke="#63b8ff" points="215.75,-234.65 223.95,-227.94 213.35,-228.07 215.75,-234.65"/>
</a>
</g>
</g>
<!-- Node10 -->
<g id="Node000010" class="node">
<title>Node10</title>
<g id="a_Node000010"><a xlink:href="../../d5/d03/a00631.html#a45648c2d9672ec5d0539ae9577e0b02b" target="_top" xlink:title=" ">
<polygon fill="white" stroke="#666666" points="324.88,-543 222.62,-543 222.62,-511 324.88,-511 324.88,-543"/>
<text text-anchor="start" x="230.62" y="-529.5" font-family="Helvetica,sans-Serif" font-size="10.00">GEU::GuiUtilities::</text>
<text text-anchor="middle" x="273.75" y="-517.5" font-family="Helvetica,sans-Serif" font-size="10.00">DatabaseQueryText</text>
</a>
</g>
</g>
<!-- Node1&#45;&gt;Node10 -->
<g id="edge10_Node000001_Node000010" class="edge">
<title>Node1&#45;&gt;Node10</title>
<g id="a_edge10_Node000001_Node000010"><a xlink:title=" ">
<path fill="none" stroke="#63b8ff" d="M88.7,-364.26C105.16,-394.46 144.35,-459.55 194.5,-497 199.8,-500.96 205.69,-504.46 211.79,-507.54"/>
<polygon fill="#63b8ff" stroke="#63b8ff" points="210.26,-510.69 220.81,-511.69 213.19,-504.33 210.26,-510.69"/>
</a>
</g>
</g>
<!-- Node12 -->
<g id="Node000012" class="node">
<title>Node12</title>
<g id="a_Node000012"><a xlink:href="../../d5/d03/a00631.html#ace4bb8c12a9996fe8f1a3b4cb21bff1d" target="_top" xlink:title=" ">
<polygon fill="white" stroke="#666666" points="321.88,-643 225.62,-643 225.62,-611 321.88,-611 321.88,-643"/>
<text text-anchor="start" x="233.62" y="-629.5" font-family="Helvetica,sans-Serif" font-size="10.00">GEU::GuiUtilities::</text>
<text text-anchor="middle" x="273.75" y="-617.5" font-family="Helvetica,sans-Serif" font-size="10.00">DatePicker</text>
</a>
</g>
</g>
<!-- Node1&#45;&gt;Node12 -->
<g id="edge13_Node000001_Node000012" class="edge">
<title>Node1&#45;&gt;Node12</title>
<g id="a_edge13_Node000001_Node000012"><a xlink:title=" ">
<path fill="none" stroke="#63b8ff" d="M82.88,-364.38C90.94,-409.21 119.47,-535.03 194.5,-602 200.36,-607.23 207.32,-611.36 214.63,-614.64"/>
<polygon fill="#63b8ff" stroke="#63b8ff" points="213.13,-617.81 223.72,-618.16 215.66,-611.28 213.13,-617.81"/>
</a>
</g>
</g>
<!-- Node17 -->
<g id="Node000017" class="node">
<title>Node17</title>
<g id="a_Node000017"><a xlink:href="../../dc/d07/a01933.html#abdcc20870710b60595e8777b9fd796ed" target="_top" xlink:title=" ">
<polygon fill="white" stroke="#666666" points="343.62,-358 203.88,-358 203.88,-338 343.62,-338 343.62,-358"/>
<text text-anchor="middle" x="273.75" y="-344.5" font-family="Helvetica,sans-Serif" font-size="10.00">GEU::I_GUIPopup::getIdTitle</text>
</a>
</g>
</g>
<!-- Node1&#45;&gt;Node17 -->
<g id="edge21_Node000001_Node000017" class="edge">
<title>Node1&#45;&gt;Node17</title>
<g id="a_edge21_Node000001_Node000017"><a xlink:title=" ">
<path fill="none" stroke="#63b8ff" d="M158.82,-348C169.78,-348 181.05,-348 192.05,-348"/>
<polygon fill="#63b8ff" stroke="#63b8ff" points="191.87,-351.5 201.87,-348 191.87,-344.5 191.87,-351.5"/>
</a>
</g>
</g>
<!-- Node18 -->
<g id="Node000018" class="node">
<title>Node18</title>
<g id="a_Node000018"><a xlink:href="../../d0/d05/a02017.html#ac66087ac25e72051ea7b5bf3d00dd71f" target="_top" xlink:title=" ">
<polygon fill="white" stroke="#666666" points="518.25,-299 398,-299 398,-279 518.25,-279 518.25,-299"/>
<text text-anchor="middle" x="458.12" y="-285.5" font-family="Helvetica,sans-Serif" font-size="10.00">LocaleStrings::getString</text>
</a>
</g>
</g>
<!-- Node1&#45;&gt;Node18 -->
<g id="edge26_Node000001_Node000018" class="edge">
<title>Node1&#45;&gt;Node18</title>
<g id="a_edge26_Node000001_Node000018"><a xlink:title=" ">
<path fill="none" stroke="#63b8ff" d="M158.89,-334.78C170.82,-332.81 182.98,-330.83 194.5,-329 259.42,-318.66 333.47,-307.43 386.35,-299.51"/>
<polygon fill="#63b8ff" stroke="#63b8ff" points="386.77,-302.99 396.14,-298.05 385.73,-296.07 386.77,-302.99"/>
</a>
</g>
</g>
<!-- Node19 -->
<g id="Node000019" class="node">
<title>Node19</title>
<g id="a_Node000019"><a xlink:href="../../d4/d01/a01485.html#aad368de500dca0ef4c890aee6c20aa8d" target="_top" xlink:title=" ">
<polygon fill="white" stroke="#666666" points="353,-182 194.5,-182 194.5,-150 353,-150 353,-182"/>
<text text-anchor="start" x="202.5" y="-168.5" font-family="Helvetica,sans-Serif" font-size="10.00">GEU::DatabaseQueryDatoPopup</text>
<text text-anchor="middle" x="273.75" y="-156.5" font-family="Helvetica,sans-Serif" font-size="10.00">::handleZonaQueryPopup</text>
</a>
</g>
</g>
<!-- Node1&#45;&gt;Node19 -->
<g id="edge27_Node000001_Node000019" class="edge">
<title>Node1&#45;&gt;Node19</title>
<g id="a_edge27_Node000001_Node000019"><a xlink:title=" ">
<path fill="none" stroke="#63b8ff" d="M87.78,-331.57C103.21,-299.71 141.48,-229.29 194.5,-191 196.05,-189.88 197.65,-188.81 199.3,-187.79"/>
<polygon fill="#63b8ff" stroke="#63b8ff" points="200.69,-191.01 207.79,-183.14 197.33,-184.87 200.69,-191.01"/>
</a>
</g>
</g>
<!-- Node21 -->
<g id="Node000021" class="node">
<title>Node21</title>
<g id="a_Node000021"><a xlink:href="../../de/d01/a01857.html#adacdaa0b6505fb94120265d3ae37e37e" target="_top" xlink:title=" ">
<polygon fill="white" stroke="#666666" points="330.5,-132 217,-132 217,-100 330.5,-100 330.5,-132"/>
<text text-anchor="start" x="225" y="-118.5" font-family="Helvetica,sans-Serif" font-size="10.00">DatabaseConnector::</text>
<text text-anchor="middle" x="273.75" y="-106.5" font-family="Helvetica,sans-Serif" font-size="10.00">queryAsyncDatoCrudo</text>
</a>
</g>
</g>
<!-- Node1&#45;&gt;Node21 -->
<g id="edge29_Node000001_Node000021" class="edge">
<title>Node1&#45;&gt;Node21</title>
<g id="a_edge29_Node000001_Node000021"><a xlink:title=" ">
<path fill="none" stroke="#63b8ff" d="M84.72,-331.57C96.17,-292.58 130.28,-193.77 194.5,-141 198.16,-138 202.18,-135.35 206.41,-133.02"/>
<polygon fill="#63b8ff" stroke="#63b8ff" points="207.73,-136.27 215.24,-128.79 204.71,-129.96 207.73,-136.27"/>
</a>
</g>
</g>
<!-- Node22 -->
<g id="Node000022" class="node">
<title>Node22</title>
<g id="a_Node000022"><a xlink:href="../../d4/d01/a01485.html#a66cced7564861abf4e46a79985f1f73f" target="_top" xlink:title=" ">
<polygon fill="white" stroke="#666666" points="353,-82 194.5,-82 194.5,-50 353,-50 353,-82"/>
<text text-anchor="start" x="202.5" y="-68.5" font-family="Helvetica,sans-Serif" font-size="10.00">GEU::DatabaseQueryDatoPopup</text>
<text text-anchor="middle" x="273.75" y="-56.5" font-family="Helvetica,sans-Serif" font-size="10.00">::resetFilters</text>
</a>
</g>
</g>
<!-- Node1&#45;&gt;Node22 -->
<g id="edge30_Node000001_Node000022" class="edge">
<title>Node1&#45;&gt;Node22</title>
<g id="a_edge30_Node000001_Node000022"><a xlink:title=" ">
<path fill="none" stroke="#63b8ff" d="M82.76,-331.76C90.58,-286.7 118.69,-158.96 194.5,-91 195.29,-90.29 196.1,-89.6 196.93,-88.94"/>
<polygon fill="#63b8ff" stroke="#63b8ff" points="198.86,-91.85 205.17,-83.34 194.93,-86.06 198.86,-91.85"/>
</a>
</g>
</g>
<!-- Node23 -->
<g id="Node000023" class="node">
<title>Node23</title>
<g id="a_Node000023"><a xlink:href="../../d5/d03/a00631.html#ae4d14264e67621c5997464e18c781ea0" target="_top" xlink:title=" ">
<polygon fill="white" stroke="#666666" points="321.88,-32 225.62,-32 225.62,0 321.88,0 321.88,-32"/>
<text text-anchor="start" x="233.62" y="-18.5" font-family="Helvetica,sans-Serif" font-size="10.00">GEU::GuiUtilities::</text>
<text text-anchor="middle" x="273.75" y="-6.5" font-family="Helvetica,sans-Serif" font-size="10.00">SeparatorText</text>
</a>
</g>
</g>
<!-- Node1&#45;&gt;Node23 -->
<g id="edge31_Node000001_Node000023" class="edge">
<title>Node1&#45;&gt;Node23</title>
<g id="a_edge31_Node000001_Node000023"><a xlink:title=" ">
<path fill="none" stroke="#63b8ff" d="M81.45,-331.65C86.06,-280.88 107.06,-124.42 194.5,-41 200.25,-35.51 207.21,-31.23 214.57,-27.89"/>
<polygon fill="#63b8ff" stroke="#63b8ff" points="215.71,-31.2 223.76,-24.31 213.17,-24.68 215.71,-31.2"/>
</a>
</g>
</g>
<!-- Node3 -->
<g id="Node000003" class="node">
<title>Node3</title>
<g id="a_Node000003"><a xlink:href="../../d5/d03/a00631.html#a93d270e10057bb4a04b130a9e20301e2" target="_top" xlink:title=" ">
<polygon fill="white" stroke="#666666" points="508.5,-631 407.75,-631 407.75,-599 508.5,-599 508.5,-631"/>
<text text-anchor="start" x="415.75" y="-617.5" font-family="Helvetica,sans-Serif" font-size="10.00">GEU::GuiUtilities::</text>
<text text-anchor="middle" x="458.12" y="-605.5" font-family="Helvetica,sans-Serif" font-size="10.00">NextItemFillColumn</text>
</a>
</g>
</g>
<!-- Node2&#45;&gt;Node3 -->
<g id="edge2_Node000002_Node000003" class="edge">
<title>Node2&#45;&gt;Node3</title>
<g id="a_edge2_Node000002_Node000003"><a xlink:title=" ">
<path fill="none" stroke="#63b8ff" d="M322.19,-586.88C344.79,-591.59 372.08,-597.28 396.19,-602.3"/>
<polygon fill="#63b8ff" stroke="#63b8ff" points="395.39,-605.71 405.89,-604.32 396.82,-598.86 395.39,-605.71"/>
</a>
</g>
</g>
<!-- Node4 -->
<g id="Node000004" class="node">
<title>Node4</title>
<g id="a_Node000004"><a xlink:href="../../d5/d03/a00631.html#a4ca438ae0623d75ff22b4b17dfd3a820" target="_top" xlink:title=" ">
<polygon fill="white" stroke="#666666" points="515.62,-581 400.62,-581 400.62,-561 515.62,-561 515.62,-581"/>
<text text-anchor="middle" x="458.12" y="-567.5" font-family="Helvetica,sans-Serif" font-size="10.00">GEU::GuiUtilities::Text</text>
</a>
</g>
</g>
<!-- Node2&#45;&gt;Node4 -->
<g id="edge3_Node000002_Node000004" class="edge">
<title>Node2&#45;&gt;Node4</title>
<g id="a_edge3_Node000002_Node000004"><a xlink:title=" ">
<path fill="none" stroke="#63b8ff" d="M322.19,-575.44C342.5,-574.77 366.61,-573.98 388.79,-573.25"/>
<polygon fill="#63b8ff" stroke="#63b8ff" points="388.79,-576.75 398.67,-572.92 388.56,-569.75 388.79,-576.75"/>
</a>
</g>
</g>
<!-- Node5&#45;&gt;Node6 -->
<g id="edge5_Node000005_Node000006" class="edge">
<title>Node5&#45;&gt;Node6</title>
<g id="a_edge5_Node000005_Node000006"><a xlink:title=" ">
<path fill="none" stroke="#63b8ff" d="M506.48,-427.88C522.34,-430.19 540.55,-432.84 558.44,-435.44"/>
<polygon fill="#63b8ff" stroke="#63b8ff" points="557.92,-438.9 568.32,-436.87 558.92,-431.97 557.92,-438.9"/>
</a>
</g>
</g>
<!-- Node7&#45;&gt;Node6 -->
<g id="edge7_Node000007_Node000006" class="edge">
<title>Node7&#45;&gt;Node6</title>
<g id="a_edge7_Node000007_Node000006"><a xlink:title=" ">
<path fill="none" stroke="#63b8ff" d="M505.09,-387.41C512.53,-390.19 520.12,-393.12 527.25,-396 551.18,-405.67 577.48,-417.21 599.13,-426.96"/>
<polygon fill="#63b8ff" stroke="#63b8ff" points="597.42,-430.02 607.98,-430.96 600.31,-423.65 597.42,-430.02"/>
</a>
</g>
</g>
<!-- Node10&#45;&gt;Node4 -->
<g id="edge12_Node000010_Node000004" class="edge">
<title>Node10&#45;&gt;Node4</title>
<g id="a_edge12_Node000010_Node000004"><a xlink:title=" ">
<path fill="none" stroke="#63b8ff" d="M325.07,-539.14C349.21,-544.96 378.16,-551.95 402.8,-557.89"/>
<polygon fill="#63b8ff" stroke="#63b8ff" points="401.77,-561.24 412.31,-560.19 403.41,-554.44 401.77,-561.24"/>
</a>
</g>
</g>
<!-- Node11 -->
<g id="Node000011" class="node">
<title>Node11</title>
<g id="a_Node000011"><a xlink:href="../../d5/d03/a00631.html#aa4e9186189a097316ffd71424d4a7259" target="_top" xlink:title=" ">
<polygon fill="white" stroke="#666666" points="506.25,-543 410,-543 410,-511 506.25,-511 506.25,-543"/>
<text text-anchor="start" x="418" y="-529.5" font-family="Helvetica,sans-Serif" font-size="10.00">GEU::GuiUtilities::</text>
<text text-anchor="middle" x="458.12" y="-517.5" font-family="Helvetica,sans-Serif" font-size="10.00">loadingIcon</text>
</a>
</g>
</g>
<!-- Node10&#45;&gt;Node11 -->
<g id="edge11_Node000010_Node000011" class="edge">
<title>Node10&#45;&gt;Node11</title>
<g id="a_edge11_Node000010_Node000011"><a xlink:title=" ">
<path fill="none" stroke="#63b8ff" d="M325.07,-527C347.81,-527 374.83,-527 398.48,-527"/>
<polygon fill="#63b8ff" stroke="#63b8ff" points="398.28,-530.5 408.28,-527 398.28,-523.5 398.28,-530.5"/>
</a>
</g>
</g>
<!-- Node12&#45;&gt;Node3 -->
<g id="edge19_Node000012_Node000003" class="edge">
<title>Node12&#45;&gt;Node3</title>
<g id="a_edge19_Node000012_Node000003"><a xlink:title=" ">
<path fill="none" stroke="#63b8ff" d="M322.19,-623.88C344.79,-622.39 372.08,-620.6 396.19,-619.01"/>
<polygon fill="#63b8ff" stroke="#63b8ff" points="396.11,-622.52 405.86,-618.37 395.65,-615.54 396.11,-622.52"/>
</a>
</g>
</g>
<!-- Node12&#45;&gt;Node4 -->
<g id="edge20_Node000012_Node000004" class="edge">
<title>Node12&#45;&gt;Node4</title>
<g id="a_edge20_Node000012_Node000004"><a xlink:title=" ">
<path fill="none" stroke="#63b8ff" d="M322.37,-611.89C332.49,-608.65 343.1,-605.23 353,-602 369.03,-596.77 372.87,-594.93 389,-590 394.94,-588.18 401.2,-586.34 407.42,-584.55"/>
<polygon fill="#63b8ff" stroke="#63b8ff" points="408.35,-587.93 417.02,-581.83 406.45,-581.19 408.35,-587.93"/>
</a>
</g>
</g>
<!-- Node13 -->
<g id="Node000013" class="node">
<title>Node13</title>
<g id="a_Node000013"><a xlink:href="../../dc/d06/a00630.html#aefd878b805c4319701726466e38af25f" target="_top" xlink:title=" ">
<polygon fill="white" stroke="#666666" points="510,-669 406.25,-669 406.25,-649 510,-649 510,-669"/>
<text text-anchor="middle" x="458.12" y="-655.5" font-family="Helvetica,sans-Serif" font-size="10.00">ImGui::DateChooser</text>
</a>
</g>
</g>
<!-- Node12&#45;&gt;Node13 -->
<g id="edge14_Node000012_Node000013" class="edge">
<title>Node12&#45;&gt;Node13</title>
<g id="a_edge14_Node000012_Node000013"><a xlink:title=" ">
<path fill="none" stroke="#63b8ff" d="M322.19,-635.32C344.33,-639.21 370.98,-643.88 394.73,-648.05"/>
<polygon fill="#63b8ff" stroke="#63b8ff" points="393.82,-651.45 404.27,-649.73 395.03,-644.55 393.82,-651.45"/>
</a>
</g>
</g>
<!-- Node13&#45;&gt;Node6 -->
<g id="edge17_Node000013_Node000006" class="edge">
<title>Node13&#45;&gt;Node6</title>
<g id="a_edge17_Node000013_Node000006"><a xlink:title=" ">
<path fill="none" stroke="#63b8ff" d="M510.25,-649.36C516.32,-646.91 522.15,-643.85 527.25,-640 542.4,-628.57 602.24,-524 630.26,-474.18"/>
<polygon fill="#63b8ff" stroke="#63b8ff" points="633.15,-476.18 634.99,-465.75 627.05,-472.76 633.15,-476.18"/>
</a>
</g>
</g>
<!-- Node14 -->
<g id="Node000014" class="node">
<title>Node14</title>
<g id="a_Node000014"><a xlink:href="../../dc/d06/a00630.html#a4305042c283d89a8db95b69c245dd4cd" target="_top" xlink:title=" ">
<polygon fill="white" stroke="#666666" points="703.38,-707 588.38,-707 588.38,-687 703.38,-687 703.38,-707"/>
<text text-anchor="middle" x="645.88" y="-693.5" font-family="Helvetica,sans-Serif" font-size="10.00">ImGui::GetCurrentDate</text>
</a>
</g>
</g>
<!-- Node13&#45;&gt;Node14 -->
<g id="edge15_Node000013_Node000014" class="edge">
<title>Node13&#45;&gt;Node14</title>
<g id="a_edge15_Node000013_Node000014"><a xlink:title=" ">
<path fill="none" stroke="#63b8ff" d="M510.37,-669.48C532.71,-674.05 559.09,-679.45 582.54,-684.25"/>
<polygon fill="#63b8ff" stroke="#63b8ff" points="581.81,-687.67 592.31,-686.25 583.22,-680.81 581.81,-687.67"/>
</a>
</g>
</g>
<!-- Node15 -->
<g id="Node000015" class="node">
<title>Node15</title>
<g id="a_Node000015"><a xlink:href="../../dc/d06/a00630.html#aab4714f905121e39fd75f60a9ca854cf" target="_top" xlink:title=" ">
<polygon fill="white" stroke="#666666" points="697,-669 594.75,-669 594.75,-649 697,-649 697,-669"/>
<text text-anchor="middle" x="645.88" y="-655.5" font-family="Helvetica,sans-Serif" font-size="10.00">ImGui::GetDateZero</text>
</a>
</g>
</g>
<!-- Node13&#45;&gt;Node15 -->
<g id="edge16_Node000013_Node000015" class="edge">
<title>Node13&#45;&gt;Node15</title>
<g id="a_edge16_Node000013_Node000015"><a xlink:title=" ">
<path fill="none" stroke="#63b8ff" d="M510.37,-659C532.89,-659 559.52,-659 583.13,-659"/>
<polygon fill="#63b8ff" stroke="#63b8ff" points="582.92,-662.5 592.92,-659 582.92,-655.5 582.92,-662.5"/>
</a>
</g>
</g>
<!-- Node16 -->
<g id="Node000016" class="node">
<title>Node16</title>
<g id="a_Node000016"><a xlink:href="../../dc/d06/a00630.html#ab5acf061aabc3ecd45051883508c8274" target="_top" xlink:title=" ">
<polygon fill="white" stroke="#666666" points="728.5,-631 563.25,-631 563.25,-599 728.5,-599 728.5,-631"/>
<text text-anchor="start" x="571.25" y="-617.5" font-family="Helvetica,sans-Serif" font-size="10.00">ImGui::RecalculateDateDependent</text>
<text text-anchor="middle" x="645.88" y="-605.5" font-family="Helvetica,sans-Serif" font-size="10.00">Fields</text>
</a>
</g>
</g>
<!-- Node13&#45;&gt;Node16 -->
<g id="edge18_Node000013_Node000016" class="edge">
<title>Node13&#45;&gt;Node16</title>
<g id="a_edge18_Node000013_Node000016"><a xlink:title=" ">
<path fill="none" stroke="#63b8ff" d="M503.15,-648.57C521.42,-644.24 543.23,-639.08 564.2,-634.11"/>
<polygon fill="#63b8ff" stroke="#63b8ff" points="565,-637.52 573.92,-631.81 563.38,-630.71 565,-637.52"/>
</a>
</g>
</g>
<!-- Node17&#45;&gt;Node6 -->
<g id="edge22_Node000017_Node000006" class="edge">
<title>Node17&#45;&gt;Node6</title>
<g id="a_edge22_Node000017_Node000006"><a xlink:title=" ">
<path fill="none" stroke="#63b8ff" d="M324,-337.51C376.24,-328.66 460.3,-321.02 527.25,-346 568.3,-361.32 604.52,-398.13 625.57,-423.08"/>
<polygon fill="#63b8ff" stroke="#63b8ff" points="622.62,-424.99 631.66,-430.5 628.03,-420.55 622.62,-424.99"/>
</a>
</g>
</g>
<!-- Node17&#45;&gt;Node18 -->
<g id="edge23_Node000017_Node000018" class="edge">
<title>Node17&#45;&gt;Node18</title>
<g id="a_edge23_Node000017_Node000018"><a xlink:title=" ">
<path fill="none" stroke="#63b8ff" d="M309.48,-337.56C323.08,-333.42 338.8,-328.56 353,-324 373.79,-317.32 396.82,-309.61 415.92,-303.13"/>
<polygon fill="#63b8ff" stroke="#63b8ff" points="416.9,-306.5 425.24,-299.96 414.64,-299.87 416.9,-306.5"/>
</a>
</g>
</g>
<!-- Node20 -->
<g id="Node000020" class="node">
<title>Node20</title>
<g id="a_Node000020"><a xlink:href="../../df/d07/a01537.html#a3bf1663eb8ab84b093bb487b62ae6130" target="_top" xlink:title="Sets up ImGUI to open a popup window.">
<polygon fill="white" stroke="#666666" points="527.25,-182 389,-182 389,-150 527.25,-150 527.25,-182"/>
<text text-anchor="start" x="397" y="-168.5" font-family="Helvetica,sans-Serif" font-size="10.00">GEU::DatabaseQueryPopup</text>
<text text-anchor="middle" x="458.12" y="-156.5" font-family="Helvetica,sans-Serif" font-size="10.00">::openPopup</text>
</a>
</g>
</g>
<!-- Node19&#45;&gt;Node20 -->
<g id="edge28_Node000019_Node000020" class="edge">
<title>Node19&#45;&gt;Node20</title>
<g id="a_edge28_Node000019_Node000020"><a xlink:title=" ">
<path fill="none" stroke="#63b8ff" d="M353.42,-166C361.32,-166 369.35,-166 377.26,-166"/>
<polygon fill="#63b8ff" stroke="#63b8ff" points="377.23,-169.5 387.23,-166 377.23,-162.5 377.23,-169.5"/>
</a>
</g>
</g>
</g>
</svg>
