<?xml version="1.0" encoding="UTF-8" standalone="no"?>
<!DOCTYPE svg PUBLIC "-//W3C//DTD SVG 1.1//EN"
 "http://www.w3.org/Graphics/SVG/1.1/DTD/svg11.dtd">
<!-- Generated by graphviz version 10.0.1 (20240210.2158)
 -->
<!-- Title: GEU::Analisis_HyperGUIAdapter::renderGuiObject Pages: 1 -->
<svg width="741pt" height="272pt"
 viewBox="0.00 0.00 741.00 272.00" xmlns="http://www.w3.org/2000/svg" xmlns:xlink="http://www.w3.org/1999/xlink">
<g id="graph0" class="graph" transform="scale(1 1) rotate(0) translate(4 268)">
<title>GEU::Analisis_HyperGUIAdapter::renderGuiObject</title>
<!-- Node1 -->
<g id="Node000001" class="node">
<title>Node1</title>
<g id="a_Node000001"><a xlink:title="Custom module GUI window contents.">
<polygon fill="#999999" stroke="#666666" points="158.5,-154 0,-154 0,-122 158.5,-122 158.5,-154"/>
<text text-anchor="start" x="8" y="-140.5" font-family="Helvetica,sans-Serif" font-size="10.00">GEU::Analisis_HyperGUIAdapter</text>
<text text-anchor="middle" x="79.25" y="-128.5" font-family="Helvetica,sans-Serif" font-size="10.00">::renderGuiObject</text>
</a>
</g>
</g>
<!-- Node2 -->
<g id="Node000002" class="node">
<title>Node2</title>
<g id="a_Node000002"><a xlink:href="../../d9/d03/class_g_e_u_1_1_popup_system.html#ae812e21e62615fd347d33ee0ddb0cc82" target="_top" xlink:title=" ">
<polygon fill="white" stroke="#666666" points="543,-264 389,-264 389,-244 543,-244 543,-264"/>
<text text-anchor="middle" x="466" y="-250.5" font-family="Helvetica,sans-Serif" font-size="10.00">GEU::PopupSystem::addPopup</text>
</a>
</g>
</g>
<!-- Node1&#45;&gt;Node2 -->
<g id="edge1_Node000001_Node000002" class="edge">
<title>Node1&#45;&gt;Node2</title>
<g id="a_edge1_Node000001_Node000002"><a xlink:title=" ">
<path fill="none" stroke="#63b8ff" d="M94.57,-154.43C114.52,-176.04 152.93,-213.24 194.5,-230 252.47,-253.37 322.94,-258.97 377.42,-258.94"/>
<polygon fill="#63b8ff" stroke="#63b8ff" points="377.3,-262.44 387.28,-258.86 377.25,-255.44 377.3,-262.44"/>
</a>
</g>
</g>
<!-- Node3 -->
<g id="Node000003" class="node">
<title>Node3</title>
<g id="a_Node000003"><a xlink:href="../../d1/d01/class_g_e_u_1_1_singleton.html#a47c7e7c2110f4cc59c9ff1f5594c366e" target="_top" xlink:title=" ">
<polygon fill="white" stroke="#666666" points="733,-213 579,-213 579,-181 733,-181 733,-213"/>
<text text-anchor="start" x="587" y="-199.5" font-family="Helvetica,sans-Serif" font-size="10.00">GEU::Singleton&lt; PopupSystem</text>
<text text-anchor="middle" x="656" y="-187.5" font-family="Helvetica,sans-Serif" font-size="10.00"> &gt;::getInstance</text>
</a>
</g>
</g>
<!-- Node1&#45;&gt;Node3 -->
<g id="edge3_Node000001_Node000003" class="edge">
<title>Node1&#45;&gt;Node3</title>
<g id="a_edge3_Node000001_Node000003"><a xlink:title=" ">
<path fill="none" stroke="#63b8ff" d="M103.88,-154.45C126.1,-168.86 160.9,-188.74 194.5,-197 321.2,-228.13 473.5,-219.57 567.27,-209.27"/>
<polygon fill="#63b8ff" stroke="#63b8ff" points="567.65,-212.75 577.19,-208.15 566.86,-205.8 567.65,-212.75"/>
</a>
</g>
</g>
<!-- Node4 -->
<g id="Node000004" class="node">
<title>Node4</title>
<g id="a_Node000004"><a xlink:href="../../d4/d01/class_g_e_u_1_1_analisis___hyper_g_u_i_adapter.html#af1cbd867b4a162248b429153c8abeb46" target="_top" xlink:title=" ">
<polygon fill="white" stroke="#666666" points="353,-188 194.5,-188 194.5,-156 353,-156 353,-188"/>
<text text-anchor="start" x="202.5" y="-174.5" font-family="Helvetica,sans-Serif" font-size="10.00">GEU::Analisis_HyperGUIAdapter</text>
<text text-anchor="middle" x="273.75" y="-162.5" font-family="Helvetica,sans-Serif" font-size="10.00">::loadHypercube</text>
</a>
</g>
</g>
<!-- Node1&#45;&gt;Node4 -->
<g id="edge4_Node000001_Node000004" class="edge">
<title>Node1&#45;&gt;Node4</title>
<g id="a_edge4_Node000001_Node000004"><a xlink:title=" ">
<path fill="none" stroke="#63b8ff" d="M158.82,-151.88C166.74,-153.28 174.82,-154.7 182.84,-156.12"/>
<polygon fill="#63b8ff" stroke="#63b8ff" points="182.17,-159.56 192.62,-157.85 183.39,-152.66 182.17,-159.56"/>
</a>
</g>
</g>
<!-- Node6 -->
<g id="Node000006" class="node">
<title>Node6</title>
<g id="a_Node000006"><a xlink:href="../../d3/d07/namespace_g_e_u_1_1_gui_utilities.html#a4a4cc2d3f5e9444384aa7e7eb062dbf0" target="_top" xlink:title=" ">
<polygon fill="white" stroke="#666666" points="321.88,-120 225.62,-120 225.62,-88 321.88,-88 321.88,-120"/>
<text text-anchor="start" x="233.62" y="-106.5" font-family="Helvetica,sans-Serif" font-size="10.00">GEU::GuiUtilities::</text>
<text text-anchor="middle" x="273.75" y="-94.5" font-family="Helvetica,sans-Serif" font-size="10.00">makeButton</text>
</a>
</g>
</g>
<!-- Node1&#45;&gt;Node6 -->
<g id="edge7_Node000001_Node000006" class="edge">
<title>Node1&#45;&gt;Node6</title>
<g id="a_edge7_Node000001_Node000006"><a xlink:title=" ">
<path fill="none" stroke="#63b8ff" d="M158.82,-124.12C177.33,-120.85 196.74,-117.43 214.19,-114.34"/>
<polygon fill="#63b8ff" stroke="#63b8ff" points="214.61,-117.82 223.85,-112.64 213.39,-110.93 214.61,-117.82"/>
</a>
</g>
</g>
<!-- Node7 -->
<g id="Node000007" class="node">
<title>Node7</title>
<g id="a_Node000007"><a xlink:href="../../d3/d07/namespace_g_e_u_1_1_gui_utilities.html#a7b24395f0bd0bd368bde0935682746ce" target="_top" xlink:title=" ">
<polygon fill="white" stroke="#666666" points="514.12,-76 417.88,-76 417.88,-44 514.12,-44 514.12,-76"/>
<text text-anchor="start" x="425.88" y="-62.5" font-family="Helvetica,sans-Serif" font-size="10.00">GEU::GuiUtilities::</text>
<text text-anchor="middle" x="466" y="-50.5" font-family="Helvetica,sans-Serif" font-size="10.00">makeLocText</text>
</a>
</g>
</g>
<!-- Node1&#45;&gt;Node7 -->
<g id="edge9_Node000001_Node000007" class="edge">
<title>Node1&#45;&gt;Node7</title>
<g id="a_edge9_Node000001_Node000007"><a xlink:title=" ">
<path fill="none" stroke="#63b8ff" d="M104.88,-121.51C127.23,-107.5 161.61,-88.22 194.5,-79 265.38,-59.12 350.6,-56.44 406.19,-57.36"/>
<polygon fill="#63b8ff" stroke="#63b8ff" points="406,-60.86 416.08,-57.58 406.16,-53.86 406,-60.86"/>
</a>
</g>
</g>
<!-- Node8 -->
<g id="Node000008" class="node">
<title>Node8</title>
<g id="a_Node000008"><a xlink:href="../../d3/d07/namespace_g_e_u_1_1_gui_utilities.html#ae63312c9c8d5d514d8411e73e83a14ce" target="_top" xlink:title=" ">
<polygon fill="white" stroke="#666666" points="334.62,-32 212.88,-32 212.88,0 334.62,0 334.62,-32"/>
<text text-anchor="start" x="220.88" y="-18.5" font-family="Helvetica,sans-Serif" font-size="10.00">GEU::GuiUtilities::</text>
<text text-anchor="middle" x="273.75" y="-6.5" font-family="Helvetica,sans-Serif" font-size="10.00">makeSelectableTextBox</text>
</a>
</g>
</g>
<!-- Node1&#45;&gt;Node8 -->
<g id="edge11_Node000001_Node000008" class="edge">
<title>Node1&#45;&gt;Node8</title>
<g id="a_edge11_Node000001_Node000008"><a xlink:title=" ">
<path fill="none" stroke="#63b8ff" d="M96.82,-121.84C118.01,-101.86 156.53,-67.84 194.5,-46 200.16,-42.75 206.23,-39.71 212.41,-36.92"/>
<polygon fill="#63b8ff" stroke="#63b8ff" points="213.63,-40.21 221.44,-33.05 210.87,-33.77 213.63,-40.21"/>
</a>
</g>
</g>
<!-- Node2&#45;&gt;Node3 -->
<g id="edge2_Node000002_Node000003" class="edge">
<title>Node2&#45;&gt;Node3</title>
<g id="a_edge2_Node000002_Node000003"><a xlink:title=" ">
<path fill="none" stroke="#63b8ff" d="M501.48,-243.55C526.22,-236.05 560.29,-225.71 590.06,-216.69"/>
<polygon fill="#63b8ff" stroke="#63b8ff" points="590.8,-220.12 599.36,-213.87 588.77,-213.42 590.8,-220.12"/>
</a>
</g>
</g>
<!-- Node4&#45;&gt;Node3 -->
<g id="edge5_Node000004_Node000003" class="edge">
<title>Node4&#45;&gt;Node3</title>
<g id="a_edge5_Node000004_Node000003"><a xlink:title=" ">
<path fill="none" stroke="#63b8ff" d="M353.08,-177.15C415.43,-181.25 502.65,-186.98 567.33,-191.24"/>
<polygon fill="#63b8ff" stroke="#63b8ff" points="567,-194.72 577.21,-191.89 567.46,-187.74 567,-194.72"/>
</a>
</g>
</g>
<!-- Node5 -->
<g id="Node000005" class="node">
<title>Node5</title>
<g id="a_Node000005"><a xlink:href="../../d2/d04/class_locale_strings.html#ac66087ac25e72051ea7b5bf3d00dd71f" target="_top" xlink:title=" ">
<polygon fill="white" stroke="#666666" points="526.12,-150 405.88,-150 405.88,-130 526.12,-130 526.12,-150"/>
<text text-anchor="middle" x="466" y="-136.5" font-family="Helvetica,sans-Serif" font-size="10.00">LocaleStrings::getString</text>
</a>
</g>
</g>
<!-- Node4&#45;&gt;Node5 -->
<g id="edge6_Node000004_Node000005" class="edge">
<title>Node4&#45;&gt;Node5</title>
<g id="a_edge6_Node000004_Node000005"><a xlink:title=" ">
<path fill="none" stroke="#63b8ff" d="M353.23,-158.8C366.9,-156.5 381.05,-154.12 394.5,-151.86"/>
<polygon fill="#63b8ff" stroke="#63b8ff" points="394.82,-155.35 404.1,-150.24 393.66,-148.45 394.82,-155.35"/>
</a>
</g>
</g>
<!-- Node6&#45;&gt;Node6 -->
<g id="edge8_Node000006_Node000006" class="edge">
<title>Node6&#45;&gt;Node6</title>
<g id="a_edge8_Node000006_Node000006"><a xlink:title=" ">
<path fill="none" stroke="#63b8ff" d="M239.43,-120.44C233.02,-129.58 244.46,-138 273.75,-138 289.77,-138 300.45,-135.48 305.79,-131.71"/>
<polygon fill="#63b8ff" stroke="#63b8ff" points="309.21,-132.42 307.77,-121.93 302.35,-131.03 309.21,-132.42"/>
</a>
</g>
</g>
<!-- Node7&#45;&gt;Node3 -->
<g id="edge10_Node000007_Node000003" class="edge">
<title>Node7&#45;&gt;Node3</title>
<g id="a_edge10_Node000007_Node000003"><a xlink:title=" ">
<path fill="none" stroke="#63b8ff" d="M489.3,-76.25C522.57,-100.5 585.33,-146.23 623.34,-173.93"/>
<polygon fill="#63b8ff" stroke="#63b8ff" points="621.07,-176.6 631.21,-179.66 625.19,-170.94 621.07,-176.6"/>
</a>
</g>
</g>
<!-- Node8&#45;&gt;Node7 -->
<g id="edge12_Node000008_Node000007" class="edge">
<title>Node8&#45;&gt;Node7</title>
<g id="a_edge12_Node000008_Node000007"><a xlink:title=" ">
<path fill="none" stroke="#63b8ff" d="M334.95,-29.92C357.76,-35.2 383.69,-41.2 406.36,-46.44"/>
<polygon fill="#63b8ff" stroke="#63b8ff" points="405.54,-49.84 416.07,-48.68 407.12,-43.02 405.54,-49.84"/>
</a>
</g>
</g>
</g>
</svg>
