<?xml version="1.0" encoding="UTF-8" standalone="no"?>
<!DOCTYPE svg PUBLIC "-//W3C//DTD SVG 1.1//EN"
 "http://www.w3.org/Graphics/SVG/1.1/DTD/svg11.dtd">
<!-- Generated by graphviz version 10.0.1 (20240210.2158)
 -->
<!-- Title: GEU::CameraProjection Pages: 1 -->
<svg width="226pt" height="188pt"
 viewBox="0.00 0.00 225.62 188.00" xmlns="http://www.w3.org/2000/svg" xmlns:xlink="http://www.w3.org/1999/xlink">
<g id="graph0" class="graph" transform="scale(1 1) rotate(0) translate(4 184)">
<title>GEU::CameraProjection</title>
<!-- Node1 -->
<g id="Node000001" class="node">
<title>Node1</title>
<g id="a_Node000001"><a xlink:title=" ">
<polygon fill="#999999" stroke="#666666" points="161.75,-180 41.5,-180 41.5,-160 161.75,-160 161.75,-180"/>
<text text-anchor="middle" x="101.62" y="-166.5" font-family="Helvetica,sans-Serif" font-size="10.00">GEU::CameraProjection</text>
</a>
</g>
</g>
<!-- Node3 -->
<g id="Node000003" class="node">
<title>Node3</title>
<g id="a_Node000003"><a xlink:title=" ">
<polygon fill="white" stroke="#666666" points="111.25,-112 0,-112 0,-80 111.25,-80 111.25,-112"/>
<text text-anchor="start" x="8" y="-98.5" font-family="Helvetica,sans-Serif" font-size="10.00">std::shared_ptr&lt; GEU</text>
<text text-anchor="middle" x="55.62" y="-86.5" font-family="Helvetica,sans-Serif" font-size="10.00">::CameraProjection &gt;</text>
</a>
</g>
</g>
<!-- Node1&#45;&gt;Node3 -->
<g id="edge3_Node000003_Node000001" class="edge">
<title>Node1&#45;&gt;Node3</title>
<g id="a_edge3_Node000003_Node000001"><a xlink:title=" ">
<path fill="none" stroke="#9a32cd" stroke-dasharray="5,2" d="M89.43,-149.91C81.96,-138.21 72.51,-123.43 65.51,-112.47"/>
<polygon fill="#9a32cd" stroke="#9a32cd" points="86.46,-151.77 94.8,-158.31 92.36,-148 86.46,-151.77"/>
</a>
</g>
<text text-anchor="middle" x="91.75" y="-132.5" font-family="Helvetica,sans-Serif" font-size="10.00" fill="grey"> ptr</text>
</g>
<!-- Node2 -->
<g id="Node000002" class="node">
<title>Node2</title>
<g id="a_Node000002"><a xlink:title=" ">
<polygon fill="white" stroke="#666666" points="183.5,-32 19.75,-32 19.75,0 183.5,0 183.5,-32"/>
<text text-anchor="start" x="27.75" y="-18.5" font-family="Helvetica,sans-Serif" font-size="10.00">std::vector&lt; std::shared</text>
<text text-anchor="middle" x="101.62" y="-6.5" font-family="Helvetica,sans-Serif" font-size="10.00">_ptr&lt; GEU::CameraProjection &gt; &gt;</text>
</a>
</g>
</g>
<!-- Node2&#45;&gt;Node1 -->
<g id="edge1_Node000001_Node000002" class="edge">
<title>Node2&#45;&gt;Node1</title>
<g id="a_edge1_Node000001_Node000002"><a xlink:title=" ">
<path fill="none" stroke="#9a32cd" stroke-dasharray="5,2" d="M124.53,-41.55C126.17,-44.26 127.59,-47.09 128.62,-50 142.73,-89.5 118.86,-139.09 107.33,-159.53"/>
<polygon fill="#9a32cd" stroke="#9a32cd" points="127.46,-39.63 118.74,-33.6 121.8,-43.75 127.46,-39.63"/>
</a>
</g>
<text text-anchor="middle" x="175.62" y="-92.5" font-family="Helvetica,sans-Serif" font-size="10.00" fill="grey"> _cameraProjection</text>
</g>
<!-- Node3&#45;&gt;Node2 -->
<g id="edge2_Node000002_Node000003" class="edge">
<title>Node3&#45;&gt;Node2</title>
<g id="a_edge2_Node000002_Node000003"><a xlink:title=" ">
<path fill="none" stroke="#9a32cd" stroke-dasharray="5,2" d="M70.45,-69.86C77.73,-57.52 86.26,-43.05 92.56,-32.38"/>
<polygon fill="#9a32cd" stroke="#9a32cd" points="67.55,-67.89 65.48,-78.29 73.58,-71.45 67.55,-67.89"/>
</a>
</g>
<text text-anchor="middle" x="103" y="-52.5" font-family="Helvetica,sans-Serif" font-size="10.00" fill="grey"> elements</text>
</g>
</g>
</svg>
