<?xml version="1.0" encoding="UTF-8" standalone="no"?>
<!DOCTYPE svg PUBLIC "-//W3C//DTD SVG 1.1//EN"
 "http://www.w3.org/Graphics/SVG/1.1/DTD/svg11.dtd">
<!-- Generated by graphviz version 10.0.1 (20240210.2158)
 -->
<!-- Title: GEU::AmbientLight::applyLight Pages: 1 -->
<svg width="296pt" height="128pt"
 viewBox="0.00 0.00 295.75 128.00" xmlns="http://www.w3.org/2000/svg" xmlns:xlink="http://www.w3.org/1999/xlink">
<g id="graph0" class="graph" transform="scale(1 1) rotate(0) translate(4 124)">
<title>GEU::AmbientLight::applyLight</title>
<!-- Node1 -->
<g id="Node000001" class="node">
<title>Node1</title>
<g id="a_Node000001"><a xlink:title=" ">
<polygon fill="#999999" stroke="#666666" points="106,-70 0,-70 0,-38 106,-38 106,-70"/>
<text text-anchor="start" x="8" y="-56.5" font-family="Helvetica,sans-Serif" font-size="10.00">GEU::AmbientLight::</text>
<text text-anchor="middle" x="53" y="-44.5" font-family="Helvetica,sans-Serif" font-size="10.00">applyLight</text>
</a>
</g>
</g>
<!-- Node2 -->
<g id="Node000002" class="node">
<title>Node2</title>
<g id="a_Node000002"><a xlink:href="../../d4/d01/a01485.html#ac2969a9853653155f2fb81856a94456d" target="_top" xlink:title=" ">
<polygon fill="white" stroke="#666666" points="287.75,-120 142,-120 142,-88 287.75,-88 287.75,-120"/>
<text text-anchor="start" x="150" y="-106.5" font-family="Helvetica,sans-Serif" font-size="10.00">GEU::Material::getAssociated</text>
<text text-anchor="middle" x="214.88" y="-94.5" font-family="Helvetica,sans-Serif" font-size="10.00">Shader</text>
</a>
</g>
</g>
<!-- Node1&#45;&gt;Node2 -->
<g id="edge1_Node000001_Node000002" class="edge">
<title>Node1&#45;&gt;Node2</title>
<g id="a_edge1_Node000001_Node000002"><a xlink:title=" ">
<path fill="none" stroke="#63b8ff" d="M106.35,-70.37C120.35,-74.75 135.65,-79.54 150.19,-84.08"/>
<polygon fill="#63b8ff" stroke="#63b8ff" points="149.1,-87.41 159.69,-87.05 151.19,-80.73 149.1,-87.41"/>
</a>
</g>
</g>
<!-- Node3 -->
<g id="Node000003" class="node">
<title>Node3</title>
<g id="a_Node000003"><a xlink:href="../../de/d03/a01473.html#ae4a1fb24c8fac2681fbd78995f0c182b" target="_top" xlink:title=" ">
<polygon fill="white" stroke="#666666" points="269,-70 160.75,-70 160.75,-38 269,-38 269,-70"/>
<text text-anchor="start" x="168.75" y="-56.5" font-family="Helvetica,sans-Serif" font-size="10.00">GEU::LightProperties</text>
<text text-anchor="middle" x="214.88" y="-44.5" font-family="Helvetica,sans-Serif" font-size="10.00">::getIa</text>
</a>
</g>
</g>
<!-- Node1&#45;&gt;Node3 -->
<g id="edge2_Node000001_Node000003" class="edge">
<title>Node1&#45;&gt;Node3</title>
<g id="a_edge2_Node000001_Node000003"><a xlink:title=" ">
<path fill="none" stroke="#63b8ff" d="M106.35,-54C120,-54 134.88,-54 149.09,-54"/>
<polygon fill="#63b8ff" stroke="#63b8ff" points="148.8,-57.5 158.8,-54 148.8,-50.5 148.8,-57.5"/>
</a>
</g>
</g>
<!-- Node4 -->
<g id="Node000004" class="node">
<title>Node4</title>
<g id="a_Node000004"><a xlink:href="../../d4/d01/a01485.html#abb5aacb1ebce4d9a9c119ea122d921df" target="_top" xlink:title=" ">
<polygon fill="white" stroke="#666666" points="286.62,-20 143.12,-20 143.12,0 286.62,0 286.62,-20"/>
<text text-anchor="middle" x="214.88" y="-6.5" font-family="Helvetica,sans-Serif" font-size="10.00">GEU::Material::setSubroutine</text>
</a>
</g>
</g>
<!-- Node1&#45;&gt;Node4 -->
<g id="edge3_Node000001_Node000004" class="edge">
<title>Node1&#45;&gt;Node4</title>
<g id="a_edge3_Node000001_Node000004"><a xlink:title=" ">
<path fill="none" stroke="#63b8ff" d="M106.07,-39.04C117.87,-35.69 130.36,-32.19 142,-29 148.78,-27.14 155.93,-25.21 162.98,-23.33"/>
<polygon fill="#63b8ff" stroke="#63b8ff" points="163.69,-26.76 172.46,-20.81 161.9,-20 163.69,-26.76"/>
</a>
</g>
</g>
</g>
</svg>
