<?xml version="1.0" encoding="UTF-8" standalone="no"?>
<!DOCTYPE svg PUBLIC "-//W3C//DTD SVG 1.1//EN"
 "http://www.w3.org/Graphics/SVG/1.1/DTD/svg11.dtd">
<!-- Generated by graphviz version 10.0.1 (20240210.2158)
 -->
<!-- Title: GEU::ShaderManager Pages: 1 -->
<svg width="1981pt" height="304pt"
 viewBox="0.00 0.00 1980.75 304.00" xmlns="http://www.w3.org/2000/svg" xmlns:xlink="http://www.w3.org/1999/xlink">
<g id="graph0" class="graph" transform="scale(1 1) rotate(0) translate(4 300)">
<title>GEU::ShaderManager</title>
<!-- Node1 -->
<g id="Node000001" class="node">
<title>Node1</title>
<g id="a_Node000001"><a xlink:title=" ">
<polygon fill="#999999" stroke="#666666" points="1505,-163 1393.75,-163 1393.75,-143 1505,-143 1505,-163"/>
<text text-anchor="middle" x="1449.38" y="-149.5" font-family="Helvetica,sans-Serif" font-size="10.00">GEU::ShaderManager</text>
</a>
</g>
</g>
<!-- Node3 -->
<g id="Node000003" class="node">
<title>Node3</title>
<g id="a_Node000003"><a xlink:title=" ">
<polygon fill="white" stroke="#666666" points="1722,-185 1555.25,-185 1555.25,-165 1722,-165 1722,-185"/>
<text text-anchor="middle" x="1638.62" y="-171.5" font-family="Helvetica,sans-Serif" font-size="10.00">std::unique_ptr&lt; ShaderManager &gt;</text>
</a>
</g>
</g>
<!-- Node1&#45;&gt;Node3 -->
<g id="edge3_Node000003_Node000001" class="edge">
<title>Node1&#45;&gt;Node3</title>
<g id="a_edge3_Node000003_Node000001"><a xlink:title=" ">
<path fill="none" stroke="#9a32cd" stroke-dasharray="5,2" d="M1516.47,-160.77C1528.9,-162.23 1542.03,-163.77 1554.89,-165.28"/>
<polygon fill="#9a32cd" stroke="#9a32cd" points="1517.13,-157.32 1506.79,-159.63 1516.32,-164.27 1517.13,-157.32"/>
</a>
</g>
<text text-anchor="middle" x="1530.12" y="-164.5" font-family="Helvetica,sans-Serif" font-size="10.00" fill="grey"> ptr</text>
</g>
<!-- Node2 -->
<g id="Node000002" class="node">
<title>Node2</title>
<g id="a_Node000002"><a xlink:href="../../d5/d01/a01945.html" target="_top" xlink:title=" ">
<polygon fill="white" stroke="#666666" points="1972.75,-163 1803,-163 1803,-143 1972.75,-143 1972.75,-163"/>
<text text-anchor="middle" x="1887.88" y="-149.5" font-family="Helvetica,sans-Serif" font-size="10.00">GEU::Singleton&lt; ShaderManager &gt;</text>
</a>
</g>
</g>
<!-- Node2&#45;&gt;Node1 -->
<g id="edge1_Node000001_Node000002" class="edge">
<title>Node2&#45;&gt;Node1</title>
<g id="a_edge1_Node000001_Node000002"><a xlink:title=" ">
<path fill="none" stroke="#63b8ff" d="M1791.43,-153C1703.78,-153 1576.95,-153 1505.22,-153"/>
<polygon fill="#63b8ff" stroke="#63b8ff" points="1791.21,-156.5 1801.21,-153 1791.21,-149.5 1791.21,-156.5"/>
</a>
</g>
</g>
<!-- Node3&#45;&gt;Node2 -->
<g id="edge2_Node000002_Node000003" class="edge">
<title>Node3&#45;&gt;Node2</title>
<g id="a_edge2_Node000002_Node000003"><a xlink:title=" ">
<path fill="none" stroke="#9a32cd" stroke-dasharray="5,2" d="M1733.65,-166.63C1756.32,-164.62 1780.4,-162.47 1802.59,-160.5"/>
<polygon fill="#9a32cd" stroke="#9a32cd" points="1733.46,-163.14 1723.81,-167.51 1734.08,-170.11 1733.46,-163.14"/>
</a>
</g>
<text text-anchor="middle" x="1762.5" y="-167.5" font-family="Helvetica,sans-Serif" font-size="10.00" fill="grey"> _instance</text>
</g>
<!-- Node4 -->
<g id="Node000004" class="node">
<title>Node4</title>
<g id="a_Node000004"><a xlink:title=" ">
<polygon fill="white" stroke="#666666" points="1273.75,-218 1159.5,-218 1159.5,-174 1273.75,-174 1273.75,-218"/>
<text text-anchor="start" x="1167.5" y="-204.5" font-family="Helvetica,sans-Serif" font-size="10.00">std::map&lt; std::string,</text>
<text text-anchor="start" x="1167.5" y="-192.5" font-family="Helvetica,sans-Serif" font-size="10.00"> std::unique_ptr&lt; GEU</text>
<text text-anchor="middle" x="1216.62" y="-180.5" font-family="Helvetica,sans-Serif" font-size="10.00">::RenderingShader &gt; &gt;</text>
</a>
</g>
</g>
<!-- Node4&#45;&gt;Node1 -->
<g id="edge4_Node000001_Node000004" class="edge">
<title>Node4&#45;&gt;Node1</title>
<g id="a_edge4_Node000001_Node000004"><a xlink:title=" ">
<path fill="none" stroke="#9a32cd" stroke-dasharray="5,2" d="M1284.99,-183.45C1319.43,-177.03 1360.81,-169.32 1393.31,-163.26"/>
<polygon fill="#9a32cd" stroke="#9a32cd" points="1284.75,-179.93 1275.56,-185.2 1286.03,-186.81 1284.75,-179.93"/>
</a>
</g>
<text text-anchor="middle" x="1333.75" y="-184.5" font-family="Helvetica,sans-Serif" font-size="10.00" fill="grey"> _renderingShaders</text>
</g>
<!-- Node5 -->
<g id="Node000005" class="node">
<title>Node5</title>
<g id="a_Node000005"><a xlink:title=" ">
<polygon fill="white" stroke="#666666" points="190.5,-150 131,-150 131,-130 190.5,-130 190.5,-150"/>
<text text-anchor="middle" x="160.75" y="-136.5" font-family="Helvetica,sans-Serif" font-size="10.00">std::string</text>
</a>
</g>
</g>
<!-- Node5&#45;&gt;Node4 -->
<g id="edge5_Node000004_Node000005" class="edge">
<title>Node5&#45;&gt;Node4</title>
<g id="a_edge5_Node000004_Node000005"><a xlink:title=" ">
<path fill="none" stroke="#9a32cd" stroke-dasharray="5,2" d="M171.19,-160.69C179.5,-177.53 192.72,-201.32 208.5,-219 247.85,-263.1 265.4,-284 324.5,-284 324.5,-284 324.5,-284 1026.5,-284 1088.61,-284 1152.38,-244.51 1187.71,-218.43"/>
<polygon fill="#9a32cd" stroke="#9a32cd" points="174.36,-159.19 166.9,-151.67 168.04,-162.2 174.36,-159.19"/>
</a>
</g>
<text text-anchor="middle" x="721.75" y="-286.5" font-family="Helvetica,sans-Serif" font-size="10.00" fill="grey"> keys</text>
</g>
<!-- Node9 -->
<g id="Node000009" class="node">
<title>Node9</title>
<g id="a_Node000009"><a xlink:href="../../dd/d02/a01545.html" target="_top" xlink:title=" ">
<polygon fill="white" stroke="#666666" points="640.75,-170 530.25,-170 530.25,-150 640.75,-150 640.75,-170"/>
<text text-anchor="middle" x="585.5" y="-156.5" font-family="Helvetica,sans-Serif" font-size="10.00">GEU::ShaderProgram</text>
</a>
</g>
</g>
<!-- Node5&#45;&gt;Node9 -->
<g id="edge10_Node000009_Node000005" class="edge">
<title>Node5&#45;&gt;Node9</title>
<g id="a_edge10_Node000009_Node000005"><a xlink:title=" ">
<path fill="none" stroke="#9a32cd" stroke-dasharray="5,2" d="M178,-121.15C197.3,-100.34 231.66,-68.06 269.25,-55 316.48,-38.58 333.3,-42.65 381.75,-55 454.6,-73.58 462.82,-102.76 530.25,-136 539.76,-140.69 550.41,-145.49 559.73,-149.55"/>
<polygon fill="#9a32cd" stroke="#9a32cd" points="175.55,-118.63 171.47,-128.41 180.76,-123.31 175.55,-118.63"/>
</a>
</g>
<text text-anchor="middle" x="325.5" y="-105.5" font-family="Helvetica,sans-Serif" font-size="10.00" fill="grey"> MODULE_FILE_CHAR_1</text>
<text text-anchor="middle" x="325.5" y="-93.5" font-family="Helvetica,sans-Serif" font-size="10.00" fill="grey">MODULE_FILE_CHAR_2</text>
<text text-anchor="middle" x="325.5" y="-81.5" font-family="Helvetica,sans-Serif" font-size="10.00" fill="grey">MODULE_HEADER</text>
<text text-anchor="middle" x="325.5" y="-69.5" font-family="Helvetica,sans-Serif" font-size="10.00" fill="grey">_logString</text>
<text text-anchor="middle" x="325.5" y="-57.5" font-family="Helvetica,sans-Serif" font-size="10.00" fill="grey">shaderPath</text>
</g>
<!-- Node10 -->
<g id="Node000010" class="node">
<title>Node10</title>
<g id="a_Node000010"><a xlink:title=" ">
<polygon fill="white" stroke="#666666" points="376.62,-256 274.38,-256 274.38,-212 376.62,-212 376.62,-256"/>
<text text-anchor="start" x="282.38" y="-242.5" font-family="Helvetica,sans-Serif" font-size="10.00">std::unordered_map</text>
<text text-anchor="start" x="282.38" y="-230.5" font-family="Helvetica,sans-Serif" font-size="10.00">&lt; std::string, std::</text>
<text text-anchor="middle" x="325.5" y="-218.5" font-family="Helvetica,sans-Serif" font-size="10.00">string &gt;</text>
</a>
</g>
</g>
<!-- Node5&#45;&gt;Node10 -->
<g id="edge12_Node000010_Node000005" class="edge">
<title>Node5&#45;&gt;Node10</title>
<g id="a_edge12_Node000010_Node000005"><a xlink:title=" ">
<path fill="none" stroke="#9a32cd" stroke-dasharray="5,2" d="M189.02,-156.17C210.7,-168.98 241.84,-187.28 269.25,-203 274.12,-205.79 279.24,-208.7 284.32,-211.57"/>
<polygon fill="#9a32cd" stroke="#9a32cd" points="190.89,-153.21 180.5,-151.13 187.32,-159.23 190.89,-153.21"/>
</a>
</g>
<text text-anchor="middle" x="229.88" y="-205.5" font-family="Helvetica,sans-Serif" font-size="10.00" fill="grey"> elements</text>
<text text-anchor="middle" x="229.88" y="-193.5" font-family="Helvetica,sans-Serif" font-size="10.00" fill="grey">keys</text>
</g>
<!-- Node12 -->
<g id="Node000012" class="node">
<title>Node12</title>
<g id="a_Node000012"><a xlink:title=" ">
<polygon fill="white" stroke="#666666" points="378.88,-156 272.12,-156 272.12,-124 378.88,-124 378.88,-156"/>
<text text-anchor="start" x="280.12" y="-142.5" font-family="Helvetica,sans-Serif" font-size="10.00">std::unordered_map</text>
<text text-anchor="middle" x="325.5" y="-130.5" font-family="Helvetica,sans-Serif" font-size="10.00">&lt; std::string, GLint &gt;</text>
</a>
</g>
</g>
<!-- Node5&#45;&gt;Node12 -->
<g id="edge15_Node000012_Node000005" class="edge">
<title>Node5&#45;&gt;Node12</title>
<g id="a_edge15_Node000012_Node000005"><a xlink:title=" ">
<path fill="none" stroke="#9a32cd" stroke-dasharray="5,2" d="M202.26,-140C223.24,-140 249.11,-140 271.64,-140"/>
<polygon fill="#9a32cd" stroke="#9a32cd" points="202.36,-136.5 192.36,-140 202.36,-143.5 202.36,-136.5"/>
</a>
</g>
<text text-anchor="middle" x="229.88" y="-142.5" font-family="Helvetica,sans-Serif" font-size="10.00" fill="grey"> keys</text>
</g>
<!-- Node14 -->
<g id="Node000014" class="node">
<title>Node14</title>
<g id="a_Node000014"><a xlink:title=" ">
<polygon fill="white" stroke="#666666" points="1273.38,-145 1159.88,-145 1159.88,-101 1273.38,-101 1273.38,-145"/>
<text text-anchor="start" x="1167.88" y="-131.5" font-family="Helvetica,sans-Serif" font-size="10.00">std::map&lt; std::string,</text>
<text text-anchor="start" x="1167.88" y="-119.5" font-family="Helvetica,sans-Serif" font-size="10.00"> std::unique_ptr&lt; GEU</text>
<text text-anchor="middle" x="1216.62" y="-107.5" font-family="Helvetica,sans-Serif" font-size="10.00">::ComputeShader &gt; &gt;</text>
</a>
</g>
</g>
<!-- Node5&#45;&gt;Node14 -->
<g id="edge18_Node000014_Node000005" class="edge">
<title>Node5&#45;&gt;Node14</title>
<g id="a_edge18_Node000014_Node000005"><a xlink:title=" ">
<path fill="none" stroke="#9a32cd" stroke-dasharray="5,2" d="M169.89,-119.37C177.66,-101.8 190.8,-76.81 208.5,-60 250.59,-20.03 266.46,0 324.5,0 324.5,0 324.5,0 1026.5,0 1099.55,0 1166.54,-65.28 1197.53,-100.73"/>
<polygon fill="#9a32cd" stroke="#9a32cd" points="166.79,-117.71 166.15,-128.29 173.24,-120.42 166.79,-117.71"/>
</a>
</g>
<text text-anchor="middle" x="721.75" y="-2.5" font-family="Helvetica,sans-Serif" font-size="10.00" fill="grey"> keys</text>
</g>
<!-- Node6 -->
<g id="Node000006" class="node">
<title>Node6</title>
<g id="a_Node000006"><a xlink:title=" ">
<polygon fill="white" stroke="#666666" points="94,-156 0,-156 0,-124 94,-124 94,-156"/>
<text text-anchor="start" x="8" y="-142.5" font-family="Helvetica,sans-Serif" font-size="10.00">std::basic_string&lt;</text>
<text text-anchor="middle" x="47" y="-130.5" font-family="Helvetica,sans-Serif" font-size="10.00"> Char &gt;</text>
</a>
</g>
</g>
<!-- Node6&#45;&gt;Node5 -->
<g id="edge6_Node000005_Node000006" class="edge">
<title>Node6&#45;&gt;Node5</title>
<g id="a_edge6_Node000005_Node000006"><a xlink:title=" ">
<path fill="none" stroke="#63b8ff" d="M105.71,-140C114.32,-140 122.87,-140 130.55,-140"/>
<polygon fill="#63b8ff" stroke="#63b8ff" points="105.93,-136.5 95.93,-140 105.93,-143.5 105.93,-136.5"/>
</a>
</g>
</g>
<!-- Node7 -->
<g id="Node000007" class="node">
<title>Node7</title>
<g id="a_Node000007"><a xlink:title=" ">
<polygon fill="white" stroke="#666666" points="1080.75,-212 970.25,-212 970.25,-180 1080.75,-180 1080.75,-212"/>
<text text-anchor="start" x="978.25" y="-198.5" font-family="Helvetica,sans-Serif" font-size="10.00">std::unique_ptr&lt; GEU</text>
<text text-anchor="middle" x="1025.5" y="-186.5" font-family="Helvetica,sans-Serif" font-size="10.00">::RenderingShader &gt;</text>
</a>
</g>
</g>
<!-- Node7&#45;&gt;Node4 -->
<g id="edge7_Node000004_Node000007" class="edge">
<title>Node7&#45;&gt;Node4</title>
<g id="a_edge7_Node000004_Node000007"><a xlink:title=" ">
<path fill="none" stroke="#9a32cd" stroke-dasharray="5,2" d="M1092.64,-196C1114.31,-196 1138.18,-196 1159.07,-196"/>
<polygon fill="#9a32cd" stroke="#9a32cd" points="1092.72,-192.5 1082.72,-196 1092.72,-199.5 1092.72,-192.5"/>
</a>
</g>
<text text-anchor="middle" x="1120.12" y="-198.5" font-family="Helvetica,sans-Serif" font-size="10.00" fill="grey"> elements</text>
</g>
<!-- Node8 -->
<g id="Node000008" class="node">
<title>Node8</title>
<g id="a_Node000008"><a xlink:href="../../d1/d02/a01533.html" target="_top" xlink:title=" ">
<polygon fill="white" stroke="#666666" points="920,-206 802.75,-206 802.75,-186 920,-186 920,-206"/>
<text text-anchor="middle" x="861.38" y="-192.5" font-family="Helvetica,sans-Serif" font-size="10.00">GEU::RenderingShader</text>
</a>
</g>
</g>
<!-- Node8&#45;&gt;Node7 -->
<g id="edge8_Node000007_Node000008" class="edge">
<title>Node8&#45;&gt;Node7</title>
<g id="a_edge8_Node000007_Node000008"><a xlink:title=" ">
<path fill="none" stroke="#9a32cd" stroke-dasharray="5,2" d="M931.94,-196C944.6,-196 957.65,-196 969.81,-196"/>
<polygon fill="#9a32cd" stroke="#9a32cd" points="931.96,-192.5 921.96,-196 931.96,-199.5 931.96,-192.5"/>
</a>
</g>
<text text-anchor="middle" x="945.12" y="-198.5" font-family="Helvetica,sans-Serif" font-size="10.00" fill="grey"> ptr</text>
</g>
<!-- Node9&#45;&gt;Node8 -->
<g id="edge9_Node000008_Node000009" class="edge">
<title>Node9&#45;&gt;Node8</title>
<g id="a_edge9_Node000008_Node000009"><a xlink:title=" ">
<path fill="none" stroke="#63b8ff" d="M652.22,-168.64C697.93,-174.65 758.31,-182.58 802.26,-188.36"/>
<polygon fill="#63b8ff" stroke="#63b8ff" points="652.81,-165.19 642.44,-167.35 651.9,-172.13 652.81,-165.19"/>
</a>
</g>
</g>
<!-- Node16 -->
<g id="Node000016" class="node">
<title>Node16</title>
<g id="a_Node000016"><a xlink:href="../../db/d06/a01529.html" target="_top" xlink:title=" ">
<polygon fill="white" stroke="#666666" points="917.75,-133 805,-133 805,-113 917.75,-113 917.75,-133"/>
<text text-anchor="middle" x="861.38" y="-119.5" font-family="Helvetica,sans-Serif" font-size="10.00">GEU::ComputeShader</text>
</a>
</g>
</g>
<!-- Node9&#45;&gt;Node16 -->
<g id="edge21_Node000016_Node000009" class="edge">
<title>Node9&#45;&gt;Node16</title>
<g id="a_edge21_Node000016_Node000009"><a xlink:title=" ">
<path fill="none" stroke="#63b8ff" d="M652.12,-151.13C698.67,-144.85 760.47,-136.5 804.63,-130.53"/>
<polygon fill="#63b8ff" stroke="#63b8ff" points="651.88,-147.64 642.44,-152.44 652.81,-154.57 651.88,-147.64"/>
</a>
</g>
</g>
<!-- Node10&#45;&gt;Node9 -->
<g id="edge11_Node000009_Node000010" class="edge">
<title>Node10&#45;&gt;Node9</title>
<g id="a_edge11_Node000009_Node000010"><a xlink:title=" ">
<path fill="none" stroke="#9a32cd" stroke-dasharray="5,2" d="M388.13,-223.93C424.8,-216.99 471.9,-206.41 512.25,-192 520.67,-188.99 522.13,-186.75 530.25,-183 539.54,-178.71 549.85,-174.27 558.96,-170.44"/>
<polygon fill="#9a32cd" stroke="#9a32cd" points="387.78,-220.44 378.59,-225.69 389.06,-227.32 387.78,-220.44"/>
</a>
</g>
<text text-anchor="middle" x="456" y="-223.5" font-family="Helvetica,sans-Serif" font-size="10.00" fill="grey"> _moduleCode</text>
</g>
<!-- Node11 -->
<g id="Node000011" class="node">
<title>Node11</title>
<g id="a_Node000011"><a xlink:title=" ">
<polygon fill="white" stroke="#666666" points="379.25,-194 271.75,-194 271.75,-174 379.25,-174 379.25,-194"/>
<text text-anchor="middle" x="325.5" y="-180.5" font-family="Helvetica,sans-Serif" font-size="10.00">std::vector&lt; GLuint &gt;</text>
</a>
</g>
</g>
<!-- Node11&#45;&gt;Node9 -->
<g id="edge13_Node000009_Node000011" class="edge">
<title>Node11&#45;&gt;Node9</title>
<g id="a_edge13_Node000009_Node000011"><a xlink:title=" ">
<path fill="none" stroke="#9a32cd" stroke-dasharray="5,2" d="M391.08,-177.99C433.92,-174.01 489.51,-168.84 530.09,-165.06"/>
<polygon fill="#9a32cd" stroke="#9a32cd" points="390.78,-174.5 381.15,-178.92 391.43,-181.47 390.78,-174.5"/>
</a>
</g>
<text text-anchor="middle" x="456" y="-178.5" font-family="Helvetica,sans-Serif" font-size="10.00" fill="grey"> _activeSubroutineUniform</text>
</g>
<!-- Node12&#45;&gt;Node9 -->
<g id="edge14_Node000009_Node000012" class="edge">
<title>Node12&#45;&gt;Node9</title>
<g id="a_edge14_Node000009_Node000012"><a xlink:title=" ">
<path fill="none" stroke="#9a32cd" stroke-dasharray="5,2" d="M390.56,-134.34C426.52,-132.41 472.1,-132.02 512.25,-138 527.42,-140.26 543.82,-145.05 557.15,-149.58"/>
<polygon fill="#9a32cd" stroke="#9a32cd" points="390.53,-130.84 380.76,-134.93 390.95,-137.83 390.53,-130.84"/>
</a>
</g>
<text text-anchor="middle" x="456" y="-152.5" font-family="Helvetica,sans-Serif" font-size="10.00" fill="grey"> subroutineLocation</text>
<text text-anchor="middle" x="456" y="-140.5" font-family="Helvetica,sans-Serif" font-size="10.00" fill="grey">uniformLocation</text>
</g>
<!-- Node13 -->
<g id="Node000013" class="node">
<title>Node13</title>
<g id="a_Node000013"><a xlink:title=" ">
<polygon fill="white" stroke="#666666" points="634,-212 537,-212 537,-192 634,-192 634,-212"/>
<text text-anchor="middle" x="585.5" y="-198.5" font-family="Helvetica,sans-Serif" font-size="10.00">std::vector&lt; bool &gt;</text>
</a>
</g>
</g>
<!-- Node13&#45;&gt;Node8 -->
<g id="edge16_Node000008_Node000013" class="edge">
<title>Node13&#45;&gt;Node8</title>
<g id="a_edge16_Node000008_Node000013"><a xlink:title=" ">
<path fill="none" stroke="#9a32cd" stroke-dasharray="5,2" d="M645.59,-200.71C691.96,-199.69 756.17,-198.28 802.28,-197.27"/>
<polygon fill="#9a32cd" stroke="#9a32cd" points="645.64,-197.2 635.72,-200.92 645.79,-204.2 645.64,-197.2"/>
</a>
</g>
<text text-anchor="middle" x="721.75" y="-202.5" font-family="Helvetica,sans-Serif" font-size="10.00" fill="grey"> _implementsSubroutine</text>
</g>
<!-- Node14&#45;&gt;Node1 -->
<g id="edge17_Node000001_Node000014" class="edge">
<title>Node14&#45;&gt;Node1</title>
<g id="a_edge17_Node000001_Node000014"><a xlink:title=" ">
<path fill="none" stroke="#9a32cd" stroke-dasharray="5,2" d="M1285.19,-131.78C1319.67,-136.27 1361.09,-141.65 1393.57,-145.87"/>
<polygon fill="#9a32cd" stroke="#9a32cd" points="1285.65,-128.31 1275.28,-130.5 1284.74,-135.26 1285.65,-128.31"/>
</a>
</g>
<text text-anchor="middle" x="1333.75" y="-145.5" font-family="Helvetica,sans-Serif" font-size="10.00" fill="grey"> _computeShaders</text>
</g>
<!-- Node15 -->
<g id="Node000015" class="node">
<title>Node15</title>
<g id="a_Node000015"><a xlink:title=" ">
<polygon fill="white" stroke="#666666" points="1080.75,-139 970.25,-139 970.25,-107 1080.75,-107 1080.75,-139"/>
<text text-anchor="start" x="978.25" y="-125.5" font-family="Helvetica,sans-Serif" font-size="10.00">std::unique_ptr&lt; GEU</text>
<text text-anchor="middle" x="1025.5" y="-113.5" font-family="Helvetica,sans-Serif" font-size="10.00">::ComputeShader &gt;</text>
</a>
</g>
</g>
<!-- Node15&#45;&gt;Node14 -->
<g id="edge19_Node000014_Node000015" class="edge">
<title>Node15&#45;&gt;Node14</title>
<g id="a_edge19_Node000014_Node000015"><a xlink:title=" ">
<path fill="none" stroke="#9a32cd" stroke-dasharray="5,2" d="M1092.7,-123C1114.47,-123 1138.45,-123 1159.4,-123"/>
<polygon fill="#9a32cd" stroke="#9a32cd" points="1092.72,-119.5 1082.72,-123 1092.72,-126.5 1092.72,-119.5"/>
</a>
</g>
<text text-anchor="middle" x="1120.12" y="-125.5" font-family="Helvetica,sans-Serif" font-size="10.00" fill="grey"> elements</text>
</g>
<!-- Node16&#45;&gt;Node15 -->
<g id="edge20_Node000015_Node000016" class="edge">
<title>Node16&#45;&gt;Node15</title>
<g id="a_edge20_Node000015_Node000016"><a xlink:title=" ">
<path fill="none" stroke="#9a32cd" stroke-dasharray="5,2" d="M929.36,-123C942.88,-123 956.94,-123 969.97,-123"/>
<polygon fill="#9a32cd" stroke="#9a32cd" points="929.68,-119.5 919.68,-123 929.68,-126.5 929.68,-119.5"/>
</a>
</g>
<text text-anchor="middle" x="945.12" y="-125.5" font-family="Helvetica,sans-Serif" font-size="10.00" fill="grey"> ptr</text>
</g>
<!-- Node17 -->
<g id="Node000017" class="node">
<title>Node17</title>
<g id="a_Node000017"><a xlink:title=" ">
<polygon fill="white" stroke="#666666" points="636.62,-127 534.38,-127 534.38,-107 636.62,-107 636.62,-127"/>
<text text-anchor="middle" x="585.5" y="-113.5" font-family="Helvetica,sans-Serif" font-size="10.00">std::vector&lt; GLint &gt;</text>
</a>
</g>
</g>
<!-- Node17&#45;&gt;Node16 -->
<g id="edge22_Node000016_Node000017" class="edge">
<title>Node17&#45;&gt;Node16</title>
<g id="a_edge22_Node000016_Node000017"><a xlink:title=" ">
<path fill="none" stroke="#9a32cd" stroke-dasharray="5,2" d="M648.49,-116.34C687.59,-116.17 739.14,-116.38 784.75,-118 791.19,-118.23 797.94,-118.55 804.64,-118.93"/>
<polygon fill="#9a32cd" stroke="#9a32cd" points="648.53,-112.84 638.55,-116.4 648.57,-119.84 648.53,-112.84"/>
</a>
</g>
<text text-anchor="middle" x="721.75" y="-120.5" font-family="Helvetica,sans-Serif" font-size="10.00" fill="grey"> MAX_WORK_GROUP_SIZE</text>
</g>
</g>
</svg>
