<?xml version="1.0" encoding="UTF-8" standalone="no"?>
<!DOCTYPE svg PUBLIC "-//W3C//DTD SVG 1.1//EN"
 "http://www.w3.org/Graphics/SVG/1.1/DTD/svg11.dtd">
<!-- Generated by graphviz version 10.0.1 (20240210.2158)
 -->
<!-- Title: GEU::SettingsWindow Pages: 1 -->
<svg width="122pt" height="222pt"
 viewBox="0.00 0.00 121.50 222.00" xmlns="http://www.w3.org/2000/svg" xmlns:xlink="http://www.w3.org/1999/xlink">
<g id="graph0" class="graph" transform="scale(1 1) rotate(0) translate(4 218)">
<title>GEU::SettingsWindow</title>
<!-- Node1 -->
<g id="Node000001" class="node">
<title>Node1</title>
<g id="a_Node000001"><a xlink:title="Application settings window: handles application&#45;wide parameters and behaviours.">
<polygon fill="#999999" stroke="#666666" points="113.5,-20 0,-20 0,0 113.5,0 113.5,-20"/>
<text text-anchor="middle" x="56.75" y="-6.5" font-family="Helvetica,sans-Serif" font-size="10.00">GEU::SettingsWindow</text>
</a>
</g>
</g>
<!-- Node2 -->
<g id="Node000002" class="node">
<title>Node2</title>
<g id="a_Node000002"><a xlink:href="../../d4/d01/a01797.html" target="_top" xlink:title="ImGUI window interface adapter class.">
<polygon fill="white" stroke="#666666" points="107.5,-77 6,-77 6,-57 107.5,-57 107.5,-77"/>
<text text-anchor="middle" x="56.75" y="-63.5" font-family="Helvetica,sans-Serif" font-size="10.00">GEU::I_GUIWindow</text>
</a>
</g>
</g>
<!-- Node2&#45;&gt;Node1 -->
<g id="edge1_Node000001_Node000002" class="edge">
<title>Node2&#45;&gt;Node1</title>
<g id="a_edge1_Node000001_Node000002"><a xlink:title=" ">
<path fill="none" stroke="#63b8ff" d="M56.75,-45.69C56.75,-36.97 56.75,-27.22 56.75,-20.28"/>
<polygon fill="#63b8ff" stroke="#63b8ff" points="53.25,-45.4 56.75,-55.4 60.25,-45.4 53.25,-45.4"/>
</a>
</g>
</g>
<!-- Node3 -->
<g id="Node000003" class="node">
<title>Node3</title>
<g id="a_Node000003"><a xlink:title=" ">
<polygon fill="white" stroke="#666666" points="86.5,-145 27,-145 27,-125 86.5,-125 86.5,-145"/>
<text text-anchor="middle" x="56.75" y="-131.5" font-family="Helvetica,sans-Serif" font-size="10.00">std::string</text>
</a>
</g>
</g>
<!-- Node3&#45;&gt;Node2 -->
<g id="edge2_Node000002_Node000003" class="edge">
<title>Node3&#45;&gt;Node2</title>
<g id="a_edge2_Node000002_Node000003"><a xlink:title=" ">
<path fill="none" stroke="#9a32cd" stroke-dasharray="5,2" d="M56.75,-113.28C56.75,-101.27 56.75,-86.74 56.75,-77.44"/>
<polygon fill="#9a32cd" stroke="#9a32cd" points="53.25,-113.03 56.75,-123.03 60.25,-113.03 53.25,-113.03"/>
</a>
</g>
<text text-anchor="middle" x="81.12" y="-97.5" font-family="Helvetica,sans-Serif" font-size="10.00" fill="grey"> _windowID</text>
</g>
<!-- Node4 -->
<g id="Node000004" class="node">
<title>Node4</title>
<g id="a_Node000004"><a xlink:title=" ">
<polygon fill="white" stroke="#666666" points="103.75,-214 9.75,-214 9.75,-182 103.75,-182 103.75,-214"/>
<text text-anchor="start" x="17.75" y="-200.5" font-family="Helvetica,sans-Serif" font-size="10.00">std::basic_string&lt;</text>
<text text-anchor="middle" x="56.75" y="-188.5" font-family="Helvetica,sans-Serif" font-size="10.00"> Char &gt;</text>
</a>
</g>
</g>
<!-- Node4&#45;&gt;Node3 -->
<g id="edge3_Node000003_Node000004" class="edge">
<title>Node4&#45;&gt;Node3</title>
<g id="a_edge3_Node000003_Node000004"><a xlink:title=" ">
<path fill="none" stroke="#63b8ff" d="M56.75,-170.36C56.75,-161.41 56.75,-152.01 56.75,-145.31"/>
<polygon fill="#63b8ff" stroke="#63b8ff" points="53.25,-170.09 56.75,-180.09 60.25,-170.09 53.25,-170.09"/>
</a>
</g>
</g>
</g>
</svg>
