<?xml version="1.0" encoding="UTF-8" standalone="no"?>
<!DOCTYPE svg PUBLIC "-//W3C//DTD SVG 1.1//EN"
 "http://www.w3.org/Graphics/SVG/1.1/DTD/svg11.dtd">
<!-- Generated by graphviz version 10.0.1 (20240210.2158)
 -->
<!-- Title: GEU::FileManager::loadPointCloud Pages: 1 -->
<svg width="304pt" height="278pt"
 viewBox="0.00 0.00 304.00 278.00" xmlns="http://www.w3.org/2000/svg" xmlns:xlink="http://www.w3.org/1999/xlink">
<g id="graph0" class="graph" transform="scale(1 1) rotate(0) translate(4 274)">
<title>GEU::FileManager::loadPointCloud</title>
<!-- Node1 -->
<g id="Node000001" class="node">
<title>Node1</title>
<g id="a_Node000001"><a xlink:title="Carga la nube de puntos especificada.">
<polygon fill="#999999" stroke="#666666" points="296,-148 153.25,-148 153.25,-116 296,-116 296,-148"/>
<text text-anchor="start" x="161.25" y="-134.5" font-family="Helvetica,sans-Serif" font-size="10.00">GEU::FileManager::loadPoint</text>
<text text-anchor="middle" x="224.62" y="-122.5" font-family="Helvetica,sans-Serif" font-size="10.00">Cloud</text>
</a>
</g>
</g>
<!-- Node2 -->
<g id="Node000002" class="node">
<title>Node2</title>
<g id="a_Node000002"><a xlink:href="../../d9/d05/a01673.html#a866aada3b1653f447d9293e8065ad9df" target="_top" xlink:title=" ">
<polygon fill="white" stroke="#666666" points="114.25,-270 3,-270 3,-238 114.25,-238 114.25,-270"/>
<text text-anchor="start" x="11" y="-256.5" font-family="Helvetica,sans-Serif" font-size="10.00">GEU::ImageCloudProj</text>
<text text-anchor="middle" x="58.62" y="-244.5" font-family="Helvetica,sans-Serif" font-size="10.00">::applyStructureMask</text>
</a>
</g>
</g>
<!-- Node1&#45;&gt;Node2 -->
<g id="edge1_Node000001_Node000002" class="edge">
<title>Node1&#45;&gt;Node2</title>
<g id="a_edge1_Node000001_Node000002"><a xlink:title=" ">
<path fill="none" stroke="#63b8ff" d="M201.38,-156.41C181.05,-177.66 149.34,-208.23 117.25,-229 112.49,-232.08 107.28,-234.94 102.01,-237.54"/>
<polygon fill="#63b8ff" stroke="#63b8ff" points="203.77,-158.99 208.07,-149.31 198.67,-154.19 203.77,-158.99"/>
</a>
</g>
</g>
<!-- Node3 -->
<g id="Node000003" class="node">
<title>Node3</title>
<g id="a_Node000003"><a xlink:href="../../d9/d05/a01673.html#a6e7cb35807c450b23ab3917338910e97" target="_top" xlink:title=" ">
<polygon fill="white" stroke="#666666" points="116.5,-220 0.75,-220 0.75,-188 116.5,-188 116.5,-220"/>
<text text-anchor="start" x="8.75" y="-206.5" font-family="Helvetica,sans-Serif" font-size="10.00">GEU::ImageCloudProj</text>
<text text-anchor="middle" x="58.62" y="-194.5" font-family="Helvetica,sans-Serif" font-size="10.00">::applyVegetationMask</text>
</a>
</g>
</g>
<!-- Node1&#45;&gt;Node3 -->
<g id="edge2_Node000001_Node000003" class="edge">
<title>Node1&#45;&gt;Node3</title>
<g id="a_edge2_Node000001_Node000003"><a xlink:title=" ">
<path fill="none" stroke="#63b8ff" d="M176.26,-153.01C157.85,-161.15 136.58,-170.54 117.25,-179 110.86,-181.8 104.06,-184.76 97.46,-187.63"/>
<polygon fill="#63b8ff" stroke="#63b8ff" points="177.62,-156.24 185.35,-148.99 174.78,-149.83 177.62,-156.24"/>
</a>
</g>
</g>
<!-- Node4 -->
<g id="Node000004" class="node">
<title>Node4</title>
<g id="a_Node000004"><a xlink:href="../../d1/d03/a01429.html#adcf40e0dec97cfb01f7382cf7a330926" target="_top" xlink:title=" ">
<polygon fill="white" stroke="#666666" points="112.38,-170 4.88,-170 4.88,-138 112.38,-138 112.38,-170"/>
<text text-anchor="start" x="12.88" y="-156.5" font-family="Helvetica,sans-Serif" font-size="10.00">GEU::InputManager::</text>
<text text-anchor="middle" x="58.62" y="-144.5" font-family="Helvetica,sans-Serif" font-size="10.00">dropCallback</text>
</a>
</g>
</g>
<!-- Node1&#45;&gt;Node4 -->
<g id="edge3_Node000001_Node000004" class="edge">
<title>Node1&#45;&gt;Node4</title>
<g id="a_edge3_Node000001_Node000004"><a xlink:title=" ">
<path fill="none" stroke="#63b8ff" d="M141.95,-142.96C132.02,-144.29 122.09,-145.62 112.73,-146.88"/>
<polygon fill="#63b8ff" stroke="#63b8ff" points="142.18,-146.46 151.62,-141.66 141.25,-139.52 142.18,-146.46"/>
</a>
</g>
</g>
<!-- Node5 -->
<g id="Node000005" class="node">
<title>Node5</title>
<g id="a_Node000005"><a xlink:href="../../d5/d06/a01773.html#af7ebc89aa431e3a9e86bb1424b819d47" target="_top" xlink:title="Draws ImGUI elements.">
<polygon fill="white" stroke="#666666" points="104.88,-120 12.38,-120 12.38,-100 104.88,-100 104.88,-120"/>
<text text-anchor="middle" x="58.62" y="-106.5" font-family="Helvetica,sans-Serif" font-size="10.00">GEU::GUI::render</text>
</a>
</g>
</g>
<!-- Node1&#45;&gt;Node5 -->
<g id="edge4_Node000001_Node000005" class="edge">
<title>Node1&#45;&gt;Node5</title>
<g id="a_edge4_Node000001_Node000005"><a xlink:title=" ">
<path fill="none" stroke="#63b8ff" d="M141.96,-121.05C129.23,-119.34 116.48,-117.63 104.95,-116.08"/>
<polygon fill="#63b8ff" stroke="#63b8ff" points="141.25,-124.48 151.62,-122.34 142.18,-117.54 141.25,-124.48"/>
</a>
</g>
</g>
<!-- Node6 -->
<g id="Node000006" class="node">
<title>Node6</title>
<g id="a_Node000006"><a xlink:href="../../d7/d02/a01805.html#a63b0402d61dd34944da9280a89fa9f74" target="_top" xlink:title="Renders the window and contents.">
<polygon fill="white" stroke="#666666" points="117.25,-82 0,-82 0,-50 117.25,-50 117.25,-82"/>
<text text-anchor="start" x="8" y="-68.5" font-family="Helvetica,sans-Serif" font-size="10.00">GEU::InspectorWindow</text>
<text text-anchor="middle" x="58.62" y="-56.5" font-family="Helvetica,sans-Serif" font-size="10.00">::renderWindow</text>
</a>
</g>
</g>
<!-- Node1&#45;&gt;Node6 -->
<g id="edge5_Node000001_Node000006" class="edge">
<title>Node1&#45;&gt;Node6</title>
<g id="a_edge5_Node000001_Node000006"><a xlink:title=" ">
<path fill="none" stroke="#63b8ff" d="M172,-111.22C148.88,-101.92 122.01,-91.11 100.35,-82.39"/>
<polygon fill="#63b8ff" stroke="#63b8ff" points="170.68,-114.46 181.26,-114.95 173.29,-107.97 170.68,-114.46"/>
</a>
</g>
</g>
<!-- Node7 -->
<g id="Node000007" class="node">
<title>Node7</title>
<g id="a_Node000007"><a xlink:href="../../d9/d05/a01673.html#a8f674a27c95698f1132dacf9e7a15ab4" target="_top" xlink:title=" ">
<polygon fill="white" stroke="#666666" points="114.25,-32 3,-32 3,0 114.25,0 114.25,-32"/>
<text text-anchor="start" x="11" y="-18.5" font-family="Helvetica,sans-Serif" font-size="10.00">GEU::ImageCloudProj</text>
<text text-anchor="middle" x="58.62" y="-6.5" font-family="Helvetica,sans-Serif" font-size="10.00">::validation</text>
</a>
</g>
</g>
<!-- Node1&#45;&gt;Node7 -->
<g id="edge6_Node000001_Node000007" class="edge">
<title>Node1&#45;&gt;Node7</title>
<g id="a_edge6_Node000001_Node000007"><a xlink:title=" ">
<path fill="none" stroke="#63b8ff" d="M199.4,-107.55C178.85,-87.78 147.91,-60.16 117.25,-41 112.35,-37.94 107.01,-35.07 101.62,-32.45"/>
<polygon fill="#63b8ff" stroke="#63b8ff" points="196.86,-109.96 206.46,-114.45 201.75,-104.95 196.86,-109.96"/>
</a>
</g>
</g>
</g>
</svg>
