<?xml version="1.0" encoding="UTF-8" standalone="no"?>
<!DOCTYPE svg PUBLIC "-//W3C//DTD SVG 1.1//EN"
 "http://www.w3.org/Graphics/SVG/1.1/DTD/svg11.dtd">
<!-- Generated by graphviz version 10.0.1 (20240210.2158)
 -->
<!-- Title: GEU::MaterialList Pages: 1 -->
<svg width="184pt" height="188pt"
 viewBox="0.00 0.00 183.62 188.00" xmlns="http://www.w3.org/2000/svg" xmlns:xlink="http://www.w3.org/1999/xlink">
<g id="graph0" class="graph" transform="scale(1 1) rotate(0) translate(4 184)">
<title>GEU::MaterialList</title>
<!-- Node1 -->
<g id="Node000001" class="node">
<title>Node1</title>
<g id="a_Node000001"><a xlink:title=" ">
<polygon fill="#999999" stroke="#666666" points="175.62,-180 82.38,-180 82.38,-160 175.62,-160 175.62,-180"/>
<text text-anchor="middle" x="129" y="-166.5" font-family="Helvetica,sans-Serif" font-size="10.00">GEU::MaterialList</text>
</a>
</g>
</g>
<!-- Node3 -->
<g id="Node000003" class="node">
<title>Node3</title>
<g id="a_Node000003"><a xlink:title=" ">
<polygon fill="white" stroke="#666666" points="124,-112 0,-112 0,-80 124,-80 124,-112"/>
<text text-anchor="start" x="8" y="-98.5" font-family="Helvetica,sans-Serif" font-size="10.00">std::unique_ptr&lt; Material</text>
<text text-anchor="middle" x="62" y="-86.5" font-family="Helvetica,sans-Serif" font-size="10.00">List &gt;</text>
</a>
</g>
</g>
<!-- Node1&#45;&gt;Node3 -->
<g id="edge3_Node000003_Node000001" class="edge">
<title>Node1&#45;&gt;Node3</title>
<g id="a_edge3_Node000003_Node000001"><a xlink:title=" ">
<path fill="none" stroke="#9a32cd" stroke-dasharray="5,2" d="M112.55,-151.33C101.48,-139.43 87.01,-123.88 76.4,-112.47"/>
<polygon fill="#9a32cd" stroke="#9a32cd" points="109.84,-153.54 119.21,-158.48 114.96,-148.77 109.84,-153.54"/>
</a>
</g>
<text text-anchor="middle" x="111.12" y="-132.5" font-family="Helvetica,sans-Serif" font-size="10.00" fill="grey"> ptr</text>
</g>
<!-- Node2 -->
<g id="Node000002" class="node">
<title>Node2</title>
<g id="a_Node000002"><a xlink:href="../../d1/df9/class_g_e_u_1_1_singleton.html" target="_top" xlink:title=" ">
<polygon fill="white" stroke="#666666" points="170.5,-32 43.5,-32 43.5,0 170.5,0 170.5,-32"/>
<text text-anchor="start" x="51.5" y="-18.5" font-family="Helvetica,sans-Serif" font-size="10.00">GEU::Singleton&lt; Material</text>
<text text-anchor="middle" x="107" y="-6.5" font-family="Helvetica,sans-Serif" font-size="10.00">List &gt;</text>
</a>
</g>
</g>
<!-- Node2&#45;&gt;Node1 -->
<g id="edge1_Node000001_Node000002" class="edge">
<title>Node2&#45;&gt;Node1</title>
<g id="a_edge1_Node000001_Node000002"><a xlink:title=" ">
<path fill="none" stroke="#63b8ff" d="M132.36,-41.23C134.22,-44.01 135.82,-46.95 137,-50 151.86,-88.43 138.78,-139.02 132.22,-159.64"/>
<polygon fill="#63b8ff" stroke="#63b8ff" points="135.24,-39.23 126.26,-33.61 129.78,-43.61 135.24,-39.23"/>
</a>
</g>
</g>
<!-- Node3&#45;&gt;Node2 -->
<g id="edge2_Node000002_Node000003" class="edge">
<title>Node3&#45;&gt;Node2</title>
<g id="a_edge2_Node000002_Node000003"><a xlink:title=" ">
<path fill="none" stroke="#9a32cd" stroke-dasharray="5,2" d="M76.51,-69.86C83.62,-57.52 91.97,-43.05 98.13,-32.38"/>
<polygon fill="#9a32cd" stroke="#9a32cd" points="73.61,-67.87 71.65,-78.28 79.68,-71.37 73.61,-67.87"/>
</a>
</g>
<text text-anchor="middle" x="110.5" y="-52.5" font-family="Helvetica,sans-Serif" font-size="10.00" fill="grey"> _instance</text>
</g>
</g>
</svg>
