<?xml version="1.0" encoding="UTF-8" standalone="no"?>
<!DOCTYPE svg PUBLIC "-//W3C//DTD SVG 1.1//EN"
 "http://www.w3.org/Graphics/SVG/1.1/DTD/svg11.dtd">
<!-- Generated by graphviz version 10.0.1 (20240210.2158)
 -->
<!-- Title: GEU::RenderingShader Pages: 1 -->
<svg width="907pt" height="211pt"
 viewBox="0.00 0.00 907.00 211.00" xmlns="http://www.w3.org/2000/svg" xmlns:xlink="http://www.w3.org/1999/xlink">
<g id="graph0" class="graph" transform="scale(1 1) rotate(0) translate(4 207)">
<title>GEU::RenderingShader</title>
<!-- Node1 -->
<g id="Node000001" class="node">
<title>Node1</title>
<g id="a_Node000001"><a xlink:title=" ">
<polygon fill="#999999" stroke="#666666" points="899,-66 781.75,-66 781.75,-46 899,-46 899,-66"/>
<text text-anchor="middle" x="840.38" y="-52.5" font-family="Helvetica,sans-Serif" font-size="10.00">GEU::RenderingShader</text>
</a>
</g>
</g>
<!-- Node2 -->
<g id="Node000002" class="node">
<title>Node2</title>
<g id="a_Node000002"><a xlink:href="../../dd/d02/a01545.html" target="_top" xlink:title=" ">
<polygon fill="white" stroke="#666666" points="640.75,-91 530.25,-91 530.25,-71 640.75,-71 640.75,-91"/>
<text text-anchor="middle" x="585.5" y="-77.5" font-family="Helvetica,sans-Serif" font-size="10.00">GEU::ShaderProgram</text>
</a>
</g>
</g>
<!-- Node2&#45;&gt;Node1 -->
<g id="edge1_Node000001_Node000002" class="edge">
<title>Node2&#45;&gt;Node1</title>
<g id="a_edge1_Node000001_Node000002"><a xlink:title=" ">
<path fill="none" stroke="#63b8ff" d="M652.31,-74.49C692.3,-70.54 742.91,-65.54 781.4,-61.73"/>
<polygon fill="#63b8ff" stroke="#63b8ff" points="652.17,-70.99 642.56,-75.46 652.86,-77.96 652.17,-70.99"/>
</a>
</g>
</g>
<!-- Node3 -->
<g id="Node000003" class="node">
<title>Node3</title>
<g id="a_Node000003"><a xlink:title=" ">
<polygon fill="white" stroke="#666666" points="190.5,-120 131,-120 131,-100 190.5,-100 190.5,-120"/>
<text text-anchor="middle" x="160.75" y="-106.5" font-family="Helvetica,sans-Serif" font-size="10.00">std::string</text>
</a>
</g>
</g>
<!-- Node3&#45;&gt;Node2 -->
<g id="edge2_Node000002_Node000003" class="edge">
<title>Node3&#45;&gt;Node2</title>
<g id="a_edge2_Node000002_Node000003"><a xlink:title=" ">
<path fill="none" stroke="#9a32cd" stroke-dasharray="5,2" d="M184.37,-126.58C191.71,-131.11 200.13,-135.46 208.5,-138 234.37,-145.85 242.23,-140.33 269.25,-141 377.74,-143.68 409.3,-151.35 512.25,-117 531.79,-110.48 552.71,-99.58 566.99,-91.48"/>
<polygon fill="#9a32cd" stroke="#9a32cd" points="186.35,-123.69 176.08,-121.07 182.47,-129.52 186.35,-123.69"/>
</a>
</g>
<text text-anchor="middle" x="325.5" y="-193.5" font-family="Helvetica,sans-Serif" font-size="10.00" fill="grey"> MODULE_FILE_CHAR_1</text>
<text text-anchor="middle" x="325.5" y="-181.5" font-family="Helvetica,sans-Serif" font-size="10.00" fill="grey">MODULE_FILE_CHAR_2</text>
<text text-anchor="middle" x="325.5" y="-169.5" font-family="Helvetica,sans-Serif" font-size="10.00" fill="grey">MODULE_HEADER</text>
<text text-anchor="middle" x="325.5" y="-157.5" font-family="Helvetica,sans-Serif" font-size="10.00" fill="grey">_logString</text>
<text text-anchor="middle" x="325.5" y="-145.5" font-family="Helvetica,sans-Serif" font-size="10.00" fill="grey">shaderPath</text>
</g>
<!-- Node5 -->
<g id="Node000005" class="node">
<title>Node5</title>
<g id="a_Node000005"><a xlink:title=" ">
<polygon fill="white" stroke="#666666" points="376.62,-132 274.38,-132 274.38,-88 376.62,-88 376.62,-132"/>
<text text-anchor="start" x="282.38" y="-118.5" font-family="Helvetica,sans-Serif" font-size="10.00">std::unordered_map</text>
<text text-anchor="start" x="282.38" y="-106.5" font-family="Helvetica,sans-Serif" font-size="10.00">&lt; std::string, std::</text>
<text text-anchor="middle" x="325.5" y="-94.5" font-family="Helvetica,sans-Serif" font-size="10.00">string &gt;</text>
</a>
</g>
</g>
<!-- Node3&#45;&gt;Node5 -->
<g id="edge5_Node000005_Node000003" class="edge">
<title>Node3&#45;&gt;Node5</title>
<g id="a_edge5_Node000005_Node000003"><a xlink:title=" ">
<path fill="none" stroke="#9a32cd" stroke-dasharray="5,2" d="M202.3,-110C223.98,-110 250.89,-110 273.93,-110"/>
<polygon fill="#9a32cd" stroke="#9a32cd" points="202.36,-106.5 192.36,-110 202.36,-113.5 202.36,-106.5"/>
</a>
</g>
<text text-anchor="middle" x="229.88" y="-124.5" font-family="Helvetica,sans-Serif" font-size="10.00" fill="grey"> elements</text>
<text text-anchor="middle" x="229.88" y="-112.5" font-family="Helvetica,sans-Serif" font-size="10.00" fill="grey">keys</text>
</g>
<!-- Node7 -->
<g id="Node000007" class="node">
<title>Node7</title>
<g id="a_Node000007"><a xlink:title=" ">
<polygon fill="white" stroke="#666666" points="378.88,-70 272.12,-70 272.12,-38 378.88,-38 378.88,-70"/>
<text text-anchor="start" x="280.12" y="-56.5" font-family="Helvetica,sans-Serif" font-size="10.00">std::unordered_map</text>
<text text-anchor="middle" x="325.5" y="-44.5" font-family="Helvetica,sans-Serif" font-size="10.00">&lt; std::string, GLint &gt;</text>
</a>
</g>
</g>
<!-- Node3&#45;&gt;Node7 -->
<g id="edge8_Node000007_Node000003" class="edge">
<title>Node3&#45;&gt;Node7</title>
<g id="a_edge8_Node000007_Node000003"><a xlink:title=" ">
<path fill="none" stroke="#9a32cd" stroke-dasharray="5,2" d="M201.48,-96.33C224.22,-88.5 252.89,-78.64 276.84,-70.4"/>
<polygon fill="#9a32cd" stroke="#9a32cd" points="200.59,-92.93 192.28,-99.5 202.87,-99.55 200.59,-92.93"/>
</a>
</g>
<text text-anchor="middle" x="229.88" y="-95.5" font-family="Helvetica,sans-Serif" font-size="10.00" fill="grey"> keys</text>
</g>
<!-- Node4 -->
<g id="Node000004" class="node">
<title>Node4</title>
<g id="a_Node000004"><a xlink:title=" ">
<polygon fill="white" stroke="#666666" points="94,-126 0,-126 0,-94 94,-94 94,-126"/>
<text text-anchor="start" x="8" y="-112.5" font-family="Helvetica,sans-Serif" font-size="10.00">std::basic_string&lt;</text>
<text text-anchor="middle" x="47" y="-100.5" font-family="Helvetica,sans-Serif" font-size="10.00"> Char &gt;</text>
</a>
</g>
</g>
<!-- Node4&#45;&gt;Node3 -->
<g id="edge3_Node000003_Node000004" class="edge">
<title>Node4&#45;&gt;Node3</title>
<g id="a_edge3_Node000003_Node000004"><a xlink:title=" ">
<path fill="none" stroke="#63b8ff" d="M105.71,-110C114.32,-110 122.87,-110 130.55,-110"/>
<polygon fill="#63b8ff" stroke="#63b8ff" points="105.93,-106.5 95.93,-110 105.93,-113.5 105.93,-106.5"/>
</a>
</g>
</g>
<!-- Node5&#45;&gt;Node2 -->
<g id="edge4_Node000002_Node000005" class="edge">
<title>Node5&#45;&gt;Node2</title>
<g id="a_edge4_Node000002_Node000005"><a xlink:title=" ">
<path fill="none" stroke="#9a32cd" stroke-dasharray="5,2" d="M388.06,-103.08C431.18,-98.23 488.29,-91.81 529.81,-87.15"/>
<polygon fill="#9a32cd" stroke="#9a32cd" points="387.91,-99.58 378.36,-104.17 388.69,-106.53 387.91,-99.58"/>
</a>
</g>
<text text-anchor="middle" x="456" y="-103.5" font-family="Helvetica,sans-Serif" font-size="10.00" fill="grey"> _moduleCode</text>
</g>
<!-- Node6 -->
<g id="Node000006" class="node">
<title>Node6</title>
<g id="a_Node000006"><a xlink:title=" ">
<polygon fill="white" stroke="#666666" points="379.25,-20 271.75,-20 271.75,0 379.25,0 379.25,-20"/>
<text text-anchor="middle" x="325.5" y="-6.5" font-family="Helvetica,sans-Serif" font-size="10.00">std::vector&lt; GLuint &gt;</text>
</a>
</g>
</g>
<!-- Node6&#45;&gt;Node2 -->
<g id="edge6_Node000002_Node000006" class="edge">
<title>Node6&#45;&gt;Node2</title>
<g id="a_edge6_Node000002_Node000006"><a xlink:title=" ">
<path fill="none" stroke="#9a32cd" stroke-dasharray="5,2" d="M390.97,-6.56C428.84,-7.43 476.2,-13.79 512.25,-36 524.22,-43.37 519.07,-53.48 530.25,-62 534.7,-65.39 539.79,-68.2 545.04,-70.53"/>
<polygon fill="#9a32cd" stroke="#9a32cd" points="391.08,-3.06 381.05,-6.46 391.02,-10.06 391.08,-3.06"/>
</a>
</g>
<text text-anchor="middle" x="456" y="-38.5" font-family="Helvetica,sans-Serif" font-size="10.00" fill="grey"> _activeSubroutineUniform</text>
</g>
<!-- Node7&#45;&gt;Node2 -->
<g id="edge7_Node000002_Node000007" class="edge">
<title>Node7&#45;&gt;Node2</title>
<g id="a_edge7_Node000002_Node000007"><a xlink:title=" ">
<path fill="none" stroke="#9a32cd" stroke-dasharray="5,2" d="M390.6,-52.13C426.56,-52.07 472.14,-53.63 512.25,-60 526.57,-62.28 542.05,-66.53 555,-70.61"/>
<polygon fill="#9a32cd" stroke="#9a32cd" points="390.77,-48.63 380.79,-52.2 390.81,-55.63 390.77,-48.63"/>
</a>
</g>
<text text-anchor="middle" x="456" y="-74.5" font-family="Helvetica,sans-Serif" font-size="10.00" fill="grey"> subroutineLocation</text>
<text text-anchor="middle" x="456" y="-62.5" font-family="Helvetica,sans-Serif" font-size="10.00" fill="grey">uniformLocation</text>
</g>
<!-- Node8 -->
<g id="Node000008" class="node">
<title>Node8</title>
<g id="a_Node000008"><a xlink:title=" ">
<polygon fill="white" stroke="#666666" points="634,-53 537,-53 537,-33 634,-33 634,-53"/>
<text text-anchor="middle" x="585.5" y="-39.5" font-family="Helvetica,sans-Serif" font-size="10.00">std::vector&lt; bool &gt;</text>
</a>
</g>
</g>
<!-- Node8&#45;&gt;Node1 -->
<g id="edge9_Node000001_Node000008" class="edge">
<title>Node8&#45;&gt;Node1</title>
<g id="a_edge9_Node000001_Node000008"><a xlink:title=" ">
<path fill="none" stroke="#9a32cd" stroke-dasharray="5,2" d="M645.6,-44.14C680.09,-45.02 724.41,-46.52 763.75,-49 769.54,-49.37 775.57,-49.81 781.6,-50.3"/>
<polygon fill="#9a32cd" stroke="#9a32cd" points="645.9,-40.64 635.82,-43.9 645.73,-47.64 645.9,-40.64"/>
</a>
</g>
<text text-anchor="middle" x="711.25" y="-51.5" font-family="Helvetica,sans-Serif" font-size="10.00" fill="grey"> _implementsSubroutine</text>
</g>
</g>
</svg>
