<?xml version="1.0" encoding="UTF-8" standalone="no"?>
<!DOCTYPE svg PUBLIC "-//W3C//DTD SVG 1.1//EN"
 "http://www.w3.org/Graphics/SVG/1.1/DTD/svg11.dtd">
<!-- Generated by graphviz version 10.0.1 (20240210.2158)
 -->
<!-- Title: C:/GitHub/GEU/GEU/Source/Modules/Multiespectral/MultiespectralGUIAdapter.h Pages: 1 -->
<svg width="322pt" height="132pt"
 viewBox="0.00 0.00 321.62 132.00" xmlns="http://www.w3.org/2000/svg" xmlns:xlink="http://www.w3.org/1999/xlink">
<g id="graph0" class="graph" transform="scale(1 1) rotate(0) translate(4 128)">
<title>C:/GitHub/GEU/GEU/Source/Modules/Multiespectral/MultiespectralGUIAdapter.h</title>
<!-- Node1 -->
<g id="Node000001" class="node">
<title>Node1</title>
<g id="a_Node000001"><a xlink:title=" ">
<polygon fill="#999999" stroke="#666666" points="226.5,-124 86,-124 86,-80 226.5,-80 226.5,-124"/>
<text text-anchor="start" x="94" y="-110.5" font-family="Helvetica,sans-Serif" font-size="10.00">C:/GitHub/GEU/GEU/Source</text>
<text text-anchor="start" x="94" y="-98.5" font-family="Helvetica,sans-Serif" font-size="10.00">/Modules/Multiespectral</text>
<text text-anchor="middle" x="156.25" y="-86.5" font-family="Helvetica,sans-Serif" font-size="10.00">/MultiespectralGUIAdapter.h</text>
</a>
</g>
</g>
<!-- Node2 -->
<g id="Node000002" class="node">
<title>Node2</title>
<g id="a_Node000002"><a xlink:href="../../d6/da6/_module_manager_8cpp.html" target="_top" xlink:title=" ">
<polygon fill="white" stroke="#666666" points="146.5,-38 0,-38 0,-6 146.5,-6 146.5,-38"/>
<text text-anchor="start" x="8" y="-24.5" font-family="Helvetica,sans-Serif" font-size="10.00">C:/GitHub/GEU/GEU/Source</text>
<text text-anchor="middle" x="73.25" y="-12.5" font-family="Helvetica,sans-Serif" font-size="10.00">/Modules/ModuleManager.cpp</text>
</a>
</g>
</g>
<!-- Node1&#45;&gt;Node2 -->
<g id="edge1_Node000001_Node000002" class="edge">
<title>Node1&#45;&gt;Node2</title>
<g id="a_edge1_Node000001_Node000002"><a xlink:title=" ">
<path fill="none" stroke="#63b8ff" d="M125.42,-72.03C113.26,-60.6 99.79,-47.94 89.59,-38.35"/>
<polygon fill="#63b8ff" stroke="#63b8ff" points="122.78,-74.35 132.47,-78.65 127.58,-69.25 122.78,-74.35"/>
</a>
</g>
</g>
<!-- Node3 -->
<g id="Node000003" class="node">
<title>Node3</title>
<g id="a_Node000003"><a xlink:href="../../d8/dd0/_multiespectral_g_u_i_adapter_8cpp.html" target="_top" xlink:title=" ">
<polygon fill="white" stroke="#666666" points="313.62,-44 164.88,-44 164.88,0 313.62,0 313.62,-44"/>
<text text-anchor="start" x="172.88" y="-30.5" font-family="Helvetica,sans-Serif" font-size="10.00">C:/GitHub/GEU/GEU/Source</text>
<text text-anchor="start" x="172.88" y="-18.5" font-family="Helvetica,sans-Serif" font-size="10.00">/Modules/Multiespectral</text>
<text text-anchor="middle" x="239.25" y="-6.5" font-family="Helvetica,sans-Serif" font-size="10.00">/MultiespectralGUIAdapter.cpp</text>
</a>
</g>
</g>
<!-- Node1&#45;&gt;Node3 -->
<g id="edge2_Node000001_Node000003" class="edge">
<title>Node1&#45;&gt;Node3</title>
<g id="a_edge2_Node000001_Node000003"><a xlink:title=" ">
<path fill="none" stroke="#63b8ff" d="M187.22,-71.89C196.97,-62.74 207.54,-52.8 216.6,-44.29"/>
<polygon fill="#63b8ff" stroke="#63b8ff" points="184.92,-69.25 180.03,-78.65 189.72,-74.35 184.92,-69.25"/>
</a>
</g>
</g>
</g>
</svg>
