<?xml version="1.0" encoding="UTF-8" standalone="no"?>
<!DOCTYPE svg PUBLIC "-//W3C//DTD SVG 1.1//EN"
 "http://www.w3.org/Graphics/SVG/1.1/DTD/svg11.dtd">
<!-- Generated by graphviz version 10.0.1 (20240210.2158)
 -->
<!-- Title: json::jtype::detect Pages: 1 -->
<svg width="233pt" height="66pt"
 viewBox="0.00 0.00 232.75 66.00" xmlns="http://www.w3.org/2000/svg" xmlns:xlink="http://www.w3.org/1999/xlink">
<g id="graph0" class="graph" transform="scale(1 1) rotate(0) translate(4 62)">
<title>json::jtype::detect</title>
<!-- Node1 -->
<g id="Node000001" class="node">
<title>Node1</title>
<g id="a_Node000001"><a xlink:title="Geven a string, determines the type of value the string contains.">
<polygon fill="#999999" stroke="#666666" points="94,-39 0,-39 0,-19 94,-19 94,-39"/>
<text text-anchor="middle" x="47" y="-25.5" font-family="Helvetica,sans-Serif" font-size="10.00">json::jtype::detect</text>
</a>
</g>
</g>
<!-- Node2 -->
<g id="Node000002" class="node">
<title>Node2</title>
<g id="a_Node000002"><a xlink:href="../../db/d02/a00641.html#a41134b9f4ec1ec6b8db4f8027536b762" target="_top" xlink:title=" ">
<polygon fill="white" stroke="#666666" points="221.38,-58 133.38,-58 133.38,-38 221.38,-38 221.38,-58"/>
<text text-anchor="middle" x="177.38" y="-44.5" font-family="Helvetica,sans-Serif" font-size="10.00">json::jtype::peek</text>
</a>
</g>
</g>
<!-- Node1&#45;&gt;Node2 -->
<g id="edge1_Node000001_Node000002" class="edge">
<title>Node1&#45;&gt;Node2</title>
<g id="a_edge1_Node000001_Node000002"><a xlink:title=" ">
<path fill="none" stroke="#63b8ff" d="M94.35,-35.86C103.23,-37.17 112.62,-38.56 121.74,-39.91"/>
<polygon fill="#63b8ff" stroke="#63b8ff" points="121.19,-43.37 131.59,-41.37 122.22,-36.45 121.19,-43.37"/>
</a>
</g>
</g>
<!-- Node3 -->
<g id="Node000003" class="node">
<title>Node3</title>
<g id="a_Node000003"><a xlink:href="../../df/d07/a00642.html#a0ead22b90b3354cc09a0a21e517e9385" target="_top" xlink:title="(t)rims (l)eading (w)hite (s)pace">
<polygon fill="white" stroke="#666666" points="224.75,-20 130,-20 130,0 224.75,0 224.75,-20"/>
<text text-anchor="middle" x="177.38" y="-6.5" font-family="Helvetica,sans-Serif" font-size="10.00">json::parsing::tlws</text>
</a>
</g>
</g>
<!-- Node1&#45;&gt;Node3 -->
<g id="edge2_Node000001_Node000003" class="edge">
<title>Node1&#45;&gt;Node3</title>
<g id="a_edge2_Node000001_Node000003"><a xlink:title=" ">
<path fill="none" stroke="#63b8ff" d="M94.35,-22.14C102.16,-20.98 110.35,-19.77 118.41,-18.58"/>
<polygon fill="#63b8ff" stroke="#63b8ff" points="118.79,-22.06 128.17,-17.13 117.76,-15.14 118.79,-22.06"/>
</a>
</g>
</g>
</g>
</svg>
