<?xml version="1.0" encoding="UTF-8" standalone="no"?>
<!DOCTYPE svg PUBLIC "-//W3C//DTD SVG 1.1//EN"
 "http://www.w3.org/Graphics/SVG/1.1/DTD/svg11.dtd">
<!-- Generated by graphviz version 10.0.1 (20240210.2158)
 -->
<!-- Title: Database::SDO_GEOMETRY::fromJSON Pages: 1 -->
<svg width="698pt" height="182pt"
 viewBox="0.00 0.00 697.75 182.00" xmlns="http://www.w3.org/2000/svg" xmlns:xlink="http://www.w3.org/1999/xlink">
<g id="graph0" class="graph" transform="scale(1 1) rotate(0) translate(4 178)">
<title>Database::SDO_GEOMETRY::fromJSON</title>
<!-- Node1 -->
<g id="Node000001" class="node">
<title>Node1</title>
<g id="a_Node000001"><a xlink:title=" ">
<polygon fill="#999999" stroke="#666666" points="145,-130 0,-130 0,-98 145,-98 145,-130"/>
<text text-anchor="start" x="8" y="-116.5" font-family="Helvetica,sans-Serif" font-size="10.00">Database::SDO_GEOMETRY</text>
<text text-anchor="middle" x="72.5" y="-104.5" font-family="Helvetica,sans-Serif" font-size="10.00">::fromJSON</text>
</a>
</g>
</g>
<!-- Node2 -->
<g id="Node000002" class="node">
<title>Node2</title>
<g id="a_Node000002"><a xlink:href="../../d8/d07/classjson_1_1jobject.html#a5d541972aaacc9ff77dc7d4f9988369b" target="_top" xlink:title="Returns the serialized value at a given index.">
<polygon fill="white" stroke="#666666" points="274.25,-143 186.25,-143 186.25,-123 274.25,-123 274.25,-143"/>
<text text-anchor="middle" x="230.25" y="-129.5" font-family="Helvetica,sans-Serif" font-size="10.00">json::jobject::get</text>
</a>
</g>
</g>
<!-- Node1&#45;&gt;Node2 -->
<g id="edge1_Node000001_Node000002" class="edge">
<title>Node1&#45;&gt;Node2</title>
<g id="a_edge1_Node000001_Node000002"><a xlink:title=" ">
<path fill="none" stroke="#63b8ff" d="M145.45,-122.78C155.31,-123.98 165.3,-125.2 174.77,-126.35"/>
<polygon fill="#63b8ff" stroke="#63b8ff" points="174.19,-129.81 184.54,-127.55 175.03,-122.86 174.19,-129.81"/>
</a>
</g>
</g>
<!-- Node3 -->
<g id="Node000003" class="node">
<title>Node3</title>
<g id="a_Node000003"><a xlink:href="../../d8/d07/classjson_1_1jobject.html#a07e29a2948df56e3eb332fcebe6ab9d5" target="_top" xlink:title="Parses a serialized JSON string.">
<polygon fill="white" stroke="#666666" points="279.5,-105 181,-105 181,-85 279.5,-85 279.5,-105"/>
<text text-anchor="middle" x="230.25" y="-91.5" font-family="Helvetica,sans-Serif" font-size="10.00">json::jobject::parse</text>
</a>
</g>
</g>
<!-- Node1&#45;&gt;Node3 -->
<g id="edge2_Node000001_Node000003" class="edge">
<title>Node1&#45;&gt;Node3</title>
<g id="a_edge2_Node000001_Node000003"><a xlink:title=" ">
<path fill="none" stroke="#63b8ff" d="M145.45,-105.22C153.48,-104.24 161.6,-103.25 169.46,-102.29"/>
<polygon fill="#63b8ff" stroke="#63b8ff" points="169.74,-105.79 179.24,-101.1 168.89,-98.84 169.74,-105.79"/>
</a>
</g>
</g>
<!-- Node4 -->
<g id="Node000004" class="node">
<title>Node4</title>
<g id="a_Node000004"><a xlink:href="../../d5/d07/namespacejson_1_1parsing.html#a38da988d5211eacc7d4b76da2236e51a" target="_top" xlink:title="Decodes a string in JSON format.">
<polygon fill="white" stroke="#666666" points="424.5,-174 315.5,-174 315.5,-142 424.5,-142 424.5,-174"/>
<text text-anchor="start" x="323.5" y="-160.5" font-family="Helvetica,sans-Serif" font-size="10.00">json::parsing::decode</text>
<text text-anchor="middle" x="370" y="-148.5" font-family="Helvetica,sans-Serif" font-size="10.00">_string</text>
</a>
</g>
</g>
<!-- Node3&#45;&gt;Node4 -->
<g id="edge3_Node000003_Node000004" class="edge">
<title>Node3&#45;&gt;Node4</title>
<g id="a_edge3_Node000003_Node000004"><a xlink:title=" ">
<path fill="none" stroke="#63b8ff" d="M259.28,-105.43C265.97,-108.09 273.04,-111.03 279.5,-114 295.94,-121.55 299.3,-124.95 315.5,-133 317.9,-134.19 320.37,-135.4 322.87,-136.62"/>
<polygon fill="#63b8ff" stroke="#63b8ff" points="321.3,-139.75 331.83,-140.91 324.33,-133.43 321.3,-139.75"/>
</a>
</g>
</g>
<!-- Node5 -->
<g id="Node000005" class="node">
<title>Node5</title>
<g id="a_Node000005"><a xlink:href="../../d8/d07/classjson_1_1jobject.html#a24ec98b78f9e603359f71f805a152739" target="_top" xlink:title="Flag for differentiating objects and arrays.">
<polygon fill="white" stroke="#666666" points="424.5,-124 315.5,-124 315.5,-104 424.5,-104 424.5,-124"/>
<text text-anchor="middle" x="370" y="-110.5" font-family="Helvetica,sans-Serif" font-size="10.00">json::jobject::is_array</text>
</a>
</g>
</g>
<!-- Node3&#45;&gt;Node5 -->
<g id="edge4_Node000003_Node000005" class="edge">
<title>Node3&#45;&gt;Node5</title>
<g id="a_edge4_Node000003_Node000005"><a xlink:title=" ">
<path fill="none" stroke="#63b8ff" d="M279.82,-101.7C287.61,-102.77 295.78,-103.9 303.88,-105.02"/>
<polygon fill="#63b8ff" stroke="#63b8ff" points="303.36,-108.48 313.75,-106.38 304.32,-101.55 303.36,-108.48"/>
</a>
</g>
</g>
<!-- Node6 -->
<g id="Node000006" class="node">
<title>Node6</title>
<g id="a_Node000006"><a xlink:href="../../d5/d07/namespacejson_1_1parsing.html#a2b8591533a42f229d2070223a6c48aa7" target="_top" xlink:title="Parses the first value encountered in a JSON string.">
<polygon fill="white" stroke="#666666" points="420.75,-86 319.25,-86 319.25,-66 420.75,-66 420.75,-86"/>
<text text-anchor="middle" x="370" y="-72.5" font-family="Helvetica,sans-Serif" font-size="10.00">json::parsing::parse</text>
</a>
</g>
</g>
<!-- Node3&#45;&gt;Node6 -->
<g id="edge5_Node000003_Node000006" class="edge">
<title>Node3&#45;&gt;Node6</title>
<g id="a_edge5_Node000003_Node000006"><a xlink:title=" ">
<path fill="none" stroke="#63b8ff" d="M279.82,-88.3C288.85,-87.06 298.39,-85.74 307.74,-84.45"/>
<polygon fill="#63b8ff" stroke="#63b8ff" points="308.08,-87.94 317.51,-83.1 307.13,-81 308.08,-87.94"/>
</a>
</g>
</g>
<!-- Node11 -->
<g id="Node000011" class="node">
<title>Node11</title>
<g id="a_Node000011"><a xlink:href="../../d5/d07/namespacejson_1_1parsing.html#a0ead22b90b3354cc09a0a21e517e9385" target="_top" xlink:title="(t)rims (l)eading (w)hite (s)pace">
<polygon fill="white" stroke="#666666" points="560.5,-20 465.75,-20 465.75,0 560.5,0 560.5,-20"/>
<text text-anchor="middle" x="513.12" y="-6.5" font-family="Helvetica,sans-Serif" font-size="10.00">json::parsing::tlws</text>
</a>
</g>
</g>
<!-- Node3&#45;&gt;Node11 -->
<g id="edge13_Node000003_Node000011" class="edge">
<title>Node3&#45;&gt;Node11</title>
<g id="a_edge13_Node000003_Node000011"><a xlink:title=" ">
<path fill="none" stroke="#63b8ff" d="M251.58,-84.52C268.38,-76.18 293.03,-64.68 315.5,-57 361.24,-41.37 414.68,-28.96 454.29,-20.82"/>
<polygon fill="#63b8ff" stroke="#63b8ff" points="454.74,-24.3 463.85,-18.89 453.36,-17.44 454.74,-24.3"/>
</a>
</g>
</g>
<!-- Node7 -->
<g id="Node000007" class="node">
<title>Node7</title>
<g id="a_Node000007"><a xlink:href="../../d2/d07/classjson_1_1reader.html#afefb8447a7db13bc4f6f7dc5f12a22c2" target="_top" xlink:title="Checks if the stored value is valid.">
<polygon fill="white" stroke="#666666" points="565.38,-172 460.88,-172 460.88,-152 565.38,-152 565.38,-172"/>
<text text-anchor="middle" x="513.12" y="-158.5" font-family="Helvetica,sans-Serif" font-size="10.00">json::reader::is_valid</text>
</a>
</g>
</g>
<!-- Node6&#45;&gt;Node7 -->
<g id="edge6_Node000006_Node000007" class="edge">
<title>Node6&#45;&gt;Node7</title>
<g id="a_edge6_Node000006_Node000007"><a xlink:title=" ">
<path fill="none" stroke="#63b8ff" d="M409.24,-86.44C414.63,-88.78 419.9,-91.61 424.5,-95 445.98,-110.8 439.11,-127.08 460.5,-143 462.05,-144.16 463.69,-145.25 465.37,-146.28"/>
<polygon fill="#63b8ff" stroke="#63b8ff" points="463.66,-149.34 474.15,-150.84 466.89,-143.12 463.66,-149.34"/>
</a>
</g>
</g>
<!-- Node8 -->
<g id="Node000008" class="node">
<title>Node8</title>
<g id="a_Node000008"><a xlink:href="../../d2/d07/classjson_1_1reader.html#aa1d0e99cecf438761764c16fa39134d1" target="_top" xlink:title=" ">
<polygon fill="white" stroke="#666666" points="560.12,-134 466.12,-134 466.12,-114 560.12,-114 560.12,-134"/>
<text text-anchor="middle" x="513.12" y="-120.5" font-family="Helvetica,sans-Serif" font-size="10.00">json::reader::push</text>
</a>
</g>
</g>
<!-- Node6&#45;&gt;Node8 -->
<g id="edge7_Node000006_Node000008" class="edge">
<title>Node6&#45;&gt;Node8</title>
<g id="a_edge7_Node000006_Node000008"><a xlink:title=" ">
<path fill="none" stroke="#63b8ff" d="M401.62,-86.42C421.87,-93.3 448.67,-102.42 470.8,-109.94"/>
<polygon fill="#63b8ff" stroke="#63b8ff" points="469.54,-113.21 480.13,-113.12 471.79,-106.58 469.54,-113.21"/>
</a>
</g>
</g>
<!-- Node10 -->
<g id="Node000010" class="node">
<title>Node10</title>
<g id="a_Node000010"><a xlink:href="../../d2/d07/classjson_1_1reader.html#ae1cfe678a10a9d0a4b04ad5ff64c43c9" target="_top" xlink:title="Returns the stored value.">
<polygon fill="white" stroke="#666666" points="565.75,-96 460.5,-96 460.5,-76 565.75,-76 565.75,-96"/>
<text text-anchor="middle" x="513.12" y="-82.5" font-family="Helvetica,sans-Serif" font-size="10.00">json::reader::readout</text>
</a>
</g>
</g>
<!-- Node6&#45;&gt;Node10 -->
<g id="edge9_Node000006_Node000010" class="edge">
<title>Node6&#45;&gt;Node10</title>
<g id="a_edge9_Node000006_Node000010"><a xlink:title=" ">
<path fill="none" stroke="#63b8ff" d="M421.15,-79.55C430.16,-80.19 439.66,-80.87 448.99,-81.53"/>
<polygon fill="#63b8ff" stroke="#63b8ff" points="448.49,-85 458.72,-82.22 448.99,-78.02 448.49,-85"/>
</a>
</g>
</g>
<!-- Node6&#45;&gt;Node11 -->
<g id="edge10_Node000006_Node000011" class="edge">
<title>Node6&#45;&gt;Node11</title>
<g id="a_edge10_Node000006_Node000011"><a xlink:title=" ">
<path fill="none" stroke="#63b8ff" d="M389.16,-65.56C407.01,-55.52 435.16,-40.26 460.5,-29 463.86,-27.51 467.38,-26.03 470.93,-24.61"/>
<polygon fill="#63b8ff" stroke="#63b8ff" points="472.08,-27.91 480.15,-21.04 469.56,-21.38 472.08,-27.91"/>
</a>
</g>
</g>
<!-- Node12 -->
<g id="Node000012" class="node">
<title>Node12</title>
<g id="a_Node000012"><a xlink:href="../../d2/d07/classjson_1_1reader.html#aec12648e76c0f529f892d89d4fabfe4c" target="_top" xlink:title="Checks the value.">
<polygon fill="white" stroke="#666666" points="559,-58 467.25,-58 467.25,-38 559,-38 559,-58"/>
<text text-anchor="middle" x="513.12" y="-44.5" font-family="Helvetica,sans-Serif" font-size="10.00">json::reader::type</text>
</a>
</g>
</g>
<!-- Node6&#45;&gt;Node12 -->
<g id="edge11_Node000006_Node000012" class="edge">
<title>Node6&#45;&gt;Node12</title>
<g id="a_edge11_Node000006_Node000012"><a xlink:title=" ">
<path fill="none" stroke="#63b8ff" d="M421.15,-66.05C432.32,-63.83 444.24,-61.47 455.65,-59.21"/>
<polygon fill="#63b8ff" stroke="#63b8ff" points="456.22,-62.66 465.35,-57.28 454.86,-55.79 456.22,-62.66"/>
</a>
</g>
</g>
<!-- Node9 -->
<g id="Node000009" class="node">
<title>Node9</title>
<g id="a_Node000009"><a xlink:href="../../de/d01/namespacejson_1_1jtype.html#a41134b9f4ec1ec6b8db4f8027536b762" target="_top" xlink:title=" ">
<polygon fill="white" stroke="#666666" points="689.75,-96 601.75,-96 601.75,-76 689.75,-76 689.75,-96"/>
<text text-anchor="middle" x="645.75" y="-82.5" font-family="Helvetica,sans-Serif" font-size="10.00">json::jtype::peek</text>
</a>
</g>
</g>
<!-- Node8&#45;&gt;Node9 -->
<g id="edge8_Node000008_Node000009" class="edge">
<title>Node8&#45;&gt;Node9</title>
<g id="a_edge8_Node000008_Node000009"><a xlink:title=" ">
<path fill="none" stroke="#63b8ff" d="M550.16,-113.52C565.01,-109.2 582.41,-104.14 598.2,-99.54"/>
<polygon fill="#63b8ff" stroke="#63b8ff" points="598.75,-103.03 607.37,-96.87 596.8,-96.31 598.75,-103.03"/>
</a>
</g>
</g>
<!-- Node12&#45;&gt;Node9 -->
<g id="edge12_Node000012_Node000009" class="edge">
<title>Node12&#45;&gt;Node9</title>
<g id="a_edge12_Node000012_Node000009"><a xlink:title=" ">
<path fill="none" stroke="#63b8ff" d="M550.16,-58.48C565.01,-62.8 582.41,-67.86 598.2,-72.46"/>
<polygon fill="#63b8ff" stroke="#63b8ff" points="596.8,-75.69 607.37,-75.13 598.75,-68.97 596.8,-75.69"/>
</a>
</g>
</g>
</g>
</svg>
