<?xml version="1.0" encoding="UTF-8" standalone="no"?>
<!DOCTYPE svg PUBLIC "-//W3C//DTD SVG 1.1//EN"
 "http://www.w3.org/Graphics/SVG/1.1/DTD/svg11.dtd">
<!-- Generated by graphviz version 10.0.1 (20240210.2158)
 -->
<!-- Title: C:/GitHub/GEU/GEU/Source/Core/InputManager.cpp Pages: 1 -->
<svg width="4330pt" height="220pt"
 viewBox="0.00 0.00 4330.00 220.00" xmlns="http://www.w3.org/2000/svg" xmlns:xlink="http://www.w3.org/1999/xlink">
<g id="graph0" class="graph" transform="scale(1 1) rotate(0) translate(4 216)">
<title>C:/GitHub/GEU/GEU/Source/Core/InputManager.cpp</title>
<!-- Node1 -->
<g id="Node000001" class="node">
<title>Node1</title>
<g id="a_Node000001"><a xlink:title=" ">
<polygon fill="#999999" stroke="#666666" points="4078.88,-212 3938.38,-212 3938.38,-180 4078.88,-180 4078.88,-212"/>
<text text-anchor="start" x="3946.38" y="-198.5" font-family="Helvetica,sans-Serif" font-size="10.00">C:/GitHub/GEU/GEU/Source</text>
<text text-anchor="middle" x="4008.62" y="-186.5" font-family="Helvetica,sans-Serif" font-size="10.00">/Core/InputManager.cpp</text>
</a>
</g>
</g>
<!-- Node2 -->
<g id="Node000002" class="node">
<title>Node2</title>
<g id="a_Node000002"><a xlink:href="../../db/d06/stdafx_8h.html" target="_top" xlink:title=" ">
<polygon fill="white" stroke="#666666" points="1590.88,-144 1540.38,-144 1540.38,-124 1590.88,-124 1590.88,-144"/>
<text text-anchor="middle" x="1565.62" y="-130.5" font-family="Helvetica,sans-Serif" font-size="10.00">stdafx.h</text>
</a>
</g>
</g>
<!-- Node1&#45;&gt;Node2 -->
<g id="edge1_Node000001_Node000002" class="edge">
<title>Node1&#45;&gt;Node2</title>
<g id="a_edge1_Node000001_Node000002"><a xlink:title=" ">
<path fill="none" stroke="#63b8ff" d="M3938.15,-193.27C3569.86,-184.22 1873.16,-142.55 1602.17,-135.9"/>
<polygon fill="#63b8ff" stroke="#63b8ff" points="1602.63,-132.41 1592.55,-135.66 1602.46,-139.41 1602.63,-132.41"/>
</a>
</g>
</g>
<!-- Node46 -->
<g id="Node000046" class="node">
<title>Node46</title>
<g id="a_Node000046"><a xlink:href="../../da/d09/_input_manager_8h.html" target="_top" xlink:title=" ">
<polygon fill="#fff0f0" stroke="red" points="3994,-82 3911.25,-82 3911.25,-62 3994,-62 3994,-82"/>
<text text-anchor="middle" x="3952.62" y="-68.5" font-family="Helvetica,sans-Serif" font-size="10.00">InputManager.h</text>
</a>
</g>
</g>
<!-- Node1&#45;&gt;Node46 -->
<g id="edge45_Node000001_Node000046" class="edge">
<title>Node1&#45;&gt;Node46</title>
<g id="a_edge45_Node000001_Node000046"><a xlink:title=" ">
<path fill="none" stroke="#63b8ff" d="M3946.72,-179.6C3928.76,-171.95 3911.17,-160.64 3900.62,-144 3888.17,-124.35 3908.93,-102.95 3927.8,-88.84"/>
<polygon fill="#63b8ff" stroke="#63b8ff" points="3929.62,-91.84 3935.79,-83.23 3925.6,-86.11 3929.62,-91.84"/>
</a>
</g>
</g>
<!-- Node63 -->
<g id="Node000063" class="node">
<title>Node63</title>
<g id="a_Node000063"><a xlink:href="../../d3/da0/_renderer_8h.html" target="_top" xlink:title=" ">
<polygon fill="#fff0f0" stroke="red" points="3995.88,-144 3909.38,-144 3909.38,-124 3995.88,-124 3995.88,-144"/>
<text text-anchor="middle" x="3952.62" y="-130.5" font-family="Helvetica,sans-Serif" font-size="10.00">Core/Renderer.h</text>
</a>
</g>
</g>
<!-- Node1&#45;&gt;Node63 -->
<g id="edge47_Node000001_Node000063" class="edge">
<title>Node1&#45;&gt;Node63</title>
<g id="a_edge47_Node000001_Node000063"><a xlink:title=" ">
<path fill="none" stroke="#63b8ff" d="M3994.2,-179.55C3986.51,-171.3 3977,-161.12 3969.03,-152.57"/>
<polygon fill="#63b8ff" stroke="#63b8ff" points="3971.82,-150.44 3962.44,-145.51 3966.7,-155.21 3971.82,-150.44"/>
</a>
</g>
</g>
<!-- Node88 -->
<g id="Node000088" class="node">
<title>Node88</title>
<g id="a_Node000088"><a xlink:title=" ">
<polygon fill="#e0e0e0" stroke="#999999" points="4115.75,-144 4013.5,-144 4013.5,-124 4115.75,-124 4115.75,-144"/>
<text text-anchor="middle" x="4064.62" y="-130.5" font-family="Helvetica,sans-Serif" font-size="10.00">GLFW/glfw3native.h</text>
</a>
</g>
</g>
<!-- Node1&#45;&gt;Node88 -->
<g id="edge49_Node000001_Node000088" class="edge">
<title>Node1&#45;&gt;Node88</title>
<g id="a_edge49_Node000001_Node000088"><a xlink:title=" ">
<path fill="none" stroke="#63b8ff" d="M4023.05,-179.55C4030.74,-171.3 4040.25,-161.12 4048.22,-152.57"/>
<polygon fill="#63b8ff" stroke="#63b8ff" points="4050.55,-155.21 4054.81,-145.51 4045.43,-150.44 4050.55,-155.21"/>
</a>
</g>
</g>
<!-- Node89 -->
<g id="Node000089" class="node">
<title>Node89</title>
<g id="a_Node000089"><a xlink:title=" ">
<polygon fill="#e0e0e0" stroke="#999999" points="4191.25,-144 4134,-144 4134,-124 4191.25,-124 4191.25,-144"/>
<text text-anchor="middle" x="4162.62" y="-130.5" font-family="Helvetica,sans-Serif" font-size="10.00">dwmapi.h</text>
</a>
</g>
</g>
<!-- Node1&#45;&gt;Node89 -->
<g id="edge50_Node000001_Node000089" class="edge">
<title>Node1&#45;&gt;Node89</title>
<g id="a_edge50_Node000001_Node000089"><a xlink:title=" ">
<path fill="none" stroke="#63b8ff" d="M4048.28,-179.55C4072.9,-169.96 4104.24,-157.75 4127.88,-148.54"/>
<polygon fill="#63b8ff" stroke="#63b8ff" points="4129.02,-151.85 4137.07,-144.96 4126.48,-145.33 4129.02,-151.85"/>
</a>
</g>
</g>
<!-- Node90 -->
<g id="Node000090" class="node">
<title>Node90</title>
<g id="a_Node000090"><a xlink:href="../../d3/df1/_file_manager_8h.html" target="_top" xlink:title=" ">
<polygon fill="#fff0f0" stroke="red" points="4322,-144 4209.25,-144 4209.25,-124 4322,-124 4322,-144"/>
<text text-anchor="middle" x="4265.62" y="-130.5" font-family="Helvetica,sans-Serif" font-size="10.00">Utilities/FileManager.h</text>
</a>
</g>
</g>
<!-- Node1&#45;&gt;Node90 -->
<g id="edge51_Node000001_Node000090" class="edge">
<title>Node1&#45;&gt;Node90</title>
<g id="a_edge51_Node000001_Node000090"><a xlink:title=" ">
<path fill="none" stroke="#63b8ff" d="M4074.81,-179.55C4118.08,-169.45 4173.8,-156.44 4213.84,-147.09"/>
<polygon fill="#63b8ff" stroke="#63b8ff" points="4214.53,-150.52 4223.48,-144.84 4212.94,-143.71 4214.53,-150.52"/>
</a>
</g>
</g>
<!-- Node3 -->
<g id="Node000003" class="node">
<title>Node3</title>
<g id="a_Node000003"><a xlink:title=" ">
<polygon fill="#e0e0e0" stroke="#999999" points="45.25,-82 0,-82 0,-62 45.25,-62 45.25,-82"/>
<text text-anchor="middle" x="22.62" y="-68.5" font-family="Helvetica,sans-Serif" font-size="10.00">cstdint</text>
</a>
</g>
</g>
<!-- Node2&#45;&gt;Node3 -->
<g id="edge2_Node000002_Node000003" class="edge">
<title>Node2&#45;&gt;Node3</title>
<g id="a_edge2_Node000002_Node000003"><a xlink:title=" ">
<path fill="none" stroke="#63b8ff" d="M1540.12,-132.86C1353.72,-131.8 204.69,-123.78 54.62,-88 53.02,-87.62 51.4,-87.15 49.79,-86.62"/>
<polygon fill="#63b8ff" stroke="#63b8ff" points="51.41,-83.5 40.83,-83.01 48.79,-89.99 51.41,-83.5"/>
</a>
</g>
</g>
<!-- Node4 -->
<g id="Node000004" class="node">
<title>Node4</title>
<g id="a_Node000004"><a xlink:title=" ">
<polygon fill="#e0e0e0" stroke="#999999" points="107.88,-82 63.38,-82 63.38,-62 107.88,-62 107.88,-82"/>
<text text-anchor="middle" x="85.62" y="-68.5" font-family="Helvetica,sans-Serif" font-size="10.00">cstdlib</text>
</a>
</g>
</g>
<!-- Node2&#45;&gt;Node4 -->
<g id="edge3_Node000002_Node000004" class="edge">
<title>Node2&#45;&gt;Node4</title>
<g id="a_edge3_Node000002_Node000004"><a xlink:title=" ">
<path fill="none" stroke="#63b8ff" d="M1540,-132.85C1357.7,-131.68 259.99,-123.21 116.62,-88 115.22,-87.66 113.8,-87.24 112.39,-86.78"/>
<polygon fill="#63b8ff" stroke="#63b8ff" points="113.85,-83.59 103.27,-83.01 111.18,-90.06 113.85,-83.59"/>
</a>
</g>
</g>
<!-- Node5 -->
<g id="Node000005" class="node">
<title>Node5</title>
<g id="a_Node000005"><a xlink:title=" ">
<polygon fill="#e0e0e0" stroke="#999999" points="183.62,-82 125.62,-82 125.62,-62 183.62,-62 183.62,-82"/>
<text text-anchor="middle" x="154.62" y="-68.5" font-family="Helvetica,sans-Serif" font-size="10.00">execution</text>
</a>
</g>
</g>
<!-- Node2&#45;&gt;Node5 -->
<g id="edge4_Node000002_Node000005" class="edge">
<title>Node2&#45;&gt;Node5</title>
<g id="a_edge4_Node000002_Node000005"><a xlink:title=" ">
<path fill="none" stroke="#63b8ff" d="M1539.97,-132.69C1363.26,-130.46 329.24,-116.31 192.62,-88 190.29,-87.52 187.92,-86.9 185.55,-86.2"/>
<polygon fill="#63b8ff" stroke="#63b8ff" points="186.76,-82.91 176.17,-82.92 184.45,-89.52 186.76,-82.91"/>
</a>
</g>
</g>
<!-- Node6 -->
<g id="Node000006" class="node">
<title>Node6</title>
<g id="a_Node000006"><a xlink:title=" ">
<polygon fill="#e0e0e0" stroke="#999999" points="255.38,-82 201.88,-82 201.88,-62 255.38,-62 255.38,-82"/>
<text text-anchor="middle" x="228.62" y="-68.5" font-family="Helvetica,sans-Serif" font-size="10.00">iostream</text>
</a>
</g>
</g>
<!-- Node2&#45;&gt;Node6 -->
<g id="edge5_Node000002_Node000006" class="edge">
<title>Node2&#45;&gt;Node6</title>
<g id="a_edge5_Node000002_Node000006"><a xlink:title=" ">
<path fill="none" stroke="#63b8ff" d="M1539.95,-132.67C1368.6,-130.36 393.46,-116.09 264.62,-88 262.58,-87.55 260.5,-87 258.44,-86.36"/>
<polygon fill="#63b8ff" stroke="#63b8ff" points="259.66,-83.08 249.06,-82.94 257.25,-89.66 259.66,-83.08"/>
</a>
</g>
</g>
<!-- Node7 -->
<g id="Node000007" class="node">
<title>Node7</title>
<g id="a_Node000007"><a xlink:title=" ">
<polygon fill="#e0e0e0" stroke="#999999" points="333.75,-82 273.5,-82 273.5,-62 333.75,-62 333.75,-82"/>
<text text-anchor="middle" x="303.62" y="-68.5" font-family="Helvetica,sans-Serif" font-size="10.00">filesystem</text>
</a>
</g>
</g>
<!-- Node2&#45;&gt;Node7 -->
<g id="edge6_Node000002_Node000007" class="edge">
<title>Node2&#45;&gt;Node7</title>
<g id="a_edge6_Node000002_Node000007"><a xlink:title=" ">
<path fill="none" stroke="#63b8ff" d="M1540.29,-133.2C1387.11,-134.25 583.3,-137.28 342.62,-88 340.14,-87.49 337.61,-86.84 335.09,-86.1"/>
<polygon fill="#63b8ff" stroke="#63b8ff" points="336.32,-82.82 325.72,-82.89 334.05,-89.44 336.32,-82.82"/>
</a>
</g>
</g>
<!-- Node8 -->
<g id="Node000008" class="node">
<title>Node8</title>
<g id="a_Node000008"><a xlink:title=" ">
<polygon fill="#e0e0e0" stroke="#999999" points="395.12,-82 352.12,-82 352.12,-62 395.12,-62 395.12,-82"/>
<text text-anchor="middle" x="373.62" y="-68.5" font-family="Helvetica,sans-Serif" font-size="10.00">format</text>
</a>
</g>
</g>
<!-- Node2&#45;&gt;Node8 -->
<g id="edge7_Node000002_Node000008" class="edge">
<title>Node2&#45;&gt;Node8</title>
<g id="a_edge7_Node000002_Node000008"><a xlink:title=" ">
<path fill="none" stroke="#63b8ff" d="M1539.92,-132.63C1379.42,-130.27 518.13,-116.34 404.62,-88 403.22,-87.65 401.81,-87.23 400.4,-86.76"/>
<polygon fill="#63b8ff" stroke="#63b8ff" points="401.86,-83.58 391.28,-82.99 399.18,-90.05 401.86,-83.58"/>
</a>
</g>
</g>
<!-- Node9 -->
<g id="Node000009" class="node">
<title>Node9</title>
<g id="a_Node000009"><a xlink:title=" ">
<polygon fill="#e0e0e0" stroke="#999999" points="461.75,-82 413.5,-82 413.5,-62 461.75,-62 461.75,-82"/>
<text text-anchor="middle" x="437.62" y="-68.5" font-family="Helvetica,sans-Serif" font-size="10.00">fstream</text>
</a>
</g>
</g>
<!-- Node2&#45;&gt;Node9 -->
<g id="edge8_Node000002_Node000009" class="edge">
<title>Node2&#45;&gt;Node9</title>
<g id="a_edge8_Node000002_Node000009"><a xlink:title=" ">
<path fill="none" stroke="#63b8ff" d="M1540.15,-133.28C1396.18,-134.63 683.24,-138.65 470.62,-88 468.98,-87.61 467.32,-87.13 465.66,-86.6"/>
<polygon fill="#63b8ff" stroke="#63b8ff" points="466.99,-83.36 456.4,-82.95 464.42,-89.87 466.99,-83.36"/>
</a>
</g>
</g>
<!-- Node10 -->
<g id="Node000010" class="node">
<title>Node10</title>
<g id="a_Node000010"><a xlink:title=" ">
<polygon fill="#e0e0e0" stroke="#999999" points="537.25,-82 480,-82 480,-62 537.25,-62 537.25,-82"/>
<text text-anchor="middle" x="508.62" y="-68.5" font-family="Helvetica,sans-Serif" font-size="10.00">functional</text>
</a>
</g>
</g>
<!-- Node2&#45;&gt;Node10 -->
<g id="edge9_Node000002_Node000010" class="edge">
<title>Node2&#45;&gt;Node10</title>
<g id="a_edge9_Node000002_Node000010"><a xlink:title=" ">
<path fill="none" stroke="#63b8ff" d="M1540.15,-133.05C1402.2,-133.12 743.71,-131.18 545.62,-88 543.44,-87.52 541.22,-86.93 539.01,-86.25"/>
<polygon fill="#63b8ff" stroke="#63b8ff" points="540.22,-82.97 529.62,-82.89 537.85,-89.56 540.22,-82.97"/>
</a>
</g>
</g>
<!-- Node11 -->
<g id="Node000011" class="node">
<title>Node11</title>
<g id="a_Node000011"><a xlink:title=" ">
<polygon fill="#e0e0e0" stroke="#999999" points="606.25,-82 555,-82 555,-62 606.25,-62 606.25,-82"/>
<text text-anchor="middle" x="580.62" y="-68.5" font-family="Helvetica,sans-Serif" font-size="10.00">memory</text>
</a>
</g>
</g>
<!-- Node2&#45;&gt;Node11 -->
<g id="edge10_Node000002_Node000011" class="edge">
<title>Node2&#45;&gt;Node11</title>
<g id="a_edge10_Node000002_Node000011"><a xlink:title=" ">
<path fill="none" stroke="#63b8ff" d="M1540.13,-133.05C1407.75,-133.14 797.83,-131.16 614.62,-88 612.85,-87.58 611.06,-87.07 609.27,-86.5"/>
<polygon fill="#63b8ff" stroke="#63b8ff" points="610.55,-83.24 599.96,-82.92 608.04,-89.78 610.55,-83.24"/>
</a>
</g>
</g>
<!-- Node12 -->
<g id="Node000012" class="node">
<title>Node12</title>
<g id="a_Node000012"><a xlink:title=" ">
<polygon fill="#e0e0e0" stroke="#999999" points="675.25,-82 624,-82 624,-62 675.25,-62 675.25,-82"/>
<text text-anchor="middle" x="649.62" y="-68.5" font-family="Helvetica,sans-Serif" font-size="10.00">sstream</text>
</a>
</g>
</g>
<!-- Node2&#45;&gt;Node12 -->
<g id="edge11_Node000002_Node000012" class="edge">
<title>Node2&#45;&gt;Node12</title>
<g id="a_edge11_Node000002_Node000012"><a xlink:title=" ">
<path fill="none" stroke="#63b8ff" d="M1539.96,-132.91C1413.22,-132.26 853.58,-127.2 684.62,-88 682.72,-87.56 680.79,-87.02 678.86,-86.41"/>
<polygon fill="#63b8ff" stroke="#63b8ff" points="680.11,-83.14 669.52,-82.89 677.65,-89.69 680.11,-83.14"/>
</a>
</g>
</g>
<!-- Node13 -->
<g id="Node000013" class="node">
<title>Node13</title>
<g id="a_Node000013"><a xlink:title=" ">
<polygon fill="#e0e0e0" stroke="#999999" points="735.75,-82 693.5,-82 693.5,-62 735.75,-62 735.75,-82"/>
<text text-anchor="middle" x="714.62" y="-68.5" font-family="Helvetica,sans-Serif" font-size="10.00">cstdio</text>
</a>
</g>
</g>
<!-- Node2&#45;&gt;Node13 -->
<g id="edge12_Node000002_Node000013" class="edge">
<title>Node2&#45;&gt;Node13</title>
<g id="a_edge12_Node000002_Node000013"><a xlink:title=" ">
<path fill="none" stroke="#63b8ff" d="M1540.07,-132.99C1418.72,-132.75 900.2,-129.25 744.62,-88 743.26,-87.64 741.89,-87.21 740.52,-86.74"/>
<polygon fill="#63b8ff" stroke="#63b8ff" points="742.3,-83.69 731.73,-82.96 739.54,-90.12 742.3,-83.69"/>
</a>
</g>
</g>
<!-- Node14 -->
<g id="Node000014" class="node">
<title>Node14</title>
<g id="a_Node000014"><a xlink:title=" ">
<polygon fill="#e0e0e0" stroke="#999999" points="797.12,-82 754.12,-82 754.12,-62 797.12,-62 797.12,-82"/>
<text text-anchor="middle" x="775.62" y="-68.5" font-family="Helvetica,sans-Serif" font-size="10.00">thread</text>
</a>
</g>
</g>
<!-- Node2&#45;&gt;Node14 -->
<g id="edge13_Node000002_Node000014" class="edge">
<title>Node2&#45;&gt;Node14</title>
<g id="a_edge13_Node000002_Node000014"><a xlink:title=" ">
<path fill="none" stroke="#63b8ff" d="M1540.11,-132.82C1424.56,-131.79 949.85,-125.33 806.62,-88 805.26,-87.64 803.88,-87.23 802.5,-86.76"/>
<polygon fill="#63b8ff" stroke="#63b8ff" points="804.2,-83.67 793.62,-83.08 801.52,-90.14 804.2,-83.67"/>
</a>
</g>
</g>
<!-- Node15 -->
<g id="Node000015" class="node">
<title>Node15</title>
<g id="a_Node000015"><a xlink:title=" ">
<polygon fill="#e0e0e0" stroke="#999999" points="898,-82 815.25,-82 815.25,-62 898,-62 898,-82"/>
<text text-anchor="middle" x="856.62" y="-68.5" font-family="Helvetica,sans-Serif" font-size="10.00">unordered_map</text>
</a>
</g>
</g>
<!-- Node2&#45;&gt;Node15 -->
<g id="edge14_Node000002_Node000015" class="edge">
<title>Node2&#45;&gt;Node15</title>
<g id="a_edge14_Node000002_Node000015"><a xlink:title=" ">
<path fill="none" stroke="#63b8ff" d="M1539.93,-133.29C1451.24,-133.88 1150.05,-132.25 906.62,-88 902.81,-87.31 898.87,-86.43 894.96,-85.44"/>
<polygon fill="#63b8ff" stroke="#63b8ff" points="896.16,-82.14 885.59,-82.85 894.29,-88.89 896.16,-82.14"/>
</a>
</g>
</g>
<!-- Node16 -->
<g id="Node000016" class="node">
<title>Node16</title>
<g id="a_Node000016"><a xlink:title=" ">
<polygon fill="#e0e0e0" stroke="#999999" points="993.38,-82 915.88,-82 915.88,-62 993.38,-62 993.38,-82"/>
<text text-anchor="middle" x="954.62" y="-68.5" font-family="Helvetica,sans-Serif" font-size="10.00">unordered_set</text>
</a>
</g>
</g>
<!-- Node2&#45;&gt;Node16 -->
<g id="edge15_Node000002_Node000016" class="edge">
<title>Node2&#45;&gt;Node16</title>
<g id="a_edge15_Node000002_Node000016"><a xlink:title=" ">
<path fill="none" stroke="#63b8ff" d="M1540.1,-132.98C1460.07,-132.47 1207.19,-127.62 1002.62,-88 999.22,-87.34 995.72,-86.52 992.23,-85.62"/>
<polygon fill="#63b8ff" stroke="#63b8ff" points="993.3,-82.28 982.72,-82.9 991.37,-89.01 993.3,-82.28"/>
</a>
</g>
</g>
<!-- Node17 -->
<g id="Node000017" class="node">
<title>Node17</title>
<g id="a_Node000017"><a xlink:title=" ">
<polygon fill="#e0e0e0" stroke="#999999" points="1053.38,-82 1011.88,-82 1011.88,-62 1053.38,-62 1053.38,-82"/>
<text text-anchor="middle" x="1032.62" y="-68.5" font-family="Helvetica,sans-Serif" font-size="10.00">vector</text>
</a>
</g>
</g>
<!-- Node2&#45;&gt;Node17 -->
<g id="edge16_Node000002_Node000017" class="edge">
<title>Node2&#45;&gt;Node17</title>
<g id="a_edge16_Node000002_Node000017"><a xlink:title=" ">
<path fill="none" stroke="#63b8ff" d="M1539.92,-131.97C1450.55,-128.18 1153.93,-113.9 1062.62,-88 1061.45,-87.67 1060.26,-87.29 1059.08,-86.87"/>
<polygon fill="#63b8ff" stroke="#63b8ff" points="1060.64,-83.73 1050.07,-83 1057.88,-90.16 1060.64,-83.73"/>
</a>
</g>
</g>
<!-- Node18 -->
<g id="Node000018" class="node">
<title>Node18</title>
<g id="a_Node000018"><a xlink:title=" ">
<polygon fill="#e0e0e0" stroke="#999999" points="1111.62,-82 1071.62,-82 1071.62,-62 1111.62,-62 1111.62,-82"/>
<text text-anchor="middle" x="1091.62" y="-68.5" font-family="Helvetica,sans-Serif" font-size="10.00">future</text>
</a>
</g>
</g>
<!-- Node2&#45;&gt;Node18 -->
<g id="edge17_Node000002_Node000018" class="edge">
<title>Node2&#45;&gt;Node18</title>
<g id="a_edge17_Node000002_Node000018"><a xlink:title=" ">
<path fill="none" stroke="#63b8ff" d="M1539.89,-133.72C1470.56,-134.96 1274.69,-133.82 1120.62,-88 1119.63,-87.7 1118.62,-87.37 1117.62,-87.01"/>
<polygon fill="#63b8ff" stroke="#63b8ff" points="1119.07,-83.83 1108.51,-82.99 1116.24,-90.23 1119.07,-83.83"/>
</a>
</g>
</g>
<!-- Node19 -->
<g id="Node000019" class="node">
<title>Node19</title>
<g id="a_Node000019"><a xlink:title=" ">
<polygon fill="#e0e0e0" stroke="#999999" points="1169.25,-82 1130,-82 1130,-62 1169.25,-62 1169.25,-82"/>
<text text-anchor="middle" x="1149.62" y="-68.5" font-family="Helvetica,sans-Serif" font-size="10.00">utility</text>
</a>
</g>
</g>
<!-- Node2&#45;&gt;Node19 -->
<g id="edge18_Node000002_Node000019" class="edge">
<title>Node2&#45;&gt;Node19</title>
<g id="a_edge18_Node000002_Node000019"><a xlink:title=" ">
<path fill="none" stroke="#63b8ff" d="M1540.08,-133.17C1477.16,-132.93 1310.26,-128.22 1178.62,-88 1177.65,-87.7 1176.67,-87.37 1175.7,-87.02"/>
<polygon fill="#63b8ff" stroke="#63b8ff" points="1177.39,-83.94 1166.83,-83.1 1174.56,-90.34 1177.39,-83.94"/>
</a>
</g>
</g>
<!-- Node20 -->
<g id="Node000020" class="node">
<title>Node20</title>
<g id="a_Node000020"><a xlink:title=" ">
<polygon fill="#e0e0e0" stroke="#999999" points="1235.75,-82 1187.5,-82 1187.5,-62 1235.75,-62 1235.75,-82"/>
<text text-anchor="middle" x="1211.62" y="-68.5" font-family="Helvetica,sans-Serif" font-size="10.00">random</text>
</a>
</g>
</g>
<!-- Node2&#45;&gt;Node20 -->
<g id="edge19_Node000002_Node000020" class="edge">
<title>Node2&#45;&gt;Node20</title>
<g id="a_edge19_Node000002_Node000020"><a xlink:title=" ">
<path fill="none" stroke="#63b8ff" d="M1540.14,-131.91C1485.13,-129.02 1351.62,-119.11 1244.62,-88 1243.23,-87.59 1241.82,-87.14 1240.41,-86.65"/>
<polygon fill="#63b8ff" stroke="#63b8ff" points="1241.76,-83.42 1231.17,-82.94 1239.15,-89.91 1241.76,-83.42"/>
</a>
</g>
</g>
<!-- Node21 -->
<g id="Node000021" class="node">
<title>Node21</title>
<g id="a_Node000021"><a xlink:title=" ">
<polygon fill="#e0e0e0" stroke="#999999" points="1293.62,-82 1253.62,-82 1253.62,-62 1293.62,-62 1293.62,-82"/>
<text text-anchor="middle" x="1273.62" y="-68.5" font-family="Helvetica,sans-Serif" font-size="10.00">regex</text>
</a>
</g>
</g>
<!-- Node2&#45;&gt;Node21 -->
<g id="edge20_Node000002_Node000021" class="edge">
<title>Node2&#45;&gt;Node21</title>
<g id="a_edge20_Node000002_Node000021"><a xlink:title=" ">
<path fill="none" stroke="#63b8ff" d="M1539.97,-131.24C1492.18,-127.39 1386.74,-116.19 1302.62,-88 1301.82,-87.73 1301.01,-87.44 1300.19,-87.13"/>
<polygon fill="#63b8ff" stroke="#63b8ff" points="1301.74,-83.99 1291.18,-83.1 1298.88,-90.38 1301.74,-83.99"/>
</a>
</g>
</g>
<!-- Node22 -->
<g id="Node000022" class="node">
<title>Node22</title>
<g id="a_Node000022"><a xlink:title=" ">
<polygon fill="#e0e0e0" stroke="#999999" points="1381.25,-82 1312,-82 1312,-62 1381.25,-62 1381.25,-82"/>
<text text-anchor="middle" x="1346.62" y="-68.5" font-family="Helvetica,sans-Serif" font-size="10.00">WinSock2.h</text>
</a>
</g>
</g>
<!-- Node2&#45;&gt;Node22 -->
<g id="edge21_Node000002_Node000022" class="edge">
<title>Node2&#45;&gt;Node22</title>
<g id="a_edge21_Node000002_Node000022"><a xlink:title=" ">
<path fill="none" stroke="#63b8ff" d="M1540.08,-127.19C1505.67,-119.2 1442.62,-103.99 1389.62,-88 1387.52,-87.37 1385.37,-86.69 1383.21,-86"/>
<polygon fill="#63b8ff" stroke="#63b8ff" points="1384.46,-82.73 1373.87,-82.88 1382.24,-89.37 1384.46,-82.73"/>
</a>
</g>
</g>
<!-- Node23 -->
<g id="Node000023" class="node">
<title>Node23</title>
<g id="a_Node000023"><a xlink:title=" ">
<polygon fill="#e0e0e0" stroke="#999999" points="1460.12,-82 1399.12,-82 1399.12,-62 1460.12,-62 1460.12,-82"/>
<text text-anchor="middle" x="1429.62" y="-68.5" font-family="Helvetica,sans-Serif" font-size="10.00">windows.h</text>
</a>
</g>
</g>
<!-- Node2&#45;&gt;Node23 -->
<g id="edge22_Node000002_Node000023" class="edge">
<title>Node2&#45;&gt;Node23</title>
<g id="a_edge22_Node000002_Node000023"><a xlink:title=" ">
<path fill="none" stroke="#63b8ff" d="M1544.38,-123.62C1522.02,-113.76 1486.6,-98.13 1461.02,-86.85"/>
<polygon fill="#63b8ff" stroke="#63b8ff" points="1462.67,-83.75 1452.11,-82.92 1459.85,-90.16 1462.67,-83.75"/>
</a>
</g>
</g>
<!-- Node24 -->
<g id="Node000024" class="node">
<title>Node24</title>
<g id="a_Node000024"><a xlink:href="../../de/dbf/locale__strings_8h.html" target="_top" xlink:title=" ">
<polygon fill="white" stroke="#666666" points="1562.75,-82 1478.5,-82 1478.5,-62 1562.75,-62 1562.75,-82"/>
<text text-anchor="middle" x="1520.62" y="-68.5" font-family="Helvetica,sans-Serif" font-size="10.00">locale_strings.h</text>
</a>
</g>
</g>
<!-- Node2&#45;&gt;Node24 -->
<g id="edge23_Node000002_Node000024" class="edge">
<title>Node2&#45;&gt;Node24</title>
<g id="a_edge23_Node000002_Node000024"><a xlink:title=" ">
<path fill="none" stroke="#63b8ff" d="M1558.59,-123.62C1552.08,-114.94 1542.22,-101.8 1534.18,-91.08"/>
<polygon fill="#63b8ff" stroke="#63b8ff" points="1537.17,-89.22 1528.37,-83.32 1531.57,-93.42 1537.17,-89.22"/>
</a>
</g>
</g>
<!-- Node25 -->
<g id="Node000025" class="node">
<title>Node25</title>
<g id="a_Node000025"><a xlink:title=" ">
<polygon fill="#e0e0e0" stroke="#999999" points="1640.38,-82 1580.88,-82 1580.88,-62 1640.38,-62 1640.38,-82"/>
<text text-anchor="middle" x="1610.62" y="-68.5" font-family="Helvetica,sans-Serif" font-size="10.00">GL/glew.h</text>
</a>
</g>
</g>
<!-- Node2&#45;&gt;Node25 -->
<g id="edge24_Node000002_Node000025" class="edge">
<title>Node2&#45;&gt;Node25</title>
<g id="a_edge24_Node000002_Node000025"><a xlink:title=" ">
<path fill="none" stroke="#63b8ff" d="M1572.66,-123.62C1579.17,-114.94 1589.03,-101.8 1597.07,-91.08"/>
<polygon fill="#63b8ff" stroke="#63b8ff" points="1599.68,-93.42 1602.88,-83.32 1594.08,-89.22 1599.68,-93.42"/>
</a>
</g>
</g>
<!-- Node26 -->
<g id="Node000026" class="node">
<title>Node26</title>
<g id="a_Node000026"><a xlink:title=" ">
<polygon fill="#e0e0e0" stroke="#999999" points="1736.38,-82 1658.88,-82 1658.88,-62 1736.38,-62 1736.38,-82"/>
<text text-anchor="middle" x="1697.62" y="-68.5" font-family="Helvetica,sans-Serif" font-size="10.00">GLFW/glfw3.h</text>
</a>
</g>
</g>
<!-- Node2&#45;&gt;Node26 -->
<g id="edge25_Node000002_Node000026" class="edge">
<title>Node2&#45;&gt;Node26</title>
<g id="a_edge25_Node000002_Node000026"><a xlink:title=" ">
<path fill="none" stroke="#63b8ff" d="M1586.25,-123.62C1607.85,-113.81 1642.02,-98.27 1666.82,-87"/>
<polygon fill="#63b8ff" stroke="#63b8ff" points="1668.11,-90.26 1675.77,-82.94 1665.21,-83.89 1668.11,-90.26"/>
</a>
</g>
</g>
<!-- Node27 -->
<g id="Node000027" class="node">
<title>Node27</title>
<g id="a_Node000027"><a xlink:title=" ">
<polygon fill="#e0e0e0" stroke="#999999" points="1823.25,-82 1754,-82 1754,-62 1823.25,-62 1823.25,-82"/>
<text text-anchor="middle" x="1788.62" y="-68.5" font-family="Helvetica,sans-Serif" font-size="10.00">glm/glm.hpp</text>
</a>
</g>
</g>
<!-- Node2&#45;&gt;Node27 -->
<g id="edge26_Node000002_Node000027" class="edge">
<title>Node2&#45;&gt;Node27</title>
<g id="a_edge26_Node000002_Node000027"><a xlink:title=" ">
<path fill="none" stroke="#63b8ff" d="M1591.16,-127.38C1626.23,-119.5 1691.15,-104.27 1745.62,-88 1747.73,-87.37 1749.88,-86.7 1752.04,-86.01"/>
<polygon fill="#63b8ff" stroke="#63b8ff" points="1753.01,-89.38 1761.39,-82.9 1750.8,-82.74 1753.01,-89.38"/>
</a>
</g>
</g>
<!-- Node28 -->
<g id="Node000028" class="node">
<title>Node28</title>
<g id="a_Node000028"><a xlink:title=" ">
<polygon fill="#e0e0e0" stroke="#999999" points="1954,-82 1841.25,-82 1841.25,-62 1954,-62 1954,-82"/>
<text text-anchor="middle" x="1897.62" y="-68.5" font-family="Helvetica,sans-Serif" font-size="10.00">glm/gtc/constants.hpp</text>
</a>
</g>
</g>
<!-- Node2&#45;&gt;Node28 -->
<g id="edge27_Node000002_Node000028" class="edge">
<title>Node2&#45;&gt;Node28</title>
<g id="a_edge27_Node000002_Node000028"><a xlink:title=" ">
<path fill="none" stroke="#63b8ff" d="M1591.12,-129.22C1638.73,-122.05 1744.34,-105.61 1832.62,-88 1837.48,-87.03 1842.53,-85.97 1847.58,-84.87"/>
<polygon fill="#63b8ff" stroke="#63b8ff" points="1848.05,-88.35 1857.05,-82.75 1846.52,-81.52 1848.05,-88.35"/>
</a>
</g>
</g>
<!-- Node29 -->
<g id="Node000029" class="node">
<title>Node29</title>
<g id="a_Node000029"><a xlink:title=" ">
<polygon fill="#e0e0e0" stroke="#999999" points="2115,-82 1972.25,-82 1972.25,-62 2115,-62 2115,-82"/>
<text text-anchor="middle" x="2043.62" y="-68.5" font-family="Helvetica,sans-Serif" font-size="10.00">glm/gtc/matrix_transform.hpp</text>
</a>
</g>
</g>
<!-- Node2&#45;&gt;Node29 -->
<g id="edge28_Node000002_Node000029" class="edge">
<title>Node2&#45;&gt;Node29</title>
<g id="a_edge28_Node000002_Node000029"><a xlink:title=" ">
<path fill="none" stroke="#63b8ff" d="M1591.25,-130.72C1654.5,-124.97 1823.01,-108.81 1962.62,-88 1969.76,-86.94 1977.24,-85.71 1984.63,-84.42"/>
<polygon fill="#63b8ff" stroke="#63b8ff" points="1985.03,-87.91 1994.26,-82.71 1983.8,-81.02 1985.03,-87.91"/>
</a>
</g>
</g>
<!-- Node30 -->
<g id="Node000030" class="node">
<title>Node30</title>
<g id="a_Node000030"><a xlink:title=" ">
<polygon fill="#e0e0e0" stroke="#999999" points="2272.5,-82 2132.75,-82 2132.75,-62 2272.5,-62 2272.5,-82"/>
<text text-anchor="middle" x="2202.62" y="-68.5" font-family="Helvetica,sans-Serif" font-size="10.00">glm/ext/vector_relational.hpp</text>
</a>
</g>
</g>
<!-- Node2&#45;&gt;Node30 -->
<g id="edge29_Node000002_Node000030" class="edge">
<title>Node2&#45;&gt;Node30</title>
<g id="a_edge29_Node000002_Node000030"><a xlink:title=" ">
<path fill="none" stroke="#63b8ff" d="M1591.31,-131.91C1670.76,-128.33 1919.43,-115.54 2123.62,-88 2130.88,-87.02 2138.48,-85.81 2145.98,-84.51"/>
<polygon fill="#63b8ff" stroke="#63b8ff" points="2146.52,-87.97 2155.74,-82.75 2145.27,-81.08 2146.52,-87.97"/>
</a>
</g>
</g>
<!-- Node31 -->
<g id="Node000031" class="node">
<title>Node31</title>
<g id="a_Node000031"><a xlink:title=" ">
<polygon fill="#e0e0e0" stroke="#999999" points="2391,-82 2290.25,-82 2290.25,-62 2391,-62 2391,-82"/>
<text text-anchor="middle" x="2340.62" y="-68.5" font-family="Helvetica,sans-Serif" font-size="10.00">glm/gtc/epsilon.hpp</text>
</a>
</g>
</g>
<!-- Node2&#45;&gt;Node31 -->
<g id="edge30_Node000002_Node000031" class="edge">
<title>Node2&#45;&gt;Node31</title>
<g id="a_edge30_Node000002_Node000031"><a xlink:title=" ">
<path fill="none" stroke="#63b8ff" d="M1591.18,-133.11C1684.3,-133.13 2014.01,-130.05 2281.62,-88 2286.63,-87.21 2291.84,-86.19 2296.99,-85.06"/>
<polygon fill="#63b8ff" stroke="#63b8ff" points="2297.69,-88.49 2306.61,-82.78 2296.07,-81.68 2297.69,-88.49"/>
</a>
</g>
</g>
<!-- Node32 -->
<g id="Node000032" class="node">
<title>Node32</title>
<g id="a_Node000032"><a xlink:title=" ">
<polygon fill="#e0e0e0" stroke="#999999" points="2534,-82 2409.25,-82 2409.25,-62 2534,-62 2534,-82"/>
<text text-anchor="middle" x="2471.62" y="-68.5" font-family="Helvetica,sans-Serif" font-size="10.00">glm/gtx/euler_angles.hpp</text>
</a>
</g>
</g>
<!-- Node2&#45;&gt;Node32 -->
<g id="edge31_Node000002_Node000032" class="edge">
<title>Node2&#45;&gt;Node32</title>
<g id="a_edge31_Node000002_Node000032"><a xlink:title=" ">
<path fill="none" stroke="#63b8ff" d="M1591.35,-133.03C1693.84,-132.84 2082.94,-129.29 2399.62,-88 2406.36,-87.12 2413.4,-85.96 2420.33,-84.67"/>
<polygon fill="#63b8ff" stroke="#63b8ff" points="2420.82,-88.15 2429.96,-82.78 2419.47,-81.28 2420.82,-88.15"/>
</a>
</g>
</g>
<!-- Node33 -->
<g id="Node000033" class="node">
<title>Node33</title>
<g id="a_Node000033"><a xlink:title=" ">
<polygon fill="#e0e0e0" stroke="#999999" points="2599.38,-82 2551.88,-82 2551.88,-62 2599.38,-62 2599.38,-82"/>
<text text-anchor="middle" x="2575.62" y="-68.5" font-family="Helvetica,sans-Serif" font-size="10.00">imgui.h</text>
</a>
</g>
</g>
<!-- Node2&#45;&gt;Node33 -->
<g id="edge32_Node000002_Node000033" class="edge">
<title>Node2&#45;&gt;Node33</title>
<g id="a_edge32_Node000002_Node000033"><a xlink:title=" ">
<path fill="none" stroke="#63b8ff" d="M1590.94,-133.13C1725.11,-133.61 2354.23,-133.37 2542.62,-88 2544.27,-87.6 2545.93,-87.13 2547.59,-86.59"/>
<polygon fill="#63b8ff" stroke="#63b8ff" points="2548.83,-89.86 2556.85,-82.94 2546.26,-83.35 2548.83,-89.86"/>
</a>
</g>
</g>
<!-- Node34 -->
<g id="Node000034" class="node">
<title>Node34</title>
<g id="a_Node000034"><a xlink:title=" ">
<polygon fill="#e0e0e0" stroke="#999999" points="2725.38,-88 2617.88,-88 2617.88,-56 2725.38,-56 2725.38,-88"/>
<text text-anchor="start" x="2625.88" y="-74.5" font-family="Helvetica,sans-Serif" font-size="10.00">backends/imgui_impl</text>
<text text-anchor="middle" x="2671.62" y="-62.5" font-family="Helvetica,sans-Serif" font-size="10.00">_glfw.h</text>
</a>
</g>
</g>
<!-- Node2&#45;&gt;Node34 -->
<g id="edge33_Node000002_Node000034" class="edge">
<title>Node2&#45;&gt;Node34</title>
<g id="a_edge33_Node000002_Node000034"><a xlink:title=" ">
<path fill="none" stroke="#63b8ff" d="M1591.12,-132.56C1728.29,-130.09 2380.26,-117.09 2606.07,-88.12"/>
<polygon fill="#63b8ff" stroke="#63b8ff" points="2606.51,-91.59 2615.95,-86.79 2605.58,-84.65 2606.51,-91.59"/>
</a>
</g>
</g>
<!-- Node35 -->
<g id="Node000035" class="node">
<title>Node35</title>
<g id="a_Node000035"><a xlink:title=" ">
<polygon fill="#e0e0e0" stroke="#999999" points="2851.38,-88 2743.88,-88 2743.88,-56 2851.38,-56 2851.38,-88"/>
<text text-anchor="start" x="2751.88" y="-74.5" font-family="Helvetica,sans-Serif" font-size="10.00">backends/imgui_impl</text>
<text text-anchor="middle" x="2797.62" y="-62.5" font-family="Helvetica,sans-Serif" font-size="10.00">_opengl3.h</text>
</a>
</g>
</g>
<!-- Node2&#45;&gt;Node35 -->
<g id="edge34_Node000002_Node000035" class="edge">
<title>Node2&#45;&gt;Node35</title>
<g id="a_edge34_Node000002_Node000035"><a xlink:title=" ">
<path fill="none" stroke="#63b8ff" d="M1591.21,-132.69C1738.45,-130.84 2479.79,-120.09 2732.17,-88.1"/>
<polygon fill="#63b8ff" stroke="#63b8ff" points="2732.5,-91.58 2741.96,-86.8 2731.58,-84.64 2732.5,-91.58"/>
</a>
</g>
</g>
<!-- Node36 -->
<g id="Node000036" class="node">
<title>Node36</title>
<g id="a_Node000036"><a xlink:title=" ">
<polygon fill="#e0e0e0" stroke="#999999" points="2988,-82 2869.25,-82 2869.25,-62 2988,-62 2988,-82"/>
<text text-anchor="middle" x="2928.62" y="-68.5" font-family="Helvetica,sans-Serif" font-size="10.00">misc/cpp/imgui_stdlib.h</text>
</a>
</g>
</g>
<!-- Node2&#45;&gt;Node36 -->
<g id="edge35_Node000002_Node000036" class="edge">
<title>Node2&#45;&gt;Node36</title>
<g id="a_edge35_Node000002_Node000036"><a xlink:title=" ">
<path fill="none" stroke="#63b8ff" d="M1591.32,-132.75C1750.35,-131.08 2602.01,-120.74 2860.62,-88 2867.08,-87.18 2873.82,-86.05 2880.45,-84.76"/>
<polygon fill="#63b8ff" stroke="#63b8ff" points="2880.86,-88.25 2889.95,-82.79 2879.44,-81.4 2880.86,-88.25"/>
</a>
</g>
</g>
<!-- Node37 -->
<g id="Node000037" class="node">
<title>Node37</title>
<g id="a_Node000037"><a xlink:title=" ">
<polygon fill="#e0e0e0" stroke="#999999" points="3090.75,-82 3006.5,-82 3006.5,-62 3090.75,-62 3090.75,-82"/>
<text text-anchor="middle" x="3048.62" y="-68.5" font-family="Helvetica,sans-Serif" font-size="10.00">imgui_internal.h</text>
</a>
</g>
</g>
<!-- Node2&#45;&gt;Node37 -->
<g id="edge36_Node000002_Node000037" class="edge">
<title>Node2&#45;&gt;Node37</title>
<g id="a_edge36_Node000002_Node000037"><a xlink:title=" ">
<path fill="none" stroke="#63b8ff" d="M1591.28,-133.07C1759.81,-133.37 2710.57,-133.03 2996.62,-88 3000.94,-87.32 3005.4,-86.39 3009.82,-85.33"/>
<polygon fill="#63b8ff" stroke="#63b8ff" points="3010.35,-88.81 3019.11,-82.86 3008.55,-82.05 3010.35,-88.81"/>
</a>
</g>
</g>
<!-- Node38 -->
<g id="Node000038" class="node">
<title>Node38</title>
<g id="a_Node000038"><a xlink:title=" ">
<polygon fill="#e0e0e0" stroke="#999999" points="3194.12,-82 3109.12,-82 3109.12,-62 3194.12,-62 3194.12,-82"/>
<text text-anchor="middle" x="3151.62" y="-68.5" font-family="Helvetica,sans-Serif" font-size="10.00">ImGuiNotify.hpp</text>
</a>
</g>
</g>
<!-- Node2&#45;&gt;Node38 -->
<g id="edge37_Node000002_Node000038" class="edge">
<title>Node2&#45;&gt;Node38</title>
<g id="a_edge37_Node000002_Node000038"><a xlink:title=" ">
<path fill="none" stroke="#63b8ff" d="M1591.12,-133.13C1766.11,-133.88 2791.8,-136.12 3099.62,-88 3103.94,-87.33 3108.4,-86.4 3112.82,-85.34"/>
<polygon fill="#63b8ff" stroke="#63b8ff" points="3113.35,-88.82 3122.12,-82.87 3111.55,-82.05 3113.35,-88.82"/>
</a>
</g>
</g>
<!-- Node39 -->
<g id="Node000039" class="node">
<title>Node39</title>
<g id="a_Node000039"><a xlink:title=" ">
<polygon fill="#e0e0e0" stroke="#999999" points="3347.25,-82 3212,-82 3212,-62 3347.25,-62 3347.25,-82"/>
<text text-anchor="middle" x="3279.62" y="-68.5" font-family="Helvetica,sans-Serif" font-size="10.00">addons/imguidatechooser.h</text>
</a>
</g>
</g>
<!-- Node2&#45;&gt;Node39 -->
<g id="edge38_Node000002_Node000039" class="edge">
<title>Node2&#45;&gt;Node39</title>
<g id="a_edge38_Node000002_Node000039"><a xlink:title=" ">
<path fill="none" stroke="#63b8ff" d="M1591.31,-132.88C1773.39,-131.9 2871.29,-124.57 3202.62,-88 3210.45,-87.14 3218.66,-85.9 3226.69,-84.5"/>
<polygon fill="#63b8ff" stroke="#63b8ff" points="3227.17,-87.97 3236.37,-82.71 3225.9,-81.09 3227.17,-87.97"/>
</a>
</g>
</g>
<!-- Node40 -->
<g id="Node000040" class="node">
<title>Node40</title>
<g id="a_Node000040"><a xlink:title=" ">
<polygon fill="#e0e0e0" stroke="#999999" points="3449.75,-82 3365.5,-82 3365.5,-62 3449.75,-62 3449.75,-82"/>
<text text-anchor="middle" x="3407.62" y="-68.5" font-family="Helvetica,sans-Serif" font-size="10.00">spdlog/spdlog.h</text>
</a>
</g>
</g>
<!-- Node2&#45;&gt;Node40 -->
<g id="edge39_Node000002_Node000040" class="edge">
<title>Node2&#45;&gt;Node40</title>
<g id="a_edge39_Node000002_Node000040"><a xlink:title=" ">
<path fill="none" stroke="#63b8ff" d="M1591.07,-132.76C1796.04,-130.79 3174.66,-116.54 3356.62,-88 3360.79,-87.35 3365.09,-86.45 3369.35,-85.41"/>
<polygon fill="#63b8ff" stroke="#63b8ff" points="3370.2,-88.81 3378.94,-82.83 3368.37,-82.05 3370.2,-88.81"/>
</a>
</g>
</g>
<!-- Node41 -->
<g id="Node000041" class="node">
<title>Node41</title>
<g id="a_Node000041"><a xlink:title=" ">
<polygon fill="#e0e0e0" stroke="#999999" points="3565.12,-88 3468.12,-88 3468.12,-56 3565.12,-56 3565.12,-88"/>
<text text-anchor="start" x="3476.12" y="-74.5" font-family="Helvetica,sans-Serif" font-size="10.00">spdlog/sinks/basic</text>
<text text-anchor="middle" x="3516.62" y="-62.5" font-family="Helvetica,sans-Serif" font-size="10.00">_file_sink.h</text>
</a>
</g>
</g>
<!-- Node2&#45;&gt;Node41 -->
<g id="edge40_Node000002_Node000041" class="edge">
<title>Node2&#45;&gt;Node41</title>
<g id="a_edge40_Node000002_Node000041"><a xlink:title=" ">
<path fill="none" stroke="#63b8ff" d="M1591.16,-132.75C1799.42,-130.64 3217.19,-115.44 3456.63,-87.89"/>
<polygon fill="#63b8ff" stroke="#63b8ff" points="3456.75,-91.4 3466.23,-86.67 3455.87,-84.46 3456.75,-91.4"/>
</a>
</g>
</g>
<!-- Node42 -->
<g id="Node000042" class="node">
<title>Node42</title>
<g id="a_Node000042"><a xlink:title=" ">
<polygon fill="#e0e0e0" stroke="#999999" points="3642.38,-82 3582.88,-82 3582.88,-62 3642.38,-62 3642.38,-82"/>
<text text-anchor="middle" x="3612.62" y="-68.5" font-family="Helvetica,sans-Serif" font-size="10.00">fmt/core.h</text>
</a>
</g>
</g>
<!-- Node2&#45;&gt;Node42 -->
<g id="edge41_Node000002_Node000042" class="edge">
<title>Node2&#45;&gt;Node42</title>
<g id="a_edge41_Node000002_Node000042"><a xlink:title=" ">
<path fill="none" stroke="#63b8ff" d="M1591.34,-132.96C1811.09,-132.54 3370.18,-128.14 3573.62,-88 3576.11,-87.51 3578.65,-86.87 3581.17,-86.14"/>
<polygon fill="#63b8ff" stroke="#63b8ff" points="3582.2,-89.49 3590.54,-82.95 3579.94,-82.86 3582.2,-89.49"/>
</a>
</g>
</g>
<!-- Node43 -->
<g id="Node000043" class="node">
<title>Node43</title>
<g id="a_Node000043"><a xlink:title=" ">
<polygon fill="#e0e0e0" stroke="#999999" points="3722.5,-82 3660.75,-82 3660.75,-62 3722.5,-62 3722.5,-82"/>
<text text-anchor="middle" x="3691.62" y="-68.5" font-family="Helvetica,sans-Serif" font-size="10.00">fmt/color.h</text>
</a>
</g>
</g>
<!-- Node2&#45;&gt;Node43 -->
<g id="edge42_Node000002_Node000043" class="edge">
<title>Node2&#45;&gt;Node43</title>
<g id="a_edge42_Node000002_Node000043"><a xlink:title=" ">
<path fill="none" stroke="#63b8ff" d="M1591.26,-132.97C1815.49,-132.63 3439.76,-128.78 3651.62,-88 3654.27,-87.49 3656.96,-86.83 3659.65,-86.06"/>
<polygon fill="#63b8ff" stroke="#63b8ff" points="3660.61,-89.43 3668.98,-82.94 3658.39,-82.79 3660.61,-89.43"/>
</a>
</g>
</g>
<!-- Node44 -->
<g id="Node000044" class="node">
<title>Node44</title>
<g id="a_Node000044"><a xlink:href="../../de/dec/_singleton_8h.html" target="_top" xlink:title=" ">
<polygon fill="white" stroke="#666666" points="3901.62,-20 3801.62,-20 3801.62,0 3901.62,0 3901.62,-20"/>
<text text-anchor="middle" x="3851.62" y="-6.5" font-family="Helvetica,sans-Serif" font-size="10.00">Utilities/Singleton.h</text>
</a>
</g>
</g>
<!-- Node2&#45;&gt;Node44 -->
<g id="edge43_Node000002_Node000044" class="edge">
<title>Node2&#45;&gt;Node44</title>
<g id="a_edge43_Node000002_Node000044"><a xlink:title=" ">
<path fill="none" stroke="#63b8ff" d="M1591.25,-132.96C1827.9,-132.49 3626.42,-127.64 3731.62,-88 3752.29,-80.22 3751.41,-68.48 3769.62,-56 3786.33,-44.55 3806.21,-33.58 3822.22,-25.34"/>
<polygon fill="#63b8ff" stroke="#63b8ff" points="3823.41,-28.66 3830.75,-21.02 3820.25,-22.41 3823.41,-28.66"/>
</a>
</g>
</g>
<!-- Node45 -->
<g id="Node000045" class="node">
<title>Node45</title>
<g id="a_Node000045"><a xlink:title=" ">
<polygon fill="#e0e0e0" stroke="#999999" points="3892.75,-82 3778.5,-82 3778.5,-62 3892.75,-62 3892.75,-82"/>
<text text-anchor="middle" x="3835.62" y="-68.5" font-family="Helvetica,sans-Serif" font-size="10.00">simpleson&#45;1.1.0/json.h</text>
</a>
</g>
</g>
<!-- Node2&#45;&gt;Node45 -->
<g id="edge44_Node000002_Node000045" class="edge">
<title>Node2&#45;&gt;Node45</title>
<g id="a_edge44_Node000002_Node000045"><a xlink:title=" ">
<path fill="none" stroke="#63b8ff" d="M1591.36,-133.14C1806.86,-134.21 3314.14,-139.73 3764.62,-88 3771.69,-87.19 3779.09,-86.01 3786.33,-84.66"/>
<polygon fill="#63b8ff" stroke="#63b8ff" points="3786.91,-88.11 3796.04,-82.72 3785.54,-81.24 3786.91,-88.11"/>
</a>
</g>
</g>
<!-- Node46&#45;&gt;Node44 -->
<g id="edge46_Node000046_Node000044" class="edge">
<title>Node46&#45;&gt;Node44</title>
<g id="a_edge46_Node000046_Node000044"><a xlink:title=" ">
<path fill="none" stroke="#63b8ff" d="M3936.84,-61.62C3920.83,-52.11 3895.8,-37.24 3877,-26.08"/>
<polygon fill="#63b8ff" stroke="#63b8ff" points="3878.98,-23.18 3868.6,-21.08 3875.41,-29.2 3878.98,-23.18"/>
</a>
</g>
</g>
<!-- Node63&#45;&gt;Node46 -->
<g id="edge48_Node000063_Node000046" class="edge">
<title>Node63&#45;&gt;Node46</title>
<g id="a_edge48_Node000063_Node000046"><a xlink:title=" ">
<path fill="none" stroke="#63b8ff" d="M3952.62,-123.62C3952.62,-115.56 3952.62,-103.65 3952.62,-93.41"/>
<polygon fill="#63b8ff" stroke="#63b8ff" points="3956.13,-93.63 3952.63,-83.63 3949.13,-93.63 3956.13,-93.63"/>
</a>
</g>
</g>
</g>
</svg>
