<?xml version="1.0" encoding="UTF-8" standalone="no"?>
<!DOCTYPE svg PUBLIC "-//W3C//DTD SVG 1.1//EN"
 "http://www.w3.org/Graphics/SVG/1.1/DTD/svg11.dtd">
<!-- Generated by graphviz version 10.0.1 (20240210.2158)
 -->
<!-- Title: Database::SDO_GEOMETRY::fromJSON Pages: 1 -->
<svg width="824pt" height="40pt"
 viewBox="0.00 0.00 823.75 40.00" xmlns="http://www.w3.org/2000/svg" xmlns:xlink="http://www.w3.org/1999/xlink">
<g id="graph0" class="graph" transform="scale(1 1) rotate(0) translate(4 36)">
<title>Database::SDO_GEOMETRY::fromJSON</title>
<!-- Node1 -->
<g id="Node000001" class="node">
<title>Node1</title>
<g id="a_Node000001"><a xlink:title=" ">
<polygon fill="#999999" stroke="#666666" points="815.75,-32 670.75,-32 670.75,0 815.75,0 815.75,-32"/>
<text text-anchor="start" x="678.75" y="-18.5" font-family="Helvetica,sans-Serif" font-size="10.00">Database::SDO_GEOMETRY</text>
<text text-anchor="middle" x="743.25" y="-6.5" font-family="Helvetica,sans-Serif" font-size="10.00">::fromJSON</text>
</a>
</g>
</g>
<!-- Node2 -->
<g id="Node000002" class="node">
<title>Node2</title>
<g id="a_Node000002"><a xlink:href="../../d7/d3d/struct_database_1_1_objeto.html#a23779e9f38a1d1ed6ff784d1e7969953" target="_top" xlink:title=" ">
<polygon fill="white" stroke="#666666" points="634.75,-26 492,-26 492,-6 634.75,-6 634.75,-26"/>
<text text-anchor="middle" x="563.38" y="-12.5" font-family="Helvetica,sans-Serif" font-size="10.00">Database::Objeto::fromQuery</text>
</a>
</g>
</g>
<!-- Node1&#45;&gt;Node2 -->
<g id="edge1_Node000001_Node000002" class="edge">
<title>Node1&#45;&gt;Node2</title>
<g id="a_edge1_Node000001_Node000002"><a xlink:title=" ">
<path fill="none" stroke="#63b8ff" d="M659.11,-16C651.06,-16 642.94,-16 635.03,-16"/>
<polygon fill="#63b8ff" stroke="#63b8ff" points="658.9,-19.5 668.9,-16 658.9,-12.5 658.9,-19.5"/>
</a>
</g>
</g>
<!-- Node3 -->
<g id="Node000003" class="node">
<title>Node3</title>
<g id="a_Node000003"><a xlink:href="../../d1/d09/class_database_connector.html#a5ebff79b9221572c5cc1372f375a9644" target="_top" xlink:title=" ">
<polygon fill="white" stroke="#666666" points="456,-32 348.5,-32 348.5,0 456,0 456,-32"/>
<text text-anchor="start" x="356.5" y="-18.5" font-family="Helvetica,sans-Serif" font-size="10.00">DatabaseConnector::</text>
<text text-anchor="middle" x="402.25" y="-6.5" font-family="Helvetica,sans-Serif" font-size="10.00">queryObjeto</text>
</a>
</g>
</g>
<!-- Node2&#45;&gt;Node3 -->
<g id="edge2_Node000002_Node000003" class="edge">
<title>Node2&#45;&gt;Node3</title>
<g id="a_edge2_Node000002_Node000003"><a xlink:title=" ">
<path fill="none" stroke="#63b8ff" d="M480.4,-16C472.14,-16 463.92,-16 456.08,-16"/>
<polygon fill="#63b8ff" stroke="#63b8ff" points="480.14,-19.5 490.14,-16 480.14,-12.5 480.14,-19.5"/>
</a>
</g>
</g>
<!-- Node4 -->
<g id="Node000004" class="node">
<title>Node4</title>
<g id="a_Node000004"><a xlink:href="../../d7/dbe/class_g_e_u_1_1_database_query_popup.html#a66a3af3a767847d263899d0d0e287b78" target="_top" xlink:title=" ">
<polygon fill="white" stroke="#666666" points="312.5,-32 174.25,-32 174.25,0 312.5,0 312.5,-32"/>
<text text-anchor="start" x="182.25" y="-18.5" font-family="Helvetica,sans-Serif" font-size="10.00">GEU::DatabaseQueryPopup</text>
<text text-anchor="middle" x="243.38" y="-6.5" font-family="Helvetica,sans-Serif" font-size="10.00">::queryFilterObjeto</text>
</a>
</g>
</g>
<!-- Node3&#45;&gt;Node4 -->
<g id="edge3_Node000003_Node000004" class="edge">
<title>Node3&#45;&gt;Node4</title>
<g id="a_edge3_Node000003_Node000004"><a xlink:title=" ">
<path fill="none" stroke="#63b8ff" d="M336.72,-16C328.81,-16 320.7,-16 312.73,-16"/>
<polygon fill="#63b8ff" stroke="#63b8ff" points="336.63,-19.5 346.63,-16 336.63,-12.5 336.63,-19.5"/>
</a>
</g>
</g>
<!-- Node5 -->
<g id="Node000005" class="node">
<title>Node5</title>
<g id="a_Node000005"><a xlink:href="../../d7/dbe/class_g_e_u_1_1_database_query_popup.html#aee96f5bdc802183d992461ccf7af7606" target="_top" xlink:title=" ">
<polygon fill="white" stroke="#666666" points="138.25,-32 0,-32 0,0 138.25,0 138.25,-32"/>
<text text-anchor="start" x="8" y="-18.5" font-family="Helvetica,sans-Serif" font-size="10.00">GEU::DatabaseQueryPopup</text>
<text text-anchor="middle" x="69.12" y="-6.5" font-family="Helvetica,sans-Serif" font-size="10.00">::makeFormObjeto</text>
</a>
</g>
</g>
<!-- Node4&#45;&gt;Node5 -->
<g id="edge4_Node000004_Node000005" class="edge">
<title>Node4&#45;&gt;Node5</title>
<g id="a_edge4_Node000004_Node000005"><a xlink:title=" ">
<path fill="none" stroke="#63b8ff" d="M162.33,-16C154.45,-16 146.5,-16 138.74,-16"/>
<polygon fill="#63b8ff" stroke="#63b8ff" points="162.29,-19.5 172.29,-16 162.29,-12.5 162.29,-19.5"/>
</a>
</g>
</g>
</g>
</svg>
