<?xml version="1.0" encoding="UTF-8" standalone="no"?>
<!DOCTYPE svg PUBLIC "-//W3C//DTD SVG 1.1//EN"
 "http://www.w3.org/Graphics/SVG/1.1/DTD/svg11.dtd">
<!-- Generated by graphviz version 10.0.1 (20240210.2158)
 -->
<!-- Title: GEU::DatabaseDownloadedFiles Pages: 1 -->
<!--zoomable 497 -->

<svg id="main" version="1.1" xmlns="http://www.w3.org/2000/svg" xmlns:xlink="http://www.w3.org/1999/xlink" xml:space="preserve" onload="init(evt)">
<style type="text/css"><![CDATA[
.node, .edge {opacity: 0.7;}
.node.selected, .edge.selected {opacity: 1;}
.edge:hover path { stroke: red; }
.edge:hover polygon { stroke: red; fill: red; }
]]></style>

<defs>
  <circle id="rim" cx="0" cy="0" r="7"/>
  <circle id="rim2" cx="0" cy="0" r="3.5"/>
  <g id="zoomPlus">
    <use xlink:href="#rim" fill="#404040"><set attributeName="fill" to="#808080" begin="zoomplus.mouseover" end="zoomplus.mouseout"/></use>
    <path d="M-4,0h8M0,-4v8" fill="none" stroke="white" stroke-width="1.5" pointer-events="none"/>
  </g>
  <g id="zoomMin">
    <use xlink:href="#rim" fill="#404040"><set attributeName="fill" to="#808080" begin="zoomminus.mouseover" end="zoomminus.mouseout"/></use>
    <path d="M-4,0h8" fill="none" stroke="white" stroke-width="1.5" pointer-events="none"/>
  </g>
  <g id="arrowUp" transform="translate(30 24)">
    <use xlink:href="#rim"/>
    <path pointer-events="none" fill="none" stroke="white" stroke-width="1.5" d="M0,-3.0v7 M-2.5,-0.5L0,-3.0L2.5,-0.5"/>
  </g>
  <g id="arrowRight" transform="rotate(90) translate(36 -43)">
    <use xlink:href="#rim"/>
    <path pointer-events="none" fill="none" stroke="white" stroke-width="1.5" d="M0,-3.0v7 M-2.5,-0.5L0,-3.0L2.5,-0.5"/>
  </g>
  <g id="arrowDown" transform="rotate(180) translate(-30 -48)">
    <use xlink:href="#rim"/>
    <path pointer-events="none" fill="none" stroke="white" stroke-width="1.5" d="M0,-3.0v7 M-2.5,-0.5L0,-3.0L2.5,-0.5"/>
  </g>
  <g id="arrowLeft" transform="rotate(270) translate(-36 17)">
    <use xlink:href="#rim"/>
    <path pointer-events="none" fill="none" stroke="white" stroke-width="1.5" d="M0,-3.0v7 M-2.5,-0.5L0,-3.0L2.5,-0.5"/>
  </g>
  <g id="resetDef">
    <use xlink:href="#rim2" fill="#404040"><set attributeName="fill" to="#808080" begin="reset.mouseover" end="reset.mouseout"/></use>
  </g>
</defs>
<script type="application/ecmascript">
var viewWidth = 338;
var viewHeight = 497;
var sectionId = 'dynsection-0';
</script>
<script type="application/ecmascript" xlink:href="../../svg.min.js"/>
<svg id="graph" class="graph">
<g id="viewport">
<title>GEU::DatabaseDownloadedFiles</title>
<!-- Node1 -->
<g id="Node000001" class="node">
<title>Node1</title>
<g id="a_Node000001"><a xlink:title=" ">
<polygon fill="#999999" stroke="#666666" points="157.75,-20 0,-20 0,0 157.75,0 157.75,-20"/>
<text text-anchor="middle" x="78.88" y="-6.5" font-family="Helvetica,sans-Serif" font-size="10.00">GEU::DatabaseDownloadedFiles</text>
</a>
</g>
</g>
<!-- Node2 -->
<g id="Node000002" class="node">
<title>Node2</title>
<g id="a_Node000002"><a xlink:title=" ">
<polygon fill="white" stroke="#666666" points="217.5,-100 106.25,-100 106.25,-68 217.5,-68 217.5,-100"/>
<text text-anchor="start" x="114.25" y="-86.5" font-family="Helvetica,sans-Serif" font-size="10.00">std::vector&lt; Database</text>
<text text-anchor="middle" x="161.88" y="-74.5" font-family="Helvetica,sans-Serif" font-size="10.00">::Dato &gt;</text>
</a>
</g>
</g>
<!-- Node2&#45;&gt;Node1 -->
<g id="edge1_Node000001_Node000002" class="edge">
<title>Node2&#45;&gt;Node1</title>
<g id="a_edge1_Node000001_Node000002"><a xlink:title=" ">
<path fill="none" stroke="#9a32cd" stroke-dasharray="5,2" d="M135.58,-60.19C120.03,-46.7 101.18,-30.35 89.61,-20.31"/>
<polygon fill="#9a32cd" stroke="#9a32cd" points="133.28,-62.83 143.13,-66.74 137.87,-57.54 133.28,-62.83"/>
</a>
</g>
<text text-anchor="middle" x="162.62" y="-40.5" font-family="Helvetica,sans-Serif" font-size="10.00" fill="grey"> _downloadedData</text>
</g>
<!-- Node3 -->
<g id="Node000003" class="node">
<title>Node3</title>
<g id="a_Node000003"><a xlink:href="../../d4/d34/struct_database_1_1_dato.html" target="_top" xlink:title=" ">
<polygon fill="white" stroke="#666666" points="219.62,-170 136.12,-170 136.12,-150 219.62,-150 219.62,-170"/>
<text text-anchor="middle" x="177.88" y="-156.5" font-family="Helvetica,sans-Serif" font-size="10.00">Database::Dato</text>
</a>
</g>
</g>
<!-- Node3&#45;&gt;Node2 -->
<g id="edge2_Node000002_Node000003" class="edge">
<title>Node3&#45;&gt;Node2</title>
<g id="a_edge2_Node000002_Node000003"><a xlink:title=" ">
<path fill="none" stroke="#9a32cd" stroke-dasharray="5,2" d="M173.43,-138.44C170.83,-126.42 167.6,-111.5 165.22,-100.48"/>
<polygon fill="#9a32cd" stroke="#9a32cd" points="169.99,-139.11 175.53,-148.15 176.84,-137.63 169.99,-139.11"/>
</a>
</g>
<text text-anchor="middle" x="192.25" y="-120.5" font-family="Helvetica,sans-Serif" font-size="10.00" fill="grey"> elements</text>
</g>
<!-- Node4 -->
<g id="Node000004" class="node">
<title>Node4</title>
<g id="a_Node000004"><a xlink:title=" ">
<polygon fill="white" stroke="#666666" points="138.62,-420 79.12,-420 79.12,-400 138.62,-400 138.62,-420"/>
<text text-anchor="middle" x="108.88" y="-406.5" font-family="Helvetica,sans-Serif" font-size="10.00">std::string</text>
</a>
</g>
</g>
<!-- Node4&#45;&gt;Node1 -->
<g id="edge7_Node000001_Node000004" class="edge">
<title>Node4&#45;&gt;Node1</title>
<g id="a_edge7_Node000001_Node000004"><a xlink:title=" ">
<path fill="none" stroke="#9a32cd" stroke-dasharray="5,2" d="M94.99,-390.41C81.44,-370.4 62.88,-337.11 62.88,-305 62.88,-305 62.88,-305 62.88,-83 62.88,-59.95 70.79,-33.72 75.48,-20.18"/>
<polygon fill="#9a32cd" stroke="#9a32cd" points="91.97,-392.21 100.61,-398.35 97.69,-388.17 91.97,-392.21"/>
</a>
</g>
<text text-anchor="middle" x="90.62" y="-162.5" font-family="Helvetica,sans-Serif" font-size="10.00" fill="grey"> _localPath</text>
<text text-anchor="middle" x="90.62" y="-150.5" font-family="Helvetica,sans-Serif" font-size="10.00" fill="grey">_remotePath</text>
</g>
<!-- Node4&#45;&gt;Node3 -->
<g id="edge3_Node000003_Node000004" class="edge">
<title>Node4&#45;&gt;Node3</title>
<g id="a_edge3_Node000003_Node000004"><a xlink:title=" ">
<path fill="none" stroke="#9a32cd" stroke-dasharray="5,2" d="M107.05,-388.34C105.1,-358.37 104.03,-301.48 118.62,-256 129.74,-221.39 156.23,-186.65 169.7,-170.44"/>
<polygon fill="#9a32cd" stroke="#9a32cd" points="103.56,-388.53 107.81,-398.24 110.54,-388 103.56,-388.53"/>
</a>
</g>
<text text-anchor="middle" x="159" y="-342.5" font-family="Helvetica,sans-Serif" font-size="10.00" fill="grey"> SELECT_QUERY</text>
<text text-anchor="middle" x="159" y="-330.5" font-family="Helvetica,sans-Serif" font-size="10.00" fill="grey">descripcion</text>
<text text-anchor="middle" x="159" y="-318.5" font-family="Helvetica,sans-Serif" font-size="10.00" fill="grey">distintivo</text>
<text text-anchor="middle" x="159" y="-306.5" font-family="Helvetica,sans-Serif" font-size="10.00" fill="grey">nombre</text>
<text text-anchor="middle" x="159" y="-294.5" font-family="Helvetica,sans-Serif" font-size="10.00" fill="grey">rutaNAS</text>
<text text-anchor="middle" x="159" y="-282.5" font-family="Helvetica,sans-Serif" font-size="10.00" fill="grey">software</text>
<text text-anchor="middle" x="159" y="-270.5" font-family="Helvetica,sans-Serif" font-size="10.00" fill="grey">tipo</text>
<text text-anchor="middle" x="159" y="-258.5" font-family="Helvetica,sans-Serif" font-size="10.00" fill="grey">ubicacion</text>
</g>
<!-- Node6 -->
<g id="Node000006" class="node">
<title>Node6</title>
<g id="a_Node000006"><a xlink:title=" ">
<polygon fill="white" stroke="#666666" points="330.12,-314 207.62,-314 207.62,-294 330.12,-294 330.12,-314"/>
<text text-anchor="middle" x="268.88" y="-300.5" font-family="Helvetica,sans-Serif" font-size="10.00">std::vector&lt; std::string &gt;</text>
</a>
</g>
</g>
<!-- Node4&#45;&gt;Node6 -->
<g id="edge6_Node000006_Node000004" class="edge">
<title>Node4&#45;&gt;Node6</title>
<g id="a_edge6_Node000006_Node000004"><a xlink:title=" ">
<path fill="none" stroke="#9a32cd" stroke-dasharray="5,2" d="M132.91,-393.38C166.66,-371.44 227.05,-332.18 254.54,-314.32"/>
<polygon fill="#9a32cd" stroke="#9a32cd" points="131.1,-390.38 124.63,-398.76 134.92,-396.25 131.1,-390.38"/>
</a>
</g>
<text text-anchor="middle" x="187.25" y="-372.5" font-family="Helvetica,sans-Serif" font-size="10.00" fill="grey"> elements</text>
</g>
<!-- Node5 -->
<g id="Node000005" class="node">
<title>Node5</title>
<g id="a_Node000005"><a xlink:title=" ">
<polygon fill="white" stroke="#666666" points="155.88,-489 61.87,-489 61.87,-457 155.88,-457 155.88,-489"/>
<text text-anchor="start" x="69.88" y="-475.5" font-family="Helvetica,sans-Serif" font-size="10.00">std::basic_string&lt;</text>
<text text-anchor="middle" x="108.88" y="-463.5" font-family="Helvetica,sans-Serif" font-size="10.00"> Char &gt;</text>
</a>
</g>
</g>
<!-- Node5&#45;&gt;Node4 -->
<g id="edge4_Node000004_Node000005" class="edge">
<title>Node5&#45;&gt;Node4</title>
<g id="a_edge4_Node000004_Node000005"><a xlink:title=" ">
<path fill="none" stroke="#63b8ff" d="M108.88,-445.36C108.88,-436.41 108.88,-427.01 108.88,-420.31"/>
<polygon fill="#63b8ff" stroke="#63b8ff" points="105.38,-445.09 108.88,-455.09 112.38,-445.09 105.38,-445.09"/>
</a>
</g>
</g>
<!-- Node6&#45;&gt;Node3 -->
<g id="edge5_Node000003_Node000006" class="edge">
<title>Node6&#45;&gt;Node3</title>
<g id="a_edge5_Node000003_Node000006"><a xlink:title=" ">
<path fill="none" stroke="#9a32cd" stroke-dasharray="5,2" d="M256.75,-284.09C236.96,-253.2 198.43,-193.08 183.75,-170.17"/>
<polygon fill="#9a32cd" stroke="#9a32cd" points="253.75,-285.88 262.09,-292.41 259.64,-282.1 253.75,-285.88"/>
</a>
</g>
<text text-anchor="middle" x="270.12" y="-228.5" font-family="Helvetica,sans-Serif" font-size="10.00" fill="grey"> DISTINTIVOS</text>
<text text-anchor="middle" x="270.12" y="-216.5" font-family="Helvetica,sans-Serif" font-size="10.00" fill="grey">TIPOS</text>
<text text-anchor="middle" x="270.12" y="-204.5" font-family="Helvetica,sans-Serif" font-size="10.00" fill="grey">TIPOS_FORMATOS</text>
<text text-anchor="middle" x="270.12" y="-192.5" font-family="Helvetica,sans-Serif" font-size="10.00" fill="grey">TIPOS_MANUAL</text>
</g>
</g>
</svg>

<g id="navigator" transform="translate(0 0)" fill="#404254">
  <rect fill="#f2f5e9" fill-opacity="0.5" stroke="#606060" stroke-width=".5" x="0" y="0" width="60" height="60"/>
  <use id="zoomplus" xlink:href="#zoomPlus" x="17" y="9" onmousedown="handleZoom(evt,'in')"/>
  <use id="zoomminus" xlink:href="#zoomMin" x="42" y="9" onmousedown="handleZoom(evt,'out')"/>
  <use id="reset" xlink:href="#resetDef" x="30" y="36" onmousedown="handleReset()"/>
   <use id="arrowup" xlink:href="#arrowUp" x="0" y="0" onmousedown="handlePan(0,-1)"/>
  <use id="arrowright" xlink:href="#arrowRight" x="0" y="0" onmousedown="handlePan(1,0)"/>
  <use id="arrowdown" xlink:href="#arrowDown" x="0" y="0" onmousedown="handlePan(0,1)"/>
  <use id="arrowleft" xlink:href="#arrowLeft" x="0" y="0" onmousedown="handlePan(-1,0)"/>
</g>
<svg viewBox="0 0 15 15" width="100%" height="30px" preserveAspectRatio="xMaxYMin meet">
 <g id="arrow_out" transform="scale(0.3 0.3)">
  <a xlink:href="struct_g_e_u_1_1_database_downloaded_files__coll__graph_org.svg" target="_base">
   <rect id="button" ry="5" rx="5" y="6" x="6" height="38" width="38"
        fill="#f2f5e9" fill-opacity="0.5" stroke="#606060" stroke-width="1.0"/>
   <path id="arrow"
     d="M 11.500037,31.436501 C 11.940474,20.09759 22.043105,11.32322 32.158766,21.979434 L 37.068811,17.246167 C 37.068811,17.246167 37.088388,32 37.088388,32 L 22.160133,31.978069 C 22.160133,31.978069 26.997745,27.140456 26.997745,27.140456 C 18.528582,18.264221 13.291696,25.230495 11.500037,31.436501 z"
     style="fill:#404040;"/>
  </a>
 </g>
</svg>

<style type='text/css'>
<![CDATA[
[data-mouse-over-selected='false'] { opacity: 0.7; }
[data-mouse-over-selected='true']  { opacity: 1.0; }
]]>
</style>
<script type="application/ecmascript"><![CDATA[
document.addEventListener('DOMContentLoaded', (event) => {
  highlightEdges();
  highlightAdjacentNodes();
});
]]></script>
</svg>
