<?xml version="1.0" encoding="UTF-8" standalone="no"?>
<!DOCTYPE svg PUBLIC "-//W3C//DTD SVG 1.1//EN"
 "http://www.w3.org/Graphics/SVG/1.1/DTD/svg11.dtd">
<!-- Generated by graphviz version 10.0.1 (20240210.2158)
 -->
<!-- Title: PinHoleImg Pages: 1 -->
<svg width="150pt" height="140pt"
 viewBox="0.00 0.00 150.12 140.00" xmlns="http://www.w3.org/2000/svg" xmlns:xlink="http://www.w3.org/1999/xlink">
<g id="graph0" class="graph" transform="scale(1 1) rotate(0) translate(4 136)">
<title>PinHoleImg</title>
<!-- Node1 -->
<g id="Node000001" class="node">
<title>Node1</title>
<g id="a_Node000001"><a xlink:title=" ">
<polygon fill="#999999" stroke="#666666" points="95.38,-76 29.88,-76 29.88,-56 95.38,-56 95.38,-76"/>
<text text-anchor="middle" x="62.62" y="-62.5" font-family="Helvetica,sans-Serif" font-size="10.00">PinHoleImg</text>
</a>
</g>
</g>
<!-- Node3 -->
<g id="Node000003" class="node">
<title>Node3</title>
<g id="a_Node000003"><a xlink:href="../../d1/d00/class_d_j_i_img.html" target="_top" xlink:title=" ">
<polygon fill="white" stroke="#666666" points="45.25,-20 0,-20 0,0 45.25,0 45.25,-20"/>
<text text-anchor="middle" x="22.62" y="-6.5" font-family="Helvetica,sans-Serif" font-size="10.00">DJIImg</text>
</a>
</g>
</g>
<!-- Node1&#45;&gt;Node3 -->
<g id="edge2_Node000001_Node000003" class="edge">
<title>Node1&#45;&gt;Node3</title>
<g id="a_edge2_Node000001_Node000003"><a xlink:title=" ">
<path fill="none" stroke="#63b8ff" d="M48.87,-46.44C42.34,-37.62 34.82,-27.47 29.51,-20.3"/>
<polygon fill="#63b8ff" stroke="#63b8ff" points="45.99,-48.43 54.76,-54.38 51.62,-44.26 45.99,-48.43"/>
</a>
</g>
</g>
<!-- Node4 -->
<g id="Node000004" class="node">
<title>Node4</title>
<g id="a_Node000004"><a xlink:href="../../d6/d01/class_micasense_img.html" target="_top" xlink:title=" ">
<polygon fill="white" stroke="#666666" points="142.12,-20 63.12,-20 63.12,0 142.12,0 142.12,-20"/>
<text text-anchor="middle" x="102.62" y="-6.5" font-family="Helvetica,sans-Serif" font-size="10.00">MicasenseImg</text>
</a>
</g>
</g>
<!-- Node1&#45;&gt;Node4 -->
<g id="edge3_Node000001_Node000004" class="edge">
<title>Node1&#45;&gt;Node4</title>
<g id="a_edge3_Node000001_Node000004"><a xlink:title=" ">
<path fill="none" stroke="#63b8ff" d="M76.38,-46.44C82.91,-37.62 90.43,-27.47 95.74,-20.3"/>
<polygon fill="#63b8ff" stroke="#63b8ff" points="73.63,-44.26 70.49,-54.38 79.26,-48.43 73.63,-44.26"/>
</a>
</g>
</g>
<!-- Node2 -->
<g id="Node000002" class="node">
<title>Node2</title>
<g id="a_Node000002"><a xlink:href="../../d2/d00/class_multispectral_img.html" target="_top" xlink:title=" ">
<polygon fill="white" stroke="#666666" points="106.25,-132 19,-132 19,-112 106.25,-112 106.25,-132"/>
<text text-anchor="middle" x="62.62" y="-118.5" font-family="Helvetica,sans-Serif" font-size="10.00">MultispectralImg</text>
</a>
</g>
</g>
<!-- Node2&#45;&gt;Node1 -->
<g id="edge1_Node000001_Node000002" class="edge">
<title>Node2&#45;&gt;Node1</title>
<g id="a_edge1_Node000001_Node000002"><a xlink:title=" ">
<path fill="none" stroke="#63b8ff" d="M62.62,-100.13C62.62,-91.9 62.62,-82.85 62.62,-76.3"/>
<polygon fill="#63b8ff" stroke="#63b8ff" points="59.13,-100.08 62.63,-110.08 66.13,-100.08 59.13,-100.08"/>
</a>
</g>
</g>
</g>
</svg>
