<?xml version="1.0" encoding="UTF-8" standalone="no"?>
<!DOCTYPE svg PUBLIC "-//W3C//DTD SVG 1.1//EN"
 "http://www.w3.org/Graphics/SVG/1.1/DTD/svg11.dtd">
<!-- Generated by graphviz version 10.0.1 (20240210.2158)
 -->
<!-- Title: json::jobject::entry::vector&lt; std::string &gt; Pages: 1 -->
<svg width="676pt" height="180pt"
 viewBox="0.00 0.00 676.00 180.00" xmlns="http://www.w3.org/2000/svg" xmlns:xlink="http://www.w3.org/1999/xlink">
<g id="graph0" class="graph" transform="scale(1 1) rotate(0) translate(4 176)">
<title>json::jobject::entry::vector&lt; std::string &gt;</title>
<!-- Node1 -->
<g id="Node000001" class="node">
<title>Node1</title>
<g id="a_Node000001"><a xlink:title="Casts an array of strings.">
<polygon fill="#999999" stroke="#666666" points="109,-70 0,-70 0,-38 109,-38 109,-70"/>
<text text-anchor="start" x="8" y="-56.5" font-family="Helvetica,sans-Serif" font-size="10.00">json::jobject::entry</text>
<text text-anchor="middle" x="54.5" y="-44.5" font-family="Helvetica,sans-Serif" font-size="10.00">::vector&lt; std::string &gt;</text>
</a>
</g>
</g>
<!-- Node2 -->
<g id="Node000002" class="node">
<title>Node2</title>
<g id="a_Node000002"><a xlink:href="../../dd/d06/a00639.html#a4728315996e44bc74b7c8346b6ae10fe" target="_top" xlink:title="Parses a JSON array.">
<polygon fill="white" stroke="#666666" points="252.12,-92 150.62,-92 150.62,-60 252.12,-60 252.12,-92"/>
<text text-anchor="start" x="158.62" y="-78.5" font-family="Helvetica,sans-Serif" font-size="10.00">json::parsing::parse</text>
<text text-anchor="middle" x="201.38" y="-66.5" font-family="Helvetica,sans-Serif" font-size="10.00">_array</text>
</a>
</g>
</g>
<!-- Node1&#45;&gt;Node2 -->
<g id="edge1_Node000001_Node000002" class="edge">
<title>Node1&#45;&gt;Node2</title>
<g id="a_edge1_Node000001_Node000002"><a xlink:title=" ">
<path fill="none" stroke="#63b8ff" d="M109.45,-62.19C119.04,-63.65 129.11,-65.18 138.9,-66.66"/>
<polygon fill="#63b8ff" stroke="#63b8ff" points="138.31,-70.12 148.72,-68.16 139.36,-63.19 138.31,-70.12"/>
</a>
</g>
</g>
<!-- Node11 -->
<g id="Node000011" class="node">
<title>Node11</title>
<g id="a_Node000011"><a xlink:href="../../d8/d04/a02001.html#a8543f20adc3735f8b96607891db655f3" target="_top" xlink:title="A method for reference the entry&#39;s value.">
<polygon fill="white" stroke="#666666" points="257.75,-42 145,-42 145,-22 257.75,-22 257.75,-42"/>
<text text-anchor="middle" x="201.38" y="-28.5" font-family="Helvetica,sans-Serif" font-size="10.00">json::jobject::entry::ref</text>
</a>
</g>
</g>
<!-- Node1&#45;&gt;Node11 -->
<g id="edge12_Node000001_Node000011" class="edge">
<title>Node1&#45;&gt;Node11</title>
<g id="a_edge12_Node000001_Node000011"><a xlink:title=" ">
<path fill="none" stroke="#63b8ff" d="M109.45,-45.81C117.32,-44.61 125.51,-43.37 133.6,-42.14"/>
<polygon fill="#63b8ff" stroke="#63b8ff" points="134.07,-45.61 143.44,-40.65 133.02,-38.69 134.07,-45.61"/>
</a>
</g>
</g>
<!-- Node3 -->
<g id="Node000003" class="node">
<title>Node3</title>
<g id="a_Node000003"><a xlink:href="../../dd/d06/a00639.html#a38da988d5211eacc7d4b76da2236e51a" target="_top" xlink:title="Decodes a string in JSON format.">
<polygon fill="white" stroke="#666666" points="402.75,-136 293.75,-136 293.75,-104 402.75,-104 402.75,-136"/>
<text text-anchor="start" x="301.75" y="-122.5" font-family="Helvetica,sans-Serif" font-size="10.00">json::parsing::decode</text>
<text text-anchor="middle" x="348.25" y="-110.5" font-family="Helvetica,sans-Serif" font-size="10.00">_string</text>
</a>
</g>
</g>
<!-- Node2&#45;&gt;Node3 -->
<g id="edge2_Node000002_Node000003" class="edge">
<title>Node2&#45;&gt;Node3</title>
<g id="a_edge2_Node000002_Node000003"><a xlink:title=" ">
<path fill="none" stroke="#63b8ff" d="M252.23,-91.14C261.97,-94.1 272.31,-97.24 282.45,-100.32"/>
<polygon fill="#63b8ff" stroke="#63b8ff" points="281.31,-103.63 291.89,-103.19 283.34,-96.93 281.31,-103.63"/>
</a>
</g>
</g>
<!-- Node4 -->
<g id="Node000004" class="node">
<title>Node4</title>
<g id="a_Node000004"><a xlink:href="../../dd/d06/a00639.html#a2b8591533a42f229d2070223a6c48aa7" target="_top" xlink:title="Parses the first value encountered in a JSON string.">
<polygon fill="white" stroke="#666666" points="399,-86 297.5,-86 297.5,-66 399,-66 399,-86"/>
<text text-anchor="middle" x="348.25" y="-72.5" font-family="Helvetica,sans-Serif" font-size="10.00">json::parsing::parse</text>
</a>
</g>
</g>
<!-- Node2&#45;&gt;Node4 -->
<g id="edge3_Node000002_Node000004" class="edge">
<title>Node2&#45;&gt;Node4</title>
<g id="a_edge3_Node000002_Node000004"><a xlink:title=" ">
<path fill="none" stroke="#63b8ff" d="M252.23,-76C263.05,-76 274.6,-76 285.8,-76"/>
<polygon fill="#63b8ff" stroke="#63b8ff" points="285.79,-79.5 295.79,-76 285.79,-72.5 285.79,-79.5"/>
</a>
</g>
</g>
<!-- Node9 -->
<g id="Node000009" class="node">
<title>Node9</title>
<g id="a_Node000009"><a xlink:href="../../dd/d06/a00639.html#a0ead22b90b3354cc09a0a21e517e9385" target="_top" xlink:title="(t)rims (l)eading (w)hite (s)pace">
<polygon fill="white" stroke="#666666" points="538.75,-20 444,-20 444,0 538.75,0 538.75,-20"/>
<text text-anchor="middle" x="491.38" y="-6.5" font-family="Helvetica,sans-Serif" font-size="10.00">json::parsing::tlws</text>
</a>
</g>
</g>
<!-- Node2&#45;&gt;Node9 -->
<g id="edge11_Node000002_Node000009" class="edge">
<title>Node2&#45;&gt;Node9</title>
<g id="a_edge11_Node000002_Node000009"><a xlink:title=" ">
<path fill="none" stroke="#63b8ff" d="M252.54,-64.5C302.99,-52.94 380.65,-35.14 433.39,-23.06"/>
<polygon fill="#63b8ff" stroke="#63b8ff" points="434.14,-26.48 443.11,-20.83 432.58,-19.65 434.14,-26.48"/>
</a>
</g>
</g>
<!-- Node5 -->
<g id="Node000005" class="node">
<title>Node5</title>
<g id="a_Node000005"><a xlink:href="../../d3/d07/a01985.html#afefb8447a7db13bc4f6f7dc5f12a22c2" target="_top" xlink:title="Checks if the stored value is valid.">
<polygon fill="white" stroke="#666666" points="543.62,-172 439.12,-172 439.12,-152 543.62,-152 543.62,-172"/>
<text text-anchor="middle" x="491.38" y="-158.5" font-family="Helvetica,sans-Serif" font-size="10.00">json::reader::is_valid</text>
</a>
</g>
</g>
<!-- Node4&#45;&gt;Node5 -->
<g id="edge4_Node000004_Node000005" class="edge">
<title>Node4&#45;&gt;Node5</title>
<g id="a_edge4_Node000004_Node000005"><a xlink:title=" ">
<path fill="none" stroke="#63b8ff" d="M387.49,-86.44C392.88,-88.78 398.15,-91.61 402.75,-95 424.23,-110.8 417.36,-127.08 438.75,-143 440.3,-144.16 441.94,-145.25 443.62,-146.28"/>
<polygon fill="#63b8ff" stroke="#63b8ff" points="441.91,-149.34 452.4,-150.84 445.14,-143.12 441.91,-149.34"/>
</a>
</g>
</g>
<!-- Node6 -->
<g id="Node000006" class="node">
<title>Node6</title>
<g id="a_Node000006"><a xlink:href="../../d3/d07/a01985.html#aa1d0e99cecf438761764c16fa39134d1" target="_top" xlink:title=" ">
<polygon fill="white" stroke="#666666" points="538.38,-134 444.38,-134 444.38,-114 538.38,-114 538.38,-134"/>
<text text-anchor="middle" x="491.38" y="-120.5" font-family="Helvetica,sans-Serif" font-size="10.00">json::reader::push</text>
</a>
</g>
</g>
<!-- Node4&#45;&gt;Node6 -->
<g id="edge5_Node000004_Node000006" class="edge">
<title>Node4&#45;&gt;Node6</title>
<g id="a_edge5_Node000004_Node000006"><a xlink:title=" ">
<path fill="none" stroke="#63b8ff" d="M379.87,-86.42C400.12,-93.3 426.92,-102.42 449.05,-109.94"/>
<polygon fill="#63b8ff" stroke="#63b8ff" points="447.79,-113.21 458.38,-113.12 450.04,-106.58 447.79,-113.21"/>
</a>
</g>
</g>
<!-- Node8 -->
<g id="Node000008" class="node">
<title>Node8</title>
<g id="a_Node000008"><a xlink:href="../../d3/d07/a01985.html#ae1cfe678a10a9d0a4b04ad5ff64c43c9" target="_top" xlink:title="Returns the stored value.">
<polygon fill="white" stroke="#666666" points="544,-96 438.75,-96 438.75,-76 544,-76 544,-96"/>
<text text-anchor="middle" x="491.38" y="-82.5" font-family="Helvetica,sans-Serif" font-size="10.00">json::reader::readout</text>
</a>
</g>
</g>
<!-- Node4&#45;&gt;Node8 -->
<g id="edge7_Node000004_Node000008" class="edge">
<title>Node4&#45;&gt;Node8</title>
<g id="a_edge7_Node000004_Node000008"><a xlink:title=" ">
<path fill="none" stroke="#63b8ff" d="M399.4,-79.55C408.41,-80.19 417.91,-80.87 427.24,-81.53"/>
<polygon fill="#63b8ff" stroke="#63b8ff" points="426.74,-85 436.97,-82.22 427.24,-78.02 426.74,-85"/>
</a>
</g>
</g>
<!-- Node4&#45;&gt;Node9 -->
<g id="edge8_Node000004_Node000009" class="edge">
<title>Node4&#45;&gt;Node9</title>
<g id="a_edge8_Node000004_Node000009"><a xlink:title=" ">
<path fill="none" stroke="#63b8ff" d="M367.41,-65.56C385.26,-55.52 413.41,-40.26 438.75,-29 442.11,-27.51 445.63,-26.03 449.18,-24.61"/>
<polygon fill="#63b8ff" stroke="#63b8ff" points="450.33,-27.91 458.4,-21.04 447.81,-21.38 450.33,-27.91"/>
</a>
</g>
</g>
<!-- Node10 -->
<g id="Node000010" class="node">
<title>Node10</title>
<g id="a_Node000010"><a xlink:href="../../d3/d07/a01985.html#aec12648e76c0f529f892d89d4fabfe4c" target="_top" xlink:title="Checks the value.">
<polygon fill="white" stroke="#666666" points="537.25,-58 445.5,-58 445.5,-38 537.25,-38 537.25,-58"/>
<text text-anchor="middle" x="491.38" y="-44.5" font-family="Helvetica,sans-Serif" font-size="10.00">json::reader::type</text>
</a>
</g>
</g>
<!-- Node4&#45;&gt;Node10 -->
<g id="edge9_Node000004_Node000010" class="edge">
<title>Node4&#45;&gt;Node10</title>
<g id="a_edge9_Node000004_Node000010"><a xlink:title=" ">
<path fill="none" stroke="#63b8ff" d="M399.4,-66.05C410.57,-63.83 422.49,-61.47 433.9,-59.21"/>
<polygon fill="#63b8ff" stroke="#63b8ff" points="434.47,-62.66 443.6,-57.28 433.11,-55.79 434.47,-62.66"/>
</a>
</g>
</g>
<!-- Node7 -->
<g id="Node000007" class="node">
<title>Node7</title>
<g id="a_Node000007"><a xlink:href="../../d1/d02/a00638.html#a41134b9f4ec1ec6b8db4f8027536b762" target="_top" xlink:title=" ">
<polygon fill="white" stroke="#666666" points="668,-96 580,-96 580,-76 668,-76 668,-96"/>
<text text-anchor="middle" x="624" y="-82.5" font-family="Helvetica,sans-Serif" font-size="10.00">json::jtype::peek</text>
</a>
</g>
</g>
<!-- Node6&#45;&gt;Node7 -->
<g id="edge6_Node000006_Node000007" class="edge">
<title>Node6&#45;&gt;Node7</title>
<g id="a_edge6_Node000006_Node000007"><a xlink:title=" ">
<path fill="none" stroke="#63b8ff" d="M528.41,-113.52C543.26,-109.2 560.66,-104.14 576.45,-99.54"/>
<polygon fill="#63b8ff" stroke="#63b8ff" points="577,-103.03 585.62,-96.87 575.05,-96.31 577,-103.03"/>
</a>
</g>
</g>
<!-- Node10&#45;&gt;Node7 -->
<g id="edge10_Node000010_Node000007" class="edge">
<title>Node10&#45;&gt;Node7</title>
<g id="a_edge10_Node000010_Node000007"><a xlink:title=" ">
<path fill="none" stroke="#63b8ff" d="M528.41,-58.48C543.26,-62.8 560.66,-67.86 576.45,-72.46"/>
<polygon fill="#63b8ff" stroke="#63b8ff" points="575.05,-75.69 585.62,-75.13 577,-68.97 575.05,-75.69"/>
</a>
</g>
</g>
</g>
</svg>
