<?xml version="1.0" encoding="UTF-8" standalone="no"?>
<!DOCTYPE svg PUBLIC "-//W3C//DTD SVG 1.1//EN"
 "http://www.w3.org/Graphics/SVG/1.1/DTD/svg11.dtd">
<!-- Generated by graphviz version 10.0.1 (20240210.2158)
 -->
<!-- Title: C:/GitHub/GEU/GEU/Source/UI/DatabaseNewDatoWindow.cpp Pages: 1 -->
<svg width="3731pt" height="276pt"
 viewBox="0.00 0.00 3730.50 276.00" xmlns="http://www.w3.org/2000/svg" xmlns:xlink="http://www.w3.org/1999/xlink">
<g id="graph0" class="graph" transform="scale(1 1) rotate(0) translate(4 272)">
<title>C:/GitHub/GEU/GEU/Source/UI/DatabaseNewDatoWindow.cpp</title>
<!-- Node1 -->
<g id="Node000001" class="node">
<title>Node1</title>
<g id="a_Node000001"><a xlink:title=" ">
<polygon fill="#999999" stroke="#666666" points="1732.88,-268 1568.38,-268 1568.38,-236 1732.88,-236 1732.88,-268"/>
<text text-anchor="start" x="1576.38" y="-254.5" font-family="Helvetica,sans-Serif" font-size="10.00">C:/GitHub/GEU/GEU/Source</text>
<text text-anchor="middle" x="1650.62" y="-242.5" font-family="Helvetica,sans-Serif" font-size="10.00">/UI/DatabaseNewDatoWindow.cpp</text>
</a>
</g>
</g>
<!-- Node2 -->
<g id="Node000002" class="node">
<title>Node2</title>
<g id="a_Node000002"><a xlink:href="../../db/d06/stdafx_8h.html" target="_top" xlink:title=" ">
<polygon fill="#fff0f0" stroke="red" points="1454.88,-88 1404.38,-88 1404.38,-68 1454.88,-68 1454.88,-88"/>
<text text-anchor="middle" x="1429.62" y="-74.5" font-family="Helvetica,sans-Serif" font-size="10.00">stdafx.h</text>
</a>
</g>
</g>
<!-- Node1&#45;&gt;Node2 -->
<g id="edge1_Node000001_Node000002" class="edge">
<title>Node1&#45;&gt;Node2</title>
<g id="a_edge1_Node000001_Node000002"><a xlink:title=" ">
<path fill="none" stroke="#63b8ff" d="M1567.99,-245.56C1527.76,-239.37 1480.65,-226.5 1445.62,-200 1416.4,-177.89 1407.4,-160.12 1413.62,-124 1415.09,-115.54 1417.98,-106.55 1420.92,-98.86"/>
<polygon fill="#63b8ff" stroke="#63b8ff" points="1424.08,-100.38 1424.64,-89.8 1417.6,-97.72 1424.08,-100.38"/>
</a>
</g>
</g>
<!-- Node46 -->
<g id="Node000046" class="node">
<title>Node46</title>
<g id="a_Node000046"><a xlink:href="../../df/d8a/_database_new_dato_window_8h.html" target="_top" xlink:title=" ">
<polygon fill="#fff0f0" stroke="red" points="1690.12,-144 1551.12,-144 1551.12,-124 1690.12,-124 1690.12,-144"/>
<text text-anchor="middle" x="1620.62" y="-130.5" font-family="Helvetica,sans-Serif" font-size="10.00">DatabaseNewDatoWindow.h</text>
</a>
</g>
</g>
<!-- Node1&#45;&gt;Node46 -->
<g id="edge43_Node000001_Node000046" class="edge">
<title>Node1&#45;&gt;Node46</title>
<g id="a_edge43_Node000001_Node000046"><a xlink:title=" ">
<path fill="none" stroke="#63b8ff" d="M1655.9,-235.57C1660.07,-220.86 1664.18,-198.31 1657.62,-180 1653.95,-169.73 1646.8,-160.13 1639.77,-152.46"/>
<polygon fill="#63b8ff" stroke="#63b8ff" points="1642.37,-150.11 1632.84,-145.48 1637.4,-155.04 1642.37,-150.11"/>
</a>
</g>
</g>
<!-- Node49 -->
<g id="Node000049" class="node">
<title>Node49</title>
<g id="a_Node000049"><a xlink:href="../../d7/d92/_database_connector_8h.html" target="_top" xlink:title=" ">
<polygon fill="#fff0f0" stroke="red" points="1624.12,-88 1479.12,-88 1479.12,-68 1624.12,-68 1624.12,-88"/>
<text text-anchor="middle" x="1551.62" y="-74.5" font-family="Helvetica,sans-Serif" font-size="10.00">Utilities/DatabaseConnector.h</text>
</a>
</g>
</g>
<!-- Node1&#45;&gt;Node49 -->
<g id="edge53_Node000001_Node000049" class="edge">
<title>Node1&#45;&gt;Node49</title>
<g id="a_edge53_Node000001_Node000049"><a xlink:title=" ">
<path fill="none" stroke="#63b8ff" d="M1665.48,-235.63C1688.07,-210.36 1725.8,-159.32 1699.62,-124 1684.37,-103.42 1659.94,-91.93 1635.28,-85.61"/>
<polygon fill="#63b8ff" stroke="#63b8ff" points="1636.36,-82.26 1625.83,-83.47 1634.81,-89.09 1636.36,-82.26"/>
</a>
</g>
</g>
<!-- Node51 -->
<g id="Node000051" class="node">
<title>Node51</title>
<g id="a_Node000051"><a xlink:title=" ">
<polygon fill="#e0e0e0" stroke="#999999" points="1648.25,-200 1603,-200 1603,-180 1648.25,-180 1648.25,-200"/>
<text text-anchor="middle" x="1625.62" y="-186.5" font-family="Helvetica,sans-Serif" font-size="10.00">ranges</text>
</a>
</g>
</g>
<!-- Node1&#45;&gt;Node51 -->
<g id="edge45_Node000001_Node000051" class="edge">
<title>Node1&#45;&gt;Node51</title>
<g id="a_edge45_Node000001_Node000051"><a xlink:title=" ">
<path fill="none" stroke="#63b8ff" d="M1644.19,-235.55C1641.04,-228 1637.22,-218.82 1633.86,-210.77"/>
<polygon fill="#63b8ff" stroke="#63b8ff" points="1637.2,-209.69 1630.13,-201.81 1630.74,-212.38 1637.2,-209.69"/>
</a>
</g>
</g>
<!-- Node52 -->
<g id="Node000052" class="node">
<title>Node52</title>
<g id="a_Node000052"><a xlink:href="../../dc/d38/_database_query_popup_8h.html" target="_top" xlink:title=" ">
<polygon fill="#fff0f0" stroke="red" points="1585.38,-200 1465.88,-200 1465.88,-180 1585.38,-180 1585.38,-200"/>
<text text-anchor="middle" x="1525.62" y="-186.5" font-family="Helvetica,sans-Serif" font-size="10.00">DatabaseQueryPopup.h</text>
</a>
</g>
</g>
<!-- Node1&#45;&gt;Node52 -->
<g id="edge46_Node000001_Node000052" class="edge">
<title>Node1&#45;&gt;Node52</title>
<g id="a_edge46_Node000001_Node000052"><a xlink:title=" ">
<path fill="none" stroke="#63b8ff" d="M1618.43,-235.55C1598.99,-226.22 1574.39,-214.41 1555.4,-205.29"/>
<polygon fill="#63b8ff" stroke="#63b8ff" points="1557.12,-202.23 1546.59,-201.06 1554.09,-208.55 1557.12,-202.23"/>
</a>
</g>
</g>
<!-- Node54 -->
<g id="Node000054" class="node">
<title>Node54</title>
<g id="a_Node000054"><a xlink:href="../../d4/d87/_gui_utilities_8h.html" target="_top" xlink:title=" ">
<polygon fill="white" stroke="#666666" points="1494.38,-144 1422.88,-144 1422.88,-124 1494.38,-124 1494.38,-144"/>
<text text-anchor="middle" x="1458.62" y="-130.5" font-family="Helvetica,sans-Serif" font-size="10.00">GuiUtilities.h</text>
</a>
</g>
</g>
<!-- Node1&#45;&gt;Node54 -->
<g id="edge52_Node000001_Node000054" class="edge">
<title>Node1&#45;&gt;Node54</title>
<g id="a_edge52_Node000001_Node000054"><a xlink:title=" ">
<path fill="none" stroke="#63b8ff" d="M1568.05,-239.51C1521.8,-231.19 1470.66,-218.2 1456.62,-200 1446.92,-187.41 1448.49,-169.02 1451.88,-155"/>
<polygon fill="#63b8ff" stroke="#63b8ff" points="1455.2,-156.11 1454.65,-145.53 1448.48,-154.14 1455.2,-156.11"/>
</a>
</g>
</g>
<!-- Node79 -->
<g id="Node000079" class="node">
<title>Node79</title>
<g id="a_Node000079"><a xlink:href="../../da/d5d/_g_u_i_8h.html" target="_top" xlink:title=" ">
<polygon fill="#fff0f0" stroke="red" points="1787,-200 1746.25,-200 1746.25,-180 1787,-180 1787,-200"/>
<text text-anchor="middle" x="1766.62" y="-186.5" font-family="Helvetica,sans-Serif" font-size="10.00">GUI.h</text>
</a>
</g>
</g>
<!-- Node1&#45;&gt;Node79 -->
<g id="edge51_Node000001_Node000079" class="edge">
<title>Node1&#45;&gt;Node79</title>
<g id="a_edge51_Node000001_Node000079"><a xlink:title=" ">
<path fill="none" stroke="#63b8ff" d="M1680.5,-235.55C1698.29,-226.35 1720.73,-214.74 1738.25,-205.68"/>
<polygon fill="#63b8ff" stroke="#63b8ff" points="1739.82,-208.81 1747.09,-201.1 1736.6,-202.59 1739.82,-208.81"/>
</a>
</g>
</g>
<!-- Node88 -->
<g id="Node000088" class="node">
<title>Node88</title>
<g id="a_Node000088"><a xlink:href="../../df/dbe/_n_a_s_session_8h.html" target="_top" xlink:title=" ">
<polygon fill="#fff0f0" stroke="red" points="1920.12,-200 1805.12,-200 1805.12,-180 1920.12,-180 1920.12,-200"/>
<text text-anchor="middle" x="1862.62" y="-186.5" font-family="Helvetica,sans-Serif" font-size="10.00">Utilities/NASSession.h</text>
</a>
</g>
</g>
<!-- Node1&#45;&gt;Node88 -->
<g id="edge54_Node000001_Node000088" class="edge">
<title>Node1&#45;&gt;Node88</title>
<g id="a_edge54_Node000001_Node000088"><a xlink:title=" ">
<path fill="none" stroke="#63b8ff" d="M1705.22,-235.55C1740.38,-225.6 1785.5,-212.83 1818.41,-203.51"/>
<polygon fill="#63b8ff" stroke="#63b8ff" points="1818.95,-207 1827.62,-200.91 1817.04,-200.26 1818.95,-207"/>
</a>
</g>
</g>
<!-- Node3 -->
<g id="Node000003" class="node">
<title>Node3</title>
<g id="a_Node000003"><a xlink:title=" ">
<polygon fill="#e0e0e0" stroke="#999999" points="45.25,-26 0,-26 0,-6 45.25,-6 45.25,-26"/>
<text text-anchor="middle" x="22.62" y="-12.5" font-family="Helvetica,sans-Serif" font-size="10.00">cstdint</text>
</a>
</g>
</g>
<!-- Node2&#45;&gt;Node3 -->
<g id="edge2_Node000002_Node000003" class="edge">
<title>Node2&#45;&gt;Node3</title>
<g id="a_edge2_Node000002_Node000003"><a xlink:title=" ">
<path fill="none" stroke="#63b8ff" d="M1403.92,-76.78C1226.8,-75.2 190.49,-64.61 54.62,-32 53.02,-31.62 51.4,-31.15 49.79,-30.61"/>
<polygon fill="#63b8ff" stroke="#63b8ff" points="51.42,-27.5 40.83,-27 48.79,-33.99 51.42,-27.5"/>
</a>
</g>
</g>
<!-- Node4 -->
<g id="Node000004" class="node">
<title>Node4</title>
<g id="a_Node000004"><a xlink:title=" ">
<polygon fill="#e0e0e0" stroke="#999999" points="107.88,-26 63.38,-26 63.38,-6 107.88,-6 107.88,-26"/>
<text text-anchor="middle" x="85.62" y="-12.5" font-family="Helvetica,sans-Serif" font-size="10.00">cstdlib</text>
</a>
</g>
</g>
<!-- Node2&#45;&gt;Node4 -->
<g id="edge3_Node000002_Node000004" class="edge">
<title>Node2&#45;&gt;Node4</title>
<g id="a_edge3_Node000002_Node000004"><a xlink:title=" ">
<path fill="none" stroke="#63b8ff" d="M1403.98,-76.76C1231.69,-75.06 245.88,-63.97 116.62,-32 115.22,-31.65 113.81,-31.24 112.39,-30.77"/>
<polygon fill="#63b8ff" stroke="#63b8ff" points="113.85,-27.59 103.28,-27 111.18,-34.06 113.85,-27.59"/>
</a>
</g>
</g>
<!-- Node5 -->
<g id="Node000005" class="node">
<title>Node5</title>
<g id="a_Node000005"><a xlink:title=" ">
<polygon fill="#e0e0e0" stroke="#999999" points="183.62,-26 125.62,-26 125.62,-6 183.62,-6 183.62,-26"/>
<text text-anchor="middle" x="154.62" y="-12.5" font-family="Helvetica,sans-Serif" font-size="10.00">execution</text>
</a>
</g>
</g>
<!-- Node2&#45;&gt;Node5 -->
<g id="edge4_Node000002_Node000005" class="edge">
<title>Node2&#45;&gt;Node5</title>
<g id="a_edge4_Node000002_Node000005"><a xlink:title=" ">
<path fill="none" stroke="#63b8ff" d="M1403.99,-77.25C1249.03,-78.55 435.84,-82.86 192.62,-32 190.29,-31.51 187.92,-30.89 185.55,-30.19"/>
<polygon fill="#63b8ff" stroke="#63b8ff" points="186.77,-26.9 176.17,-26.91 184.45,-33.51 186.77,-26.9"/>
</a>
</g>
</g>
<!-- Node6 -->
<g id="Node000006" class="node">
<title>Node6</title>
<g id="a_Node000006"><a xlink:title=" ">
<polygon fill="#e0e0e0" stroke="#999999" points="255.38,-26 201.88,-26 201.88,-6 255.38,-6 255.38,-26"/>
<text text-anchor="middle" x="228.62" y="-12.5" font-family="Helvetica,sans-Serif" font-size="10.00">iostream</text>
</a>
</g>
</g>
<!-- Node2&#45;&gt;Node6 -->
<g id="edge5_Node000002_Node000006" class="edge">
<title>Node2&#45;&gt;Node6</title>
<g id="a_edge5_Node000002_Node000006"><a xlink:title=" ">
<path fill="none" stroke="#63b8ff" d="M1404.03,-77.24C1254.48,-78.47 492.44,-82.16 264.62,-32 262.58,-31.55 260.51,-30.99 258.44,-30.35"/>
<polygon fill="#63b8ff" stroke="#63b8ff" points="259.66,-27.07 249.06,-26.92 257.25,-33.65 259.66,-27.07"/>
</a>
</g>
</g>
<!-- Node7 -->
<g id="Node000007" class="node">
<title>Node7</title>
<g id="a_Node000007"><a xlink:title=" ">
<polygon fill="#e0e0e0" stroke="#999999" points="333.75,-26 273.5,-26 273.5,-6 333.75,-6 333.75,-26"/>
<text text-anchor="middle" x="303.62" y="-12.5" font-family="Helvetica,sans-Serif" font-size="10.00">filesystem</text>
</a>
</g>
</g>
<!-- Node2&#45;&gt;Node7 -->
<g id="edge6_Node000002_Node000007" class="edge">
<title>Node2&#45;&gt;Node7</title>
<g id="a_edge6_Node000002_Node000007"><a xlink:title=" ">
<path fill="none" stroke="#63b8ff" d="M1403.92,-77.07C1260.17,-77.27 554.85,-75.97 342.62,-32 340.14,-31.49 337.61,-30.83 335.09,-30.09"/>
<polygon fill="#63b8ff" stroke="#63b8ff" points="336.32,-26.81 325.73,-26.88 334.05,-33.43 336.32,-26.81"/>
</a>
</g>
</g>
<!-- Node8 -->
<g id="Node000008" class="node">
<title>Node8</title>
<g id="a_Node000008"><a xlink:title=" ">
<polygon fill="#e0e0e0" stroke="#999999" points="395.12,-26 352.12,-26 352.12,-6 395.12,-6 395.12,-26"/>
<text text-anchor="middle" x="373.62" y="-12.5" font-family="Helvetica,sans-Serif" font-size="10.00">format</text>
</a>
</g>
</g>
<!-- Node2&#45;&gt;Node8 -->
<g id="edge7_Node000002_Node000008" class="edge">
<title>Node2&#45;&gt;Node8</title>
<g id="a_edge7_Node000002_Node000008"><a xlink:title=" ">
<path fill="none" stroke="#63b8ff" d="M1403.97,-77.27C1265.08,-78.55 602.16,-81.86 404.62,-32 403.22,-31.65 401.81,-31.23 400.4,-30.75"/>
<polygon fill="#63b8ff" stroke="#63b8ff" points="401.86,-27.57 391.28,-26.97 399.18,-34.04 401.86,-27.57"/>
</a>
</g>
</g>
<!-- Node9 -->
<g id="Node000009" class="node">
<title>Node9</title>
<g id="a_Node000009"><a xlink:title=" ">
<polygon fill="#e0e0e0" stroke="#999999" points="461.75,-26 413.5,-26 413.5,-6 461.75,-6 461.75,-26"/>
<text text-anchor="middle" x="437.62" y="-12.5" font-family="Helvetica,sans-Serif" font-size="10.00">fstream</text>
</a>
</g>
</g>
<!-- Node2&#45;&gt;Node9 -->
<g id="edge8_Node000002_Node000009" class="edge">
<title>Node2&#45;&gt;Node9</title>
<g id="a_edge8_Node000002_Node000009"><a xlink:title=" ">
<path fill="none" stroke="#63b8ff" d="M1403.91,-77.1C1270.37,-77.44 655.13,-76.52 470.62,-32 468.98,-31.6 467.32,-31.12 465.66,-30.59"/>
<polygon fill="#63b8ff" stroke="#63b8ff" points="466.99,-27.35 456.4,-26.93 464.42,-33.86 466.99,-27.35"/>
</a>
</g>
</g>
<!-- Node10 -->
<g id="Node000010" class="node">
<title>Node10</title>
<g id="a_Node000010"><a xlink:title=" ">
<polygon fill="#e0e0e0" stroke="#999999" points="537.25,-26 480,-26 480,-6 537.25,-6 537.25,-26"/>
<text text-anchor="middle" x="508.62" y="-12.5" font-family="Helvetica,sans-Serif" font-size="10.00">functional</text>
</a>
</g>
</g>
<!-- Node2&#45;&gt;Node10 -->
<g id="edge9_Node000002_Node000010" class="edge">
<title>Node2&#45;&gt;Node10</title>
<g id="a_edge9_Node000002_Node000010"><a xlink:title=" ">
<path fill="none" stroke="#63b8ff" d="M1403.88,-76.84C1276.79,-75.9 715.54,-69.64 545.62,-32 543.44,-31.52 541.22,-30.92 539.01,-30.24"/>
<polygon fill="#63b8ff" stroke="#63b8ff" points="540.22,-26.95 529.63,-26.87 537.85,-33.54 540.22,-26.95"/>
</a>
</g>
</g>
<!-- Node11 -->
<g id="Node000011" class="node">
<title>Node11</title>
<g id="a_Node000011"><a xlink:title=" ">
<polygon fill="#e0e0e0" stroke="#999999" points="606.25,-26 555,-26 555,-6 606.25,-6 606.25,-26"/>
<text text-anchor="middle" x="580.62" y="-12.5" font-family="Helvetica,sans-Serif" font-size="10.00">memory</text>
</a>
</g>
</g>
<!-- Node2&#45;&gt;Node11 -->
<g id="edge10_Node000002_Node000011" class="edge">
<title>Node2&#45;&gt;Node11</title>
<g id="a_edge10_Node000002_Node000011"><a xlink:title=" ">
<path fill="none" stroke="#63b8ff" d="M1403.89,-76.82C1282.88,-75.78 769.83,-69.21 614.62,-32 612.85,-31.58 611.06,-31.06 609.27,-30.49"/>
<polygon fill="#63b8ff" stroke="#63b8ff" points="610.56,-27.23 599.97,-26.89 608.03,-33.76 610.56,-27.23"/>
</a>
</g>
</g>
<!-- Node12 -->
<g id="Node000012" class="node">
<title>Node12</title>
<g id="a_Node000012"><a xlink:title=" ">
<polygon fill="#e0e0e0" stroke="#999999" points="675.25,-26 624,-26 624,-6 675.25,-6 675.25,-26"/>
<text text-anchor="middle" x="649.62" y="-12.5" font-family="Helvetica,sans-Serif" font-size="10.00">sstream</text>
</a>
</g>
</g>
<!-- Node2&#45;&gt;Node12 -->
<g id="edge11_Node000002_Node000012" class="edge">
<title>Node2&#45;&gt;Node12</title>
<g id="a_edge11_Node000002_Node000012"><a xlink:title=" ">
<path fill="none" stroke="#63b8ff" d="M1404.23,-76.63C1290.32,-74.82 825.84,-65.45 684.62,-32 682.85,-31.58 681.05,-31.08 679.26,-30.51"/>
<polygon fill="#63b8ff" stroke="#63b8ff" points="680.49,-27.23 669.89,-27.01 678.03,-33.79 680.49,-27.23"/>
</a>
</g>
</g>
<!-- Node13 -->
<g id="Node000013" class="node">
<title>Node13</title>
<g id="a_Node000013"><a xlink:title=" ">
<polygon fill="#e0e0e0" stroke="#999999" points="735.75,-26 693.5,-26 693.5,-6 735.75,-6 735.75,-26"/>
<text text-anchor="middle" x="714.62" y="-12.5" font-family="Helvetica,sans-Serif" font-size="10.00">cstdio</text>
</a>
</g>
</g>
<!-- Node2&#45;&gt;Node13 -->
<g id="edge12_Node000002_Node000013" class="edge">
<title>Node2&#45;&gt;Node13</title>
<g id="a_edge12_Node000002_Node000013"><a xlink:title=" ">
<path fill="none" stroke="#63b8ff" d="M1404.08,-76.67C1295.57,-75.07 872.6,-66.68 744.62,-32 743.44,-31.68 742.26,-31.31 741.07,-30.91"/>
<polygon fill="#63b8ff" stroke="#63b8ff" points="742.63,-27.76 732.05,-27.07 739.89,-34.21 742.63,-27.76"/>
</a>
</g>
</g>
<!-- Node14 -->
<g id="Node000014" class="node">
<title>Node14</title>
<g id="a_Node000014"><a xlink:title=" ">
<polygon fill="#e0e0e0" stroke="#999999" points="797.12,-26 754.12,-26 754.12,-6 797.12,-6 797.12,-26"/>
<text text-anchor="middle" x="775.62" y="-12.5" font-family="Helvetica,sans-Serif" font-size="10.00">thread</text>
</a>
</g>
</g>
<!-- Node2&#45;&gt;Node14 -->
<g id="edge13_Node000002_Node000014" class="edge">
<title>Node2&#45;&gt;Node14</title>
<g id="a_edge13_Node000002_Node000014"><a xlink:title=" ">
<path fill="none" stroke="#63b8ff" d="M1404.02,-76.43C1301.71,-73.98 922.25,-62.93 806.62,-32 805.26,-31.63 803.88,-31.21 802.51,-30.74"/>
<polygon fill="#63b8ff" stroke="#63b8ff" points="804.21,-27.65 793.63,-27.04 801.51,-34.12 804.21,-27.65"/>
</a>
</g>
</g>
<!-- Node15 -->
<g id="Node000015" class="node">
<title>Node15</title>
<g id="a_Node000015"><a xlink:title=" ">
<polygon fill="#e0e0e0" stroke="#999999" points="898,-26 815.25,-26 815.25,-6 898,-6 898,-26"/>
<text text-anchor="middle" x="856.62" y="-12.5" font-family="Helvetica,sans-Serif" font-size="10.00">unordered_map</text>
</a>
</g>
</g>
<!-- Node2&#45;&gt;Node15 -->
<g id="edge14_Node000002_Node000015" class="edge">
<title>Node2&#45;&gt;Node15</title>
<g id="a_edge14_Node000002_Node000015"><a xlink:title=" ">
<path fill="none" stroke="#63b8ff" d="M1404.06,-76.66C1327.77,-75.23 1095.28,-68.02 906.62,-32 902.98,-31.3 899.21,-30.44 895.47,-29.49"/>
<polygon fill="#63b8ff" stroke="#63b8ff" points="896.43,-26.13 885.86,-26.84 894.57,-32.88 896.43,-26.13"/>
</a>
</g>
</g>
<!-- Node16 -->
<g id="Node000016" class="node">
<title>Node16</title>
<g id="a_Node000016"><a xlink:title=" ">
<polygon fill="#e0e0e0" stroke="#999999" points="993.38,-26 915.88,-26 915.88,-6 993.38,-6 993.38,-26"/>
<text text-anchor="middle" x="954.62" y="-12.5" font-family="Helvetica,sans-Serif" font-size="10.00">unordered_set</text>
</a>
</g>
</g>
<!-- Node2&#45;&gt;Node16 -->
<g id="edge15_Node000002_Node000016" class="edge">
<title>Node2&#45;&gt;Node16</title>
<g id="a_edge15_Node000002_Node000016"><a xlink:title=" ">
<path fill="none" stroke="#63b8ff" d="M1404.33,-76.08C1337.86,-73.29 1153,-63.1 1002.62,-32 999.27,-31.31 995.82,-30.47 992.37,-29.56"/>
<polygon fill="#63b8ff" stroke="#63b8ff" points="993.57,-26.26 983,-26.86 991.64,-32.99 993.57,-26.26"/>
</a>
</g>
</g>
<!-- Node17 -->
<g id="Node000017" class="node">
<title>Node17</title>
<g id="a_Node000017"><a xlink:title=" ">
<polygon fill="#e0e0e0" stroke="#999999" points="1053.38,-26 1011.88,-26 1011.88,-6 1053.38,-6 1053.38,-26"/>
<text text-anchor="middle" x="1032.62" y="-12.5" font-family="Helvetica,sans-Serif" font-size="10.00">vector</text>
</a>
</g>
</g>
<!-- Node2&#45;&gt;Node17 -->
<g id="edge16_Node000002_Node000017" class="edge">
<title>Node2&#45;&gt;Node17</title>
<g id="a_edge16_Node000002_Node000017"><a xlink:title=" ">
<path fill="none" stroke="#63b8ff" d="M1404.1,-76.83C1343.5,-75.81 1186.77,-69.43 1062.62,-32 1061.48,-31.66 1060.33,-31.27 1059.18,-30.85"/>
<polygon fill="#63b8ff" stroke="#63b8ff" points="1060.98,-27.82 1050.42,-27.06 1058.2,-34.24 1060.98,-27.82"/>
</a>
</g>
</g>
<!-- Node18 -->
<g id="Node000018" class="node">
<title>Node18</title>
<g id="a_Node000018"><a xlink:title=" ">
<polygon fill="#e0e0e0" stroke="#999999" points="1111.62,-26 1071.62,-26 1071.62,-6 1111.62,-6 1111.62,-26"/>
<text text-anchor="middle" x="1091.62" y="-12.5" font-family="Helvetica,sans-Serif" font-size="10.00">future</text>
</a>
</g>
</g>
<!-- Node2&#45;&gt;Node18 -->
<g id="edge17_Node000002_Node000018" class="edge">
<title>Node2&#45;&gt;Node18</title>
<g id="a_edge17_Node000002_Node000018"><a xlink:title=" ">
<path fill="none" stroke="#63b8ff" d="M1404.15,-76.14C1350.47,-73.71 1222.3,-64.68 1120.62,-32 1119.66,-31.69 1118.68,-31.35 1117.71,-30.98"/>
<polygon fill="#63b8ff" stroke="#63b8ff" points="1119.41,-27.91 1108.85,-27.02 1116.55,-34.3 1119.41,-27.91"/>
</a>
</g>
</g>
<!-- Node19 -->
<g id="Node000019" class="node">
<title>Node19</title>
<g id="a_Node000019"><a xlink:title=" ">
<polygon fill="#e0e0e0" stroke="#999999" points="1169.25,-26 1130,-26 1130,-6 1169.25,-6 1169.25,-26"/>
<text text-anchor="middle" x="1149.62" y="-12.5" font-family="Helvetica,sans-Serif" font-size="10.00">utility</text>
</a>
</g>
</g>
<!-- Node2&#45;&gt;Node19 -->
<g id="edge18_Node000002_Node000019" class="edge">
<title>Node2&#45;&gt;Node19</title>
<g id="a_edge18_Node000002_Node000019"><a xlink:title=" ">
<path fill="none" stroke="#63b8ff" d="M1404.06,-74.96C1357.95,-70.73 1258.27,-59.05 1178.62,-32 1177.82,-31.73 1177.01,-31.43 1176.2,-31.12"/>
<polygon fill="#63b8ff" stroke="#63b8ff" points="1177.75,-27.98 1167.19,-27.07 1174.88,-34.37 1177.75,-27.98"/>
</a>
</g>
</g>
<!-- Node20 -->
<g id="Node000020" class="node">
<title>Node20</title>
<g id="a_Node000020"><a xlink:title=" ">
<polygon fill="#e0e0e0" stroke="#999999" points="1235.75,-26 1187.5,-26 1187.5,-6 1235.75,-6 1235.75,-26"/>
<text text-anchor="middle" x="1211.62" y="-12.5" font-family="Helvetica,sans-Serif" font-size="10.00">random</text>
</a>
</g>
</g>
<!-- Node2&#45;&gt;Node20 -->
<g id="edge19_Node000002_Node000020" class="edge">
<title>Node2&#45;&gt;Node20</title>
<g id="a_edge19_Node000002_Node000020"><a xlink:title=" ">
<path fill="none" stroke="#63b8ff" d="M1404.06,-72.36C1367.95,-65.46 1300.24,-51.21 1244.62,-32 1243.47,-31.6 1242.29,-31.17 1241.11,-30.73"/>
<polygon fill="#63b8ff" stroke="#63b8ff" points="1242.55,-27.53 1231.97,-26.93 1239.86,-34 1242.55,-27.53"/>
</a>
</g>
</g>
<!-- Node21 -->
<g id="Node000021" class="node">
<title>Node21</title>
<g id="a_Node000021"><a xlink:title=" ">
<polygon fill="#e0e0e0" stroke="#999999" points="1293.62,-26 1253.62,-26 1253.62,-6 1293.62,-6 1293.62,-26"/>
<text text-anchor="middle" x="1273.62" y="-12.5" font-family="Helvetica,sans-Serif" font-size="10.00">regex</text>
</a>
</g>
</g>
<!-- Node2&#45;&gt;Node21 -->
<g id="edge20_Node000002_Node000021" class="edge">
<title>Node2&#45;&gt;Node21</title>
<g id="a_edge20_Node000002_Node000021"><a xlink:title=" ">
<path fill="none" stroke="#63b8ff" d="M1403.93,-69.04C1377.99,-60.74 1336.97,-46.88 1302.62,-32 1302.14,-31.79 1301.66,-31.58 1301.17,-31.36"/>
<polygon fill="#63b8ff" stroke="#63b8ff" points="1302.81,-28.27 1292.28,-27.09 1299.78,-34.58 1302.81,-28.27"/>
</a>
</g>
</g>
<!-- Node22 -->
<g id="Node000022" class="node">
<title>Node22</title>
<g id="a_Node000022"><a xlink:title=" ">
<polygon fill="#e0e0e0" stroke="#999999" points="1381.25,-26 1312,-26 1312,-6 1381.25,-6 1381.25,-26"/>
<text text-anchor="middle" x="1346.62" y="-12.5" font-family="Helvetica,sans-Serif" font-size="10.00">WinSock2.h</text>
</a>
</g>
</g>
<!-- Node2&#45;&gt;Node22 -->
<g id="edge21_Node000002_Node000022" class="edge">
<title>Node2&#45;&gt;Node22</title>
<g id="a_edge21_Node000002_Node000022"><a xlink:title=" ">
<path fill="none" stroke="#63b8ff" d="M1416.66,-67.62C1403.87,-58.38 1384.07,-44.07 1368.78,-33.01"/>
<polygon fill="#63b8ff" stroke="#63b8ff" points="1370.88,-30.22 1360.73,-27.2 1366.78,-35.89 1370.88,-30.22"/>
</a>
</g>
</g>
<!-- Node23 -->
<g id="Node000023" class="node">
<title>Node23</title>
<g id="a_Node000023"><a xlink:title=" ">
<polygon fill="#e0e0e0" stroke="#999999" points="1460.12,-26 1399.12,-26 1399.12,-6 1460.12,-6 1460.12,-26"/>
<text text-anchor="middle" x="1429.62" y="-12.5" font-family="Helvetica,sans-Serif" font-size="10.00">windows.h</text>
</a>
</g>
</g>
<!-- Node2&#45;&gt;Node23 -->
<g id="edge22_Node000002_Node000023" class="edge">
<title>Node2&#45;&gt;Node23</title>
<g id="a_edge22_Node000002_Node000023"><a xlink:title=" ">
<path fill="none" stroke="#63b8ff" d="M1429.62,-67.62C1429.62,-59.56 1429.62,-47.65 1429.62,-37.41"/>
<polygon fill="#63b8ff" stroke="#63b8ff" points="1433.13,-37.63 1429.63,-27.63 1426.13,-37.63 1433.13,-37.63"/>
</a>
</g>
</g>
<!-- Node24 -->
<g id="Node000024" class="node">
<title>Node24</title>
<g id="a_Node000024"><a xlink:href="../../de/dbf/locale__strings_8h.html" target="_top" xlink:title=" ">
<polygon fill="white" stroke="#666666" points="1562.75,-26 1478.5,-26 1478.5,-6 1562.75,-6 1562.75,-26"/>
<text text-anchor="middle" x="1520.62" y="-12.5" font-family="Helvetica,sans-Serif" font-size="10.00">locale_strings.h</text>
</a>
</g>
</g>
<!-- Node2&#45;&gt;Node24 -->
<g id="edge23_Node000002_Node000024" class="edge">
<title>Node2&#45;&gt;Node24</title>
<g id="a_edge23_Node000002_Node000024"><a xlink:title=" ">
<path fill="none" stroke="#63b8ff" d="M1443.84,-67.62C1458.13,-58.2 1480.41,-43.52 1497.29,-32.39"/>
<polygon fill="#63b8ff" stroke="#63b8ff" points="1498.82,-35.57 1505.24,-27.14 1494.97,-29.72 1498.82,-35.57"/>
</a>
</g>
</g>
<!-- Node25 -->
<g id="Node000025" class="node">
<title>Node25</title>
<g id="a_Node000025"><a xlink:title=" ">
<polygon fill="#e0e0e0" stroke="#999999" points="1640.38,-26 1580.88,-26 1580.88,-6 1640.38,-6 1640.38,-26"/>
<text text-anchor="middle" x="1610.62" y="-12.5" font-family="Helvetica,sans-Serif" font-size="10.00">GL/glew.h</text>
</a>
</g>
</g>
<!-- Node2&#45;&gt;Node25 -->
<g id="edge24_Node000002_Node000025" class="edge">
<title>Node2&#45;&gt;Node25</title>
<g id="a_edge24_Node000002_Node000025"><a xlink:title=" ">
<path fill="none" stroke="#63b8ff" d="M1455.17,-69.41C1483.72,-60.81 1531.23,-46.15 1571.62,-32 1573.17,-31.46 1574.74,-30.9 1576.32,-30.33"/>
<polygon fill="#63b8ff" stroke="#63b8ff" points="1577.21,-33.73 1585.37,-26.96 1574.77,-27.17 1577.21,-33.73"/>
</a>
</g>
</g>
<!-- Node26 -->
<g id="Node000026" class="node">
<title>Node26</title>
<g id="a_Node000026"><a xlink:title=" ">
<polygon fill="#e0e0e0" stroke="#999999" points="1736.38,-26 1658.88,-26 1658.88,-6 1736.38,-6 1736.38,-26"/>
<text text-anchor="middle" x="1697.62" y="-12.5" font-family="Helvetica,sans-Serif" font-size="10.00">GLFW/glfw3.h</text>
</a>
</g>
</g>
<!-- Node2&#45;&gt;Node26 -->
<g id="edge25_Node000002_Node000026" class="edge">
<title>Node2&#45;&gt;Node26</title>
<g id="a_edge25_Node000002_Node000026"><a xlink:title=" ">
<path fill="none" stroke="#63b8ff" d="M1455.2,-71.31C1460.31,-70.2 1465.63,-69.05 1470.62,-68 1550.04,-51.3 1571.01,-52.13 1649.62,-32 1652.4,-31.29 1655.25,-30.51 1658.12,-29.7"/>
<polygon fill="#63b8ff" stroke="#63b8ff" points="1659.04,-33.08 1667.63,-26.89 1657.05,-26.37 1659.04,-33.08"/>
</a>
</g>
</g>
<!-- Node27 -->
<g id="Node000027" class="node">
<title>Node27</title>
<g id="a_Node000027"><a xlink:title=" ">
<polygon fill="#e0e0e0" stroke="#999999" points="1823.25,-26 1754,-26 1754,-6 1823.25,-6 1823.25,-26"/>
<text text-anchor="middle" x="1788.62" y="-12.5" font-family="Helvetica,sans-Serif" font-size="10.00">glm/glm.hpp</text>
</a>
</g>
</g>
<!-- Node2&#45;&gt;Node27 -->
<g id="edge26_Node000002_Node000027" class="edge">
<title>Node2&#45;&gt;Node27</title>
<g id="a_edge26_Node000002_Node000027"><a xlink:title=" ">
<path fill="none" stroke="#63b8ff" d="M1455.15,-71.04C1460.26,-69.95 1465.6,-68.88 1470.62,-68 1592.05,-46.77 1625.69,-60.45 1745.62,-32 1748.22,-31.38 1750.88,-30.67 1753.54,-29.89"/>
<polygon fill="#63b8ff" stroke="#63b8ff" points="1754.42,-33.29 1762.88,-26.91 1752.29,-26.62 1754.42,-33.29"/>
</a>
</g>
</g>
<!-- Node28 -->
<g id="Node000028" class="node">
<title>Node28</title>
<g id="a_Node000028"><a xlink:title=" ">
<polygon fill="#e0e0e0" stroke="#999999" points="1954,-26 1841.25,-26 1841.25,-6 1954,-6 1954,-26"/>
<text text-anchor="middle" x="1897.62" y="-12.5" font-family="Helvetica,sans-Serif" font-size="10.00">glm/gtc/constants.hpp</text>
</a>
</g>
</g>
<!-- Node2&#45;&gt;Node28 -->
<g id="edge27_Node000002_Node000028" class="edge">
<title>Node2&#45;&gt;Node28</title>
<g id="a_edge27_Node000002_Node000028"><a xlink:title=" ">
<path fill="none" stroke="#63b8ff" d="M1455.13,-70.92C1460.24,-69.84 1465.59,-68.8 1470.62,-68 1630.3,-42.62 1673.08,-58.23 1832.62,-32 1837.99,-31.12 1843.56,-30.06 1849.1,-28.91"/>
<polygon fill="#63b8ff" stroke="#63b8ff" points="1849.82,-32.34 1858.84,-26.79 1848.33,-25.5 1849.82,-32.34"/>
</a>
</g>
</g>
<!-- Node29 -->
<g id="Node000029" class="node">
<title>Node29</title>
<g id="a_Node000029"><a xlink:title=" ">
<polygon fill="#e0e0e0" stroke="#999999" points="2115,-26 1972.25,-26 1972.25,-6 2115,-6 2115,-26"/>
<text text-anchor="middle" x="2043.62" y="-12.5" font-family="Helvetica,sans-Serif" font-size="10.00">glm/gtc/matrix_transform.hpp</text>
</a>
</g>
</g>
<!-- Node2&#45;&gt;Node29 -->
<g id="edge28_Node000002_Node000029" class="edge">
<title>Node2&#45;&gt;Node29</title>
<g id="a_edge28_Node000002_Node000029"><a xlink:title=" ">
<path fill="none" stroke="#63b8ff" d="M1455.11,-70.81C1460.22,-69.74 1465.58,-68.73 1470.62,-68 1687.59,-36.41 1745.17,-60 1962.62,-32 1970.34,-31.01 1978.43,-29.76 1986.39,-28.41"/>
<polygon fill="#63b8ff" stroke="#63b8ff" points="1986.77,-31.9 1996.01,-26.71 1985.56,-25 1986.77,-31.9"/>
</a>
</g>
</g>
<!-- Node30 -->
<g id="Node000030" class="node">
<title>Node30</title>
<g id="a_Node000030"><a xlink:title=" ">
<polygon fill="#e0e0e0" stroke="#999999" points="2272.5,-26 2132.75,-26 2132.75,-6 2272.5,-6 2272.5,-26"/>
<text text-anchor="middle" x="2202.62" y="-12.5" font-family="Helvetica,sans-Serif" font-size="10.00">glm/ext/vector_relational.hpp</text>
</a>
</g>
</g>
<!-- Node2&#45;&gt;Node30 -->
<g id="edge29_Node000002_Node000030" class="edge">
<title>Node2&#45;&gt;Node30</title>
<g id="a_edge29_Node000002_Node000030"><a xlink:title=" ">
<path fill="none" stroke="#63b8ff" d="M1455.1,-70.74C1460.21,-69.67 1465.57,-68.69 1470.62,-68 1758.62,-28.71 1835.1,-67.19 2123.62,-32 2131.35,-31.06 2139.45,-29.82 2147.41,-28.45"/>
<polygon fill="#63b8ff" stroke="#63b8ff" points="2147.79,-31.94 2157.01,-26.72 2146.55,-25.05 2147.79,-31.94"/>
</a>
</g>
</g>
<!-- Node31 -->
<g id="Node000031" class="node">
<title>Node31</title>
<g id="a_Node000031"><a xlink:title=" ">
<polygon fill="#e0e0e0" stroke="#999999" points="2391,-26 2290.25,-26 2290.25,-6 2391,-6 2391,-26"/>
<text text-anchor="middle" x="2340.62" y="-12.5" font-family="Helvetica,sans-Serif" font-size="10.00">glm/gtc/epsilon.hpp</text>
</a>
</g>
</g>
<!-- Node2&#45;&gt;Node31 -->
<g id="edge30_Node000002_Node000031" class="edge">
<title>Node2&#45;&gt;Node31</title>
<g id="a_edge30_Node000002_Node000031"><a xlink:title=" ">
<path fill="none" stroke="#63b8ff" d="M1455.09,-70.7C1460.21,-69.64 1465.57,-68.66 1470.62,-68 1828.37,-21.15 1924.7,-84.73 2281.62,-32 2286.84,-31.23 2292.26,-30.19 2297.61,-29.02"/>
<polygon fill="#63b8ff" stroke="#63b8ff" points="2298.01,-32.52 2306.93,-26.81 2296.4,-25.71 2298.01,-32.52"/>
</a>
</g>
</g>
<!-- Node32 -->
<g id="Node000032" class="node">
<title>Node32</title>
<g id="a_Node000032"><a xlink:title=" ">
<polygon fill="#e0e0e0" stroke="#999999" points="2534,-26 2409.25,-26 2409.25,-6 2534,-6 2534,-26"/>
<text text-anchor="middle" x="2471.62" y="-12.5" font-family="Helvetica,sans-Serif" font-size="10.00">glm/gtx/euler_angles.hpp</text>
</a>
</g>
</g>
<!-- Node2&#45;&gt;Node32 -->
<g id="edge31_Node000002_Node000032" class="edge">
<title>Node2&#45;&gt;Node32</title>
<g id="a_edge31_Node000002_Node000032"><a xlink:title=" ">
<path fill="none" stroke="#63b8ff" d="M1455.09,-70.68C1460.21,-69.61 1465.57,-68.65 1470.62,-68 1880.47,-15.5 1989.5,-82.31 2399.62,-32 2406.61,-31.14 2413.93,-29.96 2421.11,-28.63"/>
<polygon fill="#63b8ff" stroke="#63b8ff" points="2421.59,-32.1 2430.73,-26.74 2420.24,-25.23 2421.59,-32.1"/>
</a>
</g>
</g>
<!-- Node33 -->
<g id="Node000033" class="node">
<title>Node33</title>
<g id="a_Node000033"><a xlink:title=" ">
<polygon fill="#e0e0e0" stroke="#999999" points="2599.38,-26 2551.88,-26 2551.88,-6 2599.38,-6 2599.38,-26"/>
<text text-anchor="middle" x="2575.62" y="-12.5" font-family="Helvetica,sans-Serif" font-size="10.00">imgui.h</text>
</a>
</g>
</g>
<!-- Node2&#45;&gt;Node33 -->
<g id="edge32_Node000002_Node000033" class="edge">
<title>Node2&#45;&gt;Node33</title>
<g id="a_edge32_Node000002_Node000033"><a xlink:title=" ">
<path fill="none" stroke="#63b8ff" d="M1455.09,-70.66C1460.2,-69.6 1465.56,-68.64 1470.62,-68 1707.13,-38.32 2310.55,-86.36 2542.62,-32 2544.27,-31.61 2545.94,-31.14 2547.6,-30.61"/>
<polygon fill="#63b8ff" stroke="#63b8ff" points="2548.83,-33.89 2556.86,-26.98 2546.27,-27.37 2548.83,-33.89"/>
</a>
</g>
</g>
<!-- Node34 -->
<g id="Node000034" class="node">
<title>Node34</title>
<g id="a_Node000034"><a xlink:title=" ">
<polygon fill="#e0e0e0" stroke="#999999" points="2725.38,-32 2617.88,-32 2617.88,0 2725.38,0 2725.38,-32"/>
<text text-anchor="start" x="2625.88" y="-18.5" font-family="Helvetica,sans-Serif" font-size="10.00">backends/imgui_impl</text>
<text text-anchor="middle" x="2671.62" y="-6.5" font-family="Helvetica,sans-Serif" font-size="10.00">_glfw.h</text>
</a>
</g>
</g>
<!-- Node2&#45;&gt;Node34 -->
<g id="edge33_Node000002_Node000034" class="edge">
<title>Node2&#45;&gt;Node34</title>
<g id="a_edge33_Node000002_Node000034"><a xlink:title=" ">
<path fill="none" stroke="#63b8ff" d="M1455.09,-70.65C1460.2,-69.59 1465.56,-68.63 1470.62,-68 1969.1,-5.94 2105.06,-97.58 2606.3,-32.11"/>
<polygon fill="#63b8ff" stroke="#63b8ff" points="2606.5,-35.61 2615.96,-30.83 2605.59,-28.67 2606.5,-35.61"/>
</a>
</g>
</g>
<!-- Node35 -->
<g id="Node000035" class="node">
<title>Node35</title>
<g id="a_Node000035"><a xlink:title=" ">
<polygon fill="#e0e0e0" stroke="#999999" points="2851.38,-32 2743.88,-32 2743.88,0 2851.38,0 2851.38,-32"/>
<text text-anchor="start" x="2751.88" y="-18.5" font-family="Helvetica,sans-Serif" font-size="10.00">backends/imgui_impl</text>
<text text-anchor="middle" x="2797.62" y="-6.5" font-family="Helvetica,sans-Serif" font-size="10.00">_opengl3.h</text>
</a>
</g>
</g>
<!-- Node2&#45;&gt;Node35 -->
<g id="edge34_Node000002_Node000035" class="edge">
<title>Node2&#45;&gt;Node35</title>
<g id="a_edge34_Node000002_Node000035"><a xlink:title=" ">
<path fill="none" stroke="#63b8ff" d="M1455.09,-70.64C1460.2,-69.58 1465.56,-68.62 1470.62,-68 2024.76,0.1 2175.46,-104.08 2732.32,-32.1"/>
<polygon fill="#63b8ff" stroke="#63b8ff" points="2732.5,-35.6 2741.96,-30.84 2731.59,-28.66 2732.5,-35.6"/>
</a>
</g>
</g>
<!-- Node36 -->
<g id="Node000036" class="node">
<title>Node36</title>
<g id="a_Node000036"><a xlink:title=" ">
<polygon fill="#e0e0e0" stroke="#999999" points="2988,-26 2869.25,-26 2869.25,-6 2988,-6 2988,-26"/>
<text text-anchor="middle" x="2928.62" y="-12.5" font-family="Helvetica,sans-Serif" font-size="10.00">misc/cpp/imgui_stdlib.h</text>
</a>
</g>
</g>
<!-- Node2&#45;&gt;Node36 -->
<g id="edge35_Node000002_Node000036" class="edge">
<title>Node2&#45;&gt;Node36</title>
<g id="a_edge35_Node000002_Node000036"><a xlink:title=" ">
<path fill="none" stroke="#63b8ff" d="M1455.09,-70.63C1460.2,-69.57 1465.56,-68.62 1470.62,-68 2084.09,6.59 2247.2,-106.9 2860.62,-32 2867.16,-31.2 2873.99,-30.06 2880.7,-28.77"/>
<polygon fill="#63b8ff" stroke="#63b8ff" points="2881.23,-32.23 2890.31,-26.78 2879.81,-25.38 2881.23,-32.23"/>
</a>
</g>
</g>
<!-- Node37 -->
<g id="Node000037" class="node">
<title>Node37</title>
<g id="a_Node000037"><a xlink:title=" ">
<polygon fill="#e0e0e0" stroke="#999999" points="3090.75,-26 3006.5,-26 3006.5,-6 3090.75,-6 3090.75,-26"/>
<text text-anchor="middle" x="3048.62" y="-12.5" font-family="Helvetica,sans-Serif" font-size="10.00">imgui_internal.h</text>
</a>
</g>
</g>
<!-- Node2&#45;&gt;Node37 -->
<g id="edge36_Node000002_Node000037" class="edge">
<title>Node2&#45;&gt;Node37</title>
<g id="a_edge36_Node000002_Node000037"><a xlink:title=" ">
<path fill="none" stroke="#63b8ff" d="M1455.08,-70.62C1460.2,-69.56 1465.56,-68.61 1470.62,-68 1807.4,-27.45 2661.34,-83.43 2996.62,-32 3000.99,-31.33 3005.51,-30.4 3009.98,-29.33"/>
<polygon fill="#63b8ff" stroke="#63b8ff" points="3010.62,-32.78 3019.39,-26.83 3008.83,-26.01 3010.62,-32.78"/>
</a>
</g>
</g>
<!-- Node38 -->
<g id="Node000038" class="node">
<title>Node38</title>
<g id="a_Node000038"><a xlink:title=" ">
<polygon fill="#e0e0e0" stroke="#999999" points="3194.12,-26 3109.12,-26 3109.12,-6 3194.12,-6 3194.12,-26"/>
<text text-anchor="middle" x="3151.62" y="-12.5" font-family="Helvetica,sans-Serif" font-size="10.00">ImGuiNotify.hpp</text>
</a>
</g>
</g>
<!-- Node2&#45;&gt;Node38 -->
<g id="edge37_Node000002_Node000038" class="edge">
<title>Node2&#45;&gt;Node38</title>
<g id="a_edge37_Node000002_Node000038"><a xlink:title=" ">
<path fill="none" stroke="#63b8ff" d="M1455.08,-70.61C1460.2,-69.55 1465.56,-68.61 1470.62,-68 1830.15,-24.98 2741.68,-86.63 3099.62,-32 3103.99,-31.33 3108.51,-30.41 3112.98,-29.33"/>
<polygon fill="#63b8ff" stroke="#63b8ff" points="3113.63,-32.78 3122.39,-26.83 3111.83,-26.02 3113.63,-32.78"/>
</a>
</g>
</g>
<!-- Node39 -->
<g id="Node000039" class="node">
<title>Node39</title>
<g id="a_Node000039"><a xlink:title=" ">
<polygon fill="#e0e0e0" stroke="#999999" points="3347.25,-26 3212,-26 3212,-6 3347.25,-6 3347.25,-26"/>
<text text-anchor="middle" x="3279.62" y="-12.5" font-family="Helvetica,sans-Serif" font-size="10.00">addons/imguidatechooser.h</text>
</a>
</g>
</g>
<!-- Node2&#45;&gt;Node39 -->
<g id="edge38_Node000002_Node000039" class="edge">
<title>Node2&#45;&gt;Node39</title>
<g id="a_edge38_Node000002_Node000039"><a xlink:title=" ">
<path fill="none" stroke="#63b8ff" d="M1455.08,-70.61C1460.2,-69.55 1465.56,-68.6 1470.62,-68 2235.62,23.02 2437.71,-114.9 3203.62,-32 3211.26,-31.17 3219.27,-29.97 3227.11,-28.6"/>
<polygon fill="#63b8ff" stroke="#63b8ff" points="3227.73,-32.04 3236.92,-26.77 3226.45,-25.16 3227.73,-32.04"/>
</a>
</g>
</g>
<!-- Node40 -->
<g id="Node000040" class="node">
<title>Node40</title>
<g id="a_Node000040"><a xlink:title=" ">
<polygon fill="#e0e0e0" stroke="#999999" points="3449.75,-26 3365.5,-26 3365.5,-6 3449.75,-6 3449.75,-26"/>
<text text-anchor="middle" x="3407.62" y="-12.5" font-family="Helvetica,sans-Serif" font-size="10.00">spdlog/spdlog.h</text>
</a>
</g>
</g>
<!-- Node2&#45;&gt;Node40 -->
<g id="edge39_Node000002_Node000040" class="edge">
<title>Node2&#45;&gt;Node40</title>
<g id="a_edge39_Node000002_Node000040"><a xlink:title=" ">
<path fill="none" stroke="#63b8ff" d="M1455.08,-70.6C1460.2,-69.54 1465.56,-68.6 1470.62,-68 1886.92,-18.82 2942.31,-95.71 3356.62,-32 3360.79,-31.36 3365.1,-30.47 3369.36,-29.44"/>
<polygon fill="#63b8ff" stroke="#63b8ff" points="3370.2,-32.84 3378.94,-26.86 3368.38,-26.08 3370.2,-32.84"/>
</a>
</g>
</g>
<!-- Node41 -->
<g id="Node000041" class="node">
<title>Node41</title>
<g id="a_Node000041"><a xlink:title=" ">
<polygon fill="#e0e0e0" stroke="#999999" points="3565.12,-32 3468.12,-32 3468.12,0 3565.12,0 3565.12,-32"/>
<text text-anchor="start" x="3476.12" y="-18.5" font-family="Helvetica,sans-Serif" font-size="10.00">spdlog/sinks/basic</text>
<text text-anchor="middle" x="3516.62" y="-6.5" font-family="Helvetica,sans-Serif" font-size="10.00">_file_sink.h</text>
</a>
</g>
</g>
<!-- Node2&#45;&gt;Node41 -->
<g id="edge40_Node000002_Node000041" class="edge">
<title>Node2&#45;&gt;Node41</title>
<g id="a_edge40_Node000002_Node000041"><a xlink:title=" ">
<path fill="none" stroke="#63b8ff" d="M1455.08,-70.59C1460.2,-69.54 1465.56,-68.6 1470.62,-68 1905.81,-16.81 3002.43,-90.49 3456.47,-32"/>
<polygon fill="#63b8ff" stroke="#63b8ff" points="3456.79,-35.49 3466.24,-30.7 3455.86,-28.55 3456.79,-35.49"/>
</a>
</g>
</g>
<!-- Node42 -->
<g id="Node000042" class="node">
<title>Node42</title>
<g id="a_Node000042"><a xlink:title=" ">
<polygon fill="#e0e0e0" stroke="#999999" points="3642.38,-26 3582.88,-26 3582.88,-6 3642.38,-6 3642.38,-26"/>
<text text-anchor="middle" x="3612.62" y="-12.5" font-family="Helvetica,sans-Serif" font-size="10.00">fmt/core.h</text>
</a>
</g>
</g>
<!-- Node2&#45;&gt;Node42 -->
<g id="edge41_Node000002_Node000042" class="edge">
<title>Node2&#45;&gt;Node42</title>
<g id="a_edge41_Node000002_Node000042"><a xlink:title=" ">
<path fill="none" stroke="#63b8ff" d="M1455.08,-70.59C1460.2,-69.54 1465.56,-68.59 1470.62,-68 1702.85,-40.8 3345.31,-77.66 3574.62,-32 3576.96,-31.53 3579.34,-30.93 3581.71,-30.24"/>
<polygon fill="#63b8ff" stroke="#63b8ff" points="3582.8,-33.57 3591.09,-26.98 3580.5,-26.95 3582.8,-33.57"/>
</a>
</g>
</g>
<!-- Node43 -->
<g id="Node000043" class="node">
<title>Node43</title>
<g id="a_Node000043"><a xlink:title=" ">
<polygon fill="#e0e0e0" stroke="#999999" points="3722.5,-26 3660.75,-26 3660.75,-6 3722.5,-6 3722.5,-26"/>
<text text-anchor="middle" x="3691.62" y="-12.5" font-family="Helvetica,sans-Serif" font-size="10.00">fmt/color.h</text>
</a>
</g>
</g>
<!-- Node2&#45;&gt;Node43 -->
<g id="edge42_Node000002_Node000043" class="edge">
<title>Node2&#45;&gt;Node43</title>
<g id="a_edge42_Node000002_Node000043"><a xlink:title=" ">
<path fill="none" stroke="#63b8ff" d="M1455.08,-70.59C1460.2,-69.53 1465.56,-68.59 1470.62,-68 1711.35,-39.88 3413.51,-77.21 3651.62,-32 3654.27,-31.5 3656.97,-30.84 3659.65,-30.07"/>
<polygon fill="#63b8ff" stroke="#63b8ff" points="3660.61,-33.44 3668.99,-26.96 3658.39,-26.8 3660.61,-33.44"/>
</a>
</g>
</g>
<!-- Node46&#45;&gt;Node49 -->
<g id="edge44_Node000046_Node000049" class="edge">
<title>Node46&#45;&gt;Node49</title>
<g id="a_edge44_Node000046_Node000049"><a xlink:title=" ">
<path fill="none" stroke="#63b8ff" d="M1608.61,-123.59C1598.61,-115.77 1584.16,-104.46 1572.32,-95.19"/>
<polygon fill="#63b8ff" stroke="#63b8ff" points="1574.73,-92.64 1564.7,-89.23 1570.42,-98.15 1574.73,-92.64"/>
</a>
</g>
</g>
<!-- Node52&#45;&gt;Node49 -->
<g id="edge50_Node000052_Node000049" class="edge">
<title>Node52&#45;&gt;Node49</title>
<g id="a_edge50_Node000052_Node000049"><a xlink:title=" ">
<path fill="none" stroke="#63b8ff" d="M1527.84,-179.62C1532.02,-161.92 1541.17,-123.24 1546.82,-99.32"/>
<polygon fill="#63b8ff" stroke="#63b8ff" points="1550.17,-100.36 1549.07,-89.83 1543.36,-98.75 1550.17,-100.36"/>
</a>
</g>
</g>
<!-- Node52&#45;&gt;Node54 -->
<g id="edge47_Node000052_Node000054" class="edge">
<title>Node52&#45;&gt;Node54</title>
<g id="a_edge47_Node000052_Node000054"><a xlink:title=" ">
<path fill="none" stroke="#63b8ff" d="M1513.95,-179.59C1504.35,-171.85 1490.5,-160.69 1479.06,-151.47"/>
<polygon fill="#63b8ff" stroke="#63b8ff" points="1481.32,-148.8 1471.34,-145.25 1476.93,-154.25 1481.32,-148.8"/>
</a>
</g>
</g>
<!-- Node54&#45;&gt;Node2 -->
<g id="edge48_Node000054_Node000002" class="edge">
<title>Node54&#45;&gt;Node2</title>
<g id="a_edge48_Node000054_Node000002"><a xlink:title=" ">
<path fill="none" stroke="#63b8ff" d="M1453.57,-123.59C1449.83,-116.63 1444.6,-106.89 1439.98,-98.29"/>
<polygon fill="#63b8ff" stroke="#63b8ff" points="1443.15,-96.79 1435.33,-89.63 1436.98,-100.1 1443.15,-96.79"/>
</a>
</g>
</g>
<!-- Node54&#45;&gt;Node49 -->
<g id="edge49_Node000054_Node000049" class="edge">
<title>Node54&#45;&gt;Node49</title>
<g id="a_edge49_Node000054_Node000049"><a xlink:title=" ">
<path fill="none" stroke="#63b8ff" d="M1474.82,-123.59C1488.87,-115.44 1509.46,-103.48 1525.78,-94"/>
<polygon fill="#63b8ff" stroke="#63b8ff" points="1527.1,-97.29 1533.99,-89.24 1523.58,-91.23 1527.1,-97.29"/>
</a>
</g>
</g>
</g>
</svg>
