<?xml version="1.0" encoding="UTF-8" standalone="no"?>
<!DOCTYPE svg PUBLIC "-//W3C//DTD SVG 1.1//EN"
 "http://www.w3.org/Graphics/SVG/1.1/DTD/svg11.dtd">
<!-- Generated by graphviz version 10.0.1 (20240210.2158)
 -->
<!-- Title: GEU::InspectorWindow::resetInspectorSelection Pages: 1 -->
<svg width="448pt" height="53pt"
 viewBox="0.00 0.00 447.50 53.00" xmlns="http://www.w3.org/2000/svg" xmlns:xlink="http://www.w3.org/1999/xlink">
<g id="graph0" class="graph" transform="scale(1 1) rotate(0) translate(4 49)">
<title>GEU::InspectorWindow::resetInspectorSelection</title>
<!-- Node1 -->
<g id="Node000001" class="node">
<title>Node1</title>
<g id="a_Node000001"><a xlink:title="Resets inspector selection to no item selection.">
<polygon fill="#999999" stroke="#666666" points="439.5,-32 315.5,-32 315.5,0 439.5,0 439.5,-32"/>
<text text-anchor="start" x="323.5" y="-18.5" font-family="Helvetica,sans-Serif" font-size="10.00">GEU::InspectorWindow</text>
<text text-anchor="middle" x="377.5" y="-6.5" font-family="Helvetica,sans-Serif" font-size="10.00">::resetInspectorSelection</text>
</a>
</g>
</g>
<!-- Node2 -->
<g id="Node000002" class="node">
<title>Node2</title>
<g id="a_Node000002"><a xlink:href="../../de/de6/class_g_e_u_1_1_g_u_i.html#ac1d7053318478ac2b13c3ae4bdaa82a1" target="_top" xlink:title="Deletes currently active scene and resets inspector status.">
<polygon fill="white" stroke="#666666" points="279.5,-45 128.5,-45 128.5,-25 279.5,-25 279.5,-45"/>
<text text-anchor="middle" x="204" y="-31.5" font-family="Helvetica,sans-Serif" font-size="10.00">GEU::GUI::deleteCurrentScene</text>
</a>
</g>
</g>
<!-- Node1&#45;&gt;Node2 -->
<g id="edge1_Node000001_Node000002" class="edge">
<title>Node1&#45;&gt;Node2</title>
<g id="a_edge1_Node000001_Node000002"><a xlink:title=" ">
<path fill="none" stroke="#63b8ff" d="M303.64,-24.07C295.74,-24.95 287.7,-25.84 279.78,-26.72"/>
<polygon fill="#63b8ff" stroke="#63b8ff" points="304.01,-27.55 313.56,-22.97 303.24,-20.59 304.01,-27.55"/>
</a>
</g>
</g>
<!-- Node3 -->
<g id="Node000003" class="node">
<title>Node3</title>
<g id="a_Node000003"><a xlink:href="../../de/de6/class_g_e_u_1_1_g_u_i.html#af7ebc89aa431e3a9e86bb1424b819d47" target="_top" xlink:title="Draws ImGUI elements.">
<polygon fill="white" stroke="#666666" points="92.5,-26 0,-26 0,-6 92.5,-6 92.5,-26"/>
<text text-anchor="middle" x="46.25" y="-12.5" font-family="Helvetica,sans-Serif" font-size="10.00">GEU::GUI::render</text>
</a>
</g>
</g>
<!-- Node1&#45;&gt;Node3 -->
<g id="edge3_Node000001_Node000003" class="edge">
<title>Node1&#45;&gt;Node3</title>
<g id="a_edge3_Node000001_Node000003"><a xlink:title=" ">
<path fill="none" stroke="#63b8ff" d="M304.06,-16C239.71,-16 147.62,-16 92.98,-16"/>
<polygon fill="#63b8ff" stroke="#63b8ff" points="303.83,-19.5 313.83,-16 303.83,-12.5 303.83,-19.5"/>
</a>
</g>
</g>
<!-- Node2&#45;&gt;Node3 -->
<g id="edge2_Node000002_Node000003" class="edge">
<title>Node2&#45;&gt;Node3</title>
<g id="a_edge2_Node000002_Node000003"><a xlink:title=" ">
<path fill="none" stroke="#63b8ff" d="M116.91,-24.5C108.57,-23.48 100.36,-22.48 92.66,-21.54"/>
<polygon fill="#63b8ff" stroke="#63b8ff" points="116.47,-27.97 126.82,-25.71 117.31,-21.02 116.47,-27.97"/>
</a>
</g>
</g>
</g>
</svg>
