<?xml version="1.0" encoding="UTF-8" standalone="no"?>
<!DOCTYPE svg PUBLIC "-//W3C//DTD SVG 1.1//EN"
 "http://www.w3.org/Graphics/SVG/1.1/DTD/svg11.dtd">
<!-- Generated by graphviz version 10.0.1 (20240210.2158)
 -->
<!-- Title: GEU::DatabaseNewRawPopup::DatabaseNewRawPopup Pages: 1 -->
<svg width="789pt" height="240pt"
 viewBox="0.00 0.00 789.25 240.00" xmlns="http://www.w3.org/2000/svg" xmlns:xlink="http://www.w3.org/1999/xlink">
<g id="graph0" class="graph" transform="scale(1 1) rotate(0) translate(4 236)">
<title>GEU::DatabaseNewRawPopup::DatabaseNewRawPopup</title>
<!-- Node1 -->
<g id="Node000001" class="node">
<title>Node1</title>
<g id="a_Node000001"><a xlink:title=" ">
<polygon fill="#999999" stroke="#666666" points="149.5,-132 0,-132 0,-100 149.5,-100 149.5,-132"/>
<text text-anchor="start" x="8" y="-118.5" font-family="Helvetica,sans-Serif" font-size="10.00">GEU::DatabaseNewRawPopup</text>
<text text-anchor="middle" x="74.75" y="-106.5" font-family="Helvetica,sans-Serif" font-size="10.00">::DatabaseNewRawPopup</text>
</a>
</g>
</g>
<!-- Node2 -->
<g id="Node000002" class="node">
<title>Node2</title>
<g id="a_Node000002"><a xlink:href="../../d5/d01/a01945.html#a47c7e7c2110f4cc59c9ff1f5594c366e" target="_top" xlink:title=" ">
<polygon fill="white" stroke="#666666" points="319.25,-232 185.5,-232 185.5,-200 319.25,-200 319.25,-232"/>
<text text-anchor="start" x="193.5" y="-218.5" font-family="Helvetica,sans-Serif" font-size="10.00">GEU::Singleton&lt; Database</text>
<text text-anchor="middle" x="252.38" y="-206.5" font-family="Helvetica,sans-Serif" font-size="10.00">Connector &gt;::getInstance</text>
</a>
</g>
</g>
<!-- Node1&#45;&gt;Node2 -->
<g id="edge1_Node000001_Node000002" class="edge">
<title>Node1&#45;&gt;Node2</title>
<g id="a_edge1_Node000001_Node000002"><a xlink:title=" ">
<path fill="none" stroke="#63b8ff" d="M96.27,-132.22C117.65,-148.57 152.56,-173.81 185.5,-191 188.15,-192.39 190.9,-193.73 193.7,-195.04"/>
<polygon fill="#63b8ff" stroke="#63b8ff" points="192.05,-198.14 202.61,-198.97 194.87,-191.73 192.05,-198.14"/>
</a>
</g>
</g>
<!-- Node3 -->
<g id="Node000003" class="node">
<title>Node3</title>
<g id="a_Node000003"><a xlink:href="../../d5/d01/a01901.html#a8307c2ab71cb7da47fcbb8a88c5a6c54" target="_top" xlink:title=" ">
<polygon fill="white" stroke="#666666" points="306.12,-182 198.62,-182 198.62,-150 306.12,-150 306.12,-182"/>
<text text-anchor="start" x="206.62" y="-168.5" font-family="Helvetica,sans-Serif" font-size="10.00">DatabaseConnector::</text>
<text text-anchor="middle" x="252.38" y="-156.5" font-family="Helvetica,sans-Serif" font-size="10.00">getMunicipiosAsync</text>
</a>
</g>
</g>
<!-- Node1&#45;&gt;Node3 -->
<g id="edge2_Node000001_Node000003" class="edge">
<title>Node1&#45;&gt;Node3</title>
<g id="a_edge2_Node000001_Node000003"><a xlink:title=" ">
<path fill="none" stroke="#63b8ff" d="M133.26,-132.37C150.49,-137.28 169.5,-142.69 187.13,-147.71"/>
<polygon fill="#63b8ff" stroke="#63b8ff" points="186.17,-151.08 196.75,-150.45 188.09,-144.34 186.17,-151.08"/>
</a>
</g>
</g>
<!-- Node7 -->
<g id="Node000007" class="node">
<title>Node7</title>
<g id="a_Node000007"><a xlink:href="../../d5/d01/a01901.html#ae58a02574d3c2ab4c4596a7495d3d1ab" target="_top" xlink:title=" ">
<polygon fill="white" stroke="#666666" points="306.12,-132 198.62,-132 198.62,-100 306.12,-100 306.12,-132"/>
<text text-anchor="start" x="206.62" y="-118.5" font-family="Helvetica,sans-Serif" font-size="10.00">DatabaseConnector::</text>
<text text-anchor="middle" x="252.38" y="-106.5" font-family="Helvetica,sans-Serif" font-size="10.00">getProvinciasAsync</text>
</a>
</g>
</g>
<!-- Node1&#45;&gt;Node7 -->
<g id="edge6_Node000001_Node000007" class="edge">
<title>Node1&#45;&gt;Node7</title>
<g id="a_edge6_Node000001_Node000007"><a xlink:title=" ">
<path fill="none" stroke="#63b8ff" d="M149.98,-116C162.25,-116 174.89,-116 186.89,-116"/>
<polygon fill="#63b8ff" stroke="#63b8ff" points="186.67,-119.5 196.67,-116 186.67,-112.5 186.67,-119.5"/>
</a>
</g>
</g>
<!-- Node11 -->
<g id="Node000011" class="node">
<title>Node11</title>
<g id="a_Node000011"><a xlink:href="../../d5/d01/a01901.html#a00e40c8a8c699d22f2201c54a6092586" target="_top" xlink:title=" ">
<polygon fill="white" stroke="#666666" points="306.12,-82 198.62,-82 198.62,-50 306.12,-50 306.12,-82"/>
<text text-anchor="start" x="206.62" y="-68.5" font-family="Helvetica,sans-Serif" font-size="10.00">DatabaseConnector::</text>
<text text-anchor="middle" x="252.38" y="-56.5" font-family="Helvetica,sans-Serif" font-size="10.00">getVuelosAsync</text>
</a>
</g>
</g>
<!-- Node1&#45;&gt;Node11 -->
<g id="edge10_Node000001_Node000011" class="edge">
<title>Node1&#45;&gt;Node11</title>
<g id="a_edge10_Node000001_Node000011"><a xlink:title=" ">
<path fill="none" stroke="#63b8ff" d="M133.26,-99.63C150.49,-94.72 169.5,-89.31 187.13,-84.29"/>
<polygon fill="#63b8ff" stroke="#63b8ff" points="188.09,-87.66 196.75,-81.55 186.17,-80.92 188.09,-87.66"/>
</a>
</g>
</g>
<!-- Node15 -->
<g id="Node000015" class="node">
<title>Node15</title>
<g id="a_Node000015"><a xlink:href="../../d5/d01/a01901.html#af48507d47d876f6b094c6847aafa0e9d" target="_top" xlink:title=" ">
<polygon fill="white" stroke="#666666" points="306.12,-32 198.62,-32 198.62,0 306.12,0 306.12,-32"/>
<text text-anchor="start" x="206.62" y="-18.5" font-family="Helvetica,sans-Serif" font-size="10.00">DatabaseConnector::</text>
<text text-anchor="middle" x="252.38" y="-6.5" font-family="Helvetica,sans-Serif" font-size="10.00">getZonasAsync</text>
</a>
</g>
</g>
<!-- Node1&#45;&gt;Node15 -->
<g id="edge14_Node000001_Node000015" class="edge">
<title>Node1&#45;&gt;Node15</title>
<g id="a_edge14_Node000001_Node000015"><a xlink:title=" ">
<path fill="none" stroke="#63b8ff" d="M96.27,-99.78C117.65,-83.43 152.56,-58.19 185.5,-41 188.15,-39.61 190.9,-38.27 193.7,-36.96"/>
<polygon fill="#63b8ff" stroke="#63b8ff" points="194.87,-40.27 202.61,-33.03 192.05,-33.86 194.87,-40.27"/>
</a>
</g>
</g>
<!-- Node4 -->
<g id="Node000004" class="node">
<title>Node4</title>
<g id="a_Node000004"><a xlink:href="../../d5/d01/a01901.html#a277b4dbde9f7c8c9f6349369505153a2" target="_top" xlink:title=" ">
<polygon fill="white" stroke="#666666" points="462.75,-182 355.25,-182 355.25,-150 462.75,-150 462.75,-182"/>
<text text-anchor="start" x="363.25" y="-168.5" font-family="Helvetica,sans-Serif" font-size="10.00">DatabaseConnector::</text>
<text text-anchor="middle" x="409" y="-156.5" font-family="Helvetica,sans-Serif" font-size="10.00">getMunicipios</text>
</a>
</g>
</g>
<!-- Node3&#45;&gt;Node4 -->
<g id="edge3_Node000003_Node000004" class="edge">
<title>Node3&#45;&gt;Node4</title>
<g id="a_edge3_Node000003_Node000004"><a xlink:title=" ">
<path fill="none" stroke="#63b8ff" d="M306.59,-166C318.56,-166 331.39,-166 343.76,-166"/>
<polygon fill="#63b8ff" stroke="#63b8ff" points="343.44,-169.5 353.44,-166 343.44,-162.5 343.44,-169.5"/>
</a>
</g>
</g>
<!-- Node5 -->
<g id="Node000005" class="node">
<title>Node5</title>
<g id="a_Node000005"><a xlink:href="../../d5/d01/a01901.html#a09c3a9c872f5fde0b0c548da64bbd2f6" target="_top" xlink:title=" ">
<polygon fill="white" stroke="#666666" points="606.25,-182 498.75,-182 498.75,-150 606.25,-150 606.25,-182"/>
<text text-anchor="start" x="506.75" y="-168.5" font-family="Helvetica,sans-Serif" font-size="10.00">DatabaseConnector::</text>
<text text-anchor="middle" x="552.5" y="-156.5" font-family="Helvetica,sans-Serif" font-size="10.00">queryMunicipio</text>
</a>
</g>
</g>
<!-- Node4&#45;&gt;Node5 -->
<g id="edge4_Node000004_Node000005" class="edge">
<title>Node4&#45;&gt;Node5</title>
<g id="a_edge4_Node000004_Node000005"><a xlink:title=" ">
<path fill="none" stroke="#63b8ff" d="M463.09,-166C470.98,-166 479.18,-166 487.27,-166"/>
<polygon fill="#63b8ff" stroke="#63b8ff" points="487.07,-169.5 497.07,-166 487.07,-162.5 487.07,-169.5"/>
</a>
</g>
</g>
<!-- Node6 -->
<g id="Node000006" class="node">
<title>Node6</title>
<g id="a_Node000006"><a xlink:href="../../de/d03/a01873.html#a2e135076ae26141775579dfbca4da214" target="_top" xlink:title=" ">
<polygon fill="white" stroke="#666666" points="764,-182 659.5,-182 659.5,-150 764,-150 764,-182"/>
<text text-anchor="start" x="667.5" y="-168.5" font-family="Helvetica,sans-Serif" font-size="10.00">Database::Municipio</text>
<text text-anchor="middle" x="711.75" y="-156.5" font-family="Helvetica,sans-Serif" font-size="10.00">::fromQuery</text>
</a>
</g>
</g>
<!-- Node5&#45;&gt;Node6 -->
<g id="edge5_Node000005_Node000006" class="edge">
<title>Node5&#45;&gt;Node6</title>
<g id="a_edge5_Node000005_Node000006"><a xlink:title=" ">
<path fill="none" stroke="#63b8ff" d="M606.74,-166C619.96,-166 634.26,-166 647.9,-166"/>
<polygon fill="#63b8ff" stroke="#63b8ff" points="647.65,-169.5 657.65,-166 647.65,-162.5 647.65,-169.5"/>
</a>
</g>
</g>
<!-- Node8 -->
<g id="Node000008" class="node">
<title>Node8</title>
<g id="a_Node000008"><a xlink:href="../../d5/d01/a01901.html#a1e3a0181ff074b1e79850d33b9b8ab42" target="_top" xlink:title=" ">
<polygon fill="white" stroke="#666666" points="462.75,-132 355.25,-132 355.25,-100 462.75,-100 462.75,-132"/>
<text text-anchor="start" x="363.25" y="-118.5" font-family="Helvetica,sans-Serif" font-size="10.00">DatabaseConnector::</text>
<text text-anchor="middle" x="409" y="-106.5" font-family="Helvetica,sans-Serif" font-size="10.00">getProvincias</text>
</a>
</g>
</g>
<!-- Node7&#45;&gt;Node8 -->
<g id="edge7_Node000007_Node000008" class="edge">
<title>Node7&#45;&gt;Node8</title>
<g id="a_edge7_Node000007_Node000008"><a xlink:title=" ">
<path fill="none" stroke="#63b8ff" d="M306.59,-116C318.56,-116 331.39,-116 343.76,-116"/>
<polygon fill="#63b8ff" stroke="#63b8ff" points="343.44,-119.5 353.44,-116 343.44,-112.5 343.44,-119.5"/>
</a>
</g>
</g>
<!-- Node9 -->
<g id="Node000009" class="node">
<title>Node9</title>
<g id="a_Node000009"><a xlink:href="../../d5/d01/a01901.html#a4136453cf00807b524cc62a56223f82d" target="_top" xlink:title=" ">
<polygon fill="white" stroke="#666666" points="606.25,-132 498.75,-132 498.75,-100 606.25,-100 606.25,-132"/>
<text text-anchor="start" x="506.75" y="-118.5" font-family="Helvetica,sans-Serif" font-size="10.00">DatabaseConnector::</text>
<text text-anchor="middle" x="552.5" y="-106.5" font-family="Helvetica,sans-Serif" font-size="10.00">queryProvincia</text>
</a>
</g>
</g>
<!-- Node8&#45;&gt;Node9 -->
<g id="edge8_Node000008_Node000009" class="edge">
<title>Node8&#45;&gt;Node9</title>
<g id="a_edge8_Node000008_Node000009"><a xlink:title=" ">
<path fill="none" stroke="#63b8ff" d="M463.09,-116C470.98,-116 479.18,-116 487.27,-116"/>
<polygon fill="#63b8ff" stroke="#63b8ff" points="487.07,-119.5 497.07,-116 487.07,-112.5 487.07,-119.5"/>
</a>
</g>
</g>
<!-- Node10 -->
<g id="Node000010" class="node">
<title>Node10</title>
<g id="a_Node000010"><a xlink:href="../../d9/d03/a01877.html#a0d3df7eb17c59497696598f435a9a4cd" target="_top" xlink:title=" ">
<polygon fill="white" stroke="#666666" points="762.88,-132 660.62,-132 660.62,-100 762.88,-100 762.88,-132"/>
<text text-anchor="start" x="668.62" y="-118.5" font-family="Helvetica,sans-Serif" font-size="10.00">Database::Provincia</text>
<text text-anchor="middle" x="711.75" y="-106.5" font-family="Helvetica,sans-Serif" font-size="10.00">::fromQuery</text>
</a>
</g>
</g>
<!-- Node9&#45;&gt;Node10 -->
<g id="edge9_Node000009_Node000010" class="edge">
<title>Node9&#45;&gt;Node10</title>
<g id="a_edge9_Node000009_Node000010"><a xlink:title=" ">
<path fill="none" stroke="#63b8ff" d="M606.74,-116C620.24,-116 634.87,-116 648.76,-116"/>
<polygon fill="#63b8ff" stroke="#63b8ff" points="648.71,-119.5 658.71,-116 648.71,-112.5 648.71,-119.5"/>
</a>
</g>
</g>
<!-- Node12 -->
<g id="Node000012" class="node">
<title>Node12</title>
<g id="a_Node000012"><a xlink:href="../../d5/d01/a01901.html#aa501d9be228c74946830759e8f350bb2" target="_top" xlink:title="Obtiene un listado de todos los vuelos de la base de datos.">
<polygon fill="white" stroke="#666666" points="462.75,-82 355.25,-82 355.25,-50 462.75,-50 462.75,-82"/>
<text text-anchor="start" x="363.25" y="-68.5" font-family="Helvetica,sans-Serif" font-size="10.00">DatabaseConnector::</text>
<text text-anchor="middle" x="409" y="-56.5" font-family="Helvetica,sans-Serif" font-size="10.00">getVuelos</text>
</a>
</g>
</g>
<!-- Node11&#45;&gt;Node12 -->
<g id="edge11_Node000011_Node000012" class="edge">
<title>Node11&#45;&gt;Node12</title>
<g id="a_edge11_Node000011_Node000012"><a xlink:title=" ">
<path fill="none" stroke="#63b8ff" d="M306.59,-66C318.56,-66 331.39,-66 343.76,-66"/>
<polygon fill="#63b8ff" stroke="#63b8ff" points="343.44,-69.5 353.44,-66 343.44,-62.5 343.44,-69.5"/>
</a>
</g>
</g>
<!-- Node13 -->
<g id="Node000013" class="node">
<title>Node13</title>
<g id="a_Node000013"><a xlink:href="../../d5/d01/a01901.html#a2b4f98699f6e9dba0728ccc4f695e147" target="_top" xlink:title=" ">
<polygon fill="white" stroke="#666666" points="606.25,-82 498.75,-82 498.75,-50 606.25,-50 606.25,-82"/>
<text text-anchor="start" x="506.75" y="-68.5" font-family="Helvetica,sans-Serif" font-size="10.00">DatabaseConnector::</text>
<text text-anchor="middle" x="552.5" y="-56.5" font-family="Helvetica,sans-Serif" font-size="10.00">queryVuelo</text>
</a>
</g>
</g>
<!-- Node12&#45;&gt;Node13 -->
<g id="edge12_Node000012_Node000013" class="edge">
<title>Node12&#45;&gt;Node13</title>
<g id="a_edge12_Node000012_Node000013"><a xlink:title=" ">
<path fill="none" stroke="#63b8ff" d="M463.09,-66C470.98,-66 479.18,-66 487.27,-66"/>
<polygon fill="#63b8ff" stroke="#63b8ff" points="487.07,-69.5 497.07,-66 487.07,-62.5 487.07,-69.5"/>
</a>
</g>
</g>
<!-- Node14 -->
<g id="Node000014" class="node">
<title>Node14</title>
<g id="a_Node000014"><a xlink:href="../../db/d03/a01853.html#af2b86fd4bbe70ce92931ba82c3f0974b" target="_top" xlink:title=" ">
<polygon fill="white" stroke="#666666" points="781.25,-76 642.25,-76 642.25,-56 781.25,-56 781.25,-76"/>
<text text-anchor="middle" x="711.75" y="-62.5" font-family="Helvetica,sans-Serif" font-size="10.00">Database::Vuelo::fromQuery</text>
</a>
</g>
</g>
<!-- Node13&#45;&gt;Node14 -->
<g id="edge13_Node000013_Node000014" class="edge">
<title>Node13&#45;&gt;Node14</title>
<g id="a_edge13_Node000013_Node000014"><a xlink:title=" ">
<path fill="none" stroke="#63b8ff" d="M606.74,-66C614.43,-66 622.48,-66 630.56,-66"/>
<polygon fill="#63b8ff" stroke="#63b8ff" points="630.44,-69.5 640.44,-66 630.44,-62.5 630.44,-69.5"/>
</a>
</g>
</g>
<!-- Node16 -->
<g id="Node000016" class="node">
<title>Node16</title>
<g id="a_Node000016"><a xlink:href="../../d5/d01/a01901.html#a7a2dc4fc6ce7dd51e3b2a0749547d46e" target="_top" xlink:title="Obtiene un listado de todos las zonas de la base de datos.">
<polygon fill="white" stroke="#666666" points="462.75,-32 355.25,-32 355.25,0 462.75,0 462.75,-32"/>
<text text-anchor="start" x="363.25" y="-18.5" font-family="Helvetica,sans-Serif" font-size="10.00">DatabaseConnector::</text>
<text text-anchor="middle" x="409" y="-6.5" font-family="Helvetica,sans-Serif" font-size="10.00">getZonas</text>
</a>
</g>
</g>
<!-- Node15&#45;&gt;Node16 -->
<g id="edge15_Node000015_Node000016" class="edge">
<title>Node15&#45;&gt;Node16</title>
<g id="a_edge15_Node000015_Node000016"><a xlink:title=" ">
<path fill="none" stroke="#63b8ff" d="M306.59,-16C318.56,-16 331.39,-16 343.76,-16"/>
<polygon fill="#63b8ff" stroke="#63b8ff" points="343.44,-19.5 353.44,-16 343.44,-12.5 343.44,-19.5"/>
</a>
</g>
</g>
<!-- Node17 -->
<g id="Node000017" class="node">
<title>Node17</title>
<g id="a_Node000017"><a xlink:href="../../d5/d01/a01901.html#aafa175f116074af1e83d841ca7e07f3d" target="_top" xlink:title=" ">
<polygon fill="white" stroke="#666666" points="606.25,-32 498.75,-32 498.75,0 606.25,0 606.25,-32"/>
<text text-anchor="start" x="506.75" y="-18.5" font-family="Helvetica,sans-Serif" font-size="10.00">DatabaseConnector::</text>
<text text-anchor="middle" x="552.5" y="-6.5" font-family="Helvetica,sans-Serif" font-size="10.00">queryZona</text>
</a>
</g>
</g>
<!-- Node16&#45;&gt;Node17 -->
<g id="edge16_Node000016_Node000017" class="edge">
<title>Node16&#45;&gt;Node17</title>
<g id="a_edge16_Node000016_Node000017"><a xlink:title=" ">
<path fill="none" stroke="#63b8ff" d="M463.09,-16C470.98,-16 479.18,-16 487.27,-16"/>
<polygon fill="#63b8ff" stroke="#63b8ff" points="487.07,-19.5 497.07,-16 487.07,-12.5 487.07,-19.5"/>
</a>
</g>
</g>
<!-- Node18 -->
<g id="Node000018" class="node">
<title>Node18</title>
<g id="a_Node000018"><a xlink:href="../../de/d01/a01857.html#a4300badc9d2aa42bc623c65c79cf6c86" target="_top" xlink:title=" ">
<polygon fill="white" stroke="#666666" points="779.38,-26 644.12,-26 644.12,-6 779.38,-6 779.38,-26"/>
<text text-anchor="middle" x="711.75" y="-12.5" font-family="Helvetica,sans-Serif" font-size="10.00">Database::Zona::fromQuery</text>
</a>
</g>
</g>
<!-- Node17&#45;&gt;Node18 -->
<g id="edge17_Node000017_Node000018" class="edge">
<title>Node17&#45;&gt;Node18</title>
<g id="a_edge17_Node000017_Node000018"><a xlink:title=" ">
<path fill="none" stroke="#63b8ff" d="M606.74,-16C614.98,-16 623.63,-16 632.29,-16"/>
<polygon fill="#63b8ff" stroke="#63b8ff" points="632.11,-19.5 642.11,-16 632.11,-12.5 632.11,-19.5"/>
</a>
</g>
</g>
</g>
</svg>
