<?xml version="1.0" encoding="UTF-8" standalone="no"?>
<!DOCTYPE svg PUBLIC "-//W3C//DTD SVG 1.1//EN"
 "http://www.w3.org/Graphics/SVG/1.1/DTD/svg11.dtd">
<!-- Generated by graphviz version 10.0.1 (20240210.2158)
 -->
<!-- Title: json::parsing::decode_string Pages: 1 -->
<svg width="1140pt" height="540pt"
 viewBox="0.00 0.00 1140.00 540.00" xmlns="http://www.w3.org/2000/svg" xmlns:xlink="http://www.w3.org/1999/xlink">
<g id="graph0" class="graph" transform="scale(1 1) rotate(0) translate(4 536)">
<title>json::parsing::decode_string</title>
<!-- Node1 -->
<g id="Node000001" class="node">
<title>Node1</title>
<g id="a_Node000001"><a xlink:title="Decodes a string in JSON format.">
<polygon fill="#999999" stroke="#666666" points="1132,-326 1023,-326 1023,-294 1132,-294 1132,-326"/>
<text text-anchor="start" x="1031" y="-312.5" font-family="Helvetica,sans-Serif" font-size="10.00">json::parsing::decode</text>
<text text-anchor="middle" x="1077.5" y="-300.5" font-family="Helvetica,sans-Serif" font-size="10.00">_string</text>
</a>
</g>
</g>
<!-- Node2 -->
<g id="Node000002" class="node">
<title>Node2</title>
<g id="a_Node000002"><a xlink:href="../../d9/d07/classjson_1_1jobject_1_1entry.html#a73cbe576e7574a585288f55859f9a3ca" target="_top" xlink:title="Returns a string representation of the value.">
<polygon fill="white" stroke="#666666" points="984.38,-451 888.12,-451 888.12,-419 984.38,-419 984.38,-451"/>
<text text-anchor="start" x="896.12" y="-437.5" font-family="Helvetica,sans-Serif" font-size="10.00">json::jobject::entry</text>
<text text-anchor="middle" x="936.25" y="-425.5" font-family="Helvetica,sans-Serif" font-size="10.00">::as_string</text>
</a>
</g>
</g>
<!-- Node1&#45;&gt;Node2 -->
<g id="edge1_Node000001_Node000002" class="edge">
<title>Node1&#45;&gt;Node2</title>
<g id="a_edge1_Node000001_Node000002"><a xlink:title=" ">
<path fill="none" stroke="#63b8ff" d="M1049.87,-333.91C1022.17,-358.77 979.54,-397.04 955.46,-418.65"/>
<polygon fill="#63b8ff" stroke="#63b8ff" points="1052.07,-336.64 1057.17,-327.35 1047.39,-331.43 1052.07,-336.64"/>
</a>
</g>
</g>
<!-- Node4 -->
<g id="Node000004" class="node">
<title>Node4</title>
<g id="a_Node000004"><a xlink:href="../../d8/d07/classjson_1_1jobject.html#a07e29a2948df56e3eb332fcebe6ab9d5" target="_top" xlink:title="Parses a serialized JSON string.">
<polygon fill="white" stroke="#666666" points="985.5,-320 887,-320 887,-300 985.5,-300 985.5,-320"/>
<text text-anchor="middle" x="936.25" y="-306.5" font-family="Helvetica,sans-Serif" font-size="10.00">json::jobject::parse</text>
</a>
</g>
</g>
<!-- Node1&#45;&gt;Node4 -->
<g id="edge3_Node000001_Node000004" class="edge">
<title>Node1&#45;&gt;Node4</title>
<g id="a_edge3_Node000001_Node000004"><a xlink:title=" ">
<path fill="none" stroke="#63b8ff" d="M1011.18,-310C1002.68,-310 994.1,-310 985.94,-310"/>
<polygon fill="#63b8ff" stroke="#63b8ff" points="1011.15,-313.5 1021.15,-310 1011.15,-306.5 1011.15,-313.5"/>
</a>
</g>
</g>
<!-- Node18 -->
<g id="Node000018" class="node">
<title>Node18</title>
<g id="a_Node000018"><a xlink:href="../../d5/d07/namespacejson_1_1parsing.html#a4728315996e44bc74b7c8346b6ae10fe" target="_top" xlink:title="Parses a JSON array.">
<polygon fill="white" stroke="#666666" points="987,-132 885.5,-132 885.5,-100 987,-100 987,-132"/>
<text text-anchor="start" x="893.5" y="-118.5" font-family="Helvetica,sans-Serif" font-size="10.00">json::parsing::parse</text>
<text text-anchor="middle" x="936.25" y="-106.5" font-family="Helvetica,sans-Serif" font-size="10.00">_array</text>
</a>
</g>
</g>
<!-- Node1&#45;&gt;Node18 -->
<g id="edge20_Node000001_Node000018" class="edge">
<title>Node1&#45;&gt;Node18</title>
<g id="a_edge20_Node000001_Node000018"><a xlink:title=" ">
<path fill="none" stroke="#63b8ff" d="M1058.26,-284.59C1029.21,-244.11 973.22,-166.11 948.95,-132.3"/>
<polygon fill="#63b8ff" stroke="#63b8ff" points="1055.31,-286.48 1063.98,-292.56 1061,-282.4 1055.31,-286.48"/>
</a>
</g>
</g>
<!-- Node3 -->
<g id="Node000003" class="node">
<title>Node3</title>
<g id="a_Node000003"><a xlink:href="../../d9/d07/classjson_1_1jobject_1_1entry.html#a9c574de47f66e388e2bac8f69d01bb8f" target="_top" xlink:title=" ">
<polygon fill="white" stroke="#666666" points="825.12,-532 728.88,-532 728.88,-500 825.12,-500 825.12,-532"/>
<text text-anchor="start" x="736.88" y="-518.5" font-family="Helvetica,sans-Serif" font-size="10.00">json::jobject::entry</text>
<text text-anchor="middle" x="777" y="-506.5" font-family="Helvetica,sans-Serif" font-size="10.00">::string</text>
</a>
</g>
</g>
<!-- Node2&#45;&gt;Node3 -->
<g id="edge2_Node000002_Node000003" class="edge">
<title>Node2&#45;&gt;Node3</title>
<g id="a_edge2_Node000002_Node000003"><a xlink:title=" ">
<path fill="none" stroke="#63b8ff" d="M900.3,-457.29C884.98,-466.66 866.63,-477.37 849.5,-486 840.12,-490.73 829.82,-495.36 820.03,-499.51"/>
<polygon fill="#63b8ff" stroke="#63b8ff" points="901.93,-460.39 908.6,-452.15 898.25,-454.44 901.93,-460.39"/>
</a>
</g>
</g>
<!-- Node5 -->
<g id="Node000005" class="node">
<title>Node5</title>
<g id="a_Node000005"><a xlink:href="../../d6/d03/classjson_1_1jobject_1_1const__value.html#ac03ee6e7f26fdcef204eebbe91c2dbed" target="_top" xlink:title="Returns another constant value from this array.">
<polygon fill="white" stroke="#666666" points="646.38,-457 547.88,-457 547.88,-425 646.38,-425 646.38,-457"/>
<text text-anchor="start" x="555.88" y="-443.5" font-family="Helvetica,sans-Serif" font-size="10.00">json::jobject::const</text>
<text text-anchor="middle" x="597.12" y="-431.5" font-family="Helvetica,sans-Serif" font-size="10.00">_value::array</text>
</a>
</g>
</g>
<!-- Node4&#45;&gt;Node5 -->
<g id="edge4_Node000004_Node000005" class="edge">
<title>Node4&#45;&gt;Node5</title>
<g id="a_edge4_Node000004_Node000005"><a xlink:title=" ">
<path fill="none" stroke="#63b8ff" d="M925.97,-330.69C909.22,-366.94 873.48,-439.42 849.5,-453 786.01,-488.96 698.38,-472.9 645.13,-457.38"/>
<polygon fill="#63b8ff" stroke="#63b8ff" points="929.11,-332.24 930.07,-321.68 922.74,-329.33 929.11,-332.24"/>
</a>
</g>
</g>
<!-- Node6 -->
<g id="Node000006" class="node">
<title>Node6</title>
<g id="a_Node000006"><a xlink:href="../../d9/d07/classjson_1_1jobject_1_1entry.html#a91afe1e18521515266c501b7ce74bdf3" target="_top" xlink:title="Casts the value as a JSON object.">
<polygon fill="white" stroke="#666666" points="825.12,-376 728.88,-376 728.88,-344 825.12,-344 825.12,-376"/>
<text text-anchor="start" x="736.88" y="-362.5" font-family="Helvetica,sans-Serif" font-size="10.00">json::jobject::entry</text>
<text text-anchor="middle" x="777" y="-350.5" font-family="Helvetica,sans-Serif" font-size="10.00">::as_object</text>
</a>
</g>
</g>
<!-- Node4&#45;&gt;Node6 -->
<g id="edge5_Node000004_Node000006" class="edge">
<title>Node4&#45;&gt;Node6</title>
<g id="a_edge5_Node000004_Node000006"><a xlink:title=" ">
<path fill="none" stroke="#63b8ff" d="M891.36,-323.96C870.88,-330.47 846.46,-338.23 825.54,-344.88"/>
<polygon fill="#63b8ff" stroke="#63b8ff" points="892.37,-327.31 900.84,-320.94 890.25,-320.64 892.37,-327.31"/>
</a>
</g>
</g>
<!-- Node8 -->
<g id="Node000008" class="node">
<title>Node8</title>
<g id="a_Node000008"><a xlink:href="../../db/d02/struct_database_1_1_s_d_o___g_e_o_m_e_t_r_y.html#af4f4cb72cf6ab17b5246c651ccaa9a51" target="_top" xlink:title=" ">
<polygon fill="white" stroke="#666666" points="849.5,-326 704.5,-326 704.5,-294 849.5,-294 849.5,-326"/>
<text text-anchor="start" x="712.5" y="-312.5" font-family="Helvetica,sans-Serif" font-size="10.00">Database::SDO_GEOMETRY</text>
<text text-anchor="middle" x="777" y="-300.5" font-family="Helvetica,sans-Serif" font-size="10.00">::fromJSON</text>
</a>
</g>
</g>
<!-- Node4&#45;&gt;Node8 -->
<g id="edge7_Node000004_Node000008" class="edge">
<title>Node4&#45;&gt;Node8</title>
<g id="a_edge7_Node000004_Node000008"><a xlink:title=" ">
<path fill="none" stroke="#63b8ff" d="M875.52,-310C867.09,-310 858.35,-310 849.72,-310"/>
<polygon fill="#63b8ff" stroke="#63b8ff" points="875.27,-313.5 885.27,-310 875.27,-306.5 875.27,-313.5"/>
</a>
</g>
</g>
<!-- Node14 -->
<g id="Node000014" class="node">
<title>Node14</title>
<g id="a_Node000014"><a xlink:href="../../d6/d03/classjson_1_1jobject_1_1const__value.html#ad5a9c1d6ef378522c5ae730c5f7619f1" target="_top" xlink:title="Returns another constant value from this object.">
<polygon fill="white" stroke="#666666" points="826.25,-426 727.75,-426 727.75,-394 826.25,-394 826.25,-426"/>
<text text-anchor="start" x="735.75" y="-412.5" font-family="Helvetica,sans-Serif" font-size="10.00">json::jobject::const</text>
<text text-anchor="middle" x="777" y="-400.5" font-family="Helvetica,sans-Serif" font-size="10.00">_value::get</text>
</a>
</g>
</g>
<!-- Node4&#45;&gt;Node14 -->
<g id="edge13_Node000004_Node000014" class="edge">
<title>Node4&#45;&gt;Node14</title>
<g id="a_edge13_Node000004_Node000014"><a xlink:title=" ">
<path fill="none" stroke="#63b8ff" d="M918.37,-328.33C902.12,-345.07 876.13,-369.49 849.5,-385 842.34,-389.17 834.38,-392.8 826.43,-395.91"/>
<polygon fill="#63b8ff" stroke="#63b8ff" points="920.54,-331.13 924.89,-321.47 915.47,-326.31 920.54,-331.13"/>
</a>
</g>
</g>
<!-- Node15 -->
<g id="Node000015" class="node">
<title>Node15</title>
<g id="a_Node000015"><a xlink:href="../../d9/d07/classjson_1_1jobject_1_1entry.html#aed0ba8146d3b175190a73fec57c547dc" target="_top" xlink:title="Casts an array of JSON objects.">
<polygon fill="white" stroke="#666666" points="836,-182 718,-182 718,-150 836,-150 836,-182"/>
<text text-anchor="start" x="726" y="-168.5" font-family="Helvetica,sans-Serif" font-size="10.00">json::jobject::entry</text>
<text text-anchor="middle" x="777" y="-156.5" font-family="Helvetica,sans-Serif" font-size="10.00">::vector&lt; json::jobject &gt;</text>
</a>
</g>
</g>
<!-- Node4&#45;&gt;Node15 -->
<g id="edge16_Node000004_Node000015" class="edge">
<title>Node4&#45;&gt;Node15</title>
<g id="a_edge16_Node000004_Node000015"><a xlink:title=" ">
<path fill="none" stroke="#63b8ff" d="M925.65,-289.81C912.17,-263.48 885.21,-217.66 849.5,-191 845.18,-187.77 840.41,-184.94 835.44,-182.46"/>
<polygon fill="#63b8ff" stroke="#63b8ff" points="922.35,-291.02 929.92,-298.43 928.62,-287.91 922.35,-291.02"/>
</a>
</g>
</g>
<!-- Node16 -->
<g id="Node000016" class="node">
<title>Node16</title>
<g id="a_Node000016"><a xlink:href="../../d8/d07/classjson_1_1jobject.html#ab785f1c8b2636212e0d49b711fa4fba3" target="_top" xlink:title="Returns a pretty (multi&#45;line indented) serialzed representation of the object or array.">
<polygon fill="white" stroke="#666666" points="826.62,-258 727.38,-258 727.38,-238 826.62,-238 826.62,-258"/>
<text text-anchor="middle" x="777" y="-244.5" font-family="Helvetica,sans-Serif" font-size="10.00">json::jobject::pretty</text>
</a>
</g>
</g>
<!-- Node4&#45;&gt;Node16 -->
<g id="edge17_Node000004_Node000016" class="edge">
<title>Node4&#45;&gt;Node16</title>
<g id="a_edge17_Node000004_Node000016"><a xlink:title=" ">
<path fill="none" stroke="#63b8ff" d="M898.45,-295.49C869.61,-284.12 830.18,-268.57 804.41,-258.41"/>
<polygon fill="#63b8ff" stroke="#63b8ff" points="896.94,-298.66 907.52,-299.07 899.5,-292.14 896.94,-298.66"/>
</a>
</g>
</g>
<!-- Node17 -->
<g id="Node000017" class="node">
<title>Node17</title>
<g id="a_Node000017"><a xlink:href="../../d8/d07/classjson_1_1jobject.html#a1049cbcf6dc1ebcd17fa8c3d21af3bd3" target="_top" xlink:title=" ">
<polygon fill="white" stroke="#666666" points="831.88,-220 722.12,-220 722.12,-200 831.88,-200 831.88,-220"/>
<text text-anchor="middle" x="777" y="-206.5" font-family="Helvetica,sans-Serif" font-size="10.00">json::jobject::tryparse</text>
</a>
</g>
</g>
<!-- Node4&#45;&gt;Node17 -->
<g id="edge19_Node000004_Node000017" class="edge">
<title>Node4&#45;&gt;Node17</title>
<g id="a_edge19_Node000004_Node000017"><a xlink:title=" ">
<path fill="none" stroke="#63b8ff" d="M919.97,-290.84C904.21,-272.34 877.99,-244.87 849.5,-229 843.33,-225.56 836.51,-222.72 829.6,-220.39"/>
<polygon fill="#63b8ff" stroke="#63b8ff" points="917.17,-292.94 926.25,-298.42 922.56,-288.48 917.17,-292.94"/>
</a>
</g>
</g>
<!-- Node7 -->
<g id="Node000007" class="node">
<title>Node7</title>
<g id="a_Node000007"><a xlink:href="../../d9/d07/classjson_1_1jobject_1_1entry.html#a8cbcd041225df788b6558d36f59763f4" target="_top" xlink:title=" ">
<polygon fill="white" stroke="#666666" points="645.25,-376 549,-376 549,-344 645.25,-344 645.25,-376"/>
<text text-anchor="start" x="557" y="-362.5" font-family="Helvetica,sans-Serif" font-size="10.00">json::jobject::entry</text>
<text text-anchor="middle" x="597.12" y="-350.5" font-family="Helvetica,sans-Serif" font-size="10.00">::jobject</text>
</a>
</g>
</g>
<!-- Node6&#45;&gt;Node7 -->
<g id="edge6_Node000006_Node000007" class="edge">
<title>Node6&#45;&gt;Node7</title>
<g id="a_edge6_Node000006_Node000007"><a xlink:title=" ">
<path fill="none" stroke="#63b8ff" d="M717.3,-360C694.01,-360 667.59,-360 645.55,-360"/>
<polygon fill="#63b8ff" stroke="#63b8ff" points="717.29,-363.5 727.29,-360 717.29,-356.5 717.29,-363.5"/>
</a>
</g>
</g>
<!-- Node9 -->
<g id="Node000009" class="node">
<title>Node9</title>
<g id="a_Node000009"><a xlink:href="../../d7/d05/struct_database_1_1_objeto.html#a23779e9f38a1d1ed6ff784d1e7969953" target="_top" xlink:title=" ">
<polygon fill="white" stroke="#666666" points="668.5,-320 525.75,-320 525.75,-300 668.5,-300 668.5,-320"/>
<text text-anchor="middle" x="597.12" y="-306.5" font-family="Helvetica,sans-Serif" font-size="10.00">Database::Objeto::fromQuery</text>
</a>
</g>
</g>
<!-- Node8&#45;&gt;Node9 -->
<g id="edge8_Node000008_Node000009" class="edge">
<title>Node8&#45;&gt;Node9</title>
<g id="a_edge8_Node000008_Node000009"><a xlink:title=" ">
<path fill="none" stroke="#63b8ff" d="M692.86,-310C684.81,-310 676.69,-310 668.78,-310"/>
<polygon fill="#63b8ff" stroke="#63b8ff" points="692.65,-313.5 702.65,-310 692.65,-306.5 692.65,-313.5"/>
</a>
</g>
</g>
<!-- Node10 -->
<g id="Node000010" class="node">
<title>Node10</title>
<g id="a_Node000010"><a xlink:href="../../d1/d01/class_database_connector.html#a5ebff79b9221572c5cc1372f375a9644" target="_top" xlink:title=" ">
<polygon fill="white" stroke="#666666" points="489.75,-326 382.25,-326 382.25,-294 489.75,-294 489.75,-326"/>
<text text-anchor="start" x="390.25" y="-312.5" font-family="Helvetica,sans-Serif" font-size="10.00">DatabaseConnector::</text>
<text text-anchor="middle" x="436" y="-300.5" font-family="Helvetica,sans-Serif" font-size="10.00">queryObjeto</text>
</a>
</g>
</g>
<!-- Node9&#45;&gt;Node10 -->
<g id="edge9_Node000009_Node000010" class="edge">
<title>Node9&#45;&gt;Node10</title>
<g id="a_edge9_Node000009_Node000010"><a xlink:title=" ">
<path fill="none" stroke="#63b8ff" d="M514.15,-310C505.89,-310 497.67,-310 489.83,-310"/>
<polygon fill="#63b8ff" stroke="#63b8ff" points="513.89,-313.5 523.89,-310 513.89,-306.5 513.89,-313.5"/>
</a>
</g>
</g>
<!-- Node11 -->
<g id="Node000011" class="node">
<title>Node11</title>
<g id="a_Node000011"><a xlink:href="../../d6/d00/class_g_e_u_1_1_tree_segmentation_g_u_i_adapter.html#a220f4253fbaddc522c033e939717f015" target="_top" xlink:title="Draw Export to Database tab to handle remote conection and upload.">
<polygon fill="white" stroke="#666666" points="346.25,-351 174.25,-351 174.25,-319 346.25,-319 346.25,-351"/>
<text text-anchor="start" x="182.25" y="-337.5" font-family="Helvetica,sans-Serif" font-size="10.00">GEU::TreeSegmentationGUIAdapter</text>
<text text-anchor="middle" x="260.25" y="-325.5" font-family="Helvetica,sans-Serif" font-size="10.00">::makeSegmentDatabaseGUI</text>
</a>
</g>
</g>
<!-- Node10&#45;&gt;Node11 -->
<g id="edge10_Node000010_Node000011" class="edge">
<title>Node10&#45;&gt;Node11</title>
<g id="a_edge10_Node000010_Node000011"><a xlink:title=" ">
<path fill="none" stroke="#63b8ff" d="M370.67,-319.26C362.84,-320.38 354.74,-321.55 346.66,-322.71"/>
<polygon fill="#63b8ff" stroke="#63b8ff" points="371.03,-322.74 380.43,-317.85 370.03,-315.81 371.03,-322.74"/>
</a>
</g>
</g>
<!-- Node12 -->
<g id="Node000012" class="node">
<title>Node12</title>
<g id="a_Node000012"><a xlink:href="../../d7/d06/class_g_e_u_1_1_database_query_popup.html#a66a3af3a767847d263899d0d0e287b78" target="_top" xlink:title=" ">
<polygon fill="white" stroke="#666666" points="329.38,-301 191.12,-301 191.12,-269 329.38,-269 329.38,-301"/>
<text text-anchor="start" x="199.12" y="-287.5" font-family="Helvetica,sans-Serif" font-size="10.00">GEU::DatabaseQueryPopup</text>
<text text-anchor="middle" x="260.25" y="-275.5" font-family="Helvetica,sans-Serif" font-size="10.00">::queryFilterObjeto</text>
</a>
</g>
</g>
<!-- Node10&#45;&gt;Node12 -->
<g id="edge11_Node000010_Node000012" class="edge">
<title>Node10&#45;&gt;Node12</title>
<g id="a_edge11_Node000010_Node000012"><a xlink:title=" ">
<path fill="none" stroke="#63b8ff" d="M370.87,-300.77C357.46,-298.84 343.28,-296.8 329.71,-294.85"/>
<polygon fill="#63b8ff" stroke="#63b8ff" points="370.03,-304.19 380.43,-302.15 371.03,-297.26 370.03,-304.19"/>
</a>
</g>
</g>
<!-- Node13 -->
<g id="Node000013" class="node">
<title>Node13</title>
<g id="a_Node000013"><a xlink:href="../../d7/d06/class_g_e_u_1_1_database_query_popup.html#aee96f5bdc802183d992461ccf7af7606" target="_top" xlink:title=" ">
<polygon fill="white" stroke="#666666" points="138.25,-301 0,-301 0,-269 138.25,-269 138.25,-301"/>
<text text-anchor="start" x="8" y="-287.5" font-family="Helvetica,sans-Serif" font-size="10.00">GEU::DatabaseQueryPopup</text>
<text text-anchor="middle" x="69.12" y="-275.5" font-family="Helvetica,sans-Serif" font-size="10.00">::makeFormObjeto</text>
</a>
</g>
</g>
<!-- Node12&#45;&gt;Node13 -->
<g id="edge12_Node000012_Node000013" class="edge">
<title>Node12&#45;&gt;Node13</title>
<g id="a_edge12_Node000012_Node000013"><a xlink:title=" ">
<path fill="none" stroke="#63b8ff" d="M179.39,-285C165.76,-285 151.73,-285 138.44,-285"/>
<polygon fill="#63b8ff" stroke="#63b8ff" points="179.19,-288.5 189.19,-285 179.19,-281.5 179.19,-288.5"/>
</a>
</g>
</g>
<!-- Node14&#45;&gt;Node5 -->
<g id="edge14_Node000014_Node000005" class="edge">
<title>Node14&#45;&gt;Node5</title>
<g id="a_edge14_Node000014_Node000005"><a xlink:title=" ">
<path fill="none" stroke="#63b8ff" d="M716.2,-420.42C693.58,-424.36 668.13,-428.8 646.67,-432.54"/>
<polygon fill="#63b8ff" stroke="#63b8ff" points="716.65,-423.9 725.9,-418.73 715.45,-417 716.65,-423.9"/>
</a>
</g>
</g>
<!-- Node14&#45;&gt;Node14 -->
<g id="edge15_Node000014_Node000014" class="edge">
<title>Node14&#45;&gt;Node14</title>
<g id="a_edge15_Node000014_Node000014"><a xlink:title=" ">
<path fill="none" stroke="#63b8ff" d="M803.54,-437.71C799.11,-441.48 790.27,-444 777,-444 752.74,-444 743.26,-435.58 748.57,-426.44"/>
<polygon fill="#63b8ff" stroke="#63b8ff" points="806.97,-438.38 805.18,-427.94 800.07,-437.22 806.97,-438.38"/>
</a>
</g>
</g>
<!-- Node16&#45;&gt;Node16 -->
<g id="edge18_Node000016_Node000016" class="edge">
<title>Node16&#45;&gt;Node16</title>
<g id="a_edge18_Node000016_Node000016"><a xlink:title=" ">
<path fill="none" stroke="#63b8ff" d="M805.15,-269.44C801.52,-273.3 792.14,-276 777,-276 749.32,-276 740.88,-266.98 751.7,-258.34"/>
<polygon fill="#63b8ff" stroke="#63b8ff" points="808.55,-268.62 802.68,-259.8 801.77,-270.36 808.55,-268.62"/>
</a>
</g>
</g>
<!-- Node18&#45;&gt;Node15 -->
<g id="edge23_Node000018_Node000015" class="edge">
<title>Node18&#45;&gt;Node15</title>
<g id="a_edge23_Node000018_Node000015"><a xlink:title=" ">
<path fill="none" stroke="#63b8ff" d="M874.09,-135.45C859.48,-140.09 844.02,-145.01 829.87,-149.51"/>
<polygon fill="#63b8ff" stroke="#63b8ff" points="875.15,-138.78 883.62,-132.42 873.03,-132.11 875.15,-138.78"/>
</a>
</g>
</g>
<!-- Node19 -->
<g id="Node000019" class="node">
<title>Node19</title>
<g id="a_Node000019"><a xlink:href="../../df/d03/classjson_1_1jobject_1_1const__proxy.html#a16ced6515b05d5aa304068a4c0eb4a96" target="_top" xlink:title="Returns another constant value from this array.">
<polygon fill="white" stroke="#666666" points="826.25,-132 727.75,-132 727.75,-100 826.25,-100 826.25,-132"/>
<text text-anchor="start" x="735.75" y="-118.5" font-family="Helvetica,sans-Serif" font-size="10.00">json::jobject::const</text>
<text text-anchor="middle" x="777" y="-106.5" font-family="Helvetica,sans-Serif" font-size="10.00">_proxy::array</text>
</a>
</g>
</g>
<!-- Node18&#45;&gt;Node19 -->
<g id="edge21_Node000018_Node000019" class="edge">
<title>Node18&#45;&gt;Node19</title>
<g id="a_edge21_Node000018_Node000019"><a xlink:title=" ">
<path fill="none" stroke="#63b8ff" d="M873.86,-116C858.2,-116 841.57,-116 826.64,-116"/>
<polygon fill="#63b8ff" stroke="#63b8ff" points="873.55,-119.5 883.55,-116 873.55,-112.5 873.55,-119.5"/>
</a>
</g>
</g>
<!-- Node20 -->
<g id="Node000020" class="node">
<title>Node20</title>
<g id="a_Node000020"><a xlink:href="../../d9/d07/classjson_1_1jobject_1_1entry.html#ae00094f2c15fb3c00ca0bad03af0d796" target="_top" xlink:title="Converts a serialized array of numbers to a vector of numbers.">
<polygon fill="white" stroke="#666666" points="827,-82 727,-82 727,-50 827,-50 827,-82"/>
<text text-anchor="start" x="735" y="-68.5" font-family="Helvetica,sans-Serif" font-size="10.00">json::jobject::entry</text>
<text text-anchor="middle" x="777" y="-56.5" font-family="Helvetica,sans-Serif" font-size="10.00">::get_number_array</text>
</a>
</g>
</g>
<!-- Node18&#45;&gt;Node20 -->
<g id="edge22_Node000018_Node000020" class="edge">
<title>Node18&#45;&gt;Node20</title>
<g id="a_edge22_Node000018_Node000020"><a xlink:title=" ">
<path fill="none" stroke="#63b8ff" d="M874.48,-96.68C858.91,-91.73 842.36,-86.46 827.44,-81.72"/>
<polygon fill="#63b8ff" stroke="#63b8ff" points="873.03,-99.89 883.62,-99.58 875.15,-93.22 873.03,-99.89"/>
</a>
</g>
</g>
<!-- Node21 -->
<g id="Node000021" class="node">
<title>Node21</title>
<g id="a_Node000021"><a xlink:href="../../d9/d07/classjson_1_1jobject_1_1entry.html#aacc6e73c8dd5cac11fd7bcff6eb82893" target="_top" xlink:title="Casts an array of strings.">
<polygon fill="white" stroke="#666666" points="831.5,-32 722.5,-32 722.5,0 831.5,0 831.5,-32"/>
<text text-anchor="start" x="730.5" y="-18.5" font-family="Helvetica,sans-Serif" font-size="10.00">json::jobject::entry</text>
<text text-anchor="middle" x="777" y="-6.5" font-family="Helvetica,sans-Serif" font-size="10.00">::vector&lt; std::string &gt;</text>
</a>
</g>
</g>
<!-- Node18&#45;&gt;Node21 -->
<g id="edge24_Node000018_Node000021" class="edge">
<title>Node18&#45;&gt;Node21</title>
<g id="a_edge24_Node000018_Node000021"><a xlink:title=" ">
<path fill="none" stroke="#63b8ff" d="M912.4,-91.63C896.14,-75.45 873.08,-54.73 849.5,-41 843.93,-37.76 837.88,-34.84 831.72,-32.24"/>
<polygon fill="#63b8ff" stroke="#63b8ff" points="909.69,-93.85 919.19,-98.53 914.68,-88.95 909.69,-93.85"/>
</a>
</g>
</g>
</g>
</svg>
