<?xml version="1.0" encoding="UTF-8" standalone="no"?>
<!DOCTYPE svg PUBLIC "-//W3C//DTD SVG 1.1//EN"
 "http://www.w3.org/Graphics/SVG/1.1/DTD/svg11.dtd">
<!-- Generated by graphviz version 10.0.1 (20240210.2158)
 -->
<!-- Title: GEU::I_GUIPopup Pages: 1 -->
<svg width="297pt" height="408pt"
 viewBox="0.00 0.00 297.25 408.00" xmlns="http://www.w3.org/2000/svg" xmlns:xlink="http://www.w3.org/1999/xlink">
<g id="graph0" class="graph" transform="scale(1 1) rotate(0) translate(4 404)">
<title>GEU::I_GUIPopup</title>
<!-- Node1 -->
<g id="Node000001" class="node">
<title>Node1</title>
<g id="a_Node000001"><a xlink:title="ImGUI popups interface adapter class.">
<polygon fill="#999999" stroke="#666666" points="94.75,-191 0,-191 0,-171 94.75,-171 94.75,-191"/>
<text text-anchor="middle" x="47.38" y="-177.5" font-family="Helvetica,sans-Serif" font-size="10.00">GEU::I_GUIPopup</text>
</a>
</g>
</g>
<!-- Node2 -->
<g id="Node000002" class="node">
<title>Node2</title>
<g id="a_Node000002"><a xlink:href="../../d7/d06/class_g_e_u_1_1_cloud_export_dialog_popup.html" target="_top" xlink:title="ImGUIFileDialog popup wrapper for point cloud file selection.">
<polygon fill="white" stroke="#666666" points="285.5,-400 134.5,-400 134.5,-380 285.5,-380 285.5,-400"/>
<text text-anchor="middle" x="210" y="-386.5" font-family="Helvetica,sans-Serif" font-size="10.00">GEU::CloudExportDialogPopup</text>
</a>
</g>
</g>
<!-- Node1&#45;&gt;Node2 -->
<g id="edge1_Node000001_Node000002" class="edge">
<title>Node1&#45;&gt;Node2</title>
<g id="a_edge1_Node000001_Node000002"><a xlink:title=" ">
<path fill="none" stroke="#63b8ff" d="M51.33,-202.23C57.97,-241.72 77.9,-326.49 130.75,-371 134.81,-374.42 139.39,-377.25 144.25,-379.58"/>
<polygon fill="#63b8ff" stroke="#63b8ff" points="54.82,-201.95 49.84,-192.6 47.91,-203.02 54.82,-201.95"/>
</a>
</g>
</g>
<!-- Node3 -->
<g id="Node000003" class="node">
<title>Node3</title>
<g id="a_Node000003"><a xlink:href="../../dd/d00/class_g_e_u_1_1_confirm_close_popup.html" target="_top" xlink:title=" ">
<polygon fill="white" stroke="#666666" points="274.25,-362 145.75,-362 145.75,-342 274.25,-342 274.25,-362"/>
<text text-anchor="middle" x="210" y="-348.5" font-family="Helvetica,sans-Serif" font-size="10.00">GEU::ConfirmClosePopup</text>
</a>
</g>
</g>
<!-- Node1&#45;&gt;Node3 -->
<g id="edge2_Node000001_Node000003" class="edge">
<title>Node1&#45;&gt;Node3</title>
<g id="a_edge2_Node000001_Node000003"><a xlink:title=" ">
<path fill="none" stroke="#63b8ff" d="M53.82,-202.12C63.49,-235.27 86.91,-299.24 130.75,-333 135.18,-336.41 140.14,-339.22 145.35,-341.53"/>
<polygon fill="#63b8ff" stroke="#63b8ff" points="57.3,-201.58 51.27,-192.87 50.55,-203.44 57.3,-201.58"/>
</a>
</g>
</g>
<!-- Node4 -->
<g id="Node000004" class="node">
<title>Node4</title>
<g id="a_Node000004"><a xlink:href="../../d3/d04/class_g_e_u_1_1_confirm_popup.html" target="_top" xlink:title="Simple yes/no popup modal window.">
<polygon fill="white" stroke="#666666" points="261.88,-324 158.12,-324 158.12,-304 261.88,-304 261.88,-324"/>
<text text-anchor="middle" x="210" y="-310.5" font-family="Helvetica,sans-Serif" font-size="10.00">GEU::ConfirmPopup</text>
</a>
</g>
</g>
<!-- Node1&#45;&gt;Node4 -->
<g id="edge3_Node000001_Node000004" class="edge">
<title>Node1&#45;&gt;Node4</title>
<g id="a_edge3_Node000001_Node000004"><a xlink:title=" ">
<path fill="none" stroke="#63b8ff" d="M57.6,-201.59C70.29,-227.49 95.62,-271.39 130.75,-295 138.87,-300.46 148.4,-304.35 157.97,-307.13"/>
<polygon fill="#63b8ff" stroke="#63b8ff" points="60.88,-200.33 53.45,-192.78 54.55,-203.32 60.88,-200.33"/>
</a>
</g>
</g>
<!-- Node5 -->
<g id="Node000005" class="node">
<title>Node5</title>
<g id="a_Node000005"><a xlink:href="../../d2/d00/class_g_e_u_1_1_database_new_raw_popup.html" target="_top" xlink:title=" ">
<polygon fill="white" stroke="#666666" points="284.75,-286 135.25,-286 135.25,-266 284.75,-266 284.75,-286"/>
<text text-anchor="middle" x="210" y="-272.5" font-family="Helvetica,sans-Serif" font-size="10.00">GEU::DatabaseNewRawPopup</text>
</a>
</g>
</g>
<!-- Node1&#45;&gt;Node5 -->
<g id="edge4_Node000001_Node000005" class="edge">
<title>Node1&#45;&gt;Node5</title>
<g id="a_edge4_Node000001_Node000005"><a xlink:title=" ">
<path fill="none" stroke="#63b8ff" d="M63.99,-200.14C79.23,-217.55 103.98,-242.66 130.75,-257 137.16,-260.43 144.19,-263.25 151.33,-265.57"/>
<polygon fill="#63b8ff" stroke="#63b8ff" points="66.67,-197.89 57.53,-192.53 61.33,-202.42 66.67,-197.89"/>
</a>
</g>
</g>
<!-- Node6 -->
<g id="Node000006" class="node">
<title>Node6</title>
<g id="a_Node000006"><a xlink:href="../../db/d06/class_g_e_u_1_1_database_new_vuelo_popup.html" target="_top" xlink:title=" ">
<polygon fill="white" stroke="#666666" points="287.75,-248 132.25,-248 132.25,-228 287.75,-228 287.75,-248"/>
<text text-anchor="middle" x="210" y="-234.5" font-family="Helvetica,sans-Serif" font-size="10.00">GEU::DatabaseNewVueloPopup</text>
</a>
</g>
</g>
<!-- Node1&#45;&gt;Node6 -->
<g id="edge5_Node000001_Node000006" class="edge">
<title>Node1&#45;&gt;Node6</title>
<g id="a_edge5_Node000001_Node000006"><a xlink:title=" ">
<path fill="none" stroke="#63b8ff" d="M78.21,-196.47C93.61,-204.01 112.87,-212.77 130.75,-219 139.99,-222.22 150.03,-225.1 159.74,-227.58"/>
<polygon fill="#63b8ff" stroke="#63b8ff" points="80.1,-193.5 69.59,-192.16 76.97,-199.76 80.1,-193.5"/>
</a>
</g>
</g>
<!-- Node7 -->
<g id="Node000007" class="node">
<title>Node7</title>
<g id="a_Node000007"><a xlink:href="../../df/d01/class_g_e_u_1_1_database_new_zona_popup.html" target="_top" xlink:title=" ">
<polygon fill="white" stroke="#666666" points="285.88,-210 134.12,-210 134.12,-190 285.88,-190 285.88,-210"/>
<text text-anchor="middle" x="210" y="-196.5" font-family="Helvetica,sans-Serif" font-size="10.00">GEU::DatabaseNewZonaPopup</text>
</a>
</g>
</g>
<!-- Node1&#45;&gt;Node7 -->
<g id="edge6_Node000001_Node000007" class="edge">
<title>Node1&#45;&gt;Node7</title>
<g id="a_edge6_Node000001_Node000007"><a xlink:title=" ">
<path fill="none" stroke="#63b8ff" d="M106.03,-187.82C115.07,-188.89 124.53,-190.01 133.9,-191.12"/>
<polygon fill="#63b8ff" stroke="#63b8ff" points="106.68,-184.37 96.34,-186.67 105.86,-191.32 106.68,-184.37"/>
</a>
</g>
</g>
<!-- Node8 -->
<g id="Node000008" class="node">
<title>Node8</title>
<g id="a_Node000008"><a xlink:href="../../dc/d00/class_g_e_u_1_1_database_query_dato_popup.html" target="_top" xlink:title=" ">
<polygon fill="white" stroke="#666666" points="289.25,-172 130.75,-172 130.75,-152 289.25,-152 289.25,-172"/>
<text text-anchor="middle" x="210" y="-158.5" font-family="Helvetica,sans-Serif" font-size="10.00">GEU::DatabaseQueryDatoPopup</text>
</a>
</g>
</g>
<!-- Node1&#45;&gt;Node8 -->
<g id="edge7_Node000001_Node000008" class="edge">
<title>Node1&#45;&gt;Node8</title>
<g id="a_edge7_Node000001_Node000008"><a xlink:title=" ">
<path fill="none" stroke="#63b8ff" d="M106.08,-174.17C113.94,-173.24 122.11,-172.28 130.26,-171.31"/>
<polygon fill="#63b8ff" stroke="#63b8ff" points="105.86,-170.68 96.34,-175.33 106.68,-177.63 105.86,-170.68"/>
</a>
</g>
</g>
<!-- Node9 -->
<g id="Node000009" class="node">
<title>Node9</title>
<g id="a_Node000009"><a xlink:href="../../d7/d06/class_g_e_u_1_1_database_query_popup.html" target="_top" xlink:title=" ">
<polygon fill="white" stroke="#666666" points="279.12,-134 140.88,-134 140.88,-114 279.12,-114 279.12,-134"/>
<text text-anchor="middle" x="210" y="-120.5" font-family="Helvetica,sans-Serif" font-size="10.00">GEU::DatabaseQueryPopup</text>
</a>
</g>
</g>
<!-- Node1&#45;&gt;Node9 -->
<g id="edge8_Node000001_Node000009" class="edge">
<title>Node1&#45;&gt;Node9</title>
<g id="a_edge8_Node000001_Node000009"><a xlink:title=" ">
<path fill="none" stroke="#63b8ff" d="M66.73,-164.18C83.15,-153.89 108.06,-141.91 130.75,-134 133.92,-132.9 137.18,-131.83 140.49,-130.82"/>
<polygon fill="#63b8ff" stroke="#63b8ff" points="64.81,-161.26 58.53,-169.79 68.76,-167.04 64.81,-161.26"/>
</a>
</g>
</g>
<!-- Node1&#45;&gt;Node9 -->
<g id="edge9_Node000001_Node000009" class="edge">
<title>Node1&#45;&gt;Node9</title>
<g id="a_edge9_Node000001_Node000009"><a xlink:title=" ">
<path fill="none" stroke="#63b8ff" d="M95.62,-166.05C106.95,-161.15 119.14,-156.04 130.75,-152 150.95,-144.96 174.95,-139.55 191,-134.41"/>
<polygon fill="#63b8ff" stroke="#63b8ff" points="94.23,-162.84 86.45,-170.03 97.01,-169.26 94.23,-162.84"/>
</a>
</g>
</g>
<!-- Node10 -->
<g id="Node000010" class="node">
<title>Node10</title>
<g id="a_Node000010"><a xlink:href="../../d0/d03/class_g_e_u_1_1_file_dialog_popup.html" target="_top" xlink:title="ImGUIFileDialog popup wrapper for system file selection.">
<polygon fill="white" stroke="#666666" points="266.75,-96 153.25,-96 153.25,-76 266.75,-76 266.75,-96"/>
<text text-anchor="middle" x="210" y="-82.5" font-family="Helvetica,sans-Serif" font-size="10.00">GEU::FileDialogPopup</text>
</a>
</g>
</g>
<!-- Node1&#45;&gt;Node10 -->
<g id="edge10_Node000001_Node000010" class="edge">
<title>Node1&#45;&gt;Node10</title>
<g id="a_edge10_Node000001_Node000010"><a xlink:title=" ">
<path fill="none" stroke="#63b8ff" d="M63.99,-161.86C79.23,-144.45 103.98,-119.34 130.75,-105 137.65,-101.3 145.28,-98.32 152.98,-95.9"/>
<polygon fill="#63b8ff" stroke="#63b8ff" points="61.33,-159.58 57.53,-169.47 66.67,-164.11 61.33,-159.58"/>
</a>
</g>
</g>
<!-- Node11 -->
<g id="Node000011" class="node">
<title>Node11</title>
<g id="a_Node000011"><a xlink:href="../../db/d04/class_g_e_u_1_1_info_popup.html" target="_top" xlink:title="Simple informative popup: shows text and close button.">
<polygon fill="white" stroke="#666666" points="252.88,-58 167.12,-58 167.12,-38 252.88,-38 252.88,-58"/>
<text text-anchor="middle" x="210" y="-44.5" font-family="Helvetica,sans-Serif" font-size="10.00">GEU::InfoPopup</text>
</a>
</g>
</g>
<!-- Node1&#45;&gt;Node11 -->
<g id="edge11_Node000001_Node000011" class="edge">
<title>Node1&#45;&gt;Node11</title>
<g id="a_edge11_Node000001_Node000011"><a xlink:title=" ">
<path fill="none" stroke="#63b8ff" d="M57.6,-160.41C70.29,-134.51 95.62,-90.61 130.75,-67 141.43,-59.83 154.53,-55.36 166.95,-52.57"/>
<polygon fill="#63b8ff" stroke="#63b8ff" points="54.55,-158.68 53.45,-169.22 60.88,-161.67 54.55,-158.68"/>
</a>
</g>
</g>
<!-- Node12 -->
<g id="Node000012" class="node">
<title>Node12</title>
<g id="a_Node000012"><a xlink:href="../../d9/d07/class_g_e_u_1_1_p_cloud_classify_popup.html" target="_top" xlink:title="Custom point cloud classification popup: questions the user how to load the point cloud file.">
<polygon fill="white" stroke="#666666" points="278.38,-20 141.62,-20 141.62,0 278.38,0 278.38,-20"/>
<text text-anchor="middle" x="210" y="-6.5" font-family="Helvetica,sans-Serif" font-size="10.00">GEU::PCloudClassifyPopup</text>
</a>
</g>
</g>
<!-- Node1&#45;&gt;Node12 -->
<g id="edge12_Node000001_Node000012" class="edge">
<title>Node1&#45;&gt;Node12</title>
<g id="a_edge12_Node000001_Node000012"><a xlink:title=" ">
<path fill="none" stroke="#63b8ff" d="M53.82,-159.88C63.49,-126.73 86.91,-62.76 130.75,-29 135.18,-25.59 140.14,-22.78 145.35,-20.47"/>
<polygon fill="#63b8ff" stroke="#63b8ff" points="50.55,-158.56 51.27,-169.13 57.3,-160.42 50.55,-158.56"/>
</a>
</g>
</g>
</g>
</svg>
