<?xml version="1.0" encoding="UTF-8" standalone="no"?>
<!DOCTYPE svg PUBLIC "-//W3C//DTD SVG 1.1//EN"
 "http://www.w3.org/Graphics/SVG/1.1/DTD/svg11.dtd">
<!-- Generated by graphviz version 10.0.1 (20240210.2158)
 -->
<!-- Title: GEU::CloudExportDialogPopup Pages: 1 -->
<svg width="2203pt" height="695pt"
 viewBox="0.00 0.00 2202.50 695.46" xmlns="http://www.w3.org/2000/svg" xmlns:xlink="http://www.w3.org/1999/xlink">
<g id="graph0" class="graph" transform="scale(1 1) rotate(0) translate(4 691.46)">
<title>GEU::CloudExportDialogPopup</title>
<!-- Node1 -->
<g id="Node000001" class="node">
<title>Node1</title>
<g id="a_Node000001"><a xlink:title="ImGUIFileDialog popup wrapper for point cloud file selection.">
<polygon fill="#999999" stroke="#666666" points="1971.5,-51.46 1820.5,-51.46 1820.5,-31.46 1971.5,-31.46 1971.5,-51.46"/>
<text text-anchor="middle" x="1896" y="-37.96" font-family="Helvetica,sans-Serif" font-size="10.00">GEU::CloudExportDialogPopup</text>
</a>
</g>
</g>
<!-- Node2 -->
<g id="Node000002" class="node">
<title>Node2</title>
<g id="a_Node000002"><a xlink:href="../../df/ddd/class_g_e_u_1_1_i___g_u_i_popup.html" target="_top" xlink:title="ImGUI popups interface adapter class.">
<polygon fill="white" stroke="#666666" points="509.62,-51.46 414.88,-51.46 414.88,-31.46 509.62,-31.46 509.62,-51.46"/>
<text text-anchor="middle" x="462.25" y="-37.96" font-family="Helvetica,sans-Serif" font-size="10.00">GEU::I_GUIPopup</text>
</a>
</g>
</g>
<!-- Node2&#45;&gt;Node1 -->
<g id="edge1_Node000001_Node000002" class="edge">
<title>Node2&#45;&gt;Node1</title>
<g id="a_edge1_Node000001_Node000002"><a xlink:title=" ">
<path fill="none" stroke="#63b8ff" d="M521.33,-41.46C574.42,-41.46 655.12,-41.46 725.25,-41.46 725.25,-41.46 725.25,-41.46 1646.25,-41.46 1704.66,-41.46 1770.78,-41.46 1820.17,-41.46"/>
<polygon fill="#63b8ff" stroke="#63b8ff" points="521.62,-37.96 511.62,-41.46 521.62,-44.96 521.62,-37.96"/>
</a>
</g>
</g>
<!-- Node3 -->
<g id="Node000003" class="node">
<title>Node3</title>
<g id="a_Node000003"><a xlink:title=" ">
<polygon fill="white" stroke="#666666" points="190.5,-243.46 131,-243.46 131,-223.46 190.5,-223.46 190.5,-243.46"/>
<text text-anchor="middle" x="160.75" y="-229.96" font-family="Helvetica,sans-Serif" font-size="10.00">std::string</text>
</a>
</g>
</g>
<!-- Node3&#45;&gt;Node1 -->
<g id="edge46_Node000001_Node000003" class="edge">
<title>Node3&#45;&gt;Node1</title>
<g id="a_edge46_Node000001_Node000003"><a xlink:title=" ">
<path fill="none" stroke="#9a32cd" stroke-dasharray="5,2" d="M163.74,-211.65C168.52,-164.05 182.29,-53.02 208.5,-27.46 247.28,10.37 273.83,-3.46 328,-3.46 328,-3.46 328,-3.46 1646.25,-3.46 1719.43,-3.46 1803.33,-19.72 1852.61,-30.97"/>
<polygon fill="#9a32cd" stroke="#9a32cd" points="160.26,-211.24 162.79,-221.53 167.23,-211.91 160.26,-211.24"/>
</a>
</g>
<text text-anchor="middle" x="983.88" y="-5.96" font-family="Helvetica,sans-Serif" font-size="10.00" fill="grey"> _fileFormat</text>
</g>
<!-- Node3&#45;&gt;Node2 -->
<g id="edge2_Node000002_Node000003" class="edge">
<title>Node3&#45;&gt;Node2</title>
<g id="a_edge2_Node000002_Node000003"><a xlink:title=" ">
<path fill="none" stroke="#9a32cd" stroke-dasharray="5,2" d="M164.19,-211.83C169.56,-168.49 183.92,-73.42 208.5,-53.46 270.22,-3.33 371.01,-18.09 424.77,-31.04"/>
<polygon fill="#9a32cd" stroke="#9a32cd" points="160.71,-211.41 163.01,-221.75 167.67,-212.23 160.71,-211.41"/>
</a>
</g>
<text text-anchor="middle" x="230.25" y="-55.96" font-family="Helvetica,sans-Serif" font-size="10.00" fill="grey"> _popupID</text>
</g>
<!-- Node5 -->
<g id="Node000005" class="node">
<title>Node5</title>
<g id="a_Node000005"><a xlink:href="../../d4/dbf/class_g_e_u_1_1_point_cloud.html" target="_top" xlink:title=" ">
<polygon fill="white" stroke="#666666" points="1690.38,-290.46 1600.12,-290.46 1600.12,-270.46 1690.38,-270.46 1690.38,-290.46"/>
<text text-anchor="middle" x="1645.25" y="-276.96" font-family="Helvetica,sans-Serif" font-size="10.00">GEU::PointCloud</text>
</a>
</g>
</g>
<!-- Node3&#45;&gt;Node5 -->
<g id="edge26_Node000005_Node000003" class="edge">
<title>Node3&#45;&gt;Node5</title>
<g id="a_edge26_Node000005_Node000003"><a xlink:title=" ">
<path fill="none" stroke="#9a32cd" stroke-dasharray="5,2" d="M162.97,-255.32C166.59,-313.45 178.92,-470.24 208.5,-511.46 241.87,-557.96 270.76,-559.46 328,-559.46 328,-559.46 328,-559.46 727.25,-559.46 964.17,-559.46 1470.66,-452.11 1560,-394.46 1601.15,-367.9 1629.23,-313.75 1639.7,-290.94"/>
<polygon fill="#9a32cd" stroke="#9a32cd" points="166.47,-255.2 162.38,-245.42 159.48,-255.61 166.47,-255.2"/>
</a>
</g>
<text text-anchor="middle" x="864.12" y="-569.96" font-family="Helvetica,sans-Serif" font-size="10.00" fill="grey"> _prevViewMode</text>
<text text-anchor="middle" x="864.12" y="-557.96" font-family="Helvetica,sans-Serif" font-size="10.00" fill="grey">_viewMode</text>
</g>
<!-- Node6 -->
<g id="Node000006" class="node">
<title>Node6</title>
<g id="a_Node000006"><a xlink:href="../../db/d6c/class_g_e_u_1_1_model3_d.html" target="_top" xlink:title=" ">
<polygon fill="white" stroke="#666666" points="1407,-330.46 1325.75,-330.46 1325.75,-310.46 1407,-310.46 1407,-330.46"/>
<text text-anchor="middle" x="1366.38" y="-316.96" font-family="Helvetica,sans-Serif" font-size="10.00">GEU::Model3D</text>
</a>
</g>
</g>
<!-- Node3&#45;&gt;Node6 -->
<g id="edge6_Node000006_Node000003" class="edge">
<title>Node3&#45;&gt;Node6</title>
<g id="a_edge6_Node000006_Node000003"><a xlink:title=" ">
<path fill="none" stroke="#9a32cd" stroke-dasharray="5,2" d="M167.56,-212.11C174.26,-191.25 187.16,-159.88 208.5,-140.46 230.2,-120.7 241.17,-121.88 270,-116.46 378.55,-96.03 408.95,-105.36 518.5,-119.46 601.02,-130.08 1168.41,-271.2 1325.27,-310.41"/>
<polygon fill="#9a32cd" stroke="#9a32cd" points="164.25,-210.97 164.76,-221.56 170.96,-212.97 164.25,-210.97"/>
</a>
</g>
<text text-anchor="middle" x="726.25" y="-180.96" font-family="Helvetica,sans-Serif" font-size="10.00" fill="grey"> _name</text>
</g>
<!-- Node8 -->
<g id="Node000008" class="node">
<title>Node8</title>
<g id="a_Node000008"><a xlink:href="../../d5/def/class_g_e_u_1_1_material.html" target="_top" xlink:title=" ">
<polygon fill="white" stroke="#666666" points="1141.25,-345.46 1063.75,-345.46 1063.75,-325.46 1141.25,-325.46 1141.25,-345.46"/>
<text text-anchor="middle" x="1102.5" y="-331.96" font-family="Helvetica,sans-Serif" font-size="10.00">GEU::Material</text>
</a>
</g>
</g>
<!-- Node3&#45;&gt;Node8 -->
<g id="edge9_Node000008_Node000003" class="edge">
<title>Node3&#45;&gt;Node8</title>
<g id="a_edge9_Node000008_Node000003"><a xlink:title=" ">
<path fill="none" stroke="#9a32cd" stroke-dasharray="5,2" d="M165.04,-254.75C173.26,-299.62 199.4,-402.99 270,-442.46 409.75,-520.57 923.39,-385.4 1065.09,-345.84"/>
<polygon fill="#9a32cd" stroke="#9a32cd" points="168.51,-254.28 163.39,-245.01 161.6,-255.45 168.51,-254.28"/>
</a>
</g>
<text text-anchor="middle" x="591.75" y="-458.96" font-family="Helvetica,sans-Serif" font-size="10.00" fill="grey"> _name</text>
</g>
<!-- Node10 -->
<g id="Node000010" class="node">
<title>Node10</title>
<g id="a_Node000010"><a xlink:href="../../da/db2/class_g_e_u_1_1_shader_program.html" target="_top" xlink:title=" ">
<polygon fill="white" stroke="#666666" points="647,-345.46 536.5,-345.46 536.5,-325.46 647,-325.46 647,-345.46"/>
<text text-anchor="middle" x="591.75" y="-331.96" font-family="Helvetica,sans-Serif" font-size="10.00">GEU::ShaderProgram</text>
</a>
</g>
</g>
<!-- Node3&#45;&gt;Node10 -->
<g id="edge12_Node000010_Node000003" class="edge">
<title>Node3&#45;&gt;Node10</title>
<g id="a_edge12_Node000010_Node000003"><a xlink:title=" ">
<path fill="none" stroke="#9a32cd" stroke-dasharray="5,2" d="M171.94,-254.07C188.01,-283.89 222.38,-337.74 270,-358.46 370.34,-402.11 505.05,-365.44 562.69,-345.85"/>
<polygon fill="#9a32cd" stroke="#9a32cd" points="175.09,-252.55 167.38,-245.29 168.88,-255.77 175.09,-252.55"/>
</a>
</g>
<text text-anchor="middle" x="329" y="-428.96" font-family="Helvetica,sans-Serif" font-size="10.00" fill="grey"> MODULE_FILE_CHAR_1</text>
<text text-anchor="middle" x="329" y="-416.96" font-family="Helvetica,sans-Serif" font-size="10.00" fill="grey">MODULE_FILE_CHAR_2</text>
<text text-anchor="middle" x="329" y="-404.96" font-family="Helvetica,sans-Serif" font-size="10.00" fill="grey">MODULE_HEADER</text>
<text text-anchor="middle" x="329" y="-392.96" font-family="Helvetica,sans-Serif" font-size="10.00" fill="grey">_logString</text>
<text text-anchor="middle" x="329" y="-380.96" font-family="Helvetica,sans-Serif" font-size="10.00" fill="grey">shaderPath</text>
</g>
<!-- Node11 -->
<g id="Node000011" class="node">
<title>Node11</title>
<g id="a_Node000011"><a xlink:title=" ">
<polygon fill="white" stroke="#666666" points="380.12,-311.46 277.88,-311.46 277.88,-267.46 380.12,-267.46 380.12,-311.46"/>
<text text-anchor="start" x="285.88" y="-297.96" font-family="Helvetica,sans-Serif" font-size="10.00">std::unordered_map</text>
<text text-anchor="start" x="285.88" y="-285.96" font-family="Helvetica,sans-Serif" font-size="10.00">&lt; std::string, std::</text>
<text text-anchor="middle" x="329" y="-273.96" font-family="Helvetica,sans-Serif" font-size="10.00">string &gt;</text>
</a>
</g>
</g>
<!-- Node3&#45;&gt;Node11 -->
<g id="edge14_Node000011_Node000003" class="edge">
<title>Node3&#45;&gt;Node11</title>
<g id="a_edge14_Node000011_Node000003"><a xlink:title=" ">
<path fill="none" stroke="#9a32cd" stroke-dasharray="5,2" d="M201.7,-247.15C204,-247.93 206.28,-248.7 208.5,-249.46 231.09,-257.1 256.11,-265.49 277.39,-272.6"/>
<polygon fill="#9a32cd" stroke="#9a32cd" points="202.94,-243.88 192.35,-243.96 200.69,-250.5 202.94,-243.88"/>
</a>
</g>
<text text-anchor="middle" x="230.25" y="-278.96" font-family="Helvetica,sans-Serif" font-size="10.00" fill="grey"> elements</text>
<text text-anchor="middle" x="230.25" y="-266.96" font-family="Helvetica,sans-Serif" font-size="10.00" fill="grey">keys</text>
</g>
<!-- Node13 -->
<g id="Node000013" class="node">
<title>Node13</title>
<g id="a_Node000013"><a xlink:title=" ">
<polygon fill="white" stroke="#666666" points="382.38,-249.46 275.62,-249.46 275.62,-217.46 382.38,-217.46 382.38,-249.46"/>
<text text-anchor="start" x="283.62" y="-235.96" font-family="Helvetica,sans-Serif" font-size="10.00">std::unordered_map</text>
<text text-anchor="middle" x="329" y="-223.96" font-family="Helvetica,sans-Serif" font-size="10.00">&lt; std::string, GLint &gt;</text>
</a>
</g>
</g>
<!-- Node3&#45;&gt;Node13 -->
<g id="edge17_Node000013_Node000003" class="edge">
<title>Node3&#45;&gt;Node13</title>
<g id="a_edge17_Node000013_Node000003"><a xlink:title=" ">
<path fill="none" stroke="#9a32cd" stroke-dasharray="5,2" d="M201.98,-233.46C223.98,-233.46 251.5,-233.46 275.21,-233.46"/>
<polygon fill="#9a32cd" stroke="#9a32cd" points="202.22,-229.96 192.22,-233.46 202.22,-236.96 202.22,-229.96"/>
</a>
</g>
<text text-anchor="middle" x="230.25" y="-235.96" font-family="Helvetica,sans-Serif" font-size="10.00" fill="grey"> keys</text>
</g>
<!-- Node14 -->
<g id="Node000014" class="node">
<title>Node14</title>
<g id="a_Node000014"><a xlink:href="../../dc/d36/class_g_e_u_1_1_texture.html" target="_top" xlink:title=" ">
<polygon fill="white" stroke="#666666" points="629.38,-193.46 554.12,-193.46 554.12,-173.46 629.38,-173.46 629.38,-193.46"/>
<text text-anchor="middle" x="591.75" y="-179.96" font-family="Helvetica,sans-Serif" font-size="10.00">GEU::Texture</text>
</a>
</g>
</g>
<!-- Node3&#45;&gt;Node14 -->
<g id="edge19_Node000014_Node000003" class="edge">
<title>Node3&#45;&gt;Node14</title>
<g id="a_edge19_Node000014_Node000003"><a xlink:title=" ">
<path fill="none" stroke="#9a32cd" stroke-dasharray="5,2" d="M175.76,-213.75C194.19,-189.72 229.08,-150.35 270,-134.46 377.12,-92.86 517.2,-148.67 569.68,-173.06"/>
<polygon fill="#9a32cd" stroke="#9a32cd" points="172.95,-211.67 169.8,-221.78 178.57,-215.84 172.95,-211.67"/>
</a>
</g>
<text text-anchor="middle" x="329" y="-148.96" font-family="Helvetica,sans-Serif" font-size="10.00" fill="grey"> TEXTURE_LAYER_IDS</text>
<text text-anchor="middle" x="329" y="-136.96" font-family="Helvetica,sans-Serif" font-size="10.00" fill="grey">_filename</text>
</g>
<!-- Node15 -->
<g id="Node000015" class="node">
<title>Node15</title>
<g id="a_Node000015"><a xlink:title=" ">
<polygon fill="white" stroke="#666666" points="388,-199.46 270,-199.46 270,-167.46 388,-167.46 388,-199.46"/>
<text text-anchor="start" x="278" y="-185.96" font-family="Helvetica,sans-Serif" font-size="10.00">std::unordered_map</text>
<text text-anchor="middle" x="329" y="-173.96" font-family="Helvetica,sans-Serif" font-size="10.00">&lt; uint16_t, std::string &gt;</text>
</a>
</g>
</g>
<!-- Node3&#45;&gt;Node15 -->
<g id="edge21_Node000015_Node000003" class="edge">
<title>Node3&#45;&gt;Node15</title>
<g id="a_edge21_Node000015_Node000003"><a xlink:title=" ">
<path fill="none" stroke="#9a32cd" stroke-dasharray="5,2" d="M201.66,-219.64C203.97,-218.89 206.26,-218.16 208.5,-217.46 228.36,-211.24 250.23,-204.87 269.77,-199.36"/>
<polygon fill="#9a32cd" stroke="#9a32cd" points="200.67,-216.28 192.29,-222.76 202.88,-222.92 200.67,-216.28"/>
</a>
</g>
<text text-anchor="middle" x="230.25" y="-219.96" font-family="Helvetica,sans-Serif" font-size="10.00" fill="grey"> elements</text>
</g>
<!-- Node16 -->
<g id="Node000016" class="node">
<title>Node16</title>
<g id="a_Node000016"><a xlink:title=" ">
<polygon fill="white" stroke="#666666" points="787.5,-525.46 665,-525.46 665,-505.46 787.5,-505.46 787.5,-525.46"/>
<text text-anchor="middle" x="726.25" y="-511.96" font-family="Helvetica,sans-Serif" font-size="10.00">std::vector&lt; std::string &gt;</text>
</a>
</g>
</g>
<!-- Node3&#45;&gt;Node16 -->
<g id="edge23_Node000016_Node000003" class="edge">
<title>Node3&#45;&gt;Node16</title>
<g id="a_edge23_Node000016_Node000003"><a xlink:title=" ">
<path fill="none" stroke="#9a32cd" stroke-dasharray="5,2" d="M162.42,-254.91C164.65,-310.47 173.75,-456.89 208.5,-487.46 274.69,-545.68 543.08,-531.09 664.76,-521.11"/>
<polygon fill="#9a32cd" stroke="#9a32cd" points="165.93,-255.05 162.07,-245.19 158.93,-255.31 165.93,-255.05"/>
</a>
</g>
<text text-anchor="middle" x="329" y="-530.96" font-family="Helvetica,sans-Serif" font-size="10.00" fill="grey"> elements</text>
</g>
<!-- Node4 -->
<g id="Node000004" class="node">
<title>Node4</title>
<g id="a_Node000004"><a xlink:title=" ">
<polygon fill="white" stroke="#666666" points="94,-249.46 0,-249.46 0,-217.46 94,-217.46 94,-249.46"/>
<text text-anchor="start" x="8" y="-235.96" font-family="Helvetica,sans-Serif" font-size="10.00">std::basic_string&lt;</text>
<text text-anchor="middle" x="47" y="-223.96" font-family="Helvetica,sans-Serif" font-size="10.00"> Char &gt;</text>
</a>
</g>
</g>
<!-- Node4&#45;&gt;Node3 -->
<g id="edge3_Node000003_Node000004" class="edge">
<title>Node4&#45;&gt;Node3</title>
<g id="a_edge3_Node000003_Node000004"><a xlink:title=" ">
<path fill="none" stroke="#63b8ff" d="M105.71,-233.46C114.32,-233.46 122.87,-233.46 130.55,-233.46"/>
<polygon fill="#63b8ff" stroke="#63b8ff" points="105.93,-229.96 95.93,-233.46 105.93,-236.96 105.93,-229.96"/>
</a>
</g>
</g>
<!-- Node5&#45;&gt;Node1 -->
<g id="edge4_Node000001_Node000005" class="edge">
<title>Node5&#45;&gt;Node1</title>
<g id="a_edge4_Node000001_Node000005"><a xlink:title=" ">
<path fill="none" stroke="#9a32cd" stroke-dasharray="5,2" d="M1665.15,-262.29C1714.49,-214.89 1845.98,-88.55 1884.35,-51.69"/>
<polygon fill="#9a32cd" stroke="#9a32cd" points="1662.82,-259.69 1658.03,-269.14 1667.67,-264.73 1662.82,-259.69"/>
</a>
</g>
<text text-anchor="middle" x="1766.5" y="-198.96" font-family="Helvetica,sans-Serif" font-size="10.00" fill="grey"> _sceneTarget</text>
</g>
<!-- Node25 -->
<g id="Node000025" class="node">
<title>Node25</title>
<g id="a_Node000025"><a xlink:href="../../dd/dcf/struct_g_e_u_1_1_point_cloud_1_1_meshlet.html" target="_top" xlink:title=" ">
<polygon fill="white" stroke="#666666" points="1961.38,-387.46 1830.62,-387.46 1830.62,-367.46 1961.38,-367.46 1961.38,-387.46"/>
<text text-anchor="middle" x="1896" y="-373.96" font-family="Helvetica,sans-Serif" font-size="10.00">GEU::PointCloud::Meshlet</text>
</a>
</g>
</g>
<!-- Node5&#45;&gt;Node25 -->
<g id="edge35_Node000025_Node000005" class="edge">
<title>Node5&#45;&gt;Node25</title>
<g id="a_edge35_Node000025_Node000005"><a xlink:title=" ">
<path fill="none" stroke="#9a32cd" stroke-dasharray="5,2" d="M1666.89,-297.92C1683.19,-310.88 1707.03,-328.03 1730.5,-338.46 1750.22,-347.21 1801.53,-358.77 1841.65,-367.03"/>
<polygon fill="#9a32cd" stroke="#9a32cd" points="1669.36,-295.42 1659.39,-291.82 1664.94,-300.85 1669.36,-295.42"/>
</a>
</g>
<text text-anchor="middle" x="1766.5" y="-359.96" font-family="Helvetica,sans-Serif" font-size="10.00" fill="grey"> parent</text>
</g>
<!-- Node34 -->
<g id="Node000034" class="node">
<title>Node34</title>
<g id="a_Node000034"><a xlink:title=" ">
<polygon fill="white" stroke="#666666" points="1951.25,-243.46 1840.75,-243.46 1840.75,-211.46 1951.25,-211.46 1951.25,-243.46"/>
<text text-anchor="start" x="1848.75" y="-229.96" font-family="Helvetica,sans-Serif" font-size="10.00">std::unique_ptr&lt; GEU</text>
<text text-anchor="middle" x="1896" y="-217.96" font-family="Helvetica,sans-Serif" font-size="10.00">::PointCloud &gt;</text>
</a>
</g>
</g>
<!-- Node5&#45;&gt;Node34 -->
<g id="edge45_Node000034_Node000005" class="edge">
<title>Node5&#45;&gt;Node34</title>
<g id="a_edge45_Node000034_Node000005"><a xlink:title=" ">
<path fill="none" stroke="#9a32cd" stroke-dasharray="5,2" d="M1685.91,-266.36C1699.87,-261.77 1715.76,-256.96 1730.5,-253.46 1766.79,-244.83 1808.27,-238.29 1840.51,-233.93"/>
<polygon fill="#9a32cd" stroke="#9a32cd" points="1684.98,-262.98 1676.62,-269.49 1687.21,-269.62 1684.98,-262.98"/>
</a>
</g>
<text text-anchor="middle" x="1766.5" y="-255.96" font-family="Helvetica,sans-Serif" font-size="10.00" fill="grey"> ptr</text>
</g>
<!-- Node6&#45;&gt;Node5 -->
<g id="edge5_Node000005_Node000006" class="edge">
<title>Node6&#45;&gt;Node5</title>
<g id="a_edge5_Node000005_Node000006"><a xlink:title=" ">
<path fill="none" stroke="#63b8ff" d="M1418.32,-314.51C1457.21,-309.81 1512.07,-302.83 1560,-295.46 1572.92,-293.47 1586.92,-291.07 1599.72,-288.79"/>
<polygon fill="#63b8ff" stroke="#63b8ff" points="1418.31,-310.98 1408.8,-315.65 1419.14,-317.93 1418.31,-310.98"/>
</a>
</g>
</g>
<!-- Node7 -->
<g id="Node000007" class="node">
<title>Node7</title>
<g id="a_Node000007"><a xlink:href="../../dc/d47/class_a_a_b_b.html" target="_top" xlink:title=" ">
<polygon fill="white" stroke="#666666" points="1124,-390.46 1081,-390.46 1081,-370.46 1124,-370.46 1124,-390.46"/>
<text text-anchor="middle" x="1102.5" y="-376.96" font-family="Helvetica,sans-Serif" font-size="10.00">AABB</text>
</a>
</g>
</g>
<!-- Node7&#45;&gt;Node6 -->
<g id="edge7_Node000006_Node000007" class="edge">
<title>Node7&#45;&gt;Node6</title>
<g id="a_edge7_Node000006_Node000007"><a xlink:title=" ">
<path fill="none" stroke="#9a32cd" stroke-dasharray="5,2" d="M1135.24,-372.11C1148.44,-368.7 1163.94,-364.79 1178,-361.46 1228.71,-349.45 1287.45,-336.8 1325.44,-328.78"/>
<polygon fill="#9a32cd" stroke="#9a32cd" points="1134.59,-368.66 1125.79,-374.56 1136.35,-375.43 1134.59,-368.66"/>
</a>
</g>
<text text-anchor="middle" x="1219.62" y="-363.96" font-family="Helvetica,sans-Serif" font-size="10.00" fill="grey"> _aabb</text>
</g>
<!-- Node7&#45;&gt;Node25 -->
<g id="edge34_Node000025_Node000007" class="edge">
<title>Node7&#45;&gt;Node25</title>
<g id="a_edge34_Node000025_Node000007"><a xlink:title=" ">
<path fill="none" stroke="#9a32cd" stroke-dasharray="5,2" d="M1135.74,-380.33C1254.55,-379.88 1669.35,-378.31 1830.39,-377.7"/>
<polygon fill="#9a32cd" stroke="#9a32cd" points="1135.76,-376.83 1125.78,-380.37 1135.79,-383.83 1135.76,-376.83"/>
</a>
</g>
<text text-anchor="middle" x="1515.75" y="-380.96" font-family="Helvetica,sans-Serif" font-size="10.00" fill="grey"> aabb</text>
</g>
<!-- Node8&#45;&gt;Node6 -->
<g id="edge8_Node000006_Node000008" class="edge">
<title>Node8&#45;&gt;Node6</title>
<g id="a_edge8_Node000006_Node000008"><a xlink:title=" ">
<path fill="none" stroke="#9a32cd" stroke-dasharray="5,2" d="M1152.89,-328.07C1161.25,-327.04 1169.86,-326.11 1178,-325.46 1228.77,-321.38 1287.49,-320.42 1325.47,-320.29"/>
<polygon fill="#9a32cd" stroke="#9a32cd" points="1152.66,-324.57 1143.2,-329.34 1153.57,-331.51 1152.66,-324.57"/>
</a>
</g>
<text text-anchor="middle" x="1219.62" y="-327.96" font-family="Helvetica,sans-Serif" font-size="10.00" fill="grey"> _material</text>
</g>
<!-- Node9 -->
<g id="Node000009" class="node">
<title>Node9</title>
<g id="a_Node000009"><a xlink:href="../../d0/def/class_g_e_u_1_1_rendering_shader.html" target="_top" xlink:title=" ">
<polygon fill="white" stroke="#666666" points="922.75,-345.46 805.5,-345.46 805.5,-325.46 922.75,-325.46 922.75,-345.46"/>
<text text-anchor="middle" x="864.12" y="-331.96" font-family="Helvetica,sans-Serif" font-size="10.00">GEU::RenderingShader</text>
</a>
</g>
</g>
<!-- Node9&#45;&gt;Node8 -->
<g id="edge10_Node000008_Node000009" class="edge">
<title>Node9&#45;&gt;Node8</title>
<g id="a_edge10_Node000008_Node000009"><a xlink:title=" ">
<path fill="none" stroke="#9a32cd" stroke-dasharray="5,2" d="M934.27,-335.46C976.42,-335.46 1028.69,-335.46 1063.46,-335.46"/>
<polygon fill="#9a32cd" stroke="#9a32cd" points="934.46,-331.96 924.46,-335.46 934.46,-338.96 934.46,-331.96"/>
</a>
</g>
<text text-anchor="middle" x="983.88" y="-337.96" font-family="Helvetica,sans-Serif" font-size="10.00" fill="grey"> _associatedShader</text>
</g>
<!-- Node10&#45;&gt;Node9 -->
<g id="edge11_Node000009_Node000010" class="edge">
<title>Node10&#45;&gt;Node9</title>
<g id="a_edge11_Node000009_Node000010"><a xlink:title=" ">
<path fill="none" stroke="#63b8ff" d="M658.83,-335.46C703.62,-335.46 762.26,-335.46 805.22,-335.46"/>
<polygon fill="#63b8ff" stroke="#63b8ff" points="658.98,-331.96 648.98,-335.46 658.98,-338.96 658.98,-331.96"/>
</a>
</g>
</g>
<!-- Node11&#45;&gt;Node10 -->
<g id="edge13_Node000010_Node000011" class="edge">
<title>Node11&#45;&gt;Node10</title>
<g id="a_edge13_Node000010_Node000011"><a xlink:title=" ">
<path fill="none" stroke="#9a32cd" stroke-dasharray="5,2" d="M391.58,-298.92C428.46,-304.75 476.24,-312.6 518.5,-320.46 526.06,-321.86 534.04,-323.43 541.84,-325.01"/>
<polygon fill="#9a32cd" stroke="#9a32cd" points="392.42,-295.51 382,-297.41 391.33,-302.42 392.42,-295.51"/>
</a>
</g>
<text text-anchor="middle" x="462.25" y="-322.96" font-family="Helvetica,sans-Serif" font-size="10.00" fill="grey"> _moduleCode</text>
</g>
<!-- Node12 -->
<g id="Node000012" class="node">
<title>Node12</title>
<g id="a_Node000012"><a xlink:title=" ">
<polygon fill="white" stroke="#666666" points="382.75,-349.46 275.25,-349.46 275.25,-329.46 382.75,-329.46 382.75,-349.46"/>
<text text-anchor="middle" x="329" y="-335.96" font-family="Helvetica,sans-Serif" font-size="10.00">std::vector&lt; GLuint &gt;</text>
</a>
</g>
</g>
<!-- Node12&#45;&gt;Node10 -->
<g id="edge15_Node000010_Node000012" class="edge">
<title>Node12&#45;&gt;Node10</title>
<g id="a_edge15_Node000010_Node000012"><a xlink:title=" ">
<path fill="none" stroke="#9a32cd" stroke-dasharray="5,2" d="M394.44,-338.47C438.06,-337.8 495.07,-336.92 536.4,-336.29"/>
<polygon fill="#9a32cd" stroke="#9a32cd" points="394.54,-334.97 384.59,-338.62 394.65,-341.96 394.54,-334.97"/>
</a>
</g>
<text text-anchor="middle" x="462.25" y="-339.96" font-family="Helvetica,sans-Serif" font-size="10.00" fill="grey"> _activeSubroutineUniform</text>
</g>
<!-- Node13&#45;&gt;Node10 -->
<g id="edge16_Node000010_Node000013" class="edge">
<title>Node13&#45;&gt;Node10</title>
<g id="a_edge16_Node000010_Node000013"><a xlink:title=" ">
<path fill="none" stroke="#9a32cd" stroke-dasharray="5,2" d="M394.11,-238.51C431.88,-243.45 479.7,-253.21 518.5,-272.46 545.04,-285.62 569.6,-310.94 582.11,-325.14"/>
<polygon fill="#9a32cd" stroke="#9a32cd" points="394.59,-235.04 384.24,-237.31 393.74,-241.99 394.59,-235.04"/>
</a>
</g>
<text text-anchor="middle" x="462.25" y="-286.96" font-family="Helvetica,sans-Serif" font-size="10.00" fill="grey"> subroutineLocation</text>
<text text-anchor="middle" x="462.25" y="-274.96" font-family="Helvetica,sans-Serif" font-size="10.00" fill="grey">uniformLocation</text>
</g>
<!-- Node14&#45;&gt;Node8 -->
<g id="edge18_Node000008_Node000014" class="edge">
<title>Node14&#45;&gt;Node8</title>
<g id="a_edge18_Node000008_Node000014"><a xlink:title=" ">
<path fill="none" stroke="#9a32cd" stroke-dasharray="5,2" d="M638.72,-197.19C739.32,-227.25 977.13,-298.3 1066.62,-325.04"/>
<polygon fill="#9a32cd" stroke="#9a32cd" points="639.75,-193.85 629.17,-194.34 637.75,-200.55 639.75,-193.85"/>
</a>
</g>
<text text-anchor="middle" x="864.12" y="-283.96" font-family="Helvetica,sans-Serif" font-size="10.00" fill="grey"> _texture</text>
</g>
<!-- Node15&#45;&gt;Node14 -->
<g id="edge20_Node000014_Node000015" class="edge">
<title>Node15&#45;&gt;Node14</title>
<g id="a_edge20_Node000014_Node000015"><a xlink:title=" ">
<path fill="none" stroke="#9a32cd" stroke-dasharray="5,2" d="M399.47,-183.46C449,-183.46 513.64,-183.46 553.66,-183.46"/>
<polygon fill="#9a32cd" stroke="#9a32cd" points="399.71,-179.96 389.71,-183.46 399.71,-186.96 399.71,-179.96"/>
</a>
</g>
<text text-anchor="middle" x="462.25" y="-185.96" font-family="Helvetica,sans-Serif" font-size="10.00" fill="grey"> SHADER_VARIABLE</text>
</g>
<!-- Node16&#45;&gt;Node8 -->
<g id="edge22_Node000008_Node000016" class="edge">
<title>Node16&#45;&gt;Node8</title>
<g id="a_edge22_Node000008_Node000016"><a xlink:title=" ">
<path fill="none" stroke="#9a32cd" stroke-dasharray="5,2" d="M798.96,-516.47C877.2,-515.97 995.51,-509.96 1027,-479.46 1065.11,-442.55 1013.09,-403.83 1045,-361.46 1050.07,-354.73 1057.29,-349.69 1064.89,-345.93"/>
<polygon fill="#9a32cd" stroke="#9a32cd" points="799.23,-512.97 789.24,-516.5 799.25,-519.97 799.23,-512.97"/>
</a>
</g>
<text text-anchor="middle" x="864.12" y="-517.96" font-family="Helvetica,sans-Serif" font-size="10.00" fill="grey"> _enabledSubroutines</text>
</g>
<!-- Node17 -->
<g id="Node000017" class="node">
<title>Node17</title>
<g id="a_Node000017"><a xlink:title=" ">
<polygon fill="white" stroke="#666666" points="1406.62,-287.46 1326.12,-287.46 1326.12,-267.46 1406.62,-267.46 1406.62,-287.46"/>
<text text-anchor="middle" x="1366.38" y="-273.96" font-family="Helvetica,sans-Serif" font-size="10.00">std::array&lt; T &gt;</text>
</a>
</g>
</g>
<!-- Node17&#45;&gt;Node5 -->
<g id="edge24_Node000005_Node000017" class="edge">
<title>Node17&#45;&gt;Node5</title>
<g id="a_edge24_Node000005_Node000017"><a xlink:title=" ">
<path fill="none" stroke="#9a32cd" stroke-dasharray="5,2" d="M1418.36,-278.01C1470.48,-278.57 1550.58,-279.44 1600.08,-279.98"/>
<polygon fill="#9a32cd" stroke="#9a32cd" points="1418.6,-274.51 1408.56,-277.9 1418.52,-281.51 1418.6,-274.51"/>
</a>
</g>
<text text-anchor="middle" x="1515.75" y="-281.96" font-family="Helvetica,sans-Serif" font-size="10.00" fill="grey"> _viewModes</text>
</g>
<!-- Node18 -->
<g id="Node000018" class="node">
<title>Node18</title>
<g id="a_Node000018"><a xlink:title=" ">
<polygon fill="white" stroke="#666666" points="1116.9,-229.46 1088.1,-229.46 1088.1,-209.46 1116.9,-209.46 1116.9,-229.46"/>
<text text-anchor="middle" x="1102.5" y="-215.96" font-family="Helvetica,sans-Serif" font-size="10.00">T</text>
</a>
</g>
</g>
<!-- Node18&#45;&gt;Node17 -->
<g id="edge25_Node000017_Node000018" class="edge">
<title>Node18&#45;&gt;Node17</title>
<g id="a_edge25_Node000017_Node000018"><a xlink:title=" ">
<path fill="none" stroke="#9a32cd" stroke-dasharray="5,2" d="M1128.4,-215.34C1161.07,-211.21 1219.18,-208.39 1261.25,-231.46 1272.94,-237.87 1268.16,-248.05 1279.25,-255.46 1292.98,-264.63 1310.28,-269.97 1325.77,-273.09"/>
<polygon fill="#9a32cd" stroke="#9a32cd" points="1128.12,-211.84 1118.71,-216.72 1129.11,-218.77 1128.12,-211.84"/>
</a>
</g>
<text text-anchor="middle" x="1219.62" y="-233.96" font-family="Helvetica,sans-Serif" font-size="10.00" fill="grey"> elements</text>
</g>
<!-- Node19 -->
<g id="Node000019" class="node">
<title>Node19</title>
<g id="a_Node000019"><a xlink:href="../../d2/d21/struct_g_e_u_1_1_g_p_u_resources.html" target="_top" xlink:title=" ">
<polygon fill="white" stroke="#666666" points="1421.62,-246.46 1311.12,-246.46 1311.12,-226.46 1421.62,-226.46 1421.62,-246.46"/>
<text text-anchor="middle" x="1366.38" y="-232.96" font-family="Helvetica,sans-Serif" font-size="10.00">GEU::GPUResources</text>
</a>
</g>
</g>
<!-- Node19&#45;&gt;Node5 -->
<g id="edge27_Node000005_Node000019" class="edge">
<title>Node19&#45;&gt;Node5</title>
<g id="a_edge27_Node000005_Node000019"><a xlink:title=" ">
<path fill="none" stroke="#9a32cd" stroke-dasharray="5,2" d="M1433.16,-244.07C1470.48,-248.71 1517.97,-255.14 1560,-262.46 1572.97,-264.71 1586.97,-267.55 1599.78,-270.29"/>
<polygon fill="#9a32cd" stroke="#9a32cd" points="1433.78,-240.62 1423.43,-242.88 1432.93,-247.57 1433.78,-240.62"/>
</a>
</g>
<text text-anchor="middle" x="1515.75" y="-264.96" font-family="Helvetica,sans-Serif" font-size="10.00" fill="grey"> _GPUResources</text>
</g>
<!-- Node20 -->
<g id="Node000020" class="node">
<title>Node20</title>
<g id="a_Node000020"><a xlink:title=" ">
<polygon fill="white" stroke="#666666" points="1154.75,-129.46 1050.25,-129.46 1050.25,-85.46 1154.75,-85.46 1154.75,-129.46"/>
<text text-anchor="start" x="1058.25" y="-115.96" font-family="Helvetica,sans-Serif" font-size="10.00">std::array&lt; size_t,</text>
<text text-anchor="start" x="1058.25" y="-103.96" font-family="Helvetica,sans-Serif" font-size="10.00">(uint8_t) SSBOSlots</text>
<text text-anchor="middle" x="1102.5" y="-91.96" font-family="Helvetica,sans-Serif" font-size="10.00">::Total &gt;</text>
</a>
</g>
</g>
<!-- Node20&#45;&gt;Node19 -->
<g id="edge28_Node000019_Node000020" class="edge">
<title>Node20&#45;&gt;Node19</title>
<g id="a_edge28_Node000019_Node000020"><a xlink:title=" ">
<path fill="none" stroke="#9a32cd" stroke-dasharray="5,2" d="M1166.22,-113.4C1198.53,-119.57 1236.28,-132.09 1261.25,-157.46 1280.78,-177.29 1258.85,-198.51 1279.25,-217.46 1288,-225.58 1299.42,-230.52 1311.06,-233.46"/>
<polygon fill="#9a32cd" stroke="#9a32cd" points="1166.99,-109.98 1156.54,-111.72 1165.8,-116.88 1166.99,-109.98"/>
</a>
</g>
<text text-anchor="middle" x="1219.62" y="-159.96" font-family="Helvetica,sans-Serif" font-size="10.00" fill="grey"> _memoryReserved</text>
</g>
<!-- Node21 -->
<g id="Node000021" class="node">
<title>Node21</title>
<g id="a_Node000021"><a xlink:title=" ">
<polygon fill="white" stroke="#666666" points="1154.75,-191.46 1050.25,-191.46 1050.25,-147.46 1154.75,-147.46 1154.75,-191.46"/>
<text text-anchor="start" x="1058.25" y="-177.96" font-family="Helvetica,sans-Serif" font-size="10.00">std::array&lt; GLuint,</text>
<text text-anchor="start" x="1058.25" y="-165.96" font-family="Helvetica,sans-Serif" font-size="10.00">(uint8_t) SSBOSlots</text>
<text text-anchor="middle" x="1102.5" y="-153.96" font-family="Helvetica,sans-Serif" font-size="10.00">::Total &gt;</text>
</a>
</g>
</g>
<!-- Node21&#45;&gt;Node19 -->
<g id="edge29_Node000019_Node000021" class="edge">
<title>Node21&#45;&gt;Node19</title>
<g id="a_edge29_Node000019_Node000021"><a xlink:title=" ">
<path fill="none" stroke="#9a32cd" stroke-dasharray="5,2" d="M1166.29,-171.17C1196.57,-174.28 1232.46,-181.47 1261.25,-197.46 1271.71,-203.26 1268.92,-211.44 1279.25,-217.46 1288.91,-223.08 1300.06,-227.05 1311.07,-229.84"/>
<polygon fill="#9a32cd" stroke="#9a32cd" points="1166.77,-167.7 1156.5,-170.31 1166.15,-174.68 1166.77,-167.7"/>
</a>
</g>
<text text-anchor="middle" x="1219.62" y="-199.96" font-family="Helvetica,sans-Serif" font-size="10.00" fill="grey"> _ssboIds</text>
</g>
<!-- Node22 -->
<g id="Node000022" class="node">
<title>Node22</title>
<g id="a_Node000022"><a xlink:title=" ">
<polygon fill="white" stroke="#666666" points="1415.62,-208.46 1317.12,-208.46 1317.12,-188.46 1415.62,-188.46 1415.62,-208.46"/>
<text text-anchor="middle" x="1366.38" y="-194.96" font-family="Helvetica,sans-Serif" font-size="10.00">std::vector&lt; vec3 &gt;</text>
</a>
</g>
</g>
<!-- Node22&#45;&gt;Node5 -->
<g id="edge30_Node000005_Node000022" class="edge">
<title>Node22&#45;&gt;Node5</title>
<g id="a_edge30_Node000005_Node000022"><a xlink:title=" ">
<path fill="none" stroke="#9a32cd" stroke-dasharray="5,2" d="M1427.41,-198.64C1466.33,-200.5 1517.52,-206.3 1560,-222.46 1589.05,-233.5 1617.75,-256.55 1633.01,-270.03"/>
<polygon fill="#9a32cd" stroke="#9a32cd" points="1427.65,-195.15 1417.52,-198.25 1427.37,-202.14 1427.65,-195.15"/>
</a>
</g>
<text text-anchor="middle" x="1515.75" y="-236.96" font-family="Helvetica,sans-Serif" font-size="10.00" fill="grey"> _normals</text>
<text text-anchor="middle" x="1515.75" y="-224.96" font-family="Helvetica,sans-Serif" font-size="10.00" fill="grey">_position</text>
</g>
<!-- Node23 -->
<g id="Node000023" class="node">
<title>Node23</title>
<g id="a_Node000023"><a xlink:title=" ">
<polygon fill="white" stroke="#666666" points="1425.38,-170.46 1307.38,-170.46 1307.38,-150.46 1425.38,-150.46 1425.38,-170.46"/>
<text text-anchor="middle" x="1366.38" y="-156.96" font-family="Helvetica,sans-Serif" font-size="10.00">std::vector&lt; unsigned &gt;</text>
</a>
</g>
</g>
<!-- Node23&#45;&gt;Node5 -->
<g id="edge31_Node000005_Node000023" class="edge">
<title>Node23&#45;&gt;Node5</title>
<g id="a_edge31_Node000005_Node000023"><a xlink:title=" ">
<path fill="none" stroke="#9a32cd" stroke-dasharray="5,2" d="M1436.83,-158.36C1475.13,-159.94 1522.41,-166.55 1560,-186.46 1597.57,-206.36 1626.58,-250.08 1638.43,-270.09"/>
<polygon fill="#9a32cd" stroke="#9a32cd" points="1437.37,-154.88 1427.27,-158.08 1437.17,-161.87 1437.37,-154.88"/>
</a>
</g>
<text text-anchor="middle" x="1515.75" y="-188.96" font-family="Helvetica,sans-Serif" font-size="10.00" fill="grey"> _rgbColor</text>
</g>
<!-- Node24 -->
<g id="Node000024" class="node">
<title>Node24</title>
<g id="a_Node000024"><a xlink:title=" ">
<polygon fill="white" stroke="#666666" points="2194.5,-353.46 2050.25,-353.46 2050.25,-321.46 2194.5,-321.46 2194.5,-353.46"/>
<text text-anchor="start" x="2058.25" y="-339.96" font-family="Helvetica,sans-Serif" font-size="10.00">std::vector&lt; GEU::PointCloud</text>
<text text-anchor="middle" x="2122.38" y="-327.96" font-family="Helvetica,sans-Serif" font-size="10.00">::Meshlet &gt;</text>
</a>
</g>
</g>
<!-- Node24&#45;&gt;Node5 -->
<g id="edge32_Node000005_Node000024" class="edge">
<title>Node24&#45;&gt;Node5</title>
<g id="a_edge32_Node000005_Node000024"><a xlink:title=" ">
<path fill="none" stroke="#9a32cd" stroke-dasharray="5,2" d="M2038.66,-328.03C1959.52,-318.94 1836.82,-304.65 1730.5,-291.46 1717.62,-289.86 1703.64,-288.06 1690.83,-286.38"/>
<polygon fill="#9a32cd" stroke="#9a32cd" points="2038.18,-331.5 2048.51,-329.16 2038.98,-324.54 2038.18,-331.5"/>
</a>
</g>
<text text-anchor="middle" x="1896" y="-321.96" font-family="Helvetica,sans-Serif" font-size="10.00" fill="grey"> _meshlets</text>
</g>
<!-- Node25&#45;&gt;Node24 -->
<g id="edge33_Node000024_Node000025" class="edge">
<title>Node25&#45;&gt;Node24</title>
<g id="a_edge33_Node000024_Node000025"><a xlink:title=" ">
<path fill="none" stroke="#9a32cd" stroke-dasharray="5,2" d="M1966.74,-365.02C1993.16,-360.31 2023.27,-354.95 2049.85,-350.21"/>
<polygon fill="#9a32cd" stroke="#9a32cd" points="1966.38,-361.53 1957.15,-366.73 1967.61,-368.42 1966.38,-361.53"/>
</a>
</g>
<text text-anchor="middle" x="2010.88" y="-361.96" font-family="Helvetica,sans-Serif" font-size="10.00" fill="grey"> elements</text>
</g>
<!-- Node26 -->
<g id="Node000026" class="node">
<title>Node26</title>
<g id="a_Node000026"><a xlink:title=" ">
<polygon fill="white" stroke="#666666" points="1712.5,-564.46 1578,-564.46 1578,-520.46 1712.5,-520.46 1712.5,-564.46"/>
<text text-anchor="start" x="1586" y="-550.96" font-family="Helvetica,sans-Serif" font-size="10.00">std::array&lt; std::vector</text>
<text text-anchor="start" x="1586" y="-538.96" font-family="Helvetica,sans-Serif" font-size="10.00">&lt; dataState &gt;, NUM_DATA</text>
<text text-anchor="middle" x="1645.25" y="-526.96" font-family="Helvetica,sans-Serif" font-size="10.00">_SOURCES &gt;</text>
</a>
</g>
</g>
<!-- Node26&#45;&gt;Node25 -->
<g id="edge36_Node000025_Node000026" class="edge">
<title>Node26&#45;&gt;Node25</title>
<g id="a_edge36_Node000025_Node000026"><a xlink:title=" ">
<path fill="none" stroke="#9a32cd" stroke-dasharray="5,2" d="M1689.43,-513.82C1745.82,-476.41 1841.76,-412.77 1879.29,-387.88"/>
<polygon fill="#9a32cd" stroke="#9a32cd" points="1687.72,-510.75 1681.32,-519.2 1691.59,-516.58 1687.72,-510.75"/>
</a>
</g>
<text text-anchor="middle" x="1766.5" y="-485.96" font-family="Helvetica,sans-Serif" font-size="10.00" fill="grey"> fusionDataState</text>
</g>
<!-- Node27 -->
<g id="Node000027" class="node">
<title>Node27</title>
<g id="a_Node000027"><a xlink:title=" ">
<polygon fill="white" stroke="#666666" points="1426.88,-687.46 1305.88,-687.46 1305.88,-667.46 1426.88,-667.46 1426.88,-687.46"/>
<text text-anchor="middle" x="1366.38" y="-673.96" font-family="Helvetica,sans-Serif" font-size="10.00">std::vector&lt; dataState &gt;</text>
</a>
</g>
</g>
<!-- Node27&#45;&gt;Node26 -->
<g id="edge37_Node000026_Node000027" class="edge">
<title>Node27&#45;&gt;Node26</title>
<g id="a_edge37_Node000026_Node000027"><a xlink:title=" ">
<path fill="none" stroke="#9a32cd" stroke-dasharray="5,2" d="M1438.23,-670.23C1476.36,-663.95 1523.01,-652.23 1560,-630.46 1588.43,-613.72 1613.5,-584.7 1628.74,-564.59"/>
<polygon fill="#9a32cd" stroke="#9a32cd" points="1438.04,-666.72 1428.7,-671.71 1439.12,-673.64 1438.04,-666.72"/>
</a>
</g>
<text text-anchor="middle" x="1515.75" y="-664.96" font-family="Helvetica,sans-Serif" font-size="10.00" fill="grey"> elements</text>
</g>
<!-- Node28 -->
<g id="Node000028" class="node">
<title>Node28</title>
<g id="a_Node000028"><a xlink:title=" ">
<polygon fill="white" stroke="#666666" points="1439.25,-649.46 1293.5,-649.46 1293.5,-605.46 1439.25,-605.46 1439.25,-649.46"/>
<text text-anchor="start" x="1301.5" y="-635.96" font-family="Helvetica,sans-Serif" font-size="10.00">std::array&lt; std::vector</text>
<text text-anchor="start" x="1301.5" y="-623.96" font-family="Helvetica,sans-Serif" font-size="10.00">&lt; std::vector&lt; float &gt;</text>
<text text-anchor="middle" x="1366.38" y="-611.96" font-family="Helvetica,sans-Serif" font-size="10.00"> &gt;, NUM_DATA_SOURCES &gt;</text>
</a>
</g>
</g>
<!-- Node28&#45;&gt;Node5 -->
<g id="edge38_Node000005_Node000028" class="edge">
<title>Node28&#45;&gt;Node5</title>
<g id="a_edge38_Node000005_Node000028"><a xlink:title=" ">
<path fill="none" stroke="#9a32cd" stroke-dasharray="5,2" d="M1450.77,-615.74C1499,-608.23 1551.76,-598.41 1560,-590.46 1585.9,-565.43 1569.03,-546.33 1578,-511.46 1600.13,-425.39 1631.3,-322.63 1641.14,-290.53"/>
<polygon fill="#9a32cd" stroke="#9a32cd" points="1450.46,-612.25 1441.1,-617.23 1451.52,-619.17 1450.46,-612.25"/>
</a>
</g>
<text text-anchor="middle" x="1515.75" y="-613.96" font-family="Helvetica,sans-Serif" font-size="10.00" fill="grey"> _fusionData</text>
</g>
<!-- Node29 -->
<g id="Node000029" class="node">
<title>Node29</title>
<g id="a_Node000029"><a xlink:title=" ">
<polygon fill="white" stroke="#666666" points="1160,-643.46 1045,-643.46 1045,-611.46 1160,-611.46 1160,-643.46"/>
<text text-anchor="start" x="1053" y="-629.96" font-family="Helvetica,sans-Serif" font-size="10.00">std::vector&lt; std::vector</text>
<text text-anchor="middle" x="1102.5" y="-617.96" font-family="Helvetica,sans-Serif" font-size="10.00">&lt; float &gt; &gt;</text>
</a>
</g>
</g>
<!-- Node29&#45;&gt;Node28 -->
<g id="edge39_Node000028_Node000029" class="edge">
<title>Node29&#45;&gt;Node28</title>
<g id="a_edge39_Node000028_Node000029"><a xlink:title=" ">
<path fill="none" stroke="#9a32cd" stroke-dasharray="5,2" d="M1171.61,-627.46C1208.95,-627.46 1255.23,-627.46 1293.19,-627.46"/>
<polygon fill="#9a32cd" stroke="#9a32cd" points="1171.84,-623.96 1161.84,-627.46 1171.84,-630.96 1171.84,-623.96"/>
</a>
</g>
<text text-anchor="middle" x="1219.62" y="-629.96" font-family="Helvetica,sans-Serif" font-size="10.00" fill="grey"> elements</text>
</g>
<!-- Node30 -->
<g id="Node000030" class="node">
<title>Node30</title>
<g id="a_Node000030"><a xlink:title=" ">
<polygon fill="white" stroke="#666666" points="912.62,-637.46 815.62,-637.46 815.62,-617.46 912.62,-617.46 912.62,-637.46"/>
<text text-anchor="middle" x="864.12" y="-623.96" font-family="Helvetica,sans-Serif" font-size="10.00">std::vector&lt; float &gt;</text>
</a>
</g>
</g>
<!-- Node30&#45;&gt;Node29 -->
<g id="edge40_Node000029_Node000030" class="edge">
<title>Node30&#45;&gt;Node29</title>
<g id="a_edge40_Node000029_Node000030"><a xlink:title=" ">
<path fill="none" stroke="#9a32cd" stroke-dasharray="5,2" d="M924.04,-627.46C960.89,-627.46 1008.11,-627.46 1044.57,-627.46"/>
<polygon fill="#9a32cd" stroke="#9a32cd" points="924.47,-623.96 914.47,-627.46 924.47,-630.96 924.47,-623.96"/>
</a>
</g>
<text text-anchor="middle" x="983.88" y="-629.96" font-family="Helvetica,sans-Serif" font-size="10.00" fill="grey"> elements</text>
</g>
<!-- Node31 -->
<g id="Node000031" class="node">
<title>Node31</title>
<g id="a_Node000031"><a xlink:title=" ">
<polygon fill="white" stroke="#666666" points="1453.5,-587.46 1279.25,-587.46 1279.25,-555.46 1453.5,-555.46 1453.5,-587.46"/>
<text text-anchor="start" x="1287.25" y="-573.96" font-family="Helvetica,sans-Serif" font-size="10.00">std::array&lt; std::vector</text>
<text text-anchor="middle" x="1366.38" y="-561.96" font-family="Helvetica,sans-Serif" font-size="10.00">&lt; vec2 &gt;, NUM_DATA_SOURCES &gt;</text>
</a>
</g>
</g>
<!-- Node31&#45;&gt;Node5 -->
<g id="edge41_Node000005_Node000031" class="edge">
<title>Node31&#45;&gt;Node5</title>
<g id="a_edge41_Node000005_Node000031"><a xlink:title=" ">
<path fill="none" stroke="#9a32cd" stroke-dasharray="5,2" d="M1465.04,-576.19C1498.48,-573.01 1533.98,-563.66 1560,-541.46 1580.28,-524.15 1629.57,-337.3 1641.58,-290.86"/>
<polygon fill="#9a32cd" stroke="#9a32cd" points="1465.01,-572.69 1455.31,-576.93 1465.54,-579.67 1465.01,-572.69"/>
</a>
</g>
<text text-anchor="middle" x="1515.75" y="-576.96" font-family="Helvetica,sans-Serif" font-size="10.00" fill="grey"> _fusionDataMinMax</text>
</g>
<!-- Node32 -->
<g id="Node000032" class="node">
<title>Node32</title>
<g id="a_Node000032"><a xlink:title=" ">
<polygon fill="white" stroke="#666666" points="1151.75,-581.46 1053.25,-581.46 1053.25,-561.46 1151.75,-561.46 1151.75,-581.46"/>
<text text-anchor="middle" x="1102.5" y="-567.96" font-family="Helvetica,sans-Serif" font-size="10.00">std::vector&lt; vec2 &gt;</text>
</a>
</g>
</g>
<!-- Node32&#45;&gt;Node31 -->
<g id="edge42_Node000031_Node000032" class="edge">
<title>Node32&#45;&gt;Node31</title>
<g id="a_edge42_Node000031_Node000032"><a xlink:title=" ">
<path fill="none" stroke="#9a32cd" stroke-dasharray="5,2" d="M1163.36,-571.46C1197.54,-571.46 1240.99,-571.46 1278.83,-571.46"/>
<polygon fill="#9a32cd" stroke="#9a32cd" points="1163.66,-567.96 1153.66,-571.46 1163.66,-574.96 1163.66,-567.96"/>
</a>
</g>
<text text-anchor="middle" x="1219.62" y="-573.96" font-family="Helvetica,sans-Serif" font-size="10.00" fill="grey"> elements</text>
</g>
<!-- Node33 -->
<g id="Node000033" class="node">
<title>Node33</title>
<g id="a_Node000033"><a xlink:title=" ">
<polygon fill="white" stroke="#666666" points="2189.25,-285.46 2055.5,-285.46 2055.5,-253.46 2189.25,-253.46 2189.25,-285.46"/>
<text text-anchor="start" x="2063.5" y="-271.96" font-family="Helvetica,sans-Serif" font-size="10.00">std::vector&lt; std::unique</text>
<text text-anchor="middle" x="2122.38" y="-259.96" font-family="Helvetica,sans-Serif" font-size="10.00">_ptr&lt; GEU::PointCloud &gt; &gt;</text>
</a>
</g>
</g>
<!-- Node33&#45;&gt;Node5 -->
<g id="edge43_Node000005_Node000033" class="edge">
<title>Node33&#45;&gt;Node5</title>
<g id="a_edge43_Node000005_Node000033"><a xlink:title=" ">
<path fill="none" stroke="#9a32cd" stroke-dasharray="5,2" d="M2043.91,-271.25C1943.37,-273.58 1771.27,-277.56 1690.52,-279.43"/>
<polygon fill="#9a32cd" stroke="#9a32cd" points="2043.78,-274.75 2053.69,-271.02 2043.61,-267.76 2043.78,-274.75"/>
</a>
</g>
<text text-anchor="middle" x="1896" y="-278.96" font-family="Helvetica,sans-Serif" font-size="10.00" fill="grey"> _subClouds</text>
</g>
<!-- Node34&#45;&gt;Node33 -->
<g id="edge44_Node000033_Node000034" class="edge">
<title>Node34&#45;&gt;Node33</title>
<g id="a_edge44_Node000033_Node000034"><a xlink:title=" ">
<path fill="none" stroke="#9a32cd" stroke-dasharray="5,2" d="M1962.91,-239.79C1992.02,-245.24 2026.18,-251.64 2055.31,-257.09"/>
<polygon fill="#9a32cd" stroke="#9a32cd" points="1963.56,-236.35 1953.09,-237.96 1962.27,-243.24 1963.56,-236.35"/>
</a>
</g>
<text text-anchor="middle" x="2010.88" y="-254.96" font-family="Helvetica,sans-Serif" font-size="10.00" fill="grey"> elements</text>
</g>
</g>
</svg>
