<?xml version="1.0" encoding="UTF-8" standalone="no"?>
<!DOCTYPE svg PUBLIC "-//W3C//DTD SVG 1.1//EN"
 "http://www.w3.org/Graphics/SVG/1.1/DTD/svg11.dtd">
<!-- Generated by graphviz version 10.0.1 (20240210.2158)
 -->
<!-- Title: GEU::CloudExportDialogPopup Pages: 1 -->
<svg width="2203pt" height="582pt"
 viewBox="0.00 0.00 2202.50 582.42" xmlns="http://www.w3.org/2000/svg" xmlns:xlink="http://www.w3.org/1999/xlink">
<g id="graph0" class="graph" transform="scale(1 1) rotate(0) translate(4 578.42)">
<title>GEU::CloudExportDialogPopup</title>
<!-- Node1 -->
<g id="Node000001" class="node">
<title>Node1</title>
<g id="a_Node000001"><a xlink:title="ImGUIFileDialog popup wrapper for point cloud file selection.">
<polygon fill="#999999" stroke="#666666" points="1971.5,-51.42 1820.5,-51.42 1820.5,-31.42 1971.5,-31.42 1971.5,-51.42"/>
<text text-anchor="middle" x="1896" y="-37.92" font-family="Helvetica,sans-Serif" font-size="10.00">GEU::CloudExportDialogPopup</text>
</a>
</g>
</g>
<!-- Node2 -->
<g id="Node000002" class="node">
<title>Node2</title>
<g id="a_Node000002"><a xlink:href="../../df/ddd/class_g_e_u_1_1_i___g_u_i_popup.html" target="_top" xlink:title="ImGUI popups interface adapter class.">
<polygon fill="white" stroke="#666666" points="509.62,-51.42 414.88,-51.42 414.88,-31.42 509.62,-31.42 509.62,-51.42"/>
<text text-anchor="middle" x="462.25" y="-37.92" font-family="Helvetica,sans-Serif" font-size="10.00">GEU::I_GUIPopup</text>
</a>
</g>
</g>
<!-- Node2&#45;&gt;Node1 -->
<g id="edge1_Node000001_Node000002" class="edge">
<title>Node2&#45;&gt;Node1</title>
<g id="a_edge1_Node000001_Node000002"><a xlink:title=" ">
<path fill="none" stroke="#63b8ff" d="M521.33,-41.42C574.42,-41.42 655.12,-41.42 725.25,-41.42 725.25,-41.42 725.25,-41.42 1646.25,-41.42 1704.66,-41.42 1770.78,-41.42 1820.17,-41.42"/>
<polygon fill="#63b8ff" stroke="#63b8ff" points="521.62,-37.92 511.62,-41.42 521.62,-44.92 521.62,-37.92"/>
</a>
</g>
</g>
<!-- Node3 -->
<g id="Node000003" class="node">
<title>Node3</title>
<g id="a_Node000003"><a xlink:title=" ">
<polygon fill="white" stroke="#666666" points="190.5,-237.42 131,-237.42 131,-217.42 190.5,-217.42 190.5,-237.42"/>
<text text-anchor="middle" x="160.75" y="-223.92" font-family="Helvetica,sans-Serif" font-size="10.00">std::string</text>
</a>
</g>
</g>
<!-- Node3&#45;&gt;Node1 -->
<g id="edge47_Node000001_Node000003" class="edge">
<title>Node3&#45;&gt;Node1</title>
<g id="a_edge47_Node000001_Node000003"><a xlink:title=" ">
<path fill="none" stroke="#9a32cd" stroke-dasharray="5,2" d="M163.9,-205.63C168.93,-159.07 183.05,-52.09 208.5,-27.42 247.4,10.27 273.83,-3.42 328,-3.42 328,-3.42 328,-3.42 1646.25,-3.42 1719.43,-3.42 1803.33,-19.69 1852.61,-30.94"/>
<polygon fill="#9a32cd" stroke="#9a32cd" points="160.42,-205.23 162.87,-215.54 167.38,-205.95 160.42,-205.23"/>
</a>
</g>
<text text-anchor="middle" x="983.88" y="-5.92" font-family="Helvetica,sans-Serif" font-size="10.00" fill="grey"> _fileFormat</text>
</g>
<!-- Node3&#45;&gt;Node2 -->
<g id="edge2_Node000002_Node000003" class="edge">
<title>Node3&#45;&gt;Node2</title>
<g id="a_edge2_Node000002_Node000003"><a xlink:title=" ">
<path fill="none" stroke="#9a32cd" stroke-dasharray="5,2" d="M164.38,-205.92C170.01,-163.74 184.71,-72.58 208.5,-53.42 270.26,-3.7 370.58,-18.13 424.38,-30.96"/>
<polygon fill="#9a32cd" stroke="#9a32cd" points="160.94,-205.22 163.14,-215.59 167.88,-206.11 160.94,-205.22"/>
</a>
</g>
<text text-anchor="middle" x="230.25" y="-55.92" font-family="Helvetica,sans-Serif" font-size="10.00" fill="grey"> _popupID</text>
</g>
<!-- Node5 -->
<g id="Node000005" class="node">
<title>Node5</title>
<g id="a_Node000005"><a xlink:href="../../d4/dbf/class_g_e_u_1_1_point_cloud.html" target="_top" xlink:title=" ">
<polygon fill="white" stroke="#666666" points="1690.38,-243.42 1600.12,-243.42 1600.12,-223.42 1690.38,-223.42 1690.38,-243.42"/>
<text text-anchor="middle" x="1645.25" y="-229.92" font-family="Helvetica,sans-Serif" font-size="10.00">GEU::PointCloud</text>
</a>
</g>
</g>
<!-- Node3&#45;&gt;Node5 -->
<g id="edge27_Node000005_Node000003" class="edge">
<title>Node3&#45;&gt;Node5</title>
<g id="a_edge27_Node000005_Node000003"><a xlink:title=" ">
<path fill="none" stroke="#9a32cd" stroke-dasharray="5,2" d="M162.78,-248.9C165.48,-290.62 175.1,-384.72 208.5,-455.42 227.06,-494.71 230.92,-512.42 270,-531.42 324.36,-557.86 345.55,-532.98 406,-533.42 456,-533.79 468.57,-536.14 518.5,-533.42 575.86,-530.31 590.22,-528.16 647,-519.42 709.93,-509.74 732.16,-522.92 787.5,-491.42 797.89,-485.51 795.02,-477.18 805.5,-471.42 954.54,-389.67 1414.7,-433.65 1560,-345.42 1601.39,-320.3 1629.34,-266.56 1639.74,-243.87"/>
<polygon fill="#9a32cd" stroke="#9a32cd" points="166.28,-248.8 162.22,-239.02 159.29,-249.2 166.28,-248.8"/>
</a>
</g>
<text text-anchor="middle" x="864.12" y="-485.92" font-family="Helvetica,sans-Serif" font-size="10.00" fill="grey"> _prevViewMode</text>
<text text-anchor="middle" x="864.12" y="-473.92" font-family="Helvetica,sans-Serif" font-size="10.00" fill="grey">_viewMode</text>
</g>
<!-- Node6 -->
<g id="Node000006" class="node">
<title>Node6</title>
<g id="a_Node000006"><a xlink:href="../../db/d6c/class_g_e_u_1_1_model3_d.html" target="_top" xlink:title=" ">
<polygon fill="white" stroke="#666666" points="1407,-283.42 1325.75,-283.42 1325.75,-263.42 1407,-263.42 1407,-283.42"/>
<text text-anchor="middle" x="1366.38" y="-269.92" font-family="Helvetica,sans-Serif" font-size="10.00">GEU::Model3D</text>
</a>
</g>
</g>
<!-- Node3&#45;&gt;Node6 -->
<g id="edge6_Node000006_Node000003" class="edge">
<title>Node3&#45;&gt;Node6</title>
<g id="a_edge6_Node000006_Node000003"><a xlink:title=" ">
<path fill="none" stroke="#9a32cd" stroke-dasharray="5,2" d="M168.12,-206.25C175.08,-186.47 188.05,-157.37 208.5,-139.42 268.96,-86.38 307.58,-115.19 388,-116.42 446.02,-117.31 460.54,-117.71 518.5,-120.42 745.21,-131.06 855.98,-18.21 1027,-167.42 1046.38,-184.33 1025.43,-205.73 1045,-222.42 1086.57,-257.88 1249.12,-268.89 1325.42,-272.14"/>
<polygon fill="#9a32cd" stroke="#9a32cd" points="164.89,-204.9 165.1,-215.49 171.54,-207.07 164.89,-204.9"/>
</a>
</g>
<text text-anchor="middle" x="726.25" y="-114.92" font-family="Helvetica,sans-Serif" font-size="10.00" fill="grey"> _name</text>
</g>
<!-- Node8 -->
<g id="Node000008" class="node">
<title>Node8</title>
<g id="a_Node000008"><a xlink:href="../../d5/def/class_g_e_u_1_1_material.html" target="_top" xlink:title=" ">
<polygon fill="white" stroke="#666666" points="1141.25,-289.42 1063.75,-289.42 1063.75,-269.42 1141.25,-269.42 1141.25,-289.42"/>
<text text-anchor="middle" x="1102.5" y="-275.92" font-family="Helvetica,sans-Serif" font-size="10.00">GEU::Material</text>
</a>
</g>
</g>
<!-- Node3&#45;&gt;Node8 -->
<g id="edge9_Node000008_Node000003" class="edge">
<title>Node3&#45;&gt;Node8</title>
<g id="a_edge9_Node000008_Node000003"><a xlink:title=" ">
<path fill="none" stroke="#9a32cd" stroke-dasharray="5,2" d="M202.1,-227.42C235.77,-227.42 285.01,-227.42 328,-227.42 328,-227.42 328,-227.42 865.12,-227.42 941.81,-227.42 1029.29,-253.85 1073.2,-269.03"/>
<polygon fill="#9a32cd" stroke="#9a32cd" points="202.39,-223.92 192.39,-227.42 202.39,-230.92 202.39,-223.92"/>
</a>
</g>
<text text-anchor="middle" x="591.75" y="-229.92" font-family="Helvetica,sans-Serif" font-size="10.00" fill="grey"> _name</text>
</g>
<!-- Node10 -->
<g id="Node000010" class="node">
<title>Node10</title>
<g id="a_Node000010"><a xlink:href="../../da/db2/class_g_e_u_1_1_shader_program.html" target="_top" xlink:title=" ">
<polygon fill="white" stroke="#666666" points="647,-328.42 536.5,-328.42 536.5,-308.42 647,-308.42 647,-328.42"/>
<text text-anchor="middle" x="591.75" y="-314.92" font-family="Helvetica,sans-Serif" font-size="10.00">GEU::ShaderProgram</text>
</a>
</g>
</g>
<!-- Node3&#45;&gt;Node10 -->
<g id="edge12_Node000010_Node000003" class="edge">
<title>Node3&#45;&gt;Node10</title>
<g id="a_edge12_Node000010_Node000003"><a xlink:title=" ">
<path fill="none" stroke="#9a32cd" stroke-dasharray="5,2" d="M166.66,-249.03C173.15,-274.22 186.42,-316.23 208.5,-346.42 229.29,-374.86 236.81,-384.63 270,-396.42 374.73,-433.63 416.5,-412.56 518.5,-368.42 541.74,-358.37 565.22,-340.33 578.86,-328.89"/>
<polygon fill="#9a32cd" stroke="#9a32cd" points="170.06,-248.21 164.3,-239.32 163.26,-249.86 170.06,-248.21"/>
</a>
</g>
<text text-anchor="middle" x="329" y="-465.92" font-family="Helvetica,sans-Serif" font-size="10.00" fill="grey"> MODULE_FILE_CHAR_1</text>
<text text-anchor="middle" x="329" y="-453.92" font-family="Helvetica,sans-Serif" font-size="10.00" fill="grey">MODULE_FILE_CHAR_2</text>
<text text-anchor="middle" x="329" y="-441.92" font-family="Helvetica,sans-Serif" font-size="10.00" fill="grey">MODULE_HEADER</text>
<text text-anchor="middle" x="329" y="-429.92" font-family="Helvetica,sans-Serif" font-size="10.00" fill="grey">_logString</text>
<text text-anchor="middle" x="329" y="-417.92" font-family="Helvetica,sans-Serif" font-size="10.00" fill="grey">shaderPath</text>
</g>
<!-- Node11 -->
<g id="Node000011" class="node">
<title>Node11</title>
<g id="a_Node000011"><a xlink:title=" ">
<polygon fill="white" stroke="#666666" points="380.12,-387.42 277.88,-387.42 277.88,-343.42 380.12,-343.42 380.12,-387.42"/>
<text text-anchor="start" x="285.88" y="-373.92" font-family="Helvetica,sans-Serif" font-size="10.00">std::unordered_map</text>
<text text-anchor="start" x="285.88" y="-361.92" font-family="Helvetica,sans-Serif" font-size="10.00">&lt; std::string, std::</text>
<text text-anchor="middle" x="329" y="-349.92" font-family="Helvetica,sans-Serif" font-size="10.00">string &gt;</text>
</a>
</g>
</g>
<!-- Node3&#45;&gt;Node11 -->
<g id="edge14_Node000011_Node000003" class="edge">
<title>Node3&#45;&gt;Node11</title>
<g id="a_edge14_Node000011_Node000003"><a xlink:title=" ">
<path fill="none" stroke="#9a32cd" stroke-dasharray="5,2" d="M177.77,-246.31C197.75,-269.1 233.73,-307.69 270,-334.42 274.04,-337.41 278.41,-340.28 282.87,-342.99"/>
<polygon fill="#9a32cd" stroke="#9a32cd" points="180.64,-244.28 171.45,-239.01 175.35,-248.86 180.64,-244.28"/>
</a>
</g>
<text text-anchor="middle" x="230.25" y="-332.92" font-family="Helvetica,sans-Serif" font-size="10.00" fill="grey"> elements</text>
<text text-anchor="middle" x="230.25" y="-320.92" font-family="Helvetica,sans-Serif" font-size="10.00" fill="grey">keys</text>
</g>
<!-- Node13 -->
<g id="Node000013" class="node">
<title>Node13</title>
<g id="a_Node000013"><a xlink:title=" ">
<polygon fill="white" stroke="#666666" points="382.38,-287.42 275.62,-287.42 275.62,-255.42 382.38,-255.42 382.38,-287.42"/>
<text text-anchor="start" x="283.62" y="-273.92" font-family="Helvetica,sans-Serif" font-size="10.00">std::unordered_map</text>
<text text-anchor="middle" x="329" y="-261.92" font-family="Helvetica,sans-Serif" font-size="10.00">&lt; std::string, GLint &gt;</text>
</a>
</g>
</g>
<!-- Node3&#45;&gt;Node13 -->
<g id="edge17_Node000013_Node000003" class="edge">
<title>Node3&#45;&gt;Node13</title>
<g id="a_edge17_Node000013_Node000003"><a xlink:title=" ">
<path fill="none" stroke="#9a32cd" stroke-dasharray="5,2" d="M201.67,-239.51C203.98,-240.17 206.27,-240.81 208.5,-241.42 230.26,-247.41 254.38,-253.56 275.22,-258.72"/>
<polygon fill="#9a32cd" stroke="#9a32cd" points="202.9,-236.22 192.32,-236.79 200.95,-242.94 202.9,-236.22"/>
</a>
</g>
<text text-anchor="middle" x="230.25" y="-255.92" font-family="Helvetica,sans-Serif" font-size="10.00" fill="grey"> keys</text>
</g>
<!-- Node15 -->
<g id="Node000015" class="node">
<title>Node15</title>
<g id="a_Node000015"><a xlink:href="../../dc/d36/class_g_e_u_1_1_texture.html" target="_top" xlink:title=" ">
<polygon fill="white" stroke="#666666" points="629.38,-191.42 554.12,-191.42 554.12,-171.42 629.38,-171.42 629.38,-191.42"/>
<text text-anchor="middle" x="591.75" y="-177.92" font-family="Helvetica,sans-Serif" font-size="10.00">GEU::Texture</text>
</a>
</g>
</g>
<!-- Node3&#45;&gt;Node15 -->
<g id="edge20_Node000015_Node000003" class="edge">
<title>Node3&#45;&gt;Node15</title>
<g id="a_edge20_Node000015_Node000003"><a xlink:title=" ">
<path fill="none" stroke="#9a32cd" stroke-dasharray="5,2" d="M176.61,-208.19C195.47,-185.54 230.36,-149.11 270,-134.42 376.87,-94.82 515.36,-147.28 568.58,-170.94"/>
<polygon fill="#9a32cd" stroke="#9a32cd" points="174.05,-205.8 170.49,-215.78 179.5,-210.19 174.05,-205.8"/>
</a>
</g>
<text text-anchor="middle" x="329" y="-148.92" font-family="Helvetica,sans-Serif" font-size="10.00" fill="grey"> TEXTURE_LAYER_IDS</text>
<text text-anchor="middle" x="329" y="-136.92" font-family="Helvetica,sans-Serif" font-size="10.00" fill="grey">_filename</text>
</g>
<!-- Node16 -->
<g id="Node000016" class="node">
<title>Node16</title>
<g id="a_Node000016"><a xlink:title=" ">
<polygon fill="white" stroke="#666666" points="388,-199.42 270,-199.42 270,-167.42 388,-167.42 388,-199.42"/>
<text text-anchor="start" x="278" y="-185.92" font-family="Helvetica,sans-Serif" font-size="10.00">std::unordered_map</text>
<text text-anchor="middle" x="329" y="-173.92" font-family="Helvetica,sans-Serif" font-size="10.00">&lt; uint16_t, std::string &gt;</text>
</a>
</g>
</g>
<!-- Node3&#45;&gt;Node16 -->
<g id="edge22_Node000016_Node000003" class="edge">
<title>Node3&#45;&gt;Node16</title>
<g id="a_edge22_Node000016_Node000003"><a xlink:title=" ">
<path fill="none" stroke="#9a32cd" stroke-dasharray="5,2" d="M187.02,-211.22C193.78,-207.49 201.23,-203.9 208.5,-201.42 227.86,-194.82 249.81,-190.64 269.56,-187.99"/>
<polygon fill="#9a32cd" stroke="#9a32cd" points="185.26,-208.19 178.41,-216.27 188.81,-214.23 185.26,-208.19"/>
</a>
</g>
<text text-anchor="middle" x="230.25" y="-203.92" font-family="Helvetica,sans-Serif" font-size="10.00" fill="grey"> elements</text>
</g>
<!-- Node17 -->
<g id="Node000017" class="node">
<title>Node17</title>
<g id="a_Node000017"><a xlink:title=" ">
<polygon fill="white" stroke="#666666" points="787.5,-482.42 665,-482.42 665,-462.42 787.5,-462.42 787.5,-482.42"/>
<text text-anchor="middle" x="726.25" y="-468.92" font-family="Helvetica,sans-Serif" font-size="10.00">std::vector&lt; std::string &gt;</text>
</a>
</g>
</g>
<!-- Node3&#45;&gt;Node17 -->
<g id="edge24_Node000017_Node000003" class="edge">
<title>Node3&#45;&gt;Node17</title>
<g id="a_edge24_Node000017_Node000003"><a xlink:title=" ">
<path fill="none" stroke="#9a32cd" stroke-dasharray="5,2" d="M162.86,-249.13C166.86,-301.24 185.3,-432.58 270,-479.42 410.94,-557.37 615.91,-506.81 693.71,-482.92"/>
<polygon fill="#9a32cd" stroke="#9a32cd" points="166.35,-248.95 162.21,-239.2 159.37,-249.4 166.35,-248.95"/>
</a>
</g>
<text text-anchor="middle" x="329" y="-517.92" font-family="Helvetica,sans-Serif" font-size="10.00" fill="grey"> elements</text>
</g>
<!-- Node4 -->
<g id="Node000004" class="node">
<title>Node4</title>
<g id="a_Node000004"><a xlink:title=" ">
<polygon fill="white" stroke="#666666" points="94,-243.42 0,-243.42 0,-211.42 94,-211.42 94,-243.42"/>
<text text-anchor="start" x="8" y="-229.92" font-family="Helvetica,sans-Serif" font-size="10.00">std::basic_string&lt;</text>
<text text-anchor="middle" x="47" y="-217.92" font-family="Helvetica,sans-Serif" font-size="10.00"> Char &gt;</text>
</a>
</g>
</g>
<!-- Node4&#45;&gt;Node3 -->
<g id="edge3_Node000003_Node000004" class="edge">
<title>Node4&#45;&gt;Node3</title>
<g id="a_edge3_Node000003_Node000004"><a xlink:title=" ">
<path fill="none" stroke="#63b8ff" d="M105.71,-227.42C114.32,-227.42 122.87,-227.42 130.55,-227.42"/>
<polygon fill="#63b8ff" stroke="#63b8ff" points="105.93,-223.92 95.93,-227.42 105.93,-230.92 105.93,-223.92"/>
</a>
</g>
</g>
<!-- Node5&#45;&gt;Node1 -->
<g id="edge4_Node000001_Node000005" class="edge">
<title>Node5&#45;&gt;Node1</title>
<g id="a_edge4_Node000001_Node000005"><a xlink:title=" ">
<path fill="none" stroke="#9a32cd" stroke-dasharray="5,2" d="M1668.44,-216.29C1718.88,-177.36 1840.9,-83.19 1881.56,-51.8"/>
<polygon fill="#9a32cd" stroke="#9a32cd" points="1666.6,-213.3 1660.82,-222.18 1670.88,-218.84 1666.6,-213.3"/>
</a>
</g>
<text text-anchor="middle" x="1766.5" y="-168.92" font-family="Helvetica,sans-Serif" font-size="10.00" fill="grey"> _sceneTarget</text>
</g>
<!-- Node26 -->
<g id="Node000026" class="node">
<title>Node26</title>
<g id="a_Node000026"><a xlink:href="../../dd/dcf/struct_g_e_u_1_1_point_cloud_1_1_meshlet.html" target="_top" xlink:title=" ">
<polygon fill="white" stroke="#666666" points="1961.38,-340.42 1830.62,-340.42 1830.62,-320.42 1961.38,-320.42 1961.38,-340.42"/>
<text text-anchor="middle" x="1896" y="-326.92" font-family="Helvetica,sans-Serif" font-size="10.00">GEU::PointCloud::Meshlet</text>
</a>
</g>
</g>
<!-- Node5&#45;&gt;Node26 -->
<g id="edge36_Node000026_Node000005" class="edge">
<title>Node5&#45;&gt;Node26</title>
<g id="a_edge36_Node000026_Node000005"><a xlink:title=" ">
<path fill="none" stroke="#9a32cd" stroke-dasharray="5,2" d="M1666.89,-250.89C1683.19,-263.85 1707.03,-281 1730.5,-291.42 1750.22,-300.18 1801.53,-311.74 1841.65,-320"/>
<polygon fill="#9a32cd" stroke="#9a32cd" points="1669.36,-248.39 1659.39,-244.79 1664.94,-253.82 1669.36,-248.39"/>
</a>
</g>
<text text-anchor="middle" x="1766.5" y="-312.92" font-family="Helvetica,sans-Serif" font-size="10.00" fill="grey"> parent</text>
</g>
<!-- Node35 -->
<g id="Node000035" class="node">
<title>Node35</title>
<g id="a_Node000035"><a xlink:title=" ">
<polygon fill="white" stroke="#666666" points="1951.25,-196.42 1840.75,-196.42 1840.75,-164.42 1951.25,-164.42 1951.25,-196.42"/>
<text text-anchor="start" x="1848.75" y="-182.92" font-family="Helvetica,sans-Serif" font-size="10.00">std::unique_ptr&lt; GEU</text>
<text text-anchor="middle" x="1896" y="-170.92" font-family="Helvetica,sans-Serif" font-size="10.00">::PointCloud &gt;</text>
</a>
</g>
</g>
<!-- Node5&#45;&gt;Node35 -->
<g id="edge46_Node000035_Node000005" class="edge">
<title>Node5&#45;&gt;Node35</title>
<g id="a_edge46_Node000035_Node000005"><a xlink:title=" ">
<path fill="none" stroke="#9a32cd" stroke-dasharray="5,2" d="M1685.91,-219.33C1699.87,-214.74 1715.76,-209.93 1730.5,-206.42 1766.79,-197.8 1808.27,-191.26 1840.51,-186.9"/>
<polygon fill="#9a32cd" stroke="#9a32cd" points="1684.98,-215.95 1676.62,-222.46 1687.21,-222.59 1684.98,-215.95"/>
</a>
</g>
<text text-anchor="middle" x="1766.5" y="-208.92" font-family="Helvetica,sans-Serif" font-size="10.00" fill="grey"> ptr</text>
</g>
<!-- Node6&#45;&gt;Node5 -->
<g id="edge5_Node000005_Node000006" class="edge">
<title>Node6&#45;&gt;Node5</title>
<g id="a_edge5_Node000005_Node000006"><a xlink:title=" ">
<path fill="none" stroke="#63b8ff" d="M1418.35,-267.97C1457.25,-263.59 1512.12,-256.95 1560,-249.42 1572.94,-247.39 1586.94,-244.87 1599.74,-242.43"/>
<polygon fill="#63b8ff" stroke="#63b8ff" points="1418.38,-264.45 1408.83,-269.03 1419.15,-271.4 1418.38,-264.45"/>
</a>
</g>
</g>
<!-- Node7 -->
<g id="Node000007" class="node">
<title>Node7</title>
<g id="a_Node000007"><a xlink:href="../../dc/d47/class_a_a_b_b.html" target="_top" xlink:title=" ">
<polygon fill="white" stroke="#666666" points="1124,-339.42 1081,-339.42 1081,-319.42 1124,-319.42 1124,-339.42"/>
<text text-anchor="middle" x="1102.5" y="-325.92" font-family="Helvetica,sans-Serif" font-size="10.00">AABB</text>
</a>
</g>
</g>
<!-- Node7&#45;&gt;Node6 -->
<g id="edge7_Node000006_Node000007" class="edge">
<title>Node7&#45;&gt;Node6</title>
<g id="a_edge7_Node000006_Node000007"><a xlink:title=" ">
<path fill="none" stroke="#9a32cd" stroke-dasharray="5,2" d="M1135.7,-322.54C1183.55,-312.31 1273.37,-293.1 1325.37,-281.98"/>
<polygon fill="#9a32cd" stroke="#9a32cd" points="1135.01,-319.11 1125.97,-324.62 1136.48,-325.95 1135.01,-319.11"/>
</a>
</g>
<text text-anchor="middle" x="1219.62" y="-314.92" font-family="Helvetica,sans-Serif" font-size="10.00" fill="grey"> _aabb</text>
</g>
<!-- Node7&#45;&gt;Node26 -->
<g id="edge35_Node000026_Node000007" class="edge">
<title>Node7&#45;&gt;Node26</title>
<g id="a_edge35_Node000026_Node000007"><a xlink:title=" ">
<path fill="none" stroke="#9a32cd" stroke-dasharray="5,2" d="M1135.74,-329.47C1254.55,-329.62 1669.35,-330.14 1830.39,-330.34"/>
<polygon fill="#9a32cd" stroke="#9a32cd" points="1135.78,-325.97 1125.78,-329.45 1135.77,-332.97 1135.78,-325.97"/>
</a>
</g>
<text text-anchor="middle" x="1515.75" y="-331.92" font-family="Helvetica,sans-Serif" font-size="10.00" fill="grey"> aabb</text>
</g>
<!-- Node8&#45;&gt;Node6 -->
<g id="edge8_Node000006_Node000008" class="edge">
<title>Node8&#45;&gt;Node6</title>
<g id="a_edge8_Node000006_Node000008"><a xlink:title=" ">
<path fill="none" stroke="#9a32cd" stroke-dasharray="5,2" d="M1153.07,-278.29C1203.08,-277.14 1279.31,-275.4 1325.53,-274.34"/>
<polygon fill="#9a32cd" stroke="#9a32cd" points="1153.01,-274.79 1143.09,-278.52 1153.17,-281.79 1153.01,-274.79"/>
</a>
</g>
<text text-anchor="middle" x="1219.62" y="-279.92" font-family="Helvetica,sans-Serif" font-size="10.00" fill="grey"> _material</text>
</g>
<!-- Node9 -->
<g id="Node000009" class="node">
<title>Node9</title>
<g id="a_Node000009"><a xlink:href="../../d0/def/class_g_e_u_1_1_rendering_shader.html" target="_top" xlink:title=" ">
<polygon fill="white" stroke="#666666" points="922.75,-290.42 805.5,-290.42 805.5,-270.42 922.75,-270.42 922.75,-290.42"/>
<text text-anchor="middle" x="864.12" y="-276.92" font-family="Helvetica,sans-Serif" font-size="10.00">GEU::RenderingShader</text>
</a>
</g>
</g>
<!-- Node9&#45;&gt;Node8 -->
<g id="edge10_Node000008_Node000009" class="edge">
<title>Node9&#45;&gt;Node8</title>
<g id="a_edge10_Node000008_Node000009"><a xlink:title=" ">
<path fill="none" stroke="#9a32cd" stroke-dasharray="5,2" d="M934.27,-280.13C976.42,-279.95 1028.69,-279.73 1063.46,-279.59"/>
<polygon fill="#9a32cd" stroke="#9a32cd" points="934.45,-276.63 924.46,-280.17 934.48,-283.63 934.45,-276.63"/>
</a>
</g>
<text text-anchor="middle" x="983.88" y="-281.92" font-family="Helvetica,sans-Serif" font-size="10.00" fill="grey"> _associatedShader</text>
</g>
<!-- Node10&#45;&gt;Node9 -->
<g id="edge11_Node000009_Node000010" class="edge">
<title>Node10&#45;&gt;Node9</title>
<g id="a_edge11_Node000009_Node000010"><a xlink:title=" ">
<path fill="none" stroke="#63b8ff" d="M658.48,-312.59C696.33,-308.83 744.73,-303.35 787.5,-296.42 797.17,-294.86 807.48,-292.89 817.27,-290.86"/>
<polygon fill="#63b8ff" stroke="#63b8ff" points="658.21,-309.09 648.59,-313.55 658.89,-316.06 658.21,-309.09"/>
</a>
</g>
</g>
<!-- Node11&#45;&gt;Node10 -->
<g id="edge13_Node000010_Node000011" class="edge">
<title>Node11&#45;&gt;Node10</title>
<g id="a_edge13_Node000010_Node000011"><a xlink:title=" ">
<path fill="none" stroke="#9a32cd" stroke-dasharray="5,2" d="M391.57,-355.56C428.45,-349.5 476.23,-341.4 518.5,-333.42 525.93,-332.02 533.77,-330.47 541.44,-328.91"/>
<polygon fill="#9a32cd" stroke="#9a32cd" points="391.29,-352.05 381.99,-357.12 392.42,-358.96 391.29,-352.05"/>
</a>
</g>
<text text-anchor="middle" x="462.25" y="-354.92" font-family="Helvetica,sans-Serif" font-size="10.00" fill="grey"> _moduleCode</text>
</g>
<!-- Node12 -->
<g id="Node000012" class="node">
<title>Node12</title>
<g id="a_Node000012"><a xlink:title=" ">
<polygon fill="white" stroke="#666666" points="382.75,-325.42 275.25,-325.42 275.25,-305.42 382.75,-305.42 382.75,-325.42"/>
<text text-anchor="middle" x="329" y="-311.92" font-family="Helvetica,sans-Serif" font-size="10.00">std::vector&lt; GLuint &gt;</text>
</a>
</g>
</g>
<!-- Node12&#45;&gt;Node10 -->
<g id="edge15_Node000010_Node000012" class="edge">
<title>Node12&#45;&gt;Node10</title>
<g id="a_edge15_Node000010_Node000012"><a xlink:title=" ">
<path fill="none" stroke="#9a32cd" stroke-dasharray="5,2" d="M394.44,-316.17C438.06,-316.67 495.07,-317.32 536.4,-317.8"/>
<polygon fill="#9a32cd" stroke="#9a32cd" points="394.63,-312.67 384.59,-316.05 394.55,-319.67 394.63,-312.67"/>
</a>
</g>
<text text-anchor="middle" x="462.25" y="-319.92" font-family="Helvetica,sans-Serif" font-size="10.00" fill="grey"> _activeSubroutineUniform</text>
</g>
<!-- Node13&#45;&gt;Node10 -->
<g id="edge16_Node000010_Node000013" class="edge">
<title>Node13&#45;&gt;Node10</title>
<g id="a_edge16_Node000010_Node000013"><a xlink:title=" ">
<path fill="none" stroke="#9a32cd" stroke-dasharray="5,2" d="M393.89,-269.01C431.18,-269.51 478.6,-273.48 518.5,-287.42 527.58,-290.6 527.9,-295.14 536.5,-299.42 542.84,-302.59 549.84,-305.45 556.64,-307.95"/>
<polygon fill="#9a32cd" stroke="#9a32cd" points="394.19,-265.51 384.17,-268.97 394.16,-272.51 394.19,-265.51"/>
</a>
</g>
<text text-anchor="middle" x="462.25" y="-301.92" font-family="Helvetica,sans-Serif" font-size="10.00" fill="grey"> subroutineLocation</text>
<text text-anchor="middle" x="462.25" y="-289.92" font-family="Helvetica,sans-Serif" font-size="10.00" fill="grey">uniformLocation</text>
</g>
<!-- Node14 -->
<g id="Node000014" class="node">
<title>Node14</title>
<g id="a_Node000014"><a xlink:title=" ">
<polygon fill="white" stroke="#666666" points="640.25,-290.42 543.25,-290.42 543.25,-270.42 640.25,-270.42 640.25,-290.42"/>
<text text-anchor="middle" x="591.75" y="-276.92" font-family="Helvetica,sans-Serif" font-size="10.00">std::vector&lt; bool &gt;</text>
</a>
</g>
</g>
<!-- Node14&#45;&gt;Node9 -->
<g id="edge18_Node000009_Node000014" class="edge">
<title>Node14&#45;&gt;Node9</title>
<g id="a_edge18_Node000009_Node000014"><a xlink:title=" ">
<path fill="none" stroke="#9a32cd" stroke-dasharray="5,2" d="M651.93,-280.42C697.41,-280.42 759.88,-280.42 805.07,-280.42"/>
<polygon fill="#9a32cd" stroke="#9a32cd" points="651.98,-276.92 641.98,-280.42 651.98,-283.92 651.98,-276.92"/>
</a>
</g>
<text text-anchor="middle" x="726.25" y="-282.92" font-family="Helvetica,sans-Serif" font-size="10.00" fill="grey"> _implementsSubroutine</text>
</g>
<!-- Node15&#45;&gt;Node8 -->
<g id="edge19_Node000008_Node000015" class="edge">
<title>Node15&#45;&gt;Node8</title>
<g id="a_edge19_Node000008_Node000015"><a xlink:title=" ">
<path fill="none" stroke="#9a32cd" stroke-dasharray="5,2" d="M640.87,-169.73C727.54,-151.67 911.54,-127.42 1027,-213.42 1043.29,-225.56 1030.62,-241.09 1045,-255.42 1050.74,-261.14 1058.05,-265.58 1065.49,-269"/>
<polygon fill="#9a32cd" stroke="#9a32cd" points="640.32,-166.27 631.29,-171.79 641.8,-173.11 640.32,-166.27"/>
</a>
</g>
<text text-anchor="middle" x="864.12" y="-168.92" font-family="Helvetica,sans-Serif" font-size="10.00" fill="grey"> _texture</text>
</g>
<!-- Node16&#45;&gt;Node15 -->
<g id="edge21_Node000015_Node000016" class="edge">
<title>Node16&#45;&gt;Node15</title>
<g id="a_edge21_Node000015_Node000016"><a xlink:title=" ">
<path fill="none" stroke="#9a32cd" stroke-dasharray="5,2" d="M399.47,-182.89C449,-182.51 513.64,-182.02 553.66,-181.71"/>
<polygon fill="#9a32cd" stroke="#9a32cd" points="399.68,-179.39 389.71,-182.97 399.73,-186.39 399.68,-179.39"/>
</a>
</g>
<text text-anchor="middle" x="462.25" y="-185.92" font-family="Helvetica,sans-Serif" font-size="10.00" fill="grey"> SHADER_VARIABLE</text>
</g>
<!-- Node17&#45;&gt;Node8 -->
<g id="edge23_Node000008_Node000017" class="edge">
<title>Node17&#45;&gt;Node8</title>
<g id="a_edge23_Node000008_Node000017"><a xlink:title=" ">
<path fill="none" stroke="#9a32cd" stroke-dasharray="5,2" d="M748.4,-455.24C763.71,-443.24 785.21,-427.32 805.5,-415.42 899.91,-360.09 1020.71,-310.71 1074.07,-289.89"/>
<polygon fill="#9a32cd" stroke="#9a32cd" points="746.57,-452.22 740.91,-461.18 750.92,-457.7 746.57,-452.22"/>
</a>
</g>
<text text-anchor="middle" x="864.12" y="-417.92" font-family="Helvetica,sans-Serif" font-size="10.00" fill="grey"> _enabledSubroutines</text>
</g>
<!-- Node18 -->
<g id="Node000018" class="node">
<title>Node18</title>
<g id="a_Node000018"><a xlink:title=" ">
<polygon fill="white" stroke="#666666" points="1406.62,-240.42 1326.12,-240.42 1326.12,-220.42 1406.62,-220.42 1406.62,-240.42"/>
<text text-anchor="middle" x="1366.38" y="-226.92" font-family="Helvetica,sans-Serif" font-size="10.00">std::array&lt; T &gt;</text>
</a>
</g>
</g>
<!-- Node18&#45;&gt;Node5 -->
<g id="edge25_Node000005_Node000018" class="edge">
<title>Node18&#45;&gt;Node5</title>
<g id="a_edge25_Node000005_Node000018"><a xlink:title=" ">
<path fill="none" stroke="#9a32cd" stroke-dasharray="5,2" d="M1418.36,-230.98C1470.48,-231.54 1550.58,-232.41 1600.08,-232.95"/>
<polygon fill="#9a32cd" stroke="#9a32cd" points="1418.6,-227.48 1408.56,-230.87 1418.52,-234.48 1418.6,-227.48"/>
</a>
</g>
<text text-anchor="middle" x="1515.75" y="-235.92" font-family="Helvetica,sans-Serif" font-size="10.00" fill="grey"> _viewModes</text>
</g>
<!-- Node19 -->
<g id="Node000019" class="node">
<title>Node19</title>
<g id="a_Node000019"><a xlink:title=" ">
<polygon fill="white" stroke="#666666" points="1116.9,-213.42 1088.1,-213.42 1088.1,-193.42 1116.9,-193.42 1116.9,-213.42"/>
<text text-anchor="middle" x="1102.5" y="-199.92" font-family="Helvetica,sans-Serif" font-size="10.00">T</text>
</a>
</g>
</g>
<!-- Node19&#45;&gt;Node18 -->
<g id="edge26_Node000018_Node000019" class="edge">
<title>Node19&#45;&gt;Node18</title>
<g id="a_edge26_Node000018_Node000019"><a xlink:title=" ">
<path fill="none" stroke="#9a32cd" stroke-dasharray="5,2" d="M1128.47,-204.8C1159.61,-206.65 1214.46,-210.28 1261.25,-215.42 1282.67,-217.78 1306.47,-221.15 1325.9,-224.1"/>
<polygon fill="#9a32cd" stroke="#9a32cd" points="1128.73,-201.31 1118.54,-204.23 1128.33,-208.3 1128.73,-201.31"/>
</a>
</g>
<text text-anchor="middle" x="1219.62" y="-217.92" font-family="Helvetica,sans-Serif" font-size="10.00" fill="grey"> elements</text>
</g>
<!-- Node20 -->
<g id="Node000020" class="node">
<title>Node20</title>
<g id="a_Node000020"><a xlink:href="../../d2/d21/struct_g_e_u_1_1_g_p_u_resources.html" target="_top" xlink:title=" ">
<polygon fill="white" stroke="#666666" points="1421.62,-199.42 1311.12,-199.42 1311.12,-179.42 1421.62,-179.42 1421.62,-199.42"/>
<text text-anchor="middle" x="1366.38" y="-185.92" font-family="Helvetica,sans-Serif" font-size="10.00">GEU::GPUResources</text>
</a>
</g>
</g>
<!-- Node20&#45;&gt;Node5 -->
<g id="edge28_Node000005_Node000020" class="edge">
<title>Node20&#45;&gt;Node5</title>
<g id="a_edge28_Node000005_Node000020"><a xlink:title=" ">
<path fill="none" stroke="#9a32cd" stroke-dasharray="5,2" d="M1433.12,-197.65C1470.42,-202.56 1517.92,-209.24 1560,-216.42 1572.94,-218.64 1586.94,-221.34 1599.74,-223.93"/>
<polygon fill="#9a32cd" stroke="#9a32cd" points="1433.76,-194.2 1423.39,-196.38 1432.86,-201.14 1433.76,-194.2"/>
</a>
</g>
<text text-anchor="middle" x="1515.75" y="-218.92" font-family="Helvetica,sans-Serif" font-size="10.00" fill="grey"> _GPUResources</text>
</g>
<!-- Node21 -->
<g id="Node000021" class="node">
<title>Node21</title>
<g id="a_Node000021"><a xlink:title=" ">
<polygon fill="white" stroke="#666666" points="1154.75,-113.42 1050.25,-113.42 1050.25,-69.42 1154.75,-69.42 1154.75,-113.42"/>
<text text-anchor="start" x="1058.25" y="-99.92" font-family="Helvetica,sans-Serif" font-size="10.00">std::array&lt; size_t,</text>
<text text-anchor="start" x="1058.25" y="-87.92" font-family="Helvetica,sans-Serif" font-size="10.00">(uint8_t) SSBOSlots</text>
<text text-anchor="middle" x="1102.5" y="-75.92" font-family="Helvetica,sans-Serif" font-size="10.00">::Total &gt;</text>
</a>
</g>
</g>
<!-- Node21&#45;&gt;Node20 -->
<g id="edge29_Node000020_Node000021" class="edge">
<title>Node21&#45;&gt;Node20</title>
<g id="a_edge29_Node000020_Node000021"><a xlink:title=" ">
<path fill="none" stroke="#9a32cd" stroke-dasharray="5,2" d="M1166.11,-105.65C1196.68,-114.6 1232.88,-128.35 1261.25,-148.42 1271.56,-155.72 1268.49,-163.81 1279.25,-170.42 1288.77,-176.28 1299.87,-180.34 1310.86,-183.15"/>
<polygon fill="#9a32cd" stroke="#9a32cd" points="1167.16,-102.31 1156.59,-102.97 1165.27,-109.05 1167.16,-102.31"/>
</a>
</g>
<text text-anchor="middle" x="1219.62" y="-150.92" font-family="Helvetica,sans-Serif" font-size="10.00" fill="grey"> _memoryReserved</text>
</g>
<!-- Node22 -->
<g id="Node000022" class="node">
<title>Node22</title>
<g id="a_Node000022"><a xlink:title=" ">
<polygon fill="white" stroke="#666666" points="1154.75,-175.42 1050.25,-175.42 1050.25,-131.42 1154.75,-131.42 1154.75,-175.42"/>
<text text-anchor="start" x="1058.25" y="-161.92" font-family="Helvetica,sans-Serif" font-size="10.00">std::array&lt; GLuint,</text>
<text text-anchor="start" x="1058.25" y="-149.92" font-family="Helvetica,sans-Serif" font-size="10.00">(uint8_t) SSBOSlots</text>
<text text-anchor="middle" x="1102.5" y="-137.92" font-family="Helvetica,sans-Serif" font-size="10.00">::Total &gt;</text>
</a>
</g>
</g>
<!-- Node22&#45;&gt;Node20 -->
<g id="edge30_Node000020_Node000022" class="edge">
<title>Node22&#45;&gt;Node20</title>
<g id="a_edge30_Node000020_Node000022"><a xlink:title=" ">
<path fill="none" stroke="#9a32cd" stroke-dasharray="5,2" d="M1166.42,-162.07C1210.54,-168.14 1268.94,-176.17 1311.04,-181.96"/>
<polygon fill="#9a32cd" stroke="#9a32cd" points="1167.12,-158.64 1156.74,-160.74 1166.17,-165.57 1167.12,-158.64"/>
</a>
</g>
<text text-anchor="middle" x="1219.62" y="-177.92" font-family="Helvetica,sans-Serif" font-size="10.00" fill="grey"> _ssboIds</text>
</g>
<!-- Node23 -->
<g id="Node000023" class="node">
<title>Node23</title>
<g id="a_Node000023"><a xlink:title=" ">
<polygon fill="white" stroke="#666666" points="1415.62,-161.42 1317.12,-161.42 1317.12,-141.42 1415.62,-141.42 1415.62,-161.42"/>
<text text-anchor="middle" x="1366.38" y="-147.92" font-family="Helvetica,sans-Serif" font-size="10.00">std::vector&lt; vec3 &gt;</text>
</a>
</g>
</g>
<!-- Node23&#45;&gt;Node5 -->
<g id="edge31_Node000005_Node000023" class="edge">
<title>Node23&#45;&gt;Node5</title>
<g id="a_edge31_Node000005_Node000023"><a xlink:title=" ">
<path fill="none" stroke="#9a32cd" stroke-dasharray="5,2" d="M1427.37,-152.1C1466.29,-154.25 1517.47,-160.32 1560,-176.42 1588.74,-187.31 1617.33,-209.73 1632.7,-222.98"/>
<polygon fill="#9a32cd" stroke="#9a32cd" points="1427.64,-148.61 1417.48,-151.64 1427.31,-155.6 1427.64,-148.61"/>
</a>
</g>
<text text-anchor="middle" x="1515.75" y="-190.92" font-family="Helvetica,sans-Serif" font-size="10.00" fill="grey"> _normals</text>
<text text-anchor="middle" x="1515.75" y="-178.92" font-family="Helvetica,sans-Serif" font-size="10.00" fill="grey">_position</text>
</g>
<!-- Node24 -->
<g id="Node000024" class="node">
<title>Node24</title>
<g id="a_Node000024"><a xlink:title=" ">
<polygon fill="white" stroke="#666666" points="1425.38,-123.42 1307.38,-123.42 1307.38,-103.42 1425.38,-103.42 1425.38,-123.42"/>
<text text-anchor="middle" x="1366.38" y="-109.92" font-family="Helvetica,sans-Serif" font-size="10.00">std::vector&lt; unsigned &gt;</text>
</a>
</g>
</g>
<!-- Node24&#45;&gt;Node5 -->
<g id="edge32_Node000005_Node000024" class="edge">
<title>Node24&#45;&gt;Node5</title>
<g id="a_edge32_Node000005_Node000024"><a xlink:title=" ">
<path fill="none" stroke="#9a32cd" stroke-dasharray="5,2" d="M1436.8,-111.83C1475.1,-113.66 1522.38,-120.5 1560,-140.42 1597.35,-160.2 1626.48,-203.41 1638.39,-223.18"/>
<polygon fill="#9a32cd" stroke="#9a32cd" points="1437.37,-108.35 1427.25,-111.49 1437.12,-115.35 1437.37,-108.35"/>
</a>
</g>
<text text-anchor="middle" x="1515.75" y="-142.92" font-family="Helvetica,sans-Serif" font-size="10.00" fill="grey"> _rgbColor</text>
</g>
<!-- Node25 -->
<g id="Node000025" class="node">
<title>Node25</title>
<g id="a_Node000025"><a xlink:title=" ">
<polygon fill="white" stroke="#666666" points="2194.5,-306.42 2050.25,-306.42 2050.25,-274.42 2194.5,-274.42 2194.5,-306.42"/>
<text text-anchor="start" x="2058.25" y="-292.92" font-family="Helvetica,sans-Serif" font-size="10.00">std::vector&lt; GEU::PointCloud</text>
<text text-anchor="middle" x="2122.38" y="-280.92" font-family="Helvetica,sans-Serif" font-size="10.00">::Meshlet &gt;</text>
</a>
</g>
</g>
<!-- Node25&#45;&gt;Node5 -->
<g id="edge33_Node000005_Node000025" class="edge">
<title>Node25&#45;&gt;Node5</title>
<g id="a_edge33_Node000005_Node000025"><a xlink:title=" ">
<path fill="none" stroke="#9a32cd" stroke-dasharray="5,2" d="M2038.62,-281.55C1959.45,-272.91 1836.72,-259.1 1730.5,-245.42 1717.61,-243.76 1703.62,-241.83 1690.82,-240"/>
<polygon fill="#9a32cd" stroke="#9a32cd" points="2038.15,-285.02 2048.47,-282.62 2038.91,-278.06 2038.15,-285.02"/>
</a>
</g>
<text text-anchor="middle" x="1896" y="-275.92" font-family="Helvetica,sans-Serif" font-size="10.00" fill="grey"> _meshlets</text>
</g>
<!-- Node26&#45;&gt;Node25 -->
<g id="edge34_Node000025_Node000026" class="edge">
<title>Node26&#45;&gt;Node25</title>
<g id="a_edge34_Node000025_Node000026"><a xlink:title=" ">
<path fill="none" stroke="#9a32cd" stroke-dasharray="5,2" d="M1966.74,-317.99C1993.16,-313.28 2023.27,-307.91 2049.85,-303.18"/>
<polygon fill="#9a32cd" stroke="#9a32cd" points="1966.38,-314.5 1957.15,-319.7 1967.61,-321.39 1966.38,-314.5"/>
</a>
</g>
<text text-anchor="middle" x="2010.88" y="-314.92" font-family="Helvetica,sans-Serif" font-size="10.00" fill="grey"> elements</text>
</g>
<!-- Node27 -->
<g id="Node000027" class="node">
<title>Node27</title>
<g id="a_Node000027"><a xlink:title=" ">
<polygon fill="white" stroke="#666666" points="1712.5,-481.42 1578,-481.42 1578,-437.42 1712.5,-437.42 1712.5,-481.42"/>
<text text-anchor="start" x="1586" y="-467.92" font-family="Helvetica,sans-Serif" font-size="10.00">std::array&lt; std::vector</text>
<text text-anchor="start" x="1586" y="-455.92" font-family="Helvetica,sans-Serif" font-size="10.00">&lt; dataState &gt;, NUM_DATA</text>
<text text-anchor="middle" x="1645.25" y="-443.92" font-family="Helvetica,sans-Serif" font-size="10.00">_SOURCES &gt;</text>
</a>
</g>
</g>
<!-- Node27&#45;&gt;Node26 -->
<g id="edge37_Node000026_Node000027" class="edge">
<title>Node27&#45;&gt;Node26</title>
<g id="a_edge37_Node000026_Node000027"><a xlink:title=" ">
<path fill="none" stroke="#9a32cd" stroke-dasharray="5,2" d="M1699.48,-431.82C1754.33,-403.38 1836.99,-360.51 1874.82,-340.89"/>
<polygon fill="#9a32cd" stroke="#9a32cd" points="1698.19,-428.55 1690.92,-436.26 1701.41,-434.76 1698.19,-428.55"/>
</a>
</g>
<text text-anchor="middle" x="1766.5" y="-415.92" font-family="Helvetica,sans-Serif" font-size="10.00" fill="grey"> fusionDataState</text>
</g>
<!-- Node28 -->
<g id="Node000028" class="node">
<title>Node28</title>
<g id="a_Node000028"><a xlink:title=" ">
<polygon fill="white" stroke="#666666" points="1426.88,-574.42 1305.88,-574.42 1305.88,-554.42 1426.88,-554.42 1426.88,-574.42"/>
<text text-anchor="middle" x="1366.38" y="-560.92" font-family="Helvetica,sans-Serif" font-size="10.00">std::vector&lt; dataState &gt;</text>
</a>
</g>
</g>
<!-- Node28&#45;&gt;Node27 -->
<g id="edge38_Node000027_Node000028" class="edge">
<title>Node28&#45;&gt;Node27</title>
<g id="a_edge38_Node000027_Node000028"><a xlink:title=" ">
<path fill="none" stroke="#9a32cd" stroke-dasharray="5,2" d="M1438.35,-553.8C1475.7,-546.58 1521.58,-535.05 1560,-517.42 1580.34,-508.1 1601.06,-493.9 1616.87,-481.89"/>
<polygon fill="#9a32cd" stroke="#9a32cd" points="1437.73,-550.36 1428.54,-555.63 1439.01,-557.24 1437.73,-550.36"/>
</a>
</g>
<text text-anchor="middle" x="1515.75" y="-547.92" font-family="Helvetica,sans-Serif" font-size="10.00" fill="grey"> elements</text>
</g>
<!-- Node29 -->
<g id="Node000029" class="node">
<title>Node29</title>
<g id="a_Node000029"><a xlink:title=" ">
<polygon fill="white" stroke="#666666" points="1439.25,-536.42 1293.5,-536.42 1293.5,-492.42 1439.25,-492.42 1439.25,-536.42"/>
<text text-anchor="start" x="1301.5" y="-522.92" font-family="Helvetica,sans-Serif" font-size="10.00">std::array&lt; std::vector</text>
<text text-anchor="start" x="1301.5" y="-510.92" font-family="Helvetica,sans-Serif" font-size="10.00">&lt; std::vector&lt; float &gt;</text>
<text text-anchor="middle" x="1366.38" y="-498.92" font-family="Helvetica,sans-Serif" font-size="10.00"> &gt;, NUM_DATA_SOURCES &gt;</text>
</a>
</g>
</g>
<!-- Node29&#45;&gt;Node5 -->
<g id="edge39_Node000005_Node000029" class="edge">
<title>Node29&#45;&gt;Node5</title>
<g id="a_edge39_Node000005_Node000029"><a xlink:title=" ">
<path fill="none" stroke="#9a32cd" stroke-dasharray="5,2" d="M1450.74,-501.92C1498.79,-494.02 1551.37,-483.94 1560,-476.42 1562.36,-474.37 1625.09,-289.86 1640.74,-243.77"/>
<polygon fill="#9a32cd" stroke="#9a32cd" points="1450.42,-498.42 1441.11,-503.48 1451.54,-505.33 1450.42,-498.42"/>
</a>
</g>
<text text-anchor="middle" x="1515.75" y="-499.92" font-family="Helvetica,sans-Serif" font-size="10.00" fill="grey"> _fusionData</text>
</g>
<!-- Node30 -->
<g id="Node000030" class="node">
<title>Node30</title>
<g id="a_Node000030"><a xlink:title=" ">
<polygon fill="white" stroke="#666666" points="1160,-530.42 1045,-530.42 1045,-498.42 1160,-498.42 1160,-530.42"/>
<text text-anchor="start" x="1053" y="-516.92" font-family="Helvetica,sans-Serif" font-size="10.00">std::vector&lt; std::vector</text>
<text text-anchor="middle" x="1102.5" y="-504.92" font-family="Helvetica,sans-Serif" font-size="10.00">&lt; float &gt; &gt;</text>
</a>
</g>
</g>
<!-- Node30&#45;&gt;Node29 -->
<g id="edge40_Node000029_Node000030" class="edge">
<title>Node30&#45;&gt;Node29</title>
<g id="a_edge40_Node000029_Node000030"><a xlink:title=" ">
<path fill="none" stroke="#9a32cd" stroke-dasharray="5,2" d="M1171.61,-514.42C1208.95,-514.42 1255.23,-514.42 1293.19,-514.42"/>
<polygon fill="#9a32cd" stroke="#9a32cd" points="1171.84,-510.92 1161.84,-514.42 1171.84,-517.92 1171.84,-510.92"/>
</a>
</g>
<text text-anchor="middle" x="1219.62" y="-516.92" font-family="Helvetica,sans-Serif" font-size="10.00" fill="grey"> elements</text>
</g>
<!-- Node31 -->
<g id="Node000031" class="node">
<title>Node31</title>
<g id="a_Node000031"><a xlink:title=" ">
<polygon fill="white" stroke="#666666" points="912.62,-524.42 815.62,-524.42 815.62,-504.42 912.62,-504.42 912.62,-524.42"/>
<text text-anchor="middle" x="864.12" y="-510.92" font-family="Helvetica,sans-Serif" font-size="10.00">std::vector&lt; float &gt;</text>
</a>
</g>
</g>
<!-- Node31&#45;&gt;Node30 -->
<g id="edge41_Node000030_Node000031" class="edge">
<title>Node31&#45;&gt;Node30</title>
<g id="a_edge41_Node000030_Node000031"><a xlink:title=" ">
<path fill="none" stroke="#9a32cd" stroke-dasharray="5,2" d="M924.04,-514.42C960.89,-514.42 1008.11,-514.42 1044.57,-514.42"/>
<polygon fill="#9a32cd" stroke="#9a32cd" points="924.47,-510.92 914.47,-514.42 924.47,-517.92 924.47,-510.92"/>
</a>
</g>
<text text-anchor="middle" x="983.88" y="-516.92" font-family="Helvetica,sans-Serif" font-size="10.00" fill="grey"> elements</text>
</g>
<!-- Node32 -->
<g id="Node000032" class="node">
<title>Node32</title>
<g id="a_Node000032"><a xlink:title=" ">
<polygon fill="white" stroke="#666666" points="1453.5,-474.42 1279.25,-474.42 1279.25,-442.42 1453.5,-442.42 1453.5,-474.42"/>
<text text-anchor="start" x="1287.25" y="-460.92" font-family="Helvetica,sans-Serif" font-size="10.00">std::array&lt; std::vector</text>
<text text-anchor="middle" x="1366.38" y="-448.92" font-family="Helvetica,sans-Serif" font-size="10.00">&lt; vec2 &gt;, NUM_DATA_SOURCES &gt;</text>
</a>
</g>
</g>
<!-- Node32&#45;&gt;Node5 -->
<g id="edge42_Node000005_Node000032" class="edge">
<title>Node32&#45;&gt;Node5</title>
<g id="a_edge42_Node000005_Node000032"><a xlink:title=" ">
<path fill="none" stroke="#9a32cd" stroke-dasharray="5,2" d="M1464.8,-461.68C1497.87,-458.28 1533.19,-449.18 1560,-428.42 1622.41,-380.12 1639.35,-276.31 1643.23,-243.55"/>
<polygon fill="#9a32cd" stroke="#9a32cd" points="1464.86,-458.16 1455.19,-462.49 1465.45,-465.14 1464.86,-458.16"/>
</a>
</g>
<text text-anchor="middle" x="1515.75" y="-462.92" font-family="Helvetica,sans-Serif" font-size="10.00" fill="grey"> _fusionDataMinMax</text>
</g>
<!-- Node33 -->
<g id="Node000033" class="node">
<title>Node33</title>
<g id="a_Node000033"><a xlink:title=" ">
<polygon fill="white" stroke="#666666" points="1151.75,-468.42 1053.25,-468.42 1053.25,-448.42 1151.75,-448.42 1151.75,-468.42"/>
<text text-anchor="middle" x="1102.5" y="-454.92" font-family="Helvetica,sans-Serif" font-size="10.00">std::vector&lt; vec2 &gt;</text>
</a>
</g>
</g>
<!-- Node33&#45;&gt;Node32 -->
<g id="edge43_Node000032_Node000033" class="edge">
<title>Node33&#45;&gt;Node32</title>
<g id="a_edge43_Node000032_Node000033"><a xlink:title=" ">
<path fill="none" stroke="#9a32cd" stroke-dasharray="5,2" d="M1163.36,-458.42C1197.54,-458.42 1240.99,-458.42 1278.83,-458.42"/>
<polygon fill="#9a32cd" stroke="#9a32cd" points="1163.66,-454.92 1153.66,-458.42 1163.66,-461.92 1163.66,-454.92"/>
</a>
</g>
<text text-anchor="middle" x="1219.62" y="-460.92" font-family="Helvetica,sans-Serif" font-size="10.00" fill="grey"> elements</text>
</g>
<!-- Node34 -->
<g id="Node000034" class="node">
<title>Node34</title>
<g id="a_Node000034"><a xlink:title=" ">
<polygon fill="white" stroke="#666666" points="2189.25,-238.42 2055.5,-238.42 2055.5,-206.42 2189.25,-206.42 2189.25,-238.42"/>
<text text-anchor="start" x="2063.5" y="-224.92" font-family="Helvetica,sans-Serif" font-size="10.00">std::vector&lt; std::unique</text>
<text text-anchor="middle" x="2122.38" y="-212.92" font-family="Helvetica,sans-Serif" font-size="10.00">_ptr&lt; GEU::PointCloud &gt; &gt;</text>
</a>
</g>
</g>
<!-- Node34&#45;&gt;Node5 -->
<g id="edge44_Node000005_Node000034" class="edge">
<title>Node34&#45;&gt;Node5</title>
<g id="a_edge44_Node000005_Node000034"><a xlink:title=" ">
<path fill="none" stroke="#9a32cd" stroke-dasharray="5,2" d="M2043.91,-224.22C1943.37,-226.55 1771.27,-230.53 1690.52,-232.4"/>
<polygon fill="#9a32cd" stroke="#9a32cd" points="2043.78,-227.72 2053.69,-223.99 2043.61,-220.72 2043.78,-227.72"/>
</a>
</g>
<text text-anchor="middle" x="1896" y="-231.92" font-family="Helvetica,sans-Serif" font-size="10.00" fill="grey"> _subClouds</text>
</g>
<!-- Node35&#45;&gt;Node34 -->
<g id="edge45_Node000034_Node000035" class="edge">
<title>Node35&#45;&gt;Node34</title>
<g id="a_edge45_Node000034_Node000035"><a xlink:title=" ">
<path fill="none" stroke="#9a32cd" stroke-dasharray="5,2" d="M1962.91,-192.76C1992.02,-198.21 2026.18,-204.6 2055.31,-210.06"/>
<polygon fill="#9a32cd" stroke="#9a32cd" points="1963.56,-189.32 1953.09,-190.92 1962.27,-196.2 1963.56,-189.32"/>
</a>
</g>
<text text-anchor="middle" x="2010.88" y="-207.92" font-family="Helvetica,sans-Serif" font-size="10.00" fill="grey"> elements</text>
</g>
</g>
</svg>
