<?xml version="1.0" encoding="UTF-8" standalone="no"?>
<!DOCTYPE svg PUBLIC "-//W3C//DTD SVG 1.1//EN"
 "http://www.w3.org/Graphics/SVG/1.1/DTD/svg11.dtd">
<!-- Generated by graphviz version 10.0.1 (20240210.2158)
 -->
<!-- Title: C:/GitHub/GEU/GEU/Source/Core/Renderer.cpp Pages: 1 -->
<svg width="4360pt" height="164pt"
 viewBox="0.00 0.00 4359.50 164.00" xmlns="http://www.w3.org/2000/svg" xmlns:xlink="http://www.w3.org/1999/xlink">
<g id="graph0" class="graph" transform="scale(1 1) rotate(0) translate(4 160)">
<title>C:/GitHub/GEU/GEU/Source/Core/Renderer.cpp</title>
<!-- Node1 -->
<g id="Node000001" class="node">
<title>Node1</title>
<g id="a_Node000001"><a xlink:title=" ">
<polygon fill="#999999" stroke="#666666" points="3797,-156 3656.5,-156 3656.5,-124 3797,-124 3797,-156"/>
<text text-anchor="start" x="3664.5" y="-142.5" font-family="Helvetica,sans-Serif" font-size="10.00">C:/GitHub/GEU/GEU/Source</text>
<text text-anchor="middle" x="3726.75" y="-130.5" font-family="Helvetica,sans-Serif" font-size="10.00">/Core/Renderer.cpp</text>
</a>
</g>
</g>
<!-- Node2 -->
<g id="Node000002" class="node">
<title>Node2</title>
<g id="a_Node000002"><a xlink:href="../../db/d06/stdafx_8h.html" target="_top" xlink:title=" ">
<polygon fill="#fff0f0" stroke="red" points="1389,-88 1338.5,-88 1338.5,-68 1389,-68 1389,-88"/>
<text text-anchor="middle" x="1363.75" y="-74.5" font-family="Helvetica,sans-Serif" font-size="10.00">stdafx.h</text>
</a>
</g>
</g>
<!-- Node1&#45;&gt;Node2 -->
<g id="edge1_Node000001_Node000002" class="edge">
<title>Node1&#45;&gt;Node2</title>
<g id="a_edge1_Node000001_Node000002"><a xlink:title=" ">
<path fill="none" stroke="#63b8ff" d="M3656.03,-137.2C3295.28,-128.04 1666.72,-86.69 1400.58,-79.94"/>
<polygon fill="#63b8ff" stroke="#63b8ff" points="1400.88,-76.44 1390.8,-79.69 1400.71,-83.44 1400.88,-76.44"/>
</a>
</g>
</g>
<!-- Node46 -->
<g id="Node000046" class="node">
<title>Node46</title>
<g id="a_Node000046"><a xlink:href="../../d3/da0/_renderer_8h.html" target="_top" xlink:title=" ">
<polygon fill="#fff0f0" stroke="red" points="3476,-88 3389.5,-88 3389.5,-68 3476,-68 3476,-88"/>
<text text-anchor="middle" x="3432.75" y="-74.5" font-family="Helvetica,sans-Serif" font-size="10.00">Core/Renderer.h</text>
</a>
</g>
</g>
<!-- Node1&#45;&gt;Node46 -->
<g id="edge39_Node000001_Node000046" class="edge">
<title>Node1&#45;&gt;Node46</title>
<g id="a_edge39_Node000001_Node000046"><a xlink:title=" ">
<path fill="none" stroke="#63b8ff" d="M3656.33,-124.63C3604.43,-114.04 3534.86,-99.84 3487.19,-90.11"/>
<polygon fill="#63b8ff" stroke="#63b8ff" points="3488.15,-86.73 3477.65,-88.16 3486.75,-93.59 3488.15,-86.73"/>
</a>
</g>
</g>
<!-- Node84 -->
<g id="Node000084" class="node">
<title>Node84</title>
<g id="a_Node000084"><a xlink:href="../../da/d09/_input_manager_8h.html" target="_top" xlink:title=" ">
<polygon fill="#fff0f0" stroke="red" points="3447.12,-26 3364.38,-26 3364.38,-6 3447.12,-6 3447.12,-26"/>
<text text-anchor="middle" x="3405.75" y="-12.5" font-family="Helvetica,sans-Serif" font-size="10.00">InputManager.h</text>
</a>
</g>
</g>
<!-- Node1&#45;&gt;Node84 -->
<g id="edge46_Node000001_Node000084" class="edge">
<title>Node1&#45;&gt;Node84</title>
<g id="a_edge46_Node000001_Node000084"><a xlink:title=" ">
<path fill="none" stroke="#63b8ff" d="M3656.34,-139.01C3565.69,-137.36 3415.62,-128.39 3380.75,-88 3367.74,-72.93 3379.07,-50.64 3390.38,-35.07"/>
<polygon fill="#63b8ff" stroke="#63b8ff" points="3392.85,-37.59 3396.27,-27.56 3387.34,-33.27 3392.85,-37.59"/>
</a>
</g>
</g>
<!-- Node85 -->
<g id="Node000085" class="node">
<title>Node85</title>
<g id="a_Node000085"><a xlink:href="../../d0/d0b/_compute_shader_8h.html" target="_top" xlink:title=" ">
<polygon fill="#fff0f0" stroke="red" points="3598.25,-26 3465.25,-26 3465.25,-6 3598.25,-6 3598.25,-26"/>
<text text-anchor="middle" x="3531.75" y="-12.5" font-family="Helvetica,sans-Serif" font-size="10.00">Shaders/ComputeShader.h</text>
</a>
</g>
</g>
<!-- Node1&#45;&gt;Node85 -->
<g id="edge44_Node000001_Node000085" class="edge">
<title>Node1&#45;&gt;Node85</title>
<g id="a_edge44_Node000001_Node000085"><a xlink:title=" ">
<path fill="none" stroke="#63b8ff" d="M3656.01,-130.6C3603.86,-122.78 3539.23,-109.11 3522.75,-88 3511.54,-73.64 3516.12,-52.44 3522.09,-36.94"/>
<polygon fill="#63b8ff" stroke="#63b8ff" points="3525.28,-38.37 3526.07,-27.8 3518.87,-35.57 3525.28,-38.37"/>
</a>
</g>
</g>
<!-- Node86 -->
<g id="Node000086" class="node">
<title>Node86</title>
<g id="a_Node000086"><a xlink:title=" ">
<polygon fill="#e0e0e0" stroke="#999999" points="3577.38,-88 3532.12,-88 3532.12,-68 3577.38,-68 3577.38,-88"/>
<text text-anchor="middle" x="3554.75" y="-74.5" font-family="Helvetica,sans-Serif" font-size="10.00">ranges</text>
</a>
</g>
</g>
<!-- Node1&#45;&gt;Node86 -->
<g id="edge42_Node000001_Node000086" class="edge">
<title>Node1&#45;&gt;Node86</title>
<g id="a_edge42_Node000001_Node000086"><a xlink:title=" ">
<path fill="none" stroke="#63b8ff" d="M3682.46,-123.55C3653.19,-113.34 3615.43,-100.17 3588.57,-90.8"/>
<polygon fill="#63b8ff" stroke="#63b8ff" points="3589.81,-87.52 3579.22,-87.54 3587.51,-94.13 3589.81,-87.52"/>
</a>
</g>
</g>
<!-- Node87 -->
<g id="Node000087" class="node">
<title>Node87</title>
<g id="a_Node000087"><a xlink:title=" ">
<polygon fill="#e0e0e0" stroke="#999999" points="3717.62,-88 3595.88,-88 3595.88,-68 3717.62,-68 3717.62,-88"/>
<text text-anchor="middle" x="3656.75" y="-74.5" font-family="Helvetica,sans-Serif" font-size="10.00">pcl/impl/point_types.hpp</text>
</a>
</g>
</g>
<!-- Node1&#45;&gt;Node87 -->
<g id="edge43_Node000001_Node000087" class="edge">
<title>Node1&#45;&gt;Node87</title>
<g id="a_edge43_Node000001_Node000087"><a xlink:title=" ">
<path fill="none" stroke="#63b8ff" d="M3708.72,-123.55C3698.8,-115.04 3686.47,-104.48 3676.31,-95.77"/>
<polygon fill="#63b8ff" stroke="#63b8ff" points="3678.75,-93.24 3668.88,-89.39 3674.19,-98.56 3678.75,-93.24"/>
</a>
</g>
</g>
<!-- Node88 -->
<g id="Node000088" class="node">
<title>Node88</title>
<g id="a_Node000088"><a xlink:href="../../d4/d84/_chrono_utilities_8h.html" target="_top" xlink:title=" ">
<polygon fill="#fff0f0" stroke="red" points="3858,-88 3735.5,-88 3735.5,-68 3858,-68 3858,-88"/>
<text text-anchor="middle" x="3796.75" y="-74.5" font-family="Helvetica,sans-Serif" font-size="10.00">Utilities/ChronoUtilities.h</text>
</a>
</g>
</g>
<!-- Node1&#45;&gt;Node88 -->
<g id="edge45_Node000001_Node000088" class="edge">
<title>Node1&#45;&gt;Node88</title>
<g id="a_edge45_Node000001_Node000088"><a xlink:title=" ">
<path fill="none" stroke="#63b8ff" d="M3744.78,-123.55C3754.7,-115.04 3767.03,-104.48 3777.19,-95.77"/>
<polygon fill="#63b8ff" stroke="#63b8ff" points="3779.31,-98.56 3784.62,-89.39 3774.75,-93.24 3779.31,-98.56"/>
</a>
</g>
</g>
<!-- Node58 -->
<g id="Node000058" class="node">
<title>Node58</title>
<g id="a_Node000058"><a xlink:href="../../d1/dfb/_lines_model_8h.html" target="_top" xlink:title=" ">
<polygon fill="#fff0f0" stroke="red" points="4270.62,-26 4196.88,-26 4196.88,-6 4270.62,-6 4270.62,-26"/>
<text text-anchor="middle" x="4233.75" y="-12.5" font-family="Helvetica,sans-Serif" font-size="10.00">LinesModel.h</text>
</a>
</g>
</g>
<!-- Node1&#45;&gt;Node58 -->
<g id="edge47_Node000001_Node000058" class="edge">
<title>Node1&#45;&gt;Node58</title>
<g id="a_edge47_Node000001_Node000058"><a xlink:title=" ">
<path fill="none" stroke="#63b8ff" d="M3797.5,-134.25C3897.11,-126.86 4073.2,-111.02 4132.75,-88 4149.78,-81.42 4188.88,-52.15 4213.13,-33.3"/>
<polygon fill="#63b8ff" stroke="#63b8ff" points="4215.01,-36.28 4220.72,-27.36 4210.69,-30.77 4215.01,-36.28"/>
</a>
</g>
</g>
<!-- Node90 -->
<g id="Node000090" class="node">
<title>Node90</title>
<g id="a_Node000090"><a xlink:href="../../dc/de5/_material_list_8h.html" target="_top" xlink:title=" ">
<polygon fill="#fff0f0" stroke="red" points="4124,-88 4049.5,-88 4049.5,-68 4124,-68 4124,-88"/>
<text text-anchor="middle" x="4086.75" y="-74.5" font-family="Helvetica,sans-Serif" font-size="10.00">MaterialList.h</text>
</a>
</g>
</g>
<!-- Node1&#45;&gt;Node90 -->
<g id="edge48_Node000001_Node000090" class="edge">
<title>Node1&#45;&gt;Node90</title>
<g id="a_edge48_Node000001_Node000090"><a xlink:title=" ">
<path fill="none" stroke="#63b8ff" d="M3797.39,-128.06C3858.35,-118.49 3949.05,-103.94 4037.95,-88.28"/>
<polygon fill="#63b8ff" stroke="#63b8ff" points="4038.33,-91.77 4047.57,-86.58 4037.11,-84.87 4038.33,-91.77"/>
</a>
</g>
</g>
<!-- Node56 -->
<g id="Node000056" class="node">
<title>Node56</title>
<g id="a_Node000056"><a xlink:href="../../dc/d05/_point_cloud_8h.html" target="_top" xlink:title=" ">
<polygon fill="#fff0f0" stroke="red" points="4351.5,-88 4280,-88 4280,-68 4351.5,-68 4351.5,-88"/>
<text text-anchor="middle" x="4315.75" y="-74.5" font-family="Helvetica,sans-Serif" font-size="10.00">PointCloud.h</text>
</a>
</g>
</g>
<!-- Node1&#45;&gt;Node56 -->
<g id="edge49_Node000001_Node000056" class="edge">
<title>Node1&#45;&gt;Node56</title>
<g id="a_edge49_Node000001_Node000056"><a xlink:title=" ">
<path fill="none" stroke="#63b8ff" d="M3797.45,-134.73C3899.31,-128.05 4093.44,-113.38 4268.7,-88.15"/>
<polygon fill="#63b8ff" stroke="#63b8ff" points="4269.06,-91.63 4278.45,-86.73 4268.05,-84.71 4269.06,-91.63"/>
</a>
</g>
</g>
<!-- Node91 -->
<g id="Node000091" class="node">
<title>Node91</title>
<g id="a_Node000091"><a xlink:href="../../df/d79/_triangle_mesh_8h.html" target="_top" xlink:title=" ">
<polygon fill="#fff0f0" stroke="red" points="4261.75,-88 4179.75,-88 4179.75,-68 4261.75,-68 4261.75,-88"/>
<text text-anchor="middle" x="4220.75" y="-74.5" font-family="Helvetica,sans-Serif" font-size="10.00">TriangleMesh.h</text>
</a>
</g>
</g>
<!-- Node1&#45;&gt;Node91 -->
<g id="edge51_Node000001_Node000091" class="edge">
<title>Node1&#45;&gt;Node91</title>
<g id="a_edge51_Node000001_Node000091"><a xlink:title=" ">
<path fill="none" stroke="#63b8ff" d="M3797.21,-131.84C3884.03,-122.77 4036,-106.14 4165.75,-88 4166.58,-87.88 4167.41,-87.77 4168.25,-87.65"/>
<polygon fill="#63b8ff" stroke="#63b8ff" points="4168.47,-91.15 4177.84,-86.21 4167.43,-84.23 4168.47,-91.15"/>
</a>
</g>
</g>
<!-- Node94 -->
<g id="Node000094" class="node">
<title>Node94</title>
<g id="a_Node000094"><a xlink:href="../../dc/d38/_shader_manager_8h.html" target="_top" xlink:title=" ">
<polygon fill="#fff0f0" stroke="red" points="4031.12,-88 3876.38,-88 3876.38,-68 4031.12,-68 4031.12,-88"/>
<text text-anchor="middle" x="3953.75" y="-74.5" font-family="Helvetica,sans-Serif" font-size="10.00">Core/Shaders/ShaderManager.h</text>
</a>
</g>
</g>
<!-- Node1&#45;&gt;Node94 -->
<g id="edge52_Node000001_Node000094" class="edge">
<title>Node1&#45;&gt;Node94</title>
<g id="a_edge52_Node000001_Node000094"><a xlink:title=" ">
<path fill="none" stroke="#63b8ff" d="M3785.21,-123.55C3823.02,-113.55 3871.59,-100.72 3906.87,-91.39"/>
<polygon fill="#63b8ff" stroke="#63b8ff" points="3907.59,-94.82 3916.36,-88.88 3905.8,-88.05 3907.59,-94.82"/>
</a>
</g>
</g>
<!-- Node3 -->
<g id="Node000003" class="node">
<title>Node3</title>
<g id="a_Node000003"><a xlink:title=" ">
<polygon fill="#e0e0e0" stroke="#999999" points="3208.38,-26 3163.12,-26 3163.12,-6 3208.38,-6 3208.38,-26"/>
<text text-anchor="middle" x="3185.75" y="-12.5" font-family="Helvetica,sans-Serif" font-size="10.00">cstdint</text>
</a>
</g>
</g>
<!-- Node2&#45;&gt;Node3 -->
<g id="edge2_Node000002_Node000003" class="edge">
<title>Node2&#45;&gt;Node3</title>
<g id="a_edge2_Node000002_Node000003"><a xlink:title=" ">
<path fill="none" stroke="#63b8ff" d="M1389.25,-77.01C1594.61,-77.01 2975.75,-75.41 3154.75,-32 3156.16,-31.66 3157.57,-31.25 3158.99,-30.79"/>
<polygon fill="#63b8ff" stroke="#63b8ff" points="3160.19,-34.07 3168.11,-27.03 3157.53,-27.6 3160.19,-34.07"/>
</a>
</g>
</g>
<!-- Node4 -->
<g id="Node000004" class="node">
<title>Node4</title>
<g id="a_Node000004"><a xlink:title=" ">
<polygon fill="#e0e0e0" stroke="#999999" points="3271,-26 3226.5,-26 3226.5,-6 3271,-6 3271,-26"/>
<text text-anchor="middle" x="3248.75" y="-12.5" font-family="Helvetica,sans-Serif" font-size="10.00">cstdlib</text>
</a>
</g>
</g>
<!-- Node2&#45;&gt;Node4 -->
<g id="edge3_Node000002_Node000004" class="edge">
<title>Node2&#45;&gt;Node4</title>
<g id="a_edge3_Node000002_Node000004"><a xlink:title=" ">
<path fill="none" stroke="#63b8ff" d="M1389.47,-77.03C1599.71,-77.23 3032.24,-76.9 3217.75,-32 3219.16,-31.66 3220.57,-31.25 3221.99,-30.79"/>
<polygon fill="#63b8ff" stroke="#63b8ff" points="3223.19,-34.08 3231.11,-27.03 3220.53,-27.6 3223.19,-34.08"/>
</a>
</g>
</g>
<!-- Node5 -->
<g id="Node000005" class="node">
<title>Node5</title>
<g id="a_Node000005"><a xlink:title=" ">
<polygon fill="#e0e0e0" stroke="#999999" points="3346.75,-26 3288.75,-26 3288.75,-6 3346.75,-6 3346.75,-26"/>
<text text-anchor="middle" x="3317.75" y="-12.5" font-family="Helvetica,sans-Serif" font-size="10.00">execution</text>
</a>
</g>
</g>
<!-- Node2&#45;&gt;Node5 -->
<g id="edge4_Node000002_Node000005" class="edge">
<title>Node2&#45;&gt;Node5</title>
<g id="a_edge4_Node000002_Node000005"><a xlink:title=" ">
<path fill="none" stroke="#63b8ff" d="M1389.29,-76.94C1602.68,-76.4 3086.12,-71.19 3279.75,-32 3282.09,-31.53 3284.46,-30.92 3286.83,-30.22"/>
<polygon fill="#63b8ff" stroke="#63b8ff" points="3287.92,-33.55 3296.21,-26.96 3285.62,-26.94 3287.92,-33.55"/>
</a>
</g>
</g>
<!-- Node6 -->
<g id="Node000006" class="node">
<title>Node6</title>
<g id="a_Node000006"><a xlink:title=" ">
<polygon fill="#e0e0e0" stroke="#999999" points="53.5,-26 0,-26 0,-6 53.5,-6 53.5,-26"/>
<text text-anchor="middle" x="26.75" y="-12.5" font-family="Helvetica,sans-Serif" font-size="10.00">iostream</text>
</a>
</g>
</g>
<!-- Node2&#45;&gt;Node6 -->
<g id="edge5_Node000002_Node000006" class="edge">
<title>Node2&#45;&gt;Node6</title>
<g id="a_edge5_Node000002_Node000006"><a xlink:title=" ">
<path fill="none" stroke="#63b8ff" d="M1338.08,-76.67C1166.72,-74.36 191.58,-60.09 62.75,-32 60.71,-31.55 58.63,-31 56.56,-30.36"/>
<polygon fill="#63b8ff" stroke="#63b8ff" points="57.78,-27.08 47.19,-26.94 55.38,-33.66 57.78,-27.08"/>
</a>
</g>
</g>
<!-- Node7 -->
<g id="Node000007" class="node">
<title>Node7</title>
<g id="a_Node000007"><a xlink:title=" ">
<polygon fill="#e0e0e0" stroke="#999999" points="131.88,-26 71.62,-26 71.62,-6 131.88,-6 131.88,-26"/>
<text text-anchor="middle" x="101.75" y="-12.5" font-family="Helvetica,sans-Serif" font-size="10.00">filesystem</text>
</a>
</g>
</g>
<!-- Node2&#45;&gt;Node7 -->
<g id="edge6_Node000002_Node000007" class="edge">
<title>Node2&#45;&gt;Node7</title>
<g id="a_edge6_Node000002_Node000007"><a xlink:title=" ">
<path fill="none" stroke="#63b8ff" d="M1338.42,-77.2C1185.24,-78.25 381.42,-81.28 140.75,-32 138.27,-31.49 135.74,-30.84 133.21,-30.1"/>
<polygon fill="#63b8ff" stroke="#63b8ff" points="134.44,-26.82 123.85,-26.89 132.18,-33.44 134.44,-26.82"/>
</a>
</g>
</g>
<!-- Node8 -->
<g id="Node000008" class="node">
<title>Node8</title>
<g id="a_Node000008"><a xlink:title=" ">
<polygon fill="#e0e0e0" stroke="#999999" points="193.25,-26 150.25,-26 150.25,-6 193.25,-6 193.25,-26"/>
<text text-anchor="middle" x="171.75" y="-12.5" font-family="Helvetica,sans-Serif" font-size="10.00">format</text>
</a>
</g>
</g>
<!-- Node2&#45;&gt;Node8 -->
<g id="edge7_Node000002_Node000008" class="edge">
<title>Node2&#45;&gt;Node8</title>
<g id="a_edge7_Node000002_Node000008"><a xlink:title=" ">
<path fill="none" stroke="#63b8ff" d="M1338.04,-76.63C1177.55,-74.27 316.26,-60.34 202.75,-32 201.35,-31.65 199.93,-31.23 198.52,-30.76"/>
<polygon fill="#63b8ff" stroke="#63b8ff" points="199.98,-27.58 189.4,-26.99 197.31,-34.05 199.98,-27.58"/>
</a>
</g>
</g>
<!-- Node9 -->
<g id="Node000009" class="node">
<title>Node9</title>
<g id="a_Node000009"><a xlink:title=" ">
<polygon fill="#e0e0e0" stroke="#999999" points="259.88,-26 211.62,-26 211.62,-6 259.88,-6 259.88,-26"/>
<text text-anchor="middle" x="235.75" y="-12.5" font-family="Helvetica,sans-Serif" font-size="10.00">fstream</text>
</a>
</g>
</g>
<!-- Node2&#45;&gt;Node9 -->
<g id="edge8_Node000002_Node000009" class="edge">
<title>Node2&#45;&gt;Node9</title>
<g id="a_edge8_Node000002_Node000009"><a xlink:title=" ">
<path fill="none" stroke="#63b8ff" d="M1338.28,-77.28C1194.31,-78.63 481.37,-82.65 268.75,-32 267.1,-31.61 265.44,-31.13 263.78,-30.6"/>
<polygon fill="#63b8ff" stroke="#63b8ff" points="265.11,-27.36 254.52,-26.95 262.55,-33.87 265.11,-27.36"/>
</a>
</g>
</g>
<!-- Node10 -->
<g id="Node000010" class="node">
<title>Node10</title>
<g id="a_Node000010"><a xlink:title=" ">
<polygon fill="#e0e0e0" stroke="#999999" points="335.38,-26 278.12,-26 278.12,-6 335.38,-6 335.38,-26"/>
<text text-anchor="middle" x="306.75" y="-12.5" font-family="Helvetica,sans-Serif" font-size="10.00">functional</text>
</a>
</g>
</g>
<!-- Node2&#45;&gt;Node10 -->
<g id="edge9_Node000002_Node000010" class="edge">
<title>Node2&#45;&gt;Node10</title>
<g id="a_edge9_Node000002_Node000010"><a xlink:title=" ">
<path fill="none" stroke="#63b8ff" d="M1338.27,-77.05C1200.33,-77.12 541.83,-75.18 343.75,-32 341.57,-31.52 339.34,-30.93 337.13,-30.25"/>
<polygon fill="#63b8ff" stroke="#63b8ff" points="338.34,-26.97 327.75,-26.89 335.98,-33.56 338.34,-26.97"/>
</a>
</g>
</g>
<!-- Node11 -->
<g id="Node000011" class="node">
<title>Node11</title>
<g id="a_Node000011"><a xlink:title=" ">
<polygon fill="#e0e0e0" stroke="#999999" points="404.38,-26 353.12,-26 353.12,-6 404.38,-6 404.38,-26"/>
<text text-anchor="middle" x="378.75" y="-12.5" font-family="Helvetica,sans-Serif" font-size="10.00">memory</text>
</a>
</g>
</g>
<!-- Node2&#45;&gt;Node11 -->
<g id="edge10_Node000002_Node000011" class="edge">
<title>Node2&#45;&gt;Node11</title>
<g id="a_edge10_Node000002_Node000011"><a xlink:title=" ">
<path fill="none" stroke="#63b8ff" d="M1338.26,-77.05C1205.88,-77.14 595.96,-75.16 412.75,-32 410.98,-31.58 409.18,-31.07 407.39,-30.5"/>
<polygon fill="#63b8ff" stroke="#63b8ff" points="408.67,-27.24 398.08,-26.92 406.16,-33.78 408.67,-27.24"/>
</a>
</g>
</g>
<!-- Node12 -->
<g id="Node000012" class="node">
<title>Node12</title>
<g id="a_Node000012"><a xlink:title=" ">
<polygon fill="#e0e0e0" stroke="#999999" points="473.38,-26 422.12,-26 422.12,-6 473.38,-6 473.38,-26"/>
<text text-anchor="middle" x="447.75" y="-12.5" font-family="Helvetica,sans-Serif" font-size="10.00">sstream</text>
</a>
</g>
</g>
<!-- Node2&#45;&gt;Node12 -->
<g id="edge11_Node000002_Node000012" class="edge">
<title>Node2&#45;&gt;Node12</title>
<g id="a_edge11_Node000002_Node000012"><a xlink:title=" ">
<path fill="none" stroke="#63b8ff" d="M1338.08,-76.91C1211.34,-76.26 651.71,-71.2 482.75,-32 480.85,-31.56 478.92,-31.02 476.99,-30.41"/>
<polygon fill="#63b8ff" stroke="#63b8ff" points="478.24,-27.14 467.64,-26.89 475.77,-33.69 478.24,-27.14"/>
</a>
</g>
</g>
<!-- Node13 -->
<g id="Node000013" class="node">
<title>Node13</title>
<g id="a_Node000013"><a xlink:title=" ">
<polygon fill="#e0e0e0" stroke="#999999" points="533.88,-26 491.62,-26 491.62,-6 533.88,-6 533.88,-26"/>
<text text-anchor="middle" x="512.75" y="-12.5" font-family="Helvetica,sans-Serif" font-size="10.00">cstdio</text>
</a>
</g>
</g>
<!-- Node2&#45;&gt;Node13 -->
<g id="edge12_Node000002_Node000013" class="edge">
<title>Node2&#45;&gt;Node13</title>
<g id="a_edge12_Node000002_Node000013"><a xlink:title=" ">
<path fill="none" stroke="#63b8ff" d="M1338.19,-76.99C1216.84,-76.75 698.32,-73.25 542.75,-32 541.39,-31.64 540.02,-31.21 538.65,-30.74"/>
<polygon fill="#63b8ff" stroke="#63b8ff" points="540.42,-27.69 529.85,-26.96 537.66,-34.12 540.42,-27.69"/>
</a>
</g>
</g>
<!-- Node14 -->
<g id="Node000014" class="node">
<title>Node14</title>
<g id="a_Node000014"><a xlink:title=" ">
<polygon fill="#e0e0e0" stroke="#999999" points="595.25,-26 552.25,-26 552.25,-6 595.25,-6 595.25,-26"/>
<text text-anchor="middle" x="573.75" y="-12.5" font-family="Helvetica,sans-Serif" font-size="10.00">thread</text>
</a>
</g>
</g>
<!-- Node2&#45;&gt;Node14 -->
<g id="edge13_Node000002_Node000014" class="edge">
<title>Node2&#45;&gt;Node14</title>
<g id="a_edge13_Node000002_Node000014"><a xlink:title=" ">
<path fill="none" stroke="#63b8ff" d="M1338.23,-76.82C1222.68,-75.79 747.97,-69.33 604.75,-32 603.38,-31.64 602,-31.23 600.63,-30.76"/>
<polygon fill="#63b8ff" stroke="#63b8ff" points="602.32,-27.67 591.74,-27.08 599.64,-34.14 602.32,-27.67"/>
</a>
</g>
</g>
<!-- Node15 -->
<g id="Node000015" class="node">
<title>Node15</title>
<g id="a_Node000015"><a xlink:title=" ">
<polygon fill="#e0e0e0" stroke="#999999" points="696.12,-26 613.38,-26 613.38,-6 696.12,-6 696.12,-26"/>
<text text-anchor="middle" x="654.75" y="-12.5" font-family="Helvetica,sans-Serif" font-size="10.00">unordered_map</text>
</a>
</g>
</g>
<!-- Node2&#45;&gt;Node15 -->
<g id="edge14_Node000002_Node000015" class="edge">
<title>Node2&#45;&gt;Node15</title>
<g id="a_edge14_Node000002_Node000015"><a xlink:title=" ">
<path fill="none" stroke="#63b8ff" d="M1338.05,-77.29C1249.36,-77.88 948.17,-76.25 704.75,-32 700.93,-31.31 697,-30.43 693.08,-29.44"/>
<polygon fill="#63b8ff" stroke="#63b8ff" points="694.28,-26.14 683.71,-26.85 692.42,-32.89 694.28,-26.14"/>
</a>
</g>
</g>
<!-- Node16 -->
<g id="Node000016" class="node">
<title>Node16</title>
<g id="a_Node000016"><a xlink:title=" ">
<polygon fill="#e0e0e0" stroke="#999999" points="791.5,-26 714,-26 714,-6 791.5,-6 791.5,-26"/>
<text text-anchor="middle" x="752.75" y="-12.5" font-family="Helvetica,sans-Serif" font-size="10.00">unordered_set</text>
</a>
</g>
</g>
<!-- Node2&#45;&gt;Node16 -->
<g id="edge15_Node000002_Node000016" class="edge">
<title>Node2&#45;&gt;Node16</title>
<g id="a_edge15_Node000002_Node000016"><a xlink:title=" ">
<path fill="none" stroke="#63b8ff" d="M1338.23,-76.98C1258.19,-76.47 1005.31,-71.62 800.75,-32 797.35,-31.34 793.84,-30.52 790.35,-29.62"/>
<polygon fill="#63b8ff" stroke="#63b8ff" points="791.42,-26.28 780.84,-26.9 789.5,-33.01 791.42,-26.28"/>
</a>
</g>
</g>
<!-- Node17 -->
<g id="Node000017" class="node">
<title>Node17</title>
<g id="a_Node000017"><a xlink:title=" ">
<polygon fill="#e0e0e0" stroke="#999999" points="851.5,-26 810,-26 810,-6 851.5,-6 851.5,-26"/>
<text text-anchor="middle" x="830.75" y="-12.5" font-family="Helvetica,sans-Serif" font-size="10.00">vector</text>
</a>
</g>
</g>
<!-- Node2&#45;&gt;Node17 -->
<g id="edge16_Node000002_Node000017" class="edge">
<title>Node2&#45;&gt;Node17</title>
<g id="a_edge16_Node000002_Node000017"><a xlink:title=" ">
<path fill="none" stroke="#63b8ff" d="M1338.04,-75.97C1248.68,-72.18 952.06,-57.9 860.75,-32 859.57,-31.67 858.39,-31.29 857.2,-30.87"/>
<polygon fill="#63b8ff" stroke="#63b8ff" points="858.77,-27.73 848.2,-27 856.01,-34.16 858.77,-27.73"/>
</a>
</g>
</g>
<!-- Node18 -->
<g id="Node000018" class="node">
<title>Node18</title>
<g id="a_Node000018"><a xlink:title=" ">
<polygon fill="#e0e0e0" stroke="#999999" points="909.75,-26 869.75,-26 869.75,-6 909.75,-6 909.75,-26"/>
<text text-anchor="middle" x="889.75" y="-12.5" font-family="Helvetica,sans-Serif" font-size="10.00">future</text>
</a>
</g>
</g>
<!-- Node2&#45;&gt;Node18 -->
<g id="edge17_Node000002_Node000018" class="edge">
<title>Node2&#45;&gt;Node18</title>
<g id="a_edge17_Node000002_Node000018"><a xlink:title=" ">
<path fill="none" stroke="#63b8ff" d="M1338.02,-77.72C1268.68,-78.96 1072.82,-77.82 918.75,-32 917.75,-31.7 916.75,-31.37 915.74,-31.01"/>
<polygon fill="#63b8ff" stroke="#63b8ff" points="917.2,-27.83 906.64,-26.99 914.37,-34.23 917.2,-27.83"/>
</a>
</g>
</g>
<!-- Node19 -->
<g id="Node000019" class="node">
<title>Node19</title>
<g id="a_Node000019"><a xlink:title=" ">
<polygon fill="#e0e0e0" stroke="#999999" points="967.38,-26 928.12,-26 928.12,-6 967.38,-6 967.38,-26"/>
<text text-anchor="middle" x="947.75" y="-12.5" font-family="Helvetica,sans-Serif" font-size="10.00">utility</text>
</a>
</g>
</g>
<!-- Node2&#45;&gt;Node19 -->
<g id="edge18_Node000002_Node000019" class="edge">
<title>Node2&#45;&gt;Node19</title>
<g id="a_edge18_Node000002_Node000019"><a xlink:title=" ">
<path fill="none" stroke="#63b8ff" d="M1338.21,-77.17C1275.29,-76.93 1108.39,-72.22 976.75,-32 975.78,-31.7 974.8,-31.37 973.82,-31.02"/>
<polygon fill="#63b8ff" stroke="#63b8ff" points="975.51,-27.94 964.95,-27.1 972.68,-34.34 975.51,-27.94"/>
</a>
</g>
</g>
<!-- Node20 -->
<g id="Node000020" class="node">
<title>Node20</title>
<g id="a_Node000020"><a xlink:title=" ">
<polygon fill="#e0e0e0" stroke="#999999" points="1033.88,-26 985.62,-26 985.62,-6 1033.88,-6 1033.88,-26"/>
<text text-anchor="middle" x="1009.75" y="-12.5" font-family="Helvetica,sans-Serif" font-size="10.00">random</text>
</a>
</g>
</g>
<!-- Node2&#45;&gt;Node20 -->
<g id="edge19_Node000002_Node000020" class="edge">
<title>Node2&#45;&gt;Node20</title>
<g id="a_edge19_Node000002_Node000020"><a xlink:title=" ">
<path fill="none" stroke="#63b8ff" d="M1338.26,-75.91C1283.25,-73.02 1149.74,-63.11 1042.75,-32 1041.36,-31.59 1039.95,-31.14 1038.53,-30.65"/>
<polygon fill="#63b8ff" stroke="#63b8ff" points="1039.88,-27.42 1029.3,-26.94 1037.27,-33.91 1039.88,-27.42"/>
</a>
</g>
</g>
<!-- Node21 -->
<g id="Node000021" class="node">
<title>Node21</title>
<g id="a_Node000021"><a xlink:title=" ">
<polygon fill="#e0e0e0" stroke="#999999" points="1091.75,-26 1051.75,-26 1051.75,-6 1091.75,-6 1091.75,-26"/>
<text text-anchor="middle" x="1071.75" y="-12.5" font-family="Helvetica,sans-Serif" font-size="10.00">regex</text>
</a>
</g>
</g>
<!-- Node2&#45;&gt;Node21 -->
<g id="edge20_Node000002_Node000021" class="edge">
<title>Node2&#45;&gt;Node21</title>
<g id="a_edge20_Node000002_Node000021"><a xlink:title=" ">
<path fill="none" stroke="#63b8ff" d="M1338.09,-75.24C1290.3,-71.39 1184.86,-60.19 1100.75,-32 1099.94,-31.73 1099.13,-31.44 1098.32,-31.13"/>
<polygon fill="#63b8ff" stroke="#63b8ff" points="1099.87,-27.99 1089.31,-27.1 1097,-34.38 1099.87,-27.99"/>
</a>
</g>
</g>
<!-- Node22 -->
<g id="Node000022" class="node">
<title>Node22</title>
<g id="a_Node000022"><a xlink:title=" ">
<polygon fill="#e0e0e0" stroke="#999999" points="1179.38,-26 1110.12,-26 1110.12,-6 1179.38,-6 1179.38,-26"/>
<text text-anchor="middle" x="1144.75" y="-12.5" font-family="Helvetica,sans-Serif" font-size="10.00">WinSock2.h</text>
</a>
</g>
</g>
<!-- Node2&#45;&gt;Node22 -->
<g id="edge21_Node000002_Node000022" class="edge">
<title>Node2&#45;&gt;Node22</title>
<g id="a_edge21_Node000002_Node000022"><a xlink:title=" ">
<path fill="none" stroke="#63b8ff" d="M1338.21,-71.19C1303.79,-63.2 1240.74,-47.99 1187.75,-32 1185.65,-31.37 1183.5,-30.69 1181.33,-30"/>
<polygon fill="#63b8ff" stroke="#63b8ff" points="1182.58,-26.73 1171.99,-26.88 1180.37,-33.37 1182.58,-26.73"/>
</a>
</g>
</g>
<!-- Node23 -->
<g id="Node000023" class="node">
<title>Node23</title>
<g id="a_Node000023"><a xlink:title=" ">
<polygon fill="#e0e0e0" stroke="#999999" points="1258.25,-26 1197.25,-26 1197.25,-6 1258.25,-6 1258.25,-26"/>
<text text-anchor="middle" x="1227.75" y="-12.5" font-family="Helvetica,sans-Serif" font-size="10.00">windows.h</text>
</a>
</g>
</g>
<!-- Node2&#45;&gt;Node23 -->
<g id="edge22_Node000002_Node000023" class="edge">
<title>Node2&#45;&gt;Node23</title>
<g id="a_edge22_Node000002_Node000023"><a xlink:title=" ">
<path fill="none" stroke="#63b8ff" d="M1342.5,-67.62C1320.14,-57.76 1284.72,-42.13 1259.14,-30.85"/>
<polygon fill="#63b8ff" stroke="#63b8ff" points="1260.8,-27.75 1250.24,-26.92 1257.97,-34.16 1260.8,-27.75"/>
</a>
</g>
</g>
<!-- Node24 -->
<g id="Node000024" class="node">
<title>Node24</title>
<g id="a_Node000024"><a xlink:href="../../de/dbf/locale__strings_8h.html" target="_top" xlink:title=" ">
<polygon fill="white" stroke="#666666" points="1360.88,-26 1276.62,-26 1276.62,-6 1360.88,-6 1360.88,-26"/>
<text text-anchor="middle" x="1318.75" y="-12.5" font-family="Helvetica,sans-Serif" font-size="10.00">locale_strings.h</text>
</a>
</g>
</g>
<!-- Node2&#45;&gt;Node24 -->
<g id="edge23_Node000002_Node000024" class="edge">
<title>Node2&#45;&gt;Node24</title>
<g id="a_edge23_Node000002_Node000024"><a xlink:title=" ">
<path fill="none" stroke="#63b8ff" d="M1356.72,-67.62C1350.21,-58.94 1340.35,-45.8 1332.31,-35.08"/>
<polygon fill="#63b8ff" stroke="#63b8ff" points="1335.29,-33.22 1326.49,-27.32 1329.69,-37.42 1335.29,-33.22"/>
</a>
</g>
</g>
<!-- Node25 -->
<g id="Node000025" class="node">
<title>Node25</title>
<g id="a_Node000025"><a xlink:title=" ">
<polygon fill="#e0e0e0" stroke="#999999" points="1438.5,-26 1379,-26 1379,-6 1438.5,-6 1438.5,-26"/>
<text text-anchor="middle" x="1408.75" y="-12.5" font-family="Helvetica,sans-Serif" font-size="10.00">GL/glew.h</text>
</a>
</g>
</g>
<!-- Node2&#45;&gt;Node25 -->
<g id="edge24_Node000002_Node000025" class="edge">
<title>Node2&#45;&gt;Node25</title>
<g id="a_edge24_Node000002_Node000025"><a xlink:title=" ">
<path fill="none" stroke="#63b8ff" d="M1370.78,-67.62C1377.29,-58.94 1387.15,-45.8 1395.19,-35.08"/>
<polygon fill="#63b8ff" stroke="#63b8ff" points="1397.81,-37.42 1401.01,-27.32 1392.21,-33.22 1397.81,-37.42"/>
</a>
</g>
</g>
<!-- Node26 -->
<g id="Node000026" class="node">
<title>Node26</title>
<g id="a_Node000026"><a xlink:title=" ">
<polygon fill="#e0e0e0" stroke="#999999" points="1534.5,-26 1457,-26 1457,-6 1534.5,-6 1534.5,-26"/>
<text text-anchor="middle" x="1495.75" y="-12.5" font-family="Helvetica,sans-Serif" font-size="10.00">GLFW/glfw3.h</text>
</a>
</g>
</g>
<!-- Node2&#45;&gt;Node26 -->
<g id="edge25_Node000002_Node000026" class="edge">
<title>Node2&#45;&gt;Node26</title>
<g id="a_edge25_Node000002_Node000026"><a xlink:title=" ">
<path fill="none" stroke="#63b8ff" d="M1384.38,-67.62C1405.98,-57.81 1440.15,-42.27 1464.95,-31"/>
<polygon fill="#63b8ff" stroke="#63b8ff" points="1466.24,-34.26 1473.89,-26.94 1463.34,-27.89 1466.24,-34.26"/>
</a>
</g>
</g>
<!-- Node27 -->
<g id="Node000027" class="node">
<title>Node27</title>
<g id="a_Node000027"><a xlink:title=" ">
<polygon fill="#e0e0e0" stroke="#999999" points="1621.38,-26 1552.12,-26 1552.12,-6 1621.38,-6 1621.38,-26"/>
<text text-anchor="middle" x="1586.75" y="-12.5" font-family="Helvetica,sans-Serif" font-size="10.00">glm/glm.hpp</text>
</a>
</g>
</g>
<!-- Node2&#45;&gt;Node27 -->
<g id="edge26_Node000002_Node000027" class="edge">
<title>Node2&#45;&gt;Node27</title>
<g id="a_edge26_Node000002_Node000027"><a xlink:title=" ">
<path fill="none" stroke="#63b8ff" d="M1389.29,-71.38C1424.35,-63.5 1489.28,-48.27 1543.75,-32 1545.85,-31.37 1548,-30.7 1550.17,-30.01"/>
<polygon fill="#63b8ff" stroke="#63b8ff" points="1551.13,-33.38 1559.52,-26.9 1548.92,-26.74 1551.13,-33.38"/>
</a>
</g>
</g>
<!-- Node28 -->
<g id="Node000028" class="node">
<title>Node28</title>
<g id="a_Node000028"><a xlink:title=" ">
<polygon fill="#e0e0e0" stroke="#999999" points="1752.12,-26 1639.38,-26 1639.38,-6 1752.12,-6 1752.12,-26"/>
<text text-anchor="middle" x="1695.75" y="-12.5" font-family="Helvetica,sans-Serif" font-size="10.00">glm/gtc/constants.hpp</text>
</a>
</g>
</g>
<!-- Node2&#45;&gt;Node28 -->
<g id="edge27_Node000002_Node000028" class="edge">
<title>Node2&#45;&gt;Node28</title>
<g id="a_edge27_Node000002_Node000028"><a xlink:title=" ">
<path fill="none" stroke="#63b8ff" d="M1389.24,-73.22C1436.86,-66.05 1542.47,-49.61 1630.75,-32 1635.61,-31.03 1640.66,-29.97 1645.7,-28.87"/>
<polygon fill="#63b8ff" stroke="#63b8ff" points="1646.17,-32.35 1655.17,-26.75 1644.65,-25.52 1646.17,-32.35"/>
</a>
</g>
</g>
<!-- Node29 -->
<g id="Node000029" class="node">
<title>Node29</title>
<g id="a_Node000029"><a xlink:title=" ">
<polygon fill="#e0e0e0" stroke="#999999" points="1913.12,-26 1770.38,-26 1770.38,-6 1913.12,-6 1913.12,-26"/>
<text text-anchor="middle" x="1841.75" y="-12.5" font-family="Helvetica,sans-Serif" font-size="10.00">glm/gtc/matrix_transform.hpp</text>
</a>
</g>
</g>
<!-- Node2&#45;&gt;Node29 -->
<g id="edge28_Node000002_Node000029" class="edge">
<title>Node2&#45;&gt;Node29</title>
<g id="a_edge28_Node000002_Node000029"><a xlink:title=" ">
<path fill="none" stroke="#63b8ff" d="M1389.38,-74.72C1452.62,-68.97 1621.14,-52.81 1760.75,-32 1767.89,-30.94 1775.36,-29.71 1782.76,-28.42"/>
<polygon fill="#63b8ff" stroke="#63b8ff" points="1783.15,-31.91 1792.38,-26.71 1781.92,-25.02 1783.15,-31.91"/>
</a>
</g>
</g>
<!-- Node30 -->
<g id="Node000030" class="node">
<title>Node30</title>
<g id="a_Node000030"><a xlink:title=" ">
<polygon fill="#e0e0e0" stroke="#999999" points="2070.62,-26 1930.88,-26 1930.88,-6 2070.62,-6 2070.62,-26"/>
<text text-anchor="middle" x="2000.75" y="-12.5" font-family="Helvetica,sans-Serif" font-size="10.00">glm/ext/vector_relational.hpp</text>
</a>
</g>
</g>
<!-- Node2&#45;&gt;Node30 -->
<g id="edge29_Node000002_Node000030" class="edge">
<title>Node2&#45;&gt;Node30</title>
<g id="a_edge29_Node000002_Node000030"><a xlink:title=" ">
<path fill="none" stroke="#63b8ff" d="M1389.44,-75.91C1468.89,-72.33 1717.56,-59.54 1921.75,-32 1929.01,-31.02 1936.61,-29.81 1944.11,-28.51"/>
<polygon fill="#63b8ff" stroke="#63b8ff" points="1944.64,-31.97 1953.86,-26.75 1943.4,-25.08 1944.64,-31.97"/>
</a>
</g>
</g>
<!-- Node31 -->
<g id="Node000031" class="node">
<title>Node31</title>
<g id="a_Node000031"><a xlink:title=" ">
<polygon fill="#e0e0e0" stroke="#999999" points="2189.12,-26 2088.38,-26 2088.38,-6 2189.12,-6 2189.12,-26"/>
<text text-anchor="middle" x="2138.75" y="-12.5" font-family="Helvetica,sans-Serif" font-size="10.00">glm/gtc/epsilon.hpp</text>
</a>
</g>
</g>
<!-- Node2&#45;&gt;Node31 -->
<g id="edge30_Node000002_Node000031" class="edge">
<title>Node2&#45;&gt;Node31</title>
<g id="a_edge30_Node000002_Node000031"><a xlink:title=" ">
<path fill="none" stroke="#63b8ff" d="M1389.3,-77.11C1482.42,-77.13 1812.14,-74.05 2079.75,-32 2084.76,-31.21 2089.96,-30.19 2095.12,-29.06"/>
<polygon fill="#63b8ff" stroke="#63b8ff" points="2095.81,-32.49 2104.73,-26.78 2094.2,-25.68 2095.81,-32.49"/>
</a>
</g>
</g>
<!-- Node32 -->
<g id="Node000032" class="node">
<title>Node32</title>
<g id="a_Node000032"><a xlink:title=" ">
<polygon fill="#e0e0e0" stroke="#999999" points="2332.12,-26 2207.38,-26 2207.38,-6 2332.12,-6 2332.12,-26"/>
<text text-anchor="middle" x="2269.75" y="-12.5" font-family="Helvetica,sans-Serif" font-size="10.00">glm/gtx/euler_angles.hpp</text>
</a>
</g>
</g>
<!-- Node2&#45;&gt;Node32 -->
<g id="edge31_Node000002_Node000032" class="edge">
<title>Node2&#45;&gt;Node32</title>
<g id="a_edge31_Node000002_Node000032"><a xlink:title=" ">
<path fill="none" stroke="#63b8ff" d="M1389.47,-77.03C1491.97,-76.84 1881.06,-73.29 2197.75,-32 2204.48,-31.12 2211.52,-29.96 2218.46,-28.67"/>
<polygon fill="#63b8ff" stroke="#63b8ff" points="2218.94,-32.15 2228.08,-26.78 2217.6,-25.28 2218.94,-32.15"/>
</a>
</g>
</g>
<!-- Node33 -->
<g id="Node000033" class="node">
<title>Node33</title>
<g id="a_Node000033"><a xlink:title=" ">
<polygon fill="#e0e0e0" stroke="#999999" points="2397.5,-26 2350,-26 2350,-6 2397.5,-6 2397.5,-26"/>
<text text-anchor="middle" x="2373.75" y="-12.5" font-family="Helvetica,sans-Serif" font-size="10.00">imgui.h</text>
</a>
</g>
</g>
<!-- Node2&#45;&gt;Node33 -->
<g id="edge32_Node000002_Node000033" class="edge">
<title>Node2&#45;&gt;Node33</title>
<g id="a_edge32_Node000002_Node000033"><a xlink:title=" ">
<path fill="none" stroke="#63b8ff" d="M1389.06,-77.13C1523.24,-77.61 2152.35,-77.37 2340.75,-32 2342.39,-31.6 2344.06,-31.13 2345.72,-30.59"/>
<polygon fill="#63b8ff" stroke="#63b8ff" points="2346.95,-33.86 2354.97,-26.94 2344.39,-27.35 2346.95,-33.86"/>
</a>
</g>
</g>
<!-- Node34 -->
<g id="Node000034" class="node">
<title>Node34</title>
<g id="a_Node000034"><a xlink:title=" ">
<polygon fill="#e0e0e0" stroke="#999999" points="2523.5,-32 2416,-32 2416,0 2523.5,0 2523.5,-32"/>
<text text-anchor="start" x="2424" y="-18.5" font-family="Helvetica,sans-Serif" font-size="10.00">backends/imgui_impl</text>
<text text-anchor="middle" x="2469.75" y="-6.5" font-family="Helvetica,sans-Serif" font-size="10.00">_glfw.h</text>
</a>
</g>
</g>
<!-- Node2&#45;&gt;Node34 -->
<g id="edge33_Node000002_Node000034" class="edge">
<title>Node2&#45;&gt;Node34</title>
<g id="a_edge33_Node000002_Node000034"><a xlink:title=" ">
<path fill="none" stroke="#63b8ff" d="M1389.25,-76.56C1526.41,-74.09 2178.38,-61.09 2404.19,-32.12"/>
<polygon fill="#63b8ff" stroke="#63b8ff" points="2404.63,-35.59 2414.08,-30.79 2403.7,-28.65 2404.63,-35.59"/>
</a>
</g>
</g>
<!-- Node35 -->
<g id="Node000035" class="node">
<title>Node35</title>
<g id="a_Node000035"><a xlink:title=" ">
<polygon fill="#e0e0e0" stroke="#999999" points="2649.5,-32 2542,-32 2542,0 2649.5,0 2649.5,-32"/>
<text text-anchor="start" x="2550" y="-18.5" font-family="Helvetica,sans-Serif" font-size="10.00">backends/imgui_impl</text>
<text text-anchor="middle" x="2595.75" y="-6.5" font-family="Helvetica,sans-Serif" font-size="10.00">_opengl3.h</text>
</a>
</g>
</g>
<!-- Node2&#45;&gt;Node35 -->
<g id="edge34_Node000002_Node000035" class="edge">
<title>Node2&#45;&gt;Node35</title>
<g id="a_edge34_Node000002_Node000035"><a xlink:title=" ">
<path fill="none" stroke="#63b8ff" d="M1389.33,-76.69C1536.57,-74.84 2277.91,-64.09 2530.29,-32.1"/>
<polygon fill="#63b8ff" stroke="#63b8ff" points="2530.62,-35.58 2540.08,-30.8 2529.71,-28.64 2530.62,-35.58"/>
</a>
</g>
</g>
<!-- Node36 -->
<g id="Node000036" class="node">
<title>Node36</title>
<g id="a_Node000036"><a xlink:title=" ">
<polygon fill="#e0e0e0" stroke="#999999" points="2786.12,-26 2667.38,-26 2667.38,-6 2786.12,-6 2786.12,-26"/>
<text text-anchor="middle" x="2726.75" y="-12.5" font-family="Helvetica,sans-Serif" font-size="10.00">misc/cpp/imgui_stdlib.h</text>
</a>
</g>
</g>
<!-- Node2&#45;&gt;Node36 -->
<g id="edge35_Node000002_Node000036" class="edge">
<title>Node2&#45;&gt;Node36</title>
<g id="a_edge35_Node000002_Node000036"><a xlink:title=" ">
<path fill="none" stroke="#63b8ff" d="M1389.45,-76.75C1548.48,-75.08 2400.14,-64.74 2658.75,-32 2665.2,-31.18 2671.95,-30.05 2678.58,-28.76"/>
<polygon fill="#63b8ff" stroke="#63b8ff" points="2678.99,-32.25 2688.07,-26.79 2677.57,-25.4 2678.99,-32.25"/>
</a>
</g>
</g>
<!-- Node37 -->
<g id="Node000037" class="node">
<title>Node37</title>
<g id="a_Node000037"><a xlink:title=" ">
<polygon fill="#e0e0e0" stroke="#999999" points="2888.88,-26 2804.62,-26 2804.62,-6 2888.88,-6 2888.88,-26"/>
<text text-anchor="middle" x="2846.75" y="-12.5" font-family="Helvetica,sans-Serif" font-size="10.00">imgui_internal.h</text>
</a>
</g>
</g>
<!-- Node2&#45;&gt;Node37 -->
<g id="edge36_Node000002_Node000037" class="edge">
<title>Node2&#45;&gt;Node37</title>
<g id="a_edge36_Node000002_Node000037"><a xlink:title=" ">
<path fill="none" stroke="#63b8ff" d="M1389.4,-77.07C1557.93,-77.37 2508.7,-77.03 2794.75,-32 2799.06,-31.32 2803.53,-30.39 2807.94,-29.33"/>
<polygon fill="#63b8ff" stroke="#63b8ff" points="2808.47,-32.81 2817.24,-26.86 2806.68,-26.05 2808.47,-32.81"/>
</a>
</g>
</g>
<!-- Node38 -->
<g id="Node000038" class="node">
<title>Node38</title>
<g id="a_Node000038"><a xlink:title=" ">
<polygon fill="#e0e0e0" stroke="#999999" points="2992.25,-26 2907.25,-26 2907.25,-6 2992.25,-6 2992.25,-26"/>
<text text-anchor="middle" x="2949.75" y="-12.5" font-family="Helvetica,sans-Serif" font-size="10.00">ImGuiNotify.hpp</text>
</a>
</g>
</g>
<!-- Node2&#45;&gt;Node38 -->
<g id="edge37_Node000002_Node000038" class="edge">
<title>Node2&#45;&gt;Node38</title>
<g id="a_edge37_Node000002_Node000038"><a xlink:title=" ">
<path fill="none" stroke="#63b8ff" d="M1389.25,-77.13C1564.24,-77.88 2589.93,-80.12 2897.75,-32 2902.07,-31.33 2906.53,-30.4 2910.94,-29.34"/>
<polygon fill="#63b8ff" stroke="#63b8ff" points="2911.47,-32.82 2920.24,-26.87 2909.68,-26.05 2911.47,-32.82"/>
</a>
</g>
</g>
<!-- Node39 -->
<g id="Node000039" class="node">
<title>Node39</title>
<g id="a_Node000039"><a xlink:title=" ">
<polygon fill="#e0e0e0" stroke="#999999" points="3145.38,-26 3010.12,-26 3010.12,-6 3145.38,-6 3145.38,-26"/>
<text text-anchor="middle" x="3077.75" y="-12.5" font-family="Helvetica,sans-Serif" font-size="10.00">addons/imguidatechooser.h</text>
</a>
</g>
</g>
<!-- Node2&#45;&gt;Node39 -->
<g id="edge38_Node000002_Node000039" class="edge">
<title>Node2&#45;&gt;Node39</title>
<g id="a_edge38_Node000002_Node000039"><a xlink:title=" ">
<path fill="none" stroke="#63b8ff" d="M1389.44,-76.88C1571.51,-75.9 2669.41,-68.57 3000.75,-32 3008.57,-31.14 3016.78,-29.9 3024.81,-28.5"/>
<polygon fill="#63b8ff" stroke="#63b8ff" points="3025.3,-31.97 3034.49,-26.71 3024.02,-25.09 3025.3,-31.97"/>
</a>
</g>
</g>
<!-- Node46&#45;&gt;Node84 -->
<g id="edge40_Node000046_Node000084" class="edge">
<title>Node46&#45;&gt;Node84</title>
<g id="a_edge40_Node000046_Node000084"><a xlink:title=" ">
<path fill="none" stroke="#63b8ff" d="M3428.53,-67.62C3424.78,-59.3 3419.19,-46.86 3414.48,-36.4"/>
<polygon fill="#63b8ff" stroke="#63b8ff" points="3417.77,-35.18 3410.47,-27.49 3411.38,-38.05 3417.77,-35.18"/>
</a>
</g>
</g>
<!-- Node46&#45;&gt;Node85 -->
<g id="edge41_Node000046_Node000085" class="edge">
<title>Node46&#45;&gt;Node85</title>
<g id="a_edge41_Node000046_Node000085"><a xlink:title=" ">
<path fill="none" stroke="#63b8ff" d="M3448.22,-67.62C3463.84,-58.16 3488.22,-43.38 3506.62,-32.23"/>
<polygon fill="#63b8ff" stroke="#63b8ff" points="3508.36,-35.27 3515.1,-27.09 3504.73,-29.28 3508.36,-35.27"/>
</a>
</g>
</g>
<!-- Node56&#45;&gt;Node58 -->
<g id="edge50_Node000056_Node000058" class="edge">
<title>Node56&#45;&gt;Node58</title>
<g id="a_edge50_Node000056_Node000058"><a xlink:title=" ">
<path fill="none" stroke="#63b8ff" d="M4302.94,-67.62C4290.3,-58.38 4270.74,-44.07 4255.64,-33.01"/>
<polygon fill="#63b8ff" stroke="#63b8ff" points="4257.83,-30.28 4247.69,-27.2 4253.7,-35.93 4257.83,-30.28"/>
</a>
</g>
</g>
<!-- Node94&#45;&gt;Node85 -->
<g id="edge53_Node000094_Node000085" class="edge">
<title>Node94&#45;&gt;Node85</title>
<g id="a_edge53_Node000094_Node000085"><a xlink:title=" ">
<path fill="none" stroke="#63b8ff" d="M3887.35,-67.56C3811.98,-56.84 3689.17,-39.38 3609.42,-28.04"/>
<polygon fill="#63b8ff" stroke="#63b8ff" points="3610.35,-24.64 3599.96,-26.7 3609.37,-31.57 3610.35,-24.64"/>
</a>
</g>
</g>
</g>
</svg>
