<?xml version="1.0" encoding="UTF-8" standalone="no"?>
<!DOCTYPE svg PUBLIC "-//W3C//DTD SVG 1.1//EN"
 "http://www.w3.org/Graphics/SVG/1.1/DTD/svg11.dtd">
<!-- Generated by graphviz version 10.0.1 (20240210.2158)
 -->
<!-- Title: C:/GitHub/GEU/GEU/Source/Utilities/FileManager.cpp Pages: 1 -->
<!--zoomable 164 -->

<svg id="main" version="1.1" xmlns="http://www.w3.org/2000/svg" xmlns:xlink="http://www.w3.org/1999/xlink" xml:space="preserve" onload="init(evt)">
<style type="text/css"><![CDATA[
.node, .edge {opacity: 0.7;}
.node.selected, .edge.selected {opacity: 1;}
.edge:hover path { stroke: red; }
.edge:hover polygon { stroke: red; fill: red; }
]]></style>

<defs>
  <circle id="rim" cx="0" cy="0" r="7"/>
  <circle id="rim2" cx="0" cy="0" r="3.5"/>
  <g id="zoomPlus">
    <use xlink:href="#rim" fill="#404040"><set attributeName="fill" to="#808080" begin="zoomplus.mouseover" end="zoomplus.mouseout"/></use>
    <path d="M-4,0h8M0,-4v8" fill="none" stroke="white" stroke-width="1.5" pointer-events="none"/>
  </g>
  <g id="zoomMin">
    <use xlink:href="#rim" fill="#404040"><set attributeName="fill" to="#808080" begin="zoomminus.mouseover" end="zoomminus.mouseout"/></use>
    <path d="M-4,0h8" fill="none" stroke="white" stroke-width="1.5" pointer-events="none"/>
  </g>
  <g id="arrowUp" transform="translate(30 24)">
    <use xlink:href="#rim"/>
    <path pointer-events="none" fill="none" stroke="white" stroke-width="1.5" d="M0,-3.0v7 M-2.5,-0.5L0,-3.0L2.5,-0.5"/>
  </g>
  <g id="arrowRight" transform="rotate(90) translate(36 -43)">
    <use xlink:href="#rim"/>
    <path pointer-events="none" fill="none" stroke="white" stroke-width="1.5" d="M0,-3.0v7 M-2.5,-0.5L0,-3.0L2.5,-0.5"/>
  </g>
  <g id="arrowDown" transform="rotate(180) translate(-30 -48)">
    <use xlink:href="#rim"/>
    <path pointer-events="none" fill="none" stroke="white" stroke-width="1.5" d="M0,-3.0v7 M-2.5,-0.5L0,-3.0L2.5,-0.5"/>
  </g>
  <g id="arrowLeft" transform="rotate(270) translate(-36 17)">
    <use xlink:href="#rim"/>
    <path pointer-events="none" fill="none" stroke="white" stroke-width="1.5" d="M0,-3.0v7 M-2.5,-0.5L0,-3.0L2.5,-0.5"/>
  </g>
  <g id="resetDef">
    <use xlink:href="#rim2" fill="#404040"><set attributeName="fill" to="#808080" begin="reset.mouseover" end="reset.mouseout"/></use>
  </g>
</defs>
<script type="application/ecmascript">
var viewWidth = 4327;
var viewHeight = 164;
var sectionId = 'dynsection-0';
</script>
<script type="application/ecmascript" xlink:href="../../svg.min.js"/>
<svg id="graph" class="graph">
<g id="viewport">
<title>C:/GitHub/GEU/GEU/Source/Utilities/FileManager.cpp</title>
<!-- Node1 -->
<g id="Node000001" class="node">
<title>Node1</title>
<g id="a_Node000001"><a xlink:title=" ">
<polygon fill="#999999" stroke="#666666" points="3965.88,-156 3825.38,-156 3825.38,-124 3965.88,-124 3965.88,-156"/>
<text text-anchor="start" x="3833.38" y="-142.5" font-family="Helvetica,sans-Serif" font-size="10.00">C:/GitHub/GEU/GEU/Source</text>
<text text-anchor="middle" x="3895.62" y="-130.5" font-family="Helvetica,sans-Serif" font-size="10.00">/Utilities/FileManager.cpp</text>
</a>
</g>
</g>
<!-- Node2 -->
<g id="Node000002" class="node">
<title>Node2</title>
<g id="a_Node000002"><a xlink:href="../../db/d06/stdafx_8h.html" target="_top" xlink:title=" ">
<polygon fill="#fff0f0" stroke="red" points="1500.88,-88 1450.38,-88 1450.38,-68 1500.88,-68 1500.88,-88"/>
<text text-anchor="middle" x="1475.62" y="-74.5" font-family="Helvetica,sans-Serif" font-size="10.00">stdafx.h</text>
</a>
</g>
</g>
<!-- Node1&#45;&gt;Node2 -->
<g id="edge1_Node000001_Node000002" class="edge">
<title>Node1&#45;&gt;Node2</title>
<g id="a_edge1_Node000001_Node000002"><a xlink:title=" ">
<path fill="none" stroke="#63b8ff" d="M3825.16,-137.25C3459.36,-128.18 1783.37,-86.63 1512.61,-79.92"/>
<polygon fill="#63b8ff" stroke="#63b8ff" points="1512.73,-76.42 1502.64,-79.67 1512.56,-83.42 1512.73,-76.42"/>
</a>
</g>
</g>
<!-- Node46 -->
<g id="Node000046" class="node">
<title>Node46</title>
<g id="a_Node000046"><a xlink:href="../../d3/df1/_file_manager_8h.html" target="_top" xlink:title=" ">
<polygon fill="white" stroke="#666666" points="3759.38,-88 3681.88,-88 3681.88,-68 3759.38,-68 3759.38,-88"/>
<text text-anchor="middle" x="3720.62" y="-74.5" font-family="Helvetica,sans-Serif" font-size="10.00">FileManager.h</text>
</a>
</g>
</g>
<!-- Node1&#45;&gt;Node46 -->
<g id="edge43_Node000001_Node000046" class="edge">
<title>Node1&#45;&gt;Node46</title>
<g id="a_edge43_Node000001_Node000046"><a xlink:title=" ">
<path fill="none" stroke="#63b8ff" d="M3850.56,-123.55C3822.16,-113.81 3785.91,-101.38 3758.91,-92.13"/>
<polygon fill="#63b8ff" stroke="#63b8ff" points="3760.35,-88.92 3749.75,-88.99 3758.08,-95.54 3760.35,-88.92"/>
</a>
</g>
</g>
<!-- Node47 -->
<g id="Node000047" class="node">
<title>Node47</title>
<g id="a_Node000047"><a xlink:href="../../dc/d05/_point_cloud_8h.html" target="_top" xlink:title=" ">
<polygon fill="#fff0f0" stroke="red" points="3835,-26 3740.25,-26 3740.25,-6 3835,-6 3835,-26"/>
<text text-anchor="middle" x="3787.62" y="-12.5" font-family="Helvetica,sans-Serif" font-size="10.00">Core/PointCloud.h</text>
</a>
</g>
</g>
<!-- Node1&#45;&gt;Node47 -->
<g id="edge48_Node000001_Node000047" class="edge">
<title>Node1&#45;&gt;Node47</title>
<g id="a_edge48_Node000001_Node000047"><a xlink:title=" ">
<path fill="none" stroke="#63b8ff" d="M3854.93,-123.57C3838.11,-115.34 3819.75,-103.62 3807.62,-88 3796.34,-73.46 3791.42,-52.86 3789.28,-37.59"/>
<polygon fill="#63b8ff" stroke="#63b8ff" points="3792.77,-37.34 3788.22,-27.78 3785.81,-38.1 3792.77,-37.34"/>
</a>
</g>
</g>
<!-- Node61 -->
<g id="Node000061" class="node">
<title>Node61</title>
<g id="a_Node000061"><a xlink:title=" ">
<polygon fill="#e0e0e0" stroke="#999999" points="3877.12,-88 3816.12,-88 3816.12,-68 3877.12,-68 3877.12,-88"/>
<text text-anchor="middle" x="3846.62" y="-74.5" font-family="Helvetica,sans-Serif" font-size="10.00">msh_ply.h</text>
</a>
</g>
</g>
<!-- Node1&#45;&gt;Node61 -->
<g id="edge45_Node000001_Node000061" class="edge">
<title>Node1&#45;&gt;Node61</title>
<g id="a_edge45_Node000001_Node000061"><a xlink:title=" ">
<path fill="none" stroke="#63b8ff" d="M3883.01,-123.55C3876.41,-115.48 3868.31,-105.55 3861.42,-97.12"/>
<polygon fill="#63b8ff" stroke="#63b8ff" points="3864.3,-95.11 3855.27,-89.58 3858.88,-99.54 3864.3,-95.11"/>
</a>
</g>
</g>
<!-- Node62 -->
<g id="Node000062" class="node">
<title>Node62</title>
<g id="a_Node000062"><a xlink:title=" ">
<polygon fill="#e0e0e0" stroke="#999999" points="3993.88,-88 3895.38,-88 3895.38,-68 3993.88,-68 3993.88,-88"/>
<text text-anchor="middle" x="3944.62" y="-74.5" font-family="Helvetica,sans-Serif" font-size="10.00">lazperf/readers.hpp</text>
</a>
</g>
</g>
<!-- Node1&#45;&gt;Node62 -->
<g id="edge46_Node000001_Node000062" class="edge">
<title>Node1&#45;&gt;Node62</title>
<g id="a_edge46_Node000001_Node000062"><a xlink:title=" ">
<path fill="none" stroke="#63b8ff" d="M3908.24,-123.55C3914.84,-115.48 3922.94,-105.55 3929.83,-97.12"/>
<polygon fill="#63b8ff" stroke="#63b8ff" points="3932.37,-99.54 3935.98,-89.58 3926.95,-95.11 3932.37,-99.54"/>
</a>
</g>
</g>
<!-- Node63 -->
<g id="Node000063" class="node">
<title>Node63</title>
<g id="a_Node000063"><a xlink:title=" ">
<polygon fill="#e0e0e0" stroke="#999999" points="4091.12,-88 4012.12,-88 4012.12,-68 4091.12,-68 4091.12,-88"/>
<text text-anchor="middle" x="4051.62" y="-74.5" font-family="Helvetica,sans-Serif" font-size="10.00">lazperf/las.hpp</text>
</a>
</g>
</g>
<!-- Node1&#45;&gt;Node63 -->
<g id="edge47_Node000001_Node000063" class="edge">
<title>Node1&#45;&gt;Node63</title>
<g id="a_edge47_Node000001_Node000063"><a xlink:title=" ">
<path fill="none" stroke="#63b8ff" d="M3935.8,-123.55C3960.74,-113.96 3992.48,-101.75 4016.43,-92.54"/>
<polygon fill="#63b8ff" stroke="#63b8ff" points="4017.67,-95.81 4025.75,-88.95 4015.16,-89.27 4017.67,-95.81"/>
</a>
</g>
</g>
<!-- Node64 -->
<g id="Node000064" class="node">
<title>Node64</title>
<g id="a_Node000064"><a xlink:href="../../df/d79/_triangle_mesh_8h.html" target="_top" xlink:title=" ">
<polygon fill="#fff0f0" stroke="red" points="4214.25,-88 4109,-88 4109,-68 4214.25,-68 4214.25,-88"/>
<text text-anchor="middle" x="4161.62" y="-74.5" font-family="Helvetica,sans-Serif" font-size="10.00">Core/TriangleMesh.h</text>
</a>
</g>
</g>
<!-- Node1&#45;&gt;Node64 -->
<g id="edge49_Node000001_Node000064" class="edge">
<title>Node1&#45;&gt;Node64</title>
<g id="a_edge49_Node000001_Node000064"><a xlink:title=" ">
<path fill="none" stroke="#63b8ff" d="M3964.13,-123.55C4009.11,-113.4 4067.07,-100.33 4108.55,-90.97"/>
<polygon fill="#63b8ff" stroke="#63b8ff" points="4109.06,-94.44 4118.05,-88.83 4107.52,-87.62 4109.06,-94.44"/>
</a>
</g>
</g>
<!-- Node67 -->
<g id="Node000067" class="node">
<title>Node67</title>
<g id="a_Node000067"><a xlink:href="../../d3/da0/_renderer_8h.html" target="_top" xlink:title=" ">
<polygon fill="#fff0f0" stroke="red" points="4318.88,-88 4232.38,-88 4232.38,-68 4318.88,-68 4318.88,-88"/>
<text text-anchor="middle" x="4275.62" y="-74.5" font-family="Helvetica,sans-Serif" font-size="10.00">Core/Renderer.h</text>
</a>
</g>
</g>
<!-- Node1&#45;&gt;Node67 -->
<g id="edge50_Node000001_Node000067" class="edge">
<title>Node1&#45;&gt;Node67</title>
<g id="a_edge50_Node000001_Node000067"><a xlink:title=" ">
<path fill="none" stroke="#63b8ff" d="M3966.06,-128.4C4029.99,-118.71 4127.17,-103.76 4220.83,-88.44"/>
<polygon fill="#63b8ff" stroke="#63b8ff" points="4221.15,-91.93 4230.45,-86.86 4220.01,-85.03 4221.15,-91.93"/>
</a>
</g>
</g>
<!-- Node3 -->
<g id="Node000003" class="node">
<title>Node3</title>
<g id="a_Node000003"><a xlink:title=" ">
<polygon fill="#e0e0e0" stroke="#999999" points="45.25,-26 0,-26 0,-6 45.25,-6 45.25,-26"/>
<text text-anchor="middle" x="22.62" y="-12.5" font-family="Helvetica,sans-Serif" font-size="10.00">cstdint</text>
</a>
</g>
</g>
<!-- Node2&#45;&gt;Node3 -->
<g id="edge2_Node000002_Node000003" class="edge">
<title>Node2&#45;&gt;Node3</title>
<g id="a_edge2_Node000002_Node000003"><a xlink:title=" ">
<path fill="none" stroke="#63b8ff" d="M1449.93,-76.81C1269.46,-75.41 195.27,-65.67 54.62,-32 53.02,-31.62 51.4,-31.15 49.79,-30.62"/>
<polygon fill="#63b8ff" stroke="#63b8ff" points="51.42,-27.5 40.83,-27 48.79,-33.99 51.42,-27.5"/>
</a>
</g>
</g>
<!-- Node4 -->
<g id="Node000004" class="node">
<title>Node4</title>
<g id="a_Node000004"><a xlink:title=" ">
<polygon fill="#e0e0e0" stroke="#999999" points="107.88,-26 63.38,-26 63.38,-6 107.88,-6 107.88,-26"/>
<text text-anchor="middle" x="85.62" y="-12.5" font-family="Helvetica,sans-Serif" font-size="10.00">cstdlib</text>
</a>
</g>
</g>
<!-- Node2&#45;&gt;Node4 -->
<g id="edge3_Node000002_Node000004" class="edge">
<title>Node2&#45;&gt;Node4</title>
<g id="a_edge3_Node000002_Node000004"><a xlink:title=" ">
<path fill="none" stroke="#63b8ff" d="M1449.93,-76.79C1274.03,-75.27 250.63,-65.06 116.62,-32 115.22,-31.65 113.81,-31.24 112.39,-30.77"/>
<polygon fill="#63b8ff" stroke="#63b8ff" points="113.85,-27.59 103.27,-27.01 111.18,-34.06 113.85,-27.59"/>
</a>
</g>
</g>
<!-- Node5 -->
<g id="Node000005" class="node">
<title>Node5</title>
<g id="a_Node000005"><a xlink:title=" ">
<polygon fill="#e0e0e0" stroke="#999999" points="183.62,-26 125.62,-26 125.62,-6 183.62,-6 183.62,-26"/>
<text text-anchor="middle" x="154.62" y="-12.5" font-family="Helvetica,sans-Serif" font-size="10.00">execution</text>
</a>
</g>
</g>
<!-- Node2&#45;&gt;Node5 -->
<g id="edge4_Node000002_Node000005" class="edge">
<title>Node2&#45;&gt;Node5</title>
<g id="a_edge4_Node000002_Node000005"><a xlink:title=" ">
<path fill="none" stroke="#63b8ff" d="M1450.04,-76.63C1280.34,-74.07 319.86,-58.52 192.62,-32 190.29,-31.51 187.92,-30.9 185.55,-30.19"/>
<polygon fill="#63b8ff" stroke="#63b8ff" points="186.76,-26.91 176.17,-26.91 184.45,-33.52 186.76,-26.91"/>
</a>
</g>
</g>
<!-- Node6 -->
<g id="Node000006" class="node">
<title>Node6</title>
<g id="a_Node000006"><a xlink:title=" ">
<polygon fill="#e0e0e0" stroke="#999999" points="255.38,-26 201.88,-26 201.88,-6 255.38,-6 255.38,-26"/>
<text text-anchor="middle" x="228.62" y="-12.5" font-family="Helvetica,sans-Serif" font-size="10.00">iostream</text>
</a>
</g>
</g>
<!-- Node2&#45;&gt;Node6 -->
<g id="edge5_Node000002_Node000006" class="edge">
<title>Node2&#45;&gt;Node6</title>
<g id="a_edge5_Node000002_Node000006"><a xlink:title=" ">
<path fill="none" stroke="#63b8ff" d="M1449.9,-76.59C1285.43,-73.93 384.07,-58.21 264.62,-32 262.58,-31.55 260.51,-30.99 258.44,-30.36"/>
<polygon fill="#63b8ff" stroke="#63b8ff" points="259.66,-27.08 249.06,-26.93 257.25,-33.65 259.66,-27.08"/>
</a>
</g>
</g>
<!-- Node7 -->
<g id="Node000007" class="node">
<title>Node7</title>
<g id="a_Node000007"><a xlink:title=" ">
<polygon fill="#e0e0e0" stroke="#999999" points="333.75,-26 273.5,-26 273.5,-6 333.75,-6 333.75,-26"/>
<text text-anchor="middle" x="303.62" y="-12.5" font-family="Helvetica,sans-Serif" font-size="10.00">filesystem</text>
</a>
</g>
</g>
<!-- Node2&#45;&gt;Node7 -->
<g id="edge6_Node000002_Node000007" class="edge">
<title>Node2&#45;&gt;Node7</title>
<g id="a_edge6_Node000002_Node000007"><a xlink:title=" ">
<path fill="none" stroke="#63b8ff" d="M1450.28,-77.12C1303.81,-77.61 564.58,-77.79 342.62,-32 340.14,-31.49 337.61,-30.84 335.09,-30.09"/>
<polygon fill="#63b8ff" stroke="#63b8ff" points="336.32,-26.81 325.73,-26.88 334.05,-33.44 336.32,-26.81"/>
</a>
</g>
</g>
<!-- Node8 -->
<g id="Node000008" class="node">
<title>Node8</title>
<g id="a_Node000008"><a xlink:title=" ">
<polygon fill="#e0e0e0" stroke="#999999" points="395.12,-26 352.12,-26 352.12,-6 395.12,-6 395.12,-26"/>
<text text-anchor="middle" x="373.62" y="-12.5" font-family="Helvetica,sans-Serif" font-size="10.00">format</text>
</a>
</g>
</g>
<!-- Node2&#45;&gt;Node8 -->
<g id="edge7_Node000002_Node000008" class="edge">
<title>Node2&#45;&gt;Node8</title>
<g id="a_edge7_Node000002_Node000008"><a xlink:title=" ">
<path fill="none" stroke="#63b8ff" d="M1449.96,-76.55C1297.02,-73.76 508.85,-58.21 404.62,-32 403.22,-31.65 401.81,-31.23 400.4,-30.76"/>
<polygon fill="#63b8ff" stroke="#63b8ff" points="401.86,-27.57 391.28,-26.98 399.18,-34.04 401.86,-27.57"/>
</a>
</g>
</g>
<!-- Node9 -->
<g id="Node000009" class="node">
<title>Node9</title>
<g id="a_Node000009"><a xlink:title=" ">
<polygon fill="#e0e0e0" stroke="#999999" points="461.75,-26 413.5,-26 413.5,-6 461.75,-6 461.75,-26"/>
<text text-anchor="middle" x="437.62" y="-12.5" font-family="Helvetica,sans-Serif" font-size="10.00">fstream</text>
</a>
</g>
</g>
<!-- Node2&#45;&gt;Node9 -->
<g id="edge8_Node000002_Node000009" class="edge">
<title>Node2&#45;&gt;Node9</title>
<g id="a_edge8_Node000002_Node000009"><a xlink:title=" ">
<path fill="none" stroke="#63b8ff" d="M1450.04,-77.17C1312.99,-77.86 664.65,-78.6 470.62,-32 468.98,-31.61 467.32,-31.13 465.66,-30.59"/>
<polygon fill="#63b8ff" stroke="#63b8ff" points="466.99,-27.35 456.4,-26.94 464.42,-33.86 466.99,-27.35"/>
</a>
</g>
</g>
<!-- Node10 -->
<g id="Node000010" class="node">
<title>Node10</title>
<g id="a_Node000010"><a xlink:title=" ">
<polygon fill="#e0e0e0" stroke="#999999" points="537.25,-26 480,-26 480,-6 537.25,-6 537.25,-26"/>
<text text-anchor="middle" x="508.62" y="-12.5" font-family="Helvetica,sans-Serif" font-size="10.00">functional</text>
</a>
</g>
</g>
<!-- Node2&#45;&gt;Node10 -->
<g id="edge9_Node000002_Node000010" class="edge">
<title>Node2&#45;&gt;Node10</title>
<g id="a_edge9_Node000002_Node000010"><a xlink:title=" ">
<path fill="none" stroke="#63b8ff" d="M1450.29,-76.92C1320.06,-76.34 725.2,-71.54 545.62,-32 543.44,-31.52 541.22,-30.92 539.01,-30.24"/>
<polygon fill="#63b8ff" stroke="#63b8ff" points="540.22,-26.96 529.63,-26.87 537.85,-33.55 540.22,-26.96"/>
</a>
</g>
</g>
<!-- Node11 -->
<g id="Node000011" class="node">
<title>Node11</title>
<g id="a_Node000011"><a xlink:title=" ">
<polygon fill="#e0e0e0" stroke="#999999" points="606.25,-26 555,-26 555,-6 606.25,-6 606.25,-26"/>
<text text-anchor="middle" x="580.62" y="-12.5" font-family="Helvetica,sans-Serif" font-size="10.00">memory</text>
</a>
</g>
</g>
<!-- Node2&#45;&gt;Node11 -->
<g id="edge10_Node000002_Node000011" class="edge">
<title>Node2&#45;&gt;Node11</title>
<g id="a_edge10_Node000002_Node000011"><a xlink:title=" ">
<path fill="none" stroke="#63b8ff" d="M1450.12,-76.91C1325.42,-76.27 779.35,-71.24 614.62,-32 612.85,-31.58 611.06,-31.07 609.27,-30.49"/>
<polygon fill="#63b8ff" stroke="#63b8ff" points="610.55,-27.23 599.96,-26.9 608.03,-33.77 610.55,-27.23"/>
</a>
</g>
</g>
<!-- Node12 -->
<g id="Node000012" class="node">
<title>Node12</title>
<g id="a_Node000012"><a xlink:title=" ">
<polygon fill="#e0e0e0" stroke="#999999" points="675.25,-26 624,-26 624,-6 675.25,-6 675.25,-26"/>
<text text-anchor="middle" x="649.62" y="-12.5" font-family="Helvetica,sans-Serif" font-size="10.00">sstream</text>
</a>
</g>
</g>
<!-- Node2&#45;&gt;Node12 -->
<g id="edge11_Node000002_Node000012" class="edge">
<title>Node2&#45;&gt;Node12</title>
<g id="a_edge11_Node000002_Node000012"><a xlink:title=" ">
<path fill="none" stroke="#63b8ff" d="M1450.26,-76.74C1332.14,-75.34 835.26,-67.41 684.62,-32 682.85,-31.58 681.05,-31.08 679.26,-30.52"/>
<polygon fill="#63b8ff" stroke="#63b8ff" points="680.48,-27.24 669.89,-27.02 678.03,-33.8 680.48,-27.24"/>
</a>
</g>
</g>
<!-- Node13 -->
<g id="Node000013" class="node">
<title>Node13</title>
<g id="a_Node000013"><a xlink:title=" ">
<polygon fill="#e0e0e0" stroke="#999999" points="735.75,-26 693.5,-26 693.5,-6 735.75,-6 735.75,-26"/>
<text text-anchor="middle" x="714.62" y="-12.5" font-family="Helvetica,sans-Serif" font-size="10.00">cstdio</text>
</a>
</g>
</g>
<!-- Node2&#45;&gt;Node13 -->
<g id="edge12_Node000002_Node000013" class="edge">
<title>Node2&#45;&gt;Node13</title>
<g id="a_edge12_Node000002_Node000013"><a xlink:title=" ">
<path fill="none" stroke="#63b8ff" d="M1449.91,-76.79C1336.64,-75.66 881.85,-68.88 744.62,-32 743.44,-31.68 742.25,-31.32 741.07,-30.91"/>
<polygon fill="#63b8ff" stroke="#63b8ff" points="742.62,-27.77 732.05,-27.09 739.89,-34.21 742.62,-27.77"/>
</a>
</g>
</g>
<!-- Node14 -->
<g id="Node000014" class="node">
<title>Node14</title>
<g id="a_Node000014"><a xlink:title=" ">
<polygon fill="#e0e0e0" stroke="#999999" points="797.12,-26 754.12,-26 754.12,-6 797.12,-6 797.12,-26"/>
<text text-anchor="middle" x="775.62" y="-12.5" font-family="Helvetica,sans-Serif" font-size="10.00">thread</text>
</a>
</g>
</g>
<!-- Node2&#45;&gt;Node14 -->
<g id="edge13_Node000002_Node000014" class="edge">
<title>Node2&#45;&gt;Node14</title>
<g id="a_edge13_Node000002_Node000014"><a xlink:title=" ">
<path fill="none" stroke="#63b8ff" d="M1449.97,-76.58C1342.9,-74.63 931.53,-65.08 806.62,-32 805.26,-31.64 803.88,-31.22 802.51,-30.75"/>
<polygon fill="#63b8ff" stroke="#63b8ff" points="804.2,-27.66 793.63,-27.05 801.52,-34.12 804.2,-27.66"/>
</a>
</g>
</g>
<!-- Node15 -->
<g id="Node000015" class="node">
<title>Node15</title>
<g id="a_Node000015"><a xlink:title=" ">
<polygon fill="#e0e0e0" stroke="#999999" points="898,-26 815.25,-26 815.25,-6 898,-6 898,-26"/>
<text text-anchor="middle" x="856.62" y="-12.5" font-family="Helvetica,sans-Serif" font-size="10.00">unordered_map</text>
</a>
</g>
</g>
<!-- Node2&#45;&gt;Node15 -->
<g id="edge14_Node000002_Node000015" class="edge">
<title>Node2&#45;&gt;Node15</title>
<g id="a_edge14_Node000002_Node000015"><a xlink:title=" ">
<path fill="none" stroke="#63b8ff" d="M1450.13,-76.9C1369.62,-76.2 1113.84,-70.82 906.62,-32 902.97,-31.32 899.21,-30.47 895.46,-29.52"/>
<polygon fill="#63b8ff" stroke="#63b8ff" points="896.43,-26.16 885.86,-26.87 894.57,-32.91 896.43,-26.16"/>
</a>
</g>
</g>
<!-- Node16 -->
<g id="Node000016" class="node">
<title>Node16</title>
<g id="a_Node000016"><a xlink:title=" ">
<polygon fill="#e0e0e0" stroke="#999999" points="993.38,-26 915.88,-26 915.88,-6 993.38,-6 993.38,-26"/>
<text text-anchor="middle" x="954.62" y="-12.5" font-family="Helvetica,sans-Serif" font-size="10.00">unordered_set</text>
</a>
</g>
</g>
<!-- Node2&#45;&gt;Node16 -->
<g id="edge15_Node000002_Node000016" class="edge">
<title>Node2&#45;&gt;Node16</title>
<g id="a_edge15_Node000002_Node000016"><a xlink:title=" ">
<path fill="none" stroke="#63b8ff" d="M1449.97,-76.43C1378.45,-74.44 1171.02,-65.94 1002.62,-32 999.27,-31.32 995.81,-30.5 992.37,-29.6"/>
<polygon fill="#63b8ff" stroke="#63b8ff" points="993.56,-26.3 982.99,-26.9 991.63,-33.03 993.56,-26.3"/>
</a>
</g>
</g>
<!-- Node17 -->
<g id="Node000017" class="node">
<title>Node17</title>
<g id="a_Node000017"><a xlink:title=" ">
<polygon fill="#e0e0e0" stroke="#999999" points="1053.38,-26 1011.88,-26 1011.88,-6 1053.38,-6 1053.38,-26"/>
<text text-anchor="middle" x="1032.62" y="-12.5" font-family="Helvetica,sans-Serif" font-size="10.00">vector</text>
</a>
</g>
</g>
<!-- Node2&#45;&gt;Node17 -->
<g id="edge16_Node000002_Node000017" class="edge">
<title>Node2&#45;&gt;Node17</title>
<g id="a_edge16_Node000002_Node000017"><a xlink:title=" ">
<path fill="none" stroke="#63b8ff" d="M1450.35,-77.32C1384.85,-77.5 1204.82,-73.83 1062.62,-32 1061.45,-31.65 1060.27,-31.27 1059.09,-30.84"/>
<polygon fill="#63b8ff" stroke="#63b8ff" points="1060.66,-27.71 1050.09,-26.95 1057.88,-34.13 1060.66,-27.71"/>
</a>
</g>
</g>
<!-- Node18 -->
<g id="Node000018" class="node">
<title>Node18</title>
<g id="a_Node000018"><a xlink:title=" ">
<polygon fill="#e0e0e0" stroke="#999999" points="1111.62,-26 1071.62,-26 1071.62,-6 1111.62,-6 1111.62,-26"/>
<text text-anchor="middle" x="1091.62" y="-12.5" font-family="Helvetica,sans-Serif" font-size="10.00">future</text>
</a>
</g>
</g>
<!-- Node2&#45;&gt;Node18 -->
<g id="edge17_Node000002_Node000018" class="edge">
<title>Node2&#45;&gt;Node18</title>
<g id="a_edge17_Node000002_Node000018"><a xlink:title=" ">
<path fill="none" stroke="#63b8ff" d="M1450.02,-76.8C1390.7,-75.69 1239.86,-69.11 1120.62,-32 1119.65,-31.7 1118.68,-31.36 1117.7,-31.01"/>
<polygon fill="#63b8ff" stroke="#63b8ff" points="1119.4,-27.93 1108.84,-27.07 1116.56,-34.33 1119.4,-27.93"/>
</a>
</g>
</g>
<!-- Node19 -->
<g id="Node000019" class="node">
<title>Node19</title>
<g id="a_Node000019"><a xlink:title=" ">
<polygon fill="#e0e0e0" stroke="#999999" points="1169.25,-26 1130,-26 1130,-6 1169.25,-6 1169.25,-26"/>
<text text-anchor="middle" x="1149.62" y="-12.5" font-family="Helvetica,sans-Serif" font-size="10.00">utility</text>
</a>
</g>
</g>
<!-- Node2&#45;&gt;Node19 -->
<g id="edge18_Node000002_Node000019" class="edge">
<title>Node2&#45;&gt;Node19</title>
<g id="a_edge18_Node000002_Node000019"><a xlink:title=" ">
<path fill="none" stroke="#63b8ff" d="M1449.95,-75.92C1397.67,-73.12 1275.6,-63.48 1178.62,-32 1177.66,-31.69 1176.68,-31.34 1175.71,-30.98"/>
<polygon fill="#63b8ff" stroke="#63b8ff" points="1177.41,-27.9 1166.86,-27 1174.55,-34.29 1177.41,-27.9"/>
</a>
</g>
</g>
<!-- Node20 -->
<g id="Node000020" class="node">
<title>Node20</title>
<g id="a_Node000020"><a xlink:title=" ">
<polygon fill="#e0e0e0" stroke="#999999" points="1235.75,-26 1187.5,-26 1187.5,-6 1235.75,-6 1235.75,-26"/>
<text text-anchor="middle" x="1211.62" y="-12.5" font-family="Helvetica,sans-Serif" font-size="10.00">random</text>
</a>
</g>
</g>
<!-- Node2&#45;&gt;Node20 -->
<g id="edge19_Node000002_Node000020" class="edge">
<title>Node2&#45;&gt;Node20</title>
<g id="a_edge19_Node000002_Node000020"><a xlink:title=" ">
<path fill="none" stroke="#63b8ff" d="M1450.19,-74.03C1407.11,-68.56 1317.4,-55.27 1244.62,-32 1243.28,-31.57 1241.91,-31.1 1240.54,-30.6"/>
<polygon fill="#63b8ff" stroke="#63b8ff" points="1242.15,-27.48 1231.57,-26.92 1239.5,-33.95 1242.15,-27.48"/>
</a>
</g>
</g>
<!-- Node21 -->
<g id="Node000021" class="node">
<title>Node21</title>
<g id="a_Node000021"><a xlink:title=" ">
<polygon fill="#e0e0e0" stroke="#999999" points="1293.62,-26 1253.62,-26 1253.62,-6 1293.62,-6 1293.62,-26"/>
<text text-anchor="middle" x="1273.62" y="-12.5" font-family="Helvetica,sans-Serif" font-size="10.00">regex</text>
</a>
</g>
</g>
<!-- Node2&#45;&gt;Node21 -->
<g id="edge20_Node000002_Node000021" class="edge">
<title>Node2&#45;&gt;Node21</title>
<g id="a_edge20_Node000002_Node000021"><a xlink:title=" ">
<path fill="none" stroke="#63b8ff" d="M1450.15,-72.23C1415.92,-65.4 1353.48,-51.49 1302.62,-32 1301.85,-31.7 1301.07,-31.39 1300.29,-31.07"/>
<polygon fill="#63b8ff" stroke="#63b8ff" points="1302.12,-28.06 1291.57,-27.01 1299.16,-34.41 1302.12,-28.06"/>
</a>
</g>
</g>
<!-- Node22 -->
<g id="Node000022" class="node">
<title>Node22</title>
<g id="a_Node000022"><a xlink:title=" ">
<polygon fill="#e0e0e0" stroke="#999999" points="1381.25,-26 1312,-26 1312,-6 1381.25,-6 1381.25,-26"/>
<text text-anchor="middle" x="1346.62" y="-12.5" font-family="Helvetica,sans-Serif" font-size="10.00">WinSock2.h</text>
</a>
</g>
</g>
<!-- Node2&#45;&gt;Node22 -->
<g id="edge21_Node000002_Node000022" class="edge">
<title>Node2&#45;&gt;Node22</title>
<g id="a_edge21_Node000002_Node000022"><a xlink:title=" ">
<path fill="none" stroke="#63b8ff" d="M1455.47,-67.62C1434.45,-57.85 1401.26,-42.41 1377.05,-31.15"/>
<polygon fill="#63b8ff" stroke="#63b8ff" points="1378.56,-27.99 1368.01,-26.95 1375.6,-34.34 1378.56,-27.99"/>
</a>
</g>
</g>
<!-- Node23 -->
<g id="Node000023" class="node">
<title>Node23</title>
<g id="a_Node000023"><a xlink:title=" ">
<polygon fill="#e0e0e0" stroke="#999999" points="1460.12,-26 1399.12,-26 1399.12,-6 1460.12,-6 1460.12,-26"/>
<text text-anchor="middle" x="1429.62" y="-12.5" font-family="Helvetica,sans-Serif" font-size="10.00">windows.h</text>
</a>
</g>
</g>
<!-- Node2&#45;&gt;Node23 -->
<g id="edge22_Node000002_Node000023" class="edge">
<title>Node2&#45;&gt;Node23</title>
<g id="a_edge22_Node000002_Node000023"><a xlink:title=" ">
<path fill="none" stroke="#63b8ff" d="M1468.44,-67.62C1461.78,-58.94 1451.7,-45.8 1443.48,-35.08"/>
<polygon fill="#63b8ff" stroke="#63b8ff" points="1446.39,-33.12 1437.53,-27.31 1440.84,-37.38 1446.39,-33.12"/>
</a>
</g>
</g>
<!-- Node24 -->
<g id="Node000024" class="node">
<title>Node24</title>
<g id="a_Node000024"><a xlink:href="../../de/dbf/locale__strings_8h.html" target="_top" xlink:title=" ">
<polygon fill="white" stroke="#666666" points="1562.75,-26 1478.5,-26 1478.5,-6 1562.75,-6 1562.75,-26"/>
<text text-anchor="middle" x="1520.62" y="-12.5" font-family="Helvetica,sans-Serif" font-size="10.00">locale_strings.h</text>
</a>
</g>
</g>
<!-- Node2&#45;&gt;Node24 -->
<g id="edge23_Node000002_Node000024" class="edge">
<title>Node2&#45;&gt;Node24</title>
<g id="a_edge23_Node000002_Node000024"><a xlink:title=" ">
<path fill="none" stroke="#63b8ff" d="M1482.66,-67.62C1489.17,-58.94 1499.03,-45.8 1507.07,-35.08"/>
<polygon fill="#63b8ff" stroke="#63b8ff" points="1509.68,-37.42 1512.88,-27.32 1504.08,-33.22 1509.68,-37.42"/>
</a>
</g>
</g>
<!-- Node25 -->
<g id="Node000025" class="node">
<title>Node25</title>
<g id="a_Node000025"><a xlink:title=" ">
<polygon fill="#e0e0e0" stroke="#999999" points="1640.38,-26 1580.88,-26 1580.88,-6 1640.38,-6 1640.38,-26"/>
<text text-anchor="middle" x="1610.62" y="-12.5" font-family="Helvetica,sans-Serif" font-size="10.00">GL/glew.h</text>
</a>
</g>
</g>
<!-- Node2&#45;&gt;Node25 -->
<g id="edge24_Node000002_Node000025" class="edge">
<title>Node2&#45;&gt;Node25</title>
<g id="a_edge24_Node000002_Node000025"><a xlink:title=" ">
<path fill="none" stroke="#63b8ff" d="M1496.72,-67.62C1518.91,-57.76 1554.07,-42.13 1579.46,-30.85"/>
<polygon fill="#63b8ff" stroke="#63b8ff" points="1580.58,-34.18 1588.3,-26.92 1577.74,-27.79 1580.58,-34.18"/>
</a>
</g>
</g>
<!-- Node26 -->
<g id="Node000026" class="node">
<title>Node26</title>
<g id="a_Node000026"><a xlink:title=" ">
<polygon fill="#e0e0e0" stroke="#999999" points="1736.38,-26 1658.88,-26 1658.88,-6 1736.38,-6 1736.38,-26"/>
<text text-anchor="middle" x="1697.62" y="-12.5" font-family="Helvetica,sans-Serif" font-size="10.00">GLFW/glfw3.h</text>
</a>
</g>
</g>
<!-- Node2&#45;&gt;Node26 -->
<g id="edge25_Node000002_Node000026" class="edge">
<title>Node2&#45;&gt;Node26</title>
<g id="a_edge25_Node000002_Node000026"><a xlink:title=" ">
<path fill="none" stroke="#63b8ff" d="M1501.09,-70.84C1535.09,-62.51 1597.12,-46.98 1649.62,-32 1652.18,-31.27 1654.8,-30.51 1657.43,-29.72"/>
<polygon fill="#63b8ff" stroke="#63b8ff" points="1658.25,-33.13 1666.8,-26.87 1656.21,-26.43 1658.25,-33.13"/>
</a>
</g>
</g>
<!-- Node27 -->
<g id="Node000027" class="node">
<title>Node27</title>
<g id="a_Node000027"><a xlink:title=" ">
<polygon fill="#e0e0e0" stroke="#999999" points="1823.25,-26 1754,-26 1754,-6 1823.25,-6 1823.25,-26"/>
<text text-anchor="middle" x="1788.62" y="-12.5" font-family="Helvetica,sans-Serif" font-size="10.00">glm/glm.hpp</text>
</a>
</g>
</g>
<!-- Node2&#45;&gt;Node27 -->
<g id="edge26_Node000002_Node000027" class="edge">
<title>Node2&#45;&gt;Node27</title>
<g id="a_edge26_Node000002_Node000027"><a xlink:title=" ">
<path fill="none" stroke="#63b8ff" d="M1501.24,-74.21C1549.55,-68.62 1657.23,-54.61 1745.62,-32 1748.05,-31.38 1750.54,-30.68 1753.03,-29.94"/>
<polygon fill="#63b8ff" stroke="#63b8ff" points="1753.95,-33.32 1762.39,-26.92 1751.8,-26.66 1753.95,-33.32"/>
</a>
</g>
</g>
<!-- Node28 -->
<g id="Node000028" class="node">
<title>Node28</title>
<g id="a_Node000028"><a xlink:title=" ">
<polygon fill="#e0e0e0" stroke="#999999" points="1954,-26 1841.25,-26 1841.25,-6 1954,-6 1954,-26"/>
<text text-anchor="middle" x="1897.62" y="-12.5" font-family="Helvetica,sans-Serif" font-size="10.00">glm/gtc/constants.hpp</text>
</a>
</g>
</g>
<!-- Node2&#45;&gt;Node28 -->
<g id="edge27_Node000002_Node000028" class="edge">
<title>Node2&#45;&gt;Node28</title>
<g id="a_edge27_Node000002_Node000028"><a xlink:title=" ">
<path fill="none" stroke="#63b8ff" d="M1501.3,-74.67C1560.17,-69.12 1709.31,-53.94 1832.62,-32 1837.84,-31.07 1843.26,-30 1848.66,-28.86"/>
<polygon fill="#63b8ff" stroke="#63b8ff" points="1849.11,-32.34 1858.13,-26.78 1847.61,-25.5 1849.11,-32.34"/>
</a>
</g>
</g>
<!-- Node29 -->
<g id="Node000029" class="node">
<title>Node29</title>
<g id="a_Node000029"><a xlink:title=" ">
<polygon fill="#e0e0e0" stroke="#999999" points="2115,-26 1972.25,-26 1972.25,-6 2115,-6 2115,-26"/>
<text text-anchor="middle" x="2043.62" y="-12.5" font-family="Helvetica,sans-Serif" font-size="10.00">glm/gtc/matrix_transform.hpp</text>
</a>
</g>
</g>
<!-- Node2&#45;&gt;Node29 -->
<g id="edge28_Node000002_Node000029" class="edge">
<title>Node2&#45;&gt;Node29</title>
<g id="a_edge28_Node000002_Node000029"><a xlink:title=" ">
<path fill="none" stroke="#63b8ff" d="M1501.33,-75.45C1574,-70.9 1787.05,-56.32 1962.62,-32 1970.05,-30.97 1977.83,-29.74 1985.51,-28.42"/>
<polygon fill="#63b8ff" stroke="#63b8ff" points="1985.9,-31.91 1995.14,-26.72 1984.68,-25.01 1985.9,-31.91"/>
</a>
</g>
</g>
<!-- Node30 -->
<g id="Node000030" class="node">
<title>Node30</title>
<g id="a_Node000030"><a xlink:title=" ">
<polygon fill="#e0e0e0" stroke="#999999" points="2272.5,-26 2132.75,-26 2132.75,-6 2272.5,-6 2272.5,-26"/>
<text text-anchor="middle" x="2202.62" y="-12.5" font-family="Helvetica,sans-Serif" font-size="10.00">glm/ext/vector_relational.hpp</text>
</a>
</g>
</g>
<!-- Node2&#45;&gt;Node30 -->
<g id="edge29_Node000002_Node000030" class="edge">
<title>Node2&#45;&gt;Node30</title>
<g id="a_edge29_Node000002_Node000030"><a xlink:title=" ">
<path fill="none" stroke="#63b8ff" d="M1501.36,-76.31C1588.86,-73.72 1882.89,-63.1 2123.62,-32 2131.07,-31.04 2138.87,-29.82 2146.55,-28.49"/>
<polygon fill="#63b8ff" stroke="#63b8ff" points="2146.94,-31.98 2156.16,-26.76 2145.7,-25.09 2146.94,-31.98"/>
</a>
</g>
</g>
<!-- Node31 -->
<g id="Node000031" class="node">
<title>Node31</title>
<g id="a_Node000031"><a xlink:title=" ">
<polygon fill="#e0e0e0" stroke="#999999" points="2391,-26 2290.25,-26 2290.25,-6 2391,-6 2391,-26"/>
<text text-anchor="middle" x="2340.62" y="-12.5" font-family="Helvetica,sans-Serif" font-size="10.00">glm/gtc/epsilon.hpp</text>
</a>
</g>
</g>
<!-- Node2&#45;&gt;Node31 -->
<g id="edge30_Node000002_Node000031" class="edge">
<title>Node2&#45;&gt;Node31</title>
<g id="a_edge30_Node000002_Node000031"><a xlink:title=" ">
<path fill="none" stroke="#63b8ff" d="M1501.22,-77.36C1601.52,-78.4 1977.22,-78.74 2281.62,-32 2286.64,-31.23 2291.84,-30.22 2297,-29.09"/>
<polygon fill="#63b8ff" stroke="#63b8ff" points="2297.69,-32.52 2306.62,-26.82 2296.08,-25.71 2297.69,-32.52"/>
</a>
</g>
</g>
<!-- Node32 -->
<g id="Node000032" class="node">
<title>Node32</title>
<g id="a_Node000032"><a xlink:title=" ">
<polygon fill="#e0e0e0" stroke="#999999" points="2534,-26 2409.25,-26 2409.25,-6 2534,-6 2534,-26"/>
<text text-anchor="middle" x="2471.62" y="-12.5" font-family="Helvetica,sans-Serif" font-size="10.00">glm/gtx/euler_angles.hpp</text>
</a>
</g>
</g>
<!-- Node2&#45;&gt;Node32 -->
<g id="edge31_Node000002_Node000032" class="edge">
<title>Node2&#45;&gt;Node32</title>
<g id="a_edge31_Node000002_Node000032"><a xlink:title=" ">
<path fill="none" stroke="#63b8ff" d="M1501.11,-77.22C1609.84,-77.84 2045.55,-77.22 2399.62,-32 2406.44,-31.13 2413.57,-29.96 2420.59,-28.66"/>
<polygon fill="#63b8ff" stroke="#63b8ff" points="2421.2,-32.11 2430.34,-26.74 2419.85,-25.24 2421.2,-32.11"/>
</a>
</g>
</g>
<!-- Node33 -->
<g id="Node000033" class="node">
<title>Node33</title>
<g id="a_Node000033"><a xlink:title=" ">
<polygon fill="#e0e0e0" stroke="#999999" points="2599.38,-26 2551.88,-26 2551.88,-6 2599.38,-6 2599.38,-26"/>
<text text-anchor="middle" x="2575.62" y="-12.5" font-family="Helvetica,sans-Serif" font-size="10.00">imgui.h</text>
</a>
</g>
</g>
<!-- Node2&#45;&gt;Node33 -->
<g id="edge32_Node000002_Node000033" class="edge">
<title>Node2&#45;&gt;Node33</title>
<g id="a_edge32_Node000002_Node000033"><a xlink:title=" ">
<path fill="none" stroke="#63b8ff" d="M1501.37,-77.25C1643.76,-78.4 2335.91,-81.36 2542.62,-32 2544.27,-31.61 2545.93,-31.13 2547.59,-30.59"/>
<polygon fill="#63b8ff" stroke="#63b8ff" points="2548.83,-33.87 2556.85,-26.95 2546.26,-27.36 2548.83,-33.87"/>
</a>
</g>
</g>
<!-- Node34 -->
<g id="Node000034" class="node">
<title>Node34</title>
<g id="a_Node000034"><a xlink:title=" ">
<polygon fill="#e0e0e0" stroke="#999999" points="2725.38,-32 2617.88,-32 2617.88,0 2725.38,0 2725.38,-32"/>
<text text-anchor="start" x="2625.88" y="-18.5" font-family="Helvetica,sans-Serif" font-size="10.00">backends/imgui_impl</text>
<text text-anchor="middle" x="2671.62" y="-6.5" font-family="Helvetica,sans-Serif" font-size="10.00">_glfw.h</text>
</a>
</g>
</g>
<!-- Node2&#45;&gt;Node34 -->
<g id="edge33_Node000002_Node000034" class="edge">
<title>Node2&#45;&gt;Node34</title>
<g id="a_edge33_Node000002_Node000034"><a xlink:title=" ">
<path fill="none" stroke="#63b8ff" d="M1501.37,-76.66C1646.22,-74.62 2361.5,-63.22 2606.16,-32.1"/>
<polygon fill="#63b8ff" stroke="#63b8ff" points="2606.5,-35.59 2615.95,-30.8 2605.58,-28.65 2606.5,-35.59"/>
</a>
</g>
</g>
<!-- Node35 -->
<g id="Node000035" class="node">
<title>Node35</title>
<g id="a_Node000035"><a xlink:title=" ">
<polygon fill="#e0e0e0" stroke="#999999" points="2851.38,-32 2743.88,-32 2743.88,0 2851.38,0 2851.38,-32"/>
<text text-anchor="start" x="2751.88" y="-18.5" font-family="Helvetica,sans-Serif" font-size="10.00">backends/imgui_impl</text>
<text text-anchor="middle" x="2797.62" y="-6.5" font-family="Helvetica,sans-Serif" font-size="10.00">_opengl3.h</text>
</a>
</g>
</g>
<!-- Node2&#45;&gt;Node35 -->
<g id="edge34_Node000002_Node000035" class="edge">
<title>Node2&#45;&gt;Node35</title>
<g id="a_edge34_Node000002_Node000035"><a xlink:title=" ">
<path fill="none" stroke="#63b8ff" d="M1501.37,-76.77C1655.73,-75.32 2460.63,-66.25 2732.09,-32.1"/>
<polygon fill="#63b8ff" stroke="#63b8ff" points="2732.5,-35.58 2741.96,-30.81 2731.59,-28.64 2732.5,-35.58"/>
</a>
</g>
</g>
<!-- Node36 -->
<g id="Node000036" class="node">
<title>Node36</title>
<g id="a_Node000036"><a xlink:title=" ">
<polygon fill="#e0e0e0" stroke="#999999" points="2988,-26 2869.25,-26 2869.25,-6 2988,-6 2988,-26"/>
<text text-anchor="middle" x="2928.62" y="-12.5" font-family="Helvetica,sans-Serif" font-size="10.00">misc/cpp/imgui_stdlib.h</text>
</a>
</g>
</g>
<!-- Node2&#45;&gt;Node36 -->
<g id="edge35_Node000002_Node000036" class="edge">
<title>Node2&#45;&gt;Node36</title>
<g id="a_edge35_Node000002_Node000036"><a xlink:title=" ">
<path fill="none" stroke="#63b8ff" d="M1501.21,-76.81C1666.3,-75.52 2582.98,-66.83 2860.62,-32 2867.16,-31.18 2873.99,-30.03 2880.69,-28.73"/>
<polygon fill="#63b8ff" stroke="#63b8ff" points="2881.22,-32.19 2890.3,-26.73 2879.8,-25.34 2881.22,-32.19"/>
</a>
</g>
</g>
<!-- Node37 -->
<g id="Node000037" class="node">
<title>Node37</title>
<g id="a_Node000037"><a xlink:title=" ">
<polygon fill="#e0e0e0" stroke="#999999" points="3090.75,-26 3006.5,-26 3006.5,-6 3090.75,-6 3090.75,-26"/>
<text text-anchor="middle" x="3048.62" y="-12.5" font-family="Helvetica,sans-Serif" font-size="10.00">imgui_internal.h</text>
</a>
</g>
</g>
<!-- Node2&#45;&gt;Node37 -->
<g id="edge36_Node000002_Node000037" class="edge">
<title>Node2&#45;&gt;Node37</title>
<g id="a_edge36_Node000002_Node000037"><a xlink:title=" ">
<path fill="none" stroke="#63b8ff" d="M1501.18,-77.12C1675.5,-77.81 2691.58,-79.73 2996.62,-32 3000.94,-31.32 3005.4,-30.4 3009.82,-29.34"/>
<polygon fill="#63b8ff" stroke="#63b8ff" points="3010.35,-32.82 3019.12,-26.87 3008.55,-26.05 3010.35,-32.82"/>
</a>
</g>
</g>
<!-- Node38 -->
<g id="Node000038" class="node">
<title>Node38</title>
<g id="a_Node000038"><a xlink:title=" ">
<polygon fill="#e0e0e0" stroke="#999999" points="3194.12,-26 3109.12,-26 3109.12,-6 3194.12,-6 3194.12,-26"/>
<text text-anchor="middle" x="3151.62" y="-12.5" font-family="Helvetica,sans-Serif" font-size="10.00">ImGuiNotify.hpp</text>
</a>
</g>
</g>
<!-- Node2&#45;&gt;Node38 -->
<g id="edge37_Node000002_Node000038" class="edge">
<title>Node2&#45;&gt;Node38</title>
<g id="a_edge37_Node000002_Node000038"><a xlink:title=" ">
<path fill="none" stroke="#63b8ff" d="M1501.15,-77.18C1682.06,-78.29 2772.85,-82.82 3099.62,-32 3103.94,-31.33 3108.4,-30.41 3112.82,-29.35"/>
<polygon fill="#63b8ff" stroke="#63b8ff" points="3113.35,-32.83 3122.12,-26.88 3111.55,-26.06 3113.35,-32.83"/>
</a>
</g>
</g>
<!-- Node39 -->
<g id="Node000039" class="node">
<title>Node39</title>
<g id="a_Node000039"><a xlink:title=" ">
<polygon fill="#e0e0e0" stroke="#999999" points="3347.25,-26 3212,-26 3212,-6 3347.25,-6 3347.25,-26"/>
<text text-anchor="middle" x="3279.62" y="-12.5" font-family="Helvetica,sans-Serif" font-size="10.00">addons/imguidatechooser.h</text>
</a>
</g>
</g>
<!-- Node2&#45;&gt;Node39 -->
<g id="edge38_Node000002_Node000039" class="edge">
<title>Node2&#45;&gt;Node39</title>
<g id="a_edge38_Node000002_Node000039"><a xlink:title=" ">
<path fill="none" stroke="#63b8ff" d="M1501.21,-76.92C1688.63,-76.23 2852.12,-70.44 3202.62,-32 3210.45,-31.14 3218.66,-29.91 3226.69,-28.51"/>
<polygon fill="#63b8ff" stroke="#63b8ff" points="3227.17,-31.98 3236.37,-26.72 3225.9,-25.1 3227.17,-31.98"/>
</a>
</g>
</g>
<!-- Node40 -->
<g id="Node000040" class="node">
<title>Node40</title>
<g id="a_Node000040"><a xlink:title=" ">
<polygon fill="#e0e0e0" stroke="#999999" points="3449.75,-26 3365.5,-26 3365.5,-6 3449.75,-6 3449.75,-26"/>
<text text-anchor="middle" x="3407.62" y="-12.5" font-family="Helvetica,sans-Serif" font-size="10.00">spdlog/spdlog.h</text>
</a>
</g>
</g>
<!-- Node2&#45;&gt;Node40 -->
<g id="edge39_Node000002_Node000040" class="edge">
<title>Node2&#45;&gt;Node40</title>
<g id="a_edge39_Node000002_Node000040"><a xlink:title=" ">
<path fill="none" stroke="#63b8ff" d="M1501.34,-76.79C1713.03,-75.03 3165.2,-61.91 3356.62,-32 3360.79,-31.35 3365.09,-30.45 3369.35,-29.42"/>
<polygon fill="#63b8ff" stroke="#63b8ff" points="3370.2,-32.82 3378.94,-26.83 3368.37,-26.06 3370.2,-32.82"/>
</a>
</g>
</g>
<!-- Node41 -->
<g id="Node000041" class="node">
<title>Node41</title>
<g id="a_Node000041"><a xlink:title=" ">
<polygon fill="#e0e0e0" stroke="#999999" points="3565.12,-32 3468.12,-32 3468.12,0 3565.12,0 3565.12,-32"/>
<text text-anchor="start" x="3476.12" y="-18.5" font-family="Helvetica,sans-Serif" font-size="10.00">spdlog/sinks/basic</text>
<text text-anchor="middle" x="3516.62" y="-6.5" font-family="Helvetica,sans-Serif" font-size="10.00">_file_sink.h</text>
</a>
</g>
</g>
<!-- Node2&#45;&gt;Node41 -->
<g id="edge40_Node000002_Node000041" class="edge">
<title>Node2&#45;&gt;Node41</title>
<g id="a_edge40_Node000002_Node000041"><a xlink:title=" ">
<path fill="none" stroke="#63b8ff" d="M1501.33,-76.78C1715.86,-74.86 3206.71,-60.6 3456.47,-31.91"/>
<polygon fill="#63b8ff" stroke="#63b8ff" points="3456.75,-35.4 3466.23,-30.68 3455.88,-28.46 3456.75,-35.4"/>
</a>
</g>
</g>
<!-- Node42 -->
<g id="Node000042" class="node">
<title>Node42</title>
<g id="a_Node000042"><a xlink:title=" ">
<polygon fill="#e0e0e0" stroke="#999999" points="3642.38,-26 3582.88,-26 3582.88,-6 3642.38,-6 3642.38,-26"/>
<text text-anchor="middle" x="3612.62" y="-12.5" font-family="Helvetica,sans-Serif" font-size="10.00">fmt/core.h</text>
</a>
</g>
</g>
<!-- Node2&#45;&gt;Node42 -->
<g id="edge41_Node000002_Node000042" class="edge">
<title>Node2&#45;&gt;Node42</title>
<g id="a_edge41_Node000002_Node000042"><a xlink:title=" ">
<path fill="none" stroke="#63b8ff" d="M1501.06,-76.99C1725.23,-76.79 3360.6,-73.92 3573.62,-32 3576.11,-31.51 3578.65,-30.88 3581.17,-30.14"/>
<polygon fill="#63b8ff" stroke="#63b8ff" points="3582.2,-33.49 3590.54,-26.95 3579.94,-26.86 3582.2,-33.49"/>
</a>
</g>
</g>
<!-- Node43 -->
<g id="Node000043" class="node">
<title>Node43</title>
<g id="a_Node000043"><a xlink:title=" ">
<polygon fill="#e0e0e0" stroke="#999999" points="3722.5,-26 3660.75,-26 3660.75,-6 3722.5,-6 3722.5,-26"/>
<text text-anchor="middle" x="3691.62" y="-12.5" font-family="Helvetica,sans-Serif" font-size="10.00">fmt/color.h</text>
</a>
</g>
</g>
<!-- Node2&#45;&gt;Node43 -->
<g id="edge42_Node000002_Node000043" class="edge">
<title>Node2&#45;&gt;Node43</title>
<g id="a_edge42_Node000002_Node000043"><a xlink:title=" ">
<path fill="none" stroke="#63b8ff" d="M1501.28,-76.99C1730.93,-76.87 3430.25,-74.51 3651.62,-32 3654.27,-31.49 3656.96,-30.83 3659.65,-30.06"/>
<polygon fill="#63b8ff" stroke="#63b8ff" points="3660.61,-33.43 3668.99,-26.95 3658.39,-26.79 3660.61,-33.43"/>
</a>
</g>
</g>
<!-- Node46&#45;&gt;Node47 -->
<g id="edge44_Node000046_Node000047" class="edge">
<title>Node46&#45;&gt;Node47</title>
<g id="a_edge44_Node000046_Node000047"><a xlink:title=" ">
<path fill="none" stroke="#63b8ff" d="M3731.09,-67.62C3741.18,-58.59 3756.67,-44.72 3768.89,-33.78"/>
<polygon fill="#63b8ff" stroke="#63b8ff" points="3771.21,-36.4 3776.32,-27.12 3766.54,-31.19 3771.21,-36.4"/>
</a>
</g>
</g>
</g>
</svg>

<g id="navigator" transform="translate(0 0)" fill="#404254">
  <rect fill="#f2f5e9" fill-opacity="0.5" stroke="#606060" stroke-width=".5" x="0" y="0" width="60" height="60"/>
  <use id="zoomplus" xlink:href="#zoomPlus" x="17" y="9" onmousedown="handleZoom(evt,'in')"/>
  <use id="zoomminus" xlink:href="#zoomMin" x="42" y="9" onmousedown="handleZoom(evt,'out')"/>
  <use id="reset" xlink:href="#resetDef" x="30" y="36" onmousedown="handleReset()"/>
   <use id="arrowup" xlink:href="#arrowUp" x="0" y="0" onmousedown="handlePan(0,-1)"/>
  <use id="arrowright" xlink:href="#arrowRight" x="0" y="0" onmousedown="handlePan(1,0)"/>
  <use id="arrowdown" xlink:href="#arrowDown" x="0" y="0" onmousedown="handlePan(0,1)"/>
  <use id="arrowleft" xlink:href="#arrowLeft" x="0" y="0" onmousedown="handlePan(-1,0)"/>
</g>
<svg viewBox="0 0 15 15" width="100%" height="30px" preserveAspectRatio="xMaxYMin meet">
 <g id="arrow_out" transform="scale(0.3 0.3)">
  <a xlink:href="_file_manager_8cpp__incl_org.svg" target="_base">
   <rect id="button" ry="5" rx="5" y="6" x="6" height="38" width="38"
        fill="#f2f5e9" fill-opacity="0.5" stroke="#606060" stroke-width="1.0"/>
   <path id="arrow"
     d="M 11.500037,31.436501 C 11.940474,20.09759 22.043105,11.32322 32.158766,21.979434 L 37.068811,17.246167 C 37.068811,17.246167 37.088388,32 37.088388,32 L 22.160133,31.978069 C 22.160133,31.978069 26.997745,27.140456 26.997745,27.140456 C 18.528582,18.264221 13.291696,25.230495 11.500037,31.436501 z"
     style="fill:#404040;"/>
  </a>
 </g>
</svg>

<style type='text/css'>
<![CDATA[
[data-mouse-over-selected='false'] { opacity: 0.7; }
[data-mouse-over-selected='true']  { opacity: 1.0; }
]]>
</style>
<script type="application/ecmascript"><![CDATA[
document.addEventListener('DOMContentLoaded', (event) => {
  highlightEdges();
  highlightAdjacentNodes();
});
]]></script>
</svg>
