<?xml version="1.0" encoding="UTF-8" standalone="no"?>
<!DOCTYPE svg PUBLIC "-//W3C//DTD SVG 1.1//EN"
 "http://www.w3.org/Graphics/SVG/1.1/DTD/svg11.dtd">
<!-- Generated by graphviz version 10.0.1 (20240210.2158)
 -->
<!-- Title: C:/GitHub/GEU/GEU/Source/UI/StatsWindow.cpp Pages: 1 -->
<svg width="3979pt" height="220pt"
 viewBox="0.00 0.00 3978.88 220.00" xmlns="http://www.w3.org/2000/svg" xmlns:xlink="http://www.w3.org/1999/xlink">
<g id="graph0" class="graph" transform="scale(1 1) rotate(0) translate(4 216)">
<title>C:/GitHub/GEU/GEU/Source/UI/StatsWindow.cpp</title>
<!-- Node1 -->
<g id="Node000001" class="node">
<title>Node1</title>
<g id="a_Node000001"><a xlink:title=" ">
<polygon fill="#999999" stroke="#666666" points="3587.75,-212 3447.25,-212 3447.25,-180 3587.75,-180 3587.75,-212"/>
<text text-anchor="start" x="3455.25" y="-198.5" font-family="Helvetica,sans-Serif" font-size="10.00">C:/GitHub/GEU/GEU/Source</text>
<text text-anchor="middle" x="3517.5" y="-186.5" font-family="Helvetica,sans-Serif" font-size="10.00">/UI/StatsWindow.cpp</text>
</a>
</g>
</g>
<!-- Node2 -->
<g id="Node000002" class="node">
<title>Node2</title>
<g id="a_Node000002"><a xlink:href="../../db/d06/stdafx_8h.html" target="_top" xlink:title=" ">
<polygon fill="#fff0f0" stroke="red" points="1717.75,-88 1667.25,-88 1667.25,-68 1717.75,-68 1717.75,-88"/>
<text text-anchor="middle" x="1692.5" y="-74.5" font-family="Helvetica,sans-Serif" font-size="10.00">stdafx.h</text>
</a>
</g>
</g>
<!-- Node1&#45;&gt;Node2 -->
<g id="edge1_Node000001_Node000002" class="edge">
<title>Node1&#45;&gt;Node2</title>
<g id="a_edge1_Node000001_Node000002"><a xlink:title=" ">
<path fill="none" stroke="#63b8ff" d="M3446.79,-188.47C3297.81,-174.89 2940.62,-143.27 2640.5,-124 2286.08,-101.25 1856.42,-84.91 1729.48,-80.31"/>
<polygon fill="#63b8ff" stroke="#63b8ff" points="1729.79,-76.82 1719.67,-79.96 1729.54,-83.82 1729.79,-76.82"/>
</a>
</g>
</g>
<!-- Node46 -->
<g id="Node000046" class="node">
<title>Node46</title>
<g id="a_Node000046"><a xlink:href="../../d5/d16/_stats_window_8h.html" target="_top" xlink:title=" ">
<polygon fill="#fff0f0" stroke="red" points="3627.5,-144 3545.5,-144 3545.5,-124 3627.5,-124 3627.5,-144"/>
<text text-anchor="middle" x="3586.5" y="-130.5" font-family="Helvetica,sans-Serif" font-size="10.00">StatsWindow.h</text>
</a>
</g>
</g>
<!-- Node1&#45;&gt;Node46 -->
<g id="edge42_Node000001_Node000046" class="edge">
<title>Node1&#45;&gt;Node46</title>
<g id="a_edge42_Node000001_Node000046"><a xlink:title=" ">
<path fill="none" stroke="#63b8ff" d="M3535.27,-179.55C3545.05,-171.04 3557.2,-160.48 3567.22,-151.77"/>
<polygon fill="#63b8ff" stroke="#63b8ff" points="3569.29,-154.6 3574.54,-145.4 3564.7,-149.32 3569.29,-154.6"/>
</a>
</g>
</g>
<!-- Node48 -->
<g id="Node000048" class="node">
<title>Node48</title>
<g id="a_Node000048"><a xlink:href="../../d4/d87/_gui_utilities_8h.html" target="_top" xlink:title=" ">
<polygon fill="#fff0f0" stroke="red" points="2631.25,-144 2559.75,-144 2559.75,-124 2631.25,-124 2631.25,-144"/>
<text text-anchor="middle" x="2595.5" y="-130.5" font-family="Helvetica,sans-Serif" font-size="10.00">GuiUtilities.h</text>
</a>
</g>
</g>
<!-- Node1&#45;&gt;Node48 -->
<g id="edge43_Node000001_Node000048" class="edge">
<title>Node1&#45;&gt;Node48</title>
<g id="a_edge43_Node000001_Node000048"><a xlink:title=" ">
<path fill="none" stroke="#63b8ff" d="M3447.06,-190.42C3267.16,-178.71 2794.28,-147.94 2642.87,-138.08"/>
<polygon fill="#63b8ff" stroke="#63b8ff" points="2643.41,-134.61 2633.21,-137.45 2642.96,-141.6 2643.41,-134.61"/>
</a>
</g>
</g>
<!-- Node53 -->
<g id="Node000053" class="node">
<title>Node53</title>
<g id="a_Node000053"><a xlink:title=" ">
<polygon fill="#e0e0e0" stroke="#999999" points="3695.75,-144 3645.25,-144 3645.25,-124 3695.75,-124 3695.75,-144"/>
<text text-anchor="middle" x="3670.5" y="-130.5" font-family="Helvetica,sans-Serif" font-size="10.00">implot.h</text>
</a>
</g>
</g>
<!-- Node1&#45;&gt;Node53 -->
<g id="edge45_Node000001_Node000053" class="edge">
<title>Node1&#45;&gt;Node53</title>
<g id="a_edge45_Node000001_Node000053"><a xlink:title=" ">
<path fill="none" stroke="#63b8ff" d="M3556.9,-179.55C3581.36,-169.96 3612.5,-157.75 3635.98,-148.54"/>
<polygon fill="#63b8ff" stroke="#63b8ff" points="3637.07,-151.87 3645.1,-144.96 3634.51,-145.35 3637.07,-151.87"/>
</a>
</g>
</g>
<!-- Node54 -->
<g id="Node000054" class="node">
<title>Node54</title>
<g id="a_Node000054"><a xlink:href="../../dd/d9b/_application_state_8h.html" target="_top" xlink:title=" ">
<polygon fill="#fff0f0" stroke="red" points="3602.88,-88 3484.12,-88 3484.12,-68 3602.88,-68 3602.88,-88"/>
<text text-anchor="middle" x="3543.5" y="-74.5" font-family="Helvetica,sans-Serif" font-size="10.00">Core/ApplicationState.h</text>
</a>
</g>
</g>
<!-- Node1&#45;&gt;Node54 -->
<g id="edge46_Node000001_Node000054" class="edge">
<title>Node1&#45;&gt;Node54</title>
<g id="a_edge46_Node000001_Node000054"><a xlink:title=" ">
<path fill="none" stroke="#63b8ff" d="M3520.9,-179.84C3525.5,-159.32 3533.72,-122.63 3538.88,-99.62"/>
<polygon fill="#63b8ff" stroke="#63b8ff" points="3542.28,-100.44 3541.05,-89.91 3535.45,-98.91 3542.28,-100.44"/>
</a>
</g>
</g>
<!-- Node70 -->
<g id="Node000070" class="node">
<title>Node70</title>
<g id="a_Node000070"><a xlink:href="../../d5/d87/_memory_manager_8h.html" target="_top" xlink:title=" ">
<polygon fill="white" stroke="#666666" points="3833.62,-144 3713.38,-144 3713.38,-124 3833.62,-124 3833.62,-144"/>
<text text-anchor="middle" x="3773.5" y="-130.5" font-family="Helvetica,sans-Serif" font-size="10.00">Core/MemoryManager.h</text>
</a>
</g>
</g>
<!-- Node1&#45;&gt;Node70 -->
<g id="edge47_Node000001_Node000070" class="edge">
<title>Node1&#45;&gt;Node70</title>
<g id="a_edge47_Node000001_Node000070"><a xlink:title=" ">
<path fill="none" stroke="#63b8ff" d="M3583.43,-179.55C3626.53,-169.45 3682.03,-156.44 3721.91,-147.09"/>
<polygon fill="#63b8ff" stroke="#63b8ff" points="3722.57,-150.53 3731.51,-144.84 3720.97,-143.72 3722.57,-150.53"/>
</a>
</g>
</g>
<!-- Node69 -->
<g id="Node000069" class="node">
<title>Node69</title>
<g id="a_Node000069"><a xlink:href="../../dd/db7/_g_p_u_resources_8h.html" target="_top" xlink:title=" ">
<polygon fill="white" stroke="#666666" points="3466.38,-88 3374.62,-88 3374.62,-68 3466.38,-68 3466.38,-88"/>
<text text-anchor="middle" x="3420.5" y="-74.5" font-family="Helvetica,sans-Serif" font-size="10.00">GPUResources.h</text>
</a>
</g>
</g>
<!-- Node1&#45;&gt;Node69 -->
<g id="edge48_Node000001_Node000069" class="edge">
<title>Node1&#45;&gt;Node69</title>
<g id="a_edge48_Node000001_Node000069"><a xlink:title=" ">
<path fill="none" stroke="#63b8ff" d="M3446.89,-181.41C3426.57,-173.87 3406.63,-162.17 3394.5,-144 3384.83,-129.52 3394.12,-110.9 3404.18,-97.3"/>
<polygon fill="#63b8ff" stroke="#63b8ff" points="3406.85,-99.56 3410.43,-89.59 3401.41,-95.15 3406.85,-99.56"/>
</a>
</g>
</g>
<!-- Node71 -->
<g id="Node000071" class="node">
<title>Node71</title>
<g id="a_Node000071"><a xlink:href="../../d3/da0/_renderer_8h.html" target="_top" xlink:title=" ">
<polygon fill="#fff0f0" stroke="red" points="3489.75,-144 3403.25,-144 3403.25,-124 3489.75,-124 3489.75,-144"/>
<text text-anchor="middle" x="3446.5" y="-130.5" font-family="Helvetica,sans-Serif" font-size="10.00">Core/Renderer.h</text>
</a>
</g>
</g>
<!-- Node1&#45;&gt;Node71 -->
<g id="edge51_Node000001_Node000071" class="edge">
<title>Node1&#45;&gt;Node71</title>
<g id="a_edge51_Node000001_Node000071"><a xlink:title=" ">
<path fill="none" stroke="#63b8ff" d="M3499.22,-179.55C3489.15,-171.04 3476.65,-160.48 3466.34,-151.77"/>
<polygon fill="#63b8ff" stroke="#63b8ff" points="3468.69,-149.17 3458.79,-145.38 3464.17,-154.51 3468.69,-149.17"/>
</a>
</g>
</g>
<!-- Node86 -->
<g id="Node000086" class="node">
<title>Node86</title>
<g id="a_Node000086"><a xlink:href="../../d6/d20/_locale_strings_8h.html" target="_top" xlink:title=" ">
<polygon fill="#fff0f0" stroke="red" points="3970.88,-144 3852.12,-144 3852.12,-124 3970.88,-124 3970.88,-144"/>
<text text-anchor="middle" x="3911.5" y="-130.5" font-family="Helvetica,sans-Serif" font-size="10.00">Utilities/LocaleStrings.h</text>
</a>
</g>
</g>
<!-- Node1&#45;&gt;Node86 -->
<g id="edge54_Node000001_Node000086" class="edge">
<title>Node1&#45;&gt;Node86</title>
<g id="a_edge54_Node000001_Node000086"><a xlink:title=" ">
<path fill="none" stroke="#63b8ff" d="M3587.94,-184.27C3659.27,-173.41 3768.99,-156.7 3840.52,-145.81"/>
<polygon fill="#63b8ff" stroke="#63b8ff" points="3840.8,-149.31 3850.16,-144.34 3839.75,-142.39 3840.8,-149.31"/>
</a>
</g>
</g>
<!-- Node3 -->
<g id="Node000003" class="node">
<title>Node3</title>
<g id="a_Node000003"><a xlink:title=" ">
<polygon fill="#e0e0e0" stroke="#999999" points="3564.12,-26 3518.88,-26 3518.88,-6 3564.12,-6 3564.12,-26"/>
<text text-anchor="middle" x="3541.5" y="-12.5" font-family="Helvetica,sans-Serif" font-size="10.00">cstdint</text>
</a>
</g>
</g>
<!-- Node2&#45;&gt;Node3 -->
<g id="edge2_Node000002_Node000003" class="edge">
<title>Node2&#45;&gt;Node3</title>
<g id="a_edge2_Node000002_Node000003"><a xlink:title=" ">
<path fill="none" stroke="#63b8ff" d="M1718.03,-77C1925.19,-76.94 3327.53,-74.91 3509.5,-32 3511.1,-31.62 3512.73,-31.16 3514.34,-30.63"/>
<polygon fill="#63b8ff" stroke="#63b8ff" points="3515.33,-34 3523.3,-27.02 3512.71,-27.51 3515.33,-34"/>
</a>
</g>
</g>
<!-- Node4 -->
<g id="Node000004" class="node">
<title>Node4</title>
<g id="a_Node000004"><a xlink:title=" ">
<polygon fill="#e0e0e0" stroke="#999999" points="3274.75,-26 3230.25,-26 3230.25,-6 3274.75,-6 3274.75,-26"/>
<text text-anchor="middle" x="3252.5" y="-12.5" font-family="Helvetica,sans-Serif" font-size="10.00">cstdlib</text>
</a>
</g>
</g>
<!-- Node2&#45;&gt;Node4 -->
<g id="edge3_Node000002_Node000004" class="edge">
<title>Node2&#45;&gt;Node4</title>
<g id="a_edge3_Node000002_Node000004"><a xlink:title=" ">
<path fill="none" stroke="#63b8ff" d="M1718.02,-76.89C1905.73,-76.02 3069.79,-69.13 3221.5,-32 3222.9,-31.66 3224.32,-31.24 3225.73,-30.78"/>
<polygon fill="#63b8ff" stroke="#63b8ff" points="3226.94,-34.07 3234.85,-27.02 3224.27,-27.59 3226.94,-34.07"/>
</a>
</g>
</g>
<!-- Node5 -->
<g id="Node000005" class="node">
<title>Node5</title>
<g id="a_Node000005"><a xlink:title=" ">
<polygon fill="#e0e0e0" stroke="#999999" points="3350.5,-26 3292.5,-26 3292.5,-6 3350.5,-6 3350.5,-26"/>
<text text-anchor="middle" x="3321.5" y="-12.5" font-family="Helvetica,sans-Serif" font-size="10.00">execution</text>
</a>
</g>
</g>
<!-- Node2&#45;&gt;Node5 -->
<g id="edge4_Node000002_Node000005" class="edge">
<title>Node2&#45;&gt;Node5</title>
<g id="a_edge4_Node000002_Node000005"><a xlink:title=" ">
<path fill="none" stroke="#63b8ff" d="M1718.1,-76.81C1910.29,-75.32 3124.04,-64.68 3283.5,-32 3285.83,-31.52 3288.21,-30.91 3290.58,-30.21"/>
<polygon fill="#63b8ff" stroke="#63b8ff" points="3291.67,-33.54 3299.96,-26.94 3289.37,-26.93 3291.67,-33.54"/>
</a>
</g>
</g>
<!-- Node6 -->
<g id="Node000006" class="node">
<title>Node6</title>
<g id="a_Node000006"><a xlink:title=" ">
<polygon fill="#e0e0e0" stroke="#999999" points="3422.25,-26 3368.75,-26 3368.75,-6 3422.25,-6 3422.25,-26"/>
<text text-anchor="middle" x="3395.5" y="-12.5" font-family="Helvetica,sans-Serif" font-size="10.00">iostream</text>
</a>
</g>
</g>
<!-- Node2&#45;&gt;Node6 -->
<g id="edge5_Node000002_Node000006" class="edge">
<title>Node2&#45;&gt;Node6</title>
<g id="a_edge5_Node000002_Node000006"><a xlink:title=" ">
<path fill="none" stroke="#63b8ff" d="M1718.06,-76.88C1915.34,-75.84 3192.38,-67.78 3359.5,-32 3361.55,-31.56 3363.62,-31.01 3365.69,-30.38"/>
<polygon fill="#63b8ff" stroke="#63b8ff" points="3366.87,-33.68 3375.07,-26.96 3364.48,-27.1 3366.87,-33.68"/>
</a>
</g>
</g>
<!-- Node7 -->
<g id="Node000007" class="node">
<title>Node7</title>
<g id="a_Node000007"><a xlink:title=" ">
<polygon fill="#e0e0e0" stroke="#999999" points="3500.62,-26 3440.38,-26 3440.38,-6 3500.62,-6 3500.62,-26"/>
<text text-anchor="middle" x="3470.5" y="-12.5" font-family="Helvetica,sans-Serif" font-size="10.00">filesystem</text>
</a>
</g>
</g>
<!-- Node2&#45;&gt;Node7 -->
<g id="edge6_Node000002_Node000007" class="edge">
<title>Node2&#45;&gt;Node7</title>
<g id="a_edge6_Node000002_Node000007"><a xlink:title=" ">
<path fill="none" stroke="#63b8ff" d="M1718.18,-76.86C1920.66,-75.72 3256.37,-66.87 3431.5,-32 3433.99,-31.51 3436.52,-30.87 3439.04,-30.13"/>
<polygon fill="#63b8ff" stroke="#63b8ff" points="3440.07,-33.48 3448.41,-26.94 3437.81,-26.85 3440.07,-33.48"/>
</a>
</g>
</g>
<!-- Node8 -->
<g id="Node000008" class="node">
<title>Node8</title>
<g id="a_Node000008"><a xlink:title=" ">
<polygon fill="#e0e0e0" stroke="#999999" points="43,-26 0,-26 0,-6 43,-6 43,-26"/>
<text text-anchor="middle" x="21.5" y="-12.5" font-family="Helvetica,sans-Serif" font-size="10.00">format</text>
</a>
</g>
</g>
<!-- Node2&#45;&gt;Node8 -->
<g id="edge7_Node000002_Node000008" class="edge">
<title>Node2&#45;&gt;Node8</title>
<g id="a_edge7_Node000002_Node000008"><a xlink:title=" ">
<path fill="none" stroke="#63b8ff" d="M1667.02,-76.95C1471.77,-76.46 215.77,-71.79 52.5,-32 51.09,-31.66 49.68,-31.25 48.27,-30.78"/>
<polygon fill="#63b8ff" stroke="#63b8ff" points="49.73,-27.6 39.15,-27.02 47.06,-34.07 49.73,-27.6"/>
</a>
</g>
</g>
<!-- Node9 -->
<g id="Node000009" class="node">
<title>Node9</title>
<g id="a_Node000009"><a xlink:title=" ">
<polygon fill="#e0e0e0" stroke="#999999" points="109.62,-26 61.38,-26 61.38,-6 109.62,-6 109.62,-26"/>
<text text-anchor="middle" x="85.5" y="-12.5" font-family="Helvetica,sans-Serif" font-size="10.00">fstream</text>
</a>
</g>
</g>
<!-- Node2&#45;&gt;Node9 -->
<g id="edge8_Node000002_Node000009" class="edge">
<title>Node2&#45;&gt;Node9</title>
<g id="a_edge8_Node000002_Node000009"><a xlink:title=" ">
<path fill="none" stroke="#63b8ff" d="M1666.85,-76.88C1475.62,-75.9 275.3,-68.32 118.5,-32 116.85,-31.62 115.19,-31.15 113.53,-30.62"/>
<polygon fill="#63b8ff" stroke="#63b8ff" points="114.85,-27.38 104.26,-27 112.3,-33.9 114.85,-27.38"/>
</a>
</g>
</g>
<!-- Node10 -->
<g id="Node000010" class="node">
<title>Node10</title>
<g id="a_Node000010"><a xlink:title=" ">
<polygon fill="#e0e0e0" stroke="#999999" points="185.12,-26 127.88,-26 127.88,-6 185.12,-6 185.12,-26"/>
<text text-anchor="middle" x="156.5" y="-12.5" font-family="Helvetica,sans-Serif" font-size="10.00">functional</text>
</a>
</g>
</g>
<!-- Node2&#45;&gt;Node10 -->
<g id="edge9_Node000002_Node000010" class="edge">
<title>Node2&#45;&gt;Node10</title>
<g id="a_edge9_Node000002_Node000010"><a xlink:title=" ">
<path fill="none" stroke="#63b8ff" d="M1666.92,-76.78C1481.21,-75.09 343.18,-63.52 193.5,-32 191.31,-31.54 189.09,-30.96 186.87,-30.29"/>
<polygon fill="#63b8ff" stroke="#63b8ff" points="188.08,-27.01 177.49,-26.94 185.73,-33.6 188.08,-27.01"/>
</a>
</g>
</g>
<!-- Node11 -->
<g id="Node000011" class="node">
<title>Node11</title>
<g id="a_Node000011"><a xlink:title=" ">
<polygon fill="#e0e0e0" stroke="#999999" points="254.12,-26 202.88,-26 202.88,-6 254.12,-6 254.12,-26"/>
<text text-anchor="middle" x="228.5" y="-12.5" font-family="Helvetica,sans-Serif" font-size="10.00">memory</text>
</a>
</g>
</g>
<!-- Node2&#45;&gt;Node11 -->
<g id="edge10_Node000002_Node000011" class="edge">
<title>Node2&#45;&gt;Node11</title>
<g id="a_edge10_Node000002_Node000011"><a xlink:title=" ">
<path fill="none" stroke="#63b8ff" d="M1666.94,-76.78C1486.24,-75.18 404.5,-64.27 262.5,-32 260.72,-31.6 258.93,-31.1 257.14,-30.54"/>
<polygon fill="#63b8ff" stroke="#63b8ff" points="258.41,-27.28 247.82,-26.97 255.91,-33.81 258.41,-27.28"/>
</a>
</g>
</g>
<!-- Node12 -->
<g id="Node000012" class="node">
<title>Node12</title>
<g id="a_Node000012"><a xlink:title=" ">
<polygon fill="#e0e0e0" stroke="#999999" points="323.12,-26 271.88,-26 271.88,-6 323.12,-6 323.12,-26"/>
<text text-anchor="middle" x="297.5" y="-12.5" font-family="Helvetica,sans-Serif" font-size="10.00">sstream</text>
</a>
</g>
</g>
<!-- Node2&#45;&gt;Node12 -->
<g id="edge11_Node000002_Node000012" class="edge">
<title>Node2&#45;&gt;Node12</title>
<g id="a_edge11_Node000002_Node000012"><a xlink:title=" ">
<path fill="none" stroke="#63b8ff" d="M1666.8,-76.72C1490.89,-74.74 467.33,-62.01 332.5,-32 330.59,-31.58 328.66,-31.05 326.73,-30.45"/>
<polygon fill="#63b8ff" stroke="#63b8ff" points="327.97,-27.18 317.38,-26.95 325.52,-33.73 327.97,-27.18"/>
</a>
</g>
</g>
<!-- Node13 -->
<g id="Node000013" class="node">
<title>Node13</title>
<g id="a_Node000013"><a xlink:title=" ">
<polygon fill="#e0e0e0" stroke="#999999" points="383.62,-26 341.38,-26 341.38,-6 383.62,-6 383.62,-26"/>
<text text-anchor="middle" x="362.5" y="-12.5" font-family="Helvetica,sans-Serif" font-size="10.00">cstdio</text>
</a>
</g>
</g>
<!-- Node2&#45;&gt;Node13 -->
<g id="edge12_Node000002_Node000013" class="edge">
<title>Node2&#45;&gt;Node13</title>
<g id="a_edge12_Node000002_Node000013"><a xlink:title=" ">
<path fill="none" stroke="#63b8ff" d="M1666.82,-76.77C1495.44,-75.14 520.19,-64.49 392.5,-32 391.14,-31.65 389.76,-31.24 388.39,-30.77"/>
<polygon fill="#63b8ff" stroke="#63b8ff" points="390.16,-27.72 379.59,-27.02 387.42,-34.16 390.16,-27.72"/>
</a>
</g>
</g>
<!-- Node14 -->
<g id="Node000014" class="node">
<title>Node14</title>
<g id="a_Node000014"><a xlink:title=" ">
<polygon fill="#e0e0e0" stroke="#999999" points="445,-26 402,-26 402,-6 445,-6 445,-26"/>
<text text-anchor="middle" x="423.5" y="-12.5" font-family="Helvetica,sans-Serif" font-size="10.00">thread</text>
</a>
</g>
</g>
<!-- Node2&#45;&gt;Node14 -->
<g id="edge13_Node000002_Node000014" class="edge">
<title>Node2&#45;&gt;Node14</title>
<g id="a_edge13_Node000002_Node000014"><a xlink:title=" ">
<path fill="none" stroke="#63b8ff" d="M1666.99,-76.7C1500.89,-74.69 576.02,-62.19 454.5,-32 453.1,-31.65 451.68,-31.23 450.27,-30.77"/>
<polygon fill="#63b8ff" stroke="#63b8ff" points="451.73,-27.58 441.15,-27 449.06,-34.05 451.73,-27.58"/>
</a>
</g>
</g>
<!-- Node15 -->
<g id="Node000015" class="node">
<title>Node15</title>
<g id="a_Node000015"><a xlink:title=" ">
<polygon fill="#e0e0e0" stroke="#999999" points="545.88,-26 463.12,-26 463.12,-6 545.88,-6 545.88,-26"/>
<text text-anchor="middle" x="504.5" y="-12.5" font-family="Helvetica,sans-Serif" font-size="10.00">unordered_map</text>
</a>
</g>
</g>
<!-- Node2&#45;&gt;Node15 -->
<g id="edge14_Node000002_Node000015" class="edge">
<title>Node2&#45;&gt;Node15</title>
<g id="a_edge14_Node000002_Node000015"><a xlink:title=" ">
<path fill="none" stroke="#63b8ff" d="M1667.09,-76.86C1520.25,-75.95 779.02,-69.5 554.5,-32 550.58,-31.35 546.54,-30.48 542.53,-29.48"/>
<polygon fill="#63b8ff" stroke="#63b8ff" points="543.48,-26.11 532.91,-26.84 541.63,-32.86 543.48,-26.11"/>
</a>
</g>
</g>
<!-- Node16 -->
<g id="Node000016" class="node">
<title>Node16</title>
<g id="a_Node000016"><a xlink:title=" ">
<polygon fill="#e0e0e0" stroke="#999999" points="641.25,-26 563.75,-26 563.75,-6 641.25,-6 641.25,-26"/>
<text text-anchor="middle" x="602.5" y="-12.5" font-family="Helvetica,sans-Serif" font-size="10.00">unordered_set</text>
</a>
</g>
</g>
<!-- Node2&#45;&gt;Node16 -->
<g id="edge15_Node000002_Node000016" class="edge">
<title>Node2&#45;&gt;Node16</title>
<g id="a_edge15_Node000002_Node000016"><a xlink:title=" ">
<path fill="none" stroke="#63b8ff" d="M1666.99,-76.8C1527.37,-75.54 854.73,-67.69 650.5,-32 646.84,-31.36 643.08,-30.52 639.34,-29.56"/>
<polygon fill="#63b8ff" stroke="#63b8ff" points="640.39,-26.22 629.81,-26.84 638.46,-32.95 640.39,-26.22"/>
</a>
</g>
</g>
<!-- Node17 -->
<g id="Node000017" class="node">
<title>Node17</title>
<g id="a_Node000017"><a xlink:title=" ">
<polygon fill="#e0e0e0" stroke="#999999" points="701.25,-26 659.75,-26 659.75,-6 701.25,-6 701.25,-26"/>
<text text-anchor="middle" x="680.5" y="-12.5" font-family="Helvetica,sans-Serif" font-size="10.00">vector</text>
</a>
</g>
</g>
<!-- Node2&#45;&gt;Node17 -->
<g id="edge16_Node000002_Node000017" class="edge">
<title>Node2&#45;&gt;Node17</title>
<g id="a_edge16_Node000002_Node000017"><a xlink:title=" ">
<path fill="none" stroke="#63b8ff" d="M1667.03,-77.26C1532.01,-78.41 898.99,-81.08 710.5,-32 709.14,-31.65 707.76,-31.22 706.39,-30.75"/>
<polygon fill="#63b8ff" stroke="#63b8ff" points="708.17,-27.7 697.6,-26.99 705.41,-34.14 708.17,-27.7"/>
</a>
</g>
</g>
<!-- Node18 -->
<g id="Node000018" class="node">
<title>Node18</title>
<g id="a_Node000018"><a xlink:title=" ">
<polygon fill="#e0e0e0" stroke="#999999" points="759.5,-26 719.5,-26 719.5,-6 759.5,-6 759.5,-26"/>
<text text-anchor="middle" x="739.5" y="-12.5" font-family="Helvetica,sans-Serif" font-size="10.00">future</text>
</a>
</g>
</g>
<!-- Node2&#45;&gt;Node18 -->
<g id="edge17_Node000002_Node000018" class="edge">
<title>Node2&#45;&gt;Node18</title>
<g id="a_edge17_Node000002_Node000018"><a xlink:title=" ">
<path fill="none" stroke="#63b8ff" d="M1666.82,-77.22C1536.19,-78.12 944.71,-79.44 768.5,-32 767.32,-31.68 766.14,-31.31 764.96,-30.9"/>
<polygon fill="#63b8ff" stroke="#63b8ff" points="766.6,-27.8 756.04,-26.99 763.79,-34.21 766.6,-27.8"/>
</a>
</g>
</g>
<!-- Node19 -->
<g id="Node000019" class="node">
<title>Node19</title>
<g id="a_Node000019"><a xlink:title=" ">
<polygon fill="#e0e0e0" stroke="#999999" points="817.12,-26 777.88,-26 777.88,-6 817.12,-6 817.12,-26"/>
<text text-anchor="middle" x="797.5" y="-12.5" font-family="Helvetica,sans-Serif" font-size="10.00">utility</text>
</a>
</g>
</g>
<!-- Node2&#45;&gt;Node19 -->
<g id="edge18_Node000002_Node000019" class="edge">
<title>Node2&#45;&gt;Node19</title>
<g id="a_edge18_Node000002_Node000019"><a xlink:title=" ">
<path fill="none" stroke="#63b8ff" d="M1666.79,-77.12C1541.12,-77.5 990.88,-76.55 826.5,-32 825.32,-31.68 824.14,-31.31 822.96,-30.9"/>
<polygon fill="#63b8ff" stroke="#63b8ff" points="824.61,-27.8 814.04,-26.98 821.79,-34.21 824.61,-27.8"/>
</a>
</g>
</g>
<!-- Node20 -->
<g id="Node000020" class="node">
<title>Node20</title>
<g id="a_Node000020"><a xlink:title=" ">
<polygon fill="#e0e0e0" stroke="#999999" points="883.62,-26 835.38,-26 835.38,-6 883.62,-6 883.62,-26"/>
<text text-anchor="middle" x="859.5" y="-12.5" font-family="Helvetica,sans-Serif" font-size="10.00">random</text>
</a>
</g>
</g>
<!-- Node2&#45;&gt;Node20 -->
<g id="edge19_Node000002_Node000020" class="edge">
<title>Node2&#45;&gt;Node20</title>
<g id="a_edge19_Node000002_Node000020"><a xlink:title=" ">
<path fill="none" stroke="#63b8ff" d="M1666.83,-76.83C1547.28,-75.82 1044.46,-69.41 892.5,-32 890.86,-31.6 889.2,-31.11 887.54,-30.57"/>
<polygon fill="#63b8ff" stroke="#63b8ff" points="888.87,-27.33 878.28,-26.9 886.29,-33.84 888.87,-27.33"/>
</a>
</g>
</g>
<!-- Node21 -->
<g id="Node000021" class="node">
<title>Node21</title>
<g id="a_Node000021"><a xlink:title=" ">
<polygon fill="#e0e0e0" stroke="#999999" points="941.5,-26 901.5,-26 901.5,-6 941.5,-6 941.5,-26"/>
<text text-anchor="middle" x="921.5" y="-12.5" font-family="Helvetica,sans-Serif" font-size="10.00">regex</text>
</a>
</g>
</g>
<!-- Node2&#45;&gt;Node21 -->
<g id="edge20_Node000002_Node000021" class="edge">
<title>Node2&#45;&gt;Node21</title>
<g id="a_edge20_Node000002_Node000021"><a xlink:title=" ">
<path fill="none" stroke="#63b8ff" d="M1666.77,-76.86C1552.4,-76.04 1089.69,-70.37 950.5,-32 949.33,-31.68 948.14,-31.3 946.96,-30.89"/>
<polygon fill="#63b8ff" stroke="#63b8ff" points="948.61,-27.79 938.05,-26.96 945.79,-34.19 948.61,-27.79"/>
</a>
</g>
</g>
<!-- Node22 -->
<g id="Node000022" class="node">
<title>Node22</title>
<g id="a_Node000022"><a xlink:title=" ">
<polygon fill="#e0e0e0" stroke="#999999" points="1029.12,-26 959.88,-26 959.88,-6 1029.12,-6 1029.12,-26"/>
<text text-anchor="middle" x="994.5" y="-12.5" font-family="Helvetica,sans-Serif" font-size="10.00">WinSock2.h</text>
</a>
</g>
</g>
<!-- Node2&#45;&gt;Node22 -->
<g id="edge21_Node000002_Node000022" class="edge">
<title>Node2&#45;&gt;Node22</title>
<g id="a_edge21_Node000002_Node000022"><a xlink:title=" ">
<path fill="none" stroke="#63b8ff" d="M1666.76,-76.15C1561.19,-72.52 1161.17,-57.34 1037.5,-32 1034.55,-31.4 1031.53,-30.64 1028.52,-29.79"/>
<polygon fill="#63b8ff" stroke="#63b8ff" points="1029.87,-26.55 1019.28,-26.87 1027.76,-33.22 1029.87,-26.55"/>
</a>
</g>
</g>
<!-- Node23 -->
<g id="Node000023" class="node">
<title>Node23</title>
<g id="a_Node000023"><a xlink:title=" ">
<polygon fill="#e0e0e0" stroke="#999999" points="1108,-26 1047,-26 1047,-6 1108,-6 1108,-26"/>
<text text-anchor="middle" x="1077.5" y="-12.5" font-family="Helvetica,sans-Serif" font-size="10.00">windows.h</text>
</a>
</g>
</g>
<!-- Node2&#45;&gt;Node23 -->
<g id="edge22_Node000002_Node000023" class="edge">
<title>Node2&#45;&gt;Node23</title>
<g id="a_edge22_Node000002_Node000023"><a xlink:title=" ">
<path fill="none" stroke="#63b8ff" d="M1666.9,-77.53C1585.51,-78.68 1325.71,-78.22 1117.5,-32 1115.03,-31.45 1112.51,-30.78 1109.99,-30.04"/>
<polygon fill="#63b8ff" stroke="#63b8ff" points="1111.2,-26.75 1100.6,-26.87 1108.96,-33.38 1111.2,-26.75"/>
</a>
</g>
</g>
<!-- Node24 -->
<g id="Node000024" class="node">
<title>Node24</title>
<g id="a_Node000024"><a xlink:href="../../de/dbf/locale__strings_8h.html" target="_top" xlink:title=" ">
<polygon fill="white" stroke="#666666" points="1210.62,-26 1126.38,-26 1126.38,-6 1210.62,-6 1210.62,-26"/>
<text text-anchor="middle" x="1168.5" y="-12.5" font-family="Helvetica,sans-Serif" font-size="10.00">locale_strings.h</text>
</a>
</g>
</g>
<!-- Node2&#45;&gt;Node24 -->
<g id="edge23_Node000002_Node000024" class="edge">
<title>Node2&#45;&gt;Node24</title>
<g id="a_edge23_Node000002_Node000024"><a xlink:title=" ">
<path fill="none" stroke="#63b8ff" d="M1666.88,-76.28C1595.43,-73.91 1388.18,-64.52 1219.5,-32 1215.72,-31.27 1211.81,-30.38 1207.92,-29.4"/>
<polygon fill="#63b8ff" stroke="#63b8ff" points="1209.15,-26.11 1198.58,-26.86 1207.31,-32.86 1209.15,-26.11"/>
</a>
</g>
</g>
<!-- Node25 -->
<g id="Node000025" class="node">
<title>Node25</title>
<g id="a_Node000025"><a xlink:title=" ">
<polygon fill="#e0e0e0" stroke="#999999" points="3641.25,-26 3581.75,-26 3581.75,-6 3641.25,-6 3641.25,-26"/>
<text text-anchor="middle" x="3611.5" y="-12.5" font-family="Helvetica,sans-Serif" font-size="10.00">GL/glew.h</text>
</a>
</g>
</g>
<!-- Node2&#45;&gt;Node25 -->
<g id="edge24_Node000002_Node000025" class="edge">
<title>Node2&#45;&gt;Node25</title>
<g id="a_edge24_Node000002_Node000025"><a xlink:title=" ">
<path fill="none" stroke="#63b8ff" d="M1718.24,-76.93C1930.13,-76.29 3383.61,-70.48 3573.5,-32 3575.84,-31.53 3578.21,-30.92 3580.58,-30.22"/>
<polygon fill="#63b8ff" stroke="#63b8ff" points="3581.67,-33.55 3589.96,-26.95 3579.37,-26.94 3581.67,-33.55"/>
</a>
</g>
</g>
<!-- Node26 -->
<g id="Node000026" class="node">
<title>Node26</title>
<g id="a_Node000026"><a xlink:title=" ">
<polygon fill="#e0e0e0" stroke="#999999" points="1306.25,-26 1228.75,-26 1228.75,-6 1306.25,-6 1306.25,-26"/>
<text text-anchor="middle" x="1267.5" y="-12.5" font-family="Helvetica,sans-Serif" font-size="10.00">GLFW/glfw3.h</text>
</a>
</g>
</g>
<!-- Node2&#45;&gt;Node26 -->
<g id="edge25_Node000002_Node000026" class="edge">
<title>Node2&#45;&gt;Node26</title>
<g id="a_edge25_Node000002_Node000026"><a xlink:title=" ">
<path fill="none" stroke="#63b8ff" d="M1667.01,-75.64C1605.68,-72.02 1445.28,-60.38 1314.5,-32 1311.36,-31.32 1308.13,-30.52 1304.91,-29.64"/>
<polygon fill="#63b8ff" stroke="#63b8ff" points="1306.14,-26.35 1295.56,-26.89 1304.16,-33.07 1306.14,-26.35"/>
</a>
</g>
</g>
<!-- Node27 -->
<g id="Node000027" class="node">
<title>Node27</title>
<g id="a_Node000027"><a xlink:title=" ">
<polygon fill="#e0e0e0" stroke="#999999" points="1393.12,-26 1323.88,-26 1323.88,-6 1393.12,-6 1393.12,-26"/>
<text text-anchor="middle" x="1358.5" y="-12.5" font-family="Helvetica,sans-Serif" font-size="10.00">glm/glm.hpp</text>
</a>
</g>
</g>
<!-- Node2&#45;&gt;Node27 -->
<g id="edge26_Node000002_Node000027" class="edge">
<title>Node2&#45;&gt;Node27</title>
<g id="a_edge26_Node000002_Node000027"><a xlink:title=" ">
<path fill="none" stroke="#63b8ff" d="M1666.99,-74.56C1616.13,-69.35 1498.73,-55.68 1402.5,-32 1399.92,-31.37 1397.28,-30.65 1394.63,-29.87"/>
<polygon fill="#63b8ff" stroke="#63b8ff" points="1395.9,-26.61 1385.31,-26.94 1393.8,-33.28 1395.9,-26.61"/>
</a>
</g>
</g>
<!-- Node28 -->
<g id="Node000028" class="node">
<title>Node28</title>
<g id="a_Node000028"><a xlink:title=" ">
<polygon fill="#e0e0e0" stroke="#999999" points="1523.88,-26 1411.12,-26 1411.12,-6 1523.88,-6 1523.88,-26"/>
<text text-anchor="middle" x="1467.5" y="-12.5" font-family="Helvetica,sans-Serif" font-size="10.00">glm/gtc/constants.hpp</text>
</a>
</g>
</g>
<!-- Node2&#45;&gt;Node28 -->
<g id="edge27_Node000002_Node000028" class="edge">
<title>Node2&#45;&gt;Node28</title>
<g id="a_edge27_Node000002_Node000028"><a xlink:title=" ">
<path fill="none" stroke="#63b8ff" d="M1667.13,-70.23C1630.07,-60.35 1560.52,-41.81 1514.1,-29.43"/>
<polygon fill="#63b8ff" stroke="#63b8ff" points="1515.15,-26.08 1504.58,-26.89 1513.34,-32.85 1515.15,-26.08"/>
</a>
</g>
</g>
<!-- Node29 -->
<g id="Node000029" class="node">
<title>Node29</title>
<g id="a_Node000029"><a xlink:title=" ">
<polygon fill="#e0e0e0" stroke="#999999" points="1684.88,-26 1542.12,-26 1542.12,-6 1684.88,-6 1684.88,-26"/>
<text text-anchor="middle" x="1613.5" y="-12.5" font-family="Helvetica,sans-Serif" font-size="10.00">glm/gtc/matrix_transform.hpp</text>
</a>
</g>
</g>
<!-- Node2&#45;&gt;Node29 -->
<g id="edge28_Node000002_Node000029" class="edge">
<title>Node2&#45;&gt;Node29</title>
<g id="a_edge28_Node000002_Node000029"><a xlink:title=" ">
<path fill="none" stroke="#63b8ff" d="M1680.16,-67.62C1667.98,-58.38 1649.14,-44.07 1634.59,-33.01"/>
<polygon fill="#63b8ff" stroke="#63b8ff" points="1637.04,-30.49 1626.96,-27.22 1632.81,-36.06 1637.04,-30.49"/>
</a>
</g>
</g>
<!-- Node30 -->
<g id="Node000030" class="node">
<title>Node30</title>
<g id="a_Node000030"><a xlink:title=" ">
<polygon fill="#e0e0e0" stroke="#999999" points="1842.38,-26 1702.62,-26 1702.62,-6 1842.38,-6 1842.38,-26"/>
<text text-anchor="middle" x="1772.5" y="-12.5" font-family="Helvetica,sans-Serif" font-size="10.00">glm/ext/vector_relational.hpp</text>
</a>
</g>
</g>
<!-- Node2&#45;&gt;Node30 -->
<g id="edge29_Node000002_Node000030" class="edge">
<title>Node2&#45;&gt;Node30</title>
<g id="a_edge29_Node000002_Node000030"><a xlink:title=" ">
<path fill="none" stroke="#63b8ff" d="M1705,-67.62C1717.33,-58.38 1736.41,-44.07 1751.15,-33.01"/>
<polygon fill="#63b8ff" stroke="#63b8ff" points="1752.98,-36.02 1758.88,-27.22 1748.78,-30.42 1752.98,-36.02"/>
</a>
</g>
</g>
<!-- Node31 -->
<g id="Node000031" class="node">
<title>Node31</title>
<g id="a_Node000031"><a xlink:title=" ">
<polygon fill="#e0e0e0" stroke="#999999" points="1960.88,-26 1860.12,-26 1860.12,-6 1960.88,-6 1960.88,-26"/>
<text text-anchor="middle" x="1910.5" y="-12.5" font-family="Helvetica,sans-Serif" font-size="10.00">glm/gtc/epsilon.hpp</text>
</a>
</g>
</g>
<!-- Node2&#45;&gt;Node31 -->
<g id="edge30_Node000002_Node000031" class="edge">
<title>Node2&#45;&gt;Node31</title>
<g id="a_edge30_Node000002_Node000031"><a xlink:title=" ">
<path fill="none" stroke="#63b8ff" d="M1717.93,-70C1754.07,-60.05 1820.83,-41.68 1865.46,-29.4"/>
<polygon fill="#63b8ff" stroke="#63b8ff" points="1866.12,-32.84 1874.83,-26.82 1864.26,-26.1 1866.12,-32.84"/>
</a>
</g>
</g>
<!-- Node32 -->
<g id="Node000032" class="node">
<title>Node32</title>
<g id="a_Node000032"><a xlink:title=" ">
<polygon fill="#e0e0e0" stroke="#999999" points="2103.88,-26 1979.12,-26 1979.12,-6 2103.88,-6 2103.88,-26"/>
<text text-anchor="middle" x="2041.5" y="-12.5" font-family="Helvetica,sans-Serif" font-size="10.00">glm/gtx/euler_angles.hpp</text>
</a>
</g>
</g>
<!-- Node2&#45;&gt;Node32 -->
<g id="edge31_Node000002_Node000032" class="edge">
<title>Node2&#45;&gt;Node32</title>
<g id="a_edge31_Node000002_Node000032"><a xlink:title=" ">
<path fill="none" stroke="#63b8ff" d="M1718.15,-73.22C1767.13,-65.92 1877.28,-49.09 1969.5,-32 1975.08,-30.97 1980.9,-29.84 1986.7,-28.68"/>
<polygon fill="#63b8ff" stroke="#63b8ff" points="1987.19,-32.15 1996.29,-26.73 1985.8,-25.29 1987.19,-32.15"/>
</a>
</g>
</g>
<!-- Node33 -->
<g id="Node000033" class="node">
<title>Node33</title>
<g id="a_Node000033"><a xlink:title=" ">
<polygon fill="#e0e0e0" stroke="#999999" points="2169.25,-26 2121.75,-26 2121.75,-6 2169.25,-6 2169.25,-26"/>
<text text-anchor="middle" x="2145.5" y="-12.5" font-family="Helvetica,sans-Serif" font-size="10.00">imgui.h</text>
</a>
</g>
</g>
<!-- Node2&#45;&gt;Node33 -->
<g id="edge32_Node000002_Node000033" class="edge">
<title>Node2&#45;&gt;Node33</title>
<g id="a_edge32_Node000002_Node000033"><a xlink:title=" ">
<path fill="none" stroke="#63b8ff" d="M1718.11,-77.07C1784.5,-76.67 1967.13,-71.71 2112.5,-32 2113.9,-31.62 2115.32,-31.18 2116.73,-30.71"/>
<polygon fill="#63b8ff" stroke="#63b8ff" points="2117.97,-33.98 2125.98,-27.04 2115.39,-27.47 2117.97,-33.98"/>
</a>
</g>
</g>
<!-- Node34 -->
<g id="Node000034" class="node">
<title>Node34</title>
<g id="a_Node000034"><a xlink:title=" ">
<polygon fill="#e0e0e0" stroke="#999999" points="2295.25,-32 2187.75,-32 2187.75,0 2295.25,0 2295.25,-32"/>
<text text-anchor="start" x="2195.75" y="-18.5" font-family="Helvetica,sans-Serif" font-size="10.00">backends/imgui_impl</text>
<text text-anchor="middle" x="2241.5" y="-6.5" font-family="Helvetica,sans-Serif" font-size="10.00">_glfw.h</text>
</a>
</g>
</g>
<!-- Node2&#45;&gt;Node34 -->
<g id="edge33_Node000002_Node000034" class="edge">
<title>Node2&#45;&gt;Node34</title>
<g id="a_edge33_Node000002_Node000034"><a xlink:title=" ">
<path fill="none" stroke="#63b8ff" d="M1718.22,-75.9C1789.43,-72.59 1995.28,-61.19 2175.99,-32.26"/>
<polygon fill="#63b8ff" stroke="#63b8ff" points="2176.5,-35.72 2185.81,-30.66 2175.38,-28.81 2176.5,-35.72"/>
</a>
</g>
</g>
<!-- Node35 -->
<g id="Node000035" class="node">
<title>Node35</title>
<g id="a_Node000035"><a xlink:title=" ">
<polygon fill="#e0e0e0" stroke="#999999" points="2421.25,-32 2313.75,-32 2313.75,0 2421.25,0 2421.25,-32"/>
<text text-anchor="start" x="2321.75" y="-18.5" font-family="Helvetica,sans-Serif" font-size="10.00">backends/imgui_impl</text>
<text text-anchor="middle" x="2367.5" y="-6.5" font-family="Helvetica,sans-Serif" font-size="10.00">_opengl3.h</text>
</a>
</g>
</g>
<!-- Node2&#45;&gt;Node35 -->
<g id="edge34_Node000002_Node000035" class="edge">
<title>Node2&#45;&gt;Node35</title>
<g id="a_edge34_Node000002_Node000035"><a xlink:title=" ">
<path fill="none" stroke="#63b8ff" d="M1718.02,-76.59C1800.91,-74.93 2070.07,-67.17 2301.95,-32.22"/>
<polygon fill="#63b8ff" stroke="#63b8ff" points="2302.46,-35.69 2311.82,-30.71 2301.4,-28.77 2302.46,-35.69"/>
</a>
</g>
</g>
<!-- Node36 -->
<g id="Node000036" class="node">
<title>Node36</title>
<g id="a_Node000036"><a xlink:title=" ">
<polygon fill="#e0e0e0" stroke="#999999" points="2557.88,-26 2439.12,-26 2439.12,-6 2557.88,-6 2557.88,-26"/>
<text text-anchor="middle" x="2498.5" y="-12.5" font-family="Helvetica,sans-Serif" font-size="10.00">misc/cpp/imgui_stdlib.h</text>
</a>
</g>
</g>
<!-- Node2&#45;&gt;Node36 -->
<g id="edge35_Node000002_Node000036" class="edge">
<title>Node2&#45;&gt;Node36</title>
<g id="a_edge35_Node000002_Node000036"><a xlink:title=" ">
<path fill="none" stroke="#63b8ff" d="M1718.14,-76.88C1813.06,-76.14 2153.37,-70.77 2430.5,-32 2436.64,-31.14 2443.04,-30.03 2449.36,-28.79"/>
<polygon fill="#63b8ff" stroke="#63b8ff" points="2450,-32.23 2459.09,-26.77 2448.58,-25.38 2450,-32.23"/>
</a>
</g>
</g>
<!-- Node37 -->
<g id="Node000037" class="node">
<title>Node37</title>
<g id="a_Node000037"><a xlink:title=" ">
<polygon fill="#e0e0e0" stroke="#999999" points="2660.62,-26 2576.38,-26 2576.38,-6 2660.62,-6 2660.62,-26"/>
<text text-anchor="middle" x="2618.5" y="-12.5" font-family="Helvetica,sans-Serif" font-size="10.00">imgui_internal.h</text>
</a>
</g>
</g>
<!-- Node2&#45;&gt;Node37 -->
<g id="edge36_Node000002_Node000037" class="edge">
<title>Node2&#45;&gt;Node37</title>
<g id="a_edge36_Node000002_Node000037"><a xlink:title=" ">
<path fill="none" stroke="#63b8ff" d="M1717.88,-76.48C1843.21,-73.78 2396.8,-60.46 2566.5,-32 2570.64,-31.31 2574.91,-30.4 2579.15,-29.37"/>
<polygon fill="#63b8ff" stroke="#63b8ff" points="2579.93,-32.79 2588.7,-26.84 2578.14,-26.02 2579.93,-32.79"/>
</a>
</g>
</g>
<!-- Node38 -->
<g id="Node000038" class="node">
<title>Node38</title>
<g id="a_Node000038"><a xlink:title=" ">
<polygon fill="#e0e0e0" stroke="#999999" points="2764,-26 2679,-26 2679,-6 2764,-6 2764,-26"/>
<text text-anchor="middle" x="2721.5" y="-12.5" font-family="Helvetica,sans-Serif" font-size="10.00">ImGuiNotify.hpp</text>
</a>
</g>
</g>
<!-- Node2&#45;&gt;Node38 -->
<g id="edge37_Node000002_Node000038" class="edge">
<title>Node2&#45;&gt;Node38</title>
<g id="a_edge37_Node000002_Node000038"><a xlink:title=" ">
<path fill="none" stroke="#63b8ff" d="M1718.15,-76.63C1852.75,-74.58 2478.51,-63.49 2669.5,-32 2673.64,-31.32 2677.91,-30.42 2682.15,-29.4"/>
<polygon fill="#63b8ff" stroke="#63b8ff" points="2682.94,-32.81 2691.7,-26.86 2681.14,-26.04 2682.94,-32.81"/>
</a>
</g>
</g>
<!-- Node39 -->
<g id="Node000039" class="node">
<title>Node39</title>
<g id="a_Node000039"><a xlink:title=" ">
<polygon fill="#e0e0e0" stroke="#999999" points="2917.12,-26 2781.88,-26 2781.88,-6 2917.12,-6 2917.12,-26"/>
<text text-anchor="middle" x="2849.5" y="-12.5" font-family="Helvetica,sans-Serif" font-size="10.00">addons/imguidatechooser.h</text>
</a>
</g>
</g>
<!-- Node2&#45;&gt;Node39 -->
<g id="edge38_Node000002_Node000039" class="edge">
<title>Node2&#45;&gt;Node39</title>
<g id="a_edge38_Node000002_Node000039"><a xlink:title=" ">
<path fill="none" stroke="#63b8ff" d="M1717.97,-76.47C1860.4,-73.43 2559.46,-57.43 2773.5,-32 2780.95,-31.12 2788.76,-29.9 2796.42,-28.55"/>
<polygon fill="#63b8ff" stroke="#63b8ff" points="2796.8,-32.04 2805.99,-26.77 2795.51,-25.16 2796.8,-32.04"/>
</a>
</g>
</g>
<!-- Node40 -->
<g id="Node000040" class="node">
<title>Node40</title>
<g id="a_Node000040"><a xlink:title=" ">
<polygon fill="#e0e0e0" stroke="#999999" points="3019.62,-26 2935.38,-26 2935.38,-6 3019.62,-6 3019.62,-26"/>
<text text-anchor="middle" x="2977.5" y="-12.5" font-family="Helvetica,sans-Serif" font-size="10.00">spdlog/spdlog.h</text>
</a>
</g>
</g>
<!-- Node2&#45;&gt;Node40 -->
<g id="edge39_Node000002_Node000040" class="edge">
<title>Node2&#45;&gt;Node40</title>
<g id="a_edge39_Node000002_Node000040"><a xlink:title=" ">
<path fill="none" stroke="#63b8ff" d="M1718.01,-76.94C1872.26,-76.41 2681.84,-71.8 2926.5,-32 2930.61,-31.33 2934.86,-30.43 2939.07,-29.4"/>
<polygon fill="#63b8ff" stroke="#63b8ff" points="2939.8,-32.83 2948.54,-26.85 2937.97,-26.07 2939.8,-32.83"/>
</a>
</g>
</g>
<!-- Node41 -->
<g id="Node000041" class="node">
<title>Node41</title>
<g id="a_Node000041"><a xlink:title=" ">
<polygon fill="#e0e0e0" stroke="#999999" points="3135,-32 3038,-32 3038,0 3135,0 3135,-32"/>
<text text-anchor="start" x="3046" y="-18.5" font-family="Helvetica,sans-Serif" font-size="10.00">spdlog/sinks/basic</text>
<text text-anchor="middle" x="3086.5" y="-6.5" font-family="Helvetica,sans-Serif" font-size="10.00">_file_sink.h</text>
</a>
</g>
</g>
<!-- Node2&#45;&gt;Node41 -->
<g id="edge40_Node000002_Node000041" class="edge">
<title>Node2&#45;&gt;Node41</title>
<g id="a_edge40_Node000002_Node000041"><a xlink:title=" ">
<path fill="none" stroke="#63b8ff" d="M1718.24,-76.9C1878.21,-76.19 2738.79,-70.63 3026.39,-32.02"/>
<polygon fill="#63b8ff" stroke="#63b8ff" points="3026.69,-35.51 3036.11,-30.66 3025.72,-28.57 3026.69,-35.51"/>
</a>
</g>
</g>
<!-- Node42 -->
<g id="Node000042" class="node">
<title>Node42</title>
<g id="a_Node000042"><a xlink:title=" ">
<polygon fill="#e0e0e0" stroke="#999999" points="3212.25,-26 3152.75,-26 3152.75,-6 3212.25,-6 3212.25,-26"/>
<text text-anchor="middle" x="3182.5" y="-12.5" font-family="Helvetica,sans-Serif" font-size="10.00">fmt/core.h</text>
</a>
</g>
</g>
<!-- Node2&#45;&gt;Node42 -->
<g id="edge41_Node000002_Node000042" class="edge">
<title>Node2&#45;&gt;Node42</title>
<g id="a_edge41_Node000002_Node000042"><a xlink:title=" ">
<path fill="none" stroke="#63b8ff" d="M1718.15,-76.74C1900.66,-74.79 2999.62,-61.89 3144.5,-32 3146.83,-31.52 3149.21,-30.91 3151.58,-30.2"/>
<polygon fill="#63b8ff" stroke="#63b8ff" points="3152.67,-33.53 3160.96,-26.93 3150.36,-26.92 3152.67,-33.53"/>
</a>
</g>
</g>
<!-- Node48&#45;&gt;Node2 -->
<g id="edge44_Node000048_Node000002" class="edge">
<title>Node48&#45;&gt;Node2</title>
<g id="a_edge44_Node000048_Node000002"><a xlink:title=" ">
<path fill="none" stroke="#63b8ff" d="M2559.26,-130.83C2414.15,-122.15 1875.74,-89.96 1729.41,-81.21"/>
<polygon fill="#63b8ff" stroke="#63b8ff" points="1729.72,-77.72 1719.53,-80.62 1729.3,-84.71 1729.72,-77.72"/>
</a>
</g>
</g>
<!-- Node69&#45;&gt;Node3 -->
<g id="edge49_Node000069_Node000003" class="edge">
<title>Node69&#45;&gt;Node3</title>
<g id="a_edge49_Node000069_Node000003"><a xlink:title=" ">
<path fill="none" stroke="#63b8ff" d="M3439.41,-67.62C3459.03,-57.89 3489.97,-42.55 3512.65,-31.31"/>
<polygon fill="#63b8ff" stroke="#63b8ff" points="3513.97,-34.56 3521.37,-26.98 3510.86,-28.29 3513.97,-34.56"/>
</a>
</g>
</g>
<!-- Node69&#45;&gt;Node25 -->
<g id="edge50_Node000069_Node000025" class="edge">
<title>Node69&#45;&gt;Node25</title>
<g id="a_edge50_Node000069_Node000025"><a xlink:title=" ">
<path fill="none" stroke="#63b8ff" d="M3456.03,-67.53C3487.22,-58.98 3533.7,-45.68 3573.5,-32 3575.05,-31.47 3576.63,-30.91 3578.22,-30.33"/>
<polygon fill="#63b8ff" stroke="#63b8ff" points="3579.18,-33.71 3587.3,-26.91 3576.71,-27.16 3579.18,-33.71"/>
</a>
</g>
</g>
<!-- Node71&#45;&gt;Node54 -->
<g id="edge52_Node000071_Node000054" class="edge">
<title>Node71&#45;&gt;Node54</title>
<g id="a_edge52_Node000071_Node000054"><a xlink:title=" ">
<path fill="none" stroke="#63b8ff" d="M3463.4,-123.59C3478.05,-115.44 3499.52,-103.48 3516.55,-94"/>
<polygon fill="#63b8ff" stroke="#63b8ff" points="3518.11,-97.14 3525.15,-89.22 3514.71,-91.02 3518.11,-97.14"/>
</a>
</g>
</g>
<!-- Node71&#45;&gt;Node69 -->
<g id="edge53_Node000071_Node000069" class="edge">
<title>Node71&#45;&gt;Node69</title>
<g id="a_edge53_Node000071_Node000069"><a xlink:title=" ">
<path fill="none" stroke="#63b8ff" d="M3441.97,-123.59C3438.65,-116.7 3434.03,-107.1 3429.92,-98.57"/>
<polygon fill="#63b8ff" stroke="#63b8ff" points="3433.13,-97.15 3425.63,-89.66 3426.82,-100.19 3433.13,-97.15"/>
</a>
</g>
</g>
</g>
</svg>
