<?xml version="1.0" encoding="UTF-8" standalone="no"?>
<!DOCTYPE svg PUBLIC "-//W3C//DTD SVG 1.1//EN"
 "http://www.w3.org/Graphics/SVG/1.1/DTD/svg11.dtd">
<!-- Generated by graphviz version 10.0.1 (20240210.2158)
 -->
<!-- Title: GEU::SettingsWindow::renderWindow Pages: 1 -->
<svg width="816pt" height="611pt"
 viewBox="0.00 0.00 815.50 611.00" xmlns="http://www.w3.org/2000/svg" xmlns:xlink="http://www.w3.org/1999/xlink">
<g id="graph0" class="graph" transform="scale(1 1) rotate(0) translate(4 607)">
<title>GEU::SettingsWindow::renderWindow</title>
<!-- Node1 -->
<g id="Node000001" class="node">
<title>Node1</title>
<g id="a_Node000001"><a xlink:title="Renders the window and contents.">
<polygon fill="#999999" stroke="#666666" points="113.5,-328 0,-328 0,-296 113.5,-296 113.5,-328"/>
<text text-anchor="start" x="8" y="-314.5" font-family="Helvetica,sans-Serif" font-size="10.00">GEU::SettingsWindow</text>
<text text-anchor="middle" x="56.75" y="-302.5" font-family="Helvetica,sans-Serif" font-size="10.00">::renderWindow</text>
</a>
</g>
</g>
<!-- Node2 -->
<g id="Node000002" class="node">
<title>Node2</title>
<g id="a_Node000002"><a xlink:href="../../d3/d07/namespace_g_e_u_1_1_gui_utilities.html#a95d5f616a34dd70aca4886e546720966" target="_top" xlink:title=" ">
<polygon fill="white" stroke="#666666" points="273.5,-603 177.25,-603 177.25,-571 273.5,-571 273.5,-603"/>
<text text-anchor="start" x="185.25" y="-589.5" font-family="Helvetica,sans-Serif" font-size="10.00">GEU::GuiUtilities::</text>
<text text-anchor="middle" x="225.38" y="-577.5" font-family="Helvetica,sans-Serif" font-size="10.00">BeginCombo</text>
</a>
</g>
</g>
<!-- Node1&#45;&gt;Node2 -->
<g id="edge1_Node000001_Node000002" class="edge">
<title>Node1&#45;&gt;Node2</title>
<g id="a_edge1_Node000001_Node000002"><a xlink:title=" ">
<path fill="none" stroke="#63b8ff" d="M58.97,-328.32C63.14,-372.43 80.67,-495.17 149.5,-562 154.47,-566.82 160.39,-570.72 166.7,-573.86"/>
<polygon fill="#63b8ff" stroke="#63b8ff" points="164.89,-576.89 175.46,-577.61 167.64,-570.46 164.89,-576.89"/>
</a>
</g>
</g>
<!-- Node4 -->
<g id="Node000004" class="node">
<title>Node4</title>
<g id="a_Node000004"><a xlink:href="../../d3/d07/namespace_g_e_u_1_1_gui_utilities.html#a8cd6e1ec53dc192ed4c4d3867e35edc7" target="_top" xlink:title=" ">
<polygon fill="white" stroke="#666666" points="273.5,-553 177.25,-553 177.25,-521 273.5,-521 273.5,-553"/>
<text text-anchor="start" x="185.25" y="-539.5" font-family="Helvetica,sans-Serif" font-size="10.00">GEU::GuiUtilities::</text>
<text text-anchor="middle" x="225.38" y="-527.5" font-family="Helvetica,sans-Serif" font-size="10.00">Checkbox</text>
</a>
</g>
</g>
<!-- Node1&#45;&gt;Node4 -->
<g id="edge3_Node000001_Node000004" class="edge">
<title>Node1&#45;&gt;Node4</title>
<g id="a_edge3_Node000001_Node000004"><a xlink:title=" ">
<path fill="none" stroke="#63b8ff" d="M60.67,-328.34C68.27,-366.2 92.21,-460.58 149.5,-512 154.47,-516.46 160.25,-520.12 166.36,-523.14"/>
<polygon fill="#63b8ff" stroke="#63b8ff" points="164.91,-526.32 175.48,-527.03 167.66,-519.88 164.91,-526.32"/>
</a>
</g>
</g>
<!-- Node5 -->
<g id="Node000005" class="node">
<title>Node5</title>
<g id="a_Node000005"><a xlink:href="../../d3/d07/namespace_g_e_u_1_1_gui_utilities.html#a7e5f58fc1e47794679b999cd5778b7aa" target="_top" xlink:title=" ">
<polygon fill="white" stroke="#666666" points="273.5,-503 177.25,-503 177.25,-471 273.5,-471 273.5,-503"/>
<text text-anchor="start" x="185.25" y="-489.5" font-family="Helvetica,sans-Serif" font-size="10.00">GEU::GuiUtilities::</text>
<text text-anchor="middle" x="225.38" y="-477.5" font-family="Helvetica,sans-Serif" font-size="10.00">CollapsingHeader</text>
</a>
</g>
</g>
<!-- Node1&#45;&gt;Node5 -->
<g id="edge4_Node000001_Node000005" class="edge">
<title>Node1&#45;&gt;Node5</title>
<g id="a_edge4_Node000001_Node000005"><a xlink:title=" ">
<path fill="none" stroke="#63b8ff" d="M63.31,-328.12C74.66,-358.69 103.39,-425.32 149.5,-462 154.65,-466.1 160.51,-469.54 166.62,-472.43"/>
<polygon fill="#63b8ff" stroke="#63b8ff" points="165.1,-475.58 175.68,-476.2 167.79,-469.12 165.1,-475.58"/>
</a>
</g>
</g>
<!-- Node6 -->
<g id="Node000006" class="node">
<title>Node6</title>
<g id="a_Node000006"><a xlink:href="../../d3/d07/namespace_g_e_u_1_1_gui_utilities.html#a095bc8e3566d9060ef630e0f15ad27bc" target="_top" xlink:title=" ">
<polygon fill="white" stroke="#666666" points="273.5,-453 177.25,-453 177.25,-421 273.5,-421 273.5,-453"/>
<text text-anchor="start" x="185.25" y="-439.5" font-family="Helvetica,sans-Serif" font-size="10.00">GEU::GuiUtilities::</text>
<text text-anchor="middle" x="225.38" y="-427.5" font-family="Helvetica,sans-Serif" font-size="10.00">ColorPicker</text>
</a>
</g>
</g>
<!-- Node1&#45;&gt;Node6 -->
<g id="edge5_Node000001_Node000006" class="edge">
<title>Node1&#45;&gt;Node6</title>
<g id="a_edge5_Node000001_Node000006"><a xlink:title=" ">
<path fill="none" stroke="#63b8ff" d="M68.57,-328.21C84.04,-350.19 114.51,-389.31 149.5,-412 154.67,-415.36 160.34,-418.3 166.17,-420.88"/>
<polygon fill="#63b8ff" stroke="#63b8ff" points="164.78,-424.1 175.36,-424.58 167.39,-417.6 164.78,-424.1"/>
</a>
</g>
</g>
<!-- Node7 -->
<g id="Node000007" class="node">
<title>Node7</title>
<g id="a_Node000007"><a xlink:href="../../d3/d07/namespace_g_e_u_1_1_gui_utilities.html#a15f9ea36c082c71e09e7275ca63bd2e1" target="_top" xlink:title=" ">
<polygon fill="white" stroke="#666666" points="273.5,-353 177.25,-353 177.25,-321 273.5,-321 273.5,-353"/>
<text text-anchor="start" x="185.25" y="-339.5" font-family="Helvetica,sans-Serif" font-size="10.00">GEU::GuiUtilities::</text>
<text text-anchor="middle" x="225.38" y="-327.5" font-family="Helvetica,sans-Serif" font-size="10.00">ComboItem</text>
</a>
</g>
</g>
<!-- Node1&#45;&gt;Node7 -->
<g id="edge7_Node000001_Node000007" class="edge">
<title>Node1&#45;&gt;Node7</title>
<g id="a_edge7_Node000001_Node000007"><a xlink:title=" ">
<path fill="none" stroke="#63b8ff" d="M113.7,-320.39C130.53,-322.92 149.03,-325.7 166.01,-328.24"/>
<polygon fill="#63b8ff" stroke="#63b8ff" points="165.02,-331.63 175.42,-329.66 166.05,-324.71 165.02,-331.63"/>
</a>
</g>
</g>
<!-- Node9 -->
<g id="Node000009" class="node">
<title>Node9</title>
<g id="a_Node000009"><a xlink:href="../../d3/d07/namespace_g_e_u_1_1_gui_utilities.html#ae128381ddcd82162c730d91f06492621" target="_top" xlink:title=" ">
<polygon fill="white" stroke="#666666" points="273.5,-403 177.25,-403 177.25,-371 273.5,-371 273.5,-403"/>
<text text-anchor="start" x="185.25" y="-389.5" font-family="Helvetica,sans-Serif" font-size="10.00">GEU::GuiUtilities::</text>
<text text-anchor="middle" x="225.38" y="-377.5" font-family="Helvetica,sans-Serif" font-size="10.00">DragFloat</text>
</a>
</g>
</g>
<!-- Node1&#45;&gt;Node9 -->
<g id="edge9_Node000001_Node000009" class="edge">
<title>Node1&#45;&gt;Node9</title>
<g id="a_edge9_Node000001_Node000009"><a xlink:title=" ">
<path fill="none" stroke="#63b8ff" d="M84.82,-328.4C102.76,-338.85 127.05,-352.22 149.5,-362 154.78,-364.3 160.35,-366.52 165.97,-368.62"/>
<polygon fill="#63b8ff" stroke="#63b8ff" points="164.75,-371.9 175.34,-372 167.12,-365.32 164.75,-371.9"/>
</a>
</g>
</g>
<!-- Node10 -->
<g id="Node000010" class="node">
<title>Node10</title>
<g id="a_Node000010"><a xlink:href="../../d9/d05/class_g_e_u_1_1_input_manager.html#af2ea72a4bd53eb6f69a5c873e4c22017" target="_top" xlink:title=" ">
<polygon fill="white" stroke="#666666" points="279.12,-303 171.62,-303 171.62,-271 279.12,-271 279.12,-303"/>
<text text-anchor="start" x="179.62" y="-289.5" font-family="Helvetica,sans-Serif" font-size="10.00">GEU::InputManager::</text>
<text text-anchor="middle" x="225.38" y="-277.5" font-family="Helvetica,sans-Serif" font-size="10.00">getApplicationState</text>
</a>
</g>
</g>
<!-- Node1&#45;&gt;Node10 -->
<g id="edge11_Node000001_Node000010" class="edge">
<title>Node1&#45;&gt;Node10</title>
<g id="a_edge11_Node000001_Node000010"><a xlink:title=" ">
<path fill="none" stroke="#63b8ff" d="M113.7,-303.61C128.68,-301.36 145,-298.91 160.39,-296.6"/>
<polygon fill="#63b8ff" stroke="#63b8ff" points="160.53,-300.12 169.9,-295.17 159.49,-293.2 160.53,-300.12"/>
</a>
</g>
</g>
<!-- Node11 -->
<g id="Node000011" class="node">
<title>Node11</title>
<g id="a_Node000011"><a xlink:href="../../d2/d04/class_locale_strings.html#a3f6b84b7417231ef9004a325f932f8d3" target="_top" xlink:title=" ">
<polygon fill="white" stroke="#666666" points="288.5,-253 162.25,-253 162.25,-221 288.5,-221 288.5,-253"/>
<text text-anchor="start" x="170.25" y="-239.5" font-family="Helvetica,sans-Serif" font-size="10.00">LocaleStrings::getCurrent</text>
<text text-anchor="middle" x="225.38" y="-227.5" font-family="Helvetica,sans-Serif" font-size="10.00">LocaleIdx</text>
</a>
</g>
</g>
<!-- Node1&#45;&gt;Node11 -->
<g id="edge12_Node000001_Node000011" class="edge">
<title>Node1&#45;&gt;Node11</title>
<g id="a_edge12_Node000001_Node000011"><a xlink:title=" ">
<path fill="none" stroke="#63b8ff" d="M84.82,-295.6C102.76,-285.15 127.05,-271.78 149.5,-262 153.06,-260.45 156.76,-258.93 160.51,-257.47"/>
<polygon fill="#63b8ff" stroke="#63b8ff" points="161.61,-260.79 169.75,-254 159.16,-254.24 161.61,-260.79"/>
</a>
</g>
</g>
<!-- Node12 -->
<g id="Node000012" class="node">
<title>Node12</title>
<g id="a_Node000012"><a xlink:href="../../d1/d01/class_g_e_u_1_1_singleton.html#a47c7e7c2110f4cc59c9ff1f5594c366e" target="_top" xlink:title=" ">
<polygon fill="white" stroke="#666666" points="301.25,-203 149.5,-203 149.5,-171 301.25,-171 301.25,-203"/>
<text text-anchor="start" x="157.5" y="-189.5" font-family="Helvetica,sans-Serif" font-size="10.00">GEU::Singleton&lt; LocaleStrings</text>
<text text-anchor="middle" x="225.38" y="-177.5" font-family="Helvetica,sans-Serif" font-size="10.00"> &gt;::getInstance</text>
</a>
</g>
</g>
<!-- Node1&#45;&gt;Node12 -->
<g id="edge13_Node000001_Node000012" class="edge">
<title>Node1&#45;&gt;Node12</title>
<g id="a_edge13_Node000001_Node000012"><a xlink:title=" ">
<path fill="none" stroke="#63b8ff" d="M68.57,-295.79C84.04,-273.81 114.51,-234.69 149.5,-212 151.35,-210.8 153.27,-209.65 155.24,-208.55"/>
<polygon fill="#63b8ff" stroke="#63b8ff" points="156.67,-211.75 164.04,-204.14 153.53,-205.49 156.67,-211.75"/>
</a>
</g>
</g>
<!-- Node13 -->
<g id="Node000013" class="node">
<title>Node13</title>
<g id="a_Node000013"><a xlink:href="../../d2/d04/class_locale_strings.html#af6d33586ffd4ba771303a4e30076506e" target="_top" xlink:title=" ">
<polygon fill="white" stroke="#666666" points="289.62,-153 161.12,-153 161.12,-133 289.62,-133 289.62,-153"/>
<text text-anchor="middle" x="225.38" y="-139.5" font-family="Helvetica,sans-Serif" font-size="10.00">LocaleStrings::getLocales</text>
</a>
</g>
</g>
<!-- Node1&#45;&gt;Node13 -->
<g id="edge14_Node000001_Node000013" class="edge">
<title>Node1&#45;&gt;Node13</title>
<g id="a_edge14_Node000001_Node000013"><a xlink:title=" ">
<path fill="none" stroke="#63b8ff" d="M63.07,-295.57C74.01,-264.46 102.07,-196.96 149.5,-162 151.24,-160.72 153.06,-159.52 154.94,-158.4"/>
<polygon fill="#63b8ff" stroke="#63b8ff" points="156.05,-161.76 163.42,-154.15 152.91,-155.51 156.05,-161.76"/>
</a>
</g>
</g>
<!-- Node14 -->
<g id="Node000014" class="node">
<title>Node14</title>
<g id="a_Node000014"><a xlink:href="../../df/d03/namespace_im_gui.html#a3add9205f87d8efffa815d6e8db4864c" target="_top" xlink:title=" ">
<polygon fill="white" stroke="#666666" points="280.25,-115 170.5,-115 170.5,-95 280.25,-95 280.25,-115"/>
<text text-anchor="middle" x="225.38" y="-101.5" font-family="Helvetica,sans-Serif" font-size="10.00">ImGui::GradientEditor</text>
</a>
</g>
</g>
<!-- Node1&#45;&gt;Node14 -->
<g id="edge15_Node000001_Node000014" class="edge">
<title>Node1&#45;&gt;Node14</title>
<g id="a_edge15_Node000001_Node000014"><a xlink:title=" ">
<path fill="none" stroke="#63b8ff" d="M60.91,-295.53C68.84,-258.79 93.14,-169.82 149.5,-124 152.61,-121.47 156.02,-119.27 159.61,-117.36"/>
<polygon fill="#63b8ff" stroke="#63b8ff" points="161.01,-120.57 168.74,-113.32 158.17,-114.17 161.01,-120.57"/>
</a>
</g>
</g>
<!-- Node22 -->
<g id="Node000022" class="node">
<title>Node22</title>
<g id="a_Node000022"><a xlink:href="../../d2/d04/class_locale_strings.html#a4fb8cad81efcd4de1a351ea2c3cd5727" target="_top" xlink:title="Changes active locale.">
<polygon fill="white" stroke="#666666" points="287,-77 163.75,-77 163.75,-57 287,-57 287,-77"/>
<text text-anchor="middle" x="225.38" y="-63.5" font-family="Helvetica,sans-Serif" font-size="10.00">LocaleStrings::setLocale</text>
</a>
</g>
</g>
<!-- Node1&#45;&gt;Node22 -->
<g id="edge26_Node000001_Node000022" class="edge">
<title>Node1&#45;&gt;Node22</title>
<g id="a_edge26_Node000001_Node000022"><a xlink:title=" ">
<path fill="none" stroke="#63b8ff" d="M59.39,-295.76C64.49,-254.19 83.9,-143.17 149.5,-86 150.8,-84.87 152.15,-83.81 153.55,-82.81"/>
<polygon fill="#63b8ff" stroke="#63b8ff" points="155.24,-85.87 162.11,-77.81 151.71,-79.83 155.24,-85.87"/>
</a>
</g>
</g>
<!-- Node3 -->
<g id="Node000003" class="node">
<title>Node3</title>
<g id="a_Node000003"><a xlink:href="../../d3/d07/namespace_g_e_u_1_1_gui_utilities.html#a76a49056660c5a9246a94564afbb676a" target="_top" xlink:title=" ">
<polygon fill="white" stroke="#666666" points="461.25,-447 346.25,-447 346.25,-427 461.25,-427 461.25,-447"/>
<text text-anchor="middle" x="403.75" y="-433.5" font-family="Helvetica,sans-Serif" font-size="10.00">GEU::GuiUtilities::Text</text>
</a>
</g>
</g>
<!-- Node2&#45;&gt;Node3 -->
<g id="edge2_Node000002_Node000003" class="edge">
<title>Node2&#45;&gt;Node3</title>
<g id="a_edge2_Node000002_Node000003"><a xlink:title=" ">
<path fill="none" stroke="#63b8ff" d="M273.85,-575.67C283.4,-572.17 293.02,-567.69 301.25,-562 342.04,-533.77 375.05,-484.62 391.46,-457.11"/>
<polygon fill="#63b8ff" stroke="#63b8ff" points="394.35,-459.12 396.35,-448.71 388.3,-455.6 394.35,-459.12"/>
</a>
</g>
</g>
<!-- Node6&#45;&gt;Node3 -->
<g id="edge6_Node000006_Node000003" class="edge">
<title>Node6&#45;&gt;Node3</title>
<g id="a_edge6_Node000006_Node000003"><a xlink:title=" ">
<path fill="none" stroke="#63b8ff" d="M273.64,-437C292.32,-437 314.15,-437 334.49,-437"/>
<polygon fill="#63b8ff" stroke="#63b8ff" points="334.42,-440.5 344.42,-437 334.42,-433.5 334.42,-440.5"/>
</a>
</g>
</g>
<!-- Node8 -->
<g id="Node000008" class="node">
<title>Node8</title>
<g id="a_Node000008"><a xlink:href="../../d3/d07/namespace_g_e_u_1_1_gui_utilities.html#ab5bd8ee6ec7674dc502b5330d41beadf" target="_top" xlink:title=" ">
<polygon fill="white" stroke="#666666" points="451.88,-353 355.62,-353 355.62,-321 451.88,-321 451.88,-353"/>
<text text-anchor="start" x="363.62" y="-339.5" font-family="Helvetica,sans-Serif" font-size="10.00">GEU::GuiUtilities::</text>
<text text-anchor="middle" x="403.75" y="-327.5" font-family="Helvetica,sans-Serif" font-size="10.00">Selectable</text>
</a>
</g>
</g>
<!-- Node7&#45;&gt;Node8 -->
<g id="edge8_Node000007_Node000008" class="edge">
<title>Node7&#45;&gt;Node8</title>
<g id="a_edge8_Node000007_Node000008"><a xlink:title=" ">
<path fill="none" stroke="#63b8ff" d="M273.64,-337C295.29,-337 321.16,-337 344.05,-337"/>
<polygon fill="#63b8ff" stroke="#63b8ff" points="343.84,-340.5 353.84,-337 343.84,-333.5 343.84,-340.5"/>
</a>
</g>
</g>
<!-- Node9&#45;&gt;Node3 -->
<g id="edge10_Node000009_Node000003" class="edge">
<title>Node9&#45;&gt;Node3</title>
<g id="a_edge10_Node000009_Node000003"><a xlink:title=" ">
<path fill="none" stroke="#63b8ff" d="M273.64,-400.4C298.88,-407.56 329.88,-416.34 355.17,-423.51"/>
<polygon fill="#63b8ff" stroke="#63b8ff" points="353.95,-426.8 364.53,-426.16 355.86,-420.07 353.95,-426.8"/>
</a>
</g>
</g>
<!-- Node15 -->
<g id="Node000015" class="node">
<title>Node15</title>
<g id="a_Node000015"><a xlink:href="../../df/d07/class_im_gradient.html#a089dcb45e26c59a2b9a1f5962bea099c" target="_top" xlink:title=" ">
<polygon fill="white" stroke="#666666" points="457.12,-210 350.38,-210 350.38,-190 457.12,-190 457.12,-210"/>
<text text-anchor="middle" x="403.75" y="-196.5" font-family="Helvetica,sans-Serif" font-size="10.00">ImGradient::addMark</text>
</a>
</g>
</g>
<!-- Node14&#45;&gt;Node15 -->
<g id="edge16_Node000014_Node000015" class="edge">
<title>Node14&#45;&gt;Node15</title>
<g id="a_edge16_Node000014_Node000015"><a xlink:title=" ">
<path fill="none" stroke="#63b8ff" d="M280.38,-113.69C287.78,-116.28 294.97,-119.64 301.25,-124 324.34,-140.03 315.01,-158.81 337.25,-176 341.75,-179.48 346.79,-182.48 352.04,-185.08"/>
<polygon fill="#63b8ff" stroke="#63b8ff" points="350.33,-188.15 360.9,-188.97 353.15,-181.74 350.33,-188.15"/>
</a>
</g>
</g>
<!-- Node16 -->
<g id="Node000016" class="node">
<title>Node16</title>
<g id="a_Node000016"><a xlink:href="../../df/d07/class_im_gradient.html#a32f20a54fa5def0464929570ec03c7d4" target="_top" xlink:title=" ">
<polygon fill="white" stroke="#666666" points="632.5,-191 506.25,-191 506.25,-171 632.5,-171 632.5,-191"/>
<text text-anchor="middle" x="569.38" y="-177.5" font-family="Helvetica,sans-Serif" font-size="10.00">ImGradient::refreshCache</text>
</a>
</g>
</g>
<!-- Node14&#45;&gt;Node16 -->
<g id="edge25_Node000014_Node000016" class="edge">
<title>Node14&#45;&gt;Node16</title>
<g id="a_edge25_Node000014_Node000016"><a xlink:title=" ">
<path fill="none" stroke="#63b8ff" d="M274.44,-115.4C283.46,-117.85 292.74,-120.73 301.25,-124 318.14,-130.49 320.1,-137.24 337.25,-143 388.42,-160.2 448.67,-169.78 494.82,-175.02"/>
<polygon fill="#63b8ff" stroke="#63b8ff" points="494.42,-178.49 504.73,-176.09 495.17,-171.54 494.42,-178.49"/>
</a>
</g>
</g>
<!-- Node18 -->
<g id="Node000018" class="node">
<title>Node18</title>
<g id="a_Node000018"><a xlink:href="../../df/d03/namespace_im_gui.html#abfe978df1447fa5bdfa023e53f9aff26" target="_top" xlink:title=" ">
<polygon fill="white" stroke="#666666" points="464.25,-134 343.25,-134 343.25,-114 464.25,-114 464.25,-134"/>
<text text-anchor="middle" x="403.75" y="-120.5" font-family="Helvetica,sans-Serif" font-size="10.00">ImGui::DrawGradientBar</text>
</a>
</g>
</g>
<!-- Node14&#45;&gt;Node18 -->
<g id="edge19_Node000014_Node000018" class="edge">
<title>Node14&#45;&gt;Node18</title>
<g id="a_edge19_Node000014_Node000018"><a xlink:title=" ">
<path fill="none" stroke="#63b8ff" d="M280.73,-110.86C296.92,-112.6 314.91,-114.54 331.98,-116.38"/>
<polygon fill="#63b8ff" stroke="#63b8ff" points="331.22,-119.82 341.54,-117.41 331.97,-112.86 331.22,-119.82"/>
</a>
</g>
</g>
<!-- Node19 -->
<g id="Node000019" class="node">
<title>Node19</title>
<g id="a_Node000019"><a xlink:href="../../df/d07/class_im_gradient.html#a91ab111bfaafb3bf899ec98e34b4b0e7" target="_top" xlink:title=" ">
<polygon fill="white" stroke="#666666" points="624.25,-96 514.5,-96 514.5,-76 624.25,-76 624.25,-96"/>
<text text-anchor="middle" x="569.38" y="-82.5" font-family="Helvetica,sans-Serif" font-size="10.00">ImGradient::getMarks</text>
</a>
</g>
</g>
<!-- Node14&#45;&gt;Node19 -->
<g id="edge24_Node000014_Node000019" class="edge">
<title>Node14&#45;&gt;Node19</title>
<g id="a_edge24_Node000014_Node000019"><a xlink:title=" ">
<path fill="none" stroke="#63b8ff" d="M280.57,-101.99C340.89,-98.64 438.36,-93.22 502.9,-89.64"/>
<polygon fill="#63b8ff" stroke="#63b8ff" points="502.85,-93.15 512.64,-89.1 502.47,-86.16 502.85,-93.15"/>
</a>
</g>
</g>
<!-- Node20 -->
<g id="Node000020" class="node">
<title>Node20</title>
<g id="a_Node000020"><a xlink:href="../../df/d03/namespace_im_gui.html#aa0d27807ad0fd2ee092de14e2ccba2f7" target="_top" xlink:title=" ">
<polygon fill="white" stroke="#666666" points="470.25,-58 337.25,-58 337.25,-38 470.25,-38 470.25,-58"/>
<text text-anchor="middle" x="403.75" y="-44.5" font-family="Helvetica,sans-Serif" font-size="10.00">ImGui::DrawGradientMarks</text>
</a>
</g>
</g>
<!-- Node14&#45;&gt;Node20 -->
<g id="edge21_Node000014_Node000020" class="edge">
<title>Node14&#45;&gt;Node20</title>
<g id="a_edge21_Node000014_Node000020"><a xlink:title=" ">
<path fill="none" stroke="#63b8ff" d="M271.37,-94.53C281.28,-91.97 291.67,-89.07 301.25,-86 317.6,-80.77 321.19,-78.06 337.25,-72 345.69,-68.81 354.77,-65.45 363.4,-62.27"/>
<polygon fill="#63b8ff" stroke="#63b8ff" points="364.4,-65.64 372.59,-58.91 361.99,-59.06 364.4,-65.64"/>
</a>
</g>
</g>
<!-- Node21 -->
<g id="Node000021" class="node">
<title>Node21</title>
<g id="a_Node000021"><a xlink:href="../../df/d07/class_im_gradient.html#a15733f02f002e8f93ad6d872a75a821c" target="_top" xlink:title=" ">
<polygon fill="white" stroke="#666666" points="461.25,-20 346.25,-20 346.25,0 461.25,0 461.25,-20"/>
<text text-anchor="middle" x="403.75" y="-6.5" font-family="Helvetica,sans-Serif" font-size="10.00">ImGradient::getColorAt</text>
</a>
</g>
</g>
<!-- Node14&#45;&gt;Node21 -->
<g id="edge23_Node000014_Node000021" class="edge">
<title>Node14&#45;&gt;Node21</title>
<g id="a_edge23_Node000014_Node000021"><a xlink:title=" ">
<path fill="none" stroke="#63b8ff" d="M280.55,-96.55C287.92,-93.92 295.06,-90.49 301.25,-86 325.5,-68.4 313.3,-47.01 337.25,-29 338.81,-27.83 340.44,-26.72 342.13,-25.69"/>
<polygon fill="#63b8ff" stroke="#63b8ff" points="343.64,-28.85 350.94,-21.17 340.45,-22.62 343.64,-28.85"/>
</a>
</g>
</g>
<!-- Node15&#45;&gt;Node16 -->
<g id="edge17_Node000015_Node000016" class="edge">
<title>Node15&#45;&gt;Node16</title>
<g id="a_edge17_Node000015_Node000016"><a xlink:title=" ">
<path fill="none" stroke="#63b8ff" d="M457.42,-193.88C469.22,-192.51 481.96,-191.03 494.44,-189.58"/>
<polygon fill="#63b8ff" stroke="#63b8ff" points="494.77,-193.07 504.3,-188.44 493.97,-186.12 494.77,-193.07"/>
</a>
</g>
</g>
<!-- Node17 -->
<g id="Node000017" class="node">
<title>Node17</title>
<g id="a_Node000017"><a xlink:href="../../df/d07/class_im_gradient.html#af413353d9a687b91f7347dad83554609" target="_top" xlink:title=" ">
<polygon fill="white" stroke="#666666" points="807.5,-191 668.5,-191 668.5,-171 807.5,-171 807.5,-191"/>
<text text-anchor="middle" x="738" y="-177.5" font-family="Helvetica,sans-Serif" font-size="10.00">ImGradient::computeColorAt</text>
</a>
</g>
</g>
<!-- Node16&#45;&gt;Node17 -->
<g id="edge18_Node000016_Node000017" class="edge">
<title>Node16&#45;&gt;Node17</title>
<g id="a_edge18_Node000016_Node000017"><a xlink:title=" ">
<path fill="none" stroke="#63b8ff" d="M632.89,-181C640.74,-181 648.85,-181 656.92,-181"/>
<polygon fill="#63b8ff" stroke="#63b8ff" points="656.75,-184.5 666.75,-181 656.75,-177.5 656.75,-184.5"/>
</a>
</g>
</g>
<!-- Node18&#45;&gt;Node19 -->
<g id="edge20_Node000018_Node000019" class="edge">
<title>Node18&#45;&gt;Node19</title>
<g id="a_edge20_Node000018_Node000019"><a xlink:title=" ">
<path fill="none" stroke="#63b8ff" d="M449.89,-113.52C469.21,-109.03 491.96,-103.75 512.34,-99.01"/>
<polygon fill="#63b8ff" stroke="#63b8ff" points="512.95,-102.46 521.9,-96.79 511.37,-95.65 512.95,-102.46"/>
</a>
</g>
</g>
<!-- Node20&#45;&gt;Node19 -->
<g id="edge22_Node000020_Node000019" class="edge">
<title>Node20&#45;&gt;Node19</title>
<g id="a_edge22_Node000020_Node000019"><a xlink:title=" ">
<path fill="none" stroke="#63b8ff" d="M449.89,-58.48C469.21,-62.97 491.96,-68.25 512.34,-72.99"/>
<polygon fill="#63b8ff" stroke="#63b8ff" points="511.37,-76.35 521.9,-75.21 512.95,-69.54 511.37,-76.35"/>
</a>
</g>
</g>
</g>
</svg>
