<?xml version="1.0" encoding="UTF-8" standalone="no"?>
<!DOCTYPE svg PUBLIC "-//W3C//DTD SVG 1.1//EN"
 "http://www.w3.org/Graphics/SVG/1.1/DTD/svg11.dtd">
<!-- Generated by graphviz version 10.0.1 (20240210.2158)
 -->
<!-- Title: C:/GitHub/GEU/GEU/Source/main.cpp Pages: 1 -->
<svg width="4325pt" height="176pt"
 viewBox="0.00 0.00 4324.62 176.00" xmlns="http://www.w3.org/2000/svg" xmlns:xlink="http://www.w3.org/1999/xlink">
<g id="graph0" class="graph" transform="scale(1 1) rotate(0) translate(4 172)">
<title>C:/GitHub/GEU/GEU/Source/main.cpp</title>
<!-- Node1 -->
<g id="Node000001" class="node">
<title>Node1</title>
<g id="a_Node000001"><a xlink:title=" ">
<polygon fill="#999999" stroke="#666666" points="3971.88,-168 3831.38,-168 3831.38,-136 3971.88,-136 3971.88,-168"/>
<text text-anchor="start" x="3839.38" y="-154.5" font-family="Helvetica,sans-Serif" font-size="10.00">C:/GitHub/GEU/GEU/Source</text>
<text text-anchor="middle" x="3901.62" y="-142.5" font-family="Helvetica,sans-Serif" font-size="10.00">/main.cpp</text>
</a>
</g>
</g>
<!-- Node2 -->
<g id="Node000002" class="node">
<title>Node2</title>
<g id="a_Node000002"><a xlink:href="../../db/d06/stdafx_8h.html" target="_top" xlink:title=" ">
<polygon fill="#fff0f0" stroke="red" points="1545.88,-94 1495.38,-94 1495.38,-74 1545.88,-74 1545.88,-94"/>
<text text-anchor="middle" x="1520.62" y="-80.5" font-family="Helvetica,sans-Serif" font-size="10.00">stdafx.h</text>
</a>
</g>
</g>
<!-- Node1&#45;&gt;Node2 -->
<g id="edge1_Node000001_Node000002" class="edge">
<title>Node1&#45;&gt;Node2</title>
<g id="a_edge1_Node000001_Node000002"><a xlink:title=" ">
<path fill="none" stroke="#63b8ff" d="M3831.01,-149.04C3468.64,-139 1824.5,-93.42 1557.36,-86.02"/>
<polygon fill="#63b8ff" stroke="#63b8ff" points="1557.63,-82.52 1547.54,-85.75 1557.44,-89.52 1557.63,-82.52"/>
</a>
</g>
</g>
<!-- Node46 -->
<g id="Node000046" class="node">
<title>Node46</title>
<g id="a_Node000046"><a xlink:title=" ">
<polygon fill="#e0e0e0" stroke="#999999" points="3804.25,-94 3699,-94 3699,-74 3804.25,-74 3804.25,-94"/>
<text text-anchor="middle" x="3751.62" y="-80.5" font-family="Helvetica,sans-Serif" font-size="10.00">exiv2/xmp_exiv2.hpp</text>
</a>
</g>
</g>
<!-- Node1&#45;&gt;Node46 -->
<g id="edge44_Node000001_Node000046" class="edge">
<title>Node1&#45;&gt;Node46</title>
<g id="a_edge44_Node000001_Node000046"><a xlink:title=" ">
<path fill="none" stroke="#63b8ff" d="M3866.46,-135.53C3841.38,-124.49 3807.92,-109.77 3783.6,-99.07"/>
<polygon fill="#63b8ff" stroke="#63b8ff" points="3785.07,-95.89 3774.51,-95.07 3782.25,-102.3 3785.07,-95.89"/>
</a>
</g>
</g>
<!-- Node47 -->
<g id="Node000047" class="node">
<title>Node47</title>
<g id="a_Node000047"><a xlink:href="../../d3/da0/_renderer_8h.html" target="_top" xlink:title=" ">
<polygon fill="#fff0f0" stroke="red" points="3944.88,-26 3858.38,-26 3858.38,-6 3944.88,-6 3944.88,-26"/>
<text text-anchor="middle" x="3901.62" y="-12.5" font-family="Helvetica,sans-Serif" font-size="10.00">Core/Renderer.h</text>
</a>
</g>
</g>
<!-- Node1&#45;&gt;Node47 -->
<g id="edge45_Node000001_Node000047" class="edge">
<title>Node1&#45;&gt;Node47</title>
<g id="a_edge45_Node000001_Node000047"><a xlink:title=" ">
<path fill="none" stroke="#63b8ff" d="M3880.09,-135.66C3869.35,-126.64 3857.44,-114.23 3851.62,-100 3846.25,-86.83 3846.25,-81.17 3851.62,-68 3857.21,-54.33 3868.42,-42.34 3878.81,-33.42"/>
<polygon fill="#63b8ff" stroke="#63b8ff" points="3880.77,-36.34 3886.39,-27.36 3876.4,-30.88 3880.77,-36.34"/>
</a>
</g>
</g>
<!-- Node87 -->
<g id="Node000087" class="node">
<title>Node87</title>
<g id="a_Node000087"><a xlink:href="../../de/d42/_window_8h.html" target="_top" xlink:title=" ">
<polygon fill="white" stroke="#666666" points="3942.62,-94 3860.62,-94 3860.62,-74 3942.62,-74 3942.62,-94"/>
<text text-anchor="middle" x="3901.62" y="-80.5" font-family="Helvetica,sans-Serif" font-size="10.00">Core/Window.h</text>
</a>
</g>
</g>
<!-- Node1&#45;&gt;Node87 -->
<g id="edge46_Node000001_Node000087" class="edge">
<title>Node1&#45;&gt;Node87</title>
<g id="a_edge46_Node000001_Node000087"><a xlink:title=" ">
<path fill="none" stroke="#63b8ff" d="M3901.62,-135.69C3901.62,-126.8 3901.62,-115.46 3901.62,-105.77"/>
<polygon fill="#63b8ff" stroke="#63b8ff" points="3905.13,-105.83 3901.63,-95.83 3898.13,-105.83 3905.13,-105.83"/>
</a>
</g>
</g>
<!-- Node88 -->
<g id="Node000088" class="node">
<title>Node88</title>
<g id="a_Node000088"><a xlink:href="../../d8/d5a/_auto_updater_8h.html" target="_top" xlink:title=" ">
<polygon fill="white" stroke="#666666" points="4074.38,-94 3960.88,-94 3960.88,-74 4074.38,-74 4074.38,-94"/>
<text text-anchor="middle" x="4017.62" y="-80.5" font-family="Helvetica,sans-Serif" font-size="10.00">Utilities/AutoUpdater.h</text>
</a>
</g>
</g>
<!-- Node1&#45;&gt;Node88 -->
<g id="edge48_Node000001_Node000088" class="edge">
<title>Node1&#45;&gt;Node88</title>
<g id="a_edge48_Node000001_Node000088"><a xlink:title=" ">
<path fill="none" stroke="#63b8ff" d="M3928.82,-135.53C3947.61,-124.84 3972.46,-110.7 3991.1,-100.09"/>
<polygon fill="#63b8ff" stroke="#63b8ff" points="3992.72,-103.2 3999.68,-95.21 3989.26,-97.11 3992.72,-103.2"/>
</a>
</g>
</g>
<!-- Node89 -->
<g id="Node000089" class="node">
<title>Node89</title>
<g id="a_Node000089"><a xlink:title=" ">
<polygon fill="#e0e0e0" stroke="#999999" points="4193,-100 4092.25,-100 4092.25,-68 4193,-68 4193,-100"/>
<text text-anchor="start" x="4100.25" y="-86.5" font-family="Helvetica,sans-Serif" font-size="10.00">spdlog/sinks/stdout</text>
<text text-anchor="middle" x="4142.62" y="-74.5" font-family="Helvetica,sans-Serif" font-size="10.00">_color_sinks.h</text>
</a>
</g>
</g>
<!-- Node1&#45;&gt;Node89 -->
<g id="edge49_Node000001_Node000089" class="edge">
<title>Node1&#45;&gt;Node89</title>
<g id="a_edge49_Node000001_Node000089"><a xlink:title=" ">
<path fill="none" stroke="#63b8ff" d="M3958.13,-135.53C3994.98,-125.43 4043.07,-112.26 4080.92,-101.9"/>
<polygon fill="#63b8ff" stroke="#63b8ff" points="4081.63,-105.33 4090.35,-99.32 4079.78,-98.58 4081.63,-105.33"/>
</a>
</g>
</g>
<!-- Node90 -->
<g id="Node000090" class="node">
<title>Node90</title>
<g id="a_Node000090"><a xlink:title=" ">
<polygon fill="#e0e0e0" stroke="#999999" points="4316.62,-100 4210.62,-100 4210.62,-68 4316.62,-68 4316.62,-100"/>
<text text-anchor="start" x="4218.62" y="-86.5" font-family="Helvetica,sans-Serif" font-size="10.00">spdlog/sinks/rotating</text>
<text text-anchor="middle" x="4263.62" y="-74.5" font-family="Helvetica,sans-Serif" font-size="10.00">_file_sink.h</text>
</a>
</g>
</g>
<!-- Node1&#45;&gt;Node90 -->
<g id="edge50_Node000001_Node000090" class="edge">
<title>Node1&#45;&gt;Node90</title>
<g id="a_edge50_Node000001_Node000090"><a xlink:title=" ">
<path fill="none" stroke="#63b8ff" d="M3972.2,-140.41C4030.53,-131.34 4115.78,-117.34 4199.04,-100.45"/>
<polygon fill="#63b8ff" stroke="#63b8ff" points="4199.67,-103.9 4208.76,-98.47 4198.26,-97.04 4199.67,-103.9"/>
</a>
</g>
</g>
<!-- Node3 -->
<g id="Node000003" class="node">
<title>Node3</title>
<g id="a_Node000003"><a xlink:title=" ">
<polygon fill="#e0e0e0" stroke="#999999" points="45.25,-26 0,-26 0,-6 45.25,-6 45.25,-26"/>
<text text-anchor="middle" x="22.62" y="-12.5" font-family="Helvetica,sans-Serif" font-size="10.00">cstdint</text>
</a>
</g>
</g>
<!-- Node2&#45;&gt;Node3 -->
<g id="edge2_Node000002_Node000003" class="edge">
<title>Node2&#45;&gt;Node3</title>
<g id="a_edge2_Node000002_Node000003"><a xlink:title=" ">
<path fill="none" stroke="#63b8ff" d="M1495,-82.73C1311.47,-80.7 199.92,-67.03 54.62,-32 53.02,-31.61 51.4,-31.14 49.79,-30.61"/>
<polygon fill="#63b8ff" stroke="#63b8ff" points="51.42,-27.49 40.83,-26.99 48.79,-33.98 51.42,-27.49"/>
</a>
</g>
</g>
<!-- Node4 -->
<g id="Node000004" class="node">
<title>Node4</title>
<g id="a_Node000004"><a xlink:title=" ">
<polygon fill="#e0e0e0" stroke="#999999" points="107.88,-26 63.38,-26 63.38,-6 107.88,-6 107.88,-26"/>
<text text-anchor="middle" x="85.62" y="-12.5" font-family="Helvetica,sans-Serif" font-size="10.00">cstdlib</text>
</a>
</g>
</g>
<!-- Node2&#45;&gt;Node4 -->
<g id="edge3_Node000002_Node000004" class="edge">
<title>Node2&#45;&gt;Node4</title>
<g id="a_edge3_Node000002_Node000004"><a xlink:title=" ">
<path fill="none" stroke="#63b8ff" d="M1494.95,-82.7C1315.75,-80.55 255.25,-66.44 116.62,-32 115.22,-31.65 113.81,-31.23 112.39,-30.77"/>
<polygon fill="#63b8ff" stroke="#63b8ff" points="113.86,-27.58 103.28,-27 111.18,-34.05 113.86,-27.58"/>
</a>
</g>
</g>
<!-- Node5 -->
<g id="Node000005" class="node">
<title>Node5</title>
<g id="a_Node000005"><a xlink:title=" ">
<polygon fill="#e0e0e0" stroke="#999999" points="183.62,-26 125.62,-26 125.62,-6 183.62,-6 183.62,-26"/>
<text text-anchor="middle" x="154.62" y="-12.5" font-family="Helvetica,sans-Serif" font-size="10.00">execution</text>
</a>
</g>
</g>
<!-- Node2&#45;&gt;Node5 -->
<g id="edge4_Node000002_Node000005" class="edge">
<title>Node2&#45;&gt;Node5</title>
<g id="a_edge4_Node000002_Node000005"><a xlink:title=" ">
<path fill="none" stroke="#63b8ff" d="M1494.97,-83.19C1333.35,-84.2 454.68,-87.08 192.62,-32 190.29,-31.51 187.92,-30.89 185.55,-30.18"/>
<polygon fill="#63b8ff" stroke="#63b8ff" points="186.77,-26.9 176.17,-26.9 184.45,-33.51 186.77,-26.9"/>
</a>
</g>
</g>
<!-- Node6 -->
<g id="Node000006" class="node">
<title>Node6</title>
<g id="a_Node000006"><a xlink:title=" ">
<polygon fill="#e0e0e0" stroke="#999999" points="255.38,-26 201.88,-26 201.88,-6 255.38,-6 255.38,-26"/>
<text text-anchor="middle" x="228.62" y="-12.5" font-family="Helvetica,sans-Serif" font-size="10.00">iostream</text>
</a>
</g>
</g>
<!-- Node2&#45;&gt;Node6 -->
<g id="edge5_Node000002_Node000006" class="edge">
<title>Node2&#45;&gt;Node6</title>
<g id="a_edge5_Node000002_Node000006"><a xlink:title=" ">
<path fill="none" stroke="#63b8ff" d="M1495.09,-83.19C1338.93,-84.15 511.27,-86.56 264.62,-32 262.58,-31.55 260.51,-30.99 258.44,-30.35"/>
<polygon fill="#63b8ff" stroke="#63b8ff" points="259.66,-27.07 249.07,-26.92 257.25,-33.64 259.66,-27.07"/>
</a>
</g>
</g>
<!-- Node7 -->
<g id="Node000007" class="node">
<title>Node7</title>
<g id="a_Node000007"><a xlink:title=" ">
<polygon fill="#e0e0e0" stroke="#999999" points="333.75,-26 273.5,-26 273.5,-6 333.75,-6 333.75,-26"/>
<text text-anchor="middle" x="303.62" y="-12.5" font-family="Helvetica,sans-Serif" font-size="10.00">filesystem</text>
</a>
</g>
</g>
<!-- Node2&#45;&gt;Node7 -->
<g id="edge6_Node000002_Node000007" class="edge">
<title>Node2&#45;&gt;Node7</title>
<g id="a_edge6_Node000002_Node000007"><a xlink:title=" ">
<path fill="none" stroke="#63b8ff" d="M1495.25,-83.01C1345.32,-82.93 573.85,-80.13 342.62,-32 340.14,-31.48 337.61,-30.83 335.09,-30.08"/>
<polygon fill="#63b8ff" stroke="#63b8ff" points="336.32,-26.8 325.73,-26.87 334.05,-33.43 336.32,-26.8"/>
</a>
</g>
</g>
<!-- Node8 -->
<g id="Node000008" class="node">
<title>Node8</title>
<g id="a_Node000008"><a xlink:title=" ">
<polygon fill="#e0e0e0" stroke="#999999" points="395.12,-26 352.12,-26 352.12,-6 395.12,-6 395.12,-26"/>
<text text-anchor="middle" x="373.62" y="-12.5" font-family="Helvetica,sans-Serif" font-size="10.00">format</text>
</a>
</g>
</g>
<!-- Node2&#45;&gt;Node8 -->
<g id="edge7_Node000002_Node000008" class="edge">
<title>Node2&#45;&gt;Node8</title>
<g id="a_edge7_Node000002_Node000008"><a xlink:title=" ">
<path fill="none" stroke="#63b8ff" d="M1495.12,-83.22C1349.37,-84.29 620.84,-86.79 404.62,-32 403.22,-31.64 401.81,-31.22 400.4,-30.75"/>
<polygon fill="#63b8ff" stroke="#63b8ff" points="401.86,-27.57 391.28,-26.97 399.18,-34.03 401.86,-27.57"/>
</a>
</g>
</g>
<!-- Node9 -->
<g id="Node000009" class="node">
<title>Node9</title>
<g id="a_Node000009"><a xlink:title=" ">
<polygon fill="#e0e0e0" stroke="#999999" points="461.75,-26 413.5,-26 413.5,-6 461.75,-6 461.75,-26"/>
<text text-anchor="middle" x="437.62" y="-12.5" font-family="Helvetica,sans-Serif" font-size="10.00">fstream</text>
</a>
</g>
</g>
<!-- Node2&#45;&gt;Node9 -->
<g id="edge8_Node000002_Node000009" class="edge">
<title>Node2&#45;&gt;Node9</title>
<g id="a_edge8_Node000002_Node000009"><a xlink:title=" ">
<path fill="none" stroke="#63b8ff" d="M1495.29,-83.06C1355.15,-83.19 673.95,-81.24 470.62,-32 468.98,-31.6 467.32,-31.12 465.66,-30.58"/>
<polygon fill="#63b8ff" stroke="#63b8ff" points="466.99,-27.34 456.4,-26.93 464.42,-33.86 466.99,-27.34"/>
</a>
</g>
</g>
<!-- Node10 -->
<g id="Node000010" class="node">
<title>Node10</title>
<g id="a_Node000010"><a xlink:title=" ">
<polygon fill="#e0e0e0" stroke="#999999" points="537.25,-26 480,-26 480,-6 537.25,-6 537.25,-26"/>
<text text-anchor="middle" x="508.62" y="-12.5" font-family="Helvetica,sans-Serif" font-size="10.00">functional</text>
</a>
</g>
</g>
<!-- Node2&#45;&gt;Node10 -->
<g id="edge9_Node000002_Node000010" class="edge">
<title>Node2&#45;&gt;Node10</title>
<g id="a_edge9_Node000002_Node000010"><a xlink:title=" ">
<path fill="none" stroke="#63b8ff" d="M1494.95,-82.81C1360.27,-81.63 734.25,-73.93 545.62,-32 543.44,-31.51 541.22,-30.91 539.01,-30.23"/>
<polygon fill="#63b8ff" stroke="#63b8ff" points="540.22,-26.95 529.63,-26.86 537.85,-33.54 540.22,-26.95"/>
</a>
</g>
</g>
<!-- Node11 -->
<g id="Node000011" class="node">
<title>Node11</title>
<g id="a_Node000011"><a xlink:title=" ">
<polygon fill="#e0e0e0" stroke="#999999" points="606.25,-26 555,-26 555,-6 606.25,-6 606.25,-26"/>
<text text-anchor="middle" x="580.62" y="-12.5" font-family="Helvetica,sans-Serif" font-size="10.00">memory</text>
</a>
</g>
</g>
<!-- Node2&#45;&gt;Node11 -->
<g id="edge10_Node000002_Node000011" class="edge">
<title>Node2&#45;&gt;Node11</title>
<g id="a_edge10_Node000002_Node000011"><a xlink:title=" ">
<path fill="none" stroke="#63b8ff" d="M1495.07,-82.79C1366.38,-81.57 788.48,-73.78 614.62,-32 612.98,-31.6 611.31,-31.13 609.65,-30.6"/>
<polygon fill="#63b8ff" stroke="#63b8ff" points="610.91,-27.34 600.32,-27.04 608.42,-33.88 610.91,-27.34"/>
</a>
</g>
</g>
<!-- Node12 -->
<g id="Node000012" class="node">
<title>Node12</title>
<g id="a_Node000012"><a xlink:title=" ">
<polygon fill="#e0e0e0" stroke="#999999" points="675.25,-26 624,-26 624,-6 675.25,-6 675.25,-26"/>
<text text-anchor="middle" x="649.62" y="-12.5" font-family="Helvetica,sans-Serif" font-size="10.00">sstream</text>
</a>
</g>
</g>
<!-- Node2&#45;&gt;Node12 -->
<g id="edge11_Node000002_Node000012" class="edge">
<title>Node2&#45;&gt;Node12</title>
<g id="a_edge11_Node000002_Node000012"><a xlink:title=" ">
<path fill="none" stroke="#63b8ff" d="M1495.05,-82.62C1372.47,-80.61 844.32,-69.88 684.62,-32 682.85,-31.58 681.06,-31.08 679.26,-30.51"/>
<polygon fill="#63b8ff" stroke="#63b8ff" points="680.49,-27.23 669.89,-27.01 678.03,-33.79 680.49,-27.23"/>
</a>
</g>
</g>
<!-- Node13 -->
<g id="Node000013" class="node">
<title>Node13</title>
<g id="a_Node000013"><a xlink:title=" ">
<polygon fill="#e0e0e0" stroke="#999999" points="735.75,-26 693.5,-26 693.5,-6 735.75,-6 735.75,-26"/>
<text text-anchor="middle" x="714.62" y="-12.5" font-family="Helvetica,sans-Serif" font-size="10.00">cstdio</text>
</a>
</g>
</g>
<!-- Node2&#45;&gt;Node13 -->
<g id="edge12_Node000002_Node000013" class="edge">
<title>Node2&#45;&gt;Node13</title>
<g id="a_edge12_Node000002_Node000013"><a xlink:title=" ">
<path fill="none" stroke="#63b8ff" d="M1494.91,-82.67C1377.4,-80.98 890.9,-71.64 744.62,-32 743.44,-31.68 742.26,-31.31 741.07,-30.91"/>
<polygon fill="#63b8ff" stroke="#63b8ff" points="742.63,-27.76 732.05,-27.07 739.89,-34.21 742.63,-27.76"/>
</a>
</g>
</g>
<!-- Node14 -->
<g id="Node000014" class="node">
<title>Node14</title>
<g id="a_Node000014"><a xlink:title=" ">
<polygon fill="#e0e0e0" stroke="#999999" points="797.12,-26 754.12,-26 754.12,-6 797.12,-6 797.12,-26"/>
<text text-anchor="middle" x="775.62" y="-12.5" font-family="Helvetica,sans-Serif" font-size="10.00">thread</text>
</a>
</g>
</g>
<!-- Node2&#45;&gt;Node14 -->
<g id="edge13_Node000002_Node000014" class="edge">
<title>Node2&#45;&gt;Node14</title>
<g id="a_edge13_Node000002_Node000014"><a xlink:title=" ">
<path fill="none" stroke="#63b8ff" d="M1495.14,-82.47C1383.92,-79.94 940.65,-67.79 806.62,-32 805.26,-31.64 803.88,-31.21 802.51,-30.74"/>
<polygon fill="#63b8ff" stroke="#63b8ff" points="804.21,-27.65 793.63,-27.04 801.51,-34.12 804.21,-27.65"/>
</a>
</g>
</g>
<!-- Node15 -->
<g id="Node000015" class="node">
<title>Node15</title>
<g id="a_Node000015"><a xlink:title=" ">
<polygon fill="#e0e0e0" stroke="#999999" points="898,-26 815.25,-26 815.25,-6 898,-6 898,-26"/>
<text text-anchor="middle" x="856.62" y="-12.5" font-family="Helvetica,sans-Serif" font-size="10.00">unordered_map</text>
</a>
</g>
</g>
<!-- Node2&#45;&gt;Node15 -->
<g id="edge14_Node000002_Node000015" class="edge">
<title>Node2&#45;&gt;Node15</title>
<g id="a_edge14_Node000002_Node000015"><a xlink:title=" ">
<path fill="none" stroke="#63b8ff" d="M1494.93,-82.78C1410.13,-81.63 1131.79,-74.64 906.62,-32 902.97,-31.31 899.21,-30.45 895.46,-29.51"/>
<polygon fill="#63b8ff" stroke="#63b8ff" points="896.43,-26.14 885.86,-26.86 894.57,-32.89 896.43,-26.14"/>
</a>
</g>
</g>
<!-- Node16 -->
<g id="Node000016" class="node">
<title>Node16</title>
<g id="a_Node000016"><a xlink:title=" ">
<polygon fill="#e0e0e0" stroke="#999999" points="993.38,-26 915.88,-26 915.88,-6 993.38,-6 993.38,-26"/>
<text text-anchor="middle" x="954.62" y="-12.5" font-family="Helvetica,sans-Serif" font-size="10.00">unordered_set</text>
</a>
</g>
</g>
<!-- Node2&#45;&gt;Node16 -->
<g id="edge15_Node000002_Node000016" class="edge">
<title>Node2&#45;&gt;Node16</title>
<g id="a_edge15_Node000002_Node000016"><a xlink:title=" ">
<path fill="none" stroke="#63b8ff" d="M1495.02,-82.33C1419.12,-79.95 1189.03,-69.89 1002.62,-32 999.27,-31.32 995.81,-30.49 992.37,-29.58"/>
<polygon fill="#63b8ff" stroke="#63b8ff" points="993.57,-26.29 982.99,-26.89 991.63,-33.01 993.57,-26.29"/>
</a>
</g>
</g>
<!-- Node17 -->
<g id="Node000017" class="node">
<title>Node17</title>
<g id="a_Node000017"><a xlink:title=" ">
<polygon fill="#e0e0e0" stroke="#999999" points="1053.38,-26 1011.88,-26 1011.88,-6 1053.38,-6 1053.38,-26"/>
<text text-anchor="middle" x="1032.62" y="-12.5" font-family="Helvetica,sans-Serif" font-size="10.00">vector</text>
</a>
</g>
</g>
<!-- Node2&#45;&gt;Node17 -->
<g id="edge16_Node000002_Node000017" class="edge">
<title>Node2&#45;&gt;Node17</title>
<g id="a_edge16_Node000002_Node000017"><a xlink:title=" ">
<path fill="none" stroke="#63b8ff" d="M1494.94,-83.27C1424.34,-83.34 1222.02,-79.09 1062.62,-32 1061.48,-31.66 1060.33,-31.28 1059.17,-30.87"/>
<polygon fill="#63b8ff" stroke="#63b8ff" points="1060.98,-27.83 1050.41,-27.09 1058.21,-34.26 1060.98,-27.83"/>
</a>
</g>
</g>
<!-- Node18 -->
<g id="Node000018" class="node">
<title>Node18</title>
<g id="a_Node000018"><a xlink:title=" ">
<polygon fill="#e0e0e0" stroke="#999999" points="1111.62,-26 1071.62,-26 1071.62,-6 1111.62,-6 1111.62,-26"/>
<text text-anchor="middle" x="1091.62" y="-12.5" font-family="Helvetica,sans-Serif" font-size="10.00">future</text>
</a>
</g>
</g>
<!-- Node2&#45;&gt;Node18 -->
<g id="edge17_Node000002_Node000018" class="edge">
<title>Node2&#45;&gt;Node18</title>
<g id="a_edge17_Node000002_Node000018"><a xlink:title=" ">
<path fill="none" stroke="#63b8ff" d="M1495.17,-82.81C1430.87,-81.68 1257.31,-74.59 1120.62,-32 1119.65,-31.7 1118.68,-31.36 1117.7,-31"/>
<polygon fill="#63b8ff" stroke="#63b8ff" points="1119.4,-27.93 1108.84,-27.07 1116.56,-34.33 1119.4,-27.93"/>
</a>
</g>
</g>
<!-- Node19 -->
<g id="Node000019" class="node">
<title>Node19</title>
<g id="a_Node000019"><a xlink:title=" ">
<polygon fill="#e0e0e0" stroke="#999999" points="1169.25,-26 1130,-26 1130,-6 1169.25,-6 1169.25,-26"/>
<text text-anchor="middle" x="1149.62" y="-12.5" font-family="Helvetica,sans-Serif" font-size="10.00">utility</text>
</a>
</g>
</g>
<!-- Node2&#45;&gt;Node19 -->
<g id="edge18_Node000002_Node000019" class="edge">
<title>Node2&#45;&gt;Node19</title>
<g id="a_edge18_Node000002_Node000019"><a xlink:title=" ">
<path fill="none" stroke="#63b8ff" d="M1495.09,-82.05C1437.35,-79.29 1292.87,-68.93 1178.62,-32 1177.66,-31.69 1176.68,-31.34 1175.71,-30.98"/>
<polygon fill="#63b8ff" stroke="#63b8ff" points="1177.41,-27.91 1166.86,-27.01 1174.55,-34.29 1177.41,-27.91"/>
</a>
</g>
</g>
<!-- Node20 -->
<g id="Node000020" class="node">
<title>Node20</title>
<g id="a_Node000020"><a xlink:title=" ">
<polygon fill="#e0e0e0" stroke="#999999" points="1235.75,-26 1187.5,-26 1187.5,-6 1235.75,-6 1235.75,-26"/>
<text text-anchor="middle" x="1211.62" y="-12.5" font-family="Helvetica,sans-Serif" font-size="10.00">random</text>
</a>
</g>
</g>
<!-- Node2&#45;&gt;Node20 -->
<g id="edge19_Node000002_Node000020" class="edge">
<title>Node2&#45;&gt;Node20</title>
<g id="a_edge19_Node000002_Node000020"><a xlink:title=" ">
<path fill="none" stroke="#63b8ff" d="M1495.01,-80.38C1445.65,-74.87 1334.34,-60.21 1244.62,-32 1243.27,-31.58 1241.91,-31.11 1240.53,-30.61"/>
<polygon fill="#63b8ff" stroke="#63b8ff" points="1242.14,-27.49 1231.56,-26.95 1239.5,-33.97 1242.14,-27.49"/>
</a>
</g>
</g>
<!-- Node21 -->
<g id="Node000021" class="node">
<title>Node21</title>
<g id="a_Node000021"><a xlink:title=" ">
<polygon fill="#e0e0e0" stroke="#999999" points="1293.62,-26 1253.62,-26 1253.62,-6 1293.62,-6 1293.62,-26"/>
<text text-anchor="middle" x="1273.62" y="-12.5" font-family="Helvetica,sans-Serif" font-size="10.00">regex</text>
</a>
</g>
</g>
<!-- Node2&#45;&gt;Node21 -->
<g id="edge20_Node000002_Node000021" class="edge">
<title>Node2&#45;&gt;Node21</title>
<g id="a_edge20_Node000002_Node000021"><a xlink:title=" ">
<path fill="none" stroke="#63b8ff" d="M1495.19,-79.15C1453.89,-72.44 1370.08,-56.9 1302.62,-32 1301.85,-31.71 1301.06,-31.41 1300.28,-31.09"/>
<polygon fill="#63b8ff" stroke="#63b8ff" points="1302.1,-28.08 1291.55,-27.08 1299.17,-34.44 1302.1,-28.08"/>
</a>
</g>
</g>
<!-- Node22 -->
<g id="Node000022" class="node">
<title>Node22</title>
<g id="a_Node000022"><a xlink:title=" ">
<polygon fill="#e0e0e0" stroke="#999999" points="1381.25,-26 1312,-26 1312,-6 1381.25,-6 1381.25,-26"/>
<text text-anchor="middle" x="1346.62" y="-12.5" font-family="Helvetica,sans-Serif" font-size="10.00">WinSock2.h</text>
</a>
</g>
</g>
<!-- Node2&#45;&gt;Node22 -->
<g id="edge21_Node000002_Node000022" class="edge">
<title>Node2&#45;&gt;Node22</title>
<g id="a_edge21_Node000002_Node000022"><a xlink:title=" ">
<path fill="none" stroke="#63b8ff" d="M1495.7,-73.54C1465.85,-62.22 1415.66,-43.19 1381.86,-30.37"/>
<polygon fill="#63b8ff" stroke="#63b8ff" points="1383.52,-27.25 1372.92,-26.98 1381.03,-33.79 1383.52,-27.25"/>
</a>
</g>
</g>
<!-- Node23 -->
<g id="Node000023" class="node">
<title>Node23</title>
<g id="a_Node000023"><a xlink:title=" ">
<polygon fill="#e0e0e0" stroke="#999999" points="1460.12,-26 1399.12,-26 1399.12,-6 1460.12,-6 1460.12,-26"/>
<text text-anchor="middle" x="1429.62" y="-12.5" font-family="Helvetica,sans-Serif" font-size="10.00">windows.h</text>
</a>
</g>
</g>
<!-- Node2&#45;&gt;Node23 -->
<g id="edge22_Node000002_Node000023" class="edge">
<title>Node2&#45;&gt;Node23</title>
<g id="a_edge22_Node000002_Node000023"><a xlink:title=" ">
<path fill="none" stroke="#63b8ff" d="M1507.59,-73.54C1492.99,-62.96 1469.1,-45.63 1451.6,-32.94"/>
<polygon fill="#63b8ff" stroke="#63b8ff" points="1454.01,-30.37 1443.86,-27.33 1449.9,-36.03 1454.01,-30.37"/>
</a>
</g>
</g>
<!-- Node24 -->
<g id="Node000024" class="node">
<title>Node24</title>
<g id="a_Node000024"><a xlink:href="../../de/dbf/locale__strings_8h.html" target="_top" xlink:title=" ">
<polygon fill="white" stroke="#666666" points="1562.75,-26 1478.5,-26 1478.5,-6 1562.75,-6 1562.75,-26"/>
<text text-anchor="middle" x="1520.62" y="-12.5" font-family="Helvetica,sans-Serif" font-size="10.00">locale_strings.h</text>
</a>
</g>
</g>
<!-- Node2&#45;&gt;Node24 -->
<g id="edge23_Node000002_Node000024" class="edge">
<title>Node2&#45;&gt;Node24</title>
<g id="a_edge23_Node000002_Node000024"><a xlink:title=" ">
<path fill="none" stroke="#63b8ff" d="M1520.62,-73.54C1520.62,-64.23 1520.62,-49.7 1520.62,-37.7"/>
<polygon fill="#63b8ff" stroke="#63b8ff" points="1524.13,-37.95 1520.63,-27.95 1517.13,-37.95 1524.13,-37.95"/>
</a>
</g>
</g>
<!-- Node25 -->
<g id="Node000025" class="node">
<title>Node25</title>
<g id="a_Node000025"><a xlink:title=" ">
<polygon fill="#e0e0e0" stroke="#999999" points="1640.38,-26 1580.88,-26 1580.88,-6 1640.38,-6 1640.38,-26"/>
<text text-anchor="middle" x="1610.62" y="-12.5" font-family="Helvetica,sans-Serif" font-size="10.00">GL/glew.h</text>
</a>
</g>
</g>
<!-- Node2&#45;&gt;Node25 -->
<g id="edge24_Node000002_Node000025" class="edge">
<title>Node2&#45;&gt;Node25</title>
<g id="a_edge24_Node000002_Node000025"><a xlink:title=" ">
<path fill="none" stroke="#63b8ff" d="M1533.52,-73.54C1547.96,-62.96 1571.59,-45.63 1588.89,-32.94"/>
<polygon fill="#63b8ff" stroke="#63b8ff" points="1590.54,-36.07 1596.53,-27.33 1586.4,-30.42 1590.54,-36.07"/>
</a>
</g>
</g>
<!-- Node26 -->
<g id="Node000026" class="node">
<title>Node26</title>
<g id="a_Node000026"><a xlink:title=" ">
<polygon fill="#e0e0e0" stroke="#999999" points="1736.38,-26 1658.88,-26 1658.88,-6 1736.38,-6 1736.38,-26"/>
<text text-anchor="middle" x="1697.62" y="-12.5" font-family="Helvetica,sans-Serif" font-size="10.00">GLFW/glfw3.h</text>
</a>
</g>
</g>
<!-- Node2&#45;&gt;Node26 -->
<g id="edge25_Node000002_Node000026" class="edge">
<title>Node2&#45;&gt;Node26</title>
<g id="a_edge25_Node000002_Node000026"><a xlink:title=" ">
<path fill="none" stroke="#63b8ff" d="M1545.98,-73.54C1576.35,-62.22 1627.4,-43.19 1661.78,-30.37"/>
<polygon fill="#63b8ff" stroke="#63b8ff" points="1662.75,-33.74 1670.89,-26.97 1660.3,-27.18 1662.75,-33.74"/>
</a>
</g>
</g>
<!-- Node27 -->
<g id="Node000027" class="node">
<title>Node27</title>
<g id="a_Node000027"><a xlink:title=" ">
<polygon fill="#e0e0e0" stroke="#999999" points="1823.25,-26 1754,-26 1754,-6 1823.25,-6 1823.25,-26"/>
<text text-anchor="middle" x="1788.62" y="-12.5" font-family="Helvetica,sans-Serif" font-size="10.00">glm/glm.hpp</text>
</a>
</g>
</g>
<!-- Node2&#45;&gt;Node27 -->
<g id="edge26_Node000002_Node000027" class="edge">
<title>Node2&#45;&gt;Node27</title>
<g id="a_edge26_Node000002_Node000027"><a xlink:title=" ">
<path fill="none" stroke="#63b8ff" d="M1546.17,-78.19C1588.15,-70.06 1674.2,-52.48 1745.62,-32 1747.88,-31.35 1750.19,-30.65 1752.52,-29.92"/>
<polygon fill="#63b8ff" stroke="#63b8ff" points="1753.47,-33.29 1761.87,-26.84 1751.28,-26.65 1753.47,-33.29"/>
</a>
</g>
</g>
<!-- Node28 -->
<g id="Node000028" class="node">
<title>Node28</title>
<g id="a_Node000028"><a xlink:title=" ">
<polygon fill="#e0e0e0" stroke="#999999" points="1954,-26 1841.25,-26 1841.25,-6 1954,-6 1954,-26"/>
<text text-anchor="middle" x="1897.62" y="-12.5" font-family="Helvetica,sans-Serif" font-size="10.00">glm/gtc/constants.hpp</text>
</a>
</g>
</g>
<!-- Node2&#45;&gt;Node28 -->
<g id="edge27_Node000002_Node000028" class="edge">
<title>Node2&#45;&gt;Node28</title>
<g id="a_edge27_Node000002_Node000028"><a xlink:title=" ">
<path fill="none" stroke="#63b8ff" d="M1546.2,-79.39C1599.61,-71.73 1726.81,-52.84 1832.62,-32 1837.49,-31.04 1842.54,-29.99 1847.58,-28.89"/>
<polygon fill="#63b8ff" stroke="#63b8ff" points="1848.05,-32.37 1857.05,-26.78 1846.53,-25.54 1848.05,-32.37"/>
</a>
</g>
</g>
<!-- Node29 -->
<g id="Node000029" class="node">
<title>Node29</title>
<g id="a_Node000029"><a xlink:title=" ">
<polygon fill="#e0e0e0" stroke="#999999" points="2115,-26 1972.25,-26 1972.25,-6 2115,-6 2115,-26"/>
<text text-anchor="middle" x="2043.62" y="-12.5" font-family="Helvetica,sans-Serif" font-size="10.00">glm/gtc/matrix_transform.hpp</text>
</a>
</g>
</g>
<!-- Node2&#45;&gt;Node29 -->
<g id="edge28_Node000002_Node000029" class="edge">
<title>Node2&#45;&gt;Node29</title>
<g id="a_edge28_Node000002_Node000029"><a xlink:title=" ">
<path fill="none" stroke="#63b8ff" d="M1546.12,-80.67C1614.03,-74.34 1804.88,-55.68 1962.62,-32 1969.76,-30.93 1977.23,-29.7 1984.63,-28.41"/>
<polygon fill="#63b8ff" stroke="#63b8ff" points="1985.03,-31.89 1994.26,-26.69 1983.8,-25 1985.03,-31.89"/>
</a>
</g>
</g>
<!-- Node30 -->
<g id="Node000030" class="node">
<title>Node30</title>
<g id="a_Node000030"><a xlink:title=" ">
<polygon fill="#e0e0e0" stroke="#999999" points="2272.5,-26 2132.75,-26 2132.75,-6 2272.5,-6 2272.5,-26"/>
<text text-anchor="middle" x="2202.62" y="-12.5" font-family="Helvetica,sans-Serif" font-size="10.00">glm/ext/vector_relational.hpp</text>
</a>
</g>
</g>
<!-- Node2&#45;&gt;Node30 -->
<g id="edge29_Node000002_Node000030" class="edge">
<title>Node2&#45;&gt;Node30</title>
<g id="a_edge29_Node000002_Node000030"><a xlink:title=" ">
<path fill="none" stroke="#63b8ff" d="M1546.3,-81.78C1629.8,-77.61 1901.13,-62.45 2123.62,-32 2130.88,-31.01 2138.48,-29.79 2145.98,-28.49"/>
<polygon fill="#63b8ff" stroke="#63b8ff" points="2146.51,-31.95 2155.73,-26.72 2145.27,-25.06 2146.51,-31.95"/>
</a>
</g>
</g>
<!-- Node31 -->
<g id="Node000031" class="node">
<title>Node31</title>
<g id="a_Node000031"><a xlink:title=" ">
<polygon fill="#e0e0e0" stroke="#999999" points="2391,-26 2290.25,-26 2290.25,-6 2391,-6 2391,-26"/>
<text text-anchor="middle" x="2340.62" y="-12.5" font-family="Helvetica,sans-Serif" font-size="10.00">glm/gtc/epsilon.hpp</text>
</a>
</g>
</g>
<!-- Node2&#45;&gt;Node31 -->
<g id="edge30_Node000002_Node000031" class="edge">
<title>Node2&#45;&gt;Node31</title>
<g id="a_edge30_Node000002_Node000031"><a xlink:title=" ">
<path fill="none" stroke="#63b8ff" d="M1546.1,-82.97C1642.73,-82.5 1995.57,-77.56 2281.62,-32 2286.57,-31.21 2291.71,-30.2 2296.8,-29.08"/>
<polygon fill="#63b8ff" stroke="#63b8ff" points="2297.37,-32.54 2306.3,-26.83 2295.76,-25.73 2297.37,-32.54"/>
</a>
</g>
</g>
<!-- Node32 -->
<g id="Node000032" class="node">
<title>Node32</title>
<g id="a_Node000032"><a xlink:title=" ">
<polygon fill="#e0e0e0" stroke="#999999" points="2534,-26 2409.25,-26 2409.25,-6 2534,-6 2534,-26"/>
<text text-anchor="middle" x="2471.62" y="-12.5" font-family="Helvetica,sans-Serif" font-size="10.00">glm/gtx/euler_angles.hpp</text>
</a>
</g>
</g>
<!-- Node2&#45;&gt;Node32 -->
<g id="edge31_Node000002_Node000032" class="edge">
<title>Node2&#45;&gt;Node32</title>
<g id="a_edge31_Node000002_Node000032"><a xlink:title=" ">
<path fill="none" stroke="#63b8ff" d="M1546.28,-82.89C1652.04,-82.15 2064.35,-76.4 2399.62,-32 2406.36,-31.11 2413.4,-29.94 2420.33,-28.65"/>
<polygon fill="#63b8ff" stroke="#63b8ff" points="2420.82,-32.12 2429.95,-26.76 2419.47,-25.25 2420.82,-32.12"/>
</a>
</g>
</g>
<!-- Node33 -->
<g id="Node000033" class="node">
<title>Node33</title>
<g id="a_Node000033"><a xlink:title=" ">
<polygon fill="#e0e0e0" stroke="#999999" points="2599.38,-26 2551.88,-26 2551.88,-6 2599.38,-6 2599.38,-26"/>
<text text-anchor="middle" x="2575.62" y="-12.5" font-family="Helvetica,sans-Serif" font-size="10.00">imgui.h</text>
</a>
</g>
</g>
<!-- Node2&#45;&gt;Node33 -->
<g id="edge32_Node000002_Node000033" class="edge">
<title>Node2&#45;&gt;Node33</title>
<g id="a_edge32_Node000002_Node000033"><a xlink:title=" ">
<path fill="none" stroke="#63b8ff" d="M1546.19,-83.02C1684.58,-82.93 2345.18,-79.95 2542.62,-32 2544.27,-31.6 2545.93,-31.12 2547.59,-30.58"/>
<polygon fill="#63b8ff" stroke="#63b8ff" points="2548.83,-33.85 2556.85,-26.93 2546.26,-27.34 2548.83,-33.85"/>
</a>
</g>
</g>
<!-- Node34 -->
<g id="Node000034" class="node">
<title>Node34</title>
<g id="a_Node000034"><a xlink:title=" ">
<polygon fill="#e0e0e0" stroke="#999999" points="2725.38,-32 2617.88,-32 2617.88,0 2725.38,0 2725.38,-32"/>
<text text-anchor="start" x="2625.88" y="-18.5" font-family="Helvetica,sans-Serif" font-size="10.00">backends/imgui_impl</text>
<text text-anchor="middle" x="2671.62" y="-6.5" font-family="Helvetica,sans-Serif" font-size="10.00">_glfw.h</text>
</a>
</g>
</g>
<!-- Node2&#45;&gt;Node34 -->
<g id="edge33_Node000002_Node000034" class="edge">
<title>Node2&#45;&gt;Node34</title>
<g id="a_edge33_Node000002_Node000034"><a xlink:title=" ">
<path fill="none" stroke="#63b8ff" d="M1546.28,-82.45C1687.42,-79.32 2371.23,-62.88 2606.27,-32.1"/>
<polygon fill="#63b8ff" stroke="#63b8ff" points="2606.52,-35.6 2615.95,-30.78 2605.57,-28.66 2606.52,-35.6"/>
</a>
</g>
</g>
<!-- Node35 -->
<g id="Node000035" class="node">
<title>Node35</title>
<g id="a_Node000035"><a xlink:title=" ">
<polygon fill="#e0e0e0" stroke="#999999" points="2851.38,-32 2743.88,-32 2743.88,0 2851.38,0 2851.38,-32"/>
<text text-anchor="start" x="2751.88" y="-18.5" font-family="Helvetica,sans-Serif" font-size="10.00">backends/imgui_impl</text>
<text text-anchor="middle" x="2797.62" y="-6.5" font-family="Helvetica,sans-Serif" font-size="10.00">_opengl3.h</text>
</a>
</g>
</g>
<!-- Node2&#45;&gt;Node35 -->
<g id="edge34_Node000002_Node000035" class="edge">
<title>Node2&#45;&gt;Node35</title>
<g id="a_edge34_Node000002_Node000035"><a xlink:title=" ">
<path fill="none" stroke="#63b8ff" d="M1546.19,-82.59C1696.78,-80.1 2470.16,-65.91 2732.11,-32.11"/>
<polygon fill="#63b8ff" stroke="#63b8ff" points="2732.51,-35.59 2741.95,-30.8 2731.58,-28.66 2732.51,-35.59"/>
</a>
</g>
</g>
<!-- Node36 -->
<g id="Node000036" class="node">
<title>Node36</title>
<g id="a_Node000036"><a xlink:title=" ">
<polygon fill="#e0e0e0" stroke="#999999" points="2988,-26 2869.25,-26 2869.25,-6 2988,-6 2988,-26"/>
<text text-anchor="middle" x="2928.62" y="-12.5" font-family="Helvetica,sans-Serif" font-size="10.00">misc/cpp/imgui_stdlib.h</text>
</a>
</g>
</g>
<!-- Node2&#45;&gt;Node36 -->
<g id="edge35_Node000002_Node000036" class="edge">
<title>Node2&#45;&gt;Node36</title>
<g id="a_edge35_Node000002_Node000036"><a xlink:title=" ">
<path fill="none" stroke="#63b8ff" d="M1546.16,-82.65C1707.97,-80.36 2592.47,-66.4 2860.62,-32 2867.08,-31.17 2873.82,-30.03 2880.45,-28.74"/>
<polygon fill="#63b8ff" stroke="#63b8ff" points="2880.86,-32.23 2889.94,-26.77 2879.44,-25.38 2880.86,-32.23"/>
</a>
</g>
</g>
<!-- Node37 -->
<g id="Node000037" class="node">
<title>Node37</title>
<g id="a_Node000037"><a xlink:title=" ">
<polygon fill="#e0e0e0" stroke="#999999" points="3090.75,-26 3006.5,-26 3006.5,-6 3090.75,-6 3090.75,-26"/>
<text text-anchor="middle" x="3048.62" y="-12.5" font-family="Helvetica,sans-Serif" font-size="10.00">imgui_internal.h</text>
</a>
</g>
</g>
<!-- Node2&#45;&gt;Node37 -->
<g id="edge36_Node000002_Node000037" class="edge">
<title>Node2&#45;&gt;Node37</title>
<g id="a_edge36_Node000002_Node000037"><a xlink:title=" ">
<path fill="none" stroke="#63b8ff" d="M1546.25,-82.98C1717.76,-82.69 2701.15,-78.98 2996.62,-32 3000.94,-31.31 3005.4,-30.38 3009.81,-29.32"/>
<polygon fill="#63b8ff" stroke="#63b8ff" points="3010.35,-32.8 3019.11,-26.85 3008.55,-26.03 3010.35,-32.8"/>
</a>
</g>
</g>
<!-- Node38 -->
<g id="Node000038" class="node">
<title>Node38</title>
<g id="a_Node000038"><a xlink:title=" ">
<polygon fill="#e0e0e0" stroke="#999999" points="3194.12,-26 3109.12,-26 3109.12,-6 3194.12,-6 3194.12,-26"/>
<text text-anchor="middle" x="3151.62" y="-12.5" font-family="Helvetica,sans-Serif" font-size="10.00">ImGuiNotify.hpp</text>
</a>
</g>
</g>
<!-- Node2&#45;&gt;Node38 -->
<g id="edge37_Node000002_Node000038" class="edge">
<title>Node2&#45;&gt;Node38</title>
<g id="a_edge37_Node000002_Node000038"><a xlink:title=" ">
<path fill="none" stroke="#63b8ff" d="M1546.3,-83.04C1724.74,-83.21 2782.48,-82.06 3099.62,-32 3103.94,-31.32 3108.4,-30.39 3112.81,-29.33"/>
<polygon fill="#63b8ff" stroke="#63b8ff" points="3113.35,-32.81 3122.11,-26.86 3111.55,-26.04 3113.35,-32.81"/>
</a>
</g>
</g>
<!-- Node39 -->
<g id="Node000039" class="node">
<title>Node39</title>
<g id="a_Node000039"><a xlink:title=" ">
<polygon fill="#e0e0e0" stroke="#999999" points="3347.25,-26 3212,-26 3212,-6 3347.25,-6 3347.25,-26"/>
<text text-anchor="middle" x="3279.62" y="-12.5" font-family="Helvetica,sans-Serif" font-size="10.00">addons/imguidatechooser.h</text>
</a>
</g>
</g>
<!-- Node2&#45;&gt;Node39 -->
<g id="edge38_Node000002_Node000039" class="edge">
<title>Node2&#45;&gt;Node39</title>
<g id="a_edge38_Node000002_Node000039"><a xlink:title=" ">
<path fill="none" stroke="#63b8ff" d="M1546.13,-82.79C1730.49,-81.22 2861.66,-70.13 3202.62,-32 3210.35,-31.14 3218.46,-29.91 3226.4,-28.53"/>
<polygon fill="#63b8ff" stroke="#63b8ff" points="3226.76,-32.02 3235.96,-26.77 3225.5,-25.14 3226.76,-32.02"/>
</a>
</g>
</g>
<!-- Node40 -->
<g id="Node000040" class="node">
<title>Node40</title>
<g id="a_Node000040"><a xlink:title=" ">
<polygon fill="#e0e0e0" stroke="#999999" points="3449.75,-26 3365.5,-26 3365.5,-6 3449.75,-6 3449.75,-26"/>
<text text-anchor="middle" x="3407.62" y="-12.5" font-family="Helvetica,sans-Serif" font-size="10.00">spdlog/spdlog.h</text>
</a>
</g>
</g>
<!-- Node2&#45;&gt;Node40 -->
<g id="edge39_Node000002_Node000040" class="edge">
<title>Node2&#45;&gt;Node40</title>
<g id="a_edge39_Node000002_Node000040"><a xlink:title=" ">
<path fill="none" stroke="#63b8ff" d="M1546.05,-82.69C1753.85,-80.11 3169.92,-61.54 3356.62,-32 3360.74,-31.35 3364.99,-30.46 3369.2,-29.44"/>
<polygon fill="#63b8ff" stroke="#63b8ff" points="3369.92,-32.87 3378.67,-26.89 3368.1,-26.11 3369.92,-32.87"/>
</a>
</g>
</g>
<!-- Node41 -->
<g id="Node000041" class="node">
<title>Node41</title>
<g id="a_Node000041"><a xlink:title=" ">
<polygon fill="#e0e0e0" stroke="#999999" points="3565.12,-32 3468.12,-32 3468.12,0 3565.12,0 3565.12,-32"/>
<text text-anchor="start" x="3476.12" y="-18.5" font-family="Helvetica,sans-Serif" font-size="10.00">spdlog/sinks/basic</text>
<text text-anchor="middle" x="3516.62" y="-6.5" font-family="Helvetica,sans-Serif" font-size="10.00">_file_sink.h</text>
</a>
</g>
</g>
<!-- Node2&#45;&gt;Node41 -->
<g id="edge40_Node000002_Node000041" class="edge">
<title>Node2&#45;&gt;Node41</title>
<g id="a_edge40_Node000002_Node000041"><a xlink:title=" ">
<path fill="none" stroke="#63b8ff" d="M1546.1,-83.12C1744.17,-83.96 3040.98,-87.33 3456.59,-32"/>
<polygon fill="#63b8ff" stroke="#63b8ff" points="3456.8,-35.51 3466.24,-30.68 3455.85,-28.57 3456.8,-35.51"/>
</a>
</g>
</g>
<!-- Node42 -->
<g id="Node000042" class="node">
<title>Node42</title>
<g id="a_Node000042"><a xlink:title=" ">
<polygon fill="#e0e0e0" stroke="#999999" points="3642.38,-26 3582.88,-26 3582.88,-6 3642.38,-6 3642.38,-26"/>
<text text-anchor="middle" x="3612.62" y="-12.5" font-family="Helvetica,sans-Serif" font-size="10.00">fmt/core.h</text>
</a>
</g>
</g>
<!-- Node2&#45;&gt;Node42 -->
<g id="edge41_Node000002_Node000042" class="edge">
<title>Node2&#45;&gt;Node42</title>
<g id="a_edge41_Node000002_Node000042"><a xlink:title=" ">
<path fill="none" stroke="#63b8ff" d="M1546.21,-82.89C1768.24,-81.9 3365.44,-73.34 3573.62,-32 3576.11,-31.51 3578.64,-30.87 3581.17,-30.13"/>
<polygon fill="#63b8ff" stroke="#63b8ff" points="3582.2,-33.48 3590.53,-26.94 3579.94,-26.85 3582.2,-33.48"/>
</a>
</g>
</g>
<!-- Node43 -->
<g id="Node000043" class="node">
<title>Node43</title>
<g id="a_Node000043"><a xlink:title=" ">
<polygon fill="#e0e0e0" stroke="#999999" points="3722.5,-26 3660.75,-26 3660.75,-6 3722.5,-6 3722.5,-26"/>
<text text-anchor="middle" x="3691.62" y="-12.5" font-family="Helvetica,sans-Serif" font-size="10.00">fmt/color.h</text>
</a>
</g>
</g>
<!-- Node2&#45;&gt;Node43 -->
<g id="edge42_Node000002_Node000043" class="edge">
<title>Node2&#45;&gt;Node43</title>
<g id="a_edge42_Node000002_Node000043"><a xlink:title=" ">
<path fill="none" stroke="#63b8ff" d="M1546.1,-82.91C1772.4,-82 3435,-73.96 3651.62,-32 3654.27,-31.49 3656.96,-30.82 3659.65,-30.05"/>
<polygon fill="#63b8ff" stroke="#63b8ff" points="3660.61,-33.42 3668.98,-26.93 3658.39,-26.78 3660.61,-33.42"/>
</a>
</g>
</g>
<!-- Node44 -->
<g id="Node000044" class="node">
<title>Node44</title>
<g id="a_Node000044"><a xlink:href="../../de/dec/_singleton_8h.html" target="_top" xlink:title=" ">
<polygon fill="white" stroke="#666666" points="3840.62,-26 3740.62,-26 3740.62,-6 3840.62,-6 3840.62,-26"/>
<text text-anchor="middle" x="3790.62" y="-12.5" font-family="Helvetica,sans-Serif" font-size="10.00">Utilities/Singleton.h</text>
</a>
</g>
</g>
<!-- Node2&#45;&gt;Node44 -->
<g id="edge43_Node000002_Node000044" class="edge">
<title>Node2&#45;&gt;Node44</title>
<g id="a_edge43_Node000002_Node000044"><a xlink:title=" ">
<path fill="none" stroke="#63b8ff" d="M1546.3,-82.76C1777.95,-80.55 3504.57,-63.07 3731.62,-32 3736.97,-31.27 3742.53,-30.23 3748.01,-29.04"/>
<polygon fill="#63b8ff" stroke="#63b8ff" points="3748.64,-32.49 3757.57,-26.78 3747.03,-25.68 3748.64,-32.49"/>
</a>
</g>
</g>
<!-- Node87&#45;&gt;Node47 -->
<g id="edge47_Node000087_Node000047" class="edge">
<title>Node87&#45;&gt;Node47</title>
<g id="a_edge47_Node000087_Node000047"><a xlink:title=" ">
<path fill="none" stroke="#63b8ff" d="M3901.62,-73.54C3901.62,-64.23 3901.62,-49.7 3901.62,-37.7"/>
<polygon fill="#63b8ff" stroke="#63b8ff" points="3905.13,-37.95 3901.63,-27.95 3898.13,-37.95 3905.13,-37.95"/>
</a>
</g>
</g>
</g>
</svg>
