<?xml version="1.0" encoding="UTF-8" standalone="no"?>
<!DOCTYPE svg PUBLIC "-//W3C//DTD SVG 1.1//EN"
 "http://www.w3.org/Graphics/SVG/1.1/DTD/svg11.dtd">
<!-- Generated by graphviz version 10.0.1 (20240210.2158)
 -->
<!-- Title: GEU::I_GUIPopup Pages: 1 -->
<svg width="294pt" height="332pt"
 viewBox="0.00 0.00 294.25 332.00" xmlns="http://www.w3.org/2000/svg" xmlns:xlink="http://www.w3.org/1999/xlink">

<svg id="main" version="1.1" xmlns="http://www.w3.org/2000/svg" xmlns:xlink="http://www.w3.org/1999/xlink" xml:space="preserve" onload="init(evt)">
<style type="text/css"><![CDATA[
.node, .edge {opacity: 0.7;}
.node.selected, .edge.selected {opacity: 1;}
.edge:hover path { stroke: red; }
.edge:hover polygon { stroke: red; fill: red; }
]]></style>
<script type="application/ecmascript" xlink:href="../../svg.min.js"/>
<svg id="graph" class="graph">
<g id="graph0" class="graph" transform="scale(1 1) rotate(0) translate(4 328)">
<title>GEU::I_GUIPopup</title>
<!-- Node1 -->
<g id="Node000001" class="node">
<title>Node1</title>
<g id="a_Node000001"><a xlink:title="ImGUI popups interface adapter class.">
<polygon fill="#999999" stroke="#666666" points="94.75,-172 0,-172 0,-152 94.75,-152 94.75,-172"/>
<text text-anchor="middle" x="47.38" y="-158.5" font-family="Helvetica,sans-Serif" font-size="10.00">GEU::I_GUIPopup</text>
</a>
</g>
</g>
<!-- Node2 -->
<g id="Node000002" class="node">
<title>Node2</title>
<g id="a_Node000002"><a xlink:href="../../d7/dd6/class_g_e_u_1_1_cloud_export_dialog_popup.html" target="_top" xlink:title="ImGUIFileDialog popup wrapper for point cloud file selection.">
<polygon fill="white" stroke="#666666" points="284,-324 133,-324 133,-304 284,-304 284,-324"/>
<text text-anchor="middle" x="208.5" y="-310.5" font-family="Helvetica,sans-Serif" font-size="10.00">GEU::CloudExportDialogPopup</text>
</a>
</g>
</g>
<!-- Node1&#45;&gt;Node2 -->
<g id="edge1_Node000001_Node000002" class="edge">
<title>Node1&#45;&gt;Node2</title>
<g id="a_edge1_Node000001_Node000002"><a xlink:title=" ">
<path fill="none" stroke="#63b8ff" d="M55.53,-182.94C66.75,-212.58 91.39,-266.33 130.75,-295 135.52,-298.47 140.86,-301.32 146.43,-303.64"/>
<polygon fill="#63b8ff" stroke="#63b8ff" points="58.85,-181.84 52.16,-173.62 52.26,-184.21 58.85,-181.84"/>
</a>
</g>
</g>
<!-- Node3 -->
<g id="Node000003" class="node">
<title>Node3</title>
<g id="a_Node000003"><a xlink:href="../../dd/d90/class_g_e_u_1_1_confirm_close_popup.html" target="_top" xlink:title=" ">
<polygon fill="white" stroke="#666666" points="272.75,-286 144.25,-286 144.25,-266 272.75,-266 272.75,-286"/>
<text text-anchor="middle" x="208.5" y="-272.5" font-family="Helvetica,sans-Serif" font-size="10.00">GEU::ConfirmClosePopup</text>
</a>
</g>
</g>
<!-- Node1&#45;&gt;Node3 -->
<g id="edge2_Node000001_Node000003" class="edge">
<title>Node1&#45;&gt;Node3</title>
<g id="a_edge2_Node000001_Node000003"><a xlink:title=" ">
<path fill="none" stroke="#63b8ff" d="M60.34,-182.01C74.43,-203.8 99.87,-238.09 130.75,-257 136.37,-260.44 142.58,-263.26 148.96,-265.57"/>
<polygon fill="#63b8ff" stroke="#63b8ff" points="63.43,-180.34 55.16,-173.71 57.49,-184.05 63.43,-180.34"/>
</a>
</g>
</g>
<!-- Node4 -->
<g id="Node000004" class="node">
<title>Node4</title>
<g id="a_Node000004"><a xlink:href="../../d3/d7c/class_g_e_u_1_1_confirm_popup.html" target="_top" xlink:title="Simple yes/no popup modal window.">
<polygon fill="white" stroke="#666666" points="260.38,-248 156.62,-248 156.62,-228 260.38,-228 260.38,-248"/>
<text text-anchor="middle" x="208.5" y="-234.5" font-family="Helvetica,sans-Serif" font-size="10.00">GEU::ConfirmPopup</text>
</a>
</g>
</g>
<!-- Node1&#45;&gt;Node4 -->
<g id="edge3_Node000001_Node000004" class="edge">
<title>Node1&#45;&gt;Node4</title>
<g id="a_edge3_Node000001_Node000004"><a xlink:title=" ">
<path fill="none" stroke="#63b8ff" d="M68.85,-179.33C84.78,-192 107.96,-208.71 130.75,-219 138.76,-222.61 147.56,-225.61 156.25,-228.07"/>
<polygon fill="#63b8ff" stroke="#63b8ff" points="71.49,-176.97 61.53,-173.36 67.07,-182.39 71.49,-176.97"/>
</a>
</g>
</g>
<!-- Node5 -->
<g id="Node000005" class="node">
<title>Node5</title>
<g id="a_Node000005"><a xlink:href="../../d2/da0/class_g_e_u_1_1_database_new_raw_popup.html" target="_top" xlink:title=" ">
<polygon fill="white" stroke="#666666" points="283.25,-210 133.75,-210 133.75,-190 283.25,-190 283.25,-210"/>
<text text-anchor="middle" x="208.5" y="-196.5" font-family="Helvetica,sans-Serif" font-size="10.00">GEU::DatabaseNewRawPopup</text>
</a>
</g>
</g>
<!-- Node1&#45;&gt;Node5 -->
<g id="edge4_Node000001_Node000005" class="edge">
<title>Node1&#45;&gt;Node5</title>
<g id="a_edge4_Node000001_Node000005"><a xlink:title=" ">
<path fill="none" stroke="#63b8ff" d="M103.3,-175.12C123.05,-179.83 145.06,-185.09 163.74,-189.55"/>
<polygon fill="#63b8ff" stroke="#63b8ff" points="104.29,-171.75 93.75,-172.84 102.66,-178.56 104.29,-171.75"/>
</a>
</g>
</g>
<!-- Node6 -->
<g id="Node000006" class="node">
<title>Node6</title>
<g id="a_Node000006"><a xlink:href="../../db/dbe/class_g_e_u_1_1_database_new_vuelo_popup.html" target="_top" xlink:title=" ">
<polygon fill="white" stroke="#666666" points="286.25,-172 130.75,-172 130.75,-152 286.25,-152 286.25,-172"/>
<text text-anchor="middle" x="208.5" y="-158.5" font-family="Helvetica,sans-Serif" font-size="10.00">GEU::DatabaseNewVueloPopup</text>
</a>
</g>
</g>
<!-- Node1&#45;&gt;Node6 -->
<g id="edge5_Node000001_Node000006" class="edge">
<title>Node1&#45;&gt;Node6</title>
<g id="a_edge5_Node000001_Node000006"><a xlink:title=" ">
<path fill="none" stroke="#63b8ff" d="M106.15,-162C114.05,-162 122.27,-162 130.45,-162"/>
<polygon fill="#63b8ff" stroke="#63b8ff" points="106.34,-158.5 96.34,-162 106.34,-165.5 106.34,-158.5"/>
</a>
</g>
</g>
<!-- Node7 -->
<g id="Node000007" class="node">
<title>Node7</title>
<g id="a_Node000007"><a xlink:href="../../d7/dbe/class_g_e_u_1_1_database_query_popup.html" target="_top" xlink:title=" ">
<polygon fill="white" stroke="#666666" points="277.62,-134 139.38,-134 139.38,-114 277.62,-114 277.62,-134"/>
<text text-anchor="middle" x="208.5" y="-120.5" font-family="Helvetica,sans-Serif" font-size="10.00">GEU::DatabaseQueryPopup</text>
</a>
</g>
</g>
<!-- Node1&#45;&gt;Node7 -->
<g id="edge6_Node000001_Node000007" class="edge">
<title>Node1&#45;&gt;Node7</title>
<g id="a_edge6_Node000001_Node000007"><a xlink:title=" ">
<path fill="none" stroke="#63b8ff" d="M103.3,-148.88C123.05,-144.17 145.06,-138.91 163.74,-134.45"/>
<polygon fill="#63b8ff" stroke="#63b8ff" points="102.66,-145.44 93.75,-151.16 104.29,-152.25 102.66,-145.44"/>
</a>
</g>
</g>
<!-- Node8 -->
<g id="Node000008" class="node">
<title>Node8</title>
<g id="a_Node000008"><a xlink:href="../../d0/d83/class_g_e_u_1_1_file_dialog_popup.html" target="_top" xlink:title="ImGUIFileDialog popup wrapper for system file selection.">
<polygon fill="white" stroke="#666666" points="265.25,-96 151.75,-96 151.75,-76 265.25,-76 265.25,-96"/>
<text text-anchor="middle" x="208.5" y="-82.5" font-family="Helvetica,sans-Serif" font-size="10.00">GEU::FileDialogPopup</text>
</a>
</g>
</g>
<!-- Node1&#45;&gt;Node8 -->
<g id="edge7_Node000001_Node000008" class="edge">
<title>Node1&#45;&gt;Node8</title>
<g id="a_edge7_Node000001_Node000008"><a xlink:title=" ">
<path fill="none" stroke="#63b8ff" d="M68.85,-144.67C84.78,-132 107.96,-115.29 130.75,-105 138.26,-101.61 146.46,-98.77 154.62,-96.4"/>
<polygon fill="#63b8ff" stroke="#63b8ff" points="67.07,-141.61 61.53,-150.64 71.49,-147.03 67.07,-141.61"/>
</a>
</g>
</g>
<!-- Node9 -->
<g id="Node000009" class="node">
<title>Node9</title>
<g id="a_Node000009"><a xlink:href="../../db/dac/class_g_e_u_1_1_info_popup.html" target="_top" xlink:title="Simple informative popup: shows text and close button.">
<polygon fill="white" stroke="#666666" points="251.38,-58 165.62,-58 165.62,-38 251.38,-38 251.38,-58"/>
<text text-anchor="middle" x="208.5" y="-44.5" font-family="Helvetica,sans-Serif" font-size="10.00">GEU::InfoPopup</text>
</a>
</g>
</g>
<!-- Node1&#45;&gt;Node9 -->
<g id="edge8_Node000001_Node000009" class="edge">
<title>Node1&#45;&gt;Node9</title>
<g id="a_edge8_Node000001_Node000009"><a xlink:title=" ">
<path fill="none" stroke="#63b8ff" d="M60.34,-141.99C74.43,-120.2 99.87,-85.91 130.75,-67 141.17,-60.62 153.62,-56.38 165.43,-53.56"/>
<polygon fill="#63b8ff" stroke="#63b8ff" points="57.49,-139.95 55.16,-150.29 63.43,-143.66 57.49,-139.95"/>
</a>
</g>
</g>
<!-- Node10 -->
<g id="Node000010" class="node">
<title>Node10</title>
<g id="a_Node000010"><a xlink:href="../../d9/d8f/class_g_e_u_1_1_p_cloud_classify_popup.html" target="_top" xlink:title="Custom point cloud classification popup: questions the user how to load the point cloud file.">
<polygon fill="white" stroke="#666666" points="276.88,-20 140.12,-20 140.12,0 276.88,0 276.88,-20"/>
<text text-anchor="middle" x="208.5" y="-6.5" font-family="Helvetica,sans-Serif" font-size="10.00">GEU::PCloudClassifyPopup</text>
</a>
</g>
</g>
<!-- Node1&#45;&gt;Node10 -->
<g id="edge9_Node000001_Node000010" class="edge">
<title>Node1&#45;&gt;Node10</title>
<g id="a_edge9_Node000001_Node000010"><a xlink:title=" ">
<path fill="none" stroke="#63b8ff" d="M55.53,-141.06C66.75,-111.42 91.39,-57.67 130.75,-29 135.52,-25.53 140.86,-22.68 146.43,-20.36"/>
<polygon fill="#63b8ff" stroke="#63b8ff" points="52.26,-139.79 52.16,-150.38 58.85,-142.16 52.26,-139.79"/>
</a>
</g>
</g>
</g>
</svg>
</svg>

<style type='text/css'>
<![CDATA[
[data-mouse-over-selected='false'] { opacity: 0.7; }
[data-mouse-over-selected='true']  { opacity: 1.0; }
]]>
</style>
<script type="application/ecmascript"><![CDATA[
document.addEventListener('DOMContentLoaded', (event) => {
  highlightEdges();
  highlightAdjacentNodes();
});
]]></script>
</svg>
