<?xml version="1.0" encoding="UTF-8" standalone="no"?>
<!DOCTYPE svg PUBLIC "-//W3C//DTD SVG 1.1//EN"
 "http://www.w3.org/Graphics/SVG/1.1/DTD/svg11.dtd">
<!-- Generated by graphviz version 10.0.1 (20240210.2158)
 -->
<!-- Title: RandomUtilities::getUniformRandom Pages: 1 -->
<svg width="493pt" height="390pt"
 viewBox="0.00 0.00 493.25 390.00" xmlns="http://www.w3.org/2000/svg" xmlns:xlink="http://www.w3.org/1999/xlink">

<svg id="main" version="1.1" xmlns="http://www.w3.org/2000/svg" xmlns:xlink="http://www.w3.org/1999/xlink" xml:space="preserve" onload="init(evt)">
<style type="text/css"><![CDATA[
.node, .edge {opacity: 0.7;}
.node.selected, .edge.selected {opacity: 1;}
.edge:hover path { stroke: red; }
.edge:hover polygon { stroke: red; fill: red; }
]]></style>
<script type="application/ecmascript" xlink:href="../../svg.min.js"/>
<svg id="graph" class="graph">
<g id="graph0" class="graph" transform="scale(1 1) rotate(0) translate(4 386)">
<title>RandomUtilities::getUniformRandom</title>
<!-- Node1 -->
<g id="Node000001" class="node">
<title>Node1</title>
<g id="a_Node000001"><a xlink:title=" ">
<polygon fill="#999999" stroke="#666666" points="485.25,-207 348.5,-207 348.5,-175 485.25,-175 485.25,-207"/>
<text text-anchor="start" x="356.5" y="-193.5" font-family="Helvetica,sans-Serif" font-size="10.00">RandomUtilities::getUniform</text>
<text text-anchor="middle" x="416.88" y="-181.5" font-family="Helvetica,sans-Serif" font-size="10.00">Random</text>
</a>
</g>
</g>
<!-- Node2 -->
<g id="Node000002" class="node">
<title>Node2</title>
<g id="a_Node000002"><a xlink:href="../../da/dbb/namespace_random_utilities.html#a80b007af684283157d9c92f94dbbd1f1" target="_top" xlink:title=" ">
<polygon fill="white" stroke="#666666" points="312.5,-382 172.75,-382 172.75,-350 312.5,-350 312.5,-382"/>
<text text-anchor="start" x="180.75" y="-368.5" font-family="Helvetica,sans-Serif" font-size="10.00">RandomUtilities::getRandom</text>
<text text-anchor="middle" x="242.62" y="-356.5" font-family="Helvetica,sans-Serif" font-size="10.00">ToSphere</text>
</a>
</g>
</g>
<!-- Node1&#45;&gt;Node2 -->
<g id="edge1_Node000001_Node000002" class="edge">
<title>Node1&#45;&gt;Node2</title>
<g id="a_edge1_Node000001_Node000002"><a xlink:title=" ">
<path fill="none" stroke="#63b8ff" d="M403.84,-217.82C387.6,-251.14 355.67,-307.65 312.5,-341 308.27,-344.27 303.58,-347.13 298.68,-349.65"/>
<polygon fill="#63b8ff" stroke="#63b8ff" points="406.97,-219.38 408.08,-208.84 400.64,-216.38 406.97,-219.38"/>
</a>
</g>
</g>
<!-- Node3 -->
<g id="Node000003" class="node">
<title>Node3</title>
<g id="a_Node000003"><a xlink:href="../../da/dbb/namespace_random_utilities.html#a9ac6bc06f0c457f22c548ddefd5f2ce1" target="_top" xlink:title=" ">
<polygon fill="white" stroke="#666666" points="311,-332 174.25,-332 174.25,-300 311,-300 311,-332"/>
<text text-anchor="start" x="182.25" y="-318.5" font-family="Helvetica,sans-Serif" font-size="10.00">RandomUtilities::getUniform</text>
<text text-anchor="middle" x="242.62" y="-306.5" font-family="Helvetica,sans-Serif" font-size="10.00">Random</text>
</a>
</g>
</g>
<!-- Node1&#45;&gt;Node3 -->
<g id="edge2_Node000001_Node000003" class="edge">
<title>Node1&#45;&gt;Node3</title>
<g id="a_edge2_Node000001_Node000003"><a xlink:title=" ">
<path fill="none" stroke="#63b8ff" d="M395.51,-215.97C376.17,-238.29 345.26,-270.53 312.5,-291 307.43,-294.17 301.9,-297.02 296.25,-299.55"/>
<polygon fill="#63b8ff" stroke="#63b8ff" points="398.03,-218.41 401.84,-208.52 392.7,-213.88 398.03,-218.41"/>
</a>
</g>
</g>
<!-- Node4 -->
<g id="Node000004" class="node">
<title>Node4</title>
<g id="a_Node000004"><a xlink:href="../../da/dbb/namespace_random_utilities.html#af397f39fe9bbef75b3df74e22e3259c2" target="_top" xlink:title="Generates a random color in [0, 1] by using getUniformRandom function for each channel.">
<polygon fill="white" stroke="#666666" points="311,-282 174.25,-282 174.25,-250 311,-250 311,-282"/>
<text text-anchor="start" x="182.25" y="-268.5" font-family="Helvetica,sans-Serif" font-size="10.00">RandomUtilities::getUniform</text>
<text text-anchor="middle" x="242.62" y="-256.5" font-family="Helvetica,sans-Serif" font-size="10.00">RandomColor</text>
</a>
</g>
</g>
<!-- Node1&#45;&gt;Node4 -->
<g id="edge3_Node000001_Node000004" class="edge">
<title>Node1&#45;&gt;Node4</title>
<g id="a_edge3_Node000001_Node000004"><a xlink:title=" ">
<path fill="none" stroke="#63b8ff" d="M373.92,-212.5C355.31,-221.72 333.02,-232.34 312.5,-241 305.59,-243.92 298.2,-246.82 290.93,-249.56"/>
<polygon fill="#63b8ff" stroke="#63b8ff" points="375.4,-215.67 382.78,-208.07 372.27,-209.41 375.4,-215.67"/>
</a>
</g>
</g>
<!-- Node5 -->
<g id="Node000005" class="node">
<title>Node5</title>
<g id="a_Node000005"><a xlink:href="../../da/dbb/namespace_random_utilities.html#a8b04b5dd855711c36f031cdf724cd638" target="_top" xlink:title="Generates a random color by using getUniformRandom function for each channel.">
<polygon fill="white" stroke="#666666" points="311,-232 174.25,-232 174.25,-200 311,-200 311,-232"/>
<text text-anchor="start" x="182.25" y="-218.5" font-family="Helvetica,sans-Serif" font-size="10.00">RandomUtilities::getUniform</text>
<text text-anchor="middle" x="242.62" y="-206.5" font-family="Helvetica,sans-Serif" font-size="10.00">RandomColor</text>
</a>
</g>
</g>
<!-- Node1&#45;&gt;Node5 -->
<g id="edge4_Node000001_Node000005" class="edge">
<title>Node1&#45;&gt;Node5</title>
<g id="a_edge4_Node000001_Node000005"><a xlink:title=" ">
<path fill="none" stroke="#63b8ff" d="M337.06,-202.44C328.46,-203.69 319.75,-204.95 311.3,-206.18"/>
<polygon fill="#63b8ff" stroke="#63b8ff" points="337.4,-205.93 346.79,-201.03 336.39,-199 337.4,-205.93"/>
</a>
</g>
</g>
<!-- Node6 -->
<g id="Node000006" class="node">
<title>Node6</title>
<g id="a_Node000006"><a xlink:href="../../da/dbb/namespace_random_utilities.html#ae72f8d80fad63ab5f96f8d82428aef46" target="_top" xlink:title=" ">
<polygon fill="white" stroke="#666666" points="311,-182 174.25,-182 174.25,-150 311,-150 311,-182"/>
<text text-anchor="start" x="182.25" y="-168.5" font-family="Helvetica,sans-Serif" font-size="10.00">RandomUtilities::getUniform</text>
<text text-anchor="middle" x="242.62" y="-156.5" font-family="Helvetica,sans-Serif" font-size="10.00">RandomCosineDirection</text>
</a>
</g>
</g>
<!-- Node1&#45;&gt;Node6 -->
<g id="edge5_Node000001_Node000006" class="edge">
<title>Node1&#45;&gt;Node6</title>
<g id="a_edge5_Node000001_Node000006"><a xlink:title=" ">
<path fill="none" stroke="#63b8ff" d="M337.06,-179.56C328.46,-178.31 319.75,-177.05 311.3,-175.82"/>
<polygon fill="#63b8ff" stroke="#63b8ff" points="336.39,-183 346.79,-180.97 337.4,-176.07 336.39,-183"/>
</a>
</g>
</g>
<!-- Node7 -->
<g id="Node000007" class="node">
<title>Node7</title>
<g id="a_Node000007"><a xlink:href="../../da/dbb/namespace_random_utilities.html#a286284615a053c25fa1a4851a40f89f6" target="_top" xlink:title=" ">
<polygon fill="white" stroke="#666666" points="311,-132 174.25,-132 174.25,-100 311,-100 311,-132"/>
<text text-anchor="start" x="182.25" y="-118.5" font-family="Helvetica,sans-Serif" font-size="10.00">RandomUtilities::getUniform</text>
<text text-anchor="middle" x="242.62" y="-106.5" font-family="Helvetica,sans-Serif" font-size="10.00">RandomInt</text>
</a>
</g>
</g>
<!-- Node1&#45;&gt;Node7 -->
<g id="edge6_Node000001_Node000007" class="edge">
<title>Node1&#45;&gt;Node7</title>
<g id="a_edge6_Node000001_Node000007"><a xlink:title=" ">
<path fill="none" stroke="#63b8ff" d="M373.92,-169.5C355.31,-160.28 333.02,-149.66 312.5,-141 305.59,-138.08 298.2,-135.18 290.93,-132.44"/>
<polygon fill="#63b8ff" stroke="#63b8ff" points="372.27,-172.59 382.78,-173.93 375.4,-166.33 372.27,-172.59"/>
</a>
</g>
</g>
<!-- Node8 -->
<g id="Node000008" class="node">
<title>Node8</title>
<g id="a_Node000008"><a xlink:href="../../da/dbb/namespace_random_utilities.html#a8a4d647eb2304a77c589ccc1638a8556" target="_top" xlink:title=" ">
<polygon fill="white" stroke="#666666" points="311,-82 174.25,-82 174.25,-50 311,-50 311,-82"/>
<text text-anchor="start" x="182.25" y="-68.5" font-family="Helvetica,sans-Serif" font-size="10.00">RandomUtilities::getUniform</text>
<text text-anchor="middle" x="242.62" y="-56.5" font-family="Helvetica,sans-Serif" font-size="10.00">RandomInUnitDisk</text>
</a>
</g>
</g>
<!-- Node1&#45;&gt;Node8 -->
<g id="edge7_Node000001_Node000008" class="edge">
<title>Node1&#45;&gt;Node8</title>
<g id="a_edge7_Node000001_Node000008"><a xlink:title=" ">
<path fill="none" stroke="#63b8ff" d="M395.51,-166.03C376.17,-143.71 345.26,-111.47 312.5,-91 307.43,-87.83 301.9,-84.98 296.25,-82.45"/>
<polygon fill="#63b8ff" stroke="#63b8ff" points="392.7,-168.12 401.84,-173.48 398.03,-163.59 392.7,-168.12"/>
</a>
</g>
</g>
<!-- Node9 -->
<g id="Node000009" class="node">
<title>Node9</title>
<g id="a_Node000009"><a xlink:href="../../da/dbb/namespace_random_utilities.html#ab5ac31d6e847903ffdb94c4896f30185" target="_top" xlink:title=" ">
<polygon fill="white" stroke="#666666" points="311,-32 174.25,-32 174.25,0 311,0 311,-32"/>
<text text-anchor="start" x="182.25" y="-18.5" font-family="Helvetica,sans-Serif" font-size="10.00">RandomUtilities::getUniform</text>
<text text-anchor="middle" x="242.62" y="-6.5" font-family="Helvetica,sans-Serif" font-size="10.00">RandomInUnitSphere</text>
</a>
</g>
</g>
<!-- Node1&#45;&gt;Node9 -->
<g id="edge8_Node000001_Node000009" class="edge">
<title>Node1&#45;&gt;Node9</title>
<g id="a_edge8_Node000001_Node000009"><a xlink:title=" ">
<path fill="none" stroke="#63b8ff" d="M403.84,-164.18C387.6,-130.86 355.67,-74.35 312.5,-41 308.27,-37.73 303.58,-34.87 298.68,-32.35"/>
<polygon fill="#63b8ff" stroke="#63b8ff" points="400.64,-165.62 408.08,-173.16 406.97,-162.62 400.64,-165.62"/>
</a>
</g>
</g>
<!-- Node10 -->
<g id="Node000010" class="node">
<title>Node10</title>
<g id="a_Node000010"><a xlink:href="../../da/dbb/namespace_random_utilities.html#a50b2eaff14e9f06cdeaafbe93770439b" target="_top" xlink:title=" ">
<polygon fill="white" stroke="#666666" points="136.75,-32 0,-32 0,0 136.75,0 136.75,-32"/>
<text text-anchor="start" x="8" y="-18.5" font-family="Helvetica,sans-Serif" font-size="10.00">RandomUtilities::getUniform</text>
<text text-anchor="middle" x="68.38" y="-6.5" font-family="Helvetica,sans-Serif" font-size="10.00">RandomInHemisphere</text>
</a>
</g>
</g>
<!-- Node9&#45;&gt;Node10 -->
<g id="edge9_Node000009_Node000010" class="edge">
<title>Node9&#45;&gt;Node10</title>
<g id="a_edge9_Node000009_Node000010"><a xlink:title=" ">
<path fill="none" stroke="#63b8ff" d="M162.81,-16C154.21,-16 145.5,-16 137.05,-16"/>
<polygon fill="#63b8ff" stroke="#63b8ff" points="162.53,-19.5 172.53,-16 162.53,-12.5 162.53,-19.5"/>
</a>
</g>
</g>
</g>
</svg>
</svg>

<style type='text/css'>
<![CDATA[
[data-mouse-over-selected='false'] { opacity: 0.7; }
[data-mouse-over-selected='true']  { opacity: 1.0; }
]]>
</style>
<script type="application/ecmascript"><![CDATA[
document.addEventListener('DOMContentLoaded', (event) => {
  highlightEdges();
  highlightAdjacentNodes();
});
]]></script>
</svg>
