<?xml version="1.0" encoding="UTF-8" standalone="no"?>
<!DOCTYPE svg PUBLIC "-//W3C//DTD SVG 1.1//EN"
 "http://www.w3.org/Graphics/SVG/1.1/DTD/svg11.dtd">
<!-- Generated by graphviz version 10.0.1 (20240210.2158)
 -->
<!-- Title: C:/GitHub/GEU/GEU/Source/Core/LinesModel.h Pages: 1 -->
<svg width="387pt" height="376pt"
 viewBox="0.00 0.00 386.75 376.00" xmlns="http://www.w3.org/2000/svg" xmlns:xlink="http://www.w3.org/1999/xlink">

<svg id="main" version="1.1" xmlns="http://www.w3.org/2000/svg" xmlns:xlink="http://www.w3.org/1999/xlink" xml:space="preserve" onload="init(evt)">
<style type="text/css"><![CDATA[
.node, .edge {opacity: 0.7;}
.node.selected, .edge.selected {opacity: 1;}
.edge:hover path { stroke: red; }
.edge:hover polygon { stroke: red; fill: red; }
]]></style>
<script type="application/ecmascript" xlink:href="../../svg.min.js"/>
<svg id="graph" class="graph">
<g id="graph0" class="graph" transform="scale(1 1) rotate(0) translate(4 372)">
<title>C:/GitHub/GEU/GEU/Source/Core/LinesModel.h</title>
<!-- Node1 -->
<g id="Node000001" class="node">
<title>Node1</title>
<g id="a_Node000001"><a xlink:title=" ">
<polygon fill="#999999" stroke="#666666" points="378.75,-368 238.25,-368 238.25,-336 378.75,-336 378.75,-368"/>
<text text-anchor="start" x="246.25" y="-354.5" font-family="Helvetica,sans-Serif" font-size="10.00">C:/GitHub/GEU/GEU/Source</text>
<text text-anchor="middle" x="308.5" y="-342.5" font-family="Helvetica,sans-Serif" font-size="10.00">/Core/LinesModel.h</text>
</a>
</g>
</g>
<!-- Node2 -->
<g id="Node000002" class="node">
<title>Node2</title>
<g id="a_Node000002"><a xlink:href="../../d0/d8e/_model3_d_8h.html" target="_top" xlink:title=" ">
<polygon fill="white" stroke="#666666" points="303.75,-300 241.25,-300 241.25,-280 303.75,-280 303.75,-300"/>
<text text-anchor="middle" x="272.5" y="-286.5" font-family="Helvetica,sans-Serif" font-size="10.00">Model3D.h</text>
</a>
</g>
</g>
<!-- Node1&#45;&gt;Node2 -->
<g id="edge1_Node000001_Node000002" class="edge">
<title>Node1&#45;&gt;Node2</title>
<g id="a_edge1_Node000001_Node000002"><a xlink:title=" ">
<path fill="none" stroke="#63b8ff" d="M299.23,-335.55C294.59,-327.82 288.94,-318.4 284.03,-310.21"/>
<polygon fill="#63b8ff" stroke="#63b8ff" points="287.07,-308.48 278.92,-301.71 281.07,-312.08 287.07,-308.48"/>
</a>
</g>
</g>
<!-- Node12 -->
<g id="Node000012" class="node">
<title>Node12</title>
<g id="a_Node000012"><a xlink:href="../../d9/dd4/_v_a_o_8h.html" target="_top" xlink:title=" ">
<polygon fill="white" stroke="#666666" points="369.12,-300 323.88,-300 323.88,-280 369.12,-280 369.12,-300"/>
<text text-anchor="middle" x="346.5" y="-286.5" font-family="Helvetica,sans-Serif" font-size="10.00">VAO.h</text>
</a>
</g>
</g>
<!-- Node1&#45;&gt;Node12 -->
<g id="edge14_Node000001_Node000012" class="edge">
<title>Node1&#45;&gt;Node12</title>
<g id="a_edge14_Node000001_Node000012"><a xlink:title=" ">
<path fill="none" stroke="#63b8ff" d="M318.29,-335.55C323.23,-327.74 329.28,-318.19 334.51,-309.94"/>
<polygon fill="#63b8ff" stroke="#63b8ff" points="337.34,-312.01 339.73,-301.69 331.42,-308.26 337.34,-312.01"/>
</a>
</g>
</g>
<!-- Node3 -->
<g id="Node000003" class="node">
<title>Node3</title>
<g id="a_Node000003"><a xlink:href="../../d3/d09/_material_8h.html" target="_top" xlink:title=" ">
<polygon fill="white" stroke="#666666" points="174.88,-244 116.12,-244 116.12,-224 174.88,-224 174.88,-244"/>
<text text-anchor="middle" x="145.5" y="-230.5" font-family="Helvetica,sans-Serif" font-size="10.00">Material.h</text>
</a>
</g>
</g>
<!-- Node2&#45;&gt;Node3 -->
<g id="edge2_Node000002_Node000003" class="edge">
<title>Node2&#45;&gt;Node3</title>
<g id="a_edge2_Node000002_Node000003"><a xlink:title=" ">
<path fill="none" stroke="#63b8ff" d="M250.38,-279.59C230.47,-271.13 200.95,-258.58 178.29,-248.94"/>
<polygon fill="#63b8ff" stroke="#63b8ff" points="179.76,-245.76 169.19,-245.07 177.02,-252.21 179.76,-245.76"/>
</a>
</g>
</g>
<!-- Node11 -->
<g id="Node000011" class="node">
<title>Node11</title>
<g id="a_Node000011"><a xlink:href="../../d2/d00/_a_a_b_b_8h.html" target="_top" xlink:title=" ">
<polygon fill="white" stroke="#666666" points="321,-244 224,-244 224,-224 321,-224 321,-244"/>
<text text-anchor="middle" x="272.5" y="-230.5" font-family="Helvetica,sans-Serif" font-size="10.00">Geometry/AABB.h</text>
</a>
</g>
</g>
<!-- Node2&#45;&gt;Node11 -->
<g id="edge13_Node000002_Node000011" class="edge">
<title>Node2&#45;&gt;Node11</title>
<g id="a_edge13_Node000002_Node000011"><a xlink:title=" ">
<path fill="none" stroke="#63b8ff" d="M272.5,-279.59C272.5,-273.01 272.5,-263.96 272.5,-255.73"/>
<polygon fill="#63b8ff" stroke="#63b8ff" points="276,-255.81 272.5,-245.81 269,-255.81 276,-255.81"/>
</a>
</g>
</g>
<!-- Node4 -->
<g id="Node000004" class="node">
<title>Node4</title>
<g id="a_Node000004"><a xlink:title=" ">
<polygon fill="#e0e0e0" stroke="#999999" points="85,-132 0,-132 0,-112 85,-112 85,-132"/>
<text text-anchor="middle" x="42.5" y="-118.5" font-family="Helvetica,sans-Serif" font-size="10.00">assimp/scene.h</text>
</a>
</g>
</g>
<!-- Node3&#45;&gt;Node4 -->
<g id="edge3_Node000003_Node000004" class="edge">
<title>Node3&#45;&gt;Node4</title>
<g id="a_edge3_Node000003_Node000004"><a xlink:title=" ">
<path fill="none" stroke="#63b8ff" d="M133.07,-223.67C121.9,-215.01 105.32,-201.46 92.5,-188 78.57,-173.38 64.73,-155.01 55.15,-141.53"/>
<polygon fill="#63b8ff" stroke="#63b8ff" points="58.18,-139.76 49.59,-133.56 52.44,-143.76 58.18,-139.76"/>
</a>
</g>
</g>
<!-- Node5 -->
<g id="Node000005" class="node">
<title>Node5</title>
<g id="a_Node000005"><a xlink:href="../../d1/d4f/_rendering_shader_8h.html" target="_top" xlink:title=" ">
<polygon fill="white" stroke="#666666" points="336.88,-188 176.12,-188 176.12,-168 336.88,-168 336.88,-188"/>
<text text-anchor="middle" x="256.5" y="-174.5" font-family="Helvetica,sans-Serif" font-size="10.00">Core/Shaders/RenderingShader.h</text>
</a>
</g>
</g>
<!-- Node3&#45;&gt;Node5 -->
<g id="edge4_Node000003_Node000005" class="edge">
<title>Node3&#45;&gt;Node5</title>
<g id="a_edge4_Node000003_Node000005"><a xlink:title=" ">
<path fill="none" stroke="#63b8ff" d="M164.83,-223.59C181.92,-215.28 207.1,-203.03 226.75,-193.47"/>
<polygon fill="#63b8ff" stroke="#63b8ff" points="228.19,-196.66 235.65,-189.14 225.13,-190.37 228.19,-196.66"/>
</a>
</g>
</g>
<!-- Node9 -->
<g id="Node000009" class="node">
<title>Node9</title>
<g id="a_Node000009"><a xlink:href="../../de/dbf/_texture_8h.html" target="_top" xlink:title=" ">
<polygon fill="white" stroke="#666666" points="157.75,-188 101.25,-188 101.25,-168 157.75,-168 157.75,-188"/>
<text text-anchor="middle" x="129.5" y="-174.5" font-family="Helvetica,sans-Serif" font-size="10.00">Texture.h</text>
</a>
</g>
</g>
<!-- Node3&#45;&gt;Node9 -->
<g id="edge9_Node000003_Node000009" class="edge">
<title>Node3&#45;&gt;Node9</title>
<g id="a_edge9_Node000003_Node000009"><a xlink:title=" ">
<path fill="none" stroke="#63b8ff" d="M142.71,-223.59C140.72,-216.86 137.95,-207.53 135.47,-199.15"/>
<polygon fill="#63b8ff" stroke="#63b8ff" points="138.88,-198.34 132.69,-189.75 132.17,-200.33 138.88,-198.34"/>
</a>
</g>
</g>
<!-- Node6 -->
<g id="Node000006" class="node">
<title>Node6</title>
<g id="a_Node000006"><a xlink:href="../../d0/dbe/_shader_program_8h.html" target="_top" xlink:title=" ">
<polygon fill="white" stroke="#666666" points="298.38,-132 206.62,-132 206.62,-112 298.38,-112 298.38,-132"/>
<text text-anchor="middle" x="252.5" y="-118.5" font-family="Helvetica,sans-Serif" font-size="10.00">ShaderProgram.h</text>
</a>
</g>
</g>
<!-- Node5&#45;&gt;Node6 -->
<g id="edge5_Node000005_Node000006" class="edge">
<title>Node5&#45;&gt;Node6</title>
<g id="a_edge5_Node000005_Node000006"><a xlink:title=" ">
<path fill="none" stroke="#63b8ff" d="M255.8,-167.59C255.32,-161.01 254.65,-151.96 254.04,-143.73"/>
<polygon fill="#63b8ff" stroke="#63b8ff" points="257.53,-143.52 253.3,-133.81 250.55,-144.04 257.53,-143.52"/>
</a>
</g>
</g>
<!-- Node7 -->
<g id="Node000007" class="node">
<title>Node7</title>
<g id="a_Node000007"><a xlink:href="../../df/d2e/_shader_enums_8h.html" target="_top" xlink:title=" ">
<polygon fill="white" stroke="#666666" points="369.38,-76 283.62,-76 283.62,-56 369.38,-56 369.38,-76"/>
<text text-anchor="middle" x="326.5" y="-62.5" font-family="Helvetica,sans-Serif" font-size="10.00">ShaderEnums.h</text>
</a>
</g>
</g>
<!-- Node5&#45;&gt;Node7 -->
<g id="edge8_Node000005_Node000007" class="edge">
<title>Node5&#45;&gt;Node7</title>
<g id="a_edge8_Node000005_Node000007"><a xlink:title=" ">
<path fill="none" stroke="#63b8ff" d="M271.07,-167.61C282.55,-159.49 298.13,-146.75 307.5,-132 316.19,-118.33 321.03,-100.54 323.65,-87.03"/>
<polygon fill="#63b8ff" stroke="#63b8ff" points="327.03,-87.99 325.22,-77.56 320.13,-86.84 327.03,-87.99"/>
</a>
</g>
</g>
<!-- Node6&#45;&gt;Node7 -->
<g id="edge6_Node000006_Node000007" class="edge">
<title>Node6&#45;&gt;Node7</title>
<g id="a_edge6_Node000006_Node000007"><a xlink:title=" ">
<path fill="none" stroke="#63b8ff" d="M265.39,-111.59C276.21,-103.7 291.91,-92.24 304.69,-82.92"/>
<polygon fill="#63b8ff" stroke="#63b8ff" points="306.52,-85.91 312.54,-77.19 302.39,-80.26 306.52,-85.91"/>
</a>
</g>
</g>
<!-- Node8 -->
<g id="Node000008" class="node">
<title>Node8</title>
<g id="a_Node000008"><a xlink:title=" ">
<polygon fill="#e0e0e0" stroke="#999999" points="356.25,-20 296.75,-20 296.75,0 356.25,0 356.25,-20"/>
<text text-anchor="middle" x="326.5" y="-6.5" font-family="Helvetica,sans-Serif" font-size="10.00">GL/glew.h</text>
</a>
</g>
</g>
<!-- Node7&#45;&gt;Node8 -->
<g id="edge7_Node000007_Node000008" class="edge">
<title>Node7&#45;&gt;Node8</title>
<g id="a_edge7_Node000007_Node000008"><a xlink:title=" ">
<path fill="none" stroke="#63b8ff" d="M326.5,-55.59C326.5,-49.01 326.5,-39.96 326.5,-31.73"/>
<polygon fill="#63b8ff" stroke="#63b8ff" points="330,-31.81 326.5,-21.81 323,-31.81 330,-31.81"/>
</a>
</g>
</g>
<!-- Node9&#45;&gt;Node4 -->
<g id="edge10_Node000009_Node000004" class="edge">
<title>Node9&#45;&gt;Node4</title>
<g id="a_edge10_Node000009_Node000004"><a xlink:title=" ">
<path fill="none" stroke="#63b8ff" d="M114.35,-167.59C101.45,-159.59 82.67,-147.93 67.54,-138.54"/>
<polygon fill="#63b8ff" stroke="#63b8ff" points="69.4,-135.58 59.06,-133.28 65.71,-141.53 69.4,-135.58"/>
</a>
</g>
</g>
<!-- Node9&#45;&gt;Node6 -->
<g id="edge12_Node000009_Node000006" class="edge">
<title>Node9&#45;&gt;Node6</title>
<g id="a_edge12_Node000009_Node000006"><a xlink:title=" ">
<path fill="none" stroke="#63b8ff" d="M150.92,-167.59C170.12,-159.17 198.54,-146.69 220.44,-137.07"/>
<polygon fill="#63b8ff" stroke="#63b8ff" points="221.77,-140.31 229.52,-133.09 218.96,-133.9 221.77,-140.31"/>
</a>
</g>
</g>
<!-- Node10 -->
<g id="Node000010" class="node">
<title>Node10</title>
<g id="a_Node000010"><a xlink:href="../../d9/de5/_image_8h.html" target="_top" xlink:title=" ">
<polygon fill="white" stroke="#666666" points="188.38,-132 102.62,-132 102.62,-112 188.38,-112 188.38,-132"/>
<text text-anchor="middle" x="145.5" y="-118.5" font-family="Helvetica,sans-Serif" font-size="10.00">Utilities/Image.h</text>
</a>
</g>
</g>
<!-- Node9&#45;&gt;Node10 -->
<g id="edge11_Node000009_Node000010" class="edge">
<title>Node9&#45;&gt;Node10</title>
<g id="a_edge11_Node000009_Node000010"><a xlink:title=" ">
<path fill="none" stroke="#63b8ff" d="M132.29,-167.59C134.28,-160.86 137.05,-151.53 139.53,-143.15"/>
<polygon fill="#63b8ff" stroke="#63b8ff" points="142.83,-144.33 142.31,-133.75 136.12,-142.34 142.83,-144.33"/>
</a>
</g>
</g>
<!-- Node12&#45;&gt;Node7 -->
<g id="edge15_Node000012_Node000007" class="edge">
<title>Node12&#45;&gt;Node7</title>
<g id="a_edge15_Node000012_Node000007"><a xlink:title=" ">
<path fill="none" stroke="#63b8ff" d="M346.99,-279.56C347.93,-259.14 349.53,-209.4 345.5,-168 342.75,-139.76 336.09,-107.64 331.43,-87.35"/>
<polygon fill="#63b8ff" stroke="#63b8ff" points="334.9,-86.79 329.19,-77.86 328.08,-88.4 334.9,-86.79"/>
</a>
</g>
</g>
</g>
</svg>
</svg>

<style type='text/css'>
<![CDATA[
[data-mouse-over-selected='false'] { opacity: 0.7; }
[data-mouse-over-selected='true']  { opacity: 1.0; }
]]>
</style>
<script type="application/ecmascript"><![CDATA[
document.addEventListener('DOMContentLoaded', (event) => {
  highlightEdges();
  highlightAdjacentNodes();
});
]]></script>
</svg>
