<?xml version="1.0" encoding="UTF-8" standalone="no"?>
<!DOCTYPE svg PUBLIC "-//W3C//DTD SVG 1.1//EN"
 "http://www.w3.org/Graphics/SVG/1.1/DTD/svg11.dtd">
<!-- Generated by graphviz version 10.0.1 (20240210.2158)
 -->
<!-- Title: AABB::min Pages: 1 -->
<svg width="620pt" height="512pt"
 viewBox="0.00 0.00 619.50 512.00" xmlns="http://www.w3.org/2000/svg" xmlns:xlink="http://www.w3.org/1999/xlink">
<g id="graph0" class="graph" transform="scale(1 1) rotate(0) translate(4 508)">
<title>AABB::min</title>
<!-- Node1 -->
<g id="Node000001" class="node">
<title>Node1</title>
<g id="a_Node000001"><a xlink:title=" ">
<polygon fill="#999999" stroke="#666666" points="611.5,-310 546.75,-310 546.75,-290 611.5,-290 611.5,-310"/>
<text text-anchor="middle" x="579.12" y="-296.5" font-family="Helvetica,sans-Serif" font-size="10.00">AABB::min</text>
</a>
</g>
</g>
<!-- Node2 -->
<g id="Node000002" class="node">
<title>Node2</title>
<g id="a_Node000002"><a xlink:href="../../d9/d05/a01673.html#a866aada3b1653f447d9293e8065ad9df" target="_top" xlink:title=" ">
<polygon fill="white" stroke="#666666" points="481.12,-504 369.88,-504 369.88,-472 481.12,-472 481.12,-504"/>
<text text-anchor="start" x="377.88" y="-490.5" font-family="Helvetica,sans-Serif" font-size="10.00">GEU::ImageCloudProj</text>
<text text-anchor="middle" x="425.5" y="-478.5" font-family="Helvetica,sans-Serif" font-size="10.00">::applyStructureMask</text>
</a>
</g>
</g>
<!-- Node1&#45;&gt;Node2 -->
<g id="edge1_Node000001_Node000002" class="edge">
<title>Node1&#45;&gt;Node2</title>
<g id="a_edge1_Node000001_Node000002"><a xlink:title=" ">
<path fill="none" stroke="#63b8ff" d="M575.27,-321.26C569.48,-355.99 553.08,-424.84 510.75,-463 502.48,-470.46 492.07,-475.69 481.42,-479.37"/>
<polygon fill="#63b8ff" stroke="#63b8ff" points="578.69,-322.04 576.73,-311.63 571.77,-320.99 578.69,-322.04"/>
</a>
</g>
</g>
<!-- Node3 -->
<g id="Node000003" class="node">
<title>Node3</title>
<g id="a_Node000003"><a xlink:href="../../d9/d05/a01673.html#a6e7cb35807c450b23ab3917338910e97" target="_top" xlink:title=" ">
<polygon fill="white" stroke="#666666" points="483.38,-454 367.62,-454 367.62,-422 483.38,-422 483.38,-454"/>
<text text-anchor="start" x="375.62" y="-440.5" font-family="Helvetica,sans-Serif" font-size="10.00">GEU::ImageCloudProj</text>
<text text-anchor="middle" x="425.5" y="-428.5" font-family="Helvetica,sans-Serif" font-size="10.00">::applyVegetationMask</text>
</a>
</g>
</g>
<!-- Node1&#45;&gt;Node3 -->
<g id="edge2_Node000001_Node000003" class="edge">
<title>Node1&#45;&gt;Node3</title>
<g id="a_edge2_Node000001_Node000003"><a xlink:title=" ">
<path fill="none" stroke="#63b8ff" d="M570.21,-320.7C559.96,-344.88 539.9,-384.55 510.75,-408 502.77,-414.42 493.3,-419.53 483.64,-423.57"/>
<polygon fill="#63b8ff" stroke="#63b8ff" points="573.37,-322.2 573.88,-311.62 566.88,-319.58 573.37,-322.2"/>
</a>
</g>
</g>
<!-- Node4 -->
<g id="Node000004" class="node">
<title>Node4</title>
<g id="a_Node000004"><a xlink:href="../../de/d06/a01685.html#ab0c3b30380c1fd538c92fcea0e1e04d2" target="_top" xlink:title=" ">
<polygon fill="white" stroke="#666666" points="304.25,-315 172,-315 172,-283 304.25,-283 304.25,-315"/>
<text text-anchor="start" x="180" y="-301.5" font-family="Helvetica,sans-Serif" font-size="10.00">GEU::ProceduralGenerator</text>
<text text-anchor="middle" x="238.12" y="-289.5" font-family="Helvetica,sans-Serif" font-size="10.00">::computeNURBS</text>
</a>
</g>
</g>
<!-- Node1&#45;&gt;Node4 -->
<g id="edge3_Node000001_Node000004" class="edge">
<title>Node1&#45;&gt;Node4</title>
<g id="a_edge3_Node000001_Node000004"><a xlink:title=" ">
<path fill="none" stroke="#63b8ff" d="M566.98,-319.9C555.54,-338.08 535.87,-363.8 510.75,-375 441.54,-405.86 412.13,-399 340.25,-375 305.04,-363.25 272.25,-333.89 254.03,-315.29"/>
<polygon fill="#63b8ff" stroke="#63b8ff" points="569.86,-321.91 571.98,-311.53 563.85,-318.32 569.86,-321.91"/>
</a>
</g>
</g>
<!-- Node5 -->
<g id="Node000005" class="node">
<title>Node5</title>
<g id="a_Node000005"><a xlink:href="../../de/d06/a01685.html#a5fb6272591570506c14b2e194a9b3805" target="_top" xlink:title="Initialize the voxel grid.">
<polygon fill="white" stroke="#666666" points="491.62,-366 359.38,-366 359.38,-334 491.62,-334 491.62,-366"/>
<text text-anchor="start" x="367.38" y="-352.5" font-family="Helvetica,sans-Serif" font-size="10.00">GEU::ProceduralGenerator</text>
<text text-anchor="middle" x="425.5" y="-340.5" font-family="Helvetica,sans-Serif" font-size="10.00">::createVoxelGrid</text>
</a>
</g>
</g>
<!-- Node1&#45;&gt;Node5 -->
<g id="edge4_Node000001_Node000005" class="edge">
<title>Node1&#45;&gt;Node5</title>
<g id="a_edge4_Node000001_Node000005"><a xlink:title=" ">
<path fill="none" stroke="#63b8ff" d="M540.8,-314.35C531.07,-317.96 520.55,-321.73 510.75,-325 502.07,-327.9 492.82,-330.81 483.76,-333.57"/>
<polygon fill="#63b8ff" stroke="#63b8ff" points="541.83,-317.71 549.97,-310.92 539.38,-311.15 541.83,-317.71"/>
</a>
</g>
</g>
<!-- Node6 -->
<g id="Node000006" class="node">
<title>Node6</title>
<g id="a_Node000006"><a xlink:href="../../da/d00/a01689.html#a9aaf6de90f83739a93fa50ba8758c593" target="_top" xlink:title=" ">
<polygon fill="white" stroke="#666666" points="510.75,-316 340.25,-316 340.25,-284 510.75,-284 510.75,-316"/>
<text text-anchor="start" x="348.25" y="-302.5" font-family="Helvetica,sans-Serif" font-size="10.00">ProceduralVoxel::getRepresentative</text>
<text text-anchor="middle" x="425.5" y="-290.5" font-family="Helvetica,sans-Serif" font-size="10.00">Point</text>
</a>
</g>
</g>
<!-- Node1&#45;&gt;Node6 -->
<g id="edge5_Node000001_Node000006" class="edge">
<title>Node1&#45;&gt;Node6</title>
<g id="a_edge5_Node000001_Node000006"><a xlink:title=" ">
<path fill="none" stroke="#63b8ff" d="M534.95,-300C527.38,-300 519.28,-300 511.04,-300"/>
<polygon fill="#63b8ff" stroke="#63b8ff" points="534.83,-303.5 544.83,-300 534.83,-296.5 534.83,-303.5"/>
</a>
</g>
</g>
<!-- Node7 -->
<g id="Node000007" class="node">
<title>Node7</title>
<g id="a_Node000007"><a xlink:href="../../da/d00/a01689.html#a47404fa7e0f5a450f4675f058b8e6780" target="_top" xlink:title=" ">
<polygon fill="white" stroke="#666666" points="487.88,-266 363.12,-266 363.12,-234 487.88,-234 487.88,-266"/>
<text text-anchor="start" x="371.12" y="-252.5" font-family="Helvetica,sans-Serif" font-size="10.00">ProceduralVoxel::internal</text>
<text text-anchor="middle" x="425.5" y="-240.5" font-family="Helvetica,sans-Serif" font-size="10.00">Distribution</text>
</a>
</g>
</g>
<!-- Node1&#45;&gt;Node7 -->
<g id="edge6_Node000001_Node000007" class="edge">
<title>Node1&#45;&gt;Node7</title>
<g id="a_edge6_Node000001_Node000007"><a xlink:title=" ">
<path fill="none" stroke="#63b8ff" d="M540.8,-285.65C531.07,-282.04 520.55,-278.27 510.75,-275 502.07,-272.1 492.82,-269.19 483.76,-266.43"/>
<polygon fill="#63b8ff" stroke="#63b8ff" points="539.38,-288.85 549.97,-289.08 541.83,-282.29 539.38,-288.85"/>
</a>
</g>
</g>
<!-- Node8 -->
<g id="Node000008" class="node">
<title>Node8</title>
<g id="a_Node000008"><a xlink:href="../../df/d03/a01765.html#ad35f61717358ebd11631e5b8c5ed9ff9" target="_top" xlink:title="Makes and handles basic enabled and POS/ROT/SCL edit controls.">
<polygon fill="white" stroke="#666666" points="500.25,-216 350.75,-216 350.75,-184 500.25,-184 500.25,-216"/>
<text text-anchor="start" x="358.75" y="-202.5" font-family="Helvetica,sans-Serif" font-size="10.00">GEU::DetailsWindow</text>
<text text-anchor="middle" x="425.5" y="-190.5" font-family="Helvetica,sans-Serif" font-size="10.00">::makeBasicTransformControls</text>
</a>
</g>
</g>
<!-- Node1&#45;&gt;Node8 -->
<g id="edge7_Node000001_Node000008" class="edge">
<title>Node1&#45;&gt;Node8</title>
<g id="a_edge7_Node000001_Node000008"><a xlink:title=" ">
<path fill="none" stroke="#63b8ff" d="M565.37,-280.57C553.24,-263.56 533.51,-239.38 510.75,-225 505.59,-221.74 499.99,-218.89 494.2,-216.4"/>
<polygon fill="#63b8ff" stroke="#63b8ff" points="562.19,-282.12 570.74,-288.38 567.96,-278.15 562.19,-282.12"/>
</a>
</g>
</g>
<!-- Node9 -->
<g id="Node000009" class="node">
<title>Node9</title>
<g id="a_Node000009"><a xlink:href="../../de/d06/a01685.html#ab8413581fb4ba7ab9709a72bca03ce64" target="_top" xlink:title="Assign each point of the PointCloud to the corresponding voxel in the voxel grid and computes the cor...">
<polygon fill="white" stroke="#666666" points="491.62,-166 359.38,-166 359.38,-134 491.62,-134 491.62,-166"/>
<text text-anchor="start" x="367.38" y="-152.5" font-family="Helvetica,sans-Serif" font-size="10.00">GEU::ProceduralGenerator</text>
<text text-anchor="middle" x="425.5" y="-140.5" font-family="Helvetica,sans-Serif" font-size="10.00">::subdivideCloud</text>
</a>
</g>
</g>
<!-- Node1&#45;&gt;Node9 -->
<g id="edge8_Node000001_Node000009" class="edge">
<title>Node1&#45;&gt;Node9</title>
<g id="a_edge8_Node000001_Node000009"><a xlink:title=" ">
<path fill="none" stroke="#63b8ff" d="M572.36,-279.01C563.63,-251.16 544.41,-202.36 510.75,-175 505.07,-170.38 498.55,-166.62 491.72,-163.55"/>
<polygon fill="#63b8ff" stroke="#63b8ff" points="568.94,-279.8 575.13,-288.4 575.66,-277.82 568.94,-279.8"/>
</a>
</g>
</g>
<!-- Node10 -->
<g id="Node000010" class="node">
<title>Node10</title>
<g id="a_Node000010"><a xlink:href="../../db/d05/a01637.html#ac7df26fada02a660519ce8829eec1bf2" target="_top" xlink:title=" ">
<polygon fill="white" stroke="#666666" points="464.62,-98 386.38,-98 386.38,-78 464.62,-78 464.62,-98"/>
<text text-anchor="middle" x="425.5" y="-84.5" font-family="Helvetica,sans-Serif" font-size="10.00">AABB::update</text>
</a>
</g>
</g>
<!-- Node1&#45;&gt;Node10 -->
<g id="edge9_Node000001_Node000010" class="edge">
<title>Node1&#45;&gt;Node10</title>
<g id="a_edge9_Node000001_Node000010"><a xlink:title=" ">
<path fill="none" stroke="#63b8ff" d="M575.32,-278.8C569.51,-242.78 552.98,-169.23 510.75,-125 498.39,-112.06 480.72,-103.36 464.75,-97.67"/>
<polygon fill="#63b8ff" stroke="#63b8ff" points="571.81,-278.99 576.73,-288.37 578.74,-277.97 571.81,-278.99"/>
</a>
</g>
</g>
<!-- Node10&#45;&gt;Node4 -->
<g id="edge10_Node000010_Node000004" class="edge">
<title>Node10&#45;&gt;Node4</title>
<g id="a_edge10_Node000010_Node000004"><a xlink:title=" ">
<path fill="none" stroke="#63b8ff" d="M376.94,-102.74C364.05,-108.29 350.77,-115.6 340.25,-125 326.86,-136.96 269.81,-241.84 247.82,-282.75"/>
<polygon fill="#63b8ff" stroke="#63b8ff" points="378.21,-106 386.2,-99.04 375.62,-99.5 378.21,-106"/>
</a>
</g>
</g>
<!-- Node10&#45;&gt;Node10 -->
<g id="edge17_Node000010_Node000010" class="edge">
<title>Node10&#45;&gt;Node10</title>
<g id="a_edge17_Node000010_Node000010"><a xlink:title=" ">
<path fill="none" stroke="#63b8ff" d="M452.65,-109.44C449.15,-113.3 440.1,-116 425.5,-116 398.8,-116 390.66,-106.98 401.09,-98.34"/>
<polygon fill="#63b8ff" stroke="#63b8ff" points="456.07,-108.68 450.27,-99.81 449.27,-110.36 456.07,-108.68"/>
</a>
</g>
</g>
<!-- Node11 -->
<g id="Node000011" class="node">
<title>Node11</title>
<g id="a_Node000011"><a xlink:href="../../de/d05/a01821.html#a898e5f19fa3ef08a325e02d15e15532f" target="_top" xlink:title=" ">
<polygon fill="white" stroke="#666666" points="293,-170 183.25,-170 183.25,-138 293,-138 293,-170"/>
<text text-anchor="start" x="191.25" y="-156.5" font-family="Helvetica,sans-Serif" font-size="10.00">GEU::PickingWindow</text>
<text text-anchor="middle" x="238.12" y="-144.5" font-family="Helvetica,sans-Serif" font-size="10.00">::endPicking</text>
</a>
</g>
</g>
<!-- Node10&#45;&gt;Node11 -->
<g id="edge11_Node000010_Node000011" class="edge">
<title>Node10&#45;&gt;Node11</title>
<g id="a_edge11_Node000010_Node000011"><a xlink:title=" ">
<path fill="none" stroke="#63b8ff" d="M384.51,-102.24C355.37,-112.61 315.83,-126.69 285.34,-137.55"/>
<polygon fill="#63b8ff" stroke="#63b8ff" points="385.45,-105.62 393.7,-98.97 383.11,-99.02 385.45,-105.62"/>
</a>
</g>
</g>
<!-- Node12 -->
<g id="Node000012" class="node">
<title>Node12</title>
<g id="a_Node000012"><a xlink:href="../../d9/d00/a01909.html#ad9c308882e7e55a84874880c56515c92" target="_top" xlink:title=" ">
<polygon fill="white" stroke="#666666" points="135.25,-92 0.75,-92 0.75,-72 135.25,-72 135.25,-92"/>
<text text-anchor="middle" x="68" y="-78.5" font-family="Helvetica,sans-Serif" font-size="10.00">GEU::FileManager::loadPly</text>
</a>
</g>
</g>
<!-- Node10&#45;&gt;Node12 -->
<g id="edge12_Node000010_Node000012" class="edge">
<title>Node10&#45;&gt;Node12</title>
<g id="a_edge12_Node000010_Node000012"><a xlink:title=" ">
<path fill="none" stroke="#63b8ff" d="M374.65,-90.22C323.7,-92.11 242.3,-94.07 172,-91 160.25,-90.49 147.78,-89.65 135.71,-88.68"/>
<polygon fill="#63b8ff" stroke="#63b8ff" points="374.61,-93.72 384.47,-89.84 374.34,-86.73 374.61,-93.72"/>
</a>
</g>
</g>
<!-- Node13 -->
<g id="Node000013" class="node">
<title>Node13</title>
<g id="a_Node000013"><a xlink:href="../../d9/d02/a01569.html#ac3f1b02a743202ee74356c314a7f0ecd" target="_top" xlink:title=" ">
<polygon fill="white" stroke="#666666" points="291.5,-82 184.75,-82 184.75,-50 291.5,-50 291.5,-82"/>
<text text-anchor="start" x="192.75" y="-68.5" font-family="Helvetica,sans-Serif" font-size="10.00">GEU::TriangleMesh::</text>
<text text-anchor="middle" x="238.12" y="-56.5" font-family="Helvetica,sans-Serif" font-size="10.00">processMesh</text>
</a>
</g>
</g>
<!-- Node10&#45;&gt;Node13 -->
<g id="edge13_Node000010_Node000013" class="edge">
<title>Node10&#45;&gt;Node13</title>
<g id="a_edge13_Node000010_Node000013"><a xlink:title=" ">
<path fill="none" stroke="#63b8ff" d="M374.76,-82.1C349.15,-79.06 317.93,-75.35 291.9,-72.26"/>
<polygon fill="#63b8ff" stroke="#63b8ff" points="374.24,-85.56 384.59,-83.26 375.07,-78.61 374.24,-85.56"/>
</a>
</g>
</g>
<!-- Node14 -->
<g id="Node000014" class="node">
<title>Node14</title>
<g id="a_Node000014"><a xlink:href="../../db/d06/a01509.html#a2cb34ca60b228ed4e5472a8fa5590841" target="_top" xlink:title="Optimiza el orden de los puntos en la estructura de datos para mejorar la eficiencia del renderizado.">
<polygon fill="white" stroke="#666666" points="300.5,-32 175.75,-32 175.75,0 300.5,0 300.5,-32"/>
<text text-anchor="start" x="183.75" y="-18.5" font-family="Helvetica,sans-Serif" font-size="10.00">GEU::PointCloud::spatial</text>
<text text-anchor="middle" x="238.12" y="-6.5" font-family="Helvetica,sans-Serif" font-size="10.00">Ordering</text>
</a>
</g>
</g>
<!-- Node10&#45;&gt;Node14 -->
<g id="edge14_Node000010_Node000014" class="edge">
<title>Node10&#45;&gt;Node14</title>
<g id="a_edge14_Node000010_Node000014"><a xlink:title=" ">
<path fill="none" stroke="#63b8ff" d="M387.58,-73.5C363.8,-64.18 332.22,-51.83 304.25,-41 297.02,-38.2 289.34,-35.24 281.88,-32.37"/>
<polygon fill="#63b8ff" stroke="#63b8ff" points="386.25,-76.74 396.84,-77.13 388.8,-70.22 386.25,-76.74"/>
</a>
</g>
</g>
<!-- Node14&#45;&gt;Node12 -->
<g id="edge16_Node000014_Node000012" class="edge">
<title>Node14&#45;&gt;Node12</title>
<g id="a_edge16_Node000014_Node000012"><a xlink:title=" ">
<path fill="none" stroke="#63b8ff" d="M183.61,-36.48C179.68,-38.01 175.78,-39.52 172,-41 145.65,-51.3 115.6,-63.29 94.79,-71.63"/>
<polygon fill="#63b8ff" stroke="#63b8ff" points="184.53,-39.88 192.6,-33.01 182.01,-33.35 184.53,-39.88"/>
</a>
</g>
</g>
<!-- Node15 -->
<g id="Node000015" class="node">
<title>Node15</title>
<g id="a_Node000015"><a xlink:href="../../d9/d00/a01909.html#aebeb11b59981efb0536a7e57fe284120" target="_top" xlink:title=" ">
<polygon fill="white" stroke="#666666" points="136,-26 0,-26 0,-6 136,-6 136,-26"/>
<text text-anchor="middle" x="68" y="-12.5" font-family="Helvetica,sans-Serif" font-size="10.00">GEU::FileManager::loadLas</text>
</a>
</g>
</g>
<!-- Node14&#45;&gt;Node15 -->
<g id="edge15_Node000014_Node000015" class="edge">
<title>Node14&#45;&gt;Node15</title>
<g id="a_edge15_Node000014_Node000015"><a xlink:title=" ">
<path fill="none" stroke="#63b8ff" d="M164.27,-16C154.98,-16 145.5,-16 136.31,-16"/>
<polygon fill="#63b8ff" stroke="#63b8ff" points="163.96,-19.5 173.96,-16 163.96,-12.5 163.96,-19.5"/>
</a>
</g>
</g>
</g>
</svg>
