<?xml version="1.0" encoding="UTF-8" standalone="no"?>
<!DOCTYPE svg PUBLIC "-//W3C//DTD SVG 1.1//EN"
 "http://www.w3.org/Graphics/SVG/1.1/DTD/svg11.dtd">
<!-- Generated by graphviz version 10.0.1 (20240210.2158)
 -->
<!-- Title: GEU::PointCloud::getSubclouds Pages: 1 -->
<svg width="451pt" height="58pt"
 viewBox="0.00 0.00 450.50 58.00" xmlns="http://www.w3.org/2000/svg" xmlns:xlink="http://www.w3.org/1999/xlink">
<g id="graph0" class="graph" transform="scale(1 1) rotate(0) translate(4 54)">
<title>GEU::PointCloud::getSubclouds</title>
<!-- Node1 -->
<g id="Node000001" class="node">
<title>Node1</title>
<g id="a_Node000001"><a xlink:title="return all the subclouds in this cloud. If there isn&#39;t any subcloud, the vector will be empty.">
<polygon fill="#999999" stroke="#666666" points="442.5,-26 287,-26 287,-6 442.5,-6 442.5,-26"/>
<text text-anchor="middle" x="364.75" y="-12.5" font-family="Helvetica,sans-Serif" font-size="10.00">GEU::PointCloud::getSubclouds</text>
</a>
</g>
</g>
<!-- Node2 -->
<g id="Node000002" class="node">
<title>Node2</title>
<g id="a_Node000002"><a xlink:href="../../d6/d04/a02033.html#a5f2b290d502274f01fc3e9bdadfca50e" target="_top" xlink:title=" ">
<polygon fill="white" stroke="#666666" points="251,-32 143.5,-32 143.5,0 251,0 251,-32"/>
<text text-anchor="start" x="151.5" y="-18.5" font-family="Helvetica,sans-Serif" font-size="10.00">NormalesGUIAdapter</text>
<text text-anchor="middle" x="197.25" y="-6.5" font-family="Helvetica,sans-Serif" font-size="10.00">::normalComparison</text>
</a>
</g>
</g>
<!-- Node1&#45;&gt;Node2 -->
<g id="edge1_Node000001_Node000002" class="edge">
<title>Node1&#45;&gt;Node2</title>
<g id="a_edge1_Node000001_Node000002"><a xlink:title=" ">
<path fill="none" stroke="#63b8ff" d="M275.56,-16C267.32,-16 259.15,-16 251.38,-16"/>
<polygon fill="#63b8ff" stroke="#63b8ff" points="275.3,-19.5 285.3,-16 275.3,-12.5 275.3,-19.5"/>
</a>
</g>
</g>
<!-- Node2&#45;&gt;Node2 -->
<g id="edge2_Node000002_Node000002" class="edge">
<title>Node2&#45;&gt;Node2</title>
<g id="a_edge2_Node000002_Node000002"><a xlink:title=" ">
<path fill="none" stroke="#63b8ff" d="M221.16,-43.71C217.18,-47.48 209.21,-50 197.25,-50 175.39,-50 166.85,-41.58 171.63,-32.44"/>
<polygon fill="#63b8ff" stroke="#63b8ff" points="224.61,-44.35 222.64,-33.94 217.68,-43.3 224.61,-44.35"/>
</a>
</g>
</g>
<!-- Node3 -->
<g id="Node000003" class="node">
<title>Node3</title>
<g id="a_Node000003"><a xlink:href="../../d6/d04/a02033.html#ad27c678722407ed6f3d2bb41ccc2b640" target="_top" xlink:title="Custom module GUI window contents.">
<polygon fill="white" stroke="#666666" points="107.5,-32 0,-32 0,0 107.5,0 107.5,-32"/>
<text text-anchor="start" x="8" y="-18.5" font-family="Helvetica,sans-Serif" font-size="10.00">NormalesGUIAdapter</text>
<text text-anchor="middle" x="53.75" y="-6.5" font-family="Helvetica,sans-Serif" font-size="10.00">::renderGuiObject</text>
</a>
</g>
</g>
<!-- Node2&#45;&gt;Node3 -->
<g id="edge3_Node000002_Node000003" class="edge">
<title>Node2&#45;&gt;Node3</title>
<g id="a_edge3_Node000002_Node000003"><a xlink:title=" ">
<path fill="none" stroke="#63b8ff" d="M131.84,-16C123.75,-16 115.55,-16 107.67,-16"/>
<polygon fill="#63b8ff" stroke="#63b8ff" points="131.64,-19.5 141.64,-16 131.64,-12.5 131.64,-19.5"/>
</a>
</g>
</g>
</g>
</svg>
