<?xml version="1.0" encoding="UTF-8" standalone="no"?>
<!DOCTYPE svg PUBLIC "-//W3C//DTD SVG 1.1//EN"
 "http://www.w3.org/Graphics/SVG/1.1/DTD/svg11.dtd">
<!-- Generated by graphviz version 10.0.1 (20240210.2158)
 -->
<!-- Title: GEU::DebugWindow Pages: 1 -->
<svg width="362pt" height="401pt"
 viewBox="0.00 0.00 361.75 401.00" xmlns="http://www.w3.org/2000/svg" xmlns:xlink="http://www.w3.org/1999/xlink">
<g id="graph0" class="graph" transform="scale(1 1) rotate(0) translate(4 397)">
<title>GEU::DebugWindow</title>
<!-- Node1 -->
<g id="Node000001" class="node">
<title>Node1</title>
<g id="a_Node000001"><a xlink:title=" ">
<polygon fill="#999999" stroke="#666666" points="258.62,-20 153.38,-20 153.38,0 258.62,0 258.62,-20"/>
<text text-anchor="middle" x="206" y="-6.5" font-family="Helvetica,sans-Serif" font-size="10.00">GEU::DebugWindow</text>
</a>
</g>
</g>
<!-- Node2 -->
<g id="Node000002" class="node">
<title>Node2</title>
<g id="a_Node000002"><a xlink:href="../../d4/d01/a01797.html" target="_top" xlink:title="ImGUI window interface adapter class.">
<polygon fill="white" stroke="#666666" points="353.75,-206 252.25,-206 252.25,-186 353.75,-186 353.75,-206"/>
<text text-anchor="middle" x="303" y="-192.5" font-family="Helvetica,sans-Serif" font-size="10.00">GEU::I_GUIWindow</text>
</a>
</g>
</g>
<!-- Node2&#45;&gt;Node1 -->
<g id="edge1_Node000001_Node000002" class="edge">
<title>Node2&#45;&gt;Node1</title>
<g id="a_edge1_Node000001_Node000002"><a xlink:title=" ">
<path fill="none" stroke="#63b8ff" d="M299.13,-174.66C292.27,-142.84 275.54,-80.57 243,-38 237.59,-30.92 229.83,-24.87 222.82,-20.3"/>
<polygon fill="#63b8ff" stroke="#63b8ff" points="295.63,-175.01 301.05,-184.11 302.49,-173.62 295.63,-175.01"/>
</a>
</g>
</g>
<!-- Node3 -->
<g id="Node000003" class="node">
<title>Node3</title>
<g id="a_Node000003"><a xlink:title=" ">
<polygon fill="white" stroke="#666666" points="245.75,-324 186.25,-324 186.25,-304 245.75,-304 245.75,-324"/>
<text text-anchor="middle" x="216" y="-310.5" font-family="Helvetica,sans-Serif" font-size="10.00">std::string</text>
</a>
</g>
</g>
<!-- Node3&#45;&gt;Node2 -->
<g id="edge2_Node000002_Node000003" class="edge">
<title>Node3&#45;&gt;Node2</title>
<g id="a_edge2_Node000002_Node000003"><a xlink:title=" ">
<path fill="none" stroke="#9a32cd" stroke-dasharray="5,2" d="M246.25,-298.25C252.14,-294.68 258.02,-290.56 263,-286 287.25,-263.82 297.72,-224.15 301.37,-206.23"/>
<polygon fill="#9a32cd" stroke="#9a32cd" points="244.82,-295.04 237.82,-302.99 248.25,-301.14 244.82,-295.04"/>
</a>
</g>
<text text-anchor="middle" x="297.38" y="-276.5" font-family="Helvetica,sans-Serif" font-size="10.00" fill="grey"> _windowID</text>
</g>
<!-- Node7 -->
<g id="Node000007" class="node">
<title>Node7</title>
<g id="a_Node000007"><a xlink:href="../../d3/d03/a01549.html" target="_top" xlink:title=" ">
<polygon fill="white" stroke="#666666" points="187.62,-168 112.38,-168 112.38,-148 187.62,-148 187.62,-168"/>
<text text-anchor="middle" x="150" y="-154.5" font-family="Helvetica,sans-Serif" font-size="10.00">GEU::Texture</text>
</a>
</g>
</g>
<!-- Node3&#45;&gt;Node7 -->
<g id="edge7_Node000007_Node000003" class="edge">
<title>Node3&#45;&gt;Node7</title>
<g id="a_edge7_Node000007_Node000003"><a xlink:title=" ">
<path fill="none" stroke="#9a32cd" stroke-dasharray="5,2" d="M174.44,-312.24C133.65,-309 73.38,-297.02 43.75,-256 16.62,-218.44 84.59,-184.38 124.09,-168.47"/>
<polygon fill="#9a32cd" stroke="#9a32cd" points="174.19,-315.73 184.39,-312.87 174.63,-308.74 174.19,-315.73"/>
</a>
</g>
<text text-anchor="middle" x="96.12" y="-242.5" font-family="Helvetica,sans-Serif" font-size="10.00" fill="grey"> TEXTURE_LAYER_IDS</text>
<text text-anchor="middle" x="96.12" y="-230.5" font-family="Helvetica,sans-Serif" font-size="10.00" fill="grey">_filename</text>
</g>
<!-- Node8 -->
<g id="Node000008" class="node">
<title>Node8</title>
<g id="a_Node000008"><a xlink:title=" ">
<polygon fill="white" stroke="#666666" points="275,-256 157,-256 157,-224 275,-224 275,-256"/>
<text text-anchor="start" x="165" y="-242.5" font-family="Helvetica,sans-Serif" font-size="10.00">std::unordered_map</text>
<text text-anchor="middle" x="216" y="-230.5" font-family="Helvetica,sans-Serif" font-size="10.00">&lt; uint16_t, std::string &gt;</text>
</a>
</g>
</g>
<!-- Node3&#45;&gt;Node8 -->
<g id="edge9_Node000008_Node000003" class="edge">
<title>Node3&#45;&gt;Node8</title>
<g id="a_edge9_Node000008_Node000003"><a xlink:title=" ">
<path fill="none" stroke="#9a32cd" stroke-dasharray="5,2" d="M216,-292.1C216,-280.71 216,-266.87 216,-256.47"/>
<polygon fill="#9a32cd" stroke="#9a32cd" points="212.5,-292.07 216,-302.07 219.5,-292.07 212.5,-292.07"/>
</a>
</g>
<text text-anchor="middle" x="237.38" y="-276.5" font-family="Helvetica,sans-Serif" font-size="10.00" fill="grey"> elements</text>
</g>
<!-- Node4 -->
<g id="Node000004" class="node">
<title>Node4</title>
<g id="a_Node000004"><a xlink:title=" ">
<polygon fill="white" stroke="#666666" points="263,-393 169,-393 169,-361 263,-361 263,-393"/>
<text text-anchor="start" x="177" y="-379.5" font-family="Helvetica,sans-Serif" font-size="10.00">std::basic_string&lt;</text>
<text text-anchor="middle" x="216" y="-367.5" font-family="Helvetica,sans-Serif" font-size="10.00"> Char &gt;</text>
</a>
</g>
</g>
<!-- Node4&#45;&gt;Node3 -->
<g id="edge3_Node000003_Node000004" class="edge">
<title>Node4&#45;&gt;Node3</title>
<g id="a_edge3_Node000003_Node000004"><a xlink:title=" ">
<path fill="none" stroke="#63b8ff" d="M216,-349.36C216,-340.41 216,-331.01 216,-324.31"/>
<polygon fill="#63b8ff" stroke="#63b8ff" points="212.5,-349.09 216,-359.09 219.5,-349.09 212.5,-349.09"/>
</a>
</g>
</g>
<!-- Node5 -->
<g id="Node000005" class="node">
<title>Node5</title>
<g id="a_Node000005"><a xlink:href="../../d4/d02/a01405.html" target="_top" xlink:title=" ">
<polygon fill="white" stroke="#666666" points="197,-88 103,-88 103,-68 197,-68 197,-88"/>
<text text-anchor="middle" x="150" y="-74.5" font-family="Helvetica,sans-Serif" font-size="10.00">GEU::FBORender</text>
</a>
</g>
</g>
<!-- Node5&#45;&gt;Node1 -->
<g id="edge4_Node000001_Node000005" class="edge">
<title>Node5&#45;&gt;Node1</title>
<g id="a_edge4_Node000001_Node000005"><a xlink:title=" ">
<path fill="none" stroke="#9a32cd" stroke-dasharray="5,2" d="M165.37,-58.88C175.93,-46.44 189.51,-30.43 197.99,-20.44"/>
<polygon fill="#9a32cd" stroke="#9a32cd" points="162.8,-56.5 159,-66.39 168.14,-61.03 162.8,-56.5"/>
</a>
</g>
<text text-anchor="middle" x="211.75" y="-40.5" font-family="Helvetica,sans-Serif" font-size="10.00" fill="grey"> _renderFBO</text>
</g>
<!-- Node6 -->
<g id="Node000006" class="node">
<title>Node6</title>
<g id="a_Node000006"><a xlink:href="../../d7/d00/a01413.html" target="_top" xlink:title=" ">
<polygon fill="white" stroke="#666666" points="94,-168 0,-168 0,-148 94,-148 94,-168"/>
<text text-anchor="middle" x="47" y="-154.5" font-family="Helvetica,sans-Serif" font-size="10.00">GEU::Framebuffer</text>
</a>
</g>
</g>
<!-- Node6&#45;&gt;Node5 -->
<g id="edge5_Node000005_Node000006" class="edge">
<title>Node6&#45;&gt;Node5</title>
<g id="a_edge5_Node000005_Node000006"><a xlink:title=" ">
<path fill="none" stroke="#63b8ff" d="M68.27,-140.89C89.15,-125.08 120.29,-101.5 137.47,-88.49"/>
<polygon fill="#63b8ff" stroke="#63b8ff" points="66.29,-138 60.43,-146.83 70.51,-143.59 66.29,-138"/>
</a>
</g>
</g>
<!-- Node7&#45;&gt;Node5 -->
<g id="edge6_Node000005_Node000007" class="edge">
<title>Node7&#45;&gt;Node5</title>
<g id="a_edge6_Node000005_Node000007"><a xlink:title=" ">
<path fill="none" stroke="#9a32cd" stroke-dasharray="5,2" d="M150,-136.59C150,-120.94 150,-100.08 150,-88.24"/>
<polygon fill="#9a32cd" stroke="#9a32cd" points="146.5,-136.23 150,-146.23 153.5,-136.23 146.5,-136.23"/>
</a>
</g>
<text text-anchor="middle" x="189.75" y="-120.5" font-family="Helvetica,sans-Serif" font-size="10.00" fill="grey"> _colorAttachment</text>
<text text-anchor="middle" x="189.75" y="-108.5" font-family="Helvetica,sans-Serif" font-size="10.00" fill="grey">_depthAttachment</text>
</g>
<!-- Node8&#45;&gt;Node7 -->
<g id="edge8_Node000007_Node000008" class="edge">
<title>Node8&#45;&gt;Node7</title>
<g id="a_edge8_Node000007_Node000008"><a xlink:title=" ">
<path fill="none" stroke="#9a32cd" stroke-dasharray="5,2" d="M155.89,-216.95C152.16,-213.77 148.87,-210.14 146.25,-206 139.07,-194.66 142.63,-178.56 146.11,-168.45"/>
<polygon fill="#9a32cd" stroke="#9a32cd" points="153.82,-219.77 164,-222.71 157.87,-214.07 153.82,-219.77"/>
</a>
</g>
<text text-anchor="middle" x="195.38" y="-192.5" font-family="Helvetica,sans-Serif" font-size="10.00" fill="grey"> SHADER_VARIABLE</text>
</g>
</g>
</svg>
