<?xml version="1.0" encoding="UTF-8" standalone="no"?>
<!DOCTYPE svg PUBLIC "-//W3C//DTD SVG 1.1//EN"
 "http://www.w3.org/Graphics/SVG/1.1/DTD/svg11.dtd">
<!-- Generated by graphviz version 10.0.1 (20240210.2158)
 -->
<!-- Title: GEU::DatabaseQueryDatoPopup::renderPopup Pages: 1 -->
<svg width="924pt" height="810pt"
 viewBox="0.00 0.00 924.25 809.84" xmlns="http://www.w3.org/2000/svg" xmlns:xlink="http://www.w3.org/1999/xlink">
<g id="graph0" class="graph" transform="scale(1 1) rotate(0) translate(4 805.84)">
<title>GEU::DatabaseQueryDatoPopup::renderPopup</title>
<!-- Node1 -->
<g id="Node000001" class="node">
<title>Node1</title>
<g id="a_Node000001"><a xlink:title="Renders the popup and its contents.">
<polygon fill="#999999" stroke="#666666" points="158.5,-420 0,-420 0,-388 158.5,-388 158.5,-420"/>
<text text-anchor="start" x="8" y="-406.5" font-family="Helvetica,sans-Serif" font-size="10.00">GEU::DatabaseQueryDatoPopup</text>
<text text-anchor="middle" x="79.25" y="-394.5" font-family="Helvetica,sans-Serif" font-size="10.00">::renderPopup</text>
</a>
</g>
</g>
<!-- Node2 -->
<g id="Node000002" class="node">
<title>Node2</title>
<g id="a_Node000002"><a xlink:href="../../d3/d07/namespace_g_e_u_1_1_gui_utilities.html#a95d5f616a34dd70aca4886e546720966" target="_top" xlink:title=" ">
<polygon fill="white" stroke="#666666" points="321.88,-608 225.62,-608 225.62,-576 321.88,-576 321.88,-608"/>
<text text-anchor="start" x="233.62" y="-594.5" font-family="Helvetica,sans-Serif" font-size="10.00">GEU::GuiUtilities::</text>
<text text-anchor="middle" x="273.75" y="-582.5" font-family="Helvetica,sans-Serif" font-size="10.00">BeginCombo</text>
</a>
</g>
</g>
<!-- Node1&#45;&gt;Node2 -->
<g id="edge1_Node000001_Node000002" class="edge">
<title>Node1&#45;&gt;Node2</title>
<g id="a_edge1_Node000001_Node000002"><a xlink:title=" ">
<path fill="none" stroke="#63b8ff" d="M87.26,-420.3C102.15,-453.01 140.08,-526.96 194.5,-567 200.6,-571.49 207.53,-575.19 214.69,-578.23"/>
<polygon fill="#63b8ff" stroke="#63b8ff" points="213.26,-581.44 223.86,-581.71 215.75,-574.89 213.26,-581.44"/>
</a>
</g>
</g>
<!-- Node5 -->
<g id="Node000005" class="node">
<title>Node5</title>
<g id="a_Node000005"><a xlink:href="../../d3/d07/namespace_g_e_u_1_1_gui_utilities.html#ada3ff320fe0e01b53fb7543b923b45a8" target="_top" xlink:title=" ">
<polygon fill="white" stroke="#666666" points="694,-716 597.75,-716 597.75,-684 694,-684 694,-716"/>
<text text-anchor="start" x="605.75" y="-702.5" font-family="Helvetica,sans-Serif" font-size="10.00">GEU::GuiUtilities::</text>
<text text-anchor="middle" x="645.88" y="-690.5" font-family="Helvetica,sans-Serif" font-size="10.00">BeginTableDato</text>
</a>
</g>
</g>
<!-- Node1&#45;&gt;Node5 -->
<g id="edge4_Node000001_Node000005" class="edge">
<title>Node1&#45;&gt;Node5</title>
<g id="a_edge4_Node000001_Node000005"><a xlink:title=" ">
<path fill="none" stroke="#63b8ff" d="M81.69,-420.22C86.87,-467.63 109.03,-606.36 194.5,-667 312.35,-750.61 493.96,-730.93 586.43,-713.36"/>
<polygon fill="#63b8ff" stroke="#63b8ff" points="586.9,-716.83 596.04,-711.47 585.55,-709.96 586.9,-716.83"/>
</a>
</g>
</g>
<!-- Node6 -->
<g id="Node000006" class="node">
<title>Node6</title>
<g id="a_Node000006"><a xlink:href="../../d1/d01/class_g_e_u_1_1_singleton.html#a47c7e7c2110f4cc59c9ff1f5594c366e" target="_top" xlink:title=" ">
<polygon fill="white" stroke="#666666" points="916.25,-694 764.5,-694 764.5,-662 916.25,-662 916.25,-694"/>
<text text-anchor="start" x="772.5" y="-680.5" font-family="Helvetica,sans-Serif" font-size="10.00">GEU::Singleton&lt; LocaleStrings</text>
<text text-anchor="middle" x="840.38" y="-668.5" font-family="Helvetica,sans-Serif" font-size="10.00"> &gt;::getInstance</text>
</a>
</g>
</g>
<!-- Node1&#45;&gt;Node6 -->
<g id="edge25_Node000001_Node000006" class="edge">
<title>Node1&#45;&gt;Node6</title>
<g id="a_edge25_Node000001_Node000006"><a xlink:title=" ">
<path fill="none" stroke="#63b8ff" d="M80.99,-420.37C84.23,-471.61 101.58,-627.89 194.5,-700 382.08,-845.57 496.42,-766.17 728.5,-716 746.19,-712.18 764.58,-705.57 781.19,-698.84"/>
<polygon fill="#63b8ff" stroke="#63b8ff" points="782.53,-702.07 790.43,-695.01 779.85,-695.61 782.53,-702.07"/>
</a>
</g>
</g>
<!-- Node1&#45;&gt;Node6 -->
<g id="edge26_Node000001_Node000006" class="edge">
<title>Node1&#45;&gt;Node6</title>
<g id="a_edge26_Node000001_Node000006"><a xlink:title=" ">
<path fill="none" stroke="#63b8ff" d="M80.6,-420.24C82.67,-473.62 96.89,-642.25 194.5,-718 382.08,-863.57 496.42,-784.17 728.5,-734 758.31,-727.56 790.16,-713.19 812.03,-700.36"/>
<polygon fill="#63b8ff" stroke="#63b8ff" points="813.68,-703.46 820.34,-695.22 810,-697.51 813.68,-703.46"/>
</a>
</g>
</g>
<!-- Node7 -->
<g id="Node000007" class="node">
<title>Node7</title>
<g id="a_Node000007"><a xlink:href="../../d3/d07/namespace_g_e_u_1_1_gui_utilities.html#af94965eb0ce2f4e1e5ee22fd33bf4574" target="_top" xlink:title=" ">
<polygon fill="white" stroke="#666666" points="321.88,-508 225.62,-508 225.62,-476 321.88,-476 321.88,-508"/>
<text text-anchor="start" x="233.62" y="-494.5" font-family="Helvetica,sans-Serif" font-size="10.00">GEU::GuiUtilities::</text>
<text text-anchor="middle" x="273.75" y="-482.5" font-family="Helvetica,sans-Serif" font-size="10.00">BeginTableZona</text>
</a>
</g>
</g>
<!-- Node1&#45;&gt;Node7 -->
<g id="edge6_Node000001_Node000007" class="edge">
<title>Node1&#45;&gt;Node7</title>
<g id="a_edge6_Node000001_Node000007"><a xlink:title=" ">
<path fill="none" stroke="#63b8ff" d="M110.39,-420.38C133.19,-432.5 165.43,-449.09 194.5,-462 201.73,-465.21 209.42,-468.41 217.05,-471.46"/>
<polygon fill="#63b8ff" stroke="#63b8ff" points="215.74,-474.71 226.32,-475.1 218.29,-468.19 215.74,-474.71"/>
</a>
</g>
</g>
<!-- Node8 -->
<g id="Node000008" class="node">
<title>Node8</title>
<g id="a_Node000008"><a xlink:href="../../d3/d07/namespace_g_e_u_1_1_gui_utilities.html#a4a9fd6dae16881311edd3998ece123bf" target="_top" xlink:title=" ">
<polygon fill="white" stroke="#666666" points="321.88,-332 225.62,-332 225.62,-300 321.88,-300 321.88,-332"/>
<text text-anchor="start" x="233.62" y="-318.5" font-family="Helvetica,sans-Serif" font-size="10.00">GEU::GuiUtilities::</text>
<text text-anchor="middle" x="273.75" y="-306.5" font-family="Helvetica,sans-Serif" font-size="10.00">Button</text>
</a>
</g>
</g>
<!-- Node1&#45;&gt;Node8 -->
<g id="edge9_Node000001_Node000008" class="edge">
<title>Node1&#45;&gt;Node8</title>
<g id="a_edge9_Node000001_Node000008"><a xlink:title=" ">
<path fill="none" stroke="#63b8ff" d="M110.39,-387.62C133.19,-375.5 165.43,-358.91 194.5,-346 201.73,-342.79 209.42,-339.59 217.05,-336.54"/>
<polygon fill="#63b8ff" stroke="#63b8ff" points="218.29,-339.81 226.32,-332.9 215.74,-333.29 218.29,-339.81"/>
</a>
</g>
</g>
<!-- Node9 -->
<g id="Node000009" class="node">
<title>Node9</title>
<g id="a_Node000009"><a xlink:href="../../d3/d07/namespace_g_e_u_1_1_gui_utilities.html#a8cd6e1ec53dc192ed4c4d3867e35edc7" target="_top" xlink:title=" ">
<polygon fill="white" stroke="#666666" points="321.88,-282 225.62,-282 225.62,-250 321.88,-250 321.88,-282"/>
<text text-anchor="start" x="233.62" y="-268.5" font-family="Helvetica,sans-Serif" font-size="10.00">GEU::GuiUtilities::</text>
<text text-anchor="middle" x="273.75" y="-256.5" font-family="Helvetica,sans-Serif" font-size="10.00">Checkbox</text>
</a>
</g>
</g>
<!-- Node1&#45;&gt;Node9 -->
<g id="edge10_Node000001_Node000009" class="edge">
<title>Node1&#45;&gt;Node9</title>
<g id="a_edge10_Node000001_Node000009"><a xlink:title=" ">
<path fill="none" stroke="#63b8ff" d="M92.48,-387.73C111.65,-363.32 151.07,-317.3 194.5,-291 200.81,-287.18 207.77,-283.88 214.85,-281.05"/>
<polygon fill="#63b8ff" stroke="#63b8ff" points="215.65,-284.48 223.83,-277.75 213.24,-277.91 215.65,-284.48"/>
</a>
</g>
</g>
<!-- Node10 -->
<g id="Node000010" class="node">
<title>Node10</title>
<g id="a_Node000010"><a xlink:href="../../d3/d07/namespace_g_e_u_1_1_gui_utilities.html#a45648c2d9672ec5d0539ae9577e0b02b" target="_top" xlink:title=" ">
<polygon fill="white" stroke="#666666" points="324.88,-558 222.62,-558 222.62,-526 324.88,-526 324.88,-558"/>
<text text-anchor="start" x="230.62" y="-544.5" font-family="Helvetica,sans-Serif" font-size="10.00">GEU::GuiUtilities::</text>
<text text-anchor="middle" x="273.75" y="-532.5" font-family="Helvetica,sans-Serif" font-size="10.00">DatabaseQueryText</text>
</a>
</g>
</g>
<!-- Node1&#45;&gt;Node10 -->
<g id="edge11_Node000001_Node000010" class="edge">
<title>Node1&#45;&gt;Node10</title>
<g id="a_edge11_Node000001_Node000010"><a xlink:title=" ">
<path fill="none" stroke="#63b8ff" d="M92.48,-420.27C111.65,-444.68 151.07,-490.7 194.5,-517 199.97,-520.31 205.93,-523.23 212.03,-525.79"/>
<polygon fill="#63b8ff" stroke="#63b8ff" points="210.37,-528.91 220.96,-529.23 212.89,-522.38 210.37,-528.91"/>
</a>
</g>
</g>
<!-- Node12 -->
<g id="Node000012" class="node">
<title>Node12</title>
<g id="a_Node000012"><a xlink:href="../../d3/d07/namespace_g_e_u_1_1_gui_utilities.html#ace4bb8c12a9996fe8f1a3b4cb21bff1d" target="_top" xlink:title=" ">
<polygon fill="white" stroke="#666666" points="321.88,-658 225.62,-658 225.62,-626 321.88,-626 321.88,-658"/>
<text text-anchor="start" x="233.62" y="-644.5" font-family="Helvetica,sans-Serif" font-size="10.00">GEU::GuiUtilities::</text>
<text text-anchor="middle" x="273.75" y="-632.5" font-family="Helvetica,sans-Serif" font-size="10.00">DatePicker</text>
</a>
</g>
</g>
<!-- Node1&#45;&gt;Node12 -->
<g id="edge14_Node000001_Node000012" class="edge">
<title>Node1&#45;&gt;Node12</title>
<g id="a_edge14_Node000001_Node000012"><a xlink:title=" ">
<path fill="none" stroke="#63b8ff" d="M84.41,-420.31C95.38,-460.01 128.85,-562.39 194.5,-617 200.54,-622.02 207.6,-626.04 214.96,-629.25"/>
<polygon fill="#63b8ff" stroke="#63b8ff" points="213.49,-632.44 224.08,-632.74 215.99,-625.9 213.49,-632.44"/>
</a>
</g>
</g>
<!-- Node17 -->
<g id="Node000017" class="node">
<title>Node17</title>
<g id="a_Node000017"><a xlink:href="../../df/d05/class_g_e_u_1_1_i___g_u_i_popup.html#abdcc20870710b60595e8777b9fd796ed" target="_top" xlink:title=" ">
<polygon fill="white" stroke="#666666" points="715.75,-436 576,-436 576,-416 715.75,-416 715.75,-436"/>
<text text-anchor="middle" x="645.88" y="-422.5" font-family="Helvetica,sans-Serif" font-size="10.00">GEU::I_GUIPopup::getIdTitle</text>
</a>
</g>
</g>
<!-- Node1&#45;&gt;Node17 -->
<g id="edge22_Node000001_Node000017" class="edge">
<title>Node1&#45;&gt;Node17</title>
<g id="a_edge22_Node000001_Node000017"><a xlink:title=" ">
<path fill="none" stroke="#63b8ff" d="M143.9,-420.47C160.28,-424 177.95,-427.21 194.5,-429 323.29,-442.93 473.99,-437.57 564.32,-432.06"/>
<polygon fill="#63b8ff" stroke="#63b8ff" points="564.3,-435.57 574.06,-431.45 563.86,-428.58 564.3,-435.57"/>
</a>
</g>
</g>
<!-- Node18 -->
<g id="Node000018" class="node">
<title>Node18</title>
<g id="a_Node000018"><a xlink:href="../../d2/d04/class_locale_strings.html#ac66087ac25e72051ea7b5bf3d00dd71f" target="_top" xlink:title=" ">
<polygon fill="white" stroke="#666666" points="900.5,-392 780.25,-392 780.25,-372 900.5,-372 900.5,-392"/>
<text text-anchor="middle" x="840.38" y="-378.5" font-family="Helvetica,sans-Serif" font-size="10.00">LocaleStrings::getString</text>
</a>
</g>
</g>
<!-- Node1&#45;&gt;Node18 -->
<g id="edge27_Node000001_Node000018" class="edge">
<title>Node1&#45;&gt;Node18</title>
<g id="a_edge27_Node000001_Node000018"><a xlink:title=" ">
<path fill="none" stroke="#63b8ff" d="M143.9,-387.53C160.28,-384 177.95,-380.79 194.5,-379 402.14,-356.55 649.58,-368.41 768.57,-376.5"/>
<polygon fill="#63b8ff" stroke="#63b8ff" points="768.29,-379.99 778.51,-377.19 768.78,-373 768.29,-379.99"/>
</a>
</g>
</g>
<!-- Node19 -->
<g id="Node000019" class="node">
<title>Node19</title>
<g id="a_Node000019"><a xlink:href="../../dc/d00/class_g_e_u_1_1_database_query_dato_popup.html#a436f289602a2779121408fbddb0cd113" target="_top" xlink:title=" ">
<polygon fill="white" stroke="#666666" points="353,-420 194.5,-420 194.5,-388 353,-388 353,-420"/>
<text text-anchor="start" x="202.5" y="-406.5" font-family="Helvetica,sans-Serif" font-size="10.00">GEU::DatabaseQueryDatoPopup</text>
<text text-anchor="middle" x="273.75" y="-394.5" font-family="Helvetica,sans-Serif" font-size="10.00">::handleConfirmPopup</text>
</a>
</g>
</g>
<!-- Node1&#45;&gt;Node19 -->
<g id="edge28_Node000001_Node000019" class="edge">
<title>Node1&#45;&gt;Node19</title>
<g id="a_edge28_Node000001_Node000019"><a xlink:title=" ">
<path fill="none" stroke="#63b8ff" d="M158.82,-404C166.74,-404 174.82,-404 182.84,-404"/>
<polygon fill="#63b8ff" stroke="#63b8ff" points="182.6,-407.5 192.6,-404 182.6,-400.5 182.6,-407.5"/>
</a>
</g>
</g>
<!-- Node21 -->
<g id="Node000021" class="node">
<title>Node21</title>
<g id="a_Node000021"><a xlink:href="../../dc/d00/class_g_e_u_1_1_database_query_dato_popup.html#aad368de500dca0ef4c890aee6c20aa8d" target="_top" xlink:title=" ">
<polygon fill="white" stroke="#666666" points="353,-232 194.5,-232 194.5,-200 353,-200 353,-232"/>
<text text-anchor="start" x="202.5" y="-218.5" font-family="Helvetica,sans-Serif" font-size="10.00">GEU::DatabaseQueryDatoPopup</text>
<text text-anchor="middle" x="273.75" y="-206.5" font-family="Helvetica,sans-Serif" font-size="10.00">::handleZonaQueryPopup</text>
</a>
</g>
</g>
<!-- Node1&#45;&gt;Node21 -->
<g id="edge31_Node000001_Node000021" class="edge">
<title>Node1&#45;&gt;Node21</title>
<g id="a_edge31_Node000001_Node000021"><a xlink:title=" ">
<path fill="none" stroke="#63b8ff" d="M87.26,-387.7C102.15,-354.99 140.08,-281.04 194.5,-241 196.04,-239.87 197.63,-238.78 199.27,-237.75"/>
<polygon fill="#63b8ff" stroke="#63b8ff" points="200.68,-240.97 207.73,-233.06 197.28,-234.85 200.68,-240.97"/>
</a>
</g>
</g>
<!-- Node23 -->
<g id="Node000023" class="node">
<title>Node23</title>
<g id="a_Node000023"><a xlink:href="../../d1/d01/class_database_connector.html#adacdaa0b6505fb94120265d3ae37e37e" target="_top" xlink:title=" ">
<polygon fill="white" stroke="#666666" points="330.5,-182 217,-182 217,-150 330.5,-150 330.5,-182"/>
<text text-anchor="start" x="225" y="-168.5" font-family="Helvetica,sans-Serif" font-size="10.00">DatabaseConnector::</text>
<text text-anchor="middle" x="273.75" y="-156.5" font-family="Helvetica,sans-Serif" font-size="10.00">queryAsyncDatoCrudo</text>
</a>
</g>
</g>
<!-- Node1&#45;&gt;Node23 -->
<g id="edge33_Node000001_Node000023" class="edge">
<title>Node1&#45;&gt;Node23</title>
<g id="a_edge33_Node000001_Node000023"><a xlink:title=" ">
<path fill="none" stroke="#63b8ff" d="M84.41,-387.69C95.38,-347.99 128.85,-245.61 194.5,-191 198.14,-187.97 202.15,-185.31 206.37,-182.97"/>
<polygon fill="#63b8ff" stroke="#63b8ff" points="207.69,-186.22 215.18,-178.73 204.65,-179.91 207.69,-186.22"/>
</a>
</g>
</g>
<!-- Node24 -->
<g id="Node000024" class="node">
<title>Node24</title>
<g id="a_Node000024"><a xlink:href="../../dc/d00/class_g_e_u_1_1_database_query_dato_popup.html#a66cced7564861abf4e46a79985f1f73f" target="_top" xlink:title=" ">
<polygon fill="white" stroke="#666666" points="353,-132 194.5,-132 194.5,-100 353,-100 353,-132"/>
<text text-anchor="start" x="202.5" y="-118.5" font-family="Helvetica,sans-Serif" font-size="10.00">GEU::DatabaseQueryDatoPopup</text>
<text text-anchor="middle" x="273.75" y="-106.5" font-family="Helvetica,sans-Serif" font-size="10.00">::resetFilters</text>
</a>
</g>
</g>
<!-- Node1&#45;&gt;Node24 -->
<g id="edge34_Node000001_Node000024" class="edge">
<title>Node1&#45;&gt;Node24</title>
<g id="a_edge34_Node000001_Node000024"><a xlink:title=" ">
<path fill="none" stroke="#63b8ff" d="M82.58,-387.72C90.01,-341.92 117.32,-210.78 194.5,-141 195.29,-140.29 196.09,-139.6 196.92,-138.93"/>
<polygon fill="#63b8ff" stroke="#63b8ff" points="198.86,-141.84 205.14,-133.31 194.91,-136.06 198.86,-141.84"/>
</a>
</g>
</g>
<!-- Node25 -->
<g id="Node000025" class="node">
<title>Node25</title>
<g id="a_Node000025"><a xlink:href="../../d3/d07/namespace_g_e_u_1_1_gui_utilities.html#ab5bd8ee6ec7674dc502b5330d41beadf" target="_top" xlink:title=" ">
<polygon fill="white" stroke="#666666" points="321.88,-82 225.62,-82 225.62,-50 321.88,-50 321.88,-82"/>
<text text-anchor="start" x="233.62" y="-68.5" font-family="Helvetica,sans-Serif" font-size="10.00">GEU::GuiUtilities::</text>
<text text-anchor="middle" x="273.75" y="-56.5" font-family="Helvetica,sans-Serif" font-size="10.00">Selectable</text>
</a>
</g>
</g>
<!-- Node1&#45;&gt;Node25 -->
<g id="edge35_Node000001_Node000025" class="edge">
<title>Node1&#45;&gt;Node25</title>
<g id="a_edge35_Node000001_Node000025"><a xlink:title=" ">
<path fill="none" stroke="#63b8ff" d="M81.31,-387.7C85.55,-336.35 105.62,-176.33 194.5,-91 200.23,-85.5 207.18,-81.2 214.54,-77.85"/>
<polygon fill="#63b8ff" stroke="#63b8ff" points="215.68,-81.17 223.72,-74.27 213.14,-74.65 215.68,-81.17"/>
</a>
</g>
</g>
<!-- Node26 -->
<g id="Node000026" class="node">
<title>Node26</title>
<g id="a_Node000026"><a xlink:href="../../d3/d07/namespace_g_e_u_1_1_gui_utilities.html#ae4d14264e67621c5997464e18c781ea0" target="_top" xlink:title=" ">
<polygon fill="white" stroke="#666666" points="321.88,-32 225.62,-32 225.62,0 321.88,0 321.88,-32"/>
<text text-anchor="start" x="233.62" y="-18.5" font-family="Helvetica,sans-Serif" font-size="10.00">GEU::GuiUtilities::</text>
<text text-anchor="middle" x="273.75" y="-6.5" font-family="Helvetica,sans-Serif" font-size="10.00">SeparatorText</text>
</a>
</g>
</g>
<!-- Node1&#45;&gt;Node26 -->
<g id="edge36_Node000001_Node000026" class="edge">
<title>Node1&#45;&gt;Node26</title>
<g id="a_edge36_Node000001_Node000026"><a xlink:title=" ">
<path fill="none" stroke="#63b8ff" d="M80.37,-387.59C81.7,-331.03 93.81,-142.13 194.5,-41 200.18,-35.3 207.15,-30.9 214.58,-27.5"/>
<polygon fill="#63b8ff" stroke="#63b8ff" points="215.83,-30.77 223.87,-23.88 213.29,-24.24 215.83,-30.77"/>
</a>
</g>
</g>
<!-- Node3 -->
<g id="Node000003" class="node">
<title>Node3</title>
<g id="a_Node000003"><a xlink:href="../../d3/d07/namespace_g_e_u_1_1_gui_utilities.html#a93d270e10057bb4a04b130a9e20301e2" target="_top" xlink:title=" ">
<polygon fill="white" stroke="#666666" points="508.5,-634 407.75,-634 407.75,-602 508.5,-602 508.5,-634"/>
<text text-anchor="start" x="415.75" y="-620.5" font-family="Helvetica,sans-Serif" font-size="10.00">GEU::GuiUtilities::</text>
<text text-anchor="middle" x="458.12" y="-608.5" font-family="Helvetica,sans-Serif" font-size="10.00">NextItemFillColumn</text>
</a>
</g>
</g>
<!-- Node2&#45;&gt;Node3 -->
<g id="edge2_Node000002_Node000003" class="edge">
<title>Node2&#45;&gt;Node3</title>
<g id="a_edge2_Node000002_Node000003"><a xlink:title=" ">
<path fill="none" stroke="#63b8ff" d="M322.19,-598.76C344.79,-601.98 372.08,-605.88 396.19,-609.31"/>
<polygon fill="#63b8ff" stroke="#63b8ff" points="395.48,-612.75 405.87,-610.69 396.47,-605.82 395.48,-612.75"/>
</a>
</g>
</g>
<!-- Node4 -->
<g id="Node000004" class="node">
<title>Node4</title>
<g id="a_Node000004"><a xlink:href="../../d3/d07/namespace_g_e_u_1_1_gui_utilities.html#a76a49056660c5a9246a94564afbb676a" target="_top" xlink:title=" ">
<polygon fill="white" stroke="#666666" points="515.62,-584 400.62,-584 400.62,-564 515.62,-564 515.62,-584"/>
<text text-anchor="middle" x="458.12" y="-570.5" font-family="Helvetica,sans-Serif" font-size="10.00">GEU::GuiUtilities::Text</text>
</a>
</g>
</g>
<!-- Node2&#45;&gt;Node4 -->
<g id="edge3_Node000002_Node000004" class="edge">
<title>Node2&#45;&gt;Node4</title>
<g id="a_edge3_Node000002_Node000004"><a xlink:title=" ">
<path fill="none" stroke="#63b8ff" d="M322.19,-587.32C342.5,-585.31 366.61,-582.93 388.79,-580.74"/>
<polygon fill="#63b8ff" stroke="#63b8ff" points="389.07,-584.23 398.67,-579.77 388.38,-577.27 389.07,-584.23"/>
</a>
</g>
</g>
<!-- Node5&#45;&gt;Node6 -->
<g id="edge5_Node000005_Node000006" class="edge">
<title>Node5&#45;&gt;Node6</title>
<g id="a_edge5_Node000005_Node000006"><a xlink:title=" ">
<path fill="none" stroke="#63b8ff" d="M694.46,-694.56C712.13,-692.54 732.78,-690.18 752.85,-687.89"/>
<polygon fill="#63b8ff" stroke="#63b8ff" points="753.2,-691.37 762.74,-686.76 752.41,-684.42 753.2,-691.37"/>
</a>
</g>
</g>
<!-- Node7&#45;&gt;Node4 -->
<g id="edge8_Node000007_Node000004" class="edge">
<title>Node7&#45;&gt;Node4</title>
<g id="a_edge8_Node000007_Node000004"><a xlink:title=" ">
<path fill="none" stroke="#63b8ff" d="M321.97,-502.87C332.64,-506.45 343.58,-511.08 353,-517 372.7,-529.37 369.07,-542.99 389,-555 391.57,-556.55 394.28,-557.98 397.06,-559.29"/>
<polygon fill="#63b8ff" stroke="#63b8ff" points="395.45,-562.41 406.02,-562.99 398.12,-555.94 395.45,-562.41"/>
</a>
</g>
</g>
<!-- Node7&#45;&gt;Node6 -->
<g id="edge7_Node000007_Node000006" class="edge">
<title>Node7&#45;&gt;Node6</title>
<g id="a_edge7_Node000007_Node000006"><a xlink:title=" ">
<path fill="none" stroke="#63b8ff" d="M322.28,-480.75C409.3,-462.87 597.31,-437.05 728.5,-511 783.27,-541.87 815.96,-612.34 830.45,-651.15"/>
<polygon fill="#63b8ff" stroke="#63b8ff" points="827.03,-651.99 833.7,-660.22 833.62,-649.62 827.03,-651.99"/>
</a>
</g>
</g>
<!-- Node10&#45;&gt;Node4 -->
<g id="edge13_Node000010_Node000004" class="edge">
<title>Node10&#45;&gt;Node4</title>
<g id="a_edge13_Node000010_Node000004"><a xlink:title=" ">
<path fill="none" stroke="#63b8ff" d="M325.07,-550.83C344.82,-554.29 367.8,-558.33 388.99,-562.05"/>
<polygon fill="#63b8ff" stroke="#63b8ff" points="388.28,-565.47 398.73,-563.75 389.48,-558.58 388.28,-565.47"/>
</a>
</g>
</g>
<!-- Node11 -->
<g id="Node000011" class="node">
<title>Node11</title>
<g id="a_Node000011"><a xlink:href="../../d3/d07/namespace_g_e_u_1_1_gui_utilities.html#aa4e9186189a097316ffd71424d4a7259" target="_top" xlink:title=" ">
<polygon fill="white" stroke="#666666" points="506.25,-546 410,-546 410,-514 506.25,-514 506.25,-546"/>
<text text-anchor="start" x="418" y="-532.5" font-family="Helvetica,sans-Serif" font-size="10.00">GEU::GuiUtilities::</text>
<text text-anchor="middle" x="458.12" y="-520.5" font-family="Helvetica,sans-Serif" font-size="10.00">loadingIcon</text>
</a>
</g>
</g>
<!-- Node10&#45;&gt;Node11 -->
<g id="edge12_Node000010_Node000011" class="edge">
<title>Node10&#45;&gt;Node11</title>
<g id="a_edge12_Node000010_Node000011"><a xlink:title=" ">
<path fill="none" stroke="#63b8ff" d="M325.07,-538.69C347.81,-537.19 374.83,-535.41 398.48,-533.86"/>
<polygon fill="#63b8ff" stroke="#63b8ff" points="398.53,-537.36 408.28,-533.21 398.07,-530.38 398.53,-537.36"/>
</a>
</g>
</g>
<!-- Node12&#45;&gt;Node3 -->
<g id="edge20_Node000012_Node000003" class="edge">
<title>Node12&#45;&gt;Node3</title>
<g id="a_edge20_Node000012_Node000003"><a xlink:title=" ">
<path fill="none" stroke="#63b8ff" d="M322.19,-635.76C344.79,-632.78 372.08,-629.19 396.19,-626.02"/>
<polygon fill="#63b8ff" stroke="#63b8ff" points="396.41,-629.52 405.87,-624.74 395.5,-622.58 396.41,-629.52"/>
</a>
</g>
</g>
<!-- Node12&#45;&gt;Node4 -->
<g id="edge21_Node000012_Node000004" class="edge">
<title>Node12&#45;&gt;Node4</title>
<g id="a_edge21_Node000012_Node000004"><a xlink:title=" ">
<path fill="none" stroke="#63b8ff" d="M322.33,-629.14C332.66,-625.71 343.36,-621.64 353,-617 370.33,-608.66 371.52,-601.02 389,-593 392.97,-591.18 397.15,-589.5 401.4,-587.95"/>
<polygon fill="#63b8ff" stroke="#63b8ff" points="402.25,-591.36 410.62,-584.87 400.03,-584.72 402.25,-591.36"/>
</a>
</g>
</g>
<!-- Node13 -->
<g id="Node000013" class="node">
<title>Node13</title>
<g id="a_Node000013"><a xlink:href="../../df/d03/namespace_im_gui.html#aefd878b805c4319701726466e38af25f" target="_top" xlink:title=" ">
<polygon fill="white" stroke="#666666" points="510,-672 406.25,-672 406.25,-652 510,-652 510,-672"/>
<text text-anchor="middle" x="458.12" y="-658.5" font-family="Helvetica,sans-Serif" font-size="10.00">ImGui::DateChooser</text>
</a>
</g>
</g>
<!-- Node12&#45;&gt;Node13 -->
<g id="edge15_Node000012_Node000013" class="edge">
<title>Node12&#45;&gt;Node13</title>
<g id="a_edge15_Node000012_Node000013"><a xlink:title=" ">
<path fill="none" stroke="#63b8ff" d="M322.19,-647.2C344.23,-649.62 370.74,-652.53 394.4,-655.12"/>
<polygon fill="#63b8ff" stroke="#63b8ff" points="393.93,-658.59 404.26,-656.2 394.7,-651.63 393.93,-658.59"/>
</a>
</g>
</g>
<!-- Node13&#45;&gt;Node6 -->
<g id="edge18_Node000013_Node000006" class="edge">
<title>Node13&#45;&gt;Node6</title>
<g id="a_edge18_Node000013_Node000006"><a xlink:title=" ">
<path fill="none" stroke="#63b8ff" d="M510.41,-664.16C572.5,-666.77 678.02,-671.21 752.8,-674.36"/>
<polygon fill="#63b8ff" stroke="#63b8ff" points="752.41,-677.84 762.55,-674.77 752.7,-670.85 752.41,-677.84"/>
</a>
</g>
</g>
<!-- Node14 -->
<g id="Node000014" class="node">
<title>Node14</title>
<g id="a_Node000014"><a xlink:href="../../df/d03/namespace_im_gui.html#a4305042c283d89a8db95b69c245dd4cd" target="_top" xlink:title=" ">
<polygon fill="white" stroke="#666666" points="703.38,-578 588.38,-578 588.38,-558 703.38,-558 703.38,-578"/>
<text text-anchor="middle" x="645.88" y="-564.5" font-family="Helvetica,sans-Serif" font-size="10.00">ImGui::GetCurrentDate</text>
</a>
</g>
</g>
<!-- Node13&#45;&gt;Node14 -->
<g id="edge16_Node000013_Node000014" class="edge">
<title>Node13&#45;&gt;Node14</title>
<g id="a_edge16_Node000013_Node000014"><a xlink:title=" ">
<path fill="none" stroke="#63b8ff" d="M510.17,-652.26C516.25,-649.83 522.11,-646.79 527.25,-643 551.06,-625.43 539.07,-604.05 563.25,-587 567.63,-583.91 572.43,-581.32 577.46,-579.15"/>
<polygon fill="#63b8ff" stroke="#63b8ff" points="578.42,-582.52 586.58,-575.77 575.98,-575.96 578.42,-582.52"/>
</a>
</g>
</g>
<!-- Node15 -->
<g id="Node000015" class="node">
<title>Node15</title>
<g id="a_Node000015"><a xlink:href="../../df/d03/namespace_im_gui.html#aab4714f905121e39fd75f60a9ca854cf" target="_top" xlink:title=" ">
<polygon fill="white" stroke="#666666" points="697,-540 594.75,-540 594.75,-520 697,-520 697,-540"/>
<text text-anchor="middle" x="645.88" y="-526.5" font-family="Helvetica,sans-Serif" font-size="10.00">ImGui::GetDateZero</text>
</a>
</g>
</g>
<!-- Node13&#45;&gt;Node15 -->
<g id="edge17_Node000013_Node000015" class="edge">
<title>Node13&#45;&gt;Node15</title>
<g id="a_edge17_Node000013_Node000015"><a xlink:title=" ">
<path fill="none" stroke="#63b8ff" d="M510.28,-653.52C516.48,-650.89 522.35,-647.46 527.25,-643 560.33,-612.88 529.52,-578.39 563.25,-549 569.21,-543.8 576.33,-539.95 583.83,-537.12"/>
<polygon fill="#63b8ff" stroke="#63b8ff" points="584.68,-540.52 593.18,-534.2 582.59,-533.84 584.68,-540.52"/>
</a>
</g>
</g>
<!-- Node16 -->
<g id="Node000016" class="node">
<title>Node16</title>
<g id="a_Node000016"><a xlink:href="../../df/d03/namespace_im_gui.html#ab5acf061aabc3ecd45051883508c8274" target="_top" xlink:title=" ">
<polygon fill="white" stroke="#666666" points="728.5,-628 563.25,-628 563.25,-596 728.5,-596 728.5,-628"/>
<text text-anchor="start" x="571.25" y="-614.5" font-family="Helvetica,sans-Serif" font-size="10.00">ImGui::RecalculateDateDependent</text>
<text text-anchor="middle" x="645.88" y="-602.5" font-family="Helvetica,sans-Serif" font-size="10.00">Fields</text>
</a>
</g>
</g>
<!-- Node13&#45;&gt;Node16 -->
<g id="edge19_Node000013_Node000016" class="edge">
<title>Node13&#45;&gt;Node16</title>
<g id="a_edge19_Node000013_Node000016"><a xlink:title=" ">
<path fill="none" stroke="#63b8ff" d="M498.06,-651.52C519.66,-645.71 547.2,-638.29 572.58,-631.46"/>
<polygon fill="#63b8ff" stroke="#63b8ff" points="573.48,-634.84 582.22,-628.86 571.66,-628.08 573.48,-634.84"/>
</a>
</g>
</g>
<!-- Node17&#45;&gt;Node6 -->
<g id="edge23_Node000017_Node000006" class="edge">
<title>Node17&#45;&gt;Node6</title>
<g id="a_edge23_Node000017_Node000006"><a xlink:title=" ">
<path fill="none" stroke="#63b8ff" d="M673.66,-436.44C690.94,-444.21 713.01,-456.21 728.5,-472 780.86,-525.39 815.26,-608.54 830.44,-651.02"/>
<polygon fill="#63b8ff" stroke="#63b8ff" points="827.05,-651.91 833.64,-660.2 833.66,-649.61 827.05,-651.91"/>
</a>
</g>
</g>
<!-- Node17&#45;&gt;Node18 -->
<g id="edge24_Node000017_Node000018" class="edge">
<title>Node17&#45;&gt;Node18</title>
<g id="a_edge24_Node000017_Node000018"><a xlink:title=" ">
<path fill="none" stroke="#63b8ff" d="M692.49,-415.57C719.49,-409.4 753.9,-401.54 782.64,-394.97"/>
<polygon fill="#63b8ff" stroke="#63b8ff" points="783.31,-398.41 792.27,-392.77 781.75,-391.58 783.31,-398.41"/>
</a>
</g>
</g>
<!-- Node20 -->
<g id="Node000020" class="node">
<title>Node20</title>
<g id="a_Node000020"><a xlink:href="../../d3/d04/class_g_e_u_1_1_confirm_popup.html#a356c96e2b60a49682d4a6c41f1a60c38" target="_top" xlink:title="Sets up ImGUI to open a popup window.">
<polygon fill="white" stroke="#666666" points="513,-420 403.25,-420 403.25,-388 513,-388 513,-420"/>
<text text-anchor="start" x="411.25" y="-406.5" font-family="Helvetica,sans-Serif" font-size="10.00">GEU::ConfirmPopup::</text>
<text text-anchor="middle" x="458.12" y="-394.5" font-family="Helvetica,sans-Serif" font-size="10.00">openPopup</text>
</a>
</g>
</g>
<!-- Node19&#45;&gt;Node20 -->
<g id="edge29_Node000019_Node000020" class="edge">
<title>Node19&#45;&gt;Node20</title>
<g id="a_edge29_Node000019_Node000020"><a xlink:title=" ">
<path fill="none" stroke="#63b8ff" d="M353.42,-404C366.19,-404 379.29,-404 391.7,-404"/>
<polygon fill="#63b8ff" stroke="#63b8ff" points="391.36,-407.5 401.36,-404 391.36,-400.5 391.36,-407.5"/>
</a>
</g>
</g>
<!-- Node20&#45;&gt;Node17 -->
<g id="edge30_Node000020_Node000017" class="edge">
<title>Node20&#45;&gt;Node17</title>
<g id="a_edge30_Node000020_Node000017"><a xlink:title=" ">
<path fill="none" stroke="#63b8ff" d="M513.35,-410.42C529.34,-412.32 547.18,-414.43 564.45,-416.47"/>
<polygon fill="#63b8ff" stroke="#63b8ff" points="563.84,-419.93 574.18,-417.63 564.66,-412.97 563.84,-419.93"/>
</a>
</g>
</g>
<!-- Node22 -->
<g id="Node000022" class="node">
<title>Node22</title>
<g id="a_Node000022"><a xlink:href="../../d7/d06/class_g_e_u_1_1_database_query_popup.html#a3bf1663eb8ab84b093bb487b62ae6130" target="_top" xlink:title="Sets up ImGUI to open a popup window.">
<polygon fill="white" stroke="#666666" points="527.25,-232 389,-232 389,-200 527.25,-200 527.25,-232"/>
<text text-anchor="start" x="397" y="-218.5" font-family="Helvetica,sans-Serif" font-size="10.00">GEU::DatabaseQueryPopup</text>
<text text-anchor="middle" x="458.12" y="-206.5" font-family="Helvetica,sans-Serif" font-size="10.00">::openPopup</text>
</a>
</g>
</g>
<!-- Node21&#45;&gt;Node22 -->
<g id="edge32_Node000021_Node000022" class="edge">
<title>Node21&#45;&gt;Node22</title>
<g id="a_edge32_Node000021_Node000022"><a xlink:title=" ">
<path fill="none" stroke="#63b8ff" d="M353.42,-216C361.32,-216 369.35,-216 377.26,-216"/>
<polygon fill="#63b8ff" stroke="#63b8ff" points="377.23,-219.5 387.23,-216 377.23,-212.5 377.23,-219.5"/>
</a>
</g>
</g>
</g>
</svg>
