<?xml version="1.0" encoding="UTF-8" standalone="no"?>
<!DOCTYPE svg PUBLIC "-//W3C//DTD SVG 1.1//EN"
 "http://www.w3.org/Graphics/SVG/1.1/DTD/svg11.dtd">
<!-- Generated by graphviz version 10.0.1 (20240210.2158)
 -->
<!-- Title: D:/GEU/GEUCore/Source/UI Pages: 1 -->
<svg width="372pt" height="200pt"
 viewBox="0.00 0.00 372.00 200.00" xmlns="http://www.w3.org/2000/svg" xmlns:xlink="http://www.w3.org/1999/xlink">
<g id="graph0" class="graph" transform="scale(1 1) rotate(0) translate(4 196)">
<title>D:/GEU/GEUCore/Source/UI</title>
<g id="clust1" class="cluster">
<title>clusterdir_d4107ff65a26812a8e80cf49f43b787d</title>
<g id="a_clust1"><a xlink:href="dir_d4107ff65a26812a8e80cf49f43b787d.html" target="_top" xlink:title="Source">
<polygon fill="#ebfef5" stroke="#7f7f7f" stroke-dasharray="5,2" points="8,-8 8,-184 356,-184 356,-8 8,-8"/>
<text text-anchor="middle" x="182" y="-170.5" font-family="Helvetica,sans-Serif" font-size="10.00">Source</text>
</a>
</g>
</g>
<g id="clust2" class="cluster">
<title>clusterdir_2e45d1cfd81b932e70cd071fc9b76dab</title>
<g id="a_clust2"><a xlink:href="dir_2e45d1cfd81b932e70cd071fc9b76dab.html" target="_top">
<polygon fill="#ebfef5" stroke="#404040" stroke-width="2" points="72,-64 72,-156 184,-156 184,-64 72,-64"/>
</a>
</g>
</g>
<!-- dir_3c3c6b6eb1652c0454092c25623ff2b4 -->
<g id="node1" class="node">
<title>dir_3c3c6b6eb1652c0454092c25623ff2b4</title>
<g id="a_node1"><a xlink:href="dir_3c3c6b6eb1652c0454092c25623ff2b4.html" target="_top" xlink:title="IO">
<polygon fill="#98fdce" stroke="red" points="64.4,-92 35.6,-92 35.6,-72 64.4,-72 64.4,-92"/>
<text text-anchor="middle" x="50" y="-78.5" font-family="Helvetica,sans-Serif" font-size="10.00">IO</text>
</a>
</g>
</g>
<!-- dir_63772b185c678f1e53c3e3ae39f2acc3 -->
<g id="node2" class="node">
<title>dir_63772b185c678f1e53c3e3ae39f2acc3</title>
<g id="a_node2"><a xlink:href="dir_63772b185c678f1e53c3e3ae39f2acc3.html" target="_top" xlink:title="Fonts">
<polygon fill="#98fdce" stroke="#404040" points="114.38,-36 73.62,-36 73.62,-16 114.38,-16 114.38,-36"/>
<text text-anchor="middle" x="94" y="-22.5" font-family="Helvetica,sans-Serif" font-size="10.00">Fonts</text>
</a>
</g>
</g>
<!-- dir_809c4f716c50d1269b0b29ab8c19935a -->
<g id="node3" class="node">
<title>dir_809c4f716c50d1269b0b29ab8c19935a</title>
<g id="a_node3"><a xlink:href="dir_809c4f716c50d1269b0b29ab8c19935a.html" target="_top" xlink:title="Graphics">
<polygon fill="#98fdce" stroke="red" points="247.5,-92 192.5,-92 192.5,-72 247.5,-72 247.5,-92"/>
<text text-anchor="middle" x="220" y="-78.5" font-family="Helvetica,sans-Serif" font-size="10.00">Graphics</text>
</a>
</g>
</g>
<!-- dir_8956d8d5ac8f7fdad37e7ec3ce752fa0 -->
<g id="node4" class="node">
<title>dir_8956d8d5ac8f7fdad37e7ec3ce752fa0</title>
<g id="a_node4"><a xlink:href="dir_8956d8d5ac8f7fdad37e7ec3ce752fa0.html" target="_top" xlink:title="DataTypes">
<polygon fill="#98fdce" stroke="red" points="328.25,-92 265.75,-92 265.75,-72 328.25,-72 328.25,-92"/>
<text text-anchor="middle" x="297" y="-78.5" font-family="Helvetica,sans-Serif" font-size="10.00">DataTypes</text>
</a>
</g>
</g>
<!-- dir_ba98d1c57f2db257d685d96c8633f8b6 -->
<g id="node5" class="node">
<title>dir_ba98d1c57f2db257d685d96c8633f8b6</title>
<g id="a_node5"><a xlink:href="dir_ba98d1c57f2db257d685d96c8633f8b6.html" target="_top" xlink:title="Utilities">
<polygon fill="#98fdce" stroke="#404040" points="185.12,-36 136.88,-36 136.88,-16 185.12,-16 185.12,-36"/>
<text text-anchor="middle" x="161" y="-22.5" font-family="Helvetica,sans-Serif" font-size="10.00">Utilities</text>
</a>
</g>
</g>
<!-- dir_2e45d1cfd81b932e70cd071fc9b76dab -->
<g id="node6" class="node">
<title>dir_2e45d1cfd81b932e70cd071fc9b76dab</title>
<text text-anchor="middle" x="162" y="-134.5" font-family="Helvetica,sans-Serif" font-size="10.00">UI</text>
</g>
<!-- dir_2e45d1cfd81b932e70cd071fc9b76dab&#45;&gt;dir_3c3c6b6eb1652c0454092c25623ff2b4 -->
<g id="edge1" class="edge">
<title>dir_2e45d1cfd81b932e70cd071fc9b76dab&#45;&gt;dir_3c3c6b6eb1652c0454092c25623ff2b4</title>
<g id="a_edge1"><a xlink:href="dir_000045_000019.html" target="_top">
<path fill="none" stroke="#63b8ff" d="M147.63,-130.21C131.11,-122.39 102.92,-108.99 74.55,-95.18"/>
<polygon fill="#63b8ff" stroke="#63b8ff" points="76.41,-92.2 65.89,-90.96 73.34,-98.49 76.41,-92.2"/>
</a>
</g>
<g id="a_edge1&#45;headlabel"><a xlink:href="dir_000045_000019.html" target="_top" xlink:title="1">
<text text-anchor="middle" x="79.53" y="-87.06" font-family="Helvetica,sans-Serif" font-size="10.00" fill="#63b8ff">1</text>
</a>
</g>
</g>
<!-- dir_2e45d1cfd81b932e70cd071fc9b76dab&#45;&gt;dir_63772b185c678f1e53c3e3ae39f2acc3 -->
<g id="edge2" class="edge">
<title>dir_2e45d1cfd81b932e70cd071fc9b76dab&#45;&gt;dir_63772b185c678f1e53c3e3ae39f2acc3</title>
<g id="a_edge2"><a xlink:href="dir_000045_000010.html" target="_top">
<path fill="none" stroke="#63b8ff" d="M147.94,-131.34C145,-130.2 141.91,-129.04 139,-128 89.74,-110.47 57.8,-134.25 27,-92 19.67,-81.94 20.68,-74.72 27,-64 34.83,-50.73 49.32,-41.88 62.83,-36.18"/>
<polygon fill="#63b8ff" stroke="#63b8ff" points="63.75,-39.58 71.89,-32.79 61.29,-33.02 63.75,-39.58"/>
</a>
</g>
<g id="a_edge2&#45;headlabel"><a xlink:href="dir_000045_000010.html" target="_top" xlink:title="2">
<text text-anchor="middle" x="62.8" y="-39.47" font-family="Helvetica,sans-Serif" font-size="10.00" fill="#63b8ff">2</text>
</a>
</g>
</g>
<!-- dir_2e45d1cfd81b932e70cd071fc9b76dab&#45;&gt;dir_809c4f716c50d1269b0b29ab8c19935a -->
<g id="edge3" class="edge">
<title>dir_2e45d1cfd81b932e70cd071fc9b76dab&#45;&gt;dir_809c4f716c50d1269b0b29ab8c19935a</title>
<g id="a_edge3"><a xlink:href="dir_000045_000016.html" target="_top">
<path fill="none" stroke="#63b8ff" d="M171.58,-128.08C179.74,-120.48 191.7,-109.35 201.69,-100.04"/>
<polygon fill="#63b8ff" stroke="#63b8ff" points="203.78,-102.88 208.71,-93.51 199.01,-97.76 203.78,-102.88"/>
</a>
</g>
<g id="a_edge3&#45;headlabel"><a xlink:href="dir_000045_000016.html" target="_top" xlink:title="2">
<text text-anchor="middle" x="204.19" y="-102.88" font-family="Helvetica,sans-Serif" font-size="10.00" fill="#63b8ff">2</text>
</a>
</g>
</g>
<!-- dir_2e45d1cfd81b932e70cd071fc9b76dab&#45;&gt;dir_8956d8d5ac8f7fdad37e7ec3ce752fa0 -->
<g id="edge4" class="edge">
<title>dir_2e45d1cfd81b932e70cd071fc9b76dab&#45;&gt;dir_8956d8d5ac8f7fdad37e7ec3ce752fa0</title>
<g id="a_edge4"><a xlink:href="dir_000045_000006.html" target="_top">
<path fill="none" stroke="#63b8ff" d="M176.19,-131.32C196.63,-123.15 234.97,-107.81 263,-96.6"/>
<polygon fill="#63b8ff" stroke="#63b8ff" points="264.16,-99.91 272.14,-92.94 261.56,-93.41 264.16,-99.91"/>
</a>
</g>
<g id="a_edge4&#45;headlabel"><a xlink:href="dir_000045_000006.html" target="_top" xlink:title="1">
<text text-anchor="middle" x="263.28" y="-99.82" font-family="Helvetica,sans-Serif" font-size="10.00" fill="#63b8ff">1</text>
</a>
</g>
</g>
<!-- dir_2e45d1cfd81b932e70cd071fc9b76dab&#45;&gt;dir_ba98d1c57f2db257d685d96c8633f8b6 -->
<g id="edge5" class="edge">
<title>dir_2e45d1cfd81b932e70cd071fc9b76dab&#45;&gt;dir_ba98d1c57f2db257d685d96c8633f8b6</title>
<g id="a_edge5"><a xlink:href="dir_000045_000054.html" target="_top">
<path fill="none" stroke="#63b8ff" d="M176.08,-136.3C224.98,-133.35 382.02,-119.47 337,-64 319.67,-42.65 242.85,-33.16 196.62,-29.32"/>
<polygon fill="#63b8ff" stroke="#63b8ff" points="197.05,-25.84 186.81,-28.56 196.51,-32.82 197.05,-25.84"/>
</a>
</g>
<g id="a_edge5&#45;headlabel"><a xlink:href="dir_000045_000054.html" target="_top" xlink:title="5">
<text text-anchor="middle" x="199.34" y="-19.67" font-family="Helvetica,sans-Serif" font-size="10.00" fill="#63b8ff">5</text>
</a>
</g>
</g>
<!-- dir_ed28fcff23d26531979feec0f8d8af01 -->
<g id="node7" class="node">
<title>dir_ed28fcff23d26531979feec0f8d8af01</title>
<g id="a_node7"><a xlink:href="dir_ed28fcff23d26531979feec0f8d8af01.html" target="_top" xlink:title="Addons">
<polygon fill="#98fdce" stroke="#404040" points="152.5,-92 103.5,-92 103.5,-72 152.5,-72 152.5,-92"/>
<text text-anchor="middle" x="128" y="-78.5" font-family="Helvetica,sans-Serif" font-size="10.00">Addons</text>
</a>
</g>
</g>
<!-- dir_2e45d1cfd81b932e70cd071fc9b76dab&#45;&gt;dir_ed28fcff23d26531979feec0f8d8af01 -->
<g id="edge6" class="edge">
<title>dir_2e45d1cfd81b932e70cd071fc9b76dab&#45;&gt;dir_ed28fcff23d26531979feec0f8d8af01</title>
<g id="a_edge6"><a xlink:href="dir_000045_000000.html" target="_top">
<path fill="none" stroke="#63b8ff" d="M156.39,-128.08C151.94,-121.02 145.57,-110.9 139.99,-102.04"/>
<polygon fill="#63b8ff" stroke="#63b8ff" points="143.06,-100.35 134.77,-93.76 137.14,-104.08 143.06,-100.35"/>
</a>
</g>
<g id="a_edge6&#45;headlabel"><a xlink:href="dir_000045_000000.html" target="_top" xlink:title="4">
<text text-anchor="middle" x="146.57" y="-97.1" font-family="Helvetica,sans-Serif" font-size="10.00" fill="#63b8ff">4</text>
</a>
</g>
</g>
<!-- dir_ed28fcff23d26531979feec0f8d8af01&#45;&gt;dir_63772b185c678f1e53c3e3ae39f2acc3 -->
<g id="edge7" class="edge">
<title>dir_ed28fcff23d26531979feec0f8d8af01&#45;&gt;dir_63772b185c678f1e53c3e3ae39f2acc3</title>
<g id="a_edge7"><a xlink:href="dir_000000_000010.html" target="_top">
<path fill="none" stroke="#63b8ff" d="M122.08,-71.59C117.64,-64.55 111.42,-54.67 105.96,-46"/>
<polygon fill="#63b8ff" stroke="#63b8ff" points="108.95,-44.18 100.66,-37.58 103.03,-47.91 108.95,-44.18"/>
</a>
</g>
<g id="a_edge7&#45;headlabel"><a xlink:href="dir_000000_000010.html" target="_top" xlink:title="1">
<text text-anchor="middle" x="112.46" y="-40.92" font-family="Helvetica,sans-Serif" font-size="10.00" fill="#63b8ff">1</text>
</a>
</g>
</g>
<!-- dir_ed28fcff23d26531979feec0f8d8af01&#45;&gt;dir_ba98d1c57f2db257d685d96c8633f8b6 -->
<g id="edge8" class="edge">
<title>dir_ed28fcff23d26531979feec0f8d8af01&#45;&gt;dir_ba98d1c57f2db257d685d96c8633f8b6</title>
<g id="a_edge8"><a xlink:href="dir_000000_000054.html" target="_top">
<path fill="none" stroke="#63b8ff" d="M133.75,-71.59C138.05,-64.55 144.09,-54.67 149.39,-46"/>
<polygon fill="#63b8ff" stroke="#63b8ff" points="152.3,-47.95 154.53,-37.59 146.33,-44.3 152.3,-47.95"/>
</a>
</g>
<g id="a_edge8&#45;headlabel"><a xlink:href="dir_000000_000054.html" target="_top" xlink:title="2">
<text text-anchor="middle" x="153.64" y="-47.7" font-family="Helvetica,sans-Serif" font-size="10.00" fill="#63b8ff">2</text>
</a>
</g>
</g>
<!-- dir_baf2ec95e43d0b0436de0310453a66d7 -->
<g id="node8" class="node">
<title>dir_baf2ec95e43d0b0436de0310453a66d7</title>
<g id="a_node8"><a xlink:href="dir_baf2ec95e43d0b0436de0310453a66d7.html" target="_top" xlink:title="Popups">
<polygon fill="#98fdce" stroke="#404040" points="129.5,-148 80.5,-148 80.5,-128 129.5,-128 129.5,-148"/>
<text text-anchor="middle" x="105" y="-134.5" font-family="Helvetica,sans-Serif" font-size="10.00">Popups</text>
</a>
</g>
</g>
<!-- dir_baf2ec95e43d0b0436de0310453a66d7&#45;&gt;dir_ed28fcff23d26531979feec0f8d8af01 -->
<g id="edge9" class="edge">
<title>dir_baf2ec95e43d0b0436de0310453a66d7&#45;&gt;dir_ed28fcff23d26531979feec0f8d8af01</title>
<g id="a_edge9"><a xlink:href="dir_000028_000000.html" target="_top">
<path fill="none" stroke="#63b8ff" d="M109.01,-127.59C111.91,-120.78 115.94,-111.32 119.54,-102.86"/>
<polygon fill="#63b8ff" stroke="#63b8ff" points="122.75,-104.26 123.45,-93.69 116.31,-101.52 122.75,-104.26"/>
</a>
</g>
<g id="a_edge9&#45;headlabel"><a xlink:href="dir_000028_000000.html" target="_top" xlink:title="2">
<text text-anchor="middle" x="124.54" y="-103.79" font-family="Helvetica,sans-Serif" font-size="10.00" fill="#63b8ff">2</text>
</a>
</g>
</g>
</g>
</svg>
