<?xml version="1.0" encoding="UTF-8" standalone="no"?>
<!DOCTYPE svg PUBLIC "-//W3C//DTD SVG 1.1//EN"
 "http://www.w3.org/Graphics/SVG/1.1/DTD/svg11.dtd">
<!-- Generated by graphviz version 10.0.1 (20240210.2158)
 -->
<!-- Title: D:/GEU/GEUCore/Source Pages: 1 -->
<svg width="294pt" height="432pt"
 viewBox="0.00 0.00 294.00 432.00" xmlns="http://www.w3.org/2000/svg" xmlns:xlink="http://www.w3.org/1999/xlink">
<g id="graph0" class="graph" transform="scale(1 1) rotate(0) translate(4 428)">
<title>D:/GEU/GEUCore/Source</title>
<g id="clust1" class="cluster">
<title>clusterdir_27e7292ccf631aad9354b9464cb90a84</title>
<g id="a_clust1"><a xlink:href="dir_27e7292ccf631aad9354b9464cb90a84.html" target="_top" xlink:title="GEUCore">
<polygon fill="#ebfef5" stroke="#7f7f7f" stroke-dasharray="5,2" points="8,-8 8,-416 278,-416 278,-8 8,-8"/>
<text text-anchor="middle" x="143" y="-402.5" font-family="Helvetica,sans-Serif" font-size="10.00">GEUCore</text>
</a>
</g>
</g>
<g id="clust2" class="cluster">
<title>clusterdir_d4107ff65a26812a8e80cf49f43b787d</title>
<g id="a_clust2"><a xlink:href="dir_d4107ff65a26812a8e80cf49f43b787d.html" target="_top">
<polygon fill="#ebfef5" stroke="#404040" stroke-width="2" points="16,-16 16,-388 270,-388 270,-16 16,-16"/>
</a>
</g>
</g>
<!-- dir_d4107ff65a26812a8e80cf49f43b787d -->
<g id="node1" class="node">
<title>dir_d4107ff65a26812a8e80cf49f43b787d</title>
<text text-anchor="middle" x="69" y="-366.5" font-family="Helvetica,sans-Serif" font-size="10.00">Source</text>
</g>
<!-- dir_8956d8d5ac8f7fdad37e7ec3ce752fa0 -->
<g id="node4" class="node">
<title>dir_8956d8d5ac8f7fdad37e7ec3ce752fa0</title>
<g id="a_node4"><a xlink:href="dir_8956d8d5ac8f7fdad37e7ec3ce752fa0.html" target="_top" xlink:title="DataTypes">
<polygon fill="#98fdce" stroke="#404040" points="143.25,-268 80.75,-268 80.75,-248 143.25,-248 143.25,-268"/>
<text text-anchor="middle" x="112" y="-254.5" font-family="Helvetica,sans-Serif" font-size="10.00">DataTypes</text>
</a>
</g>
</g>
<!-- dir_d4107ff65a26812a8e80cf49f43b787d&#45;&gt;dir_8956d8d5ac8f7fdad37e7ec3ce752fa0 -->
<g id="edge3" class="edge">
<title>dir_d4107ff65a26812a8e80cf49f43b787d&#45;&gt;dir_8956d8d5ac8f7fdad37e7ec3ce752fa0</title>
<g id="a_edge3"><a xlink:href="dir_000033_000006.html" target="_top">
<path fill="none" stroke="#63b8ff" d="M72.37,-360.37C79.21,-342.87 94.86,-302.84 104.32,-278.64"/>
<polygon fill="#63b8ff" stroke="#63b8ff" points="107.47,-280.2 107.85,-269.62 100.95,-277.66 107.47,-280.2"/>
</a>
</g>
<g id="a_edge3&#45;headlabel"><a xlink:href="dir_000033_000006.html" target="_top" xlink:title="16">
<text text-anchor="middle" x="109.36" y="-279.68" font-family="Helvetica,sans-Serif" font-size="10.00" fill="#63b8ff">16</text>
</a>
</g>
</g>
<!-- dir_809c4f716c50d1269b0b29ab8c19935a -->
<g id="node6" class="node">
<title>dir_809c4f716c50d1269b0b29ab8c19935a</title>
<g id="a_node6"><a xlink:href="dir_809c4f716c50d1269b0b29ab8c19935a.html" target="_top" xlink:title="Graphics">
<polygon fill="#98fdce" stroke="#404040" points="119.5,-212 64.5,-212 64.5,-192 119.5,-192 119.5,-212"/>
<text text-anchor="middle" x="92" y="-198.5" font-family="Helvetica,sans-Serif" font-size="10.00">Graphics</text>
</a>
</g>
</g>
<!-- dir_d4107ff65a26812a8e80cf49f43b787d&#45;&gt;dir_809c4f716c50d1269b0b29ab8c19935a -->
<g id="edge2" class="edge">
<title>dir_d4107ff65a26812a8e80cf49f43b787d&#45;&gt;dir_809c4f716c50d1269b0b29ab8c19935a</title>
<g id="a_edge2"><a xlink:href="dir_000033_000016.html" target="_top">
<path fill="none" stroke="#63b8ff" d="M66.8,-360.27C62.09,-340.05 52.39,-288.63 64,-248 66.71,-238.53 72.05,-229.11 77.35,-221.35"/>
<polygon fill="#63b8ff" stroke="#63b8ff" points="80.04,-223.59 83.16,-213.47 74.41,-219.44 80.04,-223.59"/>
</a>
</g>
<g id="a_edge2&#45;headlabel"><a xlink:href="dir_000033_000016.html" target="_top" xlink:title="31">
<text text-anchor="middle" x="81.09" y="-223.45" font-family="Helvetica,sans-Serif" font-size="10.00" fill="#63b8ff">31</text>
</a>
</g>
</g>
<!-- dir_2e45d1cfd81b932e70cd071fc9b76dab -->
<g id="node10" class="node">
<title>dir_2e45d1cfd81b932e70cd071fc9b76dab</title>
<g id="a_node10"><a xlink:href="dir_2e45d1cfd81b932e70cd071fc9b76dab.html" target="_top" xlink:title="UI">
<polygon fill="#98fdce" stroke="#404040" points="161.4,-324 132.6,-324 132.6,-304 161.4,-304 161.4,-324"/>
<text text-anchor="middle" x="147" y="-310.5" font-family="Helvetica,sans-Serif" font-size="10.00">UI</text>
</a>
</g>
</g>
<!-- dir_d4107ff65a26812a8e80cf49f43b787d&#45;&gt;dir_2e45d1cfd81b932e70cd071fc9b76dab -->
<g id="edge1" class="edge">
<title>dir_d4107ff65a26812a8e80cf49f43b787d&#45;&gt;dir_2e45d1cfd81b932e70cd071fc9b76dab</title>
<g id="a_edge1"><a xlink:href="dir_000033_000045.html" target="_top">
<path fill="none" stroke="#63b8ff" d="M81.88,-360.08C93.3,-352.18 110.25,-340.44 124,-330.93"/>
<polygon fill="#63b8ff" stroke="#63b8ff" points="125.84,-333.91 132.07,-325.34 121.85,-328.15 125.84,-333.91"/>
</a>
</g>
<g id="a_edge1&#45;headlabel"><a xlink:href="dir_000033_000045.html" target="_top" xlink:title="5">
<text text-anchor="middle" x="125.74" y="-333.93" font-family="Helvetica,sans-Serif" font-size="10.00" fill="#63b8ff">5</text>
</a>
</g>
</g>
<!-- dir_ba98d1c57f2db257d685d96c8633f8b6 -->
<g id="node11" class="node">
<title>dir_ba98d1c57f2db257d685d96c8633f8b6</title>
<g id="a_node11"><a xlink:href="dir_ba98d1c57f2db257d685d96c8633f8b6.html" target="_top" xlink:title="Utilities">
<polygon fill="#98fdce" stroke="#404040" points="225.12,-44 176.88,-44 176.88,-24 225.12,-24 225.12,-44"/>
<text text-anchor="middle" x="201" y="-30.5" font-family="Helvetica,sans-Serif" font-size="10.00">Utilities</text>
</a>
</g>
</g>
<!-- dir_d4107ff65a26812a8e80cf49f43b787d&#45;&gt;dir_ba98d1c57f2db257d685d96c8633f8b6 -->
<g id="edge4" class="edge">
<title>dir_d4107ff65a26812a8e80cf49f43b787d&#45;&gt;dir_ba98d1c57f2db257d685d96c8633f8b6</title>
<g id="a_edge4"><a xlink:href="dir_000033_000054.html" target="_top">
<path fill="none" stroke="#63b8ff" d="M92.16,-361.16C143.23,-343.17 261,-297.51 261,-259 261,-259 261,-259 261,-145 261,-108.78 235.62,-73.14 217.87,-52.65"/>
<polygon fill="#63b8ff" stroke="#63b8ff" points="220.69,-50.55 211.39,-45.48 215.5,-55.25 220.69,-50.55"/>
</a>
</g>
<g id="a_edge4&#45;headlabel"><a xlink:href="dir_000033_000054.html" target="_top" xlink:title="24">
<text text-anchor="middle" x="224.19" y="-46.69" font-family="Helvetica,sans-Serif" font-size="10.00" fill="#63b8ff">24</text>
</a>
</g>
</g>
<!-- dir_f7870abe4f66b42600bbfbf2982a92ee -->
<g id="node2" class="node">
<title>dir_f7870abe4f66b42600bbfbf2982a92ee</title>
<g id="a_node2"><a xlink:href="dir_f7870abe4f66b42600bbfbf2982a92ee.html" target="_top" xlink:title="Camera">
<polygon fill="#98fdce" stroke="#404040" points="73.88,-100 24.12,-100 24.12,-80 73.88,-80 73.88,-100"/>
<text text-anchor="middle" x="49" y="-86.5" font-family="Helvetica,sans-Serif" font-size="10.00">Camera</text>
</a>
</g>
</g>
<!-- dir_f7870abe4f66b42600bbfbf2982a92ee&#45;&gt;dir_8956d8d5ac8f7fdad37e7ec3ce752fa0 -->
<g id="edge5" class="edge">
<title>dir_f7870abe4f66b42600bbfbf2982a92ee&#45;&gt;dir_8956d8d5ac8f7fdad37e7ec3ce752fa0</title>
<g id="a_edge5"><a xlink:href="dir_000002_000006.html" target="_top">
<path fill="none" stroke="#63b8ff" d="M47.02,-100.22C42.97,-121.46 35.71,-174.89 56,-212 62.55,-223.98 73.74,-233.95 84.4,-241.43"/>
<polygon fill="#63b8ff" stroke="#63b8ff" points="82.34,-244.26 92.63,-246.76 86.14,-238.38 82.34,-244.26"/>
</a>
</g>
<g id="a_edge5&#45;headlabel"><a xlink:href="dir_000002_000006.html" target="_top" xlink:title="2">
<text text-anchor="middle" x="79.04" y="-242.01" font-family="Helvetica,sans-Serif" font-size="10.00" fill="#63b8ff">2</text>
</a>
</g>
</g>
<!-- dir_0580fd544d071c9fc3cd7f618d777a14 -->
<g id="node3" class="node">
<title>dir_0580fd544d071c9fc3cd7f618d777a14</title>
<g id="a_node3"><a xlink:href="dir_0580fd544d071c9fc3cd7f618d777a14.html" target="_top" xlink:title="DataStructures">
<polygon fill="#98fdce" stroke="#404040" points="191.62,-380 110.38,-380 110.38,-360 191.62,-360 191.62,-380"/>
<text text-anchor="middle" x="151" y="-366.5" font-family="Helvetica,sans-Serif" font-size="10.00">DataStructures</text>
</a>
</g>
</g>
<!-- dir_8956d8d5ac8f7fdad37e7ec3ce752fa0&#45;&gt;dir_809c4f716c50d1269b0b29ab8c19935a -->
<g id="edge7" class="edge">
<title>dir_8956d8d5ac8f7fdad37e7ec3ce752fa0&#45;&gt;dir_809c4f716c50d1269b0b29ab8c19935a</title>
<g id="a_edge7"><a xlink:href="dir_000006_000016.html" target="_top">
<path fill="none" stroke="#63b8ff" d="M103.25,-247.59C99.45,-240.93 95.61,-231.75 93,-223.44"/>
<polygon fill="#63b8ff" stroke="#63b8ff" points="96.4,-222.61 90.57,-213.77 89.61,-224.32 96.4,-222.61"/>
</a>
</g>
<g id="a_edge7&#45;headlabel"><a xlink:href="dir_000006_000016.html" target="_top" xlink:title="14">
<text text-anchor="middle" x="99.66" y="-220.44" font-family="Helvetica,sans-Serif" font-size="10.00" fill="#63b8ff">14</text>
</a>
</g>
</g>
<!-- dir_3c3c6b6eb1652c0454092c25623ff2b4 -->
<g id="node7" class="node">
<title>dir_3c3c6b6eb1652c0454092c25623ff2b4</title>
<g id="a_node7"><a xlink:href="dir_3c3c6b6eb1652c0454092c25623ff2b4.html" target="_top" xlink:title="IO">
<polygon fill="#98fdce" stroke="#404040" points="182.4,-100 153.6,-100 153.6,-80 182.4,-80 182.4,-100"/>
<text text-anchor="middle" x="168" y="-86.5" font-family="Helvetica,sans-Serif" font-size="10.00">IO</text>
</a>
</g>
</g>
<!-- dir_8956d8d5ac8f7fdad37e7ec3ce752fa0&#45;&gt;dir_3c3c6b6eb1652c0454092c25623ff2b4 -->
<g id="edge6" class="edge">
<title>dir_8956d8d5ac8f7fdad37e7ec3ce752fa0&#45;&gt;dir_3c3c6b6eb1652c0454092c25623ff2b4</title>
<g id="a_edge6"><a xlink:href="dir_000006_000019.html" target="_top">
<path fill="none" stroke="#63b8ff" d="M109.72,-247.72C112.09,-238.64 119.09,-224.4 125,-212 136.8,-187.23 143.45,-182.38 151,-156 155.17,-141.42 157.17,-124.39 159.39,-111.42"/>
<polygon fill="#63b8ff" stroke="#63b8ff" points="162.76,-112.42 161.37,-101.92 155.91,-111 162.76,-112.42"/>
</a>
</g>
<g id="a_edge6&#45;headlabel"><a xlink:href="dir_000006_000019.html" target="_top" xlink:title="1">
<text text-anchor="middle" x="165.12" y="-111.54" font-family="Helvetica,sans-Serif" font-size="10.00" fill="#63b8ff">1</text>
</a>
</g>
</g>
<!-- dir_ea20a9aaa4792751d6e0a54abfdc92d3 -->
<g id="node8" class="node">
<title>dir_ea20a9aaa4792751d6e0a54abfdc92d3</title>
<g id="a_node8"><a xlink:href="dir_ea20a9aaa4792751d6e0a54abfdc92d3.html" target="_top" xlink:title="Managers">
<polygon fill="#98fdce" stroke="#404040" points="142.38,-156 83.62,-156 83.62,-136 142.38,-136 142.38,-156"/>
<text text-anchor="middle" x="113" y="-142.5" font-family="Helvetica,sans-Serif" font-size="10.00">Managers</text>
</a>
</g>
</g>
<!-- dir_8956d8d5ac8f7fdad37e7ec3ce752fa0&#45;&gt;dir_ea20a9aaa4792751d6e0a54abfdc92d3 -->
<g id="edge9" class="edge">
<title>dir_8956d8d5ac8f7fdad37e7ec3ce752fa0&#45;&gt;dir_ea20a9aaa4792751d6e0a54abfdc92d3</title>
<g id="a_edge9"><a xlink:href="dir_000006_000022.html" target="_top">
<path fill="none" stroke="#63b8ff" d="M116.68,-247.63C120.86,-238.72 126.66,-224.82 129,-212 131.81,-196.59 127.23,-179.4 122.26,-166.56"/>
<polygon fill="#63b8ff" stroke="#63b8ff" points="125.56,-165.37 118.39,-157.57 119.13,-168.14 125.56,-165.37"/>
</a>
</g>
<g id="a_edge9&#45;headlabel"><a xlink:href="dir_000006_000022.html" target="_top" xlink:title="2">
<text text-anchor="middle" x="128.99" y="-162.66" font-family="Helvetica,sans-Serif" font-size="10.00" fill="#63b8ff">2</text>
</a>
</g>
</g>
<!-- dir_8956d8d5ac8f7fdad37e7ec3ce752fa0&#45;&gt;dir_ba98d1c57f2db257d685d96c8633f8b6 -->
<g id="edge8" class="edge">
<title>dir_8956d8d5ac8f7fdad37e7ec3ce752fa0&#45;&gt;dir_ba98d1c57f2db257d685d96c8633f8b6</title>
<g id="a_edge8"><a xlink:href="dir_000006_000054.html" target="_top">
<path fill="none" stroke="#63b8ff" d="M112.54,-247.75C117.44,-238.92 127.73,-225.07 135,-212 161.25,-164.83 167.34,-151.95 182,-100 186.13,-85.34 188.68,-68.32 191.43,-55.37"/>
<polygon fill="#63b8ff" stroke="#63b8ff" points="194.77,-56.43 193.83,-45.88 187.99,-54.71 194.77,-56.43"/>
</a>
</g>
<g id="a_edge8&#45;headlabel"><a xlink:href="dir_000006_000054.html" target="_top" xlink:title="2">
<text text-anchor="middle" x="197.02" y="-55.64" font-family="Helvetica,sans-Serif" font-size="10.00" fill="#63b8ff">2</text>
</a>
</g>
</g>
<!-- dir_63772b185c678f1e53c3e3ae39f2acc3 -->
<g id="node5" class="node">
<title>dir_63772b185c678f1e53c3e3ae39f2acc3</title>
<g id="a_node5"><a xlink:href="dir_63772b185c678f1e53c3e3ae39f2acc3.html" target="_top" xlink:title="Fonts">
<polygon fill="#98fdce" stroke="#404040" points="202.38,-268 161.62,-268 161.62,-248 202.38,-248 202.38,-268"/>
<text text-anchor="middle" x="182" y="-254.5" font-family="Helvetica,sans-Serif" font-size="10.00">Fonts</text>
</a>
</g>
</g>
<!-- dir_809c4f716c50d1269b0b29ab8c19935a&#45;&gt;dir_f7870abe4f66b42600bbfbf2982a92ee -->
<g id="edge14" class="edge">
<title>dir_809c4f716c50d1269b0b29ab8c19935a&#45;&gt;dir_f7870abe4f66b42600bbfbf2982a92ee</title>
<g id="a_edge14"><a xlink:href="dir_000016_000002.html" target="_top">
<path fill="none" stroke="#63b8ff" d="M83.5,-191.76C76.08,-183.15 65.65,-169.64 60,-156 54.09,-141.74 51.35,-124.46 50.09,-111.3"/>
<polygon fill="#63b8ff" stroke="#63b8ff" points="53.61,-111.41 49.38,-101.69 46.62,-111.92 53.61,-111.41"/>
</a>
</g>
<g id="a_edge14&#45;headlabel"><a xlink:href="dir_000016_000002.html" target="_top" xlink:title="1">
<text text-anchor="middle" x="56.59" y="-109.78" font-family="Helvetica,sans-Serif" font-size="10.00" fill="#63b8ff">1</text>
</a>
</g>
</g>
<!-- dir_809c4f716c50d1269b0b29ab8c19935a&#45;&gt;dir_8956d8d5ac8f7fdad37e7ec3ce752fa0 -->
<g id="edge11" class="edge">
<title>dir_809c4f716c50d1269b0b29ab8c19935a&#45;&gt;dir_8956d8d5ac8f7fdad37e7ec3ce752fa0</title>
<g id="a_edge11"><a xlink:href="dir_000016_000006.html" target="_top">
<path fill="none" stroke="#63b8ff" d="M100.69,-212.3C104.53,-219.01 108.42,-228.32 111.05,-236.71"/>
<polygon fill="#63b8ff" stroke="#63b8ff" points="107.58,-237.28 113.41,-246.13 114.37,-235.57 107.58,-237.28"/>
</a>
</g>
<g id="a_edge11&#45;headlabel"><a xlink:href="dir_000016_000006.html" target="_top" xlink:title="6">
<text text-anchor="middle" x="104.32" y="-232.46" font-family="Helvetica,sans-Serif" font-size="10.00" fill="#63b8ff">6</text>
</a>
</g>
</g>
<!-- dir_809c4f716c50d1269b0b29ab8c19935a&#45;&gt;dir_3c3c6b6eb1652c0454092c25623ff2b4 -->
<g id="edge10" class="edge">
<title>dir_809c4f716c50d1269b0b29ab8c19935a&#45;&gt;dir_3c3c6b6eb1652c0454092c25623ff2b4</title>
<g id="a_edge10"><a xlink:href="dir_000016_000019.html" target="_top">
<path fill="none" stroke="#63b8ff" d="M102.7,-191.56C114.33,-183.75 131.72,-171.44 142,-156 150.91,-142.62 155.15,-124.81 158.58,-111.22"/>
<polygon fill="#63b8ff" stroke="#63b8ff" points="161.94,-112.19 161.2,-101.62 155.19,-110.35 161.94,-112.19"/>
</a>
</g>
<g id="a_edge10&#45;headlabel"><a xlink:href="dir_000016_000019.html" target="_top" xlink:title="1">
<text text-anchor="middle" x="164.13" y="-111.45" font-family="Helvetica,sans-Serif" font-size="10.00" fill="#63b8ff">1</text>
</a>
</g>
</g>
<!-- dir_809c4f716c50d1269b0b29ab8c19935a&#45;&gt;dir_ea20a9aaa4792751d6e0a54abfdc92d3 -->
<g id="edge13" class="edge">
<title>dir_809c4f716c50d1269b0b29ab8c19935a&#45;&gt;dir_ea20a9aaa4792751d6e0a54abfdc92d3</title>
<g id="a_edge13"><a xlink:href="dir_000016_000022.html" target="_top">
<path fill="none" stroke="#63b8ff" d="M90.39,-191.59C91.71,-184.63 95.08,-174.89 99,-166.29"/>
<polygon fill="#63b8ff" stroke="#63b8ff" points="101.98,-168.14 103.45,-157.64 95.76,-164.94 101.98,-168.14"/>
</a>
</g>
<g id="a_edge13&#45;headlabel"><a xlink:href="dir_000016_000022.html" target="_top" xlink:title="2">
<text text-anchor="middle" x="103.56" y="-167.79" font-family="Helvetica,sans-Serif" font-size="10.00" fill="#63b8ff">2</text>
</a>
</g>
</g>
<!-- dir_809c4f716c50d1269b0b29ab8c19935a&#45;&gt;dir_ba98d1c57f2db257d685d96c8633f8b6 -->
<g id="edge12" class="edge">
<title>dir_809c4f716c50d1269b0b29ab8c19935a&#45;&gt;dir_ba98d1c57f2db257d685d96c8633f8b6</title>
<g id="a_edge12"><a xlink:href="dir_000016_000054.html" target="_top">
<path fill="none" stroke="#63b8ff" d="M85.86,-191.52C78.35,-178.67 67.5,-155.11 75,-136 91.39,-94.27 136.47,-65.26 168,-49.37"/>
<polygon fill="#63b8ff" stroke="#63b8ff" points="169.27,-52.64 176.75,-45.14 166.23,-46.34 169.27,-52.64"/>
</a>
</g>
<g id="a_edge12&#45;headlabel"><a xlink:href="dir_000016_000054.html" target="_top" xlink:title="5">
<text text-anchor="middle" x="168.63" y="-52.6" font-family="Helvetica,sans-Serif" font-size="10.00" fill="#63b8ff">5</text>
</a>
</g>
</g>
<!-- dir_3c3c6b6eb1652c0454092c25623ff2b4&#45;&gt;dir_8956d8d5ac8f7fdad37e7ec3ce752fa0 -->
<g id="edge16" class="edge">
<title>dir_3c3c6b6eb1652c0454092c25623ff2b4&#45;&gt;dir_8956d8d5ac8f7fdad37e7ec3ce752fa0</title>
<g id="a_edge16"><a xlink:href="dir_000019_000006.html" target="_top">
<path fill="none" stroke="#63b8ff" d="M173.83,-100.44C176.22,-113.25 174.5,-136.76 169,-156 161.45,-182.38 154.8,-187.23 143,-212 138.89,-220.62 134.26,-230.13 129.59,-238.18"/>
<polygon fill="#63b8ff" stroke="#63b8ff" points="126.75,-236.13 124.31,-246.44 132.64,-239.91 126.75,-236.13"/>
</a>
</g>
<g id="a_edge16&#45;headlabel"><a xlink:href="dir_000019_000006.html" target="_top" xlink:title="1">
<text text-anchor="middle" x="125.48" y="-229.35" font-family="Helvetica,sans-Serif" font-size="10.00" fill="#63b8ff">1</text>
</a>
</g>
</g>
<!-- dir_3c3c6b6eb1652c0454092c25623ff2b4&#45;&gt;dir_809c4f716c50d1269b0b29ab8c19935a -->
<g id="edge15" class="edge">
<title>dir_3c3c6b6eb1652c0454092c25623ff2b4&#45;&gt;dir_809c4f716c50d1269b0b29ab8c19935a</title>
<g id="a_edge15"><a xlink:href="dir_000019_000016.html" target="_top">
<path fill="none" stroke="#63b8ff" d="M173.34,-100.16C175.31,-113.49 171.64,-138.52 160,-156 151.89,-168.18 139.35,-178.42 127.13,-186.03"/>
<polygon fill="#63b8ff" stroke="#63b8ff" points="125.74,-182.8 118.8,-190.81 129.22,-188.87 125.74,-182.8"/>
</a>
</g>
<g id="a_edge15&#45;headlabel"><a xlink:href="dir_000019_000016.html" target="_top" xlink:title="1">
<text text-anchor="middle" x="126.13" y="-175.8" font-family="Helvetica,sans-Serif" font-size="10.00" fill="#63b8ff">1</text>
</a>
</g>
</g>
<!-- dir_3c3c6b6eb1652c0454092c25623ff2b4&#45;&gt;dir_ba98d1c57f2db257d685d96c8633f8b6 -->
<g id="edge17" class="edge">
<title>dir_3c3c6b6eb1652c0454092c25623ff2b4&#45;&gt;dir_ba98d1c57f2db257d685d96c8633f8b6</title>
<g id="a_edge17"><a xlink:href="dir_000019_000054.html" target="_top">
<path fill="none" stroke="#63b8ff" d="M173.75,-79.59C178.05,-72.55 184.09,-62.67 189.39,-54"/>
<polygon fill="#63b8ff" stroke="#63b8ff" points="192.3,-55.95 194.53,-45.59 186.33,-52.3 192.3,-55.95"/>
</a>
</g>
<g id="a_edge17&#45;headlabel"><a xlink:href="dir_000019_000054.html" target="_top" xlink:title="7">
<text text-anchor="middle" x="193.64" y="-55.7" font-family="Helvetica,sans-Serif" font-size="10.00" fill="#63b8ff">7</text>
</a>
</g>
</g>
<!-- dir_ea20a9aaa4792751d6e0a54abfdc92d3&#45;&gt;dir_f7870abe4f66b42600bbfbf2982a92ee -->
<g id="edge21" class="edge">
<title>dir_ea20a9aaa4792751d6e0a54abfdc92d3&#45;&gt;dir_f7870abe4f66b42600bbfbf2982a92ee</title>
<g id="a_edge21"><a xlink:href="dir_000022_000002.html" target="_top">
<path fill="none" stroke="#63b8ff" d="M101.85,-135.59C92.67,-127.85 79.45,-116.69 68.52,-107.47"/>
<polygon fill="#63b8ff" stroke="#63b8ff" points="71.08,-105.05 61.18,-101.27 66.56,-110.4 71.08,-105.05"/>
</a>
</g>
<g id="a_edge21&#45;headlabel"><a xlink:href="dir_000022_000002.html" target="_top" xlink:title="1">
<text text-anchor="middle" x="74.5" y="-100.72" font-family="Helvetica,sans-Serif" font-size="10.00" fill="#63b8ff">1</text>
</a>
</g>
</g>
<!-- dir_ea20a9aaa4792751d6e0a54abfdc92d3&#45;&gt;dir_809c4f716c50d1269b0b29ab8c19935a -->
<g id="edge19" class="edge">
<title>dir_ea20a9aaa4792751d6e0a54abfdc92d3&#45;&gt;dir_809c4f716c50d1269b0b29ab8c19935a</title>
<g id="a_edge19"><a xlink:href="dir_000022_000016.html" target="_top">
<path fill="none" stroke="#63b8ff" d="M114.63,-156.3C113.34,-163.24 109.97,-172.97 106.06,-181.58"/>
<polygon fill="#63b8ff" stroke="#63b8ff" points="103.06,-179.75 101.62,-190.25 109.29,-182.95 103.06,-179.75"/>
</a>
</g>
<g id="a_edge19&#45;headlabel"><a xlink:href="dir_000022_000016.html" target="_top" xlink:title="1">
<text text-anchor="middle" x="101.49" y="-173.1" font-family="Helvetica,sans-Serif" font-size="10.00" fill="#63b8ff">1</text>
</a>
</g>
</g>
<!-- dir_ea20a9aaa4792751d6e0a54abfdc92d3&#45;&gt;dir_3c3c6b6eb1652c0454092c25623ff2b4 -->
<g id="edge18" class="edge">
<title>dir_ea20a9aaa4792751d6e0a54abfdc92d3&#45;&gt;dir_3c3c6b6eb1652c0454092c25623ff2b4</title>
<g id="a_edge18"><a xlink:href="dir_000022_000019.html" target="_top">
<path fill="none" stroke="#63b8ff" d="M122.58,-135.59C130.23,-128.08 141.16,-117.35 150.38,-108.3"/>
<polygon fill="#63b8ff" stroke="#63b8ff" points="152.77,-110.86 157.45,-101.36 147.86,-105.87 152.77,-110.86"/>
</a>
</g>
<g id="a_edge18&#45;headlabel"><a xlink:href="dir_000022_000019.html" target="_top" xlink:title="1">
<text text-anchor="middle" x="153.27" y="-110.85" font-family="Helvetica,sans-Serif" font-size="10.00" fill="#63b8ff">1</text>
</a>
</g>
</g>
<!-- dir_ea20a9aaa4792751d6e0a54abfdc92d3&#45;&gt;dir_ba98d1c57f2db257d685d96c8633f8b6 -->
<g id="edge20" class="edge">
<title>dir_ea20a9aaa4792751d6e0a54abfdc92d3&#45;&gt;dir_ba98d1c57f2db257d685d96c8633f8b6</title>
<g id="a_edge20"><a xlink:href="dir_000022_000054.html" target="_top">
<path fill="none" stroke="#63b8ff" d="M116.04,-135.89C120.77,-122.62 130.84,-97.67 145,-80 153.96,-68.82 166.15,-58.62 176.87,-50.76"/>
<polygon fill="#63b8ff" stroke="#63b8ff" points="178.75,-53.72 184.93,-45.12 174.73,-47.99 178.75,-53.72"/>
</a>
</g>
<g id="a_edge20&#45;headlabel"><a xlink:href="dir_000022_000054.html" target="_top" xlink:title="1">
<text text-anchor="middle" x="178.67" y="-53.74" font-family="Helvetica,sans-Serif" font-size="10.00" fill="#63b8ff">1</text>
</a>
</g>
</g>
<!-- dir_988fd135e1ae5f32fb9b8adece6056e2 -->
<g id="node9" class="node">
<title>dir_988fd135e1ae5f32fb9b8adece6056e2</title>
<g id="a_node9"><a xlink:href="dir_988fd135e1ae5f32fb9b8adece6056e2.html" target="_top" xlink:title="Platform">
<polygon fill="#98fdce" stroke="#404040" points="262,-380 210,-380 210,-360 262,-360 262,-380"/>
<text text-anchor="middle" x="236" y="-366.5" font-family="Helvetica,sans-Serif" font-size="10.00">Platform</text>
</a>
</g>
</g>
<!-- dir_2e45d1cfd81b932e70cd071fc9b76dab&#45;&gt;dir_8956d8d5ac8f7fdad37e7ec3ce752fa0 -->
<g id="edge25" class="edge">
<title>dir_2e45d1cfd81b932e70cd071fc9b76dab&#45;&gt;dir_8956d8d5ac8f7fdad37e7ec3ce752fa0</title>
<g id="a_edge25"><a xlink:href="dir_000045_000006.html" target="_top">
<path fill="none" stroke="#63b8ff" d="M140.9,-303.59C136.29,-296.47 129.79,-286.45 124.13,-277.72"/>
<polygon fill="#63b8ff" stroke="#63b8ff" points="127.23,-276.06 118.85,-269.57 121.35,-279.86 127.23,-276.06"/>
</a>
</g>
<g id="a_edge25&#45;headlabel"><a xlink:href="dir_000045_000006.html" target="_top" xlink:title="1">
<text text-anchor="middle" x="130.74" y="-272.76" font-family="Helvetica,sans-Serif" font-size="10.00" fill="#63b8ff">1</text>
</a>
</g>
</g>
<!-- dir_2e45d1cfd81b932e70cd071fc9b76dab&#45;&gt;dir_63772b185c678f1e53c3e3ae39f2acc3 -->
<g id="edge23" class="edge">
<title>dir_2e45d1cfd81b932e70cd071fc9b76dab&#45;&gt;dir_63772b185c678f1e53c3e3ae39f2acc3</title>
<g id="a_edge23"><a xlink:href="dir_000045_000010.html" target="_top">
<path fill="none" stroke="#63b8ff" d="M153.1,-303.59C157.71,-296.47 164.21,-286.45 169.87,-277.72"/>
<polygon fill="#63b8ff" stroke="#63b8ff" points="172.65,-279.86 175.15,-269.57 166.77,-276.06 172.65,-279.86"/>
</a>
</g>
<g id="a_edge23&#45;headlabel"><a xlink:href="dir_000045_000010.html" target="_top" xlink:title="2">
<text text-anchor="middle" x="173.9" y="-279.65" font-family="Helvetica,sans-Serif" font-size="10.00" fill="#63b8ff">2</text>
</a>
</g>
</g>
<!-- dir_2e45d1cfd81b932e70cd071fc9b76dab&#45;&gt;dir_809c4f716c50d1269b0b29ab8c19935a -->
<g id="edge24" class="edge">
<title>dir_2e45d1cfd81b932e70cd071fc9b76dab&#45;&gt;dir_809c4f716c50d1269b0b29ab8c19935a</title>
<g id="a_edge24"><a xlink:href="dir_000045_000016.html" target="_top">
<path fill="none" stroke="#63b8ff" d="M132.23,-308.99C114.3,-303.23 84.87,-290.73 72,-268 63.83,-253.57 70.64,-235.41 78.46,-221.95"/>
<polygon fill="#63b8ff" stroke="#63b8ff" points="81.37,-223.9 83.86,-213.6 75.49,-220.1 81.37,-223.9"/>
</a>
</g>
<g id="a_edge24&#45;headlabel"><a xlink:href="dir_000045_000016.html" target="_top" xlink:title="2">
<text text-anchor="middle" x="82.62" y="-223.69" font-family="Helvetica,sans-Serif" font-size="10.00" fill="#63b8ff">2</text>
</a>
</g>
</g>
<!-- dir_2e45d1cfd81b932e70cd071fc9b76dab&#45;&gt;dir_3c3c6b6eb1652c0454092c25623ff2b4 -->
<g id="edge22" class="edge">
<title>dir_2e45d1cfd81b932e70cd071fc9b76dab&#45;&gt;dir_3c3c6b6eb1652c0454092c25623ff2b4</title>
<g id="a_edge22"><a xlink:href="dir_000045_000019.html" target="_top">
<path fill="none" stroke="#63b8ff" d="M161.88,-307.4C177.36,-300.68 200.73,-287.77 211,-268 238.62,-214.82 201.79,-143.39 180.79,-109.86"/>
<polygon fill="#63b8ff" stroke="#63b8ff" points="183.84,-108.13 175.46,-101.65 177.97,-111.94 183.84,-108.13"/>
</a>
</g>
<g id="a_edge22&#45;headlabel"><a xlink:href="dir_000045_000019.html" target="_top" xlink:title="1">
<text text-anchor="middle" x="187.35" y="-104.83" font-family="Helvetica,sans-Serif" font-size="10.00" fill="#63b8ff">1</text>
</a>
</g>
</g>
<!-- dir_2e45d1cfd81b932e70cd071fc9b76dab&#45;&gt;dir_ba98d1c57f2db257d685d96c8633f8b6 -->
<g id="edge26" class="edge">
<title>dir_2e45d1cfd81b932e70cd071fc9b76dab&#45;&gt;dir_ba98d1c57f2db257d685d96c8633f8b6</title>
<g id="a_edge26"><a xlink:href="dir_000045_000054.html" target="_top">
<path fill="none" stroke="#63b8ff" d="M161.81,-307.34C178.05,-300.41 203.82,-287.19 219,-268 237.92,-244.08 241,-233.5 241,-203 241,-203 241,-203 241,-145 241,-111.43 224.34,-75.38 212.53,-54.03"/>
<polygon fill="#63b8ff" stroke="#63b8ff" points="215.69,-52.51 207.66,-45.6 209.63,-56.01 215.69,-52.51"/>
</a>
</g>
<g id="a_edge26&#45;headlabel"><a xlink:href="dir_000045_000054.html" target="_top" xlink:title="5">
<text text-anchor="middle" x="219.19" y="-49.39" font-family="Helvetica,sans-Serif" font-size="10.00" fill="#63b8ff">5</text>
</a>
</g>
</g>
<!-- dir_ba98d1c57f2db257d685d96c8633f8b6&#45;&gt;dir_8956d8d5ac8f7fdad37e7ec3ce752fa0 -->
<g id="edge27" class="edge">
<title>dir_ba98d1c57f2db257d685d96c8633f8b6&#45;&gt;dir_8956d8d5ac8f7fdad37e7ec3ce752fa0</title>
<g id="a_edge27"><a xlink:href="dir_000054_000006.html" target="_top">
<path fill="none" stroke="#63b8ff" d="M206.35,-44.41C208.14,-57.19 205.46,-80.66 200,-100 185.34,-151.95 179.25,-164.83 153,-212 147.72,-221.49 140.84,-231.4 134.03,-239.5"/>
<polygon fill="#63b8ff" stroke="#63b8ff" points="131.67,-236.9 127.49,-246.63 136.83,-241.63 131.67,-236.9"/>
</a>
</g>
<g id="a_edge27&#45;headlabel"><a xlink:href="dir_000054_000006.html" target="_top" xlink:title="1">
<text text-anchor="middle" x="130.98" y="-229.94" font-family="Helvetica,sans-Serif" font-size="10.00" fill="#63b8ff">1</text>
</a>
</g>
</g>
</g>
</svg>
