<?xml version="1.0" encoding="UTF-8" standalone="no"?>
<!DOCTYPE svg PUBLIC "-//W3C//DTD SVG 1.1//EN"
 "http://www.w3.org/Graphics/SVG/1.1/DTD/svg11.dtd">
<!-- Generated by graphviz version 10.0.1 (20240210.2158)
 -->
<!-- Title: D:/GEU/GEUModules Pages: 1 -->
<svg width="861pt" height="144pt"
 viewBox="0.00 0.00 861.00 144.00" xmlns="http://www.w3.org/2000/svg" xmlns:xlink="http://www.w3.org/1999/xlink">
<g id="graph0" class="graph" transform="scale(1 1) rotate(0) translate(4 140)">
<title>D:/GEU/GEUModules</title>
<g id="clust1" class="cluster">
<title>clusterdir_a85d0d78e2eb84ff9365cb4c4d12fb89</title>
<g id="a_clust1"><a xlink:href="dir_a85d0d78e2eb84ff9365cb4c4d12fb89.html" target="_top" xlink:title="GEU">
<polygon fill="#ebfef5" stroke="#404040" stroke-dasharray="5,2" points="8,-8 8,-128 845,-128 845,-8 8,-8"/>
<text text-anchor="middle" x="426.5" y="-114.5" font-family="Helvetica,sans-Serif" font-size="10.00">GEU</text>
</a>
</g>
</g>
<g id="clust2" class="cluster">
<title>clusterdir_70e1bd6aad29eaa9efcef7cf630be9eb</title>
<g id="a_clust2"><a xlink:href="dir_70e1bd6aad29eaa9efcef7cf630be9eb.html" target="_top">
<polygon fill="#ebfef5" stroke="#404040" stroke-width="2" points="16,-64 16,-100 837,-100 837,-64 16,-64"/>
</a>
</g>
</g>
<!-- dir_27e7292ccf631aad9354b9464cb90a84 -->
<g id="node1" class="node">
<title>dir_27e7292ccf631aad9354b9464cb90a84</title>
<g id="a_node1"><a xlink:href="dir_27e7292ccf631aad9354b9464cb90a84.html" target="_top" xlink:title="GEUCore">
<polygon fill="#98fdce" stroke="red" points="511.62,-36 454.38,-36 454.38,-16 511.62,-16 511.62,-36"/>
<text text-anchor="middle" x="483" y="-22.5" font-family="Helvetica,sans-Serif" font-size="10.00">GEUCore</text>
</a>
</g>
</g>
<!-- dir_70e1bd6aad29eaa9efcef7cf630be9eb -->
<g id="node2" class="node">
<title>dir_70e1bd6aad29eaa9efcef7cf630be9eb</title>
<text text-anchor="middle" x="61" y="-78.5" font-family="Helvetica,sans-Serif" font-size="10.00">GEUModules</text>
</g>
<!-- dir_a6871284801cd8e0d42b8cd7d010316e -->
<g id="node3" class="node">
<title>dir_a6871284801cd8e0d42b8cd7d010316e</title>
<g id="a_node3"><a xlink:href="dir_a6871284801cd8e0d42b8cd7d010316e.html" target="_top" xlink:title="Analisis_Hyper">
<polygon fill="#98fdce" stroke="#404040" points="197.62,-92 116.38,-92 116.38,-72 197.62,-72 197.62,-92"/>
<text text-anchor="middle" x="157" y="-78.5" font-family="Helvetica,sans-Serif" font-size="10.00">Analisis_Hyper</text>
</a>
</g>
</g>
<!-- dir_a6871284801cd8e0d42b8cd7d010316e&#45;&gt;dir_27e7292ccf631aad9354b9464cb90a84 -->
<g id="edge1" class="edge">
<title>dir_a6871284801cd8e0d42b8cd7d010316e&#45;&gt;dir_27e7292ccf631aad9354b9464cb90a84</title>
<g id="a_edge1"><a xlink:href="dir_000001_000014.html" target="_top">
<path fill="none" stroke="#63b8ff" d="M181.65,-71.56C189.64,-68.78 198.61,-65.97 207,-64 289.66,-44.6 388.79,-34.41 442.9,-29.92"/>
<polygon fill="#63b8ff" stroke="#63b8ff" points="442.86,-33.43 452.55,-29.14 442.3,-26.45 442.86,-33.43"/>
</a>
</g>
<g id="a_edge1&#45;headlabel"><a xlink:href="dir_000001_000014.html" target="_top" xlink:title="12">
<text text-anchor="middle" x="441.02" y="-32.93" font-family="Helvetica,sans-Serif" font-size="10.00" fill="#63b8ff">12</text>
</a>
</g>
</g>
<!-- dir_0129ba3f32007c239cd60995d242a57e -->
<g id="node4" class="node">
<title>dir_0129ba3f32007c239cd60995d242a57e</title>
<g id="a_node4"><a xlink:href="dir_0129ba3f32007c239cd60995d242a57e.html" target="_top" xlink:title="ComparacionNormales">
<polygon fill="#98fdce" stroke="#404040" points="330.12,-92 215.88,-92 215.88,-72 330.12,-72 330.12,-92"/>
<text text-anchor="middle" x="273" y="-78.5" font-family="Helvetica,sans-Serif" font-size="10.00">ComparacionNormales</text>
</a>
</g>
</g>
<!-- dir_0129ba3f32007c239cd60995d242a57e&#45;&gt;dir_27e7292ccf631aad9354b9464cb90a84 -->
<g id="edge2" class="edge">
<title>dir_0129ba3f32007c239cd60995d242a57e&#45;&gt;dir_27e7292ccf631aad9354b9464cb90a84</title>
<g id="a_edge2"><a xlink:href="dir_000003_000014.html" target="_top">
<path fill="none" stroke="#63b8ff" d="M309.65,-71.55C319.21,-69.09 329.49,-66.45 339,-64 374.2,-54.94 414.24,-44.66 443.15,-37.23"/>
<polygon fill="#63b8ff" stroke="#63b8ff" points="443.76,-40.69 452.57,-34.81 442.02,-33.91 443.76,-40.69"/>
</a>
</g>
<g id="a_edge2&#45;headlabel"><a xlink:href="dir_000003_000014.html" target="_top" xlink:title="2">
<text text-anchor="middle" x="442.45" y="-40.46" font-family="Helvetica,sans-Serif" font-size="10.00" fill="#63b8ff">2</text>
</a>
</g>
</g>
<!-- dir_86b37628ca0b061e7a196be0ad48b8b4 -->
<g id="node5" class="node">
<title>dir_86b37628ca0b061e7a196be0ad48b8b4</title>
<g id="a_node5"><a xlink:href="dir_86b37628ca0b061e7a196be0ad48b8b4.html" target="_top" xlink:title="Hiperespectral">
<polygon fill="#98fdce" stroke="#404040" points="426.12,-92 347.88,-92 347.88,-72 426.12,-72 426.12,-92"/>
<text text-anchor="middle" x="387" y="-78.5" font-family="Helvetica,sans-Serif" font-size="10.00">Hiperespectral</text>
</a>
</g>
</g>
<!-- dir_86b37628ca0b061e7a196be0ad48b8b4&#45;&gt;dir_27e7292ccf631aad9354b9464cb90a84 -->
<g id="edge3" class="edge">
<title>dir_86b37628ca0b061e7a196be0ad48b8b4&#45;&gt;dir_27e7292ccf631aad9354b9464cb90a84</title>
<g id="a_edge3"><a xlink:href="dir_000017_000014.html" target="_top">
<path fill="none" stroke="#63b8ff" d="M403.72,-71.59C418.22,-63.44 439.47,-51.48 456.32,-42"/>
<polygon fill="#63b8ff" stroke="#63b8ff" points="457.83,-45.17 464.83,-37.22 454.4,-39.07 457.83,-45.17"/>
</a>
</g>
<g id="a_edge3&#45;headlabel"><a xlink:href="dir_000017_000014.html" target="_top" xlink:title="11">
<text text-anchor="middle" x="457.41" y="-45.17" font-family="Helvetica,sans-Serif" font-size="10.00" fill="#63b8ff">11</text>
</a>
</g>
</g>
<!-- dir_604952758cc987df994525f86194e033 -->
<g id="node6" class="node">
<title>dir_604952758cc987df994525f86194e033</title>
<g id="a_node6"><a xlink:href="dir_604952758cc987df994525f86194e033.html" target="_top" xlink:title="Multiespectral">
<polygon fill="#98fdce" stroke="#404040" points="521.38,-92 444.62,-92 444.62,-72 521.38,-72 521.38,-92"/>
<text text-anchor="middle" x="483" y="-78.5" font-family="Helvetica,sans-Serif" font-size="10.00">Multiespectral</text>
</a>
</g>
</g>
<!-- dir_604952758cc987df994525f86194e033&#45;&gt;dir_27e7292ccf631aad9354b9464cb90a84 -->
<g id="edge4" class="edge">
<title>dir_604952758cc987df994525f86194e033&#45;&gt;dir_27e7292ccf631aad9354b9464cb90a84</title>
<g id="a_edge4"><a xlink:href="dir_000024_000014.html" target="_top">
<path fill="none" stroke="#63b8ff" d="M483,-71.59C483,-65.01 483,-55.96 483,-47.73"/>
<polygon fill="#63b8ff" stroke="#63b8ff" points="486.5,-47.81 483,-37.81 479.5,-47.81 486.5,-47.81"/>
</a>
</g>
<g id="a_edge4&#45;headlabel"><a xlink:href="dir_000024_000014.html" target="_top" xlink:title="13">
<text text-anchor="middle" x="489.34" y="-46.39" font-family="Helvetica,sans-Serif" font-size="10.00" fill="#63b8ff">13</text>
</a>
</g>
</g>
<!-- dir_ab3852577ff19ca34a462b36a64867c4 -->
<g id="node7" class="node">
<title>dir_ab3852577ff19ca34a462b36a64867c4</title>
<g id="a_node7"><a xlink:href="dir_ab3852577ff19ca34a462b36a64867c4.html" target="_top" xlink:title="Reconstruccion">
<polygon fill="#98fdce" stroke="#404040" points="622.75,-92 539.25,-92 539.25,-72 622.75,-72 622.75,-92"/>
<text text-anchor="middle" x="581" y="-78.5" font-family="Helvetica,sans-Serif" font-size="10.00">Reconstruccion</text>
</a>
</g>
</g>
<!-- dir_ab3852577ff19ca34a462b36a64867c4&#45;&gt;dir_27e7292ccf631aad9354b9464cb90a84 -->
<g id="edge5" class="edge">
<title>dir_ab3852577ff19ca34a462b36a64867c4&#45;&gt;dir_27e7292ccf631aad9354b9464cb90a84</title>
<g id="a_edge5"><a xlink:href="dir_000028_000014.html" target="_top">
<path fill="none" stroke="#63b8ff" d="M563.93,-71.59C549.12,-63.44 527.43,-51.48 510.23,-42"/>
<polygon fill="#63b8ff" stroke="#63b8ff" points="511.98,-38.97 501.53,-37.21 508.6,-45.1 511.98,-38.97"/>
</a>
</g>
<g id="a_edge5&#45;headlabel"><a xlink:href="dir_000028_000014.html" target="_top" xlink:title="12">
<text text-anchor="middle" x="515.17" y="-33.99" font-family="Helvetica,sans-Serif" font-size="10.00" fill="#63b8ff">12</text>
</a>
</g>
</g>
<!-- dir_f7c8e4a992185da6f82f0cffbd04253f -->
<g id="node8" class="node">
<title>dir_f7c8e4a992185da6f82f0cffbd04253f</title>
<g id="a_node8"><a xlink:href="dir_f7c8e4a992185da6f82f0cffbd04253f.html" target="_top" xlink:title="SegmentacionIndividuos">
<polygon fill="#98fdce" stroke="#404040" points="761.12,-92 640.88,-92 640.88,-72 761.12,-72 761.12,-92"/>
<text text-anchor="middle" x="701" y="-78.5" font-family="Helvetica,sans-Serif" font-size="10.00">SegmentacionIndividuos</text>
</a>
</g>
</g>
<!-- dir_f7c8e4a992185da6f82f0cffbd04253f&#45;&gt;dir_27e7292ccf631aad9354b9464cb90a84 -->
<g id="edge6" class="edge">
<title>dir_f7c8e4a992185da6f82f0cffbd04253f&#45;&gt;dir_27e7292ccf631aad9354b9464cb90a84</title>
<g id="a_edge6"><a xlink:href="dir_000029_000014.html" target="_top">
<path fill="none" stroke="#63b8ff" d="M662.78,-71.53C623.66,-61.84 563.1,-46.84 523.26,-36.97"/>
<polygon fill="#63b8ff" stroke="#63b8ff" points="524.12,-33.58 513.57,-34.57 522.44,-40.37 524.12,-33.58"/>
</a>
</g>
<g id="a_edge6&#45;headlabel"><a xlink:href="dir_000029_000014.html" target="_top" xlink:title="11">
<text text-anchor="middle" x="526.82" y="-27.82" font-family="Helvetica,sans-Serif" font-size="10.00" fill="#63b8ff">11</text>
</a>
</g>
</g>
<!-- dir_14095f3e1ac0f6cfee6b66e3def2c142 -->
<g id="node9" class="node">
<title>dir_14095f3e1ac0f6cfee6b66e3def2c142</title>
<g id="a_node9"><a xlink:href="dir_14095f3e1ac0f6cfee6b66e3def2c142.html" target="_top" xlink:title="Termica">
<polygon fill="#98fdce" stroke="#404040" points="829.25,-92 778.75,-92 778.75,-72 829.25,-72 829.25,-92"/>
<text text-anchor="middle" x="804" y="-78.5" font-family="Helvetica,sans-Serif" font-size="10.00">Termica</text>
</a>
</g>
</g>
<!-- dir_14095f3e1ac0f6cfee6b66e3def2c142&#45;&gt;dir_27e7292ccf631aad9354b9464cb90a84 -->
<g id="edge7" class="edge">
<title>dir_14095f3e1ac0f6cfee6b66e3def2c142&#45;&gt;dir_27e7292ccf631aad9354b9464cb90a84</title>
<g id="a_edge7"><a xlink:href="dir_000040_000014.html" target="_top">
<path fill="none" stroke="#63b8ff" d="M787.86,-71.54C782.36,-68.7 776.06,-65.85 770,-64 684.53,-37.94 579.3,-30.23 523.01,-27.95"/>
<polygon fill="#63b8ff" stroke="#63b8ff" points="523.4,-24.47 513.28,-27.6 523.15,-31.46 523.4,-24.47"/>
</a>
</g>
<g id="a_edge7&#45;headlabel"><a xlink:href="dir_000040_000014.html" target="_top" xlink:title="13">
<text text-anchor="middle" x="525.59" y="-18.2" font-family="Helvetica,sans-Serif" font-size="10.00" fill="#63b8ff">13</text>
</a>
</g>
</g>
</g>
</svg>
