<?xml version="1.0" encoding="UTF-8" standalone="no"?>
<!DOCTYPE svg PUBLIC "-//W3C//DTD SVG 1.1//EN"
 "http://www.w3.org/Graphics/SVG/1.1/DTD/svg11.dtd">
<!-- Generated by graphviz version 10.0.1 (20240210.2158)
 -->
<!-- Title: D:/GEU/GEUApp/Source/UI Pages: 1 -->
<svg width="313pt" height="240pt"
 viewBox="0.00 0.00 312.96 240.00" xmlns="http://www.w3.org/2000/svg" xmlns:xlink="http://www.w3.org/1999/xlink">
<g id="graph0" class="graph" transform="scale(1 1) rotate(0) translate(4 236)">
<title>D:/GEU/GEUApp/Source/UI</title>
<g id="clust1" class="cluster">
<title>clusterdir_f2ac7c6e4501a428e303b82d0f866b72</title>
<g id="a_clust1"><a xlink:href="dir_f2ac7c6e4501a428e303b82d0f866b72.html" target="_top" xlink:title="Source">
<polygon fill="#ebfef5" stroke="#7f7f7f" stroke-dasharray="5,2" points="8,-40 8,-224 207,-224 207,-40 8,-40"/>
<text text-anchor="middle" x="107.5" y="-210.5" font-family="Helvetica,sans-Serif" font-size="10.00">Source</text>
</a>
</g>
</g>
<g id="clust2" class="cluster">
<title>clusterdir_201d0ca4247bd2216c2f0ac04b8cedca</title>
<g id="a_clust2"><a xlink:href="dir_201d0ca4247bd2216c2f0ac04b8cedca.html" target="_top">
<polygon fill="#ebfef5" stroke="#404040" stroke-width="2" points="16,-48 16,-196 199,-196 199,-48 16,-48"/>
</a>
</g>
</g>
<!-- dir_201d0ca4247bd2216c2f0ac04b8cedca -->
<g id="node1" class="node">
<title>dir_201d0ca4247bd2216c2f0ac04b8cedca</title>
<text text-anchor="middle" x="123" y="-174.5" font-family="Helvetica,sans-Serif" font-size="10.00">UI</text>
</g>
<!-- dir_d6d8f22b6d86cc0f8322458917ada218 -->
<g id="node2" class="node">
<title>dir_d6d8f22b6d86cc0f8322458917ada218</title>
<g id="a_node2"><a xlink:href="dir_d6d8f22b6d86cc0f8322458917ada218.html" target="_top" xlink:title="MainWindows">
<polygon fill="#98fdce" stroke="#404040" points="120.38,-132 43.62,-132 43.62,-112 120.38,-112 120.38,-132"/>
<text text-anchor="middle" x="82" y="-118.5" font-family="Helvetica,sans-Serif" font-size="10.00">MainWindows</text>
</a>
</g>
</g>
<!-- dir_201d0ca4247bd2216c2f0ac04b8cedca&#45;&gt;dir_d6d8f22b6d86cc0f8322458917ada218 -->
<g id="edge4" class="edge">
<title>dir_201d0ca4247bd2216c2f0ac04b8cedca&#45;&gt;dir_d6d8f22b6d86cc0f8322458917ada218</title>
<g id="a_edge4"><a xlink:href="dir_000041_000021.html" target="_top">
<path fill="none" stroke="#63b8ff" d="M116.23,-168.08C110.75,-160.87 102.85,-150.46 96.02,-141.47"/>
<polygon fill="#63b8ff" stroke="#63b8ff" points="98.94,-139.53 90.11,-133.68 93.37,-143.76 98.94,-139.53"/>
</a>
</g>
<g id="a_edge4&#45;headlabel"><a xlink:href="dir_000041_000021.html" target="_top" xlink:title="9">
<text text-anchor="middle" x="102.46" y="-135.97" font-family="Helvetica,sans-Serif" font-size="10.00" fill="#63b8ff">9</text>
</a>
</g>
</g>
<!-- dir_bea50f326174bc395fc3cff627dc2732 -->
<g id="node3" class="node">
<title>dir_bea50f326174bc395fc3cff627dc2732</title>
<g id="a_node3"><a xlink:href="dir_bea50f326174bc395fc3cff627dc2732.html" target="_top" xlink:title="Modules">
<polygon fill="#98fdce" stroke="#404040" points="191.38,-132 138.62,-132 138.62,-112 191.38,-112 191.38,-132"/>
<text text-anchor="middle" x="165" y="-118.5" font-family="Helvetica,sans-Serif" font-size="10.00">Modules</text>
</a>
</g>
</g>
<!-- dir_201d0ca4247bd2216c2f0ac04b8cedca&#45;&gt;dir_bea50f326174bc395fc3cff627dc2732 -->
<g id="edge3" class="edge">
<title>dir_201d0ca4247bd2216c2f0ac04b8cedca&#45;&gt;dir_bea50f326174bc395fc3cff627dc2732</title>
<g id="a_edge3"><a xlink:href="dir_000041_000023.html" target="_top">
<path fill="none" stroke="#63b8ff" d="M129.94,-168.08C135.55,-160.87 143.64,-150.46 150.64,-141.47"/>
<polygon fill="#63b8ff" stroke="#63b8ff" points="153.32,-143.71 156.7,-133.67 147.8,-139.42 153.32,-143.71"/>
</a>
</g>
<g id="a_edge3&#45;headlabel"><a xlink:href="dir_000041_000023.html" target="_top" xlink:title="1">
<text text-anchor="middle" x="154.29" y="-143.6" font-family="Helvetica,sans-Serif" font-size="10.00" fill="#63b8ff">1</text>
</a>
</g>
</g>
<!-- dir_8fb440dc97f5cef2ddb754b68c4f0f6e -->
<g id="node4" class="node">
<title>dir_8fb440dc97f5cef2ddb754b68c4f0f6e</title>
<g id="a_node4"><a xlink:href="dir_8fb440dc97f5cef2ddb754b68c4f0f6e.html" target="_top" xlink:title="Popups">
<polygon fill="#98fdce" stroke="#404040" points="98.5,-76 49.5,-76 49.5,-56 98.5,-56 98.5,-76"/>
<text text-anchor="middle" x="74" y="-62.5" font-family="Helvetica,sans-Serif" font-size="10.00">Popups</text>
</a>
</g>
</g>
<!-- dir_201d0ca4247bd2216c2f0ac04b8cedca&#45;&gt;dir_8fb440dc97f5cef2ddb754b68c4f0f6e -->
<g id="edge2" class="edge">
<title>dir_201d0ca4247bd2216c2f0ac04b8cedca&#45;&gt;dir_8fb440dc97f5cef2ddb754b68c4f0f6e</title>
<g id="a_edge2"><a xlink:href="dir_000041_000026.html" target="_top">
<path fill="none" stroke="#63b8ff" d="M108.94,-174.5C88.49,-170.02 51.21,-158.49 35,-132 24.99,-115.64 39.02,-96.84 52.96,-83.68"/>
<polygon fill="#63b8ff" stroke="#63b8ff" points="55.05,-86.5 60.27,-77.28 50.44,-81.23 55.05,-86.5"/>
</a>
</g>
<g id="a_edge2&#45;headlabel"><a xlink:href="dir_000041_000026.html" target="_top" xlink:title="8">
<text text-anchor="middle" x="55.35" y="-86.51" font-family="Helvetica,sans-Serif" font-size="10.00" fill="#63b8ff">8</text>
</a>
</g>
</g>
<!-- dir_27e7292ccf631aad9354b9464cb90a84 -->
<g id="node5" class="node">
<title>dir_27e7292ccf631aad9354b9464cb90a84</title>
<g id="a_node5"><a xlink:href="dir_27e7292ccf631aad9354b9464cb90a84.html" target="_top" xlink:title="GEUCore">
<polygon fill="#ebfef5" stroke="red" stroke-dasharray="5,2" points="174.62,-20 117.38,-20 117.38,0 174.62,0 174.62,-20"/>
<text text-anchor="middle" x="146" y="-6.5" font-family="Helvetica,sans-Serif" font-size="10.00">GEUCore</text>
</a>
</g>
</g>
<!-- dir_201d0ca4247bd2216c2f0ac04b8cedca&#45;&gt;dir_27e7292ccf631aad9354b9464cb90a84 -->
<g id="edge1" class="edge">
<title>dir_201d0ca4247bd2216c2f0ac04b8cedca&#45;&gt;dir_27e7292ccf631aad9354b9464cb90a84</title>
<g id="a_edge1"><a xlink:href="dir_000041_000014.html" target="_top">
<path fill="none" stroke="#63b8ff" d="M137.3,-173.86C172.34,-165.31 262.21,-137.97 298,-76 306,-62.14 308.2,-52.33 298,-40 284.05,-23.14 226.3,-15.99 186.14,-13.03"/>
<polygon fill="#63b8ff" stroke="#63b8ff" points="186.54,-9.55 176.33,-12.37 186.07,-16.53 186.54,-9.55"/>
</a>
</g>
<g id="a_edge1&#45;headlabel"><a xlink:href="dir_000041_000014.html" target="_top" xlink:title="59">
<text text-anchor="middle" x="188.81" y="-3.35" font-family="Helvetica,sans-Serif" font-size="10.00" fill="#63b8ff">59</text>
</a>
</g>
</g>
<!-- dir_d6d8f22b6d86cc0f8322458917ada218&#45;&gt;dir_8fb440dc97f5cef2ddb754b68c4f0f6e -->
<g id="edge6" class="edge">
<title>dir_d6d8f22b6d86cc0f8322458917ada218&#45;&gt;dir_8fb440dc97f5cef2ddb754b68c4f0f6e</title>
<g id="a_edge6"><a xlink:href="dir_000021_000026.html" target="_top">
<path fill="none" stroke="#63b8ff" d="M80.61,-111.59C79.62,-104.93 78.26,-95.75 77.03,-87.44"/>
<polygon fill="#63b8ff" stroke="#63b8ff" points="80.53,-87.17 75.6,-77.8 73.6,-88.2 80.53,-87.17"/>
</a>
</g>
<g id="a_edge6&#45;headlabel"><a xlink:href="dir_000021_000026.html" target="_top" xlink:title="3">
<text text-anchor="middle" x="83.64" y="-85.32" font-family="Helvetica,sans-Serif" font-size="10.00" fill="#63b8ff">3</text>
</a>
</g>
</g>
<!-- dir_d6d8f22b6d86cc0f8322458917ada218&#45;&gt;dir_27e7292ccf631aad9354b9464cb90a84 -->
<g id="edge5" class="edge">
<title>dir_d6d8f22b6d86cc0f8322458917ada218&#45;&gt;dir_27e7292ccf631aad9354b9464cb90a84</title>
<g id="a_edge5"><a xlink:href="dir_000021_000014.html" target="_top">
<path fill="none" stroke="#63b8ff" d="M87.46,-111.62C97.94,-93.6 121.09,-53.81 134.93,-30.02"/>
<polygon fill="#63b8ff" stroke="#63b8ff" points="137.79,-32.07 139.8,-21.66 131.74,-28.55 137.79,-32.07"/>
</a>
</g>
<g id="a_edge5&#45;headlabel"><a xlink:href="dir_000021_000014.html" target="_top" xlink:title="36">
<text text-anchor="middle" x="139.2" y="-31.79" font-family="Helvetica,sans-Serif" font-size="10.00" fill="#63b8ff">36</text>
</a>
</g>
</g>
<!-- dir_bea50f326174bc395fc3cff627dc2732&#45;&gt;dir_27e7292ccf631aad9354b9464cb90a84 -->
<g id="edge7" class="edge">
<title>dir_bea50f326174bc395fc3cff627dc2732&#45;&gt;dir_27e7292ccf631aad9354b9464cb90a84</title>
<g id="a_edge7"><a xlink:href="dir_000023_000014.html" target="_top">
<path fill="none" stroke="#63b8ff" d="M163.38,-111.62C160.34,-94.01 153.7,-55.59 149.57,-31.65"/>
<polygon fill="#63b8ff" stroke="#63b8ff" points="153.02,-31.1 147.87,-21.85 146.13,-32.3 153.02,-31.1"/>
</a>
</g>
<g id="a_edge7&#45;headlabel"><a xlink:href="dir_000023_000014.html" target="_top" xlink:title="2">
<text text-anchor="middle" x="156.18" y="-29.17" font-family="Helvetica,sans-Serif" font-size="10.00" fill="#63b8ff">2</text>
</a>
</g>
</g>
<!-- dir_70e1bd6aad29eaa9efcef7cf630be9eb -->
<g id="node6" class="node">
<title>dir_70e1bd6aad29eaa9efcef7cf630be9eb</title>
<g id="a_node6"><a xlink:href="dir_70e1bd6aad29eaa9efcef7cf630be9eb.html" target="_top" xlink:title="GEUModules">
<polygon fill="#ebfef5" stroke="red" stroke-dasharray="5,2" points="288.88,-76 215.12,-76 215.12,-56 288.88,-56 288.88,-76"/>
<text text-anchor="middle" x="252" y="-62.5" font-family="Helvetica,sans-Serif" font-size="10.00">GEUModules</text>
</a>
</g>
</g>
<!-- dir_bea50f326174bc395fc3cff627dc2732&#45;&gt;dir_70e1bd6aad29eaa9efcef7cf630be9eb -->
<g id="edge8" class="edge">
<title>dir_bea50f326174bc395fc3cff627dc2732&#45;&gt;dir_70e1bd6aad29eaa9efcef7cf630be9eb</title>
<g id="a_edge8"><a xlink:href="dir_000023_000015.html" target="_top">
<path fill="none" stroke="#63b8ff" d="M180.15,-111.59C193.05,-103.59 211.83,-91.93 226.96,-82.54"/>
<polygon fill="#63b8ff" stroke="#63b8ff" points="228.79,-85.53 235.44,-77.28 225.1,-79.58 228.79,-85.53"/>
</a>
</g>
<g id="a_edge8&#45;headlabel"><a xlink:href="dir_000023_000015.html" target="_top" xlink:title="6">
<text text-anchor="middle" x="228.52" y="-85.53" font-family="Helvetica,sans-Serif" font-size="10.00" fill="#63b8ff">6</text>
</a>
</g>
</g>
<!-- dir_8fb440dc97f5cef2ddb754b68c4f0f6e&#45;&gt;dir_27e7292ccf631aad9354b9464cb90a84 -->
<g id="edge9" class="edge">
<title>dir_8fb440dc97f5cef2ddb754b68c4f0f6e&#45;&gt;dir_27e7292ccf631aad9354b9464cb90a84</title>
<g id="a_edge9"><a xlink:href="dir_000026_000014.html" target="_top">
<path fill="none" stroke="#63b8ff" d="M86.54,-55.59C96.97,-47.77 112.05,-36.46 124.41,-27.19"/>
<polygon fill="#63b8ff" stroke="#63b8ff" points="126.49,-30.01 132.39,-21.21 122.29,-24.41 126.49,-30.01"/>
</a>
</g>
<g id="a_edge9&#45;headlabel"><a xlink:href="dir_000026_000014.html" target="_top" xlink:title="11">
<text text-anchor="middle" x="126.53" y="-30.03" font-family="Helvetica,sans-Serif" font-size="10.00" fill="#63b8ff">11</text>
</a>
</g>
</g>
</g>
</svg>
