<?xml version="1.0" encoding="UTF-8" standalone="no"?>
<!DOCTYPE svg PUBLIC "-//W3C//DTD SVG 1.1//EN"
 "http://www.w3.org/Graphics/SVG/1.1/DTD/svg11.dtd">
<!-- Generated by graphviz version 10.0.1 (20240210.2158)
 -->
<!-- Title: C:/GitHub/GEU/GEU/Source/Modules Pages: 1 -->
<!--zoomable 200 -->

<svg id="main" version="1.1" xmlns="http://www.w3.org/2000/svg" xmlns:xlink="http://www.w3.org/1999/xlink" xml:space="preserve" onload="init(evt)">
<style type="text/css"><![CDATA[
.node, .edge {opacity: 0.7;}
.node.selected, .edge.selected {opacity: 1;}
.edge:hover path { stroke: red; }
.edge:hover polygon { stroke: red; fill: red; }
]]></style>

<defs>
  <circle id="rim" cx="0" cy="0" r="7"/>
  <circle id="rim2" cx="0" cy="0" r="3.5"/>
  <g id="zoomPlus">
    <use xlink:href="#rim" fill="#404040"><set attributeName="fill" to="#808080" begin="zoomplus.mouseover" end="zoomplus.mouseout"/></use>
    <path d="M-4,0h8M0,-4v8" fill="none" stroke="white" stroke-width="1.5" pointer-events="none"/>
  </g>
  <g id="zoomMin">
    <use xlink:href="#rim" fill="#404040"><set attributeName="fill" to="#808080" begin="zoomminus.mouseover" end="zoomminus.mouseout"/></use>
    <path d="M-4,0h8" fill="none" stroke="white" stroke-width="1.5" pointer-events="none"/>
  </g>
  <g id="arrowUp" transform="translate(30 24)">
    <use xlink:href="#rim"/>
    <path pointer-events="none" fill="none" stroke="white" stroke-width="1.5" d="M0,-3.0v7 M-2.5,-0.5L0,-3.0L2.5,-0.5"/>
  </g>
  <g id="arrowRight" transform="rotate(90) translate(36 -43)">
    <use xlink:href="#rim"/>
    <path pointer-events="none" fill="none" stroke="white" stroke-width="1.5" d="M0,-3.0v7 M-2.5,-0.5L0,-3.0L2.5,-0.5"/>
  </g>
  <g id="arrowDown" transform="rotate(180) translate(-30 -48)">
    <use xlink:href="#rim"/>
    <path pointer-events="none" fill="none" stroke="white" stroke-width="1.5" d="M0,-3.0v7 M-2.5,-0.5L0,-3.0L2.5,-0.5"/>
  </g>
  <g id="arrowLeft" transform="rotate(270) translate(-36 17)">
    <use xlink:href="#rim"/>
    <path pointer-events="none" fill="none" stroke="white" stroke-width="1.5" d="M0,-3.0v7 M-2.5,-0.5L0,-3.0L2.5,-0.5"/>
  </g>
  <g id="resetDef">
    <use xlink:href="#rim2" fill="#404040"><set attributeName="fill" to="#808080" begin="reset.mouseover" end="reset.mouseout"/></use>
  </g>
</defs>
<script type="application/ecmascript">
var viewWidth = 578;
var viewHeight = 200;
var sectionId = 'dynsection-0';
</script>
<script type="application/ecmascript" xlink:href="svg.min.js"/>
<svg id="graph" class="graph">
<g id="viewport">
<title>C:/GitHub/GEU/GEU/Source/Modules</title>
<g id="clust1" class="cluster">
<title>clusterdir_6742163f77914c77d4fb185c9e158c01</title>
<g id="a_clust1"><a xlink:href="dir_6742163f77914c77d4fb185c9e158c01.html" target="_top" xlink:title="Source">
<polygon fill="#ebfef5" stroke="#7f7f7f" stroke-dasharray="5,2" points="8,-8 8,-184 562,-184 562,-8 8,-8"/>
<text text-anchor="middle" x="285" y="-170.5" font-family="Helvetica,sans-Serif" font-size="10.00">Source</text>
</a>
</g>
</g>
<g id="clust2" class="cluster">
<title>clusterdir_006672d30c9a73ed957ead1f695e8662</title>
<g id="a_clust2"><a xlink:href="dir_006672d30c9a73ed957ead1f695e8662.html" target="_top">
<polygon fill="#ebfef5" stroke="#404040" stroke-width="2" points="16,-64 16,-156 522,-156 522,-64 16,-64"/>
</a>
</g>
</g>
<!-- dir_2abd27123e390496a5eabd83ea470d27 -->
<g id="node1" class="node">
<title>dir_2abd27123e390496a5eabd83ea470d27</title>
<g id="a_node1"><a xlink:href="dir_2abd27123e390496a5eabd83ea470d27.html" target="_top" xlink:title="UI">
<polygon fill="#98fdce" stroke="#404040" points="298.4,-36 269.6,-36 269.6,-16 298.4,-16 298.4,-36"/>
<text text-anchor="middle" x="284" y="-22.5" font-family="Helvetica,sans-Serif" font-size="10.00">UI</text>
</a>
</g>
</g>
<!-- dir_7d0c87658e79b677fef895df9f753576 -->
<g id="node2" class="node">
<title>dir_7d0c87658e79b677fef895df9f753576</title>
<g id="a_node2"><a xlink:href="dir_7d0c87658e79b677fef895df9f753576.html" target="_top" xlink:title="DataStructures">
<polygon fill="#98fdce" stroke="#404040" points="397.62,-36 316.38,-36 316.38,-16 397.62,-16 397.62,-36"/>
<text text-anchor="middle" x="357" y="-22.5" font-family="Helvetica,sans-Serif" font-size="10.00">DataStructures</text>
</a>
</g>
</g>
<!-- dir_5fa15cb89ea196e691fe6b5f8ebbb4cd -->
<g id="node3" class="node">
<title>dir_5fa15cb89ea196e691fe6b5f8ebbb4cd</title>
<g id="a_node3"><a xlink:href="dir_5fa15cb89ea196e691fe6b5f8ebbb4cd.html" target="_top" xlink:title="Geometry">
<polygon fill="#98fdce" stroke="#404040" points="541.38,-36 482.62,-36 482.62,-16 541.38,-16 541.38,-36"/>
<text text-anchor="middle" x="512" y="-22.5" font-family="Helvetica,sans-Serif" font-size="10.00">Geometry</text>
</a>
</g>
</g>
<!-- dir_4d0ef5f5e2253a3811462ade617e4c37 -->
<g id="node4" class="node">
<title>dir_4d0ef5f5e2253a3811462ade617e4c37</title>
<g id="a_node4"><a xlink:href="dir_4d0ef5f5e2253a3811462ade617e4c37.html" target="_top" xlink:title="Core">
<polygon fill="#98fdce" stroke="red" points="227.12,-36 190.88,-36 190.88,-16 227.12,-16 227.12,-36"/>
<text text-anchor="middle" x="209" y="-22.5" font-family="Helvetica,sans-Serif" font-size="10.00">Core</text>
</a>
</g>
</g>
<!-- dir_915025f829129cb25903f51b6e3b1d96 -->
<g id="node5" class="node">
<title>dir_915025f829129cb25903f51b6e3b1d96</title>
<g id="a_node5"><a xlink:href="dir_915025f829129cb25903f51b6e3b1d96.html" target="_top" xlink:title="Utilities">
<polygon fill="#98fdce" stroke="#404040" points="464.12,-36 415.88,-36 415.88,-16 464.12,-16 464.12,-36"/>
<text text-anchor="middle" x="440" y="-22.5" font-family="Helvetica,sans-Serif" font-size="10.00">Utilities</text>
</a>
</g>
</g>
<!-- dir_006672d30c9a73ed957ead1f695e8662 -->
<g id="node6" class="node">
<title>dir_006672d30c9a73ed957ead1f695e8662</title>
<text text-anchor="middle" x="393" y="-134.5" font-family="Helvetica,sans-Serif" font-size="10.00">Modules</text>
</g>
<!-- dir_006672d30c9a73ed957ead1f695e8662&#45;&gt;dir_2abd27123e390496a5eabd83ea470d27 -->
<g id="edge2" class="edge">
<title>dir_006672d30c9a73ed957ead1f695e8662&#45;&gt;dir_2abd27123e390496a5eabd83ea470d27</title>
<g id="a_edge2"><a xlink:href="dir_000012_000019.html" target="_top">
<path fill="none" stroke="#63b8ff" d="M419.1,-132.66C465.81,-123.85 555.89,-101.43 523,-64 492.98,-29.84 370.11,-45.76 309.36,-35.58"/>
<polygon fill="#63b8ff" stroke="#63b8ff" points="310.41,-32.22 299.9,-33.57 308.96,-39.07 310.41,-32.22"/>
</a>
</g>
<g id="a_edge2&#45;headlabel"><a xlink:href="dir_000012_000019.html" target="_top" xlink:title="12">
<text text-anchor="middle" x="313.04" y="-26.38" font-family="Helvetica,sans-Serif" font-size="10.00" fill="#63b8ff">12</text>
</a>
</g>
</g>
<!-- dir_006672d30c9a73ed957ead1f695e8662&#45;&gt;dir_915025f829129cb25903f51b6e3b1d96 -->
<g id="edge6" class="edge">
<title>dir_006672d30c9a73ed957ead1f695e8662&#45;&gt;dir_915025f829129cb25903f51b6e3b1d96</title>
<g id="a_edge6"><a xlink:href="dir_000012_000020.html" target="_top">
<path fill="none" stroke="#63b8ff" d="M419.15,-137.49C452.93,-136.53 510.64,-129.14 538,-92 545.38,-81.98 545.08,-74.24 538,-64 534.15,-58.44 501.69,-46.85 475.16,-38.11"/>
<polygon fill="#63b8ff" stroke="#63b8ff" points="476.29,-34.8 465.7,-35.04 474.13,-41.46 476.29,-34.8"/>
</a>
</g>
<g id="a_edge6&#45;headlabel"><a xlink:href="dir_000012_000020.html" target="_top" xlink:title="6">
<text text-anchor="middle" x="479.15" y="-29.24" font-family="Helvetica,sans-Serif" font-size="10.00" fill="#63b8ff">6</text>
</a>
</g>
</g>
<!-- dir_3b1a092284311ad9ae14ad7be25580fb -->
<g id="node7" class="node">
<title>dir_3b1a092284311ad9ae14ad7be25580fb</title>
<g id="a_node7"><a xlink:href="dir_3b1a092284311ad9ae14ad7be25580fb.html" target="_top" xlink:title="ComparacionNormales">
<polygon fill="#98fdce" stroke="#404040" points="254.12,-92 139.88,-92 139.88,-72 254.12,-72 254.12,-92"/>
<text text-anchor="middle" x="197" y="-78.5" font-family="Helvetica,sans-Serif" font-size="10.00">ComparacionNormales</text>
</a>
</g>
</g>
<!-- dir_006672d30c9a73ed957ead1f695e8662&#45;&gt;dir_3b1a092284311ad9ae14ad7be25580fb -->
<g id="edge3" class="edge">
<title>dir_006672d30c9a73ed957ead1f695e8662&#45;&gt;dir_3b1a092284311ad9ae14ad7be25580fb</title>
<g id="a_edge3"><a xlink:href="dir_000012_000001.html" target="_top">
<path fill="none" stroke="#63b8ff" d="M366.97,-129.83C335.22,-121.08 281.01,-106.15 242.35,-95.49"/>
<polygon fill="#63b8ff" stroke="#63b8ff" points="243.42,-92.16 232.85,-92.88 241.56,-98.91 243.42,-92.16"/>
</a>
</g>
<g id="a_edge3&#45;headlabel"><a xlink:href="dir_000012_000001.html" target="_top" xlink:title="1">
<text text-anchor="middle" x="246.18" y="-86.47" font-family="Helvetica,sans-Serif" font-size="10.00" fill="#63b8ff">1</text>
</a>
</g>
</g>
<!-- dir_70a0e5c1ed7663ba7b42224e7bfd1a4b -->
<g id="node8" class="node">
<title>dir_70a0e5c1ed7663ba7b42224e7bfd1a4b</title>
<g id="a_node8"><a xlink:href="dir_70a0e5c1ed7663ba7b42224e7bfd1a4b.html" target="_top" xlink:title="Hiperespectral">
<polygon fill="#98fdce" stroke="#404040" points="514.12,-92 435.88,-92 435.88,-72 514.12,-72 514.12,-92"/>
<text text-anchor="middle" x="475" y="-78.5" font-family="Helvetica,sans-Serif" font-size="10.00">Hiperespectral</text>
</a>
</g>
</g>
<!-- dir_006672d30c9a73ed957ead1f695e8662&#45;&gt;dir_70a0e5c1ed7663ba7b42224e7bfd1a4b -->
<g id="edge5" class="edge">
<title>dir_006672d30c9a73ed957ead1f695e8662&#45;&gt;dir_70a0e5c1ed7663ba7b42224e7bfd1a4b</title>
<g id="a_edge5"><a xlink:href="dir_000012_000010.html" target="_top">
<path fill="none" stroke="#63b8ff" d="M406.54,-128.08C418.66,-120.1 436.71,-108.21 451.24,-98.65"/>
<polygon fill="#63b8ff" stroke="#63b8ff" points="452.92,-101.73 459.35,-93.31 449.07,-95.88 452.92,-101.73"/>
</a>
</g>
<g id="a_edge5&#45;headlabel"><a xlink:href="dir_000012_000010.html" target="_top" xlink:title="1">
<text text-anchor="middle" x="452.74" y="-101.75" font-family="Helvetica,sans-Serif" font-size="10.00" fill="#63b8ff">1</text>
</a>
</g>
</g>
<!-- dir_f1a6d7a0f4877d912bbd2af4edcac8cb -->
<g id="node9" class="node">
<title>dir_f1a6d7a0f4877d912bbd2af4edcac8cb</title>
<g id="a_node9"><a xlink:href="dir_f1a6d7a0f4877d912bbd2af4edcac8cb.html" target="_top" xlink:title="Multiespectral">
<polygon fill="#98fdce" stroke="#404040" points="349.38,-92 272.62,-92 272.62,-72 349.38,-72 349.38,-92"/>
<text text-anchor="middle" x="311" y="-78.5" font-family="Helvetica,sans-Serif" font-size="10.00">Multiespectral</text>
</a>
</g>
</g>
<!-- dir_006672d30c9a73ed957ead1f695e8662&#45;&gt;dir_f1a6d7a0f4877d912bbd2af4edcac8cb -->
<g id="edge7" class="edge">
<title>dir_006672d30c9a73ed957ead1f695e8662&#45;&gt;dir_f1a6d7a0f4877d912bbd2af4edcac8cb</title>
<g id="a_edge7"><a xlink:href="dir_000012_000013.html" target="_top">
<path fill="none" stroke="#63b8ff" d="M379.46,-128.08C367.34,-120.1 349.29,-108.21 334.76,-98.65"/>
<polygon fill="#63b8ff" stroke="#63b8ff" points="336.93,-95.88 326.65,-93.31 333.08,-101.73 336.93,-95.88"/>
</a>
</g>
<g id="a_edge7&#45;headlabel"><a xlink:href="dir_000012_000013.html" target="_top" xlink:title="1">
<text text-anchor="middle" x="340.23" y="-91.16" font-family="Helvetica,sans-Serif" font-size="10.00" fill="#63b8ff">1</text>
</a>
</g>
</g>
<!-- dir_06c34d06c2c0899a86f1c3a9afdd6987 -->
<g id="node10" class="node">
<title>dir_06c34d06c2c0899a86f1c3a9afdd6987</title>
<g id="a_node10"><a xlink:href="dir_06c34d06c2c0899a86f1c3a9afdd6987.html" target="_top" xlink:title="SegmentacionIndiv">
<polygon fill="#98fdce" stroke="#404040" points="121.5,-92 24.5,-92 24.5,-72 121.5,-72 121.5,-92"/>
<text text-anchor="middle" x="73" y="-78.5" font-family="Helvetica,sans-Serif" font-size="10.00">SegmentacionIndiv</text>
</a>
</g>
</g>
<!-- dir_006672d30c9a73ed957ead1f695e8662&#45;&gt;dir_06c34d06c2c0899a86f1c3a9afdd6987 -->
<g id="edge1" class="edge">
<title>dir_006672d30c9a73ed957ead1f695e8662&#45;&gt;dir_06c34d06c2c0899a86f1c3a9afdd6987</title>
<g id="a_edge1"><a xlink:href="dir_000012_000014.html" target="_top">
<path fill="none" stroke="#63b8ff" d="M366.81,-132.58C316.12,-124.03 203.42,-105.01 133.26,-93.17"/>
<polygon fill="#63b8ff" stroke="#63b8ff" points="133.9,-89.73 123.45,-91.51 132.73,-96.63 133.9,-89.73"/>
</a>
</g>
<g id="a_edge1&#45;headlabel"><a xlink:href="dir_000012_000014.html" target="_top" xlink:title="1">
<text text-anchor="middle" x="136.42" y="-83.77" font-family="Helvetica,sans-Serif" font-size="10.00" fill="#63b8ff">1</text>
</a>
</g>
</g>
<!-- dir_6a8abe34f893df6ca50980d918f4320c -->
<g id="node11" class="node">
<title>dir_6a8abe34f893df6ca50980d918f4320c</title>
<g id="a_node11"><a xlink:href="dir_6a8abe34f893df6ca50980d918f4320c.html" target="_top" xlink:title="Termica">
<polygon fill="#98fdce" stroke="#404040" points="418.25,-92 367.75,-92 367.75,-72 418.25,-72 418.25,-92"/>
<text text-anchor="middle" x="393" y="-78.5" font-family="Helvetica,sans-Serif" font-size="10.00">Termica</text>
</a>
</g>
</g>
<!-- dir_006672d30c9a73ed957ead1f695e8662&#45;&gt;dir_6a8abe34f893df6ca50980d918f4320c -->
<g id="edge4" class="edge">
<title>dir_006672d30c9a73ed957ead1f695e8662&#45;&gt;dir_6a8abe34f893df6ca50980d918f4320c</title>
<g id="a_edge4"><a xlink:href="dir_000012_000017.html" target="_top">
<path fill="none" stroke="#63b8ff" d="M393,-128.08C393,-121.48 393,-112.21 393,-103.79"/>
<polygon fill="#63b8ff" stroke="#63b8ff" points="396.5,-103.99 393,-93.99 389.5,-103.99 396.5,-103.99"/>
</a>
</g>
<g id="a_edge4&#45;headlabel"><a xlink:href="dir_000012_000017.html" target="_top" xlink:title="1">
<text text-anchor="middle" x="399.34" y="-102.57" font-family="Helvetica,sans-Serif" font-size="10.00" fill="#63b8ff">1</text>
</a>
</g>
</g>
<!-- dir_3b1a092284311ad9ae14ad7be25580fb&#45;&gt;dir_2abd27123e390496a5eabd83ea470d27 -->
<g id="edge8" class="edge">
<title>dir_3b1a092284311ad9ae14ad7be25580fb&#45;&gt;dir_2abd27123e390496a5eabd83ea470d27</title>
<g id="a_edge8"><a xlink:href="dir_000001_000019.html" target="_top">
<path fill="none" stroke="#63b8ff" d="M212.15,-71.59C225.33,-63.41 244.66,-51.42 259.95,-41.93"/>
<polygon fill="#63b8ff" stroke="#63b8ff" points="261.37,-45.16 268.02,-36.92 257.68,-39.22 261.37,-45.16"/>
</a>
</g>
<g id="a_edge8&#45;headlabel"><a xlink:href="dir_000001_000019.html" target="_top" xlink:title="2">
<text text-anchor="middle" x="261.1" y="-45.17" font-family="Helvetica,sans-Serif" font-size="10.00" fill="#63b8ff">2</text>
</a>
</g>
</g>
<!-- dir_3b1a092284311ad9ae14ad7be25580fb&#45;&gt;dir_4d0ef5f5e2253a3811462ade617e4c37 -->
<g id="edge9" class="edge">
<title>dir_3b1a092284311ad9ae14ad7be25580fb&#45;&gt;dir_4d0ef5f5e2253a3811462ade617e4c37</title>
<g id="a_edge9"><a xlink:href="dir_000001_000002.html" target="_top">
<path fill="none" stroke="#63b8ff" d="M199.09,-71.59C200.57,-64.93 202.61,-55.75 204.46,-47.44"/>
<polygon fill="#63b8ff" stroke="#63b8ff" points="207.85,-48.3 206.61,-37.78 201.02,-46.78 207.85,-48.3"/>
</a>
</g>
<g id="a_edge9&#45;headlabel"><a xlink:href="dir_000001_000002.html" target="_top" xlink:title="2">
<text text-anchor="middle" x="210.17" y="-47.44" font-family="Helvetica,sans-Serif" font-size="10.00" fill="#63b8ff">2</text>
</a>
</g>
</g>
<!-- dir_f1a6d7a0f4877d912bbd2af4edcac8cb&#45;&gt;dir_2abd27123e390496a5eabd83ea470d27 -->
<g id="edge10" class="edge">
<title>dir_f1a6d7a0f4877d912bbd2af4edcac8cb&#45;&gt;dir_2abd27123e390496a5eabd83ea470d27</title>
<g id="a_edge10"><a xlink:href="dir_000013_000019.html" target="_top">
<path fill="none" stroke="#63b8ff" d="M306.3,-71.59C302.85,-64.7 298.05,-55.1 293.79,-46.57"/>
<polygon fill="#63b8ff" stroke="#63b8ff" points="296.93,-45.03 289.33,-37.65 290.67,-48.16 296.93,-45.03"/>
</a>
</g>
<g id="a_edge10&#45;headlabel"><a xlink:href="dir_000013_000019.html" target="_top" xlink:title="2">
<text text-anchor="middle" x="300.4" y="-42.12" font-family="Helvetica,sans-Serif" font-size="10.00" fill="#63b8ff">2</text>
</a>
</g>
</g>
<!-- dir_f1a6d7a0f4877d912bbd2af4edcac8cb&#45;&gt;dir_4d0ef5f5e2253a3811462ade617e4c37 -->
<g id="edge11" class="edge">
<title>dir_f1a6d7a0f4877d912bbd2af4edcac8cb&#45;&gt;dir_4d0ef5f5e2253a3811462ade617e4c37</title>
<g id="a_edge11"><a xlink:href="dir_000013_000002.html" target="_top">
<path fill="none" stroke="#63b8ff" d="M293.23,-71.59C277.68,-63.36 254.82,-51.26 236.84,-41.74"/>
<polygon fill="#63b8ff" stroke="#63b8ff" points="238.72,-38.77 228.24,-37.19 235.44,-44.96 238.72,-38.77"/>
</a>
</g>
<g id="a_edge11&#45;headlabel"><a xlink:href="dir_000013_000002.html" target="_top" xlink:title="3">
<text text-anchor="middle" x="241.89" y="-33.74" font-family="Helvetica,sans-Serif" font-size="10.00" fill="#63b8ff">3</text>
</a>
</g>
</g>
<!-- dir_f1a6d7a0f4877d912bbd2af4edcac8cb&#45;&gt;dir_915025f829129cb25903f51b6e3b1d96 -->
<g id="edge12" class="edge">
<title>dir_f1a6d7a0f4877d912bbd2af4edcac8cb&#45;&gt;dir_915025f829129cb25903f51b6e3b1d96</title>
<g id="a_edge12"><a xlink:href="dir_000013_000020.html" target="_top">
<path fill="none" stroke="#63b8ff" d="M333.47,-71.59C353.79,-63.09 383.95,-50.46 407.01,-40.81"/>
<polygon fill="#63b8ff" stroke="#63b8ff" points="408.09,-44.15 415.96,-37.06 405.38,-37.7 408.09,-44.15"/>
</a>
</g>
<g id="a_edge12&#45;headlabel"><a xlink:href="dir_000013_000020.html" target="_top" xlink:title="2">
<text text-anchor="middle" x="407.26" y="-44.08" font-family="Helvetica,sans-Serif" font-size="10.00" fill="#63b8ff">2</text>
</a>
</g>
</g>
<!-- dir_06c34d06c2c0899a86f1c3a9afdd6987&#45;&gt;dir_2abd27123e390496a5eabd83ea470d27 -->
<g id="edge13" class="edge">
<title>dir_06c34d06c2c0899a86f1c3a9afdd6987&#45;&gt;dir_2abd27123e390496a5eabd83ea470d27</title>
<g id="a_edge13"><a xlink:href="dir_000014_000019.html" target="_top">
<path fill="none" stroke="#63b8ff" d="M104.23,-71.55C112.88,-69.01 122.28,-66.33 131,-64 175.52,-52.1 227.77,-39.82 258.25,-32.83"/>
<polygon fill="#63b8ff" stroke="#63b8ff" points="258.72,-36.31 267.7,-30.67 257.17,-29.49 258.72,-36.31"/>
</a>
</g>
<g id="a_edge13&#45;headlabel"><a xlink:href="dir_000014_000019.html" target="_top" xlink:title="4">
<text text-anchor="middle" x="257.33" y="-36.04" font-family="Helvetica,sans-Serif" font-size="10.00" fill="#63b8ff">4</text>
</a>
</g>
</g>
<!-- dir_06c34d06c2c0899a86f1c3a9afdd6987&#45;&gt;dir_4d0ef5f5e2253a3811462ade617e4c37 -->
<g id="edge14" class="edge">
<title>dir_06c34d06c2c0899a86f1c3a9afdd6987&#45;&gt;dir_4d0ef5f5e2253a3811462ade617e4c37</title>
<g id="a_edge14"><a xlink:href="dir_000014_000002.html" target="_top">
<path fill="none" stroke="#63b8ff" d="M96.69,-71.59C119.79,-62.42 154.97,-48.45 179.79,-38.6"/>
<polygon fill="#63b8ff" stroke="#63b8ff" points="180.97,-41.89 188.98,-34.95 178.39,-35.39 180.97,-41.89"/>
</a>
</g>
<g id="a_edge14&#45;headlabel"><a xlink:href="dir_000014_000002.html" target="_top" xlink:title="1">
<text text-anchor="middle" x="180.09" y="-41.8" font-family="Helvetica,sans-Serif" font-size="10.00" fill="#63b8ff">1</text>
</a>
</g>
</g>
<!-- dir_6a8abe34f893df6ca50980d918f4320c&#45;&gt;dir_2abd27123e390496a5eabd83ea470d27 -->
<g id="edge15" class="edge">
<title>dir_6a8abe34f893df6ca50980d918f4320c&#45;&gt;dir_2abd27123e390496a5eabd83ea470d27</title>
<g id="a_edge15"><a xlink:href="dir_000017_000019.html" target="_top">
<path fill="none" stroke="#63b8ff" d="M374.01,-71.59C355.9,-62.62 328.51,-49.05 308.7,-39.24"/>
<polygon fill="#63b8ff" stroke="#63b8ff" points="310.46,-36.2 299.94,-34.9 307.35,-42.47 310.46,-36.2"/>
</a>
</g>
<g id="a_edge15&#45;headlabel"><a xlink:href="dir_000017_000019.html" target="_top" xlink:title="3">
<text text-anchor="middle" x="313.58" y="-31.08" font-family="Helvetica,sans-Serif" font-size="10.00" fill="#63b8ff">3</text>
</a>
</g>
</g>
<!-- dir_6a8abe34f893df6ca50980d918f4320c&#45;&gt;dir_7d0c87658e79b677fef895df9f753576 -->
<g id="edge18" class="edge">
<title>dir_6a8abe34f893df6ca50980d918f4320c&#45;&gt;dir_7d0c87658e79b677fef895df9f753576</title>
<g id="a_edge18"><a xlink:href="dir_000017_000003.html" target="_top">
<path fill="none" stroke="#63b8ff" d="M386.73,-71.59C381.98,-64.47 375.3,-54.45 369.48,-45.72"/>
<polygon fill="#63b8ff" stroke="#63b8ff" points="372.5,-43.94 364.04,-37.56 366.67,-47.82 372.5,-43.94"/>
</a>
</g>
<g id="a_edge18&#45;headlabel"><a xlink:href="dir_000017_000003.html" target="_top" xlink:title="1">
<text text-anchor="middle" x="376.01" y="-40.59" font-family="Helvetica,sans-Serif" font-size="10.00" fill="#63b8ff">1</text>
</a>
</g>
</g>
<!-- dir_6a8abe34f893df6ca50980d918f4320c&#45;&gt;dir_5fa15cb89ea196e691fe6b5f8ebbb4cd -->
<g id="edge17" class="edge">
<title>dir_6a8abe34f893df6ca50980d918f4320c&#45;&gt;dir_5fa15cb89ea196e691fe6b5f8ebbb4cd</title>
<g id="a_edge17"><a xlink:href="dir_000017_000006.html" target="_top">
<path fill="none" stroke="#63b8ff" d="M411.26,-71.64C416.33,-69.11 421.86,-66.4 427,-64 444.06,-56.03 463.28,-47.62 479.12,-40.83"/>
<polygon fill="#63b8ff" stroke="#63b8ff" points="480.26,-44.15 488.09,-37.01 477.52,-37.71 480.26,-44.15"/>
</a>
</g>
<g id="a_edge17&#45;headlabel"><a xlink:href="dir_000017_000006.html" target="_top" xlink:title="1">
<text text-anchor="middle" x="479.46" y="-44.08" font-family="Helvetica,sans-Serif" font-size="10.00" fill="#63b8ff">1</text>
</a>
</g>
</g>
<!-- dir_6a8abe34f893df6ca50980d918f4320c&#45;&gt;dir_4d0ef5f5e2253a3811462ade617e4c37 -->
<g id="edge16" class="edge">
<title>dir_6a8abe34f893df6ca50980d918f4320c&#45;&gt;dir_4d0ef5f5e2253a3811462ade617e4c37</title>
<g id="a_edge16"><a xlink:href="dir_000017_000002.html" target="_top">
<path fill="none" stroke="#63b8ff" d="M375.51,-71.62C370.01,-68.91 363.84,-66.12 358,-64 317.52,-49.32 268.79,-38.44 238.35,-32.4"/>
<polygon fill="#63b8ff" stroke="#63b8ff" points="239.22,-29 228.74,-30.54 237.89,-35.88 239.22,-29"/>
</a>
</g>
<g id="a_edge16&#45;headlabel"><a xlink:href="dir_000017_000002.html" target="_top" xlink:title="5">
<text text-anchor="middle" x="241.8" y="-23.11" font-family="Helvetica,sans-Serif" font-size="10.00" fill="#63b8ff">5</text>
</a>
</g>
</g>
<!-- dir_6a8abe34f893df6ca50980d918f4320c&#45;&gt;dir_915025f829129cb25903f51b6e3b1d96 -->
<g id="edge19" class="edge">
<title>dir_6a8abe34f893df6ca50980d918f4320c&#45;&gt;dir_915025f829129cb25903f51b6e3b1d96</title>
<g id="a_edge19"><a xlink:href="dir_000017_000020.html" target="_top">
<path fill="none" stroke="#63b8ff" d="M401.19,-71.59C407.59,-64.24 416.68,-53.8 424.45,-44.87"/>
<polygon fill="#63b8ff" stroke="#63b8ff" points="426.99,-47.28 430.91,-37.44 421.71,-42.69 426.99,-47.28"/>
</a>
</g>
<g id="a_edge19&#45;headlabel"><a xlink:href="dir_000017_000020.html" target="_top" xlink:title="3">
<text text-anchor="middle" x="427.76" y="-47.21" font-family="Helvetica,sans-Serif" font-size="10.00" fill="#63b8ff">3</text>
</a>
</g>
</g>
</g>
</svg>

<g id="navigator" transform="translate(0 0)" fill="#404254">
  <rect fill="#f2f5e9" fill-opacity="0.5" stroke="#606060" stroke-width=".5" x="0" y="0" width="60" height="60"/>
  <use id="zoomplus" xlink:href="#zoomPlus" x="17" y="9" onmousedown="handleZoom(evt,'in')"/>
  <use id="zoomminus" xlink:href="#zoomMin" x="42" y="9" onmousedown="handleZoom(evt,'out')"/>
  <use id="reset" xlink:href="#resetDef" x="30" y="36" onmousedown="handleReset()"/>
   <use id="arrowup" xlink:href="#arrowUp" x="0" y="0" onmousedown="handlePan(0,-1)"/>
  <use id="arrowright" xlink:href="#arrowRight" x="0" y="0" onmousedown="handlePan(1,0)"/>
  <use id="arrowdown" xlink:href="#arrowDown" x="0" y="0" onmousedown="handlePan(0,1)"/>
  <use id="arrowleft" xlink:href="#arrowLeft" x="0" y="0" onmousedown="handlePan(-1,0)"/>
</g>
<svg viewBox="0 0 15 15" width="100%" height="30px" preserveAspectRatio="xMaxYMin meet">
 <g id="arrow_out" transform="scale(0.3 0.3)">
  <a xlink:href="dir_006672d30c9a73ed957ead1f695e8662_dep_org.svg" target="_base">
   <rect id="button" ry="5" rx="5" y="6" x="6" height="38" width="38"
        fill="#f2f5e9" fill-opacity="0.5" stroke="#606060" stroke-width="1.0"/>
   <path id="arrow"
     d="M 11.500037,31.436501 C 11.940474,20.09759 22.043105,11.32322 32.158766,21.979434 L 37.068811,17.246167 C 37.068811,17.246167 37.088388,32 37.088388,32 L 22.160133,31.978069 C 22.160133,31.978069 26.997745,27.140456 26.997745,27.140456 C 18.528582,18.264221 13.291696,25.230495 11.500037,31.436501 z"
     style="fill:#404040;"/>
  </a>
 </g>
</svg>

<style type='text/css'>
<![CDATA[
[data-mouse-over-selected='false'] { opacity: 0.7; }
[data-mouse-over-selected='true']  { opacity: 1.0; }
]]>
</style>
<script type="application/ecmascript"><![CDATA[
document.addEventListener('DOMContentLoaded', (event) => {
  highlightEdges();
  highlightAdjacentNodes();
});
]]></script>
</svg>
