<?xml version="1.0" encoding="UTF-8" standalone="no"?>
<!DOCTYPE svg PUBLIC "-//W3C//DTD SVG 1.1//EN"
 "http://www.w3.org/Graphics/SVG/1.1/DTD/svg11.dtd">
<!-- Generated by graphviz version 10.0.1 (20240210.2158)
 -->
<!-- Title: Gráfico de jerarquía de clases Pages: 1 -->
<svg width="251pt" height="66pt"
 viewBox="0.00 0.00 250.75 66.00" xmlns="http://www.w3.org/2000/svg" xmlns:xlink="http://www.w3.org/1999/xlink">
<g id="graph0" class="graph" transform="scale(1 1) rotate(0) translate(4 62)">
<title>Gráfico de jerarquía de clases</title>
<!-- Node0 -->
<g id="Node000000" class="node">
<title>Node0</title>
<g id="a_Node000000"><a xlink:href="da/d06/class_g_e_u_1_1_framebuffer.html" target="_top" xlink:title=" ">
<polygon fill="white" stroke="#666666" points="94,-39 0,-39 0,-19 94,-19 94,-39"/>
<text text-anchor="middle" x="47" y="-25.5" font-family="Helvetica,sans-Serif" font-size="10.00">GEU::Framebuffer</text>
</a>
</g>
</g>
<!-- Node1 -->
<g id="Node000001" class="node">
<title>Node1</title>
<g id="a_Node000001"><a xlink:href="d1/d03/class_g_e_u_1_1_f_b_o_render.html" target="_top" xlink:title=" ">
<polygon fill="white" stroke="#666666" points="233.38,-58 139.38,-58 139.38,-38 233.38,-38 233.38,-58"/>
<text text-anchor="middle" x="186.38" y="-44.5" font-family="Helvetica,sans-Serif" font-size="10.00">GEU::FBORender</text>
</a>
</g>
</g>
<!-- Node0&#45;&gt;Node1 -->
<g id="edge7_Node000000_Node000001" class="edge">
<title>Node0&#45;&gt;Node1</title>
<g id="a_edge7_Node000000_Node000001"><a xlink:title=" ">
<path fill="none" stroke="#63b8ff" d="M105.24,-36.92C116.53,-38.48 128.26,-40.1 139.14,-41.6"/>
<polygon fill="#63b8ff" stroke="#63b8ff" points="106.01,-33.49 95.63,-35.59 105.05,-40.42 106.01,-33.49"/>
</a>
</g>
</g>
<!-- Node2 -->
<g id="Node000002" class="node">
<title>Node2</title>
<g id="a_Node000002"><a xlink:href="d5/d00/class_g_e_u_1_1_f_b_o_screenshot.html" target="_top" xlink:title=" ">
<polygon fill="white" stroke="#666666" points="242.75,-20 130,-20 130,0 242.75,0 242.75,-20"/>
<text text-anchor="middle" x="186.38" y="-6.5" font-family="Helvetica,sans-Serif" font-size="10.00">GEU::FBOScreenshot</text>
</a>
</g>
</g>
<!-- Node0&#45;&gt;Node2 -->
<g id="edge8_Node000000_Node000002" class="edge">
<title>Node0&#45;&gt;Node2</title>
<g id="a_edge8_Node000000_Node000002"><a xlink:title=" ">
<path fill="none" stroke="#63b8ff" d="M105.3,-21.07C113.34,-19.96 121.59,-18.82 129.6,-17.71"/>
<polygon fill="#63b8ff" stroke="#63b8ff" points="105.05,-17.58 95.63,-22.41 106.01,-24.51 105.05,-17.58"/>
</a>
</g>
</g>
</g>
</svg>
