<?xml version="1.0" encoding="UTF-8" standalone="no"?>
<!DOCTYPE svg PUBLIC "-//W3C//DTD SVG 1.1//EN"
 "http://www.w3.org/Graphics/SVG/1.1/DTD/svg11.dtd">
<!-- Generated by graphviz version 10.0.1 (20240210.2158)
 -->
<!-- Title: Gráfico de jerarquía de clases Pages: 1 -->
<svg width="312pt" height="85pt"
 viewBox="0.00 0.00 311.75 85.00" xmlns="http://www.w3.org/2000/svg" xmlns:xlink="http://www.w3.org/1999/xlink">
<g id="graph0" class="graph" transform="scale(1 1) rotate(0) translate(4 81)">
<title>Gráfico de jerarquía de clases</title>
<!-- Node0 -->
<g id="Node000000" class="node">
<title>Node0</title>
<g id="a_Node000000"><a xlink:href="d2/d00/class_multispectral_img.html" target="_top" xlink:title=" ">
<polygon fill="white" stroke="#666666" points="87.25,-58 0,-58 0,-38 87.25,-38 87.25,-58"/>
<text text-anchor="middle" x="43.62" y="-44.5" font-family="Helvetica,sans-Serif" font-size="10.00">MultispectralImg</text>
</a>
</g>
</g>
<!-- Node1 -->
<g id="Node000001" class="node">
<title>Node1</title>
<g id="a_Node000001"><a xlink:href="d7/d07/class_parrot_img.html" target="_top" xlink:title=" ">
<polygon fill="white" stroke="#666666" points="185,-77 127,-77 127,-57 185,-57 185,-77"/>
<text text-anchor="middle" x="156" y="-63.5" font-family="Helvetica,sans-Serif" font-size="10.00">ParrotImg</text>
</a>
</g>
</g>
<!-- Node0&#45;&gt;Node1 -->
<g id="edge71_Node000000_Node000001" class="edge">
<title>Node0&#45;&gt;Node1</title>
<g id="a_edge71_Node000000_Node000001"><a xlink:title=" ">
<path fill="none" stroke="#63b8ff" d="M98.8,-57.33C108.41,-58.98 118.06,-60.64 126.58,-62.11"/>
<polygon fill="#63b8ff" stroke="#63b8ff" points="99.56,-53.9 89.11,-55.66 98.37,-60.8 99.56,-53.9"/>
</a>
</g>
</g>
<!-- Node2 -->
<g id="Node000002" class="node">
<title>Node2</title>
<g id="a_Node000002"><a xlink:href="dc/d03/class_pin_hole_img.html" target="_top" xlink:title=" ">
<polygon fill="white" stroke="#666666" points="188.75,-39 123.25,-39 123.25,-19 188.75,-19 188.75,-39"/>
<text text-anchor="middle" x="156" y="-25.5" font-family="Helvetica,sans-Serif" font-size="10.00">PinHoleImg</text>
</a>
</g>
</g>
<!-- Node0&#45;&gt;Node2 -->
<g id="edge72_Node000000_Node000002" class="edge">
<title>Node0&#45;&gt;Node2</title>
<g id="a_edge72_Node000000_Node000002"><a xlink:title=" ">
<path fill="none" stroke="#63b8ff" d="M98.78,-38.68C107.04,-37.26 115.32,-35.83 122.9,-34.53"/>
<polygon fill="#63b8ff" stroke="#63b8ff" points="98.37,-35.2 89.11,-40.34 99.56,-42.1 98.37,-35.2"/>
</a>
</g>
</g>
<!-- Node3 -->
<g id="Node000003" class="node">
<title>Node3</title>
<g id="a_Node000003"><a xlink:href="d1/d00/class_d_j_i_img.html" target="_top" xlink:title=" ">
<polygon fill="white" stroke="#666666" points="286.88,-58 241.62,-58 241.62,-38 286.88,-38 286.88,-58"/>
<text text-anchor="middle" x="264.25" y="-44.5" font-family="Helvetica,sans-Serif" font-size="10.00">DJIImg</text>
</a>
</g>
</g>
<!-- Node2&#45;&gt;Node3 -->
<g id="edge73_Node000002_Node000003" class="edge">
<title>Node2&#45;&gt;Node3</title>
<g id="a_edge73_Node000002_Node000003"><a xlink:title=" ">
<path fill="none" stroke="#63b8ff" d="M200.2,-36.73C214.32,-39.25 229.41,-41.95 241.29,-44.07"/>
<polygon fill="#63b8ff" stroke="#63b8ff" points="201.12,-33.33 190.66,-35.02 199.88,-40.22 201.12,-33.33"/>
</a>
</g>
</g>
<!-- Node4 -->
<g id="Node000004" class="node">
<title>Node4</title>
<g id="a_Node000004"><a xlink:href="d6/d01/class_micasense_img.html" target="_top" xlink:title=" ">
<polygon fill="white" stroke="#666666" points="303.75,-20 224.75,-20 224.75,0 303.75,0 303.75,-20"/>
<text text-anchor="middle" x="264.25" y="-6.5" font-family="Helvetica,sans-Serif" font-size="10.00">MicasenseImg</text>
</a>
</g>
</g>
<!-- Node2&#45;&gt;Node4 -->
<g id="edge74_Node000002_Node000004" class="edge">
<title>Node2&#45;&gt;Node4</title>
<g id="a_edge74_Node000002_Node000004"><a xlink:title=" ">
<path fill="none" stroke="#63b8ff" d="M200.49,-21.22C208.43,-19.8 216.66,-18.33 224.45,-16.94"/>
<polygon fill="#63b8ff" stroke="#63b8ff" points="199.88,-17.78 190.66,-22.98 201.12,-24.67 199.88,-17.78"/>
</a>
</g>
</g>
</g>
</svg>
