<?xml version="1.0" encoding="UTF-8" standalone="no"?>
<!DOCTYPE svg PUBLIC "-//W3C//DTD SVG 1.1//EN"
 "http://www.w3.org/Graphics/SVG/1.1/DTD/svg11.dtd">
<!-- Generated by graphviz version 10.0.1 (20240210.2158)
 -->
<!-- Title: GEU::Camera Pages: 1 -->
<!--zoomable 538 -->

<svg id="main" version="1.1" xmlns="http://www.w3.org/2000/svg" xmlns:xlink="http://www.w3.org/1999/xlink" xml:space="preserve" onload="init(evt)">
<style type="text/css"><![CDATA[
.node, .edge {opacity: 0.7;}
.node.selected, .edge.selected {opacity: 1;}
.edge:hover path { stroke: red; }
.edge:hover polygon { stroke: red; fill: red; }
]]></style>

<defs>
  <circle id="rim" cx="0" cy="0" r="7"/>
  <circle id="rim2" cx="0" cy="0" r="3.5"/>
  <g id="zoomPlus">
    <use xlink:href="#rim" fill="#404040"><set attributeName="fill" to="#808080" begin="zoomplus.mouseover" end="zoomplus.mouseout"/></use>
    <path d="M-4,0h8M0,-4v8" fill="none" stroke="white" stroke-width="1.5" pointer-events="none"/>
  </g>
  <g id="zoomMin">
    <use xlink:href="#rim" fill="#404040"><set attributeName="fill" to="#808080" begin="zoomminus.mouseover" end="zoomminus.mouseout"/></use>
    <path d="M-4,0h8" fill="none" stroke="white" stroke-width="1.5" pointer-events="none"/>
  </g>
  <g id="arrowUp" transform="translate(30 24)">
    <use xlink:href="#rim"/>
    <path pointer-events="none" fill="none" stroke="white" stroke-width="1.5" d="M0,-3.0v7 M-2.5,-0.5L0,-3.0L2.5,-0.5"/>
  </g>
  <g id="arrowRight" transform="rotate(90) translate(36 -43)">
    <use xlink:href="#rim"/>
    <path pointer-events="none" fill="none" stroke="white" stroke-width="1.5" d="M0,-3.0v7 M-2.5,-0.5L0,-3.0L2.5,-0.5"/>
  </g>
  <g id="arrowDown" transform="rotate(180) translate(-30 -48)">
    <use xlink:href="#rim"/>
    <path pointer-events="none" fill="none" stroke="white" stroke-width="1.5" d="M0,-3.0v7 M-2.5,-0.5L0,-3.0L2.5,-0.5"/>
  </g>
  <g id="arrowLeft" transform="rotate(270) translate(-36 17)">
    <use xlink:href="#rim"/>
    <path pointer-events="none" fill="none" stroke="white" stroke-width="1.5" d="M0,-3.0v7 M-2.5,-0.5L0,-3.0L2.5,-0.5"/>
  </g>
  <g id="resetDef">
    <use xlink:href="#rim2" fill="#404040"><set attributeName="fill" to="#808080" begin="reset.mouseover" end="reset.mouseout"/></use>
  </g>
</defs>
<script type="application/ecmascript">
var viewWidth = 1484;
var viewHeight = 538;
var sectionId = 'dynsection-0';
</script>
<script type="application/ecmascript" xlink:href="../../svg.min.js"/>
<svg id="graph" class="graph">
<g id="viewport">
<title>GEU::Camera</title>
<!-- Node1 -->
<g id="Node000001" class="node">
<title>Node1</title>
<g id="a_Node000001"><a xlink:title=" ">
<polygon fill="#999999" stroke="#666666" points="1476.25,-480 1399.5,-480 1399.5,-460 1476.25,-460 1476.25,-480"/>
<text text-anchor="middle" x="1437.88" y="-466.5" font-family="Helvetica,sans-Serif" font-size="10.00">GEU::Camera</text>
</a>
</g>
</g>
<!-- Node1&#45;&gt;Node1 -->
<g id="edge1_Node000001_Node000001" class="edge">
<title>Node1&#45;&gt;Node1</title>
<g id="a_edge1_Node000001_Node000001"><a xlink:title=" ">
<path fill="none" stroke="#9a32cd" stroke-dasharray="5,2" d="M1422.48,-491.44C1424.46,-495.3 1429.59,-498 1437.88,-498 1453.02,-498 1457.63,-488.98 1451.72,-480.34"/>
<polygon fill="#9a32cd" stroke="#9a32cd" points="1425.9,-492.23 1423.82,-481.84 1418.97,-491.26 1425.9,-492.23"/>
</a>
</g>
<text text-anchor="middle" x="1437.88" y="-500.5" font-family="Helvetica,sans-Serif" font-size="10.00" fill="grey"> _backupCamera</text>
</g>
<!-- Node2 -->
<g id="Node000002" class="node">
<title>Node2</title>
<g id="a_Node000002"><a xlink:href="../../d9/dcf/class_g_e_u_1_1_camera_projection_1_1_camera_properties.html" target="_top" xlink:title=" ">
<polygon fill="white" stroke="#666666" points="1302,-530 1181.75,-530 1181.75,-498 1302,-498 1302,-530"/>
<text text-anchor="start" x="1189.75" y="-516.5" font-family="Helvetica,sans-Serif" font-size="10.00">GEU::CameraProjection</text>
<text text-anchor="middle" x="1241.88" y="-504.5" font-family="Helvetica,sans-Serif" font-size="10.00">::CameraProperties</text>
</a>
</g>
</g>
<!-- Node2&#45;&gt;Node1 -->
<g id="edge2_Node000001_Node000002" class="edge">
<title>Node2&#45;&gt;Node1</title>
<g id="a_edge2_Node000001_Node000002"><a xlink:title=" ">
<path fill="none" stroke="#9a32cd" stroke-dasharray="5,2" d="M1313.53,-499.2C1335.35,-494.5 1359.45,-489.17 1381.5,-484 1387.2,-482.66 1393.21,-481.2 1399.09,-479.74"/>
<polygon fill="#9a32cd" stroke="#9a32cd" points="1312.86,-495.77 1303.82,-501.28 1314.33,-502.61 1312.86,-495.77"/>
</a>
</g>
<text text-anchor="middle" x="1350.75" y="-499.5" font-family="Helvetica,sans-Serif" font-size="10.00" fill="grey"> _properties</text>
</g>
<!-- Node3 -->
<g id="Node000003" class="node">
<title>Node3</title>
<g id="a_Node000003"><a xlink:title=" ">
<polygon fill="white" stroke="#666666" points="190.5,-294 131,-294 131,-274 190.5,-274 190.5,-294"/>
<text text-anchor="middle" x="160.75" y="-280.5" font-family="Helvetica,sans-Serif" font-size="10.00">std::string</text>
</a>
</g>
</g>
<!-- Node3&#45;&gt;Node1 -->
<g id="edge3_Node000001_Node000003" class="edge">
<title>Node3&#45;&gt;Node1</title>
<g id="a_edge3_Node000001_Node000003"><a xlink:title=" ">
<path fill="none" stroke="#9a32cd" stroke-dasharray="5,2" d="M166.85,-305.23C173.35,-328.77 186.46,-366.86 208.5,-393 249.04,-441.1 264.35,-470 327.25,-470 327.25,-470 327.25,-470 1242.88,-470 1297.27,-470 1360.24,-470 1399.32,-470"/>
<polygon fill="#9a32cd" stroke="#9a32cd" points="170.31,-304.66 164.42,-295.85 163.54,-306.41 170.31,-304.66"/>
</a>
</g>
<text text-anchor="middle" x="844.62" y="-472.5" font-family="Helvetica,sans-Serif" font-size="10.00" fill="grey"> _name</text>
</g>
<!-- Node5 -->
<g id="Node000005" class="node">
<title>Node5</title>
<g id="a_Node000005"><a xlink:href="../../db/d6c/class_g_e_u_1_1_model3_d.html" target="_top" xlink:title=" ">
<polygon fill="white" stroke="#666666" points="1282.5,-334 1201.25,-334 1201.25,-314 1282.5,-314 1282.5,-334"/>
<text text-anchor="middle" x="1241.88" y="-320.5" font-family="Helvetica,sans-Serif" font-size="10.00">GEU::Model3D</text>
</a>
</g>
</g>
<!-- Node3&#45;&gt;Node5 -->
<g id="edge6_Node000005_Node000003" class="edge">
<title>Node3&#45;&gt;Node5</title>
<g id="a_edge6_Node000005_Node000003"><a xlink:title=" ">
<path fill="none" stroke="#9a32cd" stroke-dasharray="5,2" d="M162.14,-262.41C163.77,-222.17 171.63,-134.17 208.5,-72 239.98,-18.91 265.53,0 327.25,0 327.25,0 327.25,0 1065.25,0 1211.45,0 1236.58,-258.13 1240.29,-313.59"/>
<polygon fill="#9a32cd" stroke="#9a32cd" points="158.64,-262.3 161.84,-272.4 165.64,-262.51 158.64,-262.3"/>
</a>
</g>
<text text-anchor="middle" x="721.12" y="-2.5" font-family="Helvetica,sans-Serif" font-size="10.00" fill="grey"> _name</text>
</g>
<!-- Node7 -->
<g id="Node000007" class="node">
<title>Node7</title>
<g id="a_Node000007"><a xlink:href="../../d5/def/class_g_e_u_1_1_material.html" target="_top" xlink:title=" ">
<polygon fill="white" stroke="#666666" points="1103,-314 1025.5,-314 1025.5,-294 1103,-294 1103,-314"/>
<text text-anchor="middle" x="1064.25" y="-300.5" font-family="Helvetica,sans-Serif" font-size="10.00">GEU::Material</text>
</a>
</g>
</g>
<!-- Node3&#45;&gt;Node7 -->
<g id="edge9_Node000007_Node000003" class="edge">
<title>Node3&#45;&gt;Node7</title>
<g id="a_edge9_Node000007_Node000003"><a xlink:title=" ">
<path fill="none" stroke="#9a32cd" stroke-dasharray="5,2" d="M201.92,-284C235.44,-284 284.46,-284 327.25,-284 327.25,-284 327.25,-284 845.62,-284 908.8,-284 981.85,-292.46 1025.21,-298.38"/>
<polygon fill="#9a32cd" stroke="#9a32cd" points="202.26,-280.5 192.26,-284 202.26,-287.5 202.26,-280.5"/>
</a>
</g>
<text text-anchor="middle" x="601" y="-286.5" font-family="Helvetica,sans-Serif" font-size="10.00" fill="grey"> _name</text>
</g>
<!-- Node9 -->
<g id="Node000009" class="node">
<title>Node9</title>
<g id="a_Node000009"><a xlink:href="../../da/db2/class_g_e_u_1_1_shader_program.html" target="_top" xlink:title=" ">
<polygon fill="white" stroke="#666666" points="656.25,-160 545.75,-160 545.75,-140 656.25,-140 656.25,-160"/>
<text text-anchor="middle" x="601" y="-146.5" font-family="Helvetica,sans-Serif" font-size="10.00">GEU::ShaderProgram</text>
</a>
</g>
</g>
<!-- Node3&#45;&gt;Node9 -->
<g id="edge12_Node000009_Node000003" class="edge">
<title>Node3&#45;&gt;Node9</title>
<g id="a_edge12_Node000009_Node000003"><a xlink:title=" ">
<path fill="none" stroke="#9a32cd" stroke-dasharray="5,2" d="M181.71,-266.25C202.19,-249.04 235.72,-223.61 269.25,-210 377.23,-166.15 413.38,-188.38 527.75,-166 536.32,-164.32 545.44,-162.41 554.21,-160.5"/>
<polygon fill="#9a32cd" stroke="#9a32cd" points="179.46,-263.56 174.16,-272.73 184.02,-268.87 179.46,-263.56"/>
</a>
</g>
<text text-anchor="middle" x="328.25" y="-260.5" font-family="Helvetica,sans-Serif" font-size="10.00" fill="grey"> MODULE_FILE_CHAR_1</text>
<text text-anchor="middle" x="328.25" y="-248.5" font-family="Helvetica,sans-Serif" font-size="10.00" fill="grey">MODULE_FILE_CHAR_2</text>
<text text-anchor="middle" x="328.25" y="-236.5" font-family="Helvetica,sans-Serif" font-size="10.00" fill="grey">MODULE_HEADER</text>
<text text-anchor="middle" x="328.25" y="-224.5" font-family="Helvetica,sans-Serif" font-size="10.00" fill="grey">_logString</text>
<text text-anchor="middle" x="328.25" y="-212.5" font-family="Helvetica,sans-Serif" font-size="10.00" fill="grey">shaderPath</text>
</g>
<!-- Node10 -->
<g id="Node000010" class="node">
<title>Node10</title>
<g id="a_Node000010"><a xlink:title=" ">
<polygon fill="white" stroke="#666666" points="379.38,-122 277.12,-122 277.12,-78 379.38,-78 379.38,-122"/>
<text text-anchor="start" x="285.12" y="-108.5" font-family="Helvetica,sans-Serif" font-size="10.00">std::unordered_map</text>
<text text-anchor="start" x="285.12" y="-96.5" font-family="Helvetica,sans-Serif" font-size="10.00">&lt; std::string, std::</text>
<text text-anchor="middle" x="328.25" y="-84.5" font-family="Helvetica,sans-Serif" font-size="10.00">string &gt;</text>
</a>
</g>
</g>
<!-- Node3&#45;&gt;Node10 -->
<g id="edge14_Node000010_Node000003" class="edge">
<title>Node3&#45;&gt;Node10</title>
<g id="a_edge14_Node000010_Node000003"><a xlink:title=" ">
<path fill="none" stroke="#9a32cd" stroke-dasharray="5,2" d="M164.73,-262.5C169.52,-235.18 181.34,-188 208.5,-158 226.67,-137.93 253.32,-124.04 276.77,-114.9"/>
<polygon fill="#9a32cd" stroke="#9a32cd" points="161.32,-261.6 163.22,-272.02 168.24,-262.69 161.32,-261.6"/>
</a>
</g>
<text text-anchor="middle" x="229.88" y="-172.5" font-family="Helvetica,sans-Serif" font-size="10.00" fill="grey"> elements</text>
<text text-anchor="middle" x="229.88" y="-160.5" font-family="Helvetica,sans-Serif" font-size="10.00" fill="grey">keys</text>
</g>
<!-- Node12 -->
<g id="Node000012" class="node">
<title>Node12</title>
<g id="a_Node000012"><a xlink:title=" ">
<polygon fill="white" stroke="#666666" points="381.62,-60 274.88,-60 274.88,-28 381.62,-28 381.62,-60"/>
<text text-anchor="start" x="282.88" y="-46.5" font-family="Helvetica,sans-Serif" font-size="10.00">std::unordered_map</text>
<text text-anchor="middle" x="328.25" y="-34.5" font-family="Helvetica,sans-Serif" font-size="10.00">&lt; std::string, GLint &gt;</text>
</a>
</g>
</g>
<!-- Node3&#45;&gt;Node12 -->
<g id="edge17_Node000012_Node000003" class="edge">
<title>Node3&#45;&gt;Node12</title>
<g id="a_edge17_Node000012_Node000003"><a xlink:title=" ">
<path fill="none" stroke="#9a32cd" stroke-dasharray="5,2" d="M162.96,-262.62C165.87,-228.04 175.66,-158.98 208.5,-112 225.31,-87.95 253.54,-71.28 278.26,-60.47"/>
<polygon fill="#9a32cd" stroke="#9a32cd" points="159.5,-261.96 162.28,-272.18 166.48,-262.45 159.5,-261.96"/>
</a>
</g>
<text text-anchor="middle" x="229.88" y="-114.5" font-family="Helvetica,sans-Serif" font-size="10.00" fill="grey"> keys</text>
</g>
<!-- Node13 -->
<g id="Node000013" class="node">
<title>Node13</title>
<g id="a_Node000013"><a xlink:href="../../dc/d36/class_g_e_u_1_1_texture.html" target="_top" xlink:title=" ">
<polygon fill="white" stroke="#666666" points="638.62,-380 563.38,-380 563.38,-360 638.62,-360 638.62,-380"/>
<text text-anchor="middle" x="601" y="-366.5" font-family="Helvetica,sans-Serif" font-size="10.00">GEU::Texture</text>
</a>
</g>
</g>
<!-- Node3&#45;&gt;Node13 -->
<g id="edge19_Node000013_Node000003" class="edge">
<title>Node3&#45;&gt;Node13</title>
<g id="a_edge19_Node000013_Node000003"><a xlink:title=" ">
<path fill="none" stroke="#9a32cd" stroke-dasharray="5,2" d="M168.25,-305.08C175.25,-324.49 188.21,-352.81 208.5,-370 230.3,-388.47 241.08,-386.27 269.25,-391 374.79,-408.73 501.57,-389.61 563.01,-377.83"/>
<polygon fill="#9a32cd" stroke="#9a32cd" points="171.62,-304.13 165.13,-295.76 164.98,-306.35 171.62,-304.13"/>
</a>
</g>
<text text-anchor="middle" x="328.25" y="-412.5" font-family="Helvetica,sans-Serif" font-size="10.00" fill="grey"> TEXTURE_LAYER_IDS</text>
<text text-anchor="middle" x="328.25" y="-400.5" font-family="Helvetica,sans-Serif" font-size="10.00" fill="grey">_filename</text>
</g>
<!-- Node14 -->
<g id="Node000014" class="node">
<title>Node14</title>
<g id="a_Node000014"><a xlink:title=" ">
<polygon fill="white" stroke="#666666" points="387.25,-382 269.25,-382 269.25,-350 387.25,-350 387.25,-382"/>
<text text-anchor="start" x="277.25" y="-368.5" font-family="Helvetica,sans-Serif" font-size="10.00">std::unordered_map</text>
<text text-anchor="middle" x="328.25" y="-356.5" font-family="Helvetica,sans-Serif" font-size="10.00">&lt; uint16_t, std::string &gt;</text>
</a>
</g>
</g>
<!-- Node3&#45;&gt;Node14 -->
<g id="edge21_Node000014_Node000003" class="edge">
<title>Node3&#45;&gt;Node14</title>
<g id="a_edge21_Node000014_Node000003"><a xlink:title=" ">
<path fill="none" stroke="#9a32cd" stroke-dasharray="5,2" d="M174.27,-303.9C182.6,-315.54 194.55,-329.56 208.5,-338 226.62,-348.97 248.7,-355.64 268.89,-359.7"/>
<polygon fill="#9a32cd" stroke="#9a32cd" points="177.26,-302.08 168.77,-295.75 171.46,-306 177.26,-302.08"/>
</a>
</g>
<text text-anchor="middle" x="229.88" y="-356.5" font-family="Helvetica,sans-Serif" font-size="10.00" fill="grey"> elements</text>
</g>
<!-- Node15 -->
<g id="Node000015" class="node">
<title>Node15</title>
<g id="a_Node000015"><a xlink:title=" ">
<polygon fill="white" stroke="#666666" points="527.75,-333 405.25,-333 405.25,-313 527.75,-313 527.75,-333"/>
<text text-anchor="middle" x="466.5" y="-319.5" font-family="Helvetica,sans-Serif" font-size="10.00">std::vector&lt; std::string &gt;</text>
</a>
</g>
</g>
<!-- Node3&#45;&gt;Node15 -->
<g id="edge23_Node000015_Node000003" class="edge">
<title>Node3&#45;&gt;Node15</title>
<g id="a_edge23_Node000015_Node000003"><a xlink:title=" ">
<path fill="none" stroke="#9a32cd" stroke-dasharray="5,2" d="M201.95,-296.58C204.15,-297.1 206.35,-297.58 208.5,-298 274.92,-311.05 352.4,-317.4 404.78,-320.42"/>
<polygon fill="#9a32cd" stroke="#9a32cd" points="202.98,-293.23 192.42,-294.08 201.21,-300 202.98,-293.23"/>
</a>
</g>
<text text-anchor="middle" x="229.88" y="-306.5" font-family="Helvetica,sans-Serif" font-size="10.00" fill="grey"> elements</text>
</g>
<!-- Node4 -->
<g id="Node000004" class="node">
<title>Node4</title>
<g id="a_Node000004"><a xlink:title=" ">
<polygon fill="white" stroke="#666666" points="94,-300 0,-300 0,-268 94,-268 94,-300"/>
<text text-anchor="start" x="8" y="-286.5" font-family="Helvetica,sans-Serif" font-size="10.00">std::basic_string&lt;</text>
<text text-anchor="middle" x="47" y="-274.5" font-family="Helvetica,sans-Serif" font-size="10.00"> Char &gt;</text>
</a>
</g>
</g>
<!-- Node4&#45;&gt;Node3 -->
<g id="edge4_Node000003_Node000004" class="edge">
<title>Node4&#45;&gt;Node3</title>
<g id="a_edge4_Node000003_Node000004"><a xlink:title=" ">
<path fill="none" stroke="#63b8ff" d="M105.71,-284C114.32,-284 122.87,-284 130.55,-284"/>
<polygon fill="#63b8ff" stroke="#63b8ff" points="105.93,-280.5 95.93,-284 105.93,-287.5 105.93,-280.5"/>
</a>
</g>
</g>
<!-- Node5&#45;&gt;Node1 -->
<g id="edge5_Node000001_Node000005" class="edge">
<title>Node5&#45;&gt;Node1</title>
<g id="a_edge5_Node000001_Node000005"><a xlink:title=" ">
<path fill="none" stroke="#9a32cd" stroke-dasharray="5,2" d="M1265.98,-341.39C1306.72,-372.05 1390.11,-434.81 1423.05,-459.6"/>
<polygon fill="#9a32cd" stroke="#9a32cd" points="1268.13,-338.63 1258.04,-335.41 1263.92,-344.22 1268.13,-338.63"/>
</a>
</g>
<text text-anchor="middle" x="1350.75" y="-428.5" font-family="Helvetica,sans-Serif" font-size="10.00" fill="grey"> trackedModel</text>
</g>
<!-- Node6 -->
<g id="Node000006" class="node">
<title>Node6</title>
<g id="a_Node000006"><a xlink:href="../../dc/d47/class_a_a_b_b.html" target="_top" xlink:title=" ">
<polygon fill="white" stroke="#666666" points="1085.75,-352 1042.75,-352 1042.75,-332 1085.75,-332 1085.75,-352"/>
<text text-anchor="middle" x="1064.25" y="-338.5" font-family="Helvetica,sans-Serif" font-size="10.00">AABB</text>
</a>
</g>
</g>
<!-- Node6&#45;&gt;Node5 -->
<g id="edge7_Node000005_Node000006" class="edge">
<title>Node6&#45;&gt;Node5</title>
<g id="a_edge7_Node000005_Node000006"><a xlink:title=" ">
<path fill="none" stroke="#9a32cd" stroke-dasharray="5,2" d="M1097.25,-338.72C1126.34,-335.74 1169.38,-331.33 1200.76,-328.11"/>
<polygon fill="#9a32cd" stroke="#9a32cd" points="1097.18,-335.21 1087.59,-339.71 1097.9,-342.17 1097.18,-335.21"/>
</a>
</g>
<text text-anchor="middle" x="1142.38" y="-338.5" font-family="Helvetica,sans-Serif" font-size="10.00" fill="grey"> _aabb</text>
</g>
<!-- Node7&#45;&gt;Node5 -->
<g id="edge8_Node000005_Node000007" class="edge">
<title>Node7&#45;&gt;Node5</title>
<g id="a_edge8_Node000005_Node000007"><a xlink:title=" ">
<path fill="none" stroke="#9a32cd" stroke-dasharray="5,2" d="M1114.28,-309.43C1130.08,-311.19 1147.65,-313.16 1163.75,-315 1175.8,-316.38 1188.92,-317.9 1200.85,-319.29"/>
<polygon fill="#9a32cd" stroke="#9a32cd" points="1114.97,-305.98 1104.65,-308.35 1114.2,-312.94 1114.97,-305.98"/>
</a>
</g>
<text text-anchor="middle" x="1142.38" y="-317.5" font-family="Helvetica,sans-Serif" font-size="10.00" fill="grey"> _material</text>
</g>
<!-- Node8 -->
<g id="Node000008" class="node">
<title>Node8</title>
<g id="a_Node000008"><a xlink:href="../../d0/def/class_g_e_u_1_1_rendering_shader.html" target="_top" xlink:title=" ">
<polygon fill="white" stroke="#666666" points="903.25,-200 786,-200 786,-180 903.25,-180 903.25,-200"/>
<text text-anchor="middle" x="844.62" y="-186.5" font-family="Helvetica,sans-Serif" font-size="10.00">GEU::RenderingShader</text>
</a>
</g>
</g>
<!-- Node8&#45;&gt;Node7 -->
<g id="edge10_Node000007_Node000008" class="edge">
<title>Node8&#45;&gt;Node7</title>
<g id="a_edge10_Node000007_Node000008"><a xlink:title=" ">
<path fill="none" stroke="#9a32cd" stroke-dasharray="5,2" d="M888.82,-204.23C922.41,-216.21 969.53,-235.05 1007.5,-258 1024.68,-268.39 1042.16,-283.76 1052.86,-293.83"/>
<polygon fill="#9a32cd" stroke="#9a32cd" points="890,-200.94 879.41,-200.94 887.69,-207.55 890,-200.94"/>
</a>
</g>
<text text-anchor="middle" x="964.38" y="-260.5" font-family="Helvetica,sans-Serif" font-size="10.00" fill="grey"> _associatedShader</text>
</g>
<!-- Node9&#45;&gt;Node8 -->
<g id="edge11_Node000008_Node000009" class="edge">
<title>Node9&#45;&gt;Node8</title>
<g id="a_edge11_Node000008_Node000009"><a xlink:title=" ">
<path fill="none" stroke="#63b8ff" d="M667.65,-160.87C704.47,-166.96 749.98,-174.5 785.5,-180.38"/>
<polygon fill="#63b8ff" stroke="#63b8ff" points="668.46,-157.45 658.02,-159.27 667.31,-164.36 668.46,-157.45"/>
</a>
</g>
</g>
<!-- Node10&#45;&gt;Node9 -->
<g id="edge13_Node000009_Node000010" class="edge">
<title>Node10&#45;&gt;Node9</title>
<g id="a_edge13_Node000009_Node000010"><a xlink:title=" ">
<path fill="none" stroke="#9a32cd" stroke-dasharray="5,2" d="M390.79,-109.75C430.06,-116.17 482,-125.02 527.75,-134 536.32,-135.68 545.44,-137.6 554.2,-139.51"/>
<polygon fill="#9a32cd" stroke="#9a32cd" points="391.47,-106.32 381.04,-108.17 390.35,-113.23 391.47,-106.32"/>
</a>
</g>
<text text-anchor="middle" x="466.5" y="-136.5" font-family="Helvetica,sans-Serif" font-size="10.00" fill="grey"> _moduleCode</text>
</g>
<!-- Node11 -->
<g id="Node000011" class="node">
<title>Node11</title>
<g id="a_Node000011"><a xlink:title=" ">
<polygon fill="white" stroke="#666666" points="382,-160 274.5,-160 274.5,-140 382,-140 382,-160"/>
<text text-anchor="middle" x="328.25" y="-146.5" font-family="Helvetica,sans-Serif" font-size="10.00">std::vector&lt; GLuint &gt;</text>
</a>
</g>
</g>
<!-- Node11&#45;&gt;Node9 -->
<g id="edge15_Node000009_Node000011" class="edge">
<title>Node11&#45;&gt;Node9</title>
<g id="a_edge15_Node000009_Node000011"><a xlink:title=" ">
<path fill="none" stroke="#9a32cd" stroke-dasharray="5,2" d="M393.83,-150C440.12,-150 501.77,-150 545.56,-150"/>
<polygon fill="#9a32cd" stroke="#9a32cd" points="393.93,-146.5 383.93,-150 393.93,-153.5 393.93,-146.5"/>
</a>
</g>
<text text-anchor="middle" x="466.5" y="-152.5" font-family="Helvetica,sans-Serif" font-size="10.00" fill="grey"> _activeSubroutineUniform</text>
</g>
<!-- Node12&#45;&gt;Node9 -->
<g id="edge16_Node000009_Node000012" class="edge">
<title>Node12&#45;&gt;Node9</title>
<g id="a_edge16_Node000009_Node000012"><a xlink:title=" ">
<path fill="none" stroke="#9a32cd" stroke-dasharray="5,2" d="M393.2,-48.6C433.55,-53.54 485.79,-63.78 527.75,-85 554.85,-98.7 579.56,-125.27 591.84,-139.84"/>
<polygon fill="#9a32cd" stroke="#9a32cd" points="393.72,-45.14 383.39,-47.49 392.93,-52.1 393.72,-45.14"/>
</a>
</g>
<text text-anchor="middle" x="466.5" y="-99.5" font-family="Helvetica,sans-Serif" font-size="10.00" fill="grey"> subroutineLocation</text>
<text text-anchor="middle" x="466.5" y="-87.5" font-family="Helvetica,sans-Serif" font-size="10.00" fill="grey">uniformLocation</text>
</g>
<!-- Node13&#45;&gt;Node7 -->
<g id="edge18_Node000007_Node000013" class="edge">
<title>Node13&#45;&gt;Node7</title>
<g id="a_edge18_Node000007_Node000013"><a xlink:title=" ">
<path fill="none" stroke="#9a32cd" stroke-dasharray="5,2" d="M650.35,-375.35C728.62,-382.04 886.5,-387.28 1007.5,-338 1017.14,-334.07 1016.79,-328.71 1025.5,-323 1030.16,-319.94 1035.38,-317.02 1040.42,-314.43"/>
<polygon fill="#9a32cd" stroke="#9a32cd" points="650.72,-371.87 640.45,-374.45 650.09,-378.84 650.72,-371.87"/>
</a>
</g>
<text text-anchor="middle" x="844.62" y="-380.5" font-family="Helvetica,sans-Serif" font-size="10.00" fill="grey"> _texture</text>
</g>
<!-- Node14&#45;&gt;Node13 -->
<g id="edge20_Node000013_Node000014" class="edge">
<title>Node14&#45;&gt;Node13</title>
<g id="a_edge20_Node000013_Node000014"><a xlink:title=" ">
<path fill="none" stroke="#9a32cd" stroke-dasharray="5,2" d="M398.88,-367.03C451.19,-367.8 520.8,-368.83 562.9,-369.45"/>
<polygon fill="#9a32cd" stroke="#9a32cd" points="399.23,-363.53 389.18,-366.89 399.13,-370.53 399.23,-363.53"/>
</a>
</g>
<text text-anchor="middle" x="466.5" y="-370.5" font-family="Helvetica,sans-Serif" font-size="10.00" fill="grey"> SHADER_VARIABLE</text>
</g>
<!-- Node15&#45;&gt;Node7 -->
<g id="edge22_Node000007_Node000015" class="edge">
<title>Node15&#45;&gt;Node7</title>
<g id="a_edge22_Node000007_Node000015"><a xlink:title=" ">
<path fill="none" stroke="#9a32cd" stroke-dasharray="5,2" d="M539.32,-320.71C666.54,-316.65 927.25,-308.34 1025.06,-305.22"/>
<polygon fill="#9a32cd" stroke="#9a32cd" points="539.57,-317.2 529.69,-321.02 539.8,-324.2 539.57,-317.2"/>
</a>
</g>
<text text-anchor="middle" x="721.12" y="-318.5" font-family="Helvetica,sans-Serif" font-size="10.00" fill="grey"> _enabledSubroutines</text>
</g>
</g>
</svg>

<g id="navigator" transform="translate(0 0)" fill="#404254">
  <rect fill="#f2f5e9" fill-opacity="0.5" stroke="#606060" stroke-width=".5" x="0" y="0" width="60" height="60"/>
  <use id="zoomplus" xlink:href="#zoomPlus" x="17" y="9" onmousedown="handleZoom(evt,'in')"/>
  <use id="zoomminus" xlink:href="#zoomMin" x="42" y="9" onmousedown="handleZoom(evt,'out')"/>
  <use id="reset" xlink:href="#resetDef" x="30" y="36" onmousedown="handleReset()"/>
   <use id="arrowup" xlink:href="#arrowUp" x="0" y="0" onmousedown="handlePan(0,-1)"/>
  <use id="arrowright" xlink:href="#arrowRight" x="0" y="0" onmousedown="handlePan(1,0)"/>
  <use id="arrowdown" xlink:href="#arrowDown" x="0" y="0" onmousedown="handlePan(0,1)"/>
  <use id="arrowleft" xlink:href="#arrowLeft" x="0" y="0" onmousedown="handlePan(-1,0)"/>
</g>
<svg viewBox="0 0 15 15" width="100%" height="30px" preserveAspectRatio="xMaxYMin meet">
 <g id="arrow_out" transform="scale(0.3 0.3)">
  <a xlink:href="class_g_e_u_1_1_camera__coll__graph_org.svg" target="_base">
   <rect id="button" ry="5" rx="5" y="6" x="6" height="38" width="38"
        fill="#f2f5e9" fill-opacity="0.5" stroke="#606060" stroke-width="1.0"/>
   <path id="arrow"
     d="M 11.500037,31.436501 C 11.940474,20.09759 22.043105,11.32322 32.158766,21.979434 L 37.068811,17.246167 C 37.068811,17.246167 37.088388,32 37.088388,32 L 22.160133,31.978069 C 22.160133,31.978069 26.997745,27.140456 26.997745,27.140456 C 18.528582,18.264221 13.291696,25.230495 11.500037,31.436501 z"
     style="fill:#404040;"/>
  </a>
 </g>
</svg>

<style type='text/css'>
<![CDATA[
[data-mouse-over-selected='false'] { opacity: 0.7; }
[data-mouse-over-selected='true']  { opacity: 1.0; }
]]>
</style>
<script type="application/ecmascript"><![CDATA[
document.addEventListener('DOMContentLoaded', (event) => {
  highlightEdges();
  highlightAdjacentNodes();
});
]]></script>
</svg>
