<?xml version="1.0" encoding="UTF-8" standalone="no"?>
<!DOCTYPE svg PUBLIC "-//W3C//DTD SVG 1.1//EN"
 "http://www.w3.org/Graphics/SVG/1.1/DTD/svg11.dtd">
<!-- Generated by graphviz version 10.0.1 (20240210.2158)
 -->
<!-- Title: ImGui::DrawGradientBar Pages: 1 -->
<svg width="427pt" height="72pt"
 viewBox="0.00 0.00 427.25 72.00" xmlns="http://www.w3.org/2000/svg" xmlns:xlink="http://www.w3.org/1999/xlink">
<g id="graph0" class="graph" transform="scale(1 1) rotate(0) translate(4 68)">
<title>ImGui::DrawGradientBar</title>
<!-- Node1 -->
<g id="Node000001" class="node">
<title>Node1</title>
<g id="a_Node000001"><a xlink:title=" ">
<polygon fill="#999999" stroke="#666666" points="419.25,-45 298.25,-45 298.25,-25 419.25,-25 419.25,-45"/>
<text text-anchor="middle" x="358.75" y="-31.5" font-family="Helvetica,sans-Serif" font-size="10.00">ImGui::DrawGradientBar</text>
</a>
</g>
</g>
<!-- Node2 -->
<g id="Node000002" class="node">
<title>Node2</title>
<g id="a_Node000002"><a xlink:href="../../dc/d06/a00630.html#aeaa3aca9c0f0a19f56428d1aaf42f34f" target="_top" xlink:title=" ">
<polygon fill="white" stroke="#666666" points="262.25,-64 149.5,-64 149.5,-44 262.25,-44 262.25,-64"/>
<text text-anchor="middle" x="205.88" y="-50.5" font-family="Helvetica,sans-Serif" font-size="10.00">ImGui::GradientButton</text>
</a>
</g>
</g>
<!-- Node1&#45;&gt;Node2 -->
<g id="edge1_Node000001_Node000002" class="edge">
<title>Node1&#45;&gt;Node2</title>
<g id="a_edge1_Node000001_Node000002"><a xlink:title=" ">
<path fill="none" stroke="#63b8ff" d="M286.76,-43.94C278.66,-44.96 270.49,-45.99 262.63,-46.98"/>
<polygon fill="#63b8ff" stroke="#63b8ff" points="287.13,-47.42 296.62,-42.7 286.26,-40.48 287.13,-47.42"/>
</a>
</g>
</g>
<!-- Node3 -->
<g id="Node000003" class="node">
<title>Node3</title>
<g id="a_Node000003"><a xlink:href="../../dc/d06/a00630.html#a3add9205f87d8efffa815d6e8db4864c" target="_top" xlink:title=" ">
<polygon fill="white" stroke="#666666" points="260.75,-26 151,-26 151,-6 260.75,-6 260.75,-26"/>
<text text-anchor="middle" x="205.88" y="-12.5" font-family="Helvetica,sans-Serif" font-size="10.00">ImGui::GradientEditor</text>
</a>
</g>
</g>
<!-- Node1&#45;&gt;Node3 -->
<g id="edge2_Node000001_Node000003" class="edge">
<title>Node1&#45;&gt;Node3</title>
<g id="a_edge2_Node000001_Node000003"><a xlink:title=" ">
<path fill="none" stroke="#63b8ff" d="M286.86,-26.07C278.22,-24.98 269.51,-23.89 261.17,-22.84"/>
<polygon fill="#63b8ff" stroke="#63b8ff" points="286.26,-29.52 296.62,-27.3 287.13,-22.58 286.26,-29.52"/>
</a>
</g>
</g>
<!-- Node4 -->
<g id="Node000004" class="node">
<title>Node4</title>
<g id="a_Node000004"><a xlink:href="../../db/d06/a01509.html#a7af9db6d6ad56c4c4fc336251024472f" target="_top" xlink:title="Renders the window and contents.">
<polygon fill="white" stroke="#666666" points="113.5,-32 0,-32 0,0 113.5,0 113.5,-32"/>
<text text-anchor="start" x="8" y="-18.5" font-family="Helvetica,sans-Serif" font-size="10.00">GEU::SettingsWindow</text>
<text text-anchor="middle" x="56.75" y="-6.5" font-family="Helvetica,sans-Serif" font-size="10.00">::renderWindow</text>
</a>
</g>
</g>
<!-- Node3&#45;&gt;Node4 -->
<g id="edge3_Node000003_Node000004" class="edge">
<title>Node3&#45;&gt;Node4</title>
<g id="a_edge3_Node000003_Node000004"><a xlink:title=" ">
<path fill="none" stroke="#63b8ff" d="M139.13,-16C130.7,-16 122.12,-16 113.86,-16"/>
<polygon fill="#63b8ff" stroke="#63b8ff" points="139,-19.5 149,-16 139,-12.5 139,-19.5"/>
</a>
</g>
</g>
</g>
</svg>
