<?xml version="1.0" encoding="UTF-8" standalone="no"?>
<!DOCTYPE svg PUBLIC "-//W3C//DTD SVG 1.1//EN"
 "http://www.w3.org/Graphics/SVG/1.1/DTD/svg11.dtd">
<!-- Generated by graphviz version 10.0.1 (20240210.2158)
 -->
<!-- Title: GEU::Renderer::prepareOpenGL Pages: 1 -->
<svg width="351pt" height="266pt"
 viewBox="0.00 0.00 351.25 266.00" xmlns="http://www.w3.org/2000/svg" xmlns:xlink="http://www.w3.org/1999/xlink">
<g id="graph0" class="graph" transform="scale(1 1) rotate(0) translate(4 262)">
<title>GEU::Renderer::prepareOpenGL</title>
<!-- Node1 -->
<g id="Node000001" class="node">
<title>Node1</title>
<g id="a_Node000001"><a xlink:title=" ">
<polygon fill="#999999" stroke="#666666" points="156.25,-142 0,-142 0,-122 156.25,-122 156.25,-142"/>
<text text-anchor="middle" x="78.12" y="-128.5" font-family="Helvetica,sans-Serif" font-size="10.00">GEU::Renderer::prepareOpenGL</text>
</a>
</g>
</g>
<!-- Node2 -->
<g id="Node000002" class="node">
<title>Node2</title>
<g id="a_Node000002"><a xlink:href="../../d5/d01/a01945.html#a47c7e7c2110f4cc59c9ff1f5594c366e" target="_top" xlink:title=" ">
<polygon fill="white" stroke="#666666" points="343.25,-258 192.25,-258 192.25,-226 343.25,-226 343.25,-258"/>
<text text-anchor="start" x="200.25" y="-244.5" font-family="Helvetica,sans-Serif" font-size="10.00">GEU::Singleton&lt; InputManager</text>
<text text-anchor="middle" x="267.75" y="-232.5" font-family="Helvetica,sans-Serif" font-size="10.00"> &gt;::getInstance</text>
</a>
</g>
</g>
<!-- Node1&#45;&gt;Node2 -->
<g id="edge1_Node000001_Node000002" class="edge">
<title>Node1&#45;&gt;Node2</title>
<g id="a_edge1_Node000001_Node000002"><a xlink:title=" ">
<path fill="none" stroke="#63b8ff" d="M90.18,-142.26C109.52,-159.74 151.37,-195.51 192.25,-217 195.08,-218.49 198.02,-219.91 201.02,-221.27"/>
<polygon fill="#63b8ff" stroke="#63b8ff" points="199.43,-224.4 210,-225.07 202.15,-217.95 199.43,-224.4"/>
</a>
</g>
</g>
<!-- Node3 -->
<g id="Node000003" class="node">
<title>Node3</title>
<g id="a_Node000003"><a xlink:href="../../d9/d07/a00551.html#a9b741e2bfa3e546f9305747f35b20042" target="_top" xlink:title="Starts the clock so we can execute whatever we want and measure the used time.">
<polygon fill="white" stroke="#666666" points="332,-208 203.5,-208 203.5,-188 332,-188 332,-208"/>
<text text-anchor="middle" x="267.75" y="-194.5" font-family="Helvetica,sans-Serif" font-size="10.00">ChronoUtilities::initChrono</text>
</a>
</g>
</g>
<!-- Node1&#45;&gt;Node3 -->
<g id="edge2_Node000001_Node000003" class="edge">
<title>Node1&#45;&gt;Node3</title>
<g id="a_edge2_Node000001_Node000003"><a xlink:title=" ">
<path fill="none" stroke="#63b8ff" d="M101.3,-142.33C123.85,-152.57 159.97,-168.24 192.25,-179 198.11,-180.95 204.28,-182.82 210.46,-184.57"/>
<polygon fill="#63b8ff" stroke="#63b8ff" points="209.51,-187.94 220.07,-187.18 211.34,-181.18 209.51,-187.94"/>
</a>
</g>
</g>
<!-- Node4 -->
<g id="Node000004" class="node">
<title>Node4</title>
<g id="a_Node000004"><a xlink:href="../../db/d06/a01529.html#aa6350d2d1ed7a5fec8c4b1abafb06464" target="_top" xlink:title=" ">
<polygon fill="white" stroke="#666666" points="328.62,-170 206.88,-170 206.88,-138 328.62,-138 328.62,-170"/>
<text text-anchor="start" x="214.88" y="-156.5" font-family="Helvetica,sans-Serif" font-size="10.00">GEU::ComputeShader</text>
<text text-anchor="middle" x="267.75" y="-144.5" font-family="Helvetica,sans-Serif" font-size="10.00">::initializeMaxGroupSize</text>
</a>
</g>
</g>
<!-- Node1&#45;&gt;Node4 -->
<g id="edge3_Node000001_Node000004" class="edge">
<title>Node1&#45;&gt;Node4</title>
<g id="a_edge3_Node000001_Node000004"><a xlink:title=" ">
<path fill="none" stroke="#63b8ff" d="M156.52,-141.08C169.27,-142.57 182.44,-144.11 195.05,-145.59"/>
<polygon fill="#63b8ff" stroke="#63b8ff" points="194.6,-149.06 204.94,-146.75 195.41,-142.11 194.6,-149.06"/>
</a>
</g>
</g>
<!-- Node5 -->
<g id="Node000005" class="node">
<title>Node5</title>
<g id="a_Node000005"><a xlink:href="../../d0/d02/a00104.html#ab2b13ba4f591e8639b67d08d68864b8a" target="_top" xlink:title="Callback mensajes de debug de OpenGL.">
<polygon fill="white" stroke="#666666" points="316.25,-120 219.25,-120 219.25,-100 316.25,-100 316.25,-120"/>
<text text-anchor="middle" x="267.75" y="-106.5" font-family="Helvetica,sans-Serif" font-size="10.00">message_callback</text>
</a>
</g>
</g>
<!-- Node1&#45;&gt;Node5 -->
<g id="edge4_Node000001_Node000005" class="edge">
<title>Node1&#45;&gt;Node5</title>
<g id="a_edge4_Node000001_Node000005"><a xlink:title=" ">
<path fill="none" stroke="#63b8ff" d="M156.52,-122.92C173.66,-120.91 191.56,-118.82 207.83,-116.91"/>
<polygon fill="#63b8ff" stroke="#63b8ff" points="207.77,-120.44 217.29,-115.8 206.95,-113.49 207.77,-120.44"/>
</a>
</g>
</g>
<!-- Node6 -->
<g id="Node000006" class="node">
<title>Node6</title>
<g id="a_Node000006"><a xlink:href="../../d1/d03/a01429.html#a208ca5b902362e32cc5c20fa9e481b0a" target="_top" xlink:title=" ">
<polygon fill="white" stroke="#666666" points="321.5,-82 214,-82 214,-50 321.5,-50 321.5,-82"/>
<text text-anchor="start" x="222" y="-68.5" font-family="Helvetica,sans-Serif" font-size="10.00">GEU::InputManager::</text>
<text text-anchor="middle" x="267.75" y="-56.5" font-family="Helvetica,sans-Serif" font-size="10.00">suscribeResize</text>
</a>
</g>
</g>
<!-- Node1&#45;&gt;Node6 -->
<g id="edge5_Node000001_Node000006" class="edge">
<title>Node1&#45;&gt;Node6</title>
<g id="a_edge5_Node000001_Node000006"><a xlink:title=" ">
<path fill="none" stroke="#63b8ff" d="M107.42,-121.53C130.26,-113.13 163.26,-101.12 192.25,-91 196.94,-89.36 201.81,-87.69 206.7,-86.01"/>
<polygon fill="#63b8ff" stroke="#63b8ff" points="207.63,-89.39 215.97,-82.86 205.37,-82.77 207.63,-89.39"/>
</a>
</g>
</g>
<!-- Node7 -->
<g id="Node000007" class="node">
<title>Node7</title>
<g id="a_Node000007"><a xlink:href="../../d1/d03/a01429.html#a5699aaef121685c9ab8cabdac40455b1" target="_top" xlink:title=" ">
<polygon fill="white" stroke="#666666" points="321.5,-32 214,-32 214,0 321.5,0 321.5,-32"/>
<text text-anchor="start" x="222" y="-18.5" font-family="Helvetica,sans-Serif" font-size="10.00">GEU::InputManager::</text>
<text text-anchor="middle" x="267.75" y="-6.5" font-family="Helvetica,sans-Serif" font-size="10.00">suscribeScreenshot</text>
</a>
</g>
</g>
<!-- Node1&#45;&gt;Node7 -->
<g id="edge6_Node000001_Node000007" class="edge">
<title>Node1&#45;&gt;Node7</title>
<g id="a_edge6_Node000001_Node000007"><a xlink:title=" ">
<path fill="none" stroke="#63b8ff" d="M89.43,-121.56C108.27,-102.98 150.24,-63.98 192.25,-41 195.71,-39.11 199.33,-37.33 203.04,-35.65"/>
<polygon fill="#63b8ff" stroke="#63b8ff" points="204.38,-38.89 212.26,-31.8 201.68,-32.43 204.38,-38.89"/>
</a>
</g>
</g>
</g>
</svg>
