<?xml version="1.0" encoding="UTF-8" standalone="no"?>
<!DOCTYPE svg PUBLIC "-//W3C//DTD SVG 1.1//EN"
 "http://www.w3.org/Graphics/SVG/1.1/DTD/svg11.dtd">
<!-- Generated by graphviz version 10.0.1 (20240210.2158)
 -->
<!-- Title: GEU::LightProperties::getPosition Pages: 1 -->
<svg width="289pt" height="66pt"
 viewBox="0.00 0.00 289.00 66.00" xmlns="http://www.w3.org/2000/svg" xmlns:xlink="http://www.w3.org/1999/xlink">
<g id="graph0" class="graph" transform="scale(1 1) rotate(0) translate(4 62)">
<title>GEU::LightProperties::getPosition</title>
<!-- Node1 -->
<g id="Node000001" class="node">
<title>Node1</title>
<g id="a_Node000001"><a xlink:title=" ">
<polygon fill="#999999" stroke="#666666" points="281,-45 172.75,-45 172.75,-13 281,-13 281,-45"/>
<text text-anchor="start" x="180.75" y="-31.5" font-family="Helvetica,sans-Serif" font-size="10.00">GEU::LightProperties</text>
<text text-anchor="middle" x="226.88" y="-19.5" font-family="Helvetica,sans-Serif" font-size="10.00">::getPosition</text>
</a>
</g>
</g>
<!-- Node2 -->
<g id="Node000002" class="node">
<title>Node2</title>
<g id="a_Node000002"><a xlink:href="../../d5/d03/a01680.html#a250e6144b8bf8a0df383732159c84661" target="_top" xlink:title=" ">
<polygon fill="white" stroke="#666666" points="136.75,-58 0,-58 0,-38 136.75,-38 136.75,-58"/>
<text text-anchor="middle" x="68.38" y="-44.5" font-family="Helvetica,sans-Serif" font-size="10.00">GEU::PointLight::applyLight</text>
</a>
</g>
</g>
<!-- Node1&#45;&gt;Node2 -->
<g id="edge1_Node000001_Node000002" class="edge">
<title>Node1&#45;&gt;Node2</title>
<g id="a_edge1_Node000001_Node000002"><a xlink:title=" ">
<path fill="none" stroke="#63b8ff" d="M161.09,-36.87C153.21,-37.82 145.14,-38.8 137.22,-39.76"/>
<polygon fill="#63b8ff" stroke="#63b8ff" points="161.45,-40.35 170.95,-35.67 160.6,-33.4 161.45,-40.35"/>
</a>
</g>
</g>
<!-- Node3 -->
<g id="Node000003" class="node">
<title>Node3</title>
<g id="a_Node000003"><a xlink:href="../../d6/d03/a01688.html#ab5c61d5a9e2787b0729427cad1c23750" target="_top" xlink:title=" ">
<polygon fill="white" stroke="#666666" points="135.62,-20 1.12,-20 1.12,0 135.62,0 135.62,-20"/>
<text text-anchor="middle" x="68.38" y="-6.5" font-family="Helvetica,sans-Serif" font-size="10.00">GEU::SpotLight::applyLight</text>
</a>
</g>
</g>
<!-- Node1&#45;&gt;Node3 -->
<g id="edge2_Node000001_Node000003" class="edge">
<title>Node1&#45;&gt;Node3</title>
<g id="a_edge2_Node000001_Node000003"><a xlink:title=" ">
<path fill="none" stroke="#63b8ff" d="M161.29,-21.16C152.98,-20.15 144.46,-19.12 136.12,-18.1"/>
<polygon fill="#63b8ff" stroke="#63b8ff" points="160.6,-24.6 170.95,-22.33 161.45,-17.65 160.6,-24.6"/>
</a>
</g>
</g>
</g>
</svg>
