<?xml version="1.0" encoding="UTF-8" standalone="no"?>
<!DOCTYPE svg PUBLIC "-//W3C//DTD SVG 1.1//EN"
 "http://www.w3.org/Graphics/SVG/1.1/DTD/svg11.dtd">
<!-- Generated by graphviz version 10.0.1 (20240210.2158)
 -->
<!-- Title: Database::Provincia Pages: 1 -->
<svg width="139pt" height="177pt"
 viewBox="0.00 0.00 139.38 177.00" xmlns="http://www.w3.org/2000/svg" xmlns:xlink="http://www.w3.org/1999/xlink">
<g id="graph0" class="graph" transform="scale(1 1) rotate(0) translate(4 173)">
<title>Database::Provincia</title>
<!-- Node1 -->
<g id="Node000001" class="node">
<title>Node1</title>
<g id="a_Node000001"><a xlink:title=" ">
<polygon fill="#999999" stroke="#666666" points="102.25,-20 0,-20 0,0 102.25,0 102.25,-20"/>
<text text-anchor="middle" x="51.12" y="-6.5" font-family="Helvetica,sans-Serif" font-size="10.00">Database::Provincia</text>
</a>
</g>
</g>
<!-- Node2 -->
<g id="Node000002" class="node">
<title>Node2</title>
<g id="a_Node000002"><a xlink:title=" ">
<polygon fill="white" stroke="#666666" points="80.88,-100 21.37,-100 21.37,-80 80.88,-80 80.88,-100"/>
<text text-anchor="middle" x="51.12" y="-86.5" font-family="Helvetica,sans-Serif" font-size="10.00">std::string</text>
</a>
</g>
</g>
<!-- Node2&#45;&gt;Node1 -->
<g id="edge1_Node000001_Node000002" class="edge">
<title>Node2&#45;&gt;Node1</title>
<g id="a_edge1_Node000001_Node000002"><a xlink:title=" ">
<path fill="none" stroke="#9a32cd" stroke-dasharray="5,2" d="M51.12,-68.59C51.12,-52.94 51.12,-32.08 51.12,-20.24"/>
<polygon fill="#9a32cd" stroke="#9a32cd" points="47.63,-68.23 51.13,-78.23 54.63,-68.23 47.63,-68.23"/>
</a>
</g>
<text text-anchor="middle" x="91.25" y="-52.5" font-family="Helvetica,sans-Serif" font-size="10.00" fill="grey"> SELECT_QUERY</text>
<text text-anchor="middle" x="91.25" y="-40.5" font-family="Helvetica,sans-Serif" font-size="10.00" fill="grey">nombreProvincia</text>
</g>
<!-- Node3 -->
<g id="Node000003" class="node">
<title>Node3</title>
<g id="a_Node000003"><a xlink:title=" ">
<polygon fill="white" stroke="#666666" points="98.12,-169 4.12,-169 4.12,-137 98.12,-137 98.12,-169"/>
<text text-anchor="start" x="12.12" y="-155.5" font-family="Helvetica,sans-Serif" font-size="10.00">std::basic_string&lt;</text>
<text text-anchor="middle" x="51.12" y="-143.5" font-family="Helvetica,sans-Serif" font-size="10.00"> Char &gt;</text>
</a>
</g>
</g>
<!-- Node3&#45;&gt;Node2 -->
<g id="edge2_Node000002_Node000003" class="edge">
<title>Node3&#45;&gt;Node2</title>
<g id="a_edge2_Node000002_Node000003"><a xlink:title=" ">
<path fill="none" stroke="#63b8ff" d="M51.12,-125.36C51.12,-116.41 51.12,-107.01 51.12,-100.31"/>
<polygon fill="#63b8ff" stroke="#63b8ff" points="47.63,-125.09 51.13,-135.09 54.63,-125.09 47.63,-125.09"/>
</a>
</g>
</g>
</g>
</svg>
