<?xml version="1.0" encoding="UTF-8" standalone="no"?>
<!DOCTYPE svg PUBLIC "-//W3C//DTD SVG 1.1//EN"
 "http://www.w3.org/Graphics/SVG/1.1/DTD/svg11.dtd">
<!-- Generated by graphviz version 10.0.1 (20240210.2158)
 -->
<!-- Title: C:/GitHub/GEU/GEU/Source/Core/Scene.h Pages: 1 -->
<svg width="507pt" height="488pt"
 viewBox="0.00 0.00 506.88 488.00" xmlns="http://www.w3.org/2000/svg" xmlns:xlink="http://www.w3.org/1999/xlink">
<g id="graph0" class="graph" transform="scale(1 1) rotate(0) translate(4 484)">
<title>C:/GitHub/GEU/GEU/Source/Core/Scene.h</title>
<!-- Node1 -->
<g id="Node000001" class="node">
<title>Node1</title>
<g id="a_Node000001"><a xlink:title=" ">
<polygon fill="#999999" stroke="#666666" points="344,-480 203.5,-480 203.5,-448 344,-448 344,-480"/>
<text text-anchor="start" x="211.5" y="-466.5" font-family="Helvetica,sans-Serif" font-size="10.00">C:/GitHub/GEU/GEU/Source</text>
<text text-anchor="middle" x="273.75" y="-454.5" font-family="Helvetica,sans-Serif" font-size="10.00">/Core/Scene.h</text>
</a>
</g>
</g>
<!-- Node2 -->
<g id="Node000002" class="node">
<title>Node2</title>
<g id="a_Node000002"><a xlink:href="../../d5/d91/_camera_8h.html" target="_top" xlink:title=" ">
<polygon fill="white" stroke="#666666" points="210.12,-412 115.38,-412 115.38,-392 210.12,-392 210.12,-412"/>
<text text-anchor="middle" x="162.75" y="-398.5" font-family="Helvetica,sans-Serif" font-size="10.00">Camera/Camera.h</text>
</a>
</g>
</g>
<!-- Node1&#45;&gt;Node2 -->
<g id="edge1_Node000001_Node000002" class="edge">
<title>Node1&#45;&gt;Node2</title>
<g id="a_edge1_Node000001_Node000002"><a xlink:title=" ">
<path fill="none" stroke="#63b8ff" d="M245.16,-447.55C228.14,-438.35 206.66,-426.74 189.9,-417.68"/>
<polygon fill="#63b8ff" stroke="#63b8ff" points="191.95,-414.8 181.49,-413.13 188.62,-420.96 191.95,-414.8"/>
</a>
</g>
</g>
<!-- Node14 -->
<g id="Node000014" class="node">
<title>Node14</title>
<g id="a_Node000014"><a xlink:href="../../d2/d46/_light_8h.html" target="_top" xlink:title=" ">
<polygon fill="white" stroke="#666666" points="311,-412 236.5,-412 236.5,-392 311,-392 311,-412"/>
<text text-anchor="middle" x="273.75" y="-398.5" font-family="Helvetica,sans-Serif" font-size="10.00">Lights/Light.h</text>
</a>
</g>
</g>
<!-- Node1&#45;&gt;Node14 -->
<g id="edge16_Node000001_Node000014" class="edge">
<title>Node1&#45;&gt;Node14</title>
<g id="a_edge16_Node000001_Node000014"><a xlink:title=" ">
<path fill="none" stroke="#63b8ff" d="M273.75,-447.55C273.75,-440.34 273.75,-431.66 273.75,-423.88"/>
<polygon fill="#63b8ff" stroke="#63b8ff" points="277.25,-423.92 273.75,-413.92 270.25,-423.92 277.25,-423.92"/>
</a>
</g>
</g>
<!-- Node17 -->
<g id="Node000017" class="node">
<title>Node17</title>
<g id="a_Node000017"><a xlink:href="../../d7/d92/_database_connector_8h.html" target="_top" xlink:title=" ">
<polygon fill="white" stroke="#666666" points="478.25,-412 333.25,-412 333.25,-392 478.25,-392 478.25,-412"/>
<text text-anchor="middle" x="405.75" y="-398.5" font-family="Helvetica,sans-Serif" font-size="10.00">Utilities/DatabaseConnector.h</text>
</a>
</g>
</g>
<!-- Node1&#45;&gt;Node17 -->
<g id="edge21_Node000001_Node000017" class="edge">
<title>Node1&#45;&gt;Node17</title>
<g id="a_edge21_Node000001_Node000017"><a xlink:title=" ">
<path fill="none" stroke="#63b8ff" d="M307.74,-447.55C328.37,-438.17 354.49,-426.3 374.59,-417.17"/>
<polygon fill="#63b8ff" stroke="#63b8ff" points="376.02,-420.36 383.67,-413.03 373.12,-413.99 376.02,-420.36"/>
</a>
</g>
</g>
<!-- Node3 -->
<g id="Node000003" class="node">
<title>Node3</title>
<g id="a_Node000003"><a xlink:href="../../dd/dbb/_camera_projection_8h.html" target="_top" xlink:title=" ">
<polygon fill="white" stroke="#666666" points="101.5,-356 0,-356 0,-336 101.5,-336 101.5,-356"/>
<text text-anchor="middle" x="50.75" y="-342.5" font-family="Helvetica,sans-Serif" font-size="10.00">CameraProjection.h</text>
</a>
</g>
</g>
<!-- Node2&#45;&gt;Node3 -->
<g id="edge2_Node000002_Node000003" class="edge">
<title>Node2&#45;&gt;Node3</title>
<g id="a_edge2_Node000002_Node000003"><a xlink:title=" ">
<path fill="none" stroke="#63b8ff" d="M143.24,-391.59C126,-383.28 100.59,-371.03 80.76,-361.47"/>
<polygon fill="#63b8ff" stroke="#63b8ff" points="82.3,-358.33 71.77,-357.14 79.26,-364.63 82.3,-358.33"/>
</a>
</g>
</g>
<!-- Node4 -->
<g id="Node000004" class="node">
<title>Node4</title>
<g id="a_Node000004"><a xlink:href="../../d0/d8e/_model3_d_8h.html" target="_top" xlink:title=" ">
<polygon fill="white" stroke="#666666" points="205.62,-356 119.88,-356 119.88,-336 205.62,-336 205.62,-356"/>
<text text-anchor="middle" x="162.75" y="-342.5" font-family="Helvetica,sans-Serif" font-size="10.00">Core/Model3D.h</text>
</a>
</g>
</g>
<!-- Node2&#45;&gt;Node4 -->
<g id="edge3_Node000002_Node000004" class="edge">
<title>Node2&#45;&gt;Node4</title>
<g id="a_edge3_Node000002_Node000004"><a xlink:title=" ">
<path fill="none" stroke="#63b8ff" d="M162.75,-391.59C162.75,-385.01 162.75,-375.96 162.75,-367.73"/>
<polygon fill="#63b8ff" stroke="#63b8ff" points="166.25,-367.81 162.75,-357.81 159.25,-367.81 166.25,-367.81"/>
</a>
</g>
</g>
<!-- Node5 -->
<g id="Node000005" class="node">
<title>Node5</title>
<g id="a_Node000005"><a xlink:href="../../d3/d09/_material_8h.html" target="_top" xlink:title=" ">
<polygon fill="white" stroke="#666666" points="246.12,-244 187.38,-244 187.38,-224 246.12,-224 246.12,-244"/>
<text text-anchor="middle" x="216.75" y="-230.5" font-family="Helvetica,sans-Serif" font-size="10.00">Material.h</text>
</a>
</g>
</g>
<!-- Node4&#45;&gt;Node5 -->
<g id="edge4_Node000004_Node000005" class="edge">
<title>Node4&#45;&gt;Node5</title>
<g id="a_edge4_Node000004_Node000005"><a xlink:title=" ">
<path fill="none" stroke="#63b8ff" d="M156.44,-335.63C148.44,-322.49 136.84,-298.16 146.75,-280 154.07,-266.59 167.28,-256.58 180.28,-249.45"/>
<polygon fill="#63b8ff" stroke="#63b8ff" points="181.79,-252.61 189.18,-245.02 178.66,-246.35 181.79,-252.61"/>
</a>
</g>
</g>
<!-- Node13 -->
<g id="Node000013" class="node">
<title>Node13</title>
<g id="a_Node000013"><a xlink:href="../../d2/d00/_a_a_b_b_8h.html" target="_top" xlink:title=" ">
<polygon fill="white" stroke="#666666" points="253.25,-300 156.25,-300 156.25,-280 253.25,-280 253.25,-300"/>
<text text-anchor="middle" x="204.75" y="-286.5" font-family="Helvetica,sans-Serif" font-size="10.00">Geometry/AABB.h</text>
</a>
</g>
</g>
<!-- Node4&#45;&gt;Node13 -->
<g id="edge15_Node000004_Node000013" class="edge">
<title>Node4&#45;&gt;Node13</title>
<g id="a_edge15_Node000004_Node000013"><a xlink:title=" ">
<path fill="none" stroke="#63b8ff" d="M170.07,-335.59C175.73,-328.32 183.74,-318.02 190.64,-309.15"/>
<polygon fill="#63b8ff" stroke="#63b8ff" points="193.21,-311.54 196.59,-301.49 187.69,-307.24 193.21,-311.54"/>
</a>
</g>
</g>
<!-- Node6 -->
<g id="Node000006" class="node">
<title>Node6</title>
<g id="a_Node000006"><a xlink:title=" ">
<polygon fill="#e0e0e0" stroke="#999999" points="166.25,-132 81.25,-132 81.25,-112 166.25,-112 166.25,-132"/>
<text text-anchor="middle" x="123.75" y="-118.5" font-family="Helvetica,sans-Serif" font-size="10.00">assimp/scene.h</text>
</a>
</g>
</g>
<!-- Node5&#45;&gt;Node6 -->
<g id="edge5_Node000005_Node000006" class="edge">
<title>Node5&#45;&gt;Node6</title>
<g id="a_edge5_Node000005_Node000006"><a xlink:title=" ">
<path fill="none" stroke="#63b8ff" d="M208.82,-223.62C193.38,-205.36 159.03,-164.73 139.03,-141.07"/>
<polygon fill="#63b8ff" stroke="#63b8ff" points="141.77,-138.89 132.64,-133.51 136.42,-143.41 141.77,-138.89"/>
</a>
</g>
</g>
<!-- Node7 -->
<g id="Node000007" class="node">
<title>Node7</title>
<g id="a_Node000007"><a xlink:href="../../d1/d4f/_rendering_shader_8h.html" target="_top" xlink:title=" ">
<polygon fill="white" stroke="#666666" points="424.12,-188 263.38,-188 263.38,-168 424.12,-168 424.12,-188"/>
<text text-anchor="middle" x="343.75" y="-174.5" font-family="Helvetica,sans-Serif" font-size="10.00">Core/Shaders/RenderingShader.h</text>
</a>
</g>
</g>
<!-- Node5&#45;&gt;Node7 -->
<g id="edge6_Node000005_Node000007" class="edge">
<title>Node5&#45;&gt;Node7</title>
<g id="a_edge6_Node000005_Node000007"><a xlink:title=" ">
<path fill="none" stroke="#63b8ff" d="M238.87,-223.59C258.78,-215.13 288.3,-202.58 310.96,-192.94"/>
<polygon fill="#63b8ff" stroke="#63b8ff" points="312.23,-196.21 320.06,-189.07 309.49,-189.76 312.23,-196.21"/>
</a>
</g>
</g>
<!-- Node11 -->
<g id="Node000011" class="node">
<title>Node11</title>
<g id="a_Node000011"><a xlink:href="../../de/dbf/_texture_8h.html" target="_top" xlink:title=" ">
<polygon fill="white" stroke="#666666" points="245,-188 188.5,-188 188.5,-168 245,-168 245,-188"/>
<text text-anchor="middle" x="216.75" y="-174.5" font-family="Helvetica,sans-Serif" font-size="10.00">Texture.h</text>
</a>
</g>
</g>
<!-- Node5&#45;&gt;Node11 -->
<g id="edge11_Node000005_Node000011" class="edge">
<title>Node5&#45;&gt;Node11</title>
<g id="a_edge11_Node000005_Node000011"><a xlink:title=" ">
<path fill="none" stroke="#63b8ff" d="M216.75,-223.59C216.75,-217.01 216.75,-207.96 216.75,-199.73"/>
<polygon fill="#63b8ff" stroke="#63b8ff" points="220.25,-199.81 216.75,-189.81 213.25,-199.81 220.25,-199.81"/>
</a>
</g>
</g>
<!-- Node8 -->
<g id="Node000008" class="node">
<title>Node8</title>
<g id="a_Node000008"><a xlink:href="../../d0/dbe/_shader_program_8h.html" target="_top" xlink:title=" ">
<polygon fill="white" stroke="#666666" points="379.62,-132 287.88,-132 287.88,-112 379.62,-112 379.62,-132"/>
<text text-anchor="middle" x="333.75" y="-118.5" font-family="Helvetica,sans-Serif" font-size="10.00">ShaderProgram.h</text>
</a>
</g>
</g>
<!-- Node7&#45;&gt;Node8 -->
<g id="edge7_Node000007_Node000008" class="edge">
<title>Node7&#45;&gt;Node8</title>
<g id="a_edge7_Node000007_Node000008"><a xlink:title=" ">
<path fill="none" stroke="#63b8ff" d="M342.01,-167.59C340.77,-160.93 339.07,-151.75 337.54,-143.44"/>
<polygon fill="#63b8ff" stroke="#63b8ff" points="341.01,-142.98 335.75,-133.79 334.13,-144.26 341.01,-142.98"/>
</a>
</g>
</g>
<!-- Node9 -->
<g id="Node000009" class="node">
<title>Node9</title>
<g id="a_Node000009"><a xlink:href="../../df/d2e/_shader_enums_8h.html" target="_top" xlink:title=" ">
<polygon fill="white" stroke="#666666" points="413.62,-76 327.88,-76 327.88,-56 413.62,-56 413.62,-76"/>
<text text-anchor="middle" x="370.75" y="-62.5" font-family="Helvetica,sans-Serif" font-size="10.00">ShaderEnums.h</text>
</a>
</g>
</g>
<!-- Node7&#45;&gt;Node9 -->
<g id="edge10_Node000007_Node000009" class="edge">
<title>Node7&#45;&gt;Node9</title>
<g id="a_edge10_Node000007_Node000009"><a xlink:title=" ">
<path fill="none" stroke="#63b8ff" d="M357.68,-167.8C368.43,-159.79 382.49,-147.11 388.75,-132 394.91,-117.13 389.26,-99.48 382.71,-86.33"/>
<polygon fill="#63b8ff" stroke="#63b8ff" points="385.9,-84.85 377.97,-77.82 379.78,-88.26 385.9,-84.85"/>
</a>
</g>
</g>
<!-- Node8&#45;&gt;Node9 -->
<g id="edge8_Node000008_Node000009" class="edge">
<title>Node8&#45;&gt;Node9</title>
<g id="a_edge8_Node000008_Node000009"><a xlink:title=" ">
<path fill="none" stroke="#63b8ff" d="M340.19,-111.59C345.08,-104.47 351.94,-94.45 357.93,-85.72"/>
<polygon fill="#63b8ff" stroke="#63b8ff" points="360.76,-87.77 363.52,-77.55 354.98,-83.82 360.76,-87.77"/>
</a>
</g>
</g>
<!-- Node10 -->
<g id="Node000010" class="node">
<title>Node10</title>
<g id="a_Node000010"><a xlink:title=" ">
<polygon fill="#e0e0e0" stroke="#999999" points="400.5,-20 341,-20 341,0 400.5,0 400.5,-20"/>
<text text-anchor="middle" x="370.75" y="-6.5" font-family="Helvetica,sans-Serif" font-size="10.00">GL/glew.h</text>
</a>
</g>
</g>
<!-- Node9&#45;&gt;Node10 -->
<g id="edge9_Node000009_Node000010" class="edge">
<title>Node9&#45;&gt;Node10</title>
<g id="a_edge9_Node000009_Node000010"><a xlink:title=" ">
<path fill="none" stroke="#63b8ff" d="M370.75,-55.59C370.75,-49.01 370.75,-39.96 370.75,-31.73"/>
<polygon fill="#63b8ff" stroke="#63b8ff" points="374.25,-31.81 370.75,-21.81 367.25,-31.81 374.25,-31.81"/>
</a>
</g>
</g>
<!-- Node11&#45;&gt;Node6 -->
<g id="edge12_Node000011_Node000006" class="edge">
<title>Node11&#45;&gt;Node6</title>
<g id="a_edge12_Node000011_Node000006"><a xlink:title=" ">
<path fill="none" stroke="#63b8ff" d="M200.55,-167.59C186.5,-159.44 165.92,-147.48 149.59,-138"/>
<polygon fill="#63b8ff" stroke="#63b8ff" points="151.79,-135.23 141.38,-133.24 148.28,-141.29 151.79,-135.23"/>
</a>
</g>
</g>
<!-- Node11&#45;&gt;Node8 -->
<g id="edge14_Node000011_Node000008" class="edge">
<title>Node11&#45;&gt;Node8</title>
<g id="a_edge14_Node000011_Node000008"><a xlink:title=" ">
<path fill="none" stroke="#63b8ff" d="M237.13,-167.59C255.31,-159.21 282.18,-146.8 302.97,-137.21"/>
<polygon fill="#63b8ff" stroke="#63b8ff" points="304.22,-140.48 311.84,-133.11 301.29,-134.13 304.22,-140.48"/>
</a>
</g>
</g>
<!-- Node12 -->
<g id="Node000012" class="node">
<title>Node12</title>
<g id="a_Node000012"><a xlink:href="../../d9/de5/_image_8h.html" target="_top" xlink:title=" ">
<polygon fill="white" stroke="#666666" points="269.62,-132 183.88,-132 183.88,-112 269.62,-112 269.62,-132"/>
<text text-anchor="middle" x="226.75" y="-118.5" font-family="Helvetica,sans-Serif" font-size="10.00">Utilities/Image.h</text>
</a>
</g>
</g>
<!-- Node11&#45;&gt;Node12 -->
<g id="edge13_Node000011_Node000012" class="edge">
<title>Node11&#45;&gt;Node12</title>
<g id="a_edge13_Node000011_Node000012"><a xlink:title=" ">
<path fill="none" stroke="#63b8ff" d="M218.49,-167.59C219.73,-160.93 221.43,-151.75 222.96,-143.44"/>
<polygon fill="#63b8ff" stroke="#63b8ff" points="226.37,-144.26 224.75,-133.79 219.49,-142.98 226.37,-144.26"/>
</a>
</g>
</g>
<!-- Node15 -->
<g id="Node000015" class="node">
<title>Node15</title>
<g id="a_Node000015"><a xlink:href="../../d7/d9c/_light_attenuation_8h.html" target="_top" xlink:title=" ">
<polygon fill="white" stroke="#666666" points="318.12,-356 223.38,-356 223.38,-336 318.12,-336 318.12,-356"/>
<text text-anchor="middle" x="270.75" y="-342.5" font-family="Helvetica,sans-Serif" font-size="10.00">LightAttenuation.h</text>
</a>
</g>
</g>
<!-- Node14&#45;&gt;Node15 -->
<g id="edge17_Node000014_Node000015" class="edge">
<title>Node14&#45;&gt;Node15</title>
<g id="a_edge17_Node000014_Node000015"><a xlink:title=" ">
<path fill="none" stroke="#63b8ff" d="M273.23,-391.59C272.86,-385.01 272.36,-375.96 271.9,-367.73"/>
<polygon fill="#63b8ff" stroke="#63b8ff" points="275.4,-367.6 271.35,-357.81 268.41,-367.99 275.4,-367.6"/>
</a>
</g>
</g>
<!-- Node16 -->
<g id="Node000016" class="node">
<title>Node16</title>
<g id="a_Node000016"><a xlink:href="../../d1/db9/_light_model_8h.html" target="_top" xlink:title=" ">
<polygon fill="white" stroke="#666666" points="342.5,-300 271,-300 271,-280 342.5,-280 342.5,-300"/>
<text text-anchor="middle" x="306.75" y="-286.5" font-family="Helvetica,sans-Serif" font-size="10.00">LightModel.h</text>
</a>
</g>
</g>
<!-- Node14&#45;&gt;Node16 -->
<g id="edge20_Node000014_Node000016" class="edge">
<title>Node14&#45;&gt;Node16</title>
<g id="a_edge20_Node000014_Node000016"><a xlink:title=" ">
<path fill="none" stroke="#63b8ff" d="M291.38,-391.59C303.81,-383.87 319.5,-371.66 326.75,-356 333.71,-340.95 327.02,-322.85 319.55,-309.57"/>
<polygon fill="#63b8ff" stroke="#63b8ff" points="322.71,-308.03 314.45,-301.4 316.77,-311.73 322.71,-308.03"/>
</a>
</g>
</g>
<!-- Node15&#45;&gt;Node16 -->
<g id="edge18_Node000015_Node000016" class="edge">
<title>Node15&#45;&gt;Node16</title>
<g id="a_edge18_Node000015_Node000016"><a xlink:title=" ">
<path fill="none" stroke="#63b8ff" d="M277.02,-335.59C281.77,-328.47 288.45,-318.45 294.27,-309.72"/>
<polygon fill="#63b8ff" stroke="#63b8ff" points="297.08,-311.82 299.71,-301.56 291.25,-307.94 297.08,-311.82"/>
</a>
</g>
</g>
<!-- Node16&#45;&gt;Node5 -->
<g id="edge19_Node000016_Node000005" class="edge">
<title>Node16&#45;&gt;Node5</title>
<g id="a_edge19_Node000016_Node000005"><a xlink:title=" ">
<path fill="none" stroke="#63b8ff" d="M291.07,-279.59C277.61,-271.51 257.93,-259.71 242.21,-250.27"/>
<polygon fill="#63b8ff" stroke="#63b8ff" points="244.22,-247.4 233.85,-245.26 240.62,-253.4 244.22,-247.4"/>
</a>
</g>
</g>
<!-- Node18 -->
<g id="Node000018" class="node">
<title>Node18</title>
<g id="a_Node000018"><a xlink:href="../../de/dec/_singleton_8h.html" target="_top" xlink:title=" ">
<polygon fill="white" stroke="#666666" points="438.12,-356 373.38,-356 373.38,-336 438.12,-336 438.12,-356"/>
<text text-anchor="middle" x="405.75" y="-342.5" font-family="Helvetica,sans-Serif" font-size="10.00">Singleton.h</text>
</a>
</g>
</g>
<!-- Node17&#45;&gt;Node18 -->
<g id="edge22_Node000017_Node000018" class="edge">
<title>Node17&#45;&gt;Node18</title>
<g id="a_edge22_Node000017_Node000018"><a xlink:title=" ">
<path fill="none" stroke="#63b8ff" d="M405.75,-391.59C405.75,-385.01 405.75,-375.96 405.75,-367.73"/>
<polygon fill="#63b8ff" stroke="#63b8ff" points="409.25,-367.81 405.75,-357.81 402.25,-367.81 409.25,-367.81"/>
</a>
</g>
</g>
<!-- Node19 -->
<g id="Node000019" class="node">
<title>Node19</title>
<g id="a_Node000019"><a xlink:title=" ">
<polygon fill="#e0e0e0" stroke="#999999" points="498.88,-356 456.62,-356 456.62,-336 498.88,-336 498.88,-356"/>
<text text-anchor="middle" x="477.75" y="-342.5" font-family="Helvetica,sans-Serif" font-size="10.00">occi.h</text>
</a>
</g>
</g>
<!-- Node17&#45;&gt;Node19 -->
<g id="edge23_Node000017_Node000019" class="edge">
<title>Node17&#45;&gt;Node19</title>
<g id="a_edge23_Node000017_Node000019"><a xlink:title=" ">
<path fill="none" stroke="#63b8ff" d="M418.29,-391.59C428.72,-383.77 443.8,-372.46 456.16,-363.19"/>
<polygon fill="#63b8ff" stroke="#63b8ff" points="458.24,-366.01 464.14,-357.21 454.04,-360.41 458.24,-366.01"/>
</a>
</g>
</g>
</g>
</svg>
