<?xml version="1.0" encoding="UTF-8" standalone="no"?>
<!DOCTYPE svg PUBLIC "-//W3C//DTD SVG 1.1//EN"
 "http://www.w3.org/Graphics/SVG/1.1/DTD/svg11.dtd">
<!-- Generated by graphviz version 10.0.1 (20240210.2158)
 -->
<!-- Title: GEU::ProceduralGenerator::subdivideCloud Pages: 1 -->
<svg width="412pt" height="154pt"
 viewBox="0.00 0.00 412.25 154.00" xmlns="http://www.w3.org/2000/svg" xmlns:xlink="http://www.w3.org/1999/xlink">

<svg id="main" version="1.1" xmlns="http://www.w3.org/2000/svg" xmlns:xlink="http://www.w3.org/1999/xlink" xml:space="preserve" onload="init(evt)">
<style type="text/css"><![CDATA[
.node, .edge {opacity: 0.7;}
.node.selected, .edge.selected {opacity: 1;}
.edge:hover path { stroke: red; }
.edge:hover polygon { stroke: red; fill: red; }
]]></style>
<script type="application/ecmascript" xlink:href="../../svg.min.js"/>
<svg id="graph" class="graph">
<g id="graph0" class="graph" transform="scale(1 1) rotate(0) translate(4 150)">
<title>GEU::ProceduralGenerator::subdivideCloud</title>
<!-- Node1 -->
<g id="Node000001" class="node">
<title>Node1</title>
<g id="a_Node000001"><a xlink:title="Assign each point of the PointCloud to the corresponding voxel in the voxel grid and computes the cor...">
<polygon fill="#999999" stroke="#666666" points="132.25,-86 0,-86 0,-54 132.25,-54 132.25,-86"/>
<text text-anchor="start" x="8" y="-72.5" font-family="Helvetica,sans-Serif" font-size="10.00">GEU::ProceduralGenerator</text>
<text text-anchor="middle" x="66.12" y="-60.5" font-family="Helvetica,sans-Serif" font-size="10.00">::subdivideCloud</text>
</a>
</g>
</g>
<!-- Node2 -->
<g id="Node000002" class="node">
<title>Node2</title>
<g id="a_Node000002"><a xlink:href="../../db/d6c/class_g_e_u_1_1_model3_d.html#ab5fdc7a938aa8ae8f6697cb4bf3e94b4" target="_top" xlink:title=" ">
<polygon fill="white" stroke="#666666" points="300.88,-146 173.12,-146 173.12,-126 300.88,-126 300.88,-146"/>
<text text-anchor="middle" x="237" y="-132.5" font-family="Helvetica,sans-Serif" font-size="10.00">GEU::Model3D::getAABB</text>
</a>
</g>
</g>
<!-- Node1&#45;&gt;Node2 -->
<g id="edge1_Node000001_Node000002" class="edge">
<title>Node1&#45;&gt;Node2</title>
<g id="a_edge1_Node000001_Node000002"><a xlink:title=" ">
<path fill="none" stroke="#63b8ff" d="M98.9,-86.38C118.54,-96.1 144.46,-108.2 168.25,-117 173.28,-118.86 178.59,-120.64 183.92,-122.32"/>
<polygon fill="#63b8ff" stroke="#63b8ff" points="182.78,-125.63 193.37,-125.16 184.8,-118.93 182.78,-125.63"/>
</a>
</g>
</g>
<!-- Node4 -->
<g id="Node000004" class="node">
<title>Node4</title>
<g id="a_Node000004"><a xlink:href="../../d4/dbf/class_g_e_u_1_1_point_cloud.html#a52698b429492303948167bed5da1a0d9" target="_top" xlink:title=" ">
<polygon fill="white" stroke="#666666" points="305.75,-108 168.25,-108 168.25,-76 305.75,-76 305.75,-108"/>
<text text-anchor="start" x="176.25" y="-94.5" font-family="Helvetica,sans-Serif" font-size="10.00">GEU::PointCloud::getPoints</text>
<text text-anchor="middle" x="237" y="-82.5" font-family="Helvetica,sans-Serif" font-size="10.00">Position</text>
</a>
</g>
</g>
<!-- Node1&#45;&gt;Node4 -->
<g id="edge3_Node000001_Node000004" class="edge">
<title>Node1&#45;&gt;Node4</title>
<g id="a_edge3_Node000001_Node000004"><a xlink:title=" ">
<path fill="none" stroke="#63b8ff" d="M132.42,-78.51C140.3,-79.53 148.42,-80.59 156.48,-81.64"/>
<polygon fill="#63b8ff" stroke="#63b8ff" points="155.94,-85.1 166.31,-82.92 156.84,-78.16 155.94,-85.1"/>
</a>
</g>
</g>
<!-- Node5 -->
<g id="Node000005" class="node">
<title>Node5</title>
<g id="a_Node000005"><a xlink:href="../../dc/d47/class_a_a_b_b.html#a29073914f600f7657f4a44937702a471" target="_top" xlink:title=" ">
<polygon fill="white" stroke="#666666" points="269.38,-58 204.62,-58 204.62,-38 269.38,-38 269.38,-58"/>
<text text-anchor="middle" x="237" y="-44.5" font-family="Helvetica,sans-Serif" font-size="10.00">AABB::min</text>
</a>
</g>
</g>
<!-- Node1&#45;&gt;Node5 -->
<g id="edge4_Node000001_Node000005" class="edge">
<title>Node1&#45;&gt;Node5</title>
<g id="a_edge4_Node000001_Node000005"><a xlink:title=" ">
<path fill="none" stroke="#63b8ff" d="M132.42,-61.49C152.77,-58.84 174.68,-55.99 193.09,-53.59"/>
<polygon fill="#63b8ff" stroke="#63b8ff" points="193.37,-57.08 202.84,-52.32 192.47,-50.14 193.37,-57.08"/>
</a>
</g>
</g>
<!-- Node6 -->
<g id="Node000006" class="node">
<title>Node6</title>
<g id="a_Node000006"><a xlink:href="../../dc/d47/class_a_a_b_b.html#a4c89f6c79185419d041bcf67f0921b25" target="_top" xlink:title=" ">
<polygon fill="white" stroke="#666666" points="270.5,-20 203.5,-20 203.5,0 270.5,0 270.5,-20"/>
<text text-anchor="middle" x="237" y="-6.5" font-family="Helvetica,sans-Serif" font-size="10.00">AABB::size</text>
</a>
</g>
</g>
<!-- Node1&#45;&gt;Node6 -->
<g id="edge5_Node000001_Node000006" class="edge">
<title>Node1&#45;&gt;Node6</title>
<g id="a_edge5_Node000001_Node000006"><a xlink:title=" ">
<path fill="none" stroke="#63b8ff" d="M104.68,-53.61C123.57,-45.66 146.92,-36.29 168.25,-29 175.87,-26.4 184.06,-23.87 192.02,-21.56"/>
<polygon fill="#63b8ff" stroke="#63b8ff" points="192.91,-24.95 201.58,-18.86 191,-18.21 192.91,-24.95"/>
</a>
</g>
</g>
<!-- Node3 -->
<g id="Node000003" class="node">
<title>Node3</title>
<g id="a_Node000003"><a xlink:href="../../dc/d47/class_a_a_b_b.html#ab4dad925a3cb42ad2f00c7d5053369e1" target="_top" xlink:title=" ">
<polygon fill="white" stroke="#666666" points="404.25,-146 341.75,-146 341.75,-126 404.25,-126 404.25,-146"/>
<text text-anchor="middle" x="373" y="-132.5" font-family="Helvetica,sans-Serif" font-size="10.00">AABB::dot</text>
</a>
</g>
</g>
<!-- Node2&#45;&gt;Node3 -->
<g id="edge2_Node000002_Node000003" class="edge">
<title>Node2&#45;&gt;Node3</title>
<g id="a_edge2_Node000002_Node000003"><a xlink:title=" ">
<path fill="none" stroke="#63b8ff" d="M301.08,-136C310.8,-136 320.63,-136 329.75,-136"/>
<polygon fill="#63b8ff" stroke="#63b8ff" points="329.75,-139.5 339.75,-136 329.75,-132.5 329.75,-139.5"/>
</a>
</g>
</g>
</g>
</svg>
</svg>

<style type='text/css'>
<![CDATA[
[data-mouse-over-selected='false'] { opacity: 0.7; }
[data-mouse-over-selected='true']  { opacity: 1.0; }
]]>
</style>
<script type="application/ecmascript"><![CDATA[
document.addEventListener('DOMContentLoaded', (event) => {
  highlightEdges();
  highlightAdjacentNodes();
});
]]></script>
</svg>
