<?xml version="1.0" encoding="UTF-8" standalone="no"?>
<!DOCTYPE svg PUBLIC "-//W3C//DTD SVG 1.1//EN"
 "http://www.w3.org/Graphics/SVG/1.1/DTD/svg11.dtd">
<!-- Generated by graphviz version 10.0.1 (20240210.2158)
 -->
<!-- Title: GEU::TreeSegmentationGUIAdapter::renderGuiObject Pages: 1 -->
<svg width="682pt" height="434pt"
 viewBox="0.00 0.00 681.75 434.00" xmlns="http://www.w3.org/2000/svg" xmlns:xlink="http://www.w3.org/1999/xlink">
<g id="graph0" class="graph" transform="scale(1 1) rotate(0) translate(4 430)">
<title>GEU::TreeSegmentationGUIAdapter::renderGuiObject</title>
<!-- Node1 -->
<g id="Node000001" class="node">
<title>Node1</title>
<g id="a_Node000001"><a xlink:title="Custom module GUI window contents.">
<polygon fill="#999999" stroke="#666666" points="172,-245 0,-245 0,-213 172,-213 172,-245"/>
<text text-anchor="start" x="8" y="-231.5" font-family="Helvetica,sans-Serif" font-size="10.00">GEU::TreeSegmentationGUIAdapter</text>
<text text-anchor="middle" x="86" y="-219.5" font-family="Helvetica,sans-Serif" font-size="10.00">::renderGuiObject</text>
</a>
</g>
</g>
<!-- Node2 -->
<g id="Node000002" class="node">
<title>Node2</title>
<g id="a_Node000002"><a xlink:href="../../d3/d07/namespace_g_e_u_1_1_gui_utilities.html#a4a9fd6dae16881311edd3998ece123bf" target="_top" xlink:title=" ">
<polygon fill="white" stroke="#666666" points="328.62,-426 232.38,-426 232.38,-394 328.62,-394 328.62,-426"/>
<text text-anchor="start" x="240.38" y="-412.5" font-family="Helvetica,sans-Serif" font-size="10.00">GEU::GuiUtilities::</text>
<text text-anchor="middle" x="280.5" y="-400.5" font-family="Helvetica,sans-Serif" font-size="10.00">Button</text>
</a>
</g>
</g>
<!-- Node1&#45;&gt;Node2 -->
<g id="edge1_Node000001_Node000002" class="edge">
<title>Node1&#45;&gt;Node2</title>
<g id="a_edge1_Node000001_Node000002"><a xlink:title=" ">
<path fill="none" stroke="#63b8ff" d="M96.25,-245.31C114.19,-275.64 156.51,-341.16 208,-380 212.28,-383.22 216.95,-386.17 221.79,-388.85"/>
<polygon fill="#63b8ff" stroke="#63b8ff" points="220.05,-391.89 230.55,-393.29 223.21,-385.65 220.05,-391.89"/>
</a>
</g>
</g>
<!-- Node3 -->
<g id="Node000003" class="node">
<title>Node3</title>
<g id="a_Node000003"><a xlink:href="../../d1/d01/class_g_e_u_1_1_singleton.html#a47c7e7c2110f4cc59c9ff1f5594c366e" target="_top" xlink:title=" ">
<polygon fill="white" stroke="#666666" points="673.75,-373 540,-373 540,-341 673.75,-341 673.75,-373"/>
<text text-anchor="start" x="548" y="-359.5" font-family="Helvetica,sans-Serif" font-size="10.00">GEU::Singleton&lt; Database</text>
<text text-anchor="middle" x="606.88" y="-347.5" font-family="Helvetica,sans-Serif" font-size="10.00">Connector &gt;::getInstance</text>
</a>
</g>
</g>
<!-- Node1&#45;&gt;Node3 -->
<g id="edge2_Node000001_Node000003" class="edge">
<title>Node1&#45;&gt;Node3</title>
<g id="a_edge2_Node000001_Node000003"><a xlink:title=" ">
<path fill="none" stroke="#63b8ff" d="M106.57,-245.4C128.51,-267.03 166.5,-303.4 208,-320 313.01,-362 445.97,-361.8 528.48,-358.5"/>
<polygon fill="#63b8ff" stroke="#63b8ff" points="528.42,-362 538.26,-358.08 528.12,-355.01 528.42,-362"/>
</a>
</g>
</g>
<!-- Node1&#45;&gt;Node3 -->
<g id="edge3_Node000001_Node000003" class="edge">
<title>Node1&#45;&gt;Node3</title>
<g id="a_edge3_Node000001_Node000003"><a xlink:title=" ">
<path fill="none" stroke="#63b8ff" d="M96.22,-245.38C114.73,-271.06 158.91,-318.37 208,-338 313.01,-380 445.97,-379.8 528.48,-371.82"/>
<polygon fill="#63b8ff" stroke="#63b8ff" points="528.68,-375.32 538.27,-370.81 527.96,-368.36 528.68,-375.32"/>
</a>
</g>
</g>
<!-- Node4 -->
<g id="Node000004" class="node">
<title>Node4</title>
<g id="a_Node000004"><a xlink:href="../../d3/d07/namespace_g_e_u_1_1_gui_utilities.html#a936b3ec83458b2e2c256b90ea4ebd03a" target="_top" xlink:title=" ">
<polygon fill="white" stroke="#666666" points="328.62,-270 232.38,-270 232.38,-238 328.62,-238 328.62,-270"/>
<text text-anchor="start" x="240.38" y="-256.5" font-family="Helvetica,sans-Serif" font-size="10.00">GEU::GuiUtilities::</text>
<text text-anchor="middle" x="280.5" y="-244.5" font-family="Helvetica,sans-Serif" font-size="10.00">InputFloatV</text>
</a>
</g>
</g>
<!-- Node1&#45;&gt;Node4 -->
<g id="edge4_Node000001_Node000004" class="edge">
<title>Node1&#45;&gt;Node4</title>
<g id="a_edge4_Node000001_Node000004"><a xlink:title=" ">
<path fill="none" stroke="#63b8ff" d="M172.27,-240.07C188.62,-242.2 205.4,-244.38 220.68,-246.36"/>
<polygon fill="#63b8ff" stroke="#63b8ff" points="220.18,-249.83 230.55,-247.64 221.08,-242.88 220.18,-249.83"/>
</a>
</g>
</g>
<!-- Node7 -->
<g id="Node000007" class="node">
<title>Node7</title>
<g id="a_Node000007"><a xlink:href="../../d3/d07/namespace_g_e_u_1_1_gui_utilities.html#a776427878fe3898a385f3ee794bdc183" target="_top" xlink:title=" ">
<polygon fill="white" stroke="#666666" points="328.62,-220 232.38,-220 232.38,-188 328.62,-188 328.62,-220"/>
<text text-anchor="start" x="240.38" y="-206.5" font-family="Helvetica,sans-Serif" font-size="10.00">GEU::GuiUtilities::</text>
<text text-anchor="middle" x="280.5" y="-194.5" font-family="Helvetica,sans-Serif" font-size="10.00">InputInt</text>
</a>
</g>
</g>
<!-- Node1&#45;&gt;Node7 -->
<g id="edge7_Node000001_Node000007" class="edge">
<title>Node1&#45;&gt;Node7</title>
<g id="a_edge7_Node000001_Node000007"><a xlink:title=" ">
<path fill="none" stroke="#63b8ff" d="M172.27,-217.93C188.62,-215.8 205.4,-213.62 220.68,-211.64"/>
<polygon fill="#63b8ff" stroke="#63b8ff" points="221.08,-215.12 230.55,-210.36 220.18,-208.17 221.08,-215.12"/>
</a>
</g>
</g>
<!-- Node8 -->
<g id="Node000008" class="node">
<title>Node8</title>
<g id="a_Node000008"><a xlink:href="../../d3/d07/namespace_g_e_u_1_1_gui_utilities.html#a0c8f0f5af8119c36fa703bc2ed301bde" target="_top" xlink:title=" ">
<polygon fill="white" stroke="#666666" points="328.62,-170 232.38,-170 232.38,-138 328.62,-138 328.62,-170"/>
<text text-anchor="start" x="240.38" y="-156.5" font-family="Helvetica,sans-Serif" font-size="10.00">GEU::GuiUtilities::</text>
<text text-anchor="middle" x="280.5" y="-144.5" font-family="Helvetica,sans-Serif" font-size="10.00">InputText</text>
</a>
</g>
</g>
<!-- Node1&#45;&gt;Node8 -->
<g id="edge10_Node000001_Node000008" class="edge">
<title>Node1&#45;&gt;Node8</title>
<g id="a_edge10_Node000001_Node000008"><a xlink:title=" ">
<path fill="none" stroke="#63b8ff" d="M125.2,-212.58C148.91,-202.55 180.07,-189.64 208,-179 212.35,-177.34 216.87,-175.66 221.43,-174"/>
<polygon fill="#63b8ff" stroke="#63b8ff" points="222.41,-177.37 230.64,-170.69 220.04,-170.78 222.41,-177.37"/>
</a>
</g>
</g>
<!-- Node9 -->
<g id="Node000009" class="node">
<title>Node9</title>
<g id="a_Node000009"><a xlink:href="../../d3/d07/namespace_g_e_u_1_1_gui_utilities.html#ae63312c9c8d5d514d8411e73e83a14ce" target="_top" xlink:title=" ">
<polygon fill="white" stroke="#666666" points="341.38,-320 219.62,-320 219.62,-288 341.38,-288 341.38,-320"/>
<text text-anchor="start" x="227.62" y="-306.5" font-family="Helvetica,sans-Serif" font-size="10.00">GEU::GuiUtilities::</text>
<text text-anchor="middle" x="280.5" y="-294.5" font-family="Helvetica,sans-Serif" font-size="10.00">makeSelectableTextBox</text>
</a>
</g>
</g>
<!-- Node1&#45;&gt;Node9 -->
<g id="edge13_Node000001_Node000009" class="edge">
<title>Node1&#45;&gt;Node9</title>
<g id="a_edge13_Node000001_Node000009"><a xlink:title=" ">
<path fill="none" stroke="#63b8ff" d="M125.2,-245.42C148.91,-255.45 180.07,-268.36 208,-279 212.1,-280.56 216.34,-282.14 220.63,-283.71"/>
<polygon fill="#63b8ff" stroke="#63b8ff" points="219.27,-286.94 229.87,-287.04 221.65,-280.36 219.27,-286.94"/>
</a>
</g>
</g>
<!-- Node11 -->
<g id="Node000011" class="node">
<title>Node11</title>
<g id="a_Node000011"><a xlink:href="../../d3/d07/namespace_g_e_u_1_1_gui_utilities.html#ae4d14264e67621c5997464e18c781ea0" target="_top" xlink:title=" ">
<polygon fill="white" stroke="#666666" points="328.62,-120 232.38,-120 232.38,-88 328.62,-88 328.62,-120"/>
<text text-anchor="start" x="240.38" y="-106.5" font-family="Helvetica,sans-Serif" font-size="10.00">GEU::GuiUtilities::</text>
<text text-anchor="middle" x="280.5" y="-94.5" font-family="Helvetica,sans-Serif" font-size="10.00">SeparatorText</text>
</a>
</g>
</g>
<!-- Node1&#45;&gt;Node11 -->
<g id="edge16_Node000001_Node000011" class="edge">
<title>Node1&#45;&gt;Node11</title>
<g id="a_edge16_Node000001_Node000011"><a xlink:title=" ">
<path fill="none" stroke="#63b8ff" d="M102.82,-212.71C124.7,-190.99 166.22,-152.56 208,-129 212.3,-126.57 216.89,-124.32 221.57,-122.24"/>
<polygon fill="#63b8ff" stroke="#63b8ff" points="222.61,-125.6 230.52,-118.55 219.94,-119.13 222.61,-125.6"/>
</a>
</g>
</g>
<!-- Node12 -->
<g id="Node000012" class="node">
<title>Node12</title>
<g id="a_Node000012"><a xlink:href="../../dc/d07/class_a_a_b_b.html#a4c89f6c79185419d041bcf67f0921b25" target="_top" xlink:title=" ">
<polygon fill="white" stroke="#666666" points="314,-70 247,-70 247,-50 314,-50 314,-70"/>
<text text-anchor="middle" x="280.5" y="-56.5" font-family="Helvetica,sans-Serif" font-size="10.00">AABB::size</text>
</a>
</g>
</g>
<!-- Node1&#45;&gt;Node12 -->
<g id="edge17_Node000001_Node000012" class="edge">
<title>Node1&#45;&gt;Node12</title>
<g id="a_edge17_Node000001_Node000012"><a xlink:title=" ">
<path fill="none" stroke="#63b8ff" d="M95.54,-212.61C112.57,-181.56 153.84,-114.16 208,-79 216.28,-73.62 226.04,-69.76 235.65,-66.99"/>
<polygon fill="#63b8ff" stroke="#63b8ff" points="236.43,-70.4 245.28,-64.58 234.73,-63.61 236.43,-70.4"/>
</a>
</g>
</g>
<!-- Node13 -->
<g id="Node000013" class="node">
<title>Node13</title>
<g id="a_Node000013"><a xlink:href="../../db/d02/struct_database_1_1_s_d_o___g_e_o_m_e_t_r_y.html#a9854b76b8d30ce94dde162c83b0e4640" target="_top" xlink:title=" ">
<polygon fill="white" stroke="#666666" points="353,-32 208,-32 208,0 353,0 353,-32"/>
<text text-anchor="start" x="216" y="-18.5" font-family="Helvetica,sans-Serif" font-size="10.00">Database::SDO_GEOMETRY</text>
<text text-anchor="middle" x="280.5" y="-6.5" font-family="Helvetica,sans-Serif" font-size="10.00">::toQueryString</text>
</a>
</g>
</g>
<!-- Node1&#45;&gt;Node13 -->
<g id="edge18_Node000001_Node000013" class="edge">
<title>Node1&#45;&gt;Node13</title>
<g id="a_edge18_Node000001_Node000013"><a xlink:title=" ">
<path fill="none" stroke="#63b8ff" d="M93.19,-212.58C107.67,-176.34 147.19,-88.94 208,-41 209.29,-39.98 210.63,-39 212,-38.06"/>
<polygon fill="#63b8ff" stroke="#63b8ff" points="213.41,-41.3 220.21,-33.18 209.83,-35.28 213.41,-41.3"/>
</a>
</g>
</g>
<!-- Node5 -->
<g id="Node000005" class="node">
<title>Node5</title>
<g id="a_Node000005"><a xlink:href="../../d3/d07/namespace_g_e_u_1_1_gui_utilities.html#a93d270e10057bb4a04b130a9e20301e2" target="_top" xlink:title=" ">
<polygon fill="white" stroke="#666666" points="496.88,-242 396.12,-242 396.12,-210 496.88,-210 496.88,-242"/>
<text text-anchor="start" x="404.12" y="-228.5" font-family="Helvetica,sans-Serif" font-size="10.00">GEU::GuiUtilities::</text>
<text text-anchor="middle" x="446.5" y="-216.5" font-family="Helvetica,sans-Serif" font-size="10.00">NextItemFillColumn</text>
</a>
</g>
</g>
<!-- Node4&#45;&gt;Node5 -->
<g id="edge5_Node000004_Node000005" class="edge">
<title>Node4&#45;&gt;Node5</title>
<g id="a_edge5_Node000004_Node000005"><a xlink:title=" ">
<path fill="none" stroke="#63b8ff" d="M328.94,-245.9C346.33,-242.93 366.26,-239.53 384.66,-236.39"/>
<polygon fill="#63b8ff" stroke="#63b8ff" points="385.13,-239.86 394.4,-234.73 383.95,-232.96 385.13,-239.86"/>
</a>
</g>
</g>
<!-- Node6 -->
<g id="Node000006" class="node">
<title>Node6</title>
<g id="a_Node000006"><a xlink:href="../../d3/d07/namespace_g_e_u_1_1_gui_utilities.html#a76a49056660c5a9246a94564afbb676a" target="_top" xlink:title=" ">
<polygon fill="white" stroke="#666666" points="504,-192 389,-192 389,-172 504,-172 504,-192"/>
<text text-anchor="middle" x="446.5" y="-178.5" font-family="Helvetica,sans-Serif" font-size="10.00">GEU::GuiUtilities::Text</text>
</a>
</g>
</g>
<!-- Node4&#45;&gt;Node6 -->
<g id="edge6_Node000004_Node000006" class="edge">
<title>Node4&#45;&gt;Node6</title>
<g id="a_edge6_Node000004_Node000006"><a xlink:title=" ">
<path fill="none" stroke="#63b8ff" d="M328.98,-239.84C337.19,-236.71 345.49,-233.09 353,-229 370.8,-219.31 371.14,-210.59 389,-201 391.86,-199.46 394.87,-198.02 397.95,-196.66"/>
<polygon fill="#63b8ff" stroke="#63b8ff" points="399.18,-199.94 407.17,-192.98 396.58,-193.44 399.18,-199.94"/>
</a>
</g>
</g>
<!-- Node7&#45;&gt;Node5 -->
<g id="edge8_Node000007_Node000005" class="edge">
<title>Node7&#45;&gt;Node5</title>
<g id="a_edge8_Node000007_Node000005"><a xlink:title=" ">
<path fill="none" stroke="#63b8ff" d="M328.94,-210.36C346.33,-212.7 366.26,-215.37 384.66,-217.84"/>
<polygon fill="#63b8ff" stroke="#63b8ff" points="384.01,-221.28 394.39,-219.14 384.94,-214.34 384.01,-221.28"/>
</a>
</g>
</g>
<!-- Node7&#45;&gt;Node6 -->
<g id="edge9_Node000007_Node000006" class="edge">
<title>Node7&#45;&gt;Node6</title>
<g id="a_edge9_Node000007_Node000006"><a xlink:title=" ">
<path fill="none" stroke="#63b8ff" d="M328.94,-197.64C344.08,-195.61 361.14,-193.32 377.45,-191.13"/>
<polygon fill="#63b8ff" stroke="#63b8ff" points="377.64,-194.63 387.09,-189.84 376.71,-187.7 377.64,-194.63"/>
</a>
</g>
</g>
<!-- Node8&#45;&gt;Node5 -->
<g id="edge11_Node000008_Node000005" class="edge">
<title>Node8&#45;&gt;Node5</title>
<g id="a_edge11_Node000008_Node000005"><a xlink:title=" ">
<path fill="none" stroke="#63b8ff" d="M328.99,-169.01C337.12,-172.03 345.39,-175.4 353,-179 369.95,-187.03 372.39,-192.3 389,-201 391.36,-202.24 393.8,-203.47 396.28,-204.69"/>
<polygon fill="#63b8ff" stroke="#63b8ff" points="394.68,-207.81 405.21,-208.94 397.68,-201.48 394.68,-207.81"/>
</a>
</g>
</g>
<!-- Node8&#45;&gt;Node6 -->
<g id="edge12_Node000008_Node000006" class="edge">
<title>Node8&#45;&gt;Node6</title>
<g id="a_edge12_Node000008_Node000006"><a xlink:title=" ">
<path fill="none" stroke="#63b8ff" d="M328.94,-162.1C344.08,-164.68 361.14,-167.6 377.45,-170.38"/>
<polygon fill="#63b8ff" stroke="#63b8ff" points="376.65,-173.8 387.1,-172.03 377.83,-166.9 376.65,-173.8"/>
</a>
</g>
</g>
<!-- Node10 -->
<g id="Node000010" class="node">
<title>Node10</title>
<g id="a_Node000010"><a xlink:href="../../d3/d07/namespace_g_e_u_1_1_gui_utilities.html#a7b24395f0bd0bd368bde0935682746ce" target="_top" xlink:title=" ">
<polygon fill="white" stroke="#666666" points="494.62,-320 398.38,-320 398.38,-288 494.62,-288 494.62,-320"/>
<text text-anchor="start" x="406.38" y="-306.5" font-family="Helvetica,sans-Serif" font-size="10.00">GEU::GuiUtilities::</text>
<text text-anchor="middle" x="446.5" y="-294.5" font-family="Helvetica,sans-Serif" font-size="10.00">makeLocText</text>
</a>
</g>
</g>
<!-- Node9&#45;&gt;Node10 -->
<g id="edge14_Node000009_Node000010" class="edge">
<title>Node9&#45;&gt;Node10</title>
<g id="a_edge14_Node000009_Node000010"><a xlink:title=" ">
<path fill="none" stroke="#63b8ff" d="M341.64,-304C356.28,-304 371.93,-304 386.52,-304"/>
<polygon fill="#63b8ff" stroke="#63b8ff" points="386.44,-307.5 396.44,-304 386.44,-300.5 386.44,-307.5"/>
</a>
</g>
</g>
<!-- Node10&#45;&gt;Node3 -->
<g id="edge15_Node000010_Node000003" class="edge">
<title>Node10&#45;&gt;Node3</title>
<g id="a_edge15_Node000010_Node000003"><a xlink:title=" ">
<path fill="none" stroke="#63b8ff" d="M495.02,-319.9C511.01,-325.25 529.07,-331.3 545.9,-336.93"/>
<polygon fill="#63b8ff" stroke="#63b8ff" points="544.71,-340.22 555.31,-340.08 546.94,-333.59 544.71,-340.22"/>
</a>
</g>
</g>
</g>
</svg>
