<?xml version="1.0" encoding="UTF-8" standalone="no"?>
<!DOCTYPE svg PUBLIC "-//W3C//DTD SVG 1.1//EN"
 "http://www.w3.org/Graphics/SVG/1.1/DTD/svg11.dtd">
<!-- Generated by graphviz version 10.0.1 (20240210.2158)
 -->
<!-- Title: C:/GitHub/GEU/GEU/Source/Modules/Multiespectral/MultiespectralGUIAdapter.h Pages: 1 -->
<svg width="1074pt" height="612pt"
 viewBox="0.00 0.00 1074.13 612.00" xmlns="http://www.w3.org/2000/svg" xmlns:xlink="http://www.w3.org/1999/xlink">
<g id="graph0" class="graph" transform="scale(1 1) rotate(0) translate(4 608)">
<title>C:/GitHub/GEU/GEU/Source/Modules/Multiespectral/MultiespectralGUIAdapter.h</title>
<!-- Node1 -->
<g id="Node000001" class="node">
<title>Node1</title>
<g id="a_Node000001"><a xlink:title=" ">
<polygon fill="#999999" stroke="#666666" points="357.5,-604 217,-604 217,-560 357.5,-560 357.5,-604"/>
<text text-anchor="start" x="225" y="-590.5" font-family="Helvetica,sans-Serif" font-size="10.00">C:/GitHub/GEU/GEU/Source</text>
<text text-anchor="start" x="225" y="-578.5" font-family="Helvetica,sans-Serif" font-size="10.00">/Modules/Multiespectral</text>
<text text-anchor="middle" x="287.25" y="-566.5" font-family="Helvetica,sans-Serif" font-size="10.00">/MultiespectralGUIAdapter.h</text>
</a>
</g>
</g>
<!-- Node2 -->
<g id="Node000002" class="node">
<title>Node2</title>
<g id="a_Node000002"><a xlink:href="../../dc/d01/a00389.html" target="_top" xlink:title=" ">
<polygon fill="white" stroke="#666666" points="521.62,-524 414.88,-524 414.88,-504 521.62,-504 521.62,-524"/>
<text text-anchor="middle" x="468.25" y="-510.5" font-family="Helvetica,sans-Serif" font-size="10.00">UI/InterfaceAdapter.h</text>
</a>
</g>
</g>
<!-- Node1&#45;&gt;Node2 -->
<g id="edge1_Node000001_Node000002" class="edge">
<title>Node1&#45;&gt;Node2</title>
<g id="a_edge1_Node000001_Node000002"><a xlink:title=" ">
<path fill="none" stroke="#63b8ff" d="M346.02,-559.57C374.3,-549.26 407.32,-537.22 431.91,-528.25"/>
<polygon fill="#63b8ff" stroke="#63b8ff" points="432.95,-531.6 441.14,-524.88 430.55,-525.02 432.95,-531.6"/>
</a>
</g>
</g>
<!-- Node33 -->
<g id="Node000033" class="node">
<title>Node33</title>
<g id="a_Node000033"><a xlink:href="../../d7/d00/a00236.html" target="_top" xlink:title=" ">
<polygon fill="white" stroke="#666666" points="260.12,-524 192.38,-524 192.38,-504 260.12,-504 260.12,-524"/>
<text text-anchor="middle" x="226.25" y="-510.5" font-family="Helvetica,sans-Serif" font-size="10.00">Projection.h</text>
</a>
</g>
</g>
<!-- Node1&#45;&gt;Node33 -->
<g id="edge41_Node000001_Node000033" class="edge">
<title>Node1&#45;&gt;Node33</title>
<g id="a_edge41_Node000001_Node000033"><a xlink:title=" ">
<path fill="none" stroke="#63b8ff" d="M267.61,-559.75C259.53,-551.01 250.28,-541 242.58,-532.66"/>
<polygon fill="#63b8ff" stroke="#63b8ff" points="245.34,-530.5 235.98,-525.53 240.2,-535.25 245.34,-530.5"/>
</a>
</g>
</g>
<!-- Node3 -->
<g id="Node000003" class="node">
<title>Node3</title>
<g id="a_Node000003"><a xlink:href="../../d7/d06/a00002.html" target="_top" xlink:title=" ">
<polygon fill="white" stroke="#666666" points="459.62,-468 340.88,-468 340.88,-448 459.62,-448 459.62,-468"/>
<text text-anchor="middle" x="400.25" y="-454.5" font-family="Helvetica,sans-Serif" font-size="10.00">Core/ApplicationState.h</text>
</a>
</g>
</g>
<!-- Node2&#45;&gt;Node3 -->
<g id="edge2_Node000002_Node000003" class="edge">
<title>Node2&#45;&gt;Node3</title>
<g id="a_edge2_Node000002_Node000003"><a xlink:title=" ">
<path fill="none" stroke="#63b8ff" d="M456.41,-503.59C446.56,-495.77 432.32,-484.46 420.64,-475.19"/>
<polygon fill="#63b8ff" stroke="#63b8ff" points="423.15,-472.72 413.14,-469.24 418.8,-478.2 423.15,-472.72"/>
</a>
</g>
</g>
<!-- Node21 -->
<g id="Node000021" class="node">
<title>Node21</title>
<g id="a_Node000021"><a xlink:href="../../d3/d00/a00113.html" target="_top" xlink:title=" ">
<polygon fill="white" stroke="#666666" points="775.88,-468 700.62,-468 700.62,-448 775.88,-448 775.88,-468"/>
<text text-anchor="middle" x="738.25" y="-454.5" font-family="Helvetica,sans-Serif" font-size="10.00">Core/Scene.h</text>
</a>
</g>
</g>
<!-- Node2&#45;&gt;Node21 -->
<g id="edge25_Node000002_Node000021" class="edge">
<title>Node2&#45;&gt;Node21</title>
<g id="a_edge25_Node000002_Node000021"><a xlink:title=" ">
<path fill="none" stroke="#63b8ff" d="M515.59,-503.53C564.28,-493.79 639.77,-478.7 689.1,-468.83"/>
<polygon fill="#63b8ff" stroke="#63b8ff" points="689.53,-472.31 698.65,-466.92 688.16,-465.45 689.53,-472.31"/>
</a>
</g>
</g>
<!-- Node32 -->
<g id="Node000032" class="node">
<title>Node32</title>
<g id="a_Node000032"><a xlink:href="../../d6/d02/a00485.html" target="_top" xlink:title=" ">
<polygon fill="white" stroke="#666666" points="596.62,-468 477.88,-468 477.88,-448 596.62,-448 596.62,-468"/>
<text text-anchor="middle" x="537.25" y="-454.5" font-family="Helvetica,sans-Serif" font-size="10.00">Utilities/LocaleStrings.h</text>
</a>
</g>
</g>
<!-- Node2&#45;&gt;Node32 -->
<g id="edge39_Node000002_Node000032" class="edge">
<title>Node2&#45;&gt;Node32</title>
<g id="a_edge39_Node000002_Node000032"><a xlink:title=" ">
<path fill="none" stroke="#63b8ff" d="M480.27,-503.59C490.26,-495.77 504.71,-484.46 516.56,-475.19"/>
<polygon fill="#63b8ff" stroke="#63b8ff" points="518.46,-478.15 524.18,-469.23 514.14,-472.64 518.46,-478.15"/>
</a>
</g>
</g>
<!-- Node4 -->
<g id="Node000004" class="node">
<title>Node4</title>
<g id="a_Node000004"><a xlink:title=" ">
<polygon fill="#e0e0e0" stroke="#999999" points="509,-412 395.5,-412 395.5,-392 509,-392 509,-412"/>
<text text-anchor="middle" x="452.25" y="-398.5" font-family="Helvetica,sans-Serif" font-size="10.00">imgui_color_gradient.h</text>
</a>
</g>
</g>
<!-- Node3&#45;&gt;Node4 -->
<g id="edge3_Node000003_Node000004" class="edge">
<title>Node3&#45;&gt;Node4</title>
<g id="a_edge3_Node000003_Node000004"><a xlink:title=" ">
<path fill="none" stroke="#63b8ff" d="M409.31,-447.59C416.47,-440.16 426.66,-429.58 435.32,-420.58"/>
<polygon fill="#63b8ff" stroke="#63b8ff" points="437.83,-423.02 442.25,-413.39 432.79,-418.16 437.83,-423.02"/>
</a>
</g>
</g>
<!-- Node5 -->
<g id="Node000005" class="node">
<title>Node5</title>
<g id="a_Node000005"><a xlink:href="../../d4/d02/a00101.html" target="_top" xlink:title=" ">
<polygon fill="white" stroke="#666666" points="377,-412 305.5,-412 305.5,-392 377,-392 377,-412"/>
<text text-anchor="middle" x="341.25" y="-398.5" font-family="Helvetica,sans-Serif" font-size="10.00">PointCloud.h</text>
</a>
</g>
</g>
<!-- Node3&#45;&gt;Node5 -->
<g id="edge4_Node000003_Node000005" class="edge">
<title>Node3&#45;&gt;Node5</title>
<g id="a_edge4_Node000003_Node000005"><a xlink:title=" ">
<path fill="none" stroke="#63b8ff" d="M389.97,-447.59C381.68,-440.01 369.8,-429.13 359.85,-420.02"/>
<polygon fill="#63b8ff" stroke="#63b8ff" points="362.27,-417.49 352.53,-413.32 357.54,-422.65 362.27,-417.49"/>
</a>
</g>
</g>
<!-- Node6 -->
<g id="Node000006" class="node">
<title>Node6</title>
<g id="a_Node000006"><a xlink:title=" ">
<polygon fill="#e0e0e0" stroke="#999999" points="281,-356 191.5,-356 191.5,-336 281,-336 281,-356"/>
<text text-anchor="middle" x="236.25" y="-342.5" font-family="Helvetica,sans-Serif" font-size="10.00">pcl/point_cloud.h</text>
</a>
</g>
</g>
<!-- Node5&#45;&gt;Node6 -->
<g id="edge5_Node000005_Node000006" class="edge">
<title>Node5&#45;&gt;Node6</title>
<g id="a_edge5_Node000005_Node000006"><a xlink:title=" ">
<path fill="none" stroke="#63b8ff" d="M322.96,-391.59C306.95,-383.36 283.42,-371.26 264.91,-361.74"/>
<polygon fill="#63b8ff" stroke="#63b8ff" points="266.52,-358.63 256.03,-357.17 263.32,-364.86 266.52,-358.63"/>
</a>
</g>
</g>
<!-- Node7 -->
<g id="Node000007" class="node">
<title>Node7</title>
<g id="a_Node000007"><a xlink:href="../../d0/d01/a00071.html" target="_top" xlink:title=" ">
<polygon fill="white" stroke="#666666" points="483.12,-356 409.38,-356 409.38,-336 483.12,-336 483.12,-356"/>
<text text-anchor="middle" x="446.25" y="-342.5" font-family="Helvetica,sans-Serif" font-size="10.00">LinesModel.h</text>
</a>
</g>
</g>
<!-- Node5&#45;&gt;Node7 -->
<g id="edge6_Node000005_Node000007" class="edge">
<title>Node5&#45;&gt;Node7</title>
<g id="a_edge6_Node000005_Node000007"><a xlink:title=" ">
<path fill="none" stroke="#63b8ff" d="M359.54,-391.59C375.55,-383.36 399.08,-371.26 417.59,-361.74"/>
<polygon fill="#63b8ff" stroke="#63b8ff" points="419.18,-364.86 426.47,-357.17 415.98,-358.63 419.18,-364.86"/>
</a>
</g>
</g>
<!-- Node19 -->
<g id="Node000019" class="node">
<title>Node19</title>
<g id="a_Node000019"><a xlink:href="../../d4/d04/a00035.html" target="_top" xlink:title=" ">
<polygon fill="white" stroke="#666666" points="391.12,-356 299.38,-356 299.38,-336 391.12,-336 391.12,-356"/>
<text text-anchor="middle" x="345.25" y="-342.5" font-family="Helvetica,sans-Serif" font-size="10.00">GPUResources.h</text>
</a>
</g>
</g>
<!-- Node5&#45;&gt;Node19 -->
<g id="edge22_Node000005_Node000019" class="edge">
<title>Node5&#45;&gt;Node19</title>
<g id="a_edge22_Node000005_Node000019"><a xlink:title=" ">
<path fill="none" stroke="#63b8ff" d="M341.95,-391.59C342.43,-385.01 343.1,-375.96 343.71,-367.73"/>
<polygon fill="#63b8ff" stroke="#63b8ff" points="347.2,-368.04 344.45,-357.81 340.22,-367.52 347.2,-368.04"/>
</a>
</g>
</g>
<!-- Node8 -->
<g id="Node000008" class="node">
<title>Node8</title>
<g id="a_Node000008"><a xlink:href="../../d9/d07/a00095.html" target="_top" xlink:title=" ">
<polygon fill="white" stroke="#666666" points="667.5,-300 605,-300 605,-280 667.5,-280 667.5,-300"/>
<text text-anchor="middle" x="636.25" y="-286.5" font-family="Helvetica,sans-Serif" font-size="10.00">Model3D.h</text>
</a>
</g>
</g>
<!-- Node7&#45;&gt;Node8 -->
<g id="edge7_Node000007_Node000008" class="edge">
<title>Node7&#45;&gt;Node8</title>
<g id="a_edge7_Node000007_Node000008"><a xlink:title=" ">
<path fill="none" stroke="#63b8ff" d="M479.35,-335.59C511.2,-326.54 559.49,-312.82 594.08,-302.98"/>
<polygon fill="#63b8ff" stroke="#63b8ff" points="594.68,-306.45 603.34,-300.35 592.76,-299.72 594.68,-306.45"/>
</a>
</g>
</g>
<!-- Node18 -->
<g id="Node000018" class="node">
<title>Node18</title>
<g id="a_Node000018"><a xlink:href="../../db/d07/a00164.html" target="_top" xlink:title=" ">
<polygon fill="white" stroke="#666666" points="469.88,-244 424.62,-244 424.62,-224 469.88,-224 469.88,-244"/>
<text text-anchor="middle" x="447.25" y="-230.5" font-family="Helvetica,sans-Serif" font-size="10.00">VAO.h</text>
</a>
</g>
</g>
<!-- Node7&#45;&gt;Node18 -->
<g id="edge20_Node000007_Node000018" class="edge">
<title>Node7&#45;&gt;Node18</title>
<g id="a_edge20_Node000007_Node000018"><a xlink:title=" ">
<path fill="none" stroke="#63b8ff" d="M446.34,-335.62C446.5,-318.01 446.84,-279.59 447.06,-255.65"/>
<polygon fill="#63b8ff" stroke="#63b8ff" points="450.56,-255.9 447.15,-245.87 443.56,-255.84 450.56,-255.9"/>
</a>
</g>
</g>
<!-- Node9 -->
<g id="Node000009" class="node">
<title>Node9</title>
<g id="a_Node000009"><a xlink:href="../../d1/d01/a00077.html" target="_top" xlink:title=" ">
<polygon fill="white" stroke="#666666" points="750.62,-244 691.88,-244 691.88,-224 750.62,-224 750.62,-244"/>
<text text-anchor="middle" x="721.25" y="-230.5" font-family="Helvetica,sans-Serif" font-size="10.00">Material.h</text>
</a>
</g>
</g>
<!-- Node8&#45;&gt;Node9 -->
<g id="edge8_Node000008_Node000009" class="edge">
<title>Node8&#45;&gt;Node9</title>
<g id="a_edge8_Node000008_Node000009"><a xlink:title=" ">
<path fill="none" stroke="#63b8ff" d="M651.06,-279.59C663.65,-271.59 682,-259.93 696.78,-250.54"/>
<polygon fill="#63b8ff" stroke="#63b8ff" points="698.49,-253.61 705.05,-245.29 694.73,-247.7 698.49,-253.61"/>
</a>
</g>
</g>
<!-- Node17 -->
<g id="Node000017" class="node">
<title>Node17</title>
<g id="a_Node000017"><a xlink:href="../../d7/d05/a00182.html" target="_top" xlink:title=" ">
<polygon fill="white" stroke="#666666" points="673.75,-244 576.75,-244 576.75,-224 673.75,-224 673.75,-244"/>
<text text-anchor="middle" x="625.25" y="-230.5" font-family="Helvetica,sans-Serif" font-size="10.00">Geometry/AABB.h</text>
</a>
</g>
</g>
<!-- Node8&#45;&gt;Node17 -->
<g id="edge19_Node000008_Node000017" class="edge">
<title>Node8&#45;&gt;Node17</title>
<g id="a_edge19_Node000008_Node000017"><a xlink:title=" ">
<path fill="none" stroke="#63b8ff" d="M634.33,-279.59C632.98,-272.93 631.11,-263.75 629.41,-255.44"/>
<polygon fill="#63b8ff" stroke="#63b8ff" points="632.87,-254.88 627.45,-245.78 626.01,-256.28 632.87,-254.88"/>
</a>
</g>
</g>
<!-- Node10 -->
<g id="Node000010" class="node">
<title>Node10</title>
<g id="a_Node000010"><a xlink:title=" ">
<polygon fill="#e0e0e0" stroke="#999999" points="811.75,-132 726.75,-132 726.75,-112 811.75,-112 811.75,-132"/>
<text text-anchor="middle" x="769.25" y="-118.5" font-family="Helvetica,sans-Serif" font-size="10.00">assimp/scene.h</text>
</a>
</g>
</g>
<!-- Node9&#45;&gt;Node10 -->
<g id="edge9_Node000009_Node000010" class="edge">
<title>Node9&#45;&gt;Node10</title>
<g id="a_edge9_Node000009_Node000010"><a xlink:title=" ">
<path fill="none" stroke="#63b8ff" d="M725.34,-223.62C733.14,-205.76 750.26,-166.53 760.67,-142.67"/>
<polygon fill="#63b8ff" stroke="#63b8ff" points="763.77,-144.31 764.56,-133.74 757.36,-141.51 763.77,-144.31"/>
</a>
</g>
</g>
<!-- Node11 -->
<g id="Node000011" class="node">
<title>Node11</title>
<g id="a_Node000011"><a xlink:href="../../dc/d06/a00125.html" target="_top" xlink:title=" ">
<polygon fill="white" stroke="#666666" points="639.62,-188 478.88,-188 478.88,-168 639.62,-168 639.62,-188"/>
<text text-anchor="middle" x="559.25" y="-174.5" font-family="Helvetica,sans-Serif" font-size="10.00">Core/Shaders/RenderingShader.h</text>
</a>
</g>
</g>
<!-- Node9&#45;&gt;Node11 -->
<g id="edge10_Node000009_Node000011" class="edge">
<title>Node9&#45;&gt;Node11</title>
<g id="a_edge10_Node000009_Node000011"><a xlink:title=" ">
<path fill="none" stroke="#63b8ff" d="M693.03,-223.59C666.83,-214.86 627.57,-201.77 598.35,-192.03"/>
<polygon fill="#63b8ff" stroke="#63b8ff" points="599.72,-188.8 589.12,-188.96 597.5,-195.44 599.72,-188.8"/>
</a>
</g>
</g>
<!-- Node15 -->
<g id="Node000015" class="node">
<title>Node15</title>
<g id="a_Node000015"><a xlink:href="../../d9/d06/a00146.html" target="_top" xlink:title=" ">
<polygon fill="white" stroke="#666666" points="727.5,-188 671,-188 671,-168 727.5,-168 727.5,-188"/>
<text text-anchor="middle" x="699.25" y="-174.5" font-family="Helvetica,sans-Serif" font-size="10.00">Texture.h</text>
</a>
</g>
</g>
<!-- Node9&#45;&gt;Node15 -->
<g id="edge15_Node000009_Node000015" class="edge">
<title>Node9&#45;&gt;Node15</title>
<g id="a_edge15_Node000009_Node000015"><a xlink:title=" ">
<path fill="none" stroke="#63b8ff" d="M717.42,-223.59C714.64,-216.78 710.79,-207.32 707.34,-198.86"/>
<polygon fill="#63b8ff" stroke="#63b8ff" points="710.62,-197.64 703.61,-189.7 704.14,-200.28 710.62,-197.64"/>
</a>
</g>
</g>
<!-- Node12 -->
<g id="Node000012" class="node">
<title>Node12</title>
<g id="a_Node000012"><a xlink:href="../../d5/d01/a00140.html" target="_top" xlink:title=" ">
<polygon fill="white" stroke="#666666" points="605.12,-132 513.38,-132 513.38,-112 605.12,-112 605.12,-132"/>
<text text-anchor="middle" x="559.25" y="-118.5" font-family="Helvetica,sans-Serif" font-size="10.00">ShaderProgram.h</text>
</a>
</g>
</g>
<!-- Node11&#45;&gt;Node12 -->
<g id="edge11_Node000011_Node000012" class="edge">
<title>Node11&#45;&gt;Node12</title>
<g id="a_edge11_Node000011_Node000012"><a xlink:title=" ">
<path fill="none" stroke="#63b8ff" d="M559.25,-167.59C559.25,-161.01 559.25,-151.96 559.25,-143.73"/>
<polygon fill="#63b8ff" stroke="#63b8ff" points="562.75,-143.81 559.25,-133.81 555.75,-143.81 562.75,-143.81"/>
</a>
</g>
</g>
<!-- Node13 -->
<g id="Node000013" class="node">
<title>Node13</title>
<g id="a_Node000013"><a xlink:href="../../d1/d00/a00128.html" target="_top" xlink:title=" ">
<polygon fill="white" stroke="#666666" points="519.12,-76 433.38,-76 433.38,-56 519.12,-56 519.12,-76"/>
<text text-anchor="middle" x="476.25" y="-62.5" font-family="Helvetica,sans-Serif" font-size="10.00">ShaderEnums.h</text>
</a>
</g>
</g>
<!-- Node11&#45;&gt;Node13 -->
<g id="edge14_Node000011_Node000013" class="edge">
<title>Node11&#45;&gt;Node13</title>
<g id="a_edge14_Node000011_Node000013"><a xlink:title=" ">
<path fill="none" stroke="#63b8ff" d="M544.01,-167.52C531.91,-159.34 515.24,-146.58 504.25,-132 493.95,-118.34 486.58,-100.31 481.99,-86.71"/>
<polygon fill="#63b8ff" stroke="#63b8ff" points="485.45,-86.06 479.12,-77.56 478.77,-88.15 485.45,-86.06"/>
</a>
</g>
</g>
<!-- Node12&#45;&gt;Node13 -->
<g id="edge12_Node000012_Node000013" class="edge">
<title>Node12&#45;&gt;Node13</title>
<g id="a_edge12_Node000012_Node000013"><a xlink:title=" ">
<path fill="none" stroke="#63b8ff" d="M544.79,-111.59C532.49,-103.59 514.57,-91.93 500.14,-82.54"/>
<polygon fill="#63b8ff" stroke="#63b8ff" points="502.38,-79.82 492.09,-77.3 498.56,-85.69 502.38,-79.82"/>
</a>
</g>
</g>
<!-- Node14 -->
<g id="Node000014" class="node">
<title>Node14</title>
<g id="a_Node000014"><a xlink:title=" ">
<polygon fill="#e0e0e0" stroke="#999999" points="461,-20 401.5,-20 401.5,0 461,0 461,-20"/>
<text text-anchor="middle" x="431.25" y="-6.5" font-family="Helvetica,sans-Serif" font-size="10.00">GL/glew.h</text>
</a>
</g>
</g>
<!-- Node13&#45;&gt;Node14 -->
<g id="edge13_Node000013_Node000014" class="edge">
<title>Node13&#45;&gt;Node14</title>
<g id="a_edge13_Node000013_Node000014"><a xlink:title=" ">
<path fill="none" stroke="#63b8ff" d="M468.41,-55.59C462.28,-48.24 453.58,-37.8 446.14,-28.87"/>
<polygon fill="#63b8ff" stroke="#63b8ff" points="449.06,-26.9 439.97,-21.46 443.68,-31.38 449.06,-26.9"/>
</a>
</g>
</g>
<!-- Node15&#45;&gt;Node10 -->
<g id="edge16_Node000015_Node000010" class="edge">
<title>Node15&#45;&gt;Node10</title>
<g id="a_edge16_Node000015_Node000010"><a xlink:title=" ">
<path fill="none" stroke="#63b8ff" d="M711.44,-167.59C721.58,-159.77 736.24,-148.46 748.26,-139.19"/>
<polygon fill="#63b8ff" stroke="#63b8ff" points="750.22,-142.1 756,-133.22 745.94,-136.56 750.22,-142.1"/>
</a>
</g>
</g>
<!-- Node15&#45;&gt;Node12 -->
<g id="edge18_Node000015_Node000012" class="edge">
<title>Node15&#45;&gt;Node12</title>
<g id="a_edge18_Node000015_Node000012"><a xlink:title=" ">
<path fill="none" stroke="#63b8ff" d="M674.86,-167.59C652.62,-159.01 619.48,-146.23 594.38,-136.55"/>
<polygon fill="#63b8ff" stroke="#63b8ff" points="595.83,-133.36 585.24,-133.02 593.31,-139.89 595.83,-133.36"/>
</a>
</g>
</g>
<!-- Node16 -->
<g id="Node000016" class="node">
<title>Node16</title>
<g id="a_Node000016"><a xlink:href="../../d9/d02/a00479.html" target="_top" xlink:title=" ">
<polygon fill="white" stroke="#666666" points="709.12,-132 623.38,-132 623.38,-112 709.12,-112 709.12,-132"/>
<text text-anchor="middle" x="666.25" y="-118.5" font-family="Helvetica,sans-Serif" font-size="10.00">Utilities/Image.h</text>
</a>
</g>
</g>
<!-- Node15&#45;&gt;Node16 -->
<g id="edge17_Node000015_Node000016" class="edge">
<title>Node15&#45;&gt;Node16</title>
<g id="a_edge17_Node000015_Node000016"><a xlink:title=" ">
<path fill="none" stroke="#63b8ff" d="M693.5,-167.59C689.2,-160.55 683.16,-150.67 677.86,-142"/>
<polygon fill="#63b8ff" stroke="#63b8ff" points="680.92,-140.3 672.72,-133.59 674.95,-143.95 680.92,-140.3"/>
</a>
</g>
</g>
<!-- Node18&#45;&gt;Node13 -->
<g id="edge21_Node000018_Node000013" class="edge">
<title>Node18&#45;&gt;Node13</title>
<g id="a_edge21_Node000018_Node000013"><a xlink:title=" ">
<path fill="none" stroke="#63b8ff" d="M448.89,-223.6C453.46,-197.46 466.38,-123.48 472.69,-87.36"/>
<polygon fill="#63b8ff" stroke="#63b8ff" points="476.09,-88.24 474.37,-77.79 469.2,-87.04 476.09,-88.24"/>
</a>
</g>
</g>
<!-- Node19&#45;&gt;Node14 -->
<g id="edge24_Node000019_Node000014" class="edge">
<title>Node19&#45;&gt;Node14</title>
<g id="a_edge24_Node000019_Node000014"><a xlink:title=" ">
<path fill="none" stroke="#63b8ff" d="M353.38,-335.59C360.54,-326.87 370.81,-313.29 377.25,-300 390.38,-272.92 396.25,-265.1 396.25,-235 396.25,-235 396.25,-235 396.25,-121 396.25,-88.04 410.69,-52.04 421.02,-30.5"/>
<polygon fill="#63b8ff" stroke="#63b8ff" points="424.06,-32.25 425.41,-21.74 417.8,-29.12 424.06,-32.25"/>
</a>
</g>
</g>
<!-- Node20 -->
<g id="Node000020" class="node">
<title>Node20</title>
<g id="a_Node000020"><a xlink:title=" ">
<polygon fill="#e0e0e0" stroke="#999999" points="367.88,-300 322.62,-300 322.62,-280 367.88,-280 367.88,-300"/>
<text text-anchor="middle" x="345.25" y="-286.5" font-family="Helvetica,sans-Serif" font-size="10.00">cstdint</text>
</a>
</g>
</g>
<!-- Node19&#45;&gt;Node20 -->
<g id="edge23_Node000019_Node000020" class="edge">
<title>Node19&#45;&gt;Node20</title>
<g id="a_edge23_Node000019_Node000020"><a xlink:title=" ">
<path fill="none" stroke="#63b8ff" d="M345.25,-335.59C345.25,-329.01 345.25,-319.96 345.25,-311.73"/>
<polygon fill="#63b8ff" stroke="#63b8ff" points="348.75,-311.81 345.25,-301.81 341.75,-311.81 348.75,-311.81"/>
</a>
</g>
</g>
<!-- Node22 -->
<g id="Node000022" class="node">
<title>Node22</title>
<g id="a_Node000022"><a xlink:href="../../d4/d06/a00008.html" target="_top" xlink:title=" ">
<polygon fill="white" stroke="#666666" points="859.62,-412 764.88,-412 764.88,-392 859.62,-392 859.62,-412"/>
<text text-anchor="middle" x="812.25" y="-398.5" font-family="Helvetica,sans-Serif" font-size="10.00">Camera/Camera.h</text>
</a>
</g>
</g>
<!-- Node21&#45;&gt;Node22 -->
<g id="edge26_Node000021_Node000022" class="edge">
<title>Node21&#45;&gt;Node22</title>
<g id="a_edge26_Node000021_Node000022"><a xlink:title=" ">
<path fill="none" stroke="#63b8ff" d="M751.14,-447.59C761.96,-439.7 777.66,-428.24 790.44,-418.92"/>
<polygon fill="#63b8ff" stroke="#63b8ff" points="792.27,-421.91 798.29,-413.19 788.14,-416.26 792.27,-421.91"/>
</a>
</g>
</g>
<!-- Node24 -->
<g id="Node000024" class="node">
<title>Node24</title>
<g id="a_Node000024"><a xlink:href="../../d6/d05/a00047.html" target="_top" xlink:title=" ">
<polygon fill="white" stroke="#666666" points="1044.5,-412 970,-412 970,-392 1044.5,-392 1044.5,-412"/>
<text text-anchor="middle" x="1007.25" y="-398.5" font-family="Helvetica,sans-Serif" font-size="10.00">Lights/Light.h</text>
</a>
</g>
</g>
<!-- Node21&#45;&gt;Node24 -->
<g id="edge29_Node000021_Node000024" class="edge">
<title>Node21&#45;&gt;Node24</title>
<g id="a_edge29_Node000021_Node000024"><a xlink:title=" ">
<path fill="none" stroke="#63b8ff" d="M776.22,-449.38C824.12,-439.76 906.54,-423.22 958.89,-412.71"/>
<polygon fill="#63b8ff" stroke="#63b8ff" points="959.31,-416.19 968.42,-410.79 957.93,-409.33 959.31,-416.19"/>
</a>
</g>
</g>
<!-- Node27 -->
<g id="Node000027" class="node">
<title>Node27</title>
<g id="a_Node000027"><a xlink:href="../../d9/d00/a00449.html" target="_top" xlink:title=" ">
<polygon fill="white" stroke="#666666" points="737.75,-412 592.75,-412 592.75,-392 737.75,-392 737.75,-412"/>
<text text-anchor="middle" x="665.25" y="-398.5" font-family="Helvetica,sans-Serif" font-size="10.00">Utilities/DatabaseConnector.h</text>
</a>
</g>
</g>
<!-- Node21&#45;&gt;Node27 -->
<g id="edge34_Node000021_Node000027" class="edge">
<title>Node21&#45;&gt;Node27</title>
<g id="a_edge34_Node000021_Node000027"><a xlink:title=" ">
<path fill="none" stroke="#63b8ff" d="M725.53,-447.59C714.86,-439.7 699.37,-428.24 686.77,-418.92"/>
<polygon fill="#63b8ff" stroke="#63b8ff" points="689.16,-416.33 679.04,-413.2 684.99,-421.96 689.16,-416.33"/>
</a>
</g>
</g>
<!-- Node22&#45;&gt;Node8 -->
<g id="edge28_Node000022_Node000008" class="edge">
<title>Node22&#45;&gt;Node8</title>
<g id="a_edge28_Node000022_Node000008"><a xlink:title=" ">
<path fill="none" stroke="#63b8ff" d="M812.21,-391.63C811.62,-377.58 808.42,-351.09 793.25,-336 777.16,-319.99 719.81,-306.41 679.08,-298.48"/>
<polygon fill="#63b8ff" stroke="#63b8ff" points="679.79,-295.05 669.31,-296.63 678.49,-301.93 679.79,-295.05"/>
</a>
</g>
</g>
<!-- Node23 -->
<g id="Node000023" class="node">
<title>Node23</title>
<g id="a_Node000023"><a xlink:href="../../d2/d07/a00014.html" target="_top" xlink:title=" ">
<polygon fill="white" stroke="#666666" points="942,-356 840.5,-356 840.5,-336 942,-336 942,-356"/>
<text text-anchor="middle" x="891.25" y="-342.5" font-family="Helvetica,sans-Serif" font-size="10.00">CameraProjection.h</text>
</a>
</g>
</g>
<!-- Node22&#45;&gt;Node23 -->
<g id="edge27_Node000022_Node000023" class="edge">
<title>Node22&#45;&gt;Node23</title>
<g id="a_edge27_Node000022_Node000023"><a xlink:title=" ">
<path fill="none" stroke="#63b8ff" d="M826.01,-391.59C837.61,-383.67 854.45,-372.16 868.11,-362.82"/>
<polygon fill="#63b8ff" stroke="#63b8ff" points="869.85,-365.87 876.13,-357.33 865.9,-360.09 869.85,-365.87"/>
</a>
</g>
</g>
<!-- Node25 -->
<g id="Node000025" class="node">
<title>Node25</title>
<g id="a_Node000025"><a xlink:href="../../d3/d03/a00059.html" target="_top" xlink:title=" ">
<polygon fill="white" stroke="#666666" points="1054.62,-356 959.88,-356 959.88,-336 1054.62,-336 1054.62,-356"/>
<text text-anchor="middle" x="1007.25" y="-342.5" font-family="Helvetica,sans-Serif" font-size="10.00">LightAttenuation.h</text>
</a>
</g>
</g>
<!-- Node24&#45;&gt;Node25 -->
<g id="edge30_Node000024_Node000025" class="edge">
<title>Node24&#45;&gt;Node25</title>
<g id="a_edge30_Node000024_Node000025"><a xlink:title=" ">
<path fill="none" stroke="#63b8ff" d="M1007.25,-391.59C1007.25,-385.01 1007.25,-375.96 1007.25,-367.73"/>
<polygon fill="#63b8ff" stroke="#63b8ff" points="1010.75,-367.81 1007.25,-357.81 1003.75,-367.81 1010.75,-367.81"/>
</a>
</g>
</g>
<!-- Node26 -->
<g id="Node000026" class="node">
<title>Node26</title>
<g id="a_Node000026"><a xlink:href="../../de/d01/a00065.html" target="_top" xlink:title=" ">
<polygon fill="white" stroke="#666666" points="1043,-300 971.5,-300 971.5,-280 1043,-280 1043,-300"/>
<text text-anchor="middle" x="1007.25" y="-286.5" font-family="Helvetica,sans-Serif" font-size="10.00">LightModel.h</text>
</a>
</g>
</g>
<!-- Node24&#45;&gt;Node26 -->
<g id="edge33_Node000024_Node000026" class="edge">
<title>Node24&#45;&gt;Node26</title>
<g id="a_edge33_Node000024_Node000026"><a xlink:title=" ">
<path fill="none" stroke="#63b8ff" d="M1026.4,-391.52C1039.43,-383.9 1055.65,-371.86 1063.25,-356 1072.53,-336.64 1053.62,-318.48 1035.31,-306.31"/>
<polygon fill="#63b8ff" stroke="#63b8ff" points="1037.3,-303.42 1026.96,-301.14 1033.62,-309.38 1037.3,-303.42"/>
</a>
</g>
</g>
<!-- Node25&#45;&gt;Node26 -->
<g id="edge31_Node000025_Node000026" class="edge">
<title>Node25&#45;&gt;Node26</title>
<g id="a_edge31_Node000025_Node000026"><a xlink:title=" ">
<path fill="none" stroke="#63b8ff" d="M1007.25,-335.59C1007.25,-329.01 1007.25,-319.96 1007.25,-311.73"/>
<polygon fill="#63b8ff" stroke="#63b8ff" points="1010.75,-311.81 1007.25,-301.81 1003.75,-311.81 1010.75,-311.81"/>
</a>
</g>
</g>
<!-- Node26&#45;&gt;Node9 -->
<g id="edge32_Node000026_Node000009" class="edge">
<title>Node26&#45;&gt;Node9</title>
<g id="a_edge32_Node000026_Node000009"><a xlink:title=" ">
<path fill="none" stroke="#63b8ff" d="M971.03,-282.16C917.7,-272.09 818.35,-253.33 762.36,-242.76"/>
<polygon fill="#63b8ff" stroke="#63b8ff" points="763.07,-239.33 752.59,-240.92 761.77,-246.21 763.07,-239.33"/>
</a>
</g>
</g>
<!-- Node28 -->
<g id="Node000028" class="node">
<title>Node28</title>
<g id="a_Node000028"><a xlink:href="../../df/d06/a00509.html" target="_top" xlink:title=" ">
<polygon fill="white" stroke="#666666" points="565.62,-356 500.88,-356 500.88,-336 565.62,-336 565.62,-356"/>
<text text-anchor="middle" x="533.25" y="-342.5" font-family="Helvetica,sans-Serif" font-size="10.00">Singleton.h</text>
</a>
</g>
</g>
<!-- Node27&#45;&gt;Node28 -->
<g id="edge35_Node000027_Node000028" class="edge">
<title>Node27&#45;&gt;Node28</title>
<g id="a_edge35_Node000027_Node000028"><a xlink:title=" ">
<path fill="none" stroke="#63b8ff" d="M642.26,-391.59C621.47,-383.09 590.6,-370.46 567.01,-360.81"/>
<polygon fill="#63b8ff" stroke="#63b8ff" points="568.4,-357.6 557.82,-357.05 565.75,-364.08 568.4,-357.6"/>
</a>
</g>
</g>
<!-- Node29 -->
<g id="Node000029" class="node">
<title>Node29</title>
<g id="a_Node000029"><a xlink:title=" ">
<polygon fill="#e0e0e0" stroke="#999999" points="626.38,-356 584.12,-356 584.12,-336 626.38,-336 626.38,-356"/>
<text text-anchor="middle" x="605.25" y="-342.5" font-family="Helvetica,sans-Serif" font-size="10.00">occi.h</text>
</a>
</g>
</g>
<!-- Node27&#45;&gt;Node29 -->
<g id="edge36_Node000027_Node000029" class="edge">
<title>Node27&#45;&gt;Node29</title>
<g id="a_edge36_Node000027_Node000029"><a xlink:title=" ">
<path fill="none" stroke="#63b8ff" d="M654.8,-391.59C646.28,-383.93 634.04,-372.91 623.86,-363.75"/>
<polygon fill="#63b8ff" stroke="#63b8ff" points="626.48,-361.4 616.71,-357.31 621.8,-366.6 626.48,-361.4"/>
</a>
</g>
</g>
<!-- Node30 -->
<g id="Node000030" class="node">
<title>Node30</title>
<g id="a_Node000030"><a xlink:href="../../d1/d03/a00452.html" target="_top" xlink:title=" ">
<polygon fill="white" stroke="#666666" points="784.5,-356 644,-356 644,-336 784.5,-336 784.5,-356"/>
<text text-anchor="middle" x="714.25" y="-342.5" font-family="Helvetica,sans-Serif" font-size="10.00">Utilities/FileDialogRegex.hpp</text>
</a>
</g>
</g>
<!-- Node27&#45;&gt;Node30 -->
<g id="edge37_Node000027_Node000030" class="edge">
<title>Node27&#45;&gt;Node30</title>
<g id="a_edge37_Node000027_Node000030"><a xlink:title=" ">
<path fill="none" stroke="#63b8ff" d="M673.79,-391.59C680.53,-384.16 690.14,-373.58 698.29,-364.58"/>
<polygon fill="#63b8ff" stroke="#63b8ff" points="700.67,-367.18 704.8,-357.42 695.48,-362.47 700.67,-367.18"/>
</a>
</g>
</g>
<!-- Node31 -->
<g id="Node000031" class="node">
<title>Node31</title>
<g id="a_Node000031"><a xlink:title=" ">
<polygon fill="#e0e0e0" stroke="#999999" points="731.62,-300 696.88,-300 696.88,-280 731.62,-280 731.62,-300"/>
<text text-anchor="middle" x="714.25" y="-286.5" font-family="Helvetica,sans-Serif" font-size="10.00">map</text>
</a>
</g>
</g>
<!-- Node30&#45;&gt;Node31 -->
<g id="edge38_Node000030_Node000031" class="edge">
<title>Node30&#45;&gt;Node31</title>
<g id="a_edge38_Node000030_Node000031"><a xlink:title=" ">
<path fill="none" stroke="#63b8ff" d="M714.25,-335.59C714.25,-329.01 714.25,-319.96 714.25,-311.73"/>
<polygon fill="#63b8ff" stroke="#63b8ff" points="717.75,-311.81 714.25,-301.81 710.75,-311.81 717.75,-311.81"/>
</a>
</g>
</g>
<!-- Node32&#45;&gt;Node28 -->
<g id="edge40_Node000032_Node000028" class="edge">
<title>Node32&#45;&gt;Node28</title>
<g id="a_edge40_Node000032_Node000028"><a xlink:title=" ">
<path fill="none" stroke="#63b8ff" d="M536.91,-447.62C536.27,-430.01 534.87,-391.59 534,-367.65"/>
<polygon fill="#63b8ff" stroke="#63b8ff" points="537.51,-367.73 533.65,-357.87 530.51,-367.99 537.51,-367.73"/>
</a>
</g>
</g>
<!-- Node33&#45;&gt;Node6 -->
<g id="edge43_Node000033_Node000006" class="edge">
<title>Node33&#45;&gt;Node6</title>
<g id="a_edge43_Node000033_Node000006"><a xlink:title=" ">
<path fill="none" stroke="#63b8ff" d="M228.92,-503.79C231.38,-494.76 234.87,-480.57 236.25,-468 240.1,-432.95 238.9,-391.85 237.62,-367.7"/>
<polygon fill="#63b8ff" stroke="#63b8ff" points="241.13,-367.74 237.04,-357.96 234.14,-368.15 241.13,-367.74"/>
</a>
</g>
</g>
<!-- Node34 -->
<g id="Node000034" class="node">
<title>Node34</title>
<g id="a_Node000034"><a xlink:href="../../d2/d00/a00242.html" target="_top" xlink:title=" ">
<polygon fill="white" stroke="#666666" points="227.38,-468 167.12,-468 167.12,-448 227.38,-448 227.38,-468"/>
<text text-anchor="middle" x="197.25" y="-454.5" font-family="Helvetica,sans-Serif" font-size="10.00">Register.h</text>
</a>
</g>
</g>
<!-- Node33&#45;&gt;Node34 -->
<g id="edge42_Node000033_Node000034" class="edge">
<title>Node33&#45;&gt;Node34</title>
<g id="a_edge42_Node000033_Node000034"><a xlink:title=" ">
<path fill="none" stroke="#63b8ff" d="M221.2,-503.59C217.46,-496.63 212.23,-486.89 207.61,-478.29"/>
<polygon fill="#63b8ff" stroke="#63b8ff" points="210.77,-476.79 202.96,-469.63 204.61,-480.1 210.77,-476.79"/>
</a>
</g>
</g>
<!-- Node35 -->
<g id="Node000035" class="node">
<title>Node35</title>
<g id="a_Node000035"><a xlink:href="../../d6/d00/a00491.html" target="_top" xlink:title=" ">
<polygon fill="white" stroke="#666666" points="148.62,-468 17.88,-468 17.88,-448 148.62,-448 148.62,-468"/>
<text text-anchor="middle" x="83.25" y="-454.5" font-family="Helvetica,sans-Serif" font-size="10.00">Utilities/MetadataReader.h</text>
</a>
</g>
</g>
<!-- Node33&#45;&gt;Node35 -->
<g id="edge44_Node000033_Node000035" class="edge">
<title>Node33&#45;&gt;Node35</title>
<g id="a_edge44_Node000033_Node000035"><a xlink:title=" ">
<path fill="none" stroke="#63b8ff" d="M201.34,-503.59C178.52,-494.97 144.47,-482.12 118.79,-472.42"/>
<polygon fill="#63b8ff" stroke="#63b8ff" points="120.36,-469.27 109.77,-469.01 117.89,-475.82 120.36,-469.27"/>
</a>
</g>
</g>
<!-- Node36 -->
<g id="Node000036" class="node">
<title>Node36</title>
<g id="a_Node000036"><a xlink:title=" ">
<polygon fill="#e0e0e0" stroke="#999999" points="68.5,-412 0,-412 0,-392 68.5,-392 68.5,-412"/>
<text text-anchor="middle" x="34.25" y="-398.5" font-family="Helvetica,sans-Serif" font-size="10.00">Eigen/Eigen</text>
</a>
</g>
</g>
<!-- Node35&#45;&gt;Node36 -->
<g id="edge45_Node000035_Node000036" class="edge">
<title>Node35&#45;&gt;Node36</title>
<g id="a_edge45_Node000035_Node000036"><a xlink:title=" ">
<path fill="none" stroke="#63b8ff" d="M74.71,-447.59C67.97,-440.16 58.36,-429.58 50.21,-420.58"/>
<polygon fill="#63b8ff" stroke="#63b8ff" points="53.02,-418.47 43.7,-413.42 47.83,-423.18 53.02,-418.47"/>
</a>
</g>
</g>
<!-- Node37 -->
<g id="Node000037" class="node">
<title>Node37</title>
<g id="a_Node000037"><a xlink:title=" ">
<polygon fill="#e0e0e0" stroke="#999999" points="178.12,-412 86.38,-412 86.38,-392 178.12,-392 178.12,-412"/>
<text text-anchor="middle" x="132.25" y="-398.5" font-family="Helvetica,sans-Serif" font-size="10.00">opencv2/core.hpp</text>
</a>
</g>
</g>
<!-- Node35&#45;&gt;Node37 -->
<g id="edge46_Node000035_Node000037" class="edge">
<title>Node35&#45;&gt;Node37</title>
<g id="a_edge46_Node000035_Node000037"><a xlink:title=" ">
<path fill="none" stroke="#63b8ff" d="M91.79,-447.59C98.53,-440.16 108.14,-429.58 116.29,-420.58"/>
<polygon fill="#63b8ff" stroke="#63b8ff" points="118.67,-423.18 122.8,-413.42 113.48,-418.47 118.67,-423.18"/>
</a>
</g>
</g>
</g>
</svg>
