<?xml version="1.0" encoding="UTF-8" standalone="no"?>
<!DOCTYPE svg PUBLIC "-//W3C//DTD SVG 1.1//EN"
 "http://www.w3.org/Graphics/SVG/1.1/DTD/svg11.dtd">
<!-- Generated by graphviz version 10.0.1 (20240210.2158)
 -->
<!-- Title: json::parsing::get_number_string Pages: 1 -->
<svg width="370pt" height="690pt"
 viewBox="0.00 0.00 369.50 690.00" xmlns="http://www.w3.org/2000/svg" xmlns:xlink="http://www.w3.org/1999/xlink">
<g id="graph0" class="graph" transform="scale(1 1) rotate(0) translate(4 686)">
<title>json::parsing::get_number_string</title>
<!-- Node1 -->
<g id="Node000001" class="node">
<title>Node1</title>
<g id="a_Node000001"><a xlink:title="Converts a number to a string.">
<polygon fill="#999999" stroke="#666666" points="361.5,-332 270.5,-332 270.5,-300 361.5,-300 361.5,-332"/>
<text text-anchor="start" x="278.5" y="-318.5" font-family="Helvetica,sans-Serif" font-size="10.00">json::parsing::get</text>
<text text-anchor="middle" x="316" y="-306.5" font-family="Helvetica,sans-Serif" font-size="10.00">_number_string</text>
</a>
</g>
</g>
<!-- Node2 -->
<g id="Node000002" class="node">
<title>Node2</title>
<g id="a_Node000002"><a xlink:href="../../df/d00/a02016.html#a6a5641a5fae3480531d41ac19d42cc29" target="_top" xlink:title="Sets a number value in the parent object.">
<polygon fill="white" stroke="#666666" points="233.75,-507 135.25,-507 135.25,-475 233.75,-475 233.75,-507"/>
<text text-anchor="start" x="143.25" y="-493.5" font-family="Helvetica,sans-Serif" font-size="10.00">json::jobject::proxy</text>
<text text-anchor="middle" x="184.5" y="-481.5" font-family="Helvetica,sans-Serif" font-size="10.00">::set_number</text>
</a>
</g>
</g>
<!-- Node1&#45;&gt;Node2 -->
<g id="edge1_Node000001_Node000002" class="edge">
<title>Node1&#45;&gt;Node2</title>
<g id="a_edge1_Node000001_Node000002"><a xlink:title=" ">
<path fill="none" stroke="#63b8ff" d="M296.13,-341.5C269.12,-378.01 220.17,-444.14 197.56,-474.71"/>
<polygon fill="#63b8ff" stroke="#63b8ff" points="298.78,-343.8 301.92,-333.68 293.15,-339.64 298.78,-343.8"/>
</a>
</g>
</g>
<!-- Node10 -->
<g id="Node000010" class="node">
<title>Node10</title>
<g id="a_Node000010"><a xlink:href="../../df/d00/a02016.html#a91fe0c7470725630391ab126db04539c" target="_top" xlink:title="Stores an array of numbers.">
<polygon fill="white" stroke="#666666" points="234.5,-207 134.5,-207 134.5,-175 234.5,-175 234.5,-207"/>
<text text-anchor="start" x="142.5" y="-193.5" font-family="Helvetica,sans-Serif" font-size="10.00">json::jobject::proxy</text>
<text text-anchor="middle" x="184.5" y="-181.5" font-family="Helvetica,sans-Serif" font-size="10.00">::set_number_array</text>
</a>
</g>
</g>
<!-- Node1&#45;&gt;Node10 -->
<g id="edge9_Node000001_Node000010" class="edge">
<title>Node1&#45;&gt;Node10</title>
<g id="a_edge9_Node000001_Node000010"><a xlink:title=" ">
<path fill="none" stroke="#63b8ff" d="M289.9,-291.77C264.13,-266.89 224.73,-228.87 202.43,-207.35"/>
<polygon fill="#63b8ff" stroke="#63b8ff" points="287.36,-294.18 296.98,-298.61 292.22,-289.14 287.36,-294.18"/>
</a>
</g>
</g>
<!-- Node3 -->
<g id="Node000003" class="node">
<title>Node3</title>
<g id="a_Node000003"><a xlink:href="../../df/d00/a02016.html#a740b84980888c58d598dcaf0d25384ae" target="_top" xlink:title="Assigns an character.">
<polygon fill="white" stroke="#666666" points="98.5,-682 0,-682 0,-650 98.5,-650 98.5,-682"/>
<text text-anchor="start" x="8" y="-668.5" font-family="Helvetica,sans-Serif" font-size="10.00">json::jobject::proxy</text>
<text text-anchor="middle" x="49.25" y="-656.5" font-family="Helvetica,sans-Serif" font-size="10.00">::operator=</text>
</a>
</g>
</g>
<!-- Node2&#45;&gt;Node3 -->
<g id="edge2_Node000002_Node000003" class="edge">
<title>Node2&#45;&gt;Node3</title>
<g id="a_edge2_Node000002_Node000003"><a xlink:title=" ">
<path fill="none" stroke="#63b8ff" d="M173.77,-517.97C160.86,-550.59 135.33,-605.52 98.5,-641 95.24,-644.14 91.5,-646.98 87.59,-649.53"/>
<polygon fill="#63b8ff" stroke="#63b8ff" points="176.96,-519.43 177.27,-508.84 170.42,-516.93 176.96,-519.43"/>
</a>
</g>
</g>
<!-- Node4 -->
<g id="Node000004" class="node">
<title>Node4</title>
<g id="a_Node000004"><a xlink:href="../../df/d00/a02016.html#a81b71ed275af5a806066b920a833fc1d" target="_top" xlink:title="Assigns an double floating&#45;point integer">
<polygon fill="white" stroke="#666666" points="98.5,-632 0,-632 0,-600 98.5,-600 98.5,-632"/>
<text text-anchor="start" x="8" y="-618.5" font-family="Helvetica,sans-Serif" font-size="10.00">json::jobject::proxy</text>
<text text-anchor="middle" x="49.25" y="-606.5" font-family="Helvetica,sans-Serif" font-size="10.00">::operator=</text>
</a>
</g>
</g>
<!-- Node2&#45;&gt;Node4 -->
<g id="edge3_Node000002_Node000004" class="edge">
<title>Node2&#45;&gt;Node4</title>
<g id="a_edge3_Node000002_Node000004"><a xlink:title=" ">
<path fill="none" stroke="#63b8ff" d="M166.16,-516.53C150.41,-538.32 125.56,-569.47 98.5,-591 94.59,-594.11 90.23,-597.01 85.77,-599.64"/>
<polygon fill="#63b8ff" stroke="#63b8ff" points="168.93,-518.66 171.85,-508.48 163.22,-514.62 168.93,-518.66"/>
</a>
</g>
</g>
<!-- Node5 -->
<g id="Node000005" class="node">
<title>Node5</title>
<g id="a_Node000005"><a xlink:href="../../df/d00/a02016.html#af1b93b9983cd42313a3f4fd4e091e03a" target="_top" xlink:title="Assigns an floating&#45;point integer">
<polygon fill="white" stroke="#666666" points="98.5,-582 0,-582 0,-550 98.5,-550 98.5,-582"/>
<text text-anchor="start" x="8" y="-568.5" font-family="Helvetica,sans-Serif" font-size="10.00">json::jobject::proxy</text>
<text text-anchor="middle" x="49.25" y="-556.5" font-family="Helvetica,sans-Serif" font-size="10.00">::operator=</text>
</a>
</g>
</g>
<!-- Node2&#45;&gt;Node5 -->
<g id="edge4_Node000002_Node000005" class="edge">
<title>Node2&#45;&gt;Node5</title>
<g id="a_edge4_Node000002_Node000005"><a xlink:title=" ">
<path fill="none" stroke="#63b8ff" d="M146.69,-513.23C131.83,-522.06 114.45,-532.19 98.5,-541 93.38,-543.83 87.91,-546.75 82.56,-549.56"/>
<polygon fill="#63b8ff" stroke="#63b8ff" points="148.44,-516.27 155.23,-508.14 144.85,-510.25 148.44,-516.27"/>
</a>
</g>
</g>
<!-- Node6 -->
<g id="Node000006" class="node">
<title>Node6</title>
<g id="a_Node000006"><a xlink:href="../../df/d00/a02016.html#afc4fc7da415bb9d123529f9639d548c1" target="_top" xlink:title="Assigns an integer.">
<polygon fill="white" stroke="#666666" points="98.5,-532 0,-532 0,-500 98.5,-500 98.5,-532"/>
<text text-anchor="start" x="8" y="-518.5" font-family="Helvetica,sans-Serif" font-size="10.00">json::jobject::proxy</text>
<text text-anchor="middle" x="49.25" y="-506.5" font-family="Helvetica,sans-Serif" font-size="10.00">::operator=</text>
</a>
</g>
</g>
<!-- Node2&#45;&gt;Node6 -->
<g id="edge5_Node000002_Node000006" class="edge">
<title>Node2&#45;&gt;Node6</title>
<g id="a_edge5_Node000002_Node000006"><a xlink:title=" ">
<path fill="none" stroke="#63b8ff" d="M123.8,-502.2C115.48,-503.76 107.01,-505.35 98.92,-506.87"/>
<polygon fill="#63b8ff" stroke="#63b8ff" points="124.35,-505.66 133.53,-500.38 123.06,-498.78 124.35,-505.66"/>
</a>
</g>
</g>
<!-- Node7 -->
<g id="Node000007" class="node">
<title>Node7</title>
<g id="a_Node000007"><a xlink:href="../../df/d00/a02016.html#a5af6ef44e512ebff5558ff962df1f222" target="_top" xlink:title="Assigns a long integer.">
<polygon fill="white" stroke="#666666" points="98.5,-482 0,-482 0,-450 98.5,-450 98.5,-482"/>
<text text-anchor="start" x="8" y="-468.5" font-family="Helvetica,sans-Serif" font-size="10.00">json::jobject::proxy</text>
<text text-anchor="middle" x="49.25" y="-456.5" font-family="Helvetica,sans-Serif" font-size="10.00">::operator=</text>
</a>
</g>
</g>
<!-- Node2&#45;&gt;Node7 -->
<g id="edge6_Node000002_Node000007" class="edge">
<title>Node2&#45;&gt;Node7</title>
<g id="a_edge6_Node000002_Node000007"><a xlink:title=" ">
<path fill="none" stroke="#63b8ff" d="M123.8,-479.8C115.48,-478.24 107.01,-476.65 98.92,-475.13"/>
<polygon fill="#63b8ff" stroke="#63b8ff" points="123.06,-483.22 133.53,-481.62 124.35,-476.34 123.06,-483.22"/>
</a>
</g>
</g>
<!-- Node8 -->
<g id="Node000008" class="node">
<title>Node8</title>
<g id="a_Node000008"><a xlink:href="../../df/d00/a02016.html#a9d2f6c0f8e512434f42e1131216c8299" target="_top" xlink:title="Assigns an unsigned integer.">
<polygon fill="white" stroke="#666666" points="98.5,-432 0,-432 0,-400 98.5,-400 98.5,-432"/>
<text text-anchor="start" x="8" y="-418.5" font-family="Helvetica,sans-Serif" font-size="10.00">json::jobject::proxy</text>
<text text-anchor="middle" x="49.25" y="-406.5" font-family="Helvetica,sans-Serif" font-size="10.00">::operator=</text>
</a>
</g>
</g>
<!-- Node2&#45;&gt;Node8 -->
<g id="edge7_Node000002_Node000008" class="edge">
<title>Node2&#45;&gt;Node8</title>
<g id="a_edge7_Node000002_Node000008"><a xlink:title=" ">
<path fill="none" stroke="#63b8ff" d="M146.69,-468.77C131.83,-459.94 114.45,-449.81 98.5,-441 93.38,-438.17 87.91,-435.25 82.56,-432.44"/>
<polygon fill="#63b8ff" stroke="#63b8ff" points="144.85,-471.75 155.23,-473.86 148.44,-465.73 144.85,-471.75"/>
</a>
</g>
</g>
<!-- Node9 -->
<g id="Node000009" class="node">
<title>Node9</title>
<g id="a_Node000009"><a xlink:href="../../df/d00/a02016.html#a4aac2b4233c49a11aef45f6df01fd177" target="_top" xlink:title="Assigns a long unsigned integer.">
<polygon fill="white" stroke="#666666" points="98.5,-382 0,-382 0,-350 98.5,-350 98.5,-382"/>
<text text-anchor="start" x="8" y="-368.5" font-family="Helvetica,sans-Serif" font-size="10.00">json::jobject::proxy</text>
<text text-anchor="middle" x="49.25" y="-356.5" font-family="Helvetica,sans-Serif" font-size="10.00">::operator=</text>
</a>
</g>
</g>
<!-- Node2&#45;&gt;Node9 -->
<g id="edge8_Node000002_Node000009" class="edge">
<title>Node2&#45;&gt;Node9</title>
<g id="a_edge8_Node000002_Node000009"><a xlink:title=" ">
<path fill="none" stroke="#63b8ff" d="M166.16,-465.47C150.41,-443.68 125.56,-412.53 98.5,-391 94.59,-387.89 90.23,-384.99 85.77,-382.36"/>
<polygon fill="#63b8ff" stroke="#63b8ff" points="163.22,-467.38 171.85,-473.52 168.93,-463.34 163.22,-467.38"/>
</a>
</g>
</g>
<!-- Node11 -->
<g id="Node000011" class="node">
<title>Node11</title>
<g id="a_Node000011"><a xlink:href="../../df/d00/a02016.html#a80fd0d96759a6d24e5e772f64fdd2fcc" target="_top" xlink:title="Assigns an array of characters.">
<polygon fill="white" stroke="#666666" points="98.5,-332 0,-332 0,-300 98.5,-300 98.5,-332"/>
<text text-anchor="start" x="8" y="-318.5" font-family="Helvetica,sans-Serif" font-size="10.00">json::jobject::proxy</text>
<text text-anchor="middle" x="49.25" y="-306.5" font-family="Helvetica,sans-Serif" font-size="10.00">::operator=</text>
</a>
</g>
</g>
<!-- Node10&#45;&gt;Node11 -->
<g id="edge10_Node000010_Node000011" class="edge">
<title>Node10&#45;&gt;Node11</title>
<g id="a_edge10_Node000010_Node000011"><a xlink:title=" ">
<path fill="none" stroke="#63b8ff" d="M166.16,-216.53C150.41,-238.32 125.56,-269.47 98.5,-291 94.59,-294.11 90.23,-297.01 85.77,-299.64"/>
<polygon fill="#63b8ff" stroke="#63b8ff" points="168.93,-218.66 171.85,-208.48 163.22,-214.62 168.93,-218.66"/>
</a>
</g>
</g>
<!-- Node12 -->
<g id="Node000012" class="node">
<title>Node12</title>
<g id="a_Node000012"><a xlink:href="../../df/d00/a02016.html#aa921010fd5a1c97b70026ca7ea40b93b" target="_top" xlink:title="Assigns an array of double floating&#45;point numbers.">
<polygon fill="white" stroke="#666666" points="98.5,-282 0,-282 0,-250 98.5,-250 98.5,-282"/>
<text text-anchor="start" x="8" y="-268.5" font-family="Helvetica,sans-Serif" font-size="10.00">json::jobject::proxy</text>
<text text-anchor="middle" x="49.25" y="-256.5" font-family="Helvetica,sans-Serif" font-size="10.00">::operator=</text>
</a>
</g>
</g>
<!-- Node10&#45;&gt;Node12 -->
<g id="edge11_Node000010_Node000012" class="edge">
<title>Node10&#45;&gt;Node12</title>
<g id="a_edge11_Node000010_Node000012"><a xlink:title=" ">
<path fill="none" stroke="#63b8ff" d="M146.69,-213.23C131.83,-222.06 114.45,-232.19 98.5,-241 93.38,-243.83 87.91,-246.75 82.56,-249.56"/>
<polygon fill="#63b8ff" stroke="#63b8ff" points="148.44,-216.27 155.23,-208.14 144.85,-210.25 148.44,-216.27"/>
</a>
</g>
</g>
<!-- Node13 -->
<g id="Node000013" class="node">
<title>Node13</title>
<g id="a_Node000013"><a xlink:href="../../df/d00/a02016.html#a92170bfee0d6f03ae31f1a44e73610e6" target="_top" xlink:title="Assigns an array of floating&#45;point numbers.">
<polygon fill="white" stroke="#666666" points="98.5,-232 0,-232 0,-200 98.5,-200 98.5,-232"/>
<text text-anchor="start" x="8" y="-218.5" font-family="Helvetica,sans-Serif" font-size="10.00">json::jobject::proxy</text>
<text text-anchor="middle" x="49.25" y="-206.5" font-family="Helvetica,sans-Serif" font-size="10.00">::operator=</text>
</a>
</g>
</g>
<!-- Node10&#45;&gt;Node13 -->
<g id="edge12_Node000010_Node000013" class="edge">
<title>Node10&#45;&gt;Node13</title>
<g id="a_edge12_Node000010_Node000013"><a xlink:title=" ">
<path fill="none" stroke="#63b8ff" d="M122.97,-202.36C114.89,-203.87 106.68,-205.41 98.84,-206.88"/>
<polygon fill="#63b8ff" stroke="#63b8ff" points="123.59,-205.8 132.77,-200.52 122.3,-198.92 123.59,-205.8"/>
</a>
</g>
</g>
<!-- Node14 -->
<g id="Node000014" class="node">
<title>Node14</title>
<g id="a_Node000014"><a xlink:href="../../df/d00/a02016.html#a39ac475c82d61ddb251553660c39933e" target="_top" xlink:title="Assigns an array of integers.">
<polygon fill="white" stroke="#666666" points="98.5,-182 0,-182 0,-150 98.5,-150 98.5,-182"/>
<text text-anchor="start" x="8" y="-168.5" font-family="Helvetica,sans-Serif" font-size="10.00">json::jobject::proxy</text>
<text text-anchor="middle" x="49.25" y="-156.5" font-family="Helvetica,sans-Serif" font-size="10.00">::operator=</text>
</a>
</g>
</g>
<!-- Node10&#45;&gt;Node14 -->
<g id="edge13_Node000010_Node000014" class="edge">
<title>Node10&#45;&gt;Node14</title>
<g id="a_edge13_Node000010_Node000014"><a xlink:title=" ">
<path fill="none" stroke="#63b8ff" d="M122.97,-179.64C114.89,-178.13 106.68,-176.59 98.84,-175.12"/>
<polygon fill="#63b8ff" stroke="#63b8ff" points="122.3,-183.08 132.77,-181.48 123.59,-176.2 122.3,-183.08"/>
</a>
</g>
</g>
<!-- Node15 -->
<g id="Node000015" class="node">
<title>Node15</title>
<g id="a_Node000015"><a xlink:href="../../df/d00/a02016.html#a4b01378a98ee878260c1a21804c52173" target="_top" xlink:title="Assigns an array of long integers.">
<polygon fill="white" stroke="#666666" points="98.5,-132 0,-132 0,-100 98.5,-100 98.5,-132"/>
<text text-anchor="start" x="8" y="-118.5" font-family="Helvetica,sans-Serif" font-size="10.00">json::jobject::proxy</text>
<text text-anchor="middle" x="49.25" y="-106.5" font-family="Helvetica,sans-Serif" font-size="10.00">::operator=</text>
</a>
</g>
</g>
<!-- Node10&#45;&gt;Node15 -->
<g id="edge14_Node000010_Node000015" class="edge">
<title>Node10&#45;&gt;Node15</title>
<g id="a_edge14_Node000010_Node000015"><a xlink:title=" ">
<path fill="none" stroke="#63b8ff" d="M146.69,-168.77C131.83,-159.94 114.45,-149.81 98.5,-141 93.38,-138.17 87.91,-135.25 82.56,-132.44"/>
<polygon fill="#63b8ff" stroke="#63b8ff" points="144.85,-171.75 155.23,-173.86 148.44,-165.73 144.85,-171.75"/>
</a>
</g>
</g>
<!-- Node16 -->
<g id="Node000016" class="node">
<title>Node16</title>
<g id="a_Node000016"><a xlink:href="../../df/d00/a02016.html#a1d47142407de5f2cc4bf423f2b21a32e" target="_top" xlink:title="Assigns an array of unsigned integers.">
<polygon fill="white" stroke="#666666" points="98.5,-82 0,-82 0,-50 98.5,-50 98.5,-82"/>
<text text-anchor="start" x="8" y="-68.5" font-family="Helvetica,sans-Serif" font-size="10.00">json::jobject::proxy</text>
<text text-anchor="middle" x="49.25" y="-56.5" font-family="Helvetica,sans-Serif" font-size="10.00">::operator=</text>
</a>
</g>
</g>
<!-- Node10&#45;&gt;Node16 -->
<g id="edge15_Node000010_Node000016" class="edge">
<title>Node10&#45;&gt;Node16</title>
<g id="a_edge15_Node000010_Node000016"><a xlink:title=" ">
<path fill="none" stroke="#63b8ff" d="M166.16,-165.47C150.41,-143.68 125.56,-112.53 98.5,-91 94.59,-87.89 90.23,-84.99 85.77,-82.36"/>
<polygon fill="#63b8ff" stroke="#63b8ff" points="163.22,-167.38 171.85,-173.52 168.93,-163.34 163.22,-167.38"/>
</a>
</g>
</g>
<!-- Node17 -->
<g id="Node000017" class="node">
<title>Node17</title>
<g id="a_Node000017"><a xlink:href="../../df/d00/a02016.html#a566b53be7d2bbc039b8a77999a5fc7f4" target="_top" xlink:title="Assigns an array of unsigned long integers.">
<polygon fill="white" stroke="#666666" points="98.5,-32 0,-32 0,0 98.5,0 98.5,-32"/>
<text text-anchor="start" x="8" y="-18.5" font-family="Helvetica,sans-Serif" font-size="10.00">json::jobject::proxy</text>
<text text-anchor="middle" x="49.25" y="-6.5" font-family="Helvetica,sans-Serif" font-size="10.00">::operator=</text>
</a>
</g>
</g>
<!-- Node10&#45;&gt;Node17 -->
<g id="edge16_Node000010_Node000017" class="edge">
<title>Node10&#45;&gt;Node17</title>
<g id="a_edge16_Node000010_Node000017"><a xlink:title=" ">
<path fill="none" stroke="#63b8ff" d="M173.77,-164.03C160.86,-131.41 135.33,-76.48 98.5,-41 95.24,-37.86 91.5,-35.02 87.59,-32.47"/>
<polygon fill="#63b8ff" stroke="#63b8ff" points="170.42,-165.07 177.27,-173.16 176.96,-162.57 170.42,-165.07"/>
</a>
</g>
</g>
</g>
</svg>
