<?xml version="1.0" encoding="UTF-8" standalone="no"?>
<!DOCTYPE svg PUBLIC "-//W3C//DTD SVG 1.1//EN"
 "http://www.w3.org/Graphics/SVG/1.1/DTD/svg11.dtd">
<!-- Generated by graphviz version 10.0.1 (20240210.2158)
 -->
<!-- Title: GEU::DatabaseQueryPopup::makeFormDron Pages: 1 -->
<svg width="675pt" height="586pt"
 viewBox="0.00 0.00 675.00 586.00" xmlns="http://www.w3.org/2000/svg" xmlns:xlink="http://www.w3.org/1999/xlink">
<g id="graph0" class="graph" transform="scale(1 1) rotate(0) translate(4 582)">
<title>GEU::DatabaseQueryPopup::makeFormDron</title>
<!-- Node1 -->
<g id="Node000001" class="node">
<title>Node1</title>
<g id="a_Node000001"><a xlink:title=" ">
<polygon fill="#999999" stroke="#666666" points="138.25,-355 0,-355 0,-323 138.25,-323 138.25,-355"/>
<text text-anchor="start" x="8" y="-341.5" font-family="Helvetica,sans-Serif" font-size="10.00">GEU::DatabaseQueryPopup</text>
<text text-anchor="middle" x="69.12" y="-329.5" font-family="Helvetica,sans-Serif" font-size="10.00">::makeFormDron</text>
</a>
</g>
</g>
<!-- Node2 -->
<g id="Node000002" class="node">
<title>Node2</title>
<g id="a_Node000002"><a xlink:href="../../d5/d03/a00631.html#a606d575ab734f2d72d1201131ab573ea" target="_top" xlink:title=" ">
<polygon fill="white" stroke="#666666" points="291.5,-540 195.25,-540 195.25,-508 291.5,-508 291.5,-540"/>
<text text-anchor="start" x="203.25" y="-526.5" font-family="Helvetica,sans-Serif" font-size="10.00">GEU::GuiUtilities::</text>
<text text-anchor="middle" x="243.38" y="-514.5" font-family="Helvetica,sans-Serif" font-size="10.00">beginDronTable</text>
</a>
</g>
</g>
<!-- Node1&#45;&gt;Node2 -->
<g id="edge1_Node000001_Node000002" class="edge">
<title>Node1&#45;&gt;Node2</title>
<g id="a_edge1_Node000001_Node000002"><a xlink:title=" ">
<path fill="none" stroke="#63b8ff" d="M77.22,-355.24C91.46,-386.13 126.28,-453.84 174.25,-494 177.82,-496.99 181.73,-499.73 185.82,-502.23"/>
<polygon fill="#63b8ff" stroke="#63b8ff" points="183.83,-505.13 194.27,-506.91 187.22,-499.01 183.83,-505.13"/>
</a>
</g>
</g>
<!-- Node4 -->
<g id="Node000004" class="node">
<title>Node4</title>
<g id="a_Node000004"><a xlink:href="../../d6/d01/a02029.html#a47c7e7c2110f4cc59c9ff1f5594c366e" target="_top" xlink:title=" ">
<polygon fill="white" stroke="#666666" points="667,-339 515.25,-339 515.25,-307 667,-307 667,-339"/>
<text text-anchor="start" x="523.25" y="-325.5" font-family="Helvetica,sans-Serif" font-size="10.00">GEU::Singleton&lt; LocaleStrings</text>
<text text-anchor="middle" x="591.12" y="-313.5" font-family="Helvetica,sans-Serif" font-size="10.00"> &gt;::getInstance</text>
</a>
</g>
</g>
<!-- Node1&#45;&gt;Node4 -->
<g id="edge4_Node000001_Node000004" class="edge">
<title>Node1&#45;&gt;Node4</title>
<g id="a_edge4_Node000001_Node000004"><a xlink:title=" ">
<path fill="none" stroke="#63b8ff" d="M79.4,-355.41C95.09,-381.35 129.58,-431.03 174.25,-452 235.63,-480.82 418.1,-490.31 479.25,-461 527.31,-437.97 561.13,-382.82 577.95,-349.64"/>
<polygon fill="#63b8ff" stroke="#63b8ff" points="581.09,-351.18 582.34,-340.66 574.8,-348.11 581.09,-351.18"/>
</a>
</g>
</g>
<!-- Node5 -->
<g id="Node000005" class="node">
<title>Node5</title>
<g id="a_Node000005"><a xlink:href="../../d0/d05/a02017.html#ac66087ac25e72051ea7b5bf3d00dd71f" target="_top" xlink:title=" ">
<polygon fill="white" stroke="#666666" points="303.5,-443 183.25,-443 183.25,-423 303.5,-423 303.5,-443"/>
<text text-anchor="middle" x="243.38" y="-429.5" font-family="Helvetica,sans-Serif" font-size="10.00">LocaleStrings::getString</text>
</a>
</g>
</g>
<!-- Node1&#45;&gt;Node5 -->
<g id="edge5_Node000001_Node000005" class="edge">
<title>Node1&#45;&gt;Node5</title>
<g id="a_edge5_Node000001_Node000005"><a xlink:title=" ">
<path fill="none" stroke="#63b8ff" d="M88.41,-355.27C108.26,-372.16 141.52,-398.27 174.25,-414 177.95,-415.78 181.85,-417.42 185.83,-418.93"/>
<polygon fill="#63b8ff" stroke="#63b8ff" points="184.46,-422.15 195.05,-422.11 186.74,-415.54 184.46,-422.15"/>
</a>
</g>
</g>
<!-- Node6 -->
<g id="Node000006" class="node">
<title>Node6</title>
<g id="a_Node000006"><a xlink:href="../../d5/d03/a00631.html#a4453728eb6a181d72fb1be2d7d26f73d" target="_top" xlink:title=" ">
<polygon fill="white" stroke="#666666" points="297.12,-405 189.62,-405 189.62,-373 297.12,-373 297.12,-405"/>
<text text-anchor="start" x="197.62" y="-391.5" font-family="Helvetica,sans-Serif" font-size="10.00">GEU::GuiUtilities::</text>
<text text-anchor="middle" x="243.38" y="-379.5" font-family="Helvetica,sans-Serif" font-size="10.00">makeDBQueryingInfo</text>
</a>
</g>
</g>
<!-- Node1&#45;&gt;Node6 -->
<g id="edge6_Node000001_Node000006" class="edge">
<title>Node1&#45;&gt;Node6</title>
<g id="a_edge6_Node000001_Node000006"><a xlink:title=" ">
<path fill="none" stroke="#63b8ff" d="M126.53,-355.37C143.11,-360.18 161.36,-365.48 178.38,-370.42"/>
<polygon fill="#63b8ff" stroke="#63b8ff" points="177.32,-373.76 187.9,-373.19 179.27,-367.04 177.32,-373.76"/>
</a>
</g>
</g>
<!-- Node9 -->
<g id="Node000009" class="node">
<title>Node9</title>
<g id="a_Node000009"><a xlink:href="../../d5/d03/a00631.html#a9d556eae715f588368323e6205cac7ba" target="_top" xlink:title=" ">
<polygon fill="white" stroke="#666666" points="291.5,-355 195.25,-355 195.25,-323 291.5,-323 291.5,-355"/>
<text text-anchor="start" x="203.25" y="-341.5" font-family="Helvetica,sans-Serif" font-size="10.00">GEU::GuiUtilities::</text>
<text text-anchor="middle" x="243.38" y="-329.5" font-family="Helvetica,sans-Serif" font-size="10.00">makeHelpMarker</text>
</a>
</g>
</g>
<!-- Node1&#45;&gt;Node9 -->
<g id="edge10_Node000001_Node000009" class="edge">
<title>Node1&#45;&gt;Node9</title>
<g id="a_edge10_Node000001_Node000009"><a xlink:title=" ">
<path fill="none" stroke="#63b8ff" d="M138.7,-339C153.58,-339 169.19,-339 183.65,-339"/>
<polygon fill="#63b8ff" stroke="#63b8ff" points="183.45,-342.5 193.45,-339 183.45,-335.5 183.45,-342.5"/>
</a>
</g>
</g>
<!-- Node10 -->
<g id="Node000010" class="node">
<title>Node10</title>
<g id="a_Node000010"><a xlink:href="../../d5/d03/a00631.html#a51f7b03162a92f79594e82e1aca62133" target="_top" xlink:title=" ">
<polygon fill="white" stroke="#666666" points="291.5,-305 195.25,-305 195.25,-273 291.5,-273 291.5,-305"/>
<text text-anchor="start" x="203.25" y="-291.5" font-family="Helvetica,sans-Serif" font-size="10.00">GEU::GuiUtilities::</text>
<text text-anchor="middle" x="243.38" y="-279.5" font-family="Helvetica,sans-Serif" font-size="10.00">makeLocButton</text>
</a>
</g>
</g>
<!-- Node1&#45;&gt;Node10 -->
<g id="edge12_Node000001_Node000010" class="edge">
<title>Node1&#45;&gt;Node10</title>
<g id="a_edge12_Node000001_Node000010"><a xlink:title=" ">
<path fill="none" stroke="#63b8ff" d="M126.53,-322.63C144.89,-317.3 165.32,-311.37 183.84,-305.99"/>
<polygon fill="#63b8ff" stroke="#63b8ff" points="184.71,-309.38 193.34,-303.23 182.76,-302.66 184.71,-309.38"/>
</a>
</g>
</g>
<!-- Node12 -->
<g id="Node000012" class="node">
<title>Node12</title>
<g id="a_Node000012"><a xlink:href="../../d5/d03/a00631.html#a791a299165fdb530f39adcf8b5637638" target="_top" xlink:title=" ">
<polygon fill="white" stroke="#666666" points="462,-208 365.75,-208 365.75,-176 462,-176 462,-208"/>
<text text-anchor="start" x="373.75" y="-194.5" font-family="Helvetica,sans-Serif" font-size="10.00">GEU::GuiUtilities::</text>
<text text-anchor="middle" x="413.88" y="-182.5" font-family="Helvetica,sans-Serif" font-size="10.00">makeLocSepText</text>
</a>
</g>
</g>
<!-- Node1&#45;&gt;Node12 -->
<g id="edge16_Node000001_Node000012" class="edge">
<title>Node1&#45;&gt;Node12</title>
<g id="a_edge16_Node000001_Node000012"><a xlink:title=" ">
<path fill="none" stroke="#63b8ff" d="M88.84,-322.55C108.79,-305.77 141.89,-279.98 174.25,-264 232.57,-235.21 304.65,-215.41 354.25,-203.96"/>
<polygon fill="#63b8ff" stroke="#63b8ff" points="354.95,-207.39 363.93,-201.77 353.41,-200.56 354.95,-207.39"/>
</a>
</g>
</g>
<!-- Node13 -->
<g id="Node000013" class="node">
<title>Node13</title>
<g id="a_Node000013"><a xlink:href="../../df/d07/a01537.html#ae89ab2cd1b3a99f5d1b32f244d1b71cf" target="_top" xlink:title=" ">
<polygon fill="white" stroke="#666666" points="312.5,-164 174.25,-164 174.25,-132 312.5,-132 312.5,-164"/>
<text text-anchor="start" x="182.25" y="-150.5" font-family="Helvetica,sans-Serif" font-size="10.00">GEU::DatabaseQueryPopup</text>
<text text-anchor="middle" x="243.38" y="-138.5" font-family="Helvetica,sans-Serif" font-size="10.00">::queryDronFabricantes</text>
</a>
</g>
</g>
<!-- Node1&#45;&gt;Node13 -->
<g id="edge18_Node000001_Node000013" class="edge">
<title>Node1&#45;&gt;Node13</title>
<g id="a_edge18_Node000001_Node000013"><a xlink:title=" ">
<path fill="none" stroke="#63b8ff" d="M81.34,-322.59C99.44,-296.61 136.89,-244.93 174.25,-206 185.82,-193.94 199.7,-181.78 211.9,-171.72"/>
<polygon fill="#63b8ff" stroke="#63b8ff" points="214.09,-174.45 219.66,-165.44 209.69,-169.01 214.09,-174.45"/>
</a>
</g>
</g>
<!-- Node15 -->
<g id="Node000015" class="node">
<title>Node15</title>
<g id="a_Node000015"><a xlink:href="../../df/d07/a01537.html#a48787a9dba1727fd7ed58caedba8392e" target="_top" xlink:title=" ">
<polygon fill="white" stroke="#666666" points="312.5,-76 174.25,-76 174.25,-44 312.5,-44 312.5,-76"/>
<text text-anchor="start" x="182.25" y="-62.5" font-family="Helvetica,sans-Serif" font-size="10.00">GEU::DatabaseQueryPopup</text>
<text text-anchor="middle" x="243.38" y="-50.5" font-family="Helvetica,sans-Serif" font-size="10.00">::queryFilterDron</text>
</a>
</g>
</g>
<!-- Node1&#45;&gt;Node15 -->
<g id="edge21_Node000001_Node000015" class="edge">
<title>Node1&#45;&gt;Node15</title>
<g id="a_edge21_Node000001_Node000015"><a xlink:title=" ">
<path fill="none" stroke="#63b8ff" d="M75.59,-322.69C88.68,-285.06 124.49,-190.27 174.25,-123 184.99,-108.48 199.39,-94.59 212.19,-83.57"/>
<polygon fill="#63b8ff" stroke="#63b8ff" points="214.14,-86.5 219.56,-77.4 209.65,-81.13 214.14,-86.5"/>
</a>
</g>
</g>
<!-- Node3 -->
<g id="Node000003" class="node">
<title>Node3</title>
<g id="a_Node000003"><a xlink:href="../../d5/d03/a00631.html#aca2c75691a6162a3ee60274a84118740" target="_top" xlink:title=" ">
<polygon fill="white" stroke="#666666" points="479.25,-578 348.5,-578 348.5,-546 479.25,-546 479.25,-578"/>
<text text-anchor="start" x="356.5" y="-564.5" font-family="Helvetica,sans-Serif" font-size="10.00">GEU::GuiUtilities::</text>
<text text-anchor="middle" x="413.88" y="-552.5" font-family="Helvetica,sans-Serif" font-size="10.00">calcSingleRowTableHeight</text>
</a>
</g>
</g>
<!-- Node2&#45;&gt;Node3 -->
<g id="edge2_Node000002_Node000003" class="edge">
<title>Node2&#45;&gt;Node3</title>
<g id="a_edge2_Node000002_Node000003"><a xlink:title=" ">
<path fill="none" stroke="#63b8ff" d="M291.76,-534.69C305.86,-537.87 321.67,-541.43 337.11,-544.91"/>
<polygon fill="#63b8ff" stroke="#63b8ff" points="336.24,-548.31 346.77,-547.09 337.78,-541.48 336.24,-548.31"/>
</a>
</g>
</g>
<!-- Node2&#45;&gt;Node4 -->
<g id="edge3_Node000002_Node000004" class="edge">
<title>Node2&#45;&gt;Node4</title>
<g id="a_edge3_Node000002_Node000004"><a xlink:title=" ">
<path fill="none" stroke="#63b8ff" d="M291.92,-529.09C342.33,-532.09 422.35,-529.78 479.25,-494 533.37,-459.97 566.32,-388.81 581.03,-349.87"/>
<polygon fill="#63b8ff" stroke="#63b8ff" points="584.21,-351.36 584.34,-340.77 577.63,-348.97 584.21,-351.36"/>
</a>
</g>
</g>
<!-- Node7 -->
<g id="Node000007" class="node">
<title>Node7</title>
<g id="a_Node000007"><a xlink:href="../../d5/d03/a00631.html#aa4e9186189a097316ffd71424d4a7259" target="_top" xlink:title=" ">
<polygon fill="white" stroke="#666666" points="462,-452 365.75,-452 365.75,-420 462,-420 462,-452"/>
<text text-anchor="start" x="373.75" y="-438.5" font-family="Helvetica,sans-Serif" font-size="10.00">GEU::GuiUtilities::</text>
<text text-anchor="middle" x="413.88" y="-426.5" font-family="Helvetica,sans-Serif" font-size="10.00">loadingIcon</text>
</a>
</g>
</g>
<!-- Node6&#45;&gt;Node7 -->
<g id="edge7_Node000006_Node000007" class="edge">
<title>Node6&#45;&gt;Node7</title>
<g id="a_edge7_Node000006_Node000007"><a xlink:title=" ">
<path fill="none" stroke="#63b8ff" d="M297.23,-403.74C315.38,-408.8 335.79,-414.5 354.36,-419.68"/>
<polygon fill="#63b8ff" stroke="#63b8ff" points="353.32,-423.02 363.89,-422.34 355.2,-416.28 353.32,-423.02"/>
</a>
</g>
</g>
<!-- Node8 -->
<g id="Node000008" class="node">
<title>Node8</title>
<g id="a_Node000008"><a xlink:href="../../d5/d03/a00631.html#a7b24395f0bd0bd368bde0935682746ce" target="_top" xlink:title=" ">
<polygon fill="white" stroke="#666666" points="462,-402 365.75,-402 365.75,-370 462,-370 462,-402"/>
<text text-anchor="start" x="373.75" y="-388.5" font-family="Helvetica,sans-Serif" font-size="10.00">GEU::GuiUtilities::</text>
<text text-anchor="middle" x="413.88" y="-376.5" font-family="Helvetica,sans-Serif" font-size="10.00">makeLocText</text>
</a>
</g>
</g>
<!-- Node6&#45;&gt;Node8 -->
<g id="edge8_Node000006_Node000008" class="edge">
<title>Node6&#45;&gt;Node8</title>
<g id="a_edge8_Node000006_Node000008"><a xlink:title=" ">
<path fill="none" stroke="#63b8ff" d="M297.23,-388.06C315.21,-387.74 335.41,-387.38 353.84,-387.05"/>
<polygon fill="#63b8ff" stroke="#63b8ff" points="353.9,-390.55 363.84,-386.87 353.78,-383.55 353.9,-390.55"/>
</a>
</g>
</g>
<!-- Node8&#45;&gt;Node4 -->
<g id="edge9_Node000008_Node000004" class="edge">
<title>Node8&#45;&gt;Node4</title>
<g id="a_edge9_Node000008_Node000004"><a xlink:title=" ">
<path fill="none" stroke="#63b8ff" d="M460.46,-369.61C482.89,-361.55 510.13,-351.76 533.84,-343.23"/>
<polygon fill="#63b8ff" stroke="#63b8ff" points="534.81,-346.6 543.04,-339.93 532.44,-340.02 534.81,-346.6"/>
</a>
</g>
</g>
<!-- Node9&#45;&gt;Node4 -->
<g id="edge11_Node000009_Node000004" class="edge">
<title>Node9&#45;&gt;Node4</title>
<g id="a_edge11_Node000009_Node000004"><a xlink:title=" ">
<path fill="none" stroke="#63b8ff" d="M291.73,-336.81C346.1,-334.29 436.41,-330.11 503.47,-327.01"/>
<polygon fill="#63b8ff" stroke="#63b8ff" points="503.52,-330.51 513.35,-326.55 503.2,-323.52 503.52,-330.51"/>
</a>
</g>
</g>
<!-- Node10&#45;&gt;Node4 -->
<g id="edge13_Node000010_Node000004" class="edge">
<title>Node10&#45;&gt;Node4</title>
<g id="a_edge13_Node000010_Node000004"><a xlink:title=" ">
<path fill="none" stroke="#63b8ff" d="M291.73,-293.66C346.1,-299 436.41,-307.88 503.47,-314.48"/>
<polygon fill="#63b8ff" stroke="#63b8ff" points="503.06,-317.96 513.35,-315.45 503.75,-310.99 503.06,-317.96"/>
</a>
</g>
</g>
<!-- Node11 -->
<g id="Node000011" class="node">
<title>Node11</title>
<g id="a_Node000011"><a xlink:href="../../d5/d03/a00631.html#a4a4cc2d3f5e9444384aa7e7eb062dbf0" target="_top" xlink:title=" ">
<polygon fill="white" stroke="#666666" points="462,-258 365.75,-258 365.75,-226 462,-226 462,-258"/>
<text text-anchor="start" x="373.75" y="-244.5" font-family="Helvetica,sans-Serif" font-size="10.00">GEU::GuiUtilities::</text>
<text text-anchor="middle" x="413.88" y="-232.5" font-family="Helvetica,sans-Serif" font-size="10.00">makeButton</text>
</a>
</g>
</g>
<!-- Node10&#45;&gt;Node11 -->
<g id="edge14_Node000010_Node000011" class="edge">
<title>Node10&#45;&gt;Node11</title>
<g id="a_edge14_Node000010_Node000011"><a xlink:title=" ">
<path fill="none" stroke="#63b8ff" d="M291.76,-275.78C311.14,-270.38 333.77,-264.07 354.18,-258.37"/>
<polygon fill="#63b8ff" stroke="#63b8ff" points="355.11,-261.75 363.8,-255.69 353.23,-255 355.11,-261.75"/>
</a>
</g>
</g>
<!-- Node11&#45;&gt;Node11 -->
<g id="edge15_Node000011_Node000011" class="edge">
<title>Node11&#45;&gt;Node11</title>
<g id="a_edge15_Node000011_Node000011"><a xlink:title=" ">
<path fill="none" stroke="#63b8ff" d="M383.44,-258.44C377.75,-267.58 387.9,-276 413.88,-276 428.08,-276 437.55,-273.48 442.29,-269.71"/>
<polygon fill="#63b8ff" stroke="#63b8ff" points="445.72,-270.39 444.05,-259.93 438.83,-269.15 445.72,-270.39"/>
</a>
</g>
</g>
<!-- Node12&#45;&gt;Node4 -->
<g id="edge17_Node000012_Node000004" class="edge">
<title>Node12&#45;&gt;Node4</title>
<g id="a_edge17_Node000012_Node000004"><a xlink:title=" ">
<path fill="none" stroke="#63b8ff" d="M462.34,-207.95C468.21,-210.63 473.99,-213.65 479.25,-217 514.71,-239.56 548.59,-274.6 569.36,-298.15"/>
<polygon fill="#63b8ff" stroke="#63b8ff" points="566.47,-300.16 575.67,-305.42 571.76,-295.57 566.47,-300.16"/>
</a>
</g>
</g>
<!-- Node13&#45;&gt;Node4 -->
<g id="edge20_Node000013_Node000004" class="edge">
<title>Node13&#45;&gt;Node4</title>
<g id="a_edge20_Node000013_Node000004"><a xlink:title=" ">
<path fill="none" stroke="#63b8ff" d="M312.84,-138.85C362.24,-135.6 428.83,-138.35 479.25,-167 530.56,-196.16 564.05,-259.96 579.74,-296.29"/>
<polygon fill="#63b8ff" stroke="#63b8ff" points="576.38,-297.33 583.46,-305.21 582.84,-294.64 576.38,-297.33"/>
</a>
</g>
</g>
<!-- Node14 -->
<g id="Node000014" class="node">
<title>Node14</title>
<g id="a_Node000014"><a xlink:href="../../de/d01/a01857.html#a44fc08fcf45a9b8710793768fd852f1d" target="_top" xlink:title=" ">
<polygon fill="white" stroke="#666666" points="467.62,-120 360.12,-120 360.12,-88 467.62,-88 467.62,-120"/>
<text text-anchor="start" x="368.12" y="-106.5" font-family="Helvetica,sans-Serif" font-size="10.00">DatabaseConnector::</text>
<text text-anchor="middle" x="413.88" y="-94.5" font-family="Helvetica,sans-Serif" font-size="10.00">getDronFabricantes</text>
</a>
</g>
</g>
<!-- Node13&#45;&gt;Node14 -->
<g id="edge19_Node000013_Node000014" class="edge">
<title>Node13&#45;&gt;Node14</title>
<g id="a_edge19_Node000013_Node000014"><a xlink:title=" ">
<path fill="none" stroke="#63b8ff" d="M307.12,-131.62C320.78,-128.05 335.24,-124.27 348.95,-120.69"/>
<polygon fill="#63b8ff" stroke="#63b8ff" points="349.49,-124.17 358.28,-118.26 347.72,-117.4 349.49,-124.17"/>
</a>
</g>
</g>
<!-- Node15&#45;&gt;Node4 -->
<g id="edge22_Node000015_Node000004" class="edge">
<title>Node15&#45;&gt;Node4</title>
<g id="a_edge22_Node000015_Node000004"><a xlink:title=" ">
<path fill="none" stroke="#63b8ff" d="M312.76,-48.23C363.23,-43.37 431.22,-45.25 479.25,-79 552.74,-130.64 578.44,-243.12 586.64,-295.34"/>
<polygon fill="#63b8ff" stroke="#63b8ff" points="583.17,-295.79 588.07,-305.18 590.09,-294.78 583.17,-295.79"/>
</a>
</g>
</g>
<!-- Node16 -->
<g id="Node000016" class="node">
<title>Node16</title>
<g id="a_Node000016"><a xlink:href="../../de/d01/a01857.html#ac90222fa0a3af98aea6a087b90ac0c38" target="_top" xlink:title=" ">
<polygon fill="white" stroke="#666666" points="467.62,-32 360.12,-32 360.12,0 467.62,0 467.62,-32"/>
<text text-anchor="start" x="368.12" y="-18.5" font-family="Helvetica,sans-Serif" font-size="10.00">DatabaseConnector::</text>
<text text-anchor="middle" x="413.88" y="-6.5" font-family="Helvetica,sans-Serif" font-size="10.00">queryDron</text>
</a>
</g>
</g>
<!-- Node15&#45;&gt;Node16 -->
<g id="edge23_Node000015_Node000016" class="edge">
<title>Node15&#45;&gt;Node16</title>
<g id="a_edge23_Node000015_Node000016"><a xlink:title=" ">
<path fill="none" stroke="#63b8ff" d="M307.12,-43.62C320.78,-40.05 335.24,-36.27 348.95,-32.69"/>
<polygon fill="#63b8ff" stroke="#63b8ff" points="349.49,-36.17 358.28,-30.26 347.72,-29.4 349.49,-36.17"/>
</a>
</g>
</g>
<!-- Node17 -->
<g id="Node000017" class="node">
<title>Node17</title>
<g id="a_Node000017"><a xlink:href="../../d7/d01/a01837.html#a22c42fcba00cfed433b63571d8c9a6ec" target="_top" xlink:title=" ">
<polygon fill="white" stroke="#666666" points="658.38,-26 523.88,-26 523.88,-6 658.38,-6 658.38,-26"/>
<text text-anchor="middle" x="591.12" y="-12.5" font-family="Helvetica,sans-Serif" font-size="10.00">Database::Dron::fromQuery</text>
</a>
</g>
</g>
<!-- Node16&#45;&gt;Node17 -->
<g id="edge24_Node000016_Node000017" class="edge">
<title>Node16&#45;&gt;Node17</title>
<g id="a_edge24_Node000016_Node000017"><a xlink:title=" ">
<path fill="none" stroke="#63b8ff" d="M467.93,-16C481.9,-16 497.26,-16 512.24,-16"/>
<polygon fill="#63b8ff" stroke="#63b8ff" points="512.08,-19.5 522.08,-16 512.08,-12.5 512.08,-19.5"/>
</a>
</g>
</g>
</g>
</svg>
