<?xml version="1.0" encoding="UTF-8" standalone="no"?>
<!DOCTYPE svg PUBLIC "-//W3C//DTD SVG 1.1//EN"
 "http://www.w3.org/Graphics/SVG/1.1/DTD/svg11.dtd">
<!-- Generated by graphviz version 10.0.1 (20240210.2158)
 -->
<!-- Title: GEU::Scene::getActiveCamera Pages: 1 -->
<svg width="369pt" height="204pt"
 viewBox="0.00 0.00 368.50 204.00" xmlns="http://www.w3.org/2000/svg" xmlns:xlink="http://www.w3.org/1999/xlink">
<g id="graph0" class="graph" transform="scale(1 1) rotate(0) translate(4 200)">
<title>GEU::Scene::getActiveCamera</title>
<!-- Node1 -->
<g id="Node000001" class="node">
<title>Node1</title>
<g id="a_Node000001"><a xlink:title=" ">
<polygon fill="#999999" stroke="#666666" points="360.5,-120 210.25,-120 210.25,-100 360.5,-100 360.5,-120"/>
<text text-anchor="middle" x="285.38" y="-106.5" font-family="Helvetica,sans-Serif" font-size="10.00">GEU::Scene::getActiveCamera</text>
</a>
</g>
</g>
<!-- Node2 -->
<g id="Node000002" class="node">
<title>Node2</title>
<g id="a_Node000002"><a xlink:href="../../de/d04/a01640.html#a10b08b5ce392cffc57c1eababc48af8c" target="_top" xlink:title=" ">
<polygon fill="white" stroke="#666666" points="154.38,-196 19.88,-196 19.88,-176 154.38,-176 154.38,-196"/>
<text text-anchor="middle" x="87.12" y="-182.5" font-family="Helvetica,sans-Serif" font-size="10.00">GEU::PointCloud::pickArea</text>
</a>
</g>
</g>
<!-- Node1&#45;&gt;Node2 -->
<g id="edge1_Node000001_Node000002" class="edge">
<title>Node1&#45;&gt;Node2</title>
<g id="a_edge1_Node000001_Node000002"><a xlink:title=" ">
<path fill="none" stroke="#63b8ff" d="M258.03,-126.13C236.25,-138.84 204.17,-156.17 174.25,-167 165.04,-170.34 155.05,-173.19 145.24,-175.6"/>
<polygon fill="#63b8ff" stroke="#63b8ff" points="259.72,-129.2 266.53,-121.08 256.14,-123.18 259.72,-129.2"/>
</a>
</g>
</g>
<!-- Node3 -->
<g id="Node000003" class="node">
<title>Node3</title>
<g id="a_Node000003"><a xlink:href="../../de/d04/a01640.html#a015047b0999a6fff28fd474e4e37ca94" target="_top" xlink:title=" ">
<polygon fill="white" stroke="#666666" points="174.25,-158 0,-158 0,-138 174.25,-138 174.25,-158"/>
<text text-anchor="middle" x="87.12" y="-144.5" font-family="Helvetica,sans-Serif" font-size="10.00">GEU::PointCloud::pickMeshletsArea</text>
</a>
</g>
</g>
<!-- Node1&#45;&gt;Node3 -->
<g id="edge2_Node000001_Node000003" class="edge">
<title>Node1&#45;&gt;Node3</title>
<g id="a_edge2_Node000001_Node000003"><a xlink:title=" ">
<path fill="none" stroke="#63b8ff" d="M219.01,-122.66C194.04,-127.49 165.88,-132.94 142.09,-137.55"/>
<polygon fill="#63b8ff" stroke="#63b8ff" points="219.59,-126.11 228.74,-120.77 218.26,-119.24 219.59,-126.11"/>
</a>
</g>
</g>
<!-- Node4 -->
<g id="Node000004" class="node">
<title>Node4</title>
<g id="a_Node000004"><a xlink:href="../../de/d04/a01640.html#a57fd58f94621ec466a18a3e39759af56" target="_top" xlink:title=" ">
<polygon fill="white" stroke="#666666" points="155.5,-120 18.75,-120 18.75,-100 155.5,-100 155.5,-120"/>
<text text-anchor="middle" x="87.12" y="-106.5" font-family="Helvetica,sans-Serif" font-size="10.00">GEU::PointCloud::pickPoint</text>
</a>
</g>
</g>
<!-- Node1&#45;&gt;Node4 -->
<g id="edge3_Node000001_Node000004" class="edge">
<title>Node1&#45;&gt;Node4</title>
<g id="a_edge3_Node000001_Node000004"><a xlink:title=" ">
<path fill="none" stroke="#63b8ff" d="M198.52,-110C184.21,-110 169.55,-110 155.78,-110"/>
<polygon fill="#63b8ff" stroke="#63b8ff" points="198.39,-113.5 208.39,-110 198.39,-106.5 198.39,-113.5"/>
</a>
</g>
</g>
<!-- Node5 -->
<g id="Node000005" class="node">
<title>Node5</title>
<g id="a_Node000005"><a xlink:href="../../de/d05/a01500.html#a63b0402d61dd34944da9280a89fa9f74" target="_top" xlink:title="Renders the window and contents.">
<polygon fill="white" stroke="#666666" points="145.75,-82 28.5,-82 28.5,-50 145.75,-50 145.75,-82"/>
<text text-anchor="start" x="36.5" y="-68.5" font-family="Helvetica,sans-Serif" font-size="10.00">GEU::InspectorWindow</text>
<text text-anchor="middle" x="87.12" y="-56.5" font-family="Helvetica,sans-Serif" font-size="10.00">::renderWindow</text>
</a>
</g>
</g>
<!-- Node1&#45;&gt;Node5 -->
<g id="edge4_Node000001_Node000005" class="edge">
<title>Node1&#45;&gt;Node5</title>
<g id="a_edge4_Node000001_Node000005"><a xlink:title=" ">
<path fill="none" stroke="#63b8ff" d="M226.91,-97.12C201.52,-91.42 171.71,-84.74 146.25,-79.03"/>
<polygon fill="#63b8ff" stroke="#63b8ff" points="225.87,-100.47 236.39,-99.24 227.4,-93.64 225.87,-100.47"/>
</a>
</g>
</g>
<!-- Node6 -->
<g id="Node000006" class="node">
<title>Node6</title>
<g id="a_Node000006"><a xlink:href="../../d0/d03/a01508.html#a56f55b34996a68d41418a2df8ea008db" target="_top" xlink:title="Renders the window and contents.">
<polygon fill="white" stroke="#666666" points="142,-32 32.25,-32 32.25,0 142,0 142,-32"/>
<text text-anchor="start" x="40.25" y="-18.5" font-family="Helvetica,sans-Serif" font-size="10.00">GEU::PickingWindow</text>
<text text-anchor="middle" x="87.12" y="-6.5" font-family="Helvetica,sans-Serif" font-size="10.00">::renderWindow</text>
</a>
</g>
</g>
<!-- Node1&#45;&gt;Node6 -->
<g id="edge5_Node000001_Node000006" class="edge">
<title>Node1&#45;&gt;Node6</title>
<g id="a_edge5_Node000001_Node000006"><a xlink:title=" ">
<path fill="none" stroke="#63b8ff" d="M261.18,-92.79C239.6,-77.44 206.07,-55.25 174.25,-41 164.16,-36.48 153.04,-32.55 142.24,-29.22"/>
<polygon fill="#63b8ff" stroke="#63b8ff" points="259.1,-95.6 269.26,-98.62 263.2,-89.93 259.1,-95.6"/>
</a>
</g>
</g>
</g>
</svg>
