<?xml version="1.0" encoding="UTF-8" standalone="no"?>
<!DOCTYPE svg PUBLIC "-//W3C//DTD SVG 1.1//EN"
 "http://www.w3.org/Graphics/SVG/1.1/DTD/svg11.dtd">
<!-- Generated by graphviz version 10.0.1 (20240210.2158)
 -->
<!-- Title: ImGradient::getColorAt Pages: 1 -->
<svg width="428pt" height="90pt"
 viewBox="0.00 0.00 428.00 90.00" xmlns="http://www.w3.org/2000/svg" xmlns:xlink="http://www.w3.org/1999/xlink">
<g id="graph0" class="graph" transform="scale(1 1) rotate(0) translate(4 86)">
<title>ImGradient::getColorAt</title>
<!-- Node1 -->
<g id="Node000001" class="node">
<title>Node1</title>
<g id="a_Node000001"><a xlink:title=" ">
<polygon fill="#999999" stroke="#666666" points="420,-51 305,-51 305,-31 420,-31 420,-51"/>
<text text-anchor="middle" x="362.5" y="-37.5" font-family="Helvetica,sans-Serif" font-size="10.00">ImGradient::getColorAt</text>
</a>
</g>
</g>
<!-- Node2 -->
<g id="Node000002" class="node">
<title>Node2</title>
<g id="a_Node000002"><a xlink:href="../../df/d03/namespace_im_gui.html#a3add9205f87d8efffa815d6e8db4864c" target="_top" xlink:title=" ">
<polygon fill="white" stroke="#666666" points="266.38,-73 156.62,-73 156.62,-53 266.38,-53 266.38,-73"/>
<text text-anchor="middle" x="211.5" y="-59.5" font-family="Helvetica,sans-Serif" font-size="10.00">ImGui::GradientEditor</text>
</a>
</g>
</g>
<!-- Node1&#45;&gt;Node2 -->
<g id="edge1_Node000001_Node000002" class="edge">
<title>Node1&#45;&gt;Node2</title>
<g id="a_edge1_Node000001_Node000002"><a xlink:title=" ">
<path fill="none" stroke="#63b8ff" d="M293.46,-51.05C284.47,-52.37 275.36,-53.72 266.64,-55.01"/>
<polygon fill="#63b8ff" stroke="#63b8ff" points="293.87,-54.52 303.25,-49.6 292.84,-47.6 293.87,-54.52"/>
</a>
</g>
</g>
<!-- Node4 -->
<g id="Node000004" class="node">
<title>Node4</title>
<g id="a_Node000004"><a xlink:href="../../de/d04/class_g_e_u_1_1_renderer.html#a2eac667a0aa9b0e9b3657f5570dcf851" target="_top" xlink:title=" ">
<polygon fill="white" stroke="#666666" points="269,-32 154,-32 154,-12 269,-12 269,-32"/>
<text text-anchor="middle" x="211.5" y="-18.5" font-family="Helvetica,sans-Serif" font-size="10.00">GEU::Renderer::render</text>
</a>
</g>
</g>
<!-- Node1&#45;&gt;Node4 -->
<g id="edge3_Node000001_Node000004" class="edge">
<title>Node1&#45;&gt;Node4</title>
<g id="a_edge3_Node000001_Node000004"><a xlink:title=" ">
<path fill="none" stroke="#63b8ff" d="M293.37,-32.31C285.25,-31.28 277.03,-30.23 269.1,-29.22"/>
<polygon fill="#63b8ff" stroke="#63b8ff" points="292.88,-35.78 303.24,-33.57 293.77,-28.83 292.88,-35.78"/>
</a>
</g>
</g>
<!-- Node3 -->
<g id="Node000003" class="node">
<title>Node3</title>
<g id="a_Node000003"><a xlink:href="../../da/d04/class_g_e_u_1_1_settings_window.html#a7af9db6d6ad56c4c4fc336251024472f" target="_top" xlink:title="Renders the window and contents.">
<polygon fill="white" stroke="#666666" points="115.75,-82 2.25,-82 2.25,-50 115.75,-50 115.75,-82"/>
<text text-anchor="start" x="10.25" y="-68.5" font-family="Helvetica,sans-Serif" font-size="10.00">GEU::SettingsWindow</text>
<text text-anchor="middle" x="59" y="-56.5" font-family="Helvetica,sans-Serif" font-size="10.00">::renderWindow</text>
</a>
</g>
</g>
<!-- Node2&#45;&gt;Node3 -->
<g id="edge2_Node000002_Node000003" class="edge">
<title>Node2&#45;&gt;Node3</title>
<g id="a_edge2_Node000002_Node000003"><a xlink:title=" ">
<path fill="none" stroke="#63b8ff" d="M144.66,-64.31C135.11,-64.5 125.36,-64.7 116.03,-64.88"/>
<polygon fill="#63b8ff" stroke="#63b8ff" points="144.72,-67.81 154.65,-64.11 144.59,-60.81 144.72,-67.81"/>
</a>
</g>
</g>
<!-- Node5 -->
<g id="Node000005" class="node">
<title>Node5</title>
<g id="a_Node000005"><a xlink:href="../../d9/d05/class_g_e_u_1_1_input_manager.html#a41558df6c8f7192c52e9d5e7c095ad13" target="_top" xlink:title=" ">
<polygon fill="white" stroke="#666666" points="118,-32 0,-32 0,0 118,0 118,-32"/>
<text text-anchor="start" x="8" y="-18.5" font-family="Helvetica,sans-Serif" font-size="10.00">GEU::InputManager::</text>
<text text-anchor="middle" x="59" y="-6.5" font-family="Helvetica,sans-Serif" font-size="10.00">windowRefreshCallback</text>
</a>
</g>
</g>
<!-- Node4&#45;&gt;Node5 -->
<g id="edge4_Node000004_Node000005" class="edge">
<title>Node4&#45;&gt;Node5</title>
<g id="a_edge4_Node000004_Node000005"><a xlink:title=" ">
<path fill="none" stroke="#63b8ff" d="M142.14,-19.27C134.24,-18.96 126.23,-18.64 118.48,-18.33"/>
<polygon fill="#63b8ff" stroke="#63b8ff" points="141.96,-22.77 152.09,-19.67 142.24,-15.78 141.96,-22.77"/>
</a>
</g>
</g>
</g>
</svg>
