<?xml version="1.0" encoding="UTF-8" standalone="no"?>
<!DOCTYPE svg PUBLIC "-//W3C//DTD SVG 1.1//EN"
 "http://www.w3.org/Graphics/SVG/1.1/DTD/svg11.dtd">
<!-- Generated by graphviz version 10.0.1 (20240210.2158)
 -->
<!-- Title: GEU::InterfaceAdapter::getLocalizedName Pages: 1 -->
<svg width="567pt" height="90pt"
 viewBox="0.00 0.00 567.00 90.00" xmlns="http://www.w3.org/2000/svg" xmlns:xlink="http://www.w3.org/1999/xlink">
<g id="graph0" class="graph" transform="scale(1 1) rotate(0) translate(4 86)">
<title>GEU::InterfaceAdapter::getLocalizedName</title>
<!-- Node1 -->
<g id="Node000001" class="node">
<title>Node1</title>
<g id="a_Node000001"><a xlink:title=" ">
<polygon fill="#999999" stroke="#666666" points="559,-57 445.5,-57 445.5,-25 559,-25 559,-57"/>
<text text-anchor="start" x="453.5" y="-43.5" font-family="Helvetica,sans-Serif" font-size="10.00">GEU::InterfaceAdapter</text>
<text text-anchor="middle" x="502.25" y="-31.5" font-family="Helvetica,sans-Serif" font-size="10.00">::getLocalizedName</text>
</a>
</g>
</g>
<!-- Node2 -->
<g id="Node000002" class="node">
<title>Node2</title>
<g id="a_Node000002"><a xlink:href="../../d8/d00/class_g_e_u_1_1_interface_adapter.html#a9d49afcbe9e2c7d2e3952b120be71162" target="_top" xlink:title=" ">
<polygon fill="white" stroke="#666666" points="409.5,-82 296,-82 296,-50 409.5,-50 409.5,-82"/>
<text text-anchor="start" x="304" y="-68.5" font-family="Helvetica,sans-Serif" font-size="10.00">GEU::InterfaceAdapter</text>
<text text-anchor="middle" x="352.75" y="-56.5" font-family="Helvetica,sans-Serif" font-size="10.00">::getIconName</text>
</a>
</g>
</g>
<!-- Node1&#45;&gt;Node2 -->
<g id="edge1_Node000001_Node000002" class="edge">
<title>Node1&#45;&gt;Node2</title>
<g id="a_edge1_Node000001_Node000002"><a xlink:title=" ">
<path fill="none" stroke="#63b8ff" d="M433.81,-52.43C425.77,-53.79 417.63,-55.17 409.78,-56.5"/>
<polygon fill="#63b8ff" stroke="#63b8ff" points="434.3,-55.9 443.57,-50.78 433.13,-49 434.3,-55.9"/>
</a>
</g>
</g>
<!-- Node3 -->
<g id="Node000003" class="node">
<title>Node3</title>
<g id="a_Node000003"><a xlink:href="../../d8/d00/class_g_e_u_1_1_interface_adapter.html#abbe19d1677429a1330eee4713061fcde" target="_top" xlink:title=" ">
<polygon fill="white" stroke="#666666" points="409.5,-32 296,-32 296,0 409.5,0 409.5,-32"/>
<text text-anchor="start" x="304" y="-18.5" font-family="Helvetica,sans-Serif" font-size="10.00">GEU::InterfaceAdapter</text>
<text text-anchor="middle" x="352.75" y="-6.5" font-family="Helvetica,sans-Serif" font-size="10.00">::getWindowName</text>
</a>
</g>
</g>
<!-- Node1&#45;&gt;Node3 -->
<g id="edge2_Node000001_Node000003" class="edge">
<title>Node1&#45;&gt;Node3</title>
<g id="a_edge2_Node000001_Node000003"><a xlink:title=" ">
<path fill="none" stroke="#63b8ff" d="M433.81,-29.57C425.77,-28.21 417.63,-26.83 409.78,-25.5"/>
<polygon fill="#63b8ff" stroke="#63b8ff" points="433.13,-33 443.57,-31.22 434.3,-26.1 433.13,-33"/>
</a>
</g>
</g>
<!-- Node4 -->
<g id="Node000004" class="node">
<title>Node4</title>
<g id="a_Node000004"><a xlink:href="../../db/d02/class_g_e_u_1_1_module_manager.html#a212616bf2b2202e3372bd4c6a2cf03fb" target="_top" xlink:title="Adds basic modules to GUI.">
<polygon fill="white" stroke="#666666" points="260,-32 148,-32 148,0 260,0 260,-32"/>
<text text-anchor="start" x="156" y="-18.5" font-family="Helvetica,sans-Serif" font-size="10.00">GEU::ModuleManager</text>
<text text-anchor="middle" x="204" y="-6.5" font-family="Helvetica,sans-Serif" font-size="10.00">::addMainModules</text>
</a>
</g>
</g>
<!-- Node3&#45;&gt;Node4 -->
<g id="edge3_Node000003_Node000004" class="edge">
<title>Node3&#45;&gt;Node4</title>
<g id="a_edge3_Node000003_Node000004"><a xlink:title=" ">
<path fill="none" stroke="#63b8ff" d="M284.49,-16C276.38,-16 268.17,-16 260.26,-16"/>
<polygon fill="#63b8ff" stroke="#63b8ff" points="284.34,-19.5 294.34,-16 284.34,-12.5 284.34,-19.5"/>
</a>
</g>
</g>
<!-- Node5 -->
<g id="Node000005" class="node">
<title>Node5</title>
<g id="a_Node000005"><a xlink:href="../../db/d02/class_g_e_u_1_1_module_manager.html#a9b9df20e2ea81acbc88fa8706f1588e2" target="_top" xlink:title=" ">
<polygon fill="white" stroke="#666666" points="112,-32 0,-32 0,0 112,0 112,-32"/>
<text text-anchor="start" x="8" y="-18.5" font-family="Helvetica,sans-Serif" font-size="10.00">GEU::ModuleManager</text>
<text text-anchor="middle" x="56" y="-6.5" font-family="Helvetica,sans-Serif" font-size="10.00">::ModuleManager</text>
</a>
</g>
</g>
<!-- Node4&#45;&gt;Node5 -->
<g id="edge4_Node000004_Node000005" class="edge">
<title>Node4&#45;&gt;Node5</title>
<g id="a_edge4_Node000004_Node000005"><a xlink:title=" ">
<path fill="none" stroke="#63b8ff" d="M136.47,-16C128.38,-16 120.18,-16 112.27,-16"/>
<polygon fill="#63b8ff" stroke="#63b8ff" points="136.29,-19.5 146.29,-16 136.29,-12.5 136.29,-19.5"/>
</a>
</g>
</g>
</g>
</svg>
