<?xml version="1.0" encoding="UTF-8" standalone="no"?>
<!DOCTYPE svg PUBLIC "-//W3C//DTD SVG 1.1//EN"
 "http://www.w3.org/Graphics/SVG/1.1/DTD/svg11.dtd">
<!-- Generated by graphviz version 10.0.1 (20240210.2158)
 -->
<!-- Title: GEU::PickingWindow::endPicking Pages: 1 -->
<svg width="409pt" height="153pt"
 viewBox="0.00 0.00 409.25 153.00" xmlns="http://www.w3.org/2000/svg" xmlns:xlink="http://www.w3.org/1999/xlink">
<g id="graph0" class="graph" transform="scale(1 1) rotate(0) translate(4 149)">
<title>GEU::PickingWindow::endPicking</title>
<!-- Node1 -->
<g id="Node000001" class="node">
<title>Node1</title>
<g id="a_Node000001"><a xlink:title=" ">
<polygon fill="#999999" stroke="#666666" points="109.75,-101 0,-101 0,-69 109.75,-69 109.75,-101"/>
<text text-anchor="start" x="8" y="-87.5" font-family="Helvetica,sans-Serif" font-size="10.00">GEU::PickingWindow</text>
<text text-anchor="middle" x="54.88" y="-75.5" font-family="Helvetica,sans-Serif" font-size="10.00">::endPicking</text>
</a>
</g>
</g>
<!-- Node2 -->
<g id="Node000002" class="node">
<title>Node2</title>
<g id="a_Node000002"><a xlink:href="../../d1/df9/class_g_e_u_1_1_singleton.html#a47c7e7c2110f4cc59c9ff1f5594c366e" target="_top" xlink:title=" ">
<polygon fill="white" stroke="#666666" points="297.5,-145 145.75,-145 145.75,-113 297.5,-113 297.5,-145"/>
<text text-anchor="start" x="153.75" y="-131.5" font-family="Helvetica,sans-Serif" font-size="10.00">GEU::Singleton&lt; LocaleStrings</text>
<text text-anchor="middle" x="221.62" y="-119.5" font-family="Helvetica,sans-Serif" font-size="10.00"> &gt;::getInstance</text>
</a>
</g>
</g>
<!-- Node1&#45;&gt;Node2 -->
<g id="edge1_Node000001_Node000002" class="edge">
<title>Node1&#45;&gt;Node2</title>
<g id="a_edge1_Node000001_Node000002"><a xlink:title=" ">
<path fill="none" stroke="#63b8ff" d="M109.82,-99.41C122.14,-102.7 135.42,-106.24 148.37,-109.7"/>
<polygon fill="#63b8ff" stroke="#63b8ff" points="147.1,-112.99 157.67,-112.19 148.91,-106.22 147.1,-112.99"/>
</a>
</g>
</g>
<!-- Node3 -->
<g id="Node000003" class="node">
<title>Node3</title>
<g id="a_Node000003"><a xlink:href="../../d2/d0c/class_locale_strings.html#a90f2903c439af79e6af28892f8f9c139" target="_top" xlink:title=" ">
<polygon fill="white" stroke="#666666" points="281.75,-95 161.5,-95 161.5,-75 281.75,-75 281.75,-95"/>
<text text-anchor="middle" x="221.62" y="-81.5" font-family="Helvetica,sans-Serif" font-size="10.00">LocaleStrings::getString</text>
</a>
</g>
</g>
<!-- Node1&#45;&gt;Node3 -->
<g id="edge2_Node000001_Node000003" class="edge">
<title>Node1&#45;&gt;Node3</title>
<g id="a_edge2_Node000001_Node000003"><a xlink:title=" ">
<path fill="none" stroke="#63b8ff" d="M109.82,-85C122.65,-85 136.53,-85 149.98,-85"/>
<polygon fill="#63b8ff" stroke="#63b8ff" points="149.64,-88.5 159.64,-85 149.64,-81.5 149.64,-88.5"/>
</a>
</g>
</g>
<!-- Node4 -->
<g id="Node000004" class="node">
<title>Node4</title>
<g id="a_Node000004"><a xlink:href="../../dc/d47/class_a_a_b_b.html#ac7df26fada02a660519ce8829eec1bf2" target="_top" xlink:title=" ">
<polygon fill="white" stroke="#666666" points="260.75,-39 182.5,-39 182.5,-19 260.75,-19 260.75,-39"/>
<text text-anchor="middle" x="221.62" y="-25.5" font-family="Helvetica,sans-Serif" font-size="10.00">AABB::update</text>
</a>
</g>
</g>
<!-- Node1&#45;&gt;Node4 -->
<g id="edge3_Node000001_Node000004" class="edge">
<title>Node1&#45;&gt;Node4</title>
<g id="a_edge3_Node000001_Node000004"><a xlink:title=" ">
<path fill="none" stroke="#63b8ff" d="M104.41,-68.5C128.23,-60.41 156.62,-50.76 179.37,-43.02"/>
<polygon fill="#63b8ff" stroke="#63b8ff" points="180.27,-46.41 188.61,-39.88 178.02,-39.79 180.27,-46.41"/>
</a>
</g>
</g>
<!-- Node4&#45;&gt;Node4 -->
<g id="edge6_Node000004_Node000004" class="edge">
<title>Node4&#45;&gt;Node4</title>
<g id="a_edge6_Node000004_Node000004"><a xlink:title=" ">
<path fill="none" stroke="#63b8ff" d="M198.47,-39.34C188.57,-47.98 196.29,-57 221.62,-57 235.48,-57 244.07,-54.3 247.39,-50.44"/>
<polygon fill="#63b8ff" stroke="#63b8ff" points="250.82,-49.75 245.13,-40.81 244,-51.35 250.82,-49.75"/>
</a>
</g>
</g>
<!-- Node5 -->
<g id="Node000005" class="node">
<title>Node5</title>
<g id="a_Node000005"><a xlink:href="../../dc/d47/class_a_a_b_b.html#aa80c2fc1bbc932572311ba94a8f76530" target="_top" xlink:title=" ">
<polygon fill="white" stroke="#666666" points="401.25,-58 333.5,-58 333.5,-38 401.25,-38 401.25,-58"/>
<text text-anchor="middle" x="367.38" y="-44.5" font-family="Helvetica,sans-Serif" font-size="10.00">AABB::max</text>
</a>
</g>
</g>
<!-- Node4&#45;&gt;Node5 -->
<g id="edge4_Node000004_Node000005" class="edge">
<title>Node4&#45;&gt;Node5</title>
<g id="a_edge4_Node000004_Node000005"><a xlink:title=" ">
<path fill="none" stroke="#63b8ff" d="M261.15,-34.09C279.83,-36.56 302.38,-39.54 321.8,-42.11"/>
<polygon fill="#63b8ff" stroke="#63b8ff" points="321.25,-45.57 331.62,-43.41 322.17,-38.63 321.25,-45.57"/>
</a>
</g>
</g>
<!-- Node6 -->
<g id="Node000006" class="node">
<title>Node6</title>
<g id="a_Node000006"><a xlink:href="../../dc/d47/class_a_a_b_b.html#a29073914f600f7657f4a44937702a471" target="_top" xlink:title=" ">
<polygon fill="white" stroke="#666666" points="399.75,-20 335,-20 335,0 399.75,0 399.75,-20"/>
<text text-anchor="middle" x="367.38" y="-6.5" font-family="Helvetica,sans-Serif" font-size="10.00">AABB::min</text>
</a>
</g>
</g>
<!-- Node4&#45;&gt;Node6 -->
<g id="edge5_Node000004_Node000006" class="edge">
<title>Node4&#45;&gt;Node6</title>
<g id="a_edge5_Node000004_Node000006"><a xlink:title=" ">
<path fill="none" stroke="#63b8ff" d="M261.15,-23.91C280.34,-21.37 303.6,-18.3 323.37,-15.68"/>
<polygon fill="#63b8ff" stroke="#63b8ff" points="323.59,-19.19 333.04,-14.41 322.67,-12.25 323.59,-19.19"/>
</a>
</g>
</g>
</g>
</svg>
