<?xml version="1.0" encoding="UTF-8" standalone="no"?>
<!DOCTYPE svg PUBLIC "-//W3C//DTD SVG 1.1//EN"
 "http://www.w3.org/Graphics/SVG/1.1/DTD/svg11.dtd">
<!-- Generated by graphviz version 10.0.1 (20240210.2158)
 -->
<!-- Title: C:/GitHub/GEU/GEU/Source/Core/InputManager.h Pages: 1 -->
<!--zoomable 256 -->

<svg id="main" version="1.1" xmlns="http://www.w3.org/2000/svg" xmlns:xlink="http://www.w3.org/1999/xlink" xml:space="preserve" onload="init(evt)">
<style type="text/css"><![CDATA[
.node, .edge {opacity: 0.7;}
.node.selected, .edge.selected {opacity: 1;}
.edge:hover path { stroke: red; }
.edge:hover polygon { stroke: red; fill: red; }
]]></style>

<defs>
  <circle id="rim" cx="0" cy="0" r="7"/>
  <circle id="rim2" cx="0" cy="0" r="3.5"/>
  <g id="zoomPlus">
    <use xlink:href="#rim" fill="#404040"><set attributeName="fill" to="#808080" begin="zoomplus.mouseover" end="zoomplus.mouseout"/></use>
    <path d="M-4,0h8M0,-4v8" fill="none" stroke="white" stroke-width="1.5" pointer-events="none"/>
  </g>
  <g id="zoomMin">
    <use xlink:href="#rim" fill="#404040"><set attributeName="fill" to="#808080" begin="zoomminus.mouseover" end="zoomminus.mouseout"/></use>
    <path d="M-4,0h8" fill="none" stroke="white" stroke-width="1.5" pointer-events="none"/>
  </g>
  <g id="arrowUp" transform="translate(30 24)">
    <use xlink:href="#rim"/>
    <path pointer-events="none" fill="none" stroke="white" stroke-width="1.5" d="M0,-3.0v7 M-2.5,-0.5L0,-3.0L2.5,-0.5"/>
  </g>
  <g id="arrowRight" transform="rotate(90) translate(36 -43)">
    <use xlink:href="#rim"/>
    <path pointer-events="none" fill="none" stroke="white" stroke-width="1.5" d="M0,-3.0v7 M-2.5,-0.5L0,-3.0L2.5,-0.5"/>
  </g>
  <g id="arrowDown" transform="rotate(180) translate(-30 -48)">
    <use xlink:href="#rim"/>
    <path pointer-events="none" fill="none" stroke="white" stroke-width="1.5" d="M0,-3.0v7 M-2.5,-0.5L0,-3.0L2.5,-0.5"/>
  </g>
  <g id="arrowLeft" transform="rotate(270) translate(-36 17)">
    <use xlink:href="#rim"/>
    <path pointer-events="none" fill="none" stroke="white" stroke-width="1.5" d="M0,-3.0v7 M-2.5,-0.5L0,-3.0L2.5,-0.5"/>
  </g>
  <g id="resetDef">
    <use xlink:href="#rim2" fill="#404040"><set attributeName="fill" to="#808080" begin="reset.mouseover" end="reset.mouseout"/></use>
  </g>
</defs>
<script type="application/ecmascript">
var viewWidth = 2690;
var viewHeight = 256;
var sectionId = 'dynsection-1';
</script>
<script type="application/ecmascript" xlink:href="../../svg.min.js"/>
<svg id="graph" class="graph">
<g id="viewport">
<title>C:/GitHub/GEU/GEU/Source/Core/InputManager.h</title>
<!-- Node1 -->
<g id="Node000001" class="node">
<title>Node1</title>
<g id="a_Node000001"><a xlink:title=" ">
<polygon fill="#999999" stroke="#666666" points="1424.79,-248 1284.29,-248 1284.29,-216 1424.79,-216 1424.79,-248"/>
<text text-anchor="start" x="1292.29" y="-234.5" font-family="Helvetica,sans-Serif" font-size="10.00">C:/GitHub/GEU/GEU/Source</text>
<text text-anchor="middle" x="1354.54" y="-222.5" font-family="Helvetica,sans-Serif" font-size="10.00">/Core/InputManager.h</text>
</a>
</g>
</g>
<!-- Node2 -->
<g id="Node000002" class="node">
<title>Node2</title>
<g id="a_Node000002"><a xlink:href="../../d3/dee/_input_manager_8cpp.html" target="_top" xlink:title=" ">
<polygon fill="white" stroke="#666666" points="160.79,-106 20.29,-106 20.29,-74 160.79,-74 160.79,-106"/>
<text text-anchor="start" x="28.29" y="-92.5" font-family="Helvetica,sans-Serif" font-size="10.00">C:/GitHub/GEU/GEU/Source</text>
<text text-anchor="middle" x="90.54" y="-80.5" font-family="Helvetica,sans-Serif" font-size="10.00">/Core/InputManager.cpp</text>
</a>
</g>
</g>
<!-- Node1&#45;&gt;Node2 -->
<g id="edge1_Node000001_Node000002" class="edge">
<title>Node1&#45;&gt;Node2</title>
<g id="a_edge1_Node000001_Node000002"><a xlink:title=" ">
<path fill="none" stroke="#63b8ff" d="M1272.45,-228.92C1126.39,-224.52 811.96,-211.92 548.54,-180 379.08,-159.47 337.22,-148.81 170.54,-112 162.97,-110.33 155.03,-108.43 147.22,-106.47"/>
<polygon fill="#63b8ff" stroke="#63b8ff" points="1272.33,-232.41 1282.43,-229.21 1272.54,-225.42 1272.33,-232.41"/>
</a>
</g>
</g>
<!-- Node3 -->
<g id="Node000003" class="node">
<title>Node3</title>
<g id="a_Node000003"><a xlink:href="../../da/d84/_renderer_8cpp.html" target="_top" xlink:title=" ">
<polygon fill="white" stroke="#666666" points="319.79,-106 179.29,-106 179.29,-74 319.79,-74 319.79,-106"/>
<text text-anchor="start" x="187.29" y="-92.5" font-family="Helvetica,sans-Serif" font-size="10.00">C:/GitHub/GEU/GEU/Source</text>
<text text-anchor="middle" x="249.54" y="-80.5" font-family="Helvetica,sans-Serif" font-size="10.00">/Core/Renderer.cpp</text>
</a>
</g>
</g>
<!-- Node1&#45;&gt;Node3 -->
<g id="edge2_Node000001_Node000003" class="edge">
<title>Node1&#45;&gt;Node3</title>
<g id="a_edge2_Node000001_Node000003"><a xlink:title=" ">
<path fill="none" stroke="#63b8ff" d="M1272.41,-225.42C1097.74,-212.69 676.92,-177.42 329.54,-112 321.36,-110.46 312.77,-108.54 304.39,-106.49"/>
<polygon fill="#63b8ff" stroke="#63b8ff" points="1272.07,-228.9 1282.3,-226.14 1272.58,-221.92 1272.07,-228.9"/>
</a>
</g>
</g>
<!-- Node4 -->
<g id="Node000004" class="node">
<title>Node4</title>
<g id="a_Node000004"><a xlink:href="../../d3/da0/_renderer_8h.html" target="_top" xlink:title=" ">
<polygon fill="white" stroke="#666666" points="1424.79,-180 1284.29,-180 1284.29,-148 1424.79,-148 1424.79,-180"/>
<text text-anchor="start" x="1292.29" y="-166.5" font-family="Helvetica,sans-Serif" font-size="10.00">C:/GitHub/GEU/GEU/Source</text>
<text text-anchor="middle" x="1354.54" y="-154.5" font-family="Helvetica,sans-Serif" font-size="10.00">/Core/Renderer.h</text>
</a>
</g>
</g>
<!-- Node1&#45;&gt;Node4 -->
<g id="edge3_Node000001_Node000004" class="edge">
<title>Node1&#45;&gt;Node4</title>
<g id="a_edge3_Node000001_Node000004"><a xlink:title=" ">
<path fill="none" stroke="#63b8ff" d="M1354.54,-204.31C1354.54,-196.12 1354.54,-187.38 1354.54,-180.22"/>
<polygon fill="#63b8ff" stroke="#63b8ff" points="1351.04,-204.18 1354.54,-214.18 1358.04,-204.18 1351.04,-204.18"/>
</a>
</g>
</g>
<!-- Node7 -->
<g id="Node000007" class="node">
<title>Node7</title>
<g id="a_Node000007"><a xlink:href="../../d3/db8/_window_8cpp.html" target="_top" xlink:title=" ">
<polygon fill="white" stroke="#666666" points="334.79,-32 194.29,-32 194.29,0 334.79,0 334.79,-32"/>
<text text-anchor="start" x="202.29" y="-18.5" font-family="Helvetica,sans-Serif" font-size="10.00">C:/GitHub/GEU/GEU/Source</text>
<text text-anchor="middle" x="264.54" y="-6.5" font-family="Helvetica,sans-Serif" font-size="10.00">/Core/Window.cpp</text>
</a>
</g>
</g>
<!-- Node1&#45;&gt;Node7 -->
<g id="edge27_Node000001_Node000007" class="edge">
<title>Node1&#45;&gt;Node7</title>
<g id="a_edge27_Node000001_Node000007"><a xlink:title=" ">
<path fill="none" stroke="#63b8ff" d="M1272.76,-230.38C993.63,-227.4 91.29,-210.16 11.54,-112 -41.19,-47.09 102.17,-26.51 194.11,-20"/>
<polygon fill="#63b8ff" stroke="#63b8ff" points="1272.46,-233.88 1282.49,-230.48 1272.53,-226.88 1272.46,-233.88"/>
</a>
</g>
</g>
<!-- Node17 -->
<g id="Node000017" class="node">
<title>Node17</title>
<g id="a_Node000017"><a xlink:href="../../d3/d27/_g_u_i_8cpp.html" target="_top" xlink:title=" ">
<polygon fill="white" stroke="#666666" points="2363.79,-32 2223.29,-32 2223.29,0 2363.79,0 2363.79,-32"/>
<text text-anchor="start" x="2231.29" y="-18.5" font-family="Helvetica,sans-Serif" font-size="10.00">C:/GitHub/GEU/GEU/Source</text>
<text text-anchor="middle" x="2293.54" y="-6.5" font-family="Helvetica,sans-Serif" font-size="10.00">/UI/GUI.cpp</text>
</a>
</g>
</g>
<!-- Node1&#45;&gt;Node17 -->
<g id="edge28_Node000001_Node000017" class="edge">
<title>Node1&#45;&gt;Node17</title>
<g id="a_edge28_Node000001_Node000017"><a xlink:title=" ">
<path fill="none" stroke="#63b8ff" d="M1436.41,-227.18C1661.36,-215.86 2276.17,-179.01 2335.54,-112 2356.47,-88.38 2329.16,-52.66 2309.78,-32.42"/>
<polygon fill="#63b8ff" stroke="#63b8ff" points="1436.36,-223.68 1426.54,-227.67 1436.71,-230.67 1436.36,-223.68"/>
</a>
</g>
</g>
<!-- Node20 -->
<g id="Node000020" class="node">
<title>Node20</title>
<g id="a_Node000020"><a xlink:href="../../dc/d71/_picking_window_8cpp.html" target="_top" xlink:title=" ">
<polygon fill="white" stroke="#666666" points="2681.79,-106 2541.29,-106 2541.29,-74 2681.79,-74 2681.79,-106"/>
<text text-anchor="start" x="2549.29" y="-92.5" font-family="Helvetica,sans-Serif" font-size="10.00">C:/GitHub/GEU/GEU/Source</text>
<text text-anchor="middle" x="2611.54" y="-80.5" font-family="Helvetica,sans-Serif" font-size="10.00">/UI/PickingWindow.cpp</text>
</a>
</g>
</g>
<!-- Node1&#45;&gt;Node20 -->
<g id="edge29_Node000001_Node000020" class="edge">
<title>Node1&#45;&gt;Node20</title>
<g id="a_edge29_Node000001_Node000020"><a xlink:title=" ">
<path fill="none" stroke="#63b8ff" d="M1436.59,-229.61C1662.38,-225.39 2281.98,-211.11 2368.54,-180 2390.96,-171.94 2390.18,-158.55 2411.54,-148 2424.45,-141.63 2498.91,-121.07 2553.21,-106.47"/>
<polygon fill="#63b8ff" stroke="#63b8ff" points="1436.62,-226.11 1426.68,-229.79 1436.75,-233.11 1436.62,-226.11"/>
</a>
</g>
</g>
<!-- Node24 -->
<g id="Node000024" class="node">
<title>Node24</title>
<g id="a_Node000024"><a xlink:href="../../dd/d8d/_settings_window_8cpp.html" target="_top" xlink:title=" ">
<polygon fill="white" stroke="#666666" points="2560.79,-180 2420.29,-180 2420.29,-148 2560.79,-148 2560.79,-180"/>
<text text-anchor="start" x="2428.29" y="-166.5" font-family="Helvetica,sans-Serif" font-size="10.00">C:/GitHub/GEU/GEU/Source</text>
<text text-anchor="middle" x="2490.54" y="-154.5" font-family="Helvetica,sans-Serif" font-size="10.00">/UI/SettingsWindow.cpp</text>
</a>
</g>
</g>
<!-- Node1&#45;&gt;Node24 -->
<g id="edge30_Node000001_Node000024" class="edge">
<title>Node1&#45;&gt;Node24</title>
<g id="a_edge30_Node000001_Node000024"><a xlink:title=" ">
<path fill="none" stroke="#63b8ff" d="M1436.6,-230.6C1614.09,-228.94 2046.73,-220.68 2406.54,-180 2410.96,-179.5 2415.49,-178.91 2420.06,-178.26"/>
<polygon fill="#63b8ff" stroke="#63b8ff" points="1436.76,-227.09 1426.79,-230.68 1436.82,-234.09 1436.76,-227.09"/>
</a>
</g>
</g>
<!-- Node4&#45;&gt;Node2 -->
<g id="edge4_Node000004_Node000002" class="edge">
<title>Node4&#45;&gt;Node2</title>
<g id="a_edge4_Node000004_Node000002"><a xlink:title=" ">
<path fill="none" stroke="#63b8ff" d="M1272.51,-161.75C1040.67,-157.84 383.61,-144.18 170.54,-112 161.45,-110.63 151.91,-108.63 142.71,-106.4"/>
<polygon fill="#63b8ff" stroke="#63b8ff" points="1272.32,-165.24 1282.37,-161.91 1272.43,-158.24 1272.32,-165.24"/>
</a>
</g>
</g>
<!-- Node4&#45;&gt;Node3 -->
<g id="edge6_Node000004_Node000003" class="edge">
<title>Node4&#45;&gt;Node3</title>
<g id="a_edge6_Node000004_Node000003"><a xlink:title=" ">
<path fill="none" stroke="#63b8ff" d="M1272.77,-161.12C1063.23,-155.94 510.76,-139.98 329.54,-112 320.6,-110.62 311.21,-108.65 302.15,-106.46"/>
<polygon fill="#63b8ff" stroke="#63b8ff" points="1272.39,-164.61 1282.47,-161.35 1272.56,-157.61 1272.39,-164.61"/>
</a>
</g>
</g>
<!-- Node5 -->
<g id="Node000005" class="node">
<title>Node5</title>
<g id="a_Node000005"><a xlink:href="../../d0/d00/_point_cloud_8cpp.html" target="_top" xlink:title=" ">
<polygon fill="white" stroke="#666666" points="1273.79,-106 1133.29,-106 1133.29,-74 1273.79,-74 1273.79,-106"/>
<text text-anchor="start" x="1141.29" y="-92.5" font-family="Helvetica,sans-Serif" font-size="10.00">C:/GitHub/GEU/GEU/Source</text>
<text text-anchor="middle" x="1203.54" y="-80.5" font-family="Helvetica,sans-Serif" font-size="10.00">/Core/PointCloud.cpp</text>
</a>
</g>
</g>
<!-- Node4&#45;&gt;Node5 -->
<g id="edge5_Node000004_Node000005" class="edge">
<title>Node4&#45;&gt;Node5</title>
<g id="a_edge5_Node000004_Node000005"><a xlink:title=" ">
<path fill="none" stroke="#63b8ff" d="M1311.85,-142.64C1287.73,-131.14 1258.06,-117 1235.88,-106.42"/>
<polygon fill="#63b8ff" stroke="#63b8ff" points="1310.25,-145.76 1320.78,-146.9 1313.26,-139.44 1310.25,-145.76"/>
</a>
</g>
</g>
<!-- Node6 -->
<g id="Node000006" class="node">
<title>Node6</title>
<g id="a_Node000006"><a xlink:href="../../de/d42/_window_8h.html" target="_top" xlink:title=" ">
<polygon fill="white" stroke="#666666" points="478.79,-106 338.29,-106 338.29,-74 478.79,-74 478.79,-106"/>
<text text-anchor="start" x="346.29" y="-92.5" font-family="Helvetica,sans-Serif" font-size="10.00">C:/GitHub/GEU/GEU/Source</text>
<text text-anchor="middle" x="408.54" y="-80.5" font-family="Helvetica,sans-Serif" font-size="10.00">/Core/Window.h</text>
</a>
</g>
</g>
<!-- Node4&#45;&gt;Node6 -->
<g id="edge7_Node000004_Node000006" class="edge">
<title>Node4&#45;&gt;Node6</title>
<g id="a_edge7_Node000004_Node000006"><a xlink:title=" ">
<path fill="none" stroke="#63b8ff" d="M1272.64,-163.55C1118.26,-163.4 774.04,-157.42 488.54,-112 479.75,-110.6 470.52,-108.65 461.59,-106.49"/>
<polygon fill="#63b8ff" stroke="#63b8ff" points="1272.36,-167.05 1282.36,-163.55 1272.36,-160.05 1272.36,-167.05"/>
</a>
</g>
</g>
<!-- Node8 -->
<g id="Node000008" class="node">
<title>Node8</title>
<g id="a_Node000008"><a xlink:href="../../df/d0a/main_8cpp.html" target="_top" xlink:title=" ">
<polygon fill="white" stroke="#666666" points="621.79,-32 481.29,-32 481.29,0 621.79,0 621.79,-32"/>
<text text-anchor="start" x="489.29" y="-18.5" font-family="Helvetica,sans-Serif" font-size="10.00">C:/GitHub/GEU/GEU/Source</text>
<text text-anchor="middle" x="551.54" y="-6.5" font-family="Helvetica,sans-Serif" font-size="10.00">/main.cpp</text>
</a>
</g>
</g>
<!-- Node4&#45;&gt;Node8 -->
<g id="edge26_Node000004_Node000008" class="edge">
<title>Node4&#45;&gt;Node8</title>
<g id="a_edge26_Node000004_Node000008"><a xlink:title=" ">
<path fill="none" stroke="#63b8ff" d="M1337.69,-138.66C1318.92,-111.91 1290.2,-72.14 1282.54,-68 1225.41,-37.09 794.11,-23.04 622.07,-18.62"/>
<polygon fill="#63b8ff" stroke="#63b8ff" points="1334.63,-140.4 1343.23,-146.6 1340.37,-136.4 1334.63,-140.4"/>
</a>
</g>
</g>
<!-- Node9 -->
<g id="Node000009" class="node">
<title>Node9</title>
<g id="a_Node000009"><a xlink:href="../../d7/d4d/_normales_g_u_i_adapter_8cpp.html" target="_top" xlink:title=" ">
<polygon fill="white" stroke="#666666" points="1487.04,-112 1330.04,-112 1330.04,-68 1487.04,-68 1487.04,-112"/>
<text text-anchor="start" x="1338.04" y="-98.5" font-family="Helvetica,sans-Serif" font-size="10.00">C:/GitHub/GEU/GEU/Source</text>
<text text-anchor="start" x="1338.04" y="-86.5" font-family="Helvetica,sans-Serif" font-size="10.00">/Modules/ComparacionNormales</text>
<text text-anchor="middle" x="1408.54" y="-74.5" font-family="Helvetica,sans-Serif" font-size="10.00">/NormalesGUIAdapter.cpp</text>
</a>
</g>
</g>
<!-- Node4&#45;&gt;Node9 -->
<g id="edge10_Node000004_Node000009" class="edge">
<title>Node4&#45;&gt;Node9</title>
<g id="a_edge10_Node000004_Node000009"><a xlink:title=" ">
<path fill="none" stroke="#63b8ff" d="M1372.83,-138.61C1379.25,-130.06 1386.39,-120.53 1392.6,-112.26"/>
<polygon fill="#63b8ff" stroke="#63b8ff" points="1370.1,-136.42 1366.9,-146.52 1375.7,-140.62 1370.1,-136.42"/>
</a>
</g>
</g>
<!-- Node10 -->
<g id="Node000010" class="node">
<title>Node10</title>
<g id="a_Node000010"><a xlink:href="../../d8/dd0/_multiespectral_g_u_i_adapter_8cpp.html" target="_top" xlink:title=" ">
<polygon fill="white" stroke="#666666" points="1653.92,-112 1505.17,-112 1505.17,-68 1653.92,-68 1653.92,-112"/>
<text text-anchor="start" x="1513.17" y="-98.5" font-family="Helvetica,sans-Serif" font-size="10.00">C:/GitHub/GEU/GEU/Source</text>
<text text-anchor="start" x="1513.17" y="-86.5" font-family="Helvetica,sans-Serif" font-size="10.00">/Modules/Multiespectral</text>
<text text-anchor="middle" x="1579.54" y="-74.5" font-family="Helvetica,sans-Serif" font-size="10.00">/MultiespectralGUIAdapter.cpp</text>
</a>
</g>
</g>
<!-- Node4&#45;&gt;Node10 -->
<g id="edge11_Node000004_Node000010" class="edge">
<title>Node4&#45;&gt;Node10</title>
<g id="a_edge11_Node000004_Node000010"><a xlink:title=" ">
<path fill="none" stroke="#63b8ff" d="M1413.67,-144.08C1444.04,-134.36 1481.16,-122.48 1512.58,-112.43"/>
<polygon fill="#63b8ff" stroke="#63b8ff" points="1412.71,-140.71 1404.25,-147.09 1414.84,-147.38 1412.71,-140.71"/>
</a>
</g>
</g>
<!-- Node11 -->
<g id="Node000011" class="node">
<title>Node11</title>
<g id="a_Node000011"><a xlink:href="../../d2/dd0/_image_cloud_proj_8cpp.html" target="_top" xlink:title=" ">
<polygon fill="white" stroke="#666666" points="1849.79,-112 1709.29,-112 1709.29,-68 1849.79,-68 1849.79,-112"/>
<text text-anchor="start" x="1717.29" y="-98.5" font-family="Helvetica,sans-Serif" font-size="10.00">C:/GitHub/GEU/GEU/Source</text>
<text text-anchor="start" x="1717.29" y="-86.5" font-family="Helvetica,sans-Serif" font-size="10.00">/Modules/Reconstruccion</text>
<text text-anchor="middle" x="1779.54" y="-74.5" font-family="Helvetica,sans-Serif" font-size="10.00">/ImageCloudProj.cpp</text>
</a>
</g>
</g>
<!-- Node4&#45;&gt;Node11 -->
<g id="edge12_Node000004_Node000011" class="edge">
<title>Node4&#45;&gt;Node11</title>
<g id="a_edge12_Node000004_Node000011"><a xlink:title=" ">
<path fill="none" stroke="#63b8ff" d="M1436.36,-153.02C1505.67,-144.02 1607.54,-129.54 1695.54,-112 1699.96,-111.12 1704.5,-110.16 1709.07,-109.14"/>
<polygon fill="#63b8ff" stroke="#63b8ff" points="1436.06,-149.53 1426.59,-154.28 1436.96,-156.47 1436.06,-149.53"/>
</a>
</g>
</g>
<!-- Node12 -->
<g id="Node000012" class="node">
<title>Node12</title>
<g id="a_Node000012"><a xlink:href="../../d5/d7a/_procedural_generator_8cpp.html" target="_top" xlink:title=" ">
<polygon fill="white" stroke="#666666" points="2008.79,-112 1868.29,-112 1868.29,-68 2008.79,-68 2008.79,-112"/>
<text text-anchor="start" x="1876.29" y="-98.5" font-family="Helvetica,sans-Serif" font-size="10.00">C:/GitHub/GEU/GEU/Source</text>
<text text-anchor="start" x="1876.29" y="-86.5" font-family="Helvetica,sans-Serif" font-size="10.00">/Modules/Reconstruccion</text>
<text text-anchor="middle" x="1938.54" y="-74.5" font-family="Helvetica,sans-Serif" font-size="10.00">/ProceduralGenerator.cpp</text>
</a>
</g>
</g>
<!-- Node4&#45;&gt;Node12 -->
<g id="edge13_Node000004_Node000012" class="edge">
<title>Node4&#45;&gt;Node12</title>
<g id="a_edge13_Node000004_Node000012"><a xlink:title=" ">
<path fill="none" stroke="#63b8ff" d="M1436.39,-158.65C1536.55,-152.42 1711.04,-138.65 1858.54,-112 1861.65,-111.44 1864.81,-110.82 1868,-110.15"/>
<polygon fill="#63b8ff" stroke="#63b8ff" points="1436.42,-155.14 1426.65,-159.24 1436.85,-162.13 1436.42,-155.14"/>
</a>
</g>
</g>
<!-- Node13 -->
<g id="Node000013" class="node">
<title>Node13</title>
<g id="a_Node000013"><a xlink:href="../../d3/d58/_camera_axis_window_8cpp.html" target="_top" xlink:title=" ">
<polygon fill="white" stroke="#666666" points="2167.79,-106 2027.29,-106 2027.29,-74 2167.79,-74 2167.79,-106"/>
<text text-anchor="start" x="2035.29" y="-92.5" font-family="Helvetica,sans-Serif" font-size="10.00">C:/GitHub/GEU/GEU/Source</text>
<text text-anchor="middle" x="2097.54" y="-80.5" font-family="Helvetica,sans-Serif" font-size="10.00">/UI/CameraAxisWindow.cpp</text>
</a>
</g>
</g>
<!-- Node4&#45;&gt;Node13 -->
<g id="edge14_Node000004_Node000013" class="edge">
<title>Node4&#45;&gt;Node13</title>
<g id="a_edge14_Node000004_Node000013"><a xlink:title=" ">
<path fill="none" stroke="#63b8ff" d="M1436.63,-161.42C1562.47,-157.95 1810.27,-146.88 2017.54,-112 2026.18,-110.55 2035.24,-108.59 2044.04,-106.46"/>
<polygon fill="#63b8ff" stroke="#63b8ff" points="1436.63,-157.92 1426.72,-161.69 1436.81,-164.92 1436.63,-157.92"/>
</a>
</g>
</g>
<!-- Node14 -->
<g id="Node000014" class="node">
<title>Node14</title>
<g id="a_Node000014"><a xlink:href="../../d0/d1c/_debug_window_8cpp.html" target="_top" xlink:title=" ">
<polygon fill="white" stroke="#666666" points="2326.79,-106 2186.29,-106 2186.29,-74 2326.79,-74 2326.79,-106"/>
<text text-anchor="start" x="2194.29" y="-92.5" font-family="Helvetica,sans-Serif" font-size="10.00">C:/GitHub/GEU/GEU/Source</text>
<text text-anchor="middle" x="2256.54" y="-80.5" font-family="Helvetica,sans-Serif" font-size="10.00">/UI/DebugWindow.cpp</text>
</a>
</g>
</g>
<!-- Node4&#45;&gt;Node14 -->
<g id="edge15_Node000004_Node000014" class="edge">
<title>Node4&#45;&gt;Node14</title>
<g id="a_edge15_Node000004_Node000014"><a xlink:title=" ">
<path fill="none" stroke="#63b8ff" d="M1436.39,-163.18C1584.86,-162.33 1908.07,-155.14 2176.54,-112 2185.33,-110.59 2194.56,-108.63 2203.49,-106.47"/>
<polygon fill="#63b8ff" stroke="#63b8ff" points="1436.64,-159.67 1426.66,-163.22 1436.68,-166.67 1436.64,-159.67"/>
</a>
</g>
</g>
<!-- Node15 -->
<g id="Node000015" class="node">
<title>Node15</title>
<g id="a_Node000015"><a xlink:href="../../d1/dfc/_details_window_8h.html" target="_top" xlink:title=" ">
<polygon fill="white" stroke="#666666" points="2522.79,-106 2382.29,-106 2382.29,-74 2522.79,-74 2522.79,-106"/>
<text text-anchor="start" x="2390.29" y="-92.5" font-family="Helvetica,sans-Serif" font-size="10.00">C:/GitHub/GEU/GEU/Source</text>
<text text-anchor="middle" x="2452.54" y="-80.5" font-family="Helvetica,sans-Serif" font-size="10.00">/UI/DetailsWindow.h</text>
</a>
</g>
</g>
<!-- Node4&#45;&gt;Node15 -->
<g id="edge16_Node000004_Node000015" class="edge">
<title>Node4&#45;&gt;Node15</title>
<g id="a_edge16_Node000004_Node000015"><a xlink:title=" ">
<path fill="none" stroke="#63b8ff" d="M1436.55,-162.21C1605.35,-159.83 2003.69,-150.25 2335.54,-112 2350.61,-110.26 2366.67,-107.79 2381.91,-105.15"/>
<polygon fill="#63b8ff" stroke="#63b8ff" points="1436.74,-158.71 1426.79,-162.34 1436.84,-165.71 1436.74,-158.71"/>
</a>
</g>
</g>
<!-- Node4&#45;&gt;Node17 -->
<g id="edge20_Node000004_Node000017" class="edge">
<title>Node4&#45;&gt;Node17</title>
<g id="a_edge20_Node000004_Node000017"><a xlink:title=" ">
<path fill="none" stroke="#63b8ff" d="M1436.21,-155.8C1514.02,-147.81 1624.75,-133.2 1662.54,-112 1685.08,-99.36 1677.53,-79.75 1700.54,-68 1790.04,-22.3 2085.85,-16.6 2222.81,-16.5"/>
<polygon fill="#63b8ff" stroke="#63b8ff" points="1436.08,-152.29 1426.48,-156.77 1436.78,-159.26 1436.08,-152.29"/>
</a>
</g>
</g>
<!-- Node19 -->
<g id="Node000019" class="node">
<title>Node19</title>
<g id="a_Node000019"><a xlink:href="../../df/da0/_inspector_window_8cpp.html" target="_top" xlink:title=" ">
<polygon fill="white" stroke="#666666" points="637.79,-106 497.29,-106 497.29,-74 637.79,-74 637.79,-106"/>
<text text-anchor="start" x="505.29" y="-92.5" font-family="Helvetica,sans-Serif" font-size="10.00">C:/GitHub/GEU/GEU/Source</text>
<text text-anchor="middle" x="567.54" y="-80.5" font-family="Helvetica,sans-Serif" font-size="10.00">/UI/InspectorWindow.cpp</text>
</a>
</g>
</g>
<!-- Node4&#45;&gt;Node19 -->
<g id="edge21_Node000004_Node000019" class="edge">
<title>Node4&#45;&gt;Node19</title>
<g id="a_edge21_Node000004_Node000019"><a xlink:title=" ">
<path fill="none" stroke="#63b8ff" d="M1272.83,-161.99C1140.58,-159.27 871.82,-149.2 647.54,-112 638.9,-110.57 629.83,-108.62 621.04,-106.5"/>
<polygon fill="#63b8ff" stroke="#63b8ff" points="1272.46,-165.49 1282.53,-162.18 1272.6,-158.49 1272.46,-165.49"/>
</a>
</g>
</g>
<!-- Node4&#45;&gt;Node20 -->
<g id="edge22_Node000004_Node000020" class="edge">
<title>Node4&#45;&gt;Node20</title>
<g id="a_edge22_Node000004_Node000020"><a xlink:title=" ">
<path fill="none" stroke="#63b8ff" d="M1436.49,-161.72C1667.32,-157.77 2319.86,-143.99 2531.54,-112 2540.63,-110.63 2550.17,-108.63 2559.37,-106.4"/>
<polygon fill="#63b8ff" stroke="#63b8ff" points="1436.62,-158.22 1426.68,-161.89 1436.74,-165.22 1436.62,-158.22"/>
</a>
</g>
</g>
<!-- Node21 -->
<g id="Node000021" class="node">
<title>Node21</title>
<g id="a_Node000021"><a xlink:href="../../d5/dbd/_stats_window_8cpp.html" target="_top" xlink:title=" ">
<polygon fill="white" stroke="#666666" points="796.79,-106 656.29,-106 656.29,-74 796.79,-74 796.79,-106"/>
<text text-anchor="start" x="664.29" y="-92.5" font-family="Helvetica,sans-Serif" font-size="10.00">C:/GitHub/GEU/GEU/Source</text>
<text text-anchor="middle" x="726.54" y="-80.5" font-family="Helvetica,sans-Serif" font-size="10.00">/UI/StatsWindow.cpp</text>
</a>
</g>
</g>
<!-- Node4&#45;&gt;Node21 -->
<g id="edge23_Node000004_Node000021" class="edge">
<title>Node4&#45;&gt;Node21</title>
<g id="a_edge23_Node000004_Node000021"><a xlink:title=" ">
<path fill="none" stroke="#63b8ff" d="M1272.57,-159.57C1164.93,-154.1 970.41,-140.93 806.54,-112 798.06,-110.5 789.15,-108.55 780.5,-106.45"/>
<polygon fill="#63b8ff" stroke="#63b8ff" points="1272.31,-163.06 1282.47,-160.06 1272.65,-156.07 1272.31,-163.06"/>
</a>
</g>
</g>
<!-- Node22 -->
<g id="Node000022" class="node">
<title>Node22</title>
<g id="a_Node000022"><a xlink:href="../../d5/d1f/_auto_updater_8cpp.html" target="_top" xlink:title=" ">
<polygon fill="white" stroke="#666666" points="955.79,-106 815.29,-106 815.29,-74 955.79,-74 955.79,-106"/>
<text text-anchor="start" x="823.29" y="-92.5" font-family="Helvetica,sans-Serif" font-size="10.00">C:/GitHub/GEU/GEU/Source</text>
<text text-anchor="middle" x="885.54" y="-80.5" font-family="Helvetica,sans-Serif" font-size="10.00">/Utilities/AutoUpdater.cpp</text>
</a>
</g>
</g>
<!-- Node4&#45;&gt;Node22 -->
<g id="edge24_Node000004_Node000022" class="edge">
<title>Node4&#45;&gt;Node22</title>
<g id="a_edge24_Node000004_Node000022"><a xlink:title=" ">
<path fill="none" stroke="#63b8ff" d="M1272.49,-155.29C1193.43,-147.14 1070.66,-132.6 965.54,-112 957.51,-110.43 949.09,-108.51 940.85,-106.49"/>
<polygon fill="#63b8ff" stroke="#63b8ff" points="1272.02,-158.76 1282.33,-156.29 1272.73,-151.79 1272.02,-158.76"/>
</a>
</g>
</g>
<!-- Node23 -->
<g id="Node000023" class="node">
<title>Node23</title>
<g id="a_Node000023"><a xlink:href="../../d3/d93/_file_manager_8cpp.html" target="_top" xlink:title=" ">
<polygon fill="white" stroke="#666666" points="1114.79,-106 974.29,-106 974.29,-74 1114.79,-74 1114.79,-106"/>
<text text-anchor="start" x="982.29" y="-92.5" font-family="Helvetica,sans-Serif" font-size="10.00">C:/GitHub/GEU/GEU/Source</text>
<text text-anchor="middle" x="1044.54" y="-80.5" font-family="Helvetica,sans-Serif" font-size="10.00">/Utilities/FileManager.cpp</text>
</a>
</g>
</g>
<!-- Node4&#45;&gt;Node23 -->
<g id="edge25_Node000004_Node000023" class="edge">
<title>Node4&#45;&gt;Node23</title>
<g id="a_edge25_Node000004_Node000023"><a xlink:title=" ">
<path fill="none" stroke="#63b8ff" d="M1272.69,-145.65C1228.68,-136.12 1173.54,-123.86 1124.54,-112 1117.28,-110.24 1109.67,-108.33 1102.15,-106.41"/>
<polygon fill="#63b8ff" stroke="#63b8ff" points="1271.92,-149.07 1282.43,-147.76 1273.4,-142.22 1271.92,-149.07"/>
</a>
</g>
</g>
<!-- Node6&#45;&gt;Node7 -->
<g id="edge8_Node000006_Node000007" class="edge">
<title>Node6&#45;&gt;Node7</title>
<g id="a_edge8_Node000006_Node000007"><a xlink:title=" ">
<path fill="none" stroke="#63b8ff" d="M367.52,-68.49C344.57,-57.01 316.44,-42.95 295.38,-32.42"/>
<polygon fill="#63b8ff" stroke="#63b8ff" points="365.79,-71.54 376.3,-72.88 368.92,-65.27 365.79,-71.54"/>
</a>
</g>
</g>
<!-- Node6&#45;&gt;Node8 -->
<g id="edge9_Node000006_Node000008" class="edge">
<title>Node6&#45;&gt;Node8</title>
<g id="a_edge9_Node000006_Node000008"><a xlink:title=" ">
<path fill="none" stroke="#63b8ff" d="M449.28,-68.49C472.07,-57.01 500,-42.95 520.91,-32.42"/>
<polygon fill="#63b8ff" stroke="#63b8ff" points="447.93,-65.25 440.57,-72.87 451.08,-71.5 447.93,-65.25"/>
</a>
</g>
</g>
<!-- Node16 -->
<g id="Node000016" class="node">
<title>Node16</title>
<g id="a_Node000016"><a xlink:href="../../df/d72/_details_window_8cpp.html" target="_top" xlink:title=" ">
<polygon fill="white" stroke="#666666" points="2681.79,-32 2541.29,-32 2541.29,0 2681.79,0 2681.79,-32"/>
<text text-anchor="start" x="2549.29" y="-18.5" font-family="Helvetica,sans-Serif" font-size="10.00">C:/GitHub/GEU/GEU/Source</text>
<text text-anchor="middle" x="2611.54" y="-6.5" font-family="Helvetica,sans-Serif" font-size="10.00">/UI/DetailsWindow.cpp</text>
</a>
</g>
</g>
<!-- Node15&#45;&gt;Node16 -->
<g id="edge17_Node000015_Node000016" class="edge">
<title>Node15&#45;&gt;Node16</title>
<g id="a_edge17_Node000015_Node000016"><a xlink:title=" ">
<path fill="none" stroke="#63b8ff" d="M2496.82,-68.95C2522.33,-57.4 2553.92,-43.09 2577.49,-32.42"/>
<polygon fill="#63b8ff" stroke="#63b8ff" points="2495.69,-65.62 2488.03,-72.93 2498.58,-71.99 2495.69,-65.62"/>
</a>
</g>
</g>
<!-- Node15&#45;&gt;Node17 -->
<g id="edge18_Node000015_Node000017" class="edge">
<title>Node15&#45;&gt;Node17</title>
<g id="a_edge18_Node000015_Node000017"><a xlink:title=" ">
<path fill="none" stroke="#63b8ff" d="M2408.27,-68.95C2382.75,-57.4 2351.16,-43.09 2327.59,-32.42"/>
<polygon fill="#63b8ff" stroke="#63b8ff" points="2406.5,-71.99 2417.05,-72.93 2409.39,-65.62 2406.5,-71.99"/>
</a>
</g>
</g>
<!-- Node18 -->
<g id="Node000018" class="node">
<title>Node18</title>
<g id="a_Node000018"><a xlink:href="../../de/d32/_materials_window_8cpp.html" target="_top" xlink:title=" ">
<polygon fill="white" stroke="#666666" points="2522.79,-32 2382.29,-32 2382.29,0 2522.79,0 2522.79,-32"/>
<text text-anchor="start" x="2390.29" y="-18.5" font-family="Helvetica,sans-Serif" font-size="10.00">C:/GitHub/GEU/GEU/Source</text>
<text text-anchor="middle" x="2452.54" y="-6.5" font-family="Helvetica,sans-Serif" font-size="10.00">/UI/MaterialsWindow.cpp</text>
</a>
</g>
</g>
<!-- Node15&#45;&gt;Node18 -->
<g id="edge19_Node000015_Node000018" class="edge">
<title>Node15&#45;&gt;Node18</title>
<g id="a_edge19_Node000015_Node000018"><a xlink:title=" ">
<path fill="none" stroke="#63b8ff" d="M2452.54,-62.49C2452.54,-52.3 2452.54,-41.03 2452.54,-32.25"/>
<polygon fill="#63b8ff" stroke="#63b8ff" points="2449.04,-62.22 2452.54,-72.22 2456.04,-62.22 2449.04,-62.22"/>
</a>
</g>
</g>
</g>
</svg>

<g id="navigator" transform="translate(0 0)" fill="#404254">
  <rect fill="#f2f5e9" fill-opacity="0.5" stroke="#606060" stroke-width=".5" x="0" y="0" width="60" height="60"/>
  <use id="zoomplus" xlink:href="#zoomPlus" x="17" y="9" onmousedown="handleZoom(evt,'in')"/>
  <use id="zoomminus" xlink:href="#zoomMin" x="42" y="9" onmousedown="handleZoom(evt,'out')"/>
  <use id="reset" xlink:href="#resetDef" x="30" y="36" onmousedown="handleReset()"/>
   <use id="arrowup" xlink:href="#arrowUp" x="0" y="0" onmousedown="handlePan(0,-1)"/>
  <use id="arrowright" xlink:href="#arrowRight" x="0" y="0" onmousedown="handlePan(1,0)"/>
  <use id="arrowdown" xlink:href="#arrowDown" x="0" y="0" onmousedown="handlePan(0,1)"/>
  <use id="arrowleft" xlink:href="#arrowLeft" x="0" y="0" onmousedown="handlePan(-1,0)"/>
</g>
<svg viewBox="0 0 15 15" width="100%" height="30px" preserveAspectRatio="xMaxYMin meet">
 <g id="arrow_out" transform="scale(0.3 0.3)">
  <a xlink:href="_input_manager_8h__dep__incl_org.svg" target="_base">
   <rect id="button" ry="5" rx="5" y="6" x="6" height="38" width="38"
        fill="#f2f5e9" fill-opacity="0.5" stroke="#606060" stroke-width="1.0"/>
   <path id="arrow"
     d="M 11.500037,31.436501 C 11.940474,20.09759 22.043105,11.32322 32.158766,21.979434 L 37.068811,17.246167 C 37.068811,17.246167 37.088388,32 37.088388,32 L 22.160133,31.978069 C 22.160133,31.978069 26.997745,27.140456 26.997745,27.140456 C 18.528582,18.264221 13.291696,25.230495 11.500037,31.436501 z"
     style="fill:#404040;"/>
  </a>
 </g>
</svg>

<style type='text/css'>
<![CDATA[
[data-mouse-over-selected='false'] { opacity: 0.7; }
[data-mouse-over-selected='true']  { opacity: 1.0; }
]]>
</style>
<script type="application/ecmascript"><![CDATA[
document.addEventListener('DOMContentLoaded', (event) => {
  highlightEdges();
  highlightAdjacentNodes();
});
]]></script>
</svg>
