<?xml version="1.0" encoding="UTF-8" standalone="no"?>
<!DOCTYPE svg PUBLIC "-//W3C//DTD SVG 1.1//EN"
 "http://www.w3.org/Graphics/SVG/1.1/DTD/svg11.dtd">
<!-- Generated by graphviz version 10.0.1 (20240210.2158)
 -->
<!-- Title: GEU::LightProperties::getIs Pages: 1 -->
<svg width="289pt" height="116pt"
 viewBox="0.00 0.00 289.00 116.00" xmlns="http://www.w3.org/2000/svg" xmlns:xlink="http://www.w3.org/1999/xlink">
<g id="graph0" class="graph" transform="scale(1 1) rotate(0) translate(4 112)">
<title>GEU::LightProperties::getIs</title>
<!-- Node1 -->
<g id="Node000001" class="node">
<title>Node1</title>
<g id="a_Node000001"><a xlink:title=" ">
<polygon fill="#999999" stroke="#666666" points="281,-70 172.75,-70 172.75,-38 281,-38 281,-70"/>
<text text-anchor="start" x="180.75" y="-56.5" font-family="Helvetica,sans-Serif" font-size="10.00">GEU::LightProperties</text>
<text text-anchor="middle" x="226.88" y="-44.5" font-family="Helvetica,sans-Serif" font-size="10.00">::getIs</text>
</a>
</g>
</g>
<!-- Node2 -->
<g id="Node000002" class="node">
<title>Node2</title>
<g id="a_Node000002"><a xlink:href="../../d0/d12/class_g_e_u_1_1_point_light.html#a0e02dc28074f728315316e6919fc43eb" target="_top" xlink:title=" ">
<polygon fill="white" stroke="#666666" points="136.75,-108 0,-108 0,-88 136.75,-88 136.75,-108"/>
<text text-anchor="middle" x="68.38" y="-94.5" font-family="Helvetica,sans-Serif" font-size="10.00">GEU::PointLight::applyLight</text>
</a>
</g>
</g>
<!-- Node1&#45;&gt;Node2 -->
<g id="edge1_Node000001_Node000002" class="edge">
<title>Node1&#45;&gt;Node2</title>
<g id="a_edge1_Node000001_Node000002"><a xlink:title=" ">
<path fill="none" stroke="#63b8ff" d="M161.54,-72.09C142.72,-77.38 122.79,-82.98 106.29,-87.62"/>
<polygon fill="#63b8ff" stroke="#63b8ff" points="162.32,-75.5 171,-69.43 160.42,-68.77 162.32,-75.5"/>
</a>
</g>
</g>
<!-- Node3 -->
<g id="Node000003" class="node">
<title>Node3</title>
<g id="a_Node000003"><a xlink:href="../../df/d8b/class_g_e_u_1_1_directional_light.html#ac9a67bc41f2ed1a60611556f62bf5930" target="_top" xlink:title=" ">
<polygon fill="white" stroke="#666666" points="123.25,-70 13.5,-70 13.5,-38 123.25,-38 123.25,-70"/>
<text text-anchor="start" x="21.5" y="-56.5" font-family="Helvetica,sans-Serif" font-size="10.00">GEU::DirectionalLight</text>
<text text-anchor="middle" x="68.38" y="-44.5" font-family="Helvetica,sans-Serif" font-size="10.00">::applyLight</text>
</a>
</g>
</g>
<!-- Node1&#45;&gt;Node3 -->
<g id="edge2_Node000001_Node000003" class="edge">
<title>Node1&#45;&gt;Node3</title>
<g id="a_edge2_Node000001_Node000003"><a xlink:title=" ">
<path fill="none" stroke="#63b8ff" d="M161.16,-54C148.68,-54 135.73,-54 123.62,-54"/>
<polygon fill="#63b8ff" stroke="#63b8ff" points="160.94,-57.5 170.94,-54 160.94,-50.5 160.94,-57.5"/>
</a>
</g>
</g>
<!-- Node4 -->
<g id="Node000004" class="node">
<title>Node4</title>
<g id="a_Node000004"><a xlink:href="../../df/d9f/class_g_e_u_1_1_spot_light.html#aa51e6acef69c7b65948494027f3ea4ed" target="_top" xlink:title=" ">
<polygon fill="white" stroke="#666666" points="135.62,-20 1.12,-20 1.12,0 135.62,0 135.62,-20"/>
<text text-anchor="middle" x="68.38" y="-6.5" font-family="Helvetica,sans-Serif" font-size="10.00">GEU::SpotLight::applyLight</text>
</a>
</g>
</g>
<!-- Node1&#45;&gt;Node4 -->
<g id="edge3_Node000001_Node000004" class="edge">
<title>Node1&#45;&gt;Node4</title>
<g id="a_edge3_Node000001_Node000004"><a xlink:title=" ">
<path fill="none" stroke="#63b8ff" d="M161.54,-35.91C142.72,-30.62 122.79,-25.02 106.29,-20.38"/>
<polygon fill="#63b8ff" stroke="#63b8ff" points="160.42,-39.23 171,-38.57 162.32,-32.5 160.42,-39.23"/>
</a>
</g>
</g>
</g>
</svg>
