<?xml version="1.0" encoding="UTF-8" standalone="no"?>
<!DOCTYPE svg PUBLIC "-//W3C//DTD SVG 1.1//EN"
 "http://www.w3.org/Graphics/SVG/1.1/DTD/svg11.dtd">
<!-- Generated by graphviz version 10.0.1 (20240210.2158)
 -->
<!-- Title: GEU::ShaderManager::getRenderingShader Pages: 1 -->
<svg width="292pt" height="90pt"
 viewBox="0.00 0.00 292.00 90.00" xmlns="http://www.w3.org/2000/svg" xmlns:xlink="http://www.w3.org/1999/xlink">
<g id="graph0" class="graph" transform="scale(1 1) rotate(0) translate(4 86)">
<title>GEU::ShaderManager::getRenderingShader</title>
<!-- Node1 -->
<g id="Node000001" class="node">
<title>Node1</title>
<g id="a_Node000001"><a xlink:title=" ">
<polygon fill="#999999" stroke="#666666" points="284,-57 172.75,-57 172.75,-25 284,-25 284,-57"/>
<text text-anchor="start" x="180.75" y="-43.5" font-family="Helvetica,sans-Serif" font-size="10.00">GEU::ShaderManager</text>
<text text-anchor="middle" x="228.38" y="-31.5" font-family="Helvetica,sans-Serif" font-size="10.00">::getRenderingShader</text>
</a>
</g>
</g>
<!-- Node2 -->
<g id="Node000002" class="node">
<title>Node2</title>
<g id="a_Node000002"><a xlink:href="../../d9/d02/class_g_e_u_1_1_triangle_mesh.html#a86793550dce990b78d2fd3fa6109c1cf" target="_top" xlink:title=" ">
<polygon fill="white" stroke="#666666" points="121.75,-82 15,-82 15,-50 121.75,-50 121.75,-82"/>
<text text-anchor="start" x="23" y="-68.5" font-family="Helvetica,sans-Serif" font-size="10.00">GEU::TriangleMesh::</text>
<text text-anchor="middle" x="68.38" y="-56.5" font-family="Helvetica,sans-Serif" font-size="10.00">loadMaterial</text>
</a>
</g>
</g>
<!-- Node1&#45;&gt;Node2 -->
<g id="edge1_Node000001_Node000002" class="edge">
<title>Node1&#45;&gt;Node2</title>
<g id="a_edge1_Node000001_Node000002"><a xlink:title=" ">
<path fill="none" stroke="#63b8ff" d="M161.27,-51.46C148.25,-53.52 134.75,-55.66 122.23,-57.64"/>
<polygon fill="#63b8ff" stroke="#63b8ff" points="161.73,-54.93 171.06,-49.91 160.64,-48.02 161.73,-54.93"/>
</a>
</g>
</g>
<!-- Node3 -->
<g id="Node000003" class="node">
<title>Node3</title>
<g id="a_Node000003"><a xlink:href="../../de/d04/class_g_e_u_1_1_renderer.html#a6c7d30435b8d94749ae8a4f51037b3d5" target="_top" xlink:title=" ">
<polygon fill="white" stroke="#666666" points="136.75,-32 0,-32 0,0 136.75,0 136.75,-32"/>
<text text-anchor="start" x="8" y="-18.5" font-family="Helvetica,sans-Serif" font-size="10.00">GEU::Renderer::loadRender</text>
<text text-anchor="middle" x="68.38" y="-6.5" font-family="Helvetica,sans-Serif" font-size="10.00">Shaders</text>
</a>
</g>
</g>
<!-- Node1&#45;&gt;Node3 -->
<g id="edge2_Node000001_Node000003" class="edge">
<title>Node1&#45;&gt;Node3</title>
<g id="a_edge2_Node000001_Node000003"><a xlink:title=" ">
<path fill="none" stroke="#63b8ff" d="M161.4,-30.56C153.4,-29.29 145.21,-28 137.18,-26.73"/>
<polygon fill="#63b8ff" stroke="#63b8ff" points="160.64,-33.98 171.06,-32.09 161.73,-27.07 160.64,-33.98"/>
</a>
</g>
</g>
</g>
</svg>
