<?xml version="1.0" encoding="UTF-8" standalone="no"?>
<!DOCTYPE svg PUBLIC "-//W3C//DTD SVG 1.1//EN"
 "http://www.w3.org/Graphics/SVG/1.1/DTD/svg11.dtd">
<!-- Generated by graphviz version 10.0.1 (20240210.2158)
 -->
<!-- Title: GEU::DatabaseQueryPopup::makeFormZona Pages: 1 -->
<svg width="675pt" height="498pt"
 viewBox="0.00 0.00 675.00 498.00" xmlns="http://www.w3.org/2000/svg" xmlns:xlink="http://www.w3.org/1999/xlink">
<g id="graph0" class="graph" transform="scale(1 1) rotate(0) translate(4 494)">
<title>GEU::DatabaseQueryPopup::makeFormZona</title>
<!-- Node1 -->
<g id="Node000001" class="node">
<title>Node1</title>
<g id="a_Node000001"><a xlink:title=" ">
<polygon fill="#999999" stroke="#666666" points="138.25,-180 0,-180 0,-148 138.25,-148 138.25,-180"/>
<text text-anchor="start" x="8" y="-166.5" font-family="Helvetica,sans-Serif" font-size="10.00">GEU::DatabaseQueryPopup</text>
<text text-anchor="middle" x="69.12" y="-154.5" font-family="Helvetica,sans-Serif" font-size="10.00">::makeFormZona</text>
</a>
</g>
</g>
<!-- Node2 -->
<g id="Node000002" class="node">
<title>Node2</title>
<g id="a_Node000002"><a xlink:href="../../d3/d07/namespace_g_e_u_1_1_gui_utilities.html#a2dd1eeaa62f943136289f104f6898fac" target="_top" xlink:title=" ">
<polygon fill="white" stroke="#666666" points="291.5,-364 195.25,-364 195.25,-332 291.5,-332 291.5,-364"/>
<text text-anchor="start" x="203.25" y="-350.5" font-family="Helvetica,sans-Serif" font-size="10.00">GEU::GuiUtilities::</text>
<text text-anchor="middle" x="243.38" y="-338.5" font-family="Helvetica,sans-Serif" font-size="10.00">beginZonaTable</text>
</a>
</g>
</g>
<!-- Node1&#45;&gt;Node2 -->
<g id="edge1_Node000001_Node000002" class="edge">
<title>Node1&#45;&gt;Node2</title>
<g id="a_edge1_Node000001_Node000002"><a xlink:title=" ">
<path fill="none" stroke="#63b8ff" d="M85.41,-180.33C115.8,-212.79 183.94,-285.58 219.62,-323.69"/>
<polygon fill="#63b8ff" stroke="#63b8ff" points="216.7,-325.69 226.09,-330.6 221.81,-320.91 216.7,-325.69"/>
</a>
</g>
</g>
<!-- Node4 -->
<g id="Node000004" class="node">
<title>Node4</title>
<g id="a_Node000004"><a xlink:href="../../d1/d01/class_g_e_u_1_1_singleton.html#a47c7e7c2110f4cc59c9ff1f5594c366e" target="_top" xlink:title=" ">
<polygon fill="white" stroke="#666666" points="667,-205 515.25,-205 515.25,-173 667,-173 667,-205"/>
<text text-anchor="start" x="523.25" y="-191.5" font-family="Helvetica,sans-Serif" font-size="10.00">GEU::Singleton&lt; LocaleStrings</text>
<text text-anchor="middle" x="591.12" y="-179.5" font-family="Helvetica,sans-Serif" font-size="10.00"> &gt;::getInstance</text>
</a>
</g>
</g>
<!-- Node1&#45;&gt;Node4 -->
<g id="edge4_Node000001_Node000004" class="edge">
<title>Node1&#45;&gt;Node4</title>
<g id="a_edge4_Node000001_Node000004"><a xlink:title=" ">
<path fill="none" stroke="#63b8ff" d="M114.72,-147.53C190.99,-121.84 350.72,-78.93 479.25,-117 511.07,-126.43 542.32,-148.18 563.49,-165.32"/>
<polygon fill="#63b8ff" stroke="#63b8ff" points="561.11,-167.89 571.03,-171.6 565.59,-162.51 561.11,-167.89"/>
</a>
</g>
</g>
<!-- Node5 -->
<g id="Node000005" class="node">
<title>Node5</title>
<g id="a_Node000005"><a xlink:href="../../d2/d04/class_locale_strings.html#ac66087ac25e72051ea7b5bf3d00dd71f" target="_top" xlink:title=" ">
<polygon fill="white" stroke="#666666" points="303.5,-20 183.25,-20 183.25,0 303.5,0 303.5,-20"/>
<text text-anchor="middle" x="243.38" y="-6.5" font-family="Helvetica,sans-Serif" font-size="10.00">LocaleStrings::getString</text>
</a>
</g>
</g>
<!-- Node1&#45;&gt;Node5 -->
<g id="edge5_Node000001_Node000005" class="edge">
<title>Node1&#45;&gt;Node5</title>
<g id="a_edge5_Node000001_Node000005"><a xlink:title=" ">
<path fill="none" stroke="#63b8ff" d="M78.25,-147.52C93.21,-118.94 127.86,-60.26 174.25,-29 176.24,-27.66 178.32,-26.41 180.47,-25.26"/>
<polygon fill="#63b8ff" stroke="#63b8ff" points="181.93,-28.44 189.55,-21.08 179,-22.08 181.93,-28.44"/>
</a>
</g>
</g>
<!-- Node6 -->
<g id="Node000006" class="node">
<title>Node6</title>
<g id="a_Node000006"><a xlink:href="../../d3/d07/namespace_g_e_u_1_1_gui_utilities.html#a4453728eb6a181d72fb1be2d7d26f73d" target="_top" xlink:title=" ">
<polygon fill="white" stroke="#666666" points="297.12,-202 189.62,-202 189.62,-170 297.12,-170 297.12,-202"/>
<text text-anchor="start" x="197.62" y="-188.5" font-family="Helvetica,sans-Serif" font-size="10.00">GEU::GuiUtilities::</text>
<text text-anchor="middle" x="243.38" y="-176.5" font-family="Helvetica,sans-Serif" font-size="10.00">makeDBQueryingInfo</text>
</a>
</g>
</g>
<!-- Node1&#45;&gt;Node6 -->
<g id="edge6_Node000001_Node000006" class="edge">
<title>Node1&#45;&gt;Node6</title>
<g id="a_edge6_Node000001_Node000006"><a xlink:title=" ">
<path fill="none" stroke="#63b8ff" d="M138.7,-172.76C151.69,-174.42 165.23,-176.15 178.08,-177.79"/>
<polygon fill="#63b8ff" stroke="#63b8ff" points="177.3,-181.22 187.66,-179.01 178.19,-174.27 177.3,-181.22"/>
</a>
</g>
</g>
<!-- Node8 -->
<g id="Node000008" class="node">
<title>Node8</title>
<g id="a_Node000008"><a xlink:href="../../d3/d07/namespace_g_e_u_1_1_gui_utilities.html#a7b24395f0bd0bd368bde0935682746ce" target="_top" xlink:title=" ">
<polygon fill="white" stroke="#666666" points="462,-158 365.75,-158 365.75,-126 462,-126 462,-158"/>
<text text-anchor="start" x="373.75" y="-144.5" font-family="Helvetica,sans-Serif" font-size="10.00">GEU::GuiUtilities::</text>
<text text-anchor="middle" x="413.88" y="-132.5" font-family="Helvetica,sans-Serif" font-size="10.00">makeLocText</text>
</a>
</g>
</g>
<!-- Node1&#45;&gt;Node8 -->
<g id="edge14_Node000001_Node000008" class="edge">
<title>Node1&#45;&gt;Node8</title>
<g id="a_edge14_Node000001_Node000008"><a xlink:title=" ">
<path fill="none" stroke="#63b8ff" d="M138.66,-159.6C201.8,-155.55 294.48,-149.6 354.26,-145.76"/>
<polygon fill="#63b8ff" stroke="#63b8ff" points="354.12,-149.28 363.88,-145.15 353.67,-142.29 354.12,-149.28"/>
</a>
</g>
</g>
<!-- Node9 -->
<g id="Node000009" class="node">
<title>Node9</title>
<g id="a_Node000009"><a xlink:href="../../d3/d07/namespace_g_e_u_1_1_gui_utilities.html#a51f7b03162a92f79594e82e1aca62133" target="_top" xlink:title=" ">
<polygon fill="white" stroke="#666666" points="291.5,-252 195.25,-252 195.25,-220 291.5,-220 291.5,-252"/>
<text text-anchor="start" x="203.25" y="-238.5" font-family="Helvetica,sans-Serif" font-size="10.00">GEU::GuiUtilities::</text>
<text text-anchor="middle" x="243.38" y="-226.5" font-family="Helvetica,sans-Serif" font-size="10.00">makeLocButton</text>
</a>
</g>
</g>
<!-- Node1&#45;&gt;Node9 -->
<g id="edge10_Node000001_Node000009" class="edge">
<title>Node1&#45;&gt;Node9</title>
<g id="a_edge10_Node000001_Node000009"><a xlink:title=" ">
<path fill="none" stroke="#63b8ff" d="M104.56,-180.3C124.72,-189.65 150.75,-201.4 174.25,-211 177.86,-212.47 181.59,-213.96 185.36,-215.43"/>
<polygon fill="#63b8ff" stroke="#63b8ff" points="184.02,-218.66 194.61,-218.96 186.52,-212.12 184.02,-218.66"/>
</a>
</g>
</g>
<!-- Node11 -->
<g id="Node000011" class="node">
<title>Node11</title>
<g id="a_Node000011"><a xlink:href="../../d7/d06/class_g_e_u_1_1_database_query_popup.html#a31276fe1d19084222ee5d8220382ed3d" target="_top" xlink:title=" ">
<polygon fill="white" stroke="#666666" points="312.5,-446 174.25,-446 174.25,-414 312.5,-414 312.5,-446"/>
<text text-anchor="start" x="182.25" y="-432.5" font-family="Helvetica,sans-Serif" font-size="10.00">GEU::DatabaseQueryPopup</text>
<text text-anchor="middle" x="243.38" y="-420.5" font-family="Helvetica,sans-Serif" font-size="10.00">::queryAvailMunicipios</text>
</a>
</g>
</g>
<!-- Node1&#45;&gt;Node11 -->
<g id="edge15_Node000001_Node000011" class="edge">
<title>Node1&#45;&gt;Node11</title>
<g id="a_edge15_Node000001_Node000011"><a xlink:title=" ">
<path fill="none" stroke="#63b8ff" d="M75.68,-180.49C88.72,-217.59 124.02,-309.36 174.25,-373 184.15,-385.54 197.19,-397.27 209.21,-406.78"/>
<polygon fill="#63b8ff" stroke="#63b8ff" points="206.86,-409.39 216.93,-412.69 211.12,-403.83 206.86,-409.39"/>
</a>
</g>
</g>
<!-- Node14 -->
<g id="Node000014" class="node">
<title>Node14</title>
<g id="a_Node000014"><a xlink:href="../../d7/d06/class_g_e_u_1_1_database_query_popup.html#afef45bcc74cf0edca75cd3f386f9e09b" target="_top" xlink:title=" ">
<polygon fill="white" stroke="#666666" points="312.5,-70 174.25,-70 174.25,-38 312.5,-38 312.5,-70"/>
<text text-anchor="start" x="182.25" y="-56.5" font-family="Helvetica,sans-Serif" font-size="10.00">GEU::DatabaseQueryPopup</text>
<text text-anchor="middle" x="243.38" y="-44.5" font-family="Helvetica,sans-Serif" font-size="10.00">::queryFilterZonas</text>
</a>
</g>
</g>
<!-- Node1&#45;&gt;Node14 -->
<g id="edge19_Node000001_Node000014" class="edge">
<title>Node1&#45;&gt;Node14</title>
<g id="a_edge19_Node000001_Node000014"><a xlink:title=" ">
<path fill="none" stroke="#63b8ff" d="M88.34,-147.81C108.4,-130.53 142.09,-103.06 174.25,-84 179.46,-80.91 185.05,-77.95 190.7,-75.17"/>
<polygon fill="#63b8ff" stroke="#63b8ff" points="191.95,-78.45 199.5,-71.02 188.96,-72.12 191.95,-78.45"/>
</a>
</g>
</g>
<!-- Node3 -->
<g id="Node000003" class="node">
<title>Node3</title>
<g id="a_Node000003"><a xlink:href="../../d3/d07/namespace_g_e_u_1_1_gui_utilities.html#aca2c75691a6162a3ee60274a84118740" target="_top" xlink:title=" ">
<polygon fill="white" stroke="#666666" points="479.25,-364 348.5,-364 348.5,-332 479.25,-332 479.25,-364"/>
<text text-anchor="start" x="356.5" y="-350.5" font-family="Helvetica,sans-Serif" font-size="10.00">GEU::GuiUtilities::</text>
<text text-anchor="middle" x="413.88" y="-338.5" font-family="Helvetica,sans-Serif" font-size="10.00">calcSingleRowTableHeight</text>
</a>
</g>
</g>
<!-- Node2&#45;&gt;Node3 -->
<g id="edge2_Node000002_Node000003" class="edge">
<title>Node2&#45;&gt;Node3</title>
<g id="a_edge2_Node000002_Node000003"><a xlink:title=" ">
<path fill="none" stroke="#63b8ff" d="M291.76,-348C305.86,-348 321.67,-348 337.11,-348"/>
<polygon fill="#63b8ff" stroke="#63b8ff" points="336.73,-351.5 346.73,-348 336.73,-344.5 336.73,-351.5"/>
</a>
</g>
</g>
<!-- Node2&#45;&gt;Node4 -->
<g id="edge3_Node000002_Node000004" class="edge">
<title>Node2&#45;&gt;Node4</title>
<g id="a_edge3_Node000002_Node000004"><a xlink:title=" ">
<path fill="none" stroke="#63b8ff" d="M280.86,-364.36C329.46,-383.51 416.59,-408.4 479.25,-373 539.06,-339.21 570.2,-258.8 582.96,-216.34"/>
<polygon fill="#63b8ff" stroke="#63b8ff" points="586.28,-217.47 585.67,-206.9 579.55,-215.55 586.28,-217.47"/>
</a>
</g>
</g>
<!-- Node7 -->
<g id="Node000007" class="node">
<title>Node7</title>
<g id="a_Node000007"><a xlink:href="../../d3/d07/namespace_g_e_u_1_1_gui_utilities.html#aa4e9186189a097316ffd71424d4a7259" target="_top" xlink:title=" ">
<polygon fill="white" stroke="#666666" points="462,-208 365.75,-208 365.75,-176 462,-176 462,-208"/>
<text text-anchor="start" x="373.75" y="-194.5" font-family="Helvetica,sans-Serif" font-size="10.00">GEU::GuiUtilities::</text>
<text text-anchor="middle" x="413.88" y="-182.5" font-family="Helvetica,sans-Serif" font-size="10.00">loadingIcon</text>
</a>
</g>
</g>
<!-- Node6&#45;&gt;Node7 -->
<g id="edge7_Node000006_Node000007" class="edge">
<title>Node6&#45;&gt;Node7</title>
<g id="a_edge7_Node000006_Node000007"><a xlink:title=" ">
<path fill="none" stroke="#63b8ff" d="M297.23,-187.88C315.29,-188.53 335.6,-189.25 354.1,-189.91"/>
<polygon fill="#63b8ff" stroke="#63b8ff" points="353.72,-193.4 363.84,-190.25 353.97,-186.4 353.72,-193.4"/>
</a>
</g>
</g>
<!-- Node6&#45;&gt;Node8 -->
<g id="edge8_Node000006_Node000008" class="edge">
<title>Node6&#45;&gt;Node8</title>
<g id="a_edge8_Node000006_Node000008"><a xlink:title=" ">
<path fill="none" stroke="#63b8ff" d="M297.23,-172.2C315.38,-167.46 335.79,-162.13 354.36,-157.28"/>
<polygon fill="#63b8ff" stroke="#63b8ff" points="355.1,-160.71 363.89,-154.79 353.33,-153.93 355.1,-160.71"/>
</a>
</g>
</g>
<!-- Node8&#45;&gt;Node4 -->
<g id="edge9_Node000008_Node000004" class="edge">
<title>Node8&#45;&gt;Node4</title>
<g id="a_edge9_Node000008_Node000004"><a xlink:title=" ">
<path fill="none" stroke="#63b8ff" d="M462.3,-154.72C479.42,-159.31 499.15,-164.6 517.91,-169.63"/>
<polygon fill="#63b8ff" stroke="#63b8ff" points="516.78,-172.95 527.35,-172.16 518.6,-166.19 516.78,-172.95"/>
</a>
</g>
</g>
<!-- Node9&#45;&gt;Node4 -->
<g id="edge11_Node000009_Node000004" class="edge">
<title>Node9&#45;&gt;Node4</title>
<g id="a_edge11_Node000009_Node000004"><a xlink:title=" ">
<path fill="none" stroke="#63b8ff" d="M291.89,-234.48C339.54,-232.41 414.87,-227.66 479.25,-217 493.08,-214.71 507.72,-211.55 521.67,-208.18"/>
<polygon fill="#63b8ff" stroke="#63b8ff" points="522.35,-211.62 531.21,-205.81 520.66,-204.83 522.35,-211.62"/>
</a>
</g>
</g>
<!-- Node10 -->
<g id="Node000010" class="node">
<title>Node10</title>
<g id="a_Node000010"><a xlink:href="../../d3/d07/namespace_g_e_u_1_1_gui_utilities.html#a4a4cc2d3f5e9444384aa7e7eb062dbf0" target="_top" xlink:title=" ">
<polygon fill="white" stroke="#666666" points="462,-296 365.75,-296 365.75,-264 462,-264 462,-296"/>
<text text-anchor="start" x="373.75" y="-282.5" font-family="Helvetica,sans-Serif" font-size="10.00">GEU::GuiUtilities::</text>
<text text-anchor="middle" x="413.88" y="-270.5" font-family="Helvetica,sans-Serif" font-size="10.00">makeButton</text>
</a>
</g>
</g>
<!-- Node9&#45;&gt;Node10 -->
<g id="edge12_Node000009_Node000010" class="edge">
<title>Node9&#45;&gt;Node10</title>
<g id="a_edge12_Node000009_Node000010"><a xlink:title=" ">
<path fill="none" stroke="#63b8ff" d="M291.76,-248.37C311.14,-253.43 333.77,-259.34 354.18,-264.67"/>
<polygon fill="#63b8ff" stroke="#63b8ff" points="353.24,-268.04 363.8,-267.18 355.01,-261.27 353.24,-268.04"/>
</a>
</g>
</g>
<!-- Node10&#45;&gt;Node10 -->
<g id="edge13_Node000010_Node000010" class="edge">
<title>Node10&#45;&gt;Node10</title>
<g id="a_edge13_Node000010_Node000010"><a xlink:title=" ">
<path fill="none" stroke="#63b8ff" d="M383.44,-296.44C377.75,-305.58 387.9,-314 413.88,-314 428.08,-314 437.55,-311.48 442.29,-307.71"/>
<polygon fill="#63b8ff" stroke="#63b8ff" points="445.72,-308.39 444.05,-297.93 438.83,-307.15 445.72,-308.39"/>
</a>
</g>
</g>
<!-- Node11&#45;&gt;Node4 -->
<g id="edge16_Node000011_Node000004" class="edge">
<title>Node11&#45;&gt;Node4</title>
<g id="a_edge16_Node000011_Node000004"><a xlink:title=" ">
<path fill="none" stroke="#63b8ff" d="M312.8,-435.37C363.14,-435.87 430.93,-428.95 479.25,-395 541.33,-351.38 571.85,-261.73 583.81,-216.45"/>
<polygon fill="#63b8ff" stroke="#63b8ff" points="587.16,-217.46 586.21,-206.91 580.38,-215.75 587.16,-217.46"/>
</a>
</g>
</g>
<!-- Node12 -->
<g id="Node000012" class="node">
<title>Node12</title>
<g id="a_Node000012"><a xlink:href="../../d1/d01/class_database_connector.html#a09c3a9c872f5fde0b0c548da64bbd2f6" target="_top" xlink:title=" ">
<polygon fill="white" stroke="#666666" points="467.62,-490 360.12,-490 360.12,-458 467.62,-458 467.62,-490"/>
<text text-anchor="start" x="368.12" y="-476.5" font-family="Helvetica,sans-Serif" font-size="10.00">DatabaseConnector::</text>
<text text-anchor="middle" x="413.88" y="-464.5" font-family="Helvetica,sans-Serif" font-size="10.00">queryMunicipio</text>
</a>
</g>
</g>
<!-- Node11&#45;&gt;Node12 -->
<g id="edge17_Node000011_Node000012" class="edge">
<title>Node11&#45;&gt;Node12</title>
<g id="a_edge17_Node000011_Node000012"><a xlink:title=" ">
<path fill="none" stroke="#63b8ff" d="M307.12,-446.38C320.78,-449.95 335.24,-453.73 348.95,-457.31"/>
<polygon fill="#63b8ff" stroke="#63b8ff" points="347.72,-460.6 358.28,-459.74 349.49,-453.83 347.72,-460.6"/>
</a>
</g>
</g>
<!-- Node13 -->
<g id="Node000013" class="node">
<title>Node13</title>
<g id="a_Node000013"><a xlink:href="../../d4/d07/struct_database_1_1_municipio.html#a2a3f3ff1f16e522fd89d456cb22111b0" target="_top" xlink:title=" ">
<polygon fill="white" stroke="#666666" points="643.38,-490 538.88,-490 538.88,-458 643.38,-458 643.38,-490"/>
<text text-anchor="start" x="546.88" y="-476.5" font-family="Helvetica,sans-Serif" font-size="10.00">Database::Municipio</text>
<text text-anchor="middle" x="591.12" y="-464.5" font-family="Helvetica,sans-Serif" font-size="10.00">::fromQuery</text>
</a>
</g>
</g>
<!-- Node12&#45;&gt;Node13 -->
<g id="edge18_Node000012_Node000013" class="edge">
<title>Node12&#45;&gt;Node13</title>
<g id="a_edge18_Node000012_Node000013"><a xlink:title=" ">
<path fill="none" stroke="#63b8ff" d="M467.93,-474C486.54,-474 507.63,-474 526.98,-474"/>
<polygon fill="#63b8ff" stroke="#63b8ff" points="526.94,-477.5 536.94,-474 526.94,-470.5 526.94,-477.5"/>
</a>
</g>
</g>
<!-- Node14&#45;&gt;Node4 -->
<g id="edge20_Node000014_Node000004" class="edge">
<title>Node14&#45;&gt;Node4</title>
<g id="a_edge20_Node000014_Node000004"><a xlink:title=" ">
<path fill="none" stroke="#63b8ff" d="M312.79,-51.7C361.41,-52.64 427.06,-59.26 479.25,-84 517.7,-102.22 551.52,-138.87 571.4,-163.67"/>
<polygon fill="#63b8ff" stroke="#63b8ff" points="568.47,-165.61 577.39,-171.34 573.99,-161.31 568.47,-165.61"/>
</a>
</g>
</g>
<!-- Node15 -->
<g id="Node000015" class="node">
<title>Node15</title>
<g id="a_Node000015"><a xlink:href="../../d1/d01/class_database_connector.html#aafa175f116074af1e83d841ca7e07f3d" target="_top" xlink:title=" ">
<polygon fill="white" stroke="#666666" points="467.62,-32 360.12,-32 360.12,0 467.62,0 467.62,-32"/>
<text text-anchor="start" x="368.12" y="-18.5" font-family="Helvetica,sans-Serif" font-size="10.00">DatabaseConnector::</text>
<text text-anchor="middle" x="413.88" y="-6.5" font-family="Helvetica,sans-Serif" font-size="10.00">queryZona</text>
</a>
</g>
</g>
<!-- Node14&#45;&gt;Node15 -->
<g id="edge21_Node000014_Node000015" class="edge">
<title>Node14&#45;&gt;Node15</title>
<g id="a_edge21_Node000014_Node000015"><a xlink:title=" ">
<path fill="none" stroke="#63b8ff" d="M312.91,-38.54C324.72,-35.88 336.95,-33.12 348.64,-30.49"/>
<polygon fill="#63b8ff" stroke="#63b8ff" points="349.19,-33.95 358.17,-28.34 347.65,-27.12 349.19,-33.95"/>
</a>
</g>
</g>
<!-- Node16 -->
<g id="Node000016" class="node">
<title>Node16</title>
<g id="a_Node000016"><a xlink:href="../../da/d03/struct_database_1_1_zona.html#a534b6e266ee92254a993010a11b1abba" target="_top" xlink:title=" ">
<polygon fill="white" stroke="#666666" points="658.75,-26 523.5,-26 523.5,-6 658.75,-6 658.75,-26"/>
<text text-anchor="middle" x="591.12" y="-12.5" font-family="Helvetica,sans-Serif" font-size="10.00">Database::Zona::fromQuery</text>
</a>
</g>
</g>
<!-- Node15&#45;&gt;Node16 -->
<g id="edge22_Node000015_Node000016" class="edge">
<title>Node15&#45;&gt;Node16</title>
<g id="a_edge22_Node000015_Node000016"><a xlink:title=" ">
<path fill="none" stroke="#63b8ff" d="M467.93,-16C481.82,-16 497.09,-16 511.99,-16"/>
<polygon fill="#63b8ff" stroke="#63b8ff" points="511.76,-19.5 521.76,-16 511.76,-12.5 511.76,-19.5"/>
</a>
</g>
</g>
</g>
</svg>
