<?xml version="1.0" encoding="UTF-8" standalone="no"?>
<!DOCTYPE svg PUBLIC "-//W3C//DTD SVG 1.1//EN"
 "http://www.w3.org/Graphics/SVG/1.1/DTD/svg11.dtd">
<!-- Generated by graphviz version 10.0.1 (20240210.2158)
 -->
<!-- Title: GEU::PointCloud::spatialOrdering Pages: 1 -->
<svg width="417pt" height="255pt"
 viewBox="0.00 0.00 416.75 255.00" xmlns="http://www.w3.org/2000/svg" xmlns:xlink="http://www.w3.org/1999/xlink">
<g id="graph0" class="graph" transform="scale(1 1) rotate(0) translate(4 251)">
<title>GEU::PointCloud::spatialOrdering</title>
<!-- Node1 -->
<g id="Node000001" class="node">
<title>Node1</title>
<g id="a_Node000001"><a xlink:title="Optimiza el orden de los puntos en la estructura de datos para mejorar la eficiencia del renderizado.">
<polygon fill="#999999" stroke="#666666" points="124.75,-158 0,-158 0,-126 124.75,-126 124.75,-158"/>
<text text-anchor="start" x="8" y="-144.5" font-family="Helvetica,sans-Serif" font-size="10.00">GEU::PointCloud::spatial</text>
<text text-anchor="middle" x="62.38" y="-132.5" font-family="Helvetica,sans-Serif" font-size="10.00">Ordering</text>
</a>
</g>
</g>
<!-- Node2 -->
<g id="Node000002" class="node">
<title>Node2</title>
<g id="a_Node000002"><a xlink:href="../../d1/d04/a00098.html#a1e03a163e941b492e5ef4147acc6097c" target="_top" xlink:title=" ">
<polygon fill="white" stroke="#666666" points="278.38,-247 187.38,-247 187.38,-227 278.38,-227 278.38,-247"/>
<text text-anchor="middle" x="232.88" y="-233.5" font-family="Helvetica,sans-Serif" font-size="10.00">compareFunction</text>
</a>
</g>
</g>
<!-- Node1&#45;&gt;Node2 -->
<g id="edge1_Node000001_Node000002" class="edge">
<title>Node1&#45;&gt;Node2</title>
<g id="a_edge1_Node000001_Node000002"><a xlink:title=" ">
<path fill="none" stroke="#63b8ff" d="M79.87,-158.32C98.16,-175.54 129.27,-202.33 160.75,-218 165.77,-220.5 171.16,-222.7 176.64,-224.63"/>
<polygon fill="#63b8ff" stroke="#63b8ff" points="175.2,-227.84 185.79,-227.56 177.33,-221.18 175.2,-227.84"/>
</a>
</g>
</g>
<!-- Node3 -->
<g id="Node000003" class="node">
<title>Node3</title>
<g id="a_Node000003"><a xlink:href="../../db/d05/a01637.html#aa64a954e8c1435f575015681f945895c" target="_top" xlink:title=" ">
<polygon fill="white" stroke="#666666" points="285.5,-209 180.25,-209 180.25,-189 285.5,-189 285.5,-209"/>
<text text-anchor="middle" x="232.88" y="-195.5" font-family="Helvetica,sans-Serif" font-size="10.00">AABB::extentLength</text>
</a>
</g>
</g>
<!-- Node1&#45;&gt;Node3 -->
<g id="edge2_Node000001_Node000003" class="edge">
<title>Node1&#45;&gt;Node3</title>
<g id="a_edge2_Node000001_Node000003"><a xlink:title=" ">
<path fill="none" stroke="#63b8ff" d="M102.34,-158.35C120.01,-165.46 141.26,-173.62 160.75,-180 166.52,-181.89 172.6,-183.73 178.67,-185.48"/>
<polygon fill="#63b8ff" stroke="#63b8ff" points="177.49,-188.79 188.07,-188.11 179.38,-182.04 177.49,-188.79"/>
</a>
</g>
</g>
<!-- Node4 -->
<g id="Node000004" class="node">
<title>Node4</title>
<g id="a_Node000004"><a xlink:href="../../d8/d00/a00557.html#a8a958a8b2fd0265e57cae791ff9ae00e" target="_top" xlink:title=" ">
<polygon fill="white" stroke="#666666" points="305,-171 160.75,-171 160.75,-151 305,-151 305,-171"/>
<text text-anchor="middle" x="232.88" y="-157.5" font-family="Helvetica,sans-Serif" font-size="10.00">mve::fastMortonToHilbert3_32</text>
</a>
</g>
</g>
<!-- Node1&#45;&gt;Node4 -->
<g id="edge3_Node000001_Node000004" class="edge">
<title>Node1&#45;&gt;Node4</title>
<g id="a_edge3_Node000001_Node000004"><a xlink:title=" ">
<path fill="none" stroke="#63b8ff" d="M125.16,-148.97C132.95,-149.85 141.01,-150.75 149.06,-151.66"/>
<polygon fill="#63b8ff" stroke="#63b8ff" points="148.56,-155.13 158.89,-152.77 149.35,-148.17 148.56,-155.13"/>
</a>
</g>
</g>
<!-- Node5 -->
<g id="Node000005" class="node">
<title>Node5</title>
<g id="a_Node000005"><a xlink:href="../../d1/d04/a00098.html#ae670f723833946503f4a673e464a4110" target="_top" xlink:title=" ">
<polygon fill="white" stroke="#666666" points="261.88,-133 203.88,-133 203.88,-113 261.88,-113 261.88,-133"/>
<text text-anchor="middle" x="232.88" y="-119.5" font-family="Helvetica,sans-Serif" font-size="10.00">morton3D</text>
</a>
</g>
</g>
<!-- Node1&#45;&gt;Node5 -->
<g id="edge4_Node000001_Node000005" class="edge">
<title>Node1&#45;&gt;Node5</title>
<g id="a_edge4_Node000001_Node000005"><a xlink:title=" ">
<path fill="none" stroke="#63b8ff" d="M125.16,-135.03C147.62,-132.5 172.37,-129.71 192.38,-127.45"/>
<polygon fill="#63b8ff" stroke="#63b8ff" points="192.51,-130.96 202.05,-126.36 191.72,-124.01 192.51,-130.96"/>
</a>
</g>
</g>
<!-- Node7 -->
<g id="Node000007" class="node">
<title>Node7</title>
<g id="a_Node000007"><a xlink:href="../../db/d05/a01637.html#a4c89f6c79185419d041bcf67f0921b25" target="_top" xlink:title=" ">
<polygon fill="white" stroke="#666666" points="266.38,-95 199.38,-95 199.38,-75 266.38,-75 266.38,-95"/>
<text text-anchor="middle" x="232.88" y="-81.5" font-family="Helvetica,sans-Serif" font-size="10.00">AABB::size</text>
</a>
</g>
</g>
<!-- Node1&#45;&gt;Node7 -->
<g id="edge6_Node000001_Node000007" class="edge">
<title>Node1&#45;&gt;Node7</title>
<g id="a_edge6_Node000001_Node000007"><a xlink:title=" ">
<path fill="none" stroke="#63b8ff" d="M102.34,-125.65C120.01,-118.54 141.26,-110.38 160.75,-104 169.56,-101.11 179.08,-98.34 188.21,-95.84"/>
<polygon fill="#63b8ff" stroke="#63b8ff" points="188.85,-99.3 197.61,-93.34 187.05,-92.53 188.85,-99.3"/>
</a>
</g>
</g>
<!-- Node8 -->
<g id="Node000008" class="node">
<title>Node8</title>
<g id="a_Node000008"><a xlink:href="../../db/d05/a01637.html#ac7df26fada02a660519ce8829eec1bf2" target="_top" xlink:title=" ">
<polygon fill="white" stroke="#666666" points="272,-39 193.75,-39 193.75,-19 272,-19 272,-39"/>
<text text-anchor="middle" x="232.88" y="-25.5" font-family="Helvetica,sans-Serif" font-size="10.00">AABB::update</text>
</a>
</g>
</g>
<!-- Node1&#45;&gt;Node8 -->
<g id="edge7_Node000001_Node000008" class="edge">
<title>Node1&#45;&gt;Node8</title>
<g id="a_edge7_Node000001_Node000008"><a xlink:title=" ">
<path fill="none" stroke="#63b8ff" d="M82.01,-125.78C101.06,-109.6 131.89,-84.55 160.75,-66 172.8,-58.26 186.64,-50.76 198.9,-44.57"/>
<polygon fill="#63b8ff" stroke="#63b8ff" points="200.41,-47.73 207.82,-40.16 197.31,-41.45 200.41,-47.73"/>
</a>
</g>
</g>
<!-- Node6 -->
<g id="Node000006" class="node">
<title>Node6</title>
<g id="a_Node000006"><a xlink:href="../../d1/d04/a00098.html#a62f446fd5881e54bf0ba8bd5399f2cec" target="_top" xlink:title=" ">
<polygon fill="white" stroke="#666666" points="407.25,-133 342.5,-133 342.5,-113 407.25,-113 407.25,-133"/>
<text text-anchor="middle" x="374.88" y="-119.5" font-family="Helvetica,sans-Serif" font-size="10.00">expandBits</text>
</a>
</g>
</g>
<!-- Node5&#45;&gt;Node6 -->
<g id="edge5_Node000005_Node000006" class="edge">
<title>Node5&#45;&gt;Node6</title>
<g id="a_edge5_Node000005_Node000006"><a xlink:title=" ">
<path fill="none" stroke="#63b8ff" d="M262.21,-123C281.94,-123 308.61,-123 330.94,-123"/>
<polygon fill="#63b8ff" stroke="#63b8ff" points="330.65,-126.5 340.65,-123 330.65,-119.5 330.65,-126.5"/>
</a>
</g>
</g>
<!-- Node8&#45;&gt;Node8 -->
<g id="edge10_Node000008_Node000008" class="edge">
<title>Node8&#45;&gt;Node8</title>
<g id="a_edge10_Node000008_Node000008"><a xlink:title=" ">
<path fill="none" stroke="#63b8ff" d="M210.31,-39.34C200.67,-47.98 208.19,-57 232.88,-57 246.37,-57 254.74,-54.3 257.97,-50.44"/>
<polygon fill="#63b8ff" stroke="#63b8ff" points="261.41,-49.78 255.77,-40.81 254.59,-51.34 261.41,-49.78"/>
</a>
</g>
</g>
<!-- Node9 -->
<g id="Node000009" class="node">
<title>Node9</title>
<g id="a_Node000009"><a xlink:href="../../db/d05/a01637.html#aa80c2fc1bbc932572311ba94a8f76530" target="_top" xlink:title=" ">
<polygon fill="white" stroke="#666666" points="408.75,-58 341,-58 341,-38 408.75,-38 408.75,-58"/>
<text text-anchor="middle" x="374.88" y="-44.5" font-family="Helvetica,sans-Serif" font-size="10.00">AABB::max</text>
</a>
</g>
</g>
<!-- Node8&#45;&gt;Node9 -->
<g id="edge8_Node000008_Node000009" class="edge">
<title>Node8&#45;&gt;Node9</title>
<g id="a_edge8_Node000008_Node000009"><a xlink:title=" ">
<path fill="none" stroke="#63b8ff" d="M272.13,-34.19C289.88,-36.6 311.09,-39.48 329.53,-41.98"/>
<polygon fill="#63b8ff" stroke="#63b8ff" points="329.02,-45.44 339.4,-43.32 329.96,-38.51 329.02,-45.44"/>
</a>
</g>
</g>
<!-- Node10 -->
<g id="Node000010" class="node">
<title>Node10</title>
<g id="a_Node000010"><a xlink:href="../../db/d05/a01637.html#a29073914f600f7657f4a44937702a471" target="_top" xlink:title=" ">
<polygon fill="white" stroke="#666666" points="407.25,-20 342.5,-20 342.5,0 407.25,0 407.25,-20"/>
<text text-anchor="middle" x="374.88" y="-6.5" font-family="Helvetica,sans-Serif" font-size="10.00">AABB::min</text>
</a>
</g>
</g>
<!-- Node8&#45;&gt;Node10 -->
<g id="edge9_Node000008_Node000010" class="edge">
<title>Node8&#45;&gt;Node10</title>
<g id="a_edge9_Node000008_Node000010"><a xlink:title=" ">
<path fill="none" stroke="#63b8ff" d="M272.13,-23.81C290.37,-21.33 312.25,-18.36 331.04,-15.81"/>
<polygon fill="#63b8ff" stroke="#63b8ff" points="331.34,-19.3 340.78,-14.49 330.4,-12.37 331.34,-19.3"/>
</a>
</g>
</g>
</g>
</svg>
