<?xml version="1.0" encoding="UTF-8" standalone="no"?>
<!DOCTYPE svg PUBLIC "-//W3C//DTD SVG 1.1//EN"
 "http://www.w3.org/Graphics/SVG/1.1/DTD/svg11.dtd">
<!-- Generated by graphviz version 10.0.1 (20240210.2158)
 -->
<!-- Title: GEU::DatabaseNewVueloPopup::handleZonaPopup Pages: 1 -->
<svg width="646pt" height="232pt"
 viewBox="0.00 0.00 645.75 232.20" xmlns="http://www.w3.org/2000/svg" xmlns:xlink="http://www.w3.org/1999/xlink">
<g id="graph0" class="graph" transform="scale(1 1) rotate(0) translate(4 228.2)">
<title>GEU::DatabaseNewVueloPopup::handleZonaPopup</title>
<!-- Node1 -->
<g id="Node000001" class="node">
<title>Node1</title>
<g id="a_Node000001"><a xlink:title=" ">
<polygon fill="#999999" stroke="#666666" points="155.5,-132 0,-132 0,-100 155.5,-100 155.5,-132"/>
<text text-anchor="start" x="8" y="-118.5" font-family="Helvetica,sans-Serif" font-size="10.00">GEU::DatabaseNewVueloPopup</text>
<text text-anchor="middle" x="77.75" y="-106.5" font-family="Helvetica,sans-Serif" font-size="10.00">::handleZonaPopup</text>
</a>
</g>
</g>
<!-- Node2 -->
<g id="Node000002" class="node">
<title>Node2</title>
<g id="a_Node000002"><a xlink:href="../../d3/d07/namespace_g_e_u_1_1_gui_utilities.html#af94965eb0ce2f4e1e5ee22fd33bf4574" target="_top" xlink:title=" ">
<polygon fill="white" stroke="#666666" points="293.38,-220 197.12,-220 197.12,-188 293.38,-188 293.38,-220"/>
<text text-anchor="start" x="205.12" y="-206.5" font-family="Helvetica,sans-Serif" font-size="10.00">GEU::GuiUtilities::</text>
<text text-anchor="middle" x="245.25" y="-194.5" font-family="Helvetica,sans-Serif" font-size="10.00">BeginTableZona</text>
</a>
</g>
</g>
<!-- Node1&#45;&gt;Node2 -->
<g id="edge1_Node000001_Node000002" class="edge">
<title>Node1&#45;&gt;Node2</title>
<g id="a_edge1_Node000001_Node000002"><a xlink:title=" ">
<path fill="none" stroke="#63b8ff" d="M109.49,-132.35C136,-146.44 174.48,-166.9 203.54,-182.35"/>
<polygon fill="#63b8ff" stroke="#63b8ff" points="201.58,-185.28 212.06,-186.88 204.87,-179.1 201.58,-185.28"/>
</a>
</g>
</g>
<!-- Node3 -->
<g id="Node000003" class="node">
<title>Node3</title>
<g id="a_Node000003"><a xlink:href="../../d1/d01/class_g_e_u_1_1_singleton.html#a47c7e7c2110f4cc59c9ff1f5594c366e" target="_top" xlink:title=" ">
<polygon fill="white" stroke="#666666" points="637.75,-176 486,-176 486,-144 637.75,-144 637.75,-176"/>
<text text-anchor="start" x="494" y="-162.5" font-family="Helvetica,sans-Serif" font-size="10.00">GEU::Singleton&lt; LocaleStrings</text>
<text text-anchor="middle" x="561.88" y="-150.5" font-family="Helvetica,sans-Serif" font-size="10.00"> &gt;::getInstance</text>
</a>
</g>
</g>
<!-- Node1&#45;&gt;Node3 -->
<g id="edge4_Node000001_Node000003" class="edge">
<title>Node1&#45;&gt;Node3</title>
<g id="a_edge4_Node000001_Node000003"><a xlink:title=" ">
<path fill="none" stroke="#63b8ff" d="M144.3,-132.47C159.69,-135.8 176.1,-138.91 191.5,-141 287.73,-154.05 399.18,-158.31 474.27,-159.62"/>
<polygon fill="#63b8ff" stroke="#63b8ff" points="473.98,-163.11 484.03,-159.77 474.09,-156.11 473.98,-163.11"/>
</a>
</g>
</g>
<!-- Node5 -->
<g id="Node000005" class="node">
<title>Node5</title>
<g id="a_Node000005"><a xlink:href="../../d3/d07/namespace_g_e_u_1_1_gui_utilities.html#aac1a014e3f28af3016b31a518ded4e3f" target="_top" xlink:title=" ">
<polygon fill="white" stroke="#666666" points="296,-132 194.5,-132 194.5,-100 296,-100 296,-132"/>
<text text-anchor="start" x="202.5" y="-118.5" font-family="Helvetica,sans-Serif" font-size="10.00">GEU::GuiUtilities::</text>
<text text-anchor="middle" x="245.25" y="-106.5" font-family="Helvetica,sans-Serif" font-size="10.00">GetTableRowHeight</text>
</a>
</g>
</g>
<!-- Node1&#45;&gt;Node5 -->
<g id="edge5_Node000001_Node000005" class="edge">
<title>Node1&#45;&gt;Node5</title>
<g id="a_edge5_Node000001_Node000005"><a xlink:title=" ">
<path fill="none" stroke="#63b8ff" d="M155.69,-116C164.84,-116 174.09,-116 182.99,-116"/>
<polygon fill="#63b8ff" stroke="#63b8ff" points="182.93,-119.5 192.93,-116 182.93,-112.5 182.93,-119.5"/>
</a>
</g>
</g>
<!-- Node6 -->
<g id="Node000006" class="node">
<title>Node6</title>
<g id="a_Node000006"><a xlink:href="../../d1/d01/class_database_connector.html#af48507d47d876f6b094c6847aafa0e9d" target="_top" xlink:title=" ">
<polygon fill="white" stroke="#666666" points="299,-82 191.5,-82 191.5,-50 299,-50 299,-82"/>
<text text-anchor="start" x="199.5" y="-68.5" font-family="Helvetica,sans-Serif" font-size="10.00">DatabaseConnector::</text>
<text text-anchor="middle" x="245.25" y="-56.5" font-family="Helvetica,sans-Serif" font-size="10.00">getZonasAsync</text>
</a>
</g>
</g>
<!-- Node1&#45;&gt;Node6 -->
<g id="edge6_Node000001_Node000006" class="edge">
<title>Node1&#45;&gt;Node6</title>
<g id="a_edge6_Node000001_Node000006"><a xlink:title=" ">
<path fill="none" stroke="#63b8ff" d="M132.94,-99.63C148.11,-95.05 164.73,-90.02 180.4,-85.29"/>
<polygon fill="#63b8ff" stroke="#63b8ff" points="181.06,-88.75 189.62,-82.51 179.03,-82.05 181.06,-88.75"/>
</a>
</g>
</g>
<!-- Node7 -->
<g id="Node000007" class="node">
<title>Node7</title>
<g id="a_Node000007"><a xlink:href="../../d3/d07/namespace_g_e_u_1_1_gui_utilities.html#a4453728eb6a181d72fb1be2d7d26f73d" target="_top" xlink:title=" ">
<polygon fill="white" stroke="#666666" points="299,-32 191.5,-32 191.5,0 299,0 299,-32"/>
<text text-anchor="start" x="199.5" y="-18.5" font-family="Helvetica,sans-Serif" font-size="10.00">GEU::GuiUtilities::</text>
<text text-anchor="middle" x="245.25" y="-6.5" font-family="Helvetica,sans-Serif" font-size="10.00">makeDBQueryingInfo</text>
</a>
</g>
</g>
<!-- Node1&#45;&gt;Node7 -->
<g id="edge7_Node000001_Node000007" class="edge">
<title>Node1&#45;&gt;Node7</title>
<g id="a_edge7_Node000001_Node000007"><a xlink:title=" ">
<path fill="none" stroke="#63b8ff" d="M101.03,-99.78C123.35,-83.88 158.96,-59.4 191.5,-41 193.53,-39.85 195.63,-38.7 197.76,-37.57"/>
<polygon fill="#63b8ff" stroke="#63b8ff" points="199.21,-40.76 206.51,-33.09 196.02,-34.53 199.21,-40.76"/>
</a>
</g>
</g>
<!-- Node2&#45;&gt;Node3 -->
<g id="edge2_Node000002_Node000003" class="edge">
<title>Node2&#45;&gt;Node3</title>
<g id="a_edge2_Node000002_Node000003"><a xlink:title=" ">
<path fill="none" stroke="#63b8ff" d="M293.47,-214.89C335.22,-222.67 397.46,-229.71 450,-217 477.79,-210.28 506.41,-195.32 527.62,-182.41"/>
<polygon fill="#63b8ff" stroke="#63b8ff" points="529.2,-185.55 535.82,-177.28 525.49,-179.62 529.2,-185.55"/>
</a>
</g>
</g>
<!-- Node4 -->
<g id="Node000004" class="node">
<title>Node4</title>
<g id="a_Node000004"><a xlink:href="../../d3/d07/namespace_g_e_u_1_1_gui_utilities.html#a76a49056660c5a9246a94564afbb676a" target="_top" xlink:title=" ">
<polygon fill="white" stroke="#666666" points="450,-208 335,-208 335,-188 450,-188 450,-208"/>
<text text-anchor="middle" x="392.5" y="-194.5" font-family="Helvetica,sans-Serif" font-size="10.00">GEU::GuiUtilities::Text</text>
</a>
</g>
</g>
<!-- Node2&#45;&gt;Node4 -->
<g id="edge3_Node000002_Node000004" class="edge">
<title>Node2&#45;&gt;Node4</title>
<g id="a_edge3_Node000002_Node000004"><a xlink:title=" ">
<path fill="none" stroke="#63b8ff" d="M293.81,-202.04C303.31,-201.64 313.46,-201.22 323.49,-200.81"/>
<polygon fill="#63b8ff" stroke="#63b8ff" points="323.37,-204.32 333.21,-200.41 323.08,-197.32 323.37,-204.32"/>
</a>
</g>
</g>
<!-- Node8 -->
<g id="Node000008" class="node">
<title>Node8</title>
<g id="a_Node000008"><a xlink:href="../../d3/d07/namespace_g_e_u_1_1_gui_utilities.html#aa4e9186189a097316ffd71424d4a7259" target="_top" xlink:title=" ">
<polygon fill="white" stroke="#666666" points="440.62,-82 344.38,-82 344.38,-50 440.62,-50 440.62,-82"/>
<text text-anchor="start" x="352.38" y="-68.5" font-family="Helvetica,sans-Serif" font-size="10.00">GEU::GuiUtilities::</text>
<text text-anchor="middle" x="392.5" y="-56.5" font-family="Helvetica,sans-Serif" font-size="10.00">loadingIcon</text>
</a>
</g>
</g>
<!-- Node7&#45;&gt;Node8 -->
<g id="edge8_Node000007_Node000008" class="edge">
<title>Node7&#45;&gt;Node8</title>
<g id="a_edge8_Node000007_Node000008"><a xlink:title=" ">
<path fill="none" stroke="#63b8ff" d="M293.81,-32.37C306.48,-36.73 320.31,-41.49 333.47,-46.02"/>
<polygon fill="#63b8ff" stroke="#63b8ff" points="332.3,-49.32 342.9,-49.27 334.58,-42.71 332.3,-49.32"/>
</a>
</g>
</g>
<!-- Node9 -->
<g id="Node000009" class="node">
<title>Node9</title>
<g id="a_Node000009"><a xlink:href="../../d3/d07/namespace_g_e_u_1_1_gui_utilities.html#a7b24395f0bd0bd368bde0935682746ce" target="_top" xlink:title=" ">
<polygon fill="white" stroke="#666666" points="440.62,-32 344.38,-32 344.38,0 440.62,0 440.62,-32"/>
<text text-anchor="start" x="352.38" y="-18.5" font-family="Helvetica,sans-Serif" font-size="10.00">GEU::GuiUtilities::</text>
<text text-anchor="middle" x="392.5" y="-6.5" font-family="Helvetica,sans-Serif" font-size="10.00">makeLocText</text>
</a>
</g>
</g>
<!-- Node7&#45;&gt;Node9 -->
<g id="edge9_Node000007_Node000009" class="edge">
<title>Node7&#45;&gt;Node9</title>
<g id="a_edge9_Node000007_Node000009"><a xlink:title=" ">
<path fill="none" stroke="#63b8ff" d="M299.1,-16C310.06,-16 321.66,-16 332.81,-16"/>
<polygon fill="#63b8ff" stroke="#63b8ff" points="332.71,-19.5 342.71,-16 332.71,-12.5 332.71,-19.5"/>
</a>
</g>
</g>
<!-- Node9&#45;&gt;Node3 -->
<g id="edge10_Node000009_Node000003" class="edge">
<title>Node9&#45;&gt;Node3</title>
<g id="a_edge10_Node000009_Node000003"><a xlink:title=" ">
<path fill="none" stroke="#63b8ff" d="M435.89,-32.47C440.81,-35.04 445.63,-37.89 450,-41 487.49,-67.69 522.19,-108.63 542.45,-134.86"/>
<polygon fill="#63b8ff" stroke="#63b8ff" points="539.49,-136.75 548.32,-142.59 545.06,-132.51 539.49,-136.75"/>
</a>
</g>
</g>
</g>
</svg>
