<?xml version="1.0" encoding="UTF-8" standalone="no"?>
<!DOCTYPE svg PUBLIC "-//W3C//DTD SVG 1.1//EN"
 "http://www.w3.org/Graphics/SVG/1.1/DTD/svg11.dtd">
<!-- Generated by graphviz version 10.0.1 (20240210.2158)
 -->
<!-- Title: GEU::DatabaseNewVueloPopup::handleZonaPopup Pages: 1 -->
<svg width="627pt" height="228pt"
 viewBox="0.00 0.00 627.00 228.00" xmlns="http://www.w3.org/2000/svg" xmlns:xlink="http://www.w3.org/1999/xlink">
<g id="graph0" class="graph" transform="scale(1 1) rotate(0) translate(4 224)">
<title>GEU::DatabaseNewVueloPopup::handleZonaPopup</title>
<!-- Node1 -->
<g id="Node000001" class="node">
<title>Node1</title>
<g id="a_Node000001"><a xlink:title=" ">
<polygon fill="#999999" stroke="#666666" points="155.5,-132 0,-132 0,-100 155.5,-100 155.5,-132"/>
<text text-anchor="start" x="8" y="-118.5" font-family="Helvetica,sans-Serif" font-size="10.00">GEU::DatabaseNewVueloPopup</text>
<text text-anchor="middle" x="77.75" y="-106.5" font-family="Helvetica,sans-Serif" font-size="10.00">::handleZonaPopup</text>
</a>
</g>
</g>
<!-- Node2 -->
<g id="Node000002" class="node">
<title>Node2</title>
<g id="a_Node000002"><a xlink:href="../../d3/d07/namespace_g_e_u_1_1_gui_utilities.html#af94965eb0ce2f4e1e5ee22fd33bf4574" target="_top" xlink:title=" ">
<polygon fill="white" stroke="#666666" points="431.25,-220 335,-220 335,-188 431.25,-188 431.25,-220"/>
<text text-anchor="start" x="343" y="-206.5" font-family="Helvetica,sans-Serif" font-size="10.00">GEU::GuiUtilities::</text>
<text text-anchor="middle" x="383.12" y="-194.5" font-family="Helvetica,sans-Serif" font-size="10.00">BeginTableZona</text>
</a>
</g>
</g>
<!-- Node1&#45;&gt;Node2 -->
<g id="edge1_Node000001_Node000002" class="edge">
<title>Node1&#45;&gt;Node2</title>
<g id="a_edge1_Node000001_Node000002"><a xlink:title=" ">
<path fill="none" stroke="#63b8ff" d="M104.59,-132.33C126.8,-145.6 160.11,-163.75 191.5,-174 234.36,-187.99 284.84,-195.57 323.08,-199.6"/>
<polygon fill="#63b8ff" stroke="#63b8ff" points="322.73,-203.08 333.03,-200.59 323.42,-196.12 322.73,-203.08"/>
</a>
</g>
</g>
<!-- Node3 -->
<g id="Node000003" class="node">
<title>Node3</title>
<g id="a_Node000003"><a xlink:href="../../d1/d01/class_g_e_u_1_1_singleton.html#a47c7e7c2110f4cc59c9ff1f5594c366e" target="_top" xlink:title=" ">
<polygon fill="white" stroke="#666666" points="619,-176 467.25,-176 467.25,-144 619,-144 619,-176"/>
<text text-anchor="start" x="475.25" y="-162.5" font-family="Helvetica,sans-Serif" font-size="10.00">GEU::Singleton&lt; LocaleStrings</text>
<text text-anchor="middle" x="543.12" y="-150.5" font-family="Helvetica,sans-Serif" font-size="10.00"> &gt;::getInstance</text>
</a>
</g>
</g>
<!-- Node1&#45;&gt;Node3 -->
<g id="edge3_Node000001_Node000003" class="edge">
<title>Node1&#45;&gt;Node3</title>
<g id="a_edge3_Node000001_Node000003"><a xlink:title=" ">
<path fill="none" stroke="#63b8ff" d="M144.3,-132.44C159.7,-135.77 176.11,-138.89 191.5,-141 281.08,-153.27 384.55,-157.7 455.75,-159.26"/>
<polygon fill="#63b8ff" stroke="#63b8ff" points="455.31,-162.75 465.38,-159.45 455.45,-155.75 455.31,-162.75"/>
</a>
</g>
</g>
<!-- Node4 -->
<g id="Node000004" class="node">
<title>Node4</title>
<g id="a_Node000004"><a xlink:href="../../d3/d07/namespace_g_e_u_1_1_gui_utilities.html#aac1a014e3f28af3016b31a518ded4e3f" target="_top" xlink:title=" ">
<polygon fill="white" stroke="#666666" points="296,-132 194.5,-132 194.5,-100 296,-100 296,-132"/>
<text text-anchor="start" x="202.5" y="-118.5" font-family="Helvetica,sans-Serif" font-size="10.00">GEU::GuiUtilities::</text>
<text text-anchor="middle" x="245.25" y="-106.5" font-family="Helvetica,sans-Serif" font-size="10.00">GetTableRowHeight</text>
</a>
</g>
</g>
<!-- Node1&#45;&gt;Node4 -->
<g id="edge4_Node000001_Node000004" class="edge">
<title>Node1&#45;&gt;Node4</title>
<g id="a_edge4_Node000001_Node000004"><a xlink:title=" ">
<path fill="none" stroke="#63b8ff" d="M155.69,-116C164.84,-116 174.09,-116 182.99,-116"/>
<polygon fill="#63b8ff" stroke="#63b8ff" points="182.93,-119.5 192.93,-116 182.93,-112.5 182.93,-119.5"/>
</a>
</g>
</g>
<!-- Node5 -->
<g id="Node000005" class="node">
<title>Node5</title>
<g id="a_Node000005"><a xlink:href="../../d1/d01/class_database_connector.html#af48507d47d876f6b094c6847aafa0e9d" target="_top" xlink:title=" ">
<polygon fill="white" stroke="#666666" points="299,-82 191.5,-82 191.5,-50 299,-50 299,-82"/>
<text text-anchor="start" x="199.5" y="-68.5" font-family="Helvetica,sans-Serif" font-size="10.00">DatabaseConnector::</text>
<text text-anchor="middle" x="245.25" y="-56.5" font-family="Helvetica,sans-Serif" font-size="10.00">getZonasAsync</text>
</a>
</g>
</g>
<!-- Node1&#45;&gt;Node5 -->
<g id="edge5_Node000001_Node000005" class="edge">
<title>Node1&#45;&gt;Node5</title>
<g id="a_edge5_Node000001_Node000005"><a xlink:title=" ">
<path fill="none" stroke="#63b8ff" d="M132.94,-99.63C148.11,-95.05 164.73,-90.02 180.4,-85.29"/>
<polygon fill="#63b8ff" stroke="#63b8ff" points="181.06,-88.75 189.62,-82.51 179.03,-82.05 181.06,-88.75"/>
</a>
</g>
</g>
<!-- Node6 -->
<g id="Node000006" class="node">
<title>Node6</title>
<g id="a_Node000006"><a xlink:href="../../d3/d07/namespace_g_e_u_1_1_gui_utilities.html#a4453728eb6a181d72fb1be2d7d26f73d" target="_top" xlink:title=" ">
<polygon fill="white" stroke="#666666" points="299,-32 191.5,-32 191.5,0 299,0 299,-32"/>
<text text-anchor="start" x="199.5" y="-18.5" font-family="Helvetica,sans-Serif" font-size="10.00">GEU::GuiUtilities::</text>
<text text-anchor="middle" x="245.25" y="-6.5" font-family="Helvetica,sans-Serif" font-size="10.00">makeDBQueryingInfo</text>
</a>
</g>
</g>
<!-- Node1&#45;&gt;Node6 -->
<g id="edge6_Node000001_Node000006" class="edge">
<title>Node1&#45;&gt;Node6</title>
<g id="a_edge6_Node000001_Node000006"><a xlink:title=" ">
<path fill="none" stroke="#63b8ff" d="M101.03,-99.78C123.35,-83.88 158.96,-59.4 191.5,-41 193.53,-39.85 195.63,-38.7 197.76,-37.57"/>
<polygon fill="#63b8ff" stroke="#63b8ff" points="199.21,-40.76 206.51,-33.09 196.02,-34.53 199.21,-40.76"/>
</a>
</g>
</g>
<!-- Node2&#45;&gt;Node3 -->
<g id="edge2_Node000002_Node000003" class="edge">
<title>Node2&#45;&gt;Node3</title>
<g id="a_edge2_Node000002_Node000003"><a xlink:title=" ">
<path fill="none" stroke="#63b8ff" d="M431.53,-190.8C444.3,-187.24 458.38,-183.32 472.1,-179.5"/>
<polygon fill="#63b8ff" stroke="#63b8ff" points="472.84,-182.93 481.54,-176.87 470.96,-176.18 472.84,-182.93"/>
</a>
</g>
</g>
<!-- Node7 -->
<g id="Node000007" class="node">
<title>Node7</title>
<g id="a_Node000007"><a xlink:href="../../d3/d07/namespace_g_e_u_1_1_gui_utilities.html#aa4e9186189a097316ffd71424d4a7259" target="_top" xlink:title=" ">
<polygon fill="white" stroke="#666666" points="431.25,-82 335,-82 335,-50 431.25,-50 431.25,-82"/>
<text text-anchor="start" x="343" y="-68.5" font-family="Helvetica,sans-Serif" font-size="10.00">GEU::GuiUtilities::</text>
<text text-anchor="middle" x="383.12" y="-56.5" font-family="Helvetica,sans-Serif" font-size="10.00">loadingIcon</text>
</a>
</g>
</g>
<!-- Node6&#45;&gt;Node7 -->
<g id="edge7_Node000006_Node000007" class="edge">
<title>Node6&#45;&gt;Node7</title>
<g id="a_edge7_Node000006_Node000007"><a xlink:title=" ">
<path fill="none" stroke="#63b8ff" d="M290.74,-32.37C302.24,-36.6 314.75,-41.21 326.73,-45.62"/>
<polygon fill="#63b8ff" stroke="#63b8ff" points="325.52,-48.9 336.11,-49.07 327.94,-42.33 325.52,-48.9"/>
</a>
</g>
</g>
<!-- Node8 -->
<g id="Node000008" class="node">
<title>Node8</title>
<g id="a_Node000008"><a xlink:href="../../d3/d07/namespace_g_e_u_1_1_gui_utilities.html#a7b24395f0bd0bd368bde0935682746ce" target="_top" xlink:title=" ">
<polygon fill="white" stroke="#666666" points="431.25,-32 335,-32 335,0 431.25,0 431.25,-32"/>
<text text-anchor="start" x="343" y="-18.5" font-family="Helvetica,sans-Serif" font-size="10.00">GEU::GuiUtilities::</text>
<text text-anchor="middle" x="383.12" y="-6.5" font-family="Helvetica,sans-Serif" font-size="10.00">makeLocText</text>
</a>
</g>
</g>
<!-- Node6&#45;&gt;Node8 -->
<g id="edge8_Node000006_Node000008" class="edge">
<title>Node6&#45;&gt;Node8</title>
<g id="a_edge8_Node000006_Node000008"><a xlink:title=" ">
<path fill="none" stroke="#63b8ff" d="M299.17,-16C307.17,-16 315.47,-16 323.58,-16"/>
<polygon fill="#63b8ff" stroke="#63b8ff" points="323.37,-19.5 333.37,-16 323.37,-12.5 323.37,-19.5"/>
</a>
</g>
</g>
<!-- Node8&#45;&gt;Node3 -->
<g id="edge9_Node000008_Node000003" class="edge">
<title>Node8&#45;&gt;Node3</title>
<g id="a_edge9_Node000008_Node000003"><a xlink:title=" ">
<path fill="none" stroke="#63b8ff" d="M418.43,-32.45C422.89,-35.08 427.28,-37.96 431.25,-41 467.57,-68.85 502.35,-109.14 522.97,-134.95"/>
<polygon fill="#63b8ff" stroke="#63b8ff" points="520.04,-136.88 528.97,-142.57 525.53,-132.55 520.04,-136.88"/>
</a>
</g>
</g>
</g>
</svg>
