<?xml version="1.0" encoding="UTF-8" standalone="no"?>
<!DOCTYPE svg PUBLIC "-//W3C//DTD SVG 1.1//EN"
 "http://www.w3.org/Graphics/SVG/1.1/DTD/svg11.dtd">
<!-- Generated by graphviz version 10.0.1 (20240210.2158)
 -->
<!-- Title: GEU::DatabaseNewVueloPopup::renderPopup Pages: 1 -->
<svg width="664pt" height="591pt"
 viewBox="0.00 0.00 663.75 590.89" xmlns="http://www.w3.org/2000/svg" xmlns:xlink="http://www.w3.org/1999/xlink">
<g id="graph0" class="graph" transform="scale(1 1) rotate(0) translate(4 586.89)">
<title>GEU::DatabaseNewVueloPopup::renderPopup</title>
<!-- Node1 -->
<g id="Node000001" class="node">
<title>Node1</title>
<g id="a_Node000001"><a xlink:title="Renders the popup and its contents.">
<polygon fill="#999999" stroke="#666666" points="155.5,-332 0,-332 0,-300 155.5,-300 155.5,-332"/>
<text text-anchor="start" x="8" y="-318.5" font-family="Helvetica,sans-Serif" font-size="10.00">GEU::DatabaseNewVueloPopup</text>
<text text-anchor="middle" x="77.75" y="-306.5" font-family="Helvetica,sans-Serif" font-size="10.00">::renderPopup</text>
</a>
</g>
</g>
<!-- Node2 -->
<g id="Node000002" class="node">
<title>Node2</title>
<g id="a_Node000002"><a xlink:href="../../d3/d07/namespace_g_e_u_1_1_gui_utilities.html#a52cb29f50d78b4fefd0f7f5e84483046" target="_top" xlink:title=" ">
<polygon fill="white" stroke="#666666" points="442.88,-452 346.62,-452 346.62,-420 442.88,-420 442.88,-452"/>
<text text-anchor="start" x="354.62" y="-438.5" font-family="Helvetica,sans-Serif" font-size="10.00">GEU::GuiUtilities::</text>
<text text-anchor="middle" x="394.75" y="-426.5" font-family="Helvetica,sans-Serif" font-size="10.00">BeginTableDron</text>
</a>
</g>
</g>
<!-- Node1&#45;&gt;Node2 -->
<g id="edge1_Node000001_Node000002" class="edge">
<title>Node1&#45;&gt;Node2</title>
<g id="a_edge1_Node000001_Node000002"><a xlink:title=" ">
<path fill="none" stroke="#63b8ff" d="M87.25,-332.14C103.23,-360.51 140.76,-418.44 191.5,-441 236.63,-461.07 293.2,-457.58 335.02,-450.36"/>
<polygon fill="#63b8ff" stroke="#63b8ff" points="335.46,-453.84 344.65,-448.58 334.18,-446.96 335.46,-453.84"/>
</a>
</g>
</g>
<!-- Node3 -->
<g id="Node000003" class="node">
<title>Node3</title>
<g id="a_Node000003"><a xlink:href="../../d1/d01/class_g_e_u_1_1_singleton.html#a47c7e7c2110f4cc59c9ff1f5594c366e" target="_top" xlink:title=" ">
<polygon fill="white" stroke="#666666" points="649,-502 497.25,-502 497.25,-470 649,-470 649,-502"/>
<text text-anchor="start" x="505.25" y="-488.5" font-family="Helvetica,sans-Serif" font-size="10.00">GEU::Singleton&lt; LocaleStrings</text>
<text text-anchor="middle" x="573.12" y="-476.5" font-family="Helvetica,sans-Serif" font-size="10.00"> &gt;::getInstance</text>
</a>
</g>
</g>
<!-- Node1&#45;&gt;Node3 -->
<g id="edge16_Node000001_Node000003" class="edge">
<title>Node1&#45;&gt;Node3</title>
<g id="a_edge16_Node000001_Node000003"><a xlink:title=" ">
<path fill="none" stroke="#63b8ff" d="M82.89,-332.24C93.69,-371.25 126.51,-470.76 191.5,-522 284.29,-595.17 341.06,-594.09 454.5,-561 488.83,-550.99 522.69,-527.57 545.2,-509.55"/>
<polygon fill="#63b8ff" stroke="#63b8ff" points="547.16,-512.47 552.66,-503.42 542.71,-507.06 547.16,-512.47"/>
</a>
</g>
</g>
<!-- Node4 -->
<g id="Node000004" class="node">
<title>Node4</title>
<g id="a_Node000004"><a xlink:href="../../d3/d07/namespace_g_e_u_1_1_gui_utilities.html#a19a864db5dec589998f84e7ad39922e3" target="_top" xlink:title=" ">
<polygon fill="white" stroke="#666666" points="442.88,-552 346.62,-552 346.62,-520 442.88,-520 442.88,-552"/>
<text text-anchor="start" x="354.62" y="-538.5" font-family="Helvetica,sans-Serif" font-size="10.00">GEU::GuiUtilities::</text>
<text text-anchor="middle" x="394.75" y="-526.5" font-family="Helvetica,sans-Serif" font-size="10.00">BeginTableVuelo</text>
</a>
</g>
</g>
<!-- Node1&#45;&gt;Node4 -->
<g id="edge3_Node000001_Node000004" class="edge">
<title>Node1&#45;&gt;Node4</title>
<g id="a_edge3_Node000001_Node000004"><a xlink:title=" ">
<path fill="none" stroke="#63b8ff" d="M84.54,-332.35C97.7,-367.06 133.35,-448.29 191.5,-489 233.7,-518.54 291.81,-529.75 334.91,-533.88"/>
<polygon fill="#63b8ff" stroke="#63b8ff" points="334.6,-537.37 344.86,-534.72 335.19,-530.39 334.6,-537.37"/>
</a>
</g>
</g>
<!-- Node5 -->
<g id="Node000005" class="node">
<title>Node5</title>
<g id="a_Node000005"><a xlink:href="../../d3/d07/namespace_g_e_u_1_1_gui_utilities.html#af94965eb0ce2f4e1e5ee22fd33bf4574" target="_top" xlink:title=" ">
<polygon fill="white" stroke="#666666" points="442.88,-502 346.62,-502 346.62,-470 442.88,-470 442.88,-502"/>
<text text-anchor="start" x="354.62" y="-488.5" font-family="Helvetica,sans-Serif" font-size="10.00">GEU::GuiUtilities::</text>
<text text-anchor="middle" x="394.75" y="-476.5" font-family="Helvetica,sans-Serif" font-size="10.00">BeginTableZona</text>
</a>
</g>
</g>
<!-- Node1&#45;&gt;Node5 -->
<g id="edge5_Node000001_Node000005" class="edge">
<title>Node1&#45;&gt;Node5</title>
<g id="a_edge5_Node000001_Node000005"><a xlink:title=" ">
<path fill="none" stroke="#63b8ff" d="M85.88,-332.15C100.57,-363.32 137.45,-431.36 191.5,-462 235.18,-486.76 292.62,-491.43 335.12,-490.69"/>
<polygon fill="#63b8ff" stroke="#63b8ff" points="335.01,-494.2 344.9,-490.4 334.8,-487.2 335.01,-494.2"/>
</a>
</g>
</g>
<!-- Node6 -->
<g id="Node000006" class="node">
<title>Node6</title>
<g id="a_Node000006"><a xlink:href="../../d3/d07/namespace_g_e_u_1_1_gui_utilities.html#a4a9fd6dae16881311edd3998ece123bf" target="_top" xlink:title=" ">
<polygon fill="white" stroke="#666666" points="293.38,-432 197.12,-432 197.12,-400 293.38,-400 293.38,-432"/>
<text text-anchor="start" x="205.12" y="-418.5" font-family="Helvetica,sans-Serif" font-size="10.00">GEU::GuiUtilities::</text>
<text text-anchor="middle" x="245.25" y="-406.5" font-family="Helvetica,sans-Serif" font-size="10.00">Button</text>
</a>
</g>
</g>
<!-- Node1&#45;&gt;Node6 -->
<g id="edge7_Node000001_Node000006" class="edge">
<title>Node1&#45;&gt;Node6</title>
<g id="a_edge7_Node000001_Node000006"><a xlink:title=" ">
<path fill="none" stroke="#63b8ff" d="M101.03,-332.22C123.35,-348.12 158.96,-372.6 191.5,-391 193.53,-392.15 195.63,-393.3 197.76,-394.43"/>
<polygon fill="#63b8ff" stroke="#63b8ff" points="196.02,-397.47 206.51,-398.91 199.21,-391.24 196.02,-397.47"/>
</a>
</g>
</g>
<!-- Node7 -->
<g id="Node000007" class="node">
<title>Node7</title>
<g id="a_Node000007"><a xlink:href="../../d3/d07/namespace_g_e_u_1_1_gui_utilities.html#a7e5f58fc1e47794679b999cd5778b7aa" target="_top" xlink:title=" ">
<polygon fill="white" stroke="#666666" points="293.38,-382 197.12,-382 197.12,-350 293.38,-350 293.38,-382"/>
<text text-anchor="start" x="205.12" y="-368.5" font-family="Helvetica,sans-Serif" font-size="10.00">GEU::GuiUtilities::</text>
<text text-anchor="middle" x="245.25" y="-356.5" font-family="Helvetica,sans-Serif" font-size="10.00">CollapsingHeader</text>
</a>
</g>
</g>
<!-- Node1&#45;&gt;Node7 -->
<g id="edge8_Node000001_Node000007" class="edge">
<title>Node1&#45;&gt;Node7</title>
<g id="a_edge8_Node000001_Node000007"><a xlink:title=" ">
<path fill="none" stroke="#63b8ff" d="M132.94,-332.37C150.04,-337.54 168.99,-343.26 186.33,-348.5"/>
<polygon fill="#63b8ff" stroke="#63b8ff" points="184.86,-351.71 195.45,-351.26 186.89,-345.01 184.86,-351.71"/>
</a>
</g>
</g>
<!-- Node8 -->
<g id="Node000008" class="node">
<title>Node8</title>
<g id="a_Node000008"><a xlink:href="../../d3/d07/namespace_g_e_u_1_1_gui_utilities.html#ace4bb8c12a9996fe8f1a3b4cb21bff1d" target="_top" xlink:title=" ">
<polygon fill="white" stroke="#666666" points="293.38,-332 197.12,-332 197.12,-300 293.38,-300 293.38,-332"/>
<text text-anchor="start" x="205.12" y="-318.5" font-family="Helvetica,sans-Serif" font-size="10.00">GEU::GuiUtilities::</text>
<text text-anchor="middle" x="245.25" y="-306.5" font-family="Helvetica,sans-Serif" font-size="10.00">DatePicker</text>
</a>
</g>
</g>
<!-- Node1&#45;&gt;Node8 -->
<g id="edge9_Node000001_Node000008" class="edge">
<title>Node1&#45;&gt;Node8</title>
<g id="a_edge9_Node000001_Node000008"><a xlink:title=" ">
<path fill="none" stroke="#63b8ff" d="M155.69,-316C165.65,-316 175.72,-316 185.33,-316"/>
<polygon fill="#63b8ff" stroke="#63b8ff" points="185.26,-319.5 195.26,-316 185.26,-312.5 185.26,-319.5"/>
</a>
</g>
</g>
<!-- Node14 -->
<g id="Node000014" class="node">
<title>Node14</title>
<g id="a_Node000014"><a xlink:href="../../d3/d07/namespace_g_e_u_1_1_gui_utilities.html#a776427878fe3898a385f3ee794bdc183" target="_top" xlink:title=" ">
<polygon fill="white" stroke="#666666" points="293.38,-232 197.12,-232 197.12,-200 293.38,-200 293.38,-232"/>
<text text-anchor="start" x="205.12" y="-218.5" font-family="Helvetica,sans-Serif" font-size="10.00">GEU::GuiUtilities::</text>
<text text-anchor="middle" x="245.25" y="-206.5" font-family="Helvetica,sans-Serif" font-size="10.00">InputInt</text>
</a>
</g>
</g>
<!-- Node1&#45;&gt;Node14 -->
<g id="edge17_Node000001_Node000014" class="edge">
<title>Node1&#45;&gt;Node14</title>
<g id="a_edge17_Node000001_Node000014"><a xlink:title=" ">
<path fill="none" stroke="#63b8ff" d="M101.03,-299.78C123.35,-283.88 158.96,-259.4 191.5,-241 193.53,-239.85 195.63,-238.7 197.76,-237.57"/>
<polygon fill="#63b8ff" stroke="#63b8ff" points="199.21,-240.76 206.51,-233.09 196.02,-234.53 199.21,-240.76"/>
</a>
</g>
</g>
<!-- Node15 -->
<g id="Node000015" class="node">
<title>Node15</title>
<g id="a_Node000015"><a xlink:href="../../d3/d07/namespace_g_e_u_1_1_gui_utilities.html#a0c8f0f5af8119c36fa703bc2ed301bde" target="_top" xlink:title=" ">
<polygon fill="white" stroke="#666666" points="293.38,-132 197.12,-132 197.12,-100 293.38,-100 293.38,-132"/>
<text text-anchor="start" x="205.12" y="-118.5" font-family="Helvetica,sans-Serif" font-size="10.00">GEU::GuiUtilities::</text>
<text text-anchor="middle" x="245.25" y="-106.5" font-family="Helvetica,sans-Serif" font-size="10.00">InputText</text>
</a>
</g>
</g>
<!-- Node1&#45;&gt;Node15 -->
<g id="edge19_Node000001_Node000015" class="edge">
<title>Node1&#45;&gt;Node15</title>
<g id="a_edge19_Node000001_Node000015"><a xlink:title=" ">
<path fill="none" stroke="#63b8ff" d="M85.54,-299.63C100.26,-265.89 138.13,-187.86 191.5,-141 192.28,-140.31 193.09,-139.64 193.91,-138.98"/>
<polygon fill="#63b8ff" stroke="#63b8ff" points="195.84,-141.91 202.09,-133.36 191.87,-136.14 195.84,-141.91"/>
</a>
</g>
</g>
<!-- Node16 -->
<g id="Node000016" class="node">
<title>Node16</title>
<g id="a_Node000016"><a xlink:href="../../d1/d01/class_database_connector.html#a953d13da784dceb73bb44a6c8d23a4b1" target="_top" xlink:title="Inserta un producto en la base de datos.">
<polygon fill="white" stroke="#666666" points="299,-182 191.5,-182 191.5,-150 299,-150 299,-182"/>
<text text-anchor="start" x="199.5" y="-168.5" font-family="Helvetica,sans-Serif" font-size="10.00">DatabaseConnector::</text>
<text text-anchor="middle" x="245.25" y="-156.5" font-family="Helvetica,sans-Serif" font-size="10.00">insert</text>
</a>
</g>
</g>
<!-- Node1&#45;&gt;Node16 -->
<g id="edge21_Node000001_Node000016" class="edge">
<title>Node1&#45;&gt;Node16</title>
<g id="a_edge21_Node000001_Node000016"><a xlink:title=" ">
<path fill="none" stroke="#63b8ff" d="M90.25,-299.52C108.99,-273.63 148.36,-223.1 191.5,-191 192.67,-190.13 193.87,-189.28 195.1,-188.45"/>
<polygon fill="#63b8ff" stroke="#63b8ff" points="196.9,-191.45 203.63,-183.27 193.27,-185.47 196.9,-191.45"/>
</a>
</g>
</g>
<!-- Node17 -->
<g id="Node000017" class="node">
<title>Node17</title>
<g id="a_Node000017"><a xlink:href="../../d3/d07/namespace_g_e_u_1_1_gui_utilities.html#a84bb8e77631e925660765d1e2e9104c2" target="_top" xlink:title=" ">
<polygon fill="white" stroke="#666666" points="293.38,-32 197.12,-32 197.12,0 293.38,0 293.38,-32"/>
<text text-anchor="start" x="205.12" y="-18.5" font-family="Helvetica,sans-Serif" font-size="10.00">GEU::GuiUtilities::</text>
<text text-anchor="middle" x="245.25" y="-6.5" font-family="Helvetica,sans-Serif" font-size="10.00">InsertToast</text>
</a>
</g>
</g>
<!-- Node1&#45;&gt;Node17 -->
<g id="edge22_Node000001_Node000017" class="edge">
<title>Node1&#45;&gt;Node17</title>
<g id="a_edge22_Node000001_Node000017"><a xlink:title=" ">
<path fill="none" stroke="#63b8ff" d="M81.25,-299.51C89.11,-253.03 117.31,-119.27 191.5,-41 191.98,-40.49 192.47,-40 192.97,-39.51"/>
<polygon fill="#63b8ff" stroke="#63b8ff" points="195.11,-42.28 200.77,-33.32 190.76,-36.8 195.11,-42.28"/>
</a>
</g>
</g>
<!-- Node19 -->
<g id="Node000019" class="node">
<title>Node19</title>
<g id="a_Node000019"><a xlink:href="../../d3/d07/namespace_g_e_u_1_1_gui_utilities.html#ae4d14264e67621c5997464e18c781ea0" target="_top" xlink:title=" ">
<polygon fill="white" stroke="#666666" points="293.38,-82 197.12,-82 197.12,-50 293.38,-50 293.38,-82"/>
<text text-anchor="start" x="205.12" y="-68.5" font-family="Helvetica,sans-Serif" font-size="10.00">GEU::GuiUtilities::</text>
<text text-anchor="middle" x="245.25" y="-56.5" font-family="Helvetica,sans-Serif" font-size="10.00">SeparatorText</text>
</a>
</g>
</g>
<!-- Node1&#45;&gt;Node19 -->
<g id="edge24_Node000001_Node000019" class="edge">
<title>Node1&#45;&gt;Node19</title>
<g id="a_edge24_Node000001_Node000019"><a xlink:title=" ">
<path fill="none" stroke="#63b8ff" d="M82.93,-299.64C94.02,-259.2 127.79,-153.33 191.5,-91 192.11,-90.4 192.74,-89.82 193.38,-89.24"/>
<polygon fill="#63b8ff" stroke="#63b8ff" points="195.34,-92.15 201.25,-83.36 191.14,-86.55 195.34,-92.15"/>
</a>
</g>
</g>
<!-- Node20 -->
<g id="Node000020" class="node">
<title>Node20</title>
<g id="a_Node000020"><a xlink:href="../../d3/d07/namespace_g_e_u_1_1_gui_utilities.html#ab3369ffa13f07d2bbdc2b3414f4293ba" target="_top" xlink:title=" ">
<polygon fill="white" stroke="#666666" points="293.38,-282 197.12,-282 197.12,-250 293.38,-250 293.38,-282"/>
<text text-anchor="start" x="205.12" y="-268.5" font-family="Helvetica,sans-Serif" font-size="10.00">GEU::GuiUtilities::</text>
<text text-anchor="middle" x="245.25" y="-256.5" font-family="Helvetica,sans-Serif" font-size="10.00">TimePicker</text>
</a>
</g>
</g>
<!-- Node1&#45;&gt;Node20 -->
<g id="edge25_Node000001_Node000020" class="edge">
<title>Node1&#45;&gt;Node20</title>
<g id="a_edge25_Node000001_Node000020"><a xlink:title=" ">
<path fill="none" stroke="#63b8ff" d="M132.94,-299.63C150.04,-294.46 168.99,-288.74 186.33,-283.5"/>
<polygon fill="#63b8ff" stroke="#63b8ff" points="186.89,-286.99 195.45,-280.74 184.86,-280.29 186.89,-286.99"/>
</a>
</g>
</g>
<!-- Node2&#45;&gt;Node3 -->
<g id="edge2_Node000002_Node000003" class="edge">
<title>Node2&#45;&gt;Node3</title>
<g id="a_edge2_Node000002_Node000003"><a xlink:title=" ">
<path fill="none" stroke="#63b8ff" d="M443.02,-449.4C461.44,-454.62 482.93,-460.71 503.02,-466.41"/>
<polygon fill="#63b8ff" stroke="#63b8ff" points="501.99,-469.75 512.56,-469.11 503.9,-463.02 501.99,-469.75"/>
</a>
</g>
</g>
<!-- Node4&#45;&gt;Node3 -->
<g id="edge4_Node000004_Node000003" class="edge">
<title>Node4&#45;&gt;Node3</title>
<g id="a_edge4_Node000004_Node000003"><a xlink:title=" ">
<path fill="none" stroke="#63b8ff" d="M443.02,-522.6C461.44,-517.38 482.93,-511.29 503.02,-505.59"/>
<polygon fill="#63b8ff" stroke="#63b8ff" points="503.9,-508.98 512.56,-502.89 501.99,-502.25 503.9,-508.98"/>
</a>
</g>
</g>
<!-- Node5&#45;&gt;Node3 -->
<g id="edge6_Node000005_Node000003" class="edge">
<title>Node5&#45;&gt;Node3</title>
<g id="a_edge6_Node000005_Node000003"><a xlink:title=" ">
<path fill="none" stroke="#63b8ff" d="M443.02,-486C456.19,-486 470.93,-486 485.6,-486"/>
<polygon fill="#63b8ff" stroke="#63b8ff" points="485.27,-489.5 495.27,-486 485.27,-482.5 485.27,-489.5"/>
</a>
</g>
</g>
<!-- Node9 -->
<g id="Node000009" class="node">
<title>Node9</title>
<g id="a_Node000009"><a xlink:href="../../df/d03/namespace_im_gui.html#ab1cfdde853c2682d74a3a3528ac09494" target="_top" xlink:title=" ">
<polygon fill="white" stroke="#666666" points="446.62,-364 342.88,-364 342.88,-344 446.62,-344 446.62,-364"/>
<text text-anchor="middle" x="394.75" y="-350.5" font-family="Helvetica,sans-Serif" font-size="10.00">ImGui::DateChooser</text>
</a>
</g>
</g>
<!-- Node8&#45;&gt;Node9 -->
<g id="edge10_Node000008_Node000009" class="edge">
<title>Node8&#45;&gt;Node9</title>
<g id="a_edge10_Node000008_Node000009"><a xlink:title=" ">
<path fill="none" stroke="#63b8ff" d="M293.73,-328.23C309.33,-332.25 326.74,-336.74 342.6,-340.82"/>
<polygon fill="#63b8ff" stroke="#63b8ff" points="341.27,-344.09 351.83,-343.2 343.02,-337.32 341.27,-344.09"/>
</a>
</g>
</g>
<!-- Node13 -->
<g id="Node000013" class="node">
<title>Node13</title>
<g id="a_Node000013"><a xlink:href="../../d3/d07/namespace_g_e_u_1_1_gui_utilities.html#a76a49056660c5a9246a94564afbb676a" target="_top" xlink:title=" ">
<polygon fill="white" stroke="#666666" points="452.25,-251 337.25,-251 337.25,-231 452.25,-231 452.25,-251"/>
<text text-anchor="middle" x="394.75" y="-237.5" font-family="Helvetica,sans-Serif" font-size="10.00">GEU::GuiUtilities::Text</text>
</a>
</g>
</g>
<!-- Node8&#45;&gt;Node13 -->
<g id="edge15_Node000008_Node000013" class="edge">
<title>Node8&#45;&gt;Node13</title>
<g id="a_edge15_Node000008_Node000013"><a xlink:title=" ">
<path fill="none" stroke="#63b8ff" d="M281.54,-299.53C287.39,-296.73 293.38,-293.81 299,-291 321.21,-279.88 346.03,-266.76 364.69,-256.75"/>
<polygon fill="#63b8ff" stroke="#63b8ff" points="366.16,-259.93 373.31,-252.11 362.84,-253.77 366.16,-259.93"/>
</a>
</g>
</g>
<!-- Node9&#45;&gt;Node3 -->
<g id="edge13_Node000009_Node000003" class="edge">
<title>Node9&#45;&gt;Node3</title>
<g id="a_edge13_Node000009_Node000003"><a xlink:title=" ">
<path fill="none" stroke="#63b8ff" d="M409.59,-364.36C437.86,-385.51 502.82,-434.13 541.51,-463.09"/>
<polygon fill="#63b8ff" stroke="#63b8ff" points="538.96,-465.55 549.06,-468.74 543.16,-459.95 538.96,-465.55"/>
</a>
</g>
</g>
<!-- Node10 -->
<g id="Node000010" class="node">
<title>Node10</title>
<g id="a_Node000010"><a xlink:href="../../df/d03/namespace_im_gui.html#a4305042c283d89a8db95b69c245dd4cd" target="_top" xlink:title=" ">
<polygon fill="white" stroke="#666666" points="630.62,-364 515.62,-364 515.62,-344 630.62,-344 630.62,-364"/>
<text text-anchor="middle" x="573.12" y="-350.5" font-family="Helvetica,sans-Serif" font-size="10.00">ImGui::GetCurrentDate</text>
</a>
</g>
</g>
<!-- Node9&#45;&gt;Node10 -->
<g id="edge11_Node000009_Node000010" class="edge">
<title>Node9&#45;&gt;Node10</title>
<g id="a_edge11_Node000009_Node000010"><a xlink:title=" ">
<path fill="none" stroke="#63b8ff" d="M446.76,-354C464.63,-354 484.98,-354 504.01,-354"/>
<polygon fill="#63b8ff" stroke="#63b8ff" points="503.83,-357.5 513.83,-354 503.83,-350.5 503.83,-357.5"/>
</a>
</g>
</g>
<!-- Node11 -->
<g id="Node000011" class="node">
<title>Node11</title>
<g id="a_Node000011"><a xlink:href="../../df/d03/namespace_im_gui.html#aab4714f905121e39fd75f60a9ca854cf" target="_top" xlink:title=" ">
<polygon fill="white" stroke="#666666" points="624.25,-326 522,-326 522,-306 624.25,-306 624.25,-326"/>
<text text-anchor="middle" x="573.12" y="-312.5" font-family="Helvetica,sans-Serif" font-size="10.00">ImGui::GetDateZero</text>
</a>
</g>
</g>
<!-- Node9&#45;&gt;Node11 -->
<g id="edge12_Node000009_Node000011" class="edge">
<title>Node9&#45;&gt;Node11</title>
<g id="a_edge12_Node000009_Node000011"><a xlink:title=" ">
<path fill="none" stroke="#63b8ff" d="M444.41,-343.52C465.52,-338.97 490.44,-333.6 512.64,-328.82"/>
<polygon fill="#63b8ff" stroke="#63b8ff" points="513.1,-332.3 522.14,-326.77 511.63,-325.45 513.1,-332.3"/>
</a>
</g>
</g>
<!-- Node12 -->
<g id="Node000012" class="node">
<title>Node12</title>
<g id="a_Node000012"><a xlink:href="../../df/d03/namespace_im_gui.html#ab5acf061aabc3ecd45051883508c8274" target="_top" xlink:title=" ">
<polygon fill="white" stroke="#666666" points="655.75,-414 490.5,-414 490.5,-382 655.75,-382 655.75,-414"/>
<text text-anchor="start" x="498.5" y="-400.5" font-family="Helvetica,sans-Serif" font-size="10.00">ImGui::RecalculateDateDependent</text>
<text text-anchor="middle" x="573.12" y="-388.5" font-family="Helvetica,sans-Serif" font-size="10.00">Fields</text>
</a>
</g>
</g>
<!-- Node9&#45;&gt;Node12 -->
<g id="edge14_Node000009_Node000012" class="edge">
<title>Node9&#45;&gt;Node12</title>
<g id="a_edge14_Node000009_Node000012"><a xlink:title=" ">
<path fill="none" stroke="#63b8ff" d="M437.55,-364.43C454.82,-368.74 475.42,-373.88 495.24,-378.82"/>
<polygon fill="#63b8ff" stroke="#63b8ff" points="494.13,-382.15 504.68,-381.17 495.83,-375.36 494.13,-382.15"/>
</a>
</g>
</g>
<!-- Node14&#45;&gt;Node13 -->
<g id="edge18_Node000014_Node000013" class="edge">
<title>Node14&#45;&gt;Node13</title>
<g id="a_edge18_Node000014_Node000013"><a xlink:title=" ">
<path fill="none" stroke="#63b8ff" d="M293.73,-224.05C303.92,-225.77 314.88,-227.63 325.67,-229.46"/>
<polygon fill="#63b8ff" stroke="#63b8ff" points="324.89,-232.88 335.33,-231.1 326.06,-225.98 324.89,-232.88"/>
</a>
</g>
</g>
<!-- Node15&#45;&gt;Node13 -->
<g id="edge20_Node000015_Node000013" class="edge">
<title>Node15&#45;&gt;Node13</title>
<g id="a_edge20_Node000015_Node000013"><a xlink:title=" ">
<path fill="none" stroke="#63b8ff" d="M285.23,-132.43C290.02,-135.04 294.73,-137.91 299,-141 331.4,-164.5 361.94,-200.02 379.19,-221.79"/>
<polygon fill="#63b8ff" stroke="#63b8ff" points="376.32,-223.79 385.22,-229.54 381.85,-219.5 376.32,-223.79"/>
</a>
</g>
</g>
<!-- Node18 -->
<g id="Node000018" class="node">
<title>Node18</title>
<g id="a_Node000018"><a xlink:href="../../df/d03/namespace_im_gui.html#accd100b531b171ee1a63232f9f5916fc" target="_top" xlink:title=" ">
<polygon fill="white" stroke="#666666" points="454.5,-26 335,-26 335,-6 454.5,-6 454.5,-26"/>
<text text-anchor="middle" x="394.75" y="-12.5" font-family="Helvetica,sans-Serif" font-size="10.00">ImGui::InsertNotification</text>
</a>
</g>
</g>
<!-- Node17&#45;&gt;Node18 -->
<g id="edge23_Node000017_Node000018" class="edge">
<title>Node17&#45;&gt;Node18</title>
<g id="a_edge23_Node000017_Node000018"><a xlink:title=" ">
<path fill="none" stroke="#63b8ff" d="M293.73,-16C303.22,-16 313.37,-16 323.43,-16"/>
<polygon fill="#63b8ff" stroke="#63b8ff" points="323.21,-19.5 333.21,-16 323.21,-12.5 323.21,-19.5"/>
</a>
</g>
</g>
<!-- Node20&#45;&gt;Node13 -->
<g id="edge26_Node000020_Node000013" class="edge">
<title>Node20&#45;&gt;Node13</title>
<g id="a_edge26_Node000020_Node000013"><a xlink:title=" ">
<path fill="none" stroke="#63b8ff" d="M293.73,-257.95C303.92,-256.23 314.88,-254.37 325.67,-252.54"/>
<polygon fill="#63b8ff" stroke="#63b8ff" points="326.06,-256.02 335.33,-250.9 324.89,-249.12 326.06,-256.02"/>
</a>
</g>
</g>
</g>
</svg>
