<?xml version="1.0" encoding="UTF-8" standalone="no"?>
<!DOCTYPE svg PUBLIC "-//W3C//DTD SVG 1.1//EN"
 "http://www.w3.org/Graphics/SVG/1.1/DTD/svg11.dtd">
<!-- Generated by graphviz version 10.0.1 (20240210.2158)
 -->
<!-- Title: C:/GitHub/GEU/GEU/Source/Core/TriangleMesh.h Pages: 1 -->
<svg width="944pt" height="108pt"
 viewBox="0.00 0.00 943.50 108.00" xmlns="http://www.w3.org/2000/svg" xmlns:xlink="http://www.w3.org/1999/xlink">
<g id="graph0" class="graph" transform="scale(1 1) rotate(0) translate(4 104)">
<title>C:/GitHub/GEU/GEU/Source/Core/TriangleMesh.h</title>
<!-- Node1 -->
<g id="Node000001" class="node">
<title>Node1</title>
<g id="a_Node000001"><a xlink:title=" ">
<polygon fill="#999999" stroke="#666666" points="537.5,-100 397,-100 397,-68 537.5,-68 537.5,-100"/>
<text text-anchor="start" x="405" y="-86.5" font-family="Helvetica,sans-Serif" font-size="10.00">C:/GitHub/GEU/GEU/Source</text>
<text text-anchor="middle" x="467.25" y="-74.5" font-family="Helvetica,sans-Serif" font-size="10.00">/Core/TriangleMesh.h</text>
</a>
</g>
</g>
<!-- Node2 -->
<g id="Node000002" class="node">
<title>Node2</title>
<g id="a_Node000002"><a xlink:href="../../da/d84/_renderer_8cpp.html" target="_top" xlink:title=" ">
<polygon fill="white" stroke="#666666" points="140.5,-32 0,-32 0,0 140.5,0 140.5,-32"/>
<text text-anchor="start" x="8" y="-18.5" font-family="Helvetica,sans-Serif" font-size="10.00">C:/GitHub/GEU/GEU/Source</text>
<text text-anchor="middle" x="70.25" y="-6.5" font-family="Helvetica,sans-Serif" font-size="10.00">/Core/Renderer.cpp</text>
</a>
</g>
</g>
<!-- Node1&#45;&gt;Node2 -->
<g id="edge1_Node000001_Node000002" class="edge">
<title>Node1&#45;&gt;Node2</title>
<g id="a_edge1_Node000001_Node000002"><a xlink:title=" ">
<path fill="none" stroke="#63b8ff" d="M385.42,-70.43C321.35,-60.44 230.03,-45.89 150.25,-32 147.19,-31.47 144.06,-30.91 140.9,-30.35"/>
<polygon fill="#63b8ff" stroke="#63b8ff" points="384.74,-73.87 395.16,-71.94 385.82,-66.95 384.74,-73.87"/>
</a>
</g>
</g>
<!-- Node3 -->
<g id="Node000003" class="node">
<title>Node3</title>
<g id="a_Node000003"><a xlink:href="../../d9/d44/_scene_8cpp.html" target="_top" xlink:title=" ">
<polygon fill="white" stroke="#666666" points="299.5,-32 159,-32 159,0 299.5,0 299.5,-32"/>
<text text-anchor="start" x="167" y="-18.5" font-family="Helvetica,sans-Serif" font-size="10.00">C:/GitHub/GEU/GEU/Source</text>
<text text-anchor="middle" x="229.25" y="-6.5" font-family="Helvetica,sans-Serif" font-size="10.00">/Core/Scene.cpp</text>
</a>
</g>
</g>
<!-- Node1&#45;&gt;Node3 -->
<g id="edge2_Node000001_Node000003" class="edge">
<title>Node1&#45;&gt;Node3</title>
<g id="a_edge2_Node000001_Node000003"><a xlink:title=" ">
<path fill="none" stroke="#63b8ff" d="M400.45,-64.47C364.08,-54.39 319.61,-42.06 285.11,-32.49"/>
<polygon fill="#63b8ff" stroke="#63b8ff" points="399.42,-67.82 409.99,-67.12 401.29,-61.08 399.42,-67.82"/>
</a>
</g>
</g>
<!-- Node4 -->
<g id="Node000004" class="node">
<title>Node4</title>
<g id="a_Node000004"><a xlink:href="../../d3/d6e/_triangle_mesh_8cpp.html" target="_top" xlink:title=" ">
<polygon fill="white" stroke="#666666" points="458.5,-32 318,-32 318,0 458.5,0 458.5,-32"/>
<text text-anchor="start" x="326" y="-18.5" font-family="Helvetica,sans-Serif" font-size="10.00">C:/GitHub/GEU/GEU/Source</text>
<text text-anchor="middle" x="388.25" y="-6.5" font-family="Helvetica,sans-Serif" font-size="10.00">/Core/TriangleMesh.cpp</text>
</a>
</g>
</g>
<!-- Node1&#45;&gt;Node4 -->
<g id="edge3_Node000001_Node000004" class="edge">
<title>Node1&#45;&gt;Node4</title>
<g id="a_edge3_Node000001_Node000004"><a xlink:title=" ">
<path fill="none" stroke="#63b8ff" d="M440.11,-60.32C429.1,-51.13 416.68,-40.75 406.75,-32.45"/>
<polygon fill="#63b8ff" stroke="#63b8ff" points="437.85,-63 447.77,-66.72 442.34,-57.62 437.85,-63"/>
</a>
</g>
</g>
<!-- Node5 -->
<g id="Node000005" class="node">
<title>Node5</title>
<g id="a_Node000005"><a xlink:href="../../df/d72/_details_window_8cpp.html" target="_top" xlink:title=" ">
<polygon fill="white" stroke="#666666" points="617.5,-32 477,-32 477,0 617.5,0 617.5,-32"/>
<text text-anchor="start" x="485" y="-18.5" font-family="Helvetica,sans-Serif" font-size="10.00">C:/GitHub/GEU/GEU/Source</text>
<text text-anchor="middle" x="547.25" y="-6.5" font-family="Helvetica,sans-Serif" font-size="10.00">/UI/DetailsWindow.cpp</text>
</a>
</g>
</g>
<!-- Node1&#45;&gt;Node5 -->
<g id="edge4_Node000001_Node000005" class="edge">
<title>Node1&#45;&gt;Node5</title>
<g id="a_edge4_Node000001_Node000005"><a xlink:title=" ">
<path fill="none" stroke="#63b8ff" d="M494.4,-60.6C505.63,-51.34 518.36,-40.83 528.52,-32.45"/>
<polygon fill="#63b8ff" stroke="#63b8ff" points="492.46,-57.67 486.97,-66.73 496.91,-63.07 492.46,-57.67"/>
</a>
</g>
</g>
<!-- Node6 -->
<g id="Node000006" class="node">
<title>Node6</title>
<g id="a_Node000006"><a xlink:href="../../df/da0/_inspector_window_8cpp.html" target="_top" xlink:title=" ">
<polygon fill="white" stroke="#666666" points="776.5,-32 636,-32 636,0 776.5,0 776.5,-32"/>
<text text-anchor="start" x="644" y="-18.5" font-family="Helvetica,sans-Serif" font-size="10.00">C:/GitHub/GEU/GEU/Source</text>
<text text-anchor="middle" x="706.25" y="-6.5" font-family="Helvetica,sans-Serif" font-size="10.00">/UI/InspectorWindow.cpp</text>
</a>
</g>
</g>
<!-- Node1&#45;&gt;Node6 -->
<g id="edge5_Node000001_Node000006" class="edge">
<title>Node1&#45;&gt;Node6</title>
<g id="a_edge5_Node000001_Node000006"><a xlink:title=" ">
<path fill="none" stroke="#63b8ff" d="M534.34,-64.47C570.85,-54.39 615.51,-42.06 650.15,-32.49"/>
<polygon fill="#63b8ff" stroke="#63b8ff" points="533.45,-61.09 524.74,-67.12 535.31,-67.83 533.45,-61.09"/>
</a>
</g>
</g>
<!-- Node7 -->
<g id="Node000007" class="node">
<title>Node7</title>
<g id="a_Node000007"><a xlink:href="../../d3/d93/_file_manager_8cpp.html" target="_top" xlink:title=" ">
<polygon fill="white" stroke="#666666" points="935.5,-32 795,-32 795,0 935.5,0 935.5,-32"/>
<text text-anchor="start" x="803" y="-18.5" font-family="Helvetica,sans-Serif" font-size="10.00">C:/GitHub/GEU/GEU/Source</text>
<text text-anchor="middle" x="865.25" y="-6.5" font-family="Helvetica,sans-Serif" font-size="10.00">/Utilities/FileManager.cpp</text>
</a>
</g>
</g>
<!-- Node1&#45;&gt;Node7 -->
<g id="edge6_Node000001_Node000007" class="edge">
<title>Node1&#45;&gt;Node7</title>
<g id="a_edge6_Node000001_Node000007"><a xlink:title=" ">
<path fill="none" stroke="#63b8ff" d="M549.03,-70.49C613.32,-60.51 705.09,-45.94 785.25,-32 788.31,-31.47 791.44,-30.92 794.6,-30.35"/>
<polygon fill="#63b8ff" stroke="#63b8ff" points="548.6,-67.02 539.25,-72.01 549.67,-73.93 548.6,-67.02"/>
</a>
</g>
</g>
</g>
</svg>
