<?xml version="1.0" encoding="UTF-8" standalone="no"?>
<!DOCTYPE svg PUBLIC "-//W3C//DTD SVG 1.1//EN"
 "http://www.w3.org/Graphics/SVG/1.1/DTD/svg11.dtd">
<!-- Generated by graphviz version 10.0.1 (20240210.2158)
 -->
<!-- Title: GEU::ThermalGUIAdapter::renderGuiObject Pages: 1 -->
<svg width="480pt" height="354pt"
 viewBox="0.00 0.00 479.75 353.59" xmlns="http://www.w3.org/2000/svg" xmlns:xlink="http://www.w3.org/1999/xlink">

<svg id="main" version="1.1" xmlns="http://www.w3.org/2000/svg" xmlns:xlink="http://www.w3.org/1999/xlink" xml:space="preserve" onload="init(evt)">
<style type="text/css"><![CDATA[
.node, .edge {opacity: 0.7;}
.node.selected, .edge.selected {opacity: 1;}
.edge:hover path { stroke: red; }
.edge:hover polygon { stroke: red; fill: red; }
]]></style>
<script type="application/ecmascript" xlink:href="../../svg.min.js"/>
<svg id="graph" class="graph">
<g id="graph0" class="graph" transform="scale(1 1) rotate(0) translate(4 349.59)">
<title>GEU::ThermalGUIAdapter::renderGuiObject</title>
<!-- Node1 -->
<g id="Node000001" class="node">
<title>Node1</title>
<g id="a_Node000001"><a xlink:title="Custom module GUI window contents.">
<polygon fill="#999999" stroke="#666666" points="127.75,-213.59 0,-213.59 0,-181.59 127.75,-181.59 127.75,-213.59"/>
<text text-anchor="start" x="8" y="-200.09" font-family="Helvetica,sans-Serif" font-size="10.00">GEU::ThermalGUIAdapter</text>
<text text-anchor="middle" x="63.88" y="-188.09" font-family="Helvetica,sans-Serif" font-size="10.00">::renderGuiObject</text>
</a>
</g>
</g>
<!-- Node2 -->
<g id="Node000002" class="node">
<title>Node2</title>
<g id="a_Node000002"><a xlink:href="../../de/de6/class_g_e_u_1_1_g_u_i.html#a7b3101bbac98cc31f1d02eea41cda857" target="_top" xlink:title="Inserts new popup window to queue.">
<polygon fill="white" stroke="#666666" points="278.38,-345.59 169.38,-345.59 169.38,-325.59 278.38,-325.59 278.38,-345.59"/>
<text text-anchor="middle" x="223.88" y="-332.09" font-family="Helvetica,sans-Serif" font-size="10.00">GEU::GUI::addPopup</text>
</a>
</g>
</g>
<!-- Node1&#45;&gt;Node2 -->
<g id="edge1_Node000001_Node000002" class="edge">
<title>Node1&#45;&gt;Node2</title>
<g id="a_edge1_Node000001_Node000002"><a xlink:title=" ">
<path fill="none" stroke="#63b8ff" d="M75.16,-213.7C91.36,-237.93 124.97,-283.84 163.75,-311.59 168.42,-314.92 173.62,-317.89 178.94,-320.51"/>
<polygon fill="#63b8ff" stroke="#63b8ff" points="177.29,-323.6 187.85,-324.48 180.14,-317.21 177.29,-323.6"/>
</a>
</g>
</g>
<!-- Node3 -->
<g id="Node000003" class="node">
<title>Node3</title>
<g id="a_Node000003"><a xlink:href="../../d1/df9/class_g_e_u_1_1_singleton.html#a47c7e7c2110f4cc59c9ff1f5594c366e" target="_top" xlink:title=" ">
<polygon fill="white" stroke="#666666" points="471.75,-163.59 320,-163.59 320,-131.59 471.75,-131.59 471.75,-163.59"/>
<text text-anchor="start" x="328" y="-150.09" font-family="Helvetica,sans-Serif" font-size="10.00">GEU::Singleton&lt; LocaleStrings</text>
<text text-anchor="middle" x="395.88" y="-138.09" font-family="Helvetica,sans-Serif" font-size="10.00"> &gt;::getInstance</text>
</a>
</g>
</g>
<!-- Node1&#45;&gt;Node3 -->
<g id="edge2_Node000001_Node000003" class="edge">
<title>Node1&#45;&gt;Node3</title>
<g id="a_edge2_Node000001_Node000003"><a xlink:title=" ">
<path fill="none" stroke="#63b8ff" d="M93,-213.96C111.7,-227.05 137.57,-243.95 163.75,-251.59 215.06,-266.54 234.72,-272.27 284,-251.59 322.65,-235.36 354.6,-198.36 374.12,-173"/>
<polygon fill="#63b8ff" stroke="#63b8ff" points="376.83,-175.22 380.06,-165.13 371.24,-171 376.83,-175.22"/>
</a>
</g>
</g>
<!-- Node1&#45;&gt;Node3 -->
<g id="edge3_Node000001_Node000003" class="edge">
<title>Node1&#45;&gt;Node3</title>
<g id="a_edge3_Node000001_Node000003"><a xlink:title=" ">
<path fill="none" stroke="#63b8ff" d="M76.25,-213.8C93.6,-232.05 128.38,-259.28 163.75,-269.59 215.06,-284.54 234.72,-290.27 284,-269.59 328.89,-250.74 364.73,-203.88 382.57,-173.81"/>
<polygon fill="#63b8ff" stroke="#63b8ff" points="385.52,-175.7 387.37,-165.27 379.42,-172.27 385.52,-175.7"/>
</a>
</g>
</g>
<!-- Node4 -->
<g id="Node000004" class="node">
<title>Node4</title>
<g id="a_Node000004"><a xlink:href="../../d2/d0c/class_locale_strings.html#a90f2903c439af79e6af28892f8f9c139" target="_top" xlink:title=" ">
<polygon fill="white" stroke="#666666" points="284,-251.59 163.75,-251.59 163.75,-231.59 284,-231.59 284,-251.59"/>
<text text-anchor="middle" x="223.88" y="-238.09" font-family="Helvetica,sans-Serif" font-size="10.00">LocaleStrings::getString</text>
</a>
</g>
</g>
<!-- Node1&#45;&gt;Node4 -->
<g id="edge4_Node000001_Node000004" class="edge">
<title>Node1&#45;&gt;Node4</title>
<g id="a_edge4_Node000001_Node000004"><a xlink:title=" ">
<path fill="none" stroke="#63b8ff" d="M123.71,-213.97C140.53,-218.65 158.66,-223.7 174.76,-228.19"/>
<polygon fill="#63b8ff" stroke="#63b8ff" points="173.51,-231.47 184.09,-230.78 175.39,-224.73 173.51,-231.47"/>
</a>
</g>
</g>
<!-- Node5 -->
<g id="Node000005" class="node">
<title>Node5</title>
<g id="a_Node000005"><a xlink:href="../../d3/dd7/namespace_g_e_u_1_1_gui_utilities.html#aa4e9186189a097316ffd71424d4a7259" target="_top" xlink:title=" ">
<polygon fill="white" stroke="#666666" points="272,-213.59 175.75,-213.59 175.75,-181.59 272,-181.59 272,-213.59"/>
<text text-anchor="start" x="183.75" y="-200.09" font-family="Helvetica,sans-Serif" font-size="10.00">GEU::GuiUtilities::</text>
<text text-anchor="middle" x="223.88" y="-188.09" font-family="Helvetica,sans-Serif" font-size="10.00">loadingIcon</text>
</a>
</g>
</g>
<!-- Node1&#45;&gt;Node5 -->
<g id="edge5_Node000001_Node000005" class="edge">
<title>Node1&#45;&gt;Node5</title>
<g id="a_edge5_Node000001_Node000005"><a xlink:title=" ">
<path fill="none" stroke="#63b8ff" d="M128.23,-197.59C140.08,-197.59 152.41,-197.59 164.12,-197.59"/>
<polygon fill="#63b8ff" stroke="#63b8ff" points="164.05,-201.09 174.05,-197.59 164.05,-194.09 164.05,-201.09"/>
</a>
</g>
</g>
<!-- Node6 -->
<g id="Node000006" class="node">
<title>Node6</title>
<g id="a_Node000006"><a xlink:href="../../d3/dd7/namespace_g_e_u_1_1_gui_utilities.html#a4a4cc2d3f5e9444384aa7e7eb062dbf0" target="_top" xlink:title=" ">
<polygon fill="white" stroke="#666666" points="444,-41.59 347.75,-41.59 347.75,-9.59 444,-9.59 444,-41.59"/>
<text text-anchor="start" x="355.75" y="-28.09" font-family="Helvetica,sans-Serif" font-size="10.00">GEU::GuiUtilities::</text>
<text text-anchor="middle" x="395.88" y="-16.09" font-family="Helvetica,sans-Serif" font-size="10.00">makeButton</text>
</a>
</g>
</g>
<!-- Node1&#45;&gt;Node6 -->
<g id="edge6_Node000001_Node000006" class="edge">
<title>Node1&#45;&gt;Node6</title>
<g id="a_edge6_Node000001_Node000006"><a xlink:title=" ">
<path fill="none" stroke="#63b8ff" d="M68.35,-181.18C77.03,-144.79 103.47,-57.76 163.75,-22.59 216,7.91 286.86,1.45 336.3,-9.02"/>
<polygon fill="#63b8ff" stroke="#63b8ff" points="335.44,-12.42 345.96,-11.19 336.98,-5.59 335.44,-12.42"/>
</a>
</g>
</g>
<!-- Node7 -->
<g id="Node000007" class="node">
<title>Node7</title>
<g id="a_Node000007"><a xlink:href="../../d3/dd7/namespace_g_e_u_1_1_gui_utilities.html#a51f7b03162a92f79594e82e1aca62133" target="_top" xlink:title=" ">
<polygon fill="white" stroke="#666666" points="272,-63.59 175.75,-63.59 175.75,-31.59 272,-31.59 272,-63.59"/>
<text text-anchor="start" x="183.75" y="-50.09" font-family="Helvetica,sans-Serif" font-size="10.00">GEU::GuiUtilities::</text>
<text text-anchor="middle" x="223.88" y="-38.09" font-family="Helvetica,sans-Serif" font-size="10.00">makeLocButton</text>
</a>
</g>
</g>
<!-- Node1&#45;&gt;Node7 -->
<g id="edge8_Node000001_Node000007" class="edge">
<title>Node1&#45;&gt;Node7</title>
<g id="a_edge8_Node000001_Node000007"><a xlink:title=" ">
<path fill="none" stroke="#63b8ff" d="M74.07,-181.23C89.52,-155.07 123.02,-103.6 163.75,-72.59 165.05,-71.59 166.4,-70.63 167.78,-69.7"/>
<polygon fill="#63b8ff" stroke="#63b8ff" points="169.23,-72.92 176.03,-64.8 165.65,-66.9 169.23,-72.92"/>
</a>
</g>
</g>
<!-- Node8 -->
<g id="Node000008" class="node">
<title>Node8</title>
<g id="a_Node000008"><a xlink:href="../../d3/dd7/namespace_g_e_u_1_1_gui_utilities.html#a791a299165fdb530f39adcf8b5637638" target="_top" xlink:title=" ">
<polygon fill="white" stroke="#666666" points="272,-163.59 175.75,-163.59 175.75,-131.59 272,-131.59 272,-163.59"/>
<text text-anchor="start" x="183.75" y="-150.09" font-family="Helvetica,sans-Serif" font-size="10.00">GEU::GuiUtilities::</text>
<text text-anchor="middle" x="223.88" y="-138.09" font-family="Helvetica,sans-Serif" font-size="10.00">makeLocSepText</text>
</a>
</g>
</g>
<!-- Node1&#45;&gt;Node8 -->
<g id="edge11_Node000001_Node000008" class="edge">
<title>Node1&#45;&gt;Node8</title>
<g id="a_edge11_Node000001_Node000008"><a xlink:title=" ">
<path fill="none" stroke="#63b8ff" d="M116.61,-181.21C131.97,-176.35 148.89,-171 164.63,-166.02"/>
<polygon fill="#63b8ff" stroke="#63b8ff" points="165.38,-169.45 173.86,-163.1 163.27,-162.78 165.38,-169.45"/>
</a>
</g>
</g>
<!-- Node9 -->
<g id="Node000009" class="node">
<title>Node9</title>
<g id="a_Node000009"><a xlink:href="../../d3/dd7/namespace_g_e_u_1_1_gui_utilities.html#a7b24395f0bd0bd368bde0935682746ce" target="_top" xlink:title=" ">
<polygon fill="white" stroke="#666666" points="272,-113.59 175.75,-113.59 175.75,-81.59 272,-81.59 272,-113.59"/>
<text text-anchor="start" x="183.75" y="-100.09" font-family="Helvetica,sans-Serif" font-size="10.00">GEU::GuiUtilities::</text>
<text text-anchor="middle" x="223.88" y="-88.09" font-family="Helvetica,sans-Serif" font-size="10.00">makeLocText</text>
</a>
</g>
</g>
<!-- Node1&#45;&gt;Node9 -->
<g id="edge13_Node000001_Node000009" class="edge">
<title>Node1&#45;&gt;Node9</title>
<g id="a_edge13_Node000001_Node000009"><a xlink:title=" ">
<path fill="none" stroke="#63b8ff" d="M83.57,-181.14C102.75,-164.83 133.91,-139.85 163.75,-122.59 165.91,-121.34 168.13,-120.12 170.41,-118.93"/>
<polygon fill="#63b8ff" stroke="#63b8ff" points="171.78,-122.16 179.22,-114.61 168.7,-115.87 171.78,-122.16"/>
</a>
</g>
</g>
<!-- Node6&#45;&gt;Node6 -->
<g id="edge7_Node000006_Node000006" class="edge">
<title>Node6&#45;&gt;Node6</title>
<g id="a_edge7_Node000006_Node000006"><a xlink:title=" ">
<path fill="none" stroke="#63b8ff" d="M365.17,-42.03C359.44,-51.17 369.67,-59.59 395.88,-59.59 410.2,-59.59 419.76,-57.07 424.54,-53.29"/>
<polygon fill="#63b8ff" stroke="#63b8ff" points="427.97,-53.98 426.31,-43.52 421.08,-52.73 427.97,-53.98"/>
</a>
</g>
</g>
<!-- Node7&#45;&gt;Node3 -->
<g id="edge9_Node000007_Node000003" class="edge">
<title>Node7&#45;&gt;Node3</title>
<g id="a_edge9_Node000007_Node000003"><a xlink:title=" ">
<path fill="none" stroke="#63b8ff" d="M266.71,-64.07C272.6,-66.74 278.52,-69.61 284,-72.59 312.47,-88.04 342.8,-108.9 364.53,-124.69"/>
<polygon fill="#63b8ff" stroke="#63b8ff" points="362.23,-127.34 372.36,-130.44 366.37,-121.7 362.23,-127.34"/>
</a>
</g>
</g>
<!-- Node7&#45;&gt;Node6 -->
<g id="edge10_Node000007_Node000006" class="edge">
<title>Node7&#45;&gt;Node6</title>
<g id="a_edge10_Node000007_Node000006"><a xlink:title=" ">
<path fill="none" stroke="#63b8ff" d="M272.23,-41.46C292.04,-38.89 315.27,-35.89 336.16,-33.18"/>
<polygon fill="#63b8ff" stroke="#63b8ff" points="336.51,-36.67 345.98,-31.91 335.61,-29.73 336.51,-36.67"/>
</a>
</g>
</g>
<!-- Node8&#45;&gt;Node3 -->
<g id="edge12_Node000008_Node000003" class="edge">
<title>Node8&#45;&gt;Node3</title>
<g id="a_edge12_Node000008_Node000003"><a xlink:title=" ">
<path fill="none" stroke="#63b8ff" d="M272.23,-147.59C283.51,-147.59 295.9,-147.59 308.34,-147.59"/>
<polygon fill="#63b8ff" stroke="#63b8ff" points="308.23,-151.09 318.23,-147.59 308.23,-144.09 308.23,-151.09"/>
</a>
</g>
</g>
<!-- Node9&#45;&gt;Node3 -->
<g id="edge14_Node000009_Node000003" class="edge">
<title>Node9&#45;&gt;Node3</title>
<g id="a_edge14_Node000009_Node000003"><a xlink:title=" ">
<path fill="none" stroke="#63b8ff" d="M272.23,-111.51C289.56,-116.61 309.5,-122.48 328.2,-127.98"/>
<polygon fill="#63b8ff" stroke="#63b8ff" points="327.01,-131.27 337.59,-130.74 328.99,-124.56 327.01,-131.27"/>
</a>
</g>
</g>
</g>
</svg>
</svg>

<style type='text/css'>
<![CDATA[
[data-mouse-over-selected='false'] { opacity: 0.7; }
[data-mouse-over-selected='true']  { opacity: 1.0; }
]]>
</style>
<script type="application/ecmascript"><![CDATA[
document.addEventListener('DOMContentLoaded', (event) => {
  highlightEdges();
  highlightAdjacentNodes();
});
]]></script>
</svg>
