<?xml version="1.0" encoding="UTF-8" standalone="no"?>
<!DOCTYPE svg PUBLIC "-//W3C//DTD SVG 1.1//EN"
 "http://www.w3.org/Graphics/SVG/1.1/DTD/svg11.dtd">
<!-- Generated by graphviz version 10.0.1 (20240210.2158)
 -->
<!-- Title: GEU::ImageCloudProj::applyStructureMask Pages: 1 -->
<!--zoomable 544 -->

<svg id="main" version="1.1" xmlns="http://www.w3.org/2000/svg" xmlns:xlink="http://www.w3.org/1999/xlink" xml:space="preserve" onload="init(evt)">
<style type="text/css"><![CDATA[
.node, .edge {opacity: 0.7;}
.node.selected, .edge.selected {opacity: 1;}
.edge:hover path { stroke: red; }
.edge:hover polygon { stroke: red; fill: red; }
]]></style>

<defs>
  <circle id="rim" cx="0" cy="0" r="7"/>
  <circle id="rim2" cx="0" cy="0" r="3.5"/>
  <g id="zoomPlus">
    <use xlink:href="#rim" fill="#404040"><set attributeName="fill" to="#808080" begin="zoomplus.mouseover" end="zoomplus.mouseout"/></use>
    <path d="M-4,0h8M0,-4v8" fill="none" stroke="white" stroke-width="1.5" pointer-events="none"/>
  </g>
  <g id="zoomMin">
    <use xlink:href="#rim" fill="#404040"><set attributeName="fill" to="#808080" begin="zoomminus.mouseover" end="zoomminus.mouseout"/></use>
    <path d="M-4,0h8" fill="none" stroke="white" stroke-width="1.5" pointer-events="none"/>
  </g>
  <g id="arrowUp" transform="translate(30 24)">
    <use xlink:href="#rim"/>
    <path pointer-events="none" fill="none" stroke="white" stroke-width="1.5" d="M0,-3.0v7 M-2.5,-0.5L0,-3.0L2.5,-0.5"/>
  </g>
  <g id="arrowRight" transform="rotate(90) translate(36 -43)">
    <use xlink:href="#rim"/>
    <path pointer-events="none" fill="none" stroke="white" stroke-width="1.5" d="M0,-3.0v7 M-2.5,-0.5L0,-3.0L2.5,-0.5"/>
  </g>
  <g id="arrowDown" transform="rotate(180) translate(-30 -48)">
    <use xlink:href="#rim"/>
    <path pointer-events="none" fill="none" stroke="white" stroke-width="1.5" d="M0,-3.0v7 M-2.5,-0.5L0,-3.0L2.5,-0.5"/>
  </g>
  <g id="arrowLeft" transform="rotate(270) translate(-36 17)">
    <use xlink:href="#rim"/>
    <path pointer-events="none" fill="none" stroke="white" stroke-width="1.5" d="M0,-3.0v7 M-2.5,-0.5L0,-3.0L2.5,-0.5"/>
  </g>
  <g id="resetDef">
    <use xlink:href="#rim2" fill="#404040"><set attributeName="fill" to="#808080" begin="reset.mouseover" end="reset.mouseout"/></use>
  </g>
</defs>
<script type="application/ecmascript">
var viewWidth = 408;
var viewHeight = 544;
var sectionId = 'dynsection-1';
</script>
<script type="application/ecmascript" xlink:href="../../svg.min.js"/>
<svg id="graph" class="graph">
<g id="viewport">
<title>GEU::ImageCloudProj::applyStructureMask</title>
<!-- Node1 -->
<g id="Node000001" class="node">
<title>Node1</title>
<g id="a_Node000001"><a xlink:title=" ">
<polygon fill="#999999" stroke="#666666" points="111.25,-284 0,-284 0,-252 111.25,-252 111.25,-284"/>
<text text-anchor="start" x="8" y="-270.5" font-family="Helvetica,sans-Serif" font-size="10.00">GEU::ImageCloudProj</text>
<text text-anchor="middle" x="55.62" y="-258.5" font-family="Helvetica,sans-Serif" font-size="10.00">::applyStructureMask</text>
</a>
</g>
</g>
<!-- Node2 -->
<g id="Node000002" class="node">
<title>Node2</title>
<g id="a_Node000002"><a xlink:href="../../dc/d47/class_a_a_b_b.html#a37fe03c1375a2b98345fe219cd59d3bd" target="_top" xlink:title=" ">
<polygon fill="white" stroke="#666666" points="262.25,-536 186.25,-536 186.25,-516 262.25,-516 262.25,-536"/>
<text text-anchor="middle" x="224.25" y="-522.5" font-family="Helvetica,sans-Serif" font-size="10.00">AABB::center</text>
</a>
</g>
</g>
<!-- Node1&#45;&gt;Node2 -->
<g id="edge1_Node000001_Node000002" class="edge">
<title>Node1&#45;&gt;Node2</title>
<g id="a_edge1_Node000001_Node000002"><a xlink:title=" ">
<path fill="none" stroke="#63b8ff" d="M57.77,-284.21C61.72,-327.37 78.6,-445.97 147.25,-507 155.01,-513.9 164.91,-518.38 174.97,-521.26"/>
<polygon fill="#63b8ff" stroke="#63b8ff" points="173.86,-524.59 184.39,-523.45 175.45,-517.77 173.86,-524.59"/>
</a>
</g>
</g>
<!-- Node3 -->
<g id="Node000003" class="node">
<title>Node3</title>
<g id="a_Node000003"><a xlink:href="../../de/dac/class_g_e_u_1_1_renderer.html#a8bae5f04f9f547fa63897d83090a3098" target="_top" xlink:title=" ">
<polygon fill="white" stroke="#666666" points="292.62,-498 155.88,-498 155.88,-466 292.62,-466 292.62,-498"/>
<text text-anchor="start" x="163.88" y="-484.5" font-family="Helvetica,sans-Serif" font-size="10.00">GEU::Renderer::deletePoint</text>
<text text-anchor="middle" x="224.25" y="-472.5" font-family="Helvetica,sans-Serif" font-size="10.00">Cloud</text>
</a>
</g>
</g>
<!-- Node1&#45;&gt;Node3 -->
<g id="edge2_Node000001_Node000003" class="edge">
<title>Node1&#45;&gt;Node3</title>
<g id="a_edge2_Node000001_Node000003"><a xlink:title=" ">
<path fill="none" stroke="#63b8ff" d="M59.89,-284.28C68.01,-320.63 92.57,-408.97 147.25,-457 148.19,-457.82 149.16,-458.62 150.15,-459.39"/>
<polygon fill="#63b8ff" stroke="#63b8ff" points="148.12,-462.25 158.4,-464.82 151.97,-456.4 148.12,-462.25"/>
</a>
</g>
</g>
<!-- Node4 -->
<g id="Node000004" class="node">
<title>Node4</title>
<g id="a_Node000004"><a xlink:href="../../db/d6c/class_g_e_u_1_1_model3_d.html#ab5fdc7a938aa8ae8f6697cb4bf3e94b4" target="_top" xlink:title=" ">
<polygon fill="white" stroke="#666666" points="288.12,-448 160.38,-448 160.38,-428 288.12,-428 288.12,-448"/>
<text text-anchor="middle" x="224.25" y="-434.5" font-family="Helvetica,sans-Serif" font-size="10.00">GEU::Model3D::getAABB</text>
</a>
</g>
</g>
<!-- Node1&#45;&gt;Node4 -->
<g id="edge3_Node000001_Node000004" class="edge">
<title>Node1&#45;&gt;Node4</title>
<g id="a_edge3_Node000001_Node000004"><a xlink:title=" ">
<path fill="none" stroke="#63b8ff" d="M61.61,-284.07C72.12,-315.18 99.59,-383.69 147.25,-419 149.01,-420.31 150.85,-421.52 152.76,-422.66"/>
<polygon fill="#63b8ff" stroke="#63b8ff" points="150.86,-425.62 161.37,-426.98 154,-419.36 150.86,-425.62"/>
</a>
</g>
</g>
<!-- Node6 -->
<g id="Node000006" class="node">
<title>Node6</title>
<g id="a_Node000006"><a xlink:href="../../d1/df9/class_g_e_u_1_1_singleton.html#a47c7e7c2110f4cc59c9ff1f5594c366e" target="_top" xlink:title=" ">
<polygon fill="white" stroke="#666666" points="290,-410 158.5,-410 158.5,-378 290,-378 290,-410"/>
<text text-anchor="start" x="166.5" y="-396.5" font-family="Helvetica,sans-Serif" font-size="10.00">GEU::Singleton&lt; Renderer</text>
<text text-anchor="middle" x="224.25" y="-384.5" font-family="Helvetica,sans-Serif" font-size="10.00"> &gt;::getInstance</text>
</a>
</g>
</g>
<!-- Node1&#45;&gt;Node6 -->
<g id="edge5_Node000001_Node000006" class="edge">
<title>Node1&#45;&gt;Node6</title>
<g id="a_edge5_Node000001_Node000006"><a xlink:title=" ">
<path fill="none" stroke="#63b8ff" d="M67.22,-284.4C82.38,-306.64 112.34,-346.2 147.25,-369 149.13,-370.22 151.07,-371.39 153.06,-372.51"/>
<polygon fill="#63b8ff" stroke="#63b8ff" points="151.48,-375.64 161.99,-376.99 154.62,-369.38 151.48,-375.64"/>
</a>
</g>
</g>
<!-- Node7 -->
<g id="Node000007" class="node">
<title>Node7</title>
<g id="a_Node000007"><a xlink:href="../../db/d6c/class_g_e_u_1_1_model3_d.html#aea23eb9ab8de56f02dacaa5155fcac15" target="_top" xlink:title=" ">
<polygon fill="white" stroke="#666666" points="301.25,-360 147.25,-360 147.25,-340 301.25,-340 301.25,-360"/>
<text text-anchor="middle" x="224.25" y="-346.5" font-family="Helvetica,sans-Serif" font-size="10.00">GEU::Model3D::getModelMatrix</text>
</a>
</g>
</g>
<!-- Node1&#45;&gt;Node7 -->
<g id="edge6_Node000001_Node000007" class="edge">
<title>Node1&#45;&gt;Node7</title>
<g id="a_edge6_Node000001_Node000007"><a xlink:title=" ">
<path fill="none" stroke="#63b8ff" d="M75.52,-284.22C93.04,-298.48 120.38,-318.8 147.25,-331 151.31,-332.85 155.58,-334.53 159.94,-336.06"/>
<polygon fill="#63b8ff" stroke="#63b8ff" points="158.85,-339.39 169.44,-339.11 160.99,-332.72 158.85,-339.39"/>
</a>
</g>
</g>
<!-- Node8 -->
<g id="Node000008" class="node">
<title>Node8</title>
<g id="a_Node000008"><a xlink:href="../../de/dac/class_g_e_u_1_1_renderer.html#ae941cdb83d15bb05ac73cf19173a1f84" target="_top" xlink:title="get the cloud with the cloud name specified if it exists in the current active scene.">
<polygon fill="white" stroke="#666666" points="298.62,-322 149.88,-322 149.88,-302 298.62,-302 298.62,-322"/>
<text text-anchor="middle" x="224.25" y="-308.5" font-family="Helvetica,sans-Serif" font-size="10.00">GEU::Renderer::getPointCloud</text>
</a>
</g>
</g>
<!-- Node1&#45;&gt;Node8 -->
<g id="edge7_Node000001_Node000008" class="edge">
<title>Node1&#45;&gt;Node8</title>
<g id="a_edge7_Node000001_Node000008"><a xlink:title=" ">
<path fill="none" stroke="#63b8ff" d="M111.68,-283.42C123.41,-286.64 135.73,-289.97 147.25,-293 154.5,-294.91 162.14,-296.87 169.68,-298.78"/>
<polygon fill="#63b8ff" stroke="#63b8ff" points="168.58,-302.11 179.13,-301.16 170.29,-295.32 168.58,-302.11"/>
</a>
</g>
</g>
<!-- Node9 -->
<g id="Node000009" class="node">
<title>Node9</title>
<g id="a_Node000009"><a xlink:href="../../d4/dbf/class_g_e_u_1_1_point_cloud.html#a51c362a48e58352238cd5d47f3e801c6" target="_top" xlink:title=" ">
<polygon fill="white" stroke="#666666" points="293,-284 155.5,-284 155.5,-252 293,-252 293,-284"/>
<text text-anchor="start" x="163.5" y="-270.5" font-family="Helvetica,sans-Serif" font-size="10.00">GEU::PointCloud::getPoints</text>
<text text-anchor="middle" x="224.25" y="-258.5" font-family="Helvetica,sans-Serif" font-size="10.00">Color</text>
</a>
</g>
</g>
<!-- Node1&#45;&gt;Node9 -->
<g id="edge8_Node000001_Node000009" class="edge">
<title>Node1&#45;&gt;Node9</title>
<g id="a_edge8_Node000001_Node000009"><a xlink:title=" ">
<path fill="none" stroke="#63b8ff" d="M111.65,-268C121.99,-268 132.99,-268 143.9,-268"/>
<polygon fill="#63b8ff" stroke="#63b8ff" points="143.69,-271.5 153.69,-268 143.69,-264.5 143.69,-271.5"/>
</a>
</g>
</g>
<!-- Node10 -->
<g id="Node000010" class="node">
<title>Node10</title>
<g id="a_Node000010"><a xlink:href="../../d4/dbf/class_g_e_u_1_1_point_cloud.html#a52698b429492303948167bed5da1a0d9" target="_top" xlink:title=" ">
<polygon fill="white" stroke="#666666" points="293,-234 155.5,-234 155.5,-202 293,-202 293,-234"/>
<text text-anchor="start" x="163.5" y="-220.5" font-family="Helvetica,sans-Serif" font-size="10.00">GEU::PointCloud::getPoints</text>
<text text-anchor="middle" x="224.25" y="-208.5" font-family="Helvetica,sans-Serif" font-size="10.00">Position</text>
</a>
</g>
</g>
<!-- Node1&#45;&gt;Node10 -->
<g id="edge9_Node000001_Node000010" class="edge">
<title>Node1&#45;&gt;Node10</title>
<g id="a_edge9_Node000001_Node000010"><a xlink:title=" ">
<path fill="none" stroke="#63b8ff" d="M111.18,-251.63C125.92,-247.2 142.03,-242.37 157.32,-237.78"/>
<polygon fill="#63b8ff" stroke="#63b8ff" points="158.26,-241.16 166.83,-234.93 156.25,-234.45 158.26,-241.16"/>
</a>
</g>
</g>
<!-- Node11 -->
<g id="Node000011" class="node">
<title>Node11</title>
<g id="a_Node000011"><a xlink:href="../../dd/db9/class_g_e_u_1_1_file_manager.html#a221f7bdde6217593a27b991bae1cb246" target="_top" xlink:title="Carga la nube de puntos especificada.">
<polygon fill="white" stroke="#666666" points="295.62,-184 152.88,-184 152.88,-152 295.62,-152 295.62,-184"/>
<text text-anchor="start" x="160.88" y="-170.5" font-family="Helvetica,sans-Serif" font-size="10.00">GEU::FileManager::loadPoint</text>
<text text-anchor="middle" x="224.25" y="-158.5" font-family="Helvetica,sans-Serif" font-size="10.00">Cloud</text>
</a>
</g>
</g>
<!-- Node1&#45;&gt;Node11 -->
<g id="edge10_Node000001_Node000011" class="edge">
<title>Node1&#45;&gt;Node11</title>
<g id="a_edge10_Node000001_Node000011"><a xlink:title=" ">
<path fill="none" stroke="#63b8ff" d="M72.59,-251.56C89.69,-234.78 118.29,-208.99 147.25,-193 149.75,-191.62 152.34,-190.3 154.99,-189.04"/>
<polygon fill="#63b8ff" stroke="#63b8ff" points="156.28,-192.29 164.03,-185.08 153.47,-185.88 156.28,-192.29"/>
</a>
</g>
</g>
<!-- Node12 -->
<g id="Node000012" class="node">
<title>Node12</title>
<g id="a_Node000012"><a xlink:href="../../dc/d47/class_a_a_b_b.html#aa80c2fc1bbc932572311ba94a8f76530" target="_top" xlink:title=" ">
<polygon fill="white" stroke="#666666" points="258.12,-134 190.38,-134 190.38,-114 258.12,-114 258.12,-134"/>
<text text-anchor="middle" x="224.25" y="-120.5" font-family="Helvetica,sans-Serif" font-size="10.00">AABB::max</text>
</a>
</g>
</g>
<!-- Node1&#45;&gt;Node12 -->
<g id="edge11_Node000001_Node000012" class="edge">
<title>Node1&#45;&gt;Node12</title>
<g id="a_edge11_Node000001_Node000012"><a xlink:title=" ">
<path fill="none" stroke="#63b8ff" d="M63.78,-251.77C76.51,-224.83 105.72,-171.06 147.25,-143 156.62,-136.67 167.91,-132.45 178.9,-129.63"/>
<polygon fill="#63b8ff" stroke="#63b8ff" points="179.64,-133.05 188.66,-127.5 178.15,-126.21 179.64,-133.05"/>
</a>
</g>
</g>
<!-- Node13 -->
<g id="Node000013" class="node">
<title>Node13</title>
<g id="a_Node000013"><a xlink:href="../../dc/d47/class_a_a_b_b.html#a29073914f600f7657f4a44937702a471" target="_top" xlink:title=" ">
<polygon fill="white" stroke="#666666" points="256.62,-96 191.88,-96 191.88,-76 256.62,-76 256.62,-96"/>
<text text-anchor="middle" x="224.25" y="-82.5" font-family="Helvetica,sans-Serif" font-size="10.00">AABB::min</text>
</a>
</g>
</g>
<!-- Node1&#45;&gt;Node13 -->
<g id="edge12_Node000001_Node000013" class="edge">
<title>Node1&#45;&gt;Node13</title>
<g id="a_edge12_Node000001_Node000013"><a xlink:title=" ">
<path fill="none" stroke="#63b8ff" d="M60.93,-251.7C70.52,-218.65 96.89,-143.62 147.25,-105 156.82,-97.66 168.88,-93.13 180.55,-90.34"/>
<polygon fill="#63b8ff" stroke="#63b8ff" points="180.92,-93.83 190.05,-88.45 179.56,-86.96 180.92,-93.83"/>
</a>
</g>
</g>
<!-- Node14 -->
<g id="Node000014" class="node">
<title>Node14</title>
<g id="a_Node000014"><a xlink:href="../../db/d6c/class_g_e_u_1_1_model3_d.html#ace28fc4cea011d5f99fbe870dcba4c51" target="_top" xlink:title=" ">
<polygon fill="white" stroke="#666666" points="280.25,-58 168.25,-58 168.25,-38 280.25,-38 280.25,-58"/>
<text text-anchor="middle" x="224.25" y="-44.5" font-family="Helvetica,sans-Serif" font-size="10.00">GEU::Model3D::rotate</text>
</a>
</g>
</g>
<!-- Node1&#45;&gt;Node14 -->
<g id="edge13_Node000001_Node000014" class="edge">
<title>Node1&#45;&gt;Node14</title>
<g id="a_edge13_Node000001_Node000014"><a xlink:title=" ">
<path fill="none" stroke="#63b8ff" d="M59.1,-251.56C65.79,-213.06 87.92,-116.58 147.25,-67 150.47,-64.31 154.01,-62 157.75,-60"/>
<polygon fill="#63b8ff" stroke="#63b8ff" points="158.94,-63.3 166.66,-56.05 156.1,-56.9 158.94,-63.3"/>
</a>
</g>
</g>
<!-- Node15 -->
<g id="Node000015" class="node">
<title>Node15</title>
<g id="a_Node000015"><a xlink:href="../../db/d6c/class_g_e_u_1_1_model3_d.html#a18e517825dd3fa765ecba851f8a4d57a" target="_top" xlink:title=" ">
<polygon fill="white" stroke="#666666" points="289.62,-20 158.88,-20 158.88,0 289.62,0 289.62,-20"/>
<text text-anchor="middle" x="224.25" y="-6.5" font-family="Helvetica,sans-Serif" font-size="10.00">GEU::Model3D::setEnable</text>
</a>
</g>
</g>
<!-- Node1&#45;&gt;Node15 -->
<g id="edge14_Node000001_Node000015" class="edge">
<title>Node1&#45;&gt;Node15</title>
<g id="a_edge14_Node000001_Node000015"><a xlink:title=" ">
<path fill="none" stroke="#63b8ff" d="M57.77,-251.79C61.72,-208.63 78.6,-90.03 147.25,-29 148.34,-28.03 149.46,-27.12 150.63,-26.24"/>
<polygon fill="#63b8ff" stroke="#63b8ff" points="152.19,-29.39 158.89,-21.19 148.53,-23.42 152.19,-29.39"/>
</a>
</g>
</g>
<!-- Node5 -->
<g id="Node000005" class="node">
<title>Node5</title>
<g id="a_Node000005"><a xlink:href="../../dc/d47/class_a_a_b_b.html#ab4dad925a3cb42ad2f00c7d5053369e1" target="_top" xlink:title=" ">
<polygon fill="white" stroke="#666666" points="399.75,-448 337.25,-448 337.25,-428 399.75,-428 399.75,-448"/>
<text text-anchor="middle" x="368.5" y="-434.5" font-family="Helvetica,sans-Serif" font-size="10.00">AABB::dot</text>
</a>
</g>
</g>
<!-- Node4&#45;&gt;Node5 -->
<g id="edge4_Node000004_Node000005" class="edge">
<title>Node4&#45;&gt;Node5</title>
<g id="a_edge4_Node000004_Node000005"><a xlink:title=" ">
<path fill="none" stroke="#63b8ff" d="M288.47,-438C301.05,-438 313.96,-438 325.61,-438"/>
<polygon fill="#63b8ff" stroke="#63b8ff" points="325.26,-441.5 335.26,-438 325.26,-434.5 325.26,-441.5"/>
</a>
</g>
</g>
</g>
</svg>

<g id="navigator" transform="translate(0 0)" fill="#404254">
  <rect fill="#f2f5e9" fill-opacity="0.5" stroke="#606060" stroke-width=".5" x="0" y="0" width="60" height="60"/>
  <use id="zoomplus" xlink:href="#zoomPlus" x="17" y="9" onmousedown="handleZoom(evt,'in')"/>
  <use id="zoomminus" xlink:href="#zoomMin" x="42" y="9" onmousedown="handleZoom(evt,'out')"/>
  <use id="reset" xlink:href="#resetDef" x="30" y="36" onmousedown="handleReset()"/>
   <use id="arrowup" xlink:href="#arrowUp" x="0" y="0" onmousedown="handlePan(0,-1)"/>
  <use id="arrowright" xlink:href="#arrowRight" x="0" y="0" onmousedown="handlePan(1,0)"/>
  <use id="arrowdown" xlink:href="#arrowDown" x="0" y="0" onmousedown="handlePan(0,1)"/>
  <use id="arrowleft" xlink:href="#arrowLeft" x="0" y="0" onmousedown="handlePan(-1,0)"/>
</g>
<svg viewBox="0 0 15 15" width="100%" height="30px" preserveAspectRatio="xMaxYMin meet">
 <g id="arrow_out" transform="scale(0.3 0.3)">
  <a xlink:href="class_g_e_u_1_1_image_cloud_proj_a866aada3b1653f447d9293e8065ad9df_cgraph_org.svg" target="_base">
   <rect id="button" ry="5" rx="5" y="6" x="6" height="38" width="38"
        fill="#f2f5e9" fill-opacity="0.5" stroke="#606060" stroke-width="1.0"/>
   <path id="arrow"
     d="M 11.500037,31.436501 C 11.940474,20.09759 22.043105,11.32322 32.158766,21.979434 L 37.068811,17.246167 C 37.068811,17.246167 37.088388,32 37.088388,32 L 22.160133,31.978069 C 22.160133,31.978069 26.997745,27.140456 26.997745,27.140456 C 18.528582,18.264221 13.291696,25.230495 11.500037,31.436501 z"
     style="fill:#404040;"/>
  </a>
 </g>
</svg>

<style type='text/css'>
<![CDATA[
[data-mouse-over-selected='false'] { opacity: 0.7; }
[data-mouse-over-selected='true']  { opacity: 1.0; }
]]>
</style>
<script type="application/ecmascript"><![CDATA[
document.addEventListener('DOMContentLoaded', (event) => {
  highlightEdges();
  highlightAdjacentNodes();
});
]]></script>
</svg>
