<?xml version="1.0" encoding="UTF-8" standalone="no"?>
<!DOCTYPE svg PUBLIC "-//W3C//DTD SVG 1.1//EN"
 "http://www.w3.org/Graphics/SVG/1.1/DTD/svg11.dtd">
<!-- Generated by graphviz version 10.0.1 (20240210.2158)
 -->
<!-- Title: GEU::PickingWindow Pages: 1 -->
<svg width="2210pt" height="806pt"
 viewBox="0.00 0.00 2210.25 806.00" xmlns="http://www.w3.org/2000/svg" xmlns:xlink="http://www.w3.org/1999/xlink">
<g id="graph0" class="graph" transform="scale(1 1) rotate(0) translate(4 802)">
<title>GEU::PickingWindow</title>
<!-- Node1 -->
<g id="Node000001" class="node">
<title>Node1</title>
<g id="a_Node000001"><a xlink:title=" ">
<polygon fill="#999999" stroke="#666666" points="1968.75,-618 1859,-618 1859,-598 1968.75,-598 1968.75,-618"/>
<text text-anchor="middle" x="1913.88" y="-604.5" font-family="Helvetica,sans-Serif" font-size="10.00">GEU::PickingWindow</text>
</a>
</g>
</g>
<!-- Node2 -->
<g id="Node000002" class="node">
<title>Node2</title>
<g id="a_Node000002"><a xlink:href="../../d4/d01/a01797.html" target="_top" xlink:title="ImGUI window interface adapter class.">
<polygon fill="white" stroke="#666666" points="777.5,-613 676,-613 676,-593 777.5,-593 777.5,-613"/>
<text text-anchor="middle" x="726.75" y="-599.5" font-family="Helvetica,sans-Serif" font-size="10.00">GEU::I_GUIWindow</text>
</a>
</g>
</g>
<!-- Node2&#45;&gt;Node1 -->
<g id="edge1_Node000001_Node000002" class="edge">
<title>Node2&#45;&gt;Node1</title>
<g id="a_edge1_Node000001_Node000002"><a xlink:title=" ">
<path fill="none" stroke="#63b8ff" d="M788.95,-612.66C838.8,-619.7 911.08,-628 974.62,-628 974.62,-628 974.62,-628 1517.25,-628 1639.32,-628 1782.31,-618.39 1858.52,-612.49"/>
<polygon fill="#63b8ff" stroke="#63b8ff" points="789.61,-609.22 779.22,-611.26 788.62,-616.15 789.61,-609.22"/>
</a>
</g>
</g>
<!-- Node3 -->
<g id="Node000003" class="node">
<title>Node3</title>
<g id="a_Node000003"><a xlink:title=" ">
<polygon fill="white" stroke="#666666" points="190.5,-350 131,-350 131,-330 190.5,-330 190.5,-350"/>
<text text-anchor="middle" x="160.75" y="-336.5" font-family="Helvetica,sans-Serif" font-size="10.00">std::string</text>
</a>
</g>
</g>
<!-- Node3&#45;&gt;Node2 -->
<g id="edge2_Node000002_Node000003" class="edge">
<title>Node3&#45;&gt;Node2</title>
<g id="a_edge2_Node000002_Node000003"><a xlink:title=" ">
<path fill="none" stroke="#9a32cd" stroke-dasharray="5,2" d="M161.32,-361.39C161.85,-396.27 168.31,-465.21 208.5,-502 340.77,-623.1 573.7,-617.97 675.63,-608.91"/>
<polygon fill="#9a32cd" stroke="#9a32cd" points="164.82,-361.72 161.33,-351.71 157.82,-361.71 164.82,-361.72"/>
</a>
</g>
<text text-anchor="middle" x="328.25" y="-593.5" font-family="Helvetica,sans-Serif" font-size="10.00" fill="grey"> _windowID</text>
</g>
<!-- Node5 -->
<g id="Node000005" class="node">
<title>Node5</title>
<g id="a_Node000005"><a xlink:href="../../db/d06/a01509.html" target="_top" xlink:title=" ">
<polygon fill="white" stroke="#666666" points="1699.62,-486 1609.38,-486 1609.38,-466 1699.62,-466 1699.62,-486"/>
<text text-anchor="middle" x="1654.5" y="-472.5" font-family="Helvetica,sans-Serif" font-size="10.00">GEU::PointCloud</text>
</a>
</g>
</g>
<!-- Node3&#45;&gt;Node5 -->
<g id="edge27_Node000005_Node000003" class="edge">
<title>Node3&#45;&gt;Node5</title>
<g id="a_edge27_Node000005_Node000003"><a xlink:title=" ">
<path fill="none" stroke="#9a32cd" stroke-dasharray="5,2" d="M167.17,-361.12C173.7,-382.74 186.61,-416.04 208.5,-437 249.99,-476.72 269.81,-488 327.25,-488 327.25,-488 327.25,-488 727.75,-488 1066.9,-488 1475.88,-479.85 1609.18,-476.98"/>
<polygon fill="#9a32cd" stroke="#9a32cd" points="170.59,-360.34 164.52,-351.66 163.85,-362.23 170.59,-360.34"/>
</a>
</g>
<text text-anchor="middle" x="855.88" y="-502.5" font-family="Helvetica,sans-Serif" font-size="10.00" fill="grey"> _prevViewMode</text>
<text text-anchor="middle" x="855.88" y="-490.5" font-family="Helvetica,sans-Serif" font-size="10.00" fill="grey">_viewMode</text>
</g>
<!-- Node6 -->
<g id="Node000006" class="node">
<title>Node6</title>
<g id="a_Node000006"><a xlink:href="../../db/d04/a01501.html" target="_top" xlink:title=" ">
<polygon fill="white" stroke="#666666" points="1398.75,-450 1317.5,-450 1317.5,-430 1398.75,-430 1398.75,-450"/>
<text text-anchor="middle" x="1358.12" y="-436.5" font-family="Helvetica,sans-Serif" font-size="10.00">GEU::Model3D</text>
</a>
</g>
</g>
<!-- Node3&#45;&gt;Node6 -->
<g id="edge6_Node000006_Node000003" class="edge">
<title>Node3&#45;&gt;Node6</title>
<g id="a_edge6_Node000006_Node000003"><a xlink:title=" ">
<path fill="none" stroke="#9a32cd" stroke-dasharray="5,2" d="M170.23,-360.49C177.92,-376.57 190.76,-398.29 208.5,-411 252.83,-442.78 272.7,-442 327.25,-442 327.25,-442 327.25,-442 1095.25,-442 1173.91,-442 1265.85,-441.09 1317.2,-440.49"/>
<polygon fill="#9a32cd" stroke="#9a32cd" points="173.63,-359.53 166.36,-351.83 167.24,-362.38 173.63,-359.53"/>
</a>
</g>
<text text-anchor="middle" x="726.75" y="-444.5" font-family="Helvetica,sans-Serif" font-size="10.00" fill="grey"> _name</text>
</g>
<!-- Node8 -->
<g id="Node000008" class="node">
<title>Node8</title>
<g id="a_Node000008"><a xlink:href="../../d4/d01/a01485.html" target="_top" xlink:title=" ">
<polygon fill="white" stroke="#666666" points="1133,-414 1055.5,-414 1055.5,-394 1133,-394 1133,-414"/>
<text text-anchor="middle" x="1094.25" y="-400.5" font-family="Helvetica,sans-Serif" font-size="10.00">GEU::Material</text>
</a>
</g>
</g>
<!-- Node3&#45;&gt;Node8 -->
<g id="edge9_Node000008_Node000003" class="edge">
<title>Node3&#45;&gt;Node8</title>
<g id="a_edge9_Node000008_Node000003"><a xlink:title=" ">
<path fill="none" stroke="#9a32cd" stroke-dasharray="5,2" d="M202.25,-345.27C204.36,-345.52 206.45,-345.77 208.5,-346 235.46,-349.06 242.21,-349.81 269.25,-352 425.34,-364.63 915.25,-393.58 1055.43,-401.79"/>
<polygon fill="#9a32cd" stroke="#9a32cd" points="202.77,-341.81 192.41,-344.06 201.91,-348.76 202.77,-341.81"/>
</a>
</g>
<text text-anchor="middle" x="601" y="-380.5" font-family="Helvetica,sans-Serif" font-size="10.00" fill="grey"> _name</text>
</g>
<!-- Node10 -->
<g id="Node000010" class="node">
<title>Node10</title>
<g id="a_Node000010"><a xlink:href="../../dd/d02/a01545.html" target="_top" xlink:title=" ">
<polygon fill="white" stroke="#666666" points="656.25,-120 545.75,-120 545.75,-100 656.25,-100 656.25,-120"/>
<text text-anchor="middle" x="601" y="-106.5" font-family="Helvetica,sans-Serif" font-size="10.00">GEU::ShaderProgram</text>
</a>
</g>
</g>
<!-- Node3&#45;&gt;Node10 -->
<g id="edge12_Node000010_Node000003" class="edge">
<title>Node3&#45;&gt;Node10</title>
<g id="a_edge12_Node000010_Node000003"><a xlink:title=" ">
<path fill="none" stroke="#9a32cd" stroke-dasharray="5,2" d="M169.32,-319C183.24,-283.6 216.39,-212.47 269.25,-177 317.87,-144.38 470.44,-138 527.75,-126 536.05,-124.26 544.87,-122.36 553.4,-120.49"/>
<polygon fill="#9a32cd" stroke="#9a32cd" points="166.14,-317.52 165.88,-328.11 172.69,-320 166.14,-317.52"/>
</a>
</g>
<text text-anchor="middle" x="328.25" y="-227.5" font-family="Helvetica,sans-Serif" font-size="10.00" fill="grey"> MODULE_FILE_CHAR_1</text>
<text text-anchor="middle" x="328.25" y="-215.5" font-family="Helvetica,sans-Serif" font-size="10.00" fill="grey">MODULE_FILE_CHAR_2</text>
<text text-anchor="middle" x="328.25" y="-203.5" font-family="Helvetica,sans-Serif" font-size="10.00" fill="grey">MODULE_HEADER</text>
<text text-anchor="middle" x="328.25" y="-191.5" font-family="Helvetica,sans-Serif" font-size="10.00" fill="grey">_logString</text>
<text text-anchor="middle" x="328.25" y="-179.5" font-family="Helvetica,sans-Serif" font-size="10.00" fill="grey">shaderPath</text>
</g>
<!-- Node11 -->
<g id="Node000011" class="node">
<title>Node11</title>
<g id="a_Node000011"><a xlink:title=" ">
<polygon fill="white" stroke="#666666" points="379.38,-132 277.12,-132 277.12,-88 379.38,-88 379.38,-132"/>
<text text-anchor="start" x="285.12" y="-118.5" font-family="Helvetica,sans-Serif" font-size="10.00">std::unordered_map</text>
<text text-anchor="start" x="285.12" y="-106.5" font-family="Helvetica,sans-Serif" font-size="10.00">&lt; std::string, std::</text>
<text text-anchor="middle" x="328.25" y="-94.5" font-family="Helvetica,sans-Serif" font-size="10.00">string &gt;</text>
</a>
</g>
</g>
<!-- Node3&#45;&gt;Node11 -->
<g id="edge14_Node000011_Node000003" class="edge">
<title>Node3&#45;&gt;Node11</title>
<g id="a_edge14_Node000011_Node000003"><a xlink:title=" ">
<path fill="none" stroke="#9a32cd" stroke-dasharray="5,2" d="M163.55,-318.36C168.04,-270.08 181.33,-155.79 208.5,-130 226.47,-112.94 253.25,-107.39 276.83,-106.35"/>
<polygon fill="#9a32cd" stroke="#9a32cd" points="160.09,-317.83 162.69,-328.1 167.06,-318.45 160.09,-317.83"/>
</a>
</g>
<text text-anchor="middle" x="229.88" y="-144.5" font-family="Helvetica,sans-Serif" font-size="10.00" fill="grey"> elements</text>
<text text-anchor="middle" x="229.88" y="-132.5" font-family="Helvetica,sans-Serif" font-size="10.00" fill="grey">keys</text>
</g>
<!-- Node13 -->
<g id="Node000013" class="node">
<title>Node13</title>
<g id="a_Node000013"><a xlink:title=" ">
<polygon fill="white" stroke="#666666" points="381.62,-32 274.88,-32 274.88,0 381.62,0 381.62,-32"/>
<text text-anchor="start" x="282.88" y="-18.5" font-family="Helvetica,sans-Serif" font-size="10.00">std::unordered_map</text>
<text text-anchor="middle" x="328.25" y="-6.5" font-family="Helvetica,sans-Serif" font-size="10.00">&lt; std::string, GLint &gt;</text>
</a>
</g>
</g>
<!-- Node3&#45;&gt;Node13 -->
<g id="edge17_Node000013_Node000003" class="edge">
<title>Node3&#45;&gt;Node13</title>
<g id="a_edge17_Node000013_Node000003"><a xlink:title=" ">
<path fill="none" stroke="#9a32cd" stroke-dasharray="5,2" d="M161.34,-318.19C161.45,-273.36 166.57,-168.86 208.5,-95 225.13,-65.71 257.6,-45.25 284.39,-32.5"/>
<polygon fill="#9a32cd" stroke="#9a32cd" points="157.84,-318.15 161.42,-328.12 164.84,-318.1 157.84,-318.15"/>
</a>
</g>
<text text-anchor="middle" x="229.88" y="-97.5" font-family="Helvetica,sans-Serif" font-size="10.00" fill="grey"> keys</text>
</g>
<!-- Node15 -->
<g id="Node000015" class="node">
<title>Node15</title>
<g id="a_Node000015"><a xlink:href="../../d3/d03/a01549.html" target="_top" xlink:title=" ">
<polygon fill="white" stroke="#666666" points="638.62,-324 563.38,-324 563.38,-304 638.62,-304 638.62,-324"/>
<text text-anchor="middle" x="601" y="-310.5" font-family="Helvetica,sans-Serif" font-size="10.00">GEU::Texture</text>
</a>
</g>
</g>
<!-- Node3&#45;&gt;Node15 -->
<g id="edge20_Node000015_Node000003" class="edge">
<title>Node3&#45;&gt;Node15</title>
<g id="a_edge20_Node000015_Node000003"><a xlink:title=" ">
<path fill="none" stroke="#9a32cd" stroke-dasharray="5,2" d="M202.17,-334.82C222.3,-332.41 247.02,-329.71 269.25,-328 375.84,-319.81 502.14,-316.13 563.24,-314.73"/>
<polygon fill="#9a32cd" stroke="#9a32cd" points="201.9,-331.33 192.4,-336.01 202.75,-338.28 201.9,-331.33"/>
</a>
</g>
<text text-anchor="middle" x="328.25" y="-342.5" font-family="Helvetica,sans-Serif" font-size="10.00" fill="grey"> TEXTURE_LAYER_IDS</text>
<text text-anchor="middle" x="328.25" y="-330.5" font-family="Helvetica,sans-Serif" font-size="10.00" fill="grey">_filename</text>
</g>
<!-- Node16 -->
<g id="Node000016" class="node">
<title>Node16</title>
<g id="a_Node000016"><a xlink:title=" ">
<polygon fill="white" stroke="#666666" points="387.25,-278 269.25,-278 269.25,-246 387.25,-246 387.25,-278"/>
<text text-anchor="start" x="277.25" y="-264.5" font-family="Helvetica,sans-Serif" font-size="10.00">std::unordered_map</text>
<text text-anchor="middle" x="328.25" y="-252.5" font-family="Helvetica,sans-Serif" font-size="10.00">&lt; uint16_t, std::string &gt;</text>
</a>
</g>
</g>
<!-- Node3&#45;&gt;Node16 -->
<g id="edge22_Node000016_Node000003" class="edge">
<title>Node3&#45;&gt;Node16</title>
<g id="a_edge22_Node000016_Node000003"><a xlink:title=" ">
<path fill="none" stroke="#9a32cd" stroke-dasharray="5,2" d="M174.38,-320.76C182.75,-309.53 194.7,-296.03 208.5,-288 226.74,-277.39 248.85,-271.1 269.02,-267.37"/>
<polygon fill="#9a32cd" stroke="#9a32cd" points="171.75,-318.42 168.86,-328.61 177.48,-322.44 171.75,-318.42"/>
</a>
</g>
<text text-anchor="middle" x="229.88" y="-290.5" font-family="Helvetica,sans-Serif" font-size="10.00" fill="grey"> elements</text>
</g>
<!-- Node17 -->
<g id="Node000017" class="node">
<title>Node17</title>
<g id="a_Node000017"><a xlink:title=" ">
<polygon fill="white" stroke="#666666" points="527.75,-414 405.25,-414 405.25,-394 527.75,-394 527.75,-414"/>
<text text-anchor="middle" x="466.5" y="-400.5" font-family="Helvetica,sans-Serif" font-size="10.00">std::vector&lt; std::string &gt;</text>
</a>
</g>
</g>
<!-- Node3&#45;&gt;Node17 -->
<g id="edge24_Node000017_Node000003" class="edge">
<title>Node3&#45;&gt;Node17</title>
<g id="a_edge24_Node000017_Node000003"><a xlink:title=" ">
<path fill="none" stroke="#9a32cd" stroke-dasharray="5,2" d="M178.16,-358.46C186.42,-366.5 197.09,-375.17 208.5,-380 271.64,-406.73 351.11,-410.08 404.83,-408.45"/>
<polygon fill="#9a32cd" stroke="#9a32cd" points="180.72,-356.08 171.27,-351.3 175.68,-360.93 180.72,-356.08"/>
</a>
</g>
<text text-anchor="middle" x="229.88" y="-397.5" font-family="Helvetica,sans-Serif" font-size="10.00" fill="grey"> elements</text>
</g>
<!-- Node4 -->
<g id="Node000004" class="node">
<title>Node4</title>
<g id="a_Node000004"><a xlink:title=" ">
<polygon fill="white" stroke="#666666" points="94,-356 0,-356 0,-324 94,-324 94,-356"/>
<text text-anchor="start" x="8" y="-342.5" font-family="Helvetica,sans-Serif" font-size="10.00">std::basic_string&lt;</text>
<text text-anchor="middle" x="47" y="-330.5" font-family="Helvetica,sans-Serif" font-size="10.00"> Char &gt;</text>
</a>
</g>
</g>
<!-- Node4&#45;&gt;Node3 -->
<g id="edge3_Node000003_Node000004" class="edge">
<title>Node4&#45;&gt;Node3</title>
<g id="a_edge3_Node000003_Node000004"><a xlink:title=" ">
<path fill="none" stroke="#63b8ff" d="M105.71,-340C114.32,-340 122.87,-340 130.55,-340"/>
<polygon fill="#63b8ff" stroke="#63b8ff" points="105.93,-336.5 95.93,-340 105.93,-343.5 105.93,-336.5"/>
</a>
</g>
</g>
<!-- Node5&#45;&gt;Node1 -->
<g id="edge4_Node000001_Node000005" class="edge">
<title>Node5&#45;&gt;Node1</title>
<g id="a_edge4_Node000001_Node000005"><a xlink:title=" ">
<path fill="none" stroke="#9a32cd" stroke-dasharray="5,2" d="M1677.21,-493.13C1693.75,-505.7 1717.41,-522.65 1739.75,-535 1787.85,-561.59 1847.64,-584.8 1882.88,-597.56"/>
<polygon fill="#9a32cd" stroke="#9a32cd" points="1679.61,-490.57 1669.56,-487.23 1675.34,-496.11 1679.61,-490.57"/>
</a>
</g>
<text text-anchor="middle" x="1785.12" y="-579.5" font-family="Helvetica,sans-Serif" font-size="10.00" fill="grey"> _pickingTargetCloud</text>
</g>
<!-- Node26 -->
<g id="Node000026" class="node">
<title>Node26</title>
<g id="a_Node000026"><a xlink:href="../../d0/d02/a01513.html" target="_top" xlink:title=" ">
<polygon fill="white" stroke="#666666" points="1979.25,-707 1848.5,-707 1848.5,-687 1979.25,-687 1979.25,-707"/>
<text text-anchor="middle" x="1913.88" y="-693.5" font-family="Helvetica,sans-Serif" font-size="10.00">GEU::PointCloud::Meshlet</text>
</a>
</g>
</g>
<!-- Node5&#45;&gt;Node26 -->
<g id="edge36_Node000026_Node000005" class="edge">
<title>Node5&#45;&gt;Node26</title>
<g id="a_edge36_Node000026_Node000005"><a xlink:title=" ">
<path fill="none" stroke="#9a32cd" stroke-dasharray="5,2" d="M1670.84,-495.26C1685.21,-513.89 1706.67,-543.31 1721.75,-571 1731.85,-589.56 1725.22,-599.66 1739.75,-615 1775.55,-652.78 1832.28,-675.02 1870.97,-686.59"/>
<polygon fill="#9a32cd" stroke="#9a32cd" points="1673.7,-493.25 1664.79,-487.52 1668.19,-497.56 1673.7,-493.25"/>
</a>
</g>
<text text-anchor="middle" x="1785.12" y="-672.5" font-family="Helvetica,sans-Serif" font-size="10.00" fill="grey"> parent</text>
</g>
<!-- Node35 -->
<g id="Node000035" class="node">
<title>Node35</title>
<g id="a_Node000035"><a xlink:title=" ">
<polygon fill="white" stroke="#666666" points="1969.12,-440 1858.62,-440 1858.62,-408 1969.12,-408 1969.12,-440"/>
<text text-anchor="start" x="1866.62" y="-426.5" font-family="Helvetica,sans-Serif" font-size="10.00">std::unique_ptr&lt; GEU</text>
<text text-anchor="middle" x="1913.88" y="-414.5" font-family="Helvetica,sans-Serif" font-size="10.00">::PointCloud &gt;</text>
</a>
</g>
</g>
<!-- Node5&#45;&gt;Node35 -->
<g id="edge46_Node000035_Node000005" class="edge">
<title>Node5&#45;&gt;Node35</title>
<g id="a_edge46_Node000035_Node000005"><a xlink:title=" ">
<path fill="none" stroke="#9a32cd" stroke-dasharray="5,2" d="M1695.85,-462.2C1709.65,-457.84 1725.27,-453.3 1739.75,-450 1779.01,-441.05 1824.01,-434.4 1858.29,-430.06"/>
<polygon fill="#9a32cd" stroke="#9a32cd" points="1695.11,-458.76 1686.67,-465.16 1697.26,-465.42 1695.11,-458.76"/>
</a>
</g>
<text text-anchor="middle" x="1785.12" y="-452.5" font-family="Helvetica,sans-Serif" font-size="10.00" fill="grey"> ptr</text>
</g>
<!-- Node6&#45;&gt;Node5 -->
<g id="edge5_Node000005_Node000006" class="edge">
<title>Node6&#45;&gt;Node5</title>
<g id="a_edge5_Node000005_Node000006"><a xlink:title=" ">
<path fill="none" stroke="#63b8ff" d="M1410.25,-445.44C1452.83,-450.06 1515.04,-457.04 1569.25,-464 1582.15,-465.65 1596.13,-467.59 1608.93,-469.42"/>
<polygon fill="#63b8ff" stroke="#63b8ff" points="1410.88,-441.99 1400.56,-444.39 1410.13,-448.95 1410.88,-441.99"/>
</a>
</g>
</g>
<!-- Node7 -->
<g id="Node000007" class="node">
<title>Node7</title>
<g id="a_Node000007"><a xlink:href="../../db/d05/a01637.html" target="_top" xlink:title=" ">
<polygon fill="white" stroke="#666666" points="1115.75,-706 1072.75,-706 1072.75,-686 1115.75,-686 1115.75,-706"/>
<text text-anchor="middle" x="1094.25" y="-692.5" font-family="Helvetica,sans-Serif" font-size="10.00">AABB</text>
</a>
</g>
</g>
<!-- Node7&#45;&gt;Node6 -->
<g id="edge7_Node000006_Node000007" class="edge">
<title>Node7&#45;&gt;Node6</title>
<g id="a_edge7_Node000006_Node000007"><a xlink:title=" ">
<path fill="none" stroke="#9a32cd" stroke-dasharray="5,2" d="M1125.44,-680.25C1166.53,-658.22 1236.81,-618.18 1253,-594 1277.4,-557.57 1246.79,-533.56 1271,-497 1285.45,-475.17 1311.43,-459.7 1331.09,-450.44"/>
<polygon fill="#9a32cd" stroke="#9a32cd" points="1123.95,-677.08 1116.77,-684.86 1127.24,-683.26 1123.95,-677.08"/>
</a>
</g>
<text text-anchor="middle" x="1211.38" y="-657.5" font-family="Helvetica,sans-Serif" font-size="10.00" fill="grey"> _aabb</text>
</g>
<!-- Node7&#45;&gt;Node26 -->
<g id="edge35_Node000026_Node000007" class="edge">
<title>Node7&#45;&gt;Node26</title>
<g id="a_edge35_Node000026_Node000007"><a xlink:title=" ">
<path fill="none" stroke="#9a32cd" stroke-dasharray="5,2" d="M1126.46,-709.76C1161.03,-724.26 1218.8,-746.31 1271,-756 1468.04,-792.56 1523.16,-794.89 1721.75,-768 1771.44,-761.27 1783.67,-755.92 1830.5,-738 1853.33,-729.26 1878.29,-716.33 1894.69,-707.33"/>
<polygon fill="#9a32cd" stroke="#9a32cd" points="1128.05,-706.63 1117.48,-705.94 1125.31,-713.07 1128.05,-706.63"/>
</a>
</g>
<text text-anchor="middle" x="1516.25" y="-788.5" font-family="Helvetica,sans-Serif" font-size="10.00" fill="grey"> aabb</text>
</g>
<!-- Node37 -->
<g id="Node000037" class="node">
<title>Node37</title>
<g id="a_Node000037"><a xlink:title=" ">
<polygon fill="white" stroke="#666666" points="1569.25,-701 1463.25,-701 1463.25,-681 1569.25,-681 1569.25,-701"/>
<text text-anchor="middle" x="1516.25" y="-687.5" font-family="Helvetica,sans-Serif" font-size="10.00">std::vector&lt; AABB &gt;</text>
</a>
</g>
</g>
<!-- Node7&#45;&gt;Node37 -->
<g id="edge49_Node000037_Node000007" class="edge">
<title>Node7&#45;&gt;Node37</title>
<g id="a_edge49_Node000037_Node000007"><a xlink:title=" ">
<path fill="none" stroke="#9a32cd" stroke-dasharray="5,2" d="M1127.55,-695.62C1199.79,-694.76 1374.98,-692.67 1462.98,-691.62"/>
<polygon fill="#9a32cd" stroke="#9a32cd" points="1127.55,-692.12 1117.59,-695.73 1127.63,-699.11 1127.55,-692.12"/>
</a>
</g>
<text text-anchor="middle" x="1211.38" y="-697.5" font-family="Helvetica,sans-Serif" font-size="10.00" fill="grey"> elements</text>
</g>
<!-- Node8&#45;&gt;Node6 -->
<g id="edge8_Node000006_Node000008" class="edge">
<title>Node8&#45;&gt;Node6</title>
<g id="a_edge8_Node000006_Node000008"><a xlink:title=" ">
<path fill="none" stroke="#9a32cd" stroke-dasharray="5,2" d="M1144.89,-405.3C1176.11,-406.72 1217.14,-409.72 1253,-416 1261.18,-417.43 1262.94,-418.99 1271,-421 1286.01,-424.74 1302.58,-428.48 1317.14,-431.65"/>
<polygon fill="#9a32cd" stroke="#9a32cd" points="1145.09,-401.8 1134.95,-404.89 1144.8,-408.8 1145.09,-401.8"/>
</a>
</g>
<text text-anchor="middle" x="1211.38" y="-418.5" font-family="Helvetica,sans-Serif" font-size="10.00" fill="grey"> _material</text>
</g>
<!-- Node9 -->
<g id="Node000009" class="node">
<title>Node9</title>
<g id="a_Node000009"><a xlink:href="../../d1/d02/a01533.html" target="_top" xlink:title=" ">
<polygon fill="white" stroke="#666666" points="914.5,-120 797.25,-120 797.25,-100 914.5,-100 914.5,-120"/>
<text text-anchor="middle" x="855.88" y="-106.5" font-family="Helvetica,sans-Serif" font-size="10.00">GEU::RenderingShader</text>
</a>
</g>
</g>
<!-- Node9&#45;&gt;Node8 -->
<g id="edge10_Node000008_Node000009" class="edge">
<title>Node9&#45;&gt;Node8</title>
<g id="a_edge10_Node000008_Node000009"><a xlink:title=" ">
<path fill="none" stroke="#9a32cd" stroke-dasharray="5,2" d="M878.53,-127.53C913.93,-157.47 983.75,-222.13 1018.75,-293 1037.2,-330.36 1009.28,-353.67 1036.75,-385 1041.66,-390.6 1048.28,-394.56 1055.26,-397.35"/>
<polygon fill="#9a32cd" stroke="#9a32cd" points="881,-125.03 871.08,-121.32 876.52,-130.41 881,-125.03"/>
</a>
</g>
<text text-anchor="middle" x="975.62" y="-295.5" font-family="Helvetica,sans-Serif" font-size="10.00" fill="grey"> _associatedShader</text>
</g>
<!-- Node10&#45;&gt;Node9 -->
<g id="edge11_Node000009_Node000010" class="edge">
<title>Node10&#45;&gt;Node9</title>
<g id="a_edge11_Node000009_Node000010"><a xlink:title=" ">
<path fill="none" stroke="#63b8ff" d="M668.06,-110C708.02,-110 758.49,-110 796.9,-110"/>
<polygon fill="#63b8ff" stroke="#63b8ff" points="668.07,-106.5 658.07,-110 668.07,-113.5 668.07,-106.5"/>
</a>
</g>
</g>
<!-- Node11&#45;&gt;Node10 -->
<g id="edge13_Node000010_Node000011" class="edge">
<title>Node11&#45;&gt;Node10</title>
<g id="a_edge13_Node000010_Node000011"><a xlink:title=" ">
<path fill="none" stroke="#9a32cd" stroke-dasharray="5,2" d="M391.31,-110C437.82,-110 500.87,-110 545.46,-110"/>
<polygon fill="#9a32cd" stroke="#9a32cd" points="391.37,-106.5 381.37,-110 391.37,-113.5 391.37,-106.5"/>
</a>
</g>
<text text-anchor="middle" x="466.5" y="-112.5" font-family="Helvetica,sans-Serif" font-size="10.00" fill="grey"> _moduleCode</text>
</g>
<!-- Node12 -->
<g id="Node000012" class="node">
<title>Node12</title>
<g id="a_Node000012"><a xlink:title=" ">
<polygon fill="white" stroke="#666666" points="382,-70 274.5,-70 274.5,-50 382,-50 382,-70"/>
<text text-anchor="middle" x="328.25" y="-56.5" font-family="Helvetica,sans-Serif" font-size="10.00">std::vector&lt; GLuint &gt;</text>
</a>
</g>
</g>
<!-- Node12&#45;&gt;Node10 -->
<g id="edge15_Node000010_Node000012" class="edge">
<title>Node12&#45;&gt;Node10</title>
<g id="a_edge15_Node000010_Node000012"><a xlink:title=" ">
<path fill="none" stroke="#9a32cd" stroke-dasharray="5,2" d="M393.62,-70.22C432.54,-76.6 483.1,-85.24 527.75,-94 536.32,-95.68 545.44,-97.6 554.2,-99.51"/>
<polygon fill="#9a32cd" stroke="#9a32cd" points="394.38,-66.8 383.95,-68.64 393.26,-73.7 394.38,-66.8"/>
</a>
</g>
<text text-anchor="middle" x="466.5" y="-96.5" font-family="Helvetica,sans-Serif" font-size="10.00" fill="grey"> _activeSubroutineUniform</text>
</g>
<!-- Node13&#45;&gt;Node10 -->
<g id="edge16_Node000010_Node000013" class="edge">
<title>Node13&#45;&gt;Node10</title>
<g id="a_edge16_Node000010_Node000013"><a xlink:title=" ">
<path fill="none" stroke="#9a32cd" stroke-dasharray="5,2" d="M393.04,-9.74C435.49,-9.02 490.16,-15.13 527.75,-45 544.94,-58.66 529.95,-75.76 545.75,-91 549.34,-94.46 553.6,-97.3 558.13,-99.62"/>
<polygon fill="#9a32cd" stroke="#9a32cd" points="393.09,-6.24 383.2,-10.05 393.31,-13.24 393.09,-6.24"/>
</a>
</g>
<text text-anchor="middle" x="466.5" y="-59.5" font-family="Helvetica,sans-Serif" font-size="10.00" fill="grey"> subroutineLocation</text>
<text text-anchor="middle" x="466.5" y="-47.5" font-family="Helvetica,sans-Serif" font-size="10.00" fill="grey">uniformLocation</text>
</g>
<!-- Node14 -->
<g id="Node000014" class="node">
<title>Node14</title>
<g id="a_Node000014"><a xlink:title=" ">
<polygon fill="white" stroke="#666666" points="649.5,-82 552.5,-82 552.5,-62 649.5,-62 649.5,-82"/>
<text text-anchor="middle" x="601" y="-68.5" font-family="Helvetica,sans-Serif" font-size="10.00">std::vector&lt; bool &gt;</text>
</a>
</g>
</g>
<!-- Node14&#45;&gt;Node9 -->
<g id="edge18_Node000009_Node000014" class="edge">
<title>Node14&#45;&gt;Node9</title>
<g id="a_edge18_Node000009_Node000014"><a xlink:title=" ">
<path fill="none" stroke="#9a32cd" stroke-dasharray="5,2" d="M661.24,-78.08C695.77,-81.94 740.1,-87.44 779.25,-94 788.78,-95.6 798.93,-97.56 808.6,-99.56"/>
<polygon fill="#9a32cd" stroke="#9a32cd" points="661.76,-74.61 651.44,-77 660.99,-81.57 661.76,-74.61"/>
</a>
</g>
<text text-anchor="middle" x="726.75" y="-96.5" font-family="Helvetica,sans-Serif" font-size="10.00" fill="grey"> _implementsSubroutine</text>
</g>
<!-- Node15&#45;&gt;Node8 -->
<g id="edge19_Node000008_Node000015" class="edge">
<title>Node15&#45;&gt;Node8</title>
<g id="a_edge19_Node000008_Node000015"><a xlink:title=" ">
<path fill="none" stroke="#9a32cd" stroke-dasharray="5,2" d="M649.99,-303.97C733.19,-289.44 906.09,-272.07 1018.75,-350 1033.14,-359.95 1023.49,-373.6 1036.75,-385 1042.09,-389.59 1048.57,-393.08 1055.23,-395.73"/>
<polygon fill="#9a32cd" stroke="#9a32cd" points="649.56,-300.49 640.35,-305.73 650.82,-307.38 649.56,-300.49"/>
</a>
</g>
<text text-anchor="middle" x="855.88" y="-307.5" font-family="Helvetica,sans-Serif" font-size="10.00" fill="grey"> _texture</text>
</g>
<!-- Node16&#45;&gt;Node15 -->
<g id="edge21_Node000015_Node000016" class="edge">
<title>Node16&#45;&gt;Node15</title>
<g id="a_edge21_Node000015_Node000016"><a xlink:title=" ">
<path fill="none" stroke="#9a32cd" stroke-dasharray="5,2" d="M398.69,-267.4C437.1,-271.31 485.48,-277.75 527.75,-288 543.94,-291.93 561.55,-298.22 575.33,-303.63"/>
<polygon fill="#9a32cd" stroke="#9a32cd" points="399.42,-263.96 389.12,-266.47 398.73,-270.92 399.42,-263.96"/>
</a>
</g>
<text text-anchor="middle" x="466.5" y="-290.5" font-family="Helvetica,sans-Serif" font-size="10.00" fill="grey"> SHADER_VARIABLE</text>
</g>
<!-- Node17&#45;&gt;Node8 -->
<g id="edge23_Node000008_Node000017" class="edge">
<title>Node17&#45;&gt;Node8</title>
<g id="a_edge23_Node000008_Node000017"><a xlink:title=" ">
<path fill="none" stroke="#9a32cd" stroke-dasharray="5,2" d="M539.33,-404C672.5,-404 953.41,-404 1055.31,-404"/>
<polygon fill="#9a32cd" stroke="#9a32cd" points="539.58,-400.5 529.58,-404 539.58,-407.5 539.58,-400.5"/>
</a>
</g>
<text text-anchor="middle" x="726.75" y="-406.5" font-family="Helvetica,sans-Serif" font-size="10.00" fill="grey"> _enabledSubroutines</text>
</g>
<!-- Node18 -->
<g id="Node000018" class="node">
<title>Node18</title>
<g id="a_Node000018"><a xlink:title=" ">
<polygon fill="white" stroke="#666666" points="1398.38,-412 1317.88,-412 1317.88,-392 1398.38,-392 1398.38,-412"/>
<text text-anchor="middle" x="1358.12" y="-398.5" font-family="Helvetica,sans-Serif" font-size="10.00">std::array&lt; T &gt;</text>
</a>
</g>
</g>
<!-- Node18&#45;&gt;Node5 -->
<g id="edge25_Node000005_Node000018" class="edge">
<title>Node18&#45;&gt;Node5</title>
<g id="a_edge25_Node000005_Node000018"><a xlink:title=" ">
<path fill="none" stroke="#9a32cd" stroke-dasharray="5,2" d="M1409.95,-406.16C1453.09,-410.65 1516.24,-419.5 1569.25,-436 1593.06,-443.41 1618.71,-456.38 1635.37,-465.54"/>
<polygon fill="#9a32cd" stroke="#9a32cd" points="1410.42,-402.69 1400.12,-405.19 1409.72,-409.66 1410.42,-402.69"/>
</a>
</g>
<text text-anchor="middle" x="1516.25" y="-438.5" font-family="Helvetica,sans-Serif" font-size="10.00" fill="grey"> _viewModes</text>
</g>
<!-- Node19 -->
<g id="Node000019" class="node">
<title>Node19</title>
<g id="a_Node000019"><a xlink:title=" ">
<polygon fill="white" stroke="#666666" points="1108.65,-376 1079.85,-376 1079.85,-356 1108.65,-356 1108.65,-376"/>
<text text-anchor="middle" x="1094.25" y="-362.5" font-family="Helvetica,sans-Serif" font-size="10.00">T</text>
</a>
</g>
</g>
<!-- Node19&#45;&gt;Node18 -->
<g id="edge26_Node000018_Node000019" class="edge">
<title>Node19&#45;&gt;Node18</title>
<g id="a_edge26_Node000018_Node000019"><a xlink:title=" ">
<path fill="none" stroke="#9a32cd" stroke-dasharray="5,2" d="M1120.11,-369.42C1165.64,-375.68 1262.76,-389.03 1317.49,-396.55"/>
<polygon fill="#9a32cd" stroke="#9a32cd" points="1120.84,-365.99 1110.46,-368.09 1119.89,-372.92 1120.84,-365.99"/>
</a>
</g>
<text text-anchor="middle" x="1211.38" y="-390.5" font-family="Helvetica,sans-Serif" font-size="10.00" fill="grey"> elements</text>
</g>
<!-- Node20 -->
<g id="Node000020" class="node">
<title>Node20</title>
<g id="a_Node000020"><a xlink:href="../../de/d07/a01417.html" target="_top" xlink:title=" ">
<polygon fill="white" stroke="#666666" points="1413.38,-374 1302.88,-374 1302.88,-354 1413.38,-354 1413.38,-374"/>
<text text-anchor="middle" x="1358.12" y="-360.5" font-family="Helvetica,sans-Serif" font-size="10.00">GEU::GPUResources</text>
</a>
</g>
</g>
<!-- Node20&#45;&gt;Node5 -->
<g id="edge28_Node000005_Node000020" class="edge">
<title>Node20&#45;&gt;Node5</title>
<g id="a_edge28_Node000005_Node000020"><a xlink:title=" ">
<path fill="none" stroke="#9a32cd" stroke-dasharray="5,2" d="M1424.98,-364.92C1467.95,-367.81 1524.22,-376.04 1569.25,-398 1602.75,-414.34 1632.27,-448.43 1645.74,-465.62"/>
<polygon fill="#9a32cd" stroke="#9a32cd" points="1425.21,-361.42 1415.03,-364.34 1424.81,-368.41 1425.21,-361.42"/>
</a>
</g>
<text text-anchor="middle" x="1516.25" y="-400.5" font-family="Helvetica,sans-Serif" font-size="10.00" fill="grey"> _GPUResources</text>
</g>
<!-- Node21 -->
<g id="Node000021" class="node">
<title>Node21</title>
<g id="a_Node000021"><a xlink:title=" ">
<polygon fill="white" stroke="#666666" points="1146.5,-338 1042,-338 1042,-294 1146.5,-294 1146.5,-338"/>
<text text-anchor="start" x="1050" y="-324.5" font-family="Helvetica,sans-Serif" font-size="10.00">std::array&lt; size_t,</text>
<text text-anchor="start" x="1050" y="-312.5" font-family="Helvetica,sans-Serif" font-size="10.00">(uint8_t) SSBOSlots</text>
<text text-anchor="middle" x="1094.25" y="-300.5" font-family="Helvetica,sans-Serif" font-size="10.00">::Total &gt;</text>
</a>
</g>
</g>
<!-- Node21&#45;&gt;Node20 -->
<g id="edge29_Node000020_Node000021" class="edge">
<title>Node21&#45;&gt;Node20</title>
<g id="a_edge29_Node000020_Node000021"><a xlink:title=" ">
<path fill="none" stroke="#9a32cd" stroke-dasharray="5,2" d="M1158.17,-327.53C1202.29,-335.62 1260.69,-346.32 1302.79,-354.04"/>
<polygon fill="#9a32cd" stroke="#9a32cd" points="1158.94,-324.12 1148.48,-325.76 1157.68,-331 1158.94,-324.12"/>
</a>
</g>
<text text-anchor="middle" x="1211.38" y="-347.5" font-family="Helvetica,sans-Serif" font-size="10.00" fill="grey"> _memoryReserved</text>
</g>
<!-- Node22 -->
<g id="Node000022" class="node">
<title>Node22</title>
<g id="a_Node000022"><a xlink:title=" ">
<polygon fill="white" stroke="#666666" points="1146.5,-276 1042,-276 1042,-232 1146.5,-232 1146.5,-276"/>
<text text-anchor="start" x="1050" y="-262.5" font-family="Helvetica,sans-Serif" font-size="10.00">std::array&lt; GLuint,</text>
<text text-anchor="start" x="1050" y="-250.5" font-family="Helvetica,sans-Serif" font-size="10.00">(uint8_t) SSBOSlots</text>
<text text-anchor="middle" x="1094.25" y="-238.5" font-family="Helvetica,sans-Serif" font-size="10.00">::Total &gt;</text>
</a>
</g>
</g>
<!-- Node22&#45;&gt;Node20 -->
<g id="edge30_Node000020_Node000022" class="edge">
<title>Node22&#45;&gt;Node20</title>
<g id="a_edge30_Node000020_Node000022"><a xlink:title=" ">
<path fill="none" stroke="#9a32cd" stroke-dasharray="5,2" d="M1157.75,-267.86C1188.96,-277.19 1225.77,-292.08 1253,-315 1264.9,-325.01 1258.38,-335.92 1271,-345 1280.32,-351.71 1291.57,-356.12 1302.82,-359"/>
<polygon fill="#9a32cd" stroke="#9a32cd" points="1159,-264.58 1148.42,-265.21 1157.08,-271.31 1159,-264.58"/>
</a>
</g>
<text text-anchor="middle" x="1211.38" y="-317.5" font-family="Helvetica,sans-Serif" font-size="10.00" fill="grey"> _ssboIds</text>
</g>
<!-- Node23 -->
<g id="Node000023" class="node">
<title>Node23</title>
<g id="a_Node000023"><a xlink:title=" ">
<polygon fill="white" stroke="#666666" points="1407.38,-336 1308.88,-336 1308.88,-316 1407.38,-316 1407.38,-336"/>
<text text-anchor="middle" x="1358.12" y="-322.5" font-family="Helvetica,sans-Serif" font-size="10.00">std::vector&lt; vec3 &gt;</text>
</a>
</g>
</g>
<!-- Node23&#45;&gt;Node5 -->
<g id="edge31_Node000005_Node000023" class="edge">
<title>Node23&#45;&gt;Node5</title>
<g id="a_edge31_Node000005_Node000023"><a xlink:title=" ">
<path fill="none" stroke="#9a32cd" stroke-dasharray="5,2" d="M1418.71,-316.5C1463.32,-312.48 1524.14,-313.84 1569.25,-341 1617.77,-370.22 1642.61,-439.21 1650.58,-465.54"/>
<polygon fill="#9a32cd" stroke="#9a32cd" points="1418.55,-312.99 1408.96,-317.5 1419.27,-319.96 1418.55,-312.99"/>
</a>
</g>
<text text-anchor="middle" x="1516.25" y="-355.5" font-family="Helvetica,sans-Serif" font-size="10.00" fill="grey"> _normals</text>
<text text-anchor="middle" x="1516.25" y="-343.5" font-family="Helvetica,sans-Serif" font-size="10.00" fill="grey">_position</text>
</g>
<!-- Node24 -->
<g id="Node000024" class="node">
<title>Node24</title>
<g id="a_Node000024"><a xlink:title=" ">
<polygon fill="white" stroke="#666666" points="1417.12,-298 1299.12,-298 1299.12,-278 1417.12,-278 1417.12,-298"/>
<text text-anchor="middle" x="1358.12" y="-284.5" font-family="Helvetica,sans-Serif" font-size="10.00">std::vector&lt; unsigned &gt;</text>
</a>
</g>
</g>
<!-- Node24&#45;&gt;Node5 -->
<g id="edge32_Node000005_Node000024" class="edge">
<title>Node24&#45;&gt;Node5</title>
<g id="a_edge32_Node000005_Node000024"><a xlink:title=" ">
<path fill="none" stroke="#9a32cd" stroke-dasharray="5,2" d="M1417.79,-275.9C1462.97,-269.94 1524.97,-269.39 1569.25,-299 1629.22,-339.11 1647.64,-434.17 1652.2,-465.67"/>
<polygon fill="#9a32cd" stroke="#9a32cd" points="1417.29,-272.44 1407.9,-277.35 1418.3,-279.37 1417.29,-272.44"/>
</a>
</g>
<text text-anchor="middle" x="1516.25" y="-301.5" font-family="Helvetica,sans-Serif" font-size="10.00" fill="grey"> _rgbColor</text>
</g>
<!-- Node25 -->
<g id="Node000025" class="node">
<title>Node25</title>
<g id="a_Node000025"><a xlink:title=" ">
<polygon fill="white" stroke="#666666" points="2202.25,-547 2058,-547 2058,-515 2202.25,-515 2202.25,-547"/>
<text text-anchor="start" x="2066" y="-533.5" font-family="Helvetica,sans-Serif" font-size="10.00">std::vector&lt; GEU::PointCloud</text>
<text text-anchor="middle" x="2130.12" y="-521.5" font-family="Helvetica,sans-Serif" font-size="10.00">::Meshlet &gt;</text>
</a>
</g>
</g>
<!-- Node25&#45;&gt;Node5 -->
<g id="edge33_Node000005_Node000025" class="edge">
<title>Node25&#45;&gt;Node5</title>
<g id="a_edge33_Node000005_Node000025"><a xlink:title=" ">
<path fill="none" stroke="#9a32cd" stroke-dasharray="5,2" d="M2046.28,-523.17C1967.36,-515.45 1845.29,-502.83 1739.75,-489 1726.84,-487.31 1712.85,-485.24 1700.04,-483.26"/>
<polygon fill="#9a32cd" stroke="#9a32cd" points="2045.8,-526.64 2056.09,-524.13 2046.48,-519.67 2045.8,-526.64"/>
</a>
</g>
<text text-anchor="middle" x="1913.88" y="-519.5" font-family="Helvetica,sans-Serif" font-size="10.00" fill="grey"> _meshlets</text>
</g>
<!-- Node26&#45;&gt;Node25 -->
<g id="edge34_Node000025_Node000026" class="edge">
<title>Node26&#45;&gt;Node25</title>
<g id="a_edge34_Node000025_Node000026"><a xlink:title=" ">
<path fill="none" stroke="#9a32cd" stroke-dasharray="5,2" d="M1937.34,-679.6C1978.98,-647.33 2067.61,-578.66 2108.12,-547.27"/>
<polygon fill="#9a32cd" stroke="#9a32cd" points="1935.24,-676.8 1929.47,-685.69 1939.52,-682.33 1935.24,-676.8"/>
</a>
</g>
<text text-anchor="middle" x="2018.62" y="-631.5" font-family="Helvetica,sans-Serif" font-size="10.00" fill="grey"> elements</text>
</g>
<!-- Node27 -->
<g id="Node000027" class="node">
<title>Node27</title>
<g id="a_Node000027"><a xlink:title=" ">
<polygon fill="white" stroke="#666666" points="1721.75,-759 1587.25,-759 1587.25,-715 1721.75,-715 1721.75,-759"/>
<text text-anchor="start" x="1595.25" y="-745.5" font-family="Helvetica,sans-Serif" font-size="10.00">std::array&lt; std::vector</text>
<text text-anchor="start" x="1595.25" y="-733.5" font-family="Helvetica,sans-Serif" font-size="10.00">&lt; dataState &gt;, NUM_DATA</text>
<text text-anchor="middle" x="1654.5" y="-721.5" font-family="Helvetica,sans-Serif" font-size="10.00">_SOURCES &gt;</text>
</a>
</g>
</g>
<!-- Node27&#45;&gt;Node26 -->
<g id="edge37_Node000026_Node000027" class="edge">
<title>Node27&#45;&gt;Node26</title>
<g id="a_edge37_Node000026_Node000027"><a xlink:title=" ">
<path fill="none" stroke="#9a32cd" stroke-dasharray="5,2" d="M1733.29,-724.91C1770.05,-719.2 1813.41,-712.46 1848.32,-707.03"/>
<polygon fill="#9a32cd" stroke="#9a32cd" points="1732.95,-721.42 1723.61,-726.41 1734.03,-728.34 1732.95,-721.42"/>
</a>
</g>
<text text-anchor="middle" x="1785.12" y="-724.5" font-family="Helvetica,sans-Serif" font-size="10.00" fill="grey"> fusionDataState</text>
</g>
<!-- Node28 -->
<g id="Node000028" class="node">
<title>Node28</title>
<g id="a_Node000028"><a xlink:title=" ">
<polygon fill="white" stroke="#666666" points="1418.62,-747 1297.62,-747 1297.62,-727 1418.62,-727 1418.62,-747"/>
<text text-anchor="middle" x="1358.12" y="-733.5" font-family="Helvetica,sans-Serif" font-size="10.00">std::vector&lt; dataState &gt;</text>
</a>
</g>
</g>
<!-- Node28&#45;&gt;Node27 -->
<g id="edge38_Node000027_Node000028" class="edge">
<title>Node28&#45;&gt;Node27</title>
<g id="a_edge38_Node000027_Node000028"><a xlink:title=" ">
<path fill="none" stroke="#9a32cd" stroke-dasharray="5,2" d="M1430.52,-737C1478.17,-737 1540.38,-737 1586.99,-737"/>
<polygon fill="#9a32cd" stroke="#9a32cd" points="1430.56,-733.5 1420.56,-737 1430.56,-740.5 1430.56,-733.5"/>
</a>
</g>
<text text-anchor="middle" x="1516.25" y="-739.5" font-family="Helvetica,sans-Serif" font-size="10.00" fill="grey"> elements</text>
</g>
<!-- Node29 -->
<g id="Node000029" class="node">
<title>Node29</title>
<g id="a_Node000029"><a xlink:title=" ">
<polygon fill="white" stroke="#666666" points="1431,-600 1285.25,-600 1285.25,-556 1431,-556 1431,-600"/>
<text text-anchor="start" x="1293.25" y="-586.5" font-family="Helvetica,sans-Serif" font-size="10.00">std::array&lt; std::vector</text>
<text text-anchor="start" x="1293.25" y="-574.5" font-family="Helvetica,sans-Serif" font-size="10.00">&lt; std::vector&lt; float &gt;</text>
<text text-anchor="middle" x="1358.12" y="-562.5" font-family="Helvetica,sans-Serif" font-size="10.00"> &gt;, NUM_DATA_SOURCES &gt;</text>
</a>
</g>
</g>
<!-- Node29&#45;&gt;Node5 -->
<g id="edge39_Node000005_Node000029" class="edge">
<title>Node29&#45;&gt;Node5</title>
<g id="a_edge39_Node000005_Node000029"><a xlink:title=" ">
<path fill="none" stroke="#9a32cd" stroke-dasharray="5,2" d="M1442.28,-561.99C1481.57,-553.09 1528.65,-540.44 1569.25,-524 1594.68,-513.7 1621.89,-497.06 1638.29,-486.32"/>
<polygon fill="#9a32cd" stroke="#9a32cd" points="1441.64,-558.55 1432.63,-564.14 1443.16,-565.39 1441.64,-558.55"/>
</a>
</g>
<text text-anchor="middle" x="1516.25" y="-558.5" font-family="Helvetica,sans-Serif" font-size="10.00" fill="grey"> _fusionData</text>
</g>
<!-- Node30 -->
<g id="Node000030" class="node">
<title>Node30</title>
<g id="a_Node000030"><a xlink:title=" ">
<polygon fill="white" stroke="#666666" points="1151.75,-594 1036.75,-594 1036.75,-562 1151.75,-562 1151.75,-594"/>
<text text-anchor="start" x="1044.75" y="-580.5" font-family="Helvetica,sans-Serif" font-size="10.00">std::vector&lt; std::vector</text>
<text text-anchor="middle" x="1094.25" y="-568.5" font-family="Helvetica,sans-Serif" font-size="10.00">&lt; float &gt; &gt;</text>
</a>
</g>
</g>
<!-- Node30&#45;&gt;Node29 -->
<g id="edge40_Node000029_Node000030" class="edge">
<title>Node30&#45;&gt;Node29</title>
<g id="a_edge40_Node000029_Node000030"><a xlink:title=" ">
<path fill="none" stroke="#9a32cd" stroke-dasharray="5,2" d="M1163.36,-578C1200.7,-578 1246.98,-578 1284.94,-578"/>
<polygon fill="#9a32cd" stroke="#9a32cd" points="1163.59,-574.5 1153.59,-578 1163.59,-581.5 1163.59,-574.5"/>
</a>
</g>
<text text-anchor="middle" x="1211.38" y="-580.5" font-family="Helvetica,sans-Serif" font-size="10.00" fill="grey"> elements</text>
</g>
<!-- Node31 -->
<g id="Node000031" class="node">
<title>Node31</title>
<g id="a_Node000031"><a xlink:title=" ">
<polygon fill="white" stroke="#666666" points="904.38,-588 807.38,-588 807.38,-568 904.38,-568 904.38,-588"/>
<text text-anchor="middle" x="855.88" y="-574.5" font-family="Helvetica,sans-Serif" font-size="10.00">std::vector&lt; float &gt;</text>
</a>
</g>
</g>
<!-- Node31&#45;&gt;Node30 -->
<g id="edge41_Node000030_Node000031" class="edge">
<title>Node31&#45;&gt;Node30</title>
<g id="a_edge41_Node000030_Node000031"><a xlink:title=" ">
<path fill="none" stroke="#9a32cd" stroke-dasharray="5,2" d="M915.79,-578C952.64,-578 999.86,-578 1036.32,-578"/>
<polygon fill="#9a32cd" stroke="#9a32cd" points="916.22,-574.5 906.22,-578 916.22,-581.5 916.22,-574.5"/>
</a>
</g>
<text text-anchor="middle" x="975.62" y="-580.5" font-family="Helvetica,sans-Serif" font-size="10.00" fill="grey"> elements</text>
</g>
<!-- Node32 -->
<g id="Node000032" class="node">
<title>Node32</title>
<g id="a_Node000032"><a xlink:title=" ">
<polygon fill="white" stroke="#666666" points="1445.25,-538 1271,-538 1271,-506 1445.25,-506 1445.25,-538"/>
<text text-anchor="start" x="1279" y="-524.5" font-family="Helvetica,sans-Serif" font-size="10.00">std::array&lt; std::vector</text>
<text text-anchor="middle" x="1358.12" y="-512.5" font-family="Helvetica,sans-Serif" font-size="10.00">&lt; vec2 &gt;, NUM_DATA_SOURCES &gt;</text>
</a>
</g>
</g>
<!-- Node32&#45;&gt;Node5 -->
<g id="edge42_Node000005_Node000032" class="edge">
<title>Node32&#45;&gt;Node5</title>
<g id="a_edge42_Node000005_Node000032"><a xlink:title=" ">
<path fill="none" stroke="#9a32cd" stroke-dasharray="5,2" d="M1456.97,-508.98C1492.4,-504.02 1532.68,-498.08 1569.25,-492 1582.17,-489.85 1596.17,-487.29 1608.97,-484.85"/>
<polygon fill="#9a32cd" stroke="#9a32cd" points="1456.57,-505.5 1447.15,-510.35 1457.54,-512.43 1456.57,-505.5"/>
</a>
</g>
<text text-anchor="middle" x="1516.25" y="-510.5" font-family="Helvetica,sans-Serif" font-size="10.00" fill="grey"> _fusionDataMinMax</text>
</g>
<!-- Node33 -->
<g id="Node000033" class="node">
<title>Node33</title>
<g id="a_Node000033"><a xlink:title=" ">
<polygon fill="white" stroke="#666666" points="1143.5,-532 1045,-532 1045,-512 1143.5,-512 1143.5,-532"/>
<text text-anchor="middle" x="1094.25" y="-518.5" font-family="Helvetica,sans-Serif" font-size="10.00">std::vector&lt; vec2 &gt;</text>
</a>
</g>
</g>
<!-- Node33&#45;&gt;Node32 -->
<g id="edge43_Node000032_Node000033" class="edge">
<title>Node33&#45;&gt;Node32</title>
<g id="a_edge43_Node000032_Node000033"><a xlink:title=" ">
<path fill="none" stroke="#9a32cd" stroke-dasharray="5,2" d="M1155.11,-522C1189.29,-522 1232.74,-522 1270.58,-522"/>
<polygon fill="#9a32cd" stroke="#9a32cd" points="1155.41,-518.5 1145.41,-522 1155.41,-525.5 1155.41,-518.5"/>
</a>
</g>
<text text-anchor="middle" x="1211.38" y="-524.5" font-family="Helvetica,sans-Serif" font-size="10.00" fill="grey"> elements</text>
</g>
<!-- Node34 -->
<g id="Node000034" class="node">
<title>Node34</title>
<g id="a_Node000034"><a xlink:title=" ">
<polygon fill="white" stroke="#666666" points="2197,-485 2063.25,-485 2063.25,-453 2197,-453 2197,-485"/>
<text text-anchor="start" x="2071.25" y="-471.5" font-family="Helvetica,sans-Serif" font-size="10.00">std::vector&lt; std::unique</text>
<text text-anchor="middle" x="2130.12" y="-459.5" font-family="Helvetica,sans-Serif" font-size="10.00">_ptr&lt; GEU::PointCloud &gt; &gt;</text>
</a>
</g>
</g>
<!-- Node34&#45;&gt;Node5 -->
<g id="edge44_Node000005_Node000034" class="edge">
<title>Node34&#45;&gt;Node5</title>
<g id="a_edge44_Node000005_Node000034"><a xlink:title=" ">
<path fill="none" stroke="#9a32cd" stroke-dasharray="5,2" d="M2051.66,-470.14C1951.57,-471.62 1780.66,-474.15 1700.06,-475.34"/>
<polygon fill="#9a32cd" stroke="#9a32cd" points="2051.44,-473.65 2061.39,-470 2051.34,-466.65 2051.44,-473.65"/>
</a>
</g>
<text text-anchor="middle" x="1913.88" y="-476.5" font-family="Helvetica,sans-Serif" font-size="10.00" fill="grey"> _subClouds</text>
</g>
<!-- Node35&#45;&gt;Node34 -->
<g id="edge45_Node000034_Node000035" class="edge">
<title>Node35&#45;&gt;Node34</title>
<g id="a_edge45_Node000034_Node000035"><a xlink:title=" ">
<path fill="none" stroke="#9a32cd" stroke-dasharray="5,2" d="M1980.46,-437.56C1999.65,-441.55 2020.67,-445.93 2040,-450 2047.43,-451.56 2055.21,-453.21 2062.94,-454.85"/>
<polygon fill="#9a32cd" stroke="#9a32cd" points="1981.38,-434.18 1970.88,-435.57 1979.96,-441.03 1981.38,-434.18"/>
</a>
</g>
<text text-anchor="middle" x="2018.62" y="-452.5" font-family="Helvetica,sans-Serif" font-size="10.00" fill="grey"> elements</text>
</g>
<!-- Node36 -->
<g id="Node000036" class="node">
<title>Node36</title>
<g id="a_Node000036"><a xlink:title=" ">
<polygon fill="white" stroke="#666666" points="1699.25,-600 1609.75,-600 1609.75,-580 1699.25,-580 1699.25,-600"/>
<text text-anchor="middle" x="1654.5" y="-586.5" font-family="Helvetica,sans-Serif" font-size="10.00">std::vector&lt; int &gt;</text>
</a>
</g>
</g>
<!-- Node36&#45;&gt;Node1 -->
<g id="edge47_Node000001_Node000036" class="edge">
<title>Node36&#45;&gt;Node1</title>
<g id="a_edge47_Node000001_Node000036"><a xlink:title=" ">
<path fill="none" stroke="#9a32cd" stroke-dasharray="5,2" d="M1710.67,-592.03C1745.15,-593.49 1790.45,-595.78 1830.5,-599 1839.68,-599.74 1849.42,-600.67 1858.86,-601.65"/>
<polygon fill="#9a32cd" stroke="#9a32cd" points="1711.07,-588.54 1700.93,-591.62 1710.78,-595.53 1711.07,-588.54"/>
</a>
</g>
<text text-anchor="middle" x="1785.12" y="-601.5" font-family="Helvetica,sans-Serif" font-size="10.00" fill="grey"> _pickedIdx</text>
</g>
<!-- Node37&#45;&gt;Node1 -->
<g id="edge48_Node000001_Node000037" class="edge">
<title>Node37&#45;&gt;Node1</title>
<g id="a_edge48_Node000001_Node000037"><a xlink:title=" ">
<path fill="none" stroke="#9a32cd" stroke-dasharray="5,2" d="M1580.77,-691.27C1658.83,-690.85 1786.36,-687.53 1830.5,-671 1860.85,-659.63 1889.24,-633.11 1903.43,-618.36"/>
<polygon fill="#9a32cd" stroke="#9a32cd" points="1581.13,-687.77 1571.14,-691.31 1581.16,-694.77 1581.13,-687.77"/>
</a>
</g>
<text text-anchor="middle" x="1654.5" y="-693.5" font-family="Helvetica,sans-Serif" font-size="10.00" fill="grey"> _pickedAreas</text>
</g>
</g>
</svg>
