<?xml version="1.0" encoding="UTF-8" standalone="no"?>
<!DOCTYPE svg PUBLIC "-//W3C//DTD SVG 1.1//EN"
 "http://www.w3.org/Graphics/SVG/1.1/DTD/svg11.dtd">
<!-- Generated by graphviz version 10.0.1 (20240210.2158)
 -->
<!-- Title: GEU::MaterialList::isMaterialAvailable Pages: 1 -->
<svg width="445pt" height="380pt"
 viewBox="0.00 0.00 445.25 380.00" xmlns="http://www.w3.org/2000/svg" xmlns:xlink="http://www.w3.org/1999/xlink">
<g id="graph0" class="graph" transform="scale(1 1) rotate(0) translate(4 376)">
<title>GEU::MaterialList::isMaterialAvailable</title>
<!-- Node1 -->
<g id="Node000001" class="node">
<title>Node1</title>
<g id="a_Node000001"><a xlink:title=" ">
<polygon fill="#999999" stroke="#666666" points="437.25,-214 338,-214 338,-182 437.25,-182 437.25,-214"/>
<text text-anchor="start" x="346" y="-200.5" font-family="Helvetica,sans-Serif" font-size="10.00">GEU::MaterialList::</text>
<text text-anchor="middle" x="387.62" y="-188.5" font-family="Helvetica,sans-Serif" font-size="10.00">isMaterialAvailable</text>
</a>
</g>
</g>
<!-- Node2 -->
<g id="Node000002" class="node">
<title>Node2</title>
<g id="a_Node000002"><a xlink:href="../../d2/d90/class_g_e_u_1_1_lines_model.html#a9d787ddef9e6927544daef6a5d90a1da" target="_top" xlink:title=" ">
<polygon fill="white" stroke="#666666" points="302,-372 154,-372 154,-352 302,-352 302,-372"/>
<text text-anchor="middle" x="228" y="-358.5" font-family="Helvetica,sans-Serif" font-size="10.00">GEU::LinesModel::LinesModel</text>
</a>
</g>
</g>
<!-- Node1&#45;&gt;Node2 -->
<g id="edge1_Node000001_Node000002" class="edge">
<title>Node1&#45;&gt;Node2</title>
<g id="a_edge1_Node000001_Node000002"><a xlink:title=" ">
<path fill="none" stroke="#63b8ff" d="M378.12,-224.95C366.35,-257.83 341.9,-312.76 302,-343 297.41,-346.48 292.24,-349.33 286.82,-351.65"/>
<polygon fill="#63b8ff" stroke="#63b8ff" points="381.35,-226.34 381.27,-215.75 374.72,-224.08 381.35,-226.34"/>
</a>
</g>
</g>
<!-- Node3 -->
<g id="Node000003" class="node">
<title>Node3</title>
<g id="a_Node000003"><a xlink:href="../../db/d50/class_g_e_u_1_1_details_window.html#addd0dc775ee807e26a5936815ad411b8" target="_top" xlink:title=" ">
<polygon fill="white" stroke="#666666" points="297.5,-334 158.5,-334 158.5,-302 297.5,-302 297.5,-334"/>
<text text-anchor="start" x="166.5" y="-320.5" font-family="Helvetica,sans-Serif" font-size="10.00">GEU::DetailsWindow</text>
<text text-anchor="middle" x="228" y="-308.5" font-family="Helvetica,sans-Serif" font-size="10.00">::makeMaterialItemInspector</text>
</a>
</g>
</g>
<!-- Node1&#45;&gt;Node3 -->
<g id="edge2_Node000001_Node000003" class="edge">
<title>Node1&#45;&gt;Node3</title>
<g id="a_edge2_Node000001_Node000003"><a xlink:title=" ">
<path fill="none" stroke="#63b8ff" d="M369.37,-223.85C353.97,-245.12 329.63,-274.64 302,-293 297.2,-296.19 291.96,-299.01 286.55,-301.5"/>
<polygon fill="#63b8ff" stroke="#63b8ff" points="372.23,-225.88 375.12,-215.69 366.5,-221.85 372.23,-225.88"/>
</a>
</g>
</g>
<!-- Node5 -->
<g id="Node000005" class="node">
<title>Node5</title>
<g id="a_Node000005"><a xlink:href="../../d4/dbf/class_g_e_u_1_1_point_cloud.html#af485c01c5044f92c807f014a4875150b" target="_top" xlink:title=" ">
<polygon fill="white" stroke="#666666" points="299.75,-284 156.25,-284 156.25,-264 299.75,-264 299.75,-284"/>
<text text-anchor="middle" x="228" y="-270.5" font-family="Helvetica,sans-Serif" font-size="10.00">GEU::PointCloud::PointCloud</text>
</a>
</g>
</g>
<!-- Node1&#45;&gt;Node5 -->
<g id="edge4_Node000001_Node000005" class="edge">
<title>Node1&#45;&gt;Node5</title>
<g id="a_edge4_Node000001_Node000005"><a xlink:title=" ">
<path fill="none" stroke="#63b8ff" d="M357.43,-221.27C341.75,-232.81 321.66,-246.13 302,-255 294.6,-258.34 286.5,-261.17 278.48,-263.55"/>
<polygon fill="#63b8ff" stroke="#63b8ff" points="359.49,-224.11 365.37,-215.29 355.27,-218.52 359.49,-224.11"/>
</a>
</g>
</g>
<!-- Node6 -->
<g id="Node000006" class="node">
<title>Node6</title>
<g id="a_Node000006"><a xlink:href="../../d4/dbf/class_g_e_u_1_1_point_cloud.html#af674d9416b70d3cb3808fdbfb801cf17" target="_top" xlink:title=" ">
<polygon fill="white" stroke="#666666" points="299.75,-246 156.25,-246 156.25,-226 299.75,-226 299.75,-246"/>
<text text-anchor="middle" x="228" y="-232.5" font-family="Helvetica,sans-Serif" font-size="10.00">GEU::PointCloud::PointCloud</text>
</a>
</g>
</g>
<!-- Node1&#45;&gt;Node6 -->
<g id="edge5_Node000001_Node000006" class="edge">
<title>Node1&#45;&gt;Node6</title>
<g id="a_edge5_Node000001_Node000006"><a xlink:title=" ">
<path fill="none" stroke="#63b8ff" d="M326.6,-212.47C308.55,-216.82 289.12,-221.51 272.37,-225.54"/>
<polygon fill="#63b8ff" stroke="#63b8ff" points="327.24,-215.92 336.14,-210.17 325.6,-209.11 327.24,-215.92"/>
</a>
</g>
</g>
<!-- Node7 -->
<g id="Node000007" class="node">
<title>Node7</title>
<g id="a_Node000007"><a xlink:href="../../d4/dbf/class_g_e_u_1_1_point_cloud.html#a8c5be9c1eb36c248b246aab1194c5f5b" target="_top" xlink:title=" ">
<polygon fill="white" stroke="#666666" points="299.75,-208 156.25,-208 156.25,-188 299.75,-188 299.75,-208"/>
<text text-anchor="middle" x="228" y="-194.5" font-family="Helvetica,sans-Serif" font-size="10.00">GEU::PointCloud::PointCloud</text>
</a>
</g>
</g>
<!-- Node1&#45;&gt;Node7 -->
<g id="edge6_Node000001_Node000007" class="edge">
<title>Node1&#45;&gt;Node7</title>
<g id="a_edge6_Node000001_Node000007"><a xlink:title=" ">
<path fill="none" stroke="#63b8ff" d="M326.16,-198C317.59,-198 308.71,-198 299.97,-198"/>
<polygon fill="#63b8ff" stroke="#63b8ff" points="326.1,-201.5 336.1,-198 326.1,-194.5 326.1,-201.5"/>
</a>
</g>
</g>
<!-- Node8 -->
<g id="Node000008" class="node">
<title>Node8</title>
<g id="a_Node000008"><a xlink:href="../../d9/d4a/class_g_e_u_1_1_triangle_mesh.html#ac3f1b02a743202ee74356c314a7f0ecd" target="_top" xlink:title=" ">
<polygon fill="white" stroke="#666666" points="281.38,-170 174.62,-170 174.62,-138 281.38,-138 281.38,-170"/>
<text text-anchor="start" x="182.62" y="-156.5" font-family="Helvetica,sans-Serif" font-size="10.00">GEU::TriangleMesh::</text>
<text text-anchor="middle" x="228" y="-144.5" font-family="Helvetica,sans-Serif" font-size="10.00">processMesh</text>
</a>
</g>
</g>
<!-- Node1&#45;&gt;Node8 -->
<g id="edge7_Node000001_Node000008" class="edge">
<title>Node1&#45;&gt;Node8</title>
<g id="a_edge7_Node000001_Node000008"><a xlink:title=" ">
<path fill="none" stroke="#63b8ff" d="M326.57,-181.24C311.83,-177.12 296.17,-172.75 281.81,-168.74"/>
<polygon fill="#63b8ff" stroke="#63b8ff" points="325.58,-184.59 336.16,-183.91 327.47,-177.85 325.58,-184.59"/>
</a>
</g>
</g>
<!-- Node9 -->
<g id="Node000009" class="node">
<title>Node9</title>
<g id="a_Node000009"><a xlink:href="../../de/dac/class_g_e_u_1_1_renderer.html#a1d8f5f2310f69e54f0371c12965d827a" target="_top" xlink:title=" ">
<polygon fill="white" stroke="#666666" points="285.5,-120 170.5,-120 170.5,-100 285.5,-100 285.5,-120"/>
<text text-anchor="middle" x="228" y="-106.5" font-family="Helvetica,sans-Serif" font-size="10.00">GEU::Renderer::render</text>
</a>
</g>
</g>
<!-- Node1&#45;&gt;Node9 -->
<g id="edge8_Node000001_Node000009" class="edge">
<title>Node1&#45;&gt;Node9</title>
<g id="a_edge8_Node000001_Node000009"><a xlink:title=" ">
<path fill="none" stroke="#63b8ff" d="M362.78,-173.8C346.83,-158.9 324.68,-140.5 302,-129 295.34,-125.62 288.03,-122.81 280.69,-120.47"/>
<polygon fill="#63b8ff" stroke="#63b8ff" points="360.23,-176.21 369.87,-180.61 365.08,-171.16 360.23,-176.21"/>
</a>
</g>
</g>
<!-- Node11 -->
<g id="Node000011" class="node">
<title>Node11</title>
<g id="a_Node000011"><a xlink:href="../../d9/d4a/class_g_e_u_1_1_triangle_mesh.html#a45fdd26aedbcd104d2b64ae189521897" target="_top" xlink:title=" ">
<polygon fill="white" stroke="#666666" points="281.38,-82 174.62,-82 174.62,-50 281.38,-50 281.38,-82"/>
<text text-anchor="start" x="182.62" y="-68.5" font-family="Helvetica,sans-Serif" font-size="10.00">GEU::TriangleMesh::</text>
<text text-anchor="middle" x="228" y="-56.5" font-family="Helvetica,sans-Serif" font-size="10.00">TriangleMesh</text>
</a>
</g>
</g>
<!-- Node1&#45;&gt;Node11 -->
<g id="edge10_Node000001_Node000011" class="edge">
<title>Node1&#45;&gt;Node11</title>
<g id="a_edge10_Node000001_Node000011"><a xlink:title=" ">
<path fill="none" stroke="#63b8ff" d="M372.21,-172.24C357.46,-148.08 332.45,-112.55 302,-91 295.88,-86.67 288.94,-83.03 281.84,-80"/>
<polygon fill="#63b8ff" stroke="#63b8ff" points="369,-173.7 377.11,-180.52 375.02,-170.13 369,-173.7"/>
</a>
</g>
</g>
<!-- Node12 -->
<g id="Node000012" class="node">
<title>Node12</title>
<g id="a_Node000012"><a xlink:href="../../d9/d4a/class_g_e_u_1_1_triangle_mesh.html#aa7176efabbe4af354b181e26ad571d82" target="_top" xlink:title=" ">
<polygon fill="white" stroke="#666666" points="281.38,-32 174.62,-32 174.62,0 281.38,0 281.38,-32"/>
<text text-anchor="start" x="182.62" y="-18.5" font-family="Helvetica,sans-Serif" font-size="10.00">GEU::TriangleMesh::</text>
<text text-anchor="middle" x="228" y="-6.5" font-family="Helvetica,sans-Serif" font-size="10.00">TriangleMesh</text>
</a>
</g>
</g>
<!-- Node1&#45;&gt;Node12 -->
<g id="edge11_Node000001_Node000012" class="edge">
<title>Node1&#45;&gt;Node12</title>
<g id="a_edge11_Node000001_Node000012"><a xlink:title=" ">
<path fill="none" stroke="#63b8ff" d="M378.85,-170.9C367.51,-136.05 343.17,-75.9 302,-41 296.07,-35.98 289.09,-31.94 281.82,-28.71"/>
<polygon fill="#63b8ff" stroke="#63b8ff" points="375.44,-171.72 381.75,-180.22 382.12,-169.64 375.44,-171.72"/>
</a>
</g>
</g>
<!-- Node4 -->
<g id="Node000004" class="node">
<title>Node4</title>
<g id="a_Node000004"><a xlink:href="../../db/d50/class_g_e_u_1_1_details_window.html#a6666ec761cc5cd8a57220823b8e7daa6" target="_top" xlink:title="Renders the window and contents.">
<polygon fill="white" stroke="#666666" points="112.75,-334 5.25,-334 5.25,-302 112.75,-302 112.75,-334"/>
<text text-anchor="start" x="13.25" y="-320.5" font-family="Helvetica,sans-Serif" font-size="10.00">GEU::DetailsWindow</text>
<text text-anchor="middle" x="59" y="-308.5" font-family="Helvetica,sans-Serif" font-size="10.00">::renderWindow</text>
</a>
</g>
</g>
<!-- Node3&#45;&gt;Node4 -->
<g id="edge3_Node000003_Node000004" class="edge">
<title>Node3&#45;&gt;Node4</title>
<g id="a_edge3_Node000003_Node000004"><a xlink:title=" ">
<path fill="none" stroke="#63b8ff" d="M146.77,-318C135.36,-318 123.88,-318 113.17,-318"/>
<polygon fill="#63b8ff" stroke="#63b8ff" points="146.6,-321.5 156.6,-318 146.6,-314.5 146.6,-321.5"/>
</a>
</g>
</g>
<!-- Node10 -->
<g id="Node000010" class="node">
<title>Node10</title>
<g id="a_Node000010"><a xlink:href="../../d9/dad/class_g_e_u_1_1_input_manager.html#a41558df6c8f7192c52e9d5e7c095ad13" target="_top" xlink:title=" ">
<polygon fill="white" stroke="#666666" points="118,-126 0,-126 0,-94 118,-94 118,-126"/>
<text text-anchor="start" x="8" y="-112.5" font-family="Helvetica,sans-Serif" font-size="10.00">GEU::InputManager::</text>
<text text-anchor="middle" x="59" y="-100.5" font-family="Helvetica,sans-Serif" font-size="10.00">windowRefreshCallback</text>
</a>
</g>
</g>
<!-- Node9&#45;&gt;Node10 -->
<g id="edge9_Node000009_Node000010" class="edge">
<title>Node9&#45;&gt;Node10</title>
<g id="a_edge9_Node000009_Node000010"><a xlink:title=" ">
<path fill="none" stroke="#63b8ff" d="M159.27,-110C145.75,-110 131.65,-110 118.47,-110"/>
<polygon fill="#63b8ff" stroke="#63b8ff" points="158.95,-113.5 168.95,-110 158.95,-106.5 158.95,-113.5"/>
</a>
</g>
</g>
</g>
</svg>
