<?xml version="1.0" encoding="UTF-8" standalone="no"?>
<!DOCTYPE svg PUBLIC "-//W3C//DTD SVG 1.1//EN"
 "http://www.w3.org/Graphics/SVG/1.1/DTD/svg11.dtd">
<!-- Generated by graphviz version 10.0.1 (20240210.2158)
 -->
<!-- Title: GEU::Renderer::getAppState Pages: 1 -->
<svg width="581pt" height="78pt"
 viewBox="0.00 0.00 581.25 78.00" xmlns="http://www.w3.org/2000/svg" xmlns:xlink="http://www.w3.org/1999/xlink">
<g id="graph0" class="graph" transform="scale(1 1) rotate(0) translate(4 74)">
<title>GEU::Renderer::getAppState</title>
<!-- Node1 -->
<g id="Node000001" class="node">
<title>Node1</title>
<g id="a_Node000001"><a xlink:title=" ">
<polygon fill="#999999" stroke="#666666" points="573.25,-48 431.25,-48 431.25,-28 573.25,-28 573.25,-48"/>
<text text-anchor="middle" x="502.25" y="-34.5" font-family="Helvetica,sans-Serif" font-size="10.00">GEU::Renderer::getAppState</text>
</a>
</g>
</g>
<!-- Node2 -->
<g id="Node000002" class="node">
<title>Node2</title>
<g id="a_Node000002"><a xlink:href="../../d0/d01/a01552.html#ace78c32abf470219b575b901d02caa68" target="_top" xlink:title=" ">
<polygon fill="white" stroke="#666666" points="388.5,-70 263,-70 263,-50 388.5,-50 388.5,-70"/>
<text text-anchor="middle" x="325.75" y="-56.5" font-family="Helvetica,sans-Serif" font-size="10.00">AutoUpdater::autoUpdate</text>
</a>
</g>
</g>
<!-- Node1&#45;&gt;Node2 -->
<g id="edge1_Node000001_Node000002" class="edge">
<title>Node1&#45;&gt;Node2</title>
<g id="a_edge1_Node000001_Node000002"><a xlink:title=" ">
<path fill="none" stroke="#63b8ff" d="M419.6,-48.29C409.23,-49.6 398.76,-50.92 388.78,-52.18"/>
<polygon fill="#63b8ff" stroke="#63b8ff" points="419.79,-51.8 429.28,-47.07 418.92,-44.85 419.79,-51.8"/>
</a>
</g>
</g>
<!-- Node5 -->
<g id="Node000005" class="node">
<title>Node5</title>
<g id="a_Node000005"><a xlink:href="../../d1/d06/a01496.html#addd0dc775ee807e26a5936815ad411b8" target="_top" xlink:title=" ">
<polygon fill="white" stroke="#666666" points="395.25,-32 256.25,-32 256.25,0 395.25,0 395.25,-32"/>
<text text-anchor="start" x="264.25" y="-18.5" font-family="Helvetica,sans-Serif" font-size="10.00">GEU::DetailsWindow</text>
<text text-anchor="middle" x="325.75" y="-6.5" font-family="Helvetica,sans-Serif" font-size="10.00">::makeMaterialItemInspector</text>
</a>
</g>
</g>
<!-- Node1&#45;&gt;Node5 -->
<g id="edge4_Node000001_Node000005" class="edge">
<title>Node1&#45;&gt;Node5</title>
<g id="a_edge4_Node000001_Node000005"><a xlink:title=" ">
<path fill="none" stroke="#63b8ff" d="M419.5,-27.69C411.47,-26.68 403.38,-25.66 395.5,-24.67"/>
<polygon fill="#63b8ff" stroke="#63b8ff" points="418.92,-31.15 429.28,-28.93 419.79,-24.2 418.92,-31.15"/>
</a>
</g>
</g>
<!-- Node3 -->
<g id="Node000003" class="node">
<title>Node3</title>
<g id="a_Node000003"><a xlink:href="../../d0/d01/a01552.html#addbef684fb89817493a5bbc81c8ef36a" target="_top" xlink:title=" ">
<polygon fill="white" stroke="#666666" points="220.25,-70 73,-70 73,-50 220.25,-50 220.25,-70"/>
<text text-anchor="middle" x="146.62" y="-56.5" font-family="Helvetica,sans-Serif" font-size="10.00">AutoUpdater::checkForUpdate</text>
</a>
</g>
</g>
<!-- Node2&#45;&gt;Node3 -->
<g id="edge2_Node000002_Node000003" class="edge">
<title>Node2&#45;&gt;Node3</title>
<g id="a_edge2_Node000002_Node000003"><a xlink:title=" ">
<path fill="none" stroke="#63b8ff" d="M251.41,-60C241.19,-60 230.69,-60 220.48,-60"/>
<polygon fill="#63b8ff" stroke="#63b8ff" points="251.29,-63.5 261.29,-60 251.29,-56.5 251.29,-63.5"/>
</a>
</g>
</g>
<!-- Node4 -->
<g id="Node000004" class="node">
<title>Node4</title>
<g id="a_Node000004"><a xlink:href="../../d4/d01/a00017.html#a3c04138a5bfe5d72780bb7e82a18e627" target="_top" xlink:title=" ">
<polygon fill="white" stroke="#666666" points="37,-70 0,-70 0,-50 37,-50 37,-70"/>
<text text-anchor="middle" x="18.5" y="-56.5" font-family="Helvetica,sans-Serif" font-size="10.00">main</text>
</a>
</g>
</g>
<!-- Node3&#45;&gt;Node4 -->
<g id="edge3_Node000003_Node000004" class="edge">
<title>Node3&#45;&gt;Node4</title>
<g id="a_edge3_Node000003_Node000004"><a xlink:title=" ">
<path fill="none" stroke="#63b8ff" d="M61.19,-60C52.39,-60 44.21,-60 37.48,-60"/>
<polygon fill="#63b8ff" stroke="#63b8ff" points="61.11,-63.5 71.11,-60 61.11,-56.5 61.11,-63.5"/>
</a>
</g>
</g>
<!-- Node6 -->
<g id="Node000006" class="node">
<title>Node6</title>
<g id="a_Node000006"><a xlink:href="../../d1/d06/a01496.html#a6666ec761cc5cd8a57220823b8e7daa6" target="_top" xlink:title="Renders the window and contents.">
<polygon fill="white" stroke="#666666" points="200.38,-32 92.88,-32 92.88,0 200.38,0 200.38,-32"/>
<text text-anchor="start" x="100.88" y="-18.5" font-family="Helvetica,sans-Serif" font-size="10.00">GEU::DetailsWindow</text>
<text text-anchor="middle" x="146.62" y="-6.5" font-family="Helvetica,sans-Serif" font-size="10.00">::renderWindow</text>
</a>
</g>
</g>
<!-- Node5&#45;&gt;Node6 -->
<g id="edge5_Node000005_Node000006" class="edge">
<title>Node5&#45;&gt;Node6</title>
<g id="a_edge5_Node000005_Node000006"><a xlink:title=" ">
<path fill="none" stroke="#63b8ff" d="M244.52,-16C229.7,-16 214.56,-16 200.79,-16"/>
<polygon fill="#63b8ff" stroke="#63b8ff" points="244.25,-19.5 254.25,-16 244.25,-12.5 244.25,-19.5"/>
</a>
</g>
</g>
</g>
</svg>
