<?xml version="1.0" encoding="UTF-8" standalone="no"?>
<!DOCTYPE svg PUBLIC "-//W3C//DTD SVG 1.1//EN"
 "http://www.w3.org/Graphics/SVG/1.1/DTD/svg11.dtd">
<!-- Generated by graphviz version 10.0.1 (20240210.2158)
 -->
<!-- Title: GEU::Renderer::addModel Pages: 1 -->
<svg width="549pt" height="204pt"
 viewBox="0.00 0.00 548.75 204.00" xmlns="http://www.w3.org/2000/svg" xmlns:xlink="http://www.w3.org/1999/xlink">
<g id="graph0" class="graph" transform="scale(1 1) rotate(0) translate(4 200)">
<title>GEU::Renderer::addModel</title>
<!-- Node1 -->
<g id="Node000001" class="node">
<title>Node1</title>
<g id="a_Node000001"><a xlink:title="Inserts 3D model to current scene.">
<polygon fill="#999999" stroke="#666666" points="540.75,-108 410.75,-108 410.75,-88 540.75,-88 540.75,-108"/>
<text text-anchor="middle" x="475.75" y="-94.5" font-family="Helvetica,sans-Serif" font-size="10.00">GEU::Renderer::addModel</text>
</a>
</g>
</g>
<!-- Node2 -->
<g id="Node000002" class="node">
<title>Node2</title>
<g id="a_Node000002"><a xlink:href="../../de/d05/a02072.html#a7946754e5501b95a97096781e85f4de9" target="_top" xlink:title=" ">
<polygon fill="white" stroke="#666666" points="341.38,-196 230.12,-196 230.12,-164 341.38,-164 341.38,-196"/>
<text text-anchor="start" x="238.12" y="-182.5" font-family="Helvetica,sans-Serif" font-size="10.00">GEU::ImageCloudProj</text>
<text text-anchor="middle" x="285.75" y="-170.5" font-family="Helvetica,sans-Serif" font-size="10.00">::generateTerrain</text>
</a>
</g>
</g>
<!-- Node1&#45;&gt;Node2 -->
<g id="edge1_Node000001_Node000002" class="edge">
<title>Node1&#45;&gt;Node2</title>
<g id="a_edge1_Node000001_Node000002"><a xlink:title=" ">
<path fill="none" stroke="#63b8ff" d="M449.97,-114.37C430.24,-126.84 401.58,-143.74 374.75,-155 364.21,-159.43 352.63,-163.34 341.44,-166.68"/>
<polygon fill="#63b8ff" stroke="#63b8ff" points="451.62,-117.47 458.14,-109.12 447.84,-111.58 451.62,-117.47"/>
</a>
</g>
</g>
<!-- Node4 -->
<g id="Node000004" class="node">
<title>Node4</title>
<g id="a_Node000004"><a xlink:href="../../dd/d07/a01868.html#aebeb11b59981efb0536a7e57fe284120" target="_top" xlink:title=" ">
<polygon fill="white" stroke="#666666" points="353.75,-146 217.75,-146 217.75,-126 353.75,-126 353.75,-146"/>
<text text-anchor="middle" x="285.75" y="-132.5" font-family="Helvetica,sans-Serif" font-size="10.00">GEU::FileManager::loadLas</text>
</a>
</g>
</g>
<!-- Node1&#45;&gt;Node4 -->
<g id="edge3_Node000001_Node000004" class="edge">
<title>Node1&#45;&gt;Node4</title>
<g id="a_edge3_Node000001_Node000004"><a xlink:title=" ">
<path fill="none" stroke="#63b8ff" d="M411.81,-110.72C387.97,-115.54 361.14,-120.96 338.45,-125.55"/>
<polygon fill="#63b8ff" stroke="#63b8ff" points="412.29,-114.2 421.4,-108.78 410.9,-107.33 412.29,-114.2"/>
</a>
</g>
</g>
<!-- Node5 -->
<g id="Node000005" class="node">
<title>Node5</title>
<g id="a_Node000005"><a xlink:href="../../dd/d07/a01868.html#ad9c308882e7e55a84874880c56515c92" target="_top" xlink:title=" ">
<polygon fill="white" stroke="#666666" points="353,-108 218.5,-108 218.5,-88 353,-88 353,-108"/>
<text text-anchor="middle" x="285.75" y="-94.5" font-family="Helvetica,sans-Serif" font-size="10.00">GEU::FileManager::loadPly</text>
</a>
</g>
</g>
<!-- Node1&#45;&gt;Node5 -->
<g id="edge4_Node000001_Node000005" class="edge">
<title>Node1&#45;&gt;Node5</title>
<g id="a_edge4_Node000001_Node000005"><a xlink:title=" ">
<path fill="none" stroke="#63b8ff" d="M398.93,-98C383.84,-98 368.1,-98 353.34,-98"/>
<polygon fill="#63b8ff" stroke="#63b8ff" points="398.8,-101.5 408.8,-98 398.8,-94.5 398.8,-101.5"/>
</a>
</g>
</g>
<!-- Node6 -->
<g id="Node000006" class="node">
<title>Node6</title>
<g id="a_Node000006"><a xlink:href="../../dd/d07/a01868.html#ad604f08d090bb872c17b17b93c04b1c0" target="_top" xlink:title="Carga la malla de triangulos de la ruta especificada.">
<polygon fill="white" stroke="#666666" points="374.75,-70 196.75,-70 196.75,-50 374.75,-50 374.75,-70"/>
<text text-anchor="middle" x="285.75" y="-56.5" font-family="Helvetica,sans-Serif" font-size="10.00">GEU::FileManager::loadTriangleMesh</text>
</a>
</g>
</g>
<!-- Node1&#45;&gt;Node6 -->
<g id="edge5_Node000001_Node000006" class="edge">
<title>Node1&#45;&gt;Node6</title>
<g id="a_edge5_Node000001_Node000006"><a xlink:title=" ">
<path fill="none" stroke="#63b8ff" d="M411.81,-85.28C387.97,-80.46 361.14,-75.04 338.45,-70.45"/>
<polygon fill="#63b8ff" stroke="#63b8ff" points="410.9,-88.67 421.4,-87.22 412.29,-81.8 410.9,-88.67"/>
</a>
</g>
</g>
<!-- Node9 -->
<g id="Node000009" class="node">
<title>Node9</title>
<g id="a_Node000009"><a xlink:href="../../da/d06/a02084.html#a0b38aef5c1b02e9cdf3cff49bd708297" target="_top" xlink:title=" ">
<polygon fill="white" stroke="#666666" points="352.25,-32 219.25,-32 219.25,0 352.25,0 352.25,-32"/>
<text text-anchor="start" x="227.25" y="-18.5" font-family="Helvetica,sans-Serif" font-size="10.00">GEU::ProceduralGenerator</text>
<text text-anchor="middle" x="285.75" y="-6.5" font-family="Helvetica,sans-Serif" font-size="10.00">::RegionRGBSegmentation</text>
</a>
</g>
</g>
<!-- Node1&#45;&gt;Node9 -->
<g id="edge8_Node000001_Node000009" class="edge">
<title>Node1&#45;&gt;Node9</title>
<g id="a_edge8_Node000001_Node000009"><a xlink:title=" ">
<path fill="none" stroke="#63b8ff" d="M449.97,-81.63C430.24,-69.16 401.58,-52.26 374.75,-41 367.28,-37.86 359.3,-34.99 351.3,-32.39"/>
<polygon fill="#63b8ff" stroke="#63b8ff" points="447.84,-84.42 458.14,-86.88 451.62,-78.53 447.84,-84.42"/>
</a>
</g>
</g>
<!-- Node3 -->
<g id="Node000003" class="node">
<title>Node3</title>
<g id="a_Node000003"><a xlink:href="../../d4/d00/a02092.html#a2918ca118794a47873dbc1df297d68d7" target="_top" xlink:title="Custom module GUI window contents.">
<polygon fill="white" stroke="#666666" points="160.75,-196 0,-196 0,-164 160.75,-164 160.75,-196"/>
<text text-anchor="start" x="8" y="-182.5" font-family="Helvetica,sans-Serif" font-size="10.00">GEU::ReconstruccionGUIAdapter</text>
<text text-anchor="middle" x="80.38" y="-170.5" font-family="Helvetica,sans-Serif" font-size="10.00">::renderGuiObject</text>
</a>
</g>
</g>
<!-- Node2&#45;&gt;Node3 -->
<g id="edge2_Node000002_Node000003" class="edge">
<title>Node2&#45;&gt;Node3</title>
<g id="a_edge2_Node000002_Node000003"><a xlink:title=" ">
<path fill="none" stroke="#63b8ff" d="M218.26,-180C199.93,-180 179.87,-180 160.89,-180"/>
<polygon fill="#63b8ff" stroke="#63b8ff" points="218.2,-183.5 228.2,-180 218.2,-176.5 218.2,-183.5"/>
</a>
</g>
</g>
<!-- Node7 -->
<g id="Node000007" class="node">
<title>Node7</title>
<g id="a_Node000007"><a xlink:href="../../d2/d00/a01472.html#af7ebc89aa431e3a9e86bb1424b819d47" target="_top" xlink:title="Draws ImGUI elements.">
<polygon fill="white" stroke="#666666" points="126.62,-92 34.12,-92 34.12,-72 126.62,-72 126.62,-92"/>
<text text-anchor="middle" x="80.38" y="-78.5" font-family="Helvetica,sans-Serif" font-size="10.00">GEU::GUI::render</text>
</a>
</g>
</g>
<!-- Node6&#45;&gt;Node7 -->
<g id="edge6_Node000006_Node000007" class="edge">
<title>Node6&#45;&gt;Node7</title>
<g id="a_edge6_Node000006_Node000007"><a xlink:title=" ">
<path fill="none" stroke="#63b8ff" d="M185.18,-70.77C164.85,-72.97 144.42,-75.18 127.12,-77.05"/>
<polygon fill="#63b8ff" stroke="#63b8ff" points="185.36,-74.27 194.93,-69.72 184.61,-67.31 185.36,-74.27"/>
</a>
</g>
</g>
<!-- Node8 -->
<g id="Node000008" class="node">
<title>Node8</title>
<g id="a_Node000008"><a xlink:href="../../de/d05/a01500.html#a63b0402d61dd34944da9280a89fa9f74" target="_top" xlink:title="Renders the window and contents.">
<polygon fill="white" stroke="#666666" points="139,-54 21.75,-54 21.75,-22 139,-22 139,-54"/>
<text text-anchor="start" x="29.75" y="-40.5" font-family="Helvetica,sans-Serif" font-size="10.00">GEU::InspectorWindow</text>
<text text-anchor="middle" x="80.38" y="-28.5" font-family="Helvetica,sans-Serif" font-size="10.00">::renderWindow</text>
</a>
</g>
</g>
<!-- Node6&#45;&gt;Node8 -->
<g id="edge7_Node000006_Node000008" class="edge">
<title>Node6&#45;&gt;Node8</title>
<g id="a_edge7_Node000006_Node000008"><a xlink:title=" ">
<path fill="none" stroke="#63b8ff" d="M185.07,-49.22C169.43,-47.53 153.72,-45.83 139.43,-44.28"/>
<polygon fill="#63b8ff" stroke="#63b8ff" points="184.61,-52.69 194.93,-50.28 185.36,-45.73 184.61,-52.69"/>
</a>
</g>
</g>
</g>
</svg>
