<?xml version="1.0" encoding="UTF-8" standalone="no"?>
<!DOCTYPE svg PUBLIC "-//W3C//DTD SVG 1.1//EN"
 "http://www.w3.org/Graphics/SVG/1.1/DTD/svg11.dtd">
<!-- Generated by graphviz version 10.0.1 (20240210.2158)
 -->
<!-- Title: ImageProcessor::readMultispectralImg Pages: 1 -->
<svg width="668pt" height="172pt"
 viewBox="0.00 0.00 667.50 172.00" xmlns="http://www.w3.org/2000/svg" xmlns:xlink="http://www.w3.org/1999/xlink">
<g id="graph0" class="graph" transform="scale(1 1) rotate(0) translate(4 168)">
<title>ImageProcessor::readMultispectralImg</title>
<!-- Node1 -->
<g id="Node000001" class="node">
<title>Node1</title>
<g id="a_Node000001"><a xlink:title=" ">
<polygon fill="#999999" stroke="#666666" points="182.5,-108 0,-108 0,-88 182.5,-88 182.5,-108"/>
<text text-anchor="middle" x="91.25" y="-94.5" font-family="Helvetica,sans-Serif" font-size="10.00">ImageProcessor::readMultispectralImg</text>
</a>
</g>
</g>
<!-- Node2 -->
<g id="Node000002" class="node">
<title>Node2</title>
<g id="a_Node000002"><a xlink:href="../../de/d05/class_image_processor.html#a1b1ed518b1cf90e0ec7b9741b54cc746" target="_top" xlink:title=" ">
<polygon fill="white" stroke="#666666" points="368,-164 227.5,-164 227.5,-132 368,-132 368,-164"/>
<text text-anchor="start" x="235.5" y="-150.5" font-family="Helvetica,sans-Serif" font-size="10.00">ImageProcessor::readDJIImg</text>
<text text-anchor="middle" x="297.75" y="-138.5" font-family="Helvetica,sans-Serif" font-size="10.00">Metadata</text>
</a>
</g>
</g>
<!-- Node1&#45;&gt;Node2 -->
<g id="edge1_Node000001_Node000002" class="edge">
<title>Node1&#45;&gt;Node2</title>
<g id="a_edge1_Node000001_Node000002"><a xlink:title=" ">
<path fill="none" stroke="#63b8ff" d="M135.12,-108.48C159.21,-114.37 190.03,-121.91 218.29,-128.82"/>
<polygon fill="#63b8ff" stroke="#63b8ff" points="217.37,-132.19 227.91,-131.17 219.03,-125.39 217.37,-132.19"/>
</a>
</g>
</g>
<!-- Node3 -->
<g id="Node000003" class="node">
<title>Node3</title>
<g id="a_Node000003"><a xlink:href="../../de/d05/class_image_processor.html#adaf0cb76dd3d783e0f33436be29b30ac" target="_top" xlink:title=" ">
<polygon fill="white" stroke="#666666" points="377,-114 218.5,-114 218.5,-82 377,-82 377,-114"/>
<text text-anchor="start" x="226.5" y="-100.5" font-family="Helvetica,sans-Serif" font-size="10.00">ImageProcessor::readMicasense</text>
<text text-anchor="middle" x="297.75" y="-88.5" font-family="Helvetica,sans-Serif" font-size="10.00">Metadata</text>
</a>
</g>
</g>
<!-- Node1&#45;&gt;Node3 -->
<g id="edge2_Node000001_Node000003" class="edge">
<title>Node1&#45;&gt;Node3</title>
<g id="a_edge2_Node000001_Node000003"><a xlink:title=" ">
<path fill="none" stroke="#63b8ff" d="M182.84,-98C190.74,-98 198.73,-98 206.62,-98"/>
<polygon fill="#63b8ff" stroke="#63b8ff" points="206.57,-101.5 216.57,-98 206.57,-94.5 206.57,-101.5"/>
</a>
</g>
</g>
<!-- Node4 -->
<g id="Node000004" class="node">
<title>Node4</title>
<g id="a_Node000004"><a xlink:href="../../de/d05/class_image_processor.html#ae9f7ba23d0281586effa1e31b52b884d" target="_top" xlink:title=" ">
<polygon fill="white" stroke="#666666" points="366.5,-64 229,-64 229,-32 366.5,-32 366.5,-64"/>
<text text-anchor="start" x="237" y="-50.5" font-family="Helvetica,sans-Serif" font-size="10.00">ImageProcessor::readParrot</text>
<text text-anchor="middle" x="297.75" y="-38.5" font-family="Helvetica,sans-Serif" font-size="10.00">Metadata</text>
</a>
</g>
</g>
<!-- Node1&#45;&gt;Node4 -->
<g id="edge3_Node000001_Node000004" class="edge">
<title>Node1&#45;&gt;Node4</title>
<g id="a_edge3_Node000001_Node000004"><a xlink:title=" ">
<path fill="none" stroke="#63b8ff" d="M135.12,-87.52C159.21,-81.63 190.03,-74.09 218.29,-67.18"/>
<polygon fill="#63b8ff" stroke="#63b8ff" points="219.03,-70.61 227.91,-64.83 217.37,-63.81 219.03,-70.61"/>
</a>
</g>
</g>
<!-- Node5 -->
<g id="Node000005" class="node">
<title>Node5</title>
<g id="a_Node000005"><a xlink:href="../../d4/d04/class_base64.html#ae6a7457922b536ccae57467db1f972af" target="_top" xlink:title=" ">
<polygon fill="white" stroke="#666666" points="501,-58 413,-58 413,-38 501,-38 501,-58"/>
<text text-anchor="middle" x="457" y="-44.5" font-family="Helvetica,sans-Serif" font-size="10.00">Base64::Decode</text>
</a>
</g>
</g>
<!-- Node4&#45;&gt;Node5 -->
<g id="edge4_Node000004_Node000005" class="edge">
<title>Node4&#45;&gt;Node5</title>
<g id="a_edge4_Node000004_Node000005"><a xlink:title=" ">
<path fill="none" stroke="#63b8ff" d="M366.81,-48C378.39,-48 390.28,-48 401.46,-48"/>
<polygon fill="#63b8ff" stroke="#63b8ff" points="401.29,-51.5 411.29,-48 401.29,-44.5 401.29,-51.5"/>
</a>
</g>
</g>
<!-- Node6 -->
<g id="Node000006" class="node">
<title>Node6</title>
<g id="a_Node000006"><a xlink:href="../../d4/d04/class_base64.html#abe8ace7d1576ce2fa5da45a6260379fd" target="_top" xlink:title=" ">
<polygon fill="white" stroke="#666666" points="645.62,-96 550.88,-96 550.88,-76 645.62,-76 645.62,-96"/>
<text text-anchor="middle" x="598.25" y="-82.5" font-family="Helvetica,sans-Serif" font-size="10.00">Base64::a4_to_a3</text>
</a>
</g>
</g>
<!-- Node5&#45;&gt;Node6 -->
<g id="edge5_Node000005_Node000006" class="edge">
<title>Node5&#45;&gt;Node6</title>
<g id="a_edge5_Node000005_Node000006"><a xlink:title=" ">
<path fill="none" stroke="#63b8ff" d="M496.42,-58.48C512.4,-62.85 531.15,-67.96 548.11,-72.59"/>
<polygon fill="#63b8ff" stroke="#63b8ff" points="546.93,-75.9 557.5,-75.15 548.77,-69.14 546.93,-75.9"/>
</a>
</g>
</g>
<!-- Node7 -->
<g id="Node000007" class="node">
<title>Node7</title>
<g id="a_Node000007"><a xlink:href="../../d4/d04/class_base64.html#a8de014069fccbd2492c3ce2ee1c02691" target="_top" xlink:title=" ">
<polygon fill="white" stroke="#666666" points="650.5,-58 546,-58 546,-38 650.5,-38 650.5,-58"/>
<text text-anchor="middle" x="598.25" y="-44.5" font-family="Helvetica,sans-Serif" font-size="10.00">Base64::b64_lookup</text>
</a>
</g>
</g>
<!-- Node5&#45;&gt;Node7 -->
<g id="edge6_Node000005_Node000007" class="edge">
<title>Node5&#45;&gt;Node7</title>
<g id="a_edge6_Node000005_Node000007"><a xlink:title=" ">
<path fill="none" stroke="#63b8ff" d="M501.3,-48C511.73,-48 523.08,-48 534.21,-48"/>
<polygon fill="#63b8ff" stroke="#63b8ff" points="534.16,-51.5 544.16,-48 534.16,-44.5 534.16,-51.5"/>
</a>
</g>
</g>
<!-- Node8 -->
<g id="Node000008" class="node">
<title>Node8</title>
<g id="a_Node000008"><a xlink:href="../../d4/d04/class_base64.html#a3fe4c327ec3e305b5744d6810dae6b4b" target="_top" xlink:title=" ">
<polygon fill="white" stroke="#666666" points="659.5,-20 537,-20 537,0 659.5,0 659.5,-20"/>
<text text-anchor="middle" x="598.25" y="-6.5" font-family="Helvetica,sans-Serif" font-size="10.00">Base64::DecodedLength</text>
</a>
</g>
</g>
<!-- Node5&#45;&gt;Node8 -->
<g id="edge7_Node000005_Node000008" class="edge">
<title>Node5&#45;&gt;Node8</title>
<g id="a_edge7_Node000005_Node000008"><a xlink:title=" ">
<path fill="none" stroke="#63b8ff" d="M496.42,-37.52C512.4,-33.15 531.15,-28.04 548.11,-23.41"/>
<polygon fill="#63b8ff" stroke="#63b8ff" points="548.77,-26.86 557.5,-20.85 546.93,-20.1 548.77,-26.86"/>
</a>
</g>
</g>
</g>
</svg>
