<?xml version="1.0" encoding="UTF-8" standalone="no"?>
<!DOCTYPE svg PUBLIC "-//W3C//DTD SVG 1.1//EN"
 "http://www.w3.org/Graphics/SVG/1.1/DTD/svg11.dtd">
<!-- Generated by graphviz version 10.0.1 (20240210.2158)
 -->
<!-- Title: GEU::DatabaseNewRawPopup::autofill Pages: 1 -->
<svg width="426pt" height="228pt"
 viewBox="0.00 0.00 425.75 228.00" xmlns="http://www.w3.org/2000/svg" xmlns:xlink="http://www.w3.org/1999/xlink">
<g id="graph0" class="graph" transform="scale(1 1) rotate(0) translate(4 224)">
<title>GEU::DatabaseNewRawPopup::autofill</title>
<!-- Node1 -->
<g id="Node000001" class="node">
<title>Node1</title>
<g id="a_Node000001"><a xlink:title=" ">
<polygon fill="#999999" stroke="#666666" points="149.5,-120 0,-120 0,-88 149.5,-88 149.5,-120"/>
<text text-anchor="start" x="8" y="-106.5" font-family="Helvetica,sans-Serif" font-size="10.00">GEU::DatabaseNewRawPopup</text>
<text text-anchor="middle" x="74.75" y="-94.5" font-family="Helvetica,sans-Serif" font-size="10.00">::autofill</text>
</a>
</g>
</g>
<!-- Node2 -->
<g id="Node000002" class="node">
<title>Node2</title>
<g id="a_Node000002"><a xlink:href="../../d1/d01/a02032.html#a47c7e7c2110f4cc59c9ff1f5594c366e" target="_top" xlink:title=" ">
<polygon fill="white" stroke="#666666" points="320.75,-220 187,-220 187,-188 320.75,-188 320.75,-220"/>
<text text-anchor="start" x="195" y="-206.5" font-family="Helvetica,sans-Serif" font-size="10.00">GEU::Singleton&lt; Database</text>
<text text-anchor="middle" x="253.88" y="-194.5" font-family="Helvetica,sans-Serif" font-size="10.00">Connector &gt;::getInstance</text>
</a>
</g>
</g>
<!-- Node1&#45;&gt;Node2 -->
<g id="edge1_Node000001_Node000002" class="edge">
<title>Node1&#45;&gt;Node2</title>
<g id="a_edge1_Node000001_Node000002"><a xlink:title=" ">
<path fill="none" stroke="#63b8ff" d="M96.24,-120.27C117.6,-136.67 152.5,-161.93 185.5,-179 188.16,-180.38 190.92,-181.72 193.72,-183.01"/>
<polygon fill="#63b8ff" stroke="#63b8ff" points="192.09,-186.12 202.66,-186.9 194.89,-179.7 192.09,-186.12"/>
</a>
</g>
</g>
<!-- Node3 -->
<g id="Node000003" class="node">
<title>Node3</title>
<g id="a_Node000003"><a xlink:href="../../d2/d00/a01860.html#ae28bab7afb35a4d51a3040efd2144cc7" target="_top" xlink:title=" ">
<polygon fill="white" stroke="#666666" points="307.62,-170 200.12,-170 200.12,-138 307.62,-138 307.62,-170"/>
<text text-anchor="start" x="208.12" y="-156.5" font-family="Helvetica,sans-Serif" font-size="10.00">DatabaseConnector::</text>
<text text-anchor="middle" x="253.88" y="-144.5" font-family="Helvetica,sans-Serif" font-size="10.00">getOracleEnviroment</text>
</a>
</g>
</g>
<!-- Node1&#45;&gt;Node3 -->
<g id="edge2_Node000001_Node000003" class="edge">
<title>Node1&#45;&gt;Node3</title>
<g id="a_edge2_Node000001_Node000003"><a xlink:title=" ">
<path fill="none" stroke="#63b8ff" d="M133.75,-120.37C151.38,-125.35 170.85,-130.84 188.85,-135.93"/>
<polygon fill="#63b8ff" stroke="#63b8ff" points="187.81,-139.27 198.38,-138.62 189.71,-132.53 187.81,-139.27"/>
</a>
</g>
</g>
<!-- Node4 -->
<g id="Node000004" class="node">
<title>Node4</title>
<g id="a_Node000004"><a xlink:href="../../d2/d00/a01860.html#aa501d9be228c74946830759e8f350bb2" target="_top" xlink:title="Obtiene un listado de todos los vuelos de la base de datos.">
<polygon fill="white" stroke="#666666" points="307.62,-120 200.12,-120 200.12,-88 307.62,-88 307.62,-120"/>
<text text-anchor="start" x="208.12" y="-106.5" font-family="Helvetica,sans-Serif" font-size="10.00">DatabaseConnector::</text>
<text text-anchor="middle" x="253.88" y="-94.5" font-family="Helvetica,sans-Serif" font-size="10.00">getVuelos</text>
</a>
</g>
</g>
<!-- Node1&#45;&gt;Node4 -->
<g id="edge3_Node000001_Node000004" class="edge">
<title>Node1&#45;&gt;Node4</title>
<g id="a_edge3_Node000001_Node000004"><a xlink:title=" ">
<path fill="none" stroke="#63b8ff" d="M149.84,-104C162.69,-104 175.95,-104 188.51,-104"/>
<polygon fill="#63b8ff" stroke="#63b8ff" points="188.3,-107.5 198.3,-104 188.3,-100.5 188.3,-107.5"/>
</a>
</g>
</g>
<!-- Node5 -->
<g id="Node000005" class="node">
<title>Node5</title>
<g id="a_Node000005"><a xlink:href="../../d0/d02/a00104.html#a12c111259c85b89e020738ca18f4aef2" target="_top" xlink:title=" ">
<polygon fill="white" stroke="#666666" points="288.88,-70 218.88,-70 218.88,-50 288.88,-50 288.88,-70"/>
<text text-anchor="middle" x="253.88" y="-56.5" font-family="Helvetica,sans-Serif" font-size="10.00">gpsDistance</text>
</a>
</g>
</g>
<!-- Node1&#45;&gt;Node5 -->
<g id="edge4_Node000001_Node000005" class="edge">
<title>Node1&#45;&gt;Node5</title>
<g id="a_edge4_Node000001_Node000005"><a xlink:title=" ">
<path fill="none" stroke="#63b8ff" d="M141.96,-87.55C163.91,-82.1 187.82,-76.16 207.8,-71.2"/>
<polygon fill="#63b8ff" stroke="#63b8ff" points="208.44,-74.65 217.3,-68.84 206.75,-67.85 208.44,-74.65"/>
</a>
</g>
</g>
<!-- Node7 -->
<g id="Node000007" class="node">
<title>Node7</title>
<g id="a_Node000007"><a xlink:href="../../de/d03/a01876.html#aba0e097a9cdac209e81b94d970a0dff8" target="_top" xlink:title=" ">
<polygon fill="white" stroke="#666666" points="322.25,-32 185.5,-32 185.5,0 322.25,0 322.25,-32"/>
<text text-anchor="start" x="193.5" y="-18.5" font-family="Helvetica,sans-Serif" font-size="10.00">MetadataReader::readBasic</text>
<text text-anchor="middle" x="253.88" y="-6.5" font-family="Helvetica,sans-Serif" font-size="10.00">Metadata</text>
</a>
</g>
</g>
<!-- Node1&#45;&gt;Node7 -->
<g id="edge6_Node000001_Node000007" class="edge">
<title>Node1&#45;&gt;Node7</title>
<g id="a_edge6_Node000001_Node000007"><a xlink:title=" ">
<path fill="none" stroke="#63b8ff" d="M101.27,-87.73C123.11,-74.21 155.66,-54.98 185.5,-41 188.62,-39.54 191.85,-38.1 195.13,-36.7"/>
<polygon fill="#63b8ff" stroke="#63b8ff" points="196.38,-39.97 204.31,-32.94 193.73,-33.49 196.38,-39.97"/>
</a>
</g>
</g>
<!-- Node6 -->
<g id="Node000006" class="node">
<title>Node6</title>
<g id="a_Node000006"><a xlink:href="../../d0/d02/a00104.html#ae7d793394809462a3b7209886db87cac" target="_top" xlink:title=" ">
<polygon fill="white" stroke="#666666" points="417.75,-70 358.25,-70 358.25,-50 417.75,-50 417.75,-70"/>
<text text-anchor="middle" x="388" y="-56.5" font-family="Helvetica,sans-Serif" font-size="10.00">toRadians</text>
</a>
</g>
</g>
<!-- Node5&#45;&gt;Node6 -->
<g id="edge5_Node000005_Node000006" class="edge">
<title>Node5&#45;&gt;Node6</title>
<g id="a_edge5_Node000005_Node000006"><a xlink:title=" ">
<path fill="none" stroke="#63b8ff" d="M289.24,-60C306.89,-60 328.49,-60 346.89,-60"/>
<polygon fill="#63b8ff" stroke="#63b8ff" points="346.65,-63.5 356.65,-60 346.65,-56.5 346.65,-63.5"/>
</a>
</g>
</g>
</g>
</svg>
