<?xml version="1.0" encoding="UTF-8" standalone="no"?>
<!DOCTYPE svg PUBLIC "-//W3C//DTD SVG 1.1//EN"
 "http://www.w3.org/Graphics/SVG/1.1/DTD/svg11.dtd">
<!-- Generated by graphviz version 10.0.1 (20240210.2158)
 -->
<!-- Title: C:/GitHub/GEU/GEU/Source/Modules/SegmentacionIndiv/TreeSegmentationGUIAdapter.h Pages: 1 -->
<svg width="340pt" height="132pt"
 viewBox="0.00 0.00 339.62 132.00" xmlns="http://www.w3.org/2000/svg" xmlns:xlink="http://www.w3.org/1999/xlink">
<g id="graph0" class="graph" transform="scale(1 1) rotate(0) translate(4 128)">
<title>C:/GitHub/GEU/GEU/Source/Modules/SegmentacionIndiv/TreeSegmentationGUIAdapter.h</title>
<!-- Node1 -->
<g id="Node000001" class="node">
<title>Node1</title>
<g id="a_Node000001"><a xlink:title=" ">
<polygon fill="#999999" stroke="#666666" points="238.38,-124 82.12,-124 82.12,-80 238.38,-80 238.38,-124"/>
<text text-anchor="start" x="90.12" y="-110.5" font-family="Helvetica,sans-Serif" font-size="10.00">C:/GitHub/GEU/GEU/Source</text>
<text text-anchor="start" x="90.12" y="-98.5" font-family="Helvetica,sans-Serif" font-size="10.00">/Modules/SegmentacionIndiv</text>
<text text-anchor="middle" x="160.25" y="-86.5" font-family="Helvetica,sans-Serif" font-size="10.00">/TreeSegmentationGUIAdapter.h</text>
</a>
</g>
</g>
<!-- Node2 -->
<g id="Node000002" class="node">
<title>Node2</title>
<g id="a_Node000002"><a xlink:href="../../d6/da6/_module_manager_8cpp.html" target="_top" xlink:title=" ">
<polygon fill="white" stroke="#666666" points="146.5,-38 0,-38 0,-6 146.5,-6 146.5,-38"/>
<text text-anchor="start" x="8" y="-24.5" font-family="Helvetica,sans-Serif" font-size="10.00">C:/GitHub/GEU/GEU/Source</text>
<text text-anchor="middle" x="73.25" y="-12.5" font-family="Helvetica,sans-Serif" font-size="10.00">/Modules/ModuleManager.cpp</text>
</a>
</g>
</g>
<!-- Node1&#45;&gt;Node2 -->
<g id="edge1_Node000001_Node000002" class="edge">
<title>Node1&#45;&gt;Node2</title>
<g id="a_edge1_Node000001_Node000002"><a xlink:title=" ">
<path fill="none" stroke="#63b8ff" d="M127.93,-72.03C115.19,-60.6 101.07,-47.94 90.37,-38.35"/>
<polygon fill="#63b8ff" stroke="#63b8ff" points="125.57,-74.61 135.35,-78.68 130.24,-69.39 125.57,-74.61"/>
</a>
</g>
</g>
<!-- Node3 -->
<g id="Node000003" class="node">
<title>Node3</title>
<g id="a_Node000003"><a xlink:href="../../dc/d52/_tree_segmentation_g_u_i_adapter_8cpp.html" target="_top" xlink:title=" ">
<polygon fill="white" stroke="#666666" points="331.62,-44 164.88,-44 164.88,0 331.62,0 331.62,-44"/>
<text text-anchor="start" x="172.88" y="-30.5" font-family="Helvetica,sans-Serif" font-size="10.00">C:/GitHub/GEU/GEU/Source</text>
<text text-anchor="start" x="172.88" y="-18.5" font-family="Helvetica,sans-Serif" font-size="10.00">/Modules/SegmentacionIndiv</text>
<text text-anchor="middle" x="248.25" y="-6.5" font-family="Helvetica,sans-Serif" font-size="10.00">/TreeSegmentationGUIAdapter.cpp</text>
</a>
</g>
</g>
<!-- Node1&#45;&gt;Node3 -->
<g id="edge2_Node000001_Node000003" class="edge">
<title>Node1&#45;&gt;Node3</title>
<g id="a_edge2_Node000001_Node000003"><a xlink:title=" ">
<path fill="none" stroke="#63b8ff" d="M192.77,-72.17C203.19,-62.94 214.54,-52.88 224.23,-44.29"/>
<polygon fill="#63b8ff" stroke="#63b8ff" points="190.59,-69.43 185.43,-78.68 195.23,-74.67 190.59,-69.43"/>
</a>
</g>
</g>
</g>
</svg>
