<?xml version="1.0" encoding="UTF-8" standalone="no"?>
<!DOCTYPE svg PUBLIC "-//W3C//DTD SVG 1.1//EN"
 "http://www.w3.org/Graphics/SVG/1.1/DTD/svg11.dtd">
<!-- Generated by graphviz version 10.0.1 (20240210.2158)
 -->
<!-- Title: GEU::pclConversor::convertToRGBPCLPointCloud Pages: 1 -->
<svg width="344pt" height="166pt"
 viewBox="0.00 0.00 343.75 166.00" xmlns="http://www.w3.org/2000/svg" xmlns:xlink="http://www.w3.org/1999/xlink">
<g id="graph0" class="graph" transform="scale(1 1) rotate(0) translate(4 162)">
<title>GEU::pclConversor::convertToRGBPCLPointCloud</title>
<!-- Node1 -->
<g id="Node000001" class="node">
<title>Node1</title>
<g id="a_Node000001"><a xlink:title=" ">
<polygon fill="#999999" stroke="#666666" points="144.25,-95 0,-95 0,-63 144.25,-63 144.25,-95"/>
<text text-anchor="start" x="8" y="-81.5" font-family="Helvetica,sans-Serif" font-size="10.00">GEU::pclConversor::</text>
<text text-anchor="middle" x="72.12" y="-69.5" font-family="Helvetica,sans-Serif" font-size="10.00">convertToRGBPCLPointCloud</text>
</a>
</g>
</g>
<!-- Node2 -->
<g id="Node000002" class="node">
<title>Node2</title>
<g id="a_Node000002"><a xlink:href="../../db/d04/class_g_e_u_1_1_model3_d.html#aea23eb9ab8de56f02dacaa5155fcac15" target="_top" xlink:title=" ">
<polygon fill="white" stroke="#666666" points="335,-158 181,-158 181,-138 335,-138 335,-158"/>
<text text-anchor="middle" x="258" y="-144.5" font-family="Helvetica,sans-Serif" font-size="10.00">GEU::Model3D::getModelMatrix</text>
</a>
</g>
</g>
<!-- Node1&#45;&gt;Node2 -->
<g id="edge1_Node000001_Node000002" class="edge">
<title>Node1&#45;&gt;Node2</title>
<g id="a_edge1_Node000001_Node000002"><a xlink:title=" ">
<path fill="none" stroke="#63b8ff" d="M103.86,-95.29C124.92,-105.97 153.74,-119.63 180.25,-129 185.91,-131 191.88,-132.87 197.89,-134.6"/>
<polygon fill="#63b8ff" stroke="#63b8ff" points="196.65,-137.89 207.22,-137.16 198.49,-131.14 196.65,-137.89"/>
</a>
</g>
</g>
<!-- Node3 -->
<g id="Node000003" class="node">
<title>Node3</title>
<g id="a_Node000003"><a xlink:href="../../d4/d07/class_g_e_u_1_1_point_cloud.html#a9a79b080d808d3e589ce16bee701fdcf" target="_top" xlink:title=" ">
<polygon fill="white" stroke="#666666" points="326.75,-120 189.25,-120 189.25,-88 326.75,-88 326.75,-120"/>
<text text-anchor="start" x="197.25" y="-106.5" font-family="Helvetica,sans-Serif" font-size="10.00">GEU::PointCloud::getPoints</text>
<text text-anchor="middle" x="258" y="-94.5" font-family="Helvetica,sans-Serif" font-size="10.00">Color</text>
</a>
</g>
</g>
<!-- Node1&#45;&gt;Node3 -->
<g id="edge2_Node000001_Node000003" class="edge">
<title>Node1&#45;&gt;Node3</title>
<g id="a_edge2_Node000001_Node000003"><a xlink:title=" ">
<path fill="none" stroke="#63b8ff" d="M144.74,-88.74C155.52,-90.2 166.69,-91.72 177.62,-93.21"/>
<polygon fill="#63b8ff" stroke="#63b8ff" points="177.01,-96.66 187.39,-94.54 177.95,-89.72 177.01,-96.66"/>
</a>
</g>
</g>
<!-- Node4 -->
<g id="Node000004" class="node">
<title>Node4</title>
<g id="a_Node000004"><a xlink:href="../../d4/d07/class_g_e_u_1_1_point_cloud.html#adfe68d38eadddf88006ccc5789d5a497" target="_top" xlink:title=" ">
<polygon fill="white" stroke="#666666" points="326.75,-70 189.25,-70 189.25,-38 326.75,-38 326.75,-70"/>
<text text-anchor="start" x="197.25" y="-56.5" font-family="Helvetica,sans-Serif" font-size="10.00">GEU::PointCloud::getPoints</text>
<text text-anchor="middle" x="258" y="-44.5" font-family="Helvetica,sans-Serif" font-size="10.00">Position</text>
</a>
</g>
</g>
<!-- Node1&#45;&gt;Node4 -->
<g id="edge3_Node000001_Node000004" class="edge">
<title>Node1&#45;&gt;Node4</title>
<g id="a_edge3_Node000001_Node000004"><a xlink:title=" ">
<path fill="none" stroke="#63b8ff" d="M144.74,-69.26C155.52,-67.8 166.69,-66.28 177.62,-64.79"/>
<polygon fill="#63b8ff" stroke="#63b8ff" points="177.95,-68.28 187.39,-63.46 177.01,-61.34 177.95,-68.28"/>
</a>
</g>
</g>
<!-- Node5 -->
<g id="Node000005" class="node">
<title>Node5</title>
<g id="a_Node000005"><a xlink:href="../../d8/d02/struct_g_e_u_1_1_v_a_o_1_1_point.html#a869b1c796dc79a8c17f4f2ffd6e6ea02" target="_top" xlink:title=" ">
<polygon fill="white" stroke="#666666" points="335.75,-20 180.25,-20 180.25,0 335.75,0 335.75,-20"/>
<text text-anchor="middle" x="258" y="-6.5" font-family="Helvetica,sans-Serif" font-size="10.00">GEU::VAO::Point::getRGBVec4</text>
</a>
</g>
</g>
<!-- Node1&#45;&gt;Node5 -->
<g id="edge4_Node000001_Node000005" class="edge">
<title>Node1&#45;&gt;Node5</title>
<g id="a_edge4_Node000001_Node000005"><a xlink:title=" ">
<path fill="none" stroke="#63b8ff" d="M103.86,-62.71C124.92,-52.03 153.74,-38.37 180.25,-29 185.91,-27 191.88,-25.13 197.89,-23.4"/>
<polygon fill="#63b8ff" stroke="#63b8ff" points="198.49,-26.86 207.22,-20.84 196.65,-20.11 198.49,-26.86"/>
</a>
</g>
</g>
</g>
</svg>
