<?xml version="1.0" encoding="UTF-8" standalone="no"?>
<!DOCTYPE svg PUBLIC "-//W3C//DTD SVG 1.1//EN"
 "http://www.w3.org/Graphics/SVG/1.1/DTD/svg11.dtd">
<!-- Generated by graphviz version 10.0.1 (20240210.2158)
 -->
<!-- Title: GEU::pclConversor::convertToPCLPointCloud Pages: 1 -->
<svg width="323pt" height="166pt"
 viewBox="0.00 0.00 322.75 166.00" xmlns="http://www.w3.org/2000/svg" xmlns:xlink="http://www.w3.org/1999/xlink">
<g id="graph0" class="graph" transform="scale(1 1) rotate(0) translate(4 162)">
<title>GEU::pclConversor::convertToPCLPointCloud</title>
<!-- Node1 -->
<g id="Node000001" class="node">
<title>Node1</title>
<g id="a_Node000001"><a xlink:title=" ">
<polygon fill="#999999" stroke="#666666" points="123.25,-95 0,-95 0,-63 123.25,-63 123.25,-95"/>
<text text-anchor="start" x="8" y="-81.5" font-family="Helvetica,sans-Serif" font-size="10.00">GEU::pclConversor::</text>
<text text-anchor="middle" x="61.62" y="-69.5" font-family="Helvetica,sans-Serif" font-size="10.00">convertToPCLPointCloud</text>
</a>
</g>
</g>
<!-- Node2 -->
<g id="Node000002" class="node">
<title>Node2</title>
<g id="a_Node000002"><a xlink:href="../../db/d04/class_g_e_u_1_1_model3_d.html#aea23eb9ab8de56f02dacaa5155fcac15" target="_top" xlink:title=" ">
<polygon fill="white" stroke="#666666" points="314,-158 160,-158 160,-138 314,-138 314,-158"/>
<text text-anchor="middle" x="237" y="-144.5" font-family="Helvetica,sans-Serif" font-size="10.00">GEU::Model3D::getModelMatrix</text>
</a>
</g>
</g>
<!-- Node1&#45;&gt;Node2 -->
<g id="edge1_Node000001_Node000002" class="edge">
<title>Node1&#45;&gt;Node2</title>
<g id="a_edge1_Node000001_Node000002"><a xlink:title=" ">
<path fill="none" stroke="#63b8ff" d="M90.15,-95.46C109.06,-106.2 135.03,-119.88 159.25,-129 164.49,-130.97 170.02,-132.8 175.6,-134.48"/>
<polygon fill="#63b8ff" stroke="#63b8ff" points="174.31,-137.75 184.89,-137.11 176.22,-131.02 174.31,-137.75"/>
</a>
</g>
</g>
<!-- Node3 -->
<g id="Node000003" class="node">
<title>Node3</title>
<g id="a_Node000003"><a xlink:href="../../d4/d07/class_g_e_u_1_1_point_cloud.html#a9a79b080d808d3e589ce16bee701fdcf" target="_top" xlink:title=" ">
<polygon fill="white" stroke="#666666" points="305.75,-120 168.25,-120 168.25,-88 305.75,-88 305.75,-120"/>
<text text-anchor="start" x="176.25" y="-106.5" font-family="Helvetica,sans-Serif" font-size="10.00">GEU::PointCloud::getPoints</text>
<text text-anchor="middle" x="237" y="-94.5" font-family="Helvetica,sans-Serif" font-size="10.00">Color</text>
</a>
</g>
</g>
<!-- Node1&#45;&gt;Node3 -->
<g id="edge2_Node000001_Node000003" class="edge">
<title>Node1&#45;&gt;Node3</title>
<g id="a_edge2_Node000001_Node000003"><a xlink:title=" ">
<path fill="none" stroke="#63b8ff" d="M123.26,-87.74C134.1,-89.31 145.54,-90.96 156.81,-92.58"/>
<polygon fill="#63b8ff" stroke="#63b8ff" points="156.1,-96.01 166.49,-93.98 157.09,-89.09 156.1,-96.01"/>
</a>
</g>
</g>
<!-- Node4 -->
<g id="Node000004" class="node">
<title>Node4</title>
<g id="a_Node000004"><a xlink:href="../../d4/d07/class_g_e_u_1_1_point_cloud.html#adfe68d38eadddf88006ccc5789d5a497" target="_top" xlink:title=" ">
<polygon fill="white" stroke="#666666" points="305.75,-70 168.25,-70 168.25,-38 305.75,-38 305.75,-70"/>
<text text-anchor="start" x="176.25" y="-56.5" font-family="Helvetica,sans-Serif" font-size="10.00">GEU::PointCloud::getPoints</text>
<text text-anchor="middle" x="237" y="-44.5" font-family="Helvetica,sans-Serif" font-size="10.00">Position</text>
</a>
</g>
</g>
<!-- Node1&#45;&gt;Node4 -->
<g id="edge3_Node000001_Node000004" class="edge">
<title>Node1&#45;&gt;Node4</title>
<g id="a_edge3_Node000001_Node000004"><a xlink:title=" ">
<path fill="none" stroke="#63b8ff" d="M123.26,-70.26C134.1,-68.69 145.54,-67.04 156.81,-65.42"/>
<polygon fill="#63b8ff" stroke="#63b8ff" points="157.09,-68.91 166.49,-64.02 156.1,-61.99 157.09,-68.91"/>
</a>
</g>
</g>
<!-- Node5 -->
<g id="Node000005" class="node">
<title>Node5</title>
<g id="a_Node000005"><a xlink:href="../../d8/d02/struct_g_e_u_1_1_v_a_o_1_1_point.html#a869b1c796dc79a8c17f4f2ffd6e6ea02" target="_top" xlink:title=" ">
<polygon fill="white" stroke="#666666" points="314.75,-20 159.25,-20 159.25,0 314.75,0 314.75,-20"/>
<text text-anchor="middle" x="237" y="-6.5" font-family="Helvetica,sans-Serif" font-size="10.00">GEU::VAO::Point::getRGBVec4</text>
</a>
</g>
</g>
<!-- Node1&#45;&gt;Node5 -->
<g id="edge4_Node000001_Node000005" class="edge">
<title>Node1&#45;&gt;Node5</title>
<g id="a_edge4_Node000001_Node000005"><a xlink:title=" ">
<path fill="none" stroke="#63b8ff" d="M90.15,-62.54C109.06,-51.8 135.03,-38.12 159.25,-29 164.49,-27.03 170.02,-25.2 175.6,-23.52"/>
<polygon fill="#63b8ff" stroke="#63b8ff" points="176.22,-26.98 184.89,-20.89 174.31,-20.25 176.22,-26.98"/>
</a>
</g>
</g>
</g>
</svg>
