<?xml version="1.0" encoding="UTF-8" standalone="no"?>
<!DOCTYPE svg PUBLIC "-//W3C//DTD SVG 1.1//EN"
 "http://www.w3.org/Graphics/SVG/1.1/DTD/svg11.dtd">
<!-- Generated by graphviz version 10.0.1 (20240210.2158)
 -->
<!-- Title: GEU::DatabaseQueryDatoPopup::openPopup Pages: 1 -->
<svg width="549pt" height="106pt"
 viewBox="0.00 0.00 548.75 106.00" xmlns="http://www.w3.org/2000/svg" xmlns:xlink="http://www.w3.org/1999/xlink">
<g id="graph0" class="graph" transform="scale(1 1) rotate(0) translate(4 102)">
<title>GEU::DatabaseQueryDatoPopup::openPopup</title>
<!-- Node1 -->
<g id="Node000001" class="node">
<title>Node1</title>
<g id="a_Node000001"><a xlink:title="Sets up ImGUI to open a popup window.">
<polygon fill="#999999" stroke="#666666" points="158.5,-54 0,-54 0,-22 158.5,-22 158.5,-54"/>
<text text-anchor="start" x="8" y="-40.5" font-family="Helvetica,sans-Serif" font-size="10.00">GEU::DatabaseQueryDatoPopup</text>
<text text-anchor="middle" x="79.25" y="-28.5" font-family="Helvetica,sans-Serif" font-size="10.00">::openPopup</text>
</a>
</g>
</g>
<!-- Node2 -->
<g id="Node000002" class="node">
<title>Node2</title>
<g id="a_Node000002"><a xlink:href="../../dd/d00/a01936.html#abdcc20870710b60595e8777b9fd796ed" target="_top" xlink:title=" ">
<polygon fill="white" stroke="#666666" points="343.62,-70 203.88,-70 203.88,-50 343.62,-50 343.62,-70"/>
<text text-anchor="middle" x="273.75" y="-56.5" font-family="Helvetica,sans-Serif" font-size="10.00">GEU::I_GUIPopup::getIdTitle</text>
</a>
</g>
</g>
<!-- Node1&#45;&gt;Node2 -->
<g id="edge1_Node000001_Node000002" class="edge">
<title>Node1&#45;&gt;Node2</title>
<g id="a_edge1_Node000001_Node000002"><a xlink:title=" ">
<path fill="none" stroke="#63b8ff" d="M158.82,-46.98C169.78,-48.23 181.05,-49.52 192.05,-50.78"/>
<polygon fill="#63b8ff" stroke="#63b8ff" points="191.55,-54.24 201.88,-51.9 192.34,-47.29 191.55,-54.24"/>
</a>
</g>
</g>
<!-- Node5 -->
<g id="Node000005" class="node">
<title>Node5</title>
<g id="a_Node000005"><a xlink:href="../../d2/d02/a01488.html#a66cced7564861abf4e46a79985f1f73f" target="_top" xlink:title=" ">
<polygon fill="white" stroke="#666666" points="353,-32 194.5,-32 194.5,0 353,0 353,-32"/>
<text text-anchor="start" x="202.5" y="-18.5" font-family="Helvetica,sans-Serif" font-size="10.00">GEU::DatabaseQueryDatoPopup</text>
<text text-anchor="middle" x="273.75" y="-6.5" font-family="Helvetica,sans-Serif" font-size="10.00">::resetFilters</text>
</a>
</g>
</g>
<!-- Node1&#45;&gt;Node5 -->
<g id="edge4_Node000001_Node000005" class="edge">
<title>Node1&#45;&gt;Node5</title>
<g id="a_edge4_Node000001_Node000005"><a xlink:title=" ">
<path fill="none" stroke="#63b8ff" d="M158.82,-29.02C166.74,-28.12 174.82,-27.19 182.84,-26.28"/>
<polygon fill="#63b8ff" stroke="#63b8ff" points="183.07,-29.77 192.61,-25.16 182.28,-22.82 183.07,-29.77"/>
</a>
</g>
</g>
<!-- Node3 -->
<g id="Node000003" class="node">
<title>Node3</title>
<g id="a_Node000003"><a xlink:href="../../d1/d01/a02032.html#a47c7e7c2110f4cc59c9ff1f5594c366e" target="_top" xlink:title=" ">
<polygon fill="white" stroke="#666666" points="540.75,-98 389,-98 389,-66 540.75,-66 540.75,-98"/>
<text text-anchor="start" x="397" y="-84.5" font-family="Helvetica,sans-Serif" font-size="10.00">GEU::Singleton&lt; LocaleStrings</text>
<text text-anchor="middle" x="464.88" y="-72.5" font-family="Helvetica,sans-Serif" font-size="10.00"> &gt;::getInstance</text>
</a>
</g>
</g>
<!-- Node2&#45;&gt;Node3 -->
<g id="edge2_Node000002_Node000003" class="edge">
<title>Node2&#45;&gt;Node3</title>
<g id="a_edge2_Node000002_Node000003"><a xlink:title=" ">
<path fill="none" stroke="#63b8ff" d="M344.1,-68.07C355.01,-69.34 366.4,-70.66 377.64,-71.97"/>
<polygon fill="#63b8ff" stroke="#63b8ff" points="376.96,-75.41 387.3,-73.09 377.77,-68.46 376.96,-75.41"/>
</a>
</g>
</g>
<!-- Node4 -->
<g id="Node000004" class="node">
<title>Node4</title>
<g id="a_Node000004"><a xlink:href="../../dc/d02/a02020.html#ac66087ac25e72051ea7b5bf3d00dd71f" target="_top" xlink:title=" ">
<polygon fill="white" stroke="#666666" points="525,-48 404.75,-48 404.75,-28 525,-28 525,-48"/>
<text text-anchor="middle" x="464.88" y="-34.5" font-family="Helvetica,sans-Serif" font-size="10.00">LocaleStrings::getString</text>
</a>
</g>
</g>
<!-- Node2&#45;&gt;Node4 -->
<g id="edge3_Node000002_Node000004" class="edge">
<title>Node2&#45;&gt;Node4</title>
<g id="a_edge3_Node000002_Node000004"><a xlink:title=" ">
<path fill="none" stroke="#63b8ff" d="M344.1,-51.93C360.2,-50.06 377.36,-48.06 393.5,-46.19"/>
<polygon fill="#63b8ff" stroke="#63b8ff" points="393.46,-49.71 402.99,-45.08 392.66,-42.76 393.46,-49.71"/>
</a>
</g>
</g>
</g>
</svg>
