<?xml version="1.0" encoding="UTF-8" standalone="no"?>
<!DOCTYPE svg PUBLIC "-//W3C//DTD SVG 1.1//EN"
 "http://www.w3.org/Graphics/SVG/1.1/DTD/svg11.dtd">
<!-- Generated by graphviz version 10.0.1 (20240210.2158)
 -->
<!-- Title: C:/GitHub/GEU/GEU/Source/UI/FileDialogPopup.h Pages: 1 -->
<svg width="909pt" height="600pt"
 viewBox="0.00 0.00 909.25 600.00" xmlns="http://www.w3.org/2000/svg" xmlns:xlink="http://www.w3.org/1999/xlink">
<g id="graph0" class="graph" transform="scale(1 1) rotate(0) translate(4 596)">
<title>C:/GitHub/GEU/GEU/Source/UI/FileDialogPopup.h</title>
<!-- Node1 -->
<g id="Node000001" class="node">
<title>Node1</title>
<g id="a_Node000001"><a xlink:title=" ">
<polygon fill="#999999" stroke="#666666" points="548.12,-592 407.62,-592 407.62,-560 548.12,-560 548.12,-592"/>
<text text-anchor="start" x="415.62" y="-578.5" font-family="Helvetica,sans-Serif" font-size="10.00">C:/GitHub/GEU/GEU/Source</text>
<text text-anchor="middle" x="477.88" y="-566.5" font-family="Helvetica,sans-Serif" font-size="10.00">/UI/FileDialogPopup.h</text>
</a>
</g>
</g>
<!-- Node2 -->
<g id="Node000002" class="node">
<title>Node2</title>
<g id="a_Node000002"><a xlink:title=" ">
<polygon fill="#e0e0e0" stroke="#999999" points="422.12,-524 329.62,-524 329.62,-504 422.12,-504 422.12,-524"/>
<text text-anchor="middle" x="375.88" y="-510.5" font-family="Helvetica,sans-Serif" font-size="10.00">ImGuiFileDialog.h</text>
</a>
</g>
</g>
<!-- Node1&#45;&gt;Node2 -->
<g id="edge1_Node000001_Node000002" class="edge">
<title>Node1&#45;&gt;Node2</title>
<g id="a_edge1_Node000001_Node000002"><a xlink:title=" ">
<path fill="none" stroke="#63b8ff" d="M451.61,-559.55C436.26,-550.52 416.97,-539.17 401.7,-530.19"/>
<polygon fill="#63b8ff" stroke="#63b8ff" points="403.57,-527.23 393.17,-525.18 400.02,-533.26 403.57,-527.23"/>
</a>
</g>
</g>
<!-- Node3 -->
<g id="Node000003" class="node">
<title>Node3</title>
<g id="a_Node000003"><a xlink:href="../../de/df3/_i___g_u_i_popup_8h.html" target="_top" xlink:title=" ">
<polygon fill="white" stroke="#666666" points="515.88,-524 439.88,-524 439.88,-504 515.88,-504 515.88,-524"/>
<text text-anchor="middle" x="477.88" y="-510.5" font-family="Helvetica,sans-Serif" font-size="10.00">I_GUIPopup.h</text>
</a>
</g>
</g>
<!-- Node1&#45;&gt;Node3 -->
<g id="edge2_Node000001_Node000003" class="edge">
<title>Node1&#45;&gt;Node3</title>
<g id="a_edge2_Node000001_Node000003"><a xlink:title=" ">
<path fill="none" stroke="#63b8ff" d="M477.88,-559.55C477.88,-552.34 477.88,-543.66 477.88,-535.88"/>
<polygon fill="#63b8ff" stroke="#63b8ff" points="481.38,-535.92 477.88,-525.92 474.38,-535.92 481.38,-535.92"/>
</a>
</g>
</g>
<!-- Node23 -->
<g id="Node000023" class="node">
<title>Node23</title>
<g id="a_Node000023"><a xlink:href="../../d7/d21/_file_dialog_regex_8hpp.html" target="_top" xlink:title=" ">
<polygon fill="white" stroke="#666666" points="631.12,-356 490.62,-356 490.62,-336 631.12,-336 631.12,-356"/>
<text text-anchor="middle" x="560.88" y="-342.5" font-family="Helvetica,sans-Serif" font-size="10.00">Utilities/FileDialogRegex.hpp</text>
</a>
</g>
</g>
<!-- Node1&#45;&gt;Node23 -->
<g id="edge42_Node000001_Node000023" class="edge">
<title>Node1&#45;&gt;Node23</title>
<g id="a_edge42_Node000001_Node000023"><a xlink:title=" ">
<path fill="none" stroke="#63b8ff" d="M503.11,-559.65C541.54,-534.51 612.79,-480.43 636.88,-412 639.83,-403.62 641.28,-399.72 636.88,-392 629.01,-378.2 615.06,-368.2 601.25,-361.18"/>
<polygon fill="#63b8ff" stroke="#63b8ff" points="602.73,-358.01 592.19,-357.02 599.81,-364.38 602.73,-358.01"/>
</a>
</g>
</g>
<!-- Node4 -->
<g id="Node000004" class="node">
<title>Node4</title>
<g id="a_Node000004"><a xlink:href="../../de/d56/_scene_8h.html" target="_top" xlink:title=" ">
<polygon fill="white" stroke="#666666" points="582.5,-468 507.25,-468 507.25,-448 582.5,-448 582.5,-468"/>
<text text-anchor="middle" x="544.88" y="-454.5" font-family="Helvetica,sans-Serif" font-size="10.00">Core/Scene.h</text>
</a>
</g>
</g>
<!-- Node3&#45;&gt;Node4 -->
<g id="edge3_Node000003_Node000004" class="edge">
<title>Node3&#45;&gt;Node4</title>
<g id="a_edge3_Node000003_Node000004"><a xlink:title=" ">
<path fill="none" stroke="#63b8ff" d="M489.55,-503.59C499.15,-495.85 513,-484.69 524.44,-475.47"/>
<polygon fill="#63b8ff" stroke="#63b8ff" points="526.57,-478.25 532.16,-469.25 522.18,-472.8 526.57,-478.25"/>
</a>
</g>
</g>
<!-- Node25 -->
<g id="Node000025" class="node">
<title>Node25</title>
<g id="a_Node000025"><a xlink:href="../../dd/d9b/_application_state_8h.html" target="_top" xlink:title=" ">
<polygon fill="white" stroke="#666666" points="316.25,-468 197.5,-468 197.5,-448 316.25,-448 316.25,-468"/>
<text text-anchor="middle" x="256.88" y="-454.5" font-family="Helvetica,sans-Serif" font-size="10.00">Core/ApplicationState.h</text>
</a>
</g>
</g>
<!-- Node3&#45;&gt;Node25 -->
<g id="edge29_Node000003_Node000025" class="edge">
<title>Node3&#45;&gt;Node25</title>
<g id="a_edge29_Node000003_Node000025"><a xlink:title=" ">
<path fill="none" stroke="#63b8ff" d="M439.38,-503.59C402.61,-494.61 346.99,-481.02 306.82,-471.2"/>
<polygon fill="#63b8ff" stroke="#63b8ff" points="307.69,-467.81 297.14,-468.84 306.02,-474.61 307.69,-467.81"/>
</a>
</g>
</g>
<!-- Node33 -->
<g id="Node000033" class="node">
<title>Node33</title>
<g id="a_Node000033"><a xlink:href="../../d6/d20/_locale_strings_8h.html" target="_top" xlink:title=" ">
<polygon fill="white" stroke="#666666" points="471.25,-468 352.5,-468 352.5,-448 471.25,-448 471.25,-468"/>
<text text-anchor="middle" x="411.88" y="-454.5" font-family="Helvetica,sans-Serif" font-size="10.00">Utilities/LocaleStrings.h</text>
</a>
</g>
</g>
<!-- Node3&#45;&gt;Node33 -->
<g id="edge40_Node000003_Node000033" class="edge">
<title>Node3&#45;&gt;Node33</title>
<g id="a_edge40_Node000003_Node000033"><a xlink:title=" ">
<path fill="none" stroke="#63b8ff" d="M466.38,-503.59C456.91,-495.85 443.27,-484.69 432,-475.47"/>
<polygon fill="#63b8ff" stroke="#63b8ff" points="434.37,-472.88 424.41,-469.26 429.93,-478.3 434.37,-472.88"/>
</a>
</g>
</g>
<!-- Node5 -->
<g id="Node000005" class="node">
<title>Node5</title>
<g id="a_Node000005"><a xlink:href="../../d5/d91/_camera_8h.html" target="_top" xlink:title=" ">
<polygon fill="white" stroke="#666666" points="628.25,-412 533.5,-412 533.5,-392 628.25,-392 628.25,-412"/>
<text text-anchor="middle" x="580.88" y="-398.5" font-family="Helvetica,sans-Serif" font-size="10.00">Camera/Camera.h</text>
</a>
</g>
</g>
<!-- Node4&#45;&gt;Node5 -->
<g id="edge4_Node000004_Node000005" class="edge">
<title>Node4&#45;&gt;Node5</title>
<g id="a_edge4_Node000004_Node000005"><a xlink:title=" ">
<path fill="none" stroke="#63b8ff" d="M551.15,-447.59C555.89,-440.47 562.57,-430.45 568.4,-421.72"/>
<polygon fill="#63b8ff" stroke="#63b8ff" points="571.2,-423.82 573.84,-413.56 565.38,-419.94 571.2,-423.82"/>
</a>
</g>
</g>
<!-- Node17 -->
<g id="Node000017" class="node">
<title>Node17</title>
<g id="a_Node000017"><a xlink:href="../../d2/d46/_light_8h.html" target="_top" xlink:title=" ">
<polygon fill="white" stroke="#666666" points="816.12,-412 741.62,-412 741.62,-392 816.12,-392 816.12,-412"/>
<text text-anchor="middle" x="778.88" y="-398.5" font-family="Helvetica,sans-Serif" font-size="10.00">Lights/Light.h</text>
</a>
</g>
</g>
<!-- Node4&#45;&gt;Node17 -->
<g id="edge19_Node000004_Node000017" class="edge">
<title>Node4&#45;&gt;Node17</title>
<g id="a_edge19_Node000004_Node000017"><a xlink:title=" ">
<path fill="none" stroke="#63b8ff" d="M582.99,-448.2C623.14,-438.94 686.48,-424.32 730.22,-414.23"/>
<polygon fill="#63b8ff" stroke="#63b8ff" points="730.73,-417.7 739.69,-412.04 729.16,-410.88 730.73,-417.7"/>
</a>
</g>
</g>
<!-- Node20 -->
<g id="Node000020" class="node">
<title>Node20</title>
<g id="a_Node000020"><a xlink:href="../../d7/d92/_database_connector_8h.html" target="_top" xlink:title=" ">
<polygon fill="white" stroke="#666666" points="515.38,-412 370.38,-412 370.38,-392 515.38,-392 515.38,-412"/>
<text text-anchor="middle" x="442.88" y="-398.5" font-family="Helvetica,sans-Serif" font-size="10.00">Utilities/DatabaseConnector.h</text>
</a>
</g>
</g>
<!-- Node4&#45;&gt;Node20 -->
<g id="edge24_Node000004_Node000020" class="edge">
<title>Node4&#45;&gt;Node20</title>
<g id="a_edge24_Node000004_Node000020"><a xlink:title=" ">
<path fill="none" stroke="#63b8ff" d="M527.11,-447.59C511.55,-439.36 488.69,-427.26 470.71,-417.74"/>
<polygon fill="#63b8ff" stroke="#63b8ff" points="472.59,-414.77 462.12,-413.19 469.32,-420.96 472.59,-414.77"/>
</a>
</g>
</g>
<!-- Node6 -->
<g id="Node000006" class="node">
<title>Node6</title>
<g id="a_Node000006"><a xlink:href="../../dd/dbb/_camera_projection_8h.html" target="_top" xlink:title=" ">
<polygon fill="white" stroke="#666666" points="750.62,-356 649.12,-356 649.12,-336 750.62,-336 750.62,-356"/>
<text text-anchor="middle" x="699.88" y="-342.5" font-family="Helvetica,sans-Serif" font-size="10.00">CameraProjection.h</text>
</a>
</g>
</g>
<!-- Node5&#45;&gt;Node6 -->
<g id="edge5_Node000005_Node000006" class="edge">
<title>Node5&#45;&gt;Node6</title>
<g id="a_edge5_Node000005_Node000006"><a xlink:title=" ">
<path fill="none" stroke="#63b8ff" d="M601.6,-391.59C620.09,-383.21 647.42,-370.8 668.57,-361.21"/>
<polygon fill="#63b8ff" stroke="#63b8ff" points="669.95,-364.42 677.61,-357.1 667.05,-358.05 669.95,-364.42"/>
</a>
</g>
</g>
<!-- Node7 -->
<g id="Node000007" class="node">
<title>Node7</title>
<g id="a_Node000007"><a xlink:href="../../d0/d8e/_model3_d_8h.html" target="_top" xlink:title=" ">
<polygon fill="white" stroke="#666666" points="385.75,-300 300,-300 300,-280 385.75,-280 385.75,-300"/>
<text text-anchor="middle" x="342.88" y="-286.5" font-family="Helvetica,sans-Serif" font-size="10.00">Core/Model3D.h</text>
</a>
</g>
</g>
<!-- Node5&#45;&gt;Node7 -->
<g id="edge6_Node000005_Node000007" class="edge">
<title>Node5&#45;&gt;Node7</title>
<g id="a_edge6_Node000005_Node000007"><a xlink:title=" ">
<path fill="none" stroke="#63b8ff" d="M559.08,-391.53C538.9,-382.66 508.15,-368.87 481.88,-356 464.74,-347.6 461.05,-344.33 443.88,-336 421.29,-325.04 395.42,-313.53 375.52,-304.9"/>
<polygon fill="#63b8ff" stroke="#63b8ff" points="377.09,-301.77 366.52,-301.02 374.32,-308.19 377.09,-301.77"/>
</a>
</g>
</g>
<!-- Node8 -->
<g id="Node000008" class="node">
<title>Node8</title>
<g id="a_Node000008"><a xlink:href="../../d3/d09/_material_8h.html" target="_top" xlink:title=" ">
<polygon fill="white" stroke="#666666" points="420.25,-244 361.5,-244 361.5,-224 420.25,-224 420.25,-244"/>
<text text-anchor="middle" x="390.88" y="-230.5" font-family="Helvetica,sans-Serif" font-size="10.00">Material.h</text>
</a>
</g>
</g>
<!-- Node7&#45;&gt;Node8 -->
<g id="edge7_Node000007_Node000008" class="edge">
<title>Node7&#45;&gt;Node8</title>
<g id="a_edge7_Node000007_Node000008"><a xlink:title=" ">
<path fill="none" stroke="#63b8ff" d="M351.24,-279.59C357.77,-272.24 367.06,-261.8 374.99,-252.87"/>
<polygon fill="#63b8ff" stroke="#63b8ff" points="377.58,-255.23 381.6,-245.43 372.34,-250.58 377.58,-255.23"/>
</a>
</g>
</g>
<!-- Node16 -->
<g id="Node000016" class="node">
<title>Node16</title>
<g id="a_Node000016"><a xlink:href="../../d2/d00/_a_a_b_b_8h.html" target="_top" xlink:title=" ">
<polygon fill="white" stroke="#666666" points="343.38,-244 246.38,-244 246.38,-224 343.38,-224 343.38,-244"/>
<text text-anchor="middle" x="294.88" y="-230.5" font-family="Helvetica,sans-Serif" font-size="10.00">Geometry/AABB.h</text>
</a>
</g>
</g>
<!-- Node7&#45;&gt;Node16 -->
<g id="edge18_Node000007_Node000016" class="edge">
<title>Node7&#45;&gt;Node16</title>
<g id="a_edge18_Node000007_Node000016"><a xlink:title=" ">
<path fill="none" stroke="#63b8ff" d="M334.51,-279.59C327.98,-272.24 318.69,-261.8 310.76,-252.87"/>
<polygon fill="#63b8ff" stroke="#63b8ff" points="313.41,-250.58 304.15,-245.43 308.17,-255.23 313.41,-250.58"/>
</a>
</g>
</g>
<!-- Node9 -->
<g id="Node000009" class="node">
<title>Node9</title>
<g id="a_Node000009"><a xlink:title=" ">
<polygon fill="#e0e0e0" stroke="#999999" points="261.38,-132 176.38,-132 176.38,-112 261.38,-112 261.38,-132"/>
<text text-anchor="middle" x="218.88" y="-118.5" font-family="Helvetica,sans-Serif" font-size="10.00">assimp/scene.h</text>
</a>
</g>
</g>
<!-- Node8&#45;&gt;Node9 -->
<g id="edge8_Node000008_Node000009" class="edge">
<title>Node8&#45;&gt;Node9</title>
<g id="a_edge8_Node000008_Node000009"><a xlink:title=" ">
<path fill="none" stroke="#63b8ff" d="M361.04,-223.73C338.93,-216.08 308.64,-203.9 284.88,-188 264.92,-174.65 245.79,-154.76 233.31,-140.51"/>
<polygon fill="#63b8ff" stroke="#63b8ff" points="236.26,-138.57 227.11,-133.23 230.93,-143.11 236.26,-138.57"/>
</a>
</g>
</g>
<!-- Node10 -->
<g id="Node000010" class="node">
<title>Node10</title>
<g id="a_Node000010"><a xlink:href="../../d1/d4f/_rendering_shader_8h.html" target="_top" xlink:title=" ">
<polygon fill="white" stroke="#666666" points="529.25,-188 368.5,-188 368.5,-168 529.25,-168 529.25,-188"/>
<text text-anchor="middle" x="448.88" y="-174.5" font-family="Helvetica,sans-Serif" font-size="10.00">Core/Shaders/RenderingShader.h</text>
</a>
</g>
</g>
<!-- Node8&#45;&gt;Node10 -->
<g id="edge9_Node000008_Node000010" class="edge">
<title>Node8&#45;&gt;Node10</title>
<g id="a_edge9_Node000008_Node000010"><a xlink:title=" ">
<path fill="none" stroke="#63b8ff" d="M400.98,-223.59C409.13,-216.01 420.81,-205.13 430.59,-196.02"/>
<polygon fill="#63b8ff" stroke="#63b8ff" points="432.85,-198.71 437.78,-189.33 428.08,-193.58 432.85,-198.71"/>
</a>
</g>
</g>
<!-- Node14 -->
<g id="Node000014" class="node">
<title>Node14</title>
<g id="a_Node000014"><a xlink:href="../../de/dbf/_texture_8h.html" target="_top" xlink:title=" ">
<polygon fill="white" stroke="#666666" points="350.12,-188 293.62,-188 293.62,-168 350.12,-168 350.12,-188"/>
<text text-anchor="middle" x="321.88" y="-174.5" font-family="Helvetica,sans-Serif" font-size="10.00">Texture.h</text>
</a>
</g>
</g>
<!-- Node8&#45;&gt;Node14 -->
<g id="edge14_Node000008_Node000014" class="edge">
<title>Node8&#45;&gt;Node14</title>
<g id="a_edge14_Node000008_Node000014"><a xlink:title=" ">
<path fill="none" stroke="#63b8ff" d="M378.86,-223.59C368.86,-215.77 354.41,-204.46 342.57,-195.19"/>
<polygon fill="#63b8ff" stroke="#63b8ff" points="344.98,-192.64 334.95,-189.23 340.67,-198.15 344.98,-192.64"/>
</a>
</g>
</g>
<!-- Node11 -->
<g id="Node000011" class="node">
<title>Node11</title>
<g id="a_Node000011"><a xlink:href="../../d0/dbe/_shader_program_8h.html" target="_top" xlink:title=" ">
<polygon fill="white" stroke="#666666" points="474.75,-132 383,-132 383,-112 474.75,-112 474.75,-132"/>
<text text-anchor="middle" x="428.88" y="-118.5" font-family="Helvetica,sans-Serif" font-size="10.00">ShaderProgram.h</text>
</a>
</g>
</g>
<!-- Node10&#45;&gt;Node11 -->
<g id="edge10_Node000010_Node000011" class="edge">
<title>Node10&#45;&gt;Node11</title>
<g id="a_edge10_Node000010_Node000011"><a xlink:title=" ">
<path fill="none" stroke="#63b8ff" d="M445.39,-167.59C442.87,-160.78 439.36,-151.32 436.23,-142.86"/>
<polygon fill="#63b8ff" stroke="#63b8ff" points="439.6,-141.88 432.84,-133.72 433.04,-144.31 439.6,-141.88"/>
</a>
</g>
</g>
<!-- Node12 -->
<g id="Node000012" class="node">
<title>Node12</title>
<g id="a_Node000012"><a xlink:href="../../df/d2e/_shader_enums_8h.html" target="_top" xlink:title=" ">
<polygon fill="white" stroke="#666666" points="330.75,-76 245,-76 245,-56 330.75,-56 330.75,-76"/>
<text text-anchor="middle" x="287.88" y="-62.5" font-family="Helvetica,sans-Serif" font-size="10.00">ShaderEnums.h</text>
</a>
</g>
</g>
<!-- Node10&#45;&gt;Node12 -->
<g id="edge13_Node000010_Node000012" class="edge">
<title>Node10&#45;&gt;Node12</title>
<g id="a_edge13_Node000010_Node000012"><a xlink:title=" ">
<path fill="none" stroke="#63b8ff" d="M460.6,-167.54C475.61,-154.3 498.09,-129.85 483.88,-112 466.43,-90.1 393.93,-77.98 342.19,-71.98"/>
<polygon fill="#63b8ff" stroke="#63b8ff" points="342.67,-68.51 332.35,-70.89 341.9,-75.47 342.67,-68.51"/>
</a>
</g>
</g>
<!-- Node11&#45;&gt;Node12 -->
<g id="edge11_Node000011_Node000012" class="edge">
<title>Node11&#45;&gt;Node12</title>
<g id="a_edge11_Node000011_Node000012"><a xlink:title=" ">
<path fill="none" stroke="#63b8ff" d="M404.31,-111.59C381.91,-103.01 348.54,-90.23 323.26,-80.55"/>
<polygon fill="#63b8ff" stroke="#63b8ff" points="324.63,-77.33 314.04,-77.02 322.13,-83.87 324.63,-77.33"/>
</a>
</g>
</g>
<!-- Node13 -->
<g id="Node000013" class="node">
<title>Node13</title>
<g id="a_Node000013"><a xlink:title=" ">
<polygon fill="#e0e0e0" stroke="#999999" points="126.62,-20 67.12,-20 67.12,0 126.62,0 126.62,-20"/>
<text text-anchor="middle" x="96.88" y="-6.5" font-family="Helvetica,sans-Serif" font-size="10.00">GL/glew.h</text>
</a>
</g>
</g>
<!-- Node12&#45;&gt;Node13 -->
<g id="edge12_Node000012_Node000013" class="edge">
<title>Node12&#45;&gt;Node13</title>
<g id="a_edge12_Node000012_Node000013"><a xlink:title=" ">
<path fill="none" stroke="#63b8ff" d="M254.61,-55.59C222.1,-46.41 172.57,-32.4 137.7,-22.54"/>
<polygon fill="#63b8ff" stroke="#63b8ff" points="138.97,-19.26 128.39,-19.91 137.06,-26 138.97,-19.26"/>
</a>
</g>
</g>
<!-- Node14&#45;&gt;Node9 -->
<g id="edge15_Node000014_Node000009" class="edge">
<title>Node14&#45;&gt;Node9</title>
<g id="a_edge15_Node000014_Node000009"><a xlink:title=" ">
<path fill="none" stroke="#63b8ff" d="M303.93,-167.59C288.23,-159.36 265.14,-147.26 246.99,-137.74"/>
<polygon fill="#63b8ff" stroke="#63b8ff" points="248.78,-134.73 238.3,-133.18 245.53,-140.93 248.78,-134.73"/>
</a>
</g>
</g>
<!-- Node14&#45;&gt;Node11 -->
<g id="edge17_Node000014_Node000011" class="edge">
<title>Node14&#45;&gt;Node11</title>
<g id="a_edge17_Node000014_Node000011"><a xlink:title=" ">
<path fill="none" stroke="#63b8ff" d="M340.51,-167.59C356.91,-159.32 381.03,-147.14 399.94,-137.6"/>
<polygon fill="#63b8ff" stroke="#63b8ff" points="401.39,-140.79 408.74,-133.16 398.24,-134.54 401.39,-140.79"/>
</a>
</g>
</g>
<!-- Node15 -->
<g id="Node000015" class="node">
<title>Node15</title>
<g id="a_Node000015"><a xlink:href="../../d9/de5/_image_8h.html" target="_top" xlink:title=" ">
<polygon fill="white" stroke="#666666" points="364.75,-132 279,-132 279,-112 364.75,-112 364.75,-132"/>
<text text-anchor="middle" x="321.88" y="-118.5" font-family="Helvetica,sans-Serif" font-size="10.00">Utilities/Image.h</text>
</a>
</g>
</g>
<!-- Node14&#45;&gt;Node15 -->
<g id="edge16_Node000014_Node000015" class="edge">
<title>Node14&#45;&gt;Node15</title>
<g id="a_edge16_Node000014_Node000015"><a xlink:title=" ">
<path fill="none" stroke="#63b8ff" d="M321.88,-167.59C321.88,-161.01 321.88,-151.96 321.88,-143.73"/>
<polygon fill="#63b8ff" stroke="#63b8ff" points="325.38,-143.81 321.88,-133.81 318.38,-143.81 325.38,-143.81"/>
</a>
</g>
</g>
<!-- Node18 -->
<g id="Node000018" class="node">
<title>Node18</title>
<g id="a_Node000018"><a xlink:href="../../d7/d9c/_light_attenuation_8h.html" target="_top" xlink:title=" ">
<polygon fill="white" stroke="#666666" points="901.25,-356 806.5,-356 806.5,-336 901.25,-336 901.25,-356"/>
<text text-anchor="middle" x="853.88" y="-342.5" font-family="Helvetica,sans-Serif" font-size="10.00">LightAttenuation.h</text>
</a>
</g>
</g>
<!-- Node17&#45;&gt;Node18 -->
<g id="edge20_Node000017_Node000018" class="edge">
<title>Node17&#45;&gt;Node18</title>
<g id="a_edge20_Node000017_Node000018"><a xlink:title=" ">
<path fill="none" stroke="#63b8ff" d="M791.94,-391.59C802.84,-383.74 818.63,-372.38 831.53,-363.09"/>
<polygon fill="#63b8ff" stroke="#63b8ff" points="833.41,-366.05 839.48,-357.36 829.32,-360.37 833.41,-366.05"/>
</a>
</g>
</g>
<!-- Node19 -->
<g id="Node000019" class="node">
<title>Node19</title>
<g id="a_Node000019"><a xlink:href="../../d1/db9/_light_model_8h.html" target="_top" xlink:title=" ">
<polygon fill="white" stroke="#666666" points="814.62,-300 743.12,-300 743.12,-280 814.62,-280 814.62,-300"/>
<text text-anchor="middle" x="778.88" y="-286.5" font-family="Helvetica,sans-Serif" font-size="10.00">LightModel.h</text>
</a>
</g>
</g>
<!-- Node17&#45;&gt;Node19 -->
<g id="edge23_Node000017_Node000019" class="edge">
<title>Node17&#45;&gt;Node19</title>
<g id="a_edge23_Node000017_Node000019"><a xlink:title=" ">
<path fill="none" stroke="#63b8ff" d="M778.88,-391.62C778.88,-374.01 778.88,-335.59 778.88,-311.65"/>
<polygon fill="#63b8ff" stroke="#63b8ff" points="782.38,-311.87 778.88,-301.87 775.38,-311.87 782.38,-311.87"/>
</a>
</g>
</g>
<!-- Node18&#45;&gt;Node19 -->
<g id="edge21_Node000018_Node000019" class="edge">
<title>Node18&#45;&gt;Node19</title>
<g id="a_edge21_Node000018_Node000019"><a xlink:title=" ">
<path fill="none" stroke="#63b8ff" d="M840.81,-335.59C829.91,-327.74 814.12,-316.38 801.22,-307.09"/>
<polygon fill="#63b8ff" stroke="#63b8ff" points="803.43,-304.37 793.27,-301.36 799.34,-310.05 803.43,-304.37"/>
</a>
</g>
</g>
<!-- Node19&#45;&gt;Node8 -->
<g id="edge22_Node000019_Node000008" class="edge">
<title>Node19&#45;&gt;Node8</title>
<g id="a_edge22_Node000019_Node000008"><a xlink:title=" ">
<path fill="none" stroke="#63b8ff" d="M742.72,-283.97C670.25,-273.88 507.65,-251.25 431.58,-240.66"/>
<polygon fill="#63b8ff" stroke="#63b8ff" points="432.46,-237.25 422.07,-239.34 431.49,-244.19 432.46,-237.25"/>
</a>
</g>
</g>
<!-- Node21 -->
<g id="Node000021" class="node">
<title>Node21</title>
<g id="a_Node000021"><a xlink:href="../../de/dec/_singleton_8h.html" target="_top" xlink:title=" ">
<polygon fill="white" stroke="#666666" points="374.25,-356 309.5,-356 309.5,-336 374.25,-336 374.25,-356"/>
<text text-anchor="middle" x="341.88" y="-342.5" font-family="Helvetica,sans-Serif" font-size="10.00">Singleton.h</text>
</a>
</g>
</g>
<!-- Node20&#45;&gt;Node21 -->
<g id="edge25_Node000020_Node000021" class="edge">
<title>Node20&#45;&gt;Node21</title>
<g id="a_edge25_Node000020_Node000021"><a xlink:title=" ">
<path fill="none" stroke="#63b8ff" d="M425.28,-391.59C409.95,-383.4 387.46,-371.37 369.69,-361.87"/>
<polygon fill="#63b8ff" stroke="#63b8ff" points="371.41,-358.82 360.94,-357.19 368.11,-364.99 371.41,-358.82"/>
</a>
</g>
</g>
<!-- Node22 -->
<g id="Node000022" class="node">
<title>Node22</title>
<g id="a_Node000022"><a xlink:title=" ">
<polygon fill="#e0e0e0" stroke="#999999" points="435,-356 392.75,-356 392.75,-336 435,-336 435,-356"/>
<text text-anchor="middle" x="413.88" y="-342.5" font-family="Helvetica,sans-Serif" font-size="10.00">occi.h</text>
</a>
</g>
</g>
<!-- Node20&#45;&gt;Node22 -->
<g id="edge26_Node000020_Node000022" class="edge">
<title>Node20&#45;&gt;Node22</title>
<g id="a_edge26_Node000020_Node000022"><a xlink:title=" ">
<path fill="none" stroke="#63b8ff" d="M437.82,-391.59C434.08,-384.63 428.85,-374.89 424.23,-366.29"/>
<polygon fill="#63b8ff" stroke="#63b8ff" points="427.4,-364.79 419.58,-357.63 421.23,-368.1 427.4,-364.79"/>
</a>
</g>
</g>
<!-- Node20&#45;&gt;Node23 -->
<g id="edge27_Node000020_Node000023" class="edge">
<title>Node20&#45;&gt;Node23</title>
<g id="a_edge27_Node000020_Node000023"><a xlink:title=" ">
<path fill="none" stroke="#63b8ff" d="M463.43,-391.59C481.76,-383.21 508.86,-370.8 529.83,-361.21"/>
<polygon fill="#63b8ff" stroke="#63b8ff" points="531.15,-364.45 538.78,-357.11 528.23,-358.09 531.15,-364.45"/>
</a>
</g>
</g>
<!-- Node24 -->
<g id="Node000024" class="node">
<title>Node24</title>
<g id="a_Node000024"><a xlink:title=" ">
<polygon fill="#e0e0e0" stroke="#999999" points="578.25,-300 543.5,-300 543.5,-280 578.25,-280 578.25,-300"/>
<text text-anchor="middle" x="560.88" y="-286.5" font-family="Helvetica,sans-Serif" font-size="10.00">map</text>
</a>
</g>
</g>
<!-- Node23&#45;&gt;Node24 -->
<g id="edge28_Node000023_Node000024" class="edge">
<title>Node23&#45;&gt;Node24</title>
<g id="a_edge28_Node000023_Node000024"><a xlink:title=" ">
<path fill="none" stroke="#63b8ff" d="M560.88,-335.59C560.88,-329.01 560.88,-319.96 560.88,-311.73"/>
<polygon fill="#63b8ff" stroke="#63b8ff" points="564.38,-311.81 560.88,-301.81 557.38,-311.81 564.38,-311.81"/>
</a>
</g>
</g>
<!-- Node26 -->
<g id="Node000026" class="node">
<title>Node26</title>
<g id="a_Node000026"><a xlink:title=" ">
<polygon fill="#e0e0e0" stroke="#999999" points="313.62,-412 200.12,-412 200.12,-392 313.62,-392 313.62,-412"/>
<text text-anchor="middle" x="256.88" y="-398.5" font-family="Helvetica,sans-Serif" font-size="10.00">imgui_color_gradient.h</text>
</a>
</g>
</g>
<!-- Node25&#45;&gt;Node26 -->
<g id="edge30_Node000025_Node000026" class="edge">
<title>Node25&#45;&gt;Node26</title>
<g id="a_edge30_Node000025_Node000026"><a xlink:title=" ">
<path fill="none" stroke="#63b8ff" d="M256.88,-447.59C256.88,-441.01 256.88,-431.96 256.88,-423.73"/>
<polygon fill="#63b8ff" stroke="#63b8ff" points="260.38,-423.81 256.88,-413.81 253.38,-423.81 260.38,-423.81"/>
</a>
</g>
</g>
<!-- Node27 -->
<g id="Node000027" class="node">
<title>Node27</title>
<g id="a_Node000027"><a xlink:href="../../dc/d05/_point_cloud_8h.html" target="_top" xlink:title=" ">
<polygon fill="white" stroke="#666666" points="181.62,-412 110.12,-412 110.12,-392 181.62,-392 181.62,-412"/>
<text text-anchor="middle" x="145.88" y="-398.5" font-family="Helvetica,sans-Serif" font-size="10.00">PointCloud.h</text>
</a>
</g>
</g>
<!-- Node25&#45;&gt;Node27 -->
<g id="edge31_Node000025_Node000027" class="edge">
<title>Node25&#45;&gt;Node27</title>
<g id="a_edge31_Node000025_Node000027"><a xlink:title=" ">
<path fill="none" stroke="#63b8ff" d="M237.54,-447.59C220.46,-439.28 195.27,-427.03 175.62,-417.47"/>
<polygon fill="#63b8ff" stroke="#63b8ff" points="177.25,-414.37 166.72,-413.14 174.18,-420.66 177.25,-414.37"/>
</a>
</g>
</g>
<!-- Node28 -->
<g id="Node000028" class="node">
<title>Node28</title>
<g id="a_Node000028"><a xlink:title=" ">
<polygon fill="#e0e0e0" stroke="#999999" points="291.62,-356 202.12,-356 202.12,-336 291.62,-336 291.62,-356"/>
<text text-anchor="middle" x="246.88" y="-342.5" font-family="Helvetica,sans-Serif" font-size="10.00">pcl/point_cloud.h</text>
</a>
</g>
</g>
<!-- Node27&#45;&gt;Node28 -->
<g id="edge32_Node000027_Node000028" class="edge">
<title>Node27&#45;&gt;Node28</title>
<g id="a_edge32_Node000027_Node000028"><a xlink:title=" ">
<path fill="none" stroke="#63b8ff" d="M163.47,-391.59C178.8,-383.4 201.29,-371.37 219.06,-361.87"/>
<polygon fill="#63b8ff" stroke="#63b8ff" points="220.64,-364.99 227.81,-357.19 217.34,-358.82 220.64,-364.99"/>
</a>
</g>
</g>
<!-- Node29 -->
<g id="Node000029" class="node">
<title>Node29</title>
<g id="a_Node000029"><a xlink:href="../../d1/dfb/_lines_model_8h.html" target="_top" xlink:title=" ">
<polygon fill="white" stroke="#666666" points="183.75,-356 110,-356 110,-336 183.75,-336 183.75,-356"/>
<text text-anchor="middle" x="146.88" y="-342.5" font-family="Helvetica,sans-Serif" font-size="10.00">LinesModel.h</text>
</a>
</g>
</g>
<!-- Node27&#45;&gt;Node29 -->
<g id="edge33_Node000027_Node000029" class="edge">
<title>Node27&#45;&gt;Node29</title>
<g id="a_edge33_Node000027_Node000029"><a xlink:title=" ">
<path fill="none" stroke="#63b8ff" d="M146.05,-391.59C146.17,-385.01 146.34,-375.96 146.49,-367.73"/>
<polygon fill="#63b8ff" stroke="#63b8ff" points="149.99,-367.87 146.67,-357.81 142.99,-367.75 149.99,-367.87"/>
</a>
</g>
</g>
<!-- Node31 -->
<g id="Node000031" class="node">
<title>Node31</title>
<g id="a_Node000031"><a xlink:href="../../dd/db7/_g_p_u_resources_8h.html" target="_top" xlink:title=" ">
<polygon fill="white" stroke="#666666" points="91.75,-356 0,-356 0,-336 91.75,-336 91.75,-356"/>
<text text-anchor="middle" x="45.88" y="-342.5" font-family="Helvetica,sans-Serif" font-size="10.00">GPUResources.h</text>
</a>
</g>
</g>
<!-- Node27&#45;&gt;Node31 -->
<g id="edge37_Node000027_Node000031" class="edge">
<title>Node27&#45;&gt;Node31</title>
<g id="a_edge37_Node000027_Node000031"><a xlink:title=" ">
<path fill="none" stroke="#63b8ff" d="M128.46,-391.59C113.21,-383.36 90.8,-371.26 73.17,-361.74"/>
<polygon fill="#63b8ff" stroke="#63b8ff" points="75.22,-358.87 64.76,-357.2 71.9,-365.03 75.22,-358.87"/>
</a>
</g>
</g>
<!-- Node29&#45;&gt;Node7 -->
<g id="edge34_Node000029_Node000007" class="edge">
<title>Node29&#45;&gt;Node7</title>
<g id="a_edge34_Node000029_Node000007"><a xlink:title=" ">
<path fill="none" stroke="#63b8ff" d="M181.02,-335.59C213.28,-326.71 261.9,-313.31 297.43,-303.52"/>
<polygon fill="#63b8ff" stroke="#63b8ff" points="298.3,-306.91 307.01,-300.88 296.44,-300.16 298.3,-306.91"/>
</a>
</g>
</g>
<!-- Node30 -->
<g id="Node000030" class="node">
<title>Node30</title>
<g id="a_Node000030"><a xlink:href="../../d9/dd4/_v_a_o_8h.html" target="_top" xlink:title=" ">
<polygon fill="white" stroke="#666666" points="170.5,-244 125.25,-244 125.25,-224 170.5,-224 170.5,-244"/>
<text text-anchor="middle" x="147.88" y="-230.5" font-family="Helvetica,sans-Serif" font-size="10.00">VAO.h</text>
</a>
</g>
</g>
<!-- Node29&#45;&gt;Node30 -->
<g id="edge35_Node000029_Node000030" class="edge">
<title>Node29&#45;&gt;Node30</title>
<g id="a_edge35_Node000029_Node000030"><a xlink:title=" ">
<path fill="none" stroke="#63b8ff" d="M146.96,-335.62C147.12,-318.01 147.47,-279.59 147.69,-255.65"/>
<polygon fill="#63b8ff" stroke="#63b8ff" points="151.19,-255.9 147.78,-245.87 144.19,-255.84 151.19,-255.9"/>
</a>
</g>
</g>
<!-- Node30&#45;&gt;Node12 -->
<g id="edge36_Node000030_Node000012" class="edge">
<title>Node30&#45;&gt;Node12</title>
<g id="a_edge36_Node000030_Node000012"><a xlink:title=" ">
<path fill="none" stroke="#63b8ff" d="M146.43,-223.56C143.58,-201.37 139.69,-145.26 166.88,-112 183.28,-91.93 209.57,-80.81 233.46,-74.65"/>
<polygon fill="#63b8ff" stroke="#63b8ff" points="234.15,-78.08 243.1,-72.42 232.57,-71.26 234.15,-78.08"/>
</a>
</g>
</g>
<!-- Node31&#45;&gt;Node13 -->
<g id="edge39_Node000031_Node000013" class="edge">
<title>Node31&#45;&gt;Node13</title>
<g id="a_edge39_Node000031_Node000013"><a xlink:title=" ">
<path fill="none" stroke="#63b8ff" d="M45.88,-335.58C45.88,-316.57 45.88,-272.24 45.88,-235 45.88,-235 45.88,-235 45.88,-121 45.88,-86.09 67.28,-50.24 82.36,-29.32"/>
<polygon fill="#63b8ff" stroke="#63b8ff" points="85,-31.63 88.22,-21.53 79.41,-27.42 85,-31.63"/>
</a>
</g>
</g>
<!-- Node32 -->
<g id="Node000032" class="node">
<title>Node32</title>
<g id="a_Node000032"><a xlink:title=" ">
<polygon fill="#e0e0e0" stroke="#999999" points="119.5,-300 74.25,-300 74.25,-280 119.5,-280 119.5,-300"/>
<text text-anchor="middle" x="96.88" y="-286.5" font-family="Helvetica,sans-Serif" font-size="10.00">cstdint</text>
</a>
</g>
</g>
<!-- Node31&#45;&gt;Node32 -->
<g id="edge38_Node000031_Node000032" class="edge">
<title>Node31&#45;&gt;Node32</title>
<g id="a_edge38_Node000031_Node000032"><a xlink:title=" ">
<path fill="none" stroke="#63b8ff" d="M54.76,-335.59C61.78,-328.16 71.78,-317.58 80.27,-308.58"/>
<polygon fill="#63b8ff" stroke="#63b8ff" points="82.73,-311.07 87.05,-301.4 77.64,-306.27 82.73,-311.07"/>
</a>
</g>
</g>
<!-- Node33&#45;&gt;Node21 -->
<g id="edge41_Node000033_Node000021" class="edge">
<title>Node33&#45;&gt;Node21</title>
<g id="a_edge41_Node000033_Node000021"><a xlink:title=" ">
<path fill="none" stroke="#63b8ff" d="M397.31,-447.61C385.83,-439.49 370.25,-426.75 360.88,-412 352.18,-398.33 347.34,-380.54 344.73,-367.03"/>
<polygon fill="#63b8ff" stroke="#63b8ff" points="348.25,-366.84 343.15,-357.56 341.34,-367.99 348.25,-366.84"/>
</a>
</g>
</g>
</g>
</svg>
