<?xml version="1.0" encoding="UTF-8" standalone="no"?>
<!DOCTYPE svg PUBLIC "-//W3C//DTD SVG 1.1//EN"
 "http://www.w3.org/Graphics/SVG/1.1/DTD/svg11.dtd">
<!-- Generated by graphviz version 10.0.1 (20240210.2158)
 -->
<!-- Title: GEU::PointCloud::Meshlet Pages: 1 -->
<svg width="2085pt" height="815pt"
 viewBox="0.00 0.00 2084.75 815.00" xmlns="http://www.w3.org/2000/svg" xmlns:xlink="http://www.w3.org/1999/xlink">
<g id="graph0" class="graph" transform="scale(1 1) rotate(0) translate(4 811)">
<title>GEU::PointCloud::Meshlet</title>
<!-- Node1 -->
<g id="Node000001" class="node">
<title>Node1</title>
<g id="a_Node000001"><a xlink:title=" ">
<polygon fill="#999999" stroke="#666666" points="1195.25,-779 1064.5,-779 1064.5,-759 1195.25,-759 1195.25,-779"/>
<text text-anchor="middle" x="1129.88" y="-765.5" font-family="Helvetica,sans-Serif" font-size="10.00">GEU::PointCloud::Meshlet</text>
</a>
</g>
</g>
<!-- Node24 -->
<g id="Node000024" class="node">
<title>Node24</title>
<g id="a_Node000024"><a xlink:title=" ">
<polygon fill="white" stroke="#666666" points="1473.75,-804 1329.5,-804 1329.5,-772 1473.75,-772 1473.75,-804"/>
<text text-anchor="start" x="1337.5" y="-790.5" font-family="Helvetica,sans-Serif" font-size="10.00">std::vector&lt; GEU::PointCloud</text>
<text text-anchor="middle" x="1401.62" y="-778.5" font-family="Helvetica,sans-Serif" font-size="10.00">::Meshlet &gt;</text>
</a>
</g>
</g>
<!-- Node1&#45;&gt;Node24 -->
<g id="edge33_Node000024_Node000001" class="edge">
<title>Node1&#45;&gt;Node24</title>
<g id="a_edge33_Node000024_Node000001"><a xlink:title=" ">
<path fill="none" stroke="#9a32cd" stroke-dasharray="5,2" d="M1206.63,-774.34C1245.12,-777.05 1291.61,-780.32 1329.43,-782.99"/>
<polygon fill="#9a32cd" stroke="#9a32cd" points="1207.22,-770.87 1197,-773.66 1206.73,-777.85 1207.22,-770.87"/>
</a>
</g>
<text text-anchor="middle" x="1254.88" y="-782.5" font-family="Helvetica,sans-Serif" font-size="10.00" fill="grey"> elements</text>
</g>
<!-- Node2 -->
<g id="Node000002" class="node">
<title>Node2</title>
<g id="a_Node000002"><a xlink:href="../../dc/d47/class_a_a_b_b.html" target="_top" xlink:title=" ">
<polygon fill="white" stroke="#666666" points="896.5,-743 853.5,-743 853.5,-723 896.5,-723 896.5,-743"/>
<text text-anchor="middle" x="875" y="-729.5" font-family="Helvetica,sans-Serif" font-size="10.00">AABB</text>
</a>
</g>
</g>
<!-- Node2&#45;&gt;Node1 -->
<g id="edge1_Node000001_Node000002" class="edge">
<title>Node2&#45;&gt;Node1</title>
<g id="a_edge1_Node000001_Node000002"><a xlink:title=" ">
<path fill="none" stroke="#9a32cd" stroke-dasharray="5,2" d="M907.86,-737.54C946.93,-743.1 1014.1,-752.66 1064.16,-759.79"/>
<polygon fill="#9a32cd" stroke="#9a32cd" points="908.59,-734.1 898.19,-736.16 907.6,-741.03 908.59,-734.1"/>
</a>
</g>
<text text-anchor="middle" x="1003.38" y="-758.5" font-family="Helvetica,sans-Serif" font-size="10.00" fill="grey"> aabb</text>
</g>
<!-- Node4 -->
<g id="Node000004" class="node">
<title>Node4</title>
<g id="a_Node000004"><a xlink:href="../../db/d6c/class_g_e_u_1_1_model3_d.html" target="_top" xlink:title=" ">
<polygon fill="white" stroke="#666666" points="1442.25,-668 1361,-668 1361,-648 1442.25,-648 1442.25,-668"/>
<text text-anchor="middle" x="1401.62" y="-654.5" font-family="Helvetica,sans-Serif" font-size="10.00">GEU::Model3D</text>
</a>
</g>
</g>
<!-- Node2&#45;&gt;Node4 -->
<g id="edge6_Node000004_Node000002" class="edge">
<title>Node2&#45;&gt;Node4</title>
<g id="a_edge6_Node000004_Node000002"><a xlink:title=" ">
<path fill="none" stroke="#9a32cd" stroke-dasharray="5,2" d="M907.89,-730.89C978.41,-725.9 1152.75,-711.71 1296.5,-685 1319.63,-680.7 1345.22,-674.09 1365.24,-668.49"/>
<polygon fill="#9a32cd" stroke="#9a32cd" points="907.96,-727.38 898.23,-731.56 908.45,-734.36 907.96,-727.38"/>
</a>
</g>
<text text-anchor="middle" x="1129.88" y="-718.5" font-family="Helvetica,sans-Serif" font-size="10.00" fill="grey"> _aabb</text>
</g>
<!-- Node3 -->
<g id="Node000003" class="node">
<title>Node3</title>
<g id="a_Node000003"><a xlink:href="../../d4/dbf/class_g_e_u_1_1_point_cloud.html" target="_top" xlink:title=" ">
<polygon fill="white" stroke="#666666" points="1703.5,-231 1613.25,-231 1613.25,-211 1703.5,-211 1703.5,-231"/>
<text text-anchor="middle" x="1658.38" y="-217.5" font-family="Helvetica,sans-Serif" font-size="10.00">GEU::PointCloud</text>
</a>
</g>
</g>
<!-- Node3&#45;&gt;Node1 -->
<g id="edge2_Node000001_Node000003" class="edge">
<title>Node3&#45;&gt;Node1</title>
<g id="a_edge2_Node000001_Node000003"><a xlink:title=" ">
<path fill="none" stroke="#9a32cd" stroke-dasharray="5,2" d="M1656.39,-242.64C1651.8,-316.11 1626.41,-558.03 1488.75,-677 1445.13,-714.7 1286.33,-744.82 1195.6,-759.41"/>
<polygon fill="#9a32cd" stroke="#9a32cd" points="1659.87,-242.98 1656.92,-232.8 1652.88,-242.59 1659.87,-242.98"/>
</a>
</g>
<text text-anchor="middle" x="1401.62" y="-738.5" font-family="Helvetica,sans-Serif" font-size="10.00" fill="grey"> parent</text>
</g>
<!-- Node31 -->
<g id="Node000031" class="node">
<title>Node31</title>
<g id="a_Node000031"><a xlink:title=" ">
<polygon fill="white" stroke="#666666" points="1864.25,-211 1753.75,-211 1753.75,-179 1864.25,-179 1864.25,-211"/>
<text text-anchor="start" x="1761.75" y="-197.5" font-family="Helvetica,sans-Serif" font-size="10.00">std::unique_ptr&lt; GEU</text>
<text text-anchor="middle" x="1809" y="-185.5" font-family="Helvetica,sans-Serif" font-size="10.00">::PointCloud &gt;</text>
</a>
</g>
</g>
<!-- Node3&#45;&gt;Node31 -->
<g id="edge41_Node000031_Node000003" class="edge">
<title>Node3&#45;&gt;Node31</title>
<g id="a_edge41_Node000031_Node000003"><a xlink:title=" ">
<path fill="none" stroke="#9a32cd" stroke-dasharray="5,2" d="M1715.21,-211.23C1727.72,-209.04 1740.99,-206.72 1753.45,-204.54"/>
<polygon fill="#9a32cd" stroke="#9a32cd" points="1714.71,-207.77 1705.46,-212.94 1715.91,-214.66 1714.71,-207.77"/>
</a>
</g>
<text text-anchor="middle" x="1728.62" y="-212.5" font-family="Helvetica,sans-Serif" font-size="10.00" fill="grey"> ptr</text>
</g>
<!-- Node4&#45;&gt;Node3 -->
<g id="edge3_Node000003_Node000004" class="edge">
<title>Node4&#45;&gt;Node3</title>
<g id="a_edge3_Node000003_Node000004"><a xlink:title=" ">
<path fill="none" stroke="#63b8ff" d="M1414.43,-637.75C1459.26,-560.85 1618.09,-288.38 1651.27,-231.47"/>
<polygon fill="#63b8ff" stroke="#63b8ff" points="1411.45,-635.92 1409.43,-646.32 1417.49,-639.44 1411.45,-635.92"/>
</a>
</g>
</g>
<!-- Node5 -->
<g id="Node000005" class="node">
<title>Node5</title>
<g id="a_Node000005"><a xlink:title=" ">
<polygon fill="white" stroke="#666666" points="190.5,-568 131,-568 131,-548 190.5,-548 190.5,-568"/>
<text text-anchor="middle" x="160.75" y="-554.5" font-family="Helvetica,sans-Serif" font-size="10.00">std::string</text>
</a>
</g>
</g>
<!-- Node5&#45;&gt;Node3 -->
<g id="edge26_Node000003_Node000005" class="edge">
<title>Node5&#45;&gt;Node3</title>
<g id="a_edge26_Node000003_Node000005"><a xlink:title=" ">
<path fill="none" stroke="#9a32cd" stroke-dasharray="5,2" d="M164.06,-536.38C169.65,-487.51 185.16,-370.34 208.5,-339 244.44,-290.75 267.08,-274 327.25,-274 327.25,-274 327.25,-274 1402.62,-274 1489.14,-274 1511.72,-268.53 1595.25,-246 1608.83,-242.34 1623.45,-236.55 1635.1,-231.47"/>
<polygon fill="#9a32cd" stroke="#9a32cd" points="160.59,-535.91 162.97,-546.23 167.55,-536.68 160.59,-535.91"/>
</a>
</g>
<text text-anchor="middle" x="875" y="-288.5" font-family="Helvetica,sans-Serif" font-size="10.00" fill="grey"> _prevViewMode</text>
<text text-anchor="middle" x="875" y="-276.5" font-family="Helvetica,sans-Serif" font-size="10.00" fill="grey">_viewMode</text>
</g>
<!-- Node5&#45;&gt;Node4 -->
<g id="edge4_Node000004_Node000005" class="edge">
<title>Node5&#45;&gt;Node4</title>
<g id="a_edge4_Node000004_Node000005"><a xlink:title=" ">
<path fill="none" stroke="#9a32cd" stroke-dasharray="5,2" d="M166.38,-579.19C172.51,-602.99 185.35,-641.6 208.5,-667 229.2,-689.71 239.47,-692.43 269.25,-700 482.02,-754.06 1184.86,-681.8 1360.55,-662.51"/>
<polygon fill="#9a32cd" stroke="#9a32cd" points="169.85,-578.63 164.12,-569.71 163.04,-580.25 169.85,-578.63"/>
</a>
</g>
<text text-anchor="middle" x="737.25" y="-718.5" font-family="Helvetica,sans-Serif" font-size="10.00" fill="grey"> _name</text>
</g>
<!-- Node7 -->
<g id="Node000007" class="node">
<title>Node7</title>
<g id="a_Node000007"><a xlink:href="../../d5/def/class_g_e_u_1_1_material.html" target="_top" xlink:title=" ">
<polygon fill="white" stroke="#666666" points="1168.62,-608 1091.12,-608 1091.12,-588 1168.62,-588 1168.62,-608"/>
<text text-anchor="middle" x="1129.88" y="-594.5" font-family="Helvetica,sans-Serif" font-size="10.00">GEU::Material</text>
</a>
</g>
</g>
<!-- Node5&#45;&gt;Node7 -->
<g id="edge8_Node000007_Node000005" class="edge">
<title>Node5&#45;&gt;Node7</title>
<g id="a_edge8_Node000007_Node000005"><a xlink:title=" ">
<path fill="none" stroke="#9a32cd" stroke-dasharray="5,2" d="M201.92,-558C235.44,-558 284.46,-558 327.25,-558 327.25,-558 327.25,-558 876,-558 953.12,-558 1041.86,-576.37 1091.04,-588.21"/>
<polygon fill="#9a32cd" stroke="#9a32cd" points="202.26,-554.5 192.26,-558 202.26,-561.5 202.26,-554.5"/>
</a>
</g>
<text text-anchor="middle" x="606.25" y="-560.5" font-family="Helvetica,sans-Serif" font-size="10.00" fill="grey"> _name</text>
</g>
<!-- Node9 -->
<g id="Node000009" class="node">
<title>Node9</title>
<g id="a_Node000009"><a xlink:href="../../da/db2/class_g_e_u_1_1_shader_program.html" target="_top" xlink:title=" ">
<polygon fill="white" stroke="#666666" points="661.5,-470 551,-470 551,-450 661.5,-450 661.5,-470"/>
<text text-anchor="middle" x="606.25" y="-456.5" font-family="Helvetica,sans-Serif" font-size="10.00">GEU::ShaderProgram</text>
</a>
</g>
</g>
<!-- Node5&#45;&gt;Node9 -->
<g id="edge11_Node000009_Node000005" class="edge">
<title>Node5&#45;&gt;Node9</title>
<g id="a_edge11_Node000009_Node000005"><a xlink:title=" ">
<path fill="none" stroke="#9a32cd" stroke-dasharray="5,2" d="M164.21,-536.28C170.94,-488.49 194.45,-374.8 269.25,-329 313.98,-301.62 336.59,-315.44 387.25,-329 456.88,-347.63 476.7,-359.11 527.75,-410 539.03,-421.25 533.33,-431.02 545.75,-441 550.06,-444.46 555.02,-447.3 560.19,-449.63"/>
<polygon fill="#9a32cd" stroke="#9a32cd" points="160.74,-535.8 162.95,-546.16 167.69,-536.69 160.74,-535.8"/>
</a>
</g>
<text text-anchor="middle" x="328.25" y="-379.5" font-family="Helvetica,sans-Serif" font-size="10.00" fill="grey"> MODULE_FILE_CHAR_1</text>
<text text-anchor="middle" x="328.25" y="-367.5" font-family="Helvetica,sans-Serif" font-size="10.00" fill="grey">MODULE_FILE_CHAR_2</text>
<text text-anchor="middle" x="328.25" y="-355.5" font-family="Helvetica,sans-Serif" font-size="10.00" fill="grey">MODULE_HEADER</text>
<text text-anchor="middle" x="328.25" y="-343.5" font-family="Helvetica,sans-Serif" font-size="10.00" fill="grey">_logString</text>
<text text-anchor="middle" x="328.25" y="-331.5" font-family="Helvetica,sans-Serif" font-size="10.00" fill="grey">shaderPath</text>
</g>
<!-- Node10 -->
<g id="Node000010" class="node">
<title>Node10</title>
<g id="a_Node000010"><a xlink:title=" ">
<polygon fill="white" stroke="#666666" points="379.38,-530 277.12,-530 277.12,-486 379.38,-486 379.38,-530"/>
<text text-anchor="start" x="285.12" y="-516.5" font-family="Helvetica,sans-Serif" font-size="10.00">std::unordered_map</text>
<text text-anchor="start" x="285.12" y="-504.5" font-family="Helvetica,sans-Serif" font-size="10.00">&lt; std::string, std::</text>
<text text-anchor="middle" x="328.25" y="-492.5" font-family="Helvetica,sans-Serif" font-size="10.00">string &gt;</text>
</a>
</g>
</g>
<!-- Node5&#45;&gt;Node10 -->
<g id="edge13_Node000010_Node000005" class="edge">
<title>Node5&#45;&gt;Node10</title>
<g id="a_edge13_Node000010_Node000005"><a xlink:title=" ">
<path fill="none" stroke="#9a32cd" stroke-dasharray="5,2" d="M179.23,-539.68C187.39,-532.29 197.68,-524.47 208.5,-520 229.86,-511.18 255.13,-507.77 276.87,-506.72"/>
<polygon fill="#9a32cd" stroke="#9a32cd" points="176.85,-537.11 172.1,-546.58 181.72,-542.14 176.85,-537.11"/>
</a>
</g>
<text text-anchor="middle" x="229.88" y="-534.5" font-family="Helvetica,sans-Serif" font-size="10.00" fill="grey"> elements</text>
<text text-anchor="middle" x="229.88" y="-522.5" font-family="Helvetica,sans-Serif" font-size="10.00" fill="grey">keys</text>
</g>
<!-- Node12 -->
<g id="Node000012" class="node">
<title>Node12</title>
<g id="a_Node000012"><a xlink:title=" ">
<polygon fill="white" stroke="#666666" points="381.62,-430 274.88,-430 274.88,-398 381.62,-398 381.62,-430"/>
<text text-anchor="start" x="282.88" y="-416.5" font-family="Helvetica,sans-Serif" font-size="10.00">std::unordered_map</text>
<text text-anchor="middle" x="328.25" y="-404.5" font-family="Helvetica,sans-Serif" font-size="10.00">&lt; std::string, GLint &gt;</text>
</a>
</g>
</g>
<!-- Node5&#45;&gt;Node12 -->
<g id="edge16_Node000012_Node000005" class="edge">
<title>Node5&#45;&gt;Node12</title>
<g id="a_edge16_Node000012_Node000005"><a xlink:title=" ">
<path fill="none" stroke="#9a32cd" stroke-dasharray="5,2" d="M174.74,-538.08C183.62,-525.03 196.01,-507.88 208.5,-494 232.87,-466.93 238.61,-458.7 269.25,-439 274.05,-435.92 279.29,-433.05 284.59,-430.45"/>
<polygon fill="#9a32cd" stroke="#9a32cd" points="171.91,-536.01 169.27,-546.27 177.73,-539.9 171.91,-536.01"/>
</a>
</g>
<text text-anchor="middle" x="229.88" y="-496.5" font-family="Helvetica,sans-Serif" font-size="10.00" fill="grey"> keys</text>
</g>
<!-- Node14 -->
<g id="Node000014" class="node">
<title>Node14</title>
<g id="a_Node000014"><a xlink:href="../../dc/d36/class_g_e_u_1_1_texture.html" target="_top" xlink:title=" ">
<polygon fill="white" stroke="#666666" points="643.88,-654 568.62,-654 568.62,-634 643.88,-634 643.88,-654"/>
<text text-anchor="middle" x="606.25" y="-640.5" font-family="Helvetica,sans-Serif" font-size="10.00">GEU::Texture</text>
</a>
</g>
</g>
<!-- Node5&#45;&gt;Node14 -->
<g id="edge19_Node000014_Node000005" class="edge">
<title>Node5&#45;&gt;Node14</title>
<g id="a_edge19_Node000014_Node000005"><a xlink:title=" ">
<path fill="none" stroke="#9a32cd" stroke-dasharray="5,2" d="M168.25,-579.08C175.25,-598.49 188.21,-626.81 208.5,-644 230.3,-662.47 241.08,-660.27 269.25,-665 376.75,-683.06 505.95,-663.66 568.17,-651.8"/>
<polygon fill="#9a32cd" stroke="#9a32cd" points="171.62,-578.13 165.13,-569.76 164.98,-580.35 171.62,-578.13"/>
</a>
</g>
<text text-anchor="middle" x="328.25" y="-686.5" font-family="Helvetica,sans-Serif" font-size="10.00" fill="grey"> TEXTURE_LAYER_IDS</text>
<text text-anchor="middle" x="328.25" y="-674.5" font-family="Helvetica,sans-Serif" font-size="10.00" fill="grey">_filename</text>
</g>
<!-- Node15 -->
<g id="Node000015" class="node">
<title>Node15</title>
<g id="a_Node000015"><a xlink:title=" ">
<polygon fill="white" stroke="#666666" points="387.25,-656 269.25,-656 269.25,-624 387.25,-624 387.25,-656"/>
<text text-anchor="start" x="277.25" y="-642.5" font-family="Helvetica,sans-Serif" font-size="10.00">std::unordered_map</text>
<text text-anchor="middle" x="328.25" y="-630.5" font-family="Helvetica,sans-Serif" font-size="10.00">&lt; uint16_t, std::string &gt;</text>
</a>
</g>
</g>
<!-- Node5&#45;&gt;Node15 -->
<g id="edge21_Node000015_Node000005" class="edge">
<title>Node5&#45;&gt;Node15</title>
<g id="a_edge21_Node000015_Node000005"><a xlink:title=" ">
<path fill="none" stroke="#9a32cd" stroke-dasharray="5,2" d="M174.27,-577.9C182.6,-589.54 194.55,-603.56 208.5,-612 226.62,-622.97 248.7,-629.64 268.89,-633.7"/>
<polygon fill="#9a32cd" stroke="#9a32cd" points="177.26,-576.08 168.77,-569.75 171.46,-580 177.26,-576.08"/>
</a>
</g>
<text text-anchor="middle" x="229.88" y="-630.5" font-family="Helvetica,sans-Serif" font-size="10.00" fill="grey"> elements</text>
</g>
<!-- Node16 -->
<g id="Node000016" class="node">
<title>Node16</title>
<g id="a_Node000016"><a xlink:title=" ">
<polygon fill="white" stroke="#666666" points="527.75,-607 405.25,-607 405.25,-587 527.75,-587 527.75,-607"/>
<text text-anchor="middle" x="466.5" y="-593.5" font-family="Helvetica,sans-Serif" font-size="10.00">std::vector&lt; std::string &gt;</text>
</a>
</g>
</g>
<!-- Node5&#45;&gt;Node16 -->
<g id="edge23_Node000016_Node000005" class="edge">
<title>Node5&#45;&gt;Node16</title>
<g id="a_edge23_Node000016_Node000005"><a xlink:title=" ">
<path fill="none" stroke="#9a32cd" stroke-dasharray="5,2" d="M201.95,-570.58C204.15,-571.1 206.35,-571.58 208.5,-572 274.92,-585.05 352.4,-591.4 404.78,-594.42"/>
<polygon fill="#9a32cd" stroke="#9a32cd" points="202.98,-567.23 192.42,-568.08 201.21,-574 202.98,-567.23"/>
</a>
</g>
<text text-anchor="middle" x="229.88" y="-580.5" font-family="Helvetica,sans-Serif" font-size="10.00" fill="grey"> elements</text>
</g>
<!-- Node6 -->
<g id="Node000006" class="node">
<title>Node6</title>
<g id="a_Node000006"><a xlink:title=" ">
<polygon fill="white" stroke="#666666" points="94,-574 0,-574 0,-542 94,-542 94,-574"/>
<text text-anchor="start" x="8" y="-560.5" font-family="Helvetica,sans-Serif" font-size="10.00">std::basic_string&lt;</text>
<text text-anchor="middle" x="47" y="-548.5" font-family="Helvetica,sans-Serif" font-size="10.00"> Char &gt;</text>
</a>
</g>
</g>
<!-- Node6&#45;&gt;Node5 -->
<g id="edge5_Node000005_Node000006" class="edge">
<title>Node6&#45;&gt;Node5</title>
<g id="a_edge5_Node000005_Node000006"><a xlink:title=" ">
<path fill="none" stroke="#63b8ff" d="M105.71,-558C114.32,-558 122.87,-558 130.55,-558"/>
<polygon fill="#63b8ff" stroke="#63b8ff" points="105.93,-554.5 95.93,-558 105.93,-561.5 105.93,-554.5"/>
</a>
</g>
</g>
<!-- Node7&#45;&gt;Node4 -->
<g id="edge7_Node000004_Node000007" class="edge">
<title>Node7&#45;&gt;Node4</title>
<g id="a_edge7_Node000004_Node000007"><a xlink:title=" ">
<path fill="none" stroke="#9a32cd" stroke-dasharray="5,2" d="M1180.19,-608.97C1232,-620.49 1312.5,-638.4 1360.54,-649.08"/>
<polygon fill="#9a32cd" stroke="#9a32cd" points="1180.95,-605.55 1170.43,-606.8 1179.43,-612.39 1180.95,-605.55"/>
</a>
</g>
<text text-anchor="middle" x="1254.88" y="-635.5" font-family="Helvetica,sans-Serif" font-size="10.00" fill="grey"> _material</text>
</g>
<!-- Node8 -->
<g id="Node000008" class="node">
<title>Node8</title>
<g id="a_Node000008"><a xlink:href="../../d0/def/class_g_e_u_1_1_rendering_shader.html" target="_top" xlink:title=" ">
<polygon fill="white" stroke="#666666" points="933.62,-470 816.38,-470 816.38,-450 933.62,-450 933.62,-470"/>
<text text-anchor="middle" x="875" y="-456.5" font-family="Helvetica,sans-Serif" font-size="10.00">GEU::RenderingShader</text>
</a>
</g>
</g>
<!-- Node8&#45;&gt;Node7 -->
<g id="edge9_Node000007_Node000008" class="edge">
<title>Node8&#45;&gt;Node7</title>
<g id="a_edge9_Node000007_Node000008"><a xlink:title=" ">
<path fill="none" stroke="#9a32cd" stroke-dasharray="5,2" d="M918.2,-474.12C953.69,-486.85 1005.1,-507.32 1046.5,-532 1074.2,-548.51 1102.75,-573.52 1117.89,-587.53"/>
<polygon fill="#9a32cd" stroke="#9a32cd" points="919.75,-470.96 909.16,-470.93 917.42,-477.56 919.75,-470.96"/>
</a>
</g>
<text text-anchor="middle" x="1003.38" y="-534.5" font-family="Helvetica,sans-Serif" font-size="10.00" fill="grey"> _associatedShader</text>
</g>
<!-- Node9&#45;&gt;Node8 -->
<g id="edge10_Node000008_Node000009" class="edge">
<title>Node9&#45;&gt;Node8</title>
<g id="a_edge10_Node000008_Node000009"><a xlink:title=" ">
<path fill="none" stroke="#63b8ff" d="M673.3,-460C717.15,-460 774.17,-460 816.22,-460"/>
<polygon fill="#63b8ff" stroke="#63b8ff" points="673.39,-456.5 663.39,-460 673.39,-463.5 673.39,-456.5"/>
</a>
</g>
</g>
<!-- Node10&#45;&gt;Node9 -->
<g id="edge12_Node000009_Node000010" class="edge">
<title>Node10&#45;&gt;Node9</title>
<g id="a_edge12_Node000009_Node000010"><a xlink:title=" ">
<path fill="none" stroke="#9a32cd" stroke-dasharray="5,2" d="M390.77,-498.79C430.03,-492.74 481.97,-484.41 527.75,-476 536.94,-474.31 546.71,-472.39 556.12,-470.48"/>
<polygon fill="#9a32cd" stroke="#9a32cd" points="390.38,-495.31 381.02,-500.29 391.44,-502.23 390.38,-495.31"/>
</a>
</g>
<text text-anchor="middle" x="466.5" y="-498.5" font-family="Helvetica,sans-Serif" font-size="10.00" fill="grey"> _moduleCode</text>
</g>
<!-- Node11 -->
<g id="Node000011" class="node">
<title>Node11</title>
<g id="a_Node000011"><a xlink:title=" ">
<polygon fill="white" stroke="#666666" points="382,-468 274.5,-468 274.5,-448 382,-448 382,-468"/>
<text text-anchor="middle" x="328.25" y="-454.5" font-family="Helvetica,sans-Serif" font-size="10.00">std::vector&lt; GLuint &gt;</text>
</a>
</g>
</g>
<!-- Node11&#45;&gt;Node9 -->
<g id="edge14_Node000009_Node000011" class="edge">
<title>Node11&#45;&gt;Node9</title>
<g id="a_edge14_Node000009_Node000011"><a xlink:title=" ">
<path fill="none" stroke="#9a32cd" stroke-dasharray="5,2" d="M393.9,-458.47C441.57,-458.81 505.71,-459.28 550.78,-459.61"/>
<polygon fill="#9a32cd" stroke="#9a32cd" points="394,-454.97 383.98,-458.4 393.95,-461.97 394,-454.97"/>
</a>
</g>
<text text-anchor="middle" x="466.5" y="-462.5" font-family="Helvetica,sans-Serif" font-size="10.00" fill="grey"> _activeSubroutineUniform</text>
</g>
<!-- Node12&#45;&gt;Node9 -->
<g id="edge15_Node000009_Node000012" class="edge">
<title>Node12&#45;&gt;Node9</title>
<g id="a_edge15_Node000009_Node000012"><a xlink:title=" ">
<path fill="none" stroke="#9a32cd" stroke-dasharray="5,2" d="M393.14,-412.72C432.69,-413.57 484.09,-417.67 527.75,-431 536.5,-433.67 537.35,-437.37 545.75,-441 553.02,-444.14 560.98,-447.04 568.64,-449.57"/>
<polygon fill="#9a32cd" stroke="#9a32cd" points="393.35,-409.22 383.3,-412.58 393.25,-416.22 393.35,-409.22"/>
</a>
</g>
<text text-anchor="middle" x="466.5" y="-445.5" font-family="Helvetica,sans-Serif" font-size="10.00" fill="grey"> subroutineLocation</text>
<text text-anchor="middle" x="466.5" y="-433.5" font-family="Helvetica,sans-Serif" font-size="10.00" fill="grey">uniformLocation</text>
</g>
<!-- Node13 -->
<g id="Node000013" class="node">
<title>Node13</title>
<g id="a_Node000013"><a xlink:title=" ">
<polygon fill="white" stroke="#666666" points="654.75,-432 557.75,-432 557.75,-412 654.75,-412 654.75,-432"/>
<text text-anchor="middle" x="606.25" y="-418.5" font-family="Helvetica,sans-Serif" font-size="10.00">std::vector&lt; bool &gt;</text>
</a>
</g>
</g>
<!-- Node13&#45;&gt;Node8 -->
<g id="edge17_Node000008_Node000013" class="edge">
<title>Node13&#45;&gt;Node8</title>
<g id="a_edge17_Node000008_Node000013"><a xlink:title=" ">
<path fill="none" stroke="#9a32cd" stroke-dasharray="5,2" d="M666.25,-428.09C702.05,-432.04 748.63,-437.62 789.75,-444 800.2,-445.62 811.33,-447.57 821.96,-449.55"/>
<polygon fill="#9a32cd" stroke="#9a32cd" points="666.84,-424.63 656.52,-427.03 666.09,-431.59 666.84,-424.63"/>
</a>
</g>
<text text-anchor="middle" x="737.25" y="-446.5" font-family="Helvetica,sans-Serif" font-size="10.00" fill="grey"> _implementsSubroutine</text>
</g>
<!-- Node14&#45;&gt;Node7 -->
<g id="edge18_Node000007_Node000014" class="edge">
<title>Node14&#45;&gt;Node7</title>
<g id="a_edge18_Node000007_Node000014"><a xlink:title=" ">
<path fill="none" stroke="#9a32cd" stroke-dasharray="5,2" d="M655.4,-642C736.38,-638.3 904.88,-629.15 1046.5,-612 1061.05,-610.24 1076.94,-607.69 1090.85,-605.24"/>
<polygon fill="#9a32cd" stroke="#9a32cd" points="655.44,-638.5 645.61,-642.44 655.76,-645.49 655.44,-638.5"/>
</a>
</g>
<text text-anchor="middle" x="875" y="-635.5" font-family="Helvetica,sans-Serif" font-size="10.00" fill="grey"> _texture</text>
</g>
<!-- Node15&#45;&gt;Node14 -->
<g id="edge20_Node000014_Node000015" class="edge">
<title>Node15&#45;&gt;Node14</title>
<g id="a_edge20_Node000014_Node000015"><a xlink:title=" ">
<path fill="none" stroke="#9a32cd" stroke-dasharray="5,2" d="M398.63,-641.01C452.48,-641.79 525.01,-642.84 568.27,-643.46"/>
<polygon fill="#9a32cd" stroke="#9a32cd" points="399.01,-637.51 388.96,-640.87 398.91,-644.51 399.01,-637.51"/>
</a>
</g>
<text text-anchor="middle" x="466.5" y="-644.5" font-family="Helvetica,sans-Serif" font-size="10.00" fill="grey"> SHADER_VARIABLE</text>
</g>
<!-- Node16&#45;&gt;Node7 -->
<g id="edge22_Node000007_Node000016" class="edge">
<title>Node16&#45;&gt;Node7</title>
<g id="a_edge22_Node000007_Node000016"><a xlink:title=" ">
<path fill="none" stroke="#9a32cd" stroke-dasharray="5,2" d="M539.65,-597.11C679.61,-597.32 983.62,-597.78 1090.66,-597.94"/>
<polygon fill="#9a32cd" stroke="#9a32cd" points="539.76,-593.61 529.75,-597.09 539.75,-600.61 539.76,-593.61"/>
</a>
</g>
<text text-anchor="middle" x="737.25" y="-599.5" font-family="Helvetica,sans-Serif" font-size="10.00" fill="grey"> _enabledSubroutines</text>
</g>
<!-- Node17 -->
<g id="Node000017" class="node">
<title>Node17</title>
<g id="a_Node000017"><a xlink:title=" ">
<polygon fill="white" stroke="#666666" points="1441.88,-246 1361.38,-246 1361.38,-226 1441.88,-226 1441.88,-246"/>
<text text-anchor="middle" x="1401.62" y="-232.5" font-family="Helvetica,sans-Serif" font-size="10.00">std::array&lt; T &gt;</text>
</a>
</g>
</g>
<!-- Node17&#45;&gt;Node3 -->
<g id="edge24_Node000003_Node000017" class="edge">
<title>Node17&#45;&gt;Node3</title>
<g id="a_edge24_Node000003_Node000017"><a xlink:title=" ">
<path fill="none" stroke="#9a32cd" stroke-dasharray="5,2" d="M1453.52,-233C1500.17,-230.26 1568.58,-226.23 1613.04,-223.61"/>
<polygon fill="#9a32cd" stroke="#9a32cd" points="1453.44,-229.5 1443.66,-233.58 1453.85,-236.49 1453.44,-229.5"/>
</a>
</g>
<text text-anchor="middle" x="1551" y="-232.5" font-family="Helvetica,sans-Serif" font-size="10.00" fill="grey"> _viewModes</text>
</g>
<!-- Node18 -->
<g id="Node000018" class="node">
<title>Node18</title>
<g id="a_Node000018"><a xlink:title=" ">
<polygon fill="white" stroke="#666666" points="1144.28,-246 1115.47,-246 1115.47,-226 1144.28,-226 1144.28,-246"/>
<text text-anchor="middle" x="1129.88" y="-232.5" font-family="Helvetica,sans-Serif" font-size="10.00">T</text>
</a>
</g>
</g>
<!-- Node18&#45;&gt;Node17 -->
<g id="edge25_Node000017_Node000018" class="edge">
<title>Node18&#45;&gt;Node17</title>
<g id="a_edge25_Node000017_Node000018"><a xlink:title=" ">
<path fill="none" stroke="#9a32cd" stroke-dasharray="5,2" d="M1156.13,-236C1203.26,-236 1304.88,-236 1361.14,-236"/>
<polygon fill="#9a32cd" stroke="#9a32cd" points="1156.14,-232.5 1146.14,-236 1156.14,-239.5 1156.14,-232.5"/>
</a>
</g>
<text text-anchor="middle" x="1254.88" y="-238.5" font-family="Helvetica,sans-Serif" font-size="10.00" fill="grey"> elements</text>
</g>
<!-- Node19 -->
<g id="Node000019" class="node">
<title>Node19</title>
<g id="a_Node000019"><a xlink:href="../../d2/d21/struct_g_e_u_1_1_g_p_u_resources.html" target="_top" xlink:title=" ">
<polygon fill="white" stroke="#666666" points="1456.88,-132 1346.38,-132 1346.38,-112 1456.88,-112 1456.88,-132"/>
<text text-anchor="middle" x="1401.62" y="-118.5" font-family="Helvetica,sans-Serif" font-size="10.00">GEU::GPUResources</text>
</a>
</g>
</g>
<!-- Node19&#45;&gt;Node3 -->
<g id="edge27_Node000003_Node000019" class="edge">
<title>Node19&#45;&gt;Node3</title>
<g id="a_edge27_Node000003_Node000019"><a xlink:title=" ">
<path fill="none" stroke="#9a32cd" stroke-dasharray="5,2" d="M1468.29,-116.92C1507.41,-116.77 1556.76,-121.8 1595.25,-143 1623.76,-158.7 1643.9,-193.41 1652.59,-210.74"/>
<polygon fill="#9a32cd" stroke="#9a32cd" points="1468.48,-113.42 1458.54,-117.09 1468.6,-120.42 1468.48,-113.42"/>
</a>
</g>
<text text-anchor="middle" x="1551" y="-145.5" font-family="Helvetica,sans-Serif" font-size="10.00" fill="grey"> _GPUResources</text>
</g>
<!-- Node20 -->
<g id="Node000020" class="node">
<title>Node20</title>
<g id="a_Node000020"><a xlink:title=" ">
<polygon fill="white" stroke="#666666" points="1182.12,-144 1077.62,-144 1077.62,-100 1182.12,-100 1182.12,-144"/>
<text text-anchor="start" x="1085.62" y="-130.5" font-family="Helvetica,sans-Serif" font-size="10.00">std::array&lt; size_t,</text>
<text text-anchor="start" x="1085.62" y="-118.5" font-family="Helvetica,sans-Serif" font-size="10.00">(uint8_t) SSBOSlots</text>
<text text-anchor="middle" x="1129.88" y="-106.5" font-family="Helvetica,sans-Serif" font-size="10.00">::Total &gt;</text>
</a>
</g>
</g>
<!-- Node20&#45;&gt;Node19 -->
<g id="edge28_Node000019_Node000020" class="edge">
<title>Node20&#45;&gt;Node19</title>
<g id="a_edge28_Node000019_Node000020"><a xlink:title=" ">
<path fill="none" stroke="#9a32cd" stroke-dasharray="5,2" d="M1193.96,-122C1240.19,-122 1302.31,-122 1346.33,-122"/>
<polygon fill="#9a32cd" stroke="#9a32cd" points="1194.08,-118.5 1184.08,-122 1194.08,-125.5 1194.08,-118.5"/>
</a>
</g>
<text text-anchor="middle" x="1254.88" y="-124.5" font-family="Helvetica,sans-Serif" font-size="10.00" fill="grey"> _memoryReserved</text>
</g>
<!-- Node21 -->
<g id="Node000021" class="node">
<title>Node21</title>
<g id="a_Node000021"><a xlink:title=" ">
<polygon fill="white" stroke="#666666" points="1182.12,-206 1077.62,-206 1077.62,-162 1182.12,-162 1182.12,-206"/>
<text text-anchor="start" x="1085.62" y="-192.5" font-family="Helvetica,sans-Serif" font-size="10.00">std::array&lt; GLuint,</text>
<text text-anchor="start" x="1085.62" y="-180.5" font-family="Helvetica,sans-Serif" font-size="10.00">(uint8_t) SSBOSlots</text>
<text text-anchor="middle" x="1129.88" y="-168.5" font-family="Helvetica,sans-Serif" font-size="10.00">::Total &gt;</text>
</a>
</g>
</g>
<!-- Node21&#45;&gt;Node19 -->
<g id="edge29_Node000019_Node000021" class="edge">
<title>Node21&#45;&gt;Node19</title>
<g id="a_edge29_Node000019_Node000021"><a xlink:title=" ">
<path fill="none" stroke="#9a32cd" stroke-dasharray="5,2" d="M1193.44,-169.14C1228.93,-160.76 1274.17,-150.17 1314.5,-141 1326.89,-138.18 1340.3,-135.19 1352.77,-132.44"/>
<polygon fill="#9a32cd" stroke="#9a32cd" points="1192.68,-165.72 1183.75,-171.43 1194.29,-172.53 1192.68,-165.72"/>
</a>
</g>
<text text-anchor="middle" x="1254.88" y="-167.5" font-family="Helvetica,sans-Serif" font-size="10.00" fill="grey"> _ssboIds</text>
</g>
<!-- Node22 -->
<g id="Node000022" class="node">
<title>Node22</title>
<g id="a_Node000022"><a xlink:title=" ">
<polygon fill="white" stroke="#666666" points="1450.88,-208 1352.38,-208 1352.38,-188 1450.88,-188 1450.88,-208"/>
<text text-anchor="middle" x="1401.62" y="-194.5" font-family="Helvetica,sans-Serif" font-size="10.00">std::vector&lt; vec3 &gt;</text>
</a>
</g>
</g>
<!-- Node22&#45;&gt;Node3 -->
<g id="edge30_Node000003_Node000022" class="edge">
<title>Node22&#45;&gt;Node3</title>
<g id="a_edge30_Node000003_Node000022"><a xlink:title=" ">
<path fill="none" stroke="#9a32cd" stroke-dasharray="5,2" d="M1462.79,-192.58C1501.02,-190.46 1551.4,-190.14 1595.25,-198 1608.95,-200.45 1623.58,-205.73 1635.19,-210.61"/>
<polygon fill="#9a32cd" stroke="#9a32cd" points="1462.61,-189.08 1452.84,-193.19 1463.04,-196.07 1462.61,-189.08"/>
</a>
</g>
<text text-anchor="middle" x="1551" y="-212.5" font-family="Helvetica,sans-Serif" font-size="10.00" fill="grey"> _normals</text>
<text text-anchor="middle" x="1551" y="-200.5" font-family="Helvetica,sans-Serif" font-size="10.00" fill="grey">_position</text>
</g>
<!-- Node23 -->
<g id="Node000023" class="node">
<title>Node23</title>
<g id="a_Node000023"><a xlink:title=" ">
<polygon fill="white" stroke="#666666" points="1460.62,-170 1342.62,-170 1342.62,-150 1460.62,-150 1460.62,-170"/>
<text text-anchor="middle" x="1401.62" y="-156.5" font-family="Helvetica,sans-Serif" font-size="10.00">std::vector&lt; unsigned &gt;</text>
</a>
</g>
</g>
<!-- Node23&#45;&gt;Node3 -->
<g id="edge31_Node000003_Node000023" class="edge">
<title>Node23&#45;&gt;Node3</title>
<g id="a_edge31_Node000003_Node000023"><a xlink:title=" ">
<path fill="none" stroke="#9a32cd" stroke-dasharray="5,2" d="M1472.19,-156.84C1509.7,-157.33 1556.18,-161.52 1595.25,-176 1615.73,-183.59 1635.47,-199.92 1647.01,-210.68"/>
<polygon fill="#9a32cd" stroke="#9a32cd" points="1472.38,-153.34 1462.37,-156.81 1472.35,-160.34 1472.38,-153.34"/>
</a>
</g>
<text text-anchor="middle" x="1551" y="-178.5" font-family="Helvetica,sans-Serif" font-size="10.00" fill="grey"> _rgbColor</text>
</g>
<!-- Node24&#45;&gt;Node3 -->
<g id="edge32_Node000003_Node000024" class="edge">
<title>Node24&#45;&gt;Node3</title>
<g id="a_edge32_Node000003_Node000024"><a xlink:title=" ">
<path fill="none" stroke="#9a32cd" stroke-dasharray="5,2" d="M1485.4,-795.41C1524.02,-794.15 1567.48,-785.16 1595.25,-756 1632.97,-716.38 1653.64,-302.19 1656.91,-231.3"/>
<polygon fill="#9a32cd" stroke="#9a32cd" points="1485.58,-791.91 1475.63,-795.55 1485.68,-798.91 1485.58,-791.91"/>
</a>
</g>
<text text-anchor="middle" x="1551" y="-795.5" font-family="Helvetica,sans-Serif" font-size="10.00" fill="grey"> _meshlets</text>
</g>
<!-- Node25 -->
<g id="Node000025" class="node">
<title>Node25</title>
<g id="a_Node000025"><a xlink:title=" ">
<polygon fill="white" stroke="#666666" points="1474.5,-94 1328.75,-94 1328.75,-50 1474.5,-50 1474.5,-94"/>
<text text-anchor="start" x="1336.75" y="-80.5" font-family="Helvetica,sans-Serif" font-size="10.00">std::array&lt; std::vector</text>
<text text-anchor="start" x="1336.75" y="-68.5" font-family="Helvetica,sans-Serif" font-size="10.00">&lt; std::vector&lt; float &gt;</text>
<text text-anchor="middle" x="1401.62" y="-56.5" font-family="Helvetica,sans-Serif" font-size="10.00"> &gt;, NUM_DATA_SOURCES &gt;</text>
</a>
</g>
</g>
<!-- Node25&#45;&gt;Node3 -->
<g id="edge34_Node000003_Node000025" class="edge">
<title>Node25&#45;&gt;Node3</title>
<g id="a_edge34_Node000003_Node000025"><a xlink:title=" ">
<path fill="none" stroke="#9a32cd" stroke-dasharray="5,2" d="M1485.98,-69.26C1522.45,-71.9 1563.96,-80.53 1595.25,-103 1633.05,-130.15 1649.79,-187.41 1655.24,-210.76"/>
<polygon fill="#9a32cd" stroke="#9a32cd" points="1486.54,-65.78 1476.35,-68.71 1486.14,-72.77 1486.54,-65.78"/>
</a>
</g>
<text text-anchor="middle" x="1551" y="-105.5" font-family="Helvetica,sans-Serif" font-size="10.00" fill="grey"> _fusionData</text>
</g>
<!-- Node26 -->
<g id="Node000026" class="node">
<title>Node26</title>
<g id="a_Node000026"><a xlink:title=" ">
<polygon fill="white" stroke="#666666" points="1187.38,-82 1072.38,-82 1072.38,-50 1187.38,-50 1187.38,-82"/>
<text text-anchor="start" x="1080.38" y="-68.5" font-family="Helvetica,sans-Serif" font-size="10.00">std::vector&lt; std::vector</text>
<text text-anchor="middle" x="1129.88" y="-56.5" font-family="Helvetica,sans-Serif" font-size="10.00">&lt; float &gt; &gt;</text>
</a>
</g>
</g>
<!-- Node26&#45;&gt;Node25 -->
<g id="edge35_Node000025_Node000026" class="edge">
<title>Node26&#45;&gt;Node25</title>
<g id="a_edge35_Node000025_Node000026"><a xlink:title=" ">
<path fill="none" stroke="#9a32cd" stroke-dasharray="5,2" d="M1199.13,-67.52C1238.61,-68.4 1288.26,-69.5 1328.4,-70.39"/>
<polygon fill="#9a32cd" stroke="#9a32cd" points="1199.34,-64.02 1189.27,-67.3 1199.19,-71.02 1199.34,-64.02"/>
</a>
</g>
<text text-anchor="middle" x="1254.88" y="-72.5" font-family="Helvetica,sans-Serif" font-size="10.00" fill="grey"> elements</text>
</g>
<!-- Node27 -->
<g id="Node000027" class="node">
<title>Node27</title>
<g id="a_Node000027"><a xlink:title=" ">
<polygon fill="white" stroke="#666666" points="923.5,-76 826.5,-76 826.5,-56 923.5,-56 923.5,-76"/>
<text text-anchor="middle" x="875" y="-62.5" font-family="Helvetica,sans-Serif" font-size="10.00">std::vector&lt; float &gt;</text>
</a>
</g>
</g>
<!-- Node27&#45;&gt;Node26 -->
<g id="edge36_Node000026_Node000027" class="edge">
<title>Node27&#45;&gt;Node26</title>
<g id="a_edge36_Node000026_Node000027"><a xlink:title=" ">
<path fill="none" stroke="#9a32cd" stroke-dasharray="5,2" d="M935.12,-66C976.38,-66 1031.14,-66 1071.92,-66"/>
<polygon fill="#9a32cd" stroke="#9a32cd" points="935.37,-62.5 925.37,-66 935.37,-69.5 935.37,-62.5"/>
</a>
</g>
<text text-anchor="middle" x="1003.38" y="-68.5" font-family="Helvetica,sans-Serif" font-size="10.00" fill="grey"> elements</text>
</g>
<!-- Node28 -->
<g id="Node000028" class="node">
<title>Node28</title>
<g id="a_Node000028"><a xlink:title=" ">
<polygon fill="white" stroke="#666666" points="1488.75,-32 1314.5,-32 1314.5,0 1488.75,0 1488.75,-32"/>
<text text-anchor="start" x="1322.5" y="-18.5" font-family="Helvetica,sans-Serif" font-size="10.00">std::array&lt; std::vector</text>
<text text-anchor="middle" x="1401.62" y="-6.5" font-family="Helvetica,sans-Serif" font-size="10.00">&lt; vec2 &gt;, NUM_DATA_SOURCES &gt;</text>
</a>
</g>
</g>
<!-- Node28&#45;&gt;Node3 -->
<g id="edge37_Node000003_Node000028" class="edge">
<title>Node28&#45;&gt;Node3</title>
<g id="a_edge37_Node000003_Node000028"><a xlink:title=" ">
<path fill="none" stroke="#9a32cd" stroke-dasharray="5,2" d="M1500.06,-17.56C1533.47,-22.6 1569.02,-33.56 1595.25,-56 1643.86,-97.59 1654.51,-181.25 1656.78,-210.56"/>
<polygon fill="#9a32cd" stroke="#9a32cd" points="1500.7,-14.11 1490.32,-16.27 1499.78,-21.05 1500.7,-14.11"/>
</a>
</g>
<text text-anchor="middle" x="1551" y="-58.5" font-family="Helvetica,sans-Serif" font-size="10.00" fill="grey"> _fusionDataMinMax</text>
</g>
<!-- Node29 -->
<g id="Node000029" class="node">
<title>Node29</title>
<g id="a_Node000029"><a xlink:title=" ">
<polygon fill="white" stroke="#666666" points="1179.12,-26 1080.62,-26 1080.62,-6 1179.12,-6 1179.12,-26"/>
<text text-anchor="middle" x="1129.88" y="-12.5" font-family="Helvetica,sans-Serif" font-size="10.00">std::vector&lt; vec2 &gt;</text>
</a>
</g>
</g>
<!-- Node29&#45;&gt;Node28 -->
<g id="edge38_Node000028_Node000029" class="edge">
<title>Node29&#45;&gt;Node28</title>
<g id="a_edge38_Node000028_Node000029"><a xlink:title=" ">
<path fill="none" stroke="#9a32cd" stroke-dasharray="5,2" d="M1190.78,-16C1227.01,-16 1273.82,-16 1314.03,-16"/>
<polygon fill="#9a32cd" stroke="#9a32cd" points="1190.93,-12.5 1180.93,-16 1190.93,-19.5 1190.93,-12.5"/>
</a>
</g>
<text text-anchor="middle" x="1254.88" y="-18.5" font-family="Helvetica,sans-Serif" font-size="10.00" fill="grey"> elements</text>
</g>
<!-- Node30 -->
<g id="Node000030" class="node">
<title>Node30</title>
<g id="a_Node000030"><a xlink:title=" ">
<polygon fill="white" stroke="#666666" points="2076.75,-237 1943,-237 1943,-205 2076.75,-205 2076.75,-237"/>
<text text-anchor="start" x="1951" y="-223.5" font-family="Helvetica,sans-Serif" font-size="10.00">std::vector&lt; std::unique</text>
<text text-anchor="middle" x="2009.88" y="-211.5" font-family="Helvetica,sans-Serif" font-size="10.00">_ptr&lt; GEU::PointCloud &gt; &gt;</text>
</a>
</g>
</g>
<!-- Node30&#45;&gt;Node3 -->
<g id="edge39_Node000003_Node000030" class="edge">
<title>Node30&#45;&gt;Node3</title>
<g id="a_edge39_Node000003_Node000030"><a xlink:title=" ">
<path fill="none" stroke="#9a32cd" stroke-dasharray="5,2" d="M1931.2,-225.79C1929.11,-225.87 1927.04,-225.94 1925,-226 1834.6,-228.69 1811.87,-229.63 1721.5,-226 1715.77,-225.77 1709.75,-225.42 1703.8,-225.01"/>
<polygon fill="#9a32cd" stroke="#9a32cd" points="1931.15,-229.3 1940.99,-225.39 1930.86,-222.31 1931.15,-229.3"/>
</a>
</g>
<text text-anchor="middle" x="1809" y="-231.5" font-family="Helvetica,sans-Serif" font-size="10.00" fill="grey"> _subClouds</text>
</g>
<!-- Node31&#45;&gt;Node30 -->
<g id="edge40_Node000030_Node000031" class="edge">
<title>Node31&#45;&gt;Node30</title>
<g id="a_edge40_Node000030_Node000031"><a xlink:title=" ">
<path fill="none" stroke="#9a32cd" stroke-dasharray="5,2" d="M1875.93,-203.62C1897.4,-206.43 1921.23,-209.54 1942.71,-212.35"/>
<polygon fill="#9a32cd" stroke="#9a32cd" points="1876.48,-200.16 1866.11,-202.34 1875.57,-207.1 1876.48,-200.16"/>
</a>
</g>
<text text-anchor="middle" x="1903.62" y="-212.5" font-family="Helvetica,sans-Serif" font-size="10.00" fill="grey"> elements</text>
</g>
<!-- Node32 -->
<g id="Node000032" class="node">
<title>Node32</title>
<g id="a_Node000032"><a xlink:title=" ">
<polygon fill="white" stroke="#666666" points="942.25,-807 807.75,-807 807.75,-763 942.25,-763 942.25,-807"/>
<text text-anchor="start" x="815.75" y="-793.5" font-family="Helvetica,sans-Serif" font-size="10.00">std::array&lt; std::vector</text>
<text text-anchor="start" x="815.75" y="-781.5" font-family="Helvetica,sans-Serif" font-size="10.00">&lt; dataState &gt;, NUM_DATA</text>
<text text-anchor="middle" x="875" y="-769.5" font-family="Helvetica,sans-Serif" font-size="10.00">_SOURCES &gt;</text>
</a>
</g>
</g>
<!-- Node32&#45;&gt;Node1 -->
<g id="edge42_Node000001_Node000032" class="edge">
<title>Node32&#45;&gt;Node1</title>
<g id="a_edge42_Node000001_Node000032"><a xlink:title=" ">
<path fill="none" stroke="#9a32cd" stroke-dasharray="5,2" d="M953.7,-780.08C989.1,-777.84 1030.52,-775.22 1064.19,-773.09"/>
<polygon fill="#9a32cd" stroke="#9a32cd" points="953.71,-776.58 943.95,-780.7 954.15,-783.56 953.71,-776.58"/>
</a>
</g>
<text text-anchor="middle" x="1003.38" y="-781.5" font-family="Helvetica,sans-Serif" font-size="10.00" fill="grey"> fusionDataState</text>
</g>
<!-- Node33 -->
<g id="Node000033" class="node">
<title>Node33</title>
<g id="a_Node000033"><a xlink:title=" ">
<polygon fill="white" stroke="#666666" points="666.75,-795 545.75,-795 545.75,-775 666.75,-775 666.75,-795"/>
<text text-anchor="middle" x="606.25" y="-781.5" font-family="Helvetica,sans-Serif" font-size="10.00">std::vector&lt; dataState &gt;</text>
</a>
</g>
</g>
<!-- Node33&#45;&gt;Node32 -->
<g id="edge43_Node000032_Node000033" class="edge">
<title>Node33&#45;&gt;Node32</title>
<g id="a_edge43_Node000032_Node000033"><a xlink:title=" ">
<path fill="none" stroke="#9a32cd" stroke-dasharray="5,2" d="M678.39,-785C718.4,-785 768.05,-785 807.31,-785"/>
<polygon fill="#9a32cd" stroke="#9a32cd" points="678.63,-781.5 668.63,-785 678.63,-788.5 678.63,-781.5"/>
</a>
</g>
<text text-anchor="middle" x="737.25" y="-787.5" font-family="Helvetica,sans-Serif" font-size="10.00" fill="grey"> elements</text>
</g>
</g>
</svg>
