<?xml version="1.0" encoding="UTF-8" standalone="no"?>
<!DOCTYPE svg PUBLIC "-//W3C//DTD SVG 1.1//EN"
 "http://www.w3.org/Graphics/SVG/1.1/DTD/svg11.dtd">
<!-- Generated by graphviz version 10.0.1 (20240210.2158)
 -->
<!-- Title: Database::SDO_GEOMETRY::toQueryString Pages: 1 -->
<svg width="361pt" height="90pt"
 viewBox="0.00 0.00 361.00 90.00" xmlns="http://www.w3.org/2000/svg" xmlns:xlink="http://www.w3.org/1999/xlink">
<g id="graph0" class="graph" transform="scale(1 1) rotate(0) translate(4 86)">
<title>Database::SDO_GEOMETRY::toQueryString</title>
<!-- Node1 -->
<g id="Node000001" class="node">
<title>Node1</title>
<g id="a_Node000001"><a xlink:title=" ">
<polygon fill="#999999" stroke="#666666" points="353,-57 208,-57 208,-25 353,-25 353,-57"/>
<text text-anchor="start" x="216" y="-43.5" font-family="Helvetica,sans-Serif" font-size="10.00">Database::SDO_GEOMETRY</text>
<text text-anchor="middle" x="280.5" y="-31.5" font-family="Helvetica,sans-Serif" font-size="10.00">::toQueryString</text>
</a>
</g>
</g>
<!-- Node2 -->
<g id="Node000002" class="node">
<title>Node2</title>
<g id="a_Node000002"><a xlink:href="../../d2/d00/a01860.html#abe629f9878750399489d6c42a92303fc" target="_top" xlink:title=" ">
<polygon fill="white" stroke="#666666" points="139.75,-82 32.25,-82 32.25,-50 139.75,-50 139.75,-82"/>
<text text-anchor="start" x="40.25" y="-68.5" font-family="Helvetica,sans-Serif" font-size="10.00">DatabaseConnector::</text>
<text text-anchor="middle" x="86" y="-56.5" font-family="Helvetica,sans-Serif" font-size="10.00">insert</text>
</a>
</g>
</g>
<!-- Node1&#45;&gt;Node2 -->
<g id="edge1_Node000001_Node000002" class="edge">
<title>Node1&#45;&gt;Node2</title>
<g id="a_edge1_Node000001_Node000002"><a xlink:title=" ">
<path fill="none" stroke="#63b8ff" d="M196.17,-51.82C177.2,-54.29 157.55,-56.84 140.24,-59.09"/>
<polygon fill="#63b8ff" stroke="#63b8ff" points="196.58,-55.3 206.05,-50.54 195.68,-48.36 196.58,-55.3"/>
</a>
</g>
</g>
<!-- Node3 -->
<g id="Node000003" class="node">
<title>Node3</title>
<g id="a_Node000003"><a xlink:href="../../d8/d02/a02104.html#afcda560180acc4f5fbd7caeaa40f9018" target="_top" xlink:title="Custom module GUI window contents.">
<polygon fill="white" stroke="#666666" points="172,-32 0,-32 0,0 172,0 172,-32"/>
<text text-anchor="start" x="8" y="-18.5" font-family="Helvetica,sans-Serif" font-size="10.00">GEU::TreeSegmentationGUIAdapter</text>
<text text-anchor="middle" x="86" y="-6.5" font-family="Helvetica,sans-Serif" font-size="10.00">::renderGuiObject</text>
</a>
</g>
</g>
<!-- Node1&#45;&gt;Node3 -->
<g id="edge2_Node000001_Node000003" class="edge">
<title>Node1&#45;&gt;Node3</title>
<g id="a_edge2_Node000001_Node000003"><a xlink:title=" ">
<path fill="none" stroke="#63b8ff" d="M196.33,-30.2C188.33,-29.16 180.2,-28.1 172.18,-27.06"/>
<polygon fill="#63b8ff" stroke="#63b8ff" points="195.68,-33.64 206.05,-31.46 196.58,-26.7 195.68,-33.64"/>
</a>
</g>
</g>
</g>
</svg>
