<?xml version="1.0" encoding="UTF-8" standalone="no"?>
<!DOCTYPE svg PUBLIC "-//W3C//DTD SVG 1.1//EN"
 "http://www.w3.org/Graphics/SVG/1.1/DTD/svg11.dtd">
<!-- Generated by graphviz version 10.0.1 (20240210.2158)
 -->
<!-- Title: GEU::DatabaseNewDatoWindow::renderWindow Pages: 1 -->
<svg width="546pt" height="646pt"
 viewBox="0.00 0.00 545.75 646.24" xmlns="http://www.w3.org/2000/svg" xmlns:xlink="http://www.w3.org/1999/xlink">
<g id="graph0" class="graph" transform="scale(1 1) rotate(0) translate(4 642.24)">
<title>GEU::DatabaseNewDatoWindow::renderWindow</title>
<!-- Node1 -->
<g id="Node000001" class="node">
<title>Node1</title>
<g id="a_Node000001"><a xlink:title="Renders the window and contents.">
<polygon fill="#999999" stroke="#666666" points="157.75,-370 0,-370 0,-338 157.75,-338 157.75,-370"/>
<text text-anchor="start" x="8" y="-356.5" font-family="Helvetica,sans-Serif" font-size="10.00">GEU::DatabaseNewDatoWindow</text>
<text text-anchor="middle" x="78.88" y="-344.5" font-family="Helvetica,sans-Serif" font-size="10.00">::renderWindow</text>
</a>
</g>
</g>
<!-- Node2 -->
<g id="Node000002" class="node">
<title>Node2</title>
<g id="a_Node000002"><a xlink:href="../../d9/d03/class_g_e_u_1_1_popup_system.html#ae812e21e62615fd347d33ee0ddb0cc82" target="_top" xlink:title=" ">
<polygon fill="white" stroke="#666666" points="347.75,-596 193.75,-596 193.75,-576 347.75,-576 347.75,-596"/>
<text text-anchor="middle" x="270.75" y="-582.5" font-family="Helvetica,sans-Serif" font-size="10.00">GEU::PopupSystem::addPopup</text>
</a>
</g>
</g>
<!-- Node1&#45;&gt;Node2 -->
<g id="edge1_Node000001_Node000002" class="edge">
<title>Node1&#45;&gt;Node2</title>
<g id="a_edge1_Node000001_Node000002"><a xlink:title=" ">
<path fill="none" stroke="#63b8ff" d="M83.71,-370.28C94.04,-410.37 126.3,-514.39 193.75,-567 195.26,-568.18 196.84,-569.29 198.46,-570.32"/>
<polygon fill="#63b8ff" stroke="#63b8ff" points="196.47,-573.23 206.94,-574.85 199.77,-567.05 196.47,-573.23"/>
</a>
</g>
</g>
<!-- Node3 -->
<g id="Node000003" class="node">
<title>Node3</title>
<g id="a_Node000003"><a xlink:href="../../d1/d01/class_g_e_u_1_1_singleton.html#a47c7e7c2110f4cc59c9ff1f5594c366e" target="_top" xlink:title=" ">
<polygon fill="white" stroke="#666666" points="537.75,-602 383.75,-602 383.75,-570 537.75,-570 537.75,-602"/>
<text text-anchor="start" x="391.75" y="-588.5" font-family="Helvetica,sans-Serif" font-size="10.00">GEU::Singleton&lt; PopupSystem</text>
<text text-anchor="middle" x="460.75" y="-576.5" font-family="Helvetica,sans-Serif" font-size="10.00"> &gt;::getInstance</text>
</a>
</g>
</g>
<!-- Node1&#45;&gt;Node3 -->
<g id="edge15_Node000001_Node000003" class="edge">
<title>Node1&#45;&gt;Node3</title>
<g id="a_edge15_Node000001_Node000003"><a xlink:title=" ">
<path fill="none" stroke="#63b8ff" d="M81.95,-370.2C88.22,-415.76 111.9,-543.25 193.75,-596 251.88,-633.46 332.74,-620.74 390.01,-605.43"/>
<polygon fill="#63b8ff" stroke="#63b8ff" points="390.61,-608.89 399.31,-602.85 388.74,-602.15 390.61,-608.89"/>
</a>
</g>
</g>
<!-- Node1&#45;&gt;Node3 -->
<g id="edge16_Node000001_Node000003" class="edge">
<title>Node1&#45;&gt;Node3</title>
<g id="a_edge16_Node000001_Node000003"><a xlink:title=" ">
<path fill="none" stroke="#63b8ff" d="M81.02,-370.3C85.63,-418.46 107.07,-558.14 193.75,-614 264.53,-659.61 369,-630.82 423.56,-607.1"/>
<polygon fill="#63b8ff" stroke="#63b8ff" points="424.76,-610.4 432.41,-603.08 421.86,-604.03 424.76,-610.4"/>
</a>
</g>
</g>
<!-- Node4 -->
<g id="Node000004" class="node">
<title>Node4</title>
<g id="a_Node000004"><a xlink:href="../../d3/d07/namespace_g_e_u_1_1_gui_utilities.html#a95d5f616a34dd70aca4886e546720966" target="_top" xlink:title=" ">
<polygon fill="white" stroke="#666666" points="318.88,-420 222.62,-420 222.62,-388 318.88,-388 318.88,-420"/>
<text text-anchor="start" x="230.62" y="-406.5" font-family="Helvetica,sans-Serif" font-size="10.00">GEU::GuiUtilities::</text>
<text text-anchor="middle" x="270.75" y="-394.5" font-family="Helvetica,sans-Serif" font-size="10.00">BeginCombo</text>
</a>
</g>
</g>
<!-- Node1&#45;&gt;Node4 -->
<g id="edge3_Node000001_Node000004" class="edge">
<title>Node1&#45;&gt;Node4</title>
<g id="a_edge3_Node000001_Node000004"><a xlink:title=" ">
<path fill="none" stroke="#63b8ff" d="M142.31,-370.44C164.49,-376.28 189.37,-382.83 211.21,-388.59"/>
<polygon fill="#63b8ff" stroke="#63b8ff" points="210.3,-391.97 220.87,-391.13 212.09,-385.2 210.3,-391.97"/>
</a>
</g>
</g>
<!-- Node6 -->
<g id="Node000006" class="node">
<title>Node6</title>
<g id="a_Node000006"><a xlink:href="../../d3/d07/namespace_g_e_u_1_1_gui_utilities.html#a76a49056660c5a9246a94564afbb676a" target="_top" xlink:title=" ">
<polygon fill="white" stroke="#666666" points="518.25,-414 403.25,-414 403.25,-394 518.25,-394 518.25,-414"/>
<text text-anchor="middle" x="460.75" y="-400.5" font-family="Helvetica,sans-Serif" font-size="10.00">GEU::GuiUtilities::Text</text>
</a>
</g>
</g>
<!-- Node1&#45;&gt;Node6 -->
<g id="edge26_Node000001_Node000006" class="edge">
<title>Node1&#45;&gt;Node6</title>
<g id="a_edge26_Node000001_Node000006"><a xlink:title=" ">
<path fill="none" stroke="#63b8ff" d="M97.49,-370.45C118.52,-388.85 155.65,-417.58 193.75,-429 270.33,-451.95 364.36,-432.67 417.64,-417.61"/>
<polygon fill="#63b8ff" stroke="#63b8ff" points="418.62,-420.98 427.23,-414.81 416.65,-414.26 418.62,-420.98"/>
</a>
</g>
</g>
<!-- Node7 -->
<g id="Node000007" class="node">
<title>Node7</title>
<g id="a_Node000007"><a xlink:href="../../d3/d07/namespace_g_e_u_1_1_gui_utilities.html#a19a864db5dec589998f84e7ad39922e3" target="_top" xlink:title=" ">
<polygon fill="white" stroke="#666666" points="318.88,-558 222.62,-558 222.62,-526 318.88,-526 318.88,-558"/>
<text text-anchor="start" x="230.62" y="-544.5" font-family="Helvetica,sans-Serif" font-size="10.00">GEU::GuiUtilities::</text>
<text text-anchor="middle" x="270.75" y="-532.5" font-family="Helvetica,sans-Serif" font-size="10.00">BeginTableVuelo</text>
</a>
</g>
</g>
<!-- Node1&#45;&gt;Node7 -->
<g id="edge6_Node000001_Node000007" class="edge">
<title>Node1&#45;&gt;Node7</title>
<g id="a_edge6_Node000001_Node000007"><a xlink:title=" ">
<path fill="none" stroke="#63b8ff" d="M86.88,-370.26C101.74,-402.91 139.59,-476.73 193.75,-517 199.31,-521.13 205.59,-524.61 212.09,-527.52"/>
<polygon fill="#63b8ff" stroke="#63b8ff" points="210.44,-530.63 221.03,-531.08 213.04,-524.13 210.44,-530.63"/>
</a>
</g>
</g>
<!-- Node8 -->
<g id="Node000008" class="node">
<title>Node8</title>
<g id="a_Node000008"><a xlink:href="../../d3/d07/namespace_g_e_u_1_1_gui_utilities.html#af94965eb0ce2f4e1e5ee22fd33bf4574" target="_top" xlink:title=" ">
<polygon fill="white" stroke="#666666" points="318.88,-508 222.62,-508 222.62,-476 318.88,-476 318.88,-508"/>
<text text-anchor="start" x="230.62" y="-494.5" font-family="Helvetica,sans-Serif" font-size="10.00">GEU::GuiUtilities::</text>
<text text-anchor="middle" x="270.75" y="-482.5" font-family="Helvetica,sans-Serif" font-size="10.00">BeginTableZona</text>
</a>
</g>
</g>
<!-- Node1&#45;&gt;Node8 -->
<g id="edge8_Node000001_Node000008" class="edge">
<title>Node1&#45;&gt;Node8</title>
<g id="a_edge8_Node000001_Node000008"><a xlink:title=" ">
<path fill="none" stroke="#63b8ff" d="M93.42,-370.32C113.33,-393.43 152.62,-435.79 193.75,-462 199.34,-465.57 205.43,-468.83 211.64,-471.78"/>
<polygon fill="#63b8ff" stroke="#63b8ff" points="210.21,-474.98 220.77,-475.84 213.06,-468.58 210.21,-474.98"/>
</a>
</g>
</g>
<!-- Node9 -->
<g id="Node000009" class="node">
<title>Node9</title>
<g id="a_Node000009"><a xlink:href="../../d3/d07/namespace_g_e_u_1_1_gui_utilities.html#a4a9fd6dae16881311edd3998ece123bf" target="_top" xlink:title=" ">
<polygon fill="white" stroke="#666666" points="318.88,-270 222.62,-270 222.62,-238 318.88,-238 318.88,-270"/>
<text text-anchor="start" x="230.62" y="-256.5" font-family="Helvetica,sans-Serif" font-size="10.00">GEU::GuiUtilities::</text>
<text text-anchor="middle" x="270.75" y="-244.5" font-family="Helvetica,sans-Serif" font-size="10.00">Button</text>
</a>
</g>
</g>
<!-- Node1&#45;&gt;Node9 -->
<g id="edge11_Node000001_Node000009" class="edge">
<title>Node1&#45;&gt;Node9</title>
<g id="a_edge11_Node000001_Node000009"><a xlink:title=" ">
<path fill="none" stroke="#63b8ff" d="M101.1,-337.53C123.24,-320.97 159.43,-295.58 193.75,-279 199.52,-276.21 205.68,-273.62 211.89,-271.24"/>
<polygon fill="#63b8ff" stroke="#63b8ff" points="212.73,-274.66 220.94,-267.95 210.34,-268.08 212.73,-274.66"/>
</a>
</g>
</g>
<!-- Node10 -->
<g id="Node000010" class="node">
<title>Node10</title>
<g id="a_Node000010"><a xlink:href="../../d3/d07/namespace_g_e_u_1_1_gui_utilities.html#a8cd6e1ec53dc192ed4c4d3867e35edc7" target="_top" xlink:title=" ">
<polygon fill="white" stroke="#666666" points="318.88,-220 222.62,-220 222.62,-188 318.88,-188 318.88,-220"/>
<text text-anchor="start" x="230.62" y="-206.5" font-family="Helvetica,sans-Serif" font-size="10.00">GEU::GuiUtilities::</text>
<text text-anchor="middle" x="270.75" y="-194.5" font-family="Helvetica,sans-Serif" font-size="10.00">Checkbox</text>
</a>
</g>
</g>
<!-- Node1&#45;&gt;Node10 -->
<g id="edge12_Node000001_Node000010" class="edge">
<title>Node1&#45;&gt;Node10</title>
<g id="a_edge12_Node000001_Node000010"><a xlink:title=" ">
<path fill="none" stroke="#63b8ff" d="M90.48,-337.73C108.57,-311.22 147.92,-258.69 193.75,-229 199.28,-225.42 205.36,-222.31 211.61,-219.61"/>
<polygon fill="#63b8ff" stroke="#63b8ff" points="212.76,-222.92 220.8,-216.02 210.21,-216.4 212.76,-222.92"/>
</a>
</g>
</g>
<!-- Node11 -->
<g id="Node000011" class="node">
<title>Node11</title>
<g id="a_Node000011"><a xlink:href="../../d3/d07/namespace_g_e_u_1_1_gui_utilities.html#a15f9ea36c082c71e09e7275ca63bd2e1" target="_top" xlink:title=" ">
<polygon fill="white" stroke="#666666" points="318.88,-170 222.62,-170 222.62,-138 318.88,-138 318.88,-170"/>
<text text-anchor="start" x="230.62" y="-156.5" font-family="Helvetica,sans-Serif" font-size="10.00">GEU::GuiUtilities::</text>
<text text-anchor="middle" x="270.75" y="-144.5" font-family="Helvetica,sans-Serif" font-size="10.00">ComboItem</text>
</a>
</g>
</g>
<!-- Node1&#45;&gt;Node11 -->
<g id="edge13_Node000001_Node000011" class="edge">
<title>Node1&#45;&gt;Node11</title>
<g id="a_edge13_Node000001_Node000011"><a xlink:title=" ">
<path fill="none" stroke="#63b8ff" d="M86.11,-337.6C100.04,-303.11 137.01,-222.66 193.75,-179 199.24,-174.78 205.48,-171.25 211.96,-168.31"/>
<polygon fill="#63b8ff" stroke="#63b8ff" points="212.9,-171.7 220.87,-164.72 210.29,-165.21 212.9,-171.7"/>
</a>
</g>
</g>
<!-- Node13 -->
<g id="Node000013" class="node">
<title>Node13</title>
<g id="a_Node000013"><a xlink:href="../../d2/d04/class_locale_strings.html#ac66087ac25e72051ea7b5bf3d00dd71f" target="_top" xlink:title=" ">
<polygon fill="white" stroke="#666666" points="330.88,-120 210.62,-120 210.62,-100 330.88,-100 330.88,-120"/>
<text text-anchor="middle" x="270.75" y="-106.5" font-family="Helvetica,sans-Serif" font-size="10.00">LocaleStrings::getString</text>
</a>
</g>
</g>
<!-- Node1&#45;&gt;Node13 -->
<g id="edge17_Node000001_Node000013" class="edge">
<title>Node1&#45;&gt;Node13</title>
<g id="a_edge17_Node000001_Node000013"><a xlink:title=" ">
<path fill="none" stroke="#63b8ff" d="M83.21,-337.74C92.63,-296.13 123.43,-185.12 193.75,-129 195.86,-127.32 198.09,-125.78 200.43,-124.38"/>
<polygon fill="#63b8ff" stroke="#63b8ff" points="201.76,-127.63 209.13,-120.02 198.62,-121.37 201.76,-127.63"/>
</a>
</g>
</g>
<!-- Node14 -->
<g id="Node000014" class="node">
<title>Node14</title>
<g id="a_Node000014"><a xlink:href="../../d3/d07/namespace_g_e_u_1_1_gui_utilities.html#a0c8f0f5af8119c36fa703bc2ed301bde" target="_top" xlink:title=" ">
<polygon fill="white" stroke="#666666" points="318.88,-370 222.62,-370 222.62,-338 318.88,-338 318.88,-370"/>
<text text-anchor="start" x="230.62" y="-356.5" font-family="Helvetica,sans-Serif" font-size="10.00">GEU::GuiUtilities::</text>
<text text-anchor="middle" x="270.75" y="-344.5" font-family="Helvetica,sans-Serif" font-size="10.00">InputText</text>
</a>
</g>
</g>
<!-- Node1&#45;&gt;Node14 -->
<g id="edge18_Node000001_Node000014" class="edge">
<title>Node1&#45;&gt;Node14</title>
<g id="a_edge18_Node000001_Node000014"><a xlink:title=" ">
<path fill="none" stroke="#63b8ff" d="M158.2,-354C175.88,-354 194.35,-354 211.06,-354"/>
<polygon fill="#63b8ff" stroke="#63b8ff" points="210.8,-357.5 220.8,-354 210.8,-350.5 210.8,-357.5"/>
</a>
</g>
</g>
<!-- Node15 -->
<g id="Node000015" class="node">
<title>Node15</title>
<g id="a_Node000015"><a xlink:href="../../d3/d07/namespace_g_e_u_1_1_gui_utilities.html#aac1ea4f7d9f0ad6e7301fe369e9c489c" target="_top" xlink:title=" ">
<polygon fill="white" stroke="#666666" points="318.88,-320 222.62,-320 222.62,-288 318.88,-288 318.88,-320"/>
<text text-anchor="start" x="230.62" y="-306.5" font-family="Helvetica,sans-Serif" font-size="10.00">GEU::GuiUtilities::</text>
<text text-anchor="middle" x="270.75" y="-294.5" font-family="Helvetica,sans-Serif" font-size="10.00">InputTextMultiline</text>
</a>
</g>
</g>
<!-- Node1&#45;&gt;Node15 -->
<g id="edge21_Node000001_Node000015" class="edge">
<title>Node1&#45;&gt;Node15</title>
<g id="a_edge21_Node000001_Node000015"><a xlink:title=" ">
<path fill="none" stroke="#63b8ff" d="M142.31,-337.56C164.49,-331.72 189.37,-325.17 211.21,-319.41"/>
<polygon fill="#63b8ff" stroke="#63b8ff" points="212.09,-322.8 220.87,-316.87 210.3,-316.03 212.09,-322.8"/>
</a>
</g>
</g>
<!-- Node16 -->
<g id="Node000016" class="node">
<title>Node16</title>
<g id="a_Node000016"><a xlink:href="../../d1/d01/class_database_connector.html#adacdaa0b6505fb94120265d3ae37e37e" target="_top" xlink:title=" ">
<polygon fill="white" stroke="#666666" points="327.5,-82 214,-82 214,-50 327.5,-50 327.5,-82"/>
<text text-anchor="start" x="222" y="-68.5" font-family="Helvetica,sans-Serif" font-size="10.00">DatabaseConnector::</text>
<text text-anchor="middle" x="270.75" y="-56.5" font-family="Helvetica,sans-Serif" font-size="10.00">queryAsyncDatoCrudo</text>
</a>
</g>
</g>
<!-- Node1&#45;&gt;Node16 -->
<g id="edge24_Node000001_Node000016" class="edge">
<title>Node1&#45;&gt;Node16</title>
<g id="a_edge24_Node000001_Node000016"><a xlink:title=" ">
<path fill="none" stroke="#63b8ff" d="M82.22,-337.75C89.65,-292.04 116.96,-161.12 193.75,-91 196.71,-88.3 199.97,-85.88 203.43,-83.73"/>
<polygon fill="#63b8ff" stroke="#63b8ff" points="205.06,-86.83 212.25,-79.04 201.78,-80.64 205.06,-86.83"/>
</a>
</g>
</g>
<!-- Node17 -->
<g id="Node000017" class="node">
<title>Node17</title>
<g id="a_Node000017"><a xlink:href="../../d3/d07/namespace_g_e_u_1_1_gui_utilities.html#ae4d14264e67621c5997464e18c781ea0" target="_top" xlink:title=" ">
<polygon fill="white" stroke="#666666" points="318.88,-32 222.62,-32 222.62,0 318.88,0 318.88,-32"/>
<text text-anchor="start" x="230.62" y="-18.5" font-family="Helvetica,sans-Serif" font-size="10.00">GEU::GuiUtilities::</text>
<text text-anchor="middle" x="270.75" y="-6.5" font-family="Helvetica,sans-Serif" font-size="10.00">SeparatorText</text>
</a>
</g>
</g>
<!-- Node1&#45;&gt;Node17 -->
<g id="edge25_Node000001_Node000017" class="edge">
<title>Node1&#45;&gt;Node17</title>
<g id="a_edge25_Node000001_Node000017"><a xlink:title=" ">
<path fill="none" stroke="#63b8ff" d="M80.95,-337.73C85.21,-286.48 105.31,-126.73 193.75,-41 198.92,-35.99 205.11,-31.98 211.7,-28.78"/>
<polygon fill="#63b8ff" stroke="#63b8ff" points="213.01,-32.03 220.9,-24.96 210.32,-25.56 213.01,-32.03"/>
</a>
</g>
</g>
<!-- Node2&#45;&gt;Node3 -->
<g id="edge2_Node000002_Node000003" class="edge">
<title>Node2&#45;&gt;Node3</title>
<g id="a_edge2_Node000002_Node000003"><a xlink:title=" ">
<path fill="none" stroke="#63b8ff" d="M348.22,-586C356,-586 363.96,-586 371.85,-586"/>
<polygon fill="#63b8ff" stroke="#63b8ff" points="371.84,-589.5 381.84,-586 371.84,-582.5 371.84,-589.5"/>
</a>
</g>
</g>
<!-- Node5 -->
<g id="Node000005" class="node">
<title>Node5</title>
<g id="a_Node000005"><a xlink:href="../../d3/d07/namespace_g_e_u_1_1_gui_utilities.html#a93d270e10057bb4a04b130a9e20301e2" target="_top" xlink:title=" ">
<polygon fill="white" stroke="#666666" points="511.12,-370 410.38,-370 410.38,-338 511.12,-338 511.12,-370"/>
<text text-anchor="start" x="418.38" y="-356.5" font-family="Helvetica,sans-Serif" font-size="10.00">GEU::GuiUtilities::</text>
<text text-anchor="middle" x="460.75" y="-344.5" font-family="Helvetica,sans-Serif" font-size="10.00">NextItemFillColumn</text>
</a>
</g>
</g>
<!-- Node4&#45;&gt;Node5 -->
<g id="edge4_Node000004_Node000005" class="edge">
<title>Node4&#45;&gt;Node5</title>
<g id="a_edge4_Node000004_Node000005"><a xlink:title=" ">
<path fill="none" stroke="#63b8ff" d="M319.19,-391.38C343.46,-384.93 373.27,-377 399.19,-370.11"/>
<polygon fill="#63b8ff" stroke="#63b8ff" points="399.8,-373.57 408.56,-367.61 398,-366.8 399.8,-373.57"/>
</a>
</g>
</g>
<!-- Node4&#45;&gt;Node6 -->
<g id="edge5_Node000004_Node000006" class="edge">
<title>Node4&#45;&gt;Node6</title>
<g id="a_edge5_Node000004_Node000006"><a xlink:title=" ">
<path fill="none" stroke="#63b8ff" d="M319.19,-404C341.16,-404 367.68,-404 391.73,-404"/>
<polygon fill="#63b8ff" stroke="#63b8ff" points="391.43,-407.5 401.43,-404 391.43,-400.5 391.43,-407.5"/>
</a>
</g>
</g>
<!-- Node7&#45;&gt;Node3 -->
<g id="edge7_Node000007_Node000003" class="edge">
<title>Node7&#45;&gt;Node3</title>
<g id="a_edge7_Node000007_Node000003"><a xlink:title=" ">
<path fill="none" stroke="#63b8ff" d="M319.19,-553.1C337.18,-557.31 358.21,-562.24 378.44,-566.97"/>
<polygon fill="#63b8ff" stroke="#63b8ff" points="377.57,-570.36 388.1,-569.23 379.17,-563.55 377.57,-570.36"/>
</a>
</g>
</g>
<!-- Node8&#45;&gt;Node3 -->
<g id="edge9_Node000008_Node000003" class="edge">
<title>Node8&#45;&gt;Node3</title>
<g id="a_edge9_Node000008_Node000003"><a xlink:title=" ">
<path fill="none" stroke="#63b8ff" d="M319.04,-505.65C328.7,-508.96 338.68,-512.79 347.75,-517 375.77,-530.02 405.45,-548.55 427.21,-563.13"/>
<polygon fill="#63b8ff" stroke="#63b8ff" points="425.13,-565.94 435.37,-568.66 429.06,-560.15 425.13,-565.94"/>
</a>
</g>
</g>
<!-- Node8&#45;&gt;Node6 -->
<g id="edge10_Node000008_Node000006" class="edge">
<title>Node8&#45;&gt;Node6</title>
<g id="a_edge10_Node000008_Node000006"><a xlink:title=" ">
<path fill="none" stroke="#63b8ff" d="M315.48,-475.62C326.12,-471.39 337.42,-466.7 347.75,-462 376.66,-448.85 408.76,-431.99 431.16,-419.83"/>
<polygon fill="#63b8ff" stroke="#63b8ff" points="432.59,-423.04 439.69,-415.17 429.23,-416.9 432.59,-423.04"/>
</a>
</g>
</g>
<!-- Node12 -->
<g id="Node000012" class="node">
<title>Node12</title>
<g id="a_Node000012"><a xlink:href="../../d3/d07/namespace_g_e_u_1_1_gui_utilities.html#ab5bd8ee6ec7674dc502b5330d41beadf" target="_top" xlink:title=" ">
<polygon fill="white" stroke="#666666" points="508.88,-170 412.62,-170 412.62,-138 508.88,-138 508.88,-170"/>
<text text-anchor="start" x="420.62" y="-156.5" font-family="Helvetica,sans-Serif" font-size="10.00">GEU::GuiUtilities::</text>
<text text-anchor="middle" x="460.75" y="-144.5" font-family="Helvetica,sans-Serif" font-size="10.00">Selectable</text>
</a>
</g>
</g>
<!-- Node11&#45;&gt;Node12 -->
<g id="edge14_Node000011_Node000012" class="edge">
<title>Node11&#45;&gt;Node12</title>
<g id="a_edge14_Node000011_Node000012"><a xlink:title=" ">
<path fill="none" stroke="#63b8ff" d="M319.19,-154C344.02,-154 374.64,-154 400.96,-154"/>
<polygon fill="#63b8ff" stroke="#63b8ff" points="400.81,-157.5 410.81,-154 400.81,-150.5 400.81,-157.5"/>
</a>
</g>
</g>
<!-- Node14&#45;&gt;Node5 -->
<g id="edge19_Node000014_Node000005" class="edge">
<title>Node14&#45;&gt;Node5</title>
<g id="a_edge19_Node000014_Node000005"><a xlink:title=" ">
<path fill="none" stroke="#63b8ff" d="M319.19,-354C343.35,-354 373.01,-354 398.84,-354"/>
<polygon fill="#63b8ff" stroke="#63b8ff" points="398.51,-357.5 408.51,-354 398.51,-350.5 398.51,-357.5"/>
</a>
</g>
</g>
<!-- Node14&#45;&gt;Node6 -->
<g id="edge20_Node000014_Node000006" class="edge">
<title>Node14&#45;&gt;Node6</title>
<g id="a_edge20_Node000014_Node000006"><a xlink:title=" ">
<path fill="none" stroke="#63b8ff" d="M319.19,-366.62C346.85,-373.97 381.7,-383.24 409.78,-390.71"/>
<polygon fill="#63b8ff" stroke="#63b8ff" points="408.54,-394 419.11,-393.19 410.34,-387.24 408.54,-394"/>
</a>
</g>
</g>
<!-- Node15&#45;&gt;Node5 -->
<g id="edge22_Node000015_Node000005" class="edge">
<title>Node15&#45;&gt;Node5</title>
<g id="a_edge22_Node000015_Node000005"><a xlink:title=" ">
<path fill="none" stroke="#63b8ff" d="M319.19,-316.62C343.46,-323.07 373.27,-331 399.19,-337.89"/>
<polygon fill="#63b8ff" stroke="#63b8ff" points="398,-341.2 408.56,-340.39 399.8,-334.43 398,-341.2"/>
</a>
</g>
</g>
<!-- Node15&#45;&gt;Node6 -->
<g id="edge23_Node000015_Node000006" class="edge">
<title>Node15&#45;&gt;Node6</title>
<g id="a_edge23_Node000015_Node000006"><a xlink:title=" ">
<path fill="none" stroke="#63b8ff" d="M319,-314.45C329.08,-318.02 339.23,-322.76 347.75,-329 369.84,-345.18 361.66,-362.82 383.75,-379 389.34,-383.09 395.63,-386.54 402.15,-389.44"/>
<polygon fill="#63b8ff" stroke="#63b8ff" points="400.51,-392.55 411.09,-393 403.09,-386.05 400.51,-392.55"/>
</a>
</g>
</g>
</g>
</svg>
