<?xml version="1.0" encoding="UTF-8" standalone="no"?>
<!DOCTYPE svg PUBLIC "-//W3C//DTD SVG 1.1//EN"
 "http://www.w3.org/Graphics/SVG/1.1/DTD/svg11.dtd">
<!-- Generated by graphviz version 10.0.1 (20240210.2158)
 -->
<!-- Title: GEU::ShaderProgram::setUniform Pages: 1 -->
<svg width="300pt" height="242pt"
 viewBox="0.00 0.00 299.50 242.00" xmlns="http://www.w3.org/2000/svg" xmlns:xlink="http://www.w3.org/1999/xlink">
<g id="graph0" class="graph" transform="scale(1 1) rotate(0) translate(4 238)">
<title>GEU::ShaderProgram::setUniform</title>
<!-- Node1 -->
<g id="Node000001" class="node">
<title>Node1</title>
<g id="a_Node000001"><a xlink:title=" ">
<polygon fill="#999999" stroke="#666666" points="291.5,-136 181,-136 181,-104 291.5,-104 291.5,-136"/>
<text text-anchor="start" x="189" y="-122.5" font-family="Helvetica,sans-Serif" font-size="10.00">GEU::ShaderProgram</text>
<text text-anchor="middle" x="236.25" y="-110.5" font-family="Helvetica,sans-Serif" font-size="10.00">::setUniform</text>
</a>
</g>
</g>
<!-- Node2 -->
<g id="Node000002" class="node">
<title>Node2</title>
<g id="a_Node000002"><a xlink:href="../../dc/d01/a01764.html#ace74c673561e1309f22328c4b5e40f35" target="_top" xlink:title=" ">
<polygon fill="white" stroke="#666666" points="140.88,-234 4.12,-234 4.12,-214 140.88,-214 140.88,-234"/>
<text text-anchor="middle" x="72.5" y="-220.5" font-family="Helvetica,sans-Serif" font-size="10.00">GEU::Texture::applyTexture</text>
</a>
</g>
</g>
<!-- Node1&#45;&gt;Node2 -->
<g id="edge1_Node000001_Node000002" class="edge">
<title>Node1&#45;&gt;Node2</title>
<g id="a_edge1_Node000001_Node000002"><a xlink:title=" ">
<path fill="none" stroke="#63b8ff" d="M215.05,-144.84C198.22,-163.96 172.6,-189.65 145,-205 138.83,-208.43 132.01,-211.27 125.1,-213.6"/>
<polygon fill="#63b8ff" stroke="#63b8ff" points="217.53,-147.33 221.38,-137.46 212.21,-142.77 217.53,-147.33"/>
</a>
</g>
</g>
<!-- Node3 -->
<g id="Node000003" class="node">
<title>Node3</title>
<g id="a_Node000003"><a xlink:href="../../dc/d01/a01764.html#a667ade07e40b500c357e808d34c52d8e" target="_top" xlink:title=" ">
<polygon fill="white" stroke="#666666" points="140.88,-196 4.12,-196 4.12,-176 140.88,-176 140.88,-196"/>
<text text-anchor="middle" x="72.5" y="-182.5" font-family="Helvetica,sans-Serif" font-size="10.00">GEU::Texture::applyTexture</text>
</a>
</g>
</g>
<!-- Node1&#45;&gt;Node3 -->
<g id="edge2_Node000001_Node000003" class="edge">
<title>Node1&#45;&gt;Node3</title>
<g id="a_edge2_Node000001_Node000003"><a xlink:title=" ">
<path fill="none" stroke="#63b8ff" d="M197.59,-141.98C181.73,-150.61 162.83,-160.08 145,-167 136.74,-170.2 127.73,-173.06 118.99,-175.53"/>
<polygon fill="#63b8ff" stroke="#63b8ff" points="199.17,-145.11 206.22,-137.2 195.78,-138.99 199.17,-145.11"/>
</a>
</g>
</g>
<!-- Node4 -->
<g id="Node000004" class="node">
<title>Node4</title>
<g id="a_Node000004"><a xlink:href="../../da/d07/a01648.html#a5406c5a13dd42a4be5cce76be5901501" target="_top" xlink:title=" ">
<polygon fill="white" stroke="#666666" points="125.88,-158 19.13,-158 19.13,-126 125.88,-126 125.88,-158"/>
<text text-anchor="start" x="27.12" y="-144.5" font-family="Helvetica,sans-Serif" font-size="10.00">GEU::TriangleMesh::</text>
<text text-anchor="middle" x="72.5" y="-132.5" font-family="Helvetica,sans-Serif" font-size="10.00">drawModel</text>
</a>
</g>
</g>
<!-- Node1&#45;&gt;Node4 -->
<g id="edge3_Node000001_Node000004" class="edge">
<title>Node1&#45;&gt;Node4</title>
<g id="a_edge3_Node000001_Node000004"><a xlink:title=" ">
<path fill="none" stroke="#63b8ff" d="M169.57,-128.93C155.18,-130.89 140.11,-132.94 126.3,-134.82"/>
<polygon fill="#63b8ff" stroke="#63b8ff" points="170,-132.41 179.44,-127.59 169.06,-125.47 170,-132.41"/>
</a>
</g>
</g>
<!-- Node5 -->
<g id="Node000005" class="node">
<title>Node5</title>
<g id="a_Node000005"><a xlink:href="../../dd/d03/a01628.html#a1a9ecf6e24d267300766dc8a88fa74b0" target="_top" xlink:title=" ">
<polygon fill="white" stroke="#666666" points="145,-108 0,-108 0,-88 145,-88 145,-108"/>
<text text-anchor="middle" x="72.5" y="-94.5" font-family="Helvetica,sans-Serif" font-size="10.00">GEU::LinesModel::drawModel</text>
</a>
</g>
</g>
<!-- Node1&#45;&gt;Node5 -->
<g id="edge4_Node000001_Node000005" class="edge">
<title>Node1&#45;&gt;Node5</title>
<g id="a_edge4_Node000001_Node000005"><a xlink:title=" ">
<path fill="none" stroke="#63b8ff" d="M169.8,-111.1C161.79,-110.01 153.57,-108.89 145.48,-107.79"/>
<polygon fill="#63b8ff" stroke="#63b8ff" points="169.06,-114.53 179.44,-112.41 170,-107.59 169.06,-114.53"/>
</a>
</g>
</g>
<!-- Node6 -->
<g id="Node000006" class="node">
<title>Node6</title>
<g id="a_Node000006"><a xlink:href="../../de/d04/a01640.html#a1684ef907dd9c1eacc4c3d28637a8527" target="_top" xlink:title=" ">
<polygon fill="white" stroke="#666666" points="143.88,-70 1.12,-70 1.12,-50 143.88,-50 143.88,-70"/>
<text text-anchor="middle" x="72.5" y="-56.5" font-family="Helvetica,sans-Serif" font-size="10.00">GEU::PointCloud::drawModel</text>
</a>
</g>
</g>
<!-- Node1&#45;&gt;Node6 -->
<g id="edge5_Node000001_Node000006" class="edge">
<title>Node1&#45;&gt;Node6</title>
<g id="a_edge5_Node000001_Node000006"><a xlink:title=" ">
<path fill="none" stroke="#63b8ff" d="M192.41,-98.77C177.61,-91.92 160.78,-84.64 145,-79 136.17,-75.85 126.56,-72.95 117.34,-70.41"/>
<polygon fill="#63b8ff" stroke="#63b8ff" points="190.88,-101.92 201.42,-103.02 193.86,-95.59 190.88,-101.92"/>
</a>
</g>
</g>
<!-- Node7 -->
<g id="Node000007" class="node">
<title>Node7</title>
<g id="a_Node000007"><a xlink:href="../../da/d07/a01648.html#a6b7412ae2e18dc527a051de08de02fda" target="_top" xlink:title=" ">
<polygon fill="white" stroke="#666666" points="125.88,-32 19.13,-32 19.13,0 125.88,0 125.88,-32"/>
<text text-anchor="start" x="27.12" y="-18.5" font-family="Helvetica,sans-Serif" font-size="10.00">GEU::TriangleMesh::</text>
<text text-anchor="middle" x="72.5" y="-6.5" font-family="Helvetica,sans-Serif" font-size="10.00">drawModel</text>
</a>
</g>
</g>
<!-- Node1&#45;&gt;Node7 -->
<g id="edge6_Node000001_Node000007" class="edge">
<title>Node1&#45;&gt;Node7</title>
<g id="a_edge6_Node000001_Node000007"><a xlink:title=" ">
<path fill="none" stroke="#63b8ff" d="M212.62,-95.74C195.45,-78.5 170.51,-55.87 145,-41 139.09,-37.56 132.63,-34.48 126.09,-31.77"/>
<polygon fill="#63b8ff" stroke="#63b8ff" points="209.85,-97.91 219.34,-102.62 214.86,-93.02 209.85,-97.91"/>
</a>
</g>
</g>
</g>
</svg>
