<?xml version="1.0" encoding="UTF-8" standalone="no"?>
<!DOCTYPE svg PUBLIC "-//W3C//DTD SVG 1.1//EN"
 "http://www.w3.org/Graphics/SVG/1.1/DTD/svg11.dtd">
<!-- Generated by graphviz version 10.0.1 (20240210.2158)
 -->
<!-- Title: GEU::SpectralAnalysisGUIAdapter::renderGuiObject Pages: 1 -->
<svg width="565pt" height="454pt"
 viewBox="0.00 0.00 565.25 454.00" xmlns="http://www.w3.org/2000/svg" xmlns:xlink="http://www.w3.org/1999/xlink">
<g id="graph0" class="graph" transform="scale(1 1) rotate(0) translate(4 450)">
<title>GEU::SpectralAnalysisGUIAdapter::renderGuiObject</title>
<!-- Node1 -->
<g id="Node000001" class="node">
<title>Node1</title>
<g id="a_Node000001"><a xlink:title="Custom module GUI window contents.">
<polygon fill="#999999" stroke="#666666" points="166.75,-230 0,-230 0,-198 166.75,-198 166.75,-230"/>
<text text-anchor="start" x="8" y="-216.5" font-family="Helvetica,sans-Serif" font-size="10.00">GEU::SpectralAnalysisGUIAdapter</text>
<text text-anchor="middle" x="83.38" y="-204.5" font-family="Helvetica,sans-Serif" font-size="10.00">::renderGuiObject</text>
</a>
</g>
</g>
<!-- Node2 -->
<g id="Node000002" class="node">
<title>Node2</title>
<g id="a_Node000002"><a xlink:href="../../d4/d07/class_g_e_u_1_1_point_cloud.html#a4848e9c773e19b0f0d9b7e4c2799c993" target="_top" xlink:title=" ">
<polygon fill="white" stroke="#666666" points="352.62,-446 219.62,-446 219.62,-414 352.62,-414 352.62,-446"/>
<text text-anchor="start" x="227.62" y="-432.5" font-family="Helvetica,sans-Serif" font-size="10.00">GEU::PointCloud::Attribute</text>
<text text-anchor="middle" x="286.12" y="-420.5" font-family="Helvetica,sans-Serif" font-size="10.00">ToString</text>
</a>
</g>
</g>
<!-- Node1&#45;&gt;Node2 -->
<g id="edge1_Node000001_Node000002" class="edge">
<title>Node1&#45;&gt;Node2</title>
<g id="a_edge1_Node000001_Node000002"><a xlink:title=" ">
<path fill="none" stroke="#63b8ff" d="M89.91,-230.32C103.25,-267.17 140.73,-357.33 202.75,-405 204.9,-406.65 207.16,-408.2 209.5,-409.64"/>
<polygon fill="#63b8ff" stroke="#63b8ff" points="207.72,-412.66 218.19,-414.3 211.03,-406.49 207.72,-412.66"/>
</a>
</g>
</g>
<!-- Node3 -->
<g id="Node000003" class="node">
<title>Node3</title>
<g id="a_Node000003"><a xlink:href="../../d3/d07/namespace_g_e_u_1_1_gui_utilities.html#a95d5f616a34dd70aca4886e546720966" target="_top" xlink:title=" ">
<polygon fill="white" stroke="#666666" points="334.25,-396 238,-396 238,-364 334.25,-364 334.25,-396"/>
<text text-anchor="start" x="246" y="-382.5" font-family="Helvetica,sans-Serif" font-size="10.00">GEU::GuiUtilities::</text>
<text text-anchor="middle" x="286.12" y="-370.5" font-family="Helvetica,sans-Serif" font-size="10.00">BeginCombo</text>
</a>
</g>
</g>
<!-- Node1&#45;&gt;Node3 -->
<g id="edge2_Node000001_Node000003" class="edge">
<title>Node1&#45;&gt;Node3</title>
<g id="a_edge2_Node000001_Node000003"><a xlink:title=" ">
<path fill="none" stroke="#63b8ff" d="M93.54,-230.15C110.98,-259.43 151.8,-321.36 202.75,-355 210.12,-359.86 218.47,-363.81 226.96,-367.01"/>
<polygon fill="#63b8ff" stroke="#63b8ff" points="225.7,-370.28 236.29,-370.19 227.95,-363.65 225.7,-370.28"/>
</a>
</g>
</g>
<!-- Node5 -->
<g id="Node000005" class="node">
<title>Node5</title>
<g id="a_Node000005"><a xlink:href="../../d3/d07/namespace_g_e_u_1_1_gui_utilities.html#a15f9ea36c082c71e09e7275ca63bd2e1" target="_top" xlink:title=" ">
<polygon fill="white" stroke="#666666" points="334.25,-296 238,-296 238,-264 334.25,-264 334.25,-296"/>
<text text-anchor="start" x="246" y="-282.5" font-family="Helvetica,sans-Serif" font-size="10.00">GEU::GuiUtilities::</text>
<text text-anchor="middle" x="286.12" y="-270.5" font-family="Helvetica,sans-Serif" font-size="10.00">ComboItem</text>
</a>
</g>
</g>
<!-- Node1&#45;&gt;Node5 -->
<g id="edge4_Node000001_Node000005" class="edge">
<title>Node1&#45;&gt;Node5</title>
<g id="a_edge4_Node000001_Node000005"><a xlink:title=" ">
<path fill="none" stroke="#63b8ff" d="M134.51,-230.48C162.52,-239.69 197.57,-251.21 226.8,-260.82"/>
<polygon fill="#63b8ff" stroke="#63b8ff" points="225.66,-264.13 236.26,-263.93 227.85,-257.49 225.66,-264.13"/>
</a>
</g>
</g>
<!-- Node7 -->
<g id="Node000007" class="node">
<title>Node7</title>
<g id="a_Node000007"><a xlink:href="../../d3/d07/namespace_g_e_u_1_1_gui_utilities.html#a209aa4146958e58cba0dde1a862fe007" target="_top" xlink:title=" ">
<polygon fill="white" stroke="#666666" points="334.25,-346 238,-346 238,-314 334.25,-314 334.25,-346"/>
<text text-anchor="start" x="246" y="-332.5" font-family="Helvetica,sans-Serif" font-size="10.00">GEU::GuiUtilities::</text>
<text text-anchor="middle" x="286.12" y="-320.5" font-family="Helvetica,sans-Serif" font-size="10.00">ComboPointCloud</text>
</a>
</g>
</g>
<!-- Node1&#45;&gt;Node7 -->
<g id="edge6_Node000001_Node000007" class="edge">
<title>Node1&#45;&gt;Node7</title>
<g id="a_edge6_Node000001_Node000007"><a xlink:title=" ">
<path fill="none" stroke="#63b8ff" d="M101.44,-230.38C123.29,-250.54 163.1,-284.61 202.75,-305 210.33,-308.9 218.62,-312.3 226.92,-315.23"/>
<polygon fill="#63b8ff" stroke="#63b8ff" points="225.76,-318.53 236.36,-318.35 227.96,-311.89 225.76,-318.53"/>
</a>
</g>
</g>
<!-- Node9 -->
<g id="Node000009" class="node">
<title>Node9</title>
<g id="a_Node000009"><a xlink:href="../../d1/d01/class_g_e_u_1_1_singleton.html#a47c7e7c2110f4cc59c9ff1f5594c366e" target="_top" xlink:title=" ">
<polygon fill="white" stroke="#666666" points="557.25,-249 405.5,-249 405.5,-217 557.25,-217 557.25,-249"/>
<text text-anchor="start" x="413.5" y="-235.5" font-family="Helvetica,sans-Serif" font-size="10.00">GEU::Singleton&lt; LocaleStrings</text>
<text text-anchor="middle" x="481.38" y="-223.5" font-family="Helvetica,sans-Serif" font-size="10.00"> &gt;::getInstance</text>
</a>
</g>
</g>
<!-- Node1&#45;&gt;Node9 -->
<g id="edge9_Node000001_Node000009" class="edge">
<title>Node1&#45;&gt;Node9</title>
<g id="a_edge9_Node000001_Node000009"><a xlink:title=" ">
<path fill="none" stroke="#63b8ff" d="M166.91,-217.96C233.33,-221.15 326.41,-225.61 393.87,-228.85"/>
<polygon fill="#63b8ff" stroke="#63b8ff" points="393.64,-232.34 403.8,-229.33 393.98,-225.35 393.64,-232.34"/>
</a>
</g>
</g>
<!-- Node10 -->
<g id="Node000010" class="node">
<title>Node10</title>
<g id="a_Node000010"><a xlink:href="../../d2/d04/class_locale_strings.html#ac66087ac25e72051ea7b5bf3d00dd71f" target="_top" xlink:title=" ">
<polygon fill="white" stroke="#666666" points="346.25,-108 226,-108 226,-88 346.25,-88 346.25,-108"/>
<text text-anchor="middle" x="286.12" y="-94.5" font-family="Helvetica,sans-Serif" font-size="10.00">LocaleStrings::getString</text>
</a>
</g>
</g>
<!-- Node1&#45;&gt;Node10 -->
<g id="edge10_Node000001_Node000010" class="edge">
<title>Node1&#45;&gt;Node10</title>
<g id="a_edge10_Node000001_Node000010"><a xlink:title=" ">
<path fill="none" stroke="#63b8ff" d="M99.53,-197.54C120.57,-175.73 160.78,-137.62 202.75,-117 206.71,-115.05 210.88,-113.3 215.15,-111.73"/>
<polygon fill="#63b8ff" stroke="#63b8ff" points="216.09,-115.1 224.49,-108.64 213.89,-108.46 216.09,-115.1"/>
</a>
</g>
</g>
<!-- Node11 -->
<g id="Node000011" class="node">
<title>Node11</title>
<g id="a_Node000011"><a xlink:href="../../d4/d07/class_g_e_u_1_1_point_cloud.html#a5f007678aeec0b4741e343e5aae1e389" target="_top" xlink:title=" ">
<polygon fill="white" stroke="#666666" points="344,-70 228.25,-70 228.25,-50 344,-50 344,-70"/>
<text text-anchor="middle" x="286.12" y="-56.5" font-family="Helvetica,sans-Serif" font-size="10.00">GEU::PointCloud::have</text>
</a>
</g>
</g>
<!-- Node1&#45;&gt;Node11 -->
<g id="edge11_Node000001_Node000011" class="edge">
<title>Node1&#45;&gt;Node11</title>
<g id="a_edge11_Node000001_Node000011"><a xlink:title=" ">
<path fill="none" stroke="#63b8ff" d="M93.79,-197.77C111.33,-169.03 151.91,-109.39 202.75,-79 207.31,-76.27 212.23,-73.94 217.32,-71.94"/>
<polygon fill="#63b8ff" stroke="#63b8ff" points="218.18,-75.34 226.5,-68.77 215.9,-68.72 218.18,-75.34"/>
</a>
</g>
</g>
<!-- Node12 -->
<g id="Node000012" class="node">
<title>Node12</title>
<g id="a_Node000012"><a xlink:href="../../d0/d05/class_g_e_u_1_1_spectral_analysis_g_u_i_adapter.html#ad0522e4ac2f20600b422631bf2a7c5f4" target="_top" xlink:title=" ">
<polygon fill="white" stroke="#666666" points="369.5,-32 202.75,-32 202.75,0 369.5,0 369.5,-32"/>
<text text-anchor="start" x="210.75" y="-18.5" font-family="Helvetica,sans-Serif" font-size="10.00">GEU::SpectralAnalysisGUIAdapter</text>
<text text-anchor="middle" x="286.12" y="-6.5" font-family="Helvetica,sans-Serif" font-size="10.00">::resetState</text>
</a>
</g>
</g>
<!-- Node1&#45;&gt;Node12 -->
<g id="edge12_Node000001_Node000012" class="edge">
<title>Node1&#45;&gt;Node12</title>
<g id="a_edge12_Node000001_Node000012"><a xlink:title=" ">
<path fill="none" stroke="#63b8ff" d="M91.01,-197.69C105.8,-163.39 144.79,-83.5 202.75,-41 204.28,-39.88 205.87,-38.8 207.49,-37.78"/>
<polygon fill="#63b8ff" stroke="#63b8ff" points="208.82,-41.04 215.88,-33.14 205.44,-34.91 208.82,-41.04"/>
</a>
</g>
</g>
<!-- Node13 -->
<g id="Node000013" class="node">
<title>Node13</title>
<g id="a_Node000013"><a xlink:href="../../d0/d05/class_g_e_u_1_1_spectral_analysis_g_u_i_adapter.html#a999da4a334d859af4fd1d311dc6d0d6c" target="_top" xlink:title=" ">
<polygon fill="white" stroke="#666666" points="369.5,-208 202.75,-208 202.75,-176 369.5,-176 369.5,-208"/>
<text text-anchor="start" x="210.75" y="-194.5" font-family="Helvetica,sans-Serif" font-size="10.00">GEU::SpectralAnalysisGUIAdapter</text>
<text text-anchor="middle" x="286.12" y="-182.5" font-family="Helvetica,sans-Serif" font-size="10.00">::ShowHyperspectral</text>
</a>
</g>
</g>
<!-- Node1&#45;&gt;Node13 -->
<g id="edge13_Node000001_Node000013" class="edge">
<title>Node1&#45;&gt;Node13</title>
<g id="a_edge13_Node000001_Node000013"><a xlink:title=" ">
<path fill="none" stroke="#63b8ff" d="M167.19,-204.92C175.12,-204.06 183.19,-203.17 191.22,-202.29"/>
<polygon fill="#63b8ff" stroke="#63b8ff" points="191.44,-205.79 201,-201.22 190.68,-198.83 191.44,-205.79"/>
</a>
</g>
</g>
<!-- Node16 -->
<g id="Node000016" class="node">
<title>Node16</title>
<g id="a_Node000016"><a xlink:href="../../d0/d05/class_g_e_u_1_1_spectral_analysis_g_u_i_adapter.html#a7f21ce3f327dd2c34f70be9728401450" target="_top" xlink:title=" ">
<polygon fill="white" stroke="#666666" points="369.5,-158 202.75,-158 202.75,-126 369.5,-126 369.5,-158"/>
<text text-anchor="start" x="210.75" y="-144.5" font-family="Helvetica,sans-Serif" font-size="10.00">GEU::SpectralAnalysisGUIAdapter</text>
<text text-anchor="middle" x="286.12" y="-132.5" font-family="Helvetica,sans-Serif" font-size="10.00">::ShowMultispectral</text>
</a>
</g>
</g>
<!-- Node1&#45;&gt;Node16 -->
<g id="edge17_Node000001_Node000016" class="edge">
<title>Node1&#45;&gt;Node16</title>
<g id="a_edge17_Node000001_Node000016"><a xlink:title=" ">
<path fill="none" stroke="#63b8ff" d="M123.52,-197.51C146.44,-188.09 176.03,-176.34 202.75,-167 207.69,-165.27 212.82,-163.55 218,-161.86"/>
<polygon fill="#63b8ff" stroke="#63b8ff" points="218.75,-165.3 227.21,-158.92 216.61,-158.63 218.75,-165.3"/>
</a>
</g>
</g>
<!-- Node4 -->
<g id="Node000004" class="node">
<title>Node4</title>
<g id="a_Node000004"><a xlink:href="../../d3/d07/namespace_g_e_u_1_1_gui_utilities.html#a76a49056660c5a9246a94564afbb676a" target="_top" xlink:title=" ">
<polygon fill="white" stroke="#666666" points="538.88,-384 423.88,-384 423.88,-364 538.88,-364 538.88,-384"/>
<text text-anchor="middle" x="481.38" y="-370.5" font-family="Helvetica,sans-Serif" font-size="10.00">GEU::GuiUtilities::Text</text>
</a>
</g>
</g>
<!-- Node3&#45;&gt;Node4 -->
<g id="edge3_Node000003_Node000004" class="edge">
<title>Node3&#45;&gt;Node4</title>
<g id="a_edge3_Node000003_Node000004"><a xlink:title=" ">
<path fill="none" stroke="#63b8ff" d="M334.4,-378.53C357.86,-377.8 386.62,-376.91 412.39,-376.11"/>
<polygon fill="#63b8ff" stroke="#63b8ff" points="412.21,-379.62 422.1,-375.81 412,-372.62 412.21,-379.62"/>
</a>
</g>
</g>
<!-- Node6 -->
<g id="Node000006" class="node">
<title>Node6</title>
<g id="a_Node000006"><a xlink:href="../../d3/d07/namespace_g_e_u_1_1_gui_utilities.html#ab5bd8ee6ec7674dc502b5330d41beadf" target="_top" xlink:title=" ">
<polygon fill="white" stroke="#666666" points="529.5,-299 433.25,-299 433.25,-267 529.5,-267 529.5,-299"/>
<text text-anchor="start" x="441.25" y="-285.5" font-family="Helvetica,sans-Serif" font-size="10.00">GEU::GuiUtilities::</text>
<text text-anchor="middle" x="481.38" y="-273.5" font-family="Helvetica,sans-Serif" font-size="10.00">Selectable</text>
</a>
</g>
</g>
<!-- Node5&#45;&gt;Node6 -->
<g id="edge5_Node000005_Node000006" class="edge">
<title>Node5&#45;&gt;Node6</title>
<g id="a_edge5_Node000005_Node000006"><a xlink:title=" ">
<path fill="none" stroke="#63b8ff" d="M334.4,-280.73C360.72,-281.14 393.72,-281.65 421.68,-282.09"/>
<polygon fill="#63b8ff" stroke="#63b8ff" points="421.35,-285.58 431.41,-282.24 421.46,-278.58 421.35,-285.58"/>
</a>
</g>
</g>
<!-- Node7&#45;&gt;Node4 -->
<g id="edge8_Node000007_Node000004" class="edge">
<title>Node7&#45;&gt;Node4</title>
<g id="a_edge8_Node000007_Node000004"><a xlink:title=" ">
<path fill="none" stroke="#63b8ff" d="M334.4,-340.76C361.33,-346.9 395.25,-354.62 423.62,-361.08"/>
<polygon fill="#63b8ff" stroke="#63b8ff" points="422.58,-364.43 433.11,-363.24 424.14,-357.61 422.58,-364.43"/>
</a>
</g>
</g>
<!-- Node8 -->
<g id="Node000008" class="node">
<title>Node8</title>
<g id="a_Node000008"><a xlink:href="../../db/d04/class_g_e_u_1_1_model3_d.html#ab1c9f2d432831bde695e19caf32e3ebd" target="_top" xlink:title=" ">
<polygon fill="white" stroke="#666666" points="544.5,-340 418.25,-340 418.25,-320 544.5,-320 544.5,-340"/>
<text text-anchor="middle" x="481.38" y="-326.5" font-family="Helvetica,sans-Serif" font-size="10.00">GEU::Model3D::getName</text>
</a>
</g>
</g>
<!-- Node7&#45;&gt;Node8 -->
<g id="edge7_Node000007_Node000008" class="edge">
<title>Node7&#45;&gt;Node8</title>
<g id="a_edge7_Node000007_Node000008"><a xlink:title=" ">
<path fill="none" stroke="#63b8ff" d="M334.4,-330C356.1,-330 382.35,-330 406.57,-330"/>
<polygon fill="#63b8ff" stroke="#63b8ff" points="406.38,-333.5 416.38,-330 406.38,-326.5 406.38,-333.5"/>
</a>
</g>
</g>
<!-- Node13&#45;&gt;Node9 -->
<g id="edge16_Node000013_Node000009" class="edge">
<title>Node13&#45;&gt;Node9</title>
<g id="a_edge16_Node000013_Node000009"><a xlink:title=" ">
<path fill="none" stroke="#63b8ff" d="M364.89,-208.5C374.57,-210.55 384.51,-212.66 394.3,-214.74"/>
<polygon fill="#63b8ff" stroke="#63b8ff" points="393.29,-218.1 403.8,-216.75 394.74,-211.25 393.29,-218.1"/>
</a>
</g>
</g>
<!-- Node14 -->
<g id="Node000014" class="node">
<title>Node14</title>
<g id="a_Node000014"><a xlink:href="../../d3/d07/namespace_g_e_u_1_1_gui_utilities.html#a5dc4d0131d6d475d5f52b3923404e091" target="_top" xlink:title=" ">
<polygon fill="white" stroke="#666666" points="529.5,-199 433.25,-199 433.25,-167 529.5,-167 529.5,-199"/>
<text text-anchor="start" x="441.25" y="-185.5" font-family="Helvetica,sans-Serif" font-size="10.00">GEU::GuiUtilities::</text>
<text text-anchor="middle" x="481.38" y="-173.5" font-family="Helvetica,sans-Serif" font-size="10.00">BeginPlot</text>
</a>
</g>
</g>
<!-- Node13&#45;&gt;Node14 -->
<g id="edge14_Node000013_Node000014" class="edge">
<title>Node13&#45;&gt;Node14</title>
<g id="a_edge14_Node000013_Node000014"><a xlink:title=" ">
<path fill="none" stroke="#63b8ff" d="M369.92,-188.14C387.23,-187.34 405.15,-186.5 421.38,-185.75"/>
<polygon fill="#63b8ff" stroke="#63b8ff" points="421.54,-189.24 431.37,-185.28 421.21,-182.25 421.54,-189.24"/>
</a>
</g>
</g>
<!-- Node15 -->
<g id="Node000015" class="node">
<title>Node15</title>
<g id="a_Node000015"><a xlink:href="../../d3/d07/namespace_g_e_u_1_1_gui_utilities.html#a4a9fd6dae16881311edd3998ece123bf" target="_top" xlink:title=" ">
<polygon fill="white" stroke="#666666" points="529.5,-149 433.25,-149 433.25,-117 529.5,-117 529.5,-149"/>
<text text-anchor="start" x="441.25" y="-135.5" font-family="Helvetica,sans-Serif" font-size="10.00">GEU::GuiUtilities::</text>
<text text-anchor="middle" x="481.38" y="-123.5" font-family="Helvetica,sans-Serif" font-size="10.00">Button</text>
</a>
</g>
</g>
<!-- Node13&#45;&gt;Node15 -->
<g id="edge15_Node000013_Node000015" class="edge">
<title>Node13&#45;&gt;Node15</title>
<g id="a_edge15_Node000013_Node000015"><a xlink:title=" ">
<path fill="none" stroke="#63b8ff" d="M341.19,-175.62C350.63,-172.75 360.35,-169.79 369.5,-167 386.56,-161.8 405.09,-156.12 422.03,-150.93"/>
<polygon fill="#63b8ff" stroke="#63b8ff" points="422.92,-154.31 431.46,-148.03 420.87,-147.62 422.92,-154.31"/>
</a>
</g>
</g>
<!-- Node16&#45;&gt;Node9 -->
<g id="edge20_Node000016_Node000009" class="edge">
<title>Node16&#45;&gt;Node9</title>
<g id="a_edge20_Node000016_Node000009"><a xlink:title=" ">
<path fill="none" stroke="#63b8ff" d="M353.36,-158.44C359.01,-160.93 364.47,-163.76 369.5,-167 389.88,-180.14 385.3,-194.58 405.5,-208 407.34,-209.22 409.25,-210.39 411.2,-211.51"/>
<polygon fill="#63b8ff" stroke="#63b8ff" points="409.47,-214.55 419.97,-215.96 412.65,-208.31 409.47,-214.55"/>
</a>
</g>
</g>
<!-- Node16&#45;&gt;Node14 -->
<g id="edge18_Node000016_Node000014" class="edge">
<title>Node16&#45;&gt;Node14</title>
<g id="a_edge18_Node000016_Node000014"><a xlink:title=" ">
<path fill="none" stroke="#63b8ff" d="M364.89,-158.5C383.82,-162.52 403.76,-166.75 421.64,-170.54"/>
<polygon fill="#63b8ff" stroke="#63b8ff" points="420.78,-173.93 431.29,-172.59 422.23,-167.09 420.78,-173.93"/>
</a>
</g>
</g>
<!-- Node16&#45;&gt;Node15 -->
<g id="edge19_Node000016_Node000015" class="edge">
<title>Node16&#45;&gt;Node15</title>
<g id="a_edge19_Node000016_Node000015"><a xlink:title=" ">
<path fill="none" stroke="#63b8ff" d="M369.92,-138.14C387.23,-137.34 405.15,-136.5 421.38,-135.75"/>
<polygon fill="#63b8ff" stroke="#63b8ff" points="421.54,-139.24 431.37,-135.28 421.21,-132.25 421.54,-139.24"/>
</a>
</g>
</g>
</g>
</svg>
