<?xml version="1.0" encoding="UTF-8" standalone="no"?>
<!DOCTYPE svg PUBLIC "-//W3C//DTD SVG 1.1//EN"
 "http://www.w3.org/Graphics/SVG/1.1/DTD/svg11.dtd">
<!-- Generated by graphviz version 10.0.1 (20240210.2158)
 -->
<!-- Title: GEU::SpectralAnalysisGUIAdapter::ShowMultispectral Pages: 1 -->
<svg width="363pt" height="140pt"
 viewBox="0.00 0.00 362.50 140.00" xmlns="http://www.w3.org/2000/svg" xmlns:xlink="http://www.w3.org/1999/xlink">
<g id="graph0" class="graph" transform="scale(1 1) rotate(0) translate(4 136)">
<title>GEU::SpectralAnalysisGUIAdapter::ShowMultispectral</title>
<!-- Node1 -->
<g id="Node000001" class="node">
<title>Node1</title>
<g id="a_Node000001"><a xlink:title=" ">
<polygon fill="#999999" stroke="#666666" points="166.75,-82 0,-82 0,-50 166.75,-50 166.75,-82"/>
<text text-anchor="start" x="8" y="-68.5" font-family="Helvetica,sans-Serif" font-size="10.00">GEU::SpectralAnalysisGUIAdapter</text>
<text text-anchor="middle" x="83.38" y="-56.5" font-family="Helvetica,sans-Serif" font-size="10.00">::ShowMultispectral</text>
</a>
</g>
</g>
<!-- Node2 -->
<g id="Node000002" class="node">
<title>Node2</title>
<g id="a_Node000002"><a xlink:href="../../d3/d07/namespace_g_e_u_1_1_gui_utilities.html#a5dc4d0131d6d475d5f52b3923404e091" target="_top" xlink:title=" ">
<polygon fill="white" stroke="#666666" points="326.75,-132 230.5,-132 230.5,-100 326.75,-100 326.75,-132"/>
<text text-anchor="start" x="238.5" y="-118.5" font-family="Helvetica,sans-Serif" font-size="10.00">GEU::GuiUtilities::</text>
<text text-anchor="middle" x="278.62" y="-106.5" font-family="Helvetica,sans-Serif" font-size="10.00">BeginPlot</text>
</a>
</g>
</g>
<!-- Node1&#45;&gt;Node2 -->
<g id="edge1_Node000001_Node000002" class="edge">
<title>Node1&#45;&gt;Node2</title>
<g id="a_edge1_Node000001_Node000002"><a xlink:title=" ">
<path fill="none" stroke="#63b8ff" d="M147.92,-82.44C170.88,-88.38 196.68,-95.06 219.18,-100.88"/>
<polygon fill="#63b8ff" stroke="#63b8ff" points="218.26,-104.25 228.81,-103.37 220.01,-97.48 218.26,-104.25"/>
</a>
</g>
</g>
<!-- Node3 -->
<g id="Node000003" class="node">
<title>Node3</title>
<g id="a_Node000003"><a xlink:href="../../d3/d07/namespace_g_e_u_1_1_gui_utilities.html#a4a9fd6dae16881311edd3998ece123bf" target="_top" xlink:title=" ">
<polygon fill="white" stroke="#666666" points="326.75,-82 230.5,-82 230.5,-50 326.75,-50 326.75,-82"/>
<text text-anchor="start" x="238.5" y="-68.5" font-family="Helvetica,sans-Serif" font-size="10.00">GEU::GuiUtilities::</text>
<text text-anchor="middle" x="278.62" y="-56.5" font-family="Helvetica,sans-Serif" font-size="10.00">Button</text>
</a>
</g>
</g>
<!-- Node1&#45;&gt;Node3 -->
<g id="edge2_Node000001_Node000003" class="edge">
<title>Node1&#45;&gt;Node3</title>
<g id="a_edge2_Node000001_Node000003"><a xlink:title=" ">
<path fill="none" stroke="#63b8ff" d="M167.17,-66C184.48,-66 202.4,-66 218.63,-66"/>
<polygon fill="#63b8ff" stroke="#63b8ff" points="218.61,-69.5 228.61,-66 218.61,-62.5 218.61,-69.5"/>
</a>
</g>
</g>
<!-- Node4 -->
<g id="Node000004" class="node">
<title>Node4</title>
<g id="a_Node000004"><a xlink:href="../../d1/d01/class_g_e_u_1_1_singleton.html#a47c7e7c2110f4cc59c9ff1f5594c366e" target="_top" xlink:title=" ">
<polygon fill="white" stroke="#666666" points="354.5,-32 202.75,-32 202.75,0 354.5,0 354.5,-32"/>
<text text-anchor="start" x="210.75" y="-18.5" font-family="Helvetica,sans-Serif" font-size="10.00">GEU::Singleton&lt; LocaleStrings</text>
<text text-anchor="middle" x="278.62" y="-6.5" font-family="Helvetica,sans-Serif" font-size="10.00"> &gt;::getInstance</text>
</a>
</g>
</g>
<!-- Node1&#45;&gt;Node4 -->
<g id="edge3_Node000001_Node000004" class="edge">
<title>Node1&#45;&gt;Node4</title>
<g id="a_edge3_Node000001_Node000004"><a xlink:title=" ">
<path fill="none" stroke="#63b8ff" d="M147.92,-49.56C165.5,-45.01 184.75,-40.03 202.9,-35.33"/>
<polygon fill="#63b8ff" stroke="#63b8ff" points="203.77,-38.72 212.58,-32.83 202.02,-31.95 203.77,-38.72"/>
</a>
</g>
</g>
</g>
</svg>
