<?xml version="1.0" encoding="UTF-8" standalone="no"?>
<!DOCTYPE svg PUBLIC "-//W3C//DTD SVG 1.1//EN"
 "http://www.w3.org/Graphics/SVG/1.1/DTD/svg11.dtd">
<!-- Generated by graphviz version 10.0.1 (20240210.2158)
 -->
<!-- Title: C:/GitHub/GEU/GEU/Source/Core/Framebuffer.h Pages: 1 -->
<svg width="2496pt" height="404pt"
 viewBox="0.00 0.00 2495.50 404.00" xmlns="http://www.w3.org/2000/svg" xmlns:xlink="http://www.w3.org/1999/xlink">
<g id="graph0" class="graph" transform="scale(1 1) rotate(0) translate(4 400)">
<title>C:/GitHub/GEU/GEU/Source/Core/Framebuffer.h</title>
<!-- Node1 -->
<g id="Node000001" class="node">
<title>Node1</title>
<g id="a_Node000001"><a xlink:title=" ">
<polygon fill="#999999" stroke="#666666" points="1098.5,-396 958,-396 958,-364 1098.5,-364 1098.5,-396"/>
<text text-anchor="start" x="966" y="-382.5" font-family="Helvetica,sans-Serif" font-size="10.00">C:/GitHub/GEU/GEU/Source</text>
<text text-anchor="middle" x="1028.25" y="-370.5" font-family="Helvetica,sans-Serif" font-size="10.00">/Core/Framebuffer.h</text>
</a>
</g>
</g>
<!-- Node2 -->
<g id="Node000002" class="node">
<title>Node2</title>
<g id="a_Node000002"><a xlink:href="../../da/dde/_f_b_o_render_8h.html" target="_top" xlink:title=" ">
<polygon fill="white" stroke="#666666" points="860.5,-328 720,-328 720,-296 860.5,-296 860.5,-328"/>
<text text-anchor="start" x="728" y="-314.5" font-family="Helvetica,sans-Serif" font-size="10.00">C:/GitHub/GEU/GEU/Source</text>
<text text-anchor="middle" x="790.25" y="-302.5" font-family="Helvetica,sans-Serif" font-size="10.00">/Core/FBORender.h</text>
</a>
</g>
</g>
<!-- Node1&#45;&gt;Node2 -->
<g id="edge1_Node000001_Node000002" class="edge">
<title>Node1&#45;&gt;Node2</title>
<g id="a_edge1_Node000001_Node000002"><a xlink:title=" ">
<path fill="none" stroke="#63b8ff" d="M961.45,-360.47C925.08,-350.39 880.61,-338.06 846.11,-328.49"/>
<polygon fill="#63b8ff" stroke="#63b8ff" points="960.42,-363.82 970.99,-363.12 962.29,-357.08 960.42,-363.82"/>
</a>
</g>
</g>
<!-- Node29 -->
<g id="Node000029" class="node">
<title>Node29</title>
<g id="a_Node000029"><a xlink:href="../../df/d98/_f_b_o_screenshot_8h.html" target="_top" xlink:title=" ">
<polygon fill="white" stroke="#666666" points="1098.5,-328 958,-328 958,-296 1098.5,-296 1098.5,-328"/>
<text text-anchor="start" x="966" y="-314.5" font-family="Helvetica,sans-Serif" font-size="10.00">C:/GitHub/GEU/GEU/Source</text>
<text text-anchor="middle" x="1028.25" y="-302.5" font-family="Helvetica,sans-Serif" font-size="10.00">/Core/FBOScreenshot.h</text>
</a>
</g>
</g>
<!-- Node1&#45;&gt;Node29 -->
<g id="edge35_Node000001_Node000029" class="edge">
<title>Node1&#45;&gt;Node29</title>
<g id="a_edge35_Node000001_Node000029"><a xlink:title=" ">
<path fill="none" stroke="#63b8ff" d="M1028.25,-352.31C1028.25,-344.12 1028.25,-335.38 1028.25,-328.22"/>
<polygon fill="#63b8ff" stroke="#63b8ff" points="1024.75,-352.18 1028.25,-362.18 1031.75,-352.18 1024.75,-352.18"/>
</a>
</g>
</g>
<!-- Node31 -->
<g id="Node000031" class="node">
<title>Node31</title>
<g id="a_Node000031"><a xlink:href="../../d6/d05/_framebuffer_8cpp.html" target="_top" xlink:title=" ">
<polygon fill="white" stroke="#666666" points="1257.5,-328 1117,-328 1117,-296 1257.5,-296 1257.5,-328"/>
<text text-anchor="start" x="1125" y="-314.5" font-family="Helvetica,sans-Serif" font-size="10.00">C:/GitHub/GEU/GEU/Source</text>
<text text-anchor="middle" x="1187.25" y="-302.5" font-family="Helvetica,sans-Serif" font-size="10.00">/Core/Framebuffer.cpp</text>
</a>
</g>
</g>
<!-- Node1&#45;&gt;Node31 -->
<g id="edge38_Node000001_Node000031" class="edge">
<title>Node1&#45;&gt;Node31</title>
<g id="a_edge38_Node000001_Node000031"><a xlink:title=" ">
<path fill="none" stroke="#63b8ff" d="M1076.05,-359.16C1099.72,-349.33 1127.87,-337.65 1149.93,-328.49"/>
<polygon fill="#63b8ff" stroke="#63b8ff" points="1074.82,-355.88 1066.93,-362.95 1077.5,-362.34 1074.82,-355.88"/>
</a>
</g>
</g>
<!-- Node3 -->
<g id="Node000003" class="node">
<title>Node3</title>
<g id="a_Node000003"><a xlink:href="../../d6/da1/_f_b_o_render_8cpp.html" target="_top" xlink:title=" ">
<polygon fill="white" stroke="#666666" points="664.5,-260 524,-260 524,-228 664.5,-228 664.5,-260"/>
<text text-anchor="start" x="532" y="-246.5" font-family="Helvetica,sans-Serif" font-size="10.00">C:/GitHub/GEU/GEU/Source</text>
<text text-anchor="middle" x="594.25" y="-234.5" font-family="Helvetica,sans-Serif" font-size="10.00">/Core/FBORender.cpp</text>
</a>
</g>
</g>
<!-- Node2&#45;&gt;Node3 -->
<g id="edge2_Node000002_Node000003" class="edge">
<title>Node2&#45;&gt;Node3</title>
<g id="a_edge2_Node000002_Node000003"><a xlink:title=" ">
<path fill="none" stroke="#63b8ff" d="M733.68,-291.95C704.03,-281.97 668.18,-269.89 640.25,-260.49"/>
<polygon fill="#63b8ff" stroke="#63b8ff" points="732.27,-295.17 742.86,-295.04 734.5,-288.53 732.27,-295.17"/>
</a>
</g>
</g>
<!-- Node4 -->
<g id="Node000004" class="node">
<title>Node4</title>
<g id="a_Node000004"><a xlink:href="../../d3/da0/_renderer_8h.html" target="_top" xlink:title=" ">
<polygon fill="white" stroke="#666666" points="1178.5,-186 1038,-186 1038,-154 1178.5,-154 1178.5,-186"/>
<text text-anchor="start" x="1046" y="-172.5" font-family="Helvetica,sans-Serif" font-size="10.00">C:/GitHub/GEU/GEU/Source</text>
<text text-anchor="middle" x="1108.25" y="-160.5" font-family="Helvetica,sans-Serif" font-size="10.00">/Core/Renderer.h</text>
</a>
</g>
</g>
<!-- Node2&#45;&gt;Node4 -->
<g id="edge3_Node000002_Node000004" class="edge">
<title>Node2&#45;&gt;Node4</title>
<g id="a_edge3_Node000002_Node000004"><a xlink:title=" ">
<path fill="none" stroke="#63b8ff" d="M835.38,-291.13C899.42,-262.94 1015.29,-211.93 1073.25,-186.41"/>
<polygon fill="#63b8ff" stroke="#63b8ff" points="834.32,-287.77 826.58,-295.01 837.14,-294.18 834.32,-287.77"/>
</a>
</g>
</g>
<!-- Node24 -->
<g id="Node000024" class="node">
<title>Node24</title>
<g id="a_Node000024"><a xlink:href="../../d7/d00/_debug_window_8h.html" target="_top" xlink:title=" ">
<polygon fill="white" stroke="#666666" points="140.5,-186 0,-186 0,-154 140.5,-154 140.5,-186"/>
<text text-anchor="start" x="8" y="-172.5" font-family="Helvetica,sans-Serif" font-size="10.00">C:/GitHub/GEU/GEU/Source</text>
<text text-anchor="middle" x="70.25" y="-160.5" font-family="Helvetica,sans-Serif" font-size="10.00">/UI/DebugWindow.h</text>
</a>
</g>
</g>
<!-- Node2&#45;&gt;Node24 -->
<g id="edge25_Node000002_Node000024" class="edge">
<title>Node2&#45;&gt;Node24</title>
<g id="a_edge25_Node000002_Node000024"><a xlink:title=" ">
<path fill="none" stroke="#63b8ff" d="M755.08,-289.64C741.17,-280.84 725.19,-270.31 711.25,-260 693.5,-246.87 693.72,-236.28 673.25,-228 566.08,-184.63 268.44,-210.09 154.25,-192 145.19,-190.57 135.68,-188.62 126.45,-186.49"/>
<polygon fill="#63b8ff" stroke="#63b8ff" points="753.18,-292.58 763.51,-294.91 756.89,-286.64 753.18,-292.58"/>
</a>
</g>
</g>
<!-- Node25 -->
<g id="Node000025" class="node">
<title>Node25</title>
<g id="a_Node000025"><a xlink:href="../../da/d5d/_g_u_i_8h.html" target="_top" xlink:title=" ">
<polygon fill="white" stroke="#666666" points="860.5,-260 720,-260 720,-228 860.5,-228 860.5,-260"/>
<text text-anchor="start" x="728" y="-246.5" font-family="Helvetica,sans-Serif" font-size="10.00">C:/GitHub/GEU/GEU/Source</text>
<text text-anchor="middle" x="790.25" y="-234.5" font-family="Helvetica,sans-Serif" font-size="10.00">/UI/GUI.h</text>
</a>
</g>
</g>
<!-- Node2&#45;&gt;Node25 -->
<g id="edge28_Node000002_Node000025" class="edge">
<title>Node2&#45;&gt;Node25</title>
<g id="a_edge28_Node000002_Node000025"><a xlink:title=" ">
<path fill="none" stroke="#63b8ff" d="M790.25,-284.31C790.25,-276.12 790.25,-267.38 790.25,-260.22"/>
<polygon fill="#63b8ff" stroke="#63b8ff" points="786.75,-284.18 790.25,-294.18 793.75,-284.18 786.75,-284.18"/>
</a>
</g>
</g>
<!-- Node5 -->
<g id="Node000005" class="node">
<title>Node5</title>
<g id="a_Node000005"><a xlink:href="../../d3/dee/_input_manager_8cpp.html" target="_top" xlink:title=" ">
<polygon fill="white" stroke="#666666" points="2010.5,-106 1870,-106 1870,-74 2010.5,-74 2010.5,-106"/>
<text text-anchor="start" x="1878" y="-92.5" font-family="Helvetica,sans-Serif" font-size="10.00">C:/GitHub/GEU/GEU/Source</text>
<text text-anchor="middle" x="1940.25" y="-80.5" font-family="Helvetica,sans-Serif" font-size="10.00">/Core/InputManager.cpp</text>
</a>
</g>
</g>
<!-- Node4&#45;&gt;Node5 -->
<g id="edge4_Node000004_Node000005" class="edge">
<title>Node4&#45;&gt;Node5</title>
<g id="a_edge4_Node000004_Node000005"><a xlink:title=" ">
<path fill="none" stroke="#63b8ff" d="M1190.08,-167.64C1328.85,-164.25 1618.79,-152.5 1860.25,-112 1868.89,-110.55 1877.95,-108.6 1886.75,-106.47"/>
<polygon fill="#63b8ff" stroke="#63b8ff" points="1190.17,-164.13 1180.25,-167.87 1190.33,-171.13 1190.17,-164.13"/>
</a>
</g>
</g>
<!-- Node6 -->
<g id="Node000006" class="node">
<title>Node6</title>
<g id="a_Node000006"><a xlink:href="../../d0/d00/_point_cloud_8cpp.html" target="_top" xlink:title=" ">
<polygon fill="white" stroke="#666666" points="2169.5,-106 2029,-106 2029,-74 2169.5,-74 2169.5,-106"/>
<text text-anchor="start" x="2037" y="-92.5" font-family="Helvetica,sans-Serif" font-size="10.00">C:/GitHub/GEU/GEU/Source</text>
<text text-anchor="middle" x="2099.25" y="-80.5" font-family="Helvetica,sans-Serif" font-size="10.00">/Core/PointCloud.cpp</text>
</a>
</g>
</g>
<!-- Node4&#45;&gt;Node6 -->
<g id="edge5_Node000004_Node000006" class="edge">
<title>Node4&#45;&gt;Node6</title>
<g id="a_edge5_Node000004_Node000006"><a xlink:title=" ">
<path fill="none" stroke="#63b8ff" d="M1189.94,-169.18C1350.1,-168.38 1716.16,-160.79 2019.25,-112 2028.04,-110.59 2037.26,-108.62 2046.2,-106.46"/>
<polygon fill="#63b8ff" stroke="#63b8ff" points="1190.27,-165.68 1180.28,-169.22 1190.3,-172.68 1190.27,-165.68"/>
</a>
</g>
</g>
<!-- Node7 -->
<g id="Node000007" class="node">
<title>Node7</title>
<g id="a_Node000007"><a xlink:href="../../da/d84/_renderer_8cpp.html" target="_top" xlink:title=" ">
<polygon fill="white" stroke="#666666" points="2328.5,-106 2188,-106 2188,-74 2328.5,-74 2328.5,-106"/>
<text text-anchor="start" x="2196" y="-92.5" font-family="Helvetica,sans-Serif" font-size="10.00">C:/GitHub/GEU/GEU/Source</text>
<text text-anchor="middle" x="2258.25" y="-80.5" font-family="Helvetica,sans-Serif" font-size="10.00">/Core/Renderer.cpp</text>
</a>
</g>
</g>
<!-- Node4&#45;&gt;Node7 -->
<g id="edge6_Node000004_Node000007" class="edge">
<title>Node4&#45;&gt;Node7</title>
<g id="a_edge6_Node000004_Node000007"><a xlink:title=" ">
<path fill="none" stroke="#63b8ff" d="M1190.18,-166.79C1406.27,-160.63 1988.09,-141.71 2178.25,-112 2187.19,-110.6 2196.57,-108.62 2205.64,-106.43"/>
<polygon fill="#63b8ff" stroke="#63b8ff" points="1190.35,-163.29 1180.45,-167.07 1190.54,-170.28 1190.35,-163.29"/>
</a>
</g>
</g>
<!-- Node8 -->
<g id="Node000008" class="node">
<title>Node8</title>
<g id="a_Node000008"><a xlink:href="../../de/d42/_window_8h.html" target="_top" xlink:title=" ">
<polygon fill="white" stroke="#666666" points="2487.5,-106 2347,-106 2347,-74 2487.5,-74 2487.5,-106"/>
<text text-anchor="start" x="2355" y="-92.5" font-family="Helvetica,sans-Serif" font-size="10.00">C:/GitHub/GEU/GEU/Source</text>
<text text-anchor="middle" x="2417.25" y="-80.5" font-family="Helvetica,sans-Serif" font-size="10.00">/Core/Window.h</text>
</a>
</g>
</g>
<!-- Node4&#45;&gt;Node8 -->
<g id="edge7_Node000004_Node000008" class="edge">
<title>Node4&#45;&gt;Node8</title>
<g id="a_edge7_Node000004_Node000008"><a xlink:title=" ">
<path fill="none" stroke="#63b8ff" d="M1190.1,-167.45C1427.77,-162.59 2115.09,-145.92 2337.25,-112 2346.19,-110.63 2355.58,-108.67 2364.65,-106.48"/>
<polygon fill="#63b8ff" stroke="#63b8ff" points="1190.23,-163.95 1180.3,-167.65 1190.37,-170.94 1190.23,-163.95"/>
</a>
</g>
</g>
<!-- Node10 -->
<g id="Node000010" class="node">
<title>Node10</title>
<g id="a_Node000010"><a xlink:href="../../df/d0a/main_8cpp.html" target="_top" xlink:title=" ">
<polygon fill="white" stroke="#666666" points="1833.5,-32 1693,-32 1693,0 1833.5,0 1833.5,-32"/>
<text text-anchor="start" x="1701" y="-18.5" font-family="Helvetica,sans-Serif" font-size="10.00">C:/GitHub/GEU/GEU/Source</text>
<text text-anchor="middle" x="1763.25" y="-6.5" font-family="Helvetica,sans-Serif" font-size="10.00">/main.cpp</text>
</a>
</g>
</g>
<!-- Node4&#45;&gt;Node10 -->
<g id="edge24_Node000004_Node000010" class="edge">
<title>Node4&#45;&gt;Node10</title>
<g id="a_edge24_Node000004_Node000010"><a xlink:title=" ">
<path fill="none" stroke="#63b8ff" d="M1141.71,-147.43C1156.3,-137.39 1173.24,-124.84 1187.25,-112 1206.3,-94.54 1202.29,-79.85 1225.25,-68 1304.97,-26.85 1565.84,-18.72 1692.71,-17.24"/>
<polygon fill="#63b8ff" stroke="#63b8ff" points="1140.1,-144.3 1133.77,-152.8 1144.02,-150.1 1140.1,-144.3"/>
</a>
</g>
</g>
<!-- Node11 -->
<g id="Node000011" class="node">
<title>Node11</title>
<g id="a_Node000011"><a xlink:href="../../d7/d4d/_normales_g_u_i_adapter_8cpp.html" target="_top" xlink:title=" ">
<polygon fill="white" stroke="#666666" points="693.75,-112 536.75,-112 536.75,-68 693.75,-68 693.75,-112"/>
<text text-anchor="start" x="544.75" y="-98.5" font-family="Helvetica,sans-Serif" font-size="10.00">C:/GitHub/GEU/GEU/Source</text>
<text text-anchor="start" x="544.75" y="-86.5" font-family="Helvetica,sans-Serif" font-size="10.00">/Modules/ComparacionNormales</text>
<text text-anchor="middle" x="615.25" y="-74.5" font-family="Helvetica,sans-Serif" font-size="10.00">/NormalesGUIAdapter.cpp</text>
</a>
</g>
</g>
<!-- Node4&#45;&gt;Node11 -->
<g id="edge10_Node000004_Node000011" class="edge">
<title>Node4&#45;&gt;Node11</title>
<g id="a_edge10_Node000004_Node000011"><a xlink:title=" ">
<path fill="none" stroke="#63b8ff" d="M1026.42,-159.79C944.36,-150 814.53,-133.06 703.25,-112 700.16,-111.42 697.02,-110.79 693.85,-110.15"/>
<polygon fill="#63b8ff" stroke="#63b8ff" points="1025.84,-163.24 1036.18,-160.94 1026.66,-156.29 1025.84,-163.24"/>
</a>
</g>
</g>
<!-- Node12 -->
<g id="Node000012" class="node">
<title>Node12</title>
<g id="a_Node000012"><a xlink:href="../../d8/dd0/_multiespectral_g_u_i_adapter_8cpp.html" target="_top" xlink:title=" ">
<polygon fill="white" stroke="#666666" points="860.62,-112 711.88,-112 711.88,-68 860.62,-68 860.62,-112"/>
<text text-anchor="start" x="719.88" y="-98.5" font-family="Helvetica,sans-Serif" font-size="10.00">C:/GitHub/GEU/GEU/Source</text>
<text text-anchor="start" x="719.88" y="-86.5" font-family="Helvetica,sans-Serif" font-size="10.00">/Modules/Multiespectral</text>
<text text-anchor="middle" x="786.25" y="-74.5" font-family="Helvetica,sans-Serif" font-size="10.00">/MultiespectralGUIAdapter.cpp</text>
</a>
</g>
</g>
<!-- Node4&#45;&gt;Node12 -->
<g id="edge11_Node000004_Node000012" class="edge">
<title>Node4&#45;&gt;Node12</title>
<g id="a_edge11_Node000004_Node000012"><a xlink:title=" ">
<path fill="none" stroke="#63b8ff" d="M1031.85,-150.91C985.15,-139.8 924.22,-125.21 870.25,-112 867.18,-111.25 864.06,-110.48 860.9,-109.7"/>
<polygon fill="#63b8ff" stroke="#63b8ff" points="1030.79,-154.25 1041.33,-153.16 1032.41,-147.44 1030.79,-154.25"/>
</a>
</g>
</g>
<!-- Node13 -->
<g id="Node000013" class="node">
<title>Node13</title>
<g id="a_Node000013"><a xlink:href="../../d3/d58/_camera_axis_window_8cpp.html" target="_top" xlink:title=" ">
<polygon fill="white" stroke="#666666" points="1019.5,-106 879,-106 879,-74 1019.5,-74 1019.5,-106"/>
<text text-anchor="start" x="887" y="-92.5" font-family="Helvetica,sans-Serif" font-size="10.00">C:/GitHub/GEU/GEU/Source</text>
<text text-anchor="middle" x="949.25" y="-80.5" font-family="Helvetica,sans-Serif" font-size="10.00">/UI/CameraAxisWindow.cpp</text>
</a>
</g>
</g>
<!-- Node4&#45;&gt;Node13 -->
<g id="edge12_Node000004_Node000013" class="edge">
<title>Node4&#45;&gt;Node13</title>
<g id="a_edge12_Node000004_Node000013"><a xlink:title=" ">
<path fill="none" stroke="#63b8ff" d="M1066.56,-148.55C1039.64,-135.34 1005.19,-118.44 980.6,-106.38"/>
<polygon fill="#63b8ff" stroke="#63b8ff" points="1064.96,-151.66 1075.48,-152.92 1068.04,-145.38 1064.96,-151.66"/>
</a>
</g>
</g>
<!-- Node14 -->
<g id="Node000014" class="node">
<title>Node14</title>
<g id="a_Node000014"><a xlink:href="../../d0/d1c/_debug_window_8cpp.html" target="_top" xlink:title=" ">
<polygon fill="white" stroke="#666666" points="321.5,-106 181,-106 181,-74 321.5,-74 321.5,-106"/>
<text text-anchor="start" x="189" y="-92.5" font-family="Helvetica,sans-Serif" font-size="10.00">C:/GitHub/GEU/GEU/Source</text>
<text text-anchor="middle" x="251.25" y="-80.5" font-family="Helvetica,sans-Serif" font-size="10.00">/UI/DebugWindow.cpp</text>
</a>
</g>
</g>
<!-- Node4&#45;&gt;Node14 -->
<g id="edge13_Node000004_Node000014" class="edge">
<title>Node4&#45;&gt;Node14</title>
<g id="a_edge13_Node000004_Node000014"><a xlink:title=" ">
<path fill="none" stroke="#63b8ff" d="M1026.44,-160.9C983.28,-156.76 929.42,-151.8 881.25,-148 637.04,-128.72 573.05,-151.28 331.25,-112 322.46,-110.57 313.24,-108.6 304.31,-106.44"/>
<polygon fill="#63b8ff" stroke="#63b8ff" points="1025.94,-164.36 1036.23,-161.84 1026.61,-157.4 1025.94,-164.36"/>
</a>
</g>
</g>
<!-- Node15 -->
<g id="Node000015" class="node">
<title>Node15</title>
<g id="a_Node000015"><a xlink:href="../../d1/dfc/_details_window_8h.html" target="_top" xlink:title=" ">
<polygon fill="white" stroke="#666666" points="1178.5,-106 1038,-106 1038,-74 1178.5,-74 1178.5,-106"/>
<text text-anchor="start" x="1046" y="-92.5" font-family="Helvetica,sans-Serif" font-size="10.00">C:/GitHub/GEU/GEU/Source</text>
<text text-anchor="middle" x="1108.25" y="-80.5" font-family="Helvetica,sans-Serif" font-size="10.00">/UI/DetailsWindow.h</text>
</a>
</g>
</g>
<!-- Node4&#45;&gt;Node15 -->
<g id="edge14_Node000004_Node000015" class="edge">
<title>Node4&#45;&gt;Node15</title>
<g id="a_edge14_Node000004_Node000015"><a xlink:title=" ">
<path fill="none" stroke="#63b8ff" d="M1108.25,-142.37C1108.25,-130.37 1108.25,-116.63 1108.25,-106.38"/>
<polygon fill="#63b8ff" stroke="#63b8ff" points="1104.75,-142.08 1108.25,-152.08 1111.75,-142.08 1104.75,-142.08"/>
</a>
</g>
</g>
<!-- Node17 -->
<g id="Node000017" class="node">
<title>Node17</title>
<g id="a_Node000017"><a xlink:href="../../d3/d27/_g_u_i_8cpp.html" target="_top" xlink:title=" ">
<polygon fill="white" stroke="#666666" points="401.5,-32 261,-32 261,0 401.5,0 401.5,-32"/>
<text text-anchor="start" x="269" y="-18.5" font-family="Helvetica,sans-Serif" font-size="10.00">C:/GitHub/GEU/GEU/Source</text>
<text text-anchor="middle" x="331.25" y="-6.5" font-family="Helvetica,sans-Serif" font-size="10.00">/UI/GUI.cpp</text>
</a>
</g>
</g>
<!-- Node4&#45;&gt;Node17 -->
<g id="edge18_Node000004_Node000017" class="edge">
<title>Node4&#45;&gt;Node17</title>
<g id="a_edge18_Node000004_Node000017"><a xlink:title=" ">
<path fill="none" stroke="#63b8ff" d="M1026.85,-160.7C988.45,-156.8 942,-152.12 900.25,-148 817.38,-139.82 601.22,-150.26 527.25,-112 504.3,-100.13 510.79,-82.28 489.25,-68 463.06,-50.64 430.53,-38.82 401.81,-30.97"/>
<polygon fill="#63b8ff" stroke="#63b8ff" points="1026.17,-164.15 1036.47,-161.67 1026.87,-157.18 1026.17,-164.15"/>
</a>
</g>
</g>
<!-- Node19 -->
<g id="Node000019" class="node">
<title>Node19</title>
<g id="a_Node000019"><a xlink:href="../../df/da0/_inspector_window_8cpp.html" target="_top" xlink:title=" ">
<polygon fill="white" stroke="#666666" points="1374.5,-106 1234,-106 1234,-74 1374.5,-74 1374.5,-106"/>
<text text-anchor="start" x="1242" y="-92.5" font-family="Helvetica,sans-Serif" font-size="10.00">C:/GitHub/GEU/GEU/Source</text>
<text text-anchor="middle" x="1304.25" y="-80.5" font-family="Helvetica,sans-Serif" font-size="10.00">/UI/InspectorWindow.cpp</text>
</a>
</g>
</g>
<!-- Node4&#45;&gt;Node19 -->
<g id="edge19_Node000004_Node000019" class="edge">
<title>Node4&#45;&gt;Node19</title>
<g id="a_edge19_Node000004_Node000019"><a xlink:title=" ">
<path fill="none" stroke="#63b8ff" d="M1157.46,-149.42C1190.94,-136.09 1234.62,-118.71 1265.61,-106.38"/>
<polygon fill="#63b8ff" stroke="#63b8ff" points="1156.38,-146.08 1148.38,-153.03 1158.97,-152.58 1156.38,-146.08"/>
</a>
</g>
</g>
<!-- Node20 -->
<g id="Node000020" class="node">
<title>Node20</title>
<g id="a_Node000020"><a xlink:href="../../dc/d71/_picking_window_8cpp.html" target="_top" xlink:title=" ">
<polygon fill="white" stroke="#666666" points="1533.5,-106 1393,-106 1393,-74 1533.5,-74 1533.5,-106"/>
<text text-anchor="start" x="1401" y="-92.5" font-family="Helvetica,sans-Serif" font-size="10.00">C:/GitHub/GEU/GEU/Source</text>
<text text-anchor="middle" x="1463.25" y="-80.5" font-family="Helvetica,sans-Serif" font-size="10.00">/UI/PickingWindow.cpp</text>
</a>
</g>
</g>
<!-- Node4&#45;&gt;Node20 -->
<g id="edge20_Node000004_Node000020" class="edge">
<title>Node4&#45;&gt;Node20</title>
<g id="a_edge20_Node000004_Node000020"><a xlink:title=" ">
<path fill="none" stroke="#63b8ff" d="M1189.89,-153.24C1244.73,-142.37 1318.52,-127.19 1383.25,-112 1390.66,-110.26 1398.43,-108.34 1406.09,-106.39"/>
<polygon fill="#63b8ff" stroke="#63b8ff" points="1189.45,-149.76 1180.32,-155.13 1190.81,-156.63 1189.45,-149.76"/>
</a>
</g>
</g>
<!-- Node21 -->
<g id="Node000021" class="node">
<title>Node21</title>
<g id="a_Node000021"><a xlink:href="../../d5/dbd/_stats_window_8cpp.html" target="_top" xlink:title=" ">
<polygon fill="white" stroke="#666666" points="1692.5,-106 1552,-106 1552,-74 1692.5,-74 1692.5,-106"/>
<text text-anchor="start" x="1560" y="-92.5" font-family="Helvetica,sans-Serif" font-size="10.00">C:/GitHub/GEU/GEU/Source</text>
<text text-anchor="middle" x="1622.25" y="-80.5" font-family="Helvetica,sans-Serif" font-size="10.00">/UI/StatsWindow.cpp</text>
</a>
</g>
</g>
<!-- Node4&#45;&gt;Node21 -->
<g id="edge21_Node000004_Node000021" class="edge">
<title>Node4&#45;&gt;Node21</title>
<g id="a_edge21_Node000004_Node000021"><a xlink:title=" ">
<path fill="none" stroke="#63b8ff" d="M1190.18,-161.35C1277.81,-152.45 1420.62,-135.85 1542.25,-112 1550.28,-110.42 1558.7,-108.51 1566.94,-106.49"/>
<polygon fill="#63b8ff" stroke="#63b8ff" points="1190.08,-157.84 1180.48,-162.33 1190.78,-164.81 1190.08,-157.84"/>
</a>
</g>
</g>
<!-- Node22 -->
<g id="Node000022" class="node">
<title>Node22</title>
<g id="a_Node000022"><a xlink:href="../../d5/d1f/_auto_updater_8cpp.html" target="_top" xlink:title=" ">
<polygon fill="white" stroke="#666666" points="480.5,-106 340,-106 340,-74 480.5,-74 480.5,-106"/>
<text text-anchor="start" x="348" y="-92.5" font-family="Helvetica,sans-Serif" font-size="10.00">C:/GitHub/GEU/GEU/Source</text>
<text text-anchor="middle" x="410.25" y="-80.5" font-family="Helvetica,sans-Serif" font-size="10.00">/Utilities/AutoUpdater.cpp</text>
</a>
</g>
</g>
<!-- Node4&#45;&gt;Node22 -->
<g id="edge22_Node000004_Node000022" class="edge">
<title>Node4&#45;&gt;Node22</title>
<g id="a_edge22_Node000004_Node000022"><a xlink:title=" ">
<path fill="none" stroke="#63b8ff" d="M1026.77,-159.77C992.1,-155.95 951.22,-151.58 914.25,-148 727.77,-129.92 679.05,-142.82 494.25,-112 485.35,-110.52 476.01,-108.57 466.93,-106.47"/>
<polygon fill="#63b8ff" stroke="#63b8ff" points="1025.97,-163.2 1036.29,-160.82 1026.74,-156.25 1025.97,-163.2"/>
</a>
</g>
</g>
<!-- Node23 -->
<g id="Node000023" class="node">
<title>Node23</title>
<g id="a_Node000023"><a xlink:href="../../d3/d93/_file_manager_8cpp.html" target="_top" xlink:title=" ">
<polygon fill="white" stroke="#666666" points="1851.5,-106 1711,-106 1711,-74 1851.5,-74 1851.5,-106"/>
<text text-anchor="start" x="1719" y="-92.5" font-family="Helvetica,sans-Serif" font-size="10.00">C:/GitHub/GEU/GEU/Source</text>
<text text-anchor="middle" x="1781.25" y="-80.5" font-family="Helvetica,sans-Serif" font-size="10.00">/Utilities/FileManager.cpp</text>
</a>
</g>
</g>
<!-- Node4&#45;&gt;Node23 -->
<g id="edge23_Node000004_Node000023" class="edge">
<title>Node4&#45;&gt;Node23</title>
<g id="a_edge23_Node000004_Node000023"><a xlink:title=" ">
<path fill="none" stroke="#63b8ff" d="M1190.06,-165.3C1304.96,-159.17 1520.36,-144.22 1701.25,-112 1709.73,-110.49 1718.63,-108.53 1727.29,-106.42"/>
<polygon fill="#63b8ff" stroke="#63b8ff" points="1189.9,-161.81 1180.09,-165.83 1190.26,-168.8 1189.9,-161.81"/>
</a>
</g>
</g>
<!-- Node9 -->
<g id="Node000009" class="node">
<title>Node9</title>
<g id="a_Node000009"><a xlink:href="../../d3/db8/_window_8cpp.html" target="_top" xlink:title=" ">
<polygon fill="white" stroke="#666666" points="2487.5,-32 2347,-32 2347,0 2487.5,0 2487.5,-32"/>
<text text-anchor="start" x="2355" y="-18.5" font-family="Helvetica,sans-Serif" font-size="10.00">C:/GitHub/GEU/GEU/Source</text>
<text text-anchor="middle" x="2417.25" y="-6.5" font-family="Helvetica,sans-Serif" font-size="10.00">/Core/Window.cpp</text>
</a>
</g>
</g>
<!-- Node8&#45;&gt;Node9 -->
<g id="edge8_Node000008_Node000009" class="edge">
<title>Node8&#45;&gt;Node9</title>
<g id="a_edge8_Node000008_Node000009"><a xlink:title=" ">
<path fill="none" stroke="#63b8ff" d="M2417.25,-62.49C2417.25,-52.3 2417.25,-41.03 2417.25,-32.25"/>
<polygon fill="#63b8ff" stroke="#63b8ff" points="2413.75,-62.22 2417.25,-72.22 2420.75,-62.22 2413.75,-62.22"/>
</a>
</g>
</g>
<!-- Node8&#45;&gt;Node10 -->
<g id="edge9_Node000008_Node000010" class="edge">
<title>Node8&#45;&gt;Node10</title>
<g id="a_edge9_Node000008_Node000010"><a xlink:title=" ">
<path fill="none" stroke="#63b8ff" d="M2352.26,-70.97C2347.2,-69.87 2342.16,-68.86 2337.25,-68 2157.63,-36.67 1942.84,-24.1 1833.99,-19.46"/>
<polygon fill="#63b8ff" stroke="#63b8ff" points="2351.29,-74.34 2361.82,-73.18 2352.87,-67.52 2351.29,-74.34"/>
</a>
</g>
</g>
<!-- Node16 -->
<g id="Node000016" class="node">
<title>Node16</title>
<g id="a_Node000016"><a xlink:href="../../df/d72/_details_window_8cpp.html" target="_top" xlink:title=" ">
<polygon fill="white" stroke="#666666" points="1257.5,-32 1117,-32 1117,0 1257.5,0 1257.5,-32"/>
<text text-anchor="start" x="1125" y="-18.5" font-family="Helvetica,sans-Serif" font-size="10.00">C:/GitHub/GEU/GEU/Source</text>
<text text-anchor="middle" x="1187.25" y="-6.5" font-family="Helvetica,sans-Serif" font-size="10.00">/UI/DetailsWindow.cpp</text>
</a>
</g>
</g>
<!-- Node15&#45;&gt;Node16 -->
<g id="edge15_Node000015_Node000016" class="edge">
<title>Node15&#45;&gt;Node16</title>
<g id="a_edge15_Node000015_Node000016"><a xlink:title=" ">
<path fill="none" stroke="#63b8ff" d="M1133.33,-66.14C1145.37,-55.17 1159.48,-42.31 1170.25,-32.5"/>
<polygon fill="#63b8ff" stroke="#63b8ff" points="1131.16,-63.39 1126.12,-72.71 1135.87,-68.56 1131.16,-63.39"/>
</a>
</g>
</g>
<!-- Node15&#45;&gt;Node17 -->
<g id="edge16_Node000015_Node000017" class="edge">
<title>Node15&#45;&gt;Node17</title>
<g id="a_edge16_Node000015_Node000017"><a xlink:title=" ">
<path fill="none" stroke="#63b8ff" d="M1043.94,-71.03C1038.66,-69.89 1033.38,-68.85 1028.25,-68 801.45,-30.26 528.5,-20.45 402,-17.9"/>
<polygon fill="#63b8ff" stroke="#63b8ff" points="1042.75,-74.35 1053.28,-73.17 1044.31,-67.52 1042.75,-74.35"/>
</a>
</g>
</g>
<!-- Node18 -->
<g id="Node000018" class="node">
<title>Node18</title>
<g id="a_Node000018"><a xlink:href="../../de/d32/_materials_window_8cpp.html" target="_top" xlink:title=" ">
<polygon fill="white" stroke="#666666" points="1098.5,-32 958,-32 958,0 1098.5,0 1098.5,-32"/>
<text text-anchor="start" x="966" y="-18.5" font-family="Helvetica,sans-Serif" font-size="10.00">C:/GitHub/GEU/GEU/Source</text>
<text text-anchor="middle" x="1028.25" y="-6.5" font-family="Helvetica,sans-Serif" font-size="10.00">/UI/MaterialsWindow.cpp</text>
</a>
</g>
</g>
<!-- Node15&#45;&gt;Node18 -->
<g id="edge17_Node000015_Node000018" class="edge">
<title>Node15&#45;&gt;Node18</title>
<g id="a_edge17_Node000015_Node000018"><a xlink:title=" ">
<path fill="none" stroke="#63b8ff" d="M1082.86,-66.14C1070.66,-55.17 1056.37,-42.31 1045.47,-32.5"/>
<polygon fill="#63b8ff" stroke="#63b8ff" points="1080.38,-68.63 1090.16,-72.72 1085.07,-63.43 1080.38,-68.63"/>
</a>
</g>
</g>
<!-- Node24&#45;&gt;Node14 -->
<g id="edge26_Node000024_Node000014" class="edge">
<title>Node24&#45;&gt;Node14</title>
<g id="a_edge26_Node000024_Node000014"><a xlink:title=" ">
<path fill="none" stroke="#63b8ff" d="M116.5,-149.07C147.31,-135.79 187.2,-118.6 215.56,-106.38"/>
<polygon fill="#63b8ff" stroke="#63b8ff" points="115.2,-145.82 107.4,-152.99 117.97,-152.25 115.2,-145.82"/>
</a>
</g>
</g>
<!-- Node24&#45;&gt;Node17 -->
<g id="edge27_Node000024_Node000017" class="edge">
<title>Node24&#45;&gt;Node17</title>
<g id="a_edge27_Node000024_Node000017"><a xlink:title=" ">
<path fill="none" stroke="#63b8ff" d="M81.33,-143.36C92.61,-120.26 112.28,-87.07 139.25,-68 174.87,-42.81 222.17,-30.06 260.91,-23.61"/>
<polygon fill="#63b8ff" stroke="#63b8ff" points="78.16,-141.87 77.11,-152.42 84.5,-144.83 78.16,-141.87"/>
</a>
</g>
</g>
<!-- Node25&#45;&gt;Node4 -->
<g id="edge29_Node000025_Node000004" class="edge">
<title>Node25&#45;&gt;Node4</title>
<g id="a_edge29_Node000025_Node000004"><a xlink:title=" ">
<path fill="none" stroke="#63b8ff" d="M869.4,-225.08C921.8,-213.22 989.83,-197.81 1039.87,-186.48"/>
<polygon fill="#63b8ff" stroke="#63b8ff" points="868.93,-221.6 859.95,-227.22 870.47,-228.43 868.93,-221.6"/>
</a>
</g>
</g>
<!-- Node25&#45;&gt;Node17 -->
<g id="edge33_Node000025_Node000017" class="edge">
<title>Node25&#45;&gt;Node17</title>
<g id="a_edge33_Node000025_Node000017"><a xlink:title=" ">
<path fill="none" stroke="#63b8ff" d="M708.74,-228.34C707.91,-228.22 707.08,-228.11 706.25,-228 525.36,-203.94 469.97,-250.88 297.25,-192 234.82,-170.72 203.92,-169.86 172.25,-112 162.86,-94.85 160.73,-83.8 172.25,-68 192.58,-40.13 228.37,-27.15 260.85,-21.24"/>
<polygon fill="#63b8ff" stroke="#63b8ff" points="707.84,-231.74 718.24,-229.72 708.85,-224.82 707.84,-231.74"/>
</a>
</g>
</g>
<!-- Node25&#45;&gt;Node22 -->
<g id="edge34_Node000025_Node000022" class="edge">
<title>Node25&#45;&gt;Node22</title>
<g id="a_edge34_Node000025_Node000022"><a xlink:title=" ">
<path fill="none" stroke="#63b8ff" d="M848.4,-222.34C861.45,-214.86 873.66,-204.95 881.25,-192 891.14,-175.13 894.42,-162.45 881.25,-148 852.16,-116.08 536.82,-119.26 494.25,-112 485.36,-110.48 476.02,-108.53 466.93,-106.41"/>
<polygon fill="#63b8ff" stroke="#63b8ff" points="846.92,-219.17 839.67,-226.9 850.15,-225.38 846.92,-219.17"/>
</a>
</g>
</g>
<!-- Node26 -->
<g id="Node000026" class="node">
<title>Node26</title>
<g id="a_Node000026"><a xlink:href="../../dc/d52/_tree_segmentation_g_u_i_adapter_8cpp.html" target="_top" xlink:title=" ">
<polygon fill="white" stroke="#666666" points="472.62,-192 305.88,-192 305.88,-148 472.62,-148 472.62,-192"/>
<text text-anchor="start" x="313.88" y="-178.5" font-family="Helvetica,sans-Serif" font-size="10.00">C:/GitHub/GEU/GEU/Source</text>
<text text-anchor="start" x="313.88" y="-166.5" font-family="Helvetica,sans-Serif" font-size="10.00">/Modules/SegmentacionIndiv</text>
<text text-anchor="middle" x="389.25" y="-154.5" font-family="Helvetica,sans-Serif" font-size="10.00">/TreeSegmentationGUIAdapter.cpp</text>
</a>
</g>
</g>
<!-- Node25&#45;&gt;Node26 -->
<g id="edge30_Node000025_Node000026" class="edge">
<title>Node25&#45;&gt;Node26</title>
<g id="a_edge30_Node000025_Node000026"><a xlink:title=" ">
<path fill="none" stroke="#63b8ff" d="M708.73,-228.42C707.9,-228.28 707.07,-228.14 706.25,-228 606.4,-211.1 580.67,-211.28 481.25,-192 478.52,-191.47 475.74,-190.92 472.94,-190.35"/>
<polygon fill="#63b8ff" stroke="#63b8ff" points="707.75,-231.8 718.19,-230.05 708.93,-224.9 707.75,-231.8"/>
</a>
</g>
</g>
<!-- Node27 -->
<g id="Node000027" class="node">
<title>Node27</title>
<g id="a_Node000027"><a xlink:href="../../d0/df8/_thermal_g_u_i_adapter_8cpp.html" target="_top" xlink:title=" ">
<polygon fill="white" stroke="#666666" points="690.12,-186 490.38,-186 490.38,-154 690.12,-154 690.12,-186"/>
<text text-anchor="start" x="498.38" y="-172.5" font-family="Helvetica,sans-Serif" font-size="10.00">C:/GitHub/GEU/GEU/Source</text>
<text text-anchor="middle" x="590.25" y="-160.5" font-family="Helvetica,sans-Serif" font-size="10.00">/Modules/Termica/ThermalGUIAdapter.cpp</text>
</a>
</g>
</g>
<!-- Node25&#45;&gt;Node27 -->
<g id="edge31_Node000025_Node000027" class="edge">
<title>Node25&#45;&gt;Node27</title>
<g id="a_edge31_Node000025_Node000027"><a xlink:title=" ">
<path fill="none" stroke="#63b8ff" d="M736.69,-223.72C704.23,-212.03 663.39,-197.33 633.08,-186.42"/>
<polygon fill="#63b8ff" stroke="#63b8ff" points="735.33,-226.95 745.92,-227.04 737.7,-220.36 735.33,-226.95"/>
</a>
</g>
</g>
<!-- Node28 -->
<g id="Node000028" class="node">
<title>Node28</title>
<g id="a_Node000028"><a xlink:href="../../d3/d62/_database_new_dato_window_8cpp.html" target="_top" xlink:title=" ">
<polygon fill="white" stroke="#666666" points="872.5,-186 708,-186 708,-154 872.5,-154 872.5,-186"/>
<text text-anchor="start" x="716" y="-172.5" font-family="Helvetica,sans-Serif" font-size="10.00">C:/GitHub/GEU/GEU/Source</text>
<text text-anchor="middle" x="790.25" y="-160.5" font-family="Helvetica,sans-Serif" font-size="10.00">/UI/DatabaseNewDatoWindow.cpp</text>
</a>
</g>
</g>
<!-- Node25&#45;&gt;Node28 -->
<g id="edge32_Node000025_Node000028" class="edge">
<title>Node25&#45;&gt;Node28</title>
<g id="a_edge32_Node000025_Node000028"><a xlink:title=" ">
<path fill="none" stroke="#63b8ff" d="M790.25,-216.49C790.25,-206.3 790.25,-195.03 790.25,-186.25"/>
<polygon fill="#63b8ff" stroke="#63b8ff" points="786.75,-216.22 790.25,-226.22 793.75,-216.22 786.75,-216.22"/>
</a>
</g>
</g>
<!-- Node29&#45;&gt;Node4 -->
<g id="edge37_Node000029_Node000004" class="edge">
<title>Node29&#45;&gt;Node4</title>
<g id="a_edge37_Node000029_Node000004"><a xlink:title=" ">
<path fill="none" stroke="#63b8ff" d="M1030.33,-284.26C1032.6,-267.23 1037.34,-245.22 1047.25,-228 1056.79,-211.42 1072.71,-196.78 1085.9,-186.49"/>
<polygon fill="#63b8ff" stroke="#63b8ff" points="1026.86,-283.81 1029.24,-294.13 1033.82,-284.58 1026.86,-283.81"/>
</a>
</g>
</g>
<!-- Node30 -->
<g id="Node000030" class="node">
<title>Node30</title>
<g id="a_Node000030"><a xlink:href="../../d2/d16/_f_b_o_screenshot_8cpp.html" target="_top" xlink:title=" ">
<polygon fill="white" stroke="#666666" points="1196.5,-260 1056,-260 1056,-228 1196.5,-228 1196.5,-260"/>
<text text-anchor="start" x="1064" y="-246.5" font-family="Helvetica,sans-Serif" font-size="10.00">C:/GitHub/GEU/GEU/Source</text>
<text text-anchor="middle" x="1126.25" y="-234.5" font-family="Helvetica,sans-Serif" font-size="10.00">/Core/FBOScreenshot.cpp</text>
</a>
</g>
</g>
<!-- Node29&#45;&gt;Node30 -->
<g id="edge36_Node000029_Node000030" class="edge">
<title>Node29&#45;&gt;Node30</title>
<g id="a_edge36_Node000029_Node000030"><a xlink:title=" ">
<path fill="none" stroke="#63b8ff" d="M1060.29,-289.42C1074.34,-279.96 1090.49,-269.08 1103.3,-260.45"/>
<polygon fill="#63b8ff" stroke="#63b8ff" points="1058.57,-286.36 1052.23,-294.85 1062.48,-292.16 1058.57,-286.36"/>
</a>
</g>
</g>
</g>
</svg>
