<?xml version="1.0" encoding="UTF-8" standalone="no"?>
<!DOCTYPE svg PUBLIC "-//W3C//DTD SVG 1.1//EN"
 "http://www.w3.org/Graphics/SVG/1.1/DTD/svg11.dtd">
<!-- Generated by graphviz version 10.0.1 (20240210.2158)
 -->
<!-- Title: GEU::DatabaseNewDatoWindow::renderWindow Pages: 1 -->
<svg width="546pt" height="660pt"
 viewBox="0.00 0.00 545.75 660.00" xmlns="http://www.w3.org/2000/svg" xmlns:xlink="http://www.w3.org/1999/xlink">
<g id="graph0" class="graph" transform="scale(1 1) rotate(0) translate(4 656)">
<title>GEU::DatabaseNewDatoWindow::renderWindow</title>
<!-- Node1 -->
<g id="Node000001" class="node">
<title>Node1</title>
<g id="a_Node000001"><a xlink:title="Renders the window and contents.">
<polygon fill="#999999" stroke="#666666" points="157.75,-358 0,-358 0,-326 157.75,-326 157.75,-358"/>
<text text-anchor="start" x="8" y="-344.5" font-family="Helvetica,sans-Serif" font-size="10.00">GEU::DatabaseNewDatoWindow</text>
<text text-anchor="middle" x="78.88" y="-332.5" font-family="Helvetica,sans-Serif" font-size="10.00">::renderWindow</text>
</a>
</g>
</g>
<!-- Node2 -->
<g id="Node000002" class="node">
<title>Node2</title>
<g id="a_Node000002"><a xlink:href="../../d0/d01/a01956.html#ae812e21e62615fd347d33ee0ddb0cc82" target="_top" xlink:title=" ">
<polygon fill="white" stroke="#666666" points="347.75,-496 193.75,-496 193.75,-476 347.75,-476 347.75,-496"/>
<text text-anchor="middle" x="270.75" y="-482.5" font-family="Helvetica,sans-Serif" font-size="10.00">GEU::PopupSystem::addPopup</text>
</a>
</g>
</g>
<!-- Node1&#45;&gt;Node2 -->
<g id="edge1_Node000001_Node000002" class="edge">
<title>Node1&#45;&gt;Node2</title>
<g id="a_edge1_Node000001_Node000002"><a xlink:title=" ">
<path fill="none" stroke="#63b8ff" d="M89.96,-358.21C107.58,-385.13 146.62,-438.85 193.75,-467 196.34,-468.55 199.06,-469.97 201.85,-471.28"/>
<polygon fill="#63b8ff" stroke="#63b8ff" points="200.28,-474.42 210.86,-474.95 202.92,-467.93 200.28,-474.42"/>
</a>
</g>
</g>
<!-- Node3 -->
<g id="Node000003" class="node">
<title>Node3</title>
<g id="a_Node000003"><a xlink:href="../../d1/d01/a02032.html#a47c7e7c2110f4cc59c9ff1f5594c366e" target="_top" xlink:title=" ">
<polygon fill="white" stroke="#666666" points="537.75,-549 383.75,-549 383.75,-517 537.75,-517 537.75,-549"/>
<text text-anchor="start" x="391.75" y="-535.5" font-family="Helvetica,sans-Serif" font-size="10.00">GEU::Singleton&lt; PopupSystem</text>
<text text-anchor="middle" x="460.75" y="-523.5" font-family="Helvetica,sans-Serif" font-size="10.00"> &gt;::getInstance</text>
</a>
</g>
</g>
<!-- Node1&#45;&gt;Node3 -->
<g id="edge13_Node000001_Node000003" class="edge">
<title>Node1&#45;&gt;Node3</title>
<g id="a_edge13_Node000001_Node000003"><a xlink:title=" ">
<path fill="none" stroke="#63b8ff" d="M88,-358.24C102.83,-390.96 138,-463.12 193.75,-496 247.15,-527.5 317.19,-533.76 372,-533.81"/>
<polygon fill="#63b8ff" stroke="#63b8ff" points="371.96,-537.31 381.94,-533.75 371.92,-530.31 371.96,-537.31"/>
</a>
</g>
</g>
<!-- Node1&#45;&gt;Node3 -->
<g id="edge14_Node000001_Node000003" class="edge">
<title>Node1&#45;&gt;Node3</title>
<g id="a_edge14_Node000001_Node000003"><a xlink:title=" ">
<path fill="none" stroke="#63b8ff" d="M84.2,-358.4C96.09,-394.34 132.5,-477.87 193.75,-514 247.15,-545.5 317.19,-551.76 372,-549.26"/>
<polygon fill="#63b8ff" stroke="#63b8ff" points="372.16,-552.76 381.94,-548.69 371.76,-545.77 372.16,-552.76"/>
</a>
</g>
</g>
<!-- Node4 -->
<g id="Node000004" class="node">
<title>Node4</title>
<g id="a_Node000004"><a xlink:href="../../d7/d04/a00634.html#a95d5f616a34dd70aca4886e546720966" target="_top" xlink:title=" ">
<polygon fill="white" stroke="#666666" points="318.88,-458 222.62,-458 222.62,-426 318.88,-426 318.88,-458"/>
<text text-anchor="start" x="230.62" y="-444.5" font-family="Helvetica,sans-Serif" font-size="10.00">GEU::GuiUtilities::</text>
<text text-anchor="middle" x="270.75" y="-432.5" font-family="Helvetica,sans-Serif" font-size="10.00">BeginCombo</text>
</a>
</g>
</g>
<!-- Node1&#45;&gt;Node4 -->
<g id="edge3_Node000001_Node000004" class="edge">
<title>Node1&#45;&gt;Node4</title>
<g id="a_edge3_Node000001_Node000004"><a xlink:title=" ">
<path fill="none" stroke="#63b8ff" d="M101.1,-358.47C123.24,-375.03 159.43,-400.42 193.75,-417 199.52,-419.79 205.68,-422.38 211.89,-424.76"/>
<polygon fill="#63b8ff" stroke="#63b8ff" points="210.34,-427.92 220.94,-428.05 212.73,-421.34 210.34,-427.92"/>
</a>
</g>
</g>
<!-- Node6 -->
<g id="Node000006" class="node">
<title>Node6</title>
<g id="a_Node000006"><a xlink:href="../../d7/d04/a00634.html#a4ca438ae0623d75ff22b4b17dfd3a820" target="_top" xlink:title=" ">
<polygon fill="white" stroke="#666666" points="518.25,-355 403.25,-355 403.25,-335 518.25,-335 518.25,-355"/>
<text text-anchor="middle" x="460.75" y="-341.5" font-family="Helvetica,sans-Serif" font-size="10.00">GEU::GuiUtilities::Text</text>
</a>
</g>
</g>
<!-- Node1&#45;&gt;Node6 -->
<g id="edge24_Node000001_Node000006" class="edge">
<title>Node1&#45;&gt;Node6</title>
<g id="a_edge24_Node000001_Node000006"><a xlink:title=" ">
<path fill="none" stroke="#63b8ff" d="M143.32,-325.53C159.64,-322 177.25,-318.79 193.75,-317 261.8,-309.62 279.82,-308.64 347.75,-317 370.58,-319.81 395.44,-325.73 415.93,-331.4"/>
<polygon fill="#63b8ff" stroke="#63b8ff" points="414.79,-334.72 425.37,-334.09 416.71,-327.98 414.79,-334.72"/>
</a>
</g>
</g>
<!-- Node7 -->
<g id="Node000007" class="node">
<title>Node7</title>
<g id="a_Node000007"><a xlink:href="../../d7/d04/a00634.html#a19a864db5dec589998f84e7ad39922e3" target="_top" xlink:title=" ">
<polygon fill="white" stroke="#666666" points="318.88,-652 222.62,-652 222.62,-620 318.88,-620 318.88,-652"/>
<text text-anchor="start" x="230.62" y="-638.5" font-family="Helvetica,sans-Serif" font-size="10.00">GEU::GuiUtilities::</text>
<text text-anchor="middle" x="270.75" y="-626.5" font-family="Helvetica,sans-Serif" font-size="10.00">BeginTableVuelo</text>
</a>
</g>
</g>
<!-- Node1&#45;&gt;Node7 -->
<g id="edge6_Node000001_Node000007" class="edge">
<title>Node1&#45;&gt;Node7</title>
<g id="a_edge6_Node000001_Node000007"><a xlink:title=" ">
<path fill="none" stroke="#63b8ff" d="M82.04,-358.28C89.09,-404.71 115.58,-539.04 193.75,-611 198.98,-615.82 205.16,-619.7 211.69,-622.85"/>
<polygon fill="#63b8ff" stroke="#63b8ff" points="210.2,-626.02 220.78,-626.61 212.88,-619.55 210.2,-626.02"/>
</a>
</g>
</g>
<!-- Node8 -->
<g id="Node000008" class="node">
<title>Node8</title>
<g id="a_Node000008"><a xlink:href="../../d7/d04/a00634.html#af94965eb0ce2f4e1e5ee22fd33bf4574" target="_top" xlink:title=" ">
<polygon fill="white" stroke="#666666" points="318.88,-602 222.62,-602 222.62,-570 318.88,-570 318.88,-602"/>
<text text-anchor="start" x="230.62" y="-588.5" font-family="Helvetica,sans-Serif" font-size="10.00">GEU::GuiUtilities::</text>
<text text-anchor="middle" x="270.75" y="-576.5" font-family="Helvetica,sans-Serif" font-size="10.00">BeginTableZona</text>
</a>
</g>
</g>
<!-- Node1&#45;&gt;Node8 -->
<g id="edge8_Node000001_Node000008" class="edge">
<title>Node1&#45;&gt;Node8</title>
<g id="a_edge8_Node000001_Node000008"><a xlink:title=" ">
<path fill="none" stroke="#63b8ff" d="M84.3,-358.4C95.76,-397.88 130.02,-499.1 193.75,-556 199.1,-560.77 205.29,-564.83 211.8,-568.27"/>
<polygon fill="#63b8ff" stroke="#63b8ff" points="210.29,-571.43 220.82,-572.53 213.27,-565.1 210.29,-571.43"/>
</a>
</g>
</g>
<!-- Node9 -->
<g id="Node000009" class="node">
<title>Node9</title>
<g id="a_Node000009"><a xlink:href="../../d7/d04/a00634.html#a4a9fd6dae16881311edd3998ece123bf" target="_top" xlink:title=" ">
<polygon fill="white" stroke="#666666" points="318.88,-270 222.62,-270 222.62,-238 318.88,-238 318.88,-270"/>
<text text-anchor="start" x="230.62" y="-256.5" font-family="Helvetica,sans-Serif" font-size="10.00">GEU::GuiUtilities::</text>
<text text-anchor="middle" x="270.75" y="-244.5" font-family="Helvetica,sans-Serif" font-size="10.00">Button</text>
</a>
</g>
</g>
<!-- Node1&#45;&gt;Node9 -->
<g id="edge10_Node000001_Node000009" class="edge">
<title>Node1&#45;&gt;Node9</title>
<g id="a_edge10_Node000001_Node000009"><a xlink:title=" ">
<path fill="none" stroke="#63b8ff" d="M109.94,-325.7C132.68,-313.61 164.83,-297.04 193.75,-284 200.7,-280.87 208.08,-277.73 215.41,-274.72"/>
<polygon fill="#63b8ff" stroke="#63b8ff" points="216.68,-277.98 224.64,-271 214.06,-271.49 216.68,-277.98"/>
</a>
</g>
</g>
<!-- Node10 -->
<g id="Node000010" class="node">
<title>Node10</title>
<g id="a_Node000010"><a xlink:href="../../d7/d04/a00634.html#a8cd6e1ec53dc192ed4c4d3867e35edc7" target="_top" xlink:title=" ">
<polygon fill="white" stroke="#666666" points="318.88,-220 222.62,-220 222.62,-188 318.88,-188 318.88,-220"/>
<text text-anchor="start" x="230.62" y="-206.5" font-family="Helvetica,sans-Serif" font-size="10.00">GEU::GuiUtilities::</text>
<text text-anchor="middle" x="270.75" y="-194.5" font-family="Helvetica,sans-Serif" font-size="10.00">Checkbox</text>
</a>
</g>
</g>
<!-- Node1&#45;&gt;Node10 -->
<g id="edge11_Node000001_Node000010" class="edge">
<title>Node1&#45;&gt;Node10</title>
<g id="a_edge11_Node000001_Node000010"><a xlink:title=" ">
<path fill="none" stroke="#63b8ff" d="M92.08,-325.77C111.21,-301.42 150.53,-255.48 193.75,-229 199.36,-225.56 205.51,-222.54 211.79,-219.89"/>
<polygon fill="#63b8ff" stroke="#63b8ff" points="212.93,-223.2 221.01,-216.34 210.42,-216.67 212.93,-223.2"/>
</a>
</g>
</g>
<!-- Node11 -->
<g id="Node000011" class="node">
<title>Node11</title>
<g id="a_Node000011"><a xlink:href="../../d7/d04/a00634.html#a15f9ea36c082c71e09e7275ca63bd2e1" target="_top" xlink:title=" ">
<polygon fill="white" stroke="#666666" points="318.88,-170 222.62,-170 222.62,-138 318.88,-138 318.88,-170"/>
<text text-anchor="start" x="230.62" y="-156.5" font-family="Helvetica,sans-Serif" font-size="10.00">GEU::GuiUtilities::</text>
<text text-anchor="middle" x="270.75" y="-144.5" font-family="Helvetica,sans-Serif" font-size="10.00">ComboItem</text>
</a>
</g>
</g>
<!-- Node1&#45;&gt;Node11 -->
<g id="edge12_Node000001_Node000011" class="edge">
<title>Node1&#45;&gt;Node11</title>
<g id="a_edge12_Node000001_Node000011"><a xlink:title=" ">
<path fill="none" stroke="#63b8ff" d="M86.88,-325.74C101.74,-293.09 139.59,-219.27 193.75,-179 199.31,-174.87 205.59,-171.39 212.09,-168.48"/>
<polygon fill="#63b8ff" stroke="#63b8ff" points="213.04,-171.87 221.03,-164.92 210.44,-165.37 213.04,-171.87"/>
</a>
</g>
</g>
<!-- Node12 -->
<g id="Node000012" class="node">
<title>Node12</title>
<g id="a_Node000012"><a xlink:href="../../dc/d02/a02020.html#ac66087ac25e72051ea7b5bf3d00dd71f" target="_top" xlink:title=" ">
<polygon fill="white" stroke="#666666" points="330.88,-120 210.62,-120 210.62,-100 330.88,-100 330.88,-120"/>
<text text-anchor="middle" x="270.75" y="-106.5" font-family="Helvetica,sans-Serif" font-size="10.00">LocaleStrings::getString</text>
</a>
</g>
</g>
<!-- Node1&#45;&gt;Node12 -->
<g id="edge15_Node000001_Node000012" class="edge">
<title>Node1&#45;&gt;Node12</title>
<g id="a_edge15_Node000001_Node000012"><a xlink:title=" ">
<path fill="none" stroke="#63b8ff" d="M83.71,-325.72C94.04,-285.63 126.3,-181.61 193.75,-129 195.75,-127.44 197.87,-126 200.07,-124.68"/>
<polygon fill="#63b8ff" stroke="#63b8ff" points="201.46,-127.9 208.84,-120.29 198.33,-121.64 201.46,-127.9"/>
</a>
</g>
</g>
<!-- Node13 -->
<g id="Node000013" class="node">
<title>Node13</title>
<g id="a_Node000013"><a xlink:href="../../d7/d04/a00634.html#a0c8f0f5af8119c36fa703bc2ed301bde" target="_top" xlink:title=" ">
<polygon fill="white" stroke="#666666" points="318.88,-408 222.62,-408 222.62,-376 318.88,-376 318.88,-408"/>
<text text-anchor="start" x="230.62" y="-394.5" font-family="Helvetica,sans-Serif" font-size="10.00">GEU::GuiUtilities::</text>
<text text-anchor="middle" x="270.75" y="-382.5" font-family="Helvetica,sans-Serif" font-size="10.00">InputText</text>
</a>
</g>
</g>
<!-- Node1&#45;&gt;Node13 -->
<g id="edge16_Node000001_Node000013" class="edge">
<title>Node1&#45;&gt;Node13</title>
<g id="a_edge16_Node000001_Node000013"><a xlink:title=" ">
<path fill="none" stroke="#63b8ff" d="M142.31,-358.44C164.49,-364.28 189.37,-370.83 211.21,-376.59"/>
<polygon fill="#63b8ff" stroke="#63b8ff" points="210.3,-379.97 220.87,-379.13 212.09,-373.2 210.3,-379.97"/>
</a>
</g>
</g>
<!-- Node14 -->
<g id="Node000014" class="node">
<title>Node14</title>
<g id="a_Node000014"><a xlink:href="../../d7/d04/a00634.html#aac1ea4f7d9f0ad6e7301fe369e9c489c" target="_top" xlink:title=" ">
<polygon fill="white" stroke="#666666" points="318.88,-358 222.62,-358 222.62,-326 318.88,-326 318.88,-358"/>
<text text-anchor="start" x="230.62" y="-344.5" font-family="Helvetica,sans-Serif" font-size="10.00">GEU::GuiUtilities::</text>
<text text-anchor="middle" x="270.75" y="-332.5" font-family="Helvetica,sans-Serif" font-size="10.00">InputTextMultiline</text>
</a>
</g>
</g>
<!-- Node1&#45;&gt;Node14 -->
<g id="edge19_Node000001_Node000014" class="edge">
<title>Node1&#45;&gt;Node14</title>
<g id="a_edge19_Node000001_Node000014"><a xlink:title=" ">
<path fill="none" stroke="#63b8ff" d="M158.2,-342C175.88,-342 194.35,-342 211.06,-342"/>
<polygon fill="#63b8ff" stroke="#63b8ff" points="210.8,-345.5 220.8,-342 210.8,-338.5 210.8,-345.5"/>
</a>
</g>
</g>
<!-- Node15 -->
<g id="Node000015" class="node">
<title>Node15</title>
<g id="a_Node000015"><a xlink:href="../../d2/d00/a01860.html#adacdaa0b6505fb94120265d3ae37e37e" target="_top" xlink:title=" ">
<polygon fill="white" stroke="#666666" points="327.5,-82 214,-82 214,-50 327.5,-50 327.5,-82"/>
<text text-anchor="start" x="222" y="-68.5" font-family="Helvetica,sans-Serif" font-size="10.00">DatabaseConnector::</text>
<text text-anchor="middle" x="270.75" y="-56.5" font-family="Helvetica,sans-Serif" font-size="10.00">queryAsyncDatoCrudo</text>
</a>
</g>
</g>
<!-- Node1&#45;&gt;Node15 -->
<g id="edge22_Node000001_Node000015" class="edge">
<title>Node1&#45;&gt;Node15</title>
<g id="a_edge22_Node000001_Node000015"><a xlink:title=" ">
<path fill="none" stroke="#63b8ff" d="M82.63,-325.53C90.93,-281.03 119.85,-157.31 193.75,-91 196.83,-88.24 200.21,-85.78 203.8,-83.6"/>
<polygon fill="#63b8ff" stroke="#63b8ff" points="205.1,-86.87 212.33,-79.13 201.85,-80.67 205.1,-86.87"/>
</a>
</g>
</g>
<!-- Node16 -->
<g id="Node000016" class="node">
<title>Node16</title>
<g id="a_Node000016"><a xlink:href="../../d7/d04/a00634.html#ae4d14264e67621c5997464e18c781ea0" target="_top" xlink:title=" ">
<polygon fill="white" stroke="#666666" points="318.88,-32 222.62,-32 222.62,0 318.88,0 318.88,-32"/>
<text text-anchor="start" x="230.62" y="-18.5" font-family="Helvetica,sans-Serif" font-size="10.00">GEU::GuiUtilities::</text>
<text text-anchor="middle" x="270.75" y="-6.5" font-family="Helvetica,sans-Serif" font-size="10.00">SeparatorText</text>
</a>
</g>
</g>
<!-- Node1&#45;&gt;Node16 -->
<g id="edge23_Node000001_Node000016" class="edge">
<title>Node1&#45;&gt;Node16</title>
<g id="a_edge23_Node000001_Node000016"><a xlink:title=" ">
<path fill="none" stroke="#63b8ff" d="M81.23,-325.64C86.24,-275.58 108.18,-122.9 193.75,-41 198.95,-36.02 205.16,-32.03 211.76,-28.84"/>
<polygon fill="#63b8ff" stroke="#63b8ff" points="213.07,-32.09 220.97,-25.03 210.39,-25.62 213.07,-32.09"/>
</a>
</g>
</g>
<!-- Node2&#45;&gt;Node3 -->
<g id="edge2_Node000002_Node000003" class="edge">
<title>Node2&#45;&gt;Node3</title>
<g id="a_edge2_Node000002_Node000003"><a xlink:title=" ">
<path fill="none" stroke="#63b8ff" d="M313.47,-496.43C333.83,-501.52 358.99,-507.81 382.66,-513.73"/>
<polygon fill="#63b8ff" stroke="#63b8ff" points="381.76,-517.11 392.31,-516.14 383.45,-510.32 381.76,-517.11"/>
</a>
</g>
</g>
<!-- Node5 -->
<g id="Node000005" class="node">
<title>Node5</title>
<g id="a_Node000005"><a xlink:href="../../d7/d04/a00634.html#a93d270e10057bb4a04b130a9e20301e2" target="_top" xlink:title=" ">
<polygon fill="white" stroke="#666666" points="511.12,-408 410.38,-408 410.38,-376 511.12,-376 511.12,-408"/>
<text text-anchor="start" x="418.38" y="-394.5" font-family="Helvetica,sans-Serif" font-size="10.00">GEU::GuiUtilities::</text>
<text text-anchor="middle" x="460.75" y="-382.5" font-family="Helvetica,sans-Serif" font-size="10.00">NextItemFillColumn</text>
</a>
</g>
</g>
<!-- Node4&#45;&gt;Node5 -->
<g id="edge4_Node000004_Node000005" class="edge">
<title>Node4&#45;&gt;Node5</title>
<g id="a_edge4_Node000004_Node000005"><a xlink:title=" ">
<path fill="none" stroke="#63b8ff" d="M319.19,-429.38C343.46,-422.93 373.27,-415 399.19,-408.11"/>
<polygon fill="#63b8ff" stroke="#63b8ff" points="399.8,-411.57 408.56,-405.61 398,-404.8 399.8,-411.57"/>
</a>
</g>
</g>
<!-- Node4&#45;&gt;Node6 -->
<g id="edge5_Node000004_Node000006" class="edge">
<title>Node4&#45;&gt;Node6</title>
<g id="a_edge5_Node000004_Node000006"><a xlink:title=" ">
<path fill="none" stroke="#63b8ff" d="M319,-431.55C329.08,-427.98 339.23,-423.24 347.75,-417 369.84,-400.82 361.37,-382.78 383.75,-367 387.6,-364.28 391.79,-361.9 396.14,-359.81"/>
<polygon fill="#63b8ff" stroke="#63b8ff" points="397.29,-363.12 405.16,-356.03 394.59,-356.67 397.29,-363.12"/>
</a>
</g>
</g>
<!-- Node7&#45;&gt;Node3 -->
<g id="edge7_Node000007_Node000003" class="edge">
<title>Node7&#45;&gt;Node3</title>
<g id="a_edge7_Node000007_Node000003"><a xlink:title=" ">
<path fill="none" stroke="#63b8ff" d="M319.23,-622.74C328.88,-619.4 338.8,-615.47 347.75,-611 378.04,-595.88 409.4,-573.34 431.2,-556.38"/>
<polygon fill="#63b8ff" stroke="#63b8ff" points="433.36,-559.14 439.04,-550.19 429.02,-553.65 433.36,-559.14"/>
</a>
</g>
</g>
<!-- Node8&#45;&gt;Node3 -->
<g id="edge9_Node000008_Node000003" class="edge">
<title>Node8&#45;&gt;Node3</title>
<g id="a_edge9_Node000008_Node000003"><a xlink:title=" ">
<path fill="none" stroke="#63b8ff" d="M319.19,-572.63C340.69,-566.56 366.55,-559.28 390.19,-552.61"/>
<polygon fill="#63b8ff" stroke="#63b8ff" points="391.09,-555.99 399.77,-549.91 389.19,-549.25 391.09,-555.99"/>
</a>
</g>
</g>
<!-- Node13&#45;&gt;Node5 -->
<g id="edge17_Node000013_Node000005" class="edge">
<title>Node13&#45;&gt;Node5</title>
<g id="a_edge17_Node000013_Node000005"><a xlink:title=" ">
<path fill="none" stroke="#63b8ff" d="M319.19,-392C343.35,-392 373.01,-392 398.84,-392"/>
<polygon fill="#63b8ff" stroke="#63b8ff" points="398.51,-395.5 408.51,-392 398.51,-388.5 398.51,-395.5"/>
</a>
</g>
</g>
<!-- Node13&#45;&gt;Node6 -->
<g id="edge18_Node000013_Node000006" class="edge">
<title>Node13&#45;&gt;Node6</title>
<g id="a_edge18_Node000013_Node000006"><a xlink:title=" ">
<path fill="none" stroke="#63b8ff" d="M319.19,-380.14C345.86,-373.47 379.23,-365.13 406.76,-358.25"/>
<polygon fill="#63b8ff" stroke="#63b8ff" points="407.45,-361.68 416.3,-355.86 405.75,-354.89 407.45,-361.68"/>
</a>
</g>
</g>
<!-- Node14&#45;&gt;Node5 -->
<g id="edge20_Node000014_Node000005" class="edge">
<title>Node14&#45;&gt;Node5</title>
<g id="a_edge20_Node000014_Node000005"><a xlink:title=" ">
<path fill="none" stroke="#63b8ff" d="M319.19,-354.62C343.46,-361.07 373.27,-369 399.19,-375.89"/>
<polygon fill="#63b8ff" stroke="#63b8ff" points="398,-379.2 408.56,-378.39 399.8,-372.43 398,-379.2"/>
</a>
</g>
</g>
<!-- Node14&#45;&gt;Node6 -->
<g id="edge21_Node000014_Node000006" class="edge">
<title>Node14&#45;&gt;Node6</title>
<g id="a_edge21_Node000014_Node000006"><a xlink:title=" ">
<path fill="none" stroke="#63b8ff" d="M319.19,-342.76C341.16,-343.11 367.68,-343.53 391.73,-343.91"/>
<polygon fill="#63b8ff" stroke="#63b8ff" points="391.38,-347.41 401.43,-344.07 391.49,-340.41 391.38,-347.41"/>
</a>
</g>
</g>
</g>
</svg>
