<?xml version="1.0" encoding="UTF-8" standalone="no"?>
<!DOCTYPE svg PUBLIC "-//W3C//DTD SVG 1.1//EN"
 "http://www.w3.org/Graphics/SVG/1.1/DTD/svg11.dtd">
<!-- Generated by graphviz version 10.0.1 (20240210.2158)
 -->
<!-- Title: C:/GitHub/GEU/GEU/Source/Utilities/Image.cpp Pages: 1 -->
<svg width="3981pt" height="164pt"
 viewBox="0.00 0.00 3980.75 164.00" xmlns="http://www.w3.org/2000/svg" xmlns:xlink="http://www.w3.org/1999/xlink">
<g id="graph0" class="graph" transform="scale(1 1) rotate(0) translate(4 160)">
<title>C:/GitHub/GEU/GEU/Source/Utilities/Image.cpp</title>
<!-- Node1 -->
<g id="Node000001" class="node">
<title>Node1</title>
<g id="a_Node000001"><a xlink:title=" ">
<polygon fill="#999999" stroke="#666666" points="1676.88,-156 1536.38,-156 1536.38,-124 1676.88,-124 1676.88,-156"/>
<text text-anchor="start" x="1544.38" y="-142.5" font-family="Helvetica,sans-Serif" font-size="10.00">C:/GitHub/GEU/GEU/Source</text>
<text text-anchor="middle" x="1606.62" y="-130.5" font-family="Helvetica,sans-Serif" font-size="10.00">/Utilities/Image.cpp</text>
</a>
</g>
</g>
<!-- Node2 -->
<g id="Node000002" class="node">
<title>Node2</title>
<g id="a_Node000002"><a xlink:href="../../db/d06/stdafx_8h.html" target="_top" xlink:title=" ">
<polygon fill="white" stroke="#666666" points="1545.88,-88 1495.38,-88 1495.38,-68 1545.88,-68 1545.88,-88"/>
<text text-anchor="middle" x="1520.62" y="-74.5" font-family="Helvetica,sans-Serif" font-size="10.00">stdafx.h</text>
</a>
</g>
</g>
<!-- Node1&#45;&gt;Node2 -->
<g id="edge1_Node000001_Node000002" class="edge">
<title>Node1&#45;&gt;Node2</title>
<g id="a_edge1_Node000001_Node000002"><a xlink:title=" ">
<path fill="none" stroke="#63b8ff" d="M1584.48,-123.55C1571.91,-114.78 1556.21,-103.83 1543.52,-94.97"/>
<polygon fill="#63b8ff" stroke="#63b8ff" points="1545.56,-92.13 1535.35,-89.27 1541.55,-97.87 1545.56,-92.13"/>
</a>
</g>
</g>
<!-- Node46 -->
<g id="Node000046" class="node">
<title>Node46</title>
<g id="a_Node000046"><a xlink:href="../../d9/de5/_image_8h.html" target="_top" xlink:title=" ">
<polygon fill="white" stroke="#666666" points="1649.5,-88 1563.75,-88 1563.75,-68 1649.5,-68 1649.5,-88"/>
<text text-anchor="middle" x="1606.62" y="-74.5" font-family="Helvetica,sans-Serif" font-size="10.00">Utilities/Image.h</text>
</a>
</g>
</g>
<!-- Node1&#45;&gt;Node46 -->
<g id="edge45_Node000001_Node000046" class="edge">
<title>Node1&#45;&gt;Node46</title>
<g id="a_edge45_Node000001_Node000046"><a xlink:title=" ">
<path fill="none" stroke="#63b8ff" d="M1606.62,-123.55C1606.62,-116.34 1606.62,-107.66 1606.62,-99.88"/>
<polygon fill="#63b8ff" stroke="#63b8ff" points="1610.13,-99.92 1606.63,-89.92 1603.13,-99.92 1610.13,-99.92"/>
</a>
</g>
</g>
<!-- Node47 -->
<g id="Node000047" class="node">
<title>Node47</title>
<g id="a_Node000047"><a xlink:title=" ">
<polygon fill="#e0e0e0" stroke="#999999" points="1725.62,-88 1667.62,-88 1667.62,-68 1725.62,-68 1725.62,-88"/>
<text text-anchor="middle" x="1696.62" y="-74.5" font-family="Helvetica,sans-Serif" font-size="10.00">lodepng.h</text>
</a>
</g>
</g>
<!-- Node1&#45;&gt;Node47 -->
<g id="edge46_Node000001_Node000047" class="edge">
<title>Node1&#45;&gt;Node47</title>
<g id="a_edge46_Node000001_Node000047"><a xlink:title=" ">
<path fill="none" stroke="#63b8ff" d="M1629.8,-123.55C1643.08,-114.69 1659.71,-103.61 1673.06,-94.71"/>
<polygon fill="#63b8ff" stroke="#63b8ff" points="1674.87,-97.71 1681.25,-89.25 1670.99,-91.88 1674.87,-97.71"/>
</a>
</g>
</g>
<!-- Node3 -->
<g id="Node000003" class="node">
<title>Node3</title>
<g id="a_Node000003"><a xlink:title=" ">
<polygon fill="#e0e0e0" stroke="#999999" points="45.25,-26 0,-26 0,-6 45.25,-6 45.25,-26"/>
<text text-anchor="middle" x="22.62" y="-12.5" font-family="Helvetica,sans-Serif" font-size="10.00">cstdint</text>
</a>
</g>
</g>
<!-- Node2&#45;&gt;Node3 -->
<g id="edge2_Node000002_Node000003" class="edge">
<title>Node2&#45;&gt;Node3</title>
<g id="a_edge2_Node000002_Node000003"><a xlink:title=" ">
<path fill="none" stroke="#63b8ff" d="M1495,-76.84C1311.48,-75.6 199.97,-66.72 54.62,-32 53.02,-31.62 51.4,-31.15 49.79,-30.62"/>
<polygon fill="#63b8ff" stroke="#63b8ff" points="51.41,-27.5 40.83,-27 48.79,-33.99 51.41,-27.5"/>
</a>
</g>
</g>
<!-- Node4 -->
<g id="Node000004" class="node">
<title>Node4</title>
<g id="a_Node000004"><a xlink:title=" ">
<polygon fill="#e0e0e0" stroke="#999999" points="107.88,-26 63.38,-26 63.38,-6 107.88,-6 107.88,-26"/>
<text text-anchor="middle" x="85.62" y="-12.5" font-family="Helvetica,sans-Serif" font-size="10.00">cstdlib</text>
</a>
</g>
</g>
<!-- Node2&#45;&gt;Node4 -->
<g id="edge3_Node000002_Node000004" class="edge">
<title>Node2&#45;&gt;Node4</title>
<g id="a_edge3_Node000002_Node000004"><a xlink:title=" ">
<path fill="none" stroke="#63b8ff" d="M1494.95,-76.82C1315.75,-75.48 255.3,-66.14 116.62,-32 115.22,-31.65 113.81,-31.24 112.39,-30.77"/>
<polygon fill="#63b8ff" stroke="#63b8ff" points="113.85,-27.59 103.27,-27.01 111.18,-34.06 113.85,-27.59"/>
</a>
</g>
</g>
<!-- Node5 -->
<g id="Node000005" class="node">
<title>Node5</title>
<g id="a_Node000005"><a xlink:title=" ">
<polygon fill="#e0e0e0" stroke="#999999" points="183.62,-26 125.62,-26 125.62,-6 183.62,-6 183.62,-26"/>
<text text-anchor="middle" x="154.62" y="-12.5" font-family="Helvetica,sans-Serif" font-size="10.00">execution</text>
</a>
</g>
</g>
<!-- Node2&#45;&gt;Node5 -->
<g id="edge4_Node000002_Node000005" class="edge">
<title>Node2&#45;&gt;Node5</title>
<g id="a_edge4_Node000002_Node000005"><a xlink:title=" ">
<path fill="none" stroke="#63b8ff" d="M1494.99,-76.66C1321.69,-74.27 324.54,-59.42 192.62,-32 190.29,-31.52 187.92,-30.9 185.55,-30.2"/>
<polygon fill="#63b8ff" stroke="#63b8ff" points="186.76,-26.91 176.17,-26.92 184.45,-33.52 186.76,-26.91"/>
</a>
</g>
</g>
<!-- Node6 -->
<g id="Node000006" class="node">
<title>Node6</title>
<g id="a_Node000006"><a xlink:title=" ">
<polygon fill="#e0e0e0" stroke="#999999" points="255.38,-26 201.88,-26 201.88,-6 255.38,-6 255.38,-26"/>
<text text-anchor="middle" x="228.62" y="-12.5" font-family="Helvetica,sans-Serif" font-size="10.00">iostream</text>
</a>
</g>
</g>
<!-- Node2&#45;&gt;Node6 -->
<g id="edge5_Node000002_Node000006" class="edge">
<title>Node2&#45;&gt;Node6</title>
<g id="a_edge5_Node000002_Node000006"><a xlink:title=" ">
<path fill="none" stroke="#63b8ff" d="M1495.04,-76.63C1327.39,-74.16 388.79,-59.15 264.62,-32 262.58,-31.55 260.51,-31 258.44,-30.36"/>
<polygon fill="#63b8ff" stroke="#63b8ff" points="259.66,-27.08 249.06,-26.93 257.25,-33.65 259.66,-27.08"/>
</a>
</g>
</g>
<!-- Node7 -->
<g id="Node000007" class="node">
<title>Node7</title>
<g id="a_Node000007"><a xlink:title=" ">
<polygon fill="#e0e0e0" stroke="#999999" points="333.75,-26 273.5,-26 273.5,-6 333.75,-6 333.75,-26"/>
<text text-anchor="middle" x="303.62" y="-12.5" font-family="Helvetica,sans-Serif" font-size="10.00">filesystem</text>
</a>
</g>
</g>
<!-- Node2&#45;&gt;Node7 -->
<g id="edge6_Node000002_Node000007" class="edge">
<title>Node2&#45;&gt;Node7</title>
<g id="a_edge6_Node000002_Node000007"><a xlink:title=" ">
<path fill="none" stroke="#63b8ff" d="M1495.26,-77.16C1345.33,-77.94 573.92,-79.53 342.62,-32 340.14,-31.49 337.61,-30.84 335.09,-30.1"/>
<polygon fill="#63b8ff" stroke="#63b8ff" points="336.32,-26.82 325.73,-26.89 334.05,-33.44 336.32,-26.82"/>
</a>
</g>
</g>
<!-- Node8 -->
<g id="Node000008" class="node">
<title>Node8</title>
<g id="a_Node000008"><a xlink:title=" ">
<polygon fill="#e0e0e0" stroke="#999999" points="395.12,-26 352.12,-26 352.12,-6 395.12,-6 395.12,-26"/>
<text text-anchor="middle" x="373.62" y="-12.5" font-family="Helvetica,sans-Serif" font-size="10.00">format</text>
</a>
</g>
</g>
<!-- Node2&#45;&gt;Node8 -->
<g id="edge7_Node000002_Node000008" class="edge">
<title>Node2&#45;&gt;Node8</title>
<g id="a_edge7_Node000002_Node000008"><a xlink:title=" ">
<path fill="none" stroke="#63b8ff" d="M1494.91,-76.59C1338.07,-74.02 513.48,-59.27 404.62,-32 403.22,-31.65 401.81,-31.23 400.4,-30.76"/>
<polygon fill="#63b8ff" stroke="#63b8ff" points="401.86,-27.58 391.28,-26.98 399.18,-34.04 401.86,-27.58"/>
</a>
</g>
</g>
<!-- Node9 -->
<g id="Node000009" class="node">
<title>Node9</title>
<g id="a_Node000009"><a xlink:title=" ">
<polygon fill="#e0e0e0" stroke="#999999" points="461.75,-26 413.5,-26 413.5,-6 461.75,-6 461.75,-26"/>
<text text-anchor="middle" x="437.62" y="-12.5" font-family="Helvetica,sans-Serif" font-size="10.00">fstream</text>
</a>
</g>
</g>
<!-- Node2&#45;&gt;Node9 -->
<g id="edge8_Node000002_Node000009" class="edge">
<title>Node2&#45;&gt;Node9</title>
<g id="a_edge8_Node000002_Node000009"><a xlink:title=" ">
<path fill="none" stroke="#63b8ff" d="M1495.29,-77.22C1355.17,-78.25 674.03,-80.64 470.62,-32 468.98,-31.61 467.32,-31.13 465.66,-30.59"/>
<polygon fill="#63b8ff" stroke="#63b8ff" points="466.99,-27.36 456.4,-26.95 464.42,-33.87 466.99,-27.36"/>
</a>
</g>
</g>
<!-- Node10 -->
<g id="Node000010" class="node">
<title>Node10</title>
<g id="a_Node000010"><a xlink:title=" ">
<polygon fill="#e0e0e0" stroke="#999999" points="537.25,-26 480,-26 480,-6 537.25,-6 537.25,-26"/>
<text text-anchor="middle" x="508.62" y="-12.5" font-family="Helvetica,sans-Serif" font-size="10.00">functional</text>
</a>
</g>
</g>
<!-- Node2&#45;&gt;Node10 -->
<g id="edge9_Node000002_Node000010" class="edge">
<title>Node2&#45;&gt;Node10</title>
<g id="a_edge9_Node000002_Node000010"><a xlink:title=" ">
<path fill="none" stroke="#63b8ff" d="M1494.96,-76.99C1360.29,-76.74 734.33,-73.33 545.62,-32 543.44,-31.52 541.22,-30.93 539.01,-30.25"/>
<polygon fill="#63b8ff" stroke="#63b8ff" points="540.22,-26.97 529.62,-26.88 537.85,-33.55 540.22,-26.97"/>
</a>
</g>
</g>
<!-- Node11 -->
<g id="Node000011" class="node">
<title>Node11</title>
<g id="a_Node000011"><a xlink:title=" ">
<polygon fill="#e0e0e0" stroke="#999999" points="606.25,-26 555,-26 555,-6 606.25,-6 606.25,-26"/>
<text text-anchor="middle" x="580.62" y="-12.5" font-family="Helvetica,sans-Serif" font-size="10.00">memory</text>
</a>
</g>
</g>
<!-- Node2&#45;&gt;Node11 -->
<g id="edge10_Node000002_Node000011" class="edge">
<title>Node2&#45;&gt;Node11</title>
<g id="a_edge10_Node000002_Node000011"><a xlink:title=" ">
<path fill="none" stroke="#63b8ff" d="M1495.08,-76.98C1366.39,-76.72 788.56,-73.2 614.62,-32 612.85,-31.58 611.06,-31.07 609.27,-30.5"/>
<polygon fill="#63b8ff" stroke="#63b8ff" points="610.55,-27.24 599.96,-26.91 608.03,-33.77 610.55,-27.24"/>
</a>
</g>
</g>
<!-- Node12 -->
<g id="Node000012" class="node">
<title>Node12</title>
<g id="a_Node000012"><a xlink:title=" ">
<polygon fill="#e0e0e0" stroke="#999999" points="675.25,-26 624,-26 624,-6 675.25,-6 675.25,-26"/>
<text text-anchor="middle" x="649.62" y="-12.5" font-family="Helvetica,sans-Serif" font-size="10.00">sstream</text>
</a>
</g>
</g>
<!-- Node2&#45;&gt;Node12 -->
<g id="edge11_Node000002_Node000012" class="edge">
<title>Node2&#45;&gt;Node12</title>
<g id="a_edge11_Node000002_Node000012"><a xlink:title=" ">
<path fill="none" stroke="#63b8ff" d="M1495.06,-76.83C1372.49,-75.81 844.39,-69.3 684.62,-32 682.72,-31.56 680.79,-31.01 678.87,-30.4"/>
<polygon fill="#63b8ff" stroke="#63b8ff" points="680.11,-27.13 669.52,-26.88 677.64,-33.68 680.11,-27.13"/>
</a>
</g>
</g>
<!-- Node13 -->
<g id="Node000013" class="node">
<title>Node13</title>
<g id="a_Node000013"><a xlink:title=" ">
<polygon fill="#e0e0e0" stroke="#999999" points="735.75,-26 693.5,-26 693.5,-6 735.75,-6 735.75,-26"/>
<text text-anchor="middle" x="714.62" y="-12.5" font-family="Helvetica,sans-Serif" font-size="10.00">cstdio</text>
</a>
</g>
</g>
<!-- Node2&#45;&gt;Node13 -->
<g id="edge12_Node000002_Node000013" class="edge">
<title>Node2&#45;&gt;Node13</title>
<g id="a_edge12_Node000002_Node000013"><a xlink:title=" ">
<path fill="none" stroke="#63b8ff" d="M1494.92,-76.9C1377.42,-76.22 890.98,-71.06 744.62,-32 743.26,-31.64 741.89,-31.21 740.52,-30.73"/>
<polygon fill="#63b8ff" stroke="#63b8ff" points="742.3,-27.68 731.73,-26.95 739.54,-34.11 742.3,-27.68"/>
</a>
</g>
</g>
<!-- Node14 -->
<g id="Node000014" class="node">
<title>Node14</title>
<g id="a_Node000014"><a xlink:title=" ">
<polygon fill="#e0e0e0" stroke="#999999" points="797.12,-26 754.12,-26 754.12,-6 797.12,-6 797.12,-26"/>
<text text-anchor="middle" x="775.62" y="-12.5" font-family="Helvetica,sans-Serif" font-size="10.00">thread</text>
</a>
</g>
</g>
<!-- Node2&#45;&gt;Node14 -->
<g id="edge13_Node000002_Node000014" class="edge">
<title>Node2&#45;&gt;Node14</title>
<g id="a_edge13_Node000002_Node000014"><a xlink:title=" ">
<path fill="none" stroke="#63b8ff" d="M1495.14,-76.71C1383.94,-75.23 940.72,-67.21 806.62,-32 805.26,-31.64 803.88,-31.22 802.5,-30.75"/>
<polygon fill="#63b8ff" stroke="#63b8ff" points="804.2,-27.67 793.62,-27.07 801.52,-34.13 804.2,-27.67"/>
</a>
</g>
</g>
<!-- Node15 -->
<g id="Node000015" class="node">
<title>Node15</title>
<g id="a_Node000015"><a xlink:title=" ">
<polygon fill="#e0e0e0" stroke="#999999" points="898,-26 815.25,-26 815.25,-6 898,-6 898,-26"/>
<text text-anchor="middle" x="856.62" y="-12.5" font-family="Helvetica,sans-Serif" font-size="10.00">unordered_map</text>
</a>
</g>
</g>
<!-- Node2&#45;&gt;Node15 -->
<g id="edge14_Node000002_Node000015" class="edge">
<title>Node2&#45;&gt;Node15</title>
<g id="a_edge14_Node000002_Node000015"><a xlink:title=" ">
<path fill="none" stroke="#63b8ff" d="M1494.93,-77.11C1410.14,-77.06 1131.83,-73.52 906.62,-32 902.81,-31.3 898.87,-30.41 894.96,-29.42"/>
<polygon fill="#63b8ff" stroke="#63b8ff" points="896.16,-26.12 885.59,-26.83 894.29,-32.87 896.16,-26.12"/>
</a>
</g>
</g>
<!-- Node16 -->
<g id="Node000016" class="node">
<title>Node16</title>
<g id="a_Node000016"><a xlink:title=" ">
<polygon fill="#e0e0e0" stroke="#999999" points="993.38,-26 915.88,-26 915.88,-6 993.38,-6 993.38,-26"/>
<text text-anchor="middle" x="954.62" y="-12.5" font-family="Helvetica,sans-Serif" font-size="10.00">unordered_set</text>
</a>
</g>
</g>
<!-- Node2&#45;&gt;Node16 -->
<g id="edge15_Node000002_Node000016" class="edge">
<title>Node2&#45;&gt;Node16</title>
<g id="a_edge15_Node000002_Node000016"><a xlink:title=" ">
<path fill="none" stroke="#63b8ff" d="M1495.02,-76.73C1419.12,-75.5 1189.05,-68.78 1002.62,-32 999.22,-31.33 995.72,-30.5 992.23,-29.59"/>
<polygon fill="#63b8ff" stroke="#63b8ff" points="993.3,-26.26 982.73,-26.87 991.37,-32.99 993.3,-26.26"/>
</a>
</g>
</g>
<!-- Node17 -->
<g id="Node000017" class="node">
<title>Node17</title>
<g id="a_Node000017"><a xlink:title=" ">
<polygon fill="#e0e0e0" stroke="#999999" points="1053.38,-26 1011.88,-26 1011.88,-6 1053.38,-6 1053.38,-26"/>
<text text-anchor="middle" x="1032.62" y="-12.5" font-family="Helvetica,sans-Serif" font-size="10.00">vector</text>
</a>
</g>
</g>
<!-- Node2&#45;&gt;Node17 -->
<g id="edge16_Node000002_Node000017" class="edge">
<title>Node2&#45;&gt;Node17</title>
<g id="a_edge16_Node000002_Node000017"><a xlink:title=" ">
<path fill="none" stroke="#63b8ff" d="M1494.95,-77.71C1424.37,-78.97 1222.11,-78 1062.62,-32 1061.45,-31.66 1060.27,-31.28 1059.08,-30.86"/>
<polygon fill="#63b8ff" stroke="#63b8ff" points="1060.65,-27.72 1050.08,-26.98 1057.88,-34.15 1060.65,-27.72"/>
</a>
</g>
</g>
<!-- Node18 -->
<g id="Node000018" class="node">
<title>Node18</title>
<g id="a_Node000018"><a xlink:title=" ">
<polygon fill="#e0e0e0" stroke="#999999" points="1111.62,-26 1071.62,-26 1071.62,-6 1111.62,-6 1111.62,-26"/>
<text text-anchor="middle" x="1091.62" y="-12.5" font-family="Helvetica,sans-Serif" font-size="10.00">future</text>
</a>
</g>
</g>
<!-- Node2&#45;&gt;Node18 -->
<g id="edge17_Node000002_Node000018" class="edge">
<title>Node2&#45;&gt;Node18</title>
<g id="a_edge17_Node000002_Node000018"><a xlink:title=" ">
<path fill="none" stroke="#63b8ff" d="M1495.18,-77.31C1430.9,-77.42 1257.37,-73.51 1120.62,-32 1119.65,-31.7 1118.67,-31.38 1117.69,-31.02"/>
<polygon fill="#63b8ff" stroke="#63b8ff" points="1119.39,-27.95 1108.83,-27.11 1116.56,-34.35 1119.39,-27.95"/>
</a>
</g>
</g>
<!-- Node19 -->
<g id="Node000019" class="node">
<title>Node19</title>
<g id="a_Node000019"><a xlink:title=" ">
<polygon fill="#e0e0e0" stroke="#999999" points="1169.25,-26 1130,-26 1130,-6 1169.25,-6 1169.25,-26"/>
<text text-anchor="middle" x="1149.62" y="-12.5" font-family="Helvetica,sans-Serif" font-size="10.00">utility</text>
</a>
</g>
</g>
<!-- Node2&#45;&gt;Node19 -->
<g id="edge18_Node000002_Node000019" class="edge">
<title>Node2&#45;&gt;Node19</title>
<g id="a_edge18_Node000002_Node000019"><a xlink:title=" ">
<path fill="none" stroke="#63b8ff" d="M1495.09,-76.63C1437.36,-75.16 1292.9,-67.86 1178.62,-32 1177.65,-31.7 1176.68,-31.36 1175.7,-31"/>
<polygon fill="#63b8ff" stroke="#63b8ff" points="1177.4,-27.93 1166.84,-27.06 1174.55,-34.32 1177.4,-27.93"/>
</a>
</g>
</g>
<!-- Node20 -->
<g id="Node000020" class="node">
<title>Node20</title>
<g id="a_Node000020"><a xlink:title=" ">
<polygon fill="#e0e0e0" stroke="#999999" points="1235.75,-26 1187.5,-26 1187.5,-6 1235.75,-6 1235.75,-26"/>
<text text-anchor="middle" x="1211.62" y="-12.5" font-family="Helvetica,sans-Serif" font-size="10.00">random</text>
</a>
</g>
</g>
<!-- Node2&#45;&gt;Node20 -->
<g id="edge19_Node000002_Node000020" class="edge">
<title>Node2&#45;&gt;Node20</title>
<g id="a_edge19_Node000002_Node000020"><a xlink:title=" ">
<path fill="none" stroke="#63b8ff" d="M1495,-75.1C1445.63,-70.95 1334.3,-59.16 1244.62,-32 1243.27,-31.59 1241.9,-31.14 1240.52,-30.65"/>
<polygon fill="#63b8ff" stroke="#63b8ff" points="1242.13,-27.52 1231.54,-27.02 1239.5,-34.01 1242.13,-27.52"/>
</a>
</g>
</g>
<!-- Node21 -->
<g id="Node000021" class="node">
<title>Node21</title>
<g id="a_Node000021"><a xlink:title=" ">
<polygon fill="#e0e0e0" stroke="#999999" points="1293.62,-26 1253.62,-26 1253.62,-6 1293.62,-6 1293.62,-26"/>
<text text-anchor="middle" x="1273.62" y="-12.5" font-family="Helvetica,sans-Serif" font-size="10.00">regex</text>
</a>
</g>
</g>
<!-- Node2&#45;&gt;Node21 -->
<g id="edge20_Node000002_Node000021" class="edge">
<title>Node2&#45;&gt;Node21</title>
<g id="a_edge20_Node000002_Node000021"><a xlink:title=" ">
<path fill="none" stroke="#63b8ff" d="M1495.17,-74.04C1453.85,-68.74 1370.02,-55.87 1302.62,-32 1301.82,-31.72 1301.02,-31.41 1300.21,-31.1"/>
<polygon fill="#63b8ff" stroke="#63b8ff" points="1301.77,-27.96 1291.22,-27 1298.87,-34.33 1301.77,-27.96"/>
</a>
</g>
</g>
<!-- Node22 -->
<g id="Node000022" class="node">
<title>Node22</title>
<g id="a_Node000022"><a xlink:title=" ">
<polygon fill="#e0e0e0" stroke="#999999" points="1381.25,-26 1312,-26 1312,-6 1381.25,-6 1381.25,-26"/>
<text text-anchor="middle" x="1346.62" y="-12.5" font-family="Helvetica,sans-Serif" font-size="10.00">WinSock2.h</text>
</a>
</g>
</g>
<!-- Node2&#45;&gt;Node22 -->
<g id="edge21_Node000002_Node000022" class="edge">
<title>Node2&#45;&gt;Node22</title>
<g id="a_edge21_Node000002_Node000022"><a xlink:title=" ">
<path fill="none" stroke="#63b8ff" d="M1495.01,-68.24C1468.59,-59.2 1426.21,-44.67 1389.62,-32 1387.83,-31.38 1385.99,-30.74 1384.13,-30.09"/>
<polygon fill="#63b8ff" stroke="#63b8ff" points="1385.48,-26.86 1374.88,-26.88 1383.18,-33.47 1385.48,-26.86"/>
</a>
</g>
</g>
<!-- Node23 -->
<g id="Node000023" class="node">
<title>Node23</title>
<g id="a_Node000023"><a xlink:title=" ">
<polygon fill="#e0e0e0" stroke="#999999" points="1460.12,-26 1399.12,-26 1399.12,-6 1460.12,-6 1460.12,-26"/>
<text text-anchor="middle" x="1429.62" y="-12.5" font-family="Helvetica,sans-Serif" font-size="10.00">windows.h</text>
</a>
</g>
</g>
<!-- Node2&#45;&gt;Node23 -->
<g id="edge22_Node000002_Node000023" class="edge">
<title>Node2&#45;&gt;Node23</title>
<g id="a_edge22_Node000002_Node000023"><a xlink:title=" ">
<path fill="none" stroke="#63b8ff" d="M1506.41,-67.62C1492.12,-58.2 1469.84,-43.52 1452.96,-32.39"/>
<polygon fill="#63b8ff" stroke="#63b8ff" points="1455.28,-29.72 1445.01,-27.14 1451.43,-35.57 1455.28,-29.72"/>
</a>
</g>
</g>
<!-- Node24 -->
<g id="Node000024" class="node">
<title>Node24</title>
<g id="a_Node000024"><a xlink:href="../../de/dbf/locale__strings_8h.html" target="_top" xlink:title=" ">
<polygon fill="white" stroke="#666666" points="1562.75,-26 1478.5,-26 1478.5,-6 1562.75,-6 1562.75,-26"/>
<text text-anchor="middle" x="1520.62" y="-12.5" font-family="Helvetica,sans-Serif" font-size="10.00">locale_strings.h</text>
</a>
</g>
</g>
<!-- Node2&#45;&gt;Node24 -->
<g id="edge23_Node000002_Node000024" class="edge">
<title>Node2&#45;&gt;Node24</title>
<g id="a_edge23_Node000002_Node000024"><a xlink:title=" ">
<path fill="none" stroke="#63b8ff" d="M1520.62,-67.62C1520.62,-59.56 1520.62,-47.65 1520.62,-37.41"/>
<polygon fill="#63b8ff" stroke="#63b8ff" points="1524.13,-37.63 1520.63,-27.63 1517.13,-37.63 1524.13,-37.63"/>
</a>
</g>
</g>
<!-- Node25 -->
<g id="Node000025" class="node">
<title>Node25</title>
<g id="a_Node000025"><a xlink:title=" ">
<polygon fill="#e0e0e0" stroke="#999999" points="1640.38,-26 1580.88,-26 1580.88,-6 1640.38,-6 1640.38,-26"/>
<text text-anchor="middle" x="1610.62" y="-12.5" font-family="Helvetica,sans-Serif" font-size="10.00">GL/glew.h</text>
</a>
</g>
</g>
<!-- Node2&#45;&gt;Node25 -->
<g id="edge24_Node000002_Node000025" class="edge">
<title>Node2&#45;&gt;Node25</title>
<g id="a_edge24_Node000002_Node000025"><a xlink:title=" ">
<path fill="none" stroke="#63b8ff" d="M1534.69,-67.62C1548.82,-58.2 1570.85,-43.52 1587.55,-32.39"/>
<polygon fill="#63b8ff" stroke="#63b8ff" points="1589.02,-35.61 1595.4,-27.15 1585.14,-29.78 1589.02,-35.61"/>
</a>
</g>
</g>
<!-- Node26 -->
<g id="Node000026" class="node">
<title>Node26</title>
<g id="a_Node000026"><a xlink:title=" ">
<polygon fill="#e0e0e0" stroke="#999999" points="1736.38,-26 1658.88,-26 1658.88,-6 1736.38,-6 1736.38,-26"/>
<text text-anchor="middle" x="1697.62" y="-12.5" font-family="Helvetica,sans-Serif" font-size="10.00">GLFW/glfw3.h</text>
</a>
</g>
</g>
<!-- Node2&#45;&gt;Node26 -->
<g id="edge25_Node000002_Node000026" class="edge">
<title>Node2&#45;&gt;Node26</title>
<g id="a_edge25_Node000002_Node000026"><a xlink:title=" ">
<path fill="none" stroke="#63b8ff" d="M1546.36,-68.28C1576.04,-58.22 1625.11,-41.58 1659.28,-30"/>
<polygon fill="#63b8ff" stroke="#63b8ff" points="1660.03,-33.44 1668.38,-26.91 1657.79,-26.81 1660.03,-33.44"/>
</a>
</g>
</g>
<!-- Node27 -->
<g id="Node000027" class="node">
<title>Node27</title>
<g id="a_Node000027"><a xlink:title=" ">
<polygon fill="#e0e0e0" stroke="#999999" points="1823.25,-26 1754,-26 1754,-6 1823.25,-6 1823.25,-26"/>
<text text-anchor="middle" x="1788.62" y="-12.5" font-family="Helvetica,sans-Serif" font-size="10.00">glm/glm.hpp</text>
</a>
</g>
</g>
<!-- Node2&#45;&gt;Node27 -->
<g id="edge26_Node000002_Node000027" class="edge">
<title>Node2&#45;&gt;Node27</title>
<g id="a_edge26_Node000002_Node000027"><a xlink:title=" ">
<path fill="none" stroke="#63b8ff" d="M1546.2,-70.02C1549.03,-69.31 1551.89,-68.62 1554.62,-68 1638.88,-48.94 1662.17,-54.29 1745.62,-32 1748.05,-31.35 1750.53,-30.64 1753.01,-29.88"/>
<polygon fill="#63b8ff" stroke="#63b8ff" points="1753.95,-33.26 1762.37,-26.83 1751.78,-26.6 1753.95,-33.26"/>
</a>
</g>
</g>
<!-- Node28 -->
<g id="Node000028" class="node">
<title>Node28</title>
<g id="a_Node000028"><a xlink:title=" ">
<polygon fill="#e0e0e0" stroke="#999999" points="1954,-26 1841.25,-26 1841.25,-6 1954,-6 1954,-26"/>
<text text-anchor="middle" x="1897.62" y="-12.5" font-family="Helvetica,sans-Serif" font-size="10.00">glm/gtc/constants.hpp</text>
</a>
</g>
</g>
<!-- Node2&#45;&gt;Node28 -->
<g id="edge27_Node000002_Node000028" class="edge">
<title>Node2&#45;&gt;Node28</title>
<g id="a_edge27_Node000002_Node000028"><a xlink:title=" ">
<path fill="none" stroke="#63b8ff" d="M1546.16,-69.86C1549.01,-69.18 1551.87,-68.54 1554.62,-68 1676.88,-44.01 1710,-54.03 1832.62,-32 1837.84,-31.06 1843.26,-29.98 1848.65,-28.84"/>
<polygon fill="#63b8ff" stroke="#63b8ff" points="1849.11,-32.32 1858.12,-26.76 1847.61,-25.49 1849.11,-32.32"/>
</a>
</g>
</g>
<!-- Node29 -->
<g id="Node000029" class="node">
<title>Node29</title>
<g id="a_Node000029"><a xlink:title=" ">
<polygon fill="#e0e0e0" stroke="#999999" points="2115,-26 1972.25,-26 1972.25,-6 2115,-6 2115,-26"/>
<text text-anchor="middle" x="2043.62" y="-12.5" font-family="Helvetica,sans-Serif" font-size="10.00">glm/gtc/matrix_transform.hpp</text>
</a>
</g>
</g>
<!-- Node2&#45;&gt;Node29 -->
<g id="edge28_Node000002_Node000029" class="edge">
<title>Node2&#45;&gt;Node29</title>
<g id="a_edge28_Node000002_Node000029"><a xlink:title=" ">
<path fill="none" stroke="#63b8ff" d="M1546.14,-69.75C1548.99,-69.09 1551.86,-68.48 1554.62,-68 1733.93,-36.59 1782.26,-56.6 1962.62,-32 1970.05,-30.99 1977.83,-29.76 1985.51,-28.45"/>
<polygon fill="#63b8ff" stroke="#63b8ff" points="1985.9,-31.93 1995.14,-26.75 1984.69,-25.04 1985.9,-31.93"/>
</a>
</g>
</g>
<!-- Node30 -->
<g id="Node000030" class="node">
<title>Node30</title>
<g id="a_Node000030"><a xlink:title=" ">
<polygon fill="#e0e0e0" stroke="#999999" points="2272.5,-26 2132.75,-26 2132.75,-6 2272.5,-6 2272.5,-26"/>
<text text-anchor="middle" x="2202.62" y="-12.5" font-family="Helvetica,sans-Serif" font-size="10.00">glm/ext/vector_relational.hpp</text>
</a>
</g>
</g>
<!-- Node2&#45;&gt;Node30 -->
<g id="edge29_Node000002_Node000030" class="edge">
<title>Node2&#45;&gt;Node30</title>
<g id="a_edge29_Node000002_Node000030"><a xlink:title=" ">
<path fill="none" stroke="#63b8ff" d="M1546.13,-69.68C1548.98,-69.03 1551.85,-68.45 1554.62,-68 1804.74,-27.39 1872.22,-63.7 2123.62,-32 2131.16,-31.05 2139.07,-29.83 2146.84,-28.49"/>
<polygon fill="#63b8ff" stroke="#63b8ff" points="2147.36,-31.95 2156.59,-26.73 2146.12,-25.06 2147.36,-31.95"/>
</a>
</g>
</g>
<!-- Node31 -->
<g id="Node000031" class="node">
<title>Node31</title>
<g id="a_Node000031"><a xlink:title=" ">
<polygon fill="#e0e0e0" stroke="#999999" points="2391,-26 2290.25,-26 2290.25,-6 2391,-6 2391,-26"/>
<text text-anchor="middle" x="2340.62" y="-12.5" font-family="Helvetica,sans-Serif" font-size="10.00">glm/gtc/epsilon.hpp</text>
</a>
</g>
</g>
<!-- Node2&#45;&gt;Node31 -->
<g id="edge30_Node000002_Node000031" class="edge">
<title>Node2&#45;&gt;Node31</title>
<g id="a_edge30_Node000002_Node000031"><a xlink:title=" ">
<path fill="none" stroke="#63b8ff" d="M1546.12,-69.64C1548.97,-69 1551.85,-68.43 1554.62,-68 1874.3,-18.34 1961.71,-80.09 2281.62,-32 2286.84,-31.22 2292.26,-30.17 2297.61,-28.99"/>
<polygon fill="#63b8ff" stroke="#63b8ff" points="2298.01,-32.49 2306.93,-26.78 2296.39,-25.68 2298.01,-32.49"/>
</a>
</g>
</g>
<!-- Node32 -->
<g id="Node000032" class="node">
<title>Node32</title>
<g id="a_Node000032"><a xlink:title=" ">
<polygon fill="#e0e0e0" stroke="#999999" points="2534,-26 2409.25,-26 2409.25,-6 2534,-6 2534,-26"/>
<text text-anchor="middle" x="2471.62" y="-12.5" font-family="Helvetica,sans-Serif" font-size="10.00">glm/gtx/euler_angles.hpp</text>
</a>
</g>
</g>
<!-- Node2&#45;&gt;Node32 -->
<g id="edge31_Node000002_Node000032" class="edge">
<title>Node2&#45;&gt;Node32</title>
<g id="a_edge31_Node000002_Node000032"><a xlink:title=" ">
<path fill="none" stroke="#63b8ff" d="M1546.12,-69.62C1548.97,-68.98 1551.85,-68.42 1554.62,-68 1926.26,-11.58 2026.61,-78.49 2399.62,-32 2406.44,-31.15 2413.58,-29.99 2420.59,-28.7"/>
<polygon fill="#63b8ff" stroke="#63b8ff" points="2421.21,-32.15 2430.35,-26.79 2419.86,-25.28 2421.21,-32.15"/>
</a>
</g>
</g>
<!-- Node33 -->
<g id="Node000033" class="node">
<title>Node33</title>
<g id="a_Node000033"><a xlink:title=" ">
<polygon fill="#e0e0e0" stroke="#999999" points="2599.38,-26 2551.88,-26 2551.88,-6 2599.38,-6 2599.38,-26"/>
<text text-anchor="middle" x="2575.62" y="-12.5" font-family="Helvetica,sans-Serif" font-size="10.00">imgui.h</text>
</a>
</g>
</g>
<!-- Node2&#45;&gt;Node33 -->
<g id="edge32_Node000002_Node000033" class="edge">
<title>Node2&#45;&gt;Node33</title>
<g id="a_edge32_Node000002_Node000033"><a xlink:title=" ">
<path fill="none" stroke="#63b8ff" d="M1546.12,-69.6C1548.97,-68.97 1551.85,-68.41 1554.62,-68 1771.94,-35.69 2328.79,-82.41 2542.62,-32 2544.27,-31.61 2545.94,-31.14 2547.6,-30.61"/>
<polygon fill="#63b8ff" stroke="#63b8ff" points="2548.83,-33.88 2556.86,-26.97 2546.27,-27.37 2548.83,-33.88"/>
</a>
</g>
</g>
<!-- Node34 -->
<g id="Node000034" class="node">
<title>Node34</title>
<g id="a_Node000034"><a xlink:title=" ">
<polygon fill="#e0e0e0" stroke="#999999" points="2725.38,-32 2617.88,-32 2617.88,0 2725.38,0 2725.38,-32"/>
<text text-anchor="start" x="2625.88" y="-18.5" font-family="Helvetica,sans-Serif" font-size="10.00">backends/imgui_impl</text>
<text text-anchor="middle" x="2671.62" y="-6.5" font-family="Helvetica,sans-Serif" font-size="10.00">_glfw.h</text>
</a>
</g>
</g>
<!-- Node2&#45;&gt;Node34 -->
<g id="edge33_Node000002_Node000034" class="edge">
<title>Node2&#45;&gt;Node34</title>
<g id="a_edge33_Node000002_Node000034"><a xlink:title=" ">
<path fill="none" stroke="#63b8ff" d="M1546.12,-69.59C1548.97,-68.96 1551.85,-68.41 1554.62,-68 2014.59,-0.15 2142.06,-93.07 2606.08,-32.14"/>
<polygon fill="#63b8ff" stroke="#63b8ff" points="2606.51,-35.61 2615.96,-30.82 2605.58,-28.67 2606.51,-35.61"/>
</a>
</g>
</g>
<!-- Node35 -->
<g id="Node000035" class="node">
<title>Node35</title>
<g id="a_Node000035"><a xlink:title=" ">
<polygon fill="#e0e0e0" stroke="#999999" points="2851.38,-32 2743.88,-32 2743.88,0 2851.38,0 2851.38,-32"/>
<text text-anchor="start" x="2751.88" y="-18.5" font-family="Helvetica,sans-Serif" font-size="10.00">backends/imgui_impl</text>
<text text-anchor="middle" x="2797.62" y="-6.5" font-family="Helvetica,sans-Serif" font-size="10.00">_opengl3.h</text>
</a>
</g>
</g>
<!-- Node2&#45;&gt;Node35 -->
<g id="edge34_Node000002_Node000035" class="edge">
<title>Node2&#45;&gt;Node35</title>
<g id="a_edge34_Node000002_Node000035"><a xlink:title=" ">
<path fill="none" stroke="#63b8ff" d="M1546.12,-69.58C1548.97,-68.95 1551.85,-68.4 1554.62,-68 2070.16,7.09 2212.5,-99.59 2732.28,-32.11"/>
<polygon fill="#63b8ff" stroke="#63b8ff" points="2732.5,-35.61 2741.96,-30.83 2731.59,-28.67 2732.5,-35.61"/>
</a>
</g>
</g>
<!-- Node36 -->
<g id="Node000036" class="node">
<title>Node36</title>
<g id="a_Node000036"><a xlink:title=" ">
<polygon fill="#e0e0e0" stroke="#999999" points="2988,-26 2869.25,-26 2869.25,-6 2988,-6 2988,-26"/>
<text text-anchor="middle" x="2928.62" y="-12.5" font-family="Helvetica,sans-Serif" font-size="10.00">misc/cpp/imgui_stdlib.h</text>
</a>
</g>
</g>
<!-- Node2&#45;&gt;Node36 -->
<g id="edge35_Node000002_Node000036" class="edge">
<title>Node2&#45;&gt;Node36</title>
<g id="a_edge35_Node000002_Node000036"><a xlink:title=" ">
<path fill="none" stroke="#63b8ff" d="M1546.11,-69.58C1548.97,-68.95 1551.84,-68.4 1554.62,-68 2129.35,14.85 2284.3,-102.86 2860.62,-32 2867.16,-31.2 2873.99,-30.06 2880.7,-28.76"/>
<polygon fill="#63b8ff" stroke="#63b8ff" points="2881.23,-32.22 2890.31,-26.77 2879.8,-25.37 2881.23,-32.22"/>
</a>
</g>
</g>
<!-- Node37 -->
<g id="Node000037" class="node">
<title>Node37</title>
<g id="a_Node000037"><a xlink:title=" ">
<polygon fill="#e0e0e0" stroke="#999999" points="3090.75,-26 3006.5,-26 3006.5,-6 3090.75,-6 3090.75,-26"/>
<text text-anchor="middle" x="3048.62" y="-12.5" font-family="Helvetica,sans-Serif" font-size="10.00">imgui_internal.h</text>
</a>
</g>
</g>
<!-- Node2&#45;&gt;Node37 -->
<g id="edge36_Node000002_Node000037" class="edge">
<title>Node2&#45;&gt;Node37</title>
<g id="a_edge36_Node000002_Node000037"><a xlink:title=" ">
<path fill="none" stroke="#63b8ff" d="M1546.11,-69.57C1548.97,-68.94 1551.84,-68.4 1554.62,-68 2189.27,22.64 2363.02,-129.64 2996.62,-32 3000.99,-31.33 3005.51,-30.39 3009.98,-29.32"/>
<polygon fill="#63b8ff" stroke="#63b8ff" points="3010.62,-32.77 3019.39,-26.82 3008.83,-26.01 3010.62,-32.77"/>
</a>
</g>
</g>
<!-- Node38 -->
<g id="Node000038" class="node">
<title>Node38</title>
<g id="a_Node000038"><a xlink:title=" ">
<polygon fill="#e0e0e0" stroke="#999999" points="3194.12,-26 3109.12,-26 3109.12,-6 3194.12,-6 3194.12,-26"/>
<text text-anchor="middle" x="3151.62" y="-12.5" font-family="Helvetica,sans-Serif" font-size="10.00">ImGuiNotify.hpp</text>
</a>
</g>
</g>
<!-- Node2&#45;&gt;Node38 -->
<g id="edge37_Node000002_Node000038" class="edge">
<title>Node2&#45;&gt;Node38</title>
<g id="a_edge37_Node000002_Node000038"><a xlink:title=" ">
<path fill="none" stroke="#63b8ff" d="M1546.11,-69.56C1548.96,-68.94 1551.84,-68.39 1554.62,-68 2234.66,28.55 2420.7,-136.05 3099.62,-32 3103.99,-31.33 3108.51,-30.4 3112.98,-29.33"/>
<polygon fill="#63b8ff" stroke="#63b8ff" points="3113.62,-32.78 3122.39,-26.83 3111.83,-26.01 3113.62,-32.78"/>
</a>
</g>
</g>
<!-- Node39 -->
<g id="Node000039" class="node">
<title>Node39</title>
<g id="a_Node000039"><a xlink:title=" ">
<polygon fill="#e0e0e0" stroke="#999999" points="3347.25,-26 3212,-26 3212,-6 3347.25,-6 3347.25,-26"/>
<text text-anchor="middle" x="3279.62" y="-12.5" font-family="Helvetica,sans-Serif" font-size="10.00">addons/imguidatechooser.h</text>
</a>
</g>
</g>
<!-- Node2&#45;&gt;Node39 -->
<g id="edge38_Node000002_Node000039" class="edge">
<title>Node2&#45;&gt;Node39</title>
<g id="a_edge38_Node000002_Node000039"><a xlink:title=" ">
<path fill="none" stroke="#63b8ff" d="M1546.11,-69.56C1548.96,-68.93 1551.84,-68.39 1554.62,-68 1917.56,-16.74 2839.24,-71.63 3203.62,-32 3211.26,-31.17 3219.27,-29.96 3227.11,-28.59"/>
<polygon fill="#63b8ff" stroke="#63b8ff" points="3227.73,-32.03 3236.92,-26.76 3226.45,-25.15 3227.73,-32.03"/>
</a>
</g>
</g>
<!-- Node40 -->
<g id="Node000040" class="node">
<title>Node40</title>
<g id="a_Node000040"><a xlink:title=" ">
<polygon fill="#e0e0e0" stroke="#999999" points="3449.75,-26 3365.5,-26 3365.5,-6 3449.75,-6 3449.75,-26"/>
<text text-anchor="middle" x="3407.62" y="-12.5" font-family="Helvetica,sans-Serif" font-size="10.00">spdlog/spdlog.h</text>
</a>
</g>
</g>
<!-- Node2&#45;&gt;Node40 -->
<g id="edge39_Node000002_Node000040" class="edge">
<title>Node2&#45;&gt;Node40</title>
<g id="a_edge39_Node000002_Node000040"><a xlink:title=" ">
<path fill="none" stroke="#63b8ff" d="M1546.11,-69.56C1548.96,-68.93 1551.84,-68.39 1554.62,-68 1951.27,-12.36 2960.78,-93.05 3356.62,-32 3360.79,-31.36 3365.1,-30.47 3369.36,-29.44"/>
<polygon fill="#63b8ff" stroke="#63b8ff" points="3370.2,-32.83 3378.94,-26.85 3368.37,-26.08 3370.2,-32.83"/>
</a>
</g>
</g>
<!-- Node41 -->
<g id="Node000041" class="node">
<title>Node41</title>
<g id="a_Node000041"><a xlink:title=" ">
<polygon fill="#e0e0e0" stroke="#999999" points="3565.12,-32 3468.12,-32 3468.12,0 3565.12,0 3565.12,-32"/>
<text text-anchor="start" x="3476.12" y="-18.5" font-family="Helvetica,sans-Serif" font-size="10.00">spdlog/sinks/basic</text>
<text text-anchor="middle" x="3516.62" y="-6.5" font-family="Helvetica,sans-Serif" font-size="10.00">_file_sink.h</text>
</a>
</g>
</g>
<!-- Node2&#45;&gt;Node41 -->
<g id="edge40_Node000002_Node000041" class="edge">
<title>Node2&#45;&gt;Node41</title>
<g id="a_edge40_Node000002_Node000041"><a xlink:title=" ">
<path fill="none" stroke="#63b8ff" d="M1546.11,-69.55C1548.96,-68.93 1551.84,-68.39 1554.62,-68 1970.16,-9.93 3021.18,-88.02 3456.62,-31.98"/>
<polygon fill="#63b8ff" stroke="#63b8ff" points="3456.79,-35.49 3466.24,-30.7 3455.86,-28.55 3456.79,-35.49"/>
</a>
</g>
</g>
<!-- Node42 -->
<g id="Node000042" class="node">
<title>Node42</title>
<g id="a_Node000042"><a xlink:title=" ">
<polygon fill="#e0e0e0" stroke="#999999" points="3642.38,-26 3582.88,-26 3582.88,-6 3642.38,-6 3642.38,-26"/>
<text text-anchor="middle" x="3612.62" y="-12.5" font-family="Helvetica,sans-Serif" font-size="10.00">fmt/core.h</text>
</a>
</g>
</g>
<!-- Node2&#45;&gt;Node42 -->
<g id="edge41_Node000002_Node000042" class="edge">
<title>Node2&#45;&gt;Node42</title>
<g id="a_edge41_Node000002_Node000042"><a xlink:title=" ">
<path fill="none" stroke="#63b8ff" d="M1546.11,-69.55C1548.96,-68.93 1551.84,-68.39 1554.62,-68 1999.3,-6.11 3134.34,-119.83 3574.62,-32 3576.96,-31.53 3579.34,-30.93 3581.71,-30.24"/>
<polygon fill="#63b8ff" stroke="#63b8ff" points="3582.8,-33.56 3591.09,-26.98 3580.5,-26.95 3582.8,-33.56"/>
</a>
</g>
</g>
<!-- Node43 -->
<g id="Node000043" class="node">
<title>Node43</title>
<g id="a_Node000043"><a xlink:title=" ">
<polygon fill="#e0e0e0" stroke="#999999" points="3722.5,-26 3660.75,-26 3660.75,-6 3722.5,-6 3722.5,-26"/>
<text text-anchor="middle" x="3691.62" y="-12.5" font-family="Helvetica,sans-Serif" font-size="10.00">fmt/color.h</text>
</a>
</g>
</g>
<!-- Node2&#45;&gt;Node43 -->
<g id="edge42_Node000002_Node000043" class="edge">
<title>Node2&#45;&gt;Node43</title>
<g id="a_edge42_Node000002_Node000043"><a xlink:title=" ">
<path fill="none" stroke="#63b8ff" d="M1546.11,-69.55C1548.96,-68.92 1551.84,-68.39 1554.62,-68 2016.26,-3.9 3193.77,-119.09 3651.62,-32 3654.27,-31.5 3656.97,-30.84 3659.65,-30.07"/>
<polygon fill="#63b8ff" stroke="#63b8ff" points="3660.61,-33.44 3668.99,-26.96 3658.39,-26.8 3660.61,-33.44"/>
</a>
</g>
</g>
<!-- Node44 -->
<g id="Node000044" class="node">
<title>Node44</title>
<g id="a_Node000044"><a xlink:href="../../de/dec/_singleton_8h.html" target="_top" xlink:title=" ">
<polygon fill="white" stroke="#666666" points="3840.62,-26 3740.62,-26 3740.62,-6 3840.62,-6 3840.62,-26"/>
<text text-anchor="middle" x="3790.62" y="-12.5" font-family="Helvetica,sans-Serif" font-size="10.00">Utilities/Singleton.h</text>
</a>
</g>
</g>
<!-- Node2&#45;&gt;Node44 -->
<g id="edge43_Node000002_Node000044" class="edge">
<title>Node2&#45;&gt;Node44</title>
<g id="a_edge43_Node000002_Node000044"><a xlink:title=" ">
<path fill="none" stroke="#63b8ff" d="M1546.11,-69.55C1548.96,-68.92 1551.84,-68.39 1554.62,-68 2033.89,-1.61 3252.04,-96.04 3731.62,-32 3736.97,-31.29 3742.54,-30.26 3748.01,-29.07"/>
<polygon fill="#63b8ff" stroke="#63b8ff" points="3748.65,-32.52 3757.57,-26.82 3747.04,-25.71 3748.65,-32.52"/>
</a>
</g>
</g>
<!-- Node45 -->
<g id="Node000045" class="node">
<title>Node45</title>
<g id="a_Node000045"><a xlink:title=" ">
<polygon fill="#e0e0e0" stroke="#999999" points="3972.75,-26 3858.5,-26 3858.5,-6 3972.75,-6 3972.75,-26"/>
<text text-anchor="middle" x="3915.62" y="-12.5" font-family="Helvetica,sans-Serif" font-size="10.00">simpleson&#45;1.1.0/json.h</text>
</a>
</g>
</g>
<!-- Node2&#45;&gt;Node45 -->
<g id="edge44_Node000002_Node000045" class="edge">
<title>Node2&#45;&gt;Node45</title>
<g id="a_edge44_Node000002_Node000045"><a xlink:title=" ">
<path fill="none" stroke="#63b8ff" d="M1546.11,-69.54C1548.96,-68.92 1551.84,-68.38 1554.62,-68 2059.89,1.78 3343.2,-92.85 3849.62,-32 3856.05,-31.23 3862.77,-30.09 3869.36,-28.79"/>
<polygon fill="#63b8ff" stroke="#63b8ff" points="3869.71,-32.29 3878.76,-26.78 3868.25,-25.45 3869.71,-32.29"/>
</a>
</g>
</g>
</g>
</svg>
