<?xml version="1.0" encoding="UTF-8" standalone="no"?>
<!DOCTYPE svg PUBLIC "-//W3C//DTD SVG 1.1//EN"
 "http://www.w3.org/Graphics/SVG/1.1/DTD/svg11.dtd">
<!-- Generated by graphviz version 10.0.1 (20240210.2158)
 -->
<!-- Title: DatabaseConnector::queryAsyncDatoCrudo Pages: 1 -->
<svg width="316pt" height="90pt"
 viewBox="0.00 0.00 316.00 90.00" xmlns="http://www.w3.org/2000/svg" xmlns:xlink="http://www.w3.org/1999/xlink">
<g id="graph0" class="graph" transform="scale(1 1) rotate(0) translate(4 86)">
<title>DatabaseConnector::queryAsyncDatoCrudo</title>
<!-- Node1 -->
<g id="Node000001" class="node">
<title>Node1</title>
<g id="a_Node000001"><a xlink:title=" ">
<polygon fill="#999999" stroke="#666666" points="308,-57 194.5,-57 194.5,-25 308,-25 308,-57"/>
<text text-anchor="start" x="202.5" y="-43.5" font-family="Helvetica,sans-Serif" font-size="10.00">DatabaseConnector::</text>
<text text-anchor="middle" x="251.25" y="-31.5" font-family="Helvetica,sans-Serif" font-size="10.00">queryAsyncDatoCrudo</text>
</a>
</g>
</g>
<!-- Node2 -->
<g id="Node000002" class="node">
<title>Node2</title>
<g id="a_Node000002"><a xlink:href="../../d2/d02/a01488.html#a6b45f3f4957a46091ab0d75b9600a56d" target="_top" xlink:title="Renders the popup and its contents.">
<polygon fill="white" stroke="#666666" points="158.5,-82 0,-82 0,-50 158.5,-50 158.5,-82"/>
<text text-anchor="start" x="8" y="-68.5" font-family="Helvetica,sans-Serif" font-size="10.00">GEU::DatabaseQueryDatoPopup</text>
<text text-anchor="middle" x="79.25" y="-56.5" font-family="Helvetica,sans-Serif" font-size="10.00">::renderPopup</text>
</a>
</g>
</g>
<!-- Node1&#45;&gt;Node2 -->
<g id="edge1_Node000001_Node000002" class="edge">
<title>Node1&#45;&gt;Node2</title>
<g id="a_edge1_Node000001_Node000002"><a xlink:title=" ">
<path fill="none" stroke="#63b8ff" d="M182.76,-50.93C174.88,-52.08 166.8,-53.27 158.79,-54.45"/>
<polygon fill="#63b8ff" stroke="#63b8ff" points="183.23,-54.39 192.62,-49.48 182.21,-47.47 183.23,-54.39"/>
</a>
</g>
</g>
<!-- Node3 -->
<g id="Node000003" class="node">
<title>Node3</title>
<g id="a_Node000003"><a xlink:href="../../d2/d01/a01484.html#ae07f0a25c9ecb584624ce7bf67bc48cb" target="_top" xlink:title="Renders the window and contents.">
<polygon fill="white" stroke="#666666" points="158.12,-32 0.38,-32 0.38,0 158.12,0 158.12,-32"/>
<text text-anchor="start" x="8.38" y="-18.5" font-family="Helvetica,sans-Serif" font-size="10.00">GEU::DatabaseNewDatoWindow</text>
<text text-anchor="middle" x="79.25" y="-6.5" font-family="Helvetica,sans-Serif" font-size="10.00">::renderWindow</text>
</a>
</g>
</g>
<!-- Node1&#45;&gt;Node3 -->
<g id="edge2_Node000001_Node000003" class="edge">
<title>Node1&#45;&gt;Node3</title>
<g id="a_edge2_Node000001_Node000003"><a xlink:title=" ">
<path fill="none" stroke="#63b8ff" d="M182.94,-31.1C174.91,-29.92 166.65,-28.71 158.48,-27.51"/>
<polygon fill="#63b8ff" stroke="#63b8ff" points="182.21,-34.53 192.62,-32.52 183.23,-27.61 182.21,-34.53"/>
</a>
</g>
</g>
</g>
</svg>
