<?xml version="1.0" encoding="UTF-8" standalone="no"?>
<!DOCTYPE svg PUBLIC "-//W3C//DTD SVG 1.1//EN"
 "http://www.w3.org/Graphics/SVG/1.1/DTD/svg11.dtd">
<!-- Generated by graphviz version 10.0.1 (20240210.2158)
 -->
<!-- Title: GEU::DatabaseNewRawPopup::openPopup Pages: 1 -->
<svg width="521pt" height="78pt"
 viewBox="0.00 0.00 521.00 78.00" xmlns="http://www.w3.org/2000/svg" xmlns:xlink="http://www.w3.org/1999/xlink">
<g id="graph0" class="graph" transform="scale(1 1) rotate(0) translate(4 74)">
<title>GEU::DatabaseNewRawPopup::openPopup</title>
<!-- Node1 -->
<g id="Node000001" class="node">
<title>Node1</title>
<g id="a_Node000001"><a xlink:title="Sets up ImGUI to open a popup window.">
<polygon fill="#999999" stroke="#666666" points="149.5,-48 0,-48 0,-16 149.5,-16 149.5,-48"/>
<text text-anchor="start" x="8" y="-34.5" font-family="Helvetica,sans-Serif" font-size="10.00">GEU::DatabaseNewRawPopup</text>
<text text-anchor="middle" x="74.75" y="-22.5" font-family="Helvetica,sans-Serif" font-size="10.00">::openPopup</text>
</a>
</g>
</g>
<!-- Node2 -->
<g id="Node000002" class="node">
<title>Node2</title>
<g id="a_Node000002"><a xlink:href="../../df/d05/class_g_e_u_1_1_i___g_u_i_popup.html#abdcc20870710b60595e8777b9fd796ed" target="_top" xlink:title=" ">
<polygon fill="white" stroke="#666666" points="325.25,-42 185.5,-42 185.5,-22 325.25,-22 325.25,-42"/>
<text text-anchor="middle" x="255.38" y="-28.5" font-family="Helvetica,sans-Serif" font-size="10.00">GEU::I_GUIPopup::getIdTitle</text>
</a>
</g>
</g>
<!-- Node1&#45;&gt;Node2 -->
<g id="edge1_Node000001_Node000002" class="edge">
<title>Node1&#45;&gt;Node2</title>
<g id="a_edge1_Node000001_Node000002"><a xlink:title=" ">
<path fill="none" stroke="#63b8ff" d="M149.95,-32C157.9,-32 166.01,-32 174.03,-32"/>
<polygon fill="#63b8ff" stroke="#63b8ff" points="173.75,-35.5 183.75,-32 173.75,-28.5 173.75,-35.5"/>
</a>
</g>
</g>
<!-- Node3 -->
<g id="Node000003" class="node">
<title>Node3</title>
<g id="a_Node000003"><a xlink:href="../../d1/d01/class_g_e_u_1_1_singleton.html#a47c7e7c2110f4cc59c9ff1f5594c366e" target="_top" xlink:title=" ">
<polygon fill="white" stroke="#666666" points="513,-70 361.25,-70 361.25,-38 513,-38 513,-70"/>
<text text-anchor="start" x="369.25" y="-56.5" font-family="Helvetica,sans-Serif" font-size="10.00">GEU::Singleton&lt; LocaleStrings</text>
<text text-anchor="middle" x="437.12" y="-44.5" font-family="Helvetica,sans-Serif" font-size="10.00"> &gt;::getInstance</text>
</a>
</g>
</g>
<!-- Node2&#45;&gt;Node3 -->
<g id="edge2_Node000002_Node000003" class="edge">
<title>Node2&#45;&gt;Node3</title>
<g id="a_edge2_Node000002_Node000003"><a xlink:title=" ">
<path fill="none" stroke="#63b8ff" d="M325.61,-40.47C333.48,-41.44 341.57,-42.43 349.62,-43.41"/>
<polygon fill="#63b8ff" stroke="#63b8ff" points="349.1,-46.87 359.45,-44.62 349.95,-39.93 349.1,-46.87"/>
</a>
</g>
</g>
<!-- Node4 -->
<g id="Node000004" class="node">
<title>Node4</title>
<g id="a_Node000004"><a xlink:href="../../d2/d04/class_locale_strings.html#ac66087ac25e72051ea7b5bf3d00dd71f" target="_top" xlink:title=" ">
<polygon fill="white" stroke="#666666" points="497.25,-20 377,-20 377,0 497.25,0 497.25,-20"/>
<text text-anchor="middle" x="437.12" y="-6.5" font-family="Helvetica,sans-Serif" font-size="10.00">LocaleStrings::getString</text>
</a>
</g>
</g>
<!-- Node2&#45;&gt;Node4 -->
<g id="edge3_Node000002_Node000004" class="edge">
<title>Node2&#45;&gt;Node4</title>
<g id="a_edge3_Node000002_Node000004"><a xlink:title=" ">
<path fill="none" stroke="#63b8ff" d="M325.61,-23.53C338.62,-21.93 352.23,-20.27 365.28,-18.67"/>
<polygon fill="#63b8ff" stroke="#63b8ff" points="365.57,-22.16 375.08,-17.47 364.72,-15.21 365.57,-22.16"/>
</a>
</g>
</g>
</g>
</svg>
