<?xml version="1.0" encoding="UTF-8" standalone="no"?>
<!DOCTYPE svg PUBLIC "-//W3C//DTD SVG 1.1//EN"
 "http://www.w3.org/Graphics/SVG/1.1/DTD/svg11.dtd">
<!-- Generated by graphviz version 10.0.1 (20240210.2158)
 -->
<!-- Title: main Pages: 1 -->
<svg width="611pt" height="742pt"
 viewBox="0.00 0.00 611.25 742.00" xmlns="http://www.w3.org/2000/svg" xmlns:xlink="http://www.w3.org/1999/xlink">
<g id="graph0" class="graph" transform="scale(1 1) rotate(0) translate(4 738)">
<title>main</title>
<!-- Node1 -->
<g id="Node000001" class="node">
<title>Node1</title>
<g id="a_Node000001"><a xlink:title=" ">
<polygon fill="#999999" stroke="#666666" points="37,-496 0,-496 0,-476 37,-476 37,-496"/>
<text text-anchor="middle" x="18.5" y="-482.5" font-family="Helvetica,sans-Serif" font-size="10.00">main</text>
</a>
</g>
</g>
<!-- Node2 -->
<g id="Node000002" class="node">
<title>Node2</title>
<g id="a_Node000002"><a xlink:href="../../db/d05/a01833.html#addbef684fb89817493a5bbc81c8ef36a" target="_top" xlink:title=" ">
<polygon fill="white" stroke="#666666" points="223.62,-608 76.38,-608 76.38,-588 223.62,-588 223.62,-608"/>
<text text-anchor="middle" x="150" y="-594.5" font-family="Helvetica,sans-Serif" font-size="10.00">AutoUpdater::checkForUpdate</text>
</a>
</g>
</g>
<!-- Node1&#45;&gt;Node2 -->
<g id="edge1_Node000001_Node000002" class="edge">
<title>Node1&#45;&gt;Node2</title>
<g id="a_edge1_Node000001_Node000002"><a xlink:title=" ">
<path fill="none" stroke="#63b8ff" d="M31.45,-496.34C53.62,-515.51 101.32,-556.76 128.66,-580.4"/>
<polygon fill="#63b8ff" stroke="#63b8ff" points="126.08,-582.8 135.93,-586.7 130.66,-577.51 126.08,-582.8"/>
</a>
</g>
</g>
<!-- Node6 -->
<g id="Node000006" class="node">
<title>Node6</title>
<g id="a_Node000006"><a xlink:href="../../d5/d01/a01945.html#a47c7e7c2110f4cc59c9ff1f5594c366e" target="_top" xlink:title=" ">
<polygon fill="white" stroke="#666666" points="603.25,-502 455.25,-502 455.25,-470 603.25,-470 603.25,-502"/>
<text text-anchor="start" x="463.25" y="-488.5" font-family="Helvetica,sans-Serif" font-size="10.00">GEU::Singleton&lt; NASSession</text>
<text text-anchor="middle" x="529.25" y="-476.5" font-family="Helvetica,sans-Serif" font-size="10.00"> &gt;::getInstance</text>
</a>
</g>
</g>
<!-- Node1&#45;&gt;Node6 -->
<g id="edge13_Node000001_Node000006" class="edge">
<title>Node1&#45;&gt;Node6</title>
<g id="a_edge13_Node000001_Node000006"><a xlink:title=" ">
<path fill="none" stroke="#63b8ff" d="M37.31,-480.62C101.09,-471.84 320.85,-470.18 443.61,-475.64"/>
<polygon fill="#63b8ff" stroke="#63b8ff" points="443.15,-479.12 453.3,-476.1 443.48,-472.13 443.15,-479.12"/>
</a>
</g>
</g>
<!-- Node1&#45;&gt;Node6 -->
<g id="edge14_Node000001_Node000006" class="edge">
<title>Node1&#45;&gt;Node6</title>
<g id="a_edge14_Node000001_Node000006"><a xlink:title=" ">
<path fill="none" stroke="#63b8ff" d="M37.31,-486C101.09,-486 320.85,-486 443.61,-486"/>
<polygon fill="#63b8ff" stroke="#63b8ff" points="443.3,-489.5 453.3,-486 443.3,-482.5 443.3,-489.5"/>
</a>
</g>
</g>
<!-- Node1&#45;&gt;Node6 -->
<g id="edge15_Node000001_Node000006" class="edge">
<title>Node1&#45;&gt;Node6</title>
<g id="a_edge15_Node000001_Node000006"><a xlink:title=" ">
<path fill="none" stroke="#63b8ff" d="M37.31,-491.38C101.09,-500.16 320.85,-501.82 443.61,-496.36"/>
<polygon fill="#63b8ff" stroke="#63b8ff" points="443.48,-499.87 453.3,-495.9 443.15,-492.88 443.48,-499.87"/>
</a>
</g>
</g>
<!-- Node10 -->
<g id="Node000010" class="node">
<title>Node10</title>
<g id="a_Node000010"><a xlink:href="../../d9/d00/a01593.html#a3fbeee11584ea7083a050199f25777f0" target="_top" xlink:title=" ">
<polygon fill="white" stroke="#666666" points="198.12,-300 101.88,-300 101.88,-280 198.12,-280 198.12,-300"/>
<text text-anchor="middle" x="150" y="-286.5" font-family="Helvetica,sans-Serif" font-size="10.00">GEU::Window::init</text>
</a>
</g>
</g>
<!-- Node1&#45;&gt;Node10 -->
<g id="edge16_Node000001_Node000010" class="edge">
<title>Node1&#45;&gt;Node10</title>
<g id="a_edge16_Node000001_Node000010"><a xlink:title=" ">
<path fill="none" stroke="#63b8ff" d="M26.28,-475.74C46.87,-444.58 108.89,-350.7 136.04,-309.61"/>
<polygon fill="#63b8ff" stroke="#63b8ff" points="138.86,-311.7 141.45,-301.42 133.02,-307.84 138.86,-311.7"/>
</a>
</g>
</g>
<!-- Node24 -->
<g id="Node000024" class="node">
<title>Node24</title>
<g id="a_Node000024"><a xlink:href="../../d9/d00/a01593.html#a40480fae5fee694572c05bfba3a3aad1" target="_top" xlink:title=" ">
<polygon fill="white" stroke="#666666" points="200.75,-155 99.25,-155 99.25,-135 200.75,-135 200.75,-155"/>
<text text-anchor="middle" x="150" y="-141.5" font-family="Helvetica,sans-Serif" font-size="10.00">GEU::Window::loop</text>
</a>
</g>
</g>
<!-- Node1&#45;&gt;Node24 -->
<g id="edge36_Node000001_Node000024" class="edge">
<title>Node1&#45;&gt;Node24</title>
<g id="a_edge36_Node000001_Node000024"><a xlink:title=" ">
<path fill="none" stroke="#63b8ff" d="M20.93,-475.8C25.57,-444.34 41.75,-346.32 73,-271 89.71,-230.74 117.9,-188.17 134.85,-164.26"/>
<polygon fill="#63b8ff" stroke="#63b8ff" points="137.48,-166.61 140.48,-156.44 131.8,-162.52 137.48,-166.61"/>
</a>
</g>
</g>
<!-- Node26 -->
<g id="Node000026" class="node">
<title>Node26</title>
<g id="a_Node000026"><a xlink:href="../../db/d05/a01833.html#aaae020aa50e70c0ba9583d36514e4bb6" target="_top" xlink:title=" ">
<polygon fill="white" stroke="#666666" points="227,-117 73,-117 73,-97 227,-97 227,-117"/>
<text text-anchor="middle" x="150" y="-103.5" font-family="Helvetica,sans-Serif" font-size="10.00">AutoUpdater::setCurrentVersion</text>
</a>
</g>
</g>
<!-- Node1&#45;&gt;Node26 -->
<g id="edge39_Node000001_Node000026" class="edge">
<title>Node1&#45;&gt;Node26</title>
<g id="a_edge39_Node000001_Node000026"><a xlink:title=" ">
<path fill="none" stroke="#63b8ff" d="M19.55,-475.59C20,-422.16 24.71,-179.24 73,-126 73.58,-125.36 74.18,-124.74 74.8,-124.13"/>
<polygon fill="#63b8ff" stroke="#63b8ff" points="76.65,-127.13 82.47,-118.27 72.4,-121.56 76.65,-127.13"/>
</a>
</g>
</g>
<!-- Node3 -->
<g id="Node000003" class="node">
<title>Node3</title>
<g id="a_Node000003"><a xlink:href="../../d5/d06/a01773.html#a7b3101bbac98cc31f1d02eea41cda857" target="_top" xlink:title="Inserts new popup window to queue.">
<polygon fill="white" stroke="#666666" points="395.62,-608 286.62,-608 286.62,-588 395.62,-588 395.62,-608"/>
<text text-anchor="middle" x="341.12" y="-594.5" font-family="Helvetica,sans-Serif" font-size="10.00">GEU::GUI::addPopup</text>
</a>
</g>
</g>
<!-- Node2&#45;&gt;Node3 -->
<g id="edge2_Node000002_Node000003" class="edge">
<title>Node2&#45;&gt;Node3</title>
<g id="a_edge2_Node000002_Node000003"><a xlink:title=" ">
<path fill="none" stroke="#63b8ff" d="M224.12,-598C240.93,-598 258.69,-598 275.12,-598"/>
<polygon fill="#63b8ff" stroke="#63b8ff" points="274.75,-601.5 284.75,-598 274.75,-594.5 274.75,-601.5"/>
</a>
</g>
</g>
<!-- Node4 -->
<g id="Node000004" class="node">
<title>Node4</title>
<g id="a_Node000004"><a xlink:href="../../db/d05/a01833.html#ace78c32abf470219b575b901d02caa68" target="_top" xlink:title=" ">
<polygon fill="white" stroke="#666666" points="403.88,-684 278.38,-684 278.38,-664 403.88,-664 403.88,-684"/>
<text text-anchor="middle" x="341.12" y="-670.5" font-family="Helvetica,sans-Serif" font-size="10.00">AutoUpdater::autoUpdate</text>
</a>
</g>
</g>
<!-- Node2&#45;&gt;Node4 -->
<g id="edge3_Node000002_Node000004" class="edge">
<title>Node2&#45;&gt;Node4</title>
<g id="a_edge3_Node000002_Node000004"><a xlink:title=" ">
<path fill="none" stroke="#63b8ff" d="M168.28,-608.38C189.81,-620.93 228.03,-641.99 263,-655 268.36,-656.99 274,-658.84 279.69,-660.53"/>
<polygon fill="#63b8ff" stroke="#63b8ff" points="278.62,-663.87 289.2,-663.19 280.51,-657.12 278.62,-663.87"/>
</a>
</g>
</g>
<!-- Node2&#45;&gt;Node6 -->
<g id="edge7_Node000002_Node000006" class="edge">
<title>Node2&#45;&gt;Node6</title>
<g id="a_edge7_Node000002_Node000006"><a xlink:title=" ">
<path fill="none" stroke="#63b8ff" d="M174.6,-587.51C227.43,-568.43 357.36,-529.11 444.15,-505.24"/>
<polygon fill="#63b8ff" stroke="#63b8ff" points="444.86,-508.67 453.58,-502.66 443.01,-501.92 444.86,-508.67"/>
</a>
</g>
</g>
<!-- Node2&#45;&gt;Node6 -->
<g id="edge8_Node000002_Node000006" class="edge">
<title>Node2&#45;&gt;Node6</title>
<g id="a_edge8_Node000002_Node000006"><a xlink:title=" ">
<path fill="none" stroke="#63b8ff" d="M202.27,-587.58C274.32,-568.79 404.77,-530.06 476.87,-506.06"/>
<polygon fill="#63b8ff" stroke="#63b8ff" points="477.71,-509.47 486.07,-502.97 475.47,-502.84 477.71,-509.47"/>
</a>
</g>
</g>
<!-- Node7 -->
<g id="Node000007" class="node">
<title>Node7</title>
<g id="a_Node000007"><a xlink:href="../../dc/d07/a01933.html#aab7e02581d64801797d4e1799c0a4137" target="_top" xlink:title="Downloads remote file to a string.">
<polygon fill="white" stroke="#666666" points="417,-734 265.25,-734 265.25,-702 417,-702 417,-734"/>
<text text-anchor="start" x="273.25" y="-720.5" font-family="Helvetica,sans-Serif" font-size="10.00">GEU::NASSession::getRemote</text>
<text text-anchor="middle" x="341.12" y="-708.5" font-family="Helvetica,sans-Serif" font-size="10.00">FileAsFileStream</text>
</a>
</g>
</g>
<!-- Node2&#45;&gt;Node7 -->
<g id="edge9_Node000002_Node000007" class="edge">
<title>Node2&#45;&gt;Node7</title>
<g id="a_edge9_Node000002_Node000007"><a xlink:title=" ">
<path fill="none" stroke="#63b8ff" d="M160.48,-608.38C178.62,-627.65 220.24,-669.17 263,-693 265.62,-694.46 268.34,-695.85 271.12,-697.17"/>
<polygon fill="#63b8ff" stroke="#63b8ff" points="269.45,-700.26 280.01,-701.05 272.25,-693.85 269.45,-700.26"/>
</a>
</g>
</g>
<!-- Node9 -->
<g id="Node000009" class="node">
<title>Node9</title>
<g id="a_Node000009"><a xlink:href="../../dc/d07/a01933.html#a865fbe49cfb77213703237ce479c33f6" target="_top" xlink:title="Handles NAS login API request.">
<polygon fill="white" stroke="#666666" points="403.5,-646 278.75,-646 278.75,-626 403.5,-626 403.5,-646"/>
<text text-anchor="middle" x="341.12" y="-632.5" font-family="Helvetica,sans-Serif" font-size="10.00">GEU::NASSession::logIn</text>
</a>
</g>
</g>
<!-- Node2&#45;&gt;Node9 -->
<g id="edge12_Node000002_Node000009" class="edge">
<title>Node2&#45;&gt;Node9</title>
<g id="a_edge12_Node000002_Node000009"><a xlink:title=" ">
<path fill="none" stroke="#63b8ff" d="M203.18,-608.48C226.02,-613.07 253.02,-618.5 276.99,-623.31"/>
<polygon fill="#63b8ff" stroke="#63b8ff" points="276.14,-626.71 286.63,-625.25 277.52,-619.85 276.14,-626.71"/>
</a>
</g>
</g>
<!-- Node5 -->
<g id="Node000005" class="node">
<title>Node5</title>
<g id="a_Node000005"><a xlink:href="../../dc/d06/a01517.html#acf876917d24a55f8ac66a9476c309406" target="_top" xlink:title=" ">
<polygon fill="white" stroke="#666666" points="600.25,-684 458.25,-684 458.25,-664 600.25,-664 600.25,-684"/>
<text text-anchor="middle" x="529.25" y="-670.5" font-family="Helvetica,sans-Serif" font-size="10.00">GEU::Renderer::getAppState</text>
</a>
</g>
</g>
<!-- Node4&#45;&gt;Node5 -->
<g id="edge4_Node000004_Node000005" class="edge">
<title>Node4&#45;&gt;Node5</title>
<g id="a_edge4_Node000004_Node000005"><a xlink:title=" ">
<path fill="none" stroke="#63b8ff" d="M404.36,-674C417.95,-674 432.53,-674 446.75,-674"/>
<polygon fill="#63b8ff" stroke="#63b8ff" points="446.53,-677.5 456.53,-674 446.53,-670.5 446.53,-677.5"/>
</a>
</g>
</g>
<!-- Node4&#45;&gt;Node6 -->
<g id="edge5_Node000004_Node000006" class="edge">
<title>Node4&#45;&gt;Node6</title>
<g id="a_edge5_Node000004_Node000006"><a xlink:title=" ">
<path fill="none" stroke="#63b8ff" d="M373.65,-663.51C388.58,-660.23 406,-655.45 419.25,-646 467.41,-611.63 499.58,-548.71 515.82,-512.7"/>
<polygon fill="#63b8ff" stroke="#63b8ff" points="518.89,-514.4 519.73,-503.84 512.49,-511.57 518.89,-514.4"/>
</a>
</g>
</g>
<!-- Node4&#45;&gt;Node6 -->
<g id="edge6_Node000004_Node000006" class="edge">
<title>Node4&#45;&gt;Node6</title>
<g id="a_edge6_Node000004_Node000006"><a xlink:title=" ">
<path fill="none" stroke="#63b8ff" d="M404.21,-672.22C409.54,-670 414.65,-667.28 419.25,-664 472.54,-625.98 506.24,-553 520.46,-513.13"/>
<polygon fill="#63b8ff" stroke="#63b8ff" points="523.73,-514.38 523.62,-503.79 517.1,-512.14 523.73,-514.38"/>
</a>
</g>
</g>
<!-- Node7&#45;&gt;Node6 -->
<g id="edge10_Node000007_Node000006" class="edge">
<title>Node7&#45;&gt;Node6</title>
<g id="a_edge10_Node000007_Node000006"><a xlink:title=" ">
<path fill="none" stroke="#63b8ff" d="M406.52,-701.57C411.06,-699.1 415.37,-696.26 419.25,-693 476.88,-644.48 508.22,-557.59 521.11,-513.41"/>
<polygon fill="#63b8ff" stroke="#63b8ff" points="524.46,-514.43 523.79,-503.86 517.72,-512.54 524.46,-514.43"/>
</a>
</g>
</g>
<!-- Node8 -->
<g id="Node000008" class="node">
<title>Node8</title>
<g id="a_Node000008"><a xlink:href="../../da/d04/a01921.html#a90f2903c439af79e6af28892f8f9c139" target="_top" xlink:title=" ">
<polygon fill="white" stroke="#666666" points="589.38,-728 469.12,-728 469.12,-708 589.38,-708 589.38,-728"/>
<text text-anchor="middle" x="529.25" y="-714.5" font-family="Helvetica,sans-Serif" font-size="10.00">LocaleStrings::getString</text>
</a>
</g>
</g>
<!-- Node7&#45;&gt;Node8 -->
<g id="edge11_Node000007_Node000008" class="edge">
<title>Node7&#45;&gt;Node8</title>
<g id="a_edge11_Node000007_Node000008"><a xlink:title=" ">
<path fill="none" stroke="#63b8ff" d="M417.29,-718C430.56,-718 444.33,-718 457.47,-718"/>
<polygon fill="#63b8ff" stroke="#63b8ff" points="457.31,-721.5 467.31,-718 457.31,-714.5 457.31,-721.5"/>
</a>
</g>
</g>
<!-- Node10&#45;&gt;Node6 -->
<g id="edge22_Node000010_Node000006" class="edge">
<title>Node10&#45;&gt;Node6</title>
<g id="a_edge22_Node000010_Node000006"><a xlink:title=" ">
<path fill="none" stroke="#63b8ff" d="M179.98,-300.33C201.79,-315.43 232.97,-339.69 263,-357 343.16,-403.19 446.26,-440.67 497.09,-464.68"/>
<polygon fill="#63b8ff" stroke="#63b8ff" points="495.23,-467.67 505.75,-468.93 498.31,-461.38 495.23,-467.67"/>
</a>
</g>
</g>
<!-- Node10&#45;&gt;Node6 -->
<g id="edge23_Node000010_Node000006" class="edge">
<title>Node10&#45;&gt;Node6</title>
<g id="a_edge23_Node000010_Node000006"><a xlink:title=" ">
<path fill="none" stroke="#63b8ff" d="M162.4,-300.23C181.92,-317.36 223.45,-352.21 263,-375 330.11,-413.67 413.31,-446.24 468.44,-465.9"/>
<polygon fill="#63b8ff" stroke="#63b8ff" points="467.06,-469.12 477.65,-469.15 469.39,-462.52 467.06,-469.12"/>
</a>
</g>
</g>
<!-- Node10&#45;&gt;Node6 -->
<g id="edge24_Node000010_Node000006" class="edge">
<title>Node10&#45;&gt;Node6</title>
<g id="a_edge24_Node000010_Node000006"><a xlink:title=" ">
<path fill="none" stroke="#63b8ff" d="M154.62,-300.19C168.09,-323.47 216.89,-366.43 263,-393 320.87,-426.34 390.69,-455.15 444.17,-472.49"/>
<polygon fill="#63b8ff" stroke="#63b8ff" points="442.95,-475.77 453.54,-475.45 445.06,-469.1 442.95,-475.77"/>
</a>
</g>
</g>
<!-- Node11 -->
<g id="Node000011" class="node">
<title>Node11</title>
<g id="a_Node000011"><a xlink:href="../../d2/d04/a01917.html#ad8c64d59af4fc9469b001a38f6d1cca9" target="_top" xlink:title=" ">
<polygon fill="white" stroke="#666666" points="386.62,-328 295.62,-328 295.62,-308 386.62,-308 386.62,-328"/>
<text text-anchor="middle" x="341.12" y="-314.5" font-family="Helvetica,sans-Serif" font-size="10.00">GEU::Image::bits</text>
</a>
</g>
</g>
<!-- Node10&#45;&gt;Node11 -->
<g id="edge17_Node000010_Node000011" class="edge">
<title>Node10&#45;&gt;Node11</title>
<g id="a_edge17_Node000010_Node000011"><a xlink:title=" ">
<path fill="none" stroke="#63b8ff" d="M198.24,-296.99C224.28,-300.85 256.77,-305.66 284.08,-309.7"/>
<polygon fill="#63b8ff" stroke="#63b8ff" points="283.54,-313.16 293.94,-311.16 284.56,-306.24 283.54,-313.16"/>
</a>
</g>
</g>
<!-- Node12 -->
<g id="Node000012" class="node">
<title>Node12</title>
<g id="a_Node000012"><a xlink:href="../../d2/d04/a01917.html#a11d5e92ff1b87f268284ba8dde4d35e6" target="_top" xlink:title=" ">
<polygon fill="white" stroke="#666666" points="418.12,-272 264.12,-272 264.12,-252 418.12,-252 418.12,-272"/>
<text text-anchor="middle" x="341.12" y="-258.5" font-family="Helvetica,sans-Serif" font-size="10.00">GEU::Image::flipImageVertically</text>
</a>
</g>
</g>
<!-- Node10&#45;&gt;Node12 -->
<g id="edge18_Node000010_Node000012" class="edge">
<title>Node10&#45;&gt;Node12</title>
<g id="a_edge18_Node000010_Node000012"><a xlink:title=" ">
<path fill="none" stroke="#63b8ff" d="M198.24,-283.01C216.42,-280.31 237.75,-277.16 258.27,-274.12"/>
<polygon fill="#63b8ff" stroke="#63b8ff" points="258.69,-277.6 268.07,-272.67 257.66,-270.67 258.69,-277.6"/>
</a>
</g>
</g>
<!-- Node13 -->
<g id="Node000013" class="node">
<title>Node13</title>
<g id="a_Node000013"><a xlink:href="../../d1/d03/a01429.html#af2ea72a4bd53eb6f69a5c873e4c22017" target="_top" xlink:title=" ">
<polygon fill="white" stroke="#666666" points="394.88,-82 287.38,-82 287.38,-50 394.88,-50 394.88,-82"/>
<text text-anchor="start" x="295.38" y="-68.5" font-family="Helvetica,sans-Serif" font-size="10.00">GEU::InputManager::</text>
<text text-anchor="middle" x="341.12" y="-56.5" font-family="Helvetica,sans-Serif" font-size="10.00">getApplicationState</text>
</a>
</g>
</g>
<!-- Node10&#45;&gt;Node13 -->
<g id="edge20_Node000010_Node000013" class="edge">
<title>Node10&#45;&gt;Node13</title>
<g id="a_edge20_Node000010_Node000013"><a xlink:title=" ">
<path fill="none" stroke="#63b8ff" d="M157.61,-279.72C171.19,-258.45 202.98,-207.93 227,-164 244.36,-132.26 235.64,-114.66 263,-91 267.11,-87.45 271.73,-84.4 276.62,-81.78"/>
<polygon fill="#63b8ff" stroke="#63b8ff" points="277.98,-85.01 285.57,-77.63 275.03,-78.66 277.98,-85.01"/>
</a>
</g>
</g>
<!-- Node14 -->
<g id="Node000014" class="node">
<title>Node14</title>
<g id="a_Node000014"><a xlink:href="../../d2/d04/a01917.html#a382c634b44f2871503f3e46d6e622010" target="_top" xlink:title=" ">
<polygon fill="white" stroke="#666666" points="399.38,-234 282.88,-234 282.88,-214 399.38,-214 399.38,-234"/>
<text text-anchor="middle" x="341.12" y="-220.5" font-family="Helvetica,sans-Serif" font-size="10.00">GEU::Image::getHeight</text>
</a>
</g>
</g>
<!-- Node10&#45;&gt;Node14 -->
<g id="edge21_Node000010_Node000014" class="edge">
<title>Node10&#45;&gt;Node14</title>
<g id="a_edge21_Node000010_Node000014"><a xlink:title=" ">
<path fill="none" stroke="#63b8ff" d="M172.92,-279.6C195.23,-269.31 230.97,-253.6 263,-243 269.12,-240.97 275.58,-239.06 282.05,-237.27"/>
<polygon fill="#63b8ff" stroke="#63b8ff" points="282.66,-240.73 291.43,-234.79 280.86,-233.97 282.66,-240.73"/>
</a>
</g>
</g>
<!-- Node15 -->
<g id="Node000015" class="node">
<title>Node15</title>
<g id="a_Node000015"><a xlink:href="../../d2/d04/a01917.html#a32f6f1c2cf20229da85e05a4ff2d272d" target="_top" xlink:title=" ">
<polygon fill="white" stroke="#666666" points="398.25,-196 284,-196 284,-176 398.25,-176 398.25,-196"/>
<text text-anchor="middle" x="341.12" y="-182.5" font-family="Helvetica,sans-Serif" font-size="10.00">GEU::Image::getWidth</text>
</a>
</g>
</g>
<!-- Node10&#45;&gt;Node15 -->
<g id="edge25_Node000010_Node000015" class="edge">
<title>Node10&#45;&gt;Node15</title>
<g id="a_edge25_Node000010_Node000015"><a xlink:title=" ">
<path fill="none" stroke="#63b8ff" d="M161.44,-279.66C180.16,-261.73 221.37,-224.87 263,-205 266.77,-203.2 270.72,-201.56 274.77,-200.07"/>
<polygon fill="#63b8ff" stroke="#63b8ff" points="275.81,-203.41 284.19,-196.93 273.6,-196.77 275.81,-203.41"/>
</a>
</g>
</g>
<!-- Node16 -->
<g id="Node000016" class="node">
<title>Node16</title>
<g id="a_Node000016"><a xlink:href="../../d1/d03/a01429.html#acddb82f6e1cd4654b4e708f24f8be001" target="_top" xlink:title=" ">
<polygon fill="white" stroke="#666666" points="401.25,-158 281,-158 281,-138 401.25,-138 401.25,-158"/>
<text text-anchor="middle" x="341.12" y="-144.5" font-family="Helvetica,sans-Serif" font-size="10.00">GEU::InputManager::init</text>
</a>
</g>
</g>
<!-- Node10&#45;&gt;Node16 -->
<g id="edge26_Node000010_Node000016" class="edge">
<title>Node10&#45;&gt;Node16</title>
<g id="a_edge26_Node000010_Node000016"><a xlink:title=" ">
<path fill="none" stroke="#63b8ff" d="M157.38,-279.52C172.52,-255.58 213.12,-196.69 263,-167 265.63,-165.43 268.39,-164 271.22,-162.68"/>
<polygon fill="#63b8ff" stroke="#63b8ff" points="272.43,-165.97 280.38,-158.97 269.8,-159.48 272.43,-165.97"/>
</a>
</g>
</g>
<!-- Node17 -->
<g id="Node000017" class="node">
<title>Node17</title>
<g id="a_Node000017"><a xlink:href="../../d5/d06/a01773.html#a455b1ab303f7874e9d0b5b6da3cced98" target="_top" xlink:title="Starts ImGUI context.">
<polygon fill="white" stroke="#666666" points="391.5,-366 290.75,-366 290.75,-346 391.5,-346 391.5,-366"/>
<text text-anchor="middle" x="341.12" y="-352.5" font-family="Helvetica,sans-Serif" font-size="10.00">GEU::GUI::initialize</text>
</a>
</g>
</g>
<!-- Node10&#45;&gt;Node17 -->
<g id="edge27_Node000010_Node000017" class="edge">
<title>Node10&#45;&gt;Node17</title>
<g id="a_edge27_Node000010_Node000017"><a xlink:title=" ">
<path fill="none" stroke="#63b8ff" d="M172.92,-300.4C195.23,-310.69 230.97,-326.4 263,-337 269.12,-339.03 275.58,-340.94 282.05,-342.73"/>
<polygon fill="#63b8ff" stroke="#63b8ff" points="280.86,-346.03 291.43,-345.21 282.66,-339.27 280.86,-346.03"/>
</a>
</g>
</g>
<!-- Node18 -->
<g id="Node000018" class="node">
<title>Node18</title>
<g id="a_Node000018"><a xlink:href="../../dc/d06/a01517.html#a06ba326c97a0c7b854d66b528f8a4e45" target="_top" xlink:title=" ">
<polygon fill="white" stroke="#666666" points="419.25,-120 263,-120 263,-100 419.25,-100 419.25,-120"/>
<text text-anchor="middle" x="341.12" y="-106.5" font-family="Helvetica,sans-Serif" font-size="10.00">GEU::Renderer::prepareOpenGL</text>
</a>
</g>
</g>
<!-- Node10&#45;&gt;Node18 -->
<g id="edge29_Node000010_Node000018" class="edge">
<title>Node10&#45;&gt;Node18</title>
<g id="a_edge29_Node000010_Node000018"><a xlink:title=" ">
<path fill="none" stroke="#63b8ff" d="M156.89,-279.64C175.43,-247.36 233.12,-149.54 263,-129 264.95,-127.66 266.99,-126.41 269.1,-125.25"/>
<polygon fill="#63b8ff" stroke="#63b8ff" points="270.41,-128.5 277.97,-121.08 267.43,-122.16 270.41,-128.5"/>
</a>
</g>
</g>
<!-- Node12&#45;&gt;Node12 -->
<g id="edge19_Node000012_Node000012" class="edge">
<title>Node12&#45;&gt;Node12</title>
<g id="a_edge19_Node000012_Node000012"><a xlink:title=" ">
<path fill="none" stroke="#63b8ff" d="M311.23,-272.34C298.46,-280.98 308.42,-290 341.12,-290 359.52,-290 370.72,-287.14 374.73,-283.11"/>
<polygon fill="#63b8ff" stroke="#63b8ff" points="378.07,-282.08 371.51,-273.77 371.46,-284.36 378.07,-282.08"/>
</a>
</g>
</g>
<!-- Node17&#45;&gt;Node6 -->
<g id="edge28_Node000017_Node000006" class="edge">
<title>Node17&#45;&gt;Node6</title>
<g id="a_edge28_Node000017_Node000006"><a xlink:title=" ">
<path fill="none" stroke="#63b8ff" d="M388.09,-366.43C398.74,-369.88 409.73,-374.34 419.25,-380 455.1,-401.32 488.22,-436.71 508.33,-460.68"/>
<polygon fill="#63b8ff" stroke="#63b8ff" points="505.61,-462.88 514.66,-468.39 511.02,-458.44 505.61,-462.88"/>
</a>
</g>
</g>
<!-- Node18&#45;&gt;Node6 -->
<g id="edge30_Node000018_Node000006" class="edge">
<title>Node18&#45;&gt;Node6</title>
<g id="a_edge30_Node000018_Node000006"><a xlink:title=" ">
<path fill="none" stroke="#63b8ff" d="M407.12,-120.42C411.53,-122.76 415.64,-125.59 419.25,-129 431.71,-140.8 498.2,-377.56 520.76,-458.86"/>
<polygon fill="#63b8ff" stroke="#63b8ff" points="517.36,-459.74 523.41,-468.44 524.11,-457.87 517.36,-459.74"/>
</a>
</g>
</g>
<!-- Node19 -->
<g id="Node000019" class="node">
<title>Node19</title>
<g id="a_Node000019"><a xlink:href="../../d9/d07/a00551.html#a9b741e2bfa3e546f9305747f35b20042" target="_top" xlink:title="Starts the clock so we can execute whatever we want and measure the used time.">
<polygon fill="white" stroke="#666666" points="593.5,-26 465,-26 465,-6 593.5,-6 593.5,-26"/>
<text text-anchor="middle" x="529.25" y="-12.5" font-family="Helvetica,sans-Serif" font-size="10.00">ChronoUtilities::initChrono</text>
</a>
</g>
</g>
<!-- Node18&#45;&gt;Node19 -->
<g id="edge31_Node000018_Node000019" class="edge">
<title>Node18&#45;&gt;Node19</title>
<g id="a_edge31_Node000018_Node000019"><a xlink:title=" ">
<path fill="none" stroke="#63b8ff" d="M403.43,-99.59C409.05,-97.27 414.43,-94.45 419.25,-91 443.32,-73.8 431.29,-52.36 455.25,-35 457.04,-33.7 458.91,-32.5 460.84,-31.37"/>
<polygon fill="#63b8ff" stroke="#63b8ff" points="462.16,-34.62 469.59,-27.07 459.07,-28.34 462.16,-34.62"/>
</a>
</g>
</g>
<!-- Node20 -->
<g id="Node000020" class="node">
<title>Node20</title>
<g id="a_Node000020"><a xlink:href="../../db/d06/a01529.html#aa6350d2d1ed7a5fec8c4b1abafb06464" target="_top" xlink:title=" ">
<polygon fill="white" stroke="#666666" points="590.12,-214 468.38,-214 468.38,-182 590.12,-182 590.12,-214"/>
<text text-anchor="start" x="476.38" y="-200.5" font-family="Helvetica,sans-Serif" font-size="10.00">GEU::ComputeShader</text>
<text text-anchor="middle" x="529.25" y="-188.5" font-family="Helvetica,sans-Serif" font-size="10.00">::initializeMaxGroupSize</text>
</a>
</g>
</g>
<!-- Node18&#45;&gt;Node20 -->
<g id="edge32_Node000018_Node000020" class="edge">
<title>Node18&#45;&gt;Node20</title>
<g id="a_edge32_Node000018_Node000020"><a xlink:title=" ">
<path fill="none" stroke="#63b8ff" d="M401.45,-120.39C407.7,-122.71 413.77,-125.54 419.25,-129 440.61,-142.49 434.5,-158.58 455.25,-173 456.84,-174.1 458.48,-175.16 460.16,-176.18"/>
<polygon fill="#63b8ff" stroke="#63b8ff" points="458.38,-179.19 468.85,-180.82 461.68,-173.02 458.38,-179.19"/>
</a>
</g>
</g>
<!-- Node21 -->
<g id="Node000021" class="node">
<title>Node21</title>
<g id="a_Node000021"><a xlink:href="../../d0/d02/a00104.html#ab2b13ba4f591e8639b67d08d68864b8a" target="_top" xlink:title="Callback mensajes de debug de OpenGL.">
<polygon fill="white" stroke="#666666" points="577.75,-164 480.75,-164 480.75,-144 577.75,-144 577.75,-164"/>
<text text-anchor="middle" x="529.25" y="-150.5" font-family="Helvetica,sans-Serif" font-size="10.00">message_callback</text>
</a>
</g>
</g>
<!-- Node18&#45;&gt;Node21 -->
<g id="edge33_Node000018_Node000021" class="edge">
<title>Node18&#45;&gt;Node21</title>
<g id="a_edge33_Node000018_Node000021"><a xlink:title=" ">
<path fill="none" stroke="#63b8ff" d="M386.23,-120.43C412.22,-126.57 445.32,-134.39 473.02,-140.94"/>
<polygon fill="#63b8ff" stroke="#63b8ff" points="472.13,-144.33 482.66,-143.22 473.74,-137.52 472.13,-144.33"/>
</a>
</g>
</g>
<!-- Node22 -->
<g id="Node000022" class="node">
<title>Node22</title>
<g id="a_Node000022"><a xlink:href="../../d1/d03/a01429.html#a208ca5b902362e32cc5c20fa9e481b0a" target="_top" xlink:title=" ">
<polygon fill="white" stroke="#666666" points="583,-126 475.5,-126 475.5,-94 583,-94 583,-126"/>
<text text-anchor="start" x="483.5" y="-112.5" font-family="Helvetica,sans-Serif" font-size="10.00">GEU::InputManager::</text>
<text text-anchor="middle" x="529.25" y="-100.5" font-family="Helvetica,sans-Serif" font-size="10.00">suscribeResize</text>
</a>
</g>
</g>
<!-- Node18&#45;&gt;Node22 -->
<g id="edge34_Node000018_Node000022" class="edge">
<title>Node18&#45;&gt;Node22</title>
<g id="a_edge34_Node000018_Node000022"><a xlink:title=" ">
<path fill="none" stroke="#63b8ff" d="M419.71,-110C434.43,-110 449.68,-110 463.93,-110"/>
<polygon fill="#63b8ff" stroke="#63b8ff" points="463.6,-113.5 473.6,-110 463.6,-106.5 463.6,-113.5"/>
</a>
</g>
</g>
<!-- Node23 -->
<g id="Node000023" class="node">
<title>Node23</title>
<g id="a_Node000023"><a xlink:href="../../d1/d03/a01429.html#a5699aaef121685c9ab8cabdac40455b1" target="_top" xlink:title=" ">
<polygon fill="white" stroke="#666666" points="583,-76 475.5,-76 475.5,-44 583,-44 583,-76"/>
<text text-anchor="start" x="483.5" y="-62.5" font-family="Helvetica,sans-Serif" font-size="10.00">GEU::InputManager::</text>
<text text-anchor="middle" x="529.25" y="-50.5" font-family="Helvetica,sans-Serif" font-size="10.00">suscribeScreenshot</text>
</a>
</g>
</g>
<!-- Node18&#45;&gt;Node23 -->
<g id="edge35_Node000018_Node000023" class="edge">
<title>Node18&#45;&gt;Node23</title>
<g id="a_edge35_Node000018_Node000023"><a xlink:title=" ">
<path fill="none" stroke="#63b8ff" d="M385.84,-99.52C396.77,-96.82 408.45,-93.86 419.25,-91 433.8,-87.14 449.38,-82.82 464.09,-78.66"/>
<polygon fill="#63b8ff" stroke="#63b8ff" points="465.02,-82.03 473.68,-75.93 463.1,-75.3 465.02,-82.03"/>
</a>
</g>
</g>
<!-- Node24&#45;&gt;Node13 -->
<g id="edge37_Node000024_Node000013" class="edge">
<title>Node24&#45;&gt;Node13</title>
<g id="a_edge37_Node000024_Node000013"><a xlink:title=" ">
<path fill="none" stroke="#63b8ff" d="M201.09,-136.47C210.04,-133.85 219.04,-130.43 227,-126 246.5,-115.14 243.89,-102.52 263,-91 267.32,-88.4 271.94,-86.03 276.7,-83.89"/>
<polygon fill="#63b8ff" stroke="#63b8ff" points="277.94,-87.16 285.86,-80.13 275.28,-80.69 277.94,-87.16"/>
</a>
</g>
</g>
<!-- Node25 -->
<g id="Node000025" class="node">
<title>Node25</title>
<g id="a_Node000025"><a xlink:href="../../db/d06/a01497.html#a0dd0a497b52354417492d92872583169" target="_top" xlink:title=" ">
<polygon fill="white" stroke="#666666" points="406.5,-32 275.75,-32 275.75,0 406.5,0 406.5,-32"/>
<text text-anchor="start" x="283.75" y="-18.5" font-family="Helvetica,sans-Serif" font-size="10.00">GEU::MemoryManager</text>
<text text-anchor="middle" x="341.12" y="-6.5" font-family="Helvetica,sans-Serif" font-size="10.00">::updateCurrentRamUsage</text>
</a>
</g>
</g>
<!-- Node24&#45;&gt;Node25 -->
<g id="edge38_Node000024_Node000025" class="edge">
<title>Node24&#45;&gt;Node25</title>
<g id="a_edge38_Node000024_Node000025"><a xlink:title=" ">
<path fill="none" stroke="#63b8ff" d="M201.21,-139.41C210.55,-136.53 219.66,-132.28 227,-126 258.18,-99.33 232.75,-68.72 263,-41 263.93,-40.14 264.9,-39.32 265.89,-38.52"/>
<polygon fill="#63b8ff" stroke="#63b8ff" points="267.85,-41.42 274.17,-32.92 263.93,-35.62 267.85,-41.42"/>
</a>
</g>
</g>
</g>
</svg>
