<?xml version="1.0" encoding="UTF-8" standalone="no"?>
<!DOCTYPE svg PUBLIC "-//W3C//DTD SVG 1.1//EN"
 "http://www.w3.org/Graphics/SVG/1.1/DTD/svg11.dtd">
<!-- Generated by graphviz version 10.0.1 (20240210.2158)
 -->
<!-- Title: Database::VueloCamara Pages: 1 -->
<svg width="149pt" height="201pt"
 viewBox="0.00 0.00 149.12 201.00" xmlns="http://www.w3.org/2000/svg" xmlns:xlink="http://www.w3.org/1999/xlink">
<g id="graph0" class="graph" transform="scale(1 1) rotate(0) translate(4 197)">
<title>Database::VueloCamara</title>
<!-- Node1 -->
<g id="Node000001" class="node">
<title>Node1</title>
<g id="a_Node000001"><a xlink:title=" ">
<polygon fill="#999999" stroke="#666666" points="121.75,-20 0,-20 0,0 121.75,0 121.75,-20"/>
<text text-anchor="middle" x="60.88" y="-6.5" font-family="Helvetica,sans-Serif" font-size="10.00">Database::VueloCamara</text>
</a>
</g>
</g>
<!-- Node2 -->
<g id="Node000002" class="node">
<title>Node2</title>
<g id="a_Node000002"><a xlink:title=" ">
<polygon fill="white" stroke="#666666" points="90.62,-124 31.12,-124 31.12,-104 90.62,-104 90.62,-124"/>
<text text-anchor="middle" x="60.88" y="-110.5" font-family="Helvetica,sans-Serif" font-size="10.00">std::string</text>
</a>
</g>
</g>
<!-- Node2&#45;&gt;Node1 -->
<g id="edge1_Node000001_Node000002" class="edge">
<title>Node2&#45;&gt;Node1</title>
<g id="a_edge1_Node000001_Node000002"><a xlink:title=" ">
<path fill="none" stroke="#9a32cd" stroke-dasharray="5,2" d="M60.88,-92.23C60.88,-70.27 60.88,-36.62 60.88,-20.39"/>
<polygon fill="#9a32cd" stroke="#9a32cd" points="57.38,-92.07 60.88,-102.07 64.38,-92.07 57.38,-92.07"/>
</a>
</g>
<text text-anchor="middle" x="101" y="-76.5" font-family="Helvetica,sans-Serif" font-size="10.00" fill="grey"> SELECT_QUERY</text>
<text text-anchor="middle" x="101" y="-64.5" font-family="Helvetica,sans-Serif" font-size="10.00" fill="grey">fabricanteCamara</text>
<text text-anchor="middle" x="101" y="-52.5" font-family="Helvetica,sans-Serif" font-size="10.00" fill="grey">modeloCamara</text>
<text text-anchor="middle" x="101" y="-40.5" font-family="Helvetica,sans-Serif" font-size="10.00" fill="grey">zonaUbicacion</text>
</g>
<!-- Node3 -->
<g id="Node000003" class="node">
<title>Node3</title>
<g id="a_Node000003"><a xlink:title=" ">
<polygon fill="white" stroke="#666666" points="107.88,-193 13.87,-193 13.87,-161 107.88,-161 107.88,-193"/>
<text text-anchor="start" x="21.88" y="-179.5" font-family="Helvetica,sans-Serif" font-size="10.00">std::basic_string&lt;</text>
<text text-anchor="middle" x="60.88" y="-167.5" font-family="Helvetica,sans-Serif" font-size="10.00"> Char &gt;</text>
</a>
</g>
</g>
<!-- Node3&#45;&gt;Node2 -->
<g id="edge2_Node000002_Node000003" class="edge">
<title>Node3&#45;&gt;Node2</title>
<g id="a_edge2_Node000002_Node000003"><a xlink:title=" ">
<path fill="none" stroke="#63b8ff" d="M60.88,-149.36C60.88,-140.41 60.88,-131.01 60.88,-124.31"/>
<polygon fill="#63b8ff" stroke="#63b8ff" points="57.38,-149.09 60.88,-159.09 64.38,-149.09 57.38,-149.09"/>
</a>
</g>
</g>
</g>
</svg>
