<?xml version="1.0" encoding="UTF-8" standalone="no"?>
<!DOCTYPE svg PUBLIC "-//W3C//DTD SVG 1.1//EN"
 "http://www.w3.org/Graphics/SVG/1.1/DTD/svg11.dtd">
<!-- Generated by graphviz version 10.0.1 (20240210.2158)
 -->
<!-- Title: ImGradient::getColorAt Pages: 1 -->
<svg width="418pt" height="40pt"
 viewBox="0.00 0.00 418.25 40.00" xmlns="http://www.w3.org/2000/svg" xmlns:xlink="http://www.w3.org/1999/xlink">
<g id="graph0" class="graph" transform="scale(1 1) rotate(0) translate(4 36)">
<title>ImGradient::getColorAt</title>
<!-- Node1 -->
<g id="Node000001" class="node">
<title>Node1</title>
<g id="a_Node000001"><a xlink:title=" ">
<polygon fill="#999999" stroke="#666666" points="410.25,-26 295.25,-26 295.25,-6 410.25,-6 410.25,-26"/>
<text text-anchor="middle" x="352.75" y="-12.5" font-family="Helvetica,sans-Serif" font-size="10.00">ImGradient::getColorAt</text>
</a>
</g>
</g>
<!-- Node2 -->
<g id="Node000002" class="node">
<title>Node2</title>
<g id="a_Node000002"><a xlink:href="../../dc/d06/a00630.html#a3add9205f87d8efffa815d6e8db4864c" target="_top" xlink:title=" ">
<polygon fill="white" stroke="#666666" points="259.25,-26 149.5,-26 149.5,-6 259.25,-6 259.25,-26"/>
<text text-anchor="middle" x="204.38" y="-12.5" font-family="Helvetica,sans-Serif" font-size="10.00">ImGui::GradientEditor</text>
</a>
</g>
</g>
<!-- Node1&#45;&gt;Node2 -->
<g id="edge1_Node000001_Node000002" class="edge">
<title>Node1&#45;&gt;Node2</title>
<g id="a_edge1_Node000001_Node000002"><a xlink:title=" ">
<path fill="none" stroke="#63b8ff" d="M283.73,-16C275.57,-16 267.33,-16 259.41,-16"/>
<polygon fill="#63b8ff" stroke="#63b8ff" points="283.64,-19.5 293.64,-16 283.64,-12.5 283.64,-19.5"/>
</a>
</g>
</g>
<!-- Node3 -->
<g id="Node000003" class="node">
<title>Node3</title>
<g id="a_Node000003"><a xlink:href="../../db/d06/a01509.html#a7af9db6d6ad56c4c4fc336251024472f" target="_top" xlink:title="Renders the window and contents.">
<polygon fill="white" stroke="#666666" points="113.5,-32 0,-32 0,0 113.5,0 113.5,-32"/>
<text text-anchor="start" x="8" y="-18.5" font-family="Helvetica,sans-Serif" font-size="10.00">GEU::SettingsWindow</text>
<text text-anchor="middle" x="56.75" y="-6.5" font-family="Helvetica,sans-Serif" font-size="10.00">::renderWindow</text>
</a>
</g>
</g>
<!-- Node2&#45;&gt;Node3 -->
<g id="edge2_Node000002_Node000003" class="edge">
<title>Node2&#45;&gt;Node3</title>
<g id="a_edge2_Node000002_Node000003"><a xlink:title=" ">
<path fill="none" stroke="#63b8ff" d="M137.68,-16C129.76,-16 121.73,-16 113.97,-16"/>
<polygon fill="#63b8ff" stroke="#63b8ff" points="137.64,-19.5 147.64,-16 137.64,-12.5 137.64,-19.5"/>
</a>
</g>
</g>
</g>
</svg>
