<?xml version="1.0" encoding="UTF-8" standalone="no"?>
<!DOCTYPE svg PUBLIC "-//W3C//DTD SVG 1.1//EN"
 "http://www.w3.org/Graphics/SVG/1.1/DTD/svg11.dtd">
<!-- Generated by graphviz version 10.0.1 (20240210.2158)
 -->
<!-- Title: Projection::classification Pages: 1 -->
<svg width="451pt" height="78pt"
 viewBox="0.00 0.00 450.50 78.00" xmlns="http://www.w3.org/2000/svg" xmlns:xlink="http://www.w3.org/1999/xlink">
<g id="graph0" class="graph" transform="scale(1 1) rotate(0) translate(4 74)">
<title>Projection::classification</title>
<!-- Node1 -->
<g id="Node000001" class="node">
<title>Node1</title>
<g id="a_Node000001"><a xlink:title=" ">
<polygon fill="#999999" stroke="#666666" points="121.75,-48 0,-48 0,-28 121.75,-28 121.75,-48"/>
<text text-anchor="middle" x="60.88" y="-34.5" font-family="Helvetica,sans-Serif" font-size="10.00">Projection::classification</text>
</a>
</g>
</g>
<!-- Node2 -->
<g id="Node000002" class="node">
<title>Node2</title>
<g id="a_Node000002"><a xlink:href="../../de/d06/a00500.html#ae42617f5c54c5adb29778c753f887ed9" target="_top" xlink:title=" ">
<polygon fill="white" stroke="#666666" points="253.25,-70 194.5,-70 194.5,-50 253.25,-50 253.25,-70"/>
<text text-anchor="middle" x="223.88" y="-56.5" font-family="Helvetica,sans-Serif" font-size="10.00">isInRange</text>
</a>
</g>
</g>
<!-- Node1&#45;&gt;Node2 -->
<g id="edge1_Node000001_Node000002" class="edge">
<title>Node1&#45;&gt;Node2</title>
<g id="a_edge1_Node000001_Node000002"><a xlink:title=" ">
<path fill="none" stroke="#63b8ff" d="M121.83,-46.19C142.31,-48.99 164.7,-52.05 183.18,-54.58"/>
<polygon fill="#63b8ff" stroke="#63b8ff" points="182.54,-58.02 192.92,-55.91 183.49,-51.09 182.54,-58.02"/>
</a>
</g>
</g>
<!-- Node3 -->
<g id="Node000003" class="node">
<title>Node3</title>
<g id="a_Node000003"><a xlink:href="../../d3/d01/a02052.html#ab46ebe5cf87462e4bed4b6166b7625b9" target="_top" xlink:title=" ">
<polygon fill="white" stroke="#666666" points="290,-32 157.75,-32 157.75,0 290,0 290,-32"/>
<text text-anchor="start" x="165.75" y="-18.5" font-family="Helvetica,sans-Serif" font-size="10.00">Projection::vegetationIndex</text>
<text text-anchor="middle" x="223.88" y="-6.5" font-family="Helvetica,sans-Serif" font-size="10.00">Calculation</text>
</a>
</g>
</g>
<!-- Node1&#45;&gt;Node3 -->
<g id="edge2_Node000001_Node000003" class="edge">
<title>Node1&#45;&gt;Node3</title>
<g id="a_edge2_Node000001_Node000003"><a xlink:title=" ">
<path fill="none" stroke="#63b8ff" d="M121.83,-29.81C129.82,-28.72 138.1,-27.58 146.32,-26.46"/>
<polygon fill="#63b8ff" stroke="#63b8ff" points="146.54,-29.96 155.97,-25.14 145.59,-23.03 146.54,-29.96"/>
</a>
</g>
</g>
<!-- Node4 -->
<g id="Node000004" class="node">
<title>Node4</title>
<g id="a_Node000004"><a xlink:href="../../d3/d01/a02052.html#abe314ac3095b6a36d014f4d097431555" target="_top" xlink:title=" ">
<polygon fill="white" stroke="#666666" points="442.5,-26 326,-26 326,-6 442.5,-6 442.5,-26"/>
<text text-anchor="middle" x="384.25" y="-12.5" font-family="Helvetica,sans-Serif" font-size="10.00">Projection::normalizeVi</text>
</a>
</g>
</g>
<!-- Node3&#45;&gt;Node4 -->
<g id="edge3_Node000003_Node000004" class="edge">
<title>Node3&#45;&gt;Node4</title>
<g id="a_edge3_Node000003_Node000004"><a xlink:title=" ">
<path fill="none" stroke="#63b8ff" d="M290.21,-16C298.2,-16 306.39,-16 314.43,-16"/>
<polygon fill="#63b8ff" stroke="#63b8ff" points="314.15,-19.5 324.15,-16 314.15,-12.5 314.15,-19.5"/>
</a>
</g>
</g>
</g>
</svg>
