<?xml version="1.0" encoding="UTF-8" standalone="no"?>
<!DOCTYPE svg PUBLIC "-//W3C//DTD SVG 1.1//EN"
 "http://www.w3.org/Graphics/SVG/1.1/DTD/svg11.dtd">
<!-- Generated by graphviz version 10.0.1 (20240210.2158)
 -->
<!-- Title: json::jobject::const_value::get Pages: 1 -->
<svg width="653pt" height="182pt"
 viewBox="0.00 0.00 652.75 182.00" xmlns="http://www.w3.org/2000/svg" xmlns:xlink="http://www.w3.org/1999/xlink">
<g id="graph0" class="graph" transform="scale(1 1) rotate(0) translate(4 178)">
<title>json::jobject::const_value::get</title>
<!-- Node1 -->
<g id="Node000001" class="node">
<title>Node1</title>
<g id="a_Node000001"><a xlink:title="Returns another constant value from this object.">
<polygon fill="#999999" stroke="#666666" points="98.5,-133 0,-133 0,-101 98.5,-101 98.5,-133"/>
<text text-anchor="start" x="8" y="-119.5" font-family="Helvetica,sans-Serif" font-size="10.00">json::jobject::const</text>
<text text-anchor="middle" x="49.25" y="-107.5" font-family="Helvetica,sans-Serif" font-size="10.00">_value::get</text>
</a>
</g>
</g>
<!-- Node1&#45;&gt;Node1 -->
<g id="edge2_Node000001_Node000001" class="edge">
<title>Node1&#45;&gt;Node1</title>
<g id="a_edge2_Node000001_Node000001"><a xlink:title=" ">
<path fill="none" stroke="#63b8ff" d="M25.1,-133.44C20.6,-142.58 28.65,-151 49.25,-151 60.52,-151 68.03,-148.48 71.79,-144.71"/>
<polygon fill="#63b8ff" stroke="#63b8ff" points="75.23,-145.34 73.18,-134.94 68.3,-144.35 75.23,-145.34"/>
</a>
</g>
</g>
<!-- Node2 -->
<g id="Node000002" class="node">
<title>Node2</title>
<g id="a_Node000002"><a xlink:href="../../d3/d01/a02005.html#a03c29777c19137bc1dedd584e1254ce2" target="_top" xlink:title="Constructs a proxy with the provided value.">
<polygon fill="white" stroke="#666666" points="234.5,-155 134.5,-155 134.5,-123 234.5,-123 234.5,-155"/>
<text text-anchor="start" x="142.5" y="-141.5" font-family="Helvetica,sans-Serif" font-size="10.00">json::jobject::const</text>
<text text-anchor="middle" x="184.5" y="-129.5" font-family="Helvetica,sans-Serif" font-size="10.00">_value::const_value</text>
</a>
</g>
</g>
<!-- Node1&#45;&gt;Node2 -->
<g id="edge1_Node000001_Node000002" class="edge">
<title>Node1&#45;&gt;Node2</title>
<g id="a_edge1_Node000001_Node000002"><a xlink:title=" ">
<path fill="none" stroke="#63b8ff" d="M98.73,-125C106.71,-126.32 115.07,-127.7 123.3,-129.06"/>
<polygon fill="#63b8ff" stroke="#63b8ff" points="122.45,-132.47 132.89,-130.64 123.59,-125.56 122.45,-132.47"/>
</a>
</g>
</g>
<!-- Node3 -->
<g id="Node000003" class="node">
<title>Node3</title>
<g id="a_Node000003"><a xlink:href="../../d0/d03/a01997.html#a07e29a2948df56e3eb332fcebe6ab9d5" target="_top" xlink:title="Parses a serialized JSON string.">
<polygon fill="white" stroke="#666666" points="233.75,-105 135.25,-105 135.25,-85 233.75,-85 233.75,-105"/>
<text text-anchor="middle" x="184.5" y="-91.5" font-family="Helvetica,sans-Serif" font-size="10.00">json::jobject::parse</text>
</a>
</g>
</g>
<!-- Node1&#45;&gt;Node3 -->
<g id="edge3_Node000001_Node000003" class="edge">
<title>Node1&#45;&gt;Node3</title>
<g id="a_edge3_Node000001_Node000003"><a xlink:title=" ">
<path fill="none" stroke="#63b8ff" d="M98.73,-109C106.82,-107.66 115.29,-106.26 123.61,-104.89"/>
<polygon fill="#63b8ff" stroke="#63b8ff" points="124.04,-108.36 133.34,-103.28 122.9,-101.46 124.04,-108.36"/>
</a>
</g>
</g>
<!-- Node4 -->
<g id="Node000004" class="node">
<title>Node4</title>
<g id="a_Node000004"><a xlink:href="../../dd/d06/a00639.html#a38da988d5211eacc7d4b76da2236e51a" target="_top" xlink:title="Decodes a string in JSON format.">
<polygon fill="white" stroke="#666666" points="379.5,-174 270.5,-174 270.5,-142 379.5,-142 379.5,-174"/>
<text text-anchor="start" x="278.5" y="-160.5" font-family="Helvetica,sans-Serif" font-size="10.00">json::parsing::decode</text>
<text text-anchor="middle" x="325" y="-148.5" font-family="Helvetica,sans-Serif" font-size="10.00">_string</text>
</a>
</g>
</g>
<!-- Node3&#45;&gt;Node4 -->
<g id="edge4_Node000003_Node000004" class="edge">
<title>Node3&#45;&gt;Node4</title>
<g id="a_edge4_Node000003_Node000004"><a xlink:title=" ">
<path fill="none" stroke="#63b8ff" d="M213.98,-105.4C220.76,-108.06 227.94,-111.01 234.5,-114 250.96,-121.51 254.3,-124.95 270.5,-133 272.9,-134.19 275.37,-135.4 277.87,-136.62"/>
<polygon fill="#63b8ff" stroke="#63b8ff" points="276.3,-139.75 286.83,-140.91 279.33,-133.43 276.3,-139.75"/>
</a>
</g>
</g>
<!-- Node5 -->
<g id="Node000005" class="node">
<title>Node5</title>
<g id="a_Node000005"><a xlink:href="../../d0/d03/a01997.html#a24ec98b78f9e603359f71f805a152739" target="_top" xlink:title="Flag for differentiating objects and arrays.">
<polygon fill="white" stroke="#666666" points="379.5,-124 270.5,-124 270.5,-104 379.5,-104 379.5,-124"/>
<text text-anchor="middle" x="325" y="-110.5" font-family="Helvetica,sans-Serif" font-size="10.00">json::jobject::is_array</text>
</a>
</g>
</g>
<!-- Node3&#45;&gt;Node5 -->
<g id="edge5_Node000003_Node000005" class="edge">
<title>Node3&#45;&gt;Node5</title>
<g id="a_edge5_Node000003_Node000005"><a xlink:title=" ">
<path fill="none" stroke="#63b8ff" d="M233.94,-101.65C241.99,-102.75 250.44,-103.91 258.82,-105.06"/>
<polygon fill="#63b8ff" stroke="#63b8ff" points="258.27,-108.52 268.65,-106.41 259.22,-101.58 258.27,-108.52"/>
</a>
</g>
</g>
<!-- Node6 -->
<g id="Node000006" class="node">
<title>Node6</title>
<g id="a_Node000006"><a xlink:href="../../dd/d06/a00639.html#a2b8591533a42f229d2070223a6c48aa7" target="_top" xlink:title="Parses the first value encountered in a JSON string.">
<polygon fill="white" stroke="#666666" points="375.75,-86 274.25,-86 274.25,-66 375.75,-66 375.75,-86"/>
<text text-anchor="middle" x="325" y="-72.5" font-family="Helvetica,sans-Serif" font-size="10.00">json::parsing::parse</text>
</a>
</g>
</g>
<!-- Node3&#45;&gt;Node6 -->
<g id="edge6_Node000003_Node000006" class="edge">
<title>Node3&#45;&gt;Node6</title>
<g id="a_edge6_Node000003_Node000006"><a xlink:title=" ">
<path fill="none" stroke="#63b8ff" d="M233.94,-88.35C243.25,-87.08 253.11,-85.73 262.76,-84.4"/>
<polygon fill="#63b8ff" stroke="#63b8ff" points="263.01,-87.9 272.44,-83.07 262.06,-80.96 263.01,-87.9"/>
</a>
</g>
</g>
<!-- Node11 -->
<g id="Node000011" class="node">
<title>Node11</title>
<g id="a_Node000011"><a xlink:href="../../dd/d06/a00639.html#a0ead22b90b3354cc09a0a21e517e9385" target="_top" xlink:title="(t)rims (l)eading (w)hite (s)pace">
<polygon fill="white" stroke="#666666" points="515.5,-20 420.75,-20 420.75,0 515.5,0 515.5,-20"/>
<text text-anchor="middle" x="468.12" y="-6.5" font-family="Helvetica,sans-Serif" font-size="10.00">json::parsing::tlws</text>
</a>
</g>
</g>
<!-- Node3&#45;&gt;Node11 -->
<g id="edge14_Node000003_Node000011" class="edge">
<title>Node3&#45;&gt;Node11</title>
<g id="a_edge14_Node000003_Node000011"><a xlink:title=" ">
<path fill="none" stroke="#63b8ff" d="M206.03,-84.53C222.98,-76.19 247.85,-64.7 270.5,-57 316.27,-41.45 369.7,-29.03 409.31,-20.87"/>
<polygon fill="#63b8ff" stroke="#63b8ff" points="409.76,-24.35 418.87,-18.93 408.37,-17.49 409.76,-24.35"/>
</a>
</g>
</g>
<!-- Node7 -->
<g id="Node000007" class="node">
<title>Node7</title>
<g id="a_Node000007"><a xlink:href="../../d3/d07/a01985.html#afefb8447a7db13bc4f6f7dc5f12a22c2" target="_top" xlink:title="Checks if the stored value is valid.">
<polygon fill="white" stroke="#666666" points="520.38,-172 415.88,-172 415.88,-152 520.38,-152 520.38,-172"/>
<text text-anchor="middle" x="468.12" y="-158.5" font-family="Helvetica,sans-Serif" font-size="10.00">json::reader::is_valid</text>
</a>
</g>
</g>
<!-- Node6&#45;&gt;Node7 -->
<g id="edge7_Node000006_Node000007" class="edge">
<title>Node6&#45;&gt;Node7</title>
<g id="a_edge7_Node000006_Node000007"><a xlink:title=" ">
<path fill="none" stroke="#63b8ff" d="M364.24,-86.44C369.63,-88.78 374.9,-91.61 379.5,-95 400.98,-110.8 394.11,-127.08 415.5,-143 417.05,-144.16 418.69,-145.25 420.37,-146.28"/>
<polygon fill="#63b8ff" stroke="#63b8ff" points="418.66,-149.34 429.15,-150.84 421.89,-143.12 418.66,-149.34"/>
</a>
</g>
</g>
<!-- Node8 -->
<g id="Node000008" class="node">
<title>Node8</title>
<g id="a_Node000008"><a xlink:href="../../d3/d07/a01985.html#aa1d0e99cecf438761764c16fa39134d1" target="_top" xlink:title=" ">
<polygon fill="white" stroke="#666666" points="515.12,-134 421.12,-134 421.12,-114 515.12,-114 515.12,-134"/>
<text text-anchor="middle" x="468.12" y="-120.5" font-family="Helvetica,sans-Serif" font-size="10.00">json::reader::push</text>
</a>
</g>
</g>
<!-- Node6&#45;&gt;Node8 -->
<g id="edge8_Node000006_Node000008" class="edge">
<title>Node6&#45;&gt;Node8</title>
<g id="a_edge8_Node000006_Node000008"><a xlink:title=" ">
<path fill="none" stroke="#63b8ff" d="M356.62,-86.42C376.87,-93.3 403.67,-102.42 425.8,-109.94"/>
<polygon fill="#63b8ff" stroke="#63b8ff" points="424.54,-113.21 435.13,-113.12 426.79,-106.58 424.54,-113.21"/>
</a>
</g>
</g>
<!-- Node10 -->
<g id="Node000010" class="node">
<title>Node10</title>
<g id="a_Node000010"><a xlink:href="../../d3/d07/a01985.html#ae1cfe678a10a9d0a4b04ad5ff64c43c9" target="_top" xlink:title="Returns the stored value.">
<polygon fill="white" stroke="#666666" points="520.75,-96 415.5,-96 415.5,-76 520.75,-76 520.75,-96"/>
<text text-anchor="middle" x="468.12" y="-82.5" font-family="Helvetica,sans-Serif" font-size="10.00">json::reader::readout</text>
</a>
</g>
</g>
<!-- Node6&#45;&gt;Node10 -->
<g id="edge10_Node000006_Node000010" class="edge">
<title>Node6&#45;&gt;Node10</title>
<g id="a_edge10_Node000006_Node000010"><a xlink:title=" ">
<path fill="none" stroke="#63b8ff" d="M376.15,-79.55C385.16,-80.19 394.66,-80.87 403.99,-81.53"/>
<polygon fill="#63b8ff" stroke="#63b8ff" points="403.49,-85 413.72,-82.22 403.99,-78.02 403.49,-85"/>
</a>
</g>
</g>
<!-- Node6&#45;&gt;Node11 -->
<g id="edge11_Node000006_Node000011" class="edge">
<title>Node6&#45;&gt;Node11</title>
<g id="a_edge11_Node000006_Node000011"><a xlink:title=" ">
<path fill="none" stroke="#63b8ff" d="M344.16,-65.56C362.01,-55.52 390.16,-40.26 415.5,-29 418.86,-27.51 422.38,-26.03 425.93,-24.61"/>
<polygon fill="#63b8ff" stroke="#63b8ff" points="427.08,-27.91 435.15,-21.04 424.56,-21.38 427.08,-27.91"/>
</a>
</g>
</g>
<!-- Node12 -->
<g id="Node000012" class="node">
<title>Node12</title>
<g id="a_Node000012"><a xlink:href="../../d3/d07/a01985.html#aec12648e76c0f529f892d89d4fabfe4c" target="_top" xlink:title="Checks the value.">
<polygon fill="white" stroke="#666666" points="514,-58 422.25,-58 422.25,-38 514,-38 514,-58"/>
<text text-anchor="middle" x="468.12" y="-44.5" font-family="Helvetica,sans-Serif" font-size="10.00">json::reader::type</text>
</a>
</g>
</g>
<!-- Node6&#45;&gt;Node12 -->
<g id="edge12_Node000006_Node000012" class="edge">
<title>Node6&#45;&gt;Node12</title>
<g id="a_edge12_Node000006_Node000012"><a xlink:title=" ">
<path fill="none" stroke="#63b8ff" d="M376.15,-66.05C387.32,-63.83 399.24,-61.47 410.65,-59.21"/>
<polygon fill="#63b8ff" stroke="#63b8ff" points="411.22,-62.66 420.35,-57.28 409.86,-55.79 411.22,-62.66"/>
</a>
</g>
</g>
<!-- Node9 -->
<g id="Node000009" class="node">
<title>Node9</title>
<g id="a_Node000009"><a xlink:href="../../d1/d02/a00638.html#a41134b9f4ec1ec6b8db4f8027536b762" target="_top" xlink:title=" ">
<polygon fill="white" stroke="#666666" points="644.75,-96 556.75,-96 556.75,-76 644.75,-76 644.75,-96"/>
<text text-anchor="middle" x="600.75" y="-82.5" font-family="Helvetica,sans-Serif" font-size="10.00">json::jtype::peek</text>
</a>
</g>
</g>
<!-- Node8&#45;&gt;Node9 -->
<g id="edge9_Node000008_Node000009" class="edge">
<title>Node8&#45;&gt;Node9</title>
<g id="a_edge9_Node000008_Node000009"><a xlink:title=" ">
<path fill="none" stroke="#63b8ff" d="M505.16,-113.52C520.01,-109.2 537.41,-104.14 553.2,-99.54"/>
<polygon fill="#63b8ff" stroke="#63b8ff" points="553.75,-103.03 562.37,-96.87 551.8,-96.31 553.75,-103.03"/>
</a>
</g>
</g>
<!-- Node12&#45;&gt;Node9 -->
<g id="edge13_Node000012_Node000009" class="edge">
<title>Node12&#45;&gt;Node9</title>
<g id="a_edge13_Node000012_Node000009"><a xlink:title=" ">
<path fill="none" stroke="#63b8ff" d="M505.16,-58.48C520.01,-62.8 537.41,-67.86 553.2,-72.46"/>
<polygon fill="#63b8ff" stroke="#63b8ff" points="551.8,-75.69 562.37,-75.13 553.75,-68.97 551.8,-75.69"/>
</a>
</g>
</g>
</g>
</svg>
