<?xml version="1.0" encoding="UTF-8" standalone="no"?>
<!DOCTYPE svg PUBLIC "-//W3C//DTD SVG 1.1//EN"
 "http://www.w3.org/Graphics/SVG/1.1/DTD/svg11.dtd">
<!-- Generated by graphviz version 10.0.1 (20240210.2158)
 -->
<!-- Title: GEU::DistanceAttenuation::applyAttenuation Pages: 1 -->
<svg width="321pt" height="128pt"
 viewBox="0.00 0.00 320.50 128.00" xmlns="http://www.w3.org/2000/svg" xmlns:xlink="http://www.w3.org/1999/xlink">
<g id="graph0" class="graph" transform="scale(1 1) rotate(0) translate(4 124)">
<title>GEU::DistanceAttenuation::applyAttenuation</title>
<!-- Node1 -->
<g id="Node000001" class="node">
<title>Node1</title>
<g id="a_Node000001"><a xlink:title=" ">
<polygon fill="#999999" stroke="#666666" points="130.75,-70 0,-70 0,-38 130.75,-38 130.75,-70"/>
<text text-anchor="start" x="8" y="-56.5" font-family="Helvetica,sans-Serif" font-size="10.00">GEU::DistanceAttenuation</text>
<text text-anchor="middle" x="65.38" y="-44.5" font-family="Helvetica,sans-Serif" font-size="10.00">::applyAttenuation</text>
</a>
</g>
</g>
<!-- Node2 -->
<g id="Node000002" class="node">
<title>Node2</title>
<g id="a_Node000002"><a xlink:href="../../d5/d07/class_g_e_u_1_1_material.html#ac2969a9853653155f2fb81856a94456d" target="_top" xlink:title=" ">
<polygon fill="white" stroke="#666666" points="312.5,-120 166.75,-120 166.75,-88 312.5,-88 312.5,-120"/>
<text text-anchor="start" x="174.75" y="-106.5" font-family="Helvetica,sans-Serif" font-size="10.00">GEU::Material::getAssociated</text>
<text text-anchor="middle" x="239.62" y="-94.5" font-family="Helvetica,sans-Serif" font-size="10.00">Shader</text>
</a>
</g>
</g>
<!-- Node1&#45;&gt;Node2 -->
<g id="edge1_Node000001_Node000002" class="edge">
<title>Node1&#45;&gt;Node2</title>
<g id="a_edge1_Node000001_Node000002"><a xlink:title=" ">
<path fill="none" stroke="#63b8ff" d="M122.78,-70.37C138.16,-74.84 154.99,-79.72 170.93,-84.35"/>
<polygon fill="#63b8ff" stroke="#63b8ff" points="169.77,-87.66 180.35,-87.08 171.72,-80.93 169.77,-87.66"/>
</a>
</g>
</g>
<!-- Node3 -->
<g id="Node000003" class="node">
<title>Node3</title>
<g id="a_Node000003"><a xlink:href="../../d4/d01/class_g_e_u_1_1_light_properties.html#ad99832bfd3d21881fd43f2aed6b0ef5e" target="_top" xlink:title=" ">
<polygon fill="white" stroke="#666666" points="293.75,-70 185.5,-70 185.5,-38 293.75,-38 293.75,-70"/>
<text text-anchor="start" x="193.5" y="-56.5" font-family="Helvetica,sans-Serif" font-size="10.00">GEU::LightProperties</text>
<text text-anchor="middle" x="239.62" y="-44.5" font-family="Helvetica,sans-Serif" font-size="10.00">::getDistanceRange</text>
</a>
</g>
</g>
<!-- Node1&#45;&gt;Node3 -->
<g id="edge2_Node000001_Node000003" class="edge">
<title>Node1&#45;&gt;Node3</title>
<g id="a_edge2_Node000001_Node000003"><a xlink:title=" ">
<path fill="none" stroke="#63b8ff" d="M131,-54C144.95,-54 159.7,-54 173.66,-54"/>
<polygon fill="#63b8ff" stroke="#63b8ff" points="173.65,-57.5 183.65,-54 173.65,-50.5 173.65,-57.5"/>
</a>
</g>
</g>
<!-- Node4 -->
<g id="Node000004" class="node">
<title>Node4</title>
<g id="a_Node000004"><a xlink:href="../../d5/d07/class_g_e_u_1_1_material.html#abb5aacb1ebce4d9a9c119ea122d921df" target="_top" xlink:title=" ">
<polygon fill="white" stroke="#666666" points="311.38,-20 167.88,-20 167.88,0 311.38,0 311.38,-20"/>
<text text-anchor="middle" x="239.62" y="-6.5" font-family="Helvetica,sans-Serif" font-size="10.00">GEU::Material::setSubroutine</text>
</a>
</g>
</g>
<!-- Node1&#45;&gt;Node4 -->
<g id="edge3_Node000001_Node000004" class="edge">
<title>Node1&#45;&gt;Node4</title>
<g id="a_edge3_Node000001_Node000004"><a xlink:title=" ">
<path fill="none" stroke="#63b8ff" d="M130.51,-37.62C149.04,-32.88 169.02,-27.78 186.71,-23.26"/>
<polygon fill="#63b8ff" stroke="#63b8ff" points="187.38,-26.7 196.2,-20.84 185.65,-19.92 187.38,-26.7"/>
</a>
</g>
</g>
</g>
</svg>
