<?xml version="1.0" encoding="UTF-8" standalone="no"?>
<!DOCTYPE svg PUBLIC "-//W3C//DTD SVG 1.1//EN"
 "http://www.w3.org/Graphics/SVG/1.1/DTD/svg11.dtd">
<!-- Generated by graphviz version 10.0.1 (20240210.2158)
 -->
<!-- Title: GEU::MappedMemory::waitForLockedRange Pages: 1 -->
<svg width="300pt" height="116pt"
 viewBox="0.00 0.00 299.50 116.00" xmlns="http://www.w3.org/2000/svg" xmlns:xlink="http://www.w3.org/1999/xlink">
<g id="graph0" class="graph" transform="scale(1 1) rotate(0) translate(4 112)">
<title>GEU::MappedMemory::waitForLockedRange</title>
<!-- Node1 -->
<g id="Node000001" class="node">
<title>Node1</title>
<g id="a_Node000001"><a xlink:title="Locks code execution until the range fence is signalled.">
<polygon fill="#999999" stroke="#666666" points="118.75,-64 0,-64 0,-32 118.75,-32 118.75,-64"/>
<text text-anchor="start" x="8" y="-50.5" font-family="Helvetica,sans-Serif" font-size="10.00">GEU::MappedMemory::</text>
<text text-anchor="middle" x="59.38" y="-38.5" font-family="Helvetica,sans-Serif" font-size="10.00">waitForLockedRange</text>
</a>
</g>
</g>
<!-- Node2 -->
<g id="Node000002" class="node">
<title>Node2</title>
<g id="a_Node000002"><a xlink:href="../../d3/d01/struct_g_e_u_1_1_mapped_memory.html#aceb8e1ced25d94419cd1dbec8e46d9d9" target="_top" xlink:title=" ">
<polygon fill="white" stroke="#666666" points="282.5,-108 163.75,-108 163.75,-76 282.5,-76 282.5,-108"/>
<text text-anchor="start" x="171.75" y="-94.5" font-family="Helvetica,sans-Serif" font-size="10.00">GEU::MappedMemory::</text>
<text text-anchor="middle" x="223.12" y="-82.5" font-family="Helvetica,sans-Serif" font-size="10.00">cleanup</text>
</a>
</g>
</g>
<!-- Node1&#45;&gt;Node2 -->
<g id="edge1_Node000001_Node000002" class="edge">
<title>Node1&#45;&gt;Node2</title>
<g id="a_edge1_Node000001_Node000002"><a xlink:title=" ">
<path fill="none" stroke="#63b8ff" d="M119.23,-64.01C130,-66.94 141.34,-70.02 152.39,-73.03"/>
<polygon fill="#63b8ff" stroke="#63b8ff" points="151.29,-76.36 161.86,-75.61 153.12,-69.6 151.29,-76.36"/>
</a>
</g>
</g>
<!-- Node3 -->
<g id="Node000003" class="node">
<title>Node3</title>
<g id="a_Node000003"><a xlink:href="../../d2/d02/struct_g_e_u_1_1_buffer_range.html#aafb94ec924a31cb4b9f33ac3eb0ab2c4" target="_top" xlink:title=" ">
<polygon fill="white" stroke="#666666" points="291.5,-58 154.75,-58 154.75,-38 291.5,-38 291.5,-58"/>
<text text-anchor="middle" x="223.12" y="-44.5" font-family="Helvetica,sans-Serif" font-size="10.00">GEU::BufferRange::overlaps</text>
</a>
</g>
</g>
<!-- Node1&#45;&gt;Node3 -->
<g id="edge2_Node000001_Node000003" class="edge">
<title>Node1&#45;&gt;Node3</title>
<g id="a_edge2_Node000001_Node000003"><a xlink:title=" ">
<path fill="none" stroke="#63b8ff" d="M119.23,-48C126.96,-48 134.99,-48 142.99,-48"/>
<polygon fill="#63b8ff" stroke="#63b8ff" points="142.75,-51.5 152.75,-48 142.75,-44.5 142.75,-51.5"/>
</a>
</g>
</g>
<!-- Node4 -->
<g id="Node000004" class="node">
<title>Node4</title>
<g id="a_Node000004"><a xlink:href="../../d3/d01/struct_g_e_u_1_1_mapped_memory.html#a9869750a2727beb6c14a75b5eca74637" target="_top" xlink:title=" ">
<polygon fill="white" stroke="#666666" points="291.12,-20 155.12,-20 155.12,0 291.12,0 291.12,-20"/>
<text text-anchor="middle" x="223.12" y="-6.5" font-family="Helvetica,sans-Serif" font-size="10.00">GEU::MappedMemory::wait</text>
</a>
</g>
</g>
<!-- Node1&#45;&gt;Node4 -->
<g id="edge3_Node000001_Node000004" class="edge">
<title>Node1&#45;&gt;Node4</title>
<g id="a_edge3_Node000001_Node000004"><a xlink:title=" ">
<path fill="none" stroke="#63b8ff" d="M119.23,-34.17C134.71,-30.54 151.36,-26.63 166.66,-23.03"/>
<polygon fill="#63b8ff" stroke="#63b8ff" points="167.11,-26.52 176.05,-20.83 165.51,-19.7 167.11,-26.52"/>
</a>
</g>
</g>
</g>
</svg>
