<?xml version="1.0" encoding="UTF-8" standalone="no"?>
<!DOCTYPE svg PUBLIC "-//W3C//DTD SVG 1.1//EN"
 "http://www.w3.org/Graphics/SVG/1.1/DTD/svg11.dtd">
<!-- Generated by graphviz version 10.0.1 (20240210.2158)
 -->
<!-- Title: GEU::InterfaceAdapter Pages: 1 -->
<svg width="330pt" height="218pt"
 viewBox="0.00 0.00 329.50 218.00" xmlns="http://www.w3.org/2000/svg" xmlns:xlink="http://www.w3.org/1999/xlink">
<g id="graph0" class="graph" transform="scale(1 1) rotate(0) translate(4 214)">
<title>GEU::InterfaceAdapter</title>
<!-- Node1 -->
<g id="Node000001" class="node">
<title>Node1</title>
<g id="a_Node000001"><a xlink:title="Adapter pattern for GUI windows and functionality.">
<polygon fill="#999999" stroke="#666666" points="113.5,-115 0,-115 0,-95 113.5,-95 113.5,-115"/>
<text text-anchor="middle" x="56.75" y="-101.5" font-family="Helvetica,sans-Serif" font-size="10.00">GEU::InterfaceAdapter</text>
</a>
</g>
</g>
<!-- Node2 -->
<g id="Node000002" class="node">
<title>Node2</title>
<g id="a_Node000002"><a xlink:href="../../d3/d02/a02041.html" target="_top" xlink:title=" ">
<polygon fill="white" stroke="#666666" points="294.88,-210 176.12,-210 176.12,-190 294.88,-190 294.88,-210"/>
<text text-anchor="middle" x="235.5" y="-196.5" font-family="Helvetica,sans-Serif" font-size="10.00">GEU::HyperGUIAdapter</text>
</a>
</g>
</g>
<!-- Node1&#45;&gt;Node2 -->
<g id="edge1_Node000001_Node000002" class="edge">
<title>Node1&#45;&gt;Node2</title>
<g id="a_edge1_Node000001_Node000002"><a xlink:title=" ">
<path fill="none" stroke="#63b8ff" d="M75.04,-123.71C92.25,-141.18 120.24,-166.66 149.5,-181 157.65,-184.99 166.64,-188.16 175.64,-190.67"/>
<polygon fill="#63b8ff" stroke="#63b8ff" points="77.57,-121.3 68.13,-116.5 72.52,-126.14 77.57,-121.3"/>
</a>
</g>
</g>
<!-- Node3 -->
<g id="Node000003" class="node">
<title>Node3</title>
<g id="a_Node000003"><a xlink:href="../../d0/d07/a02065.html" target="_top" xlink:title=" ">
<polygon fill="white" stroke="#666666" points="312.5,-172 158.5,-172 158.5,-152 312.5,-152 312.5,-172"/>
<text text-anchor="middle" x="235.5" y="-158.5" font-family="Helvetica,sans-Serif" font-size="10.00">GEU::MultiespectralGUIAdapter</text>
</a>
</g>
</g>
<!-- Node1&#45;&gt;Node3 -->
<g id="edge2_Node000001_Node000003" class="edge">
<title>Node1&#45;&gt;Node3</title>
<g id="a_edge2_Node000001_Node000003"><a xlink:title=" ">
<path fill="none" stroke="#63b8ff" d="M90.12,-120.02C107.47,-127.65 129.35,-136.63 149.5,-143 159.59,-146.19 170.52,-149.06 181.07,-151.54"/>
<polygon fill="#63b8ff" stroke="#63b8ff" points="91.91,-116.98 81.35,-116.09 89.05,-123.37 91.91,-116.98"/>
</a>
</g>
</g>
<!-- Node4 -->
<g id="Node000004" class="node">
<title>Node4</title>
<g id="a_Node000004"><a xlink:href="../../db/d05/a02089.html" target="_top" xlink:title=" ">
<polygon fill="white" stroke="#666666" points="315.88,-134 155.12,-134 155.12,-114 315.88,-114 315.88,-134"/>
<text text-anchor="middle" x="235.5" y="-120.5" font-family="Helvetica,sans-Serif" font-size="10.00">GEU::ReconstruccionGUIAdapter</text>
</a>
</g>
</g>
<!-- Node1&#45;&gt;Node4 -->
<g id="edge3_Node000001_Node000004" class="edge">
<title>Node1&#45;&gt;Node4</title>
<g id="a_edge3_Node000001_Node000004"><a xlink:title=" ">
<path fill="none" stroke="#63b8ff" d="M124.91,-112.22C134.65,-113.27 144.76,-114.35 154.72,-115.42"/>
<polygon fill="#63b8ff" stroke="#63b8ff" points="125.5,-108.76 115.18,-111.17 124.75,-115.72 125.5,-108.76"/>
</a>
</g>
</g>
<!-- Node5 -->
<g id="Node000005" class="node">
<title>Node5</title>
<g id="a_Node000005"><a xlink:href="../../db/d06/a02129.html" target="_top" xlink:title=" ">
<polygon fill="white" stroke="#666666" points="299.38,-96 171.62,-96 171.62,-76 299.38,-76 299.38,-96"/>
<text text-anchor="middle" x="235.5" y="-82.5" font-family="Helvetica,sans-Serif" font-size="10.00">GEU::ThermalGUIAdapter</text>
</a>
</g>
</g>
<!-- Node1&#45;&gt;Node5 -->
<g id="edge4_Node000001_Node000005" class="edge">
<title>Node1&#45;&gt;Node5</title>
<g id="a_edge4_Node000001_Node000005"><a xlink:title=" ">
<path fill="none" stroke="#63b8ff" d="M125.06,-97.76C140.23,-96.13 156.26,-94.41 171.25,-92.8"/>
<polygon fill="#63b8ff" stroke="#63b8ff" points="124.75,-94.28 115.18,-98.83 125.5,-101.24 124.75,-94.28"/>
</a>
</g>
</g>
<!-- Node6 -->
<g id="Node000006" class="node">
<title>Node6</title>
<g id="a_Node000006"><a xlink:href="../../da/d01/a02101.html" target="_top" xlink:title=" ">
<polygon fill="white" stroke="#666666" points="321.5,-58 149.5,-58 149.5,-38 321.5,-38 321.5,-58"/>
<text text-anchor="middle" x="235.5" y="-44.5" font-family="Helvetica,sans-Serif" font-size="10.00">GEU::TreeSegmentationGUIAdapter</text>
</a>
</g>
</g>
<!-- Node1&#45;&gt;Node6 -->
<g id="edge5_Node000001_Node000006" class="edge">
<title>Node1&#45;&gt;Node6</title>
<g id="a_edge5_Node000001_Node000006"><a xlink:title=" ">
<path fill="none" stroke="#63b8ff" d="M90.12,-89.98C107.47,-82.35 129.35,-73.37 149.5,-67 159.59,-63.81 170.52,-60.94 181.07,-58.46"/>
<polygon fill="#63b8ff" stroke="#63b8ff" points="89.05,-86.63 81.35,-93.91 91.91,-93.02 89.05,-86.63"/>
</a>
</g>
</g>
<!-- Node7 -->
<g id="Node000007" class="node">
<title>Node7</title>
<g id="a_Node000007"><a xlink:href="../../d6/d04/a02033.html" target="_top" xlink:title=" ">
<polygon fill="white" stroke="#666666" points="289.25,-20 181.75,-20 181.75,0 289.25,0 289.25,-20"/>
<text text-anchor="middle" x="235.5" y="-6.5" font-family="Helvetica,sans-Serif" font-size="10.00">NormalesGUIAdapter</text>
</a>
</g>
</g>
<!-- Node1&#45;&gt;Node7 -->
<g id="edge6_Node000001_Node000007" class="edge">
<title>Node1&#45;&gt;Node7</title>
<g id="a_edge6_Node000001_Node000007"><a xlink:title=" ">
<path fill="none" stroke="#63b8ff" d="M75.04,-86.29C92.25,-68.82 120.24,-43.34 149.5,-29 159.41,-24.14 170.58,-20.51 181.49,-17.8"/>
<polygon fill="#63b8ff" stroke="#63b8ff" points="72.52,-83.86 68.13,-93.5 77.57,-88.7 72.52,-83.86"/>
</a>
</g>
</g>
</g>
</svg>
