<?xml version="1.0" encoding="UTF-8" standalone="no"?>
<!DOCTYPE svg PUBLIC "-//W3C//DTD SVG 1.1//EN"
 "http://www.w3.org/Graphics/SVG/1.1/DTD/svg11.dtd">
<!-- Generated by graphviz version 10.0.1 (20240210.2158)
 -->
<!-- Title: GEU::Scene::getActiveCamera Pages: 1 -->
<svg width="369pt" height="192pt"
 viewBox="0.00 0.00 368.50 192.00" xmlns="http://www.w3.org/2000/svg" xmlns:xlink="http://www.w3.org/1999/xlink">
<g id="graph0" class="graph" transform="scale(1 1) rotate(0) translate(4 188)">
<title>GEU::Scene::getActiveCamera</title>
<!-- Node1 -->
<g id="Node000001" class="node">
<title>Node1</title>
<g id="a_Node000001"><a xlink:title=" ">
<polygon fill="#999999" stroke="#666666" points="360.5,-108 210.25,-108 210.25,-88 360.5,-88 360.5,-108"/>
<text text-anchor="middle" x="285.38" y="-94.5" font-family="Helvetica,sans-Serif" font-size="10.00">GEU::Scene::getActiveCamera</text>
</a>
</g>
</g>
<!-- Node2 -->
<g id="Node000002" class="node">
<title>Node2</title>
<g id="a_Node000002"><a xlink:href="../../d4/d07/class_g_e_u_1_1_point_cloud.html#ad0d66dab502b16db6ae689d74d0f3fc4" target="_top" xlink:title=" ">
<polygon fill="white" stroke="#666666" points="161.5,-184 12.75,-184 12.75,-164 161.5,-164 161.5,-184"/>
<text text-anchor="middle" x="87.12" y="-170.5" font-family="Helvetica,sans-Serif" font-size="10.00">GEU::PointCloud::pickMeshlet</text>
</a>
</g>
</g>
<!-- Node1&#45;&gt;Node2 -->
<g id="edge1_Node000001_Node000002" class="edge">
<title>Node1&#45;&gt;Node2</title>
<g id="a_edge1_Node000001_Node000002"><a xlink:title=" ">
<path fill="none" stroke="#63b8ff" d="M258.03,-114.13C236.25,-126.84 204.17,-144.17 174.25,-155 165.04,-158.34 155.05,-161.19 145.24,-163.6"/>
<polygon fill="#63b8ff" stroke="#63b8ff" points="259.72,-117.2 266.53,-109.08 256.14,-111.18 259.72,-117.2"/>
</a>
</g>
</g>
<!-- Node3 -->
<g id="Node000003" class="node">
<title>Node3</title>
<g id="a_Node000003"><a xlink:href="../../d4/d07/class_g_e_u_1_1_point_cloud.html#aa595ee7b83a5c9a5a6ff848c60bd6dee" target="_top" xlink:title=" ">
<polygon fill="white" stroke="#666666" points="174.25,-146 0,-146 0,-126 174.25,-126 174.25,-146"/>
<text text-anchor="middle" x="87.12" y="-132.5" font-family="Helvetica,sans-Serif" font-size="10.00">GEU::PointCloud::pickMeshletsArea</text>
</a>
</g>
</g>
<!-- Node1&#45;&gt;Node3 -->
<g id="edge2_Node000001_Node000003" class="edge">
<title>Node1&#45;&gt;Node3</title>
<g id="a_edge2_Node000001_Node000003"><a xlink:title=" ">
<path fill="none" stroke="#63b8ff" d="M219.01,-110.66C194.04,-115.49 165.88,-120.94 142.09,-125.55"/>
<polygon fill="#63b8ff" stroke="#63b8ff" points="219.59,-114.11 228.74,-108.77 218.26,-107.24 219.59,-114.11"/>
</a>
</g>
</g>
<!-- Node4 -->
<g id="Node000004" class="node">
<title>Node4</title>
<g id="a_Node000004"><a xlink:href="../../d4/d07/class_g_e_u_1_1_point_cloud.html#addcd1b3699e287118af2daa2ff7a4bbb" target="_top" xlink:title=" ">
<polygon fill="white" stroke="#666666" points="155.5,-108 18.75,-108 18.75,-88 155.5,-88 155.5,-108"/>
<text text-anchor="middle" x="87.12" y="-94.5" font-family="Helvetica,sans-Serif" font-size="10.00">GEU::PointCloud::pickPoint</text>
</a>
</g>
</g>
<!-- Node1&#45;&gt;Node4 -->
<g id="edge3_Node000001_Node000004" class="edge">
<title>Node1&#45;&gt;Node4</title>
<g id="a_edge3_Node000001_Node000004"><a xlink:title=" ">
<path fill="none" stroke="#63b8ff" d="M198.52,-98C184.21,-98 169.55,-98 155.78,-98"/>
<polygon fill="#63b8ff" stroke="#63b8ff" points="198.39,-101.5 208.39,-98 198.39,-94.5 198.39,-101.5"/>
</a>
</g>
</g>
<!-- Node5 -->
<g id="Node000005" class="node">
<title>Node5</title>
<g id="a_Node000005"><a xlink:href="../../d4/d07/class_g_e_u_1_1_point_cloud.html#a8e3aa0296b8395cda7e4feaba6cd211b" target="_top" xlink:title=" ">
<polygon fill="white" stroke="#666666" points="168.25,-70 6,-70 6,-50 168.25,-50 168.25,-70"/>
<text text-anchor="middle" x="87.12" y="-56.5" font-family="Helvetica,sans-Serif" font-size="10.00">GEU::PointCloud::pickPointsArea</text>
</a>
</g>
</g>
<!-- Node1&#45;&gt;Node5 -->
<g id="edge4_Node000001_Node000005" class="edge">
<title>Node1&#45;&gt;Node5</title>
<g id="a_edge4_Node000001_Node000005"><a xlink:title=" ">
<path fill="none" stroke="#63b8ff" d="M219.01,-85.34C194.04,-80.51 165.88,-75.06 142.09,-70.45"/>
<polygon fill="#63b8ff" stroke="#63b8ff" points="218.26,-88.76 228.74,-87.23 219.59,-81.89 218.26,-88.76"/>
</a>
</g>
</g>
<!-- Node6 -->
<g id="Node000006" class="node">
<title>Node6</title>
<g id="a_Node000006"><a xlink:href="../../da/d01/class_g_e_u_1_1_inspector_window.html#a63b0402d61dd34944da9280a89fa9f74" target="_top" xlink:title="Renders the window and contents.">
<polygon fill="white" stroke="#666666" points="145.75,-32 28.5,-32 28.5,0 145.75,0 145.75,-32"/>
<text text-anchor="start" x="36.5" y="-18.5" font-family="Helvetica,sans-Serif" font-size="10.00">GEU::InspectorWindow</text>
<text text-anchor="middle" x="87.12" y="-6.5" font-family="Helvetica,sans-Serif" font-size="10.00">::renderWindow</text>
</a>
</g>
</g>
<!-- Node1&#45;&gt;Node6 -->
<g id="edge5_Node000001_Node000006" class="edge">
<title>Node1&#45;&gt;Node6</title>
<g id="a_edge5_Node000001_Node000006"><a xlink:title=" ">
<path fill="none" stroke="#63b8ff" d="M257.06,-81.95C235.19,-69.58 203.46,-52.67 174.25,-41 165.29,-37.42 155.61,-34.11 146.1,-31.14"/>
<polygon fill="#63b8ff" stroke="#63b8ff" points="255.22,-84.93 265.63,-86.87 258.7,-78.86 255.22,-84.93"/>
</a>
</g>
</g>
</g>
</svg>
