<?xml version="1.0" encoding="UTF-8" standalone="no"?>
<!DOCTYPE svg PUBLIC "-//W3C//DTD SVG 1.1//EN"
 "http://www.w3.org/Graphics/SVG/1.1/DTD/svg11.dtd">
<!-- Generated by graphviz version 10.0.1 (20240210.2158)
 -->
<!-- Title: C:/GitHub/GEU/GEU/Source/UI/ConfirmPopup.h Pages: 1 -->
<svg width="710pt" height="120pt"
 viewBox="0.00 0.00 709.62 120.00" xmlns="http://www.w3.org/2000/svg" xmlns:xlink="http://www.w3.org/1999/xlink">
<g id="graph0" class="graph" transform="scale(1 1) rotate(0) translate(4 116)">
<title>C:/GitHub/GEU/GEU/Source/UI/ConfirmPopup.h</title>
<!-- Node1 -->
<g id="Node000001" class="node">
<title>Node1</title>
<g id="a_Node000001"><a xlink:title=" ">
<polygon fill="#999999" stroke="#666666" points="448.62,-112 308.12,-112 308.12,-80 448.62,-80 448.62,-112"/>
<text text-anchor="start" x="316.12" y="-98.5" font-family="Helvetica,sans-Serif" font-size="10.00">C:/GitHub/GEU/GEU/Source</text>
<text text-anchor="middle" x="378.38" y="-86.5" font-family="Helvetica,sans-Serif" font-size="10.00">/UI/ConfirmPopup.h</text>
</a>
</g>
</g>
<!-- Node2 -->
<g id="Node000002" class="node">
<title>Node2</title>
<g id="a_Node000002"><a xlink:href="../../dc/d52/_tree_segmentation_g_u_i_adapter_8cpp.html" target="_top" xlink:title=" ">
<polygon fill="white" stroke="#666666" points="166.75,-44 0,-44 0,0 166.75,0 166.75,-44"/>
<text text-anchor="start" x="8" y="-30.5" font-family="Helvetica,sans-Serif" font-size="10.00">C:/GitHub/GEU/GEU/Source</text>
<text text-anchor="start" x="8" y="-18.5" font-family="Helvetica,sans-Serif" font-size="10.00">/Modules/SegmentacionIndiv</text>
<text text-anchor="middle" x="83.38" y="-6.5" font-family="Helvetica,sans-Serif" font-size="10.00">/TreeSegmentationGUIAdapter.cpp</text>
</a>
</g>
</g>
<!-- Node1&#45;&gt;Node2 -->
<g id="edge1_Node000001_Node000002" class="edge">
<title>Node1&#45;&gt;Node2</title>
<g id="a_edge1_Node000001_Node000002"><a xlink:title=" ">
<path fill="none" stroke="#63b8ff" d="M304.17,-76.89C262.43,-66.7 210.19,-53.95 167,-43.41"/>
<polygon fill="#63b8ff" stroke="#63b8ff" points="303.07,-80.22 313.62,-79.2 304.73,-73.42 303.07,-80.22"/>
</a>
</g>
</g>
<!-- Node3 -->
<g id="Node000003" class="node">
<title>Node3</title>
<g id="a_Node000003"><a xlink:href="../../d0/df8/_thermal_g_u_i_adapter_8cpp.html" target="_top" xlink:title=" ">
<polygon fill="white" stroke="#666666" points="384.25,-38 184.5,-38 184.5,-6 384.25,-6 384.25,-38"/>
<text text-anchor="start" x="192.5" y="-24.5" font-family="Helvetica,sans-Serif" font-size="10.00">C:/GitHub/GEU/GEU/Source</text>
<text text-anchor="middle" x="284.38" y="-12.5" font-family="Helvetica,sans-Serif" font-size="10.00">/Modules/Termica/ThermalGUIAdapter.cpp</text>
</a>
</g>
</g>
<!-- Node1&#45;&gt;Node3 -->
<g id="edge2_Node000001_Node000003" class="edge">
<title>Node1&#45;&gt;Node3</title>
<g id="a_edge2_Node000001_Node000003"><a xlink:title=" ">
<path fill="none" stroke="#63b8ff" d="M349.37,-72.78C334.86,-61.67 317.67,-48.5 304.61,-38.5"/>
<polygon fill="#63b8ff" stroke="#63b8ff" points="347.17,-75.51 357.24,-78.81 351.43,-69.95 347.17,-75.51"/>
</a>
</g>
</g>
<!-- Node4 -->
<g id="Node000004" class="node">
<title>Node4</title>
<g id="a_Node000004"><a xlink:href="../../d3/d27/_g_u_i_8cpp.html" target="_top" xlink:title=" ">
<polygon fill="white" stroke="#666666" points="542.62,-38 402.12,-38 402.12,-6 542.62,-6 542.62,-38"/>
<text text-anchor="start" x="410.12" y="-24.5" font-family="Helvetica,sans-Serif" font-size="10.00">C:/GitHub/GEU/GEU/Source</text>
<text text-anchor="middle" x="472.38" y="-12.5" font-family="Helvetica,sans-Serif" font-size="10.00">/UI/GUI.cpp</text>
</a>
</g>
</g>
<!-- Node1&#45;&gt;Node4 -->
<g id="edge3_Node000001_Node000004" class="edge">
<title>Node1&#45;&gt;Node4</title>
<g id="a_edge3_Node000001_Node000004"><a xlink:title=" ">
<path fill="none" stroke="#63b8ff" d="M407.38,-72.78C421.89,-61.67 439.08,-48.5 452.14,-38.5"/>
<polygon fill="#63b8ff" stroke="#63b8ff" points="405.32,-69.95 399.51,-78.81 409.58,-75.51 405.32,-69.95"/>
</a>
</g>
</g>
<!-- Node5 -->
<g id="Node000005" class="node">
<title>Node5</title>
<g id="a_Node000005"><a xlink:href="../../d5/d1f/_auto_updater_8cpp.html" target="_top" xlink:title=" ">
<polygon fill="white" stroke="#666666" points="701.62,-38 561.12,-38 561.12,-6 701.62,-6 701.62,-38"/>
<text text-anchor="start" x="569.12" y="-24.5" font-family="Helvetica,sans-Serif" font-size="10.00">C:/GitHub/GEU/GEU/Source</text>
<text text-anchor="middle" x="631.38" y="-12.5" font-family="Helvetica,sans-Serif" font-size="10.00">/Utilities/AutoUpdater.cpp</text>
</a>
</g>
</g>
<!-- Node1&#45;&gt;Node5 -->
<g id="edge4_Node000001_Node000005" class="edge">
<title>Node1&#45;&gt;Node5</title>
<g id="a_edge4_Node000001_Node000005"><a xlink:title=" ">
<path fill="none" stroke="#63b8ff" d="M443.47,-76.47C484.94,-64.67 538.03,-49.57 577.19,-38.42"/>
<polygon fill="#63b8ff" stroke="#63b8ff" points="442.77,-73.04 434.11,-79.14 444.68,-79.77 442.77,-73.04"/>
</a>
</g>
</g>
</g>
</svg>
