<?xml version="1.0" encoding="UTF-8" standalone="no"?>
<!DOCTYPE svg PUBLIC "-//W3C//DTD SVG 1.1//EN"
 "http://www.w3.org/Graphics/SVG/1.1/DTD/svg11.dtd">
<!-- Generated by graphviz version 10.0.1 (20240210.2158)
 -->
<!-- Title: C:/GitHub/GEU/GEU/Source/UI/ConfirmPopup.h Pages: 1 -->
<!--zoomable 120 -->

<svg id="main" version="1.1" xmlns="http://www.w3.org/2000/svg" xmlns:xlink="http://www.w3.org/1999/xlink" xml:space="preserve" onload="init(evt)">
<style type="text/css"><![CDATA[
.node, .edge {opacity: 0.7;}
.node.selected, .edge.selected {opacity: 1;}
.edge:hover path { stroke: red; }
.edge:hover polygon { stroke: red; fill: red; }
]]></style>

<defs>
  <circle id="rim" cx="0" cy="0" r="7"/>
  <circle id="rim2" cx="0" cy="0" r="3.5"/>
  <g id="zoomPlus">
    <use xlink:href="#rim" fill="#404040"><set attributeName="fill" to="#808080" begin="zoomplus.mouseover" end="zoomplus.mouseout"/></use>
    <path d="M-4,0h8M0,-4v8" fill="none" stroke="white" stroke-width="1.5" pointer-events="none"/>
  </g>
  <g id="zoomMin">
    <use xlink:href="#rim" fill="#404040"><set attributeName="fill" to="#808080" begin="zoomminus.mouseover" end="zoomminus.mouseout"/></use>
    <path d="M-4,0h8" fill="none" stroke="white" stroke-width="1.5" pointer-events="none"/>
  </g>
  <g id="arrowUp" transform="translate(30 24)">
    <use xlink:href="#rim"/>
    <path pointer-events="none" fill="none" stroke="white" stroke-width="1.5" d="M0,-3.0v7 M-2.5,-0.5L0,-3.0L2.5,-0.5"/>
  </g>
  <g id="arrowRight" transform="rotate(90) translate(36 -43)">
    <use xlink:href="#rim"/>
    <path pointer-events="none" fill="none" stroke="white" stroke-width="1.5" d="M0,-3.0v7 M-2.5,-0.5L0,-3.0L2.5,-0.5"/>
  </g>
  <g id="arrowDown" transform="rotate(180) translate(-30 -48)">
    <use xlink:href="#rim"/>
    <path pointer-events="none" fill="none" stroke="white" stroke-width="1.5" d="M0,-3.0v7 M-2.5,-0.5L0,-3.0L2.5,-0.5"/>
  </g>
  <g id="arrowLeft" transform="rotate(270) translate(-36 17)">
    <use xlink:href="#rim"/>
    <path pointer-events="none" fill="none" stroke="white" stroke-width="1.5" d="M0,-3.0v7 M-2.5,-0.5L0,-3.0L2.5,-0.5"/>
  </g>
  <g id="resetDef">
    <use xlink:href="#rim2" fill="#404040"><set attributeName="fill" to="#808080" begin="reset.mouseover" end="reset.mouseout"/></use>
  </g>
</defs>
<script type="application/ecmascript">
var viewWidth = 710;
var viewHeight = 120;
var sectionId = 'dynsection-1';
</script>
<script type="application/ecmascript" xlink:href="../../svg.min.js"/>
<svg id="graph" class="graph">
<g id="viewport">
<title>C:/GitHub/GEU/GEU/Source/UI/ConfirmPopup.h</title>
<!-- Node1 -->
<g id="Node000001" class="node">
<title>Node1</title>
<g id="a_Node000001"><a xlink:title=" ">
<polygon fill="#999999" stroke="#666666" points="448.62,-112 308.12,-112 308.12,-80 448.62,-80 448.62,-112"/>
<text text-anchor="start" x="316.12" y="-98.5" font-family="Helvetica,sans-Serif" font-size="10.00">C:/GitHub/GEU/GEU/Source</text>
<text text-anchor="middle" x="378.38" y="-86.5" font-family="Helvetica,sans-Serif" font-size="10.00">/UI/ConfirmPopup.h</text>
</a>
</g>
</g>
<!-- Node2 -->
<g id="Node000002" class="node">
<title>Node2</title>
<g id="a_Node000002"><a xlink:href="../../dc/d52/_tree_segmentation_g_u_i_adapter_8cpp.html" target="_top" xlink:title=" ">
<polygon fill="white" stroke="#666666" points="166.75,-44 0,-44 0,0 166.75,0 166.75,-44"/>
<text text-anchor="start" x="8" y="-30.5" font-family="Helvetica,sans-Serif" font-size="10.00">C:/GitHub/GEU/GEU/Source</text>
<text text-anchor="start" x="8" y="-18.5" font-family="Helvetica,sans-Serif" font-size="10.00">/Modules/SegmentacionIndiv</text>
<text text-anchor="middle" x="83.38" y="-6.5" font-family="Helvetica,sans-Serif" font-size="10.00">/TreeSegmentationGUIAdapter.cpp</text>
</a>
</g>
</g>
<!-- Node1&#45;&gt;Node2 -->
<g id="edge1_Node000001_Node000002" class="edge">
<title>Node1&#45;&gt;Node2</title>
<g id="a_edge1_Node000001_Node000002"><a xlink:title=" ">
<path fill="none" stroke="#63b8ff" d="M304.17,-76.89C262.43,-66.7 210.19,-53.95 167,-43.41"/>
<polygon fill="#63b8ff" stroke="#63b8ff" points="303.07,-80.22 313.62,-79.2 304.73,-73.42 303.07,-80.22"/>
</a>
</g>
</g>
<!-- Node3 -->
<g id="Node000003" class="node">
<title>Node3</title>
<g id="a_Node000003"><a xlink:href="../../d0/df8/_thermal_g_u_i_adapter_8cpp.html" target="_top" xlink:title=" ">
<polygon fill="white" stroke="#666666" points="384.25,-38 184.5,-38 184.5,-6 384.25,-6 384.25,-38"/>
<text text-anchor="start" x="192.5" y="-24.5" font-family="Helvetica,sans-Serif" font-size="10.00">C:/GitHub/GEU/GEU/Source</text>
<text text-anchor="middle" x="284.38" y="-12.5" font-family="Helvetica,sans-Serif" font-size="10.00">/Modules/Termica/ThermalGUIAdapter.cpp</text>
</a>
</g>
</g>
<!-- Node1&#45;&gt;Node3 -->
<g id="edge2_Node000001_Node000003" class="edge">
<title>Node1&#45;&gt;Node3</title>
<g id="a_edge2_Node000001_Node000003"><a xlink:title=" ">
<path fill="none" stroke="#63b8ff" d="M349.37,-72.78C334.86,-61.67 317.67,-48.5 304.61,-38.5"/>
<polygon fill="#63b8ff" stroke="#63b8ff" points="347.17,-75.51 357.24,-78.81 351.43,-69.95 347.17,-75.51"/>
</a>
</g>
</g>
<!-- Node4 -->
<g id="Node000004" class="node">
<title>Node4</title>
<g id="a_Node000004"><a xlink:href="../../d3/d27/_g_u_i_8cpp.html" target="_top" xlink:title=" ">
<polygon fill="white" stroke="#666666" points="542.62,-38 402.12,-38 402.12,-6 542.62,-6 542.62,-38"/>
<text text-anchor="start" x="410.12" y="-24.5" font-family="Helvetica,sans-Serif" font-size="10.00">C:/GitHub/GEU/GEU/Source</text>
<text text-anchor="middle" x="472.38" y="-12.5" font-family="Helvetica,sans-Serif" font-size="10.00">/UI/GUI.cpp</text>
</a>
</g>
</g>
<!-- Node1&#45;&gt;Node4 -->
<g id="edge3_Node000001_Node000004" class="edge">
<title>Node1&#45;&gt;Node4</title>
<g id="a_edge3_Node000001_Node000004"><a xlink:title=" ">
<path fill="none" stroke="#63b8ff" d="M407.38,-72.78C421.89,-61.67 439.08,-48.5 452.14,-38.5"/>
<polygon fill="#63b8ff" stroke="#63b8ff" points="405.32,-69.95 399.51,-78.81 409.58,-75.51 405.32,-69.95"/>
</a>
</g>
</g>
<!-- Node5 -->
<g id="Node000005" class="node">
<title>Node5</title>
<g id="a_Node000005"><a xlink:href="../../d5/d1f/_auto_updater_8cpp.html" target="_top" xlink:title=" ">
<polygon fill="white" stroke="#666666" points="701.62,-38 561.12,-38 561.12,-6 701.62,-6 701.62,-38"/>
<text text-anchor="start" x="569.12" y="-24.5" font-family="Helvetica,sans-Serif" font-size="10.00">C:/GitHub/GEU/GEU/Source</text>
<text text-anchor="middle" x="631.38" y="-12.5" font-family="Helvetica,sans-Serif" font-size="10.00">/Utilities/AutoUpdater.cpp</text>
</a>
</g>
</g>
<!-- Node1&#45;&gt;Node5 -->
<g id="edge4_Node000001_Node000005" class="edge">
<title>Node1&#45;&gt;Node5</title>
<g id="a_edge4_Node000001_Node000005"><a xlink:title=" ">
<path fill="none" stroke="#63b8ff" d="M443.47,-76.47C484.94,-64.67 538.03,-49.57 577.19,-38.42"/>
<polygon fill="#63b8ff" stroke="#63b8ff" points="442.77,-73.04 434.11,-79.14 444.68,-79.77 442.77,-73.04"/>
</a>
</g>
</g>
</g>
</svg>

<g id="navigator" transform="translate(0 0)" fill="#404254">
  <rect fill="#f2f5e9" fill-opacity="0.5" stroke="#606060" stroke-width=".5" x="0" y="0" width="60" height="60"/>
  <use id="zoomplus" xlink:href="#zoomPlus" x="17" y="9" onmousedown="handleZoom(evt,'in')"/>
  <use id="zoomminus" xlink:href="#zoomMin" x="42" y="9" onmousedown="handleZoom(evt,'out')"/>
  <use id="reset" xlink:href="#resetDef" x="30" y="36" onmousedown="handleReset()"/>
   <use id="arrowup" xlink:href="#arrowUp" x="0" y="0" onmousedown="handlePan(0,-1)"/>
  <use id="arrowright" xlink:href="#arrowRight" x="0" y="0" onmousedown="handlePan(1,0)"/>
  <use id="arrowdown" xlink:href="#arrowDown" x="0" y="0" onmousedown="handlePan(0,1)"/>
  <use id="arrowleft" xlink:href="#arrowLeft" x="0" y="0" onmousedown="handlePan(-1,0)"/>
</g>
<svg viewBox="0 0 15 15" width="100%" height="30px" preserveAspectRatio="xMaxYMin meet">
 <g id="arrow_out" transform="scale(0.3 0.3)">
  <a xlink:href="_confirm_popup_8h__dep__incl_org.svg" target="_base">
   <rect id="button" ry="5" rx="5" y="6" x="6" height="38" width="38"
        fill="#f2f5e9" fill-opacity="0.5" stroke="#606060" stroke-width="1.0"/>
   <path id="arrow"
     d="M 11.500037,31.436501 C 11.940474,20.09759 22.043105,11.32322 32.158766,21.979434 L 37.068811,17.246167 C 37.068811,17.246167 37.088388,32 37.088388,32 L 22.160133,31.978069 C 22.160133,31.978069 26.997745,27.140456 26.997745,27.140456 C 18.528582,18.264221 13.291696,25.230495 11.500037,31.436501 z"
     style="fill:#404040;"/>
  </a>
 </g>
</svg>

<style type='text/css'>
<![CDATA[
[data-mouse-over-selected='false'] { opacity: 0.7; }
[data-mouse-over-selected='true']  { opacity: 1.0; }
]]>
</style>
<script type="application/ecmascript"><![CDATA[
document.addEventListener('DOMContentLoaded', (event) => {
  highlightEdges();
  highlightAdjacentNodes();
});
]]></script>
</svg>
