<?xml version="1.0" encoding="UTF-8" standalone="no"?>
<!DOCTYPE svg PUBLIC "-//W3C//DTD SVG 1.1//EN"
 "http://www.w3.org/Graphics/SVG/1.1/DTD/svg11.dtd">
<!-- Generated by graphviz version 10.0.1 (20240210.2158)
 -->
<!-- Title: GEU::FileManager::loadPointCloud Pages: 1 -->
<svg width="304pt" height="78pt"
 viewBox="0.00 0.00 304.00 78.00" xmlns="http://www.w3.org/2000/svg" xmlns:xlink="http://www.w3.org/1999/xlink">
<g id="graph0" class="graph" transform="scale(1 1) rotate(0) translate(4 74)">
<title>GEU::FileManager::loadPointCloud</title>
<!-- Node1 -->
<g id="Node000001" class="node">
<title>Node1</title>
<g id="a_Node000001"><a xlink:title="Carga la nube de puntos especificada.">
<polygon fill="#999999" stroke="#666666" points="296,-54 153.25,-54 153.25,-22 296,-22 296,-54"/>
<text text-anchor="start" x="161.25" y="-40.5" font-family="Helvetica,sans-Serif" font-size="10.00">GEU::FileManager::loadPoint</text>
<text text-anchor="middle" x="224.62" y="-28.5" font-family="Helvetica,sans-Serif" font-size="10.00">Cloud</text>
</a>
</g>
</g>
<!-- Node2 -->
<g id="Node000002" class="node">
<title>Node2</title>
<g id="a_Node000002"><a xlink:href="../../de/de6/class_g_e_u_1_1_g_u_i.html#af7ebc89aa431e3a9e86bb1424b819d47" target="_top" xlink:title="Draws ImGUI elements.">
<polygon fill="white" stroke="#666666" points="104.88,-70 12.38,-70 12.38,-50 104.88,-50 104.88,-70"/>
<text text-anchor="middle" x="58.62" y="-56.5" font-family="Helvetica,sans-Serif" font-size="10.00">GEU::GUI::render</text>
</a>
</g>
</g>
<!-- Node1&#45;&gt;Node2 -->
<g id="edge1_Node000001_Node000002" class="edge">
<title>Node1&#45;&gt;Node2</title>
<g id="a_edge1_Node000001_Node000002"><a xlink:title=" ">
<path fill="none" stroke="#63b8ff" d="M141.96,-48.95C129.23,-50.66 116.48,-52.37 104.95,-53.92"/>
<polygon fill="#63b8ff" stroke="#63b8ff" points="142.18,-52.46 151.62,-47.66 141.25,-45.52 142.18,-52.46"/>
</a>
</g>
</g>
<!-- Node3 -->
<g id="Node000003" class="node">
<title>Node3</title>
<g id="a_Node000003"><a xlink:href="../../da/d81/class_g_e_u_1_1_inspector_window.html#a63b0402d61dd34944da9280a89fa9f74" target="_top" xlink:title="Renders the window and contents.">
<polygon fill="white" stroke="#666666" points="117.25,-32 0,-32 0,0 117.25,0 117.25,-32"/>
<text text-anchor="start" x="8" y="-18.5" font-family="Helvetica,sans-Serif" font-size="10.00">GEU::InspectorWindow</text>
<text text-anchor="middle" x="58.62" y="-6.5" font-family="Helvetica,sans-Serif" font-size="10.00">::renderWindow</text>
</a>
</g>
</g>
<!-- Node1&#45;&gt;Node3 -->
<g id="edge2_Node000001_Node000003" class="edge">
<title>Node1&#45;&gt;Node3</title>
<g id="a_edge2_Node000001_Node000003"><a xlink:title=" ">
<path fill="none" stroke="#63b8ff" d="M141.99,-27.05C133.8,-25.95 125.61,-24.85 117.73,-23.8"/>
<polygon fill="#63b8ff" stroke="#63b8ff" points="141.25,-30.48 151.62,-28.34 142.18,-23.54 141.25,-30.48"/>
</a>
</g>
</g>
</g>
</svg>
