<?xml version="1.0" encoding="UTF-8" standalone="no"?>
<!DOCTYPE svg PUBLIC "-//W3C//DTD SVG 1.1//EN"
 "http://www.w3.org/Graphics/SVG/1.1/DTD/svg11.dtd">
<!-- Generated by graphviz version 10.0.1 (20240210.2158)
 -->
<!-- Title: GEU::Image::flipImageVertically Pages: 1 -->
<svg width="384pt" height="116pt"
 viewBox="0.00 0.00 383.75 116.00" xmlns="http://www.w3.org/2000/svg" xmlns:xlink="http://www.w3.org/1999/xlink">

<svg id="main" version="1.1" xmlns="http://www.w3.org/2000/svg" xmlns:xlink="http://www.w3.org/1999/xlink" xml:space="preserve" onload="init(evt)">
<style type="text/css"><![CDATA[
.node, .edge {opacity: 0.7;}
.node.selected, .edge.selected {opacity: 1;}
.edge:hover path { stroke: red; }
.edge:hover polygon { stroke: red; fill: red; }
]]></style>
<script type="application/ecmascript" xlink:href="../../svg.min.js"/>
<svg id="graph" class="graph">
<g id="graph0" class="graph" transform="scale(1 1) rotate(0) translate(4 112)">
<title>GEU::Image::flipImageVertically</title>
<!-- Node1 -->
<g id="Node000001" class="node">
<title>Node1</title>
<g id="a_Node000001"><a xlink:title=" ">
<polygon fill="#999999" stroke="#666666" points="375.75,-70 221.75,-70 221.75,-50 375.75,-50 375.75,-70"/>
<text text-anchor="middle" x="298.75" y="-56.5" font-family="Helvetica,sans-Serif" font-size="10.00">GEU::Image::flipImageVertically</text>
</a>
</g>
</g>
<!-- Node1&#45;&gt;Node1 -->
<g id="edge1_Node000001_Node000001" class="edge">
<title>Node1&#45;&gt;Node1</title>
<g id="a_edge1_Node000001_Node000001"><a xlink:title=" ">
<path fill="none" stroke="#63b8ff" d="M328.69,-81.44C324.83,-85.3 314.85,-88 298.75,-88 269.31,-88 260.34,-78.98 271.84,-70.34"/>
<polygon fill="#63b8ff" stroke="#63b8ff" points="332.06,-80.53 326.06,-71.8 325.31,-82.37 332.06,-80.53"/>
</a>
</g>
</g>
<!-- Node2 -->
<g id="Node000002" class="node">
<title>Node2</title>
<g id="a_Node000002"><a xlink:href="../../d8/dc1/class_g_e_u_1_1_image.html#ae7d2db5461b0df8ea029622b94142dc4" target="_top" xlink:title=" ">
<polygon fill="white" stroke="#666666" points="180.12,-108 78.62,-108 78.62,-88 180.12,-88 180.12,-108"/>
<text text-anchor="middle" x="129.38" y="-94.5" font-family="Helvetica,sans-Serif" font-size="10.00">GEU::Image::Image</text>
</a>
</g>
</g>
<!-- Node1&#45;&gt;Node2 -->
<g id="edge2_Node000001_Node000002" class="edge">
<title>Node1&#45;&gt;Node2</title>
<g id="a_edge2_Node000001_Node000002"><a xlink:title=" ">
<path fill="none" stroke="#63b8ff" d="M240.56,-72.98C219.63,-77.74 196.23,-83.05 176.4,-87.55"/>
<polygon fill="#63b8ff" stroke="#63b8ff" points="241.12,-76.45 250.09,-70.82 239.57,-69.62 241.12,-76.45"/>
</a>
</g>
</g>
<!-- Node3 -->
<g id="Node000003" class="node">
<title>Node3</title>
<g id="a_Node000003"><a xlink:href="../../d8/d78/class_g_e_u_1_1_window.html#a3fbeee11584ea7083a050199f25777f0" target="_top" xlink:title=" ">
<polygon fill="white" stroke="#666666" points="177.5,-70 81.25,-70 81.25,-50 177.5,-50 177.5,-70"/>
<text text-anchor="middle" x="129.38" y="-56.5" font-family="Helvetica,sans-Serif" font-size="10.00">GEU::Window::init</text>
</a>
</g>
</g>
<!-- Node1&#45;&gt;Node3 -->
<g id="edge3_Node000001_Node000003" class="edge">
<title>Node1&#45;&gt;Node3</title>
<g id="a_edge3_Node000001_Node000003"><a xlink:title=" ">
<path fill="none" stroke="#63b8ff" d="M209.91,-60C198.88,-60 187.94,-60 177.87,-60"/>
<polygon fill="#63b8ff" stroke="#63b8ff" points="209.9,-63.5 219.9,-60 209.9,-56.5 209.9,-63.5"/>
</a>
</g>
</g>
<!-- Node5 -->
<g id="Node000005" class="node">
<title>Node5</title>
<g id="a_Node000005"><a xlink:href="../../d5/d48/class_g_e_u_1_1_f_b_o_screenshot.html#acafbe0b1f3ec73bb1fcbefa2eb29db40" target="_top" xlink:title=" ">
<polygon fill="white" stroke="#666666" points="185.75,-32 73,-32 73,0 185.75,0 185.75,-32"/>
<text text-anchor="start" x="81" y="-18.5" font-family="Helvetica,sans-Serif" font-size="10.00">GEU::FBOScreenshot</text>
<text text-anchor="middle" x="129.38" y="-6.5" font-family="Helvetica,sans-Serif" font-size="10.00">::saveImage</text>
</a>
</g>
</g>
<!-- Node1&#45;&gt;Node5 -->
<g id="edge5_Node000001_Node000005" class="edge">
<title>Node1&#45;&gt;Node5</title>
<g id="a_edge5_Node000001_Node000005"><a xlink:title=" ">
<path fill="none" stroke="#63b8ff" d="M247.12,-46.69C227.9,-41.64 205.9,-35.85 186.22,-30.68"/>
<polygon fill="#63b8ff" stroke="#63b8ff" points="246.06,-50.03 256.62,-49.19 247.84,-43.26 246.06,-50.03"/>
</a>
</g>
</g>
<!-- Node4 -->
<g id="Node000004" class="node">
<title>Node4</title>
<g id="a_Node000004"><a xlink:href="../../df/d0a/main_8cpp.html#a3c04138a5bfe5d72780bb7e82a18e627" target="_top" xlink:title=" ">
<polygon fill="white" stroke="#666666" points="37,-70 0,-70 0,-50 37,-50 37,-70"/>
<text text-anchor="middle" x="18.5" y="-56.5" font-family="Helvetica,sans-Serif" font-size="10.00">main</text>
</a>
</g>
</g>
<!-- Node3&#45;&gt;Node4 -->
<g id="edge4_Node000003_Node000004" class="edge">
<title>Node3&#45;&gt;Node4</title>
<g id="a_edge4_Node000003_Node000004"><a xlink:title=" ">
<path fill="none" stroke="#63b8ff" d="M69.63,-60C57.85,-60 46.35,-60 37.33,-60"/>
<polygon fill="#63b8ff" stroke="#63b8ff" points="69.42,-63.5 79.42,-60 69.42,-56.5 69.42,-63.5"/>
</a>
</g>
</g>
</g>
</svg>
</svg>

<style type='text/css'>
<![CDATA[
[data-mouse-over-selected='false'] { opacity: 0.7; }
[data-mouse-over-selected='true']  { opacity: 1.0; }
]]>
</style>
<script type="application/ecmascript"><![CDATA[
document.addEventListener('DOMContentLoaded', (event) => {
  highlightEdges();
  highlightAdjacentNodes();
});
]]></script>
</svg>
