<?xml version="1.0" encoding="UTF-8" standalone="no"?>
<!DOCTYPE svg PUBLIC "-//W3C//DTD SVG 1.1//EN"
 "http://www.w3.org/Graphics/SVG/1.1/DTD/svg11.dtd">
<!-- Generated by graphviz version 10.0.1 (20240210.2158)
 -->
<!-- Title: OpenCVImage::OpenCVImage Pages: 1 -->
<svg width="521pt" height="240pt"
 viewBox="0.00 0.00 521.00 240.09" xmlns="http://www.w3.org/2000/svg" xmlns:xlink="http://www.w3.org/1999/xlink">
<g id="graph0" class="graph" transform="scale(1 1) rotate(0) translate(4 236.09)">
<title>OpenCVImage::OpenCVImage</title>
<!-- Node1 -->
<g id="Node000001" class="node">
<title>Node1</title>
<g id="a_Node000001"><a xlink:title="[Public methods]">
<polygon fill="#999999" stroke="#666666" points="513,-118.09 365,-118.09 365,-98.09 513,-98.09 513,-118.09"/>
<text text-anchor="middle" x="439" y="-104.59" font-family="Helvetica,sans-Serif" font-size="10.00">OpenCVImage::OpenCVImage</text>
</a>
</g>
</g>
<!-- Node2 -->
<g id="Node000002" class="node">
<title>Node2</title>
<g id="a_Node000002"><a xlink:href="../../d0/da8/class_open_c_v_image.html#aa9da1d0dfe6723e68f4156f484d8ca7d" target="_top" xlink:title=" ">
<polygon fill="white" stroke="#666666" points="294.12,-232.09 193.38,-232.09 193.38,-212.09 294.12,-212.09 294.12,-232.09"/>
<text text-anchor="middle" x="243.75" y="-218.59" font-family="Helvetica,sans-Serif" font-size="10.00">OpenCVImage::blur</text>
</a>
</g>
</g>
<!-- Node1&#45;&gt;Node2 -->
<g id="edge1_Node000001_Node000002" class="edge">
<title>Node1&#45;&gt;Node2</title>
<g id="a_edge1_Node000001_Node000002"><a xlink:title=" ">
<path fill="none" stroke="#63b8ff" d="M421.86,-126.95C402.17,-148.7 366.81,-183.91 329,-203.09 318.3,-208.51 306.06,-212.4 294.29,-215.19"/>
<polygon fill="#63b8ff" stroke="#63b8ff" points="424.29,-129.48 428.29,-119.67 419.05,-124.84 424.29,-129.48"/>
</a>
</g>
</g>
<!-- Node3 -->
<g id="Node000003" class="node">
<title>Node3</title>
<g id="a_Node000003"><a xlink:href="../../d0/da8/class_open_c_v_image.html#a9557b5818a906019f1f2e33695cd6345" target="_top" xlink:title=" ">
<polygon fill="white" stroke="#666666" points="329,-156.09 158.5,-156.09 158.5,-136.09 329,-136.09 329,-156.09"/>
<text text-anchor="middle" x="243.75" y="-142.59" font-family="Helvetica,sans-Serif" font-size="10.00">OpenCVImage::convertToGrayscale</text>
</a>
</g>
</g>
<!-- Node1&#45;&gt;Node3 -->
<g id="edge2_Node000001_Node000003" class="edge">
<title>Node1&#45;&gt;Node3</title>
<g id="a_edge2_Node000001_Node000003"><a xlink:title=" ">
<path fill="none" stroke="#63b8ff" d="M373.63,-120.74C349.05,-125.58 321.32,-131.03 297.89,-135.64"/>
<polygon fill="#63b8ff" stroke="#63b8ff" points="374.06,-124.23 383.2,-118.86 372.71,-117.36 374.06,-124.23"/>
</a>
</g>
</g>
<!-- Node5 -->
<g id="Node000005" class="node">
<title>Node5</title>
<g id="a_Node000005"><a xlink:href="../../d0/da8/class_open_c_v_image.html#aca2db1ad767ecd0ca9ce59ee2ce9f5e5" target="_top" xlink:title=" ">
<polygon fill="white" stroke="#666666" points="295.62,-118.09 191.88,-118.09 191.88,-98.09 295.62,-98.09 295.62,-118.09"/>
<text text-anchor="middle" x="243.75" y="-104.59" font-family="Helvetica,sans-Serif" font-size="10.00">OpenCVImage::crop</text>
</a>
</g>
</g>
<!-- Node1&#45;&gt;Node5 -->
<g id="edge4_Node000001_Node000005" class="edge">
<title>Node1&#45;&gt;Node5</title>
<g id="a_edge4_Node000001_Node000005"><a xlink:title=" ">
<path fill="none" stroke="#63b8ff" d="M353.29,-108.09C333.81,-108.09 313.67,-108.09 296.11,-108.09"/>
<polygon fill="#63b8ff" stroke="#63b8ff" points="353.15,-111.59 363.15,-108.09 353.15,-104.59 353.15,-111.59"/>
</a>
</g>
</g>
<!-- Node6 -->
<g id="Node000006" class="node">
<title>Node6</title>
<g id="a_Node000006"><a xlink:href="../../d0/da8/class_open_c_v_image.html#a93cc7000e2f6ab3558ce7dc984351beb" target="_top" xlink:title=" ">
<polygon fill="white" stroke="#666666" points="122.5,-55.09 0,-55.09 0,-35.09 122.5,-35.09 122.5,-55.09"/>
<text text-anchor="middle" x="61.25" y="-41.59" font-family="Helvetica,sans-Serif" font-size="10.00">OpenCVImage::undistort</text>
</a>
</g>
</g>
<!-- Node1&#45;&gt;Node6 -->
<g id="edge11_Node000001_Node000006" class="edge">
<title>Node1&#45;&gt;Node6</title>
<g id="a_edge11_Node000001_Node000006"><a xlink:title=" ">
<path fill="none" stroke="#63b8ff" d="M423.39,-88.81C404.53,-65.69 369.31,-28.19 329,-13.09 244.48,18.57 135.33,-15.91 87.07,-34.64"/>
<polygon fill="#63b8ff" stroke="#63b8ff" points="420.55,-90.86 429.5,-96.53 426.04,-86.52 420.55,-90.86"/>
</a>
</g>
</g>
<!-- Node7 -->
<g id="Node000007" class="node">
<title>Node7</title>
<g id="a_Node000007"><a xlink:href="../../d0/da8/class_open_c_v_image.html#a4687739a9ae72ae1b188f2e63624bfc9" target="_top" xlink:title=" ">
<polygon fill="white" stroke="#666666" points="318.12,-80.09 169.38,-80.09 169.38,-60.09 318.12,-60.09 318.12,-80.09"/>
<text text-anchor="middle" x="243.75" y="-66.59" font-family="Helvetica,sans-Serif" font-size="10.00">OpenCVImage::drawRectangle</text>
</a>
</g>
</g>
<!-- Node1&#45;&gt;Node7 -->
<g id="edge7_Node000001_Node000007" class="edge">
<title>Node1&#45;&gt;Node7</title>
<g id="a_edge7_Node000001_Node000007"><a xlink:title=" ">
<path fill="none" stroke="#63b8ff" d="M373.63,-95.43C349.05,-90.6 321.32,-85.14 297.89,-80.54"/>
<polygon fill="#63b8ff" stroke="#63b8ff" points="372.71,-98.82 383.2,-97.31 374.06,-91.95 372.71,-98.82"/>
</a>
</g>
</g>
<!-- Node8 -->
<g id="Node000008" class="node">
<title>Node8</title>
<g id="a_Node000008"><a xlink:href="../../d0/da8/class_open_c_v_image.html#a2b2430e970efc39783b48d9eac2062ff" target="_top" xlink:title=" ">
<polygon fill="white" stroke="#666666" points="317.75,-42.09 169.75,-42.09 169.75,-22.09 317.75,-22.09 317.75,-42.09"/>
<text text-anchor="middle" x="243.75" y="-28.59" font-family="Helvetica,sans-Serif" font-size="10.00">OpenCVImage::OpenCVImage</text>
</a>
</g>
</g>
<!-- Node1&#45;&gt;Node8 -->
<g id="edge8_Node000001_Node000008" class="edge">
<title>Node1&#45;&gt;Node8</title>
<g id="a_edge8_Node000001_Node000008"><a xlink:title=" ">
<path fill="none" stroke="#63b8ff" d="M411.93,-91.98C390.38,-79.28 358.63,-61.96 329,-51.09 319.99,-47.78 310.22,-44.94 300.63,-42.54"/>
<polygon fill="#63b8ff" stroke="#63b8ff" points="409.96,-94.88 420.33,-97.01 413.55,-88.87 409.96,-94.88"/>
</a>
</g>
</g>
<!-- Node9 -->
<g id="Node000009" class="node">
<title>Node9</title>
<g id="a_Node000009"><a xlink:href="../../d0/da8/class_open_c_v_image.html#a9dd8d6f7f82fd943b41150bfed77721d" target="_top" xlink:title=" ">
<polygon fill="white" stroke="#666666" points="299.38,-194.09 188.12,-194.09 188.12,-174.09 299.38,-174.09 299.38,-194.09"/>
<text text-anchor="middle" x="243.75" y="-180.59" font-family="Helvetica,sans-Serif" font-size="10.00">OpenCVImage::resize</text>
</a>
</g>
</g>
<!-- Node1&#45;&gt;Node9 -->
<g id="edge9_Node000001_Node000009" class="edge">
<title>Node1&#45;&gt;Node9</title>
<g id="a_edge9_Node000001_Node000009"><a xlink:title=" ">
<path fill="none" stroke="#63b8ff" d="M411.93,-124.2C390.38,-136.89 358.63,-154.21 329,-165.09 319.71,-168.5 309.61,-171.41 299.74,-173.86"/>
<polygon fill="#63b8ff" stroke="#63b8ff" points="413.55,-127.3 420.33,-119.16 409.96,-121.3 413.55,-127.3"/>
</a>
</g>
</g>
<!-- Node4 -->
<g id="Node000004" class="node">
<title>Node4</title>
<g id="a_Node000004"><a xlink:href="../../dc/d3a/struct_g_e_u_1_1_thermal_augment_1_1_thermal_image_params.html#a05ac7b7d4b07222184ac265a2ff6df18" target="_top" xlink:title=" ">
<polygon fill="white" stroke="#666666" points="119.5,-168.09 3,-168.09 3,-124.09 119.5,-124.09 119.5,-168.09"/>
<text text-anchor="start" x="11" y="-154.59" font-family="Helvetica,sans-Serif" font-size="10.00">GEU::ThermalAugment</text>
<text text-anchor="start" x="11" y="-142.59" font-family="Helvetica,sans-Serif" font-size="10.00">::ThermalImageParams</text>
<text text-anchor="middle" x="61.25" y="-130.59" font-family="Helvetica,sans-Serif" font-size="10.00">::registerAlignedImage</text>
</a>
</g>
</g>
<!-- Node3&#45;&gt;Node4 -->
<g id="edge3_Node000003_Node000004" class="edge">
<title>Node3&#45;&gt;Node4</title>
<g id="a_edge3_Node000003_Node000004"><a xlink:title=" ">
<path fill="none" stroke="#63b8ff" d="M146.84,-146.09C137.66,-146.09 128.55,-146.09 119.91,-146.09"/>
<polygon fill="#63b8ff" stroke="#63b8ff" points="146.54,-149.59 156.54,-146.09 146.54,-142.59 146.54,-149.59"/>
</a>
</g>
</g>
<!-- Node5&#45;&gt;Node4 -->
<g id="edge5_Node000005_Node000004" class="edge">
<title>Node5&#45;&gt;Node4</title>
<g id="a_edge5_Node000005_Node000004"><a xlink:title=" ">
<path fill="none" stroke="#63b8ff" d="M181.77,-120.92C161.77,-125.14 139.61,-129.8 119.87,-133.96"/>
<polygon fill="#63b8ff" stroke="#63b8ff" points="182.4,-124.37 191.47,-118.88 180.96,-117.52 182.4,-124.37"/>
</a>
</g>
</g>
<!-- Node5&#45;&gt;Node6 -->
<g id="edge6_Node000005_Node000006" class="edge">
<title>Node5&#45;&gt;Node6</title>
<g id="a_edge6_Node000005_Node000006"><a xlink:title=" ">
<path fill="none" stroke="#63b8ff" d="M180.56,-95.6C173.06,-93.64 165.56,-91.47 158.5,-89.09 130.99,-79.81 100.78,-65.22 81.67,-55.42"/>
<polygon fill="#63b8ff" stroke="#63b8ff" points="179.47,-98.94 190.02,-97.95 181.16,-92.14 179.47,-98.94"/>
</a>
</g>
</g>
<!-- Node9&#45;&gt;Node4 -->
<g id="edge10_Node000009_Node000004" class="edge">
<title>Node9&#45;&gt;Node4</title>
<g id="a_edge10_Node000009_Node000004"><a xlink:title=" ">
<path fill="none" stroke="#63b8ff" d="M181.77,-171.25C161.77,-167.04 139.61,-162.37 119.87,-158.22"/>
<polygon fill="#63b8ff" stroke="#63b8ff" points="180.96,-174.66 191.47,-173.29 182.4,-167.81 180.96,-174.66"/>
</a>
</g>
</g>
</g>
</svg>
