<?xml version="1.0" encoding="UTF-8" standalone="no"?>
<!DOCTYPE svg PUBLIC "-//W3C//DTD SVG 1.1//EN"
 "http://www.w3.org/Graphics/SVG/1.1/DTD/svg11.dtd">
<!-- Generated by graphviz version 10.0.1 (20240210.2158)
 -->
<!-- Title: GEU::DatabaseDownloadedManageWindow::populateCurrentPaths Pages: 1 -->
<svg width="400pt" height="64pt"
 viewBox="0.00 0.00 400.00 64.00" xmlns="http://www.w3.org/2000/svg" xmlns:xlink="http://www.w3.org/1999/xlink">
<g id="graph0" class="graph" transform="scale(1 1) rotate(0) translate(4 60)">
<title>GEU::DatabaseDownloadedManageWindow::populateCurrentPaths</title>
<!-- Node1 -->
<g id="Node000001" class="node">
<title>Node1</title>
<g id="a_Node000001"><a xlink:title=" ">
<polygon fill="#999999" stroke="#666666" points="392,-38 220.75,-38 220.75,-6 392,-6 392,-38"/>
<text text-anchor="start" x="228.75" y="-24.5" font-family="Helvetica,sans-Serif" font-size="10.00">GEU::DatabaseDownloadedManage</text>
<text text-anchor="middle" x="306.38" y="-12.5" font-family="Helvetica,sans-Serif" font-size="10.00">Window::populateCurrentPaths</text>
</a>
</g>
</g>
<!-- Node1&#45;&gt;Node1 -->
<g id="edge2_Node000001_Node000001" class="edge">
<title>Node1&#45;&gt;Node1</title>
<g id="a_edge2_Node000001_Node000001"><a xlink:title=" ">
<path fill="none" stroke="#63b8ff" d="M342.29,-49.54C336.43,-53.41 324.46,-56 306.38,-56 273.77,-56 261.04,-47.58 268.17,-38.44"/>
<polygon fill="#63b8ff" stroke="#63b8ff" points="345.68,-50.43 344.27,-39.92 338.82,-49.01 345.68,-50.43"/>
</a>
</g>
</g>
<!-- Node2 -->
<g id="Node000002" class="node">
<title>Node2</title>
<g id="a_Node000002"><a xlink:href="../../d6/d04/class_g_e_u_1_1_database_downloaded_manage_window.html#a72d337396e3e2e5b1b88728d204ac0f9" target="_top" xlink:title=" ">
<polygon fill="white" stroke="#666666" points="184.75,-44 0,-44 0,0 184.75,0 184.75,-44"/>
<text text-anchor="start" x="8" y="-30.5" font-family="Helvetica,sans-Serif" font-size="10.00">GEU::DatabaseDownloadedManage</text>
<text text-anchor="start" x="8" y="-18.5" font-family="Helvetica,sans-Serif" font-size="10.00">Window::DatabaseDownloadedManage</text>
<text text-anchor="middle" x="92.38" y="-6.5" font-family="Helvetica,sans-Serif" font-size="10.00">Window</text>
</a>
</g>
</g>
<!-- Node1&#45;&gt;Node2 -->
<g id="edge1_Node000001_Node000002" class="edge">
<title>Node1&#45;&gt;Node2</title>
<g id="a_edge1_Node000001_Node000002"><a xlink:title=" ">
<path fill="none" stroke="#63b8ff" d="M209.1,-22C201.08,-22 192.98,-22 185,-22"/>
<polygon fill="#63b8ff" stroke="#63b8ff" points="208.85,-25.5 218.85,-22 208.85,-18.5 208.85,-25.5"/>
</a>
</g>
</g>
</g>
</svg>
