<?xml version="1.0" encoding="UTF-8" standalone="no"?>
<!DOCTYPE svg PUBLIC "-//W3C//DTD SVG 1.1//EN"
 "http://www.w3.org/Graphics/SVG/1.1/DTD/svg11.dtd">
<!-- Generated by graphviz version 10.0.1 (20240210.2158)
 -->
<!-- Title: C:/GitHub/GEU/GEU/Source/Modules/ComparacionNormales/NormalesGUIAdapter.h Pages: 1 -->
<svg width="883pt" height="612pt"
 viewBox="0.00 0.00 882.75 612.00" xmlns="http://www.w3.org/2000/svg" xmlns:xlink="http://www.w3.org/1999/xlink">
<g id="graph0" class="graph" transform="scale(1 1) rotate(0) translate(4 608)">
<title>C:/GitHub/GEU/GEU/Source/Modules/ComparacionNormales/NormalesGUIAdapter.h</title>
<!-- Node1 -->
<g id="Node000001" class="node">
<title>Node1</title>
<g id="a_Node000001"><a xlink:title=" ">
<polygon fill="#999999" stroke="#666666" points="420.38,-604 263.38,-604 263.38,-560 420.38,-560 420.38,-604"/>
<text text-anchor="start" x="271.38" y="-590.5" font-family="Helvetica,sans-Serif" font-size="10.00">C:/GitHub/GEU/GEU/Source</text>
<text text-anchor="start" x="271.38" y="-578.5" font-family="Helvetica,sans-Serif" font-size="10.00">/Modules/ComparacionNormales</text>
<text text-anchor="middle" x="341.88" y="-566.5" font-family="Helvetica,sans-Serif" font-size="10.00">/NormalesGUIAdapter.h</text>
</a>
</g>
</g>
<!-- Node2 -->
<g id="Node000002" class="node">
<title>Node2</title>
<g id="a_Node000002"><a xlink:href="../../d0/d38/_interface_adapter_8h.html" target="_top" xlink:title=" ">
<polygon fill="white" stroke="#666666" points="395.25,-524 288.5,-524 288.5,-504 395.25,-504 395.25,-524"/>
<text text-anchor="middle" x="341.88" y="-510.5" font-family="Helvetica,sans-Serif" font-size="10.00">UI/InterfaceAdapter.h</text>
</a>
</g>
</g>
<!-- Node1&#45;&gt;Node2 -->
<g id="edge1_Node000001_Node000002" class="edge">
<title>Node1&#45;&gt;Node2</title>
<g id="a_edge1_Node000001_Node000002"><a xlink:title=" ">
<path fill="none" stroke="#63b8ff" d="M341.88,-559.75C341.88,-552.13 341.88,-543.53 341.88,-535.93"/>
<polygon fill="#63b8ff" stroke="#63b8ff" points="345.38,-535.93 341.88,-525.93 338.38,-535.93 345.38,-535.93"/>
</a>
</g>
</g>
<!-- Node3 -->
<g id="Node000003" class="node">
<title>Node3</title>
<g id="a_Node000003"><a xlink:href="../../dd/d9b/_application_state_8h.html" target="_top" xlink:title=" ">
<polygon fill="white" stroke="#666666" points="239.25,-468 120.5,-468 120.5,-448 239.25,-448 239.25,-468"/>
<text text-anchor="middle" x="179.88" y="-454.5" font-family="Helvetica,sans-Serif" font-size="10.00">Core/ApplicationState.h</text>
</a>
</g>
</g>
<!-- Node2&#45;&gt;Node3 -->
<g id="edge2_Node000002_Node000003" class="edge">
<title>Node2&#45;&gt;Node3</title>
<g id="a_edge2_Node000002_Node000003"><a xlink:title=" ">
<path fill="none" stroke="#63b8ff" d="M313.66,-503.59C287.45,-494.86 248.19,-481.77 218.97,-472.03"/>
<polygon fill="#63b8ff" stroke="#63b8ff" points="220.34,-468.8 209.75,-468.96 218.13,-475.44 220.34,-468.8"/>
</a>
</g>
</g>
<!-- Node21 -->
<g id="Node000021" class="node">
<title>Node21</title>
<g id="a_Node000021"><a xlink:href="../../de/d56/_scene_8h.html" target="_top" xlink:title=" ">
<polygon fill="white" stroke="#666666" points="507.5,-468 432.25,-468 432.25,-448 507.5,-448 507.5,-468"/>
<text text-anchor="middle" x="469.88" y="-454.5" font-family="Helvetica,sans-Serif" font-size="10.00">Core/Scene.h</text>
</a>
</g>
</g>
<!-- Node2&#45;&gt;Node21 -->
<g id="edge25_Node000002_Node000021" class="edge">
<title>Node2&#45;&gt;Node21</title>
<g id="a_edge25_Node000002_Node000021"><a xlink:title=" ">
<path fill="none" stroke="#63b8ff" d="M364.17,-503.59C384.24,-495.13 413.99,-482.58 436.83,-472.94"/>
<polygon fill="#63b8ff" stroke="#63b8ff" points="438.16,-476.18 446.01,-469.07 435.44,-469.73 438.16,-476.18"/>
</a>
</g>
</g>
<!-- Node32 -->
<g id="Node000032" class="node">
<title>Node32</title>
<g id="a_Node000032"><a xlink:href="../../d6/d20/_locale_strings_8h.html" target="_top" xlink:title=" ">
<polygon fill="white" stroke="#666666" points="401.25,-468 282.5,-468 282.5,-448 401.25,-448 401.25,-468"/>
<text text-anchor="middle" x="341.88" y="-454.5" font-family="Helvetica,sans-Serif" font-size="10.00">Utilities/LocaleStrings.h</text>
</a>
</g>
</g>
<!-- Node2&#45;&gt;Node32 -->
<g id="edge39_Node000002_Node000032" class="edge">
<title>Node2&#45;&gt;Node32</title>
<g id="a_edge39_Node000002_Node000032"><a xlink:title=" ">
<path fill="none" stroke="#63b8ff" d="M341.88,-503.59C341.88,-497.01 341.88,-487.96 341.88,-479.73"/>
<polygon fill="#63b8ff" stroke="#63b8ff" points="345.38,-479.81 341.88,-469.81 338.38,-479.81 345.38,-479.81"/>
</a>
</g>
</g>
<!-- Node4 -->
<g id="Node000004" class="node">
<title>Node4</title>
<g id="a_Node000004"><a xlink:title=" ">
<polygon fill="#e0e0e0" stroke="#999999" points="125.62,-412 12.12,-412 12.12,-392 125.62,-392 125.62,-412"/>
<text text-anchor="middle" x="68.88" y="-398.5" font-family="Helvetica,sans-Serif" font-size="10.00">imgui_color_gradient.h</text>
</a>
</g>
</g>
<!-- Node3&#45;&gt;Node4 -->
<g id="edge3_Node000003_Node000004" class="edge">
<title>Node3&#45;&gt;Node4</title>
<g id="a_edge3_Node000003_Node000004"><a xlink:title=" ">
<path fill="none" stroke="#63b8ff" d="M160.54,-447.59C143.46,-439.28 118.27,-427.03 98.62,-417.47"/>
<polygon fill="#63b8ff" stroke="#63b8ff" points="100.25,-414.37 89.72,-413.14 97.18,-420.66 100.25,-414.37"/>
</a>
</g>
</g>
<!-- Node5 -->
<g id="Node000005" class="node">
<title>Node5</title>
<g id="a_Node000005"><a xlink:href="../../dc/d05/_point_cloud_8h.html" target="_top" xlink:title=" ">
<polygon fill="white" stroke="#666666" points="215.62,-412 144.12,-412 144.12,-392 215.62,-392 215.62,-412"/>
<text text-anchor="middle" x="179.88" y="-398.5" font-family="Helvetica,sans-Serif" font-size="10.00">PointCloud.h</text>
</a>
</g>
</g>
<!-- Node3&#45;&gt;Node5 -->
<g id="edge4_Node000003_Node000005" class="edge">
<title>Node3&#45;&gt;Node5</title>
<g id="a_edge4_Node000003_Node000005"><a xlink:title=" ">
<path fill="none" stroke="#63b8ff" d="M179.88,-447.59C179.88,-441.01 179.88,-431.96 179.88,-423.73"/>
<polygon fill="#63b8ff" stroke="#63b8ff" points="183.38,-423.81 179.88,-413.81 176.38,-423.81 183.38,-423.81"/>
</a>
</g>
</g>
<!-- Node6 -->
<g id="Node000006" class="node">
<title>Node6</title>
<g id="a_Node000006"><a xlink:title=" ">
<polygon fill="#e0e0e0" stroke="#999999" points="199.62,-356 110.12,-356 110.12,-336 199.62,-336 199.62,-356"/>
<text text-anchor="middle" x="154.88" y="-342.5" font-family="Helvetica,sans-Serif" font-size="10.00">pcl/point_cloud.h</text>
</a>
</g>
</g>
<!-- Node5&#45;&gt;Node6 -->
<g id="edge5_Node000005_Node000006" class="edge">
<title>Node5&#45;&gt;Node6</title>
<g id="a_edge5_Node000005_Node000006"><a xlink:title=" ">
<path fill="none" stroke="#63b8ff" d="M175.52,-391.59C172.33,-384.7 167.89,-375.1 163.94,-366.57"/>
<polygon fill="#63b8ff" stroke="#63b8ff" points="167.19,-365.28 159.82,-357.67 160.84,-368.22 167.19,-365.28"/>
</a>
</g>
</g>
<!-- Node7 -->
<g id="Node000007" class="node">
<title>Node7</title>
<g id="a_Node000007"><a xlink:href="../../d1/dfb/_lines_model_8h.html" target="_top" xlink:title=" ">
<polygon fill="white" stroke="#666666" points="291.75,-356 218,-356 218,-336 291.75,-336 291.75,-356"/>
<text text-anchor="middle" x="254.88" y="-342.5" font-family="Helvetica,sans-Serif" font-size="10.00">LinesModel.h</text>
</a>
</g>
</g>
<!-- Node5&#45;&gt;Node7 -->
<g id="edge6_Node000005_Node000007" class="edge">
<title>Node5&#45;&gt;Node7</title>
<g id="a_edge6_Node000005_Node000007"><a xlink:title=" ">
<path fill="none" stroke="#63b8ff" d="M192.94,-391.59C203.84,-383.74 219.63,-372.38 232.53,-363.09"/>
<polygon fill="#63b8ff" stroke="#63b8ff" points="234.41,-366.05 240.48,-357.36 230.32,-360.37 234.41,-366.05"/>
</a>
</g>
</g>
<!-- Node19 -->
<g id="Node000019" class="node">
<title>Node19</title>
<g id="a_Node000019"><a xlink:href="../../dd/db7/_g_p_u_resources_8h.html" target="_top" xlink:title=" ">
<polygon fill="white" stroke="#666666" points="91.75,-356 0,-356 0,-336 91.75,-336 91.75,-356"/>
<text text-anchor="middle" x="45.88" y="-342.5" font-family="Helvetica,sans-Serif" font-size="10.00">GPUResources.h</text>
</a>
</g>
</g>
<!-- Node5&#45;&gt;Node19 -->
<g id="edge22_Node000005_Node000019" class="edge">
<title>Node5&#45;&gt;Node19</title>
<g id="a_edge22_Node000005_Node000019"><a xlink:title=" ">
<path fill="none" stroke="#63b8ff" d="M156.53,-391.59C135.34,-383.05 103.81,-370.35 79.82,-360.68"/>
<polygon fill="#63b8ff" stroke="#63b8ff" points="81.39,-357.54 70.8,-357.05 78.77,-364.03 81.39,-357.54"/>
</a>
</g>
</g>
<!-- Node8 -->
<g id="Node000008" class="node">
<title>Node8</title>
<g id="a_Node000008"><a xlink:href="../../d0/d8e/_model3_d_8h.html" target="_top" xlink:title=" ">
<polygon fill="white" stroke="#666666" points="475.12,-300 412.62,-300 412.62,-280 475.12,-280 475.12,-300"/>
<text text-anchor="middle" x="443.88" y="-286.5" font-family="Helvetica,sans-Serif" font-size="10.00">Model3D.h</text>
</a>
</g>
</g>
<!-- Node7&#45;&gt;Node8 -->
<g id="edge7_Node000007_Node000008" class="edge">
<title>Node7&#45;&gt;Node8</title>
<g id="a_edge7_Node000007_Node000008"><a xlink:title=" ">
<path fill="none" stroke="#63b8ff" d="M287.8,-335.59C319.38,-326.57 367.23,-312.9 401.62,-303.07"/>
<polygon fill="#63b8ff" stroke="#63b8ff" points="402.16,-306.56 410.82,-300.44 400.24,-299.83 402.16,-306.56"/>
</a>
</g>
</g>
<!-- Node18 -->
<g id="Node000018" class="node">
<title>Node18</title>
<g id="a_Node000018"><a xlink:href="../../d9/dd4/_v_a_o_8h.html" target="_top" xlink:title=" ">
<polygon fill="white" stroke="#666666" points="277.5,-244 232.25,-244 232.25,-224 277.5,-224 277.5,-244"/>
<text text-anchor="middle" x="254.88" y="-230.5" font-family="Helvetica,sans-Serif" font-size="10.00">VAO.h</text>
</a>
</g>
</g>
<!-- Node7&#45;&gt;Node18 -->
<g id="edge20_Node000007_Node000018" class="edge">
<title>Node7&#45;&gt;Node18</title>
<g id="a_edge20_Node000007_Node000018"><a xlink:title=" ">
<path fill="none" stroke="#63b8ff" d="M254.88,-335.62C254.88,-318.01 254.88,-279.59 254.88,-255.65"/>
<polygon fill="#63b8ff" stroke="#63b8ff" points="258.38,-255.87 254.88,-245.87 251.38,-255.87 258.38,-255.87"/>
</a>
</g>
</g>
<!-- Node9 -->
<g id="Node000009" class="node">
<title>Node9</title>
<g id="a_Node000009"><a xlink:href="../../d3/d09/_material_8h.html" target="_top" xlink:title=" ">
<polygon fill="white" stroke="#666666" points="547.25,-244 488.5,-244 488.5,-224 547.25,-224 547.25,-244"/>
<text text-anchor="middle" x="517.88" y="-230.5" font-family="Helvetica,sans-Serif" font-size="10.00">Material.h</text>
</a>
</g>
</g>
<!-- Node8&#45;&gt;Node9 -->
<g id="edge8_Node000008_Node000009" class="edge">
<title>Node8&#45;&gt;Node9</title>
<g id="a_edge8_Node000008_Node000009"><a xlink:title=" ">
<path fill="none" stroke="#63b8ff" d="M456.76,-279.59C467.59,-271.7 483.29,-260.24 496.06,-250.92"/>
<polygon fill="#63b8ff" stroke="#63b8ff" points="497.9,-253.91 503.91,-245.19 493.77,-248.26 497.9,-253.91"/>
</a>
</g>
</g>
<!-- Node17 -->
<g id="Node000017" class="node">
<title>Node17</title>
<g id="a_Node000017"><a xlink:href="../../d2/d00/_a_a_b_b_8h.html" target="_top" xlink:title=" ">
<polygon fill="white" stroke="#666666" points="470.38,-244 373.38,-244 373.38,-224 470.38,-224 470.38,-244"/>
<text text-anchor="middle" x="421.88" y="-230.5" font-family="Helvetica,sans-Serif" font-size="10.00">Geometry/AABB.h</text>
</a>
</g>
</g>
<!-- Node8&#45;&gt;Node17 -->
<g id="edge19_Node000008_Node000017" class="edge">
<title>Node8&#45;&gt;Node17</title>
<g id="a_edge19_Node000008_Node000017"><a xlink:title=" ">
<path fill="none" stroke="#63b8ff" d="M440.04,-279.59C437.27,-272.78 433.41,-263.32 429.97,-254.86"/>
<polygon fill="#63b8ff" stroke="#63b8ff" points="433.25,-253.64 426.23,-245.7 426.77,-256.28 433.25,-253.64"/>
</a>
</g>
</g>
<!-- Node10 -->
<g id="Node000010" class="node">
<title>Node10</title>
<g id="a_Node000010"><a xlink:title=" ">
<polygon fill="#e0e0e0" stroke="#999999" points="619.38,-132 534.38,-132 534.38,-112 619.38,-112 619.38,-132"/>
<text text-anchor="middle" x="576.88" y="-118.5" font-family="Helvetica,sans-Serif" font-size="10.00">assimp/scene.h</text>
</a>
</g>
</g>
<!-- Node9&#45;&gt;Node10 -->
<g id="edge9_Node000009_Node000010" class="edge">
<title>Node9&#45;&gt;Node10</title>
<g id="a_edge9_Node000009_Node000010"><a xlink:title=" ">
<path fill="none" stroke="#63b8ff" d="M523.4,-223.77C528.77,-214.74 537.08,-200.53 543.88,-188 552.09,-172.86 560.9,-155.44 567.35,-142.45"/>
<polygon fill="#63b8ff" stroke="#63b8ff" points="570.38,-144.21 571.66,-133.7 564.1,-141.12 570.38,-144.21"/>
</a>
</g>
</g>
<!-- Node11 -->
<g id="Node000011" class="node">
<title>Node11</title>
<g id="a_Node000011"><a xlink:href="../../d1/d4f/_rendering_shader_8h.html" target="_top" xlink:title=" ">
<polygon fill="white" stroke="#666666" points="447.25,-188 286.5,-188 286.5,-168 447.25,-168 447.25,-188"/>
<text text-anchor="middle" x="366.88" y="-174.5" font-family="Helvetica,sans-Serif" font-size="10.00">Core/Shaders/RenderingShader.h</text>
</a>
</g>
</g>
<!-- Node9&#45;&gt;Node11 -->
<g id="edge10_Node000009_Node000011" class="edge">
<title>Node9&#45;&gt;Node11</title>
<g id="a_edge10_Node000009_Node000011"><a xlink:title=" ">
<path fill="none" stroke="#63b8ff" d="M491.57,-223.59C467.36,-214.94 431.2,-202 404.04,-192.29"/>
<polygon fill="#63b8ff" stroke="#63b8ff" points="405.4,-189.06 394.81,-188.99 403.05,-195.65 405.4,-189.06"/>
</a>
</g>
</g>
<!-- Node15 -->
<g id="Node000015" class="node">
<title>Node15</title>
<g id="a_Node000015"><a xlink:href="../../de/dbf/_texture_8h.html" target="_top" xlink:title=" ">
<polygon fill="white" stroke="#666666" points="535.12,-188 478.62,-188 478.62,-168 535.12,-168 535.12,-188"/>
<text text-anchor="middle" x="506.88" y="-174.5" font-family="Helvetica,sans-Serif" font-size="10.00">Texture.h</text>
</a>
</g>
</g>
<!-- Node9&#45;&gt;Node15 -->
<g id="edge15_Node000009_Node000015" class="edge">
<title>Node9&#45;&gt;Node15</title>
<g id="a_edge15_Node000009_Node000015"><a xlink:title=" ">
<path fill="none" stroke="#63b8ff" d="M515.96,-223.59C514.6,-216.93 512.73,-207.75 511.04,-199.44"/>
<polygon fill="#63b8ff" stroke="#63b8ff" points="514.5,-198.88 509.07,-189.78 507.64,-200.28 514.5,-198.88"/>
</a>
</g>
</g>
<!-- Node12 -->
<g id="Node000012" class="node">
<title>Node12</title>
<g id="a_Node000012"><a xlink:href="../../d0/dbe/_shader_program_8h.html" target="_top" xlink:title=" ">
<polygon fill="white" stroke="#666666" points="412.75,-132 321,-132 321,-112 412.75,-112 412.75,-132"/>
<text text-anchor="middle" x="366.88" y="-118.5" font-family="Helvetica,sans-Serif" font-size="10.00">ShaderProgram.h</text>
</a>
</g>
</g>
<!-- Node11&#45;&gt;Node12 -->
<g id="edge11_Node000011_Node000012" class="edge">
<title>Node11&#45;&gt;Node12</title>
<g id="a_edge11_Node000011_Node000012"><a xlink:title=" ">
<path fill="none" stroke="#63b8ff" d="M366.88,-167.59C366.88,-161.01 366.88,-151.96 366.88,-143.73"/>
<polygon fill="#63b8ff" stroke="#63b8ff" points="370.38,-143.81 366.88,-133.81 363.38,-143.81 370.38,-143.81"/>
</a>
</g>
</g>
<!-- Node13 -->
<g id="Node000013" class="node">
<title>Node13</title>
<g id="a_Node000013"><a xlink:href="../../df/d2e/_shader_enums_8h.html" target="_top" xlink:title=" ">
<polygon fill="white" stroke="#666666" points="316.75,-76 231,-76 231,-56 316.75,-56 316.75,-76"/>
<text text-anchor="middle" x="273.88" y="-62.5" font-family="Helvetica,sans-Serif" font-size="10.00">ShaderEnums.h</text>
</a>
</g>
</g>
<!-- Node11&#45;&gt;Node13 -->
<g id="edge14_Node000011_Node000013" class="edge">
<title>Node11&#45;&gt;Node13</title>
<g id="a_edge14_Node000011_Node000013"><a xlink:title=" ">
<path fill="none" stroke="#63b8ff" d="M353.05,-167.81C341.16,-159.45 324.06,-146.26 311.88,-132 300.07,-118.18 289.87,-100.19 283.03,-86.65"/>
<polygon fill="#63b8ff" stroke="#63b8ff" points="286.28,-85.33 278.76,-77.86 279.98,-88.38 286.28,-85.33"/>
</a>
</g>
</g>
<!-- Node12&#45;&gt;Node13 -->
<g id="edge12_Node000012_Node000013" class="edge">
<title>Node12&#45;&gt;Node13</title>
<g id="a_edge12_Node000012_Node000013"><a xlink:title=" ">
<path fill="none" stroke="#63b8ff" d="M350.68,-111.59C336.63,-103.44 316.04,-91.48 299.72,-82"/>
<polygon fill="#63b8ff" stroke="#63b8ff" points="301.92,-79.23 291.51,-77.24 298.4,-85.29 301.92,-79.23"/>
</a>
</g>
</g>
<!-- Node14 -->
<g id="Node000014" class="node">
<title>Node14</title>
<g id="a_Node000014"><a xlink:title=" ">
<polygon fill="#e0e0e0" stroke="#999999" points="179.62,-20 120.12,-20 120.12,0 179.62,0 179.62,-20"/>
<text text-anchor="middle" x="149.88" y="-6.5" font-family="Helvetica,sans-Serif" font-size="10.00">GL/glew.h</text>
</a>
</g>
</g>
<!-- Node13&#45;&gt;Node14 -->
<g id="edge13_Node000013_Node000014" class="edge">
<title>Node13&#45;&gt;Node14</title>
<g id="a_edge13_Node000013_Node000014"><a xlink:title=" ">
<path fill="none" stroke="#63b8ff" d="M252.28,-55.59C232.92,-47.17 204.27,-34.69 182.19,-25.07"/>
<polygon fill="#63b8ff" stroke="#63b8ff" points="183.6,-21.87 173.03,-21.08 180.8,-28.29 183.6,-21.87"/>
</a>
</g>
</g>
<!-- Node15&#45;&gt;Node10 -->
<g id="edge16_Node000015_Node000010" class="edge">
<title>Node15&#45;&gt;Node10</title>
<g id="a_edge16_Node000015_Node000010"><a xlink:title=" ">
<path fill="none" stroke="#63b8ff" d="M519.07,-167.59C529.21,-159.77 543.87,-148.46 555.89,-139.19"/>
<polygon fill="#63b8ff" stroke="#63b8ff" points="557.84,-142.1 563.62,-133.22 553.57,-136.56 557.84,-142.1"/>
</a>
</g>
</g>
<!-- Node15&#45;&gt;Node12 -->
<g id="edge18_Node000015_Node000012" class="edge">
<title>Node15&#45;&gt;Node12</title>
<g id="a_edge18_Node000015_Node000012"><a xlink:title=" ">
<path fill="none" stroke="#63b8ff" d="M482.49,-167.59C460.24,-159.01 427.11,-146.23 402.01,-136.55"/>
<polygon fill="#63b8ff" stroke="#63b8ff" points="403.45,-133.36 392.86,-133.02 400.93,-139.89 403.45,-133.36"/>
</a>
</g>
</g>
<!-- Node16 -->
<g id="Node000016" class="node">
<title>Node16</title>
<g id="a_Node000016"><a xlink:href="../../d9/de5/_image_8h.html" target="_top" xlink:title=" ">
<polygon fill="white" stroke="#666666" points="516.75,-132 431,-132 431,-112 516.75,-112 516.75,-132"/>
<text text-anchor="middle" x="473.88" y="-118.5" font-family="Helvetica,sans-Serif" font-size="10.00">Utilities/Image.h</text>
</a>
</g>
</g>
<!-- Node15&#45;&gt;Node16 -->
<g id="edge17_Node000015_Node000016" class="edge">
<title>Node15&#45;&gt;Node16</title>
<g id="a_edge17_Node000015_Node000016"><a xlink:title=" ">
<path fill="none" stroke="#63b8ff" d="M501.13,-167.59C496.82,-160.55 490.78,-150.67 485.49,-142"/>
<polygon fill="#63b8ff" stroke="#63b8ff" points="488.55,-140.3 480.35,-133.59 482.57,-143.95 488.55,-140.3"/>
</a>
</g>
</g>
<!-- Node18&#45;&gt;Node13 -->
<g id="edge21_Node000018_Node000013" class="edge">
<title>Node18&#45;&gt;Node13</title>
<g id="a_edge21_Node000018_Node000013"><a xlink:title=" ">
<path fill="none" stroke="#63b8ff" d="M255.95,-223.6C258.94,-197.46 267.41,-123.48 271.54,-87.36"/>
<polygon fill="#63b8ff" stroke="#63b8ff" points="274.98,-88.13 272.64,-77.8 268.02,-87.34 274.98,-88.13"/>
</a>
</g>
</g>
<!-- Node19&#45;&gt;Node14 -->
<g id="edge24_Node000019_Node000014" class="edge">
<title>Node19&#45;&gt;Node14</title>
<g id="a_edge24_Node000019_Node000014"><a xlink:title=" ">
<path fill="none" stroke="#63b8ff" d="M45.88,-335.58C45.88,-316.57 45.88,-272.24 45.88,-235 45.88,-235 45.88,-235 45.88,-121 45.88,-77.32 89.72,-43.99 120.47,-25.98"/>
<polygon fill="#63b8ff" stroke="#63b8ff" points="121.98,-29.15 128.99,-21.21 118.56,-23.04 121.98,-29.15"/>
</a>
</g>
</g>
<!-- Node20 -->
<g id="Node000020" class="node">
<title>Node20</title>
<g id="a_Node000020"><a xlink:title=" ">
<polygon fill="#e0e0e0" stroke="#999999" points="119.5,-300 74.25,-300 74.25,-280 119.5,-280 119.5,-300"/>
<text text-anchor="middle" x="96.88" y="-286.5" font-family="Helvetica,sans-Serif" font-size="10.00">cstdint</text>
</a>
</g>
</g>
<!-- Node19&#45;&gt;Node20 -->
<g id="edge23_Node000019_Node000020" class="edge">
<title>Node19&#45;&gt;Node20</title>
<g id="a_edge23_Node000019_Node000020"><a xlink:title=" ">
<path fill="none" stroke="#63b8ff" d="M54.76,-335.59C61.78,-328.16 71.78,-317.58 80.27,-308.58"/>
<polygon fill="#63b8ff" stroke="#63b8ff" points="82.73,-311.07 87.05,-301.4 77.64,-306.27 82.73,-311.07"/>
</a>
</g>
</g>
<!-- Node22 -->
<g id="Node000022" class="node">
<title>Node22</title>
<g id="a_Node000022"><a xlink:href="../../d5/d91/_camera_8h.html" target="_top" xlink:title=" ">
<polygon fill="white" stroke="#666666" points="668.25,-412 573.5,-412 573.5,-392 668.25,-392 668.25,-412"/>
<text text-anchor="middle" x="620.88" y="-398.5" font-family="Helvetica,sans-Serif" font-size="10.00">Camera/Camera.h</text>
</a>
</g>
</g>
<!-- Node21&#45;&gt;Node22 -->
<g id="edge26_Node000021_Node000022" class="edge">
<title>Node21&#45;&gt;Node22</title>
<g id="a_edge26_Node000021_Node000022"><a xlink:title=" ">
<path fill="none" stroke="#63b8ff" d="M496.18,-447.59C520.39,-438.94 556.55,-426 583.71,-416.29"/>
<polygon fill="#63b8ff" stroke="#63b8ff" points="584.7,-419.65 592.94,-412.99 582.35,-413.06 584.7,-419.65"/>
</a>
</g>
</g>
<!-- Node24 -->
<g id="Node000024" class="node">
<title>Node24</title>
<g id="a_Node000024"><a xlink:href="../../d2/d46/_light_8h.html" target="_top" xlink:title=" ">
<polygon fill="white" stroke="#666666" points="853.12,-412 778.62,-412 778.62,-392 853.12,-392 853.12,-412"/>
<text text-anchor="middle" x="815.88" y="-398.5" font-family="Helvetica,sans-Serif" font-size="10.00">Lights/Light.h</text>
</a>
</g>
</g>
<!-- Node21&#45;&gt;Node24 -->
<g id="edge29_Node000021_Node000024" class="edge">
<title>Node21&#45;&gt;Node24</title>
<g id="a_edge29_Node000021_Node000024"><a xlink:title=" ">
<path fill="none" stroke="#63b8ff" d="M507.89,-451.07C571.08,-441.2 697.65,-421.45 767.25,-410.59"/>
<polygon fill="#63b8ff" stroke="#63b8ff" points="767.48,-414.09 776.82,-409.09 766.4,-407.18 767.48,-414.09"/>
</a>
</g>
</g>
<!-- Node27 -->
<g id="Node000027" class="node">
<title>Node27</title>
<g id="a_Node000027"><a xlink:href="../../d7/d92/_database_connector_8h.html" target="_top" xlink:title=" ">
<polygon fill="white" stroke="#666666" points="529.38,-412 384.38,-412 384.38,-392 529.38,-392 529.38,-412"/>
<text text-anchor="middle" x="456.88" y="-398.5" font-family="Helvetica,sans-Serif" font-size="10.00">Utilities/DatabaseConnector.h</text>
</a>
</g>
</g>
<!-- Node21&#45;&gt;Node27 -->
<g id="edge34_Node000021_Node000027" class="edge">
<title>Node21&#45;&gt;Node27</title>
<g id="a_edge34_Node000021_Node000027"><a xlink:title=" ">
<path fill="none" stroke="#63b8ff" d="M467.61,-447.59C466.01,-440.93 463.8,-431.75 461.8,-423.44"/>
<polygon fill="#63b8ff" stroke="#63b8ff" points="465.21,-422.67 459.47,-413.77 458.41,-424.31 465.21,-422.67"/>
</a>
</g>
</g>
<!-- Node22&#45;&gt;Node8 -->
<g id="edge28_Node000022_Node000008" class="edge">
<title>Node22&#45;&gt;Node8</title>
<g id="a_edge28_Node000022_Node000008"><a xlink:title=" ">
<path fill="none" stroke="#63b8ff" d="M620.84,-391.63C620.26,-377.57 617.06,-351.08 601.88,-336 585.6,-319.83 527.38,-306.21 486.37,-298.33"/>
<polygon fill="#63b8ff" stroke="#63b8ff" points="487.26,-294.93 476.79,-296.53 485.98,-301.81 487.26,-294.93"/>
</a>
</g>
</g>
<!-- Node23 -->
<g id="Node000023" class="node">
<title>Node23</title>
<g id="a_Node000023"><a xlink:href="../../dd/dbb/_camera_projection_8h.html" target="_top" xlink:title=" ">
<polygon fill="white" stroke="#666666" points="750.62,-356 649.12,-356 649.12,-336 750.62,-336 750.62,-356"/>
<text text-anchor="middle" x="699.88" y="-342.5" font-family="Helvetica,sans-Serif" font-size="10.00">CameraProjection.h</text>
</a>
</g>
</g>
<!-- Node22&#45;&gt;Node23 -->
<g id="edge27_Node000022_Node000023" class="edge">
<title>Node22&#45;&gt;Node23</title>
<g id="a_edge27_Node000022_Node000023"><a xlink:title=" ">
<path fill="none" stroke="#63b8ff" d="M634.64,-391.59C646.23,-383.67 663.07,-372.16 676.74,-362.82"/>
<polygon fill="#63b8ff" stroke="#63b8ff" points="678.48,-365.87 684.76,-357.33 674.53,-360.09 678.48,-365.87"/>
</a>
</g>
</g>
<!-- Node25 -->
<g id="Node000025" class="node">
<title>Node25</title>
<g id="a_Node000025"><a xlink:href="../../d7/d9c/_light_attenuation_8h.html" target="_top" xlink:title=" ">
<polygon fill="white" stroke="#666666" points="863.25,-356 768.5,-356 768.5,-336 863.25,-336 863.25,-356"/>
<text text-anchor="middle" x="815.88" y="-342.5" font-family="Helvetica,sans-Serif" font-size="10.00">LightAttenuation.h</text>
</a>
</g>
</g>
<!-- Node24&#45;&gt;Node25 -->
<g id="edge30_Node000024_Node000025" class="edge">
<title>Node24&#45;&gt;Node25</title>
<g id="a_edge30_Node000024_Node000025"><a xlink:title=" ">
<path fill="none" stroke="#63b8ff" d="M815.88,-391.59C815.88,-385.01 815.88,-375.96 815.88,-367.73"/>
<polygon fill="#63b8ff" stroke="#63b8ff" points="819.38,-367.81 815.88,-357.81 812.38,-367.81 819.38,-367.81"/>
</a>
</g>
</g>
<!-- Node26 -->
<g id="Node000026" class="node">
<title>Node26</title>
<g id="a_Node000026"><a xlink:href="../../d1/db9/_light_model_8h.html" target="_top" xlink:title=" ">
<polygon fill="white" stroke="#666666" points="851.62,-300 780.12,-300 780.12,-280 851.62,-280 851.62,-300"/>
<text text-anchor="middle" x="815.88" y="-286.5" font-family="Helvetica,sans-Serif" font-size="10.00">LightModel.h</text>
</a>
</g>
</g>
<!-- Node24&#45;&gt;Node26 -->
<g id="edge33_Node000024_Node000026" class="edge">
<title>Node24&#45;&gt;Node26</title>
<g id="a_edge33_Node000024_Node000026"><a xlink:title=" ">
<path fill="none" stroke="#63b8ff" d="M835.02,-391.52C848.06,-383.9 864.27,-371.86 871.88,-356 881.15,-336.64 862.24,-318.48 843.94,-306.31"/>
<polygon fill="#63b8ff" stroke="#63b8ff" points="845.93,-303.42 835.58,-301.14 842.25,-309.38 845.93,-303.42"/>
</a>
</g>
</g>
<!-- Node25&#45;&gt;Node26 -->
<g id="edge31_Node000025_Node000026" class="edge">
<title>Node25&#45;&gt;Node26</title>
<g id="a_edge31_Node000025_Node000026"><a xlink:title=" ">
<path fill="none" stroke="#63b8ff" d="M815.88,-335.59C815.88,-329.01 815.88,-319.96 815.88,-311.73"/>
<polygon fill="#63b8ff" stroke="#63b8ff" points="819.38,-311.81 815.88,-301.81 812.38,-311.81 819.38,-311.81"/>
</a>
</g>
</g>
<!-- Node26&#45;&gt;Node9 -->
<g id="edge32_Node000026_Node000009" class="edge">
<title>Node26&#45;&gt;Node9</title>
<g id="a_edge32_Node000026_Node000009"><a xlink:title=" ">
<path fill="none" stroke="#63b8ff" d="M779.63,-282.43C723.79,-272.31 617.07,-252.97 558.62,-242.38"/>
<polygon fill="#63b8ff" stroke="#63b8ff" points="559.56,-239 549.1,-240.66 558.31,-245.88 559.56,-239"/>
</a>
</g>
</g>
<!-- Node28 -->
<g id="Node000028" class="node">
<title>Node28</title>
<g id="a_Node000028"><a xlink:href="../../de/dec/_singleton_8h.html" target="_top" xlink:title=" ">
<polygon fill="white" stroke="#666666" points="374.25,-356 309.5,-356 309.5,-336 374.25,-336 374.25,-356"/>
<text text-anchor="middle" x="341.88" y="-342.5" font-family="Helvetica,sans-Serif" font-size="10.00">Singleton.h</text>
</a>
</g>
</g>
<!-- Node27&#45;&gt;Node28 -->
<g id="edge35_Node000027_Node000028" class="edge">
<title>Node27&#45;&gt;Node28</title>
<g id="a_edge35_Node000027_Node000028"><a xlink:title=" ">
<path fill="none" stroke="#63b8ff" d="M436.84,-391.59C419.06,-383.24 392.81,-370.92 372.41,-361.34"/>
<polygon fill="#63b8ff" stroke="#63b8ff" points="373.97,-358.21 363.43,-357.12 371,-364.54 373.97,-358.21"/>
</a>
</g>
</g>
<!-- Node29 -->
<g id="Node000029" class="node">
<title>Node29</title>
<g id="a_Node000029"><a xlink:title=" ">
<polygon fill="#e0e0e0" stroke="#999999" points="435,-356 392.75,-356 392.75,-336 435,-336 435,-356"/>
<text text-anchor="middle" x="413.88" y="-342.5" font-family="Helvetica,sans-Serif" font-size="10.00">occi.h</text>
</a>
</g>
</g>
<!-- Node27&#45;&gt;Node29 -->
<g id="edge36_Node000027_Node000029" class="edge">
<title>Node27&#45;&gt;Node29</title>
<g id="a_edge36_Node000027_Node000029"><a xlink:title=" ">
<path fill="none" stroke="#63b8ff" d="M449.38,-391.59C443.59,-384.32 435.39,-374.02 428.33,-365.15"/>
<polygon fill="#63b8ff" stroke="#63b8ff" points="431.19,-363.12 422.22,-357.48 425.71,-367.49 431.19,-363.12"/>
</a>
</g>
</g>
<!-- Node30 -->
<g id="Node000030" class="node">
<title>Node30</title>
<g id="a_Node000030"><a xlink:href="../../d7/d21/_file_dialog_regex_8hpp.html" target="_top" xlink:title=" ">
<polygon fill="white" stroke="#666666" points="593.12,-356 452.62,-356 452.62,-336 593.12,-336 593.12,-356"/>
<text text-anchor="middle" x="522.88" y="-342.5" font-family="Helvetica,sans-Serif" font-size="10.00">Utilities/FileDialogRegex.hpp</text>
</a>
</g>
</g>
<!-- Node27&#45;&gt;Node30 -->
<g id="edge37_Node000027_Node000030" class="edge">
<title>Node27&#45;&gt;Node30</title>
<g id="a_edge37_Node000027_Node000030"><a xlink:title=" ">
<path fill="none" stroke="#63b8ff" d="M468.37,-391.59C477.84,-383.85 491.48,-372.69 502.75,-363.47"/>
<polygon fill="#63b8ff" stroke="#63b8ff" points="504.82,-366.3 510.34,-357.26 500.38,-360.88 504.82,-366.3"/>
</a>
</g>
</g>
<!-- Node31 -->
<g id="Node000031" class="node">
<title>Node31</title>
<g id="a_Node000031"><a xlink:title=" ">
<polygon fill="#e0e0e0" stroke="#999999" points="540.25,-300 505.5,-300 505.5,-280 540.25,-280 540.25,-300"/>
<text text-anchor="middle" x="522.88" y="-286.5" font-family="Helvetica,sans-Serif" font-size="10.00">map</text>
</a>
</g>
</g>
<!-- Node30&#45;&gt;Node31 -->
<g id="edge38_Node000030_Node000031" class="edge">
<title>Node30&#45;&gt;Node31</title>
<g id="a_edge38_Node000030_Node000031"><a xlink:title=" ">
<path fill="none" stroke="#63b8ff" d="M522.88,-335.59C522.88,-329.01 522.88,-319.96 522.88,-311.73"/>
<polygon fill="#63b8ff" stroke="#63b8ff" points="526.38,-311.81 522.88,-301.81 519.38,-311.81 526.38,-311.81"/>
</a>
</g>
</g>
<!-- Node32&#45;&gt;Node28 -->
<g id="edge40_Node000032_Node000028" class="edge">
<title>Node32&#45;&gt;Node28</title>
<g id="a_edge40_Node000032_Node000028"><a xlink:title=" ">
<path fill="none" stroke="#63b8ff" d="M341.88,-447.62C341.88,-430.01 341.88,-391.59 341.88,-367.65"/>
<polygon fill="#63b8ff" stroke="#63b8ff" points="345.38,-367.87 341.88,-357.87 338.38,-367.87 345.38,-367.87"/>
</a>
</g>
</g>
</g>
</svg>
