<?xml version="1.0" encoding="UTF-8" standalone="no"?>
<!DOCTYPE svg PUBLIC "-//W3C//DTD SVG 1.1//EN"
 "http://www.w3.org/Graphics/SVG/1.1/DTD/svg11.dtd">
<!-- Generated by graphviz version 10.0.1 (20240210.2158)
 -->
<!-- Title: GEU::SettingsWindow::SettingsWindow Pages: 1 -->
<svg width="459pt" height="140pt"
 viewBox="0.00 0.00 458.75 140.00" xmlns="http://www.w3.org/2000/svg" xmlns:xlink="http://www.w3.org/1999/xlink">
<g id="graph0" class="graph" transform="scale(1 1) rotate(0) translate(4 136)">
<title>GEU::SettingsWindow::SettingsWindow</title>
<!-- Node1 -->
<g id="Node000001" class="node">
<title>Node1</title>
<g id="a_Node000001"><a xlink:title=" ">
<polygon fill="#999999" stroke="#666666" points="113.5,-82 0,-82 0,-50 113.5,-50 113.5,-82"/>
<text text-anchor="start" x="8" y="-68.5" font-family="Helvetica,sans-Serif" font-size="10.00">GEU::SettingsWindow</text>
<text text-anchor="middle" x="56.75" y="-56.5" font-family="Helvetica,sans-Serif" font-size="10.00">::SettingsWindow</text>
</a>
</g>
</g>
<!-- Node2 -->
<g id="Node000002" class="node">
<title>Node2</title>
<g id="a_Node000002"><a xlink:href="../../dc/d07/a01512.html#a3ab87976735bc5f078274776e9b7dc9a" target="_top" xlink:title="imgui.ini userdata value line reader">
<polygon fill="white" stroke="#666666" points="263,-132 149.5,-132 149.5,-100 263,-100 263,-132"/>
<text text-anchor="start" x="157.5" y="-118.5" font-family="Helvetica,sans-Serif" font-size="10.00">GEU::SettingsWindow</text>
<text text-anchor="middle" x="206.25" y="-106.5" font-family="Helvetica,sans-Serif" font-size="10.00">::lineFn</text>
</a>
</g>
</g>
<!-- Node1&#45;&gt;Node2 -->
<g id="edge1_Node000001_Node000002" class="edge">
<title>Node1&#45;&gt;Node2</title>
<g id="a_edge1_Node000001_Node000002"><a xlink:title=" ">
<path fill="none" stroke="#63b8ff" d="M106.05,-82.37C118.72,-86.67 132.53,-91.35 145.71,-95.82"/>
<polygon fill="#63b8ff" stroke="#63b8ff" points="144.56,-99.12 155.16,-99.02 146.81,-92.49 144.56,-99.12"/>
</a>
</g>
</g>
<!-- Node5 -->
<g id="Node000005" class="node">
<title>Node5</title>
<g id="a_Node000005"><a xlink:href="../../dc/d07/a01512.html#af66b0c3a7422d7add8d58b73949feea5" target="_top" xlink:title="imgui.ini userdata header read start">
<polygon fill="white" stroke="#666666" points="263,-32 149.5,-32 149.5,0 263,0 263,-32"/>
<text text-anchor="start" x="157.5" y="-18.5" font-family="Helvetica,sans-Serif" font-size="10.00">GEU::SettingsWindow</text>
<text text-anchor="middle" x="206.25" y="-6.5" font-family="Helvetica,sans-Serif" font-size="10.00">::readFn</text>
</a>
</g>
</g>
<!-- Node1&#45;&gt;Node5 -->
<g id="edge4_Node000001_Node000005" class="edge">
<title>Node1&#45;&gt;Node5</title>
<g id="a_edge4_Node000001_Node000005"><a xlink:title=" ">
<path fill="none" stroke="#63b8ff" d="M106.05,-49.63C118.72,-45.33 132.53,-40.65 145.71,-36.18"/>
<polygon fill="#63b8ff" stroke="#63b8ff" points="146.81,-39.51 155.16,-32.98 144.56,-32.88 146.81,-39.51"/>
</a>
</g>
</g>
<!-- Node7 -->
<g id="Node000007" class="node">
<title>Node7</title>
<g id="a_Node000007"><a xlink:href="../../dc/d07/a01512.html#ab715922065c19d5071d9f67f1ec5bfb4" target="_top" xlink:title="imgui.ini userdata writer function">
<polygon fill="white" stroke="#666666" points="263,-82 149.5,-82 149.5,-50 263,-50 263,-82"/>
<text text-anchor="start" x="157.5" y="-68.5" font-family="Helvetica,sans-Serif" font-size="10.00">GEU::SettingsWindow</text>
<text text-anchor="middle" x="206.25" y="-56.5" font-family="Helvetica,sans-Serif" font-size="10.00">::writeFn</text>
</a>
</g>
</g>
<!-- Node1&#45;&gt;Node7 -->
<g id="edge6_Node000001_Node000007" class="edge">
<title>Node1&#45;&gt;Node7</title>
<g id="a_edge6_Node000001_Node000007"><a xlink:title=" ">
<path fill="none" stroke="#63b8ff" d="M113.93,-66C121.79,-66 129.93,-66 137.97,-66"/>
<polygon fill="#63b8ff" stroke="#63b8ff" points="137.71,-69.5 147.71,-66 137.71,-62.5 137.71,-69.5"/>
</a>
</g>
</g>
<!-- Node3 -->
<g id="Node000003" class="node">
<title>Node3</title>
<g id="a_Node000003"><a xlink:href="../../d1/d01/a02032.html#a47c7e7c2110f4cc59c9ff1f5594c366e" target="_top" xlink:title=" ">
<polygon fill="white" stroke="#666666" points="450.75,-87 299,-87 299,-55 450.75,-55 450.75,-87"/>
<text text-anchor="start" x="307" y="-73.5" font-family="Helvetica,sans-Serif" font-size="10.00">GEU::Singleton&lt; LocaleStrings</text>
<text text-anchor="middle" x="374.88" y="-61.5" font-family="Helvetica,sans-Serif" font-size="10.00"> &gt;::getInstance</text>
</a>
</g>
</g>
<!-- Node2&#45;&gt;Node3 -->
<g id="edge2_Node000002_Node000003" class="edge">
<title>Node2&#45;&gt;Node3</title>
<g id="a_edge2_Node000002_Node000003"><a xlink:title=" ">
<path fill="none" stroke="#63b8ff" d="M263.2,-100.89C275.68,-97.52 289.08,-93.9 302.11,-90.38"/>
<polygon fill="#63b8ff" stroke="#63b8ff" points="302.72,-93.84 311.46,-87.86 300.9,-87.08 302.72,-93.84"/>
</a>
</g>
</g>
<!-- Node4 -->
<g id="Node000004" class="node">
<title>Node4</title>
<g id="a_Node000004"><a xlink:href="../../dc/d02/a02020.html#a4fb8cad81efcd4de1a351ea2c3cd5727" target="_top" xlink:title="Changes active locale.">
<polygon fill="white" stroke="#666666" points="436.5,-126 313.25,-126 313.25,-106 436.5,-106 436.5,-126"/>
<text text-anchor="middle" x="374.88" y="-112.5" font-family="Helvetica,sans-Serif" font-size="10.00">LocaleStrings::setLocale</text>
</a>
</g>
</g>
<!-- Node2&#45;&gt;Node4 -->
<g id="edge3_Node000002_Node000004" class="edge">
<title>Node2&#45;&gt;Node4</title>
<g id="a_edge3_Node000002_Node000004"><a xlink:title=" ">
<path fill="none" stroke="#63b8ff" d="M263.2,-116C275.56,-116 288.82,-116 301.72,-116"/>
<polygon fill="#63b8ff" stroke="#63b8ff" points="301.41,-119.5 311.41,-116 301.41,-112.5 301.41,-119.5"/>
</a>
</g>
</g>
<!-- Node6 -->
<g id="Node000006" class="node">
<title>Node6</title>
<g id="a_Node000006"><a xlink:href="../../d9/d03/a01896.html#af2ea72a4bd53eb6f69a5c873e4c22017" target="_top" xlink:title=" ">
<polygon fill="white" stroke="#666666" points="428.62,-34 321.12,-34 321.12,-2 428.62,-2 428.62,-34"/>
<text text-anchor="start" x="329.12" y="-20.5" font-family="Helvetica,sans-Serif" font-size="10.00">GEU::InputManager::</text>
<text text-anchor="middle" x="374.88" y="-8.5" font-family="Helvetica,sans-Serif" font-size="10.00">getApplicationState</text>
</a>
</g>
</g>
<!-- Node5&#45;&gt;Node6 -->
<g id="edge5_Node000005_Node000006" class="edge">
<title>Node5&#45;&gt;Node6</title>
<g id="a_edge5_Node000005_Node000006"><a xlink:title=" ">
<path fill="none" stroke="#63b8ff" d="M263.2,-16.67C278.04,-16.85 294.18,-17.04 309.44,-17.23"/>
<polygon fill="#63b8ff" stroke="#63b8ff" points="309.34,-20.73 319.38,-17.35 309.42,-13.73 309.34,-20.73"/>
</a>
</g>
</g>
<!-- Node7&#45;&gt;Node3 -->
<g id="edge8_Node000007_Node000003" class="edge">
<title>Node7&#45;&gt;Node3</title>
<g id="a_edge8_Node000007_Node000003"><a xlink:title=" ">
<path fill="none" stroke="#63b8ff" d="M263.2,-67.68C270.91,-67.91 278.97,-68.15 287.08,-68.4"/>
<polygon fill="#63b8ff" stroke="#63b8ff" points="286.92,-71.89 297.02,-68.69 287.13,-64.9 286.92,-71.89"/>
</a>
</g>
</g>
<!-- Node7&#45;&gt;Node6 -->
<g id="edge7_Node000007_Node000006" class="edge">
<title>Node7&#45;&gt;Node6</title>
<g id="a_edge7_Node000007_Node000006"><a xlink:title=" ">
<path fill="none" stroke="#63b8ff" d="M263.2,-49.88C278.18,-45.57 294.5,-40.87 309.89,-36.43"/>
<polygon fill="#63b8ff" stroke="#63b8ff" points="310.8,-39.81 319.44,-33.68 308.86,-33.09 310.8,-39.81"/>
</a>
</g>
</g>
</g>
</svg>
