<?xml version="1.0" encoding="UTF-8" standalone="no"?>
<!DOCTYPE svg PUBLIC "-//W3C//DTD SVG 1.1//EN"
 "http://www.w3.org/Graphics/SVG/1.1/DTD/svg11.dtd">
<!-- Generated by graphviz version 10.0.1 (20240210.2158)
 -->
<!-- Title: GEU::NASSession::getRemoteFile Pages: 1 -->
<svg width="363pt" height="78pt"
 viewBox="0.00 0.00 363.25 78.00" xmlns="http://www.w3.org/2000/svg" xmlns:xlink="http://www.w3.org/1999/xlink">
<g id="graph0" class="graph" transform="scale(1 1) rotate(0) translate(4 74)">
<title>GEU::NASSession::getRemoteFile</title>
<!-- Node1 -->
<g id="Node000001" class="node">
<title>Node1</title>
<g id="a_Node000001"><a xlink:title="Downloads remote file to local file system.">
<polygon fill="#999999" stroke="#666666" points="167.5,-42 0,-42 0,-22 167.5,-22 167.5,-42"/>
<text text-anchor="middle" x="83.75" y="-28.5" font-family="Helvetica,sans-Serif" font-size="10.00">GEU::NASSession::getRemoteFile</text>
</a>
</g>
</g>
<!-- Node2 -->
<g id="Node000002" class="node">
<title>Node2</title>
<g id="a_Node000002"><a xlink:href="../../d5/d01/a01945.html#a47c7e7c2110f4cc59c9ff1f5594c366e" target="_top" xlink:title=" ">
<polygon fill="white" stroke="#666666" points="355.25,-70 203.5,-70 203.5,-38 355.25,-38 355.25,-70"/>
<text text-anchor="start" x="211.5" y="-56.5" font-family="Helvetica,sans-Serif" font-size="10.00">GEU::Singleton&lt; LocaleStrings</text>
<text text-anchor="middle" x="279.38" y="-44.5" font-family="Helvetica,sans-Serif" font-size="10.00"> &gt;::getInstance</text>
</a>
</g>
</g>
<!-- Node1&#45;&gt;Node2 -->
<g id="edge1_Node000001_Node000002" class="edge">
<title>Node1&#45;&gt;Node2</title>
<g id="a_edge1_Node000001_Node000002"><a xlink:title=" ">
<path fill="none" stroke="#63b8ff" d="M167.99,-41.46C175.93,-42.36 184,-43.28 191.97,-44.18"/>
<polygon fill="#63b8ff" stroke="#63b8ff" points="191.32,-47.63 201.65,-45.28 192.11,-40.68 191.32,-47.63"/>
</a>
</g>
</g>
<!-- Node3 -->
<g id="Node000003" class="node">
<title>Node3</title>
<g id="a_Node000003"><a xlink:href="../../da/d04/a01921.html#a90f2903c439af79e6af28892f8f9c139" target="_top" xlink:title=" ">
<polygon fill="white" stroke="#666666" points="339.5,-20 219.25,-20 219.25,0 339.5,0 339.5,-20"/>
<text text-anchor="middle" x="279.38" y="-6.5" font-family="Helvetica,sans-Serif" font-size="10.00">LocaleStrings::getString</text>
</a>
</g>
</g>
<!-- Node1&#45;&gt;Node3 -->
<g id="edge2_Node000001_Node000003" class="edge">
<title>Node1&#45;&gt;Node3</title>
<g id="a_edge2_Node000001_Node000003"><a xlink:title=" ">
<path fill="none" stroke="#63b8ff" d="M167.99,-22.54C181.23,-21.04 194.81,-19.49 207.72,-18.03"/>
<polygon fill="#63b8ff" stroke="#63b8ff" points="207.83,-21.54 217.37,-16.93 207.04,-14.58 207.83,-21.54"/>
</a>
</g>
</g>
</g>
</svg>
