<?xml version="1.0" encoding="UTF-8" standalone="no"?>
<!DOCTYPE svg PUBLIC "-//W3C//DTD SVG 1.1//EN"
 "http://www.w3.org/Graphics/SVG/1.1/DTD/svg11.dtd">
<!-- Generated by graphviz version 10.0.1 (20240210.2158)
 -->
<!-- Title: GEU::NASSession::uploadFolder Pages: 1 -->
<svg width="356pt" height="78pt"
 viewBox="0.00 0.00 355.75 78.00" xmlns="http://www.w3.org/2000/svg" xmlns:xlink="http://www.w3.org/1999/xlink">
<g id="graph0" class="graph" transform="scale(1 1) rotate(0) translate(4 74)">
<title>GEU::NASSession::uploadFolder</title>
<!-- Node1 -->
<g id="Node000001" class="node">
<title>Node1</title>
<g id="a_Node000001"><a xlink:title="Uploads local folder to remote directory.">
<polygon fill="#999999" stroke="#666666" points="160,-42 0,-42 0,-22 160,-22 160,-42"/>
<text text-anchor="middle" x="80" y="-28.5" font-family="Helvetica,sans-Serif" font-size="10.00">GEU::NASSession::uploadFolder</text>
</a>
</g>
</g>
<!-- Node2 -->
<g id="Node000002" class="node">
<title>Node2</title>
<g id="a_Node000002"><a xlink:href="../../d5/d01/a01945.html#a47c7e7c2110f4cc59c9ff1f5594c366e" target="_top" xlink:title=" ">
<polygon fill="white" stroke="#666666" points="347.75,-70 196,-70 196,-38 347.75,-38 347.75,-70"/>
<text text-anchor="start" x="204" y="-56.5" font-family="Helvetica,sans-Serif" font-size="10.00">GEU::Singleton&lt; LocaleStrings</text>
<text text-anchor="middle" x="271.88" y="-44.5" font-family="Helvetica,sans-Serif" font-size="10.00"> &gt;::getInstance</text>
</a>
</g>
</g>
<!-- Node1&#45;&gt;Node2 -->
<g id="edge1_Node000001_Node000002" class="edge">
<title>Node1&#45;&gt;Node2</title>
<g id="a_edge1_Node000001_Node000002"><a xlink:title=" ">
<path fill="none" stroke="#63b8ff" d="M160.42,-41.2C168.37,-42.12 176.46,-43.06 184.47,-43.99"/>
<polygon fill="#63b8ff" stroke="#63b8ff" points="183.88,-47.44 194.21,-45.12 184.68,-40.49 183.88,-47.44"/>
</a>
</g>
</g>
<!-- Node3 -->
<g id="Node000003" class="node">
<title>Node3</title>
<g id="a_Node000003"><a xlink:href="../../da/d04/a01921.html#a90f2903c439af79e6af28892f8f9c139" target="_top" xlink:title=" ">
<polygon fill="white" stroke="#666666" points="332,-20 211.75,-20 211.75,0 332,0 332,-20"/>
<text text-anchor="middle" x="271.88" y="-6.5" font-family="Helvetica,sans-Serif" font-size="10.00">LocaleStrings::getString</text>
</a>
</g>
</g>
<!-- Node1&#45;&gt;Node3 -->
<g id="edge2_Node000001_Node000003" class="edge">
<title>Node1&#45;&gt;Node3</title>
<g id="a_edge2_Node000001_Node000003"><a xlink:title=" ">
<path fill="none" stroke="#63b8ff" d="M160.42,-22.8C173.63,-21.27 187.24,-19.69 200.21,-18.19"/>
<polygon fill="#63b8ff" stroke="#63b8ff" points="200.38,-21.69 209.91,-17.06 199.58,-14.74 200.38,-21.69"/>
</a>
</g>
</g>
</g>
</svg>
