<?xml version="1.0" encoding="UTF-8" standalone="no"?>
<!DOCTYPE svg PUBLIC "-//W3C//DTD SVG 1.1//EN"
 "http://www.w3.org/Graphics/SVG/1.1/DTD/svg11.dtd">
<!-- Generated by graphviz version 10.0.1 (20240210.2158)
 -->
<!-- Title: AABB::dot Pages: 1 -->
<svg width="617pt" height="478pt"
 viewBox="0.00 0.00 616.50 478.00" xmlns="http://www.w3.org/2000/svg" xmlns:xlink="http://www.w3.org/1999/xlink">
<g id="graph0" class="graph" transform="scale(1 1) rotate(0) translate(4 474)">
<title>AABB::dot</title>
<!-- Node1 -->
<g id="Node000001" class="node">
<title>Node1</title>
<g id="a_Node000001"><a xlink:title=" ">
<polygon fill="#999999" stroke="#666666" points="608.5,-204 546,-204 546,-184 608.5,-184 608.5,-204"/>
<text text-anchor="middle" x="577.25" y="-190.5" font-family="Helvetica,sans-Serif" font-size="10.00">AABB::dot</text>
</a>
</g>
</g>
<!-- Node2 -->
<g id="Node000002" class="node">
<title>Node2</title>
<g id="a_Node000002"><a xlink:href="../../db/d04/class_g_e_u_1_1_model3_d.html#ab5fdc7a938aa8ae8f6697cb4bf3e94b4" target="_top" xlink:title=" ">
<polygon fill="white" stroke="#666666" points="510,-248 382.25,-248 382.25,-228 510,-228 510,-248"/>
<text text-anchor="middle" x="446.12" y="-234.5" font-family="Helvetica,sans-Serif" font-size="10.00">GEU::Model3D::getAABB</text>
</a>
</g>
</g>
<!-- Node1&#45;&gt;Node2 -->
<g id="edge1_Node000001_Node000002" class="edge">
<title>Node1&#45;&gt;Node2</title>
<g id="a_edge1_Node000001_Node000002"><a xlink:title=" ">
<path fill="none" stroke="#63b8ff" d="M539.25,-208.47C529.76,-212.04 519.54,-215.76 510,-219 501.36,-221.93 491.98,-224.89 483.17,-227.56"/>
<polygon fill="#63b8ff" stroke="#63b8ff" points="540.45,-211.75 548.55,-204.92 537.96,-205.21 540.45,-211.75"/>
</a>
</g>
</g>
<!-- Node16 -->
<g id="Node000016" class="node">
<title>Node16</title>
<g id="a_Node000016"><a xlink:href="../../d9/d02/class_g_e_u_1_1_triangle_mesh.html#a3d0a52044599f2686b42aed5b4630095" target="_top" xlink:title=" ">
<polygon fill="white" stroke="#666666" points="499.5,-210 392.75,-210 392.75,-178 499.5,-178 499.5,-210"/>
<text text-anchor="start" x="400.75" y="-196.5" font-family="Helvetica,sans-Serif" font-size="10.00">GEU::TriangleMesh::</text>
<text text-anchor="middle" x="446.12" y="-184.5" font-family="Helvetica,sans-Serif" font-size="10.00">getAABB</text>
</a>
</g>
</g>
<!-- Node1&#45;&gt;Node16 -->
<g id="edge15_Node000001_Node000016" class="edge">
<title>Node1&#45;&gt;Node16</title>
<g id="a_edge15_Node000001_Node000016"><a xlink:title=" ">
<path fill="none" stroke="#63b8ff" d="M534.25,-194C523.31,-194 511.39,-194 499.98,-194"/>
<polygon fill="#63b8ff" stroke="#63b8ff" points="534.14,-197.5 544.14,-194 534.14,-190.5 534.14,-197.5"/>
</a>
</g>
</g>
<!-- Node17 -->
<g id="Node000017" class="node">
<title>Node17</title>
<g id="a_Node000017"><a xlink:href="../../d9/d02/class_g_e_u_1_1_triangle_mesh.html#af3317dd9b6bbec740f6d45d419f28feb" target="_top" xlink:title=" ">
<polygon fill="white" stroke="#666666" points="504.75,-160 387.5,-160 387.5,-128 504.75,-128 504.75,-160"/>
<text text-anchor="start" x="395.5" y="-146.5" font-family="Helvetica,sans-Serif" font-size="10.00">GEU::TriangleMesh::</text>
<text text-anchor="middle" x="446.12" y="-134.5" font-family="Helvetica,sans-Serif" font-size="10.00">moveGeometryToOrigin</text>
</a>
</g>
</g>
<!-- Node1&#45;&gt;Node17 -->
<g id="edge16_Node000001_Node000017" class="edge">
<title>Node1&#45;&gt;Node17</title>
<g id="a_edge16_Node000001_Node000017"><a xlink:title=" ">
<path fill="none" stroke="#63b8ff" d="M538.52,-179.39C523.21,-173.46 505.44,-166.58 489.66,-160.47"/>
<polygon fill="#63b8ff" stroke="#63b8ff" points="537.18,-182.62 547.77,-182.97 539.71,-176.1 537.18,-182.62"/>
</a>
</g>
</g>
<!-- Node3 -->
<g id="Node000003" class="node">
<title>Node3</title>
<g id="a_Node000003"><a xlink:href="../../dc/d01/class_g_e_u_1_1_image_cloud_proj.html#a8cfce2a37af19646fd0c06ee3fb077ca" target="_top" xlink:title=" ">
<polygon fill="white" stroke="#666666" points="327.12,-470 215.88,-470 215.88,-438 327.12,-438 327.12,-470"/>
<text text-anchor="start" x="223.88" y="-456.5" font-family="Helvetica,sans-Serif" font-size="10.00">GEU::ImageCloudProj</text>
<text text-anchor="middle" x="271.5" y="-444.5" font-family="Helvetica,sans-Serif" font-size="10.00">::applyStructureMask</text>
</a>
</g>
</g>
<!-- Node2&#45;&gt;Node3 -->
<g id="edge2_Node000002_Node000003" class="edge">
<title>Node2&#45;&gt;Node3</title>
<g id="a_edge2_Node000002_Node000003"><a xlink:title=" ">
<path fill="none" stroke="#63b8ff" d="M439.75,-259.51C428.84,-298.81 400.42,-382.44 346.25,-429 340.71,-433.76 334.23,-437.62 327.45,-440.76"/>
<polygon fill="#63b8ff" stroke="#63b8ff" points="443.13,-260.44 442.3,-249.88 436.36,-258.65 443.13,-260.44"/>
</a>
</g>
</g>
<!-- Node4 -->
<g id="Node000004" class="node">
<title>Node4</title>
<g id="a_Node000004"><a xlink:href="../../dc/d01/class_g_e_u_1_1_image_cloud_proj.html#a1931d245c0168a9e7866bc8dd7904a07" target="_top" xlink:title=" ">
<polygon fill="white" stroke="#666666" points="329.38,-420 213.62,-420 213.62,-388 329.38,-388 329.38,-420"/>
<text text-anchor="start" x="221.62" y="-406.5" font-family="Helvetica,sans-Serif" font-size="10.00">GEU::ImageCloudProj</text>
<text text-anchor="middle" x="271.5" y="-394.5" font-family="Helvetica,sans-Serif" font-size="10.00">::applyVegetationMask</text>
</a>
</g>
</g>
<!-- Node2&#45;&gt;Node4 -->
<g id="edge3_Node000002_Node000004" class="edge">
<title>Node2&#45;&gt;Node4</title>
<g id="a_edge3_Node000002_Node000004"><a xlink:title=" ">
<path fill="none" stroke="#63b8ff" d="M435.98,-258.47C421.32,-289.01 389.74,-346.41 346.25,-379 341.16,-382.81 335.46,-386.06 329.54,-388.84"/>
<polygon fill="#63b8ff" stroke="#63b8ff" points="439.08,-260.1 440.12,-249.56 432.73,-257.15 439.08,-260.1"/>
</a>
</g>
</g>
<!-- Node5 -->
<g id="Node000005" class="node">
<title>Node5</title>
<g id="a_Node000005"><a xlink:href="../../dd/d03/class_g_e_u_1_1_procedural_generator.html#a5e5a6ec203139618f54a6479cc12dd56" target="_top" xlink:title=" ">
<polygon fill="white" stroke="#666666" points="337.62,-370 205.38,-370 205.38,-338 337.62,-338 337.62,-370"/>
<text text-anchor="start" x="213.38" y="-356.5" font-family="Helvetica,sans-Serif" font-size="10.00">GEU::ProceduralGenerator</text>
<text text-anchor="middle" x="271.5" y="-344.5" font-family="Helvetica,sans-Serif" font-size="10.00">::computeNURBS</text>
</a>
</g>
</g>
<!-- Node2&#45;&gt;Node5 -->
<g id="edge4_Node000002_Node000005" class="edge">
<title>Node2&#45;&gt;Node5</title>
<g id="a_edge4_Node000002_Node000005"><a xlink:title=" ">
<path fill="none" stroke="#63b8ff" d="M429.29,-256.64C411.1,-276.99 379.48,-309.29 346.25,-329 340.9,-332.17 335.09,-335.01 329.16,-337.54"/>
<polygon fill="#63b8ff" stroke="#63b8ff" points="431.7,-259.19 435.65,-249.36 426.44,-254.58 431.7,-259.19"/>
</a>
</g>
</g>
<!-- Node6 -->
<g id="Node000006" class="node">
<title>Node6</title>
<g id="a_Node000006"><a xlink:href="../../dd/d03/class_g_e_u_1_1_procedural_generator.html#a5fb6272591570506c14b2e194a9b3805" target="_top" xlink:title="Initialize the voxel grid.">
<polygon fill="white" stroke="#666666" points="337.62,-320 205.38,-320 205.38,-288 337.62,-288 337.62,-320"/>
<text text-anchor="start" x="213.38" y="-306.5" font-family="Helvetica,sans-Serif" font-size="10.00">GEU::ProceduralGenerator</text>
<text text-anchor="middle" x="271.5" y="-294.5" font-family="Helvetica,sans-Serif" font-size="10.00">::createVoxelGrid</text>
</a>
</g>
</g>
<!-- Node2&#45;&gt;Node6 -->
<g id="edge5_Node000002_Node000006" class="edge">
<title>Node2&#45;&gt;Node6</title>
<g id="a_edge5_Node000002_Node000006"><a xlink:title=" ">
<path fill="none" stroke="#63b8ff" d="M410.83,-252.88C391.9,-260.92 367.91,-270.85 346.25,-279 338.66,-281.86 330.57,-284.75 322.64,-287.5"/>
<polygon fill="#63b8ff" stroke="#63b8ff" points="412.12,-256.13 419.93,-248.98 409.36,-249.7 412.12,-256.13"/>
</a>
</g>
</g>
<!-- Node7 -->
<g id="Node000007" class="node">
<title>Node7</title>
<g id="a_Node000007"><a xlink:href="../../dd/d04/class_g_e_u_1_1_camera.html#a40576296046dd7cbeb67cfcd7bdbcba8" target="_top" xlink:title=" ">
<polygon fill="white" stroke="#666666" points="335,-270 208,-270 208,-250 335,-250 335,-270"/>
<text text-anchor="middle" x="271.5" y="-256.5" font-family="Helvetica,sans-Serif" font-size="10.00">GEU::Camera::lookModel</text>
</a>
</g>
</g>
<!-- Node2&#45;&gt;Node7 -->
<g id="edge6_Node000002_Node000007" class="edge">
<title>Node2&#45;&gt;Node7</title>
<g id="a_edge6_Node000002_Node000007"><a xlink:title=" ">
<path fill="none" stroke="#63b8ff" d="M370.63,-247.49C358.82,-249 346.72,-250.54 335.21,-252.01"/>
<polygon fill="#63b8ff" stroke="#63b8ff" points="370.85,-250.99 380.32,-246.26 369.96,-244.05 370.85,-250.99"/>
</a>
</g>
</g>
<!-- Node9 -->
<g id="Node000009" class="node">
<title>Node9</title>
<g id="a_Node000009"><a xlink:href="../../db/d00/class_g_e_u_1_1_details_window.html#ad35f61717358ebd11631e5b8c5ed9ff9" target="_top" xlink:title="Makes and handles basic enabled and POS/ROT/SCL edit controls.">
<polygon fill="white" stroke="#666666" points="346.25,-232 196.75,-232 196.75,-200 346.25,-200 346.25,-232"/>
<text text-anchor="start" x="204.75" y="-218.5" font-family="Helvetica,sans-Serif" font-size="10.00">GEU::DetailsWindow</text>
<text text-anchor="middle" x="271.5" y="-206.5" font-family="Helvetica,sans-Serif" font-size="10.00">::makeBasicTransformControls</text>
</a>
</g>
</g>
<!-- Node2&#45;&gt;Node9 -->
<g id="edge8_Node000002_Node000009" class="edge">
<title>Node2&#45;&gt;Node9</title>
<g id="a_edge8_Node000002_Node000009"><a xlink:title=" ">
<path fill="none" stroke="#63b8ff" d="M370.67,-228.51C362.7,-227.5 354.59,-226.46 346.61,-225.45"/>
<polygon fill="#63b8ff" stroke="#63b8ff" points="369.96,-231.95 380.32,-229.74 370.85,-225.01 369.96,-231.95"/>
</a>
</g>
</g>
<!-- Node10 -->
<g id="Node000010" class="node">
<title>Node10</title>
<g id="a_Node000010"><a xlink:href="../../dd/d01/class_g_e_u_1_1_file_manager.html#a7bcb4c4a764ee9419f0d924477566f60" target="_top" xlink:title=" ">
<polygon fill="white" stroke="#666666" points="345.12,-182 197.88,-182 197.88,-150 345.12,-150 345.12,-182"/>
<text text-anchor="start" x="205.88" y="-168.5" font-family="Helvetica,sans-Serif" font-size="10.00">GEU::FileManager::mergeGeu</text>
<text text-anchor="middle" x="271.5" y="-156.5" font-family="Helvetica,sans-Serif" font-size="10.00">Clouds</text>
</a>
</g>
</g>
<!-- Node2&#45;&gt;Node10 -->
<g id="edge9_Node000002_Node000010" class="edge">
<title>Node2&#45;&gt;Node10</title>
<g id="a_edge9_Node000002_Node000010"><a xlink:title=" ">
<path fill="none" stroke="#63b8ff" d="M391.91,-223.47C388.59,-222.09 385.34,-220.6 382.25,-219 364.25,-209.69 364.1,-200.61 346.25,-191 340.42,-187.86 334.12,-185.01 327.74,-182.44"/>
<polygon fill="#63b8ff" stroke="#63b8ff" points="390.67,-226.74 401.26,-226.98 393.13,-220.19 390.67,-226.74"/>
</a>
</g>
</g>
<!-- Node11 -->
<g id="Node000011" class="node">
<title>Node11</title>
<g id="a_Node000011"><a xlink:href="../../d4/d07/class_normales_g_u_i_adapter.html#a32cec8b0ea288f27e15946d5a4ea3728" target="_top" xlink:title=" ">
<polygon fill="white" stroke="#666666" points="325.25,-132 217.75,-132 217.75,-100 325.25,-100 325.25,-132"/>
<text text-anchor="start" x="225.75" y="-118.5" font-family="Helvetica,sans-Serif" font-size="10.00">NormalesGUIAdapter</text>
<text text-anchor="middle" x="271.5" y="-106.5" font-family="Helvetica,sans-Serif" font-size="10.00">::offsetMethod</text>
</a>
</g>
</g>
<!-- Node2&#45;&gt;Node11 -->
<g id="edge10_Node000002_Node000011" class="edge">
<title>Node2&#45;&gt;Node11</title>
<g id="a_edge10_Node000002_Node000011"><a xlink:title=" ">
<path fill="none" stroke="#63b8ff" d="M385.73,-221.76C384.52,-220.89 383.36,-219.97 382.25,-219 353.44,-193.94 374.63,-166.54 346.25,-141 340.22,-135.57 332.96,-131.32 325.39,-127.98"/>
<polygon fill="#63b8ff" stroke="#63b8ff" points="383.9,-224.75 394.3,-226.8 387.45,-218.71 383.9,-224.75"/>
</a>
</g>
</g>
<!-- Node13 -->
<g id="Node000013" class="node">
<title>Node13</title>
<g id="a_Node000013"><a xlink:href="../../dd/d03/class_g_e_u_1_1_procedural_generator.html#ab8413581fb4ba7ab9709a72bca03ce64" target="_top" xlink:title="Assign each point of the PointCloud to the corresponding voxel in the voxel grid and computes the cor...">
<polygon fill="white" stroke="#666666" points="337.62,-82 205.38,-82 205.38,-50 337.62,-50 337.62,-82"/>
<text text-anchor="start" x="213.38" y="-68.5" font-family="Helvetica,sans-Serif" font-size="10.00">GEU::ProceduralGenerator</text>
<text text-anchor="middle" x="271.5" y="-56.5" font-family="Helvetica,sans-Serif" font-size="10.00">::subdivideCloud</text>
</a>
</g>
</g>
<!-- Node2&#45;&gt;Node13 -->
<g id="edge12_Node000002_Node000013" class="edge">
<title>Node2&#45;&gt;Node13</title>
<g id="a_edge12_Node000002_Node000013"><a xlink:title=" ">
<path fill="none" stroke="#63b8ff" d="M384.53,-221.16C383.75,-220.47 382.98,-219.75 382.25,-219 340.87,-176.81 386.92,-133.87 346.25,-91 343.18,-87.76 339.68,-84.95 335.9,-82.49"/>
<polygon fill="#63b8ff" stroke="#63b8ff" points="382.33,-223.89 392.56,-226.68 386.3,-218.13 382.33,-223.89"/>
</a>
</g>
</g>
<!-- Node14 -->
<g id="Node000014" class="node">
<title>Node14</title>
<g id="a_Node000014"><a xlink:href="../../dc/d01/class_g_e_u_1_1_image_cloud_proj.html#a9113b9f785ba6dd50b0af47a3a5a1ecb" target="_top" xlink:title=" ">
<polygon fill="white" stroke="#666666" points="327.12,-32 215.88,-32 215.88,0 327.12,0 327.12,-32"/>
<text text-anchor="start" x="223.88" y="-18.5" font-family="Helvetica,sans-Serif" font-size="10.00">GEU::ImageCloudProj</text>
<text text-anchor="middle" x="271.5" y="-6.5" font-family="Helvetica,sans-Serif" font-size="10.00">::validation</text>
</a>
</g>
</g>
<!-- Node2&#45;&gt;Node14 -->
<g id="edge13_Node000002_Node000014" class="edge">
<title>Node2&#45;&gt;Node14</title>
<g id="a_edge13_Node000002_Node000014"><a xlink:title=" ">
<path fill="none" stroke="#63b8ff" d="M384.08,-220.88C383.45,-220.27 382.84,-219.65 382.25,-219 327.92,-159.31 399.58,-101.59 346.25,-41 341.07,-35.11 334.45,-30.61 327.31,-27.17"/>
<polygon fill="#63b8ff" stroke="#63b8ff" points="381.89,-223.61 392.01,-226.72 386.04,-217.97 381.89,-223.61"/>
</a>
</g>
</g>
<!-- Node8 -->
<g id="Node000008" class="node">
<title>Node8</title>
<g id="a_Node000008"><a xlink:href="../../da/d01/class_g_e_u_1_1_inspector_window.html#a63b0402d61dd34944da9280a89fa9f74" target="_top" xlink:title="Renders the window and contents.">
<polygon fill="white" stroke="#666666" points="139,-276 21.75,-276 21.75,-244 139,-244 139,-276"/>
<text text-anchor="start" x="29.75" y="-262.5" font-family="Helvetica,sans-Serif" font-size="10.00">GEU::InspectorWindow</text>
<text text-anchor="middle" x="80.38" y="-250.5" font-family="Helvetica,sans-Serif" font-size="10.00">::renderWindow</text>
</a>
</g>
</g>
<!-- Node7&#45;&gt;Node8 -->
<g id="edge7_Node000007_Node000008" class="edge">
<title>Node7&#45;&gt;Node8</title>
<g id="a_edge7_Node000007_Node000008"><a xlink:title=" ">
<path fill="none" stroke="#63b8ff" d="M196.23,-260C177.31,-260 157.26,-260 139.29,-260"/>
<polygon fill="#63b8ff" stroke="#63b8ff" points="196.01,-263.5 206.01,-260 196.01,-256.5 196.01,-263.5"/>
</a>
</g>
</g>
<!-- Node12 -->
<g id="Node000012" class="node">
<title>Node12</title>
<g id="a_Node000012"><a xlink:href="../../d4/d07/class_normales_g_u_i_adapter.html#ad27c678722407ed6f3d2bb41ccc2b640" target="_top" xlink:title="Custom module GUI window contents.">
<polygon fill="white" stroke="#666666" points="134.12,-132 26.62,-132 26.62,-100 134.12,-100 134.12,-132"/>
<text text-anchor="start" x="34.62" y="-118.5" font-family="Helvetica,sans-Serif" font-size="10.00">NormalesGUIAdapter</text>
<text text-anchor="middle" x="80.38" y="-106.5" font-family="Helvetica,sans-Serif" font-size="10.00">::renderGuiObject</text>
</a>
</g>
</g>
<!-- Node11&#45;&gt;Node12 -->
<g id="edge11_Node000011_Node000012" class="edge">
<title>Node11&#45;&gt;Node12</title>
<g id="a_edge11_Node000011_Node000012"><a xlink:title=" ">
<path fill="none" stroke="#63b8ff" d="M206.11,-116C182.79,-116 156.73,-116 134.49,-116"/>
<polygon fill="#63b8ff" stroke="#63b8ff" points="205.8,-119.5 215.8,-116 205.8,-112.5 205.8,-119.5"/>
</a>
</g>
</g>
<!-- Node15 -->
<g id="Node000015" class="node">
<title>Node15</title>
<g id="a_Node000015"><a xlink:href="../../d5/d03/class_g_e_u_1_1_reconstruccion_g_u_i_adapter.html#a2918ca118794a47873dbc1df297d68d7" target="_top" xlink:title="Custom module GUI window contents.">
<polygon fill="white" stroke="#666666" points="160.75,-32 0,-32 0,0 160.75,0 160.75,-32"/>
<text text-anchor="start" x="8" y="-18.5" font-family="Helvetica,sans-Serif" font-size="10.00">GEU::ReconstruccionGUIAdapter</text>
<text text-anchor="middle" x="80.38" y="-6.5" font-family="Helvetica,sans-Serif" font-size="10.00">::renderGuiObject</text>
</a>
</g>
</g>
<!-- Node14&#45;&gt;Node15 -->
<g id="edge14_Node000014_Node000015" class="edge">
<title>Node14&#45;&gt;Node15</title>
<g id="a_edge14_Node000014_Node000015"><a xlink:title=" ">
<path fill="none" stroke="#63b8ff" d="M204.11,-16C190.21,-16 175.42,-16 161.09,-16"/>
<polygon fill="#63b8ff" stroke="#63b8ff" points="204.03,-19.5 214.03,-16 204.03,-12.5 204.03,-19.5"/>
</a>
</g>
</g>
</g>
</svg>
