<?xml version="1.0" encoding="UTF-8" standalone="no"?>
<!DOCTYPE svg PUBLIC "-//W3C//DTD SVG 1.1//EN"
 "http://www.w3.org/Graphics/SVG/1.1/DTD/svg11.dtd">
<!-- Generated by graphviz version 10.0.1 (20240210.2158)
 -->
<!-- Title: GEU::RimLight::applyLight Pages: 1 -->
<svg width="321pt" height="128pt"
 viewBox="0.00 0.00 321.25 128.00" xmlns="http://www.w3.org/2000/svg" xmlns:xlink="http://www.w3.org/1999/xlink">
<g id="graph0" class="graph" transform="scale(1 1) rotate(0) translate(4 124)">
<title>GEU::RimLight::applyLight</title>
<!-- Node1 -->
<g id="Node000001" class="node">
<title>Node1</title>
<g id="a_Node000001"><a xlink:title=" ">
<polygon fill="#999999" stroke="#666666" points="131.5,-64 0,-64 0,-44 131.5,-44 131.5,-64"/>
<text text-anchor="middle" x="65.75" y="-50.5" font-family="Helvetica,sans-Serif" font-size="10.00">GEU::RimLight::applyLight</text>
</a>
</g>
</g>
<!-- Node2 -->
<g id="Node000002" class="node">
<title>Node2</title>
<g id="a_Node000002"><a xlink:href="../../d5/d07/class_g_e_u_1_1_material.html#ac2969a9853653155f2fb81856a94456d" target="_top" xlink:title=" ">
<polygon fill="white" stroke="#666666" points="313.25,-120 167.5,-120 167.5,-88 313.25,-88 313.25,-120"/>
<text text-anchor="start" x="175.5" y="-106.5" font-family="Helvetica,sans-Serif" font-size="10.00">GEU::Material::getAssociated</text>
<text text-anchor="middle" x="240.38" y="-94.5" font-family="Helvetica,sans-Serif" font-size="10.00">Shader</text>
</a>
</g>
</g>
<!-- Node1&#45;&gt;Node2 -->
<g id="edge1_Node000001_Node000002" class="edge">
<title>Node1&#45;&gt;Node2</title>
<g id="a_edge1_Node000001_Node000002"><a xlink:title=" ">
<path fill="none" stroke="#63b8ff" d="M102.94,-64.48C122.82,-70.24 148.14,-77.58 171.56,-84.36"/>
<polygon fill="#63b8ff" stroke="#63b8ff" points="170.48,-87.69 181.05,-87.11 172.42,-80.96 170.48,-87.69"/>
</a>
</g>
</g>
<!-- Node3 -->
<g id="Node000003" class="node">
<title>Node3</title>
<g id="a_Node000003"><a xlink:href="../../d4/d01/class_g_e_u_1_1_light_properties.html#ae4a1fb24c8fac2681fbd78995f0c182b" target="_top" xlink:title=" ">
<polygon fill="white" stroke="#666666" points="294.5,-70 186.25,-70 186.25,-38 294.5,-38 294.5,-70"/>
<text text-anchor="start" x="194.25" y="-56.5" font-family="Helvetica,sans-Serif" font-size="10.00">GEU::LightProperties</text>
<text text-anchor="middle" x="240.38" y="-44.5" font-family="Helvetica,sans-Serif" font-size="10.00">::getIa</text>
</a>
</g>
</g>
<!-- Node1&#45;&gt;Node3 -->
<g id="edge2_Node000001_Node000003" class="edge">
<title>Node1&#45;&gt;Node3</title>
<g id="a_edge2_Node000001_Node000003"><a xlink:title=" ">
<path fill="none" stroke="#63b8ff" d="M131.52,-54C145.64,-54 160.57,-54 174.69,-54"/>
<polygon fill="#63b8ff" stroke="#63b8ff" points="174.28,-57.5 184.28,-54 174.28,-50.5 174.28,-57.5"/>
</a>
</g>
</g>
<!-- Node4 -->
<g id="Node000004" class="node">
<title>Node4</title>
<g id="a_Node000004"><a xlink:href="../../d5/d07/class_g_e_u_1_1_material.html#abb5aacb1ebce4d9a9c119ea122d921df" target="_top" xlink:title=" ">
<polygon fill="white" stroke="#666666" points="312.12,-20 168.62,-20 168.62,0 312.12,0 312.12,-20"/>
<text text-anchor="middle" x="240.38" y="-6.5" font-family="Helvetica,sans-Serif" font-size="10.00">GEU::Material::setSubroutine</text>
</a>
</g>
</g>
<!-- Node1&#45;&gt;Node4 -->
<g id="edge3_Node000001_Node000004" class="edge">
<title>Node1&#45;&gt;Node4</title>
<g id="a_edge3_Node000001_Node000004"><a xlink:title=" ">
<path fill="none" stroke="#63b8ff" d="M107.66,-43.57C131.54,-37.48 161.91,-29.74 187.47,-23.23"/>
<polygon fill="#63b8ff" stroke="#63b8ff" points="188.17,-26.66 196.99,-20.8 186.44,-19.88 188.17,-26.66"/>
</a>
</g>
</g>
</g>
</svg>
