<?xml version="1.0" encoding="UTF-8" standalone="no"?>
<!DOCTYPE svg PUBLIC "-//W3C//DTD SVG 1.1//EN"
 "http://www.w3.org/Graphics/SVG/1.1/DTD/svg11.dtd">
<!-- Generated by graphviz version 10.0.1 (20240210.2158)
 -->
<!-- Title: GEU::ThermalAugment::ThermalCameraParams Pages: 1 -->
<svg width="297pt" height="257pt"
 viewBox="0.00 0.00 296.50 257.00" xmlns="http://www.w3.org/2000/svg" xmlns:xlink="http://www.w3.org/1999/xlink">
<g id="graph0" class="graph" transform="scale(1 1) rotate(0) translate(4 253)">
<title>GEU::ThermalAugment::ThermalCameraParams</title>
<!-- Node1 -->
<g id="Node000001" class="node">
<title>Node1</title>
<g id="a_Node000001"><a xlink:title=" ">
<polygon fill="#999999" stroke="#666666" points="205,-32 81,-32 81,0 205,0 205,-32"/>
<text text-anchor="start" x="89" y="-18.5" font-family="Helvetica,sans-Serif" font-size="10.00">GEU::ThermalAugment</text>
<text text-anchor="middle" x="143" y="-6.5" font-family="Helvetica,sans-Serif" font-size="10.00">::ThermalCameraParams</text>
</a>
</g>
</g>
<!-- Node2 -->
<g id="Node000002" class="node">
<title>Node2</title>
<g id="a_Node000002"><a xlink:href="../../d2/d04/a01713.html" target="_top" xlink:title=" ">
<polygon fill="white" stroke="#666666" points="201.25,-112 84.75,-112 84.75,-80 201.25,-80 201.25,-112"/>
<text text-anchor="start" x="92.75" y="-98.5" font-family="Helvetica,sans-Serif" font-size="10.00">GEU::ThermalAugment</text>
<text text-anchor="middle" x="143" y="-86.5" font-family="Helvetica,sans-Serif" font-size="10.00">::ThermalImageParams</text>
</a>
</g>
</g>
<!-- Node2&#45;&gt;Node1 -->
<g id="edge1_Node000001_Node000002" class="edge">
<title>Node2&#45;&gt;Node1</title>
<g id="a_edge1_Node000001_Node000002"><a xlink:title=" ">
<path fill="none" stroke="#9a32cd" stroke-dasharray="5,2" d="M143,-68.37C143,-56.37 143,-42.63 143,-32.38"/>
<polygon fill="#9a32cd" stroke="#9a32cd" points="139.5,-68.08 143,-78.08 146.5,-68.08 139.5,-68.08"/>
</a>
</g>
<text text-anchor="middle" x="177.12" y="-52.5" font-family="Helvetica,sans-Serif" font-size="10.00" fill="grey"> _imageParams</text>
</g>
<!-- Node2&#45;&gt;Node2 -->
<g id="edge6_Node000002_Node000002" class="edge">
<title>Node2&#45;&gt;Node2</title>
<g id="a_edge6_Node000002_Node000002"><a xlink:title=" ">
<path fill="none" stroke="#9a32cd" stroke-dasharray="5,2" d="M212.73,-101.13C216.81,-99.9 219.25,-98.19 219.25,-96 219.25,-92.21 211.95,-89.86 201.5,-88.94"/>
<polygon fill="#9a32cd" stroke="#9a32cd" points="212.26,-97.66 203,-102.8 213.44,-104.56 212.26,-97.66"/>
</a>
</g>
<text text-anchor="middle" x="251.88" y="-92.5" font-family="Helvetica,sans-Serif" font-size="10.00" fill="grey"> _alignedImage</text>
</g>
<!-- Node3 -->
<g id="Node000003" class="node">
<title>Node3</title>
<g id="a_Node000003"><a xlink:title=" ">
<polygon fill="white" stroke="#666666" points="76.75,-180 17.25,-180 17.25,-160 76.75,-160 76.75,-180"/>
<text text-anchor="middle" x="47" y="-166.5" font-family="Helvetica,sans-Serif" font-size="10.00">std::string</text>
</a>
</g>
</g>
<!-- Node3&#45;&gt;Node2 -->
<g id="edge2_Node000002_Node000003" class="edge">
<title>Node3&#45;&gt;Node2</title>
<g id="a_edge2_Node000002_Node000003"><a xlink:title=" ">
<path fill="none" stroke="#9a32cd" stroke-dasharray="5,2" d="M59.46,-150.78C64.89,-143.71 71.7,-135.91 79,-130 87.36,-123.24 97.33,-117.3 106.88,-112.39"/>
<polygon fill="#9a32cd" stroke="#9a32cd" points="56.9,-148.35 53.86,-158.5 62.56,-152.46 56.9,-148.35"/>
</a>
</g>
<text text-anchor="middle" x="109" y="-132.5" font-family="Helvetica,sans-Serif" font-size="10.00" fill="grey"> _imageName</text>
</g>
<!-- Node4 -->
<g id="Node000004" class="node">
<title>Node4</title>
<g id="a_Node000004"><a xlink:title=" ">
<polygon fill="white" stroke="#666666" points="94,-249 0,-249 0,-217 94,-217 94,-249"/>
<text text-anchor="start" x="8" y="-235.5" font-family="Helvetica,sans-Serif" font-size="10.00">std::basic_string&lt;</text>
<text text-anchor="middle" x="47" y="-223.5" font-family="Helvetica,sans-Serif" font-size="10.00"> Char &gt;</text>
</a>
</g>
</g>
<!-- Node4&#45;&gt;Node3 -->
<g id="edge3_Node000003_Node000004" class="edge">
<title>Node4&#45;&gt;Node3</title>
<g id="a_edge3_Node000003_Node000004"><a xlink:title=" ">
<path fill="none" stroke="#63b8ff" d="M47,-205.36C47,-196.41 47,-187.01 47,-180.31"/>
<polygon fill="#63b8ff" stroke="#63b8ff" points="43.5,-205.09 47,-215.09 50.5,-205.09 43.5,-205.09"/>
</a>
</g>
</g>
<!-- Node5 -->
<g id="Node000005" class="node">
<title>Node5</title>
<g id="a_Node000005"><a xlink:title=" ">
<polygon fill="white" stroke="#666666" points="191.5,-180 94.5,-180 94.5,-160 191.5,-160 191.5,-180"/>
<text text-anchor="middle" x="143" y="-166.5" font-family="Helvetica,sans-Serif" font-size="10.00">std::vector&lt; float &gt;</text>
</a>
</g>
</g>
<!-- Node5&#45;&gt;Node2 -->
<g id="edge4_Node000002_Node000005" class="edge">
<title>Node5&#45;&gt;Node2</title>
<g id="a_edge4_Node000002_Node000005"><a xlink:title=" ">
<path fill="none" stroke="#9a32cd" stroke-dasharray="5,2" d="M143,-148.1C143,-136.71 143,-122.87 143,-112.47"/>
<polygon fill="#9a32cd" stroke="#9a32cd" points="139.5,-148.07 143,-158.07 146.5,-148.07 139.5,-148.07"/>
</a>
</g>
<text text-anchor="middle" x="173" y="-132.5" font-family="Helvetica,sans-Serif" font-size="10.00" fill="grey"> _temperature</text>
</g>
<!-- Node6 -->
<g id="Node000006" class="node">
<title>Node6</title>
<g id="a_Node000006"><a xlink:href="../../da/d06/a01941.html" target="_top" xlink:title=" ">
<polygon fill="white" stroke="#666666" points="288.5,-180 209.5,-180 209.5,-160 288.5,-160 288.5,-180"/>
<text text-anchor="middle" x="249" y="-166.5" font-family="Helvetica,sans-Serif" font-size="10.00">OpenCVImage</text>
</a>
</g>
</g>
<!-- Node6&#45;&gt;Node2 -->
<g id="edge5_Node000002_Node000006" class="edge">
<title>Node6&#45;&gt;Node2</title>
<g id="a_edge5_Node000002_Node000006"><a xlink:title=" ">
<path fill="none" stroke="#9a32cd" stroke-dasharray="5,2" d="M232.48,-151.69C225.08,-144.48 216.01,-136.33 207,-130 197.79,-123.53 187.15,-117.54 177.22,-112.48"/>
<polygon fill="#9a32cd" stroke="#9a32cd" points="229.69,-153.84 239.22,-158.48 234.66,-148.92 229.69,-153.84"/>
</a>
</g>
<text text-anchor="middle" x="245.75" y="-132.5" font-family="Helvetica,sans-Serif" font-size="10.00" fill="grey"> _rawImage</text>
</g>
</g>
</svg>
