<?xml version="1.0" encoding="UTF-8" standalone="no"?>
<!DOCTYPE svg PUBLIC "-//W3C//DTD SVG 1.1//EN"
 "http://www.w3.org/Graphics/SVG/1.1/DTD/svg11.dtd">
<!-- Generated by graphviz version 10.0.1 (20240210.2158)
 -->
<!-- Title: GEU::DatabaseNewVueloPopup Pages: 1 -->
<svg width="890pt" height="307pt"
 viewBox="0.00 0.00 890.25 307.00" xmlns="http://www.w3.org/2000/svg" xmlns:xlink="http://www.w3.org/1999/xlink">
<g id="graph0" class="graph" transform="scale(1 1) rotate(0) translate(4 303)">
<title>GEU::DatabaseNewVueloPopup</title>
<!-- Node1 -->
<g id="Node000001" class="node">
<title>Node1</title>
<g id="a_Node000001"><a xlink:title=" ">
<polygon fill="#999999" stroke="#666666" points="882.25,-162 726.75,-162 726.75,-142 882.25,-142 882.25,-162"/>
<text text-anchor="middle" x="804.5" y="-148.5" font-family="Helvetica,sans-Serif" font-size="10.00">GEU::DatabaseNewVueloPopup</text>
</a>
</g>
</g>
<!-- Node2 -->
<g id="Node000002" class="node">
<title>Node2</title>
<g id="a_Node000002"><a xlink:href="../../df/ddd/class_g_e_u_1_1_i___g_u_i_popup.html" target="_top" xlink:title="ImGUI popups interface adapter class.">
<polygon fill="white" stroke="#666666" points="503.75,-288 409,-288 409,-268 503.75,-268 503.75,-288"/>
<text text-anchor="middle" x="456.38" y="-274.5" font-family="Helvetica,sans-Serif" font-size="10.00">GEU::I_GUIPopup</text>
</a>
</g>
</g>
<!-- Node2&#45;&gt;Node1 -->
<g id="edge1_Node000001_Node000002" class="edge">
<title>Node2&#45;&gt;Node1</title>
<g id="a_edge1_Node000001_Node000002"><a xlink:title=" ">
<path fill="none" stroke="#63b8ff" d="M506.96,-264.51C558.2,-250.03 640.15,-225.4 708.75,-198 735.58,-187.28 765.38,-172.27 784.27,-162.35"/>
<polygon fill="#63b8ff" stroke="#63b8ff" points="506.02,-261.14 497.34,-267.21 507.91,-267.88 506.02,-261.14"/>
</a>
</g>
</g>
<!-- Node3 -->
<g id="Node000003" class="node">
<title>Node3</title>
<g id="a_Node000003"><a xlink:title=" ">
<polygon fill="white" stroke="#666666" points="190.5,-174 131,-174 131,-154 190.5,-154 190.5,-174"/>
<text text-anchor="middle" x="160.75" y="-160.5" font-family="Helvetica,sans-Serif" font-size="10.00">std::string</text>
</a>
</g>
</g>
<!-- Node3&#45;&gt;Node2 -->
<g id="edge2_Node000002_Node000003" class="edge">
<title>Node3&#45;&gt;Node2</title>
<g id="a_edge2_Node000002_Node000003"><a xlink:title=" ">
<path fill="none" stroke="#9a32cd" stroke-dasharray="5,2" d="M165.96,-185.33C171.57,-207.51 183.79,-241.28 208.5,-258 268.15,-298.37 355.43,-294.48 408.65,-286.96"/>
<polygon fill="#9a32cd" stroke="#9a32cd" points="169.44,-184.84 163.83,-175.86 162.61,-186.38 169.44,-184.84"/>
</a>
</g>
<text text-anchor="middle" x="248.62" y="-289.5" font-family="Helvetica,sans-Serif" font-size="10.00" fill="grey"> _popupID</text>
</g>
<!-- Node5 -->
<g id="Node000005" class="node">
<title>Node5</title>
<g id="a_Node000005"><a xlink:href="../../dd/d1f/struct_database_1_1_vuelo.html" target="_top" xlink:title=" ">
<polygon fill="white" stroke="#666666" points="500.38,-213 412.38,-213 412.38,-193 500.38,-193 500.38,-213"/>
<text text-anchor="middle" x="456.38" y="-199.5" font-family="Helvetica,sans-Serif" font-size="10.00">Database::Vuelo</text>
</a>
</g>
</g>
<!-- Node3&#45;&gt;Node5 -->
<g id="edge5_Node000005_Node000003" class="edge">
<title>Node3&#45;&gt;Node5</title>
<g id="a_edge5_Node000005_Node000003"><a xlink:title=" ">
<path fill="none" stroke="#9a32cd" stroke-dasharray="5,2" d="M202.24,-171.04C204.35,-171.37 206.45,-171.7 208.5,-172 279.64,-182.55 362.68,-192.49 412.04,-198.15"/>
<polygon fill="#9a32cd" stroke="#9a32cd" points="202.82,-167.59 192.39,-169.44 201.7,-174.5 202.82,-167.59"/>
</a>
</g>
<text text-anchor="middle" x="248.62" y="-244.5" font-family="Helvetica,sans-Serif" font-size="10.00" fill="grey"> SELECT_QUERY</text>
<text text-anchor="middle" x="248.62" y="-232.5" font-family="Helvetica,sans-Serif" font-size="10.00" fill="grey">emailPersonal</text>
<text text-anchor="middle" x="248.62" y="-220.5" font-family="Helvetica,sans-Serif" font-size="10.00" fill="grey">horaFin</text>
<text text-anchor="middle" x="248.62" y="-208.5" font-family="Helvetica,sans-Serif" font-size="10.00" fill="grey">horaInicio</text>
<text text-anchor="middle" x="248.62" y="-196.5" font-family="Helvetica,sans-Serif" font-size="10.00" fill="grey">incidencias</text>
<text text-anchor="middle" x="248.62" y="-184.5" font-family="Helvetica,sans-Serif" font-size="10.00" fill="grey">ubicacion</text>
</g>
<!-- Node6 -->
<g id="Node000006" class="node">
<title>Node6</title>
<g id="a_Node000006"><a xlink:href="../../da/d03/struct_database_1_1_zona.html" target="_top" xlink:title=" ">
<polygon fill="white" stroke="#666666" points="391,-145 306.75,-145 306.75,-125 391,-125 391,-145"/>
<text text-anchor="middle" x="348.88" y="-131.5" font-family="Helvetica,sans-Serif" font-size="10.00">Database::Zona</text>
</a>
</g>
</g>
<!-- Node3&#45;&gt;Node6 -->
<g id="edge7_Node000006_Node000003" class="edge">
<title>Node3&#45;&gt;Node6</title>
<g id="a_edge7_Node000006_Node000003"><a xlink:title=" ">
<path fill="none" stroke="#9a32cd" stroke-dasharray="5,2" d="M184.3,-147.21C191.64,-142.67 200.08,-138.36 208.5,-136 240.54,-127.02 278.37,-127.39 306.52,-129.67"/>
<polygon fill="#9a32cd" stroke="#9a32cd" points="182.38,-144.28 176.03,-152.76 186.28,-150.1 182.38,-144.28"/>
</a>
</g>
<text text-anchor="middle" x="248.62" y="-162.5" font-family="Helvetica,sans-Serif" font-size="10.00" fill="grey"> SELECT_QUERY</text>
<text text-anchor="middle" x="248.62" y="-150.5" font-family="Helvetica,sans-Serif" font-size="10.00" fill="grey">descripcion</text>
<text text-anchor="middle" x="248.62" y="-138.5" font-family="Helvetica,sans-Serif" font-size="10.00" fill="grey">ubicacion</text>
</g>
<!-- Node7 -->
<g id="Node000007" class="node">
<title>Node7</title>
<g id="a_Node000007"><a xlink:href="../../d5/df8/struct_database_1_1_dron.html" target="_top" xlink:title=" ">
<polygon fill="white" stroke="#666666" points="390.62,-62 307.12,-62 307.12,-42 390.62,-42 390.62,-62"/>
<text text-anchor="middle" x="348.88" y="-48.5" font-family="Helvetica,sans-Serif" font-size="10.00">Database::Dron</text>
</a>
</g>
</g>
<!-- Node3&#45;&gt;Node7 -->
<g id="edge9_Node000007_Node000003" class="edge">
<title>Node3&#45;&gt;Node7</title>
<g id="a_edge9_Node000007_Node000003"><a xlink:title=" ">
<path fill="none" stroke="#9a32cd" stroke-dasharray="5,2" d="M165.43,-142.67C170.66,-119.42 182.64,-83.12 208.5,-65 236.86,-45.12 276.83,-43.35 306.7,-45.68"/>
<polygon fill="#9a32cd" stroke="#9a32cd" points="162.04,-141.78 163.52,-152.27 168.9,-143.15 162.04,-141.78"/>
</a>
</g>
<text text-anchor="middle" x="248.62" y="-115.5" font-family="Helvetica,sans-Serif" font-size="10.00" fill="grey"> SELECT_QUERY</text>
<text text-anchor="middle" x="248.62" y="-103.5" font-family="Helvetica,sans-Serif" font-size="10.00" fill="grey">categoria</text>
<text text-anchor="middle" x="248.62" y="-91.5" font-family="Helvetica,sans-Serif" font-size="10.00" fill="grey">fabricante</text>
<text text-anchor="middle" x="248.62" y="-79.5" font-family="Helvetica,sans-Serif" font-size="10.00" fill="grey">modelo</text>
<text text-anchor="middle" x="248.62" y="-67.5" font-family="Helvetica,sans-Serif" font-size="10.00" fill="grey">registro</text>
</g>
<!-- Node4 -->
<g id="Node000004" class="node">
<title>Node4</title>
<g id="a_Node000004"><a xlink:title=" ">
<polygon fill="white" stroke="#666666" points="94,-180 0,-180 0,-148 94,-148 94,-180"/>
<text text-anchor="start" x="8" y="-166.5" font-family="Helvetica,sans-Serif" font-size="10.00">std::basic_string&lt;</text>
<text text-anchor="middle" x="47" y="-154.5" font-family="Helvetica,sans-Serif" font-size="10.00"> Char &gt;</text>
</a>
</g>
</g>
<!-- Node4&#45;&gt;Node3 -->
<g id="edge3_Node000003_Node000004" class="edge">
<title>Node4&#45;&gt;Node3</title>
<g id="a_edge3_Node000003_Node000004"><a xlink:title=" ">
<path fill="none" stroke="#63b8ff" d="M105.71,-164C114.32,-164 122.87,-164 130.55,-164"/>
<polygon fill="#63b8ff" stroke="#63b8ff" points="105.93,-160.5 95.93,-164 105.93,-167.5 105.93,-160.5"/>
</a>
</g>
</g>
<!-- Node5&#45;&gt;Node1 -->
<g id="edge4_Node000001_Node000005" class="edge">
<title>Node5&#45;&gt;Node1</title>
<g id="a_edge4_Node000001_Node000005"><a xlink:title=" ">
<path fill="none" stroke="#9a32cd" stroke-dasharray="5,2" d="M511.88,-201.09C563.09,-198.58 641.67,-192.85 708.75,-180 730.82,-175.77 755.11,-168.54 773.58,-162.48"/>
<polygon fill="#9a32cd" stroke="#9a32cd" points="511.77,-197.6 501.94,-201.56 512.09,-204.59 511.77,-197.6"/>
</a>
</g>
<text text-anchor="middle" x="577.38" y="-202.5" font-family="Helvetica,sans-Serif" font-size="10.00" fill="grey"> _vuelo</text>
</g>
<!-- Node6&#45;&gt;Node1 -->
<g id="edge6_Node000001_Node000006" class="edge">
<title>Node6&#45;&gt;Node1</title>
<g id="a_edge6_Node000001_Node000006"><a xlink:title=" ">
<path fill="none" stroke="#9a32cd" stroke-dasharray="5,2" d="M402.75,-145.26C404.86,-145.54 406.95,-145.79 409,-146 518.85,-157.51 646.83,-156.9 726.52,-154.87"/>
<polygon fill="#9a32cd" stroke="#9a32cd" points="403.32,-141.81 392.92,-143.81 402.3,-148.74 403.32,-141.81"/>
</a>
</g>
<text text-anchor="middle" x="577.38" y="-159.5" font-family="Helvetica,sans-Serif" font-size="10.00" fill="grey"> _zona</text>
</g>
<!-- Node8 -->
<g id="Node000008" class="node">
<title>Node8</title>
<g id="a_Node000008"><a xlink:title=" ">
<polygon fill="white" stroke="#666666" points="633,-130 521.75,-130 521.75,-98 633,-98 633,-130"/>
<text text-anchor="start" x="529.75" y="-116.5" font-family="Helvetica,sans-Serif" font-size="10.00">std::vector&lt; Database</text>
<text text-anchor="middle" x="577.38" y="-104.5" font-family="Helvetica,sans-Serif" font-size="10.00">::Zona &gt;</text>
</a>
</g>
</g>
<!-- Node6&#45;&gt;Node8 -->
<g id="edge11_Node000008_Node000006" class="edge">
<title>Node6&#45;&gt;Node8</title>
<g id="a_edge11_Node000008_Node000006"><a xlink:title=" ">
<path fill="none" stroke="#9a32cd" stroke-dasharray="5,2" d="M402.57,-130.11C438.25,-126.81 485.29,-122.45 521.43,-119.09"/>
<polygon fill="#9a32cd" stroke="#9a32cd" points="402.56,-126.6 392.93,-131.01 403.21,-133.57 402.56,-126.6"/>
</a>
</g>
<text text-anchor="middle" x="456.38" y="-132.5" font-family="Helvetica,sans-Serif" font-size="10.00" fill="grey"> elements</text>
</g>
<!-- Node7&#45;&gt;Node1 -->
<g id="edge8_Node000001_Node000007" class="edge">
<title>Node7&#45;&gt;Node1</title>
<g id="a_edge8_Node000001_Node000007"><a xlink:title=" ">
<path fill="none" stroke="#9a32cd" stroke-dasharray="5,2" d="M402.15,-54.58C471.68,-58.36 590.72,-66.15 633,-77 691.26,-91.95 754.87,-124.77 785.3,-141.6"/>
<polygon fill="#9a32cd" stroke="#9a32cd" points="402.71,-51.1 392.53,-54.06 402.33,-58.09 402.71,-51.1"/>
</a>
</g>
<text text-anchor="middle" x="577.38" y="-79.5" font-family="Helvetica,sans-Serif" font-size="10.00" fill="grey"> _dron</text>
</g>
<!-- Node9 -->
<g id="Node000009" class="node">
<title>Node9</title>
<g id="a_Node000009"><a xlink:title=" ">
<polygon fill="white" stroke="#666666" points="633,-32 521.75,-32 521.75,0 633,0 633,-32"/>
<text text-anchor="start" x="529.75" y="-18.5" font-family="Helvetica,sans-Serif" font-size="10.00">std::vector&lt; Database</text>
<text text-anchor="middle" x="577.38" y="-6.5" font-family="Helvetica,sans-Serif" font-size="10.00">::Dron &gt;</text>
</a>
</g>
</g>
<!-- Node7&#45;&gt;Node9 -->
<g id="edge13_Node000009_Node000007" class="edge">
<title>Node7&#45;&gt;Node9</title>
<g id="a_edge13_Node000009_Node000007"><a xlink:title=" ">
<path fill="none" stroke="#9a32cd" stroke-dasharray="5,2" d="M402.01,-43.14C404.37,-42.75 406.71,-42.37 409,-42 446.45,-35.93 488.65,-29.37 521.31,-24.36"/>
<polygon fill="#9a32cd" stroke="#9a32cd" points="401.68,-39.65 392.39,-44.74 402.82,-46.56 401.68,-39.65"/>
</a>
</g>
<text text-anchor="middle" x="456.38" y="-44.5" font-family="Helvetica,sans-Serif" font-size="10.00" fill="grey"> elements</text>
</g>
<!-- Node8&#45;&gt;Node1 -->
<g id="edge10_Node000001_Node000008" class="edge">
<title>Node8&#45;&gt;Node1</title>
<g id="a_edge10_Node000001_Node000008"><a xlink:title=" ">
<path fill="none" stroke="#9a32cd" stroke-dasharray="5,2" d="M644.46,-125.16C675.11,-130.33 711.33,-136.44 741.45,-141.53"/>
<polygon fill="#9a32cd" stroke="#9a32cd" points="645.38,-121.76 634.94,-123.55 644.22,-128.66 645.38,-121.76"/>
</a>
</g>
<text text-anchor="middle" x="679.88" y="-138.5" font-family="Helvetica,sans-Serif" font-size="10.00" fill="grey"> _availZonas</text>
</g>
<!-- Node9&#45;&gt;Node1 -->
<g id="edge12_Node000001_Node000009" class="edge">
<title>Node9&#45;&gt;Node1</title>
<g id="a_edge12_Node000001_Node000009"><a xlink:title=" ">
<path fill="none" stroke="#9a32cd" stroke-dasharray="5,2" d="M644.35,-20.56C665.98,-24.24 689.4,-30.71 708.75,-42 752.07,-67.28 785.29,-119.73 797.94,-141.83"/>
<polygon fill="#9a32cd" stroke="#9a32cd" points="645.15,-17.14 634.74,-19.11 644.1,-24.06 645.15,-17.14"/>
</a>
</g>
<text text-anchor="middle" x="679.88" y="-44.5" font-family="Helvetica,sans-Serif" font-size="10.00" fill="grey"> _availDrones</text>
</g>
</g>
</svg>
