<?xml version="1.0" encoding="UTF-8" standalone="no"?>
<!DOCTYPE svg PUBLIC "-//W3C//DTD SVG 1.1//EN"
 "http://www.w3.org/Graphics/SVG/1.1/DTD/svg11.dtd">
<!-- Generated by graphviz version 10.0.1 (20240210.2158)
 -->
<!-- Title: GEU::GuiUtilities::calcSingleRowTableHeight Pages: 1 -->
<svg width="457pt" height="390pt"
 viewBox="0.00 0.00 457.25 390.00" xmlns="http://www.w3.org/2000/svg" xmlns:xlink="http://www.w3.org/1999/xlink">
<g id="graph0" class="graph" transform="scale(1 1) rotate(0) translate(4 386)">
<title>GEU::GuiUtilities::calcSingleRowTableHeight</title>
<!-- Node1 -->
<g id="Node000001" class="node">
<title>Node1</title>
<g id="a_Node000001"><a xlink:title=" ">
<polygon fill="#999999" stroke="#666666" points="449.25,-207 318.5,-207 318.5,-175 449.25,-175 449.25,-207"/>
<text text-anchor="start" x="326.5" y="-193.5" font-family="Helvetica,sans-Serif" font-size="10.00">GEU::GuiUtilities::</text>
<text text-anchor="middle" x="383.88" y="-181.5" font-family="Helvetica,sans-Serif" font-size="10.00">calcSingleRowTableHeight</text>
</a>
</g>
</g>
<!-- Node2 -->
<g id="Node000002" class="node">
<title>Node2</title>
<g id="a_Node000002"><a xlink:href="../../de/d07/a00550.html#aa728619e93d9746bc29510e5bf62aafc" target="_top" xlink:title=" ">
<polygon fill="white" stroke="#666666" points="276.5,-381 180.25,-381 180.25,-349 276.5,-349 276.5,-381"/>
<text text-anchor="start" x="188.25" y="-367.5" font-family="Helvetica,sans-Serif" font-size="10.00">GEU::GuiUtilities::</text>
<text text-anchor="middle" x="228.38" y="-355.5" font-family="Helvetica,sans-Serif" font-size="10.00">beginCamaraTable</text>
</a>
</g>
</g>
<!-- Node1&#45;&gt;Node2 -->
<g id="edge1_Node000001_Node000002" class="edge">
<title>Node1&#45;&gt;Node2</title>
<g id="a_edge1_Node000001_Node000002"><a xlink:title=" ">
<path fill="none" stroke="#63b8ff" d="M370.59,-217.54C354.39,-250.08 323.13,-305.16 282.5,-340 278.79,-343.19 274.6,-346.05 270.24,-348.62"/>
<polygon fill="#63b8ff" stroke="#63b8ff" points="373.61,-219.32 374.83,-208.8 367.32,-216.27 373.61,-219.32"/>
</a>
</g>
</g>
<!-- Node4 -->
<g id="Node000004" class="node">
<title>Node4</title>
<g id="a_Node000004"><a xlink:href="../../de/d07/a00550.html#adaabda63297ba1a7732d1dfdb993fdb2" target="_top" xlink:title=" ">
<polygon fill="white" stroke="#666666" points="282.5,-331 174.25,-331 174.25,-299 282.5,-299 282.5,-331"/>
<text text-anchor="start" x="182.25" y="-317.5" font-family="Helvetica,sans-Serif" font-size="10.00">GEU::GuiUtilities::</text>
<text text-anchor="middle" x="228.38" y="-305.5" font-family="Helvetica,sans-Serif" font-size="10.00">beginDatoCrudoTable</text>
</a>
</g>
</g>
<!-- Node1&#45;&gt;Node4 -->
<g id="edge3_Node000001_Node000004" class="edge">
<title>Node1&#45;&gt;Node4</title>
<g id="a_edge3_Node000001_Node000004"><a xlink:title=" ">
<path fill="none" stroke="#63b8ff" d="M361.71,-215.71C342.56,-237.01 312.8,-267.63 282.5,-289 277.63,-292.43 272.24,-295.64 266.82,-298.56"/>
<polygon fill="#63b8ff" stroke="#63b8ff" points="364.23,-218.15 368.23,-208.34 358.99,-213.51 364.23,-218.15"/>
</a>
</g>
</g>
<!-- Node6 -->
<g id="Node000006" class="node">
<title>Node6</title>
<g id="a_Node000006"><a xlink:href="../../de/d07/a00550.html#a606d575ab734f2d72d1201131ab573ea" target="_top" xlink:title=" ">
<polygon fill="white" stroke="#666666" points="276.5,-280 180.25,-280 180.25,-248 276.5,-248 276.5,-280"/>
<text text-anchor="start" x="188.25" y="-266.5" font-family="Helvetica,sans-Serif" font-size="10.00">GEU::GuiUtilities::</text>
<text text-anchor="middle" x="228.38" y="-254.5" font-family="Helvetica,sans-Serif" font-size="10.00">beginDronTable</text>
</a>
</g>
</g>
<!-- Node1&#45;&gt;Node6 -->
<g id="edge5_Node000001_Node000006" class="edge">
<title>Node1&#45;&gt;Node6</title>
<g id="a_edge5_Node000001_Node000006"><a xlink:title=" ">
<path fill="none" stroke="#63b8ff" d="M338.28,-212.21C314.61,-223.47 285.95,-237.1 263.97,-247.55"/>
<polygon fill="#63b8ff" stroke="#63b8ff" points="339.53,-215.49 347.06,-208.03 336.53,-209.17 339.53,-215.49"/>
</a>
</g>
</g>
<!-- Node8 -->
<g id="Node000008" class="node">
<title>Node8</title>
<g id="a_Node000008"><a xlink:href="../../de/d07/a00550.html#a1436d6c72a6d1e80016fb9b66dbcc6a9" target="_top" xlink:title=" ">
<polygon fill="white" stroke="#666666" points="276.5,-229 180.25,-229 180.25,-197 276.5,-197 276.5,-229"/>
<text text-anchor="start" x="188.25" y="-215.5" font-family="Helvetica,sans-Serif" font-size="10.00">GEU::GuiUtilities::</text>
<text text-anchor="middle" x="228.38" y="-203.5" font-family="Helvetica,sans-Serif" font-size="10.00">beginFincaTable</text>
</a>
</g>
</g>
<!-- Node1&#45;&gt;Node8 -->
<g id="edge7_Node000001_Node000008" class="edge">
<title>Node1&#45;&gt;Node8</title>
<g id="a_edge7_Node000001_Node000008"><a xlink:title=" ">
<path fill="none" stroke="#63b8ff" d="M307.04,-201.87C296.7,-203.35 286.33,-204.84 276.7,-206.22"/>
<polygon fill="#63b8ff" stroke="#63b8ff" points="307.32,-205.36 316.72,-200.48 306.33,-198.44 307.32,-205.36"/>
</a>
</g>
</g>
<!-- Node10 -->
<g id="Node000010" class="node">
<title>Node10</title>
<g id="a_Node000010"><a xlink:href="../../db/d00/a01757.html#afc8c81955f8b810c699753b511f61031" target="_top" xlink:title=" ">
<polygon fill="white" stroke="#666666" points="138.25,-182 0,-182 0,-150 138.25,-150 138.25,-182"/>
<text text-anchor="start" x="8" y="-168.5" font-family="Helvetica,sans-Serif" font-size="10.00">GEU::DatabaseQueryPopup</text>
<text text-anchor="middle" x="69.12" y="-156.5" font-family="Helvetica,sans-Serif" font-size="10.00">::makeZonaSelectorTable</text>
</a>
</g>
</g>
<!-- Node1&#45;&gt;Node10 -->
<g id="edge17_Node000001_Node000010" class="edge">
<title>Node1&#45;&gt;Node10</title>
<g id="a_edge17_Node000001_Node000010"><a xlink:title=" ">
<path fill="none" stroke="#63b8ff" d="M306.71,-184.91C255.4,-180.81 188.27,-175.44 138.64,-171.48"/>
<polygon fill="#63b8ff" stroke="#63b8ff" points="306.32,-188.39 316.56,-185.7 306.87,-181.41 306.32,-188.39"/>
</a>
</g>
</g>
<!-- Node11 -->
<g id="Node000011" class="node">
<title>Node11</title>
<g id="a_Node000011"><a xlink:href="../../de/d07/a00550.html#ac0187be321f650504edbbbae30a0c494" target="_top" xlink:title=" ">
<polygon fill="white" stroke="#666666" points="276.5,-88 180.25,-88 180.25,-56 276.5,-56 276.5,-88"/>
<text text-anchor="start" x="188.25" y="-74.5" font-family="Helvetica,sans-Serif" font-size="10.00">GEU::GuiUtilities::</text>
<text text-anchor="middle" x="228.38" y="-62.5" font-family="Helvetica,sans-Serif" font-size="10.00">beginObjetoTable</text>
</a>
</g>
</g>
<!-- Node1&#45;&gt;Node11 -->
<g id="edge10_Node000001_Node000011" class="edge">
<title>Node1&#45;&gt;Node11</title>
<g id="a_edge10_Node000001_Node000011"><a xlink:title=" ">
<path fill="none" stroke="#63b8ff" d="M359.27,-166.43C339.8,-146.97 310.87,-119.86 282.5,-100 276.61,-95.87 270.03,-91.94 263.57,-88.39"/>
<polygon fill="#63b8ff" stroke="#63b8ff" points="356.68,-168.78 366.2,-173.44 361.66,-163.86 356.68,-168.78"/>
</a>
</g>
</g>
<!-- Node13 -->
<g id="Node000013" class="node">
<title>Node13</title>
<g id="a_Node000013"><a xlink:href="../../de/d07/a00550.html#a4e7254757ec1b7d3351c926d79fd03e2" target="_top" xlink:title=" ">
<polygon fill="white" stroke="#666666" points="276.5,-37 180.25,-37 180.25,-5 276.5,-5 276.5,-37"/>
<text text-anchor="start" x="188.25" y="-23.5" font-family="Helvetica,sans-Serif" font-size="10.00">GEU::GuiUtilities::</text>
<text text-anchor="middle" x="228.38" y="-11.5" font-family="Helvetica,sans-Serif" font-size="10.00">beginVueloTable</text>
</a>
</g>
</g>
<!-- Node1&#45;&gt;Node13 -->
<g id="edge12_Node000001_Node000013" class="edge">
<title>Node1&#45;&gt;Node13</title>
<g id="a_edge12_Node000001_Node000013"><a xlink:title=" ">
<path fill="none" stroke="#63b8ff" d="M369.81,-164.56C353.18,-133.13 321.83,-80.71 282.5,-47 278.37,-43.46 273.67,-40.27 268.82,-37.44"/>
<polygon fill="#63b8ff" stroke="#63b8ff" points="366.67,-166.11 374.37,-173.39 372.89,-162.9 366.67,-166.11"/>
</a>
</g>
</g>
<!-- Node15 -->
<g id="Node000015" class="node">
<title>Node15</title>
<g id="a_Node000015"><a xlink:href="../../de/d07/a00550.html#a2dd1eeaa62f943136289f104f6898fac" target="_top" xlink:title=" ">
<polygon fill="white" stroke="#666666" points="276.5,-141 180.25,-141 180.25,-109 276.5,-109 276.5,-141"/>
<text text-anchor="start" x="188.25" y="-127.5" font-family="Helvetica,sans-Serif" font-size="10.00">GEU::GuiUtilities::</text>
<text text-anchor="middle" x="228.38" y="-115.5" font-family="Helvetica,sans-Serif" font-size="10.00">beginZonaTable</text>
</a>
</g>
</g>
<!-- Node1&#45;&gt;Node15 -->
<g id="edge14_Node000001_Node000015" class="edge">
<title>Node1&#45;&gt;Node15</title>
<g id="a_edge14_Node000001_Node000015"><a xlink:title=" ">
<path fill="none" stroke="#63b8ff" d="M333.97,-169.97C312.46,-160.72 287.59,-150.03 267.49,-141.39"/>
<polygon fill="#63b8ff" stroke="#63b8ff" points="332.58,-173.18 343.15,-173.92 335.34,-166.75 332.58,-173.18"/>
</a>
</g>
</g>
<!-- Node3 -->
<g id="Node000003" class="node">
<title>Node3</title>
<g id="a_Node000003"><a xlink:href="../../db/d00/a01757.html#adb90287e5ae55991c17a08e912aff67c" target="_top" xlink:title=" ">
<polygon fill="white" stroke="#666666" points="138.25,-382 0,-382 0,-350 138.25,-350 138.25,-382"/>
<text text-anchor="start" x="8" y="-368.5" font-family="Helvetica,sans-Serif" font-size="10.00">GEU::DatabaseQueryPopup</text>
<text text-anchor="middle" x="69.12" y="-356.5" font-family="Helvetica,sans-Serif" font-size="10.00">::makeFormCamara</text>
</a>
</g>
</g>
<!-- Node2&#45;&gt;Node3 -->
<g id="edge2_Node000002_Node000003" class="edge">
<title>Node2&#45;&gt;Node3</title>
<g id="a_edge2_Node000002_Node000003"><a xlink:title=" ">
<path fill="none" stroke="#63b8ff" d="M168.27,-365.38C158.63,-365.44 148.58,-365.5 138.74,-365.56"/>
<polygon fill="#63b8ff" stroke="#63b8ff" points="168.28,-368.88 178.25,-365.31 168.23,-361.88 168.28,-368.88"/>
</a>
</g>
</g>
<!-- Node5 -->
<g id="Node000005" class="node">
<title>Node5</title>
<g id="a_Node000005"><a xlink:href="../../db/d00/a01757.html#a83023007463bdd6e6a4b40c55146b825" target="_top" xlink:title=" ">
<polygon fill="white" stroke="#666666" points="138.25,-332 0,-332 0,-300 138.25,-300 138.25,-332"/>
<text text-anchor="start" x="8" y="-318.5" font-family="Helvetica,sans-Serif" font-size="10.00">GEU::DatabaseQueryPopup</text>
<text text-anchor="middle" x="69.12" y="-306.5" font-family="Helvetica,sans-Serif" font-size="10.00">::makeFormDatoCrudo</text>
</a>
</g>
</g>
<!-- Node4&#45;&gt;Node5 -->
<g id="edge4_Node000004_Node000005" class="edge">
<title>Node4&#45;&gt;Node5</title>
<g id="a_edge4_Node000004_Node000005"><a xlink:title=" ">
<path fill="none" stroke="#63b8ff" d="M162.69,-315.41C154.76,-315.46 146.63,-315.51 138.64,-315.56"/>
<polygon fill="#63b8ff" stroke="#63b8ff" points="162.65,-318.91 172.62,-315.35 162.6,-311.91 162.65,-318.91"/>
</a>
</g>
</g>
<!-- Node7 -->
<g id="Node000007" class="node">
<title>Node7</title>
<g id="a_Node000007"><a xlink:href="../../db/d00/a01757.html#a1946c8c9ce8e263ceda1d7cc6da23e9e" target="_top" xlink:title=" ">
<polygon fill="white" stroke="#666666" points="138.25,-282 0,-282 0,-250 138.25,-250 138.25,-282"/>
<text text-anchor="start" x="8" y="-268.5" font-family="Helvetica,sans-Serif" font-size="10.00">GEU::DatabaseQueryPopup</text>
<text text-anchor="middle" x="69.12" y="-256.5" font-family="Helvetica,sans-Serif" font-size="10.00">::makeFormDron</text>
</a>
</g>
</g>
<!-- Node6&#45;&gt;Node7 -->
<g id="edge6_Node000006_Node000007" class="edge">
<title>Node6&#45;&gt;Node7</title>
<g id="a_edge6_Node000006_Node000007"><a xlink:title=" ">
<path fill="none" stroke="#63b8ff" d="M168.27,-264.75C158.63,-264.87 148.58,-265 138.74,-265.13"/>
<polygon fill="#63b8ff" stroke="#63b8ff" points="168.3,-268.25 178.25,-264.62 168.21,-261.25 168.3,-268.25"/>
</a>
</g>
</g>
<!-- Node9 -->
<g id="Node000009" class="node">
<title>Node9</title>
<g id="a_Node000009"><a xlink:href="../../db/d00/a01757.html#a7e928a635f870efcaf7dc0826c039858" target="_top" xlink:title=" ">
<polygon fill="white" stroke="#666666" points="138.25,-232 0,-232 0,-200 138.25,-200 138.25,-232"/>
<text text-anchor="start" x="8" y="-218.5" font-family="Helvetica,sans-Serif" font-size="10.00">GEU::DatabaseQueryPopup</text>
<text text-anchor="middle" x="69.12" y="-206.5" font-family="Helvetica,sans-Serif" font-size="10.00">::makeFormFinca</text>
</a>
</g>
</g>
<!-- Node8&#45;&gt;Node9 -->
<g id="edge8_Node000008_Node000009" class="edge">
<title>Node8&#45;&gt;Node9</title>
<g id="a_edge8_Node000008_Node000009"><a xlink:title=" ">
<path fill="none" stroke="#63b8ff" d="M168.27,-214.13C158.63,-214.31 148.58,-214.5 138.74,-214.69"/>
<polygon fill="#63b8ff" stroke="#63b8ff" points="168.32,-217.63 178.25,-213.94 168.19,-210.63 168.32,-217.63"/>
</a>
</g>
</g>
<!-- Node8&#45;&gt;Node10 -->
<g id="edge9_Node000008_Node000010" class="edge">
<title>Node8&#45;&gt;Node10</title>
<g id="a_edge9_Node000008_Node000010"><a xlink:title=" ">
<path fill="none" stroke="#63b8ff" d="M169.05,-195.57C154.73,-191.29 139.46,-186.72 125.3,-182.49"/>
<polygon fill="#63b8ff" stroke="#63b8ff" points="167.73,-198.83 178.32,-198.34 169.74,-192.12 167.73,-198.83"/>
</a>
</g>
</g>
<!-- Node12 -->
<g id="Node000012" class="node">
<title>Node12</title>
<g id="a_Node000012"><a xlink:href="../../db/d00/a01757.html#aee96f5bdc802183d992461ccf7af7606" target="_top" xlink:title=" ">
<polygon fill="white" stroke="#666666" points="138.25,-82 0,-82 0,-50 138.25,-50 138.25,-82"/>
<text text-anchor="start" x="8" y="-68.5" font-family="Helvetica,sans-Serif" font-size="10.00">GEU::DatabaseQueryPopup</text>
<text text-anchor="middle" x="69.12" y="-56.5" font-family="Helvetica,sans-Serif" font-size="10.00">::makeFormObjeto</text>
</a>
</g>
</g>
<!-- Node11&#45;&gt;Node12 -->
<g id="edge11_Node000011_Node000012" class="edge">
<title>Node11&#45;&gt;Node12</title>
<g id="a_edge11_Node000011_Node000012"><a xlink:title=" ">
<path fill="none" stroke="#63b8ff" d="M168.27,-69.74C158.63,-69.38 148.58,-68.99 138.74,-68.62"/>
<polygon fill="#63b8ff" stroke="#63b8ff" points="168.13,-73.24 178.26,-70.13 168.4,-66.25 168.13,-73.24"/>
</a>
</g>
</g>
<!-- Node14 -->
<g id="Node000014" class="node">
<title>Node14</title>
<g id="a_Node000014"><a xlink:href="../../db/d00/a01757.html#a6799cf756f5e2cb191268e786a8df4ba" target="_top" xlink:title=" ">
<polygon fill="white" stroke="#666666" points="138.25,-32 0,-32 0,0 138.25,0 138.25,-32"/>
<text text-anchor="start" x="8" y="-18.5" font-family="Helvetica,sans-Serif" font-size="10.00">GEU::DatabaseQueryPopup</text>
<text text-anchor="middle" x="69.12" y="-6.5" font-family="Helvetica,sans-Serif" font-size="10.00">::makeFormVuelos</text>
</a>
</g>
</g>
<!-- Node13&#45;&gt;Node14 -->
<g id="edge13_Node000013_Node000014" class="edge">
<title>Node13&#45;&gt;Node14</title>
<g id="a_edge13_Node000013_Node000014"><a xlink:title=" ">
<path fill="none" stroke="#63b8ff" d="M168.27,-19.12C158.63,-18.81 148.58,-18.49 138.74,-18.18"/>
<polygon fill="#63b8ff" stroke="#63b8ff" points="168.15,-22.62 178.26,-19.44 168.37,-15.62 168.15,-22.62"/>
</a>
</g>
</g>
<!-- Node15&#45;&gt;Node10 -->
<g id="edge16_Node000015_Node000010" class="edge">
<title>Node15&#45;&gt;Node10</title>
<g id="a_edge16_Node000015_Node000010"><a xlink:title=" ">
<path fill="none" stroke="#63b8ff" d="M168.86,-140.26C157.25,-143.28 145.01,-146.47 133.25,-149.54"/>
<polygon fill="#63b8ff" stroke="#63b8ff" points="169.51,-143.7 178.3,-137.79 167.74,-136.93 169.51,-143.7"/>
</a>
</g>
</g>
<!-- Node16 -->
<g id="Node000016" class="node">
<title>Node16</title>
<g id="a_Node000016"><a xlink:href="../../db/d00/a01757.html#ad5e45356898c5dfc51d7ef890f7a5b41" target="_top" xlink:title=" ">
<polygon fill="white" stroke="#666666" points="138.25,-132 0,-132 0,-100 138.25,-100 138.25,-132"/>
<text text-anchor="start" x="8" y="-118.5" font-family="Helvetica,sans-Serif" font-size="10.00">GEU::DatabaseQueryPopup</text>
<text text-anchor="middle" x="69.12" y="-106.5" font-family="Helvetica,sans-Serif" font-size="10.00">::makeFormZona</text>
</a>
</g>
</g>
<!-- Node15&#45;&gt;Node16 -->
<g id="edge15_Node000015_Node000016" class="edge">
<title>Node15&#45;&gt;Node16</title>
<g id="a_edge15_Node000015_Node000016"><a xlink:title=" ">
<path fill="none" stroke="#63b8ff" d="M168.58,-121.64C158.85,-121.08 148.69,-120.5 138.74,-119.93"/>
<polygon fill="#63b8ff" stroke="#63b8ff" points="168.07,-125.11 178.26,-122.19 168.47,-118.12 168.07,-125.11"/>
</a>
</g>
</g>
</g>
</svg>
