<?xml version="1.0" encoding="UTF-8" standalone="no"?>
<!DOCTYPE svg PUBLIC "-//W3C//DTD SVG 1.1//EN"
 "http://www.w3.org/Graphics/SVG/1.1/DTD/svg11.dtd">
<!-- Generated by graphviz version 10.0.1 (20240210.2158)
 -->
<!-- Title: GEU::GuiUtilities::BeginTableVuelo Pages: 1 -->
<svg width="298pt" height="90pt"
 viewBox="0.00 0.00 298.00 90.00" xmlns="http://www.w3.org/2000/svg" xmlns:xlink="http://www.w3.org/1999/xlink">
<g id="graph0" class="graph" transform="scale(1 1) rotate(0) translate(4 86)">
<title>GEU::GuiUtilities::BeginTableVuelo</title>
<!-- Node1 -->
<g id="Node000001" class="node">
<title>Node1</title>
<g id="a_Node000001"><a xlink:title=" ">
<polygon fill="#999999" stroke="#666666" points="290,-57 193.75,-57 193.75,-25 290,-25 290,-57"/>
<text text-anchor="start" x="201.75" y="-43.5" font-family="Helvetica,sans-Serif" font-size="10.00">GEU::GuiUtilities::</text>
<text text-anchor="middle" x="241.88" y="-31.5" font-family="Helvetica,sans-Serif" font-size="10.00">BeginTableVuelo</text>
</a>
</g>
</g>
<!-- Node2 -->
<g id="Node000002" class="node">
<title>Node2</title>
<g id="a_Node000002"><a xlink:href="../../d6/d02/a01753.html#ac1b98a11d860c6c9fe497bdcaa689d79" target="_top" xlink:title="Renders the popup and its contents.">
<polygon fill="white" stroke="#666666" points="156.62,-82 1.12,-82 1.12,-50 156.62,-50 156.62,-82"/>
<text text-anchor="start" x="9.12" y="-68.5" font-family="Helvetica,sans-Serif" font-size="10.00">GEU::DatabaseNewVueloPopup</text>
<text text-anchor="middle" x="78.88" y="-56.5" font-family="Helvetica,sans-Serif" font-size="10.00">::renderPopup</text>
</a>
</g>
</g>
<!-- Node1&#45;&gt;Node2 -->
<g id="edge1_Node000001_Node000002" class="edge">
<title>Node1&#45;&gt;Node2</title>
<g id="a_edge1_Node000001_Node000002"><a xlink:title=" ">
<path fill="none" stroke="#63b8ff" d="M182.09,-50.13C173.88,-51.4 165.35,-52.73 156.87,-54.04"/>
<polygon fill="#63b8ff" stroke="#63b8ff" points="182.6,-53.59 191.94,-48.6 181.53,-46.67 182.6,-53.59"/>
</a>
</g>
</g>
<!-- Node3 -->
<g id="Node000003" class="node">
<title>Node3</title>
<g id="a_Node000003"><a xlink:href="../../d0/d00/a01745.html#ae07f0a25c9ecb584624ce7bf67bc48cb" target="_top" xlink:title="Renders the window and contents.">
<polygon fill="white" stroke="#666666" points="157.75,-32 0,-32 0,0 157.75,0 157.75,-32"/>
<text text-anchor="start" x="8" y="-18.5" font-family="Helvetica,sans-Serif" font-size="10.00">GEU::DatabaseNewDatoWindow</text>
<text text-anchor="middle" x="78.88" y="-6.5" font-family="Helvetica,sans-Serif" font-size="10.00">::renderWindow</text>
</a>
</g>
</g>
<!-- Node1&#45;&gt;Node3 -->
<g id="edge2_Node000001_Node000003" class="edge">
<title>Node1&#45;&gt;Node3</title>
<g id="a_edge2_Node000001_Node000003"><a xlink:title=" ">
<path fill="none" stroke="#63b8ff" d="M182.19,-31.89C174.34,-30.67 166.19,-29.4 158.08,-28.14"/>
<polygon fill="#63b8ff" stroke="#63b8ff" points="181.53,-35.33 191.94,-33.4 182.6,-28.41 181.53,-35.33"/>
</a>
</g>
</g>
</g>
</svg>
