<?xml version="1.0" encoding="UTF-8" standalone="no"?>
<!DOCTYPE svg PUBLIC "-//W3C//DTD SVG 1.1//EN"
 "http://www.w3.org/Graphics/SVG/1.1/DTD/svg11.dtd">
<!-- Generated by graphviz version 10.0.1 (20240210.2158)
 -->
<!-- Title: GEU::GuiUtilities::BeginCombo Pages: 1 -->
<svg width="442pt" height="290pt"
 viewBox="0.00 0.00 441.50 290.00" xmlns="http://www.w3.org/2000/svg" xmlns:xlink="http://www.w3.org/1999/xlink">
<g id="graph0" class="graph" transform="scale(1 1) rotate(0) translate(4 286)">
<title>GEU::GuiUtilities::BeginCombo</title>
<!-- Node1 -->
<g id="Node000001" class="node">
<title>Node1</title>
<g id="a_Node000001"><a xlink:title=" ">
<polygon fill="#999999" stroke="#666666" points="433.5,-157 337.25,-157 337.25,-125 433.5,-125 433.5,-157"/>
<text text-anchor="start" x="345.25" y="-143.5" font-family="Helvetica,sans-Serif" font-size="10.00">GEU::GuiUtilities::</text>
<text text-anchor="middle" x="385.38" y="-131.5" font-family="Helvetica,sans-Serif" font-size="10.00">BeginCombo</text>
</a>
</g>
</g>
<!-- Node2 -->
<g id="Node000002" class="node">
<title>Node2</title>
<g id="a_Node000002"><a xlink:href="../../df/d03/a01765.html#a241455ad0e5a659831aa86d3182b9551" target="_top" xlink:title="Renders inspector details for camera items.">
<polygon fill="white" stroke="#666666" points="291.5,-282 153.25,-282 153.25,-250 291.5,-250 291.5,-282"/>
<text text-anchor="start" x="161.25" y="-268.5" font-family="Helvetica,sans-Serif" font-size="10.00">GEU::DetailsWindow</text>
<text text-anchor="middle" x="222.38" y="-256.5" font-family="Helvetica,sans-Serif" font-size="10.00">::makeCameraItemInspector</text>
</a>
</g>
</g>
<!-- Node1&#45;&gt;Node2 -->
<g id="edge1_Node000001_Node000002" class="edge">
<title>Node1&#45;&gt;Node2</title>
<g id="a_edge1_Node000001_Node000002"><a xlink:title=" ">
<path fill="none" stroke="#63b8ff" d="M368.88,-166.93C354.13,-189.52 329.97,-221.61 301.25,-241 296.43,-244.26 291.15,-247.11 285.69,-249.61"/>
<polygon fill="#63b8ff" stroke="#63b8ff" points="371.77,-168.9 374.16,-158.58 365.86,-165.16 371.77,-168.9"/>
</a>
</g>
</g>
<!-- Node4 -->
<g id="Node000004" class="node">
<title>Node4</title>
<g id="a_Node000004"><a xlink:href="../../df/d03/a01765.html#addd0dc775ee807e26a5936815ad411b8" target="_top" xlink:title=" ">
<polygon fill="white" stroke="#666666" points="291.88,-232 152.88,-232 152.88,-200 291.88,-200 291.88,-232"/>
<text text-anchor="start" x="160.88" y="-218.5" font-family="Helvetica,sans-Serif" font-size="10.00">GEU::DetailsWindow</text>
<text text-anchor="middle" x="222.38" y="-206.5" font-family="Helvetica,sans-Serif" font-size="10.00">::makeMaterialItemInspector</text>
</a>
</g>
</g>
<!-- Node1&#45;&gt;Node4 -->
<g id="edge3_Node000001_Node000004" class="edge">
<title>Node1&#45;&gt;Node4</title>
<g id="a_edge3_Node000001_Node000004"><a xlink:title=" ">
<path fill="none" stroke="#63b8ff" d="M351.19,-163.37C336.34,-172.74 318.36,-183.23 301.25,-191 294.4,-194.11 287.04,-197 279.69,-199.64"/>
<polygon fill="#63b8ff" stroke="#63b8ff" points="352.66,-166.59 359.18,-158.24 348.87,-160.7 352.66,-166.59"/>
</a>
</g>
</g>
<!-- Node5 -->
<g id="Node000005" class="node">
<title>Node5</title>
<g id="a_Node000005"><a xlink:href="../../df/d03/a01765.html#a9edcfff4507d107037e9f7500a3d6717" target="_top" xlink:title="Renders inspector details for point cloud items.">
<polygon fill="white" stroke="#666666" points="290.38,-182 154.38,-182 154.38,-150 290.38,-150 290.38,-182"/>
<text text-anchor="start" x="162.38" y="-168.5" font-family="Helvetica,sans-Serif" font-size="10.00">GEU::DetailsWindow</text>
<text text-anchor="middle" x="222.38" y="-156.5" font-family="Helvetica,sans-Serif" font-size="10.00">::makePCloudItemInspector</text>
</a>
</g>
</g>
<!-- Node1&#45;&gt;Node5 -->
<g id="edge5_Node000001_Node000005" class="edge">
<title>Node1&#45;&gt;Node5</title>
<g id="a_edge5_Node000001_Node000005"><a xlink:title=" ">
<path fill="none" stroke="#63b8ff" d="M325.8,-150.1C314.41,-151.86 302.39,-153.73 290.75,-155.54"/>
<polygon fill="#63b8ff" stroke="#63b8ff" points="326.1,-153.59 335.44,-148.6 325.03,-146.67 326.1,-153.59"/>
</a>
</g>
</g>
<!-- Node6 -->
<g id="Node000006" class="node">
<title>Node6</title>
<g id="a_Node000006"><a xlink:href="../../d0/d00/a01745.html#ae07f0a25c9ecb584624ce7bf67bc48cb" target="_top" xlink:title="Renders the window and contents.">
<polygon fill="white" stroke="#666666" points="301.25,-132 143.5,-132 143.5,-100 301.25,-100 301.25,-132"/>
<text text-anchor="start" x="151.5" y="-118.5" font-family="Helvetica,sans-Serif" font-size="10.00">GEU::DatabaseNewDatoWindow</text>
<text text-anchor="middle" x="222.38" y="-106.5" font-family="Helvetica,sans-Serif" font-size="10.00">::renderWindow</text>
</a>
</g>
</g>
<!-- Node1&#45;&gt;Node6 -->
<g id="edge7_Node000001_Node000006" class="edge">
<title>Node1&#45;&gt;Node6</title>
<g id="a_edge7_Node000001_Node000006"><a xlink:title=" ">
<path fill="none" stroke="#63b8ff" d="M325.69,-131.89C317.84,-130.67 309.69,-129.4 301.58,-128.14"/>
<polygon fill="#63b8ff" stroke="#63b8ff" points="325.03,-135.33 335.44,-133.4 326.1,-128.41 325.03,-135.33"/>
</a>
</g>
</g>
<!-- Node7 -->
<g id="Node000007" class="node">
<title>Node7</title>
<g id="a_Node000007"><a xlink:href="../../de/d05/a01821.html#a56f55b34996a68d41418a2df8ea008db" target="_top" xlink:title="Renders the window and contents.">
<polygon fill="white" stroke="#666666" points="277.25,-82 167.5,-82 167.5,-50 277.25,-50 277.25,-82"/>
<text text-anchor="start" x="175.5" y="-68.5" font-family="Helvetica,sans-Serif" font-size="10.00">GEU::PickingWindow</text>
<text text-anchor="middle" x="222.38" y="-56.5" font-family="Helvetica,sans-Serif" font-size="10.00">::renderWindow</text>
</a>
</g>
</g>
<!-- Node1&#45;&gt;Node7 -->
<g id="edge8_Node000001_Node000007" class="edge">
<title>Node1&#45;&gt;Node7</title>
<g id="a_edge8_Node000001_Node000007"><a xlink:title=" ">
<path fill="none" stroke="#63b8ff" d="M351.19,-118.63C336.34,-109.26 318.36,-98.77 301.25,-91 293.75,-87.6 285.65,-84.45 277.61,-81.62"/>
<polygon fill="#63b8ff" stroke="#63b8ff" points="348.87,-121.3 359.18,-123.76 352.66,-115.41 348.87,-121.3"/>
</a>
</g>
</g>
<!-- Node8 -->
<g id="Node000008" class="node">
<title>Node8</title>
<g id="a_Node000008"><a xlink:href="../../df/d06/a01825.html#a7af9db6d6ad56c4c4fc336251024472f" target="_top" xlink:title="Renders the window and contents.">
<polygon fill="white" stroke="#666666" points="279.12,-32 165.62,-32 165.62,0 279.12,0 279.12,-32"/>
<text text-anchor="start" x="173.62" y="-18.5" font-family="Helvetica,sans-Serif" font-size="10.00">GEU::SettingsWindow</text>
<text text-anchor="middle" x="222.38" y="-6.5" font-family="Helvetica,sans-Serif" font-size="10.00">::renderWindow</text>
</a>
</g>
</g>
<!-- Node1&#45;&gt;Node8 -->
<g id="edge9_Node000001_Node000008" class="edge">
<title>Node1&#45;&gt;Node8</title>
<g id="a_edge9_Node000001_Node000008"><a xlink:title=" ">
<path fill="none" stroke="#63b8ff" d="M368.88,-115.07C354.13,-92.48 329.97,-60.39 301.25,-41 294.54,-36.47 286.96,-32.72 279.23,-29.62"/>
<polygon fill="#63b8ff" stroke="#63b8ff" points="365.86,-116.84 374.16,-123.42 371.77,-113.1 365.86,-116.84"/>
</a>
</g>
</g>
<!-- Node3 -->
<g id="Node000003" class="node">
<title>Node3</title>
<g id="a_Node000003"><a xlink:href="../../df/d03/a01765.html#a6666ec761cc5cd8a57220823b8e7daa6" target="_top" xlink:title="Renders the window and contents.">
<polygon fill="white" stroke="#666666" points="107.5,-232 0,-232 0,-200 107.5,-200 107.5,-232"/>
<text text-anchor="start" x="8" y="-218.5" font-family="Helvetica,sans-Serif" font-size="10.00">GEU::DetailsWindow</text>
<text text-anchor="middle" x="53.75" y="-206.5" font-family="Helvetica,sans-Serif" font-size="10.00">::renderWindow</text>
</a>
</g>
</g>
<!-- Node2&#45;&gt;Node3 -->
<g id="edge2_Node000002_Node000003" class="edge">
<title>Node2&#45;&gt;Node3</title>
<g id="a_edge2_Node000002_Node000003"><a xlink:title=" ">
<path fill="none" stroke="#63b8ff" d="M155.93,-246.36C139.95,-241.57 123.05,-236.49 107.73,-231.9"/>
<polygon fill="#63b8ff" stroke="#63b8ff" points="154.78,-249.67 165.37,-249.19 156.79,-242.97 154.78,-249.67"/>
</a>
</g>
</g>
<!-- Node4&#45;&gt;Node3 -->
<g id="edge4_Node000004_Node000003" class="edge">
<title>Node4&#45;&gt;Node3</title>
<g id="a_edge4_Node000004_Node000003"><a xlink:title=" ">
<path fill="none" stroke="#63b8ff" d="M141.32,-216C129.95,-216 118.49,-216 107.8,-216"/>
<polygon fill="#63b8ff" stroke="#63b8ff" points="141.13,-219.5 151.13,-216 141.13,-212.5 141.13,-219.5"/>
</a>
</g>
</g>
<!-- Node5&#45;&gt;Node3 -->
<g id="edge6_Node000005_Node000003" class="edge">
<title>Node5&#45;&gt;Node3</title>
<g id="a_edge6_Node000005_Node000003"><a xlink:title=" ">
<path fill="none" stroke="#63b8ff" d="M155.93,-185.64C139.95,-190.43 123.05,-195.51 107.73,-200.1"/>
<polygon fill="#63b8ff" stroke="#63b8ff" points="156.79,-189.03 165.37,-182.81 154.78,-182.33 156.79,-189.03"/>
</a>
</g>
</g>
</g>
</svg>
