<?xml version="1.0" encoding="UTF-8" standalone="no"?>
<!DOCTYPE svg PUBLIC "-//W3C//DTD SVG 1.1//EN"
 "http://www.w3.org/Graphics/SVG/1.1/DTD/svg11.dtd">
<!-- Generated by graphviz version 10.0.1 (20240210.2158)
 -->
<!-- Title: GEU::GuiUtilities::ColorPicker Pages: 1 -->
<svg width="409pt" height="140pt"
 viewBox="0.00 0.00 409.25 140.00" xmlns="http://www.w3.org/2000/svg" xmlns:xlink="http://www.w3.org/1999/xlink">
<g id="graph0" class="graph" transform="scale(1 1) rotate(0) translate(4 136)">
<title>GEU::GuiUtilities::ColorPicker</title>
<!-- Node1 -->
<g id="Node000001" class="node">
<title>Node1</title>
<g id="a_Node000001"><a xlink:title=" ">
<polygon fill="#999999" stroke="#666666" points="401.25,-82 305,-82 305,-50 401.25,-50 401.25,-82"/>
<text text-anchor="start" x="313" y="-68.5" font-family="Helvetica,sans-Serif" font-size="10.00">GEU::GuiUtilities::</text>
<text text-anchor="middle" x="353.12" y="-56.5" font-family="Helvetica,sans-Serif" font-size="10.00">ColorPicker</text>
</a>
</g>
</g>
<!-- Node2 -->
<g id="Node000002" class="node">
<title>Node2</title>
<g id="a_Node000002"><a xlink:href="../../df/d03/a01765.html#aafcdb3e0ee9efe93917945b4b67ef977" target="_top" xlink:title="Renders inspector details for light items.">
<polygon fill="white" stroke="#666666" points="269,-132 143.5,-132 143.5,-100 269,-100 269,-132"/>
<text text-anchor="start" x="151.5" y="-118.5" font-family="Helvetica,sans-Serif" font-size="10.00">GEU::DetailsWindow</text>
<text text-anchor="middle" x="206.25" y="-106.5" font-family="Helvetica,sans-Serif" font-size="10.00">::makeLightItemInspector</text>
</a>
</g>
</g>
<!-- Node1&#45;&gt;Node2 -->
<g id="edge1_Node000001_Node000002" class="edge">
<title>Node1&#45;&gt;Node2</title>
<g id="a_edge1_Node000001_Node000002"><a xlink:title=" ">
<path fill="none" stroke="#63b8ff" d="M293.95,-86.08C280.95,-90.56 267.31,-95.27 254.79,-99.59"/>
<polygon fill="#63b8ff" stroke="#63b8ff" points="294.95,-89.44 303.26,-82.87 292.66,-82.82 294.95,-89.44"/>
</a>
</g>
</g>
<!-- Node4 -->
<g id="Node000004" class="node">
<title>Node4</title>
<g id="a_Node000004"><a xlink:href="../../de/d05/a01821.html#a56f55b34996a68d41418a2df8ea008db" target="_top" xlink:title="Renders the window and contents.">
<polygon fill="white" stroke="#666666" points="261.12,-82 151.38,-82 151.38,-50 261.12,-50 261.12,-82"/>
<text text-anchor="start" x="159.38" y="-68.5" font-family="Helvetica,sans-Serif" font-size="10.00">GEU::PickingWindow</text>
<text text-anchor="middle" x="206.25" y="-56.5" font-family="Helvetica,sans-Serif" font-size="10.00">::renderWindow</text>
</a>
</g>
</g>
<!-- Node1&#45;&gt;Node4 -->
<g id="edge3_Node000001_Node000004" class="edge">
<title>Node1&#45;&gt;Node4</title>
<g id="a_edge3_Node000001_Node000004"><a xlink:title=" ">
<path fill="none" stroke="#63b8ff" d="M293.46,-66C282.92,-66 271.99,-66 261.58,-66"/>
<polygon fill="#63b8ff" stroke="#63b8ff" points="293.17,-69.5 303.17,-66 293.17,-62.5 293.17,-69.5"/>
</a>
</g>
</g>
<!-- Node5 -->
<g id="Node000005" class="node">
<title>Node5</title>
<g id="a_Node000005"><a xlink:href="../../df/d06/a01825.html#a7af9db6d6ad56c4c4fc336251024472f" target="_top" xlink:title="Renders the window and contents.">
<polygon fill="white" stroke="#666666" points="263,-32 149.5,-32 149.5,0 263,0 263,-32"/>
<text text-anchor="start" x="157.5" y="-18.5" font-family="Helvetica,sans-Serif" font-size="10.00">GEU::SettingsWindow</text>
<text text-anchor="middle" x="206.25" y="-6.5" font-family="Helvetica,sans-Serif" font-size="10.00">::renderWindow</text>
</a>
</g>
</g>
<!-- Node1&#45;&gt;Node5 -->
<g id="edge4_Node000001_Node000005" class="edge">
<title>Node1&#45;&gt;Node5</title>
<g id="a_edge4_Node000001_Node000005"><a xlink:title=" ">
<path fill="none" stroke="#63b8ff" d="M293.95,-45.92C280.95,-41.44 267.31,-36.73 254.79,-32.41"/>
<polygon fill="#63b8ff" stroke="#63b8ff" points="292.66,-49.18 303.26,-49.13 294.95,-42.56 292.66,-49.18"/>
</a>
</g>
</g>
<!-- Node3 -->
<g id="Node000003" class="node">
<title>Node3</title>
<g id="a_Node000003"><a xlink:href="../../df/d03/a01765.html#a6666ec761cc5cd8a57220823b8e7daa6" target="_top" xlink:title="Renders the window and contents.">
<polygon fill="white" stroke="#666666" points="107.5,-132 0,-132 0,-100 107.5,-100 107.5,-132"/>
<text text-anchor="start" x="8" y="-118.5" font-family="Helvetica,sans-Serif" font-size="10.00">GEU::DetailsWindow</text>
<text text-anchor="middle" x="53.75" y="-106.5" font-family="Helvetica,sans-Serif" font-size="10.00">::renderWindow</text>
</a>
</g>
</g>
<!-- Node2&#45;&gt;Node3 -->
<g id="edge2_Node000002_Node000003" class="edge">
<title>Node2&#45;&gt;Node3</title>
<g id="a_edge2_Node000002_Node000003"><a xlink:title=" ">
<path fill="none" stroke="#63b8ff" d="M131.71,-116C123.56,-116 115.39,-116 107.58,-116"/>
<polygon fill="#63b8ff" stroke="#63b8ff" points="131.65,-119.5 141.65,-116 131.65,-112.5 131.65,-119.5"/>
</a>
</g>
</g>
</g>
</svg>
