<?xml version="1.0" encoding="UTF-8" standalone="no"?>
<!DOCTYPE svg PUBLIC "-//W3C//DTD SVG 1.1//EN"
 "http://www.w3.org/Graphics/SVG/1.1/DTD/svg11.dtd">
<!-- Generated by graphviz version 10.0.1 (20240210.2158)
 -->
<!-- Title: Base64::EncodedLength Pages: 1 -->
<svg width="289pt" height="104pt"
 viewBox="0.00 0.00 289.00 104.00" xmlns="http://www.w3.org/2000/svg" xmlns:xlink="http://www.w3.org/1999/xlink">
<g id="graph0" class="graph" transform="scale(1 1) rotate(0) translate(4 100)">
<title>Base64::EncodedLength</title>
<!-- Node1 -->
<g id="Node000001" class="node">
<title>Node1</title>
<g id="a_Node000001"><a xlink:title=" ">
<polygon fill="#999999" stroke="#666666" points="281,-58 158.5,-58 158.5,-38 281,-38 281,-58"/>
<text text-anchor="middle" x="219.75" y="-44.5" font-family="Helvetica,sans-Serif" font-size="10.00">Base64::EncodedLength</text>
</a>
</g>
</g>
<!-- Node2 -->
<g id="Node000002" class="node">
<title>Node2</title>
<g id="a_Node000002"><a xlink:href="../../de/d07/a01960.html#a9f049988abb9267d85a5c7aaac494fb9" target="_top" xlink:title=" ">
<polygon fill="white" stroke="#666666" points="105.25,-96 17.25,-96 17.25,-76 105.25,-76 105.25,-96"/>
<text text-anchor="middle" x="61.25" y="-82.5" font-family="Helvetica,sans-Serif" font-size="10.00">Base64::Encode</text>
</a>
</g>
</g>
<!-- Node1&#45;&gt;Node2 -->
<g id="edge1_Node000001_Node000002" class="edge">
<title>Node1&#45;&gt;Node2</title>
<g id="a_edge1_Node000001_Node000002"><a xlink:title=" ">
<path fill="none" stroke="#63b8ff" d="M164.46,-61.18C145.1,-65.88 123.57,-71.11 105.29,-75.55"/>
<polygon fill="#63b8ff" stroke="#63b8ff" points="165.21,-64.6 174.1,-58.84 163.56,-57.8 165.21,-64.6"/>
</a>
</g>
</g>
<!-- Node3 -->
<g id="Node000003" class="node">
<title>Node3</title>
<g id="a_Node000003"><a xlink:href="../../de/d07/a01960.html#ad234621ec037e09be3e96a1df479d3ad" target="_top" xlink:title=" ">
<polygon fill="white" stroke="#666666" points="105.25,-58 17.25,-58 17.25,-38 105.25,-38 105.25,-58"/>
<text text-anchor="middle" x="61.25" y="-44.5" font-family="Helvetica,sans-Serif" font-size="10.00">Base64::Encode</text>
</a>
</g>
</g>
<!-- Node1&#45;&gt;Node3 -->
<g id="edge2_Node000001_Node000003" class="edge">
<title>Node1&#45;&gt;Node3</title>
<g id="a_edge2_Node000001_Node000003"><a xlink:title=" ">
<path fill="none" stroke="#63b8ff" d="M147.01,-48C132.88,-48 118.46,-48 105.62,-48"/>
<polygon fill="#63b8ff" stroke="#63b8ff" points="146.73,-51.5 156.73,-48 146.73,-44.5 146.73,-51.5"/>
</a>
</g>
</g>
<!-- Node4 -->
<g id="Node000004" class="node">
<title>Node4</title>
<g id="a_Node000004"><a xlink:href="../../de/d07/a01960.html#a06a941962d73207cd5a7e241b36036d6" target="_top" xlink:title=" ">
<polygon fill="white" stroke="#666666" points="122.5,-20 0,-20 0,0 122.5,0 122.5,-20"/>
<text text-anchor="middle" x="61.25" y="-6.5" font-family="Helvetica,sans-Serif" font-size="10.00">Base64::EncodedLength</text>
</a>
</g>
</g>
<!-- Node1&#45;&gt;Node4 -->
<g id="edge3_Node000001_Node000004" class="edge">
<title>Node1&#45;&gt;Node4</title>
<g id="a_edge3_Node000001_Node000004"><a xlink:title=" ">
<path fill="none" stroke="#63b8ff" d="M164.46,-34.82C145.1,-30.12 123.57,-24.89 105.29,-20.45"/>
<polygon fill="#63b8ff" stroke="#63b8ff" points="163.56,-38.2 174.1,-37.16 165.21,-31.4 163.56,-38.2"/>
</a>
</g>
</g>
</g>
</svg>
