<?xml version="1.0" encoding="UTF-8" standalone="no"?>
<!DOCTYPE svg PUBLIC "-//W3C//DTD SVG 1.1//EN"
 "http://www.w3.org/Graphics/SVG/1.1/DTD/svg11.dtd">
<!-- Generated by graphviz version 10.0.1 (20240210.2158)
 -->
<!-- Title: Base64::Decode Pages: 1 -->
<svg width="255pt" height="104pt"
 viewBox="0.00 0.00 254.50 104.00" xmlns="http://www.w3.org/2000/svg" xmlns:xlink="http://www.w3.org/1999/xlink">
<g id="graph0" class="graph" transform="scale(1 1) rotate(0) translate(4 100)">
<title>Base64::Decode</title>
<!-- Node1 -->
<g id="Node000001" class="node">
<title>Node1</title>
<g id="a_Node000001"><a xlink:title=" ">
<polygon fill="#999999" stroke="#666666" points="88,-58 0,-58 0,-38 88,-38 88,-58"/>
<text text-anchor="middle" x="44" y="-44.5" font-family="Helvetica,sans-Serif" font-size="10.00">Base64::Decode</text>
</a>
</g>
</g>
<!-- Node2 -->
<g id="Node000002" class="node">
<title>Node2</title>
<g id="a_Node000002"><a xlink:href="../../de/d07/a01960.html#abe8ace7d1576ce2fa5da45a6260379fd" target="_top" xlink:title=" ">
<polygon fill="white" stroke="#666666" points="232.62,-96 137.88,-96 137.88,-76 232.62,-76 232.62,-96"/>
<text text-anchor="middle" x="185.25" y="-82.5" font-family="Helvetica,sans-Serif" font-size="10.00">Base64::a4_to_a3</text>
</a>
</g>
</g>
<!-- Node1&#45;&gt;Node2 -->
<g id="edge1_Node000001_Node000002" class="edge">
<title>Node1&#45;&gt;Node2</title>
<g id="a_edge1_Node000001_Node000002"><a xlink:title=" ">
<path fill="none" stroke="#63b8ff" d="M83.42,-58.48C99.4,-62.85 118.15,-67.96 135.11,-72.59"/>
<polygon fill="#63b8ff" stroke="#63b8ff" points="133.93,-75.9 144.5,-75.15 135.77,-69.14 133.93,-75.9"/>
</a>
</g>
</g>
<!-- Node3 -->
<g id="Node000003" class="node">
<title>Node3</title>
<g id="a_Node000003"><a xlink:href="../../de/d07/a01960.html#a8de014069fccbd2492c3ce2ee1c02691" target="_top" xlink:title=" ">
<polygon fill="white" stroke="#666666" points="237.5,-58 133,-58 133,-38 237.5,-38 237.5,-58"/>
<text text-anchor="middle" x="185.25" y="-44.5" font-family="Helvetica,sans-Serif" font-size="10.00">Base64::b64_lookup</text>
</a>
</g>
</g>
<!-- Node1&#45;&gt;Node3 -->
<g id="edge2_Node000001_Node000003" class="edge">
<title>Node1&#45;&gt;Node3</title>
<g id="a_edge2_Node000001_Node000003"><a xlink:title=" ">
<path fill="none" stroke="#63b8ff" d="M88.3,-48C98.73,-48 110.08,-48 121.21,-48"/>
<polygon fill="#63b8ff" stroke="#63b8ff" points="121.16,-51.5 131.16,-48 121.16,-44.5 121.16,-51.5"/>
</a>
</g>
</g>
<!-- Node4 -->
<g id="Node000004" class="node">
<title>Node4</title>
<g id="a_Node000004"><a xlink:href="../../de/d07/a01960.html#a3fe4c327ec3e305b5744d6810dae6b4b" target="_top" xlink:title=" ">
<polygon fill="white" stroke="#666666" points="246.5,-20 124,-20 124,0 246.5,0 246.5,-20"/>
<text text-anchor="middle" x="185.25" y="-6.5" font-family="Helvetica,sans-Serif" font-size="10.00">Base64::DecodedLength</text>
</a>
</g>
</g>
<!-- Node1&#45;&gt;Node4 -->
<g id="edge3_Node000001_Node000004" class="edge">
<title>Node1&#45;&gt;Node4</title>
<g id="a_edge3_Node000001_Node000004"><a xlink:title=" ">
<path fill="none" stroke="#63b8ff" d="M83.42,-37.52C99.4,-33.15 118.15,-28.04 135.11,-23.41"/>
<polygon fill="#63b8ff" stroke="#63b8ff" points="135.77,-26.86 144.5,-20.85 133.93,-20.1 135.77,-26.86"/>
</a>
</g>
</g>
</g>
</svg>
