<?xml version="1.0" encoding="UTF-8" standalone="no"?>
<!DOCTYPE svg PUBLIC "-//W3C//DTD SVG 1.1//EN"
 "http://www.w3.org/Graphics/SVG/1.1/DTD/svg11.dtd">
<!-- Generated by graphviz version 10.0.1 (20240210.2158)
 -->
<!-- Title: GEU::Texture::getId Pages: 1 -->
<svg width="505pt" height="228pt"
 viewBox="0.00 0.00 505.25 228.00" xmlns="http://www.w3.org/2000/svg" xmlns:xlink="http://www.w3.org/1999/xlink">
<g id="graph0" class="graph" transform="scale(1 1) rotate(0) translate(4 224)">
<title>GEU::Texture::getId</title>
<!-- Node1 -->
<g id="Node000001" class="node">
<title>Node1</title>
<g id="a_Node000001"><a xlink:title=" ">
<polygon fill="#999999" stroke="#666666" points="497.25,-126 395,-126 395,-106 497.25,-106 497.25,-126"/>
<text text-anchor="middle" x="446.12" y="-112.5" font-family="Helvetica,sans-Serif" font-size="10.00">GEU::Texture::getId</text>
</a>
</g>
</g>
<!-- Node2 -->
<g id="Node000002" class="node">
<title>Node2</title>
<g id="a_Node000002"><a xlink:href="../../d5/d05/a01656.html#a2b8baba4b8a225b0f5db55bdd7565443" target="_top" xlink:title=" ">
<polygon fill="white" stroke="#666666" points="359,-220 208,-220 208,-200 359,-200 359,-220"/>
<text text-anchor="middle" x="283.5" y="-206.5" font-family="Helvetica,sans-Serif" font-size="10.00">GEU::FBORender::FBORender</text>
</a>
</g>
</g>
<!-- Node1&#45;&gt;Node2 -->
<g id="edge1_Node000001_Node000002" class="edge">
<title>Node1&#45;&gt;Node2</title>
<g id="a_edge1_Node000001_Node000002"><a xlink:title=" ">
<path fill="none" stroke="#63b8ff" d="M428.72,-134.59C412.61,-151.71 386.51,-176.57 359,-191 352.5,-194.41 345.35,-197.23 338.14,-199.56"/>
<polygon fill="#63b8ff" stroke="#63b8ff" points="430.99,-137.29 435.16,-127.56 425.83,-132.56 430.99,-137.29"/>
</a>
</g>
</g>
<!-- Node3 -->
<g id="Node000003" class="node">
<title>Node3</title>
<g id="a_Node000003"><a xlink:href="../../d1/d06/a01496.html#ad015f60d22d7acb74f54f3d2238a92f0" target="_top" xlink:title="Makes and handles basic texture image view.">
<polygon fill="white" stroke="#666666" points="349.62,-182 217.38,-182 217.38,-150 349.62,-150 349.62,-182"/>
<text text-anchor="start" x="225.38" y="-168.5" font-family="Helvetica,sans-Serif" font-size="10.00">GEU::DetailsWindow</text>
<text text-anchor="middle" x="283.5" y="-156.5" font-family="Helvetica,sans-Serif" font-size="10.00">::makeBasicTextureViewer</text>
</a>
</g>
</g>
<!-- Node1&#45;&gt;Node3 -->
<g id="edge2_Node000001_Node000003" class="edge">
<title>Node1&#45;&gt;Node3</title>
<g id="a_edge2_Node000001_Node000003"><a xlink:title=" ">
<path fill="none" stroke="#63b8ff" d="M400.68,-129.84C381.08,-135.94 357.9,-143.15 337.41,-149.53"/>
<polygon fill="#63b8ff" stroke="#63b8ff" points="401.5,-133.25 410.01,-126.93 399.42,-126.56 401.5,-133.25"/>
</a>
</g>
</g>
<!-- Node4 -->
<g id="Node000004" class="node">
<title>Node4</title>
<g id="a_Node000004"><a xlink:href="../../d7/d04/a00634.html#a40cdeaa939ccd13a01c629265c618012" target="_top" xlink:title=" ">
<polygon fill="white" stroke="#666666" points="333.5,-132 233.5,-132 233.5,-100 333.5,-100 333.5,-132"/>
<text text-anchor="start" x="241.5" y="-118.5" font-family="Helvetica,sans-Serif" font-size="10.00">GEU::GuiUtilities::</text>
<text text-anchor="middle" x="283.5" y="-106.5" font-family="Helvetica,sans-Serif" font-size="10.00">makeImageViewFill</text>
</a>
</g>
</g>
<!-- Node1&#45;&gt;Node4 -->
<g id="edge3_Node000001_Node000004" class="edge">
<title>Node1&#45;&gt;Node4</title>
<g id="a_edge3_Node000001_Node000004"><a xlink:title=" ">
<path fill="none" stroke="#63b8ff" d="M383.57,-116C367.13,-116 349.57,-116 333.88,-116"/>
<polygon fill="#63b8ff" stroke="#63b8ff" points="383.23,-119.5 393.23,-116 383.23,-112.5 383.23,-119.5"/>
</a>
</g>
</g>
<!-- Node5 -->
<g id="Node000005" class="node">
<title>Node5</title>
<g id="a_Node000005"><a xlink:href="../../d7/d04/a00634.html#adbb3c8396add1b87a5fdf15e76c4c32f" target="_top" xlink:title=" ">
<polygon fill="white" stroke="#666666" points="337.62,-82 229.38,-82 229.38,-50 337.62,-50 337.62,-82"/>
<text text-anchor="start" x="237.38" y="-68.5" font-family="Helvetica,sans-Serif" font-size="10.00">GEU::GuiUtilities::</text>
<text text-anchor="middle" x="283.5" y="-56.5" font-family="Helvetica,sans-Serif" font-size="10.00">makeImageZoomable</text>
</a>
</g>
</g>
<!-- Node1&#45;&gt;Node5 -->
<g id="edge4_Node000001_Node000005" class="edge">
<title>Node1&#45;&gt;Node5</title>
<g id="a_edge4_Node000001_Node000005"><a xlink:title=" ">
<path fill="none" stroke="#63b8ff" d="M400.68,-102.16C381.08,-96.06 357.9,-88.85 337.41,-82.47"/>
<polygon fill="#63b8ff" stroke="#63b8ff" points="399.42,-105.44 410.01,-105.07 401.5,-98.75 399.42,-105.44"/>
</a>
</g>
</g>
<!-- Node8 -->
<g id="Node000008" class="node">
<title>Node8</title>
<g id="a_Node000008"><a xlink:href="../../d7/d04/a00634.html#a4dc25bbb3f52a3eee9dda90f4e695195" target="_top" xlink:title=" ">
<polygon fill="white" stroke="#666666" points="331.62,-32 235.38,-32 235.38,0 331.62,0 331.62,-32"/>
<text text-anchor="start" x="243.38" y="-18.5" font-family="Helvetica,sans-Serif" font-size="10.00">GEU::GuiUtilities::</text>
<text text-anchor="middle" x="283.5" y="-6.5" font-family="Helvetica,sans-Serif" font-size="10.00">renderTexture</text>
</a>
</g>
</g>
<!-- Node1&#45;&gt;Node8 -->
<g id="edge7_Node000001_Node000008" class="edge">
<title>Node1&#45;&gt;Node8</title>
<g id="a_edge7_Node000001_Node000008"><a xlink:title=" ">
<path fill="none" stroke="#63b8ff" d="M428.2,-97.59C411.9,-80.81 385.81,-56.36 359,-41 350.59,-36.19 341.12,-32.12 331.82,-28.76"/>
<polygon fill="#63b8ff" stroke="#63b8ff" points="425.32,-99.64 434.75,-104.48 430.4,-94.82 425.32,-99.64"/>
</a>
</g>
</g>
<!-- Node6 -->
<g id="Node000006" class="node">
<title>Node6</title>
<g id="a_Node000006"><a xlink:href="../../d8/d02/a02104.html#a8a98d9eb2b3e72fe0a3bb1f7720c5099" target="_top" xlink:title="Draw input image with segment rectangles.">
<polygon fill="white" stroke="#666666" points="172,-107 0,-107 0,-75 172,-75 172,-107"/>
<text text-anchor="start" x="8" y="-93.5" font-family="Helvetica,sans-Serif" font-size="10.00">GEU::TreeSegmentationGUIAdapter</text>
<text text-anchor="middle" x="86" y="-81.5" font-family="Helvetica,sans-Serif" font-size="10.00">::makeImageWithRects</text>
</a>
</g>
</g>
<!-- Node5&#45;&gt;Node6 -->
<g id="edge5_Node000005_Node000006" class="edge">
<title>Node5&#45;&gt;Node6</title>
<g id="a_edge5_Node000005_Node000006"><a xlink:title=" ">
<path fill="none" stroke="#63b8ff" d="M217.7,-74.29C203.17,-76.14 187.55,-78.14 172.34,-80.09"/>
<polygon fill="#63b8ff" stroke="#63b8ff" points="218.1,-77.76 227.58,-73.02 217.21,-70.82 218.1,-77.76"/>
</a>
</g>
</g>
<!-- Node7 -->
<g id="Node000007" class="node">
<title>Node7</title>
<g id="a_Node000007"><a xlink:href="../../d8/d02/a02104.html#a7e53f2d5e62b2c5fd15e718d87751c7a" target="_top" xlink:title="Draw Input tab to load an image and apply segmentation.">
<polygon fill="white" stroke="#666666" points="172,-57 0,-57 0,-25 172,-25 172,-57"/>
<text text-anchor="start" x="8" y="-43.5" font-family="Helvetica,sans-Serif" font-size="10.00">GEU::TreeSegmentationGUIAdapter</text>
<text text-anchor="middle" x="86" y="-31.5" font-family="Helvetica,sans-Serif" font-size="10.00">::makeSegmentInputGUI</text>
</a>
</g>
</g>
<!-- Node5&#45;&gt;Node7 -->
<g id="edge6_Node000005_Node000007" class="edge">
<title>Node5&#45;&gt;Node7</title>
<g id="a_edge6_Node000005_Node000007"><a xlink:title=" ">
<path fill="none" stroke="#63b8ff" d="M217.7,-57.71C203.17,-55.86 187.55,-53.86 172.34,-51.91"/>
<polygon fill="#63b8ff" stroke="#63b8ff" points="217.21,-61.18 227.58,-58.98 218.1,-54.24 217.21,-61.18"/>
</a>
</g>
</g>
</g>
</svg>
