<?xml version="1.0" encoding="UTF-8" standalone="no"?>
<!DOCTYPE svg PUBLIC "-//W3C//DTD SVG 1.1//EN"
 "http://www.w3.org/Graphics/SVG/1.1/DTD/svg11.dtd">
<!-- Generated by graphviz version 10.0.1 (20240210.2158)
 -->
<!-- Title: GEU::Texture::getHeight Pages: 1 -->
<svg width="507pt" height="190pt"
 viewBox="0.00 0.00 506.75 190.00" xmlns="http://www.w3.org/2000/svg" xmlns:xlink="http://www.w3.org/1999/xlink">
<g id="graph0" class="graph" transform="scale(1 1) rotate(0) translate(4 186)">
<title>GEU::Texture::getHeight</title>
<!-- Node1 -->
<g id="Node000001" class="node">
<title>Node1</title>
<g id="a_Node000001"><a xlink:title=" ">
<polygon fill="#999999" stroke="#666666" points="498.75,-101 376.25,-101 376.25,-81 498.75,-81 498.75,-101"/>
<text text-anchor="middle" x="437.5" y="-87.5" font-family="Helvetica,sans-Serif" font-size="10.00">GEU::Texture::getHeight</text>
</a>
</g>
</g>
<!-- Node2 -->
<g id="Node000002" class="node">
<title>Node2</title>
<g id="a_Node000002"><a xlink:href="../../d1/d06/a01496.html#ad015f60d22d7acb74f54f3d2238a92f0" target="_top" xlink:title="Makes and handles basic texture image view.">
<polygon fill="white" stroke="#666666" points="340.25,-182 208,-182 208,-150 340.25,-150 340.25,-182"/>
<text text-anchor="start" x="216" y="-168.5" font-family="Helvetica,sans-Serif" font-size="10.00">GEU::DetailsWindow</text>
<text text-anchor="middle" x="274.12" y="-156.5" font-family="Helvetica,sans-Serif" font-size="10.00">::makeBasicTextureViewer</text>
</a>
</g>
</g>
<!-- Node1&#45;&gt;Node2 -->
<g id="edge1_Node000001_Node000002" class="edge">
<title>Node1&#45;&gt;Node2</title>
<g id="a_edge1_Node000001_Node000002"><a xlink:title=" ">
<path fill="none" stroke="#63b8ff" d="M407.95,-106.91C389.01,-117.19 363.47,-130.55 340.25,-141 333.73,-143.93 326.76,-146.84 319.89,-149.58"/>
<polygon fill="#63b8ff" stroke="#63b8ff" points="409.58,-110.01 416.67,-102.13 406.22,-103.87 409.58,-110.01"/>
</a>
</g>
</g>
<!-- Node3 -->
<g id="Node000003" class="node">
<title>Node3</title>
<g id="a_Node000003"><a xlink:href="../../d7/d04/a00634.html#a40cdeaa939ccd13a01c629265c618012" target="_top" xlink:title=" ">
<polygon fill="white" stroke="#666666" points="324.12,-132 224.12,-132 224.12,-100 324.12,-100 324.12,-132"/>
<text text-anchor="start" x="232.12" y="-118.5" font-family="Helvetica,sans-Serif" font-size="10.00">GEU::GuiUtilities::</text>
<text text-anchor="middle" x="274.12" y="-106.5" font-family="Helvetica,sans-Serif" font-size="10.00">makeImageViewFill</text>
</a>
</g>
</g>
<!-- Node1&#45;&gt;Node3 -->
<g id="edge2_Node000001_Node000003" class="edge">
<title>Node1&#45;&gt;Node3</title>
<g id="a_edge2_Node000001_Node000003"><a xlink:title=" ">
<path fill="none" stroke="#63b8ff" d="M364.65,-102.13C351.06,-104.24 337.14,-106.39 324.44,-108.36"/>
<polygon fill="#63b8ff" stroke="#63b8ff" points="365.11,-105.6 374.46,-100.61 364.04,-98.68 365.11,-105.6"/>
</a>
</g>
</g>
<!-- Node4 -->
<g id="Node000004" class="node">
<title>Node4</title>
<g id="a_Node000004"><a xlink:href="../../d7/d04/a00634.html#adbb3c8396add1b87a5fdf15e76c4c32f" target="_top" xlink:title=" ">
<polygon fill="white" stroke="#666666" points="328.25,-82 220,-82 220,-50 328.25,-50 328.25,-82"/>
<text text-anchor="start" x="228" y="-68.5" font-family="Helvetica,sans-Serif" font-size="10.00">GEU::GuiUtilities::</text>
<text text-anchor="middle" x="274.12" y="-56.5" font-family="Helvetica,sans-Serif" font-size="10.00">makeImageZoomable</text>
</a>
</g>
</g>
<!-- Node1&#45;&gt;Node4 -->
<g id="edge3_Node000001_Node000004" class="edge">
<title>Node1&#45;&gt;Node4</title>
<g id="a_edge3_Node000001_Node000004"><a xlink:title=" ">
<path fill="none" stroke="#63b8ff" d="M364.87,-79.9C352.67,-78.01 340.2,-76.08 328.59,-74.28"/>
<polygon fill="#63b8ff" stroke="#63b8ff" points="364.04,-83.32 374.46,-81.39 365.11,-76.4 364.04,-83.32"/>
</a>
</g>
</g>
<!-- Node7 -->
<g id="Node000007" class="node">
<title>Node7</title>
<g id="a_Node000007"><a xlink:href="../../d7/d04/a00634.html#a4dc25bbb3f52a3eee9dda90f4e695195" target="_top" xlink:title=" ">
<polygon fill="white" stroke="#666666" points="322.25,-32 226,-32 226,0 322.25,0 322.25,-32"/>
<text text-anchor="start" x="234" y="-18.5" font-family="Helvetica,sans-Serif" font-size="10.00">GEU::GuiUtilities::</text>
<text text-anchor="middle" x="274.12" y="-6.5" font-family="Helvetica,sans-Serif" font-size="10.00">renderTexture</text>
</a>
</g>
</g>
<!-- Node1&#45;&gt;Node7 -->
<g id="edge6_Node000001_Node000007" class="edge">
<title>Node1&#45;&gt;Node7</title>
<g id="a_edge6_Node000001_Node000007"><a xlink:title=" ">
<path fill="none" stroke="#63b8ff" d="M407.95,-75.09C389.01,-64.81 363.47,-51.45 340.25,-41 333.73,-38.07 326.76,-35.16 319.89,-32.42"/>
<polygon fill="#63b8ff" stroke="#63b8ff" points="406.22,-78.13 416.67,-79.87 409.58,-71.99 406.22,-78.13"/>
</a>
</g>
</g>
<!-- Node5 -->
<g id="Node000005" class="node">
<title>Node5</title>
<g id="a_Node000005"><a xlink:href="../../d8/d02/a02104.html#a8a98d9eb2b3e72fe0a3bb1f7720c5099" target="_top" xlink:title="Draw input image with segment rectangles.">
<polygon fill="white" stroke="#666666" points="172,-107 0,-107 0,-75 172,-75 172,-107"/>
<text text-anchor="start" x="8" y="-93.5" font-family="Helvetica,sans-Serif" font-size="10.00">GEU::TreeSegmentationGUIAdapter</text>
<text text-anchor="middle" x="86" y="-81.5" font-family="Helvetica,sans-Serif" font-size="10.00">::makeImageWithRects</text>
</a>
</g>
</g>
<!-- Node4&#45;&gt;Node5 -->
<g id="edge4_Node000004_Node000005" class="edge">
<title>Node4&#45;&gt;Node5</title>
<g id="a_edge4_Node000004_Node000005"><a xlink:title=" ">
<path fill="none" stroke="#63b8ff" d="M208.39,-74.69C196.74,-76.26 184.44,-77.91 172.32,-79.54"/>
<polygon fill="#63b8ff" stroke="#63b8ff" points="208.84,-78.17 218.29,-73.37 207.91,-71.23 208.84,-78.17"/>
</a>
</g>
</g>
<!-- Node6 -->
<g id="Node000006" class="node">
<title>Node6</title>
<g id="a_Node000006"><a xlink:href="../../d8/d02/a02104.html#a7e53f2d5e62b2c5fd15e718d87751c7a" target="_top" xlink:title="Draw Input tab to load an image and apply segmentation.">
<polygon fill="white" stroke="#666666" points="172,-57 0,-57 0,-25 172,-25 172,-57"/>
<text text-anchor="start" x="8" y="-43.5" font-family="Helvetica,sans-Serif" font-size="10.00">GEU::TreeSegmentationGUIAdapter</text>
<text text-anchor="middle" x="86" y="-31.5" font-family="Helvetica,sans-Serif" font-size="10.00">::makeSegmentInputGUI</text>
</a>
</g>
</g>
<!-- Node4&#45;&gt;Node6 -->
<g id="edge5_Node000004_Node000006" class="edge">
<title>Node4&#45;&gt;Node6</title>
<g id="a_edge5_Node000004_Node000006"><a xlink:title=" ">
<path fill="none" stroke="#63b8ff" d="M208.39,-57.31C196.74,-55.74 184.44,-54.09 172.32,-52.46"/>
<polygon fill="#63b8ff" stroke="#63b8ff" points="207.91,-60.77 218.29,-58.63 208.84,-53.83 207.91,-60.77"/>
</a>
</g>
</g>
</g>
</svg>
