<?xml version="1.0" encoding="UTF-8" standalone="no"?>
<!DOCTYPE svg PUBLIC "-//W3C//DTD SVG 1.1//EN"
 "http://www.w3.org/Graphics/SVG/1.1/DTD/svg11.dtd">
<!-- Generated by graphviz version 10.0.1 (20240210.2158)
 -->
<!-- Title: GEU::ThermalAugment::readCameraCalibratedParameters Pages: 1 -->
<svg width="359pt" height="66pt"
 viewBox="0.00 0.00 358.75 66.00" xmlns="http://www.w3.org/2000/svg" xmlns:xlink="http://www.w3.org/1999/xlink">
<g id="graph0" class="graph" transform="scale(1 1) rotate(0) translate(4 62)">
<title>GEU::ThermalAugment::readCameraCalibratedParameters</title>
<!-- Node1 -->
<g id="Node000001" class="node">
<title>Node1</title>
<g id="a_Node000001"><a xlink:title=" ">
<polygon fill="#999999" stroke="#666666" points="168.25,-45 0,-45 0,-13 168.25,-13 168.25,-45"/>
<text text-anchor="start" x="8" y="-31.5" font-family="Helvetica,sans-Serif" font-size="10.00">GEU::ThermalAugment</text>
<text text-anchor="middle" x="84.12" y="-19.5" font-family="Helvetica,sans-Serif" font-size="10.00">::readCameraCalibratedParameters</text>
</a>
</g>
</g>
<!-- Node2 -->
<g id="Node000002" class="node">
<title>Node2</title>
<g id="a_Node000002"><a xlink:href="../../dd/d06/a00639.html#a6dffc87f3fe241244259c8d0a1d3823e" target="_top" xlink:title=" ">
<polygon fill="white" stroke="#666666" points="350.75,-58 204.25,-58 204.25,-38 350.75,-38 350.75,-58"/>
<text text-anchor="middle" x="277.5" y="-44.5" font-family="Helvetica,sans-Serif" font-size="10.00">FileManagement::clearTokens</text>
</a>
</g>
</g>
<!-- Node1&#45;&gt;Node2 -->
<g id="edge1_Node000001_Node000002" class="edge">
<title>Node1&#45;&gt;Node2</title>
<g id="a_edge1_Node000001_Node000002"><a xlink:title=" ">
<path fill="none" stroke="#63b8ff" d="M168.51,-37.28C176.52,-38.07 184.65,-38.88 192.66,-39.68"/>
<polygon fill="#63b8ff" stroke="#63b8ff" points="192.09,-43.14 202.39,-40.64 192.78,-36.17 192.09,-43.14"/>
</a>
</g>
</g>
<!-- Node3 -->
<g id="Node000003" class="node">
<title>Node3</title>
<g id="a_Node000003"><a xlink:href="../../dd/d06/a00639.html#a638abbc3d621b188f3d8aacc9f218353" target="_top" xlink:title=" ">
<polygon fill="white" stroke="#666666" points="349.62,-20 205.38,-20 205.38,0 349.62,0 349.62,-20"/>
<text text-anchor="middle" x="277.5" y="-6.5" font-family="Helvetica,sans-Serif" font-size="10.00">FileManagement::readTokens</text>
</a>
</g>
</g>
<!-- Node1&#45;&gt;Node3 -->
<g id="edge2_Node000001_Node000003" class="edge">
<title>Node1&#45;&gt;Node3</title>
<g id="a_edge2_Node000001_Node000003"><a xlink:title=" ">
<path fill="none" stroke="#63b8ff" d="M168.51,-20.72C176.89,-19.89 185.39,-19.05 193.77,-18.21"/>
<polygon fill="#63b8ff" stroke="#63b8ff" points="193.96,-21.71 203.57,-17.24 193.27,-14.75 193.96,-21.71"/>
</a>
</g>
</g>
</g>
</svg>
