<?xml version="1.0" encoding="UTF-8" standalone="no"?>
<!DOCTYPE svg PUBLIC "-//W3C//DTD SVG 1.1//EN"
 "http://www.w3.org/Graphics/SVG/1.1/DTD/svg11.dtd">
<!-- Generated by graphviz version 10.0.1 (20240210.2158)
 -->
<!-- Title: GEU::ImageCloudProj::colorRegularMeshByMean Pages: 1 -->
<svg width="493pt" height="210pt"
 viewBox="0.00 0.00 493.25 210.00" xmlns="http://www.w3.org/2000/svg" xmlns:xlink="http://www.w3.org/1999/xlink">
<g id="graph0" class="graph" transform="scale(1 1) rotate(0) translate(4 206)">
<title>GEU::ImageCloudProj::colorRegularMeshByMean</title>
<!-- Node1 -->
<g id="Node000001" class="node">
<title>Node1</title>
<g id="a_Node000001"><a xlink:title=" ">
<polygon fill="#999999" stroke="#666666" points="136,-114 0,-114 0,-82 136,-82 136,-114"/>
<text text-anchor="start" x="8" y="-100.5" font-family="Helvetica,sans-Serif" font-size="10.00">GEU::ImageCloudProj</text>
<text text-anchor="middle" x="68" y="-88.5" font-family="Helvetica,sans-Serif" font-size="10.00">::colorRegularMeshByMean</text>
</a>
</g>
</g>
<!-- Node2 -->
<g id="Node000002" class="node">
<title>Node2</title>
<g id="a_Node000002"><a xlink:href="../../db/d04/class_g_e_u_1_1_model3_d.html#ab1c9f2d432831bde695e19caf32e3ebd" target="_top" xlink:title=" ">
<polygon fill="white" stroke="#666666" points="309.12,-202 182.88,-202 182.88,-182 309.12,-182 309.12,-202"/>
<text text-anchor="middle" x="246" y="-188.5" font-family="Helvetica,sans-Serif" font-size="10.00">GEU::Model3D::getName</text>
</a>
</g>
</g>
<!-- Node1&#45;&gt;Node2 -->
<g id="edge1_Node000001_Node000002" class="edge">
<title>Node1&#45;&gt;Node2</title>
<g id="a_edge1_Node000001_Node000002"><a xlink:title=" ">
<path fill="none" stroke="#63b8ff" d="M87,-114.4C106.56,-131.39 139.41,-157.58 172,-173 175.77,-174.79 179.74,-176.42 183.79,-177.92"/>
<polygon fill="#63b8ff" stroke="#63b8ff" points="182.61,-181.21 193.21,-181.07 184.84,-174.58 182.61,-181.21"/>
</a>
</g>
</g>
<!-- Node3 -->
<g id="Node000003" class="node">
<title>Node3</title>
<g id="a_Node000003"><a xlink:href="../../d4/d07/class_g_e_u_1_1_point_cloud.html#a9a79b080d808d3e589ce16bee701fdcf" target="_top" xlink:title=" ">
<polygon fill="white" stroke="#666666" points="314.75,-164 177.25,-164 177.25,-132 314.75,-132 314.75,-164"/>
<text text-anchor="start" x="185.25" y="-150.5" font-family="Helvetica,sans-Serif" font-size="10.00">GEU::PointCloud::getPoints</text>
<text text-anchor="middle" x="246" y="-138.5" font-family="Helvetica,sans-Serif" font-size="10.00">Color</text>
</a>
</g>
</g>
<!-- Node1&#45;&gt;Node3 -->
<g id="edge2_Node000001_Node000003" class="edge">
<title>Node1&#45;&gt;Node3</title>
<g id="a_edge2_Node000001_Node000003"><a xlink:title=" ">
<path fill="none" stroke="#63b8ff" d="M126.63,-114.37C142.5,-118.88 159.88,-123.82 176.31,-128.48"/>
<polygon fill="#63b8ff" stroke="#63b8ff" points="174.91,-131.73 185.48,-131.09 176.82,-124.99 174.91,-131.73"/>
</a>
</g>
</g>
<!-- Node4 -->
<g id="Node000004" class="node">
<title>Node4</title>
<g id="a_Node000004"><a xlink:href="../../d4/d07/class_g_e_u_1_1_point_cloud.html#adfe68d38eadddf88006ccc5789d5a497" target="_top" xlink:title=" ">
<polygon fill="white" stroke="#666666" points="314.75,-114 177.25,-114 177.25,-82 314.75,-82 314.75,-114"/>
<text text-anchor="start" x="185.25" y="-100.5" font-family="Helvetica,sans-Serif" font-size="10.00">GEU::PointCloud::getPoints</text>
<text text-anchor="middle" x="246" y="-88.5" font-family="Helvetica,sans-Serif" font-size="10.00">Position</text>
</a>
</g>
</g>
<!-- Node1&#45;&gt;Node4 -->
<g id="edge3_Node000001_Node000004" class="edge">
<title>Node1&#45;&gt;Node4</title>
<g id="a_edge3_Node000001_Node000004"><a xlink:title=" ">
<path fill="none" stroke="#63b8ff" d="M136.29,-98C145.85,-98 155.75,-98 165.51,-98"/>
<polygon fill="#63b8ff" stroke="#63b8ff" points="165.36,-101.5 175.36,-98 165.36,-94.5 165.36,-101.5"/>
</a>
</g>
</g>
<!-- Node5 -->
<g id="Node000005" class="node">
<title>Node5</title>
<g id="a_Node000005"><a xlink:href="../../d4/d07/class_g_e_u_1_1_point_cloud.html#a3810f1918091d26db6f7c634570c8a69" target="_top" xlink:title="Obliga a actualizar los recursos OpenGL de esta nube en la siguiente llamada de dibujado.">
<polygon fill="white" stroke="#666666" points="320,-64 172,-64 172,-44 320,-44 320,-64"/>
<text text-anchor="middle" x="246" y="-50.5" font-family="Helvetica,sans-Serif" font-size="10.00">GEU::PointCloud::needUpdate</text>
</a>
</g>
</g>
<!-- Node1&#45;&gt;Node5 -->
<g id="edge4_Node000001_Node000005" class="edge">
<title>Node1&#45;&gt;Node5</title>
<g id="a_edge4_Node000001_Node000005"><a xlink:title=" ">
<path fill="none" stroke="#63b8ff" d="M134.79,-81.55C153.62,-76.85 173.9,-71.77 191.87,-67.28"/>
<polygon fill="#63b8ff" stroke="#63b8ff" points="192.69,-70.68 201.55,-64.86 191,-63.89 192.69,-70.68"/>
</a>
</g>
</g>
<!-- Node6 -->
<g id="Node000006" class="node">
<title>Node6</title>
<g id="a_Node000006"><a xlink:href="../../d8/d02/struct_g_e_u_1_1_v_a_o_1_1_point.html#a4234196f8be419dba1c3ca4468adaa02" target="_top" xlink:title="Packs an RGB color into an unsigned value.">
<polygon fill="white" stroke="#666666" points="315.5,-26 176.5,-26 176.5,-6 315.5,-6 315.5,-26"/>
<text text-anchor="middle" x="246" y="-12.5" font-family="Helvetica,sans-Serif" font-size="10.00">GEU::VAO::Point::saveRGB</text>
</a>
</g>
</g>
<!-- Node1&#45;&gt;Node6 -->
<g id="edge5_Node000001_Node000006" class="edge">
<title>Node1&#45;&gt;Node6</title>
<g id="a_edge5_Node000001_Node000006"><a xlink:title=" ">
<path fill="none" stroke="#63b8ff" d="M91.27,-81.7C111.46,-67.6 142.48,-47.54 172,-35 176.53,-33.08 181.3,-31.31 186.15,-29.69"/>
<polygon fill="#63b8ff" stroke="#63b8ff" points="186.85,-33.14 195.37,-26.84 184.78,-26.45 186.85,-33.14"/>
</a>
</g>
</g>
<!-- Node7 -->
<g id="Node000007" class="node">
<title>Node7</title>
<g id="a_Node000007"><a xlink:href="../../d8/d02/struct_g_e_u_1_1_v_a_o_1_1_point.html#a08369eb10ee0a897e2126bab74bce5ac" target="_top" xlink:title=" ">
<polygon fill="white" stroke="#666666" points="485.25,-32 356,-32 356,0 485.25,0 485.25,-32"/>
<text text-anchor="start" x="364" y="-18.5" font-family="Helvetica,sans-Serif" font-size="10.00">GEU::VAO::Point::get8Bit</text>
<text text-anchor="middle" x="420.62" y="-6.5" font-family="Helvetica,sans-Serif" font-size="10.00">RGBColor</text>
</a>
</g>
</g>
<!-- Node6&#45;&gt;Node7 -->
<g id="edge6_Node000006_Node000007" class="edge">
<title>Node6&#45;&gt;Node7</title>
<g id="a_edge6_Node000006_Node000007"><a xlink:title=" ">
<path fill="none" stroke="#63b8ff" d="M315.72,-16C325.08,-16 334.73,-16 344.2,-16"/>
<polygon fill="#63b8ff" stroke="#63b8ff" points="344.11,-19.5 354.11,-16 344.11,-12.5 344.11,-19.5"/>
</a>
</g>
</g>
</g>
</svg>
