<?xml version="1.0" encoding="UTF-8" standalone="no"?>
<!DOCTYPE svg PUBLIC "-//W3C//DTD SVG 1.1//EN"
 "http://www.w3.org/Graphics/SVG/1.1/DTD/svg11.dtd">
<!-- Generated by graphviz version 10.0.1 (20240210.2158)
 -->
<!-- Title: GEU::ImageCloudProj::reconstructionCloudMDT Pages: 1 -->
<svg width="477pt" height="40pt"
 viewBox="0.00 0.00 476.75 40.00" xmlns="http://www.w3.org/2000/svg" xmlns:xlink="http://www.w3.org/1999/xlink">
<g id="graph0" class="graph" transform="scale(1 1) rotate(0) translate(4 36)">
<title>GEU::ImageCloudProj::reconstructionCloudMDT</title>
<!-- Node1 -->
<g id="Node000001" class="node">
<title>Node1</title>
<g id="a_Node000001"><a xlink:title="Reconstruction Cloud MDT.">
<polygon fill="#999999" stroke="#666666" points="128.5,-32 0,-32 0,0 128.5,0 128.5,-32"/>
<text text-anchor="start" x="8" y="-18.5" font-family="Helvetica,sans-Serif" font-size="10.00">GEU::ImageCloudProj</text>
<text text-anchor="middle" x="64.25" y="-6.5" font-family="Helvetica,sans-Serif" font-size="10.00">::reconstructionCloudMDT</text>
</a>
</g>
</g>
<!-- Node2 -->
<g id="Node000002" class="node">
<title>Node2</title>
<g id="a_Node000002"><a xlink:href="../../d8/d02/struct_g_e_u_1_1_v_a_o_1_1_point.html#a4234196f8be419dba1c3ca4468adaa02" target="_top" xlink:title="Packs an RGB color into an unsigned value.">
<polygon fill="white" stroke="#666666" points="303.5,-26 164.5,-26 164.5,-6 303.5,-6 303.5,-26"/>
<text text-anchor="middle" x="234" y="-12.5" font-family="Helvetica,sans-Serif" font-size="10.00">GEU::VAO::Point::saveRGB</text>
</a>
</g>
</g>
<!-- Node1&#45;&gt;Node2 -->
<g id="edge1_Node000001_Node000002" class="edge">
<title>Node1&#45;&gt;Node2</title>
<g id="a_edge1_Node000001_Node000002"><a xlink:title=" ">
<path fill="none" stroke="#63b8ff" d="M128.67,-16C136.55,-16 144.69,-16 152.79,-16"/>
<polygon fill="#63b8ff" stroke="#63b8ff" points="152.65,-19.5 162.65,-16 152.65,-12.5 152.65,-19.5"/>
</a>
</g>
</g>
<!-- Node3 -->
<g id="Node000003" class="node">
<title>Node3</title>
<g id="a_Node000003"><a xlink:href="../../d8/d02/struct_g_e_u_1_1_v_a_o_1_1_point.html#a08369eb10ee0a897e2126bab74bce5ac" target="_top" xlink:title=" ">
<polygon fill="white" stroke="#666666" points="468.75,-32 339.5,-32 339.5,0 468.75,0 468.75,-32"/>
<text text-anchor="start" x="347.5" y="-18.5" font-family="Helvetica,sans-Serif" font-size="10.00">GEU::VAO::Point::get8Bit</text>
<text text-anchor="middle" x="404.12" y="-6.5" font-family="Helvetica,sans-Serif" font-size="10.00">RGBColor</text>
</a>
</g>
</g>
<!-- Node2&#45;&gt;Node3 -->
<g id="edge2_Node000002_Node000003" class="edge">
<title>Node2&#45;&gt;Node3</title>
<g id="a_edge2_Node000002_Node000003"><a xlink:title=" ">
<path fill="none" stroke="#63b8ff" d="M303.87,-16C311.82,-16 319.96,-16 327.99,-16"/>
<polygon fill="#63b8ff" stroke="#63b8ff" points="327.72,-19.5 337.72,-16 327.72,-12.5 327.72,-19.5"/>
</a>
</g>
</g>
</g>
</svg>
