<?xml version="1.0" encoding="UTF-8" standalone="no"?>
<!DOCTYPE svg PUBLIC "-//W3C//DTD SVG 1.1//EN"
 "http://www.w3.org/Graphics/SVG/1.1/DTD/svg11.dtd">
<!-- Generated by graphviz version 10.0.1 (20240210.2158)
 -->
<!-- Title: GEU::Texture::getId Pages: 1 -->
<svg width="297pt" height="228pt"
 viewBox="0.00 0.00 297.25 228.00" xmlns="http://www.w3.org/2000/svg" xmlns:xlink="http://www.w3.org/1999/xlink">
<g id="graph0" class="graph" transform="scale(1 1) rotate(0) translate(4 224)">
<title>GEU::Texture::getId</title>
<!-- Node1 -->
<g id="Node000001" class="node">
<title>Node1</title>
<g id="a_Node000001"><a xlink:title=" ">
<polygon fill="#999999" stroke="#666666" points="289.25,-126 187,-126 187,-106 289.25,-106 289.25,-126"/>
<text text-anchor="middle" x="238.12" y="-112.5" font-family="Helvetica,sans-Serif" font-size="10.00">GEU::Texture::getId</text>
</a>
</g>
</g>
<!-- Node2 -->
<g id="Node000002" class="node">
<title>Node2</title>
<g id="a_Node000002"><a xlink:href="../../d4/d02/a01405.html#a2b8baba4b8a225b0f5db55bdd7565443" target="_top" xlink:title=" ">
<polygon fill="white" stroke="#666666" points="151,-220 0,-220 0,-200 151,-200 151,-220"/>
<text text-anchor="middle" x="75.5" y="-206.5" font-family="Helvetica,sans-Serif" font-size="10.00">GEU::FBORender::FBORender</text>
</a>
</g>
</g>
<!-- Node1&#45;&gt;Node2 -->
<g id="edge1_Node000001_Node000002" class="edge">
<title>Node1&#45;&gt;Node2</title>
<g id="a_edge1_Node000001_Node000002"><a xlink:title=" ">
<path fill="none" stroke="#63b8ff" d="M220.72,-134.59C204.61,-151.71 178.51,-176.57 151,-191 144.5,-194.41 137.35,-197.23 130.14,-199.56"/>
<polygon fill="#63b8ff" stroke="#63b8ff" points="222.99,-137.29 227.16,-127.56 217.83,-132.56 222.99,-137.29"/>
</a>
</g>
</g>
<!-- Node3 -->
<g id="Node000003" class="node">
<title>Node3</title>
<g id="a_Node000003"><a xlink:href="../../df/d03/a01765.html#ad015f60d22d7acb74f54f3d2238a92f0" target="_top" xlink:title="Makes and handles basic texture image view.">
<polygon fill="white" stroke="#666666" points="141.62,-182 9.38,-182 9.38,-150 141.62,-150 141.62,-182"/>
<text text-anchor="start" x="17.38" y="-168.5" font-family="Helvetica,sans-Serif" font-size="10.00">GEU::DetailsWindow</text>
<text text-anchor="middle" x="75.5" y="-156.5" font-family="Helvetica,sans-Serif" font-size="10.00">::makeBasicTextureViewer</text>
</a>
</g>
</g>
<!-- Node1&#45;&gt;Node3 -->
<g id="edge2_Node000001_Node000003" class="edge">
<title>Node1&#45;&gt;Node3</title>
<g id="a_edge2_Node000001_Node000003"><a xlink:title=" ">
<path fill="none" stroke="#63b8ff" d="M192.68,-129.84C173.08,-135.94 149.9,-143.15 129.41,-149.53"/>
<polygon fill="#63b8ff" stroke="#63b8ff" points="193.5,-133.25 202.01,-126.93 191.42,-126.56 193.5,-133.25"/>
</a>
</g>
</g>
<!-- Node4 -->
<g id="Node000004" class="node">
<title>Node4</title>
<g id="a_Node000004"><a xlink:href="../../de/d07/a00550.html#a40cdeaa939ccd13a01c629265c618012" target="_top" xlink:title=" ">
<polygon fill="white" stroke="#666666" points="125.5,-132 25.5,-132 25.5,-100 125.5,-100 125.5,-132"/>
<text text-anchor="start" x="33.5" y="-118.5" font-family="Helvetica,sans-Serif" font-size="10.00">GEU::GuiUtilities::</text>
<text text-anchor="middle" x="75.5" y="-106.5" font-family="Helvetica,sans-Serif" font-size="10.00">makeImageViewFill</text>
</a>
</g>
</g>
<!-- Node1&#45;&gt;Node4 -->
<g id="edge3_Node000001_Node000004" class="edge">
<title>Node1&#45;&gt;Node4</title>
<g id="a_edge3_Node000001_Node000004"><a xlink:title=" ">
<path fill="none" stroke="#63b8ff" d="M175.57,-116C159.13,-116 141.57,-116 125.88,-116"/>
<polygon fill="#63b8ff" stroke="#63b8ff" points="175.23,-119.5 185.23,-116 175.23,-112.5 175.23,-119.5"/>
</a>
</g>
</g>
<!-- Node5 -->
<g id="Node000005" class="node">
<title>Node5</title>
<g id="a_Node000005"><a xlink:href="../../de/d07/a00550.html#adbb3c8396add1b87a5fdf15e76c4c32f" target="_top" xlink:title=" ">
<polygon fill="white" stroke="#666666" points="129.62,-82 21.38,-82 21.38,-50 129.62,-50 129.62,-82"/>
<text text-anchor="start" x="29.38" y="-68.5" font-family="Helvetica,sans-Serif" font-size="10.00">GEU::GuiUtilities::</text>
<text text-anchor="middle" x="75.5" y="-56.5" font-family="Helvetica,sans-Serif" font-size="10.00">makeImageZoomable</text>
</a>
</g>
</g>
<!-- Node1&#45;&gt;Node5 -->
<g id="edge4_Node000001_Node000005" class="edge">
<title>Node1&#45;&gt;Node5</title>
<g id="a_edge4_Node000001_Node000005"><a xlink:title=" ">
<path fill="none" stroke="#63b8ff" d="M192.68,-102.16C173.08,-96.06 149.9,-88.85 129.41,-82.47"/>
<polygon fill="#63b8ff" stroke="#63b8ff" points="191.42,-105.44 202.01,-105.07 193.5,-98.75 191.42,-105.44"/>
</a>
</g>
</g>
<!-- Node6 -->
<g id="Node000006" class="node">
<title>Node6</title>
<g id="a_Node000006"><a xlink:href="../../de/d07/a00550.html#a4dc25bbb3f52a3eee9dda90f4e695195" target="_top" xlink:title=" ">
<polygon fill="white" stroke="#666666" points="123.62,-32 27.38,-32 27.38,0 123.62,0 123.62,-32"/>
<text text-anchor="start" x="35.38" y="-18.5" font-family="Helvetica,sans-Serif" font-size="10.00">GEU::GuiUtilities::</text>
<text text-anchor="middle" x="75.5" y="-6.5" font-family="Helvetica,sans-Serif" font-size="10.00">renderTexture</text>
</a>
</g>
</g>
<!-- Node1&#45;&gt;Node6 -->
<g id="edge5_Node000001_Node000006" class="edge">
<title>Node1&#45;&gt;Node6</title>
<g id="a_edge5_Node000001_Node000006"><a xlink:title=" ">
<path fill="none" stroke="#63b8ff" d="M220.2,-97.59C203.9,-80.81 177.81,-56.36 151,-41 142.59,-36.19 133.12,-32.12 123.82,-28.76"/>
<polygon fill="#63b8ff" stroke="#63b8ff" points="217.32,-99.64 226.75,-104.48 222.4,-94.82 217.32,-99.64"/>
</a>
</g>
</g>
</g>
</svg>
