<?xml version="1.0" encoding="UTF-8" standalone="no"?>
<!DOCTYPE svg PUBLIC "-//W3C//DTD SVG 1.1//EN"
 "http://www.w3.org/Graphics/SVG/1.1/DTD/svg11.dtd">
<!-- Generated by graphviz version 10.0.1 (20240210.2158)
 -->
<!-- Title: json::jobject::entry::as_string Pages: 1 -->
<svg width="253pt" height="116pt"
 viewBox="0.00 0.00 253.00 116.00" xmlns="http://www.w3.org/2000/svg" xmlns:xlink="http://www.w3.org/1999/xlink">
<g id="graph0" class="graph" transform="scale(1 1) rotate(0) translate(4 112)">
<title>json::jobject::entry::as_string</title>
<!-- Node1 -->
<g id="Node000001" class="node">
<title>Node1</title>
<g id="a_Node000001"><a xlink:title="Returns a string representation of the value.">
<polygon fill="#999999" stroke="#666666" points="96.25,-64 0,-64 0,-32 96.25,-32 96.25,-64"/>
<text text-anchor="start" x="8" y="-50.5" font-family="Helvetica,sans-Serif" font-size="10.00">json::jobject::entry</text>
<text text-anchor="middle" x="48.12" y="-38.5" font-family="Helvetica,sans-Serif" font-size="10.00">::as_string</text>
</a>
</g>
</g>
<!-- Node2 -->
<g id="Node000002" class="node">
<title>Node2</title>
<g id="a_Node000002"><a xlink:href="../../df/d07/a00642.html#a38da988d5211eacc7d4b76da2236e51a" target="_top" xlink:title="Decodes a string in JSON format.">
<polygon fill="white" stroke="#666666" points="243.12,-108 134.12,-108 134.12,-76 243.12,-76 243.12,-108"/>
<text text-anchor="start" x="142.12" y="-94.5" font-family="Helvetica,sans-Serif" font-size="10.00">json::parsing::decode</text>
<text text-anchor="middle" x="188.62" y="-82.5" font-family="Helvetica,sans-Serif" font-size="10.00">_string</text>
</a>
</g>
</g>
<!-- Node1&#45;&gt;Node2 -->
<g id="edge1_Node000001_Node000002" class="edge">
<title>Node1&#45;&gt;Node2</title>
<g id="a_edge1_Node000001_Node000002"><a xlink:title=" ">
<path fill="none" stroke="#63b8ff" d="M96.4,-63.02C105.63,-65.95 115.43,-69.06 125.06,-72.12"/>
<polygon fill="#63b8ff" stroke="#63b8ff" points="123.78,-75.39 134.37,-75.08 125.9,-68.72 123.78,-75.39"/>
</a>
</g>
</g>
<!-- Node3 -->
<g id="Node000003" class="node">
<title>Node3</title>
<g id="a_Node000003"><a xlink:href="../../db/d02/a00641.html#a41134b9f4ec1ec6b8db4f8027536b762" target="_top" xlink:title=" ">
<polygon fill="white" stroke="#666666" points="232.62,-58 144.62,-58 144.62,-38 232.62,-38 232.62,-58"/>
<text text-anchor="middle" x="188.62" y="-44.5" font-family="Helvetica,sans-Serif" font-size="10.00">json::jtype::peek</text>
</a>
</g>
</g>
<!-- Node1&#45;&gt;Node3 -->
<g id="edge2_Node000001_Node000003" class="edge">
<title>Node1&#45;&gt;Node3</title>
<g id="a_edge2_Node000001_Node000003"><a xlink:title=" ">
<path fill="none" stroke="#63b8ff" d="M96.4,-48C108.16,-48 120.86,-48 132.94,-48"/>
<polygon fill="#63b8ff" stroke="#63b8ff" points="132.77,-51.5 142.77,-48 132.77,-44.5 132.77,-51.5"/>
</a>
</g>
</g>
<!-- Node4 -->
<g id="Node000004" class="node">
<title>Node4</title>
<g id="a_Node000004"><a xlink:href="../../d3/d03/a02004.html#a8543f20adc3735f8b96607891db655f3" target="_top" xlink:title="A method for reference the entry&#39;s value.">
<polygon fill="white" stroke="#666666" points="245,-20 132.25,-20 132.25,0 245,0 245,-20"/>
<text text-anchor="middle" x="188.62" y="-6.5" font-family="Helvetica,sans-Serif" font-size="10.00">json::jobject::entry::ref</text>
</a>
</g>
</g>
<!-- Node1&#45;&gt;Node4 -->
<g id="edge3_Node000001_Node000004" class="edge">
<title>Node1&#45;&gt;Node4</title>
<g id="a_edge3_Node000001_Node000004"><a xlink:title=" ">
<path fill="none" stroke="#63b8ff" d="M96.4,-35.03C110.13,-31.26 125.14,-27.14 138.95,-23.35"/>
<polygon fill="#63b8ff" stroke="#63b8ff" points="139.55,-26.82 148.26,-20.8 137.69,-20.07 139.55,-26.82"/>
</a>
</g>
</g>
</g>
</svg>
