<?xml version="1.0" encoding="UTF-8" standalone="no"?>
<!DOCTYPE svg PUBLIC "-//W3C//DTD SVG 1.1//EN"
 "http://www.w3.org/Graphics/SVG/1.1/DTD/svg11.dtd">
<!-- Generated by graphviz version 10.0.1 (20240210.2158)
 -->
<!-- Title: json::jobject::entry::jobject Pages: 1 -->
<svg width="796pt" height="182pt"
 viewBox="0.00 0.00 795.50 182.00" xmlns="http://www.w3.org/2000/svg" xmlns:xlink="http://www.w3.org/1999/xlink">
<g id="graph0" class="graph" transform="scale(1 1) rotate(0) translate(4 178)">
<title>json::jobject::entry::jobject</title>
<!-- Node1 -->
<g id="Node000001" class="node">
<title>Node1</title>
<g id="a_Node000001"><a xlink:title=" ">
<polygon fill="#999999" stroke="#666666" points="96.25,-92 0,-92 0,-60 96.25,-60 96.25,-92"/>
<text text-anchor="start" x="8" y="-78.5" font-family="Helvetica,sans-Serif" font-size="10.00">json::jobject::entry</text>
<text text-anchor="middle" x="48.12" y="-66.5" font-family="Helvetica,sans-Serif" font-size="10.00">::jobject</text>
</a>
</g>
</g>
<!-- Node2 -->
<g id="Node000002" class="node">
<title>Node2</title>
<g id="a_Node000002"><a xlink:href="../../d3/d03/a02004.html#a91afe1e18521515266c501b7ce74bdf3" target="_top" xlink:title="Casts the value as a JSON object.">
<polygon fill="white" stroke="#666666" points="228.5,-92 132.25,-92 132.25,-60 228.5,-60 228.5,-92"/>
<text text-anchor="start" x="140.25" y="-78.5" font-family="Helvetica,sans-Serif" font-size="10.00">json::jobject::entry</text>
<text text-anchor="middle" x="180.38" y="-66.5" font-family="Helvetica,sans-Serif" font-size="10.00">::as_object</text>
</a>
</g>
</g>
<!-- Node1&#45;&gt;Node2 -->
<g id="edge1_Node000001_Node000002" class="edge">
<title>Node1&#45;&gt;Node2</title>
<g id="a_edge1_Node000001_Node000002"><a xlink:title=" ">
<path fill="none" stroke="#63b8ff" d="M96.52,-76C104.33,-76 112.51,-76 120.56,-76"/>
<polygon fill="#63b8ff" stroke="#63b8ff" points="120.29,-79.5 130.29,-76 120.29,-72.5 120.29,-79.5"/>
</a>
</g>
</g>
<!-- Node3 -->
<g id="Node000003" class="node">
<title>Node3</title>
<g id="a_Node000003"><a xlink:href="../../da/d01/a02000.html#a07e29a2948df56e3eb332fcebe6ab9d5" target="_top" xlink:title="Parses a serialized JSON string.">
<polygon fill="white" stroke="#666666" points="370.12,-105 271.62,-105 271.62,-85 370.12,-85 370.12,-105"/>
<text text-anchor="middle" x="320.88" y="-91.5" font-family="Helvetica,sans-Serif" font-size="10.00">json::jobject::parse</text>
</a>
</g>
</g>
<!-- Node2&#45;&gt;Node3 -->
<g id="edge2_Node000002_Node000003" class="edge">
<title>Node2&#45;&gt;Node3</title>
<g id="a_edge2_Node000002_Node000003"><a xlink:title=" ">
<path fill="none" stroke="#63b8ff" d="M228.65,-82.49C238.78,-83.88 249.61,-85.36 260.14,-86.8"/>
<polygon fill="#63b8ff" stroke="#63b8ff" points="259.52,-90.25 269.9,-88.14 260.47,-83.32 259.52,-90.25"/>
</a>
</g>
</g>
<!-- Node13 -->
<g id="Node000013" class="node">
<title>Node13</title>
<g id="a_Node000013"><a xlink:href="../../d3/d03/a02004.html#a8543f20adc3735f8b96607891db655f3" target="_top" xlink:title="A method for reference the entry&#39;s value.">
<polygon fill="white" stroke="#666666" points="377.25,-67 264.5,-67 264.5,-47 377.25,-47 377.25,-67"/>
<text text-anchor="middle" x="320.88" y="-53.5" font-family="Helvetica,sans-Serif" font-size="10.00">json::jobject::entry::ref</text>
</a>
</g>
</g>
<!-- Node2&#45;&gt;Node13 -->
<g id="edge14_Node000002_Node000013" class="edge">
<title>Node2&#45;&gt;Node13</title>
<g id="a_edge14_Node000002_Node000013"><a xlink:title=" ">
<path fill="none" stroke="#63b8ff" d="M228.65,-69.51C236.52,-68.44 244.81,-67.3 253.05,-66.17"/>
<polygon fill="#63b8ff" stroke="#63b8ff" points="253.28,-69.67 262.71,-64.84 252.33,-62.73 253.28,-69.67"/>
</a>
</g>
</g>
<!-- Node4 -->
<g id="Node000004" class="node">
<title>Node4</title>
<g id="a_Node000004"><a xlink:href="../../df/d07/a00642.html#a38da988d5211eacc7d4b76da2236e51a" target="_top" xlink:title="Decodes a string in JSON format.">
<polygon fill="white" stroke="#666666" points="522.25,-174 413.25,-174 413.25,-142 522.25,-142 522.25,-174"/>
<text text-anchor="start" x="421.25" y="-160.5" font-family="Helvetica,sans-Serif" font-size="10.00">json::parsing::decode</text>
<text text-anchor="middle" x="467.75" y="-148.5" font-family="Helvetica,sans-Serif" font-size="10.00">_string</text>
</a>
</g>
</g>
<!-- Node3&#45;&gt;Node4 -->
<g id="edge3_Node000003_Node000004" class="edge">
<title>Node3&#45;&gt;Node4</title>
<g id="a_edge3_Node000003_Node000004"><a xlink:title=" ">
<path fill="none" stroke="#63b8ff" d="M345.8,-105.4C365.47,-113.96 393.98,-126.35 418.38,-136.96"/>
<polygon fill="#63b8ff" stroke="#63b8ff" points="416.94,-140.16 427.51,-140.94 419.73,-133.74 416.94,-140.16"/>
</a>
</g>
</g>
<!-- Node5 -->
<g id="Node000005" class="node">
<title>Node5</title>
<g id="a_Node000005"><a xlink:href="../../da/d01/a02000.html#a24ec98b78f9e603359f71f805a152739" target="_top" xlink:title="Flag for differentiating objects and arrays.">
<polygon fill="white" stroke="#666666" points="522.25,-124 413.25,-124 413.25,-104 522.25,-104 522.25,-124"/>
<text text-anchor="middle" x="467.75" y="-110.5" font-family="Helvetica,sans-Serif" font-size="10.00">json::jobject::is_array</text>
</a>
</g>
</g>
<!-- Node3&#45;&gt;Node5 -->
<g id="edge4_Node000003_Node000005" class="edge">
<title>Node3&#45;&gt;Node5</title>
<g id="a_edge4_Node000003_Node000005"><a xlink:title=" ">
<path fill="none" stroke="#63b8ff" d="M370.52,-101.38C380.54,-102.69 391.24,-104.1 401.74,-105.47"/>
<polygon fill="#63b8ff" stroke="#63b8ff" points="401.13,-108.92 411.5,-106.75 402.04,-101.98 401.13,-108.92"/>
</a>
</g>
</g>
<!-- Node6 -->
<g id="Node000006" class="node">
<title>Node6</title>
<g id="a_Node000006"><a xlink:href="../../df/d07/a00642.html#a2b8591533a42f229d2070223a6c48aa7" target="_top" xlink:title="Parses the first value encountered in a JSON string.">
<polygon fill="white" stroke="#666666" points="518.5,-86 417,-86 417,-66 518.5,-66 518.5,-86"/>
<text text-anchor="middle" x="467.75" y="-72.5" font-family="Helvetica,sans-Serif" font-size="10.00">json::parsing::parse</text>
</a>
</g>
</g>
<!-- Node3&#45;&gt;Node6 -->
<g id="edge5_Node000003_Node000006" class="edge">
<title>Node3&#45;&gt;Node6</title>
<g id="a_edge5_Node000003_Node000006"><a xlink:title=" ">
<path fill="none" stroke="#63b8ff" d="M370.52,-88.62C381.62,-87.17 393.55,-85.6 405.11,-84.08"/>
<polygon fill="#63b8ff" stroke="#63b8ff" points="405.54,-87.56 415,-82.79 404.63,-80.62 405.54,-87.56"/>
</a>
</g>
</g>
<!-- Node11 -->
<g id="Node000011" class="node">
<title>Node11</title>
<g id="a_Node000011"><a xlink:href="../../df/d07/a00642.html#a0ead22b90b3354cc09a0a21e517e9385" target="_top" xlink:title="(t)rims (l)eading (w)hite (s)pace">
<polygon fill="white" stroke="#666666" points="658.25,-20 563.5,-20 563.5,0 658.25,0 658.25,-20"/>
<text text-anchor="middle" x="610.88" y="-6.5" font-family="Helvetica,sans-Serif" font-size="10.00">json::parsing::tlws</text>
</a>
</g>
</g>
<!-- Node3&#45;&gt;Node11 -->
<g id="edge13_Node000003_Node000011" class="edge">
<title>Node3&#45;&gt;Node11</title>
<g id="a_edge13_Node000003_Node000011"><a xlink:title=" ">
<path fill="none" stroke="#63b8ff" d="M354.99,-84.58C362.4,-81.99 370.16,-79.07 377.25,-76 393.86,-68.82 396.32,-63.38 413.25,-57 458.64,-39.91 512.32,-27.57 552.11,-19.84"/>
<polygon fill="#63b8ff" stroke="#63b8ff" points="552.55,-23.32 561.72,-18.02 551.24,-16.44 552.55,-23.32"/>
</a>
</g>
</g>
<!-- Node7 -->
<g id="Node000007" class="node">
<title>Node7</title>
<g id="a_Node000007"><a xlink:href="../../d5/d01/a01988.html#afefb8447a7db13bc4f6f7dc5f12a22c2" target="_top" xlink:title="Checks if the stored value is valid.">
<polygon fill="white" stroke="#666666" points="663.12,-172 558.62,-172 558.62,-152 663.12,-152 663.12,-172"/>
<text text-anchor="middle" x="610.88" y="-158.5" font-family="Helvetica,sans-Serif" font-size="10.00">json::reader::is_valid</text>
</a>
</g>
</g>
<!-- Node6&#45;&gt;Node7 -->
<g id="edge6_Node000006_Node000007" class="edge">
<title>Node6&#45;&gt;Node7</title>
<g id="a_edge6_Node000006_Node000007"><a xlink:title=" ">
<path fill="none" stroke="#63b8ff" d="M506.99,-86.44C512.38,-88.78 517.65,-91.61 522.25,-95 543.73,-110.8 536.86,-127.08 558.25,-143 559.8,-144.16 561.44,-145.25 563.12,-146.28"/>
<polygon fill="#63b8ff" stroke="#63b8ff" points="561.41,-149.34 571.9,-150.84 564.64,-143.12 561.41,-149.34"/>
</a>
</g>
</g>
<!-- Node8 -->
<g id="Node000008" class="node">
<title>Node8</title>
<g id="a_Node000008"><a xlink:href="../../d5/d01/a01988.html#aa1d0e99cecf438761764c16fa39134d1" target="_top" xlink:title=" ">
<polygon fill="white" stroke="#666666" points="657.88,-134 563.88,-134 563.88,-114 657.88,-114 657.88,-134"/>
<text text-anchor="middle" x="610.88" y="-120.5" font-family="Helvetica,sans-Serif" font-size="10.00">json::reader::push</text>
</a>
</g>
</g>
<!-- Node6&#45;&gt;Node8 -->
<g id="edge7_Node000006_Node000008" class="edge">
<title>Node6&#45;&gt;Node8</title>
<g id="a_edge7_Node000006_Node000008"><a xlink:title=" ">
<path fill="none" stroke="#63b8ff" d="M499.37,-86.42C519.62,-93.3 546.42,-102.42 568.55,-109.94"/>
<polygon fill="#63b8ff" stroke="#63b8ff" points="567.29,-113.21 577.88,-113.12 569.54,-106.58 567.29,-113.21"/>
</a>
</g>
</g>
<!-- Node10 -->
<g id="Node000010" class="node">
<title>Node10</title>
<g id="a_Node000010"><a xlink:href="../../d5/d01/a01988.html#ae1cfe678a10a9d0a4b04ad5ff64c43c9" target="_top" xlink:title="Returns the stored value.">
<polygon fill="white" stroke="#666666" points="663.5,-96 558.25,-96 558.25,-76 663.5,-76 663.5,-96"/>
<text text-anchor="middle" x="610.88" y="-82.5" font-family="Helvetica,sans-Serif" font-size="10.00">json::reader::readout</text>
</a>
</g>
</g>
<!-- Node6&#45;&gt;Node10 -->
<g id="edge9_Node000006_Node000010" class="edge">
<title>Node6&#45;&gt;Node10</title>
<g id="a_edge9_Node000006_Node000010"><a xlink:title=" ">
<path fill="none" stroke="#63b8ff" d="M518.9,-79.55C527.91,-80.19 537.41,-80.87 546.74,-81.53"/>
<polygon fill="#63b8ff" stroke="#63b8ff" points="546.24,-85 556.47,-82.22 546.74,-78.02 546.24,-85"/>
</a>
</g>
</g>
<!-- Node6&#45;&gt;Node11 -->
<g id="edge10_Node000006_Node000011" class="edge">
<title>Node6&#45;&gt;Node11</title>
<g id="a_edge10_Node000006_Node000011"><a xlink:title=" ">
<path fill="none" stroke="#63b8ff" d="M486.91,-65.56C504.76,-55.52 532.91,-40.26 558.25,-29 561.61,-27.51 565.13,-26.03 568.68,-24.61"/>
<polygon fill="#63b8ff" stroke="#63b8ff" points="569.83,-27.91 577.9,-21.04 567.31,-21.38 569.83,-27.91"/>
</a>
</g>
</g>
<!-- Node12 -->
<g id="Node000012" class="node">
<title>Node12</title>
<g id="a_Node000012"><a xlink:href="../../d5/d01/a01988.html#aec12648e76c0f529f892d89d4fabfe4c" target="_top" xlink:title="Checks the value.">
<polygon fill="white" stroke="#666666" points="656.75,-58 565,-58 565,-38 656.75,-38 656.75,-58"/>
<text text-anchor="middle" x="610.88" y="-44.5" font-family="Helvetica,sans-Serif" font-size="10.00">json::reader::type</text>
</a>
</g>
</g>
<!-- Node6&#45;&gt;Node12 -->
<g id="edge11_Node000006_Node000012" class="edge">
<title>Node6&#45;&gt;Node12</title>
<g id="a_edge11_Node000006_Node000012"><a xlink:title=" ">
<path fill="none" stroke="#63b8ff" d="M518.9,-66.05C530.07,-63.83 541.99,-61.47 553.4,-59.21"/>
<polygon fill="#63b8ff" stroke="#63b8ff" points="553.97,-62.66 563.1,-57.28 552.61,-55.79 553.97,-62.66"/>
</a>
</g>
</g>
<!-- Node9 -->
<g id="Node000009" class="node">
<title>Node9</title>
<g id="a_Node000009"><a xlink:href="../../db/d02/a00641.html#a41134b9f4ec1ec6b8db4f8027536b762" target="_top" xlink:title=" ">
<polygon fill="white" stroke="#666666" points="787.5,-96 699.5,-96 699.5,-76 787.5,-76 787.5,-96"/>
<text text-anchor="middle" x="743.5" y="-82.5" font-family="Helvetica,sans-Serif" font-size="10.00">json::jtype::peek</text>
</a>
</g>
</g>
<!-- Node8&#45;&gt;Node9 -->
<g id="edge8_Node000008_Node000009" class="edge">
<title>Node8&#45;&gt;Node9</title>
<g id="a_edge8_Node000008_Node000009"><a xlink:title=" ">
<path fill="none" stroke="#63b8ff" d="M647.91,-113.52C662.76,-109.2 680.16,-104.14 695.95,-99.54"/>
<polygon fill="#63b8ff" stroke="#63b8ff" points="696.5,-103.03 705.12,-96.87 694.55,-96.31 696.5,-103.03"/>
</a>
</g>
</g>
<!-- Node12&#45;&gt;Node9 -->
<g id="edge12_Node000012_Node000009" class="edge">
<title>Node12&#45;&gt;Node9</title>
<g id="a_edge12_Node000012_Node000009"><a xlink:title=" ">
<path fill="none" stroke="#63b8ff" d="M647.91,-58.48C662.76,-62.8 680.16,-67.86 695.95,-72.46"/>
<polygon fill="#63b8ff" stroke="#63b8ff" points="694.55,-75.69 705.12,-75.13 696.5,-68.97 694.55,-75.69"/>
</a>
</g>
</g>
</g>
</svg>
