<?xml version="1.0" encoding="UTF-8" standalone="no"?>
<!DOCTYPE svg PUBLIC "-//W3C//DTD SVG 1.1//EN"
 "http://www.w3.org/Graphics/SVG/1.1/DTD/svg11.dtd">
<!-- Generated by graphviz version 10.0.1 (20240210.2158)
 -->
<!-- Title: GEU::LightAttenuation Pages: 1 -->
<svg width="407pt" height="84pt"
 viewBox="0.00 0.00 407.12 84.00" xmlns="http://www.w3.org/2000/svg" xmlns:xlink="http://www.w3.org/1999/xlink">
<g id="graph0" class="graph" transform="scale(1 1) rotate(0) translate(4 80)">
<title>GEU::LightAttenuation</title>
<!-- Node1 -->
<g id="Node000001" class="node">
<title>Node1</title>
<g id="a_Node000001"><a xlink:title=" ">
<polygon fill="#999999" stroke="#666666" points="257.38,-76 143.88,-76 143.88,-56 257.38,-56 257.38,-76"/>
<text text-anchor="middle" x="200.62" y="-62.5" font-family="Helvetica,sans-Serif" font-size="10.00">GEU::LightAttenuation</text>
</a>
</g>
</g>
<!-- Node2 -->
<g id="Node000002" class="node">
<title>Node2</title>
<g id="a_Node000002"><a xlink:href="../../d0/d9a/class_g_e_u_1_1_basic_attenuation.html" target="_top" xlink:title=" ">
<polygon fill="white" stroke="#666666" points="117.25,-20 0,-20 0,0 117.25,0 117.25,-20"/>
<text text-anchor="middle" x="58.62" y="-6.5" font-family="Helvetica,sans-Serif" font-size="10.00">GEU::BasicAttenuation</text>
</a>
</g>
</g>
<!-- Node1&#45;&gt;Node2 -->
<g id="edge1_Node000001_Node000002" class="edge">
<title>Node1&#45;&gt;Node2</title>
<g id="a_edge1_Node000001_Node000002"><a xlink:title=" ">
<path fill="none" stroke="#63b8ff" d="M165.21,-51.53C139.8,-41.87 106.18,-29.08 83.55,-20.48"/>
<polygon fill="#63b8ff" stroke="#63b8ff" points="163.88,-54.77 174.48,-55.06 166.37,-48.23 163.88,-54.77"/>
</a>
</g>
</g>
<!-- Node3 -->
<g id="Node000003" class="node">
<title>Node3</title>
<g id="a_Node000003"><a xlink:href="../../d3/d29/class_g_e_u_1_1_distance_attenuation.html" target="_top" xlink:title=" ">
<polygon fill="white" stroke="#666666" points="266,-20 135.25,-20 135.25,0 266,0 266,-20"/>
<text text-anchor="middle" x="200.62" y="-6.5" font-family="Helvetica,sans-Serif" font-size="10.00">GEU::DistanceAttenuation</text>
</a>
</g>
</g>
<!-- Node1&#45;&gt;Node3 -->
<g id="edge2_Node000001_Node000003" class="edge">
<title>Node1&#45;&gt;Node3</title>
<g id="a_edge2_Node000001_Node000003"><a xlink:title=" ">
<path fill="none" stroke="#63b8ff" d="M200.62,-44.13C200.62,-35.9 200.62,-26.85 200.62,-20.3"/>
<polygon fill="#63b8ff" stroke="#63b8ff" points="197.13,-44.08 200.63,-54.08 204.13,-44.08 197.13,-44.08"/>
</a>
</g>
</g>
<!-- Node4 -->
<g id="Node000004" class="node">
<title>Node4</title>
<g id="a_Node000004"><a xlink:href="../../d5/d6e/class_g_e_u_1_1_pixar_attenuation.html" target="_top" xlink:title=" ">
<polygon fill="white" stroke="#666666" points="399.12,-20 284.12,-20 284.12,0 399.12,0 399.12,-20"/>
<text text-anchor="middle" x="341.62" y="-6.5" font-family="Helvetica,sans-Serif" font-size="10.00">GEU::PixarAttenuation</text>
</a>
</g>
</g>
<!-- Node1&#45;&gt;Node4 -->
<g id="edge3_Node000001_Node000004" class="edge">
<title>Node1&#45;&gt;Node4</title>
<g id="a_edge3_Node000001_Node000004"><a xlink:title=" ">
<path fill="none" stroke="#63b8ff" d="M235.79,-51.53C261.03,-41.87 294.4,-29.08 316.87,-20.48"/>
<polygon fill="#63b8ff" stroke="#63b8ff" points="234.69,-48.21 226.6,-55.05 237.19,-54.74 234.69,-48.21"/>
</a>
</g>
</g>
</g>
</svg>
