<?xml version="1.0" encoding="UTF-8" standalone="no"?>
<!DOCTYPE svg PUBLIC "-//W3C//DTD SVG 1.1//EN"
 "http://www.w3.org/Graphics/SVG/1.1/DTD/svg11.dtd">
<!-- Generated by graphviz version 10.0.1 (20240210.2158)
 -->
<!-- Title: GEU::GuiUtilities::Selectable Pages: 1 -->
<svg width="680pt" height="854pt"
 viewBox="0.00 0.00 680.25 854.00" xmlns="http://www.w3.org/2000/svg" xmlns:xlink="http://www.w3.org/1999/xlink">
<g id="graph0" class="graph" transform="scale(1 1) rotate(0) translate(4 850)">
<title>GEU::GuiUtilities::Selectable</title>
<!-- Node1 -->
<g id="Node000001" class="node">
<title>Node1</title>
<g id="a_Node000001"><a xlink:title=" ">
<polygon fill="#999999" stroke="#666666" points="672.25,-454 576,-454 576,-422 672.25,-422 672.25,-454"/>
<text text-anchor="start" x="584" y="-440.5" font-family="Helvetica,sans-Serif" font-size="10.00">GEU::GuiUtilities::</text>
<text text-anchor="middle" x="624.12" y="-428.5" font-family="Helvetica,sans-Serif" font-size="10.00">Selectable</text>
</a>
</g>
</g>
<!-- Node2 -->
<g id="Node000002" class="node">
<title>Node2</title>
<g id="a_Node000002"><a xlink:href="../../d3/d07/namespace_g_e_u_1_1_gui_utilities.html#ac492d09cb23da649aa5780ba0fab0898" target="_top" xlink:title=" ">
<polygon fill="white" stroke="#666666" points="508.88,-846 412.62,-846 412.62,-814 508.88,-814 508.88,-846"/>
<text text-anchor="start" x="420.62" y="-832.5" font-family="Helvetica,sans-Serif" font-size="10.00">GEU::GuiUtilities::</text>
<text text-anchor="middle" x="460.75" y="-820.5" font-family="Helvetica,sans-Serif" font-size="10.00">BeginTableDato</text>
</a>
</g>
</g>
<!-- Node1&#45;&gt;Node2 -->
<g id="edge1_Node000001_Node000002" class="edge">
<title>Node1&#45;&gt;Node2</title>
<g id="a_edge1_Node000001_Node000002"><a xlink:title=" ">
<path fill="none" stroke="#63b8ff" d="M620.45,-465.15C612.42,-541.3 586.21,-754.61 540,-805 531.9,-813.83 520.7,-819.56 509.29,-823.27"/>
<polygon fill="#63b8ff" stroke="#63b8ff" points="623.88,-465.96 621.43,-455.66 616.92,-465.25 623.88,-465.96"/>
</a>
</g>
</g>
<!-- Node3 -->
<g id="Node000003" class="node">
<title>Node3</title>
<g id="a_Node000003"><a xlink:href="../../d3/d07/namespace_g_e_u_1_1_gui_utilities.html#ab8331c953a8699e14285357b22a400f1" target="_top" xlink:title=" ">
<polygon fill="white" stroke="#666666" points="508.88,-796 412.62,-796 412.62,-764 508.88,-764 508.88,-796"/>
<text text-anchor="start" x="420.62" y="-782.5" font-family="Helvetica,sans-Serif" font-size="10.00">GEU::GuiUtilities::</text>
<text text-anchor="middle" x="460.75" y="-770.5" font-family="Helvetica,sans-Serif" font-size="10.00">BeginTableDron</text>
</a>
</g>
</g>
<!-- Node1&#45;&gt;Node3 -->
<g id="edge2_Node000001_Node000003" class="edge">
<title>Node1&#45;&gt;Node3</title>
<g id="a_edge2_Node000001_Node000003"><a xlink:title=" ">
<path fill="none" stroke="#63b8ff" d="M619.35,-465.51C609.35,-534.55 580.17,-712.65 540,-755 531.76,-763.69 520.5,-769.37 509.09,-773.08"/>
<polygon fill="#63b8ff" stroke="#63b8ff" points="622.78,-466.2 620.73,-455.81 615.85,-465.21 622.78,-466.2"/>
</a>
</g>
</g>
<!-- Node4 -->
<g id="Node000004" class="node">
<title>Node4</title>
<g id="a_Node000004"><a xlink:href="../../d3/d07/namespace_g_e_u_1_1_gui_utilities.html#a48d98aab42f839345f947f945bdd3da8" target="_top" xlink:title=" ">
<polygon fill="white" stroke="#666666" points="508.88,-746 412.62,-746 412.62,-714 508.88,-714 508.88,-746"/>
<text text-anchor="start" x="420.62" y="-732.5" font-family="Helvetica,sans-Serif" font-size="10.00">GEU::GuiUtilities::</text>
<text text-anchor="middle" x="460.75" y="-720.5" font-family="Helvetica,sans-Serif" font-size="10.00">BeginTableZona</text>
</a>
</g>
</g>
<!-- Node1&#45;&gt;Node4 -->
<g id="edge3_Node000001_Node000004" class="edge">
<title>Node1&#45;&gt;Node4</title>
<g id="a_edge3_Node000001_Node000004"><a xlink:title=" ">
<path fill="none" stroke="#63b8ff" d="M622.53,-465.72C619.86,-519.42 606.32,-638.19 540,-705 531.66,-713.4 520.5,-718.98 509.23,-722.69"/>
<polygon fill="#63b8ff" stroke="#63b8ff" points="626.02,-466.05 622.92,-455.92 619.03,-465.78 626.02,-466.05"/>
</a>
</g>
</g>
<!-- Node5 -->
<g id="Node000005" class="node">
<title>Node5</title>
<g id="a_Node000005"><a xlink:href="../../d3/d07/namespace_g_e_u_1_1_gui_utilities.html#a4f9aba226510ff3f6ddea45d86ae482d" target="_top" xlink:title=" ">
<polygon fill="white" stroke="#666666" points="508.88,-696 412.62,-696 412.62,-664 508.88,-664 508.88,-696"/>
<text text-anchor="start" x="420.62" y="-682.5" font-family="Helvetica,sans-Serif" font-size="10.00">GEU::GuiUtilities::</text>
<text text-anchor="middle" x="460.75" y="-670.5" font-family="Helvetica,sans-Serif" font-size="10.00">Combo</text>
</a>
</g>
</g>
<!-- Node1&#45;&gt;Node5 -->
<g id="edge4_Node000001_Node000005" class="edge">
<title>Node1&#45;&gt;Node5</title>
<g id="a_edge4_Node000001_Node000005"><a xlink:title=" ">
<path fill="none" stroke="#63b8ff" d="M619.53,-465.59C612.33,-510.18 592.07,-598.33 540,-650 531.53,-658.4 520.46,-664.5 509.32,-668.91"/>
<polygon fill="#63b8ff" stroke="#63b8ff" points="622.99,-466.13 621.01,-455.73 616.07,-465.1 622.99,-466.13"/>
</a>
</g>
</g>
<!-- Node9 -->
<g id="Node000009" class="node">
<title>Node9</title>
<g id="a_Node000009"><a xlink:href="../../db/d00/class_g_e_u_1_1_details_window.html#a696b110218746e301559da2c93e6cd60" target="_top" xlink:title="Renders inspector details for point cloud items.">
<polygon fill="white" stroke="#666666" points="334.62,-645 198.62,-645 198.62,-613 334.62,-613 334.62,-645"/>
<text text-anchor="start" x="206.62" y="-631.5" font-family="Helvetica,sans-Serif" font-size="10.00">GEU::DetailsWindow</text>
<text text-anchor="middle" x="266.62" y="-619.5" font-family="Helvetica,sans-Serif" font-size="10.00">::makePCloudItemInspector</text>
</a>
</g>
</g>
<!-- Node1&#45;&gt;Node9 -->
<g id="edge23_Node000001_Node000009" class="edge">
<title>Node1&#45;&gt;Node9</title>
<g id="a_edge23_Node000001_Node000009"><a xlink:title=" ">
<path fill="none" stroke="#63b8ff" d="M619.25,-465.77C611.89,-506.77 591.71,-582.37 540,-617 479.73,-657.36 394.01,-653.7 334.91,-644.26"/>
<polygon fill="#63b8ff" stroke="#63b8ff" points="622.69,-466.4 620.86,-455.97 615.78,-465.27 622.69,-466.4"/>
</a>
</g>
</g>
<!-- Node10 -->
<g id="Node000010" class="node">
<title>Node10</title>
<g id="a_Node000010"><a xlink:href="../../d3/d07/namespace_g_e_u_1_1_gui_utilities.html#a2818143a7ae622c5ea5a38722a4940fd" target="_top" xlink:title=" ">
<polygon fill="white" stroke="#666666" points="508.88,-608 412.62,-608 412.62,-576 508.88,-576 508.88,-608"/>
<text text-anchor="start" x="420.62" y="-594.5" font-family="Helvetica,sans-Serif" font-size="10.00">GEU::GuiUtilities::</text>
<text text-anchor="middle" x="460.75" y="-582.5" font-family="Helvetica,sans-Serif" font-size="10.00">ComboItem</text>
</a>
</g>
</g>
<!-- Node1&#45;&gt;Node10 -->
<g id="edge11_Node000001_Node000010" class="edge">
<title>Node1&#45;&gt;Node10</title>
<g id="a_edge11_Node000001_Node000010"><a xlink:title=" ">
<path fill="none" stroke="#63b8ff" d="M612.5,-464.74C599.58,-493.95 575.07,-540.13 540,-567 530.94,-573.94 519.91,-578.98 509.01,-582.64"/>
<polygon fill="#63b8ff" stroke="#63b8ff" points="615.59,-466.42 616.29,-455.85 609.15,-463.68 615.59,-466.42"/>
</a>
</g>
</g>
<!-- Node11 -->
<g id="Node000011" class="node">
<title>Node11</title>
<g id="a_Node000011"><a xlink:href="../../d3/d07/namespace_g_e_u_1_1_gui_utilities.html#aa21888a744303263231d36cb4bee1617" target="_top" xlink:title=" ">
<polygon fill="white" stroke="#666666" points="508.88,-558 412.62,-558 412.62,-526 508.88,-526 508.88,-558"/>
<text text-anchor="start" x="420.62" y="-544.5" font-family="Helvetica,sans-Serif" font-size="10.00">GEU::GuiUtilities::</text>
<text text-anchor="middle" x="460.75" y="-532.5" font-family="Helvetica,sans-Serif" font-size="10.00">ComboItem</text>
</a>
</g>
</g>
<!-- Node1&#45;&gt;Node11 -->
<g id="edge12_Node000001_Node000011" class="edge">
<title>Node1&#45;&gt;Node11</title>
<g id="a_edge12_Node000001_Node000011"><a xlink:title=" ">
<path fill="none" stroke="#63b8ff" d="M600.63,-462.15C584.86,-477.98 562.63,-498.23 540,-512 530.43,-517.82 519.54,-522.86 508.98,-527.05"/>
<polygon fill="#63b8ff" stroke="#63b8ff" points="602.73,-465.01 607.2,-455.41 597.71,-460.13 602.73,-465.01"/>
</a>
</g>
</g>
<!-- Node12 -->
<g id="Node000012" class="node">
<title>Node12</title>
<g id="a_Node000012"><a xlink:href="../../d3/d07/namespace_g_e_u_1_1_gui_utilities.html#a15f9ea36c082c71e09e7275ca63bd2e1" target="_top" xlink:title=" ">
<polygon fill="white" stroke="#666666" points="508.88,-432 412.62,-432 412.62,-400 508.88,-400 508.88,-432"/>
<text text-anchor="start" x="420.62" y="-418.5" font-family="Helvetica,sans-Serif" font-size="10.00">GEU::GuiUtilities::</text>
<text text-anchor="middle" x="460.75" y="-406.5" font-family="Helvetica,sans-Serif" font-size="10.00">ComboItem</text>
</a>
</g>
</g>
<!-- Node1&#45;&gt;Node12 -->
<g id="edge13_Node000001_Node000012" class="edge">
<title>Node1&#45;&gt;Node12</title>
<g id="a_edge13_Node000001_Node000012"><a xlink:title=" ">
<path fill="none" stroke="#63b8ff" d="M564.25,-429.97C546.15,-427.51 526.47,-424.82 509.23,-422.47"/>
<polygon fill="#63b8ff" stroke="#63b8ff" points="563.7,-433.43 574.08,-431.31 564.64,-426.5 563.7,-433.43"/>
</a>
</g>
</g>
<!-- Node18 -->
<g id="Node000018" class="node">
<title>Node18</title>
<g id="a_Node000018"><a xlink:href="../../db/d00/class_g_e_u_1_1_details_window.html#a241455ad0e5a659831aa86d3182b9551" target="_top" xlink:title="Renders inspector details for camera items.">
<polygon fill="white" stroke="#666666" points="335.75,-594 197.5,-594 197.5,-562 335.75,-562 335.75,-594"/>
<text text-anchor="start" x="205.5" y="-580.5" font-family="Helvetica,sans-Serif" font-size="10.00">GEU::DetailsWindow</text>
<text text-anchor="middle" x="266.62" y="-568.5" font-family="Helvetica,sans-Serif" font-size="10.00">::makeCameraItemInspector</text>
</a>
</g>
</g>
<!-- Node1&#45;&gt;Node18 -->
<g id="edge19_Node000001_Node000018" class="edge">
<title>Node1&#45;&gt;Node18</title>
<g id="a_edge19_Node000001_Node000018"><a xlink:title=" ">
<path fill="none" stroke="#63b8ff" d="M586.05,-459.74C571.99,-467.3 555.6,-475.3 540,-481 472.15,-505.8 445.24,-483 381.5,-517 362.08,-527.36 364.32,-539.59 345.5,-551 338.89,-555.01 331.61,-558.53 324.23,-561.58"/>
<polygon fill="#63b8ff" stroke="#63b8ff" points="587.44,-462.97 594.51,-455.09 584.06,-456.84 587.44,-462.97"/>
</a>
</g>
</g>
<!-- Node19 -->
<g id="Node000019" class="node">
<title>Node19</title>
<g id="a_Node000019"><a xlink:href="../../db/d00/class_g_e_u_1_1_details_window.html#addd0dc775ee807e26a5936815ad411b8" target="_top" xlink:title=" ">
<polygon fill="white" stroke="#666666" points="336.12,-542 197.12,-542 197.12,-510 336.12,-510 336.12,-542"/>
<text text-anchor="start" x="205.12" y="-528.5" font-family="Helvetica,sans-Serif" font-size="10.00">GEU::DetailsWindow</text>
<text text-anchor="middle" x="266.62" y="-516.5" font-family="Helvetica,sans-Serif" font-size="10.00">::makeMaterialItemInspector</text>
</a>
</g>
</g>
<!-- Node1&#45;&gt;Node19 -->
<g id="edge21_Node000001_Node000019" class="edge">
<title>Node1&#45;&gt;Node19</title>
<g id="a_edge21_Node000001_Node000019"><a xlink:title=" ">
<path fill="none" stroke="#63b8ff" d="M564.65,-446.07C515.28,-453.6 443,-466.35 381.5,-484 365,-488.74 361.58,-491.98 345.5,-498 335.27,-501.83 324.26,-505.85 313.82,-509.61"/>
<polygon fill="#63b8ff" stroke="#63b8ff" points="564.89,-449.57 574.26,-444.62 563.85,-442.65 564.89,-449.57"/>
</a>
</g>
</g>
<!-- Node20 -->
<g id="Node000020" class="node">
<title>Node20</title>
<g id="a_Node000020"><a xlink:href="../../dc/d00/class_g_e_u_1_1_database_query_dato_popup.html#a6b45f3f4957a46091ab0d75b9600a56d" target="_top" xlink:title="Renders the popup and its contents.">
<polygon fill="white" stroke="#666666" points="540,-382 381.5,-382 381.5,-350 540,-350 540,-382"/>
<text text-anchor="start" x="389.5" y="-368.5" font-family="Helvetica,sans-Serif" font-size="10.00">GEU::DatabaseQueryDatoPopup</text>
<text text-anchor="middle" x="460.75" y="-356.5" font-family="Helvetica,sans-Serif" font-size="10.00">::renderPopup</text>
</a>
</g>
</g>
<!-- Node1&#45;&gt;Node20 -->
<g id="edge24_Node000001_Node000020" class="edge">
<title>Node1&#45;&gt;Node20</title>
<g id="a_edge24_Node000001_Node000020"><a xlink:title=" ">
<path fill="none" stroke="#63b8ff" d="M587.72,-415.85C573.26,-407.38 556.17,-398.06 540,-391 532.94,-387.92 525.38,-385.02 517.84,-382.37"/>
<polygon fill="#63b8ff" stroke="#63b8ff" points="585.58,-418.65 595.96,-420.77 589.16,-412.64 585.58,-418.65"/>
</a>
</g>
</g>
<!-- Node21 -->
<g id="Node000021" class="node">
<title>Node21</title>
<g id="a_Node000021"><a xlink:href="../../da/d01/class_g_e_u_1_1_inspector_window.html#a63b0402d61dd34944da9280a89fa9f74" target="_top" xlink:title="Renders the window and contents.">
<polygon fill="white" stroke="#666666" points="519.38,-332 402.12,-332 402.12,-300 519.38,-300 519.38,-332"/>
<text text-anchor="start" x="410.12" y="-318.5" font-family="Helvetica,sans-Serif" font-size="10.00">GEU::InspectorWindow</text>
<text text-anchor="middle" x="460.75" y="-306.5" font-family="Helvetica,sans-Serif" font-size="10.00">::renderWindow</text>
</a>
</g>
</g>
<!-- Node1&#45;&gt;Node21 -->
<g id="edge25_Node000001_Node000021" class="edge">
<title>Node1&#45;&gt;Node21</title>
<g id="a_edge25_Node000001_Node000021"><a xlink:title=" ">
<path fill="none" stroke="#63b8ff" d="M607.21,-412.48C592.33,-390.59 568.21,-359.71 540,-341 533.82,-336.9 526.92,-333.43 519.85,-330.51"/>
<polygon fill="#63b8ff" stroke="#63b8ff" points="604.11,-414.14 612.54,-420.56 609.95,-410.29 604.11,-414.14"/>
</a>
</g>
</g>
<!-- Node22 -->
<g id="Node000022" class="node">
<title>Node22</title>
<g id="a_Node000022"><a xlink:href="../../df/d00/class_g_e_u_1_1_materials_window.html#a2b35a126224eee09971a3d5874dccbc4" target="_top" xlink:title="Renders the window and contents.">
<polygon fill="white" stroke="#666666" points="519.38,-282 402.12,-282 402.12,-250 519.38,-250 519.38,-282"/>
<text text-anchor="start" x="410.12" y="-268.5" font-family="Helvetica,sans-Serif" font-size="10.00">GEU::MaterialsWindow</text>
<text text-anchor="middle" x="460.75" y="-256.5" font-family="Helvetica,sans-Serif" font-size="10.00">::renderWindow</text>
</a>
</g>
</g>
<!-- Node1&#45;&gt;Node22 -->
<g id="edge26_Node000001_Node000022" class="edge">
<title>Node1&#45;&gt;Node22</title>
<g id="a_edge26_Node000001_Node000022"><a xlink:title=" ">
<path fill="none" stroke="#63b8ff" d="M614.74,-411.04C603.13,-378.08 579.07,-322.77 540,-291 534.02,-286.14 527.09,-282.22 519.86,-279.06"/>
<polygon fill="#63b8ff" stroke="#63b8ff" points="611.33,-411.9 617.84,-420.26 617.97,-409.66 611.33,-411.9"/>
</a>
</g>
</g>
<!-- Node23 -->
<g id="Node000023" class="node">
<title>Node23</title>
<g id="a_Node000023"><a xlink:href="../../d3/d07/namespace_g_e_u_1_1_gui_utilities.html#a753245974f3786bbd5c17efd749563d2" target="_top" xlink:title=" ">
<polygon fill="white" stroke="#666666" points="508.88,-232 412.62,-232 412.62,-200 508.88,-200 508.88,-232"/>
<text text-anchor="start" x="420.62" y="-218.5" font-family="Helvetica,sans-Serif" font-size="10.00">GEU::GuiUtilities::</text>
<text text-anchor="middle" x="460.75" y="-206.5" font-family="Helvetica,sans-Serif" font-size="10.00">Selectable</text>
</a>
</g>
</g>
<!-- Node1&#45;&gt;Node23 -->
<g id="edge27_Node000001_Node000023" class="edge">
<title>Node1&#45;&gt;Node23</title>
<g id="a_edge27_Node000001_Node000023"><a xlink:title=" ">
<path fill="none" stroke="#63b8ff" d="M618.98,-410.49C611.15,-368.1 590.24,-286.91 540,-241 531.37,-233.11 520.24,-227.71 509.09,-224.02"/>
<polygon fill="#63b8ff" stroke="#63b8ff" points="615.49,-410.84 620.63,-420.11 622.39,-409.66 615.49,-410.84"/>
</a>
</g>
</g>
<!-- Node24 -->
<g id="Node000024" class="node">
<title>Node24</title>
<g id="a_Node000024"><a xlink:href="../../d3/d07/namespace_g_e_u_1_1_gui_utilities.html#a14b62a436373b094a4e0757e0e1ea719" target="_top" xlink:title=" ">
<polygon fill="white" stroke="#666666" points="508.88,-182 412.62,-182 412.62,-150 508.88,-150 508.88,-182"/>
<text text-anchor="start" x="420.62" y="-168.5" font-family="Helvetica,sans-Serif" font-size="10.00">GEU::GuiUtilities::</text>
<text text-anchor="middle" x="460.75" y="-156.5" font-family="Helvetica,sans-Serif" font-size="10.00">Selectable</text>
</a>
</g>
</g>
<!-- Node1&#45;&gt;Node24 -->
<g id="edge28_Node000001_Node000024" class="edge">
<title>Node1&#45;&gt;Node24</title>
<g id="a_edge28_Node000001_Node000024"><a xlink:title=" ">
<path fill="none" stroke="#63b8ff" d="M621.69,-410.23C617.58,-359.55 601.65,-251.71 540,-191 531.57,-182.69 520.38,-177.15 509.1,-173.44"/>
<polygon fill="#63b8ff" stroke="#63b8ff" points="618.19,-410.3 622.38,-420.03 625.17,-409.81 618.19,-410.3"/>
</a>
</g>
</g>
<!-- Node25 -->
<g id="Node000025" class="node">
<title>Node25</title>
<g id="a_Node000025"><a xlink:href="../../d3/d07/namespace_g_e_u_1_1_gui_utilities.html#af110deaeb1ef9b01dd1f833c19a96e84" target="_top" xlink:title=" ">
<polygon fill="white" stroke="#666666" points="508.88,-132 412.62,-132 412.62,-100 508.88,-100 508.88,-132"/>
<text text-anchor="start" x="420.62" y="-118.5" font-family="Helvetica,sans-Serif" font-size="10.00">GEU::GuiUtilities::</text>
<text text-anchor="middle" x="460.75" y="-106.5" font-family="Helvetica,sans-Serif" font-size="10.00">Selectable</text>
</a>
</g>
</g>
<!-- Node1&#45;&gt;Node25 -->
<g id="edge29_Node000001_Node000025" class="edge">
<title>Node1&#45;&gt;Node25</title>
<g id="a_edge29_Node000001_Node000025"><a xlink:title=" ">
<path fill="none" stroke="#63b8ff" d="M623.58,-410.08C622.98,-351.93 613.23,-216.95 540,-141 531.68,-132.38 520.4,-126.72 508.99,-123.01"/>
<polygon fill="#63b8ff" stroke="#63b8ff" points="620.08,-410.08 623.59,-420.07 627.08,-410.07 620.08,-410.08"/>
</a>
</g>
</g>
<!-- Node26 -->
<g id="Node000026" class="node">
<title>Node26</title>
<g id="a_Node000026"><a xlink:href="../../d3/d07/namespace_g_e_u_1_1_gui_utilities.html#ada99e6f85410dba375f930d65fef9b41" target="_top" xlink:title=" ">
<polygon fill="white" stroke="#666666" points="508.88,-82 412.62,-82 412.62,-50 508.88,-50 508.88,-82"/>
<text text-anchor="start" x="420.62" y="-68.5" font-family="Helvetica,sans-Serif" font-size="10.00">GEU::GuiUtilities::</text>
<text text-anchor="middle" x="460.75" y="-56.5" font-family="Helvetica,sans-Serif" font-size="10.00">Selectable</text>
</a>
</g>
</g>
<!-- Node1&#45;&gt;Node26 -->
<g id="edge30_Node000001_Node000026" class="edge">
<title>Node1&#45;&gt;Node26</title>
<g id="a_edge30_Node000001_Node000026"><a xlink:title=" ">
<path fill="none" stroke="#63b8ff" d="M620.07,-410.88C611.29,-337.63 583.82,-138.2 540,-91 531.85,-82.22 520.62,-76.51 509.22,-72.8"/>
<polygon fill="#63b8ff" stroke="#63b8ff" points="616.54,-410.86 621.18,-420.38 623.49,-410.05 616.54,-410.86"/>
</a>
</g>
</g>
<!-- Node27 -->
<g id="Node000027" class="node">
<title>Node27</title>
<g id="a_Node000027"><a xlink:href="../../d3/d07/namespace_g_e_u_1_1_gui_utilities.html#a9e9d1bf63c5c0e2c1eee6a30dc2dc83d" target="_top" xlink:title=" ">
<polygon fill="white" stroke="#666666" points="508.88,-32 412.62,-32 412.62,0 508.88,0 508.88,-32"/>
<text text-anchor="start" x="420.62" y="-18.5" font-family="Helvetica,sans-Serif" font-size="10.00">GEU::GuiUtilities::</text>
<text text-anchor="middle" x="460.75" y="-6.5" font-family="Helvetica,sans-Serif" font-size="10.00">Selectable</text>
</a>
</g>
</g>
<!-- Node1&#45;&gt;Node27 -->
<g id="edge31_Node000001_Node000027" class="edge">
<title>Node1&#45;&gt;Node27</title>
<g id="a_edge31_Node000001_Node000027"><a xlink:title=" ">
<path fill="none" stroke="#63b8ff" d="M620.95,-410.81C614,-330.44 589.8,-96.2 540,-41 531.88,-32 520.53,-26.22 508.98,-22.51"/>
<polygon fill="#63b8ff" stroke="#63b8ff" points="617.43,-410.74 621.76,-420.41 624.41,-410.16 617.43,-410.74"/>
</a>
</g>
</g>
<!-- Node6 -->
<g id="Node000006" class="node">
<title>Node6</title>
<g id="a_Node000006"><a xlink:href="../../db/d00/class_g_e_u_1_1_details_window.html#aafcdb3e0ee9efe93917945b4b67ef977" target="_top" xlink:title="Renders inspector details for light items.">
<polygon fill="white" stroke="#666666" points="329.38,-745 203.88,-745 203.88,-713 329.38,-713 329.38,-745"/>
<text text-anchor="start" x="211.88" y="-731.5" font-family="Helvetica,sans-Serif" font-size="10.00">GEU::DetailsWindow</text>
<text text-anchor="middle" x="266.62" y="-719.5" font-family="Helvetica,sans-Serif" font-size="10.00">::makeLightItemInspector</text>
</a>
</g>
</g>
<!-- Node5&#45;&gt;Node6 -->
<g id="edge5_Node000005_Node000006" class="edge">
<title>Node5&#45;&gt;Node6</title>
<g id="a_edge5_Node000005_Node000006"><a xlink:title=" ">
<path fill="none" stroke="#63b8ff" d="M401.13,-694.95C378.55,-700.71 352.7,-707.3 329.8,-713.14"/>
<polygon fill="#63b8ff" stroke="#63b8ff" points="401.97,-698.35 410.79,-692.49 400.24,-691.57 401.97,-698.35"/>
</a>
</g>
</g>
<!-- Node8 -->
<g id="Node000008" class="node">
<title>Node8</title>
<g id="a_Node000008"><a xlink:href="../../db/d00/class_g_e_u_1_1_details_window.html#a5846380c6e133a053b1143f6d464dd70" target="_top" xlink:title="Renders inspector details for 3D model items.">
<polygon fill="white" stroke="#666666" points="332,-695 201.25,-695 201.25,-663 332,-663 332,-695"/>
<text text-anchor="start" x="209.25" y="-681.5" font-family="Helvetica,sans-Serif" font-size="10.00">GEU::DetailsWindow</text>
<text text-anchor="middle" x="266.62" y="-669.5" font-family="Helvetica,sans-Serif" font-size="10.00">::makeModelItemInspector</text>
</a>
</g>
</g>
<!-- Node5&#45;&gt;Node8 -->
<g id="edge7_Node000005_Node000008" class="edge">
<title>Node5&#45;&gt;Node8</title>
<g id="a_edge7_Node000005_Node000008"><a xlink:title=" ">
<path fill="none" stroke="#63b8ff" d="M400.88,-679.69C379.19,-679.58 354.5,-679.45 332.32,-679.34"/>
<polygon fill="#63b8ff" stroke="#63b8ff" points="400.73,-683.19 410.74,-679.74 400.76,-676.19 400.73,-683.19"/>
</a>
</g>
</g>
<!-- Node5&#45;&gt;Node9 -->
<g id="edge9_Node000005_Node000009" class="edge">
<title>Node5&#45;&gt;Node9</title>
<g id="a_edge9_Node000005_Node000009"><a xlink:title=" ">
<path fill="none" stroke="#63b8ff" d="M401.39,-664.51C378.63,-658.47 352.52,-651.54 329.45,-645.41"/>
<polygon fill="#63b8ff" stroke="#63b8ff" points="400.23,-667.82 410.8,-667 402.03,-661.06 400.23,-667.82"/>
</a>
</g>
</g>
<!-- Node7 -->
<g id="Node000007" class="node">
<title>Node7</title>
<g id="a_Node000007"><a xlink:href="../../db/d00/class_g_e_u_1_1_details_window.html#a6666ec761cc5cd8a57220823b8e7daa6" target="_top" xlink:title="Renders the window and contents.">
<polygon fill="white" stroke="#666666" points="129.62,-645 22.12,-645 22.12,-613 129.62,-613 129.62,-645"/>
<text text-anchor="start" x="30.12" y="-631.5" font-family="Helvetica,sans-Serif" font-size="10.00">GEU::DetailsWindow</text>
<text text-anchor="middle" x="75.88" y="-619.5" font-family="Helvetica,sans-Serif" font-size="10.00">::renderWindow</text>
</a>
</g>
</g>
<!-- Node6&#45;&gt;Node7 -->
<g id="edge6_Node000006_Node000007" class="edge">
<title>Node6&#45;&gt;Node7</title>
<g id="a_edge6_Node000006_Node000007"><a xlink:title=" ">
<path fill="none" stroke="#63b8ff" d="M197.31,-708.33C194.05,-706.95 190.84,-705.5 187.75,-704 153.89,-687.53 118.49,-661.87 97.05,-645.25"/>
<polygon fill="#63b8ff" stroke="#63b8ff" points="195.91,-711.54 206.5,-711.96 198.49,-705.03 195.91,-711.54"/>
</a>
</g>
</g>
<!-- Node8&#45;&gt;Node7 -->
<g id="edge8_Node000008_Node000007" class="edge">
<title>Node8&#45;&gt;Node7</title>
<g id="a_edge8_Node000008_Node000007"><a xlink:title=" ">
<path fill="none" stroke="#63b8ff" d="M192.52,-659.63C171.73,-654.13 149.48,-648.23 130.11,-643.1"/>
<polygon fill="#63b8ff" stroke="#63b8ff" points="191.53,-662.99 202.1,-662.17 193.33,-656.23 191.53,-662.99"/>
</a>
</g>
</g>
<!-- Node9&#45;&gt;Node7 -->
<g id="edge10_Node000009_Node000007" class="edge">
<title>Node9&#45;&gt;Node7</title>
<g id="a_edge10_Node000009_Node000007"><a xlink:title=" ">
<path fill="none" stroke="#63b8ff" d="M186.81,-629C167.65,-629 147.6,-629 129.96,-629"/>
<polygon fill="#63b8ff" stroke="#63b8ff" points="186.77,-632.5 196.77,-629 186.77,-625.5 186.77,-632.5"/>
</a>
</g>
</g>
<!-- Node13 -->
<g id="Node000013" class="node">
<title>Node13</title>
<g id="a_Node000013"><a xlink:href="../../df/d01/class_g_e_u_1_1_database_new_zona_popup.html#ac75ed971c74258a7c79ac85f58874852" target="_top" xlink:title=" ">
<polygon fill="white" stroke="#666666" points="342.5,-339 190.75,-339 190.75,-307 342.5,-307 342.5,-339"/>
<text text-anchor="start" x="198.75" y="-325.5" font-family="Helvetica,sans-Serif" font-size="10.00">GEU::DatabaseNewZonaPopup</text>
<text text-anchor="middle" x="266.62" y="-313.5" font-family="Helvetica,sans-Serif" font-size="10.00">::handleMunicipioPopup</text>
</a>
</g>
</g>
<!-- Node12&#45;&gt;Node13 -->
<g id="edge14_Node000012_Node000013" class="edge">
<title>Node12&#45;&gt;Node13</title>
<g id="a_edge14_Node000012_Node000013"><a xlink:title=" ">
<path fill="none" stroke="#63b8ff" d="M401.77,-401.62C394.65,-398.68 387.7,-395.17 381.5,-391 360.81,-377.1 366.18,-361.91 345.5,-348 340.67,-344.75 335.39,-341.9 329.93,-339.41"/>
<polygon fill="#63b8ff" stroke="#63b8ff" points="400.25,-404.79 410.84,-405.01 402.7,-398.23 400.25,-404.79"/>
</a>
</g>
</g>
<!-- Node15 -->
<g id="Node000015" class="node">
<title>Node15</title>
<g id="a_Node000015"><a xlink:href="../../d2/d05/class_g_e_u_1_1_database_new_dato_window.html#ae07f0a25c9ecb584624ce7bf67bc48cb" target="_top" xlink:title="Renders the window and contents.">
<polygon fill="white" stroke="#666666" points="345.5,-439 187.75,-439 187.75,-407 345.5,-407 345.5,-439"/>
<text text-anchor="start" x="195.75" y="-425.5" font-family="Helvetica,sans-Serif" font-size="10.00">GEU::DatabaseNewDatoWindow</text>
<text text-anchor="middle" x="266.62" y="-413.5" font-family="Helvetica,sans-Serif" font-size="10.00">::renderWindow</text>
</a>
</g>
</g>
<!-- Node12&#45;&gt;Node15 -->
<g id="edge16_Node000012_Node000015" class="edge">
<title>Node12&#45;&gt;Node15</title>
<g id="a_edge16_Node000012_Node000015"><a xlink:title=" ">
<path fill="none" stroke="#63b8ff" d="M401.14,-418.14C383.74,-418.77 364.4,-419.47 345.97,-420.15"/>
<polygon fill="#63b8ff" stroke="#63b8ff" points="400.88,-421.65 410.75,-417.79 400.63,-414.65 400.88,-421.65"/>
</a>
</g>
</g>
<!-- Node16 -->
<g id="Node000016" class="node">
<title>Node16</title>
<g id="a_Node000016"><a xlink:href="../../d9/d01/class_g_e_u_1_1_picking_window.html#a56f55b34996a68d41418a2df8ea008db" target="_top" xlink:title="Renders the window and contents.">
<polygon fill="white" stroke="#666666" points="321.5,-389 211.75,-389 211.75,-357 321.5,-357 321.5,-389"/>
<text text-anchor="start" x="219.75" y="-375.5" font-family="Helvetica,sans-Serif" font-size="10.00">GEU::PickingWindow</text>
<text text-anchor="middle" x="266.62" y="-363.5" font-family="Helvetica,sans-Serif" font-size="10.00">::renderWindow</text>
</a>
</g>
</g>
<!-- Node12&#45;&gt;Node16 -->
<g id="edge17_Node000012_Node000016" class="edge">
<title>Node12&#45;&gt;Node16</title>
<g id="a_edge17_Node000012_Node000016"><a xlink:title=" ">
<path fill="none" stroke="#63b8ff" d="M401.31,-402.92C375.99,-397.25 346.51,-390.66 321.7,-385.1"/>
<polygon fill="#63b8ff" stroke="#63b8ff" points="400.26,-406.27 410.78,-405.04 401.79,-399.44 400.26,-406.27"/>
</a>
</g>
</g>
<!-- Node17 -->
<g id="Node000017" class="node">
<title>Node17</title>
<g id="a_Node000017"><a xlink:href="../../da/d04/class_g_e_u_1_1_settings_window.html#a7af9db6d6ad56c4c4fc336251024472f" target="_top" xlink:title="Renders the window and contents.">
<polygon fill="white" stroke="#666666" points="323.38,-489 209.88,-489 209.88,-457 323.38,-457 323.38,-489"/>
<text text-anchor="start" x="217.88" y="-475.5" font-family="Helvetica,sans-Serif" font-size="10.00">GEU::SettingsWindow</text>
<text text-anchor="middle" x="266.62" y="-463.5" font-family="Helvetica,sans-Serif" font-size="10.00">::renderWindow</text>
</a>
</g>
</g>
<!-- Node12&#45;&gt;Node17 -->
<g id="edge18_Node000012_Node000017" class="edge">
<title>Node12&#45;&gt;Node17</title>
<g id="a_edge18_Node000012_Node000017"><a xlink:title=" ">
<path fill="none" stroke="#63b8ff" d="M401.5,-433.28C376.6,-440.67 347.67,-449.25 323.08,-456.55"/>
<polygon fill="#63b8ff" stroke="#63b8ff" points="402.22,-436.72 410.81,-430.52 400.22,-430.01 402.22,-436.72"/>
</a>
</g>
</g>
<!-- Node14 -->
<g id="Node000014" class="node">
<title>Node14</title>
<g id="a_Node000014"><a xlink:href="../../df/d01/class_g_e_u_1_1_database_new_zona_popup.html#a12c7cda56d74fc9f5f7f35b32382040f" target="_top" xlink:title="Renders the popup and its contents.">
<polygon fill="white" stroke="#666666" points="151.75,-339 0,-339 0,-307 151.75,-307 151.75,-339"/>
<text text-anchor="start" x="8" y="-325.5" font-family="Helvetica,sans-Serif" font-size="10.00">GEU::DatabaseNewZonaPopup</text>
<text text-anchor="middle" x="75.88" y="-313.5" font-family="Helvetica,sans-Serif" font-size="10.00">::renderPopup</text>
</a>
</g>
</g>
<!-- Node13&#45;&gt;Node14 -->
<g id="edge15_Node000013_Node000014" class="edge">
<title>Node13&#45;&gt;Node14</title>
<g id="a_edge15_Node000013_Node000014"><a xlink:title=" ">
<path fill="none" stroke="#63b8ff" d="M179.12,-323C170.09,-323 160.96,-323 152.07,-323"/>
<polygon fill="#63b8ff" stroke="#63b8ff" points="178.97,-326.5 188.97,-323 178.97,-319.5 178.97,-326.5"/>
</a>
</g>
</g>
<!-- Node18&#45;&gt;Node7 -->
<g id="edge20_Node000018_Node000007" class="edge">
<title>Node18&#45;&gt;Node7</title>
<g id="a_edge20_Node000018_Node000007"><a xlink:title=" ">
<path fill="none" stroke="#63b8ff" d="M193.71,-597.43C172.56,-603.15 149.82,-609.29 130.06,-614.63"/>
<polygon fill="#63b8ff" stroke="#63b8ff" points="194.4,-600.87 203.14,-594.88 192.58,-594.11 194.4,-600.87"/>
</a>
</g>
</g>
<!-- Node19&#45;&gt;Node7 -->
<g id="edge22_Node000019_Node000007" class="edge">
<title>Node19&#45;&gt;Node7</title>
<g id="a_edge22_Node000019_Node000007"><a xlink:title=" ">
<path fill="none" stroke="#63b8ff" d="M201.59,-546.63C196.84,-548.64 192.18,-550.76 187.75,-553 154,-570.03 118.56,-595.94 97.09,-612.67"/>
<polygon fill="#63b8ff" stroke="#63b8ff" points="202.67,-549.97 210.65,-543.01 200.07,-543.47 202.67,-549.97"/>
</a>
</g>
</g>
</g>
</svg>
