<?xml version="1.0" encoding="UTF-8" standalone="no"?>
<!DOCTYPE svg PUBLIC "-//W3C//DTD SVG 1.1//EN"
 "http://www.w3.org/Graphics/SVG/1.1/DTD/svg11.dtd">
<!-- Generated by graphviz version 10.0.1 (20240210.2158)
 -->
<!-- Title: GEU::GuiUtilities::makeLocText Pages: 1 -->
<svg width="708pt" height="862pt"
 viewBox="0.00 0.00 708.00 862.00" xmlns="http://www.w3.org/2000/svg" xmlns:xlink="http://www.w3.org/1999/xlink">
<g id="graph0" class="graph" transform="scale(1 1) rotate(0) translate(4 858)">
<title>GEU::GuiUtilities::makeLocText</title>
<!-- Node1 -->
<g id="Node000001" class="node">
<title>Node1</title>
<g id="a_Node000001"><a xlink:title=" ">
<polygon fill="#999999" stroke="#666666" points="700,-371 603.75,-371 603.75,-339 700,-339 700,-371"/>
<text text-anchor="start" x="611.75" y="-357.5" font-family="Helvetica,sans-Serif" font-size="10.00">GEU::GuiUtilities::</text>
<text text-anchor="middle" x="651.88" y="-345.5" font-family="Helvetica,sans-Serif" font-size="10.00">makeLocText</text>
</a>
</g>
</g>
<!-- Node2 -->
<g id="Node000002" class="node">
<title>Node2</title>
<g id="a_Node000002"><a xlink:href="../../d3/d07/namespace_g_e_u_1_1_gui_utilities.html#a55126fb89c2cd5e8675c2632a94fd92e" target="_top" xlink:title=" ">
<polygon fill="white" stroke="#666666" points="532.12,-767 431.38,-767 431.38,-735 532.12,-735 532.12,-767"/>
<text text-anchor="start" x="439.38" y="-753.5" font-family="Helvetica,sans-Serif" font-size="10.00">GEU::GuiUtilities::</text>
<text text-anchor="middle" x="481.75" y="-741.5" font-family="Helvetica,sans-Serif" font-size="10.00">makeCloudSelector</text>
</a>
</g>
</g>
<!-- Node1&#45;&gt;Node2 -->
<g id="edge1_Node000001_Node000002" class="edge">
<title>Node1&#45;&gt;Node2</title>
<g id="a_edge1_Node000001_Node000002"><a xlink:title=" ">
<path fill="none" stroke="#63b8ff" d="M649.3,-382.72C644.83,-441.44 628.15,-580.92 567.75,-678 553.06,-701.62 528.26,-721.63 509.22,-734.69"/>
<polygon fill="#63b8ff" stroke="#63b8ff" points="652.77,-383.19 649.97,-372.97 645.79,-382.7 652.77,-383.19"/>
</a>
</g>
</g>
<!-- Node3 -->
<g id="Node000003" class="node">
<title>Node3</title>
<g id="a_Node000003"><a xlink:href="../../d6/d00/class_g_e_u_1_1_tree_segmentation_g_u_i_adapter.html#a220f4253fbaddc522c033e939717f015" target="_top" xlink:title="Draw Export to Database tab to handle remote conection and upload.">
<polygon fill="white" stroke="#666666" points="359.75,-854 187.75,-854 187.75,-822 359.75,-822 359.75,-854"/>
<text text-anchor="start" x="195.75" y="-840.5" font-family="Helvetica,sans-Serif" font-size="10.00">GEU::TreeSegmentationGUIAdapter</text>
<text text-anchor="middle" x="273.75" y="-828.5" font-family="Helvetica,sans-Serif" font-size="10.00">::makeSegmentDatabaseGUI</text>
</a>
</g>
</g>
<!-- Node1&#45;&gt;Node3 -->
<g id="edge21_Node000001_Node000003" class="edge">
<title>Node1&#45;&gt;Node3</title>
<g id="a_edge21_Node000001_Node000003"><a xlink:title=" ">
<path fill="none" stroke="#63b8ff" d="M649.29,-382.66C643.88,-467.17 623.3,-719.69 567.75,-776 514.16,-830.32 425.73,-842.74 360.01,-843.44"/>
<polygon fill="#63b8ff" stroke="#63b8ff" points="652.78,-382.94 649.9,-372.75 645.79,-382.51 652.78,-382.94"/>
</a>
</g>
</g>
<!-- Node4 -->
<g id="Node000004" class="node">
<title>Node4</title>
<g id="a_Node000004"><a xlink:href="../../d3/d07/namespace_g_e_u_1_1_gui_utilities.html#a4453728eb6a181d72fb1be2d7d26f73d" target="_top" xlink:title=" ">
<polygon fill="white" stroke="#666666" points="535.5,-551 428,-551 428,-519 535.5,-519 535.5,-551"/>
<text text-anchor="start" x="436" y="-537.5" font-family="Helvetica,sans-Serif" font-size="10.00">GEU::GuiUtilities::</text>
<text text-anchor="middle" x="481.75" y="-525.5" font-family="Helvetica,sans-Serif" font-size="10.00">makeDBQueryingInfo</text>
</a>
</g>
</g>
<!-- Node1&#45;&gt;Node4 -->
<g id="edge3_Node000001_Node000004" class="edge">
<title>Node1&#45;&gt;Node4</title>
<g id="a_edge3_Node000001_Node000004"><a xlink:title=" ">
<path fill="none" stroke="#63b8ff" d="M642.16,-381.58C630.23,-414.15 605.83,-469.05 567.75,-502 558.53,-509.98 547.17,-516.14 535.79,-520.86"/>
<polygon fill="#63b8ff" stroke="#63b8ff" points="645.35,-383.09 645.37,-372.49 638.74,-380.76 645.35,-383.09"/>
</a>
</g>
</g>
<!-- Node9 -->
<g id="Node000009" class="node">
<title>Node9</title>
<g id="a_Node000009"><a xlink:href="../../d7/d06/class_g_e_u_1_1_database_query_popup.html#adb90287e5ae55991c17a08e912aff67c" target="_top" xlink:title=" ">
<polygon fill="white" stroke="#666666" points="342.88,-804 204.62,-804 204.62,-772 342.88,-772 342.88,-804"/>
<text text-anchor="start" x="212.62" y="-790.5" font-family="Helvetica,sans-Serif" font-size="10.00">GEU::DatabaseQueryPopup</text>
<text text-anchor="middle" x="273.75" y="-778.5" font-family="Helvetica,sans-Serif" font-size="10.00">::makeFormCamara</text>
</a>
</g>
</g>
<!-- Node1&#45;&gt;Node9 -->
<g id="edge16_Node000001_Node000009" class="edge">
<title>Node1&#45;&gt;Node9</title>
<g id="a_edge16_Node000001_Node000009"><a xlink:title=" ">
<path fill="none" stroke="#63b8ff" d="M643.78,-382.25C632.27,-423.27 606.79,-502.22 567.75,-560 508.27,-648.03 471.02,-651.03 395.75,-726 379.49,-742.19 379.4,-751.15 359.75,-763 354.35,-766.26 348.5,-769.11 342.48,-771.61"/>
<polygon fill="#63b8ff" stroke="#63b8ff" points="647.12,-383.3 646.38,-372.73 640.37,-381.46 647.12,-383.3"/>
</a>
</g>
</g>
<!-- Node10 -->
<g id="Node000010" class="node">
<title>Node10</title>
<g id="a_Node000010"><a xlink:href="../../d7/d06/class_g_e_u_1_1_database_query_popup.html#a83023007463bdd6e6a4b40c55146b825" target="_top" xlink:title=" ">
<polygon fill="white" stroke="#666666" points="342.88,-504 204.62,-504 204.62,-472 342.88,-472 342.88,-504"/>
<text text-anchor="start" x="212.62" y="-490.5" font-family="Helvetica,sans-Serif" font-size="10.00">GEU::DatabaseQueryPopup</text>
<text text-anchor="middle" x="273.75" y="-478.5" font-family="Helvetica,sans-Serif" font-size="10.00">::makeFormDatoCrudo</text>
</a>
</g>
</g>
<!-- Node1&#45;&gt;Node10 -->
<g id="edge17_Node000001_Node000010" class="edge">
<title>Node1&#45;&gt;Node10</title>
<g id="a_edge17_Node000001_Node000010"><a xlink:title=" ">
<path fill="none" stroke="#63b8ff" d="M625.3,-378.84C609.73,-392.16 588.83,-408.04 567.75,-418 495.17,-452.3 404.29,-470.64 343.14,-479.82"/>
<polygon fill="#63b8ff" stroke="#63b8ff" points="627.47,-381.59 632.67,-372.36 622.85,-376.33 627.47,-381.59"/>
</a>
</g>
</g>
<!-- Node13 -->
<g id="Node000013" class="node">
<title>Node13</title>
<g id="a_Node000013"><a xlink:href="../../d7/d06/class_g_e_u_1_1_database_query_popup.html#aee96f5bdc802183d992461ccf7af7606" target="_top" xlink:title=" ">
<polygon fill="white" stroke="#666666" points="342.88,-454 204.62,-454 204.62,-422 342.88,-422 342.88,-454"/>
<text text-anchor="start" x="212.62" y="-440.5" font-family="Helvetica,sans-Serif" font-size="10.00">GEU::DatabaseQueryPopup</text>
<text text-anchor="middle" x="273.75" y="-428.5" font-family="Helvetica,sans-Serif" font-size="10.00">::makeFormObjeto</text>
</a>
</g>
</g>
<!-- Node1&#45;&gt;Node13 -->
<g id="edge18_Node000001_Node000013" class="edge">
<title>Node1&#45;&gt;Node13</title>
<g id="a_edge18_Node000001_Node000013"><a xlink:title=" ">
<path fill="none" stroke="#63b8ff" d="M602.42,-375.48C591.17,-379.71 579.16,-383.84 567.75,-387 492.23,-407.89 403.29,-421.94 343.37,-429.91"/>
<polygon fill="#63b8ff" stroke="#63b8ff" points="603.44,-378.83 611.5,-371.95 600.91,-372.31 603.44,-378.83"/>
</a>
</g>
</g>
<!-- Node14 -->
<g id="Node000014" class="node">
<title>Node14</title>
<g id="a_Node000014"><a xlink:href="../../d7/d06/class_g_e_u_1_1_database_query_popup.html#a6799cf756f5e2cb191268e786a8df4ba" target="_top" xlink:title=" ">
<polygon fill="white" stroke="#666666" points="342.88,-404 204.62,-404 204.62,-372 342.88,-372 342.88,-404"/>
<text text-anchor="start" x="212.62" y="-390.5" font-family="Helvetica,sans-Serif" font-size="10.00">GEU::DatabaseQueryPopup</text>
<text text-anchor="middle" x="273.75" y="-378.5" font-family="Helvetica,sans-Serif" font-size="10.00">::makeFormVuelos</text>
</a>
</g>
</g>
<!-- Node1&#45;&gt;Node14 -->
<g id="edge19_Node000001_Node000014" class="edge">
<title>Node1&#45;&gt;Node14</title>
<g id="a_edge19_Node000001_Node000014"><a xlink:title=" ">
<path fill="none" stroke="#63b8ff" d="M592.06,-363.2C583.9,-364.22 575.62,-365.18 567.75,-366 491.01,-373.95 402.67,-380.19 343.23,-383.96"/>
<polygon fill="#63b8ff" stroke="#63b8ff" points="592.48,-366.68 601.95,-361.94 591.59,-359.74 592.48,-366.68"/>
</a>
</g>
</g>
<!-- Node15 -->
<g id="Node000015" class="node">
<title>Node15</title>
<g id="a_Node000015"><a xlink:href="../../d7/d06/class_g_e_u_1_1_database_query_popup.html#ad5e45356898c5dfc51d7ef890f7a5b41" target="_top" xlink:title=" ">
<polygon fill="white" stroke="#666666" points="342.88,-354 204.62,-354 204.62,-322 342.88,-322 342.88,-354"/>
<text text-anchor="start" x="212.62" y="-340.5" font-family="Helvetica,sans-Serif" font-size="10.00">GEU::DatabaseQueryPopup</text>
<text text-anchor="middle" x="273.75" y="-328.5" font-family="Helvetica,sans-Serif" font-size="10.00">::makeFormZona</text>
</a>
</g>
</g>
<!-- Node1&#45;&gt;Node15 -->
<g id="edge20_Node000001_Node000015" class="edge">
<title>Node1&#45;&gt;Node15</title>
<g id="a_edge20_Node000001_Node000015"><a xlink:title=" ">
<path fill="none" stroke="#63b8ff" d="M592.05,-355.17C540.31,-355 462.97,-353.99 395.75,-350 378.68,-348.99 360.3,-347.41 343.15,-345.74"/>
<polygon fill="#63b8ff" stroke="#63b8ff" points="591.82,-358.67 601.83,-355.19 591.83,-351.67 591.82,-358.67"/>
</a>
</g>
</g>
<!-- Node16 -->
<g id="Node000016" class="node">
<title>Node16</title>
<g id="a_Node000016"><a xlink:href="../../d7/d06/class_g_e_u_1_1_database_query_popup.html#afc8c81955f8b810c699753b511f61031" target="_top" xlink:title=" ">
<polygon fill="white" stroke="#666666" points="342.88,-304 204.62,-304 204.62,-272 342.88,-272 342.88,-304"/>
<text text-anchor="start" x="212.62" y="-290.5" font-family="Helvetica,sans-Serif" font-size="10.00">GEU::DatabaseQueryPopup</text>
<text text-anchor="middle" x="273.75" y="-278.5" font-family="Helvetica,sans-Serif" font-size="10.00">::makeZonaSelectorTable</text>
</a>
</g>
</g>
<!-- Node1&#45;&gt;Node16 -->
<g id="edge29_Node000001_Node000016" class="edge">
<title>Node1&#45;&gt;Node16</title>
<g id="a_edge29_Node000001_Node000016"><a xlink:title=" ">
<path fill="none" stroke="#63b8ff" d="M592.33,-347.76C540.46,-340.99 462.78,-330 395.75,-317 377.19,-313.4 357.19,-308.88 338.89,-304.48"/>
<polygon fill="#63b8ff" stroke="#63b8ff" points="591.78,-351.22 602.14,-349.03 592.67,-344.27 591.78,-351.22"/>
</a>
</g>
</g>
<!-- Node17 -->
<g id="Node000017" class="node">
<title>Node17</title>
<g id="a_Node000017"><a xlink:href="../../d6/d00/class_g_e_u_1_1_tree_segmentation_g_u_i_adapter.html#a7e53f2d5e62b2c5fd15e718d87751c7a" target="_top" xlink:title="Draw Input tab to load an image and apply segmentation.">
<polygon fill="white" stroke="#666666" points="567.75,-308 395.75,-308 395.75,-276 567.75,-276 567.75,-308"/>
<text text-anchor="start" x="403.75" y="-294.5" font-family="Helvetica,sans-Serif" font-size="10.00">GEU::TreeSegmentationGUIAdapter</text>
<text text-anchor="middle" x="481.75" y="-282.5" font-family="Helvetica,sans-Serif" font-size="10.00">::makeSegmentInputGUI</text>
</a>
</g>
</g>
<!-- Node1&#45;&gt;Node17 -->
<g id="edge22_Node000001_Node000017" class="edge">
<title>Node1&#45;&gt;Node17</title>
<g id="a_edge22_Node000001_Node000017"><a xlink:title=" ">
<path fill="none" stroke="#63b8ff" d="M600,-334.44C589.37,-330.25 578.22,-325.92 567.75,-322 555.73,-317.5 542.69,-312.8 530.52,-308.5"/>
<polygon fill="#63b8ff" stroke="#63b8ff" points="598.42,-337.58 609,-338.01 601,-331.07 598.42,-337.58"/>
</a>
</g>
</g>
<!-- Node18 -->
<g id="Node000018" class="node">
<title>Node18</title>
<g id="a_Node000018"><a xlink:href="../../d6/d00/class_g_e_u_1_1_tree_segmentation_g_u_i_adapter.html#ae0fe85f5025e377a59d1f0112a98449e" target="_top" xlink:title="Draw Manage tab to handle current image segmentation status.">
<polygon fill="white" stroke="#666666" points="567.75,-258 395.75,-258 395.75,-226 567.75,-226 567.75,-258"/>
<text text-anchor="start" x="403.75" y="-244.5" font-family="Helvetica,sans-Serif" font-size="10.00">GEU::TreeSegmentationGUIAdapter</text>
<text text-anchor="middle" x="481.75" y="-232.5" font-family="Helvetica,sans-Serif" font-size="10.00">::makeSegmentManageGUI</text>
</a>
</g>
</g>
<!-- Node1&#45;&gt;Node18 -->
<g id="edge23_Node000001_Node000018" class="edge">
<title>Node1&#45;&gt;Node18</title>
<g id="a_edge23_Node000001_Node000018"><a xlink:title=" ">
<path fill="none" stroke="#63b8ff" d="M632.81,-329.49C617.57,-309.75 594.08,-283.14 567.75,-267 562.5,-263.78 556.82,-260.96 550.97,-258.49"/>
<polygon fill="#63b8ff" stroke="#63b8ff" points="629.9,-331.44 638.69,-337.34 635.5,-327.24 629.9,-331.44"/>
</a>
</g>
</g>
<!-- Node19 -->
<g id="Node000019" class="node">
<title>Node19</title>
<g id="a_Node000019"><a xlink:href="../../d3/d07/namespace_g_e_u_1_1_gui_utilities.html#ae63312c9c8d5d514d8411e73e83a14ce" target="_top" xlink:title=" ">
<polygon fill="white" stroke="#666666" points="542.62,-170 420.88,-170 420.88,-138 542.62,-138 542.62,-170"/>
<text text-anchor="start" x="428.88" y="-156.5" font-family="Helvetica,sans-Serif" font-size="10.00">GEU::GuiUtilities::</text>
<text text-anchor="middle" x="481.75" y="-144.5" font-family="Helvetica,sans-Serif" font-size="10.00">makeSelectableTextBox</text>
</a>
</g>
</g>
<!-- Node1&#45;&gt;Node19 -->
<g id="edge24_Node000001_Node000019" class="edge">
<title>Node1&#45;&gt;Node19</title>
<g id="a_edge24_Node000001_Node000019"><a xlink:title=" ">
<path fill="none" stroke="#63b8ff" d="M644.52,-327.51C634.47,-290 611.41,-222.98 567.75,-184 560.51,-177.54 551.79,-172.45 542.74,-168.44"/>
<polygon fill="#63b8ff" stroke="#63b8ff" points="641.1,-328.29 646.96,-337.12 647.89,-326.56 641.1,-328.29"/>
</a>
</g>
</g>
<!-- Node20 -->
<g id="Node000020" class="node">
<title>Node20</title>
<g id="a_Node000020"><a xlink:href="../../d4/d01/class_g_e_u_1_1_analisis___hyper_g_u_i_adapter.html#a156725e979aa472099001c430bb20a5c" target="_top" xlink:title="Custom module GUI window contents.">
<polygon fill="white" stroke="#666666" points="353,-220 194.5,-220 194.5,-188 353,-188 353,-220"/>
<text text-anchor="start" x="202.5" y="-206.5" font-family="Helvetica,sans-Serif" font-size="10.00">GEU::Analisis_HyperGUIAdapter</text>
<text text-anchor="middle" x="273.75" y="-194.5" font-family="Helvetica,sans-Serif" font-size="10.00">::renderGuiObject</text>
</a>
</g>
</g>
<!-- Node1&#45;&gt;Node20 -->
<g id="edge31_Node000001_Node000020" class="edge">
<title>Node1&#45;&gt;Node20</title>
<g id="a_edge31_Node000001_Node000020"><a xlink:title=" ">
<path fill="none" stroke="#63b8ff" d="M643.21,-327.98C632.34,-295.28 609.04,-241.55 567.75,-217 503.2,-178.61 415.76,-180.14 353.24,-188.34"/>
<polygon fill="#63b8ff" stroke="#63b8ff" points="639.75,-328.65 646.09,-337.14 646.43,-326.55 639.75,-328.65"/>
</a>
</g>
</g>
<!-- Node24 -->
<g id="Node000024" class="node">
<title>Node24</title>
<g id="a_Node000024"><a xlink:href="../../de/d06/class_g_e_u_1_1_g_u_i.html#af7ebc89aa431e3a9e86bb1424b819d47" target="_top" xlink:title="Draws ImGUI elements.">
<polygon fill="white" stroke="#666666" points="528,-120 435.5,-120 435.5,-100 528,-100 528,-120"/>
<text text-anchor="middle" x="481.75" y="-106.5" font-family="Helvetica,sans-Serif" font-size="10.00">GEU::GUI::render</text>
</a>
</g>
</g>
<!-- Node1&#45;&gt;Node24 -->
<g id="edge30_Node000001_Node000024" class="edge">
<title>Node1&#45;&gt;Node24</title>
<g id="a_edge30_Node000001_Node000024"><a xlink:title=" ">
<path fill="none" stroke="#63b8ff" d="M648.99,-327.39C644.18,-279.47 627.21,-181.06 567.75,-129 556.94,-119.54 542.45,-114.48 528.5,-111.86"/>
<polygon fill="#63b8ff" stroke="#63b8ff" points="645.49,-327.53 649.86,-337.19 652.46,-326.92 645.49,-327.53"/>
</a>
</g>
</g>
<!-- Node25 -->
<g id="Node000025" class="node">
<title>Node25</title>
<g id="a_Node000025"><a xlink:href="../../d1/d03/class_g_e_u_1_1_thermal_g_u_i_adapter.html#a1509f8f0d21826efa7cc133bbd190931" target="_top" xlink:title="Custom module GUI window contents.">
<polygon fill="white" stroke="#666666" points="545.62,-82 417.88,-82 417.88,-50 545.62,-50 545.62,-82"/>
<text text-anchor="start" x="425.88" y="-68.5" font-family="Helvetica,sans-Serif" font-size="10.00">GEU::ThermalGUIAdapter</text>
<text text-anchor="middle" x="481.75" y="-56.5" font-family="Helvetica,sans-Serif" font-size="10.00">::renderGuiObject</text>
</a>
</g>
</g>
<!-- Node1&#45;&gt;Node25 -->
<g id="edge32_Node000001_Node000025" class="edge">
<title>Node1&#45;&gt;Node25</title>
<g id="a_edge32_Node000001_Node000025"><a xlink:title=" ">
<path fill="none" stroke="#63b8ff" d="M650.31,-327.45C647.7,-274.11 634.25,-156.25 567.75,-91 561.6,-84.97 554.08,-80.38 546.07,-76.89"/>
<polygon fill="#63b8ff" stroke="#63b8ff" points="646.81,-327.31 650.69,-337.17 653.8,-327.04 646.81,-327.31"/>
</a>
</g>
</g>
<!-- Node26 -->
<g id="Node000026" class="node">
<title>Node26</title>
<g id="a_Node000026"><a xlink:href="../../d3/d04/class_g_e_u_1_1_confirm_popup.html#a82f88c00c88912fb0beab3db3dcccdf0" target="_top" xlink:title="Renders the popup and its contents.">
<polygon fill="white" stroke="#666666" points="536.62,-32 426.88,-32 426.88,0 536.62,0 536.62,-32"/>
<text text-anchor="start" x="434.88" y="-18.5" font-family="Helvetica,sans-Serif" font-size="10.00">GEU::ConfirmPopup::</text>
<text text-anchor="middle" x="481.75" y="-6.5" font-family="Helvetica,sans-Serif" font-size="10.00">renderPopup</text>
</a>
</g>
</g>
<!-- Node1&#45;&gt;Node26 -->
<g id="edge33_Node000001_Node000026" class="edge">
<title>Node1&#45;&gt;Node26</title>
<g id="a_edge33_Node000001_Node000026"><a xlink:title=" ">
<path fill="none" stroke="#63b8ff" d="M647.12,-327.69C637.17,-259.17 608.1,-82.46 567.75,-41 559.38,-32.4 548.22,-26.72 536.75,-22.98"/>
<polygon fill="#63b8ff" stroke="#63b8ff" points="643.61,-327.91 648.49,-337.31 650.54,-326.92 643.61,-327.91"/>
</a>
</g>
</g>
<!-- Node2&#45;&gt;Node3 -->
<g id="edge2_Node000002_Node000003" class="edge">
<title>Node2&#45;&gt;Node3</title>
<g id="a_edge2_Node000002_Node000003"><a xlink:title=" ">
<path fill="none" stroke="#63b8ff" d="M442.74,-772.81C419.32,-785.65 388.39,-801.57 359.75,-813 352.04,-816.08 343.79,-818.97 335.59,-821.62"/>
<polygon fill="#63b8ff" stroke="#63b8ff" points="444.24,-775.98 451.28,-768.07 440.84,-769.86 444.24,-775.98"/>
</a>
</g>
</g>
<!-- Node5 -->
<g id="Node000005" class="node">
<title>Node5</title>
<g id="a_Node000005"><a xlink:href="../../db/d06/class_g_e_u_1_1_database_new_vuelo_popup.html#ab95b74bfc7395d03f358cecc811ed215" target="_top" xlink:title=" ">
<polygon fill="white" stroke="#666666" points="351.5,-604 196,-604 196,-572 351.5,-572 351.5,-604"/>
<text text-anchor="start" x="204" y="-590.5" font-family="Helvetica,sans-Serif" font-size="10.00">GEU::DatabaseNewVueloPopup</text>
<text text-anchor="middle" x="273.75" y="-578.5" font-family="Helvetica,sans-Serif" font-size="10.00">::handleDronPopup</text>
</a>
</g>
</g>
<!-- Node4&#45;&gt;Node5 -->
<g id="edge4_Node000004_Node000005" class="edge">
<title>Node4&#45;&gt;Node5</title>
<g id="a_edge4_Node000004_Node000005"><a xlink:title=" ">
<path fill="none" stroke="#63b8ff" d="M416.57,-551.51C391.76,-557.9 363.42,-565.19 338.63,-571.56"/>
<polygon fill="#63b8ff" stroke="#63b8ff" points="417.42,-554.91 426.23,-549.03 415.68,-548.13 417.42,-554.91"/>
</a>
</g>
</g>
<!-- Node6 -->
<g id="Node000006" class="node">
<title>Node6</title>
<g id="a_Node000006"><a xlink:href="../../df/d01/class_g_e_u_1_1_database_new_zona_popup.html#ac75ed971c74258a7c79ac85f58874852" target="_top" xlink:title=" ">
<polygon fill="white" stroke="#666666" points="349.62,-554 197.88,-554 197.88,-522 349.62,-522 349.62,-554"/>
<text text-anchor="start" x="205.88" y="-540.5" font-family="Helvetica,sans-Serif" font-size="10.00">GEU::DatabaseNewZonaPopup</text>
<text text-anchor="middle" x="273.75" y="-528.5" font-family="Helvetica,sans-Serif" font-size="10.00">::handleMunicipioPopup</text>
</a>
</g>
</g>
<!-- Node4&#45;&gt;Node6 -->
<g id="edge5_Node000004_Node000006" class="edge">
<title>Node4&#45;&gt;Node6</title>
<g id="a_edge5_Node000004_Node000006"><a xlink:title=" ">
<path fill="none" stroke="#63b8ff" d="M416.27,-535.94C395.17,-536.25 371.55,-536.59 349.75,-536.91"/>
<polygon fill="#63b8ff" stroke="#63b8ff" points="416.24,-539.44 426.19,-535.79 416.14,-532.44 416.24,-539.44"/>
</a>
</g>
</g>
<!-- Node8 -->
<g id="Node000008" class="node">
<title>Node8</title>
<g id="a_Node000008"><a xlink:href="../../db/d06/class_g_e_u_1_1_database_new_vuelo_popup.html#a3939a10ac14ff4dbfd34f341fc52db79" target="_top" xlink:title=" ">
<polygon fill="white" stroke="#666666" points="351.5,-754 196,-754 196,-722 351.5,-722 351.5,-754"/>
<text text-anchor="start" x="204" y="-740.5" font-family="Helvetica,sans-Serif" font-size="10.00">GEU::DatabaseNewVueloPopup</text>
<text text-anchor="middle" x="273.75" y="-728.5" font-family="Helvetica,sans-Serif" font-size="10.00">::handleZonaPopup</text>
</a>
</g>
</g>
<!-- Node4&#45;&gt;Node8 -->
<g id="edge7_Node000004_Node000008" class="edge">
<title>Node4&#45;&gt;Node8</title>
<g id="a_edge7_Node000004_Node000008"><a xlink:title=" ">
<path fill="none" stroke="#63b8ff" d="M460.66,-560.36C442.85,-583.26 416.51,-618.16 395.75,-650 378.14,-677.01 385.05,-693 359.75,-713 355.65,-716.24 351.13,-719.07 346.39,-721.52"/>
<polygon fill="#63b8ff" stroke="#63b8ff" points="463.39,-562.55 466.8,-552.51 457.88,-558.23 463.39,-562.55"/>
</a>
</g>
</g>
<!-- Node4&#45;&gt;Node9 -->
<g id="edge8_Node000004_Node000009" class="edge">
<title>Node4&#45;&gt;Node9</title>
<g id="a_edge8_Node000004_Node000009"><a xlink:title=" ">
<path fill="none" stroke="#63b8ff" d="M458.58,-559.86C439.69,-582.13 412.93,-616.39 395.75,-650 371.76,-696.94 397.44,-726.15 359.75,-763 354.91,-767.73 349.22,-771.58 343.12,-774.7"/>
<polygon fill="#63b8ff" stroke="#63b8ff" points="461.04,-562.37 464.91,-552.51 455.74,-557.8 461.04,-562.37"/>
</a>
</g>
</g>
<!-- Node4&#45;&gt;Node10 -->
<g id="edge9_Node000004_Node000010" class="edge">
<title>Node4&#45;&gt;Node10</title>
<g id="a_edge9_Node000004_Node000010"><a xlink:title=" ">
<path fill="none" stroke="#63b8ff" d="M416.54,-520.35C393.24,-515.03 366.83,-509.01 343.18,-503.61"/>
<polygon fill="#63b8ff" stroke="#63b8ff" points="415.7,-523.75 426.22,-522.56 417.25,-516.92 415.7,-523.75"/>
</a>
</g>
</g>
<!-- Node11 -->
<g id="Node000011" class="node">
<title>Node11</title>
<g id="a_Node000011"><a xlink:href="../../d7/d06/class_g_e_u_1_1_database_query_popup.html#a1946c8c9ce8e263ceda1d7cc6da23e9e" target="_top" xlink:title=" ">
<polygon fill="white" stroke="#666666" points="342.88,-704 204.62,-704 204.62,-672 342.88,-672 342.88,-704"/>
<text text-anchor="start" x="212.62" y="-690.5" font-family="Helvetica,sans-Serif" font-size="10.00">GEU::DatabaseQueryPopup</text>
<text text-anchor="middle" x="273.75" y="-678.5" font-family="Helvetica,sans-Serif" font-size="10.00">::makeFormDron</text>
</a>
</g>
</g>
<!-- Node4&#45;&gt;Node11 -->
<g id="edge10_Node000004_Node000011" class="edge">
<title>Node4&#45;&gt;Node11</title>
<g id="a_edge10_Node000004_Node000011"><a xlink:title=" ">
<path fill="none" stroke="#63b8ff" d="M463.22,-560.46C441.98,-589.42 403.56,-636.16 359.75,-663 354.5,-666.21 348.82,-669.04 342.97,-671.51"/>
<polygon fill="#63b8ff" stroke="#63b8ff" points="465.87,-562.76 468.86,-552.6 460.18,-558.68 465.87,-562.76"/>
</a>
</g>
</g>
<!-- Node12 -->
<g id="Node000012" class="node">
<title>Node12</title>
<g id="a_Node000012"><a xlink:href="../../d7/d06/class_g_e_u_1_1_database_query_popup.html#a7e928a635f870efcaf7dc0826c039858" target="_top" xlink:title=" ">
<polygon fill="white" stroke="#666666" points="342.88,-654 204.62,-654 204.62,-622 342.88,-622 342.88,-654"/>
<text text-anchor="start" x="212.62" y="-640.5" font-family="Helvetica,sans-Serif" font-size="10.00">GEU::DatabaseQueryPopup</text>
<text text-anchor="middle" x="273.75" y="-628.5" font-family="Helvetica,sans-Serif" font-size="10.00">::makeFormFinca</text>
</a>
</g>
</g>
<!-- Node4&#45;&gt;Node12 -->
<g id="edge11_Node000004_Node000012" class="edge">
<title>Node4&#45;&gt;Node12</title>
<g id="a_edge11_Node000004_Node000012"><a xlink:title=" ">
<path fill="none" stroke="#63b8ff" d="M450.39,-558.07C426.74,-575.17 392.51,-598 359.75,-613 352.9,-616.14 345.55,-618.99 338.16,-621.55"/>
<polygon fill="#63b8ff" stroke="#63b8ff" points="452.32,-561 458.32,-552.26 448.19,-555.35 452.32,-561"/>
</a>
</g>
</g>
<!-- Node4&#45;&gt;Node13 -->
<g id="edge12_Node000004_Node000013" class="edge">
<title>Node4&#45;&gt;Node13</title>
<g id="a_edge12_Node000004_Node000013"><a xlink:title=" ">
<path fill="none" stroke="#63b8ff" d="M447.61,-512.19C423.95,-496.68 390.92,-476.6 359.75,-463 352.56,-459.86 344.86,-456.98 337.14,-454.38"/>
<polygon fill="#63b8ff" stroke="#63b8ff" points="445.61,-515.06 455.88,-517.68 449.49,-509.23 445.61,-515.06"/>
</a>
</g>
</g>
<!-- Node4&#45;&gt;Node14 -->
<g id="edge13_Node000004_Node000014" class="edge">
<title>Node4&#45;&gt;Node14</title>
<g id="a_edge13_Node000004_Node000014"><a xlink:title=" ">
<path fill="none" stroke="#63b8ff" d="M461.97,-509.52C440.3,-481.86 402.15,-438.29 359.75,-413 354.33,-409.77 348.47,-406.93 342.45,-404.45"/>
<polygon fill="#63b8ff" stroke="#63b8ff" points="459.14,-511.58 468.01,-517.38 464.69,-507.31 459.14,-511.58"/>
</a>
</g>
</g>
<!-- Node4&#45;&gt;Node15 -->
<g id="edge14_Node000004_Node000015" class="edge">
<title>Node4&#45;&gt;Node15</title>
<g id="a_edge14_Node000004_Node000015"><a xlink:title=" ">
<path fill="none" stroke="#63b8ff" d="M469.14,-508.49C451.18,-470.58 413.09,-401.23 359.75,-363 354.62,-359.33 348.96,-356.19 343.06,-353.51"/>
<polygon fill="#63b8ff" stroke="#63b8ff" points="465.86,-509.75 473.23,-517.37 472.22,-506.82 465.86,-509.75"/>
</a>
</g>
</g>
<!-- Node4&#45;&gt;Node16 -->
<g id="edge15_Node000004_Node000016" class="edge">
<title>Node4&#45;&gt;Node16</title>
<g id="a_edge15_Node000004_Node000016"><a xlink:title=" ">
<path fill="none" stroke="#63b8ff" d="M469.3,-508.25C446.15,-455.31 393.16,-339.96 359.75,-313 354.72,-308.94 349.06,-305.54 343.1,-302.7"/>
<polygon fill="#63b8ff" stroke="#63b8ff" points="465.97,-509.38 473.16,-517.16 472.39,-506.59 465.97,-509.38"/>
</a>
</g>
</g>
<!-- Node7 -->
<g id="Node000007" class="node">
<title>Node7</title>
<g id="a_Node000007"><a xlink:href="../../df/d01/class_g_e_u_1_1_database_new_zona_popup.html#a12c7cda56d74fc9f5f7f35b32382040f" target="_top" xlink:title="Renders the popup and its contents.">
<polygon fill="white" stroke="#666666" points="151.75,-554 0,-554 0,-522 151.75,-522 151.75,-554"/>
<text text-anchor="start" x="8" y="-540.5" font-family="Helvetica,sans-Serif" font-size="10.00">GEU::DatabaseNewZonaPopup</text>
<text text-anchor="middle" x="75.88" y="-528.5" font-family="Helvetica,sans-Serif" font-size="10.00">::renderPopup</text>
</a>
</g>
</g>
<!-- Node6&#45;&gt;Node7 -->
<g id="edge6_Node000006_Node000007" class="edge">
<title>Node6&#45;&gt;Node7</title>
<g id="a_edge6_Node000006_Node000007"><a xlink:title=" ">
<path fill="none" stroke="#63b8ff" d="M186.3,-538C174.92,-538 163.34,-538 152.17,-538"/>
<polygon fill="#63b8ff" stroke="#63b8ff" points="186.07,-541.5 196.07,-538 186.07,-534.5 186.07,-541.5"/>
</a>
</g>
</g>
<!-- Node19&#45;&gt;Node20 -->
<g id="edge25_Node000019_Node000020" class="edge">
<title>Node19&#45;&gt;Node20</title>
<g id="a_edge25_Node000019_Node000020"><a xlink:title=" ">
<path fill="none" stroke="#63b8ff" d="M409.48,-171.3C387.79,-176.56 364.02,-182.33 342.56,-187.54"/>
<polygon fill="#63b8ff" stroke="#63b8ff" points="410.25,-174.71 419.14,-168.95 408.6,-167.91 410.25,-174.71"/>
</a>
</g>
</g>
<!-- Node21 -->
<g id="Node000021" class="node">
<title>Node21</title>
<g id="a_Node000021"><a xlink:href="../../de/d02/class_g_e_u_1_1_multiespectral_g_u_i_adapter.html#a30cdb8738563252a05b2da154c3f864d" target="_top" xlink:title="Custom module GUI window contents.">
<polygon fill="white" stroke="#666666" points="350.75,-170 196.75,-170 196.75,-138 350.75,-138 350.75,-170"/>
<text text-anchor="start" x="204.75" y="-156.5" font-family="Helvetica,sans-Serif" font-size="10.00">GEU::MultiespectralGUIAdapter</text>
<text text-anchor="middle" x="273.75" y="-144.5" font-family="Helvetica,sans-Serif" font-size="10.00">::renderGuiObject</text>
</a>
</g>
</g>
<!-- Node19&#45;&gt;Node21 -->
<g id="edge26_Node000019_Node000021" class="edge">
<title>Node19&#45;&gt;Node21</title>
<g id="a_edge26_Node000019_Node000021"><a xlink:title=" ">
<path fill="none" stroke="#63b8ff" d="M409.16,-154C390.4,-154 370.11,-154 351.11,-154"/>
<polygon fill="#63b8ff" stroke="#63b8ff" points="409.1,-157.5 419.1,-154 409.1,-150.5 409.1,-157.5"/>
</a>
</g>
</g>
<!-- Node22 -->
<g id="Node000022" class="node">
<title>Node22</title>
<g id="a_Node000022"><a xlink:href="../../d5/d03/class_g_e_u_1_1_reconstruccion_g_u_i_adapter.html#a2918ca118794a47873dbc1df297d68d7" target="_top" xlink:title="Custom module GUI window contents.">
<polygon fill="white" stroke="#666666" points="354.12,-120 193.38,-120 193.38,-88 354.12,-88 354.12,-120"/>
<text text-anchor="start" x="201.38" y="-106.5" font-family="Helvetica,sans-Serif" font-size="10.00">GEU::ReconstruccionGUIAdapter</text>
<text text-anchor="middle" x="273.75" y="-94.5" font-family="Helvetica,sans-Serif" font-size="10.00">::renderGuiObject</text>
</a>
</g>
</g>
<!-- Node19&#45;&gt;Node22 -->
<g id="edge27_Node000019_Node000022" class="edge">
<title>Node19&#45;&gt;Node22</title>
<g id="a_edge27_Node000019_Node000022"><a xlink:title=" ">
<path fill="none" stroke="#63b8ff" d="M409.48,-136.7C387.79,-131.44 364.02,-125.67 342.56,-120.46"/>
<polygon fill="#63b8ff" stroke="#63b8ff" points="408.6,-140.09 419.14,-139.05 410.25,-133.29 408.6,-140.09"/>
</a>
</g>
</g>
<!-- Node23 -->
<g id="Node000023" class="node">
<title>Node23</title>
<g id="a_Node000023"><a xlink:href="../../d6/d00/class_g_e_u_1_1_tree_segmentation_g_u_i_adapter.html#afcda560180acc4f5fbd7caeaa40f9018" target="_top" xlink:title="Custom module GUI window contents.">
<polygon fill="white" stroke="#666666" points="359.75,-70 187.75,-70 187.75,-38 359.75,-38 359.75,-70"/>
<text text-anchor="start" x="195.75" y="-56.5" font-family="Helvetica,sans-Serif" font-size="10.00">GEU::TreeSegmentationGUIAdapter</text>
<text text-anchor="middle" x="273.75" y="-44.5" font-family="Helvetica,sans-Serif" font-size="10.00">::renderGuiObject</text>
</a>
</g>
</g>
<!-- Node19&#45;&gt;Node23 -->
<g id="edge28_Node000019_Node000023" class="edge">
<title>Node19&#45;&gt;Node23</title>
<g id="a_edge28_Node000019_Node000023"><a xlink:title=" ">
<path fill="none" stroke="#63b8ff" d="M410.57,-137.55C405.35,-135.08 400.34,-132.25 395.75,-129 373.41,-113.17 382.09,-94.83 359.75,-79 355.11,-75.71 350.03,-72.85 344.74,-70.36"/>
<polygon fill="#63b8ff" stroke="#63b8ff" points="408.84,-140.62 419.42,-141.27 411.56,-134.17 408.84,-140.62"/>
</a>
</g>
</g>
</g>
</svg>
