<?xml version="1.0" encoding="UTF-8" standalone="no"?>
<!DOCTYPE svg PUBLIC "-//W3C//DTD SVG 1.1//EN"
 "http://www.w3.org/Graphics/SVG/1.1/DTD/svg11.dtd">
<!-- Generated by graphviz version 10.0.1 (20240210.2158)
 -->
<!-- Title: GEU::GuiUtilities::Button Pages: 1 -->
<svg width="456pt" height="578pt"
 viewBox="0.00 0.00 455.75 578.00" xmlns="http://www.w3.org/2000/svg" xmlns:xlink="http://www.w3.org/1999/xlink">
<g id="graph0" class="graph" transform="scale(1 1) rotate(0) translate(4 574)">
<title>GEU::GuiUtilities::Button</title>
<!-- Node1 -->
<g id="Node000001" class="node">
<title>Node1</title>
<g id="a_Node000001"><a xlink:title=" ">
<polygon fill="#999999" stroke="#666666" points="447.75,-295 351.5,-295 351.5,-263 447.75,-263 447.75,-295"/>
<text text-anchor="start" x="359.5" y="-281.5" font-family="Helvetica,sans-Serif" font-size="10.00">GEU::GuiUtilities::</text>
<text text-anchor="middle" x="399.62" y="-269.5" font-family="Helvetica,sans-Serif" font-size="10.00">Button</text>
</a>
</g>
</g>
<!-- Node2 -->
<g id="Node000002" class="node">
<title>Node2</title>
<g id="a_Node000002"><a xlink:href="../../db/d00/class_g_e_u_1_1_details_window.html#ad35f61717358ebd11631e5b8c5ed9ff9" target="_top" xlink:title="Makes and handles basic enabled and POS/ROT/SCL edit controls.">
<polygon fill="white" stroke="#666666" points="304.25,-570 154.75,-570 154.75,-538 304.25,-538 304.25,-570"/>
<text text-anchor="start" x="162.75" y="-556.5" font-family="Helvetica,sans-Serif" font-size="10.00">GEU::DetailsWindow</text>
<text text-anchor="middle" x="229.5" y="-544.5" font-family="Helvetica,sans-Serif" font-size="10.00">::makeBasicTransformControls</text>
</a>
</g>
</g>
<!-- Node1&#45;&gt;Node2 -->
<g id="edge1_Node000001_Node000002" class="edge">
<title>Node1&#45;&gt;Node2</title>
<g id="a_edge1_Node000001_Node000002"><a xlink:title=" ">
<path fill="none" stroke="#63b8ff" d="M397.46,-306.87C393.8,-358.22 378.57,-468.09 315.5,-529 312.07,-532.31 308.22,-535.19 304.11,-537.69"/>
<polygon fill="#63b8ff" stroke="#63b8ff" points="400.96,-307.12 398.06,-296.93 393.97,-306.7 400.96,-307.12"/>
</a>
</g>
</g>
<!-- Node3 -->
<g id="Node000003" class="node">
<title>Node3</title>
<g id="a_Node000003"><a xlink:href="../../db/d00/class_g_e_u_1_1_details_window.html#a5846380c6e133a053b1143f6d464dd70" target="_top" xlink:title="Renders inspector details for 3D model items.">
<polygon fill="white" stroke="#666666" points="294.88,-520 164.12,-520 164.12,-488 294.88,-488 294.88,-520"/>
<text text-anchor="start" x="172.12" y="-506.5" font-family="Helvetica,sans-Serif" font-size="10.00">GEU::DetailsWindow</text>
<text text-anchor="middle" x="229.5" y="-494.5" font-family="Helvetica,sans-Serif" font-size="10.00">::makeModelItemInspector</text>
</a>
</g>
</g>
<!-- Node1&#45;&gt;Node3 -->
<g id="edge2_Node000001_Node000003" class="edge">
<title>Node1&#45;&gt;Node3</title>
<g id="a_edge2_Node000001_Node000003"><a xlink:title=" ">
<path fill="none" stroke="#63b8ff" d="M394.79,-306.74C387.36,-349.87 366.93,-432.84 315.5,-479 309.55,-484.34 302.51,-488.55 295.06,-491.85"/>
<polygon fill="#63b8ff" stroke="#63b8ff" points="398.23,-307.37 396.35,-296.95 391.32,-306.27 398.23,-307.37"/>
</a>
</g>
</g>
<!-- Node5 -->
<g id="Node000005" class="node">
<title>Node5</title>
<g id="a_Node000005"><a xlink:href="../../db/d00/class_g_e_u_1_1_details_window.html#a696b110218746e301559da2c93e6cd60" target="_top" xlink:title="Renders inspector details for point cloud items.">
<polygon fill="white" stroke="#666666" points="297.5,-470 161.5,-470 161.5,-438 297.5,-438 297.5,-470"/>
<text text-anchor="start" x="169.5" y="-456.5" font-family="Helvetica,sans-Serif" font-size="10.00">GEU::DetailsWindow</text>
<text text-anchor="middle" x="229.5" y="-444.5" font-family="Helvetica,sans-Serif" font-size="10.00">::makePCloudItemInspector</text>
</a>
</g>
</g>
<!-- Node1&#45;&gt;Node5 -->
<g id="edge4_Node000001_Node000005" class="edge">
<title>Node1&#45;&gt;Node5</title>
<g id="a_edge4_Node000001_Node000005"><a xlink:title=" ">
<path fill="none" stroke="#63b8ff" d="M390.68,-306.13C379.43,-339.85 355.62,-396.86 315.5,-429 310.22,-433.23 304.24,-436.75 297.96,-439.67"/>
<polygon fill="#63b8ff" stroke="#63b8ff" points="393.99,-307.29 393.69,-296.7 387.32,-305.16 393.99,-307.29"/>
</a>
</g>
</g>
<!-- Node6 -->
<g id="Node000006" class="node">
<title>Node6</title>
<g id="a_Node000006"><a xlink:href="../../d7/d03/class_g_e_u_1_1_hyper_g_u_i_adapter.html#a2d0ac3a4a73bd1a00f99bc0575951c9c" target="_top" xlink:title="Custom module GUI window contents.">
<polygon fill="white" stroke="#666666" points="288.88,-420 170.12,-420 170.12,-388 288.88,-388 288.88,-420"/>
<text text-anchor="start" x="178.12" y="-406.5" font-family="Helvetica,sans-Serif" font-size="10.00">GEU::HyperGUIAdapter</text>
<text text-anchor="middle" x="229.5" y="-394.5" font-family="Helvetica,sans-Serif" font-size="10.00">::renderGuiObject</text>
</a>
</g>
</g>
<!-- Node1&#45;&gt;Node6 -->
<g id="edge6_Node000001_Node000006" class="edge">
<title>Node1&#45;&gt;Node6</title>
<g id="a_edge6_Node000001_Node000006"><a xlink:title=" ">
<path fill="none" stroke="#63b8ff" d="M383.24,-305.1C368.57,-327.8 344.45,-359.96 315.5,-379 307.53,-384.24 298.44,-388.41 289.23,-391.72"/>
<polygon fill="#63b8ff" stroke="#63b8ff" points="386.16,-307.04 388.5,-296.7 380.23,-303.32 386.16,-307.04"/>
</a>
</g>
</g>
<!-- Node7 -->
<g id="Node000007" class="node">
<title>Node7</title>
<g id="a_Node000007"><a xlink:href="../../d6/d00/class_g_e_u_1_1_tree_segmentation_g_u_i_adapter.html#afcda560180acc4f5fbd7caeaa40f9018" target="_top" xlink:title="Custom module GUI window contents.">
<polygon fill="white" stroke="#666666" points="315.5,-370 143.5,-370 143.5,-338 315.5,-338 315.5,-370"/>
<text text-anchor="start" x="151.5" y="-356.5" font-family="Helvetica,sans-Serif" font-size="10.00">GEU::TreeSegmentationGUIAdapter</text>
<text text-anchor="middle" x="229.5" y="-344.5" font-family="Helvetica,sans-Serif" font-size="10.00">::renderGuiObject</text>
</a>
</g>
</g>
<!-- Node1&#45;&gt;Node7 -->
<g id="edge7_Node000001_Node000007" class="edge">
<title>Node1&#45;&gt;Node7</title>
<g id="a_edge7_Node000001_Node000007"><a xlink:title=" ">
<path fill="none" stroke="#63b8ff" d="M365.86,-301.37C350.96,-310.83 332.83,-321.39 315.5,-329 308.32,-332.15 300.62,-335.04 292.91,-337.65"/>
<polygon fill="#63b8ff" stroke="#63b8ff" points="367.38,-304.55 373.86,-296.18 363.57,-298.68 367.38,-304.55"/>
</a>
</g>
</g>
<!-- Node8 -->
<g id="Node000008" class="node">
<title>Node8</title>
<g id="a_Node000008"><a xlink:href="../../db/d06/class_g_e_u_1_1_database_new_vuelo_popup.html#ac1b98a11d860c6c9fe497bdcaa689d79" target="_top" xlink:title="Renders the popup and its contents.">
<polygon fill="white" stroke="#666666" points="307.25,-320 151.75,-320 151.75,-288 307.25,-288 307.25,-320"/>
<text text-anchor="start" x="159.75" y="-306.5" font-family="Helvetica,sans-Serif" font-size="10.00">GEU::DatabaseNewVueloPopup</text>
<text text-anchor="middle" x="229.5" y="-294.5" font-family="Helvetica,sans-Serif" font-size="10.00">::renderPopup</text>
</a>
</g>
</g>
<!-- Node1&#45;&gt;Node8 -->
<g id="edge8_Node000001_Node000008" class="edge">
<title>Node1&#45;&gt;Node8</title>
<g id="a_edge8_Node000001_Node000008"><a xlink:title=" ">
<path fill="none" stroke="#63b8ff" d="M340.21,-287.69C329.7,-289.25 318.59,-290.9 307.65,-292.53"/>
<polygon fill="#63b8ff" stroke="#63b8ff" points="340.47,-291.19 349.85,-286.25 339.44,-284.26 340.47,-291.19"/>
</a>
</g>
</g>
<!-- Node9 -->
<g id="Node000009" class="node">
<title>Node9</title>
<g id="a_Node000009"><a xlink:href="../../df/d01/class_g_e_u_1_1_database_new_zona_popup.html#a12c7cda56d74fc9f5f7f35b32382040f" target="_top" xlink:title="Renders the popup and its contents.">
<polygon fill="white" stroke="#666666" points="305.38,-270 153.62,-270 153.62,-238 305.38,-238 305.38,-270"/>
<text text-anchor="start" x="161.62" y="-256.5" font-family="Helvetica,sans-Serif" font-size="10.00">GEU::DatabaseNewZonaPopup</text>
<text text-anchor="middle" x="229.5" y="-244.5" font-family="Helvetica,sans-Serif" font-size="10.00">::renderPopup</text>
</a>
</g>
</g>
<!-- Node1&#45;&gt;Node9 -->
<g id="edge9_Node000001_Node000009" class="edge">
<title>Node1&#45;&gt;Node9</title>
<g id="a_edge9_Node000001_Node000009"><a xlink:title=" ">
<path fill="none" stroke="#63b8ff" d="M340.07,-270.29C328.98,-268.64 317.25,-266.9 305.73,-265.19"/>
<polygon fill="#63b8ff" stroke="#63b8ff" points="339.44,-273.74 349.85,-271.75 340.47,-266.81 339.44,-273.74"/>
</a>
</g>
</g>
<!-- Node10 -->
<g id="Node000010" class="node">
<title>Node10</title>
<g id="a_Node000010"><a xlink:href="../../dc/d00/class_g_e_u_1_1_database_query_dato_popup.html#a6b45f3f4957a46091ab0d75b9600a56d" target="_top" xlink:title="Renders the popup and its contents.">
<polygon fill="white" stroke="#666666" points="308.75,-220 150.25,-220 150.25,-188 308.75,-188 308.75,-220"/>
<text text-anchor="start" x="158.25" y="-206.5" font-family="Helvetica,sans-Serif" font-size="10.00">GEU::DatabaseQueryDatoPopup</text>
<text text-anchor="middle" x="229.5" y="-194.5" font-family="Helvetica,sans-Serif" font-size="10.00">::renderPopup</text>
</a>
</g>
</g>
<!-- Node1&#45;&gt;Node10 -->
<g id="edge10_Node000001_Node000010" class="edge">
<title>Node1&#45;&gt;Node10</title>
<g id="a_edge10_Node000001_Node000010"><a xlink:title=" ">
<path fill="none" stroke="#63b8ff" d="M365.86,-256.63C350.96,-247.17 332.83,-236.61 315.5,-229 308.32,-225.85 300.62,-222.96 292.91,-220.35"/>
<polygon fill="#63b8ff" stroke="#63b8ff" points="363.57,-259.32 373.86,-261.82 367.38,-253.45 363.57,-259.32"/>
</a>
</g>
</g>
<!-- Node11 -->
<g id="Node000011" class="node">
<title>Node11</title>
<g id="a_Node000011"><a xlink:href="../../db/d04/class_g_e_u_1_1_info_popup.html#a159ea5e5a4c7240aaa3592082d39e008" target="_top" xlink:title="Renders the popup and its contents.">
<polygon fill="white" stroke="#666666" points="302.75,-170 156.25,-170 156.25,-150 302.75,-150 302.75,-170"/>
<text text-anchor="middle" x="229.5" y="-156.5" font-family="Helvetica,sans-Serif" font-size="10.00">GEU::InfoPopup::renderPopup</text>
</a>
</g>
</g>
<!-- Node1&#45;&gt;Node11 -->
<g id="edge11_Node000001_Node000011" class="edge">
<title>Node1&#45;&gt;Node11</title>
<g id="a_edge11_Node000001_Node000011"><a xlink:title=" ">
<path fill="none" stroke="#63b8ff" d="M383.78,-252.82C369.33,-229.79 345.23,-197.17 315.5,-179 309.82,-175.53 303.59,-172.69 297.15,-170.37"/>
<polygon fill="#63b8ff" stroke="#63b8ff" points="380.77,-254.61 388.94,-261.35 386.76,-250.98 380.77,-254.61"/>
</a>
</g>
</g>
<!-- Node12 -->
<g id="Node000012" class="node">
<title>Node12</title>
<g id="a_Node000012"><a xlink:href="../../d2/d05/class_g_e_u_1_1_database_new_dato_window.html#ae07f0a25c9ecb584624ce7bf67bc48cb" target="_top" xlink:title="Renders the window and contents.">
<polygon fill="white" stroke="#666666" points="308.38,-132 150.62,-132 150.62,-100 308.38,-100 308.38,-132"/>
<text text-anchor="start" x="158.62" y="-118.5" font-family="Helvetica,sans-Serif" font-size="10.00">GEU::DatabaseNewDatoWindow</text>
<text text-anchor="middle" x="229.5" y="-106.5" font-family="Helvetica,sans-Serif" font-size="10.00">::renderWindow</text>
</a>
</g>
</g>
<!-- Node1&#45;&gt;Node12 -->
<g id="edge12_Node000001_Node000012" class="edge">
<title>Node1&#45;&gt;Node12</title>
<g id="a_edge12_Node000001_Node000012"><a xlink:title=" ">
<path fill="none" stroke="#63b8ff" d="M389.36,-252.15C377.22,-220.9 352.97,-169.92 315.5,-141 311.24,-137.71 306.55,-134.85 301.64,-132.37"/>
<polygon fill="#63b8ff" stroke="#63b8ff" points="385.99,-253.12 392.76,-261.27 392.55,-250.68 385.99,-253.12"/>
</a>
</g>
</g>
<!-- Node13 -->
<g id="Node000013" class="node">
<title>Node13</title>
<g id="a_Node000013"><a xlink:href="../../d9/d01/class_g_e_u_1_1_picking_window.html#a56f55b34996a68d41418a2df8ea008db" target="_top" xlink:title="Renders the window and contents.">
<polygon fill="white" stroke="#666666" points="284.38,-82 174.62,-82 174.62,-50 284.38,-50 284.38,-82"/>
<text text-anchor="start" x="182.62" y="-68.5" font-family="Helvetica,sans-Serif" font-size="10.00">GEU::PickingWindow</text>
<text text-anchor="middle" x="229.5" y="-56.5" font-family="Helvetica,sans-Serif" font-size="10.00">::renderWindow</text>
</a>
</g>
</g>
<!-- Node1&#45;&gt;Node13 -->
<g id="edge13_Node000001_Node000013" class="edge">
<title>Node1&#45;&gt;Node13</title>
<g id="a_edge13_Node000001_Node000013"><a xlink:title=" ">
<path fill="none" stroke="#63b8ff" d="M393.99,-251.45C385.65,-210.48 364.22,-133.76 315.5,-91 306.71,-83.29 295.65,-77.95 284.44,-74.26"/>
<polygon fill="#63b8ff" stroke="#63b8ff" points="390.54,-252.05 395.85,-261.22 397.42,-250.74 390.54,-252.05"/>
</a>
</g>
</g>
<!-- Node14 -->
<g id="Node000014" class="node">
<title>Node14</title>
<g id="a_Node000014"><a xlink:href="../../d2/d05/class_g_e_u_1_1_database_new_dato_window.html#a6ea01dc83a34747f5390085fda4e8980" target="_top" xlink:title=" ">
<polygon fill="white" stroke="#666666" points="308.38,-32 150.62,-32 150.62,0 308.38,0 308.38,-32"/>
<text text-anchor="start" x="158.62" y="-18.5" font-family="Helvetica,sans-Serif" font-size="10.00">GEU::DatabaseNewDatoWindow</text>
<text text-anchor="middle" x="229.5" y="-6.5" font-family="Helvetica,sans-Serif" font-size="10.00">::showNewDatoDuplicatedPopup</text>
</a>
</g>
</g>
<!-- Node1&#45;&gt;Node14 -->
<g id="edge14_Node000001_Node000014" class="edge">
<title>Node1&#45;&gt;Node14</title>
<g id="a_edge14_Node000001_Node000014"><a xlink:title=" ">
<path fill="none" stroke="#63b8ff" d="M396.94,-251.41C392.42,-202.05 375.87,-98.42 315.5,-41 312.05,-37.71 308.18,-34.86 304.06,-32.37"/>
<polygon fill="#63b8ff" stroke="#63b8ff" points="393.44,-251.54 397.73,-261.22 400.42,-250.98 393.44,-251.54"/>
</a>
</g>
</g>
<!-- Node4 -->
<g id="Node000004" class="node">
<title>Node4</title>
<g id="a_Node000004"><a xlink:href="../../db/d00/class_g_e_u_1_1_details_window.html#a6666ec761cc5cd8a57220823b8e7daa6" target="_top" xlink:title="Renders the window and contents.">
<polygon fill="white" stroke="#666666" points="107.5,-495 0,-495 0,-463 107.5,-463 107.5,-495"/>
<text text-anchor="start" x="8" y="-481.5" font-family="Helvetica,sans-Serif" font-size="10.00">GEU::DetailsWindow</text>
<text text-anchor="middle" x="53.75" y="-469.5" font-family="Helvetica,sans-Serif" font-size="10.00">::renderWindow</text>
</a>
</g>
</g>
<!-- Node3&#45;&gt;Node4 -->
<g id="edge3_Node000003_Node000004" class="edge">
<title>Node3&#45;&gt;Node4</title>
<g id="a_edge3_Node000003_Node000004"><a xlink:title=" ">
<path fill="none" stroke="#63b8ff" d="M152.43,-493.05C137.4,-490.89 121.93,-488.67 107.87,-486.64"/>
<polygon fill="#63b8ff" stroke="#63b8ff" points="151.91,-496.52 162.3,-494.48 152.9,-489.59 151.91,-496.52"/>
</a>
</g>
</g>
<!-- Node5&#45;&gt;Node4 -->
<g id="edge5_Node000005_Node000004" class="edge">
<title>Node5&#45;&gt;Node4</title>
<g id="a_edge5_Node000005_Node000004"><a xlink:title=" ">
<path fill="none" stroke="#63b8ff" d="M149.96,-465.3C135.67,-467.36 121.08,-469.46 107.75,-471.37"/>
<polygon fill="#63b8ff" stroke="#63b8ff" points="150.43,-468.77 159.83,-463.88 149.43,-461.84 150.43,-468.77"/>
</a>
</g>
</g>
</g>
</svg>
