<?xml version="1.0" encoding="UTF-8" standalone="no"?>
<!DOCTYPE svg PUBLIC "-//W3C//DTD SVG 1.1//EN"
 "http://www.w3.org/Graphics/SVG/1.1/DTD/svg11.dtd">
<!-- Generated by graphviz version 10.0.1 (20240210.2158)
 -->
<!-- Title: GEU::GuiUtilities::makeSelectableTextBox Pages: 1 -->
<svg width="338pt" height="140pt"
 viewBox="0.00 0.00 337.75 140.00" xmlns="http://www.w3.org/2000/svg" xmlns:xlink="http://www.w3.org/1999/xlink">
<g id="graph0" class="graph" transform="scale(1 1) rotate(0) translate(4 136)">
<title>GEU::GuiUtilities::makeSelectableTextBox</title>
<!-- Node1 -->
<g id="Node000001" class="node">
<title>Node1</title>
<g id="a_Node000001"><a xlink:title=" ">
<polygon fill="#999999" stroke="#666666" points="329.75,-82 208,-82 208,-50 329.75,-50 329.75,-82"/>
<text text-anchor="start" x="216" y="-68.5" font-family="Helvetica,sans-Serif" font-size="10.00">GEU::GuiUtilities::</text>
<text text-anchor="middle" x="268.88" y="-56.5" font-family="Helvetica,sans-Serif" font-size="10.00">makeSelectableTextBox</text>
</a>
</g>
</g>
<!-- Node2 -->
<g id="Node000002" class="node">
<title>Node2</title>
<g id="a_Node000002"><a xlink:href="../../de/d02/class_g_e_u_1_1_multiespectral_g_u_i_adapter.html#a30cdb8738563252a05b2da154c3f864d" target="_top" xlink:title="Custom module GUI window contents.">
<polygon fill="white" stroke="#666666" points="163,-132 9,-132 9,-100 163,-100 163,-132"/>
<text text-anchor="start" x="17" y="-118.5" font-family="Helvetica,sans-Serif" font-size="10.00">GEU::MultiespectralGUIAdapter</text>
<text text-anchor="middle" x="86" y="-106.5" font-family="Helvetica,sans-Serif" font-size="10.00">::renderGuiObject</text>
</a>
</g>
</g>
<!-- Node1&#45;&gt;Node2 -->
<g id="edge1_Node000001_Node000002" class="edge">
<title>Node1&#45;&gt;Node2</title>
<g id="a_edge1_Node000001_Node000002"><a xlink:title=" ">
<path fill="none" stroke="#63b8ff" d="M197.49,-85.46C180.64,-90.11 162.82,-95.04 146.51,-99.55"/>
<polygon fill="#63b8ff" stroke="#63b8ff" points="198.23,-88.88 206.94,-82.84 196.37,-82.14 198.23,-88.88"/>
</a>
</g>
</g>
<!-- Node3 -->
<g id="Node000003" class="node">
<title>Node3</title>
<g id="a_Node000003"><a xlink:href="../../d5/d03/class_g_e_u_1_1_reconstruccion_g_u_i_adapter.html#a2918ca118794a47873dbc1df297d68d7" target="_top" xlink:title="Custom module GUI window contents.">
<polygon fill="white" stroke="#666666" points="166.38,-82 5.62,-82 5.62,-50 166.38,-50 166.38,-82"/>
<text text-anchor="start" x="13.62" y="-68.5" font-family="Helvetica,sans-Serif" font-size="10.00">GEU::ReconstruccionGUIAdapter</text>
<text text-anchor="middle" x="86" y="-56.5" font-family="Helvetica,sans-Serif" font-size="10.00">::renderGuiObject</text>
</a>
</g>
</g>
<!-- Node1&#45;&gt;Node3 -->
<g id="edge2_Node000001_Node000003" class="edge">
<title>Node1&#45;&gt;Node3</title>
<g id="a_edge2_Node000001_Node000003"><a xlink:title=" ">
<path fill="none" stroke="#63b8ff" d="M196.35,-66C186.58,-66 176.5,-66 166.6,-66"/>
<polygon fill="#63b8ff" stroke="#63b8ff" points="196.13,-69.5 206.13,-66 196.13,-62.5 196.13,-69.5"/>
</a>
</g>
</g>
<!-- Node4 -->
<g id="Node000004" class="node">
<title>Node4</title>
<g id="a_Node000004"><a xlink:href="../../d6/d00/class_g_e_u_1_1_tree_segmentation_g_u_i_adapter.html#afcda560180acc4f5fbd7caeaa40f9018" target="_top" xlink:title="Custom module GUI window contents.">
<polygon fill="white" stroke="#666666" points="172,-32 0,-32 0,0 172,0 172,-32"/>
<text text-anchor="start" x="8" y="-18.5" font-family="Helvetica,sans-Serif" font-size="10.00">GEU::TreeSegmentationGUIAdapter</text>
<text text-anchor="middle" x="86" y="-6.5" font-family="Helvetica,sans-Serif" font-size="10.00">::renderGuiObject</text>
</a>
</g>
</g>
<!-- Node1&#45;&gt;Node4 -->
<g id="edge3_Node000001_Node000004" class="edge">
<title>Node1&#45;&gt;Node4</title>
<g id="a_edge3_Node000001_Node000004"><a xlink:title=" ">
<path fill="none" stroke="#63b8ff" d="M197.49,-46.54C180.64,-41.89 162.82,-36.96 146.51,-32.45"/>
<polygon fill="#63b8ff" stroke="#63b8ff" points="196.37,-49.86 206.94,-49.16 198.23,-43.12 196.37,-49.86"/>
</a>
</g>
</g>
</g>
</svg>
