<?xml version="1.0" encoding="UTF-8" standalone="no"?>
<!DOCTYPE svg PUBLIC "-//W3C//DTD SVG 1.1//EN"
 "http://www.w3.org/Graphics/SVG/1.1/DTD/svg11.dtd">
<!-- Generated by graphviz version 10.0.1 (20240210.2158)
 -->
<!-- Title: GEU::GuiUtilities::makeButton Pages: 1 -->
<svg width="509pt" height="843pt"
 viewBox="0.00 0.00 509.00 843.00" xmlns="http://www.w3.org/2000/svg" xmlns:xlink="http://www.w3.org/1999/xlink">
<g id="graph0" class="graph" transform="scale(1 1) rotate(0) translate(4 839)">
<title>GEU::GuiUtilities::makeButton</title>
<!-- Node1 -->
<g id="Node000001" class="node">
<title>Node1</title>
<g id="a_Node000001"><a xlink:title=" ">
<polygon fill="#999999" stroke="#666666" points="501,-278 404.75,-278 404.75,-246 501,-246 501,-278"/>
<text text-anchor="start" x="412.75" y="-264.5" font-family="Helvetica,sans-Serif" font-size="10.00">GEU::GuiUtilities::</text>
<text text-anchor="middle" x="452.88" y="-252.5" font-family="Helvetica,sans-Serif" font-size="10.00">makeButton</text>
</a>
</g>
</g>
<!-- Node1&#45;&gt;Node1 -->
<g id="edge1_Node000001_Node000001" class="edge">
<title>Node1&#45;&gt;Node1</title>
<g id="a_edge1_Node000001_Node000001"><a xlink:title=" ">
<path fill="none" stroke="#63b8ff" d="M480.29,-289.71C475.72,-293.48 466.58,-296 452.88,-296 427.81,-296 418.03,-287.58 423.51,-278.44"/>
<polygon fill="#63b8ff" stroke="#63b8ff" points="483.72,-290.39 481.98,-279.93 476.83,-289.19 483.72,-290.39"/>
</a>
</g>
</g>
<!-- Node2 -->
<g id="Node000002" class="node">
<title>Node2</title>
<g id="a_Node000002"><a xlink:href="../../d3/d07/namespace_g_e_u_1_1_gui_utilities.html#a1c14068c48b831ee9b2f4300deb80e13" target="_top" xlink:title=" ">
<polygon fill="white" stroke="#666666" points="337.62,-685 239.12,-685 239.12,-653 337.62,-653 337.62,-685"/>
<text text-anchor="start" x="247.12" y="-671.5" font-family="Helvetica,sans-Serif" font-size="10.00">GEU::GuiUtilities::</text>
<text text-anchor="middle" x="288.38" y="-659.5" font-family="Helvetica,sans-Serif" font-size="10.00">makeCancelButton</text>
</a>
</g>
</g>
<!-- Node1&#45;&gt;Node2 -->
<g id="edge2_Node000001_Node000002" class="edge">
<title>Node1&#45;&gt;Node2</title>
<g id="a_edge2_Node000001_Node000002"><a xlink:title=" ">
<path fill="none" stroke="#63b8ff" d="M446.42,-289.62C435.66,-341.19 409.19,-454.94 368.75,-544 349.83,-585.66 318.85,-629.82 301.72,-652.86"/>
<polygon fill="#63b8ff" stroke="#63b8ff" points="449.83,-290.45 448.4,-279.95 442.97,-289.04 449.83,-290.45"/>
</a>
</g>
</g>
<!-- Node6 -->
<g id="Node000006" class="node">
<title>Node6</title>
<g id="a_Node000006"><a xlink:href="../../d3/d07/namespace_g_e_u_1_1_gui_utilities.html#af5e9fa24f47a96b09eb235cbf0956e7b" target="_top" xlink:title=" ">
<polygon fill="white" stroke="#666666" points="339.12,-785 237.62,-785 237.62,-753 339.12,-753 339.12,-785"/>
<text text-anchor="start" x="245.62" y="-771.5" font-family="Helvetica,sans-Serif" font-size="10.00">GEU::GuiUtilities::</text>
<text text-anchor="middle" x="288.38" y="-759.5" font-family="Helvetica,sans-Serif" font-size="10.00">makeConfirmButton</text>
</a>
</g>
</g>
<!-- Node1&#45;&gt;Node6 -->
<g id="edge6_Node000001_Node000006" class="edge">
<title>Node1&#45;&gt;Node6</title>
<g id="a_edge6_Node000001_Node000006"><a xlink:title=" ">
<path fill="none" stroke="#63b8ff" d="M450.79,-289.7C446.64,-381.7 428.85,-675.23 368.75,-744 361.14,-752.7 350.54,-758.41 339.56,-762.14"/>
<polygon fill="#63b8ff" stroke="#63b8ff" points="454.28,-289.98 451.21,-279.84 447.29,-289.68 454.28,-289.98"/>
</a>
</g>
</g>
<!-- Node8 -->
<g id="Node000008" class="node">
<title>Node8</title>
<g id="a_Node000008"><a xlink:href="../../d3/d07/namespace_g_e_u_1_1_gui_utilities.html#a51f7b03162a92f79594e82e1aca62133" target="_top" xlink:title=" ">
<polygon fill="white" stroke="#666666" points="336.5,-360 240.25,-360 240.25,-328 336.5,-328 336.5,-360"/>
<text text-anchor="start" x="248.25" y="-346.5" font-family="Helvetica,sans-Serif" font-size="10.00">GEU::GuiUtilities::</text>
<text text-anchor="middle" x="288.38" y="-334.5" font-family="Helvetica,sans-Serif" font-size="10.00">makeLocButton</text>
</a>
</g>
</g>
<!-- Node1&#45;&gt;Node8 -->
<g id="edge11_Node000001_Node000008" class="edge">
<title>Node1&#45;&gt;Node8</title>
<g id="a_edge11_Node000001_Node000008"><a xlink:title=" ">
<path fill="none" stroke="#63b8ff" d="M419.25,-284.5C404.27,-294.28 386.02,-305.44 368.75,-314 358.59,-319.04 347.36,-323.76 336.62,-327.9"/>
<polygon fill="#63b8ff" stroke="#63b8ff" points="420.93,-287.59 427.33,-279.15 417.06,-281.76 420.93,-287.59"/>
</a>
</g>
</g>
<!-- Node17 -->
<g id="Node000017" class="node">
<title>Node17</title>
<g id="a_Node000017"><a xlink:href="../../d6/d00/class_g_e_u_1_1_tree_segmentation_g_u_i_adapter.html#a7e53f2d5e62b2c5fd15e718d87751c7a" target="_top" xlink:title="Draw Input tab to load an image and apply segmentation.">
<polygon fill="white" stroke="#666666" points="172,-185 0,-185 0,-153 172,-153 172,-185"/>
<text text-anchor="start" x="8" y="-171.5" font-family="Helvetica,sans-Serif" font-size="10.00">GEU::TreeSegmentationGUIAdapter</text>
<text text-anchor="middle" x="86" y="-159.5" font-family="Helvetica,sans-Serif" font-size="10.00">::makeSegmentInputGUI</text>
</a>
</g>
</g>
<!-- Node1&#45;&gt;Node17 -->
<g id="edge28_Node000001_Node000017" class="edge">
<title>Node1&#45;&gt;Node17</title>
<g id="a_edge28_Node000001_Node000017"><a xlink:title=" ">
<path fill="none" stroke="#63b8ff" d="M399.25,-281.91C346.46,-298.25 265.02,-313.24 208,-276 174.68,-254.24 201.88,-220.29 172,-194 168.3,-190.75 164.2,-187.92 159.86,-185.46"/>
<polygon fill="#63b8ff" stroke="#63b8ff" points="400.18,-285.28 408.62,-278.88 398.03,-278.62 400.18,-285.28"/>
</a>
</g>
</g>
<!-- Node19 -->
<g id="Node000019" class="node">
<title>Node19</title>
<g id="a_Node000019"><a xlink:href="../../de/d02/class_g_e_u_1_1_multiespectral_g_u_i_adapter.html#a30cdb8738563252a05b2da154c3f864d" target="_top" xlink:title="Custom module GUI window contents.">
<polygon fill="white" stroke="#666666" points="163,-135 9,-135 9,-103 163,-103 163,-135"/>
<text text-anchor="start" x="17" y="-121.5" font-family="Helvetica,sans-Serif" font-size="10.00">GEU::MultiespectralGUIAdapter</text>
<text text-anchor="middle" x="86" y="-109.5" font-family="Helvetica,sans-Serif" font-size="10.00">::renderGuiObject</text>
</a>
</g>
</g>
<!-- Node1&#45;&gt;Node19 -->
<g id="edge32_Node000001_Node000019" class="edge">
<title>Node1&#45;&gt;Node19</title>
<g id="a_edge32_Node000001_Node000019"><a xlink:title=" ">
<path fill="none" stroke="#63b8ff" d="M393.04,-272.35C339.37,-278.36 260.63,-278.14 208,-238 172.43,-210.87 204.87,-174.35 172,-144 168.5,-140.77 164.6,-137.95 160.44,-135.49"/>
<polygon fill="#63b8ff" stroke="#63b8ff" points="393.43,-275.83 402.92,-271.12 392.57,-268.88 393.43,-275.83"/>
</a>
</g>
</g>
<!-- Node20 -->
<g id="Node000020" class="node">
<title>Node20</title>
<g id="a_Node000020"><a xlink:href="../../d7/d03/class_g_e_u_1_1_hyper_g_u_i_adapter.html#a2d0ac3a4a73bd1a00f99bc0575951c9c" target="_top" xlink:title="Custom module GUI window contents.">
<polygon fill="white" stroke="#666666" points="145.38,-85 26.62,-85 26.62,-53 145.38,-53 145.38,-85"/>
<text text-anchor="start" x="34.62" y="-71.5" font-family="Helvetica,sans-Serif" font-size="10.00">GEU::HyperGUIAdapter</text>
<text text-anchor="middle" x="86" y="-59.5" font-family="Helvetica,sans-Serif" font-size="10.00">::renderGuiObject</text>
</a>
</g>
</g>
<!-- Node1&#45;&gt;Node20 -->
<g id="edge33_Node000001_Node000020" class="edge">
<title>Node1&#45;&gt;Node20</title>
<g id="a_edge33_Node000001_Node000020"><a xlink:title=" ">
<path fill="none" stroke="#63b8ff" d="M393.67,-244.8C385.33,-242.45 376.83,-240.12 368.75,-238 297.74,-219.37 262.32,-249.38 208,-200 171.18,-166.53 207.9,-128.45 172,-94 164.67,-86.97 155.48,-81.91 145.86,-78.26"/>
<polygon fill="#63b8ff" stroke="#63b8ff" points="392.48,-248.1 403.06,-247.48 394.4,-241.37 392.48,-248.1"/>
</a>
</g>
</g>
<!-- Node21 -->
<g id="Node000021" class="node">
<title>Node21</title>
<g id="a_Node000021"><a xlink:href="../../d1/d03/class_g_e_u_1_1_thermal_g_u_i_adapter.html#a1509f8f0d21826efa7cc133bbd190931" target="_top" xlink:title="Custom module GUI window contents.">
<polygon fill="white" stroke="#666666" points="149.88,-35 22.12,-35 22.12,-3 149.88,-3 149.88,-35"/>
<text text-anchor="start" x="30.12" y="-21.5" font-family="Helvetica,sans-Serif" font-size="10.00">GEU::ThermalGUIAdapter</text>
<text text-anchor="middle" x="86" y="-9.5" font-family="Helvetica,sans-Serif" font-size="10.00">::renderGuiObject</text>
</a>
</g>
</g>
<!-- Node1&#45;&gt;Node21 -->
<g id="edge35_Node000001_Node000021" class="edge">
<title>Node1&#45;&gt;Node21</title>
<g id="a_edge35_Node000001_Node000021"><a xlink:title=" ">
<path fill="none" stroke="#63b8ff" d="M426.35,-238.3C410.8,-225.11 389.9,-209.49 368.75,-200 302.2,-170.15 261.65,-216.41 208,-167 166.1,-128.41 212.25,-84.3 172,-44 165.8,-37.8 158.15,-33.12 150,-29.59"/>
<polygon fill="#63b8ff" stroke="#63b8ff" points="423.87,-240.79 433.71,-244.72 428.48,-235.51 423.87,-240.79"/>
</a>
</g>
</g>
<!-- Node22 -->
<g id="Node000022" class="node">
<title>Node22</title>
<g id="a_Node000022"><a xlink:href="../../d3/d07/namespace_g_e_u_1_1_gui_utilities.html#a275a16f7f31031ade260bdd899b53109" target="_top" xlink:title=" ">
<polygon fill="white" stroke="#666666" points="336.5,-535 240.25,-535 240.25,-503 336.5,-503 336.5,-535"/>
<text text-anchor="start" x="248.25" y="-521.5" font-family="Helvetica,sans-Serif" font-size="10.00">GEU::GuiUtilities::</text>
<text text-anchor="middle" x="288.38" y="-509.5" font-family="Helvetica,sans-Serif" font-size="10.00">makeNoButton</text>
</a>
</g>
</g>
<!-- Node1&#45;&gt;Node22 -->
<g id="edge26_Node000001_Node000022" class="edge">
<title>Node1&#45;&gt;Node22</title>
<g id="a_edge26_Node000001_Node000022"><a xlink:title=" ">
<path fill="none" stroke="#63b8ff" d="M435.36,-288.13C401.93,-341 327.12,-459.31 299.7,-502.67"/>
<polygon fill="#63b8ff" stroke="#63b8ff" points="438.27,-290.07 440.65,-279.75 432.35,-286.33 438.27,-290.07"/>
</a>
</g>
</g>
<!-- Node23 -->
<g id="Node000023" class="node">
<title>Node23</title>
<g id="a_Node000023"><a xlink:href="../../d3/d07/namespace_g_e_u_1_1_gui_utilities.html#afc5e6623a13133c49738b38d29e2d7bd" target="_top" xlink:title=" ">
<polygon fill="white" stroke="#666666" points="336.5,-735 240.25,-735 240.25,-703 336.5,-703 336.5,-735"/>
<text text-anchor="start" x="248.25" y="-721.5" font-family="Helvetica,sans-Serif" font-size="10.00">GEU::GuiUtilities::</text>
<text text-anchor="middle" x="288.38" y="-709.5" font-family="Helvetica,sans-Serif" font-size="10.00">makeYesButton</text>
</a>
</g>
</g>
<!-- Node1&#45;&gt;Node23 -->
<g id="edge29_Node000001_Node000023" class="edge">
<title>Node1&#45;&gt;Node23</title>
<g id="a_edge29_Node000001_Node000023"><a xlink:title=" ">
<path fill="none" stroke="#63b8ff" d="M450.21,-289.3C444.48,-374.48 422.87,-633.27 368.75,-694 360.48,-703.28 348.81,-709.14 336.96,-712.84"/>
<polygon fill="#63b8ff" stroke="#63b8ff" points="453.69,-289.76 450.84,-279.55 446.7,-289.3 453.69,-289.76"/>
</a>
</g>
</g>
<!-- Node24 -->
<g id="Node000024" class="node">
<title>Node24</title>
<g id="a_Node000024"><a xlink:href="../../de/d06/class_g_e_u_1_1_g_u_i.html#af7ebc89aa431e3a9e86bb1424b819d47" target="_top" xlink:title="Draws ImGUI elements.">
<polygon fill="white" stroke="#666666" points="334.62,-158 242.12,-158 242.12,-138 334.62,-138 334.62,-158"/>
<text text-anchor="middle" x="288.38" y="-144.5" font-family="Helvetica,sans-Serif" font-size="10.00">GEU::GUI::render</text>
</a>
</g>
</g>
<!-- Node1&#45;&gt;Node24 -->
<g id="edge31_Node000001_Node000024" class="edge">
<title>Node1&#45;&gt;Node24</title>
<g id="a_edge31_Node000001_Node000024"><a xlink:title=" ">
<path fill="none" stroke="#63b8ff" d="M434.16,-236.3C418.99,-216.11 395.4,-188.68 368.75,-172 358.5,-165.58 346.43,-160.79 334.84,-157.25"/>
<polygon fill="#63b8ff" stroke="#63b8ff" points="431.3,-238.32 440.02,-244.34 436.96,-234.2 431.3,-238.32"/>
</a>
</g>
</g>
<!-- Node25 -->
<g id="Node000025" class="node">
<title>Node25</title>
<g id="a_Node000025"><a xlink:href="../../d5/d03/class_g_e_u_1_1_reconstruccion_g_u_i_adapter.html#a2918ca118794a47873dbc1df297d68d7" target="_top" xlink:title="Custom module GUI window contents.">
<polygon fill="white" stroke="#666666" points="368.75,-120 208,-120 208,-88 368.75,-88 368.75,-120"/>
<text text-anchor="start" x="216" y="-106.5" font-family="Helvetica,sans-Serif" font-size="10.00">GEU::ReconstruccionGUIAdapter</text>
<text text-anchor="middle" x="288.38" y="-94.5" font-family="Helvetica,sans-Serif" font-size="10.00">::renderGuiObject</text>
</a>
</g>
</g>
<!-- Node1&#45;&gt;Node25 -->
<g id="edge34_Node000001_Node000025" class="edge">
<title>Node1&#45;&gt;Node25</title>
<g id="a_edge34_Node000001_Node000025"><a xlink:title=" ">
<path fill="none" stroke="#63b8ff" d="M441.89,-235.36C429.3,-205.29 404.84,-156.93 368.75,-129 364.52,-125.73 359.86,-122.88 354.97,-120.4"/>
<polygon fill="#63b8ff" stroke="#63b8ff" points="438.59,-236.54 445.57,-244.51 445.09,-233.92 438.59,-236.54"/>
</a>
</g>
</g>
<!-- Node26 -->
<g id="Node000026" class="node">
<title>Node26</title>
<g id="a_Node000026"><a xlink:href="../../d4/d07/class_normales_g_u_i_adapter.html#ad27c678722407ed6f3d2bb41ccc2b640" target="_top" xlink:title="Custom module GUI window contents.">
<polygon fill="white" stroke="#666666" points="342.12,-70 234.62,-70 234.62,-38 342.12,-38 342.12,-70"/>
<text text-anchor="start" x="242.62" y="-56.5" font-family="Helvetica,sans-Serif" font-size="10.00">NormalesGUIAdapter</text>
<text text-anchor="middle" x="288.38" y="-44.5" font-family="Helvetica,sans-Serif" font-size="10.00">::renderGuiObject</text>
</a>
</g>
</g>
<!-- Node1&#45;&gt;Node26 -->
<g id="edge36_Node000001_Node000026" class="edge">
<title>Node1&#45;&gt;Node26</title>
<g id="a_edge36_Node000001_Node000026"><a xlink:title=" ">
<path fill="none" stroke="#63b8ff" d="M446.73,-234.43C437.85,-194.48 415.86,-120.72 368.75,-79 361.29,-72.39 352.08,-67.53 342.61,-63.95"/>
<polygon fill="#63b8ff" stroke="#63b8ff" points="443.3,-235.12 448.77,-244.19 450.15,-233.68 443.3,-235.12"/>
</a>
</g>
</g>
<!-- Node27 -->
<g id="Node000027" class="node">
<title>Node27</title>
<g id="a_Node000027"><a xlink:href="../../db/d04/class_g_e_u_1_1_info_popup.html#a159ea5e5a4c7240aaa3592082d39e008" target="_top" xlink:title="Renders the popup and its contents.">
<polygon fill="white" stroke="#666666" points="361.62,-20 215.12,-20 215.12,0 361.62,0 361.62,-20"/>
<text text-anchor="middle" x="288.38" y="-6.5" font-family="Helvetica,sans-Serif" font-size="10.00">GEU::InfoPopup::renderPopup</text>
</a>
</g>
</g>
<!-- Node1&#45;&gt;Node27 -->
<g id="edge37_Node000001_Node000027" class="edge">
<title>Node1&#45;&gt;Node27</title>
<g id="a_edge37_Node000001_Node000027"><a xlink:title=" ">
<path fill="none" stroke="#63b8ff" d="M450.25,-234.32C445.83,-185.35 429.44,-83.48 368.75,-29 364.95,-25.59 360.66,-22.77 356.07,-20.43"/>
<polygon fill="#63b8ff" stroke="#63b8ff" points="446.74,-234.37 451.02,-244.06 453.72,-233.82 446.74,-234.37"/>
</a>
</g>
</g>
<!-- Node3 -->
<g id="Node000003" class="node">
<title>Node3</title>
<g id="a_Node000003"><a xlink:href="../../d2/d00/class_g_e_u_1_1_database_new_raw_popup.html#aabf3be0d95c567d3b439cdae51edc79e" target="_top" xlink:title="Renders the popup and its contents.">
<polygon fill="white" stroke="#666666" points="160.75,-685 11.25,-685 11.25,-653 160.75,-653 160.75,-685"/>
<text text-anchor="start" x="19.25" y="-671.5" font-family="Helvetica,sans-Serif" font-size="10.00">GEU::DatabaseNewRawPopup</text>
<text text-anchor="middle" x="86" y="-659.5" font-family="Helvetica,sans-Serif" font-size="10.00">::renderPopup</text>
</a>
</g>
</g>
<!-- Node2&#45;&gt;Node3 -->
<g id="edge3_Node000002_Node000003" class="edge">
<title>Node2&#45;&gt;Node3</title>
<g id="a_edge3_Node000002_Node000003"><a xlink:title=" ">
<path fill="none" stroke="#63b8ff" d="M227.55,-669C206.61,-669 182.83,-669 160.87,-669"/>
<polygon fill="#63b8ff" stroke="#63b8ff" points="227.36,-672.5 237.36,-669 227.36,-665.5 227.36,-672.5"/>
</a>
</g>
</g>
<!-- Node4 -->
<g id="Node000004" class="node">
<title>Node4</title>
<g id="a_Node000004"><a xlink:href="../../d7/d06/class_g_e_u_1_1_database_query_popup.html#a22764a8a53570961466432ac856eb4fc" target="_top" xlink:title="Renders the popup and its contents.">
<polygon fill="white" stroke="#666666" points="155.12,-785 16.88,-785 16.88,-753 155.12,-753 155.12,-785"/>
<text text-anchor="start" x="24.88" y="-771.5" font-family="Helvetica,sans-Serif" font-size="10.00">GEU::DatabaseQueryPopup</text>
<text text-anchor="middle" x="86" y="-759.5" font-family="Helvetica,sans-Serif" font-size="10.00">::renderPopup</text>
</a>
</g>
</g>
<!-- Node2&#45;&gt;Node4 -->
<g id="edge4_Node000002_Node000004" class="edge">
<title>Node2&#45;&gt;Node4</title>
<g id="a_edge4_Node000002_Node000004"><a xlink:title=" ">
<path fill="none" stroke="#63b8ff" d="M228.26,-682.87C221.09,-685.9 214.14,-689.56 208,-694 185.81,-710.04 194.34,-728.17 172,-744 166.85,-747.65 161.18,-750.77 155.27,-753.43"/>
<polygon fill="#63b8ff" stroke="#63b8ff" points="229.32,-686.21 237.45,-679.41 226.85,-679.66 229.32,-686.21"/>
</a>
</g>
</g>
<!-- Node5 -->
<g id="Node000005" class="node">
<title>Node5</title>
<g id="a_Node000005"><a xlink:href="../../d3/d04/class_g_e_u_1_1_confirm_popup.html#a82f88c00c88912fb0beab3db3dcccdf0" target="_top" xlink:title="Renders the popup and its contents.">
<polygon fill="white" stroke="#666666" points="140.88,-735 31.12,-735 31.12,-703 140.88,-703 140.88,-735"/>
<text text-anchor="start" x="39.12" y="-721.5" font-family="Helvetica,sans-Serif" font-size="10.00">GEU::ConfirmPopup::</text>
<text text-anchor="middle" x="86" y="-709.5" font-family="Helvetica,sans-Serif" font-size="10.00">renderPopup</text>
</a>
</g>
</g>
<!-- Node2&#45;&gt;Node5 -->
<g id="edge5_Node000002_Node000005" class="edge">
<title>Node2&#45;&gt;Node5</title>
<g id="a_edge5_Node000002_Node000005"><a xlink:title=" ">
<path fill="none" stroke="#63b8ff" d="M227.8,-683.86C200.29,-690.73 167.86,-698.82 141.06,-705.51"/>
<polygon fill="#63b8ff" stroke="#63b8ff" points="228.55,-687.29 237.4,-681.47 226.85,-680.5 228.55,-687.29"/>
</a>
</g>
</g>
<!-- Node6&#45;&gt;Node3 -->
<g id="edge7_Node000006_Node000003" class="edge">
<title>Node6&#45;&gt;Node3</title>
<g id="a_edge7_Node000006_Node000003"><a xlink:title=" ">
<path fill="none" stroke="#63b8ff" d="M226.69,-754.45C220.07,-751.56 213.69,-748.11 208,-744 185.81,-727.96 194.34,-709.83 172,-694 167.36,-690.71 162.28,-687.85 156.99,-685.36"/>
<polygon fill="#63b8ff" stroke="#63b8ff" points="225.2,-757.63 235.79,-758.01 227.75,-751.11 225.2,-757.63"/>
</a>
</g>
</g>
<!-- Node6&#45;&gt;Node4 -->
<g id="edge8_Node000006_Node000004" class="edge">
<title>Node6&#45;&gt;Node4</title>
<g id="a_edge8_Node000006_Node000004"><a xlink:title=" ">
<path fill="none" stroke="#63b8ff" d="M225.95,-769C203.59,-769 178.2,-769 155.29,-769"/>
<polygon fill="#63b8ff" stroke="#63b8ff" points="225.82,-772.5 235.82,-769 225.82,-765.5 225.82,-772.5"/>
</a>
</g>
</g>
<!-- Node6&#45;&gt;Node5 -->
<g id="edge10_Node000006_Node000005" class="edge">
<title>Node6&#45;&gt;Node5</title>
<g id="a_edge10_Node000006_Node000005"><a xlink:title=" ">
<path fill="none" stroke="#63b8ff" d="M226.41,-753.79C199.29,-747.02 167.62,-739.12 141.33,-732.56"/>
<polygon fill="#63b8ff" stroke="#63b8ff" points="225.31,-757.12 235.86,-756.15 227.01,-750.33 225.31,-757.12"/>
</a>
</g>
</g>
<!-- Node7 -->
<g id="Node000007" class="node">
<title>Node7</title>
<g id="a_Node000007"><a xlink:href="../../d9/d07/class_g_e_u_1_1_p_cloud_classify_popup.html#a7f59ae3b46b461ced5c0fef7e89f37a3" target="_top" xlink:title="Renders the popup and its contents.">
<polygon fill="white" stroke="#666666" points="154.38,-835 17.62,-835 17.62,-803 154.38,-803 154.38,-835"/>
<text text-anchor="start" x="25.62" y="-821.5" font-family="Helvetica,sans-Serif" font-size="10.00">GEU::PCloudClassifyPopup</text>
<text text-anchor="middle" x="86" y="-809.5" font-family="Helvetica,sans-Serif" font-size="10.00">::renderPopup</text>
</a>
</g>
</g>
<!-- Node6&#45;&gt;Node7 -->
<g id="edge9_Node000006_Node000007" class="edge">
<title>Node6&#45;&gt;Node7</title>
<g id="a_edge9_Node000006_Node000007"><a xlink:title=" ">
<path fill="none" stroke="#63b8ff" d="M226.25,-784.25C203.09,-790.03 176.62,-796.64 153.03,-802.52"/>
<polygon fill="#63b8ff" stroke="#63b8ff" points="227.01,-787.67 235.86,-781.85 225.31,-780.88 227.01,-787.67"/>
</a>
</g>
</g>
<!-- Node8&#45;&gt;Node3 -->
<g id="edge25_Node000008_Node000003" class="edge">
<title>Node8&#45;&gt;Node3</title>
<g id="a_edge25_Node000008_Node000003"><a xlink:title=" ">
<path fill="none" stroke="#63b8ff" d="M271.08,-369.89C253.35,-399.06 225.23,-448.39 208,-494 183.78,-558.14 219.24,-594.31 172,-644 168.71,-647.46 164.98,-650.44 160.95,-653.02"/>
<polygon fill="#63b8ff" stroke="#63b8ff" points="273.84,-372.09 276.1,-361.74 267.88,-368.42 273.84,-372.09"/>
</a>
</g>
</g>
<!-- Node9 -->
<g id="Node000009" class="node">
<title>Node9</title>
<g id="a_Node000009"><a xlink:href="../../d7/d06/class_g_e_u_1_1_database_query_popup.html#adb90287e5ae55991c17a08e912aff67c" target="_top" xlink:title=" ">
<polygon fill="white" stroke="#666666" points="155.12,-335 16.88,-335 16.88,-303 155.12,-303 155.12,-335"/>
<text text-anchor="start" x="24.88" y="-321.5" font-family="Helvetica,sans-Serif" font-size="10.00">GEU::DatabaseQueryPopup</text>
<text text-anchor="middle" x="86" y="-309.5" font-family="Helvetica,sans-Serif" font-size="10.00">::makeFormCamara</text>
</a>
</g>
</g>
<!-- Node8&#45;&gt;Node9 -->
<g id="edge12_Node000008_Node000009" class="edge">
<title>Node8&#45;&gt;Node9</title>
<g id="a_edge12_Node000008_Node000009"><a xlink:title=" ">
<path fill="none" stroke="#63b8ff" d="M228.59,-336.67C205.64,-333.8 179.18,-330.5 155.38,-327.53"/>
<polygon fill="#63b8ff" stroke="#63b8ff" points="228.03,-340.12 238.39,-337.89 228.9,-333.18 228.03,-340.12"/>
</a>
</g>
</g>
<!-- Node10 -->
<g id="Node000010" class="node">
<title>Node10</title>
<g id="a_Node000010"><a xlink:href="../../d7/d06/class_g_e_u_1_1_database_query_popup.html#a83023007463bdd6e6a4b40c55146b825" target="_top" xlink:title=" ">
<polygon fill="white" stroke="#666666" points="155.12,-285 16.88,-285 16.88,-253 155.12,-253 155.12,-285"/>
<text text-anchor="start" x="24.88" y="-271.5" font-family="Helvetica,sans-Serif" font-size="10.00">GEU::DatabaseQueryPopup</text>
<text text-anchor="middle" x="86" y="-259.5" font-family="Helvetica,sans-Serif" font-size="10.00">::makeFormDatoCrudo</text>
</a>
</g>
</g>
<!-- Node8&#45;&gt;Node10 -->
<g id="edge13_Node000008_Node000010" class="edge">
<title>Node8&#45;&gt;Node10</title>
<g id="a_edge13_Node000008_Node000010"><a xlink:title=" ">
<path fill="none" stroke="#63b8ff" d="M229.62,-323.3C222.28,-320.34 214.91,-317.21 208,-314 191.4,-306.3 188.88,-301.07 172,-294 164.62,-290.91 156.73,-288.04 148.85,-285.44"/>
<polygon fill="#63b8ff" stroke="#63b8ff" points="228.32,-326.55 238.91,-326.96 230.88,-320.04 228.32,-326.55"/>
</a>
</g>
</g>
<!-- Node11 -->
<g id="Node000011" class="node">
<title>Node11</title>
<g id="a_Node000011"><a xlink:href="../../d7/d06/class_g_e_u_1_1_database_query_popup.html#a1946c8c9ce8e263ceda1d7cc6da23e9e" target="_top" xlink:title=" ">
<polygon fill="white" stroke="#666666" points="155.12,-235 16.88,-235 16.88,-203 155.12,-203 155.12,-235"/>
<text text-anchor="start" x="24.88" y="-221.5" font-family="Helvetica,sans-Serif" font-size="10.00">GEU::DatabaseQueryPopup</text>
<text text-anchor="middle" x="86" y="-209.5" font-family="Helvetica,sans-Serif" font-size="10.00">::makeFormDron</text>
</a>
</g>
</g>
<!-- Node8&#45;&gt;Node11 -->
<g id="edge14_Node000008_Node000011" class="edge">
<title>Node8&#45;&gt;Node11</title>
<g id="a_edge14_Node000008_Node000011"><a xlink:title=" ">
<path fill="none" stroke="#63b8ff" d="M229.7,-328.07C221.86,-324.29 214.34,-319.66 208,-314 181.9,-290.71 198.96,-266.29 172,-244 167.02,-239.88 161.39,-236.44 155.45,-233.57"/>
<polygon fill="#63b8ff" stroke="#63b8ff" points="228.16,-331.22 238.73,-331.97 230.93,-324.8 228.16,-331.22"/>
</a>
</g>
</g>
<!-- Node12 -->
<g id="Node000012" class="node">
<title>Node12</title>
<g id="a_Node000012"><a xlink:href="../../d7/d06/class_g_e_u_1_1_database_query_popup.html#a7e928a635f870efcaf7dc0826c039858" target="_top" xlink:title=" ">
<polygon fill="white" stroke="#666666" points="155.12,-635 16.88,-635 16.88,-603 155.12,-603 155.12,-635"/>
<text text-anchor="start" x="24.88" y="-621.5" font-family="Helvetica,sans-Serif" font-size="10.00">GEU::DatabaseQueryPopup</text>
<text text-anchor="middle" x="86" y="-609.5" font-family="Helvetica,sans-Serif" font-size="10.00">::makeFormFinca</text>
</a>
</g>
</g>
<!-- Node8&#45;&gt;Node12 -->
<g id="edge15_Node000008_Node000012" class="edge">
<title>Node8&#45;&gt;Node12</title>
<g id="a_edge15_Node000008_Node000012"><a xlink:title=" ">
<path fill="none" stroke="#63b8ff" d="M272.07,-370.18C255.16,-399.68 227.73,-449.36 208,-494 188.91,-537.21 206.38,-561.61 172,-594 167.19,-598.54 161.59,-602.25 155.61,-605.3"/>
<polygon fill="#63b8ff" stroke="#63b8ff" points="275.06,-371.99 277.03,-361.58 269,-368.49 275.06,-371.99"/>
</a>
</g>
</g>
<!-- Node13 -->
<g id="Node000013" class="node">
<title>Node13</title>
<g id="a_Node000013"><a xlink:href="../../d7/d06/class_g_e_u_1_1_database_query_popup.html#aee96f5bdc802183d992461ccf7af7606" target="_top" xlink:title=" ">
<polygon fill="white" stroke="#666666" points="155.12,-585 16.88,-585 16.88,-553 155.12,-553 155.12,-585"/>
<text text-anchor="start" x="24.88" y="-571.5" font-family="Helvetica,sans-Serif" font-size="10.00">GEU::DatabaseQueryPopup</text>
<text text-anchor="middle" x="86" y="-559.5" font-family="Helvetica,sans-Serif" font-size="10.00">::makeFormObjeto</text>
</a>
</g>
</g>
<!-- Node8&#45;&gt;Node13 -->
<g id="edge16_Node000008_Node000013" class="edge">
<title>Node8&#45;&gt;Node13</title>
<g id="a_edge16_Node000008_Node000013"><a xlink:title=" ">
<path fill="none" stroke="#63b8ff" d="M273.51,-370.5C246.33,-422.06 187.37,-531.91 172,-544 166.92,-548 161.22,-551.35 155.24,-554.17"/>
<polygon fill="#63b8ff" stroke="#63b8ff" points="276.54,-372.26 278.1,-361.78 270.34,-369 276.54,-372.26"/>
</a>
</g>
</g>
<!-- Node14 -->
<g id="Node000014" class="node">
<title>Node14</title>
<g id="a_Node000014"><a xlink:href="../../d7/d06/class_g_e_u_1_1_database_query_popup.html#a6799cf756f5e2cb191268e786a8df4ba" target="_top" xlink:title=" ">
<polygon fill="white" stroke="#666666" points="155.12,-535 16.88,-535 16.88,-503 155.12,-503 155.12,-535"/>
<text text-anchor="start" x="24.88" y="-521.5" font-family="Helvetica,sans-Serif" font-size="10.00">GEU::DatabaseQueryPopup</text>
<text text-anchor="middle" x="86" y="-509.5" font-family="Helvetica,sans-Serif" font-size="10.00">::makeFormVuelos</text>
</a>
</g>
</g>
<!-- Node8&#45;&gt;Node14 -->
<g id="edge17_Node000008_Node000014" class="edge">
<title>Node8&#45;&gt;Node14</title>
<g id="a_edge17_Node000008_Node000014"><a xlink:title=" ">
<path fill="none" stroke="#63b8ff" d="M274.01,-370.28C255.58,-403.91 219.2,-461.67 172,-494 166.92,-497.48 161.36,-500.48 155.58,-503.07"/>
<polygon fill="#63b8ff" stroke="#63b8ff" points="277.02,-372.08 278.64,-361.61 270.84,-368.78 277.02,-372.08"/>
</a>
</g>
</g>
<!-- Node15 -->
<g id="Node000015" class="node">
<title>Node15</title>
<g id="a_Node000015"><a xlink:href="../../d7/d06/class_g_e_u_1_1_database_query_popup.html#ad5e45356898c5dfc51d7ef890f7a5b41" target="_top" xlink:title=" ">
<polygon fill="white" stroke="#666666" points="155.12,-485 16.88,-485 16.88,-453 155.12,-453 155.12,-485"/>
<text text-anchor="start" x="24.88" y="-471.5" font-family="Helvetica,sans-Serif" font-size="10.00">GEU::DatabaseQueryPopup</text>
<text text-anchor="middle" x="86" y="-459.5" font-family="Helvetica,sans-Serif" font-size="10.00">::makeFormZona</text>
</a>
</g>
</g>
<!-- Node8&#45;&gt;Node15 -->
<g id="edge18_Node000008_Node000015" class="edge">
<title>Node8&#45;&gt;Node15</title>
<g id="a_edge18_Node000008_Node000015"><a xlink:title=" ">
<path fill="none" stroke="#63b8ff" d="M265.32,-368.37C243.62,-390.98 208.51,-424.05 172,-444 166.06,-447.25 159.65,-450.11 153.11,-452.64"/>
<polygon fill="#63b8ff" stroke="#63b8ff" points="267.61,-371.04 271.92,-361.37 262.51,-366.24 267.61,-371.04"/>
</a>
</g>
</g>
<!-- Node16 -->
<g id="Node000016" class="node">
<title>Node16</title>
<g id="a_Node000016"><a xlink:href="../../d6/d00/class_g_e_u_1_1_tree_segmentation_g_u_i_adapter.html#a220f4253fbaddc522c033e939717f015" target="_top" xlink:title="Draw Export to Database tab to handle remote conection and upload.">
<polygon fill="white" stroke="#666666" points="172,-435 0,-435 0,-403 172,-403 172,-435"/>
<text text-anchor="start" x="8" y="-421.5" font-family="Helvetica,sans-Serif" font-size="10.00">GEU::TreeSegmentationGUIAdapter</text>
<text text-anchor="middle" x="86" y="-409.5" font-family="Helvetica,sans-Serif" font-size="10.00">::makeSegmentDatabaseGUI</text>
</a>
</g>
</g>
<!-- Node8&#45;&gt;Node16 -->
<g id="edge19_Node000008_Node000016" class="edge">
<title>Node8&#45;&gt;Node16</title>
<g id="a_edge19_Node000008_Node000016"><a xlink:title=" ">
<path fill="none" stroke="#63b8ff" d="M242.21,-365.11C221.12,-374.56 195.53,-385.48 172,-394 163.76,-396.99 154.97,-399.88 146.29,-402.58"/>
<polygon fill="#63b8ff" stroke="#63b8ff" points="243.43,-368.39 251.1,-361.08 240.55,-362.02 243.43,-368.39"/>
</a>
</g>
</g>
<!-- Node8&#45;&gt;Node17 -->
<g id="edge20_Node000008_Node000017" class="edge">
<title>Node8&#45;&gt;Node17</title>
<g id="a_edge20_Node000008_Node000017"><a xlink:title=" ">
<path fill="none" stroke="#63b8ff" d="M229.54,-329.49C221.53,-325.51 214,-320.44 208,-314 170.03,-273.28 211.48,-233.27 172,-194 168.73,-190.75 165.06,-187.91 161.12,-185.44"/>
<polygon fill="#63b8ff" stroke="#63b8ff" points="227.92,-332.6 238.48,-333.38 230.71,-326.18 227.92,-332.6"/>
</a>
</g>
</g>
<!-- Node18 -->
<g id="Node000018" class="node">
<title>Node18</title>
<g id="a_Node000018"><a xlink:href="../../d6/d00/class_g_e_u_1_1_tree_segmentation_g_u_i_adapter.html#ae0fe85f5025e377a59d1f0112a98449e" target="_top" xlink:title="Draw Manage tab to handle current image segmentation status.">
<polygon fill="white" stroke="#666666" points="172,-385 0,-385 0,-353 172,-353 172,-385"/>
<text text-anchor="start" x="8" y="-371.5" font-family="Helvetica,sans-Serif" font-size="10.00">GEU::TreeSegmentationGUIAdapter</text>
<text text-anchor="middle" x="86" y="-359.5" font-family="Helvetica,sans-Serif" font-size="10.00">::makeSegmentManageGUI</text>
</a>
</g>
</g>
<!-- Node8&#45;&gt;Node18 -->
<g id="edge21_Node000008_Node000018" class="edge">
<title>Node8&#45;&gt;Node18</title>
<g id="a_edge21_Node000008_Node000018"><a xlink:title=" ">
<path fill="none" stroke="#63b8ff" d="M228.61,-351.33C210.95,-353.54 191.2,-356 172.19,-358.37"/>
<polygon fill="#63b8ff" stroke="#63b8ff" points="228.9,-354.82 238.39,-350.11 228.03,-347.88 228.9,-354.82"/>
</a>
</g>
</g>
<!-- Node8&#45;&gt;Node19 -->
<g id="edge22_Node000008_Node000019" class="edge">
<title>Node8&#45;&gt;Node19</title>
<g id="a_edge22_Node000008_Node000019"><a xlink:title=" ">
<path fill="none" stroke="#63b8ff" d="M252.3,-321.25C236.67,-309.47 219.28,-293.82 208,-276 175.48,-224.62 214.57,-187.42 172,-144 168.77,-140.7 165.13,-137.84 161.22,-135.35"/>
<polygon fill="#63b8ff" stroke="#63b8ff" points="249.87,-323.81 260.02,-326.84 253.97,-318.14 249.87,-323.81"/>
</a>
</g>
</g>
<!-- Node8&#45;&gt;Node20 -->
<g id="edge23_Node000008_Node000020" class="edge">
<title>Node8&#45;&gt;Node20</title>
<g id="a_edge23_Node000008_Node000020"><a xlink:title=" ">
<path fill="none" stroke="#63b8ff" d="M264.43,-319.4C246.6,-299.03 222.53,-268.57 208,-238 179.67,-178.42 217.68,-141.6 172,-94 164.76,-86.45 155.36,-81.15 145.48,-77.44"/>
<polygon fill="#63b8ff" stroke="#63b8ff" points="261.61,-321.49 270.88,-326.62 266.83,-316.83 261.61,-321.49"/>
</a>
</g>
</g>
<!-- Node8&#45;&gt;Node21 -->
<g id="edge24_Node000008_Node000021" class="edge">
<title>Node8&#45;&gt;Node21</title>
<g id="a_edge24_Node000008_Node000021"><a xlink:title=" ">
<path fill="none" stroke="#63b8ff" d="M270.43,-318.45C252.55,-290.46 224.71,-243.69 208,-200 182.58,-133.54 220.8,-95.78 172,-44 165.99,-37.62 158.44,-32.84 150.33,-29.27"/>
<polygon fill="#63b8ff" stroke="#63b8ff" points="267.33,-320.11 275.7,-326.61 273.21,-316.31 267.33,-320.11"/>
</a>
</g>
</g>
<!-- Node22&#45;&gt;Node5 -->
<g id="edge27_Node000022_Node000005" class="edge">
<title>Node22&#45;&gt;Node5</title>
<g id="a_edge27_Node000022_Node000005"><a xlink:title=" ">
<path fill="none" stroke="#63b8ff" d="M270.85,-545.08C240.65,-592.58 179.04,-688.79 172,-694 162.97,-700.68 152.18,-705.58 141.37,-709.18"/>
<polygon fill="#63b8ff" stroke="#63b8ff" points="273.73,-547.07 276.14,-536.75 267.82,-543.32 273.73,-547.07"/>
</a>
</g>
</g>
<!-- Node23&#45;&gt;Node5 -->
<g id="edge30_Node000023_Node000005" class="edge">
<title>Node23&#45;&gt;Node5</title>
<g id="a_edge30_Node000023_Node000005"><a xlink:title=" ">
<path fill="none" stroke="#63b8ff" d="M228.41,-719C200.82,-719 168.19,-719 141.22,-719"/>
<polygon fill="#63b8ff" stroke="#63b8ff" points="228.38,-722.5 238.38,-719 228.38,-715.5 228.38,-722.5"/>
</a>
</g>
</g>
</g>
</svg>
