<?xml version="1.0" encoding="UTF-8" standalone="no"?>
<!DOCTYPE svg PUBLIC "-//W3C//DTD SVG 1.1//EN"
 "http://www.w3.org/Graphics/SVG/1.1/DTD/svg11.dtd">
<!-- Generated by graphviz version 10.0.1 (20240210.2158)
 -->
<!-- Title: GEU::GuiUtilities::makeLocButton Pages: 1 -->
<svg width="312pt" height="640pt"
 viewBox="0.00 0.00 312.25 640.00" xmlns="http://www.w3.org/2000/svg" xmlns:xlink="http://www.w3.org/1999/xlink">
<g id="graph0" class="graph" transform="scale(1 1) rotate(0) translate(4 636)">
<title>GEU::GuiUtilities::makeLocButton</title>
<!-- Node1 -->
<g id="Node000001" class="node">
<title>Node1</title>
<g id="a_Node000001"><a xlink:title=" ">
<polygon fill="#999999" stroke="#666666" points="304.25,-332 208,-332 208,-300 304.25,-300 304.25,-332"/>
<text text-anchor="start" x="216" y="-318.5" font-family="Helvetica,sans-Serif" font-size="10.00">GEU::GuiUtilities::</text>
<text text-anchor="middle" x="256.12" y="-306.5" font-family="Helvetica,sans-Serif" font-size="10.00">makeLocButton</text>
</a>
</g>
</g>
<!-- Node2 -->
<g id="Node000002" class="node">
<title>Node2</title>
<g id="a_Node000002"><a xlink:href="../../d7/d06/class_g_e_u_1_1_database_query_popup.html#adb90287e5ae55991c17a08e912aff67c" target="_top" xlink:title=" ">
<polygon fill="white" stroke="#666666" points="155.12,-632 16.88,-632 16.88,-600 155.12,-600 155.12,-632"/>
<text text-anchor="start" x="24.88" y="-618.5" font-family="Helvetica,sans-Serif" font-size="10.00">GEU::DatabaseQueryPopup</text>
<text text-anchor="middle" x="86" y="-606.5" font-family="Helvetica,sans-Serif" font-size="10.00">::makeFormCamara</text>
</a>
</g>
</g>
<!-- Node1&#45;&gt;Node2 -->
<g id="edge1_Node000001_Node000002" class="edge">
<title>Node1&#45;&gt;Node2</title>
<g id="a_edge1_Node000001_Node000002"><a xlink:title=" ">
<path fill="none" stroke="#63b8ff" d="M254.98,-343.53C253.16,-398.49 241.11,-522.4 172,-591 167.2,-595.77 161.53,-599.64 155.45,-602.77"/>
<polygon fill="#63b8ff" stroke="#63b8ff" points="258.47,-343.89 255.2,-333.81 251.47,-343.73 258.47,-343.89"/>
</a>
</g>
</g>
<!-- Node3 -->
<g id="Node000003" class="node">
<title>Node3</title>
<g id="a_Node000003"><a xlink:href="../../d7/d06/class_g_e_u_1_1_database_query_popup.html#a83023007463bdd6e6a4b40c55146b825" target="_top" xlink:title=" ">
<polygon fill="white" stroke="#666666" points="155.12,-582 16.88,-582 16.88,-550 155.12,-550 155.12,-582"/>
<text text-anchor="start" x="24.88" y="-568.5" font-family="Helvetica,sans-Serif" font-size="10.00">GEU::DatabaseQueryPopup</text>
<text text-anchor="middle" x="86" y="-556.5" font-family="Helvetica,sans-Serif" font-size="10.00">::makeFormDatoCrudo</text>
</a>
</g>
</g>
<!-- Node1&#45;&gt;Node3 -->
<g id="edge2_Node000001_Node000003" class="edge">
<title>Node1&#45;&gt;Node3</title>
<g id="a_edge2_Node000001_Node000003"><a xlink:title=" ">
<path fill="none" stroke="#63b8ff" d="M252.77,-343.74C247.25,-391.07 229.26,-487.5 172,-541 167.17,-545.52 161.56,-549.22 155.57,-552.26"/>
<polygon fill="#63b8ff" stroke="#63b8ff" points="256.25,-344.11 253.81,-333.8 249.29,-343.38 256.25,-344.11"/>
</a>
</g>
</g>
<!-- Node4 -->
<g id="Node000004" class="node">
<title>Node4</title>
<g id="a_Node000004"><a xlink:href="../../d7/d06/class_g_e_u_1_1_database_query_popup.html#a1946c8c9ce8e263ceda1d7cc6da23e9e" target="_top" xlink:title=" ">
<polygon fill="white" stroke="#666666" points="155.12,-532 16.88,-532 16.88,-500 155.12,-500 155.12,-532"/>
<text text-anchor="start" x="24.88" y="-518.5" font-family="Helvetica,sans-Serif" font-size="10.00">GEU::DatabaseQueryPopup</text>
<text text-anchor="middle" x="86" y="-506.5" font-family="Helvetica,sans-Serif" font-size="10.00">::makeFormDron</text>
</a>
</g>
</g>
<!-- Node1&#45;&gt;Node4 -->
<g id="edge3_Node000001_Node000004" class="edge">
<title>Node1&#45;&gt;Node4</title>
<g id="a_edge3_Node000001_Node000004"><a xlink:title=" ">
<path fill="none" stroke="#63b8ff" d="M249.45,-343.62C240.08,-382.24 217.69,-451.99 172,-491 167.09,-495.19 161.5,-498.69 155.59,-501.59"/>
<polygon fill="#63b8ff" stroke="#63b8ff" points="252.85,-344.49 251.66,-333.96 246.02,-342.92 252.85,-344.49"/>
</a>
</g>
</g>
<!-- Node5 -->
<g id="Node000005" class="node">
<title>Node5</title>
<g id="a_Node000005"><a xlink:href="../../d7/d06/class_g_e_u_1_1_database_query_popup.html#a7e928a635f870efcaf7dc0826c039858" target="_top" xlink:title=" ">
<polygon fill="white" stroke="#666666" points="155.12,-482 16.88,-482 16.88,-450 155.12,-450 155.12,-482"/>
<text text-anchor="start" x="24.88" y="-468.5" font-family="Helvetica,sans-Serif" font-size="10.00">GEU::DatabaseQueryPopup</text>
<text text-anchor="middle" x="86" y="-456.5" font-family="Helvetica,sans-Serif" font-size="10.00">::makeFormFinca</text>
</a>
</g>
</g>
<!-- Node1&#45;&gt;Node5 -->
<g id="edge4_Node000001_Node000005" class="edge">
<title>Node1&#45;&gt;Node5</title>
<g id="a_edge4_Node000001_Node000005"><a xlink:title=" ">
<path fill="none" stroke="#63b8ff" d="M244.02,-342.9C230.91,-371.37 206.45,-415.62 172,-441 166.92,-444.74 161.29,-447.92 155.41,-450.63"/>
<polygon fill="#63b8ff" stroke="#63b8ff" points="247.17,-344.42 248.02,-333.86 240.77,-341.59 247.17,-344.42"/>
</a>
</g>
</g>
<!-- Node6 -->
<g id="Node000006" class="node">
<title>Node6</title>
<g id="a_Node000006"><a xlink:href="../../d7/d06/class_g_e_u_1_1_database_query_popup.html#aee96f5bdc802183d992461ccf7af7606" target="_top" xlink:title=" ">
<polygon fill="white" stroke="#666666" points="155.12,-432 16.88,-432 16.88,-400 155.12,-400 155.12,-432"/>
<text text-anchor="start" x="24.88" y="-418.5" font-family="Helvetica,sans-Serif" font-size="10.00">GEU::DatabaseQueryPopup</text>
<text text-anchor="middle" x="86" y="-406.5" font-family="Helvetica,sans-Serif" font-size="10.00">::makeFormObjeto</text>
</a>
</g>
</g>
<!-- Node1&#45;&gt;Node6 -->
<g id="edge5_Node000001_Node000006" class="edge">
<title>Node1&#45;&gt;Node6</title>
<g id="a_edge5_Node000001_Node000006"><a xlink:title=" ">
<path fill="none" stroke="#63b8ff" d="M233.62,-340.48C218,-356.89 195.55,-377.83 172,-391 166.23,-394.23 160,-397.08 153.62,-399.59"/>
<polygon fill="#63b8ff" stroke="#63b8ff" points="235.87,-343.2 240.1,-333.49 230.74,-338.44 235.87,-343.2"/>
</a>
</g>
</g>
<!-- Node7 -->
<g id="Node000007" class="node">
<title>Node7</title>
<g id="a_Node000007"><a xlink:href="../../d7/d06/class_g_e_u_1_1_database_query_popup.html#a6799cf756f5e2cb191268e786a8df4ba" target="_top" xlink:title=" ">
<polygon fill="white" stroke="#666666" points="155.12,-382 16.88,-382 16.88,-350 155.12,-350 155.12,-382"/>
<text text-anchor="start" x="24.88" y="-368.5" font-family="Helvetica,sans-Serif" font-size="10.00">GEU::DatabaseQueryPopup</text>
<text text-anchor="middle" x="86" y="-356.5" font-family="Helvetica,sans-Serif" font-size="10.00">::makeFormVuelos</text>
</a>
</g>
</g>
<!-- Node1&#45;&gt;Node7 -->
<g id="edge6_Node000001_Node000007" class="edge">
<title>Node1&#45;&gt;Node7</title>
<g id="a_edge6_Node000001_Node000007"><a xlink:title=" ">
<path fill="none" stroke="#63b8ff" d="M196.84,-333.58C188.5,-336.08 180.03,-338.61 172,-341 162.71,-343.76 152.85,-346.68 143.25,-349.51"/>
<polygon fill="#63b8ff" stroke="#63b8ff" points="197.64,-336.99 206.22,-330.76 195.63,-330.29 197.64,-336.99"/>
</a>
</g>
</g>
<!-- Node8 -->
<g id="Node000008" class="node">
<title>Node8</title>
<g id="a_Node000008"><a xlink:href="../../d7/d06/class_g_e_u_1_1_database_query_popup.html#ad5e45356898c5dfc51d7ef890f7a5b41" target="_top" xlink:title=" ">
<polygon fill="white" stroke="#666666" points="155.12,-332 16.88,-332 16.88,-300 155.12,-300 155.12,-332"/>
<text text-anchor="start" x="24.88" y="-318.5" font-family="Helvetica,sans-Serif" font-size="10.00">GEU::DatabaseQueryPopup</text>
<text text-anchor="middle" x="86" y="-306.5" font-family="Helvetica,sans-Serif" font-size="10.00">::makeFormZona</text>
</a>
</g>
</g>
<!-- Node1&#45;&gt;Node8 -->
<g id="edge7_Node000001_Node000008" class="edge">
<title>Node1&#45;&gt;Node8</title>
<g id="a_edge7_Node000001_Node000008"><a xlink:title=" ">
<path fill="none" stroke="#63b8ff" d="M196.51,-316C183.29,-316 169.15,-316 155.57,-316"/>
<polygon fill="#63b8ff" stroke="#63b8ff" points="196.33,-319.5 206.33,-316 196.33,-312.5 196.33,-319.5"/>
</a>
</g>
</g>
<!-- Node9 -->
<g id="Node000009" class="node">
<title>Node9</title>
<g id="a_Node000009"><a xlink:href="../../d6/d00/class_g_e_u_1_1_tree_segmentation_g_u_i_adapter.html#a220f4253fbaddc522c033e939717f015" target="_top" xlink:title="Draw Export to Database tab to handle remote conection and upload.">
<polygon fill="white" stroke="#666666" points="172,-282 0,-282 0,-250 172,-250 172,-282"/>
<text text-anchor="start" x="8" y="-268.5" font-family="Helvetica,sans-Serif" font-size="10.00">GEU::TreeSegmentationGUIAdapter</text>
<text text-anchor="middle" x="86" y="-256.5" font-family="Helvetica,sans-Serif" font-size="10.00">::makeSegmentDatabaseGUI</text>
</a>
</g>
</g>
<!-- Node1&#45;&gt;Node9 -->
<g id="edge8_Node000001_Node000009" class="edge">
<title>Node1&#45;&gt;Node9</title>
<g id="a_edge8_Node000001_Node000009"><a xlink:title=" ">
<path fill="none" stroke="#63b8ff" d="M196.84,-298.42C188.5,-295.92 180.03,-293.39 172,-291 162.71,-288.24 152.85,-285.32 143.25,-282.49"/>
<polygon fill="#63b8ff" stroke="#63b8ff" points="195.63,-301.71 206.22,-301.24 197.64,-295.01 195.63,-301.71"/>
</a>
</g>
</g>
<!-- Node10 -->
<g id="Node000010" class="node">
<title>Node10</title>
<g id="a_Node000010"><a xlink:href="../../d6/d00/class_g_e_u_1_1_tree_segmentation_g_u_i_adapter.html#a7e53f2d5e62b2c5fd15e718d87751c7a" target="_top" xlink:title="Draw Input tab to load an image and apply segmentation.">
<polygon fill="white" stroke="#666666" points="172,-232 0,-232 0,-200 172,-200 172,-232"/>
<text text-anchor="start" x="8" y="-218.5" font-family="Helvetica,sans-Serif" font-size="10.00">GEU::TreeSegmentationGUIAdapter</text>
<text text-anchor="middle" x="86" y="-206.5" font-family="Helvetica,sans-Serif" font-size="10.00">::makeSegmentInputGUI</text>
</a>
</g>
</g>
<!-- Node1&#45;&gt;Node10 -->
<g id="edge9_Node000001_Node000010" class="edge">
<title>Node1&#45;&gt;Node10</title>
<g id="a_edge9_Node000001_Node000010"><a xlink:title=" ">
<path fill="none" stroke="#63b8ff" d="M233.62,-291.52C218,-275.11 195.55,-254.17 172,-241 166.23,-237.77 160,-234.92 153.62,-232.41"/>
<polygon fill="#63b8ff" stroke="#63b8ff" points="230.74,-293.56 240.1,-298.51 235.87,-288.8 230.74,-293.56"/>
</a>
</g>
</g>
<!-- Node11 -->
<g id="Node000011" class="node">
<title>Node11</title>
<g id="a_Node000011"><a xlink:href="../../d6/d00/class_g_e_u_1_1_tree_segmentation_g_u_i_adapter.html#ae0fe85f5025e377a59d1f0112a98449e" target="_top" xlink:title="Draw Manage tab to handle current image segmentation status.">
<polygon fill="white" stroke="#666666" points="172,-182 0,-182 0,-150 172,-150 172,-182"/>
<text text-anchor="start" x="8" y="-168.5" font-family="Helvetica,sans-Serif" font-size="10.00">GEU::TreeSegmentationGUIAdapter</text>
<text text-anchor="middle" x="86" y="-156.5" font-family="Helvetica,sans-Serif" font-size="10.00">::makeSegmentManageGUI</text>
</a>
</g>
</g>
<!-- Node1&#45;&gt;Node11 -->
<g id="edge10_Node000001_Node000011" class="edge">
<title>Node1&#45;&gt;Node11</title>
<g id="a_edge10_Node000001_Node000011"><a xlink:title=" ">
<path fill="none" stroke="#63b8ff" d="M244.02,-289.1C230.91,-260.63 206.45,-216.38 172,-191 167.54,-187.72 162.66,-184.86 157.55,-182.38"/>
<polygon fill="#63b8ff" stroke="#63b8ff" points="240.77,-290.41 248.02,-298.14 247.17,-287.58 240.77,-290.41"/>
</a>
</g>
</g>
<!-- Node12 -->
<g id="Node000012" class="node">
<title>Node12</title>
<g id="a_Node000012"><a xlink:href="../../de/d02/class_g_e_u_1_1_multiespectral_g_u_i_adapter.html#a30cdb8738563252a05b2da154c3f864d" target="_top" xlink:title="Custom module GUI window contents.">
<polygon fill="white" stroke="#666666" points="163,-132 9,-132 9,-100 163,-100 163,-132"/>
<text text-anchor="start" x="17" y="-118.5" font-family="Helvetica,sans-Serif" font-size="10.00">GEU::MultiespectralGUIAdapter</text>
<text text-anchor="middle" x="86" y="-106.5" font-family="Helvetica,sans-Serif" font-size="10.00">::renderGuiObject</text>
</a>
</g>
</g>
<!-- Node1&#45;&gt;Node12 -->
<g id="edge11_Node000001_Node000012" class="edge">
<title>Node1&#45;&gt;Node12</title>
<g id="a_edge11_Node000001_Node000012"><a xlink:title=" ">
<path fill="none" stroke="#63b8ff" d="M249.45,-288.38C240.08,-249.76 217.69,-180.01 172,-141 168.14,-137.7 163.86,-134.84 159.34,-132.36"/>
<polygon fill="#63b8ff" stroke="#63b8ff" points="246.02,-289.08 251.66,-298.04 252.85,-287.51 246.02,-289.08"/>
</a>
</g>
</g>
<!-- Node13 -->
<g id="Node000013" class="node">
<title>Node13</title>
<g id="a_Node000013"><a xlink:href="../../d1/d03/class_g_e_u_1_1_thermal_g_u_i_adapter.html#a1509f8f0d21826efa7cc133bbd190931" target="_top" xlink:title="Custom module GUI window contents.">
<polygon fill="white" stroke="#666666" points="149.88,-82 22.12,-82 22.12,-50 149.88,-50 149.88,-82"/>
<text text-anchor="start" x="30.12" y="-68.5" font-family="Helvetica,sans-Serif" font-size="10.00">GEU::ThermalGUIAdapter</text>
<text text-anchor="middle" x="86" y="-56.5" font-family="Helvetica,sans-Serif" font-size="10.00">::renderGuiObject</text>
</a>
</g>
</g>
<!-- Node1&#45;&gt;Node13 -->
<g id="edge12_Node000001_Node000013" class="edge">
<title>Node1&#45;&gt;Node13</title>
<g id="a_edge12_Node000001_Node000013"><a xlink:title=" ">
<path fill="none" stroke="#63b8ff" d="M252.77,-288.26C247.25,-240.93 229.26,-144.5 172,-91 165.71,-85.12 158.1,-80.61 150.05,-77.17"/>
<polygon fill="#63b8ff" stroke="#63b8ff" points="249.29,-288.62 253.81,-298.2 256.25,-287.89 249.29,-288.62"/>
</a>
</g>
</g>
<!-- Node14 -->
<g id="Node000014" class="node">
<title>Node14</title>
<g id="a_Node000014"><a xlink:href="../../d2/d00/class_g_e_u_1_1_database_new_raw_popup.html#aabf3be0d95c567d3b439cdae51edc79e" target="_top" xlink:title="Renders the popup and its contents.">
<polygon fill="white" stroke="#666666" points="160.75,-32 11.25,-32 11.25,0 160.75,0 160.75,-32"/>
<text text-anchor="start" x="19.25" y="-18.5" font-family="Helvetica,sans-Serif" font-size="10.00">GEU::DatabaseNewRawPopup</text>
<text text-anchor="middle" x="86" y="-6.5" font-family="Helvetica,sans-Serif" font-size="10.00">::renderPopup</text>
</a>
</g>
</g>
<!-- Node1&#45;&gt;Node14 -->
<g id="edge13_Node000001_Node000014" class="edge">
<title>Node1&#45;&gt;Node14</title>
<g id="a_edge13_Node000001_Node000014"><a xlink:title=" ">
<path fill="none" stroke="#63b8ff" d="M254.98,-288.47C253.16,-233.51 241.11,-109.6 172,-41 168.72,-37.75 165.05,-34.92 161.11,-32.45"/>
<polygon fill="#63b8ff" stroke="#63b8ff" points="251.47,-288.27 255.2,-298.19 258.47,-288.11 251.47,-288.27"/>
</a>
</g>
</g>
</g>
</svg>
