<?xml version="1.0" encoding="UTF-8" standalone="no"?>
<!DOCTYPE svg PUBLIC "-//W3C//DTD SVG 1.1//EN"
 "http://www.w3.org/Graphics/SVG/1.1/DTD/svg11.dtd">
<!-- Generated by graphviz version 10.0.1 (20240210.2158)
 -->
<!-- Title: GEU::GuiUtilities::Button Pages: 1 -->
<svg width="456pt" height="478pt"
 viewBox="0.00 0.00 455.75 478.00" xmlns="http://www.w3.org/2000/svg" xmlns:xlink="http://www.w3.org/1999/xlink">
<g id="graph0" class="graph" transform="scale(1 1) rotate(0) translate(4 474)">
<title>GEU::GuiUtilities::Button</title>
<!-- Node1 -->
<g id="Node000001" class="node">
<title>Node1</title>
<g id="a_Node000001"><a xlink:title=" ">
<polygon fill="#999999" stroke="#666666" points="447.75,-245 351.5,-245 351.5,-213 447.75,-213 447.75,-245"/>
<text text-anchor="start" x="359.5" y="-231.5" font-family="Helvetica,sans-Serif" font-size="10.00">GEU::GuiUtilities::</text>
<text text-anchor="middle" x="399.62" y="-219.5" font-family="Helvetica,sans-Serif" font-size="10.00">Button</text>
</a>
</g>
</g>
<!-- Node2 -->
<g id="Node000002" class="node">
<title>Node2</title>
<g id="a_Node000002"><a xlink:href="../../db/d00/class_g_e_u_1_1_details_window.html#ad35f61717358ebd11631e5b8c5ed9ff9" target="_top" xlink:title="Makes and handles basic enabled and POS/ROT/SCL edit controls.">
<polygon fill="white" stroke="#666666" points="304.25,-470 154.75,-470 154.75,-438 304.25,-438 304.25,-470"/>
<text text-anchor="start" x="162.75" y="-456.5" font-family="Helvetica,sans-Serif" font-size="10.00">GEU::DetailsWindow</text>
<text text-anchor="middle" x="229.5" y="-444.5" font-family="Helvetica,sans-Serif" font-size="10.00">::makeBasicTransformControls</text>
</a>
</g>
</g>
<!-- Node1&#45;&gt;Node2 -->
<g id="edge1_Node000001_Node000002" class="edge">
<title>Node1&#45;&gt;Node2</title>
<g id="a_edge1_Node000001_Node000002"><a xlink:title=" ">
<path fill="none" stroke="#63b8ff" d="M394.79,-256.74C387.36,-299.87 366.93,-382.84 315.5,-429 311.84,-432.29 307.76,-435.14 303.43,-437.63"/>
<polygon fill="#63b8ff" stroke="#63b8ff" points="398.23,-257.37 396.35,-246.95 391.32,-256.27 398.23,-257.37"/>
</a>
</g>
</g>
<!-- Node3 -->
<g id="Node000003" class="node">
<title>Node3</title>
<g id="a_Node000003"><a xlink:href="../../db/d00/class_g_e_u_1_1_details_window.html#afef856466732ea159773d087909d0fdf" target="_top" xlink:title="Renders inspector details for 3D model items.">
<polygon fill="white" stroke="#666666" points="294.88,-420 164.12,-420 164.12,-388 294.88,-388 294.88,-420"/>
<text text-anchor="start" x="172.12" y="-406.5" font-family="Helvetica,sans-Serif" font-size="10.00">GEU::DetailsWindow</text>
<text text-anchor="middle" x="229.5" y="-394.5" font-family="Helvetica,sans-Serif" font-size="10.00">::makeModelItemInspector</text>
</a>
</g>
</g>
<!-- Node1&#45;&gt;Node3 -->
<g id="edge2_Node000001_Node000003" class="edge">
<title>Node1&#45;&gt;Node3</title>
<g id="a_edge2_Node000001_Node000003"><a xlink:title=" ">
<path fill="none" stroke="#63b8ff" d="M390.68,-256.13C379.43,-289.85 355.62,-346.86 315.5,-379 309.38,-383.9 302.32,-387.85 294.95,-391.02"/>
<polygon fill="#63b8ff" stroke="#63b8ff" points="393.99,-257.29 393.69,-246.7 387.32,-255.16 393.99,-257.29"/>
</a>
</g>
</g>
<!-- Node5 -->
<g id="Node000005" class="node">
<title>Node5</title>
<g id="a_Node000005"><a xlink:href="../../db/d00/class_g_e_u_1_1_details_window.html#a9edcfff4507d107037e9f7500a3d6717" target="_top" xlink:title="Renders inspector details for point cloud items.">
<polygon fill="white" stroke="#666666" points="297.5,-370 161.5,-370 161.5,-338 297.5,-338 297.5,-370"/>
<text text-anchor="start" x="169.5" y="-356.5" font-family="Helvetica,sans-Serif" font-size="10.00">GEU::DetailsWindow</text>
<text text-anchor="middle" x="229.5" y="-344.5" font-family="Helvetica,sans-Serif" font-size="10.00">::makePCloudItemInspector</text>
</a>
</g>
</g>
<!-- Node1&#45;&gt;Node5 -->
<g id="edge4_Node000001_Node000005" class="edge">
<title>Node1&#45;&gt;Node5</title>
<g id="a_edge4_Node000001_Node000005"><a xlink:title=" ">
<path fill="none" stroke="#63b8ff" d="M383.24,-255.1C368.57,-277.8 344.45,-309.96 315.5,-329 309.97,-332.63 303.91,-335.75 297.63,-338.43"/>
<polygon fill="#63b8ff" stroke="#63b8ff" points="386.16,-257.04 388.5,-246.7 380.23,-253.32 386.16,-257.04"/>
</a>
</g>
</g>
<!-- Node6 -->
<g id="Node000006" class="node">
<title>Node6</title>
<g id="a_Node000006"><a xlink:href="../../d6/d00/class_g_e_u_1_1_tree_segmentation_g_u_i_adapter.html#afcda560180acc4f5fbd7caeaa40f9018" target="_top" xlink:title="Custom module GUI window contents.">
<polygon fill="white" stroke="#666666" points="315.5,-320 143.5,-320 143.5,-288 315.5,-288 315.5,-320"/>
<text text-anchor="start" x="151.5" y="-306.5" font-family="Helvetica,sans-Serif" font-size="10.00">GEU::TreeSegmentationGUIAdapter</text>
<text text-anchor="middle" x="229.5" y="-294.5" font-family="Helvetica,sans-Serif" font-size="10.00">::renderGuiObject</text>
</a>
</g>
</g>
<!-- Node1&#45;&gt;Node6 -->
<g id="edge6_Node000001_Node000006" class="edge">
<title>Node1&#45;&gt;Node6</title>
<g id="a_edge6_Node000001_Node000006"><a xlink:title=" ">
<path fill="none" stroke="#63b8ff" d="M365.86,-251.37C350.96,-260.83 332.83,-271.39 315.5,-279 308.32,-282.15 300.62,-285.04 292.91,-287.65"/>
<polygon fill="#63b8ff" stroke="#63b8ff" points="367.38,-254.55 373.86,-246.18 363.57,-248.68 367.38,-254.55"/>
</a>
</g>
</g>
<!-- Node7 -->
<g id="Node000007" class="node">
<title>Node7</title>
<g id="a_Node000007"><a xlink:href="../../db/d06/class_g_e_u_1_1_database_new_vuelo_popup.html#ac1b98a11d860c6c9fe497bdcaa689d79" target="_top" xlink:title="Renders the popup and its contents.">
<polygon fill="white" stroke="#666666" points="307.25,-270 151.75,-270 151.75,-238 307.25,-238 307.25,-270"/>
<text text-anchor="start" x="159.75" y="-256.5" font-family="Helvetica,sans-Serif" font-size="10.00">GEU::DatabaseNewVueloPopup</text>
<text text-anchor="middle" x="229.5" y="-244.5" font-family="Helvetica,sans-Serif" font-size="10.00">::renderPopup</text>
</a>
</g>
</g>
<!-- Node1&#45;&gt;Node7 -->
<g id="edge7_Node000001_Node000007" class="edge">
<title>Node1&#45;&gt;Node7</title>
<g id="a_edge7_Node000001_Node000007"><a xlink:title=" ">
<path fill="none" stroke="#63b8ff" d="M340.21,-237.69C329.7,-239.25 318.59,-240.9 307.65,-242.53"/>
<polygon fill="#63b8ff" stroke="#63b8ff" points="340.47,-241.19 349.85,-236.25 339.44,-234.26 340.47,-241.19"/>
</a>
</g>
</g>
<!-- Node8 -->
<g id="Node000008" class="node">
<title>Node8</title>
<g id="a_Node000008"><a xlink:href="../../dc/d00/class_g_e_u_1_1_database_query_dato_popup.html#a6b45f3f4957a46091ab0d75b9600a56d" target="_top" xlink:title="Renders the popup and its contents.">
<polygon fill="white" stroke="#666666" points="308.75,-220 150.25,-220 150.25,-188 308.75,-188 308.75,-220"/>
<text text-anchor="start" x="158.25" y="-206.5" font-family="Helvetica,sans-Serif" font-size="10.00">GEU::DatabaseQueryDatoPopup</text>
<text text-anchor="middle" x="229.5" y="-194.5" font-family="Helvetica,sans-Serif" font-size="10.00">::renderPopup</text>
</a>
</g>
</g>
<!-- Node1&#45;&gt;Node8 -->
<g id="edge8_Node000001_Node000008" class="edge">
<title>Node1&#45;&gt;Node8</title>
<g id="a_edge8_Node000001_Node000008"><a xlink:title=" ">
<path fill="none" stroke="#63b8ff" d="M339.97,-220.28C330.04,-218.8 319.59,-217.25 309.24,-215.71"/>
<polygon fill="#63b8ff" stroke="#63b8ff" points="339.44,-223.74 349.85,-221.75 340.47,-216.81 339.44,-223.74"/>
</a>
</g>
</g>
<!-- Node9 -->
<g id="Node000009" class="node">
<title>Node9</title>
<g id="a_Node000009"><a xlink:href="../../db/d04/class_g_e_u_1_1_info_popup.html#a159ea5e5a4c7240aaa3592082d39e008" target="_top" xlink:title="Renders the popup and its contents.">
<polygon fill="white" stroke="#666666" points="302.75,-170 156.25,-170 156.25,-150 302.75,-150 302.75,-170"/>
<text text-anchor="middle" x="229.5" y="-156.5" font-family="Helvetica,sans-Serif" font-size="10.00">GEU::InfoPopup::renderPopup</text>
</a>
</g>
</g>
<!-- Node1&#45;&gt;Node9 -->
<g id="edge9_Node000001_Node000009" class="edge">
<title>Node1&#45;&gt;Node9</title>
<g id="a_edge9_Node000001_Node000009"><a xlink:title=" ">
<path fill="none" stroke="#63b8ff" d="M366.73,-206.51C351.77,-196.83 333.33,-186.14 315.5,-179 307.08,-175.63 297.93,-172.79 288.87,-170.43"/>
<polygon fill="#63b8ff" stroke="#63b8ff" points="364.49,-209.22 374.76,-211.83 368.36,-203.39 364.49,-209.22"/>
</a>
</g>
</g>
<!-- Node10 -->
<g id="Node000010" class="node">
<title>Node10</title>
<g id="a_Node000010"><a xlink:href="../../d2/d05/class_g_e_u_1_1_database_new_dato_window.html#ae07f0a25c9ecb584624ce7bf67bc48cb" target="_top" xlink:title="Renders the window and contents.">
<polygon fill="white" stroke="#666666" points="308.38,-132 150.62,-132 150.62,-100 308.38,-100 308.38,-132"/>
<text text-anchor="start" x="158.62" y="-118.5" font-family="Helvetica,sans-Serif" font-size="10.00">GEU::DatabaseNewDatoWindow</text>
<text text-anchor="middle" x="229.5" y="-106.5" font-family="Helvetica,sans-Serif" font-size="10.00">::renderWindow</text>
</a>
</g>
</g>
<!-- Node1&#45;&gt;Node10 -->
<g id="edge10_Node000001_Node000010" class="edge">
<title>Node1&#45;&gt;Node10</title>
<g id="a_edge10_Node000001_Node000010"><a xlink:title=" ">
<path fill="none" stroke="#63b8ff" d="M380.56,-203.49C365.32,-183.75 341.83,-157.14 315.5,-141 310.25,-137.78 304.57,-134.96 298.72,-132.49"/>
<polygon fill="#63b8ff" stroke="#63b8ff" points="377.65,-205.44 386.44,-211.34 383.25,-201.24 377.65,-205.44"/>
</a>
</g>
</g>
<!-- Node11 -->
<g id="Node000011" class="node">
<title>Node11</title>
<g id="a_Node000011"><a xlink:href="../../d9/d01/class_g_e_u_1_1_picking_window.html#a56f55b34996a68d41418a2df8ea008db" target="_top" xlink:title="Renders the window and contents.">
<polygon fill="white" stroke="#666666" points="284.38,-82 174.62,-82 174.62,-50 284.38,-50 284.38,-82"/>
<text text-anchor="start" x="182.62" y="-68.5" font-family="Helvetica,sans-Serif" font-size="10.00">GEU::PickingWindow</text>
<text text-anchor="middle" x="229.5" y="-56.5" font-family="Helvetica,sans-Serif" font-size="10.00">::renderWindow</text>
</a>
</g>
</g>
<!-- Node1&#45;&gt;Node11 -->
<g id="edge11_Node000001_Node000011" class="edge">
<title>Node1&#45;&gt;Node11</title>
<g id="a_edge11_Node000001_Node000011"><a xlink:title=" ">
<path fill="none" stroke="#63b8ff" d="M389.36,-202.15C377.22,-170.9 352.97,-119.92 315.5,-91 306.49,-84.04 295.59,-79.02 284.64,-75.39"/>
<polygon fill="#63b8ff" stroke="#63b8ff" points="385.99,-203.12 392.76,-211.27 392.55,-200.68 385.99,-203.12"/>
</a>
</g>
</g>
<!-- Node12 -->
<g id="Node000012" class="node">
<title>Node12</title>
<g id="a_Node000012"><a xlink:href="../../d2/d05/class_g_e_u_1_1_database_new_dato_window.html#a6ea01dc83a34747f5390085fda4e8980" target="_top" xlink:title=" ">
<polygon fill="white" stroke="#666666" points="308.38,-32 150.62,-32 150.62,0 308.38,0 308.38,-32"/>
<text text-anchor="start" x="158.62" y="-18.5" font-family="Helvetica,sans-Serif" font-size="10.00">GEU::DatabaseNewDatoWindow</text>
<text text-anchor="middle" x="229.5" y="-6.5" font-family="Helvetica,sans-Serif" font-size="10.00">::showNewDatoDuplicatedPopup</text>
</a>
</g>
</g>
<!-- Node1&#45;&gt;Node12 -->
<g id="edge12_Node000001_Node000012" class="edge">
<title>Node1&#45;&gt;Node12</title>
<g id="a_edge12_Node000001_Node000012"><a xlink:title=" ">
<path fill="none" stroke="#63b8ff" d="M393.99,-201.45C385.65,-160.48 364.22,-83.76 315.5,-41 311.8,-37.75 307.7,-34.93 303.35,-32.47"/>
<polygon fill="#63b8ff" stroke="#63b8ff" points="390.54,-202.05 395.85,-211.22 397.42,-200.74 390.54,-202.05"/>
</a>
</g>
</g>
<!-- Node4 -->
<g id="Node000004" class="node">
<title>Node4</title>
<g id="a_Node000004"><a xlink:href="../../db/d00/class_g_e_u_1_1_details_window.html#a6666ec761cc5cd8a57220823b8e7daa6" target="_top" xlink:title="Renders the window and contents.">
<polygon fill="white" stroke="#666666" points="107.5,-395 0,-395 0,-363 107.5,-363 107.5,-395"/>
<text text-anchor="start" x="8" y="-381.5" font-family="Helvetica,sans-Serif" font-size="10.00">GEU::DetailsWindow</text>
<text text-anchor="middle" x="53.75" y="-369.5" font-family="Helvetica,sans-Serif" font-size="10.00">::renderWindow</text>
</a>
</g>
</g>
<!-- Node3&#45;&gt;Node4 -->
<g id="edge3_Node000003_Node000004" class="edge">
<title>Node3&#45;&gt;Node4</title>
<g id="a_edge3_Node000003_Node000004"><a xlink:title=" ">
<path fill="none" stroke="#63b8ff" d="M152.43,-393.05C137.4,-390.89 121.93,-388.67 107.87,-386.64"/>
<polygon fill="#63b8ff" stroke="#63b8ff" points="151.91,-396.52 162.3,-394.48 152.9,-389.59 151.91,-396.52"/>
</a>
</g>
</g>
<!-- Node5&#45;&gt;Node4 -->
<g id="edge5_Node000005_Node000004" class="edge">
<title>Node5&#45;&gt;Node4</title>
<g id="a_edge5_Node000005_Node000004"><a xlink:title=" ">
<path fill="none" stroke="#63b8ff" d="M149.96,-365.3C135.67,-367.36 121.08,-369.46 107.75,-371.37"/>
<polygon fill="#63b8ff" stroke="#63b8ff" points="150.43,-368.77 159.83,-363.88 149.43,-361.84 150.43,-368.77"/>
</a>
</g>
</g>
</g>
</svg>
