<?xml version="1.0" encoding="UTF-8" standalone="no"?>
<!DOCTYPE svg PUBLIC "-//W3C//DTD SVG 1.1//EN"
 "http://www.w3.org/Graphics/SVG/1.1/DTD/svg11.dtd">
<!-- Generated by graphviz version 10.0.1 (20240210.2158)
 -->
<!-- Title: GEU::GuiUtilities::Button Pages: 1 -->
<svg width="456pt" height="440pt"
 viewBox="0.00 0.00 455.75 440.00" xmlns="http://www.w3.org/2000/svg" xmlns:xlink="http://www.w3.org/1999/xlink">
<g id="graph0" class="graph" transform="scale(1 1) rotate(0) translate(4 436)">
<title>GEU::GuiUtilities::Button</title>
<!-- Node1 -->
<g id="Node000001" class="node">
<title>Node1</title>
<g id="a_Node000001"><a xlink:title=" ">
<polygon fill="#999999" stroke="#666666" points="447.75,-232 351.5,-232 351.5,-200 447.75,-200 447.75,-232"/>
<text text-anchor="start" x="359.5" y="-218.5" font-family="Helvetica,sans-Serif" font-size="10.00">GEU::GuiUtilities::</text>
<text text-anchor="middle" x="399.62" y="-206.5" font-family="Helvetica,sans-Serif" font-size="10.00">Button</text>
</a>
</g>
</g>
<!-- Node2 -->
<g id="Node000002" class="node">
<title>Node2</title>
<g id="a_Node000002"><a xlink:href="../../db/d00/class_g_e_u_1_1_details_window.html#ad35f61717358ebd11631e5b8c5ed9ff9" target="_top" xlink:title="Makes and handles basic enabled and POS/ROT/SCL edit controls.">
<polygon fill="white" stroke="#666666" points="304.25,-432 154.75,-432 154.75,-400 304.25,-400 304.25,-432"/>
<text text-anchor="start" x="162.75" y="-418.5" font-family="Helvetica,sans-Serif" font-size="10.00">GEU::DetailsWindow</text>
<text text-anchor="middle" x="229.5" y="-406.5" font-family="Helvetica,sans-Serif" font-size="10.00">::makeBasicTransformControls</text>
</a>
</g>
</g>
<!-- Node1&#45;&gt;Node2 -->
<g id="edge1_Node000001_Node000002" class="edge">
<title>Node1&#45;&gt;Node2</title>
<g id="a_edge1_Node000001_Node000002"><a xlink:title=" ">
<path fill="none" stroke="#63b8ff" d="M392.95,-243.62C383.58,-282.24 361.19,-351.99 315.5,-391 311.64,-394.3 307.36,-397.16 302.84,-399.64"/>
<polygon fill="#63b8ff" stroke="#63b8ff" points="396.35,-244.49 395.16,-233.96 389.52,-242.92 396.35,-244.49"/>
</a>
</g>
</g>
<!-- Node3 -->
<g id="Node000003" class="node">
<title>Node3</title>
<g id="a_Node000003"><a xlink:href="../../db/d00/class_g_e_u_1_1_details_window.html#afef856466732ea159773d087909d0fdf" target="_top" xlink:title="Renders inspector details for 3D model items.">
<polygon fill="white" stroke="#666666" points="294.88,-382 164.12,-382 164.12,-350 294.88,-350 294.88,-382"/>
<text text-anchor="start" x="172.12" y="-368.5" font-family="Helvetica,sans-Serif" font-size="10.00">GEU::DetailsWindow</text>
<text text-anchor="middle" x="229.5" y="-356.5" font-family="Helvetica,sans-Serif" font-size="10.00">::makeModelItemInspector</text>
</a>
</g>
</g>
<!-- Node1&#45;&gt;Node3 -->
<g id="edge2_Node000001_Node000003" class="edge">
<title>Node1&#45;&gt;Node3</title>
<g id="a_edge2_Node000001_Node000003"><a xlink:title=" ">
<path fill="none" stroke="#63b8ff" d="M387.52,-242.9C374.41,-271.37 349.95,-315.62 315.5,-341 309.31,-345.56 302.29,-349.3 295.01,-352.35"/>
<polygon fill="#63b8ff" stroke="#63b8ff" points="390.67,-244.42 391.52,-233.86 384.27,-241.59 390.67,-244.42"/>
</a>
</g>
</g>
<!-- Node5 -->
<g id="Node000005" class="node">
<title>Node5</title>
<g id="a_Node000005"><a xlink:href="../../db/d00/class_g_e_u_1_1_details_window.html#a9edcfff4507d107037e9f7500a3d6717" target="_top" xlink:title="Renders inspector details for point cloud items.">
<polygon fill="white" stroke="#666666" points="297.5,-332 161.5,-332 161.5,-300 297.5,-300 297.5,-332"/>
<text text-anchor="start" x="169.5" y="-318.5" font-family="Helvetica,sans-Serif" font-size="10.00">GEU::DetailsWindow</text>
<text text-anchor="middle" x="229.5" y="-306.5" font-family="Helvetica,sans-Serif" font-size="10.00">::makePCloudItemInspector</text>
</a>
</g>
</g>
<!-- Node1&#45;&gt;Node5 -->
<g id="edge4_Node000001_Node000005" class="edge">
<title>Node1&#45;&gt;Node5</title>
<g id="a_edge4_Node000001_Node000005"><a xlink:title=" ">
<path fill="none" stroke="#63b8ff" d="M377.12,-240.48C361.5,-256.89 339.05,-277.83 315.5,-291 309.73,-294.23 303.5,-297.08 297.12,-299.59"/>
<polygon fill="#63b8ff" stroke="#63b8ff" points="379.37,-243.2 383.6,-233.49 374.24,-238.44 379.37,-243.2"/>
</a>
</g>
</g>
<!-- Node6 -->
<g id="Node000006" class="node">
<title>Node6</title>
<g id="a_Node000006"><a xlink:href="../../d6/d00/class_g_e_u_1_1_tree_segmentation_g_u_i_adapter.html#afcda560180acc4f5fbd7caeaa40f9018" target="_top" xlink:title="Custom module GUI window contents.">
<polygon fill="white" stroke="#666666" points="315.5,-282 143.5,-282 143.5,-250 315.5,-250 315.5,-282"/>
<text text-anchor="start" x="151.5" y="-268.5" font-family="Helvetica,sans-Serif" font-size="10.00">GEU::TreeSegmentationGUIAdapter</text>
<text text-anchor="middle" x="229.5" y="-256.5" font-family="Helvetica,sans-Serif" font-size="10.00">::renderGuiObject</text>
</a>
</g>
</g>
<!-- Node1&#45;&gt;Node6 -->
<g id="edge6_Node000001_Node000006" class="edge">
<title>Node1&#45;&gt;Node6</title>
<g id="a_edge6_Node000001_Node000006"><a xlink:title=" ">
<path fill="none" stroke="#63b8ff" d="M340.34,-233.58C332,-236.08 323.53,-238.61 315.5,-241 306.21,-243.76 296.35,-246.68 286.75,-249.51"/>
<polygon fill="#63b8ff" stroke="#63b8ff" points="341.14,-236.99 349.72,-230.76 339.13,-230.29 341.14,-236.99"/>
</a>
</g>
</g>
<!-- Node7 -->
<g id="Node000007" class="node">
<title>Node7</title>
<g id="a_Node000007"><a xlink:href="../../dc/d00/class_g_e_u_1_1_database_query_dato_popup.html#a6b45f3f4957a46091ab0d75b9600a56d" target="_top" xlink:title="Renders the popup and its contents.">
<polygon fill="white" stroke="#666666" points="308.75,-232 150.25,-232 150.25,-200 308.75,-200 308.75,-232"/>
<text text-anchor="start" x="158.25" y="-218.5" font-family="Helvetica,sans-Serif" font-size="10.00">GEU::DatabaseQueryDatoPopup</text>
<text text-anchor="middle" x="229.5" y="-206.5" font-family="Helvetica,sans-Serif" font-size="10.00">::renderPopup</text>
</a>
</g>
</g>
<!-- Node1&#45;&gt;Node7 -->
<g id="edge7_Node000001_Node000007" class="edge">
<title>Node1&#45;&gt;Node7</title>
<g id="a_edge7_Node000001_Node000007"><a xlink:title=" ">
<path fill="none" stroke="#63b8ff" d="M339.97,-216C330.04,-216 319.59,-216 309.24,-216"/>
<polygon fill="#63b8ff" stroke="#63b8ff" points="339.83,-219.5 349.83,-216 339.83,-212.5 339.83,-219.5"/>
</a>
</g>
</g>
<!-- Node8 -->
<g id="Node000008" class="node">
<title>Node8</title>
<g id="a_Node000008"><a xlink:href="../../db/d06/class_g_e_u_1_1_database_new_vuelo_popup.html#ac1b98a11d860c6c9fe497bdcaa689d79" target="_top" xlink:title="Renders the popup and its contents.">
<polygon fill="white" stroke="#666666" points="307.25,-182 151.75,-182 151.75,-150 307.25,-150 307.25,-182"/>
<text text-anchor="start" x="159.75" y="-168.5" font-family="Helvetica,sans-Serif" font-size="10.00">GEU::DatabaseNewVueloPopup</text>
<text text-anchor="middle" x="229.5" y="-156.5" font-family="Helvetica,sans-Serif" font-size="10.00">::renderPopup</text>
</a>
</g>
</g>
<!-- Node1&#45;&gt;Node8 -->
<g id="edge8_Node000001_Node000008" class="edge">
<title>Node1&#45;&gt;Node8</title>
<g id="a_edge8_Node000001_Node000008"><a xlink:title=" ">
<path fill="none" stroke="#63b8ff" d="M340.34,-198.42C332,-195.92 323.53,-193.39 315.5,-191 306.21,-188.24 296.35,-185.32 286.75,-182.49"/>
<polygon fill="#63b8ff" stroke="#63b8ff" points="339.13,-201.71 349.72,-201.24 341.14,-195.01 339.13,-201.71"/>
</a>
</g>
</g>
<!-- Node9 -->
<g id="Node000009" class="node">
<title>Node9</title>
<g id="a_Node000009"><a xlink:href="../../d2/d05/class_g_e_u_1_1_database_new_dato_window.html#ae07f0a25c9ecb584624ce7bf67bc48cb" target="_top" xlink:title="Renders the window and contents.">
<polygon fill="white" stroke="#666666" points="308.38,-132 150.62,-132 150.62,-100 308.38,-100 308.38,-132"/>
<text text-anchor="start" x="158.62" y="-118.5" font-family="Helvetica,sans-Serif" font-size="10.00">GEU::DatabaseNewDatoWindow</text>
<text text-anchor="middle" x="229.5" y="-106.5" font-family="Helvetica,sans-Serif" font-size="10.00">::renderWindow</text>
</a>
</g>
</g>
<!-- Node1&#45;&gt;Node9 -->
<g id="edge9_Node000001_Node000009" class="edge">
<title>Node1&#45;&gt;Node9</title>
<g id="a_edge9_Node000001_Node000009"><a xlink:title=" ">
<path fill="none" stroke="#63b8ff" d="M377.12,-191.52C361.5,-175.11 339.05,-154.17 315.5,-141 309.73,-137.77 303.5,-134.92 297.12,-132.41"/>
<polygon fill="#63b8ff" stroke="#63b8ff" points="374.24,-193.56 383.6,-198.51 379.37,-188.8 374.24,-193.56"/>
</a>
</g>
</g>
<!-- Node10 -->
<g id="Node000010" class="node">
<title>Node10</title>
<g id="a_Node000010"><a xlink:href="../../d9/d01/class_g_e_u_1_1_picking_window.html#a56f55b34996a68d41418a2df8ea008db" target="_top" xlink:title="Renders the window and contents.">
<polygon fill="white" stroke="#666666" points="284.38,-82 174.62,-82 174.62,-50 284.38,-50 284.38,-82"/>
<text text-anchor="start" x="182.62" y="-68.5" font-family="Helvetica,sans-Serif" font-size="10.00">GEU::PickingWindow</text>
<text text-anchor="middle" x="229.5" y="-56.5" font-family="Helvetica,sans-Serif" font-size="10.00">::renderWindow</text>
</a>
</g>
</g>
<!-- Node1&#45;&gt;Node10 -->
<g id="edge10_Node000001_Node000010" class="edge">
<title>Node1&#45;&gt;Node10</title>
<g id="a_edge10_Node000001_Node000010"><a xlink:title=" ">
<path fill="none" stroke="#63b8ff" d="M387.52,-189.1C374.41,-160.63 349.95,-116.38 315.5,-91 306.46,-84.34 295.66,-79.44 284.85,-75.85"/>
<polygon fill="#63b8ff" stroke="#63b8ff" points="384.27,-190.41 391.52,-198.14 390.67,-187.58 384.27,-190.41"/>
</a>
</g>
</g>
<!-- Node11 -->
<g id="Node000011" class="node">
<title>Node11</title>
<g id="a_Node000011"><a xlink:href="../../d2/d05/class_g_e_u_1_1_database_new_dato_window.html#a6ea01dc83a34747f5390085fda4e8980" target="_top" xlink:title=" ">
<polygon fill="white" stroke="#666666" points="308.38,-32 150.62,-32 150.62,0 308.38,0 308.38,-32"/>
<text text-anchor="start" x="158.62" y="-18.5" font-family="Helvetica,sans-Serif" font-size="10.00">GEU::DatabaseNewDatoWindow</text>
<text text-anchor="middle" x="229.5" y="-6.5" font-family="Helvetica,sans-Serif" font-size="10.00">::showNewDatoDuplicatedPopup</text>
</a>
</g>
</g>
<!-- Node1&#45;&gt;Node11 -->
<g id="edge11_Node000001_Node000011" class="edge">
<title>Node1&#45;&gt;Node11</title>
<g id="a_edge11_Node000001_Node000011"><a xlink:title=" ">
<path fill="none" stroke="#63b8ff" d="M392.95,-188.38C383.58,-149.76 361.19,-80.01 315.5,-41 311.64,-37.7 307.36,-34.84 302.84,-32.36"/>
<polygon fill="#63b8ff" stroke="#63b8ff" points="389.52,-189.08 395.16,-198.04 396.35,-187.51 389.52,-189.08"/>
</a>
</g>
</g>
<!-- Node4 -->
<g id="Node000004" class="node">
<title>Node4</title>
<g id="a_Node000004"><a xlink:href="../../db/d00/class_g_e_u_1_1_details_window.html#a6666ec761cc5cd8a57220823b8e7daa6" target="_top" xlink:title="Renders the window and contents.">
<polygon fill="white" stroke="#666666" points="107.5,-357 0,-357 0,-325 107.5,-325 107.5,-357"/>
<text text-anchor="start" x="8" y="-343.5" font-family="Helvetica,sans-Serif" font-size="10.00">GEU::DetailsWindow</text>
<text text-anchor="middle" x="53.75" y="-331.5" font-family="Helvetica,sans-Serif" font-size="10.00">::renderWindow</text>
</a>
</g>
</g>
<!-- Node3&#45;&gt;Node4 -->
<g id="edge3_Node000003_Node000004" class="edge">
<title>Node3&#45;&gt;Node4</title>
<g id="a_edge3_Node000003_Node000004"><a xlink:title=" ">
<path fill="none" stroke="#63b8ff" d="M152.43,-355.05C137.4,-352.89 121.93,-350.67 107.87,-348.64"/>
<polygon fill="#63b8ff" stroke="#63b8ff" points="151.91,-358.52 162.3,-356.48 152.9,-351.59 151.91,-358.52"/>
</a>
</g>
</g>
<!-- Node5&#45;&gt;Node4 -->
<g id="edge5_Node000005_Node000004" class="edge">
<title>Node5&#45;&gt;Node4</title>
<g id="a_edge5_Node000005_Node000004"><a xlink:title=" ">
<path fill="none" stroke="#63b8ff" d="M149.96,-327.3C135.67,-329.36 121.08,-331.46 107.75,-333.37"/>
<polygon fill="#63b8ff" stroke="#63b8ff" points="150.43,-330.77 159.83,-325.88 149.43,-323.84 150.43,-330.77"/>
</a>
</g>
</g>
</g>
</svg>
