<?xml version="1.0" encoding="UTF-8" standalone="no"?>
<!DOCTYPE svg PUBLIC "-//W3C//DTD SVG 1.1//EN"
 "http://www.w3.org/Graphics/SVG/1.1/DTD/svg11.dtd">
<!-- Generated by graphviz version 10.0.1 (20240210.2158)
 -->
<!-- Title: GEU::GuiUtilities::InputText Pages: 1 -->
<svg width="456pt" height="390pt"
 viewBox="0.00 0.00 455.75 390.00" xmlns="http://www.w3.org/2000/svg" xmlns:xlink="http://www.w3.org/1999/xlink">
<g id="graph0" class="graph" transform="scale(1 1) rotate(0) translate(4 386)">
<title>GEU::GuiUtilities::InputText</title>
<!-- Node1 -->
<g id="Node000001" class="node">
<title>Node1</title>
<g id="a_Node000001"><a xlink:title=" ">
<polygon fill="#999999" stroke="#666666" points="447.75,-207 351.5,-207 351.5,-175 447.75,-175 447.75,-207"/>
<text text-anchor="start" x="359.5" y="-193.5" font-family="Helvetica,sans-Serif" font-size="10.00">GEU::GuiUtilities::</text>
<text text-anchor="middle" x="399.62" y="-181.5" font-family="Helvetica,sans-Serif" font-size="10.00">InputText</text>
</a>
</g>
</g>
<!-- Node2 -->
<g id="Node000002" class="node">
<title>Node2</title>
<g id="a_Node000002"><a xlink:href="../../db/d00/class_g_e_u_1_1_details_window.html#addd0dc775ee807e26a5936815ad411b8" target="_top" xlink:title=" ">
<polygon fill="white" stroke="#666666" points="299,-382 160,-382 160,-350 299,-350 299,-382"/>
<text text-anchor="start" x="168" y="-368.5" font-family="Helvetica,sans-Serif" font-size="10.00">GEU::DetailsWindow</text>
<text text-anchor="middle" x="229.5" y="-356.5" font-family="Helvetica,sans-Serif" font-size="10.00">::makeMaterialItemInspector</text>
</a>
</g>
</g>
<!-- Node1&#45;&gt;Node2 -->
<g id="edge1_Node000001_Node000002" class="edge">
<title>Node1&#45;&gt;Node2</title>
<g id="a_edge1_Node000001_Node000002"><a xlink:title=" ">
<path fill="none" stroke="#63b8ff" d="M390.68,-218.13C379.43,-251.85 355.62,-308.86 315.5,-341 310.58,-344.94 305.05,-348.26 299.24,-351.06"/>
<polygon fill="#63b8ff" stroke="#63b8ff" points="393.99,-219.29 393.69,-208.7 387.32,-217.16 393.99,-219.29"/>
</a>
</g>
</g>
<!-- Node4 -->
<g id="Node000004" class="node">
<title>Node4</title>
<g id="a_Node000004"><a xlink:href="../../db/d00/class_g_e_u_1_1_details_window.html#a5846380c6e133a053b1143f6d464dd70" target="_top" xlink:title="Renders inspector details for 3D model items.">
<polygon fill="white" stroke="#666666" points="294.88,-332 164.12,-332 164.12,-300 294.88,-300 294.88,-332"/>
<text text-anchor="start" x="172.12" y="-318.5" font-family="Helvetica,sans-Serif" font-size="10.00">GEU::DetailsWindow</text>
<text text-anchor="middle" x="229.5" y="-306.5" font-family="Helvetica,sans-Serif" font-size="10.00">::makeModelItemInspector</text>
</a>
</g>
</g>
<!-- Node1&#45;&gt;Node4 -->
<g id="edge3_Node000001_Node000004" class="edge">
<title>Node1&#45;&gt;Node4</title>
<g id="a_edge3_Node000001_Node000004"><a xlink:title=" ">
<path fill="none" stroke="#63b8ff" d="M383.24,-217.1C368.57,-239.8 344.45,-271.96 315.5,-291 309.2,-295.14 302.2,-298.61 295,-301.52"/>
<polygon fill="#63b8ff" stroke="#63b8ff" points="386.16,-219.04 388.5,-208.7 380.23,-215.32 386.16,-219.04"/>
</a>
</g>
</g>
<!-- Node5 -->
<g id="Node000005" class="node">
<title>Node5</title>
<g id="a_Node000005"><a xlink:href="../../db/d00/class_g_e_u_1_1_details_window.html#a696b110218746e301559da2c93e6cd60" target="_top" xlink:title="Renders inspector details for point cloud items.">
<polygon fill="white" stroke="#666666" points="297.5,-282 161.5,-282 161.5,-250 297.5,-250 297.5,-282"/>
<text text-anchor="start" x="169.5" y="-268.5" font-family="Helvetica,sans-Serif" font-size="10.00">GEU::DetailsWindow</text>
<text text-anchor="middle" x="229.5" y="-256.5" font-family="Helvetica,sans-Serif" font-size="10.00">::makePCloudItemInspector</text>
</a>
</g>
</g>
<!-- Node1&#45;&gt;Node5 -->
<g id="edge5_Node000001_Node000005" class="edge">
<title>Node1&#45;&gt;Node5</title>
<g id="a_edge5_Node000001_Node000005"><a xlink:title=" ">
<path fill="none" stroke="#63b8ff" d="M365.86,-213.37C350.96,-222.83 332.83,-233.39 315.5,-241 308.32,-244.15 300.62,-247.04 292.91,-249.65"/>
<polygon fill="#63b8ff" stroke="#63b8ff" points="367.38,-216.55 373.86,-208.18 363.57,-210.68 367.38,-216.55"/>
</a>
</g>
</g>
<!-- Node6 -->
<g id="Node000006" class="node">
<title>Node6</title>
<g id="a_Node000006"><a xlink:href="../../d6/d00/class_g_e_u_1_1_tree_segmentation_g_u_i_adapter.html#afcda560180acc4f5fbd7caeaa40f9018" target="_top" xlink:title="Custom module GUI window contents.">
<polygon fill="white" stroke="#666666" points="315.5,-232 143.5,-232 143.5,-200 315.5,-200 315.5,-232"/>
<text text-anchor="start" x="151.5" y="-218.5" font-family="Helvetica,sans-Serif" font-size="10.00">GEU::TreeSegmentationGUIAdapter</text>
<text text-anchor="middle" x="229.5" y="-206.5" font-family="Helvetica,sans-Serif" font-size="10.00">::renderGuiObject</text>
</a>
</g>
</g>
<!-- Node1&#45;&gt;Node6 -->
<g id="edge7_Node000001_Node000006" class="edge">
<title>Node1&#45;&gt;Node6</title>
<g id="a_edge7_Node000001_Node000006"><a xlink:title=" ">
<path fill="none" stroke="#63b8ff" d="M340.14,-199.7C332.31,-200.86 324.15,-202.07 315.97,-203.29"/>
<polygon fill="#63b8ff" stroke="#63b8ff" points="340.47,-203.19 349.85,-198.25 339.44,-196.26 340.47,-203.19"/>
</a>
</g>
</g>
<!-- Node7 -->
<g id="Node000007" class="node">
<title>Node7</title>
<g id="a_Node000007"><a xlink:href="../../db/d06/class_g_e_u_1_1_database_new_vuelo_popup.html#ac1b98a11d860c6c9fe497bdcaa689d79" target="_top" xlink:title="Renders the popup and its contents.">
<polygon fill="white" stroke="#666666" points="307.25,-182 151.75,-182 151.75,-150 307.25,-150 307.25,-182"/>
<text text-anchor="start" x="159.75" y="-168.5" font-family="Helvetica,sans-Serif" font-size="10.00">GEU::DatabaseNewVueloPopup</text>
<text text-anchor="middle" x="229.5" y="-156.5" font-family="Helvetica,sans-Serif" font-size="10.00">::renderPopup</text>
</a>
</g>
</g>
<!-- Node1&#45;&gt;Node7 -->
<g id="edge8_Node000001_Node000007" class="edge">
<title>Node1&#45;&gt;Node7</title>
<g id="a_edge8_Node000001_Node000007"><a xlink:title=" ">
<path fill="none" stroke="#63b8ff" d="M340.21,-182.31C329.7,-180.75 318.59,-179.1 307.65,-177.47"/>
<polygon fill="#63b8ff" stroke="#63b8ff" points="339.44,-185.74 349.85,-183.75 340.47,-178.81 339.44,-185.74"/>
</a>
</g>
</g>
<!-- Node8 -->
<g id="Node000008" class="node">
<title>Node8</title>
<g id="a_Node000008"><a xlink:href="../../df/d01/class_g_e_u_1_1_database_new_zona_popup.html#a12c7cda56d74fc9f5f7f35b32382040f" target="_top" xlink:title="Renders the popup and its contents.">
<polygon fill="white" stroke="#666666" points="305.38,-132 153.62,-132 153.62,-100 305.38,-100 305.38,-132"/>
<text text-anchor="start" x="161.62" y="-118.5" font-family="Helvetica,sans-Serif" font-size="10.00">GEU::DatabaseNewZonaPopup</text>
<text text-anchor="middle" x="229.5" y="-106.5" font-family="Helvetica,sans-Serif" font-size="10.00">::renderPopup</text>
</a>
</g>
</g>
<!-- Node1&#45;&gt;Node8 -->
<g id="edge9_Node000001_Node000008" class="edge">
<title>Node1&#45;&gt;Node8</title>
<g id="a_edge9_Node000001_Node000008"><a xlink:title=" ">
<path fill="none" stroke="#63b8ff" d="M365.86,-168.63C350.96,-159.17 332.83,-148.61 315.5,-141 308.32,-137.85 300.62,-134.96 292.91,-132.35"/>
<polygon fill="#63b8ff" stroke="#63b8ff" points="363.57,-171.32 373.86,-173.82 367.38,-165.45 363.57,-171.32"/>
</a>
</g>
</g>
<!-- Node9 -->
<g id="Node000009" class="node">
<title>Node9</title>
<g id="a_Node000009"><a xlink:href="../../d2/d05/class_g_e_u_1_1_database_new_dato_window.html#ae07f0a25c9ecb584624ce7bf67bc48cb" target="_top" xlink:title="Renders the window and contents.">
<polygon fill="white" stroke="#666666" points="308.38,-82 150.62,-82 150.62,-50 308.38,-50 308.38,-82"/>
<text text-anchor="start" x="158.62" y="-68.5" font-family="Helvetica,sans-Serif" font-size="10.00">GEU::DatabaseNewDatoWindow</text>
<text text-anchor="middle" x="229.5" y="-56.5" font-family="Helvetica,sans-Serif" font-size="10.00">::renderWindow</text>
</a>
</g>
</g>
<!-- Node1&#45;&gt;Node9 -->
<g id="edge10_Node000001_Node000009" class="edge">
<title>Node1&#45;&gt;Node9</title>
<g id="a_edge10_Node000001_Node000009"><a xlink:title=" ">
<path fill="none" stroke="#63b8ff" d="M383.24,-164.9C368.57,-142.2 344.45,-110.04 315.5,-91 310.49,-87.7 305.03,-84.83 299.38,-82.33"/>
<polygon fill="#63b8ff" stroke="#63b8ff" points="380.23,-166.68 388.5,-173.3 386.16,-162.96 380.23,-166.68"/>
</a>
</g>
</g>
<!-- Node10 -->
<g id="Node000010" class="node">
<title>Node10</title>
<g id="a_Node000010"><a xlink:href="../../d9/d01/class_g_e_u_1_1_picking_window.html#a56f55b34996a68d41418a2df8ea008db" target="_top" xlink:title="Renders the window and contents.">
<polygon fill="white" stroke="#666666" points="284.38,-32 174.62,-32 174.62,0 284.38,0 284.38,-32"/>
<text text-anchor="start" x="182.62" y="-18.5" font-family="Helvetica,sans-Serif" font-size="10.00">GEU::PickingWindow</text>
<text text-anchor="middle" x="229.5" y="-6.5" font-family="Helvetica,sans-Serif" font-size="10.00">::renderWindow</text>
</a>
</g>
</g>
<!-- Node1&#45;&gt;Node10 -->
<g id="edge11_Node000001_Node000010" class="edge">
<title>Node1&#45;&gt;Node10</title>
<g id="a_edge11_Node000001_Node000010"><a xlink:title=" ">
<path fill="none" stroke="#63b8ff" d="M390.68,-163.87C379.43,-130.15 355.62,-73.14 315.5,-41 306.62,-33.88 295.77,-28.79 284.83,-25.15"/>
<polygon fill="#63b8ff" stroke="#63b8ff" points="387.32,-164.84 393.69,-173.3 393.99,-162.71 387.32,-164.84"/>
</a>
</g>
</g>
<!-- Node3 -->
<g id="Node000003" class="node">
<title>Node3</title>
<g id="a_Node000003"><a xlink:href="../../db/d00/class_g_e_u_1_1_details_window.html#a6666ec761cc5cd8a57220823b8e7daa6" target="_top" xlink:title="Renders the window and contents.">
<polygon fill="white" stroke="#666666" points="107.5,-332 0,-332 0,-300 107.5,-300 107.5,-332"/>
<text text-anchor="start" x="8" y="-318.5" font-family="Helvetica,sans-Serif" font-size="10.00">GEU::DetailsWindow</text>
<text text-anchor="middle" x="53.75" y="-306.5" font-family="Helvetica,sans-Serif" font-size="10.00">::renderWindow</text>
</a>
</g>
</g>
<!-- Node2&#45;&gt;Node3 -->
<g id="edge2_Node000002_Node000003" class="edge">
<title>Node2&#45;&gt;Node3</title>
<g id="a_edge2_Node000002_Node000003"><a xlink:title=" ">
<path fill="none" stroke="#63b8ff" d="M160.85,-346.53C143.29,-341.48 124.63,-336.11 107.94,-331.31"/>
<polygon fill="#63b8ff" stroke="#63b8ff" points="159.58,-349.81 170.15,-349.21 161.51,-343.08 159.58,-349.81"/>
</a>
</g>
</g>
<!-- Node4&#45;&gt;Node3 -->
<g id="edge4_Node000004_Node000003" class="edge">
<title>Node4&#45;&gt;Node3</title>
<g id="a_edge4_Node000004_Node000003"><a xlink:title=" ">
<path fill="none" stroke="#63b8ff" d="M152.43,-316C137.4,-316 121.93,-316 107.87,-316"/>
<polygon fill="#63b8ff" stroke="#63b8ff" points="152.29,-319.5 162.29,-316 152.29,-312.5 152.29,-319.5"/>
</a>
</g>
</g>
<!-- Node5&#45;&gt;Node3 -->
<g id="edge6_Node000005_Node000003" class="edge">
<title>Node5&#45;&gt;Node3</title>
<g id="a_edge6_Node000005_Node000003"><a xlink:title=" ">
<path fill="none" stroke="#63b8ff" d="M160.85,-285.47C143.29,-290.52 124.63,-295.89 107.94,-300.69"/>
<polygon fill="#63b8ff" stroke="#63b8ff" points="161.51,-288.92 170.15,-282.79 159.58,-282.19 161.51,-288.92"/>
</a>
</g>
</g>
</g>
</svg>
