<?xml version="1.0" encoding="UTF-8" standalone="no"?>
<!DOCTYPE svg PUBLIC "-//W3C//DTD SVG 1.1//EN"
 "http://www.w3.org/Graphics/SVG/1.1/DTD/svg11.dtd">
<!-- Generated by graphviz version 10.0.1 (20240210.2158)
 -->
<!-- Title: GEU::GuiUtilities::CollapsingHeader Pages: 1 -->
<svg width="439pt" height="490pt"
 viewBox="0.00 0.00 439.25 490.00" xmlns="http://www.w3.org/2000/svg" xmlns:xlink="http://www.w3.org/1999/xlink">
<g id="graph0" class="graph" transform="scale(1 1) rotate(0) translate(4 486)">
<title>GEU::GuiUtilities::CollapsingHeader</title>
<!-- Node1 -->
<g id="Node000001" class="node">
<title>Node1</title>
<g id="a_Node000001"><a xlink:title=" ">
<polygon fill="#999999" stroke="#666666" points="431.25,-257 335,-257 335,-225 431.25,-225 431.25,-257"/>
<text text-anchor="start" x="343" y="-243.5" font-family="Helvetica,sans-Serif" font-size="10.00">GEU::GuiUtilities::</text>
<text text-anchor="middle" x="383.12" y="-231.5" font-family="Helvetica,sans-Serif" font-size="10.00">CollapsingHeader</text>
</a>
</g>
</g>
<!-- Node2 -->
<g id="Node000002" class="node">
<title>Node2</title>
<g id="a_Node000002"><a xlink:href="../../db/d00/class_g_e_u_1_1_details_window.html#ad35f61717358ebd11631e5b8c5ed9ff9" target="_top" xlink:title="Makes and handles basic enabled and POS/ROT/SCL edit controls.">
<polygon fill="white" stroke="#666666" points="296,-482 146.5,-482 146.5,-450 296,-450 296,-482"/>
<text text-anchor="start" x="154.5" y="-468.5" font-family="Helvetica,sans-Serif" font-size="10.00">GEU::DetailsWindow</text>
<text text-anchor="middle" x="221.25" y="-456.5" font-family="Helvetica,sans-Serif" font-size="10.00">::makeBasicTransformControls</text>
</a>
</g>
</g>
<!-- Node1&#45;&gt;Node2 -->
<g id="edge1_Node000001_Node000002" class="edge">
<title>Node1&#45;&gt;Node2</title>
<g id="a_edge1_Node000001_Node000002"><a xlink:title=" ">
<path fill="none" stroke="#63b8ff" d="M378.13,-268.57C370.48,-311.46 349.76,-394.1 299,-441 295.5,-444.23 291.58,-447.05 287.4,-449.5"/>
<polygon fill="#63b8ff" stroke="#63b8ff" points="381.56,-269.27 379.75,-258.84 374.66,-268.13 381.56,-269.27"/>
</a>
</g>
</g>
<!-- Node3 -->
<g id="Node000003" class="node">
<title>Node3</title>
<g id="a_Node000003"><a xlink:href="../../db/d00/class_g_e_u_1_1_details_window.html#aafcdb3e0ee9efe93917945b4b67ef977" target="_top" xlink:title="Renders inspector details for light items.">
<polygon fill="white" stroke="#666666" points="284,-432 158.5,-432 158.5,-400 284,-400 284,-432"/>
<text text-anchor="start" x="166.5" y="-418.5" font-family="Helvetica,sans-Serif" font-size="10.00">GEU::DetailsWindow</text>
<text text-anchor="middle" x="221.25" y="-406.5" font-family="Helvetica,sans-Serif" font-size="10.00">::makeLightItemInspector</text>
</a>
</g>
</g>
<!-- Node1&#45;&gt;Node3 -->
<g id="edge2_Node000001_Node000003" class="edge">
<title>Node1&#45;&gt;Node3</title>
<g id="a_edge2_Node000001_Node000003"><a xlink:title=" ">
<path fill="none" stroke="#63b8ff" d="M374.04,-267.95C362.63,-301.48 338.65,-358.29 299,-391 294.57,-394.66 289.59,-397.78 284.35,-400.46"/>
<polygon fill="#63b8ff" stroke="#63b8ff" points="377.32,-269.17 377.08,-258.58 370.66,-267 377.32,-269.17"/>
</a>
</g>
</g>
<!-- Node5 -->
<g id="Node000005" class="node">
<title>Node5</title>
<g id="a_Node000005"><a xlink:href="../../db/d00/class_g_e_u_1_1_details_window.html#addd0dc775ee807e26a5936815ad411b8" target="_top" xlink:title=" ">
<polygon fill="white" stroke="#666666" points="290.75,-382 151.75,-382 151.75,-350 290.75,-350 290.75,-382"/>
<text text-anchor="start" x="159.75" y="-368.5" font-family="Helvetica,sans-Serif" font-size="10.00">GEU::DetailsWindow</text>
<text text-anchor="middle" x="221.25" y="-356.5" font-family="Helvetica,sans-Serif" font-size="10.00">::makeMaterialItemInspector</text>
</a>
</g>
</g>
<!-- Node1&#45;&gt;Node5 -->
<g id="edge4_Node000001_Node000005" class="edge">
<title>Node1&#45;&gt;Node5</title>
<g id="a_edge4_Node000001_Node000005"><a xlink:title=" ">
<path fill="none" stroke="#63b8ff" d="M366.61,-266.9C351.85,-289.47 327.68,-321.55 299,-341 294.25,-344.23 289.04,-347.06 283.66,-349.54"/>
<polygon fill="#63b8ff" stroke="#63b8ff" points="369.5,-268.88 371.9,-258.56 363.59,-265.13 369.5,-268.88"/>
</a>
</g>
</g>
<!-- Node6 -->
<g id="Node000006" class="node">
<title>Node6</title>
<g id="a_Node000006"><a xlink:href="../../db/d00/class_g_e_u_1_1_details_window.html#afef856466732ea159773d087909d0fdf" target="_top" xlink:title="Renders inspector details for 3D model items.">
<polygon fill="white" stroke="#666666" points="286.62,-332 155.88,-332 155.88,-300 286.62,-300 286.62,-332"/>
<text text-anchor="start" x="163.88" y="-318.5" font-family="Helvetica,sans-Serif" font-size="10.00">GEU::DetailsWindow</text>
<text text-anchor="middle" x="221.25" y="-306.5" font-family="Helvetica,sans-Serif" font-size="10.00">::makeModelItemInspector</text>
</a>
</g>
</g>
<!-- Node1&#45;&gt;Node6 -->
<g id="edge6_Node000001_Node000006" class="edge">
<title>Node1&#45;&gt;Node6</title>
<g id="a_edge6_Node000001_Node000006"><a xlink:title=" ">
<path fill="none" stroke="#63b8ff" d="M348.5,-263.61C333.73,-272.9 315.93,-283.27 299,-291 292.24,-294.08 284.99,-296.96 277.75,-299.59"/>
<polygon fill="#63b8ff" stroke="#63b8ff" points="350.39,-266.55 356.91,-258.21 346.61,-260.66 350.39,-266.55"/>
</a>
</g>
</g>
<!-- Node7 -->
<g id="Node000007" class="node">
<title>Node7</title>
<g id="a_Node000007"><a xlink:href="../../db/d00/class_g_e_u_1_1_details_window.html#a9edcfff4507d107037e9f7500a3d6717" target="_top" xlink:title="Renders inspector details for point cloud items.">
<polygon fill="white" stroke="#666666" points="289.25,-282 153.25,-282 153.25,-250 289.25,-250 289.25,-282"/>
<text text-anchor="start" x="161.25" y="-268.5" font-family="Helvetica,sans-Serif" font-size="10.00">GEU::DetailsWindow</text>
<text text-anchor="middle" x="221.25" y="-256.5" font-family="Helvetica,sans-Serif" font-size="10.00">::makePCloudItemInspector</text>
</a>
</g>
</g>
<!-- Node1&#45;&gt;Node7 -->
<g id="edge8_Node000001_Node000007" class="edge">
<title>Node1&#45;&gt;Node7</title>
<g id="a_edge8_Node000001_Node000007"><a xlink:title=" ">
<path fill="none" stroke="#63b8ff" d="M323.41,-250.18C312.45,-251.89 300.92,-253.7 289.72,-255.45"/>
<polygon fill="#63b8ff" stroke="#63b8ff" points="323.76,-253.67 333.09,-248.67 322.67,-246.75 323.76,-253.67"/>
</a>
</g>
</g>
<!-- Node8 -->
<g id="Node000008" class="node">
<title>Node8</title>
<g id="a_Node000008"><a xlink:href="../../db/d06/class_g_e_u_1_1_database_new_vuelo_popup.html#ac1b98a11d860c6c9fe497bdcaa689d79" target="_top" xlink:title="Renders the popup and its contents.">
<polygon fill="white" stroke="#666666" points="299,-232 143.5,-232 143.5,-200 299,-200 299,-232"/>
<text text-anchor="start" x="151.5" y="-218.5" font-family="Helvetica,sans-Serif" font-size="10.00">GEU::DatabaseNewVueloPopup</text>
<text text-anchor="middle" x="221.25" y="-206.5" font-family="Helvetica,sans-Serif" font-size="10.00">::renderPopup</text>
</a>
</g>
</g>
<!-- Node1&#45;&gt;Node8 -->
<g id="edge10_Node000001_Node000008" class="edge">
<title>Node1&#45;&gt;Node8</title>
<g id="a_edge10_Node000001_Node000008"><a xlink:title=" ">
<path fill="none" stroke="#63b8ff" d="M323.34,-231.81C315.49,-230.58 307.35,-229.31 299.25,-228.04"/>
<polygon fill="#63b8ff" stroke="#63b8ff" points="322.67,-235.25 333.09,-233.33 323.76,-228.33 322.67,-235.25"/>
</a>
</g>
</g>
<!-- Node9 -->
<g id="Node000009" class="node">
<title>Node9</title>
<g id="a_Node000009"><a xlink:href="../../da/d01/class_g_e_u_1_1_inspector_window.html#a63b0402d61dd34944da9280a89fa9f74" target="_top" xlink:title="Renders the window and contents.">
<polygon fill="white" stroke="#666666" points="279.88,-182 162.62,-182 162.62,-150 279.88,-150 279.88,-182"/>
<text text-anchor="start" x="170.62" y="-168.5" font-family="Helvetica,sans-Serif" font-size="10.00">GEU::InspectorWindow</text>
<text text-anchor="middle" x="221.25" y="-156.5" font-family="Helvetica,sans-Serif" font-size="10.00">::renderWindow</text>
</a>
</g>
</g>
<!-- Node1&#45;&gt;Node9 -->
<g id="edge11_Node000001_Node000009" class="edge">
<title>Node1&#45;&gt;Node9</title>
<g id="a_edge11_Node000001_Node000009"><a xlink:title=" ">
<path fill="none" stroke="#63b8ff" d="M348.5,-218.39C333.73,-209.1 315.93,-198.73 299,-191 292.24,-187.92 284.99,-185.04 277.75,-182.41"/>
<polygon fill="#63b8ff" stroke="#63b8ff" points="346.61,-221.34 356.91,-223.79 350.39,-215.45 346.61,-221.34"/>
</a>
</g>
</g>
<!-- Node10 -->
<g id="Node000010" class="node">
<title>Node10</title>
<g id="a_Node000010"><a xlink:href="../../d9/d01/class_g_e_u_1_1_picking_window.html#a56f55b34996a68d41418a2df8ea008db" target="_top" xlink:title="Renders the window and contents.">
<polygon fill="white" stroke="#666666" points="276.12,-132 166.38,-132 166.38,-100 276.12,-100 276.12,-132"/>
<text text-anchor="start" x="174.38" y="-118.5" font-family="Helvetica,sans-Serif" font-size="10.00">GEU::PickingWindow</text>
<text text-anchor="middle" x="221.25" y="-106.5" font-family="Helvetica,sans-Serif" font-size="10.00">::renderWindow</text>
</a>
</g>
</g>
<!-- Node1&#45;&gt;Node10 -->
<g id="edge12_Node000001_Node000010" class="edge">
<title>Node1&#45;&gt;Node10</title>
<g id="a_edge12_Node000001_Node000010"><a xlink:title=" ">
<path fill="none" stroke="#63b8ff" d="M366.61,-215.1C351.85,-192.53 327.68,-160.45 299,-141 292.16,-136.36 284.39,-132.53 276.49,-129.38"/>
<polygon fill="#63b8ff" stroke="#63b8ff" points="363.59,-216.87 371.9,-223.44 369.5,-213.12 363.59,-216.87"/>
</a>
</g>
</g>
<!-- Node11 -->
<g id="Node000011" class="node">
<title>Node11</title>
<g id="a_Node000011"><a xlink:href="../../da/d04/class_g_e_u_1_1_settings_window.html#a7af9db6d6ad56c4c4fc336251024472f" target="_top" xlink:title="Renders the window and contents.">
<polygon fill="white" stroke="#666666" points="278,-82 164.5,-82 164.5,-50 278,-50 278,-82"/>
<text text-anchor="start" x="172.5" y="-68.5" font-family="Helvetica,sans-Serif" font-size="10.00">GEU::SettingsWindow</text>
<text text-anchor="middle" x="221.25" y="-56.5" font-family="Helvetica,sans-Serif" font-size="10.00">::renderWindow</text>
</a>
</g>
</g>
<!-- Node1&#45;&gt;Node11 -->
<g id="edge13_Node000001_Node000011" class="edge">
<title>Node1&#45;&gt;Node11</title>
<g id="a_edge13_Node000001_Node000011"><a xlink:title=" ">
<path fill="none" stroke="#63b8ff" d="M374.04,-214.05C362.63,-180.52 338.65,-123.71 299,-91 292.84,-85.92 285.62,-81.86 278.11,-78.62"/>
<polygon fill="#63b8ff" stroke="#63b8ff" points="370.66,-215 377.08,-223.42 377.32,-212.83 370.66,-215"/>
</a>
</g>
</g>
<!-- Node12 -->
<g id="Node000012" class="node">
<title>Node12</title>
<g id="a_Node000012"><a xlink:href="../../d0/d07/class_g_e_u_1_1_stats_window.html#a3f37b7ff110985d1f88f9d741f70bf7d" target="_top" xlink:title="Renders the window and contents.">
<polygon fill="white" stroke="#666666" points="288.12,-32 154.38,-32 154.38,0 288.12,0 288.12,-32"/>
<text text-anchor="start" x="162.38" y="-18.5" font-family="Helvetica,sans-Serif" font-size="10.00">GEU::StatsWindow::render</text>
<text text-anchor="middle" x="221.25" y="-6.5" font-family="Helvetica,sans-Serif" font-size="10.00">Window</text>
</a>
</g>
</g>
<!-- Node1&#45;&gt;Node12 -->
<g id="edge14_Node000001_Node000012" class="edge">
<title>Node1&#45;&gt;Node12</title>
<g id="a_edge14_Node000001_Node000012"><a xlink:title=" ">
<path fill="none" stroke="#63b8ff" d="M378.13,-213.43C370.48,-170.54 349.76,-87.9 299,-41 295.5,-37.77 291.58,-34.95 287.4,-32.5"/>
<polygon fill="#63b8ff" stroke="#63b8ff" points="374.66,-213.87 379.75,-223.16 381.56,-212.73 374.66,-213.87"/>
</a>
</g>
</g>
<!-- Node4 -->
<g id="Node000004" class="node">
<title>Node4</title>
<g id="a_Node000004"><a xlink:href="../../db/d00/class_g_e_u_1_1_details_window.html#a6666ec761cc5cd8a57220823b8e7daa6" target="_top" xlink:title="Renders the window and contents.">
<polygon fill="white" stroke="#666666" points="107.5,-357 0,-357 0,-325 107.5,-325 107.5,-357"/>
<text text-anchor="start" x="8" y="-343.5" font-family="Helvetica,sans-Serif" font-size="10.00">GEU::DetailsWindow</text>
<text text-anchor="middle" x="53.75" y="-331.5" font-family="Helvetica,sans-Serif" font-size="10.00">::renderWindow</text>
</a>
</g>
</g>
<!-- Node3&#45;&gt;Node4 -->
<g id="edge3_Node000003_Node000004" class="edge">
<title>Node3&#45;&gt;Node4</title>
<g id="a_edge3_Node000003_Node000004"><a xlink:title=" ">
<path fill="none" stroke="#63b8ff" d="M154.54,-395.56C150.78,-394.09 147.07,-392.57 143.5,-391 121.48,-381.33 97.81,-367.82 80.46,-357.28"/>
<polygon fill="#63b8ff" stroke="#63b8ff" points="153.23,-398.81 163.83,-399.02 155.68,-392.25 153.23,-398.81"/>
</a>
</g>
</g>
<!-- Node5&#45;&gt;Node4 -->
<g id="edge5_Node000005_Node000004" class="edge">
<title>Node5&#45;&gt;Node4</title>
<g id="a_edge5_Node000005_Node000004"><a xlink:title=" ">
<path fill="none" stroke="#63b8ff" d="M140.15,-353.9C129.2,-352.25 118.2,-350.58 107.89,-349.03"/>
<polygon fill="#63b8ff" stroke="#63b8ff" points="139.59,-357.36 150,-355.39 140.64,-350.43 139.59,-357.36"/>
</a>
</g>
</g>
<!-- Node6&#45;&gt;Node4 -->
<g id="edge7_Node000006_Node000004" class="edge">
<title>Node6&#45;&gt;Node4</title>
<g id="a_edge7_Node000006_Node000004"><a xlink:title=" ">
<path fill="none" stroke="#63b8ff" d="M144.5,-327.44C132.1,-329.32 119.5,-331.22 107.8,-332.99"/>
<polygon fill="#63b8ff" stroke="#63b8ff" points="144.93,-330.92 154.29,-325.96 143.88,-324 144.93,-330.92"/>
</a>
</g>
</g>
<!-- Node7&#45;&gt;Node4 -->
<g id="edge9_Node000007_Node000004" class="edge">
<title>Node7&#45;&gt;Node4</title>
<g id="a_edge9_Node000007_Node000004"><a xlink:title=" ">
<path fill="none" stroke="#63b8ff" d="M154.54,-286.44C150.78,-287.91 147.07,-289.43 143.5,-291 121.48,-300.67 97.81,-314.18 80.46,-324.72"/>
<polygon fill="#63b8ff" stroke="#63b8ff" points="155.68,-289.75 163.83,-282.98 153.23,-283.19 155.68,-289.75"/>
</a>
</g>
</g>
</g>
</svg>
