<?xml version="1.0" encoding="UTF-8" standalone="no"?>
<!DOCTYPE svg PUBLIC "-//W3C//DTD SVG 1.1//EN"
 "http://www.w3.org/Graphics/SVG/1.1/DTD/svg11.dtd">
<!-- Generated by graphviz version 10.0.1 (20240210.2158)
 -->
<!-- Title: GEU::InfoPopup::renderPopup Pages: 1 -->
<svg width="287pt" height="58pt"
 viewBox="0.00 0.00 286.75 58.00" xmlns="http://www.w3.org/2000/svg" xmlns:xlink="http://www.w3.org/1999/xlink">
<g id="graph0" class="graph" transform="scale(1 1) rotate(0) translate(4 54)">
<title>GEU::InfoPopup::renderPopup</title>
<!-- Node1 -->
<g id="Node000001" class="node">
<title>Node1</title>
<g id="a_Node000001"><a xlink:title="Renders the popup and its contents.">
<polygon fill="#999999" stroke="#666666" points="146.5,-26 0,-26 0,-6 146.5,-6 146.5,-26"/>
<text text-anchor="middle" x="73.25" y="-12.5" font-family="Helvetica,sans-Serif" font-size="10.00">GEU::InfoPopup::renderPopup</text>
</a>
</g>
</g>
<!-- Node2 -->
<g id="Node000002" class="node">
<title>Node2</title>
<g id="a_Node000002"><a xlink:href="../../d5/d03/a00631.html#a4a4cc2d3f5e9444384aa7e7eb062dbf0" target="_top" xlink:title=" ">
<polygon fill="white" stroke="#666666" points="278.75,-32 182.5,-32 182.5,0 278.75,0 278.75,-32"/>
<text text-anchor="start" x="190.5" y="-18.5" font-family="Helvetica,sans-Serif" font-size="10.00">GEU::GuiUtilities::</text>
<text text-anchor="middle" x="230.62" y="-6.5" font-family="Helvetica,sans-Serif" font-size="10.00">makeButton</text>
</a>
</g>
</g>
<!-- Node1&#45;&gt;Node2 -->
<g id="edge1_Node000001_Node000002" class="edge">
<title>Node1&#45;&gt;Node2</title>
<g id="a_edge1_Node000001_Node000002"><a xlink:title=" ">
<path fill="none" stroke="#63b8ff" d="M146.93,-16C155,-16 163.14,-16 171,-16"/>
<polygon fill="#63b8ff" stroke="#63b8ff" points="170.76,-19.5 180.76,-16 170.76,-12.5 170.76,-19.5"/>
</a>
</g>
</g>
<!-- Node2&#45;&gt;Node2 -->
<g id="edge2_Node000002_Node000002" class="edge">
<title>Node2&#45;&gt;Node2</title>
<g id="a_edge2_Node000002_Node000002"><a xlink:title=" ">
<path fill="none" stroke="#63b8ff" d="M202.53,-32.44C197.28,-41.58 206.65,-50 230.62,-50 243.74,-50 252.48,-47.48 256.85,-43.71"/>
<polygon fill="#63b8ff" stroke="#63b8ff" points="260.29,-44.37 258.47,-33.94 253.38,-43.23 260.29,-44.37"/>
</a>
</g>
</g>
</g>
</svg>
