<?xml version="1.0" encoding="UTF-8" standalone="no"?>
<!DOCTYPE svg PUBLIC "-//W3C//DTD SVG 1.1//EN"
 "http://www.w3.org/Graphics/SVG/1.1/DTD/svg11.dtd">
<!-- Generated by graphviz version 10.0.1 (20240210.2158)
 -->
<!-- Title: GEU::FileManager::loadPointCloud Pages: 1 -->
<svg width="501pt" height="278pt"
 viewBox="0.00 0.00 500.75 278.00" xmlns="http://www.w3.org/2000/svg" xmlns:xlink="http://www.w3.org/1999/xlink">
<g id="graph0" class="graph" transform="scale(1 1) rotate(0) translate(4 274)">
<title>GEU::FileManager::loadPointCloud</title>
<!-- Node1 -->
<g id="Node000001" class="node">
<title>Node1</title>
<g id="a_Node000001"><a xlink:title="Carga la nube de puntos especificada.">
<polygon fill="#999999" stroke="#666666" points="492.75,-148 350,-148 350,-116 492.75,-116 492.75,-148"/>
<text text-anchor="start" x="358" y="-134.5" font-family="Helvetica,sans-Serif" font-size="10.00">GEU::FileManager::loadPoint</text>
<text text-anchor="middle" x="421.38" y="-122.5" font-family="Helvetica,sans-Serif" font-size="10.00">Cloud</text>
</a>
</g>
</g>
<!-- Node2 -->
<g id="Node000002" class="node">
<title>Node2</title>
<g id="a_Node000002"><a xlink:href="../../d3/d00/a02069.html#a8cfce2a37af19646fd0c06ee3fb077ca" target="_top" xlink:title=" ">
<polygon fill="white" stroke="#666666" points="311,-270 199.75,-270 199.75,-238 311,-238 311,-270"/>
<text text-anchor="start" x="207.75" y="-256.5" font-family="Helvetica,sans-Serif" font-size="10.00">GEU::ImageCloudProj</text>
<text text-anchor="middle" x="255.38" y="-244.5" font-family="Helvetica,sans-Serif" font-size="10.00">::applyStructureMask</text>
</a>
</g>
</g>
<!-- Node1&#45;&gt;Node2 -->
<g id="edge1_Node000001_Node000002" class="edge">
<title>Node1&#45;&gt;Node2</title>
<g id="a_edge1_Node000001_Node000002"><a xlink:title=" ">
<path fill="none" stroke="#63b8ff" d="M398.13,-156.41C377.8,-177.66 346.09,-208.23 314,-229 309.24,-232.08 304.03,-234.94 298.76,-237.54"/>
<polygon fill="#63b8ff" stroke="#63b8ff" points="400.52,-158.99 404.82,-149.31 395.42,-154.19 400.52,-158.99"/>
</a>
</g>
</g>
<!-- Node3 -->
<g id="Node000003" class="node">
<title>Node3</title>
<g id="a_Node000003"><a xlink:href="../../d3/d00/a02069.html#a1931d245c0168a9e7866bc8dd7904a07" target="_top" xlink:title=" ">
<polygon fill="white" stroke="#666666" points="313.25,-220 197.5,-220 197.5,-188 313.25,-188 313.25,-220"/>
<text text-anchor="start" x="205.5" y="-206.5" font-family="Helvetica,sans-Serif" font-size="10.00">GEU::ImageCloudProj</text>
<text text-anchor="middle" x="255.38" y="-194.5" font-family="Helvetica,sans-Serif" font-size="10.00">::applyVegetationMask</text>
</a>
</g>
</g>
<!-- Node1&#45;&gt;Node3 -->
<g id="edge2_Node000001_Node000003" class="edge">
<title>Node1&#45;&gt;Node3</title>
<g id="a_edge2_Node000001_Node000003"><a xlink:title=" ">
<path fill="none" stroke="#63b8ff" d="M373.01,-153.01C354.6,-161.15 333.33,-170.54 314,-179 307.61,-181.8 300.81,-184.76 294.21,-187.63"/>
<polygon fill="#63b8ff" stroke="#63b8ff" points="374.37,-156.24 382.1,-148.99 371.53,-149.83 374.37,-156.24"/>
</a>
</g>
</g>
<!-- Node4 -->
<g id="Node000004" class="node">
<title>Node4</title>
<g id="a_Node000004"><a xlink:href="../../dd/d00/a01893.html#adcf40e0dec97cfb01f7382cf7a330926" target="_top" xlink:title=" ">
<polygon fill="white" stroke="#666666" points="309.12,-170 201.62,-170 201.62,-138 309.12,-138 309.12,-170"/>
<text text-anchor="start" x="209.62" y="-156.5" font-family="Helvetica,sans-Serif" font-size="10.00">GEU::InputManager::</text>
<text text-anchor="middle" x="255.38" y="-144.5" font-family="Helvetica,sans-Serif" font-size="10.00">dropCallback</text>
</a>
</g>
</g>
<!-- Node1&#45;&gt;Node4 -->
<g id="edge3_Node000001_Node000004" class="edge">
<title>Node1&#45;&gt;Node4</title>
<g id="a_edge3_Node000001_Node000004"><a xlink:title=" ">
<path fill="none" stroke="#63b8ff" d="M338.7,-142.96C328.77,-144.29 318.84,-145.62 309.48,-146.88"/>
<polygon fill="#63b8ff" stroke="#63b8ff" points="338.93,-146.46 348.37,-141.66 338,-139.52 338.93,-146.46"/>
</a>
</g>
</g>
<!-- Node5 -->
<g id="Node000005" class="node">
<title>Node5</title>
<g id="a_Node000005"><a xlink:href="../../d9/d03/a01469.html#af7ebc89aa431e3a9e86bb1424b819d47" target="_top" xlink:title="Draws ImGUI elements.">
<polygon fill="white" stroke="#666666" points="301.62,-120 209.12,-120 209.12,-100 301.62,-100 301.62,-120"/>
<text text-anchor="middle" x="255.38" y="-106.5" font-family="Helvetica,sans-Serif" font-size="10.00">GEU::GUI::render</text>
</a>
</g>
</g>
<!-- Node1&#45;&gt;Node5 -->
<g id="edge4_Node000001_Node000005" class="edge">
<title>Node1&#45;&gt;Node5</title>
<g id="a_edge4_Node000001_Node000005"><a xlink:title=" ">
<path fill="none" stroke="#63b8ff" d="M338.71,-121.05C325.98,-119.34 313.23,-117.63 301.7,-116.08"/>
<polygon fill="#63b8ff" stroke="#63b8ff" points="338,-124.48 348.37,-122.34 338.93,-117.54 338,-124.48"/>
</a>
</g>
</g>
<!-- Node6 -->
<g id="Node000006" class="node">
<title>Node6</title>
<g id="a_Node000006"><a xlink:href="../../db/d06/a01497.html#a63b0402d61dd34944da9280a89fa9f74" target="_top" xlink:title="Renders the window and contents.">
<polygon fill="white" stroke="#666666" points="314,-82 196.75,-82 196.75,-50 314,-50 314,-82"/>
<text text-anchor="start" x="204.75" y="-68.5" font-family="Helvetica,sans-Serif" font-size="10.00">GEU::InspectorWindow</text>
<text text-anchor="middle" x="255.38" y="-56.5" font-family="Helvetica,sans-Serif" font-size="10.00">::renderWindow</text>
</a>
</g>
</g>
<!-- Node1&#45;&gt;Node6 -->
<g id="edge5_Node000001_Node000006" class="edge">
<title>Node1&#45;&gt;Node6</title>
<g id="a_edge5_Node000001_Node000006"><a xlink:title=" ">
<path fill="none" stroke="#63b8ff" d="M368.75,-111.22C345.63,-101.92 318.76,-91.11 297.1,-82.39"/>
<polygon fill="#63b8ff" stroke="#63b8ff" points="367.43,-114.46 378.01,-114.95 370.04,-107.97 367.43,-114.46"/>
</a>
</g>
</g>
<!-- Node7 -->
<g id="Node000007" class="node">
<title>Node7</title>
<g id="a_Node000007"><a xlink:href="../../d3/d00/a02069.html#a9113b9f785ba6dd50b0af47a3a5a1ecb" target="_top" xlink:title=" ">
<polygon fill="white" stroke="#666666" points="311,-32 199.75,-32 199.75,0 311,0 311,-32"/>
<text text-anchor="start" x="207.75" y="-18.5" font-family="Helvetica,sans-Serif" font-size="10.00">GEU::ImageCloudProj</text>
<text text-anchor="middle" x="255.38" y="-6.5" font-family="Helvetica,sans-Serif" font-size="10.00">::validation</text>
</a>
</g>
</g>
<!-- Node1&#45;&gt;Node7 -->
<g id="edge6_Node000001_Node000007" class="edge">
<title>Node1&#45;&gt;Node7</title>
<g id="a_edge6_Node000001_Node000007"><a xlink:title=" ">
<path fill="none" stroke="#63b8ff" d="M396.15,-107.55C375.6,-87.78 344.66,-60.16 314,-41 309.1,-37.94 303.76,-35.07 298.37,-32.45"/>
<polygon fill="#63b8ff" stroke="#63b8ff" points="393.61,-109.96 403.21,-114.45 398.5,-104.95 393.61,-109.96"/>
</a>
</g>
</g>
<!-- Node8 -->
<g id="Node000008" class="node">
<title>Node8</title>
<g id="a_Node000008"><a xlink:href="../../db/d05/a02089.html#a2918ca118794a47873dbc1df297d68d7" target="_top" xlink:title="Custom module GUI window contents.">
<polygon fill="white" stroke="#666666" points="160.75,-32 0,-32 0,0 160.75,0 160.75,-32"/>
<text text-anchor="start" x="8" y="-18.5" font-family="Helvetica,sans-Serif" font-size="10.00">GEU::ReconstruccionGUIAdapter</text>
<text text-anchor="middle" x="80.38" y="-6.5" font-family="Helvetica,sans-Serif" font-size="10.00">::renderGuiObject</text>
</a>
</g>
</g>
<!-- Node7&#45;&gt;Node8 -->
<g id="edge7_Node000007_Node000008" class="edge">
<title>Node7&#45;&gt;Node8</title>
<g id="a_edge7_Node000007_Node000008"><a xlink:title=" ">
<path fill="none" stroke="#63b8ff" d="M188.17,-16C179.3,-16 170.12,-16 161.04,-16"/>
<polygon fill="#63b8ff" stroke="#63b8ff" points="188.12,-19.5 198.12,-16 188.12,-12.5 188.12,-19.5"/>
</a>
</g>
</g>
</g>
</svg>
