<?xml version="1.0" encoding="UTF-8" standalone="no"?>
<!DOCTYPE svg PUBLIC "-//W3C//DTD SVG 1.1//EN"
 "http://www.w3.org/Graphics/SVG/1.1/DTD/svg11.dtd">
<!-- Generated by graphviz version 10.0.1 (20240210.2158)
 -->
<!-- Title: GEU::PointCloud::pickMeshletsArea Pages: 1 -->
<svg width="386pt" height="228pt"
 viewBox="0.00 0.00 385.75 228.00" xmlns="http://www.w3.org/2000/svg" xmlns:xlink="http://www.w3.org/1999/xlink">

<svg id="main" version="1.1" xmlns="http://www.w3.org/2000/svg" xmlns:xlink="http://www.w3.org/1999/xlink" xml:space="preserve" onload="init(evt)">
<style type="text/css"><![CDATA[
.node, .edge {opacity: 0.7;}
.node.selected, .edge.selected {opacity: 1;}
.edge:hover path { stroke: red; }
.edge:hover polygon { stroke: red; fill: red; }
]]></style>
<script type="application/ecmascript" xlink:href="../../svg.min.js"/>
<svg id="graph" class="graph">
<g id="graph0" class="graph" transform="scale(1 1) rotate(0) translate(4 224)">
<title>GEU::PointCloud::pickMeshletsArea</title>
<!-- Node1 -->
<g id="Node000001" class="node">
<title>Node1</title>
<g id="a_Node000001"><a xlink:title=" ">
<polygon fill="#999999" stroke="#666666" points="174.25,-126 0,-126 0,-106 174.25,-106 174.25,-126"/>
<text text-anchor="middle" x="87.12" y="-112.5" font-family="Helvetica,sans-Serif" font-size="10.00">GEU::PointCloud::pickMeshletsArea</text>
</a>
</g>
</g>
<!-- Node2 -->
<g id="Node000002" class="node">
<title>Node2</title>
<g id="a_Node000002"><a xlink:href="../../d0/d81/namespace_g_e_u_1_1_operators2_d.html#a831379f52f30464a7858df166cf74e42" target="_top" xlink:title=" ">
<polygon fill="white" stroke="#666666" points="377.75,-220 210.25,-220 210.25,-188 377.75,-188 377.75,-220"/>
<text text-anchor="start" x="218.25" y="-206.5" font-family="Helvetica,sans-Serif" font-size="10.00">GEU::Operators2D::checkAABBox</text>
<text text-anchor="middle" x="294" y="-194.5" font-family="Helvetica,sans-Serif" font-size="10.00">ToAABBox</text>
</a>
</g>
</g>
<!-- Node1&#45;&gt;Node2 -->
<g id="edge1_Node000001_Node000002" class="edge">
<title>Node1&#45;&gt;Node2</title>
<g id="a_edge1_Node000001_Node000002"><a xlink:title=" ">
<path fill="none" stroke="#63b8ff" d="M105.85,-126.45C129.18,-139.91 171.77,-163.42 210.25,-179 214.36,-180.66 218.62,-182.28 222.94,-183.83"/>
<polygon fill="#63b8ff" stroke="#63b8ff" points="221.75,-187.12 232.34,-187.06 224.02,-180.5 221.75,-187.12"/>
</a>
</g>
</g>
<!-- Node3 -->
<g id="Node000003" class="node">
<title>Node3</title>
<g id="a_Node000003"><a xlink:href="../../d5/d5a/class_g_e_u_1_1_scene.html#a32e6f62d221dd01bac85a6e4201d9418" target="_top" xlink:title=" ">
<polygon fill="white" stroke="#666666" points="369.12,-170 218.88,-170 218.88,-150 369.12,-150 369.12,-170"/>
<text text-anchor="middle" x="294" y="-156.5" font-family="Helvetica,sans-Serif" font-size="10.00">GEU::Scene::getActiveCamera</text>
</a>
</g>
</g>
<!-- Node1&#45;&gt;Node3 -->
<g id="edge2_Node000001_Node000003" class="edge">
<title>Node1&#45;&gt;Node3</title>
<g id="a_edge2_Node000001_Node000003"><a xlink:title=" ">
<path fill="none" stroke="#63b8ff" d="M136.94,-126.48C165.82,-132.69 202.62,-140.59 233.23,-147.16"/>
<polygon fill="#63b8ff" stroke="#63b8ff" points="232.22,-150.53 242.73,-149.2 233.69,-143.68 232.22,-150.53"/>
</a>
</g>
</g>
<!-- Node4 -->
<g id="Node000004" class="node">
<title>Node4</title>
<g id="a_Node000004"><a xlink:href="../../de/dac/class_g_e_u_1_1_renderer.html#af5f4307b5eba7c09888765c183a75213" target="_top" xlink:title=" ">
<polygon fill="white" stroke="#666666" points="357.88,-132 230.12,-132 230.12,-100 357.88,-100 357.88,-132"/>
<text text-anchor="start" x="238.12" y="-118.5" font-family="Helvetica,sans-Serif" font-size="10.00">GEU::Renderer::getActive</text>
<text text-anchor="middle" x="294" y="-106.5" font-family="Helvetica,sans-Serif" font-size="10.00">Scene</text>
</a>
</g>
</g>
<!-- Node1&#45;&gt;Node4 -->
<g id="edge3_Node000001_Node000004" class="edge">
<title>Node1&#45;&gt;Node4</title>
<g id="a_edge3_Node000001_Node000004"><a xlink:title=" ">
<path fill="none" stroke="#63b8ff" d="M174.71,-116C189.28,-116 204.28,-116 218.5,-116"/>
<polygon fill="#63b8ff" stroke="#63b8ff" points="218.2,-119.5 228.2,-116 218.2,-112.5 218.2,-119.5"/>
</a>
</g>
</g>
<!-- Node5 -->
<g id="Node000005" class="node">
<title>Node5</title>
<g id="a_Node000005"><a xlink:href="../../d9/dad/class_g_e_u_1_1_input_manager.html#af2ea72a4bd53eb6f69a5c873e4c22017" target="_top" xlink:title=" ">
<polygon fill="white" stroke="#666666" points="347.75,-82 240.25,-82 240.25,-50 347.75,-50 347.75,-82"/>
<text text-anchor="start" x="248.25" y="-68.5" font-family="Helvetica,sans-Serif" font-size="10.00">GEU::InputManager::</text>
<text text-anchor="middle" x="294" y="-56.5" font-family="Helvetica,sans-Serif" font-size="10.00">getApplicationState</text>
</a>
</g>
</g>
<!-- Node1&#45;&gt;Node5 -->
<g id="edge4_Node000001_Node000005" class="edge">
<title>Node1&#45;&gt;Node5</title>
<g id="a_edge4_Node000001_Node000005"><a xlink:title=" ">
<path fill="none" stroke="#63b8ff" d="M131.07,-105.52C159.41,-98.6 197.05,-89.42 228.9,-81.64"/>
<polygon fill="#63b8ff" stroke="#63b8ff" points="229.55,-85.09 238.43,-79.32 227.89,-78.29 229.55,-85.09"/>
</a>
</g>
</g>
<!-- Node6 -->
<g id="Node000006" class="node">
<title>Node6</title>
<g id="a_Node000006"><a xlink:href="../../d1/df9/class_g_e_u_1_1_singleton.html#a47c7e7c2110f4cc59c9ff1f5594c366e" target="_top" xlink:title=" ">
<polygon fill="white" stroke="#666666" points="359.75,-32 228.25,-32 228.25,0 359.75,0 359.75,-32"/>
<text text-anchor="start" x="236.25" y="-18.5" font-family="Helvetica,sans-Serif" font-size="10.00">GEU::Singleton&lt; Renderer</text>
<text text-anchor="middle" x="294" y="-6.5" font-family="Helvetica,sans-Serif" font-size="10.00"> &gt;::getInstance</text>
</a>
</g>
</g>
<!-- Node1&#45;&gt;Node6 -->
<g id="edge5_Node000001_Node000006" class="edge">
<title>Node1&#45;&gt;Node6</title>
<g id="a_edge5_Node000001_Node000006"><a xlink:title=" ">
<path fill="none" stroke="#63b8ff" d="M102.12,-105.73C124.15,-89.96 168.71,-59.65 210.25,-41 213.96,-39.33 217.81,-37.74 221.73,-36.22"/>
<polygon fill="#63b8ff" stroke="#63b8ff" points="222.61,-39.63 230.8,-32.91 220.21,-33.05 222.61,-39.63"/>
</a>
</g>
</g>
</g>
</svg>
</svg>

<style type='text/css'>
<![CDATA[
[data-mouse-over-selected='false'] { opacity: 0.7; }
[data-mouse-over-selected='true']  { opacity: 1.0; }
]]>
</style>
<script type="application/ecmascript"><![CDATA[
document.addEventListener('DOMContentLoaded', (event) => {
  highlightEdges();
  highlightAdjacentNodes();
});
]]></script>
</svg>
