<?xml version="1.0" encoding="UTF-8" standalone="no"?>
<!DOCTYPE svg PUBLIC "-//W3C//DTD SVG 1.1//EN"
 "http://www.w3.org/Graphics/SVG/1.1/DTD/svg11.dtd">
<!-- Generated by graphviz version 10.0.1 (20240210.2158)
 -->
<!-- Title: GEU::PointCloud::getPointsPosition Pages: 1 -->
<svg width="641pt" height="208pt"
 viewBox="0.00 0.00 641.25 208.00" xmlns="http://www.w3.org/2000/svg" xmlns:xlink="http://www.w3.org/1999/xlink">
<g id="graph0" class="graph" transform="scale(1 1) rotate(0) translate(4 204)">
<title>GEU::PointCloud::getPointsPosition</title>
<!-- Node1 -->
<g id="Node000001" class="node">
<title>Node1</title>
<g id="a_Node000001"><a xlink:title=" ">
<polygon fill="#999999" stroke="#666666" points="633.25,-107 495.75,-107 495.75,-75 633.25,-75 633.25,-107"/>
<text text-anchor="start" x="503.75" y="-93.5" font-family="Helvetica,sans-Serif" font-size="10.00">GEU::PointCloud::getPoints</text>
<text text-anchor="middle" x="564.5" y="-81.5" font-family="Helvetica,sans-Serif" font-size="10.00">Position</text>
</a>
</g>
</g>
<!-- Node2 -->
<g id="Node000002" class="node">
<title>Node2</title>
<g id="a_Node000002"><a xlink:href="../../d4/d3f/class_normales_g_u_i_adapter.html#a5f2b290d502274f01fc3e9bdadfca50e" target="_top" xlink:title=" ">
<polygon fill="white" stroke="#666666" points="441.38,-182 333.88,-182 333.88,-150 441.38,-150 441.38,-182"/>
<text text-anchor="start" x="341.88" y="-168.5" font-family="Helvetica,sans-Serif" font-size="10.00">NormalesGUIAdapter</text>
<text text-anchor="middle" x="387.62" y="-156.5" font-family="Helvetica,sans-Serif" font-size="10.00">::normalComparison</text>
</a>
</g>
</g>
<!-- Node1&#45;&gt;Node2 -->
<g id="edge1_Node000001_Node000002" class="edge">
<title>Node1&#45;&gt;Node2</title>
<g id="a_edge1_Node000001_Node000002"><a xlink:title=" ">
<path fill="none" stroke="#63b8ff" d="M521.43,-112.59C502.76,-121.83 480.38,-132.44 459.75,-141 452.62,-143.96 445,-146.89 437.49,-149.63"/>
<polygon fill="#63b8ff" stroke="#63b8ff" points="522.93,-115.75 530.32,-108.15 519.81,-109.48 522.93,-115.75"/>
</a>
</g>
</g>
<!-- Node4 -->
<g id="Node000004" class="node">
<title>Node4</title>
<g id="a_Node000004"><a xlink:href="../../d4/d3f/class_normales_g_u_i_adapter.html#a32cec8b0ea288f27e15946d5a4ea3728" target="_top" xlink:title=" ">
<polygon fill="white" stroke="#666666" points="441.38,-132 333.88,-132 333.88,-100 441.38,-100 441.38,-132"/>
<text text-anchor="start" x="341.88" y="-118.5" font-family="Helvetica,sans-Serif" font-size="10.00">NormalesGUIAdapter</text>
<text text-anchor="middle" x="387.62" y="-106.5" font-family="Helvetica,sans-Serif" font-size="10.00">::offsetMethod</text>
</a>
</g>
</g>
<!-- Node1&#45;&gt;Node4 -->
<g id="edge4_Node000001_Node000004" class="edge">
<title>Node1&#45;&gt;Node4</title>
<g id="a_edge4_Node000001_Node000004"><a xlink:title=" ">
<path fill="none" stroke="#63b8ff" d="M484.4,-102.31C469.93,-104.38 455.15,-106.49 441.66,-108.42"/>
<polygon fill="#63b8ff" stroke="#63b8ff" points="484.49,-105.83 493.89,-100.95 483.5,-98.9 484.49,-105.83"/>
</a>
</g>
</g>
<!-- Node5 -->
<g id="Node000005" class="node">
<title>Node5</title>
<g id="a_Node000005"><a xlink:href="../../dd/db9/class_g_e_u_1_1_file_manager.html#aeffefc58937066d086f5ee5e86a05ef9" target="_top" xlink:title=" ">
<polygon fill="white" stroke="#666666" points="459.75,-82 315.5,-82 315.5,-50 459.75,-50 459.75,-82"/>
<text text-anchor="start" x="323.5" y="-68.5" font-family="Helvetica,sans-Serif" font-size="10.00">GEU::FileManager::savePoint</text>
<text text-anchor="middle" x="387.62" y="-56.5" font-family="Helvetica,sans-Serif" font-size="10.00">Cloud</text>
</a>
</g>
</g>
<!-- Node1&#45;&gt;Node5 -->
<g id="edge6_Node000001_Node000005" class="edge">
<title>Node1&#45;&gt;Node5</title>
<g id="a_edge6_Node000001_Node000005"><a xlink:title=" ">
<path fill="none" stroke="#63b8ff" d="M484.12,-79.65C476.08,-78.5 467.96,-77.34 460.02,-76.21"/>
<polygon fill="#63b8ff" stroke="#63b8ff" points="483.5,-83.1 493.89,-81.05 484.49,-76.17 483.5,-83.1"/>
</a>
</g>
</g>
<!-- Node8 -->
<g id="Node000008" class="node">
<title>Node8</title>
<g id="a_Node000008"><a xlink:href="../../d3/d48/class_g_e_u_1_1_thermal_augment.html#a7d44bfe00e67702d5af13b627f6500f6" target="_top" xlink:title=" ">
<polygon fill="white" stroke="#666666" points="445.88,-32 329.38,-32 329.38,0 445.88,0 445.88,-32"/>
<text text-anchor="start" x="337.38" y="-18.5" font-family="Helvetica,sans-Serif" font-size="10.00">GEU::ThermalAugment</text>
<text text-anchor="middle" x="387.62" y="-6.5" font-family="Helvetica,sans-Serif" font-size="10.00">::setUpCloud</text>
</a>
</g>
</g>
<!-- Node1&#45;&gt;Node8 -->
<g id="edge9_Node000001_Node000008" class="edge">
<title>Node1&#45;&gt;Node8</title>
<g id="a_edge9_Node000001_Node000008"><a xlink:title=" ">
<path fill="none" stroke="#63b8ff" d="M521.43,-69.41C502.76,-60.17 480.38,-49.56 459.75,-41 452.62,-38.04 445,-35.11 437.49,-32.37"/>
<polygon fill="#63b8ff" stroke="#63b8ff" points="519.81,-72.52 530.32,-73.85 522.93,-66.25 519.81,-72.52"/>
</a>
</g>
</g>
<!-- Node2&#45;&gt;Node2 -->
<g id="edge2_Node000002_Node000002" class="edge">
<title>Node2&#45;&gt;Node2</title>
<g id="a_edge2_Node000002_Node000002"><a xlink:title=" ">
<path fill="none" stroke="#63b8ff" d="M416.98,-193.71C412.08,-197.48 402.3,-200 387.62,-200 360.79,-200 350.31,-191.58 356.18,-182.44"/>
<polygon fill="#63b8ff" stroke="#63b8ff" points="420.41,-194.4 418.79,-183.93 413.52,-193.12 420.41,-194.4"/>
</a>
</g>
</g>
<!-- Node3 -->
<g id="Node000003" class="node">
<title>Node3</title>
<g id="a_Node000003"><a xlink:href="../../d4/d3f/class_normales_g_u_i_adapter.html#ad27c678722407ed6f3d2bb41ccc2b640" target="_top" xlink:title="Custom module GUI window contents.">
<polygon fill="white" stroke="#666666" points="265.25,-157 157.75,-157 157.75,-125 265.25,-125 265.25,-157"/>
<text text-anchor="start" x="165.75" y="-143.5" font-family="Helvetica,sans-Serif" font-size="10.00">NormalesGUIAdapter</text>
<text text-anchor="middle" x="211.5" y="-131.5" font-family="Helvetica,sans-Serif" font-size="10.00">::renderGuiObject</text>
</a>
</g>
</g>
<!-- Node2&#45;&gt;Node3 -->
<g id="edge3_Node000002_Node000003" class="edge">
<title>Node2&#45;&gt;Node3</title>
<g id="a_edge3_Node000002_Node000003"><a xlink:title=" ">
<path fill="none" stroke="#63b8ff" d="M322.09,-156.73C303.51,-154.07 283.47,-151.19 265.66,-148.63"/>
<polygon fill="#63b8ff" stroke="#63b8ff" points="321.54,-160.19 331.94,-158.15 322.54,-153.26 321.54,-160.19"/>
</a>
</g>
</g>
<!-- Node4&#45;&gt;Node3 -->
<g id="edge5_Node000004_Node000003" class="edge">
<title>Node4&#45;&gt;Node3</title>
<g id="a_edge5_Node000004_Node000003"><a xlink:title=" ">
<path fill="none" stroke="#63b8ff" d="M322.09,-125.27C303.51,-127.93 283.47,-130.81 265.66,-133.37"/>
<polygon fill="#63b8ff" stroke="#63b8ff" points="322.54,-128.74 331.94,-123.85 321.54,-121.81 322.54,-128.74"/>
</a>
</g>
</g>
<!-- Node6 -->
<g id="Node000006" class="node">
<title>Node6</title>
<g id="a_Node000006"><a xlink:href="../../db/d50/class_g_e_u_1_1_details_window.html#a9edcfff4507d107037e9f7500a3d6717" target="_top" xlink:title="Renders inspector details for point cloud items.">
<polygon fill="white" stroke="#666666" points="279.5,-82 143.5,-82 143.5,-50 279.5,-50 279.5,-82"/>
<text text-anchor="start" x="151.5" y="-68.5" font-family="Helvetica,sans-Serif" font-size="10.00">GEU::DetailsWindow</text>
<text text-anchor="middle" x="211.5" y="-56.5" font-family="Helvetica,sans-Serif" font-size="10.00">::makePCloudItemInspector</text>
</a>
</g>
</g>
<!-- Node5&#45;&gt;Node6 -->
<g id="edge7_Node000005_Node000006" class="edge">
<title>Node5&#45;&gt;Node6</title>
<g id="a_edge7_Node000005_Node000006"><a xlink:title=" ">
<path fill="none" stroke="#63b8ff" d="M303.78,-66C295.77,-66 287.71,-66 279.88,-66"/>
<polygon fill="#63b8ff" stroke="#63b8ff" points="303.53,-69.5 313.53,-66 303.53,-62.5 303.53,-69.5"/>
</a>
</g>
</g>
<!-- Node7 -->
<g id="Node000007" class="node">
<title>Node7</title>
<g id="a_Node000007"><a xlink:href="../../db/d50/class_g_e_u_1_1_details_window.html#a6666ec761cc5cd8a57220823b8e7daa6" target="_top" xlink:title="Renders the window and contents.">
<polygon fill="white" stroke="#666666" points="107.5,-82 0,-82 0,-50 107.5,-50 107.5,-82"/>
<text text-anchor="start" x="8" y="-68.5" font-family="Helvetica,sans-Serif" font-size="10.00">GEU::DetailsWindow</text>
<text text-anchor="middle" x="53.75" y="-56.5" font-family="Helvetica,sans-Serif" font-size="10.00">::renderWindow</text>
</a>
</g>
</g>
<!-- Node6&#45;&gt;Node7 -->
<g id="edge8_Node000006_Node000007" class="edge">
<title>Node6&#45;&gt;Node7</title>
<g id="a_edge8_Node000006_Node000007"><a xlink:title=" ">
<path fill="none" stroke="#63b8ff" d="M131.65,-66C123.54,-66 115.44,-66 107.71,-66"/>
<polygon fill="#63b8ff" stroke="#63b8ff" points="131.58,-69.5 141.58,-66 131.58,-62.5 131.58,-69.5"/>
</a>
</g>
</g>
</g>
</svg>
