<?xml version="1.0" encoding="UTF-8" standalone="no"?>
<!DOCTYPE svg PUBLIC "-//W3C//DTD SVG 1.1//EN"
 "http://www.w3.org/Graphics/SVG/1.1/DTD/svg11.dtd">
<!-- Generated by graphviz version 10.0.1 (20240210.2158)
 -->
<!-- Title: GEU::ImageTreeSegmentation::SegmentAABB::distToLine Pages: 1 -->
<svg width="344pt" height="90pt"
 viewBox="0.00 0.00 343.75 90.00" xmlns="http://www.w3.org/2000/svg" xmlns:xlink="http://www.w3.org/1999/xlink">
<g id="graph0" class="graph" transform="scale(1 1) rotate(0) translate(4 86)">
<title>GEU::ImageTreeSegmentation::SegmentAABB::distToLine</title>
<!-- Node1 -->
<g id="Node000001" class="node">
<title>Node1</title>
<g id="a_Node000001"><a xlink:title=" ">
<polygon fill="#999999" stroke="#666666" points="148,-57 0,-57 0,-25 148,-25 148,-57"/>
<text text-anchor="start" x="8" y="-43.5" font-family="Helvetica,sans-Serif" font-size="10.00">GEU::ImageTreeSegmentation</text>
<text text-anchor="middle" x="74" y="-31.5" font-family="Helvetica,sans-Serif" font-size="10.00">::SegmentAABB::distToLine</text>
</a>
</g>
</g>
<!-- Node2 -->
<g id="Node000002" class="node">
<title>Node2</title>
<g id="a_Node000002"><a xlink:href="../../dd/d05/struct_g_e_u_1_1_image_tree_segmentation_1_1_segment_a_a_b_b.html#a578bcf343b3b66df1e6e644b9e017c3b" target="_top" xlink:title=" ">
<polygon fill="white" stroke="#666666" points="335.75,-82 184,-82 184,-50 335.75,-50 335.75,-82"/>
<text text-anchor="start" x="192" y="-68.5" font-family="Helvetica,sans-Serif" font-size="10.00">GEU::ImageTreeSegmentation</text>
<text text-anchor="middle" x="259.88" y="-56.5" font-family="Helvetica,sans-Serif" font-size="10.00">::SegmentAABB::hypot2Vector</text>
</a>
</g>
</g>
<!-- Node1&#45;&gt;Node2 -->
<g id="edge1_Node000001_Node000002" class="edge">
<title>Node1&#45;&gt;Node2</title>
<g id="a_edge1_Node000001_Node000002"><a xlink:title=" ">
<path fill="none" stroke="#63b8ff" d="M148.46,-50.99C156.35,-52.06 164.43,-53.16 172.45,-54.25"/>
<polygon fill="#63b8ff" stroke="#63b8ff" points="171.84,-57.7 182.22,-55.58 172.79,-50.76 171.84,-57.7"/>
</a>
</g>
</g>
<!-- Node3 -->
<g id="Node000003" class="node">
<title>Node3</title>
<g id="a_Node000003"><a xlink:href="../../dd/d05/struct_g_e_u_1_1_image_tree_segmentation_1_1_segment_a_a_b_b.html#ad32ae1e013e3fef6aefbf7fcf345231a" target="_top" xlink:title=" ">
<polygon fill="white" stroke="#666666" points="333.88,-32 185.88,-32 185.88,0 333.88,0 333.88,-32"/>
<text text-anchor="start" x="193.88" y="-18.5" font-family="Helvetica,sans-Serif" font-size="10.00">GEU::ImageTreeSegmentation</text>
<text text-anchor="middle" x="259.88" y="-6.5" font-family="Helvetica,sans-Serif" font-size="10.00">::SegmentAABB::projVector</text>
</a>
</g>
</g>
<!-- Node1&#45;&gt;Node3 -->
<g id="edge2_Node000001_Node000003" class="edge">
<title>Node1&#45;&gt;Node3</title>
<g id="a_edge2_Node000001_Node000003"><a xlink:title=" ">
<path fill="none" stroke="#63b8ff" d="M148.46,-31.01C156.95,-29.86 165.66,-28.67 174.27,-27.5"/>
<polygon fill="#63b8ff" stroke="#63b8ff" points="174.59,-30.99 184.03,-26.18 173.65,-24.06 174.59,-30.99"/>
</a>
</g>
</g>
</g>
</svg>
