<?xml version="1.0" encoding="UTF-8" standalone="no"?>
<!DOCTYPE svg PUBLIC "-//W3C//DTD SVG 1.1//EN"
 "http://www.w3.org/Graphics/SVG/1.1/DTD/svg11.dtd">
<!-- Generated by graphviz version 10.0.1 (20240210.2158)
 -->
<!-- Title: GEU::Camera::Camera Pages: 1 -->
<svg width="327pt" height="314pt"
 viewBox="0.00 0.00 326.50 314.00" xmlns="http://www.w3.org/2000/svg" xmlns:xlink="http://www.w3.org/1999/xlink">
<g id="graph0" class="graph" transform="scale(1 1) rotate(0) translate(4 310)">
<title>GEU::Camera::Camera</title>
<!-- Node1 -->
<g id="Node000001" class="node">
<title>Node1</title>
<g id="a_Node000001"><a xlink:title=" ">
<polygon fill="#999999" stroke="#666666" points="116.5,-160 0,-160 0,-140 116.5,-140 116.5,-160"/>
<text text-anchor="middle" x="58.25" y="-146.5" font-family="Helvetica,sans-Serif" font-size="10.00">GEU::Camera::Camera</text>
</a>
</g>
</g>
<!-- Node2 -->
<g id="Node000002" class="node">
<title>Node2</title>
<g id="a_Node000002"><a xlink:href="../../d9/dcf/class_g_e_u_1_1_camera_projection_1_1_camera_properties.html#ae2b9daf5d916756660d73e22c771820b" target="_top" xlink:title=" ">
<polygon fill="white" stroke="#666666" points="307.25,-306 163.75,-306 163.75,-262 307.25,-262 307.25,-306"/>
<text text-anchor="start" x="171.75" y="-292.5" font-family="Helvetica,sans-Serif" font-size="10.00">GEU::CameraProjection</text>
<text text-anchor="start" x="171.75" y="-280.5" font-family="Helvetica,sans-Serif" font-size="10.00">::CameraProperties::compute</text>
<text text-anchor="middle" x="235.5" y="-268.5" font-family="Helvetica,sans-Serif" font-size="10.00">Aspect</text>
</a>
</g>
</g>
<!-- Node1&#45;&gt;Node2 -->
<g id="edge1_Node000001_Node000002" class="edge">
<title>Node1&#45;&gt;Node2</title>
<g id="a_edge1_Node000001_Node000002"><a xlink:title=" ">
<path fill="none" stroke="#63b8ff" d="M65.99,-160.25C79.87,-180.61 113.63,-226.51 152.5,-253 154.06,-254.06 155.65,-255.09 157.28,-256.09"/>
<polygon fill="#63b8ff" stroke="#63b8ff" points="155.18,-258.93 165.62,-260.76 158.61,-252.82 155.18,-258.93"/>
</a>
</g>
</g>
<!-- Node3 -->
<g id="Node000003" class="node">
<title>Node3</title>
<g id="a_Node000003"><a xlink:href="../../d9/dcf/class_g_e_u_1_1_camera_projection_1_1_camera_properties.html#a133c4b0e2836e51891f3aeed5bd90c83" target="_top" xlink:title=" ">
<polygon fill="white" stroke="#666666" points="318.5,-244 152.5,-244 152.5,-212 318.5,-212 318.5,-244"/>
<text text-anchor="start" x="160.5" y="-230.5" font-family="Helvetica,sans-Serif" font-size="10.00">GEU::CameraProjection</text>
<text text-anchor="middle" x="235.5" y="-218.5" font-family="Helvetica,sans-Serif" font-size="10.00">::CameraProperties::computeAxes</text>
</a>
</g>
</g>
<!-- Node1&#45;&gt;Node3 -->
<g id="edge2_Node000001_Node000003" class="edge">
<title>Node1&#45;&gt;Node3</title>
<g id="a_edge2_Node000001_Node000003"><a xlink:title=" ">
<path fill="none" stroke="#63b8ff" d="M74.87,-160.31C92.96,-171.9 123.93,-190.71 152.5,-203 156.28,-204.63 160.19,-206.19 164.18,-207.69"/>
<polygon fill="#63b8ff" stroke="#63b8ff" points="162.8,-210.92 173.39,-210.99 165.16,-204.33 162.8,-210.92"/>
</a>
</g>
</g>
<!-- Node4 -->
<g id="Node000004" class="node">
<title>Node4</title>
<g id="a_Node000004"><a xlink:href="../../d9/dcf/class_g_e_u_1_1_camera_projection_1_1_camera_properties.html#a353f8d3c307fbb3a30b140ca599bf580" target="_top" xlink:title=" ">
<polygon fill="white" stroke="#666666" points="318.12,-194 152.88,-194 152.88,-162 318.12,-162 318.12,-194"/>
<text text-anchor="start" x="160.88" y="-180.5" font-family="Helvetica,sans-Serif" font-size="10.00">GEU::CameraProjection</text>
<text text-anchor="middle" x="235.5" y="-168.5" font-family="Helvetica,sans-Serif" font-size="10.00">::CameraProperties::computeFovY</text>
</a>
</g>
</g>
<!-- Node1&#45;&gt;Node4 -->
<g id="edge3_Node000001_Node000004" class="edge">
<title>Node1&#45;&gt;Node4</title>
<g id="a_edge3_Node000001_Node000004"><a xlink:title=" ">
<path fill="none" stroke="#63b8ff" d="M116.63,-159.17C124.62,-160.44 132.98,-161.78 141.41,-163.13"/>
<polygon fill="#63b8ff" stroke="#63b8ff" points="140.59,-166.54 151.01,-164.66 141.69,-159.63 140.59,-166.54"/>
</a>
</g>
</g>
<!-- Node5 -->
<g id="Node000005" class="node">
<title>Node5</title>
<g id="a_Node000005"><a xlink:href="../../d9/dcf/class_g_e_u_1_1_camera_projection_1_1_camera_properties.html#ad87950166ef7898d00b9607b132c28df" target="_top" xlink:title=" ">
<polygon fill="white" stroke="#666666" points="307.25,-144 163.75,-144 163.75,-100 307.25,-100 307.25,-144"/>
<text text-anchor="start" x="171.75" y="-130.5" font-family="Helvetica,sans-Serif" font-size="10.00">GEU::CameraProjection</text>
<text text-anchor="start" x="171.75" y="-118.5" font-family="Helvetica,sans-Serif" font-size="10.00">::CameraProperties::compute</text>
<text text-anchor="middle" x="235.5" y="-106.5" font-family="Helvetica,sans-Serif" font-size="10.00">ProjectionMatrices</text>
</a>
</g>
</g>
<!-- Node1&#45;&gt;Node5 -->
<g id="edge4_Node000001_Node000005" class="edge">
<title>Node1&#45;&gt;Node5</title>
<g id="a_edge4_Node000001_Node000005"><a xlink:title=" ">
<path fill="none" stroke="#63b8ff" d="M116.63,-140.83C128.1,-139 140.35,-137.04 152.46,-135.11"/>
<polygon fill="#63b8ff" stroke="#63b8ff" points="152.69,-138.61 162.02,-133.58 151.59,-131.7 152.69,-138.61"/>
</a>
</g>
</g>
<!-- Node6 -->
<g id="Node000006" class="node">
<title>Node6</title>
<g id="a_Node000006"><a xlink:href="../../d9/dcf/class_g_e_u_1_1_camera_projection_1_1_camera_properties.html#ac5134bdaf1b60fb4b555f470b06a043d" target="_top" xlink:title=" ">
<polygon fill="white" stroke="#666666" points="307.25,-82 163.75,-82 163.75,-38 307.25,-38 307.25,-82"/>
<text text-anchor="start" x="171.75" y="-68.5" font-family="Helvetica,sans-Serif" font-size="10.00">GEU::CameraProjection</text>
<text text-anchor="start" x="171.75" y="-56.5" font-family="Helvetica,sans-Serif" font-size="10.00">::CameraProperties::compute</text>
<text text-anchor="middle" x="235.5" y="-44.5" font-family="Helvetica,sans-Serif" font-size="10.00">ViewMatrix</text>
</a>
</g>
</g>
<!-- Node1&#45;&gt;Node6 -->
<g id="edge5_Node000001_Node000006" class="edge">
<title>Node1&#45;&gt;Node6</title>
<g id="a_edge5_Node000001_Node000006"><a xlink:title=" ">
<path fill="none" stroke="#63b8ff" d="M73.57,-139.64C91.43,-127.04 123.19,-105.63 152.5,-91 155.22,-89.65 158,-88.31 160.84,-87.01"/>
<polygon fill="#63b8ff" stroke="#63b8ff" points="162.14,-90.26 169.88,-83.03 159.32,-83.86 162.14,-90.26"/>
</a>
</g>
</g>
<!-- Node7 -->
<g id="Node000007" class="node">
<title>Node7</title>
<g id="a_Node000007"><a xlink:href="../../dd/d0c/class_g_e_u_1_1_camera.html#a0410ae1b1195ee03bd1af1fe010190f7" target="_top" xlink:title=" ">
<polygon fill="white" stroke="#666666" points="303.5,-20 167.5,-20 167.5,0 303.5,0 303.5,-20"/>
<text text-anchor="middle" x="235.5" y="-6.5" font-family="Helvetica,sans-Serif" font-size="10.00">GEU::Camera::saveCamera</text>
</a>
</g>
</g>
<!-- Node1&#45;&gt;Node7 -->
<g id="edge6_Node000001_Node000007" class="edge">
<title>Node1&#45;&gt;Node7</title>
<g id="a_edge6_Node000001_Node000007"><a xlink:title=" ">
<path fill="none" stroke="#63b8ff" d="M64.1,-139.63C75.74,-115.97 107.65,-57.81 152.5,-29 154.78,-27.53 157.16,-26.18 159.62,-24.93"/>
<polygon fill="#63b8ff" stroke="#63b8ff" points="160.92,-28.18 168.68,-20.97 158.11,-21.77 160.92,-28.18"/>
</a>
</g>
</g>
</g>
</svg>
