<?xml version="1.0" encoding="UTF-8" standalone="no"?>
<!DOCTYPE svg PUBLIC "-//W3C//DTD SVG 1.1//EN"
 "http://www.w3.org/Graphics/SVG/1.1/DTD/svg11.dtd">
<!-- Generated by graphviz version 10.0.1 (20240210.2158)
 -->
<!-- Title: C:/GitHub/GEU/GEU/Source/UI/ConfirmClosePopup.h Pages: 1 -->
<svg width="725pt" height="600pt"
 viewBox="0.00 0.00 724.73 600.00" xmlns="http://www.w3.org/2000/svg" xmlns:xlink="http://www.w3.org/1999/xlink">
<g id="graph0" class="graph" transform="scale(1 1) rotate(0) translate(4 596)">
<title>C:/GitHub/GEU/GEU/Source/UI/ConfirmClosePopup.h</title>
<!-- Node1 -->
<g id="Node000001" class="node">
<title>Node1</title>
<g id="a_Node000001"><a xlink:title=" ">
<polygon fill="#999999" stroke="#666666" points="432.23,-592 291.73,-592 291.73,-560 432.23,-560 432.23,-592"/>
<text text-anchor="start" x="299.73" y="-578.5" font-family="Helvetica,sans-Serif" font-size="10.00">C:/GitHub/GEU/GEU/Source</text>
<text text-anchor="middle" x="361.98" y="-566.5" font-family="Helvetica,sans-Serif" font-size="10.00">/UI/ConfirmClosePopup.h</text>
</a>
</g>
</g>
<!-- Node2 -->
<g id="Node000002" class="node">
<title>Node2</title>
<g id="a_Node000002"><a xlink:href="../../de/df3/_i___g_u_i_popup_8h.html" target="_top" xlink:title=" ">
<polygon fill="white" stroke="#666666" points="399.98,-524 323.98,-524 323.98,-504 399.98,-504 399.98,-524"/>
<text text-anchor="middle" x="361.98" y="-510.5" font-family="Helvetica,sans-Serif" font-size="10.00">I_GUIPopup.h</text>
</a>
</g>
</g>
<!-- Node1&#45;&gt;Node2 -->
<g id="edge1_Node000001_Node000002" class="edge">
<title>Node1&#45;&gt;Node2</title>
<g id="a_edge1_Node000001_Node000002"><a xlink:title=" ">
<path fill="none" stroke="#63b8ff" d="M361.98,-559.55C361.98,-552.34 361.98,-543.66 361.98,-535.88"/>
<polygon fill="#63b8ff" stroke="#63b8ff" points="365.48,-535.92 361.98,-525.92 358.48,-535.92 365.48,-535.92"/>
</a>
</g>
</g>
<!-- Node3 -->
<g id="Node000003" class="node">
<title>Node3</title>
<g id="a_Node000003"><a xlink:href="../../de/d56/_scene_8h.html" target="_top" xlink:title=" ">
<polygon fill="white" stroke="#666666" points="248.6,-468 173.35,-468 173.35,-448 248.6,-448 248.6,-468"/>
<text text-anchor="middle" x="210.98" y="-454.5" font-family="Helvetica,sans-Serif" font-size="10.00">Core/Scene.h</text>
</a>
</g>
</g>
<!-- Node2&#45;&gt;Node3 -->
<g id="edge2_Node000002_Node000003" class="edge">
<title>Node2&#45;&gt;Node3</title>
<g id="a_edge2_Node000002_Node000003"><a xlink:title=" ">
<path fill="none" stroke="#63b8ff" d="M335.67,-503.59C311.46,-494.94 275.3,-482 248.14,-472.29"/>
<polygon fill="#63b8ff" stroke="#63b8ff" points="249.5,-469.06 238.91,-468.99 247.15,-475.65 249.5,-469.06"/>
</a>
</g>
</g>
<!-- Node22 -->
<g id="Node000022" class="node">
<title>Node22</title>
<g id="a_Node000022"><a xlink:href="../../dd/d9b/_application_state_8h.html" target="_top" xlink:title=" ">
<polygon fill="white" stroke="#666666" points="558.35,-468 439.6,-468 439.6,-448 558.35,-448 558.35,-468"/>
<text text-anchor="middle" x="498.98" y="-454.5" font-family="Helvetica,sans-Serif" font-size="10.00">Core/ApplicationState.h</text>
</a>
</g>
</g>
<!-- Node2&#45;&gt;Node22 -->
<g id="edge26_Node000002_Node000022" class="edge">
<title>Node2&#45;&gt;Node22</title>
<g id="a_edge26_Node000002_Node000022"><a xlink:title=" ">
<path fill="none" stroke="#63b8ff" d="M385.84,-503.59C407.51,-495.05 439.74,-482.35 464.27,-472.68"/>
<polygon fill="#63b8ff" stroke="#63b8ff" points="465.5,-475.96 473.52,-469.03 462.93,-469.45 465.5,-475.96"/>
</a>
</g>
</g>
<!-- Node30 -->
<g id="Node000030" class="node">
<title>Node30</title>
<g id="a_Node000030"><a xlink:href="../../d6/d20/_locale_strings_8h.html" target="_top" xlink:title=" ">
<polygon fill="white" stroke="#666666" points="421.35,-468 302.6,-468 302.6,-448 421.35,-448 421.35,-468"/>
<text text-anchor="middle" x="361.98" y="-454.5" font-family="Helvetica,sans-Serif" font-size="10.00">Utilities/LocaleStrings.h</text>
</a>
</g>
</g>
<!-- Node2&#45;&gt;Node30 -->
<g id="edge37_Node000002_Node000030" class="edge">
<title>Node2&#45;&gt;Node30</title>
<g id="a_edge37_Node000002_Node000030"><a xlink:title=" ">
<path fill="none" stroke="#63b8ff" d="M361.98,-503.59C361.98,-497.01 361.98,-487.96 361.98,-479.73"/>
<polygon fill="#63b8ff" stroke="#63b8ff" points="365.48,-479.81 361.98,-469.81 358.48,-479.81 365.48,-479.81"/>
</a>
</g>
</g>
<!-- Node4 -->
<g id="Node000004" class="node">
<title>Node4</title>
<g id="a_Node000004"><a xlink:href="../../d5/d91/_camera_8h.html" target="_top" xlink:title=" ">
<polygon fill="white" stroke="#666666" points="196.35,-412 101.6,-412 101.6,-392 196.35,-392 196.35,-412"/>
<text text-anchor="middle" x="148.98" y="-398.5" font-family="Helvetica,sans-Serif" font-size="10.00">Camera/Camera.h</text>
</a>
</g>
</g>
<!-- Node3&#45;&gt;Node4 -->
<g id="edge3_Node000003_Node000004" class="edge">
<title>Node3&#45;&gt;Node4</title>
<g id="a_edge3_Node000003_Node000004"><a xlink:title=" ">
<path fill="none" stroke="#63b8ff" d="M200.18,-447.59C191.38,-439.93 178.73,-428.91 168.2,-419.75"/>
<polygon fill="#63b8ff" stroke="#63b8ff" points="170.63,-417.22 160.79,-413.29 166.04,-422.5 170.63,-417.22"/>
</a>
</g>
</g>
<!-- Node16 -->
<g id="Node000016" class="node">
<title>Node16</title>
<g id="a_Node000016"><a xlink:href="../../d2/d46/_light_8h.html" target="_top" xlink:title=" ">
<polygon fill="white" stroke="#666666" points="83.23,-412 8.73,-412 8.73,-392 83.23,-392 83.23,-412"/>
<text text-anchor="middle" x="45.98" y="-398.5" font-family="Helvetica,sans-Serif" font-size="10.00">Lights/Light.h</text>
</a>
</g>
</g>
<!-- Node3&#45;&gt;Node16 -->
<g id="edge18_Node000003_Node000016" class="edge">
<title>Node3&#45;&gt;Node16</title>
<g id="a_edge18_Node000003_Node000016"><a xlink:title=" ">
<path fill="none" stroke="#63b8ff" d="M182.24,-447.59C155.55,-438.86 115.56,-425.77 85.8,-416.03"/>
<polygon fill="#63b8ff" stroke="#63b8ff" points="86.97,-412.73 76.38,-412.95 84.8,-419.39 86.97,-412.73"/>
</a>
</g>
</g>
<!-- Node19 -->
<g id="Node000019" class="node">
<title>Node19</title>
<g id="a_Node000019"><a xlink:href="../../d7/d92/_database_connector_8h.html" target="_top" xlink:title=" ">
<polygon fill="white" stroke="#666666" points="359.48,-412 214.48,-412 214.48,-392 359.48,-392 359.48,-412"/>
<text text-anchor="middle" x="286.98" y="-398.5" font-family="Helvetica,sans-Serif" font-size="10.00">Utilities/DatabaseConnector.h</text>
</a>
</g>
</g>
<!-- Node3&#45;&gt;Node19 -->
<g id="edge23_Node000003_Node000019" class="edge">
<title>Node3&#45;&gt;Node19</title>
<g id="a_edge23_Node000003_Node000019"><a xlink:title=" ">
<path fill="none" stroke="#63b8ff" d="M224.21,-447.59C235.26,-439.74 251.26,-428.38 264.33,-419.09"/>
<polygon fill="#63b8ff" stroke="#63b8ff" points="266.28,-422 272.4,-413.36 262.22,-416.3 266.28,-422"/>
</a>
</g>
</g>
<!-- Node5 -->
<g id="Node000005" class="node">
<title>Node5</title>
<g id="a_Node000005"><a xlink:href="../../dd/dbb/_camera_projection_8h.html" target="_top" xlink:title=" ">
<polygon fill="white" stroke="#666666" points="263.73,-356 162.23,-356 162.23,-336 263.73,-336 263.73,-356"/>
<text text-anchor="middle" x="212.98" y="-342.5" font-family="Helvetica,sans-Serif" font-size="10.00">CameraProjection.h</text>
</a>
</g>
</g>
<!-- Node4&#45;&gt;Node5 -->
<g id="edge4_Node000004_Node000005" class="edge">
<title>Node4&#45;&gt;Node5</title>
<g id="a_edge4_Node000004_Node000005"><a xlink:title=" ">
<path fill="none" stroke="#63b8ff" d="M160.12,-391.59C169.3,-383.85 182.53,-372.69 193.46,-363.47"/>
<polygon fill="#63b8ff" stroke="#63b8ff" points="195.41,-366.4 200.8,-357.27 190.9,-361.05 195.41,-366.4"/>
</a>
</g>
</g>
<!-- Node6 -->
<g id="Node000006" class="node">
<title>Node6</title>
<g id="a_Node000006"><a xlink:href="../../d0/d8e/_model3_d_8h.html" target="_top" xlink:title=" ">
<polygon fill="white" stroke="#666666" points="283.85,-300 198.1,-300 198.1,-280 283.85,-280 283.85,-300"/>
<text text-anchor="middle" x="240.98" y="-286.5" font-family="Helvetica,sans-Serif" font-size="10.00">Core/Model3D.h</text>
</a>
</g>
</g>
<!-- Node4&#45;&gt;Node6 -->
<g id="edge5_Node000004_Node000006" class="edge">
<title>Node4&#45;&gt;Node6</title>
<g id="a_edge5_Node000004_Node000006"><a xlink:title=" ">
<path fill="none" stroke="#63b8ff" d="M146.88,-391.72C144.38,-378.24 141.83,-353.03 152.98,-336 162.45,-321.54 178.09,-311.49 193.59,-304.62"/>
<polygon fill="#63b8ff" stroke="#63b8ff" points="194.83,-307.89 202.81,-300.92 192.22,-301.4 194.83,-307.89"/>
</a>
</g>
</g>
<!-- Node7 -->
<g id="Node000007" class="node">
<title>Node7</title>
<g id="a_Node000007"><a xlink:href="../../d3/d09/_material_8h.html" target="_top" xlink:title=" ">
<polygon fill="white" stroke="#666666" points="222.35,-244 163.6,-244 163.6,-224 222.35,-224 222.35,-244"/>
<text text-anchor="middle" x="192.98" y="-230.5" font-family="Helvetica,sans-Serif" font-size="10.00">Material.h</text>
</a>
</g>
</g>
<!-- Node6&#45;&gt;Node7 -->
<g id="edge6_Node000006_Node000007" class="edge">
<title>Node6&#45;&gt;Node7</title>
<g id="a_edge6_Node000006_Node000007"><a xlink:title=" ">
<path fill="none" stroke="#63b8ff" d="M232.62,-279.59C226.08,-272.24 216.79,-261.8 208.86,-252.87"/>
<polygon fill="#63b8ff" stroke="#63b8ff" points="211.51,-250.58 202.25,-245.43 206.28,-255.23 211.51,-250.58"/>
</a>
</g>
</g>
<!-- Node15 -->
<g id="Node000015" class="node">
<title>Node15</title>
<g id="a_Node000015"><a xlink:href="../../d2/d00/_a_a_b_b_8h.html" target="_top" xlink:title=" ">
<polygon fill="white" stroke="#666666" points="337.48,-244 240.48,-244 240.48,-224 337.48,-224 337.48,-244"/>
<text text-anchor="middle" x="288.98" y="-230.5" font-family="Helvetica,sans-Serif" font-size="10.00">Geometry/AABB.h</text>
</a>
</g>
</g>
<!-- Node6&#45;&gt;Node15 -->
<g id="edge17_Node000006_Node000015" class="edge">
<title>Node6&#45;&gt;Node15</title>
<g id="a_edge17_Node000006_Node000015"><a xlink:title=" ">
<path fill="none" stroke="#63b8ff" d="M249.34,-279.59C255.88,-272.24 265.16,-261.8 273.1,-252.87"/>
<polygon fill="#63b8ff" stroke="#63b8ff" points="275.68,-255.23 279.71,-245.43 270.45,-250.58 275.68,-255.23"/>
</a>
</g>
</g>
<!-- Node8 -->
<g id="Node000008" class="node">
<title>Node8</title>
<g id="a_Node000008"><a xlink:title=" ">
<polygon fill="#e0e0e0" stroke="#999999" points="181.48,-132 96.48,-132 96.48,-112 181.48,-112 181.48,-132"/>
<text text-anchor="middle" x="138.98" y="-118.5" font-family="Helvetica,sans-Serif" font-size="10.00">assimp/scene.h</text>
</a>
</g>
</g>
<!-- Node7&#45;&gt;Node8 -->
<g id="edge7_Node000007_Node000008" class="edge">
<title>Node7&#45;&gt;Node8</title>
<g id="a_edge7_Node000007_Node000008"><a xlink:title=" ">
<path fill="none" stroke="#63b8ff" d="M188.37,-223.62C179.61,-205.76 160.34,-166.53 148.63,-142.67"/>
<polygon fill="#63b8ff" stroke="#63b8ff" points="151.78,-141.15 144.24,-133.71 145.5,-144.23 151.78,-141.15"/>
</a>
</g>
</g>
<!-- Node9 -->
<g id="Node000009" class="node">
<title>Node9</title>
<g id="a_Node000009"><a xlink:href="../../d1/d4f/_rendering_shader_8h.html" target="_top" xlink:title=" ">
<polygon fill="white" stroke="#666666" points="429.35,-188 268.6,-188 268.6,-168 429.35,-168 429.35,-188"/>
<text text-anchor="middle" x="348.98" y="-174.5" font-family="Helvetica,sans-Serif" font-size="10.00">Core/Shaders/RenderingShader.h</text>
</a>
</g>
</g>
<!-- Node7&#45;&gt;Node9 -->
<g id="edge8_Node000007_Node000009" class="edge">
<title>Node7&#45;&gt;Node9</title>
<g id="a_edge8_Node000007_Node000009"><a xlink:title=" ">
<path fill="none" stroke="#63b8ff" d="M220.15,-223.59C245.27,-214.9 282.86,-201.89 310.95,-192.16"/>
<polygon fill="#63b8ff" stroke="#63b8ff" points="311.86,-195.55 320.16,-188.97 309.57,-188.94 311.86,-195.55"/>
</a>
</g>
</g>
<!-- Node13 -->
<g id="Node000013" class="node">
<title>Node13</title>
<g id="a_Node000013"><a xlink:href="../../de/dbf/_texture_8h.html" target="_top" xlink:title=" ">
<polygon fill="white" stroke="#666666" points="243.23,-188 186.73,-188 186.73,-168 243.23,-168 243.23,-188"/>
<text text-anchor="middle" x="214.98" y="-174.5" font-family="Helvetica,sans-Serif" font-size="10.00">Texture.h</text>
</a>
</g>
</g>
<!-- Node7&#45;&gt;Node13 -->
<g id="edge13_Node000007_Node000013" class="edge">
<title>Node7&#45;&gt;Node13</title>
<g id="a_edge13_Node000007_Node000013"><a xlink:title=" ">
<path fill="none" stroke="#63b8ff" d="M196.81,-223.59C199.58,-216.78 203.44,-207.32 206.88,-198.86"/>
<polygon fill="#63b8ff" stroke="#63b8ff" points="210.09,-200.28 210.62,-189.7 203.6,-197.64 210.09,-200.28"/>
</a>
</g>
</g>
<!-- Node10 -->
<g id="Node000010" class="node">
<title>Node10</title>
<g id="a_Node000010"><a xlink:href="../../d0/dbe/_shader_program_8h.html" target="_top" xlink:title=" ">
<polygon fill="white" stroke="#666666" points="394.85,-132 303.1,-132 303.1,-112 394.85,-112 394.85,-132"/>
<text text-anchor="middle" x="348.98" y="-118.5" font-family="Helvetica,sans-Serif" font-size="10.00">ShaderProgram.h</text>
</a>
</g>
</g>
<!-- Node9&#45;&gt;Node10 -->
<g id="edge9_Node000009_Node000010" class="edge">
<title>Node9&#45;&gt;Node10</title>
<g id="a_edge9_Node000009_Node000010"><a xlink:title=" ">
<path fill="none" stroke="#63b8ff" d="M348.98,-167.59C348.98,-161.01 348.98,-151.96 348.98,-143.73"/>
<polygon fill="#63b8ff" stroke="#63b8ff" points="352.48,-143.81 348.98,-133.81 345.48,-143.81 352.48,-143.81"/>
</a>
</g>
</g>
<!-- Node11 -->
<g id="Node000011" class="node">
<title>Node11</title>
<g id="a_Node000011"><a xlink:href="../../df/d2e/_shader_enums_8h.html" target="_top" xlink:title=" ">
<polygon fill="white" stroke="#666666" points="484.85,-76 399.1,-76 399.1,-56 484.85,-56 484.85,-76"/>
<text text-anchor="middle" x="441.98" y="-62.5" font-family="Helvetica,sans-Serif" font-size="10.00">ShaderEnums.h</text>
</a>
</g>
</g>
<!-- Node9&#45;&gt;Node11 -->
<g id="edge12_Node000009_Node000011" class="edge">
<title>Node9&#45;&gt;Node11</title>
<g id="a_edge12_Node000009_Node000011"><a xlink:title=" ">
<path fill="none" stroke="#63b8ff" d="M362.8,-167.81C374.69,-159.45 391.79,-146.26 403.98,-132 415.78,-118.18 425.98,-100.19 432.83,-86.65"/>
<polygon fill="#63b8ff" stroke="#63b8ff" points="435.87,-88.38 437.09,-77.86 429.57,-85.33 435.87,-88.38"/>
</a>
</g>
</g>
<!-- Node10&#45;&gt;Node11 -->
<g id="edge10_Node000010_Node000011" class="edge">
<title>Node10&#45;&gt;Node11</title>
<g id="a_edge10_Node000010_Node000011"><a xlink:title=" ">
<path fill="none" stroke="#63b8ff" d="M365.18,-111.59C379.23,-103.44 399.81,-91.48 416.13,-82"/>
<polygon fill="#63b8ff" stroke="#63b8ff" points="417.45,-85.29 424.34,-77.24 413.94,-79.23 417.45,-85.29"/>
</a>
</g>
</g>
<!-- Node12 -->
<g id="Node000012" class="node">
<title>Node12</title>
<g id="a_Node000012"><a xlink:title=" ">
<polygon fill="#e0e0e0" stroke="#999999" points="531.73,-20 472.23,-20 472.23,0 531.73,0 531.73,-20"/>
<text text-anchor="middle" x="501.98" y="-6.5" font-family="Helvetica,sans-Serif" font-size="10.00">GL/glew.h</text>
</a>
</g>
</g>
<!-- Node11&#45;&gt;Node12 -->
<g id="edge11_Node000011_Node000012" class="edge">
<title>Node11&#45;&gt;Node12</title>
<g id="a_edge11_Node000011_Node000012"><a xlink:title=" ">
<path fill="none" stroke="#63b8ff" d="M452.43,-55.59C460.95,-47.93 473.19,-36.91 483.37,-27.75"/>
<polygon fill="#63b8ff" stroke="#63b8ff" points="485.43,-30.6 490.52,-21.31 480.75,-25.4 485.43,-30.6"/>
</a>
</g>
</g>
<!-- Node13&#45;&gt;Node8 -->
<g id="edge14_Node000013_Node000008" class="edge">
<title>Node13&#45;&gt;Node8</title>
<g id="a_edge14_Node000013_Node000008"><a xlink:title=" ">
<path fill="none" stroke="#63b8ff" d="M201.74,-167.59C190.69,-159.74 174.7,-148.38 161.62,-139.09"/>
<polygon fill="#63b8ff" stroke="#63b8ff" points="163.73,-136.3 153.55,-133.36 159.68,-142 163.73,-136.3"/>
</a>
</g>
</g>
<!-- Node13&#45;&gt;Node10 -->
<g id="edge16_Node000013_Node000010" class="edge">
<title>Node13&#45;&gt;Node10</title>
<g id="a_edge16_Node000013_Node000010"><a xlink:title=" ">
<path fill="none" stroke="#63b8ff" d="M238.32,-167.59C259.52,-159.05 291.04,-146.35 315.03,-136.68"/>
<polygon fill="#63b8ff" stroke="#63b8ff" points="316.08,-140.03 324.05,-133.05 313.47,-133.54 316.08,-140.03"/>
</a>
</g>
</g>
<!-- Node14 -->
<g id="Node000014" class="node">
<title>Node14</title>
<g id="a_Node000014"><a xlink:href="../../d9/de5/_image_8h.html" target="_top" xlink:title=" ">
<polygon fill="white" stroke="#666666" points="284.85,-132 199.1,-132 199.1,-112 284.85,-112 284.85,-132"/>
<text text-anchor="middle" x="241.98" y="-118.5" font-family="Helvetica,sans-Serif" font-size="10.00">Utilities/Image.h</text>
</a>
</g>
</g>
<!-- Node13&#45;&gt;Node14 -->
<g id="edge15_Node000013_Node000014" class="edge">
<title>Node13&#45;&gt;Node14</title>
<g id="a_edge15_Node000013_Node000014"><a xlink:title=" ">
<path fill="none" stroke="#63b8ff" d="M219.68,-167.59C223.13,-160.7 227.93,-151.1 232.19,-142.57"/>
<polygon fill="#63b8ff" stroke="#63b8ff" points="235.31,-144.16 236.65,-133.65 229.05,-141.03 235.31,-144.16"/>
</a>
</g>
</g>
<!-- Node17 -->
<g id="Node000017" class="node">
<title>Node17</title>
<g id="a_Node000017"><a xlink:href="../../d7/d9c/_light_attenuation_8h.html" target="_top" xlink:title=" ">
<polygon fill="white" stroke="#666666" points="106.35,-356 11.6,-356 11.6,-336 106.35,-336 106.35,-356"/>
<text text-anchor="middle" x="58.98" y="-342.5" font-family="Helvetica,sans-Serif" font-size="10.00">LightAttenuation.h</text>
</a>
</g>
</g>
<!-- Node16&#45;&gt;Node17 -->
<g id="edge19_Node000016_Node000017" class="edge">
<title>Node16&#45;&gt;Node17</title>
<g id="a_edge19_Node000016_Node000017"><a xlink:title=" ">
<path fill="none" stroke="#63b8ff" d="M48.24,-391.59C49.84,-384.93 52.06,-375.75 54.06,-367.44"/>
<polygon fill="#63b8ff" stroke="#63b8ff" points="57.45,-368.31 56.38,-357.77 50.64,-366.67 57.45,-368.31"/>
</a>
</g>
</g>
<!-- Node18 -->
<g id="Node000018" class="node">
<title>Node18</title>
<g id="a_Node000018"><a xlink:href="../../d1/db9/_light_model_8h.html" target="_top" xlink:title=" ">
<polygon fill="white" stroke="#666666" points="94.73,-300 23.23,-300 23.23,-280 94.73,-280 94.73,-300"/>
<text text-anchor="middle" x="58.98" y="-286.5" font-family="Helvetica,sans-Serif" font-size="10.00">LightModel.h</text>
</a>
</g>
</g>
<!-- Node16&#45;&gt;Node18 -->
<g id="edge22_Node000016_Node000018" class="edge">
<title>Node16&#45;&gt;Node18</title>
<g id="a_edge22_Node000016_Node000018"><a xlink:title=" ">
<path fill="none" stroke="#63b8ff" d="M32.16,-391.59C16.05,-379.37 -7.14,-357.11 2.98,-336 8.8,-323.86 19.67,-313.95 30.29,-306.56"/>
<polygon fill="#63b8ff" stroke="#63b8ff" points="32,-309.62 38.55,-301.3 28.24,-303.72 32,-309.62"/>
</a>
</g>
</g>
<!-- Node17&#45;&gt;Node18 -->
<g id="edge20_Node000017_Node000018" class="edge">
<title>Node17&#45;&gt;Node18</title>
<g id="a_edge20_Node000017_Node000018"><a xlink:title=" ">
<path fill="none" stroke="#63b8ff" d="M58.98,-335.59C58.98,-329.01 58.98,-319.96 58.98,-311.73"/>
<polygon fill="#63b8ff" stroke="#63b8ff" points="62.48,-311.81 58.98,-301.81 55.48,-311.81 62.48,-311.81"/>
</a>
</g>
</g>
<!-- Node18&#45;&gt;Node7 -->
<g id="edge21_Node000018_Node000007" class="edge">
<title>Node18&#45;&gt;Node7</title>
<g id="a_edge21_Node000018_Node000007"><a xlink:title=" ">
<path fill="none" stroke="#63b8ff" d="M82.32,-279.59C103.52,-271.05 135.04,-258.35 159.03,-248.68"/>
<polygon fill="#63b8ff" stroke="#63b8ff" points="160.08,-252.03 168.05,-245.05 157.47,-245.54 160.08,-252.03"/>
</a>
</g>
</g>
<!-- Node20 -->
<g id="Node000020" class="node">
<title>Node20</title>
<g id="a_Node000020"><a xlink:href="../../de/dec/_singleton_8h.html" target="_top" xlink:title=" ">
<polygon fill="white" stroke="#666666" points="407.35,-356 342.6,-356 342.6,-336 407.35,-336 407.35,-356"/>
<text text-anchor="middle" x="374.98" y="-342.5" font-family="Helvetica,sans-Serif" font-size="10.00">Singleton.h</text>
</a>
</g>
</g>
<!-- Node19&#45;&gt;Node20 -->
<g id="edge24_Node000019_Node000020" class="edge">
<title>Node19&#45;&gt;Node20</title>
<g id="a_edge24_Node000019_Node000020"><a xlink:title=" ">
<path fill="none" stroke="#63b8ff" d="M302.31,-391.59C315.47,-383.51 334.71,-371.71 350.09,-362.27"/>
<polygon fill="#63b8ff" stroke="#63b8ff" points="351.55,-365.48 358.24,-357.27 347.88,-359.52 351.55,-365.48"/>
</a>
</g>
</g>
<!-- Node21 -->
<g id="Node000021" class="node">
<title>Node21</title>
<g id="a_Node000021"><a xlink:title=" ">
<polygon fill="#e0e0e0" stroke="#999999" points="324.1,-356 281.85,-356 281.85,-336 324.1,-336 324.1,-356"/>
<text text-anchor="middle" x="302.98" y="-342.5" font-family="Helvetica,sans-Serif" font-size="10.00">occi.h</text>
</a>
</g>
</g>
<!-- Node19&#45;&gt;Node21 -->
<g id="edge25_Node000019_Node000021" class="edge">
<title>Node19&#45;&gt;Node21</title>
<g id="a_edge25_Node000019_Node000021"><a xlink:title=" ">
<path fill="none" stroke="#63b8ff" d="M289.76,-391.59C291.76,-384.86 294.52,-375.53 297.01,-367.15"/>
<polygon fill="#63b8ff" stroke="#63b8ff" points="300.31,-368.33 299.79,-357.75 293.59,-366.34 300.31,-368.33"/>
</a>
</g>
</g>
<!-- Node23 -->
<g id="Node000023" class="node">
<title>Node23</title>
<g id="a_Node000023"><a xlink:title=" ">
<polygon fill="#e0e0e0" stroke="#999999" points="529.73,-412 416.23,-412 416.23,-392 529.73,-392 529.73,-412"/>
<text text-anchor="middle" x="472.98" y="-398.5" font-family="Helvetica,sans-Serif" font-size="10.00">imgui_color_gradient.h</text>
</a>
</g>
</g>
<!-- Node22&#45;&gt;Node23 -->
<g id="edge27_Node000022_Node000023" class="edge">
<title>Node22&#45;&gt;Node23</title>
<g id="a_edge27_Node000022_Node000023"><a xlink:title=" ">
<path fill="none" stroke="#63b8ff" d="M494.45,-447.59C491.13,-440.7 486.51,-431.1 482.4,-422.57"/>
<polygon fill="#63b8ff" stroke="#63b8ff" points="485.6,-421.15 478.11,-413.66 479.29,-424.19 485.6,-421.15"/>
</a>
</g>
</g>
<!-- Node24 -->
<g id="Node000024" class="node">
<title>Node24</title>
<g id="a_Node000024"><a xlink:href="../../dc/d05/_point_cloud_8h.html" target="_top" xlink:title=" ">
<polygon fill="white" stroke="#666666" points="619.73,-412 548.23,-412 548.23,-392 619.73,-392 619.73,-412"/>
<text text-anchor="middle" x="583.98" y="-398.5" font-family="Helvetica,sans-Serif" font-size="10.00">PointCloud.h</text>
</a>
</g>
</g>
<!-- Node22&#45;&gt;Node24 -->
<g id="edge28_Node000022_Node000024" class="edge">
<title>Node22&#45;&gt;Node24</title>
<g id="a_edge28_Node000022_Node000024"><a xlink:title=" ">
<path fill="none" stroke="#63b8ff" d="M513.78,-447.59C526.38,-439.59 544.73,-427.93 559.51,-418.54"/>
<polygon fill="#63b8ff" stroke="#63b8ff" points="561.21,-421.61 567.78,-413.29 557.46,-415.7 561.21,-421.61"/>
</a>
</g>
</g>
<!-- Node25 -->
<g id="Node000025" class="node">
<title>Node25</title>
<g id="a_Node000025"><a xlink:title=" ">
<polygon fill="#e0e0e0" stroke="#999999" points="716.73,-356 627.23,-356 627.23,-336 716.73,-336 716.73,-356"/>
<text text-anchor="middle" x="671.98" y="-342.5" font-family="Helvetica,sans-Serif" font-size="10.00">pcl/point_cloud.h</text>
</a>
</g>
</g>
<!-- Node24&#45;&gt;Node25 -->
<g id="edge29_Node000024_Node000025" class="edge">
<title>Node24&#45;&gt;Node25</title>
<g id="a_edge29_Node000024_Node000025"><a xlink:title=" ">
<path fill="none" stroke="#63b8ff" d="M599.31,-391.59C612.47,-383.51 631.71,-371.71 647.09,-362.27"/>
<polygon fill="#63b8ff" stroke="#63b8ff" points="648.55,-365.48 655.24,-357.27 644.88,-359.52 648.55,-365.48"/>
</a>
</g>
</g>
<!-- Node26 -->
<g id="Node000026" class="node">
<title>Node26</title>
<g id="a_Node000026"><a xlink:href="../../d1/dfb/_lines_model_8h.html" target="_top" xlink:title=" ">
<polygon fill="white" stroke="#666666" points="498.85,-356 425.1,-356 425.1,-336 498.85,-336 498.85,-356"/>
<text text-anchor="middle" x="461.98" y="-342.5" font-family="Helvetica,sans-Serif" font-size="10.00">LinesModel.h</text>
</a>
</g>
</g>
<!-- Node24&#45;&gt;Node26 -->
<g id="edge30_Node000024_Node000026" class="edge">
<title>Node24&#45;&gt;Node26</title>
<g id="a_edge30_Node000024_Node000026"><a xlink:title=" ">
<path fill="none" stroke="#63b8ff" d="M562.73,-391.59C543.69,-383.17 515.5,-370.69 493.77,-361.07"/>
<polygon fill="#63b8ff" stroke="#63b8ff" points="495.34,-357.94 484.78,-357.09 492.5,-364.34 495.34,-357.94"/>
</a>
</g>
</g>
<!-- Node28 -->
<g id="Node000028" class="node">
<title>Node28</title>
<g id="a_Node000028"><a xlink:href="../../dd/db7/_g_p_u_resources_8h.html" target="_top" xlink:title=" ">
<polygon fill="white" stroke="#666666" points="608.85,-356 517.1,-356 517.1,-336 608.85,-336 608.85,-356"/>
<text text-anchor="middle" x="562.98" y="-342.5" font-family="Helvetica,sans-Serif" font-size="10.00">GPUResources.h</text>
</a>
</g>
</g>
<!-- Node24&#45;&gt;Node28 -->
<g id="edge34_Node000024_Node000028" class="edge">
<title>Node24&#45;&gt;Node28</title>
<g id="a_edge34_Node000024_Node000028"><a xlink:title=" ">
<path fill="none" stroke="#63b8ff" d="M580.32,-391.59C577.67,-384.78 573.99,-375.32 570.7,-366.86"/>
<polygon fill="#63b8ff" stroke="#63b8ff" points="574.03,-365.76 567.14,-357.71 567.5,-368.3 574.03,-365.76"/>
</a>
</g>
</g>
<!-- Node26&#45;&gt;Node6 -->
<g id="edge31_Node000026_Node000006" class="edge">
<title>Node26&#45;&gt;Node6</title>
<g id="a_edge31_Node000026_Node000006"><a xlink:title=" ">
<path fill="none" stroke="#63b8ff" d="M424.99,-335.96C388.15,-326.96 331.36,-313.08 290.61,-303.13"/>
<polygon fill="#63b8ff" stroke="#63b8ff" points="291.59,-299.76 281.04,-300.79 289.93,-306.56 291.59,-299.76"/>
</a>
</g>
</g>
<!-- Node27 -->
<g id="Node000027" class="node">
<title>Node27</title>
<g id="a_Node000027"><a xlink:href="../../d9/dd4/_v_a_o_8h.html" target="_top" xlink:title=" ">
<polygon fill="white" stroke="#666666" points="483.6,-244 438.35,-244 438.35,-224 483.6,-224 483.6,-244"/>
<text text-anchor="middle" x="460.98" y="-230.5" font-family="Helvetica,sans-Serif" font-size="10.00">VAO.h</text>
</a>
</g>
</g>
<!-- Node26&#45;&gt;Node27 -->
<g id="edge32_Node000026_Node000027" class="edge">
<title>Node26&#45;&gt;Node27</title>
<g id="a_edge32_Node000026_Node000027"><a xlink:title=" ">
<path fill="none" stroke="#63b8ff" d="M461.89,-335.62C461.73,-318.01 461.38,-279.59 461.16,-255.65"/>
<polygon fill="#63b8ff" stroke="#63b8ff" points="464.67,-255.84 461.08,-245.87 457.67,-255.9 464.67,-255.84"/>
</a>
</g>
</g>
<!-- Node27&#45;&gt;Node11 -->
<g id="edge33_Node000027_Node000011" class="edge">
<title>Node27&#45;&gt;Node11</title>
<g id="a_edge33_Node000027_Node000011"><a xlink:title=" ">
<path fill="none" stroke="#63b8ff" d="M459.9,-223.6C456.91,-197.46 448.44,-123.48 444.31,-87.36"/>
<polygon fill="#63b8ff" stroke="#63b8ff" points="447.83,-87.34 443.21,-77.8 440.87,-88.13 447.83,-87.34"/>
</a>
</g>
</g>
<!-- Node28&#45;&gt;Node12 -->
<g id="edge36_Node000028_Node000012" class="edge">
<title>Node28&#45;&gt;Node12</title>
<g id="a_edge36_Node000028_Node000012"><a xlink:title=" ">
<path fill="none" stroke="#63b8ff" d="M562.98,-335.58C562.98,-316.57 562.98,-272.24 562.98,-235 562.98,-235 562.98,-235 562.98,-121 562.98,-84.64 537.17,-49.05 519.13,-28.6"/>
<polygon fill="#63b8ff" stroke="#63b8ff" points="521.88,-26.42 512.53,-21.44 516.73,-31.17 521.88,-26.42"/>
</a>
</g>
</g>
<!-- Node29 -->
<g id="Node000029" class="node">
<title>Node29</title>
<g id="a_Node000029"><a xlink:title=" ">
<polygon fill="#e0e0e0" stroke="#999999" points="534.6,-300 489.35,-300 489.35,-280 534.6,-280 534.6,-300"/>
<text text-anchor="middle" x="511.98" y="-286.5" font-family="Helvetica,sans-Serif" font-size="10.00">cstdint</text>
</a>
</g>
</g>
<!-- Node28&#45;&gt;Node29 -->
<g id="edge35_Node000028_Node000029" class="edge">
<title>Node28&#45;&gt;Node29</title>
<g id="a_edge35_Node000028_Node000029"><a xlink:title=" ">
<path fill="none" stroke="#63b8ff" d="M554.09,-335.59C547.07,-328.16 537.08,-317.58 528.58,-308.58"/>
<polygon fill="#63b8ff" stroke="#63b8ff" points="531.21,-306.27 521.8,-301.4 526.12,-311.07 531.21,-306.27"/>
</a>
</g>
</g>
<!-- Node30&#45;&gt;Node20 -->
<g id="edge38_Node000030_Node000020" class="edge">
<title>Node30&#45;&gt;Node20</title>
<g id="a_edge38_Node000030_Node000020"><a xlink:title=" ">
<path fill="none" stroke="#63b8ff" d="M363.29,-447.7C364.55,-438.61 366.49,-424.36 367.98,-412 369.77,-397.13 371.57,-380.31 372.9,-367.51"/>
<polygon fill="#63b8ff" stroke="#63b8ff" points="376.36,-368.08 373.9,-357.77 369.4,-367.36 376.36,-368.08"/>
</a>
</g>
</g>
</g>
</svg>
