<?xml version="1.0" encoding="UTF-8" standalone="no"?>
<!DOCTYPE svg PUBLIC "-//W3C//DTD SVG 1.1//EN"
 "http://www.w3.org/Graphics/SVG/1.1/DTD/svg11.dtd">
<!-- Generated by graphviz version 10.0.1 (20240210.2158)
 -->
<!-- Title: NormalesGUIAdapter::renderGuiObject Pages: 1 -->
<svg width="686pt" height="422pt"
 viewBox="0.00 0.00 686.25 422.00" xmlns="http://www.w3.org/2000/svg" xmlns:xlink="http://www.w3.org/1999/xlink">
<g id="graph0" class="graph" transform="scale(1 1) rotate(0) translate(4 418)">
<title>NormalesGUIAdapter::renderGuiObject</title>
<!-- Node1 -->
<g id="Node000001" class="node">
<title>Node1</title>
<g id="a_Node000001"><a xlink:title="Custom module GUI window contents.">
<polygon fill="#999999" stroke="#666666" points="107.5,-308 0,-308 0,-276 107.5,-276 107.5,-308"/>
<text text-anchor="start" x="8" y="-294.5" font-family="Helvetica,sans-Serif" font-size="10.00">NormalesGUIAdapter</text>
<text text-anchor="middle" x="53.75" y="-282.5" font-family="Helvetica,sans-Serif" font-size="10.00">::renderGuiObject</text>
</a>
</g>
</g>
<!-- Node2 -->
<g id="Node000002" class="node">
<title>Node2</title>
<g id="a_Node000002"><a xlink:href="../../d5/d01/a01945.html#a47c7e7c2110f4cc59c9ff1f5594c366e" target="_top" xlink:title=" ">
<polygon fill="white" stroke="#666666" points="295.25,-414 143.5,-414 143.5,-382 295.25,-382 295.25,-414"/>
<text text-anchor="start" x="151.5" y="-400.5" font-family="Helvetica,sans-Serif" font-size="10.00">GEU::Singleton&lt; LocaleStrings</text>
<text text-anchor="middle" x="219.38" y="-388.5" font-family="Helvetica,sans-Serif" font-size="10.00"> &gt;::getInstance</text>
</a>
</g>
</g>
<!-- Node1&#45;&gt;Node2 -->
<g id="edge1_Node000001_Node000002" class="edge">
<title>Node1&#45;&gt;Node2</title>
<g id="a_edge1_Node000001_Node000002"><a xlink:title=" ">
<path fill="none" stroke="#63b8ff" d="M68.87,-308.49C85.19,-326.61 113.64,-355.46 143.5,-373 145.79,-374.35 148.17,-375.63 150.6,-376.86"/>
<polygon fill="#63b8ff" stroke="#63b8ff" points="148.93,-379.95 159.48,-380.94 151.86,-373.59 148.93,-379.95"/>
</a>
</g>
</g>
<!-- Node3 -->
<g id="Node000003" class="node">
<title>Node3</title>
<g id="a_Node000003"><a xlink:href="../../da/d04/a01921.html#a90f2903c439af79e6af28892f8f9c139" target="_top" xlink:title=" ">
<polygon fill="white" stroke="#666666" points="279.5,-364 159.25,-364 159.25,-344 279.5,-344 279.5,-364"/>
<text text-anchor="middle" x="219.38" y="-350.5" font-family="Helvetica,sans-Serif" font-size="10.00">LocaleStrings::getString</text>
</a>
</g>
</g>
<!-- Node1&#45;&gt;Node3 -->
<g id="edge2_Node000001_Node000003" class="edge">
<title>Node1&#45;&gt;Node3</title>
<g id="a_edge2_Node000001_Node000003"><a xlink:title=" ">
<path fill="none" stroke="#63b8ff" d="M84.89,-308.49C101.76,-317.24 123.39,-327.66 143.5,-335 148.87,-336.96 154.54,-338.8 160.24,-340.49"/>
<polygon fill="#63b8ff" stroke="#63b8ff" points="159.17,-343.83 169.74,-343.17 161.07,-337.09 159.17,-343.83"/>
</a>
</g>
</g>
<!-- Node4 -->
<g id="Node000004" class="node">
<title>Node4</title>
<g id="a_Node000004"><a xlink:href="../../de/d07/a00550.html#a4a4cc2d3f5e9444384aa7e7eb062dbf0" target="_top" xlink:title=" ">
<polygon fill="white" stroke="#666666" points="267.5,-308 171.25,-308 171.25,-276 267.5,-276 267.5,-308"/>
<text text-anchor="start" x="179.25" y="-294.5" font-family="Helvetica,sans-Serif" font-size="10.00">GEU::GuiUtilities::</text>
<text text-anchor="middle" x="219.38" y="-282.5" font-family="Helvetica,sans-Serif" font-size="10.00">makeButton</text>
</a>
</g>
</g>
<!-- Node1&#45;&gt;Node4 -->
<g id="edge3_Node000001_Node000004" class="edge">
<title>Node1&#45;&gt;Node4</title>
<g id="a_edge3_Node000001_Node000004"><a xlink:title=" ">
<path fill="none" stroke="#63b8ff" d="M107.87,-292C124.33,-292 142.55,-292 159.38,-292"/>
<polygon fill="#63b8ff" stroke="#63b8ff" points="159.25,-295.5 169.25,-292 159.25,-288.5 159.25,-295.5"/>
</a>
</g>
</g>
<!-- Node5 -->
<g id="Node000005" class="node">
<title>Node5</title>
<g id="a_Node000005"><a xlink:href="../../d7/d03/a01645.html#a5f2b290d502274f01fc3e9bdadfca50e" target="_top" xlink:title=" ">
<polygon fill="white" stroke="#666666" points="273.12,-240 165.62,-240 165.62,-208 273.12,-208 273.12,-240"/>
<text text-anchor="start" x="173.62" y="-226.5" font-family="Helvetica,sans-Serif" font-size="10.00">NormalesGUIAdapter</text>
<text text-anchor="middle" x="219.38" y="-214.5" font-family="Helvetica,sans-Serif" font-size="10.00">::normalComparison</text>
</a>
</g>
</g>
<!-- Node1&#45;&gt;Node5 -->
<g id="edge5_Node000001_Node000005" class="edge">
<title>Node1&#45;&gt;Node5</title>
<g id="a_edge5_Node000001_Node000005"><a xlink:title=" ">
<path fill="none" stroke="#63b8ff" d="M94.36,-275.54C116.59,-266.3 144.54,-254.69 168.27,-244.82"/>
<polygon fill="#63b8ff" stroke="#63b8ff" points="169.56,-248.08 177.45,-241.01 166.87,-241.61 169.56,-248.08"/>
</a>
</g>
</g>
<!-- Node10 -->
<g id="Node000010" class="node">
<title>Node10</title>
<g id="a_Node000010"><a xlink:href="../../d7/d03/a01645.html#a32cec8b0ea288f27e15946d5a4ea3728" target="_top" xlink:title=" ">
<polygon fill="white" stroke="#666666" points="273.12,-130 165.62,-130 165.62,-98 273.12,-98 273.12,-130"/>
<text text-anchor="start" x="173.62" y="-116.5" font-family="Helvetica,sans-Serif" font-size="10.00">NormalesGUIAdapter</text>
<text text-anchor="middle" x="219.38" y="-104.5" font-family="Helvetica,sans-Serif" font-size="10.00">::offsetMethod</text>
</a>
</g>
</g>
<!-- Node1&#45;&gt;Node10 -->
<g id="edge11_Node000001_Node000010" class="edge">
<title>Node1&#45;&gt;Node10</title>
<g id="a_edge11_Node000001_Node000010"><a xlink:title=" ">
<path fill="none" stroke="#63b8ff" d="M69.85,-275.57C98.71,-244.18 161.83,-175.51 195.75,-138.61"/>
<polygon fill="#63b8ff" stroke="#63b8ff" points="198.1,-141.23 202.29,-131.5 192.94,-136.49 198.1,-141.23"/>
</a>
</g>
</g>
<!-- Node4&#45;&gt;Node4 -->
<g id="edge4_Node000004_Node000004" class="edge">
<title>Node4&#45;&gt;Node4</title>
<g id="a_edge4_Node000004_Node000004"><a xlink:title=" ">
<path fill="none" stroke="#63b8ff" d="M189.81,-308.44C184.29,-317.58 194.14,-326 219.38,-326 233.17,-326 242.37,-323.48 246.98,-319.71"/>
<polygon fill="#63b8ff" stroke="#63b8ff" points="250.41,-320.39 248.68,-309.93 243.51,-319.18 250.41,-320.39"/>
</a>
</g>
</g>
<!-- Node5&#45;&gt;Node5 -->
<g id="edge10_Node000005_Node000005" class="edge">
<title>Node5&#45;&gt;Node5</title>
<g id="a_edge10_Node000005_Node000005"><a xlink:title=" ">
<path fill="none" stroke="#63b8ff" d="M189.81,-240.44C184.29,-249.58 194.14,-258 219.38,-258 233.17,-258 242.37,-255.48 246.98,-251.71"/>
<polygon fill="#63b8ff" stroke="#63b8ff" points="250.41,-252.39 248.68,-241.93 243.51,-251.18 250.41,-252.39"/>
</a>
</g>
</g>
<!-- Node6 -->
<g id="Node000006" class="node">
<title>Node6</title>
<g id="a_Node000006"><a xlink:href="../../db/d04/a01501.html#ab1c9f2d432831bde695e19caf32e3ebd" target="_top" xlink:title=" ">
<polygon fill="white" stroke="#666666" points="472.12,-310 345.88,-310 345.88,-290 472.12,-290 472.12,-310"/>
<text text-anchor="middle" x="409" y="-296.5" font-family="Helvetica,sans-Serif" font-size="10.00">GEU::Model3D::getName</text>
</a>
</g>
</g>
<!-- Node5&#45;&gt;Node6 -->
<g id="edge6_Node000005_Node000006" class="edge">
<title>Node5&#45;&gt;Node6</title>
<g id="a_edge6_Node000005_Node000006"><a xlink:title=" ">
<path fill="none" stroke="#63b8ff" d="M247.81,-240.38C269.76,-252.93 301.66,-269.9 331.25,-281 336.5,-282.97 342.02,-284.79 347.61,-286.47"/>
<polygon fill="#63b8ff" stroke="#63b8ff" points="346.32,-289.74 356.89,-289.09 348.22,-283 346.32,-289.74"/>
</a>
</g>
</g>
<!-- Node7 -->
<g id="Node000007" class="node">
<title>Node7</title>
<g id="a_Node000007"><a xlink:href="../../db/d06/a01509.html#af0b00f0dfca52b32562dd5f82b483933" target="_top" xlink:title=" ">
<polygon fill="white" stroke="#666666" points="481.88,-272 336.12,-272 336.12,-252 481.88,-252 481.88,-272"/>
<text text-anchor="middle" x="409" y="-258.5" font-family="Helvetica,sans-Serif" font-size="10.00">GEU::PointCloud::getNormals</text>
</a>
</g>
</g>
<!-- Node5&#45;&gt;Node7 -->
<g id="edge7_Node000005_Node000007" class="edge">
<title>Node5&#45;&gt;Node7</title>
<g id="a_edge7_Node000005_Node000007"><a xlink:title=" ">
<path fill="none" stroke="#63b8ff" d="M273.14,-234.69C295.49,-239.21 321.72,-244.53 345.08,-249.26"/>
<polygon fill="#63b8ff" stroke="#63b8ff" points="344.3,-252.67 354.8,-251.22 345.69,-245.81 344.3,-252.67"/>
</a>
</g>
</g>
<!-- Node8 -->
<g id="Node000008" class="node">
<title>Node8</title>
<g id="a_Node000008"><a xlink:href="../../db/d06/a01509.html#a52698b429492303948167bed5da1a0d9" target="_top" xlink:title=" ">
<polygon fill="white" stroke="#666666" points="477.75,-196 340.25,-196 340.25,-164 477.75,-164 477.75,-196"/>
<text text-anchor="start" x="348.25" y="-182.5" font-family="Helvetica,sans-Serif" font-size="10.00">GEU::PointCloud::getPoints</text>
<text text-anchor="middle" x="409" y="-170.5" font-family="Helvetica,sans-Serif" font-size="10.00">Position</text>
</a>
</g>
</g>
<!-- Node5&#45;&gt;Node8 -->
<g id="edge8_Node000005_Node000008" class="edge">
<title>Node5&#45;&gt;Node8</title>
<g id="a_edge8_Node000005_Node000008"><a xlink:title=" ">
<path fill="none" stroke="#63b8ff" d="M273.14,-211.63C290.44,-207.57 310.07,-202.97 328.89,-198.55"/>
<polygon fill="#63b8ff" stroke="#63b8ff" points="329.44,-202.02 338.38,-196.33 327.84,-195.2 329.44,-202.02"/>
</a>
</g>
</g>
<!-- Node9 -->
<g id="Node000009" class="node">
<title>Node9</title>
<g id="a_Node000009"><a xlink:href="../../db/d06/a01509.html#a432cabc2346500ac9aba0f77df27d503" target="_top" xlink:title="return all the subclouds in this cloud. If there isn&#39;t any subcloud, the vector will be empty.">
<polygon fill="white" stroke="#666666" points="486.75,-234 331.25,-234 331.25,-214 486.75,-214 486.75,-234"/>
<text text-anchor="middle" x="409" y="-220.5" font-family="Helvetica,sans-Serif" font-size="10.00">GEU::PointCloud::getSubclouds</text>
</a>
</g>
</g>
<!-- Node5&#45;&gt;Node9 -->
<g id="edge9_Node000005_Node000009" class="edge">
<title>Node5&#45;&gt;Node9</title>
<g id="a_edge9_Node000005_Node000009"><a xlink:title=" ">
<path fill="none" stroke="#63b8ff" d="M273.14,-224C287.53,-224 303.53,-224 319.33,-224"/>
<polygon fill="#63b8ff" stroke="#63b8ff" points="319.26,-227.5 329.26,-224 319.26,-220.5 319.26,-227.5"/>
</a>
</g>
</g>
<!-- Node10&#45;&gt;Node8 -->
<g id="edge17_Node000010_Node000008" class="edge">
<title>Node10&#45;&gt;Node8</title>
<g id="a_edge17_Node000010_Node000008"><a xlink:title=" ">
<path fill="none" stroke="#63b8ff" d="M263.67,-130.46C284.1,-138.11 308.86,-147.22 331.25,-155 335.99,-156.65 340.92,-158.33 345.87,-159.99"/>
<polygon fill="#63b8ff" stroke="#63b8ff" points="344.68,-163.29 355.28,-163.13 346.9,-156.65 344.68,-163.29"/>
</a>
</g>
</g>
<!-- Node11 -->
<g id="Node000011" class="node">
<title>Node11</title>
<g id="a_Node000011"><a xlink:href="../../db/d05/a01637.html#a37fe03c1375a2b98345fe219cd59d3bd" target="_top" xlink:title=" ">
<polygon fill="white" stroke="#666666" points="447,-146 371,-146 371,-126 447,-126 447,-146"/>
<text text-anchor="middle" x="409" y="-132.5" font-family="Helvetica,sans-Serif" font-size="10.00">AABB::center</text>
</a>
</g>
</g>
<!-- Node10&#45;&gt;Node11 -->
<g id="edge12_Node000010_Node000011" class="edge">
<title>Node10&#45;&gt;Node11</title>
<g id="a_edge12_Node000010_Node000011"><a xlink:title=" ">
<path fill="none" stroke="#63b8ff" d="M273.14,-120.19C300.24,-123.36 333.03,-127.21 359.49,-130.31"/>
<polygon fill="#63b8ff" stroke="#63b8ff" points="358.94,-133.77 369.28,-131.46 359.75,-126.82 358.94,-133.77"/>
</a>
</g>
</g>
<!-- Node12 -->
<g id="Node000012" class="node">
<title>Node12</title>
<g id="a_Node000012"><a xlink:href="../../db/d06/a01509.html#a2ae9681e4dda937bb5b0218ead067e5e" target="_top" xlink:title=" ">
<polygon fill="white" stroke="#666666" points="472.5,-108 345.5,-108 345.5,-76 472.5,-76 472.5,-108"/>
<text text-anchor="start" x="353.5" y="-94.5" font-family="Helvetica,sans-Serif" font-size="10.00">GEU::PointCloud::convert</text>
<text text-anchor="middle" x="409" y="-82.5" font-family="Helvetica,sans-Serif" font-size="10.00">ToPCLPointCloud</text>
</a>
</g>
</g>
<!-- Node10&#45;&gt;Node12 -->
<g id="edge13_Node000010_Node000012" class="edge">
<title>Node10&#45;&gt;Node12</title>
<g id="a_edge13_Node000010_Node000012"><a xlink:title=" ">
<path fill="none" stroke="#63b8ff" d="M273.14,-107.81C292.07,-105.59 313.78,-103.05 334.17,-100.66"/>
<polygon fill="#63b8ff" stroke="#63b8ff" points="334.3,-104.17 343.83,-99.52 333.49,-97.21 334.3,-104.17"/>
</a>
</g>
</g>
<!-- Node14 -->
<g id="Node000014" class="node">
<title>Node14</title>
<g id="a_Node000014"><a xlink:href="../../db/d04/a01501.html#ab5fdc7a938aa8ae8f6697cb4bf3e94b4" target="_top" xlink:title=" ">
<polygon fill="white" stroke="#666666" points="472.88,-58 345.12,-58 345.12,-38 472.88,-38 472.88,-58"/>
<text text-anchor="middle" x="409" y="-44.5" font-family="Helvetica,sans-Serif" font-size="10.00">GEU::Model3D::getAABB</text>
</a>
</g>
</g>
<!-- Node10&#45;&gt;Node14 -->
<g id="edge15_Node000010_Node000014" class="edge">
<title>Node10&#45;&gt;Node14</title>
<g id="a_edge15_Node000010_Node000014"><a xlink:title=" ">
<path fill="none" stroke="#63b8ff" d="M255.28,-97.52C276.84,-87.77 305.27,-75.66 331.25,-67 337.11,-65.05 343.28,-63.19 349.47,-61.46"/>
<polygon fill="#63b8ff" stroke="#63b8ff" points="350.36,-64.85 359.12,-58.88 348.55,-58.09 350.36,-64.85"/>
</a>
</g>
</g>
<!-- Node16 -->
<g id="Node000016" class="node">
<title>Node16</title>
<g id="a_Node000016"><a xlink:href="../../db/d06/a01509.html#a72ea4942f667757725035e7085d05806" target="_top" xlink:title="Sustituye las normales de los puntos de la nube por los especificados en en el vector.">
<polygon fill="white" stroke="#666666" points="481.88,-20 336.12,-20 336.12,0 481.88,0 481.88,-20"/>
<text text-anchor="middle" x="409" y="-6.5" font-family="Helvetica,sans-Serif" font-size="10.00">GEU::PointCloud::setNormals</text>
</a>
</g>
</g>
<!-- Node10&#45;&gt;Node16 -->
<g id="edge18_Node000010_Node000016" class="edge">
<title>Node10&#45;&gt;Node16</title>
<g id="a_edge18_Node000010_Node000016"><a xlink:title=" ">
<path fill="none" stroke="#63b8ff" d="M236.93,-97.72C257.39,-78.49 294.09,-46.87 331.25,-29 335,-27.2 338.93,-25.56 342.95,-24.06"/>
<polygon fill="#63b8ff" stroke="#63b8ff" points="343.95,-27.42 352.32,-20.93 341.72,-20.78 343.95,-27.42"/>
</a>
</g>
</g>
<!-- Node13 -->
<g id="Node000013" class="node">
<title>Node13</title>
<g id="a_Node000013"><a xlink:href="../../d7/d01/a01589.html#a869b1c796dc79a8c17f4f2ffd6e6ea02" target="_top" xlink:title=" ">
<polygon fill="white" stroke="#666666" points="678.25,-102 522.75,-102 522.75,-82 678.25,-82 678.25,-102"/>
<text text-anchor="middle" x="600.5" y="-88.5" font-family="Helvetica,sans-Serif" font-size="10.00">GEU::VAO::Point::getRGBVec4</text>
</a>
</g>
</g>
<!-- Node12&#45;&gt;Node13 -->
<g id="edge14_Node000012_Node000013" class="edge">
<title>Node12&#45;&gt;Node13</title>
<g id="a_edge14_Node000012_Node000013"><a xlink:title=" ">
<path fill="none" stroke="#63b8ff" d="M472.84,-92C485.09,-92 498.14,-92 511.04,-92"/>
<polygon fill="#63b8ff" stroke="#63b8ff" points="510.8,-95.5 520.8,-92 510.8,-88.5 510.8,-95.5"/>
</a>
</g>
</g>
<!-- Node15 -->
<g id="Node000015" class="node">
<title>Node15</title>
<g id="a_Node000015"><a xlink:href="../../db/d05/a01637.html#ab4dad925a3cb42ad2f00c7d5053369e1" target="_top" xlink:title=" ">
<polygon fill="white" stroke="#666666" points="631.75,-58 569.25,-58 569.25,-38 631.75,-38 631.75,-58"/>
<text text-anchor="middle" x="600.5" y="-44.5" font-family="Helvetica,sans-Serif" font-size="10.00">AABB::dot</text>
</a>
</g>
</g>
<!-- Node14&#45;&gt;Node15 -->
<g id="edge16_Node000014_Node000015" class="edge">
<title>Node14&#45;&gt;Node15</title>
<g id="a_edge16_Node000014_Node000015"><a xlink:title=" ">
<path fill="none" stroke="#63b8ff" d="M473.36,-48C501.01,-48 532.68,-48 557.37,-48"/>
<polygon fill="#63b8ff" stroke="#63b8ff" points="557.36,-51.5 567.36,-48 557.36,-44.5 557.36,-51.5"/>
</a>
</g>
</g>
</g>
</svg>
