<?xml version="1.0" encoding="UTF-8" standalone="no"?>
<!DOCTYPE svg PUBLIC "-//W3C//DTD SVG 1.1//EN"
 "http://www.w3.org/Graphics/SVG/1.1/DTD/svg11.dtd">
<!-- Generated by graphviz version 10.0.1 (20240210.2158)
 -->
<!-- Title: GEU::HyperGUIAdapter::renderGuiObject Pages: 1 -->
<svg width="507pt" height="390pt"
 viewBox="0.00 0.00 506.75 390.00" xmlns="http://www.w3.org/2000/svg" xmlns:xlink="http://www.w3.org/1999/xlink">
<g id="graph0" class="graph" transform="scale(1 1) rotate(0) translate(4 386)">
<title>GEU::HyperGUIAdapter::renderGuiObject</title>
<!-- Node1 -->
<g id="Node000001" class="node">
<title>Node1</title>
<g id="a_Node000001"><a xlink:title="Custom module GUI window contents.">
<polygon fill="#999999" stroke="#666666" points="118.75,-213 0,-213 0,-181 118.75,-181 118.75,-213"/>
<text text-anchor="start" x="8" y="-199.5" font-family="Helvetica,sans-Serif" font-size="10.00">GEU::HyperGUIAdapter</text>
<text text-anchor="middle" x="59.38" y="-187.5" font-family="Helvetica,sans-Serif" font-size="10.00">::renderGuiObject</text>
</a>
</g>
</g>
<!-- Node2 -->
<g id="Node000002" class="node">
<title>Node2</title>
<g id="a_Node000002"><a xlink:href="../../d9/d03/class_g_e_u_1_1_popup_system.html#ae812e21e62615fd347d33ee0ddb0cc82" target="_top" xlink:title=" ">
<polygon fill="white" stroke="#666666" points="308.75,-376 154.75,-376 154.75,-356 308.75,-356 308.75,-376"/>
<text text-anchor="middle" x="231.75" y="-362.5" font-family="Helvetica,sans-Serif" font-size="10.00">GEU::PopupSystem::addPopup</text>
</a>
</g>
</g>
<!-- Node1&#45;&gt;Node2 -->
<g id="edge1_Node000001_Node000002" class="edge">
<title>Node1&#45;&gt;Node2</title>
<g id="a_edge1_Node000001_Node000002"><a xlink:title=" ">
<path fill="none" stroke="#63b8ff" d="M65.97,-213.45C77.44,-244.59 106.67,-312.16 154.75,-347 156.53,-348.29 158.38,-349.49 160.29,-350.61"/>
<polygon fill="#63b8ff" stroke="#63b8ff" points="158.43,-353.59 168.94,-354.88 161.53,-347.31 158.43,-353.59"/>
</a>
</g>
</g>
<!-- Node4 -->
<g id="Node000004" class="node">
<title>Node4</title>
<g id="a_Node000004"><a xlink:href="../../d3/d07/namespace_g_e_u_1_1_gui_utilities.html#a4a9fd6dae16881311edd3998ece123bf" target="_top" xlink:title=" ">
<polygon fill="white" stroke="#666666" points="279.88,-338 183.62,-338 183.62,-306 279.88,-306 279.88,-338"/>
<text text-anchor="start" x="191.62" y="-324.5" font-family="Helvetica,sans-Serif" font-size="10.00">GEU::GuiUtilities::</text>
<text text-anchor="middle" x="231.75" y="-312.5" font-family="Helvetica,sans-Serif" font-size="10.00">Button</text>
</a>
</g>
</g>
<!-- Node1&#45;&gt;Node4 -->
<g id="edge3_Node000001_Node000004" class="edge">
<title>Node1&#45;&gt;Node4</title>
<g id="a_edge3_Node000001_Node000004"><a xlink:title=" ">
<path fill="none" stroke="#63b8ff" d="M71.6,-213.22C87.62,-235.21 119.09,-274.34 154.75,-297 160.31,-300.53 166.41,-303.61 172.67,-306.29"/>
<polygon fill="#63b8ff" stroke="#63b8ff" points="171.29,-309.5 181.87,-309.87 173.82,-302.98 171.29,-309.5"/>
</a>
</g>
</g>
<!-- Node5 -->
<g id="Node000005" class="node">
<title>Node5</title>
<g id="a_Node000005"><a xlink:href="../../d0/d01/namespace_g_e_u_1_1_operators2_d.html#ae528218480d6d3cd22cd7cec24962c14" target="_top" xlink:title="Checks if two given rectangles collide.">
<polygon fill="white" stroke="#666666" points="306.88,-288 156.62,-288 156.62,-256 306.88,-256 306.88,-288"/>
<text text-anchor="start" x="164.62" y="-274.5" font-family="Helvetica,sans-Serif" font-size="10.00">GEU::Operators2D::checkRect</text>
<text text-anchor="middle" x="231.75" y="-262.5" font-family="Helvetica,sans-Serif" font-size="10.00">ToRect</text>
</a>
</g>
</g>
<!-- Node1&#45;&gt;Node5 -->
<g id="edge4_Node000001_Node000005" class="edge">
<title>Node1&#45;&gt;Node5</title>
<g id="a_edge4_Node000001_Node000005"><a xlink:title=" ">
<path fill="none" stroke="#63b8ff" d="M88.26,-213.38C106.73,-223.83 131.72,-237.19 154.75,-247 158.48,-248.59 162.36,-250.14 166.29,-251.65"/>
<polygon fill="#63b8ff" stroke="#63b8ff" points="164.75,-254.81 175.35,-254.98 167.17,-248.24 164.75,-254.81"/>
</a>
</g>
</g>
<!-- Node7 -->
<g id="Node000007" class="node">
<title>Node7</title>
<g id="a_Node000007"><a xlink:href="../../d3/d07/namespace_g_e_u_1_1_gui_utilities.html#a7e5f58fc1e47794679b999cd5778b7aa" target="_top" xlink:title=" ">
<polygon fill="white" stroke="#666666" points="279.88,-238 183.62,-238 183.62,-206 279.88,-206 279.88,-238"/>
<text text-anchor="start" x="191.62" y="-224.5" font-family="Helvetica,sans-Serif" font-size="10.00">GEU::GuiUtilities::</text>
<text text-anchor="middle" x="231.75" y="-212.5" font-family="Helvetica,sans-Serif" font-size="10.00">CollapsingHeader</text>
</a>
</g>
</g>
<!-- Node1&#45;&gt;Node7 -->
<g id="edge6_Node000001_Node000007" class="edge">
<title>Node1&#45;&gt;Node7</title>
<g id="a_edge6_Node000001_Node000007"><a xlink:title=" ">
<path fill="none" stroke="#63b8ff" d="M119.01,-205.6C136.22,-208.13 155.04,-210.89 172.25,-213.42"/>
<polygon fill="#63b8ff" stroke="#63b8ff" points="171.39,-216.83 181.79,-214.82 172.4,-209.9 171.39,-216.83"/>
</a>
</g>
</g>
<!-- Node8 -->
<g id="Node000008" class="node">
<title>Node8</title>
<g id="a_Node000008"><a xlink:href="../../d3/d07/namespace_g_e_u_1_1_gui_utilities.html#a8930ec6275e1a18a072f3156838b629e" target="_top" xlink:title=" ">
<polygon fill="white" stroke="#666666" points="279.88,-188 183.62,-188 183.62,-156 279.88,-156 279.88,-188"/>
<text text-anchor="start" x="191.62" y="-174.5" font-family="Helvetica,sans-Serif" font-size="10.00">GEU::GuiUtilities::</text>
<text text-anchor="middle" x="231.75" y="-162.5" font-family="Helvetica,sans-Serif" font-size="10.00">ComboPointCloud</text>
</a>
</g>
</g>
<!-- Node1&#45;&gt;Node8 -->
<g id="edge7_Node000001_Node000008" class="edge">
<title>Node1&#45;&gt;Node8</title>
<g id="a_edge7_Node000001_Node000008"><a xlink:title=" ">
<path fill="none" stroke="#63b8ff" d="M119.01,-188.4C136.22,-185.87 155.04,-183.11 172.25,-180.58"/>
<polygon fill="#63b8ff" stroke="#63b8ff" points="172.4,-184.1 181.79,-179.18 171.39,-177.17 172.4,-184.1"/>
</a>
</g>
</g>
<!-- Node10 -->
<g id="Node000010" class="node">
<title>Node10</title>
<g id="a_Node000010"><a xlink:href="../../d3/d07/namespace_g_e_u_1_1_gui_utilities.html#a76a49056660c5a9246a94564afbb676a" target="_top" xlink:title=" ">
<polygon fill="white" stroke="#666666" points="479.25,-141 364.25,-141 364.25,-121 479.25,-121 479.25,-141"/>
<text text-anchor="middle" x="421.75" y="-127.5" font-family="Helvetica,sans-Serif" font-size="10.00">GEU::GuiUtilities::Text</text>
</a>
</g>
</g>
<!-- Node1&#45;&gt;Node10 -->
<g id="edge13_Node000001_Node000010" class="edge">
<title>Node1&#45;&gt;Node10</title>
<g id="a_edge13_Node000001_Node000010"><a xlink:title=" ">
<path fill="none" stroke="#63b8ff" d="M84.38,-180.56C102.77,-168.93 129.22,-154.17 154.75,-147 220.14,-128.65 298.01,-126.08 352.54,-127.23"/>
<polygon fill="#63b8ff" stroke="#63b8ff" points="352.21,-130.72 362.3,-127.49 352.4,-123.73 352.21,-130.72"/>
</a>
</g>
</g>
<!-- Node11 -->
<g id="Node000011" class="node">
<title>Node11</title>
<g id="a_Node000011"><a xlink:href="../../d3/d07/namespace_g_e_u_1_1_gui_utilities.html#ad76bc696e612af7a0fece8776f57b76f" target="_top" xlink:title=" ">
<polygon fill="white" stroke="#666666" points="279.88,-82 183.62,-82 183.62,-50 279.88,-50 279.88,-82"/>
<text text-anchor="start" x="191.62" y="-68.5" font-family="Helvetica,sans-Serif" font-size="10.00">GEU::GuiUtilities::</text>
<text text-anchor="middle" x="231.75" y="-56.5" font-family="Helvetica,sans-Serif" font-size="10.00">ProgressBar</text>
</a>
</g>
</g>
<!-- Node1&#45;&gt;Node11 -->
<g id="edge10_Node000001_Node000011" class="edge">
<title>Node1&#45;&gt;Node11</title>
<g id="a_edge10_Node000001_Node000011"><a xlink:title=" ">
<path fill="none" stroke="#63b8ff" d="M77.42,-180.53C95.8,-163.13 126.27,-135.31 154.75,-114 166.78,-105 180.51,-95.98 192.96,-88.23"/>
<polygon fill="#63b8ff" stroke="#63b8ff" points="194.63,-91.31 201.32,-83.1 190.97,-85.35 194.63,-91.31"/>
</a>
</g>
</g>
<!-- Node12 -->
<g id="Node000012" class="node">
<title>Node12</title>
<g id="a_Node000012"><a xlink:href="../../d3/d07/namespace_g_e_u_1_1_gui_utilities.html#ae4d14264e67621c5997464e18c781ea0" target="_top" xlink:title=" ">
<polygon fill="white" stroke="#666666" points="279.88,-32 183.62,-32 183.62,0 279.88,0 279.88,-32"/>
<text text-anchor="start" x="191.62" y="-18.5" font-family="Helvetica,sans-Serif" font-size="10.00">GEU::GuiUtilities::</text>
<text text-anchor="middle" x="231.75" y="-6.5" font-family="Helvetica,sans-Serif" font-size="10.00">SeparatorText</text>
</a>
</g>
</g>
<!-- Node1&#45;&gt;Node12 -->
<g id="edge12_Node000001_Node000012" class="edge">
<title>Node1&#45;&gt;Node12</title>
<g id="a_edge12_Node000001_Node000012"><a xlink:title=" ">
<path fill="none" stroke="#63b8ff" d="M65.85,-180.71C77.28,-149.11 106.7,-79.24 154.75,-41 160.24,-36.63 166.53,-33.01 173.08,-30.02"/>
<polygon fill="#63b8ff" stroke="#63b8ff" points="174.15,-33.36 182.11,-26.37 171.53,-26.87 174.15,-33.36"/>
</a>
</g>
</g>
<!-- Node3 -->
<g id="Node000003" class="node">
<title>Node3</title>
<g id="a_Node000003"><a xlink:href="../../d1/d01/class_g_e_u_1_1_singleton.html#a47c7e7c2110f4cc59c9ff1f5594c366e" target="_top" xlink:title=" ">
<polygon fill="white" stroke="#666666" points="498.75,-382 344.75,-382 344.75,-350 498.75,-350 498.75,-382"/>
<text text-anchor="start" x="352.75" y="-368.5" font-family="Helvetica,sans-Serif" font-size="10.00">GEU::Singleton&lt; PopupSystem</text>
<text text-anchor="middle" x="421.75" y="-356.5" font-family="Helvetica,sans-Serif" font-size="10.00"> &gt;::getInstance</text>
</a>
</g>
</g>
<!-- Node2&#45;&gt;Node3 -->
<g id="edge2_Node000002_Node000003" class="edge">
<title>Node2&#45;&gt;Node3</title>
<g id="a_edge2_Node000002_Node000003"><a xlink:title=" ">
<path fill="none" stroke="#63b8ff" d="M309.22,-366C317,-366 324.96,-366 332.85,-366"/>
<polygon fill="#63b8ff" stroke="#63b8ff" points="332.84,-369.5 342.84,-366 332.84,-362.5 332.84,-369.5"/>
</a>
</g>
</g>
<!-- Node6 -->
<g id="Node000006" class="node">
<title>Node6</title>
<g id="a_Node000006"><a xlink:href="../../d0/d01/namespace_g_e_u_1_1_operators2_d.html#a83039f927cdd11ea0e52ebd2fe48711d" target="_top" xlink:title="Projects point into given vector.">
<polygon fill="white" stroke="#666666" points="488.25,-288 355.25,-288 355.25,-256 488.25,-256 488.25,-288"/>
<text text-anchor="start" x="363.25" y="-274.5" font-family="Helvetica,sans-Serif" font-size="10.00">GEU::Operators2D::project</text>
<text text-anchor="middle" x="421.75" y="-262.5" font-family="Helvetica,sans-Serif" font-size="10.00">Point01</text>
</a>
</g>
</g>
<!-- Node5&#45;&gt;Node6 -->
<g id="edge5_Node000005_Node000006" class="edge">
<title>Node5&#45;&gt;Node6</title>
<g id="a_edge5_Node000005_Node000006"><a xlink:title=" ">
<path fill="none" stroke="#63b8ff" d="M307.32,-272C319.21,-272 331.53,-272 343.48,-272"/>
<polygon fill="#63b8ff" stroke="#63b8ff" points="343.28,-275.5 353.28,-272 343.28,-268.5 343.28,-275.5"/>
</a>
</g>
</g>
<!-- Node9 -->
<g id="Node000009" class="node">
<title>Node9</title>
<g id="a_Node000009"><a xlink:href="../../db/d04/class_g_e_u_1_1_model3_d.html#ab1c9f2d432831bde695e19caf32e3ebd" target="_top" xlink:title=" ">
<polygon fill="white" stroke="#666666" points="484.88,-182 358.62,-182 358.62,-162 484.88,-162 484.88,-182"/>
<text text-anchor="middle" x="421.75" y="-168.5" font-family="Helvetica,sans-Serif" font-size="10.00">GEU::Model3D::getName</text>
</a>
</g>
</g>
<!-- Node8&#45;&gt;Node9 -->
<g id="edge8_Node000008_Node000009" class="edge">
<title>Node8&#45;&gt;Node9</title>
<g id="a_edge8_Node000008_Node000009"><a xlink:title=" ">
<path fill="none" stroke="#63b8ff" d="M280.19,-172C300.48,-172 324.63,-172 347.15,-172"/>
<polygon fill="#63b8ff" stroke="#63b8ff" points="346.88,-175.5 356.88,-172 346.88,-168.5 346.88,-175.5"/>
</a>
</g>
</g>
<!-- Node8&#45;&gt;Node10 -->
<g id="edge9_Node000008_Node000010" class="edge">
<title>Node8&#45;&gt;Node10</title>
<g id="a_edge9_Node000008_Node000010"><a xlink:title=" ">
<path fill="none" stroke="#63b8ff" d="M280.19,-161.65C304.94,-156.26 335.44,-149.6 361.7,-143.88"/>
<polygon fill="#63b8ff" stroke="#63b8ff" points="362.17,-147.36 371.19,-141.81 360.68,-140.52 362.17,-147.36"/>
</a>
</g>
</g>
<!-- Node11&#45;&gt;Node11 -->
<g id="edge11_Node000011_Node000011" class="edge">
<title>Node11&#45;&gt;Node11</title>
<g id="a_edge11_Node000011_Node000011"><a xlink:title=" ">
<path fill="none" stroke="#63b8ff" d="M200.98,-82.44C195.23,-91.58 205.49,-100 231.75,-100 246.11,-100 255.69,-97.48 260.48,-93.71"/>
<polygon fill="#63b8ff" stroke="#63b8ff" points="263.91,-94.4 262.25,-83.93 257.02,-93.14 263.91,-94.4"/>
</a>
</g>
</g>
</g>
</svg>
