<?xml version="1.0" encoding="UTF-8" standalone="no"?>
<!DOCTYPE svg PUBLIC "-//W3C//DTD SVG 1.1//EN"
 "http://www.w3.org/Graphics/SVG/1.1/DTD/svg11.dtd">
<!-- Generated by graphviz version 10.0.1 (20240210.2158)
 -->
<!-- Title: GEU::Operators2D::checkAABBoxToAABBox Pages: 1 -->
<svg width="386pt" height="66pt"
 viewBox="0.00 0.00 385.75 66.00" xmlns="http://www.w3.org/2000/svg" xmlns:xlink="http://www.w3.org/1999/xlink">
<g id="graph0" class="graph" transform="scale(1 1) rotate(0) translate(4 62)">
<title>GEU::Operators2D::checkAABBoxToAABBox</title>
<!-- Node1 -->
<g id="Node000001" class="node">
<title>Node1</title>
<g id="a_Node000001"><a xlink:title=" ">
<polygon fill="#999999" stroke="#666666" points="377.75,-45 210.25,-45 210.25,-13 377.75,-13 377.75,-45"/>
<text text-anchor="start" x="218.25" y="-31.5" font-family="Helvetica,sans-Serif" font-size="10.00">GEU::Operators2D::checkAABBox</text>
<text text-anchor="middle" x="294" y="-19.5" font-family="Helvetica,sans-Serif" font-size="10.00">ToAABBox</text>
</a>
</g>
</g>
<!-- Node2 -->
<g id="Node000002" class="node">
<title>Node2</title>
<g id="a_Node000002"><a xlink:href="../../de/d04/a01640.html#a10b08b5ce392cffc57c1eababc48af8c" target="_top" xlink:title=" ">
<polygon fill="white" stroke="#666666" points="154.38,-58 19.88,-58 19.88,-38 154.38,-38 154.38,-58"/>
<text text-anchor="middle" x="87.12" y="-44.5" font-family="Helvetica,sans-Serif" font-size="10.00">GEU::PointCloud::pickArea</text>
</a>
</g>
</g>
<!-- Node1&#45;&gt;Node2 -->
<g id="edge1_Node000001_Node000002" class="edge">
<title>Node1&#45;&gt;Node2</title>
<g id="a_edge1_Node000001_Node000002"><a xlink:title=" ">
<path fill="none" stroke="#63b8ff" d="M198.66,-37.75C183.79,-39.13 168.69,-40.53 154.62,-41.83"/>
<polygon fill="#63b8ff" stroke="#63b8ff" points="198.82,-41.25 208.46,-36.84 198.18,-34.28 198.82,-41.25"/>
</a>
</g>
</g>
<!-- Node3 -->
<g id="Node000003" class="node">
<title>Node3</title>
<g id="a_Node000003"><a xlink:href="../../de/d04/a01640.html#a015047b0999a6fff28fd474e4e37ca94" target="_top" xlink:title=" ">
<polygon fill="white" stroke="#666666" points="174.25,-20 0,-20 0,0 174.25,0 174.25,-20"/>
<text text-anchor="middle" x="87.12" y="-6.5" font-family="Helvetica,sans-Serif" font-size="10.00">GEU::PointCloud::pickMeshletsArea</text>
</a>
</g>
</g>
<!-- Node1&#45;&gt;Node3 -->
<g id="edge2_Node000001_Node000003" class="edge">
<title>Node1&#45;&gt;Node3</title>
<g id="a_edge2_Node000001_Node000003"><a xlink:title=" ">
<path fill="none" stroke="#63b8ff" d="M198.69,-20.25C190.66,-19.51 182.57,-18.76 174.62,-18.02"/>
<polygon fill="#63b8ff" stroke="#63b8ff" points="198.18,-23.72 208.46,-21.16 198.82,-16.75 198.18,-23.72"/>
</a>
</g>
</g>
</g>
</svg>
