<?xml version="1.0" encoding="UTF-8" standalone="no"?>
<!DOCTYPE svg PUBLIC "-//W3C//DTD SVG 1.1//EN"
 "http://www.w3.org/Graphics/SVG/1.1/DTD/svg11.dtd">
<!-- Generated by graphviz version 10.0.1 (20240210.2158)
 -->
<!-- Title: json::jobject::has_key Pages: 1 -->
<svg width="435pt" height="28pt"
 viewBox="0.00 0.00 434.75 28.00" xmlns="http://www.w3.org/2000/svg" xmlns:xlink="http://www.w3.org/1999/xlink">
<g id="graph0" class="graph" transform="scale(1 1) rotate(0) translate(4 24)">
<title>json::jobject::has_key</title>
<!-- Node1 -->
<g id="Node000001" class="node">
<title>Node1</title>
<g id="a_Node000001"><a xlink:title="Determines if an object contains a key.">
<polygon fill="#999999" stroke="#666666" points="426.75,-20 315.5,-20 315.5,0 426.75,0 426.75,-20"/>
<text text-anchor="middle" x="371.12" y="-6.5" font-family="Helvetica,sans-Serif" font-size="10.00">json::jobject::has_key</text>
</a>
</g>
</g>
<!-- Node2 -->
<g id="Node000002" class="node">
<title>Node2</title>
<g id="a_Node000002"><a xlink:href="../../da/d01/a02000.html#ab51901a594851a5a64c5378d41ec1488" target="_top" xlink:title="Appends a key&#45;value pair to a JSON object.">
<polygon fill="white" stroke="#666666" points="279.5,-20 157.75,-20 157.75,0 279.5,0 279.5,-20"/>
<text text-anchor="middle" x="218.62" y="-6.5" font-family="Helvetica,sans-Serif" font-size="10.00">json::jobject::operator+=</text>
</a>
</g>
</g>
<!-- Node1&#45;&gt;Node2 -->
<g id="edge1_Node000001_Node000002" class="edge">
<title>Node1&#45;&gt;Node2</title>
<g id="a_edge1_Node000001_Node000002"><a xlink:title=" ">
<path fill="none" stroke="#63b8ff" d="M304.13,-10C296.08,-10 287.89,-10 279.94,-10"/>
<polygon fill="#63b8ff" stroke="#63b8ff" points="303.85,-13.5 313.85,-10 303.85,-6.5 303.85,-13.5"/>
</a>
</g>
</g>
<!-- Node3 -->
<g id="Node000003" class="node">
<title>Node3</title>
<g id="a_Node000003"><a xlink:href="../../da/d01/a02000.html#a6fd8d8a73211cd0d545c44215bee7734" target="_top" xlink:title="Appends one JSON object to another.">
<polygon fill="white" stroke="#666666" points="121.75,-20 0,-20 0,0 121.75,0 121.75,-20"/>
<text text-anchor="middle" x="60.88" y="-6.5" font-family="Helvetica,sans-Serif" font-size="10.00">json::jobject::operator+=</text>
</a>
</g>
</g>
<!-- Node2&#45;&gt;Node3 -->
<g id="edge2_Node000002_Node000003" class="edge">
<title>Node2&#45;&gt;Node3</title>
<g id="a_edge2_Node000002_Node000003"><a xlink:title=" ">
<path fill="none" stroke="#63b8ff" d="M146.17,-10C138.15,-10 130.05,-10 122.19,-10"/>
<polygon fill="#63b8ff" stroke="#63b8ff" points="145.89,-13.5 155.89,-10 145.89,-6.5 145.89,-13.5"/>
</a>
</g>
</g>
</g>
</svg>
