<?xml version="1.0" encoding="UTF-8" standalone="no"?>
<!DOCTYPE svg PUBLIC "-//W3C//DTD SVG 1.1//EN"
 "http://www.w3.org/Graphics/SVG/1.1/DTD/svg11.dtd">
<!-- Generated by graphviz version 10.0.1 (20240210.2158)
 -->
<!-- Title: GEU::InputManager::mouseCursorCallback Pages: 1 -->
<svg width="434pt" height="306pt"
 viewBox="0.00 0.00 434.00 306.00" xmlns="http://www.w3.org/2000/svg" xmlns:xlink="http://www.w3.org/1999/xlink">
<g id="graph0" class="graph" transform="scale(1 1) rotate(0) translate(4 302)">
<title>GEU::InputManager::mouseCursorCallback</title>
<!-- Node1 -->
<g id="Node000001" class="node">
<title>Node1</title>
<g id="a_Node000001"><a xlink:title=" ">
<polygon fill="#999999" stroke="#666666" points="111.25,-200 0,-200 0,-168 111.25,-168 111.25,-200"/>
<text text-anchor="start" x="8" y="-186.5" font-family="Helvetica,sans-Serif" font-size="10.00">GEU::InputManager::</text>
<text text-anchor="middle" x="55.62" y="-174.5" font-family="Helvetica,sans-Serif" font-size="10.00">mouseCursorCallback</text>
</a>
</g>
</g>
<!-- Node2 -->
<g id="Node000002" class="node">
<title>Node2</title>
<g id="a_Node000002"><a xlink:href="../../d5/d01/a01945.html#a47c7e7c2110f4cc59c9ff1f5594c366e" target="_top" xlink:title=" ">
<polygon fill="white" stroke="#666666" points="412.88,-298 303.88,-298 303.88,-266 412.88,-266 412.88,-298"/>
<text text-anchor="start" x="311.88" y="-284.5" font-family="Helvetica,sans-Serif" font-size="10.00">GEU::Singleton&lt; GUI</text>
<text text-anchor="middle" x="358.38" y="-272.5" font-family="Helvetica,sans-Serif" font-size="10.00"> &gt;::getInstance</text>
</a>
</g>
</g>
<!-- Node1&#45;&gt;Node2 -->
<g id="edge1_Node000001_Node000002" class="edge">
<title>Node1&#45;&gt;Node2</title>
<g id="a_edge1_Node000001_Node000002"><a xlink:title=" ">
<path fill="none" stroke="#63b8ff" d="M106.96,-200.4C159.01,-217.36 240.32,-243.86 296.08,-262.03"/>
<polygon fill="#63b8ff" stroke="#63b8ff" points="294.84,-265.3 305.43,-265.07 297.01,-258.65 294.84,-265.3"/>
</a>
</g>
</g>
<!-- Node3 -->
<g id="Node000003" class="node">
<title>Node3</title>
<g id="a_Node000003"><a xlink:href="../../d1/d03/a01429.html#a9d27150ccccbfe0d72c6e54a053de886" target="_top" xlink:title=" ">
<polygon fill="white" stroke="#666666" points="254.75,-178 147.25,-178 147.25,-146 254.75,-146 254.75,-178"/>
<text text-anchor="start" x="155.25" y="-164.5" font-family="Helvetica,sans-Serif" font-size="10.00">GEU::InputManager::</text>
<text text-anchor="middle" x="201" y="-152.5" font-family="Helvetica,sans-Serif" font-size="10.00">mouseMovement</text>
</a>
</g>
</g>
<!-- Node1&#45;&gt;Node3 -->
<g id="edge2_Node000001_Node000003" class="edge">
<title>Node1&#45;&gt;Node3</title>
<g id="a_edge2_Node000001_Node000003"><a xlink:title=" ">
<path fill="none" stroke="#63b8ff" d="M111.65,-175.56C119.48,-174.35 127.6,-173.11 135.6,-171.88"/>
<polygon fill="#63b8ff" stroke="#63b8ff" points="135.93,-175.37 145.28,-170.4 134.87,-168.45 135.93,-175.37"/>
</a>
</g>
</g>
<!-- Node3&#45;&gt;Node2 -->
<g id="edge5_Node000003_Node000002" class="edge">
<title>Node3&#45;&gt;Node2</title>
<g id="a_edge5_Node000003_Node000002"><a xlink:title=" ">
<path fill="none" stroke="#63b8ff" d="M213.43,-178.28C228.83,-199.13 258.1,-235.18 290.75,-257 292.52,-258.18 294.36,-259.32 296.24,-260.42"/>
<polygon fill="#63b8ff" stroke="#63b8ff" points="294.14,-263.27 304.63,-264.8 297.39,-257.07 294.14,-263.27"/>
</a>
</g>
</g>
<!-- Node4 -->
<g id="Node000004" class="node">
<title>Node4</title>
<g id="a_Node000004"><a xlink:href="../../df/d00/a01385.html#a3d018ff85d4d30cc3eb2ab5f995d9630" target="_top" xlink:title=" ">
<polygon fill="white" stroke="#666666" points="411.75,-248 305,-248 305,-228 411.75,-228 411.75,-248"/>
<text text-anchor="middle" x="358.38" y="-234.5" font-family="Helvetica,sans-Serif" font-size="10.00">GEU::Camera::boom</text>
</a>
</g>
</g>
<!-- Node3&#45;&gt;Node4 -->
<g id="edge3_Node000003_Node000004" class="edge">
<title>Node3&#45;&gt;Node4</title>
<g id="a_edge3_Node000003_Node000004"><a xlink:title=" ">
<path fill="none" stroke="#63b8ff" d="M223.58,-178.43C240.95,-191 266.39,-207.99 290.75,-219 294.71,-220.79 298.87,-222.45 303.11,-223.98"/>
<polygon fill="#63b8ff" stroke="#63b8ff" points="301.68,-227.2 312.27,-227.06 303.9,-220.56 301.68,-227.2"/>
</a>
</g>
</g>
<!-- Node5 -->
<g id="Node000005" class="node">
<title>Node5</title>
<g id="a_Node000005"><a xlink:href="../../dc/d06/a01517.html#aab42a61060bb126a7f7eff0417abe72a" target="_top" xlink:title=" ">
<polygon fill="white" stroke="#666666" points="426,-210 290.75,-210 290.75,-190 426,-190 426,-210"/>
<text text-anchor="middle" x="358.38" y="-196.5" font-family="Helvetica,sans-Serif" font-size="10.00">GEU::Renderer::getCamera</text>
</a>
</g>
</g>
<!-- Node3&#45;&gt;Node5 -->
<g id="edge4_Node000003_Node000005" class="edge">
<title>Node3&#45;&gt;Node5</title>
<g id="a_edge4_Node000003_Node000005"><a xlink:title=" ">
<path fill="none" stroke="#63b8ff" d="M255.04,-174.97C270.67,-178.79 287.79,-182.98 303.48,-186.82"/>
<polygon fill="#63b8ff" stroke="#63b8ff" points="302.59,-190.2 313.14,-189.18 304.25,-183.4 302.59,-190.2"/>
</a>
</g>
</g>
<!-- Node6 -->
<g id="Node000006" class="node">
<title>Node6</title>
<g id="a_Node000006"><a xlink:href="../../df/d00/a01385.html#aeb635da2341a0665bcc77e3a6a18dfa3" target="_top" xlink:title=" ">
<polygon fill="white" stroke="#666666" points="414.38,-172 302.38,-172 302.38,-152 414.38,-152 414.38,-172"/>
<text text-anchor="middle" x="358.38" y="-158.5" font-family="Helvetica,sans-Serif" font-size="10.00">GEU::Camera::orbitXZ</text>
</a>
</g>
</g>
<!-- Node3&#45;&gt;Node6 -->
<g id="edge6_Node000003_Node000006" class="edge">
<title>Node3&#45;&gt;Node6</title>
<g id="a_edge6_Node000003_Node000006"><a xlink:title=" ">
<path fill="none" stroke="#63b8ff" d="M255.04,-162C266.5,-162 278.75,-162 290.66,-162"/>
<polygon fill="#63b8ff" stroke="#63b8ff" points="290.42,-165.5 300.42,-162 290.42,-158.5 290.42,-165.5"/>
</a>
</g>
</g>
<!-- Node7 -->
<g id="Node000007" class="node">
<title>Node7</title>
<g id="a_Node000007"><a xlink:href="../../df/d00/a01385.html#adcb84236ed659a0a01ff9d146c10af8a" target="_top" xlink:title=" ">
<polygon fill="white" stroke="#666666" points="412.5,-134 304.25,-134 304.25,-114 412.5,-114 412.5,-134"/>
<text text-anchor="middle" x="358.38" y="-120.5" font-family="Helvetica,sans-Serif" font-size="10.00">GEU::Camera::orbitY</text>
</a>
</g>
</g>
<!-- Node3&#45;&gt;Node7 -->
<g id="edge7_Node000003_Node000007" class="edge">
<title>Node3&#45;&gt;Node7</title>
<g id="a_edge7_Node000003_Node000007"><a xlink:title=" ">
<path fill="none" stroke="#63b8ff" d="M255.04,-149.03C270.67,-145.21 287.79,-141.02 303.48,-137.18"/>
<polygon fill="#63b8ff" stroke="#63b8ff" points="304.25,-140.6 313.14,-134.82 302.59,-133.8 304.25,-140.6"/>
</a>
</g>
</g>
<!-- Node8 -->
<g id="Node000008" class="node">
<title>Node8</title>
<g id="a_Node000008"><a xlink:href="../../df/d00/a01385.html#a85cbd1db438eee7b53e63c98910dce6c" target="_top" xlink:title=" ">
<polygon fill="white" stroke="#666666" points="407.62,-96 309.12,-96 309.12,-76 407.62,-76 407.62,-96"/>
<text text-anchor="middle" x="358.38" y="-82.5" font-family="Helvetica,sans-Serif" font-size="10.00">GEU::Camera::pan</text>
</a>
</g>
</g>
<!-- Node3&#45;&gt;Node8 -->
<g id="edge8_Node000003_Node000008" class="edge">
<title>Node3&#45;&gt;Node8</title>
<g id="a_edge8_Node000003_Node000008"><a xlink:title=" ">
<path fill="none" stroke="#63b8ff" d="M223.58,-145.57C240.95,-133 266.39,-116.01 290.75,-105 294.71,-103.21 298.87,-101.55 303.11,-100.02"/>
<polygon fill="#63b8ff" stroke="#63b8ff" points="303.9,-103.44 312.27,-96.94 301.68,-96.8 303.9,-103.44"/>
</a>
</g>
</g>
<!-- Node9 -->
<g id="Node000009" class="node">
<title>Node9</title>
<g id="a_Node000009"><a xlink:href="../../df/d00/a01385.html#aa3dcf376210deb9856bb5ebcf2d420d0" target="_top" xlink:title=" ">
<polygon fill="white" stroke="#666666" points="405,-58 311.75,-58 311.75,-38 405,-38 405,-58"/>
<text text-anchor="middle" x="358.38" y="-44.5" font-family="Helvetica,sans-Serif" font-size="10.00">GEU::Camera::tilt</text>
</a>
</g>
</g>
<!-- Node3&#45;&gt;Node9 -->
<g id="edge9_Node000003_Node000009" class="edge">
<title>Node3&#45;&gt;Node9</title>
<g id="a_edge9_Node000003_Node000009"><a xlink:title=" ">
<path fill="none" stroke="#63b8ff" d="M212.91,-145.67C227.95,-124.43 257.05,-87.6 290.75,-67 294.03,-64.99 297.53,-63.19 301.15,-61.58"/>
<polygon fill="#63b8ff" stroke="#63b8ff" points="302.1,-64.96 310.13,-58.05 299.55,-58.45 302.1,-64.96"/>
</a>
</g>
</g>
<!-- Node10 -->
<g id="Node000010" class="node">
<title>Node10</title>
<g id="a_Node000010"><a xlink:href="../../df/d00/a01385.html#a1fd7c9e61fb63f0e7ab4571113e43612" target="_top" xlink:title=" ">
<polygon fill="white" stroke="#666666" points="410.62,-20 306.12,-20 306.12,0 410.62,0 410.62,-20"/>
<text text-anchor="middle" x="358.38" y="-6.5" font-family="Helvetica,sans-Serif" font-size="10.00">GEU::Camera::truck</text>
</a>
</g>
</g>
<!-- Node3&#45;&gt;Node10 -->
<g id="edge10_Node000003_Node000010" class="edge">
<title>Node3&#45;&gt;Node10</title>
<g id="a_edge10_Node000003_Node000010"><a xlink:title=" ">
<path fill="none" stroke="#63b8ff" d="M208.34,-145.79C220.19,-117.67 248.36,-59.91 290.75,-29 292.54,-27.7 294.41,-26.48 296.35,-25.35"/>
<polygon fill="#63b8ff" stroke="#63b8ff" points="297.69,-28.59 305.12,-21.04 294.6,-22.31 297.69,-28.59"/>
</a>
</g>
</g>
</g>
</svg>
