<?xml version="1.0" encoding="UTF-8" standalone="no"?>
<!DOCTYPE svg PUBLIC "-//W3C//DTD SVG 1.1//EN"
 "http://www.w3.org/Graphics/SVG/1.1/DTD/svg11.dtd">
<!-- Generated by graphviz version 10.0.1 (20240210.2158)
 -->
<!-- Title: C:/GitHub/GEU/GEU/Source/UI/PickingWindow.h Pages: 1 -->
<svg width="689pt" height="488pt"
 viewBox="0.00 0.00 689.25 488.00" xmlns="http://www.w3.org/2000/svg" xmlns:xlink="http://www.w3.org/1999/xlink">
<g id="graph0" class="graph" transform="scale(1 1) rotate(0) translate(4 484)">
<title>C:/GitHub/GEU/GEU/Source/UI/PickingWindow.h</title>
<!-- Node1 -->
<g id="Node000001" class="node">
<title>Node1</title>
<g id="a_Node000001"><a xlink:title=" ">
<polygon fill="#999999" stroke="#666666" points="314,-480 173.5,-480 173.5,-448 314,-448 314,-480"/>
<text text-anchor="start" x="181.5" y="-466.5" font-family="Helvetica,sans-Serif" font-size="10.00">C:/GitHub/GEU/GEU/Source</text>
<text text-anchor="middle" x="243.75" y="-454.5" font-family="Helvetica,sans-Serif" font-size="10.00">/UI/PickingWindow.h</text>
</a>
</g>
</g>
<!-- Node2 -->
<g id="Node000002" class="node">
<title>Node2</title>
<g id="a_Node000002"><a xlink:title=" ">
<polygon fill="#e0e0e0" stroke="#999999" points="131.5,-412 0,-412 0,-392 131.5,-392 131.5,-412"/>
<text text-anchor="middle" x="65.75" y="-398.5" font-family="Helvetica,sans-Serif" font-size="10.00">pcl/octree/octree_search.h</text>
</a>
</g>
</g>
<!-- Node1&#45;&gt;Node2 -->
<g id="edge1_Node000001_Node000002" class="edge">
<title>Node1&#45;&gt;Node2</title>
<g id="a_edge1_Node000001_Node000002"><a xlink:title=" ">
<path fill="none" stroke="#63b8ff" d="M197.91,-447.55C169.03,-437.81 132.15,-425.38 104.69,-416.13"/>
<polygon fill="#63b8ff" stroke="#63b8ff" points="105.95,-412.86 95.36,-412.98 103.71,-419.49 105.95,-412.86"/>
</a>
</g>
</g>
<!-- Node3 -->
<g id="Node000003" class="node">
<title>Node3</title>
<g id="a_Node000003"><a xlink:href="../../de/d6f/_i___g_u_i_window_8h.html" target="_top" xlink:title=" ">
<polygon fill="white" stroke="#666666" points="232.12,-412 149.38,-412 149.38,-392 232.12,-392 232.12,-412"/>
<text text-anchor="middle" x="190.75" y="-398.5" font-family="Helvetica,sans-Serif" font-size="10.00">I_GUIWindow.h</text>
</a>
</g>
</g>
<!-- Node1&#45;&gt;Node3 -->
<g id="edge2_Node000001_Node000003" class="edge">
<title>Node1&#45;&gt;Node3</title>
<g id="a_edge2_Node000001_Node000003"><a xlink:title=" ">
<path fill="none" stroke="#63b8ff" d="M230.1,-447.55C222.89,-439.39 214.01,-429.33 206.51,-420.84"/>
<polygon fill="#63b8ff" stroke="#63b8ff" points="209.31,-418.72 200.06,-413.54 204.06,-423.35 209.31,-418.72"/>
</a>
</g>
</g>
<!-- Node4 -->
<g id="Node000004" class="node">
<title>Node4</title>
<g id="a_Node000004"><a xlink:href="../../dc/d05/_point_cloud_8h.html" target="_top" xlink:title=" ">
<polygon fill="white" stroke="#666666" points="345.12,-412 250.38,-412 250.38,-392 345.12,-392 345.12,-412"/>
<text text-anchor="middle" x="297.75" y="-398.5" font-family="Helvetica,sans-Serif" font-size="10.00">Core/PointCloud.h</text>
</a>
</g>
</g>
<!-- Node1&#45;&gt;Node4 -->
<g id="edge3_Node000001_Node000004" class="edge">
<title>Node1&#45;&gt;Node4</title>
<g id="a_edge3_Node000001_Node000004"><a xlink:title=" ">
<path fill="none" stroke="#63b8ff" d="M257.66,-447.55C265,-439.39 274.05,-429.33 281.69,-420.84"/>
<polygon fill="#63b8ff" stroke="#63b8ff" points="284.18,-423.31 288.27,-413.53 278.98,-418.62 284.18,-423.31"/>
</a>
</g>
</g>
<!-- Node20 -->
<g id="Node000020" class="node">
<title>Node20</title>
<g id="a_Node000020"><a xlink:href="../../d5/d91/_camera_8h.html" target="_top" xlink:title=" ">
<polygon fill="white" stroke="#666666" points="521.75,-412 403.75,-412 403.75,-392 521.75,-392 521.75,-412"/>
<text text-anchor="middle" x="462.75" y="-398.5" font-family="Helvetica,sans-Serif" font-size="10.00">Core/Camera/Camera.h</text>
</a>
</g>
</g>
<!-- Node1&#45;&gt;Node20 -->
<g id="edge24_Node000001_Node000020" class="edge">
<title>Node1&#45;&gt;Node20</title>
<g id="a_edge24_Node000001_Node000020"><a xlink:title=" ">
<path fill="none" stroke="#63b8ff" d="M300.15,-447.55C336.47,-437.6 383.08,-424.83 417.08,-415.51"/>
<polygon fill="#63b8ff" stroke="#63b8ff" points="417.91,-418.91 426.63,-412.9 416.06,-412.16 417.91,-418.91"/>
</a>
</g>
</g>
<!-- Node5 -->
<g id="Node000005" class="node">
<title>Node5</title>
<g id="a_Node000005"><a xlink:title=" ">
<polygon fill="#e0e0e0" stroke="#999999" points="191.5,-356 102,-356 102,-336 191.5,-336 191.5,-356"/>
<text text-anchor="middle" x="146.75" y="-342.5" font-family="Helvetica,sans-Serif" font-size="10.00">pcl/point_cloud.h</text>
</a>
</g>
</g>
<!-- Node4&#45;&gt;Node5 -->
<g id="edge4_Node000004_Node000005" class="edge">
<title>Node4&#45;&gt;Node5</title>
<g id="a_edge4_Node000004_Node000005"><a xlink:title=" ">
<path fill="none" stroke="#63b8ff" d="M271.45,-391.59C247.24,-382.94 211.07,-370 183.91,-360.29"/>
<polygon fill="#63b8ff" stroke="#63b8ff" points="185.28,-357.06 174.68,-356.99 182.92,-363.65 185.28,-357.06"/>
</a>
</g>
</g>
<!-- Node6 -->
<g id="Node000006" class="node">
<title>Node6</title>
<g id="a_Node000006"><a xlink:href="../../d1/dfb/_lines_model_8h.html" target="_top" xlink:title=" ">
<polygon fill="white" stroke="#666666" points="393.62,-356 319.88,-356 319.88,-336 393.62,-336 393.62,-356"/>
<text text-anchor="middle" x="356.75" y="-342.5" font-family="Helvetica,sans-Serif" font-size="10.00">LinesModel.h</text>
</a>
</g>
</g>
<!-- Node4&#45;&gt;Node6 -->
<g id="edge5_Node000004_Node000006" class="edge">
<title>Node4&#45;&gt;Node6</title>
<g id="a_edge5_Node000004_Node000006"><a xlink:title=" ">
<path fill="none" stroke="#63b8ff" d="M308.03,-391.59C316.32,-384.01 328.2,-373.13 338.15,-364.02"/>
<polygon fill="#63b8ff" stroke="#63b8ff" points="340.46,-366.65 345.47,-357.32 335.73,-361.49 340.46,-366.65"/>
</a>
</g>
</g>
<!-- Node18 -->
<g id="Node000018" class="node">
<title>Node18</title>
<g id="a_Node000018"><a xlink:href="../../dd/db7/_g_p_u_resources_8h.html" target="_top" xlink:title=" ">
<polygon fill="white" stroke="#666666" points="301.62,-356 209.88,-356 209.88,-336 301.62,-336 301.62,-356"/>
<text text-anchor="middle" x="255.75" y="-342.5" font-family="Helvetica,sans-Serif" font-size="10.00">GPUResources.h</text>
</a>
</g>
</g>
<!-- Node4&#45;&gt;Node18 -->
<g id="edge21_Node000004_Node000018" class="edge">
<title>Node4&#45;&gt;Node18</title>
<g id="a_edge21_Node000004_Node000018"><a xlink:title=" ">
<path fill="none" stroke="#63b8ff" d="M290.43,-391.59C284.77,-384.32 276.76,-374.02 269.86,-365.15"/>
<polygon fill="#63b8ff" stroke="#63b8ff" points="272.81,-363.24 263.91,-357.49 267.29,-367.54 272.81,-363.24"/>
</a>
</g>
</g>
<!-- Node7 -->
<g id="Node000007" class="node">
<title>Node7</title>
<g id="a_Node000007"><a xlink:href="../../d0/d8e/_model3_d_8h.html" target="_top" xlink:title=" ">
<polygon fill="white" stroke="#666666" points="570,-300 507.5,-300 507.5,-280 570,-280 570,-300"/>
<text text-anchor="middle" x="538.75" y="-286.5" font-family="Helvetica,sans-Serif" font-size="10.00">Model3D.h</text>
</a>
</g>
</g>
<!-- Node6&#45;&gt;Node7 -->
<g id="edge6_Node000006_Node000007" class="edge">
<title>Node6&#45;&gt;Node7</title>
<g id="a_edge6_Node000006_Node000007"><a xlink:title=" ">
<path fill="none" stroke="#63b8ff" d="M388.45,-335.59C418.37,-326.72 463.44,-313.34 496.42,-303.56"/>
<polygon fill="#63b8ff" stroke="#63b8ff" points="497.06,-307.02 505.66,-300.82 495.07,-300.31 497.06,-307.02"/>
</a>
</g>
</g>
<!-- Node17 -->
<g id="Node000017" class="node">
<title>Node17</title>
<g id="a_Node000017"><a xlink:href="../../d9/dd4/_v_a_o_8h.html" target="_top" xlink:title=" ">
<polygon fill="white" stroke="#666666" points="354.38,-244 309.12,-244 309.12,-224 354.38,-224 354.38,-244"/>
<text text-anchor="middle" x="331.75" y="-230.5" font-family="Helvetica,sans-Serif" font-size="10.00">VAO.h</text>
</a>
</g>
</g>
<!-- Node6&#45;&gt;Node17 -->
<g id="edge19_Node000006_Node000017" class="edge">
<title>Node6&#45;&gt;Node17</title>
<g id="a_edge19_Node000006_Node000017"><a xlink:title=" ">
<path fill="none" stroke="#63b8ff" d="M354.62,-335.62C350.6,-317.92 341.8,-279.24 336.37,-255.32"/>
<polygon fill="#63b8ff" stroke="#63b8ff" points="339.84,-254.81 334.21,-245.83 333.01,-256.36 339.84,-254.81"/>
</a>
</g>
</g>
<!-- Node8 -->
<g id="Node000008" class="node">
<title>Node8</title>
<g id="a_Node000008"><a xlink:href="../../d3/d09/_material_8h.html" target="_top" xlink:title=" ">
<polygon fill="white" stroke="#666666" points="566.12,-244 507.38,-244 507.38,-224 566.12,-224 566.12,-244"/>
<text text-anchor="middle" x="536.75" y="-230.5" font-family="Helvetica,sans-Serif" font-size="10.00">Material.h</text>
</a>
</g>
</g>
<!-- Node7&#45;&gt;Node8 -->
<g id="edge7_Node000007_Node000008" class="edge">
<title>Node7&#45;&gt;Node8</title>
<g id="a_edge7_Node000007_Node000008"><a xlink:title=" ">
<path fill="none" stroke="#63b8ff" d="M538.4,-279.59C538.16,-273.01 537.82,-263.96 537.52,-255.73"/>
<polygon fill="#63b8ff" stroke="#63b8ff" points="541.02,-255.67 537.15,-245.81 534.02,-255.93 541.02,-255.67"/>
</a>
</g>
</g>
<!-- Node16 -->
<g id="Node000016" class="node">
<title>Node16</title>
<g id="a_Node000016"><a xlink:href="../../d2/d00/_a_a_b_b_8h.html" target="_top" xlink:title=" ">
<polygon fill="white" stroke="#666666" points="681.25,-244 584.25,-244 584.25,-224 681.25,-224 681.25,-244"/>
<text text-anchor="middle" x="632.75" y="-230.5" font-family="Helvetica,sans-Serif" font-size="10.00">Geometry/AABB.h</text>
</a>
</g>
</g>
<!-- Node7&#45;&gt;Node16 -->
<g id="edge18_Node000007_Node000016" class="edge">
<title>Node7&#45;&gt;Node16</title>
<g id="a_edge18_Node000007_Node000016"><a xlink:title=" ">
<path fill="none" stroke="#63b8ff" d="M555.12,-279.59C569.32,-271.44 590.13,-259.48 606.63,-250"/>
<polygon fill="#63b8ff" stroke="#63b8ff" points="608.01,-253.25 614.94,-245.23 604.52,-247.18 608.01,-253.25"/>
</a>
</g>
</g>
<!-- Node9 -->
<g id="Node000009" class="node">
<title>Node9</title>
<g id="a_Node000009"><a xlink:title=" ">
<polygon fill="#e0e0e0" stroke="#999999" points="664.25,-132 579.25,-132 579.25,-112 664.25,-112 664.25,-132"/>
<text text-anchor="middle" x="621.75" y="-118.5" font-family="Helvetica,sans-Serif" font-size="10.00">assimp/scene.h</text>
</a>
</g>
</g>
<!-- Node8&#45;&gt;Node9 -->
<g id="edge8_Node000008_Node000009" class="edge">
<title>Node8&#45;&gt;Node9</title>
<g id="a_edge8_Node000008_Node000009"><a xlink:title=" ">
<path fill="none" stroke="#63b8ff" d="M544.55,-223.81C552.13,-214.79 563.93,-200.6 573.75,-188 585.85,-172.48 599.09,-154.46 608.6,-141.33"/>
<polygon fill="#63b8ff" stroke="#63b8ff" points="611.17,-143.76 614.18,-133.6 605.49,-139.66 611.17,-143.76"/>
</a>
</g>
</g>
<!-- Node10 -->
<g id="Node000010" class="node">
<title>Node10</title>
<g id="a_Node000010"><a xlink:href="../../d1/d4f/_rendering_shader_8h.html" target="_top" xlink:title=" ">
<polygon fill="white" stroke="#666666" points="490.12,-188 329.38,-188 329.38,-168 490.12,-168 490.12,-188"/>
<text text-anchor="middle" x="409.75" y="-174.5" font-family="Helvetica,sans-Serif" font-size="10.00">Core/Shaders/RenderingShader.h</text>
</a>
</g>
</g>
<!-- Node8&#45;&gt;Node10 -->
<g id="edge9_Node000008_Node000010" class="edge">
<title>Node8&#45;&gt;Node10</title>
<g id="a_edge9_Node000008_Node000010"><a xlink:title=" ">
<path fill="none" stroke="#63b8ff" d="M514.63,-223.59C494.72,-215.13 465.2,-202.58 442.54,-192.94"/>
<polygon fill="#63b8ff" stroke="#63b8ff" points="444.01,-189.76 433.44,-189.07 441.27,-196.21 444.01,-189.76"/>
</a>
</g>
</g>
<!-- Node14 -->
<g id="Node000014" class="node">
<title>Node14</title>
<g id="a_Node000014"><a xlink:href="../../de/dbf/_texture_8h.html" target="_top" xlink:title=" ">
<polygon fill="white" stroke="#666666" points="565,-188 508.5,-188 508.5,-168 565,-168 565,-188"/>
<text text-anchor="middle" x="536.75" y="-174.5" font-family="Helvetica,sans-Serif" font-size="10.00">Texture.h</text>
</a>
</g>
</g>
<!-- Node8&#45;&gt;Node14 -->
<g id="edge14_Node000008_Node000014" class="edge">
<title>Node8&#45;&gt;Node14</title>
<g id="a_edge14_Node000008_Node000014"><a xlink:title=" ">
<path fill="none" stroke="#63b8ff" d="M536.75,-223.59C536.75,-217.01 536.75,-207.96 536.75,-199.73"/>
<polygon fill="#63b8ff" stroke="#63b8ff" points="540.25,-199.81 536.75,-189.81 533.25,-199.81 540.25,-199.81"/>
</a>
</g>
</g>
<!-- Node11 -->
<g id="Node000011" class="node">
<title>Node11</title>
<g id="a_Node000011"><a xlink:href="../../d0/dbe/_shader_program_8h.html" target="_top" xlink:title=" ">
<polygon fill="white" stroke="#666666" points="457.62,-132 365.88,-132 365.88,-112 457.62,-112 457.62,-132"/>
<text text-anchor="middle" x="411.75" y="-118.5" font-family="Helvetica,sans-Serif" font-size="10.00">ShaderProgram.h</text>
</a>
</g>
</g>
<!-- Node10&#45;&gt;Node11 -->
<g id="edge10_Node000010_Node000011" class="edge">
<title>Node10&#45;&gt;Node11</title>
<g id="a_edge10_Node000010_Node000011"><a xlink:title=" ">
<path fill="none" stroke="#63b8ff" d="M410.1,-167.59C410.34,-161.01 410.68,-151.96 410.98,-143.73"/>
<polygon fill="#63b8ff" stroke="#63b8ff" points="414.48,-143.93 411.35,-133.81 407.48,-143.67 414.48,-143.93"/>
</a>
</g>
</g>
<!-- Node12 -->
<g id="Node000012" class="node">
<title>Node12</title>
<g id="a_Node000012"><a xlink:href="../../df/d2e/_shader_enums_8h.html" target="_top" xlink:title=" ">
<polygon fill="white" stroke="#666666" points="370.62,-76 284.88,-76 284.88,-56 370.62,-56 370.62,-76"/>
<text text-anchor="middle" x="327.75" y="-62.5" font-family="Helvetica,sans-Serif" font-size="10.00">ShaderEnums.h</text>
</a>
</g>
</g>
<!-- Node10&#45;&gt;Node12 -->
<g id="edge13_Node000010_Node000012" class="edge">
<title>Node10&#45;&gt;Node12</title>
<g id="a_edge13_Node000010_Node000012"><a xlink:title=" ">
<path fill="none" stroke="#63b8ff" d="M395.6,-167.7C383.94,-159.45 367.61,-146.49 356.75,-132 346.43,-118.23 338.76,-100.22 333.91,-86.64"/>
<polygon fill="#63b8ff" stroke="#63b8ff" points="337.34,-85.89 330.85,-77.51 330.71,-88.11 337.34,-85.89"/>
</a>
</g>
</g>
<!-- Node11&#45;&gt;Node12 -->
<g id="edge11_Node000011_Node000012" class="edge">
<title>Node11&#45;&gt;Node12</title>
<g id="a_edge11_Node000011_Node000012"><a xlink:title=" ">
<path fill="none" stroke="#63b8ff" d="M397.12,-111.59C384.67,-103.59 366.53,-91.93 351.93,-82.54"/>
<polygon fill="#63b8ff" stroke="#63b8ff" points="354.07,-79.76 343.77,-77.3 350.29,-85.65 354.07,-79.76"/>
</a>
</g>
</g>
<!-- Node13 -->
<g id="Node000013" class="node">
<title>Node13</title>
<g id="a_Node000013"><a xlink:title=" ">
<polygon fill="#e0e0e0" stroke="#999999" points="319.5,-20 260,-20 260,0 319.5,0 319.5,-20"/>
<text text-anchor="middle" x="289.75" y="-6.5" font-family="Helvetica,sans-Serif" font-size="10.00">GL/glew.h</text>
</a>
</g>
</g>
<!-- Node12&#45;&gt;Node13 -->
<g id="edge12_Node000012_Node000013" class="edge">
<title>Node12&#45;&gt;Node13</title>
<g id="a_edge12_Node000012_Node000013"><a xlink:title=" ">
<path fill="none" stroke="#63b8ff" d="M321.13,-55.59C316.06,-48.39 308.91,-38.23 302.72,-29.43"/>
<polygon fill="#63b8ff" stroke="#63b8ff" points="305.78,-27.7 297.16,-21.54 300.06,-31.73 305.78,-27.7"/>
</a>
</g>
</g>
<!-- Node14&#45;&gt;Node9 -->
<g id="edge15_Node000014_Node000009" class="edge">
<title>Node14&#45;&gt;Node9</title>
<g id="a_edge15_Node000014_Node000009"><a xlink:title=" ">
<path fill="none" stroke="#63b8ff" d="M551.56,-167.59C564.15,-159.59 582.5,-147.93 597.28,-138.54"/>
<polygon fill="#63b8ff" stroke="#63b8ff" points="598.99,-141.61 605.55,-133.29 595.23,-135.7 598.99,-141.61"/>
</a>
</g>
</g>
<!-- Node14&#45;&gt;Node11 -->
<g id="edge17_Node000014_Node000011" class="edge">
<title>Node14&#45;&gt;Node11</title>
<g id="a_edge17_Node000014_Node000011"><a xlink:title=" ">
<path fill="none" stroke="#63b8ff" d="M514.98,-167.59C495.38,-159.13 466.32,-146.58 444.03,-136.94"/>
<polygon fill="#63b8ff" stroke="#63b8ff" points="445.65,-133.83 435.08,-133.08 442.87,-140.26 445.65,-133.83"/>
</a>
</g>
</g>
<!-- Node15 -->
<g id="Node000015" class="node">
<title>Node15</title>
<g id="a_Node000015"><a xlink:href="../../d9/de5/_image_8h.html" target="_top" xlink:title=" ">
<polygon fill="white" stroke="#666666" points="561.62,-132 475.88,-132 475.88,-112 561.62,-112 561.62,-132"/>
<text text-anchor="middle" x="518.75" y="-118.5" font-family="Helvetica,sans-Serif" font-size="10.00">Utilities/Image.h</text>
</a>
</g>
</g>
<!-- Node14&#45;&gt;Node15 -->
<g id="edge16_Node000014_Node000015" class="edge">
<title>Node14&#45;&gt;Node15</title>
<g id="a_edge16_Node000014_Node000015"><a xlink:title=" ">
<path fill="none" stroke="#63b8ff" d="M533.61,-167.59C531.37,-160.86 528.26,-151.53 525.47,-143.15"/>
<polygon fill="#63b8ff" stroke="#63b8ff" points="528.81,-142.11 522.33,-133.73 522.17,-144.33 528.81,-142.11"/>
</a>
</g>
</g>
<!-- Node17&#45;&gt;Node12 -->
<g id="edge20_Node000017_Node000012" class="edge">
<title>Node17&#45;&gt;Node12</title>
<g id="a_edge20_Node000017_Node000012"><a xlink:title=" ">
<path fill="none" stroke="#63b8ff" d="M328.82,-223.81C326.1,-214.8 322.27,-200.62 320.75,-188 316.53,-152.94 320.85,-111.84 324.33,-87.69"/>
<polygon fill="#63b8ff" stroke="#63b8ff" points="327.77,-88.36 325.84,-77.94 320.85,-87.29 327.77,-88.36"/>
</a>
</g>
</g>
<!-- Node18&#45;&gt;Node13 -->
<g id="edge23_Node000018_Node000013" class="edge">
<title>Node18&#45;&gt;Node13</title>
<g id="a_edge23_Node000018_Node000013"><a xlink:title=" ">
<path fill="none" stroke="#63b8ff" d="M255.61,-335.58C255.33,-316.57 254.75,-272.24 254.75,-235 254.75,-235 254.75,-235 254.75,-121 254.75,-88.04 269.19,-52.04 279.52,-30.5"/>
<polygon fill="#63b8ff" stroke="#63b8ff" points="282.56,-32.25 283.91,-21.74 276.3,-29.12 282.56,-32.25"/>
</a>
</g>
</g>
<!-- Node19 -->
<g id="Node000019" class="node">
<title>Node19</title>
<g id="a_Node000019"><a xlink:title=" ">
<polygon fill="#e0e0e0" stroke="#999999" points="328.38,-300 283.12,-300 283.12,-280 328.38,-280 328.38,-300"/>
<text text-anchor="middle" x="305.75" y="-286.5" font-family="Helvetica,sans-Serif" font-size="10.00">cstdint</text>
</a>
</g>
</g>
<!-- Node18&#45;&gt;Node19 -->
<g id="edge22_Node000018_Node000019" class="edge">
<title>Node18&#45;&gt;Node19</title>
<g id="a_edge22_Node000018_Node000019"><a xlink:title=" ">
<path fill="none" stroke="#63b8ff" d="M264.46,-335.59C271.34,-328.16 281.14,-317.58 289.47,-308.58"/>
<polygon fill="#63b8ff" stroke="#63b8ff" points="291.89,-311.12 296.11,-301.41 286.75,-306.37 291.89,-311.12"/>
</a>
</g>
</g>
<!-- Node20&#45;&gt;Node7 -->
<g id="edge26_Node000020_Node000007" class="edge">
<title>Node20&#45;&gt;Node7</title>
<g id="a_edge26_Node000020_Node000007"><a xlink:title=" ">
<path fill="none" stroke="#63b8ff" d="M481.5,-391.51C494.96,-383.75 512.48,-371.53 522.75,-356 531.59,-342.64 535.54,-324.83 537.32,-311.23"/>
<polygon fill="#63b8ff" stroke="#63b8ff" points="540.76,-311.97 538.26,-301.68 533.79,-311.29 540.76,-311.97"/>
</a>
</g>
</g>
<!-- Node21 -->
<g id="Node000021" class="node">
<title>Node21</title>
<g id="a_Node000021"><a xlink:href="../../dd/dbb/_camera_projection_8h.html" target="_top" xlink:title=" ">
<polygon fill="white" stroke="#666666" points="513.5,-356 412,-356 412,-336 513.5,-336 513.5,-356"/>
<text text-anchor="middle" x="462.75" y="-342.5" font-family="Helvetica,sans-Serif" font-size="10.00">CameraProjection.h</text>
</a>
</g>
</g>
<!-- Node20&#45;&gt;Node21 -->
<g id="edge25_Node000020_Node000021" class="edge">
<title>Node20&#45;&gt;Node21</title>
<g id="a_edge25_Node000020_Node000021"><a xlink:title=" ">
<path fill="none" stroke="#63b8ff" d="M462.75,-391.59C462.75,-385.01 462.75,-375.96 462.75,-367.73"/>
<polygon fill="#63b8ff" stroke="#63b8ff" points="466.25,-367.81 462.75,-357.81 459.25,-367.81 466.25,-367.81"/>
</a>
</g>
</g>
</g>
</svg>
