<?xml version="1.0" encoding="UTF-8" standalone="no"?>
<!DOCTYPE svg PUBLIC "-//W3C//DTD SVG 1.1//EN"
 "http://www.w3.org/Graphics/SVG/1.1/DTD/svg11.dtd">
<!-- Generated by graphviz version 10.0.1 (20240210.2158)
 -->
<!-- Title: json::jobject::entry Pages: 1 -->
<svg width="224pt" height="152pt"
 viewBox="0.00 0.00 223.50 152.00" xmlns="http://www.w3.org/2000/svg" xmlns:xlink="http://www.w3.org/1999/xlink">
<g id="graph0" class="graph" transform="scale(1 1) rotate(0) translate(4 148)">
<title>json::jobject::entry</title>
<!-- Node1 -->
<g id="Node000001" class="node">
<title>Node1</title>
<g id="a_Node000001"><a xlink:title="Representation of a value in the object.">
<polygon fill="#999999" stroke="#666666" points="155.38,-144 59.12,-144 59.12,-124 155.38,-124 155.38,-144"/>
<text text-anchor="middle" x="107.25" y="-130.5" font-family="Helvetica,sans-Serif" font-size="10.00">json::jobject::entry</text>
</a>
</g>
</g>
<!-- Node2 -->
<g id="Node000002" class="node">
<title>Node2</title>
<g id="a_Node000002"><a xlink:href="../../df/d03/classjson_1_1jobject_1_1const__proxy.html" target="_top" xlink:title="Represents an entry as a constant proxy to the value.">
<polygon fill="white" stroke="#666666" points="98.5,-88 0,-88 0,-56 98.5,-56 98.5,-88"/>
<text text-anchor="start" x="8" y="-74.5" font-family="Helvetica,sans-Serif" font-size="10.00">json::jobject::const</text>
<text text-anchor="middle" x="49.25" y="-62.5" font-family="Helvetica,sans-Serif" font-size="10.00">_proxy</text>
</a>
</g>
</g>
<!-- Node1&#45;&gt;Node2 -->
<g id="edge1_Node000001_Node000002" class="edge">
<title>Node1&#45;&gt;Node2</title>
<g id="a_edge1_Node000001_Node000002"><a xlink:title=" ">
<path fill="none" stroke="#63b8ff" d="M90.21,-115.37C81.85,-106.73 71.89,-96.42 63.89,-88.14"/>
<polygon fill="#63b8ff" stroke="#63b8ff" points="87.67,-117.78 97.14,-122.54 92.7,-112.91 87.67,-117.78"/>
</a>
</g>
</g>
<!-- Node4 -->
<g id="Node000004" class="node">
<title>Node4</title>
<g id="a_Node000004"><a xlink:href="../../d6/d03/classjson_1_1jobject_1_1const__value.html" target="_top" xlink:title="Represents an entry as a constant value.">
<polygon fill="white" stroke="#666666" points="215.5,-88 117,-88 117,-56 215.5,-56 215.5,-88"/>
<text text-anchor="start" x="125" y="-74.5" font-family="Helvetica,sans-Serif" font-size="10.00">json::jobject::const</text>
<text text-anchor="middle" x="166.25" y="-62.5" font-family="Helvetica,sans-Serif" font-size="10.00">_value</text>
</a>
</g>
</g>
<!-- Node1&#45;&gt;Node4 -->
<g id="edge3_Node000001_Node000004" class="edge">
<title>Node1&#45;&gt;Node4</title>
<g id="a_edge3_Node000001_Node000004"><a xlink:title=" ">
<path fill="none" stroke="#63b8ff" d="M124.32,-115.65C132.87,-106.95 143.13,-96.51 151.36,-88.14"/>
<polygon fill="#63b8ff" stroke="#63b8ff" points="122.05,-112.96 117.53,-122.55 127.04,-117.87 122.05,-112.96"/>
</a>
</g>
</g>
<!-- Node3 -->
<g id="Node000003" class="node">
<title>Node3</title>
<g id="a_Node000003"><a xlink:href="../../de/d00/classjson_1_1jobject_1_1proxy.html" target="_top" xlink:title="A proxy that allows modification of the value.">
<polygon fill="white" stroke="#666666" points="98.5,-20 0,-20 0,0 98.5,0 98.5,-20"/>
<text text-anchor="middle" x="49.25" y="-6.5" font-family="Helvetica,sans-Serif" font-size="10.00">json::jobject::proxy</text>
</a>
</g>
</g>
<!-- Node2&#45;&gt;Node3 -->
<g id="edge2_Node000002_Node000003" class="edge">
<title>Node2&#45;&gt;Node3</title>
<g id="a_edge2_Node000002_Node000003"><a xlink:title=" ">
<path fill="none" stroke="#63b8ff" d="M49.25,-44.08C49.25,-35.6 49.25,-26.8 49.25,-20.41"/>
<polygon fill="#63b8ff" stroke="#63b8ff" points="45.75,-44.03 49.25,-54.03 52.75,-44.03 45.75,-44.03"/>
</a>
</g>
</g>
</g>
</svg>
