<?xml version="1.0" encoding="UTF-8" standalone="no"?>
<!DOCTYPE svg PUBLIC "-//W3C//DTD SVG 1.1//EN"
 "http://www.w3.org/Graphics/SVG/1.1/DTD/svg11.dtd">
<!-- Generated by graphviz version 10.0.1 (20240210.2158)
 -->
<!-- Title: GEU::Light Pages: 1 -->
<!--zoomable 227 -->

<svg id="main" version="1.1" xmlns="http://www.w3.org/2000/svg" xmlns:xlink="http://www.w3.org/1999/xlink" xml:space="preserve" onload="init(evt)">
<style type="text/css"><![CDATA[
.node, .edge {opacity: 0.7;}
.node.selected, .edge.selected {opacity: 1;}
.edge:hover path { stroke: red; }
.edge:hover polygon { stroke: red; fill: red; }
]]></style>

<defs>
  <circle id="rim" cx="0" cy="0" r="7"/>
  <circle id="rim2" cx="0" cy="0" r="3.5"/>
  <g id="zoomPlus">
    <use xlink:href="#rim" fill="#404040"><set attributeName="fill" to="#808080" begin="zoomplus.mouseover" end="zoomplus.mouseout"/></use>
    <path d="M-4,0h8M0,-4v8" fill="none" stroke="white" stroke-width="1.5" pointer-events="none"/>
  </g>
  <g id="zoomMin">
    <use xlink:href="#rim" fill="#404040"><set attributeName="fill" to="#808080" begin="zoomminus.mouseover" end="zoomminus.mouseout"/></use>
    <path d="M-4,0h8" fill="none" stroke="white" stroke-width="1.5" pointer-events="none"/>
  </g>
  <g id="arrowUp" transform="translate(30 24)">
    <use xlink:href="#rim"/>
    <path pointer-events="none" fill="none" stroke="white" stroke-width="1.5" d="M0,-3.0v7 M-2.5,-0.5L0,-3.0L2.5,-0.5"/>
  </g>
  <g id="arrowRight" transform="rotate(90) translate(36 -43)">
    <use xlink:href="#rim"/>
    <path pointer-events="none" fill="none" stroke="white" stroke-width="1.5" d="M0,-3.0v7 M-2.5,-0.5L0,-3.0L2.5,-0.5"/>
  </g>
  <g id="arrowDown" transform="rotate(180) translate(-30 -48)">
    <use xlink:href="#rim"/>
    <path pointer-events="none" fill="none" stroke="white" stroke-width="1.5" d="M0,-3.0v7 M-2.5,-0.5L0,-3.0L2.5,-0.5"/>
  </g>
  <g id="arrowLeft" transform="rotate(270) translate(-36 17)">
    <use xlink:href="#rim"/>
    <path pointer-events="none" fill="none" stroke="white" stroke-width="1.5" d="M0,-3.0v7 M-2.5,-0.5L0,-3.0L2.5,-0.5"/>
  </g>
  <g id="resetDef">
    <use xlink:href="#rim2" fill="#404040"><set attributeName="fill" to="#808080" begin="reset.mouseover" end="reset.mouseout"/></use>
  </g>
</defs>
<script type="application/ecmascript">
var viewWidth = 706;
var viewHeight = 227;
var sectionId = 'dynsection-0';
</script>
<script type="application/ecmascript" xlink:href="../../svg.min.js"/>
<svg id="graph" class="graph">
<g id="viewport">
<title>GEU::Light</title>
<!-- Node1 -->
<g id="Node000001" class="node">
<title>Node1</title>
<g id="a_Node000001"><a xlink:title=" ">
<polygon fill="#999999" stroke="#666666" points="697.75,-114 633.75,-114 633.75,-94 697.75,-94 697.75,-114"/>
<text text-anchor="middle" x="665.75" y="-100.5" font-family="Helvetica,sans-Serif" font-size="10.00">GEU::Light</text>
</a>
</g>
</g>
<!-- Node2 -->
<g id="Node000002" class="node">
<title>Node2</title>
<g id="a_Node000002"><a xlink:title=" ">
<polygon fill="white" stroke="#666666" points="492.38,-182 370.62,-182 370.62,-138 492.38,-138 492.38,-182"/>
<text text-anchor="start" x="378.62" y="-168.5" font-family="Helvetica,sans-Serif" font-size="10.00">std::unordered_map</text>
<text text-anchor="start" x="378.62" y="-156.5" font-family="Helvetica,sans-Serif" font-size="10.00">&lt; std::string, LightModel</text>
<text text-anchor="middle" x="431.5" y="-144.5" font-family="Helvetica,sans-Serif" font-size="10.00">::LightModelEnum &gt;</text>
</a>
</g>
</g>
<!-- Node2&#45;&gt;Node1 -->
<g id="edge1_Node000001_Node000002" class="edge">
<title>Node2&#45;&gt;Node1</title>
<g id="a_edge1_Node000001_Node000002"><a xlink:title=" ">
<path fill="none" stroke="#9a32cd" stroke-dasharray="5,2" d="M503.96,-146.14C538.01,-139.1 579.19,-129.93 615.75,-120 621.8,-118.36 628.2,-116.42 634.31,-114.46"/>
<polygon fill="#9a32cd" stroke="#9a32cd" points="503.28,-142.71 494.19,-148.15 504.69,-149.57 503.28,-142.71"/>
</a>
</g>
<text text-anchor="middle" x="571.88" y="-142.5" font-family="Helvetica,sans-Serif" font-size="10.00" fill="grey"> LIGHT_ENUM_STR</text>
</g>
<!-- Node3 -->
<g id="Node000003" class="node">
<title>Node3</title>
<g id="a_Node000003"><a xlink:title=" ">
<polygon fill="white" stroke="#666666" points="248.75,-213 189.25,-213 189.25,-193 248.75,-193 248.75,-213"/>
<text text-anchor="middle" x="219" y="-199.5" font-family="Helvetica,sans-Serif" font-size="10.00">std::string</text>
</a>
</g>
</g>
<!-- Node3&#45;&gt;Node1 -->
<g id="edge10_Node000001_Node000003" class="edge">
<title>Node3&#45;&gt;Node1</title>
<g id="a_edge10_Node000001_Node000003"><a xlink:title=" ">
<path fill="none" stroke="#9a32cd" stroke-dasharray="5,2" d="M260.44,-205.18C316.9,-207.35 422.29,-208.24 510,-191 558.58,-181.45 574,-182.61 615.75,-156 633.32,-144.8 648.93,-125.91 657.59,-114.24"/>
<polygon fill="#9a32cd" stroke="#9a32cd" points="260.81,-201.69 250.67,-204.76 260.51,-208.68 260.81,-201.69"/>
</a>
</g>
<text text-anchor="middle" x="431.5" y="-207.5" font-family="Helvetica,sans-Serif" font-size="10.00" fill="grey"> _name</text>
</g>
<!-- Node3&#45;&gt;Node2 -->
<g id="edge2_Node000002_Node000003" class="edge">
<title>Node3&#45;&gt;Node2</title>
<g id="a_edge2_Node000002_Node000003"><a xlink:title=" ">
<path fill="none" stroke="#9a32cd" stroke-dasharray="5,2" d="M259.72,-194.89C290.96,-188.5 335,-179.51 370.53,-172.25"/>
<polygon fill="#9a32cd" stroke="#9a32cd" points="259.41,-191.38 250.31,-196.81 260.81,-198.24 259.41,-191.38"/>
</a>
</g>
<text text-anchor="middle" x="313.62" y="-189.5" font-family="Helvetica,sans-Serif" font-size="10.00" fill="grey"> keys</text>
</g>
<!-- Node4 -->
<g id="Node000004" class="node">
<title>Node4</title>
<g id="a_Node000004"><a xlink:title=" ">
<polygon fill="white" stroke="#666666" points="103.75,-219 9.75,-219 9.75,-187 103.75,-187 103.75,-219"/>
<text text-anchor="start" x="17.75" y="-205.5" font-family="Helvetica,sans-Serif" font-size="10.00">std::basic_string&lt;</text>
<text text-anchor="middle" x="56.75" y="-193.5" font-family="Helvetica,sans-Serif" font-size="10.00"> Char &gt;</text>
</a>
</g>
</g>
<!-- Node4&#45;&gt;Node3 -->
<g id="edge3_Node000003_Node000004" class="edge">
<title>Node4&#45;&gt;Node3</title>
<g id="a_edge3_Node000003_Node000004"><a xlink:title=" ">
<path fill="none" stroke="#63b8ff" d="M115.3,-203C140.26,-203 168.4,-203 188.9,-203"/>
<polygon fill="#63b8ff" stroke="#63b8ff" points="115.61,-199.5 105.61,-203 115.61,-206.5 115.61,-199.5"/>
</a>
</g>
</g>
<!-- Node5 -->
<g id="Node000005" class="node">
<title>Node5</title>
<g id="a_Node000005"><a xlink:title=" ">
<polygon fill="white" stroke="#666666" points="498.38,-120 364.62,-120 364.62,-88 498.38,-88 498.38,-120"/>
<text text-anchor="start" x="372.62" y="-106.5" font-family="Helvetica,sans-Serif" font-size="10.00">std::vector&lt; std::unique</text>
<text text-anchor="middle" x="431.5" y="-94.5" font-family="Helvetica,sans-Serif" font-size="10.00">_ptr&lt; GEU::LightModel &gt; &gt;</text>
</a>
</g>
</g>
<!-- Node5&#45;&gt;Node1 -->
<g id="edge4_Node000001_Node000005" class="edge">
<title>Node5&#45;&gt;Node1</title>
<g id="a_edge4_Node000001_Node000005"><a xlink:title=" ">
<path fill="none" stroke="#9a32cd" stroke-dasharray="5,2" d="M510.12,-104C552.27,-104 602.05,-104 633.51,-104"/>
<polygon fill="#9a32cd" stroke="#9a32cd" points="510.26,-100.5 500.26,-104 510.26,-107.5 510.26,-100.5"/>
</a>
</g>
<text text-anchor="middle" x="571.88" y="-106.5" font-family="Helvetica,sans-Serif" font-size="10.00" fill="grey"> _lightModel</text>
</g>
<!-- Node6 -->
<g id="Node000006" class="node">
<title>Node6</title>
<g id="a_Node000006"><a xlink:title=" ">
<polygon fill="white" stroke="#666666" points="274.25,-120 163.75,-120 163.75,-88 274.25,-88 274.25,-120"/>
<text text-anchor="start" x="171.75" y="-106.5" font-family="Helvetica,sans-Serif" font-size="10.00">std::unique_ptr&lt; GEU</text>
<text text-anchor="middle" x="219" y="-94.5" font-family="Helvetica,sans-Serif" font-size="10.00">::LightModel &gt;</text>
</a>
</g>
</g>
<!-- Node6&#45;&gt;Node5 -->
<g id="edge5_Node000005_Node000006" class="edge">
<title>Node6&#45;&gt;Node5</title>
<g id="a_edge5_Node000005_Node000006"><a xlink:title=" ">
<path fill="none" stroke="#9a32cd" stroke-dasharray="5,2" d="M285.7,-104C310.7,-104 339.18,-104 364.23,-104"/>
<polygon fill="#9a32cd" stroke="#9a32cd" points="286,-100.5 276,-104 286,-107.5 286,-100.5"/>
</a>
</g>
<text text-anchor="middle" x="313.62" y="-106.5" font-family="Helvetica,sans-Serif" font-size="10.00" fill="grey"> elements</text>
</g>
<!-- Node7 -->
<g id="Node000007" class="node">
<title>Node7</title>
<g id="a_Node000007"><a xlink:href="../../d4/dd4/class_g_e_u_1_1_light_model.html" target="_top" xlink:title=" ">
<polygon fill="white" stroke="#666666" points="101.88,-114 11.62,-114 11.62,-94 101.88,-94 101.88,-114"/>
<text text-anchor="middle" x="56.75" y="-100.5" font-family="Helvetica,sans-Serif" font-size="10.00">GEU::LightModel</text>
</a>
</g>
</g>
<!-- Node7&#45;&gt;Node6 -->
<g id="edge6_Node000006_Node000007" class="edge">
<title>Node7&#45;&gt;Node6</title>
<g id="a_edge6_Node000006_Node000007"><a xlink:title=" ">
<path fill="none" stroke="#9a32cd" stroke-dasharray="5,2" d="M113.44,-104C129.61,-104 147.25,-104 163.36,-104"/>
<polygon fill="#9a32cd" stroke="#9a32cd" points="113.48,-100.5 103.48,-104 113.48,-107.5 113.48,-100.5"/>
</a>
</g>
<text text-anchor="middle" x="138.62" y="-106.5" font-family="Helvetica,sans-Serif" font-size="10.00" fill="grey"> ptr</text>
</g>
<!-- Node8 -->
<g id="Node000008" class="node">
<title>Node8</title>
<g id="a_Node000008"><a xlink:title=" ">
<polygon fill="white" stroke="#666666" points="510,-70 353,-70 353,-38 510,-38 510,-70"/>
<text text-anchor="start" x="361" y="-56.5" font-family="Helvetica,sans-Serif" font-size="10.00">std::vector&lt; std::unique</text>
<text text-anchor="middle" x="431.5" y="-44.5" font-family="Helvetica,sans-Serif" font-size="10.00">_ptr&lt; GEU::LightAttenuation &gt; &gt;</text>
</a>
</g>
</g>
<!-- Node8&#45;&gt;Node1 -->
<g id="edge7_Node000001_Node000008" class="edge">
<title>Node8&#45;&gt;Node1</title>
<g id="a_edge7_Node000001_Node000008"><a xlink:title=" ">
<path fill="none" stroke="#9a32cd" stroke-dasharray="5,2" d="M521.08,-68C551.3,-73.42 585.17,-80.21 615.75,-88 621.99,-89.59 628.6,-91.55 634.87,-93.55"/>
<polygon fill="#9a32cd" stroke="#9a32cd" points="522.07,-64.62 511.61,-66.33 520.85,-71.51 522.07,-64.62"/>
</a>
</g>
<text text-anchor="middle" x="571.88" y="-90.5" font-family="Helvetica,sans-Serif" font-size="10.00" fill="grey"> _lightAttenuation</text>
</g>
<!-- Node9 -->
<g id="Node000009" class="node">
<title>Node9</title>
<g id="a_Node000009"><a xlink:title=" ">
<polygon fill="white" stroke="#666666" points="274.25,-70 163.75,-70 163.75,-38 274.25,-38 274.25,-70"/>
<text text-anchor="start" x="171.75" y="-56.5" font-family="Helvetica,sans-Serif" font-size="10.00">std::unique_ptr&lt; GEU</text>
<text text-anchor="middle" x="219" y="-44.5" font-family="Helvetica,sans-Serif" font-size="10.00">::LightAttenuation &gt;</text>
</a>
</g>
</g>
<!-- Node9&#45;&gt;Node8 -->
<g id="edge8_Node000008_Node000009" class="edge">
<title>Node9&#45;&gt;Node8</title>
<g id="a_edge8_Node000008_Node000009"><a xlink:title=" ">
<path fill="none" stroke="#9a32cd" stroke-dasharray="5,2" d="M285.98,-54C307.19,-54 330.89,-54 352.85,-54"/>
<polygon fill="#9a32cd" stroke="#9a32cd" points="286,-50.5 276,-54 286,-57.5 286,-50.5"/>
</a>
</g>
<text text-anchor="middle" x="313.62" y="-56.5" font-family="Helvetica,sans-Serif" font-size="10.00" fill="grey"> elements</text>
</g>
<!-- Node10 -->
<g id="Node000010" class="node">
<title>Node10</title>
<g id="a_Node000010"><a xlink:href="../../d6/dce/class_g_e_u_1_1_light_attenuation.html" target="_top" xlink:title=" ">
<polygon fill="white" stroke="#666666" points="113.5,-64 0,-64 0,-44 113.5,-44 113.5,-64"/>
<text text-anchor="middle" x="56.75" y="-50.5" font-family="Helvetica,sans-Serif" font-size="10.00">GEU::LightAttenuation</text>
</a>
</g>
</g>
<!-- Node10&#45;&gt;Node9 -->
<g id="edge9_Node000009_Node000010" class="edge">
<title>Node10&#45;&gt;Node9</title>
<g id="a_edge9_Node000009_Node000010"><a xlink:title=" ">
<path fill="none" stroke="#9a32cd" stroke-dasharray="5,2" d="M125.29,-54C137.98,-54 151.1,-54 163.33,-54"/>
<polygon fill="#9a32cd" stroke="#9a32cd" points="125.31,-50.5 115.31,-54 125.31,-57.5 125.31,-50.5"/>
</a>
</g>
<text text-anchor="middle" x="138.62" y="-56.5" font-family="Helvetica,sans-Serif" font-size="10.00" fill="grey"> ptr</text>
</g>
<!-- Node11 -->
<g id="Node000011" class="node">
<title>Node11</title>
<g id="a_Node000011"><a xlink:href="../../d4/d41/class_g_e_u_1_1_light_properties.html" target="_top" xlink:title=" ">
<polygon fill="white" stroke="#666666" points="485.62,-20 377.38,-20 377.38,0 485.62,0 485.62,-20"/>
<text text-anchor="middle" x="431.5" y="-6.5" font-family="Helvetica,sans-Serif" font-size="10.00">GEU::LightProperties</text>
</a>
</g>
</g>
<!-- Node11&#45;&gt;Node1 -->
<g id="edge11_Node000001_Node000011" class="edge">
<title>Node11&#45;&gt;Node1</title>
<g id="a_edge11_Node000001_Node000011"><a xlink:title=" ">
<path fill="none" stroke="#9a32cd" stroke-dasharray="5,2" d="M497.06,-16C533.75,-21.58 579.47,-32.33 615.75,-53 633.67,-63.21 649.17,-81.99 657.71,-93.68"/>
<polygon fill="#9a32cd" stroke="#9a32cd" points="497.87,-12.58 487.48,-14.64 496.89,-19.51 497.87,-12.58"/>
</a>
</g>
<text text-anchor="middle" x="571.88" y="-55.5" font-family="Helvetica,sans-Serif" font-size="10.00" fill="grey"> _properties</text>
</g>
</g>
</svg>

<g id="navigator" transform="translate(0 0)" fill="#404254">
  <rect fill="#f2f5e9" fill-opacity="0.5" stroke="#606060" stroke-width=".5" x="0" y="0" width="60" height="60"/>
  <use id="zoomplus" xlink:href="#zoomPlus" x="17" y="9" onmousedown="handleZoom(evt,'in')"/>
  <use id="zoomminus" xlink:href="#zoomMin" x="42" y="9" onmousedown="handleZoom(evt,'out')"/>
  <use id="reset" xlink:href="#resetDef" x="30" y="36" onmousedown="handleReset()"/>
   <use id="arrowup" xlink:href="#arrowUp" x="0" y="0" onmousedown="handlePan(0,-1)"/>
  <use id="arrowright" xlink:href="#arrowRight" x="0" y="0" onmousedown="handlePan(1,0)"/>
  <use id="arrowdown" xlink:href="#arrowDown" x="0" y="0" onmousedown="handlePan(0,1)"/>
  <use id="arrowleft" xlink:href="#arrowLeft" x="0" y="0" onmousedown="handlePan(-1,0)"/>
</g>
<svg viewBox="0 0 15 15" width="100%" height="30px" preserveAspectRatio="xMaxYMin meet">
 <g id="arrow_out" transform="scale(0.3 0.3)">
  <a xlink:href="class_g_e_u_1_1_light__coll__graph_org.svg" target="_base">
   <rect id="button" ry="5" rx="5" y="6" x="6" height="38" width="38"
        fill="#f2f5e9" fill-opacity="0.5" stroke="#606060" stroke-width="1.0"/>
   <path id="arrow"
     d="M 11.500037,31.436501 C 11.940474,20.09759 22.043105,11.32322 32.158766,21.979434 L 37.068811,17.246167 C 37.068811,17.246167 37.088388,32 37.088388,32 L 22.160133,31.978069 C 22.160133,31.978069 26.997745,27.140456 26.997745,27.140456 C 18.528582,18.264221 13.291696,25.230495 11.500037,31.436501 z"
     style="fill:#404040;"/>
  </a>
 </g>
</svg>

<style type='text/css'>
<![CDATA[
[data-mouse-over-selected='false'] { opacity: 0.7; }
[data-mouse-over-selected='true']  { opacity: 1.0; }
]]>
</style>
<script type="application/ecmascript"><![CDATA[
document.addEventListener('DOMContentLoaded', (event) => {
  highlightEdges();
  highlightAdjacentNodes();
});
]]></script>
</svg>
