<?xml version="1.0" encoding="UTF-8" standalone="no"?>
<!DOCTYPE svg PUBLIC "-//W3C//DTD SVG 1.1//EN"
 "http://www.w3.org/Graphics/SVG/1.1/DTD/svg11.dtd">
<!-- Generated by graphviz version 10.0.1 (20240210.2158)
 -->
<!-- Title: GEU::GuiUtilities::beginVueloTable Pages: 1 -->
<svg width="292pt" height="90pt"
 viewBox="0.00 0.00 292.00 90.00" xmlns="http://www.w3.org/2000/svg" xmlns:xlink="http://www.w3.org/1999/xlink">
<g id="graph0" class="graph" transform="scale(1 1) rotate(0) translate(4 86)">
<title>GEU::GuiUtilities::beginVueloTable</title>
<!-- Node1 -->
<g id="Node000001" class="node">
<title>Node1</title>
<g id="a_Node000001"><a xlink:title=" ">
<polygon fill="#999999" stroke="#666666" points="96.25,-57 0,-57 0,-25 96.25,-25 96.25,-57"/>
<text text-anchor="start" x="8" y="-43.5" font-family="Helvetica,sans-Serif" font-size="10.00">GEU::GuiUtilities::</text>
<text text-anchor="middle" x="48.12" y="-31.5" font-family="Helvetica,sans-Serif" font-size="10.00">beginVueloTable</text>
</a>
</g>
</g>
<!-- Node2 -->
<g id="Node000002" class="node">
<title>Node2</title>
<g id="a_Node000002"><a xlink:href="../../d7/d04/a00634.html#aca2c75691a6162a3ee60274a84118740" target="_top" xlink:title=" ">
<polygon fill="white" stroke="#666666" points="273.5,-82 142.75,-82 142.75,-50 273.5,-50 273.5,-82"/>
<text text-anchor="start" x="150.75" y="-68.5" font-family="Helvetica,sans-Serif" font-size="10.00">GEU::GuiUtilities::</text>
<text text-anchor="middle" x="208.12" y="-56.5" font-family="Helvetica,sans-Serif" font-size="10.00">calcSingleRowTableHeight</text>
</a>
</g>
</g>
<!-- Node1&#45;&gt;Node2 -->
<g id="edge1_Node000001_Node000002" class="edge">
<title>Node1&#45;&gt;Node2</title>
<g id="a_edge1_Node000001_Node000002"><a xlink:title=" ">
<path fill="none" stroke="#63b8ff" d="M96.53,-48.5C107.48,-50.23 119.41,-52.12 131.23,-53.99"/>
<polygon fill="#63b8ff" stroke="#63b8ff" points="130.59,-57.43 141.02,-55.54 131.69,-50.52 130.59,-57.43"/>
</a>
</g>
</g>
<!-- Node3 -->
<g id="Node000003" class="node">
<title>Node3</title>
<g id="a_Node000003"><a xlink:href="../../d1/d01/a02032.html#a47c7e7c2110f4cc59c9ff1f5594c366e" target="_top" xlink:title=" ">
<polygon fill="white" stroke="#666666" points="284,-32 132.25,-32 132.25,0 284,0 284,-32"/>
<text text-anchor="start" x="140.25" y="-18.5" font-family="Helvetica,sans-Serif" font-size="10.00">GEU::Singleton&lt; LocaleStrings</text>
<text text-anchor="middle" x="208.12" y="-6.5" font-family="Helvetica,sans-Serif" font-size="10.00"> &gt;::getInstance</text>
</a>
</g>
</g>
<!-- Node1&#45;&gt;Node3 -->
<g id="edge2_Node000001_Node000003" class="edge">
<title>Node1&#45;&gt;Node3</title>
<g id="a_edge2_Node000001_Node000003"><a xlink:title=" ">
<path fill="none" stroke="#63b8ff" d="M96.53,-33.5C104.22,-32.28 112.38,-30.99 120.66,-29.68"/>
<polygon fill="#63b8ff" stroke="#63b8ff" points="121.15,-33.15 130.48,-28.13 120.05,-26.23 121.15,-33.15"/>
</a>
</g>
</g>
</g>
</svg>
