<?xml version="1.0" encoding="UTF-8" standalone="no"?>
<!DOCTYPE svg PUBLIC "-//W3C//DTD SVG 1.1//EN"
 "http://www.w3.org/Graphics/SVG/1.1/DTD/svg11.dtd">
<!-- Generated by graphviz version 10.0.1 (20240210.2158)
 -->
<!-- Title: GEU::GuiUtilities::Checkbox Pages: 1 -->
<svg width="442pt" height="290pt"
 viewBox="0.00 0.00 442.25 290.00" xmlns="http://www.w3.org/2000/svg" xmlns:xlink="http://www.w3.org/1999/xlink">
<g id="graph0" class="graph" transform="scale(1 1) rotate(0) translate(4 286)">
<title>GEU::GuiUtilities::Checkbox</title>
<!-- Node1 -->
<g id="Node000001" class="node">
<title>Node1</title>
<g id="a_Node000001"><a xlink:title=" ">
<polygon fill="#999999" stroke="#666666" points="434.25,-157 338,-157 338,-125 434.25,-125 434.25,-157"/>
<text text-anchor="start" x="346" y="-143.5" font-family="Helvetica,sans-Serif" font-size="10.00">GEU::GuiUtilities::</text>
<text text-anchor="middle" x="386.12" y="-131.5" font-family="Helvetica,sans-Serif" font-size="10.00">Checkbox</text>
</a>
</g>
</g>
<!-- Node2 -->
<g id="Node000002" class="node">
<title>Node2</title>
<g id="a_Node000002"><a xlink:href="../../d1/d06/a01496.html#ad35f61717358ebd11631e5b8c5ed9ff9" target="_top" xlink:title="Makes and handles basic enabled and POS/ROT/SCL edit controls.">
<polygon fill="white" stroke="#666666" points="297.5,-282 148,-282 148,-250 297.5,-250 297.5,-282"/>
<text text-anchor="start" x="156" y="-268.5" font-family="Helvetica,sans-Serif" font-size="10.00">GEU::DetailsWindow</text>
<text text-anchor="middle" x="222.75" y="-256.5" font-family="Helvetica,sans-Serif" font-size="10.00">::makeBasicTransformControls</text>
</a>
</g>
</g>
<!-- Node1&#45;&gt;Node2 -->
<g id="edge1_Node000001_Node000002" class="edge">
<title>Node1&#45;&gt;Node2</title>
<g id="a_edge1_Node000001_Node000002"><a xlink:title=" ">
<path fill="none" stroke="#63b8ff" d="M369.63,-166.94C354.89,-189.54 330.73,-221.63 302,-241 297.15,-244.27 291.85,-247.13 286.36,-249.64"/>
<polygon fill="#63b8ff" stroke="#63b8ff" points="372.53,-168.91 374.92,-158.59 366.61,-165.17 372.53,-168.91"/>
</a>
</g>
</g>
<!-- Node3 -->
<g id="Node000003" class="node">
<title>Node3</title>
<g id="a_Node000003"><a xlink:href="../../d1/d06/a01496.html#afef856466732ea159773d087909d0fdf" target="_top" xlink:title="Renders inspector details for 3D model items.">
<polygon fill="white" stroke="#666666" points="288.12,-232 157.38,-232 157.38,-200 288.12,-200 288.12,-232"/>
<text text-anchor="start" x="165.38" y="-218.5" font-family="Helvetica,sans-Serif" font-size="10.00">GEU::DetailsWindow</text>
<text text-anchor="middle" x="222.75" y="-206.5" font-family="Helvetica,sans-Serif" font-size="10.00">::makeModelItemInspector</text>
</a>
</g>
</g>
<!-- Node1&#45;&gt;Node3 -->
<g id="edge2_Node000001_Node000003" class="edge">
<title>Node1&#45;&gt;Node3</title>
<g id="a_edge2_Node000001_Node000003"><a xlink:title=" ">
<path fill="none" stroke="#63b8ff" d="M351.94,-163.38C337.1,-172.76 319.11,-183.25 302,-191 295.24,-194.06 288.01,-196.91 280.76,-199.51"/>
<polygon fill="#63b8ff" stroke="#63b8ff" points="353.41,-166.6 359.93,-158.25 349.63,-160.71 353.41,-166.6"/>
</a>
</g>
</g>
<!-- Node5 -->
<g id="Node000005" class="node">
<title>Node5</title>
<g id="a_Node000005"><a xlink:href="../../d1/d06/a01496.html#a9edcfff4507d107037e9f7500a3d6717" target="_top" xlink:title="Renders inspector details for point cloud items.">
<polygon fill="white" stroke="#666666" points="290.75,-182 154.75,-182 154.75,-150 290.75,-150 290.75,-182"/>
<text text-anchor="start" x="162.75" y="-168.5" font-family="Helvetica,sans-Serif" font-size="10.00">GEU::DetailsWindow</text>
<text text-anchor="middle" x="222.75" y="-156.5" font-family="Helvetica,sans-Serif" font-size="10.00">::makePCloudItemInspector</text>
</a>
</g>
</g>
<!-- Node1&#45;&gt;Node5 -->
<g id="edge4_Node000001_Node000005" class="edge">
<title>Node1&#45;&gt;Node5</title>
<g id="a_edge4_Node000001_Node000005"><a xlink:title=" ">
<path fill="none" stroke="#63b8ff" d="M326.34,-150.11C314.85,-151.89 302.72,-153.77 290.98,-155.58"/>
<polygon fill="#63b8ff" stroke="#63b8ff" points="326.74,-153.59 336.08,-148.6 325.67,-146.67 326.74,-153.59"/>
</a>
</g>
</g>
<!-- Node6 -->
<g id="Node000006" class="node">
<title>Node6</title>
<g id="a_Node000006"><a xlink:href="../../d2/d02/a01488.html#a6b45f3f4957a46091ab0d75b9600a56d" target="_top" xlink:title="Renders the popup and its contents.">
<polygon fill="white" stroke="#666666" points="302,-132 143.5,-132 143.5,-100 302,-100 302,-132"/>
<text text-anchor="start" x="151.5" y="-118.5" font-family="Helvetica,sans-Serif" font-size="10.00">GEU::DatabaseQueryDatoPopup</text>
<text text-anchor="middle" x="222.75" y="-106.5" font-family="Helvetica,sans-Serif" font-size="10.00">::renderPopup</text>
</a>
</g>
</g>
<!-- Node1&#45;&gt;Node6 -->
<g id="edge6_Node000001_Node000006" class="edge">
<title>Node1&#45;&gt;Node6</title>
<g id="a_edge6_Node000001_Node000006"><a xlink:title=" ">
<path fill="none" stroke="#63b8ff" d="M326.4,-131.9C318.6,-130.69 310.51,-129.44 302.44,-128.19"/>
<polygon fill="#63b8ff" stroke="#63b8ff" points="325.67,-135.33 336.08,-133.4 326.74,-128.41 325.67,-135.33"/>
</a>
</g>
</g>
<!-- Node7 -->
<g id="Node000007" class="node">
<title>Node7</title>
<g id="a_Node000007"><a xlink:href="../../d2/d01/a01484.html#ae07f0a25c9ecb584624ce7bf67bc48cb" target="_top" xlink:title="Renders the window and contents.">
<polygon fill="white" stroke="#666666" points="301.62,-82 143.88,-82 143.88,-50 301.62,-50 301.62,-82"/>
<text text-anchor="start" x="151.88" y="-68.5" font-family="Helvetica,sans-Serif" font-size="10.00">GEU::DatabaseNewDatoWindow</text>
<text text-anchor="middle" x="222.75" y="-56.5" font-family="Helvetica,sans-Serif" font-size="10.00">::renderWindow</text>
</a>
</g>
</g>
<!-- Node1&#45;&gt;Node7 -->
<g id="edge7_Node000001_Node000007" class="edge">
<title>Node1&#45;&gt;Node7</title>
<g id="a_edge7_Node000001_Node000007"><a xlink:title=" ">
<path fill="none" stroke="#63b8ff" d="M351.94,-118.62C337.1,-109.24 319.11,-98.75 302,-91 295.24,-87.94 288.01,-85.09 280.76,-82.49"/>
<polygon fill="#63b8ff" stroke="#63b8ff" points="349.63,-121.29 359.93,-123.75 353.41,-115.4 349.63,-121.29"/>
</a>
</g>
</g>
<!-- Node8 -->
<g id="Node000008" class="node">
<title>Node8</title>
<g id="a_Node000008"><a xlink:href="../../dc/d07/a01512.html#a7af9db6d6ad56c4c4fc336251024472f" target="_top" xlink:title="Renders the window and contents.">
<polygon fill="white" stroke="#666666" points="279.5,-32 166,-32 166,0 279.5,0 279.5,-32"/>
<text text-anchor="start" x="174" y="-18.5" font-family="Helvetica,sans-Serif" font-size="10.00">GEU::SettingsWindow</text>
<text text-anchor="middle" x="222.75" y="-6.5" font-family="Helvetica,sans-Serif" font-size="10.00">::renderWindow</text>
</a>
</g>
</g>
<!-- Node1&#45;&gt;Node8 -->
<g id="edge8_Node000001_Node000008" class="edge">
<title>Node1&#45;&gt;Node8</title>
<g id="a_edge8_Node000001_Node000008"><a xlink:title=" ">
<path fill="none" stroke="#63b8ff" d="M369.63,-115.06C354.89,-92.46 330.73,-60.37 302,-41 295.26,-36.46 287.64,-32.69 279.87,-29.6"/>
<polygon fill="#63b8ff" stroke="#63b8ff" points="366.61,-116.83 374.92,-123.41 372.53,-113.09 366.61,-116.83"/>
</a>
</g>
</g>
<!-- Node4 -->
<g id="Node000004" class="node">
<title>Node4</title>
<g id="a_Node000004"><a xlink:href="../../d1/d06/a01496.html#a6666ec761cc5cd8a57220823b8e7daa6" target="_top" xlink:title="Renders the window and contents.">
<polygon fill="white" stroke="#666666" points="107.5,-207 0,-207 0,-175 107.5,-175 107.5,-207"/>
<text text-anchor="start" x="8" y="-193.5" font-family="Helvetica,sans-Serif" font-size="10.00">GEU::DetailsWindow</text>
<text text-anchor="middle" x="53.75" y="-181.5" font-family="Helvetica,sans-Serif" font-size="10.00">::renderWindow</text>
</a>
</g>
</g>
<!-- Node3&#45;&gt;Node4 -->
<g id="edge3_Node000003_Node000004" class="edge">
<title>Node3&#45;&gt;Node4</title>
<g id="a_edge3_Node000003_Node000004"><a xlink:title=" ">
<path fill="none" stroke="#63b8ff" d="M145.95,-204.65C133.07,-202.72 119.93,-200.76 107.79,-198.94"/>
<polygon fill="#63b8ff" stroke="#63b8ff" points="145.28,-208.09 155.69,-206.11 146.31,-201.17 145.28,-208.09"/>
</a>
</g>
</g>
<!-- Node5&#45;&gt;Node4 -->
<g id="edge5_Node000005_Node000004" class="edge">
<title>Node5&#45;&gt;Node4</title>
<g id="a_edge5_Node000005_Node000004"><a xlink:title=" ">
<path fill="none" stroke="#63b8ff" d="M142.96,-177.8C131.04,-179.58 119,-181.38 107.81,-183.06"/>
<polygon fill="#63b8ff" stroke="#63b8ff" points="143.44,-181.26 152.81,-176.32 142.4,-174.34 143.44,-181.26"/>
</a>
</g>
</g>
</g>
</svg>
