<?xml version="1.0" encoding="UTF-8" standalone="no"?>
<!DOCTYPE svg PUBLIC "-//W3C//DTD SVG 1.1//EN"
 "http://www.w3.org/Graphics/SVG/1.1/DTD/svg11.dtd">
<!-- Generated by graphviz version 10.0.1 (20240210.2158)
 -->
<!-- Title: GEU::GuiUtilities::makeCancelButton Pages: 1 -->
<svg width="292pt" height="140pt"
 viewBox="0.00 0.00 292.00 140.00" xmlns="http://www.w3.org/2000/svg" xmlns:xlink="http://www.w3.org/1999/xlink">
<g id="graph0" class="graph" transform="scale(1 1) rotate(0) translate(4 136)">
<title>GEU::GuiUtilities::makeCancelButton</title>
<!-- Node1 -->
<g id="Node000001" class="node">
<title>Node1</title>
<g id="a_Node000001"><a xlink:title=" ">
<polygon fill="#999999" stroke="#666666" points="284,-82 185.5,-82 185.5,-50 284,-50 284,-82"/>
<text text-anchor="start" x="193.5" y="-68.5" font-family="Helvetica,sans-Serif" font-size="10.00">GEU::GuiUtilities::</text>
<text text-anchor="middle" x="234.75" y="-56.5" font-family="Helvetica,sans-Serif" font-size="10.00">makeCancelButton</text>
</a>
</g>
</g>
<!-- Node2 -->
<g id="Node000002" class="node">
<title>Node2</title>
<g id="a_Node000002"><a xlink:href="../../dc/d04/a01532.html#aabf3be0d95c567d3b439cdae51edc79e" target="_top" xlink:title="Renders the popup and its contents.">
<polygon fill="white" stroke="#666666" points="149.5,-132 0,-132 0,-100 149.5,-100 149.5,-132"/>
<text text-anchor="start" x="8" y="-118.5" font-family="Helvetica,sans-Serif" font-size="10.00">GEU::DatabaseNewRawPopup</text>
<text text-anchor="middle" x="74.75" y="-106.5" font-family="Helvetica,sans-Serif" font-size="10.00">::renderPopup</text>
</a>
</g>
</g>
<!-- Node1&#45;&gt;Node2 -->
<g id="edge1_Node000001_Node000002" class="edge">
<title>Node1&#45;&gt;Node2</title>
<g id="a_edge1_Node000001_Node000002"><a xlink:title=" ">
<path fill="none" stroke="#63b8ff" d="M174.18,-84.85C158.94,-89.67 142.68,-94.82 127.85,-99.51"/>
<polygon fill="#63b8ff" stroke="#63b8ff" points="175.13,-88.22 183.61,-81.87 173.02,-81.55 175.13,-88.22"/>
</a>
</g>
</g>
<!-- Node3 -->
<g id="Node000003" class="node">
<title>Node3</title>
<g id="a_Node000003"><a xlink:href="../../d3/d04/a01540.html#a22764a8a53570961466432ac856eb4fc" target="_top" xlink:title="Renders the popup and its contents.">
<polygon fill="white" stroke="#666666" points="143.88,-82 5.62,-82 5.62,-50 143.88,-50 143.88,-82"/>
<text text-anchor="start" x="13.62" y="-68.5" font-family="Helvetica,sans-Serif" font-size="10.00">GEU::DatabaseQueryPopup</text>
<text text-anchor="middle" x="74.75" y="-56.5" font-family="Helvetica,sans-Serif" font-size="10.00">::renderPopup</text>
</a>
</g>
</g>
<!-- Node1&#45;&gt;Node3 -->
<g id="edge2_Node000001_Node000003" class="edge">
<title>Node1&#45;&gt;Node3</title>
<g id="a_edge2_Node000001_Node000003"><a xlink:title=" ">
<path fill="none" stroke="#63b8ff" d="M173.61,-66C164.04,-66 154.07,-66 144.32,-66"/>
<polygon fill="#63b8ff" stroke="#63b8ff" points="173.54,-69.5 183.54,-66 173.54,-62.5 173.54,-69.5"/>
</a>
</g>
</g>
<!-- Node4 -->
<g id="Node000004" class="node">
<title>Node4</title>
<g id="a_Node000004"><a xlink:href="../../d6/d00/a01948.html#a82f88c00c88912fb0beab3db3dcccdf0" target="_top" xlink:title="Renders the popup and its contents.">
<polygon fill="white" stroke="#666666" points="129.62,-32 19.88,-32 19.88,0 129.62,0 129.62,-32"/>
<text text-anchor="start" x="27.88" y="-18.5" font-family="Helvetica,sans-Serif" font-size="10.00">GEU::ConfirmPopup::</text>
<text text-anchor="middle" x="74.75" y="-6.5" font-family="Helvetica,sans-Serif" font-size="10.00">renderPopup</text>
</a>
</g>
</g>
<!-- Node1&#45;&gt;Node4 -->
<g id="edge3_Node000001_Node000004" class="edge">
<title>Node1&#45;&gt;Node4</title>
<g id="a_edge3_Node000001_Node000004"><a xlink:title=" ">
<path fill="none" stroke="#63b8ff" d="M174.18,-47.15C158.94,-42.33 142.68,-37.18 127.85,-32.49"/>
<polygon fill="#63b8ff" stroke="#63b8ff" points="173.02,-50.45 183.61,-50.13 175.13,-43.78 173.02,-50.45"/>
</a>
</g>
</g>
</g>
</svg>
