<?xml version="1.0" encoding="UTF-8" standalone="no"?>
<!DOCTYPE svg PUBLIC "-//W3C//DTD SVG 1.1//EN"
 "http://www.w3.org/Graphics/SVG/1.1/DTD/svg11.dtd">
<!-- Generated by graphviz version 10.0.1 (20240210.2158)
 -->
<!-- Title: GEU::GuiUtilities::loadingIcon Pages: 1 -->
<svg width="463pt" height="540pt"
 viewBox="0.00 0.00 462.50 540.00" xmlns="http://www.w3.org/2000/svg" xmlns:xlink="http://www.w3.org/1999/xlink">
<g id="graph0" class="graph" transform="scale(1 1) rotate(0) translate(4 536)">
<title>GEU::GuiUtilities::loadingIcon</title>
<!-- Node1 -->
<g id="Node000001" class="node">
<title>Node1</title>
<g id="a_Node000001"><a xlink:title=" ">
<polygon fill="#999999" stroke="#666666" points="454.5,-257 358.25,-257 358.25,-225 454.5,-225 454.5,-257"/>
<text text-anchor="start" x="366.25" y="-243.5" font-family="Helvetica,sans-Serif" font-size="10.00">GEU::GuiUtilities::</text>
<text text-anchor="middle" x="406.38" y="-231.5" font-family="Helvetica,sans-Serif" font-size="10.00">loadingIcon</text>
</a>
</g>
</g>
<!-- Node2 -->
<g id="Node000002" class="node">
<title>Node2</title>
<g id="a_Node000002"><a xlink:href="../../d7/d04/a00634.html#a45648c2d9672ec5d0539ae9577e0b02b" target="_top" xlink:title=" ">
<polygon fill="white" stroke="#666666" points="309.5,-432 207.25,-432 207.25,-400 309.5,-400 309.5,-432"/>
<text text-anchor="start" x="215.25" y="-418.5" font-family="Helvetica,sans-Serif" font-size="10.00">GEU::GuiUtilities::</text>
<text text-anchor="middle" x="258.38" y="-406.5" font-family="Helvetica,sans-Serif" font-size="10.00">DatabaseQueryText</text>
</a>
</g>
</g>
<!-- Node1&#45;&gt;Node2 -->
<g id="edge1_Node000001_Node000002" class="edge">
<title>Node1&#45;&gt;Node2</title>
<g id="a_edge1_Node000001_Node000002"><a xlink:title=" ">
<path fill="none" stroke="#63b8ff" d="M384.49,-266.03C354.11,-302.44 298.57,-369.01 272.97,-399.71"/>
<polygon fill="#63b8ff" stroke="#63b8ff" points="386.95,-268.55 390.67,-258.63 381.58,-264.06 386.95,-268.55"/>
</a>
</g>
</g>
<!-- Node4 -->
<g id="Node000004" class="node">
<title>Node4</title>
<g id="a_Node000004"><a xlink:href="../../d7/d04/a00634.html#a4453728eb6a181d72fb1be2d7d26f73d" target="_top" xlink:title=" ">
<polygon fill="white" stroke="#666666" points="312.12,-282 204.62,-282 204.62,-250 312.12,-250 312.12,-282"/>
<text text-anchor="start" x="212.62" y="-268.5" font-family="Helvetica,sans-Serif" font-size="10.00">GEU::GuiUtilities::</text>
<text text-anchor="middle" x="258.38" y="-256.5" font-family="Helvetica,sans-Serif" font-size="10.00">makeDBQueryingInfo</text>
</a>
</g>
</g>
<!-- Node1&#45;&gt;Node4 -->
<g id="edge3_Node000001_Node000004" class="edge">
<title>Node1&#45;&gt;Node4</title>
<g id="a_edge3_Node000001_Node000004"><a xlink:title=" ">
<path fill="none" stroke="#63b8ff" d="M346.86,-251.02C335.54,-252.96 323.74,-254.98 312.61,-256.88"/>
<polygon fill="#63b8ff" stroke="#63b8ff" points="347.22,-254.51 356.48,-249.37 346.03,-247.61 347.22,-254.51"/>
</a>
</g>
</g>
<!-- Node15 -->
<g id="Node000015" class="node">
<title>Node15</title>
<g id="a_Node000015"><a xlink:href="../../d8/d02/a02044.html#a2d0ac3a4a73bd1a00f99bc0575951c9c" target="_top" xlink:title="Custom module GUI window contents.">
<polygon fill="white" stroke="#666666" points="317.75,-232 199,-232 199,-200 317.75,-200 317.75,-232"/>
<text text-anchor="start" x="207" y="-218.5" font-family="Helvetica,sans-Serif" font-size="10.00">GEU::HyperGUIAdapter</text>
<text text-anchor="middle" x="258.38" y="-206.5" font-family="Helvetica,sans-Serif" font-size="10.00">::renderGuiObject</text>
</a>
</g>
</g>
<!-- Node1&#45;&gt;Node15 -->
<g id="edge14_Node000001_Node000015" class="edge">
<title>Node1&#45;&gt;Node15</title>
<g id="a_edge14_Node000001_Node000015"><a xlink:title=" ">
<path fill="none" stroke="#63b8ff" d="M346.67,-230.95C337.24,-229.33 327.47,-227.66 318.03,-226.04"/>
<polygon fill="#63b8ff" stroke="#63b8ff" points="346.03,-234.39 356.48,-232.63 347.22,-227.49 346.03,-234.39"/>
</a>
</g>
</g>
<!-- Node16 -->
<g id="Node000016" class="node">
<title>Node16</title>
<g id="a_Node000016"><a xlink:href="../../dd/d07/a02132.html#a1509f8f0d21826efa7cc133bbd190931" target="_top" xlink:title="Custom module GUI window contents.">
<polygon fill="white" stroke="#666666" points="322.25,-182 194.5,-182 194.5,-150 322.25,-150 322.25,-182"/>
<text text-anchor="start" x="202.5" y="-168.5" font-family="Helvetica,sans-Serif" font-size="10.00">GEU::ThermalGUIAdapter</text>
<text text-anchor="middle" x="258.38" y="-156.5" font-family="Helvetica,sans-Serif" font-size="10.00">::renderGuiObject</text>
</a>
</g>
</g>
<!-- Node1&#45;&gt;Node16 -->
<g id="edge15_Node000001_Node000016" class="edge">
<title>Node1&#45;&gt;Node16</title>
<g id="a_edge15_Node000001_Node000016"><a xlink:title=" ">
<path fill="none" stroke="#63b8ff" d="M370.85,-218.5C356.17,-209.4 338.68,-199.14 322.25,-191 316.25,-188.03 309.81,-185.14 303.41,-182.45"/>
<polygon fill="#63b8ff" stroke="#63b8ff" points="368.9,-221.42 379.23,-223.78 372.63,-215.49 368.9,-221.42"/>
</a>
</g>
</g>
<!-- Node3 -->
<g id="Node000003" class="node">
<title>Node3</title>
<g id="a_Node000003"><a xlink:href="../../d2/d02/a01488.html#a6b45f3f4957a46091ab0d75b9600a56d" target="_top" xlink:title="Renders the popup and its contents.">
<polygon fill="white" stroke="#666666" points="158.5,-532 0,-532 0,-500 158.5,-500 158.5,-532"/>
<text text-anchor="start" x="8" y="-518.5" font-family="Helvetica,sans-Serif" font-size="10.00">GEU::DatabaseQueryDatoPopup</text>
<text text-anchor="middle" x="79.25" y="-506.5" font-family="Helvetica,sans-Serif" font-size="10.00">::renderPopup</text>
</a>
</g>
</g>
<!-- Node2&#45;&gt;Node3 -->
<g id="edge2_Node000002_Node000003" class="edge">
<title>Node2&#45;&gt;Node3</title>
<g id="a_edge2_Node000002_Node000003"><a xlink:title=" ">
<path fill="none" stroke="#63b8ff" d="M231.04,-439.95C212.03,-456.2 185.12,-477.17 158.5,-491 152.43,-494.16 145.88,-497.01 139.25,-499.56"/>
<polygon fill="#63b8ff" stroke="#63b8ff" points="233.32,-442.6 238.56,-433.4 228.72,-437.33 233.32,-442.6"/>
</a>
</g>
</g>
<!-- Node5 -->
<g id="Node000005" class="node">
<title>Node5</title>
<g id="a_Node000005"><a xlink:href="../../d0/d06/a01536.html#ab95b74bfc7395d03f358cecc811ed215" target="_top" xlink:title=" ">
<polygon fill="white" stroke="#666666" points="157,-482 1.5,-482 1.5,-450 157,-450 157,-482"/>
<text text-anchor="start" x="9.5" y="-468.5" font-family="Helvetica,sans-Serif" font-size="10.00">GEU::DatabaseNewVueloPopup</text>
<text text-anchor="middle" x="79.25" y="-456.5" font-family="Helvetica,sans-Serif" font-size="10.00">::handleDronPopup</text>
</a>
</g>
</g>
<!-- Node4&#45;&gt;Node5 -->
<g id="edge4_Node000004_Node000005" class="edge">
<title>Node4&#45;&gt;Node5</title>
<g id="a_edge4_Node000004_Node000005"><a xlink:title=" ">
<path fill="none" stroke="#63b8ff" d="M243.71,-292.63C219.72,-338.97 171.38,-430.53 158.5,-441 154.52,-444.24 150.11,-447.06 145.47,-449.52"/>
<polygon fill="#63b8ff" stroke="#63b8ff" points="246.8,-294.26 248.28,-283.77 240.58,-291.05 246.8,-294.26"/>
</a>
</g>
</g>
<!-- Node6 -->
<g id="Node000006" class="node">
<title>Node6</title>
<g id="a_Node000006"><a xlink:href="../../d0/d06/a01536.html#a3939a10ac14ff4dbfd34f341fc52db79" target="_top" xlink:title=" ">
<polygon fill="white" stroke="#666666" points="157,-432 1.5,-432 1.5,-400 157,-400 157,-432"/>
<text text-anchor="start" x="9.5" y="-418.5" font-family="Helvetica,sans-Serif" font-size="10.00">GEU::DatabaseNewVueloPopup</text>
<text text-anchor="middle" x="79.25" y="-406.5" font-family="Helvetica,sans-Serif" font-size="10.00">::handleZonaPopup</text>
</a>
</g>
</g>
<!-- Node4&#45;&gt;Node6 -->
<g id="edge5_Node000004_Node000006" class="edge">
<title>Node4&#45;&gt;Node6</title>
<g id="a_edge5_Node000004_Node000006"><a xlink:title=" ">
<path fill="none" stroke="#63b8ff" d="M243.21,-291.97C226.5,-320.25 196.19,-364.91 158.5,-391 153.81,-394.25 148.67,-397.09 143.35,-399.57"/>
<polygon fill="#63b8ff" stroke="#63b8ff" points="246.03,-294.08 247.98,-283.67 239.96,-290.59 246.03,-294.08"/>
</a>
</g>
</g>
<!-- Node7 -->
<g id="Node000007" class="node">
<title>Node7</title>
<g id="a_Node000007"><a xlink:href="../../d3/d04/a01540.html#adb90287e5ae55991c17a08e912aff67c" target="_top" xlink:title=" ">
<polygon fill="white" stroke="#666666" points="148.38,-382 10.12,-382 10.12,-350 148.38,-350 148.38,-382"/>
<text text-anchor="start" x="18.12" y="-368.5" font-family="Helvetica,sans-Serif" font-size="10.00">GEU::DatabaseQueryPopup</text>
<text text-anchor="middle" x="79.25" y="-356.5" font-family="Helvetica,sans-Serif" font-size="10.00">::makeFormCamara</text>
</a>
</g>
</g>
<!-- Node4&#45;&gt;Node7 -->
<g id="edge6_Node000004_Node000007" class="edge">
<title>Node4&#45;&gt;Node7</title>
<g id="a_edge6_Node000004_Node000007"><a xlink:title=" ">
<path fill="none" stroke="#63b8ff" d="M231.04,-289.95C212.03,-306.2 185.12,-327.17 158.5,-341 152.43,-344.16 145.88,-347.01 139.25,-349.56"/>
<polygon fill="#63b8ff" stroke="#63b8ff" points="233.32,-292.6 238.56,-283.4 228.72,-287.33 233.32,-292.6"/>
</a>
</g>
</g>
<!-- Node8 -->
<g id="Node000008" class="node">
<title>Node8</title>
<g id="a_Node000008"><a xlink:href="../../d3/d04/a01540.html#a83023007463bdd6e6a4b40c55146b825" target="_top" xlink:title=" ">
<polygon fill="white" stroke="#666666" points="148.38,-332 10.12,-332 10.12,-300 148.38,-300 148.38,-332"/>
<text text-anchor="start" x="18.12" y="-318.5" font-family="Helvetica,sans-Serif" font-size="10.00">GEU::DatabaseQueryPopup</text>
<text text-anchor="middle" x="79.25" y="-306.5" font-family="Helvetica,sans-Serif" font-size="10.00">::makeFormDatoCrudo</text>
</a>
</g>
</g>
<!-- Node4&#45;&gt;Node8 -->
<g id="edge7_Node000004_Node000008" class="edge">
<title>Node4&#45;&gt;Node8</title>
<g id="a_edge7_Node000004_Node000008"><a xlink:title=" ">
<path fill="none" stroke="#63b8ff" d="M193.32,-284.08C175.45,-289.13 156.14,-294.58 138.61,-299.52"/>
<polygon fill="#63b8ff" stroke="#63b8ff" points="194.1,-287.5 202.78,-281.41 192.2,-280.76 194.1,-287.5"/>
</a>
</g>
</g>
<!-- Node9 -->
<g id="Node000009" class="node">
<title>Node9</title>
<g id="a_Node000009"><a xlink:href="../../d3/d04/a01540.html#a1946c8c9ce8e263ceda1d7cc6da23e9e" target="_top" xlink:title=" ">
<polygon fill="white" stroke="#666666" points="148.38,-282 10.12,-282 10.12,-250 148.38,-250 148.38,-282"/>
<text text-anchor="start" x="18.12" y="-268.5" font-family="Helvetica,sans-Serif" font-size="10.00">GEU::DatabaseQueryPopup</text>
<text text-anchor="middle" x="79.25" y="-256.5" font-family="Helvetica,sans-Serif" font-size="10.00">::makeFormDron</text>
</a>
</g>
</g>
<!-- Node4&#45;&gt;Node9 -->
<g id="edge8_Node000004_Node000009" class="edge">
<title>Node4&#45;&gt;Node9</title>
<g id="a_edge8_Node000004_Node000009"><a xlink:title=" ">
<path fill="none" stroke="#63b8ff" d="M192.94,-266C178.59,-266 163.31,-266 148.79,-266"/>
<polygon fill="#63b8ff" stroke="#63b8ff" points="192.72,-269.5 202.72,-266 192.72,-262.5 192.72,-269.5"/>
</a>
</g>
</g>
<!-- Node10 -->
<g id="Node000010" class="node">
<title>Node10</title>
<g id="a_Node000010"><a xlink:href="../../d3/d04/a01540.html#a7e928a635f870efcaf7dc0826c039858" target="_top" xlink:title=" ">
<polygon fill="white" stroke="#666666" points="148.38,-232 10.12,-232 10.12,-200 148.38,-200 148.38,-232"/>
<text text-anchor="start" x="18.12" y="-218.5" font-family="Helvetica,sans-Serif" font-size="10.00">GEU::DatabaseQueryPopup</text>
<text text-anchor="middle" x="79.25" y="-206.5" font-family="Helvetica,sans-Serif" font-size="10.00">::makeFormFinca</text>
</a>
</g>
</g>
<!-- Node4&#45;&gt;Node10 -->
<g id="edge9_Node000004_Node000010" class="edge">
<title>Node4&#45;&gt;Node10</title>
<g id="a_edge9_Node000004_Node000010"><a xlink:title=" ">
<path fill="none" stroke="#63b8ff" d="M193.32,-247.92C175.45,-242.87 156.14,-237.42 138.61,-232.48"/>
<polygon fill="#63b8ff" stroke="#63b8ff" points="192.2,-251.24 202.78,-250.59 194.1,-244.5 192.2,-251.24"/>
</a>
</g>
</g>
<!-- Node11 -->
<g id="Node000011" class="node">
<title>Node11</title>
<g id="a_Node000011"><a xlink:href="../../d3/d04/a01540.html#aee96f5bdc802183d992461ccf7af7606" target="_top" xlink:title=" ">
<polygon fill="white" stroke="#666666" points="148.38,-182 10.12,-182 10.12,-150 148.38,-150 148.38,-182"/>
<text text-anchor="start" x="18.12" y="-168.5" font-family="Helvetica,sans-Serif" font-size="10.00">GEU::DatabaseQueryPopup</text>
<text text-anchor="middle" x="79.25" y="-156.5" font-family="Helvetica,sans-Serif" font-size="10.00">::makeFormObjeto</text>
</a>
</g>
</g>
<!-- Node4&#45;&gt;Node11 -->
<g id="edge10_Node000004_Node000011" class="edge">
<title>Node4&#45;&gt;Node11</title>
<g id="a_edge10_Node000004_Node000011"><a xlink:title=" ">
<path fill="none" stroke="#63b8ff" d="M198.04,-243.6C196.83,-242.76 195.65,-241.89 194.5,-241 172.91,-224.15 180.66,-207.09 158.5,-191 154,-187.73 149.05,-184.88 143.9,-182.39"/>
<polygon fill="#63b8ff" stroke="#63b8ff" points="196.15,-246.55 206.52,-248.72 199.77,-240.56 196.15,-246.55"/>
</a>
</g>
</g>
<!-- Node12 -->
<g id="Node000012" class="node">
<title>Node12</title>
<g id="a_Node000012"><a xlink:href="../../d3/d04/a01540.html#a6799cf756f5e2cb191268e786a8df4ba" target="_top" xlink:title=" ">
<polygon fill="white" stroke="#666666" points="148.38,-132 10.12,-132 10.12,-100 148.38,-100 148.38,-132"/>
<text text-anchor="start" x="18.12" y="-118.5" font-family="Helvetica,sans-Serif" font-size="10.00">GEU::DatabaseQueryPopup</text>
<text text-anchor="middle" x="79.25" y="-106.5" font-family="Helvetica,sans-Serif" font-size="10.00">::makeFormVuelos</text>
</a>
</g>
</g>
<!-- Node4&#45;&gt;Node12 -->
<g id="edge11_Node000004_Node000012" class="edge">
<title>Node4&#45;&gt;Node12</title>
<g id="a_edge11_Node000004_Node000012"><a xlink:title=" ">
<path fill="none" stroke="#63b8ff" d="M196.34,-242.81C195.71,-242.22 195.1,-241.62 194.5,-241 161.65,-207.05 192.5,-173.79 158.5,-141 155.11,-137.73 151.3,-134.89 147.22,-132.42"/>
<polygon fill="#63b8ff" stroke="#63b8ff" points="194.03,-245.44 204.1,-248.74 198.28,-239.89 194.03,-245.44"/>
</a>
</g>
</g>
<!-- Node13 -->
<g id="Node000013" class="node">
<title>Node13</title>
<g id="a_Node000013"><a xlink:href="../../d3/d04/a01540.html#ad5e45356898c5dfc51d7ef890f7a5b41" target="_top" xlink:title=" ">
<polygon fill="white" stroke="#666666" points="148.38,-82 10.12,-82 10.12,-50 148.38,-50 148.38,-82"/>
<text text-anchor="start" x="18.12" y="-68.5" font-family="Helvetica,sans-Serif" font-size="10.00">GEU::DatabaseQueryPopup</text>
<text text-anchor="middle" x="79.25" y="-56.5" font-family="Helvetica,sans-Serif" font-size="10.00">::makeFormZona</text>
</a>
</g>
</g>
<!-- Node4&#45;&gt;Node13 -->
<g id="edge12_Node000004_Node000013" class="edge">
<title>Node4&#45;&gt;Node13</title>
<g id="a_edge12_Node000004_Node000013"><a xlink:title=" ">
<path fill="none" stroke="#63b8ff" d="M195.59,-242.21C195.22,-241.81 194.86,-241.41 194.5,-241 149.61,-189.18 205.16,-141.23 158.5,-91 155.49,-87.76 152.06,-84.94 148.36,-82.48"/>
<polygon fill="#63b8ff" stroke="#63b8ff" points="193.27,-244.83 203.16,-248.65 197.81,-239.5 193.27,-244.83"/>
</a>
</g>
</g>
<!-- Node14 -->
<g id="Node000014" class="node">
<title>Node14</title>
<g id="a_Node000014"><a xlink:href="../../d3/d04/a01540.html#afc8c81955f8b810c699753b511f61031" target="_top" xlink:title=" ">
<polygon fill="white" stroke="#666666" points="148.38,-32 10.12,-32 10.12,0 148.38,0 148.38,-32"/>
<text text-anchor="start" x="18.12" y="-18.5" font-family="Helvetica,sans-Serif" font-size="10.00">GEU::DatabaseQueryPopup</text>
<text text-anchor="middle" x="79.25" y="-6.5" font-family="Helvetica,sans-Serif" font-size="10.00">::makeZonaSelectorTable</text>
</a>
</g>
</g>
<!-- Node4&#45;&gt;Node14 -->
<g id="edge13_Node000004_Node000014" class="edge">
<title>Node4&#45;&gt;Node14</title>
<g id="a_edge13_Node000004_Node000014"><a xlink:title=" ">
<path fill="none" stroke="#63b8ff" d="M195.86,-242.59C195.4,-242.07 194.94,-241.54 194.5,-241 137.34,-171.07 218.04,-108.91 158.5,-41 155.59,-37.68 152.23,-34.79 148.58,-32.29"/>
<polygon fill="#63b8ff" stroke="#63b8ff" points="193.41,-245.09 203.25,-249.01 198,-239.81 193.41,-245.09"/>
</a>
</g>
</g>
</g>
</svg>
