<?xml version="1.0" encoding="UTF-8" standalone="no"?>
<!DOCTYPE svg PUBLIC "-//W3C//DTD SVG 1.1//EN"
 "http://www.w3.org/Graphics/SVG/1.1/DTD/svg11.dtd">
<!-- Generated by graphviz version 10.0.1 (20240210.2158)
 -->
<!-- Title: GEU::FileManager Pages: 1 -->
<svg width="377pt" height="245pt"
 viewBox="0.00 0.00 377.24 245.00" xmlns="http://www.w3.org/2000/svg" xmlns:xlink="http://www.w3.org/1999/xlink">
<g id="graph0" class="graph" transform="scale(1 1) rotate(0) translate(4 241)">
<title>GEU::FileManager</title>
<!-- Node1 -->
<g id="Node000001" class="node">
<title>Node1</title>
<g id="a_Node000001"><a xlink:title=" ">
<polygon fill="#999999" stroke="#666666" points="226.11,-20 129.86,-20 129.86,0 226.11,0 226.11,-20"/>
<text text-anchor="middle" x="177.99" y="-6.5" font-family="Helvetica,sans-Serif" font-size="10.00">GEU::FileManager</text>
</a>
</g>
</g>
<!-- Node2 -->
<g id="Node000002" class="node">
<title>Node2</title>
<g id="a_Node000002"><a xlink:title=" ">
<polygon fill="white" stroke="#666666" points="229.11,-100 126.86,-100 126.86,-68 229.11,-68 229.11,-100"/>
<text text-anchor="start" x="134.86" y="-86.5" font-family="Helvetica,sans-Serif" font-size="10.00">std::unordered_map</text>
<text text-anchor="middle" x="177.99" y="-74.5" font-family="Helvetica,sans-Serif" font-size="10.00">&lt; std::string, char &gt;</text>
</a>
</g>
</g>
<!-- Node2&#45;&gt;Node1 -->
<g id="edge1_Node000001_Node000002" class="edge">
<title>Node2&#45;&gt;Node1</title>
<g id="a_edge1_Node000001_Node000002"><a xlink:title=" ">
<path fill="none" stroke="#9a32cd" stroke-dasharray="5,2" d="M177.99,-56.34C177.99,-43.7 177.99,-29.41 177.99,-20.31"/>
<polygon fill="#9a32cd" stroke="#9a32cd" points="174.49,-56.22 177.99,-66.22 181.49,-56.22 174.49,-56.22"/>
</a>
</g>
<text text-anchor="middle" x="217.74" y="-40.5" font-family="Helvetica,sans-Serif" font-size="10.00" fill="grey"> LASClassification</text>
</g>
<!-- Node3 -->
<g id="Node000003" class="node">
<title>Node3</title>
<g id="a_Node000003"><a xlink:title=" ">
<polygon fill="white" stroke="#666666" points="207.74,-168 148.24,-168 148.24,-148 207.74,-148 207.74,-168"/>
<text text-anchor="middle" x="177.99" y="-154.5" font-family="Helvetica,sans-Serif" font-size="10.00">std::string</text>
</a>
</g>
</g>
<!-- Node3&#45;&gt;Node1 -->
<g id="edge4_Node000001_Node000003" class="edge">
<title>Node3&#45;&gt;Node1</title>
<g id="a_edge4_Node000001_Node000003"><a xlink:title=" ">
<path fill="none" stroke="#9a32cd" stroke-dasharray="5,2" d="M136.79,-151.68C75.67,-142.03 -28.14,-117.84 7.74,-68 35.23,-29.8 89.52,-16.83 129.44,-12.62"/>
<polygon fill="#9a32cd" stroke="#9a32cd" points="136.12,-155.12 146.52,-153.14 137.16,-148.2 136.12,-155.12"/>
</a>
</g>
<text text-anchor="middle" x="63.11" y="-80.5" font-family="Helvetica,sans-Serif" font-size="10.00" fill="grey"> LASClassificationStrings</text>
</g>
<!-- Node3&#45;&gt;Node2 -->
<g id="edge2_Node000002_Node000003" class="edge">
<title>Node3&#45;&gt;Node2</title>
<g id="a_edge2_Node000002_Node000003"><a xlink:title=" ">
<path fill="none" stroke="#9a32cd" stroke-dasharray="5,2" d="M177.99,-136.1C177.99,-124.71 177.99,-110.87 177.99,-100.47"/>
<polygon fill="#9a32cd" stroke="#9a32cd" points="174.49,-136.07 177.99,-146.07 181.49,-136.07 174.49,-136.07"/>
</a>
</g>
<text text-anchor="middle" x="189.99" y="-120.5" font-family="Helvetica,sans-Serif" font-size="10.00" fill="grey"> keys</text>
</g>
<!-- Node5 -->
<g id="Node000005" class="node">
<title>Node5</title>
<g id="a_Node000005"><a xlink:title=" ">
<polygon fill="white" stroke="#666666" points="369.24,-94 246.74,-94 246.74,-74 369.24,-74 369.24,-94"/>
<text text-anchor="middle" x="307.99" y="-80.5" font-family="Helvetica,sans-Serif" font-size="10.00">std::vector&lt; std::string &gt;</text>
</a>
</g>
</g>
<!-- Node3&#45;&gt;Node5 -->
<g id="edge6_Node000005_Node000003" class="edge">
<title>Node3&#45;&gt;Node5</title>
<g id="a_edge6_Node000005_Node000003"><a xlink:title=" ">
<path fill="none" stroke="#9a32cd" stroke-dasharray="5,2" d="M204.89,-142.1C230.77,-127.77 269.09,-106.54 290.99,-94.42"/>
<polygon fill="#9a32cd" stroke="#9a32cd" points="203.36,-138.95 196.31,-146.85 206.75,-145.07 203.36,-138.95"/>
</a>
</g>
<text text-anchor="middle" x="268.36" y="-120.5" font-family="Helvetica,sans-Serif" font-size="10.00" fill="grey"> elements</text>
</g>
<!-- Node4 -->
<g id="Node000004" class="node">
<title>Node4</title>
<g id="a_Node000004"><a xlink:title=" ">
<polygon fill="white" stroke="#666666" points="224.99,-237 130.99,-237 130.99,-205 224.99,-205 224.99,-237"/>
<text text-anchor="start" x="138.99" y="-223.5" font-family="Helvetica,sans-Serif" font-size="10.00">std::basic_string&lt;</text>
<text text-anchor="middle" x="177.99" y="-211.5" font-family="Helvetica,sans-Serif" font-size="10.00"> Char &gt;</text>
</a>
</g>
</g>
<!-- Node4&#45;&gt;Node3 -->
<g id="edge3_Node000003_Node000004" class="edge">
<title>Node4&#45;&gt;Node3</title>
<g id="a_edge3_Node000003_Node000004"><a xlink:title=" ">
<path fill="none" stroke="#63b8ff" d="M177.99,-193.36C177.99,-184.41 177.99,-175.01 177.99,-168.31"/>
<polygon fill="#63b8ff" stroke="#63b8ff" points="174.49,-193.09 177.99,-203.09 181.49,-193.09 174.49,-193.09"/>
</a>
</g>
</g>
<!-- Node5&#45;&gt;Node1 -->
<g id="edge5_Node000001_Node000005" class="edge">
<title>Node5&#45;&gt;Node1</title>
<g id="a_edge5_Node000001_Node000005"><a xlink:title=" ">
<path fill="none" stroke="#9a32cd" stroke-dasharray="5,2" d="M293.08,-65.29C284.5,-56.06 273.06,-45.22 260.99,-38 248.24,-30.38 233.09,-24.63 219.25,-20.45"/>
<polygon fill="#9a32cd" stroke="#9a32cd" points="290.36,-67.5 299.61,-72.66 295.6,-62.86 290.36,-67.5"/>
</a>
</g>
<text text-anchor="middle" x="303.24" y="-40.5" font-family="Helvetica,sans-Serif" font-size="10.00" fill="grey"> loadedFiles</text>
</g>
</g>
</svg>
