<?xml version="1.0" encoding="UTF-8" standalone="no"?>
<!DOCTYPE svg PUBLIC "-//W3C//DTD SVG 1.1//EN"
 "http://www.w3.org/Graphics/SVG/1.1/DTD/svg11.dtd">
<!-- Generated by graphviz version 10.0.1 (20240210.2158)
 -->
<!-- Title: GEU::MultiespectralGUIAdapter::mapping Pages: 1 -->
<svg width="707pt" height="379pt"
 viewBox="0.00 0.00 707.25 379.00" xmlns="http://www.w3.org/2000/svg" xmlns:xlink="http://www.w3.org/1999/xlink">
<g id="graph0" class="graph" transform="scale(1 1) rotate(0) translate(4 375)">
<title>GEU::MultiespectralGUIAdapter::mapping</title>
<!-- Node1 -->
<g id="Node000001" class="node">
<title>Node1</title>
<g id="a_Node000001"><a xlink:title=" ">
<polygon fill="#999999" stroke="#666666" points="154,-164 0,-164 0,-132 154,-132 154,-164"/>
<text text-anchor="start" x="8" y="-150.5" font-family="Helvetica,sans-Serif" font-size="10.00">GEU::MultiespectralGUIAdapter</text>
<text text-anchor="middle" x="77" y="-138.5" font-family="Helvetica,sans-Serif" font-size="10.00">::mapping</text>
</a>
</g>
</g>
<!-- Node2 -->
<g id="Node000002" class="node">
<title>Node2</title>
<g id="a_Node000002"><a xlink:href="../../d0/d01/class_g_e_u_1_1pcl_conversor.html#adc2f8b28918ebe56bfdc1bc9cad8b16f" target="_top" xlink:title=" ">
<polygon fill="white" stroke="#666666" points="331.25,-308 208,-308 208,-276 331.25,-276 331.25,-308"/>
<text text-anchor="start" x="216" y="-294.5" font-family="Helvetica,sans-Serif" font-size="10.00">GEU::pclConversor::</text>
<text text-anchor="middle" x="269.62" y="-282.5" font-family="Helvetica,sans-Serif" font-size="10.00">convertToPCLPointCloud</text>
</a>
</g>
</g>
<!-- Node1&#45;&gt;Node2 -->
<g id="edge1_Node000001_Node000002" class="edge">
<title>Node1&#45;&gt;Node2</title>
<g id="a_edge1_Node000001_Node000002"><a xlink:title=" ">
<path fill="none" stroke="#63b8ff" d="M89.11,-164.35C107.29,-189.88 145.82,-239.19 190,-267 192.3,-268.45 194.69,-269.82 197.15,-271.12"/>
<polygon fill="#63b8ff" stroke="#63b8ff" points="195.65,-274.28 206.18,-275.4 198.64,-267.95 195.65,-274.28"/>
</a>
</g>
</g>
<!-- Node7 -->
<g id="Node000007" class="node">
<title>Node7</title>
<g id="a_Node000007"><a xlink:href="../../d1/d01/class_g_e_u_1_1_singleton.html#a47c7e7c2110f4cc59c9ff1f5594c366e" target="_top" xlink:title=" ">
<polygon fill="white" stroke="#666666" points="345.5,-258 193.75,-258 193.75,-226 345.5,-226 345.5,-258"/>
<text text-anchor="start" x="201.75" y="-244.5" font-family="Helvetica,sans-Serif" font-size="10.00">GEU::Singleton&lt; LocaleStrings</text>
<text text-anchor="middle" x="269.62" y="-232.5" font-family="Helvetica,sans-Serif" font-size="10.00"> &gt;::getInstance</text>
</a>
</g>
</g>
<!-- Node1&#45;&gt;Node7 -->
<g id="edge6_Node000001_Node000007" class="edge">
<title>Node1&#45;&gt;Node7</title>
<g id="a_edge6_Node000001_Node000007"><a xlink:title=" ">
<path fill="none" stroke="#63b8ff" d="M100.67,-164.27C122.67,-179.49 157.41,-202.05 190,-217 193.49,-218.6 197.11,-220.14 200.8,-221.61"/>
<polygon fill="#63b8ff" stroke="#63b8ff" points="199.3,-224.79 209.9,-225.06 201.78,-218.24 199.3,-224.79"/>
</a>
</g>
</g>
<!-- Node8 -->
<g id="Node000008" class="node">
<title>Node8</title>
<g id="a_Node000008"><a xlink:href="../../d4/d07/class_g_e_u_1_1_point_cloud.html#a3e01cb77a356f6d7d0f1974cb18dc9d6" target="_top" xlink:title=" ">
<polygon fill="white" stroke="#666666" points="341.38,-208 197.88,-208 197.88,-176 341.38,-176 341.38,-208"/>
<text text-anchor="start" x="205.88" y="-194.5" font-family="Helvetica,sans-Serif" font-size="10.00">GEU::PointCloud::getNumber</text>
<text text-anchor="middle" x="269.62" y="-182.5" font-family="Helvetica,sans-Serif" font-size="10.00">OfPoints</text>
</a>
</g>
</g>
<!-- Node1&#45;&gt;Node8 -->
<g id="edge7_Node000001_Node000008" class="edge">
<title>Node1&#45;&gt;Node8</title>
<g id="a_edge7_Node000001_Node000008"><a xlink:title=" ">
<path fill="none" stroke="#63b8ff" d="M149.25,-164.45C161.32,-167.23 173.93,-170.14 186.25,-172.99"/>
<polygon fill="#63b8ff" stroke="#63b8ff" points="185.45,-176.39 195.98,-175.23 187.03,-169.57 185.45,-176.39"/>
</a>
</g>
</g>
<!-- Node9 -->
<g id="Node000009" class="node">
<title>Node9</title>
<g id="a_Node000009"><a xlink:href="../../d2/d04/class_locale_strings.html#ac66087ac25e72051ea7b5bf3d00dd71f" target="_top" xlink:title=" ">
<polygon fill="white" stroke="#666666" points="329.75,-158 209.5,-158 209.5,-138 329.75,-138 329.75,-158"/>
<text text-anchor="middle" x="269.62" y="-144.5" font-family="Helvetica,sans-Serif" font-size="10.00">LocaleStrings::getString</text>
</a>
</g>
</g>
<!-- Node1&#45;&gt;Node9 -->
<g id="edge8_Node000001_Node000009" class="edge">
<title>Node1&#45;&gt;Node9</title>
<g id="a_edge8_Node000001_Node000009"><a xlink:title=" ">
<path fill="none" stroke="#63b8ff" d="M154.44,-148C168.82,-148 183.8,-148 198,-148"/>
<polygon fill="#63b8ff" stroke="#63b8ff" points="197.68,-151.5 207.68,-148 197.68,-144.5 197.68,-151.5"/>
</a>
</g>
</g>
<!-- Node10 -->
<g id="Node000010" class="node">
<title>Node10</title>
<g id="a_Node000010"><a xlink:href="../../d7/d07/class_metadata_reader.html#a5da5327f2a3dae64e1073807d8e49099" target="_top" xlink:title=" ">
<polygon fill="white" stroke="#666666" points="349.25,-120 190,-120 190,-88 349.25,-88 349.25,-120"/>
<text text-anchor="start" x="198" y="-106.5" font-family="Helvetica,sans-Serif" font-size="10.00">MetadataReader::readMicasense</text>
<text text-anchor="middle" x="269.62" y="-94.5" font-family="Helvetica,sans-Serif" font-size="10.00">Metadata</text>
</a>
</g>
</g>
<!-- Node1&#45;&gt;Node10 -->
<g id="edge9_Node000001_Node000010" class="edge">
<title>Node1&#45;&gt;Node10</title>
<g id="a_edge9_Node000001_Node000010"><a xlink:title=" ">
<path fill="none" stroke="#63b8ff" d="M149.25,-131.55C161.24,-128.79 173.76,-125.9 186,-123.07"/>
<polygon fill="#63b8ff" stroke="#63b8ff" points="186.71,-126.5 195.67,-120.84 185.14,-119.68 186.71,-126.5"/>
</a>
</g>
</g>
<!-- Node11 -->
<g id="Node000011" class="node">
<title>Node11</title>
<g id="a_Node000011"><a xlink:href="../../d7/d07/class_metadata_reader.html#a5baae423b957e74cef1df556523e2cda" target="_top" xlink:title=" ">
<polygon fill="white" stroke="#666666" points="338.75,-70 200.5,-70 200.5,-38 338.75,-38 338.75,-70"/>
<text text-anchor="start" x="208.5" y="-56.5" font-family="Helvetica,sans-Serif" font-size="10.00">MetadataReader::readParrot</text>
<text text-anchor="middle" x="269.62" y="-44.5" font-family="Helvetica,sans-Serif" font-size="10.00">Metadata</text>
</a>
</g>
</g>
<!-- Node1&#45;&gt;Node11 -->
<g id="edge10_Node000001_Node000011" class="edge">
<title>Node1&#45;&gt;Node11</title>
<g id="a_edge10_Node000001_Node000011"><a xlink:title=" ">
<path fill="none" stroke="#63b8ff" d="M100.67,-131.73C122.67,-116.51 157.41,-93.95 190,-79 193.49,-77.4 197.11,-75.86 200.8,-74.39"/>
<polygon fill="#63b8ff" stroke="#63b8ff" points="201.78,-77.76 209.9,-70.94 199.3,-71.21 201.78,-77.76"/>
</a>
</g>
</g>
<!-- Node16 -->
<g id="Node000016" class="node">
<title>Node16</title>
<g id="a_Node000016"><a xlink:href="../../d4/d07/class_g_e_u_1_1_point_cloud.html#aead0a626c252103daa2e095614f4c460" target="_top" xlink:title="Sustituye el vector de datos especificado por el nuevo.">
<polygon fill="white" stroke="#666666" points="334.62,-20 204.62,-20 204.62,0 334.62,0 334.62,-20"/>
<text text-anchor="middle" x="269.62" y="-6.5" font-family="Helvetica,sans-Serif" font-size="10.00">GEU::PointCloud::setData</text>
</a>
</g>
</g>
<!-- Node1&#45;&gt;Node16 -->
<g id="edge15_Node000001_Node000016" class="edge">
<title>Node1&#45;&gt;Node16</title>
<g id="a_edge15_Node000001_Node000016"><a xlink:title=" ">
<path fill="none" stroke="#63b8ff" d="M88.59,-131.7C106.34,-105.77 144.62,-55.37 190,-29 192.79,-27.38 195.71,-25.9 198.72,-24.54"/>
<polygon fill="#63b8ff" stroke="#63b8ff" points="199.79,-27.88 207.8,-20.95 197.21,-21.37 199.79,-27.88"/>
</a>
</g>
</g>
<!-- Node3 -->
<g id="Node000003" class="node">
<title>Node3</title>
<g id="a_Node000003"><a xlink:href="../../db/d04/class_g_e_u_1_1_model3_d.html#aea23eb9ab8de56f02dacaa5155fcac15" target="_top" xlink:title=" ">
<polygon fill="white" stroke="#666666" points="540,-371 386,-371 386,-351 540,-351 540,-371"/>
<text text-anchor="middle" x="463" y="-357.5" font-family="Helvetica,sans-Serif" font-size="10.00">GEU::Model3D::getModelMatrix</text>
</a>
</g>
</g>
<!-- Node2&#45;&gt;Node3 -->
<g id="edge2_Node000002_Node000003" class="edge">
<title>Node2&#45;&gt;Node3</title>
<g id="a_edge2_Node000002_Node000003"><a xlink:title=" ">
<path fill="none" stroke="#63b8ff" d="M304.14,-308.41C326.69,-319 357.29,-332.52 385.25,-342 391.1,-343.98 397.26,-345.86 403.45,-347.6"/>
<polygon fill="#63b8ff" stroke="#63b8ff" points="402.53,-350.97 413.09,-350.19 404.34,-344.21 402.53,-350.97"/>
</a>
</g>
</g>
<!-- Node4 -->
<g id="Node000004" class="node">
<title>Node4</title>
<g id="a_Node000004"><a xlink:href="../../d4/d07/class_g_e_u_1_1_point_cloud.html#a9a79b080d808d3e589ce16bee701fdcf" target="_top" xlink:title=" ">
<polygon fill="white" stroke="#666666" points="531.75,-333 394.25,-333 394.25,-301 531.75,-301 531.75,-333"/>
<text text-anchor="start" x="402.25" y="-319.5" font-family="Helvetica,sans-Serif" font-size="10.00">GEU::PointCloud::getPoints</text>
<text text-anchor="middle" x="463" y="-307.5" font-family="Helvetica,sans-Serif" font-size="10.00">Color</text>
</a>
</g>
</g>
<!-- Node2&#45;&gt;Node4 -->
<g id="edge3_Node000002_Node000004" class="edge">
<title>Node2&#45;&gt;Node4</title>
<g id="a_edge3_Node000002_Node000004"><a xlink:title=" ">
<path fill="none" stroke="#63b8ff" d="M331.7,-299.98C347.95,-302.1 365.72,-304.42 382.78,-306.65"/>
<polygon fill="#63b8ff" stroke="#63b8ff" points="382,-310.08 392.37,-307.9 382.9,-303.14 382,-310.08"/>
</a>
</g>
</g>
<!-- Node5 -->
<g id="Node000005" class="node">
<title>Node5</title>
<g id="a_Node000005"><a xlink:href="../../d4/d07/class_g_e_u_1_1_point_cloud.html#adfe68d38eadddf88006ccc5789d5a497" target="_top" xlink:title=" ">
<polygon fill="white" stroke="#666666" points="531.75,-283 394.25,-283 394.25,-251 531.75,-251 531.75,-283"/>
<text text-anchor="start" x="402.25" y="-269.5" font-family="Helvetica,sans-Serif" font-size="10.00">GEU::PointCloud::getPoints</text>
<text text-anchor="middle" x="463" y="-257.5" font-family="Helvetica,sans-Serif" font-size="10.00">Position</text>
</a>
</g>
</g>
<!-- Node2&#45;&gt;Node5 -->
<g id="edge4_Node000002_Node000005" class="edge">
<title>Node2&#45;&gt;Node5</title>
<g id="a_edge4_Node000002_Node000005"><a xlink:title=" ">
<path fill="none" stroke="#63b8ff" d="M331.7,-284.02C347.95,-281.9 365.72,-279.58 382.78,-277.35"/>
<polygon fill="#63b8ff" stroke="#63b8ff" points="382.9,-280.86 392.37,-276.1 382,-273.92 382.9,-280.86"/>
</a>
</g>
</g>
<!-- Node6 -->
<g id="Node000006" class="node">
<title>Node6</title>
<g id="a_Node000006"><a xlink:href="../../d8/d02/struct_g_e_u_1_1_v_a_o_1_1_point.html#a869b1c796dc79a8c17f4f2ffd6e6ea02" target="_top" xlink:title=" ">
<polygon fill="white" stroke="#666666" points="540.75,-233 385.25,-233 385.25,-213 540.75,-213 540.75,-233"/>
<text text-anchor="middle" x="463" y="-219.5" font-family="Helvetica,sans-Serif" font-size="10.00">GEU::VAO::Point::getRGBVec4</text>
</a>
</g>
</g>
<!-- Node2&#45;&gt;Node6 -->
<g id="edge5_Node000002_Node000006" class="edge">
<title>Node2&#45;&gt;Node6</title>
<g id="a_edge5_Node000002_Node000006"><a xlink:title=" ">
<path fill="none" stroke="#63b8ff" d="M328.94,-275.63C335.91,-273.04 342.82,-270.16 349.25,-267 366.73,-258.4 367.5,-250.03 385.25,-242 389.47,-240.09 393.91,-238.35 398.44,-236.78"/>
<polygon fill="#63b8ff" stroke="#63b8ff" points="399.2,-240.21 407.68,-233.85 397.09,-233.54 399.2,-240.21"/>
</a>
</g>
</g>
<!-- Node12 -->
<g id="Node000012" class="node">
<title>Node12</title>
<g id="a_Node000012"><a xlink:href="../../d4/d04/class_base64.html#ae6a7457922b536ccae57467db1f972af" target="_top" xlink:title=" ">
<polygon fill="white" stroke="#666666" points="507,-64 419,-64 419,-44 507,-44 507,-64"/>
<text text-anchor="middle" x="463" y="-50.5" font-family="Helvetica,sans-Serif" font-size="10.00">Base64::Decode</text>
</a>
</g>
</g>
<!-- Node11&#45;&gt;Node12 -->
<g id="edge11_Node000011_Node000012" class="edge">
<title>Node11&#45;&gt;Node12</title>
<g id="a_edge11_Node000011_Node000012"><a xlink:title=" ">
<path fill="none" stroke="#63b8ff" d="M339.18,-54C361.53,-54 386.03,-54 407.24,-54"/>
<polygon fill="#63b8ff" stroke="#63b8ff" points="407.13,-57.5 417.13,-54 407.13,-50.5 407.13,-57.5"/>
</a>
</g>
</g>
<!-- Node13 -->
<g id="Node000013" class="node">
<title>Node13</title>
<g id="a_Node000013"><a xlink:href="../../d4/d04/class_base64.html#abe8ace7d1576ce2fa5da45a6260379fd" target="_top" xlink:title=" ">
<polygon fill="white" stroke="#666666" points="685.38,-102 590.62,-102 590.62,-82 685.38,-82 685.38,-102"/>
<text text-anchor="middle" x="638" y="-88.5" font-family="Helvetica,sans-Serif" font-size="10.00">Base64::a4_to_a3</text>
</a>
</g>
</g>
<!-- Node12&#45;&gt;Node13 -->
<g id="edge12_Node000012_Node000013" class="edge">
<title>Node12&#45;&gt;Node13</title>
<g id="a_edge12_Node000012_Node000013"><a xlink:title=" ">
<path fill="none" stroke="#63b8ff" d="M507.21,-63.49C529.07,-68.29 555.9,-74.19 579.48,-79.36"/>
<polygon fill="#63b8ff" stroke="#63b8ff" points="578.41,-82.71 588.92,-81.44 579.91,-75.88 578.41,-82.71"/>
</a>
</g>
</g>
<!-- Node14 -->
<g id="Node000014" class="node">
<title>Node14</title>
<g id="a_Node000014"><a xlink:href="../../d4/d04/class_base64.html#a8de014069fccbd2492c3ce2ee1c02691" target="_top" xlink:title=" ">
<polygon fill="white" stroke="#666666" points="690.25,-64 585.75,-64 585.75,-44 690.25,-44 690.25,-64"/>
<text text-anchor="middle" x="638" y="-50.5" font-family="Helvetica,sans-Serif" font-size="10.00">Base64::b64_lookup</text>
</a>
</g>
</g>
<!-- Node12&#45;&gt;Node14 -->
<g id="edge13_Node000012_Node000014" class="edge">
<title>Node12&#45;&gt;Node14</title>
<g id="a_edge13_Node000012_Node000014"><a xlink:title=" ">
<path fill="none" stroke="#63b8ff" d="M507.21,-54C527.41,-54 551.85,-54 574.05,-54"/>
<polygon fill="#63b8ff" stroke="#63b8ff" points="573.91,-57.5 583.91,-54 573.91,-50.5 573.91,-57.5"/>
</a>
</g>
</g>
<!-- Node15 -->
<g id="Node000015" class="node">
<title>Node15</title>
<g id="a_Node000015"><a xlink:href="../../d4/d04/class_base64.html#a3fe4c327ec3e305b5744d6810dae6b4b" target="_top" xlink:title=" ">
<polygon fill="white" stroke="#666666" points="699.25,-26 576.75,-26 576.75,-6 699.25,-6 699.25,-26"/>
<text text-anchor="middle" x="638" y="-12.5" font-family="Helvetica,sans-Serif" font-size="10.00">Base64::DecodedLength</text>
</a>
</g>
</g>
<!-- Node12&#45;&gt;Node15 -->
<g id="edge14_Node000012_Node000015" class="edge">
<title>Node12&#45;&gt;Node15</title>
<g id="a_edge14_Node000012_Node000015"><a xlink:title=" ">
<path fill="none" stroke="#63b8ff" d="M507.21,-44.51C528.71,-39.79 555.02,-34.01 578.32,-28.89"/>
<polygon fill="#63b8ff" stroke="#63b8ff" points="578.98,-32.33 588,-26.76 577.48,-25.49 578.98,-32.33"/>
</a>
</g>
</g>
</g>
</svg>
