<?xml version="1.0" encoding="UTF-8" standalone="no"?>
<!DOCTYPE svg PUBLIC "-//W3C//DTD SVG 1.1//EN"
 "http://www.w3.org/Graphics/SVG/1.1/DTD/svg11.dtd">
<!-- Generated by graphviz version 10.0.1 (20240210.2158)
 -->
<!-- Title: GEU::MultiespectralGUIAdapter::renderGuiObject Pages: 1 -->
<svg width="897pt" height="574pt"
 viewBox="0.00 0.00 897.25 574.04" xmlns="http://www.w3.org/2000/svg" xmlns:xlink="http://www.w3.org/1999/xlink">
<g id="graph0" class="graph" transform="scale(1 1) rotate(0) translate(4 570.04)">
<title>GEU::MultiespectralGUIAdapter::renderGuiObject</title>
<!-- Node1 -->
<g id="Node000001" class="node">
<title>Node1</title>
<g id="a_Node000001"><a xlink:title="Custom module GUI window contents.">
<polygon fill="#999999" stroke="#666666" points="154,-443 0,-443 0,-411 154,-411 154,-443"/>
<text text-anchor="start" x="8" y="-429.5" font-family="Helvetica,sans-Serif" font-size="10.00">GEU::MultiespectralGUIAdapter</text>
<text text-anchor="middle" x="77" y="-417.5" font-family="Helvetica,sans-Serif" font-size="10.00">::renderGuiObject</text>
</a>
</g>
</g>
<!-- Node2 -->
<g id="Node000002" class="node">
<title>Node2</title>
<g id="a_Node000002"><a xlink:href="../../d9/d03/class_g_e_u_1_1_popup_system.html#ae812e21e62615fd347d33ee0ddb0cc82" target="_top" xlink:title=" ">
<polygon fill="white" stroke="#666666" points="344,-566 190,-566 190,-546 344,-546 344,-566"/>
<text text-anchor="middle" x="267" y="-552.5" font-family="Helvetica,sans-Serif" font-size="10.00">GEU::PopupSystem::addPopup</text>
</a>
</g>
</g>
<!-- Node1&#45;&gt;Node2 -->
<g id="edge1_Node000001_Node000002" class="edge">
<title>Node1&#45;&gt;Node2</title>
<g id="a_edge1_Node000001_Node000002"><a xlink:title=" ">
<path fill="none" stroke="#63b8ff" d="M91.13,-443.24C110.47,-466.17 148.82,-507.9 190,-532 196.5,-535.8 203.67,-539.07 210.93,-541.87"/>
<polygon fill="#63b8ff" stroke="#63b8ff" points="209.55,-545.09 220.14,-545.12 211.88,-538.49 209.55,-545.09"/>
</a>
</g>
</g>
<!-- Node3 -->
<g id="Node000003" class="node">
<title>Node3</title>
<g id="a_Node000003"><a xlink:href="../../d1/d01/class_g_e_u_1_1_singleton.html#a47c7e7c2110f4cc59c9ff1f5594c366e" target="_top" xlink:title=" ">
<polygon fill="white" stroke="#666666" points="730,-404 576,-404 576,-372 730,-372 730,-404"/>
<text text-anchor="start" x="584" y="-390.5" font-family="Helvetica,sans-Serif" font-size="10.00">GEU::Singleton&lt; PopupSystem</text>
<text text-anchor="middle" x="653" y="-378.5" font-family="Helvetica,sans-Serif" font-size="10.00"> &gt;::getInstance</text>
</a>
</g>
</g>
<!-- Node1&#45;&gt;Node3 -->
<g id="edge3_Node000001_Node000003" class="edge">
<title>Node1&#45;&gt;Node3</title>
<g id="a_edge3_Node000001_Node000003"><a xlink:title=" ">
<path fill="none" stroke="#63b8ff" d="M110.4,-443.41C187.66,-480.15 387.56,-561.14 539.25,-499 581.13,-481.84 615.81,-440.79 635.2,-413.71"/>
<polygon fill="#63b8ff" stroke="#63b8ff" points="637.95,-415.89 640.78,-405.68 632.2,-411.89 637.95,-415.89"/>
</a>
</g>
</g>
<!-- Node4 -->
<g id="Node000004" class="node">
<title>Node4</title>
<g id="a_Node000004"><a xlink:href="../../d3/d07/namespace_g_e_u_1_1_gui_utilities.html#a4a4cc2d3f5e9444384aa7e7eb062dbf0" target="_top" xlink:title=" ">
<polygon fill="white" stroke="#666666" points="507.75,-472 411.5,-472 411.5,-440 507.75,-440 507.75,-472"/>
<text text-anchor="start" x="419.5" y="-458.5" font-family="Helvetica,sans-Serif" font-size="10.00">GEU::GuiUtilities::</text>
<text text-anchor="middle" x="459.62" y="-446.5" font-family="Helvetica,sans-Serif" font-size="10.00">makeButton</text>
</a>
</g>
</g>
<!-- Node1&#45;&gt;Node4 -->
<g id="edge4_Node000001_Node000004" class="edge">
<title>Node1&#45;&gt;Node4</title>
<g id="a_edge4_Node000001_Node000004"><a xlink:title=" ">
<path fill="none" stroke="#63b8ff" d="M141.28,-443.49C157.09,-446.96 174.07,-450.12 190,-452 262,-460.48 345.61,-460.14 400.17,-458.56"/>
<polygon fill="#63b8ff" stroke="#63b8ff" points="399.97,-462.07 409.85,-458.25 399.75,-455.07 399.97,-462.07"/>
</a>
</g>
</g>
<!-- Node5 -->
<g id="Node000005" class="node">
<title>Node5</title>
<g id="a_Node000005"><a xlink:href="../../d3/d07/namespace_g_e_u_1_1_gui_utilities.html#a51f7b03162a92f79594e82e1aca62133" target="_top" xlink:title=" ">
<polygon fill="white" stroke="#666666" points="315.12,-443 218.88,-443 218.88,-411 315.12,-411 315.12,-443"/>
<text text-anchor="start" x="226.88" y="-429.5" font-family="Helvetica,sans-Serif" font-size="10.00">GEU::GuiUtilities::</text>
<text text-anchor="middle" x="267" y="-417.5" font-family="Helvetica,sans-Serif" font-size="10.00">makeLocButton</text>
</a>
</g>
</g>
<!-- Node1&#45;&gt;Node5 -->
<g id="edge6_Node000001_Node000005" class="edge">
<title>Node1&#45;&gt;Node5</title>
<g id="a_edge6_Node000001_Node000005"><a xlink:title=" ">
<path fill="none" stroke="#63b8ff" d="M154.47,-427C172.06,-427 190.5,-427 207.21,-427"/>
<polygon fill="#63b8ff" stroke="#63b8ff" points="206.96,-430.5 216.96,-427 206.95,-423.5 206.96,-430.5"/>
</a>
</g>
</g>
<!-- Node6 -->
<g id="Node000006" class="node">
<title>Node6</title>
<g id="a_Node000006"><a xlink:href="../../d3/d07/namespace_g_e_u_1_1_gui_utilities.html#a791a299165fdb530f39adcf8b5637638" target="_top" xlink:title=" ">
<polygon fill="white" stroke="#666666" points="315.12,-393 218.88,-393 218.88,-361 315.12,-361 315.12,-393"/>
<text text-anchor="start" x="226.88" y="-379.5" font-family="Helvetica,sans-Serif" font-size="10.00">GEU::GuiUtilities::</text>
<text text-anchor="middle" x="267" y="-367.5" font-family="Helvetica,sans-Serif" font-size="10.00">makeLocSepText</text>
</a>
</g>
</g>
<!-- Node1&#45;&gt;Node6 -->
<g id="edge9_Node000001_Node000006" class="edge">
<title>Node1&#45;&gt;Node6</title>
<g id="a_edge9_Node000001_Node000006"><a xlink:title=" ">
<path fill="none" stroke="#63b8ff" d="M139.82,-410.56C161.6,-404.77 186,-398.28 207.5,-392.56"/>
<polygon fill="#63b8ff" stroke="#63b8ff" points="208.22,-395.99 216.99,-390.04 206.42,-389.22 208.22,-395.99"/>
</a>
</g>
</g>
<!-- Node7 -->
<g id="Node000007" class="node">
<title>Node7</title>
<g id="a_Node000007"><a xlink:href="../../d3/d07/namespace_g_e_u_1_1_gui_utilities.html#ae63312c9c8d5d514d8411e73e83a14ce" target="_top" xlink:title=" ">
<polygon fill="white" stroke="#666666" points="327.88,-343 206.12,-343 206.12,-311 327.88,-311 327.88,-343"/>
<text text-anchor="start" x="214.12" y="-329.5" font-family="Helvetica,sans-Serif" font-size="10.00">GEU::GuiUtilities::</text>
<text text-anchor="middle" x="267" y="-317.5" font-family="Helvetica,sans-Serif" font-size="10.00">makeSelectableTextBox</text>
</a>
</g>
</g>
<!-- Node1&#45;&gt;Node7 -->
<g id="edge11_Node000001_Node000007" class="edge">
<title>Node1&#45;&gt;Node7</title>
<g id="a_edge11_Node000001_Node000007"><a xlink:title=" ">
<path fill="none" stroke="#63b8ff" d="M98.83,-410.51C120.57,-393.93 156.14,-368.52 190,-352 193.08,-350.5 196.28,-349.05 199.54,-347.66"/>
<polygon fill="#63b8ff" stroke="#63b8ff" points="200.7,-350.97 208.69,-344 198.1,-344.47 200.7,-350.97"/>
</a>
</g>
</g>
<!-- Node9 -->
<g id="Node000009" class="node">
<title>Node9</title>
<g id="a_Node000009"><a xlink:href="../../de/d02/class_g_e_u_1_1_multiespectral_g_u_i_adapter.html#afafb062e54a135be4bc20d2eaee39862" target="_top" xlink:title=" ">
<polygon fill="white" stroke="#666666" points="344,-186 190,-186 190,-154 344,-154 344,-186"/>
<text text-anchor="start" x="198" y="-172.5" font-family="Helvetica,sans-Serif" font-size="10.00">GEU::MultiespectralGUIAdapter</text>
<text text-anchor="middle" x="267" y="-160.5" font-family="Helvetica,sans-Serif" font-size="10.00">::mapping</text>
</a>
</g>
</g>
<!-- Node1&#45;&gt;Node9 -->
<g id="edge14_Node000001_Node000009" class="edge">
<title>Node1&#45;&gt;Node9</title>
<g id="a_edge14_Node000001_Node000009"><a xlink:title=" ">
<path fill="none" stroke="#63b8ff" d="M90.05,-410.53C122.01,-366.83 209.16,-247.7 247.49,-195.3"/>
<polygon fill="#63b8ff" stroke="#63b8ff" points="250.08,-197.69 253.16,-187.55 244.43,-193.56 250.08,-197.69"/>
</a>
</g>
</g>
<!-- Node2&#45;&gt;Node3 -->
<g id="edge2_Node000002_Node000003" class="edge">
<title>Node2&#45;&gt;Node3</title>
<g id="a_edge2_Node000002_Node000003"><a xlink:title=" ">
<path fill="none" stroke="#63b8ff" d="M344.27,-564.91C401.35,-568 479.53,-564.43 539.25,-532 588.1,-505.48 622.86,-447.9 639.96,-414.13"/>
<polygon fill="#63b8ff" stroke="#63b8ff" points="642.97,-415.96 644.22,-405.44 636.68,-412.88 642.97,-415.96"/>
</a>
</g>
</g>
<!-- Node4&#45;&gt;Node4 -->
<g id="edge5_Node000004_Node000004" class="edge">
<title>Node4&#45;&gt;Node4</title>
<g id="a_edge5_Node000004_Node000004"><a xlink:title=" ">
<path fill="none" stroke="#63b8ff" d="M425.24,-472.44C418.82,-481.58 430.28,-490 459.62,-490 475.67,-490 486.37,-487.48 491.73,-483.71"/>
<polygon fill="#63b8ff" stroke="#63b8ff" points="495.15,-484.42 493.71,-473.93 488.29,-483.03 495.15,-484.42"/>
</a>
</g>
</g>
<!-- Node5&#45;&gt;Node3 -->
<g id="edge7_Node000005_Node000003" class="edge">
<title>Node5&#45;&gt;Node3</title>
<g id="a_edge7_Node000005_Node000003"><a xlink:title=" ">
<path fill="none" stroke="#63b8ff" d="M315.47,-422.18C377.53,-415.88 487.42,-404.72 564.7,-396.87"/>
<polygon fill="#63b8ff" stroke="#63b8ff" points="564.76,-400.38 574.35,-395.89 564.05,-393.41 564.76,-400.38"/>
</a>
</g>
</g>
<!-- Node5&#45;&gt;Node4 -->
<g id="edge8_Node000005_Node000004" class="edge">
<title>Node5&#45;&gt;Node4</title>
<g id="a_edge8_Node000005_Node000004"><a xlink:title=" ">
<path fill="none" stroke="#63b8ff" d="M315.61,-434.24C341.18,-438.13 372.92,-442.96 400,-447.08"/>
<polygon fill="#63b8ff" stroke="#63b8ff" points="399.38,-450.53 409.79,-448.57 400.43,-443.61 399.38,-450.53"/>
</a>
</g>
</g>
<!-- Node6&#45;&gt;Node3 -->
<g id="edge10_Node000006_Node000003" class="edge">
<title>Node6&#45;&gt;Node3</title>
<g id="a_edge10_Node000006_Node000003"><a xlink:title=" ">
<path fill="none" stroke="#63b8ff" d="M315.47,-378.36C377.53,-380.14 487.42,-383.29 564.7,-385.5"/>
<polygon fill="#63b8ff" stroke="#63b8ff" points="564.25,-388.99 574.34,-385.78 564.45,-381.99 564.25,-388.99"/>
</a>
</g>
</g>
<!-- Node8 -->
<g id="Node000008" class="node">
<title>Node8</title>
<g id="a_Node000008"><a xlink:href="../../d3/d07/namespace_g_e_u_1_1_gui_utilities.html#a7b24395f0bd0bd368bde0935682746ce" target="_top" xlink:title=" ">
<polygon fill="white" stroke="#666666" points="507.75,-346 411.5,-346 411.5,-314 507.75,-314 507.75,-346"/>
<text text-anchor="start" x="419.5" y="-332.5" font-family="Helvetica,sans-Serif" font-size="10.00">GEU::GuiUtilities::</text>
<text text-anchor="middle" x="459.62" y="-320.5" font-family="Helvetica,sans-Serif" font-size="10.00">makeLocText</text>
</a>
</g>
</g>
<!-- Node7&#45;&gt;Node8 -->
<g id="edge12_Node000007_Node000008" class="edge">
<title>Node7&#45;&gt;Node8</title>
<g id="a_edge12_Node000007_Node000008"><a xlink:title=" ">
<path fill="none" stroke="#63b8ff" d="M328.31,-327.95C351.18,-328.31 377.16,-328.72 399.87,-329.08"/>
<polygon fill="#63b8ff" stroke="#63b8ff" points="399.51,-332.57 409.56,-329.23 399.62,-325.57 399.51,-332.57"/>
</a>
</g>
</g>
<!-- Node8&#45;&gt;Node3 -->
<g id="edge13_Node000008_Node000003" class="edge">
<title>Node8&#45;&gt;Node3</title>
<g id="a_edge13_Node000008_Node000003"><a xlink:title=" ">
<path fill="none" stroke="#63b8ff" d="M507.93,-344.34C531.76,-351.56 561.01,-360.42 586.92,-368.28"/>
<polygon fill="#63b8ff" stroke="#63b8ff" points="585.76,-371.58 596.35,-371.13 587.79,-364.88 585.76,-371.58"/>
</a>
</g>
</g>
<!-- Node9&#45;&gt;Node3 -->
<g id="edge20_Node000009_Node000003" class="edge">
<title>Node9&#45;&gt;Node3</title>
<g id="a_edge20_Node000009_Node000003"><a xlink:title=" ">
<path fill="none" stroke="#63b8ff" d="M282.18,-186.44C301.89,-208.24 339.72,-246.34 380,-267 444.74,-300.21 475.74,-269.49 539.25,-305 559,-316.04 557.48,-326.99 575.25,-341 586.68,-350 599.94,-358.68 612.2,-366.07"/>
<polygon fill="#63b8ff" stroke="#63b8ff" points="610.06,-368.87 620.46,-370.93 613.62,-362.84 610.06,-368.87"/>
</a>
</g>
</g>
<!-- Node10 -->
<g id="Node000010" class="node">
<title>Node10</title>
<g id="a_Node000010"><a xlink:href="../../d0/d01/class_g_e_u_1_1pcl_conversor.html#adc2f8b28918ebe56bfdc1bc9cad8b16f" target="_top" xlink:title=" ">
<polygon fill="white" stroke="#666666" points="521.25,-258 398,-258 398,-226 521.25,-226 521.25,-258"/>
<text text-anchor="start" x="406" y="-244.5" font-family="Helvetica,sans-Serif" font-size="10.00">GEU::pclConversor::</text>
<text text-anchor="middle" x="459.62" y="-232.5" font-family="Helvetica,sans-Serif" font-size="10.00">convertToPCLPointCloud</text>
</a>
</g>
</g>
<!-- Node9&#45;&gt;Node10 -->
<g id="edge15_Node000009_Node000010" class="edge">
<title>Node9&#45;&gt;Node10</title>
<g id="a_edge15_Node000009_Node000010"><a xlink:title=" ">
<path fill="none" stroke="#63b8ff" d="M304.75,-186.4C326.45,-195.84 354.57,-207.64 380,-217 384.59,-218.69 389.34,-220.37 394.15,-222.02"/>
<polygon fill="#63b8ff" stroke="#63b8ff" points="392.66,-225.21 403.26,-225.07 394.89,-218.57 392.66,-225.21"/>
</a>
</g>
</g>
<!-- Node15 -->
<g id="Node000015" class="node">
<title>Node15</title>
<g id="a_Node000015"><a xlink:href="../../d4/d07/class_g_e_u_1_1_point_cloud.html#a3e01cb77a356f6d7d0f1974cb18dc9d6" target="_top" xlink:title=" ">
<polygon fill="white" stroke="#666666" points="531.38,-208 387.88,-208 387.88,-176 531.38,-176 531.38,-208"/>
<text text-anchor="start" x="395.88" y="-194.5" font-family="Helvetica,sans-Serif" font-size="10.00">GEU::PointCloud::getNumber</text>
<text text-anchor="middle" x="459.62" y="-182.5" font-family="Helvetica,sans-Serif" font-size="10.00">OfPoints</text>
</a>
</g>
</g>
<!-- Node9&#45;&gt;Node15 -->
<g id="edge21_Node000009_Node000015" class="edge">
<title>Node9&#45;&gt;Node15</title>
<g id="a_edge21_Node000009_Node000015"><a xlink:title=" ">
<path fill="none" stroke="#63b8ff" d="M344.44,-178.82C354.86,-180.02 365.59,-181.26 376.11,-182.48"/>
<polygon fill="#63b8ff" stroke="#63b8ff" points="375.59,-185.94 385.92,-183.61 376.39,-178.99 375.59,-185.94"/>
</a>
</g>
</g>
<!-- Node16 -->
<g id="Node000016" class="node">
<title>Node16</title>
<g id="a_Node000016"><a xlink:href="../../d2/d04/class_locale_strings.html#ac66087ac25e72051ea7b5bf3d00dd71f" target="_top" xlink:title=" ">
<polygon fill="white" stroke="#666666" points="519.75,-158 399.5,-158 399.5,-138 519.75,-138 519.75,-158"/>
<text text-anchor="middle" x="459.62" y="-144.5" font-family="Helvetica,sans-Serif" font-size="10.00">LocaleStrings::getString</text>
</a>
</g>
</g>
<!-- Node9&#45;&gt;Node16 -->
<g id="edge22_Node000009_Node000016" class="edge">
<title>Node9&#45;&gt;Node16</title>
<g id="a_edge22_Node000009_Node000016"><a xlink:title=" ">
<path fill="none" stroke="#63b8ff" d="M344.44,-161.18C358.82,-159.52 373.8,-157.79 388,-156.15"/>
<polygon fill="#63b8ff" stroke="#63b8ff" points="388.16,-159.66 397.69,-155.03 387.35,-152.7 388.16,-159.66"/>
</a>
</g>
</g>
<!-- Node17 -->
<g id="Node000017" class="node">
<title>Node17</title>
<g id="a_Node000017"><a xlink:href="../../d7/d07/class_metadata_reader.html#a5da5327f2a3dae64e1073807d8e49099" target="_top" xlink:title=" ">
<polygon fill="white" stroke="#666666" points="539.25,-120 380,-120 380,-88 539.25,-88 539.25,-120"/>
<text text-anchor="start" x="388" y="-106.5" font-family="Helvetica,sans-Serif" font-size="10.00">MetadataReader::readMicasense</text>
<text text-anchor="middle" x="459.62" y="-94.5" font-family="Helvetica,sans-Serif" font-size="10.00">Metadata</text>
</a>
</g>
</g>
<!-- Node9&#45;&gt;Node17 -->
<g id="edge23_Node000009_Node000017" class="edge">
<title>Node9&#45;&gt;Node17</title>
<g id="a_edge23_Node000009_Node000017"><a xlink:title=" ">
<path fill="none" stroke="#63b8ff" d="M311.46,-153.6C332.15,-145.92 357.27,-136.77 380,-129 384.78,-127.37 389.73,-125.71 394.73,-124.06"/>
<polygon fill="#63b8ff" stroke="#63b8ff" points="395.8,-127.4 404.22,-120.97 393.62,-120.74 395.8,-127.4"/>
</a>
</g>
</g>
<!-- Node18 -->
<g id="Node000018" class="node">
<title>Node18</title>
<g id="a_Node000018"><a xlink:href="../../d7/d07/class_metadata_reader.html#a5baae423b957e74cef1df556523e2cda" target="_top" xlink:title=" ">
<polygon fill="white" stroke="#666666" points="528.75,-70 390.5,-70 390.5,-38 528.75,-38 528.75,-70"/>
<text text-anchor="start" x="398.5" y="-56.5" font-family="Helvetica,sans-Serif" font-size="10.00">MetadataReader::readParrot</text>
<text text-anchor="middle" x="459.62" y="-44.5" font-family="Helvetica,sans-Serif" font-size="10.00">Metadata</text>
</a>
</g>
</g>
<!-- Node9&#45;&gt;Node18 -->
<g id="edge24_Node000009_Node000018" class="edge">
<title>Node9&#45;&gt;Node18</title>
<g id="a_edge24_Node000009_Node000018"><a xlink:title=" ">
<path fill="none" stroke="#63b8ff" d="M284.01,-153.65C304.56,-133.51 342.08,-99.47 380,-79 382.68,-77.55 385.47,-76.17 388.31,-74.86"/>
<polygon fill="#63b8ff" stroke="#63b8ff" points="389.6,-78.11 397.43,-70.98 386.86,-71.67 389.6,-78.11"/>
</a>
</g>
</g>
<!-- Node23 -->
<g id="Node000023" class="node">
<title>Node23</title>
<g id="a_Node000023"><a xlink:href="../../d4/d07/class_g_e_u_1_1_point_cloud.html#aead0a626c252103daa2e095614f4c460" target="_top" xlink:title="Sustituye el vector de datos especificado por el nuevo.">
<polygon fill="white" stroke="#666666" points="524.62,-20 394.62,-20 394.62,0 524.62,0 524.62,-20"/>
<text text-anchor="middle" x="459.62" y="-6.5" font-family="Helvetica,sans-Serif" font-size="10.00">GEU::PointCloud::setData</text>
</a>
</g>
</g>
<!-- Node9&#45;&gt;Node23 -->
<g id="edge29_Node000009_Node000023" class="edge">
<title>Node9&#45;&gt;Node23</title>
<g id="a_edge29_Node000009_Node000023"><a xlink:title=" ">
<path fill="none" stroke="#63b8ff" d="M276.26,-153.56C292.1,-123.81 329.68,-61.14 380,-29 382.3,-27.53 384.7,-26.18 387.17,-24.93"/>
<polygon fill="#63b8ff" stroke="#63b8ff" points="388.53,-28.16 396.31,-20.96 385.74,-21.74 388.53,-28.16"/>
</a>
</g>
</g>
<!-- Node11 -->
<g id="Node000011" class="node">
<title>Node11</title>
<g id="a_Node000011"><a xlink:href="../../db/d04/class_g_e_u_1_1_model3_d.html#aea23eb9ab8de56f02dacaa5155fcac15" target="_top" xlink:title=" ">
<polygon fill="white" stroke="#666666" points="730,-332 576,-332 576,-312 730,-312 730,-332"/>
<text text-anchor="middle" x="653" y="-318.5" font-family="Helvetica,sans-Serif" font-size="10.00">GEU::Model3D::getModelMatrix</text>
</a>
</g>
</g>
<!-- Node10&#45;&gt;Node11 -->
<g id="edge16_Node000010_Node000011" class="edge">
<title>Node10&#45;&gt;Node11</title>
<g id="a_edge16_Node000010_Node000011"><a xlink:title=" ">
<path fill="none" stroke="#63b8ff" d="M511.33,-258.37C520.89,-262.28 530.59,-266.84 539.25,-272 557.39,-282.81 556.49,-293.31 575.25,-303 578.54,-304.7 581.99,-306.25 585.54,-307.67"/>
<polygon fill="#63b8ff" stroke="#63b8ff" points="584.34,-310.96 594.93,-311.03 586.69,-304.37 584.34,-310.96"/>
</a>
</g>
</g>
<!-- Node12 -->
<g id="Node000012" class="node">
<title>Node12</title>
<g id="a_Node000012"><a xlink:href="../../d4/d07/class_g_e_u_1_1_point_cloud.html#a9a79b080d808d3e589ce16bee701fdcf" target="_top" xlink:title=" ">
<polygon fill="white" stroke="#666666" points="721.75,-294 584.25,-294 584.25,-262 721.75,-262 721.75,-294"/>
<text text-anchor="start" x="592.25" y="-280.5" font-family="Helvetica,sans-Serif" font-size="10.00">GEU::PointCloud::getPoints</text>
<text text-anchor="middle" x="653" y="-268.5" font-family="Helvetica,sans-Serif" font-size="10.00">Color</text>
</a>
</g>
</g>
<!-- Node10&#45;&gt;Node12 -->
<g id="edge17_Node000010_Node000012" class="edge">
<title>Node10&#45;&gt;Node12</title>
<g id="a_edge17_Node000010_Node000012"><a xlink:title=" ">
<path fill="none" stroke="#63b8ff" d="M521.7,-253.49C537.95,-256.54 555.72,-259.89 572.78,-263.1"/>
<polygon fill="#63b8ff" stroke="#63b8ff" points="571.9,-266.49 582.38,-264.9 573.2,-259.61 571.9,-266.49"/>
</a>
</g>
</g>
<!-- Node13 -->
<g id="Node000013" class="node">
<title>Node13</title>
<g id="a_Node000013"><a xlink:href="../../d4/d07/class_g_e_u_1_1_point_cloud.html#adfe68d38eadddf88006ccc5789d5a497" target="_top" xlink:title=" ">
<polygon fill="white" stroke="#666666" points="721.75,-244 584.25,-244 584.25,-212 721.75,-212 721.75,-244"/>
<text text-anchor="start" x="592.25" y="-230.5" font-family="Helvetica,sans-Serif" font-size="10.00">GEU::PointCloud::getPoints</text>
<text text-anchor="middle" x="653" y="-218.5" font-family="Helvetica,sans-Serif" font-size="10.00">Position</text>
</a>
</g>
</g>
<!-- Node10&#45;&gt;Node13 -->
<g id="edge18_Node000010_Node000013" class="edge">
<title>Node10&#45;&gt;Node13</title>
<g id="a_edge18_Node000010_Node000013"><a xlink:title=" ">
<path fill="none" stroke="#63b8ff" d="M521.7,-237.53C537.95,-236.34 555.72,-235.04 572.78,-233.8"/>
<polygon fill="#63b8ff" stroke="#63b8ff" points="572.64,-237.32 582.36,-233.09 572.13,-230.33 572.64,-237.32"/>
</a>
</g>
</g>
<!-- Node14 -->
<g id="Node000014" class="node">
<title>Node14</title>
<g id="a_Node000014"><a xlink:href="../../d8/d02/struct_g_e_u_1_1_v_a_o_1_1_point.html#a869b1c796dc79a8c17f4f2ffd6e6ea02" target="_top" xlink:title=" ">
<polygon fill="white" stroke="#666666" points="730.75,-194 575.25,-194 575.25,-174 730.75,-174 730.75,-194"/>
<text text-anchor="middle" x="653" y="-180.5" font-family="Helvetica,sans-Serif" font-size="10.00">GEU::VAO::Point::getRGBVec4</text>
</a>
</g>
</g>
<!-- Node10&#45;&gt;Node14 -->
<g id="edge19_Node000010_Node000014" class="edge">
<title>Node10&#45;&gt;Node14</title>
<g id="a_edge19_Node000010_Node000014"><a xlink:title=" ">
<path fill="none" stroke="#63b8ff" d="M514.07,-225.51C522.52,-222.75 531.15,-219.86 539.25,-217 555.44,-211.29 558.88,-208.18 575.25,-203 581.54,-201.01 588.17,-199.09 594.79,-197.3"/>
<polygon fill="#63b8ff" stroke="#63b8ff" points="595.62,-200.7 604.41,-194.78 593.85,-193.93 595.62,-200.7"/>
</a>
</g>
</g>
<!-- Node19 -->
<g id="Node000019" class="node">
<title>Node19</title>
<g id="a_Node000019"><a xlink:href="../../d4/d04/class_base64.html#ae6a7457922b536ccae57467db1f972af" target="_top" xlink:title=" ">
<polygon fill="white" stroke="#666666" points="697,-64 609,-64 609,-44 697,-44 697,-64"/>
<text text-anchor="middle" x="653" y="-50.5" font-family="Helvetica,sans-Serif" font-size="10.00">Base64::Decode</text>
</a>
</g>
</g>
<!-- Node18&#45;&gt;Node19 -->
<g id="edge25_Node000018_Node000019" class="edge">
<title>Node18&#45;&gt;Node19</title>
<g id="a_edge25_Node000018_Node000019"><a xlink:title=" ">
<path fill="none" stroke="#63b8ff" d="M529.18,-54C551.53,-54 576.03,-54 597.24,-54"/>
<polygon fill="#63b8ff" stroke="#63b8ff" points="597.13,-57.5 607.13,-54 597.13,-50.5 597.13,-57.5"/>
</a>
</g>
</g>
<!-- Node20 -->
<g id="Node000020" class="node">
<title>Node20</title>
<g id="a_Node000020"><a xlink:href="../../d4/d04/class_base64.html#abe8ace7d1576ce2fa5da45a6260379fd" target="_top" xlink:title=" ">
<polygon fill="white" stroke="#666666" points="875.38,-102 780.62,-102 780.62,-82 875.38,-82 875.38,-102"/>
<text text-anchor="middle" x="828" y="-88.5" font-family="Helvetica,sans-Serif" font-size="10.00">Base64::a4_to_a3</text>
</a>
</g>
</g>
<!-- Node19&#45;&gt;Node20 -->
<g id="edge26_Node000019_Node000020" class="edge">
<title>Node19&#45;&gt;Node20</title>
<g id="a_edge26_Node000019_Node000020"><a xlink:title=" ">
<path fill="none" stroke="#63b8ff" d="M697.21,-63.49C719.07,-68.29 745.9,-74.19 769.48,-79.36"/>
<polygon fill="#63b8ff" stroke="#63b8ff" points="768.41,-82.71 778.92,-81.44 769.91,-75.88 768.41,-82.71"/>
</a>
</g>
</g>
<!-- Node21 -->
<g id="Node000021" class="node">
<title>Node21</title>
<g id="a_Node000021"><a xlink:href="../../d4/d04/class_base64.html#a8de014069fccbd2492c3ce2ee1c02691" target="_top" xlink:title=" ">
<polygon fill="white" stroke="#666666" points="880.25,-64 775.75,-64 775.75,-44 880.25,-44 880.25,-64"/>
<text text-anchor="middle" x="828" y="-50.5" font-family="Helvetica,sans-Serif" font-size="10.00">Base64::b64_lookup</text>
</a>
</g>
</g>
<!-- Node19&#45;&gt;Node21 -->
<g id="edge27_Node000019_Node000021" class="edge">
<title>Node19&#45;&gt;Node21</title>
<g id="a_edge27_Node000019_Node000021"><a xlink:title=" ">
<path fill="none" stroke="#63b8ff" d="M697.21,-54C717.41,-54 741.85,-54 764.05,-54"/>
<polygon fill="#63b8ff" stroke="#63b8ff" points="763.91,-57.5 773.91,-54 763.91,-50.5 763.91,-57.5"/>
</a>
</g>
</g>
<!-- Node22 -->
<g id="Node000022" class="node">
<title>Node22</title>
<g id="a_Node000022"><a xlink:href="../../d4/d04/class_base64.html#a3fe4c327ec3e305b5744d6810dae6b4b" target="_top" xlink:title=" ">
<polygon fill="white" stroke="#666666" points="889.25,-26 766.75,-26 766.75,-6 889.25,-6 889.25,-26"/>
<text text-anchor="middle" x="828" y="-12.5" font-family="Helvetica,sans-Serif" font-size="10.00">Base64::DecodedLength</text>
</a>
</g>
</g>
<!-- Node19&#45;&gt;Node22 -->
<g id="edge28_Node000019_Node000022" class="edge">
<title>Node19&#45;&gt;Node22</title>
<g id="a_edge28_Node000019_Node000022"><a xlink:title=" ">
<path fill="none" stroke="#63b8ff" d="M697.21,-44.51C718.71,-39.79 745.02,-34.01 768.32,-28.89"/>
<polygon fill="#63b8ff" stroke="#63b8ff" points="768.98,-32.33 778,-26.76 767.48,-25.49 768.98,-32.33"/>
</a>
</g>
</g>
</g>
</svg>
