<?xml version="1.0" encoding="UTF-8" standalone="no"?>
<!DOCTYPE svg PUBLIC "-//W3C//DTD SVG 1.1//EN"
 "http://www.w3.org/Graphics/SVG/1.1/DTD/svg11.dtd">
<!-- Generated by graphviz version 10.0.1 (20240210.2158)
 -->
<!-- Title: GEU::GuiUtilities::makeImageZoomable Pages: 1 -->
<svg width="275pt" height="104pt"
 viewBox="0.00 0.00 274.75 104.00" xmlns="http://www.w3.org/2000/svg" xmlns:xlink="http://www.w3.org/1999/xlink">
<g id="graph0" class="graph" transform="scale(1 1) rotate(0) translate(4 100)">
<title>GEU::GuiUtilities::makeImageZoomable</title>
<!-- Node1 -->
<g id="Node000001" class="node">
<title>Node1</title>
<g id="a_Node000001"><a xlink:title=" ">
<polygon fill="#999999" stroke="#666666" points="108.25,-64 0,-64 0,-32 108.25,-32 108.25,-64"/>
<text text-anchor="start" x="8" y="-50.5" font-family="Helvetica,sans-Serif" font-size="10.00">GEU::GuiUtilities::</text>
<text text-anchor="middle" x="54.12" y="-38.5" font-family="Helvetica,sans-Serif" font-size="10.00">makeImageZoomable</text>
</a>
</g>
</g>
<!-- Node2 -->
<g id="Node000002" class="node">
<title>Node2</title>
<g id="a_Node000002"><a xlink:href="../../dc/d36/class_g_e_u_1_1_texture.html#afdffe756c66453f952d05806654b085d" target="_top" xlink:title=" ">
<polygon fill="white" stroke="#666666" points="266.75,-96 144.25,-96 144.25,-76 266.75,-76 266.75,-96"/>
<text text-anchor="middle" x="205.5" y="-82.5" font-family="Helvetica,sans-Serif" font-size="10.00">GEU::Texture::getHeight</text>
</a>
</g>
</g>
<!-- Node1&#45;&gt;Node2 -->
<g id="edge1_Node000001_Node000002" class="edge">
<title>Node1&#45;&gt;Node2</title>
<g id="a_edge1_Node000001_Node000002"><a xlink:title=" ">
<path fill="none" stroke="#63b8ff" d="M108.63,-61.61C122.9,-65.24 138.29,-69.16 152.48,-72.77"/>
<polygon fill="#63b8ff" stroke="#63b8ff" points="151.53,-76.14 162.09,-75.21 153.26,-69.35 151.53,-76.14"/>
</a>
</g>
</g>
<!-- Node3 -->
<g id="Node000003" class="node">
<title>Node3</title>
<g id="a_Node000003"><a xlink:href="../../dc/d36/class_g_e_u_1_1_texture.html#a21d896df2d97969aa7b9eec70baa747f" target="_top" xlink:title=" ">
<polygon fill="white" stroke="#666666" points="256.62,-58 154.38,-58 154.38,-38 256.62,-38 256.62,-58"/>
<text text-anchor="middle" x="205.5" y="-44.5" font-family="Helvetica,sans-Serif" font-size="10.00">GEU::Texture::getId</text>
</a>
</g>
</g>
<!-- Node1&#45;&gt;Node3 -->
<g id="edge2_Node000001_Node000003" class="edge">
<title>Node1&#45;&gt;Node3</title>
<g id="a_edge2_Node000001_Node000003"><a xlink:title=" ">
<path fill="none" stroke="#63b8ff" d="M108.63,-48C119.81,-48 131.67,-48 143.11,-48"/>
<polygon fill="#63b8ff" stroke="#63b8ff" points="142.85,-51.5 152.85,-48 142.85,-44.5 142.85,-51.5"/>
</a>
</g>
</g>
<!-- Node4 -->
<g id="Node000004" class="node">
<title>Node4</title>
<g id="a_Node000004"><a xlink:href="../../dc/d36/class_g_e_u_1_1_texture.html#a166b0d1c38adf38d6479654fbc0ddaaf" target="_top" xlink:title=" ">
<polygon fill="white" stroke="#666666" points="265.62,-20 145.38,-20 145.38,0 265.62,0 265.62,-20"/>
<text text-anchor="middle" x="205.5" y="-6.5" font-family="Helvetica,sans-Serif" font-size="10.00">GEU::Texture::getWidth</text>
</a>
</g>
</g>
<!-- Node1&#45;&gt;Node4 -->
<g id="edge3_Node000001_Node000004" class="edge">
<title>Node1&#45;&gt;Node4</title>
<g id="a_edge3_Node000001_Node000004"><a xlink:title=" ">
<path fill="none" stroke="#63b8ff" d="M108.63,-34.39C122.9,-30.76 138.29,-26.84 152.48,-23.23"/>
<polygon fill="#63b8ff" stroke="#63b8ff" points="153.26,-26.65 162.09,-20.79 151.53,-19.86 153.26,-26.65"/>
</a>
</g>
</g>
</g>
</svg>
