<?xml version="1.0" encoding="UTF-8" standalone="no"?>
<!DOCTYPE svg PUBLIC "-//W3C//DTD SVG 1.1//EN"
 "http://www.w3.org/Graphics/SVG/1.1/DTD/svg11.dtd">
<!-- Generated by graphviz version 10.0.1 (20240210.2158)
 -->
<!-- Title: GEU::GuiUtilities::makeLocText Pages: 1 -->
<svg width="469pt" height="528pt"
 viewBox="0.00 0.00 468.50 528.00" xmlns="http://www.w3.org/2000/svg" xmlns:xlink="http://www.w3.org/1999/xlink">
<g id="graph0" class="graph" transform="scale(1 1) rotate(0) translate(4 524)">
<title>GEU::GuiUtilities::makeLocText</title>
<!-- Node1 -->
<g id="Node000001" class="node">
<title>Node1</title>
<g id="a_Node000001"><a xlink:title=" ">
<polygon fill="#999999" stroke="#666666" points="460.5,-270 364.25,-270 364.25,-238 460.5,-238 460.5,-270"/>
<text text-anchor="start" x="372.25" y="-256.5" font-family="Helvetica,sans-Serif" font-size="10.00">GEU::GuiUtilities::</text>
<text text-anchor="middle" x="412.38" y="-244.5" font-family="Helvetica,sans-Serif" font-size="10.00">makeLocText</text>
</a>
</g>
</g>
<!-- Node2 -->
<g id="Node000002" class="node">
<title>Node2</title>
<g id="a_Node000002"><a xlink:href="../../d7/dbe/class_g_e_u_1_1_database_query_popup.html#adb90287e5ae55991c17a08e912aff67c" target="_top" xlink:title=" ">
<polygon fill="white" stroke="#666666" points="328.25,-520 190,-520 190,-488 328.25,-488 328.25,-520"/>
<text text-anchor="start" x="198" y="-506.5" font-family="Helvetica,sans-Serif" font-size="10.00">GEU::DatabaseQueryPopup</text>
<text text-anchor="middle" x="259.12" y="-494.5" font-family="Helvetica,sans-Serif" font-size="10.00">::makeFormCamara</text>
</a>
</g>
</g>
<!-- Node1&#45;&gt;Node2 -->
<g id="edge1_Node000001_Node000002" class="edge">
<title>Node1&#45;&gt;Node2</title>
<g id="a_edge1_Node000001_Node000002"><a xlink:title=" ">
<path fill="none" stroke="#63b8ff" d="M408.6,-281.69C402.47,-328.56 383.59,-423.78 328.25,-479 324.95,-482.29 321.18,-485.16 317.15,-487.64"/>
<polygon fill="#63b8ff" stroke="#63b8ff" points="412.06,-282.2 409.78,-271.85 405.11,-281.37 412.06,-282.2"/>
</a>
</g>
</g>
<!-- Node3 -->
<g id="Node000003" class="node">
<title>Node3</title>
<g id="a_Node000003"><a xlink:href="../../d7/dbe/class_g_e_u_1_1_database_query_popup.html#a83023007463bdd6e6a4b40c55146b825" target="_top" xlink:title=" ">
<polygon fill="white" stroke="#666666" points="328.25,-470 190,-470 190,-438 328.25,-438 328.25,-470"/>
<text text-anchor="start" x="198" y="-456.5" font-family="Helvetica,sans-Serif" font-size="10.00">GEU::DatabaseQueryPopup</text>
<text text-anchor="middle" x="259.12" y="-444.5" font-family="Helvetica,sans-Serif" font-size="10.00">::makeFormDatoCrudo</text>
</a>
</g>
</g>
<!-- Node1&#45;&gt;Node3 -->
<g id="edge2_Node000001_Node000003" class="edge">
<title>Node1&#45;&gt;Node3</title>
<g id="a_edge2_Node000001_Node000003"><a xlink:title=" ">
<path fill="none" stroke="#63b8ff" d="M405.33,-281.26C395.53,-319.4 372.61,-388.53 328.25,-429 324.71,-432.23 320.73,-435.05 316.5,-437.51"/>
<polygon fill="#63b8ff" stroke="#63b8ff" points="408.63,-282.5 407.61,-271.96 401.83,-280.84 408.63,-282.5"/>
</a>
</g>
</g>
<!-- Node4 -->
<g id="Node000004" class="node">
<title>Node4</title>
<g id="a_Node000004"><a xlink:href="../../d7/dbe/class_g_e_u_1_1_database_query_popup.html#aee96f5bdc802183d992461ccf7af7606" target="_top" xlink:title=" ">
<polygon fill="white" stroke="#666666" points="328.25,-420 190,-420 190,-388 328.25,-388 328.25,-420"/>
<text text-anchor="start" x="198" y="-406.5" font-family="Helvetica,sans-Serif" font-size="10.00">GEU::DatabaseQueryPopup</text>
<text text-anchor="middle" x="259.12" y="-394.5" font-family="Helvetica,sans-Serif" font-size="10.00">::makeFormObjeto</text>
</a>
</g>
</g>
<!-- Node1&#45;&gt;Node4 -->
<g id="edge3_Node000001_Node000004" class="edge">
<title>Node1&#45;&gt;Node4</title>
<g id="a_edge3_Node000001_Node000004"><a xlink:title=" ">
<path fill="none" stroke="#63b8ff" d="M399.94,-280.47C386.55,-308.57 361.85,-352.5 328.25,-379 324.1,-382.28 319.47,-385.15 314.64,-387.67"/>
<polygon fill="#63b8ff" stroke="#63b8ff" points="403.03,-282.12 404.03,-271.57 396.67,-279.19 403.03,-282.12"/>
</a>
</g>
</g>
<!-- Node5 -->
<g id="Node000005" class="node">
<title>Node5</title>
<g id="a_Node000005"><a xlink:href="../../d7/dbe/class_g_e_u_1_1_database_query_popup.html#a6799cf756f5e2cb191268e786a8df4ba" target="_top" xlink:title=" ">
<polygon fill="white" stroke="#666666" points="328.25,-370 190,-370 190,-338 328.25,-338 328.25,-370"/>
<text text-anchor="start" x="198" y="-356.5" font-family="Helvetica,sans-Serif" font-size="10.00">GEU::DatabaseQueryPopup</text>
<text text-anchor="middle" x="259.12" y="-344.5" font-family="Helvetica,sans-Serif" font-size="10.00">::makeFormVuelos</text>
</a>
</g>
</g>
<!-- Node1&#45;&gt;Node5 -->
<g id="edge4_Node000001_Node000005" class="edge">
<title>Node1&#45;&gt;Node5</title>
<g id="a_edge4_Node000001_Node000005"><a xlink:title=" ">
<path fill="none" stroke="#63b8ff" d="M389.3,-278.3C373.56,-294.45 351.21,-315.15 328.25,-329 322.96,-332.19 317.21,-335.07 311.35,-337.65"/>
<polygon fill="#63b8ff" stroke="#63b8ff" points="391.48,-281.08 395.84,-271.43 386.41,-276.25 391.48,-281.08"/>
</a>
</g>
</g>
<!-- Node6 -->
<g id="Node000006" class="node">
<title>Node6</title>
<g id="a_Node000006"><a xlink:href="../../d7/dbe/class_g_e_u_1_1_database_query_popup.html#ad5e45356898c5dfc51d7ef890f7a5b41" target="_top" xlink:title=" ">
<polygon fill="white" stroke="#666666" points="328.25,-320 190,-320 190,-288 328.25,-288 328.25,-320"/>
<text text-anchor="start" x="198" y="-306.5" font-family="Helvetica,sans-Serif" font-size="10.00">GEU::DatabaseQueryPopup</text>
<text text-anchor="middle" x="259.12" y="-294.5" font-family="Helvetica,sans-Serif" font-size="10.00">::makeFormZona</text>
</a>
</g>
</g>
<!-- Node1&#45;&gt;Node6 -->
<g id="edge5_Node000001_Node000006" class="edge">
<title>Node1&#45;&gt;Node6</title>
<g id="a_edge5_Node000001_Node000006"><a xlink:title=" ">
<path fill="none" stroke="#63b8ff" d="M353.24,-273.22C338.98,-277.93 323.84,-282.94 310.01,-287.51"/>
<polygon fill="#63b8ff" stroke="#63b8ff" points="354.1,-276.62 362.5,-270.16 351.9,-269.97 354.1,-276.62"/>
</a>
</g>
</g>
<!-- Node7 -->
<g id="Node000007" class="node">
<title>Node7</title>
<g id="a_Node000007"><a xlink:href="../../d3/dd7/namespace_g_e_u_1_1_gui_utilities.html#ae63312c9c8d5d514d8411e73e83a14ce" target="_top" xlink:title=" ">
<polygon fill="white" stroke="#666666" points="320,-270 198.25,-270 198.25,-238 320,-238 320,-270"/>
<text text-anchor="start" x="206.25" y="-256.5" font-family="Helvetica,sans-Serif" font-size="10.00">GEU::GuiUtilities::</text>
<text text-anchor="middle" x="259.12" y="-244.5" font-family="Helvetica,sans-Serif" font-size="10.00">makeSelectableTextBox</text>
</a>
</g>
</g>
<!-- Node1&#45;&gt;Node7 -->
<g id="edge6_Node000001_Node000007" class="edge">
<title>Node1&#45;&gt;Node7</title>
<g id="a_edge6_Node000001_Node000007"><a xlink:title=" ">
<path fill="none" stroke="#63b8ff" d="M352.69,-254C342.12,-254 331.09,-254 320.47,-254"/>
<polygon fill="#63b8ff" stroke="#63b8ff" points="352.42,-257.5 362.42,-254 352.42,-250.5 352.42,-257.5"/>
</a>
</g>
</g>
<!-- Node9 -->
<g id="Node000009" class="node">
<title>Node9</title>
<g id="a_Node000009"><a xlink:href="../../d7/dbe/class_g_e_u_1_1_database_query_popup.html#afc8c81955f8b810c699753b511f61031" target="_top" xlink:title=" ">
<polygon fill="white" stroke="#666666" points="328.25,-220 190,-220 190,-188 328.25,-188 328.25,-220"/>
<text text-anchor="start" x="198" y="-206.5" font-family="Helvetica,sans-Serif" font-size="10.00">GEU::DatabaseQueryPopup</text>
<text text-anchor="middle" x="259.12" y="-194.5" font-family="Helvetica,sans-Serif" font-size="10.00">::makeZonaSelectorTable</text>
</a>
</g>
</g>
<!-- Node1&#45;&gt;Node9 -->
<g id="edge8_Node000001_Node000009" class="edge">
<title>Node1&#45;&gt;Node9</title>
<g id="a_edge8_Node000001_Node000009"><a xlink:title=" ">
<path fill="none" stroke="#63b8ff" d="M353.24,-234.78C338.98,-230.07 323.84,-225.06 310.01,-220.49"/>
<polygon fill="#63b8ff" stroke="#63b8ff" points="351.9,-238.03 362.5,-237.84 354.1,-231.38 351.9,-238.03"/>
</a>
</g>
</g>
<!-- Node10 -->
<g id="Node000010" class="node">
<title>Node10</title>
<g id="a_Node000010"><a xlink:href="../../de/de6/class_g_e_u_1_1_g_u_i.html#af7ebc89aa431e3a9e86bb1424b819d47" target="_top" xlink:title="Draws ImGUI elements.">
<polygon fill="white" stroke="#666666" points="305.38,-170 212.88,-170 212.88,-150 305.38,-150 305.38,-170"/>
<text text-anchor="middle" x="259.12" y="-156.5" font-family="Helvetica,sans-Serif" font-size="10.00">GEU::GUI::render</text>
</a>
</g>
</g>
<!-- Node1&#45;&gt;Node10 -->
<g id="edge9_Node000001_Node000010" class="edge">
<title>Node1&#45;&gt;Node10</title>
<g id="a_edge9_Node000001_Node000010"><a xlink:title=" ">
<path fill="none" stroke="#63b8ff" d="M389.92,-229.41C374.33,-212.96 351.89,-192.01 328.25,-179 321.26,-175.15 313.42,-172.03 305.63,-169.52"/>
<polygon fill="#63b8ff" stroke="#63b8ff" points="387.05,-231.46 396.4,-236.43 392.19,-226.71 387.05,-231.46"/>
</a>
</g>
</g>
<!-- Node11 -->
<g id="Node000011" class="node">
<title>Node11</title>
<g id="a_Node000011"><a xlink:href="../../d1/dd3/class_g_e_u_1_1_thermal_g_u_i_adapter.html#a1509f8f0d21826efa7cc133bbd190931" target="_top" xlink:title="Custom module GUI window contents.">
<polygon fill="white" stroke="#666666" points="323,-132 195.25,-132 195.25,-100 323,-100 323,-132"/>
<text text-anchor="start" x="203.25" y="-118.5" font-family="Helvetica,sans-Serif" font-size="10.00">GEU::ThermalGUIAdapter</text>
<text text-anchor="middle" x="259.12" y="-106.5" font-family="Helvetica,sans-Serif" font-size="10.00">::renderGuiObject</text>
</a>
</g>
</g>
<!-- Node1&#45;&gt;Node11 -->
<g id="edge10_Node000001_Node000011" class="edge">
<title>Node1&#45;&gt;Node11</title>
<g id="a_edge10_Node000001_Node000011"><a xlink:title=" ">
<path fill="none" stroke="#63b8ff" d="M398.02,-227.76C383.86,-202.33 359.26,-164.29 328.25,-141 323.92,-137.75 319.12,-134.88 314.13,-132.36"/>
<polygon fill="#63b8ff" stroke="#63b8ff" points="394.89,-229.33 402.72,-236.47 401.05,-226.01 394.89,-229.33"/>
</a>
</g>
</g>
<!-- Node12 -->
<g id="Node000012" class="node">
<title>Node12</title>
<g id="a_Node000012"><a xlink:href="../../d3/d7c/class_g_e_u_1_1_confirm_popup.html#a82f88c00c88912fb0beab3db3dcccdf0" target="_top" xlink:title="Renders the popup and its contents.">
<polygon fill="white" stroke="#666666" points="314,-82 204.25,-82 204.25,-50 314,-50 314,-82"/>
<text text-anchor="start" x="212.25" y="-68.5" font-family="Helvetica,sans-Serif" font-size="10.00">GEU::ConfirmPopup::</text>
<text text-anchor="middle" x="259.12" y="-56.5" font-family="Helvetica,sans-Serif" font-size="10.00">renderPopup</text>
</a>
</g>
</g>
<!-- Node1&#45;&gt;Node12 -->
<g id="edge11_Node000001_Node000012" class="edge">
<title>Node1&#45;&gt;Node12</title>
<g id="a_edge11_Node000001_Node000012"><a xlink:title=" ">
<path fill="none" stroke="#63b8ff" d="M404.34,-227.04C393.67,-191.2 370.07,-128.08 328.25,-91 324.1,-87.32 319.37,-84.17 314.37,-81.47"/>
<polygon fill="#63b8ff" stroke="#63b8ff" points="400.84,-227.53 406.95,-236.19 407.58,-225.61 400.84,-227.53"/>
</a>
</g>
</g>
<!-- Node13 -->
<g id="Node000013" class="node">
<title>Node13</title>
<g id="a_Node000013"><a xlink:href="../../d9/db1/class_g_e_u_1_1_picking_window.html#a56f55b34996a68d41418a2df8ea008db" target="_top" xlink:title="Renders the window and contents.">
<polygon fill="white" stroke="#666666" points="314,-32 204.25,-32 204.25,0 314,0 314,-32"/>
<text text-anchor="start" x="212.25" y="-18.5" font-family="Helvetica,sans-Serif" font-size="10.00">GEU::PickingWindow</text>
<text text-anchor="middle" x="259.12" y="-6.5" font-family="Helvetica,sans-Serif" font-size="10.00">::renderWindow</text>
</a>
</g>
</g>
<!-- Node1&#45;&gt;Node13 -->
<g id="edge12_Node000001_Node000013" class="edge">
<title>Node1&#45;&gt;Node13</title>
<g id="a_edge12_Node000001_Node000013"><a xlink:title=" ">
<path fill="none" stroke="#63b8ff" d="M407.95,-226.49C400.96,-181.65 380.97,-92.66 328.25,-41 324.2,-37.03 319.47,-33.69 314.42,-30.87"/>
<polygon fill="#63b8ff" stroke="#63b8ff" points="404.45,-226.75 409.35,-236.15 411.38,-225.75 404.45,-226.75"/>
</a>
</g>
</g>
<!-- Node8 -->
<g id="Node000008" class="node">
<title>Node8</title>
<g id="a_Node000008"><a xlink:href="../../de/d4a/class_g_e_u_1_1_multiespectral_g_u_i_adapter.html#a30cdb8738563252a05b2da154c3f864d" target="_top" xlink:title="Custom module GUI window contents.">
<polygon fill="white" stroke="#666666" points="154,-270 0,-270 0,-238 154,-238 154,-270"/>
<text text-anchor="start" x="8" y="-256.5" font-family="Helvetica,sans-Serif" font-size="10.00">GEU::MultiespectralGUIAdapter</text>
<text text-anchor="middle" x="77" y="-244.5" font-family="Helvetica,sans-Serif" font-size="10.00">::renderGuiObject</text>
</a>
</g>
</g>
<!-- Node7&#45;&gt;Node8 -->
<g id="edge7_Node000007_Node000008" class="edge">
<title>Node7&#45;&gt;Node8</title>
<g id="a_edge7_Node000007_Node000008"><a xlink:title=" ">
<path fill="none" stroke="#63b8ff" d="M186.53,-254C175.9,-254 164.91,-254 154.19,-254"/>
<polygon fill="#63b8ff" stroke="#63b8ff" points="186.38,-257.5 196.38,-254 186.38,-250.5 186.38,-257.5"/>
</a>
</g>
</g>
</g>
</svg>
