<?xml version="1.0" encoding="UTF-8" standalone="no"?>
<!DOCTYPE svg PUBLIC "-//W3C//DTD SVG 1.1//EN"
 "http://www.w3.org/Graphics/SVG/1.1/DTD/svg11.dtd">
<!-- Generated by graphviz version 10.0.1 (20240210.2158)
 -->
<!-- Title: GEU::GuiUtilities::InputInt Pages: 1 -->
<svg width="439pt" height="190pt"
 viewBox="0.00 0.00 439.25 190.00" xmlns="http://www.w3.org/2000/svg" xmlns:xlink="http://www.w3.org/1999/xlink">
<g id="graph0" class="graph" transform="scale(1 1) rotate(0) translate(4 186)">
<title>GEU::GuiUtilities::InputInt</title>
<!-- Node1 -->
<g id="Node000001" class="node">
<title>Node1</title>
<g id="a_Node000001"><a xlink:title=" ">
<polygon fill="#999999" stroke="#666666" points="431.25,-107 335,-107 335,-75 431.25,-75 431.25,-107"/>
<text text-anchor="start" x="343" y="-93.5" font-family="Helvetica,sans-Serif" font-size="10.00">GEU::GuiUtilities::</text>
<text text-anchor="middle" x="383.12" y="-81.5" font-family="Helvetica,sans-Serif" font-size="10.00">InputInt</text>
</a>
</g>
</g>
<!-- Node2 -->
<g id="Node000002" class="node">
<title>Node2</title>
<g id="a_Node000002"><a xlink:href="../../db/d50/class_g_e_u_1_1_details_window.html#afef856466732ea159773d087909d0fdf" target="_top" xlink:title="Renders inspector details for 3D model items.">
<polygon fill="white" stroke="#666666" points="286.62,-182 155.88,-182 155.88,-150 286.62,-150 286.62,-182"/>
<text text-anchor="start" x="163.88" y="-168.5" font-family="Helvetica,sans-Serif" font-size="10.00">GEU::DetailsWindow</text>
<text text-anchor="middle" x="221.25" y="-156.5" font-family="Helvetica,sans-Serif" font-size="10.00">::makeModelItemInspector</text>
</a>
</g>
</g>
<!-- Node1&#45;&gt;Node2 -->
<g id="edge1_Node000001_Node000002" class="edge">
<title>Node1&#45;&gt;Node2</title>
<g id="a_edge1_Node000001_Node000002"><a xlink:title=" ">
<path fill="none" stroke="#63b8ff" d="M348.5,-113.61C333.73,-122.9 315.93,-133.27 299,-141 292.24,-144.08 284.99,-146.96 277.75,-149.59"/>
<polygon fill="#63b8ff" stroke="#63b8ff" points="350.39,-116.55 356.91,-108.21 346.61,-110.66 350.39,-116.55"/>
</a>
</g>
</g>
<!-- Node4 -->
<g id="Node000004" class="node">
<title>Node4</title>
<g id="a_Node000004"><a xlink:href="../../db/d50/class_g_e_u_1_1_details_window.html#a9edcfff4507d107037e9f7500a3d6717" target="_top" xlink:title="Renders inspector details for point cloud items.">
<polygon fill="white" stroke="#666666" points="289.25,-132 153.25,-132 153.25,-100 289.25,-100 289.25,-132"/>
<text text-anchor="start" x="161.25" y="-118.5" font-family="Helvetica,sans-Serif" font-size="10.00">GEU::DetailsWindow</text>
<text text-anchor="middle" x="221.25" y="-106.5" font-family="Helvetica,sans-Serif" font-size="10.00">::makePCloudItemInspector</text>
</a>
</g>
</g>
<!-- Node1&#45;&gt;Node4 -->
<g id="edge3_Node000001_Node000004" class="edge">
<title>Node1&#45;&gt;Node4</title>
<g id="a_edge3_Node000001_Node000004"><a xlink:title=" ">
<path fill="none" stroke="#63b8ff" d="M323.41,-100.18C312.45,-101.89 300.92,-103.7 289.72,-105.45"/>
<polygon fill="#63b8ff" stroke="#63b8ff" points="323.76,-103.67 333.09,-98.67 322.67,-96.75 323.76,-103.67"/>
</a>
</g>
</g>
<!-- Node5 -->
<g id="Node000005" class="node">
<title>Node5</title>
<g id="a_Node000005"><a xlink:href="../../db/dbe/class_g_e_u_1_1_database_new_vuelo_popup.html#ac1b98a11d860c6c9fe497bdcaa689d79" target="_top" xlink:title="Renders the popup and its contents.">
<polygon fill="white" stroke="#666666" points="299,-82 143.5,-82 143.5,-50 299,-50 299,-82"/>
<text text-anchor="start" x="151.5" y="-68.5" font-family="Helvetica,sans-Serif" font-size="10.00">GEU::DatabaseNewVueloPopup</text>
<text text-anchor="middle" x="221.25" y="-56.5" font-family="Helvetica,sans-Serif" font-size="10.00">::renderPopup</text>
</a>
</g>
</g>
<!-- Node1&#45;&gt;Node5 -->
<g id="edge5_Node000001_Node000005" class="edge">
<title>Node1&#45;&gt;Node5</title>
<g id="a_edge5_Node000001_Node000005"><a xlink:title=" ">
<path fill="none" stroke="#63b8ff" d="M323.34,-81.81C315.49,-80.58 307.35,-79.31 299.25,-78.04"/>
<polygon fill="#63b8ff" stroke="#63b8ff" points="322.67,-85.25 333.09,-83.33 323.76,-78.33 322.67,-85.25"/>
</a>
</g>
</g>
<!-- Node6 -->
<g id="Node000006" class="node">
<title>Node6</title>
<g id="a_Node000006"><a xlink:href="../../d9/db1/class_g_e_u_1_1_picking_window.html#a56f55b34996a68d41418a2df8ea008db" target="_top" xlink:title="Renders the window and contents.">
<polygon fill="white" stroke="#666666" points="276.12,-32 166.38,-32 166.38,0 276.12,0 276.12,-32"/>
<text text-anchor="start" x="174.38" y="-18.5" font-family="Helvetica,sans-Serif" font-size="10.00">GEU::PickingWindow</text>
<text text-anchor="middle" x="221.25" y="-6.5" font-family="Helvetica,sans-Serif" font-size="10.00">::renderWindow</text>
</a>
</g>
</g>
<!-- Node1&#45;&gt;Node6 -->
<g id="edge6_Node000001_Node000006" class="edge">
<title>Node1&#45;&gt;Node6</title>
<g id="a_edge6_Node000001_Node000006"><a xlink:title=" ">
<path fill="none" stroke="#63b8ff" d="M348.5,-68.39C333.73,-59.1 315.93,-48.73 299,-41 291.86,-37.74 284.17,-34.71 276.52,-31.97"/>
<polygon fill="#63b8ff" stroke="#63b8ff" points="346.61,-71.34 356.91,-73.79 350.39,-65.45 346.61,-71.34"/>
</a>
</g>
</g>
<!-- Node3 -->
<g id="Node000003" class="node">
<title>Node3</title>
<g id="a_Node000003"><a xlink:href="../../db/d50/class_g_e_u_1_1_details_window.html#a6666ec761cc5cd8a57220823b8e7daa6" target="_top" xlink:title="Renders the window and contents.">
<polygon fill="white" stroke="#666666" points="107.5,-157 0,-157 0,-125 107.5,-125 107.5,-157"/>
<text text-anchor="start" x="8" y="-143.5" font-family="Helvetica,sans-Serif" font-size="10.00">GEU::DetailsWindow</text>
<text text-anchor="middle" x="53.75" y="-131.5" font-family="Helvetica,sans-Serif" font-size="10.00">::renderWindow</text>
</a>
</g>
</g>
<!-- Node2&#45;&gt;Node3 -->
<g id="edge2_Node000002_Node000003" class="edge">
<title>Node2&#45;&gt;Node3</title>
<g id="a_edge2_Node000002_Node000003"><a xlink:title=" ">
<path fill="none" stroke="#63b8ff" d="M144.5,-154.56C132.1,-152.68 119.5,-150.78 107.8,-149.01"/>
<polygon fill="#63b8ff" stroke="#63b8ff" points="143.88,-158 154.29,-156.04 144.93,-151.08 143.88,-158"/>
</a>
</g>
</g>
<!-- Node4&#45;&gt;Node3 -->
<g id="edge4_Node000004_Node000003" class="edge">
<title>Node4&#45;&gt;Node3</title>
<g id="a_edge4_Node000004_Node000003"><a xlink:title=" ">
<path fill="none" stroke="#63b8ff" d="M141.56,-127.89C130.12,-129.62 118.57,-131.36 107.8,-132.99"/>
<polygon fill="#63b8ff" stroke="#63b8ff" points="142.07,-131.35 151.44,-126.39 141.03,-124.43 142.07,-131.35"/>
</a>
</g>
</g>
</g>
</svg>
