<?xml version="1.0" encoding="UTF-8" standalone="no"?>
<!DOCTYPE svg PUBLIC "-//W3C//DTD SVG 1.1//EN"
 "http://www.w3.org/Graphics/SVG/1.1/DTD/svg11.dtd">
<!-- Generated by graphviz version 10.0.1 (20240210.2158)
 -->
<!-- Title: GEU::GuiUtilities::makeLocButton Pages: 1 -->
<svg width="294pt" height="490pt"
 viewBox="0.00 0.00 294.25 490.00" xmlns="http://www.w3.org/2000/svg" xmlns:xlink="http://www.w3.org/1999/xlink">
<g id="graph0" class="graph" transform="scale(1 1) rotate(0) translate(4 486)">
<title>GEU::GuiUtilities::makeLocButton</title>
<!-- Node1 -->
<g id="Node000001" class="node">
<title>Node1</title>
<g id="a_Node000001"><a xlink:title=" ">
<polygon fill="#999999" stroke="#666666" points="286.25,-257 190,-257 190,-225 286.25,-225 286.25,-257"/>
<text text-anchor="start" x="198" y="-243.5" font-family="Helvetica,sans-Serif" font-size="10.00">GEU::GuiUtilities::</text>
<text text-anchor="middle" x="238.12" y="-231.5" font-family="Helvetica,sans-Serif" font-size="10.00">makeLocButton</text>
</a>
</g>
</g>
<!-- Node2 -->
<g id="Node000002" class="node">
<title>Node2</title>
<g id="a_Node000002"><a xlink:href="../../d7/dbe/class_g_e_u_1_1_database_query_popup.html#adb90287e5ae55991c17a08e912aff67c" target="_top" xlink:title=" ">
<polygon fill="white" stroke="#666666" points="146.12,-482 7.88,-482 7.88,-450 146.12,-450 146.12,-482"/>
<text text-anchor="start" x="15.88" y="-468.5" font-family="Helvetica,sans-Serif" font-size="10.00">GEU::DatabaseQueryPopup</text>
<text text-anchor="middle" x="77" y="-456.5" font-family="Helvetica,sans-Serif" font-size="10.00">::makeFormCamara</text>
</a>
</g>
</g>
<!-- Node1&#45;&gt;Node2 -->
<g id="edge1_Node000001_Node000002" class="edge">
<title>Node1&#45;&gt;Node2</title>
<g id="a_edge1_Node000001_Node000002"><a xlink:title=" ">
<path fill="none" stroke="#63b8ff" d="M233.11,-268.55C225.44,-311.42 204.69,-394.03 154,-441 150.43,-444.3 146.42,-447.17 142.15,-449.66"/>
<polygon fill="#63b8ff" stroke="#63b8ff" points="236.54,-269.26 234.73,-258.82 229.64,-268.11 236.54,-269.26"/>
</a>
</g>
</g>
<!-- Node3 -->
<g id="Node000003" class="node">
<title>Node3</title>
<g id="a_Node000003"><a xlink:href="../../d7/dbe/class_g_e_u_1_1_database_query_popup.html#a83023007463bdd6e6a4b40c55146b825" target="_top" xlink:title=" ">
<polygon fill="white" stroke="#666666" points="146.12,-432 7.88,-432 7.88,-400 146.12,-400 146.12,-432"/>
<text text-anchor="start" x="15.88" y="-418.5" font-family="Helvetica,sans-Serif" font-size="10.00">GEU::DatabaseQueryPopup</text>
<text text-anchor="middle" x="77" y="-406.5" font-family="Helvetica,sans-Serif" font-size="10.00">::makeFormDatoCrudo</text>
</a>
</g>
</g>
<!-- Node1&#45;&gt;Node3 -->
<g id="edge2_Node000001_Node000003" class="edge">
<title>Node1&#45;&gt;Node3</title>
<g id="a_edge2_Node000001_Node000003"><a xlink:title=" ">
<path fill="none" stroke="#63b8ff" d="M229.02,-267.93C217.59,-301.44 193.6,-358.23 154,-391 150.04,-394.28 145.64,-397.13 141,-399.61"/>
<polygon fill="#63b8ff" stroke="#63b8ff" points="232.3,-269.16 232.07,-258.56 225.65,-266.99 232.3,-269.16"/>
</a>
</g>
</g>
<!-- Node4 -->
<g id="Node000004" class="node">
<title>Node4</title>
<g id="a_Node000004"><a xlink:href="../../d7/dbe/class_g_e_u_1_1_database_query_popup.html#a1946c8c9ce8e263ceda1d7cc6da23e9e" target="_top" xlink:title=" ">
<polygon fill="white" stroke="#666666" points="146.12,-382 7.88,-382 7.88,-350 146.12,-350 146.12,-382"/>
<text text-anchor="start" x="15.88" y="-368.5" font-family="Helvetica,sans-Serif" font-size="10.00">GEU::DatabaseQueryPopup</text>
<text text-anchor="middle" x="77" y="-356.5" font-family="Helvetica,sans-Serif" font-size="10.00">::makeFormDron</text>
</a>
</g>
</g>
<!-- Node1&#45;&gt;Node4 -->
<g id="edge3_Node000001_Node000004" class="edge">
<title>Node1&#45;&gt;Node4</title>
<g id="a_edge3_Node000001_Node000004"><a xlink:title=" ">
<path fill="none" stroke="#63b8ff" d="M221.59,-266.88C206.83,-289.44 182.65,-321.5 154,-341 149.18,-344.28 143.89,-347.16 138.42,-349.68"/>
<polygon fill="#63b8ff" stroke="#63b8ff" points="224.48,-268.86 226.89,-258.55 218.57,-265.11 224.48,-268.86"/>
</a>
</g>
</g>
<!-- Node5 -->
<g id="Node000005" class="node">
<title>Node5</title>
<g id="a_Node000005"><a xlink:href="../../d7/dbe/class_g_e_u_1_1_database_query_popup.html#a7e928a635f870efcaf7dc0826c039858" target="_top" xlink:title=" ">
<polygon fill="white" stroke="#666666" points="146.12,-332 7.88,-332 7.88,-300 146.12,-300 146.12,-332"/>
<text text-anchor="start" x="15.88" y="-318.5" font-family="Helvetica,sans-Serif" font-size="10.00">GEU::DatabaseQueryPopup</text>
<text text-anchor="middle" x="77" y="-306.5" font-family="Helvetica,sans-Serif" font-size="10.00">::makeFormFinca</text>
</a>
</g>
</g>
<!-- Node1&#45;&gt;Node5 -->
<g id="edge4_Node000001_Node000005" class="edge">
<title>Node1&#45;&gt;Node5</title>
<g id="a_edge4_Node000001_Node000005"><a xlink:title=" ">
<path fill="none" stroke="#63b8ff" d="M203.49,-263.58C188.72,-272.87 170.92,-283.25 154,-291 147.31,-294.07 140.13,-296.93 132.95,-299.56"/>
<polygon fill="#63b8ff" stroke="#63b8ff" points="205.37,-266.53 211.91,-258.19 201.6,-260.64 205.37,-266.53"/>
</a>
</g>
</g>
<!-- Node6 -->
<g id="Node000006" class="node">
<title>Node6</title>
<g id="a_Node000006"><a xlink:href="../../d7/dbe/class_g_e_u_1_1_database_query_popup.html#aee96f5bdc802183d992461ccf7af7606" target="_top" xlink:title=" ">
<polygon fill="white" stroke="#666666" points="146.12,-282 7.88,-282 7.88,-250 146.12,-250 146.12,-282"/>
<text text-anchor="start" x="15.88" y="-268.5" font-family="Helvetica,sans-Serif" font-size="10.00">GEU::DatabaseQueryPopup</text>
<text text-anchor="middle" x="77" y="-256.5" font-family="Helvetica,sans-Serif" font-size="10.00">::makeFormObjeto</text>
</a>
</g>
</g>
<!-- Node1&#45;&gt;Node6 -->
<g id="edge5_Node000001_Node000006" class="edge">
<title>Node1&#45;&gt;Node6</title>
<g id="a_edge5_Node000001_Node000006"><a xlink:title=" ">
<path fill="none" stroke="#63b8ff" d="M178.65,-250.19C168.14,-251.84 157.09,-253.57 146.33,-255.26"/>
<polygon fill="#63b8ff" stroke="#63b8ff" points="178.98,-253.68 188.32,-248.67 177.9,-246.76 178.98,-253.68"/>
</a>
</g>
</g>
<!-- Node7 -->
<g id="Node000007" class="node">
<title>Node7</title>
<g id="a_Node000007"><a xlink:href="../../d7/dbe/class_g_e_u_1_1_database_query_popup.html#a6799cf756f5e2cb191268e786a8df4ba" target="_top" xlink:title=" ">
<polygon fill="white" stroke="#666666" points="146.12,-232 7.88,-232 7.88,-200 146.12,-200 146.12,-232"/>
<text text-anchor="start" x="15.88" y="-218.5" font-family="Helvetica,sans-Serif" font-size="10.00">GEU::DatabaseQueryPopup</text>
<text text-anchor="middle" x="77" y="-206.5" font-family="Helvetica,sans-Serif" font-size="10.00">::makeFormVuelos</text>
</a>
</g>
</g>
<!-- Node1&#45;&gt;Node7 -->
<g id="edge6_Node000001_Node000007" class="edge">
<title>Node1&#45;&gt;Node7</title>
<g id="a_edge6_Node000001_Node000007"><a xlink:title=" ">
<path fill="none" stroke="#63b8ff" d="M178.65,-231.81C168.14,-230.16 157.09,-228.43 146.33,-226.74"/>
<polygon fill="#63b8ff" stroke="#63b8ff" points="177.9,-235.24 188.32,-233.33 178.98,-228.32 177.9,-235.24"/>
</a>
</g>
</g>
<!-- Node8 -->
<g id="Node000008" class="node">
<title>Node8</title>
<g id="a_Node000008"><a xlink:href="../../d7/dbe/class_g_e_u_1_1_database_query_popup.html#ad5e45356898c5dfc51d7ef890f7a5b41" target="_top" xlink:title=" ">
<polygon fill="white" stroke="#666666" points="146.12,-182 7.88,-182 7.88,-150 146.12,-150 146.12,-182"/>
<text text-anchor="start" x="15.88" y="-168.5" font-family="Helvetica,sans-Serif" font-size="10.00">GEU::DatabaseQueryPopup</text>
<text text-anchor="middle" x="77" y="-156.5" font-family="Helvetica,sans-Serif" font-size="10.00">::makeFormZona</text>
</a>
</g>
</g>
<!-- Node1&#45;&gt;Node8 -->
<g id="edge7_Node000001_Node000008" class="edge">
<title>Node1&#45;&gt;Node8</title>
<g id="a_edge7_Node000001_Node000008"><a xlink:title=" ">
<path fill="none" stroke="#63b8ff" d="M203.49,-218.42C188.72,-209.13 170.92,-198.75 154,-191 147.31,-187.93 140.13,-185.07 132.95,-182.44"/>
<polygon fill="#63b8ff" stroke="#63b8ff" points="201.6,-221.36 211.91,-223.81 205.37,-215.47 201.6,-221.36"/>
</a>
</g>
</g>
<!-- Node9 -->
<g id="Node000009" class="node">
<title>Node9</title>
<g id="a_Node000009"><a xlink:href="../../de/d4a/class_g_e_u_1_1_multiespectral_g_u_i_adapter.html#a30cdb8738563252a05b2da154c3f864d" target="_top" xlink:title="Custom module GUI window contents.">
<polygon fill="white" stroke="#666666" points="154,-132 0,-132 0,-100 154,-100 154,-132"/>
<text text-anchor="start" x="8" y="-118.5" font-family="Helvetica,sans-Serif" font-size="10.00">GEU::MultiespectralGUIAdapter</text>
<text text-anchor="middle" x="77" y="-106.5" font-family="Helvetica,sans-Serif" font-size="10.00">::renderGuiObject</text>
</a>
</g>
</g>
<!-- Node1&#45;&gt;Node9 -->
<g id="edge8_Node000001_Node000009" class="edge">
<title>Node1&#45;&gt;Node9</title>
<g id="a_edge8_Node000001_Node000009"><a xlink:title=" ">
<path fill="none" stroke="#63b8ff" d="M221.59,-215.12C206.83,-192.56 182.65,-160.5 154,-141 149.18,-137.72 143.89,-134.84 138.42,-132.32"/>
<polygon fill="#63b8ff" stroke="#63b8ff" points="218.57,-216.89 226.89,-223.45 224.48,-213.14 218.57,-216.89"/>
</a>
</g>
</g>
<!-- Node10 -->
<g id="Node000010" class="node">
<title>Node10</title>
<g id="a_Node000010"><a xlink:href="../../d1/dd3/class_g_e_u_1_1_thermal_g_u_i_adapter.html#a1509f8f0d21826efa7cc133bbd190931" target="_top" xlink:title="Custom module GUI window contents.">
<polygon fill="white" stroke="#666666" points="140.88,-82 13.12,-82 13.12,-50 140.88,-50 140.88,-82"/>
<text text-anchor="start" x="21.12" y="-68.5" font-family="Helvetica,sans-Serif" font-size="10.00">GEU::ThermalGUIAdapter</text>
<text text-anchor="middle" x="77" y="-56.5" font-family="Helvetica,sans-Serif" font-size="10.00">::renderGuiObject</text>
</a>
</g>
</g>
<!-- Node1&#45;&gt;Node10 -->
<g id="edge9_Node000001_Node000010" class="edge">
<title>Node1&#45;&gt;Node10</title>
<g id="a_edge9_Node000001_Node000010"><a xlink:title=" ">
<path fill="none" stroke="#63b8ff" d="M229.02,-214.07C217.59,-180.56 193.6,-123.77 154,-91 150.04,-87.72 145.64,-84.87 141,-82.39"/>
<polygon fill="#63b8ff" stroke="#63b8ff" points="225.65,-215.01 232.07,-223.44 232.3,-212.84 225.65,-215.01"/>
</a>
</g>
</g>
<!-- Node11 -->
<g id="Node000011" class="node">
<title>Node11</title>
<g id="a_Node000011"><a xlink:href="../../d2/da0/class_g_e_u_1_1_database_new_raw_popup.html#aabf3be0d95c567d3b439cdae51edc79e" target="_top" xlink:title="Renders the popup and its contents.">
<polygon fill="white" stroke="#666666" points="151.75,-32 2.25,-32 2.25,0 151.75,0 151.75,-32"/>
<text text-anchor="start" x="10.25" y="-18.5" font-family="Helvetica,sans-Serif" font-size="10.00">GEU::DatabaseNewRawPopup</text>
<text text-anchor="middle" x="77" y="-6.5" font-family="Helvetica,sans-Serif" font-size="10.00">::renderPopup</text>
</a>
</g>
</g>
<!-- Node1&#45;&gt;Node11 -->
<g id="edge10_Node000001_Node000011" class="edge">
<title>Node1&#45;&gt;Node11</title>
<g id="a_edge10_Node000001_Node000011"><a xlink:title=" ">
<path fill="none" stroke="#63b8ff" d="M233.11,-213.45C225.44,-170.58 204.69,-87.97 154,-41 150.43,-37.7 146.42,-34.83 142.15,-32.34"/>
<polygon fill="#63b8ff" stroke="#63b8ff" points="229.64,-213.89 234.73,-223.18 236.54,-212.74 229.64,-213.89"/>
</a>
</g>
</g>
</g>
</svg>
