<?xml version="1.0" encoding="UTF-8" standalone="no"?>
<!DOCTYPE svg PUBLIC "-//W3C//DTD SVG 1.1//EN"
 "http://www.w3.org/Graphics/SVG/1.1/DTD/svg11.dtd">
<!-- Generated by graphviz version 10.0.1 (20240210.2158)
 -->
<!-- Title: GEU::GuiUtilities::SliderInt Pages: 1 -->
<svg width="423pt" height="90pt"
 viewBox="0.00 0.00 422.75 90.00" xmlns="http://www.w3.org/2000/svg" xmlns:xlink="http://www.w3.org/1999/xlink">
<g id="graph0" class="graph" transform="scale(1 1) rotate(0) translate(4 86)">
<title>GEU::GuiUtilities::SliderInt</title>
<!-- Node1 -->
<g id="Node000001" class="node">
<title>Node1</title>
<g id="a_Node000001"><a xlink:title=" ">
<polygon fill="#999999" stroke="#666666" points="414.75,-57 318.5,-57 318.5,-25 414.75,-25 414.75,-57"/>
<text text-anchor="start" x="326.5" y="-43.5" font-family="Helvetica,sans-Serif" font-size="10.00">GEU::GuiUtilities::</text>
<text text-anchor="middle" x="366.62" y="-31.5" font-family="Helvetica,sans-Serif" font-size="10.00">SliderInt</text>
</a>
</g>
</g>
<!-- Node2 -->
<g id="Node000002" class="node">
<title>Node2</title>
<g id="a_Node000002"><a xlink:href="../../db/d50/class_g_e_u_1_1_details_window.html#addd0dc775ee807e26a5936815ad411b8" target="_top" xlink:title=" ">
<polygon fill="white" stroke="#666666" points="282.5,-82 143.5,-82 143.5,-50 282.5,-50 282.5,-82"/>
<text text-anchor="start" x="151.5" y="-68.5" font-family="Helvetica,sans-Serif" font-size="10.00">GEU::DetailsWindow</text>
<text text-anchor="middle" x="213" y="-56.5" font-family="Helvetica,sans-Serif" font-size="10.00">::makeMaterialItemInspector</text>
</a>
</g>
</g>
<!-- Node1&#45;&gt;Node2 -->
<g id="edge1_Node000001_Node000002" class="edge">
<title>Node1&#45;&gt;Node2</title>
<g id="a_edge1_Node000001_Node000002"><a xlink:title=" ">
<path fill="none" stroke="#63b8ff" d="M306.77,-50.7C298.9,-52 290.78,-53.34 282.77,-54.66"/>
<polygon fill="#63b8ff" stroke="#63b8ff" points="307.28,-54.17 316.57,-49.09 306.14,-47.26 307.28,-54.17"/>
</a>
</g>
</g>
<!-- Node4 -->
<g id="Node000004" class="node">
<title>Node4</title>
<g id="a_Node000004"><a xlink:href="../../db/d50/class_g_e_u_1_1_details_window.html#a9edcfff4507d107037e9f7500a3d6717" target="_top" xlink:title="Renders inspector details for point cloud items.">
<polygon fill="white" stroke="#666666" points="281,-32 145,-32 145,0 281,0 281,-32"/>
<text text-anchor="start" x="153" y="-18.5" font-family="Helvetica,sans-Serif" font-size="10.00">GEU::DetailsWindow</text>
<text text-anchor="middle" x="213" y="-6.5" font-family="Helvetica,sans-Serif" font-size="10.00">::makePCloudItemInspector</text>
</a>
</g>
</g>
<!-- Node1&#45;&gt;Node4 -->
<g id="edge3_Node000001_Node000004" class="edge">
<title>Node1&#45;&gt;Node4</title>
<g id="a_edge3_Node000001_Node000004"><a xlink:title=" ">
<path fill="none" stroke="#63b8ff" d="M306.89,-31.32C298.54,-29.94 289.89,-28.51 281.38,-27.11"/>
<polygon fill="#63b8ff" stroke="#63b8ff" points="306.14,-34.74 316.57,-32.91 307.28,-27.83 306.14,-34.74"/>
</a>
</g>
</g>
<!-- Node3 -->
<g id="Node000003" class="node">
<title>Node3</title>
<g id="a_Node000003"><a xlink:href="../../db/d50/class_g_e_u_1_1_details_window.html#a6666ec761cc5cd8a57220823b8e7daa6" target="_top" xlink:title="Renders the window and contents.">
<polygon fill="white" stroke="#666666" points="107.5,-57 0,-57 0,-25 107.5,-25 107.5,-57"/>
<text text-anchor="start" x="8" y="-43.5" font-family="Helvetica,sans-Serif" font-size="10.00">GEU::DetailsWindow</text>
<text text-anchor="middle" x="53.75" y="-31.5" font-family="Helvetica,sans-Serif" font-size="10.00">::renderWindow</text>
</a>
</g>
</g>
<!-- Node2&#45;&gt;Node3 -->
<g id="edge2_Node000002_Node000003" class="edge">
<title>Node2&#45;&gt;Node3</title>
<g id="a_edge2_Node000002_Node000003"><a xlink:title=" ">
<path fill="none" stroke="#63b8ff" d="M131.83,-53.25C123.61,-51.95 115.41,-50.64 107.59,-49.4"/>
<polygon fill="#63b8ff" stroke="#63b8ff" points="131.11,-56.68 141.53,-54.8 132.21,-49.77 131.11,-56.68"/>
</a>
</g>
</g>
<!-- Node4&#45;&gt;Node3 -->
<g id="edge4_Node000004_Node000003" class="edge">
<title>Node4&#45;&gt;Node3</title>
<g id="a_edge4_Node000004_Node000003"><a xlink:title=" ">
<path fill="none" stroke="#63b8ff" d="M133.49,-28.48C124.82,-29.86 116.14,-31.24 107.89,-32.55"/>
<polygon fill="#63b8ff" stroke="#63b8ff" points="134.03,-31.94 143.36,-26.91 132.94,-25.03 134.03,-31.94"/>
</a>
</g>
</g>
</g>
</svg>
