<?xml version="1.0" encoding="UTF-8" standalone="no"?>
<!DOCTYPE svg PUBLIC "-//W3C//DTD SVG 1.1//EN"
 "http://www.w3.org/Graphics/SVG/1.1/DTD/svg11.dtd">
<!-- Generated by graphviz version 10.0.1 (20240210.2158)
 -->
<!-- Title: GEU::GuiUtilities::makeConfirmButton Pages: 1 -->
<svg width="295pt" height="190pt"
 viewBox="0.00 0.00 295.00 190.00" xmlns="http://www.w3.org/2000/svg" xmlns:xlink="http://www.w3.org/1999/xlink">
<g id="graph0" class="graph" transform="scale(1 1) rotate(0) translate(4 186)">
<title>GEU::GuiUtilities::makeConfirmButton</title>
<!-- Node1 -->
<g id="Node000001" class="node">
<title>Node1</title>
<g id="a_Node000001"><a xlink:title=" ">
<polygon fill="#999999" stroke="#666666" points="287,-107 185.5,-107 185.5,-75 287,-75 287,-107"/>
<text text-anchor="start" x="193.5" y="-93.5" font-family="Helvetica,sans-Serif" font-size="10.00">GEU::GuiUtilities::</text>
<text text-anchor="middle" x="236.25" y="-81.5" font-family="Helvetica,sans-Serif" font-size="10.00">makeConfirmButton</text>
</a>
</g>
</g>
<!-- Node2 -->
<g id="Node000002" class="node">
<title>Node2</title>
<g id="a_Node000002"><a xlink:href="../../d3/d7c/class_g_e_u_1_1_confirm_popup.html#a82f88c00c88912fb0beab3db3dcccdf0" target="_top" xlink:title="Renders the popup and its contents.">
<polygon fill="white" stroke="#666666" points="129.62,-182 19.88,-182 19.88,-150 129.62,-150 129.62,-182"/>
<text text-anchor="start" x="27.88" y="-168.5" font-family="Helvetica,sans-Serif" font-size="10.00">GEU::ConfirmPopup::</text>
<text text-anchor="middle" x="74.75" y="-156.5" font-family="Helvetica,sans-Serif" font-size="10.00">renderPopup</text>
</a>
</g>
</g>
<!-- Node1&#45;&gt;Node2 -->
<g id="edge1_Node000001_Node000002" class="edge">
<title>Node1&#45;&gt;Node2</title>
<g id="a_edge1_Node000001_Node000002"><a xlink:title=" ">
<path fill="none" stroke="#63b8ff" d="M200.53,-113.39C185.26,-122.67 166.87,-133.09 149.5,-141 142.86,-144.03 135.73,-146.89 128.63,-149.52"/>
<polygon fill="#63b8ff" stroke="#63b8ff" points="202.12,-116.52 208.79,-108.28 198.44,-110.56 202.12,-116.52"/>
</a>
</g>
</g>
<!-- Node3 -->
<g id="Node000003" class="node">
<title>Node3</title>
<g id="a_Node000003"><a xlink:href="../../d2/da0/class_g_e_u_1_1_database_new_raw_popup.html#aabf3be0d95c567d3b439cdae51edc79e" target="_top" xlink:title="Renders the popup and its contents.">
<polygon fill="white" stroke="#666666" points="149.5,-132 0,-132 0,-100 149.5,-100 149.5,-132"/>
<text text-anchor="start" x="8" y="-118.5" font-family="Helvetica,sans-Serif" font-size="10.00">GEU::DatabaseNewRawPopup</text>
<text text-anchor="middle" x="74.75" y="-106.5" font-family="Helvetica,sans-Serif" font-size="10.00">::renderPopup</text>
</a>
</g>
</g>
<!-- Node1&#45;&gt;Node3 -->
<g id="edge2_Node000001_Node000003" class="edge">
<title>Node1&#45;&gt;Node3</title>
<g id="a_edge2_Node000001_Node000003"><a xlink:title=" ">
<path fill="none" stroke="#63b8ff" d="M173.9,-100.62C166.02,-101.85 157.9,-103.12 149.84,-104.39"/>
<polygon fill="#63b8ff" stroke="#63b8ff" points="174.39,-104.08 183.73,-99.08 173.3,-97.17 174.39,-104.08"/>
</a>
</g>
</g>
<!-- Node4 -->
<g id="Node000004" class="node">
<title>Node4</title>
<g id="a_Node000004"><a xlink:href="../../d7/dbe/class_g_e_u_1_1_database_query_popup.html#a22764a8a53570961466432ac856eb4fc" target="_top" xlink:title="Renders the popup and its contents.">
<polygon fill="white" stroke="#666666" points="143.88,-82 5.62,-82 5.62,-50 143.88,-50 143.88,-82"/>
<text text-anchor="start" x="13.62" y="-68.5" font-family="Helvetica,sans-Serif" font-size="10.00">GEU::DatabaseQueryPopup</text>
<text text-anchor="middle" x="74.75" y="-56.5" font-family="Helvetica,sans-Serif" font-size="10.00">::renderPopup</text>
</a>
</g>
</g>
<!-- Node1&#45;&gt;Node4 -->
<g id="edge3_Node000001_Node000004" class="edge">
<title>Node1&#45;&gt;Node4</title>
<g id="a_edge3_Node000001_Node000004"><a xlink:title=" ">
<path fill="none" stroke="#63b8ff" d="M174.02,-81.4C164.3,-79.88 154.18,-78.29 144.31,-76.75"/>
<polygon fill="#63b8ff" stroke="#63b8ff" points="173.3,-84.83 183.73,-82.92 174.39,-77.92 173.3,-84.83"/>
</a>
</g>
</g>
<!-- Node5 -->
<g id="Node000005" class="node">
<title>Node5</title>
<g id="a_Node000005"><a xlink:href="../../d9/d8f/class_g_e_u_1_1_p_cloud_classify_popup.html#a7f59ae3b46b461ced5c0fef7e89f37a3" target="_top" xlink:title="Renders the popup and its contents.">
<polygon fill="white" stroke="#666666" points="143.12,-32 6.38,-32 6.38,0 143.12,0 143.12,-32"/>
<text text-anchor="start" x="14.38" y="-18.5" font-family="Helvetica,sans-Serif" font-size="10.00">GEU::PCloudClassifyPopup</text>
<text text-anchor="middle" x="74.75" y="-6.5" font-family="Helvetica,sans-Serif" font-size="10.00">::renderPopup</text>
</a>
</g>
</g>
<!-- Node1&#45;&gt;Node5 -->
<g id="edge4_Node000001_Node000005" class="edge">
<title>Node1&#45;&gt;Node5</title>
<g id="a_edge4_Node000001_Node000005"><a xlink:title=" ">
<path fill="none" stroke="#63b8ff" d="M200.53,-68.61C185.26,-59.33 166.87,-48.91 149.5,-41 142.86,-37.97 135.73,-35.11 128.63,-32.48"/>
<polygon fill="#63b8ff" stroke="#63b8ff" points="198.44,-71.44 208.79,-73.72 202.12,-65.48 198.44,-71.44"/>
</a>
</g>
</g>
</g>
</svg>
