<?xml version="1.0" encoding="UTF-8" standalone="no"?>
<!DOCTYPE svg PUBLIC "-//W3C//DTD SVG 1.1//EN"
 "http://www.w3.org/Graphics/SVG/1.1/DTD/svg11.dtd">
<!-- Generated by graphviz version 10.0.1 (20240210.2158)
 -->
<!-- Title: C:/GitHub/GEU/GEU/Source/Utilities/NASSession.h Pages: 1 -->
<svg width="241pt" height="96pt"
 viewBox="0.00 0.00 240.50 96.00" xmlns="http://www.w3.org/2000/svg" xmlns:xlink="http://www.w3.org/1999/xlink">
<g id="graph0" class="graph" transform="scale(1 1) rotate(0) translate(4 92)">
<title>C:/GitHub/GEU/GEU/Source/Utilities/NASSession.h</title>
<!-- Node1 -->
<g id="Node000001" class="node">
<title>Node1</title>
<g id="a_Node000001"><a xlink:title=" ">
<polygon fill="#999999" stroke="#666666" points="203.25,-88 62.75,-88 62.75,-56 203.25,-56 203.25,-88"/>
<text text-anchor="start" x="70.75" y="-74.5" font-family="Helvetica,sans-Serif" font-size="10.00">C:/GitHub/GEU/GEU/Source</text>
<text text-anchor="middle" x="133" y="-62.5" font-family="Helvetica,sans-Serif" font-size="10.00">/Utilities/NASSession.h</text>
</a>
</g>
</g>
<!-- Node2 -->
<g id="Node000002" class="node">
<title>Node2</title>
<g id="a_Node000002"><a xlink:href="../../df/d06/a00509.html" target="_top" xlink:title=" ">
<polygon fill="white" stroke="#666666" points="100,-20 0,-20 0,0 100,0 100,-20"/>
<text text-anchor="middle" x="50" y="-6.5" font-family="Helvetica,sans-Serif" font-size="10.00">Utilities/Singleton.h</text>
</a>
</g>
</g>
<!-- Node1&#45;&gt;Node2 -->
<g id="edge1_Node000001_Node000002" class="edge">
<title>Node1&#45;&gt;Node2</title>
<g id="a_edge1_Node000001_Node000002"><a xlink:title=" ">
<path fill="none" stroke="#63b8ff" d="M111.63,-55.55C99.5,-46.78 84.34,-35.83 72.1,-26.97"/>
<polygon fill="#63b8ff" stroke="#63b8ff" points="74.4,-24.32 64.24,-21.29 70.29,-29.99 74.4,-24.32"/>
</a>
</g>
</g>
<!-- Node3 -->
<g id="Node000003" class="node">
<title>Node3</title>
<g id="a_Node000003"><a xlink:title=" ">
<polygon fill="#e0e0e0" stroke="#999999" points="147.75,-20 118.25,-20 118.25,0 147.75,0 147.75,-20"/>
<text text-anchor="middle" x="133" y="-6.5" font-family="Helvetica,sans-Serif" font-size="10.00">set</text>
</a>
</g>
</g>
<!-- Node1&#45;&gt;Node3 -->
<g id="edge2_Node000001_Node000003" class="edge">
<title>Node1&#45;&gt;Node3</title>
<g id="a_edge2_Node000001_Node000003"><a xlink:title=" ">
<path fill="none" stroke="#63b8ff" d="M133,-55.55C133,-48.34 133,-39.66 133,-31.88"/>
<polygon fill="#63b8ff" stroke="#63b8ff" points="136.5,-31.92 133,-21.92 129.5,-31.92 136.5,-31.92"/>
</a>
</g>
</g>
<!-- Node4 -->
<g id="Node000004" class="node">
<title>Node4</title>
<g id="a_Node000004"><a xlink:title=" ">
<polygon fill="#e0e0e0" stroke="#999999" points="232.5,-20 165.5,-20 165.5,0 232.5,0 232.5,-20"/>
<text text-anchor="middle" x="199" y="-6.5" font-family="Helvetica,sans-Serif" font-size="10.00">FTPClient.h</text>
</a>
</g>
</g>
<!-- Node1&#45;&gt;Node4 -->
<g id="edge3_Node000001_Node000004" class="edge">
<title>Node1&#45;&gt;Node4</title>
<g id="a_edge3_Node000001_Node000004"><a xlink:title=" ">
<path fill="none" stroke="#63b8ff" d="M150,-55.55C159.26,-47.13 170.74,-36.69 180.26,-28.04"/>
<polygon fill="#63b8ff" stroke="#63b8ff" points="182.49,-30.74 187.53,-21.43 177.78,-25.56 182.49,-30.74"/>
</a>
</g>
</g>
</g>
</svg>
