<?xml version="1.0" encoding="UTF-8" standalone="no"?>
<!DOCTYPE svg PUBLIC "-//W3C//DTD SVG 1.1//EN"
 "http://www.w3.org/Graphics/SVG/1.1/DTD/svg11.dtd">
<!-- Generated by graphviz version 10.0.1 (20240210.2158)
 -->
<!-- Title: json::jobject::is_array Pages: 1 -->
<svg width="1137pt" height="333pt"
 viewBox="0.00 0.00 1137.00 333.02" xmlns="http://www.w3.org/2000/svg" xmlns:xlink="http://www.w3.org/1999/xlink">
<g id="graph0" class="graph" transform="scale(1 1) rotate(0) translate(4 329.02)">
<title>json::jobject::is_array</title>
<!-- Node1 -->
<g id="Node000001" class="node">
<title>Node1</title>
<g id="a_Node000001"><a xlink:title="Flag for differentiating objects and arrays.">
<polygon fill="#999999" stroke="#666666" points="1129,-170 1020,-170 1020,-150 1129,-150 1129,-170"/>
<text text-anchor="middle" x="1074.5" y="-156.5" font-family="Helvetica,sans-Serif" font-size="10.00">json::jobject::is_array</text>
</a>
</g>
</g>
<!-- Node2 -->
<g id="Node000002" class="node">
<title>Node2</title>
<g id="a_Node000002"><a xlink:href="../../d8/d07/classjson_1_1jobject.html#a07e29a2948df56e3eb332fcebe6ab9d5" target="_top" xlink:title="Parses a serialized JSON string.">
<polygon fill="white" stroke="#666666" points="984,-170 885.5,-170 885.5,-150 984,-150 984,-170"/>
<text text-anchor="middle" x="934.75" y="-156.5" font-family="Helvetica,sans-Serif" font-size="10.00">json::jobject::parse</text>
</a>
</g>
</g>
<!-- Node1&#45;&gt;Node2 -->
<g id="edge1_Node000001_Node000002" class="edge">
<title>Node1&#45;&gt;Node2</title>
<g id="a_edge1_Node000001_Node000002"><a xlink:title=" ">
<path fill="none" stroke="#63b8ff" d="M1008.38,-160C1000.2,-160 991.95,-160 984.09,-160"/>
<polygon fill="#63b8ff" stroke="#63b8ff" points="1008.33,-163.5 1018.33,-160 1008.33,-156.5 1008.33,-163.5"/>
</a>
</g>
</g>
<!-- Node3 -->
<g id="Node000003" class="node">
<title>Node3</title>
<g id="a_Node000003"><a xlink:href="../../d6/d03/classjson_1_1jobject_1_1const__value.html#ac03ee6e7f26fdcef204eebbe91c2dbed" target="_top" xlink:title="Returns another constant value from this array.">
<polygon fill="white" stroke="#666666" points="646.38,-307 547.88,-307 547.88,-275 646.38,-275 646.38,-307"/>
<text text-anchor="start" x="555.88" y="-293.5" font-family="Helvetica,sans-Serif" font-size="10.00">json::jobject::const</text>
<text text-anchor="middle" x="597.12" y="-281.5" font-family="Helvetica,sans-Serif" font-size="10.00">_value::array</text>
</a>
</g>
</g>
<!-- Node2&#45;&gt;Node3 -->
<g id="edge2_Node000002_Node000003" class="edge">
<title>Node2&#45;&gt;Node3</title>
<g id="a_edge2_Node000002_Node000003"><a xlink:title=" ">
<path fill="none" stroke="#63b8ff" d="M928.36,-181.57C918.8,-214.63 895.42,-276.76 849.5,-303 786.15,-339.2 698.48,-323.07 645.18,-307.47"/>
<polygon fill="#63b8ff" stroke="#63b8ff" points="931.74,-182.49 930.97,-171.92 924.98,-180.66 931.74,-182.49"/>
</a>
</g>
</g>
<!-- Node4 -->
<g id="Node000004" class="node">
<title>Node4</title>
<g id="a_Node000004"><a xlink:href="../../d9/d07/classjson_1_1jobject_1_1entry.html#a91afe1e18521515266c501b7ce74bdf3" target="_top" xlink:title="Casts the value as a JSON object.">
<polygon fill="white" stroke="#666666" points="825.12,-226 728.88,-226 728.88,-194 825.12,-194 825.12,-226"/>
<text text-anchor="start" x="736.88" y="-212.5" font-family="Helvetica,sans-Serif" font-size="10.00">json::jobject::entry</text>
<text text-anchor="middle" x="777" y="-200.5" font-family="Helvetica,sans-Serif" font-size="10.00">::as_object</text>
</a>
</g>
</g>
<!-- Node2&#45;&gt;Node4 -->
<g id="edge3_Node000002_Node000004" class="edge">
<title>Node2&#45;&gt;Node4</title>
<g id="a_edge3_Node000002_Node000004"><a xlink:title=" ">
<path fill="none" stroke="#63b8ff" d="M890.32,-173.94C870.12,-180.43 846.05,-188.15 825.39,-194.79"/>
<polygon fill="#63b8ff" stroke="#63b8ff" points="891.21,-177.33 899.66,-170.94 889.07,-170.67 891.21,-177.33"/>
</a>
</g>
</g>
<!-- Node6 -->
<g id="Node000006" class="node">
<title>Node6</title>
<g id="a_Node000006"><a xlink:href="../../db/d02/struct_database_1_1_s_d_o___g_e_o_m_e_t_r_y.html#af4f4cb72cf6ab17b5246c651ccaa9a51" target="_top" xlink:title=" ">
<polygon fill="white" stroke="#666666" points="849.5,-176 704.5,-176 704.5,-144 849.5,-144 849.5,-176"/>
<text text-anchor="start" x="712.5" y="-162.5" font-family="Helvetica,sans-Serif" font-size="10.00">Database::SDO_GEOMETRY</text>
<text text-anchor="middle" x="777" y="-150.5" font-family="Helvetica,sans-Serif" font-size="10.00">::fromJSON</text>
</a>
</g>
</g>
<!-- Node2&#45;&gt;Node6 -->
<g id="edge5_Node000002_Node000006" class="edge">
<title>Node2&#45;&gt;Node6</title>
<g id="a_edge5_Node000002_Node000006"><a xlink:title=" ">
<path fill="none" stroke="#63b8ff" d="M873.98,-160C866.08,-160 857.91,-160 849.84,-160"/>
<polygon fill="#63b8ff" stroke="#63b8ff" points="873.81,-163.5 883.81,-160 873.81,-156.5 873.81,-163.5"/>
</a>
</g>
</g>
<!-- Node12 -->
<g id="Node000012" class="node">
<title>Node12</title>
<g id="a_Node000012"><a xlink:href="../../d6/d03/classjson_1_1jobject_1_1const__value.html#ad5a9c1d6ef378522c5ae730c5f7619f1" target="_top" xlink:title="Returns another constant value from this object.">
<polygon fill="white" stroke="#666666" points="826.25,-276 727.75,-276 727.75,-244 826.25,-244 826.25,-276"/>
<text text-anchor="start" x="735.75" y="-262.5" font-family="Helvetica,sans-Serif" font-size="10.00">json::jobject::const</text>
<text text-anchor="middle" x="777" y="-250.5" font-family="Helvetica,sans-Serif" font-size="10.00">_value::get</text>
</a>
</g>
</g>
<!-- Node2&#45;&gt;Node12 -->
<g id="edge11_Node000002_Node000012" class="edge">
<title>Node2&#45;&gt;Node12</title>
<g id="a_edge11_Node000002_Node000012"><a xlink:title=" ">
<path fill="none" stroke="#63b8ff" d="M917.23,-178.35C901.3,-195.1 875.8,-219.52 849.5,-235 842.36,-239.2 834.4,-242.85 826.47,-245.96"/>
<polygon fill="#63b8ff" stroke="#63b8ff" points="919.36,-181.2 923.61,-171.49 914.24,-176.43 919.36,-181.2"/>
</a>
</g>
</g>
<!-- Node13 -->
<g id="Node000013" class="node">
<title>Node13</title>
<g id="a_Node000013"><a xlink:href="../../d9/d07/classjson_1_1jobject_1_1entry.html#aed0ba8146d3b175190a73fec57c547dc" target="_top" xlink:title="Casts an array of JSON objects.">
<polygon fill="white" stroke="#666666" points="836,-126 718,-126 718,-94 836,-94 836,-126"/>
<text text-anchor="start" x="726" y="-112.5" font-family="Helvetica,sans-Serif" font-size="10.00">json::jobject::entry</text>
<text text-anchor="middle" x="777" y="-100.5" font-family="Helvetica,sans-Serif" font-size="10.00">::vector&lt; json::jobject &gt;</text>
</a>
</g>
</g>
<!-- Node2&#45;&gt;Node13 -->
<g id="edge14_Node000002_Node000013" class="edge">
<title>Node2&#45;&gt;Node13</title>
<g id="a_edge14_Node000002_Node000013"><a xlink:title=" ">
<path fill="none" stroke="#63b8ff" d="M890.38,-146.08C871.44,-140 849.08,-132.82 829.31,-126.47"/>
<polygon fill="#63b8ff" stroke="#63b8ff" points="889.07,-149.33 899.66,-149.06 891.21,-142.67 889.07,-149.33"/>
</a>
</g>
</g>
<!-- Node14 -->
<g id="Node000014" class="node">
<title>Node14</title>
<g id="a_Node000014"><a xlink:href="../../d8/d07/classjson_1_1jobject.html#ab785f1c8b2636212e0d49b711fa4fba3" target="_top" xlink:title="Returns a pretty (multi&#45;line indented) serialzed representation of the object or array.">
<polygon fill="white" stroke="#666666" points="826.62,-58 727.38,-58 727.38,-38 826.62,-38 826.62,-58"/>
<text text-anchor="middle" x="777" y="-44.5" font-family="Helvetica,sans-Serif" font-size="10.00">json::jobject::pretty</text>
</a>
</g>
</g>
<!-- Node2&#45;&gt;Node14 -->
<g id="edge15_Node000002_Node000014" class="edge">
<title>Node2&#45;&gt;Node14</title>
<g id="a_edge15_Node000002_Node000014"><a xlink:title=" ">
<path fill="none" stroke="#63b8ff" d="M915.71,-141.5C899.37,-125.37 874.14,-101.95 849.5,-85 834.41,-74.62 816.04,-65.18 801.7,-58.43"/>
<polygon fill="#63b8ff" stroke="#63b8ff" points="913.21,-143.95 922.74,-148.56 918.16,-139.01 913.21,-143.95"/>
</a>
</g>
</g>
<!-- Node15 -->
<g id="Node000015" class="node">
<title>Node15</title>
<g id="a_Node000015"><a xlink:href="../../d8/d07/classjson_1_1jobject.html#a1049cbcf6dc1ebcd17fa8c3d21af3bd3" target="_top" xlink:title=" ">
<polygon fill="white" stroke="#666666" points="831.88,-20 722.12,-20 722.12,0 831.88,0 831.88,-20"/>
<text text-anchor="middle" x="777" y="-6.5" font-family="Helvetica,sans-Serif" font-size="10.00">json::jobject::tryparse</text>
</a>
</g>
</g>
<!-- Node2&#45;&gt;Node15 -->
<g id="edge17_Node000002_Node000015" class="edge">
<title>Node2&#45;&gt;Node15</title>
<g id="a_edge17_Node000002_Node000015"><a xlink:title=" ">
<path fill="none" stroke="#63b8ff" d="M925.97,-139.02C914.06,-109.85 888.5,-57.4 849.5,-29 844.31,-25.22 838.42,-22.19 832.3,-19.76"/>
<polygon fill="#63b8ff" stroke="#63b8ff" points="922.67,-140.19 929.57,-148.23 929.19,-137.64 922.67,-140.19"/>
</a>
</g>
</g>
<!-- Node5 -->
<g id="Node000005" class="node">
<title>Node5</title>
<g id="a_Node000005"><a xlink:href="../../d9/d07/classjson_1_1jobject_1_1entry.html#a8cbcd041225df788b6558d36f59763f4" target="_top" xlink:title=" ">
<polygon fill="white" stroke="#666666" points="645.25,-226 549,-226 549,-194 645.25,-194 645.25,-226"/>
<text text-anchor="start" x="557" y="-212.5" font-family="Helvetica,sans-Serif" font-size="10.00">json::jobject::entry</text>
<text text-anchor="middle" x="597.12" y="-200.5" font-family="Helvetica,sans-Serif" font-size="10.00">::jobject</text>
</a>
</g>
</g>
<!-- Node4&#45;&gt;Node5 -->
<g id="edge4_Node000004_Node000005" class="edge">
<title>Node4&#45;&gt;Node5</title>
<g id="a_edge4_Node000004_Node000005"><a xlink:title=" ">
<path fill="none" stroke="#63b8ff" d="M717.3,-210C694.01,-210 667.59,-210 645.55,-210"/>
<polygon fill="#63b8ff" stroke="#63b8ff" points="717.29,-213.5 727.29,-210 717.29,-206.5 717.29,-213.5"/>
</a>
</g>
</g>
<!-- Node7 -->
<g id="Node000007" class="node">
<title>Node7</title>
<g id="a_Node000007"><a xlink:href="../../d7/d05/struct_database_1_1_objeto.html#a23779e9f38a1d1ed6ff784d1e7969953" target="_top" xlink:title=" ">
<polygon fill="white" stroke="#666666" points="668.5,-170 525.75,-170 525.75,-150 668.5,-150 668.5,-170"/>
<text text-anchor="middle" x="597.12" y="-156.5" font-family="Helvetica,sans-Serif" font-size="10.00">Database::Objeto::fromQuery</text>
</a>
</g>
</g>
<!-- Node6&#45;&gt;Node7 -->
<g id="edge6_Node000006_Node000007" class="edge">
<title>Node6&#45;&gt;Node7</title>
<g id="a_edge6_Node000006_Node000007"><a xlink:title=" ">
<path fill="none" stroke="#63b8ff" d="M692.86,-160C684.81,-160 676.69,-160 668.78,-160"/>
<polygon fill="#63b8ff" stroke="#63b8ff" points="692.65,-163.5 702.65,-160 692.65,-156.5 692.65,-163.5"/>
</a>
</g>
</g>
<!-- Node8 -->
<g id="Node000008" class="node">
<title>Node8</title>
<g id="a_Node000008"><a xlink:href="../../d1/d01/class_database_connector.html#a5ebff79b9221572c5cc1372f375a9644" target="_top" xlink:title=" ">
<polygon fill="white" stroke="#666666" points="489.75,-176 382.25,-176 382.25,-144 489.75,-144 489.75,-176"/>
<text text-anchor="start" x="390.25" y="-162.5" font-family="Helvetica,sans-Serif" font-size="10.00">DatabaseConnector::</text>
<text text-anchor="middle" x="436" y="-150.5" font-family="Helvetica,sans-Serif" font-size="10.00">queryObjeto</text>
</a>
</g>
</g>
<!-- Node7&#45;&gt;Node8 -->
<g id="edge7_Node000007_Node000008" class="edge">
<title>Node7&#45;&gt;Node8</title>
<g id="a_edge7_Node000007_Node000008"><a xlink:title=" ">
<path fill="none" stroke="#63b8ff" d="M514.15,-160C505.89,-160 497.67,-160 489.83,-160"/>
<polygon fill="#63b8ff" stroke="#63b8ff" points="513.89,-163.5 523.89,-160 513.89,-156.5 513.89,-163.5"/>
</a>
</g>
</g>
<!-- Node9 -->
<g id="Node000009" class="node">
<title>Node9</title>
<g id="a_Node000009"><a xlink:href="../../d6/d00/class_g_e_u_1_1_tree_segmentation_g_u_i_adapter.html#a220f4253fbaddc522c033e939717f015" target="_top" xlink:title="Draw Export to Database tab to handle remote conection and upload.">
<polygon fill="white" stroke="#666666" points="346.25,-201 174.25,-201 174.25,-169 346.25,-169 346.25,-201"/>
<text text-anchor="start" x="182.25" y="-187.5" font-family="Helvetica,sans-Serif" font-size="10.00">GEU::TreeSegmentationGUIAdapter</text>
<text text-anchor="middle" x="260.25" y="-175.5" font-family="Helvetica,sans-Serif" font-size="10.00">::makeSegmentDatabaseGUI</text>
</a>
</g>
</g>
<!-- Node8&#45;&gt;Node9 -->
<g id="edge8_Node000008_Node000009" class="edge">
<title>Node8&#45;&gt;Node9</title>
<g id="a_edge8_Node000008_Node000009"><a xlink:title=" ">
<path fill="none" stroke="#63b8ff" d="M370.67,-169.26C362.84,-170.38 354.74,-171.55 346.66,-172.71"/>
<polygon fill="#63b8ff" stroke="#63b8ff" points="371.03,-172.74 380.43,-167.85 370.03,-165.81 371.03,-172.74"/>
</a>
</g>
</g>
<!-- Node10 -->
<g id="Node000010" class="node">
<title>Node10</title>
<g id="a_Node000010"><a xlink:href="../../d7/d06/class_g_e_u_1_1_database_query_popup.html#a66a3af3a767847d263899d0d0e287b78" target="_top" xlink:title=" ">
<polygon fill="white" stroke="#666666" points="329.38,-151 191.12,-151 191.12,-119 329.38,-119 329.38,-151"/>
<text text-anchor="start" x="199.12" y="-137.5" font-family="Helvetica,sans-Serif" font-size="10.00">GEU::DatabaseQueryPopup</text>
<text text-anchor="middle" x="260.25" y="-125.5" font-family="Helvetica,sans-Serif" font-size="10.00">::queryFilterObjeto</text>
</a>
</g>
</g>
<!-- Node8&#45;&gt;Node10 -->
<g id="edge9_Node000008_Node000010" class="edge">
<title>Node8&#45;&gt;Node10</title>
<g id="a_edge9_Node000008_Node000010"><a xlink:title=" ">
<path fill="none" stroke="#63b8ff" d="M370.87,-150.77C357.46,-148.84 343.28,-146.8 329.71,-144.85"/>
<polygon fill="#63b8ff" stroke="#63b8ff" points="370.03,-154.19 380.43,-152.15 371.03,-147.26 370.03,-154.19"/>
</a>
</g>
</g>
<!-- Node11 -->
<g id="Node000011" class="node">
<title>Node11</title>
<g id="a_Node000011"><a xlink:href="../../d7/d06/class_g_e_u_1_1_database_query_popup.html#aee96f5bdc802183d992461ccf7af7606" target="_top" xlink:title=" ">
<polygon fill="white" stroke="#666666" points="138.25,-151 0,-151 0,-119 138.25,-119 138.25,-151"/>
<text text-anchor="start" x="8" y="-137.5" font-family="Helvetica,sans-Serif" font-size="10.00">GEU::DatabaseQueryPopup</text>
<text text-anchor="middle" x="69.12" y="-125.5" font-family="Helvetica,sans-Serif" font-size="10.00">::makeFormObjeto</text>
</a>
</g>
</g>
<!-- Node10&#45;&gt;Node11 -->
<g id="edge10_Node000010_Node000011" class="edge">
<title>Node10&#45;&gt;Node11</title>
<g id="a_edge10_Node000010_Node000011"><a xlink:title=" ">
<path fill="none" stroke="#63b8ff" d="M179.39,-135C165.76,-135 151.73,-135 138.44,-135"/>
<polygon fill="#63b8ff" stroke="#63b8ff" points="179.19,-138.5 189.19,-135 179.19,-131.5 179.19,-138.5"/>
</a>
</g>
</g>
<!-- Node12&#45;&gt;Node3 -->
<g id="edge12_Node000012_Node000003" class="edge">
<title>Node12&#45;&gt;Node3</title>
<g id="a_edge12_Node000012_Node000003"><a xlink:title=" ">
<path fill="none" stroke="#63b8ff" d="M716.2,-270.42C693.58,-274.36 668.13,-278.8 646.67,-282.54"/>
<polygon fill="#63b8ff" stroke="#63b8ff" points="716.65,-273.9 725.9,-268.73 715.45,-267 716.65,-273.9"/>
</a>
</g>
</g>
<!-- Node12&#45;&gt;Node12 -->
<g id="edge13_Node000012_Node000012" class="edge">
<title>Node12&#45;&gt;Node12</title>
<g id="a_edge13_Node000012_Node000012"><a xlink:title=" ">
<path fill="none" stroke="#63b8ff" d="M803.29,-287.71C798.91,-291.48 790.14,-294 777,-294 752.97,-294 743.58,-285.58 748.84,-276.44"/>
<polygon fill="#63b8ff" stroke="#63b8ff" points="806.73,-288.37 804.91,-277.94 799.82,-287.23 806.73,-288.37"/>
</a>
</g>
</g>
<!-- Node14&#45;&gt;Node14 -->
<g id="edge16_Node000014_Node000014" class="edge">
<title>Node14&#45;&gt;Node14</title>
<g id="a_edge16_Node000014_Node000014"><a xlink:title=" ">
<path fill="none" stroke="#63b8ff" d="M804.88,-69.44C801.29,-73.3 792,-76 777,-76 749.58,-76 741.22,-66.98 751.94,-58.34"/>
<polygon fill="#63b8ff" stroke="#63b8ff" points="808.29,-68.64 802.44,-59.81 801.5,-70.36 808.29,-68.64"/>
</a>
</g>
</g>
</g>
</svg>
