<?xml version="1.0" encoding="UTF-8" standalone="no"?>
<!DOCTYPE svg PUBLIC "-//W3C//DTD SVG 1.1//EN"
 "http://www.w3.org/Graphics/SVG/1.1/DTD/svg11.dtd">
<!-- Generated by graphviz version 10.0.1 (20240210.2158)
 -->
<!-- Title: GEU::PickingWindow Pages: 1 -->
<svg width="2224pt" height="776pt"
 viewBox="0.00 0.00 2223.75 775.85" xmlns="http://www.w3.org/2000/svg" xmlns:xlink="http://www.w3.org/1999/xlink">
<g id="graph0" class="graph" transform="scale(1 1) rotate(0) translate(4 771.85)">
<title>GEU::PickingWindow</title>
<!-- Node1 -->
<g id="Node000001" class="node">
<title>Node1</title>
<g id="a_Node000001"><a xlink:title=" ">
<polygon fill="#999999" stroke="#666666" points="1982.25,-588.85 1872.5,-588.85 1872.5,-568.85 1982.25,-568.85 1982.25,-588.85"/>
<text text-anchor="middle" x="1927.38" y="-575.35" font-family="Helvetica,sans-Serif" font-size="10.00">GEU::PickingWindow</text>
</a>
</g>
</g>
<!-- Node2 -->
<g id="Node000002" class="node">
<title>Node2</title>
<g id="a_Node000002"><a xlink:href="../../dc/d53/class_g_e_u_1_1_i___g_u_i_window.html" target="_top" xlink:title="ImGUI window interface adapter class.">
<polygon fill="white" stroke="#666666" points="518.25,-580.85 416.75,-580.85 416.75,-560.85 518.25,-560.85 518.25,-580.85"/>
<text text-anchor="middle" x="467.5" y="-567.35" font-family="Helvetica,sans-Serif" font-size="10.00">GEU::I_GUIWindow</text>
</a>
</g>
</g>
<!-- Node2&#45;&gt;Node1 -->
<g id="edge1_Node000001_Node000002" class="edge">
<title>Node2&#45;&gt;Node1</title>
<g id="a_edge1_Node000001_Node000002"><a xlink:title=" ">
<path fill="none" stroke="#63b8ff" d="M529.8,-580.76C582.78,-588.47 661.49,-597.85 730.5,-597.85 730.5,-597.85 730.5,-597.85 1530.75,-597.85 1652.81,-597.85 1795.8,-588.72 1872.02,-583.12"/>
<polygon fill="#63b8ff" stroke="#63b8ff" points="530.47,-577.33 520.07,-579.32 529.45,-584.25 530.47,-577.33"/>
</a>
</g>
</g>
<!-- Node3 -->
<g id="Node000003" class="node">
<title>Node3</title>
<g id="a_Node000003"><a xlink:title=" ">
<polygon fill="white" stroke="#666666" points="190.5,-311.85 131,-311.85 131,-291.85 190.5,-291.85 190.5,-311.85"/>
<text text-anchor="middle" x="160.75" y="-298.35" font-family="Helvetica,sans-Serif" font-size="10.00">std::string</text>
</a>
</g>
</g>
<!-- Node3&#45;&gt;Node2 -->
<g id="edge2_Node000002_Node000003" class="edge">
<title>Node3&#45;&gt;Node2</title>
<g id="a_edge2_Node000002_Node000003"><a xlink:title=" ">
<path fill="none" stroke="#9a32cd" stroke-dasharray="5,2" d="M161.75,-323.49C162.9,-358.94 170.23,-429.64 208.5,-471.85 263.03,-532.01 358.23,-555.9 416.49,-565.18"/>
<polygon fill="#9a32cd" stroke="#9a32cd" points="165.25,-323.6 161.58,-313.66 158.25,-323.72 165.25,-323.6"/>
</a>
</g>
<text text-anchor="middle" x="232.88" y="-512.35" font-family="Helvetica,sans-Serif" font-size="10.00" fill="grey"> _windowID</text>
</g>
<!-- Node5 -->
<g id="Node000005" class="node">
<title>Node5</title>
<g id="a_Node000005"><a xlink:href="../../d4/dbf/class_g_e_u_1_1_point_cloud.html" target="_top" xlink:title=" ">
<polygon fill="white" stroke="#666666" points="1713.12,-455.85 1622.88,-455.85 1622.88,-435.85 1713.12,-435.85 1713.12,-455.85"/>
<text text-anchor="middle" x="1668" y="-442.35" font-family="Helvetica,sans-Serif" font-size="10.00">GEU::PointCloud</text>
</a>
</g>
</g>
<!-- Node3&#45;&gt;Node5 -->
<g id="edge26_Node000005_Node000003" class="edge">
<title>Node3&#45;&gt;Node5</title>
<g id="a_edge26_Node000005_Node000003"><a xlink:title=" ">
<path fill="none" stroke="#9a32cd" stroke-dasharray="5,2" d="M169.81,-322.74C177.6,-340.83 190.8,-366.86 208.5,-384.85 253.55,-430.65 269.01,-457.85 333.25,-457.85 333.25,-457.85 333.25,-457.85 732.5,-457.85 1075.26,-457.85 1488.68,-449.68 1622.74,-446.82"/>
<polygon fill="#9a32cd" stroke="#9a32cd" points="173.08,-321.49 166.06,-313.56 166.6,-324.14 173.08,-321.49"/>
</a>
</g>
<text text-anchor="middle" x="869.38" y="-472.35" font-family="Helvetica,sans-Serif" font-size="10.00" fill="grey"> _prevViewMode</text>
<text text-anchor="middle" x="869.38" y="-460.35" font-family="Helvetica,sans-Serif" font-size="10.00" fill="grey">_viewMode</text>
</g>
<!-- Node6 -->
<g id="Node000006" class="node">
<title>Node6</title>
<g id="a_Node000006"><a xlink:href="../../db/d6c/class_g_e_u_1_1_model3_d.html" target="_top" xlink:title=" ">
<polygon fill="white" stroke="#666666" points="1412.25,-419.85 1331,-419.85 1331,-399.85 1412.25,-399.85 1412.25,-419.85"/>
<text text-anchor="middle" x="1371.62" y="-406.35" font-family="Helvetica,sans-Serif" font-size="10.00">GEU::Model3D</text>
</a>
</g>
</g>
<!-- Node3&#45;&gt;Node6 -->
<g id="edge6_Node000006_Node000003" class="edge">
<title>Node3&#45;&gt;Node6</title>
<g id="a_edge6_Node000006_Node000003"><a xlink:title=" ">
<path fill="none" stroke="#9a32cd" stroke-dasharray="5,2" d="M171.91,-322.21C179.93,-336.13 192.44,-353.82 208.5,-363.85 241.19,-384.28 390.52,-385.37 411.25,-386.85 469.24,-390.98 483.67,-393.36 541.75,-395.85 845.15,-408.87 1211.5,-409.94 1330.92,-409.91"/>
<polygon fill="#9a32cd" stroke="#9a32cd" points="174.99,-320.55 167.17,-313.4 168.83,-323.87 174.99,-320.55"/>
</a>
</g>
<text text-anchor="middle" x="731.5" y="-407.35" font-family="Helvetica,sans-Serif" font-size="10.00" fill="grey"> _name</text>
</g>
<!-- Node8 -->
<g id="Node000008" class="node">
<title>Node8</title>
<g id="a_Node000008"><a xlink:href="../../d5/def/class_g_e_u_1_1_material.html" target="_top" xlink:title=" ">
<polygon fill="white" stroke="#666666" points="1146.5,-383.85 1069,-383.85 1069,-363.85 1146.5,-363.85 1146.5,-383.85"/>
<text text-anchor="middle" x="1107.75" y="-370.35" font-family="Helvetica,sans-Serif" font-size="10.00">GEU::Material</text>
</a>
</g>
</g>
<!-- Node3&#45;&gt;Node8 -->
<g id="edge9_Node000008_Node000003" class="edge">
<title>Node3&#45;&gt;Node8</title>
<g id="a_edge9_Node000008_Node000003"><a xlink:title=" ">
<path fill="none" stroke="#9a32cd" stroke-dasharray="5,2" d="M178.66,-320.51C186.91,-328.53 197.44,-337.32 208.5,-342.85 235.62,-356.4 245.13,-353.42 275.25,-356.85 579.74,-391.59 950.9,-380.41 1068.87,-375.58"/>
<polygon fill="#9a32cd" stroke="#9a32cd" points="181.21,-318.11 171.74,-313.37 176.19,-322.99 181.21,-318.11"/>
</a>
</g>
<text text-anchor="middle" x="597" y="-382.35" font-family="Helvetica,sans-Serif" font-size="10.00" fill="grey"> _name</text>
</g>
<!-- Node10 -->
<g id="Node000010" class="node">
<title>Node10</title>
<g id="a_Node000010"><a xlink:href="../../da/db2/class_g_e_u_1_1_shader_program.html" target="_top" xlink:title=" ">
<polygon fill="white" stroke="#666666" points="652.25,-287.85 541.75,-287.85 541.75,-267.85 652.25,-267.85 652.25,-287.85"/>
<text text-anchor="middle" x="597" y="-274.35" font-family="Helvetica,sans-Serif" font-size="10.00">GEU::ShaderProgram</text>
</a>
</g>
</g>
<!-- Node3&#45;&gt;Node10 -->
<g id="edge12_Node000010_Node000003" class="edge">
<title>Node3&#45;&gt;Node10</title>
<g id="a_edge12_Node000010_Node000003"><a xlink:title=" ">
<path fill="none" stroke="#9a32cd" stroke-dasharray="5,2" d="M169.53,-281.23C184.08,-246.02 219.13,-175.32 275.25,-146.85 393.54,-86.86 546.02,-227.4 586.03,-267.53"/>
<polygon fill="#9a32cd" stroke="#9a32cd" points="166.37,-279.71 165.93,-290.3 172.87,-282.29 166.37,-279.71"/>
</a>
</g>
<text text-anchor="middle" x="334.25" y="-197.35" font-family="Helvetica,sans-Serif" font-size="10.00" fill="grey"> MODULE_FILE_CHAR_1</text>
<text text-anchor="middle" x="334.25" y="-185.35" font-family="Helvetica,sans-Serif" font-size="10.00" fill="grey">MODULE_FILE_CHAR_2</text>
<text text-anchor="middle" x="334.25" y="-173.35" font-family="Helvetica,sans-Serif" font-size="10.00" fill="grey">MODULE_HEADER</text>
<text text-anchor="middle" x="334.25" y="-161.35" font-family="Helvetica,sans-Serif" font-size="10.00" fill="grey">_logString</text>
<text text-anchor="middle" x="334.25" y="-149.35" font-family="Helvetica,sans-Serif" font-size="10.00" fill="grey">shaderPath</text>
</g>
<!-- Node11 -->
<g id="Node000011" class="node">
<title>Node11</title>
<g id="a_Node000011"><a xlink:title=" ">
<polygon fill="white" stroke="#666666" points="385.38,-347.85 283.12,-347.85 283.12,-303.85 385.38,-303.85 385.38,-347.85"/>
<text text-anchor="start" x="291.12" y="-334.35" font-family="Helvetica,sans-Serif" font-size="10.00">std::unordered_map</text>
<text text-anchor="start" x="291.12" y="-322.35" font-family="Helvetica,sans-Serif" font-size="10.00">&lt; std::string, std::</text>
<text text-anchor="middle" x="334.25" y="-310.35" font-family="Helvetica,sans-Serif" font-size="10.00">string &gt;</text>
</a>
</g>
</g>
<!-- Node3&#45;&gt;Node11 -->
<g id="edge14_Node000011_Node000003" class="edge">
<title>Node3&#45;&gt;Node11</title>
<g id="a_edge14_Node000011_Node000003"><a xlink:title=" ">
<path fill="none" stroke="#9a32cd" stroke-dasharray="5,2" d="M202.09,-307.5C226.21,-310.87 257.07,-315.19 282.8,-318.79"/>
<polygon fill="#9a32cd" stroke="#9a32cd" points="202.73,-304.05 192.34,-306.13 201.76,-310.99 202.73,-304.05"/>
</a>
</g>
<text text-anchor="middle" x="232.88" y="-329.35" font-family="Helvetica,sans-Serif" font-size="10.00" fill="grey"> elements</text>
<text text-anchor="middle" x="232.88" y="-317.35" font-family="Helvetica,sans-Serif" font-size="10.00" fill="grey">keys</text>
</g>
<!-- Node13 -->
<g id="Node000013" class="node">
<title>Node13</title>
<g id="a_Node000013"><a xlink:title=" ">
<polygon fill="white" stroke="#666666" points="387.62,-247.85 280.88,-247.85 280.88,-215.85 387.62,-215.85 387.62,-247.85"/>
<text text-anchor="start" x="288.88" y="-234.35" font-family="Helvetica,sans-Serif" font-size="10.00">std::unordered_map</text>
<text text-anchor="middle" x="334.25" y="-222.35" font-family="Helvetica,sans-Serif" font-size="10.00">&lt; std::string, GLint &gt;</text>
</a>
</g>
</g>
<!-- Node3&#45;&gt;Node13 -->
<g id="edge17_Node000013_Node000003" class="edge">
<title>Node3&#45;&gt;Node13</title>
<g id="a_edge17_Node000013_Node000003"><a xlink:title=" ">
<path fill="none" stroke="#9a32cd" stroke-dasharray="5,2" d="M197.9,-287.1C225.75,-275.73 264.23,-260.02 293.04,-248.26"/>
<polygon fill="#9a32cd" stroke="#9a32cd" points="196.76,-283.78 188.83,-290.8 199.41,-290.26 196.76,-283.78"/>
</a>
</g>
<text text-anchor="middle" x="232.88" y="-284.35" font-family="Helvetica,sans-Serif" font-size="10.00" fill="grey"> keys</text>
</g>
<!-- Node14 -->
<g id="Node000014" class="node">
<title>Node14</title>
<g id="a_Node000014"><a xlink:href="../../dc/d36/class_g_e_u_1_1_texture.html" target="_top" xlink:title=" ">
<polygon fill="white" stroke="#666666" points="634.62,-95.85 559.38,-95.85 559.38,-75.85 634.62,-75.85 634.62,-95.85"/>
<text text-anchor="middle" x="597" y="-82.35" font-family="Helvetica,sans-Serif" font-size="10.00">GEU::Texture</text>
</a>
</g>
</g>
<!-- Node3&#45;&gt;Node14 -->
<g id="edge19_Node000014_Node000003" class="edge">
<title>Node3&#45;&gt;Node14</title>
<g id="a_edge19_Node000014_Node000003"><a xlink:title=" ">
<path fill="none" stroke="#9a32cd" stroke-dasharray="5,2" d="M161.45,-279.95C161.9,-238.45 167.83,-146.95 208.5,-84.85 228.52,-54.28 240.47,-48.06 275.25,-36.85 383.29,-2.04 519.97,-52.39 573.27,-75.4"/>
<polygon fill="#9a32cd" stroke="#9a32cd" points="157.95,-279.84 161.46,-289.84 164.95,-279.84 157.95,-279.84"/>
</a>
</g>
<text text-anchor="middle" x="334.25" y="-51.35" font-family="Helvetica,sans-Serif" font-size="10.00" fill="grey"> TEXTURE_LAYER_IDS</text>
<text text-anchor="middle" x="334.25" y="-39.35" font-family="Helvetica,sans-Serif" font-size="10.00" fill="grey">_filename</text>
</g>
<!-- Node15 -->
<g id="Node000015" class="node">
<title>Node15</title>
<g id="a_Node000015"><a xlink:title=" ">
<polygon fill="white" stroke="#666666" points="393.25,-101.85 275.25,-101.85 275.25,-69.85 393.25,-69.85 393.25,-101.85"/>
<text text-anchor="start" x="283.25" y="-88.35" font-family="Helvetica,sans-Serif" font-size="10.00">std::unordered_map</text>
<text text-anchor="middle" x="334.25" y="-76.35" font-family="Helvetica,sans-Serif" font-size="10.00">&lt; uint16_t, std::string &gt;</text>
</a>
</g>
</g>
<!-- Node3&#45;&gt;Node15 -->
<g id="edge21_Node000015_Node000003" class="edge">
<title>Node3&#45;&gt;Node15</title>
<g id="a_edge21_Node000015_Node000003"><a xlink:title=" ">
<path fill="none" stroke="#9a32cd" stroke-dasharray="5,2" d="M164.14,-280.56C169.58,-236.02 184.31,-135.19 208.5,-111.85 226.01,-94.95 251.51,-87.78 274.89,-85.09"/>
<polygon fill="#9a32cd" stroke="#9a32cd" points="160.69,-279.91 163,-290.25 167.65,-280.72 160.69,-279.91"/>
</a>
</g>
<text text-anchor="middle" x="232.88" y="-114.35" font-family="Helvetica,sans-Serif" font-size="10.00" fill="grey"> elements</text>
</g>
<!-- Node16 -->
<g id="Node000016" class="node">
<title>Node16</title>
<g id="a_Node000016"><a xlink:title=" ">
<polygon fill="white" stroke="#666666" points="792.75,-92.85 670.25,-92.85 670.25,-72.85 792.75,-72.85 792.75,-92.85"/>
<text text-anchor="middle" x="731.5" y="-79.35" font-family="Helvetica,sans-Serif" font-size="10.00">std::vector&lt; std::string &gt;</text>
</a>
</g>
</g>
<!-- Node3&#45;&gt;Node16 -->
<g id="edge23_Node000016_Node000003" class="edge">
<title>Node3&#45;&gt;Node16</title>
<g id="a_edge23_Node000016_Node000003"><a xlink:title=" ">
<path fill="none" stroke="#9a32cd" stroke-dasharray="5,2" d="M163.06,-280.03C166.8,-224.1 179.23,-77.37 208.5,-39.85 228.51,-14.21 243.45,-16.67 275.25,-9.85 438.05,25.05 636.83,-44.96 705.66,-72.43"/>
<polygon fill="#9a32cd" stroke="#9a32cd" points="159.57,-279.64 162.43,-289.84 166.56,-280.09 159.57,-279.64"/>
</a>
</g>
<text text-anchor="middle" x="334.25" y="-12.35" font-family="Helvetica,sans-Serif" font-size="10.00" fill="grey"> elements</text>
</g>
<!-- Node4 -->
<g id="Node000004" class="node">
<title>Node4</title>
<g id="a_Node000004"><a xlink:title=" ">
<polygon fill="white" stroke="#666666" points="94,-317.85 0,-317.85 0,-285.85 94,-285.85 94,-317.85"/>
<text text-anchor="start" x="8" y="-304.35" font-family="Helvetica,sans-Serif" font-size="10.00">std::basic_string&lt;</text>
<text text-anchor="middle" x="47" y="-292.35" font-family="Helvetica,sans-Serif" font-size="10.00"> Char &gt;</text>
</a>
</g>
</g>
<!-- Node4&#45;&gt;Node3 -->
<g id="edge3_Node000003_Node000004" class="edge">
<title>Node4&#45;&gt;Node3</title>
<g id="a_edge3_Node000003_Node000004"><a xlink:title=" ">
<path fill="none" stroke="#63b8ff" d="M105.71,-301.85C114.32,-301.85 122.87,-301.85 130.55,-301.85"/>
<polygon fill="#63b8ff" stroke="#63b8ff" points="105.93,-298.35 95.93,-301.85 105.93,-305.35 105.93,-298.35"/>
</a>
</g>
</g>
<!-- Node5&#45;&gt;Node1 -->
<g id="edge4_Node000001_Node000005" class="edge">
<title>Node5&#45;&gt;Node1</title>
<g id="a_edge4_Node000001_Node000005"><a xlink:title=" ">
<path fill="none" stroke="#9a32cd" stroke-dasharray="5,2" d="M1690.73,-462.95C1707.28,-475.5 1730.94,-492.45 1753.25,-504.85 1801.67,-531.77 1861.87,-555.49 1897.02,-568.44"/>
<polygon fill="#9a32cd" stroke="#9a32cd" points="1693.13,-460.38 1683.07,-457.06 1688.86,-465.93 1693.13,-460.38"/>
</a>
</g>
<text text-anchor="middle" x="1798.62" y="-549.35" font-family="Helvetica,sans-Serif" font-size="10.00" fill="grey"> _pickingTargetCloud</text>
</g>
<!-- Node25 -->
<g id="Node000025" class="node">
<title>Node25</title>
<g id="a_Node000025"><a xlink:href="../../dd/dcf/struct_g_e_u_1_1_point_cloud_1_1_meshlet.html" target="_top" xlink:title=" ">
<polygon fill="white" stroke="#666666" points="1992.75,-676.85 1862,-676.85 1862,-656.85 1992.75,-656.85 1992.75,-676.85"/>
<text text-anchor="middle" x="1927.38" y="-663.35" font-family="Helvetica,sans-Serif" font-size="10.00">GEU::PointCloud::Meshlet</text>
</a>
</g>
</g>
<!-- Node5&#45;&gt;Node25 -->
<g id="edge35_Node000025_Node000005" class="edge">
<title>Node5&#45;&gt;Node25</title>
<g id="a_edge35_Node000025_Node000005"><a xlink:title=" ">
<path fill="none" stroke="#9a32cd" stroke-dasharray="5,2" d="M1684.34,-465.11C1698.71,-483.75 1720.17,-513.16 1735.25,-540.85 1745.35,-559.41 1738.72,-569.51 1753.25,-584.85 1789.05,-622.64 1845.78,-644.87 1884.47,-656.44"/>
<polygon fill="#9a32cd" stroke="#9a32cd" points="1687.2,-463.1 1678.29,-457.37 1681.69,-467.41 1687.2,-463.1"/>
</a>
</g>
<text text-anchor="middle" x="1798.62" y="-642.35" font-family="Helvetica,sans-Serif" font-size="10.00" fill="grey"> parent</text>
</g>
<!-- Node34 -->
<g id="Node000034" class="node">
<title>Node34</title>
<g id="a_Node000034"><a xlink:title=" ">
<polygon fill="white" stroke="#666666" points="1982.62,-409.85 1872.12,-409.85 1872.12,-377.85 1982.62,-377.85 1982.62,-409.85"/>
<text text-anchor="start" x="1880.12" y="-396.35" font-family="Helvetica,sans-Serif" font-size="10.00">std::unique_ptr&lt; GEU</text>
<text text-anchor="middle" x="1927.38" y="-384.35" font-family="Helvetica,sans-Serif" font-size="10.00">::PointCloud &gt;</text>
</a>
</g>
</g>
<!-- Node5&#45;&gt;Node34 -->
<g id="edge45_Node000034_Node000005" class="edge">
<title>Node5&#45;&gt;Node34</title>
<g id="a_edge45_Node000034_Node000005"><a xlink:title=" ">
<path fill="none" stroke="#9a32cd" stroke-dasharray="5,2" d="M1709.35,-432.05C1723.15,-427.69 1738.77,-423.16 1753.25,-419.85 1792.51,-410.9 1837.51,-404.25 1871.79,-399.92"/>
<polygon fill="#9a32cd" stroke="#9a32cd" points="1708.61,-428.61 1700.17,-435.02 1710.76,-435.27 1708.61,-428.61"/>
</a>
</g>
<text text-anchor="middle" x="1798.62" y="-422.35" font-family="Helvetica,sans-Serif" font-size="10.00" fill="grey"> ptr</text>
</g>
<!-- Node6&#45;&gt;Node5 -->
<g id="edge5_Node000005_Node000006" class="edge">
<title>Node6&#45;&gt;Node5</title>
<g id="a_edge5_Node000005_Node000006"><a xlink:title=" ">
<path fill="none" stroke="#63b8ff" d="M1423.75,-415.29C1466.33,-419.92 1528.54,-426.9 1582.75,-433.85 1595.65,-435.51 1609.63,-437.44 1622.43,-439.27"/>
<polygon fill="#63b8ff" stroke="#63b8ff" points="1424.38,-411.84 1414.06,-414.24 1423.63,-418.8 1424.38,-411.84"/>
</a>
</g>
</g>
<!-- Node7 -->
<g id="Node000007" class="node">
<title>Node7</title>
<g id="a_Node000007"><a xlink:href="../../dc/d47/class_a_a_b_b.html" target="_top" xlink:title=" ">
<polygon fill="white" stroke="#666666" points="1129.25,-675.85 1086.25,-675.85 1086.25,-655.85 1129.25,-655.85 1129.25,-675.85"/>
<text text-anchor="middle" x="1107.75" y="-662.35" font-family="Helvetica,sans-Serif" font-size="10.00">AABB</text>
</a>
</g>
</g>
<!-- Node7&#45;&gt;Node6 -->
<g id="edge7_Node000006_Node000007" class="edge">
<title>Node7&#45;&gt;Node6</title>
<g id="a_edge7_Node000006_Node000007"><a xlink:title=" ">
<path fill="none" stroke="#9a32cd" stroke-dasharray="5,2" d="M1138.94,-650.1C1180.03,-628.07 1250.31,-588.03 1266.5,-563.85 1290.9,-527.42 1260.29,-503.41 1284.5,-466.85 1298.95,-445.02 1324.93,-429.55 1344.59,-420.29"/>
<polygon fill="#9a32cd" stroke="#9a32cd" points="1137.45,-646.93 1130.27,-654.72 1140.74,-653.11 1137.45,-646.93"/>
</a>
</g>
<text text-anchor="middle" x="1224.88" y="-627.35" font-family="Helvetica,sans-Serif" font-size="10.00" fill="grey"> _aabb</text>
</g>
<!-- Node7&#45;&gt;Node25 -->
<g id="edge34_Node000025_Node000007" class="edge">
<title>Node7&#45;&gt;Node25</title>
<g id="a_edge34_Node000025_Node000007"><a xlink:title=" ">
<path fill="none" stroke="#9a32cd" stroke-dasharray="5,2" d="M1139.96,-679.61C1174.53,-694.11 1232.3,-716.17 1284.5,-725.85 1481.54,-762.41 1536.66,-764.74 1735.25,-737.85 1784.94,-731.12 1797.17,-725.77 1844,-707.85 1866.83,-699.12 1891.79,-686.18 1908.19,-677.18"/>
<polygon fill="#9a32cd" stroke="#9a32cd" points="1141.55,-676.49 1130.98,-675.79 1138.81,-682.93 1141.55,-676.49"/>
</a>
</g>
<text text-anchor="middle" x="1529.75" y="-758.35" font-family="Helvetica,sans-Serif" font-size="10.00" fill="grey"> aabb</text>
</g>
<!-- Node36 -->
<g id="Node000036" class="node">
<title>Node36</title>
<g id="a_Node000036"><a xlink:title=" ">
<polygon fill="white" stroke="#666666" points="1582.75,-668.85 1476.75,-668.85 1476.75,-648.85 1582.75,-648.85 1582.75,-668.85"/>
<text text-anchor="middle" x="1529.75" y="-655.35" font-family="Helvetica,sans-Serif" font-size="10.00">std::vector&lt; AABB &gt;</text>
</a>
</g>
</g>
<!-- Node7&#45;&gt;Node36 -->
<g id="edge48_Node000036_Node000007" class="edge">
<title>Node7&#45;&gt;Node36</title>
<g id="a_edge48_Node000036_Node000007"><a xlink:title=" ">
<path fill="none" stroke="#9a32cd" stroke-dasharray="5,2" d="M1141.05,-665.31C1213.29,-664.11 1388.48,-661.19 1476.48,-659.72"/>
<polygon fill="#9a32cd" stroke="#9a32cd" points="1141.03,-661.81 1131.09,-665.48 1141.15,-668.81 1141.03,-661.81"/>
</a>
</g>
<text text-anchor="middle" x="1224.88" y="-666.35" font-family="Helvetica,sans-Serif" font-size="10.00" fill="grey"> elements</text>
</g>
<!-- Node8&#45;&gt;Node6 -->
<g id="edge8_Node000006_Node000008" class="edge">
<title>Node8&#45;&gt;Node6</title>
<g id="a_edge8_Node000006_Node000008"><a xlink:title=" ">
<path fill="none" stroke="#9a32cd" stroke-dasharray="5,2" d="M1158.39,-375.15C1189.61,-376.58 1230.64,-379.57 1266.5,-385.85 1274.68,-387.28 1276.44,-388.85 1284.5,-390.85 1299.51,-394.59 1316.08,-398.33 1330.64,-401.5"/>
<polygon fill="#9a32cd" stroke="#9a32cd" points="1158.59,-371.65 1148.45,-374.74 1158.3,-378.65 1158.59,-371.65"/>
</a>
</g>
<text text-anchor="middle" x="1224.88" y="-388.35" font-family="Helvetica,sans-Serif" font-size="10.00" fill="grey"> _material</text>
</g>
<!-- Node9 -->
<g id="Node000009" class="node">
<title>Node9</title>
<g id="a_Node000009"><a xlink:href="../../d0/def/class_g_e_u_1_1_rendering_shader.html" target="_top" xlink:title=" ">
<polygon fill="white" stroke="#666666" points="928,-312.85 810.75,-312.85 810.75,-292.85 928,-292.85 928,-312.85"/>
<text text-anchor="middle" x="869.38" y="-299.35" font-family="Helvetica,sans-Serif" font-size="10.00">GEU::RenderingShader</text>
</a>
</g>
</g>
<!-- Node9&#45;&gt;Node8 -->
<g id="edge10_Node000008_Node000009" class="edge">
<title>Node9&#45;&gt;Node8</title>
<g id="a_edge10_Node000008_Node000009"><a xlink:title=" ">
<path fill="none" stroke="#9a32cd" stroke-dasharray="5,2" d="M923.15,-316.1C954.99,-324.44 996.22,-335.87 1032.25,-347.85 1040.4,-350.56 1042.18,-351.93 1050.25,-354.85 1058.13,-357.71 1066.68,-360.66 1074.69,-363.36"/>
<polygon fill="#9a32cd" stroke="#9a32cd" points="924.33,-312.79 913.77,-313.66 922.57,-319.56 924.33,-312.79"/>
</a>
</g>
<text text-anchor="middle" x="989.12" y="-350.35" font-family="Helvetica,sans-Serif" font-size="10.00" fill="grey"> _associatedShader</text>
</g>
<!-- Node10&#45;&gt;Node9 -->
<g id="edge11_Node000009_Node000010" class="edge">
<title>Node10&#45;&gt;Node9</title>
<g id="a_edge11_Node000009_Node000010"><a xlink:title=" ">
<path fill="none" stroke="#63b8ff" d="M664.08,-283.96C708.87,-288.1 767.51,-293.53 810.47,-297.5"/>
<polygon fill="#63b8ff" stroke="#63b8ff" points="664.5,-280.49 654.22,-283.05 663.86,-287.46 664.5,-280.49"/>
</a>
</g>
</g>
<!-- Node11&#45;&gt;Node10 -->
<g id="edge13_Node000010_Node000011" class="edge">
<title>Node11&#45;&gt;Node10</title>
<g id="a_edge13_Node000010_Node000011"><a xlink:title=" ">
<path fill="none" stroke="#9a32cd" stroke-dasharray="5,2" d="M396.86,-316.19C433.75,-310.2 481.53,-302.11 523.75,-293.85 532.45,-292.15 541.71,-290.21 550.59,-288.27"/>
<polygon fill="#9a32cd" stroke="#9a32cd" points="396.59,-312.69 387.27,-317.73 397.7,-319.6 396.59,-312.69"/>
</a>
</g>
<text text-anchor="middle" x="467.5" y="-316.35" font-family="Helvetica,sans-Serif" font-size="10.00" fill="grey"> _moduleCode</text>
</g>
<!-- Node12 -->
<g id="Node000012" class="node">
<title>Node12</title>
<g id="a_Node000012"><a xlink:title=" ">
<polygon fill="white" stroke="#666666" points="388,-285.85 280.5,-285.85 280.5,-265.85 388,-265.85 388,-285.85"/>
<text text-anchor="middle" x="334.25" y="-272.35" font-family="Helvetica,sans-Serif" font-size="10.00">std::vector&lt; GLuint &gt;</text>
</a>
</g>
</g>
<!-- Node12&#45;&gt;Node10 -->
<g id="edge15_Node000010_Node000012" class="edge">
<title>Node12&#45;&gt;Node10</title>
<g id="a_edge15_Node000010_Node000012"><a xlink:title=" ">
<path fill="none" stroke="#9a32cd" stroke-dasharray="5,2" d="M399.69,-276.35C443.31,-276.68 500.32,-277.12 541.65,-277.44"/>
<polygon fill="#9a32cd" stroke="#9a32cd" points="399.87,-272.85 389.84,-276.27 399.82,-279.85 399.87,-272.85"/>
</a>
</g>
<text text-anchor="middle" x="467.5" y="-280.35" font-family="Helvetica,sans-Serif" font-size="10.00" fill="grey"> _activeSubroutineUniform</text>
</g>
<!-- Node13&#45;&gt;Node10 -->
<g id="edge16_Node000010_Node000013" class="edge">
<title>Node13&#45;&gt;Node10</title>
<g id="a_edge16_Node000010_Node000013"><a xlink:title=" ">
<path fill="none" stroke="#9a32cd" stroke-dasharray="5,2" d="M399.02,-232.99C435.89,-234.79 482.93,-239.04 523.75,-248.85 541.49,-253.12 560.61,-260.95 574.73,-267.4"/>
<polygon fill="#9a32cd" stroke="#9a32cd" points="399.57,-229.51 389.43,-232.57 399.27,-236.51 399.57,-229.51"/>
</a>
</g>
<text text-anchor="middle" x="467.5" y="-263.35" font-family="Helvetica,sans-Serif" font-size="10.00" fill="grey"> subroutineLocation</text>
<text text-anchor="middle" x="467.5" y="-251.35" font-family="Helvetica,sans-Serif" font-size="10.00" fill="grey">uniformLocation</text>
</g>
<!-- Node14&#45;&gt;Node8 -->
<g id="edge18_Node000008_Node000014" class="edge">
<title>Node14&#45;&gt;Node8</title>
<g id="a_edge18_Node000008_Node000014"><a xlink:title=" ">
<path fill="none" stroke="#9a32cd" stroke-dasharray="5,2" d="M642.82,-99.92C728.31,-128.72 916.46,-201.81 1032.25,-319.85 1044.5,-332.34 1036.99,-343.45 1050.25,-354.85 1055.59,-359.44 1062.07,-362.93 1068.73,-365.58"/>
<polygon fill="#9a32cd" stroke="#9a32cd" points="643.97,-96.61 633.37,-96.78 641.76,-103.26 643.97,-96.61"/>
</a>
</g>
<text text-anchor="middle" x="869.38" y="-234.35" font-family="Helvetica,sans-Serif" font-size="10.00" fill="grey"> _texture</text>
</g>
<!-- Node15&#45;&gt;Node14 -->
<g id="edge20_Node000014_Node000015" class="edge">
<title>Node15&#45;&gt;Node14</title>
<g id="a_edge20_Node000014_Node000015"><a xlink:title=" ">
<path fill="none" stroke="#9a32cd" stroke-dasharray="5,2" d="M404.72,-85.85C454.25,-85.85 518.89,-85.85 558.91,-85.85"/>
<polygon fill="#9a32cd" stroke="#9a32cd" points="404.96,-82.35 394.96,-85.85 404.96,-89.35 404.96,-82.35"/>
</a>
</g>
<text text-anchor="middle" x="467.5" y="-88.35" font-family="Helvetica,sans-Serif" font-size="10.00" fill="grey"> SHADER_VARIABLE</text>
</g>
<!-- Node16&#45;&gt;Node8 -->
<g id="edge22_Node000008_Node000016" class="edge">
<title>Node16&#45;&gt;Node8</title>
<g id="a_edge22_Node000008_Node000016"><a xlink:title=" ">
<path fill="none" stroke="#9a32cd" stroke-dasharray="5,2" d="M804.32,-79.62C873.84,-80.76 976.63,-94.58 1032.25,-159.85 1060.47,-192.98 1023.25,-320.72 1050.25,-354.85 1054.94,-360.78 1061.54,-364.87 1068.6,-367.69"/>
<polygon fill="#9a32cd" stroke="#9a32cd" points="804.58,-76.12 794.55,-79.55 804.53,-83.12 804.58,-76.12"/>
</a>
</g>
<text text-anchor="middle" x="869.38" y="-98.35" font-family="Helvetica,sans-Serif" font-size="10.00" fill="grey"> _enabledSubroutines</text>
</g>
<!-- Node17 -->
<g id="Node000017" class="node">
<title>Node17</title>
<g id="a_Node000017"><a xlink:title=" ">
<polygon fill="white" stroke="#666666" points="1411.88,-381.85 1331.38,-381.85 1331.38,-361.85 1411.88,-361.85 1411.88,-381.85"/>
<text text-anchor="middle" x="1371.62" y="-368.35" font-family="Helvetica,sans-Serif" font-size="10.00">std::array&lt; T &gt;</text>
</a>
</g>
</g>
<!-- Node17&#45;&gt;Node5 -->
<g id="edge24_Node000005_Node000017" class="edge">
<title>Node17&#45;&gt;Node5</title>
<g id="a_edge24_Node000005_Node000017"><a xlink:title=" ">
<path fill="none" stroke="#9a32cd" stroke-dasharray="5,2" d="M1423.45,-376.02C1466.59,-380.51 1529.74,-389.35 1582.75,-405.85 1606.56,-413.26 1632.21,-426.23 1648.87,-435.39"/>
<polygon fill="#9a32cd" stroke="#9a32cd" points="1423.92,-372.55 1413.62,-375.04 1423.22,-379.51 1423.92,-372.55"/>
</a>
</g>
<text text-anchor="middle" x="1529.75" y="-408.35" font-family="Helvetica,sans-Serif" font-size="10.00" fill="grey"> _viewModes</text>
</g>
<!-- Node18 -->
<g id="Node000018" class="node">
<title>Node18</title>
<g id="a_Node000018"><a xlink:title=" ">
<polygon fill="white" stroke="#666666" points="1122.15,-345.85 1093.35,-345.85 1093.35,-325.85 1122.15,-325.85 1122.15,-345.85"/>
<text text-anchor="middle" x="1107.75" y="-332.35" font-family="Helvetica,sans-Serif" font-size="10.00">T</text>
</a>
</g>
</g>
<!-- Node18&#45;&gt;Node17 -->
<g id="edge25_Node000017_Node000018" class="edge">
<title>Node18&#45;&gt;Node17</title>
<g id="a_edge25_Node000017_Node000018"><a xlink:title=" ">
<path fill="none" stroke="#9a32cd" stroke-dasharray="5,2" d="M1133.61,-339.27C1179.14,-345.53 1276.26,-358.88 1330.99,-366.4"/>
<polygon fill="#9a32cd" stroke="#9a32cd" points="1134.34,-335.84 1123.96,-337.94 1133.39,-342.77 1134.34,-335.84"/>
</a>
</g>
<text text-anchor="middle" x="1224.88" y="-360.35" font-family="Helvetica,sans-Serif" font-size="10.00" fill="grey"> elements</text>
</g>
<!-- Node19 -->
<g id="Node000019" class="node">
<title>Node19</title>
<g id="a_Node000019"><a xlink:href="../../d2/d21/struct_g_e_u_1_1_g_p_u_resources.html" target="_top" xlink:title=" ">
<polygon fill="white" stroke="#666666" points="1426.88,-343.85 1316.38,-343.85 1316.38,-323.85 1426.88,-323.85 1426.88,-343.85"/>
<text text-anchor="middle" x="1371.62" y="-330.35" font-family="Helvetica,sans-Serif" font-size="10.00">GEU::GPUResources</text>
</a>
</g>
</g>
<!-- Node19&#45;&gt;Node5 -->
<g id="edge27_Node000005_Node000019" class="edge">
<title>Node19&#45;&gt;Node5</title>
<g id="a_edge27_Node000005_Node000019"><a xlink:title=" ">
<path fill="none" stroke="#9a32cd" stroke-dasharray="5,2" d="M1438.48,-334.77C1481.45,-337.66 1537.72,-345.9 1582.75,-367.85 1616.25,-384.19 1645.77,-418.28 1659.24,-435.47"/>
<polygon fill="#9a32cd" stroke="#9a32cd" points="1438.71,-331.28 1428.53,-334.19 1438.31,-338.26 1438.71,-331.28"/>
</a>
</g>
<text text-anchor="middle" x="1529.75" y="-370.35" font-family="Helvetica,sans-Serif" font-size="10.00" fill="grey"> _GPUResources</text>
</g>
<!-- Node20 -->
<g id="Node000020" class="node">
<title>Node20</title>
<g id="a_Node000020"><a xlink:title=" ">
<polygon fill="white" stroke="#666666" points="1160,-307.85 1055.5,-307.85 1055.5,-263.85 1160,-263.85 1160,-307.85"/>
<text text-anchor="start" x="1063.5" y="-294.35" font-family="Helvetica,sans-Serif" font-size="10.00">std::array&lt; size_t,</text>
<text text-anchor="start" x="1063.5" y="-282.35" font-family="Helvetica,sans-Serif" font-size="10.00">(uint8_t) SSBOSlots</text>
<text text-anchor="middle" x="1107.75" y="-270.35" font-family="Helvetica,sans-Serif" font-size="10.00">::Total &gt;</text>
</a>
</g>
</g>
<!-- Node20&#45;&gt;Node19 -->
<g id="edge28_Node000019_Node000020" class="edge">
<title>Node20&#45;&gt;Node19</title>
<g id="a_edge28_Node000019_Node000020"><a xlink:title=" ">
<path fill="none" stroke="#9a32cd" stroke-dasharray="5,2" d="M1171.67,-297.38C1215.79,-305.47 1274.19,-316.18 1316.29,-323.89"/>
<polygon fill="#9a32cd" stroke="#9a32cd" points="1172.44,-293.97 1161.98,-295.61 1171.18,-300.85 1172.44,-293.97"/>
</a>
</g>
<text text-anchor="middle" x="1224.88" y="-317.35" font-family="Helvetica,sans-Serif" font-size="10.00" fill="grey"> _memoryReserved</text>
</g>
<!-- Node21 -->
<g id="Node000021" class="node">
<title>Node21</title>
<g id="a_Node000021"><a xlink:title=" ">
<polygon fill="white" stroke="#666666" points="1160,-245.85 1055.5,-245.85 1055.5,-201.85 1160,-201.85 1160,-245.85"/>
<text text-anchor="start" x="1063.5" y="-232.35" font-family="Helvetica,sans-Serif" font-size="10.00">std::array&lt; GLuint,</text>
<text text-anchor="start" x="1063.5" y="-220.35" font-family="Helvetica,sans-Serif" font-size="10.00">(uint8_t) SSBOSlots</text>
<text text-anchor="middle" x="1107.75" y="-208.35" font-family="Helvetica,sans-Serif" font-size="10.00">::Total &gt;</text>
</a>
</g>
</g>
<!-- Node21&#45;&gt;Node19 -->
<g id="edge29_Node000019_Node000021" class="edge">
<title>Node21&#45;&gt;Node19</title>
<g id="a_edge29_Node000019_Node000021"><a xlink:title=" ">
<path fill="none" stroke="#9a32cd" stroke-dasharray="5,2" d="M1171.25,-237.72C1202.46,-247.04 1239.27,-261.93 1266.5,-284.85 1278.4,-294.87 1271.88,-305.77 1284.5,-314.85 1293.82,-321.56 1305.07,-325.97 1316.32,-328.85"/>
<polygon fill="#9a32cd" stroke="#9a32cd" points="1172.5,-234.43 1161.92,-235.06 1170.58,-241.16 1172.5,-234.43"/>
</a>
</g>
<text text-anchor="middle" x="1224.88" y="-287.35" font-family="Helvetica,sans-Serif" font-size="10.00" fill="grey"> _ssboIds</text>
</g>
<!-- Node22 -->
<g id="Node000022" class="node">
<title>Node22</title>
<g id="a_Node000022"><a xlink:title=" ">
<polygon fill="white" stroke="#666666" points="1420.88,-305.85 1322.38,-305.85 1322.38,-285.85 1420.88,-285.85 1420.88,-305.85"/>
<text text-anchor="middle" x="1371.62" y="-292.35" font-family="Helvetica,sans-Serif" font-size="10.00">std::vector&lt; vec3 &gt;</text>
</a>
</g>
</g>
<!-- Node22&#45;&gt;Node5 -->
<g id="edge30_Node000005_Node000022" class="edge">
<title>Node22&#45;&gt;Node5</title>
<g id="a_edge30_Node000005_Node000022"><a xlink:title=" ">
<path fill="none" stroke="#9a32cd" stroke-dasharray="5,2" d="M1432.21,-286.35C1476.82,-282.33 1537.64,-283.69 1582.75,-310.85 1631.27,-340.07 1656.11,-409.06 1664.08,-435.39"/>
<polygon fill="#9a32cd" stroke="#9a32cd" points="1432.05,-282.85 1422.46,-287.35 1432.77,-289.81 1432.05,-282.85"/>
</a>
</g>
<text text-anchor="middle" x="1529.75" y="-325.35" font-family="Helvetica,sans-Serif" font-size="10.00" fill="grey"> _normals</text>
<text text-anchor="middle" x="1529.75" y="-313.35" font-family="Helvetica,sans-Serif" font-size="10.00" fill="grey">_position</text>
</g>
<!-- Node23 -->
<g id="Node000023" class="node">
<title>Node23</title>
<g id="a_Node000023"><a xlink:title=" ">
<polygon fill="white" stroke="#666666" points="1430.62,-267.85 1312.62,-267.85 1312.62,-247.85 1430.62,-247.85 1430.62,-267.85"/>
<text text-anchor="middle" x="1371.62" y="-254.35" font-family="Helvetica,sans-Serif" font-size="10.00">std::vector&lt; unsigned &gt;</text>
</a>
</g>
</g>
<!-- Node23&#45;&gt;Node5 -->
<g id="edge31_Node000005_Node000023" class="edge">
<title>Node23&#45;&gt;Node5</title>
<g id="a_edge31_Node000005_Node000023"><a xlink:title=" ">
<path fill="none" stroke="#9a32cd" stroke-dasharray="5,2" d="M1431.29,-245.75C1476.47,-239.79 1538.47,-239.24 1582.75,-268.85 1642.72,-308.96 1661.14,-404.02 1665.7,-435.52"/>
<polygon fill="#9a32cd" stroke="#9a32cd" points="1430.79,-242.29 1421.4,-247.2 1431.8,-249.22 1430.79,-242.29"/>
</a>
</g>
<text text-anchor="middle" x="1529.75" y="-271.35" font-family="Helvetica,sans-Serif" font-size="10.00" fill="grey"> _rgbColor</text>
</g>
<!-- Node24 -->
<g id="Node000024" class="node">
<title>Node24</title>
<g id="a_Node000024"><a xlink:title=" ">
<polygon fill="white" stroke="#666666" points="2215.75,-516.85 2071.5,-516.85 2071.5,-484.85 2215.75,-484.85 2215.75,-516.85"/>
<text text-anchor="start" x="2079.5" y="-503.35" font-family="Helvetica,sans-Serif" font-size="10.00">std::vector&lt; GEU::PointCloud</text>
<text text-anchor="middle" x="2143.62" y="-491.35" font-family="Helvetica,sans-Serif" font-size="10.00">::Meshlet &gt;</text>
</a>
</g>
</g>
<!-- Node24&#45;&gt;Node5 -->
<g id="edge32_Node000005_Node000024" class="edge">
<title>Node24&#45;&gt;Node5</title>
<g id="a_edge32_Node000005_Node000024"><a xlink:title=" ">
<path fill="none" stroke="#9a32cd" stroke-dasharray="5,2" d="M2059.78,-493.02C1980.86,-485.3 1858.79,-472.68 1753.25,-458.85 1740.34,-457.16 1726.35,-455.1 1713.54,-453.11"/>
<polygon fill="#9a32cd" stroke="#9a32cd" points="2059.3,-496.49 2069.59,-493.98 2059.98,-489.53 2059.3,-496.49"/>
</a>
</g>
<text text-anchor="middle" x="1927.38" y="-489.35" font-family="Helvetica,sans-Serif" font-size="10.00" fill="grey"> _meshlets</text>
</g>
<!-- Node25&#45;&gt;Node24 -->
<g id="edge33_Node000024_Node000025" class="edge">
<title>Node25&#45;&gt;Node24</title>
<g id="a_edge33_Node000024_Node000025"><a xlink:title=" ">
<path fill="none" stroke="#9a32cd" stroke-dasharray="5,2" d="M1950.84,-649.45C1992.48,-617.18 2081.11,-548.52 2121.62,-517.12"/>
<polygon fill="#9a32cd" stroke="#9a32cd" points="1948.74,-646.65 1942.97,-655.54 1953.02,-652.18 1948.74,-646.65"/>
</a>
</g>
<text text-anchor="middle" x="2032.12" y="-601.35" font-family="Helvetica,sans-Serif" font-size="10.00" fill="grey"> elements</text>
</g>
<!-- Node26 -->
<g id="Node000026" class="node">
<title>Node26</title>
<g id="a_Node000026"><a xlink:title=" ">
<polygon fill="white" stroke="#666666" points="1735.25,-728.85 1600.75,-728.85 1600.75,-684.85 1735.25,-684.85 1735.25,-728.85"/>
<text text-anchor="start" x="1608.75" y="-715.35" font-family="Helvetica,sans-Serif" font-size="10.00">std::array&lt; std::vector</text>
<text text-anchor="start" x="1608.75" y="-703.35" font-family="Helvetica,sans-Serif" font-size="10.00">&lt; dataState &gt;, NUM_DATA</text>
<text text-anchor="middle" x="1668" y="-691.35" font-family="Helvetica,sans-Serif" font-size="10.00">_SOURCES &gt;</text>
</a>
</g>
</g>
<!-- Node26&#45;&gt;Node25 -->
<g id="edge36_Node000025_Node000026" class="edge">
<title>Node26&#45;&gt;Node25</title>
<g id="a_edge36_Node000025_Node000026"><a xlink:title=" ">
<path fill="none" stroke="#9a32cd" stroke-dasharray="5,2" d="M1746.79,-694.76C1783.55,-689.05 1826.91,-682.31 1861.82,-676.89"/>
<polygon fill="#9a32cd" stroke="#9a32cd" points="1746.45,-691.27 1737.11,-696.27 1747.53,-698.19 1746.45,-691.27"/>
</a>
</g>
<text text-anchor="middle" x="1798.62" y="-694.35" font-family="Helvetica,sans-Serif" font-size="10.00" fill="grey"> fusionDataState</text>
</g>
<!-- Node27 -->
<g id="Node000027" class="node">
<title>Node27</title>
<g id="a_Node000027"><a xlink:title=" ">
<polygon fill="white" stroke="#666666" points="1432.12,-716.85 1311.12,-716.85 1311.12,-696.85 1432.12,-696.85 1432.12,-716.85"/>
<text text-anchor="middle" x="1371.62" y="-703.35" font-family="Helvetica,sans-Serif" font-size="10.00">std::vector&lt; dataState &gt;</text>
</a>
</g>
</g>
<!-- Node27&#45;&gt;Node26 -->
<g id="edge37_Node000026_Node000027" class="edge">
<title>Node27&#45;&gt;Node26</title>
<g id="a_edge37_Node000026_Node000027"><a xlink:title=" ">
<path fill="none" stroke="#9a32cd" stroke-dasharray="5,2" d="M1444.02,-706.85C1491.67,-706.85 1553.88,-706.85 1600.49,-706.85"/>
<polygon fill="#9a32cd" stroke="#9a32cd" points="1444.06,-703.35 1434.06,-706.85 1444.06,-710.35 1444.06,-703.35"/>
</a>
</g>
<text text-anchor="middle" x="1529.75" y="-709.35" font-family="Helvetica,sans-Serif" font-size="10.00" fill="grey"> elements</text>
</g>
<!-- Node28 -->
<g id="Node000028" class="node">
<title>Node28</title>
<g id="a_Node000028"><a xlink:title=" ">
<polygon fill="white" stroke="#666666" points="1444.5,-569.85 1298.75,-569.85 1298.75,-525.85 1444.5,-525.85 1444.5,-569.85"/>
<text text-anchor="start" x="1306.75" y="-556.35" font-family="Helvetica,sans-Serif" font-size="10.00">std::array&lt; std::vector</text>
<text text-anchor="start" x="1306.75" y="-544.35" font-family="Helvetica,sans-Serif" font-size="10.00">&lt; std::vector&lt; float &gt;</text>
<text text-anchor="middle" x="1371.62" y="-532.35" font-family="Helvetica,sans-Serif" font-size="10.00"> &gt;, NUM_DATA_SOURCES &gt;</text>
</a>
</g>
</g>
<!-- Node28&#45;&gt;Node5 -->
<g id="edge38_Node000005_Node000028" class="edge">
<title>Node28&#45;&gt;Node5</title>
<g id="a_edge38_Node000005_Node000028"><a xlink:title=" ">
<path fill="none" stroke="#9a32cd" stroke-dasharray="5,2" d="M1455.78,-531.85C1495.07,-522.94 1542.15,-510.29 1582.75,-493.85 1608.18,-483.55 1635.39,-466.91 1651.79,-456.18"/>
<polygon fill="#9a32cd" stroke="#9a32cd" points="1455.14,-528.4 1446.13,-533.99 1456.66,-535.24 1455.14,-528.4"/>
</a>
</g>
<text text-anchor="middle" x="1529.75" y="-528.35" font-family="Helvetica,sans-Serif" font-size="10.00" fill="grey"> _fusionData</text>
</g>
<!-- Node29 -->
<g id="Node000029" class="node">
<title>Node29</title>
<g id="a_Node000029"><a xlink:title=" ">
<polygon fill="white" stroke="#666666" points="1165.25,-563.85 1050.25,-563.85 1050.25,-531.85 1165.25,-531.85 1165.25,-563.85"/>
<text text-anchor="start" x="1058.25" y="-550.35" font-family="Helvetica,sans-Serif" font-size="10.00">std::vector&lt; std::vector</text>
<text text-anchor="middle" x="1107.75" y="-538.35" font-family="Helvetica,sans-Serif" font-size="10.00">&lt; float &gt; &gt;</text>
</a>
</g>
</g>
<!-- Node29&#45;&gt;Node28 -->
<g id="edge39_Node000028_Node000029" class="edge">
<title>Node29&#45;&gt;Node28</title>
<g id="a_edge39_Node000028_Node000029"><a xlink:title=" ">
<path fill="none" stroke="#9a32cd" stroke-dasharray="5,2" d="M1176.86,-547.85C1214.2,-547.85 1260.48,-547.85 1298.44,-547.85"/>
<polygon fill="#9a32cd" stroke="#9a32cd" points="1177.09,-544.35 1167.09,-547.85 1177.09,-551.35 1177.09,-544.35"/>
</a>
</g>
<text text-anchor="middle" x="1224.88" y="-550.35" font-family="Helvetica,sans-Serif" font-size="10.00" fill="grey"> elements</text>
</g>
<!-- Node30 -->
<g id="Node000030" class="node">
<title>Node30</title>
<g id="a_Node000030"><a xlink:title=" ">
<polygon fill="white" stroke="#666666" points="917.88,-557.85 820.88,-557.85 820.88,-537.85 917.88,-537.85 917.88,-557.85"/>
<text text-anchor="middle" x="869.38" y="-544.35" font-family="Helvetica,sans-Serif" font-size="10.00">std::vector&lt; float &gt;</text>
</a>
</g>
</g>
<!-- Node30&#45;&gt;Node29 -->
<g id="edge40_Node000029_Node000030" class="edge">
<title>Node30&#45;&gt;Node29</title>
<g id="a_edge40_Node000029_Node000030"><a xlink:title=" ">
<path fill="none" stroke="#9a32cd" stroke-dasharray="5,2" d="M929.29,-547.85C966.14,-547.85 1013.36,-547.85 1049.82,-547.85"/>
<polygon fill="#9a32cd" stroke="#9a32cd" points="929.72,-544.35 919.72,-547.85 929.72,-551.35 929.72,-544.35"/>
</a>
</g>
<text text-anchor="middle" x="989.12" y="-550.35" font-family="Helvetica,sans-Serif" font-size="10.00" fill="grey"> elements</text>
</g>
<!-- Node31 -->
<g id="Node000031" class="node">
<title>Node31</title>
<g id="a_Node000031"><a xlink:title=" ">
<polygon fill="white" stroke="#666666" points="1458.75,-507.85 1284.5,-507.85 1284.5,-475.85 1458.75,-475.85 1458.75,-507.85"/>
<text text-anchor="start" x="1292.5" y="-494.35" font-family="Helvetica,sans-Serif" font-size="10.00">std::array&lt; std::vector</text>
<text text-anchor="middle" x="1371.62" y="-482.35" font-family="Helvetica,sans-Serif" font-size="10.00">&lt; vec2 &gt;, NUM_DATA_SOURCES &gt;</text>
</a>
</g>
</g>
<!-- Node31&#45;&gt;Node5 -->
<g id="edge41_Node000005_Node000031" class="edge">
<title>Node31&#45;&gt;Node5</title>
<g id="a_edge41_Node000005_Node000031"><a xlink:title=" ">
<path fill="none" stroke="#9a32cd" stroke-dasharray="5,2" d="M1470.47,-478.83C1505.9,-473.87 1546.18,-467.93 1582.75,-461.85 1595.67,-459.7 1609.67,-457.14 1622.47,-454.7"/>
<polygon fill="#9a32cd" stroke="#9a32cd" points="1470.07,-475.35 1460.65,-480.2 1471.04,-482.29 1470.07,-475.35"/>
</a>
</g>
<text text-anchor="middle" x="1529.75" y="-480.35" font-family="Helvetica,sans-Serif" font-size="10.00" fill="grey"> _fusionDataMinMax</text>
</g>
<!-- Node32 -->
<g id="Node000032" class="node">
<title>Node32</title>
<g id="a_Node000032"><a xlink:title=" ">
<polygon fill="white" stroke="#666666" points="1157,-501.85 1058.5,-501.85 1058.5,-481.85 1157,-481.85 1157,-501.85"/>
<text text-anchor="middle" x="1107.75" y="-488.35" font-family="Helvetica,sans-Serif" font-size="10.00">std::vector&lt; vec2 &gt;</text>
</a>
</g>
</g>
<!-- Node32&#45;&gt;Node31 -->
<g id="edge42_Node000031_Node000032" class="edge">
<title>Node32&#45;&gt;Node31</title>
<g id="a_edge42_Node000031_Node000032"><a xlink:title=" ">
<path fill="none" stroke="#9a32cd" stroke-dasharray="5,2" d="M1168.61,-491.85C1202.79,-491.85 1246.24,-491.85 1284.08,-491.85"/>
<polygon fill="#9a32cd" stroke="#9a32cd" points="1168.91,-488.35 1158.91,-491.85 1168.91,-495.35 1168.91,-488.35"/>
</a>
</g>
<text text-anchor="middle" x="1224.88" y="-494.35" font-family="Helvetica,sans-Serif" font-size="10.00" fill="grey"> elements</text>
</g>
<!-- Node33 -->
<g id="Node000033" class="node">
<title>Node33</title>
<g id="a_Node000033"><a xlink:title=" ">
<polygon fill="white" stroke="#666666" points="2210.5,-454.85 2076.75,-454.85 2076.75,-422.85 2210.5,-422.85 2210.5,-454.85"/>
<text text-anchor="start" x="2084.75" y="-441.35" font-family="Helvetica,sans-Serif" font-size="10.00">std::vector&lt; std::unique</text>
<text text-anchor="middle" x="2143.62" y="-429.35" font-family="Helvetica,sans-Serif" font-size="10.00">_ptr&lt; GEU::PointCloud &gt; &gt;</text>
</a>
</g>
</g>
<!-- Node33&#45;&gt;Node5 -->
<g id="edge43_Node000005_Node000033" class="edge">
<title>Node33&#45;&gt;Node5</title>
<g id="a_edge43_Node000005_Node000033"><a xlink:title=" ">
<path fill="none" stroke="#9a32cd" stroke-dasharray="5,2" d="M2065.16,-440C1965.07,-441.48 1794.16,-444 1713.56,-445.19"/>
<polygon fill="#9a32cd" stroke="#9a32cd" points="2064.94,-443.5 2074.89,-439.85 2064.84,-436.5 2064.94,-443.5"/>
</a>
</g>
<text text-anchor="middle" x="1927.38" y="-446.35" font-family="Helvetica,sans-Serif" font-size="10.00" fill="grey"> _subClouds</text>
</g>
<!-- Node34&#45;&gt;Node33 -->
<g id="edge44_Node000033_Node000034" class="edge">
<title>Node34&#45;&gt;Node33</title>
<g id="a_edge44_Node000033_Node000034"><a xlink:title=" ">
<path fill="none" stroke="#9a32cd" stroke-dasharray="5,2" d="M1993.96,-407.41C2013.15,-411.4 2034.17,-415.78 2053.5,-419.85 2060.93,-421.42 2068.71,-423.06 2076.44,-424.7"/>
<polygon fill="#9a32cd" stroke="#9a32cd" points="1994.88,-404.03 1984.38,-405.42 1993.46,-410.88 1994.88,-404.03"/>
</a>
</g>
<text text-anchor="middle" x="2032.12" y="-422.35" font-family="Helvetica,sans-Serif" font-size="10.00" fill="grey"> elements</text>
</g>
<!-- Node35 -->
<g id="Node000035" class="node">
<title>Node35</title>
<g id="a_Node000035"><a xlink:title=" ">
<polygon fill="white" stroke="#666666" points="1712.75,-569.85 1623.25,-569.85 1623.25,-549.85 1712.75,-549.85 1712.75,-569.85"/>
<text text-anchor="middle" x="1668" y="-556.35" font-family="Helvetica,sans-Serif" font-size="10.00">std::vector&lt; int &gt;</text>
</a>
</g>
</g>
<!-- Node35&#45;&gt;Node1 -->
<g id="edge46_Node000001_Node000035" class="edge">
<title>Node35&#45;&gt;Node1</title>
<g id="a_edge46_Node000001_Node000035"><a xlink:title=" ">
<path fill="none" stroke="#9a32cd" stroke-dasharray="5,2" d="M1724.18,-561.71C1758.67,-563.11 1803.97,-565.4 1844,-568.85 1853.19,-569.64 1862.93,-570.67 1872.37,-571.75"/>
<polygon fill="#9a32cd" stroke="#9a32cd" points="1724.57,-558.22 1714.44,-561.33 1724.3,-565.22 1724.57,-558.22"/>
</a>
</g>
<text text-anchor="middle" x="1798.62" y="-571.35" font-family="Helvetica,sans-Serif" font-size="10.00" fill="grey"> _pickedIdx</text>
</g>
<!-- Node36&#45;&gt;Node1 -->
<g id="edge47_Node000001_Node000036" class="edge">
<title>Node36&#45;&gt;Node1</title>
<g id="a_edge47_Node000001_Node000036"><a xlink:title=" ">
<path fill="none" stroke="#9a32cd" stroke-dasharray="5,2" d="M1594.24,-659.52C1672.27,-659.59 1799.76,-657.07 1844,-640.85 1874.25,-629.77 1902.69,-603.62 1916.9,-589.07"/>
<polygon fill="#9a32cd" stroke="#9a32cd" points="1594.63,-656.02 1584.62,-659.49 1594.61,-663.02 1594.63,-656.02"/>
</a>
</g>
<text text-anchor="middle" x="1668" y="-661.35" font-family="Helvetica,sans-Serif" font-size="10.00" fill="grey"> _pickedAreas</text>
</g>
</g>
</svg>
