<?xml version="1.0" encoding="UTF-8" standalone="no"?>
<!DOCTYPE svg PUBLIC "-//W3C//DTD SVG 1.1//EN"
 "http://www.w3.org/Graphics/SVG/1.1/DTD/svg11.dtd">
<!-- Generated by graphviz version 10.0.1 (20240210.2158)
 -->
<!-- Title: C:/GitHub/GEU/GEU/Source/UI/InspectorWindow.h Pages: 1 -->
<svg width="626pt" height="108pt"
 viewBox="0.00 0.00 625.50 108.00" xmlns="http://www.w3.org/2000/svg" xmlns:xlink="http://www.w3.org/1999/xlink">
<g id="graph0" class="graph" transform="scale(1 1) rotate(0) translate(4 104)">
<title>C:/GitHub/GEU/GEU/Source/UI/InspectorWindow.h</title>
<!-- Node1 -->
<g id="Node000001" class="node">
<title>Node1</title>
<g id="a_Node000001"><a xlink:title=" ">
<polygon fill="#999999" stroke="#666666" points="378.5,-100 238,-100 238,-68 378.5,-68 378.5,-100"/>
<text text-anchor="start" x="246" y="-86.5" font-family="Helvetica,sans-Serif" font-size="10.00">C:/GitHub/GEU/GEU/Source</text>
<text text-anchor="middle" x="308.25" y="-74.5" font-family="Helvetica,sans-Serif" font-size="10.00">/UI/InspectorWindow.h</text>
</a>
</g>
</g>
<!-- Node2 -->
<g id="Node000002" class="node">
<title>Node2</title>
<g id="a_Node000002"><a xlink:href="../../d6/d01/a00356.html" target="_top" xlink:title=" ">
<polygon fill="white" stroke="#666666" points="140.5,-32 0,-32 0,0 140.5,0 140.5,-32"/>
<text text-anchor="start" x="8" y="-18.5" font-family="Helvetica,sans-Serif" font-size="10.00">C:/GitHub/GEU/GEU/Source</text>
<text text-anchor="middle" x="70.25" y="-6.5" font-family="Helvetica,sans-Serif" font-size="10.00">/UI/DetailsWindow.cpp</text>
</a>
</g>
</g>
<!-- Node1&#45;&gt;Node2 -->
<g id="edge1_Node000001_Node000002" class="edge">
<title>Node1&#45;&gt;Node2</title>
<g id="a_edge1_Node000001_Node000002"><a xlink:title=" ">
<path fill="none" stroke="#63b8ff" d="M241.45,-64.47C205.08,-54.39 160.61,-42.06 126.11,-32.49"/>
<polygon fill="#63b8ff" stroke="#63b8ff" points="240.42,-67.82 250.99,-67.12 242.29,-61.08 240.42,-67.82"/>
</a>
</g>
</g>
<!-- Node3 -->
<g id="Node000003" class="node">
<title>Node3</title>
<g id="a_Node000003"><a xlink:href="../../dd/d05/a00365.html" target="_top" xlink:title=" ">
<polygon fill="white" stroke="#666666" points="299.5,-32 159,-32 159,0 299.5,0 299.5,-32"/>
<text text-anchor="start" x="167" y="-18.5" font-family="Helvetica,sans-Serif" font-size="10.00">C:/GitHub/GEU/GEU/Source</text>
<text text-anchor="middle" x="229.25" y="-6.5" font-family="Helvetica,sans-Serif" font-size="10.00">/UI/GUI.cpp</text>
</a>
</g>
</g>
<!-- Node1&#45;&gt;Node3 -->
<g id="edge2_Node000001_Node000003" class="edge">
<title>Node1&#45;&gt;Node3</title>
<g id="a_edge2_Node000001_Node000003"><a xlink:title=" ">
<path fill="none" stroke="#63b8ff" d="M281.11,-60.32C270.1,-51.13 257.68,-40.75 247.75,-32.45"/>
<polygon fill="#63b8ff" stroke="#63b8ff" points="278.85,-63 288.77,-66.72 283.34,-57.62 278.85,-63"/>
</a>
</g>
</g>
<!-- Node4 -->
<g id="Node000004" class="node">
<title>Node4</title>
<g id="a_Node000004"><a xlink:href="../../d8/d05/a00380.html" target="_top" xlink:title=" ">
<polygon fill="white" stroke="#666666" points="458.5,-32 318,-32 318,0 458.5,0 458.5,-32"/>
<text text-anchor="start" x="326" y="-18.5" font-family="Helvetica,sans-Serif" font-size="10.00">C:/GitHub/GEU/GEU/Source</text>
<text text-anchor="middle" x="388.25" y="-6.5" font-family="Helvetica,sans-Serif" font-size="10.00">/UI/InspectorWindow.cpp</text>
</a>
</g>
</g>
<!-- Node1&#45;&gt;Node4 -->
<g id="edge3_Node000001_Node000004" class="edge">
<title>Node1&#45;&gt;Node4</title>
<g id="a_edge3_Node000001_Node000004"><a xlink:title=" ">
<path fill="none" stroke="#63b8ff" d="M335.4,-60.6C346.63,-51.34 359.36,-40.83 369.52,-32.45"/>
<polygon fill="#63b8ff" stroke="#63b8ff" points="333.46,-57.67 327.97,-66.73 337.91,-63.07 333.46,-57.67"/>
</a>
</g>
</g>
<!-- Node5 -->
<g id="Node000005" class="node">
<title>Node5</title>
<g id="a_Node000005"><a xlink:href="../../d7/d00/a00401.html" target="_top" xlink:title=" ">
<polygon fill="white" stroke="#666666" points="617.5,-32 477,-32 477,0 617.5,0 617.5,-32"/>
<text text-anchor="start" x="485" y="-18.5" font-family="Helvetica,sans-Serif" font-size="10.00">C:/GitHub/GEU/GEU/Source</text>
<text text-anchor="middle" x="547.25" y="-6.5" font-family="Helvetica,sans-Serif" font-size="10.00">/UI/MaterialsWindow.cpp</text>
</a>
</g>
</g>
<!-- Node1&#45;&gt;Node5 -->
<g id="edge4_Node000001_Node000005" class="edge">
<title>Node1&#45;&gt;Node5</title>
<g id="a_edge4_Node000001_Node000005"><a xlink:title=" ">
<path fill="none" stroke="#63b8ff" d="M375.34,-64.47C411.85,-54.39 456.51,-42.06 491.15,-32.49"/>
<polygon fill="#63b8ff" stroke="#63b8ff" points="374.45,-61.09 365.74,-67.12 376.31,-67.83 374.45,-61.09"/>
</a>
</g>
</g>
</g>
</svg>
