<?xml version="1.0" encoding="UTF-8" standalone="no"?>
<!DOCTYPE svg PUBLIC "-//W3C//DTD SVG 1.1//EN"
 "http://www.w3.org/Graphics/SVG/1.1/DTD/svg11.dtd">
<!-- Generated by graphviz version 10.0.1 (20240210.2158)
 -->
<!-- Title: C:/GitHub/GEU/GEU/Source/Modules/Reconstruccion/ImageCloudProj.h Pages: 1 -->
<svg width="484pt" height="612pt"
 viewBox="0.00 0.00 483.88 612.00" xmlns="http://www.w3.org/2000/svg" xmlns:xlink="http://www.w3.org/1999/xlink">
<g id="graph0" class="graph" transform="scale(1 1) rotate(0) translate(4 608)">
<title>C:/GitHub/GEU/GEU/Source/Modules/Reconstruccion/ImageCloudProj.h</title>
<!-- Node1 -->
<g id="Node000001" class="node">
<title>Node1</title>
<g id="a_Node000001"><a xlink:title=" ">
<polygon fill="#999999" stroke="#666666" points="270.25,-604 129.75,-604 129.75,-560 270.25,-560 270.25,-604"/>
<text text-anchor="start" x="137.75" y="-590.5" font-family="Helvetica,sans-Serif" font-size="10.00">C:/GitHub/GEU/GEU/Source</text>
<text text-anchor="start" x="137.75" y="-578.5" font-family="Helvetica,sans-Serif" font-size="10.00">/Modules/Reconstruccion</text>
<text text-anchor="middle" x="200" y="-566.5" font-family="Helvetica,sans-Serif" font-size="10.00">/ImageCloudProj.h</text>
</a>
</g>
</g>
<!-- Node2 -->
<g id="Node000002" class="node">
<title>Node2</title>
<g id="a_Node000002"><a xlink:href="../../db/d07/a00164.html" target="_top" xlink:title=" ">
<polygon fill="white" stroke="#666666" points="110.25,-300 41.75,-300 41.75,-280 110.25,-280 110.25,-300"/>
<text text-anchor="middle" x="76" y="-286.5" font-family="Helvetica,sans-Serif" font-size="10.00">Core/VAO.h</text>
</a>
</g>
</g>
<!-- Node1&#45;&gt;Node2 -->
<g id="edge1_Node000001_Node000002" class="edge">
<title>Node1&#45;&gt;Node2</title>
<g id="a_edge1_Node000001_Node000002"><a xlink:title=" ">
<path fill="none" stroke="#63b8ff" d="M129.49,-568.01C71.91,-552.86 0,-521.43 0,-459 0,-459 0,-459 0,-401 0,-362.24 32.34,-327.24 54.83,-307.59"/>
<polygon fill="#63b8ff" stroke="#63b8ff" points="56.87,-310.44 62.29,-301.34 52.37,-305.08 56.87,-310.44"/>
</a>
</g>
</g>
<!-- Node5 -->
<g id="Node000005" class="node">
<title>Node5</title>
<g id="a_Node000005"><a xlink:href="../../d4/d02/a00101.html" target="_top" xlink:title=" ">
<polygon fill="white" stroke="#666666" points="381.62,-412 288.38,-412 288.38,-392 381.62,-392 381.62,-412"/>
<text text-anchor="middle" x="335" y="-398.5" font-family="Helvetica,sans-Serif" font-size="10.00">Core/pointCloud.h</text>
</a>
</g>
</g>
<!-- Node1&#45;&gt;Node5 -->
<g id="edge4_Node000001_Node000005" class="edge">
<title>Node1&#45;&gt;Node5</title>
<g id="a_edge4_Node000001_Node000005"><a xlink:title=" ">
<path fill="none" stroke="#63b8ff" d="M270.38,-559.53C287.71,-551.07 304.55,-539.54 316,-524 337.79,-494.42 338.82,-449.64 337.19,-423.66"/>
<polygon fill="#63b8ff" stroke="#63b8ff" points="340.68,-423.44 336.35,-413.77 333.71,-424.03 340.68,-423.44"/>
</a>
</g>
</g>
<!-- Node18 -->
<g id="Node000018" class="node">
<title>Node18</title>
<g id="a_Node000018"><a xlink:title=" ">
<polygon fill="#e0e0e0" stroke="#999999" points="306.88,-524 215.12,-524 215.12,-504 306.88,-504 306.88,-524"/>
<text text-anchor="middle" x="261" y="-510.5" font-family="Helvetica,sans-Serif" font-size="10.00">opencv2/core.hpp</text>
</a>
</g>
</g>
<!-- Node1&#45;&gt;Node18 -->
<g id="edge23_Node000001_Node000018" class="edge">
<title>Node1&#45;&gt;Node18</title>
<g id="a_edge23_Node000001_Node000018"><a xlink:title=" ">
<path fill="none" stroke="#63b8ff" d="M219.64,-559.75C227.72,-551.01 236.97,-541 244.67,-532.66"/>
<polygon fill="#63b8ff" stroke="#63b8ff" points="247.05,-535.25 251.27,-525.53 241.91,-530.5 247.05,-535.25"/>
</a>
</g>
</g>
<!-- Node19 -->
<g id="Node000019" class="node">
<title>Node19</title>
<g id="a_Node000019"><a xlink:href="../../d7/d03/a00254.html" target="_top" xlink:title=" ">
<polygon fill="white" stroke="#666666" points="196.75,-524 83.25,-524 83.25,-504 196.75,-504 196.75,-524"/>
<text text-anchor="middle" x="140" y="-510.5" font-family="Helvetica,sans-Serif" font-size="10.00">ProceduralGenerator.h</text>
</a>
</g>
</g>
<!-- Node1&#45;&gt;Node19 -->
<g id="edge24_Node000001_Node000019" class="edge">
<title>Node1&#45;&gt;Node19</title>
<g id="a_edge24_Node000001_Node000019"><a xlink:title=" ">
<path fill="none" stroke="#63b8ff" d="M180.69,-559.75C172.82,-551.1 163.83,-541.21 156.3,-532.93"/>
<polygon fill="#63b8ff" stroke="#63b8ff" points="158.9,-530.58 149.58,-525.54 153.72,-535.29 158.9,-530.58"/>
</a>
</g>
</g>
<!-- Node3 -->
<g id="Node000003" class="node">
<title>Node3</title>
<g id="a_Node000003"><a xlink:href="../../d1/d00/a00128.html" target="_top" xlink:title=" ">
<polygon fill="white" stroke="#666666" points="225,-76 77,-76 77,-56 225,-56 225,-76"/>
<text text-anchor="middle" x="151" y="-62.5" font-family="Helvetica,sans-Serif" font-size="10.00">Core/Shaders/ShaderEnums.h</text>
</a>
</g>
</g>
<!-- Node2&#45;&gt;Node3 -->
<g id="edge2_Node000002_Node000003" class="edge">
<title>Node2&#45;&gt;Node3</title>
<g id="a_edge2_Node000002_Node000003"><a xlink:title=" ">
<path fill="none" stroke="#63b8ff" d="M76.65,-279.66C78.28,-259.02 83.46,-208.21 97,-168 105.95,-141.44 112.75,-136.7 126,-112 130.59,-103.45 135.79,-94.05 140.25,-86.06"/>
<polygon fill="#63b8ff" stroke="#63b8ff" points="143.16,-88.02 145.01,-77.58 137.06,-84.59 143.16,-88.02"/>
</a>
</g>
</g>
<!-- Node4 -->
<g id="Node000004" class="node">
<title>Node4</title>
<g id="a_Node000004"><a xlink:title=" ">
<polygon fill="#e0e0e0" stroke="#999999" points="320.75,-20 261.25,-20 261.25,0 320.75,0 320.75,-20"/>
<text text-anchor="middle" x="291" y="-6.5" font-family="Helvetica,sans-Serif" font-size="10.00">GL/glew.h</text>
</a>
</g>
</g>
<!-- Node3&#45;&gt;Node4 -->
<g id="edge3_Node000003_Node000004" class="edge">
<title>Node3&#45;&gt;Node4</title>
<g id="a_edge3_Node000003_Node000004"><a xlink:title=" ">
<path fill="none" stroke="#63b8ff" d="M175.39,-55.59C197.63,-47.01 230.77,-34.23 255.87,-24.55"/>
<polygon fill="#63b8ff" stroke="#63b8ff" points="256.94,-27.89 265.01,-21.02 254.42,-21.36 256.94,-27.89"/>
</a>
</g>
</g>
<!-- Node6 -->
<g id="Node000006" class="node">
<title>Node6</title>
<g id="a_Node000006"><a xlink:title=" ">
<polygon fill="#e0e0e0" stroke="#999999" points="273.75,-356 184.25,-356 184.25,-336 273.75,-336 273.75,-356"/>
<text text-anchor="middle" x="229" y="-342.5" font-family="Helvetica,sans-Serif" font-size="10.00">pcl/point_cloud.h</text>
</a>
</g>
</g>
<!-- Node5&#45;&gt;Node6 -->
<g id="edge5_Node000005_Node000006" class="edge">
<title>Node5&#45;&gt;Node6</title>
<g id="a_edge5_Node000005_Node000006"><a xlink:title=" ">
<path fill="none" stroke="#63b8ff" d="M316.54,-391.59C300.3,-383.32 276.39,-371.14 257.67,-361.6"/>
<polygon fill="#63b8ff" stroke="#63b8ff" points="259.46,-358.59 248.96,-357.17 256.28,-364.82 259.46,-358.59"/>
</a>
</g>
</g>
<!-- Node7 -->
<g id="Node000007" class="node">
<title>Node7</title>
<g id="a_Node000007"><a xlink:href="../../d0/d01/a00071.html" target="_top" xlink:title=" ">
<polygon fill="white" stroke="#666666" points="365.88,-356 292.12,-356 292.12,-336 365.88,-336 365.88,-356"/>
<text text-anchor="middle" x="329" y="-342.5" font-family="Helvetica,sans-Serif" font-size="10.00">LinesModel.h</text>
</a>
</g>
</g>
<!-- Node5&#45;&gt;Node7 -->
<g id="edge6_Node000005_Node000007" class="edge">
<title>Node5&#45;&gt;Node7</title>
<g id="a_edge6_Node000005_Node000007"><a xlink:title=" ">
<path fill="none" stroke="#63b8ff" d="M333.95,-391.59C333.22,-385.01 332.22,-375.96 331.3,-367.73"/>
<polygon fill="#63b8ff" stroke="#63b8ff" points="334.78,-367.35 330.2,-357.8 327.83,-368.13 334.78,-367.35"/>
</a>
</g>
</g>
<!-- Node16 -->
<g id="Node000016" class="node">
<title>Node16</title>
<g id="a_Node000016"><a xlink:href="../../d4/d04/a00035.html" target="_top" xlink:title=" ">
<polygon fill="white" stroke="#666666" points="475.88,-356 384.12,-356 384.12,-336 475.88,-336 475.88,-356"/>
<text text-anchor="middle" x="430" y="-342.5" font-family="Helvetica,sans-Serif" font-size="10.00">GPUResources.h</text>
</a>
</g>
</g>
<!-- Node5&#45;&gt;Node16 -->
<g id="edge20_Node000005_Node000016" class="edge">
<title>Node5&#45;&gt;Node16</title>
<g id="a_edge20_Node000005_Node000016"><a xlink:title=" ">
<path fill="none" stroke="#63b8ff" d="M351.55,-391.59C365.9,-383.44 386.93,-371.48 403.6,-362"/>
<polygon fill="#63b8ff" stroke="#63b8ff" points="405.04,-365.21 412.01,-357.23 401.58,-359.13 405.04,-365.21"/>
</a>
</g>
</g>
<!-- Node7&#45;&gt;Node2 -->
<g id="edge19_Node000007_Node000002" class="edge">
<title>Node7&#45;&gt;Node2</title>
<g id="a_edge19_Node000007_Node000002"><a xlink:title=" ">
<path fill="none" stroke="#63b8ff" d="M291.67,-337.03C246.49,-327.39 170.45,-311.16 121.78,-300.77"/>
<polygon fill="#63b8ff" stroke="#63b8ff" points="122.63,-297.37 112.12,-298.71 121.17,-304.22 122.63,-297.37"/>
</a>
</g>
</g>
<!-- Node8 -->
<g id="Node000008" class="node">
<title>Node8</title>
<g id="a_Node000008"><a xlink:href="../../d9/d07/a00095.html" target="_top" xlink:title=" ">
<polygon fill="white" stroke="#666666" points="344.25,-300 281.75,-300 281.75,-280 344.25,-280 344.25,-300"/>
<text text-anchor="middle" x="313" y="-286.5" font-family="Helvetica,sans-Serif" font-size="10.00">Model3D.h</text>
</a>
</g>
</g>
<!-- Node7&#45;&gt;Node8 -->
<g id="edge7_Node000007_Node000008" class="edge">
<title>Node7&#45;&gt;Node8</title>
<g id="a_edge7_Node000007_Node000008"><a xlink:title=" ">
<path fill="none" stroke="#63b8ff" d="M326.21,-335.59C324.22,-328.86 321.45,-319.53 318.97,-311.15"/>
<polygon fill="#63b8ff" stroke="#63b8ff" points="322.38,-310.34 316.19,-301.75 315.67,-312.33 322.38,-310.34"/>
</a>
</g>
</g>
<!-- Node9 -->
<g id="Node000009" class="node">
<title>Node9</title>
<g id="a_Node000009"><a xlink:href="../../d1/d01/a00077.html" target="_top" xlink:title=" ">
<polygon fill="white" stroke="#666666" points="342.38,-244 283.62,-244 283.62,-224 342.38,-224 342.38,-244"/>
<text text-anchor="middle" x="313" y="-230.5" font-family="Helvetica,sans-Serif" font-size="10.00">Material.h</text>
</a>
</g>
</g>
<!-- Node8&#45;&gt;Node9 -->
<g id="edge8_Node000008_Node000009" class="edge">
<title>Node8&#45;&gt;Node9</title>
<g id="a_edge8_Node000008_Node000009"><a xlink:title=" ">
<path fill="none" stroke="#63b8ff" d="M313,-279.59C313,-273.01 313,-263.96 313,-255.73"/>
<polygon fill="#63b8ff" stroke="#63b8ff" points="316.5,-255.81 313,-245.81 309.5,-255.81 316.5,-255.81"/>
</a>
</g>
</g>
<!-- Node15 -->
<g id="Node000015" class="node">
<title>Node15</title>
<g id="a_Node000015"><a xlink:href="../../d7/d05/a00182.html" target="_top" xlink:title=" ">
<polygon fill="white" stroke="#666666" points="233.5,-244 136.5,-244 136.5,-224 233.5,-224 233.5,-244"/>
<text text-anchor="middle" x="185" y="-230.5" font-family="Helvetica,sans-Serif" font-size="10.00">Geometry/AABB.h</text>
</a>
</g>
</g>
<!-- Node8&#45;&gt;Node15 -->
<g id="edge18_Node000008_Node000015" class="edge">
<title>Node8&#45;&gt;Node15</title>
<g id="a_edge18_Node000008_Node000015"><a xlink:title=" ">
<path fill="none" stroke="#63b8ff" d="M290.7,-279.59C270.64,-271.13 240.88,-258.58 218.05,-248.94"/>
<polygon fill="#63b8ff" stroke="#63b8ff" points="219.44,-245.73 208.86,-245.07 216.72,-252.18 219.44,-245.73"/>
</a>
</g>
</g>
<!-- Node10 -->
<g id="Node000010" class="node">
<title>Node10</title>
<g id="a_Node000010"><a xlink:title=" ">
<polygon fill="#e0e0e0" stroke="#999999" points="440.5,-132 355.5,-132 355.5,-112 440.5,-112 440.5,-132"/>
<text text-anchor="middle" x="398" y="-118.5" font-family="Helvetica,sans-Serif" font-size="10.00">assimp/scene.h</text>
</a>
</g>
</g>
<!-- Node9&#45;&gt;Node10 -->
<g id="edge9_Node000009_Node000010" class="edge">
<title>Node9&#45;&gt;Node10</title>
<g id="a_edge9_Node000009_Node000010"><a xlink:title=" ">
<path fill="none" stroke="#63b8ff" d="M320.8,-223.81C328.38,-214.79 340.18,-200.6 350,-188 362.1,-172.48 375.34,-154.46 384.85,-141.33"/>
<polygon fill="#63b8ff" stroke="#63b8ff" points="387.42,-143.76 390.43,-133.6 381.74,-139.66 387.42,-143.76"/>
</a>
</g>
</g>
<!-- Node11 -->
<g id="Node000011" class="node">
<title>Node11</title>
<g id="a_Node000011"><a xlink:href="../../dc/d06/a00125.html" target="_top" xlink:title=" ">
<polygon fill="white" stroke="#666666" points="266.38,-188 105.62,-188 105.62,-168 266.38,-168 266.38,-188"/>
<text text-anchor="middle" x="186" y="-174.5" font-family="Helvetica,sans-Serif" font-size="10.00">Core/Shaders/RenderingShader.h</text>
</a>
</g>
</g>
<!-- Node9&#45;&gt;Node11 -->
<g id="edge10_Node000009_Node000011" class="edge">
<title>Node9&#45;&gt;Node11</title>
<g id="a_edge10_Node000009_Node000011"><a xlink:title=" ">
<path fill="none" stroke="#63b8ff" d="M290.88,-223.59C270.97,-215.13 241.45,-202.58 218.79,-192.94"/>
<polygon fill="#63b8ff" stroke="#63b8ff" points="220.26,-189.76 209.69,-189.07 217.52,-196.21 220.26,-189.76"/>
</a>
</g>
</g>
<!-- Node13 -->
<g id="Node000013" class="node">
<title>Node13</title>
<g id="a_Node000013"><a xlink:href="../../d9/d06/a00146.html" target="_top" xlink:title=" ">
<polygon fill="white" stroke="#666666" points="341.25,-188 284.75,-188 284.75,-168 341.25,-168 341.25,-188"/>
<text text-anchor="middle" x="313" y="-174.5" font-family="Helvetica,sans-Serif" font-size="10.00">Texture.h</text>
</a>
</g>
</g>
<!-- Node9&#45;&gt;Node13 -->
<g id="edge14_Node000009_Node000013" class="edge">
<title>Node9&#45;&gt;Node13</title>
<g id="a_edge14_Node000009_Node000013"><a xlink:title=" ">
<path fill="none" stroke="#63b8ff" d="M313,-223.59C313,-217.01 313,-207.96 313,-199.73"/>
<polygon fill="#63b8ff" stroke="#63b8ff" points="316.5,-199.81 313,-189.81 309.5,-199.81 316.5,-199.81"/>
</a>
</g>
</g>
<!-- Node11&#45;&gt;Node3 -->
<g id="edge13_Node000011_Node000003" class="edge">
<title>Node11&#45;&gt;Node3</title>
<g id="a_edge13_Node000011_Node000003"><a xlink:title=" ">
<path fill="none" stroke="#63b8ff" d="M168.37,-167.59C155.94,-159.87 140.25,-147.66 133,-132 126.16,-117.22 132.06,-99.32 138.88,-86.05"/>
<polygon fill="#63b8ff" stroke="#63b8ff" points="141.86,-87.88 143.81,-77.47 135.8,-84.4 141.86,-87.88"/>
</a>
</g>
</g>
<!-- Node12 -->
<g id="Node000012" class="node">
<title>Node12</title>
<g id="a_Node000012"><a xlink:href="../../d5/d01/a00140.html" target="_top" xlink:title=" ">
<polygon fill="white" stroke="#666666" points="233.88,-132 142.12,-132 142.12,-112 233.88,-112 233.88,-132"/>
<text text-anchor="middle" x="188" y="-118.5" font-family="Helvetica,sans-Serif" font-size="10.00">ShaderProgram.h</text>
</a>
</g>
</g>
<!-- Node11&#45;&gt;Node12 -->
<g id="edge11_Node000011_Node000012" class="edge">
<title>Node11&#45;&gt;Node12</title>
<g id="a_edge11_Node000011_Node000012"><a xlink:title=" ">
<path fill="none" stroke="#63b8ff" d="M186.35,-167.59C186.59,-161.01 186.93,-151.96 187.23,-143.73"/>
<polygon fill="#63b8ff" stroke="#63b8ff" points="190.73,-143.93 187.6,-133.81 183.73,-143.67 190.73,-143.93"/>
</a>
</g>
</g>
<!-- Node12&#45;&gt;Node3 -->
<g id="edge12_Node000012_Node000003" class="edge">
<title>Node12&#45;&gt;Node3</title>
<g id="a_edge12_Node000012_Node000003"><a xlink:title=" ">
<path fill="none" stroke="#63b8ff" d="M181.56,-111.59C176.67,-104.47 169.81,-94.45 163.82,-85.72"/>
<polygon fill="#63b8ff" stroke="#63b8ff" points="166.77,-83.82 158.23,-77.55 160.99,-87.77 166.77,-83.82"/>
</a>
</g>
</g>
<!-- Node13&#45;&gt;Node10 -->
<g id="edge15_Node000013_Node000010" class="edge">
<title>Node13&#45;&gt;Node10</title>
<g id="a_edge15_Node000013_Node000010"><a xlink:title=" ">
<path fill="none" stroke="#63b8ff" d="M327.81,-167.59C340.4,-159.59 358.75,-147.93 373.53,-138.54"/>
<polygon fill="#63b8ff" stroke="#63b8ff" points="375.24,-141.61 381.8,-133.29 371.48,-135.7 375.24,-141.61"/>
</a>
</g>
</g>
<!-- Node13&#45;&gt;Node12 -->
<g id="edge17_Node000013_Node000012" class="edge">
<title>Node13&#45;&gt;Node12</title>
<g id="a_edge17_Node000013_Node000012"><a xlink:title=" ">
<path fill="none" stroke="#63b8ff" d="M291.23,-167.59C271.63,-159.13 242.57,-146.58 220.28,-136.94"/>
<polygon fill="#63b8ff" stroke="#63b8ff" points="221.9,-133.83 211.33,-133.08 219.12,-140.26 221.9,-133.83"/>
</a>
</g>
</g>
<!-- Node14 -->
<g id="Node000014" class="node">
<title>Node14</title>
<g id="a_Node000014"><a xlink:href="../../d9/d02/a00479.html" target="_top" xlink:title=" ">
<polygon fill="white" stroke="#666666" points="337.88,-132 252.12,-132 252.12,-112 337.88,-112 337.88,-132"/>
<text text-anchor="middle" x="295" y="-118.5" font-family="Helvetica,sans-Serif" font-size="10.00">Utilities/Image.h</text>
</a>
</g>
</g>
<!-- Node13&#45;&gt;Node14 -->
<g id="edge16_Node000013_Node000014" class="edge">
<title>Node13&#45;&gt;Node14</title>
<g id="a_edge16_Node000013_Node000014"><a xlink:title=" ">
<path fill="none" stroke="#63b8ff" d="M309.86,-167.59C307.62,-160.86 304.51,-151.53 301.72,-143.15"/>
<polygon fill="#63b8ff" stroke="#63b8ff" points="305.06,-142.11 298.58,-133.73 298.42,-144.33 305.06,-142.11"/>
</a>
</g>
</g>
<!-- Node16&#45;&gt;Node4 -->
<g id="edge22_Node000016_Node000004" class="edge">
<title>Node16&#45;&gt;Node4</title>
<g id="a_edge22_Node000016_Node000004"><a xlink:title=" ">
<path fill="none" stroke="#63b8ff" d="M435.75,-335.69C446.6,-317.21 469,-274.31 469,-235 469,-235 469,-235 469,-121 469,-57.03 384.79,-29.02 332.21,-17.77"/>
<polygon fill="#63b8ff" stroke="#63b8ff" points="333.17,-14.39 322.68,-15.85 331.79,-21.25 333.17,-14.39"/>
</a>
</g>
</g>
<!-- Node17 -->
<g id="Node000017" class="node">
<title>Node17</title>
<g id="a_Node000017"><a xlink:title=" ">
<polygon fill="#e0e0e0" stroke="#999999" points="440.62,-300 395.38,-300 395.38,-280 440.62,-280 440.62,-300"/>
<text text-anchor="middle" x="418" y="-286.5" font-family="Helvetica,sans-Serif" font-size="10.00">cstdint</text>
</a>
</g>
</g>
<!-- Node16&#45;&gt;Node17 -->
<g id="edge21_Node000016_Node000017" class="edge">
<title>Node16&#45;&gt;Node17</title>
<g id="a_edge21_Node000016_Node000017"><a xlink:title=" ">
<path fill="none" stroke="#63b8ff" d="M427.91,-335.59C426.43,-328.93 424.39,-319.75 422.54,-311.44"/>
<polygon fill="#63b8ff" stroke="#63b8ff" points="425.98,-310.78 420.39,-301.78 419.15,-312.3 425.98,-310.78"/>
</a>
</g>
</g>
<!-- Node19&#45;&gt;Node6 -->
<g id="edge29_Node000019_Node000006" class="edge">
<title>Node19&#45;&gt;Node6</title>
<g id="a_edge29_Node000019_Node000006"><a xlink:title=" ">
<path fill="none" stroke="#63b8ff" d="M188.54,-503.51C208.31,-497 229.24,-486.11 241,-468 261.04,-437.14 248.22,-392.21 238.01,-366.67"/>
<polygon fill="#63b8ff" stroke="#63b8ff" points="241.37,-365.64 234.22,-357.82 234.93,-368.39 241.37,-365.64"/>
</a>
</g>
</g>
<!-- Node20 -->
<g id="Node000020" class="node">
<title>Node20</title>
<g id="a_Node000020"><a xlink:href="../../dd/d07/a00260.html" target="_top" xlink:title=" ">
<polygon fill="white" stroke="#666666" points="123.75,-468 28.25,-468 28.25,-448 123.75,-448 123.75,-468"/>
<text text-anchor="middle" x="76" y="-454.5" font-family="Helvetica,sans-Serif" font-size="10.00">ProceduralVoxel.h</text>
</a>
</g>
</g>
<!-- Node19&#45;&gt;Node20 -->
<g id="edge25_Node000019_Node000020" class="edge">
<title>Node19&#45;&gt;Node20</title>
<g id="a_edge25_Node000019_Node000020"><a xlink:title=" ">
<path fill="none" stroke="#63b8ff" d="M128.85,-503.59C119.67,-495.85 106.45,-484.69 95.52,-475.47"/>
<polygon fill="#63b8ff" stroke="#63b8ff" points="98.08,-473.05 88.18,-469.27 93.56,-478.4 98.08,-473.05"/>
</a>
</g>
</g>
<!-- Node21 -->
<g id="Node000021" class="node">
<title>Node21</title>
<g id="a_Node000021"><a xlink:title=" ">
<polygon fill="#e0e0e0" stroke="#999999" points="232.12,-468 141.88,-468 141.88,-448 232.12,-448 232.12,-468"/>
<text text-anchor="middle" x="187" y="-454.5" font-family="Helvetica,sans-Serif" font-size="10.00">pcl/point_types.h</text>
</a>
</g>
</g>
<!-- Node19&#45;&gt;Node21 -->
<g id="edge30_Node000019_Node000021" class="edge">
<title>Node19&#45;&gt;Node21</title>
<g id="a_edge30_Node000019_Node000021"><a xlink:title=" ">
<path fill="none" stroke="#63b8ff" d="M148.19,-503.59C154.59,-496.24 163.68,-485.8 171.45,-476.87"/>
<polygon fill="#63b8ff" stroke="#63b8ff" points="173.99,-479.28 177.91,-469.44 168.71,-474.69 173.99,-479.28"/>
</a>
</g>
</g>
<!-- Node20&#45;&gt;Node2 -->
<g id="edge27_Node000020_Node000002" class="edge">
<title>Node20&#45;&gt;Node2</title>
<g id="a_edge27_Node000020_Node000002"><a xlink:title=" ">
<path fill="none" stroke="#63b8ff" d="M76,-447.6C76,-421.46 76,-347.48 76,-311.36"/>
<polygon fill="#63b8ff" stroke="#63b8ff" points="79.5,-311.81 76,-301.81 72.5,-311.81 79.5,-311.81"/>
</a>
</g>
</g>
<!-- Node20&#45;&gt;Node5 -->
<g id="edge28_Node000020_Node000005" class="edge">
<title>Node20&#45;&gt;Node5</title>
<g id="a_edge28_Node000020_Node000005"><a xlink:title=" ">
<path fill="none" stroke="#63b8ff" d="M121.41,-447.53C165.1,-438.42 231.3,-424.62 278.4,-414.8"/>
<polygon fill="#63b8ff" stroke="#63b8ff" points="279.08,-418.23 288.16,-412.77 277.66,-411.38 279.08,-418.23"/>
</a>
</g>
</g>
<!-- Node20&#45;&gt;Node15 -->
<g id="edge26_Node000020_Node000015" class="edge">
<title>Node20&#45;&gt;Node15</title>
<g id="a_edge26_Node000020_Node000015"><a xlink:title=" ">
<path fill="none" stroke="#63b8ff" d="M80.54,-447.74C96.89,-414.46 152.9,-300.39 175.46,-254.42"/>
<polygon fill="#63b8ff" stroke="#63b8ff" points="178.5,-256.17 179.77,-245.65 172.22,-253.09 178.5,-256.17"/>
</a>
</g>
</g>
</g>
</svg>
