<?xml version="1.0" encoding="UTF-8" standalone="no"?>
<!DOCTYPE svg PUBLIC "-//W3C//DTD SVG 1.1//EN"
 "http://www.w3.org/Graphics/SVG/1.1/DTD/svg11.dtd">
<!-- Generated by graphviz version 10.0.1 (20240210.2158)
 -->
<!-- Title: GEU::PixarAttenuation::applyAttenuation Pages: 1 -->
<svg width="305pt" height="328pt"
 viewBox="0.00 0.00 304.75 328.00" xmlns="http://www.w3.org/2000/svg" xmlns:xlink="http://www.w3.org/1999/xlink">
<g id="graph0" class="graph" transform="scale(1 1) rotate(0) translate(4 324)">
<title>GEU::PixarAttenuation::applyAttenuation</title>
<!-- Node1 -->
<g id="Node000001" class="node">
<title>Node1</title>
<g id="a_Node000001"><a xlink:title=" ">
<polygon fill="#999999" stroke="#666666" points="115,-170 0,-170 0,-138 115,-138 115,-170"/>
<text text-anchor="start" x="8" y="-156.5" font-family="Helvetica,sans-Serif" font-size="10.00">GEU::PixarAttenuation</text>
<text text-anchor="middle" x="57.5" y="-144.5" font-family="Helvetica,sans-Serif" font-size="10.00">::applyAttenuation</text>
</a>
</g>
</g>
<!-- Node2 -->
<g id="Node000002" class="node">
<title>Node2</title>
<g id="a_Node000002"><a xlink:href="../../da/d06/a01720.html#ac2969a9853653155f2fb81856a94456d" target="_top" xlink:title=" ">
<polygon fill="white" stroke="#666666" points="296.75,-320 151,-320 151,-288 296.75,-288 296.75,-320"/>
<text text-anchor="start" x="159" y="-306.5" font-family="Helvetica,sans-Serif" font-size="10.00">GEU::Material::getAssociated</text>
<text text-anchor="middle" x="223.88" y="-294.5" font-family="Helvetica,sans-Serif" font-size="10.00">Shader</text>
</a>
</g>
</g>
<!-- Node1&#45;&gt;Node2 -->
<g id="edge1_Node000001_Node000002" class="edge">
<title>Node1&#45;&gt;Node2</title>
<g id="a_edge1_Node000001_Node000002"><a xlink:title=" ">
<path fill="none" stroke="#63b8ff" d="M66.39,-170.25C80.05,-196.74 110.55,-249.24 151,-279 152.36,-280 153.77,-280.97 155.21,-281.9"/>
<polygon fill="#63b8ff" stroke="#63b8ff" points="153.42,-284.91 163.85,-286.77 156.86,-278.81 153.42,-284.91"/>
</a>
</g>
</g>
<!-- Node3 -->
<g id="Node000003" class="node">
<title>Node3</title>
<g id="a_Node000003"><a xlink:href="../../dc/d06/a01712.html#a1696134e639c5edafab0c49a74c0b41a" target="_top" xlink:title=" ">
<polygon fill="white" stroke="#666666" points="278,-270 169.75,-270 169.75,-238 278,-238 278,-270"/>
<text text-anchor="start" x="177.75" y="-256.5" font-family="Helvetica,sans-Serif" font-size="10.00">GEU::LightProperties</text>
<text text-anchor="middle" x="223.88" y="-244.5" font-family="Helvetica,sans-Serif" font-size="10.00">::getDistanceC</text>
</a>
</g>
</g>
<!-- Node1&#45;&gt;Node3 -->
<g id="edge2_Node000001_Node000003" class="edge">
<title>Node1&#45;&gt;Node3</title>
<g id="a_edge2_Node000001_Node000003"><a xlink:title=" ">
<path fill="none" stroke="#63b8ff" d="M74.92,-170.32C92.47,-187 121.74,-212.71 151,-229 153.62,-230.46 156.33,-231.85 159.11,-233.18"/>
<polygon fill="#63b8ff" stroke="#63b8ff" points="157.42,-236.26 167.98,-237.12 160.26,-229.86 157.42,-236.26"/>
</a>
</g>
</g>
<!-- Node4 -->
<g id="Node000004" class="node">
<title>Node4</title>
<g id="a_Node000004"><a xlink:href="../../dc/d06/a01712.html#a9651e3709d82e84ac752156c2ca5a0d9" target="_top" xlink:title=" ">
<polygon fill="white" stroke="#666666" points="278,-220 169.75,-220 169.75,-188 278,-188 278,-220"/>
<text text-anchor="start" x="177.75" y="-206.5" font-family="Helvetica,sans-Serif" font-size="10.00">GEU::LightProperties</text>
<text text-anchor="middle" x="223.88" y="-194.5" font-family="Helvetica,sans-Serif" font-size="10.00">::getExponentSE</text>
</a>
</g>
</g>
<!-- Node1&#45;&gt;Node4 -->
<g id="edge3_Node000001_Node000004" class="edge">
<title>Node1&#45;&gt;Node4</title>
<g id="a_edge3_Node000001_Node000004"><a xlink:title=" ">
<path fill="none" stroke="#63b8ff" d="M112.32,-170.37C127.09,-174.86 143.25,-179.78 158.54,-184.43"/>
<polygon fill="#63b8ff" stroke="#63b8ff" points="157.46,-187.76 168.04,-187.32 159.5,-181.06 157.46,-187.76"/>
</a>
</g>
</g>
<!-- Node5 -->
<g id="Node000005" class="node">
<title>Node5</title>
<g id="a_Node000005"><a xlink:href="../../dc/d06/a01712.html#a2a2276481b7a896f48dc31bf5c889b29" target="_top" xlink:title=" ">
<polygon fill="white" stroke="#666666" points="278,-170 169.75,-170 169.75,-138 278,-138 278,-170"/>
<text text-anchor="start" x="177.75" y="-156.5" font-family="Helvetica,sans-Serif" font-size="10.00">GEU::LightProperties</text>
<text text-anchor="middle" x="223.88" y="-144.5" font-family="Helvetica,sans-Serif" font-size="10.00">::getFactorC</text>
</a>
</g>
</g>
<!-- Node1&#45;&gt;Node5 -->
<g id="edge4_Node000001_Node000005" class="edge">
<title>Node1&#45;&gt;Node5</title>
<g id="a_edge4_Node000001_Node000005"><a xlink:title=" ">
<path fill="none" stroke="#63b8ff" d="M115.07,-154C128.99,-154 144,-154 158.27,-154"/>
<polygon fill="#63b8ff" stroke="#63b8ff" points="158.01,-157.5 168.01,-154 158.01,-150.5 158.01,-157.5"/>
</a>
</g>
</g>
<!-- Node6 -->
<g id="Node000006" class="node">
<title>Node6</title>
<g id="a_Node000006"><a xlink:href="../../dc/d06/a01712.html#a8ac0191c8b44dc7878d7f11ce8ace8df" target="_top" xlink:title=" ">
<polygon fill="white" stroke="#666666" points="278,-120 169.75,-120 169.75,-88 278,-88 278,-120"/>
<text text-anchor="start" x="177.75" y="-106.5" font-family="Helvetica,sans-Serif" font-size="10.00">GEU::LightProperties</text>
<text text-anchor="middle" x="223.88" y="-94.5" font-family="Helvetica,sans-Serif" font-size="10.00">::getKCoefficients</text>
</a>
</g>
</g>
<!-- Node1&#45;&gt;Node6 -->
<g id="edge5_Node000001_Node000006" class="edge">
<title>Node1&#45;&gt;Node6</title>
<g id="a_edge5_Node000001_Node000006"><a xlink:title=" ">
<path fill="none" stroke="#63b8ff" d="M112.32,-137.63C127.09,-133.14 143.25,-128.22 158.54,-123.57"/>
<polygon fill="#63b8ff" stroke="#63b8ff" points="159.5,-126.94 168.04,-120.68 157.46,-120.24 159.5,-126.94"/>
</a>
</g>
</g>
<!-- Node7 -->
<g id="Node000007" class="node">
<title>Node7</title>
<g id="a_Node000007"><a xlink:href="../../dc/d06/a01712.html#a9f4f35ca2b1cdeda15519da2f1d7cd89" target="_top" xlink:title=" ">
<polygon fill="white" stroke="#666666" points="278,-70 169.75,-70 169.75,-38 278,-38 278,-70"/>
<text text-anchor="start" x="177.75" y="-56.5" font-family="Helvetica,sans-Serif" font-size="10.00">GEU::LightProperties</text>
<text text-anchor="middle" x="223.88" y="-44.5" font-family="Helvetica,sans-Serif" font-size="10.00">::getMaxAttFactor</text>
</a>
</g>
</g>
<!-- Node1&#45;&gt;Node7 -->
<g id="edge6_Node000001_Node000007" class="edge">
<title>Node1&#45;&gt;Node7</title>
<g id="a_edge6_Node000001_Node000007"><a xlink:title=" ">
<path fill="none" stroke="#63b8ff" d="M74.92,-137.68C92.47,-121 121.74,-95.29 151,-79 153.62,-77.54 156.33,-76.15 159.11,-74.82"/>
<polygon fill="#63b8ff" stroke="#63b8ff" points="160.26,-78.14 167.98,-70.88 157.42,-71.74 160.26,-78.14"/>
</a>
</g>
</g>
<!-- Node8 -->
<g id="Node000008" class="node">
<title>Node8</title>
<g id="a_Node000008"><a xlink:href="../../da/d06/a01720.html#abb5aacb1ebce4d9a9c119ea122d921df" target="_top" xlink:title=" ">
<polygon fill="white" stroke="#666666" points="295.62,-20 152.12,-20 152.12,0 295.62,0 295.62,-20"/>
<text text-anchor="middle" x="223.88" y="-6.5" font-family="Helvetica,sans-Serif" font-size="10.00">GEU::Material::setSubroutine</text>
</a>
</g>
</g>
<!-- Node1&#45;&gt;Node8 -->
<g id="edge7_Node000001_Node000008" class="edge">
<title>Node1&#45;&gt;Node8</title>
<g id="a_edge7_Node000001_Node000008"><a xlink:title=" ">
<path fill="none" stroke="#63b8ff" d="M65.93,-137.83C79.12,-110.98 109.22,-57.34 151,-29 153.08,-27.59 155.27,-26.28 157.52,-25.07"/>
<polygon fill="#63b8ff" stroke="#63b8ff" points="158.78,-28.34 166.41,-20.99 155.86,-21.98 158.78,-28.34"/>
</a>
</g>
</g>
</g>
</svg>
