<?xml version="1.0" encoding="UTF-8" standalone="no"?>
<!DOCTYPE svg PUBLIC "-//W3C//DTD SVG 1.1//EN"
 "http://www.w3.org/Graphics/SVG/1.1/DTD/svg11.dtd">
<!-- Generated by graphviz version 10.0.1 (20240210.2158)
 -->
<!-- Title: Database::Vuelo::fromQuery Pages: 1 -->
<svg width="639pt" height="90pt"
 viewBox="0.00 0.00 639.00 90.00" xmlns="http://www.w3.org/2000/svg" xmlns:xlink="http://www.w3.org/1999/xlink">
<g id="graph0" class="graph" transform="scale(1 1) rotate(0) translate(4 86)">
<title>Database::Vuelo::fromQuery</title>
<!-- Node1 -->
<g id="Node000001" class="node">
<title>Node1</title>
<g id="a_Node000001"><a xlink:title=" ">
<polygon fill="#999999" stroke="#666666" points="631,-51 492,-51 492,-31 631,-31 631,-51"/>
<text text-anchor="middle" x="561.5" y="-37.5" font-family="Helvetica,sans-Serif" font-size="10.00">Database::Vuelo::fromQuery</text>
</a>
</g>
</g>
<!-- Node2 -->
<g id="Node000002" class="node">
<title>Node2</title>
<g id="a_Node000002"><a xlink:href="../../de/d01/a01857.html#a2b4f98699f6e9dba0728ccc4f695e147" target="_top" xlink:title=" ">
<polygon fill="white" stroke="#666666" points="456,-57 348.5,-57 348.5,-25 456,-25 456,-57"/>
<text text-anchor="start" x="356.5" y="-43.5" font-family="Helvetica,sans-Serif" font-size="10.00">DatabaseConnector::</text>
<text text-anchor="middle" x="402.25" y="-31.5" font-family="Helvetica,sans-Serif" font-size="10.00">queryVuelo</text>
</a>
</g>
</g>
<!-- Node1&#45;&gt;Node2 -->
<g id="edge1_Node000001_Node000002" class="edge">
<title>Node1&#45;&gt;Node2</title>
<g id="a_edge1_Node000001_Node000002"><a xlink:title=" ">
<path fill="none" stroke="#63b8ff" d="M480.05,-41C471.92,-41 463.82,-41 456.09,-41"/>
<polygon fill="#63b8ff" stroke="#63b8ff" points="480.01,-44.5 490.01,-41 480.01,-37.5 480.01,-44.5"/>
</a>
</g>
</g>
<!-- Node3 -->
<g id="Node000003" class="node">
<title>Node3</title>
<g id="a_Node000003"><a xlink:href="../../df/d07/a01537.html#a095cd13fc65fee6dfe8adcb986e185b7" target="_top" xlink:title=" ">
<polygon fill="white" stroke="#666666" points="312.5,-82 174.25,-82 174.25,-50 312.5,-50 312.5,-82"/>
<text text-anchor="start" x="182.25" y="-68.5" font-family="Helvetica,sans-Serif" font-size="10.00">GEU::DatabaseQueryPopup</text>
<text text-anchor="middle" x="243.38" y="-56.5" font-family="Helvetica,sans-Serif" font-size="10.00">::queryFilterDatoCrudo</text>
</a>
</g>
</g>
<!-- Node2&#45;&gt;Node3 -->
<g id="edge2_Node000002_Node000003" class="edge">
<title>Node2&#45;&gt;Node3</title>
<g id="a_edge2_Node000002_Node000003"><a xlink:title=" ">
<path fill="none" stroke="#63b8ff" d="M337,-51.24C328.99,-52.51 320.79,-53.82 312.73,-55.11"/>
<polygon fill="#63b8ff" stroke="#63b8ff" points="337.32,-54.73 346.64,-49.7 336.22,-47.82 337.32,-54.73"/>
</a>
</g>
</g>
<!-- Node5 -->
<g id="Node000005" class="node">
<title>Node5</title>
<g id="a_Node000005"><a xlink:href="../../df/d07/a01537.html#ad84110548dc0b8959e81cd9a219dc77b" target="_top" xlink:title=" ">
<polygon fill="white" stroke="#666666" points="312.5,-32 174.25,-32 174.25,0 312.5,0 312.5,-32"/>
<text text-anchor="start" x="182.25" y="-18.5" font-family="Helvetica,sans-Serif" font-size="10.00">GEU::DatabaseQueryPopup</text>
<text text-anchor="middle" x="243.38" y="-6.5" font-family="Helvetica,sans-Serif" font-size="10.00">::queryFilterVuelos</text>
</a>
</g>
</g>
<!-- Node2&#45;&gt;Node5 -->
<g id="edge4_Node000002_Node000005" class="edge">
<title>Node2&#45;&gt;Node5</title>
<g id="a_edge4_Node000002_Node000005"><a xlink:title=" ">
<path fill="none" stroke="#63b8ff" d="M337,-30.76C328.99,-29.49 320.79,-28.18 312.73,-26.89"/>
<polygon fill="#63b8ff" stroke="#63b8ff" points="336.22,-34.18 346.64,-32.3 337.32,-27.27 336.22,-34.18"/>
</a>
</g>
</g>
<!-- Node4 -->
<g id="Node000004" class="node">
<title>Node4</title>
<g id="a_Node000004"><a xlink:href="../../df/d07/a01537.html#a83023007463bdd6e6a4b40c55146b825" target="_top" xlink:title=" ">
<polygon fill="white" stroke="#666666" points="138.25,-82 0,-82 0,-50 138.25,-50 138.25,-82"/>
<text text-anchor="start" x="8" y="-68.5" font-family="Helvetica,sans-Serif" font-size="10.00">GEU::DatabaseQueryPopup</text>
<text text-anchor="middle" x="69.12" y="-56.5" font-family="Helvetica,sans-Serif" font-size="10.00">::makeFormDatoCrudo</text>
</a>
</g>
</g>
<!-- Node3&#45;&gt;Node4 -->
<g id="edge3_Node000003_Node000004" class="edge">
<title>Node3&#45;&gt;Node4</title>
<g id="a_edge3_Node000003_Node000004"><a xlink:title=" ">
<path fill="none" stroke="#63b8ff" d="M162.33,-66C154.45,-66 146.5,-66 138.74,-66"/>
<polygon fill="#63b8ff" stroke="#63b8ff" points="162.29,-69.5 172.29,-66 162.29,-62.5 162.29,-69.5"/>
</a>
</g>
</g>
<!-- Node6 -->
<g id="Node000006" class="node">
<title>Node6</title>
<g id="a_Node000006"><a xlink:href="../../df/d07/a01537.html#a6799cf756f5e2cb191268e786a8df4ba" target="_top" xlink:title=" ">
<polygon fill="white" stroke="#666666" points="138.25,-32 0,-32 0,0 138.25,0 138.25,-32"/>
<text text-anchor="start" x="8" y="-18.5" font-family="Helvetica,sans-Serif" font-size="10.00">GEU::DatabaseQueryPopup</text>
<text text-anchor="middle" x="69.12" y="-6.5" font-family="Helvetica,sans-Serif" font-size="10.00">::makeFormVuelos</text>
</a>
</g>
</g>
<!-- Node5&#45;&gt;Node6 -->
<g id="edge5_Node000005_Node000006" class="edge">
<title>Node5&#45;&gt;Node6</title>
<g id="a_edge5_Node000005_Node000006"><a xlink:title=" ">
<path fill="none" stroke="#63b8ff" d="M162.33,-16C154.45,-16 146.5,-16 138.74,-16"/>
<polygon fill="#63b8ff" stroke="#63b8ff" points="162.29,-19.5 172.29,-16 162.29,-12.5 162.29,-19.5"/>
</a>
</g>
</g>
</g>
</svg>
