<?xml version="1.0" encoding="UTF-8" standalone="no"?>
<!DOCTYPE svg PUBLIC "-//W3C//DTD SVG 1.1//EN"
 "http://www.w3.org/Graphics/SVG/1.1/DTD/svg11.dtd">
<!-- Generated by graphviz version 10.0.1 (20240210.2158)
 -->
<!-- Title: GEU::InterfaceAdapter::getLocalizedName Pages: 1 -->
<svg width="271pt" height="90pt"
 viewBox="0.00 0.00 271.00 90.00" xmlns="http://www.w3.org/2000/svg" xmlns:xlink="http://www.w3.org/1999/xlink">
<g id="graph0" class="graph" transform="scale(1 1) rotate(0) translate(4 86)">
<title>GEU::InterfaceAdapter::getLocalizedName</title>
<!-- Node1 -->
<g id="Node000001" class="node">
<title>Node1</title>
<g id="a_Node000001"><a xlink:title=" ">
<polygon fill="#999999" stroke="#666666" points="263,-57 149.5,-57 149.5,-25 263,-25 263,-57"/>
<text text-anchor="start" x="157.5" y="-43.5" font-family="Helvetica,sans-Serif" font-size="10.00">GEU::InterfaceAdapter</text>
<text text-anchor="middle" x="206.25" y="-31.5" font-family="Helvetica,sans-Serif" font-size="10.00">::getLocalizedName</text>
</a>
</g>
</g>
<!-- Node2 -->
<g id="Node000002" class="node">
<title>Node2</title>
<g id="a_Node000002"><a xlink:href="../../de/d04/a01809.html#a434d050fae07cd546444e24c054ddcfb" target="_top" xlink:title=" ">
<polygon fill="white" stroke="#666666" points="113.5,-82 0,-82 0,-50 113.5,-50 113.5,-82"/>
<text text-anchor="start" x="8" y="-68.5" font-family="Helvetica,sans-Serif" font-size="10.00">GEU::InterfaceAdapter</text>
<text text-anchor="middle" x="56.75" y="-56.5" font-family="Helvetica,sans-Serif" font-size="10.00">::getIconName</text>
</a>
</g>
</g>
<!-- Node1&#45;&gt;Node2 -->
<g id="edge1_Node000001_Node000002" class="edge">
<title>Node1&#45;&gt;Node2</title>
<g id="a_edge1_Node000001_Node000002"><a xlink:title=" ">
<path fill="none" stroke="#63b8ff" d="M137.81,-52.43C129.77,-53.79 121.63,-55.17 113.78,-56.5"/>
<polygon fill="#63b8ff" stroke="#63b8ff" points="138.3,-55.9 147.57,-50.78 137.13,-49 138.3,-55.9"/>
</a>
</g>
</g>
<!-- Node3 -->
<g id="Node000003" class="node">
<title>Node3</title>
<g id="a_Node000003"><a xlink:href="../../de/d04/a01809.html#a9de95b3c1f3bb6e12400c6c82c57a806" target="_top" xlink:title=" ">
<polygon fill="white" stroke="#666666" points="113.5,-32 0,-32 0,0 113.5,0 113.5,-32"/>
<text text-anchor="start" x="8" y="-18.5" font-family="Helvetica,sans-Serif" font-size="10.00">GEU::InterfaceAdapter</text>
<text text-anchor="middle" x="56.75" y="-6.5" font-family="Helvetica,sans-Serif" font-size="10.00">::getWindowName</text>
</a>
</g>
</g>
<!-- Node1&#45;&gt;Node3 -->
<g id="edge2_Node000001_Node000003" class="edge">
<title>Node1&#45;&gt;Node3</title>
<g id="a_edge2_Node000001_Node000003"><a xlink:title=" ">
<path fill="none" stroke="#63b8ff" d="M137.81,-29.57C129.77,-28.21 121.63,-26.83 113.78,-25.5"/>
<polygon fill="#63b8ff" stroke="#63b8ff" points="137.13,-33 147.57,-31.22 138.3,-26.1 137.13,-33"/>
</a>
</g>
</g>
</g>
</svg>
