<?xml version="1.0" encoding="UTF-8" standalone="no"?>
<!DOCTYPE svg PUBLIC "-//W3C//DTD SVG 1.1//EN"
 "http://www.w3.org/Graphics/SVG/1.1/DTD/svg11.dtd">
<!-- Generated by graphviz version 10.0.1 (20240210.2158)
 -->
<!-- Title: json::kvp_reader Pages: 1 -->
<svg width="102pt" height="208pt"
 viewBox="0.00 0.00 102.00 208.00" xmlns="http://www.w3.org/2000/svg" xmlns:xlink="http://www.w3.org/1999/xlink">
<g id="graph0" class="graph" transform="scale(1 1) rotate(0) translate(4 204)">
<title>json::kvp_reader</title>
<!-- Node1 -->
<g id="Node000001" class="node">
<title>Node1</title>
<g id="a_Node000001"><a xlink:title="Class for reading object key value pairs.">
<polygon fill="#999999" stroke="#666666" points="90.25,-20 3.75,-20 3.75,0 90.25,0 90.25,-20"/>
<text text-anchor="middle" x="47" y="-6.5" font-family="Helvetica,sans-Serif" font-size="10.00">json::kvp_reader</text>
</a>
</g>
</g>
<!-- Node2 -->
<g id="Node000002" class="node">
<title>Node2</title>
<g id="a_Node000002"><a xlink:href="../../d2/d07/classjson_1_1reader.html" target="_top" xlink:title="Value reader.">
<polygon fill="white" stroke="#666666" points="80.5,-76 13.5,-76 13.5,-56 80.5,-56 80.5,-76"/>
<text text-anchor="middle" x="47" y="-62.5" font-family="Helvetica,sans-Serif" font-size="10.00">json::reader</text>
</a>
</g>
</g>
<!-- Node2&#45;&gt;Node1 -->
<g id="edge1_Node000001_Node000002" class="edge">
<title>Node2&#45;&gt;Node1</title>
<g id="a_edge1_Node000001_Node000002"><a xlink:title=" ">
<path fill="none" stroke="#63b8ff" d="M47,-44.13C47,-35.9 47,-26.85 47,-20.3"/>
<polygon fill="#63b8ff" stroke="#63b8ff" points="43.5,-44.08 47,-54.08 50.5,-44.08 43.5,-44.08"/>
</a>
</g>
</g>
<!-- Node3 -->
<g id="Node000003" class="node">
<title>Node3</title>
<g id="a_Node000003"><a xlink:title=" ">
<polygon fill="white" stroke="#666666" points="76.75,-132 17.25,-132 17.25,-112 76.75,-112 76.75,-132"/>
<text text-anchor="middle" x="47" y="-118.5" font-family="Helvetica,sans-Serif" font-size="10.00">std::string</text>
</a>
</g>
</g>
<!-- Node3&#45;&gt;Node2 -->
<g id="edge2_Node000002_Node000003" class="edge">
<title>Node3&#45;&gt;Node2</title>
<g id="a_edge2_Node000002_Node000003"><a xlink:title=" ">
<path fill="none" stroke="darkgreen" d="M47,-100.13C47,-91.9 47,-82.85 47,-76.3"/>
<polygon fill="darkgreen" stroke="darkgreen" points="43.5,-100.08 47,-110.08 50.5,-100.08 43.5,-100.08"/>
</a>
</g>
</g>
<!-- Node4 -->
<g id="Node000004" class="node">
<title>Node4</title>
<g id="a_Node000004"><a xlink:title=" ">
<polygon fill="white" stroke="#666666" points="94,-200 0,-200 0,-168 94,-168 94,-200"/>
<text text-anchor="start" x="8" y="-186.5" font-family="Helvetica,sans-Serif" font-size="10.00">std::basic_string&lt;</text>
<text text-anchor="middle" x="47" y="-174.5" font-family="Helvetica,sans-Serif" font-size="10.00"> Char &gt;</text>
</a>
</g>
</g>
<!-- Node4&#45;&gt;Node3 -->
<g id="edge3_Node000003_Node000004" class="edge">
<title>Node4&#45;&gt;Node3</title>
<g id="a_edge3_Node000003_Node000004"><a xlink:title=" ">
<path fill="none" stroke="#63b8ff" d="M47,-156.08C47,-147.6 47,-138.8 47,-132.41"/>
<polygon fill="#63b8ff" stroke="#63b8ff" points="43.5,-156.03 47,-166.03 50.5,-156.03 43.5,-156.03"/>
</a>
</g>
</g>
</g>
</svg>
