<?xml version="1.0" encoding="UTF-8" standalone="no"?>
<!DOCTYPE svg PUBLIC "-//W3C//DTD SVG 1.1//EN"
 "http://www.w3.org/Graphics/SVG/1.1/DTD/svg11.dtd">
<!-- Generated by graphviz version 10.0.1 (20240210.2158)
 -->
<!-- Title: GEU::Renderer::loadRenderShaders Pages: 1 -->
<svg width="342pt" height="190pt"
 viewBox="0.00 0.00 341.50 190.00" xmlns="http://www.w3.org/2000/svg" xmlns:xlink="http://www.w3.org/1999/xlink">
<g id="graph0" class="graph" transform="scale(1 1) rotate(0) translate(4 186)">
<title>GEU::Renderer::loadRenderShaders</title>
<!-- Node1 -->
<g id="Node000001" class="node">
<title>Node1</title>
<g id="a_Node000001"><a xlink:title=" ">
<polygon fill="#999999" stroke="#666666" points="136.75,-132 0,-132 0,-100 136.75,-100 136.75,-132"/>
<text text-anchor="start" x="8" y="-118.5" font-family="Helvetica,sans-Serif" font-size="10.00">GEU::Renderer::loadRender</text>
<text text-anchor="middle" x="68.38" y="-106.5" font-family="Helvetica,sans-Serif" font-size="10.00">Shaders</text>
</a>
</g>
</g>
<!-- Node2 -->
<g id="Node000002" class="node">
<title>Node2</title>
<g id="a_Node000002"><a xlink:href="../../d7/d06/class_g_e_u_1_1_shader_manager.html#a3f7ed9bd4869a3f09673f39bc147e355" target="_top" xlink:title=" ">
<polygon fill="white" stroke="#666666" points="308.75,-182 197.5,-182 197.5,-150 308.75,-150 308.75,-182"/>
<text text-anchor="start" x="205.5" y="-168.5" font-family="Helvetica,sans-Serif" font-size="10.00">GEU::ShaderManager</text>
<text text-anchor="middle" x="253.12" y="-156.5" font-family="Helvetica,sans-Serif" font-size="10.00">::clearRenderShaders</text>
</a>
</g>
</g>
<!-- Node1&#45;&gt;Node2 -->
<g id="edge1_Node000001_Node000002" class="edge">
<title>Node1&#45;&gt;Node2</title>
<g id="a_edge1_Node000001_Node000002"><a xlink:title=" ">
<path fill="none" stroke="#63b8ff" d="M129.47,-132.44C147.64,-137.41 167.7,-142.9 186.24,-147.97"/>
<polygon fill="#63b8ff" stroke="#63b8ff" points="185.22,-151.32 195.79,-150.59 187.06,-144.57 185.22,-151.32"/>
</a>
</g>
</g>
<!-- Node3 -->
<g id="Node000003" class="node">
<title>Node3</title>
<g id="a_Node000003"><a xlink:href="../../d1/d01/class_g_e_u_1_1_singleton.html#a47c7e7c2110f4cc59c9ff1f5594c366e" target="_top" xlink:title=" ">
<polygon fill="white" stroke="#666666" points="333.5,-132 172.75,-132 172.75,-100 333.5,-100 333.5,-132"/>
<text text-anchor="start" x="180.75" y="-118.5" font-family="Helvetica,sans-Serif" font-size="10.00">GEU::Singleton&lt; ShaderManager</text>
<text text-anchor="middle" x="253.12" y="-106.5" font-family="Helvetica,sans-Serif" font-size="10.00"> &gt;::getInstance</text>
</a>
</g>
</g>
<!-- Node1&#45;&gt;Node3 -->
<g id="edge2_Node000001_Node000003" class="edge">
<title>Node1&#45;&gt;Node3</title>
<g id="a_edge2_Node000001_Node000003"><a xlink:title=" ">
<path fill="none" stroke="#63b8ff" d="M137.16,-109.45C144.97,-109.32 153.01,-109.25 161.06,-109.25"/>
<polygon fill="#63b8ff" stroke="#63b8ff" points="160.88,-112.75 170.89,-109.29 160.91,-105.75 160.88,-112.75"/>
</a>
</g>
</g>
<!-- Node1&#45;&gt;Node3 -->
<g id="edge3_Node000001_Node000003" class="edge">
<title>Node1&#45;&gt;Node3</title>
<g id="a_edge3_Node000001_Node000003"><a xlink:title=" ">
<path fill="none" stroke="#63b8ff" d="M137.16,-122.55C144.97,-122.68 153.01,-122.75 161.06,-122.75"/>
<polygon fill="#63b8ff" stroke="#63b8ff" points="160.91,-126.25 170.89,-122.71 160.88,-119.25 160.91,-126.25"/>
</a>
</g>
</g>
<!-- Node4 -->
<g id="Node000004" class="node">
<title>Node4</title>
<g id="a_Node000004"><a xlink:href="../../d7/d06/class_g_e_u_1_1_shader_manager.html#a467c277ef2f80bb92d7ad1a887e1f8ac" target="_top" xlink:title=" ">
<polygon fill="white" stroke="#666666" points="308.75,-82 197.5,-82 197.5,-50 308.75,-50 308.75,-82"/>
<text text-anchor="start" x="205.5" y="-68.5" font-family="Helvetica,sans-Serif" font-size="10.00">GEU::ShaderManager</text>
<text text-anchor="middle" x="253.12" y="-56.5" font-family="Helvetica,sans-Serif" font-size="10.00">::getRenderingShader</text>
</a>
</g>
</g>
<!-- Node1&#45;&gt;Node4 -->
<g id="edge4_Node000001_Node000004" class="edge">
<title>Node1&#45;&gt;Node4</title>
<g id="a_edge4_Node000001_Node000004"><a xlink:title=" ">
<path fill="none" stroke="#63b8ff" d="M129.47,-99.56C147.64,-94.59 167.7,-89.1 186.24,-84.03"/>
<polygon fill="#63b8ff" stroke="#63b8ff" points="187.06,-87.43 195.79,-81.41 185.22,-80.68 187.06,-87.43"/>
</a>
</g>
</g>
<!-- Node5 -->
<g id="Node000005" class="node">
<title>Node5</title>
<g id="a_Node000005"><a xlink:href="../../d8/d05/class_g_e_u_1_1_material_list.html#acc957c934384d13e5ccc65e5f536ad56" target="_top" xlink:title=" ">
<polygon fill="white" stroke="#666666" points="302.75,-32 203.5,-32 203.5,0 302.75,0 302.75,-32"/>
<text text-anchor="start" x="211.5" y="-18.5" font-family="Helvetica,sans-Serif" font-size="10.00">GEU::MaterialList::</text>
<text text-anchor="middle" x="253.12" y="-6.5" font-family="Helvetica,sans-Serif" font-size="10.00">saveMaterial</text>
</a>
</g>
</g>
<!-- Node1&#45;&gt;Node5 -->
<g id="edge5_Node000001_Node000005" class="edge">
<title>Node1&#45;&gt;Node5</title>
<g id="a_edge5_Node000001_Node000005"><a xlink:title=" ">
<path fill="none" stroke="#63b8ff" d="M87.98,-99.62C107.79,-82.9 140.67,-57.15 172.75,-41 179.02,-37.85 185.76,-34.99 192.58,-32.43"/>
<polygon fill="#63b8ff" stroke="#63b8ff" points="193.6,-35.78 201.87,-29.15 191.27,-29.18 193.6,-35.78"/>
</a>
</g>
</g>
</g>
</svg>
