<?xml version="1.0" encoding="UTF-8" standalone="no"?>
<!DOCTYPE svg PUBLIC "-//W3C//DTD SVG 1.1//EN"
 "http://www.w3.org/Graphics/SVG/1.1/DTD/svg11.dtd">
<!-- Generated by graphviz version 10.0.1 (20240210.2158)
 -->
<!-- Title: GEU::Application::loop Pages: 1 -->
<svg width="290pt" height="178pt"
 viewBox="0.00 0.00 289.75 178.00" xmlns="http://www.w3.org/2000/svg" xmlns:xlink="http://www.w3.org/1999/xlink">
<g id="graph0" class="graph" transform="scale(1 1) rotate(0) translate(4 174)">
<title>GEU::Application::loop</title>
<!-- Node1 -->
<g id="Node000001" class="node">
<title>Node1</title>
<g id="a_Node000001"><a xlink:title=" ">
<polygon fill="#999999" stroke="#666666" points="115,-92 0,-92 0,-72 115,-72 115,-92"/>
<text text-anchor="middle" x="57.5" y="-78.5" font-family="Helvetica,sans-Serif" font-size="10.00">GEU::Application::loop</text>
</a>
</g>
</g>
<!-- Node2 -->
<g id="Node000002" class="node">
<title>Node2</title>
<g id="a_Node000002"><a xlink:href="../../dd/d01/class_g_e_u_1_1_memory_manager.html#a02383aff23870e1b7c15068a4f77f0d6" target="_top" xlink:title=" ">
<polygon fill="white" stroke="#666666" points="274.25,-170 158.5,-170 158.5,-138 274.25,-138 274.25,-170"/>
<text text-anchor="start" x="166.5" y="-156.5" font-family="Helvetica,sans-Serif" font-size="10.00">GEU::MemoryManager</text>
<text text-anchor="middle" x="216.38" y="-144.5" font-family="Helvetica,sans-Serif" font-size="10.00">::generateLoadTask</text>
</a>
</g>
</g>
<!-- Node1&#45;&gt;Node2 -->
<g id="edge1_Node000001_Node000002" class="edge">
<title>Node1&#45;&gt;Node2</title>
<g id="a_edge1_Node000001_Node000002"><a xlink:title=" ">
<path fill="none" stroke="#63b8ff" d="M77.72,-92.47C96.24,-102.4 125.18,-117.46 151,-129 154.28,-130.47 157.68,-131.93 161.12,-133.38"/>
<polygon fill="#63b8ff" stroke="#63b8ff" points="159.52,-136.51 170.1,-137.06 162.18,-130.03 159.52,-136.51"/>
</a>
</g>
</g>
<!-- Node3 -->
<g id="Node000003" class="node">
<title>Node3</title>
<g id="a_Node000003"><a xlink:href="../../d9/d05/class_g_e_u_1_1_input_manager.html#af2ea72a4bd53eb6f69a5c873e4c22017" target="_top" xlink:title=" ">
<polygon fill="white" stroke="#666666" points="270.12,-120 162.62,-120 162.62,-88 270.12,-88 270.12,-120"/>
<text text-anchor="start" x="170.62" y="-106.5" font-family="Helvetica,sans-Serif" font-size="10.00">GEU::InputManager::</text>
<text text-anchor="middle" x="216.38" y="-94.5" font-family="Helvetica,sans-Serif" font-size="10.00">getApplicationState</text>
</a>
</g>
</g>
<!-- Node1&#45;&gt;Node3 -->
<g id="edge2_Node000001_Node000003" class="edge">
<title>Node1&#45;&gt;Node3</title>
<g id="a_edge2_Node000001_Node000003"><a xlink:title=" ">
<path fill="none" stroke="#63b8ff" d="M115.14,-89.94C126.77,-91.57 139.11,-93.3 151,-94.97"/>
<polygon fill="#63b8ff" stroke="#63b8ff" points="150.34,-98.41 160.72,-96.34 151.31,-91.48 150.34,-98.41"/>
</a>
</g>
</g>
<!-- Node4 -->
<g id="Node000004" class="node">
<title>Node4</title>
<g id="a_Node000004"><a xlink:href="../../de/d06/class_g_e_u_1_1_g_u_i.html#a8dc3b435e68148c79094024ab3e122bc" target="_top" xlink:title=" ">
<polygon fill="white" stroke="#666666" points="279.88,-70 152.88,-70 152.88,-50 279.88,-50 279.88,-70"/>
<text text-anchor="middle" x="216.38" y="-56.5" font-family="Helvetica,sans-Serif" font-size="10.00">GEU::GUI::getFrameRate</text>
</a>
</g>
</g>
<!-- Node1&#45;&gt;Node4 -->
<g id="edge3_Node000001_Node000004" class="edge">
<title>Node1&#45;&gt;Node4</title>
<g id="a_edge3_Node000001_Node000004"><a xlink:title=" ">
<path fill="none" stroke="#63b8ff" d="M115.14,-74.06C123.56,-72.88 132.34,-71.64 141.06,-70.42"/>
<polygon fill="#63b8ff" stroke="#63b8ff" points="141.53,-73.89 150.94,-69.04 140.56,-66.96 141.53,-73.89"/>
</a>
</g>
</g>
<!-- Node5 -->
<g id="Node000005" class="node">
<title>Node5</title>
<g id="a_Node000005"><a xlink:href="../../dd/d01/class_g_e_u_1_1_memory_manager.html#a0dd0a497b52354417492d92872583169" target="_top" xlink:title=" ">
<polygon fill="white" stroke="#666666" points="281.75,-32 151,-32 151,0 281.75,0 281.75,-32"/>
<text text-anchor="start" x="159" y="-18.5" font-family="Helvetica,sans-Serif" font-size="10.00">GEU::MemoryManager</text>
<text text-anchor="middle" x="216.38" y="-6.5" font-family="Helvetica,sans-Serif" font-size="10.00">::updateCurrentRamUsage</text>
</a>
</g>
</g>
<!-- Node1&#45;&gt;Node5 -->
<g id="edge4_Node000001_Node000005" class="edge">
<title>Node1&#45;&gt;Node5</title>
<g id="a_edge4_Node000001_Node000005"><a xlink:title=" ">
<path fill="none" stroke="#63b8ff" d="M81.18,-71.59C99.83,-63.12 126.99,-50.98 151,-41 154.54,-39.53 158.2,-38.04 161.89,-36.55"/>
<polygon fill="#63b8ff" stroke="#63b8ff" points="162.92,-39.91 170.92,-32.96 160.33,-33.4 162.92,-39.91"/>
</a>
</g>
</g>
</g>
</svg>
