<?xml version="1.0" encoding="UTF-8" standalone="no"?>
<!DOCTYPE svg PUBLIC "-//W3C//DTD SVG 1.1//EN"
 "http://www.w3.org/Graphics/SVG/1.1/DTD/svg11.dtd">
<!-- Generated by graphviz version 10.0.1 (20240210.2158)
 -->
<!-- Title: GEU::Renderer::generateCompactInfo Pages: 1 -->
<svg width="368pt" height="140pt"
 viewBox="0.00 0.00 367.75 140.00" xmlns="http://www.w3.org/2000/svg" xmlns:xlink="http://www.w3.org/1999/xlink">
<g id="graph0" class="graph" transform="scale(1 1) rotate(0) translate(4 136)">
<title>GEU::Renderer::generateCompactInfo</title>
<!-- Node1 -->
<g id="Node000001" class="node">
<title>Node1</title>
<g id="a_Node000001"><a xlink:title=" ">
<polygon fill="#999999" stroke="#666666" points="179.5,-76 0,-76 0,-56 179.5,-56 179.5,-76"/>
<text text-anchor="middle" x="89.75" y="-62.5" font-family="Helvetica,sans-Serif" font-size="10.00">GEU::Renderer::generateCompactInfo</text>
</a>
</g>
</g>
<!-- Node2 -->
<g id="Node000002" class="node">
<title>Node2</title>
<g id="a_Node000002"><a xlink:href="../../d4/d07/class_g_e_u_1_1_point_cloud.html#a83dca7dea682b5ffec3521e20f8926eb" target="_top" xlink:title=" ">
<polygon fill="white" stroke="#666666" points="359.75,-132 215.5,-132 215.5,-100 359.75,-100 359.75,-132"/>
<text text-anchor="start" x="223.5" y="-118.5" font-family="Helvetica,sans-Serif" font-size="10.00">GEU::PointCloud::getMeshlet</text>
<text text-anchor="middle" x="287.62" y="-106.5" font-family="Helvetica,sans-Serif" font-size="10.00">Number</text>
</a>
</g>
</g>
<!-- Node1&#45;&gt;Node2 -->
<g id="edge1_Node000001_Node000002" class="edge">
<title>Node1&#45;&gt;Node2</title>
<g id="a_edge1_Node000001_Node000002"><a xlink:title=" ">
<path fill="none" stroke="#63b8ff" d="M131.81,-76.48C154.78,-82.35 184.15,-89.84 211.11,-96.72"/>
<polygon fill="#63b8ff" stroke="#63b8ff" points="210.08,-100.07 220.63,-99.15 211.81,-93.29 210.08,-100.07"/>
</a>
</g>
</g>
<!-- Node3 -->
<g id="Node000003" class="node">
<title>Node3</title>
<g id="a_Node000003"><a xlink:href="../../d2/d01/struct_g_e_u_1_1_g_p_u_resources.html#a1589b3fea56264c818c48d8cac81ec5a" target="_top" xlink:title=" ">
<polygon fill="white" stroke="#666666" points="350.38,-82 224.88,-82 224.88,-50 350.38,-50 350.38,-82"/>
<text text-anchor="start" x="232.88" y="-68.5" font-family="Helvetica,sans-Serif" font-size="10.00">GEU::GPUResources::</text>
<text text-anchor="middle" x="287.62" y="-56.5" font-family="Helvetica,sans-Serif" font-size="10.00">readGPUMappedMemory</text>
</a>
</g>
</g>
<!-- Node1&#45;&gt;Node3 -->
<g id="edge2_Node000001_Node000003" class="edge">
<title>Node1&#45;&gt;Node3</title>
<g id="a_edge2_Node000001_Node000003"><a xlink:title=" ">
<path fill="none" stroke="#63b8ff" d="M179.8,-66C190.98,-66 202.31,-66 213.21,-66"/>
<polygon fill="#63b8ff" stroke="#63b8ff" points="212.87,-69.5 222.87,-66 212.87,-62.5 212.87,-69.5"/>
</a>
</g>
</g>
<!-- Node4 -->
<g id="Node000004" class="node">
<title>Node4</title>
<g id="a_Node000004"><a xlink:href="../../d2/d01/struct_g_e_u_1_1_g_p_u_resources.html#ada2e6b86c54fb930ddbeae8e235ef59c" target="_top" xlink:title=" ">
<polygon fill="white" stroke="#666666" points="345.88,-32 229.38,-32 229.38,0 345.88,0 345.88,-32"/>
<text text-anchor="start" x="237.38" y="-18.5" font-family="Helvetica,sans-Serif" font-size="10.00">GEU::GPUResources::</text>
<text text-anchor="middle" x="287.62" y="-6.5" font-family="Helvetica,sans-Serif" font-size="10.00">waitForLockedRange</text>
</a>
</g>
</g>
<!-- Node1&#45;&gt;Node4 -->
<g id="edge3_Node000001_Node000004" class="edge">
<title>Node1&#45;&gt;Node4</title>
<g id="a_edge3_Node000001_Node000004"><a xlink:title=" ">
<path fill="none" stroke="#63b8ff" d="M131.81,-55.52C156.78,-49.14 189.29,-40.85 218.08,-33.5"/>
<polygon fill="#63b8ff" stroke="#63b8ff" points="218.61,-36.97 227.44,-31.11 216.88,-30.19 218.61,-36.97"/>
</a>
</g>
</g>
</g>
</svg>
