<?xml version="1.0" encoding="UTF-8" standalone="no"?>
<!DOCTYPE svg PUBLIC "-//W3C//DTD SVG 1.1//EN"
 "http://www.w3.org/Graphics/SVG/1.1/DTD/svg11.dtd">
<!-- Generated by graphviz version 10.0.1 (20240210.2158)
 -->
<!-- Title: GEU::Model3D::getAABB Pages: 1 -->
<svg width="518pt" height="428pt"
 viewBox="0.00 0.00 518.00 428.00" xmlns="http://www.w3.org/2000/svg" xmlns:xlink="http://www.w3.org/1999/xlink">
<g id="graph0" class="graph" transform="scale(1 1) rotate(0) translate(4 424)">
<title>GEU::Model3D::getAABB</title>
<!-- Node1 -->
<g id="Node000001" class="node">
<title>Node1</title>
<g id="a_Node000001"><a xlink:title=" ">
<polygon fill="#999999" stroke="#666666" points="510,-220 382.25,-220 382.25,-200 510,-200 510,-220"/>
<text text-anchor="middle" x="446.12" y="-206.5" font-family="Helvetica,sans-Serif" font-size="10.00">GEU::Model3D::getAABB</text>
</a>
</g>
</g>
<!-- Node2 -->
<g id="Node000002" class="node">
<title>Node2</title>
<g id="a_Node000002"><a xlink:href="../../de/d05/a02072.html#a8cfce2a37af19646fd0c06ee3fb077ca" target="_top" xlink:title=" ">
<polygon fill="white" stroke="#666666" points="327.12,-420 215.88,-420 215.88,-388 327.12,-388 327.12,-420"/>
<text text-anchor="start" x="223.88" y="-406.5" font-family="Helvetica,sans-Serif" font-size="10.00">GEU::ImageCloudProj</text>
<text text-anchor="middle" x="271.5" y="-394.5" font-family="Helvetica,sans-Serif" font-size="10.00">::applyStructureMask</text>
</a>
</g>
</g>
<!-- Node1&#45;&gt;Node2 -->
<g id="edge1_Node000001_Node000002" class="edge">
<title>Node1&#45;&gt;Node2</title>
<g id="a_edge1_Node000001_Node000002"><a xlink:title=" ">
<path fill="none" stroke="#63b8ff" d="M438.34,-231.02C425.81,-266.57 395.72,-338.66 346.25,-379 340.7,-383.53 334.28,-387.25 327.6,-390.31"/>
<polygon fill="#63b8ff" stroke="#63b8ff" points="441.54,-232.49 441.43,-221.89 434.91,-230.24 441.54,-232.49"/>
</a>
</g>
</g>
<!-- Node3 -->
<g id="Node000003" class="node">
<title>Node3</title>
<g id="a_Node000003"><a xlink:href="../../de/d05/a02072.html#a1931d245c0168a9e7866bc8dd7904a07" target="_top" xlink:title=" ">
<polygon fill="white" stroke="#666666" points="329.38,-370 213.62,-370 213.62,-338 329.38,-338 329.38,-370"/>
<text text-anchor="start" x="221.62" y="-356.5" font-family="Helvetica,sans-Serif" font-size="10.00">GEU::ImageCloudProj</text>
<text text-anchor="middle" x="271.5" y="-344.5" font-family="Helvetica,sans-Serif" font-size="10.00">::applyVegetationMask</text>
</a>
</g>
</g>
<!-- Node1&#45;&gt;Node3 -->
<g id="edge2_Node000001_Node000003" class="edge">
<title>Node1&#45;&gt;Node3</title>
<g id="a_edge2_Node000001_Node000003"><a xlink:title=" ">
<path fill="none" stroke="#63b8ff" d="M433.55,-229.85C417.25,-256.13 385.16,-302.26 346.25,-329 341.12,-332.52 335.46,-335.59 329.62,-338.24"/>
<polygon fill="#63b8ff" stroke="#63b8ff" points="436.4,-231.89 438.57,-221.52 430.41,-228.27 436.4,-231.89"/>
</a>
</g>
</g>
<!-- Node4 -->
<g id="Node000004" class="node">
<title>Node4</title>
<g id="a_Node000004"><a xlink:href="../../da/d06/a02084.html#a5e5a6ec203139618f54a6479cc12dd56" target="_top" xlink:title=" ">
<polygon fill="white" stroke="#666666" points="337.62,-320 205.38,-320 205.38,-288 337.62,-288 337.62,-320"/>
<text text-anchor="start" x="213.38" y="-306.5" font-family="Helvetica,sans-Serif" font-size="10.00">GEU::ProceduralGenerator</text>
<text text-anchor="middle" x="271.5" y="-294.5" font-family="Helvetica,sans-Serif" font-size="10.00">::computeNURBS</text>
</a>
</g>
</g>
<!-- Node1&#45;&gt;Node4 -->
<g id="edge3_Node000001_Node000004" class="edge">
<title>Node1&#45;&gt;Node4</title>
<g id="a_edge3_Node000001_Node000004"><a xlink:title=" ">
<path fill="none" stroke="#63b8ff" d="M423.92,-227.47C404.62,-242.69 374.86,-264.54 346.25,-279 340.1,-282.11 333.47,-284.97 326.8,-287.57"/>
<polygon fill="#63b8ff" stroke="#63b8ff" points="425.95,-230.32 431.57,-221.33 421.57,-224.86 425.95,-230.32"/>
</a>
</g>
</g>
<!-- Node5 -->
<g id="Node000005" class="node">
<title>Node5</title>
<g id="a_Node000005"><a xlink:href="../../da/d06/a02084.html#a5fb6272591570506c14b2e194a9b3805" target="_top" xlink:title="Initialize the voxel grid.">
<polygon fill="white" stroke="#666666" points="337.62,-270 205.38,-270 205.38,-238 337.62,-238 337.62,-270"/>
<text text-anchor="start" x="213.38" y="-256.5" font-family="Helvetica,sans-Serif" font-size="10.00">GEU::ProceduralGenerator</text>
<text text-anchor="middle" x="271.5" y="-244.5" font-family="Helvetica,sans-Serif" font-size="10.00">::createVoxelGrid</text>
</a>
</g>
</g>
<!-- Node1&#45;&gt;Node5 -->
<g id="edge4_Node000001_Node000005" class="edge">
<title>Node1&#45;&gt;Node5</title>
<g id="a_edge4_Node000001_Node000005"><a xlink:title=" ">
<path fill="none" stroke="#63b8ff" d="M393.26,-223.22C375.59,-227.72 355.62,-232.81 337.07,-237.54"/>
<polygon fill="#63b8ff" stroke="#63b8ff" points="393.92,-226.66 402.75,-220.8 392.19,-219.88 393.92,-226.66"/>
</a>
</g>
</g>
<!-- Node6 -->
<g id="Node000006" class="node">
<title>Node6</title>
<g id="a_Node000006"><a xlink:href="../../de/d01/a01560.html#a40576296046dd7cbeb67cfcd7bdbcba8" target="_top" xlink:title=" ">
<polygon fill="white" stroke="#666666" points="335,-220 208,-220 208,-200 335,-200 335,-220"/>
<text text-anchor="middle" x="271.5" y="-206.5" font-family="Helvetica,sans-Serif" font-size="10.00">GEU::Camera::lookModel</text>
</a>
</g>
</g>
<!-- Node1&#45;&gt;Node6 -->
<g id="edge5_Node000001_Node000006" class="edge">
<title>Node1&#45;&gt;Node6</title>
<g id="a_edge5_Node000001_Node000006"><a xlink:title=" ">
<path fill="none" stroke="#63b8ff" d="M370.63,-210C358.82,-210 346.72,-210 335.21,-210"/>
<polygon fill="#63b8ff" stroke="#63b8ff" points="370.31,-213.5 380.31,-210 370.31,-206.5 370.31,-213.5"/>
</a>
</g>
</g>
<!-- Node8 -->
<g id="Node000008" class="node">
<title>Node8</title>
<g id="a_Node000008"><a xlink:href="../../d1/d06/a01496.html#ad35f61717358ebd11631e5b8c5ed9ff9" target="_top" xlink:title="Makes and handles basic enabled and POS/ROT/SCL edit controls.">
<polygon fill="white" stroke="#666666" points="346.25,-182 196.75,-182 196.75,-150 346.25,-150 346.25,-182"/>
<text text-anchor="start" x="204.75" y="-168.5" font-family="Helvetica,sans-Serif" font-size="10.00">GEU::DetailsWindow</text>
<text text-anchor="middle" x="271.5" y="-156.5" font-family="Helvetica,sans-Serif" font-size="10.00">::makeBasicTransformControls</text>
</a>
</g>
</g>
<!-- Node1&#45;&gt;Node8 -->
<g id="edge7_Node000001_Node000008" class="edge">
<title>Node1&#45;&gt;Node8</title>
<g id="a_edge7_Node000001_Node000008"><a xlink:title=" ">
<path fill="none" stroke="#63b8ff" d="M393.26,-196.78C375.59,-192.28 355.62,-187.19 337.07,-182.46"/>
<polygon fill="#63b8ff" stroke="#63b8ff" points="392.19,-200.12 402.75,-199.2 393.92,-193.34 392.19,-200.12"/>
</a>
</g>
</g>
<!-- Node9 -->
<g id="Node000009" class="node">
<title>Node9</title>
<g id="a_Node000009"><a xlink:href="../../d7/d02/a02036.html#a32cec8b0ea288f27e15946d5a4ea3728" target="_top" xlink:title=" ">
<polygon fill="white" stroke="#666666" points="325.25,-132 217.75,-132 217.75,-100 325.25,-100 325.25,-132"/>
<text text-anchor="start" x="225.75" y="-118.5" font-family="Helvetica,sans-Serif" font-size="10.00">NormalesGUIAdapter</text>
<text text-anchor="middle" x="271.5" y="-106.5" font-family="Helvetica,sans-Serif" font-size="10.00">::offsetMethod</text>
</a>
</g>
</g>
<!-- Node1&#45;&gt;Node9 -->
<g id="edge8_Node000001_Node000009" class="edge">
<title>Node1&#45;&gt;Node9</title>
<g id="a_edge8_Node000001_Node000009"><a xlink:title=" ">
<path fill="none" stroke="#63b8ff" d="M423.92,-192.53C404.62,-177.31 374.86,-155.46 346.25,-141 339.73,-137.71 332.69,-134.69 325.62,-131.98"/>
<polygon fill="#63b8ff" stroke="#63b8ff" points="421.57,-195.14 431.57,-198.67 425.95,-189.68 421.57,-195.14"/>
</a>
</g>
</g>
<!-- Node11 -->
<g id="Node000011" class="node">
<title>Node11</title>
<g id="a_Node000011"><a xlink:href="../../da/d06/a02084.html#ab8413581fb4ba7ab9709a72bca03ce64" target="_top" xlink:title="Assign each point of the PointCloud to the corresponding voxel in the voxel grid and computes the cor...">
<polygon fill="white" stroke="#666666" points="337.62,-82 205.38,-82 205.38,-50 337.62,-50 337.62,-82"/>
<text text-anchor="start" x="213.38" y="-68.5" font-family="Helvetica,sans-Serif" font-size="10.00">GEU::ProceduralGenerator</text>
<text text-anchor="middle" x="271.5" y="-56.5" font-family="Helvetica,sans-Serif" font-size="10.00">::subdivideCloud</text>
</a>
</g>
</g>
<!-- Node1&#45;&gt;Node11 -->
<g id="edge10_Node000001_Node000011" class="edge">
<title>Node1&#45;&gt;Node11</title>
<g id="a_edge10_Node000001_Node000011"><a xlink:title=" ">
<path fill="none" stroke="#63b8ff" d="M433.55,-190.15C417.25,-163.87 385.16,-117.74 346.25,-91 341.57,-87.78 336.44,-84.95 331.14,-82.46"/>
<polygon fill="#63b8ff" stroke="#63b8ff" points="430.41,-191.73 438.57,-198.48 436.4,-188.11 430.41,-191.73"/>
</a>
</g>
</g>
<!-- Node12 -->
<g id="Node000012" class="node">
<title>Node12</title>
<g id="a_Node000012"><a xlink:href="../../de/d05/a02072.html#a9113b9f785ba6dd50b0af47a3a5a1ecb" target="_top" xlink:title=" ">
<polygon fill="white" stroke="#666666" points="327.12,-32 215.88,-32 215.88,0 327.12,0 327.12,-32"/>
<text text-anchor="start" x="223.88" y="-18.5" font-family="Helvetica,sans-Serif" font-size="10.00">GEU::ImageCloudProj</text>
<text text-anchor="middle" x="271.5" y="-6.5" font-family="Helvetica,sans-Serif" font-size="10.00">::validation</text>
</a>
</g>
</g>
<!-- Node1&#45;&gt;Node12 -->
<g id="edge11_Node000001_Node000012" class="edge">
<title>Node1&#45;&gt;Node12</title>
<g id="a_edge11_Node000001_Node000012"><a xlink:title=" ">
<path fill="none" stroke="#63b8ff" d="M438.34,-188.98C425.81,-153.43 395.72,-81.34 346.25,-41 340.7,-36.47 334.28,-32.75 327.6,-29.69"/>
<polygon fill="#63b8ff" stroke="#63b8ff" points="434.91,-189.76 441.43,-198.11 441.54,-187.51 434.91,-189.76"/>
</a>
</g>
</g>
<!-- Node7 -->
<g id="Node000007" class="node">
<title>Node7</title>
<g id="a_Node000007"><a xlink:href="../../de/d05/a01500.html#a63b0402d61dd34944da9280a89fa9f74" target="_top" xlink:title="Renders the window and contents.">
<polygon fill="white" stroke="#666666" points="139,-226 21.75,-226 21.75,-194 139,-194 139,-226"/>
<text text-anchor="start" x="29.75" y="-212.5" font-family="Helvetica,sans-Serif" font-size="10.00">GEU::InspectorWindow</text>
<text text-anchor="middle" x="80.38" y="-200.5" font-family="Helvetica,sans-Serif" font-size="10.00">::renderWindow</text>
</a>
</g>
</g>
<!-- Node6&#45;&gt;Node7 -->
<g id="edge6_Node000006_Node000007" class="edge">
<title>Node6&#45;&gt;Node7</title>
<g id="a_edge6_Node000006_Node000007"><a xlink:title=" ">
<path fill="none" stroke="#63b8ff" d="M196.23,-210C177.31,-210 157.26,-210 139.29,-210"/>
<polygon fill="#63b8ff" stroke="#63b8ff" points="196.01,-213.5 206.01,-210 196.01,-206.5 196.01,-213.5"/>
</a>
</g>
</g>
<!-- Node10 -->
<g id="Node000010" class="node">
<title>Node10</title>
<g id="a_Node000010"><a xlink:href="../../d7/d02/a02036.html#ad27c678722407ed6f3d2bb41ccc2b640" target="_top" xlink:title="Custom module GUI window contents.">
<polygon fill="white" stroke="#666666" points="134.12,-132 26.62,-132 26.62,-100 134.12,-100 134.12,-132"/>
<text text-anchor="start" x="34.62" y="-118.5" font-family="Helvetica,sans-Serif" font-size="10.00">NormalesGUIAdapter</text>
<text text-anchor="middle" x="80.38" y="-106.5" font-family="Helvetica,sans-Serif" font-size="10.00">::renderGuiObject</text>
</a>
</g>
</g>
<!-- Node9&#45;&gt;Node10 -->
<g id="edge9_Node000009_Node000010" class="edge">
<title>Node9&#45;&gt;Node10</title>
<g id="a_edge9_Node000009_Node000010"><a xlink:title=" ">
<path fill="none" stroke="#63b8ff" d="M206.11,-116C182.79,-116 156.73,-116 134.49,-116"/>
<polygon fill="#63b8ff" stroke="#63b8ff" points="205.8,-119.5 215.8,-116 205.8,-112.5 205.8,-119.5"/>
</a>
</g>
</g>
<!-- Node13 -->
<g id="Node000013" class="node">
<title>Node13</title>
<g id="a_Node000013"><a xlink:href="../../d4/d00/a02092.html#a2918ca118794a47873dbc1df297d68d7" target="_top" xlink:title="Custom module GUI window contents.">
<polygon fill="white" stroke="#666666" points="160.75,-32 0,-32 0,0 160.75,0 160.75,-32"/>
<text text-anchor="start" x="8" y="-18.5" font-family="Helvetica,sans-Serif" font-size="10.00">GEU::ReconstruccionGUIAdapter</text>
<text text-anchor="middle" x="80.38" y="-6.5" font-family="Helvetica,sans-Serif" font-size="10.00">::renderGuiObject</text>
</a>
</g>
</g>
<!-- Node12&#45;&gt;Node13 -->
<g id="edge12_Node000012_Node000013" class="edge">
<title>Node12&#45;&gt;Node13</title>
<g id="a_edge12_Node000012_Node000013"><a xlink:title=" ">
<path fill="none" stroke="#63b8ff" d="M204.11,-16C190.21,-16 175.42,-16 161.09,-16"/>
<polygon fill="#63b8ff" stroke="#63b8ff" points="204.03,-19.5 214.03,-16 204.03,-12.5 204.03,-19.5"/>
</a>
</g>
</g>
</g>
</svg>
