<?xml version="1.0" encoding="UTF-8" standalone="no"?>
<!DOCTYPE svg PUBLIC "-//W3C//DTD SVG 1.1//EN"
 "http://www.w3.org/Graphics/SVG/1.1/DTD/svg11.dtd">
<!-- Generated by graphviz version 10.0.1 (20240210.2158)
 -->
<!-- Title: json::parsing::parse_array Pages: 1 -->
<svg width="264pt" height="190pt"
 viewBox="0.00 0.00 263.50 190.00" xmlns="http://www.w3.org/2000/svg" xmlns:xlink="http://www.w3.org/1999/xlink">
<g id="graph0" class="graph" transform="scale(1 1) rotate(0) translate(4 186)">
<title>json::parsing::parse_array</title>
<!-- Node1 -->
<g id="Node000001" class="node">
<title>Node1</title>
<g id="a_Node000001"><a xlink:title="Parses a JSON array.">
<polygon fill="#999999" stroke="#666666" points="255.5,-107 154,-107 154,-75 255.5,-75 255.5,-107"/>
<text text-anchor="start" x="162" y="-93.5" font-family="Helvetica,sans-Serif" font-size="10.00">json::parsing::parse</text>
<text text-anchor="middle" x="204.75" y="-81.5" font-family="Helvetica,sans-Serif" font-size="10.00">_array</text>
</a>
</g>
</g>
<!-- Node2 -->
<g id="Node000002" class="node">
<title>Node2</title>
<g id="a_Node000002"><a xlink:href="../../d8/d00/a02009.html#a16ced6515b05d5aa304068a4c0eb4a96" target="_top" xlink:title="Returns another constant value from this array.">
<polygon fill="white" stroke="#666666" points="108.25,-182 9.75,-182 9.75,-150 108.25,-150 108.25,-182"/>
<text text-anchor="start" x="17.75" y="-168.5" font-family="Helvetica,sans-Serif" font-size="10.00">json::jobject::const</text>
<text text-anchor="middle" x="59" y="-156.5" font-family="Helvetica,sans-Serif" font-size="10.00">_proxy::array</text>
</a>
</g>
</g>
<!-- Node1&#45;&gt;Node2 -->
<g id="edge1_Node000001_Node000002" class="edge">
<title>Node1&#45;&gt;Node2</title>
<g id="a_edge1_Node000001_Node000002"><a xlink:title=" ">
<path fill="none" stroke="#63b8ff" d="M168.03,-113.13C152.84,-122.2 134.78,-132.53 118,-141 112.22,-143.92 106.03,-146.81 99.92,-149.55"/>
<polygon fill="#63b8ff" stroke="#63b8ff" points="169.5,-116.33 176.26,-108.16 165.89,-110.33 169.5,-116.33"/>
</a>
</g>
</g>
<!-- Node3 -->
<g id="Node000003" class="node">
<title>Node3</title>
<g id="a_Node000003"><a xlink:href="../../d8/d04/a02001.html#ae00094f2c15fb3c00ca0bad03af0d796" target="_top" xlink:title="Converts a serialized array of numbers to a vector of numbers.">
<polygon fill="white" stroke="#666666" points="109,-132 9,-132 9,-100 109,-100 109,-132"/>
<text text-anchor="start" x="17" y="-118.5" font-family="Helvetica,sans-Serif" font-size="10.00">json::jobject::entry</text>
<text text-anchor="middle" x="59" y="-106.5" font-family="Helvetica,sans-Serif" font-size="10.00">::get_number_array</text>
</a>
</g>
</g>
<!-- Node1&#45;&gt;Node3 -->
<g id="edge2_Node000001_Node000003" class="edge">
<title>Node1&#45;&gt;Node3</title>
<g id="a_edge2_Node000001_Node000003"><a xlink:title=" ">
<path fill="none" stroke="#63b8ff" d="M142.85,-101.59C131.65,-103.54 120.1,-105.55 109.3,-107.43"/>
<polygon fill="#63b8ff" stroke="#63b8ff" points="143.13,-105.09 152.39,-99.93 141.93,-98.2 143.13,-105.09"/>
</a>
</g>
</g>
<!-- Node4 -->
<g id="Node000004" class="node">
<title>Node4</title>
<g id="a_Node000004"><a xlink:href="../../d8/d04/a02001.html#aed0ba8146d3b175190a73fec57c547dc" target="_top" xlink:title="Casts an array of JSON objects.">
<polygon fill="white" stroke="#666666" points="118,-82 0,-82 0,-50 118,-50 118,-82"/>
<text text-anchor="start" x="8" y="-68.5" font-family="Helvetica,sans-Serif" font-size="10.00">json::jobject::entry</text>
<text text-anchor="middle" x="59" y="-56.5" font-family="Helvetica,sans-Serif" font-size="10.00">::vector&lt; json::jobject &gt;</text>
</a>
</g>
</g>
<!-- Node1&#45;&gt;Node4 -->
<g id="edge3_Node000001_Node000004" class="edge">
<title>Node1&#45;&gt;Node4</title>
<g id="a_edge3_Node000001_Node000004"><a xlink:title=" ">
<path fill="none" stroke="#63b8ff" d="M142.68,-80.38C134.64,-78.98 126.42,-77.55 118.43,-76.16"/>
<polygon fill="#63b8ff" stroke="#63b8ff" points="141.93,-83.8 152.39,-82.07 143.13,-76.91 141.93,-83.8"/>
</a>
</g>
</g>
<!-- Node5 -->
<g id="Node000005" class="node">
<title>Node5</title>
<g id="a_Node000005"><a xlink:href="../../d8/d04/a02001.html#aacc6e73c8dd5cac11fd7bcff6eb82893" target="_top" xlink:title="Casts an array of strings.">
<polygon fill="white" stroke="#666666" points="113.5,-32 4.5,-32 4.5,0 113.5,0 113.5,-32"/>
<text text-anchor="start" x="12.5" y="-18.5" font-family="Helvetica,sans-Serif" font-size="10.00">json::jobject::entry</text>
<text text-anchor="middle" x="59" y="-6.5" font-family="Helvetica,sans-Serif" font-size="10.00">::vector&lt; std::string &gt;</text>
</a>
</g>
</g>
<!-- Node1&#45;&gt;Node5 -->
<g id="edge4_Node000001_Node000005" class="edge">
<title>Node1&#45;&gt;Node5</title>
<g id="a_edge4_Node000001_Node000005"><a xlink:title=" ">
<path fill="none" stroke="#63b8ff" d="M168.03,-68.87C152.84,-59.8 134.78,-49.47 118,-41 112.22,-38.08 106.03,-35.19 99.92,-32.45"/>
<polygon fill="#63b8ff" stroke="#63b8ff" points="165.89,-71.67 176.26,-73.84 169.5,-65.67 165.89,-71.67"/>
</a>
</g>
</g>
</g>
</svg>
