<?xml version="1.0" encoding="UTF-8" standalone="no"?>
<!DOCTYPE svg PUBLIC "-//W3C//DTD SVG 1.1//EN"
 "http://www.w3.org/Graphics/SVG/1.1/DTD/svg11.dtd">
<!-- Generated by graphviz version 10.0.1 (20240210.2158)
 -->
<!-- Title: C:/GitHub/GEU/GEU/Source/UI/I_GUIPopup.h Pages: 1 -->
<!--zoomable 404 -->

<svg id="main" version="1.1" xmlns="http://www.w3.org/2000/svg" xmlns:xlink="http://www.w3.org/1999/xlink" xml:space="preserve" onload="init(evt)">
<style type="text/css"><![CDATA[
.node, .edge {opacity: 0.7;}
.node.selected, .edge.selected {opacity: 1;}
.edge:hover path { stroke: red; }
.edge:hover polygon { stroke: red; fill: red; }
]]></style>

<defs>
  <circle id="rim" cx="0" cy="0" r="7"/>
  <circle id="rim2" cx="0" cy="0" r="3.5"/>
  <g id="zoomPlus">
    <use xlink:href="#rim" fill="#404040"><set attributeName="fill" to="#808080" begin="zoomplus.mouseover" end="zoomplus.mouseout"/></use>
    <path d="M-4,0h8M0,-4v8" fill="none" stroke="white" stroke-width="1.5" pointer-events="none"/>
  </g>
  <g id="zoomMin">
    <use xlink:href="#rim" fill="#404040"><set attributeName="fill" to="#808080" begin="zoomminus.mouseover" end="zoomminus.mouseout"/></use>
    <path d="M-4,0h8" fill="none" stroke="white" stroke-width="1.5" pointer-events="none"/>
  </g>
  <g id="arrowUp" transform="translate(30 24)">
    <use xlink:href="#rim"/>
    <path pointer-events="none" fill="none" stroke="white" stroke-width="1.5" d="M0,-3.0v7 M-2.5,-0.5L0,-3.0L2.5,-0.5"/>
  </g>
  <g id="arrowRight" transform="rotate(90) translate(36 -43)">
    <use xlink:href="#rim"/>
    <path pointer-events="none" fill="none" stroke="white" stroke-width="1.5" d="M0,-3.0v7 M-2.5,-0.5L0,-3.0L2.5,-0.5"/>
  </g>
  <g id="arrowDown" transform="rotate(180) translate(-30 -48)">
    <use xlink:href="#rim"/>
    <path pointer-events="none" fill="none" stroke="white" stroke-width="1.5" d="M0,-3.0v7 M-2.5,-0.5L0,-3.0L2.5,-0.5"/>
  </g>
  <g id="arrowLeft" transform="rotate(270) translate(-36 17)">
    <use xlink:href="#rim"/>
    <path pointer-events="none" fill="none" stroke="white" stroke-width="1.5" d="M0,-3.0v7 M-2.5,-0.5L0,-3.0L2.5,-0.5"/>
  </g>
  <g id="resetDef">
    <use xlink:href="#rim2" fill="#404040"><set attributeName="fill" to="#808080" begin="reset.mouseover" end="reset.mouseout"/></use>
  </g>
</defs>
<script type="application/ecmascript">
var viewWidth = 3263;
var viewHeight = 404;
var sectionId = 'dynsection-1';
</script>
<script type="application/ecmascript" xlink:href="../../svg.min.js"/>
<svg id="graph" class="graph">
<g id="viewport">
<title>C:/GitHub/GEU/GEU/Source/UI/I_GUIPopup.h</title>
<!-- Node1 -->
<g id="Node000001" class="node">
<title>Node1</title>
<g id="a_Node000001"><a xlink:title=" ">
<polygon fill="#999999" stroke="#666666" points="2606.5,-396 2466,-396 2466,-364 2606.5,-364 2606.5,-396"/>
<text text-anchor="start" x="2474" y="-382.5" font-family="Helvetica,sans-Serif" font-size="10.00">C:/GitHub/GEU/GEU/Source</text>
<text text-anchor="middle" x="2536.25" y="-370.5" font-family="Helvetica,sans-Serif" font-size="10.00">/UI/I_GUIPopup.h</text>
</a>
</g>
</g>
<!-- Node2 -->
<g id="Node000002" class="node">
<title>Node2</title>
<g id="a_Node000002"><a xlink:href="../../d6/dd5/_cloud_export_dialog_popup_8h.html" target="_top" xlink:title=" ">
<polygon fill="white" stroke="#666666" points="577.88,-260 430.62,-260 430.62,-228 577.88,-228 577.88,-260"/>
<text text-anchor="start" x="438.62" y="-246.5" font-family="Helvetica,sans-Serif" font-size="10.00">C:/GitHub/GEU/GEU/Source</text>
<text text-anchor="middle" x="504.25" y="-234.5" font-family="Helvetica,sans-Serif" font-size="10.00">/UI/CloudExportDialogPopup.h</text>
</a>
</g>
</g>
<!-- Node1&#45;&gt;Node2 -->
<g id="edge1_Node000001_Node000002" class="edge">
<title>Node1&#45;&gt;Node2</title>
<g id="a_edge1_Node000001_Node000002"><a xlink:title=" ">
<path fill="none" stroke="#63b8ff" d="M2454.35,-373.6C2124.22,-351.83 893.8,-270.69 578.33,-249.89"/>
<polygon fill="#63b8ff" stroke="#63b8ff" points="2453.99,-377.08 2464.2,-374.25 2454.46,-370.1 2453.99,-377.08"/>
</a>
</g>
</g>
<!-- Node4 -->
<g id="Node000004" class="node">
<title>Node4</title>
<g id="a_Node000004"><a xlink:href="../../da/d1b/_confirm_close_popup_8h.html" target="_top" xlink:title=" ">
<polygon fill="white" stroke="#666666" points="2257.5,-328 2117,-328 2117,-296 2257.5,-296 2257.5,-328"/>
<text text-anchor="start" x="2125" y="-314.5" font-family="Helvetica,sans-Serif" font-size="10.00">C:/GitHub/GEU/GEU/Source</text>
<text text-anchor="middle" x="2187.25" y="-302.5" font-family="Helvetica,sans-Serif" font-size="10.00">/UI/ConfirmClosePopup.h</text>
</a>
</g>
</g>
<!-- Node1&#45;&gt;Node4 -->
<g id="edge3_Node000001_Node000004" class="edge">
<title>Node1&#45;&gt;Node4</title>
<g id="a_edge3_Node000001_Node000004"><a xlink:title=" ">
<path fill="none" stroke="#63b8ff" d="M2454.35,-363.51C2394.66,-352.22 2314.63,-337.09 2257.77,-326.34"/>
<polygon fill="#63b8ff" stroke="#63b8ff" points="2453.66,-366.94 2464.14,-365.36 2454.96,-360.07 2453.66,-366.94"/>
</a>
</g>
</g>
<!-- Node5 -->
<g id="Node000005" class="node">
<title>Node5</title>
<g id="a_Node000005"><a xlink:href="../../d0/df1/_confirm_popup_8h.html" target="_top" xlink:title=" ">
<polygon fill="white" stroke="#666666" points="2969.5,-260 2829,-260 2829,-228 2969.5,-228 2969.5,-260"/>
<text text-anchor="start" x="2837" y="-246.5" font-family="Helvetica,sans-Serif" font-size="10.00">C:/GitHub/GEU/GEU/Source</text>
<text text-anchor="middle" x="2899.25" y="-234.5" font-family="Helvetica,sans-Serif" font-size="10.00">/UI/ConfirmPopup.h</text>
</a>
</g>
</g>
<!-- Node1&#45;&gt;Node5 -->
<g id="edge4_Node000001_Node000005" class="edge">
<title>Node1&#45;&gt;Node5</title>
<g id="a_edge4_Node000001_Node000005"><a xlink:title=" ">
<path fill="none" stroke="#63b8ff" d="M2598.35,-360.1C2627.61,-350.9 2662.9,-339.39 2694.25,-328 2754.16,-306.24 2822.57,-277.8 2863.27,-260.49"/>
<polygon fill="#63b8ff" stroke="#63b8ff" points="2597.39,-356.73 2588.89,-363.06 2599.48,-363.41 2597.39,-356.73"/>
</a>
</g>
</g>
<!-- Node10 -->
<g id="Node000010" class="node">
<title>Node10</title>
<g id="a_Node000010"><a xlink:href="../../dd/dd1/_database_new_raw_popup_8h.html" target="_top" xlink:title=" ">
<polygon fill="white" stroke="#666666" points="2459.12,-328 2313.38,-328 2313.38,-296 2459.12,-296 2459.12,-328"/>
<text text-anchor="start" x="2321.38" y="-314.5" font-family="Helvetica,sans-Serif" font-size="10.00">C:/GitHub/GEU/GEU/Source</text>
<text text-anchor="middle" x="2386.25" y="-302.5" font-family="Helvetica,sans-Serif" font-size="10.00">/UI/DatabaseNewRawPopup.h</text>
</a>
</g>
</g>
<!-- Node1&#45;&gt;Node10 -->
<g id="edge9_Node000001_Node000010" class="edge">
<title>Node1&#45;&gt;Node10</title>
<g id="a_edge9_Node000001_Node000010"><a xlink:title=" ">
<path fill="none" stroke="#63b8ff" d="M2490.55,-358.89C2468.35,-349.12 2442.08,-337.56 2421.46,-328.49"/>
<polygon fill="#63b8ff" stroke="#63b8ff" points="2489.13,-362.09 2499.7,-362.92 2491.95,-355.69 2489.13,-362.09"/>
</a>
</g>
</g>
<!-- Node11 -->
<g id="Node000011" class="node">
<title>Node11</title>
<g id="a_Node000011"><a xlink:href="../../d3/ddb/_database_new_vuelo_popup_8h.html" target="_top" xlink:title=" ">
<polygon fill="white" stroke="#666666" points="3052.12,-328 2900.38,-328 2900.38,-296 3052.12,-296 3052.12,-328"/>
<text text-anchor="start" x="2908.38" y="-314.5" font-family="Helvetica,sans-Serif" font-size="10.00">C:/GitHub/GEU/GEU/Source</text>
<text text-anchor="middle" x="2976.25" y="-302.5" font-family="Helvetica,sans-Serif" font-size="10.00">/UI/DatabaseNewVueloPopup.h</text>
</a>
</g>
</g>
<!-- Node1&#45;&gt;Node11 -->
<g id="edge10_Node000001_Node000011" class="edge">
<title>Node1&#45;&gt;Node11</title>
<g id="a_edge10_Node000001_Node000011"><a xlink:title=" ">
<path fill="none" stroke="#63b8ff" d="M2618.06,-366.73C2698.86,-354.61 2821.45,-336.22 2900.19,-324.41"/>
<polygon fill="#63b8ff" stroke="#63b8ff" points="2617.81,-363.23 2608.44,-368.17 2618.85,-370.15 2617.81,-363.23"/>
</a>
</g>
</g>
<!-- Node12 -->
<g id="Node000012" class="node">
<title>Node12</title>
<g id="a_Node000012"><a xlink:href="../../dc/d38/_database_query_popup_8h.html" target="_top" xlink:title=" ">
<polygon fill="white" stroke="#666666" points="2800.5,-260 2660,-260 2660,-228 2800.5,-228 2800.5,-260"/>
<text text-anchor="start" x="2668" y="-246.5" font-family="Helvetica,sans-Serif" font-size="10.00">C:/GitHub/GEU/GEU/Source</text>
<text text-anchor="middle" x="2730.25" y="-234.5" font-family="Helvetica,sans-Serif" font-size="10.00">/UI/DatabaseQueryPopup.h</text>
</a>
</g>
</g>
<!-- Node1&#45;&gt;Node12 -->
<g id="edge12_Node000001_Node000012" class="edge">
<title>Node1&#45;&gt;Node12</title>
<g id="a_edge12_Node000001_Node000012"><a xlink:title=" ">
<path fill="none" stroke="#63b8ff" d="M2603.4,-359.72C2624.1,-351.87 2646.18,-341.43 2664.25,-328 2689.37,-309.33 2710.23,-278.86 2721.41,-260.49"/>
<polygon fill="#63b8ff" stroke="#63b8ff" points="2602.37,-356.37 2594.16,-363.07 2604.75,-362.95 2602.37,-356.37"/>
</a>
</g>
</g>
<!-- Node14 -->
<g id="Node000014" class="node">
<title>Node14</title>
<g id="a_Node000014"><a xlink:href="../../dc/dc5/_file_dialog_popup_8h.html" target="_top" xlink:title=" ">
<polygon fill="white" stroke="#666666" points="2655.5,-328 2515,-328 2515,-296 2655.5,-296 2655.5,-328"/>
<text text-anchor="start" x="2523" y="-314.5" font-family="Helvetica,sans-Serif" font-size="10.00">C:/GitHub/GEU/GEU/Source</text>
<text text-anchor="middle" x="2585.25" y="-302.5" font-family="Helvetica,sans-Serif" font-size="10.00">/UI/FileDialogPopup.h</text>
</a>
</g>
</g>
<!-- Node1&#45;&gt;Node14 -->
<g id="edge16_Node000001_Node000014" class="edge">
<title>Node1&#45;&gt;Node14</title>
<g id="a_edge16_Node000001_Node000014"><a xlink:title=" ">
<path fill="none" stroke="#63b8ff" d="M2554.38,-354.59C2560.93,-345.75 2568.14,-336.04 2573.95,-328.22"/>
<polygon fill="#63b8ff" stroke="#63b8ff" points="2551.67,-352.36 2548.52,-362.48 2557.29,-356.53 2551.67,-352.36"/>
</a>
</g>
</g>
<!-- Node15 -->
<g id="Node000015" class="node">
<title>Node15</title>
<g id="a_Node000015"><a xlink:href="../../da/d5d/_g_u_i_8h.html" target="_top" xlink:title=" ">
<polygon fill="white" stroke="#666666" points="2536.5,-260 2396,-260 2396,-228 2536.5,-228 2536.5,-260"/>
<text text-anchor="start" x="2404" y="-246.5" font-family="Helvetica,sans-Serif" font-size="10.00">C:/GitHub/GEU/GEU/Source</text>
<text text-anchor="middle" x="2466.25" y="-234.5" font-family="Helvetica,sans-Serif" font-size="10.00">/UI/GUI.h</text>
</a>
</g>
</g>
<!-- Node1&#45;&gt;Node15 -->
<g id="edge47_Node000001_Node000015" class="edge">
<title>Node1&#45;&gt;Node15</title>
<g id="a_edge47_Node000001_Node000015"><a xlink:title=" ">
<path fill="none" stroke="#63b8ff" d="M2520.91,-353.87C2516.08,-345.7 2510.81,-336.54 2506.25,-328 2493.89,-304.86 2480.95,-277.3 2473.25,-260.49"/>
<polygon fill="#63b8ff" stroke="#63b8ff" points="2517.8,-355.49 2525.94,-362.27 2523.81,-351.89 2517.8,-355.49"/>
</a>
</g>
</g>
<!-- Node35 -->
<g id="Node000035" class="node">
<title>Node35</title>
<g id="a_Node000035"><a xlink:href="../../d6/d4e/_info_popup_8h.html" target="_top" xlink:title=" ">
<polygon fill="white" stroke="#666666" points="3254.5,-260 3114,-260 3114,-228 3254.5,-228 3254.5,-260"/>
<text text-anchor="start" x="3122" y="-246.5" font-family="Helvetica,sans-Serif" font-size="10.00">C:/GitHub/GEU/GEU/Source</text>
<text text-anchor="middle" x="3184.25" y="-234.5" font-family="Helvetica,sans-Serif" font-size="10.00">/UI/InfoPopup.h</text>
</a>
</g>
</g>
<!-- Node1&#45;&gt;Node35 -->
<g id="edge48_Node000001_Node000035" class="edge">
<title>Node1&#45;&gt;Node35</title>
<g id="a_edge48_Node000001_Node000035"><a xlink:title=" ">
<path fill="none" stroke="#63b8ff" d="M2617.77,-375.97C2744.32,-370.45 2981.79,-356.58 3061.25,-328 3103.43,-312.83 3145.09,-279.94 3167.46,-260.42"/>
<polygon fill="#63b8ff" stroke="#63b8ff" points="2617.97,-372.46 2608.13,-376.38 2618.27,-379.45 2617.97,-372.46"/>
</a>
</g>
</g>
<!-- Node36 -->
<g id="Node000036" class="node">
<title>Node36</title>
<g id="a_Node000036"><a xlink:href="../../d6/db1/_p_cloud_classify_popup_8h.html" target="_top" xlink:title=" ">
<polygon fill="white" stroke="#666666" points="616.5,-186 476,-186 476,-154 616.5,-154 616.5,-186"/>
<text text-anchor="start" x="484" y="-172.5" font-family="Helvetica,sans-Serif" font-size="10.00">C:/GitHub/GEU/GEU/Source</text>
<text text-anchor="middle" x="546.25" y="-160.5" font-family="Helvetica,sans-Serif" font-size="10.00">/UI/PCloudClassifyPopup.h</text>
</a>
</g>
</g>
<!-- Node1&#45;&gt;Node36 -->
<g id="edge50_Node000001_Node000036" class="edge">
<title>Node1&#45;&gt;Node36</title>
<g id="a_edge50_Node000001_Node000036"><a xlink:title=" ">
<path fill="none" stroke="#63b8ff" d="M2454.45,-370.81C2408.5,-363.86 2351.15,-351.13 2304.25,-328 2284.45,-318.23 2286.7,-304.32 2266.25,-296 2111.63,-233.12 921.24,-184.94 616.92,-173.56"/>
<polygon fill="#63b8ff" stroke="#63b8ff" points="2453.68,-374.24 2464.07,-372.2 2454.68,-367.31 2453.68,-374.24"/>
</a>
</g>
</g>
<!-- Node3 -->
<g id="Node000003" class="node">
<title>Node3</title>
<g id="a_Node000003"><a xlink:href="../../df/d72/_details_window_8cpp.html" target="_top" xlink:title=" ">
<polygon fill="white" stroke="#666666" points="140.5,-32 0,-32 0,0 140.5,0 140.5,-32"/>
<text text-anchor="start" x="8" y="-18.5" font-family="Helvetica,sans-Serif" font-size="10.00">C:/GitHub/GEU/GEU/Source</text>
<text text-anchor="middle" x="70.25" y="-6.5" font-family="Helvetica,sans-Serif" font-size="10.00">/UI/DetailsWindow.cpp</text>
</a>
</g>
</g>
<!-- Node2&#45;&gt;Node3 -->
<g id="edge2_Node000002_Node000003" class="edge">
<title>Node2&#45;&gt;Node3</title>
<g id="a_edge2_Node000002_Node000003"><a xlink:title=" ">
<path fill="none" stroke="#63b8ff" d="M419.3,-230.7C300.82,-211.6 95.45,-170.8 51.25,-112 33.56,-88.47 48.94,-52.72 60.43,-32.45"/>
<polygon fill="#63b8ff" stroke="#63b8ff" points="418.57,-234.12 428.99,-232.24 419.67,-227.21 418.57,-234.12"/>
</a>
</g>
</g>
<!-- Node6 -->
<g id="Node000006" class="node">
<title>Node6</title>
<g id="a_Node000006"><a xlink:href="../../dc/d52/_tree_segmentation_g_u_i_adapter_8cpp.html" target="_top" xlink:title=" ">
<polygon fill="white" stroke="#666666" points="2982.62,-192 2815.88,-192 2815.88,-148 2982.62,-148 2982.62,-192"/>
<text text-anchor="start" x="2823.88" y="-178.5" font-family="Helvetica,sans-Serif" font-size="10.00">C:/GitHub/GEU/GEU/Source</text>
<text text-anchor="start" x="2823.88" y="-166.5" font-family="Helvetica,sans-Serif" font-size="10.00">/Modules/SegmentacionIndiv</text>
<text text-anchor="middle" x="2899.25" y="-154.5" font-family="Helvetica,sans-Serif" font-size="10.00">/TreeSegmentationGUIAdapter.cpp</text>
</a>
</g>
</g>
<!-- Node5&#45;&gt;Node6 -->
<g id="edge5_Node000005_Node000006" class="edge">
<title>Node5&#45;&gt;Node6</title>
<g id="a_edge5_Node000005_Node000006"><a xlink:title=" ">
<path fill="none" stroke="#63b8ff" d="M2899.25,-216.38C2899.25,-208.43 2899.25,-199.82 2899.25,-192.26"/>
<polygon fill="#63b8ff" stroke="#63b8ff" points="2895.75,-216.22 2899.25,-226.22 2902.75,-216.22 2895.75,-216.22"/>
</a>
</g>
</g>
<!-- Node7 -->
<g id="Node000007" class="node">
<title>Node7</title>
<g id="a_Node000007"><a xlink:href="../../d0/df8/_thermal_g_u_i_adapter_8cpp.html" target="_top" xlink:title=" ">
<polygon fill="white" stroke="#666666" points="2760.12,-186 2560.38,-186 2560.38,-154 2760.12,-154 2760.12,-186"/>
<text text-anchor="start" x="2568.38" y="-172.5" font-family="Helvetica,sans-Serif" font-size="10.00">C:/GitHub/GEU/GEU/Source</text>
<text text-anchor="middle" x="2660.25" y="-160.5" font-family="Helvetica,sans-Serif" font-size="10.00">/Modules/Termica/ThermalGUIAdapter.cpp</text>
</a>
</g>
</g>
<!-- Node5&#45;&gt;Node7 -->
<g id="edge6_Node000005_Node000007" class="edge">
<title>Node5&#45;&gt;Node7</title>
<g id="a_edge6_Node000005_Node000007"><a xlink:title=" ">
<path fill="none" stroke="#63b8ff" d="M2837.01,-224.25C2797.95,-212.48 2748.2,-197.49 2711.44,-186.42"/>
<polygon fill="#63b8ff" stroke="#63b8ff" points="2835.94,-227.58 2846.53,-227.12 2837.96,-220.88 2835.94,-227.58"/>
</a>
</g>
</g>
<!-- Node8 -->
<g id="Node000008" class="node">
<title>Node8</title>
<g id="a_Node000008"><a xlink:href="../../d3/d27/_g_u_i_8cpp.html" target="_top" xlink:title=" ">
<polygon fill="white" stroke="#666666" points="2760.5,-32 2620,-32 2620,0 2760.5,0 2760.5,-32"/>
<text text-anchor="start" x="2628" y="-18.5" font-family="Helvetica,sans-Serif" font-size="10.00">C:/GitHub/GEU/GEU/Source</text>
<text text-anchor="middle" x="2690.25" y="-6.5" font-family="Helvetica,sans-Serif" font-size="10.00">/UI/GUI.cpp</text>
</a>
</g>
</g>
<!-- Node5&#45;&gt;Node8 -->
<g id="edge7_Node000005_Node000008" class="edge">
<title>Node5&#45;&gt;Node8</title>
<g id="a_edge7_Node000005_Node000008"><a xlink:title=" ">
<path fill="none" stroke="#63b8ff" d="M2973.83,-222.93C2988.25,-215.57 3001.56,-205.56 3010.25,-192 3020.8,-175.54 3021.15,-164.24 3010.25,-148 2954.8,-65.38 2837.01,-34.83 2760.85,-23.56"/>
<polygon fill="#63b8ff" stroke="#63b8ff" points="2972.69,-219.6 2965.08,-226.98 2975.63,-225.95 2972.69,-219.6"/>
</a>
</g>
</g>
<!-- Node9 -->
<g id="Node000009" class="node">
<title>Node9</title>
<g id="a_Node000009"><a xlink:href="../../d5/d1f/_auto_updater_8cpp.html" target="_top" xlink:title=" ">
<polygon fill="white" stroke="#666666" points="2760.5,-106 2620,-106 2620,-74 2760.5,-74 2760.5,-106"/>
<text text-anchor="start" x="2628" y="-92.5" font-family="Helvetica,sans-Serif" font-size="10.00">C:/GitHub/GEU/GEU/Source</text>
<text text-anchor="middle" x="2690.25" y="-80.5" font-family="Helvetica,sans-Serif" font-size="10.00">/Utilities/AutoUpdater.cpp</text>
</a>
</g>
</g>
<!-- Node5&#45;&gt;Node9 -->
<g id="edge8_Node000005_Node000009" class="edge">
<title>Node5&#45;&gt;Node9</title>
<g id="a_edge8_Node000005_Node000009"><a xlink:title=" ">
<path fill="none" stroke="#63b8ff" d="M2958.03,-222.47C2971.22,-214.98 2983.57,-205.04 2991.25,-192 3001.17,-175.15 3003.73,-163.06 2991.25,-148 2962.58,-113.39 2840.59,-99.64 2760.98,-94.28"/>
<polygon fill="#63b8ff" stroke="#63b8ff" points="2956.47,-219.33 2949.19,-227.03 2959.68,-225.55 2956.47,-219.33"/>
</a>
</g>
</g>
<!-- Node11&#45;&gt;Node8 -->
<g id="edge11_Node000011_Node000008" class="edge">
<title>Node11&#45;&gt;Node8</title>
<g id="a_edge11_Node000011_Node000008"><a xlink:title=" ">
<path fill="none" stroke="#63b8ff" d="M2991.25,-285.77C3004.22,-262.38 3021.99,-226.15 3029.25,-192 3042.37,-130.31 3014.89,-99.5 2960.25,-68 2898.98,-32.68 2818.13,-21.17 2760.92,-17.73"/>
<polygon fill="#63b8ff" stroke="#63b8ff" points="2988.33,-283.82 2986.43,-294.24 2994.41,-287.28 2988.33,-283.82"/>
</a>
</g>
</g>
<!-- Node12&#45;&gt;Node6 -->
<g id="edge13_Node000012_Node000006" class="edge">
<title>Node12&#45;&gt;Node6</title>
<g id="a_edge13_Node000012_Node000006"><a xlink:title=" ">
<path fill="none" stroke="#63b8ff" d="M2777.08,-223.05C2799.42,-213.53 2826.18,-202.13 2848.95,-192.43"/>
<polygon fill="#63b8ff" stroke="#63b8ff" points="2775.73,-219.82 2767.9,-226.96 2778.47,-226.26 2775.73,-219.82"/>
</a>
</g>
</g>
<!-- Node12&#45;&gt;Node8 -->
<g id="edge15_Node000012_Node000008" class="edge">
<title>Node12&#45;&gt;Node8</title>
<g id="a_edge15_Node000012_Node000008"><a xlink:title=" ">
<path fill="none" stroke="#63b8ff" d="M2753.71,-218.98C2760,-211.03 2765.96,-201.71 2769.25,-192 2786.92,-139.8 2795.61,-116.4 2769.25,-68 2760.66,-52.23 2744.87,-40.6 2729.65,-32.46"/>
<polygon fill="#63b8ff" stroke="#63b8ff" points="2751.14,-216.61 2747.3,-226.48 2756.46,-221.16 2751.14,-216.61"/>
</a>
</g>
</g>
<!-- Node13 -->
<g id="Node000013" class="node">
<title>Node13</title>
<g id="a_Node000013"><a xlink:href="../../d3/d62/_database_new_dato_window_8cpp.html" target="_top" xlink:title=" ">
<polygon fill="white" stroke="#666666" points="2542.5,-186 2378,-186 2378,-154 2542.5,-154 2542.5,-186"/>
<text text-anchor="start" x="2386" y="-172.5" font-family="Helvetica,sans-Serif" font-size="10.00">C:/GitHub/GEU/GEU/Source</text>
<text text-anchor="middle" x="2460.25" y="-160.5" font-family="Helvetica,sans-Serif" font-size="10.00">/UI/DatabaseNewDatoWindow.cpp</text>
</a>
</g>
</g>
<!-- Node12&#45;&gt;Node13 -->
<g id="edge14_Node000012_Node000013" class="edge">
<title>Node12&#45;&gt;Node13</title>
<g id="a_edge14_Node000012_Node000013"><a xlink:title=" ">
<path fill="none" stroke="#63b8ff" d="M2661.35,-224.63C2617.01,-212.8 2560.05,-197.61 2518.08,-186.42"/>
<polygon fill="#63b8ff" stroke="#63b8ff" points="2660.3,-227.97 2670.87,-227.16 2662.11,-221.21 2660.3,-227.97"/>
</a>
</g>
</g>
<!-- Node14&#45;&gt;Node15 -->
<g id="edge17_Node000014_Node000015" class="edge">
<title>Node14&#45;&gt;Node15</title>
<g id="a_edge17_Node000014_Node000015"><a xlink:title=" ">
<path fill="none" stroke="#63b8ff" d="M2547.51,-290.07C2530.14,-280.44 2509.91,-269.21 2493.98,-260.38"/>
<polygon fill="#63b8ff" stroke="#63b8ff" points="2545.58,-293 2556.03,-294.79 2548.98,-286.88 2545.58,-293"/>
</a>
</g>
</g>
<!-- Node15&#45;&gt;Node6 -->
<g id="edge42_Node000015_Node000006" class="edge">
<title>Node15&#45;&gt;Node6</title>
<g id="a_edge42_Node000015_Node000006"><a xlink:title=" ">
<path fill="none" stroke="#63b8ff" d="M2547.79,-229.44C2624.28,-216.72 2738.16,-197.79 2815.39,-184.94"/>
<polygon fill="#63b8ff" stroke="#63b8ff" points="2547.57,-225.93 2538.28,-231.02 2548.71,-232.84 2547.57,-225.93"/>
</a>
</g>
</g>
<!-- Node15&#45;&gt;Node7 -->
<g id="edge43_Node000015_Node000007" class="edge">
<title>Node15&#45;&gt;Node7</title>
<g id="a_edge43_Node000015_Node000007"><a xlink:title=" ">
<path fill="none" stroke="#63b8ff" d="M2518.62,-223.56C2550.03,-211.91 2589.44,-197.28 2618.7,-186.42"/>
<polygon fill="#63b8ff" stroke="#63b8ff" points="2517.44,-220.27 2509.29,-227.03 2519.88,-226.83 2517.44,-220.27"/>
</a>
</g>
</g>
<!-- Node15&#45;&gt;Node8 -->
<g id="edge45_Node000015_Node000008" class="edge">
<title>Node15&#45;&gt;Node8</title>
<g id="a_edge45_Node000015_Node000008"><a xlink:title=" ">
<path fill="none" stroke="#63b8ff" d="M2393.44,-222.91C2379.11,-215.54 2365.86,-205.53 2357.25,-192 2346.75,-175.5 2344.63,-162.94 2357.25,-148 2419.22,-74.67 2485.72,-157.53 2570.25,-112 2593.78,-99.32 2590.75,-85.16 2611.25,-68 2627.27,-54.59 2647.02,-41.84 2662.77,-32.44"/>
<polygon fill="#63b8ff" stroke="#63b8ff" points="2391.58,-225.91 2402.12,-226.97 2394.55,-219.56 2391.58,-225.91"/>
</a>
</g>
</g>
<!-- Node15&#45;&gt;Node9 -->
<g id="edge46_Node000015_Node000009" class="edge">
<title>Node15&#45;&gt;Node9</title>
<g id="a_edge46_Node000015_Node000009"><a xlink:title=" ">
<path fill="none" stroke="#63b8ff" d="M2403.34,-222.54C2389.81,-215.11 2377.21,-205.17 2369.25,-192 2359.14,-175.26 2356.5,-162.83 2369.25,-148 2403.97,-107.6 2554.02,-122.47 2606.25,-112 2614.5,-110.35 2623.17,-108.41 2631.66,-106.4"/>
<polygon fill="#63b8ff" stroke="#63b8ff" points="2401.44,-225.51 2411.95,-226.85 2404.57,-219.24 2401.44,-225.51"/>
</a>
</g>
</g>
<!-- Node15&#45;&gt;Node13 -->
<g id="edge44_Node000015_Node000013" class="edge">
<title>Node15&#45;&gt;Node13</title>
<g id="a_edge44_Node000015_Node000013"><a xlink:title=" ">
<path fill="none" stroke="#63b8ff" d="M2464.04,-216.49C2463.19,-206.3 2462.25,-195.03 2461.52,-186.25"/>
<polygon fill="#63b8ff" stroke="#63b8ff" points="2460.53,-216.55 2464.85,-226.22 2467.51,-215.97 2460.53,-216.55"/>
</a>
</g>
</g>
<!-- Node16 -->
<g id="Node000016" class="node">
<title>Node16</title>
<g id="a_Node000016"><a xlink:href="../../d3/da0/_renderer_8h.html" target="_top" xlink:title=" ">
<polygon fill="white" stroke="#666666" points="1555.5,-186 1415,-186 1415,-154 1555.5,-154 1555.5,-186"/>
<text text-anchor="start" x="1423" y="-172.5" font-family="Helvetica,sans-Serif" font-size="10.00">C:/GitHub/GEU/GEU/Source</text>
<text text-anchor="middle" x="1485.25" y="-160.5" font-family="Helvetica,sans-Serif" font-size="10.00">/Core/Renderer.h</text>
</a>
</g>
</g>
<!-- Node15&#45;&gt;Node16 -->
<g id="edge18_Node000015_Node000016" class="edge">
<title>Node15&#45;&gt;Node16</title>
<g id="a_edge18_Node000015_Node000016"><a xlink:title=" ">
<path fill="none" stroke="#63b8ff" d="M2384.2,-235.31C2357.16,-232.86 2326.93,-230.21 2299.25,-228 2024.41,-206.04 1696.99,-184.52 1555.79,-175.47"/>
<polygon fill="#63b8ff" stroke="#63b8ff" points="2383.8,-238.78 2394.07,-236.21 2384.43,-231.81 2383.8,-238.78"/>
</a>
</g>
</g>
<!-- Node16&#45;&gt;Node8 -->
<g id="edge35_Node000016_Node000008" class="edge">
<title>Node16&#45;&gt;Node8</title>
<g id="a_edge35_Node000016_Node000008"><a xlink:title=" ">
<path fill="none" stroke="#63b8ff" d="M1567.18,-167.91C1798.74,-164.35 2446.93,-150.98 2534.25,-112 2559.5,-100.73 2555.52,-83.76 2578.25,-68 2599.41,-53.33 2625.46,-41.17 2647.11,-32.41"/>
<polygon fill="#63b8ff" stroke="#63b8ff" points="1567.27,-164.4 1557.32,-168.06 1567.38,-171.4 1567.27,-164.4"/>
</a>
</g>
</g>
<!-- Node16&#45;&gt;Node9 -->
<g id="edge39_Node000016_Node000009" class="edge">
<title>Node16&#45;&gt;Node9</title>
<g id="a_edge39_Node000016_Node000009"><a xlink:title=" ">
<path fill="none" stroke="#63b8ff" d="M1567.08,-167.98C1748.1,-165.01 2195.93,-153.69 2568.25,-112 2585.02,-110.12 2602.97,-107.42 2619.81,-104.58"/>
<polygon fill="#63b8ff" stroke="#63b8ff" points="1567.26,-164.48 1557.32,-168.14 1567.37,-171.48 1567.26,-164.48"/>
</a>
</g>
</g>
<!-- Node17 -->
<g id="Node000017" class="node">
<title>Node17</title>
<g id="a_Node000017"><a xlink:href="../../d3/dee/_input_manager_8cpp.html" target="_top" xlink:title=" ">
<polygon fill="white" stroke="#666666" points="2032.5,-106 1892,-106 1892,-74 2032.5,-74 2032.5,-106"/>
<text text-anchor="start" x="1900" y="-92.5" font-family="Helvetica,sans-Serif" font-size="10.00">C:/GitHub/GEU/GEU/Source</text>
<text text-anchor="middle" x="1962.25" y="-80.5" font-family="Helvetica,sans-Serif" font-size="10.00">/Core/InputManager.cpp</text>
</a>
</g>
</g>
<!-- Node16&#45;&gt;Node17 -->
<g id="edge19_Node000016_Node000017" class="edge">
<title>Node16&#45;&gt;Node17</title>
<g id="a_edge19_Node000016_Node000017"><a xlink:title=" ">
<path fill="none" stroke="#63b8ff" d="M1567.01,-160.03C1647.6,-150.53 1774.05,-133.89 1882.25,-112 1890.27,-110.38 1898.69,-108.44 1906.92,-106.4"/>
<polygon fill="#63b8ff" stroke="#63b8ff" points="1566.98,-156.51 1557.45,-161.14 1567.79,-163.46 1566.98,-156.51"/>
</a>
</g>
</g>
<!-- Node18 -->
<g id="Node000018" class="node">
<title>Node18</title>
<g id="a_Node000018"><a xlink:href="../../d0/d00/_point_cloud_8cpp.html" target="_top" xlink:title=" ">
<polygon fill="white" stroke="#666666" points="2191.5,-106 2051,-106 2051,-74 2191.5,-74 2191.5,-106"/>
<text text-anchor="start" x="2059" y="-92.5" font-family="Helvetica,sans-Serif" font-size="10.00">C:/GitHub/GEU/GEU/Source</text>
<text text-anchor="middle" x="2121.25" y="-80.5" font-family="Helvetica,sans-Serif" font-size="10.00">/Core/PointCloud.cpp</text>
</a>
</g>
</g>
<!-- Node16&#45;&gt;Node18 -->
<g id="edge20_Node000016_Node000018" class="edge">
<title>Node16&#45;&gt;Node18</title>
<g id="a_edge20_Node000016_Node000018"><a xlink:title=" ">
<path fill="none" stroke="#63b8ff" d="M1567.18,-164.57C1676.12,-157.78 1874.35,-142.27 2041.25,-112 2049.59,-110.49 2058.33,-108.56 2066.85,-106.48"/>
<polygon fill="#63b8ff" stroke="#63b8ff" points="1567.23,-161.06 1557.47,-165.17 1567.66,-168.05 1567.23,-161.06"/>
</a>
</g>
</g>
<!-- Node19 -->
<g id="Node000019" class="node">
<title>Node19</title>
<g id="a_Node000019"><a xlink:href="../../da/d84/_renderer_8cpp.html" target="_top" xlink:title=" ">
<polygon fill="white" stroke="#666666" points="2350.5,-106 2210,-106 2210,-74 2350.5,-74 2350.5,-106"/>
<text text-anchor="start" x="2218" y="-92.5" font-family="Helvetica,sans-Serif" font-size="10.00">C:/GitHub/GEU/GEU/Source</text>
<text text-anchor="middle" x="2280.25" y="-80.5" font-family="Helvetica,sans-Serif" font-size="10.00">/Core/Renderer.cpp</text>
</a>
</g>
</g>
<!-- Node16&#45;&gt;Node19 -->
<g id="edge21_Node000016_Node000019" class="edge">
<title>Node16&#45;&gt;Node19</title>
<g id="a_edge21_Node000016_Node000019"><a xlink:title=" ">
<path fill="none" stroke="#63b8ff" d="M1567.1,-167.18C1700.56,-163.16 1973,-150.57 2200.25,-112 2208.89,-110.53 2217.95,-108.57 2226.74,-106.44"/>
<polygon fill="#63b8ff" stroke="#63b8ff" points="1567.19,-163.68 1557.3,-167.47 1567.4,-170.67 1567.19,-163.68"/>
</a>
</g>
</g>
<!-- Node20 -->
<g id="Node000020" class="node">
<title>Node20</title>
<g id="a_Node000020"><a xlink:href="../../de/d42/_window_8h.html" target="_top" xlink:title=" ">
<polygon fill="white" stroke="#666666" points="518.5,-106 378,-106 378,-74 518.5,-74 518.5,-106"/>
<text text-anchor="start" x="386" y="-92.5" font-family="Helvetica,sans-Serif" font-size="10.00">C:/GitHub/GEU/GEU/Source</text>
<text text-anchor="middle" x="448.25" y="-80.5" font-family="Helvetica,sans-Serif" font-size="10.00">/Core/Window.h</text>
</a>
</g>
</g>
<!-- Node16&#45;&gt;Node20 -->
<g id="edge22_Node000016_Node000020" class="edge">
<title>Node16&#45;&gt;Node20</title>
<g id="a_edge22_Node000016_Node000020"><a xlink:title=" ">
<path fill="none" stroke="#63b8ff" d="M1403.52,-166.88C1243.23,-162.05 876.5,-147.79 570.25,-112 553.49,-110.04 535.54,-107.31 518.7,-104.46"/>
<polygon fill="#63b8ff" stroke="#63b8ff" points="1403.09,-170.36 1413.19,-167.16 1403.3,-163.37 1403.09,-170.36"/>
</a>
</g>
</g>
<!-- Node22 -->
<g id="Node000022" class="node">
<title>Node22</title>
<g id="a_Node000022"><a xlink:href="../../df/d0a/main_8cpp.html" target="_top" xlink:title=" ">
<polygon fill="white" stroke="#666666" points="666.5,-32 526,-32 526,0 666.5,0 666.5,-32"/>
<text text-anchor="start" x="534" y="-18.5" font-family="Helvetica,sans-Serif" font-size="10.00">C:/GitHub/GEU/GEU/Source</text>
<text text-anchor="middle" x="596.25" y="-6.5" font-family="Helvetica,sans-Serif" font-size="10.00">/main.cpp</text>
</a>
</g>
</g>
<!-- Node16&#45;&gt;Node22 -->
<g id="edge41_Node000016_Node000022" class="edge">
<title>Node16&#45;&gt;Node22</title>
<g id="a_edge41_Node000016_Node000022"><a xlink:title=" ">
<path fill="none" stroke="#63b8ff" d="M1403.08,-169.7C1194.91,-170.63 659.31,-167.55 603.25,-112 582.34,-91.28 587.12,-53.44 591.98,-32.31"/>
<polygon fill="#63b8ff" stroke="#63b8ff" points="1403.03,-173.2 1413.01,-169.65 1403,-166.2 1403.03,-173.2"/>
</a>
</g>
</g>
<!-- Node23 -->
<g id="Node000023" class="node">
<title>Node23</title>
<g id="a_Node000023"><a xlink:href="../../d7/d4d/_normales_g_u_i_adapter_8cpp.html" target="_top" xlink:title=" ">
<polygon fill="white" stroke="#666666" points="2525.75,-112 2368.75,-112 2368.75,-68 2525.75,-68 2525.75,-112"/>
<text text-anchor="start" x="2376.75" y="-98.5" font-family="Helvetica,sans-Serif" font-size="10.00">C:/GitHub/GEU/GEU/Source</text>
<text text-anchor="start" x="2376.75" y="-86.5" font-family="Helvetica,sans-Serif" font-size="10.00">/Modules/ComparacionNormales</text>
<text text-anchor="middle" x="2447.25" y="-74.5" font-family="Helvetica,sans-Serif" font-size="10.00">/NormalesGUIAdapter.cpp</text>
</a>
</g>
</g>
<!-- Node16&#45;&gt;Node23 -->
<g id="edge25_Node000016_Node000023" class="edge">
<title>Node16&#45;&gt;Node23</title>
<g id="a_edge25_Node000016_Node000023"><a xlink:title=" ">
<path fill="none" stroke="#63b8ff" d="M1567.22,-168.26C1722.59,-165.85 2070.28,-155.58 2359.25,-112 2362.36,-111.53 2365.51,-111.01 2368.7,-110.44"/>
<polygon fill="#63b8ff" stroke="#63b8ff" points="1567.38,-164.76 1557.44,-168.41 1567.49,-171.76 1567.38,-164.76"/>
</a>
</g>
</g>
<!-- Node24 -->
<g id="Node000024" class="node">
<title>Node24</title>
<g id="a_Node000024"><a xlink:href="../../d8/dd0/_multiespectral_g_u_i_adapter_8cpp.html" target="_top" xlink:title=" ">
<polygon fill="white" stroke="#666666" points="760.62,-112 611.88,-112 611.88,-68 760.62,-68 760.62,-112"/>
<text text-anchor="start" x="619.88" y="-98.5" font-family="Helvetica,sans-Serif" font-size="10.00">C:/GitHub/GEU/GEU/Source</text>
<text text-anchor="start" x="619.88" y="-86.5" font-family="Helvetica,sans-Serif" font-size="10.00">/Modules/Multiespectral</text>
<text text-anchor="middle" x="686.25" y="-74.5" font-family="Helvetica,sans-Serif" font-size="10.00">/MultiespectralGUIAdapter.cpp</text>
</a>
</g>
</g>
<!-- Node16&#45;&gt;Node24 -->
<g id="edge26_Node000016_Node000024" class="edge">
<title>Node16&#45;&gt;Node24</title>
<g id="a_edge26_Node000016_Node000024"><a xlink:title=" ">
<path fill="none" stroke="#63b8ff" d="M1403.19,-166.87C1269.7,-162.41 997.58,-149.21 770.25,-112 767.13,-111.49 763.97,-110.92 760.77,-110.31"/>
<polygon fill="#63b8ff" stroke="#63b8ff" points="1402.88,-170.36 1412.99,-167.18 1403.11,-163.36 1402.88,-170.36"/>
</a>
</g>
</g>
<!-- Node25 -->
<g id="Node000025" class="node">
<title>Node25</title>
<g id="a_Node000025"><a xlink:href="../../d2/dd0/_image_cloud_proj_8cpp.html" target="_top" xlink:title=" ">
<polygon fill="white" stroke="#666666" points="919.5,-112 779,-112 779,-68 919.5,-68 919.5,-112"/>
<text text-anchor="start" x="787" y="-98.5" font-family="Helvetica,sans-Serif" font-size="10.00">C:/GitHub/GEU/GEU/Source</text>
<text text-anchor="start" x="787" y="-86.5" font-family="Helvetica,sans-Serif" font-size="10.00">/Modules/Reconstruccion</text>
<text text-anchor="middle" x="849.25" y="-74.5" font-family="Helvetica,sans-Serif" font-size="10.00">/ImageCloudProj.cpp</text>
</a>
</g>
</g>
<!-- Node16&#45;&gt;Node25 -->
<g id="edge27_Node000016_Node000025" class="edge">
<title>Node16&#45;&gt;Node25</title>
<g id="a_edge27_Node000016_Node000025"><a xlink:title=" ">
<path fill="none" stroke="#63b8ff" d="M1403.32,-164.57C1294.38,-157.78 1096.15,-142.27 929.25,-112 926.14,-111.44 922.98,-110.81 919.79,-110.15"/>
<polygon fill="#63b8ff" stroke="#63b8ff" points="1402.84,-168.05 1413.03,-165.17 1403.27,-161.06 1402.84,-168.05"/>
</a>
</g>
</g>
<!-- Node26 -->
<g id="Node000026" class="node">
<title>Node26</title>
<g id="a_Node000026"><a xlink:href="../../d5/d7a/_procedural_generator_8cpp.html" target="_top" xlink:title=" ">
<polygon fill="white" stroke="#666666" points="1078.5,-112 938,-112 938,-68 1078.5,-68 1078.5,-112"/>
<text text-anchor="start" x="946" y="-98.5" font-family="Helvetica,sans-Serif" font-size="10.00">C:/GitHub/GEU/GEU/Source</text>
<text text-anchor="start" x="946" y="-86.5" font-family="Helvetica,sans-Serif" font-size="10.00">/Modules/Reconstruccion</text>
<text text-anchor="middle" x="1008.25" y="-74.5" font-family="Helvetica,sans-Serif" font-size="10.00">/ProceduralGenerator.cpp</text>
</a>
</g>
</g>
<!-- Node16&#45;&gt;Node26 -->
<g id="edge28_Node000016_Node000026" class="edge">
<title>Node16&#45;&gt;Node26</title>
<g id="a_edge28_Node000016_Node000026"><a xlink:title=" ">
<path fill="none" stroke="#63b8ff" d="M1403.49,-160.03C1322.9,-150.53 1196.45,-133.89 1088.25,-112 1085.15,-111.37 1082,-110.7 1078.82,-109.99"/>
<polygon fill="#63b8ff" stroke="#63b8ff" points="1402.71,-163.46 1413.05,-161.14 1403.52,-156.51 1402.71,-163.46"/>
</a>
</g>
</g>
<!-- Node27 -->
<g id="Node000027" class="node">
<title>Node27</title>
<g id="a_Node000027"><a xlink:href="../../d3/d58/_camera_axis_window_8cpp.html" target="_top" xlink:title=" ">
<polygon fill="white" stroke="#666666" points="1237.5,-106 1097,-106 1097,-74 1237.5,-74 1237.5,-106"/>
<text text-anchor="start" x="1105" y="-92.5" font-family="Helvetica,sans-Serif" font-size="10.00">C:/GitHub/GEU/GEU/Source</text>
<text text-anchor="middle" x="1167.25" y="-80.5" font-family="Helvetica,sans-Serif" font-size="10.00">/UI/CameraAxisWindow.cpp</text>
</a>
</g>
</g>
<!-- Node16&#45;&gt;Node27 -->
<g id="edge29_Node000016_Node000027" class="edge">
<title>Node16&#45;&gt;Node27</title>
<g id="a_edge29_Node000016_Node000027"><a xlink:title=" ">
<path fill="none" stroke="#63b8ff" d="M1408.05,-150.96C1361.43,-139.95 1300.85,-125.45 1247.25,-112 1240.15,-110.22 1232.7,-108.31 1225.33,-106.4"/>
<polygon fill="#63b8ff" stroke="#63b8ff" points="1406.97,-154.3 1417.51,-153.19 1408.58,-147.49 1406.97,-154.3"/>
</a>
</g>
</g>
<!-- Node28 -->
<g id="Node000028" class="node">
<title>Node28</title>
<g id="a_Node000028"><a xlink:href="../../d0/d1c/_debug_window_8cpp.html" target="_top" xlink:title=" ">
<polygon fill="white" stroke="#666666" points="1396.5,-106 1256,-106 1256,-74 1396.5,-74 1396.5,-106"/>
<text text-anchor="start" x="1264" y="-92.5" font-family="Helvetica,sans-Serif" font-size="10.00">C:/GitHub/GEU/GEU/Source</text>
<text text-anchor="middle" x="1326.25" y="-80.5" font-family="Helvetica,sans-Serif" font-size="10.00">/UI/DebugWindow.cpp</text>
</a>
</g>
</g>
<!-- Node16&#45;&gt;Node28 -->
<g id="edge30_Node000016_Node000028" class="edge">
<title>Node16&#45;&gt;Node28</title>
<g id="a_edge30_Node000016_Node000028"><a xlink:title=" ">
<path fill="none" stroke="#63b8ff" d="M1443.56,-148.55C1416.64,-135.34 1382.19,-118.44 1357.6,-106.38"/>
<polygon fill="#63b8ff" stroke="#63b8ff" points="1441.96,-151.66 1452.48,-152.92 1445.04,-145.38 1441.96,-151.66"/>
</a>
</g>
</g>
<!-- Node29 -->
<g id="Node000029" class="node">
<title>Node29</title>
<g id="a_Node000029"><a xlink:href="../../d1/dfc/_details_window_8h.html" target="_top" xlink:title=" ">
<polygon fill="white" stroke="#666666" points="359.5,-106 219,-106 219,-74 359.5,-74 359.5,-106"/>
<text text-anchor="start" x="227" y="-92.5" font-family="Helvetica,sans-Serif" font-size="10.00">C:/GitHub/GEU/GEU/Source</text>
<text text-anchor="middle" x="289.25" y="-80.5" font-family="Helvetica,sans-Serif" font-size="10.00">/UI/DetailsWindow.h</text>
</a>
</g>
</g>
<!-- Node16&#45;&gt;Node29 -->
<g id="edge31_Node000016_Node000029" class="edge">
<title>Node16&#45;&gt;Node29</title>
<g id="a_edge31_Node000016_Node000029"><a xlink:title=" ">
<path fill="none" stroke="#63b8ff" d="M1403.31,-167C1180.8,-161.23 568.64,-142.92 369.25,-112 360.31,-110.61 350.93,-108.64 341.86,-106.45"/>
<polygon fill="#63b8ff" stroke="#63b8ff" points="1402.96,-170.49 1413.05,-167.25 1403.14,-163.5 1402.96,-170.49"/>
</a>
</g>
</g>
<!-- Node31 -->
<g id="Node000031" class="node">
<title>Node31</title>
<g id="a_Node000031"><a xlink:href="../../df/da0/_inspector_window_8cpp.html" target="_top" xlink:title=" ">
<polygon fill="white" stroke="#666666" points="200.5,-106 60,-106 60,-74 200.5,-74 200.5,-106"/>
<text text-anchor="start" x="68" y="-92.5" font-family="Helvetica,sans-Serif" font-size="10.00">C:/GitHub/GEU/GEU/Source</text>
<text text-anchor="middle" x="130.25" y="-80.5" font-family="Helvetica,sans-Serif" font-size="10.00">/UI/InspectorWindow.cpp</text>
</a>
</g>
</g>
<!-- Node16&#45;&gt;Node31 -->
<g id="edge36_Node000016_Node000031" class="edge">
<title>Node16&#45;&gt;Node31</title>
<g id="a_edge36_Node000016_Node000031"><a xlink:title=" ">
<path fill="none" stroke="#63b8ff" d="M1403.28,-167.61C1159.5,-163.1 441.66,-147.14 210.25,-112 201.31,-110.64 191.92,-108.68 182.85,-106.49"/>
<polygon fill="#63b8ff" stroke="#63b8ff" points="1402.95,-171.1 1413.01,-167.78 1403.08,-164.1 1402.95,-171.1"/>
</a>
</g>
</g>
<!-- Node32 -->
<g id="Node000032" class="node">
<title>Node32</title>
<g id="a_Node000032"><a xlink:href="../../dc/d71/_picking_window_8cpp.html" target="_top" xlink:title=" ">
<polygon fill="white" stroke="#666666" points="1555.5,-106 1415,-106 1415,-74 1555.5,-74 1555.5,-106"/>
<text text-anchor="start" x="1423" y="-92.5" font-family="Helvetica,sans-Serif" font-size="10.00">C:/GitHub/GEU/GEU/Source</text>
<text text-anchor="middle" x="1485.25" y="-80.5" font-family="Helvetica,sans-Serif" font-size="10.00">/UI/PickingWindow.cpp</text>
</a>
</g>
</g>
<!-- Node16&#45;&gt;Node32 -->
<g id="edge37_Node000016_Node000032" class="edge">
<title>Node16&#45;&gt;Node32</title>
<g id="a_edge37_Node000016_Node000032"><a xlink:title=" ">
<path fill="none" stroke="#63b8ff" d="M1485.25,-142.37C1485.25,-130.37 1485.25,-116.63 1485.25,-106.38"/>
<polygon fill="#63b8ff" stroke="#63b8ff" points="1481.75,-142.08 1485.25,-152.08 1488.75,-142.08 1481.75,-142.08"/>
</a>
</g>
</g>
<!-- Node33 -->
<g id="Node000033" class="node">
<title>Node33</title>
<g id="a_Node000033"><a xlink:href="../../d5/dbd/_stats_window_8cpp.html" target="_top" xlink:title=" ">
<polygon fill="white" stroke="#666666" points="1714.5,-106 1574,-106 1574,-74 1714.5,-74 1714.5,-106"/>
<text text-anchor="start" x="1582" y="-92.5" font-family="Helvetica,sans-Serif" font-size="10.00">C:/GitHub/GEU/GEU/Source</text>
<text text-anchor="middle" x="1644.25" y="-80.5" font-family="Helvetica,sans-Serif" font-size="10.00">/UI/StatsWindow.cpp</text>
</a>
</g>
</g>
<!-- Node16&#45;&gt;Node33 -->
<g id="edge38_Node000016_Node000033" class="edge">
<title>Node16&#45;&gt;Node33</title>
<g id="a_edge38_Node000016_Node000033"><a xlink:title=" ">
<path fill="none" stroke="#63b8ff" d="M1526.94,-148.55C1553.86,-135.34 1588.31,-118.44 1612.9,-106.38"/>
<polygon fill="#63b8ff" stroke="#63b8ff" points="1525.46,-145.38 1518.02,-152.92 1528.54,-151.66 1525.46,-145.38"/>
</a>
</g>
</g>
<!-- Node34 -->
<g id="Node000034" class="node">
<title>Node34</title>
<g id="a_Node000034"><a xlink:href="../../d3/d93/_file_manager_8cpp.html" target="_top" xlink:title=" ">
<polygon fill="white" stroke="#666666" points="1873.5,-106 1733,-106 1733,-74 1873.5,-74 1873.5,-106"/>
<text text-anchor="start" x="1741" y="-92.5" font-family="Helvetica,sans-Serif" font-size="10.00">C:/GitHub/GEU/GEU/Source</text>
<text text-anchor="middle" x="1803.25" y="-80.5" font-family="Helvetica,sans-Serif" font-size="10.00">/Utilities/FileManager.cpp</text>
</a>
</g>
</g>
<!-- Node16&#45;&gt;Node34 -->
<g id="edge40_Node000016_Node000034" class="edge">
<title>Node16&#45;&gt;Node34</title>
<g id="a_edge40_Node000016_Node000034"><a xlink:title=" ">
<path fill="none" stroke="#63b8ff" d="M1562.45,-150.96C1609.07,-139.95 1669.65,-125.45 1723.25,-112 1730.35,-110.22 1737.8,-108.31 1745.17,-106.4"/>
<polygon fill="#63b8ff" stroke="#63b8ff" points="1561.92,-147.49 1552.99,-153.19 1563.53,-154.3 1561.92,-147.49"/>
</a>
</g>
</g>
<!-- Node21 -->
<g id="Node000021" class="node">
<title>Node21</title>
<g id="a_Node000021"><a xlink:href="../../d3/db8/_window_8cpp.html" target="_top" xlink:title=" ">
<polygon fill="white" stroke="#666666" points="507.5,-32 367,-32 367,0 507.5,0 507.5,-32"/>
<text text-anchor="start" x="375" y="-18.5" font-family="Helvetica,sans-Serif" font-size="10.00">C:/GitHub/GEU/GEU/Source</text>
<text text-anchor="middle" x="437.25" y="-6.5" font-family="Helvetica,sans-Serif" font-size="10.00">/Core/Window.cpp</text>
</a>
</g>
</g>
<!-- Node20&#45;&gt;Node21 -->
<g id="edge23_Node000020_Node000021" class="edge">
<title>Node20&#45;&gt;Node21</title>
<g id="a_edge23_Node000020_Node000021"><a xlink:title=" ">
<path fill="none" stroke="#63b8ff" d="M444.2,-62.49C442.64,-52.3 440.92,-41.03 439.58,-32.25"/>
<polygon fill="#63b8ff" stroke="#63b8ff" points="440.72,-62.88 445.69,-72.23 447.64,-61.82 440.72,-62.88"/>
</a>
</g>
</g>
<!-- Node20&#45;&gt;Node22 -->
<g id="edge24_Node000020_Node000022" class="edge">
<title>Node20&#45;&gt;Node22</title>
<g id="a_edge24_Node000020_Node000022"><a xlink:title=" ">
<path fill="none" stroke="#63b8ff" d="M490.1,-68.64C513.74,-57.14 542.81,-43 564.55,-32.42"/>
<polygon fill="#63b8ff" stroke="#63b8ff" points="488.82,-65.37 481.36,-72.89 491.88,-71.66 488.82,-65.37"/>
</a>
</g>
</g>
<!-- Node29&#45;&gt;Node3 -->
<g id="edge32_Node000029_Node000003" class="edge">
<title>Node29&#45;&gt;Node3</title>
<g id="a_edge32_Node000029_Node000003"><a xlink:title=" ">
<path fill="none" stroke="#63b8ff" d="M231.52,-70.02C195.84,-58.29 150.62,-43.42 117.15,-32.42"/>
<polygon fill="#63b8ff" stroke="#63b8ff" points="230.24,-73.28 240.83,-73.08 232.42,-66.63 230.24,-73.28"/>
</a>
</g>
</g>
<!-- Node29&#45;&gt;Node8 -->
<g id="edge33_Node000029_Node000008" class="edge">
<title>Node29&#45;&gt;Node8</title>
<g id="a_edge33_Node000029_Node000008"><a xlink:title=" ">
<path fill="none" stroke="#63b8ff" d="M352.02,-71.05C357.81,-69.84 363.62,-68.79 369.25,-68 596.45,-36.14 2255.51,-20.61 2619.7,-17.56"/>
<polygon fill="#63b8ff" stroke="#63b8ff" points="351.42,-67.59 342.44,-73.21 352.96,-74.42 351.42,-67.59"/>
</a>
</g>
</g>
<!-- Node30 -->
<g id="Node000030" class="node">
<title>Node30</title>
<g id="a_Node000030"><a xlink:href="../../de/d32/_materials_window_8cpp.html" target="_top" xlink:title=" ">
<polygon fill="white" stroke="#666666" points="348.5,-32 208,-32 208,0 348.5,0 348.5,-32"/>
<text text-anchor="start" x="216" y="-18.5" font-family="Helvetica,sans-Serif" font-size="10.00">C:/GitHub/GEU/GEU/Source</text>
<text text-anchor="middle" x="278.25" y="-6.5" font-family="Helvetica,sans-Serif" font-size="10.00">/UI/MaterialsWindow.cpp</text>
</a>
</g>
</g>
<!-- Node29&#45;&gt;Node30 -->
<g id="edge34_Node000029_Node000030" class="edge">
<title>Node29&#45;&gt;Node30</title>
<g id="a_edge34_Node000029_Node000030"><a xlink:title=" ">
<path fill="none" stroke="#63b8ff" d="M285.2,-62.49C283.64,-52.3 281.92,-41.03 280.58,-32.25"/>
<polygon fill="#63b8ff" stroke="#63b8ff" points="281.72,-62.88 286.69,-72.23 288.64,-61.82 281.72,-62.88"/>
</a>
</g>
</g>
<!-- Node35&#45;&gt;Node8 -->
<g id="edge49_Node000035_Node000008" class="edge">
<title>Node35&#45;&gt;Node8</title>
<g id="a_edge49_Node000035_Node000008"><a xlink:title=" ">
<path fill="none" stroke="#63b8ff" d="M3179.75,-216.66C3171.53,-177.28 3150.09,-103.84 3100.25,-68 3047.4,-29.99 2863.4,-20.24 2760.78,-17.79"/>
<polygon fill="#63b8ff" stroke="#63b8ff" points="3176.27,-217.08 3181.61,-226.23 3183.14,-215.75 3176.27,-217.08"/>
</a>
</g>
</g>
<!-- Node36&#45;&gt;Node8 -->
<g id="edge51_Node000036_Node000008" class="edge">
<title>Node36&#45;&gt;Node8</title>
<g id="a_edge51_Node000036_Node000008"><a xlink:title=" ">
<path fill="none" stroke="#63b8ff" d="M553.03,-142.79C560.8,-118.69 576.1,-84.3 603.25,-68 691.44,-15.05 2265.04,-15.91 2619.66,-16.78"/>
<polygon fill="#63b8ff" stroke="#63b8ff" points="549.72,-141.64 550.24,-152.22 556.43,-143.63 549.72,-141.64"/>
</a>
</g>
</g>
<!-- Node36&#45;&gt;Node31 -->
<g id="edge52_Node000036_Node000031" class="edge">
<title>Node36&#45;&gt;Node31</title>
<g id="a_edge52_Node000036_Node000031"><a xlink:title=" ">
<path fill="none" stroke="#63b8ff" d="M464.66,-157.23C396.37,-146.89 296.54,-130.61 210.25,-112 202.53,-110.34 194.43,-108.42 186.48,-106.43"/>
<polygon fill="#63b8ff" stroke="#63b8ff" points="463.85,-160.65 474.26,-158.68 464.89,-153.73 463.85,-160.65"/>
</a>
</g>
</g>
</g>
</svg>

<g id="navigator" transform="translate(0 0)" fill="#404254">
  <rect fill="#f2f5e9" fill-opacity="0.5" stroke="#606060" stroke-width=".5" x="0" y="0" width="60" height="60"/>
  <use id="zoomplus" xlink:href="#zoomPlus" x="17" y="9" onmousedown="handleZoom(evt,'in')"/>
  <use id="zoomminus" xlink:href="#zoomMin" x="42" y="9" onmousedown="handleZoom(evt,'out')"/>
  <use id="reset" xlink:href="#resetDef" x="30" y="36" onmousedown="handleReset()"/>
   <use id="arrowup" xlink:href="#arrowUp" x="0" y="0" onmousedown="handlePan(0,-1)"/>
  <use id="arrowright" xlink:href="#arrowRight" x="0" y="0" onmousedown="handlePan(1,0)"/>
  <use id="arrowdown" xlink:href="#arrowDown" x="0" y="0" onmousedown="handlePan(0,1)"/>
  <use id="arrowleft" xlink:href="#arrowLeft" x="0" y="0" onmousedown="handlePan(-1,0)"/>
</g>
<svg viewBox="0 0 15 15" width="100%" height="30px" preserveAspectRatio="xMaxYMin meet">
 <g id="arrow_out" transform="scale(0.3 0.3)">
  <a xlink:href="_i___g_u_i_popup_8h__dep__incl_org.svg" target="_base">
   <rect id="button" ry="5" rx="5" y="6" x="6" height="38" width="38"
        fill="#f2f5e9" fill-opacity="0.5" stroke="#606060" stroke-width="1.0"/>
   <path id="arrow"
     d="M 11.500037,31.436501 C 11.940474,20.09759 22.043105,11.32322 32.158766,21.979434 L 37.068811,17.246167 C 37.068811,17.246167 37.088388,32 37.088388,32 L 22.160133,31.978069 C 22.160133,31.978069 26.997745,27.140456 26.997745,27.140456 C 18.528582,18.264221 13.291696,25.230495 11.500037,31.436501 z"
     style="fill:#404040;"/>
  </a>
 </g>
</svg>

<style type='text/css'>
<![CDATA[
[data-mouse-over-selected='false'] { opacity: 0.7; }
[data-mouse-over-selected='true']  { opacity: 1.0; }
]]>
</style>
<script type="application/ecmascript"><![CDATA[
document.addEventListener('DOMContentLoaded', (event) => {
  highlightEdges();
  highlightAdjacentNodes();
});
]]></script>
</svg>
