<?xml version="1.0" encoding="UTF-8" standalone="no"?>
<!DOCTYPE svg PUBLIC "-//W3C//DTD SVG 1.1//EN"
 "http://www.w3.org/Graphics/SVG/1.1/DTD/svg11.dtd">
<!-- Generated by graphviz version 10.0.1 (20240210.2158)
 -->
<!-- Title: GEU::DebugWindow::renderWindow Pages: 1 -->
<svg width="335pt" height="128pt"
 viewBox="0.00 0.00 334.75 128.00" xmlns="http://www.w3.org/2000/svg" xmlns:xlink="http://www.w3.org/1999/xlink">
<g id="graph0" class="graph" transform="scale(1 1) rotate(0) translate(4 124)">
<title>GEU::DebugWindow::renderWindow</title>
<!-- Node1 -->
<g id="Node000001" class="node">
<title>Node1</title>
<g id="a_Node000001"><a xlink:title="Renders the window and contents.">
<polygon fill="#999999" stroke="#666666" points="138.25,-70 0,-70 0,-38 138.25,-38 138.25,-70"/>
<text text-anchor="start" x="8" y="-56.5" font-family="Helvetica,sans-Serif" font-size="10.00">GEU::DebugWindow::render</text>
<text text-anchor="middle" x="69.12" y="-44.5" font-family="Helvetica,sans-Serif" font-size="10.00">Window</text>
</a>
</g>
</g>
<!-- Node2 -->
<g id="Node000002" class="node">
<title>Node2</title>
<g id="a_Node000002"><a xlink:href="../../d1/d03/a01653.html#a2ed5bce289f68b4634e0e76162017f49" target="_top" xlink:title=" ">
<polygon fill="white" stroke="#666666" points="318.5,-120 182.5,-120 182.5,-88 318.5,-88 318.5,-120"/>
<text text-anchor="start" x="190.5" y="-106.5" font-family="Helvetica,sans-Serif" font-size="10.00">GEU::FBORender::getColor</text>
<text text-anchor="middle" x="250.5" y="-94.5" font-family="Helvetica,sans-Serif" font-size="10.00">AttachmentId</text>
</a>
</g>
</g>
<!-- Node1&#45;&gt;Node2 -->
<g id="edge1_Node000001_Node000002" class="edge">
<title>Node1&#45;&gt;Node2</title>
<g id="a_edge1_Node000001_Node000002"><a xlink:title=" ">
<path fill="none" stroke="#63b8ff" d="M128.86,-70.37C145.04,-74.88 162.74,-79.82 179.49,-84.48"/>
<polygon fill="#63b8ff" stroke="#63b8ff" points="178.3,-87.79 188.87,-87.1 180.18,-81.04 178.3,-87.79"/>
</a>
</g>
</g>
<!-- Node3 -->
<g id="Node000003" class="node">
<title>Node3</title>
<g id="a_Node000003"><a xlink:href="../../d6/d01/a02029.html#a47c7e7c2110f4cc59c9ff1f5594c366e" target="_top" xlink:title=" ">
<polygon fill="white" stroke="#666666" points="316.25,-70 184.75,-70 184.75,-38 316.25,-38 316.25,-70"/>
<text text-anchor="start" x="192.75" y="-56.5" font-family="Helvetica,sans-Serif" font-size="10.00">GEU::Singleton&lt; Renderer</text>
<text text-anchor="middle" x="250.5" y="-44.5" font-family="Helvetica,sans-Serif" font-size="10.00"> &gt;::getInstance</text>
</a>
</g>
</g>
<!-- Node1&#45;&gt;Node3 -->
<g id="edge2_Node000001_Node000003" class="edge">
<title>Node1&#45;&gt;Node3</title>
<g id="a_edge2_Node000001_Node000003"><a xlink:title=" ">
<path fill="none" stroke="#63b8ff" d="M138.71,-54C149.98,-54 161.73,-54 173.18,-54"/>
<polygon fill="#63b8ff" stroke="#63b8ff" points="172.99,-57.5 182.99,-54 172.99,-50.5 172.99,-57.5"/>
</a>
</g>
</g>
<!-- Node4 -->
<g id="Node000004" class="node">
<title>Node4</title>
<g id="a_Node000004"><a xlink:href="../../d2/d00/a01729.html#a26ae05902b1bfaffbae2f660fe3a7802" target="_top" xlink:title=" ">
<polygon fill="white" stroke="#666666" points="326.75,-20 174.25,-20 174.25,0 326.75,0 326.75,-20"/>
<text text-anchor="middle" x="250.5" y="-6.5" font-family="Helvetica,sans-Serif" font-size="10.00">GEU::Renderer::getRenderFBO</text>
</a>
</g>
</g>
<!-- Node1&#45;&gt;Node4 -->
<g id="edge3_Node000001_Node000004" class="edge">
<title>Node1&#45;&gt;Node4</title>
<g id="a_edge3_Node000001_Node000004"><a xlink:title=" ">
<path fill="none" stroke="#63b8ff" d="M137.17,-37.55C156.46,-32.82 177.23,-27.73 195.61,-23.22"/>
<polygon fill="#63b8ff" stroke="#63b8ff" points="196.36,-26.64 205.24,-20.86 194.69,-19.84 196.36,-26.64"/>
</a>
</g>
</g>
</g>
</svg>
