<?xml version="1.0" encoding="UTF-8" standalone="no"?>
<!DOCTYPE svg PUBLIC "-//W3C//DTD SVG 1.1//EN"
 "http://www.w3.org/Graphics/SVG/1.1/DTD/svg11.dtd">
<!-- Generated by graphviz version 10.0.1 (20240210.2158)
 -->
<!-- Title: LocaleStrings::GetString Pages: 1 -->
<svg width="511pt" height="128pt"
 viewBox="0.00 0.00 510.50 128.00" xmlns="http://www.w3.org/2000/svg" xmlns:xlink="http://www.w3.org/1999/xlink">
<g id="graph0" class="graph" transform="scale(1 1) rotate(0) translate(4 124)">
<title>LocaleStrings::GetString</title>
<!-- Node1 -->
<g id="Node000001" class="node">
<title>Node1</title>
<g id="a_Node000001"><a xlink:title=" ">
<polygon fill="#999999" stroke="#666666" points="502.5,-70 380,-70 380,-50 502.5,-50 502.5,-70"/>
<text text-anchor="middle" x="441.25" y="-56.5" font-family="Helvetica,sans-Serif" font-size="10.00">LocaleStrings::GetString</text>
</a>
</g>
</g>
<!-- Node2 -->
<g id="Node000002" class="node">
<title>Node2</title>
<g id="a_Node000002"><a xlink:href="../../de/d02/class_g_e_u_1_1_multiespectral_g_u_i_adapter.html#a7b73a6f101cc9e18dadb15797dcdf8f9" target="_top" xlink:title=" ">
<polygon fill="white" stroke="#666666" points="344,-120 190,-120 190,-88 344,-88 344,-120"/>
<text text-anchor="start" x="198" y="-106.5" font-family="Helvetica,sans-Serif" font-size="10.00">GEU::MultiespectralGUIAdapter</text>
<text text-anchor="middle" x="267" y="-94.5" font-family="Helvetica,sans-Serif" font-size="10.00">::mapping</text>
</a>
</g>
</g>
<!-- Node1&#45;&gt;Node2 -->
<g id="edge1_Node000001_Node000002" class="edge">
<title>Node1&#45;&gt;Node2</title>
<g id="a_edge1_Node000001_Node000002"><a xlink:title=" ">
<path fill="none" stroke="#63b8ff" d="M388.5,-73.22C370.87,-77.72 350.93,-82.81 332.43,-87.54"/>
<polygon fill="#63b8ff" stroke="#63b8ff" points="389.14,-76.67 397.96,-70.8 387.41,-69.89 389.14,-76.67"/>
</a>
</g>
</g>
<!-- Node3 -->
<g id="Node000003" class="node">
<title>Node3</title>
<g id="a_Node000003"><a xlink:href="../../de/d02/class_g_e_u_1_1_multiespectral_g_u_i_adapter.html#a30cdb8738563252a05b2da154c3f864d" target="_top" xlink:title="Custom module GUI window contents.">
<polygon fill="white" stroke="#666666" points="154,-101 0,-101 0,-69 154,-69 154,-101"/>
<text text-anchor="start" x="8" y="-87.5" font-family="Helvetica,sans-Serif" font-size="10.00">GEU::MultiespectralGUIAdapter</text>
<text text-anchor="middle" x="77" y="-75.5" font-family="Helvetica,sans-Serif" font-size="10.00">::renderGuiObject</text>
</a>
</g>
</g>
<!-- Node1&#45;&gt;Node3 -->
<g id="edge3_Node000001_Node000003" class="edge">
<title>Node1&#45;&gt;Node3</title>
<g id="a_edge3_Node000001_Node000003"><a xlink:title=" ">
<path fill="none" stroke="#63b8ff" d="M368.39,-64.96C306.49,-69.23 217.42,-75.38 154.27,-79.74"/>
<polygon fill="#63b8ff" stroke="#63b8ff" points="368.37,-68.47 378.11,-64.29 367.89,-61.49 368.37,-68.47"/>
</a>
</g>
</g>
<!-- Node4 -->
<g id="Node000004" class="node">
<title>Node4</title>
<g id="a_Node000004"><a xlink:href="../../de/d02/class_g_e_u_1_1_multiespectral_g_u_i_adapter.html#afbf7eda8f85e1d740f99c1da54567df5" target="_top" xlink:title=" ">
<polygon fill="white" stroke="#666666" points="344,-32 190,-32 190,0 344,0 344,-32"/>
<text text-anchor="start" x="198" y="-18.5" font-family="Helvetica,sans-Serif" font-size="10.00">GEU::MultiespectralGUIAdapter</text>
<text text-anchor="middle" x="267" y="-6.5" font-family="Helvetica,sans-Serif" font-size="10.00">::resetValues</text>
</a>
</g>
</g>
<!-- Node1&#45;&gt;Node4 -->
<g id="edge4_Node000001_Node000004" class="edge">
<title>Node1&#45;&gt;Node4</title>
<g id="a_edge4_Node000001_Node000004"><a xlink:title=" ">
<path fill="none" stroke="#63b8ff" d="M388.5,-46.78C370.87,-42.28 350.93,-37.19 332.43,-32.46"/>
<polygon fill="#63b8ff" stroke="#63b8ff" points="387.41,-50.11 397.96,-49.2 389.14,-43.33 387.41,-50.11"/>
</a>
</g>
</g>
<!-- Node2&#45;&gt;Node3 -->
<g id="edge2_Node000002_Node000003" class="edge">
<title>Node2&#45;&gt;Node3</title>
<g id="a_edge2_Node000002_Node000003"><a xlink:title=" ">
<path fill="none" stroke="#63b8ff" d="M178.31,-95.14C170.32,-94.33 162.27,-93.52 154.4,-92.72"/>
<polygon fill="#63b8ff" stroke="#63b8ff" points="177.73,-98.6 188.03,-96.12 178.43,-91.63 177.73,-98.6"/>
</a>
</g>
</g>
<!-- Node5 -->
<g id="Node000005" class="node">
<title>Node5</title>
<g id="a_Node000005"><a xlink:href="../../de/d02/class_g_e_u_1_1_multiespectral_g_u_i_adapter.html#a086cc212a0b032471983248e4174dc20" target="_top" xlink:title=" ">
<polygon fill="white" stroke="#666666" points="154,-32 0,-32 0,0 154,0 154,-32"/>
<text text-anchor="start" x="8" y="-18.5" font-family="Helvetica,sans-Serif" font-size="10.00">GEU::MultiespectralGUIAdapter</text>
<text text-anchor="middle" x="77" y="-6.5" font-family="Helvetica,sans-Serif" font-size="10.00">::MultiespectralGUIAdapter</text>
</a>
</g>
</g>
<!-- Node4&#45;&gt;Node5 -->
<g id="edge5_Node000004_Node000005" class="edge">
<title>Node4&#45;&gt;Node5</title>
<g id="a_edge5_Node000004_Node000005"><a xlink:title=" ">
<path fill="none" stroke="#63b8ff" d="M178.03,-16C170.14,-16 162.18,-16 154.4,-16"/>
<polygon fill="#63b8ff" stroke="#63b8ff" points="178.02,-19.5 188.02,-16 178.02,-12.5 178.02,-19.5"/>
</a>
</g>
</g>
</g>
</svg>
