<?xml version="1.0" encoding="UTF-8" standalone="no"?>
<!DOCTYPE svg PUBLIC "-//W3C//DTD SVG 1.1//EN"
 "http://www.w3.org/Graphics/SVG/1.1/DTD/svg11.dtd">
<!-- Generated by graphviz version 10.0.1 (20240210.2158)
 -->
<!-- Title: GEU::InputManager::scrollCallback Pages: 1 -->
<svg width="303pt" height="116pt"
 viewBox="0.00 0.00 302.50 116.00" xmlns="http://www.w3.org/2000/svg" xmlns:xlink="http://www.w3.org/1999/xlink">
<g id="graph0" class="graph" transform="scale(1 1) rotate(0) translate(4 112)">
<title>GEU::InputManager::scrollCallback</title>
<!-- Node1 -->
<g id="Node000001" class="node">
<title>Node1</title>
<g id="a_Node000001"><a xlink:title=" ">
<polygon fill="#999999" stroke="#666666" points="107.5,-70 0,-70 0,-38 107.5,-38 107.5,-70"/>
<text text-anchor="start" x="8" y="-56.5" font-family="Helvetica,sans-Serif" font-size="10.00">GEU::InputManager::</text>
<text text-anchor="middle" x="53.75" y="-44.5" font-family="Helvetica,sans-Serif" font-size="10.00">scrollCallback</text>
</a>
</g>
</g>
<!-- Node2 -->
<g id="Node000002" class="node">
<title>Node2</title>
<g id="a_Node000002"><a xlink:href="../../d2/d00/a01729.html#aab42a61060bb126a7f7eff0417abe72a" target="_top" xlink:title=" ">
<polygon fill="white" stroke="#666666" points="286.62,-108 151.38,-108 151.38,-88 286.62,-88 286.62,-108"/>
<text text-anchor="middle" x="219" y="-94.5" font-family="Helvetica,sans-Serif" font-size="10.00">GEU::Renderer::getCamera</text>
</a>
</g>
</g>
<!-- Node1&#45;&gt;Node2 -->
<g id="edge1_Node000001_Node000002" class="edge">
<title>Node1&#45;&gt;Node2</title>
<g id="a_edge1_Node000001_Node000002"><a xlink:title=" ">
<path fill="none" stroke="#63b8ff" d="M107.72,-69.15C119.49,-72.45 131.9,-75.89 143.5,-79 150.52,-80.88 157.92,-82.83 165.23,-84.72"/>
<polygon fill="#63b8ff" stroke="#63b8ff" points="164.16,-88.05 174.72,-87.15 165.91,-81.28 164.16,-88.05"/>
</a>
</g>
</g>
<!-- Node3 -->
<g id="Node000003" class="node">
<title>Node3</title>
<g id="a_Node000003"><a xlink:href="../../d6/d01/a02029.html#a47c7e7c2110f4cc59c9ff1f5594c366e" target="_top" xlink:title=" ">
<polygon fill="white" stroke="#666666" points="294.5,-70 143.5,-70 143.5,-38 294.5,-38 294.5,-70"/>
<text text-anchor="start" x="151.5" y="-56.5" font-family="Helvetica,sans-Serif" font-size="10.00">GEU::Singleton&lt; InputManager</text>
<text text-anchor="middle" x="219" y="-44.5" font-family="Helvetica,sans-Serif" font-size="10.00"> &gt;::getInstance</text>
</a>
</g>
</g>
<!-- Node1&#45;&gt;Node3 -->
<g id="edge2_Node000001_Node000003" class="edge">
<title>Node1&#45;&gt;Node3</title>
<g id="a_edge2_Node000001_Node000003"><a xlink:title=" ">
<path fill="none" stroke="#63b8ff" d="M107.75,-47.63C115.41,-47.42 123.45,-47.3 131.56,-47.26"/>
<polygon fill="#63b8ff" stroke="#63b8ff" points="131.51,-50.76 141.51,-47.27 131.51,-43.76 131.51,-50.76"/>
</a>
</g>
</g>
<!-- Node1&#45;&gt;Node3 -->
<g id="edge3_Node000001_Node000003" class="edge">
<title>Node1&#45;&gt;Node3</title>
<g id="a_edge3_Node000001_Node000003"><a xlink:title=" ">
<path fill="none" stroke="#63b8ff" d="M107.75,-60.37C115.41,-60.58 123.45,-60.7 131.56,-60.74"/>
<polygon fill="#63b8ff" stroke="#63b8ff" points="131.51,-64.24 141.51,-60.73 131.51,-57.24 131.51,-64.24"/>
</a>
</g>
</g>
<!-- Node4 -->
<g id="Node000004" class="node">
<title>Node4</title>
<g id="a_Node000004"><a xlink:href="../../d9/d04/a01557.html#a3db6280579b87817bf7faae4ce642030" target="_top" xlink:title=" ">
<polygon fill="white" stroke="#666666" points="272.38,-20 165.62,-20 165.62,0 272.38,0 272.38,-20"/>
<text text-anchor="middle" x="219" y="-6.5" font-family="Helvetica,sans-Serif" font-size="10.00">GEU::Camera::zoom</text>
</a>
</g>
</g>
<!-- Node1&#45;&gt;Node4 -->
<g id="edge4_Node000001_Node000004" class="edge">
<title>Node1&#45;&gt;Node4</title>
<g id="a_edge4_Node000001_Node000004"><a xlink:title=" ">
<path fill="none" stroke="#63b8ff" d="M107.72,-38.85C119.49,-35.55 131.9,-32.11 143.5,-29 150.52,-27.12 157.92,-25.17 165.23,-23.28"/>
<polygon fill="#63b8ff" stroke="#63b8ff" points="165.91,-26.72 174.72,-20.85 164.16,-19.95 165.91,-26.72"/>
</a>
</g>
</g>
</g>
</svg>
