<?xml version="1.0" encoding="UTF-8" standalone="no"?>
<!DOCTYPE svg PUBLIC "-//W3C//DTD SVG 1.1//EN"
 "http://www.w3.org/Graphics/SVG/1.1/DTD/svg11.dtd">
<!-- Generated by graphviz version 10.0.1 (20240210.2158)
 -->
<!-- Title: GEU::I_GUIPopup::getIdTitle Pages: 1 -->
<svg width="342pt" height="316pt"
 viewBox="0.00 0.00 342.25 316.00" xmlns="http://www.w3.org/2000/svg" xmlns:xlink="http://www.w3.org/1999/xlink">
<g id="graph0" class="graph" transform="scale(1 1) rotate(0) translate(4 312)">
<title>GEU::I_GUIPopup::getIdTitle</title>
<!-- Node1 -->
<g id="Node000001" class="node">
<title>Node1</title>
<g id="a_Node000001"><a xlink:title=" ">
<polygon fill="#999999" stroke="#666666" points="334.25,-170 194.5,-170 194.5,-150 334.25,-150 334.25,-170"/>
<text text-anchor="middle" x="264.38" y="-156.5" font-family="Helvetica,sans-Serif" font-size="10.00">GEU::I_GUIPopup::getIdTitle</text>
</a>
</g>
</g>
<!-- Node2 -->
<g id="Node000002" class="node">
<title>Node2</title>
<g id="a_Node000002"><a xlink:href="../../dd/d00/a01936.html#a1a402149fb06626fa50f5b16ae34afbd" target="_top" xlink:title=" ">
<polygon fill="white" stroke="#666666" points="145,-308 13.5,-308 13.5,-288 145,-288 145,-308"/>
<text text-anchor="middle" x="79.25" y="-294.5" font-family="Helvetica,sans-Serif" font-size="10.00">GEU::I_GUIPopup::isOpen</text>
</a>
</g>
</g>
<!-- Node1&#45;&gt;Node2 -->
<g id="edge1_Node000001_Node000002" class="edge">
<title>Node1&#45;&gt;Node2</title>
<g id="a_edge1_Node000001_Node000002"><a xlink:title=" ">
<path fill="none" stroke="#63b8ff" d="M251.63,-179.6C234.56,-206.32 200.33,-253.74 158.5,-279 152.76,-282.47 146.41,-285.31 139.9,-287.62"/>
<polygon fill="#63b8ff" stroke="#63b8ff" points="254.39,-181.78 256.7,-171.44 248.45,-178.09 254.39,-181.78"/>
</a>
</g>
</g>
<!-- Node3 -->
<g id="Node000003" class="node">
<title>Node3</title>
<g id="a_Node000003"><a xlink:href="../../d2/d02/a01488.html#a62efa9dc885360bcb650c0a45b4f833c" target="_top" xlink:title="Sets up ImGUI to open a popup window.">
<polygon fill="white" stroke="#666666" points="158.5,-270 0,-270 0,-238 158.5,-238 158.5,-270"/>
<text text-anchor="start" x="8" y="-256.5" font-family="Helvetica,sans-Serif" font-size="10.00">GEU::DatabaseQueryDatoPopup</text>
<text text-anchor="middle" x="79.25" y="-244.5" font-family="Helvetica,sans-Serif" font-size="10.00">::openPopup</text>
</a>
</g>
</g>
<!-- Node1&#45;&gt;Node3 -->
<g id="edge2_Node000001_Node000003" class="edge">
<title>Node1&#45;&gt;Node3</title>
<g id="a_edge2_Node000001_Node000003"><a xlink:title=" ">
<path fill="none" stroke="#63b8ff" d="M241.05,-177.29C220.52,-192.55 188.75,-214.55 158.5,-229 151.94,-232.13 144.88,-235.01 137.79,-237.61"/>
<polygon fill="#63b8ff" stroke="#63b8ff" points="243.09,-180.14 248.97,-171.32 238.88,-174.55 243.09,-180.14"/>
</a>
</g>
</g>
<!-- Node4 -->
<g id="Node000004" class="node">
<title>Node4</title>
<g id="a_Node000004"><a xlink:href="../../dc/d04/a01532.html#a67e7e09c17a35a031cf4d82a48c991e4" target="_top" xlink:title="Sets up ImGUI to open a popup window.">
<polygon fill="white" stroke="#666666" points="154,-220 4.5,-220 4.5,-188 154,-188 154,-220"/>
<text text-anchor="start" x="12.5" y="-206.5" font-family="Helvetica,sans-Serif" font-size="10.00">GEU::DatabaseNewRawPopup</text>
<text text-anchor="middle" x="79.25" y="-194.5" font-family="Helvetica,sans-Serif" font-size="10.00">::openPopup</text>
</a>
</g>
</g>
<!-- Node1&#45;&gt;Node4 -->
<g id="edge3_Node000001_Node000004" class="edge">
<title>Node1&#45;&gt;Node4</title>
<g id="a_edge3_Node000001_Node000004"><a xlink:title=" ">
<path fill="none" stroke="#63b8ff" d="M208.89,-173.09C190.01,-177.63 168.61,-182.77 148.75,-187.54"/>
<polygon fill="#63b8ff" stroke="#63b8ff" points="209.6,-176.52 218.51,-170.78 207.96,-169.71 209.6,-176.52"/>
</a>
</g>
</g>
<!-- Node5 -->
<g id="Node000005" class="node">
<title>Node5</title>
<g id="a_Node000005"><a xlink:href="../../d6/d03/a01544.html#abc3941dfcab838076bffc157f199edfb" target="_top" xlink:title="Sets up ImGUI to open a popup window.">
<polygon fill="white" stroke="#666666" points="149.5,-170 9,-170 9,-150 149.5,-150 149.5,-170"/>
<text text-anchor="middle" x="79.25" y="-156.5" font-family="Helvetica,sans-Serif" font-size="10.00">GEU::InfoPopup::openPopup</text>
</a>
</g>
</g>
<!-- Node1&#45;&gt;Node5 -->
<g id="edge4_Node000001_Node000005" class="edge">
<title>Node1&#45;&gt;Node5</title>
<g id="a_edge4_Node000001_Node000005"><a xlink:title=" ">
<path fill="none" stroke="#63b8ff" d="M182.81,-160C171.83,-160 160.64,-160 149.88,-160"/>
<polygon fill="#63b8ff" stroke="#63b8ff" points="182.63,-163.5 192.63,-160 182.63,-156.5 182.63,-163.5"/>
</a>
</g>
</g>
<!-- Node6 -->
<g id="Node000006" class="node">
<title>Node6</title>
<g id="a_Node000006"><a xlink:href="../../da/d07/a01548.html#a048aa8fa70913f7ee315680be3b08ceb" target="_top" xlink:title="Sets up ImGUI to open a popup window.">
<polygon fill="white" stroke="#666666" points="147.62,-132 10.88,-132 10.88,-100 147.62,-100 147.62,-132"/>
<text text-anchor="start" x="18.88" y="-118.5" font-family="Helvetica,sans-Serif" font-size="10.00">GEU::PCloudClassifyPopup</text>
<text text-anchor="middle" x="79.25" y="-106.5" font-family="Helvetica,sans-Serif" font-size="10.00">::openPopup</text>
</a>
</g>
</g>
<!-- Node1&#45;&gt;Node6 -->
<g id="edge5_Node000001_Node000006" class="edge">
<title>Node1&#45;&gt;Node6</title>
<g id="a_edge5_Node000001_Node000006"><a xlink:title=" ">
<path fill="none" stroke="#63b8ff" d="M209.04,-146.95C189.9,-142.35 168.15,-137.12 148.04,-132.29"/>
<polygon fill="#63b8ff" stroke="#63b8ff" points="207.96,-150.29 218.51,-149.22 209.6,-143.48 207.96,-150.29"/>
</a>
</g>
</g>
<!-- Node7 -->
<g id="Node000007" class="node">
<title>Node7</title>
<g id="a_Node000007"><a xlink:href="../../d6/d00/a01948.html#a356c96e2b60a49682d4a6c41f1a60c38" target="_top" xlink:title="Sets up ImGUI to open a popup window.">
<polygon fill="white" stroke="#666666" points="134.12,-82 24.38,-82 24.38,-50 134.12,-50 134.12,-82"/>
<text text-anchor="start" x="32.38" y="-68.5" font-family="Helvetica,sans-Serif" font-size="10.00">GEU::ConfirmPopup::</text>
<text text-anchor="middle" x="79.25" y="-56.5" font-family="Helvetica,sans-Serif" font-size="10.00">openPopup</text>
</a>
</g>
</g>
<!-- Node1&#45;&gt;Node7 -->
<g id="edge6_Node000001_Node000007" class="edge">
<title>Node1&#45;&gt;Node7</title>
<g id="a_edge6_Node000001_Node000007"><a xlink:title=" ">
<path fill="none" stroke="#63b8ff" d="M241.05,-142.71C220.52,-127.45 188.75,-105.45 158.5,-91 150.91,-87.37 142.66,-84.09 134.46,-81.19"/>
<polygon fill="#63b8ff" stroke="#63b8ff" points="238.88,-145.45 248.97,-148.68 243.09,-139.86 238.88,-145.45"/>
</a>
</g>
</g>
<!-- Node8 -->
<g id="Node000008" class="node">
<title>Node8</title>
<g id="a_Node000008"><a xlink:href="../../d2/d02/a01488.html#a6b45f3f4957a46091ab0d75b9600a56d" target="_top" xlink:title="Renders the popup and its contents.">
<polygon fill="white" stroke="#666666" points="158.5,-32 0,-32 0,0 158.5,0 158.5,-32"/>
<text text-anchor="start" x="8" y="-18.5" font-family="Helvetica,sans-Serif" font-size="10.00">GEU::DatabaseQueryDatoPopup</text>
<text text-anchor="middle" x="79.25" y="-6.5" font-family="Helvetica,sans-Serif" font-size="10.00">::renderPopup</text>
</a>
</g>
</g>
<!-- Node1&#45;&gt;Node8 -->
<g id="edge7_Node000001_Node000008" class="edge">
<title>Node1&#45;&gt;Node8</title>
<g id="a_edge7_Node000001_Node000008"><a xlink:title=" ">
<path fill="none" stroke="#63b8ff" d="M251.1,-140.42C233.65,-114.11 199.2,-67.6 158.5,-41 153.49,-37.72 148.01,-34.85 142.36,-32.33"/>
<polygon fill="#63b8ff" stroke="#63b8ff" points="247.94,-141.97 256.31,-148.46 253.82,-138.17 247.94,-141.97"/>
</a>
</g>
</g>
</g>
</svg>
