<?xml version="1.0" encoding="UTF-8" standalone="no"?>
<!DOCTYPE svg PUBLIC "-//W3C//DTD SVG 1.1//EN"
 "http://www.w3.org/Graphics/SVG/1.1/DTD/svg11.dtd">
<!-- Generated by graphviz version 10.0.1 (20240210.2158)
 -->
<!-- Title: morton3D Pages: 1 -->
<svg width="442pt" height="122pt"
 viewBox="0.00 0.00 442.25 122.00" xmlns="http://www.w3.org/2000/svg" xmlns:xlink="http://www.w3.org/1999/xlink">
<g id="graph0" class="graph" transform="scale(1 1) rotate(0) translate(4 118)">
<title>morton3D</title>
<!-- Node1 -->
<g id="Node000001" class="node">
<title>Node1</title>
<g id="a_Node000001"><a xlink:title=" ">
<polygon fill="#999999" stroke="#666666" points="434.25,-64 376.25,-64 376.25,-44 434.25,-44 434.25,-64"/>
<text text-anchor="middle" x="405.25" y="-50.5" font-family="Helvetica,sans-Serif" font-size="10.00">morton3D</text>
</a>
</g>
</g>
<!-- Node2 -->
<g id="Node000002" class="node">
<title>Node2</title>
<g id="a_Node000002"><a xlink:href="../../d4/d07/class_g_e_u_1_1_point_cloud.html#a2b9f0f4717f67aef7726684a3a7c5747" target="_top" xlink:title=" ">
<polygon fill="white" stroke="#666666" points="329,-108 194.5,-108 194.5,-88 329,-88 329,-108"/>
<text text-anchor="middle" x="261.75" y="-94.5" font-family="Helvetica,sans-Serif" font-size="10.00">GEU::PointCloud::hilbert3D</text>
</a>
</g>
</g>
<!-- Node1&#45;&gt;Node2 -->
<g id="edge1_Node000001_Node000002" class="edge">
<title>Node1&#45;&gt;Node2</title>
<g id="a_edge1_Node000001_Node000002"><a xlink:title=" ">
<path fill="none" stroke="#63b8ff" d="M369.37,-68.59C360,-72.24 349.81,-75.97 340.25,-79 330.48,-82.09 319.88,-84.98 309.75,-87.53"/>
<polygon fill="#63b8ff" stroke="#63b8ff" points="370.51,-71.9 378.5,-64.94 367.91,-65.4 370.51,-71.9"/>
</a>
</g>
</g>
<!-- Node4 -->
<g id="Node000004" class="node">
<title>Node4</title>
<g id="a_Node000004"><a xlink:href="../../d4/d07/class_g_e_u_1_1_point_cloud.html#a78fb7686446258556265d3ccc676ac6c" target="_top" xlink:title="Performs sorting of the points in the point cloud using Hilbert Encoding.">
<polygon fill="white" stroke="#666666" points="323,-70 200.5,-70 200.5,-38 323,-38 323,-70"/>
<text text-anchor="start" x="208.5" y="-56.5" font-family="Helvetica,sans-Serif" font-size="10.00">GEU::PointCloud::hilbert</text>
<text text-anchor="middle" x="261.75" y="-44.5" font-family="Helvetica,sans-Serif" font-size="10.00">Sorting</text>
</a>
</g>
</g>
<!-- Node1&#45;&gt;Node4 -->
<g id="edge3_Node000001_Node000004" class="edge">
<title>Node1&#45;&gt;Node4</title>
<g id="a_edge3_Node000001_Node000004"><a xlink:title=" ">
<path fill="none" stroke="#63b8ff" d="M364.74,-54C351.94,-54 337.43,-54 323.45,-54"/>
<polygon fill="#63b8ff" stroke="#63b8ff" points="364.44,-57.5 374.44,-54 364.44,-50.5 364.44,-57.5"/>
</a>
</g>
</g>
<!-- Node5 -->
<g id="Node000005" class="node">
<title>Node5</title>
<g id="a_Node000005"><a xlink:href="../../d4/d07/class_g_e_u_1_1_point_cloud.html#a0511749ae6908964e50595478166830a" target="_top" xlink:title="Performs sorting of the points in the point cloud using Morton Encoding.">
<polygon fill="white" stroke="#666666" points="340.25,-20 183.25,-20 183.25,0 340.25,0 340.25,-20"/>
<text text-anchor="middle" x="261.75" y="-6.5" font-family="Helvetica,sans-Serif" font-size="10.00">GEU::PointCloud::mortonSorting</text>
</a>
</g>
</g>
<!-- Node1&#45;&gt;Node5 -->
<g id="edge4_Node000001_Node000005" class="edge">
<title>Node1&#45;&gt;Node5</title>
<g id="a_edge4_Node000001_Node000005"><a xlink:title=" ">
<path fill="none" stroke="#63b8ff" d="M369.37,-39.41C360,-35.76 349.81,-32.03 340.25,-29 330.48,-25.91 319.88,-23.02 309.75,-20.47"/>
<polygon fill="#63b8ff" stroke="#63b8ff" points="367.91,-42.6 378.5,-43.06 370.51,-36.1 367.91,-42.6"/>
</a>
</g>
</g>
<!-- Node3 -->
<g id="Node000003" class="node">
<title>Node3</title>
<g id="a_Node000003"><a xlink:href="../../dd/d01/class_g_e_u_1_1_file_manager.html#a7bcb4c4a764ee9419f0d924477566f60" target="_top" xlink:title=" ">
<polygon fill="white" stroke="#666666" points="147.25,-114 0,-114 0,-82 147.25,-82 147.25,-114"/>
<text text-anchor="start" x="8" y="-100.5" font-family="Helvetica,sans-Serif" font-size="10.00">GEU::FileManager::mergeGeu</text>
<text text-anchor="middle" x="73.62" y="-88.5" font-family="Helvetica,sans-Serif" font-size="10.00">Clouds</text>
</a>
</g>
</g>
<!-- Node2&#45;&gt;Node3 -->
<g id="edge2_Node000002_Node000003" class="edge">
<title>Node2&#45;&gt;Node3</title>
<g id="a_edge2_Node000002_Node000003"><a xlink:title=" ">
<path fill="none" stroke="#63b8ff" d="M182.57,-98C170.93,-98 158.98,-98 147.45,-98"/>
<polygon fill="#63b8ff" stroke="#63b8ff" points="182.57,-101.5 192.57,-98 182.57,-94.5 182.57,-101.5"/>
</a>
</g>
</g>
</g>
</svg>
