<?xml version="1.0" encoding="UTF-8" standalone="no"?>
<!DOCTYPE svg PUBLIC "-//W3C//DTD SVG 1.1//EN"
 "http://www.w3.org/Graphics/SVG/1.1/DTD/svg11.dtd">
<!-- Generated by graphviz version 10.0.1 (20240210.2158)
 -->
<!-- Title: transformCurve Pages: 1 -->
<svg width="575pt" height="84pt"
 viewBox="0.00 0.00 574.50 84.00" xmlns="http://www.w3.org/2000/svg" xmlns:xlink="http://www.w3.org/1999/xlink">
<g id="graph0" class="graph" transform="scale(1 1) rotate(0) translate(4 80)">
<title>transformCurve</title>
<!-- Node1 -->
<g id="Node000001" class="node">
<title>Node1</title>
<g id="a_Node000001"><a xlink:title=" ">
<polygon fill="#999999" stroke="#666666" points="566.5,-48 486,-48 486,-28 566.5,-28 566.5,-48"/>
<text text-anchor="middle" x="526.25" y="-34.5" font-family="Helvetica,sans-Serif" font-size="10.00">transformCurve</text>
</a>
</g>
</g>
<!-- Node2 -->
<g id="Node000002" class="node">
<title>Node2</title>
<g id="a_Node000002"><a xlink:href="../../d0/d00/_point_cloud_8cpp.html#a1deefca192e15b16f140bee909eab381" target="_top" xlink:title=" ">
<polygon fill="white" stroke="#666666" points="450,-48 353.75,-48 353.75,-28 450,-28 450,-48"/>
<text text-anchor="middle" x="401.88" y="-34.5" font-family="Helvetica,sans-Serif" font-size="10.00">mortonToHilbert3D</text>
</a>
</g>
</g>
<!-- Node1&#45;&gt;Node2 -->
<g id="edge1_Node000001_Node000002" class="edge">
<title>Node1&#45;&gt;Node2</title>
<g id="a_edge1_Node000001_Node000002"><a xlink:title=" ">
<path fill="none" stroke="#63b8ff" d="M474.09,-38C466.14,-38 457.95,-38 450.08,-38"/>
<polygon fill="#63b8ff" stroke="#63b8ff" points="474,-41.5 484,-38 474,-34.5 474,-41.5"/>
</a>
</g>
</g>
<!-- Node3 -->
<g id="Node000003" class="node">
<title>Node3</title>
<g id="a_Node000003"><a xlink:href="../../d4/d07/class_g_e_u_1_1_point_cloud.html#a2b9f0f4717f67aef7726684a3a7c5747" target="_top" xlink:title=" ">
<polygon fill="white" stroke="#666666" points="317.75,-70 183.25,-70 183.25,-50 317.75,-50 317.75,-70"/>
<text text-anchor="middle" x="250.5" y="-56.5" font-family="Helvetica,sans-Serif" font-size="10.00">GEU::PointCloud::hilbert3D</text>
</a>
</g>
</g>
<!-- Node2&#45;&gt;Node3 -->
<g id="edge2_Node000002_Node000003" class="edge">
<title>Node2&#45;&gt;Node3</title>
<g id="a_edge2_Node000002_Node000003"><a xlink:title=" ">
<path fill="none" stroke="#63b8ff" d="M342.24,-46.64C334.32,-47.8 326.15,-49.01 318.11,-50.19"/>
<polygon fill="#63b8ff" stroke="#63b8ff" points="342.73,-50.1 352.11,-45.18 341.71,-43.18 342.73,-50.1"/>
</a>
</g>
</g>
<!-- Node5 -->
<g id="Node000005" class="node">
<title>Node5</title>
<g id="a_Node000005"><a xlink:href="../../d4/d07/class_g_e_u_1_1_point_cloud.html#a78fb7686446258556265d3ccc676ac6c" target="_top" xlink:title="Performs sorting of the points in the point cloud using Hilbert Encoding.">
<polygon fill="white" stroke="#666666" points="311.75,-32 189.25,-32 189.25,0 311.75,0 311.75,-32"/>
<text text-anchor="start" x="197.25" y="-18.5" font-family="Helvetica,sans-Serif" font-size="10.00">GEU::PointCloud::hilbert</text>
<text text-anchor="middle" x="250.5" y="-6.5" font-family="Helvetica,sans-Serif" font-size="10.00">Sorting</text>
</a>
</g>
</g>
<!-- Node2&#45;&gt;Node5 -->
<g id="edge4_Node000002_Node000005" class="edge">
<title>Node2&#45;&gt;Node5</title>
<g id="a_edge4_Node000002_Node000005"><a xlink:title=" ">
<path fill="none" stroke="#63b8ff" d="M342.24,-29.36C332.36,-27.91 322.08,-26.4 312.15,-24.93"/>
<polygon fill="#63b8ff" stroke="#63b8ff" points="341.71,-32.82 352.11,-30.82 342.73,-25.9 341.71,-32.82"/>
</a>
</g>
</g>
<!-- Node4 -->
<g id="Node000004" class="node">
<title>Node4</title>
<g id="a_Node000004"><a xlink:href="../../dd/d01/class_g_e_u_1_1_file_manager.html#a7bcb4c4a764ee9419f0d924477566f60" target="_top" xlink:title=" ">
<polygon fill="white" stroke="#666666" points="147.25,-76 0,-76 0,-44 147.25,-44 147.25,-76"/>
<text text-anchor="start" x="8" y="-62.5" font-family="Helvetica,sans-Serif" font-size="10.00">GEU::FileManager::mergeGeu</text>
<text text-anchor="middle" x="73.62" y="-50.5" font-family="Helvetica,sans-Serif" font-size="10.00">Clouds</text>
</a>
</g>
</g>
<!-- Node3&#45;&gt;Node4 -->
<g id="edge3_Node000003_Node000004" class="edge">
<title>Node3&#45;&gt;Node4</title>
<g id="a_edge3_Node000003_Node000004"><a xlink:title=" ">
<path fill="none" stroke="#63b8ff" d="M171.63,-60C163.59,-60 155.45,-60 147.47,-60"/>
<polygon fill="#63b8ff" stroke="#63b8ff" points="171.37,-63.5 181.37,-60 171.37,-56.5 171.37,-63.5"/>
</a>
</g>
</g>
</g>
</svg>
